<svg class="main-svg" xmlns="http://www.w3.org/2000/svg" xmlns:xlink="http://www.w3.org/1999/xlink" width="700" height="500" style="" viewBox="0 0 700 500"><rect x="0" y="0" width="700" height="500" style="fill: rgb(255, 255, 255); fill-opacity: 1;"/><defs id="defs-e788fe"><g class="clips"><clipPath id="clipe788fexyplot" class="plotclip"><rect width="540" height="320"/></clipPath><clipPath class="axesclip" id="clipe788fex"><rect x="80" y="0" width="540" height="500"/></clipPath><clipPath class="axesclip" id="clipe788fey"><rect x="0" y="100" width="700" height="320"/></clipPath><clipPath class="axesclip" id="clipe788fexy"><rect x="80" y="100" width="540" height="320"/></clipPath></g><g class="gradients"/><g class="patterns"/></defs><g class="bglayer"/><g class="layer-below"><g class="imagelayer"/><g class="shapelayer"/></g><g class="cartesianlayer"><g class="subplot xy"><g class="layer-subplot"><g class="shapelayer"/><g class="imagelayer"/></g><g class="minor-gridlayer"><g class="x"/><g class="y"/></g><g class="gridlayer"><g class="x"><path class="xgrid crisp" transform="translate(167.13,0)" d="M0,100v320" style="stroke: rgb(255, 255, 255); stroke-opacity: 1; stroke-width: 1px;"/><path class="xgrid crisp" transform="translate(289.1,0)" d="M0,100v320" style="stroke: rgb(255, 255, 255); stroke-opacity: 1; stroke-width: 1px;"/><path class="xgrid crisp" transform="translate(411.08,0)" d="M0,100v320" style="stroke: rgb(255, 255, 255); stroke-opacity: 1; stroke-width: 1px;"/><path class="xgrid crisp" transform="translate(533.06,0)" d="M0,100v320" style="stroke: rgb(255, 255, 255); stroke-opacity: 1; stroke-width: 1px;"/></g><g class="y"><path class="ygrid crisp" transform="translate(0,415.9)" d="M80,0h540" style="stroke: rgb(255, 255, 255); stroke-opacity: 1; stroke-width: 1px;"/><path class="ygrid crisp" transform="translate(0,365.91)" d="M80,0h540" style="stroke: rgb(255, 255, 255); stroke-opacity: 1; stroke-width: 1px;"/><path class="ygrid crisp" transform="translate(0,315.93)" d="M80,0h540" style="stroke: rgb(255, 255, 255); stroke-opacity: 1; stroke-width: 1px;"/><path class="ygrid crisp" transform="translate(0,265.95)" d="M80,0h540" style="stroke: rgb(255, 255, 255); stroke-opacity: 1; stroke-width: 1px;"/><path class="ygrid crisp" transform="translate(0,215.97)" d="M80,0h540" style="stroke: rgb(255, 255, 255); stroke-opacity: 1; stroke-width: 1px;"/><path class="ygrid crisp" transform="translate(0,165.98000000000002)" d="M80,0h540" style="stroke: rgb(255, 255, 255); stroke-opacity: 1; stroke-width: 1px;"/></g></g><g class="zerolinelayer"><path class="yzl zl crisp" transform="translate(0,116)" d="M80,0h540" style="stroke: rgb(255, 255, 255); stroke-opacity: 1; stroke-width: 2px;"/></g><path class="xlines-below"/><path class="ylines-below"/><g class="overlines-below"/><g class="xaxislayer-below"/><g class="yaxislayer-below"/><g class="overaxes-below"/><g class="plot" transform="translate(80,100)" clip-path="url(#clipe788fexyplot)"><g class="scatterlayer mlayer"><g class="trace scatter tracef6b21b" style="stroke-miterlimit: 2; opacity: 0.5;"><g class="fills"/><g class="errorbars"/><g class="lines"><path class="js-line" d="M0,50.92L0.54,50.99L0.73,52.53L0.91,52.81L1.09,51.23L2.18,50.42L2.36,51.97L2.54,51.92L2.72,50.61L4.36,50.67L4.54,174.76L4.72,175.14L4.9,189.21L5.08,206.08L5.26,84.38L5.45,84.87L5.63,93.19L6.53,103.93L6.72,103.82L7.81,80.14L7.99,82.22L8.17,86.7L9.08,103.65L9.26,102.24L9.44,101.14L9.62,101.89L9.8,111.78L10.35,304L10.71,300.99L10.89,181.85L11.07,178.38L11.25,187.13L11.44,199.43L11.98,147.07L12.16,122.85L12.34,243.02L12.71,210.14L12.89,78.78L13.79,54.99L13.98,55.83L14.16,55.98L15.07,52.25L15.25,52.74L15.61,53.77L15.79,52.05L15.97,51.55L16.88,51.16L17.06,50.4L17.79,51.19L17.97,51.12L18.15,51.12L19.42,50.74L19.6,50.76L21.42,49.86L21.6,50.07L22.14,49.33L22.33,185.42L22.51,78.92L23.05,85.02L23.23,98.05L24.14,116.64L24.32,116.46L24.69,98.75L24.87,219.76L25.05,220.8L25.23,98L25.41,99.23L25.59,94.18L25.77,83.1L26.32,87.37L26.5,93.04L27.23,109.92L27.41,134.87L27.59,149.29L28.13,144.14L28.32,141.97L28.5,261.16L28.86,249.39L29.04,119.61L30.13,103.83L30.31,84.86L31.22,55.75L31.4,55.74L32.13,51.93L32.67,52.17L32.85,51.7L33.04,53.67L33.4,51.48L33.58,51.08L34.31,51.55L34.49,33.8L34.67,32.54L34.85,50.25L35.03,51.43L35.21,175.53L35.76,50.88L36.12,51.05L36.3,50.94L37.94,50.12L38.12,50.13L38.3,174.36L38.84,49.89L39.03,49.77L39.57,49.67L39.75,52.44L40.48,56.16L40.66,180.86L40.84,181.92L41.02,58.13L41.2,57.01L41.57,59.06L41.75,58.71L42.84,68.53L43.02,72.21L43.2,73.17L43.38,198.22L43.56,198.18L43.74,204.74L43.93,82.52L44.65,88.19L44.83,91.14L45.02,92.83L45.38,90.22L45.56,86.02L45.92,105.5L46.29,87.11L46.47,81.63L47.74,56.85L47.92,52.14L48.28,54.77L48.46,52.33L48.65,52.3L48.83,54.2L49.37,52.39L49.55,52.19L49.92,53.9L50.1,52.52L50.28,51.87L50.46,51.26L50.82,51.75L51.01,53.49L51.19,53.79L51.37,52.43L51.91,51.27L52.09,51.61L52.28,52.87L52.64,50.24L53.18,51.63L53.36,51.36L55.18,50.36L55.36,50.29L56.81,50.02L56.99,49.83L57.54,58.81L57.72,73.67L58.08,94.08L58.27,232.63L58.45,238.26L58.63,114.21L58.99,239.45L59.35,114.1L59.54,112.92L59.72,115.78L60.44,115.71L60.63,115.42L60.99,110.08L61.17,99.62L61.71,226.21L61.9,101.51L62.08,99.21L62.26,100.15L62.44,225.94L62.62,225.97L62.8,224.53L62.98,225.66L63.17,102.71L63.71,99.97L63.89,94.53L65.34,52L65.53,53.42L65.71,52.5L66.62,51.36L66.8,51.47L67.89,50.65L68.07,50.52L68.79,50.99L68.97,50.74L70.06,50.89L70.25,50.6L70.61,51.72L70.97,50.94L71.15,51.05L71.88,50.75L72.06,50.98L73.51,50.53L73.69,174.82L73.88,175.37L74.06,51.09L74.42,49.85L74.6,52.08L74.78,54.07L75.15,54.47L75.33,54.73L75.51,54.48L75.87,55.06L76.05,55.23L76.96,55.3L77.14,55.55L78.41,55.47L78.59,179.59L78.78,180.24L78.96,56.83L79.14,55.92L79.5,57.17L79.68,56.91L79.87,180.92L80.23,180.91L80.41,56.22L81.5,55.39L81.68,55.7L82.23,56.2L82.41,55.68L82.59,53.6L83.31,50.67L83.5,50.9L83.68,50.67L85.31,51.12L85.49,51.01L88.03,50.96L88.22,50.13L88.4,49.42L88.76,50.36L88.94,49.91L89.12,49.87L91.85,49.22L92.03,175.72L92.75,53.57L92.93,54.25L93.12,179.23L93.3,179.74L93.48,55.23L93.84,54.73L94.21,55.17L94.39,179.44L94.75,188.41L94.93,59.46L95.48,55.68L95.84,55.8L96.02,56.79L96.56,55.91L96.93,57.5L97.11,56.63L97.29,56.52L97.47,180.39L97.65,185.52L97.84,62.83L98.56,58.96L98.74,60.82L99.47,56.05L99.65,56.12L99.83,56.42L100.56,51.52L100.74,51.72L100.92,51.5L101.1,51.57L101.28,175.46L101.47,176.26L101.65,51.74L102.01,50.98L102.37,51.61L102.55,51.48L103.64,51.18L103.83,51.27L105.28,50.77L105.46,51.2L106.18,49.62L106.37,49.09L107.27,49.73L107.46,49.62L108.18,49.75L108.36,173.9L108.54,174.54L108.73,50.07L109.09,49.27L109.27,49.76L109.45,66.35L110.72,114.08L110.9,114.4L111.27,112.57L111.45,113.18L111.63,237.61L111.81,239.02L111.99,115.08L112.54,113.52L112.72,113.78L112.9,99.6L113.26,211.88L113.45,88.88L113.63,86.68L114.53,103.36L114.72,101.64L114.9,102.66L115.08,103.92L115.44,103.15L115.62,94.3L116.89,57.36L117.08,57.35L117.26,57.02L117.44,180.21L117.8,176.39L117.98,52.39L118.53,50.87L118.71,63.4L118.89,76.53L119.62,76.43L119.8,76L120.16,76.42L120.34,70.66L121.25,50.43L121.43,50.33L124.52,48.8L124.7,49.21L124.88,49.49L126.7,48.89L126.88,58.62L127.06,75.33L127.24,207.22L127.42,208.36L127.6,91.77L128.15,100.91L128.33,100.81L128.51,93L129.24,57.73L129.6,59.41L129.78,57.71L130.33,63.2L130.51,187.93L130.69,188.38L130.87,64.73L131.05,63.37L131.23,66.4L131.42,67.02L132.14,76L132.32,204.36L132.69,199.74L132.87,79.84L133.41,70.41L133.77,73.96L133.96,71.08L134.32,78.36L134.5,70.03L134.68,58.09L135.95,51.81L136.13,51.51L137.77,50.32L137.95,50.99L138.13,51.14L138.31,50.46L138.49,50.38L139.4,50.64L139.58,50.32L139.76,50.3L140.49,50.71L140.67,50.28L140.85,49.85L142.31,48.54L142.49,49.47L142.67,49.73L143.03,49.21L143.21,49.18L143.76,49.35L143.94,48.91L144.12,48.44L144.3,63.54L145.21,82.97L145.39,84.66L146.3,86.4L146.48,85.33L146.66,86.48L146.84,211.55L147.03,211.66L147.21,88.49L147.39,88.43L147.57,203.02L147.75,194.59L147.93,67.32L148.48,64.46L148.66,65.63L148.84,69.08L149.2,68.16L149.75,79.09L149.93,74.22L150.11,73.6L150.29,76.34L150.66,70.72L150.84,72.68L151.02,72.83L151.2,74.07L151.38,79.37L151.56,77.98L151.74,67.84L152.65,54.44L152.83,52.48L153.02,53.72L153.38,51.63L153.56,51.81L153.74,53.07L153.92,52.94L154.1,175.81L154.29,176.54L154.47,52.01L155.37,50.91L155.56,51.04L155.74,51.85L155.92,52.23L156.46,51.64L156.65,51.81L158.28,51.8L158.46,51.7L159.91,51.25L160.09,50.68L161.18,50.66L161.36,50.5L161.55,50.3L161.73,65.85L162.09,91.1L162.27,224.29L162.45,222.4L162.64,90.91L163,212.4L163.36,87.92L163.54,86.57L163.72,88.31L163.91,83.02L164.09,71.73L164.63,60.85L164.99,64L165.18,64.88L165.36,64.47L165.54,70.59L165.9,66.83L166.08,72.02L166.27,69.01L166.45,190.55L166.63,203.87L166.81,98.13L166.99,102.6L167.17,231.1L167.35,215.87L167.54,74.01L167.9,73.83L168.08,72.03L168.63,192.13L168.81,66.35L168.99,58.36L169.17,60.51L169.53,58.3L169.71,57.61L170.44,52.14L170.62,53.03L170.8,53.85L171.17,78.9L171.53,54.04L171.71,51.31L171.89,50.87L172.26,51.65L172.44,51.85L173.71,51.34L173.89,51.69L174.98,52.63L175.16,52.5L176.79,52.28L176.97,51.96L177.34,51.73L177.52,175.45L178.25,50L178.43,50.31L178.61,50.24L178.97,49.75L179.15,55.03L179.7,99.87L180.24,88.35L180.42,87.28L180.79,86.1L181.15,86.19L181.33,87.54L181.51,87.48L181.69,86.34L182.06,84.21L182.24,207.49L182.42,205.95L182.6,80.52L182.78,83.09L182.96,76.26L183.15,68.04L183.51,76.55L183.69,86.21L184.6,100.33L184.78,95.57L186.41,64L186.59,64.74L186.78,64.08L186.96,60.53L187.14,178.43L187.5,58.47L187.68,63.46L187.87,69.51L188.05,69.59L188.23,67.41L188.41,68.94L188.59,61.69L188.95,51.37L189.5,52.37L189.68,51.28L190.77,50.16L190.95,50.46L192.04,50.73L192.22,50.84L192.77,50.45L192.95,50.18L196.22,48.96L196.4,173.43L196.76,178.88L196.94,54.99L197.3,54.53L197.67,55.12L197.85,55.3L198.39,55.19L198.57,56.64L198.76,56.99L198.94,59.69L199.85,67.76L200.03,65.99L200.93,202.43L201.12,205.15L201.3,81.13L201.84,82.83L202.02,210.73L202.21,210.94L202.39,81.44L202.75,85.59L202.93,81.99L203.11,82.22L203.29,75.59L203.84,66.57L204.2,71.8L204.38,70.14L205.29,53.56L205.47,52.96L205.84,53.48L206.02,51.63L206.56,52.44L206.74,51.34L208.74,50.4L208.92,50.39L210.19,50.99L210.37,33.61L210.74,16L210.92,140.27L211.1,33.85L211.64,49.98L211.83,49.91L212.73,49.88L212.91,49.68L214,49.51L214.18,49.33L214.37,173.61L214.91,53.9L215.09,54.77L216.18,55.46L216.36,55.52L217.09,55.78L217.27,58.37L217.82,64.91L218,77.87L218.18,89.71L218.54,72.49L218.72,192.47L219.09,198.93L219.27,71.5L219.45,71.21L219.63,78.24L220.17,75.14L220.36,78.5L220.9,78.93L221.63,69.51L221.81,70.22L221.99,66.56L223.08,54.97L223.26,55.18L223.99,50.93L224.17,53.21L224.35,55.23L225.26,51.57L225.44,52.59L225.62,52.76L225.8,51.29L227.98,51.13L228.16,50.91L228.52,50.47L228.89,50.82L229.07,174.92L229.25,175.75L229.43,51.34L230.34,49.88L230.52,49.82L231.25,49.48L231.43,58.63L231.61,75.41L231.79,207.39L231.97,207.82L232.15,83.5L233.43,131.83L233.61,129.87L233.79,130.44L234.33,132.5L234.51,127.21L234.88,110.17L235.06,233.23L235.24,220.43L235.42,84.86L236.33,100.94L236.51,98.59L236.69,96.4L237.96,112.55L238.14,111.12L238.33,102.92L240.14,68.99L240.32,69.44L240.5,68.01L241.96,59.72L242.14,183.85L242.32,185.66L242.5,61.14L243.05,58.95L243.23,60.49L243.77,51.66L244.32,52.94L244.5,52.66L245.04,51.12L245.41,51.22L245.59,51.02L246.49,50.17L246.68,50.5L246.86,175.03L247.04,175.56L247.22,51.26L248.13,50.24L248.31,50.17L248.67,50.05L248.85,52.43L249.76,84.34L249.94,208.94L250.12,209.59L250.31,87.82L251.03,227.03L251.21,103.35L252.12,69.59L252.3,75.52L252.48,90.83L252.85,100.08L253.03,212.68L253.21,205.18L253.39,87.19L253.75,92.88L253.94,213.58L254.12,215.22L254.3,224.79L255.21,97.06L255.39,92.14L256.11,87.73L256.3,212.75L256.48,220.79L256.66,93.32L257.75,67.21L257.93,64.38L258.47,93.26L258.84,87.56L259.02,85.7L259.2,86.88L259.38,86.63L259.56,76.51L260.47,53.51L260.65,53.15L261.02,51.29L261.56,51.4L261.74,51.01L262.65,51.48L262.83,51.56L263.37,50.25L263.92,50.67L264.1,50.55L264.46,50.07L264.83,50.49L265.01,174.39L265.55,175.49L265.92,50.29L266.1,50.04L266.28,57.97L266.46,199.2L266.82,83.38L267.19,104.4L267.37,112.76L267.55,113.19L267.73,122.6L268.09,149.57L268.46,137.23L268.64,249.39L268.82,237.12L269,107.27L269.36,90.22L269.55,215.15L270.09,240.41L270.27,255.91L270.45,266.64L270.64,150.92L270.82,155.04L271,141.45L271.18,124.18L271.36,133.47L271.54,267.57L271.72,265L271.91,272.69L272.09,143.01L272.45,119.38L272.99,121.17L273.18,122.1L274.27,76.75L274.45,81.67L274.63,90.03L275.72,69.74L275.9,74.45L276.08,82.25L276.63,79.17L276.81,81.41L276.99,81.04L277.17,74.06L278.26,52.08L278.44,51.1L279.35,51.03L279.53,51.17L280.62,50.83L280.8,50.48L280.98,50.23L281.16,50.51L281.34,175.06L282.25,50.26L282.43,51.08L283.52,50.1L283.7,57.28L284.61,85.4L284.79,86.32L284.97,84.41L285.34,86.54L285.52,86.88L285.7,87.72L285.88,93.83L286.25,104.25L286.61,100.74L286.79,99.48L287.33,78.73L287.7,79.74L287.88,209.32L288.06,214.49L288.24,89.1L288.42,92.19L288.61,212.21L289.33,223.53L289.51,97.61L289.69,94.77L289.88,105.87L290.06,105.35L290.24,102.4L290.42,102.16L290.6,96L290.78,95.48L290.96,91.64L291.87,71.33L292.05,72.41L294.41,54.04L294.59,55.24L295.68,53.49L295.87,54.15L296.05,53.97L296.23,52.6L297.14,51.82L297.32,52.34L299.13,50.92L299.31,51.11L300.95,50.79L301.13,177.19L301.31,190.7L301.49,80.54L302.22,84.24L302.4,84.21L302.58,84.77L302.76,91.79L302.94,223.38L303.85,99.97L304.03,89.08L304.22,201.34L304.58,80.35L304.76,77.19L304.94,75.85L305.12,77.55L305.3,206.65L305.49,209.49L305.67,205.81L305.85,81.66L307.12,103.17L307.3,99.09L307.48,96.02L307.66,103.85L307.85,103.04L308.21,104.58L308.57,97.24L308.75,90.17L310.02,62.22L310.21,62.5L310.39,62.63L310.57,60.33L311.11,57.04L311.29,58.73L311.48,58.14L312.02,54.46L312.2,54.5L312.38,56.31L312.75,52.58L313.29,52.65L313.47,51.41L314.2,53.45L314.38,52.65L314.56,52.02L315.83,50.67L316.01,51.17L316.19,175.5L316.74,50.94L316.92,50.95L317.83,50.43L318.01,51.38L318.37,50.81L318.55,53.5L318.74,55.88L319.28,55.48L319.46,55.43L319.83,182.05L320.19,55.32L320.37,57.64L320.55,182.44L321.1,57.73L321.28,60.65L322.73,70.92L322.91,69.36L324,87.88L324.18,82.2L324.36,76.69L324.54,74.14L324.91,76.91L325.09,78.65L325.27,82.9L325.45,201.54L325.82,185.86L326.36,187.37L326.54,60.04L327.27,53.55L327.45,57.03L327.99,52.07L328.17,55.51L328.36,55.33L328.54,52.55L328.72,52.04L328.9,52.42L329.08,53.65L329.26,54.42L329.45,52.55L329.63,51.66L329.99,52.65L330.17,53.33L330.9,50.46L331.08,51L331.26,53.52L331.44,53.48L331.62,52.03L331.81,52.46L331.99,51.44L332.17,51.89L332.35,51.63L332.53,51.25L332.71,52.67L332.89,52.85L333.08,51.16L333.44,51.38L333.8,50.8L333.98,50.42L334.35,50.79L334.53,175.1L334.71,175.59L334.89,51.38L335.25,50.23L335.62,50.93L335.8,51.12L336.16,55.65L336.71,55.35L336.89,55.39L337.07,55.22L337.25,57.38L337.61,59.36L337.79,191.61L337.98,196.09L338.16,72.37L338.34,73.18L338.52,67.11L338.7,57.35L339.25,59.76L339.43,64.01L341.61,78.91L341.79,79.57L341.97,78.48L342.15,83.15L342.51,204.55L342.88,78.23L343.06,78.32L343.24,75.66L343.42,79.53L343.78,75.95L343.97,196.53L344.15,190.92L344.33,64L344.69,66.6L344.87,60.3L345.06,63.51L345.42,60.4L345.6,59.63L345.96,61.58L346.14,59.52L346.33,59.34L346.51,59.14L346.69,56.65L347.6,51.21L347.78,51.48L348.32,51.52L348.5,50.85L348.69,50.32L348.87,50.73L349.05,52.05L349.23,52.37L349.59,51.63L349.77,51.52L351.05,50.86L351.23,50.78L351.95,50.73L352.13,50.47L352.5,50.32L352.68,174.83L353.22,50.08L353.41,65.11L353.59,82.51L354.49,85.17L354.68,85.27L355.76,102.82L355.95,227.6L356.13,222.58L356.31,93.11L356.49,90.1L356.67,215.39L356.85,228.5L357.04,105.45L358.12,78.22L358.31,80.19L358.49,82.03L358.85,80.2L359.03,86.55L359.21,93.75L359.39,91.75L359.58,215.63L359.94,209.07L360.12,211.39L360.3,85.94L360.48,87.71L360.85,86.92L361.03,85.09L361.39,78.51L361.57,70.15L362.84,57.69L363.03,60.94L363.21,60.14L363.75,60.27L364.11,54.2L364.3,55.27L364.48,56.46L364.66,52.51L365.02,54.89L365.38,53.89L365.57,51.55L366.11,52.04L366.29,51.53L366.47,51.06L366.66,51.28L366.84,53.29L367.02,53.32L367.2,51.96L367.38,51.87L367.56,52.5L367.74,53.43L368.65,51.32L368.83,51.52L369.02,51.61L369.2,51.08L369.38,175.68L369.56,176.27L369.74,51.87L370.29,50.78L370.47,51.22L370.65,51.3L371.37,87.26L371.74,85.62L371.92,87.42L372.1,88.81L372.28,96.64L372.46,103.75L372.65,229.77L373.01,241.05L373.19,236.41L373.37,99.49L373.55,82.17L373.92,106.6L374.1,111.53L374.46,88.4L374.64,89.12L374.82,99.55L375.01,103.77L375.37,102.2L375.55,97.16L375.73,98.36L375.91,97.42L376.09,92.97L377.18,105.01L377.36,103.93L377.73,105.55L377.91,102.99L378.09,98.3L378.27,91.84L378.45,94.56L378.64,225.53L379,199.57L379.18,73.34L379.36,72.99L379.54,69.43L380.63,62.84L380.81,61.5L381.9,57.95L382.08,57.19L383.35,52.43L383.54,52.2L383.9,54.24L384.08,50.78L384.26,50.76L385.17,53.81L385.35,51.81L385.9,51.41L386.08,50.9L386.62,51.49L386.8,51.42L386.98,51.2L388.07,51.16L388.26,183.44L388.44,76.61L389.16,87.73L389.34,87.08L389.53,86.45L389.71,218.29L389.89,225.73L390.07,105.48L390.43,114.3L390.62,107.53L390.8,103.12L391.16,110.24L391.34,99.47L391.52,92.55L391.7,93.06L391.89,222.73L392.25,239.25L392.43,120.07L393.16,109.24L393.34,111.18L393.52,240.93L393.88,247.62L394.06,119.8L394.25,119.7L394.43,247.35L394.61,242.48L394.79,247.13L394.97,124.5L396.24,93.48L396.42,83.23L397.69,69.48L397.88,73.48L399.69,60.86L399.87,64.15L400.05,64.41L400.24,60.43L400.6,59.76L400.78,61.87L401.14,57.23L401.32,53.38L402.05,50.56L402.23,53.26L402.41,54.18L402.59,51.3L402.78,51.7L402.96,51.87L403.14,51.43L403.32,51.11L404.59,51.09L404.77,175.35L404.95,176.11L405.14,52.08L405.5,50.79L405.68,177.37L405.86,180.29L406.04,55.9L406.23,54.99L406.41,55.36L406.59,180.85L406.77,182.14L406.95,59.99L408.04,91.68L408.22,212.65L408.4,219.36L408.58,97.29L408.77,104.16L409.13,97.34L409.31,234.4L409.49,238.73L409.67,107.85L409.86,98.71L410.04,226.39L410.58,245.34L410.76,131.78L411.49,119.58L411.67,244.1L411.85,245.71L412.03,243.22L412.22,122.61L412.4,123.13L412.58,114.64L412.94,120.86L413.12,104.23L414.57,69.64L414.76,63.83L414.94,65.68L415.3,63.13L415.48,65.13L415.66,64.36L416.93,55.94L417.12,56.48L417.3,58L418.21,52.04L418.39,52.31L418.57,54.43L418.93,52.13L419.11,51.76L419.66,53.23L420.2,52.76L420.38,51.55L421.29,51.18L421.47,51.04L422.2,51.05L422.38,50.78L422.92,50.92L423.11,59.57L424.01,84.28L424.19,84.74L424.38,83.74L424.56,86.9L425.1,95.89L425.28,225.49L425.47,233L425.65,106.91L426.37,119.4L426.55,116.24L426.74,109.4L426.92,98.15L427.28,104.53L427.46,228L427.64,231.94L427.83,110.08L428.19,103.56L428.37,107.83L428.55,111.47L428.73,110.98L428.91,115.66L429.1,124.54L429.64,123.28L429.82,122.65L430.18,116.25L430.37,123.72L430.55,129.65L433.09,59.34L433.27,60.66L433.45,62.32L434.54,52.48L434.72,57.62L435.27,51.89L435.45,54.16L435.63,53.52L435.81,52.05L436.17,53.3L436.36,56.36L437.26,51.35L437.45,52.24L437.63,52.33L437.99,52.54L438.17,51.43L439.08,51.29L439.26,51.16L440.35,51.15L440.53,53.27L440.71,55.85L440.89,192.5L441.26,81.33L441.8,82.25L441.98,74.87L442.35,184.64L442.53,63.89L442.71,65.92L442.89,67.52L444.52,94.88L444.71,217.58L444.89,218.13L445.07,222.75L445.25,97.27L445.98,108.5L446.16,111.98L446.34,111.74L446.52,113.88L446.88,96.89L447.43,100.51L447.61,102.29L449.06,71.81L449.24,73.44L449.43,70.61L450.7,59.72L450.88,62.4L451.06,65.23L451.42,61.67L451.97,62.04L452.15,61.32L452.69,59.11L452.87,57.69L453.78,51.58L453.96,51.99L454.33,52.2L454.51,51.97L454.69,51.45L454.87,51.5L455.05,50.49L455.42,50.77L455.6,52.56L456.69,51.46L456.87,175.79L457.23,51.17L457.77,52.01L457.96,53.67L458.86,56.81L459.05,182.21L459.23,182.62L459.41,56.46L460.13,185.78L460.32,185.42L460.5,66.9L460.68,66.51L460.86,68.16L461.04,70.68L461.22,195.21L461.41,198.62L461.59,77.17L461.95,74.57L462.13,78.88L462.31,73.59L462.68,84.32L462.86,88.63L463.04,90.64L463.22,85.96L463.4,85.74L463.58,84L463.76,88.8L463.95,93.6L464.31,94.78L464.85,85.6L465.04,77.11L465.22,77.28L465.4,79.8L466.85,56.22L467.03,57.73L467.94,52.07L468.12,52.32L468.3,51.22L468.67,50.84L468.85,53.14L469.03,54.15L469.21,53.22L469.39,51.88L470.3,51.42L470.48,51.81L473.02,50.63L473.2,51.47L473.38,51.91L473.57,51.25L473.75,175.44L473.93,175.98L474.11,51.68L474.66,50.7L475.02,51.04L475.2,51L475.38,56.25L475.56,197.35L475.74,210.08L475.93,85.78L476.11,85.45L476.29,87.29L477.02,105.42L477.2,237.78L477.38,241.23L477.56,240L477.74,119.22L479.19,74.67L479.37,191.35L479.74,185.57L479.92,61.93L480.46,207.88L480.65,75.14L480.83,69.98L481.19,74.72L481.37,74.7L481.55,69.36L482.28,60.83L482.46,64.15L482.64,65.57L482.82,61.57L483.01,61.67L483.19,61.82L483.37,70.34L483.55,77.39L483.73,64.89L483.91,51.84L484.28,53.63L484.46,51.64L484.64,51.47L485.18,51.07L485.36,51.57L485.55,51.58L485.73,51.31L485.91,52.49L486.27,50.39L486.82,51.15L487,50.76L489.72,50.24L489.9,50.22L491.35,50.12L491.54,50.1L491.72,50.14L491.9,174.52L492.08,175.21L492.26,50.88L492.44,49.99L492.63,50.06L492.81,58.49L493.53,94.34L493.71,225.08L493.9,226.8L494.08,102.17L494.62,116.01L494.8,109.45L494.98,101.77L495.35,97.24L495.53,85.23L496.44,70.51L496.62,194.66L496.98,209L497.16,93.76L497.34,94.39L497.53,90.69L498.62,106.67L498.8,107.02L499.52,67.09L499.89,74.08L500.07,70.18L500.25,69.92L500.43,62.93L500.61,63.39L500.79,61.07L501.7,52.58L501.88,53.11L502.25,53.89L502.43,52.55L502.61,51.63L502.79,51.48L502.97,53.27L503.15,53.25L503.33,51.4L503.88,78.6L504.24,72.04L504.42,58.43L504.97,50.68L505.33,50.75L505.51,51.09L505.69,50.91L505.88,51.45L506.06,51.62L506.96,50.65L507.15,50.78L507.87,50.57L508.05,174.87L508.42,50.21L508.78,174.88L508.96,175.63L509.87,50.49L510.05,50.68L510.78,84.16L510.96,215.14L511.14,225.56L511.32,102.99L511.5,101.07L511.68,103.58L511.87,111.34L512.05,246.31L512.41,104.46L512.59,104.69L512.77,93.63L513.68,65.86L513.86,67.44L514.77,92.15L514.95,89.48L515.13,81.24L515.5,199.6L515.68,76.02L515.86,79.35L516.04,84.08L516.22,81.5L516.4,206.39L516.77,246.73L516.95,132.67L517.31,129.6L517.49,111.01L519.13,55.11L519.31,56.76L519.49,58.24L519.67,57.17L519.85,68.34L520.22,81.26L520.4,75.02L520.58,59.45L521.49,50.9L521.67,50.8L522.39,53.44L522.57,51.51L522.94,51.1L523.3,51.45L523.48,51.51L523.85,51.16L524.21,52.31L524.39,51.31L525.3,50.51L525.48,50.69L525.84,50.18L526.21,50.45L526.39,51.66L527.48,50.34L527.66,177.33L527.84,68.57L528.38,91.36L528.56,215.11L528.93,85.67L529.47,101.35L529.65,228.68L529.84,229.96L530.02,104.46L530.56,96.63L530.74,99.86L530.92,105.51L531.29,93.18L531.47,87.11L532.19,110.8L532.38,97L532.74,82.36L532.92,93.98L533.1,100.81L534.37,60.12L534.55,58.01L534.74,57.05L534.92,57.74L535.1,60.03L536.19,54.14L536.37,54.82L537.1,51.46L537.28,178.18L537.46,178.43L537.64,176.82L538,51.65L538.55,51.77L538.73,51.36L538.91,51.26L539.09,50.25L539.46,51.22L539.64,53.96L540,51.31" style="vector-effect: non-scaling-stroke; fill: none; stroke: rgb(0, 191, 255); stroke-opacity: 1; stroke-width: 2px; opacity: 1;"/></g><g class="points"/><g class="text"/></g></g></g><g class="overplot"/><path class="xlines-above crisp" d="M0,0" style="fill: none;"/><path class="ylines-above crisp" d="M0,0" style="fill: none;"/><g class="overlines-above"/><g class="xaxislayer-above"><g class="xtick"><text text-anchor="middle" x="0" y="433" transform="translate(167.13,0)" style="font-family: sans-serif; font-size: 12px; fill: rgb(42, 63, 95); fill-opacity: 1; white-space: pre; opacity: 1;"><tspan class="line" dy="0em" x="0" y="433">Mar 6</tspan><tspan class="line" dy="1.3em" x="0" y="433">2022</tspan></text></g><g class="xtick"><text text-anchor="middle" x="0" y="433" style="font-family: sans-serif; font-size: 12px; fill: rgb(42, 63, 95); fill-opacity: 1; white-space: pre; opacity: 1;" transform="translate(289.1,0)">Mar 13</text></g><g class="xtick"><text text-anchor="middle" x="0" y="433" style="font-family: sans-serif; font-size: 12px; fill: rgb(42, 63, 95); fill-opacity: 1; white-space: pre; opacity: 1;" transform="translate(411.08,0)">Mar 20</text></g><g class="xtick"><text text-anchor="middle" x="0" y="433" style="font-family: sans-serif; font-size: 12px; fill: rgb(42, 63, 95); fill-opacity: 1; white-space: pre; opacity: 1;" transform="translate(533.06,0)">Mar 27</text></g></g><g class="yaxislayer-above"><g class="ytick"><text text-anchor="end" x="79" y="4.199999999999999" transform="translate(0,415.9)" style="font-family: sans-serif; font-size: 12px; fill: rgb(42, 63, 95); fill-opacity: 1; white-space: pre; opacity: 1;">−120k</text></g><g class="ytick"><text text-anchor="end" x="79" y="4.199999999999999" style="font-family: sans-serif; font-size: 12px; fill: rgb(42, 63, 95); fill-opacity: 1; white-space: pre; opacity: 1;" transform="translate(0,365.91)">−100k</text></g><g class="ytick"><text text-anchor="end" x="79" y="4.199999999999999" style="font-family: sans-serif; font-size: 12px; fill: rgb(42, 63, 95); fill-opacity: 1; white-space: pre; opacity: 1;" transform="translate(0,315.93)">−80k</text></g><g class="ytick"><text text-anchor="end" x="79" y="4.199999999999999" style="font-family: sans-serif; font-size: 12px; fill: rgb(42, 63, 95); fill-opacity: 1; white-space: pre; opacity: 1;" transform="translate(0,265.95)">−60k</text></g><g class="ytick"><text text-anchor="end" x="79" y="4.199999999999999" style="font-family: sans-serif; font-size: 12px; fill: rgb(42, 63, 95); fill-opacity: 1; white-space: pre; opacity: 1;" transform="translate(0,215.97)">−40k</text></g><g class="ytick"><text text-anchor="end" x="79" y="4.199999999999999" style="font-family: sans-serif; font-size: 12px; fill: rgb(42, 63, 95); fill-opacity: 1; white-space: pre; opacity: 1;" transform="translate(0,165.98000000000002)">−20k</text></g><g class="ytick"><text text-anchor="end" x="79" y="4.199999999999999" style="font-family: sans-serif; font-size: 12px; fill: rgb(42, 63, 95); fill-opacity: 1; white-space: pre; opacity: 1;" transform="translate(0,116)">0</text></g></g><g class="overaxes-above"/></g></g><g class="polarlayer"/><g class="smithlayer"/><g class="ternarylayer"/><g class="geolayer"/><g class="funnelarealayer"/><g class="pielayer"/><g class="iciclelayer"/><g class="treemaplayer"/><g class="sunburstlayer"/><g class="glimages"/><defs id="topdefs-e788fe"><g class="clips"/></defs><g class="layer-above"><g class="imagelayer"/><g class="shapelayer"/></g><g class="infolayer"><g class="g-gtitle"><text class="gtitle" x="350" y="50" text-anchor="middle" dy="0em" style="font-family: sans-serif; font-size: 17px; fill: rgb(42, 63, 95); opacity: 1; font-weight: normal; white-space: pre;"><tspan class="line" dy="0em" x="350" y="50"><tspan style="font-weight:bold">Scenario 3</tspan></tspan><tspan class="line" dy="1.3em" x="350" y="50"><tspan style="font-weight:bold">Microgrid Output</tspan></tspan><tspan class="line" dy="2.6em" x="350" y="50"><tspan style="font-weight:bold">From: March 01, 2022 to March 31, 2022</tspan></tspan></text></g><g class="g-xtitle"><text class="xtitle" x="350" y="476.409375" text-anchor="middle" style="font-family: sans-serif; font-size: 14px; fill: rgb(42, 63, 95); opacity: 1; font-weight: normal; white-space: pre;"><tspan style="font-weight:bold">Time</tspan></text></g><g class="g-ytitle"><text class="ytitle" transform="rotate(-90,21.168750000000003,260)" x="21.168750000000003" y="260" text-anchor="middle" style="font-family: sans-serif; font-size: 14px; fill: rgb(42, 63, 95); opacity: 1; font-weight: normal; white-space: pre;"><tspan style="font-weight:bold">Demand (kW)</tspan></text></g></g></svg>