<svg class="main-svg" xmlns="http://www.w3.org/2000/svg" xmlns:xlink="http://www.w3.org/1999/xlink" width="700" height="500" style="" viewBox="0 0 700 500"><rect x="0" y="0" width="700" height="500" style="fill: rgb(255, 255, 255); fill-opacity: 1;"/><defs id="defs-5dc049"><g class="clips"><clipPath id="clip5dc049xyplot" class="plotclip"><rect width="540" height="320"/></clipPath><clipPath class="axesclip" id="clip5dc049x"><rect x="80" y="0" width="540" height="500"/></clipPath><clipPath class="axesclip" id="clip5dc049y"><rect x="0" y="100" width="700" height="320"/></clipPath><clipPath class="axesclip" id="clip5dc049xy"><rect x="80" y="100" width="540" height="320"/></clipPath></g><g class="gradients"/><g class="patterns"/></defs><g class="bglayer"/><g class="layer-below"><g class="imagelayer"/><g class="shapelayer"/></g><g class="cartesianlayer"><g class="subplot xy"><g class="layer-subplot"><g class="shapelayer"/><g class="imagelayer"/></g><g class="minor-gridlayer"><g class="x"/><g class="y"/></g><g class="gridlayer"><g class="x"><path class="xgrid crisp" transform="translate(116.00999999999999,0)" d="M0,100v320" style="stroke: rgb(255, 255, 255); stroke-opacity: 1; stroke-width: 1px;"/><path class="xgrid crisp" transform="translate(242.06,0)" d="M0,100v320" style="stroke: rgb(255, 255, 255); stroke-opacity: 1; stroke-width: 1px;"/><path class="xgrid crisp" transform="translate(368.1,0)" d="M0,100v320" style="stroke: rgb(255, 255, 255); stroke-opacity: 1; stroke-width: 1px;"/><path class="xgrid crisp" transform="translate(494.14,0)" d="M0,100v320" style="stroke: rgb(255, 255, 255); stroke-opacity: 1; stroke-width: 1px;"/></g><g class="y"><path class="ygrid crisp" transform="translate(0,380.13)" d="M80,0h540" style="stroke: rgb(255, 255, 255); stroke-opacity: 1; stroke-width: 1px;"/><path class="ygrid crisp" transform="translate(0,319.3)" d="M80,0h540" style="stroke: rgb(255, 255, 255); stroke-opacity: 1; stroke-width: 1px;"/><path class="ygrid crisp" transform="translate(0,258.47)" d="M80,0h540" style="stroke: rgb(255, 255, 255); stroke-opacity: 1; stroke-width: 1px;"/><path class="ygrid crisp" transform="translate(0,197.65)" d="M80,0h540" style="stroke: rgb(255, 255, 255); stroke-opacity: 1; stroke-width: 1px;"/><path class="ygrid crisp" transform="translate(0,136.82)" d="M80,0h540" style="stroke: rgb(255, 255, 255); stroke-opacity: 1; stroke-width: 1px;"/></g></g><g class="zerolinelayer"/><path class="xlines-below"/><path class="ylines-below"/><g class="overlines-below"/><g class="xaxislayer-below"/><g class="yaxislayer-below"/><g class="overaxes-below"/><g class="plot" transform="translate(80,100)" clip-path="url(#clip5dc049xyplot)"><g class="scatterlayer mlayer"><g class="trace scatter traced9d402" style="stroke-miterlimit: 2; opacity: 0.5;"><g class="fills"/><g class="errorbars"/><g class="lines"><path class="js-line" d="M0,18.81L0.19,18.44L0.38,19.12L0.56,18.88L0.75,19.41L1.5,18.52L1.69,18.66L1.88,21.08L2.06,20.94L2.25,18.18L3.19,18.14L3.38,17.93L3.75,17.71L3.94,169.76L4.13,171.32L4.31,19.58L4.69,170.75L4.88,19.47L5.06,31.36L5.25,51.82L6.19,61.82L6.38,61.1L7.5,37.93L7.69,45.12L9.38,234.62L9.57,231.04L9.75,77.71L10.32,79.14L10.5,82.3L11.07,88.81L11.25,104.08L11.44,112.04L11.63,101.43L11.82,102.39L12,98.04L12.57,89.55L12.75,73.66L13.69,42.39L13.88,42.3L14.07,43.58L14.25,38.12L14.63,39.86L14.82,33.98L15.76,32.13L15.94,33.13L16.69,29.41L16.88,32.03L17.44,26.15L17.63,20.42L17.82,20.68L18.01,19.73L18.19,18.11L18.38,18.27L18.57,20.2L18.76,23.29L19.13,20.31L19.32,20.01L19.51,18.9L20.07,19.66L20.26,19.51L20.82,18.76L21.01,19.25L21.19,19.39L21.76,18.62L21.95,18.99L22.13,19.16L22.32,18.78L22.51,170.11L22.7,170.65L22.88,19.09L23.26,24.29L23.45,34.41L24.2,55.3L24.38,207.7L24.57,209.69L24.76,57.94L25.7,52.9L25.88,35.87L26.07,25.59L26.63,28.38L26.82,26.77L27.01,26.44L27.2,29.52L27.57,24.31L27.76,178.35L28.13,183.3L28.32,38.69L28.51,43.29L28.7,201.74L28.89,202.76L29.07,201.23L29.26,49.01L29.82,61.4L30.01,75.21L30.57,62.44L31.14,62.76L31.32,65.78L32.26,18.14L32.82,20.98L33.01,20.89L33.57,22.71L33.76,19.62L34.51,22.56L34.7,19.29L35.45,22.62L35.64,20.45L35.82,20.46L36.39,20.54L36.58,20.91L36.76,21.24L36.95,19.41L37.33,21.49L37.7,20.45L37.89,19.74L38.08,20.01L38.45,19.47L38.64,22.21L39.2,19.91L39.39,170.68L39.76,19.08L40.14,19.39L40.33,170.07L40.51,171.62L40.7,19.91L40.89,19.52L41.08,22.41L41.64,26.28L42.01,25.54L42.2,25.05L42.58,24.08L42.76,25.44L42.95,26.19L43.14,179.49L43.33,179.37L43.52,25.58L44.08,180.47L44.27,28.92L44.45,25.13L45.58,29.61L45.77,28.04L46.14,184.9L46.52,32.1L46.7,32.55L47.08,31.05L47.27,33.99L47.45,36.13L47.83,29.21L48.02,34.31L48.2,38.37L48.77,65.21L48.95,51.9L49.14,186.95L49.33,185.44L49.52,25.86L50.46,20.89L50.64,21.37L50.83,19.28L51.02,23.72L51.21,23.8L51.77,19.6L51.96,22.02L52.14,22.78L52.71,19.53L53.08,20.03L53.27,19.98L53.46,22.37L53.83,20.38L54.02,19.93L54.21,19.18L54.58,19.47L54.77,20.04L55.52,18.88L55.71,20.22L55.89,20.12L56.08,19.12L57.39,18.86L57.58,18.99L57.77,18.54L58.33,18.93L58.52,19.16L58.71,18.46L58.9,19L59.08,33.14L59.27,204.37L59.83,58.93L60.02,60.29L60.4,61.32L60.58,67.87L60.96,231.09L61.33,79.91L61.52,79.99L61.9,83.04L62.08,88.62L62.46,95.19L62.65,90.3L62.83,76.17L63.77,43L63.96,45.31L64.15,56.92L64.33,52.93L64.52,57.46L64.71,55.78L64.9,206.5L65.65,228.48L65.84,219.96L66.02,207.05L66.21,209.52L66.4,205.51L66.59,51.45L67.34,35.07L67.71,36.14L67.9,31.73L68.09,32.91L68.27,27.8L68.46,27.7L68.65,29.26L69.4,21.18L69.59,24.37L70.34,19.95L70.52,23.18L71.27,19.38L71.46,22.78L71.65,22.49L71.84,20.46L72.21,18.99L72.4,20.53L72.96,20.41L73.15,18.73L73.34,20.4L73.71,18.18L73.9,17.97L74.28,20.54L74.84,19.56L75.03,18.3L75.59,19.2L75.96,18.96L76.15,19.6L76.53,18.52L76.9,18.89L77.09,27.02L77.65,62.62L77.84,223.32L78.21,232.98L78.4,81.7L78.96,100.36L79.15,97.07L79.34,90.58L79.53,88.85L79.72,79.81L79.9,214.8L80.28,211.66L80.47,52.55L81.03,227.68L81.22,118.17L81.4,135.75L81.59,131.4L81.78,142.66L81.97,137.97L82.15,110.45L82.53,98.66L82.72,114.78L82.9,130.35L83.28,77.23L83.84,78.05L84.03,75.35L85.15,56.12L85.34,52.33L86.66,33.74L86.84,37.77L88.16,26.04L88.34,32.66L89.28,23.68L89.47,26.54L89.66,26.55L89.84,21.08L90.41,27.47L90.59,24.58L90.78,21.14L91.53,24.64L91.72,20.9L91.91,22.11L92.09,21.2L92.28,19.27L92.47,19.29L92.66,21L93.22,23.42L93.41,20.98L93.59,171.61L93.97,19.91L94.35,20.73L94.53,171.73L94.72,172.43L94.91,20.16L95.28,45.09L95.47,59.97L95.66,59.9L95.85,64L96.22,62.27L96.6,70.24L96.78,87.15L97.35,114.14L97.53,106.14L97.72,88.36L98.1,71.19L98.28,230.72L98.47,238.45L98.66,87.1L99.97,116.71L100.16,111.72L100.35,108.34L100.53,111.79L100.72,109.68L100.91,265.72L101.1,264.42L101.29,113.3L101.47,124.69L101.66,260.96L101.85,240.64L102.04,79.65L102.22,73.81L102.79,73.93L102.97,74.44L103.35,92L103.54,79.59L103.72,69.32L104.29,78.27L104.47,74.82L104.66,75.8L104.85,69.97L105.41,60.28L105.6,46.88L106.16,26.57L106.54,26.82L106.72,26.98L107.1,27.68L107.29,26.53L107.47,22.97L107.85,25.76L108.04,22.07L108.23,20.75L108.41,23.31L108.79,20.92L108.98,20.16L109.16,20.38L109.35,23.12L109.54,172.92L109.91,20.88L110.1,20.15L110.29,20.33L110.48,18.45L110.85,18.34L111.04,21.02L111.23,20.97L111.41,18.97L111.6,19.64L112.16,19.12L112.35,18.89L112.54,19.35L112.73,169.94L112.91,171.77L113.1,28.64L114.6,115.17L114.79,294.5L115.16,304L115.73,113.94L115.92,260.2L116.1,259.08L116.29,117.93L116.67,130.77L116.85,129.8L117.04,266.88L117.42,298.18L117.6,150.56L117.98,167.94L118.17,150.01L118.35,150.57L118.54,154.43L118.92,166.81L119.1,162.79L119.29,153.08L120.23,98.68L120.42,102.4L120.6,102.91L121.54,65.16L121.73,78.14L121.92,78.7L123.04,45.25L123.23,42.52L123.42,43.46L123.61,39.89L124.36,32.53L124.54,29.99L124.92,34.53L125.29,32.16L125.48,30.75L125.67,32.86L125.86,29.9L126.04,28.02L126.23,30.42L126.61,27.55L126.79,25.53L126.98,28.12L127.36,25.19L127.54,26.32L127.73,20.28L128.48,22.19L128.67,170.1L128.86,171.49L129.04,19.73L129.23,19.81L129.42,20.97L129.61,19.31L130.17,20.97L130.36,21.77L130.55,18.91L130.73,19.92L130.92,25.19L131.3,210.64L131.67,62.07L131.86,62.6L132.23,68.56L132.42,82.1L133.17,107.04L133.36,93.41L133.55,78.53L133.73,74.8L133.92,87.94L135.23,144.37L135.42,132.5L135.61,114.43L136.36,153.41L136.55,153.24L136.73,142.77L137.49,165.46L137.67,164.81L137.86,134.15L138.8,100.28L138.99,97.87L139.36,86.15L139.55,78.65L139.74,73.27L139.92,222.08L140.3,209.15L140.49,58.18L140.67,59.92L140.86,55.71L141.05,55.44L142.74,26.51L142.92,26.41L143.3,30.55L143.67,26.91L143.86,24.09L144.24,27.06L144.43,23.19L144.61,24.88L144.8,24.21L144.99,20.51L145.18,23.8L145.74,23.14L145.93,22.2L146.11,22.03L146.3,19.79L147.05,22.52L147.24,18.53L147.43,17.88L147.61,18.08L147.8,20.66L148.18,19.16L148.36,21.89L148.55,21.84L148.74,19.48L149.11,21.15L149.3,24.34L149.49,24.32L149.68,177.72L150.05,26.18L150.43,40.47L150.61,44.78L150.8,206.99L151.37,61.68L151.55,65.7L151.93,51.42L152.12,62.51L152.49,84.99L152.68,83.29L152.87,228.29L153.05,240.54L153.24,98.26L153.62,92.31L153.8,247.71L154.18,255.45L154.37,100.61L154.55,96.88L154.74,109.53L155.12,83.18L155.49,97.18L155.68,97.65L156.8,64.6L156.99,59.31L157.18,60.3L157.37,56.51L157.55,52.67L157.74,199.67L157.93,197.64L158.12,46.08L158.49,35.02L158.68,184.26L158.87,185.42L159.06,183.86L159.24,33L160.56,25.04L160.74,27.19L161.87,22.69L162.06,25.46L162.43,21.6L162.99,21.88L163.18,22.09L163.37,24.06L163.56,24.01L163.74,19.53L164.12,23.61L164.49,21.44L164.68,19.45L165.06,23.33L165.24,21.26L165.43,20.34L165.62,19.39L166,20.5L166.18,20.58L166.56,19.4L167.87,26.12L168.06,24.06L168.25,24.02L168.43,31.35L169.37,50.77L169.56,50.51L169.93,46.28L170.12,53.2L170.31,203.32L170.68,43.7L171.25,47.17L171.43,55.46L172.37,77.76L172.56,72.85L172.75,64.92L173.12,207.6L173.5,65.96L173.69,53L173.87,199.6L174.25,51.76L174.44,48.27L175.56,36.47L175.75,185.41L175.94,182.2L176.12,29.84L177.06,22.55L177.25,26.23L177.44,26.52L177.62,22L178.19,24.24L178.37,22.26L178.56,19.89L178.75,23.63L179.12,20.37L179.31,20.52L179.87,20.13L180.06,21.98L180.25,20.01L180.63,23.04L180.81,20.15L181,20.86L181.19,19.37L181.56,22.14L181.75,21.5L182.13,18.92L182.69,19.38L182.88,22.14L183.44,19.62L183.63,170.43L183.81,171.48L184,18.53L184.19,17.77L184.38,18.25L184.56,21.66L184.75,23.16L184.94,20.54L185.13,30.72L186.44,97.19L186.63,94.63L187,97.86L187.19,90.77L187.38,84.73L187.57,234.51L187.94,251.61L188.13,102.02L188.32,245.4L188.69,69.01L188.88,55.59L189.25,47.31L189.63,55.15L189.82,54.97L191.13,89.57L191.32,86.46L191.5,79.48L191.88,78.56L192.07,73.45L192.44,71.19L192.63,53.63L193.57,29.45L193.75,27.23L193.94,26.86L194.13,177.85L194.51,176.25L194.69,27.17L195.44,20.13L195.82,21.27L196.01,22.99L196.38,19.66L196.76,19.8L196.94,21.09L197.13,20.82L197.32,21.77L197.51,22.36L197.88,18.52L198.26,20.92L198.44,21.86L198.63,19.88L199.01,20.36L199.19,171.77L199.38,172.54L199.57,19.78L200.88,18.71L201.07,19.12L201.44,18.63L202.01,19.4L202.2,19.07L202.38,18.36L202.76,18.97L202.95,19.43L205.01,95.84L205.2,88.79L205.38,82.06L205.57,83.28L205.76,225.59L205.95,210.34L206.13,59.07L206.32,58.35L206.51,49.6L206.7,49.86L206.88,63.47L207.26,257.77L207.82,241.9L208.01,233.5L208.2,68.03L208.76,90.95L208.95,72.68L210.07,34.79L210.26,39.44L210.45,41.37L210.64,39.22L210.82,35.98L211.95,23.13L212.14,26.37L213.26,20.24L213.45,20.12L213.64,20.24L213.82,18.67L214.39,21.63L214.57,20.48L214.76,18.52L215.51,20.04L215.7,19.07L215.89,19.45L216.08,18.95L216.26,17.88L216.83,19.48L217.2,19.09L217.39,18.54L218.14,18.8L218.33,169.57L219.26,17.8L219.45,17.91L220.2,16.9L220.39,17.2L220.58,17.25L220.95,16L221.14,18.8L221.7,25.49L221.89,51.35L222.83,89.36L223.01,95.65L223.39,79.36L223.58,80.07L223.77,231.5L223.95,227.94L224.14,70.17L224.33,66.68L224.52,218.72L224.7,210.19L224.89,46L225.27,38.93L225.45,44.79L225.64,48.06L226.02,52.06L226.2,62.95L226.77,74.89L226.95,74.18L227.14,62.36L228.45,34.81L228.64,41.2L228.83,39.15L230.89,21.22L231.08,21.34L231.46,22.25L231.64,19.53L232.39,22.36L232.58,18.88L232.77,20.13L233.33,19.86L233.52,18.48L234.27,19.48L234.46,18.59L235.21,20.14L235.39,19.25L238.4,17.61L238.58,17.22L238.96,17.43L239.15,36.91L239.33,57.5L239.52,208.9L239.9,224.16L240.08,80.53L240.46,61.36L240.65,69.54L240.83,92.05L241.58,110.9L241.77,100.53L242.15,70.48L242.52,81.31L242.71,83.47L242.9,82.65L243.08,85.25L243.46,88.19L243.65,93.06L243.83,94.38L244.02,104.3L244.21,113.98L244.77,109.25L244.96,113.84L245.15,109.4L245.34,87.4L246.65,39.07L246.84,45.83L247.02,41.85L248.52,25.69L248.71,24.2L249.27,24.29L249.46,21.1L249.65,21.89L249.84,23.41L250.21,20.75L250.4,19.65L251.15,24.03L251.34,22.57L251.52,20.47L252.84,18.28L253.03,18.76L253.21,19.47L253.4,20.91L253.78,19.29L253.96,19.3L254.15,18.38L254.71,18.75L254.9,18.57L256.03,18.7L256.21,169.97L256.96,19.21L257.15,32.66L258.09,63.72L258.28,214.6L258.46,66.44L259.03,89.76L259.22,229.37L259.59,49.09L259.97,57.62L260.15,60.93L260.34,58.04L260.53,59.04L260.72,206.53L260.9,210.12L261.09,77.15L261.28,83.59L261.47,237.22L261.65,239.08L261.84,78.49L262.03,76.67L262.22,81.94L262.4,251.97L262.59,270.12L262.78,269.09L262.97,123.69L263.34,121.77L263.53,124.14L263.72,125.62L263.9,126.96L264.09,116.01L264.47,91.32L264.65,61.03L265.59,37.09L265.78,184.8L265.97,188.49L266.15,34.24L266.34,183.28L266.72,27.68L266.91,27.45L267.09,26.75L267.28,28.88L267.47,28.64L268.03,21.79L268.22,24.24L268.41,26.52L269.53,20.09L269.72,20.84L269.91,19.54L270.09,20.54L270.28,22.51L271.41,18.71L271.78,19.06L271.97,21.4L272.34,19.18L272.91,19.66L273.09,19.65L274.22,18.79L274.41,19.05L274.97,18.93L275.16,21.57L275.72,34.95L275.91,188.47L276.1,37.59L276.66,39.01L276.85,38.09L277.03,37.94L277.22,189.39L277.41,189.55L277.6,187.15L278.35,24.73L278.53,177.12L278.72,180.74L278.91,31.41L279.1,27.44L279.47,33.83L279.66,31.88L279.85,30.68L280.03,34.64L280.41,45.1L280.78,38.83L280.97,31.52L281.35,48.33L281.54,46.19L281.72,193L282.1,190.45L282.29,38.25L282.47,38.48L282.66,35.68L282.85,35.56L283.04,37.44L283.41,33.84L283.6,31.08L284.72,23.16L284.91,24.62L285.1,24.23L285.29,18.5L285.66,22.46L286.22,21.23L286.41,21.71L286.79,23.18L286.97,20.01L287.54,19.24L287.72,22.42L287.91,21.76L288.1,20.33L288.29,20.33L288.48,19.45L289.6,21.77L289.79,18.71L290.16,18L290.35,19.63L290.54,20.51L290.73,18.94L290.91,19.27L291.1,19.1L291.48,19.38L291.66,18.34L292.23,21.2L292.41,173.18L292.6,171.55L292.79,171.83L292.98,20.39L293.35,25.32L293.54,24.45L293.73,176.78L293.91,177.33L294.1,26.67L294.29,28.08L294.48,26.52L294.66,24.09L294.85,24.43L295.04,28.1L295.23,30.04L295.42,27.58L295.6,179.08L295.98,190.76L296.17,38.64L297.1,208.13L297.29,211L297.48,217.77L297.67,212.51L297.85,59.35L298.23,75.79L298.42,79.84L298.79,63.12L298.98,64.3L299.17,75.34L299.35,71.64L299.54,74.5L299.73,86.3L300.85,59.04L301.04,60.22L303.29,30.15L303.48,32.8L303.86,24.49L304.23,28.41L304.42,26.32L305.54,21.34L305.73,23.5L305.92,24.62L306.11,24.04L306.29,20.8L306.67,21.44L306.86,20.1L307.04,21.72L307.61,20.84L307.79,19.25L307.98,20.45L308.36,18.95L308.54,170.19L309.29,19.97L309.48,20.11L309.67,19.4L310.05,19.13L310.42,19.38L310.61,19.32L310.98,171.26L311.36,48.05L311.55,59.31L312.3,236.05L312.48,99.06L312.67,97.25L312.86,105.44L313.8,129.44L313.98,128.61L314.17,129.35L314.55,150.42L314.73,140.61L314.92,114.73L315.48,70.34L315.67,73.18L315.86,242.65L316.8,100.01L316.99,98.78L317.17,101.6L317.36,89.84L318.11,69.65L318.3,71.11L318.49,70.2L319.05,62.37L319.24,57.05L320.55,34.52L320.74,34.91L321.49,27.47L321.67,31.39L321.86,27.6L322.05,173.71L322.42,178.99L322.61,176.57L322.8,24.22L323.17,22.99L323.36,20.32L323.92,23.98L324.11,21.18L324.3,20.3L324.86,23.66L325.05,20.65L325.24,19.54L325.8,20.51L325.99,20.25L326.74,18.14L326.93,18.23L327.11,20.25L327.3,21.1L327.49,19.12L327.68,19.63L327.86,19.39L328.05,19.15L328.24,19.45L328.43,169.75L328.61,171.64L328.99,171.08L329.18,30.42L329.55,60.65L329.74,219.41L329.93,229.79L330.11,81.01L330.49,82.1L330.68,87.6L330.86,100.76L331.24,88.26L331.43,87L331.8,102.3L331.99,90.42L332.18,80.25L332.55,62.01L332.93,71.71L333.12,83.43L333.49,99.67L333.68,123.55L334.62,141.62L334.8,138.96L334.99,125.87L336.12,102.25L336.3,107.28L336.49,124.94L336.68,124.96L336.87,100.7L337.62,51.3L337.8,204.94L337.99,201.23L338.18,48.23L339.68,23.69L339.87,23.95L340.06,26.78L340.43,18.59L340.81,21.93L340.99,22.22L341.37,20.26L341.56,21.03L341.74,22.52L341.93,23.85L342.12,20.65L342.31,20.09L342.68,19.81L343.43,21.72L343.62,21.66L343.81,22.2L343.99,20.24L344.18,20.77L344.37,20.38L344.56,18.65L344.74,20.14L344.93,20.01L345.12,170L345.31,19.61L345.87,22.21L346.06,19.92L346.25,20.12L346.43,19.2L346.62,20.31L347,19.98L347.18,28.01L347.93,64.66L348.12,63.93L348.31,61.89L348.68,217.62L349.06,83.15L349.25,83.63L349.43,85.29L349.62,82.8L349.81,67.8L351.12,41.56L351.31,48.07L351.68,215.23L352.06,50.73L352.25,56.72L353.19,75.98L353.37,93.16L353.56,100.27L353.75,89.88L353.94,80.02L354.12,77.89L354.31,224.6L354.5,226.07L354.69,239.19L355.62,63.55L355.81,54.06L356.75,23.29L356.94,23.05L357.12,24L357.31,21.2L357.5,20.1L358.06,22.51L358.25,20.15L358.44,19.84L358.62,20.4L358.81,18.38L359,17.9L359.19,18.08L359.37,20.82L359.56,21.25L359.75,19.11L360.5,20.09L360.69,19.15L360.88,19.92L361.44,19.52L361.63,18.81L361.81,19.27L362.38,18.85L362.56,18.48L363.13,19.03L363.31,18.82L363.5,18.19L363.69,18L363.88,18.3L364.06,19.23L364.81,18.3L365,18.61L365.19,33.6L365.38,54.13L365.56,210.18L365.75,60L366.31,79.33L366.5,79.27L367.06,98.12L367.63,94.74L367.82,99.39L368.38,67.78L368.57,227.56L368.75,87.83L369.13,247.85L369.32,95.93L369.5,97.79L369.88,101.44L370.07,87.37L370.25,67.73L370.44,219.77L370.63,219.36L370.82,231.75L371.75,44.84L371.94,38.95L372.13,38.82L372.32,42.78L372.5,56.71L372.88,40.47L373.07,37.2L373.25,39.31L373.44,37.24L373.63,32.34L373.82,32.38L374,27.76L374.76,58.37L374.94,56.06L375.13,47.58L375.88,19.59L376.07,21.69L376.26,21.59L376.44,21.56L376.63,20.3L377.01,22.34L377.57,17.97L377.76,20.14L378.32,22.73L378.51,20.54L378.69,19.99L379.07,19.78L379.26,20.7L379.44,19.68L379.82,22.03L380.01,18.4L380.19,19.23L381.32,18.65L381.51,19.21L381.7,19.35L381.88,169.21L382.26,170.52L382.45,20.8L382.82,18.77L383.01,18.84L383.2,34.73L383.95,60.16L384.13,59.84L384.32,197.52L384.51,180.49L384.7,182.57L384.88,40.56L385.63,48.22L385.82,45.68L386.01,44.58L386.2,48.4L386.38,41.75L386.57,28.7L386.76,28.26L386.95,52.65L387.13,70.03L387.51,48.57L387.7,33.91L388.07,39.84L388.26,33.08L389.39,43.47L389.57,54.54L389.95,67.13L390.32,66.46L390.51,65.31L390.89,70.71L391.07,65.95L391.26,47.39L391.64,31.25L391.82,183.59L392.2,181.6L392.39,180.21L393.32,21.58L393.51,19.71L394.26,18.25L394.45,19.45L395.2,17.9L395.39,18.63L395.57,18.83L395.95,18.09L396.14,18.31L396.33,19.61L397.45,18.69L397.64,18.73L398.76,17.75L398.95,18.04L399.89,18.06L400.08,17.8L400.45,17.2L400.83,17.78L401.01,17.56L401.2,20.3L401.39,174.77L401.76,174.85L402.14,23.5L402.33,23.54L402.51,23.49L402.7,23.83L403.27,23.45L403.45,23.18L404.95,38.15L405.14,38.99L405.89,51.23L406.08,47.73L406.27,49.56L407.2,59.37L407.39,52.27L407.95,50.75L408.33,63.6L408.52,63.32L408.7,62.65L409.45,50.1L409.64,41.89L410.02,42.3L410.77,31.77L410.96,34.93L411.14,34.51L411.33,30.46L411.52,32.67L411.71,30.58L411.89,180.56L412.27,183.67L412.46,30.39L414.14,18.05L414.33,18.04L414.71,20.76L415.08,19.73L415.27,19.54L416.39,18.41L416.58,19.07L417.71,17.97L417.9,18.3L419.02,17.8L419.21,172.77L419.77,176.26L419.96,24.81L420.15,27L420.33,27.36L420.52,23.9L422.02,44.75L422.21,195.56L422.58,207.97L422.77,48.42L423.15,62.06L423.33,57.74L423.52,52.63L424.84,72.46L425.02,72.61L425.4,226.43L425.59,73.77L425.77,68.3L425.96,61.2L426.15,62.41L426.34,76.28L428.02,44.81L428.21,45.87L428.4,45.55L429.15,27.18L429.52,27.26L429.71,25.75L429.9,25.48L430.09,22.16L430.27,25.73L430.65,21.81L430.84,23.47L431.02,22.29L431.4,19.46L431.59,22.29L431.77,22.65L432.53,18.2L432.71,19.08L432.9,22L433.09,22.69L433.28,19.97L433.46,20.37L433.65,20.04L433.84,19.17L434.03,19.65L434.21,18.71L434.59,19.1L434.78,18.75L436.09,18.02L436.28,169.49L437.03,18.07L437.21,28.27L438.53,97.3L438.71,97.43L439.47,107.99L439.65,100.37L440.22,247.39L440.4,245.09L440.59,108.2L440.78,128.94L441.15,95.06L441.34,81.41L441.53,82.56L441.72,104.57L442.84,130.41L443.03,126.62L443.22,132.96L443.4,124.98L443.59,118.99L445.09,75.29L445.28,83.67L445.47,92.01L445.84,86.93L446.03,76.4L446.97,37.86L447.16,37.54L447.34,33.45L447.53,181.41L447.72,182.62L447.91,29.17L448.09,29.07L448.28,27.2L448.47,26.5L448.66,26.89L448.84,21.01L449.03,24L449.59,23.26L449.78,21.45L449.97,20.97L450.16,21.82L450.34,22.84L451.09,19.37L451.28,21.04L451.66,20.61L451.84,21.97L452.59,18.15L452.78,19.12L452.97,19.09L453.34,21.33L453.72,19.56L453.91,18.52L454.66,19.31L454.85,18.39L455.03,19.15L455.22,32L455.41,51.14L455.6,209.16L455.78,61.53L456.35,93.65L456.53,98.13L456.72,99.49L456.91,107.85L457.47,113.26L457.66,91.24L458.03,60.66L458.41,66.69L458.6,217.51L458.78,225.44L458.97,214.35L459.16,68.35L459.91,137.2L460.1,103.74L460.28,99.4L460.66,105.51L460.85,109.88L463.66,52.15L463.85,43.25L464.04,43.05L464.22,36.3L465.16,27.08L465.35,29.27L465.54,179.91L465.91,27.45L466.1,26.71L466.66,24.53L466.85,22.54L467.22,23.14L467.41,20.63L467.79,22.92L467.97,19.6L468.16,22.11L468.35,22L468.73,20.6L468.91,21.58L469.1,23.11L469.66,18.09L469.85,19.79L470.04,23.86L470.79,18.87L471.16,18.93L471.35,19.76L471.54,19.62L471.73,21.01L471.91,21.25L472.1,18.04L472.48,19.48L472.85,19.22L473.04,17.97L473.41,42.74L473.6,60.97L474.73,84.95L474.91,248.3L475.67,60.41L475.85,209.93L476.04,214.74L476.23,60.74L476.6,65L476.79,60.46L476.98,55.22L477.35,72.81L477.54,66.52L477.73,213.9L477.92,213.21L478.1,60.36L478.29,58.41L478.48,62.16L478.67,66.59L478.85,67.25L479.04,66.64L479.23,83.03L479.42,106.96L479.79,106.74L479.98,264.55L480.17,268.58L480.35,259.09L480.54,99.69L480.92,87.01L481.1,72.5L481.85,35.62L482.23,38.36L482.42,44.76L482.61,48.24L482.79,36.19L483.54,24.2L483.73,26.85L483.92,22.88L484.11,22.92L484.29,24.08L485.23,20.53L485.42,18.97L485.98,22.2L486.17,19.7L486.36,18.63L486.73,18.54L487.48,21.91L487.67,20.53L488.04,17.94L488.61,18.21L488.79,19.12L489.54,19.02L489.73,20.95L489.92,170.9L490.3,18.7L490.48,18.6L491.23,21.09L491.42,37.17L492.36,61.65L492.55,61.42L492.73,63.7L492.92,77.82L493.48,95.55L493.67,94.31L493.86,83.23L494.23,62.35L494.42,215.23L494.61,220.8L494.8,68.7L495.17,55.71L495.36,73.25L495.55,100.53L496.3,73.28L496.67,77.71L496.86,77.14L497.05,221.24L497.42,53.47L497.61,39.95L498.17,43.82L498.36,42.99L498.55,37.82L498.74,37.92L498.92,36.32L499.49,66.94L499.67,57.7L499.86,38.94L500.8,21.04L500.99,19.22L501.17,22.17L501.36,172.25L501.74,170.11L501.92,20.26L502.11,23.5L502.67,20.64L502.86,20.59L503.05,20.94L503.24,19.48L503.99,22.3L504.18,20.02L504.55,19.61L504.74,20.51L504.93,20.38L505.11,20.14L505.3,20.27L505.49,19.07L505.68,19.9L505.86,19.7L506.05,170.12L506.43,18.98L506.99,19.48L507.18,19.69L508.11,18.65L508.3,18.95L508.86,19.64L509.05,19.33L509.24,33.9L510.18,61.88L510.36,62.33L510.74,60.51L510.93,50.47L511.11,42.51L511.68,49.68L511.87,203.53L512.05,64.99L512.62,78.78L512.8,74.88L513.18,253.98L513.37,244.64L513.55,74.81L513.93,57.72L514.12,67.19L514.3,78.06L514.68,76.82L514.87,83.82L515.05,96.68L515.24,96.42L515.43,88.76L515.8,90.38L516.18,82.97L516.37,79.03L516.74,72.39L516.93,68.53L519.18,26.92L519.37,28.07L520.12,22.08L520.49,23.31L520.68,22.82L521.06,18.55L521.62,19.99L521.81,20.09L522.18,22.09L522.37,18.7L523.12,21.05L523.31,18.53L523.49,22.16L524.06,19.76L524.24,18.2L524.62,18.15L524.81,19.44L524.99,19.81L525.18,18.7L525.37,19.58L525.56,18.96L526.12,18.32L526.31,18.79L526.5,169.86L526.68,171.01L526.87,19.45L527.06,18.69L527.25,20.84L527.43,22.73L528.56,27.69L528.93,26.78L529.12,32.32L529.31,32.01L529.5,184.54L529.87,190.63L530.06,48.22L530.62,203.79L530.81,59.35L531,64.88L531.18,64.34L531.37,67.42L532.5,83.25L532.68,79.37L532.87,68.8L533.44,71.85L533.62,82.03L533.81,83.9L534,79.56L534.19,75.02L535.69,43L535.87,43.6L537.37,25.52L537.56,26L537.75,28.39L538.31,23.15L538.5,23.26L538.69,24.58L539.25,21.51L539.44,22.65L539.62,22.41L539.81,19.16L540,20.27" style="vector-effect: non-scaling-stroke; fill: none; stroke: rgb(0, 191, 255); stroke-opacity: 1; stroke-width: 2px; opacity: 1;"/></g><g class="points"/><g class="text"/></g></g></g><g class="overplot"/><path class="xlines-above crisp" d="M0,0" style="fill: none;"/><path class="ylines-above crisp" d="M0,0" style="fill: none;"/><g class="overlines-above"/><g class="xaxislayer-above"><g class="xtick"><text text-anchor="middle" x="0" y="433" transform="translate(116.00999999999999,0)" style="font-family: 'Open Sans', verdana, arial, sans-serif; font-size: 12px; fill: rgb(42, 63, 95); fill-opacity: 1; white-space: pre; opacity: 1;"><tspan class="line" dy="0em" x="0" y="433">Apr 3</tspan><tspan class="line" dy="1.3em" x="0" y="433">2022</tspan></text></g><g class="xtick"><text text-anchor="middle" x="0" y="433" style="font-family: 'Open Sans', verdana, arial, sans-serif; font-size: 12px; fill: rgb(42, 63, 95); fill-opacity: 1; white-space: pre; opacity: 1;" transform="translate(242.06,0)">Apr 10</text></g><g class="xtick"><text text-anchor="middle" x="0" y="433" style="font-family: 'Open Sans', verdana, arial, sans-serif; font-size: 12px; fill: rgb(42, 63, 95); fill-opacity: 1; white-space: pre; opacity: 1;" transform="translate(368.1,0)">Apr 17</text></g><g class="xtick"><text text-anchor="middle" x="0" y="433" style="font-family: 'Open Sans', verdana, arial, sans-serif; font-size: 12px; fill: rgb(42, 63, 95); fill-opacity: 1; white-space: pre; opacity: 1;" transform="translate(494.14,0)">Apr 24</text></g></g><g class="yaxislayer-above"><g class="ytick"><text text-anchor="end" x="79" y="4.199999999999999" transform="translate(0,380.13)" style="font-family: 'Open Sans', verdana, arial, sans-serif; font-size: 12px; fill: rgb(42, 63, 95); fill-opacity: 1; white-space: pre; opacity: 1;">−100k</text></g><g class="ytick"><text text-anchor="end" x="79" y="4.199999999999999" style="font-family: 'Open Sans', verdana, arial, sans-serif; font-size: 12px; fill: rgb(42, 63, 95); fill-opacity: 1; white-space: pre; opacity: 1;" transform="translate(0,319.3)">−80k</text></g><g class="ytick"><text text-anchor="end" x="79" y="4.199999999999999" style="font-family: 'Open Sans', verdana, arial, sans-serif; font-size: 12px; fill: rgb(42, 63, 95); fill-opacity: 1; white-space: pre; opacity: 1;" transform="translate(0,258.47)">−60k</text></g><g class="ytick"><text text-anchor="end" x="79" y="4.199999999999999" style="font-family: 'Open Sans', verdana, arial, sans-serif; font-size: 12px; fill: rgb(42, 63, 95); fill-opacity: 1; white-space: pre; opacity: 1;" transform="translate(0,197.65)">−40k</text></g><g class="ytick"><text text-anchor="end" x="79" y="4.199999999999999" style="font-family: 'Open Sans', verdana, arial, sans-serif; font-size: 12px; fill: rgb(42, 63, 95); fill-opacity: 1; white-space: pre; opacity: 1;" transform="translate(0,136.82)">−20k</text></g></g><g class="overaxes-above"/></g></g><g class="polarlayer"/><g class="smithlayer"/><g class="ternarylayer"/><g class="geolayer"/><g class="funnelarealayer"/><g class="pielayer"/><g class="iciclelayer"/><g class="treemaplayer"/><g class="sunburstlayer"/><g class="glimages"/><defs id="topdefs-5dc049"><g class="clips"/></defs><g class="layer-above"><g class="imagelayer"/><g class="shapelayer"/></g><g class="infolayer"><g class="g-gtitle"><text class="gtitle" x="350" y="50" text-anchor="middle" dy="0em" style="font-family: 'Open Sans', verdana, arial, sans-serif; font-size: 17px; fill: rgb(42, 63, 95); opacity: 1; font-weight: normal; white-space: pre;"><tspan class="line" dy="0em" x="350" y="50">Scenario 3</tspan><tspan class="line" dy="1.3em" x="350" y="50">Microgrid Output</tspan><tspan class="line" dy="2.6em" x="350" y="50">From: April 01, 2022 to April 30, 2022</tspan></text></g><g class="g-xtitle"><text class="xtitle" x="350" y="476.409375" text-anchor="middle" style="font-family: 'Open Sans', verdana, arial, sans-serif; font-size: 14px; fill: rgb(42, 63, 95); opacity: 1; font-weight: normal; white-space: pre;">Time</text></g><g class="g-ytitle"><text class="ytitle" transform="rotate(-90,21.168750000000003,260)" x="21.168750000000003" y="260" text-anchor="middle" style="font-family: 'Open Sans', verdana, arial, sans-serif; font-size: 14px; fill: rgb(42, 63, 95); opacity: 1; font-weight: normal; white-space: pre;">Demand (kW)</text></g></g></svg>