<svg class="main-svg" xmlns="http://www.w3.org/2000/svg" xmlns:xlink="http://www.w3.org/1999/xlink" width="700" height="500" style="" viewBox="0 0 700 500"><rect x="0" y="0" width="700" height="500" style="fill: rgb(255, 255, 255); fill-opacity: 1;"/><defs id="defs-118d63"><g class="clips"><clipPath id="clip118d63xyplot" class="plotclip"><rect width="540" height="320"/></clipPath><clipPath class="axesclip" id="clip118d63x"><rect x="80" y="0" width="540" height="500"/></clipPath><clipPath class="axesclip" id="clip118d63y"><rect x="0" y="100" width="700" height="320"/></clipPath><clipPath class="axesclip" id="clip118d63xy"><rect x="80" y="100" width="540" height="320"/></clipPath></g><g class="gradients"/><g class="patterns"/></defs><g class="bglayer"/><g class="layer-below"><g class="imagelayer"/><g class="shapelayer"/></g><g class="cartesianlayer"><g class="subplot xy"><g class="layer-subplot"><g class="shapelayer"/><g class="imagelayer"/></g><g class="minor-gridlayer"><g class="x"/><g class="y"/></g><g class="gridlayer"><g class="x"><path class="xgrid crisp" transform="translate(116.00999999999999,0)" d="M0,100v320" style="stroke: rgb(255, 255, 255); stroke-opacity: 1; stroke-width: 1px;"/><path class="xgrid crisp" transform="translate(242.06,0)" d="M0,100v320" style="stroke: rgb(255, 255, 255); stroke-opacity: 1; stroke-width: 1px;"/><path class="xgrid crisp" transform="translate(368.1,0)" d="M0,100v320" style="stroke: rgb(255, 255, 255); stroke-opacity: 1; stroke-width: 1px;"/><path class="xgrid crisp" transform="translate(494.14,0)" d="M0,100v320" style="stroke: rgb(255, 255, 255); stroke-opacity: 1; stroke-width: 1px;"/></g><g class="y"><path class="ygrid crisp" transform="translate(0,407.5)" d="M80,0h540" style="stroke: rgb(255, 255, 255); stroke-opacity: 1; stroke-width: 1px;"/><path class="ygrid crisp" transform="translate(0,364.18)" d="M80,0h540" style="stroke: rgb(255, 255, 255); stroke-opacity: 1; stroke-width: 1px;"/><path class="ygrid crisp" transform="translate(0,320.87)" d="M80,0h540" style="stroke: rgb(255, 255, 255); stroke-opacity: 1; stroke-width: 1px;"/><path class="ygrid crisp" transform="translate(0,234.24)" d="M80,0h540" style="stroke: rgb(255, 255, 255); stroke-opacity: 1; stroke-width: 1px;"/><path class="ygrid crisp" transform="translate(0,190.92000000000002)" d="M80,0h540" style="stroke: rgb(255, 255, 255); stroke-opacity: 1; stroke-width: 1px;"/><path class="ygrid crisp" transform="translate(0,147.61)" d="M80,0h540" style="stroke: rgb(255, 255, 255); stroke-opacity: 1; stroke-width: 1px;"/><path class="ygrid crisp" transform="translate(0,104.29)" d="M80,0h540" style="stroke: rgb(255, 255, 255); stroke-opacity: 1; stroke-width: 1px;"/></g></g><g class="zerolinelayer"><path class="yzl zl crisp" transform="translate(0,277.55)" d="M80,0h540" style="stroke: rgb(255, 255, 255); stroke-opacity: 1; stroke-width: 2px;"/></g><path class="xlines-below"/><path class="ylines-below"/><g class="overlines-below"/><g class="xaxislayer-below"/><g class="yaxislayer-below"/><g class="overaxes-below"/><g class="plot" transform="translate(80,100)" clip-path="url(#clip118d63xyplot)"><g class="scatterlayer mlayer"><g class="trace scatter trace3d9205" style="stroke-miterlimit: 2; opacity: 0.5;"><g class="fills"/><g class="errorbars"/><g class="lines"><path class="js-line" d="M0,177.54L6,177.47L6.19,177.43L8.07,177.63L8.25,177.41L9.38,177.55L9.57,177.54L11.44,177.49L11.63,102.5L11.82,56L12.38,93.5L12.57,110.47L13.88,177.65L14.07,177.57L14.25,177.53L17.26,177.57L17.44,177.51L21.19,177.55L21.38,177.56L29.82,177.53L30.01,139.52L30.2,75.68L30.76,115.97L30.95,133.66L31.7,177.65L32.07,177.56L32.26,177.55L35.82,177.57L36.01,177.54L40.89,177.56L41.08,177.56L44.45,177.49L44.64,177.69L47.27,177.59L47.45,177.61L50.64,177.54L50.83,177.55L54.39,177.55L54.58,177.55L58.71,177.55L58.9,192.68L59.27,220.59L59.83,214.66L60.02,212.47L60.21,210.77L60.4,192.12L61.33,177.32L61.52,177.43L62.83,177.52L63.02,177.56L64.71,177.48L64.9,177.62L66.21,177.55L66.4,75.18L66.77,101.66L66.96,125.5L67.34,177.67L67.9,177.56L68.09,177.6L70.52,177.57L70.71,177.53L74.28,177.56L74.46,177.54L81.22,177.75L81.4,177.43L82.15,177.43L82.34,99.68L83.28,40.09L83.47,44.19L84.78,111.6L84.97,131.23L85.9,177.71L86.09,177.5L86.28,177.62L87.59,177.5L87.78,177.62L89.09,177.54L89.28,177.54L92.09,177.54L92.28,177.55L100.72,177.54L100.91,96.24L101.85,54.59L102.04,57.03L102.97,137.09L103.16,162.47L104.1,177.65L104.29,177.52L107.1,177.56L107.29,177.53L119.48,177.72L119.67,178.47L120.6,177.52L120.79,177.54L125.67,177.57L125.86,177.51L127.54,177.52L127.73,182.06L128.48,210.48L128.67,208.12L129.42,209.62L129.8,209.11L129.98,209.1L130.36,210.19L130.55,208.15L130.92,210.72L131.11,218.21L132.61,249.01L132.8,249.31L133.17,261.85L133.36,256.75L133.55,249L133.73,247.17L133.92,256.86L135.23,288.96L135.42,283.47L135.61,274.13L136.36,296.16L136.55,295.81L136.73,288.01L137.49,304L137.67,303.87L137.86,286.92L138.8,266.09L138.99,264.38L139.36,256.03L139.55,250.69L141.24,231.37L141.42,228.12L142.74,213.56L142.92,213.49L143.3,216.44L143.67,213.84L143.86,211.84L144.24,213.95L144.43,211.2L144.61,212.4L144.8,211.93L144.99,209.28L145.18,211.63L145.74,211.16L145.93,210.49L146.11,210.37L146.3,208.77L147.05,210.72L147.24,207.88L147.43,207.41L147.61,207.55L147.8,209.4L148.18,208.33L148.55,210.24L148.74,208.55L149.11,209.74L149.3,212.01L149.49,212L149.68,213.54L149.86,214.42L150.05,213.33L150.24,221.42L151.55,241.46L151.74,238.94L151.93,231.3L153.24,264.06L153.43,261.04L153.62,260.42L153.8,263.39L154.74,272.68L154.93,266.35L155.12,253.91L155.68,264.22L155.87,254.39L156.99,236.92L157.18,237.62L159.06,217.33L159.24,217.59L159.43,216.44L159.81,217.02L160.56,212.51L160.74,214.05L161.87,210.84L162.06,212.81L162.43,210.06L162.99,210.26L163.18,210.41L163.37,211.81L163.56,211.78L163.74,208.59L164.12,211.5L164.49,209.95L164.68,208.53L165.06,211.29L165.43,209.17L165.62,208.49L166.37,209.91L166.56,208.5L167.87,213.28L168.06,211.81L168.25,211.78L168.43,217.01L169.37,230.83L169.56,230.65L169.93,227.64L170.12,232.57L170.31,231.78L170.87,224.77L171.06,226.78L171.25,228.27L172.37,243.93L172.56,240.41L172.94,231.43L173.12,234.23L173.31,245.99L174.62,225.14L174.81,225.5L176.12,215.34L176.31,215L176.87,213.29L177.06,210.74L177.44,213.57L177.62,210.35L177.81,210.93L178,211.07L178.19,211.94L178.37,210.53L178.56,208.85L178.75,211.51L179.31,209.29L179.5,209.29L179.87,209.02L180.06,210.33L180.25,208.93L180.63,211.09L180.81,209.03L181,209.54L181.19,208.47L181.56,210.45L181.75,209.99L182.13,208.15L182.69,208.48L182.88,210.45L184,207.28L184.19,207.34L184.38,207.68L185.69,226.8L185.88,233.48L186.44,240.96L186.81,240.74L187,241.24L187.57,235.65L187.75,238.31L187.94,243.5L188.13,244.99L188.32,242.66L188.5,236.48L189.07,223.19L189.44,227.98L189.63,229.95L189.82,229.83L190,234.63L191.13,247.01L191.32,244.8L191.5,239.8L191.88,239.15L192.07,235.52L192.44,234.69L192.63,227.81L193.57,215.65L193.75,214.07L194.51,211.9L194.69,213.43L195.44,209.01L195.82,209.83L196.01,211.05L196.38,208.68L196.76,208.79L196.94,209.7L197.13,209.51L197.32,210.19L197.51,210.6L197.88,207.87L198.26,209.58L198.44,210.25L198.63,208.84L199.19,209.31L199.38,209.26L199.57,208.17L200.13,208.37L200.32,208.3L200.88,208.01L201.07,208.29L201.26,208.41L201.44,207.95L202.01,208.5L202.2,208.27L202.38,207.75L202.76,208.19L202.95,208.52L204.82,238.46L205.01,239.27L206.51,224.47L206.7,225.41L206.88,231.85L207.26,249.56L207.82,241.75L208.01,240.1L208.2,235.55L208.38,239.93L208.57,247.51L208.76,246.52L208.95,239.74L210.07,219.46L210.26,222.76L210.45,224.14L210.64,222.61L210.82,220.3L211.95,211.15L212.14,213.46L213.26,209.09L213.45,209.01L213.64,209.09L213.82,207.98L214.39,210.09L214.57,209.27L214.76,207.87L215.51,208.96L215.7,208.26L215.89,208.53L216.08,208.18L216.26,207.41L216.83,208.56L217.2,208.27L217.39,207.88L220.76,206.5L220.95,206.08L221.7,212.08L221.89,222.27L222.83,237.04L223.01,239.5L224.14,230.77L224.33,230.62L224.52,231.61L224.7,228.5L225.27,222.01L225.45,226.54L225.64,228.9L226.02,231.75L226.2,236.89L226.58,236.28L226.95,243.38L227.14,238.09L228.08,228.79L228.27,220.37L228.45,219.47L228.64,224.02L230.89,209.79L231.08,209.88L231.27,210.03L231.46,210.53L231.64,208.59L232.39,210.6L232.58,208.13L232.77,209.02L233.33,208.82L233.52,207.84L234.27,208.55L234.46,207.92L235.21,209.02L235.39,208.39L238.96,207.09L239.15,215.3L240.08,233.51L240.27,229.64L240.46,226.68L240.65,229.67L240.83,238.04L241.58,246L241.77,243.51L242.15,232.6L242.52,236.03L242.71,237.98L242.9,238.14L243.08,239.45L243.46,241.56L243.65,245.03L243.83,245.96L244.02,253.07L244.21,260L244.77,256.62L244.96,259.9L245.15,258.74L245.34,249.73L247.21,221.93L247.4,222.2L248.15,214.28L248.34,214.5L248.52,212.98L249.46,209.71L249.65,210.28L249.84,211.36L250.21,209.46L250.4,208.68L251.15,211.8L251.34,210.76L251.52,209.26L252.84,207.7L253.03,208.04L253.21,208.55L253.4,209.58L253.78,208.42L253.96,208.43L254.15,207.77L254.71,208.03L254.9,207.9L256.59,208.38L256.78,208.66L256.96,208.36L257.15,214.12L258.09,228.39L258.28,228.15L258.46,229.41L258.65,236.75L258.84,243.58L259.22,236.61L259.4,228.46L259.59,224.96L259.97,231.03L260.15,233.38L260.34,231.32L260.53,233.7L260.72,233.4L260.9,236.02L261.65,251.9L261.84,245.23L262.03,244.53L262.22,247.49L262.97,265.27L263.34,264.54L263.53,266.19L263.9,268.19L264.09,260.43L266.15,218.47L266.34,217.51L267.09,213.74L267.28,215.25L267.47,215.08L268.03,210.2L268.22,211.94L268.41,213.57L269.53,208.99L269.72,209.53L269.91,208.6L270.09,209.31L270.28,210.71L271.59,208.06L271.78,208.26L271.97,209.93L272.72,208.54L272.91,208.68L273.09,208.68L274.22,208.06L274.41,208.25L274.6,208.3L274.97,208.16L275.16,210.04L276.66,218.43L276.85,217.79L277.41,217.35L277.6,216.69L278.35,212.29L278.53,213.12L278.72,215.1L279.1,214.23L279.47,218.77L279.66,217.39L279.85,216.53L280.41,226.8L280.6,226.31L280.78,222.34L280.97,217.13L281.16,224.86L281.35,229.1L282.85,220.01L283.04,221.34L283.41,218.78L283.6,216.82L284.72,211.18L284.91,212.22L285.1,211.94L285.29,207.86L285.66,210.68L286.22,209.8L286.41,210.15L286.79,211.19L286.97,208.93L287.54,208.38L287.72,210.65L287.91,210.18L288.1,209.16L288.66,209.27L288.85,208.51L289.6,210.18L289.79,208.01L290.16,207.5L290.35,208.67L290.54,209.29L290.73,208.17L290.91,208.4L291.1,208.28L291.48,208.49L291.66,207.74L292.41,210.32L292.6,208.56L292.79,208.76L292.98,208.61L293.16,210.72L294.1,213.08L294.29,214.68L294.66,211.84L294.85,212.08L295.04,214.69L295.42,214.33L295.98,222.24L296.17,221.61L296.35,229.39L296.73,229.14L297.48,241.48L297.67,237.73L297.85,236.36L298.04,238.99L298.23,248.65L298.42,251.54L298.6,247.85L298.79,239.63L298.98,240.47L299.17,248.34L299.35,245.7L299.54,247.74L299.73,256.14L300.85,236.73L301.04,237.57L303.29,216.15L303.48,218.05L303.86,212.13L304.23,214.92L304.42,213.43L305.54,209.88L305.73,211.42L305.92,212.22L306.11,211.8L306.29,209.5L306.67,209.95L306.86,209L307.04,210.15L307.61,209.53L307.79,208.39L307.98,209.25L308.36,208.18L308.54,208.19L308.92,209.79L309.48,209L309.67,208.5L310.8,208.62L310.98,208.35L313.23,251.58L313.42,231.74L314.36,177.44L314.55,177.59L315.67,177.49L315.86,177.64L317.55,177.51L317.74,177.62L318.67,177.45L318.86,177.69L321.67,177.56L321.86,177.51L324.86,177.55L325.05,177.53L329.36,177.54L329.55,177.45L331.05,177.42L331.24,177.49L334.8,177.45L334.99,62.05L336.12,46.58L336.3,55.83L337.8,177.47L337.99,177.63L348.87,177.42L349.06,177.79L350.37,177.09L350.56,177.66L351.31,177.52L351.5,177.44L351.68,178.08L351.87,177L352.25,177.61L352.43,177.65L353.56,177.52L353.75,83.75L353.94,33.5L354.5,57.78L354.69,79.73L356,177.59L356.19,177.64L358.81,177.55L359,177.55L369.5,177.61L369.69,53.02L370.63,31.46L370.82,40.29L371,43.97L371.19,34.65L371.38,28.57L371.94,16L372.13,18.16L372.32,29.33L374.19,177.67L374.38,177.6L374.57,177.58L379.44,177.54L379.63,177.58L382.07,177.55L382.26,177.56L384.88,177.57L385.07,177.93L385.26,177.22L385.82,177.55L386.01,177.74L386.76,177.44L386.95,177.77L387.7,177.34L387.88,177.61L388.26,177.91L388.45,177.09L388.63,177.5L388.82,72.54L389.01,67.17L389.2,123.38L390.51,175.87L390.7,177.53L391.07,165.94L391.26,173.63L391.45,177.61L394.64,177.54L394.82,177.56L402.89,177.46L403.08,177.48L404.77,177.55L404.95,176.7L405.14,16.04L405.7,21.88L405.89,24.8L406.08,22.35L406.45,26.61L406.64,25.33L406.83,24.93L407.02,28.65L407.2,30.7L407.39,25.72L407.58,28.6L407.77,28.42L407.95,24.74L408.14,28.87L408.33,38.9L410.02,177.7L410.58,177.54L410.77,177.54L413.21,177.58L413.39,177.49L415.64,177.54L415.83,177.55L423.15,177.56L423.33,52.39L423.52,25.73L424.08,34.47L424.27,32.08L425.4,41.35L425.59,40.24L425.96,31.94L426.15,33.56L426.34,50.59L428.02,177.66L428.59,177.51L428.77,177.54L433.46,177.57L433.65,177.54L440.22,177.6L440.4,177.48L441.34,177.54L441.53,177.58L441.72,177.63L441.9,137.76L442.09,57.82L442.65,67.88L442.84,69.44L443.22,71.44L444.15,51.97L444.34,59.84L445.84,177.65L446.22,177.62L446.41,177.61L448.28,177.51L448.47,177.59L450.53,177.54L450.72,177.57L455.78,177.53L455.97,177.55L457.66,177.49L457.85,177.8L458.41,177.36L458.6,177.68L458.78,177.72L461.22,177.51L461.41,110.89L461.97,47.45L462.16,58.37L462.35,66.8L462.54,54.72L462.72,65.22L462.91,86.39L464.04,177.72L464.41,177.6L464.6,177.54L471.73,177.58L471.91,177.53L477.54,177.52L477.73,32.29L478.29,29.93L478.48,32.58L479.23,40.51L479.42,53.33L479.6,51.58L479.79,53.18L479.98,55.37L480.35,62.08L480.54,73.28L482.04,177.67L482.42,177.63L482.61,177.53L499.11,177.78L499.3,162.46L499.49,148.43L499.86,172.77L500.05,177.63L513.37,177.51L513.55,101.36L513.93,29.29L514.3,38.19L514.49,40.21L514.68,37.23L514.87,40.92L515.05,48.03L515.24,47.74L515.43,44.31L515.8,48.88L515.99,45.47L516.18,45.32L516.74,77.58L516.93,94.13L518.05,177.65L518.43,177.63L518.62,177.53L522.18,177.54L522.37,177.55L528,177.58L528.18,177.4L531,177.57L531.18,130.59L531.37,36.26L531.93,41.18L532.12,40.51L532.5,47.73L532.68,45L532.87,37.42L533.81,50.13L534,49.9L534.37,45.27L534.56,57.41L536.25,177.64L536.62,177.59L536.81,177.52L540,177.56" style="vector-effect: non-scaling-stroke; fill: none; stroke: rgb(0, 191, 255); stroke-opacity: 1; stroke-width: 2px; opacity: 1;"/></g><g class="points"/><g class="text"/></g></g></g><g class="overplot"/><path class="xlines-above crisp" d="M0,0" style="fill: none;"/><path class="ylines-above crisp" d="M0,0" style="fill: none;"/><g class="overlines-above"/><g class="xaxislayer-above"><g class="xtick"><text text-anchor="middle" x="0" y="433" transform="translate(116.00999999999999,0)" style="font-family: 'Open Sans', verdana, arial, sans-serif; font-size: 12px; fill: rgb(42, 63, 95); fill-opacity: 1; white-space: pre; opacity: 1;"><tspan class="line" dy="0em" x="0" y="433">Apr 3</tspan><tspan class="line" dy="1.3em" x="0" y="433">2022</tspan></text></g><g class="xtick"><text text-anchor="middle" x="0" y="433" style="font-family: 'Open Sans', verdana, arial, sans-serif; font-size: 12px; fill: rgb(42, 63, 95); fill-opacity: 1; white-space: pre; opacity: 1;" transform="translate(242.06,0)">Apr 10</text></g><g class="xtick"><text text-anchor="middle" x="0" y="433" style="font-family: 'Open Sans', verdana, arial, sans-serif; font-size: 12px; fill: rgb(42, 63, 95); fill-opacity: 1; white-space: pre; opacity: 1;" transform="translate(368.1,0)">Apr 17</text></g><g class="xtick"><text text-anchor="middle" x="0" y="433" style="font-family: 'Open Sans', verdana, arial, sans-serif; font-size: 12px; fill: rgb(42, 63, 95); fill-opacity: 1; white-space: pre; opacity: 1;" transform="translate(494.14,0)">Apr 24</text></g></g><g class="yaxislayer-above"><g class="ytick"><text text-anchor="end" x="79" y="4.199999999999999" transform="translate(0,407.5)" style="font-family: 'Open Sans', verdana, arial, sans-serif; font-size: 12px; fill: rgb(42, 63, 95); fill-opacity: 1; white-space: pre; opacity: 1;">−60k</text></g><g class="ytick"><text text-anchor="end" x="79" y="4.199999999999999" style="font-family: 'Open Sans', verdana, arial, sans-serif; font-size: 12px; fill: rgb(42, 63, 95); fill-opacity: 1; white-space: pre; opacity: 1;" transform="translate(0,364.18)">−40k</text></g><g class="ytick"><text text-anchor="end" x="79" y="4.199999999999999" style="font-family: 'Open Sans', verdana, arial, sans-serif; font-size: 12px; fill: rgb(42, 63, 95); fill-opacity: 1; white-space: pre; opacity: 1;" transform="translate(0,320.87)">−20k</text></g><g class="ytick"><text text-anchor="end" x="79" y="4.199999999999999" style="font-family: 'Open Sans', verdana, arial, sans-serif; font-size: 12px; fill: rgb(42, 63, 95); fill-opacity: 1; white-space: pre; opacity: 1;" transform="translate(0,277.55)">0</text></g><g class="ytick"><text text-anchor="end" x="79" y="4.199999999999999" style="font-family: 'Open Sans', verdana, arial, sans-serif; font-size: 12px; fill: rgb(42, 63, 95); fill-opacity: 1; white-space: pre; opacity: 1;" transform="translate(0,234.24)">20k</text></g><g class="ytick"><text text-anchor="end" x="79" y="4.199999999999999" style="font-family: 'Open Sans', verdana, arial, sans-serif; font-size: 12px; fill: rgb(42, 63, 95); fill-opacity: 1; white-space: pre; opacity: 1;" transform="translate(0,190.92000000000002)">40k</text></g><g class="ytick"><text text-anchor="end" x="79" y="4.199999999999999" style="font-family: 'Open Sans', verdana, arial, sans-serif; font-size: 12px; fill: rgb(42, 63, 95); fill-opacity: 1; white-space: pre; opacity: 1;" transform="translate(0,147.61)">60k</text></g><g class="ytick"><text text-anchor="end" x="79" y="4.199999999999999" style="font-family: 'Open Sans', verdana, arial, sans-serif; font-size: 12px; fill: rgb(42, 63, 95); fill-opacity: 1; white-space: pre; opacity: 1;" transform="translate(0,104.29)">80k</text></g></g><g class="overaxes-above"/></g></g><g class="polarlayer"/><g class="smithlayer"/><g class="ternarylayer"/><g class="geolayer"/><g class="funnelarealayer"/><g class="pielayer"/><g class="iciclelayer"/><g class="treemaplayer"/><g class="sunburstlayer"/><g class="glimages"/><defs id="topdefs-118d63"><g class="clips"/></defs><g class="layer-above"><g class="imagelayer"/><g class="shapelayer"/></g><g class="infolayer"><g class="g-gtitle"><text class="gtitle" x="350" y="50" text-anchor="middle" dy="0em" style="font-family: 'Open Sans', verdana, arial, sans-serif; font-size: 17px; fill: rgb(42, 63, 95); opacity: 1; font-weight: normal; white-space: pre;"><tspan class="line" dy="0em" x="350" y="50">Scenario 4</tspan><tspan class="line" dy="1.3em" x="350" y="50">Microgrid Output</tspan><tspan class="line" dy="2.6em" x="350" y="50">From: April 01, 2022 to April 30, 2022</tspan></text></g><g class="g-xtitle"><text class="xtitle" x="350" y="476.409375" text-anchor="middle" style="font-family: 'Open Sans', verdana, arial, sans-serif; font-size: 14px; fill: rgb(42, 63, 95); opacity: 1; font-weight: normal; white-space: pre;">Time</text></g><g class="g-ytitle"><text class="ytitle" transform="rotate(-90,27.840625000000003,260)" x="27.840625000000003" y="260" text-anchor="middle" style="font-family: 'Open Sans', verdana, arial, sans-serif; font-size: 14px; fill: rgb(42, 63, 95); opacity: 1; font-weight: normal; white-space: pre;">Demand (kW)</text></g></g></svg>