<svg class="main-svg" xmlns="http://www.w3.org/2000/svg" xmlns:xlink="http://www.w3.org/1999/xlink" width="700" height="500" style="" viewBox="0 0 700 500"><rect x="0" y="0" width="700" height="500" style="fill: rgb(255, 255, 255); fill-opacity: 1;"/><defs id="defs-4a6be7"><g class="clips"><clipPath id="clip4a6be7xyplot" class="plotclip"><rect width="540" height="320"/></clipPath><clipPath class="axesclip" id="clip4a6be7x"><rect x="80" y="0" width="540" height="500"/></clipPath><clipPath class="axesclip" id="clip4a6be7y"><rect x="0" y="100" width="700" height="320"/></clipPath><clipPath class="axesclip" id="clip4a6be7xy"><rect x="80" y="100" width="540" height="320"/></clipPath></g><g class="gradients"/><g class="patterns"/></defs><g class="bglayer"/><g class="layer-below"><g class="imagelayer"/><g class="shapelayer"/></g><g class="cartesianlayer"><g class="subplot xy"><g class="layer-subplot"><g class="shapelayer"/><g class="imagelayer"/></g><g class="minor-gridlayer"><g class="x"/><g class="y"/></g><g class="gridlayer"><g class="x"><path class="xgrid crisp" transform="translate(116.00999999999999,0)" d="M0,100v320" style="stroke: rgb(255, 255, 255); stroke-opacity: 1; stroke-width: 1px;"/><path class="xgrid crisp" transform="translate(242.06,0)" d="M0,100v320" style="stroke: rgb(255, 255, 255); stroke-opacity: 1; stroke-width: 1px;"/><path class="xgrid crisp" transform="translate(368.1,0)" d="M0,100v320" style="stroke: rgb(255, 255, 255); stroke-opacity: 1; stroke-width: 1px;"/><path class="xgrid crisp" transform="translate(494.14,0)" d="M0,100v320" style="stroke: rgb(255, 255, 255); stroke-opacity: 1; stroke-width: 1px;"/></g><g class="y"><path class="ygrid crisp" transform="translate(0,399.17)" d="M80,0h540" style="stroke: rgb(255, 255, 255); stroke-opacity: 1; stroke-width: 1px;"/><path class="ygrid crisp" transform="translate(0,357.1)" d="M80,0h540" style="stroke: rgb(255, 255, 255); stroke-opacity: 1; stroke-width: 1px;"/><path class="ygrid crisp" transform="translate(0,315.02)" d="M80,0h540" style="stroke: rgb(255, 255, 255); stroke-opacity: 1; stroke-width: 1px;"/><path class="ygrid crisp" transform="translate(0,230.88)" d="M80,0h540" style="stroke: rgb(255, 255, 255); stroke-opacity: 1; stroke-width: 1px;"/><path class="ygrid crisp" transform="translate(0,188.81)" d="M80,0h540" style="stroke: rgb(255, 255, 255); stroke-opacity: 1; stroke-width: 1px;"/><path class="ygrid crisp" transform="translate(0,146.74)" d="M80,0h540" style="stroke: rgb(255, 255, 255); stroke-opacity: 1; stroke-width: 1px;"/><path class="ygrid crisp" transform="translate(0,104.66)" d="M80,0h540" style="stroke: rgb(255, 255, 255); stroke-opacity: 1; stroke-width: 1px;"/></g></g><g class="zerolinelayer"><path class="yzl zl crisp" transform="translate(0,272.95)" d="M80,0h540" style="stroke: rgb(255, 255, 255); stroke-opacity: 1; stroke-width: 2px;"/></g><path class="xlines-below"/><path class="ylines-below"/><g class="overlines-below"/><g class="xaxislayer-below"/><g class="yaxislayer-below"/><g class="overaxes-below"/><g class="plot" transform="translate(80,100)" clip-path="url(#clip4a6be7xyplot)"><g class="scatterlayer mlayer"><g class="trace scatter trace55136c" style="stroke-miterlimit: 2; opacity: 0.5;"><g class="fills"/><g class="errorbars"/><g class="lines"><path class="js-line" d="M0,172.94L4.88,172.94L5.06,182.31L5.25,214.15L5.81,203.22L6,190.38L6.94,172.67L7.13,173.17L8.25,172.78L8.44,172.95L13.13,173L13.32,164.58L13.88,173.04L14.07,172.97L14.25,172.93L17.26,172.97L17.44,172.91L21.19,172.95L21.38,172.96L30.2,173.02L30.39,116.61L30.57,103.85L30.76,123.27L30.95,140.45L31.7,173.01L32.07,172.96L32.26,172.95L35.82,172.96L36.01,172.94L40.89,172.96L41.08,172.96L44.45,172.89L44.64,173.09L47.08,172.9L47.27,172.98L51.58,172.96L51.77,172.94L55.33,172.95L55.52,172.96L58.33,172.96L58.52,184.66L59.46,225.67L59.65,223.1L59.83,220.19L60.21,216.45L60.4,198.14L61.33,172.73L61.52,172.83L61.71,172.73L63.02,172.93L63.21,172.87L64.9,173.01L65.09,172.93L66.59,173.01L66.77,103.48L67.34,173.07L67.9,172.96L68.09,172.99L70.9,172.97L71.09,172.94L81.97,172.91L82.15,172.78L82.72,173.2L82.9,172.81L83.09,67.49L83.28,42.56L83.84,49.06L84.03,58.31L84.97,127.92L85.15,145.4L85.9,173.1L86.09,172.9L86.28,173.02L87.59,172.9L87.78,173.02L89.09,172.94L89.28,172.94L92.09,172.94L92.28,172.95L101.1,172.89L101.29,90.83L101.85,53.48L102.22,65.7L102.41,83.29L103.72,173.05L103.91,173.04L104.1,173.05L105.6,172.87L105.79,172.94L117.04,172.87L117.23,173.1L118.54,172.94L118.73,173.01L119.48,173.1L119.67,173.84L120.6,172.92L120.79,172.94L124.92,172.95L125.11,210.66L125.67,212.28L125.86,210.24L126.23,210.6L126.79,207.21L126.98,209.01L127.73,203.58L128.29,204.68L128.48,204.9L129.04,202.62L129.23,203.26L129.42,204.06L129.61,202.91L130.17,204.06L130.36,204.62L130.55,202.63L130.73,203.33L130.92,206.98L132.05,233.61L132.23,236.98L133.17,263.59L133.36,254.16L133.73,241.29L133.92,250.38L134.11,256.02L134.67,255.45L135.23,289.41L135.42,281.2L135.61,268.7L136.36,295.67L136.55,295.55L136.73,288.31L137.49,304L137.67,303.55L137.86,282.34L138.8,258.92L138.99,257.25L139.36,249.14L139.55,243.95L141.24,225.19L141.42,222.04L142.74,207.89L142.92,207.82L143.3,210.68L143.67,208.17L143.86,206.22L144.24,208.27L144.43,205.59L144.61,206.76L144.8,206.3L144.99,203.74L145.18,206.02L145.74,205.56L145.93,204.91L146.11,204.79L146.3,203.24L147.05,205.13L147.24,202.37L147.43,201.92L147.61,202.06L147.8,203.85L148.18,202.81L148.55,204.66L148.74,203.03L149.11,204.19L149.3,206.39L149.49,206.38L149.68,207.88L149.86,208.73L150.05,207.66L150.24,215.52L151.55,234.99L151.74,232.55L151.93,225.12L153.24,256.94L153.43,254.01L153.62,253.4L153.8,256.29L154.74,265.32L154.93,259.17L155.12,247.09L155.68,257.1L155.87,247.55L156.99,230.58L157.18,231.26L159.06,211.55L159.24,211.8L159.43,210.69L159.81,211.25L160.56,206.87L160.74,208.36L161.87,205.25L162.06,207.16L162.43,204.49L162.99,204.68L163.18,204.84L163.37,206.19L163.56,206.16L163.74,203.06L164.12,205.89L164.49,204.38L164.68,203.01L165.06,205.69L165.43,203.63L165.62,202.97L166.37,204.34L166.56,202.98L167.87,207.62L168.06,206.19L168.25,206.17L168.43,211.24L169.37,224.67L169.56,224.49L169.93,221.57L170.12,226.35L170.31,225.59L170.87,218.78L171.06,220.73L171.25,222.18L172.37,243.34L172.56,239.94L172.94,226.27L173.12,227.97L173.31,239.39L174.62,219.14L174.81,219.49L176.12,209.62L176.31,209.29L176.87,207.63L177.06,205.15L177.44,207.9L177.62,204.77L177.81,205.34L178,205.48L178.19,206.32L178.37,204.95L178.56,203.31L178.75,205.9L179.31,203.74L179.5,203.75L179.87,203.48L180.06,204.76L180.25,203.39L180.63,205.49L180.81,203.49L181,203.98L181.19,202.95L181.56,204.87L181.75,204.42L182.13,202.64L182.69,202.96L182.88,204.87L184,201.79L184.19,201.85L184.38,202.18L185.13,210.8L185.31,224.13L186.44,256.78L186.81,256.62L187,257.24L187.57,247.16L187.75,251.72L187.94,258.4L188.13,259.54L188.32,254.69L189.25,222.28L189.44,225.79L189.63,227.7L189.82,227.57L190,232.24L191.13,251.51L191.32,249.36L191.5,244.53L191.88,243.89L192.07,240.36L192.44,238.8L192.63,226.65L193.57,209.92L193.75,208.39L194.51,206.28L194.69,207.77L195.44,203.47L195.82,204.27L196.01,205.46L196.38,203.15L196.76,203.25L196.94,204.14L197.13,203.96L197.32,204.61L197.51,205.02L197.88,202.36L198.26,204.02L198.44,204.67L198.63,203.31L199.19,203.76L199.38,203.72L199.57,202.66L200.13,202.85L200.32,202.79L200.88,202.5L201.07,202.78L201.26,202.89L201.44,202.44L202.01,202.98L202.2,202.75L202.38,202.25L202.76,202.67L202.95,202.99L205.01,255.84L205.2,250.97L206.51,223.86L206.7,224.04L206.88,233.45L207.26,262.67L207.82,251.69L208.01,245.88L208.2,236.03L208.57,255.04L208.76,252.46L210.07,213.62L210.26,216.83L210.45,218.17L210.64,216.68L210.82,214.44L211.95,205.55L212.14,207.79L213.26,203.55L213.45,203.47L213.64,203.55L213.82,202.47L214.39,204.52L214.57,203.72L214.76,202.36L215.51,203.42L215.7,202.74L215.89,203.01L216.08,202.66L216.26,201.92L216.83,203.03L217.2,202.76L217.39,202.38L220.95,200.62L221.14,202.56L221.7,207.19L221.89,225.07L222.83,251.36L223.01,255.71L224.33,235.68L224.52,236.23L225.27,216.48L225.45,220.53L225.64,222.79L226.02,225.56L226.2,233.09L226.77,241.35L226.95,240.87L227.14,232.68L228.45,213.63L228.64,218.05L228.83,216.64L230.89,204.23L231.08,204.31L231.46,204.95L231.64,203.07L232.39,205.02L232.58,202.61L232.77,203.48L233.33,203.29L233.52,202.34L234.27,203.03L234.46,202.41L235.21,203.48L235.39,202.87L238.96,201.61L239.15,215.08L240.08,244.68L240.27,237.95L240.46,232L240.65,237.65L240.83,253.22L241.58,266.26L241.77,259.09L242.15,238.3L242.52,245.79L242.71,247.29L242.9,246.72L243.08,248.52L243.27,248.85L244.02,261.7L244.21,268.39L244.58,264.57L244.77,265.12L244.96,268.3L245.34,250.01L245.52,243.16L245.71,244.4L245.9,236.51L246.65,216.58L247.02,218.5L247.21,216.02L247.4,216.28L247.59,211.32L247.77,213.22L247.96,212.19L248.15,208.59L248.34,208.8L248.52,207.33L249.46,204.15L249.65,204.7L249.84,205.75L250.21,203.9L250.4,203.14L251.15,206.17L251.34,205.17L251.52,203.71L252.84,202.2L253.03,202.53L253.21,203.02L253.4,204.02L253.78,202.9L253.96,202.91L254.15,202.27L254.71,202.52L254.9,202.4L256.59,202.86L256.78,203.13L256.96,202.84L257.15,212.14L258.09,233.63L258.28,233.39L258.46,234.93L258.65,244.31L258.84,252.95L259.22,243.6L259.4,230L259.59,223.51L259.97,229.41L260.15,231.7L260.72,227.8L260.9,229.71L261.09,242.34L261.65,249.74L261.84,243.26L262.03,242.59L262.4,259.23L262.59,271.21L262.78,270.5L262.97,274.53L263.34,273.78L263.53,275.42L263.9,277.37L264.09,269.8L264.47,252.72L264.65,231.77L266.15,212.66L266.34,211.72L267.09,208.06L267.28,209.53L267.47,209.36L268.03,204.63L268.22,206.32L268.41,207.89L269.53,203.45L269.72,203.97L269.91,203.07L270.09,203.76L270.28,205.12L271.59,202.54L271.78,202.74L271.97,204.36L272.91,203.15L273.09,203.15L274.22,202.55L274.41,202.73L274.6,202.78L274.97,202.64L275.16,204.47L276.66,216.53L276.85,215.9L277.41,215.48L277.6,213.82L278.35,206.66L278.53,207.46L278.72,209.39L279.1,208.54L279.47,212.95L279.66,211.61L279.85,210.78L280.41,220.75L280.6,220.27L280.78,216.41L280.97,211.35L281.16,218.86L281.35,222.99L282.85,214.15L283.04,215.45L283.41,212.96L283.6,211.05L284.72,205.58L284.91,206.58L285.1,206.31L285.29,202.35L285.66,205.09L286.22,204.24L286.41,204.57L286.79,205.58L286.97,203.39L287.54,202.86L287.72,205.06L287.91,204.6L288.1,203.61L289.23,203.71L289.41,204.44L289.6,204.61L289.79,202.5L290.16,202L290.35,203.13L290.54,203.74L290.73,202.66L291.29,202.96L291.48,202.96L291.66,202.24L292.04,202.9L292.23,204.22L292.41,204.74L292.6,203.03L292.79,203.22L292.98,203.08L293.16,205.13L294.29,208.98L294.48,207.9L294.66,206.22L295.04,208.99L295.23,210.33L295.42,208.63L295.6,208.82L295.79,213.6L297.48,235L297.67,231.36L297.85,230.03L298.04,232.59L298.23,241.97L298.42,244.78L298.6,241.19L298.79,233.21L298.98,234.03L299.17,241.67L299.35,239.11L299.54,241.09L299.73,249.24L300.85,230.39L301.04,231.21L303.29,210.41L303.48,212.24L303.86,206.5L304.23,209.21L304.42,207.76L305.54,204.32L305.73,205.81L305.92,206.58L306.11,206.18L306.29,203.94L307.42,204.26L307.61,203.97L308.54,202.67L308.73,203.42L308.92,204.23L309.48,203.46L309.67,202.97L310.8,203.09L310.98,202.83L313.23,271.73L313.42,252.43L314.36,172.84L314.55,172.99L315.67,172.91L315.86,173.05L317.55,172.91L317.74,173.01L318.67,172.85L318.86,173.09L322.61,172.96L322.8,172.94L327.68,172.96L327.86,172.94L334.62,173.02L334.8,172.85L335.93,172.93L336.12,134.76L336.3,73.32L336.87,129.2L337.05,114.16L337.8,173.04L338.37,172.96L338.56,172.97L345.12,172.95L345.31,172.95L350.18,172.94L350.37,172.49L350.75,173.24L351.31,172.92L351.5,172.84L351.68,173.46L351.87,172.41L352.25,173.01L352.43,173.05L353.56,172.92L353.75,172.9L353.94,172.93L354.12,146.39L354.31,52.88L354.87,121.96L355.06,143.99L356.19,173.03L356.37,172.98L356.56,172.95L369.69,172.91L369.88,173.01L370.07,172.78L370.25,92.99L370.63,35.58L371,47.74L371.19,36.74L371.94,16L372.13,18.1L372.32,29.95L374,172.99L374.19,173.09L377.01,172.97L377.19,172.93L383.57,172.95L383.76,172.85L384.32,172.85L384.51,172.35L385.07,173.32L385.45,172.87L385.63,172.97L388.07,173L388.26,173.3L388.45,172.51L389.01,173.35L389.2,165.75L389.39,138.91L389.76,172.97L389.95,172.9L394.82,172.96L395.01,172.94L404.95,172.98L405.14,76.78L405.33,21L405.89,24.55L406.08,22.17L407.2,30.28L407.39,25.44L407.95,24.49L408.33,38.25L408.52,50.24L410.02,173.09L410.58,172.94L410.77,172.94L413.58,172.96L413.77,172.95L423.15,172.96L423.33,49.8L423.52,25.45L424.08,33.94L424.27,31.62L425.4,40.63L425.59,39.54L425.96,31.48L426.15,33.05L426.34,49.6L428.02,173.05L428.59,172.91L428.77,172.94L433.46,172.97L433.65,172.94L440.22,173L440.4,172.88L441.34,172.92L441.53,172.99L442.47,172.92L442.65,96.21L443.59,71.6L443.78,67.9L444.15,50.94L444.34,58.59L444.53,71.18L445.84,173.04L446.22,173L446.41,173L448.28,172.91L448.47,172.99L450.53,172.94L450.72,172.97L455.78,172.93L455.97,172.97L459.35,172.91L459.53,173.14L460.85,172.91L461.04,173.11L461.79,172.85L461.97,127.5L462.54,53.61L462.72,63.81L462.91,84.38L464.04,173.11L464.41,172.99L464.6,172.94L471.73,172.98L471.91,172.93L477.73,172.96L477.92,118.79L478.29,29.53L478.67,35.14L478.85,35.63L479.04,35.29L479.23,46.67L480.17,71.64L480.35,73.48L482.42,173.06L482.61,172.92L482.79,172.9L485.79,172.96L485.98,172.95L493.11,172.94L493.3,173.16L495.92,173L496.11,172.86L497.99,172.79L498.17,173.01L500.61,172.95L500.8,172.93L504.36,172.95L504.55,172.95L514.12,173.01L514.3,155.4L514.68,42.21L515.05,56.02L515.24,55.94L516.18,48.34L516.37,53.97L518.05,173.05L518.62,172.93L518.81,172.96L523.31,172.95L523.49,172.98L525.93,172.94L526.12,172.96L531,172.97L531.18,124.25L531.37,35.68L531.93,40.45L532.12,39.8L532.5,46.82L532.68,44.17L532.87,36.81L533.81,49.15L534,48.93L534.37,44.43L534.56,56.22L536.25,173.04L536.62,172.99L536.81,172.92L540,172.96" style="vector-effect: non-scaling-stroke; fill: none; stroke: rgb(0, 191, 255); stroke-opacity: 1; stroke-width: 2px; opacity: 1;"/></g><g class="points"/><g class="text"/></g></g></g><g class="overplot"/><path class="xlines-above crisp" d="M0,0" style="fill: none;"/><path class="ylines-above crisp" d="M0,0" style="fill: none;"/><g class="overlines-above"/><g class="xaxislayer-above"><g class="xtick"><text text-anchor="middle" x="0" y="433" transform="translate(116.00999999999999,0)" style="font-family: sans-serif; font-size: 12px; fill: rgb(42, 63, 95); fill-opacity: 1; white-space: pre; opacity: 1;"><tspan class="line" dy="0em" x="0" y="433">Apr 3</tspan><tspan class="line" dy="1.3em" x="0" y="433">2022</tspan></text></g><g class="xtick"><text text-anchor="middle" x="0" y="433" style="font-family: sans-serif; font-size: 12px; fill: rgb(42, 63, 95); fill-opacity: 1; white-space: pre; opacity: 1;" transform="translate(242.06,0)">Apr 10</text></g><g class="xtick"><text text-anchor="middle" x="0" y="433" style="font-family: sans-serif; font-size: 12px; fill: rgb(42, 63, 95); fill-opacity: 1; white-space: pre; opacity: 1;" transform="translate(368.1,0)">Apr 17</text></g><g class="xtick"><text text-anchor="middle" x="0" y="433" style="font-family: sans-serif; font-size: 12px; fill: rgb(42, 63, 95); fill-opacity: 1; white-space: pre; opacity: 1;" transform="translate(494.14,0)">Apr 24</text></g></g><g class="yaxislayer-above"><g class="ytick"><text text-anchor="end" x="79" y="4.199999999999999" transform="translate(0,399.17)" style="font-family: sans-serif; font-size: 12px; fill: rgb(42, 63, 95); fill-opacity: 1; white-space: pre; opacity: 1;">−60k</text></g><g class="ytick"><text text-anchor="end" x="79" y="4.199999999999999" style="font-family: sans-serif; font-size: 12px; fill: rgb(42, 63, 95); fill-opacity: 1; white-space: pre; opacity: 1;" transform="translate(0,357.1)">−40k</text></g><g class="ytick"><text text-anchor="end" x="79" y="4.199999999999999" style="font-family: sans-serif; font-size: 12px; fill: rgb(42, 63, 95); fill-opacity: 1; white-space: pre; opacity: 1;" transform="translate(0,315.02)">−20k</text></g><g class="ytick"><text text-anchor="end" x="79" y="4.199999999999999" style="font-family: sans-serif; font-size: 12px; fill: rgb(42, 63, 95); fill-opacity: 1; white-space: pre; opacity: 1;" transform="translate(0,272.95)">0</text></g><g class="ytick"><text text-anchor="end" x="79" y="4.199999999999999" style="font-family: sans-serif; font-size: 12px; fill: rgb(42, 63, 95); fill-opacity: 1; white-space: pre; opacity: 1;" transform="translate(0,230.88)">20k</text></g><g class="ytick"><text text-anchor="end" x="79" y="4.199999999999999" style="font-family: sans-serif; font-size: 12px; fill: rgb(42, 63, 95); fill-opacity: 1; white-space: pre; opacity: 1;" transform="translate(0,188.81)">40k</text></g><g class="ytick"><text text-anchor="end" x="79" y="4.199999999999999" style="font-family: sans-serif; font-size: 12px; fill: rgb(42, 63, 95); fill-opacity: 1; white-space: pre; opacity: 1;" transform="translate(0,146.74)">60k</text></g><g class="ytick"><text text-anchor="end" x="79" y="4.199999999999999" style="font-family: sans-serif; font-size: 12px; fill: rgb(42, 63, 95); fill-opacity: 1; white-space: pre; opacity: 1;" transform="translate(0,104.66)">80k</text></g></g><g class="overaxes-above"/></g></g><g class="polarlayer"/><g class="smithlayer"/><g class="ternarylayer"/><g class="geolayer"/><g class="funnelarealayer"/><g class="pielayer"/><g class="iciclelayer"/><g class="treemaplayer"/><g class="sunburstlayer"/><g class="glimages"/><defs id="topdefs-4a6be7"><g class="clips"/></defs><g class="layer-above"><g class="imagelayer"/><g class="shapelayer"/></g><g class="infolayer"><g class="g-gtitle"><text class="gtitle" x="350" y="50" text-anchor="middle" dy="0em" style="font-family: sans-serif; font-size: 17px; fill: rgb(42, 63, 95); opacity: 1; font-weight: normal; white-space: pre;"><tspan class="line" dy="0em" x="350" y="50"><tspan style="font-weight:bold">Scenario 5</tspan></tspan><tspan class="line" dy="1.3em" x="350" y="50"><tspan style="font-weight:bold">Microgrid Output</tspan></tspan><tspan class="line" dy="2.6em" x="350" y="50"><tspan style="font-weight:bold">From: April 01, 2022 to April 30, 2022</tspan></tspan></text></g><g class="g-xtitle"><text class="xtitle" x="350" y="476.409375" text-anchor="middle" style="font-family: sans-serif; font-size: 14px; fill: rgb(42, 63, 95); opacity: 1; font-weight: normal; white-space: pre;"><tspan style="font-weight:bold">Time</tspan></text></g><g class="g-ytitle"><text class="ytitle" transform="rotate(-90,27.840625000000003,260)" x="27.840625000000003" y="260" text-anchor="middle" style="font-family: sans-serif; font-size: 14px; fill: rgb(42, 63, 95); opacity: 1; font-weight: normal; white-space: pre;"><tspan style="font-weight:bold">Demand (kW)</tspan></text></g></g></svg>