<svg class="main-svg" xmlns="http://www.w3.org/2000/svg" xmlns:xlink="http://www.w3.org/1999/xlink" width="700" height="500" style="" viewBox="0 0 700 500"><rect x="0" y="0" width="700" height="500" style="fill: rgb(255, 255, 255); fill-opacity: 1;"/><defs id="defs-a0491f"><g class="clips"><clipPath id="clipa0491fxyplot" class="plotclip"><rect width="540" height="320"/></clipPath><clipPath class="axesclip" id="clipa0491fx"><rect x="80" y="0" width="540" height="500"/></clipPath><clipPath class="axesclip" id="clipa0491fy"><rect x="0" y="100" width="700" height="320"/></clipPath><clipPath class="axesclip" id="clipa0491fxy"><rect x="80" y="100" width="540" height="320"/></clipPath></g><g class="gradients"/><g class="patterns"/></defs><g class="bglayer"/><g class="layer-below"><g class="imagelayer"/><g class="shapelayer"/></g><g class="cartesianlayer"><g class="subplot xy"><g class="layer-subplot"><g class="shapelayer"/><g class="imagelayer"/></g><g class="minor-gridlayer"><g class="x"/><g class="y"/></g><g class="gridlayer"><g class="x"><path class="xgrid crisp" transform="translate(201.98000000000002,0)" d="M0,100v320" style="stroke: rgb(255, 255, 255); stroke-opacity: 1; stroke-width: 1px;"/><path class="xgrid crisp" transform="translate(323.95,0)" d="M0,100v320" style="stroke: rgb(255, 255, 255); stroke-opacity: 1; stroke-width: 1px;"/><path class="xgrid crisp" transform="translate(445.93,0)" d="M0,100v320" style="stroke: rgb(255, 255, 255); stroke-opacity: 1; stroke-width: 1px;"/><path class="xgrid crisp" transform="translate(567.9100000000001,0)" d="M0,100v320" style="stroke: rgb(255, 255, 255); stroke-opacity: 1; stroke-width: 1px;"/></g><g class="y"><path class="ygrid crisp" transform="translate(0,401.97)" d="M80,0h540" style="stroke: rgb(255, 255, 255); stroke-opacity: 1; stroke-width: 1px;"/><path class="ygrid crisp" transform="translate(0,316.02)" d="M80,0h540" style="stroke: rgb(255, 255, 255); stroke-opacity: 1; stroke-width: 1px;"/><path class="ygrid crisp" transform="translate(0,144.11)" d="M80,0h540" style="stroke: rgb(255, 255, 255); stroke-opacity: 1; stroke-width: 1px;"/></g></g><g class="zerolinelayer"><path class="yzl zl crisp" transform="translate(0,230.06)" d="M80,0h540" style="stroke: rgb(255, 255, 255); stroke-opacity: 1; stroke-width: 2px;"/></g><path class="xlines-below"/><path class="ylines-below"/><g class="overlines-below"/><g class="xaxislayer-below"/><g class="yaxislayer-below"/><g class="overaxes-below"/><g class="plot" transform="translate(80,100)" clip-path="url(#clipa0491fxyplot)"><g class="scatterlayer mlayer"><g class="trace scatter tracef090d2" style="stroke-miterlimit: 2; opacity: 0.5;"><g class="fills"/><g class="errorbars"/><g class="lines"><path class="js-line" d="M0,130.05L3.45,130.05L3.63,130.06L3.81,130.07L3.99,131.94L4.72,128.15L4.9,130.04L9.08,130.05L9.26,108.24L9.44,18.5L9.98,101.32L10.16,98.96L10.35,16.46L11.07,18.02L11.25,22.36L11.62,16L11.8,23.27L11.98,31.31L13.61,132.02L13.98,130.06L14.16,128.18L14.7,130.1L15.07,130.06L15.25,130.07L19.78,130.05L19.97,131.95L20.15,128.18L20.69,131.94L20.87,130.06L21.06,128.18L21.6,130.06L21.78,130.05L24.14,130.03L24.32,131.72L24.69,128.05L25.05,130.03L25.23,130.04L25.77,130L25.96,131.95L26.32,128.22L26.86,130.05L27.05,130.11L27.23,131.92L27.59,130.04L27.77,128.16L28.5,130.08L28.68,130.04L28.86,130.08L35.03,130.06L35.21,130.07L39.03,130.06L39.21,131.95L39.39,128.17L39.93,130.06L40.11,130.04L40.48,130.03L40.66,131.81L41.2,128.92L41.57,130.06L41.75,130.06L41.93,131.95L42.29,130.06L42.47,128.17L43.02,130.12L43.38,130.08L43.56,130.11L47.19,130.13L47.37,130.23L47.92,130.12L48.1,132.03L48.65,128.2L49.01,130.04L49.19,130.06L55.54,130.06L55.72,131.95L55.91,128.18L56.45,130.06L56.63,130.03L56.81,130.05L56.99,131.92L57.36,128.2L57.9,130.01L58.08,129.94L59.54,130.08L59.72,131.97L60.08,128.16L60.63,129.98L60.81,130.03L63.17,130.6L63.35,129.57L63.71,130.59L64.26,130.06L64.44,130.06L72.97,130.06L73.15,131.82L73.69,131.95L74.06,128.14L74.24,130.05L78.41,130.1L78.59,131.99L79.14,128.24L79.5,130.08L79.68,129.97L82.77,130.19L82.95,130.11L90.94,130.06L91.12,131.82L91.3,128.29L91.85,129.97L92.03,130.06L94.02,130.06L94.21,131.95L94.75,128.17L95.11,129.54L95.29,130.14L95.66,132L96.2,127.81L96.38,130.95L97.29,130.06L97.47,130.06L106.91,130.06L107.09,131.95L107.46,128.17L108,130.08L108.18,130.05L109.27,130.03L109.45,131.93L109.82,128.1L110.36,130L110.54,129.98L110.72,130.02L110.9,131.87L111.45,128.13L111.81,130.02L111.99,130.1L113.81,130.1L113.99,130.62L114.17,129.5L114.72,130.05L114.9,130.11L116.17,130.05L116.35,130.15L118.16,130.12L118.35,131.97L119.07,128.15L119.25,130.06L119.44,130.05L126.15,130.08L126.33,131.94L126.7,128.16L127.24,130.05L127.42,130.07L127.6,128.18L128.15,129.98L128.33,130.04L129.24,129.95L129.42,131.84L129.96,127.95L130.33,130.08L130.51,130.08L130.87,130.16L131.05,130.56L131.23,129.39L132.14,130.16L132.32,129.86L133.05,130.21L133.23,129.66L133.77,130.31L133.96,130L134.14,129.91L135.05,130.13L135.23,130.16L138.68,130.06L138.86,130.19L140.31,130.05L140.49,130.06L144.3,130.09L144.48,129.93L144.67,130.04L144.85,132.03L145.03,128.14L145.57,129.72L145.75,130.33L145.94,129.95L146.12,131.91L146.48,127.84L146.66,130.17L146.84,131.93L147.21,128.02L147.57,129.99L147.75,130.39L147.93,129.73L148.48,130.14L148.66,129.99L149.2,130.35L149.38,131.91L149.93,128.32L150.11,129.89L150.29,130.15L156.83,129.98L157.01,130.14L159.19,130.06L159.37,130.06L162.09,129.98L162.27,131.89L162.45,128.14L163,129.97L163.18,129.99L165.54,130.06L165.72,131.95L166.63,128.17L166.81,130.06L166.99,129.57L167.54,130.03L167.72,130.09L167.9,130.04L168.08,132.13L168.63,128.22L168.99,129.99L169.17,130.38L170.08,130.13L170.26,130.22L174.8,129.93L174.98,130.19L175.7,130.06L175.89,131.95L176.07,128.17L176.61,130.07L176.79,130.06L179.33,130.09L179.52,131.87L179.7,128.1L180.24,129.99L180.42,129.98L181.15,130.66L181.33,129.47L181.51,131.89L182.06,130.14L182.24,128.15L182.96,130.09L183.15,130.04L183.33,130.08L183.51,130.02L183.69,131.93L184.42,128.15L184.6,130.08L184.78,130.1L185.87,130.6L186.05,131.41L186.59,128.2L186.96,130.07L187.14,130.06L196.76,130.07L196.94,131.78L197.12,128.08L197.67,129.98L197.85,130L198.76,130.07L198.94,131.95L199.3,128.14L199.66,130.06L199.85,130.7L200.03,131.96L200.21,130.06L200.39,128.17L201.48,131.95L201.66,130.06L201.84,128.17L202.39,130.06L202.57,130.06L210.74,130.07L210.92,131.95L211.1,128.17L211.64,130.06L211.83,129.93L213.28,130.06L213.46,130.06L214.91,130.06L215.09,131.95L215.46,128.17L216,130.06L216.18,130.06L225.8,130.06L225.98,131.95L226.53,128.17L226.89,130.06L227.07,130.06L230.7,130.06L230.88,131.95L231.07,128.17L231.61,130.06L231.79,130.06L232.7,130.06L232.88,131.95L233.06,128.17L233.61,130.06L233.79,130.06L239.78,130.06L239.96,131.95L240.32,128.17L240.87,130.06L241.05,130.06L241.23,130.06L241.41,131.95L241.96,128.17L242.32,130.06L242.5,130.06L246.49,130.06L246.68,131.95L246.86,128.17L247.4,130.06L247.58,130.06L249.4,130.06L249.58,131.95L249.76,128.17L250.31,130.06L250.49,130.06L251.76,130.06L251.94,131.95L252.48,128.17L252.85,130.06L253.03,130.06L253.21,130.06L253.39,131.95L253.75,128.17L254.3,130.06L254.48,130.06L256.3,130.06L256.48,131.95L256.84,128.17L257.38,130.06L257.57,130.06L264.65,130.06L264.83,131.95L265.55,128.17L265.73,130.06L265.92,130.06L267.37,130.06L267.55,131.95L267.73,130.06L267.91,161.7L268.82,130.06L269,130.06L270.64,130.06L270.82,215.54L271.18,216.02L271.36,130.53L272.27,130.06L272.45,130.06L282.8,130.06L282.98,215.54L283.89,130.06L284.07,130.06L284.43,216.02L284.79,130.06L284.97,130.06L285.52,216.02L285.7,130.53L285.88,130.06L287.7,130.06L287.88,215.54L288.24,216.02L288.42,130.53L289.33,130.06L289.51,130.06L300.04,130.06L300.22,215.54L301.13,130.06L301.31,130.06L304.03,130.06L304.22,215.54L304.4,216.02L304.58,130.53L305.49,130.06L305.67,130.06L318.55,130.06L318.74,215.54L318.92,216.02L319.1,130.53L320.01,130.06L320.19,130.06L320.73,130.06L320.91,215.54L321.1,216.02L321.28,130.53L322.18,130.06L322.37,130.06L324.36,130.06L324.54,215.54L325.45,216.02L325.63,130.53L326.54,130.06L326.72,130.06L336.34,130.06L336.52,215.54L336.71,216.02L336.89,130.53L337.79,130.06L337.98,130.06L339.43,130.06L339.61,215.54L339.97,216.02L340.15,130.53L340.52,130.06L340.7,215.54L341.06,216.02L341.24,130.53L342.15,130.06L342.33,130.06L350.86,130.06L351.05,215.54L351.95,130.06L352.13,130.06L356.49,130.06L356.67,215.54L357.4,130.06L357.58,215.54L358.12,130.53L358.31,215.54L358.49,216.02L358.67,216.02L358.85,130.53L359.76,130.06L359.94,130.06L362.12,130.06L362.3,215.54L362.48,216.02L362.66,130.53L363.57,130.06L363.75,130.06L370.65,130.06L370.83,215.54L371.74,130.06L371.92,130.06L372.28,129.79L372.46,131.74L372.65,128.4L373.19,130.08L373.37,130.07L373.73,130.13L373.92,131.89L374.28,128.2L374.82,130.02L375.01,130.14L375.73,130.13L375.91,131.9L376.64,128.17L376.82,130.06L377,130.07L377.18,130.09L377.36,131.88L377.73,128.15L378.09,130.1L378.27,130.15L380.81,130.06L380.99,130.04L385.9,130.07L386.08,131.95L386.62,128.16L386.98,130.05L387.17,130.07L390.98,130.02L391.16,132.01L391.52,128.19L392.07,130.02L392.25,131.99L392.79,128.1L392.97,130.13L393.16,131.92L393.52,128.17L393.88,130.27L394.06,130.68L394.79,130L394.97,130.08L395.15,130.04L398.06,130.1L398.24,129.93L399.69,130.05L399.87,135.9L400.6,156.45L400.78,155.29L400.96,155.55L401.14,155.72L401.32,155.32L401.51,157.59L402.59,155.27L402.78,155.47L403.14,156.33L403.32,242.03L404.05,155.14L404.23,155.39L404.41,154.76L405.14,155.39L405.32,154.59L405.5,154.62L405.68,157.83L406.77,194.23L406.95,186.05L407.86,129.98L408.04,131.99L408.77,128.16L408.95,130.12L409.13,129.96L409.86,130.1L410.04,131.95L410.58,128.28L410.94,129.4L411.13,129.98L412.03,130.74L412.22,129.98L412.4,130.07L412.94,130.12L413.12,169.17L413.3,203.37L413.85,192.06L414.03,186.86L416.03,163.52L416.21,163.27L416.93,158.4L417.12,160.56L417.3,161.02L418.39,157.9L418.57,157.91L418.75,158.99L419.11,156.86L419.29,157.24L419.48,156.09L419.84,157.6L420.02,157.59L420.75,155.52L420.93,156.11L421.11,156.14L421.29,155.49L421.65,156.82L421.84,157.53L422.2,155.75L422.38,241.48L422.56,155.81L423.11,247.55L423.29,174.7L423.83,190.23L424.01,285.03L424.19,286L424.38,201.16L424.56,199.19L424.74,187.95L425.1,129.97L425.65,130.05L425.83,130.12L426.37,128.39L426.55,135.27L426.74,130.56L427.64,130.09L427.83,129.99L429.28,130.12L429.46,130.06L431.09,130.12L431.27,130L431.46,130.18L431.64,133.28L432.36,255.66L432.54,172.58L433.45,165.01L433.63,167.67L433.82,165.9L434.72,157.39L434.9,159.16L435.09,160.3L435.27,157.14L435.45,156.66L435.63,158.51L435.99,157.73L436.17,155.79L436.36,155.64L436.54,157.41L436.72,158.09L436.9,157.91L437.08,156.07L437.63,155.31L437.81,157.42L438.9,155.22L439.08,157.07L439.26,157.12L439.44,155.03L439.62,155.07L439.81,237.36L440.71,130.01L440.89,129.99L441.26,187.05L441.44,129.79L441.8,180.55L441.98,129.67L442.53,131.95L442.71,166.23L442.89,203.93L443.25,130.09L443.44,130.06L444.34,130.11L444.52,130.03L445.61,130.73L445.79,130.34L445.98,129.94L446.34,130.04L446.52,137.45L446.7,302.34L447.25,209.78L447.43,202.96L447.61,193.57L447.79,271.15L447.97,270.2L448.15,186.96L448.52,199.58L448.7,283.51L449.06,267.54L449.24,173.15L449.61,170.4L449.79,168.85L451.06,160.12L451.24,160.89L452.33,157.36L452.51,158.05L453.06,155.75L453.24,157.85L453.42,159.6L454.33,155.61L454.51,156.07L454.87,155.84L455.6,157.52L455.78,155.36L456.5,156L456.69,155.17L457.23,155.75L457.41,155.66L457.59,240.59L457.77,155.64L458.32,177.78L458.5,179.23L458.86,178.31L459.05,179.78L459.23,179.45L459.41,179.06L459.95,182.14L460.13,194.87L461.04,215.45L461.22,304L461.95,179.98L462.13,265.59L462.31,266.92L462.49,198.16L462.68,205.05L463.04,199.97L463.22,191.79L463.58,199.4L463.76,202.54L464.13,198.26L464.31,282.75L464.49,282.58L464.67,192.57L467.76,168.1L467.94,168.85L469.21,161.11L469.39,163.54L469.57,164.28L469.75,160.72L470.3,162.53L470.48,161.86L470.66,157.33L471.03,155.56L471.39,157.38L471.57,156.97L472.3,155.14L472.48,155.64L472.66,156.11L472.84,155.18L473.38,155.68L473.57,155.72L473.75,155.05L474.11,156.14L474.29,156.91L474.47,156.4L474.66,241.01L475.02,155.34L475.56,158.2L475.74,159.31L476.83,157.37L477.02,160.38L477.2,160.23L477.38,160.49L477.56,164.9L477.92,168.74L478.47,168.46L478.65,167.6L479.37,172.48L479.56,170.06L479.74,165.48L480.46,171.16L480.65,170.84L480.83,256.48L481.01,259.34L481.19,170.86L481.37,171.79L481.55,170.98L481.73,165.06L481.92,166.91L482.28,163.29L482.46,166.21L482.64,165.76L482.82,162.94L483.01,247.65L483.19,251.66L483.37,164.59L483.55,160L484.28,160.15L484.46,161.03L484.64,161.67L484.82,159.11L485.36,162.52L485.55,159.5L486.45,156.13L486.64,156.73L486.82,157.37L487,155.62L487.36,157.03L487.54,156.98L488.27,155.14L488.45,155.41L488.63,240.81L489.18,154.94L489.54,155.29L489.72,154.88L490.08,154.12L490.27,155.38L490.63,155.43L490.81,156.65L491.9,154.58L492.08,155.15L492.26,154.77L492.63,155.61L492.81,157.76L493.17,157.71L493.71,159.49L493.9,245.94L494.08,244.41L494.26,158.49L494.44,158.75L494.62,162.75L494.8,163.71L494.98,160.43L495.71,174.92L495.89,172.23L496.07,166.83L497.16,184.52L497.34,182.13L497.53,181.8L497.89,190.69L498.25,186.01L498.43,182.66L498.62,184.37L498.8,269.92L499.7,185.36L499.89,183.33L500.07,187.75L500.43,182.67L500.61,180.01L500.97,177.98L501.16,173.66L501.34,260.7L501.7,172.65L501.88,173.8L502.06,170.81L502.25,170.67L502.43,169.34L503.33,160.43L503.52,163.15L503.7,164.73L504.06,161.22L504.42,163.49L504.61,162.59L505.15,156.06L505.51,157.27L505.69,157.59L506.42,155.56L506.6,156.02L506.78,241.43L507.33,155.07L507.69,155.22L507.87,155.55L508.05,156.01L508.24,155.23L508.6,155.74L508.78,155.44L509.87,155.54L510.05,154.95L510.59,158.65L510.96,158.18L511.14,158.55L511.32,158.45L511.5,160.08L512.23,158L512.41,159.57L512.77,160.7L512.95,161.5L513.14,159.69L513.5,161.39L513.68,247.36L513.86,166.21L514.04,256.93L514.59,174.33L514.77,173.99L514.95,176.72L515.13,263.9L515.31,268.04L515.5,182.7L516.58,191.03L516.77,189.68L516.95,186.59L517.13,189.56L517.49,184.09L517.67,183.06L518.04,186.36L518.22,182.56L518.4,182.28L519.85,171.79L520.03,170.76L521.3,162.16L521.49,163.32L521.85,162.88L522.03,164.14L522.76,160.55L522.94,162.36L523.12,161.96L523.85,159.45L524.03,156.05L524.93,155L525.12,155.54L525.66,154.55L525.84,154.92L526.02,155.55L527.11,154.19L527.29,154.71L527.48,154.54L527.66,156.2L528.2,179.16L528.38,177.53L528.56,151.39L529.47,128.11L529.65,130.01L529.84,130.06L530.02,131.96L530.92,128.08L531.11,130.06L531.29,130.01L531.47,132L531.83,128.15L532.38,129.97L532.56,130.23L533.1,129.98L533.28,131.94L533.83,128.14L534.19,130.04L534.37,130.08L540,130.06" style="vector-effect: non-scaling-stroke; fill: none; stroke: rgb(0, 191, 255); stroke-opacity: 1; stroke-width: 2px; opacity: 1;"/></g><g class="points"/><g class="text"/></g></g></g><g class="overplot"/><path class="xlines-above crisp" d="M0,0" style="fill: none;"/><path class="ylines-above crisp" d="M0,0" style="fill: none;"/><g class="overlines-above"/><g class="xaxislayer-above"><g class="xtick"><text text-anchor="middle" x="0" y="433" transform="translate(80,0)" style="font-family: 'Open Sans', verdana, arial, sans-serif; font-size: 12px; fill: rgb(42, 63, 95); fill-opacity: 1; white-space: pre; opacity: 1;"><tspan class="line" dy="0em" x="0" y="433">May 1</tspan><tspan class="line" dy="1.3em" x="0" y="433">2022</tspan></text></g><g class="xtick"><text text-anchor="middle" x="0" y="433" style="font-family: 'Open Sans', verdana, arial, sans-serif; font-size: 12px; fill: rgb(42, 63, 95); fill-opacity: 1; white-space: pre; opacity: 1;" transform="translate(201.98000000000002,0)">May 8</text></g><g class="xtick"><text text-anchor="middle" x="0" y="433" style="font-family: 'Open Sans', verdana, arial, sans-serif; font-size: 12px; fill: rgb(42, 63, 95); fill-opacity: 1; white-space: pre; opacity: 1;" transform="translate(323.95,0)">May 15</text></g><g class="xtick"><text text-anchor="middle" x="0" y="433" style="font-family: 'Open Sans', verdana, arial, sans-serif; font-size: 12px; fill: rgb(42, 63, 95); fill-opacity: 1; white-space: pre; opacity: 1;" transform="translate(445.93,0)">May 22</text></g><g class="xtick"><text text-anchor="middle" x="0" y="433" style="font-family: 'Open Sans', verdana, arial, sans-serif; font-size: 12px; fill: rgb(42, 63, 95); fill-opacity: 1; white-space: pre; opacity: 1;" transform="translate(567.9100000000001,0)">May 29</text></g></g><g class="yaxislayer-above"><g class="ytick"><text text-anchor="end" x="79" y="4.199999999999999" transform="translate(0,401.97)" style="font-family: 'Open Sans', verdana, arial, sans-serif; font-size: 12px; fill: rgb(42, 63, 95); fill-opacity: 1; white-space: pre; opacity: 1;">−100</text></g><g class="ytick"><text text-anchor="end" x="79" y="4.199999999999999" style="font-family: 'Open Sans', verdana, arial, sans-serif; font-size: 12px; fill: rgb(42, 63, 95); fill-opacity: 1; white-space: pre; opacity: 1;" transform="translate(0,316.02)">−50</text></g><g class="ytick"><text text-anchor="end" x="79" y="4.199999999999999" style="font-family: 'Open Sans', verdana, arial, sans-serif; font-size: 12px; fill: rgb(42, 63, 95); fill-opacity: 1; white-space: pre; opacity: 1;" transform="translate(0,230.06)">0</text></g><g class="ytick"><text text-anchor="end" x="79" y="4.199999999999999" style="font-family: 'Open Sans', verdana, arial, sans-serif; font-size: 12px; fill: rgb(42, 63, 95); fill-opacity: 1; white-space: pre; opacity: 1;" transform="translate(0,144.11)">50</text></g></g><g class="overaxes-above"/></g></g><g class="polarlayer"/><g class="smithlayer"/><g class="ternarylayer"/><g class="geolayer"/><g class="funnelarealayer"/><g class="pielayer"/><g class="iciclelayer"/><g class="treemaplayer"/><g class="sunburstlayer"/><g class="glimages"/><defs id="topdefs-a0491f"><g class="clips"/></defs><g class="layer-above"><g class="imagelayer"/><g class="shapelayer"/></g><g class="infolayer"><g class="g-gtitle"><text class="gtitle" x="350" y="50" text-anchor="middle" dy="0em" style="font-family: 'Open Sans', verdana, arial, sans-serif; font-size: 17px; fill: rgb(42, 63, 95); opacity: 1; font-weight: normal; white-space: pre;"><tspan class="line" dy="0em" x="350" y="50">Scenario 8</tspan><tspan class="line" dy="1.3em" x="350" y="50">Microgrid Output</tspan><tspan class="line" dy="2.6em" x="350" y="50">From: May 01, 2022 to May 31, 2022</tspan></text></g><g class="g-xtitle"><text class="xtitle" x="350" y="476.409375" text-anchor="middle" style="font-family: 'Open Sans', verdana, arial, sans-serif; font-size: 14px; fill: rgb(42, 63, 95); opacity: 1; font-weight: normal; white-space: pre;">Time</text></g><g class="g-ytitle"><text class="ytitle" transform="rotate(-90,27.168750000000003,260)" x="27.168750000000003" y="260" text-anchor="middle" style="font-family: 'Open Sans', verdana, arial, sans-serif; font-size: 14px; fill: rgb(42, 63, 95); opacity: 1; font-weight: normal; white-space: pre;">Demand (kW)</text></g></g></svg>