<svg class="main-svg" xmlns="http://www.w3.org/2000/svg" xmlns:xlink="http://www.w3.org/1999/xlink" width="700" height="500" style="" viewBox="0 0 700 500"><rect x="0" y="0" width="700" height="500" style="fill: rgb(255, 255, 255); fill-opacity: 1;"/><defs id="defs-053bf2"><g class="clips"><clipPath id="clip053bf2xyplot" class="plotclip"><rect width="540" height="320"/></clipPath><clipPath class="axesclip" id="clip053bf2x"><rect x="80" y="0" width="540" height="500"/></clipPath><clipPath class="axesclip" id="clip053bf2y"><rect x="0" y="100" width="700" height="320"/></clipPath><clipPath class="axesclip" id="clip053bf2xy"><rect x="80" y="100" width="540" height="320"/></clipPath></g><g class="gradients"/><g class="patterns"/></defs><g class="bglayer"/><g class="layer-below"><g class="imagelayer"/><g class="shapelayer"/></g><g class="cartesianlayer"><g class="subplot xy"><g class="layer-subplot"><g class="shapelayer"/><g class="imagelayer"/></g><g class="minor-gridlayer"><g class="x"/><g class="y"/></g><g class="gridlayer"><g class="x"><path class="xgrid crisp" transform="translate(152.03,0)" d="M0,100v320" style="stroke: rgb(255, 255, 255); stroke-opacity: 1; stroke-width: 1px;"/><path class="xgrid crisp" transform="translate(278.07,0)" d="M0,100v320" style="stroke: rgb(255, 255, 255); stroke-opacity: 1; stroke-width: 1px;"/><path class="xgrid crisp" transform="translate(404.11,0)" d="M0,100v320" style="stroke: rgb(255, 255, 255); stroke-opacity: 1; stroke-width: 1px;"/><path class="xgrid crisp" transform="translate(530.1600000000001,0)" d="M0,100v320" style="stroke: rgb(255, 255, 255); stroke-opacity: 1; stroke-width: 1px;"/></g><g class="y"><path class="ygrid crisp" transform="translate(0,379.94)" d="M80,0h540" style="stroke: rgb(255, 255, 255); stroke-opacity: 1; stroke-width: 1px;"/><path class="ygrid crisp" transform="translate(0,336.53)" d="M80,0h540" style="stroke: rgb(255, 255, 255); stroke-opacity: 1; stroke-width: 1px;"/><path class="ygrid crisp" transform="translate(0,293.13)" d="M80,0h540" style="stroke: rgb(255, 255, 255); stroke-opacity: 1; stroke-width: 1px;"/><path class="ygrid crisp" transform="translate(0,206.32999999999998)" d="M80,0h540" style="stroke: rgb(255, 255, 255); stroke-opacity: 1; stroke-width: 1px;"/><path class="ygrid crisp" transform="translate(0,162.93)" d="M80,0h540" style="stroke: rgb(255, 255, 255); stroke-opacity: 1; stroke-width: 1px;"/><path class="ygrid crisp" transform="translate(0,119.53)" d="M80,0h540" style="stroke: rgb(255, 255, 255); stroke-opacity: 1; stroke-width: 1px;"/></g></g><g class="zerolinelayer"><path class="yzl zl crisp" transform="translate(0,249.73)" d="M80,0h540" style="stroke: rgb(255, 255, 255); stroke-opacity: 1; stroke-width: 2px;"/></g><path class="xlines-below"/><path class="ylines-below"/><g class="overlines-below"/><g class="xaxislayer-below"/><g class="yaxislayer-below"/><g class="overaxes-below"/><g class="plot" transform="translate(80,100)" clip-path="url(#clip053bf2xyplot)"><g class="scatterlayer mlayer"><g class="trace scatter trace7281a5" style="stroke-miterlimit: 2; opacity: 0.5;"><g class="fills"/><g class="errorbars"/><g class="lines"><path class="js-line" d="M0,149.72L14.44,149.77L14.63,149.71L17.07,149.74L17.26,149.73L23.45,149.69L23.63,149.65L36.01,149.72L36.2,149.74L42.76,149.7L42.95,149.93L43.89,149.42L44.08,149.84L44.27,149.7L45.39,149.76L45.58,149.85L46.89,149.74L47.08,149.66L51.77,149.73L51.96,149.74L55.33,149.71L55.52,149.74L67.52,149.82L67.71,148.13L68.46,149.79L68.65,149.74L73.34,149.75L73.53,149.73L79.72,149.74L79.9,149.89L80.84,149.73L81.03,149.76L82.9,149.74L83.09,114.24L83.84,16L84.03,16.75L84.22,29.38L85.9,149.84L86.28,149.79L86.47,149.77L100.16,149.75L100.35,103.13L100.53,44.74L100.91,149.81L101.1,149.82L105.41,149.68L105.6,149.76L107.29,149.75L107.47,149.75L109.91,149.71L110.1,149.8L111.6,149.72L111.79,149.72L114.6,149.65L114.79,149L115.73,149.85L115.92,149.71L118.17,149.79L118.35,149.73L120.6,149.81L120.79,160.22L120.98,249.49L121.54,225.21L121.73,221.38L122.1,223.77L123.61,202.91L123.79,195.95L123.98,196.49L124.17,192.09L124.36,194.98L124.54,193.89L124.73,189.09L125.48,192.8L125.67,189.39L126.79,183.76L126.98,186.24L127.17,188.06L127.54,186.73L127.73,184.34L128.11,184.37L128.29,181.82L128.67,182.22L128.86,184.59L129.23,181.01L129.61,181.44L129.8,181.86L130.17,183.95L130.36,182.44L130.55,181.35L130.92,181.75L131.11,189.3L131.3,190.87L131.48,189.65L131.67,204.72L133.17,254.32L133.36,250.81L134.48,224.27L134.67,229.12L134.86,227.03L136.73,275.11L136.92,273.85L137.11,276.42L137.49,275.13L137.67,269.53L138.42,239.86L138.61,241.29L138.8,237.46L139.92,224.05L140.11,225.09L140.3,222.92L141.8,200.27L141.99,199.99L143.3,189.55L143.49,193.68L144.43,186.81L144.61,187.62L145.18,184.25L145.36,185.82L145.55,187.24L146.3,182.51L146.68,182.57L146.86,185.17L147.43,181.96L147.8,182.15L147.99,182.62L148.18,183.62L148.36,180.79L148.55,181.24L148.74,182.2L148.93,181.84L149.11,188.67L150.05,205.7L150.24,220.01L150.99,229.16L151.37,228.8L151.55,239.27L152.68,273.05L152.87,282.88L153.24,290.15L153.43,288.44L153.62,277.29L154.18,274.11L154.37,283.55L157.18,232.91L157.37,234.39L160.56,195.32L160.74,198.66L161.68,189.07L161.87,191.95L162.06,194.22L162.24,189.09L162.43,188.43L162.62,189.94L162.99,189.52L163.18,186.61L163.37,184.25L163.56,186.33L163.74,189.88L164.87,182.29L165.06,182.72L165.24,185.52L165.62,182.08L165.81,181.58L166,181.72L166.18,183.48L166.93,187.35L167.12,194.81L168.06,237.25L168.25,234.85L168.43,240.45L169.56,273.68L169.75,254.86L169.93,244.58L170.31,252.74L170.5,257.74L170.68,262L170.87,256.06L171.06,252.07L171.25,250.68L171.43,251.56L171.62,261.29L172,295.08L172.56,281.79L172.75,294.54L172.94,295.35L173.12,282.01L173.31,284.69L173.5,284.22L173.69,245.49L174.62,149.42L174.81,149.9L175.56,149.88L175.75,179.67L176.87,223.42L177.06,217.86L177.25,218.94L177.44,218.79L177.62,208.49L178.75,196.21L178.94,197.14L180.06,189.93L180.25,194.46L181.19,186.3L181.38,190.82L181.75,182.92L181.94,185.58L182.13,189.15L182.69,185.49L182.88,186.28L183.06,187.52L183.63,182.56L183.81,183.68L184,185.95L184.19,185.27L184.38,181.08L186.25,149.62L186.44,149.69L227.52,149.73L227.7,150.54L228.45,149.66L228.64,149.77L228.83,149.64L231.08,149.73L231.27,149.7L233.71,149.74L233.89,149.7L236.33,149.74L236.52,149.73L237.65,149.76L237.83,156.56L238.77,185.86L238.96,183.38L240.27,239.52L240.46,237.56L240.65,240.41L241.58,253.86L241.77,255.02L241.96,259.69L242.33,251.81L242.52,246.85L242.71,238.41L242.9,250.33L243.08,262.22L243.46,255.18L243.65,262.24L243.83,263.37L244.58,274.85L244.77,271.54L244.96,270.24L246.09,254.76L246.27,256.14L246.46,256.95L246.65,255.83L246.84,251.65L247.02,249.98L247.21,240.18L247.77,214.6L248.34,215.4L248.52,215.92L249.84,200.19L250.02,196.57L250.4,218.46L250.96,216.3L251.15,216.24L252.09,186.28L252.28,188.09L252.46,190.14L252.65,187.79L252.84,183.47L253.21,188.96L253.59,184.67L253.78,182.31L254.15,186.79L254.34,182.28L254.53,181.87L254.9,180.07L255.09,181.69L255.28,183.47L256.03,180.43L256.21,181.01L256.4,184.11L256.78,181.13L256.96,183.66L257.15,188.28L257.53,191.3L257.71,199.32L258.09,223.95L258.46,201.29L258.65,211.21L259.97,246.33L260.15,236.66L260.9,254.13L261.09,243.27L261.28,238.23L261.47,242.25L261.65,250.45L262.03,242.29L262.22,253.62L262.4,264.13L263.72,280.9L263.9,271.36L266.34,216.1L266.53,213.62L266.72,215.84L266.91,213.24L267.09,206.68L268.41,196.41L268.59,193.95L269.16,190.7L269.34,193.24L270.66,184.44L270.84,184.58L271.03,186.9L271.22,187.38L271.41,183.29L271.78,185.22L271.97,184.76L272.16,182.27L272.34,181.52L272.72,182.91L272.91,184.17L273.28,179.36L273.66,179.98L273.85,183.97L274.03,183.54L274.22,180.06L275.16,186.59L275.35,193.71L276.66,269.41L276.85,261.64L277.41,251.67L277.6,260.8L277.78,264.1L278.72,245.97L279.1,247.39L279.28,250.69L279.85,270.48L280.03,283.1L280.6,304L280.97,299.23L281.16,301.45L284.54,216.88L284.72,222.69L284.91,224.22L285.1,210.66L286.79,187.63L286.97,190.88L287.35,184.23L287.72,190.18L287.91,189.21L288.48,183.64L288.66,187.18L288.85,184.97L289.04,183.03L289.23,185.27L289.41,184.81L289.6,187.19L290.35,182.77L290.54,185.42L290.91,181.35L291.29,184.74L291.48,184.66L292.04,179.49L292.23,185.15L292.41,185.8L292.6,180.96L293.54,195.9L293.73,225.53L294.66,258.28L294.85,256.79L295.04,251.71L295.23,264.38L295.42,276.32L295.79,285.22L295.98,278.38L296.17,266.7L296.54,257.6L296.73,242.87L297.29,216.33L297.67,220.79L297.85,228.12L298.79,241.68L298.98,240.81L299.17,242.97L299.35,235.42L299.54,241.71L299.73,252.04L300.1,219.43L300.48,232.37L300.67,233.65L301.04,238.61L301.42,236.9L301.6,236.45L301.98,233.11L302.17,216.01L303.11,198.47L303.29,200.92L303.48,203.8L304.79,184.29L304.98,184.09L305.17,186.09L305.36,185.01L305.54,181.12L305.73,178.26L305.92,180.97L306.11,184.62L306.86,179.15L307.04,179.89L307.23,183.21L307.42,183.49L307.61,180.5L307.79,179.02L307.98,181.75L308.36,179.85L308.54,181.12L308.92,181.39L309.67,178.31L309.86,180.83L310.98,178.6L311.17,181.78L312.11,189.35L312.3,190.35L312.48,190.89L312.67,202.04L312.86,202.62L313.05,198.41L313.98,260.11L314.36,240.93L314.55,235.13L315.11,210.11L315.48,219.26L315.67,220.26L315.86,220.74L316.05,219.77L316.23,224.97L316.42,222.65L316.61,225.96L316.8,225.73L316.99,228.75L317.17,229.47L317.36,220.81L317.74,230.46L317.92,224.82L318.11,216.68L318.3,216.49L318.49,214L318.86,218.53L319.24,214.96L319.42,216.37L319.8,215.55L319.99,210.71L320.74,199.96L320.92,204.95L321.11,204.32L322.42,189.65L322.61,188.71L322.99,189.37L323.17,189.72L323.36,185.26L323.92,185.96L324.11,186.3L324.49,188.59L324.68,186.07L325.99,179.08L326.18,178.06L326.93,180.24L327.11,178.06L327.3,179.29L327.86,178.93L328.05,177.92L328.43,178.83L328.61,177.57L328.8,177.6L329.36,182.79L329.55,184.28L330.11,187.49L330.3,201.34L330.49,217.88L330.86,196.35L331.05,198.2L331.43,198.76L331.62,202.28L332.18,199.89L332.55,206.7L332.74,207.89L333.87,222.58L334.05,224.43L334.24,220.45L334.43,222.61L334.62,229.88L335.18,231.39L335.37,227.44L335.55,234.06L335.74,237.2L335.93,228.62L336.12,217.86L336.49,229.09L337.05,226.24L337.24,222.24L337.62,222.61L340.06,195.96L340.24,195.91L341.37,189.75L341.56,188.98L341.74,188.18L341.93,188.81L342.12,189.96L342.68,184.99L342.87,187.71L343.06,190.88L344.37,179.01L344.56,178.97L345.12,178.34L345.31,179.11L346.06,178.26L346.25,178.98L346.43,179.05L346.62,178.04L347.37,183.57L347.56,193.66L348.5,248.14L348.68,242.49L348.87,236.67L350.75,256.66L350.93,249.89L351.31,244.3L351.5,246.05L351.68,261.45L352.81,276.4L353,277.03L353.19,278.46L353.37,268.77L354.31,247.35L354.69,249.52L354.87,247.56L355.06,247.26L355.25,240.94L356.19,224.86L356.37,225.89L357.12,215.86L357.31,210.12L357.5,210.54L357.69,208.94L358.81,193.27L359,193.47L359.56,190.27L359.75,191.43L359.94,192.27L360.5,189.63L360.69,187.66L361.06,183.07L361.25,185.3L361.44,190.07L362.19,181.56L362.38,184.35L362.56,183.67L363.5,180.99L363.69,181.24L364.06,183.38L364.25,181.2L364.44,179.96L365.19,188.53L365.38,203.68L367.25,280.4L367.44,282.87L367.82,265.6L368,216.1L368.57,149.66L368.94,149.79L369.13,149.63L371.19,149.8L371.38,149.64L372.32,149.93L372.5,149.77L374.76,149.77L374.94,149.74L377.19,149.73L377.38,177.39L377.94,193.57L378.32,192.22L378.51,188.08L378.88,192.47L379.07,187.83L379.26,188.68L379.44,187.55L379.63,183.67L380.01,188.52L380.19,184.49L380.38,187.66L381.32,183.38L381.51,184.39L381.88,185.69L382.07,183.45L382.26,185.64L382.45,182.55L382.63,177.75L382.82,177.91L383.01,173.09L383.38,189.48L383.57,187.76L383.76,179.69L383.95,176.32L384.13,158.15L385.07,149.3L385.26,149.56L386.57,150.01L386.76,149.57L387.32,149.67L387.51,150.02L388.45,149.71L388.63,149.47L389.57,149.61L389.76,150.07L391.26,149.56L391.45,149.66L392.76,149.86L392.95,149.64L394.07,149.73L394.26,149.75L394.64,149.82L394.82,167.05L395.2,197.53L395.57,193.72L395.76,193.4L397.26,190.08L397.45,189.1L397.83,185.95L398.2,187.3L398.39,189.55L398.58,189.43L398.76,186L398.95,185.44L399.14,186.91L399.33,187.55L399.51,182.51L400.08,184.28L400.26,182.64L402.14,149.73L402.33,149.58L403.27,149.69L403.45,149.65L404.58,149.7L404.77,149.73L406.83,149.73L407.02,149.61L408.7,149.83L408.89,149.86L417.9,149.73L418.08,172.51L418.27,182.21L418.65,174.09L418.83,171.62L420.15,149.71L420.33,149.65L421.46,149.64L421.65,149.74L422.96,149.66L423.15,149.85L424.27,149.72L424.46,149.74L437.03,149.68L437.21,149.84L438.9,149.65L439.09,149.74L440.03,149.76L440.22,149.75L444.53,149.78L444.72,149.82L452.03,149.66L452.22,149.79L454.28,149.71L454.47,149.74L457.66,149.71L457.85,149.83L459.91,149.78L460.1,149.76L461.41,149.71L461.6,149.75L465.91,149.68L466.1,149.79L467.6,149.7L467.79,149.7L470.04,149.72L470.23,149.71L472.29,149.71L472.48,149.71L478.48,149.81L478.67,149.57L479.6,149.73L479.79,149.67L481.67,149.8L481.85,149.95L483.17,149.66L483.36,149.78L484.67,149.76L484.86,149.72L491.05,149.67L491.23,149.76L491.42,152.3L491.61,178.31L492.36,149.58L492.73,149.82L492.92,149.53L493.86,149.74L494.05,149.79L495.36,149.74L495.55,149.89L496.48,149.77L496.67,149.84L498.36,149.78L498.55,149.81L499.49,149.91L499.67,149.83L505.11,149.75L505.3,178.15L506.24,192.27L506.43,188.1L506.8,190.21L506.99,187.02L507.18,189.02L507.55,185.05L507.74,185.02L508.11,187L508.3,183.14L510.36,149.61L510.55,149.73L510.74,149.73L512.05,149.57L512.24,149.86L513.37,149.78L513.55,149.79L514.87,149.64L515.05,149.85L516.18,149.68L516.37,149.85L518.05,149.8L518.24,149.84L520.68,149.68L520.87,149.75L525.37,149.7L525.56,149.75L525.75,149.72L525.93,171.6L526.12,185.34L526.68,179.19L526.87,175.62L528.18,149.6L528.37,149.77L529.31,149.69L529.5,149.78L531.93,149.65L532.12,149.74L535.12,149.88L535.31,149.75L537.94,149.76L538.12,149.7L540,149.72" style="vector-effect: non-scaling-stroke; fill: none; stroke: rgb(0, 191, 255); stroke-opacity: 1; stroke-width: 2px; opacity: 1;"/></g><g class="points"/><g class="text"/></g></g></g><g class="overplot"/><path class="xlines-above crisp" d="M0,0" style="fill: none;"/><path class="ylines-above crisp" d="M0,0" style="fill: none;"/><g class="overlines-above"/><g class="xaxislayer-above"><g class="xtick"><text text-anchor="middle" x="0" y="433" transform="translate(152.03,0)" style="font-family: 'Open Sans', verdana, arial, sans-serif; font-size: 12px; fill: rgb(42, 63, 95); fill-opacity: 1; white-space: pre; opacity: 1;"><tspan class="line" dy="0em" x="0" y="433">Jun 5</tspan><tspan class="line" dy="1.3em" x="0" y="433">2022</tspan></text></g><g class="xtick"><text text-anchor="middle" x="0" y="433" style="font-family: 'Open Sans', verdana, arial, sans-serif; font-size: 12px; fill: rgb(42, 63, 95); fill-opacity: 1; white-space: pre; opacity: 1;" transform="translate(278.07,0)">Jun 12</text></g><g class="xtick"><text text-anchor="middle" x="0" y="433" style="font-family: 'Open Sans', verdana, arial, sans-serif; font-size: 12px; fill: rgb(42, 63, 95); fill-opacity: 1; white-space: pre; opacity: 1;" transform="translate(404.11,0)">Jun 19</text></g><g class="xtick"><text text-anchor="middle" x="0" y="433" style="font-family: 'Open Sans', verdana, arial, sans-serif; font-size: 12px; fill: rgb(42, 63, 95); fill-opacity: 1; white-space: pre; opacity: 1;" transform="translate(530.1600000000001,0)">Jun 26</text></g></g><g class="yaxislayer-above"><g class="ytick"><text text-anchor="end" x="79" y="4.199999999999999" transform="translate(0,379.94)" style="font-family: 'Open Sans', verdana, arial, sans-serif; font-size: 12px; fill: rgb(42, 63, 95); fill-opacity: 1; white-space: pre; opacity: 1;">−60k</text></g><g class="ytick"><text text-anchor="end" x="79" y="4.199999999999999" style="font-family: 'Open Sans', verdana, arial, sans-serif; font-size: 12px; fill: rgb(42, 63, 95); fill-opacity: 1; white-space: pre; opacity: 1;" transform="translate(0,336.53)">−40k</text></g><g class="ytick"><text text-anchor="end" x="79" y="4.199999999999999" style="font-family: 'Open Sans', verdana, arial, sans-serif; font-size: 12px; fill: rgb(42, 63, 95); fill-opacity: 1; white-space: pre; opacity: 1;" transform="translate(0,293.13)">−20k</text></g><g class="ytick"><text text-anchor="end" x="79" y="4.199999999999999" style="font-family: 'Open Sans', verdana, arial, sans-serif; font-size: 12px; fill: rgb(42, 63, 95); fill-opacity: 1; white-space: pre; opacity: 1;" transform="translate(0,249.73)">0</text></g><g class="ytick"><text text-anchor="end" x="79" y="4.199999999999999" style="font-family: 'Open Sans', verdana, arial, sans-serif; font-size: 12px; fill: rgb(42, 63, 95); fill-opacity: 1; white-space: pre; opacity: 1;" transform="translate(0,206.32999999999998)">20k</text></g><g class="ytick"><text text-anchor="end" x="79" y="4.199999999999999" style="font-family: 'Open Sans', verdana, arial, sans-serif; font-size: 12px; fill: rgb(42, 63, 95); fill-opacity: 1; white-space: pre; opacity: 1;" transform="translate(0,162.93)">40k</text></g><g class="ytick"><text text-anchor="end" x="79" y="4.199999999999999" style="font-family: 'Open Sans', verdana, arial, sans-serif; font-size: 12px; fill: rgb(42, 63, 95); fill-opacity: 1; white-space: pre; opacity: 1;" transform="translate(0,119.53)">60k</text></g></g><g class="overaxes-above"/></g></g><g class="polarlayer"/><g class="smithlayer"/><g class="ternarylayer"/><g class="geolayer"/><g class="funnelarealayer"/><g class="pielayer"/><g class="iciclelayer"/><g class="treemaplayer"/><g class="sunburstlayer"/><g class="glimages"/><defs id="topdefs-053bf2"><g class="clips"/></defs><g class="layer-above"><g class="imagelayer"/><g class="shapelayer"/></g><g class="infolayer"><g class="g-gtitle"><text class="gtitle" x="350" y="50" text-anchor="middle" dy="0em" style="font-family: 'Open Sans', verdana, arial, sans-serif; font-size: 17px; fill: rgb(42, 63, 95); opacity: 1; font-weight: normal; white-space: pre;"><tspan class="line" dy="0em" x="350" y="50">Scenario 7</tspan><tspan class="line" dy="1.3em" x="350" y="50">Microgrid Output</tspan><tspan class="line" dy="2.6em" x="350" y="50">From: June 01, 2022 to June 30, 2022</tspan></text></g><g class="g-xtitle"><text class="xtitle" x="350" y="476.409375" text-anchor="middle" style="font-family: 'Open Sans', verdana, arial, sans-serif; font-size: 14px; fill: rgb(42, 63, 95); opacity: 1; font-weight: normal; white-space: pre;">Time</text></g><g class="g-ytitle"><text class="ytitle" transform="rotate(-90,27.840625000000003,260)" x="27.840625000000003" y="260" text-anchor="middle" style="font-family: 'Open Sans', verdana, arial, sans-serif; font-size: 14px; fill: rgb(42, 63, 95); opacity: 1; font-weight: normal; white-space: pre;">Demand (kW)</text></g></g></svg>