<svg class="main-svg" xmlns="http://www.w3.org/2000/svg" xmlns:xlink="http://www.w3.org/1999/xlink" width="700" height="500" style="" viewBox="0 0 700 500"><rect x="0" y="0" width="700" height="500" style="fill: rgb(255, 255, 255); fill-opacity: 1;"/><defs id="defs-d83be5"><g class="clips"><clipPath id="clipd83be5xyplot" class="plotclip"><rect width="540" height="320"/></clipPath><clipPath class="axesclip" id="clipd83be5x"><rect x="80" y="0" width="540" height="500"/></clipPath><clipPath class="axesclip" id="clipd83be5y"><rect x="0" y="100" width="700" height="320"/></clipPath><clipPath class="axesclip" id="clipd83be5xy"><rect x="80" y="100" width="540" height="320"/></clipPath></g><g class="gradients"/><g class="patterns"/></defs><g class="bglayer"/><g class="layer-below"><g class="imagelayer"/><g class="shapelayer"/></g><g class="cartesianlayer"><g class="subplot xy"><g class="layer-subplot"><g class="shapelayer"/><g class="imagelayer"/></g><g class="minor-gridlayer"><g class="x"/><g class="y"/></g><g class="gridlayer"><g class="x"><path class="xgrid crisp" transform="translate(152.03,0)" d="M0,100v320" style="stroke: rgb(255, 255, 255); stroke-opacity: 1; stroke-width: 1px;"/><path class="xgrid crisp" transform="translate(278.07,0)" d="M0,100v320" style="stroke: rgb(255, 255, 255); stroke-opacity: 1; stroke-width: 1px;"/><path class="xgrid crisp" transform="translate(404.11,0)" d="M0,100v320" style="stroke: rgb(255, 255, 255); stroke-opacity: 1; stroke-width: 1px;"/><path class="xgrid crisp" transform="translate(530.1600000000001,0)" d="M0,100v320" style="stroke: rgb(255, 255, 255); stroke-opacity: 1; stroke-width: 1px;"/></g><g class="y"><path class="ygrid crisp" transform="translate(0,380.22)" d="M80,0h540" style="stroke: rgb(255, 255, 255); stroke-opacity: 1; stroke-width: 1px;"/><path class="ygrid crisp" transform="translate(0,337.32)" d="M80,0h540" style="stroke: rgb(255, 255, 255); stroke-opacity: 1; stroke-width: 1px;"/><path class="ygrid crisp" transform="translate(0,294.43)" d="M80,0h540" style="stroke: rgb(255, 255, 255); stroke-opacity: 1; stroke-width: 1px;"/><path class="ygrid crisp" transform="translate(0,208.64)" d="M80,0h540" style="stroke: rgb(255, 255, 255); stroke-opacity: 1; stroke-width: 1px;"/><path class="ygrid crisp" transform="translate(0,165.75)" d="M80,0h540" style="stroke: rgb(255, 255, 255); stroke-opacity: 1; stroke-width: 1px;"/><path class="ygrid crisp" transform="translate(0,122.85)" d="M80,0h540" style="stroke: rgb(255, 255, 255); stroke-opacity: 1; stroke-width: 1px;"/></g></g><g class="zerolinelayer"><path class="yzl zl crisp" transform="translate(0,251.54)" d="M80,0h540" style="stroke: rgb(255, 255, 255); stroke-opacity: 1; stroke-width: 2px;"/></g><path class="xlines-below"/><path class="ylines-below"/><g class="overlines-below"/><g class="xaxislayer-below"/><g class="yaxislayer-below"/><g class="overaxes-below"/><g class="plot" transform="translate(80,100)" clip-path="url(#clipd83be5xyplot)"><g class="scatterlayer mlayer"><g class="trace scatter trace05150c" style="stroke-miterlimit: 2; opacity: 0.5;"><g class="fills"/><g class="errorbars"/><g class="lines"><path class="js-line" d="M0,151.53L11.07,151.45L11.25,112.58L11.82,37.02L12.19,48.12L12.38,60.33L13.88,151.71L14.25,151.61L14.44,151.57L17.44,151.55L17.63,151.52L29.26,151.6L29.45,74.65L29.82,41.04L30.01,53.3L30.2,75.65L30.57,69.17L30.76,78.77L31.7,151.68L32.07,151.61L32.26,151.54L38.83,151.53L39.01,151.55L48.02,151.55L48.2,88.14L48.39,43.56L48.77,99.16L48.95,97.48L50.08,151.76L50.27,151.51L52.52,151.56L52.71,151.49L55.52,151.54L55.71,151.54L61.9,151.55L62.08,151.59L63.02,151.55L63.21,151.51L64.52,151.51L64.71,140.01L65.09,16L65.46,19.02L65.65,20L66.02,21.6L66.21,40.9L67.52,133.37L67.71,146.91L67.9,151.64L68.46,151.59L68.65,151.54L75.59,151.54L75.78,151.56L78.21,151.49L78.4,151.54L82.9,151.54L83.09,116.46L83.84,19.37L84.03,20.11L84.22,32.59L85.9,151.64L86.28,151.59L86.47,151.58L97.72,151.44L97.91,151.65L98.85,151.6L99.03,151.53L100.16,151.56L100.35,105.47L100.53,47.77L100.91,151.61L101.1,151.62L105.41,151.49L105.6,151.56L106.72,151.54L106.91,156.56L107.47,192.77L107.66,190.63L107.85,188.89L108.04,192L108.23,189.74L108.41,185.41L108.79,190.85L108.98,187.64L109.16,184.49L109.54,187.35L109.73,186.18L109.91,182.1L110.29,187.11L110.66,183.99L110.85,181.55L111.6,184.78L111.79,182.74L112.16,181.06L112.35,184.51L112.54,184.62L112.73,180.83L112.91,181.37L113.1,185.74L114.04,241.01L114.41,240.06L114.6,236.23L114.98,151.42L115.54,151.53L115.73,151.65L117.04,151.55L117.23,151.56L117.79,152.07L117.98,152.3L118.73,151.4L118.92,151.57L119.1,151.51L119.29,151.44L119.48,240.92L119.67,248.77L120.04,236.96L120.23,234.65L120.42,229.45L120.6,237.07L120.79,247.55L120.98,250.13L121.17,242.15L121.92,220.22L122.1,224.71L122.29,218.23L122.86,210.6L123.04,214.14L123.23,213.7L124.73,190.43L124.92,192.74L125.48,194.1L126.04,188.95L126.23,189.1L126.42,189.71L126.61,187.78L126.79,185.17L127.17,189.41L127.36,187.63L127.54,188.1L128.29,183.25L128.48,183.5L128.67,183.64L128.86,185.98L129.23,182.45L129.42,183.8L129.61,182.87L130.17,185.35L130.36,183.86L130.55,182.79L130.92,183.18L131.11,190.64L131.3,192.19L131.48,190.99L131.67,205.88L133.17,254.9L133.36,251.43L134.48,225.2L134.67,229.99L134.86,227.93L136.73,275.44L136.92,274.2L137.11,276.74L137.49,275.47L137.67,269.93L138.42,240.61L138.61,242.02L138.8,238.24L139.92,224.98L140.11,226.01L140.3,223.87L141.8,201.48L141.99,201.2L143.3,190.88L143.49,194.97L144.43,188.18L144.61,188.98L145.18,185.65L145.36,187.21L145.55,188.6L146.3,183.93L146.68,183.99L146.86,186.56L147.43,183.38L147.8,183.57L147.99,184.04L148.18,185.02L148.36,182.23L148.55,182.67L148.74,183.63L148.93,183.27L149.11,190.02L150.05,206.85L150.24,221L150.99,230.03L151.37,229.67L151.55,240.03L152.68,273.41L152.87,283.13L153.24,290.31L153.43,288.63L153.62,277.61L154.18,274.46L154.37,283.79L157.18,233.74L157.37,235.2L160.56,196.59L160.74,199.89L161.68,190.42L161.87,193.26L162.06,195.5L162.24,190.43L162.43,189.78L162.62,191.27L162.99,190.85L163.18,187.99L163.37,185.65L163.56,187.71L163.74,191.22L164.87,183.72L165.06,184.13L165.24,186.9L165.62,183.51L165.81,183.02L166,183.14L166.18,184.89L166.93,188.72L167.12,196.09L168.06,238.03L168.25,235.66L168.43,241.19L169.56,274.03L169.75,255.43L169.93,245.27L170.31,253.33L170.5,258.28L170.68,262.49L170.87,256.62L171.06,252.67L171.25,251.31L171.43,252.18L171.62,261.79L172,295.18L172.56,282.05L172.75,294.65L172.94,295.45L173.12,282.26L173.31,284.92L173.5,284.45L173.69,246.18L174.62,151.23L174.81,151.7L175.56,151.68L175.75,181.12L176.87,224.36L177.06,218.87L177.25,219.94L177.44,219.78L177.62,209.61L178.75,197.47L178.94,198.39L180.06,191.26L180.25,195.74L181.19,187.68L181.38,192.14L181.75,184.33L181.94,186.96L182.13,190.5L182.69,186.88L182.88,187.66L183.06,188.88L183.63,183.98L183.81,185.09L184,187.33L184.19,186.66L184.38,182.51L186.25,151.42L186.44,151.49L200.51,151.54L200.69,151.52L209.14,151.44L209.32,118.27L209.89,27.87L210.07,30.72L210.26,50.12L211.95,151.62L212.32,151.6L212.51,151.53L214.01,151.53L214.2,151.57L216.64,151.54L216.83,151.53L219.45,151.55L219.64,151.53L227.52,151.54L227.7,152.33L228.83,151.44L229.02,151.51L233.33,151.53L233.52,151.53L234.27,151.52L234.46,178.93L234.64,189.53L235.21,187.89L235.39,186.67L235.58,187.62L235.77,186.44L235.96,187.16L236.14,184.68L236.33,182.48L236.71,185.55L236.89,187.02L237.27,183.55L237.65,185.78L237.83,186.45L238.4,183.25L238.58,185.13L238.77,187.25L238.96,184.79L239.15,194.04L240.27,240.28L240.46,238.34L241.96,260.21L242.15,257.2L242.71,239.18L242.9,250.96L243.08,262.71L243.46,255.75L243.65,262.73L243.83,263.85L244.58,275.19L244.77,271.92L244.96,270.63L246.09,255.33L246.27,256.7L246.46,257.5L246.65,256.39L246.84,252.26L247.02,250.61L247.21,240.92L247.77,215.65L248.34,216.44L248.52,216.95L249.84,201.41L250.02,197.83L250.4,219.46L250.96,217.33L251.15,217.26L252.09,187.66L252.28,189.44L252.46,191.47L252.65,189.15L252.84,184.88L253.21,190.3L253.59,186.06L253.78,183.73L254.15,188.16L254.34,183.7L254.53,183.3L254.9,181.52L255.09,183.12L255.28,184.88L256.03,181.88L256.21,182.45L256.4,185.51L256.78,182.56L256.96,185.07L257.15,189.63L257.53,192.62L257.71,200.54L258.09,224.88L258.46,202.49L258.65,212.29L259.97,247.01L260.15,237.45L260.9,254.71L261.09,243.98L261.28,239L261.47,242.97L261.65,251.07L262.03,243.01L262.22,254.21L262.4,264.6L263.72,281.17L263.9,271.74L266.34,217.13L266.53,214.68L266.72,216.87L266.91,214.3L267.09,207.82L268.41,197.67L268.59,195.24L269.16,192.02L269.34,194.54L270.66,185.84L270.84,185.98L271.03,188.27L271.22,188.75L271.41,184.71L271.78,186.61L271.97,186.16L272.16,183.7L272.34,182.96L272.72,184.32L272.91,185.58L273.28,180.82L273.66,181.43L273.85,185.38L274.03,184.95L274.22,181.51L275.16,187.96L275.35,195L276.66,269.81L276.85,262.14L277.41,252.28L277.6,261.3L277.78,264.57L278.72,246.65L279.1,248.05L279.28,251.31L279.85,270.87L280.03,283.34L280.6,304L280.97,299.28L281.16,301.48L284.54,217.89L284.72,223.64L284.91,225.16L285.1,211.75L286.79,188.99L286.97,192.2L287.35,185.63L287.72,191.51L287.91,190.55L288.48,185.05L288.66,188.55L288.85,186.36L289.04,184.44L289.23,186.66L289.41,186.2L289.6,188.56L290.35,184.18L290.54,186.81L290.91,182.78L291.29,186.13L291.48,186.06L292.04,180.94L292.23,186.54L292.41,187.18L292.6,182.4L293.54,197.16L293.73,226.44L294.66,258.81L294.85,257.35L295.04,252.32L295.23,264.84L295.42,276.65L295.79,285.44L295.98,278.68L296.17,267.14L296.54,258.14L296.73,243.58L297.29,217.36L297.67,221.76L297.85,229L298.79,242.41L298.98,241.55L299.17,243.68L299.35,236.22L299.54,242.44L299.73,252.65L300.1,220.42L300.48,233.21L300.67,234.47L301.04,239.38L301.42,237.69L301.6,237.24L301.98,233.94L302.17,217.04L303.11,199.71L303.29,202.13L303.48,204.97L304.79,185.69L304.98,185.49L305.17,187.47L305.36,186.41L305.54,182.56L305.73,179.73L305.92,182.41L306.11,186.02L306.86,180.61L307.04,181.34L307.23,184.62L307.42,184.9L307.61,181.95L307.79,180.48L307.98,183.18L308.36,181.3L308.54,182.56L308.92,182.82L309.67,179.78L309.86,182.27L310.98,180.07L311.17,183.21L312.11,190.69L312.3,191.68L312.48,192.21L312.67,203.23L312.86,203.81L313.05,199.65L313.98,260.63L314.36,241.67L314.55,235.94L315.11,211.21L315.48,220.25L315.67,221.24L315.86,221.71L316.05,220.76L316.23,225.89L316.42,223.6L316.61,226.87L316.8,226.65L316.99,229.63L317.17,230.34L317.36,221.78L317.74,231.32L317.92,225.74L318.11,217.7L318.3,217.52L318.49,215.05L318.86,219.53L319.24,216L319.42,217.39L319.8,216.59L319.99,211.8L320.74,201.18L320.92,206.11L321.11,205.48L322.42,190.98L322.61,190.06L322.99,190.71L323.17,191.06L323.36,186.65L323.92,187.34L324.11,187.68L324.49,189.94L324.68,187.45L325.99,180.54L326.18,179.53L326.93,181.69L327.11,179.53L327.3,180.74L327.86,180.39L328.05,179.39L328.43,180.3L328.61,179.05L328.8,179.08L329.18,183.03L329.36,184.21L330.11,188.86L330.3,202.54L330.49,218.89L330.86,197.61L331.05,199.44L331.43,199.99L331.62,203.47L332.18,201.11L332.55,207.84L332.74,209.02L333.87,223.54L334.05,225.36L334.24,221.43L334.43,223.56L334.62,230.75L335.18,232.24L335.37,228.34L335.55,234.88L335.74,237.98L335.93,229.5L336.12,218.87L336.49,229.96L337.05,227.15L337.24,223.19L337.62,223.56L340.06,197.22L340.24,197.18L341.37,191.08L341.56,190.32L341.74,189.54L341.93,190.16L342.12,191.29L342.68,186.38L342.87,189.07L343.06,192.21L344.37,180.48L344.56,180.43L345.12,179.81L345.31,180.57L346.06,179.73L346.25,180.45L346.43,180.51L346.62,179.51L347.37,184.98L347.56,194.95L348.5,248.79L348.68,243.21L348.87,237.46L350.75,257.21L350.93,250.52L351.31,245L351.5,246.72L351.68,261.94L352.81,276.72L353,277.34L353.19,278.76L353.37,269.18L354.31,248.01L354.69,250.16L354.87,248.22L355.06,247.92L355.25,241.67L356.19,225.79L356.37,226.8L357.12,216.89L357.31,211.22L357.5,211.63L357.69,210.05L358.81,194.57L359,194.76L359.56,191.6L359.75,192.75L359.94,193.58L360.5,190.97L360.69,189.02L361.06,184.48L361.25,186.69L361.44,191.4L362.19,182.99L362.38,185.75L362.56,185.08L363.5,182.43L363.69,182.68L364.06,184.79L364.25,182.63L364.44,181.41L365.19,189.88L365.38,204.85L367.25,280.68L367.44,283.12L367.82,266.05L368,217.13L368.57,151.46L368.94,151.59L369.13,151.44L370.82,151.58L371,151.43L372.32,151.73L372.5,151.57L374.38,151.65L374.57,151.48L376.26,151.55L376.44,151.52L377.19,151.53L377.38,178.87L377.94,194.86L378.32,193.53L378.51,189.44L378.88,193.78L379.07,189.19L379.26,190.03L379.44,188.91L379.63,185.07L380.01,189.87L380.19,185.89L380.38,189.02L381.32,184.79L381.51,185.79L381.88,187.07L382.07,184.85L382.26,187.02L382.45,183.97L382.63,179.22L382.82,179.39L383.01,174.62L383.38,190.82L383.57,189.12L383.76,181.14L383.95,177.82L384.13,159.86L385.07,151.1L385.26,151.37L386.57,151.81L386.76,151.38L387.32,151.48L387.51,151.82L388.45,151.52L388.63,151.27L389.57,151.42L389.76,151.87L391.45,151.46L391.64,151.62L394.64,151.63L394.82,168.65L395.2,198.77L395.57,195.01L395.76,194.69L397.26,191.41L397.45,190.44L397.83,187.33L398.2,188.66L398.39,190.88L398.58,190.77L398.76,187.38L398.95,186.83L399.14,188.28L399.33,188.91L399.51,183.93L400.08,185.68L400.26,184.06L402.14,151.53L402.33,151.38L403.27,151.5L403.45,151.45L404.58,151.5L404.77,151.54L407.39,151.63L407.58,151.43L408.7,151.63L408.89,151.66L417.9,151.53L418.08,174.05L418.27,183.64L418.65,175.61L418.83,173.16L420.15,151.51L420.33,151.45L421.46,151.45L421.65,151.54L422.96,151.46L423.15,151.65L424.27,151.53L424.46,151.55L437.03,151.49L437.21,151.64L439.28,151.37L439.47,151.63L440.97,151.5L441.15,151.65L444.34,151.56L444.53,88.86L444.72,69.42L445.09,95.22L445.28,111.55L446.22,151.63L446.41,151.58L446.59,151.61L453.72,151.51L453.91,151.56L457.1,151.42L457.28,151.5L461.22,151.58L461.41,108.99L462.16,43.74L462.35,52.38L462.54,66.91L464.04,151.63L464.41,151.56L464.6,151.65L465.91,151.48L466.1,151.59L467.6,151.51L467.79,151.5L470.04,151.52L470.23,151.51L472.29,151.51L472.48,151.51L478.48,151.61L478.67,151.37L479.6,151.53L479.79,151.48L481.67,151.61L481.85,151.75L483.17,151.46L483.36,151.58L484.86,151.52L485.04,151.5L486.73,151.54L486.92,151.49L487.11,151.56L487.29,165.78L487.67,193.76L488.23,193.26L488.42,191.61L488.79,189.76L489.17,193.36L489.36,189.4L489.54,188.95L489.73,189.1L489.92,185.89L490.48,186.9L491.23,174.39L491.42,184.89L492.36,151.39L492.73,151.62L492.92,151.33L493.86,151.55L494.05,151.59L495.36,151.54L495.55,151.69L496.48,151.57L496.67,151.64L498.36,151.59L498.55,151.61L499.49,151.71L499.67,151.63L505.11,151.55L505.3,179.62L506.24,193.58L506.43,189.45L506.8,191.54L506.99,188.38L507.18,190.37L507.55,186.44L507.74,186.41L508.11,188.37L508.3,184.55L510.36,151.41L510.55,151.53L510.74,151.53L512.05,151.38L512.24,151.66L513.37,151.59L513.55,151.59L514.87,151.44L515.05,151.65L516.18,151.48L516.37,151.65L518.05,151.6L518.24,151.64L520.68,151.48L520.87,151.55L525.75,151.53L525.93,173.15L526.12,186.72L526.68,180.65L526.87,177.12L528.18,151.41L528.37,151.57L529.31,151.5L529.5,151.58L531.93,151.45L532.12,151.55L535.12,151.68L535.31,151.56L537.94,151.57L538.12,151.51L540,151.52" style="vector-effect: non-scaling-stroke; fill: none; stroke: rgb(0, 191, 255); stroke-opacity: 1; stroke-width: 2px; opacity: 1;"/></g><g class="points"/><g class="text"/></g></g></g><g class="overplot"/><path class="xlines-above crisp" d="M0,0" style="fill: none;"/><path class="ylines-above crisp" d="M0,0" style="fill: none;"/><g class="overlines-above"/><g class="xaxislayer-above"><g class="xtick"><text text-anchor="middle" x="0" y="433" transform="translate(152.03,0)" style="font-family: sans-serif; font-size: 12px; fill: rgb(42, 63, 95); fill-opacity: 1; white-space: pre; opacity: 1;"><tspan class="line" dy="0em" x="0" y="433">Jun 5</tspan><tspan class="line" dy="1.3em" x="0" y="433">2022</tspan></text></g><g class="xtick"><text text-anchor="middle" x="0" y="433" style="font-family: sans-serif; font-size: 12px; fill: rgb(42, 63, 95); fill-opacity: 1; white-space: pre; opacity: 1;" transform="translate(278.07,0)">Jun 12</text></g><g class="xtick"><text text-anchor="middle" x="0" y="433" style="font-family: sans-serif; font-size: 12px; fill: rgb(42, 63, 95); fill-opacity: 1; white-space: pre; opacity: 1;" transform="translate(404.11,0)">Jun 19</text></g><g class="xtick"><text text-anchor="middle" x="0" y="433" style="font-family: sans-serif; font-size: 12px; fill: rgb(42, 63, 95); fill-opacity: 1; white-space: pre; opacity: 1;" transform="translate(530.1600000000001,0)">Jun 26</text></g></g><g class="yaxislayer-above"><g class="ytick"><text text-anchor="end" x="79" y="4.199999999999999" transform="translate(0,380.22)" style="font-family: sans-serif; font-size: 12px; fill: rgb(42, 63, 95); fill-opacity: 1; white-space: pre; opacity: 1;">−60k</text></g><g class="ytick"><text text-anchor="end" x="79" y="4.199999999999999" style="font-family: sans-serif; font-size: 12px; fill: rgb(42, 63, 95); fill-opacity: 1; white-space: pre; opacity: 1;" transform="translate(0,337.32)">−40k</text></g><g class="ytick"><text text-anchor="end" x="79" y="4.199999999999999" style="font-family: sans-serif; font-size: 12px; fill: rgb(42, 63, 95); fill-opacity: 1; white-space: pre; opacity: 1;" transform="translate(0,294.43)">−20k</text></g><g class="ytick"><text text-anchor="end" x="79" y="4.199999999999999" style="font-family: sans-serif; font-size: 12px; fill: rgb(42, 63, 95); fill-opacity: 1; white-space: pre; opacity: 1;" transform="translate(0,251.54)">0</text></g><g class="ytick"><text text-anchor="end" x="79" y="4.199999999999999" style="font-family: sans-serif; font-size: 12px; fill: rgb(42, 63, 95); fill-opacity: 1; white-space: pre; opacity: 1;" transform="translate(0,208.64)">20k</text></g><g class="ytick"><text text-anchor="end" x="79" y="4.199999999999999" style="font-family: sans-serif; font-size: 12px; fill: rgb(42, 63, 95); fill-opacity: 1; white-space: pre; opacity: 1;" transform="translate(0,165.75)">40k</text></g><g class="ytick"><text text-anchor="end" x="79" y="4.199999999999999" style="font-family: sans-serif; font-size: 12px; fill: rgb(42, 63, 95); fill-opacity: 1; white-space: pre; opacity: 1;" transform="translate(0,122.85)">60k</text></g></g><g class="overaxes-above"/></g></g><g class="polarlayer"/><g class="smithlayer"/><g class="ternarylayer"/><g class="geolayer"/><g class="funnelarealayer"/><g class="pielayer"/><g class="iciclelayer"/><g class="treemaplayer"/><g class="sunburstlayer"/><g class="glimages"/><defs id="topdefs-d83be5"><g class="clips"/></defs><g class="layer-above"><g class="imagelayer"/><g class="shapelayer"/></g><g class="infolayer"><g class="g-gtitle"><text class="gtitle" x="350" y="50" text-anchor="middle" dy="0em" style="font-family: sans-serif; font-size: 17px; fill: rgb(42, 63, 95); opacity: 1; font-weight: normal; white-space: pre;"><tspan class="line" dy="0em" x="350" y="50"><tspan style="font-weight:bold">Scenario 5</tspan></tspan><tspan class="line" dy="1.3em" x="350" y="50"><tspan style="font-weight:bold">Microgrid Output</tspan></tspan><tspan class="line" dy="2.6em" x="350" y="50"><tspan style="font-weight:bold">From: June 01, 2022 to June 30, 2022</tspan></tspan></text></g><g class="g-xtitle"><text class="xtitle" x="350" y="476.409375" text-anchor="middle" style="font-family: sans-serif; font-size: 14px; fill: rgb(42, 63, 95); opacity: 1; font-weight: normal; white-space: pre;"><tspan style="font-weight:bold">Time</tspan></text></g><g class="g-ytitle"><text class="ytitle" transform="rotate(-90,27.840625000000003,260)" x="27.840625000000003" y="260" text-anchor="middle" style="font-family: sans-serif; font-size: 14px; fill: rgb(42, 63, 95); opacity: 1; font-weight: normal; white-space: pre;"><tspan style="font-weight:bold">Demand (kW)</tspan></text></g></g></svg>