<svg class="main-svg" xmlns="http://www.w3.org/2000/svg" xmlns:xlink="http://www.w3.org/1999/xlink" width="700" height="500" style="" viewBox="0 0 700 500"><rect x="0" y="0" width="700" height="500" style="fill: rgb(255, 255, 255); fill-opacity: 1;"/><defs id="defs-c5be1e"><g class="clips"><clipPath id="clipc5be1exyplot" class="plotclip"><rect width="540" height="320"/></clipPath><clipPath class="axesclip" id="clipc5be1ex"><rect x="80" y="0" width="540" height="500"/></clipPath><clipPath class="axesclip" id="clipc5be1ey"><rect x="0" y="100" width="700" height="320"/></clipPath><clipPath class="axesclip" id="clipc5be1exy"><rect x="80" y="100" width="540" height="320"/></clipPath></g><g class="gradients"/><g class="patterns"/></defs><g class="bglayer"/><g class="layer-below"><g class="imagelayer"/><g class="shapelayer"/></g><g class="cartesianlayer"><g class="subplot xy"><g class="layer-subplot"><g class="shapelayer"/><g class="imagelayer"/></g><g class="minor-gridlayer"><g class="x"/><g class="y"/></g><g class="gridlayer"><g class="x"><path class="xgrid crisp" transform="translate(114.85,0)" d="M0,100v320" style="stroke: rgb(255, 255, 255); stroke-opacity: 1; stroke-width: 1px;"/><path class="xgrid crisp" transform="translate(236.83,0)" d="M0,100v320" style="stroke: rgb(255, 255, 255); stroke-opacity: 1; stroke-width: 1px;"/><path class="xgrid crisp" transform="translate(358.8,0)" d="M0,100v320" style="stroke: rgb(255, 255, 255); stroke-opacity: 1; stroke-width: 1px;"/><path class="xgrid crisp" transform="translate(480.78,0)" d="M0,100v320" style="stroke: rgb(255, 255, 255); stroke-opacity: 1; stroke-width: 1px;"/><path class="xgrid crisp" transform="translate(602.76,0)" d="M0,100v320" style="stroke: rgb(255, 255, 255); stroke-opacity: 1; stroke-width: 1px;"/></g><g class="y"><path class="ygrid crisp" transform="translate(0,401.78)" d="M80,0h540" style="stroke: rgb(255, 255, 255); stroke-opacity: 1; stroke-width: 1px;"/><path class="ygrid crisp" transform="translate(0,360.95)" d="M80,0h540" style="stroke: rgb(255, 255, 255); stroke-opacity: 1; stroke-width: 1px;"/><path class="ygrid crisp" transform="translate(0,320.13)" d="M80,0h540" style="stroke: rgb(255, 255, 255); stroke-opacity: 1; stroke-width: 1px;"/><path class="ygrid crisp" transform="translate(0,279.3)" d="M80,0h540" style="stroke: rgb(255, 255, 255); stroke-opacity: 1; stroke-width: 1px;"/><path class="ygrid crisp" transform="translate(0,238.48)" d="M80,0h540" style="stroke: rgb(255, 255, 255); stroke-opacity: 1; stroke-width: 1px;"/><path class="ygrid crisp" transform="translate(0,197.65)" d="M80,0h540" style="stroke: rgb(255, 255, 255); stroke-opacity: 1; stroke-width: 1px;"/><path class="ygrid crisp" transform="translate(0,156.82999999999998)" d="M80,0h540" style="stroke: rgb(255, 255, 255); stroke-opacity: 1; stroke-width: 1px;"/></g></g><g class="zerolinelayer"><path class="yzl zl crisp" transform="translate(0,116)" d="M80,0h540" style="stroke: rgb(255, 255, 255); stroke-opacity: 1; stroke-width: 2px;"/></g><path class="xlines-below"/><path class="ylines-below"/><g class="overlines-below"/><g class="xaxislayer-below"/><g class="yaxislayer-below"/><g class="overaxes-below"/><g class="plot" transform="translate(80,100)" clip-path="url(#clipc5be1exyplot)"><g class="scatterlayer mlayer"><g class="trace scatter tracea8516a" style="stroke-miterlimit: 2; opacity: 0.5;"><g class="fills"/><g class="errorbars"/><g class="lines"><path class="js-line" d="M0,96.74L0.18,102.11L0.54,91.07L0.73,92.92L1.27,93.98L1.63,85.38L1.82,90.09L2,88.89L2.18,81.08L2.54,89.68L2.9,80.58L3.09,81.56L3.27,83.19L3.45,77.89L3.81,83.29L4.17,80.25L4.36,78.28L4.72,85.26L4.9,91.32L5.26,124.29L5.45,150.11L6.35,174.81L6.53,173.08L6.72,180.62L7.44,198.42L7.62,196.42L7.81,190.45L8.35,162.87L8.53,165.73L8.71,177.7L8.89,170.78L9.08,204.05L9.26,220.33L9.62,185.65L9.8,183.88L10.71,199.22L10.89,192.58L11.25,201.01L11.44,185.85L12.34,161.06L12.52,162.41L12.71,166.72L13.79,141.93L13.98,144.76L15.61,107.99L15.79,107.24L16.15,111.53L16.52,100.95L16.88,101.86L17.06,104.48L18.15,88.96L18.33,93.08L18.7,83.64L18.88,87.35L19.06,89.29L19.97,79.66L20.15,82.91L20.69,75.71L20.87,77.41L21.06,81.33L21.42,73.14L21.6,77.13L21.78,80.65L21.96,77.54L22.14,80.12L22.33,92.72L22.51,92.69L22.69,87.77L23.6,117.95L23.78,111.12L24.87,135.74L25.05,133.32L25.23,134.25L25.41,141.01L26.14,159.66L26.32,157.56L26.5,154.24L27.23,175.66L27.41,168.83L27.59,167.26L28.13,166.48L28.5,183.57L28.68,182.08L28.86,167.43L29.41,153.54L29.59,159.44L29.77,159.97L30.68,137.91L30.86,145.42L31.04,144.14L31.22,134.23L32.49,109.37L32.67,102.84L33.04,103.75L33.58,93.3L33.76,95.55L33.94,96.73L34.85,88.2L35.03,89.48L35.21,90.52L35.39,82.72L35.76,85.42L35.94,77.96L36.12,80.4L36.48,77.14L36.67,72.86L36.85,73.96L37.03,83.74L38.12,75.09L38.3,76.12L38.66,72.61L38.84,75.75L39.21,76.39L39.39,73.17L39.57,73.01L39.75,83.07L39.93,83.21L40.11,82.92L40.3,89.96L41.02,101.04L41.2,109.11L41.38,109.46L41.57,116.18L41.75,114.19L41.93,117.3L42.11,123.2L43.56,142.2L43.74,138.72L44.47,156.9L44.83,156.78L45.02,160.77L45.2,153.01L45.38,162.54L45.74,159.81L45.92,161.27L46.29,158.42L46.47,147.64L46.65,139.12L46.83,148.61L47.19,141L47.37,143.56L47.74,143.65L48.65,125.5L48.83,125.81L50.28,90.47L50.46,97.12L50.64,92.56L51.55,84.34L51.73,89.02L52.82,72.56L53,77.85L53.18,81L53.36,76.39L53.55,77.98L53.73,77.3L54.27,73.09L54.64,74.52L54.82,75.2L55,73.19L55.36,76.29L55.54,74.61L55.72,77.15L56.45,71.24L56.63,76.83L56.81,76.65L56.99,74.33L59.54,123.43L59.72,118.41L61.17,145.85L61.53,142.4L61.71,142.83L61.9,143.02L62.08,149.15L63.35,166.69L63.71,162.82L63.89,150.94L64.44,154.3L64.8,144.5L64.98,141.48L65.16,143.55L65.34,143.5L65.53,132.27L65.71,138.58L66.07,128.42L66.25,128.53L67.52,101.29L67.7,101.71L68.43,88.25L68.61,92.11L68.79,92.27L69.7,83.6L69.88,87.03L70.25,78.35L70.43,79.25L70.61,87.29L70.97,76.61L71.52,79.22L71.7,80.06L72.06,72.69L72.24,75.08L72.42,78.7L72.61,78.41L72.79,76.39L72.97,72.59L73.15,80.63L73.33,82.09L73.88,72.24L74.06,73.71L74.24,80.03L74.42,81.72L74.6,75.86L74.78,77.36L74.96,90.05L75.15,91.37L75.33,86.52L76.42,117.57L76.6,112.35L77.69,185.81L77.87,203.98L78.05,227.97L78.41,181.11L78.59,157.28L78.96,149.55L79.14,170.16L79.68,238.05L80.23,218.74L80.41,217.4L80.95,221.74L81.14,185.3L82.04,154.16L82.23,158.05L83.5,129.87L83.68,137.55L84.4,109.84L84.58,117.87L84.77,116.52L85.86,90.01L86.04,82.81L86.4,93.73L86.94,89.54L87.13,84.31L87.31,85.86L87.49,85.23L87.67,81.32L87.85,82.2L88.03,80.26L88.22,87.65L88.58,76.83L88.94,78L89.12,81.9L89.85,75.97L90.03,80.58L90.39,69.53L90.76,78.91L90.94,80.06L91.12,73.52L91.66,76.64L91.85,81.75L92.03,80L92.21,80.6L92.39,93.84L92.75,99.36L92.93,106.5L93.48,115.11L93.66,125.13L93.84,112.88L94.02,148.09L94.21,201.74L94.57,217.67L94.75,210.21L94.93,183.17L95.11,176.29L95.29,178.25L95.48,191.03L96.02,241.54L96.2,220.02L96.38,202.23L96.93,185.14L97.11,189.14L97.29,194.73L97.84,172.63L98.02,178.75L98.2,186.54L98.74,176.29L98.92,201.56L99.11,211.04L99.65,202.59L99.83,170.77L100.92,128.39L101.1,137.37L101.65,129.89L101.83,113.28L102.01,115.15L102.19,114.42L102.37,103.83L102.55,105.62L102.74,105.1L102.92,99.84L104.19,81.75L104.37,84.9L104.91,82.5L105.28,89.91L105.46,77.7L105.82,86.91L106,85.53L106.18,78.24L106.37,71.94L106.73,81.3L106.91,76.53L107.09,76.96L107.27,72.35L107.46,76.2L107.64,84.62L108,72.42L108.54,76.4L108.73,73.45L109.27,76.53L109.45,83.44L110.18,99.36L110.36,111.37L110.72,158.58L111.27,135.1L111.45,146.96L111.99,136.64L112.17,140.03L112.36,148.45L112.54,148.4L112.72,157.17L113.08,161.79L113.26,189.86L113.45,209.11L113.81,205.45L113.99,187.62L114.17,177.94L114.53,188.71L114.72,186.7L114.9,188.31L115.26,190.99L115.44,210.97L115.81,245.82L116.17,223.56L116.35,222.72L116.53,224.44L116.71,211.12L117.62,151.16L117.8,156.97L117.98,150.81L119.44,116.82L119.62,112.21L120.34,98.23L120.52,103.43L120.71,100.47L121.43,88.61L121.61,89.42L121.79,92.96L122.88,79.31L123.07,86.26L123.25,92.83L123.61,79.43L123.79,79.16L123.97,84.81L124.34,76.42L124.52,79.01L124.7,79L124.88,80.3L125.06,77.65L125.24,74.03L125.61,81.48L125.97,77.14L126.15,74.42L126.33,73.11L126.51,83.76L126.88,80.1L127.06,84.08L127.24,84.6L129.24,234.27L129.42,223.78L129.6,209.55L130.51,168.61L130.69,200.06L130.87,203.81L131.05,187.49L131.23,168.56L131.78,174.52L131.96,177.47L132.87,233.59L133.05,213.76L134.32,165.49L134.5,163.18L134.68,162.7L134.86,158.64L135.05,158.82L135.23,155.46L136.32,135.84L136.5,137.4L137.22,104.39L137.41,107.42L137.59,106.51L139.04,90.33L139.22,92.63L139.95,83.54L140.13,88.31L140.31,91.94L141.4,74.15L141.58,87.43L142.31,72.26L142.49,81.91L142.67,82.24L142.85,73.28L143.03,80.14L143.58,77.1L143.76,76.61L143.94,77.69L144.12,73.04L145.21,105.75L145.39,110.39L145.94,118.06L146.12,126.81L147.21,193.35L147.57,192.34L147.75,176.05L148.3,160.04L148.48,167.8L148.66,168.93L148.84,169.11L149.02,178.63L149.38,173.81L149.57,182.45L149.75,193.57L149.93,186.35L150.11,195.29L150.47,190.82L150.66,191.2L150.84,193.52L151.02,186.95L151.2,176.49L151.38,186.41L151.74,167.37L151.93,177.61L152.11,176.95L153.2,147.8L153.38,149.57L153.56,148.52L153.74,134.48L154.1,136.31L154.29,126.25L155.37,99.1L155.74,100.11L155.92,99.48L156.1,98.94L156.28,94.87L156.46,98.76L156.65,95.21L156.83,89.35L157.01,91.57L157.55,90.39L157.73,87.09L157.92,85.87L158.1,88.67L158.28,82.36L158.46,81.39L158.64,88.38L159.55,77.44L159.73,77.55L160.09,82.99L160.28,77.93L160.46,79.27L160.64,76.1L160.82,72.35L161.91,91.25L162.09,89.88L163.36,128.62L163.54,124.69L164.63,153.64L164.81,150.78L166.45,193.48L166.63,183.23L167.17,182.41L167.54,202.82L167.72,194.75L167.9,199.18L168.26,198.88L168.44,189.87L168.81,190.21L169.35,179.14L169.53,180.57L171.89,130.1L172.07,118.67L172.26,116.55L172.44,122.08L172.62,103.32L172.98,111.35L173.16,100.76L173.34,104.67L173.53,97.41L173.71,104.92L174.07,93.44L174.25,100.99L174.43,95.73L175.16,88.52L175.34,90.29L175.52,93.01L176.25,81.67L176.43,85.04L176.61,89.32L177.7,73.43L177.88,78.82L178.06,82.04L178.43,80.4L178.61,72.83L181.15,186.51L181.33,183.34L182.24,205.07L182.42,178.41L182.6,167.1L183.15,174.93L183.33,185.23L184.42,224.53L184.6,219.12L186.23,181.88L186.41,180.21L186.59,179.4L186.78,174.07L187.87,154.39L188.05,150.65L189.14,128.56L189.32,126L190.04,100.06L190.23,104.72L190.41,103.31L191.31,90.78L191.5,90.3L191.68,90.99L191.86,87.78L192.04,90.79L192.22,90.32L192.4,82.93L192.58,80.72L192.77,88.8L193.86,76.45L194.04,78.21L194.4,77.04L194.58,78.66L194.76,74.64L194.94,72.44L195.13,74.38L195.31,81.92L195.85,67.85L196.03,73.72L196.22,81.04L196.4,77.4L196.58,85.86L196.76,111.12L198.03,154.93L198.21,150.36L198.76,126.23L199.12,127.34L199.3,139.75L199.85,192.38L200.39,179.6L200.57,164.74L200.75,162.75L200.93,170.79L201.12,158.54L201.3,177.69L201.48,199.42L201.66,193.35L201.84,203.9L202.02,201.55L202.21,203.98L202.93,210.37L203.11,200.45L203.29,197.75L203.48,208.06L204.2,212.1L204.38,185.29L205.11,141.61L205.29,144.53L205.47,145.64L206.38,114.94L206.56,120.23L206.74,117.68L207.29,95.92L207.65,99.61L207.83,97.68L209.1,83.16L209.28,83.42L209.47,82.68L209.65,87.92L210.55,77.53L210.74,78.12L211.1,79.12L211.28,76.88L211.46,72.36L211.64,74.22L211.83,83.19L212.73,71.91L212.91,75.54L213.1,76.97L213.46,74.71L213.64,69.27L214.37,117.85L214.55,138.7L214.73,137.17L214.91,140.62L215.09,146.07L215.82,167.32L216,160.85L216.18,151.85L216.54,128.6L216.91,135.63L217.09,145.85L217.27,147.21L217.45,146.34L217.63,159.58L217.82,161.07L218,159.08L218.18,173.65L219.27,229.17L219.45,233.86L219.81,225.64L219.99,230.4L220.17,237.38L220.36,240.71L220.54,232.85L220.72,228.98L220.9,228.09L221.08,222.35L221.45,225.05L221.63,215.25L221.99,196.8L222.17,166.99L222.35,168.84L222.53,165.55L222.72,153.04L222.9,152.56L223.08,145.2L224.71,101.14L224.89,104.55L225.08,103.76L225.8,94.24L225.98,99.85L226.89,84.56L227.07,85.43L227.25,90.57L227.44,92.67L227.62,85.67L227.8,88.35L228.16,84.38L228.34,80.88L228.71,85.91L228.89,80.67L229.07,80.03L229.25,76.16L229.43,83.3L229.61,84.93L229.79,74.89L230.34,76.87L230.52,79.19L230.88,75.33L231.07,78.67L231.25,76.74L231.43,77.56L231.61,94.01L232.7,162.72L232.88,166.04L233.06,169.52L233.24,199.7L233.43,230.52L233.97,220.22L234.15,216.51L234.33,214.59L234.51,224.75L234.7,224.84L234.88,196.87L235.42,171.88L235.78,181.88L235.97,189.93L236.33,176.76L236.51,188.59L236.69,195.64L236.87,185.03L237.06,186.85L237.24,185.38L237.42,181.39L237.6,197.87L237.78,197.73L237.96,209.7L238.14,218.39L238.33,195.97L238.51,179.94L238.69,179.82L238.87,176.17L240.5,137.19L240.69,144.37L241.05,126.02L241.23,155.23L241.41,162.42L242.5,99.67L242.68,100.27L242.86,104.31L243.23,96.27L243.41,101.24L243.59,100.56L244.5,89.42L244.68,88.78L244.86,87.63L245.04,92.69L246.13,82.21L246.31,84.22L246.49,83.21L246.68,82.53L246.86,87.14L247.04,77.91L247.58,80.67L247.76,81.5L247.95,78.06L248.31,83.06L248.49,79L248.67,81.44L250.85,211.58L251.03,200.54L251.58,193.39L251.76,205.96L251.94,214.55L252.12,211.37L252.3,190.4L252.48,177L252.85,188.12L253.03,212.02L253.57,248.29L253.94,238.99L254.12,221.59L254.48,218.51L254.66,223.71L254.84,251.43L255.03,272.69L255.57,266.45L255.75,247.11L257.02,229.09L257.2,189.79L258.29,141.87L258.47,151.92L259.02,135.35L259.2,151.89L259.38,164.17L260.11,144.05L260.29,121.52L261.2,92.04L261.38,94.55L261.56,102.59L261.92,96.86L262.1,92.65L262.29,91.87L262.47,87.43L262.83,97.9L263.19,89.36L263.37,83.77L263.74,90.7L263.92,82.78L264.1,88.57L264.28,84.8L264.46,86.21L264.65,86.1L264.83,76.91L265.19,88.42L265.73,86.56L265.92,90.18L266.1,83.37L266.28,89.6L266.46,107.43L266.64,105.54L266.82,108.94L267.01,123.7L267.37,129.5L267.55,128.91L267.73,141.06L267.91,142.49L268.09,138.2L268.28,154.2L268.64,147.56L268.82,164.45L269,163.11L269.18,163.36L269.36,181.44L269.55,176.23L269.73,178.41L269.91,193.79L270.09,192.07L270.27,179.6L271.18,208.75L271.36,199.19L271.91,226.65L272.09,252.52L272.45,231.93L272.63,223.19L273.36,190.46L273.54,197.38L273.72,196.88L274.99,162.94L275.17,164.53L276.44,135.18L276.63,141.06L276.81,164.25L277.17,130.02L277.35,116.98L278.26,96.86L278.44,103L278.62,105.48L278.8,94.71L279.17,103.94L279.35,94.59L279.89,97.55L280.07,92.57L280.44,96.83L280.8,89.1L280.98,92.08L281.16,94.4L281.34,88.91L281.53,87.5L282.07,86.97L282.43,96.75L282.62,92.96L282.8,81.65L283.34,90.68L283.52,88.53L284.61,132.02L284.79,132.24L285.7,163.82L285.88,155.15L286.06,159.13L286.79,192.67L286.97,177.56L287.15,173.47L288.06,191.28L288.24,192.35L288.61,204.52L288.79,209.46L288.97,199.43L289.33,215.94L289.51,213.21L289.69,215.23L289.88,199.18L290.78,192.84L290.96,186.6L292.24,162.02L292.42,154.05L292.6,159.58L292.78,149.36L292.96,141.22L293.14,142.83L293.32,138.8L293.51,139.3L295.14,104.52L295.32,107.09L295.5,106.41L295.68,99.17L296.23,100.93L296.41,100.36L296.77,102.2L296.95,98.75L297.14,101.27L297.32,101.64L298.04,90.84L298.23,92.53L298.41,100.27L299.5,84.06L299.68,88.64L299.86,92.84L300.22,86.15L300.4,86.27L300.58,87.02L300.77,84.39L301.49,125.16L301.67,153.85L302.76,261.17L302.94,264.16L303.67,251.28L303.85,259.11L304.03,261.19L304.22,257.29L304.4,269.93L304.76,188.54L305.12,231.84L305.3,233.37L306.21,264.07L306.39,255.24L306.57,250.5L307.3,208.14L307.66,214.8L307.85,230.68L308.21,243.83L308.57,242.47L308.75,239.61L309.3,200.07L309.48,179.24L309.84,165.38L310.02,160.89L310.93,141.9L311.11,136.28L312.02,112.9L312.2,113.8L312.38,113.58L312.75,105.99L312.93,109.29L313.11,110.84L313.84,99.77L314.02,103.37L314.38,92.99L314.56,101.88L314.74,102.17L315.65,88.72L315.83,93.74L316.01,93.54L316.19,87.59L316.56,91.13L316.74,86.38L316.92,82.26L317.1,88.95L317.47,81.53L317.65,83.78L317.83,82.17L318.19,81.21L318.74,104.66L318.92,129.81L320.19,252.31L320.37,253.76L321.1,282.86L321.28,270.77L321.46,275.84L322,204.58L322.18,211.42L322.37,242.81L322.91,304L323.27,282.42L323.46,248.36L323.82,283.84L324.36,280.78L324.54,278.73L325.82,222.66L326.36,222.84L326.54,226.65L327.99,157.45L328.17,177.25L328.36,186.62L328.54,178.2L328.72,165.2L328.9,167.08L329.08,161.5L329.26,158.03L329.45,161.89L329.63,148.67L330.35,106.65L330.53,113.87L330.72,105.55L330.9,110.68L331.26,102.8L331.44,109.71L331.62,101.7L331.99,105.3L332.17,100.15L332.35,105.3L332.71,98.84L332.89,101.75L333.08,93.41L333.44,99.9L333.8,99.29L333.98,97.14L334.71,88.88L334.89,94.89L335.25,87.77L335.44,92.5L335.62,93.92L335.8,91.84L335.98,102.83L336.52,141.23L336.71,165.12L337.43,216.73L337.61,212.17L337.79,197.3L338.52,219.92L338.7,208.11L339.43,98.22L339.61,16L340.88,16L341.06,149.04L341.24,290.92L341.97,276.29L342.15,266.19L342.51,269.44L342.7,251.65L343.97,209.38L344.15,208.52L345.06,150.2L345.24,155.83L345.42,172.18L345.6,182.87L346.14,173.85L346.33,160.2L347.42,110.62L347.6,110.29L347.78,112.27L347.96,108.36L348.14,107.12L348.32,110.03L348.69,105.61L348.87,102.33L349.23,103.09L349.41,101.52L349.59,100.19L350.14,91.78L350.32,95.95L350.5,99.87L351.05,89.67L351.59,90.06L351.77,89.34L351.95,88.02L352.13,91.1L352.5,88.72L352.68,89.95L352.86,86.02L353.22,92.6L353.41,93.07L354.13,184.23L354.31,207.9L354.68,206.94L354.86,212.87L355.04,224.22L355.4,239.86L355.95,239.58L356.13,230.25L356.67,205.71L357.04,210.89L357.22,214.03L359.03,294.87L359.21,296.34L361.03,185.79L361.21,186.87L362.48,151.1L362.66,162.71L363.21,172.38L363.39,165.53L363.57,135.97L364.48,102.8L364.66,103.28L364.84,103.79L365.02,102.22L365.2,98.25L365.38,99.17L365.57,94L365.93,98.99L366.29,98.23L366.47,91.87L366.66,96.05L367.02,91.18L367.2,91.3L367.56,93.2L367.93,85.83L368.11,87.81L368.29,88.49L369.02,82.68L369.2,86.84L370.1,77.08L370.29,83.69L370.47,85.3L370.65,76.93L372.65,188.01L372.83,195.31L373.19,204.05L373.37,193.99L373.55,183.14L373.73,179.11L373.92,193.31L374.28,218.36L374.46,191.24L374.64,149.69L376.82,266.6L377,264.11L377.36,231.16L377.55,209.02L378.82,150.35L379,145.52L379.18,146.9L379.72,146.04L379.91,132.58L380.27,132.81L380.45,125.72L380.63,125.42L380.81,116.96L380.99,115.63L381.18,108.03L381.54,109.25L382.27,97.05L382.45,102.71L382.63,102.55L382.81,99.09L382.99,101.22L383.17,97.96L383.35,99.61L383.54,98.75L384.26,90.56L384.44,92.15L384.63,91.58L385.53,82.39L385.71,85.6L385.9,85.2L386.08,77.64L386.62,75.4L386.8,82.65L386.98,82.02L387.17,76.8L387.35,75.89L387.53,79.08L387.89,76.38L388.26,85.77L388.44,90.14L388.62,88.15L388.8,92.58L388.98,95.72L389.16,87.28L389.53,101.27L389.71,96.15L389.89,97.16L390.25,94.21L390.43,113.85L390.98,145.52L391.16,135.22L391.34,120.14L391.52,120.49L391.7,130.56L392.07,129.39L392.43,135.78L392.61,147.31L392.97,143.76L393.16,155.3L393.34,154.01L393.52,159.47L394.61,225.25L394.79,219.14L394.97,188.34L395.33,205.1L395.52,193.43L396.61,138.6L396.79,139.37L396.97,132.78L397.33,129.59L397.51,119.86L397.69,123.37L397.88,121.53L398.06,113.87L398.24,117.12L398.42,107.27L398.6,103.69L398.96,111.18L399.15,135.33L399.33,142.1L399.51,114.29L400.24,94.26L400.42,96.85L400.6,94.03L400.96,94.31L401.32,86.59L401.51,94.12L402.59,80.82L402.78,85.47L403.87,76.38L404.05,78.2L404.23,76.77L404.59,78.67L404.77,79.68L404.95,83.49L405.32,75.57L405.5,81.72L405.68,82.75L406.95,105.64L407.13,99.34L407.31,111.81L407.68,110.4L408.95,138.71L409.13,135.44L409.31,131.03L410.4,157.22L410.58,162.85L410.76,157.73L410.94,162.5L411.13,179.72L411.49,166.17L412.03,168.13L412.22,164.43L412.94,156.47L413.12,163.26L414.39,136.8L414.57,137.63L414.76,139.6L414.94,137.73L415.12,129.79L416.93,97.96L417.12,101.2L418.21,88.91L418.39,89.18L418.57,85.93L418.75,91.69L418.93,87.71L419.11,77.71L419.48,89.22L419.84,80.8L420.02,86.47L421.11,77.42L421.29,77.39L421.47,84.06L421.84,71.6L422.02,74.04L422.38,84.27L422.92,79.94L423.11,83.24L423.29,85.98L423.47,109.04L424.56,165.46L424.74,187.77L424.92,188.59L425.1,181.52L425.65,221.46L425.83,212.37L426.01,202.6L426.55,213.48L426.74,213.07L426.92,190.92L427.1,162.65L427.64,189.53L427.83,194.74L428.73,216.11L428.91,206.97L429.82,187.37L430,175.92L430.18,160.67L430.73,165.81L430.91,162.95L431.82,151.15L432,153.36L433.27,106.12L433.45,111.22L433.63,112.08L433.82,103.32L434.18,106.42L434.36,101.95L434.54,98.01L434.72,105.35L435.09,95.7L435.27,96.55L435.81,98.62L436.17,89.34L436.36,91.99L436.54,92.75L436.72,92.57L436.9,80.97L437.26,91.87L437.63,80.48L437.81,87.55L437.99,88.62L438.17,77.12L438.72,85.88L438.9,80.88L439.08,78.95L439.26,81.97L439.44,83.7L439.62,77.84L440.17,79.82L440.35,99.83L440.89,153.88L441.26,142.25L441.44,139.39L441.62,143.03L441.8,170.77L442.89,222L443.07,221.6L443.25,208.13L444.16,153.46L444.34,171.56L444.52,173.93L444.71,167.12L445.07,180.12L445.25,201.67L445.98,240.05L446.16,235.77L446.34,231.77L446.52,237.53L446.7,233.88L446.88,210.78L447.79,172.46L447.97,165.82L448.88,146.1L449.06,146.65L449.24,148.25L449.97,131.18L450.15,132.27L450.33,136.64L451.6,103.86L451.78,109.09L452.51,97.55L452.69,104.74L452.87,106.32L453.6,91.35L453.78,98.43L453.96,95.99L454.69,96.07L455.05,86.52L455.23,92.89L456.14,82.64L456.32,84.32L456.5,87.32L456.69,81.32L456.87,97.33L457.05,117.71L457.59,127.86L457.77,115.27L457.96,92.78L458.5,101.26L458.68,131.19L460.13,199.3L460.32,206.94L460.5,207.63L460.68,196.08L461.04,147.39L461.41,179.93L461.59,199.93L462.49,237.75L462.68,225.2L463.04,196.02L463.4,204.87L463.58,203.65L463.95,202.74L464.31,215.14L464.49,208.2L464.67,188.92L465.76,160.63L465.94,162.59L466.49,155.39L466.67,144.54L466.85,146.36L467.03,141.87L467.21,136.75L467.39,139.89L467.58,129.12L467.76,128.63L467.94,130.43L468.3,112.62L468.67,113.11L468.85,138.23L469.03,156.69L469.39,146.24L469.57,124.29L470.48,101.54L470.66,95.94L470.84,98.53L471.03,93.68L471.21,92.33L471.75,94.23L471.93,88.24L472.11,90.15L472.3,90.01L472.48,85.78L472.66,88.09L473.02,85.01L473.2,85.83L473.38,86.71L474.47,79.97L474.66,84.94L475.02,76.7L475.2,83.46L476.11,147.54L476.47,146.21L476.65,149.7L477.02,187.88L477.2,215.42L477.92,210.59L478.1,193.47L478.47,193.87L478.83,176.82L479.01,157.79L479.19,152.87L479.56,162.35L479.74,159.27L480.1,152.08L480.28,162.22L480.46,169.38L480.65,165.84L480.83,176.12L481.01,193.32L481.73,232.25L481.92,213.25L482.82,167.14L483.01,171.37L483.19,161.03L486.09,109.15L486.27,113.96L487.36,100.51L487.54,99.5L487.91,103.37L488.09,100.5L488.27,97.27L488.63,100.73L488.81,98.06L488.99,89.65L489.54,93.12L489.72,92.02L489.9,88.03L490.08,90.51L490.45,86.67L490.63,88.06L490.81,85.64L491.17,91.19L491.35,84.31L491.54,83.77L491.72,87.68L492.26,88.15L492.63,80.36L492.81,92.58L493.17,101.21L493.35,122.61L494.62,175.26L494.8,182.78L494.98,174.59L495.17,191.3L495.35,218.28L496.44,153.03L496.62,164.07L496.8,164.07L496.98,160.38L497.16,175.88L497.34,172.28L497.53,179.34L497.71,187.59L498.25,222.68L498.43,205.78L498.62,196.73L498.98,216.95L499.16,248.08L500.25,180.15L500.43,162.76L501.52,140.52L501.7,135.46L502.06,134.45L502.25,131.37L503.7,105.21L503.88,105.73L504.24,105.88L504.79,101.31L504.97,102.34L505.69,96.52L505.88,98.55L506.96,91.08L507.15,89.56L507.33,84.25L507.51,92.6L507.87,85.22L508.05,88.62L508.6,89.56L508.96,80.52L509.14,85.46L509.32,88.35L509.51,82.95L509.87,85.68L510.05,87.32L511.14,114.24L511.32,118.17L511.68,127.74L512.05,124.35L512.23,122.03L513.32,162.41L513.5,194.71L514.23,155.38L514.41,164.98L514.59,175.17L514.95,171.93L515.13,185.55L515.86,187.71L516.04,186.45L516.22,184.7L516.58,199.88L516.95,183.57L517.13,183.55L517.31,186.78L517.49,183.62L517.67,169.02L517.86,172.51L518.04,167.09L518.22,169.78L518.4,165.25L519.67,136.59L519.85,132.72L520.22,133.15L520.94,109.13L521.12,111.7L521.3,111.62L521.49,110.97L521.67,106.64L522.03,110.81L522.21,104.71L522.57,103.15L522.76,104.48L522.94,101.78L523.3,104.92L523.48,104.36L523.66,102.88L524.57,92.79L524.75,99.55L525.84,87.37L526.02,92.97L526.21,93.61L526.39,93.33L526.57,91.37L526.75,83.94L527.29,90.65L527.48,91.41L528.56,127.93L528.75,127.62L528.93,113.44L529.29,111.73L529.47,125.6L530.74,166.11L530.92,156.8L531.11,153.23L531.47,159.35L531.65,162.46L533.65,190.04L533.83,184.57L534.01,194.16L534.37,174.31L534.55,172.29L534.92,177.12L535.1,171.72L535.28,163.57L535.46,165.22L535.64,157.91L537.28,134.07L537.46,145.52L537.64,169.1L537.82,149.42L538,113.01L538.18,117.54L538.37,110.26L538.55,111.09L538.73,111.72L538.91,108.71L539.64,108.86L539.82,109.69L540,105.28" style="vector-effect: non-scaling-stroke; fill: none; stroke: rgb(0, 191, 255); stroke-opacity: 1; stroke-width: 2px; opacity: 1;"/></g><g class="points"/><g class="text"/></g></g></g><g class="overplot"/><path class="xlines-above crisp" d="M0,0" style="fill: none;"/><path class="ylines-above crisp" d="M0,0" style="fill: none;"/><g class="overlines-above"/><g class="xaxislayer-above"><g class="xtick"><text text-anchor="middle" x="0" y="433" transform="translate(114.85,0)" style="font-family: sans-serif; font-size: 12px; fill: rgb(42, 63, 95); fill-opacity: 1; white-space: pre; opacity: 1;"><tspan class="line" dy="0em" x="0" y="433">Jul 3</tspan><tspan class="line" dy="1.3em" x="0" y="433">2022</tspan></text></g><g class="xtick"><text text-anchor="middle" x="0" y="433" style="font-family: sans-serif; font-size: 12px; fill: rgb(42, 63, 95); fill-opacity: 1; white-space: pre; opacity: 1;" transform="translate(236.83,0)">Jul 10</text></g><g class="xtick"><text text-anchor="middle" x="0" y="433" style="font-family: sans-serif; font-size: 12px; fill: rgb(42, 63, 95); fill-opacity: 1; white-space: pre; opacity: 1;" transform="translate(358.8,0)">Jul 17</text></g><g class="xtick"><text text-anchor="middle" x="0" y="433" style="font-family: sans-serif; font-size: 12px; fill: rgb(42, 63, 95); fill-opacity: 1; white-space: pre; opacity: 1;" transform="translate(480.78,0)">Jul 24</text></g><g class="xtick"><text text-anchor="middle" x="0" y="433" style="font-family: sans-serif; font-size: 12px; fill: rgb(42, 63, 95); fill-opacity: 1; white-space: pre; opacity: 1;" transform="translate(602.76,0)">Jul 31</text></g></g><g class="yaxislayer-above"><g class="ytick"><text text-anchor="end" x="79" y="4.199999999999999" transform="translate(0,401.78)" style="font-family: sans-serif; font-size: 12px; fill: rgb(42, 63, 95); fill-opacity: 1; white-space: pre; opacity: 1;">−70k</text></g><g class="ytick"><text text-anchor="end" x="79" y="4.199999999999999" style="font-family: sans-serif; font-size: 12px; fill: rgb(42, 63, 95); fill-opacity: 1; white-space: pre; opacity: 1;" transform="translate(0,360.95)">−60k</text></g><g class="ytick"><text text-anchor="end" x="79" y="4.199999999999999" style="font-family: sans-serif; font-size: 12px; fill: rgb(42, 63, 95); fill-opacity: 1; white-space: pre; opacity: 1;" transform="translate(0,320.13)">−50k</text></g><g class="ytick"><text text-anchor="end" x="79" y="4.199999999999999" style="font-family: sans-serif; font-size: 12px; fill: rgb(42, 63, 95); fill-opacity: 1; white-space: pre; opacity: 1;" transform="translate(0,279.3)">−40k</text></g><g class="ytick"><text text-anchor="end" x="79" y="4.199999999999999" style="font-family: sans-serif; font-size: 12px; fill: rgb(42, 63, 95); fill-opacity: 1; white-space: pre; opacity: 1;" transform="translate(0,238.48)">−30k</text></g><g class="ytick"><text text-anchor="end" x="79" y="4.199999999999999" style="font-family: sans-serif; font-size: 12px; fill: rgb(42, 63, 95); fill-opacity: 1; white-space: pre; opacity: 1;" transform="translate(0,197.65)">−20k</text></g><g class="ytick"><text text-anchor="end" x="79" y="4.199999999999999" style="font-family: sans-serif; font-size: 12px; fill: rgb(42, 63, 95); fill-opacity: 1; white-space: pre; opacity: 1;" transform="translate(0,156.82999999999998)">−10k</text></g><g class="ytick"><text text-anchor="end" x="79" y="4.199999999999999" style="font-family: sans-serif; font-size: 12px; fill: rgb(42, 63, 95); fill-opacity: 1; white-space: pre; opacity: 1;" transform="translate(0,116)">0</text></g></g><g class="overaxes-above"/></g></g><g class="polarlayer"/><g class="smithlayer"/><g class="ternarylayer"/><g class="geolayer"/><g class="funnelarealayer"/><g class="pielayer"/><g class="iciclelayer"/><g class="treemaplayer"/><g class="sunburstlayer"/><g class="glimages"/><defs id="topdefs-c5be1e"><g class="clips"/></defs><g class="layer-above"><g class="imagelayer"/><g class="shapelayer"/></g><g class="infolayer"><g class="g-gtitle"><text class="gtitle" x="350" y="50" text-anchor="middle" dy="0em" style="font-family: sans-serif; font-size: 17px; fill: rgb(42, 63, 95); opacity: 1; font-weight: normal; white-space: pre;"><tspan class="line" dy="0em" x="350" y="50"><tspan style="font-weight:bold">Scenario 2</tspan></tspan><tspan class="line" dy="1.3em" x="350" y="50"><tspan style="font-weight:bold">Microgrid Output</tspan></tspan><tspan class="line" dy="2.6em" x="350" y="50"><tspan style="font-weight:bold">From: July 01, 2022 to July 31, 2022</tspan></tspan></text></g><g class="g-xtitle"><text class="xtitle" x="350" y="476.409375" text-anchor="middle" style="font-family: sans-serif; font-size: 14px; fill: rgb(42, 63, 95); opacity: 1; font-weight: normal; white-space: pre;"><tspan style="font-weight:bold">Time</tspan></text></g><g class="g-ytitle"><text class="ytitle" transform="rotate(-90,27.840625000000003,260)" x="27.840625000000003" y="260" text-anchor="middle" style="font-family: sans-serif; font-size: 14px; fill: rgb(42, 63, 95); opacity: 1; font-weight: normal; white-space: pre;"><tspan style="font-weight:bold">Demand (kW)</tspan></text></g></g></svg>