<svg class="main-svg" xmlns="http://www.w3.org/2000/svg" xmlns:xlink="http://www.w3.org/1999/xlink" width="700" height="500" style="" viewBox="0 0 700 500"><rect x="0" y="0" width="700" height="500" style="fill: rgb(255, 255, 255); fill-opacity: 1;"/><defs id="defs-64359c"><g class="clips"><clipPath id="clip64359cxyplot" class="plotclip"><rect width="540" height="320"/></clipPath><clipPath class="axesclip" id="clip64359cx"><rect x="80" y="0" width="540" height="500"/></clipPath><clipPath class="axesclip" id="clip64359cy"><rect x="0" y="100" width="700" height="320"/></clipPath><clipPath class="axesclip" id="clip64359cxy"><rect x="80" y="100" width="540" height="320"/></clipPath></g><g class="gradients"/><g class="patterns"/></defs><g class="bglayer"/><g class="layer-below"><g class="imagelayer"/><g class="shapelayer"/></g><g class="cartesianlayer"><g class="subplot xy"><g class="layer-subplot"><g class="shapelayer"/><g class="imagelayer"/></g><g class="minor-gridlayer"><g class="x"/><g class="y"/></g><g class="gridlayer"><g class="x"><path class="xgrid crisp" transform="translate(184.55,0)" d="M0,100v320" style="stroke: rgb(255, 255, 255); stroke-opacity: 1; stroke-width: 1px;"/><path class="xgrid crisp" transform="translate(306.53,0)" d="M0,100v320" style="stroke: rgb(255, 255, 255); stroke-opacity: 1; stroke-width: 1px;"/><path class="xgrid crisp" transform="translate(428.5,0)" d="M0,100v320" style="stroke: rgb(255, 255, 255); stroke-opacity: 1; stroke-width: 1px;"/><path class="xgrid crisp" transform="translate(550.48,0)" d="M0,100v320" style="stroke: rgb(255, 255, 255); stroke-opacity: 1; stroke-width: 1px;"/></g><g class="y"><path class="ygrid crisp" transform="translate(0,374.89)" d="M80,0h540" style="stroke: rgb(255, 255, 255); stroke-opacity: 1; stroke-width: 1px;"/><path class="ygrid crisp" transform="translate(0,311.18)" d="M80,0h540" style="stroke: rgb(255, 255, 255); stroke-opacity: 1; stroke-width: 1px;"/><path class="ygrid crisp" transform="translate(0,247.48)" d="M80,0h540" style="stroke: rgb(255, 255, 255); stroke-opacity: 1; stroke-width: 1px;"/><path class="ygrid crisp" transform="translate(0,183.78)" d="M80,0h540" style="stroke: rgb(255, 255, 255); stroke-opacity: 1; stroke-width: 1px;"/></g></g><g class="zerolinelayer"><path class="yzl zl crisp" transform="translate(0,120.07)" d="M80,0h540" style="stroke: rgb(255, 255, 255); stroke-opacity: 1; stroke-width: 2px;"/></g><path class="xlines-below"/><path class="ylines-below"/><g class="overlines-below"/><g class="xaxislayer-below"/><g class="yaxislayer-below"/><g class="overaxes-below"/><g class="plot" transform="translate(80,100)" clip-path="url(#clip64359cxyplot)"><g class="scatterlayer mlayer"><g class="trace scatter tracecb6c96" style="stroke-miterlimit: 2; opacity: 0.5;"><g class="fills"/><g class="errorbars"/><g class="lines"><path class="js-line" d="M0,92.78L0.91,85.86L1.09,86.99L1.27,88.09L1.63,82.02L2.18,83.14L2.36,85.12L2.72,85.03L2.9,79.32L3.09,84.06L3.45,80.69L3.63,236.95L4.54,75.56L4.72,68.13L5.26,80.77L5.45,64.73L5.99,19.75L6.17,20.18L6.35,61.05L6.9,102.84L7.08,18.11L7.26,20.35L7.44,19.81L8.53,20.2L8.71,19.81L8.89,23.64L9.08,16.63L9.44,20.42L9.62,20.1L10.71,20.11L10.89,20L11.62,20.36L11.8,19.64L12.71,20.37L12.89,19.99L13.07,20.37L13.61,20.05L13.79,20L14.7,20.11L14.88,20.08L16.52,19.98L16.7,20.17L17.79,20.05L17.97,20.08L18.15,20.05L18.33,71.81L18.88,88.65L19.06,86.25L19.24,85.58L19.42,88.05L19.78,83.33L19.97,81.86L20.33,86.37L20.51,79.67L20.69,81.8L20.87,82.68L21.96,77.77L22.14,70.81L22.33,71.17L22.51,223.47L23.42,20.14L23.6,20.05L24.14,19.91L24.32,23.55L24.5,16.48L24.69,23.6L25.05,16.52L25.23,20L27.41,20.21L27.59,23.5L27.95,16.4L28.13,23.82L28.5,16.57L28.68,20.14L28.86,20.09L29.04,23.61L29.41,16.63L29.95,20.11L30.13,20.24L31.95,20.07L32.13,20.06L34.85,20.06L35.03,25.14L35.21,90.04L35.94,85.44L36.12,86.82L36.3,85.32L36.48,86.38L36.67,244.02L37.57,79.79L37.75,81.66L38.48,75.74L38.66,79.86L38.84,82.24L40.3,37.48L40.48,21.56L40.66,166.27L41.2,19.92L41.38,20.01L41.93,19.85L42.11,20.32L42.29,23.41L42.66,16.37L43.02,19.92L43.2,23.89L43.56,16.68L44.11,20.22L44.29,19.95L45.2,20.24L45.38,19.92L46.29,20.23L46.47,19.85L47.19,20.21L47.37,23.58L47.92,16.59L48.28,20.13L48.46,20.21L49.92,19.99L50.1,20.08L52.82,20.16L53,44.47L53.36,87.8L53.91,85.72L54.09,86.61L54.45,81.44L55,81.66L55.18,82.83L55.91,77.5L56.09,83.06L56.99,66.62L57.36,68.56L57.54,70.28L57.72,210.64L58.08,20.39L58.27,21.78L58.99,245.9L59.17,238.03L59.35,81.72L59.54,70.34L59.72,83.57L59.9,80.09L60.08,205.2L60.44,220.88L60.63,198.66L60.81,156.97L60.99,19.47L61.71,20.05L61.9,20.18L62.26,20.64L62.62,20.23L62.8,23.74L63.35,16.48L63.53,20.57L63.71,48.06L64.62,103.9L64.8,97.03L65.16,110.76L65.34,123.56L66.25,142.66L66.43,141.96L66.62,302.56L66.8,304L66.98,303.12L67.16,145.86L68.25,125.91L68.43,127.84L69.88,85.85L70.25,89L70.43,91.4L70.79,84.11L71.15,86.16L71.33,87.54L71.7,79.94L71.88,87.62L72.24,80.63L72.42,81.73L72.61,83.88L72.79,239.06L73.33,78.58L73.69,81.02L73.88,81.27L74.06,80.1L74.24,82.4L74.42,54.39L74.96,20.07L75.15,178.46L75.33,179.33L75.51,41.22L75.69,43.96L75.87,58.83L76.05,48.77L76.24,128.39L76.42,114.4L76.6,19.09L77.32,20.14L77.51,20.1L77.69,20.08L78.05,19.89L78.23,23.54L78.78,16.74L79.14,20.18L79.32,20.04L79.87,20.07L80.05,23.6L80.59,16.44L80.95,20.1L81.14,20L81.32,20.28L81.5,23.61L82.04,16.59L82.41,19.97L82.59,20.34L83.5,20.12L83.68,20.19L84.58,20.05L84.77,20.04L86.22,20.07L86.4,89.13L86.76,109.29L87.13,105.82L87.31,100.34L88.4,83.92L88.58,83.73L89.67,78.85L89.85,77.18L90.21,78.85L90.57,74.95L90.76,76.76L91.85,64.18L92.03,223.72L92.75,19.98L92.93,19.99L93.12,19.91L93.48,20.02L93.66,23.43L93.84,16.5L94.02,23.45L94.39,19.93L94.57,20.12L95.66,19.99L95.84,20.16L96.93,19.9L97.11,20.18L98.38,20.05L98.56,23.66L98.92,16.65L99.47,20.09L99.65,20.23L101.47,20.07L101.65,20.02L103.64,20.11L103.83,20.06L107.27,20.07L107.46,23.55L107.64,16.59L108.18,20.09L108.36,20.02L108.91,20.1L109.09,45.69L109.27,68L109.63,54.71L109.82,41.02L110,25.88L110.18,162.89L110.36,146.53L110.54,19.56L111.45,19.98L111.63,19.99L113.63,20.16L113.81,19.9L113.99,23.63L114.35,20.15L114.53,16.46L115.26,20.23L115.44,20.12L115.62,19.86L116.89,20.63L117.08,20.16L121.07,20.07L121.25,20.06L124.34,20.06L124.52,80.86L124.7,83.59L125.24,83.04L125.43,81.5L125.61,79.4L126.15,80.53L126.33,79.88L126.88,68.73L127.06,72.56L127.24,79.24L127.42,75.2L127.6,52.5L127.78,39.81L127.97,180.35L128.69,19.88L128.87,20.11L129.06,19.94L130.51,19.94L130.69,19.88L131.23,20.16L131.42,23.57L131.96,16.65L132.32,20.17L132.5,19.9L132.87,20.13L133.05,23.47L133.59,16.72L133.96,20.17L134.14,20.28L134.32,20.65L134.86,20.08L135.05,20.12L137.04,20.03L137.22,95.37L137.41,135.12L138.13,133.29L138.31,131.22L138.68,126.37L139.04,126.71L139.22,128.04L139.4,128.3L139.58,125.25L140.31,128.72L140.49,124.41L140.67,125.27L140.85,123.29L141.04,121.54L141.22,124.85L141.4,112.82L142.12,85.62L142.31,86.15L142.49,85.67L142.67,240.97L143.21,82.2L143.39,82.58L143.76,80.97L143.94,78.6L144.3,75.59L144.48,224.2L144.67,229.73L144.85,84.95L146.48,19.88L146.66,20.16L147.03,28.11L147.21,18.98L147.39,20.08L148.3,20.07L148.48,148.7L148.84,179.33L149.02,20.95L149.75,19.27L149.93,20.29L150.11,23.69L150.29,19.86L150.47,45.02L150.66,17.69L151.38,20.11L151.56,20.13L152.83,20.12L153.02,133.65L153.38,144.56L153.56,151.32L154.65,125.25L154.83,129.26L155.01,130.38L155.19,125.17L156.1,122.63L156.28,122.99L156.46,121.22L156.65,110.61L157.19,88.69L157.73,91.09L157.92,92.51L158.64,84.83L159.01,84.89L159.19,87.69L159.73,80.3L159.91,238.58L160.46,78.98L160.82,80.52L161,80.33L161.73,72.63L161.91,80.33L162.09,87.71L162.27,72.7L162.45,57.29L162.64,208.51L163,19.98L163.18,19.98L164.27,19.98L164.45,23.46L164.81,16.52L165.36,20.17L165.54,20.05L165.9,16.69L166.08,23.71L166.27,19.83L166.45,20.11L166.63,16.46L167.17,20.26L167.35,20.02L169.71,20.18L169.9,20.35L170.44,20.12L170.62,23.64L171.35,16.32L171.53,20.1L171.71,20.09L171.89,103.22L172.62,100.81L172.8,101.14L173.71,93.42L173.89,99.34L174.62,92.3L174.8,93.11L174.98,90.52L175.16,90.71L175.34,92.69L176.61,80.46L176.79,241.91L177.52,79.29L177.7,81.64L177.88,80.04L178.06,83.11L178.25,102.11L178.43,111.27L178.97,106.79L179.15,104.67L179.33,118.61L179.52,110.07L179.7,67.63L180.42,19.92L180.61,19.99L180.79,97.63L180.97,19.74L181.69,19.96L181.88,19.73L182.96,20.07L183.15,20.08L183.87,20.15L184.05,23.53L184.42,16.62L184.96,20.05L185.14,20.05L185.32,23.61L185.69,20.12L185.87,16.6L186.41,20.27L186.78,20.12L186.96,20.21L190.23,20.12L190.41,33.78L190.59,132.04L191.31,124.9L191.5,123.73L191.68,127.15L192.04,122.36L192.22,121.55L192.4,123.08L192.58,121.27L192.77,119.29L192.95,121.16L193.13,115.52L193.31,116.21L193.49,119.46L193.86,114.59L194.04,95.86L194.22,79.42L194.4,82.44L194.58,237.1L195.13,237.17L195.49,73.26L195.67,76.76L195.85,77.63L196.03,74.37L196.4,57.84L196.58,63.56L196.76,77.3L196.94,83.03L197.12,68.8L197.3,47.28L198.03,19.93L198.21,20.15L198.39,19.93L199.3,20.03L199.48,23.47L199.85,16.67L200.21,23.53L200.39,20.2L200.57,20.02L200.75,16.56L201.3,20.14L201.48,20.03L205.11,20.19L205.29,20.14L207.29,20.02L207.47,43.13L207.83,133.63L208.38,129.53L208.56,128.03L209.83,92.34L210.01,95.13L210.19,94.61L210.37,87.66L210.55,91.91L211.1,91.15L211.28,83.38L211.46,88.12L212.01,87.19L212.19,82.83L212.37,85.47L213.1,85.39L213.28,80.39L213.64,82.3L213.82,74.65L214,78.27L214.18,75.99L214.37,62.78L215.46,19.9L215.64,20.05L215.82,19.89L216,23.72L216.18,16.51L216.73,19.89L216.91,20L217.09,23.46L217.27,16.65L217.63,20.08L217.82,20.17L218,19.98L218.18,23.64L218.54,16.59L219.09,20.19L219.27,20.04L219.45,20.06L219.63,23.56L220.17,16.53L220.54,20.09L220.72,20.17L224.89,20.06L225.08,20.13L226.35,20.08L226.53,20.06L227.25,20.13L227.44,50.81L227.8,92.27L228.34,91.45L228.52,91.3L229.61,80.04L229.79,82.72L229.98,84.37L230.16,81.96L230.34,83.78L230.52,81.74L231.97,63.38L232.15,211.89L232.88,19.11L233.43,20.09L233.61,23.48L234.15,16.58L234.51,20.2L234.7,19.98L235.97,20.19L236.15,19.93L236.33,23.62L236.69,20.1L236.87,16.46L237.78,20.25L237.96,20.03L239.23,20.18L239.42,20.11L240.69,20.06L240.87,20.1L241.96,20.08L242.14,20.07L245.59,20L245.77,20.15L246.13,20.15L246.31,66.47L246.86,82.97L247.22,79.65L247.4,77.18L247.58,77.46L247.76,81.43L248.67,73.12L248.85,230.09L249.76,41.68L249.94,48.77L250.49,20.6L250.67,137.3L251.03,18.87L251.76,19.92L251.94,20.04L252.12,19.96L252.3,23.57L252.67,16.44L253.03,20.02L253.21,23.67L253.75,16.69L254.12,20.29L254.3,19.92L255.57,20.22L255.75,20.07L257.02,20.21L257.2,20.12L258.11,20.14L258.29,23.59L258.84,16.55L259.2,20.08L259.38,20.1L259.74,20.12L259.93,94.41L260.29,101.08L260.47,94.38L260.83,99.87L261.02,98.07L262.29,88.86L262.47,90.22L263.56,85.64L263.74,84.75L264.1,85.53L264.46,80.89L264.65,84.84L265.55,77.78L265.73,77.98L265.92,76.77L266.64,58.85L266.82,36.97L267.55,20L267.73,20.03L267.91,20.21L268.64,19.89L268.82,23.43L269,16.71L269.55,23.57L269.73,20.19L269.91,16.47L270.27,20.23L270.45,20.22L270.64,19.99L271.36,20.56L271.54,19.59L272.09,20.07L272.27,20.51L272.63,19.83L272.99,20.05L273.18,20.26L274.08,19.94L274.27,20.13L274.81,20.22L274.99,23.53L275.54,16.58L275.72,89.05L276.08,120.27L276.44,107L276.63,100.36L276.81,102.22L276.99,98.76L277.17,96.04L277.35,100.88L277.71,95.73L277.9,97.96L278.08,93.66L278.44,94.45L278.98,90.26L279.17,91.77L279.53,89.18L279.89,90.06L280.07,90.51L280.62,86.72L280.8,89.17L280.98,89.28L281.16,85.53L281.34,86.34L281.53,242.77L281.71,245.99L281.89,83.75L282.07,80L282.25,243.17L282.62,237.46L282.8,80.98L282.98,82.3L283.16,78.73L283.34,78.31L284.07,63.7L284.25,45.09L285.34,19.93L285.52,20.21L286.25,19.99L286.43,20.18L286.61,23.5L286.97,16.5L287.52,20.02L287.7,20.16L290.24,20.06L290.42,23.68L290.78,16.61L291.33,20.13L291.51,20.37L292.24,20.06L292.42,23.7L292.78,16.51L293.32,20.11L293.51,19.98L294.59,20.05L294.78,20.1L295.5,99.03L295.68,92.82L295.87,93.39L296.05,93.25L296.23,90.64L296.41,93.66L296.95,90.6L297.14,89.64L297.32,89.83L297.5,85.98L297.68,89.93L297.86,85.4L298.23,88.17L298.41,83.27L298.59,84.59L298.77,83.18L299.13,83.71L299.31,79.88L299.5,82.11L299.86,78.03L300.04,80.53L300.22,80.39L300.95,70.3L301.13,79.19L301.31,87.56L301.49,235.1L302.4,27.9L302.58,20.04L303.31,19.78L303.49,20.02L303.67,20.69L303.85,20.16L304.03,22.59L304.4,16L304.58,19.92L304.76,20.13L305.12,20.37L305.3,23.17L305.67,16.6L306.21,20.09L306.39,20.06L307.12,19.93L307.3,20.27L308.03,20.13L308.21,20.27L309.3,20.18L309.48,20.16L310.02,20.01L310.21,23.65L310.75,16.61L310.93,56.58L311.29,104.16L311.66,94.76L311.84,94.91L312.02,95.2L312.2,93.86L312.38,89.08L312.93,91.51L313.11,90.38L313.84,87.49L314.02,88.37L314.2,89.77L314.74,82.77L314.92,85.61L315.11,86.39L315.83,79.57L316.01,81.26L316.19,79.28L317.28,74.45L317.47,77.01L317.65,77.1L317.83,76.53L318.01,74.55L318.19,74.43L318.37,72.72L318.74,69.2L318.92,73.01L319.1,77.78L319.28,222.97L319.64,23.19L319.83,23.46L320.01,20.02L320.19,20.05L320.37,128.95L320.55,19.26L321.28,19.92L321.46,20.09L322,19.94L322.18,23.49L322.37,16.34L322.91,19.75L323.09,20L323.27,20.56L323.46,19.62L323.82,20.05L324,20.02L324.54,20.27L324.73,20.09L324.91,20.09L326.36,20.33L326.54,23.57L326.9,16.62L327.45,20.12L327.63,19.98L329.26,20.05L329.45,20.07L329.63,20.08L329.81,98.66L330.35,134.61L330.72,123.24L330.9,124.91L331.44,98.96L331.62,93.33L332.17,86.07L332.53,87.58L332.71,86.25L332.89,242.9L333.44,82.08L333.62,239.3L333.8,241.7L333.98,77.87L334.71,81.29L334.89,75.26L335.07,78.98L335.62,76.25L335.8,68.5L335.98,72.3L336.16,64.64L336.34,55.03L336.52,58.9L336.71,56.69L336.89,32.64L337.61,19.78L337.79,19.99L337.98,23.36L338.34,16.39L338.88,20.04L339.07,20L339.25,23.56L339.61,16.64L339.79,20.01L339.97,20.14L341.61,20.06L341.79,20.2L341.97,23.61L342.33,19.99L342.51,16.7L342.88,20.38L343.42,20.06L343.6,20.1L346.87,20.14L347.05,19.99L348.14,20.13L348.32,19.99L349.41,20.18L349.59,19.95L350.32,20.13L350.5,74.29L351.05,79.96L351.23,77.16L351.41,77.06L351.59,76.01L351.77,75.65L351.95,77.72L352.68,70.71L352.86,230.81L353.77,43.39L353.95,34.35L354.31,20.08L354.49,133.89L354.68,145.73L354.86,20L355.04,95.79L355.4,17.86L355.58,20.02L355.76,20.01L357.58,20.03L357.76,23.61L358.31,16.63L358.67,20.09L358.85,20.04L359.03,16.65L359.39,20.18L359.58,20.1L359.76,20.2L360.67,20.11L360.85,20.28L362.3,20.09L362.48,20.04L365.2,20.03L365.38,20.06L367.93,20.18L368.11,19.97L369.02,20.17L369.2,78.33L369.38,71.01L369.56,74.98L369.74,233.57L370.65,60.2L370.83,73.07L371.37,94.29L371.56,91.5L371.74,54.86L371.92,184.7L372.28,20.01L372.46,20.08L373.01,19.82L373.19,20.1L373.37,23.49L373.55,16.54L374.1,20.04L374.28,20.09L374.46,23.4L374.82,20.01L375.01,20.13L375.19,16.62L375.73,20.26L376.09,20.06L376.28,20.07L384.44,20.1L384.63,26.56L385.17,83.68L385.53,76.87L385.71,77.61L385.9,78.46L386.08,77.48L386.26,75.89L386.62,74.66L386.8,78.65L387.17,71.05L387.71,71.1L387.89,71.29L388.07,69.62L388.26,224.71L389.16,51.13L389.34,62.45L389.53,50.74L389.71,198.72L389.89,211.26L390.07,33.34L390.98,19.79L391.16,20.01L392.07,20.14L392.25,20L393.16,20.1L393.34,19.99L394.25,20.21L394.43,20.1L395.15,20.19L395.33,23.6L396.24,16.83L396.42,23.59L396.97,16.64L397.33,20.03L397.51,20.12L397.69,20.03L397.88,44.6L398.06,144.06L398.78,135.55L398.96,134.66L399.51,126.78L399.69,128.35L399.87,132.03L400.42,125.17L400.6,126.72L400.78,128.26L402.41,79.05L402.59,84.34L402.78,85.63L402.96,81.63L403.14,85.69L403.5,80.64L403.68,85.05L403.87,78.4L404.05,77.85L404.23,83.24L405.32,75.59L405.5,73.97L405.68,75.22L405.86,92.9L406.04,103L406.23,81.25L406.41,70.86L406.77,36.84L406.95,44.48L407.13,65.14L408.04,19.89L408.22,20.05L408.4,19.51L408.77,20.16L408.95,19.8L409.13,23.73L409.31,16.51L409.86,20.08L410.04,20.01L410.58,20.22L410.76,23.68L411.31,16.65L411.67,20.28L411.85,20.1L414.39,20.12L414.57,20.14L416.03,20.04L416.21,20.07L416.75,20.07L416.93,109.47L417.84,113.27L418.02,113.09L419.29,86L419.48,89.25L419.66,83.37L420.02,85.88L420.2,244.11L421.11,76.77L421.29,83.74L421.47,84.06L421.65,78.27L421.84,83.45L422.2,75.83L422.38,82.47L422.56,77.38L422.74,75.39L422.92,82.55L423.29,110.3L423.47,96.63L423.65,79.84L424.38,32.96L424.56,37.15L424.74,181.35L424.92,168.91L425.1,20.32L425.83,19.85L426.01,20.02L426.19,19.98L426.74,20.02L426.92,23.76L427.1,16.37L427.64,20.17L427.83,19.98L428.91,20.12L429.1,20.09L430.73,20.17L430.91,20.14L432,20.15L432.18,20.01L433.63,20.04L433.82,20.13L435.09,20.08L435.27,20.11L435.81,20.09L435.99,51.5L436.54,112.13L436.9,111.34L437.08,108.71L437.45,112.3L437.63,106.69L437.81,265.99L438.72,79.25L438.9,77.22L439.44,77.03L439.81,80.43L439.99,73.34L440.17,74.75L440.35,72.86L440.53,74.63L440.71,95.67L440.89,100.66L441.08,84.25L441.44,59.54L441.62,191.12L442.53,19.98L442.71,19.97L444.71,20.17L444.89,20.06L445.79,20.07L445.98,23.56L446.34,16.61L446.88,20.08L447.07,20.03L448.15,20.18L448.34,20.19L452.15,20.06L452.33,23.55L452.51,235.11L453.06,107.05L453.24,103.4L453.42,101.16L453.6,105.44L453.96,103.17L454.14,104L455.6,75.59L455.78,79.59L456.14,71.53L456.69,73.4L456.87,73.15L457.05,75.58L457.41,71.21L457.59,73.52L457.77,227.43L457.96,224.91L458.14,226.82L458.32,59.65L459.41,19.89L459.59,20L460.5,20.01L460.68,23.58L461.04,16.56L461.59,20.13L461.77,20.02L463.22,20.15L463.4,19.99L464.31,20.28L464.49,19.98L465.4,20.2L465.58,20.16L468.48,20.17L468.67,19.96L469.94,20.12L470.12,20.04L473.38,20.07L473.57,23.54L474.11,16.54L474.29,20.05L474.47,27.6L474.66,74.4L475.38,69.19L475.56,60.87L476.83,19.63L477.2,20.12L477.38,20.2L478.29,19.85L478.47,20.01L478.65,20.01L479.92,20.1L480.1,19.97L481.19,20.15L481.37,20.11L482.64,20.06L482.82,23.82L483.37,16.67L483.73,20.11L483.91,20.16L487.54,20.02L487.72,20.09L492.26,20.02L492.44,45.82L492.63,47.61L492.81,35.38L493.17,48.2L493.35,41L493.53,24.59L493.71,161.68L494.08,19.56L494.26,19.93L494.44,20L494.62,24.03L494.8,87.1L494.98,140.24L495.17,19.5L495.35,20.02L497.16,20.06L497.34,20.11L497.53,20.12L497.71,23.58L498.25,16.63L498.62,20.14L498.8,20.19L499.7,20.12L499.89,23.71L500.43,16.44L500.79,20.01L500.97,20.25L501.7,20.06L501.88,20.11L502.79,20.04L502.97,91.17L503.15,110.79L503.7,103.74L503.88,96.98L504.06,101.58L504.42,96.85L504.61,99.3L504.79,93.48L504.97,99.69L505.33,90.34L505.51,97.28L505.69,96.4L506.06,97.03L506.42,88.44L506.6,92.5L506.78,95.49L507.15,90.01L507.33,89.5L507.69,93.33L508.24,84.75L508.42,85.94L508.6,88.59L508.78,84.58L508.96,84.61L509.14,83.67L509.32,78.08L509.69,83.11L509.87,84.4L510.05,79.21L510.23,238.63L511.14,20.26L511.32,19.98L514.59,19.94L514.77,23.68L515.13,16.67L515.68,19.96L515.86,20.33L516.04,23.53L516.22,20.08L516.58,20.18L516.77,19.97L516.95,20.28L517.13,20.15L517.31,16.62L518.04,20.19L518.22,20.13L518.4,20.15L518.94,20.15L519.13,108.16L519.49,167.39L520.03,161.04L520.22,161.18L521.49,139.2L521.67,140.54L522.39,112.92L522.57,100.39L523.48,94.73L523.66,93.99L523.85,96.67L524.21,91.9L524.39,91.13L524.75,93.22L524.93,88.35L525.3,93.59L525.48,89.9L525.66,87.53L525.84,88.51L526.02,245.09L526.93,82.6L527.11,241.98L528.02,69.57L528.2,61.95L528.56,63.03L528.75,52.76L529.65,19.96L529.84,20L530.02,20.1L530.74,20.01L530.92,23.56L531.29,16.49L531.83,20.07L532.01,20.13L532.38,19.89L532.56,23.79L532.92,16.59L533.28,20.15L533.47,23.75L533.83,20.05L534.01,92.88L534.19,189.15L534.37,45.95L534.55,80.99L534.74,69.19L534.92,60.22L535.28,60.68L535.46,73.84L536.73,133.31L536.91,135.12L538.37,111.42L538.55,109.18L538.73,110.85L538.91,106.62L539.09,104.1L539.27,104.95L539.46,104.19L539.64,101.6L539.82,100.77L540,104.76" style="vector-effect: non-scaling-stroke; fill: none; stroke: rgb(0, 191, 255); stroke-opacity: 1; stroke-width: 2px; opacity: 1;"/></g><g class="points"/><g class="text"/></g></g></g><g class="overplot"/><path class="xlines-above crisp" d="M0,0" style="fill: none;"/><path class="ylines-above crisp" d="M0,0" style="fill: none;"/><g class="overlines-above"/><g class="xaxislayer-above"><g class="xtick"><text text-anchor="middle" x="0" y="433" transform="translate(184.55,0)" style="font-family: sans-serif; font-size: 12px; fill: rgb(42, 63, 95); fill-opacity: 1; white-space: pre; opacity: 1;"><tspan class="line" dy="0em" x="0" y="433">Aug 7</tspan><tspan class="line" dy="1.3em" x="0" y="433">2022</tspan></text></g><g class="xtick"><text text-anchor="middle" x="0" y="433" style="font-family: sans-serif; font-size: 12px; fill: rgb(42, 63, 95); fill-opacity: 1; white-space: pre; opacity: 1;" transform="translate(306.53,0)">Aug 14</text></g><g class="xtick"><text text-anchor="middle" x="0" y="433" style="font-family: sans-serif; font-size: 12px; fill: rgb(42, 63, 95); fill-opacity: 1; white-space: pre; opacity: 1;" transform="translate(428.5,0)">Aug 21</text></g><g class="xtick"><text text-anchor="middle" x="0" y="433" style="font-family: sans-serif; font-size: 12px; fill: rgb(42, 63, 95); fill-opacity: 1; white-space: pre; opacity: 1;" transform="translate(550.48,0)">Aug 28</text></g></g><g class="yaxislayer-above"><g class="ytick"><text text-anchor="end" x="79" y="4.199999999999999" transform="translate(0,374.89)" style="font-family: sans-serif; font-size: 12px; fill: rgb(42, 63, 95); fill-opacity: 1; white-space: pre; opacity: 1;">−80k</text></g><g class="ytick"><text text-anchor="end" x="79" y="4.199999999999999" style="font-family: sans-serif; font-size: 12px; fill: rgb(42, 63, 95); fill-opacity: 1; white-space: pre; opacity: 1;" transform="translate(0,311.18)">−60k</text></g><g class="ytick"><text text-anchor="end" x="79" y="4.199999999999999" style="font-family: sans-serif; font-size: 12px; fill: rgb(42, 63, 95); fill-opacity: 1; white-space: pre; opacity: 1;" transform="translate(0,247.48)">−40k</text></g><g class="ytick"><text text-anchor="end" x="79" y="4.199999999999999" style="font-family: sans-serif; font-size: 12px; fill: rgb(42, 63, 95); fill-opacity: 1; white-space: pre; opacity: 1;" transform="translate(0,183.78)">−20k</text></g><g class="ytick"><text text-anchor="end" x="79" y="4.199999999999999" style="font-family: sans-serif; font-size: 12px; fill: rgb(42, 63, 95); fill-opacity: 1; white-space: pre; opacity: 1;" transform="translate(0,120.07)">0</text></g></g><g class="overaxes-above"/></g></g><g class="polarlayer"/><g class="smithlayer"/><g class="ternarylayer"/><g class="geolayer"/><g class="funnelarealayer"/><g class="pielayer"/><g class="iciclelayer"/><g class="treemaplayer"/><g class="sunburstlayer"/><g class="glimages"/><defs id="topdefs-64359c"><g class="clips"/></defs><g class="layer-above"><g class="imagelayer"/><g class="shapelayer"/></g><g class="infolayer"><g class="g-gtitle"><text class="gtitle" x="350" y="50" text-anchor="middle" dy="0em" style="font-family: sans-serif; font-size: 17px; fill: rgb(42, 63, 95); opacity: 1; font-weight: normal; white-space: pre;"><tspan class="line" dy="0em" x="350" y="50"><tspan style="font-weight:bold">Scenario 8</tspan></tspan><tspan class="line" dy="1.3em" x="350" y="50"><tspan style="font-weight:bold">Microgrid Output</tspan></tspan><tspan class="line" dy="2.6em" x="350" y="50"><tspan style="font-weight:bold">From: August 01, 2022 to August 31, 2022</tspan></tspan></text></g><g class="g-xtitle"><text class="xtitle" x="350" y="476.409375" text-anchor="middle" style="font-family: sans-serif; font-size: 14px; fill: rgb(42, 63, 95); opacity: 1; font-weight: normal; white-space: pre;"><tspan style="font-weight:bold">Time</tspan></text></g><g class="g-ytitle"><text class="ytitle" transform="rotate(-90,27.840625000000003,260)" x="27.840625000000003" y="260" text-anchor="middle" style="font-family: sans-serif; font-size: 14px; fill: rgb(42, 63, 95); opacity: 1; font-weight: normal; white-space: pre;"><tspan style="font-weight:bold">Demand (kW)</tspan></text></g></g></svg>