<svg class="main-svg" xmlns="http://www.w3.org/2000/svg" xmlns:xlink="http://www.w3.org/1999/xlink" width="700" height="500" style="" viewBox="0 0 700 500"><rect x="0" y="0" width="700" height="500" style="fill: rgb(255, 255, 255); fill-opacity: 1;"/><defs id="defs-9267f3"><g class="clips"><clipPath id="clip9267f3xyplot" class="plotclip"><rect width="540" height="320"/></clipPath><clipPath class="axesclip" id="clip9267f3x"><rect x="80" y="0" width="540" height="500"/></clipPath><clipPath class="axesclip" id="clip9267f3y"><rect x="0" y="100" width="700" height="320"/></clipPath><clipPath class="axesclip" id="clip9267f3xy"><rect x="80" y="100" width="540" height="320"/></clipPath></g><g class="gradients"/><g class="patterns"/></defs><g class="bglayer"/><g class="layer-below"><g class="imagelayer"/><g class="shapelayer"/></g><g class="cartesianlayer"><g class="subplot xy"><g class="layer-subplot"><g class="shapelayer"/><g class="imagelayer"/></g><g class="minor-gridlayer"><g class="x"/><g class="y"/></g><g class="gridlayer"><g class="x"><path class="xgrid crisp" transform="translate(184.55,0)" d="M0,100v320" style="stroke: rgb(255, 255, 255); stroke-opacity: 1; stroke-width: 1px;"/><path class="xgrid crisp" transform="translate(306.53,0)" d="M0,100v320" style="stroke: rgb(255, 255, 255); stroke-opacity: 1; stroke-width: 1px;"/><path class="xgrid crisp" transform="translate(428.5,0)" d="M0,100v320" style="stroke: rgb(255, 255, 255); stroke-opacity: 1; stroke-width: 1px;"/><path class="xgrid crisp" transform="translate(550.48,0)" d="M0,100v320" style="stroke: rgb(255, 255, 255); stroke-opacity: 1; stroke-width: 1px;"/></g><g class="y"><path class="ygrid crisp" transform="translate(0,395.35)" d="M80,0h540" style="stroke: rgb(255, 255, 255); stroke-opacity: 1; stroke-width: 1px;"/><path class="ygrid crisp" transform="translate(0,355.45)" d="M80,0h540" style="stroke: rgb(255, 255, 255); stroke-opacity: 1; stroke-width: 1px;"/><path class="ygrid crisp" transform="translate(0,315.53999999999996)" d="M80,0h540" style="stroke: rgb(255, 255, 255); stroke-opacity: 1; stroke-width: 1px;"/><path class="ygrid crisp" transform="translate(0,275.63)" d="M80,0h540" style="stroke: rgb(255, 255, 255); stroke-opacity: 1; stroke-width: 1px;"/><path class="ygrid crisp" transform="translate(0,235.72)" d="M80,0h540" style="stroke: rgb(255, 255, 255); stroke-opacity: 1; stroke-width: 1px;"/><path class="ygrid crisp" transform="translate(0,195.82)" d="M80,0h540" style="stroke: rgb(255, 255, 255); stroke-opacity: 1; stroke-width: 1px;"/><path class="ygrid crisp" transform="translate(0,155.91)" d="M80,0h540" style="stroke: rgb(255, 255, 255); stroke-opacity: 1; stroke-width: 1px;"/></g></g><g class="zerolinelayer"><path class="yzl zl crisp" transform="translate(0,116)" d="M80,0h540" style="stroke: rgb(255, 255, 255); stroke-opacity: 1; stroke-width: 2px;"/></g><path class="xlines-below"/><path class="ylines-below"/><g class="overlines-below"/><g class="xaxislayer-below"/><g class="yaxislayer-below"/><g class="overaxes-below"/><g class="plot" transform="translate(80,100)" clip-path="url(#clip9267f3xyplot)"><g class="scatterlayer mlayer"><g class="trace scatter trace0ba139" style="stroke-miterlimit: 2; opacity: 0.5;"><g class="fills"/><g class="errorbars"/><g class="lines"><path class="js-line" d="M0,106.7L0.91,98.02L1.09,99.44L1.27,100.82L1.63,93.21L2.18,94.62L2.36,97.1L2.72,97L2.9,89.84L3.09,95.78L3.45,91.55L3.63,88.89L3.81,87.86L3.99,93.29L4.17,88.54L4.54,93.51L4.72,90.03L4.9,100.16L6.9,188.46L7.08,180.37L8.17,206.15L8.35,197.63L8.53,191.82L8.89,173.27L9.08,186.85L9.44,221.17L9.62,246.95L11.44,192.6L11.62,184.52L12.71,164.39L12.89,161.68L13.79,138.67L13.98,142.39L14.16,142.66L15.25,112.83L15.43,112.16L15.79,111.24L15.97,115.08L16.15,110.15L16.52,107.18L16.7,108.2L16.88,112.15L17.43,102.35L17.97,104.98L18.15,103.81L19.24,97.69L19.42,100.77L19.97,93.02L20.15,98.14L20.33,98.66L20.51,90.27L21.24,91.14L21.42,90.92L21.6,93.1L21.78,89.86L21.96,91.41L22.14,89.97L23.96,163.89L24.14,158.02L25.41,185.56L25.59,180.69L25.96,178.08L26.5,178.23L26.68,191.01L26.86,190.33L27.05,196.13L27.41,189.29L27.59,196.8L27.77,204.2L28.32,209.02L29.04,174.09L29.22,175.44L29.41,179.95L30.49,155.84L30.68,150.65L33.22,109.31L33.4,111.43L33.58,111.51L33.76,108.99L35.39,98.74L35.58,102.69L35.76,102.16L35.94,97.51L36.12,99.23L36.3,97.35L36.67,97.75L36.85,95.88L37.57,90.42L37.75,92.77L38.48,85.36L38.66,90.52L38.84,93.5L39.03,87.63L39.57,92.33L39.75,96.25L42.47,155.95L42.66,157.26L43.02,147.77L43.2,164.08L43.38,179.53L43.56,175.78L43.74,192.47L44.47,173.2L44.65,183.26L45.02,169L45.2,189.74L45.56,183.85L46.1,204.54L46.29,213.39L47.56,156.95L47.74,164.25L48.1,155.07L48.28,149.54L51.01,108.15L51.19,109.31L52.28,104.62L52.46,106.98L53.18,98.5L53.55,99.49L53.73,100.44L54.45,92.49L55,92.77L55.18,94.23L55.91,87.56L56.09,94.52L56.81,86.34L56.99,92.93L58.81,181.04L59.35,174.74L59.54,168.06L60.26,181.19L60.44,174.59L60.63,172.07L61.17,164.61L61.35,171.83L61.53,186.86L61.71,180.62L61.9,190.27L62.08,188.86L62.26,202.69L62.44,220.23L62.98,210.52L63.17,211.48L63.35,217.42L63.71,205.22L63.89,204.37L64.62,191.66L64.8,169.75L66.07,154.03L66.25,149.96L66.43,148.17L66.8,151.33L66.98,150.26L67.16,151.69L67.34,140.83L68.25,127.84L68.43,130.25L69.88,98.02L70.06,103.4L70.43,104.97L70.61,101.98L70.79,95.84L70.97,102.86L71.33,100.14L71.52,94.84L71.7,90.61L71.88,100.24L72.24,91.48L72.42,92.85L72.61,95.55L72.79,91.54L73.15,93.24L73.33,88.92L74.24,95.02L74.42,59.84L75.33,16L75.51,81.21L76.42,162.69L76.6,160.78L76.78,157.37L76.96,170.47L77.14,167.64L77.32,177.38L77.87,207.05L78.05,191L78.23,175.04L78.78,194.5L78.96,192.23L79.14,181.37L79.32,194.16L79.68,169.84L79.87,182.91L80.05,186.21L80.23,180.87L80.59,188.36L80.77,187.03L80.95,197.4L81.68,169.79L81.86,173.37L82.04,170.43L82.23,175.09L82.41,164.78L82.59,154.95L82.77,161.37L83.13,154.38L83.31,151.53L83.68,151.65L83.86,139.92L84.95,117.15L85.31,118.05L85.49,116.27L85.67,118.33L85.86,115.13L86.04,117.23L86.22,114.21L86.4,111.61L86.76,115.77L86.94,114.92L88.4,95.61L88.58,95.36L89.67,89.25L89.85,87.15L90.21,89.25L90.57,84.36L90.76,86.63L90.94,81.37L91.66,81.84L91.85,81.42L93.12,110.71L93.3,107.91L94.21,126.89L94.39,124.74L95.66,153.14L95.84,154.19L96.93,177.86L97.11,170.83L97.84,191.39L98.02,184.22L98.2,184.73L98.38,191.26L98.74,179.17L98.92,174.46L100.01,159.5L100.19,161.92L101.65,129.43L101.83,126.98L102.37,112.43L102.55,104.58L102.92,110.15L103.1,102.89L103.28,106.08L103.46,102.93L103.64,101.98L103.83,105.6L104.55,98.09L104.73,100.05L104.91,98.08L105.1,97.89L105.28,95.06L105.46,94.76L105.64,92.14L105.82,92.09L106,89.71L106.91,86.79L107.09,88.43L107.27,88.58L108,83.16L108.18,86.78L108.91,80.97L109.09,85.52L109.27,83.1L109.45,85.78L109.63,89.93L111.81,142.6L111.99,140.52L112.17,143.02L112.36,162.55L112.54,159.83L112.72,161.13L112.9,172.38L113.26,202.13L113.63,189.89L113.81,191.5L113.99,183.01L114.53,187.7L114.72,190.79L114.9,198.69L115.08,188.7L115.44,190.68L115.62,186.09L115.99,193.88L116.17,180.13L116.35,179.35L116.53,183.83L116.71,174.65L116.89,177.23L117.08,170.55L118.16,146.76L118.35,146.65L118.53,149.37L118.71,145.7L118.89,129.22L119.25,139.97L119.44,131.74L119.62,119.31L119.98,119.56L120.71,109.27L120.89,109.68L121.07,109.97L121.98,104.06L122.16,105.93L122.7,106.31L122.88,102.6L123.07,102.89L123.25,102.29L123.79,99.47L123.97,101.22L125.06,92.73L125.24,94.49L125.61,89.94L126.15,91.59L126.33,91.43L126.88,97.07L127.06,111.28L128.33,153.93L128.51,155.31L129.06,172.08L129.24,165.02L129.42,166.39L130.33,231.3L130.51,227.92L130.69,210.09L131.05,196.4L131.42,208.7L131.6,214.89L131.96,223.83L132.32,223.52L132.5,218.17L132.87,228.19L133.96,176.33L134.14,188.65L134.68,186.89L134.86,177.09L135.95,161.25L136.13,159.84L136.5,164.81L136.68,157.95L136.86,152.79L137.59,135.52L137.95,136.27L138.13,137.19L138.68,128.38L139.04,128.84L139.22,130.5L139.4,130.83L139.58,126.9L140.31,131.21L140.49,125.83L140.67,126.98L140.85,124.56L141.04,122.33L141.22,126.42L141.4,117.99L141.58,108.29L142.67,93.92L142.85,94.98L143.94,90.94L144.12,92.41L145.94,154.79L146.12,156.98L147.03,193.08L147.21,118.87L148.11,16L148.3,16L149.57,16L149.75,109.59L150.11,241.33L150.66,221.55L150.84,207.34L151.74,191.81L151.93,191.89L153.2,155.61L153.38,160.95L153.56,163.39L153.74,151.21L153.92,149.14L154.1,150.3L154.29,154.93L155.37,127.16L155.56,127.03L155.92,129.95L156.1,126.74L156.28,127.22L156.46,125.77L157.19,101.59L157.55,102.96L157.73,103.76L157.92,105.51L158.1,103.05L158.28,104.33L158.46,98.57L158.64,96.75L159.01,96.81L159.19,100.32L160.46,89.42L160.64,90.81L160.82,91.34L161,91.26L161.18,89.65L161.36,85.57L161.55,91.7L161.73,98.84L163.54,188.3L163.72,193.73L164.81,178.41L164.99,181.71L166.08,237.99L166.27,231.9L166.45,217.71L166.81,214.53L166.99,220.18L167.35,247.91L167.72,223.17L167.9,220.79L169.35,171.4L169.53,170.74L169.71,157.34L170.08,172.14L170.26,175.58L170.44,176L170.62,167.13L170.8,168.66L170.98,164.98L171.17,164.3L172.44,109.88L172.62,116.77L172.8,117.17L172.98,111.99L173.16,111.76L173.34,113.3L173.89,114.92L174.25,106.57L174.43,107.46L174.98,103.86L175.16,104.11L175.34,106.59L176.61,91.26L176.79,95.11L177.52,89.8L177.7,92.75L177.88,90.75L178.06,90.86L178.25,105.17L180.42,155.81L180.61,155.17L181.69,210.19L181.88,190.02L182.42,169.59L182.78,178.17L182.96,176.36L183.15,177.56L183.33,187.13L183.51,185.73L183.69,187.23L183.87,207.9L184.24,205.96L184.6,212.03L184.78,209.06L184.96,210.7L185.14,207.5L185.32,202.8L185.51,203.61L185.69,203.52L185.87,193.41L186.05,190.52L186.41,195.49L186.59,204.08L187.32,183L187.5,168.29L187.87,185.43L188.05,170.74L188.23,158.46L188.41,162.39L188.95,160.4L189.14,148.88L189.86,132.01L190.23,133.72L190.41,135.11L190.59,135.45L190.77,133.08L191.5,124.99L191.68,129.26L191.86,127.29L192.77,119.55L192.95,121.87L194.22,89.96L194.4,93.75L194.58,89.08L194.76,89.14L194.94,86.06L195.31,89.73L195.49,82.25L195.85,87.85L196.22,83.67L196.4,86.1L198.57,176.23L198.76,180.4L199.48,194.05L199.66,183.74L199.85,183.63L200.03,189.4L200.21,179.32L200.39,192.57L200.57,202.48L201.12,188.16L201.3,189.72L201.48,195.92L201.66,191.06L201.84,200.17L202.02,216.58L202.75,245.6L202.93,228.55L203.11,211.82L203.66,222.63L203.84,214.97L204.93,179.15L205.11,181.23L205.29,180.65L205.47,175.13L207.47,136.06L207.65,138.95L207.83,139.03L209.83,106.15L210.01,109.64L210.19,108.99L210.37,100.28L210.55,105.61L211.1,104.66L211.28,94.92L211.46,100.86L212.01,99.69L212.19,94.23L212.37,97.54L213.1,97.44L213.28,91.28L214,107.42L214.18,113.8L214.37,113.92L214.55,117.4L214.73,118.08L214.91,125.82L215.82,133.51L216,144.18L216.54,173.3L216.91,165.05L217.09,158.91L218.72,195.95L218.9,191.17L219.27,207.23L219.81,201.65L219.99,203.13L221.08,174.12L221.26,181.5L222.35,156.78L222.53,163.97L222.72,161.38L223.62,136.96L223.81,138.82L223.99,135.36L224.89,115.18L225.08,119.27L225.26,115.84L226.16,107.79L226.35,110.17L226.71,108.11L226.89,108.65L227.07,105.14L227.44,108.26L227.62,103.04L227.8,106.07L227.98,103.78L228.16,103.19L228.34,105.04L228.52,104.85L229.61,90.75L229.79,94.1L229.98,96.16L230.16,93.14L230.34,95.43L230.52,92.87L230.7,90.47L231.07,92.65L231.25,94.83L231.79,101.15L231.97,107.99L232.15,108.28L232.34,111.51L232.52,112.63L232.7,120.05L232.88,120.53L233.06,124.28L234.7,161.82L235.06,158.1L235.24,161.2L235.97,180.94L236.15,179.74L236.33,169.47L237.24,194.35L237.42,191.08L238.33,174.41L238.51,176.79L238.87,162.48L239.05,168.14L239.23,175.62L240.14,146.51L240.32,147.02L240.5,145.85L242.68,110.64L242.86,111.01L243.05,112.18L243.23,108L243.95,101.61L244.13,109.18L244.86,102.25L245.04,104.25L245.22,101.61L245.41,102.54L245.59,96.69L245.77,96.99L245.95,96.71L246.13,95.74L246.31,96.43L246.49,89.8L246.86,94.4L247.22,90.24L247.4,87.15L247.58,87.5L247.76,92.48L248.31,84.42L248.49,90.35L248.67,91.43L248.85,94.77L249.04,115.98L250.49,187.85L250.67,181.6L250.85,177.25L251.03,176.41L251.21,187.13L251.39,193.17L251.58,186.73L251.76,179.22L252.3,168.02L252.48,180.41L252.85,178.3L253.03,188.96L253.57,197.31L253.75,228.83L254.3,235.17L254.48,220.33L254.66,222.07L254.84,204.48L255.21,225.42L255.39,214.17L255.57,218.64L256.11,206.75L256.3,192.97L257.93,136.99L258.11,147.46L258.29,151.14L258.66,146.4L258.84,140.43L259.93,113.92L260.11,115.25L260.29,117.12L260.47,108.72L260.83,115.6L261.2,110.97L261.38,107.33L262.29,101.79L262.47,103.49L263.56,97.75L263.74,96.63L264.1,97.61L264.46,91.8L264.65,96.75L265.55,87.99L265.73,88.6L265.92,90.6L266.1,90.53L266.28,92.62L267.19,117.66L267.37,115.99L268.46,178.14L268.64,171.17L268.82,161.45L269.91,209.15L270.09,203.79L271.36,263.04L271.54,256.5L271.72,245.28L271.91,243.67L272.09,246.83L272.27,245.51L272.45,231.71L272.81,235.68L273.54,213.19L273.72,214.05L273.9,218.7L275.17,149.33L275.35,152.19L275.54,149.39L277.17,110.79L277.35,116.85L278.62,104.96L278.8,104.95L279.17,105.44L279.53,102.19L279.71,102.6L279.89,103.28L280.07,103.85L280.26,102.74L280.44,101.78L280.98,102.31L281.53,96.17L281.71,99.12L282.62,88.43L282.8,90.82L283.16,89.64L284.25,113L284.43,121.84L285.34,142.78L285.52,156.22L286.79,222.08L286.97,221.12L287.15,223.45L287.33,215.13L287.52,195.3L287.88,212.58L288.06,217.96L288.24,226.27L288.79,219.45L288.97,211.67L289.15,212.36L289.33,198.04L289.51,196.99L289.69,205.31L291.33,166.82L291.51,172.56L291.69,184.55L292.05,173.34L292.24,156.61L294.05,113.25L294.23,117.15L294.41,119.18L295.32,108.03L295.5,114.54L296.23,104.02L296.41,107.81L297.5,98.18L297.68,103.13L298.41,94.78L298.59,96.44L298.77,94.67L299.13,95.33L299.31,90.53L299.5,93.33L299.86,88.23L300.04,91.36L300.22,91.18L300.95,87.57L301.13,102.22L302.58,166.71L302.76,168.57L303.13,180.28L303.67,177.68L303.85,170.93L304.03,167.99L304.22,187.21L304.94,218.8L305.3,216.57L305.49,217.74L306.21,229.32L306.39,222.94L306.57,215.88L306.76,218.45L306.94,214.66L307.12,196.32L307.3,199.75L307.48,198.16L307.66,186.27L307.85,185.89L308.03,171.54L308.39,177.48L308.57,172.49L308.75,162.12L309.66,139.99L309.84,141.78L310.21,126.58L310.75,126.73L310.93,126.36L312.38,102.07L312.56,102.48L312.75,102.37L312.93,105.11L313.84,100.06L314.02,101.17L314.2,102.92L314.74,94.15L314.92,97.71L315.11,98.68L315.83,90.14L316.01,92.26L316.19,89.79L317.28,83.73L317.47,86.94L317.65,87.05L317.83,86.4L318.01,84.38L318.74,101.96L318.92,111.93L320.19,171.33L320.37,171.11L320.55,164.96L320.91,176.43L321.1,179.55L322.18,148.32L322.37,160.97L322.55,166.11L323.64,183.43L323.82,197.67L324,187.46L324.18,203.5L324.36,212.41L324.54,211.93L324.73,222.89L325.82,191.7L326,189.83L326.72,168.78L326.9,169.09L327.09,163.89L327.27,164.41L327.45,161.52L327.81,139.38L328.36,141.88L328.54,139.36L329.08,123.2L329.63,124.04L329.81,122.87L329.99,123.25L330.17,132.09L330.35,140.68L330.72,126.39L330.9,128.48L332.17,98.29L332.53,100.17L332.71,98.51L333.98,86.92L334.16,91.03L334.53,93.01L334.71,92.29L334.89,84.74L335.07,89.39L335.62,89.15L335.8,85.9L336.89,126.84L337.07,115.48L337.43,135.18L337.61,132.6L337.79,124.84L337.98,117.62L338.34,125.66L338.52,124.52L338.7,132.86L339.07,135.76L339.25,138.6L339.61,145.72L339.79,147.71L339.97,148.27L340.15,152.97L342.15,202.67L342.33,199.84L342.51,185.15L342.88,190.19L343.06,189.27L343.24,177.95L345.6,125.92L345.78,124.3L346.69,101.82L347.23,102.25L347.42,102.51L347.96,94.98L348.32,97.59L348.5,100.63L348.69,100.55L348.87,94.68L349.05,100.9L349.23,92.47L349.59,96.16L349.77,89.43L349.96,95.69L350.14,87.97L350.5,92.73L350.68,84.52L351.05,90.63L351.41,86.99L351.59,85.68L351.77,85.23L351.95,87.83L352.68,79.09L352.86,81.58L353.04,84.45L353.22,83.91L353.41,87.63L353.59,86.81L353.77,92.48L354.13,91.96L355.04,134.75L355.22,130.12L355.4,118.62L355.58,110.45L355.95,118.65L356.13,126.22L356.31,126.18L356.49,123.02L357.94,146.69L358.12,147.59L359.21,163.29L359.39,162.75L359.76,167.68L359.94,157.97L360.12,157.76L360.3,159.37L361.21,149.66L361.39,161.51L361.57,165.73L361.75,150.61L362.84,124.48L363.03,122.18L363.21,120.52L363.39,122.58L363.57,113.51L364.11,101.47L364.48,102.41L364.66,102.62L365.02,102.38L365.2,103.16L365.38,96.7L365.93,96.99L366.11,99.76L366.84,90.2L367.02,96.94L367.74,80.9L367.93,92.19L368.11,93.34L368.29,78.46L368.65,92.09L368.83,77.84L369.2,89.04L369.38,79.41L369.92,78.67L370.29,85.09L370.47,80.91L370.65,76.99L370.83,94.41L371.56,146.97L371.74,130.97L371.92,131.06L373.73,182.9L373.92,173.91L374.1,160.67L374.28,162.48L374.46,156.01L374.82,158.55L375.01,157.75L375.19,165.75L375.91,190.94L376.09,177.52L376.46,181.17L376.64,174.27L377,189.17L377.18,180.81L377.36,172.46L377.55,171.26L377.73,173.83L377.91,162.67L378.09,169.3L378.27,163.22L378.45,149.02L379,154.55L379.18,141.61L379.54,145.91L379.72,138.23L379.91,137.2L380.09,129.68L380.27,131.07L380.45,127.05L380.63,124.32L380.81,128.71L380.99,120.01L381.18,111.81L381.36,112.22L381.54,106.75L381.72,108.03L381.9,103.47L382.27,104.64L382.45,109.36L383.54,93.25L383.72,100.34L384.44,89.93L384.63,97.95L385.53,86.77L385.71,87.68L385.9,88.75L386.08,87.52L386.26,85.53L386.62,83.99L386.8,89L387.17,79.47L387.71,79.9L387.89,82L388.26,85.64L388.44,106.28L389.89,200.12L390.25,194.98L390.43,188.78L390.62,187.55L390.8,195.32L391.34,151.43L391.7,168.34L391.89,160.35L393.52,205.5L393.7,206.57L393.88,206.78L394.06,209.64L394.43,215.89L394.97,197.79L395.15,201.91L396.24,174.97L396.42,181.2L397.33,158.08L397.51,158.16L397.69,159.37L399.15,130.38L399.33,134.21L400.05,126L400.24,132.7L400.96,119.54L401.14,127.21L402.41,89.48L402.59,96.11L402.78,97.73L402.96,92.73L403.14,97.81L403.5,91.48L403.68,97.01L403.87,88.68L404.05,87.98L404.23,94.73L404.59,85.97L405.14,86.52L405.32,86.38L405.68,99.43L405.86,119.74L407.13,182.38L407.31,177.72L407.5,183.59L407.68,172.68L407.86,177.62L408.04,174.28L408.58,152.14L408.95,158.08L409.13,159.27L410.22,185.27L410.4,187.62L410.58,183.98L410.76,196.97L411.13,184.2L411.49,192.03L411.67,200.73L411.85,211.31L412.22,194.67L412.4,192.78L413.12,174.64L413.3,184.21L413.49,196.6L413.85,183.07L414.03,164.83L415.12,140.61L415.48,143.15L415.66,142.33L416.93,119.02L417.12,118.41L417.3,119.01L417.48,118.93L417.66,116.76L417.84,119.13L418.02,118.91L418.21,112.62L418.39,115.71L418.57,111.52L418.75,100.64L418.93,103.62L419.29,98.18L419.48,102.27L419.66,94.9L420.38,102.21L420.56,90.08L420.93,99.74L421.11,86.63L421.29,95.37L421.47,95.76L422.2,85.45L422.38,93.79L422.74,85.96L422.92,94.84L423.11,113.56L424.56,178.04L424.74,180.6L424.92,187.89L425.28,175.11L425.47,172.54L425.65,180.35L426.01,168.13L426.19,169.82L426.74,165.96L426.92,181.77L427.1,181.04L427.28,176.31L428.19,190.68L428.37,191.23L428.91,212.49L429.28,207.05L429.46,208.8L429.64,208.5L429.82,205.01L430.91,143.58L431.27,152.19L431.46,145.91L431.64,146.22L431.82,140.56L432,140.43L432.18,138.85L432.54,139.04L433.09,130.9L433.27,122.46L433.45,122.38L433.63,119.15L433.82,121.64L434,120.85L434.18,113.69L434.36,118.16L434.72,113.6L434.9,114.04L435.09,111.02L435.27,115.6L435.81,115.38L435.99,110.75L436.17,106.06L436.36,113.98L436.54,116.52L437.08,112.17L437.26,115.19L437.45,116.68L437.63,109.63L437.99,112.98L438.17,99.47L438.9,87.2L439.08,90.78L439.26,90.42L439.81,91.23L439.99,82.68L440.17,86.82L440.35,90.56L440.71,120.24L440.89,131.95L441.08,130.63L441.26,140.42L441.62,136.4L442.89,204.13L443.07,197.09L443.25,179.19L443.98,192.41L444.16,173.6L444.52,153.01L444.89,170.26L445.07,177.92L445.61,194.84L445.98,189.23L446.16,189.96L446.52,194.29L446.7,203.76L446.88,205.25L447.07,187.43L449.61,139.98L449.79,136.79L449.97,138.62L450.15,133.57L450.33,133.31L450.51,132.72L450.7,124.84L450.88,123.68L451.06,115.75L451.24,117.84L451.6,113.45L451.78,117.45L451.97,114.54L452.15,114.42L452.33,110.87L452.87,108.61L453.06,113.59L453.24,109.02L453.42,106.2L453.6,111.57L453.96,108.74L454.14,109.81L455.6,85.15L455.78,90.16L456.14,80.07L456.69,82.41L456.87,82.1L457.05,85.15L457.41,79.93L457.59,83.56L457.77,82.13L458.32,96.89L458.86,96.7L459.05,96.24L459.41,112.33L459.77,107.74L459.95,104.35L461.22,134.94L461.41,134.52L462.49,151.6L462.68,149.72L463.58,160.28L463.76,158.91L464.13,164.03L464.31,160.89L464.49,157.34L464.67,147.28L465.22,151.94L465.4,148.57L467.58,114.79L467.76,117.69L467.94,117.02L468.12,107.92L468.85,95.17L469.03,100.56L469.21,99.7L469.39,101.85L469.57,101.83L470.3,94.14L470.48,95.45L470.66,95.9L471.39,89.92L471.57,91.02L471.75,90.6L472.48,81.95L472.66,88.49L472.84,88.76L473.02,80.47L473.38,84.66L473.57,80.82L473.75,79.85L473.93,85.32L474.29,79.32L474.47,83.78L474.66,83.66L474.84,77.39L475.2,85.22L475.38,87.99L475.56,86.61L475.74,89.21L475.93,92.49L476.11,90.56L476.29,97.39L476.65,92.99L476.83,99.27L477.02,97.51L477.2,98.53L478.1,145.64L478.29,132.56L478.47,124.37L478.65,123.77L478.83,133.37L479.01,135L479.19,123.98L479.92,151.79L480.1,144.55L480.28,144.11L481.19,160.33L481.37,161.76L481.55,161.91L481.73,163.47L482.82,146.92L483.01,148.24L484.09,127.56L484.28,128.53L486.09,95.45L486.27,100.88L486.45,102L487.18,95.13L487.36,101.01L488.27,87.81L488.45,93.64L488.63,92.95L488.81,87.28L488.99,90.48L489.36,84.13L489.54,86.66L489.72,88.16L489.9,85.33L490.08,81.48L490.45,88.22L490.81,84.74L490.99,85.25L491.35,75.27L491.9,77.01L492.08,80.01L492.26,79.15L492.44,69.35L492.81,48.46L493.17,66.53L493.35,73.01L493.9,76.71L494.08,73.59L494.26,70.56L494.44,70.77L494.62,128.01L494.98,197.47L495.53,196.7L495.71,180.74L495.89,155.54L496.44,182.05L496.62,184.57L496.8,169.68L497.34,178.23L497.53,188.55L499.34,230.08L499.52,221.51L499.7,223.99L499.89,221.45L500.07,216.97L500.25,214.22L500.43,199.2L500.61,198.85L500.79,201.18L502.25,137.31L502.43,140.33L502.61,142.44L502.79,131.5L502.97,134.08L503.15,129.27L503.33,115.37L503.52,120.89L503.88,111.96L504.06,117.72L504.24,114.4L504.61,114.87L504.79,107.58L504.97,115.36L505.15,115.34L505.33,103.65L505.51,112.34L505.88,102.06L506.06,112.02L506.24,110.53L506.42,101.26L506.96,103.83L507.15,103.22L507.51,99.74L507.69,107.38L508.78,96.43L508.96,96.45L509.14,95.28L509.32,88.28L509.51,88.99L509.69,94.8L510.05,93.56L510.41,105.53L510.59,104.16L510.78,116.09L511.14,111.68L511.32,124.17L512.77,204.14L512.95,198.1L513.14,183.9L513.5,172.37L513.68,180.96L513.86,197.1L514.04,198.81L514.23,191.14L515.68,240.69L515.86,248.65L516.04,262.47L516.22,245.97L516.58,259.43L516.77,240.73L517.13,243.22L517.86,215.36L518.04,214.29L519.85,167.51L520.03,171.91L520.22,172.11L520.4,163.05L521.49,144.18L521.67,145.86L523.48,109.14L523.66,108.21L523.85,111.56L524.21,105.59L524.39,104.63L524.75,107.24L524.93,101.14L525.3,107.7L525.48,103.08L525.66,100.12L526.02,99.08L526.57,101.64L526.75,98.28L527.29,93.81L527.48,94.16L527.66,105.18L528.38,129.68L528.56,144.77L530.2,214.33L530.38,209.79L531.11,232.73L531.29,229.11L531.47,227.41L533.83,304L534.01,300.3L535.46,204.1L535.64,207.67L536.55,155.56L536.91,159.73L537.1,152.24L537.46,156.86L537.64,147.81L537.82,139.6L539.09,120.89L539.27,121.96L539.82,116.72L540,121.71" style="vector-effect: non-scaling-stroke; fill: none; stroke: rgb(0, 191, 255); stroke-opacity: 1; stroke-width: 2px; opacity: 1;"/></g><g class="points"/><g class="text"/></g></g></g><g class="overplot"/><path class="xlines-above crisp" d="M0,0" style="fill: none;"/><path class="ylines-above crisp" d="M0,0" style="fill: none;"/><g class="overlines-above"/><g class="xaxislayer-above"><g class="xtick"><text text-anchor="middle" x="0" y="433" transform="translate(184.55,0)" style="font-family: 'Open Sans', verdana, arial, sans-serif; font-size: 12px; fill: rgb(42, 63, 95); fill-opacity: 1; white-space: pre; opacity: 1;"><tspan class="line" dy="0em" x="0" y="433">Aug 7</tspan><tspan class="line" dy="1.3em" x="0" y="433">2022</tspan></text></g><g class="xtick"><text text-anchor="middle" x="0" y="433" style="font-family: 'Open Sans', verdana, arial, sans-serif; font-size: 12px; fill: rgb(42, 63, 95); fill-opacity: 1; white-space: pre; opacity: 1;" transform="translate(306.53,0)">Aug 14</text></g><g class="xtick"><text text-anchor="middle" x="0" y="433" style="font-family: 'Open Sans', verdana, arial, sans-serif; font-size: 12px; fill: rgb(42, 63, 95); fill-opacity: 1; white-space: pre; opacity: 1;" transform="translate(428.5,0)">Aug 21</text></g><g class="xtick"><text text-anchor="middle" x="0" y="433" style="font-family: 'Open Sans', verdana, arial, sans-serif; font-size: 12px; fill: rgb(42, 63, 95); fill-opacity: 1; white-space: pre; opacity: 1;" transform="translate(550.48,0)">Aug 28</text></g></g><g class="yaxislayer-above"><g class="ytick"><text text-anchor="end" x="79" y="4.199999999999999" transform="translate(0,395.35)" style="font-family: 'Open Sans', verdana, arial, sans-serif; font-size: 12px; fill: rgb(42, 63, 95); fill-opacity: 1; white-space: pre; opacity: 1;">−70</text></g><g class="ytick"><text text-anchor="end" x="79" y="4.199999999999999" style="font-family: 'Open Sans', verdana, arial, sans-serif; font-size: 12px; fill: rgb(42, 63, 95); fill-opacity: 1; white-space: pre; opacity: 1;" transform="translate(0,355.45)">−60</text></g><g class="ytick"><text text-anchor="end" x="79" y="4.199999999999999" style="font-family: 'Open Sans', verdana, arial, sans-serif; font-size: 12px; fill: rgb(42, 63, 95); fill-opacity: 1; white-space: pre; opacity: 1;" transform="translate(0,315.53999999999996)">−50</text></g><g class="ytick"><text text-anchor="end" x="79" y="4.199999999999999" style="font-family: 'Open Sans', verdana, arial, sans-serif; font-size: 12px; fill: rgb(42, 63, 95); fill-opacity: 1; white-space: pre; opacity: 1;" transform="translate(0,275.63)">−40</text></g><g class="ytick"><text text-anchor="end" x="79" y="4.199999999999999" style="font-family: 'Open Sans', verdana, arial, sans-serif; font-size: 12px; fill: rgb(42, 63, 95); fill-opacity: 1; white-space: pre; opacity: 1;" transform="translate(0,235.72)">−30</text></g><g class="ytick"><text text-anchor="end" x="79" y="4.199999999999999" style="font-family: 'Open Sans', verdana, arial, sans-serif; font-size: 12px; fill: rgb(42, 63, 95); fill-opacity: 1; white-space: pre; opacity: 1;" transform="translate(0,195.82)">−20</text></g><g class="ytick"><text text-anchor="end" x="79" y="4.199999999999999" style="font-family: 'Open Sans', verdana, arial, sans-serif; font-size: 12px; fill: rgb(42, 63, 95); fill-opacity: 1; white-space: pre; opacity: 1;" transform="translate(0,155.91)">−10</text></g><g class="ytick"><text text-anchor="end" x="79" y="4.199999999999999" style="font-family: 'Open Sans', verdana, arial, sans-serif; font-size: 12px; fill: rgb(42, 63, 95); fill-opacity: 1; white-space: pre; opacity: 1;" transform="translate(0,116)">0</text></g></g><g class="overaxes-above"/></g></g><g class="polarlayer"/><g class="smithlayer"/><g class="ternarylayer"/><g class="geolayer"/><g class="funnelarealayer"/><g class="pielayer"/><g class="iciclelayer"/><g class="treemaplayer"/><g class="sunburstlayer"/><g class="glimages"/><defs id="topdefs-9267f3"><g class="clips"/></defs><g class="layer-above"><g class="imagelayer"/><g class="shapelayer"/></g><g class="infolayer"><g class="g-gtitle"><text class="gtitle" x="350" y="50" text-anchor="middle" dy="0em" style="font-family: 'Open Sans', verdana, arial, sans-serif; font-size: 17px; fill: rgb(42, 63, 95); opacity: 1; font-weight: normal; white-space: pre;"><tspan class="line" dy="0em" x="350" y="50">Scenario 1</tspan><tspan class="line" dy="1.3em" x="350" y="50">Microgrid Output</tspan><tspan class="line" dy="2.6em" x="350" y="50">From: August 01, 2022 to August 31, 2022</tspan></text></g><g class="g-xtitle"><text class="xtitle" x="350" y="476.409375" text-anchor="middle" style="font-family: 'Open Sans', verdana, arial, sans-serif; font-size: 14px; fill: rgb(42, 63, 95); opacity: 1; font-weight: normal; white-space: pre;">Time</text></g><g class="g-ytitle"><text class="ytitle" transform="rotate(-90,33.840625,260)" x="33.840625" y="260" text-anchor="middle" style="font-family: 'Open Sans', verdana, arial, sans-serif; font-size: 14px; fill: rgb(42, 63, 95); opacity: 1; font-weight: normal; white-space: pre;">Demand (kW)</text></g></g></svg>