<svg class="main-svg" xmlns="http://www.w3.org/2000/svg" xmlns:xlink="http://www.w3.org/1999/xlink" width="700" height="500" style="" viewBox="0 0 700 500"><rect x="0" y="0" width="700" height="500" style="fill: rgb(255, 255, 255); fill-opacity: 1;"/><defs id="defs-6acfb6"><g class="clips"><clipPath id="clip6acfb6xyplot" class="plotclip"><rect width="540" height="320"/></clipPath><clipPath class="axesclip" id="clip6acfb6x"><rect x="80" y="0" width="540" height="500"/></clipPath><clipPath class="axesclip" id="clip6acfb6y"><rect x="0" y="100" width="700" height="320"/></clipPath><clipPath class="axesclip" id="clip6acfb6xy"><rect x="80" y="100" width="540" height="320"/></clipPath></g><g class="gradients"/><g class="patterns"/></defs><g class="bglayer"/><g class="layer-below"><g class="imagelayer"/><g class="shapelayer"/></g><g class="cartesianlayer"><g class="subplot xy"><g class="layer-subplot"><g class="shapelayer"/><g class="imagelayer"/></g><g class="minor-gridlayer"><g class="x"/><g class="y"/></g><g class="gridlayer"><g class="x"><path class="xgrid crisp" transform="translate(134.02,0)" d="M0,100v320" style="stroke: rgb(255, 255, 255); stroke-opacity: 1; stroke-width: 1px;"/><path class="xgrid crisp" transform="translate(260.06,0)" d="M0,100v320" style="stroke: rgb(255, 255, 255); stroke-opacity: 1; stroke-width: 1px;"/><path class="xgrid crisp" transform="translate(386.11,0)" d="M0,100v320" style="stroke: rgb(255, 255, 255); stroke-opacity: 1; stroke-width: 1px;"/><path class="xgrid crisp" transform="translate(512.15,0)" d="M0,100v320" style="stroke: rgb(255, 255, 255); stroke-opacity: 1; stroke-width: 1px;"/></g><g class="y"><path class="ygrid crisp" transform="translate(0,410.84)" d="M80,0h540" style="stroke: rgb(255, 255, 255); stroke-opacity: 1; stroke-width: 1px;"/><path class="ygrid crisp" transform="translate(0,355.69)" d="M80,0h540" style="stroke: rgb(255, 255, 255); stroke-opacity: 1; stroke-width: 1px;"/><path class="ygrid crisp" transform="translate(0,300.53)" d="M80,0h540" style="stroke: rgb(255, 255, 255); stroke-opacity: 1; stroke-width: 1px;"/><path class="ygrid crisp" transform="translate(0,245.37)" d="M80,0h540" style="stroke: rgb(255, 255, 255); stroke-opacity: 1; stroke-width: 1px;"/><path class="ygrid crisp" transform="translate(0,190.22)" d="M80,0h540" style="stroke: rgb(255, 255, 255); stroke-opacity: 1; stroke-width: 1px;"/><path class="ygrid crisp" transform="translate(0,135.06)" d="M80,0h540" style="stroke: rgb(255, 255, 255); stroke-opacity: 1; stroke-width: 1px;"/></g></g><g class="zerolinelayer"/><path class="xlines-below"/><path class="ylines-below"/><g class="overlines-below"/><g class="xaxislayer-below"/><g class="yaxislayer-below"/><g class="overaxes-below"/><g class="plot" transform="translate(80,100)" clip-path="url(#clip6acfb6xyplot)"><g class="scatterlayer mlayer"><g class="trace scatter traced3bb0a" style="stroke-miterlimit: 2; opacity: 0.5;"><g class="fills"/><g class="errorbars"/><g class="lines"><path class="js-line" d="M0,49.01L0.19,48.34L0.38,51.71L0.56,42.38L1.13,46.41L1.31,48.3L2.06,41.31L2.25,43.71L2.44,43.03L2.63,36.18L3,43.97L3.19,37.46L3.38,39.38L3.56,39.67L3.75,36.22L3.94,36.86L4.13,176.09L4.31,34.28L4.88,34.88L5.06,46.32L5.25,51.67L5.63,45.33L5.81,45.6L6,193.21L6.56,63.9L6.75,74.34L7.5,128.59L7.69,127.29L7.88,119.4L8.07,109.4L8.25,124.17L8.44,135.4L8.63,135.83L8.82,143.79L9,153.74L9.19,150.56L9.38,129.65L9.75,113.79L9.94,117.03L10.13,280.86L10.32,283.38L10.5,279.61L10.69,134.92L10.88,128.17L11.07,138.75L11.25,155.39L11.82,144.78L12,133.98L12.57,140.91L12.75,136.74L12.94,131.87L13.5,127.59L13.69,125.97L15.57,98.85L15.76,89.44L17.26,78.8L17.44,82.16L18.19,75.54L18.38,79.54L19.13,44.41L19.51,45.61L19.69,42.28L19.88,46.29L20.26,41.5L20.44,42.19L20.63,43.88L20.82,41.24L21.01,42.75L21.19,41.37L21.76,41.63L22.13,38.24L22.32,38.27L22.51,37.85L22.7,35.07L22.88,35.88L23.07,56.13L24.01,94.49L24.2,93.63L24.76,103.29L24.95,243.94L25.13,242.14L25.32,116.56L25.51,118.93L25.7,112.49L25.88,108.9L26.07,99.39L26.63,99.95L26.82,109.03L27.2,101.5L27.38,110.49L27.57,109.16L27.76,107.56L27.95,116.52L28.32,113.58L28.51,119.33L28.7,118.03L28.89,115.6L29.26,267.83L29.64,121.99L29.82,116.81L30.39,106.23L30.76,106.46L30.95,111.07L31.14,110.57L31.32,107.81L31.51,108.54L31.7,104.05L32.07,101.33L32.26,95.79L32.45,95.74L32.64,93.85L33.39,89.23L33.57,82.04L34.51,67.44L34.7,70.32L35.82,64.93L36.01,67.4L36.95,42.7L37.14,48.31L38.08,41.65L38.26,43.29L38.45,45.93L38.83,42.38L39.01,178.29L39.76,39.28L39.95,43.21L40.14,41.48L40.33,174.56L40.89,41.16L41.08,48.04L41.26,195.87L41.45,60.69L42.01,63.45L42.2,61.47L43.52,89.58L43.7,89.89L43.89,95.04L44.08,236.63L44.27,235.58L44.45,101.41L44.64,108.22L44.83,237.33L45.02,242.67L45.2,117.73L45.58,108.22L45.77,118.44L45.95,120.3L46.14,109.35L46.52,125.53L46.7,120.42L46.89,120.43L47.08,132.71L47.27,140.91L47.64,129.57L47.83,137.18L48.02,127.34L48.39,128.56L49.52,113.64L49.7,247.07L49.89,244.53L50.08,103.6L51.02,94.31L51.21,96.51L51.39,96.59L51.58,87.9L52.52,72.51L52.71,72.5L52.89,71.2L53.08,59.6L53.83,48.19L54.02,50.09L54.21,47.1L54.39,44.76L54.58,49.28L54.77,49.92L55.89,42.62L56.08,44.44L56.46,43.26L56.64,45.31L56.83,45.12L57.02,45.16L57.21,42.67L57.39,39.55L57.58,181.9L57.77,182.14L57.96,40.93L58.33,182.37L58.52,46.99L58.71,40.62L58.9,41.77L59.08,50.64L60.02,69.82L60.21,67.91L60.58,73.17L60.77,209.83L60.96,213.03L61.15,78.34L61.33,80.67L61.52,224.51L61.71,231.09L61.9,89.82L62.27,104.38L62.46,234.69L62.65,234.26L62.83,100.7L63.02,98.25L63.21,106.8L63.96,124.14L64.15,122.31L64.33,118.05L64.71,126.75L64.9,120.46L65.09,259.64L65.27,260.4L65.46,119.86L65.65,117.67L65.84,106L66.59,102.2L66.77,93.07L68.09,78.44L68.27,79.74L70.15,50.83L70.34,51.3L70.52,51.49L70.71,53.13L70.9,49.64L71.09,45.8L71.27,51.74L71.84,49.64L72.03,45.72L72.21,49.16L72.59,43.14L72.78,45.5L72.96,47.36L73.34,45.79L73.53,44.59L73.9,44.62L74.28,40.19L74.46,42.73L74.65,42.35L74.84,42.73L75.03,43.88L75.4,36.4L75.59,43.23L75.78,43.17L76.15,37.43L76.34,40.78L76.53,43.31L76.9,179.3L77.28,54L77.46,57.12L77.84,63.31L78.03,75.04L78.96,107.15L79.15,103.08L79.53,114.21L79.72,256.63L79.9,270.66L80.09,132.74L80.28,124.97L80.47,262.9L80.84,268.94L81.03,132.58L81.4,112.67L81.78,120.16L81.97,123.97L82.34,125.79L82.72,117.45L82.9,113.34L83.28,124.63L83.84,122.93L84.03,121.55L84.97,105.8L85.15,112.98L86.28,87.51L86.47,83.97L86.66,84.98L86.84,82.56L87.03,79.78L87.78,62.07L87.97,57.44L88.16,58.64L88.34,53.49L88.53,57.08L89.09,55.12L89.28,51.44L89.47,54.77L89.84,53.27L90.03,50.27L90.22,52.21L90.59,50.59L90.78,48.75L90.97,49.88L91.16,49.13L91.34,47.33L92.09,44.67L92.28,44.04L92.66,44.83L93.22,40.85L93.41,42.63L93.59,38.39L93.78,43.44L94.16,41.73L94.35,39.72L94.53,38.92L94.72,179.31L94.91,36.18L95.47,93.63L95.66,92.29L95.85,92.05L96.03,99.42L96.22,99.69L96.41,109.96L96.6,111.58L96.78,120.48L97.72,147.82L97.91,133.36L98.1,122.71L98.28,126.48L98.47,260.27L98.66,269.09L98.85,128.21L99.03,117.67L99.6,127.1L99.78,281.05L99.97,290.81L100.16,287.96L100.35,148.4L100.72,146.23L100.91,153.1L101.1,170.86L101.47,164.62L101.66,165.79L101.85,148.05L102.04,138.5L102.22,149.98L102.6,139.46L102.79,142.33L104.66,97.49L104.85,96.84L105.22,95.01L105.41,95.69L105.6,85.71L106.35,75.49L106.54,77.84L106.72,76.9L106.91,76.66L107.1,75.04L107.85,71.5L108.04,57.47L108.79,45.66L108.98,47.74L109.16,42.75L109.54,46.71L109.91,44.83L110.1,44.7L110.29,46.34L110.48,39.8L111.23,43.84L111.41,42.3L111.6,41.87L111.79,36.91L111.98,41.6L112.16,40.28L112.35,176.12L112.73,39.67L113.1,50.24L113.29,73.75L113.85,118.35L114.04,264.29L114.41,133.27L114.79,138.66L114.98,139.19L115.73,160.49L115.92,158.03L116.1,150.46L116.48,132.4L116.67,141.73L116.85,272.97L117.04,274.5L117.23,144.37L117.42,124.17L117.79,159.49L117.98,304L118.17,299.5L118.35,156.58L119.29,179.52L119.48,173.96L119.67,171.09L120.04,163.48L120.42,164.89L120.6,135.43L121.54,106.32L121.73,103.26L121.92,103.8L122.1,95.24L122.29,97.71L122.48,94.68L122.67,92.4L123.04,88.66L123.23,224.33L123.42,223.67L123.61,81.68L124.54,69.65L124.73,66.93L124.92,66.43L125.11,69.16L125.29,69.03L125.48,67.24L126.23,47.88L126.61,49.73L126.79,49.94L127.73,43.75L127.92,45.13L128.11,45.51L128.29,44.09L128.67,42.83L128.86,43.84L129.04,39.58L129.61,42.59L129.8,42.45L129.98,40.73L130.36,40.47L130.55,42.63L130.73,39.49L130.92,39.93L131.11,49.84L132.23,100.45L132.42,98.71L132.61,101.93L133.17,131.03L133.36,129.23L133.55,279.14L134.48,119.44L134.67,94.7L135.05,239.14L135.23,98.74L135.42,92.02L135.8,88.73L135.98,96.13L136.17,90.87L136.36,95.43L136.55,103.02L136.92,101.9L137.11,113.62L137.67,135.65L137.86,125.88L138.05,122.19L138.42,109.74L138.61,251.45L138.99,241.99L139.17,104.79L140.11,91.93L140.3,92.65L140.49,91.94L140.67,96.4L141.05,115.51L141.24,102.35L141.42,83.44L142.17,70.58L142.36,71.36L142.55,69.94L142.74,70.03L142.92,68.76L143.11,70.94L143.49,68.02L143.67,67.36L143.86,67.8L144.05,60.57L144.8,46.7L144.99,48.08L145.18,47.57L145.55,49.75L145.93,47.81L146.11,47.18L146.49,42.96L146.68,47.96L146.86,45.71L147.05,46.23L147.24,40.91L147.61,46.73L147.8,45.09L147.99,43.62L148.18,42.6L148.36,45.98L148.55,42.42L148.74,180.72L148.93,180.81L149.11,63.71L150.05,100.38L150.24,98.9L150.43,99.62L150.61,239.61L150.99,259.67L151.18,120.35L151.55,98.81L151.74,87.55L152.49,74.57L152.87,76.29L153.05,81.96L153.24,83.65L153.43,82.67L153.62,77.52L153.8,78.49L153.99,76.33L154.18,72.11L154.37,73.05L154.55,66.77L154.93,66.54L155.12,64.5L155.49,88.08L156.05,84.24L156.24,80.6L156.43,81.42L156.62,75.88L156.8,76.09L156.99,74.86L157.37,74.09L157.74,79.51L157.93,71.5L158.12,71.43L158.3,72.39L158.49,75.33L158.68,70.68L158.87,67.01L159.06,65.08L159.24,65.53L159.43,72.27L159.99,58.31L160.37,60.21L160.56,60.03L160.74,61.43L160.93,55.99L161.31,39.31L161.87,41.35L162.06,40.62L162.43,41.57L162.62,36.65L163.18,41.26L163.37,38.45L163.56,35.64L164.31,44.01L164.49,39.45L164.68,41.99L164.87,41.49L165.06,38.21L165.24,44.1L165.81,42.44L166,35.72L166.75,43.02L166.93,37.75L167.31,56.19L167.5,185.27L168.06,50.56L168.43,52.59L168.62,55.52L168.81,49.98L169,52.9L169.18,63.24L169.75,54.24L169.93,193.47L170.31,194.07L170.5,206.73L171.25,62.9L171.43,63.02L171.62,71.15L172.18,78.47L172.37,74.19L172.56,66.17L172.94,68.46L173.12,75.43L173.5,89.53L173.69,86.05L173.87,64.32L174.06,59.72L174.44,60.26L174.62,70.52L175,96.41L175.56,91.27L175.75,88.31L175.94,80.69L176.31,93.66L176.5,92.05L177.06,84.26L177.25,77.52L177.62,87.34L178,81.17L178.19,60.49L179.12,42.41L179.31,46.27L179.5,46.23L179.69,44.61L179.87,49.05L180.25,42.06L180.44,44.3L181.19,37.21L181.38,44.32L181.75,37.53L181.94,43.59L182.5,44.26L182.69,34.35L182.88,39.7L183.06,43.53L183.25,36.96L183.44,180.53L183.63,177.32L183.81,36.93L184,43.68L184.38,36.07L184.56,41.41L184.75,41.16L184.94,38.84L185.13,47.95L185.31,54.87L185.5,43.27L185.88,52.85L186.06,48.85L186.44,48.96L186.63,50.1L186.81,57.91L187,187.71L187.19,190.61L187.38,61.56L187.57,60.47L187.75,71.58L187.94,61.37L188.32,78.09L188.5,74.76L189.44,85.75L189.63,225.87L189.82,91.18L190.38,92.38L190.57,98.15L190.75,102.39L190.94,94.99L191.13,95.2L191.32,88.2L191.69,90L192.25,78.68L192.44,80.11L192.63,81.23L193,79.68L193.19,71.2L194.51,58.41L194.69,64.32L195.82,46.32L196.01,49.79L196.19,47.91L196.38,49.38L196.57,48.88L196.76,45.34L196.94,47.94L197.13,43.35L197.51,47.44L197.69,42.61L198.44,46.77L198.63,41.83L199.01,46.51L199.19,40.89L199.38,44.59L199.57,38.78L199.76,35.66L199.94,42.92L200.13,43.15L200.32,42.43L200.51,177.32L201.26,37.04L201.44,39.88L201.63,39.69L202.2,42.04L202.57,33.84L202.76,40.8L202.95,36.83L203.13,43.62L203.32,71.29L203.88,88.78L204.07,82.5L204.26,75.9L204.45,91.73L204.63,235.28L204.82,229.37L205.01,79.37L205.2,205.8L205.38,68.7L205.76,200.76L205.95,64.88L206.13,56.6L206.51,68.65L206.7,86.24L207.26,125.01L207.45,124.01L207.63,272.17L207.82,275.17L208.01,141.58L208.38,173.68L208.95,172.45L209.14,172.21L211.01,60.78L211.2,69.79L211.39,71.39L211.57,66.71L211.76,70.74L211.95,202.26L212.32,200.47L212.51,59.61L213.07,59.88L213.64,51.95L213.82,50.31L214.01,50.06L214.2,44.05L214.95,47.21L215.14,42.79L215.32,43.31L215.51,46.98L215.7,40.43L216.26,40.93L216.45,42.32L217.01,45.04L217.2,38.88L217.39,39.47L217.58,41.31L217.95,41.45L218.33,31.42L218.51,38.67L218.7,38.44L218.89,35.35L219.08,40.56L219.45,32.74L219.64,36.38L219.83,39.89L220.01,33.98L220.2,171.86L220.58,34.56L220.95,35.68L221.14,49.18L221.51,77.27L221.7,219.54L222.26,216.34L222.45,72.19L222.83,105.52L223.2,87.18L223.39,93.89L223.77,123.7L224.33,113.02L224.52,252.99L224.7,252.65L224.89,245.8L225.83,77.35L226.02,73.15L226.2,73.32L226.39,75.12L226.95,74.57L227.7,114.87L227.89,113.08L228.08,112.79L228.64,115.87L229.39,87.19L229.77,92.22L229.95,94.34L230.71,78.1L231.08,82.12L231.27,82.1L231.46,85.97L231.64,78.75L231.83,76.1L232.02,76.14L232.21,74.6L232.39,75.15L232.58,73.81L232.77,73.95L232.96,72.51L233.14,74.05L233.33,72.26L233.71,73.01L233.89,60.7L234.83,34.35L235.02,37.63L235.77,32.53L235.96,34.34L236.71,30.49L236.89,30.93L237.08,31.32L237.46,27.05L237.65,30.15L237.83,167.94L238.77,27.6L238.96,31.74L239.33,30.05L239.52,33.57L239.9,31.62L240.08,39.03L240.65,57.94L240.83,200.77L241.21,218.83L241.4,218.57L241.58,205.09L241.77,62.85L242.15,208.59L242.33,214.33L242.52,75.5L243.08,83.36L243.27,77.02L243.65,224.54L244.02,81.08L244.21,85.34L244.4,77.87L244.77,89.35L244.96,83.45L245.15,87.4L245.52,86.59L245.9,88.77L246.09,86.83L246.46,221.16L246.65,213.08L246.84,71.36L248.34,51.1L248.52,192.46L248.71,192.4L248.9,46.69L249.27,50.22L249.46,44.48L249.65,45.37L250.02,38.8L250.21,39.41L250.4,42.81L251.52,28.45L251.71,36.3L251.9,40.54L252.28,33.11L252.46,36.75L252.65,38.11L252.84,33.26L253.03,35.9L253.21,173.49L253.59,170.58L253.78,31.08L253.96,34.74L254.34,28.18L254.53,32.55L254.71,33.41L255.28,28.95L255.46,32.24L255.65,32.15L256.59,25.23L256.78,29.74L258.84,90.85L259.03,227.74L259.22,80.43L259.78,86.31L259.97,80.51L260.34,221.68L260.72,208.89L260.9,63.99L261.47,92.2L261.65,75.98L262.22,66.08L262.4,73.81L262.59,74.39L262.78,74.23L262.97,87.33L263.15,85.82L263.34,87.93L263.53,92.76L263.9,84.77L264.09,89.89L264.28,109.74L264.47,121.99L264.65,120.23L264.84,254.21L265.03,253.01L265.22,101.26L266.15,68.07L266.34,201.19L266.53,206L266.72,204.19L266.91,62.44L267.09,61.36L267.28,74.92L267.47,86.03L267.66,76.54L267.84,59.69L268.59,48.8L268.78,52.28L268.97,54.54L269.16,49.92L269.34,47.56L269.53,51.63L269.72,44.44L269.91,33.49L271.22,21.84L271.41,25.68L271.59,27.87L271.78,23.75L271.97,22.17L272.16,21.84L272.34,25.29L272.53,26.04L272.72,20.12L273.47,22.47L273.66,18.61L274.22,23.07L274.41,22.95L274.6,155.65L274.97,19.81L275.16,158.22L275.35,27.91L275.53,24.94L275.72,21.68L276.1,25.87L276.28,32.15L276.47,32.52L276.66,169.93L276.85,174.77L277.03,45.42L277.22,56.37L277.41,200.42L277.6,204.52L277.97,202.95L278.16,77.7L278.35,78.14L278.53,91.46L278.72,102.76L279.1,89.77L279.28,97.48L279.47,90.87L279.66,91.39L279.85,99.26L280.6,66.69L280.97,73.6L281.16,72.91L281.91,81.13L282.1,97.2L282.29,97.02L282.47,76.28L282.85,201.53L283.04,199.67L283.22,63.49L284.54,47.71L284.72,48.81L284.91,50.09L285.1,62.65L285.29,71.36L285.47,54.81L285.66,38.41L285.85,38.91L286.04,36.98L286.97,28.77L287.16,33.16L287.35,34.88L287.54,28.92L287.72,28.59L287.91,32.81L288.29,27.68L288.66,28.34L288.85,29.45L289.6,21.39L289.79,25.61L289.98,27.05L290.16,21.41L290.35,20.71L290.54,159.02L290.73,160.63L290.91,23.92L291.29,22.76L291.48,20.22L291.85,23.64L292.04,22.62L292.23,20.64L292.41,18.7L292.6,20.15L292.79,25.3L292.98,26.54L293.16,24.61L293.35,22.84L293.73,29.12L294.1,24.22L294.29,26.93L294.66,167.23L294.85,161.7L295.04,23.85L296.17,33.75L296.35,33.84L297.29,54.28L297.48,48.52L297.67,51.35L297.85,195.07L298.04,190.44L298.23,196.56L298.42,200.31L298.6,195.39L298.79,197.91L298.98,65.75L299.17,68.19L299.35,217.9L299.73,242.47L299.92,121.64L300.29,99.77L300.48,90.48L300.67,90.8L300.85,83.29L301.04,91.21L301.6,85.03L301.79,78.78L302.54,69.8L302.73,74.41L302.92,74.06L303.86,62.77L304.04,62.61L304.23,65.88L304.61,59.96L304.79,58.5L304.98,59.09L305.17,58.16L305.36,57.74L305.54,58.94L305.92,57.01L306.11,49.77L306.48,20.83L307.04,26.22L307.23,24.02L307.42,21.23L307.98,23.73L308.17,21.73L308.36,20.51L308.54,22.41L308.92,21.46L309.11,23.11L309.48,20.74L309.86,21.32L310.05,22.75L310.23,26.2L310.61,19.58L310.8,19.79L311.92,27.52L312.11,26.89L312.3,23.86L312.48,26.22L312.67,31.54L313.05,32.99L313.23,40L313.8,46.48L313.98,180.34L314.17,184.97L314.36,49.84L314.55,48.72L314.73,51.7L314.92,53.31L315.11,52.87L315.3,58.12L315.67,54.25L315.86,61.5L316.23,59.79L316.42,63.21L316.8,62.36L316.99,66.01L317.74,70.24L317.92,67.57L318.3,200.48L318.67,199.4L318.86,63.8L319.61,48.84L319.8,51.46L319.99,46.25L321.11,39.28L321.3,35.65L321.67,37.93L321.86,32.11L322.24,32.14L322.61,25.52L322.8,31.88L322.99,31.65L323.17,23.93L323.36,24.22L323.55,26.6L323.74,26.75L323.92,24.51L324.11,24.84L324.3,24.55L324.49,23.3L324.86,20.75L325.05,23.38L325.24,22.54L325.43,23.56L325.61,24.63L325.8,19.38L326.36,20.54L326.55,21.91L326.74,19.18L326.93,20.83L327.11,159.78L327.68,19.04L327.86,20.62L328.05,24.39L328.43,17.73L328.8,20.32L328.99,25.08L329.18,24.13L329.36,31.58L329.55,47.57L329.74,195.56L329.93,214.01L330.11,86.44L330.49,90.02L330.68,94.32L331.43,115.19L331.62,257.09L331.8,271.08L332.18,255.2L332.37,268.08L332.55,259.08L332.93,115.57L333.3,240.63L333.49,236.4L333.87,89.23L334.05,250.81L334.24,259.03L334.43,251.58L334.62,110.69L335.18,103.52L335.37,105.11L335.55,104.19L336.12,75.57L336.49,89.49L336.68,100.22L338.56,44.46L338.74,48.31L340.24,29.53L340.43,33.12L341.37,25.34L341.56,29.08L341.74,28.35L341.93,23.3L342.12,23.1L342.31,24.95L342.49,24.57L342.68,22.36L343.06,22.88L343.24,25.34L344.18,18.73L344.56,20.14L344.74,22.13L344.93,21.82L345.12,19.85L345.31,158.73L345.87,20.09L346.06,18.49L346.43,24.35L346.81,20.21L347,19.02L348.12,80.52L348.31,110.25L348.68,128.22L348.87,112.47L349.06,94.91L349.25,107.81L349.81,102.52L350,83.66L350.18,209.4L350.37,62.75L350.56,193.71L350.75,56.34L351.87,84.72L352.06,223.19L352.25,216.13L352.43,79.72L352.81,81.33L353.19,75.38L353.37,87.83L354.31,111.51L354.5,104.83L355.25,97.22L355.44,88.83L355.62,93.34L356,84.38L356.19,84.86L357.12,78.97L357.31,80.11L358.06,70.12L358.25,197.84L358.44,204.79L358.62,204.61L358.81,60.26L359.19,65.91L359.37,61.99L359.56,59.14L360.69,26.38L360.88,23.74L361.06,24.35L361.25,28.8L362.38,17.45L362.56,20.64L362.75,23.7L363.31,21.53L363.5,19.88L363.88,22.21L364.06,20.37L364.25,19.7L364.44,18.84L364.63,158.02L364.81,159.99L365,21.79L365.19,21.78L365.38,22.62L366.31,60.87L366.5,60.41L366.69,65.96L367.44,97.47L367.63,84.97L367.82,81.96L368,81.19L368.19,86.35L368.38,213.7L368.57,60.8L368.94,200.11L369.13,62.44L369.32,61.7L369.5,207.82L369.88,231.97L370.07,98.45L370.25,95.27L370.44,103.52L370.63,122.98L371,136.37L371.19,127.13L371.38,112.68L371.94,77.54L372.13,210.26L372.32,210.05L372.5,202.86L373.25,58.69L373.44,196.54L373.82,188.96L374,51.7L374.19,54.05L374.38,68.83L374.57,76.96L374.76,61.41L374.94,44.68L375.13,44.42L375.32,40.1L376.26,29.52L376.44,30.11L376.63,28.37L376.82,27.65L377.01,29.55L377.19,25.82L377.76,25.67L377.94,24.58L378.13,22.55L378.32,24.73L378.69,22.88L378.88,24.09L379.82,18.85L380.01,19.87L380.38,21.19L380.57,19.03L380.76,19.1L381.32,17.51L381.51,16L381.88,20.48L382.45,19.16L382.63,18L382.82,18.1L383.01,154.62L383.2,20.72L383.76,54.61L383.95,54.95L384.13,57.04L384.32,53.32L384.51,175.38L384.7,34.83L385.26,41.66L385.45,38.99L385.82,50.66L386.01,68.01L387.32,130.29L387.51,115.57L387.88,118.62L388.45,92.61L388.63,95.73L388.82,93.69L389.2,231.88L389.57,143.07L389.76,144.53L390.14,148.08L390.32,123.25L390.7,255.9L390.89,253.02L391.07,104.94L392.39,82.02L392.57,84.18L392.95,84.33L393.7,75.73L393.89,67.64L394.64,64.75L394.82,65.37L395.01,66.47L395.95,45.12L396.14,28.62L397.45,23.1L397.64,26.54L398.01,21.95L398.2,159L398.39,157.88L398.58,23.06L398.95,18.72L399.14,24.68L399.33,23.31L399.51,18.71L400.08,20.29L400.26,19.45L400.45,17.85L400.64,154.76L401.01,159.52L401.2,19.78L401.76,53.35L401.95,197.62L402.14,202.38L402.33,66.57L403.27,77.93L403.45,92.24L403.83,87.08L404.02,233.31L404.2,227.14L404.39,76.15L404.77,77.42L404.95,77.04L405.14,221.8L405.89,277.02L406.08,138.09L406.64,113.25L407.02,121.79L407.2,134.87L407.39,138.04L407.58,137.87L407.77,129.64L408.7,110.08L408.89,111.79L409.08,108.32L410.02,63.79L410.2,65.72L410.39,62.28L410.77,64.38L411.52,53.13L411.71,55.2L412.27,74.25L412.64,72.28L412.83,55.24L413.77,36.25L413.96,35.95L414.14,36.6L414.33,34.72L414.71,35.95L414.89,31.37L415.27,35.87L415.46,29.9L415.64,30.55L415.83,28.35L416.21,31.18L416.39,27.85L416.58,28.35L416.77,28.54L416.96,27.37L417.14,27.57L417.33,25.99L417.71,28.57L417.9,22.95L418.27,26.07L418.65,25.83L418.83,23L419.21,27.65L419.4,162.17L419.77,168.88L419.96,33.75L421.46,60.63L421.65,63.12L421.83,63.34L422.02,59.67L422.58,73.34L422.77,208.34L422.96,211.13L423.15,78.05L423.52,225.85L423.9,89.13L424.08,86.62L424.46,230.86L424.84,94.72L425.02,98.7L425.4,123.33L425.59,117.21L425.77,256.39L425.96,254.66L426.15,114.23L426.9,105.56L427.09,245.78L427.46,235.82L427.65,99.33L428.21,86.81L428.59,88.61L428.77,81.93L429.34,223.07L429.52,80.7L430.84,66.94L431.02,63.07L431.21,63.77L431.4,63.16L431.59,61.48L431.77,61.95L431.96,46.3L432.9,32.39L433.09,33.43L433.28,33.55L433.46,31.9L434.21,26.83L434.4,28.11L434.78,24.49L434.96,25.76L435.15,27.6L435.71,23.03L435.9,25.08L436.09,26.47L436.84,21.31L437.03,23.95L437.21,23.33L437.4,166.78L437.78,26.45L438.15,33.43L438.34,34.6L439.65,63.55L439.84,62.95L440.03,201.17L440.4,203.86L440.59,68.21L440.78,71.86L440.97,71.51L441.15,209.44L441.53,220.64L441.72,84.88L441.9,83.67L442.09,77.01L443.03,94.25L443.22,90.82L443.97,98.56L444.15,95.37L445.09,79.45L445.28,76.26L445.47,76.62L445.65,74.48L446.41,62.74L446.59,63.82L446.78,60.87L447.91,45.1L448.09,48.29L449.22,37.57L449.41,38.55L449.59,38.84L449.78,34.24L449.97,36.7L450.34,33.93L450.53,35.38L450.72,34.11L451.09,33.38L451.28,32.14L451.47,33.18L451.84,31.4L452.03,31.83L452.41,29.74L452.59,24.24L452.97,30.45L453.34,25.73L453.53,25.74L453.72,24.45L453.91,27.44L454.1,28.26L454.28,23.37L454.85,27.9L455.03,163.56L455.22,170.58L455.41,52.13L455.78,199.7L456.16,73.21L456.35,89.97L457.28,124.41L457.47,125.67L457.85,134.59L458.03,132.47L458.22,128.49L458.41,130.56L458.6,121.16L458.78,248.46L459.16,243.11L459.35,90.35L459.53,92.76L459.72,112.2L460.1,124.02L460.28,264.43L460.66,286.13L460.85,147.99L461.22,144.7L461.41,137.94L463.29,85.3L463.47,93.91L463.66,109L463.85,86.38L464.04,72.4L465.16,60L465.35,61.19L465.72,53.49L465.91,185.13L466.1,184.51L466.29,185.5L466.47,45.59L466.85,43.9L467.04,44.58L467.22,45.96L468.73,35.11L468.91,38.03L470.41,29.72L470.6,31.71L470.79,31.87L470.98,29.15L471.16,166.26L471.35,26.9L471.54,29.2L471.73,28.87L472.29,24.7L472.48,29.6L472.85,24.05L473.23,26.31L473.41,46.32L474.16,67.07L474.35,209.62L474.54,214.58L474.73,79.75L474.91,93.01L475.1,245.57L475.29,246.81L475.48,113.45L475.67,112.21L475.85,115.61L476.04,124.02L476.23,127.15L476.42,117.77L477.17,88.14L477.35,94.96L477.54,97.82L477.92,117.02L478.1,116.68L478.29,133.39L478.48,149.11L478.85,138.62L479.04,263.01L479.23,262.27L479.42,264.04L479.6,267.6L480.54,100.35L480.73,96.02L482.04,69.43L482.23,70.21L484.29,44.24L484.48,46.99L484.67,47.01L484.86,44.77L485.04,41.98L485.61,43.57L485.79,180.54L485.98,181.08L486.17,178.56L486.36,179.82L486.54,40.8L487.86,33.98L488.04,35.03L488.61,30.13L488.79,32.32L488.98,31.86L489.36,30.93L489.54,25.53L489.92,30.23L490.3,29.47L490.48,28.76L490.67,26.11L491.05,28.92L491.23,28.19L491.42,177.02L491.61,57.41L491.98,207.44L492.17,218.16L492.36,95.06L492.73,240.28L492.92,253.44L493.11,260.45L493.3,115.48L493.48,116.63L493.67,115.23L493.86,109.44L494.05,101.45L494.23,110.67L494.42,126.14L494.8,131.21L494.98,124.04L495.17,115.24L495.36,94.57L495.92,98.1L496.11,102.77L496.3,99.24L496.67,103.47L496.86,106.9L497.05,107.25L497.24,124.09L498.17,153.47L498.36,137.17L500.05,100.3L500.24,99.04L500.42,98.14L500.61,92.63L500.8,93.57L500.99,91.67L501.17,88.32L501.36,92.15L501.55,90.06L501.74,84.04L502.3,75.58L502.67,75.99L502.86,76.26L503.8,68.99L503.99,51.24L504.36,37.8L504.93,39.48L505.11,36.51L505.49,38.05L505.68,30.57L506.43,33.48L506.61,27.61L506.99,31.29L507.36,30.91L507.55,28.04L507.93,29.69L508.3,25.95L508.49,27.74L508.68,27.69L508.86,26.28L509.05,24.31L509.24,47.97L509.43,65.22L509.61,56.17L509.8,200.31L509.99,208.11L510.18,70.05L510.74,79.41L510.93,87.26L511.11,87.79L511.3,102.6L511.68,116.52L512.05,105.25L512.24,109.47L512.62,88.32L512.8,217.56L512.99,224.11L513.18,88.48L513.37,90.35L513.55,112.65L514.12,124.63L514.3,116.88L514.49,115.45L514.68,115.48L514.87,112.79L515.24,105.62L515.43,117.8L515.8,277.34L516.18,230.71L516.37,93.16L517.12,66.9L517.3,67.47L517.49,194.82L517.68,199.16L517.87,59.57L518.81,51.8L518.99,52.67L520.31,38.41L520.49,39.75L520.87,62.37L521.06,46.76L521.24,33.72L521.43,35.02L521.81,33.28L521.99,33.41L523.12,27.97L523.31,30.42L523.49,31.09L523.68,25.92L523.87,28.09L524.24,25.39L524.43,26.38L524.62,23.85L524.99,25.27L525.18,21.54L525.37,23.26L525.56,23.58L525.75,157.44L526.12,22.92L526.31,24.13L526.5,21.3L526.68,19.72L526.87,22.01L527.06,20.19L527.25,24.1L527.62,51.2L527.81,195.67L528,59.95L528.56,62.65L528.75,64.65L528.93,70.06L529.12,62.25L529.31,48.73L529.5,45.71L529.87,49.28L530.06,53.75L530.25,51.5L530.43,66.04L530.62,79.26L530.81,219.56L531,210.31L531.18,59.92L532.5,80.05L532.68,100.41L533.06,96.81L533.44,108.77L533.62,108.52L533.81,109.97L534.56,100.04L534.75,100.98L534.94,231.81L535.12,226.77L535.31,92.6L536.44,76.31L536.62,76.37L537,75.87L537.19,73.66L537.75,67.17L537.94,64.89L538.31,64.96L538.5,62.72L539.44,59.65L539.62,58.58L540,88.56" style="vector-effect: non-scaling-stroke; fill: none; stroke: rgb(0, 191, 255); stroke-opacity: 1; stroke-width: 2px; opacity: 1;"/></g><g class="points"/><g class="text"/></g></g></g><g class="overplot"/><path class="xlines-above crisp" d="M0,0" style="fill: none;"/><path class="ylines-above crisp" d="M0,0" style="fill: none;"/><g class="overlines-above"/><g class="xaxislayer-above"><g class="xtick"><text text-anchor="middle" x="0" y="433" transform="translate(134.02,0)" style="font-family: sans-serif; font-size: 12px; fill: rgb(42, 63, 95); fill-opacity: 1; white-space: pre; opacity: 1;"><tspan class="line" dy="0em" x="0" y="433">Sep 4</tspan><tspan class="line" dy="1.3em" x="0" y="433">2022</tspan></text></g><g class="xtick"><text text-anchor="middle" x="0" y="433" style="font-family: sans-serif; font-size: 12px; fill: rgb(42, 63, 95); fill-opacity: 1; white-space: pre; opacity: 1;" transform="translate(260.06,0)">Sep 11</text></g><g class="xtick"><text text-anchor="middle" x="0" y="433" style="font-family: sans-serif; font-size: 12px; fill: rgb(42, 63, 95); fill-opacity: 1; white-space: pre; opacity: 1;" transform="translate(386.11,0)">Sep 18</text></g><g class="xtick"><text text-anchor="middle" x="0" y="433" style="font-family: sans-serif; font-size: 12px; fill: rgb(42, 63, 95); fill-opacity: 1; white-space: pre; opacity: 1;" transform="translate(512.15,0)">Sep 25</text></g></g><g class="yaxislayer-above"><g class="ytick"><text text-anchor="end" x="79" y="4.199999999999999" transform="translate(0,410.84)" style="font-family: sans-serif; font-size: 12px; fill: rgb(42, 63, 95); fill-opacity: 1; white-space: pre; opacity: 1;">−120k</text></g><g class="ytick"><text text-anchor="end" x="79" y="4.199999999999999" style="font-family: sans-serif; font-size: 12px; fill: rgb(42, 63, 95); fill-opacity: 1; white-space: pre; opacity: 1;" transform="translate(0,355.69)">−100k</text></g><g class="ytick"><text text-anchor="end" x="79" y="4.199999999999999" style="font-family: sans-serif; font-size: 12px; fill: rgb(42, 63, 95); fill-opacity: 1; white-space: pre; opacity: 1;" transform="translate(0,300.53)">−80k</text></g><g class="ytick"><text text-anchor="end" x="79" y="4.199999999999999" style="font-family: sans-serif; font-size: 12px; fill: rgb(42, 63, 95); fill-opacity: 1; white-space: pre; opacity: 1;" transform="translate(0,245.37)">−60k</text></g><g class="ytick"><text text-anchor="end" x="79" y="4.199999999999999" style="font-family: sans-serif; font-size: 12px; fill: rgb(42, 63, 95); fill-opacity: 1; white-space: pre; opacity: 1;" transform="translate(0,190.22)">−40k</text></g><g class="ytick"><text text-anchor="end" x="79" y="4.199999999999999" style="font-family: sans-serif; font-size: 12px; fill: rgb(42, 63, 95); fill-opacity: 1; white-space: pre; opacity: 1;" transform="translate(0,135.06)">−20k</text></g></g><g class="overaxes-above"/></g></g><g class="polarlayer"/><g class="smithlayer"/><g class="ternarylayer"/><g class="geolayer"/><g class="funnelarealayer"/><g class="pielayer"/><g class="iciclelayer"/><g class="treemaplayer"/><g class="sunburstlayer"/><g class="glimages"/><defs id="topdefs-6acfb6"><g class="clips"/></defs><g class="layer-above"><g class="imagelayer"/><g class="shapelayer"/></g><g class="infolayer"><g class="g-gtitle"><text class="gtitle" x="350" y="50" text-anchor="middle" dy="0em" style="font-family: sans-serif; font-size: 17px; fill: rgb(42, 63, 95); opacity: 1; font-weight: normal; white-space: pre;"><tspan class="line" dy="0em" x="350" y="50"><tspan style="font-weight:bold">Scenario 3</tspan></tspan><tspan class="line" dy="1.3em" x="350" y="50"><tspan style="font-weight:bold">Microgrid Output</tspan></tspan><tspan class="line" dy="2.6em" x="350" y="50"><tspan style="font-weight:bold">From: September 01, 2022 to September 30, 2022</tspan></tspan></text></g><g class="g-xtitle"><text class="xtitle" x="350" y="476.409375" text-anchor="middle" style="font-family: sans-serif; font-size: 14px; fill: rgb(42, 63, 95); opacity: 1; font-weight: normal; white-space: pre;"><tspan style="font-weight:bold">Time</tspan></text></g><g class="g-ytitle"><text class="ytitle" transform="rotate(-90,21.168750000000003,260)" x="21.168750000000003" y="260" text-anchor="middle" style="font-family: sans-serif; font-size: 14px; fill: rgb(42, 63, 95); opacity: 1; font-weight: normal; white-space: pre;"><tspan style="font-weight:bold">Demand (kW)</tspan></text></g></g></svg>