<svg class="main-svg" xmlns="http://www.w3.org/2000/svg" xmlns:xlink="http://www.w3.org/1999/xlink" width="700" height="500" style="" viewBox="0 0 700 500"><rect x="0" y="0" width="700" height="500" style="fill: rgb(255, 255, 255); fill-opacity: 1;"/><defs id="defs-b5c5f7"><g class="clips"><clipPath id="clipb5c5f7xyplot" class="plotclip"><rect width="540" height="320"/></clipPath><clipPath class="axesclip" id="clipb5c5f7x"><rect x="80" y="0" width="540" height="500"/></clipPath><clipPath class="axesclip" id="clipb5c5f7y"><rect x="0" y="100" width="700" height="320"/></clipPath><clipPath class="axesclip" id="clipb5c5f7xy"><rect x="80" y="100" width="540" height="320"/></clipPath></g><g class="gradients"/><g class="patterns"/></defs><g class="bglayer"/><g class="layer-below"><g class="imagelayer"/><g class="shapelayer"/></g><g class="cartesianlayer"><g class="subplot xy"><g class="layer-subplot"><g class="shapelayer"/><g class="imagelayer"/></g><g class="minor-gridlayer"><g class="x"/><g class="y"/></g><g class="gridlayer"><g class="x"><path class="xgrid crisp" transform="translate(97.43,0)" d="M0,100v320" style="stroke: rgb(255, 255, 255); stroke-opacity: 1; stroke-width: 1px;"/><path class="xgrid crisp" transform="translate(219.4,0)" d="M0,100v320" style="stroke: rgb(255, 255, 255); stroke-opacity: 1; stroke-width: 1px;"/><path class="xgrid crisp" transform="translate(341.38,0)" d="M0,100v320" style="stroke: rgb(255, 255, 255); stroke-opacity: 1; stroke-width: 1px;"/><path class="xgrid crisp" transform="translate(463.35,0)" d="M0,100v320" style="stroke: rgb(255, 255, 255); stroke-opacity: 1; stroke-width: 1px;"/><path class="xgrid crisp" transform="translate(585.3299999999999,0)" d="M0,100v320" style="stroke: rgb(255, 255, 255); stroke-opacity: 1; stroke-width: 1px;"/></g><g class="y"><path class="ygrid crisp" transform="translate(0,391.86)" d="M80,0h540" style="stroke: rgb(255, 255, 255); stroke-opacity: 1; stroke-width: 1px;"/><path class="ygrid crisp" transform="translate(0,346.25)" d="M80,0h540" style="stroke: rgb(255, 255, 255); stroke-opacity: 1; stroke-width: 1px;"/><path class="ygrid crisp" transform="translate(0,300.64)" d="M80,0h540" style="stroke: rgb(255, 255, 255); stroke-opacity: 1; stroke-width: 1px;"/><path class="ygrid crisp" transform="translate(0,255.03)" d="M80,0h540" style="stroke: rgb(255, 255, 255); stroke-opacity: 1; stroke-width: 1px;"/><path class="ygrid crisp" transform="translate(0,209.41)" d="M80,0h540" style="stroke: rgb(255, 255, 255); stroke-opacity: 1; stroke-width: 1px;"/><path class="ygrid crisp" transform="translate(0,163.8)" d="M80,0h540" style="stroke: rgb(255, 255, 255); stroke-opacity: 1; stroke-width: 1px;"/></g></g><g class="zerolinelayer"><path class="yzl zl crisp" transform="translate(0,118.19)" d="M80,0h540" style="stroke: rgb(255, 255, 255); stroke-opacity: 1; stroke-width: 2px;"/></g><path class="xlines-below"/><path class="ylines-below"/><g class="overlines-below"/><g class="xaxislayer-below"/><g class="yaxislayer-below"/><g class="overaxes-below"/><g class="plot" transform="translate(80,100)" clip-path="url(#clipb5c5f7xyplot)"><g class="scatterlayer mlayer"><g class="trace scatter tracee55540" style="stroke-miterlimit: 2; opacity: 0.5;"><g class="fills"/><g class="errorbars"/><g class="lines"><path class="js-line" d="M0,17.53L1.27,18.25L1.45,18.19L1.63,18.14L1.82,65.78L2,167.12L2.72,164.7L2.9,155.71L3.09,156.03L3.27,167.64L3.99,154.64L4.17,162.82L4.36,162.28L4.54,148.24L5.26,163.12L5.45,137.35L7.08,17.6L7.26,17.57L7.44,17.11L7.81,18.14L7.99,18.28L8.89,17.99L9.08,18.51L9.26,17.82L9.8,18.17L9.98,18.32L10.89,18.46L11.07,18.39L12.89,18.61L13.07,18.29L13.98,18.28L14.16,18.06L14.7,18.71L14.88,18.25L15.07,17.78L16.15,18.27L16.34,18.14L18.88,18.12L19.06,18.38L19.97,18.17L20.15,18.23L22.33,18.13L22.51,18.25L23.42,17.82L23.6,18.16L24.5,17.38L24.69,17.95L24.87,18.42L25.41,18.18L25.59,17.98L26.32,18.37L26.5,17.65L27.41,18.41L27.59,18.26L28.5,18.43L28.68,18.66L29.22,18.23L29.41,18.8L29.59,18.48L30.68,18.21L30.86,18.14L33.04,18.31L33.22,18.13L35.03,18.27L35.21,18.04L35.94,18.34L36.12,18.07L37.94,18.24L38.12,18.13L39.39,18.16L39.57,18.18L43.02,17.92L43.2,18.5L43.93,17.95L44.11,18.38L44.29,18.11L44.47,18.88L44.83,17.84L45.02,18.09L45.2,18.3L45.56,18.54L45.92,18.16L46.1,18.76L47.01,18.38L47.19,18.67L47.56,18.99L48.1,17.93L48.28,18.23L49.73,18.21L49.92,17.88L50.1,18.48L50.64,18.3L50.82,18.04L51.73,18.18L51.91,18.16L56.27,18.18L56.45,101.99L56.63,159.32L57.18,158.33L57.36,146.01L58.45,17.83L58.81,18.02L58.99,17.75L59.72,18.11L59.9,17.6L60.44,18.34L60.63,18.16L60.81,18L60.99,17.85L61.17,18.24L61.35,18.53L61.53,18.62L61.71,17.82L62.62,18.33L62.8,18.2L63.17,17.97L63.35,18.91L63.53,18.05L63.71,18.47L68.97,17.99L69.16,134.82L69.34,304L70.06,299.73L70.25,295.45L72.06,159.87L72.24,170.66L72.61,149.97L72.79,173.86L72.97,176.53L73.15,154.78L73.51,166.02L73.69,160.96L73.88,153.85L74.06,152.38L74.24,157.38L74.78,142.17L74.96,117.62L75.87,17.84L76.42,17.88L76.6,17.84L78.05,17.91L78.23,18.53L79.32,17.78L79.5,18.2L81.14,18.47L81.32,18.07L81.86,19L82.04,18.8L82.23,18.27L82.41,18.78L82.59,18.14L82.95,18.09L83.13,18.2L84.4,17.92L84.58,18.29L86.04,18.02L86.22,18.21L86.4,18.29L86.58,271.55L86.94,293.99L87.13,260.54L87.31,201.88L88.22,173.05L88.4,171.94L88.76,176.78L88.94,174.5L89.12,171.26L89.67,172.64L90.03,164.15L90.21,171.74L90.57,162.07L90.94,162.2L91.12,173.6L91.3,177.31L91.48,164.43L91.66,163.23L91.85,174.73L92.21,175.41L92.39,169.91L92.75,133.19L92.93,151.99L93.12,185.82L93.3,171.58L93.48,206.17L93.66,195.48L93.84,118.07L94.39,16.24L95.11,18.04L95.29,18.6L95.84,18.08L96.02,18.16L96.2,18.56L96.75,17.72L96.93,18.47L97.11,18.19L98.38,18.56L98.56,18.31L99.65,18.66L99.83,18.36L103.28,18.21L103.46,18.34L104.19,17.94L104.37,18.18L104.55,18.4L105.28,18.1L105.46,153L105.64,177.09L106.18,173.53L106.37,169.86L106.55,169.55L106.73,170.49L106.91,160.54L107.09,160L107.27,161.13L107.46,168.49L108.18,156.24L108.36,156.97L108.54,158.73L108.91,149.51L109.09,160.76L109.45,156.87L110,186.03L110.18,137.62L111.09,17.83L111.27,18.12L111.45,17.7L112.17,18.22L112.36,18.04L112.54,18.07L112.9,17.5L113.08,18.92L113.26,17.97L113.45,18.29L113.81,17.71L114.53,18.41L114.72,18.18L115.81,18.82L115.99,17.91L116.89,18.85L117.08,18.25L117.8,18.33L117.98,18.03L118.89,18.24L119.07,18.19L121.07,18.19L121.25,18.26L122.16,18.26L122.34,46.73L122.7,185.84L123.25,175.43L123.43,169.04L124.34,162.24L124.52,167.3L124.7,171.45L124.88,158.08L125.43,157.06L125.61,167.16L125.79,155.21L126.15,162.59L126.51,158.13L126.7,158.23L127.06,139.41L127.24,115.12L128.51,17.68L128.69,18.13L129.42,17.78L129.6,18.12L131.42,18.94L131.6,17.5L132.14,20.31L132.32,19.48L132.5,18.28L132.69,16L133.05,19.02L133.23,18.24L133.41,18.25L134.32,18.68L134.5,18.3L134.68,18.87L134.86,17.97L135.05,18.56L135.23,18.01L136.13,18.39L136.32,18.11L137.77,18.17L137.95,18.08L139.58,18.35L139.76,32.66L139.95,186.48L140.67,179.95L140.85,180.38L141.04,165.35L141.58,171L141.76,167.97L142.67,158.24L142.85,163.79L143.03,162.98L143.21,151.89L143.58,171.51L143.94,150.72L144.12,159.65L144.67,124.77L144.85,86.18L145.39,17.8L145.75,17.91L145.94,17.89L148.11,17.9L148.3,18.32L148.48,19.05L148.66,17.27L149.02,18.2L149.2,18.24L150.47,18.16L150.66,18.79L151.2,18.16L151.56,18.29L151.74,18.82L152.65,18.03L152.83,18.29L153.92,18.1L154.1,18.13L155.01,18.31L155.19,18.07L156.65,18.16L156.83,18.15L159.91,18.24L160.09,18.03L161.18,18.24L161.36,105.05L162.09,230.23L162.27,210.17L162.45,174.37L163.72,17.08L163.91,17.68L164.09,18.12L165.72,17.79L165.9,18.72L166.45,18.03L166.63,18.99L166.81,17.74L167.17,18.02L167.35,21.14L167.9,16.15L168.26,18.81L168.44,18.34L168.81,17.81L169.35,18.99L169.53,17.76L170.26,18.48L170.44,17.79L171.17,18.19L171.35,18.11L172.8,18.37L172.98,18.03L174.43,18.13L174.62,32.81L175.34,174.73L175.52,169.57L175.7,164.46L176.07,172.38L176.25,170.42L176.43,164.62L176.97,160.57L177.16,171.84L177.52,154.83L177.7,168.98L177.88,168.79L178.43,169.86L178.61,155.31L178.79,160.77L179.15,155.31L179.52,174.99L179.7,210.22L180.24,244.84L180.42,213.88L180.61,204.22L180.79,217.46L180.97,200.98L181.15,176.85L182.6,17.62L182.78,17.85L182.96,17.84L183.33,16.92L183.51,18.23L183.69,19.88L184.05,16.9L184.24,19.41L184.42,16.28L184.96,18.41L185.14,19.27L185.51,17.9L186.05,18.13L186.23,18.02L188.05,18.15L188.23,18.39L188.41,18.13L188.59,153.34L188.77,187.46L189.32,182.68L189.5,174.18L189.86,178.77L190.04,164.53L190.23,163.96L190.41,176.98L191.31,151.87L191.5,160.76L191.68,169.85L191.86,157.86L192.22,162.02L192.4,154.18L192.58,154.86L192.77,167.72L192.95,172.02L193.13,161.45L193.31,157.97L193.49,157.87L193.67,155.75L193.86,152.07L194.04,154.92L194.22,160.29L194.58,153.95L194.94,154.88L195.13,157.72L195.67,161L196.03,151.07L196.22,153.41L196.4,159.2L196.76,148.33L196.94,143.87L197.12,143.19L197.3,187.59L197.49,197.12L197.67,108.42L198.57,47.94L198.76,61.94L199.12,17.15L199.85,17.98L200.03,17.13L200.21,16.86L200.39,18.26L200.57,18.17L200.75,18.71L200.93,19.04L201.12,17.46L201.66,18.1L201.84,18.45L203.29,19L203.48,18.42L204.38,18.64L204.56,18.28L204.75,18.27L205.65,17.91L205.84,18.26L209.65,18.24L209.83,93.29L210.19,159.48L210.74,156.05L210.92,163.72L211.28,148.9L211.46,151.3L211.64,165.07L212.01,143.89L212.19,155.97L212.37,161.75L213.28,143.67L213.46,148.01L214,144.43L214.18,159.86L214.37,156.58L214.55,124.66L214.73,129.71L214.91,172.91L215.09,184.07L215.46,175.54L215.64,161.63L216.18,104.2L216.36,44.9L217.27,17.23L217.45,18.43L217.82,17.75L218.18,17.95L218.36,18.38L219.09,18.24L219.27,18.41L219.45,18.27L219.81,19.31L219.99,18.26L220.36,18.1L220.9,18.71L221.08,18.41L221.99,18.4L222.17,18.05L223.08,18.2L223.26,18.12L224.53,18.26L224.71,18.04L225.08,18.36L225.26,18.04L225.44,75.72L225.62,245.15L226.16,159.41L226.35,163.44L226.53,173.49L226.71,158.15L226.89,147.66L227.25,171.45L227.8,169.34L227.98,156.88L228.16,160.51L228.34,160.13L228.52,145.22L228.89,163.84L229.43,160.92L229.61,161.84L230.16,148.59L230.34,157.31L230.7,151.22L231.07,163.1L231.25,153.9L231.43,148.19L231.61,198.9L231.79,259.11L232.34,255.77L232.52,248.23L235.24,17.26L235.42,18.71L235.6,16.99L236.15,17.89L236.33,18.42L237.24,18.29L237.42,18.46L239.6,18.23L239.78,18.06L240.87,18.34L241.05,17.94L241.96,18.31L242.14,18.11L243.05,18.2L243.23,18.21L244.5,18.37L244.68,82.61L245.22,172.23L245.59,157.86L245.77,156.19L246.13,161.13L246.31,158.82L246.49,153.94L246.68,147.92L246.86,157.02L247.04,163.39L247.4,168.49L247.58,155.77L247.95,161.25L248.31,147.55L248.49,158.91L248.67,162.25L248.85,153.53L249.22,159.95L249.4,140.29L250.12,83.3L250.31,84.57L250.49,106.38L250.85,93.21L251.03,65.74L251.76,18.1L251.94,18.19L252.12,17.85L252.67,18.05L252.85,17.61L253.75,18.43L253.94,18.38L254.48,17.99L254.66,19.22L255.03,18.03L255.57,18.2L255.75,18.54L256.84,17.8L257.02,18.29L257.57,189.94L257.93,169.21L258.11,176.74L258.29,181.96L258.47,170.38L258.84,177.35L259.02,167.28L259.2,165.63L259.38,173.24L260.29,151.06L260.47,153.95L260.65,166.7L260.83,167.78L261.02,153.68L261.2,152.09L261.38,164.39L261.74,148.59L261.92,156.72L262.1,164.85L263.19,151.02L263.37,162.36L263.56,160.2L263.74,148.57L264.1,160.64L264.28,156.51L264.46,147.73L264.65,147.42L264.83,154.22L265.37,160.05L265.55,156.86L265.73,153.23L266.1,152.75L266.46,160.42L266.64,152.11L268.09,17.81L268.46,18.26L268.64,18.4L269,17.7L269.36,18.3L269.55,18.24L269.73,18.44L269.91,17.73L270.09,17.05L271.18,18.88L271.36,17.74L272.27,18.61L272.45,18.13L273.36,18.35L273.54,18.26L275.72,18.21L275.9,18.09L276.99,18.13L277.17,119.88L277.71,165.22L278.08,148.9L278.26,154.6L278.62,152.29L278.8,158.89L279.89,149.92L280.07,152.73L280.26,154.23L281.71,146.57L281.89,146.6L282.07,148.37L282.8,144.73L282.98,145.56L283.16,146.5L283.34,147.07L283.52,145.82L283.7,146.08L283.89,178.78L284.07,208.36L284.43,149.89L284.61,100.21L285.52,17.35L285.7,17.75L287.33,18.37L287.52,18.14L288.61,18.44L288.79,18.03L290.06,18.73L290.24,18.39L290.42,19.23L290.6,18.23L290.96,18.3L291.15,18.22L292.05,18.25L292.24,18.25L292.78,17.93L293.14,18.19L293.32,18.17L294.78,18.1L294.96,18.28L297.68,18.17L297.86,18.22L299.5,18.15L299.68,18.23L300.95,18.18L301.13,18.26L302.4,17.67L302.58,17.91L302.76,18.05L303.13,17.72L303.31,18.48L303.85,17.35L304.22,17.59L304.4,18.58L304.94,17.8L305.12,18.17L305.3,18.42L305.49,18.04L306.03,18.57L306.21,18.6L306.39,18.1L306.57,18.82L306.94,18.32L307.12,18.53L308.21,18.35L308.39,18.78L309.12,18.13L309.3,18.35L309.48,18.18L310.39,17.98L310.57,18.4L311.29,17.98L311.48,18.18L311.66,18.09L312.56,18.34L312.75,261.45L313.29,293.21L313.47,229.46L314.38,157.07L314.56,161.89L315.11,169.97L315.29,158.26L315.65,160.81L316.01,151.45L316.19,152.29L316.38,154.61L316.56,156.29L316.74,149.11L316.92,144.73L317.28,153.81L317.47,147.43L317.65,148.32L317.83,153.14L318.19,145.83L318.37,149.28L318.55,151.61L318.74,149.06L318.92,152.1L319.1,180.37L319.28,189.72L319.46,141.77L320.55,17.7L320.73,18.11L322,18.1L322.18,18.28L322.37,17.51L322.91,18.34L323.09,18.38L324,18.38L324.18,18.83L325.09,18.14L325.27,18.8L326,18.34L326.18,18.65L326.36,18.5L327.45,17.66L327.63,18.08L329.08,18.4L329.26,17.91L329.99,18.23L330.17,18.11L330.35,130.94L330.53,192.62L331.08,180.7L331.26,175.61L331.44,176.06L331.62,173.86L332.35,162.06L332.53,163.79L332.71,169.23L332.89,174.27L333.08,164.72L333.26,152.96L333.62,166.93L334.16,161.09L334.35,153.23L334.53,151.88L334.71,156.72L335.25,152.62L335.44,156.95L336.16,144.77L336.34,127.57L336.71,212.87L337.07,160.19L337.25,88.44L338.16,17.57L338.34,18.52L338.52,17.63L339.25,18.41L339.43,17.74L341.24,18.41L341.43,18.06L341.79,18.55L341.97,17.8L342.15,18.86L342.7,19.07L342.88,18.15L343.06,18.54L345.24,18.04L345.42,18.42L345.6,17.94L346.14,18.19L346.33,18.2L347.42,18.15L347.6,18.52L347.96,18.1L348.14,94.74L348.32,282.08L348.87,169.94L349.05,159.42L349.41,172.78L349.59,161.33L349.77,155.45L350.14,157.17L350.32,155.6L350.5,164.79L350.86,148.89L351.05,153.7L351.23,159.89L351.59,150.89L352.13,152.12L352.32,149.69L352.5,152.55L352.68,150.8L352.86,144.98L353.41,169.87L353.59,221.64L353.77,250.34L353.95,222.89L354.13,179.24L355.4,17.7L355.58,18.07L356.13,18.52L356.31,17.27L356.49,19.12L357.22,17.42L357.4,18.18L357.58,18.63L358.12,18.28L358.31,17.55L359.03,18.64L359.21,18.18L359.39,18.78L360.3,18.75L360.48,18.32L361.21,18.68L361.39,17.97L362.12,18.22L362.3,18.11L364.48,18.33L364.66,127.4L364.84,282.78L365.38,280.8L365.57,263.61L365.93,285.16L366.11,227.57L366.47,164.74L367.02,164.77L367.2,168.26L367.38,172.35L367.56,170.25L367.74,151.76L368.47,178.47L368.65,163.48L369.2,169.55L369.56,147.34L369.74,162.28L369.92,165.01L370.29,161.81L370.47,156.65L371.19,173.03L371.37,164.12L371.56,118.65L372.1,17.61L372.46,18.38L372.65,18.33L372.83,17.32L373.01,18.84L373.37,17.72L373.55,18.07L373.92,18.45L374.1,17.72L374.28,18.69L374.46,17.18L374.82,19.44L375.01,17.51L375.19,17.93L375.37,18.6L375.73,18.01L375.91,16.31L376.82,19.91L377,17.86L377.36,18.85L377.55,18.18L377.73,17.43L377.91,19.68L378.45,18.14L378.64,18.37L380.09,18.2L380.27,18.13L381.54,18.28L381.72,18.17L383.17,18.32L383.35,18.05L383.54,18.2L383.72,54.69L384.44,160.02L384.63,158.96L384.81,149.11L385.35,151.91L385.53,150.27L385.71,145.92L385.9,145.79L386.08,146.68L386.44,155.81L386.8,147.01L386.98,148.8L387.17,151.39L387.53,146.83L387.71,147.19L388.07,146.27L388.26,151.87L388.8,53.96L388.98,18.9L389.53,17.61L389.71,18.26L389.89,18.08L390.25,17.2L390.62,18.01L390.8,18L396.06,18.62L396.24,18.16L398.96,18.16L399.15,18.14L401.51,18.2L401.69,18.18L406.59,18.34L406.77,17.75L410.04,18.68L410.22,18.86L410.58,17.69L410.94,17.95L411.13,18.29L412.03,18.67L412.22,18.33L412.94,18.89L413.12,18.51L413.3,18.57L414.94,18.18L415.12,18.23L416.21,18.22L416.39,18.13L418.02,18.19L418.21,18.17L423.65,18.11L423.83,17.95L424.38,17.79L424.56,18.14L424.74,18.31L425.65,17.96L425.83,18.06L426.19,18.33L426.55,17.86L426.74,17.91L427.83,18.25L428.01,18.2L429.1,18.33L429.28,18.59L433.27,18.13L433.45,18.18L436.17,18.19L436.36,18.19L441.08,18.09L441.26,17.95L442.35,17.82L442.53,18.11L442.89,17.39L443.07,18.38L443.25,18.46L443.8,17.71L443.98,18.84L444.16,17.56L444.71,18.23L444.89,18.15L446.16,18.27L446.34,18.95L447.07,18.11L447.25,18.66L449.79,18.05L449.97,18.25L453.96,17.74L454.14,18.14L455.42,18.21L455.6,18.16L458.5,17.91L458.68,17.81L459.59,18.06L459.77,17.81L461.04,17.98L461.22,17.48L462.31,18.39L462.49,18.18L463.4,18.29L463.58,18.54L464.49,18.58L464.67,18.52L465.76,18.46L465.94,18.29L466.85,18.15L467.03,18.13L468.67,18.26L468.85,18.19L469.03,17.83L469.57,18.11L469.75,18.21L471.21,18.21L471.39,18.18L479.19,17.97L479.37,18.64L479.56,17.56L480.1,17.98L480.28,18.21L481.55,18.75L481.73,18.32L481.92,17.88L482.1,18.12L482.28,19.38L482.46,18.11L483.01,18.23L483.19,18.35L486.45,18.15L486.64,18.3L487.72,18.2L487.91,18.25L490.08,18.18L490.27,18.21L496.8,18.09L496.98,18.32L497.89,18.33L498.07,18.25L499.16,18.81L499.34,18.41L504.61,18.12L504.79,18.27L506.06,18.15L506.24,18.19L515.5,18.35L515.68,18.49L517.31,18.47L517.49,18.74L518.58,18.02L518.76,18.33L519.49,17.68L519.67,18.04L519.85,18.32L520.76,18.16L520.94,18.13L522.76,18.2L522.94,18.16L524.75,18.2L524.93,18.2L529.11,17.94L529.29,17.57L530.92,18.08L531.11,18L531.47,18.08L531.65,19.12L531.83,17.37L532.19,19.46L532.38,19.1L532.56,17.84L532.92,17.24L533.28,19.41L533.47,17.33L533.65,19.29L534.19,17.73L534.37,18.02L534.55,19.04L534.74,17.91L535.1,18.71L535.28,18.28L536.73,18.27L536.91,18.28L538,18.17L538.18,18.27L539.09,18.06L539.27,18.28L540,18.3" style="vector-effect: non-scaling-stroke; fill: none; stroke: rgb(0, 191, 255); stroke-opacity: 1; stroke-width: 2px; opacity: 1;"/></g><g class="points"/><g class="text"/></g></g></g><g class="overplot"/><path class="xlines-above crisp" d="M0,0" style="fill: none;"/><path class="ylines-above crisp" d="M0,0" style="fill: none;"/><g class="overlines-above"/><g class="xaxislayer-above"><g class="xtick"><text text-anchor="middle" x="0" y="433" transform="translate(97.43,0)" style="font-family: 'Open Sans', verdana, arial, sans-serif; font-size: 12px; fill: rgb(42, 63, 95); fill-opacity: 1; white-space: pre; opacity: 1;"><tspan class="line" dy="0em" x="0" y="433">Oct 2</tspan><tspan class="line" dy="1.3em" x="0" y="433">2022</tspan></text></g><g class="xtick"><text text-anchor="middle" x="0" y="433" style="font-family: 'Open Sans', verdana, arial, sans-serif; font-size: 12px; fill: rgb(42, 63, 95); fill-opacity: 1; white-space: pre; opacity: 1;" transform="translate(219.4,0)">Oct 9</text></g><g class="xtick"><text text-anchor="middle" x="0" y="433" style="font-family: 'Open Sans', verdana, arial, sans-serif; font-size: 12px; fill: rgb(42, 63, 95); fill-opacity: 1; white-space: pre; opacity: 1;" transform="translate(341.38,0)">Oct 16</text></g><g class="xtick"><text text-anchor="middle" x="0" y="433" style="font-family: 'Open Sans', verdana, arial, sans-serif; font-size: 12px; fill: rgb(42, 63, 95); fill-opacity: 1; white-space: pre; opacity: 1;" transform="translate(463.35,0)">Oct 23</text></g><g class="xtick"><text text-anchor="middle" x="0" y="433" style="font-family: 'Open Sans', verdana, arial, sans-serif; font-size: 12px; fill: rgb(42, 63, 95); fill-opacity: 1; white-space: pre; opacity: 1;" transform="translate(585.3299999999999,0)">Oct 30</text></g></g><g class="yaxislayer-above"><g class="ytick"><text text-anchor="end" x="79" y="4.199999999999999" transform="translate(0,391.86)" style="font-family: 'Open Sans', verdana, arial, sans-serif; font-size: 12px; fill: rgb(42, 63, 95); fill-opacity: 1; white-space: pre; opacity: 1;">−30</text></g><g class="ytick"><text text-anchor="end" x="79" y="4.199999999999999" style="font-family: 'Open Sans', verdana, arial, sans-serif; font-size: 12px; fill: rgb(42, 63, 95); fill-opacity: 1; white-space: pre; opacity: 1;" transform="translate(0,346.25)">−25</text></g><g class="ytick"><text text-anchor="end" x="79" y="4.199999999999999" style="font-family: 'Open Sans', verdana, arial, sans-serif; font-size: 12px; fill: rgb(42, 63, 95); fill-opacity: 1; white-space: pre; opacity: 1;" transform="translate(0,300.64)">−20</text></g><g class="ytick"><text text-anchor="end" x="79" y="4.199999999999999" style="font-family: 'Open Sans', verdana, arial, sans-serif; font-size: 12px; fill: rgb(42, 63, 95); fill-opacity: 1; white-space: pre; opacity: 1;" transform="translate(0,255.03)">−15</text></g><g class="ytick"><text text-anchor="end" x="79" y="4.199999999999999" style="font-family: 'Open Sans', verdana, arial, sans-serif; font-size: 12px; fill: rgb(42, 63, 95); fill-opacity: 1; white-space: pre; opacity: 1;" transform="translate(0,209.41)">−10</text></g><g class="ytick"><text text-anchor="end" x="79" y="4.199999999999999" style="font-family: 'Open Sans', verdana, arial, sans-serif; font-size: 12px; fill: rgb(42, 63, 95); fill-opacity: 1; white-space: pre; opacity: 1;" transform="translate(0,163.8)">−5</text></g><g class="ytick"><text text-anchor="end" x="79" y="4.199999999999999" style="font-family: 'Open Sans', verdana, arial, sans-serif; font-size: 12px; fill: rgb(42, 63, 95); fill-opacity: 1; white-space: pre; opacity: 1;" transform="translate(0,118.19)">0</text></g></g><g class="overaxes-above"/></g></g><g class="polarlayer"/><g class="smithlayer"/><g class="ternarylayer"/><g class="geolayer"/><g class="funnelarealayer"/><g class="pielayer"/><g class="iciclelayer"/><g class="treemaplayer"/><g class="sunburstlayer"/><g class="glimages"/><defs id="topdefs-b5c5f7"><g class="clips"/></defs><g class="layer-above"><g class="imagelayer"/><g class="shapelayer"/></g><g class="infolayer"><g class="g-gtitle"><text class="gtitle" x="350" y="50" text-anchor="middle" dy="0em" style="font-family: 'Open Sans', verdana, arial, sans-serif; font-size: 17px; fill: rgb(42, 63, 95); opacity: 1; font-weight: normal; white-space: pre;"><tspan class="line" dy="0em" x="350" y="50">Scenario 7</tspan><tspan class="line" dy="1.3em" x="350" y="50">Microgrid Output</tspan><tspan class="line" dy="2.6em" x="350" y="50">From: October 01, 2022 to October 31, 2022</tspan></text></g><g class="g-xtitle"><text class="xtitle" x="350" y="476.409375" text-anchor="middle" style="font-family: 'Open Sans', verdana, arial, sans-serif; font-size: 14px; fill: rgb(42, 63, 95); opacity: 1; font-weight: normal; white-space: pre;">Time</text></g><g class="g-ytitle"><text class="ytitle" transform="rotate(-90,33.840625,260)" x="33.840625" y="260" text-anchor="middle" style="font-family: 'Open Sans', verdana, arial, sans-serif; font-size: 14px; fill: rgb(42, 63, 95); opacity: 1; font-weight: normal; white-space: pre;">Demand (kW)</text></g></g></svg>