<svg class="main-svg" xmlns="http://www.w3.org/2000/svg" xmlns:xlink="http://www.w3.org/1999/xlink" width="700" height="500" style="" viewBox="0 0 700 500"><rect x="0" y="0" width="700" height="500" style="fill: rgb(255, 255, 255); fill-opacity: 1;"/><defs id="defs-1f91ac"><g class="clips"><clipPath id="clip1f91acxyplot" class="plotclip"><rect width="540" height="320"/></clipPath><clipPath class="axesclip" id="clip1f91acx"><rect x="80" y="0" width="540" height="500"/></clipPath><clipPath class="axesclip" id="clip1f91acy"><rect x="0" y="100" width="700" height="320"/></clipPath><clipPath class="axesclip" id="clip1f91acxy"><rect x="80" y="100" width="540" height="320"/></clipPath></g><g class="gradients"/><g class="patterns"/></defs><g class="bglayer"/><g class="layer-below"><g class="imagelayer"/><g class="shapelayer"/></g><g class="cartesianlayer"><g class="subplot xy"><g class="layer-subplot"><g class="shapelayer"/><g class="imagelayer"/></g><g class="minor-gridlayer"><g class="x"/><g class="y"/></g><g class="gridlayer"><g class="x"><path class="xgrid crisp" transform="translate(97.43,0)" d="M0,100v320" style="stroke: rgb(255, 255, 255); stroke-opacity: 1; stroke-width: 1px;"/><path class="xgrid crisp" transform="translate(219.4,0)" d="M0,100v320" style="stroke: rgb(255, 255, 255); stroke-opacity: 1; stroke-width: 1px;"/><path class="xgrid crisp" transform="translate(341.38,0)" d="M0,100v320" style="stroke: rgb(255, 255, 255); stroke-opacity: 1; stroke-width: 1px;"/><path class="xgrid crisp" transform="translate(463.35,0)" d="M0,100v320" style="stroke: rgb(255, 255, 255); stroke-opacity: 1; stroke-width: 1px;"/><path class="xgrid crisp" transform="translate(585.3299999999999,0)" d="M0,100v320" style="stroke: rgb(255, 255, 255); stroke-opacity: 1; stroke-width: 1px;"/></g><g class="y"><path class="ygrid crisp" transform="translate(0,398.85)" d="M80,0h540" style="stroke: rgb(255, 255, 255); stroke-opacity: 1; stroke-width: 1px;"/><path class="ygrid crisp" transform="translate(0,338.23)" d="M80,0h540" style="stroke: rgb(255, 255, 255); stroke-opacity: 1; stroke-width: 1px;"/><path class="ygrid crisp" transform="translate(0,277.61)" d="M80,0h540" style="stroke: rgb(255, 255, 255); stroke-opacity: 1; stroke-width: 1px;"/><path class="ygrid crisp" transform="translate(0,216.98000000000002)" d="M80,0h540" style="stroke: rgb(255, 255, 255); stroke-opacity: 1; stroke-width: 1px;"/><path class="ygrid crisp" transform="translate(0,156.36)" d="M80,0h540" style="stroke: rgb(255, 255, 255); stroke-opacity: 1; stroke-width: 1px;"/></g></g><g class="zerolinelayer"/><path class="xlines-below"/><path class="ylines-below"/><g class="overlines-below"/><g class="xaxislayer-below"/><g class="yaxislayer-below"/><g class="overaxes-below"/><g class="plot" transform="translate(80,100)" clip-path="url(#clip1f91acxyplot)"><g class="scatterlayer mlayer"><g class="trace scatter trace87d6fd" style="stroke-miterlimit: 2; opacity: 0.5;"><g class="fills"/><g class="errorbars"/><g class="lines"><path class="js-line" d="M0,129.3L0.73,30.96L0.91,31.44L1.09,31.45L1.45,33.15L1.82,27.67L2,33.35L2.36,24.08L2.54,29.04L2.72,31.74L3.27,33.7L3.63,25.45L3.81,29.09L4.17,30.49L4.54,20.8L4.72,25.95L5.26,44.52L5.45,36.31L5.63,29.02L5.81,41.09L6.53,40.25L6.72,37.63L6.9,37.66L7.08,40.82L7.26,42.77L7.44,53.72L9.08,93.92L9.26,92.39L9.44,90.74L10.35,115.6L10.53,115.11L10.71,114.4L10.89,121.96L11.25,117.91L11.44,121.35L11.62,121.42L12.71,92.13L12.89,88.73L14.52,59.35L14.7,77.54L14.88,112.74L15.25,57.19L15.43,45.68L16.52,32.31L16.7,35.06L16.88,37.44L17.06,27.61L17.43,32.03L17.61,27.58L17.79,31.83L17.97,28.51L18.33,25.26L18.51,26.97L18.7,31.17L19.24,32.39L19.42,20.89L19.6,24.82L19.78,29.08L20.87,23.11L21.06,31.07L21.96,22.53L22.14,28.75L22.33,27.57L22.51,33.33L22.69,38.27L23.05,29.32L23.23,36.59L23.42,34.31L24.69,53.24L24.87,92.91L25.59,147.74L25.77,147.19L25.96,159.74L26.14,157.26L26.32,162.39L26.5,142.29L27.41,102.34L27.59,120.86L28.5,125.53L28.68,135.92L31.22,81.27L31.4,83.27L32.85,45.27L33.04,45.42L33.22,48.68L33.76,39.57L33.94,42.33L34.12,45.44L34.85,31.44L35.03,37.55L35.76,27.71L35.94,32.82L36.12,34.31L36.48,21.31L37.03,25.33L37.21,27.14L37.39,33.84L37.75,22.11L37.94,28.58L38.12,27.52L38.3,27.66L38.48,25.41L38.66,25.87L38.84,28.71L39.03,20.87L39.57,25.54L39.75,29.03L40.3,38.24L40.48,52.55L41.75,168.17L41.93,167.83L43.38,222.48L43.56,218.35L43.74,212.94L44.11,194.12L44.29,201.59L44.47,238.4L44.65,273.25L45.02,216.64L45.2,213.84L46.1,165.88L46.29,167.21L46.47,162.56L49.01,86.03L49.19,86.2L49.37,88.07L50.46,49.58L50.82,58.95L51.01,57.82L51.19,59.55L51.37,50.44L51.55,50.38L51.73,51.44L52.64,37.54L52.82,45.12L53,49.01L53.18,41.33L53.36,42.2L53.55,36.07L53.91,36.05L54.09,29.36L54.27,32.99L54.64,27.91L54.82,28.57L55,29.83L55.18,36.46L55.91,25.41L56.09,27.03L56.27,28.35L56.81,23.85L56.99,23.89L57.18,33.13L57.9,38.64L58.08,59.94L59.54,200.88L59.72,208.54L60.44,187.09L60.63,205.17L61.17,145.58L61.35,169.68L61.53,216.93L61.9,214.24L62.26,234.77L62.44,253.85L62.98,273.74L63.35,272.66L63.53,277.07L65.34,89.35L65.53,93.89L65.89,88.04L66.07,89.66L66.25,119.72L67.34,211L67.52,186.05L68.07,120.91L68.43,127.24L68.61,119.91L68.79,130.14L69.16,116.54L69.34,124.31L69.52,121.1L70.06,121.49L70.43,106.15L70.61,108.1L70.79,114.93L72.06,28.51L72.24,35.68L72.61,21.95L72.79,37.82L72.97,39.59L73.15,25.15L73.51,32.61L73.69,29.25L73.88,24.54L74.06,23.58L74.24,26.99L74.42,25.83L74.6,28.06L74.78,34.08L74.96,35.2L75.15,45.39L76.42,175L76.6,174.6L76.78,165.24L76.96,187.07L77.14,202.59L77.51,164.95L78.05,170.13L78.23,179.88L78.59,216.4L79.14,206.07L79.32,179.82L79.5,156L80.05,168.86L80.23,159.75L80.77,185.92L80.95,218.28L81.14,214.05L81.32,188.26L81.68,152.41L81.86,171.47L82.04,209.37L83.5,158.01L83.68,164.73L83.86,162.12L84.58,144.35L84.77,149.8L85.67,122.47L85.86,124.19L86.04,122.26L86.22,112.64L86.58,122.65L86.76,117.65L86.94,117.65L88.22,37.3L88.4,36.57L88.76,39.78L88.94,38.26L89.12,36.12L89.67,37.03L90.03,31.39L90.21,36.43L90.57,30L90.94,30.08L91.12,37.67L91.3,40.14L91.48,31.58L91.66,30.78L91.85,38.52L92.21,39.8L92.39,42.69L92.75,38.92L92.93,64.43L94.02,165.16L94.21,140.43L94.75,78.99L95.11,97.18L95.29,133.51L96.2,198.07L96.38,202.33L96.93,132.3L97.29,142.54L97.47,156.96L97.84,182.03L98.02,211.53L98.38,228.92L98.74,214.99L98.92,217.43L100.56,160.05L100.74,150.94L100.92,156.4L101.1,141L101.28,96.37L102.37,49.27L102.55,55.62L102.74,55.84L102.92,52.29L103.28,43.86L103.46,53.41L103.64,52.46L104.37,29.44L104.55,40.71L104.73,40.53L104.91,34.97L105.1,41.8L105.28,34.78L105.64,39.96L105.82,33.42L106,34.02L106.18,37.59L107.09,28.61L107.27,29.36L107.46,34.25L108.18,26.12L108.36,26.6L108.54,27.77L108.91,21.62L109.09,29.09L109.63,47.6L109.82,85.53L110.72,122.68L110.9,124.54L111.09,121.03L111.27,135.55L111.81,142.41L111.99,115.59L112.17,111.18L112.36,127.32L112.54,130.51L112.72,161.61L112.9,160.2L113.08,177.48L113.63,247.14L113.81,235.18L113.99,188.45L114.35,152.33L114.9,163.35L115.08,165.26L115.26,155.46L115.62,176.66L115.81,198.35L117.44,140.45L117.62,133.63L117.8,136.66L118.16,131.54L118.35,129.31L118.89,120.28L119.25,120.5L119.44,131.58L121.07,40.49L121.25,44.41L121.43,51.17L121.61,51.3L121.79,43.94L122.34,34.49L122.52,37.82L122.7,45.8L123.61,33.73L123.79,33.74L123.97,31.96L124.34,30.12L124.7,36.23L124.88,27.35L125.43,26.67L125.61,33.38L125.79,25.45L126.15,30.35L126.7,28.07L126.88,29.74L127.24,31.14L127.42,41.6L128.15,45.4L128.33,62.41L131.05,123.24L131.23,123.59L132.87,174.55L133.05,167.86L133.23,176.1L133.77,173.3L133.96,168.21L134.32,170.1L135.41,137.34L135.59,139.19L135.77,137.41L135.95,126.99L136.32,131.77L136.86,124.02L137.04,122.77L138.68,47.22L139.04,51.57L139.22,46.25L139.4,43.42L139.58,45.29L139.76,53.07L140.49,28.55L140.67,41.87L140.85,42.16L141.04,32.17L141.58,35.92L141.76,33.91L142.67,27.44L142.85,31.13L143.03,30.59L143.21,23.22L143.58,36.25L143.94,22.44L144.12,28.91L144.3,26.97L144.48,31.31L144.67,35.26L144.85,31.25L145.03,34.91L145.21,41.55L145.57,43.28L145.75,53.81L147.93,112.58L148.11,110.22L148.3,100.42L148.66,118.77L148.84,123.31L149.75,137.21L149.93,132.71L150.11,128.08L150.47,127.07L151.02,134.48L151.2,128.76L152.65,95.25L152.83,88.87L153.38,86.71L153.56,77.65L153.74,83.87L154.1,72.39L154.29,77.83L154.47,70.91L155.37,47.27L155.56,54.35L156.28,41.89L156.46,50.72L157.55,34.9L157.73,39.13L157.92,37.31L158.1,27.95L158.28,27.83L158.46,32.25L158.82,36.96L159.01,32.14L159.19,30.01L159.37,32.17L159.55,27.85L159.73,26.21L159.91,35.17L160.28,23.03L160.46,33.05L160.64,27.64L160.82,18.4L161.18,29.51L161.36,26.37L161.55,23.31L163.54,151.75L163.72,148.44L164.09,127.34L164.45,144.19L164.63,141.61L164.99,157.18L165.18,142.32L165.36,111.48L165.9,123.71L166.08,161.14L167.17,211.13L167.35,203.87L167.72,186.84L167.9,204.78L168.08,207.13L168.81,162.1L168.99,126.41L169.35,154.42L169.53,139.61L169.71,113.11L170.62,68.33L170.8,75.89L170.98,75.43L171.17,76.59L171.35,71.7L172.07,61.62L172.26,48.16L172.62,47.27L172.8,52.18L172.98,53.51L173.16,40.1L173.53,45.09L173.71,40.01L173.89,40.13L174.07,39.98L174.25,41.14L174.43,37.23L174.8,29.93L174.98,34.99L175.16,38.27L175.34,38.42L175.52,34.98L175.7,31.58L176.07,36.84L176.25,35.53L176.97,29L177.16,36.48L177.52,25.17L177.7,34.57L177.88,34.45L178.43,35.16L178.61,25.49L178.79,29.13L179.15,25.92L179.52,42.22L179.7,72.68L180.79,138.73L180.97,131.69L181.33,117.42L181.51,117.85L181.69,137.96L182.06,165.74L182.24,158.72L182.42,128.09L183.15,66.22L183.33,73.09L183.51,88.37L184.6,110.76L184.78,117.95L184.96,94.07L185.69,95.31L185.87,83.31L186.05,95.9L186.41,76.89L186.59,84.39L186.78,83.87L188.05,46.28L188.23,55.25L188.41,63.33L189.5,38.05L189.68,39.41L189.86,41.1L190.04,31.64L190.23,31.26L190.41,39.92L191.31,23.23L191.5,29.14L191.68,35.18L191.86,27.21L192.22,29.97L192.4,24.76L192.58,25.21L192.77,33.75L192.95,36.61L193.13,29.57L193.31,27.26L193.49,27.19L193.67,25.78L193.86,23.34L194.04,25.23L194.22,28.82L194.58,24.61L194.94,25.23L195.13,27.12L195.67,29.29L196.03,22.69L196.22,24.25L197.12,39.88L197.3,78.1L197.49,101.82L197.67,60.15L197.85,31.9L198.94,68.49L199.12,58.2L199.85,130L200.03,109.52L200.21,70.05L200.75,90.77L200.93,108.34L201.3,91.11L201.48,117.52L202.57,137.7L202.75,125.85L203.48,202.26L203.66,189.54L203.84,174.19L204.93,78.6L205.11,77.83L205.65,69L205.84,55.53L206.2,65.55L206.56,56.71L206.74,50.81L208.01,33.82L208.19,36.53L208.56,35.18L208.74,32.55L209.1,33.23L209.47,25.16L209.65,32.44L210.55,19.64L210.74,26L210.92,31.09L211.28,21.25L211.46,22.84L211.64,31.99L212.01,17.93L212.19,25.95L212.37,29.8L213.28,17.79L213.46,20.67L214,18.98L214.37,36.02L214.55,27.35L216,151.32L216.36,149.07L216.54,127.94L216.73,125.35L216.91,139.12L217.27,129.34L217.45,145.27L217.63,152.46L217.82,113.1L218.36,93.53L218.54,104.74L218.72,104.08L219.45,112.42L219.63,110.29L219.81,164.36L220.17,208.02L220.54,197.02L220.72,194.84L222.17,143.5L222.35,141.63L222.53,147.85L222.72,140.84L222.9,132.69L224.35,110.36L224.53,114.11L225.62,85.21L225.8,59.3L226.71,27.4L226.89,20.43L227.25,36.23L227.8,34.83L227.98,26.55L228.16,28.96L228.34,28.7L228.52,18.8L228.89,31.18L229.43,29.24L229.61,29.85L230.16,21.04L230.34,26.82L230.7,22.79L231.07,30.69L231.25,24.58L231.43,21.11L231.61,55.41L232.52,117.09L232.7,109.21L233.06,125.8L233.24,119.26L233.43,109.66L234.33,132.37L234.51,123.77L234.88,101.39L235.06,113.13L235.24,139.5L235.6,182.65L235.97,137.34L236.15,88.7L236.33,83.36L236.51,93.12L236.69,99.25L236.87,102.33L237.24,97.86L237.42,90.1L238.14,102.26L238.33,90.73L239.78,49.45L239.96,46.54L240.14,60.75L240.5,39.91L240.69,46.04L240.87,54.66L241.77,26.46L241.96,28.8L242.14,31.02L242.5,47.21L242.86,33.96L243.05,30.83L243.41,38.15L243.59,31.61L243.95,36.96L244.32,21.7L244.5,30.66L244.86,26.86L245.22,36.75L245.41,27.86L245.77,26.08L245.95,27.27L246.13,29.37L246.68,20.59L246.86,26.64L247.4,34.25L247.58,25.8L247.95,29.44L248.31,20.34L248.49,27.89L248.85,24.69L249.04,31.1L249.22,39.41L249.58,26.47L249.76,33.81L249.94,40.48L250.31,29.86L250.67,36.23L250.85,38.22L251.21,27.24L251.58,36.82L251.76,38.61L251.94,41.17L252.12,33.84L252.3,32.2L252.48,46.61L253.21,46.54L253.39,50.01L253.75,43.48L253.94,47.18L254.12,52.22L254.48,48.14L254.84,55.52L255.03,54.41L255.39,39.39L255.57,47.05L255.75,58.64L256.11,44.45L256.3,51.31L256.48,94.05L256.66,105.05L256.84,62.2L257.75,41.88L257.93,34.72L258.29,43.19L258.84,40.12L259.02,33.42L259.2,32.32L259.38,37.38L260.29,22.63L260.47,24.55L260.65,33.03L260.83,33.75L261.02,24.37L261.2,23.31L261.38,31.49L261.74,21L261.92,26.4L262.1,31.8L263.19,22.61L263.37,30.14L263.56,28.71L263.74,20.98L264.1,29L264.28,26.26L264.46,20.43L264.65,20.22L264.83,24.74L265.37,28.62L265.55,26.5L265.73,24.09L266.1,23.85L266.28,26.27L266.46,32.01L266.64,31.99L266.82,33.23L267.37,31.5L267.73,32.15L267.91,32.17L268.82,36.36L269,29.45L269.36,34.71L269.55,31.55L269.73,41.81L270.09,39.71L270.64,58.12L270.82,48.47L271,45.81L271.18,57.32L271.54,58.5L271.72,52.88L272.45,59.74L272.63,57.58L272.81,55.63L273.36,48.59L273.72,50.3L273.9,52.04L274.08,55.01L274.27,50.3L274.45,44.99L274.63,42.67L274.81,46.21L274.99,47.85L275.54,41.4L275.72,48.84L276.08,35.5L276.26,51.12L276.44,81.37L276.81,47.49L276.99,35.31L277.35,21.2L277.9,22.76L278.08,21.21L278.8,27.84L278.98,26.59L279.17,25.15L279.53,26.82L279.71,25.14L279.89,21.89L280.26,24.75L280.62,22.84L280.8,22.33L281.89,19.69L282.07,20.86L282.8,18.47L282.98,19.02L283.16,19.64L283.52,19.46L283.7,21.39L283.89,52.13L284.79,104.12L284.97,102.88L285.16,101.15L285.34,108.08L285.88,39.11L286.25,59.6L286.43,52.58L286.61,50.85L286.79,63.85L286.97,64.97L287.15,62.77L287.33,73.34L288.79,126.08L288.97,112.9L290.42,167.41L290.6,188.47L290.96,175.9L291.15,135.03L292.05,73.59L292.24,80.09L292.96,56.55L293.14,64.48L293.32,62.34L294.05,38.19L294.23,38.75L294.41,49.54L295.5,24.64L295.68,33.11L296.41,20.66L296.59,21.28L296.77,29.66L296.95,31.23L297.14,25.99L297.5,29.03L297.86,26.1L298.04,23.28L298.41,24.85L298.59,22.08L298.95,23L299.13,22.09L299.31,21.5L299.5,22.84L299.86,20.85L300.04,16.99L300.4,25.86L300.58,20.34L300.77,16.17L300.95,16L301.13,20.76L301.49,45.88L301.67,82.4L303.67,252.91L303.85,227.89L304.03,194.13L304.58,195.22L305.12,118.83L305.3,132.05L305.49,137.94L305.67,126.93L305.85,145.2L306.03,189.1L306.76,299.35L307.12,297.61L307.3,304L307.48,299.19L307.66,269.16L308.75,183.37L308.93,185.81L309.84,153.79L310.02,154.33L310.21,153.78L311.84,115.13L312.02,121.33L312.2,123L312.93,105.47L313.11,115.21L313.29,117.16L314.38,26.68L314.56,29.89L315.11,35.25L315.29,27.47L315.65,29.15L316.01,22.93L316.19,23.49L316.38,25.04L316.56,26.16L316.74,21.39L316.92,18.48L317.28,24.51L317.47,20.26L317.65,20.85L318.19,19.2L318.92,39.12L319.1,73.08L320.91,268.13L321.1,264.67L321.46,225.75L322,233.49L322.18,246.75L322.91,140.45L323.09,161.71L323.27,181.59L324.18,227.45L324.36,251.59L324.73,221.65L325.27,222.77L325.45,229.24L326.72,180.45L326.9,181.9L327.09,183.09L327.27,168.39L328.17,79.92L328.36,82.39L328.54,79.03L329.45,51.01L329.63,58.09L331.26,39L331.44,39.29L332.35,29.98L332.53,31.13L332.71,34.75L332.89,38.1L333.08,31.76L333.26,23.95L333.62,33.23L334.16,29.36L334.35,24.13L334.53,23.23L334.71,26.44L335.44,26.6L335.8,23.01L335.98,27.12L336.34,32.36L336.52,67.75L337.61,217.39L337.79,232.75L338.88,274.52L339.07,280.59L339.25,285.01L339.43,271.47L339.61,243.17L340.52,208.42L340.7,222.58L341.06,253.45L341.24,293.68L341.43,282.57L341.61,227.8L342.15,159.43L342.51,167.74L342.7,212.69L342.88,216.59L343.06,184.04L344.51,86L344.69,87.1L344.87,88.26L345.06,79.67L346.14,62.77L346.33,62.93L347.05,44.49L347.23,50.08L347.42,53.13L348.32,109.75L348.5,108.05L348.69,73.05L349.05,28.24L349.59,29.51L349.77,25.6L350.14,26.75L350.32,25.7L350.5,31.8L350.86,21.24L351.05,24.43L351.23,28.54L351.59,22.57L352.13,23.39L352.32,21.77L352.5,23.67L352.68,22.51L352.86,18.64L353.41,35.95L353.59,71.95L355.22,230.96L355.4,221.69L355.58,225.77L355.76,223.08L355.95,191.35L356.13,173.47L356.67,178.17L356.85,183.07L357.4,118.76L357.58,146.87L357.76,173.81L357.94,171.19L358.12,175.55L358.31,152.59L358.85,117.38L359.03,118.76L359.21,125.46L359.39,132.93L359.58,176.34L360.3,216.01L360.48,209.08L360.67,190.04L361.94,141.69L362.12,146.38L362.66,131.37L362.84,138L363.03,150.74L363.57,191L363.75,180.52L363.93,146.69L364.3,106.8L364.84,110.23L365.02,102.6L365.38,108.91L365.57,97.48L365.93,111.8L366.11,73.53L366.47,31.78L367.02,31.79L367.2,34.11L367.38,36.82L367.56,35.43L367.74,23.14L368.47,40.89L368.65,30.93L369.2,34.96L369.56,20.21L369.74,30.14L369.92,31.95L370.29,29.82L370.47,26.38L371.19,38.37L371.56,33.59L371.74,35.42L371.92,36.29L372.1,42.03L372.46,31.66L372.65,35.55L372.83,43.76L373.73,54.02L373.92,55.6L374.28,54.19L374.64,66.73L374.82,58.8L375.73,68.61L375.91,69.73L376.82,120.86L377.18,111.19L377.36,115.03L377.73,105.58L377.91,109.63L378.09,97.2L378.45,100.07L378.64,89.3L378.82,94.25L379.18,86.66L379.36,88.95L379.54,92.63L379.72,92.55L379.91,90.04L381.18,75.8L381.36,67.92L381.9,76.93L382.08,75.73L382.27,67.07L382.99,19.44L383.35,27.54L383.54,19.13L384.44,28.61L384.63,27.9L384.81,21.36L385.35,23.24L385.53,22.15L385.71,19.26L385.9,19.17L386.08,19.76L386.26,25.19L386.44,25.83L386.62,20.41L386.8,19.98L386.98,21.17L387.17,22.89L388.07,19.49L388.26,25.61L388.62,24.45L388.98,28.84L389.16,28.03L389.34,23.85L389.53,23.79L389.71,26.86L389.89,27.43L390.07,23.8L391.34,38.16L391.52,61.39L392.43,89.55L392.61,82.75L392.97,91.44L393.16,83.05L393.34,70.61L393.52,69.6L393.7,73.03L394.43,66.68L394.61,73.24L396.61,40.15L396.79,40.97L396.97,47.95L398.06,37L398.24,39.81L399.33,19.02L399.51,23.82L399.69,26.71L399.87,21.92L400.05,19.53L400.6,19.07L400.96,23.02L401.14,22.82L401.87,19.58L402.05,20.6L402.96,17.53L403.14,17.99L403.32,18.11L403.5,17.52L403.68,18.2L403.87,19.2L404.23,17.21L404.95,17.42L405.14,18.65L405.5,17L405.68,19.72L406.41,29.8L406.59,64.94L407.68,133.88L407.86,137.56L408.22,139.91L408.4,141.59L408.58,138.16L408.95,143.32L409.13,118.04L409.67,42.28L409.86,61.55L410.04,117.23L410.4,202.31L410.58,144.66L410.76,104.7L411.13,68.16L411.67,72.64L411.85,75.02L412.03,78.8L412.22,74.75L412.4,68.43L412.76,60.63L413.12,74.43L413.3,61.92L414.76,37.16L414.94,38.25L415.12,39.83L415.3,35.04L415.48,31.05L415.66,34.65L415.85,28.52L416.03,23.67L416.21,26.74L416.57,23.22L416.75,22.6L416.93,19.36L417.3,23.56L417.48,26.2L418.39,19.21L418.57,19.43L419.29,20.85L419.48,19.65L420.2,17.88L420.38,18.55L420.56,19.14L421.47,17.46L421.65,18.76L422.2,18.05L422.56,19.38L422.74,18.32L422.92,17.97L423.11,20.12L424.38,29.5L424.56,51.85L425.47,139.53L425.65,139.4L425.83,141.68L426.01,158.22L426.19,190.32L426.55,156.59L426.74,132.92L426.92,124.55L427.28,130.27L427.46,135.92L428.55,158.36L428.73,156.48L429.46,166.8L429.82,166.1L430,156.77L430.73,119.59L430.91,80.12L431.82,43.68L432,36.46L432.18,37.36L432.36,43.55L433.45,26.56L433.63,28.2L434.9,18.43L435.09,18.65L435.45,25.39L435.63,24.61L435.81,18.33L436.72,21.12L436.9,20.31L437.08,19.61L437.26,19.92L437.45,19.38L437.63,18.56L437.99,19.4L438.17,18.53L438.35,18.32L438.53,19.42L438.9,18.21L439.08,18.25L439.26,18.36L439.44,18.3L439.62,19.22L440.17,18.73L440.53,20.96L440.71,23.51L441.8,30.81L441.98,48.11L442.71,71.46L442.89,69.44L443.07,70.08L443.62,75.21L443.8,72.56L443.98,108.47L444.52,139.06L444.71,119.38L444.89,110.25L445.07,100.19L445.43,120.17L445.61,118.74L446.16,97.16L446.34,122.02L446.52,151.58L446.88,141.28L447.07,107.28L447.61,76.75L447.79,90.71L447.97,127.92L448.15,135.35L448.34,127.27L448.52,118.72L449.06,119.55L449.43,112.93L449.61,113.47L449.79,112.66L449.97,107.07L450.33,112.67L450.51,107.79L450.7,103.97L450.88,104.42L451.06,101.15L451.24,99.77L451.42,102.7L451.6,103.78L451.97,92.3L452.51,95.25L452.69,96.22L452.87,91.67L453.24,99.38L453.42,98.7L453.78,89.49L453.96,57.01L454.87,23.12L455.05,21.6L455.42,25.06L455.78,21.98L455.96,21.13L456.14,20.2L456.5,21.58L456.69,20.72L456.87,20.76L457.77,22.42L457.96,23.16L459.05,34.49L459.23,34.47L459.41,32.2L461.04,153.04L461.22,114.29L461.77,123.57L462.13,65.74L462.31,70.14L463.22,93.5L463.4,89.97L463.58,93.92L463.76,122.18L464.31,151.96L464.67,144.8L464.85,146.78L465.04,148.32L465.22,139.52L466.31,97.89L466.67,104.34L466.85,103L467.39,93.73L467.76,96.36L467.94,91.2L468.12,90.17L468.3,81.52L469.03,55.46L469.21,31.67L469.75,20.59L469.94,28.44L470.12,28.69L470.3,22.24L470.84,24.97L471.03,24.75L471.21,22.86L471.39,23.24L471.57,22.11L471.75,22.52L471.93,25.61L472.84,19.65L473.02,20.64L473.2,20.06L473.38,19.22L473.57,20.45L473.75,21.22L474.11,19.8L474.66,20.25L474.84,20.94L475.2,19.42L475.38,21.04L475.56,23.94L477.02,124.07L477.2,138.64L477.38,138.22L477.56,138.6L477.74,141.06L478.65,221.39L478.83,202.46L479.01,169.73L479.92,79.18L480.28,83.56L480.46,95.5L481.01,171.43L481.37,159.71L481.55,154.81L481.73,161.46L482.1,149.36L482.28,158.04L482.46,113.8L483.37,53.58L483.55,57.9L483.91,42.74L484.46,44.34L484.64,46.04L484.82,46.88L485,42.15L485.36,43.14L486.45,22.76L486.64,26.97L486.82,29.14L487,21.66L487.36,26.91L487.54,22.17L487.72,19.12L488.09,25.42L488.45,19.71L488.63,20.64L488.99,23.56L489.18,21.15L489.36,20.12L490.27,18.74L490.45,19.55L490.81,18.58L490.99,19.45L491.17,19.55L492.08,17.67L492.26,18.95L492.44,19L492.63,18.21L493.53,23.89L493.71,23.73L493.9,23.27L495.35,30.6L495.53,30.49L495.71,28.18L495.89,29.45L496.07,37.35L496.44,39.87L496.62,44L496.8,43.72L496.98,53.01L497.89,72.24L498.07,72.1L498.25,74.99L499.34,102.74L499.52,81.85L500.97,50.22L501.16,54.92L501.34,55.59L501.52,45.96L501.88,47.71L502.06,47.44L502.25,43.8L502.43,42.8L502.61,45.51L502.79,43.24L502.97,37.75L503.33,32.76L503.52,22.18L503.88,30.63L504.24,24.2L504.42,26.63L505.51,20.3L505.69,21.87L505.88,24.68L506.24,20.91L506.42,20.46L507.33,18.93L507.51,20.14L507.69,20.31L507.87,19.39L508.24,20.45L508.42,19.35L508.6,18.36L509.51,19.88L509.69,19.74L509.87,18.5L510.05,19.87L510.23,22.19L511.14,23.6L511.32,25.52L511.68,24.97L512.05,26.37L512.23,27.82L512.41,27.91L512.59,30.33L512.95,29.39L513.14,34.14L513.32,31.29L513.5,36.34L513.68,44.44L513.86,42.02L514.04,51.49L515.13,90.25L515.31,80.86L515.5,76.53L515.68,89.13L515.86,100.09L516.22,97.03L516.4,101.55L516.58,102.53L518.76,47.76L518.94,52.33L519.31,105.54L519.49,80.69L519.67,40.35L520.22,34.19L520.4,41.39L520.76,33.9L520.94,28.6L521.3,32.06L521.67,24.09L521.85,29.55L522.03,29.96L522.21,26.39L522.39,23.62L522.94,24.18L523.12,24.89L524.57,18.79L524.75,19.68L524.93,20.33L526.02,18.68L526.21,18.91L527.11,17.43L527.29,17.7L527.48,18.25L528.75,99.65L528.93,99.89L529.11,107.87L529.29,102.6L529.47,79.99L529.65,68.89L530.2,71.03L530.38,76.51L530.56,73.26L530.74,77.86L530.92,87.72L531.29,77.4L531.47,74.24L532.56,128.14L532.92,122.91L533.1,118.96L533.83,87.36L534.01,70.97L534.19,64.38L534.37,88.61L534.55,120.21L534.92,64.58L535.1,67.85L535.28,65.44L535.46,52.84L535.83,54.5L536.01,49.15L536.37,51.71L536.55,43.02L536.73,40.93L536.91,50.79L537.1,51.54L537.28,45.79L537.46,45.86L537.64,47L538.55,26.9L538.73,30.56L538.91,34.25L539.82,23.38L540,26.36" style="vector-effect: non-scaling-stroke; fill: none; stroke: rgb(0, 191, 255); stroke-opacity: 1; stroke-width: 2px; opacity: 1;"/></g><g class="points"/><g class="text"/></g></g></g><g class="overplot"/><path class="xlines-above crisp" d="M0,0" style="fill: none;"/><path class="ylines-above crisp" d="M0,0" style="fill: none;"/><g class="overlines-above"/><g class="xaxislayer-above"><g class="xtick"><text text-anchor="middle" x="0" y="433" transform="translate(97.43,0)" style="font-family: 'Open Sans', verdana, arial, sans-serif; font-size: 12px; fill: rgb(42, 63, 95); fill-opacity: 1; white-space: pre; opacity: 1;"><tspan class="line" dy="0em" x="0" y="433">Oct 2</tspan><tspan class="line" dy="1.3em" x="0" y="433">2022</tspan></text></g><g class="xtick"><text text-anchor="middle" x="0" y="433" style="font-family: 'Open Sans', verdana, arial, sans-serif; font-size: 12px; fill: rgb(42, 63, 95); fill-opacity: 1; white-space: pre; opacity: 1;" transform="translate(219.4,0)">Oct 9</text></g><g class="xtick"><text text-anchor="middle" x="0" y="433" style="font-family: 'Open Sans', verdana, arial, sans-serif; font-size: 12px; fill: rgb(42, 63, 95); fill-opacity: 1; white-space: pre; opacity: 1;" transform="translate(341.38,0)">Oct 16</text></g><g class="xtick"><text text-anchor="middle" x="0" y="433" style="font-family: 'Open Sans', verdana, arial, sans-serif; font-size: 12px; fill: rgb(42, 63, 95); fill-opacity: 1; white-space: pre; opacity: 1;" transform="translate(463.35,0)">Oct 23</text></g><g class="xtick"><text text-anchor="middle" x="0" y="433" style="font-family: 'Open Sans', verdana, arial, sans-serif; font-size: 12px; fill: rgb(42, 63, 95); fill-opacity: 1; white-space: pre; opacity: 1;" transform="translate(585.3299999999999,0)">Oct 30</text></g></g><g class="yaxislayer-above"><g class="ytick"><text text-anchor="end" x="79" y="4.199999999999999" transform="translate(0,398.85)" style="font-family: 'Open Sans', verdana, arial, sans-serif; font-size: 12px; fill: rgb(42, 63, 95); fill-opacity: 1; white-space: pre; opacity: 1;">−60k</text></g><g class="ytick"><text text-anchor="end" x="79" y="4.199999999999999" style="font-family: 'Open Sans', verdana, arial, sans-serif; font-size: 12px; fill: rgb(42, 63, 95); fill-opacity: 1; white-space: pre; opacity: 1;" transform="translate(0,338.23)">−50k</text></g><g class="ytick"><text text-anchor="end" x="79" y="4.199999999999999" style="font-family: 'Open Sans', verdana, arial, sans-serif; font-size: 12px; fill: rgb(42, 63, 95); fill-opacity: 1; white-space: pre; opacity: 1;" transform="translate(0,277.61)">−40k</text></g><g class="ytick"><text text-anchor="end" x="79" y="4.199999999999999" style="font-family: 'Open Sans', verdana, arial, sans-serif; font-size: 12px; fill: rgb(42, 63, 95); fill-opacity: 1; white-space: pre; opacity: 1;" transform="translate(0,216.98000000000002)">−30k</text></g><g class="ytick"><text text-anchor="end" x="79" y="4.199999999999999" style="font-family: 'Open Sans', verdana, arial, sans-serif; font-size: 12px; fill: rgb(42, 63, 95); fill-opacity: 1; white-space: pre; opacity: 1;" transform="translate(0,156.36)">−20k</text></g></g><g class="overaxes-above"/></g></g><g class="polarlayer"/><g class="smithlayer"/><g class="ternarylayer"/><g class="geolayer"/><g class="funnelarealayer"/><g class="pielayer"/><g class="iciclelayer"/><g class="treemaplayer"/><g class="sunburstlayer"/><g class="glimages"/><defs id="topdefs-1f91ac"><g class="clips"/></defs><g class="layer-above"><g class="imagelayer"/><g class="shapelayer"/></g><g class="infolayer"><g class="g-gtitle"><text class="gtitle" x="350" y="50" text-anchor="middle" dy="0em" style="font-family: 'Open Sans', verdana, arial, sans-serif; font-size: 17px; fill: rgb(42, 63, 95); opacity: 1; font-weight: normal; white-space: pre;"><tspan class="line" dy="0em" x="350" y="50">Scenario 2</tspan><tspan class="line" dy="1.3em" x="350" y="50">Microgrid Output</tspan><tspan class="line" dy="2.6em" x="350" y="50">From: October 01, 2022 to October 31, 2022</tspan></text></g><g class="g-xtitle"><text class="xtitle" x="350" y="476.409375" text-anchor="middle" style="font-family: 'Open Sans', verdana, arial, sans-serif; font-size: 14px; fill: rgb(42, 63, 95); opacity: 1; font-weight: normal; white-space: pre;">Time</text></g><g class="g-ytitle"><text class="ytitle" transform="rotate(-90,27.840625000000003,260)" x="27.840625000000003" y="260" text-anchor="middle" style="font-family: 'Open Sans', verdana, arial, sans-serif; font-size: 14px; fill: rgb(42, 63, 95); opacity: 1; font-weight: normal; white-space: pre;">Demand (kW)</text></g></g></svg>