<svg class="main-svg" xmlns="http://www.w3.org/2000/svg" xmlns:xlink="http://www.w3.org/1999/xlink" width="700" height="500" style="" viewBox="0 0 700 500"><rect x="0" y="0" width="700" height="500" style="fill: rgb(255, 255, 255); fill-opacity: 1;"/><defs id="defs-e99494"><g class="clips"><clipPath id="clipe99494xyplot" class="plotclip"><rect width="540" height="320"/></clipPath><clipPath class="axesclip" id="clipe99494x"><rect x="80" y="0" width="540" height="500"/></clipPath><clipPath class="axesclip" id="clipe99494y"><rect x="0" y="100" width="700" height="320"/></clipPath><clipPath class="axesclip" id="clipe99494xy"><rect x="80" y="100" width="540" height="320"/></clipPath></g><g class="gradients"/><g class="patterns"/></defs><g class="bglayer"/><g class="layer-below"><g class="imagelayer"/><g class="shapelayer"/></g><g class="cartesianlayer"><g class="subplot xy"><g class="layer-subplot"><g class="shapelayer"/><g class="imagelayer"/></g><g class="minor-gridlayer"><g class="x"/><g class="y"/></g><g class="gridlayer"><g class="x"><path class="xgrid crisp" transform="translate(170.03,0)" d="M0,100v320" style="stroke: rgb(255, 255, 255); stroke-opacity: 1; stroke-width: 1px;"/><path class="xgrid crisp" transform="translate(296.08000000000004,0)" d="M0,100v320" style="stroke: rgb(255, 255, 255); stroke-opacity: 1; stroke-width: 1px;"/><path class="xgrid crisp" transform="translate(422.12,0)" d="M0,100v320" style="stroke: rgb(255, 255, 255); stroke-opacity: 1; stroke-width: 1px;"/><path class="xgrid crisp" transform="translate(548.1600000000001,0)" d="M0,100v320" style="stroke: rgb(255, 255, 255); stroke-opacity: 1; stroke-width: 1px;"/></g><g class="y"><path class="ygrid crisp" transform="translate(0,377.73)" d="M80,0h540" style="stroke: rgb(255, 255, 255); stroke-opacity: 1; stroke-width: 1px;"/><path class="ygrid crisp" transform="translate(0,313.27)" d="M80,0h540" style="stroke: rgb(255, 255, 255); stroke-opacity: 1; stroke-width: 1px;"/><path class="ygrid crisp" transform="translate(0,248.81)" d="M80,0h540" style="stroke: rgb(255, 255, 255); stroke-opacity: 1; stroke-width: 1px;"/><path class="ygrid crisp" transform="translate(0,184.35)" d="M80,0h540" style="stroke: rgb(255, 255, 255); stroke-opacity: 1; stroke-width: 1px;"/></g></g><g class="zerolinelayer"><path class="yzl zl crisp" transform="translate(0,119.9)" d="M80,0h540" style="stroke: rgb(255, 255, 255); stroke-opacity: 1; stroke-width: 2px;"/></g><path class="xlines-below"/><path class="ylines-below"/><g class="overlines-below"/><g class="xaxislayer-below"/><g class="yaxislayer-below"/><g class="overaxes-below"/><g class="plot" transform="translate(80,100)" clip-path="url(#clipe99494xyplot)"><g class="scatterlayer mlayer"><g class="trace scatter trace6608e5" style="stroke-miterlimit: 2; opacity: 0.5;"><g class="fills"/><g class="errorbars"/><g class="lines"><path class="js-line" d="M0,19.87L0.75,19.9L0.94,39.65L1.31,70.03L1.69,67.14L1.88,68.13L2.25,65.33L2.44,68.37L2.63,69.31L3.56,65.35L3.75,65.53L3.94,66.93L4.31,65.24L4.5,65.75L4.69,65.19L5.06,228.07L5.44,97.21L5.63,90.96L6,65.43L6.19,203.83L6.94,19.78L7.5,19.79L7.69,19.81L8.25,19.91L8.44,23.23L9,16.34L9.19,19.88L9.38,20.13L9.94,19.82L10.13,23.54L10.5,16.37L10.88,20.06L11.07,23.46L11.44,16.36L12,19.89L12.19,20.09L13.5,19.87L13.69,19.93L16.69,19.88L16.88,19.93L18.01,19.9L18.19,42.4L18.94,67.96L19.13,65.53L19.32,64.77L19.51,65.79L19.69,67.3L20.26,63.49L20.44,64.97L20.63,65.66L21.19,63.61L21.38,65.71L21.57,65.95L22.32,63.67L22.51,65.33L22.7,65.84L22.88,63.84L23.63,247.05L23.82,244.62L24.01,94.06L24.2,102.93L24.57,92.1L24.76,98.55L24.95,94.47L26.45,19.65L26.63,19.5L26.82,19.87L27.01,23.42L27.76,16.24L27.95,19.51L28.13,20.41L28.32,19.33L28.7,20.59L28.89,19.53L29.07,20.06L33.39,19.9L33.57,84.84L33.76,104.77L34.32,102.4L34.51,102.59L34.89,101.95L35.26,102.57L35.45,94.66L36.2,63.44L36.39,64.24L36.58,64.67L37.51,63.94L37.7,64.3L37.89,64.37L38.08,63.56L38.45,64.01L38.64,63.44L38.83,63.35L39.2,63.81L39.58,63.21L39.76,63.64L40.14,63.08L40.33,223.87L40.89,63.01L41.08,64.18L41.26,65.25L42.01,146.34L42.2,126.3L42.39,99.71L43.52,19.8L43.7,19.8L45.02,19.74L45.2,23.56L45.58,16.47L46.14,19.89L46.33,19.95L47.08,19.82L47.27,20.05L47.45,20L48.58,20.03L48.77,23.64L49.14,16.39L49.7,19.88L49.89,19.89L54.58,19.9L54.77,19.9L57.58,19.89L57.77,55.97L58.71,62.7L58.9,62.31L59.27,65.17L59.46,81.51L60.02,111.74L60.21,99.3L60.4,91.23L60.58,68.79L60.77,202.73L60.96,182.74L61.15,20.55L61.9,19.72L62.08,19.81L62.27,19.79L62.65,16.4L63.21,23.42L63.4,19.9L63.58,16.32L63.96,20.23L64.15,19.43L64.33,19.93L65.09,20.2L65.27,19.56L65.46,23.95L65.84,16.52L66.02,20.34L66.21,19.73L67.34,19.9L67.52,19.88L67.71,19.82L67.9,23.34L68.46,16.36L68.65,19.95L68.84,20.03L69.96,20.02L70.15,28.36L70.34,121.4L70.9,102.83L71.09,102.8L72.59,103.01L72.78,102.75L73.15,103.81L73.53,103.27L73.71,102.91L74.09,102.19L74.28,102.47L74.46,245.38L74.65,226.77L74.84,64.9L75.4,63.21L75.78,63.47L75.96,223.33L76.15,224.33L76.34,64.28L76.71,62.5L77.09,63.86L77.28,224.96L77.46,223.82L77.65,59.25L78.21,19.73L78.59,19.87L78.78,40.32L78.96,101.91L79.15,17.9L79.34,19.76L79.53,23.33L79.9,16.27L80.28,19.78L80.47,19.93L80.84,19.88L81.03,23.38L81.59,16.31L81.97,19.9L82.15,19.96L83.09,20.1L83.28,23.7L83.84,16.5L84.22,19.98L84.4,20.06L85.34,19.9L85.53,23.42L86.09,16.36L86.47,19.87L86.66,19.9L89.66,19.89L89.84,26.55L90.78,65.3L90.97,65.21L91.91,64.8L92.09,63.89L93.22,64.7L93.41,64.24L94.35,63.59L94.53,62.95L94.72,60.01L94.91,215.65L95.1,213.78L95.28,42.81L95.85,19.76L96.22,19.79L96.41,19.74L97.53,19.84L97.72,19.86L98.85,19.91L99.03,23.46L99.6,16.43L99.78,23.47L99.97,19.94L100.16,20.03L100.35,16.37L100.91,20.03L101.1,19.98L101.29,20.07L106.72,19.88L106.91,19.9L111.98,19.91L112.16,23.43L112.54,224.77L112.91,53.36L113.1,51.53L113.48,68.89L113.66,49.93L113.85,188.09L114.04,177.08L114.23,27.79L114.41,191.43L114.98,89.95L115.16,17.81L115.54,20.38L115.92,19.61L116.1,20.04L117.04,19.88L117.23,20.09L120.04,19.94L120.23,92.57L120.6,110.04L120.98,104.02L121.17,83.98L121.92,67.74L122.1,69.7L122.67,74.48L122.86,73.22L123.04,71.25L124.17,64.66L124.36,63.89L125.67,64.01L125.86,64.89L126.61,225.87L126.79,65.51L127.54,64.37L127.73,64.49L127.92,65.01L128.86,64.27L129.04,225.95L129.23,227.34L129.42,65.73L130.17,64.08L130.36,64.89L130.55,65.87L130.73,64.45L130.92,72.35L131.11,90.07L131.48,65.58L131.67,218.56L131.86,214.2L132.05,40.44L132.23,32.53L132.42,45.85L132.61,50.17L132.98,52.11L133.17,48.41L133.36,62.76L133.55,252.9L133.92,26.05L134.11,19.2L134.48,20.75L135.05,20.09L135.23,19.91L135.8,19.37L135.98,19.92L136.17,20.02L136.36,20.33L136.55,23.46L136.73,33.74L136.92,246.69L137.3,81.98L137.67,95.39L137.86,99.65L138.61,110.77L138.8,110.62L138.99,108.4L140.11,105.26L140.3,105.76L140.67,105.21L140.86,105.75L141.05,105.99L141.99,64.52L142.17,64.65L142.36,64.51L142.55,64.05L143.11,64.51L143.3,64.74L143.67,64.06L143.86,224.33L144.43,63.81L144.8,64.97L144.99,65.12L145.93,63.77L146.11,64.78L147.24,63.79L147.43,64.23L148.55,62.46L148.74,220.14L148.93,215.81L149.11,48.76L150.24,19.49L150.43,19.94L151.37,19.17L151.55,19.69L151.74,20.06L151.93,19.59L152.49,19.91L152.68,20.52L152.87,19.24L153.43,20.01L153.62,20.38L154.18,19.32L154.37,20.04L154.55,19.96L155.68,20.03L155.87,23.51L156.24,16.48L156.8,19.9L156.99,19.9L165.24,19.89L165.43,23.44L165.62,16.36L166.18,23.44L166.37,34.51L166.56,61.41L167.12,53.9L167.31,46.04L167.5,179.64L167.87,19.77L168.06,19.93L168.62,19.79L168.81,23.33L169.18,16.29L169.56,19.94L169.75,19.87L170.87,19.94L171.06,23.42L172,16.4L172.18,19.98L176.31,19.89L176.5,19.9L179.69,19.89L179.87,97.56L180.06,101.08L180.63,100.11L180.81,100.43L181.19,100.05L181.38,100.68L181.56,81.88L181.75,61.44L182.31,62.07L182.5,61.53L182.69,61.95L182.88,61.81L183.06,60.67L183.44,61.93L183.63,61.38L183.81,60.8L184.38,60.15L184.56,60.88L185.31,39.83L185.5,176.72L185.88,19.33L186.44,20.03L186.63,23.29L187,16.17L187.38,19.81L187.57,19.78L187.75,20L187.94,23.39L188.32,16.37L188.88,19.45L189.07,19.93L189.25,23.66L189.63,16.27L189.82,20.04L190,19.84L190.57,20.38L190.75,23.28L191.32,16.42L191.69,19.72L191.88,19.96L198.26,19.9L198.44,19.9L201.44,19.9L201.63,38.62L201.82,61.57L202.01,221.08L202.95,55L203.13,52.21L203.88,19.75L204.26,23.32L204.45,19.77L204.63,16.24L205.01,19.8L205.2,19.84L208.38,19.98L208.57,19.97L210.07,20.05L210.26,23.5L210.64,16.34L211.2,19.89L211.39,19.9L222.45,19.77L222.64,23.33L223.39,16.3L223.58,19.84L225.08,19.88L225.27,23.43L225.83,16.43L226.02,19.95L226.2,19.99L226.95,20.04L227.14,23.57L227.7,16.51L228.08,20.04L228.27,20.01L229.95,19.9L230.14,19.89L240.65,19.84L240.83,23.38L241.02,16.26L241.58,19.85L241.77,19.63L242.9,19.85L243.08,19.9L244.96,19.93L245.15,23.55L245.34,16.5L245.71,23.57L245.9,20.02L246.09,16.53L246.46,19.94L246.84,19.91L247.02,19.87L251.9,19.89L252.09,19.9L255.84,19.9L256.03,23.43L256.21,16.36L256.78,19.88L256.96,19.99L257.15,20L257.34,39.2L257.9,185.25L258.09,20.73L259.03,19.81L259.22,19.83L260.15,19.87L260.34,20.03L260.72,19.72L260.9,23.48L261.84,16.37L262.03,19.96L264.65,20.05L264.84,19.9L268.78,19.89L268.97,65.07L269.16,101.43L269.72,100.63L269.91,101.12L270.28,100.53L270.47,101.03L270.66,101.34L270.84,101.02L271.03,83L271.97,62.67L272.16,62.79L272.53,63.86L272.91,62.76L273.09,63.19L274.03,62.55L274.22,223.66L274.78,61.23L274.97,66.77L275.16,81.89L275.35,87.71L275.53,69.92L276.47,19.74L276.66,19.78L276.85,23.35L277.22,16.27L277.41,19.71L278.53,19.89L278.72,23.37L279.1,16.31L279.47,19.89L279.66,19.94L280.78,19.98L280.97,20.06L283.79,19.87L283.97,19.9L292.41,19.91L292.6,53.62L292.79,60.73L293.16,52.97L293.35,55.26L293.54,55.8L293.91,24.18L294.1,178.81L294.48,19.76L294.85,104.31L295.04,85.66L295.42,17.55L295.98,19.81L296.17,19.81L297.85,20L298.04,19.87L302.73,19.92L302.92,82.58L303.11,107.08L303.67,106.08L303.86,103.78L304.04,102.1L304.61,102.8L304.79,102.7L304.98,102.69L305.17,92.74L306.11,63.71L306.29,63.71L307.23,64.24L307.42,63.98L307.61,63.85L308.36,62.61L308.54,63.2L308.73,63.26L309.67,62.57L309.86,62.72L310.23,62.87L310.42,62.03L310.61,60.73L310.8,219.91L311.17,215.19L311.36,227.49L312.3,19.76L312.48,19.95L314.73,19.8L314.92,20.01L315.48,19.98L315.67,23.47L316.05,16.44L316.42,19.95L316.61,20L316.99,19.9L317.17,23.74L317.55,16.5L317.92,20L318.11,23.61L318.67,16.32L319.05,19.86L319.24,19.9L322.42,19.9L322.61,40.51L322.8,63.59L323.36,63.38L323.55,63.05L324.49,63.74L324.68,63.88L325.8,64.26L325.99,64.2L326.36,63.1L326.93,63.45L327.11,63.59L327.3,64.08L327.49,63.56L327.68,62.98L328.43,63.03L328.61,223.69L328.8,224.24L328.99,59.74L329.55,36.45L329.74,20.16L329.93,19.76L330.11,100.21L330.3,101.68L330.49,76.8L330.68,17.56L331.24,19.83L331.43,19.83L332.93,19.86L333.12,23.45L333.49,16.36L333.68,23.49L333.87,19.92L334.05,20L334.24,16.4L334.62,19.97L334.8,20.04L336.68,19.82L336.87,19.77L338.18,19.88L338.37,19.89L339.31,19.92L339.49,23.42L340.06,16.36L340.43,19.9L340.62,19.89L342.68,19.9L342.87,30.66L343.24,64.14L343.62,63.7L343.81,63.44L345.12,62.94L345.31,62.47L345.68,63.5L345.87,62.65L346.06,62.28L346.43,63.47L346.62,62.75L346.81,61.75L347.56,38.67L347.75,20.61L347.93,19.8L348.12,121.35L348.31,128.08L348.5,87.19L348.68,17.5L349.25,19.8L349.43,19.86L350.93,19.91L351.12,23.42L351.68,16.36L351.87,19.97L352.06,19.99L352.25,23.48L352.62,19.96L352.81,16.48L353.37,20.07L353.75,20.01L353.94,20.05L356.37,19.9L356.56,19.92L359.37,19.9L359.56,19.9L365.75,19.93L365.94,55.39L366.69,19.53L366.88,23.38L367.06,16.32L367.63,23.23L367.82,16.28L368.38,20.45L368.75,20.07L368.94,19.77L369.13,22.94L369.32,16L369.69,20.25L369.88,20.33L370.63,19.86L370.82,20.07L371,20.06L375.69,19.89L375.88,86.98L376.07,102.43L376.63,101.8L376.82,101.73L377.57,64.27L377.94,64.49L378.13,63.85L378.88,63.15L379.07,63.26L379.26,63.68L379.63,62.64L379.82,62.38L380.01,62.56L380.19,62.12L380.38,221.94L381.32,60.5L381.51,60.27L382.07,61.7L382.45,61.31L382.63,61.24L382.82,220.06L383.2,48.58L383.38,46.67L383.57,53.02L383.76,50L383.95,30.39L384.13,19.87L384.32,190.78L384.51,188.89L384.7,20.06L386.01,19.61L386.2,19.86L386.57,19.86L386.76,23.41L387.13,16.3L387.51,19.91L387.7,19.93L388.07,19.93L388.26,23.48L388.63,16.54L388.82,23.68L389.01,20L389.2,20.01L389.39,19.85L389.57,16.53L390.14,20.05L390.32,19.95L390.51,19.87L390.7,23.45L391.07,16.35L391.26,19.94L391.45,19.89L394.64,19.9L394.82,31.49L395.01,62.47L395.57,61.77L395.76,62.33L396.33,62.08L396.7,63.02L396.89,62.88L397.26,62.07L397.45,62.74L397.64,63.25L398.58,62.14L398.76,62.29L398.95,62.59L399.14,62.09L399.33,61.32L399.7,61.49L399.89,221.15L400.08,221.75L400.26,61.52L400.83,59.01L401.01,52.41L401.58,53.65L402.7,19.62L402.89,23.45L403.27,86.07L403.45,75.84L403.64,17.54L404.39,19.89L404.58,19.77L406.83,20.57L407.02,19.41L407.95,20.01L408.14,20.01L412.08,19.89L412.27,19.9L416.77,19.89L416.96,26.76L417.33,63.46L417.71,63.35L417.9,63.98L418.46,64.29L418.65,63.54L419.4,54.45L419.58,202.56L420.15,138.64L420.33,19L420.9,23.31L421.08,19.81L421.27,16.28L421.65,19.86L421.83,19.85L422.4,19.87L422.58,23.43L423.52,16.39L423.71,19.92L427.27,19.93L427.46,19.86L428.21,19.9L428.4,23.46L429.15,16.36L429.34,19.89L429.52,19.9L433.09,19.9L433.28,44.96L433.65,63.68L434.03,62.27L434.21,62.37L434.4,63.06L434.78,62.01L434.96,62.3L435.15,62.71L435.53,62.93L435.71,41.68L435.9,40.82L436.09,62.43L436.65,62.23L436.84,221.42L437.03,218.87L437.21,55.01L437.4,53.04L437.59,41.78L437.96,19.75L438.53,19.77L438.71,19.77L440.22,19.87L440.4,23.42L440.78,16.6L441.15,20.23L441.34,19.77L441.53,19.56L441.9,20.26L442.09,20.07L442.84,19.67L443.03,23.82L443.4,16.53L443.97,19.99L444.15,20L444.53,19.41L444.72,20.35L444.9,19.44L445.47,19.9L445.65,19.9L451.84,19.9L452.03,23.44L452.41,16.36L452.97,19.89L453.16,19.9L453.34,19.9L453.53,41.47L454.1,62.55L454.28,62.41L454.47,61.37L454.66,60.91L454.85,221.6L455.78,23.27L455.97,19.76L456.72,19.78L456.91,23.33L457.28,16.29L457.66,19.84L457.85,20.91L458.03,18.79L458.6,19.89L458.78,19.85L461.41,20.11L461.6,20.02L463.29,19.9L463.47,23.42L463.85,16.37L464.41,19.79L464.6,19.82L465.35,19.96L465.54,23.32L466.1,16.39L466.47,19.89L466.66,19.9L467.6,20.62L467.79,42.53L467.97,41.49L468.16,63.39L468.35,63.14L468.54,65.81L468.73,67.08L468.91,64.43L469.1,63.47L469.85,63.7L470.04,62.98L470.79,62.63L470.98,62.88L471.16,63.48L472.1,62.28L472.29,41.4L472.48,40.95L472.66,62.13L473.23,54.89L473.41,52.32L473.6,202.19L473.98,20.43L474.16,19.77L474.91,19.79L475.1,23.34L475.67,16.32L475.85,23.38L476.23,16.28L476.6,19.92L476.79,24.56L477.17,16.35L477.73,19.9L477.92,19.9L481.48,19.89L481.67,23.44L482.04,229.94L482.23,68.27L482.42,69.1L482.61,69.74L482.79,67.81L482.98,66.79L483.17,66.72L483.36,44.13L483.54,42.93L483.73,65.72L485.42,63.2L485.61,63.76L485.79,64.15L485.98,63.48L486.17,63.12L487.11,64.41L487.29,64.2L487.48,64.11L487.67,64.47L487.86,63.65L488.04,223.29L488.61,62.58L488.98,63.67L489.17,62.96L489.92,62.49L490.11,62.64L490.86,61.79L491.05,58.16L491.61,48.47L491.8,62.19L491.98,78.1L492.17,56.17L492.36,25.41L492.73,67.58L492.92,44.23L493.11,19.9L494.61,19.58L494.8,19.78L494.98,24.34L495.36,16.13L495.55,20.42L495.73,22.9L496.11,16.61L496.3,19.72L496.48,24L497.05,16.42L497.42,20.05L497.61,19.88L498.17,19.93L498.36,64.81L498.92,304L499.3,265.38L499.49,105.71L499.67,106.7L499.86,106.41L500.05,103.97L500.42,104.28L500.61,105.85L500.8,105.67L500.99,103.83L501.55,104.2L501.74,103.36L502.49,99.44L502.67,99.73L502.86,87.9L503.99,41.46L504.18,41.05L504.36,62.55L504.93,62.45L505.11,62.35L505.49,63.15L505.68,62.92L505.86,62.15L506.61,62.4L506.8,41.87L507.74,19.9L507.93,19.9L509.43,19.9L509.61,44.95L510.18,238.23L510.36,45.26L511.11,19.54L511.3,19.9L511.68,16.28L511.87,23.55L512.05,19.61L512.24,16.25L512.62,22.75L512.8,19.82L512.99,16.14L513.37,19.88L513.55,19.94L514.87,19.94L515.05,23.65L515.62,16.43L515.8,20.04L515.99,19.99L520.49,19.9L520.68,53.87L521.06,62.34L521.62,62.1L521.81,62L522.18,61.45L522.56,61.91L522.74,61.66L523.68,62.55L523.87,61.8L524.62,61.04L524.81,61.54L524.99,62.28L526.31,59.69L526.5,59.87L526.68,60.49L526.87,60.8L527.06,58.19L527.25,52.18L527.43,58.87L527.62,237.08L528,252.87L528.18,82.96L528.93,20.01L529.12,25.07L529.31,172.28L529.68,19.4L530.25,19.84L530.43,19.75L530.81,20.04L531,23.37L531.37,16.35L531.75,20L531.93,19.9L534.19,19.96L534.37,23.48L534.75,16.33L535.31,19.88L535.5,19.63L535.69,20.14L536.25,19.89L536.44,19.89L540,19.9" style="vector-effect: non-scaling-stroke; fill: none; stroke: rgb(0, 191, 255); stroke-opacity: 1; stroke-width: 2px; opacity: 1;"/></g><g class="points"/><g class="text"/></g></g></g><g class="overplot"/><path class="xlines-above crisp" d="M0,0" style="fill: none;"/><path class="ylines-above crisp" d="M0,0" style="fill: none;"/><g class="overlines-above"/><g class="xaxislayer-above"><g class="xtick"><text text-anchor="middle" x="0" y="433" transform="translate(170.03,0)" style="font-family: sans-serif; font-size: 12px; fill: rgb(42, 63, 95); fill-opacity: 1; white-space: pre; opacity: 1;"><tspan class="line" dy="0em" x="0" y="433">Nov 6</tspan><tspan class="line" dy="1.3em" x="0" y="433">2022</tspan></text></g><g class="xtick"><text text-anchor="middle" x="0" y="433" style="font-family: sans-serif; font-size: 12px; fill: rgb(42, 63, 95); fill-opacity: 1; white-space: pre; opacity: 1;" transform="translate(296.08000000000004,0)">Nov 13</text></g><g class="xtick"><text text-anchor="middle" x="0" y="433" style="font-family: sans-serif; font-size: 12px; fill: rgb(42, 63, 95); fill-opacity: 1; white-space: pre; opacity: 1;" transform="translate(422.12,0)">Nov 20</text></g><g class="xtick"><text text-anchor="middle" x="0" y="433" style="font-family: sans-serif; font-size: 12px; fill: rgb(42, 63, 95); fill-opacity: 1; white-space: pre; opacity: 1;" transform="translate(548.1600000000001,0)">Nov 27</text></g></g><g class="yaxislayer-above"><g class="ytick"><text text-anchor="end" x="79" y="4.199999999999999" transform="translate(0,377.73)" style="font-family: sans-serif; font-size: 12px; fill: rgb(42, 63, 95); fill-opacity: 1; white-space: pre; opacity: 1;">−80k</text></g><g class="ytick"><text text-anchor="end" x="79" y="4.199999999999999" style="font-family: sans-serif; font-size: 12px; fill: rgb(42, 63, 95); fill-opacity: 1; white-space: pre; opacity: 1;" transform="translate(0,313.27)">−60k</text></g><g class="ytick"><text text-anchor="end" x="79" y="4.199999999999999" style="font-family: sans-serif; font-size: 12px; fill: rgb(42, 63, 95); fill-opacity: 1; white-space: pre; opacity: 1;" transform="translate(0,248.81)">−40k</text></g><g class="ytick"><text text-anchor="end" x="79" y="4.199999999999999" style="font-family: sans-serif; font-size: 12px; fill: rgb(42, 63, 95); fill-opacity: 1; white-space: pre; opacity: 1;" transform="translate(0,184.35)">−20k</text></g><g class="ytick"><text text-anchor="end" x="79" y="4.199999999999999" style="font-family: sans-serif; font-size: 12px; fill: rgb(42, 63, 95); fill-opacity: 1; white-space: pre; opacity: 1;" transform="translate(0,119.9)">0</text></g></g><g class="overaxes-above"/></g></g><g class="polarlayer"/><g class="smithlayer"/><g class="ternarylayer"/><g class="geolayer"/><g class="funnelarealayer"/><g class="pielayer"/><g class="iciclelayer"/><g class="treemaplayer"/><g class="sunburstlayer"/><g class="glimages"/><defs id="topdefs-e99494"><g class="clips"/></defs><g class="layer-above"><g class="imagelayer"/><g class="shapelayer"/></g><g class="infolayer"><g class="g-gtitle"><text class="gtitle" x="350" y="50" text-anchor="middle" dy="0em" style="font-family: sans-serif; font-size: 17px; fill: rgb(42, 63, 95); opacity: 1; font-weight: normal; white-space: pre;"><tspan class="line" dy="0em" x="350" y="50"><tspan style="font-weight:bold">Scenario 6</tspan></tspan><tspan class="line" dy="1.3em" x="350" y="50"><tspan style="font-weight:bold">Microgrid Output</tspan></tspan><tspan class="line" dy="2.6em" x="350" y="50"><tspan style="font-weight:bold">From: November 01, 2022 to November 30, 2022</tspan></tspan></text></g><g class="g-xtitle"><text class="xtitle" x="350" y="476.409375" text-anchor="middle" style="font-family: sans-serif; font-size: 14px; fill: rgb(42, 63, 95); opacity: 1; font-weight: normal; white-space: pre;"><tspan style="font-weight:bold">Time</tspan></text></g><g class="g-ytitle"><text class="ytitle" transform="rotate(-90,27.840625000000003,260)" x="27.840625000000003" y="260" text-anchor="middle" style="font-family: sans-serif; font-size: 14px; fill: rgb(42, 63, 95); opacity: 1; font-weight: normal; white-space: pre;"><tspan style="font-weight:bold">Demand (kW)</tspan></text></g></g></svg>