<svg class="main-svg" xmlns="http://www.w3.org/2000/svg" xmlns:xlink="http://www.w3.org/1999/xlink" width="700" height="500" style="" viewBox="0 0 700 500"><rect x="0" y="0" width="700" height="500" style="fill: rgb(255, 255, 255); fill-opacity: 1;"/><defs id="defs-9c9188"><g class="clips"><clipPath id="clip9c9188xyplot" class="plotclip"><rect width="540" height="320"/></clipPath><clipPath class="axesclip" id="clip9c9188x"><rect x="80" y="0" width="540" height="500"/></clipPath><clipPath class="axesclip" id="clip9c9188y"><rect x="0" y="100" width="700" height="320"/></clipPath><clipPath class="axesclip" id="clip9c9188xy"><rect x="80" y="100" width="540" height="320"/></clipPath></g><g class="gradients"/><g class="patterns"/></defs><g class="bglayer"/><g class="layer-below"><g class="imagelayer"/><g class="shapelayer"/></g><g class="cartesianlayer"><g class="subplot xy"><g class="layer-subplot"><g class="shapelayer"/><g class="imagelayer"/></g><g class="minor-gridlayer"><g class="x"/><g class="y"/></g><g class="gridlayer"><g class="x"><path class="xgrid crisp" transform="translate(170.03,0)" d="M0,100v320" style="stroke: rgb(255, 255, 255); stroke-opacity: 1; stroke-width: 1px;"/><path class="xgrid crisp" transform="translate(296.08000000000004,0)" d="M0,100v320" style="stroke: rgb(255, 255, 255); stroke-opacity: 1; stroke-width: 1px;"/><path class="xgrid crisp" transform="translate(422.12,0)" d="M0,100v320" style="stroke: rgb(255, 255, 255); stroke-opacity: 1; stroke-width: 1px;"/><path class="xgrid crisp" transform="translate(548.1600000000001,0)" d="M0,100v320" style="stroke: rgb(255, 255, 255); stroke-opacity: 1; stroke-width: 1px;"/></g><g class="y"><path class="ygrid crisp" transform="translate(0,406.15)" d="M80,0h540" style="stroke: rgb(255, 255, 255); stroke-opacity: 1; stroke-width: 1px;"/><path class="ygrid crisp" transform="translate(0,348.12)" d="M80,0h540" style="stroke: rgb(255, 255, 255); stroke-opacity: 1; stroke-width: 1px;"/><path class="ygrid crisp" transform="translate(0,290.09000000000003)" d="M80,0h540" style="stroke: rgb(255, 255, 255); stroke-opacity: 1; stroke-width: 1px;"/><path class="ygrid crisp" transform="translate(0,232.06)" d="M80,0h540" style="stroke: rgb(255, 255, 255); stroke-opacity: 1; stroke-width: 1px;"/><path class="ygrid crisp" transform="translate(0,174.03)" d="M80,0h540" style="stroke: rgb(255, 255, 255); stroke-opacity: 1; stroke-width: 1px;"/></g></g><g class="zerolinelayer"><path class="yzl zl crisp" transform="translate(0,116)" d="M80,0h540" style="stroke: rgb(255, 255, 255); stroke-opacity: 1; stroke-width: 2px;"/></g><path class="xlines-below"/><path class="ylines-below"/><g class="overlines-below"/><g class="xaxislayer-below"/><g class="yaxislayer-below"/><g class="overaxes-below"/><g class="plot" transform="translate(80,100)" clip-path="url(#clip9c9188xyplot)"><g class="scatterlayer mlayer"><g class="trace scatter trace41bce7" style="stroke-miterlimit: 2; opacity: 0.5;"><g class="fills"/><g class="errorbars"/><g class="lines"><path class="js-line" d="M0,60.72L0.19,58.04L0.75,60.53L0.94,60.27L1.13,60.18L1.31,60.77L1.5,59.06L2.25,56.55L2.44,59.28L2.63,60.12L2.81,57.36L3,57.04L3.19,58.9L3.56,56.56L3.94,57.99L4.13,57.67L4.69,56.42L4.88,200.37L5.06,203.27L5.25,220.94L5.63,92.65L6,94.27L6.19,240.67L6.38,241.23L6.56,245.52L6.75,112.84L7.32,120.37L7.5,115.43L7.88,123.48L8.25,121.45L8.44,256.44L8.82,228L9,81.63L9.19,81.18L9.38,98.7L9.75,121.33L9.94,116.89L10.13,264.11L10.32,276.73L10.5,134.71L10.69,127.35L10.88,128.06L11.07,273.45L11.25,274.36L11.44,129.82L11.63,127.35L11.82,129.95L12,116.38L12.57,87.59L12.75,75.06L12.94,77.17L13.13,73.41L13.32,71L13.5,67.12L14.07,67.35L14.25,67.26L14.63,65.48L15.01,65.79L15.19,65.93L15.94,56.89L16.32,59.47L16.51,59.1L17.26,56.1L17.44,57.69L17.63,61.39L18.01,55.38L18.19,57.79L18.38,58.59L18.94,58.9L19.32,56.04L19.51,56.96L19.69,58.31L19.88,57.05L20.07,55.14L20.26,54.89L20.44,56.22L20.63,56.85L20.82,55.85L21.01,55.33L21.19,55L21.38,56.88L21.57,57.1L21.76,55.14L22.32,55.05L22.51,56.55L22.7,57.01L22.88,55.21L23.63,233.43L23.82,101.07L24.95,146.06L25.13,144.46L25.51,150L25.7,147.16L25.88,137.37L26.82,81.63L27.01,217.47L27.38,244.38L27.57,110.64L27.76,113.72L27.95,105.18L28.13,98.89L28.32,98.08L28.51,88.61L28.7,85.73L28.89,102.22L29.26,124.2L29.82,122.45L30.01,111.28L30.57,98.26L30.95,101.27L31.14,97.63L31.51,98.58L31.89,93.6L32.07,97.13L32.26,96.62L32.45,93.48L32.82,96.57L33.01,95.49L33.2,93.96L33.39,94.83L33.57,93.63L33.76,92.05L34.89,89.52L35.07,89.91L35.26,90.07L35.45,82.95L36.2,54.84L36.39,55.56L36.58,55.95L37.51,55.3L37.7,55.62L37.89,55.68L38.08,54.95L39.2,55.18L39.39,54.7L39.76,55.03L39.95,199.1L40.33,199.27L40.89,54.46L41.08,55.65L41.26,57.77L41.45,74.18L42.39,158.56L42.76,157.6L42.95,158.36L43.33,158.93L43.52,160.14L43.7,160.07L43.89,157.05L45.02,105.13L45.2,250.62L45.39,268.33L45.58,138.14L46.33,149.6L46.52,137.07L46.7,119.55L47.27,120.82L47.45,121.74L47.64,121.96L47.83,121.34L48.02,99.95L48.58,68.37L48.77,210.13L48.95,209.77L49.14,63.3L49.89,59.1L50.08,60.45L50.27,61.85L50.46,59.61L50.64,58.24L51.39,58.75L51.58,58.19L52.33,54.89L52.52,54.97L52.71,55.37L53.83,54.72L54.02,55.3L55.52,56.05L55.71,54.83L56.46,54.4L56.64,54.76L58.33,53.98L58.52,53.99L58.71,198.46L59.27,56.72L59.46,73.84L60.58,157.83L60.77,302.67L60.96,304L61.15,160.91L61.71,162.44L61.9,153.85L62.27,131.89L62.46,247.61L62.65,231.97L62.83,100.03L63.02,100.44L63.21,243L63.4,247.12L63.58,102.35L63.77,101.6L63.96,102.06L64.15,89.39L64.52,74.27L64.71,81.65L64.9,92.52L65.27,90.11L65.46,235.46L65.65,235.34L65.84,236.24L66.21,84.34L66.59,86.58L66.77,94.37L66.96,96.46L67.15,92.83L67.34,94.17L67.52,92.42L67.71,84.5L67.9,214.35L68.27,206.03L68.46,61.27L68.84,80.87L69.02,92.88L69.59,92.42L69.77,96.54L69.96,111.42L70.15,122.12L70.34,107.02L70.52,91.23L71.46,90.17L71.65,90.35L71.84,90.51L72.78,90.23L72.96,91.02L73.15,91.18L73.53,90.7L73.71,90.37L74.09,89.72L74.28,89.98L74.46,218.63L74.84,200.43L75.03,55.88L75.4,54.63L75.78,54.87L75.96,198.78L76.15,199.68L76.34,55.6L76.71,54L77.09,55.28L77.28,200.66L77.46,201.69L77.65,57.73L78.03,57.28L78.4,57.56L78.59,58.09L78.96,204.71L79.53,204.01L79.72,204.59L79.9,60.05L80.47,61.71L80.65,61.21L80.84,61.26L81.03,206.15L81.22,206.34L81.4,207.9L81.78,62.06L82.15,66.09L82.34,67.23L82.72,69.92L82.9,68.61L83.09,74.68L83.47,252.42L83.84,105.74L84.03,107.76L85.34,98.66L85.53,241.03L85.72,242.6L85.9,242.2L86.09,95.24L86.28,97.22L86.66,94.81L86.84,94.71L87.22,94.39L87.41,95.13L87.59,95L87.78,91.25L87.97,90.11L88.16,92.11L88.34,86.08L89.09,55.73L89.28,56.47L89.47,57.06L90.41,55.8L90.59,56.37L91.34,56.51L91.53,56.09L91.91,56.06L92.09,55.25L93.22,55.97L93.41,55.56L94.72,54.76L94.91,199.06L95.1,200.97L95.28,57.99L95.47,57.44L95.66,58.47L95.85,59.25L96.22,89.81L96.6,72.35L96.78,58.79L97.72,61.28L97.91,61.7L98.47,61.99L98.85,61.1L99.03,208.95L99.22,211.42L99.41,209.63L99.6,68.27L100.16,217.59L100.35,72.89L100.53,69.76L101.47,76.89L101.66,74.12L101.85,74.65L102.04,72.23L102.97,63.71L103.16,66.05L104.1,61.81L104.29,62.85L104.47,63.51L105.04,63.62L105.41,59.89L105.6,61L106.35,56.83L106.54,58.03L106.72,58.46L107.29,56.42L107.47,56.81L107.66,57.56L107.85,58.03L108.04,57.57L108.23,56.96L108.6,56.93L108.79,59.56L108.98,59.75L109.16,57.15L109.54,57.28L109.73,58.34L109.91,58.23L110.1,56.92L110.66,56.88L110.85,58.45L111.79,56.64L111.98,57.77L112.16,202.88L112.54,201.1L112.73,57.35L112.91,56.75L113.1,62.92L113.48,92.34L113.66,91.83L113.85,237.68L114.04,240.44L114.23,96.67L114.79,259.95L114.98,244.84L115.16,83.08L115.35,82.65L115.54,88.02L115.92,109.36L116.1,96.39L116.29,84.78L116.85,79.2L117.04,68.25L117.23,64.78L117.42,68.12L117.6,77.33L117.79,82.56L118.17,73.99L118.35,69.35L119.1,63.78L119.29,66.36L119.48,84.4L119.67,98.65L120.23,95.7L120.42,94.8L120.6,96.82L120.79,96.27L120.98,91.38L121.92,58.72L122.1,60.49L122.67,64.79L122.86,63.65L123.04,61.88L124.17,55.94L124.36,55.25L125.86,56.14L126.04,200.53L126.42,200.5L126.61,56.79L127.54,55.68L127.73,55.78L127.92,56.26L128.48,56.01L128.67,55.97L128.86,55.58L129.04,56.86L129.23,57.32L130.17,55.42L130.36,56.15L130.55,57.07L130.73,55.96L130.92,63.28L131.11,80.66L131.48,65.83L131.67,204.23L131.86,204.39L132.05,60.24L132.23,59.66L132.42,62.08L133.36,88.47L133.55,248.29L133.92,260.4L134.11,116.33L134.3,116.66L134.48,111.17L135.61,63.18L135.8,67.61L135.98,68.44L136.17,66.99L136.36,68.89L136.55,213.29L136.92,246.1L137.11,101.52L137.3,102.62L137.49,101.06L137.67,98.65L138.05,100.41L138.24,97.3L138.42,95.88L138.61,97.47L138.99,95.32L139.17,94.14L140.11,92.49L140.3,92.94L140.67,92.44L140.86,92.93L141.05,93.15L141.99,55.81L142.17,55.92L142.36,55.8L142.55,55.39L143.11,55.8L143.3,56.01L143.67,55.4L143.86,199.68L144.43,55.17L144.8,56.22L144.99,56.35L145.93,55.14L146.11,56.04L148.18,54.93L148.36,54.25L148.55,54.24L148.74,199.03L149.11,55.76L149.49,58.61L149.68,59.27L150.05,60.45L150.24,68.68L150.99,122.01L151.37,110.23L151.55,96.41L152.3,78.21L152.49,79.28L152.68,81.1L153.24,61.7L153.8,62.65L153.99,63.88L154.74,62.13L154.93,62.93L155.49,78.83L155.68,78.63L155.87,215.5L156.24,205.35L156.43,61.56L156.8,58.14L157.18,58.59L157.37,59.86L158.12,57.96L158.49,58.72L158.68,58.73L160.74,55.61L160.93,55.86L161.31,55.13L161.49,54.76L161.87,55.17L162.06,54.63L162.24,54.55L163.18,55.65L163.37,54.84L164.12,54.03L164.49,54.69L164.68,54.72L165.24,53.86L165.43,197.79L165.62,198.74L165.81,54.42L166,53.03L166.18,197.37L166.37,198.46L166.56,54.12L166.75,53.05L166.93,53.3L167.12,55.35L167.31,56.38L167.5,200.17L167.68,57.07L168.25,90.71L168.43,91.98L168.62,92.87L168.81,238.26L169,239.72L169.18,95.25L169.37,95.14L169.56,103.29L170.31,113.74L170.5,113.16L170.68,113.43L170.87,115.42L171.06,261.46L171.62,243.43L171.81,97.56L172.18,96.11L172.37,99.31L172.56,99.26L172.75,87.87L174.06,63.62L174.25,64.65L174.44,66.1L174.62,78.72L174.81,93.14L175.37,92.9L175.56,93.07L176.31,91L176.5,91.14L176.69,91.68L177.44,91.9L177.62,90.73L178.37,88.37L178.56,88.57L178.75,89.23L179.69,88.09L179.87,88.33L180.06,88.73L180.44,87.41L181,87.84L181.19,87.8L181.38,88.37L181.56,71.44L181.75,53.04L182.31,53.6L182.5,53.12L182.69,53.5L182.88,53.38L183.06,52.35L183.44,53.48L183.63,53L183.81,52.47L184.38,51.94L184.56,53.02L185.13,53.3L185.31,55.08L185.5,199.79L186.06,55.93L186.25,56.18L186.44,69.54L186.63,231.04L186.81,234.81L187,82.41L187.57,57.06L187.75,58.28L187.94,203.05L188.13,202.34L188.32,59.15L188.88,58.33L189.07,59.07L189.25,203.8L189.63,204.97L189.82,59.67L190,59.86L190.19,74.32L190.57,92.94L190.75,235.31L191.32,237.82L191.5,93.59L193,57.88L193.19,57.55L193.38,57.41L193.57,58.8L193.75,59.02L193.94,57.39L194.13,57.25L194.32,57.8L194.51,57.93L196.19,54.5L196.38,55.15L197.32,54.08L197.51,54.29L197.69,54.48L198.63,53.72L198.82,54.01L199.01,54.35L199.57,53.99L199.76,53.58L200.69,52.63L200.88,52.95L201.44,52.74L201.63,53.47L201.82,53.16L202.01,196.76L202.38,53.12L202.57,52.7L202.76,52.56L202.95,53.09L203.13,54.19L203.88,55.73L204.07,55.7L204.26,200.92L204.45,202.44L204.63,58.2L205.01,57.49L205.2,58.17L205.38,63.16L205.57,62.41L205.76,57.13L206.32,58.91L206.7,58.43L206.88,58.62L207.07,58.11L207.26,60.02L207.63,58.91L208.2,59.3L208.38,60.14L208.57,58.17L208.95,60.53L209.14,59.4L209.32,59.41L209.51,62.07L209.89,57.83L210.07,60.71L210.26,204.97L210.45,204.27L210.64,59.85L211.39,57.89L211.57,58.72L211.95,56.77L212.14,57.09L212.32,59.12L212.51,59.28L212.7,57.26L213.64,56.56L213.82,55.27L214.76,53.88L214.95,54.26L215.7,54.12L215.89,53.85L216.64,53.38L216.83,53.82L217.58,54.06L217.76,53.59L218.14,52.88L218.51,53.66L218.7,53.08L219.08,53.95L219.64,53.59L219.83,53.4L220.39,53.6L220.76,52.29L220.95,52.41L222.45,57.14L222.64,201.31L223.2,202.31L223.58,58L223.77,57.48L224.14,59.61L224.7,59.31L224.89,58.57L225.08,58.69L225.27,202.33L225.64,204.38L225.83,60.48L226.58,58.44L226.95,58.62L227.14,202.91L227.33,204.44L227.52,204.25L227.7,58.97L228.83,56.5L229.02,57.71L229.2,58.5L229.58,57.07L229.77,57.51L230.52,57.11L230.71,58.25L230.89,58.77L231.27,57.76L231.46,57.43L232.02,54.38L232.58,54.77L232.77,54.56L233.52,54.52L233.71,54.43L234.08,53.71L234.46,54.28L234.64,54L235.58,55.05L235.77,54.13L236.52,53.66L236.71,54.09L236.89,54.5L237.27,53.51L237.46,53.92L238.21,52.95L238.4,52.74L238.58,51.89L238.96,53.01L239.15,54.03L240.27,92.11L240.46,92.33L240.65,97.05L240.83,249.81L241.02,110.03L241.58,144.47L241.77,127.87L242.71,97.09L242.9,100.15L243.46,95.06L243.65,109.72L244.02,137.13L244.21,117.9L244.4,94.22L244.96,79.63L245.15,214.2L245.52,67.6L245.9,210.31L246.09,214.13L247.02,61.39L247.21,59.68L247.4,60.54L247.59,59.4L247.77,58.07L248.34,59.69L248.52,58.62L248.9,57.53L249.27,58.39L249.46,58.17L250.21,54.81L250.59,55.64L250.77,55.14L252.84,54.62L253.03,55.02L253.78,55.11L253.96,54.42L254.15,54.01L254.34,54.7L254.53,55.06L255.84,53.52L256.03,197.44L256.21,197.89L256.4,54.21L256.78,53.6L256.96,63.24L257.34,92.77L257.71,91.56L257.9,242.03L258.09,114.55L258.65,129.49L258.84,138.73L259.22,144.97L259.4,134.76L259.59,120.03L259.97,113.85L260.15,116.41L260.34,130.39L260.53,132.5L260.72,108.48L261.09,245.53L261.47,242.24L261.65,101.95L262.03,96.53L262.22,100.29L262.4,101.4L263.53,67.2L263.72,68.45L264.28,65.53L264.47,65.77L264.65,80.74L265.03,94.62L265.4,92.32L265.59,93.51L265.97,92.01L266.15,93.46L266.34,93.54L266.91,91.66L267.09,92.36L267.28,92.53L268.22,88.7L268.59,89.69L268.78,89.26L269.72,88.33L269.91,88.77L270.28,88.23L270.84,88.67L271.03,72.45L271.97,54.15L272.16,54.25L272.53,55.22L272.91,54.23L273.09,54.62L274.03,54.05L274.22,199.08L274.41,200.49L274.6,199.71L274.78,54.82L276.47,113.24L276.66,111.63L277.03,258.63L277.22,256.32L277.41,102.46L278.35,80L278.53,82.47L278.72,223.86L279.1,210.27L279.28,65.3L279.47,65.34L279.66,63.47L280.22,117.29L280.41,101.05L280.6,85.6L280.78,80.97L281.35,82.76L281.54,82.98L281.91,81.03L282.1,84.16L282.29,84.9L282.47,80.46L282.85,69.45L283.04,62.53L283.97,57.96L284.16,58.15L284.35,59.18L284.54,67.7L284.91,88.05L285.1,71.89L285.29,57.67L285.47,59.69L285.66,58.97L285.85,55.47L286.41,54.6L286.6,55.09L286.79,55.71L287.72,55.47L287.91,54.46L288.66,54.09L288.85,54.44L289.04,55.08L290.35,53.83L290.54,54.66L291.1,53.62L291.29,53.03L291.48,52.8L291.66,53.35L291.85,54.23L292.04,54.24L292.23,53.13L292.6,54.01L292.79,53.66L292.98,52.92L293.16,53.97L293.35,59.87L293.91,96.84L294.1,258.34L294.48,125.6L294.66,270.62L294.85,272.91L295.23,275.77L295.42,131.98L295.79,124.84L295.98,111.99L296.35,102.38L296.54,115.89L296.73,131.79L297.1,131.13L297.29,132.81L297.48,136L297.85,149.62L298.04,146.63L298.23,133.3L298.6,121.18L298.98,132.2L299.17,148.27L299.35,155.15L299.92,152.57L300.1,148.57L300.29,146.18L300.48,128.55L301.04,95.61L301.42,96.2L301.6,98.65L302.54,93.64L302.73,95.03L302.92,95.6L303.11,94.12L303.29,93.58L303.48,93.75L303.67,93.22L303.86,91.16L304.04,89.64L304.61,90.28L304.79,90.18L304.98,90.18L305.17,81.22L306.11,55.08L306.29,55.09L307.23,55.55L307.42,55.32L307.61,55.2L308.36,54.09L308.54,54.62L308.73,54.68L309.67,54.05L309.86,54.19L310.23,54.33L310.42,53.57L310.61,52.6L310.8,196.49L310.98,53.3L311.36,214.7L311.55,86.86L311.73,89.56L312.3,93.01L312.48,107.34L312.86,131.03L313.23,112.17L313.42,112.85L314.92,66.44L315.11,67.82L315.3,69.58L315.48,68.31L315.67,214.97L315.86,214.02L316.05,69.86L316.61,68.46L316.8,71.91L316.99,71.28L317.36,244.36L317.74,103.66L317.92,98.97L318.3,246.09L318.49,98.32L318.67,94.82L319.24,91.45L319.42,93.76L319.61,93.76L319.8,92.25L320.36,91.96L320.74,94.32L320.92,92.11L322.24,54.79L322.42,55.36L322.61,55.5L322.8,54.98L322.99,54.73L323.92,55.19L324.11,54.8L324.3,54.65L324.68,55.23L324.86,55.28L325.43,56.01L325.8,55.57L325.99,55.52L326.36,54.53L326.93,54.84L327.11,54.96L327.3,55.4L327.68,54.43L327.86,54.32L328.24,54.79L328.43,54.47L328.61,199.26L328.99,55.03L329.36,56.99L329.55,57.35L329.93,57.97L330.11,202.31L330.3,202.63L330.49,57.92L330.86,73.09L331.05,65.44L331.24,58.3L331.43,59.91L331.99,59.25L332.18,58.6L332.93,60.55L333.12,204.34L333.49,59.95L333.68,205.48L333.87,205.65L334.43,59.75L334.8,60.67L334.99,68.43L335.74,94.64L335.93,93.43L336.12,98.42L336.49,124.59L336.87,102.28L337.05,92.75L337.24,92.59L337.43,91.43L338.18,93.93L338.37,92.29L338.56,91.9L339.12,57.82L339.31,59.68L339.49,204.45L339.68,202.74L339.87,56.35L340.06,55.19L340.62,55.41L340.81,55.55L340.99,55.77L341.18,55.25L341.37,54.97L342.31,55.64L342.49,55.37L342.87,54.81L343.24,55.45L343.43,55.19L345.31,53.96L345.49,54.63L345.68,54.88L345.87,54.12L346.06,53.79L346.43,54.86L346.81,53.84L347,54.14L347.93,60.97L348.12,221.01L348.31,227.38L348.5,211.54L348.68,58.97L349.06,60.31L349.25,59.2L349.62,60.42L350.18,60.01L350.37,60.48L350.56,61.27L350.93,60.39L351.12,205.86L351.31,205.38L351.5,206.83L351.68,61.6L351.87,60.58L352.06,65.72L352.62,211.4L352.81,66.05L353,66.85L353.19,64.21L353.56,68.19L353.75,66.61L353.94,65.37L354.87,59.73L355.06,60.27L355.25,61.34L355.44,60.36L355.62,58.73L355.81,60.23L356.19,58.31L356.37,58.5L356.56,60.26L356.94,58.13L357.12,58.75L357.31,58.47L357.69,35.51L358.06,55.57L358.25,55.85L359.37,54.42L359.56,54.7L359.75,54.99L360.69,53.93L360.88,54.02L361.06,54.71L362,54.47L362.19,53.94L362.56,53.45L362.75,53.18L363.88,54.1L364.06,53.62L364.81,52.55L365,196.61L365.19,54.61L365.75,103.51L365.94,120.67L366.5,124.67L366.69,110.94L366.88,238.19L367.25,93.32L367.44,93.66L367.63,229.2L368,64.22L368.19,63.08L368.38,64.74L368.94,63.83L369.13,207.66L369.32,209.1L369.5,68.27L369.88,97.12L370.25,80.78L370.44,65.61L370.82,81.77L371,96.43L371.19,100.8L371.75,98.14L371.94,95.56L372.69,97.87L372.88,94L373.25,95.54L373.63,94.66L373.82,94.19L374,93.03L374.19,109.24L374.38,125.85L374.76,94.32L374.94,93.79L376.07,89.94L376.26,89.46L376.82,89.31L377.01,73.18L377.57,55.58L377.94,55.78L378.13,55.2L379.07,54.67L379.26,55.05L379.63,54.12L379.82,53.88L380.01,54.05L380.19,53.65L380.38,53.26L380.76,53.8L380.94,53.43L381.13,53.02L381.51,51.99L381.7,52.61L381.88,53.27L382.63,52.93L382.82,196.76L383.01,196.89L383.2,53.94L383.57,75.05L383.76,88.16L384.13,93.48L384.32,253.74L384.51,269.1L384.7,125L384.88,125.4L385.07,128.23L385.26,129.44L385.45,140.75L385.63,151.32L385.82,139.92L386.01,114.81L386.2,97.34L386.57,97.86L386.76,239.25L387.13,214.03L387.32,68.19L387.7,66.75L388.07,71.2L388.26,212.77L388.45,212.88L388.63,76.67L389.01,247.43L389.39,228.22L389.57,215.77L390.51,62.19L390.7,204.68L390.89,204.62L391.07,202.27L391.82,59.4L392.01,59.63L392.2,58.57L393.14,56.78L393.32,57.43L393.51,57.59L393.7,56.17L394.64,54.16L394.82,54.31L395.57,53.33L395.76,53.83L395.95,54.25L396.51,53.71L396.7,54.45L397.26,53.59L397.45,54.2L397.64,54.66L398.58,53.66L398.76,53.8L398.95,54.06L399.14,53.62L399.33,52.92L399.7,53.07L399.89,196.81L400.08,197.35L400.26,53.11L401.01,52.03L401.2,52.63L401.39,54.26L401.58,69.18L402.51,90.26L402.7,89.89L403.45,270.27L403.64,111.6L404.77,65.25L404.95,61.88L405.14,62.3L405.33,64.95L405.7,63.41L405.89,72.02L406.45,84.14L406.64,82.58L406.83,49.78L407.02,40.71L407.2,68.96L409.08,57.01L409.27,58.96L409.45,59.13L409.64,57.92L410.39,59.93L410.58,59.65L410.77,57.19L411.33,89.28L411.52,74.15L411.71,57.29L412.27,54.84L412.46,56.73L412.64,56.36L412.83,54.55L413.02,56.64L413.39,54.91L413.58,56.55L414.33,54.52L414.52,55.99L414.71,56.45L414.89,54.94L415.08,55.1L415.27,55.52L415.64,54.71L415.83,54.8L416.39,54.57L416.58,55.81L416.77,55.89L416.96,54.63L418.27,55.22L418.46,55.57L418.83,54.03L419.02,54.59L419.21,56.33L419.4,57.69L419.58,201.92L419.77,58.67L419.96,202.47L420.33,60.27L420.52,59.27L420.71,60.48L420.9,204.17L421.08,204.07L421.27,61.66L421.46,60.24L421.83,62.1L422.02,60.9L422.21,61.06L422.4,61.57L422.58,205.2L422.77,208.81L423.15,207.94L423.33,66.29L423.52,64.91L423.71,65.33L423.9,67.82L424.08,67.93L424.27,65.49L424.46,69.38L425.02,67.18L425.21,66.74L425.4,71.9L425.96,70.3L426.15,64.31L427.09,59.71L427.27,61.61L427.46,61.29L427.65,57.93L427.84,61.13L428.21,57.97L428.4,204.31L428.59,205.87L428.77,203.64L428.96,58.61L429.71,57.39L429.9,55.55L430.09,54.4L430.65,55.06L430.84,54.85L431.77,55.51L431.96,55.36L432.71,54.36L432.9,54.79L433.09,55.2L434.78,53.52L434.96,53.78L435.53,54.36L435.71,35.41L435.9,34.65L436.09,53.91L436.65,53.8L436.84,197.44L437.21,52.57L437.59,55.97L437.78,56.07L438.15,55.78L438.34,56.77L439.47,59.61L439.65,58.33L440.22,59.48L440.4,205.13L440.59,39.73L441.15,60.63L441.34,60.01L442.47,64.25L442.65,65.75L442.84,65.12L443.03,225.42L443.22,243.09L443.4,102.3L444.15,96.06L444.34,96.2L444.53,58.39L444.72,52.94L444.9,54.6L445.09,16L446.78,16L446.97,53.3L447.53,93.65L447.72,92.2L447.91,90.4L448.47,89.66L448.66,90.48L448.84,91.1L449.03,88.12L449.22,70.72L449.78,54.6L450.16,55.24L450.34,54.61L450.91,54.08L451.09,54.45L451.28,55.09L451.47,55.39L451.66,54.96L451.84,54.53L452.22,199.34L452.41,54.98L452.59,54.52L453.53,54.68L453.72,53.61L454.1,54L454.66,52.6L454.85,197.52L455.22,53.3L455.6,54.98L455.78,55.81L455.97,56.64L456.53,56.22L456.72,56.52L457.1,201.01L457.47,57.77L457.66,57.54L458.03,36.45L458.22,59.9L458.41,59.66L459.35,60.56L459.53,61.35L459.72,60.02L459.91,62.22L460.28,60.39L460.47,62.78L460.66,63.63L461.04,62.15L461.22,74.61L461.6,97.52L462.16,94.99L462.35,94.62L462.54,94.72L462.72,93.14L463.29,95.3L463.47,238.63L463.66,237.94L463.85,94.98L464.22,92.98L464.41,84.92L464.97,58.86L465.16,63.27L465.35,73.18L465.54,213.39L465.91,56.59L466.1,57.52L466.29,57.96L466.47,55.32L466.66,54.94L466.85,55.65L467.04,59.51L467.22,58.91L467.41,55.22L467.6,55.39L467.79,35.99L467.97,35.05L468.16,54.76L468.35,54.54L468.54,56.93L468.73,58.08L468.91,55.69L469.1,54.82L469.85,55.04L470.04,54.39L470.79,54.07L470.98,54.3L471.16,54.84L472.1,53.77L472.29,35.16L472.48,34.76L472.66,53.68L472.85,53.02L473.23,53.91L473.41,55.26L473.6,200.4L474.16,55.58L474.35,55.86L474.73,57.36L474.91,57.19L475.1,200.96L475.29,202.06L475.48,58.65L475.67,59.12L475.85,203.97L476.04,204.21L476.23,59.09L476.42,58.99L476.6,64.25L476.79,186.75L477.17,16.8L477.35,16L479.04,16L479.23,42.16L479.42,67.36L479.98,63.65L480.17,61.89L480.54,58.88L481.1,59.69L481.29,59.5L481.48,59.57L481.67,203.48L481.85,204.94L482.04,204.71L482.23,59.16L482.61,60.48L482.79,58.75L482.98,57.83L483.17,57.76L483.36,37.62L483.54,36.55L483.73,56.86L485.42,54.6L485.61,55.1L485.79,55.46L485.98,54.85L486.17,54.53L487.11,55.69L487.29,55.5L487.48,55.42L487.67,55.74L487.86,55L488.04,198.71L488.61,54.04L488.98,55.03L489.17,54.39L489.92,53.97L490.11,54.11L491.05,53.3L491.23,59.21L492.55,122.04L492.73,127.11L492.92,125.85L493.11,105.05L493.86,59.01L494.05,59.77L494.23,60.92L494.42,60.1L494.61,60.66L494.8,65.32L494.98,207.84L495.36,60.72L495.55,61.28L495.73,205.56L496.11,62.66L496.3,60.26L496.67,206.75L497.05,62.56L497.24,76.72L497.8,128.78L498.17,126.42L498.36,127.9L498.55,127.83L498.74,125.37L498.92,271.4L499.3,92.37L499.49,92.1L499.67,93.79L500.05,91.33L500.24,91.48L500.42,91.6L500.61,93.02L500.8,92.86L500.99,91.19L501.55,91.54L501.74,90.79L502.49,87.26L502.67,87.52L502.86,76.87L503.99,35.23L504.18,34.87L504.36,54.04L504.93,53.95L505.11,53.86L505.49,54.58L505.68,54.37L505.86,53.67L506.61,53.9L506.8,35.6L507.74,16L507.93,16L509.43,16L509.61,53.24L510.18,267.01L510.36,123.32L510.55,123.44L510.93,126.52L511.3,126.39L511.49,270L512.43,59.44L512.62,216.13L513.55,61.69L513.74,60.93L514.87,67.73L515.05,213.71L515.24,214.7L515.43,68.42L515.62,69.28L515.8,66.52L515.99,66.19L516.18,61.68L517.68,56.85L517.87,59.08L518.05,59.12L518.24,56.8L519.37,57.3L519.56,56.66L519.93,54.85L520.12,53.66L521.06,53.85L521.24,53.51L522.74,53.24L522.93,53.68L523.68,54.03L523.87,53.36L524.06,53.01L524.99,53.79L525.18,53.44L525.37,52.56L526.12,52.23L526.31,51.47L527.25,52.71L527.43,64.58L528,252.71L528.18,109.8L528.37,108.65L528.75,109.71L528.93,111.03L529.12,113.11L529.31,257.51L530.25,86.63L530.43,75.13L530.62,63.79L530.81,76.28L531,231.19L531.18,218.72L531.37,64.66L531.56,66.25L531.75,75.64L531.93,77.76L532.12,69.86L532.31,64.39L532.5,76.41L532.68,91.85L533.06,96.94L533.25,85.03L533.62,62.6L534.19,62.99L534.37,204.58L534.56,207.42L534.75,63.22L534.94,60.7L535.31,62.3L535.5,38.93L535.69,35.91L535.87,56.94L536.06,57.32L536.44,56.62L536.62,56.66L536.81,57.28L537.37,56.84L537.56,56.94L538.5,53.3L538.69,53.79L538.87,54.06L539.25,54.6L539.44,35.67L540,16" style="vector-effect: non-scaling-stroke; fill: none; stroke: rgb(0, 191, 255); stroke-opacity: 1; stroke-width: 2px; opacity: 1;"/></g><g class="points"/><g class="text"/></g></g></g><g class="overplot"/><path class="xlines-above crisp" d="M0,0" style="fill: none;"/><path class="ylines-above crisp" d="M0,0" style="fill: none;"/><g class="overlines-above"/><g class="xaxislayer-above"><g class="xtick"><text text-anchor="middle" x="0" y="433" transform="translate(170.03,0)" style="font-family: 'Open Sans', verdana, arial, sans-serif; font-size: 12px; fill: rgb(42, 63, 95); fill-opacity: 1; white-space: pre; opacity: 1;"><tspan class="line" dy="0em" x="0" y="433">Nov 6</tspan><tspan class="line" dy="1.3em" x="0" y="433">2022</tspan></text></g><g class="xtick"><text text-anchor="middle" x="0" y="433" style="font-family: 'Open Sans', verdana, arial, sans-serif; font-size: 12px; fill: rgb(42, 63, 95); fill-opacity: 1; white-space: pre; opacity: 1;" transform="translate(296.08000000000004,0)">Nov 13</text></g><g class="xtick"><text text-anchor="middle" x="0" y="433" style="font-family: 'Open Sans', verdana, arial, sans-serif; font-size: 12px; fill: rgb(42, 63, 95); fill-opacity: 1; white-space: pre; opacity: 1;" transform="translate(422.12,0)">Nov 20</text></g><g class="xtick"><text text-anchor="middle" x="0" y="433" style="font-family: 'Open Sans', verdana, arial, sans-serif; font-size: 12px; fill: rgb(42, 63, 95); fill-opacity: 1; white-space: pre; opacity: 1;" transform="translate(548.1600000000001,0)">Nov 27</text></g></g><g class="yaxislayer-above"><g class="ytick"><text text-anchor="end" x="79" y="4.199999999999999" transform="translate(0,406.15)" style="font-family: 'Open Sans', verdana, arial, sans-serif; font-size: 12px; fill: rgb(42, 63, 95); fill-opacity: 1; white-space: pre; opacity: 1;">−100k</text></g><g class="ytick"><text text-anchor="end" x="79" y="4.199999999999999" style="font-family: 'Open Sans', verdana, arial, sans-serif; font-size: 12px; fill: rgb(42, 63, 95); fill-opacity: 1; white-space: pre; opacity: 1;" transform="translate(0,348.12)">−80k</text></g><g class="ytick"><text text-anchor="end" x="79" y="4.199999999999999" style="font-family: 'Open Sans', verdana, arial, sans-serif; font-size: 12px; fill: rgb(42, 63, 95); fill-opacity: 1; white-space: pre; opacity: 1;" transform="translate(0,290.09000000000003)">−60k</text></g><g class="ytick"><text text-anchor="end" x="79" y="4.199999999999999" style="font-family: 'Open Sans', verdana, arial, sans-serif; font-size: 12px; fill: rgb(42, 63, 95); fill-opacity: 1; white-space: pre; opacity: 1;" transform="translate(0,232.06)">−40k</text></g><g class="ytick"><text text-anchor="end" x="79" y="4.199999999999999" style="font-family: 'Open Sans', verdana, arial, sans-serif; font-size: 12px; fill: rgb(42, 63, 95); fill-opacity: 1; white-space: pre; opacity: 1;" transform="translate(0,174.03)">−20k</text></g><g class="ytick"><text text-anchor="end" x="79" y="4.199999999999999" style="font-family: 'Open Sans', verdana, arial, sans-serif; font-size: 12px; fill: rgb(42, 63, 95); fill-opacity: 1; white-space: pre; opacity: 1;" transform="translate(0,116)">0</text></g></g><g class="overaxes-above"/></g></g><g class="polarlayer"/><g class="smithlayer"/><g class="ternarylayer"/><g class="geolayer"/><g class="funnelarealayer"/><g class="pielayer"/><g class="iciclelayer"/><g class="treemaplayer"/><g class="sunburstlayer"/><g class="glimages"/><defs id="topdefs-9c9188"><g class="clips"/></defs><g class="layer-above"><g class="imagelayer"/><g class="shapelayer"/></g><g class="infolayer"><g class="g-gtitle"><text class="gtitle" x="350" y="50" text-anchor="middle" dy="0em" style="font-family: 'Open Sans', verdana, arial, sans-serif; font-size: 17px; fill: rgb(42, 63, 95); opacity: 1; font-weight: normal; white-space: pre;"><tspan class="line" dy="0em" x="350" y="50">Scenario 3</tspan><tspan class="line" dy="1.3em" x="350" y="50">Microgrid Output</tspan><tspan class="line" dy="2.6em" x="350" y="50">From: November 01, 2022 to November 30, 2022</tspan></text></g><g class="g-xtitle"><text class="xtitle" x="350" y="476.409375" text-anchor="middle" style="font-family: 'Open Sans', verdana, arial, sans-serif; font-size: 14px; fill: rgb(42, 63, 95); opacity: 1; font-weight: normal; white-space: pre;">Time</text></g><g class="g-ytitle"><text class="ytitle" transform="rotate(-90,21.168750000000003,260)" x="21.168750000000003" y="260" text-anchor="middle" style="font-family: 'Open Sans', verdana, arial, sans-serif; font-size: 14px; fill: rgb(42, 63, 95); opacity: 1; font-weight: normal; white-space: pre;">Demand (kW)</text></g></g></svg>