<svg class="main-svg" xmlns="http://www.w3.org/2000/svg" xmlns:xlink="http://www.w3.org/1999/xlink" width="700" height="500" style="" viewBox="0 0 700 500"><rect x="0" y="0" width="700" height="500" style="fill: rgb(255, 255, 255); fill-opacity: 1;"/><defs id="defs-d5e343"><g class="clips"><clipPath id="clipd5e343xyplot" class="plotclip"><rect width="540" height="320"/></clipPath><clipPath class="axesclip" id="clipd5e343x"><rect x="80" y="0" width="540" height="500"/></clipPath><clipPath class="axesclip" id="clipd5e343y"><rect x="0" y="100" width="700" height="320"/></clipPath><clipPath class="axesclip" id="clipd5e343xy"><rect x="80" y="100" width="540" height="320"/></clipPath></g><g class="gradients"/><g class="patterns"/></defs><g class="bglayer"/><g class="layer-below"><g class="imagelayer"/><g class="shapelayer"/></g><g class="cartesianlayer"><g class="subplot xy"><g class="layer-subplot"><g class="shapelayer"/><g class="imagelayer"/></g><g class="minor-gridlayer"><g class="x"/><g class="y"/></g><g class="gridlayer"><g class="x"><path class="xgrid crisp" transform="translate(132.28,0)" d="M0,100v320" style="stroke: rgb(255, 255, 255); stroke-opacity: 1; stroke-width: 1px;"/><path class="xgrid crisp" transform="translate(254.25,0)" d="M0,100v320" style="stroke: rgb(255, 255, 255); stroke-opacity: 1; stroke-width: 1px;"/><path class="xgrid crisp" transform="translate(376.23,0)" d="M0,100v320" style="stroke: rgb(255, 255, 255); stroke-opacity: 1; stroke-width: 1px;"/><path class="xgrid crisp" transform="translate(498.21,0)" d="M0,100v320" style="stroke: rgb(255, 255, 255); stroke-opacity: 1; stroke-width: 1px;"/></g><g class="y"><path class="ygrid crisp" transform="translate(0,414.43)" d="M80,0h540" style="stroke: rgb(255, 255, 255); stroke-opacity: 1; stroke-width: 1px;"/><path class="ygrid crisp" transform="translate(0,377.67)" d="M80,0h540" style="stroke: rgb(255, 255, 255); stroke-opacity: 1; stroke-width: 1px;"/><path class="ygrid crisp" transform="translate(0,340.90999999999997)" d="M80,0h540" style="stroke: rgb(255, 255, 255); stroke-opacity: 1; stroke-width: 1px;"/><path class="ygrid crisp" transform="translate(0,304.14)" d="M80,0h540" style="stroke: rgb(255, 255, 255); stroke-opacity: 1; stroke-width: 1px;"/><path class="ygrid crisp" transform="translate(0,267.38)" d="M80,0h540" style="stroke: rgb(255, 255, 255); stroke-opacity: 1; stroke-width: 1px;"/><path class="ygrid crisp" transform="translate(0,230.62)" d="M80,0h540" style="stroke: rgb(255, 255, 255); stroke-opacity: 1; stroke-width: 1px;"/><path class="ygrid crisp" transform="translate(0,193.85)" d="M80,0h540" style="stroke: rgb(255, 255, 255); stroke-opacity: 1; stroke-width: 1px;"/><path class="ygrid crisp" transform="translate(0,157.09)" d="M80,0h540" style="stroke: rgb(255, 255, 255); stroke-opacity: 1; stroke-width: 1px;"/></g></g><g class="zerolinelayer"><path class="yzl zl crisp" transform="translate(0,120.33)" d="M80,0h540" style="stroke: rgb(255, 255, 255); stroke-opacity: 1; stroke-width: 2px;"/></g><path class="xlines-below"/><path class="ylines-below"/><g class="overlines-below"/><g class="xaxislayer-below"/><g class="yaxislayer-below"/><g class="overaxes-below"/><g class="plot" transform="translate(80,100)" clip-path="url(#clipd5e343xyplot)"><g class="scatterlayer mlayer"><g class="trace scatter tracecff9d3" style="stroke-miterlimit: 2; opacity: 0.5;"><g class="fills"/><g class="errorbars"/><g class="lines"><path class="js-line" d="M0,20.33L2.54,20.33L2.72,178.96L3.27,68.33L3.63,68.59L3.81,68.33L4.9,64.98L5.08,57.8L5.45,34.54L5.81,54.82L5.99,80.14L6.35,46.68L6.53,23.51L6.72,20.66L6.9,169.86L7.08,165.01L7.26,20.81L7.44,23.83L7.81,19.82L7.99,20.99L8.17,20.5L9.44,20.44L9.62,20.47L11.07,20.37L11.25,170.55L11.8,119.32L12.16,304L12.34,303.57L12.71,115.79L13.25,116.46L13.43,116.3L13.79,118.62L14.16,116.56L14.34,116.33L14.88,116L15.07,116.48L15.25,115.07L15.79,294.98L15.97,112.54L16.15,111.58L16.34,111.9L16.52,99.4L16.88,68.12L17.43,68.87L17.61,68.37L17.79,70.3L18.15,67.5L18.33,68.1L18.51,68.65L19.97,67.19L20.15,67.7L20.33,67.98L20.51,67.05L20.69,67.12L20.87,67.64L21.24,66.64L21.42,67.06L21.6,67.24L21.96,66.38L22.14,66.75L22.33,85.55L22.51,101.05L22.87,77.1L23.05,89.32L23.23,95.27L23.42,263.43L23.78,35.93L23.96,24.64L24.32,32.97L24.5,26.08L24.69,20.04L24.87,98.21L25.05,19.62L25.41,20.13L25.59,20.62L26.68,20.4L26.86,20.6L27.77,20.43L27.95,20.36L28.5,20.42L28.68,133.73L28.86,289.71L29.04,116.83L29.22,119.57L29.41,102.43L30.31,73.49L30.49,73.71L30.68,74.09L30.86,76.17L31.04,76.31L31.22,73.68L31.58,285.02L31.95,116.98L32.13,118.84L33.58,111.85L33.76,112.34L33.94,112.92L34.31,112.02L34.49,112.56L34.67,112.44L34.85,112.25L35.03,112.75L35.21,113.04L35.58,110.94L35.76,89.63L36.67,67.37L36.85,67.56L37.03,68.03L37.39,67.06L37.57,67.6L37.75,67.72L37.94,67.05L38.3,67.99L38.48,67.53L38.66,67.58L38.84,68.04L39.03,67.72L39.21,66.86L39.39,249.4L39.93,53.45L40.11,46.89L40.84,20.23L41.02,20.24L41.2,66.5L41.38,123.25L41.57,19.01L41.75,24.25L41.93,59.55L42.11,67.94L42.29,60.51L42.47,26.9L43.02,16.29L43.38,20.37L43.56,20.23L43.74,20.62L44.29,20.36L44.47,20.34L46.65,20.4L46.83,20.31L50.28,20.33L50.46,20.33L51.91,20.32L52.09,50.36L52.46,70.12L53,69.93L53.18,69.82L54.09,67.65L54.27,67.77L54.64,67.43L54.82,68.22L55,67.97L55.18,67.93L56.09,68.26L56.27,67.76L56.99,66.36L57.18,61.37L57.36,52.59L57.54,222.87L58.45,19.45L58.63,20.05L58.99,20.52L59.17,24.15L59.35,16L59.9,20.11L60.08,20.14L60.26,20.51L60.63,20.31L60.81,24.52L61.35,16.33L61.71,20.57L61.9,20.36L63.89,20.35L64.07,20.34L67.16,20.3L67.34,62.83L67.52,70.37L68.07,70.01L68.25,69.32L68.43,68.95L68.61,71.98L68.79,72.13L68.97,69.1L69.34,69.99L69.52,69.21L69.7,68.88L69.88,69.39L70.25,68.63L70.43,71.99L70.61,72.4L70.79,69.37L71.15,69.98L71.33,69.17L71.52,68.74L72.42,69.39L72.61,69.2L72.79,68.89L72.97,71.56L73.15,71.82L73.33,68.6L73.51,68.58L73.69,69.49L74.42,67.95L74.6,72.94L74.78,87.04L74.96,83.83L75.15,55L76.05,20.36L76.24,20.65L76.42,19.85L76.96,20.67L77.14,20.24L77.32,19.53L77.87,20.68L78.05,20.62L78.23,19.74L79.32,20.76L79.5,20.36L79.87,20.6L80.05,23.53L80.41,16.4L80.77,20.48L80.95,20.32L81.14,24.4L81.32,16.38L81.68,20.34L81.86,20.31L82.04,20.32L82.23,24.36L82.77,16.3L83.13,20.32L83.31,34.89L83.68,73.18L84.22,73.11L84.4,72.55L84.77,72.26L84.95,70.11L85.67,68.05L85.86,68.5L86.04,69.05L87.67,67.82L87.85,68.21L88.03,68.24L88.22,68.09L88.4,69.05L88.58,69.2L88.76,67.59L88.94,67.04L89.12,67.83L89.3,250.7L89.49,251.32L89.67,68.71L90.57,67.46L90.76,67.17L90.94,67.73L91.12,250.24L91.3,250.72L91.48,67.87L91.66,68.71L91.85,66.78L92.03,60.4L92.39,93.73L92.93,80.22L93.12,86.02L93.3,84.87L93.48,265.96L93.66,284.47L93.84,72.43L94.39,77.04L94.75,17.36L94.93,20.2L95.48,20.48L95.66,19.66L96.02,21.11L96.56,20.3L96.75,20.33L98.92,20.39L99.11,20.33L100.56,20.33L100.74,59.68L102.01,117.01L102.19,116.05L102.55,112.29L103.1,112.97L103.28,112.94L103.83,113.48L104.01,113.98L104.37,112.17L104.55,112.38L104.73,104.23L105.46,69.02L105.64,69.3L105.82,69.87L106,69.17L106.18,250.93L106.55,252.84L106.73,68.97L106.91,68.09L107.09,250.99L107.46,67.21L108,67.45L108.18,66.9L108.91,67.61L109.09,67.35L109.27,65.17L109.82,66.29L110.18,39.5L110.36,20.94L110.54,20.43L110.72,133.03L111.09,18.57L111.81,20.61L111.99,20.01L112.72,20.94L112.9,19.57L113.26,21.46L113.81,20.61L113.99,21.16L114.72,19.38L114.9,20.51L115.44,20.52L115.62,24.46L116.17,16.38L116.53,20.35L116.71,20.3L119.25,20.33L119.44,25.25L119.62,71.64L120.34,68.65L120.52,68.84L120.71,69.14L120.89,68.38L121.07,67.05L121.98,68.44L122.16,68.16L122.34,67.99L123.25,69.45L123.43,68.47L123.61,67.47L123.97,68.28L124.15,66.77L124.34,66.14L124.7,67.46L124.88,249.31L125.43,65.36L125.79,65.43L125.97,64.86L126.51,68.51L126.7,65.27L126.88,67.04L127.06,86.15L127.24,96.1L127.42,78.69L127.6,72.1L127.97,43.73L128.15,23.09L128.33,181.53L128.87,19.28L129.06,20.26L129.78,20.28L129.96,24.33L130.51,16.33L130.87,20.28L131.05,20.36L133.77,20.34L133.96,20.11L135.05,20.33L135.23,20.33L137.22,20.32L137.41,38.93L137.59,111.43L138.31,109.87L138.49,109.69L139.4,110.45L139.58,109.68L139.95,110.5L140.13,110.24L140.31,101.25L141.22,66.4L141.4,65.46L141.58,65.15L141.76,65.88L141.94,66.26L142.85,65.36L143.03,65.15L143.21,64.65L143.39,65.35L143.58,249.02L143.76,249.09L143.94,65.47L144.3,61.75L144.48,245.68L145.39,20.21L145.57,20.21L146.66,20.27L146.84,20.1L147.03,20.21L147.21,24.33L147.93,16.23L148.11,20.3L148.3,24.18L148.66,16.42L149.2,20.38L149.38,20.44L150.29,20.51L150.47,20.4L151.74,20.32L151.93,20.32L154.83,20.33L155.01,27.53L155.19,107.92L155.92,107.19L156.1,107.48L156.46,107.28L156.65,107.63L156.83,108.03L157.92,103.97L158.1,82.39L159.01,63.69L159.19,64.34L160.09,62.92L160.28,63.31L160.46,64.03L160.82,63.47L161,246.94L161.91,49.46L162.09,41.14L162.45,20.64L162.64,161.13L162.82,147.5L163,19.37L163.36,85.05L163.72,17.19L163.91,20.26L164.99,20.3L165.18,24.33L165.54,16.29L165.9,20.35L166.08,24.44L166.45,16.35L166.99,20.4L167.17,20.49L168.26,20.43L168.44,20.46L169.53,20.34L169.71,24.36L170.44,16.28L170.62,20.34L170.8,20.33L171.53,20.32L171.71,47.3L172.07,68.53L172.44,65.16L172.62,65.4L174.07,65.85L174.25,64.83L175.89,65.39L176.07,65.09L176.79,64.54L176.97,64.68L177.16,64.9L177.52,63.74L177.7,64.25L177.88,64.96L178.25,63.53L178.43,65.15L178.61,65.4L178.79,64.47L178.97,247.42L179.15,248.19L179.33,57.19L179.7,20.51L179.88,222.45L180.06,227.18L180.24,60.25L180.61,88.88L180.79,69.24L180.97,223.8L181.69,22.9L181.88,191.7L182.06,182.15L182.24,20.56L183.15,20.21L183.33,20.06L185.69,20.4L185.87,24.41L186.23,251.42L186.41,71.32L186.59,70.08L186.78,69.59L186.96,253.01L187.14,253.39L187.32,252.6L187.5,70.33L188.59,68.46L188.77,68.76L189.14,93.55L189.32,84.89L189.5,66.32L190.41,65.09L190.59,65.04L191.13,63.48L191.31,64.16L191.5,64.69L192.4,64.17L192.58,65.1L192.77,65.59L192.95,64.71L193.13,64.4L193.49,63.45L193.67,64.23L193.86,65.42L194.76,63.9L194.94,84.69L195.13,105.7L195.49,75.2L195.67,63.33L195.85,64.38L196.03,247.18L196.22,249.43L196.4,70.82L196.76,110.74L197.3,106.63L197.49,107.09L197.85,100.12L198.03,275.85L198.39,284.74L198.57,97.97L199.85,20.22L200.03,20.24L200.39,20.05L200.57,20.28L200.75,20.75L201.48,19.76L201.84,20.38L202.02,20.26L202.21,24.46L202.57,20.7L202.75,16.7L203.29,20.46L203.66,20.33L203.84,20.32L204.02,20.33L204.2,21.8L204.38,96.35L204.93,69.98L205.11,69.73L206.2,67.21L206.38,67.23L206.56,67.32L206.74,66.22L207.29,64.04L207.65,64.78L207.83,64.74L208.92,63.56L209.1,64.71L209.28,64.64L209.47,246.45L210.19,64.07L210.37,64.75L210.55,65.26L210.92,63.27L211.46,63.75L211.64,64.78L211.83,64.64L212.01,63.26L212.37,64.21L212.55,63.82L212.73,63.32L213.64,64.53L213.82,63.61L214.18,60.5L214.37,76.1L214.55,80.51L214.73,57.42L215.64,20.63L215.82,20.2L216,20.26L216.18,88L216.36,19.4L217.09,20.29L217.27,20.29L217.63,20.32L217.82,24.36L218.36,16.36L218.72,20.4L218.9,20.41L220.54,20.46L220.72,20.45L221.99,20.33L222.17,63.7L222.53,111.53L222.9,91.26L223.08,69.81L224.35,64.42L224.53,63.12L225.44,63.13L225.62,63.98L226.71,62.18L226.89,62.4L227.07,62.34L227.62,63.59L227.8,62.9L227.98,62.45L228.89,62.17L229.07,62.62L229.25,62.71L229.43,62.21L229.61,61.86L229.98,63L230.16,61.86L230.34,61.22L231.25,64.82L231.43,64.2L231.61,61.92L231.97,75.87L232.15,52.35L232.34,29.9L232.52,186.15L232.88,19.68L233.06,20.27L233.24,24.26L233.43,89.99L233.61,18.07L233.97,20.28L234.15,20.26L234.33,24.23L234.7,16.42L234.88,20.31L235.06,20.18L236.51,20.44L236.69,20.26L237.78,20.46L237.96,20.47L240.14,20.33L240.32,24.37L241.05,16.28L241.23,20.33L241.41,20.32L242.32,20.34L242.5,48.9L242.68,62.93L243.41,61.37L243.59,61.38L243.95,61.75L244.13,63.29L244.5,65.19L244.68,64.68L244.86,62.54L246.13,60.65L246.31,61.08L247.04,64.79L247.4,63.94L247.58,62.89L249.04,54.17L249.22,64.53L249.4,59.57L249.58,237.56L249.76,247.53L249.94,234.39L250.12,209.34L250.49,20.19L250.85,42.87L251.03,108.39L251.21,18.49L251.94,20.21L252.12,20.12L252.48,20.52L252.85,20.22L253.03,24.21L253.57,16.48L253.75,24.5L253.94,20.45L254.12,20.38L254.3,16.28L254.84,20.45L255.03,20.39L255.21,20.44L255.39,38.43L255.75,134.64L256.3,110.48L256.48,110L257.02,110.1L257.2,109.05L258.66,108.92L258.84,110.37L259.02,110.73L259.2,107.16L259.93,61.16L260.29,62.1L260.47,61.9L261.02,65.77L261.2,64.05L261.38,61.74L261.92,59.95L262.1,60.52L262.29,61.51L263.01,60.98L263.19,62.31L263.56,64.35L263.74,62.08L263.92,60.02L264.83,60.45L265.01,59.99L265.19,59.91L265.37,61.72L265.55,64.14L265.73,247.52L266.28,58.55L266.64,66.49L266.82,63.42L267.91,20.13L268.09,20.54L269,20.13L269.18,24.28L269.36,16.74L269.91,20.03L270.09,20.5L270.45,19.92L270.82,20.76L271,20.53L271.18,24.38L271.54,16.43L272.09,20.26L272.27,20.33L273.18,20.42L273.36,20.41L274.45,20.32L274.63,20.33L275.72,20.33L275.9,106.21L276.26,111.96L276.63,107.64L276.81,84.05L277.71,61.13L277.9,60.83L278.44,61.89L278.62,64.08L278.8,64.6L278.98,63.69L279.17,62.36L279.53,60.39L279.89,62.29L280.07,62.14L280.62,61.06L280.8,62.79L281.16,64.86L281.34,63.37L281.53,60.83L281.71,60.58L282.07,61.03L282.25,61.62L282.62,60.54L282.8,61.31L282.98,245.31L283.16,246.98L283.34,64.75L283.89,55.58L284.07,47.25L284.43,20.14L284.61,136.62L284.79,138.43L284.97,19.37L285.88,20.53L286.06,20.18L286.97,20.09L287.15,24.75L287.52,16.45L288.06,16.71L288.24,24.23L288.79,16.27L289.15,20.53L289.33,20.27L290.24,20.41L290.42,20.41L294.23,20.32L294.41,20.33L295.32,63.33L295.5,65.45L296.41,60.83L296.77,61.47L296.95,60.66L297.86,61.95L298.04,246.22L298.77,60.16L298.95,60.65L299.13,61.33L299.5,60.24L300.04,60.52L300.22,61.24L300.95,64.54L301.13,64.45L301.31,59.44L302.04,20.18L302.22,20.19L302.4,75.37L302.58,100.79L302.76,18.01L303.31,24.29L303.49,20.28L303.67,16.23L304.4,20.3L304.58,20.29L304.76,20.3L308.21,20.34L308.39,20.33L308.75,20.33L308.93,24.37L309.3,16.29L309.84,20.33L310.02,20.34L316.92,20.33L317.1,24.37L317.28,16.27L317.47,24.37L317.65,124.81L318.55,58.02L318.74,55.97L319.1,36.66L319.28,21.54L320.19,20.25L320.37,20.21L321.82,20.3L322,24.31L322.55,16.33L322.91,20.47L323.09,20.39L330.53,20.33L330.72,56.36L330.9,63.57L331.44,60.93L331.62,60.68L331.81,60.16L331.99,60.91L332.17,61.56L332.89,60.84L333.08,61.22L333.26,61.55L333.62,60.65L333.8,62.67L333.98,64.53L334.35,61.92L334.53,60.47L334.71,60.98L334.89,60.69L335.07,243.29L335.98,59.17L336.16,52.74L336.34,40.99L336.52,206.89L336.71,195.48L336.89,20.98L337.25,20.15L337.43,20.34L337.61,99.7L337.79,148.26L337.98,42.71L338.16,40.06L338.34,20.19L338.88,20.29L339.07,24.33L339.43,16.2L339.97,20.32L340.15,20.36L348.87,20.33L349.05,47.82L349.77,61.6L349.96,61.51L350.14,60.85L350.32,60.46L350.5,60.9L350.68,61.52L351.05,63.9L351.41,61.78L351.59,60.66L351.95,60.92L352.13,60.44L352.32,60.15L352.68,245.08L353.04,60.67L353.22,60.25L353.77,56.36L353.95,45.71L354.68,20.19L354.86,20.29L355.04,20.23L355.58,20.26L355.76,24.34L356.31,16.26L356.67,20.43L356.85,20.08L357.04,24.23L357.4,20.36L357.58,16.4L358.31,20.42L358.49,20.41L358.67,20.34L360.48,20.33L360.67,20.33L369.2,20.33L369.38,57.63L370.29,63.98L370.47,63.03L371.19,38.57L371.37,24.33L371.56,202.45L371.92,20.23L372.1,20.29L372.28,90.09L372.46,19.07L373.19,20.35L373.37,20.79L373.73,19.96L374.1,20.31L374.28,20.62L375.19,20.18L375.37,20.33L375.91,20.55L376.09,24.23L376.46,16.35L377,20.33L377.18,24.43L377.55,16.2L378.09,20.33L378.27,20.37L380.09,20.33L380.27,20.33L382.27,20.33L382.45,46.39L382.63,62.87L383.35,62.07L383.54,61.76L383.72,61.39L383.9,61.8L384.08,63.3L384.44,61.54L384.99,61.97L385.17,64.12L385.35,63.68L385.53,244.31L386.44,61.7L386.62,61.49L386.8,61.23L386.98,61.74L387.17,63.24L387.53,60.26L388.07,61.08L388.26,243.66L388.44,240.76L388.62,52.11L389.34,20.17L389.71,20.23L389.89,20.2L391.16,20.25L391.34,24.29L391.7,16.3L392.25,20.43L392.43,20.36L392.61,20.59L392.79,24.19L393.16,16.13L393.7,20.49L393.88,20.53L394.25,20.35L394.43,24.48L394.79,16.39L395.33,20.36L395.52,20.35L398.96,20.33L399.15,20.33L401.51,20.33L401.69,30.8L402.59,63.72L402.78,62.42L403.32,63.44L403.5,64.29L403.87,61.77L404.23,62.64L404.41,63.87L404.59,63.7L404.77,62.09L405.32,63.11L405.5,64.37L405.68,63.87L405.86,242.49L406.77,20.19L406.95,20.18L410.22,20.37L410.4,24.4L410.76,16.37L411.31,20.42L411.49,20.46L415.3,20.35L415.48,20.31L422.38,20.34L422.56,20.34L424.01,20.15L424.19,24.21L424.56,16.11L425.1,20.27L425.28,20.18L426.01,20.29L426.19,24.28L426.55,16.24L427.1,20.33L427.28,20.31L427.46,24.39L427.83,16.34L428.01,20.38L428.19,20.4L431.09,20.34L431.27,20.31L434.9,20.33L435.09,20.33L439.81,20.34L439.99,57.59L440.17,62.53L440.53,59.26L440.71,53.29L441.62,20.22L441.8,20.23L441.98,20.3L442.16,24.22L442.35,16.33L442.71,20.33L442.89,20.53L443.25,20.06L443.44,20.43L443.62,24.18L443.8,16.39L444.34,20.25L444.52,20.68L445.98,20.25L446.16,20.55L447.07,20.35L447.25,20.44L449.24,20.3L449.43,20.33L450.15,20.34L450.33,24.37L451.6,246.52L451.78,63.69L451.97,62.27L452.51,62.98L452.69,62.66L452.87,62.85L453.06,62.65L453.24,62.12L453.96,62.67L454.14,65.04L454.33,65.07L454.51,62.81L455.05,62.07L455.23,62.62L455.42,62.87L455.6,62.34L455.78,244.43L456.5,61.33L456.69,61.99L456.87,62.3L457.23,61.44L457.41,63.13L457.59,63.1L457.77,61.38L457.96,244.62L458.32,51.18L458.5,39.4L459.05,20.18L459.41,20.2L459.59,20.3L459.77,20.24L459.95,24.26L460.13,20.19L460.32,43.78L460.5,107.66L460.68,18.33L460.86,20.44L461.04,20.5L461.95,20.26L462.13,20.38L462.49,20.5L462.68,24.33L463.22,16.46L463.58,20.19L463.76,20.5L465.58,20.34L465.76,46.51L466.31,251.68L466.49,67.49L466.67,65.64L467.21,67.77L467.39,67.41L467.58,66.22L467.76,66.45L467.94,65.94L468.12,65.08L469.03,62.75L469.21,62.75L469.57,63.67L469.75,62.99L469.94,62.55L470.3,65.35L470.66,62.62L470.84,63.32L471.57,63.73L471.75,63.35L471.93,63.11L472.3,64.48L472.48,63.83L472.66,62.32L472.84,245.01L473.38,62.73L473.57,62.69L473.93,63.55L474.29,62.66L474.47,62.99L474.66,63.15L474.84,62.89L475.02,62.37L475.38,64.81L475.56,59.56L476.47,20.25L476.83,20.36L477.02,20.05L477.2,20.31L477.38,24.3L477.56,16.47L478.1,20.3L478.29,20.25L479.19,20.39L479.37,21.3L479.56,19.2L480.1,19.6L480.28,20.33L480.46,21.08L480.83,19.95L481.01,20.01L481.73,20.6L481.92,20.4L482.1,20.33L482.28,24.47L482.64,20.31L482.82,16.29L483.73,20.29L483.91,20.33L488.09,20.34L488.27,44.47L488.63,63.08L488.81,62.79L488.99,245.97L489.18,247.59L489.36,247.23L489.54,63.51L489.9,63.43L490.08,61.54L490.63,61.09L490.81,61.23L490.99,61.78L491.35,63.32L491.72,61.78L491.9,61.37L492.08,60.85L492.26,61.59L492.44,62.93L492.81,61.49L492.99,63.36L493.17,64.14L493.71,43.35L494.08,51.16L494.26,57.32L494.8,20.19L495.35,20.38L495.53,20.26L496.98,20.14L497.16,20.14L497.34,20.81L497.53,24.43L497.71,16.09L497.89,20.38L498.07,109.1L498.25,238.36L498.62,73.25L498.8,77.05L498.98,80.11L499.16,251.78L499.52,272.08L499.7,77.94L500.25,255.01L500.43,69.78L500.61,67.73L500.97,66.14L501.34,66.89L501.52,67.97L502.97,64.48L503.15,63.29L503.7,246.65L503.88,64.53L504.06,62.28L504.97,62.64L505.15,63.12L505.33,62.22L505.51,62.73L505.69,64.57L506.06,62.2L506.24,63.16L506.42,63.82L507.51,62.27L507.69,62.53L508.05,61.18L508.42,62.18L508.6,64.28L509.14,61.66L509.32,61.99L509.51,62.7L510.41,61.37L510.59,235.62L511.32,28.17L511.5,37.32L511.68,50.88L511.87,48.15L512.05,226.8L512.23,218.48L512.41,25.82L512.77,20.19L513.32,20.43L513.5,20.36L514.59,20.47L514.77,43.08L514.95,42.55L515.13,35.23L515.68,20.29L516.04,20.32L516.22,172.4L516.4,215.19L516.58,44.2L517.67,69.26L518.04,67.1L518.22,67.31L518.58,66.41L518.76,67.56L518.94,71.32L519.85,66.35L520.03,66.62L520.22,67.31L520.76,62.91L521.3,63.84L521.49,63.69L522.39,62.04L522.57,62.69L522.94,64.02L523.3,62.97L523.48,63.2L524.39,62.19L524.57,63.35L524.75,64.22L524.93,62.95L525.12,62.3L525.3,62.58L525.48,62.1L525.66,61.44L526.39,62.63L526.57,64.15L526.75,64.82L527.11,63.99L527.29,63.72L527.48,63.36L527.66,64.46L527.84,61.31L528.75,25.76L528.93,36.51L529.11,61.45L529.29,70.66L529.47,62.75L529.65,45.16L530.38,228.58L530.56,209.94L530.74,20.93L530.92,20.41L531.11,41.13L532.19,226.64L532.38,34.73L532.74,20.18L533.28,20.55L533.47,23.61L533.83,37.03L534.01,235.83L534.19,240.7L534.37,59.73L534.92,71.7L535.28,69.33L535.46,68.71L536.37,67.46L536.55,68.69L536.73,71.43L537.1,67.85L537.28,68.18L538.37,63.23L538.55,64.37L538.73,65.73L539.27,62.72L539.64,63.4L539.82,63.68L540,64.39" style="vector-effect: non-scaling-stroke; fill: none; stroke: rgb(0, 191, 255); stroke-opacity: 1; stroke-width: 2px; opacity: 1;"/></g><g class="points"/><g class="text"/></g></g></g><g class="overplot"/><path class="xlines-above crisp" d="M0,0" style="fill: none;"/><path class="ylines-above crisp" d="M0,0" style="fill: none;"/><g class="overlines-above"/><g class="xaxislayer-above"><g class="xtick"><text text-anchor="middle" x="0" y="433" transform="translate(132.28,0)" style="font-family: sans-serif; font-size: 12px; fill: rgb(42, 63, 95); fill-opacity: 1; white-space: pre; opacity: 1;"><tspan class="line" dy="0em" x="0" y="433">Dec 4</tspan><tspan class="line" dy="1.3em" x="0" y="433">2022</tspan></text></g><g class="xtick"><text text-anchor="middle" x="0" y="433" style="font-family: sans-serif; font-size: 12px; fill: rgb(42, 63, 95); fill-opacity: 1; white-space: pre; opacity: 1;" transform="translate(254.25,0)">Dec 11</text></g><g class="xtick"><text text-anchor="middle" x="0" y="433" style="font-family: sans-serif; font-size: 12px; fill: rgb(42, 63, 95); fill-opacity: 1; white-space: pre; opacity: 1;" transform="translate(376.23,0)">Dec 18</text></g><g class="xtick"><text text-anchor="middle" x="0" y="433" style="font-family: sans-serif; font-size: 12px; fill: rgb(42, 63, 95); fill-opacity: 1; white-space: pre; opacity: 1;" transform="translate(498.21,0)">Dec 25</text></g></g><g class="yaxislayer-above"><g class="ytick"><text text-anchor="end" x="79" y="4.199999999999999" transform="translate(0,414.43)" style="font-family: sans-serif; font-size: 12px; fill: rgb(42, 63, 95); fill-opacity: 1; white-space: pre; opacity: 1;">−80k</text></g><g class="ytick"><text text-anchor="end" x="79" y="4.199999999999999" style="font-family: sans-serif; font-size: 12px; fill: rgb(42, 63, 95); fill-opacity: 1; white-space: pre; opacity: 1;" transform="translate(0,377.67)">−70k</text></g><g class="ytick"><text text-anchor="end" x="79" y="4.199999999999999" style="font-family: sans-serif; font-size: 12px; fill: rgb(42, 63, 95); fill-opacity: 1; white-space: pre; opacity: 1;" transform="translate(0,340.90999999999997)">−60k</text></g><g class="ytick"><text text-anchor="end" x="79" y="4.199999999999999" style="font-family: sans-serif; font-size: 12px; fill: rgb(42, 63, 95); fill-opacity: 1; white-space: pre; opacity: 1;" transform="translate(0,304.14)">−50k</text></g><g class="ytick"><text text-anchor="end" x="79" y="4.199999999999999" style="font-family: sans-serif; font-size: 12px; fill: rgb(42, 63, 95); fill-opacity: 1; white-space: pre; opacity: 1;" transform="translate(0,267.38)">−40k</text></g><g class="ytick"><text text-anchor="end" x="79" y="4.199999999999999" style="font-family: sans-serif; font-size: 12px; fill: rgb(42, 63, 95); fill-opacity: 1; white-space: pre; opacity: 1;" transform="translate(0,230.62)">−30k</text></g><g class="ytick"><text text-anchor="end" x="79" y="4.199999999999999" style="font-family: sans-serif; font-size: 12px; fill: rgb(42, 63, 95); fill-opacity: 1; white-space: pre; opacity: 1;" transform="translate(0,193.85)">−20k</text></g><g class="ytick"><text text-anchor="end" x="79" y="4.199999999999999" style="font-family: sans-serif; font-size: 12px; fill: rgb(42, 63, 95); fill-opacity: 1; white-space: pre; opacity: 1;" transform="translate(0,157.09)">−10k</text></g><g class="ytick"><text text-anchor="end" x="79" y="4.199999999999999" style="font-family: sans-serif; font-size: 12px; fill: rgb(42, 63, 95); fill-opacity: 1; white-space: pre; opacity: 1;" transform="translate(0,120.33)">0</text></g></g><g class="overaxes-above"/></g></g><g class="polarlayer"/><g class="smithlayer"/><g class="ternarylayer"/><g class="geolayer"/><g class="funnelarealayer"/><g class="pielayer"/><g class="iciclelayer"/><g class="treemaplayer"/><g class="sunburstlayer"/><g class="glimages"/><defs id="topdefs-d5e343"><g class="clips"/></defs><g class="layer-above"><g class="imagelayer"/><g class="shapelayer"/></g><g class="infolayer"><g class="g-gtitle"><text class="gtitle" x="350" y="50" text-anchor="middle" dy="0em" style="font-family: sans-serif; font-size: 17px; fill: rgb(42, 63, 95); opacity: 1; font-weight: normal; white-space: pre;"><tspan class="line" dy="0em" x="350" y="50"><tspan style="font-weight:bold">Scenario 8</tspan></tspan><tspan class="line" dy="1.3em" x="350" y="50"><tspan style="font-weight:bold">Microgrid Output</tspan></tspan><tspan class="line" dy="2.6em" x="350" y="50"><tspan style="font-weight:bold">From: December 01, 2022 to December 31, 2022</tspan></tspan></text></g><g class="g-xtitle"><text class="xtitle" x="350" y="476.409375" text-anchor="middle" style="font-family: sans-serif; font-size: 14px; fill: rgb(42, 63, 95); opacity: 1; font-weight: normal; white-space: pre;"><tspan style="font-weight:bold">Time</tspan></text></g><g class="g-ytitle"><text class="ytitle" transform="rotate(-90,27.840625000000003,260)" x="27.840625000000003" y="260" text-anchor="middle" style="font-family: sans-serif; font-size: 14px; fill: rgb(42, 63, 95); opacity: 1; font-weight: normal; white-space: pre;"><tspan style="font-weight:bold">Demand (kW)</tspan></text></g></g></svg>