<svg class="main-svg" xmlns="http://www.w3.org/2000/svg" xmlns:xlink="http://www.w3.org/1999/xlink" width="700" height="500" style="" viewBox="0 0 700 500"><rect x="0" y="0" width="700" height="500" style="fill: rgb(255, 255, 255); fill-opacity: 1;"/><defs id="defs-40931d"><g class="clips"><clipPath id="clip40931dxyplot" class="plotclip"><rect width="540" height="320"/></clipPath><clipPath class="axesclip" id="clip40931dx"><rect x="80" y="0" width="540" height="500"/></clipPath><clipPath class="axesclip" id="clip40931dy"><rect x="0" y="100" width="700" height="320"/></clipPath><clipPath class="axesclip" id="clip40931dxy"><rect x="80" y="100" width="540" height="320"/></clipPath></g><g class="gradients"/><g class="patterns"/></defs><g class="bglayer"/><g class="layer-below"><g class="imagelayer"/><g class="shapelayer"/></g><g class="cartesianlayer"><g class="subplot xy"><g class="layer-subplot"><g class="shapelayer"/><g class="imagelayer"/></g><g class="minor-gridlayer"><g class="x"/><g class="y"/></g><g class="gridlayer"><g class="x"><path class="xgrid crisp" transform="translate(132.28,0)" d="M0,100v320" style="stroke: rgb(255, 255, 255); stroke-opacity: 1; stroke-width: 1px;"/><path class="xgrid crisp" transform="translate(254.25,0)" d="M0,100v320" style="stroke: rgb(255, 255, 255); stroke-opacity: 1; stroke-width: 1px;"/><path class="xgrid crisp" transform="translate(376.23,0)" d="M0,100v320" style="stroke: rgb(255, 255, 255); stroke-opacity: 1; stroke-width: 1px;"/><path class="xgrid crisp" transform="translate(498.21,0)" d="M0,100v320" style="stroke: rgb(255, 255, 255); stroke-opacity: 1; stroke-width: 1px;"/></g><g class="y"><path class="ygrid crisp" transform="translate(0,414.44)" d="M80,0h540" style="stroke: rgb(255, 255, 255); stroke-opacity: 1; stroke-width: 1px;"/><path class="ygrid crisp" transform="translate(0,377.66)" d="M80,0h540" style="stroke: rgb(255, 255, 255); stroke-opacity: 1; stroke-width: 1px;"/><path class="ygrid crisp" transform="translate(0,340.89)" d="M80,0h540" style="stroke: rgb(255, 255, 255); stroke-opacity: 1; stroke-width: 1px;"/><path class="ygrid crisp" transform="translate(0,304.12)" d="M80,0h540" style="stroke: rgb(255, 255, 255); stroke-opacity: 1; stroke-width: 1px;"/><path class="ygrid crisp" transform="translate(0,267.34000000000003)" d="M80,0h540" style="stroke: rgb(255, 255, 255); stroke-opacity: 1; stroke-width: 1px;"/><path class="ygrid crisp" transform="translate(0,230.57)" d="M80,0h540" style="stroke: rgb(255, 255, 255); stroke-opacity: 1; stroke-width: 1px;"/><path class="ygrid crisp" transform="translate(0,193.8)" d="M80,0h540" style="stroke: rgb(255, 255, 255); stroke-opacity: 1; stroke-width: 1px;"/><path class="ygrid crisp" transform="translate(0,157.03)" d="M80,0h540" style="stroke: rgb(255, 255, 255); stroke-opacity: 1; stroke-width: 1px;"/></g></g><g class="zerolinelayer"><path class="yzl zl crisp" transform="translate(0,120.25)" d="M80,0h540" style="stroke: rgb(255, 255, 255); stroke-opacity: 1; stroke-width: 2px;"/></g><path class="xlines-below"/><path class="ylines-below"/><g class="overlines-below"/><g class="xaxislayer-below"/><g class="yaxislayer-below"/><g class="overaxes-below"/><g class="plot" transform="translate(80,100)" clip-path="url(#clip40931dxyplot)"><g class="scatterlayer mlayer"><g class="trace scatter tracef5ac90" style="stroke-miterlimit: 2; opacity: 0.5;"><g class="fills"/><g class="errorbars"/><g class="lines"><path class="js-line" d="M0,20.25L2.54,20.26L2.72,24.3L2.9,17.01L3.09,68.63L4.9,64.92L5.08,57.74L5.45,34.47L5.81,54.76L5.99,80.08L6.35,46.61L6.53,23.44L6.72,20.58L6.9,167.68L7.81,19.74L7.99,20.92L9.08,20.03L9.26,20.26L10.71,20.49L10.89,20.28L11.07,20.3L11.25,147.03L11.62,115.45L12.16,304L12.34,120.71L12.71,115.74L13.25,116.42L13.43,116.25L13.79,118.58L14.16,116.51L14.34,116.28L14.88,115.95L15.07,116.44L15.25,115.02L15.79,294.98L15.97,112.49L16.15,111.53L16.34,111.85L16.52,99.35L16.88,68.06L17.43,68.81L17.61,68.31L17.79,70.24L18.15,67.44L18.33,68.04L18.51,68.59L19.97,67.13L20.15,67.64L20.33,67.92L20.51,66.99L20.69,67.06L20.87,67.58L21.24,66.58L21.42,67L21.6,67.18L21.96,66.32L22.14,66.69L22.33,85.49L22.51,101L22.87,77.04L23.05,89.27L23.23,95.22L24.69,19.97L24.87,100.66L25.05,19.54L25.77,20.38L25.96,20.21L28.13,20.27L28.32,20.3L28.5,20.34L28.68,133.69L29.77,74.16L29.95,75.3L30.13,75.99L30.31,73.43L30.68,74.03L30.86,76.11L31.04,76.25L31.22,73.62L31.58,285.02L31.95,116.93L32.13,118.79L33.58,111.79L33.76,112.29L33.94,112.87L34.31,111.97L34.49,112.51L34.67,112.39L34.85,112.2L35.03,112.7L35.21,112.99L35.58,110.89L35.76,89.58L36.67,67.31L36.85,67.5L37.03,67.96L37.39,67L37.57,67.53L37.75,67.66L37.94,66.98L38.3,67.92L38.48,67.47L38.66,67.52L38.84,67.98L39.03,67.66L39.21,66.79L39.57,249.79L39.93,53.38L40.11,46.82L40.84,20.15L41.02,20.16L41.2,66.44L41.38,123.2L41.57,18.94L41.75,24.18L41.93,58.96L42.11,67.88L42.29,60.45L42.47,26.83L43.02,16.22L43.38,20.29L43.56,20.16L43.74,20.55L44.29,20.28L44.47,20.26L46.47,20.35L46.65,20.33L48.28,20.25L48.46,20.28L51.37,20.25L51.55,20.25L51.91,20.25L52.09,50.83L52.46,70.06L53,69.87L53.18,69.76L54.09,67.59L54.27,67.71L54.64,67.37L54.82,68.16L55,67.9L55.18,67.87L56.09,68.2L56.27,67.7L56.99,66.29L57.18,61.31L57.36,52.52L57.54,222.84L58.08,20.02L58.27,49.25L58.45,146.99L59.35,19.97L59.54,16.56L60.26,20.43L60.44,20.22L60.63,20.23L60.81,24.45L61.17,20.13L61.35,16.25L61.71,20.49L62.26,20.34L62.44,20.24L63.89,20.28L64.07,20.27L66.62,20.26L66.8,63.96L66.98,76.11L67.52,70.31L67.7,69.17L68.07,69.94L68.25,69.26L68.43,68.89L68.79,72.07L69.16,69.63L69.34,69.93L70.25,68.57L70.43,71.93L70.61,72.34L70.79,69.31L71.15,69.92L71.33,69.11L71.52,68.68L72.42,69.33L72.61,69.13L72.79,68.82L72.97,71.5L73.15,71.76L73.33,68.54L73.51,68.52L73.69,69.43L74.42,67.89L74.6,72.87L74.78,86.98L74.96,83.77L75.15,54.94L75.33,40.16L75.51,45.63L75.69,221.73L76.42,19.78L76.6,19.91L76.78,20.43L76.96,20.59L77.14,20.17L77.32,19.46L77.87,20.61L78.05,20.55L78.23,19.66L79.32,20.69L79.5,20.29L79.87,20.53L80.05,23.46L80.41,16.32L80.77,20.41L80.95,20.24L81.14,24.33L81.32,16.31L81.68,20.27L81.86,20.23L82.04,20.25L82.23,24.28L82.77,16.22L83.13,20.25L83.31,34.82L83.68,73.12L84.22,73.05L84.4,72.49L84.77,72.2L84.95,70.05L85.67,67.99L85.86,68.44L86.04,68.98L87.67,67.75L87.85,68.15L88.03,68.18L88.22,68.03L88.4,68.99L88.58,69.14L88.76,67.53L88.94,66.97L89.12,67.77L89.3,250.68L90.03,67.6L90.21,67.88L90.39,67.89L90.76,67.11L90.94,67.67L91.12,250.22L92.03,60.34L92.21,73.42L92.39,93.68L92.93,80.16L93.12,85.96L93.3,84.81L93.48,265.95L94.21,20.3L94.39,76.98L94.57,49.06L94.75,17.28L95.48,20.41L95.66,19.58L96.02,21.03L96.56,20.22L96.75,20.25L98.92,20.32L99.11,20.26L100.56,20.25L100.74,59.61L102.01,116.96L102.19,116L102.55,112.24L103.1,112.92L103.28,112.89L103.83,113.43L104.01,113.93L104.37,112.12L104.55,112.33L104.73,104.18L105.46,68.96L105.64,69.23L105.82,69.81L106,69.11L106.18,250.92L106.55,252.83L106.73,68.91L106.91,68.03L107.09,250.98L107.27,251.38L107.46,68.16L107.82,68.46L108,67.39L108.18,66.84L108.73,67.05L108.91,67.55L109.09,67.29L109.27,65.11L109.82,66.22L110.18,39.43L110.36,20.87L110.54,20.36L110.72,132.99L111.09,18.49L111.81,20.54L111.99,19.93L112.72,20.86L112.9,19.5L113.26,21.39L113.81,20.53L113.99,21.08L114.72,19.3L114.9,20.43L115.44,20.44L115.62,24.39L115.99,16.22L116.53,20.27L116.71,20.22L119.98,20.26L120.16,38.68L120.71,69.08L121.07,66.99L121.25,67.39L121.98,68.38L122.16,68.1L122.34,67.93L123.25,69.39L123.43,68.41L123.61,67.41L123.97,68.22L124.15,66.71L124.34,66.08L124.7,67.39L124.88,249.29L125.06,249.96L125.24,66.91L125.97,64.8L126.15,65.43L126.33,68.07L126.51,68.45L126.7,65.21L126.88,66.98L127.06,86.09L127.24,96.05L127.42,78.63L127.6,72.04L127.97,43.67L128.15,23.02L128.33,181.5L128.69,19.75L128.87,20.17L129.06,20.19L129.78,20.2L129.96,24.26L130.51,16.25L130.87,20.21L131.05,20.28L133.77,20.26L133.96,20.04L135.05,20.26L135.23,20.26L137.41,20.26L137.59,88.77L137.95,110.88L138.49,109.64L138.68,110.22L139.22,110.08L139.4,110.4L139.58,109.63L140.13,110.19L140.31,101.19L141.22,66.34L141.4,65.4L141.58,65.08L141.76,65.82L141.94,66.2L142.85,65.29L143.03,65.09L143.21,64.59L143.39,65.29L143.58,249L144.3,61.69L144.48,245.66L145.39,20.14L145.57,20.13L146.84,20.03L147.03,20.13L147.21,24.25L147.75,20.18L147.93,16.15L148.3,24.11L148.66,20.39L148.84,16.31L149.57,20.54L149.75,20.4L149.93,20.39L152.11,20.26L152.29,20.25L154.65,20.25L154.83,61.38L155.01,108.07L155.74,106.67L155.92,107.14L156.83,107.98L157.01,106.91L157.55,106.42L157.73,106.99L157.92,103.91L158.46,64.22L158.82,66.14L159.01,63.63L159.19,64.27L159.55,63.3L159.73,63.56L159.91,63.58L160.09,62.85L160.46,63.97L160.64,63.56L160.82,63.41L161,246.93L161.55,63.02L161.73,58.41L162.45,20.57L162.64,161.09L162.82,147.46L163,19.3L163.36,85L163.72,17.11L163.91,20.19L164.99,20.22L165.18,24.26L165.36,16.19L165.9,20.27L166.08,24.36L166.45,16.27L166.99,20.32L167.17,20.42L168.26,20.35L168.44,20.38L169.53,20.26L169.71,24.29L170.26,16.22L170.62,20.26L170.8,20.25L172.8,20.26L172.98,65.13L173.89,65.87L174.07,65.79L174.98,64.82L175.16,65.43L175.89,65.33L176.07,65.02L176.79,64.48L176.97,64.62L177.16,64.84L177.52,63.68L177.7,64.18L177.88,64.9L178.25,63.47L178.43,65.09L178.61,65.33L178.79,64.4L178.97,247.41L179.7,20.44L179.88,222.43L180.06,44.31L180.61,88.83L180.79,69.18L180.97,223.78L181.15,27.84L181.51,201.72L181.69,22.82L181.88,191.67L182.24,20.48L182.42,20.57L182.6,19.97L182.96,20.48L183.33,19.99L183.51,20.03L184.6,20.36L184.78,20.25L185.69,20.32L185.87,24.34L186.23,251.41L186.41,71.26L186.59,70.02L186.78,69.52L186.96,253L187.14,253.38L187.32,252.59L187.5,70.26L188.59,68.4L188.77,68.7L189.14,93.5L189.32,84.84L189.5,66.26L190.41,65.03L190.59,64.98L191.13,63.42L191.31,64.1L191.5,64.63L192.4,64.11L192.58,65.04L192.77,65.53L192.95,64.65L193.13,64.34L193.49,63.38L193.67,64.17L193.86,65.35L194.76,63.84L194.94,84.63L195.13,105.65L195.49,75.14L195.67,63.27L195.85,64.31L196.03,247.16L196.22,249.42L196.4,70.76L196.76,110.69L197.3,106.58L197.49,107.04L197.85,100.07L198.03,275.84L198.21,277.31L198.39,101.89L198.76,74.71L198.94,56.98L199.85,20.15L200.03,20.17L200.21,19.97L201.3,20.16L201.48,19.69L201.66,20.42L202.02,20.19L202.21,24.38L202.93,16.29L203.11,20.26L203.29,20.39L203.84,20.25L204.02,110.4L204.2,111.54L204.38,96.3L205.29,68.76L205.47,67.93L207.29,63.97L207.65,64.71L207.83,64.67L208.92,63.5L209.1,64.65L209.28,64.58L209.47,246.44L209.65,247.59L209.83,65.33L210.19,64.01L210.74,64.24L210.92,63.21L211.64,64.72L211.83,64.58L212.01,63.2L212.37,64.15L212.55,63.76L212.73,63.26L213.64,64.47L213.82,63.55L214.18,60.43L214.37,76.04L214.55,80.45L214.73,57.36L215.64,20.55L215.82,20.13L216,20.18L216.18,87.94L216.36,131.21L216.54,19.09L216.73,20.11L217.63,20.25L217.82,24.29L218.54,16.32L218.72,20.33L218.9,20.34L220.54,20.39L220.72,20.37L221.63,20.13L221.81,52.29L222.53,111.48L222.72,111.03L222.9,91.21L223.44,66.82L223.81,67.6L223.99,67.14L224.71,62.9L225.26,63.21L225.44,63.07L225.62,63.92L225.98,62.57L226.16,62.49L227.25,62.6L227.44,63.33L227.62,63.53L227.8,62.84L227.98,62.39L228.89,62.1L229.07,62.55L229.25,62.65L229.43,62.14L229.61,61.79L229.98,62.94L230.16,61.8L230.34,61.15L231.25,64.76L231.43,64.14L231.61,61.85L231.97,75.81L232.15,52.29L232.34,29.83L232.52,186.12L232.88,20.17L233.06,20.19L233.24,24.18L233.43,16.13L233.97,20.21L234.15,20.19L234.33,24.16L234.51,20.15L234.7,20.39L234.88,16.19L235.78,20.31L235.97,20.21L237.06,20.52L237.24,20.38L240.14,20.26L240.32,24.3L240.69,16.22L241.23,20.26L241.41,20.25L243.77,20.25L243.95,31.97L244.5,65.13L244.86,62.48L245.04,61.99L245.22,62.49L245.41,61.21L245.59,61.16L246.13,60.58L246.49,61.86L246.68,61.29L247.04,64.73L247.4,63.88L247.58,62.83L249.04,54.1L249.22,64.47L249.4,59.51L249.58,237.54L250.49,20.31L250.67,20.15L251.03,108.34L251.21,99.63L251.39,18.26L252.3,20.34L252.48,20.44L252.85,20.15L253.03,24.13L253.57,16.41L253.75,24.43L253.94,20.37L254.12,20.31L254.3,139.08L254.66,20.3L254.84,26.83L255.03,47.7L255.75,134.6L256.11,120.56L256.3,110.43L257.38,108.95L257.57,109.05L257.75,108.88L258.47,109.35L258.66,108.87L259.02,110.68L259.2,107.1L259.93,61.1L260.29,62.03L260.47,61.83L261.02,65.71L261.2,63.98L261.38,61.68L261.92,59.88L262.1,60.46L262.29,61.44L263.01,60.92L263.19,62.24L263.56,64.29L263.74,62.02L263.92,59.95L264.83,60.38L265.01,59.93L265.19,59.85L265.37,61.66L265.55,64.08L265.73,247.51L265.92,248.17L266.1,63.34L266.64,66.43L267.01,46.27L267.19,48.57L267.37,52.72L268.28,19.94L268.46,20.1L268.64,20.22L269,20.06L269.18,24.21L269.36,16.66L269.91,19.96L270.09,20.43L270.45,19.85L270.82,20.69L271,20.46L271.18,24.31L271.72,16.3L272.09,20.19L272.27,20.25L273.18,20.35L273.36,20.34L274.45,20.25L274.63,20.26L275.35,20.25L275.54,96.13L276.26,111.91L276.44,110.44L276.63,107.59L277.71,61.06L277.9,60.77L278.44,61.83L278.62,64.02L278.8,64.54L278.98,63.63L279.17,62.3L279.53,60.33L279.89,62.23L280.07,62.08L280.62,61L280.8,62.72L281.16,64.79L281.34,63.31L281.53,60.76L281.71,60.51L282.07,60.97L282.25,61.56L282.62,60.47L282.8,61.24L282.98,245.3L283.16,246.97L283.34,64.69L283.89,55.52L284.07,47.18L284.43,20.07L284.61,135.04L284.79,138.39L284.97,19.3L285.88,20.46L286.06,20.1L286.97,20.01L287.15,24.68L288.06,16.63L288.24,24.16L288.79,16.2L289.15,20.46L289.33,20.2L290.24,20.33L290.42,20.34L293.51,20.26L293.69,20.25L293.87,24.21L294.05,62.17L294.41,60.94L294.96,61.47L295.14,61.15L295.5,65.39L295.87,62.46L296.05,61.25L296.95,60.59L297.14,60.95L297.32,61.28L297.5,60.95L297.68,61.09L297.86,61.89L298.04,246.21L298.59,61.21L298.77,60.09L299.13,61.27L299.68,60.71L299.86,60.62L300.04,60.45L300.22,61.17L300.4,61.59L300.95,64.48L301.13,64.38L301.31,59.37L302.04,20.1L302.22,20.11L302.4,75.31L302.58,100.73L302.76,17.94L303.31,24.22L303.49,20.2L303.67,16.16L304.58,20.22L304.76,20.22L307.85,20.36L308.03,20.34L308.75,20.25L308.93,24.3L309.3,16.21L309.84,20.26L310.02,20.26L316.92,20.26L317.1,24.29L317.28,20.24L317.47,85.77L317.65,244.47L317.83,61.46L318.19,62.77L318.37,60L318.92,51.25L319.1,36.59L319.64,20.11L320.01,20.27L320.19,20.18L321.82,20.23L322,24.24L322.55,16.25L322.91,20.4L323.09,20.32L330.53,20.26L330.72,55.34L330.9,63.5L331.44,60.87L331.62,60.62L331.81,60.09L331.99,60.85L332.17,61.5L332.89,60.78L333.08,61.16L333.26,61.48L333.44,61.01L333.62,60.58L333.98,64.47L334.35,61.86L334.53,60.4L334.71,60.92L334.89,60.62L335.07,243.27L335.98,59.1L336.16,52.67L336.34,40.92L336.52,206.86L336.89,190.71L337.07,20.93L337.25,20.07L337.43,20.26L337.61,108.64L337.79,148.22L337.98,42.64L338.16,39.99L338.34,20.12L338.88,20.21L339.07,24.26L339.61,16.12L339.97,20.24L340.15,20.29L346.87,20.24L347.05,20.25L348.14,20.26L348.32,23.37L348.5,62.79L349.23,61.44L349.41,61.17L350.32,60.4L350.5,60.84L350.68,61.46L351.05,63.84L351.41,61.72L351.59,60.59L351.95,60.85L352.13,60.38L352.32,60.08L352.68,245.06L353.04,60.6L353.22,60.18L353.77,56.3L353.95,45.64L354.68,20.11L354.86,20.21L355.04,20.15L355.58,20.18L355.76,24.26L356.13,16.14L356.67,20.36L356.85,20.01L357.04,24.16L357.4,20.29L357.58,16.33L358.31,20.34L358.49,20.33L358.67,20.26L360.48,20.25L360.67,20.25L367.2,20.25L367.38,20.24L369.74,20.25L369.92,57.73L370.29,63.92L370.65,59.73L370.83,56.32L371.37,24.25L371.56,202.42L372.46,19L372.65,20.22L373.19,20.28L373.37,20.72L373.73,19.88L374.1,20.24L374.28,20.55L375.19,20.1L375.37,20.26L375.91,20.48L376.09,24.16L376.28,16.24L376.82,20.48L377,20.26L377.18,24.36L377.55,16.13L377.73,20.25L377.91,20.29L382.63,20.24L382.81,20.26L382.99,20.25L383.17,61.17L384.08,63.24L384.26,62.49L384.44,61.48L384.99,61.9L385.17,64.06L385.35,63.61L385.53,244.29L386.44,61.64L386.62,61.43L386.8,61.17L386.98,61.68L387.17,63.17L387.53,60.19L388.07,61.02L388.26,243.64L388.44,240.75L388.62,52.04L389.34,20.1L389.71,20.15L389.89,20.12L391.16,20.18L391.34,24.22L391.7,16.22L392.25,20.35L392.43,20.29L392.61,20.52L392.79,24.12L393.16,16.05L393.7,20.41L393.88,20.45L394.25,20.28L394.43,24.41L394.79,16.32L395.33,20.28L395.52,20.27L398.96,20.26L399.15,20.26L401.51,20.26L401.69,30.73L402.59,63.65L402.78,62.36L403.32,63.38L403.5,64.23L403.87,61.71L404.23,62.57L404.41,63.8L404.59,63.64L404.77,62.02L405.32,63.04L405.5,64.31L405.68,63.81L405.86,242.47L406.23,228.87L406.41,209.89L406.95,20.1L407.31,20.13L407.5,20.14L410.22,20.29L410.4,24.33L410.94,16.27L411.31,20.35L411.49,20.39L416.93,20.25L417.12,20.25L419.29,20.26L419.48,24.29L419.66,16.21L420.2,20.24L420.38,20.25L423.47,20.2L423.65,23.3L423.83,23.81L424.01,20.08L424.19,139.99L424.56,19.17L424.74,20.12L424.92,20.14L426.01,20.22L426.19,24.2L426.55,16.16L427.1,20.26L427.28,20.23L427.46,24.31L427.83,16.26L428.01,20.31L428.19,20.33L431.09,20.27L431.27,20.23L434.18,20.25L434.36,20.26L439.44,20.26L439.62,35.34L439.99,63.54L440.53,59.2L440.71,53.22L441.62,20.14L441.8,20.16L441.98,20.23L442.16,24.14L442.35,16.26L442.71,20.25L442.89,20.45L443.25,19.99L443.44,20.36L443.62,24.11L443.8,16.31L444.34,20.18L444.52,20.6L445.98,20.18L446.16,20.47L447.07,20.28L447.25,20.37L449.06,20.28L449.24,20.23L450.15,20.26L450.33,24.29L451.6,246.5L451.78,63.62L451.97,62.21L452.51,62.92L452.69,62.59L452.87,62.79L453.06,62.59L453.24,62.05L453.96,62.61L454.14,64.98L454.33,65.01L454.51,62.74L455.05,62.01L455.23,62.56L455.42,62.81L455.6,62.28L455.78,244.42L456.5,61.27L456.69,61.92L456.87,62.24L457.23,61.38L457.41,63.07L457.59,63.03L457.77,61.32L457.96,244.6L458.32,51.11L458.5,39.33L459.05,20.11L459.41,20.12L459.59,20.23L459.77,20.17L459.95,24.19L460.32,24.52L460.68,16L460.86,20.37L462.49,20.42L462.68,24.26L463.04,16.38L463.58,20.12L463.76,20.42L465.76,20.24L465.94,81.23L466.31,251.66L466.67,65.58L466.85,65.98L467.21,67.71L467.39,67.35L467.58,66.15L467.76,66.38L467.94,65.88L468.12,65.02L469.03,62.69L469.21,62.69L469.57,63.61L469.75,62.92L469.94,62.48L470.3,65.29L470.66,62.55L470.84,63.26L471.57,63.67L471.75,63.28L471.93,63.05L472.3,64.42L472.48,63.77L472.66,62.26L473.02,246.15L473.38,62.67L473.57,62.62L473.93,63.48L474.29,62.6L474.47,62.92L474.66,63.09L474.84,62.82L475.02,62.31L475.38,64.75L475.56,59.49L476.47,20.18L476.83,20.29L477.02,19.98L477.2,20.24L477.38,24.22L477.56,16.4L478.1,20.23L478.29,20.17L479.19,20.31L479.37,21.23L479.56,19.12L480.1,19.52L480.28,20.26L480.46,21L480.83,19.87L481.01,19.94L481.73,20.52L481.92,20.33L482.1,20.25L482.28,24.4L482.64,20.23L482.82,16.22L483.73,20.22L483.91,20.26L488.09,20.26L488.27,44.88L488.63,63.02L488.81,62.73L488.99,245.95L489.18,247.57L489.36,247.22L489.54,63.44L489.9,63.37L490.08,61.48L490.63,61.03L490.81,61.17L490.99,61.71L491.35,63.26L491.72,61.71L491.9,61.3L492.08,60.78L492.26,61.53L492.44,62.87L492.63,245.08L492.81,62.44L493.17,64.08L493.35,60.17L493.71,43.28L493.9,46.89L494.08,233.95L494.8,20.11L494.98,20.41L495.17,20.22L496.8,20.34L496.98,20.06L497.34,20.74L497.53,24.36L497.71,16.01L497.89,20.31L498.07,109.05L498.25,238.35L498.62,73.19L498.8,76.99L498.98,80.05L499.16,251.77L499.34,259.59L499.52,89.22L499.7,76.87L499.89,250.14L500.07,253.73L500.25,72.14L500.97,66.08L501.16,66.37L501.34,66.83L501.52,67.91L501.88,66.4L502.06,66.42L503.15,63.23L503.33,245.41L503.52,245.71L503.7,63.78L504.79,61.9L504.97,62.58L505.33,62.15L505.69,64.51L505.88,63.81L506.06,62.14L506.42,63.76L506.78,62.72L506.96,62.79L507.15,63.82L507.51,62.2L507.69,62.47L508.05,61.12L508.42,62.11L508.6,64.22L509.14,61.6L509.32,61.93L509.51,62.64L510.41,61.31L510.59,235.6L510.78,233.29L510.96,52.54L511.32,28.1L511.68,50.81L511.87,48.08L512.05,226.78L512.59,21.17L512.77,20.12L514.59,20.32L514.77,42.92L514.95,42.48L515.13,35.16L515.68,20.22L516.04,20.25L516.22,172.37L516.58,226.99L516.77,48.84L517.67,69.2L517.86,68.88L518.04,67.03L518.22,67.24L518.4,66.94L518.58,66.35L518.94,71.26L519.13,70L519.31,66.78L519.49,67.52L519.85,66.28L520.03,66.56L520.22,67.24L520.4,66.05L520.58,63.85L520.76,62.85L520.94,64.2L521.3,63.78L521.49,63.63L522.39,61.98L522.57,62.62L522.94,63.96L523.3,62.9L523.48,63.14L524.39,62.12L524.57,63.29L524.75,64.16L524.93,62.88L525.12,62.24L525.3,62.52L525.48,62.04L525.66,61.38L526.39,62.57L526.57,64.09L526.75,64.76L527.11,63.93L527.29,63.65L527.48,63.3L527.66,64.4L527.84,61.25L528.75,25.69L528.93,36.44L529.11,61.39L529.29,70.6L529.47,62.68L529.65,45.09L530.02,36.72L530.38,228.57L530.56,29.75L530.74,20.27L531.11,39.12L531.29,73.77L531.65,56.26L531.83,215.18L532.01,216.29L532.19,226.62L532.38,217.51L532.56,21.96L532.74,20.1L533.28,20.48L533.47,23.73L533.83,36.96L534.01,235.81L534.37,242.52L534.55,66.75L534.92,71.64L535.28,69.27L535.46,68.64L536.37,67.4L536.55,68.63L536.73,71.36L537.1,67.79L537.28,68.12L538.37,63.17L538.55,64.31L538.73,65.67L539.27,62.65L539.64,63.34L539.82,63.62L540,64.33" style="vector-effect: non-scaling-stroke; fill: none; stroke: rgb(0, 191, 255); stroke-opacity: 1; stroke-width: 2px; opacity: 1;"/></g><g class="points"/><g class="text"/></g></g></g><g class="overplot"/><path class="xlines-above crisp" d="M0,0" style="fill: none;"/><path class="ylines-above crisp" d="M0,0" style="fill: none;"/><g class="overlines-above"/><g class="xaxislayer-above"><g class="xtick"><text text-anchor="middle" x="0" y="433" transform="translate(132.28,0)" style="font-family: sans-serif; font-size: 12px; fill: rgb(42, 63, 95); fill-opacity: 1; white-space: pre; opacity: 1;"><tspan class="line" dy="0em" x="0" y="433">Dec 4</tspan><tspan class="line" dy="1.3em" x="0" y="433">2022</tspan></text></g><g class="xtick"><text text-anchor="middle" x="0" y="433" style="font-family: sans-serif; font-size: 12px; fill: rgb(42, 63, 95); fill-opacity: 1; white-space: pre; opacity: 1;" transform="translate(254.25,0)">Dec 11</text></g><g class="xtick"><text text-anchor="middle" x="0" y="433" style="font-family: sans-serif; font-size: 12px; fill: rgb(42, 63, 95); fill-opacity: 1; white-space: pre; opacity: 1;" transform="translate(376.23,0)">Dec 18</text></g><g class="xtick"><text text-anchor="middle" x="0" y="433" style="font-family: sans-serif; font-size: 12px; fill: rgb(42, 63, 95); fill-opacity: 1; white-space: pre; opacity: 1;" transform="translate(498.21,0)">Dec 25</text></g></g><g class="yaxislayer-above"><g class="ytick"><text text-anchor="end" x="79" y="4.199999999999999" transform="translate(0,414.44)" style="font-family: sans-serif; font-size: 12px; fill: rgb(42, 63, 95); fill-opacity: 1; white-space: pre; opacity: 1;">−80k</text></g><g class="ytick"><text text-anchor="end" x="79" y="4.199999999999999" style="font-family: sans-serif; font-size: 12px; fill: rgb(42, 63, 95); fill-opacity: 1; white-space: pre; opacity: 1;" transform="translate(0,377.66)">−70k</text></g><g class="ytick"><text text-anchor="end" x="79" y="4.199999999999999" style="font-family: sans-serif; font-size: 12px; fill: rgb(42, 63, 95); fill-opacity: 1; white-space: pre; opacity: 1;" transform="translate(0,340.89)">−60k</text></g><g class="ytick"><text text-anchor="end" x="79" y="4.199999999999999" style="font-family: sans-serif; font-size: 12px; fill: rgb(42, 63, 95); fill-opacity: 1; white-space: pre; opacity: 1;" transform="translate(0,304.12)">−50k</text></g><g class="ytick"><text text-anchor="end" x="79" y="4.199999999999999" style="font-family: sans-serif; font-size: 12px; fill: rgb(42, 63, 95); fill-opacity: 1; white-space: pre; opacity: 1;" transform="translate(0,267.34000000000003)">−40k</text></g><g class="ytick"><text text-anchor="end" x="79" y="4.199999999999999" style="font-family: sans-serif; font-size: 12px; fill: rgb(42, 63, 95); fill-opacity: 1; white-space: pre; opacity: 1;" transform="translate(0,230.57)">−30k</text></g><g class="ytick"><text text-anchor="end" x="79" y="4.199999999999999" style="font-family: sans-serif; font-size: 12px; fill: rgb(42, 63, 95); fill-opacity: 1; white-space: pre; opacity: 1;" transform="translate(0,193.8)">−20k</text></g><g class="ytick"><text text-anchor="end" x="79" y="4.199999999999999" style="font-family: sans-serif; font-size: 12px; fill: rgb(42, 63, 95); fill-opacity: 1; white-space: pre; opacity: 1;" transform="translate(0,157.03)">−10k</text></g><g class="ytick"><text text-anchor="end" x="79" y="4.199999999999999" style="font-family: sans-serif; font-size: 12px; fill: rgb(42, 63, 95); fill-opacity: 1; white-space: pre; opacity: 1;" transform="translate(0,120.25)">0</text></g></g><g class="overaxes-above"/></g></g><g class="polarlayer"/><g class="smithlayer"/><g class="ternarylayer"/><g class="geolayer"/><g class="funnelarealayer"/><g class="pielayer"/><g class="iciclelayer"/><g class="treemaplayer"/><g class="sunburstlayer"/><g class="glimages"/><defs id="topdefs-40931d"><g class="clips"/></defs><g class="layer-above"><g class="imagelayer"/><g class="shapelayer"/></g><g class="infolayer"><g class="g-gtitle"><text class="gtitle" x="350" y="50" text-anchor="middle" dy="0em" style="font-family: sans-serif; font-size: 17px; fill: rgb(42, 63, 95); opacity: 1; font-weight: normal; white-space: pre;"><tspan class="line" dy="0em" x="350" y="50"><tspan style="font-weight:bold">Scenario 6</tspan></tspan><tspan class="line" dy="1.3em" x="350" y="50"><tspan style="font-weight:bold">Microgrid Output</tspan></tspan><tspan class="line" dy="2.6em" x="350" y="50"><tspan style="font-weight:bold">From: December 01, 2022 to December 31, 2022</tspan></tspan></text></g><g class="g-xtitle"><text class="xtitle" x="350" y="476.409375" text-anchor="middle" style="font-family: sans-serif; font-size: 14px; fill: rgb(42, 63, 95); opacity: 1; font-weight: normal; white-space: pre;"><tspan style="font-weight:bold">Time</tspan></text></g><g class="g-ytitle"><text class="ytitle" transform="rotate(-90,27.840625000000003,260)" x="27.840625000000003" y="260" text-anchor="middle" style="font-family: sans-serif; font-size: 14px; fill: rgb(42, 63, 95); opacity: 1; font-weight: normal; white-space: pre;"><tspan style="font-weight:bold">Demand (kW)</tspan></text></g></g></svg>