<svg class="main-svg" xmlns="http://www.w3.org/2000/svg" xmlns:xlink="http://www.w3.org/1999/xlink" width="700" height="500" style="" viewBox="0 0 700 500"><rect x="0" y="0" width="700" height="500" style="fill: rgb(255, 255, 255); fill-opacity: 1;"/><defs id="defs-f2cef2"><g class="clips"><clipPath id="clipf2cef2xyplot" class="plotclip"><rect width="502" height="320"/></clipPath><clipPath class="axesclip" id="clipf2cef2x"><rect x="80" y="0" width="502" height="500"/></clipPath><clipPath class="axesclip" id="clipf2cef2y"><rect x="0" y="100" width="700" height="320"/></clipPath><clipPath class="axesclip" id="clipf2cef2xy"><rect x="80" y="100" width="502" height="320"/></clipPath></g><g class="gradients"/><g class="patterns"/></defs><g class="bglayer"><rect class="bg" x="80" y="100" width="502" height="320" style="fill: rgb(229, 236, 246); fill-opacity: 1; stroke-width: 0;"/></g><g class="layer-below"><g class="imagelayer"/><g class="shapelayer"/></g><g class="cartesianlayer"><g class="subplot xy"><g class="layer-subplot"><g class="shapelayer"/><g class="imagelayer"/></g><g class="gridlayer"><g class="x"><path class="xgrid crisp" transform="translate(163.9,0)" d="M0,100v320" style="stroke: rgb(255, 255, 255); stroke-opacity: 1; stroke-width: 1px;"/><path class="xgrid crisp" transform="translate(247.8,0)" d="M0,100v320" style="stroke: rgb(255, 255, 255); stroke-opacity: 1; stroke-width: 1px;"/><path class="xgrid crisp" transform="translate(333.07,0)" d="M0,100v320" style="stroke: rgb(255, 255, 255); stroke-opacity: 1; stroke-width: 1px;"/><path class="xgrid crisp" transform="translate(416.97,0)" d="M0,100v320" style="stroke: rgb(255, 255, 255); stroke-opacity: 1; stroke-width: 1px;"/><path class="xgrid crisp" transform="translate(500.87,0)" d="M0,100v320" style="stroke: rgb(255, 255, 255); stroke-opacity: 1; stroke-width: 1px;"/></g><g class="y"><path class="ygrid crisp" transform="translate(0,413.3)" d="M80,0h502" style="stroke: rgb(255, 255, 255); stroke-opacity: 1; stroke-width: 1px;"/><path class="ygrid crisp" transform="translate(0,376.14)" d="M80,0h502" style="stroke: rgb(255, 255, 255); stroke-opacity: 1; stroke-width: 1px;"/><path class="ygrid crisp" transform="translate(0,338.98)" d="M80,0h502" style="stroke: rgb(255, 255, 255); stroke-opacity: 1; stroke-width: 1px;"/><path class="ygrid crisp" transform="translate(0,264.65)" d="M80,0h502" style="stroke: rgb(255, 255, 255); stroke-opacity: 1; stroke-width: 1px;"/><path class="ygrid crisp" transform="translate(0,227.49)" d="M80,0h502" style="stroke: rgb(255, 255, 255); stroke-opacity: 1; stroke-width: 1px;"/><path class="ygrid crisp" transform="translate(0,190.32999999999998)" d="M80,0h502" style="stroke: rgb(255, 255, 255); stroke-opacity: 1; stroke-width: 1px;"/><path class="ygrid crisp" transform="translate(0,153.16)" d="M80,0h502" style="stroke: rgb(255, 255, 255); stroke-opacity: 1; stroke-width: 1px;"/><path class="ygrid crisp" transform="translate(0,116)" d="M80,0h502" style="stroke: rgb(255, 255, 255); stroke-opacity: 1; stroke-width: 1px;"/></g></g><g class="zerolinelayer"><path class="yzl zl crisp" transform="translate(0,301.82)" d="M80,0h502" style="stroke: rgb(255, 255, 255); stroke-opacity: 1; stroke-width: 2px;"/></g><path class="xlines-below"/><path class="ylines-below"/><g class="overlines-below"/><g class="xaxislayer-below"/><g class="yaxislayer-below"/><g class="overaxes-below"/><g class="plot" transform="translate(80,100)" clip-path="url(#clipf2cef2xyplot)"><g class="scatterlayer mlayer"><g class="trace scatter tracecef3da" style="stroke-miterlimit: 2; opacity: 1;"><g class="fills"/><g class="errorbars"/><g class="lines"><path class="js-line" d="M0,233.04L0.42,256.87L0.56,144.78L0.57,108.91L0.9,295.91L1,78.95L1.33,231.49L1.35,232.52L1.36,46.5L1.93,282.95L2.09,277.11L2.11,286.86L2.16,300.04L2.74,46.65L2.79,229.6L2.81,230.7L3.14,227.04L3.22,261.02L3.27,256.04L3.28,271.89L3.57,286.63L3.75,65.89L4.05,239L4.07,230.31L4.08,230.65L4.1,229.62L4.11,46.52L4.63,298.41L4.86,70.9L4.87,71.42L5.11,59.28L5.33,236.76L5.47,231.6L5.49,46.17L6.15,280.82L6.25,277.59L6.26,222.56L6.29,256.34L6.36,44.29L6.85,230.31L6.86,45.77L7.44,290.93L7.62,250.66L7.64,249.84L7.65,252.65L7.72,64.61L7.74,61.82L7.85,52.66L7.89,58.51L7.91,231.26L8.07,233.06L8.22,227.92L8.24,46.51L8.75,280.94L9,272.53L9.01,275.29L9.04,276.52L9.07,273.83L9.08,233.58L9.44,242.19L9.61,46.61L9.83,230.39L9.84,231.41L10.01,228.77L10.03,248.51L10.14,277.93L10.64,61.41L10.76,232L10.77,231.65L10.9,233.26L10.96,231.17L10.97,231.56L10.99,46.28L11.55,269.78L11.73,77.56L11.75,74.46L11.83,268.09L12.02,61.43L12.35,231.15L12.36,47.47L12.89,273.72L13.12,264.7L13.14,260.62L13.18,279.29L13.35,56.33L13.73,231.13L13.74,47.34L14.2,272.26L14.48,79.7L14.5,85.49L14.58,279.4L14.76,126.91L14.77,59.97L15.11,46.66L15.53,234.4L15.54,231.98L15.56,213.62L15.96,271.39L16.15,62.77L16.3,232.53L16.32,232.42L16.33,232.85L16.45,227.86L16.48,227.93L16.49,46.26L17.08,260.47L17.24,79.99L17.25,76.81L17.41,269.68L17.49,67.47L17.74,239.26L17.75,240.67L17.79,240.68L17.85,231.62L17.87,47.22L18.47,289.57L18.62,88.27L18.64,84.75L18.74,291.45L19.24,48.08L19.43,232.95L19.44,232.12L19.6,231.69L19.69,240.6L19.7,260.06L19.84,278.51L19.91,225.69L19.93,269.23L19.94,88.49L19.99,84.35L20.07,97.73L20.09,287.21L20.11,292.3L20.62,47.24L20.67,231.95L20.69,232.99L21.02,230.86L21.13,279.4L21.15,286.48L21.48,298.7L21.63,76.32L21.65,72.31L21.68,253.67L21.99,47.7L22.41,233.68L22.42,237.31L22.59,282.64L22.67,220.28L22.68,272.64L22.69,84.38L22.72,81.21L22.81,98.87L22.84,93.25L22.85,290.17L22.91,294.71L23.37,58.85L23.57,233.51L23.58,233.11L23.67,232.56L23.8,239.03L23.81,244.79L24.08,80.55L24.26,291.44L24.37,125.32L24.38,76.88L24.4,251.08L24.74,46.61L25.14,232.86L25.16,237.69L25.5,72.36L25.65,269.56L25.76,227.54L25.77,69.09L25.82,246.17L26.12,55.08L26.53,235.75L26.55,248.28L26.69,288.96L26.92,63.06L27.31,234.45L27.32,233.46L27.42,234.23L27.45,232.32L27.48,232.35L27.49,47.31L28.1,279.56L28.24,88L28.25,85.14L28.27,82.43L28.28,90.43L28.34,87.37L28.35,279.13L28.37,283.4L28.41,266.35L28.48,268.44L28.5,72.52L28.51,261.82L28.87,48.27L29.24,232.35L29.26,233.23L29.37,231.46L29.43,281.61L29.44,287.84L29.5,265.67L29.54,292.24L29.56,90.59L29.57,86.33L29.77,291.92L29.87,262.6L29.89,273.13L30.24,49.96L30.63,232.39L30.65,231.72L30.83,288.41L30.92,284.44L30.93,91.7L31.18,302.9L31.28,87.17L31.61,232.11L31.62,52.4L32.28,290.78L32.36,99.77L32.38,100.18L32.48,303.2L32.62,83.29L32.98,232.03L32.99,56.77L33.65,292.91L33.74,97.03L33.75,99.9L33.78,104.43L33.8,97.1L33.83,103.78L33.84,201.22L33.88,303.93L34.37,46.95L34.59,231.75L34.6,233.02L34.71,231.49L35.01,271.53L35.03,271.74L35.04,273.01L35.06,88.19L35.07,87.54L35.2,98.59L35.22,292.82L35.26,293.37L35.75,53.46L35.76,232.63L35.95,231.45L36.25,256.08L36.33,235.5L36.35,275.41L36.62,280.15L36.75,67.99L36.99,233.9L37.01,234.61L37.06,231.55L37.11,232.17L37.12,46.8L37.69,288L37.87,74.5L37.88,61.92L37.91,111.32L37.94,37.33L37.98,68.65L37.99,196.27L38.01,303.71L38.5,47.38L38.74,233.09L38.75,233.04L38.91,231.15L38.94,241.22L38.95,264.39L39.28,56.81L39.43,301.7L39.67,240.46L39.69,239.16L39.77,240.14L39.83,231.33L39.86,232.64L39.87,55.61L40.43,285.89L40.62,81.87L40.63,90.31L40.66,90.41L40.67,82.39L40.7,84.92L40.72,79.13L40.83,287.29L41.25,47.3L41.46,232.45L41.48,231.19L41.91,287.37L41.92,201.15L41.93,283.03L41.95,82.99L42.22,284.24L42.62,45.58L42.64,233.14L42.81,231.03L43.17,273.69L43.2,253.49L43.21,269.82L43.53,293.02L43.64,75.45L43.94,248.07L43.95,231.59L43.97,232.41L43.98,232.14L44,55.81L44.57,269.47L44.74,74.79L44.76,63.98L44.77,55.7L44.9,272.24L45.3,232.07L45.32,233.99L45.33,231.96L45.36,232.24L45.37,46.24L46.03,261.16L46.12,55.06L46.13,66.06L46.15,52.69L46.23,261.02L46.62,233.71L46.63,233.51L46.65,234.44L46.71,231.81L46.73,232.84L46.75,46.78L47.34,287.98L47.49,77.15L47.51,85.28L47.67,291.59L48.12,55.05L48.14,239.42L48.53,229.37L48.58,265.66L48.6,273.48L48.68,286.25L48.75,268.9L48.8,272.55L48.81,93.02L48.83,92.44L48.87,106.98L48.93,101.2L48.94,117.98L49.03,294.72L49.5,59.13L49.61,241.24L49.63,241.07L49.9,229.05L50.09,302.41L50.17,292.34L50.19,104.36L50.4,304L50.53,92.42L50.86,242.64L50.87,57.83L51.58,302.85L51.63,294.66L51.65,294.66L52.25,65.24L52.41,231.69L52.42,234.78L52.58,231.25L52.82,278.67L52.91,277.57L52.92,278.87L53.3,279.04L53.63,59.68L53.68,233.46L53.7,238.26L54.13,251.64L54.31,88.48L54.51,199.99L54.53,199.93L54.54,199L54.67,251.63L54.71,250.48L54.73,251.47L54.87,244.24L54.89,247.63L54.9,235.14L55,56.53L55.57,247.82L55.66,247.38L55.67,247.39L56.19,247.88L56.38,45.68L56.42,231.22L56.43,234.73L56.71,230.98L56.83,247.44L57.05,247.38L57.06,78.91L57.09,71.59L57.18,200.84L57.31,199.89L57.32,200.34L57.34,199.59L57.38,200.89L57.41,200.74L57.42,246.34L57.44,247L57.72,232.98L57.74,234.86L57.75,54.51L58.43,247.76L58.51,200.05L58.53,199.16L58.6,199.04L58.73,201.39L58.77,201.3L58.78,67.38L58.8,246.9L59.13,54.68L59.54,233.02L59.56,231.22L59.76,249.4L59.8,248.41L59.81,72.82L59.84,70.84L59.86,169.48L60.19,249.44L60.5,48.03L60.63,231.48L60.65,232.88L60.77,233.32L60.95,230.9L60.96,252.5L61.09,251.14L61.13,253.26L61.18,251.31L61.19,86.92L61.2,86.17L61.22,90.26L61.23,200.33L61.3,198.18L61.48,201.17L61.53,200.89L61.55,252.54L61.88,57.28L61.92,233.6L61.94,234.26L62.05,231.53L62.38,255.17L62.55,254.07L62.57,81.13L62.92,255.41L63.25,47.92L63.34,233.44L63.35,235.07L63.44,232.62L63.88,246.33L63.93,245.8L63.94,62.92L63.96,62.16L63.97,74.43L63.98,201.61L64.04,201.64L64.14,199.56L64.2,200.11L64.21,69.3L64.28,63.54L64.3,245.49L64.36,245.98L64.6,232.56L64.61,233.88L64.63,50.35L65.26,247.85L65.37,200.08L65.39,199.32L65.55,198.54L65.57,201L65.63,200.71L65.65,78.87L65.66,79.17L65.67,247.08L65.83,247.97L65.98,233.7L65.99,233.8L66,50.73L66.68,283.48L66.75,94.55L66.76,96.9L66.98,298.75L67.04,57.09L67.37,234.6L67.38,58.22L68,295.13L68.12,113.39L68.14,118.15L68.22,114.11L68.24,276.18L68.28,299.88L68.75,51.16L68.97,233.59L68.98,234.67L69.07,232.7L69.24,266.85L69.26,266.12L69.28,299.24L69.5,55.52L69.59,96.31L69.6,87.63L69.64,293.5L70.12,232.29L70.13,46.53L70.7,285.91L70.88,106.83L70.89,98.82L70.99,284.97L71.51,48.74L71.68,232.04L71.69,232.7L71.91,223.39L71.92,255.01L71.94,247.69L71.95,263.29L72.01,299.66L72.21,37.25L72.72,232.46L72.74,232.16L72.79,231.35L72.81,233.03L72.87,232.7L72.88,54.58L73.55,257.89L73.63,76.43L73.64,80.03L73.67,74.91L73.74,130.1L73.75,267.88L73.78,272.2L73.86,263.5L73.87,264.08L73.88,70.57L73.9,261.04L74.26,47.03L74.64,229.92L74.66,223.46L74.94,75.49L75.14,284.69L75.4,234.64L75.42,232.79L75.53,235.15L75.62,228.64L75.63,45.75L76.18,292.57L76.38,104.99L76.39,117.42L76.49,301.86L76.63,80.7L76.88,237.79L76.89,236.94L76.95,237.81L76.99,230L77.01,48.36L77.58,296.6L77.75,84.62L77.77,84.62L77.88,303.35L78.38,46.71L78.58,230.68L78.6,231.25L78.78,221.13L78.8,240.48L78.81,253.86L78.84,242.83L78.94,290.97L79.06,275.16L79.07,85.23L79.23,96.41L79.24,274.27L79.3,300.06L79.39,84.49L79.74,230.6L79.76,48.43L80.39,301.29L80.5,98.35L80.52,83.82L80.67,276.62L81.13,50.19L81.33,231.03L81.35,230.23L81.52,234.53L81.53,229.06L81.55,258.49L81.63,293.54L81.82,87.07L81.98,104.73L81.99,290.15L82.04,291.57L82.09,272.59L82.11,274.69L82.12,147.39L82.16,259.98L82.51,45.7L82.84,228.83L82.85,228.3L82.94,217.43L83.18,261.39L83.2,80.87L83.41,286.04L83.51,78.48L83.87,228.45L83.88,46.94L84.56,268.91L84.63,85.62L84.64,88.96L84.71,79.68L84.73,98.55L84.74,271.18L84.8,282.93L84.89,71.99L85.25,229.46L85.26,47.84L85.83,292.53L86,79.53L86.02,91.02L86.16,282.45L86.26,79.43L86.28,249.4L86.29,258.54L86.63,50.42L87.04,235.95L87.05,237.81L87.32,99.65L87.54,303.81L87.62,278.78L87.64,92.12L87.65,285.73L88.01,63.85L88.38,226.99L88.4,223.86L88.86,98.94L89.03,300.96L89.16,215.4L89.17,215.49L89.36,237.57L89.37,236.15L89.39,58.89L90.06,295.52L90.14,117.8L90.16,117.8L90.26,302.67L90.39,80.68L90.75,230L90.76,47.13L91.41,296.86L91.51,89.75L91.52,89.75L91.78,300.99L92.14,16.16L92.34,201.98L92.35,201.98L92.59,190.06L92.8,276L92.81,267.53L92.82,89.47L92.84,81.95L93.04,288.37L93.11,251.87L93.12,262.36L93.51,50.32L93.78,232.45L93.8,234.81L94.16,281.13L94.21,89.07L94.23,49.06L94.37,24.67L94.41,303.56L95.04,228.97L95.06,228.56L95.3,253L95.32,216.53L95.33,193.72L95.43,301.22L95.57,25.33L96.09,233.41L96.1,233.28L96.12,234.43L96.22,228.71L96.25,228.9L96.26,48.26L96.82,282.36L97.01,84.33L97.02,84.33L97.15,294.66L97.62,229.32L97.64,60.63L98.31,284.74L98.38,96.29L98.4,92.26L98.41,92.43L98.47,84.42L98.48,89.07L98.5,213.01L98.67,294.94L99.01,59.96L99.24,232.93L99.26,233.14L99.34,232.27L99.37,235.43L99.39,232.88L99.4,243.34L99.7,86.73L99.94,300.45L100,277.38L100.02,87.98L100.04,268.79L100.39,62.54L100.76,202.3L100.78,203.64L100.83,242.76L100.85,287.03L101.22,303.13L101.29,16L101.53,201.82L101.55,201.82L101.75,201.82L101.76,16L102.44,201.82L102.51,16L102.52,16L103.38,201.82L103.4,201.82L103.81,201.82L103.83,16L104,16L104.01,201.82L104.51,16L104.76,201.82L104.77,201.82L105.19,201.82L105.2,16L105.37,16L105.39,201.82L105.89,16L106.13,201.82L106.15,201.82L106.56,201.82L106.58,16L106.75,16L106.76,201.82L107.27,16L107.51,201.82L107.52,201.82L107.94,201.82L107.95,16L108.14,16L108.15,201.82L108.28,301.48L108.64,19.71L108.9,201.82L108.91,201.82L109.04,211.09L109.06,213.82L109.33,92.11L109.5,277.92L109.51,16L109.67,16L109.69,201.82L110,201.82L110.02,16L110.7,274.63L110.76,87.78L110.78,63.57L110.9,52.14L110.92,230.98L111.22,202.26L111.23,202.26L111.39,16.45L111.86,303.74L111.89,295.09L111.91,296.13L111.95,301.73L112.09,112.06L112.49,211.98L112.51,203.35L112.71,205.95L112.72,202.58L112.75,202.58L112.77,20.64L113.24,302.77L113.51,97.05L113.53,88.05L113.68,294.92L114.14,53.62L114.34,229.15L114.36,228.99L114.5,233.14L114.59,207.41L114.6,253.74L114.83,303.18L115.02,96.98L115.3,234.77L115.32,235.69L115.42,236.95L115.49,227.25L115.5,227.54L115.52,58.05L116.16,300.14L116.28,289.54L116.29,103.72L116.32,107.05L116.33,292.86L116.89,63.56L117.08,233.5L117.09,234.18L117.12,232.89L117.37,241.35L117.42,239.72L117.44,221.35L117.55,303.4L117.92,91.99L118.18,237.86L118.2,241.65L118.27,46.98L118.68,223.97L118.7,218.27L119.03,302.49L119.1,76.57L119.43,239.4L119.44,238.75L119.53,240.34L119.63,228.33L119.64,48.83L120.15,262.3L120.4,199.75L120.42,198.8L120.5,197.91L120.78,262.64L121,236.72L121.02,53.74L121.61,244.34L121.76,200.48L121.78,200.69L121.86,199.67L121.96,201.69L121.98,63.27L122.19,244.25L122.39,50.21L122.8,233.9L122.81,236.16L122.82,235.13L122.95,248.03L123.07,247.76L123.08,73.31L123.15,200.83L123.4,200.28L123.41,84.71L123.57,247.88L123.77,49.12L123.84,233.29L123.86,234.66L124.13,232.86L124.29,242.65L124.31,242.64L124.33,242.56L124.44,247.31L124.46,61.82L124.96,247.52L125.13,235.22L125.15,55.85L125.79,296.37L125.9,107.98L125.92,107.98L125.99,105.05L126.02,290.11L126.03,290.11L126.05,290.11L126.06,301.68L126.52,55.03L126.74,231.37L126.75,231.61L126.91,226.11L126.95,256.9L126.96,237.12L126.98,274.55L127.21,93.29L127.41,303.37L127.7,242.15L127.71,243.67L127.74,244.07L127.85,230.65L127.88,232.04L127.9,52.94L128.43,297.6L128.64,105.55L128.66,105.55L128.87,291.36L129.27,49.71L129.47,233.7L129.49,232.12L129.67,223.28L129.79,297.7L129.94,274.4L129.96,102.39L129.99,94.32L130.17,299.66L130.63,234.16L130.65,47.15L131.25,291.62L131.39,89.21L131.41,87.37L131.54,288.17L131.66,154.54L131.68,72.92L131.74,255.04L132.02,47.95L132.44,242.88L132.45,246.25L132.64,223.51L132.65,294.04L132.71,267.77L132.72,81.71L132.92,292.09L133.03,181.15L133.04,83.04L133.05,269.53L133.4,50.53L133.78,224.23L133.8,226.81L133.93,303.24L134.24,104.06L134.56,243.44L134.57,242.33L134.62,242.13L134.72,244.01L134.73,230.15L134.74,229.39L134.76,230.14L134.77,59.21L135.35,301.63L135.53,301.2L135.55,203.42L135.59,19.54L136.02,255.35L136.29,238.4L136.31,235.08L136.41,232.82L136.76,276.85L136.82,276L136.84,99.01L137.27,277.72L137.52,51.28L137.61,235.16L137.62,237.31L137.88,231.42L138.07,282.88L138.1,277.22L138.11,280.1L138.13,283.21L138.21,199.43L138.34,199.43L138.35,199.43L138.44,198.12L138.48,199.65L138.56,199.21L138.57,281.97L138.58,282.85L138.87,242.81L138.88,243.41L138.9,62.78L139.4,273.83L139.64,110.97L139.66,110.97L139.82,296.78L140.27,62.12L140.43,235.02L140.45,235.71L140.68,227.42L140.69,253.16L140.7,241.44L140.72,260.7L140.93,299.29L141.28,96.62L141.45,244.22L141.46,244.61L141.58,244.39L141.59,246.23L141.61,236.07L141.62,235.31L141.64,236.1L141.65,56.48L142.28,294.08L142.39,113.19L142.41,116.03L142.54,301.07L143.03,53.05L143.05,234.82L143.07,234.71L143.38,237.25L143.43,228.63L143.44,248.26L143.81,303.58L143.86,296.25L143.87,110.44L143.94,79.03L144.06,200.35L144.07,244.61L144.26,246.07L144.31,241.54L144.34,245.73L144.36,234.11L144.37,235.78L144.39,235.51L144.4,58.36L144.97,288.89L145.16,199.32L145.17,199.91L145.37,198.52L145.43,200.75L145.45,286.31L145.78,74.29L146.21,250.18L146.22,251.68L146.32,276.15L146.56,197.75L146.98,267.78L146.99,256.83L147.02,258.73L147.09,248.65L147.14,248.77L147.15,62.8L147.71,294.45L147.91,198.58L147.93,198.58L148.15,198.58L148.17,200.76L148.18,199.64L148.2,289.14L148.23,291.17L148.53,61.57L148.84,230.78L148.86,232.61L149.01,279.39L149.23,96.16L149.54,200.15L149.56,199.56L149.62,278.87L149.9,49.76L150.3,233.22L150.32,234.97L150.48,258.97L150.58,257.18L150.59,89.44L150.6,78.74L151.08,259.23L151.19,241.91L151.21,237L151.28,49.52L151.94,259.15L151.95,257.71L151.97,78.01L152.47,258.85L152.64,238.68L152.65,49.68L153.27,284.58L153.41,198.57L153.43,198.43L153.6,198.28L153.66,200.17L153.68,198.97L153.7,280.63L153.71,283.67L154.01,241.13L154.03,57.93L154.7,298.22L154.77,114.59L154.79,114.59L155.02,301.59L155.4,60.92L155.59,239.68L155.6,240.17L155.79,229.49L155.93,302.66L156.05,288.96L156.06,302.33L156.78,60.46L156.82,237.93L156.84,237.17L157.08,238.5L157.14,229.74L157.15,238.01L157.17,224.49L157.47,103.69L157.8,303.7L157.91,246.88L157.93,243.6L158.04,246.01L158.14,236.83L158.15,57.78L158.8,303.19L158.9,110.43L158.91,110.43L159.14,302.34L159.52,233.25L159.53,52.95L160.09,290.79L160.27,118.18L160.29,118.18L160.36,114L160.39,261.38L160.4,303.6L160.52,285.47L160.53,98.01L160.56,286.81L160.91,61.24L161.29,233.02L161.31,235.19L161.35,218.23L161.55,301.04L161.58,291.82L161.59,108.37L161.84,303.93L161.91,107.37L162.27,233.12L162.28,54.05L162.83,299.99L163.03,111.96L163.04,111.96L163.25,302.78L163.27,298.81L163.28,106.08L163.3,290.47L163.66,61.26L164.04,239.57L164.06,229.13L164.62,302.67L164.64,108.38L164.8,246.12L164.82,246.33L164.95,248.04L165.02,241.27L165.03,58.34L165.63,303.42L165.78,112.67L165.79,112.67L165.96,298.49L166.03,99.25L166.39,237.88L166.41,58.92L167.08,303.67L167.15,116.83L167.17,116.83L167.32,302.64L167.41,93.49L167.77,236.61L167.78,65.81L168.34,302.12L168.53,111.05L168.54,115.57L168.66,303.32L168.79,87L168.89,246.13L168.9,257.65L169.16,68.2L169.62,268.15L169.63,266L169.64,273.08L169.69,267.1L169.83,288.1L169.85,96.79L169.89,96.51L170.05,297.85L170.13,270.5L170.15,96.66L170.17,269.37L170.53,55.74L170.79,230.81L170.81,230.89L170.95,244.25L170.98,223.07L170.99,262.03L171.21,281.19L171.22,87.33L171.42,291.23L171.54,84.23L171.89,231.11L171.91,48.74L172.57,281.39L172.65,92.86L172.67,93.12L172.74,101.13L172.75,197.35L172.8,293.16L173.28,53.71L173.5,232.04L173.51,231.65L173.58,231.2L173.63,232.96L173.64,235.39L173.7,226.32L173.87,293.16L173.93,288.69L173.94,293.78L173.96,298.57L173.97,112.75L174,95.3L174.13,121.3L174.14,302.43L174.2,303.12L174.22,276.37L174.23,290.77L174.66,56.06L174.93,231.22L174.95,231.11L175.07,225.32L175.23,298.24L175.33,283.43L175.35,97.62L175.58,300.91L176.02,233.84L176.03,49.06L176.59,294.17L176.78,117.97L176.79,115.83L176.81,109.79L176.91,303.65L176.92,303.65L177.02,288.59L177.04,91.92L177.07,277.33L177.41,53.56L177.78,232.23L177.8,243.67L178.31,303.94L178.41,86.15L178.54,244.76L178.56,242.53L178.66,243.62L178.74,232.47L178.77,233.56L178.79,52.98L179.46,299.79L179.54,98.79L179.56,110.03L179.59,112.45L179.62,103.51L179.63,112.12L179.64,246.84L179.69,303.23L180.16,60.08L180.38,235.41L180.39,233.03L180.6,222.47L180.79,286.92L180.83,285.57L180.85,100.13L180.86,97.37L181.01,132.81L181.02,291.66L181.06,303.78L181.16,93.87L181.52,233.2L181.54,51.89L182.09,301.55L182.28,114.31L182.3,114.31L182.38,117.49L182.4,291.79L182.45,303.31L182.91,60.92L183.1,235.49L183.11,235.68L183.31,225.05L183.34,251.19L183.36,239.62L183.37,278.12L183.58,298.91L183.7,97.63L183.76,113.71L183.77,296.81L183.83,303.42L183.89,292.79L183.9,103.19L183.93,285.22L184.27,237.87L184.29,65.47L184.87,296.82L185.03,117.78L185.05,110.16L185.23,303.97L185.66,64.07L185.86,236.7L185.88,235.69L186.06,223.81L186.09,254.85L186.11,253.32L186.12,275.67L186.34,298.2L186.35,104.31L186.39,115.14L186.41,114.84L186.42,100.5L186.48,105.11L186.49,97.38L186.51,97.38L186.52,172.13L186.64,298.67L187.04,59.49L187.28,238.85L187.3,237.11L187.68,302.9L187.74,108.51L187.9,297.78L187.91,297.78L188.01,301.11L188.03,297.85L188.04,112.63L188.13,287.41L188.41,59.91L188.8,234.46L188.81,225.8L189.36,303.99L189.4,101.97L189.57,247.08L189.59,245.8L189.72,247.62L189.75,239.63L189.77,241.43L189.79,62.63L190.43,299.22L190.53,105.16L190.55,105.16L190.58,98.16L190.75,302.78L191.09,248.33L191.11,246.23L191.16,60.13L191.62,286.67L191.64,286.67L192.17,302.82L192.2,108.86L192.35,252.73L192.37,251.92L192.44,253.57L192.51,240.05L192.52,240.68L192.54,68.17L193.04,297.33L193.28,101.56L193.3,101.56L193.38,108.74L193.4,287.37L193.51,298.15L193.53,291.63L193.54,115.7L193.57,293.83L193.91,68.64L194.3,247L194.32,227.74L194.7,16L194.87,303.96L195.07,249.76L195.09,249.56L195.22,251.45L195.25,243.69L195.28,245.13L195.29,73.73L195.91,302.81L196.03,114.5L196.05,114.5L196.22,300.32L196.28,104.42L196.65,241.93L196.67,62.84L197.34,302.81L197.42,101.45L197.44,108.62L197.64,298.13L198.04,65.96L198.07,235.66L198.08,237.15L198.46,240.9L198.47,210.3L198.48,234.43L198.5,251.04L198.74,66.86L198.96,298.88L199.04,276.01L199.06,79.13L199.07,262.51L199.42,58.28L199.8,234.16L199.82,231.99L200.35,302.7L200.42,82.27L200.56,241.4L200.58,240.69L200.73,241.97L200.78,233.54L200.79,58.59L201.46,300.58L201.54,111.16L201.55,110.19L201.65,303.24L201.78,296.52L201.79,75.56L201.82,276.65L202.17,54.9L202.55,230.99L202.57,243.9L202.71,301.48L203.17,86.33L203.31,253.09L203.33,251.46L203.43,253.41L203.53,238.15L203.54,73.41L204.12,296.6L204.29,114.58L204.3,114.58L204.34,113.12L204.39,116.73L204.4,196.89L204.42,302.54L204.92,58.9L205.15,237.96L205.16,238.84L205.2,239.59L205.29,233.03L205.3,228.94L205.49,293.53L205.61,207.11L205.62,100.99L205.66,58.8L205.78,268.62L205.79,268.62L205.81,303.41L205.83,303.2L205.85,287.85L205.86,290.44L205.91,274.22L205.92,94.6L205.96,262.22L206.29,61.2L206.39,240.2L206.41,240.28L206.67,243.45L206.68,232.58L206.69,236.18L206.71,251.98L207.01,90.09L207.24,301.58L207.45,244.81L207.47,244.92L207.61,245.85L207.63,240.04L207.65,241.05L207.67,63.3L208.34,296.43L208.41,104.22L208.43,109.24L208.56,302.4L208.67,82.5L209.02,239.09L209.03,238.9L209.04,62.99L209.73,303.05L209.77,116.85L209.79,90.56L209.92,303.02L210.42,61.56L210.59,245.87L210.61,238.86L210.95,291.4L211.14,107.02L211.19,115.61L211.21,115.61L211.32,301.42L211.79,75.66L211.98,244.86L212,243.94L212.04,245.41L212.2,232.27L212.21,263.39L212.44,303.97L212.78,89.52L212.97,249.55L212.98,250.74L213.11,251.46L213.13,244.52L213.16,246.15L213.17,69.57L213.8,297.45L213.91,100.56L213.93,100.56L214.1,302.42L214.16,95.88L214.53,244.28L214.55,69.12L215.2,303.48L215.3,115.28L215.32,113.16L215.43,298.22L215.92,60.43L216.09,238.45L216.11,245.91L216.21,246.28L216.39,201.82L216.45,209.52L216.47,282.68L216.51,303.57L216.59,228.09L216.61,256.93L216.62,111.75L216.72,101.72L216.77,118.15L216.78,293.96L216.82,300.54L216.85,274.94L216.91,285.08L216.92,88.91L217,262.75L217.3,66.9L217.65,237.9L217.67,239.39L218.2,302.62L218.3,88.57L218.37,258.49L218.38,265.52L218.67,62.36L219.07,233.28L219.09,251.2L219.1,250.16L219.34,294.2L219.36,107.37L219.52,299.91L219.69,81.79L220.03,240.93L220.05,64.99L220.59,303.47L220.79,96.81L220.81,96.81L220.96,300.51L221.04,240.17L221.05,84.48L221.11,283.26L221.42,82.51L221.81,241.15L221.82,238.34L221.98,300.89L222.12,16L222.24,201.82L222.25,16L222.38,303.09L223.08,241.88L223.1,243.22L223.44,303.93L223.61,117.89L223.74,288.16L223.76,303.58L224.17,71.58L224.42,241.35L224.43,246.22L224.8,302.5L225,113.47L225.02,299.28L225.09,302.21L225.12,291.59L225.16,296.92L225.18,111.87L225.26,280.82L225.55,72.15L225.92,238.48L225.94,226.55L226.24,111.71L226.52,303.44L226.54,296.71L226.55,103.68L226.57,105.03L226.58,103.54L226.59,256.05L226.64,277.64L226.88,253.25L226.91,254.62L226.92,67.26L227.53,301.2L227.67,117.46L227.68,115.46L227.74,113.45L227.75,299.26L227.81,303.01L227.9,90.83L227.98,243.18L228,275.98L228.3,64.72L228.76,264.71L228.77,287.69L229.13,303.21L229.3,84.15L229.42,252.6L229.43,251.13L229.59,253.3L229.66,245.59L229.67,68.9L230.3,303.37L230.42,117.03L230.43,117.03L230.51,113.24L230.52,299.05L230.61,303.56L230.66,291.37L230.68,99.35L230.76,267.25L231.05,75.64L231.42,239.95L231.44,241.69L231.64,303.77L232.08,94.48L232.17,257.75L232.18,258.29L232.32,258.77L232.38,245.73L232.41,247.46L232.43,70.89L233.1,301.96L233.18,116.14L233.2,116.14L233.31,303.41L233.8,74.26L233.84,246.81L233.86,247.95L234.2,236.15L234.22,260.44L234.26,257.87L234.27,289.38L234.39,302.52L234.4,234.25L234.7,295.84L234.82,77.76L235.15,247.7L235.16,247.23L235.18,61.53L235.71,300.21L235.92,82.7L235.94,111.39L235.96,65.83L236.09,303.26L236.65,243.06L236.67,245.86L236.95,234.94L237.08,288.9L237.18,279.07L237.2,284.4L237.45,303.41L237.58,80.11L237.61,250.16L237.63,263.14L237.93,70.45L238.37,251.03L238.39,262.07L238.4,260.39L238.46,285.65L238.6,272.53L238.61,89.7L238.64,87.02L238.73,102.54L238.76,101.91L238.77,275.71L238.79,290.19L238.96,76.88L239.29,242.12L239.3,60.82L239.9,302.23L240.05,106.11L240.06,108.12L240.1,105.51L240.15,134.46L240.16,293.99L240.19,298.12L240.33,80.78L240.61,252.39L240.62,251.82L240.68,59.15L241.19,292.75L241.21,292.75L241.29,301.42L241.34,278.86L241.35,299.53L241.37,103.53L241.41,102.93L241.51,303.32L241.68,112.14L241.69,101.51L241.75,277.78L242.05,75.15L242.25,243.28L242.27,245.44L242.68,302.71L242.83,105.73L242.94,295.17L242.96,301.66L243.43,79.96L243.67,239.7L243.69,238.6L244.04,303.79L244.16,103.06L244.43,270.21L244.45,82.94L244.46,74.39L244.5,266.98L245,252L245.02,250.09L245.43,303.76L245.53,100.54L245.71,302.06L245.72,299.79L246.18,63.77L246.45,237.75L246.47,241.15L246.65,230.62L246.81,284.23L246.85,276.47L246.87,90.83L247.07,287.89L247.2,76.43L247.54,244.05L247.55,57.98L248.07,299.35L248.3,88.77L248.31,96.46L248.34,89.42L248.37,102.33L248.4,95.66L248.41,279.94L248.43,282.25L248.56,258.07L248.57,73.04L248.59,76.69L248.6,243.15L248.61,263.33L248.93,55.66L249.33,219.01L249.35,218L249.82,303.64L249.95,93.08L250.12,258.25L250.13,257.88L250.18,258.54L250.29,237.07L250.31,81.43L250.96,301.53L251.06,116.31L251.08,116.31L251.27,302.12L251.68,77.46L251.85,248.5L251.87,246.79L252.08,241.13L252.37,302.08L252.38,116.27L252.6,302.08L253.06,72.51L253.21,252.24L253.23,250.49L253.69,303.43L253.86,117.52L253.87,303.34L253.89,303.34L253.94,275.28L253.96,93.88L254.12,282.38L254.43,76.34L254.7,243.9L254.72,248.3L254.82,242.5L254.9,279.59L254.93,274.06L254.95,294.25L255.09,303.78L255.22,100.3L255.25,294.15L255.26,93.8L255.31,292.66L255.79,251.87L255.81,73.22L256.39,300.56L256.55,111.92L256.57,117.76L256.61,117.06L256.62,302.88L256.72,289.76L256.77,292.7L256.78,117.22L256.85,285.35L257.18,65.44L257.31,249.52L257.33,253.33L257.8,302.38L257.93,111.19L257.98,116.52L258,302.33L258.56,68.89L258.74,244.91L258.76,249.82L258.94,242.68L259,276.89L259.03,275.16L259.04,291.51L259.25,303.86L259.26,118.05L259.35,118.05L259.36,118.05L259.39,303.86L259.93,70.81L260.13,247.19L260.15,254.01L260.45,296.18L260.74,110.37L260.84,296.18L260.85,296.18L261.31,86.91L261.59,252.85L261.61,244.2L261.65,243.31L262.01,298.58L262.02,112.77L262.2,298.58L262.68,64.66L262.84,247.8L262.86,252.1L263.44,74.26L263.5,297.27L263.51,297.27L264.06,78.69L264.27,257.31L264.29,247.29L264.65,300.24L264.8,92.47L264.82,83.48L265.1,260.95L265.43,66.24L265.69,248.81L265.71,249.34L266.11,299.36L266.15,69.85L266.47,215.75L266.48,261.37L266.81,75.59L267.23,258.21L267.24,265.3L267.74,298.7L267.84,83.24L267.98,251.85L268,252.04L268.13,253.48L268.14,246.75L268.17,248.26L268.19,64.16L268.84,295.34L268.89,59.28L268.94,109.05L268.96,109.05L269.06,301.65L269.56,67.4L269.6,253.18L269.62,252.81L269.68,242.02L269.78,253.09L269.88,246.68L269.89,239.43L270.21,301.78L270.28,57.51L270.56,270.39L270.58,95.68L270.59,76.86L270.62,269.34L271.25,239.76L271.27,237.4L271.59,303.6L271.62,104.67L271.65,105.92L271.67,99.72L271.81,299.73L271.97,71.58L272.5,238.01L272.51,239.13L272.68,236.11L272.9,297.21L272.98,286.27L273,93.13L273.16,295.99L273.31,86.86L273.33,94.29L273.34,75.02L273.37,264.81L273.69,64.56L274.1,236.77L274.12,252.11L274.36,293.8L274.72,71.28L274.86,246.91L274.88,246.81L274.93,248.06L275.02,234.9L275.05,235.64L275.06,63.12L275.71,271.83L275.81,78.46L275.82,87.07L275.85,79.71L275.86,94.74L275.98,286.31L276.09,71.78L276.32,248.97L276.34,249.13L276.38,249.69L276.42,237.78L276.44,68.77L277.01,286.75L277.18,79.13L277.2,89.25L277.25,91.71L277.27,87.07L277.28,279.06L277.31,281.53L277.41,251.41L277.43,257.06L277.44,85.32L277.45,243.89L277.81,51.08L278.19,231.15L278.2,236.55L278.46,303.81L278.54,102.57L278.56,109.87L278.57,95.02L278.67,303.27L278.83,77.94L279.17,236.52L279.19,49.14L279.79,303.27L279.93,91.91L279.95,95.74L280.03,296.59L280.56,62.27L280.72,235.59L280.74,234.63L281.14,301.63L281.25,89.64L281.39,103.19L281.41,289L281.44,300.73L281.57,72.68L281.58,224.66L281.6,67.43L281.62,249.71L281.94,61.17L282.35,239.99L282.37,249.82L282.84,301.93L282.96,81.82L283.11,259.87L283.13,259.1L283.21,260.96L283.29,235.46L283.3,235.55L283.31,72.79L283.94,301.79L284.06,117.09L284.07,117.09L284.19,303.7L284.69,56.1L284.86,241.66L284.88,237.75L284.96,234.22L285.29,289.2L285.36,284.28L285.38,94.73L285.51,298.22L285.72,77.41L286.05,240.64L286.07,67.07L286.65,285.65L286.82,107.19L286.84,100.91L286.85,98.23L286.88,252.13L286.9,294.49L286.91,298.16L287.05,233.72L287.07,75.01L287.11,254.37L287.44,56.88L287.84,235.41L287.86,249.07L288.11,302.88L288.17,102.5L288.41,267.15L288.43,111.13L288.49,259.78L288.82,69.31L289.2,240.01L289.22,236.27L289.46,303.51L289.49,302.96L289.5,117.74L289.55,107.47L289.62,109.87L289.63,295.68L289.76,302.69L289.79,280.36L289.8,88.21L289.86,260.48L290.19,70.08L290.59,242.18L290.61,236.87L291.04,303.95L291.21,87.34L291.37,265.9L291.38,264.7L291.39,266.47L291.54,244.46L291.55,244.76L291.57,63.45L292.17,302.54L292.31,118.17L292.33,117.94L292.41,303.75L292.94,64.69L293.13,236.19L293.14,238.12L293.44,288.42L293.64,87.28L293.74,94.98L293.76,291.92L293.77,298.94L293.96,77.74L294.3,240.35L294.32,74.25L294.92,294.61L295.06,88.86L295.08,75.06L295.21,266.04L295.69,47.45L295.89,235.01L295.91,234.61L296.07,231.15L296.25,277.85L296.27,284.11L296.72,67.96L297.04,233.72L297.05,233.59L297.07,54.07L297.7,299.91L297.81,103.86L297.83,112.85L297.91,295.6L298.09,64.3L298.36,240.63L298.37,248.41L298.39,249.37L298.4,235.13L298.43,236.13L298.44,55.27L299.09,303.76L299.19,107.91L299.2,107.91L299.26,110.25L299.27,296.07L299.32,299.06L299.4,277.95L299.42,93.3L299.46,62.83L299.7,259.2L300.19,233.84L300.21,234.39L300.28,230.97L300.42,300.69L300.51,283.42L300.52,111.73L300.55,116.13L300.61,105.59L300.64,105.6L300.65,291.33L300.72,293.68L300.84,81.19L301.07,258.74L301.08,258.08L301.09,258.57L301.18,240.62L301.19,66.47L301.78,302.25L301.94,117.58L301.95,105.96L301.97,107.71L301.98,93.47L302.03,99.23L302.04,286.46L302.11,290.48L302.57,51.6L302.66,235.01L302.67,238.57L302.84,232.04L303.13,287.48L303.21,283.82L303.23,282.48L303.24,303.01L303.59,74.35L303.93,237.02L303.95,54.75L304.62,280.73L304.7,65.93L304.72,65.93L304.82,296.24L305.32,53.67L305.52,235.65L305.54,234.92L305.69,231.79L305.99,278.9L306.01,273.9L306.02,94.42L306.07,54.15L306.21,272.05L306.47,244.54L306.48,244.22L306.58,245.84L306.65,235.28L306.68,236.62L306.7,54.97L307.31,287.48L307.44,103.62L307.46,97.29L307.53,289.89L307.73,72.97L308.06,237.42L308.07,54.9L308.72,279.12L308.82,85.42L308.83,18.44L308.93,259.09L309.65,232.73L309.66,234.98L309.95,225.9L310.03,263.7L310.05,301.11L310.82,58L310.84,234.75L311.22,230.59L311.27,242.11L311.29,238.73L311.31,250.26L311.44,300.25L311.5,275.25L311.51,101.36L311.7,288.44L311.84,76.62L312.07,252.12L312.08,252.75L312.11,251.45L312.14,251.8L312.15,233.21L312.18,233.86L312.2,48.06L312.9,280.53L312.94,101.46L312.96,87.29L313.07,66.66L313.09,253.5L313.13,253.76L313.17,242.08L313.19,59.92L313.44,244.49L313.57,45.76L313.95,232.04L313.96,234.37L314.19,216.25L314.23,254.82L314.25,246.45L314.26,66.04L314.29,84.86L314.33,53.72L314.38,54.39L314.39,249.82L314.42,251.42L314.55,202.96L314.56,56.27L314.8,238.67L314.93,233.93L314.95,46.4L315.56,262.25L315.69,53.79L315.71,77.19L315.74,38.67L315.81,247.08L316.34,231.73L316.35,233.23L316.65,231.07L316.75,242.38L316.77,250.8L316.87,278.85L317.36,63.42L317.5,237.08L317.51,236.86L317.64,238.45L317.66,231.33L317.68,232.74L317.7,44.76L318.31,301.77L318.44,102.63L318.46,96.37L318.5,112.46L318.52,298.28L318.59,303.14L318.64,280L318.66,92.45L318.79,260.85L319.07,72.63L319.25,235.03L319.26,235.06L319.35,231.38L319.7,302.86L319.73,299.28L319.75,303.89L320.45,52.58L320.49,236.29L320.51,236.46L320.84,231.39L320.87,240.97L320.88,245.24L320.98,303.83L321.18,103.25L321.41,252.41L321.42,81.03L321.7,248.22L321.82,74.04L322.18,231.35L322.2,231.72L322.5,300.57L322.51,96.46L322.73,275.62L322.84,73.73L323.19,234.32L323.2,59.79L323.76,289.4L323.92,18.71L323.95,79.19L323.96,59.77L324.09,279.5L324.16,17.4L324.36,245.88L324.38,244.82L324.42,245.87L324.56,231.57L324.58,46.51L325.12,292.39L325.32,75.52L325.34,73.2L325.44,250.37L325.61,61.18L325.94,231.54L325.95,45.83L326.54,280.92L326.7,76.98L326.71,90.23L326.81,257.56L327.33,50.09L327.53,231.85L327.54,231.62L327.71,230.8L327.76,235.48L327.77,242.22L327.99,289.52L328.04,87.88L328.06,91.94L328.07,85.88L328.17,273.37L328.36,61.94L328.69,232.88L328.7,50.05L329.39,287.52L329.46,268.39L329.48,268.06L329.5,274.12L329.53,261.82L329.55,210.39L329.68,52.16L329.93,253.65L330.29,233.84L330.31,232.74L330.39,232.05L330.49,235.88L330.51,248.08L330.72,279.87L330.75,211.2L330.92,257.15L330.94,139.51L331.32,243.91L331.45,55.2L331.67,232.22L331.68,232.27L331.87,231.61L331.9,240.08L331.91,255.81L332.11,289.07L332.34,58.66L332.38,86.86L332.4,38.79L332.64,240.59L333.24,231.59L333.26,236.63L333.5,235.61L333.57,260.29L333.67,255.45L333.69,66.32L334.05,236.73L334.2,47.61L334.6,232.62L334.62,233.98L334.78,265.55L335.13,60.67L335.15,58.62L335.18,51.54L335.23,61.82L335.25,237.69L335.48,238.25L335.54,231.52L335.56,233.12L335.58,48.19L336.31,295.11L336.32,262.23L336.34,228.82L336.41,281.78L336.45,32.92L337.08,236.61L337.1,234.04L337.3,233.27L337.5,287.82L337.61,284.6L337.63,187.8L337.77,286.55L338.33,50.14L338.37,232.45L338.39,232.45L338.64,230.78L338.79,263.91L338.8,259.94L338.82,271.42L338.9,297.42L338.97,187.68L339,287.06L339.02,81.48L339.13,43.5L339.22,261.08L339.7,45.55L339.72,231.74L340.03,230.35L340.18,253.89L340.19,274.23L340.48,302.05L340.66,38.34L340.69,39.06L340.71,48.79L341.08,46.39L341.17,233.39L341.48,232.19L341.5,232.21L341.65,301.43L341.77,84.61L341.78,90.01L341.8,85.18L341.83,87.33L341.84,83.77L341.85,44.01L341.95,292.78L342.44,231.76L342.46,58.02L343,273.6L343.22,247.81L343.23,250.54L343.83,46.04L343.85,231.68L343.86,232.07L344.12,230.82L344.3,259.59L344.32,268.26L344.33,269.82L344.5,239.6L344.63,246.28L344.65,52.76L344.75,46.14L344.82,116.34L344.83,201.66L344.86,200.44L344.92,234.92L345.02,234.08L345.03,234.21L345.05,234.95L345.18,231.74L345.19,232.61L345.21,46.87L345.81,295.63L345.95,261.48L345.97,223.94L345.98,241.11L346.01,24.58L346.71,232.54L346.73,231.83L346.95,231.03L347.14,259.14L347.2,258.05L347.21,204.85L347.26,294.45L347.38,21.64L347.96,45.97L347.97,231.98L348.22,231.29L348.33,235.98L348.34,238.08L348.4,196.17L348.44,299.69L348.76,235.14L348.77,54.4L348.9,44.85L348.95,139.91L348.96,201.12L348.99,200.77L349,231.16L349.05,231.13L349.28,233.35L349.32,232.59L349.33,47.08L349.86,276.82L350.09,257.16L350.11,256.77L350.26,43.99L350.39,243.59L350.41,243.26L350.49,244.05L350.61,242.87L350.65,243.01L350.67,231.26L350.69,232.48L350.71,65.3L351.4,300L351.45,252.28L351.47,231.62L351.48,252.64L351.52,18.66L352.21,231.1L352.23,231.19L352.44,229.34L352.5,244.4L352.51,261.89L353,38.28L353.27,229.71L353.29,231.21L353.32,229.63L353.42,231.33L353.44,231.27L353.46,45.51L353.77,233.15L354.16,19.56L354.2,203.44L354.22,203.44L354.38,19.56L354.65,233.39L354.95,232.07L354.96,232.43L355.11,231.01L355.19,238.78L355.26,237.67L355.28,220.34L355.74,21.16L355.95,232.61L356.02,231.81L356.04,231.76L356.08,231.5L356.17,238.25L356.2,237.45L356.21,46.35L356.75,290.47L356.97,261.5L356.98,256L357,253.79L357.01,256.74L357.03,65.11L357.1,47.09L357.43,244.51L357.61,237.11L357.63,237.11L357.86,230.67L358.09,285.15L358.24,262.83L358.26,207.48L358.37,262.64L358.96,45.62L359,231.5L359.02,231.06L359.23,229.94L359.36,238.17L359.38,244.43L359.56,288.84L359.79,49.96L360.12,244.46L360.14,245.45L360.18,246.25L360.32,232.41L360.34,46.76L360.87,289.39L361.1,252.43L361.11,248L361.14,245.78L361.15,50.95L361.3,73.29L361.31,177.38L361.67,236.83L361.71,50.27L362.08,231.59L362.1,236.17L362.24,263.71L362.38,205.63L362.51,233.32L362.53,48.82L362.54,44.19L362.86,232.39L362.87,231.99L362.89,231.51L362.93,232.76L362.94,231.3L363.07,232.36L363.09,45.88L363.57,270.66L363.85,240.16L363.86,241.02L363.87,242.42L363.89,51.69L363.96,41.59L364.06,139.49L364.08,200.15L364.2,232.88L364.45,231.68L364.46,45.82L364.98,293.52L365.22,217.37L365.24,234.83L365.26,271.59L365.84,46.23L365.98,230.51L365.99,230.95L366.11,229.2L366.24,238.88L366.25,244.72L366.35,303.85L366.51,201.02L366.63,247.16L366.64,56.39L366.68,64.02L366.77,46.76L366.8,61.36L366.81,153.72L367.05,231.5L367.21,45.33L367.59,231.24L367.6,238.46L367.73,286.68L367.89,192.99L368,257.56L368.01,61.61L368.1,41.94L368.2,201.41L368.22,200.24L368.49,231.3L368.57,231.26L368.59,45.15L369.06,267.07L369.35,248.65L369.36,251.15L369.49,43.82L369.85,229.81L369.86,229.96L369.92,231.97L369.95,231.88L369.96,46.04L370.69,285.44L370.72,245.2L370.74,248.18L370.75,277.92L370.78,22.07L371.48,231.26L371.5,231.07L371.58,230.59L371.75,239.36L371.77,253.6L371.8,259.48L372.18,35.96L372.5,233.17L372.51,232.71L372.59,233.36L372.61,231.31L372.7,231.68L372.71,45.87L373.23,259.32L373.47,254.61L373.49,254.61L373.6,37.81L374.23,231.92L374.25,231.05L374.35,230.33L374.48,236.73L374.49,249.74L374.56,300.65L374.78,16.94L375.22,245.15L375.24,244.64L375.36,246.07L375.44,231.76L375.45,232.07L375.46,45.81L376.08,303L376.22,241.4L376.24,242.48L376.34,45.73L376.45,201.68L376.47,200.36L376.61,232.99L376.83,230.7L376.84,49.84L377.4,291.6L377.6,251.83L377.61,246.87L377.63,241.88L377.64,51.3L377.73,41.96L378.65,251.09L378.66,241.55L378.67,240.91L378.72,284.12L378.75,283.27L378.76,224.73L378.77,303.27L379.03,53.69L379.51,242.53L379.52,242.41L379.53,242.67L379.58,230.34L379.59,44.93L380.11,291.88L380.36,256.38L380.38,66.82L380.42,63.36L380.84,242.67L380.95,235.2L380.97,56.96L381.7,284.42L381.73,252.35L381.74,245.37L381.87,39.28L382.49,231.18L382.5,230.34L382.73,229.47L382.74,236.86L382.76,241.28L382.9,286.27L383.19,35.66L383.49,229.56L383.5,230.61L383.52,229.59L383.62,231.38L383.7,229.66L383.72,45.44L384.38,298.94L384.48,260.91L384.49,214.1L384.51,253.18L384.59,32.82L385.24,230.66L385.25,229.51L385.59,284.74L385.62,275.58L385.64,293.84L385.72,301.06L385.75,216.73L385.79,248.93L385.81,17.44L385.82,284.2L386.55,231.3L386.57,230.79L386.85,229.55L386.93,260.46L386.96,239.86L386.97,297.52L387.4,47.19L387.73,232.74L387.74,232.62L387.76,233.07L387.8,229.53L387.83,230.22L387.84,44.53L388.37,284.99L388.6,255.87L388.62,261.53L388.82,58.62L389.06,238.92L389.08,240.65L389.19,237.11L389.2,237.62L389.22,55.54L389.76,279.69L389.98,249.99L389.99,249.72L390.02,52.33L390.31,240.18L390.32,240.09L390.54,240.66L390.57,235.24L390.58,235.62L390.59,55.15L391.05,258.81L391.35,240.76L391.37,237.79L391.43,39.44L391.8,230.43L391.81,230.92L391.84,229.7L391.96,229.99L391.97,44.61L392.64,279.85L392.66,26.43L392.71,83.03L392.73,57.11L392.74,21.24L393.1,231.06L393.43,229.58L393.45,230.36L393.67,228.52L393.8,238.02L393.82,242.92L393.83,242.7L393.87,254.43L393.89,254.34L393.9,266.65L394.05,293.77L394.08,31.14L394.28,204.96L394.29,61.86L394.41,238.95L394.72,42.99L395.12,231.6L395.14,234.37L395.25,294.08L395.52,70.46L395.64,72.27L395.65,73.01L396.05,229.55L396.1,43.08L396.45,228.24L396.47,228.46L396.48,228.24L396.53,240.8L396.54,254.08L396.64,273.77L397,47.39L397.27,230.72L397.28,230.71L397.31,231.45L397.46,227.93L397.47,42.39L398.13,293.53L398.24,242.33L398.26,248.9L398.85,43.3L399,226.95L399.02,226.27L399.1,226.18L399.3,266.23L399.32,262.27L399.33,279.56L399.36,299.8L399.49,149.91L399.65,236.87L399.66,50.29L399.73,34.17L400.62,232.1L400.64,235.03L400.9,214.14L400.98,271.17L401,24.31L401.57,229.39L401.77,227.05L401.78,226.71L401.8,226.05L402.03,236.13L402.04,243.53L402.13,262.25L402.27,210.37L402.37,226.7L402.39,40.83L402.49,27.73L402.64,226.11L402.66,225.92L402.86,227.8L402.87,225.9L402.96,226.03L402.97,41.02L403.59,281.18L403.73,268.28L403.75,266.83L403.89,45.05L404,202.06L404.02,227.47L404.13,227.39L404.2,229.35L404.33,228.64L404.35,43.41L404.88,296.09L405.11,266.23L405.12,258.06L405.28,40.96L405.87,227.16L405.88,226.52L406.12,226.05L406.15,234.08L406.17,245.27L406.27,264.15L406.44,245.22L406.5,246.26L406.51,55.99L406.64,39.34L406.67,47.44L406.68,201.69L406.74,200.43L406.75,200.8L406.77,227.75L406.96,229.41L407.08,226.22L407.1,43.07L407.74,299.59L407.86,260.23L407.87,238.79L407.89,236.11L407.9,53.41L407.96,24.21L408.43,228.13L408.77,226.54L408.79,227.23L409.18,264.7L409.22,225.39L409.25,245.94L409.26,61.66L409.32,20.62L409.73,227.78L409.86,226.67L409.88,226.41L410.35,250.11L410.62,229.81L410.64,40.92L410.65,41.69L410.72,30.17L410.78,32.92L410.79,201.55L411.05,229.5L411.22,42.36L411.53,226.83L411.54,227.06L411.58,228.49L411.61,228.04L411.63,234.32L411.67,223.11L411.74,254.05L412,243.18L412.01,54.82L412.14,30.36L412.18,81.21L412.2,201.2L412.24,200.6L412.37,229.47L412.59,227.92L412.6,42.79L413.16,270.17L413.32,17.47L413.36,237.96L413.37,247.65L413.39,287.4L413.47,20.54L414.1,225.95L414.12,227.1L414.36,225.95L414.49,249.05L414.55,239.11L414.56,208.75L414.59,254.72L414.78,23.3L415.32,227.27L415.34,227.29L415.35,43.71L415.95,287.87L416.08,243.48L416.1,243.48L416.24,17.56L416.84,225.97L416.86,226.17L417.26,275.64L417.39,202.65L417.4,252.49L417.41,46.01L417.54,38.53L417.8,227.58L418.24,227.27L418.26,227.77L418.7,262.27L418.78,217.67L418.85,236.14L418.86,53.28L418.99,38.63L419.65,228.54L419.79,227.74L419.81,229.19L420.04,267.47L420.15,203.12L420.16,66.37L420.19,79.76L420.31,31.22L420.32,209.51L420.41,92.28L420.75,229.52L420.84,228.63L420.85,42.45L421.47,298.24L421.61,274.07L421.63,244.23L421.74,22.26L422.37,226.7L422.39,228.45L422.71,263.23L422.84,224.45L422.92,252.3L422.93,66.48L423.02,232.45L423.16,16.15L423.73,201.96L423.75,201.96L424,201.96L424.02,207.17L424.2,301.09L424.29,284.35L424.31,98.54L424.42,299.87L424.98,16.77L425.01,202.58L425.02,202.58L425.38,202.61L425.39,208.94L425.62,300.1L425.71,258.37L425.72,91.26L426.02,204.86L426.35,19.04L426.38,204.86L426.4,204.86L426.8,204.86L426.81,211.33L427.07,72.06L427.17,289.7L427.29,213.45L427.3,16.93L428.14,207.91L428.16,211.19L428.47,298.41L428.59,102.68L428.6,88.7L428.78,205.48L429.1,19.67L429.16,205.31L429.18,205.31L429.49,205.31L429.51,201.89L429.79,296.96L429.81,111.15L429.89,109.29L429.91,299.26L430.48,17.25L430.68,203.06L430.7,203.06L430.88,203.16L430.9,210.1L431.27,93.36L431.28,301.38L431.41,206.43L431.43,16.86L432.26,202.67L432.27,202.51L432.29,206.51L432.4,279.94L432.79,16.8L432.86,16.8L432.87,16.8L433.65,238.17L433.66,239.16L433.8,204.85L433.82,283.87L433.92,215.79L433.93,66.52L433.98,92.53L433.99,57.37L434.05,76.47L434.06,228.37L434.08,230.4L434.16,208.65L434.18,117.56L434.32,236.79L434.61,40.62L434.94,226.53L434.95,225.27L435.22,301.68L435.27,279.08L435.28,181.39L435.34,303.13L435.49,36.92L436.02,234.78L436.04,233.94L436.27,226.01L436.45,277.94L436.48,271.73L436.5,282.27L436.57,297.67L436.67,17.15L437.26,231.16L437.27,232.24L437.33,226.95L437.34,226.96L437.36,42.07L437.99,276.7L438.12,234.6L438.13,267.52L438.2,27.5L438.83,227.77L438.85,226.54L439.05,226.09L439.15,239.67L439.18,239.53L439.19,248.13L439.29,284.96L439.66,51.14L439.89,236.72L439.91,237.8L439.99,238.72L440.06,227.82L440.09,227.86L440.11,54.43L440.71,261.8L440.85,40.79L440.87,40.79L440.88,30.85L441.25,235.11L441.43,229.53L441.44,226.52L441.47,228.66L441.48,42.69L442.24,302.19L442.26,302.19L442.4,30.51L443.02,226.69L443.03,227.62L443.15,225.24L443.3,244.93L443.32,271.15L443.62,302.9L443.75,48.56L444.03,237.9L444.05,237.86L444.18,238.4L444.19,225.6L444.22,226.79L444.23,54.79L444.72,286.47L444.99,257.35L445.01,219.91L445.02,242.45L445.18,32.58L445.75,228.36L445.77,227.11L445.82,226.16L446.07,262.26L446.08,273.76L446.15,277.6L446.47,53.47L446.64,201.05L446.66,225.9L446.68,225.55L446.9,227.76L446.97,227.3L446.98,42.16L447.63,281.04L447.74,243.74L447.76,238.21L447.79,234.86L447.8,44.98L447.92,31.7L447.96,47.18L447.97,120.95L448.36,42.96L448.73,228.93L448.75,227.72L448.89,269.99L449.03,212.51L449.16,244.46L449.18,55.12L449.31,30.38L449.36,201.45L449.38,200.84L449.39,200.86L449.74,40.62L450.15,235.11L450.17,237.4L450.21,271.43L450.41,210.6L450.55,231.6L450.57,42.3L450.61,28.11L451.01,238.85L451.02,238.79L451.04,238.82L451.11,52.5L451.4,227.43L451.41,226.18L451.56,246.06L451.57,264.5L451.66,294.55L452.06,32.75L452.27,228.32L452.29,227.96L452.34,229.61L452.46,226.74L452.47,227.29L452.49,42.24L453.03,291.77L453.25,259.01L453.26,252.59L453.3,259.93L453.39,65.92L453.4,65.28L453.42,58.93L453.55,238.5L453.6,238.23L453.62,237.83L453.72,238.81L453.83,227.45L453.85,227.71L453.86,43.33L454.38,286.24L454.62,243.37L454.64,241.52L454.82,36.36L454.96,237.57L454.98,237.61L455.08,238.64L455.22,227.83L455.24,54.6L455.84,283.11L456,263.14L456.01,262.37L456.07,256.07L456.08,78.23L456.17,59.94L456.21,81.01L456.23,80.87L456.24,183.72L456.61,43.07L457.01,230.23L457.03,231.19L457.17,290.32L457.29,197.75L457.41,256.16L457.43,70.39L457.56,48.56L457.82,227.42L457.89,227L457.9,227.65L457.96,226.61L457.97,227.82L457.99,42.04L458.52,269.47L458.75,250.24L458.76,250.16L458.79,242.94L458.8,58.41L458.89,32.37L459.02,201.58L459.03,226.73L459.19,225.58L459.21,227.69L459.35,226.39L459.36,40.99L460.07,298.95L460.12,240.18L460.14,235.88L460.17,245.64L460.25,23.09L460.85,226.18L460.87,227.3L461.04,225.87L461.08,227.83L461.13,226.24L461.14,231.79L461.35,302.95L461.58,64.22L461.68,72.44L461.7,64.53L461.96,240.38L462.1,226.39L462.11,51.4L462.73,298.64L462.87,268.3L462.89,265.89L462.9,266.3L462.94,247.52L462.96,62.29L463.03,54.64L463.4,227.64L463.47,227.18L463.49,45.61L464.03,293.71L464.25,249.2L464.26,251.96L464.45,33.49L464.55,238.47L464.56,237.75L464.71,238.35L464.84,227.78L464.85,228.95L464.86,54.5L465.55,295.53L465.62,255.98L465.64,264.22L465.81,26.98L466.24,41.15L466.25,228.46L466.5,226.19L466.7,262.27L466.71,285.05L466.76,303.69L467.16,44.33L467.5,238.15L467.52,238.96L467.59,228.24L467.6,228.33L467.62,53.31L468.15,270.35L468.37,254.71L468.39,262.87L468.4,267.92L468.56,30.76L468.98,227.48L468.99,41.14L469.58,281.96L469.69,34.54L469.72,34.54L469.74,16.81L469.82,292.41L470.51,228.39L470.52,227.33L470.7,226.39L470.8,242.65L470.81,261L470.91,280.48L471.31,29.64L471.54,236.99L471.56,237.99L471.61,238.78L471.71,229.26L471.73,229.89L471.74,53.98L472.3,292.24L472.5,262.36L472.52,263.14L472.54,264.89L472.57,258.99L472.59,69.21L472.7,49.05L472.73,62.27L472.74,70.24L473.12,41.41L473.52,233.67L473.53,235.92L473.72,298.36L473.79,208.23L473.95,255.87L473.96,66.73L474.02,75.99L474.09,63.8L474.12,72.49L474.13,97.95L474.49,53.05L474.65,238.96L474.89,234.84L474.91,239.63L475.12,295.78L475.44,63.12L475.65,225.78L475.67,226.92L475.68,225.82L475.78,227.46L475.85,226.87L475.87,41.91L476.41,291.43L476.63,248.97L476.64,249.38L476.67,261.22L476.81,29.55L477.23,229.19L477.24,49.06L477.73,286.79L478,233.63L478.02,259.6L478.15,37.89L478.76,227.4L478.78,226.35L478.99,225.9L479.02,233.99L479.03,242.63L479.19,289.35L479.29,188.05L479.42,241.89L479.44,17.02L480.38,229.55L480.4,233.15L480.74,298.5L480.95,44.97L481.15,241.07L481.17,241.22L481.3,242.65L481.34,228.6L481.35,228.91L481.37,56.83L481.93,303.45L482.13,275.15L482.14,263.05L482.2,30.26L482.89,235.63L482.9,236.1L482.93,236.2L483.1,235.14L483.12,201.84L483.2,266.15L483.22,270.68L483.3,286.96L483.4,267.87L483.56,267.87L483.58,82.05L483.7,44.62L484.03,232.97L484.05,232.73L484.11,227.05L484.12,41.99L484.61,302.26L484.88,282.23L484.89,290.28L485.5,49.5L485.55,228.53L485.57,227.79L485.72,227.46L485.82,231.29L485.87,230.6L485.88,238.94L486.14,225.95L486.15,290.84L486.33,247.04L486.34,61.22L486.47,45.56L487.29,261.13L487.3,225.62L487.5,283.98L487.62,204.87L487.69,248.23L487.7,65.4L487.73,39.36L488.2,232.06L488.26,228.49L488.27,228.49L488.6,229.1L488.62,203.53L488.65,202.99L488.68,207.71L488.69,225.37L489.13,300.38L489.23,17.75L489.42,203.56L489.44,203.56L489.61,203.56L489.62,17.75L490.4,299.65L490.41,299.65L491,17.91L491.15,203.29L491.17,203.29L491.36,201.82L491.4,211.67L491.41,219.68L491.78,299.62L491.89,84.38L491.91,89.74L491.93,85.22L492.04,205.05L492.37,19.24L492.64,204.7L492.66,204.7L492.74,202.95L492.77,213.16L492.79,222.14L493.15,303L493.35,23.11L493.53,208.93L493.55,208.93L493.73,204.7L493.75,23.11L494.28,284.37L494.49,99.89L494.51,99.46L494.62,66.57L494.65,277.3L494.89,207.45L494.91,207.45L495.07,207.45L495.08,206.64L495.12,21.63L495.68,294.73L495.85,24.24L495.87,28.08L495.88,30.1L495.91,24.42L495.93,28.34L495.94,214.79L495.97,221.41L496.08,16.14L496.48,201.82L496.5,16L497.19,245.21L497.24,89.18L497.26,89.18L497.34,260.81L497.47,216.72L497.49,17.71L498.26,215.64L498.29,212.72L498.3,213.12L498.56,299.52L498.58,113.71L498.7,266.91L498.91,17.77L499.12,203.59L499.13,203.59L499.25,17.77L499.78,303.49L499.81,303.49L499.82,303.49L499.92,235.95L500.02,292.79L500.04,132.65L500.3,209.45L500.62,23.64L500.77,208.13L500.78,208.13L500.98,208.13L501,202.99L501.08,299.14L501.28,290.76L501.3,212.62L501.38,260.36L502,54.16" style="vector-effect: non-scaling-stroke; fill: none; stroke: rgb(0, 191, 255); stroke-opacity: 1; stroke-width: 2px; opacity: 1;"/></g><g class="points"/><g class="text"/></g><g class="trace scatter trace7b8466" style="stroke-miterlimit: 2; opacity: 1;"><g class="fills"/><g class="errorbars"/><g class="lines"><path class="js-line" d="M0,236.91L0.21,231.32L0.59,299.47L0.87,295.91L0.89,295.91L1.63,231.72L1.78,251.11L1.79,260.89L2.23,300.79L2.44,245.68L2.45,247.45L2.46,245.12L2.52,246.27L3.09,231.41L3.14,233.95L3.15,242.34L3.25,236.65L3.57,286.63L3.88,244.13L3.9,241.44L4.38,231.67L4.63,298.41L4.67,285.95L4.68,236L4.7,295.37L5.42,231.52L5.43,232.67L5.89,231.42L5.92,246.72L5.96,245.57L5.97,275.37L6.1,206.4L6.15,280.82L6.73,240.72L6.75,240.38L7.39,253.15L7.42,221.66L7.44,290.93L8.19,231.8L8.21,232.61L8.6,230.5L8.65,253.93L8.67,262.78L8.75,280.94L9.24,241.42L9.48,252.72L9.5,252.58L9.97,231.4L10.14,277.93L10.24,255.38L10.26,255.59L10.46,274.4L10.93,232.16L10.95,232.49L11.23,230.74L11.39,233.98L11.4,252.33L11.82,272.12L12.11,241.1L12.12,242.64L12.13,241.03L12.72,231.95L12.89,273.72L12.98,258.38L12.99,256.97L13.21,285.13L13.31,247.23L13.32,254.36L13.34,243.52L13.52,253.94L14.07,231.27L14.14,233.81L14.15,246.31L14.57,284.81L14.79,241.01L14.89,249.8L14.9,244.93L15.46,231.12L15.63,253.55L15.64,252.42L15.92,274.07L16.16,244.01L16.18,242.96L16.25,243.6L16.56,231.71L16.6,231.93L16.62,201.82L17.41,269.68L17.46,257.85L17.48,252.31L17.52,254.11L17.88,231.99L18.02,232.02L18.04,231.87L18.25,231.02L18.28,241.28L18.3,248.01L18.74,291.45L18.95,253.56L18.97,253.18L19.6,231.69L19.79,274.31L19.8,274.69L20.11,292.3L20.36,249.83L20.47,258.27L20.49,259.07L21.02,230.86L21.16,294.36L21.2,291.07L21.22,280.72L21.23,280.89L21.26,271.13L21.28,267.58L21.43,303.02L21.96,234.94L21.98,233.24L22.19,232.42L22.45,254.07L22.46,263.49L22.91,294.71L23.15,248.98L23.17,252.32L23.67,232.56L23.78,246.04L23.8,254.52L24.26,291.44L24.43,245.47L24.51,254.38L24.53,242.14L25.03,232.13L25.26,259.69L25.27,258.36L25.29,244.86L25.57,274.94L25.79,236.65L26.03,243.19L26.05,241.05L26.65,224.11L26.69,288.96L26.71,207.45L26.95,284.37L27.46,233.98L27.48,232.35L27.87,231.76L28.37,283.4L28.52,262.23L28.54,248.8L28.6,255.99L29.11,232.5L29.16,232.99L29.17,233.09L29.24,232.35L29.28,255.46L29.3,258.15L29.54,292.24L30,248.54L30.01,253.36L30.03,251.12L30.04,251.93L30.29,231.51L30.54,231.8L30.56,232.79L30.65,231.72L30.8,283.13L30.82,288.24L30.9,276.92L30.95,290.48L30.96,286.93L30.97,295.93L31.18,302.9L31.28,272.99L31.29,258.1L31.35,263.29L31.52,243.13L31.53,240.83L31.58,245.59L31.85,231.44L32.02,232.69L32.03,244.63L32.48,303.2L32.61,280.71L32.62,269.1L33.34,231.22L33.41,249.41L33.42,257.21L33.87,295.44L33.88,303.93L34.71,231.49L34.76,231.81L34.77,232.48L35.26,293.37L35.53,253.97L35.55,246.81L35.56,256.31L35.95,231.45L36.3,255.44L36.32,255.14L36.62,280.15L37.06,231.55L37.08,232.95L37.09,232.6L37.21,233.81L37.51,231.34L37.52,232.42L37.54,248.56L38.01,303.71L38.12,204.98L38.28,243.59L38.3,243.27L38.37,244.61L38.81,232.62L38.9,232.64L38.91,250.51L39.43,301.7L39.48,226.71L39.61,242.05L39.63,242.81L39.77,253.69L39.99,232.58L40,233.04L40.02,232.18L40.07,231.89L40.83,287.29L40.85,258.97L40.86,286.31L41.58,230.98L41.59,232.57L41.61,231.08L41.63,230.88L41.91,287.37L42.19,256.34L42.21,231.61L42.22,284.24L42.25,220.13L42.95,232.79L42.97,238.13L43.02,237.11L43.45,293.69L43.77,253.89L43.78,249.51L43.8,251.51L44.13,231.7L44.34,231.98L44.36,232.11L44.38,231.66L44.43,246.71L44.44,254.39L44.9,272.24L45.12,240.15L45.14,243.68L45.16,240.78L45.72,231.64L45.82,255.02L45.9,250.34L45.92,241.44L46.03,261.16L46.06,228.32L46.63,241.25L46.65,234.44L47.14,231.46L47.22,259.57L47.24,260.24L47.67,291.59L47.77,226.96L47.97,246.5L47.98,241.3L48.44,231.7L48.94,303.8L49.04,288.46L49.06,276.34L49.07,280.69L49.7,232.81L49.71,232.73L49.79,232.49L50.4,304L50.55,270.31L50.56,261.99L50.6,270.91L51.22,231.34L51.3,259.19L51.32,261.45L51.58,302.85L52.02,255.58L52.04,257.77L52.58,231.25L52.75,264.93L52.77,280.55L53.18,302.1L53.68,233.46L53.7,238.26L53.9,231.27L54.34,288.68L54.36,287.18L54.37,284.23L54.47,302.39L54.87,244.24L54.89,247.63L54.9,235.14L55.3,231.34L55.65,264.98L55.67,259.01L55.69,251.07L55.89,277.64L56.38,231.49L56.4,233.8L56.42,231.22L56.71,230.98L57.02,279.51L57.25,277.85L57.26,275.26L58.1,231.42L58.15,232.38L58.17,246.31L58.48,283.8L58.87,241.86L58.91,242.21L58.93,242.98L59.53,230.21L59.6,263.28L59.61,266L59.67,271.87L59.86,254.64L59.92,262.17L59.93,277.03L59.97,278.64L60.72,232.46L60.73,232.77L60.75,233.23L60.87,231.72L61.05,277.9L61.06,277.79L61.1,280.35L61.12,274.09L61.13,266.81L61.36,290.34L61.52,252.4L61.55,252.54L61.56,250.03L61.58,256.39L62.05,231.53L62.25,232.71L62.26,232.03L62.28,232.28L62.29,249.51L62.79,302.92L63.01,246.77L63.02,249.55L63.04,247.59L63.07,249.04L63.44,232.62L63.68,244.11L63.7,247.09L64.06,260.08L64.4,241.97L64.41,247.78L64.43,241.16L64.46,244.21L64.92,232.17L65.03,232.94L65.04,244.65L65.06,244.35L65.19,249.07L65.23,247.59L65.24,255.05L65.55,285.64L66.05,233.03L66.1,235.45L66.12,233.85L66.36,232.82L66.98,298.75L67.01,261.57L67.02,248.04L67.05,260.35L67.69,231.64L67.78,237.52L67.79,254.37L68.15,303.97L68.43,246.82L68.53,253.37L68.54,245.09L69.07,232.7L69.28,299.24L69.3,241.03L69.49,300.3L70.04,232.21L70.06,231.66L70.1,235.17L70.43,231.52L70.46,232.79L70.47,231.42L70.55,254.91L70.56,264.4L70.57,264.09L70.66,281.29L70.67,284.75L70.7,285.91L70.77,272.38L70.82,281.55L70.83,284.72L70.9,295.06L71.22,239.98L71.3,249.01L71.32,241.59L71.42,231.47L72.01,299.66L72.04,256.83L72.05,210.75L72.31,303.69L72.79,231.35L72.81,233.03L73.22,230.86L73.41,255.31L73.43,254.84L73.74,274.12L73.94,245L73.96,243.22L74.04,254.77L74.44,231.25L74.71,254.12L74.73,252.69L75.14,284.69L75.46,243.58L75.47,247.7L75.49,242.15L75.95,231.38L76.39,303.23L76.55,301.46L76.56,295.45L77.35,231.35L77.38,235.55L77.39,235.58L77.88,303.35L78.15,249.7L78.17,245.02L78.6,231.43L78.94,290.97L78.97,276.44L78.98,265.62L79.3,300.06L79.66,234.93L79.67,233.44L79.79,231.13L80.17,244.3L80.19,256.52L80.39,301.29L80.76,238.3L80.82,246.41L80.83,238.91L80.88,245.54L81.05,231.92L81.16,234.05L81.18,232.73L81.29,231.78L81.56,266.73L81.62,265.26L81.63,293.54L82.44,231.66L82.45,232.32L82.97,229.38L83.37,291.3L83.41,286.04L83.43,278.61L83.44,283.06L83.91,231.55L84.07,233.51L84.08,231.28L84.23,231.21L84.29,235.59L84.3,246.76L84.73,284.36L84.97,242.22L85.04,247.1L85.06,242.62L85.2,231.19L85.83,292.53L85.88,287.33L85.89,283.39L86.05,284.15L86.28,249.4L86.29,258.54L86.31,242.73L86.43,248.36L86.56,231.12L87.06,246.2L87.08,249.08L87.54,303.81L87.82,248.57L87.84,251.73L88.38,234.12L88.48,274.49L88.53,274.2L88.54,284.03L88.76,301.49L89.11,207.58L89.61,231.57L89.63,234.73L89.64,231.44L90.14,303.62L90.17,303.62L90.19,303.62L91.16,220.28L91.18,232.96L91.19,250.8L91.78,300.99L91.86,207.71L91.88,201.98L92.41,201.98L92.42,232L92.45,231.87L93.01,292.3L93.2,246.85L93.21,234.23L93.37,246.79L93.86,231.71L93.96,236.02L93.97,236.92L94.41,303.56L94.43,208.08L94.59,233.98L94.6,229.99L95.39,275.56L95.4,268.77L95.42,252.99L95.43,301.22L95.56,211.15L96.16,241.99L96.18,241.61L96.59,231.61L96.82,282.36L97.06,270.14L97.08,270.14L97.12,294.67L97.25,224.24L97.81,240.94L97.82,242.06L97.9,232.28L98.05,251.74L98.07,267.19L98.25,263.1L98.51,285.79L98.53,286.44L98.67,294.94L98.76,203.08L99.13,234.57L99.14,234.64L99.34,233.42L99.4,244.07L99.41,250.41L99.94,300.45L100.07,247.31L100.16,261.61L100.17,257.36L100.75,206.02L100.85,287.03L100.86,303.13L101.28,303.13L101.29,201.82L108.27,201.82L108.28,301.48L108.98,201.82L109.1,225.34L109.11,233.14L109.5,277.92L109.51,201.82L109.79,201.82L109.8,201.82L110.49,201.82L110.5,218.62L110.75,302.93L111.12,202.26L111.21,202.26L111.22,202.26L111.76,202.27L111.78,206.93L111.86,303.74L112.48,226.63L112.49,215.08L113.11,202.28L113.18,237.54L113.2,251.88L113.24,302.77L113.31,222.44L113.94,255.21L113.96,254.81L114.46,231.62L114.54,234.88L114.56,253.24L114.57,246.56L114.83,303.18L115.29,255.09L115.3,263.8L115.33,269.13L115.69,232.25L115.98,258.11L115.99,268.13L116.51,301.19L116.59,276.06L116.61,270.84L117.12,232.89L117.35,264.34L117.37,274.25L117.48,243.15L117.58,303.4L118.08,251.79L118.1,249.47L118.58,232.01L118.74,271.64L118.81,255.83L118.83,266.54L119.09,262.39L119.16,302.79L119.34,273.4L119.36,261.67L119.39,261.76L120.05,232.66L120.06,240.95L120.07,257.98L120.09,256.66L120.29,280.95L120.3,292.53L120.42,297.51L121.23,232.78L121.25,235.1L121.26,232.77L121.84,259.71L121.89,253.13L121.91,262.7L122.58,232.68L122.68,234.93L122.7,232.76L122.77,232.73L123.31,279.73L123.53,253.93L123.54,250.13L123.56,254.13L124.13,232.86L124.23,238.14L124.24,239.53L124.3,238.29L124.39,248.46L124.46,247.64L124.47,255.41L124.69,283.52L125.13,239.09L125.15,241.67L125.55,232.13L125.62,296.24L125.72,292L125.73,293.83L126.06,301.68L126.16,269.86L126.18,269.22L126.26,273.83L126.84,231.49L126.94,254.61L126.95,270.59L127.41,303.37L127.81,237.74L127.82,245.04L127.84,248.62L127.88,250.09L128.2,232.51L128.3,240.9L128.31,250.15L128.43,297.6L128.96,207.49L129.04,235.03L129.06,235.03L129.49,232.12L129.79,297.7L129.82,274.43L129.83,271.82L130.09,303.89L130.53,245.43L130.55,240.56L130.99,231.27L131.25,291.62L131.48,277.55L131.49,276.54L131.54,288.17L132.04,231.46L132.15,236.2L132.17,234.72L132.64,223.51L132.65,294.04L132.78,269.44L132.8,280.64L132.92,292.09L133.54,231.56L133.58,234.79L133.6,236.91L133.68,231.06L133.93,303.24L134.21,291.87L134.23,291.87L134.36,300.9L135.15,230.72L135.19,248.69L135.2,260.14L135.22,258.37L135.33,301.63L135.49,298.38L135.5,303.5L135.53,301.2L135.55,205.35L135.69,300.12L136.33,235.56L136.35,233.8L136.41,232.82L136.92,302.08L137.27,277.72L137.28,268.21L137.29,282.99L137.88,231.42L138.03,275.75L138.04,269.85L138.5,303.25L138.77,255.91L138.78,259.8L139.21,232.85L139.37,284.33L139.4,279.63L139.41,291.48L139.5,303.52L140.5,233.45L140.65,237.66L140.66,248.97L140.68,243.43L140.96,303.7L141.28,282.43L141.29,285.2L141.97,233.36L142.08,257.81L142.09,270.79L142.41,301.84L142.78,260.01L142.82,275.85L142.84,259.55L143.3,233.05L143.57,299.55L143.66,295.68L143.67,286.89L143.81,303.58L144.31,241.54L144.37,250.11L144.39,249.84L144.76,233.41L145.03,303.86L145.05,287.47L145.06,295.98L145.2,303.61L145.86,244.22L145.88,251.86L146.11,233.09L146.46,301.21L146.52,293.84L146.54,302.48L146.74,303.28L147.32,235.36L147.34,232.8L147.52,231.2L148.15,302.25L148.27,280.54L148.28,272.04L148.68,230.58L149.06,297.33L149.07,283.2L149.43,299.51L149.7,255.24L149.72,263.9L149.73,260.85L150.26,229.58L150.43,266.02L150.46,256.3L150.48,266.72L150.53,293.67L151.46,230.27L151.48,232.25L151.56,229.82L151.79,267.64L151.97,263.83L151.98,274.61L152.18,290.79L152.65,235.49L152.77,235.61L152.78,238.97L152.87,229.75L153.23,284.28L153.24,283.42L153.25,290.05L153.58,303.2L154.13,231.63L154.31,233.87L154.33,234.19L154.37,232.43L155.02,301.59L155.12,280.32L155.13,269.56L155.73,234.45L155.88,295.92L155.91,291.99L155.92,230.94L155.95,302.66L156.66,263.23L156.68,248.23L157.07,232.64L157.27,300.73L157.45,289.5L157.47,289.5L157.7,289.5L157.71,299.24L157.78,303.7L158.01,253.09L158.04,255.68L158.05,249.36L158.36,229.79L158.6,280.39L158.61,279.48L158.63,296.09L158.8,303.19L159.77,229.65L159.92,237.77L159.93,242.67L160.29,303.99L160.72,270.34L160.73,273.07L161.08,230.76L161.45,287.46L161.46,278.86L161.48,284.16L161.84,303.93L162.28,239.86L162.35,240.49L162.37,244.25L162.58,229.98L162.81,299.99L163.04,297.77L163.05,297.77L163.23,297.77L163.24,300.1L163.25,302.78L163.74,241.05L163.76,245.5L163.77,240.72L163.97,232.19L164.63,302.67L164.76,288.52L164.77,274.66L164.8,280.96L165.38,231.3L165.43,251.91L165.45,262.92L165.63,303.42L166.19,281.46L166.21,264.67L166.68,233.73L166.99,297.86L167.01,297.86L167.11,303.74L167.5,266.66L167.6,269.74L167.61,267.08L167.98,233.84L168.31,293.32L168.33,290.62L168.34,302.12L168.63,303.32L169.23,238.59L169.24,241.97L169.3,244.64L169.5,232.54L169.54,238.89L169.56,244.26L170.05,297.85L170.3,266.29L170.32,260.81L170.85,231.15L171.09,274.94L171.11,268.65L171.42,291.23L171.77,246.99L171.79,252.51L171.81,242.75L172.15,231.17L172.45,272.63L172.47,269.97L172.48,274.74L172.8,293.16L173.5,232.45L173.51,235.93L173.57,231.99L173.71,255.29L173.73,264.13L174.19,303.12L174.39,253.65L174.47,261.16L174.49,261.99L174.95,231.11L175.16,276.02L175.17,269.66L175.19,281.11L175.49,301.16L176.03,234.88L176.06,238.34L176.08,241.46L176.28,231.07L176.59,294.17L176.75,289.86L176.77,299.04L176.78,303.79L177.4,245.45L177.41,239.38L177.68,232.8L178.03,302.84L178.24,298.2L178.26,298.2L178.33,303.94L178.6,256.94L178.63,258.22L178.64,252.97L179.11,230.67L179.46,299.79L179.47,281.34L179.69,303.23L180.13,241.52L180.15,243.51L180.16,245.9L180.49,230.85L180.73,284.62L180.78,275.43L180.79,286.92L181.05,303.78L181.68,233.47L181.72,236.78L181.74,239.4L181.84,230.97L182.45,303.31L182.58,279.63L182.6,266.11L182.61,277.81L183.24,231.98L183.34,266.53L183.36,267.44L183.83,303.42L184.04,261.06L184.09,266.36L184.1,255.87L184.5,230.72L184.87,296.82L184.89,271.18L185.23,303.97L185.59,238.91L185.6,249.91L185.62,240.49L185.91,232.12L186.39,300.95L186.48,290.93L186.49,283.19L186.56,280.65L186.61,298.54L186.62,259.66L186.64,298.67L187.27,232.28L187.35,236.97L187.37,236.33L187.38,233.8L187.68,302.9L187.87,297.78L187.88,297.78L188.05,302.48L188.1,291.96L188.11,266.86L188.13,287.41L188.71,233.83L188.84,269.18L188.86,261.44L189.36,303.99L189.6,267.5L189.62,272.88L189.92,235.27L190.3,289.19L190.33,283.59L190.35,294.32L190.75,302.78L190.81,278L190.83,279.66L190.85,269.51L191.45,236.99L191.62,286.67L191.64,286.67L192.17,302.82L192.37,265.47L192.38,264.72L192.85,233.02L192.97,267.95L192.98,279.26L193.54,301.52L193.66,264.49L193.73,288.35L193.74,275.19L193.76,277.26L194.13,239.88L194.17,245.12L194.19,241.89L194.46,303.33L194.6,201.82L194.83,201.82L194.85,201.82L194.87,303.96L195.59,241.99L195.61,240.79L195.62,239.54L195.83,302.81L195.86,302.81L195.88,302.81L196.38,266.55L196.49,272.27L196.51,260.17L196.92,234.9L197.15,278.37L197.17,290.18L197.34,302.81L197.7,245.91L197.98,252.47L198,259.77L198.38,232.46L198.61,298.77L198.74,252.67L198.76,252.67L198.96,298.88L199.43,241.11L199.44,240.39L199.72,233.09L200.26,298.42L200.32,280.88L200.33,265.31L200.35,302.7L200.98,234.24L201.06,235.29L201.08,241.1L201.09,231.3L201.61,303.24L201.77,262.43L201.78,296.52L202.4,231.79L202.54,237.24L202.55,239.44L202.71,301.48L203.31,270.51L203.33,265.01L203.81,233.75L204.06,292.63L204.07,244.7L204.42,302.54L204.83,256.44L204.85,260.77L204.86,261.38L205.19,236.66L205.2,240.1L205.22,235.39L205.25,234.96L205.82,303.41L206.06,268.97L206.08,266.87L206.59,234.33L206.77,297.25L206.81,271.51L206.82,256.35L207.24,301.58L207.55,251.27L207.57,257.17L207.58,243.17L207.88,235L208.47,300.96L208.48,296.21L208.5,295.53L208.57,302.4L209.14,242.49L209.16,247.81L209.37,237.4L209.73,303.05L209.83,292.55L209.85,295.31L209.92,303.02L210.03,229.5L210.38,251.53L210.39,246.08L210.73,237.96L211.24,301.42L211.25,301.42L212.12,240.2L212.15,242.47L212.17,241.37L212.45,303.97L212.95,267.75L212.97,268.91L213.49,238.16L213.66,283.31L213.67,263.74L213.69,291.04L213.97,302.77L214.46,250.89L214.47,256.91L214.49,260.67L214.85,238.32L215.09,300.13L215.1,284.33L215.12,298.37L215.2,303.48L215.92,246.25L215.95,254.62L215.96,254.49L215.98,256.06L216.09,238.45L216.31,246.5L216.32,201.82L216.77,303.96L217.14,266.96L217.15,259.73L217.63,235.73L217.91,289.63L217.93,275.68L217.94,277.72L218.2,302.62L218.61,244.6L218.63,249.37L218.64,247.45L219,235.26L219.14,273.49L219.17,272.08L219.19,277.87L219.37,302.9L220.2,242.8L220.22,249.24L220.36,241.6L220.59,303.47L220.89,282.62L220.91,282.62L220.96,300.51L221.04,240.17L221.59,256.83L221.61,252.79L221.98,300.89L222.34,201.82L222.35,293.39L222.38,303.09L222.41,289.8L222.44,291.54L222.45,252.55L222.55,288L223.11,238.51L223.18,244.03L223.2,245.43L223.44,303.93L223.97,268.13L223.99,273.71L224,274.02L224.06,259.8L224.07,262.75L224.09,251.58L224.37,238.93L224.82,302.5L225.13,293.23L225.15,293.03L225.18,297.68L225.76,238.86L225.78,243.91L225.86,236.61L226.11,300.69L226.12,300.69L226.14,300.69L226.35,303.44L226.92,253.08L226.94,257.72L226.95,246.85L227.28,239.53L227.64,303.44L227.81,303.01L227.83,292.02L227.91,298.29L228.44,245.02L228.49,248.93L228.5,243.46L228.64,237.6L229.13,303.21L229.29,274.24L229.3,269.97L229.32,280.1L229.98,237.48L229.99,243.97L230,241.88L230.03,237.16L230.12,284.45L230.15,282.12L230.16,291.24L230.62,303.56L230.75,268.18L230.86,273.84L230.88,272.58L231.31,239.15L231.58,289.62L231.59,289.62L231.61,302.37L231.64,303.77L231.85,290.02L231.91,290.02L231.92,279.03L232.01,301.82L232.54,247.29L232.55,248.06L232.57,246.23L232.7,239.36L233.31,303.41L233.43,278.5L233.44,270.82L233.47,283.69L234.12,239.01L234.13,245.09L234.14,238.3L234.39,302.52L234.45,211.08L234.88,264.91L234.89,262.03L235.43,237.98L235.68,294.62L235.69,294.04L235.95,251.64L236.11,303.26L236.37,277.53L236.38,267.67L236.87,238.21L237.08,288.9L237.14,283.61L237.15,272.47L237.45,303.41L237.84,243.25L237.86,250.75L238.28,235.86L238.46,285.65L238.57,272.51L238.59,279.32L238.79,290.19L239.39,237.61L239.4,245.39L239.56,234.01L239.72,258.81L239.73,273.16L239.75,272.53L239.76,292.47L239.83,286.12L239.85,298.3L239.9,302.23L240.59,247.76L240.65,251.56L240.66,260.76L240.99,234.28L241.26,301.42L241.37,289.34L241.38,289.28L241.51,303.32L241.98,253.2L242.08,263.58L242.1,264.31L242.33,236.97L242.68,302.71L242.91,300.34L242.93,295.17L242.96,301.66L243.46,251.27L243.47,254.33L243.49,247.15L243.76,234.74L244.03,303.79L244.07,302.25L244.09,299.31L244.16,288.87L244.36,303.31L244.42,289.61L244.43,270.21L244.55,276.34L245.18,237.27L245.22,254.98L245.23,277.2L245.45,303.76L245.79,279.48L245.81,274.94L246.44,235.55L246.59,248.62L246.61,259.44L247.01,291.62L247.28,257.55L247.35,260.73L247.37,262.82L247.91,234.69L248.04,266.44L248.06,259.73L248.07,299.35L248.1,249.03L248.83,253.55L248.84,244.69L249.33,224.36L249.82,303.64L249.99,292.01L250,268.76L250.06,279.6L250.65,239.99L250.69,245.97L250.71,245.18L251.28,302.12L251.49,289.01L251.51,287.22L252.02,241.62L252.21,302.08L252.22,302.08L252.24,302.08L252.6,302.08L252.61,280.64L252.71,285.99L252.97,260.14L252.98,256.62L253.04,255.93L253.06,258.32L253.07,266.62L253.41,239.35L253.69,303.43L253.77,303.34L253.79,303.34L253.94,275.28L254.1,282.02L254.12,297.86L254.17,300.44L254.7,243.9L254.89,285.46L254.9,293.86L255.09,303.78L255.26,279.61L255.32,301.74L255.33,257.21L255.42,301.62L255.89,246.55L256.06,246.97L256.08,250.97L256.15,243.01L256.58,303.58L257.01,287.96L257.02,273.5L257.05,274.75L257.53,245.14L257.58,252.91L257.6,267.24L257.8,302.38L258.01,221.68L258.36,281.25L258.37,272.5L258.9,243.44L259.17,303.86L259.19,303.86L259.39,303.86L259.4,298.75L259.49,303.51L259.76,272.34L259.78,274.75L259.79,264.41L260.29,241.29L260.41,303.79L260.59,296.18L260.61,296.18L260.94,296.18L260.95,298.36L260.96,302.95L261.58,244.68L261.59,252.85L261.61,244.2L261.65,243.31L262.2,298.58L262.45,287.54L262.47,280.29L263.07,244.55L263.19,295.43L263.21,285.06L263.23,285.06L263.43,297.79L263.53,249.2L263.89,280.83L263.9,266.5L264.26,241.77L264.65,300.24L264.68,297.02L264.69,272.2L264.78,257.83L264.96,298.42L265.19,274.46L265.21,266.71L265.56,242.59L265.86,277.53L265.96,270.71L265.98,246.54L266.19,300.33L266.27,225.92L266.72,249.7L266.74,253.46L267.11,240.26L267.37,279.35L267.38,279.35L267.67,217.75L267.73,298.7L268.19,249.98L268.2,252.14L268.54,239.06L268.84,295.34L268.89,245.09L268.9,294.87L269.1,240.75L269.16,303.84L269.72,247.63L269.73,260.22L269.89,239.43L270.18,301.78L270.42,292.78L270.43,295.4L271.21,236.75L271.22,238.86L271.24,241.23L271.31,236.48L271.52,298.99L271.58,285.41L271.59,303.6L272.47,238.52L272.48,248.18L272.68,236.11L272.9,297.21L273.14,280.12L273.16,295.99L274.06,231L274.1,243.91L274.12,255.68L274.37,295.47L274.73,248.63L274.85,260.61L274.86,268.2L275.42,231.85L275.62,252.69L275.64,260.27L275.74,299.97L276.09,257.59L276.21,271.91L276.22,262.94L276.25,266.14L276.39,247.65L276.47,252.24L276.48,240.82L276.81,231.35L277.01,286.75L277.15,268.76L277.17,276.58L277.31,281.53L277.93,231.98L277.94,239.95L277.96,233.14L278.19,231.15L278.27,266.1L278.29,280.72L278.46,303.81L279.06,246.5L279.07,249.07L279.52,231.85L279.7,299.64L279.72,299.64L279.79,303.27L280.48,256.52L280.49,257.26L280.51,264.49L280.76,231.11L281.14,301.63L281.19,283.42L281.21,289.42L281.44,300.73L281.85,237.55L281.98,244.15L282,242.73L282.21,230.32L282.4,277.64L282.41,273.45L282.43,281.41L282.73,303.32L283.2,258.8L283.21,264.83L283.67,230.43L283.9,299.7L283.92,289.47L283.93,297.97L284.19,303.7L284.47,258.3L284.59,268.24L284.6,261.28L284.96,234.22L285.26,285.88L285.28,281.3L285.29,289.2L285.51,298.22L286.11,241.91L286.12,243.34L286.14,242.03L286.17,243.51L286.37,232.56L286.48,240.33L286.49,259.65L286.91,298.16L287.05,233.72L287.07,260.82L287.08,300.25L287.66,233.08L287.84,238.98L287.86,249.07L288.11,302.88L288.62,268.65L288.63,272.11L289.19,232.07L289.33,291.57L289.35,288.74L289.36,288.74L289.5,303.55L289.99,265.96L290,271.65L290.02,266.3L290.56,236.11L290.69,298.22L290.71,299.79L291.04,303.95L291.21,273.15L291.34,282L291.35,277L291.38,282.12L291.45,265.76L291.47,271.98L291.48,257.69L291.85,234.99L292.17,302.54L292.25,288.68L292.27,302.83L292.3,303.98L293.07,236.75L293.09,237.06L293.3,230.44L293.77,298.94L293.97,263.76L293.99,261.17L294.03,272.44L294.62,230.82L294.7,230.94L294.72,235.95L294.92,294.61L295.31,251.28L295.32,246.83L295.39,261.01L295.84,231.59L296.01,236.52L296.02,231.95L296.07,231.15L296.27,284.11L296.82,260.92L296.84,254.38L297.43,231.53L297.63,292.3L297.64,290.81L297.88,301.59L298.83,231.38L298.86,242.27L298.87,251.17L299.09,303.76L299.43,267.35L299.45,256.61L299.66,279.93L300.06,231.82L300.22,236.3L300.23,241.8L300.55,301.94L301.02,271.02L301.04,270.3L301.48,234.44L301.72,293.35L301.75,275.01L301.77,302.25L301.94,303.4L302.57,237.42L302.58,243.8L302.6,251.1L302.84,232.04L303.24,303.01L303.29,297.74L303.3,300.21L304.23,231.52L304.35,236.44L304.36,242.07L304.78,240.71L304.82,296.24L305.13,265.73L305.15,266.18L305.69,231.79L305.82,259.81L305.84,264.22L306.02,280.23L306.05,239.96L306.52,260.18L306.54,250.27L307.03,231.07L307.31,287.48L307.37,286.09L307.38,281.36L307.47,292.01L308.21,235.69L308.24,237.8L308.26,236.07L308.44,231.97L308.56,266L308.57,269.4L308.72,289.82L308.83,204.25L309.4,244.15L309.42,245.83L309.82,232.42L310.05,301.11L310.09,276.94L310.11,283.13L310.22,298.12L310.95,231.96L310.97,232.06L310.98,235.14L311.22,230.59L311.25,249.87L311.28,243.65L311.29,253L311.44,300.25L312.05,257.06L312.07,259.87L312.6,230.74L312.74,269.19L312.8,267.88L312.81,274.46L312.94,287.27L313.57,231.58L313.72,233.33L313.73,234.43L313.8,231.52L314.23,254.82L314.27,250.9L314.29,270.68L314.43,209.75L315.05,232.47L315.06,233.07L315.65,292.83L315.74,224.49L315.87,249.6L315.88,236.81L316.17,253.78L316.62,231.26L316.64,231.33L316.65,231.07L316.74,239.16L316.75,257.86L317.13,283.98L317.36,249.23L317.44,258.23L317.46,248.69L318.09,230.26L318.31,301.77L318.33,291.47L318.59,303.14L318.99,256.43L319.03,257.74L319.05,255.81L319.35,231.38L319.78,303.89L319.86,297.45L319.88,297.67L319.93,298.3L320.65,232.26L320.66,236.49L320.68,235.41L320.84,231.39L320.98,303.83L321.22,299.54L321.24,299.54L322.18,231.35L322.24,239.61L322.25,259.1L322.5,300.57L322.83,254.51L323.01,272.41L323.03,273.58L323.5,231.54L323.74,239.67L323.76,289.4L323.89,294.82L324.16,203.22L324.5,240.95L324.52,239.42L324.56,231.57L325.12,292.39L325.22,252.85L325.23,259.56L325.35,264.19L325.56,229.3L325.79,241.52L325.81,239.87L326.34,230.73L326.54,280.92L326.64,263.88L326.65,261.6L326.72,289.66L327.51,231.14L327.53,231.85L327.71,230.8L327.76,243.22L327.77,246.09L327.99,289.52L328.49,241.93L328.52,246.22L328.53,243.6L328.93,231.08L329.17,257.93L329.19,262.27L329.26,256.74L329.27,278.04L329.29,285.77L329.39,287.52L329.68,237.98L330.05,245.88L330.06,249.72L330.39,232.05L330.72,279.87L330.91,262.75L330.92,257.15L330.95,268.58L331.5,233.84L331.55,240.31L331.57,232.64L331.65,231.61L331.98,274.78L332,279.01L332.05,275.85L332.13,289.37L332.15,277.54L332.17,275.67L332.18,285.42L332.4,224.61L332.87,233.69L332.89,231.83L333.17,231.27L333.57,260.29L333.76,246.23L333.77,236.74L333.9,252.69L334.48,231.83L334.5,232.66L334.52,232.05L334.59,231.79L334.62,237.85L334.63,247.15L334.72,237.08L334.78,265.55L334.91,252.84L334.92,261.86L334.99,265.15L335.89,231.49L335.91,231.63L335.95,231.42L336.11,276.84L336.28,263.4L336.3,230.52L336.31,295.11L336.45,218.73L337.05,235.74L337.07,236.4L337.3,233.27L337.37,245.47L337.38,259.56L337.4,259.07L337.44,275.99L337.46,281.56L337.5,287.82L338.19,231.1L338.24,232.87L338.26,231.41L338.64,230.78L339,298.18L339.03,243.04L339.05,238.19L339.09,303.28L339.13,229.32L339.82,231.7L339.83,231.09L340.03,230.35L340.12,242.17L340.13,247.52L340.48,302.05L340.66,224.16L340.81,247.43L340.82,246.07L341.42,231.82L341.51,247.71L341.52,258.69L341.54,258.12L341.55,287.75L341.65,301.43L341.87,229.83L341.91,279.91L341.93,213.1L341.95,292.78L341.97,208.82L342.67,233.11L342.68,231.03L342.76,231.21L342.77,230.57L342.8,230.76L342.81,238.32L342.83,237.77L342.91,246.71L342.93,262.7L343,273.6L343.32,236.22L343.62,254.33L343.63,255.11L344.12,230.82L344.3,259.59L344.32,268.26L344.33,269.82L344.75,231.96L344.91,245.14L344.92,242.66L345.18,231.74L345.74,293.45L345.75,261.65L345.77,253.09L345.79,208.91L345.81,295.63L346.52,231.82L346.54,232.35L346.62,231.73L346.88,242.41L346.9,243.72L347.1,265.34L347.24,223.14L347.26,299.8L347.38,207.46L348.01,231.53L348.03,232.43L348.22,231.29L348.37,246.43L348.39,279.18L348.44,299.69L348.69,207.96L349.13,235.05L349.15,234.88L349.62,231.5L349.86,276.82L349.98,274.9L349.99,274.52L350.03,275.46L350.26,229.8L350.71,251.11L350.72,251.75L351.22,273.17L351.38,210.41L351.4,300L351.52,204.48L352.16,230.95L352.17,231.46L352.36,229.89L352.46,241.14L352.47,241.75L352.51,263.67L353,224.1L353.19,242.06L353.2,244.14L354.3,205.38L354.32,205.38L354.6,243.52L355.08,231.7L355.09,231.17L355.11,231.01L355.12,231.69L355.14,238.55L355.18,239.37L355.29,206.97L355.41,206.97L355.42,206.97L355.74,206.97L355.75,209.84L355.81,248.45L356.52,238.92L356.54,238.31L356.6,237.89L356.61,242.43L356.63,250.61L356.71,202.36L356.75,290.47L357.3,254.34L357.31,255.79L357.86,230.67L357.99,247.25L358,259.59L358.09,285.15L358.52,235.13L358.73,253.8L358.75,243.88L359.23,229.94L359.45,287.62L359.46,288.17L359.63,288.86L360.52,231.6L360.58,231.76L360.59,232.32L360.62,231.87L360.67,240.31L360.71,239.96L360.72,242.74L360.87,289.39L361.15,236.77L361.28,253.96L361.3,259.11L361.31,260.61L361.74,231.24L361.85,232.12L361.87,231.88L361.9,230.83L362.13,246.3L362.14,259.66L362.54,230.01L362.69,266.26L363.26,232L363.27,231.76L363.34,230.88L363.37,231.84L363.39,239.16L363.5,246.06L363.52,260.05L363.57,270.66L363.72,251.53L363.73,251.75L363.75,250.39L363.76,251.47L363.96,227.4L364.33,232.41L364.35,232.33L364.68,230.21L364.86,241.77L364.88,245.73L364.98,293.52L365.11,210.16L365.62,245.98L365.64,245.63L365.65,245.91L365.87,231.13L365.89,231.7L365.91,231.27L366.11,229.2L366.14,237.62L366.15,238.9L366.18,238.39L366.25,244.72L366.27,255.3L366.35,303.85L366.73,232.58L366.98,241.44L367,233.04L367.47,230.1L367.51,237.74L367.53,237.57L367.73,286.68L367.84,266.72L367.86,250.15L367.97,223.88L368.06,290.03L368.59,230.97L368.6,231.27L368.73,230.75L369.06,267.07L369.36,251.15L369.38,238.77L369.49,229.63L369.66,246.39L370.18,230.61L370.19,230.22L370.46,260.38L370.64,252.99L370.65,214.04L370.69,285.44L370.77,227.3L370.78,207.89L370.79,267.39L371.52,230.74L371.54,231.07L371.58,230.59L371.75,243.24L371.77,255.54L371.8,259.48L372.18,221.77L372.47,245.34L372.48,242.41L372.94,230.64L373.17,258.49L373.19,258.01L373.23,259.32L373.37,247.57L373.53,254.61L373.55,302.71L373.6,223.62L374.32,231.28L374.33,231.63L374.35,230.33L374.5,269.02L374.55,251.3L374.56,300.65L374.78,202.76L375.32,244.76L375.34,244.12L375.85,207.34L376.08,303L376.11,264.31L376.12,264.31L376.14,279.82L376.75,230.32L376.81,230.39L376.83,230.85L377.11,229.84L377.4,291.6L377.61,246.87L377.63,241.88L377.66,249.14L377.73,227.77L378.4,232.2L378.42,232.2L378.5,231.44L378.65,253.02L378.69,241.2L378.7,253.08L378.76,224.73L378.77,303.27L379.43,253.82L379.45,246.23L379.86,229.71L380.09,286.15L380.11,291.88L380.25,219.32L380.87,243.2L380.88,242.42L381.01,243.28L381.05,241.88L381.07,230.85L381.24,229.56L381.42,256.31L381.45,251.45L381.47,255.78L381.6,217.88L381.7,284.42L382.26,230.9L382.27,231.18L382.54,229.75L382.79,256.17L382.8,267.11L382.89,217.4L382.9,286.27L382.91,260.39L382.93,205.3L382.96,275.28L383.67,230.94L383.69,230.88L383.77,230.36L384.22,291.14L384.23,253.98L384.25,230.59L384.38,298.94L384.49,214.1L384.99,230.13L385.01,230.27L385.25,229.51L385.52,253.66L385.54,262.25L385.72,301.06L385.81,203.25L386.32,242.59L386.34,242.91L386.71,229.87L386.9,260.64L386.96,239.86L386.97,297.52L387.26,214.23L387.27,298.15L387.73,238.55L387.74,238.43L387.97,239.48L388.04,229.2L388.09,230L388.1,229.27L388.19,228.48L388.24,241.76L388.26,244.05L388.37,284.99L388.96,239.83L389,251.87L389.02,251.74L389.05,252.58L389.26,241.22L389.3,241.63L389.32,236.65L389.55,228.39L389.76,279.69L390.05,244.95L390.06,244.04L390.18,263.03L390.88,228.58L390.94,229.02L390.95,237.85L391.05,258.81L391.43,225.26L391.53,239.3L391.54,247.38L391.58,253.7L392.24,229.03L392.26,229.15L392.3,228.74L392.4,260.88L392.41,218.44L392.64,279.85L392.74,207.06L393.17,249.29L393.19,231.06L393.67,228.52L393.75,242.24L393.76,251.45L394.05,293.77L394.08,216.96L394.48,238.88L394.49,239.46L394.98,228.66L395.06,229.18L395.08,236.67L395.21,271.59L395.22,282.25L395.25,294.08L395.88,238.8L395.9,239.42L396.43,227.72L396.44,228.79L396.45,235.98L396.51,243.22L396.53,248.55L396.64,273.77L397,233.21L397.27,238.46L397.28,238.45L397.8,227.39L397.9,250.49L397.92,266.9L398.13,293.53L398.16,219.78L398.72,227.92L398.73,227.62L399.1,226.18L399.22,236.43L399.23,236.13L399.25,240.62L399.36,299.8L399.49,211.85L399.99,243.21L400.01,242.73L400.31,226.98L400.75,269.75L400.77,263.62L400.78,219.8L401,210.12L401.01,285.04L401.53,227.49L401.54,227.37L401.83,226.83L402.13,262.25L402.31,237.87L402.33,233.81L402.49,213.55L403.1,227.99L403.12,227.2L403.32,226.7L403.39,233.63L403.4,238.5L403.59,281.18L403.89,230.86L404.13,239L404.15,238.95L404.38,227.19L404.72,235.28L404.73,235.79L404.88,296.09L405.28,226.78L405.42,238.46L405.44,238.69L405.51,239.07L405.77,226.36L405.87,227.16L405.88,226.52L406.05,226.34L406.15,236.02L406.17,245.27L406.4,269.41L406.64,225.15L406.84,240.51L406.86,239.28L406.9,239.32L407.43,227.56L407.49,238.29L407.5,239.99L407.74,299.59L407.96,210.02L408.24,237.03L408.26,237.23L408.82,226.33L408.9,234.6L408.92,244.72L408.98,239.8L409,258.72L409.16,241.05L409.18,264.7L409.32,206.44L409.94,227.62L409.95,227.58L410.12,226.7L410.28,233.99L410.29,242.65L410.35,250.11L410.72,215.99L410.75,218.86L410.77,216.19L410.85,235.66L411.54,227.89L411.55,227.93L411.57,227.27L411.68,243.83L411.7,251.58L411.74,254.05L412.14,216.18L412.53,228.23L412.54,228.55L412.92,226.79L413,233.71L413.02,236.23L413.32,203.28L413.39,287.4L413.75,230.96L413.76,230.74L414.32,226.53L414.49,249.05L414.55,239.11L414.56,208.75L414.59,254.72L415.32,227.27L415.34,227.29L415.92,217.42L416.12,289.15L416.15,247.16L416.17,214.04L416.18,278.7L416.24,203.37L416.91,226.93L416.93,226.42L417.07,226.26L417.24,247.27L417.26,275.64L417.46,277.25L417.54,224.34L418.03,226.86L418.04,227.34L418.33,226.36L418.39,228.74L418.45,227.54L418.46,231.12L418.49,230.59L418.63,250.22L418.65,245.06L418.66,260.85L418.7,262.27L418.99,224.44L419.42,227.4L419.43,228.04L419.72,226.79L419.88,233.51L419.89,240.77L420.11,269.3L420.32,215.31L420.67,233.86L420.68,233.6L421.01,227.18L421.3,249.36L421.35,243.44L421.37,266.75L421.47,298.24L421.74,208.08L422.08,234.71L422.1,234.71L422.54,226.43L422.7,261.83L422.71,267.1L422.96,290.94L423.67,201.96L423.69,201.96L424,201.96L424.02,207.17L424.2,301.09L424.53,202.58L424.62,202.58L424.63,202.58L425.38,202.61L425.39,208.94L425.62,300.1L425.75,241.95L425.77,225.21L425.84,291.22L425.91,204.86L426.48,204.86L426.5,204.86L426.8,204.86L426.81,211.33L427.17,289.7L427.3,202.74L427.54,202.74L427.56,202.74L428.13,202.89L428.14,207.91L428.57,302.96L428.63,245.13L428.65,230.8L429.41,205.48L429.42,205.48L429.51,201.89L429.56,219.97L429.58,248.81L429.91,299.26L430.05,203.06L430.28,203.06L430.29,203.06L430.88,203.16L430.9,210.1L431.28,301.38L431.43,202.67L431.55,202.67L431.57,202.67L432.27,202.51L432.29,206.51L432.4,279.94L432.79,202.62L433.03,202.62L433.04,202.62L433.23,202.62L433.25,201.82L433.82,287.44L434.08,271.04L434.09,242.84L434.13,258.39L434.49,225.09L434.82,226.74L434.84,225.19L435.34,303.13L435.35,205.18L435.38,298.34L436.1,239.51L436.11,237.33L436.57,297.67L436.67,202.96L436.74,237.7L436.76,277.55L436.78,208.04L437.51,228.31L437.53,228.33L437.56,226.26L437.79,251.58L437.8,258.43L437.82,257.97L437.86,270.07L437.9,268.3L437.92,275.8L437.99,276.7L438.2,213.31L438.69,228.02L438.7,227.45L439.05,226.09L439.1,234.55L439.12,236.37L439.29,284.96L439.48,224.85L439.89,250.27L439.91,249.41L440.08,237.64L440.15,237.75L440.17,228.16L440.39,225.88L440.58,242.11L440.59,258.63L440.82,269.3L440.88,216.66L441.35,238.13L441.37,238.04L441.76,225.67L442.01,260.45L442.06,227.44L442.07,285.48L442.21,204.83L442.26,302.19L442.77,227.58L442.79,226.52L443.15,225.24L443.35,284.05L443.36,286.12L443.59,223.52L443.62,302.9L444.12,238.13L444.13,237.38L444.39,224.9L444.68,262.73L444.69,272.71L444.72,286.47L445.18,218.39L445.39,249.15L445.41,251L445.82,226.16L446.05,261.9L446.07,270L446.38,282.75L446.48,204.61L446.73,236.44L446.74,237.54L446.81,238L447.19,225.73L447.34,234.42L447.36,234.56L447.63,281.04L447.74,243.74L447.76,238.21L447.92,217.51L448.15,240.13L448.55,228.12L448.56,228.21L448.69,226.56L448.79,241.57L448.8,248.93L448.89,269.99L449.31,216.2L449.52,237.17L449.53,237.52L449.72,226.21L450.21,271.43L450.31,254.95L450.32,230.15L450.34,254.9L450.61,213.93L451.07,240.92L451.08,241.46L451.41,226.18L451.51,245.5L451.53,264.65L451.66,294.55L452.06,218.57L452.54,228.23L452.56,228.68L452.79,226.65L452.93,262.89L452.94,275.98L453.03,291.77L453.42,244.74L453.63,250.22L453.65,250.05L454.19,226.6L454.28,241.54L454.29,252.13L454.38,286.24L454.82,222.17L455.01,249.03L455.02,249.47L455.47,226.42L455.62,233.47L455.64,244.59L455.85,283.11L456.38,241.36L456.4,239.92L456.86,227.06L457.03,254.42L457.06,251.47L457.07,266.29L457.17,290.32L458.1,226.38L458.12,226.74L458.13,228.06L458.16,225.96L458.43,252.93L458.45,260.89L458.52,269.47L458.89,218.19L459.31,226.91L459.32,227.15L459.55,226.27L459.76,239.54L459.78,242.05L460.08,298.95L460.25,208.91L460.55,248.7L460.57,248.75L461.04,225.87L461.27,275L461.3,256.65L461.31,256.65L461.35,302.95L461.38,210.37L462.07,239.5L462.09,238.71L462.24,226.77L462.73,298.64L462.93,250.65L462.94,247.52L463.03,240.46L463.1,262.84L463.12,266.49L463.17,268.36L463.33,241.51L463.35,230.39L463.83,225.52L463.95,278.13L463.96,276.65L463.98,284.51L464.03,293.71L464.45,219.31L464.56,237.75L464.58,237.23L464.68,255.58L464.95,227.15L464.96,227.99L464.98,227.82L465.21,227L465.55,295.53L465.68,268.01L465.7,235.02L465.71,270.3L465.81,212.8L466.44,226.85L466.45,226.4L466.5,226.19L466.74,287.95L466.76,303.69L466.97,204.76L467.53,237.56L467.54,237.68L467.62,239.12L467.63,237.62L467.64,226.52L467.69,229.18L467.76,226.86L467.77,298.23L468.53,220.9L468.55,218.02L468.56,216.58L468.65,248.23L469.23,226.19L469.25,227.81L469.31,226.37L469.48,253.13L469.56,250.72L469.58,281.96L469.74,202.63L469.75,294.92L470.32,241.06L470.34,246.58L470.7,226.39L470.91,280.48L471.1,247.71L471.11,246.81L471.14,251.34L471.31,215.46L471.78,241.06L471.8,229.69L472,227.73L472.17,259.85L472.19,273.04L472.3,292.24L472.62,251.85L472.63,247.38L472.74,256.05L473.07,226.35L473.23,227.27L473.25,226.73L473.37,226.04L473.53,239.79L473.55,252.66L473.72,298.36L474.19,244.37L474.29,250.18L474.31,249.17L474.81,225.98L475.12,295.78L475.15,285.84L475.17,268.25L475.29,279.55L476.15,225.9L476.18,227.97L476.2,226.58L476.21,226.22L476.28,249.76L476.3,263.97L476.41,291.43L476.81,215.37L477.01,237.14L477.03,237.31L477.43,226.34L477.73,286.79L477.84,252.76L477.86,249.26L478.07,265.38L478.15,223.7L478.82,226.99L478.83,228.44L478.88,226.02L479.06,256.8L479.11,256.17L479.12,259.78L479.16,289.35L479.44,202.84L479.86,228.66L479.88,227.39L480.27,226.52L480.35,232.22L480.37,235.2L480.64,217.02L480.85,301.99L481.03,245.45L481.04,243.54L481.17,252.83L481.56,230.15L481.77,241.51L481.78,250.29L481.81,241.26L481.93,303.45L482.01,276.15L482.03,231.92L482.06,290.43L482.2,216.08L482.77,235.49L482.79,236.17L482.87,238.1L482.92,236.03L483.1,237.24L483.12,201.84L483.3,286.96L483.88,244.32L483.89,236.51L484.15,226.17L484.55,265.81L484.56,272.45L484.61,302.26L484.85,243.69L485.17,267.38L485.18,254.8L485.72,227.46L485.91,264.02L485.93,264.31L486.14,225.95L486.4,298.96L486.61,256.18L486.63,252.89L486.93,226.95L487.33,267.83L487.34,260.24L487.36,274.76L487.5,283.98L487.53,242.57L487.59,254.92L487.6,208.59L487.63,263.31L488.09,201.82L488.17,241.22L488.19,240.1L488.45,240.1L488.46,229.2L488.6,229.1L488.62,203.53L489.13,300.38L489.22,213.68L489.23,203.56L489.68,203.56L489.69,201.82L489.98,201.82L489.99,205.7L490.51,299.65L490.55,258.46L490.57,242.32L491.34,201.82L491.36,201.82L491.81,299.62L491.93,271.04L491.94,236.56L492.74,204.42L492.76,208.42L493.25,303L493.45,208.93L493.46,208.93L494.11,208.93L494.12,202.05L494.59,292.49L494.78,207.45L494.79,207.45L495.37,207.45L495.38,201.82L495.52,213.12L495.54,232.1L495.68,294.73L496.08,201.96L496.27,201.96L496.28,201.96L496.87,201.82L496.89,202.18L496.9,203.25L496.93,202.36L497.13,223.58L497.14,220.72L497.16,232.13L497.33,295.42L497.37,227.65L497.39,214.49L497.47,216.72L498.15,203.53L498.16,203.53L498.23,202.05L498.32,215.67L498.33,229.41L498.59,299.52L498.85,203.59L498.89,203.59L498.91,203.59L499.62,203.89L499.64,210.42L499.87,303.49L500.22,209.45L500.38,209.45L500.4,209.45L500.98,209.45L501,206.56L501.4,299.3L501.68,240.66L501.7,240.8L501.74,237.96L501.77,249.11L502,239.98" style="vector-effect: non-scaling-stroke; fill: none; stroke: rgb(255, 0, 0); stroke-opacity: 1; stroke-width: 2px; opacity: 1;"/></g><g class="points"/><g class="text"/></g></g></g><g class="overplot"/><path class="xlines-above crisp" style="fill: none;" d="M0,0"/><path class="ylines-above crisp" style="fill: none;" d="M0,0"/><g class="overlines-above"/><g class="xaxislayer-above"><g class="xtick"><text text-anchor="middle" x="0" y="433" transform="translate(80,0)" style="font-family: 'Open Sans', verdana, arial, sans-serif; font-size: 12px; fill: rgb(42, 63, 95); fill-opacity: 1; white-space: pre; opacity: 1;">Mar 2022</text></g><g class="xtick"><text text-anchor="middle" x="0" y="433" style="font-family: 'Open Sans', verdana, arial, sans-serif; font-size: 12px; fill: rgb(42, 63, 95); fill-opacity: 1; white-space: pre; opacity: 1;" transform="translate(163.9,0)">May 2022</text></g><g class="xtick"><text text-anchor="middle" x="0" y="433" style="font-family: 'Open Sans', verdana, arial, sans-serif; font-size: 12px; fill: rgb(42, 63, 95); fill-opacity: 1; white-space: pre; opacity: 1;" transform="translate(247.8,0)">Jul 2022</text></g><g class="xtick"><text text-anchor="middle" x="0" y="433" style="font-family: 'Open Sans', verdana, arial, sans-serif; font-size: 12px; fill: rgb(42, 63, 95); fill-opacity: 1; white-space: pre; opacity: 1;" transform="translate(333.07,0)">Sep 2022</text></g><g class="xtick"><text text-anchor="middle" x="0" y="433" style="font-family: 'Open Sans', verdana, arial, sans-serif; font-size: 12px; fill: rgb(42, 63, 95); fill-opacity: 1; white-space: pre; opacity: 1;" transform="translate(416.97,0)">Nov 2022</text></g><g class="xtick"><text text-anchor="middle" x="0" y="433" style="font-family: 'Open Sans', verdana, arial, sans-serif; font-size: 12px; fill: rgb(42, 63, 95); fill-opacity: 1; white-space: pre; opacity: 1;" transform="translate(500.87,0)">Jan 2023</text></g><g class="xtick"><text text-anchor="middle" x="0" y="433" style="font-family: 'Open Sans', verdana, arial, sans-serif; font-size: 12px; fill: rgb(42, 63, 95); fill-opacity: 1; white-space: pre; opacity: 1;" transform="translate(582.01,0)">Mar 2023</text></g></g><g class="yaxislayer-above"><g class="ytick"><text text-anchor="end" x="79" y="4.199999999999999" transform="translate(0,413.3)" style="font-family: 'Open Sans', verdana, arial, sans-serif; font-size: 12px; fill: rgb(42, 63, 95); fill-opacity: 1; white-space: pre; opacity: 1;">60k</text></g><g class="ytick"><text text-anchor="end" x="79" y="4.199999999999999" style="font-family: 'Open Sans', verdana, arial, sans-serif; font-size: 12px; fill: rgb(42, 63, 95); fill-opacity: 1; white-space: pre; opacity: 1;" transform="translate(0,376.14)">40k</text></g><g class="ytick"><text text-anchor="end" x="79" y="4.199999999999999" style="font-family: 'Open Sans', verdana, arial, sans-serif; font-size: 12px; fill: rgb(42, 63, 95); fill-opacity: 1; white-space: pre; opacity: 1;" transform="translate(0,338.98)">20k</text></g><g class="ytick"><text text-anchor="end" x="79" y="4.199999999999999" style="font-family: 'Open Sans', verdana, arial, sans-serif; font-size: 12px; fill: rgb(42, 63, 95); fill-opacity: 1; white-space: pre; opacity: 1;" transform="translate(0,301.82)">0</text></g><g class="ytick"><text text-anchor="end" x="79" y="4.199999999999999" style="font-family: 'Open Sans', verdana, arial, sans-serif; font-size: 12px; fill: rgb(42, 63, 95); fill-opacity: 1; white-space: pre; opacity: 1;" transform="translate(0,264.65)">20k</text></g><g class="ytick"><text text-anchor="end" x="79" y="4.199999999999999" style="font-family: 'Open Sans', verdana, arial, sans-serif; font-size: 12px; fill: rgb(42, 63, 95); fill-opacity: 1; white-space: pre; opacity: 1;" transform="translate(0,227.49)">40k</text></g><g class="ytick"><text text-anchor="end" x="79" y="4.199999999999999" style="font-family: 'Open Sans', verdana, arial, sans-serif; font-size: 12px; fill: rgb(42, 63, 95); fill-opacity: 1; white-space: pre; opacity: 1;" transform="translate(0,190.32999999999998)">60k</text></g><g class="ytick"><text text-anchor="end" x="79" y="4.199999999999999" style="font-family: 'Open Sans', verdana, arial, sans-serif; font-size: 12px; fill: rgb(42, 63, 95); fill-opacity: 1; white-space: pre; opacity: 1;" transform="translate(0,153.16)">80k</text></g><g class="ytick"><text text-anchor="end" x="79" y="4.199999999999999" style="font-family: 'Open Sans', verdana, arial, sans-serif; font-size: 12px; fill: rgb(42, 63, 95); fill-opacity: 1; white-space: pre; opacity: 1;" transform="translate(0,116)">100k</text></g></g><g class="overaxes-above"/></g></g><g class="polarlayer"/><g class="smithlayer"/><g class="ternarylayer"/><g class="geolayer"/><g class="funnelarealayer"/><g class="pielayer"/><g class="iciclelayer"/><g class="treemaplayer"/><g class="sunburstlayer"/><g class="glimages"/><defs id="topdefs-f2cef2"><g class="clips"/><clipPath id="legendf2cef2"><rect width="96" height="48" x="0" y="0"/></clipPath></defs><g class="layer-above"><g class="imagelayer"/><g class="shapelayer"/></g><g class="infolayer"><g class="legend" pointer-events="all" transform="translate(592.04,100)"><rect class="bg" shape-rendering="crispEdges" style="stroke: rgb(68, 68, 68); stroke-opacity: 1; fill: rgb(255, 255, 255); fill-opacity: 1; stroke-width: 0px;" width="96" height="48" x="0" y="0"/><g class="scrollbox" transform="" clip-path="url(#legendf2cef2)"><g class="groups"><g class="traces" style="opacity: 1;" transform="translate(0,14.5)"><text class="legendtext" text-anchor="start" x="40" y="4.680000000000001" style="font-family: 'Open Sans', verdana, arial, sans-serif; font-size: 12px; fill: rgb(42, 63, 95); fill-opacity: 1; white-space: pre;">Opt Load</text><g class="layers" style="opacity: 1;"><g class="legendfill"/><g class="legendlines"><path class="js-line" d="M5,0h30" style="fill: none; stroke: rgb(0, 191, 255); stroke-opacity: 1; stroke-width: 2px;"/></g><g class="legendsymbols"><g class="legendpoints"/></g></g><rect class="legendtoggle" x="0" y="-9.5" width="90.703125" height="19" style="fill: rgb(0, 0, 0); fill-opacity: 0;"/></g><g class="traces" style="opacity: 1;" transform="translate(0,33.5)"><text class="legendtext" text-anchor="start" x="40" y="4.680000000000001" style="font-family: 'Open Sans', verdana, arial, sans-serif; font-size: 12px; fill: rgb(42, 63, 95); fill-opacity: 1; white-space: pre;">Load</text><g class="layers" style="opacity: 1;"><g class="legendfill"/><g class="legendlines"><path class="js-line" d="M5,0h30" style="fill: none; stroke: rgb(255, 0, 0); stroke-opacity: 1; stroke-width: 2px;"/></g><g class="legendsymbols"><g class="legendpoints"/></g></g><rect class="legendtoggle" x="0" y="-9.5" width="90.703125" height="19" style="fill: rgb(0, 0, 0); fill-opacity: 0;"/></g></g></g><rect class="scrollbar" rx="20" ry="3" width="0" height="0" style="fill: rgb(128, 139, 164); fill-opacity: 1;" x="0" y="0"/></g><g class="g-gtitle"><text class="gtitle" x="331" y="50" text-anchor="middle" dy="0em" style="font-family: 'Open Sans', verdana, arial, sans-serif; font-size: 17px; fill: rgb(42, 63, 95); opacity: 1; font-weight: normal; white-space: pre;"><tspan class="line" dy="0em" x="331" y="50">1084 CVXPy Optimized Load Output</tspan><tspan class="line" dy="1.3em" x="331" y="50">15 Minute Data</tspan><tspan class="line" dy="2.6em" x="331" y="50">From: March 01, 2022 to February 28, 2023</tspan></text></g><g class="g-xtitle"><text class="xtitle" x="331" y="460.8" text-anchor="middle" style="font-family: 'Open Sans', verdana, arial, sans-serif; font-size: 14px; fill: rgb(42, 63, 95); opacity: 1; font-weight: normal; white-space: pre;">Time</text></g><g class="g-ytitle"><text class="ytitle" transform="rotate(-90,26.840625000000003,260)" x="26.840625000000003" y="260" text-anchor="middle" style="font-family: 'Open Sans', verdana, arial, sans-serif; font-size: 14px; fill: rgb(42, 63, 95); opacity: 1; font-weight: normal; white-space: pre;">Demand (kW)</text></g></g></svg>