<svg class="main-svg" xmlns="http://www.w3.org/2000/svg" xmlns:xlink="http://www.w3.org/1999/xlink" width="700" height="500" style="" viewBox="0 0 700 500"><rect x="0" y="0" width="700" height="500" style="fill: rgb(255, 255, 255); fill-opacity: 1;"/><defs id="defs-08f10e"><g class="clips"><clipPath id="clip08f10exyplot" class="plotclip"><rect width="435" height="320"/></clipPath><clipPath class="axesclip" id="clip08f10ex"><rect x="80" y="0" width="435" height="500"/></clipPath><clipPath class="axesclip" id="clip08f10ey"><rect x="0" y="100" width="700" height="320"/></clipPath><clipPath class="axesclip" id="clip08f10exy"><rect x="80" y="100" width="435" height="320"/></clipPath></g><g class="gradients"/><g class="patterns"/></defs><g class="bglayer"><rect class="bg" x="80" y="100" width="435" height="320" style="fill: rgb(229, 236, 246); fill-opacity: 1; stroke-width: 0;"/></g><g class="layer-below"><g class="imagelayer"/><g class="shapelayer"/></g><g class="cartesianlayer"><g class="subplot xy"><g class="layer-subplot"><g class="shapelayer"/><g class="imagelayer"/></g><g class="gridlayer"><g class="x"><path class="xgrid crisp" transform="translate(142.17000000000002,0)" d="M0,100v320" style="stroke: rgb(255, 255, 255); stroke-opacity: 1; stroke-width: 1px;"/><path class="xgrid crisp" transform="translate(250.96,0)" d="M0,100v320" style="stroke: rgb(255, 255, 255); stroke-opacity: 1; stroke-width: 1px;"/><path class="xgrid crisp" transform="translate(359.75,0)" d="M0,100v320" style="stroke: rgb(255, 255, 255); stroke-opacity: 1; stroke-width: 1px;"/><path class="xgrid crisp" transform="translate(468.54,0)" d="M0,100v320" style="stroke: rgb(255, 255, 255); stroke-opacity: 1; stroke-width: 1px;"/></g><g class="y"><path class="ygrid crisp" transform="translate(0,407.35)" d="M80,0h435" style="stroke: rgb(255, 255, 255); stroke-opacity: 1; stroke-width: 1px;"/><path class="ygrid crisp" transform="translate(0,349.08000000000004)" d="M80,0h435" style="stroke: rgb(255, 255, 255); stroke-opacity: 1; stroke-width: 1px;"/><path class="ygrid crisp" transform="translate(0,290.81)" d="M80,0h435" style="stroke: rgb(255, 255, 255); stroke-opacity: 1; stroke-width: 1px;"/><path class="ygrid crisp" transform="translate(0,232.54)" d="M80,0h435" style="stroke: rgb(255, 255, 255); stroke-opacity: 1; stroke-width: 1px;"/><path class="ygrid crisp" transform="translate(0,174.26999999999998)" d="M80,0h435" style="stroke: rgb(255, 255, 255); stroke-opacity: 1; stroke-width: 1px;"/></g></g><g class="zerolinelayer"><path class="yzl zl crisp" transform="translate(0,116)" d="M80,0h435" style="stroke: rgb(255, 255, 255); stroke-opacity: 1; stroke-width: 2px;"/></g><path class="xlines-below"/><path class="ylines-below"/><g class="overlines-below"/><g class="xaxislayer-below"/><g class="yaxislayer-below"/><g class="overaxes-below"/><g class="plot" transform="translate(80,100)" clip-path="url(#clip08f10exyplot)"><g class="scatterlayer mlayer"><g class="trace scatter traceebd984" style="stroke-miterlimit: 2; opacity: 1;"><g class="fills"/><g class="errorbars"/><g class="lines"><path class="js-line" d="M0,16L435,16L435,16" style="vector-effect: non-scaling-stroke; fill: none; stroke: rgb(0, 191, 255); stroke-opacity: 1; stroke-width: 2px; opacity: 1;"/></g><g class="points"/><g class="text"/></g><g class="trace scatter trace60be21" style="stroke-miterlimit: 2; opacity: 1;"><g class="fills"/><g class="errorbars"/><g class="lines"><path class="js-line" d="M0,16L435,16L435,16" style="vector-effect: non-scaling-stroke; fill: none; stroke: rgb(255, 0, 0); stroke-opacity: 1; stroke-width: 2px; opacity: 1;"/></g><g class="points"/><g class="text"/></g><g class="trace scatter traceb28e08" style="stroke-miterlimit: 2; opacity: 1;"><g class="fills"/><g class="errorbars"/><g class="lines"><path class="js-line" d="M0,53.78L0.32,48L0.82,49.4L0.97,47.87L1.78,51.24L2.12,50.27L2.27,48.9L2.43,49.7L2.43,64.27L2.59,63.6L2.59,49.04L2.91,47.47L3.09,48.99L3.24,50.38L3.72,47.29L3.9,194.86L4.05,198.59L4.37,49.71L4.71,70.16L4.86,71.13L5.02,216.83L5.52,103.57L5.67,105.62L5.99,130.39L6.64,125.42L6.65,124.57L6.8,114.2L6.8,259.87L6.96,248.09L6.96,87.85L7.12,88.84L7.14,88.49L7.29,84.12L7.45,84.73L7.46,84.32L7.61,79.27L7.77,81.14L7.78,80.4L7.93,71.25L8.09,73.4L8.09,58.84L8.26,54.97L8.43,58.51L8.58,66.14L9.07,68.39L9.88,54.45L9.89,54.75L10.04,58.44L10.2,57.7L10.2,72.27L10.36,72.4L10.36,218.08L10.52,214.9L10.68,217.34L10.68,231.91L10.85,228.45L10.85,82.77L11.01,85.31L11.17,81.72L11.33,83.22L11.33,68.66L11.49,68.55L11.51,68.74L11.66,71.04L11.66,85.61L12.14,66.68L12.32,68.07L12.47,73.6L12.95,91.8L12.96,77.38L13.11,79.27L13.28,79.74L13.45,78.8L13.6,68.63L13.92,66.49L14.25,67.29L14.25,81.86L14.41,83.57L14.73,80.77L14.91,82.22L15.06,81.72L15.23,83.13L15.72,81.04L15.87,64.3L16.35,48.16L16.52,49.3L16.67,49.02L16.84,51.03L17.17,49.34L17.32,48.81L17.48,48.24L17.65,49.55L17.98,48.74L18.13,49.65L18.78,51.36L18.79,51.23L18.94,49.56L19.1,195.47L19.43,47.84L19.6,49.01L19.75,49.21L20.88,86.68L20.88,232.35L21.05,218.11L21.05,232.68L21.21,228.72L21.21,97.61L21.69,128.28L21.86,97.18L21.87,97.23L22.02,97.79L22.66,162.05L22.68,161.34L22.83,152.26L22.99,144.14L22.99,275.24L23.31,278.98L23.31,264.41L23.64,250.76L23.64,105.09L24.12,127.83L24.12,142.4L25.42,71.02L25.42,216.69L25.9,210.25L26.06,215.51L26.06,69.84L26.39,71.83L26.55,64.68L26.55,93.81L26.89,93.46L27.04,84.86L27.52,85.39L27.68,82.22L27.69,83.01L27.85,93.21L28.33,51.94L28.5,52.33L28.65,51.92L28.98,52.61L29.14,51.18L29.14,51.18L29.15,50.99L29.3,48.54L29.96,49.29L30.11,50.29L30.44,50.53L30.92,48.54L30.93,48.68L31.08,50.51L31.57,52.87L31.74,50.24L31.89,49.86L32.05,48.83L32.55,49.41L32.7,49.66L33.35,47.7L33.36,47.84L33.51,49.72L33.68,49.31L33.84,47.32L34.16,51.34L34.66,49.19L34.81,47.68L34.97,47.17L34.98,47.51L35.13,52.03L35.29,47.91L35.47,55.22L35.62,71.73L35.94,50.14L36.27,69.6L36.43,82.27L36.43,227.95L37.08,122.93L37.23,123.24L37.4,256.49L37.56,81.66L37.89,114.57L38.04,117.06L38.37,264.79L38.53,83.3L38.7,86.92L38.85,81.7L39.02,80.59L39.02,226.27L39.18,221.04L39.34,224.4L39.34,93.3L40.15,137.66L40.32,133.19L40.47,132.69L40.47,278.36L41.12,100.79L41.13,100.98L41.28,103.55L41.44,98.38L41.44,229.48L41.77,238.52L41.93,231.52L41.93,85.85L42.74,61.26L42.9,61.37L42.91,61.57L43.39,77.7L43.4,76.53L43.55,60.71L43.71,62.72L43.71,77.29L43.88,76.69L44.03,74.22L44.36,82.85L44.85,80.12L45.01,78.81L45.49,64.07L45.66,64.2L45.82,64.57L46.31,64.82L46.46,66.44L46.64,62.8L46.79,47.62L47.27,51.46L47.61,48.73L47.76,49.63L48.41,46.89L48.58,48.09L48.73,48.92L49.38,47.05L49.39,47.31L49.54,50.82L49.7,48.39L49.7,62.96L49.86,61.81L49.86,207.48L50.04,208.04L50.19,210.91L50.83,46.55L50.84,46.69L51,48.7L51.97,51.96L52.13,51.64L52.13,66.21L52.3,67.48L52.45,82.14L53.1,86.3L53.43,84.77L53.59,84.76L53.75,84.29L53.75,69.73L54.72,117.44L54.72,263.12L54.88,265.54L54.88,250.97L55.2,265.36L55.2,105.11L55.37,103.27L55.53,106.08L55.53,91.51L55.69,68.92L56.19,88.84L56.34,86.57L56.5,87.26L56.5,247.5L56.66,248.11L56.67,247.06L56.82,232.47L56.99,231.05L56.99,85.38L57.15,84.87L57.15,70.3L57.31,69.54L57.31,84.11L57.47,81.31L57.63,85.3L57.63,70.74L57.79,67.67L57.97,68.93L58.12,83.28L58.29,81.21L58.44,68.29L58.6,84.32L59.09,67.29L59.1,67.36L59.25,68.34L59.41,69.04L59.59,67.34L59.74,66.69L59.9,65.75L59.9,51.18L60.06,52.16L60.23,50.46L60.39,48.86L60.71,47.92L61.21,48.63L61.36,49.03L62.33,47.42L62.34,47.48L62.49,48.3L62.66,52.3L63.15,49.8L63.3,49.09L63.62,47.95L63.8,48.68L63.95,50.54L64.76,46.94L64.77,47.12L64.92,49.58L65.57,47.28L65.58,47.41L65.73,49.28L65.9,49.07L66.05,47.17L66.7,50.87L66.86,50.27L66.86,64.84L67.02,63.96L67.18,65.19L67.35,64.41L67.35,49.84L67.51,49.58L67.51,64.15L67.99,67.55L68.17,65.47L68.32,64.27L68.64,196.31L68.8,49.64L68.98,65.91L69.13,66.3L69.77,85.91L69.79,85.69L69.94,82.46L70.26,201.44L70.59,52.42L70.75,52.12L71.23,71.34L71.4,67.08L71.56,66.58L71.72,86.52L72.21,81.61L72.37,81.89L72.53,85.69L72.69,81.01L72.69,66.44L72.86,66.86L73.01,69.28L73.17,68.02L73.17,199.13L73.5,197.96L73.5,52.29L74.15,55.45L74.32,53.3L74.47,52.73L74.63,52.05L74.64,52.64L74.79,61.39L74.96,70.99L75.61,70.86L75.76,69.93L75.76,84.5L76.42,81.14L76.57,80.76L76.9,84.03L77.22,80.66L77.22,66.1L77.55,68.44L77.88,65.28L78.03,51.57L78.68,48.34L78.85,49.93L79,51.17L79.97,48.42L79.98,48.69L80.14,52.73L80.47,50.38L80.62,47.17L80.95,49.54L81.12,49.09L81.27,47.31L81.76,47.51L81.92,48.67L82.4,83.94L82.73,70.59L82.73,216.27L82.89,219.19L82.89,73.51L83.22,71.57L83.37,70.24L84.18,81.03L84.18,110.16L84.34,108.77L84.34,123.34L84.51,126.61L84.51,97.48L84.67,99.33L84.68,98.64L84.83,88.18L85.15,229.29L85.49,64.77L85.64,55.42L86.3,207.72L86.45,208.4L86.45,77.29L87.11,80.34L87.26,79.92L87.42,83.76L87.58,79.27L87.58,64.7L88.23,53.32L88.23,213.56L88.39,215.81L88.55,212.21L88.55,226.78L88.72,227.67L88.72,81.99L89.04,81.17L89.04,95.73L89.2,96.21L89.2,81.64L89.53,82L89.69,81.52L89.69,66.95L89.85,69.53L90.17,67.13L90.17,52.56L90.82,70.32L91.15,69.12L91.31,69.04L91.47,70.43L91.64,67.15L91.79,66.41L91.95,65.72L92.13,67.25L92.28,67.85L92.93,65.46L93.26,66.38L93.41,67.85L93.57,67.99L93.57,67.99L93.58,66.88L94.38,49.54L94.39,49.62L94.54,50.88L94.72,50.49L94.87,48.16L95.36,49.01L95.52,51L95.68,49.07L95.68,194.74L96,193.35L96,47.67L96.81,51.38L96.98,50.62L97.13,48.25L97.62,52.69L97.62,67.26L98.43,99.73L98.43,245.4L98.59,259.68L98.59,114.01L98.75,116.98L98.75,248.08L98.92,247.87L98.92,233.3L99.24,244.22L99.24,98.54L99.57,101.15L99.72,98.72L100.21,126.36L100.38,120.03L100.53,107.63L100.7,109.44L100.86,108.76L100.86,94.19L101.02,91.05L101.02,236.72L101.18,233.33L101.18,247.9L101.18,247.9L101.19,248.16L101.34,252.41L101.51,249.86L101.51,89.62L101.68,89.82L101.83,90.99L102.15,110.52L102.48,110.29L102.48,95.72L103.12,91.06L103.13,91.32L103.29,95.53L103.61,91.7L103.78,92.3L103.93,76.74L104.42,74.05L104.42,219.72L104.58,217.9L104.74,219.74L104.74,88.64L105.23,88.68L105.56,84.43L105.71,84.25L106.85,50.27L106.85,50.27L106.86,50.2L107.01,49.02L107.02,49.68L107.17,60.33L107.33,66.31L107.67,64.36L107.82,49.61L108.14,47.77L108.64,49.01L108.79,49.7L109.11,51.17L109.29,49.4L109.44,48.52L109.6,49.98L110.09,48.25L110.09,48.27L110.25,48.52L110.41,47.46L110.9,49.12L111.06,49.25L111.22,47.32L111.71,47.64L111.87,49.96L112.03,49.62L112.19,50.83L112.2,50.7L112.35,48.49L112.68,46.87L113.16,47.25L113.16,61.82L113.97,106.71L113.97,252.39L114.13,264.11L114.13,118.43L114.29,116.73L114.46,117.26L114.46,102.7L114.62,95.3L115.27,137.14L115.27,151.7L115.43,161.61L115.6,153.68L115.75,136.13L116.24,261.17L116.41,97.53L116.56,94.39L116.89,76.68L117.22,259.57L117.37,261.41L117.53,264.69L117.53,119.02L117.69,117.12L117.86,121.37L118.02,119.83L118.02,250.94L118.18,249L118.35,250.37L118.5,254.66L118.5,94.42L119.16,123.38L119.31,124.59L119.48,133.66L120.12,107L120.12,238.11L120.61,225.58L120.61,79.9L120.77,77.05L120.93,81.09L120.93,66.52L121.09,63.02L121.59,63.9L121.74,73.24L122.23,74.54L122.55,67.5L122.55,82.07L122.71,80.96L123.04,82.33L123.37,81.24L123.52,81.29L124.34,81.4L124.49,80.93L124.82,65.55L125.15,67.62L125.3,66.47L125.64,68.16L125.79,68.7L125.95,66.76L125.95,81.33L126.28,79.87L126.44,64.42L127.08,47.28L127.09,47.28L127.25,47.31L127.89,62.41L127.9,47.88L128.06,48.53L128.06,92.23L128.71,76.86L128.86,84.13L129.03,68.34L129.52,91.08L129.67,102.67L129.84,103.66L130,101.68L130,116.25L130.48,131.54L130.65,115.91L130.65,116.1L130.81,119.45L130.97,115.12L131.14,126.26L131.29,129.98L131.46,126.21L131.46,271.88L132.11,89.16L132.26,84.5L132.91,100.07L132.91,245.75L133.24,271.83L133.4,263.62L133.4,117.94L133.56,118.62L133.73,116.57L133.88,116.36L134.37,123.4L134.37,108.83L134.69,98.76L134.86,114.41L135.02,117.56L135.5,94.06L135.51,108.88L135.66,113.39L135.83,121.6L136,99.47L136.15,85.72L136.31,89L136.47,84.27L136.8,87.84L136.8,73.27L136.97,70.74L137.12,55.76L138.1,50.29L138.25,50.15L138.42,50.03L138.58,48.72L139.06,49.63L139.23,48.89L139.39,48.61L139.55,48.47L139.56,48.53L139.71,49.57L140.04,49.4L140.04,49.34L140.2,48.26L140.69,49.18L140.84,49.61L141.02,49.8L141.17,51.48L141.49,47.81L141.99,48.48L142.14,49.75L142.3,50.06L142.47,49.02L142.63,48.74L142.95,46.97L142.96,47.13L143.11,50.01L143.27,50.06L143.28,49.95L143.44,47.96L143.6,47.27L143.93,48.13L144.08,50.22L144.25,51.16L144.41,66.45L144.57,214.53L145.06,89.38L145.22,88.92L145.38,71.25L145.86,143.9L145.87,143.89L146.03,143.72L146.2,143.43L146.35,141.32L146.35,272.42L146.67,129.86L147,131.76L147.16,128.89L147.32,131.89L147.49,127.7L147.64,121.44L147.81,90L148.3,268.91L148.45,281.73L149.11,118.35L149.26,113.99L149.92,96.75L150.07,90.81L150.07,221.92L150.73,69.28L150.88,69.15L151.53,53.42L151.69,56.84L151.69,71.4L151.85,68.61L151.86,69.29L152.02,82.33L152.18,88.8L152.66,67.16L152.67,67.19L152.82,67.65L152.99,70.95L152.99,56.38L153.64,49.54L153.8,49.02L153.96,49.32L154.12,48.76L154.12,63.33L155.09,64.23L155.1,64.19L155.25,63.45L155.41,62.79L155.41,48.23L155.58,48.14L155.75,48.88L155.9,49.53L156.07,48.76L156.72,49.14L156.87,49.69L157.2,48.38L157.2,62.95L157.36,62.3L157.68,63.71L157.69,63.7L157.84,63.52L158.33,48.53L158.49,194.96L158.5,194.92L158.65,194.21L158.81,193.75L158.81,48.07L158.98,47.92L158.98,62.49L159.3,63.2L159.3,77.77L159.62,79.03L159.63,78.91L159.79,76.46L160.11,225.54L160.44,195.51L160.6,195.61L160.76,16L161.08,212.33L161.25,211.56L161.4,211.09L161.57,211.26L161.57,65.59L161.89,66.9L161.89,52.33L162.05,54.97L162.05,69.54L162.21,66.56L162.21,81.12L162.38,45.13L162.71,110.88L162.86,113.59L163.02,110.01L163.19,115.49L163.51,114.26L163.51,99.69L164.16,70.32L164.16,70.32L164.16,70.15L164.32,66.77L164.33,81.93L164.48,93.63L164.97,30.57L165.14,68.31L165.29,67.09L165.45,66.17L165.45,80.73L165.61,84.37L165.61,69.8L166.43,66.14L166.59,65.98L166.75,65.33L166.92,66.57L167.07,69.18L167.39,65.77L167.39,211.44L167.56,211.1L167.73,212.04L167.88,212.39L168.53,51.24L168.54,51.25L168.69,51.47L168.85,52.22L169.02,50.9L169.18,48.74L169.5,48.03L169.82,49.06L169.99,48.46L170.15,47.99L170.96,50.01L170.96,49.94L171.12,48.46L172.25,51.36L172.26,51.27L172.41,49.47L172.9,47.14L173.07,48.66L173.22,50.85L173.22,65.42L173.71,47.1L173.88,47.86L174.03,50.13L174.2,49.83L174.36,47.53L174.68,48.06L174.69,48.12L174.84,49.35L175.17,46.57L175.17,61.14L175.33,61.65L175.49,64.36L175.98,49.45L176.14,195.95L176.3,196.03L176.3,50.36L176.78,197.46L176.95,78.8L177.11,79.39L177.43,211.94L177.59,50.75L177.76,65.34L177.92,65.01L178.4,213.43L178.57,51.82L178.57,51.84L178.73,52.37L179.05,53.65L179.05,199.32L179.21,198.81L179.22,198.99L179.37,202.74L179.54,198.7L179.54,53.03L179.7,54.28L179.7,68.85L180.18,67.53L180.35,71.62L180.35,86.19L180.99,30.57L181,46.78L181.16,81.82L181.32,67.16L181.64,84.95L181.81,67.16L181.97,66.37L182.13,66.66L182.29,66.52L182.29,51.95L182.77,51.61L183.1,53.07L183.11,53.06L183.26,52.84L183.58,51.57L183.75,52.46L183.91,53.18L184.07,53.23L184.08,53.17L184.23,51.82L184.39,52.07L184.39,66.64L184.72,66.9L185.04,63.63L185.04,78.2L185.21,78.17L185.36,77.32L185.53,62.29L186.01,79.1L186.02,79.05L186.17,78L186.34,80.36L186.34,65.8L187.15,63.71L187.15,63.76L187.31,64.75L187.95,49.36L187.96,49.38L188.12,49.79L188.44,49.17L188.45,49.23L188.6,50.67L189.41,47.8L189.42,47.87L189.57,49.45L190.22,48.21L190.39,48.41L190.55,49.55L190.71,48.39L190.71,48.8L190.87,57.95L191.52,215.29L191.52,215.24L191.68,214.08L191.84,57.69L192.33,85.11L192.49,97.47L193.14,277.55L193.14,277.02L193.3,265.06L193.46,114.85L193.95,119.14L194.11,116.44L194.11,262.11L194.59,93.15L194.76,96.95L194.92,88.87L195.08,104.93L195.24,30.57L195.57,91.75L195.73,91.85L196.21,272.36L196.38,252.98L196.54,256.78L197.18,76.52L197.19,76.62L197.34,78.79L197.83,57.3L198.32,57.39L198.48,57.48L198.96,56.37L199.29,57.3L199.29,57.87L199.61,88.92L200.27,86.15L200.42,85.44L200.59,85.32L200.75,85.6L200.91,86.09L201.07,85.47L201.07,70.9L201.4,68.03L201.55,16L201.88,70.99L202.37,52.23L202.53,53.18L203.01,54.39L203.17,53.92L203.18,52.37L203.33,16L203.5,54.12L203.83,53.41L203.98,52.35L204.14,53.23L204.15,51.71L204.31,16L204.63,16L204.63,161.67L204.79,161.67L204.79,16L205.12,16L205.12,161.67L205.28,161.67L205.28,16L206.09,16L206.09,30.57L206.73,68.32L206.74,53.76L206.9,54.08L207.23,73.51L207.38,96.6L207.54,124.16L208.04,107.91L208.19,109.18L208.35,109.23L208.35,123.8L208.84,124.43L208.84,109.86L209.32,113.68L209.33,113.49L209.49,108.95L209.81,110.56L209.81,95.99L210.46,76.95L210.78,83.63L210.78,98.2L210.94,100.12L210.94,114.69L211.59,164.39L211.91,161.43L211.91,146.86L212.08,147.86L212.08,162.43L212.4,165.8L212.4,151.23L212.72,147.05L212.72,117.92L213.53,73.8L213.7,75.12L213.7,89.68L213.86,89.31L213.86,234.98L214.02,233.15L214.02,87.47L214.51,86.87L214.83,103.07L214.84,102.72L214.99,93.98L215.15,30.57L215.64,216.25L215.64,70.51L215.8,68.98L216.12,50.75L216.45,52.82L216.61,53.53L216.77,16L217.1,52.11L217.26,53.46L217.42,53.68L217.43,53.61L217.58,51.82L217.74,50.73L218.07,52.63L218.23,54.5L218.39,16L218.88,54.46L219.04,53.83L219.36,51.44L219.69,51.87L219.85,16L220.33,16L220.33,30.57L220.82,30.57L220.82,176.24L220.98,176.24L220.98,16L221.79,16L221.79,16L221.8,17.3L222.6,201.38L222.6,55.71L223.09,60.33L223.09,58.68L223.25,16L223.41,225.55L223.9,83.63L224.06,83.56L224.54,45.13L224.7,117.12L224.71,117.02L224.87,114.53L225.03,176.24L225.51,30.57L225.52,30.57L225.68,30.57L225.68,45.13L226.33,45.13L226.48,45.13L226.81,16L227.14,30.57L227.29,30.57L227.46,239.19L227.95,89.07L228.1,91.17L228.27,90.77L228.27,76.2L228.43,74.08L228.6,77.78L228.75,80.32L228.91,80.07L229.08,80.45L229.24,81.77L229.24,96.34L229.89,85.41L230.05,84.85L230.69,52.64L230.7,52.91L230.86,59.96L231.02,16L231.51,58.3L231.67,58.41L231.99,58.68L232.48,56.03L232.64,16L232.96,50.54L233.29,48.12L233.45,48.61L233.61,48.58L233.61,48.64L233.77,50.34L233.94,46.78L234.09,16L235.39,16L235.39,161.67L236.04,161.67L236.04,16L236.68,16L236.68,16L236.69,17.2L237.01,16L237.66,69.12L237.66,69.11L237.82,68.79L238.14,69.59L238.14,84.15L238.3,91.48L238.3,76.91L238.31,78.05L238.46,109.68L238.46,124.25L238.95,105.41L239.12,109.54L239.27,111.76L239.44,109.56L239.44,124.12L239.6,127.13L239.76,124.31L239.76,138.87L240.73,105.95L240.73,237.06L241.06,243.77L241.38,240.68L241.38,226.11L241.54,223.34L241.55,223.9L241.7,239.69L241.86,244.82L242.03,241.02L242.03,95.35L242.67,121.12L242.68,117.55L242.84,16L243,116.04L243.49,93.98L243.65,101.14L243.81,104.53L244.14,102.02L244.29,95.07L244.46,90.06L244.62,16L244.94,223.58L245.27,64.6L245.43,80.48L246.07,16L246.08,17.28L246.24,54.34L246.4,52.73L246.56,16L248.18,16L248.18,16L248.18,17.15L248.83,52.26L248.99,50.62L249.15,51.25L249.32,50.02L249.64,50.44L249.8,53.12L249.96,53.88L250.13,51.22L250.28,49.82L250.45,49.88L250.61,51.38L250.77,52.17L250.77,197.85L250.93,196.16L250.93,65.05L251.09,64.18L251.25,64.99L251.25,50.42L251.42,50.23L251.58,50.56L251.58,196.24L251.74,197.74L251.74,52.07L251.91,49.89L252.06,16L253.03,98.47L253.2,85.89L253.36,86.07L253.36,71.5L253.68,88.13L254.01,86.61L254.17,91L254.33,89.51L254.65,108.35L254.82,104.48L254.98,30.57L255.3,135.85L255.63,123.46L255.79,129.44L255.95,146.26L256.11,59.7L256.44,115.34L256.6,116.11L256.76,205.38L257.24,30.57L257.25,30.57L257.41,30.57L257.73,30.57L257.73,161.67L257.89,161.67L257.89,176.24L258.22,176.24L258.22,30.57L258.54,30.57L258.54,45.13L258.7,45.13L258.7,45.14L258.71,47.47L259.19,133.62L259.52,101.53L259.67,100.42L260,125.51L260.16,110.66L260.32,110.31L260.48,111.14L260.81,110.06L260.81,95.49L261.13,96.67L261.13,96.52L261.29,91.83L262.75,51.01L262.75,51.08L262.91,53.41L263.08,52.91L263.23,50.33L263.72,49.7L264.04,52.91L264.05,52.84L264.21,50.77L264.69,49.55L264.7,49.68L264.85,54.13L265.18,71.06L265.51,63.53L265.66,50.15L265.82,49.86L265.83,49.92L265.99,51.9L266.48,48.54L266.63,16L267.12,65.4L267.61,64.81L267.61,50.24L267.77,51.11L267.77,50.08L267.93,16L268.58,65.09L268.74,67.96L268.9,30.57L269.39,30.57L269.55,30.57L269.55,16L270.2,161.67L270.2,161.67L270.36,161.67L270.52,161.67L270.52,176.24L270.84,176.24L270.84,30.57L271.17,30.57L271.17,30.57L271.17,32.2L272.46,235.58L272.47,235.48L272.62,232.2L272.95,83.48L273.28,105.92L273.43,115.23L273.6,45.13L274.09,112.09L274.24,111.44L274.73,30.57L274.89,72.68L275.05,76.23L275.22,71.39L275.38,16L275.54,16L275.54,30.57L276.83,30.57L276.83,16L277.8,16L277.8,16L277.81,17.52L277.97,70.89L278.62,69.13L278.78,16L278.94,69.03L279.43,16L279.59,16L281.85,16L281.85,16L281.86,16.99L282.18,53.01L282.34,16L282.5,16L282.66,16L282.66,30.57L283.31,16L283.47,16L283.47,176.24L284.12,30.57L284.28,30.57L284.28,16L284.93,45.13L284.93,45.13L285.09,45.13L285.25,45.13L285.25,59.7L285.41,59.7L285.41,45.13L285.74,45.13L285.74,30.57L286.55,30.57L286.55,176.24L286.71,176.24L286.71,30.57L286.87,30.57L286.87,176.24L287.19,176.24L287.19,161.67L287.52,161.67L287.52,16L288.49,16L288.49,30.57L288.97,30.57L288.97,59.7L289.62,59.7L289.62,45.13L290.27,45.13L290.27,30.57L290.92,30.57L290.92,176.24L291.4,176.24L291.4,30.57L292.05,30.57L292.05,16L299.82,16L299.82,30.57L300.63,30.57L300.63,16L300.79,16L300.79,30.57L300.95,30.57L300.95,176.24L301.12,176.24L301.12,45.13L301.44,45.13L301.44,30.57L302.09,30.57L302.09,16L302.41,16L302.41,30.57L302.57,30.57L302.57,176.24L303.38,176.24L303.38,45.13L303.54,45.13L303.54,30.57L304.19,30.57L304.19,59.7L304.52,59.7L304.52,45.13L305.49,45.13L305.49,30.57L305.81,30.57L305.81,16L312.45,16L312.45,161.67L312.61,161.67L312.61,16L313.91,16L313.91,161.67L314.23,161.67L314.23,16L314.72,16L314.72,30.57L315.04,30.57L315.04,16L316.33,16L316.33,30.57L316.82,30.57L316.82,16L317.14,16L317.14,30.57L317.63,30.57L317.63,16L319.09,16L319.09,30.57L319.25,30.57L319.25,190.81L319.73,190.81L319.73,45.13L320.06,45.13L320.06,30.57L320.38,30.57L320.38,16L321.19,16L321.19,30.57L322,30.57L322,176.24L322.32,176.24L322.32,16L323.3,16L323.3,30.57L323.78,30.57L323.78,45.13L324.59,45.13L324.59,30.57L325.4,30.57L325.4,16L329.93,16L329.93,161.67L330.42,161.67L330.42,16L330.58,16L330.58,30.57L330.9,30.57L330.9,59.7L331.39,59.7L331.39,45.13L331.71,45.13L331.71,30.57L331.88,30.57L331.88,16L332.2,16L332.2,30.57L332.52,30.57L332.52,176.24L333.01,176.24L333.01,30.57L333.17,30.57L333.17,16L333.82,16L333.82,30.57L334.95,30.57L334.95,16L335.92,16L335.92,30.57L336.41,30.57L336.41,45.13L337.06,45.13L337.06,30.57L337.7,30.57L337.7,16L337.87,16L337.87,176.24L338.19,176.24L338.19,190.81L338.51,190.81L338.51,45.13L339.32,45.13L339.32,30.57L339.81,30.57L339.81,16L344.67,16L344.67,161.67L344.83,161.67L344.83,30.57L345.47,30.57L345.47,16L347.09,16L347.09,161.67L347.26,161.67L347.26,16L347.58,16L347.58,30.57L348.39,30.57L348.39,45.13L348.55,45.13L348.55,30.57L348.71,30.57L348.71,190.81L348.87,190.81L348.87,45.13L349.04,45.13L349.04,59.7L349.85,59.7L349.85,190.81L350.17,190.81L350.17,30.57L350.49,30.57L350.49,16L350.66,16L350.66,176.24L350.98,176.24L350.98,30.57L351.3,30.57L351.3,45.13L351.95,45.13L351.95,30.57L352.6,30.57L352.6,176.24L352.76,176.24L352.76,161.67L352.92,161.67L352.92,16L354.38,16L354.38,161.67L354.7,161.67L354.7,16L360.69,16L360.69,30.57L360.85,30.57L360.85,45.13L361.02,45.13L361.02,30.57L361.18,30.57L361.18,176.24L361.5,176.24L361.5,16L361.83,16L361.83,30.57L362.63,30.57L362.63,16L363.77,16L363.77,161.67L364.09,161.67L364.09,30.57L364.9,30.57L364.9,16L365.39,16L365.39,45.13L366.2,45.13L366.2,30.57L366.36,30.57L366.36,16L366.68,16L366.68,161.67L367.17,161.67L367.17,45.13L368.62,45.13L368.62,30.57L368.79,30.57L368.79,16L376.88,16L376.88,45.13L377.37,45.13L377.37,30.57L378.01,30.57L378.01,16L378.82,16L378.82,161.67L378.99,161.67L378.99,16L380.28,16L380.28,161.67L380.44,161.67L380.44,176.24L380.6,176.24L380.6,30.57L381.25,30.57L381.25,16L381.41,16L381.41,59.7L381.58,59.7L381.58,205.38L381.74,205.38L381.74,219.94L381.9,219.94L381.9,74.27L382.22,74.27L382.22,59.7L382.39,59.7L382.39,190.81L382.55,190.81L382.55,176.24L382.87,176.24L382.87,30.57L383.36,30.57L383.36,16L384.17,16L384.17,30.57L385.79,30.57L385.79,16L391.45,16L391.45,176.24L391.61,176.24L391.61,30.57L391.94,30.57L391.94,16L392.91,16L392.91,30.57L393.07,30.57L393.07,176.24L393.39,176.24L393.39,30.57L393.56,30.57L393.56,16L394.53,16L394.53,30.57L396.47,30.57L396.47,45.13L396.96,45.13L396.96,59.7L397.12,59.7L397.12,45.13L397.44,45.13L397.44,30.57L397.93,30.57L397.93,176.24L398.09,176.24L398.09,161.67L398.25,161.67L398.25,16L399.55,16L399.55,161.67L399.87,161.67L399.87,30.57L400.03,30.57L400.03,45.13L400.84,45.13L400.84,30.57L401.16,30.57L401.16,16L404.4,16L404.4,30.57L405.54,30.57L405.54,16L408.29,16L408.29,30.57L408.61,30.57L408.61,45.13L408.94,45.13L408.94,190.81L409.1,190.81L409.1,30.57L409.58,30.57L409.58,16L409.75,16L409.75,30.57L410.07,30.57L410.07,45.13L410.39,45.13L410.39,59.7L410.55,59.7L410.55,45.13L410.72,45.13L410.72,190.81L410.88,190.81L410.88,59.7L411.04,59.7L411.04,45.13L411.2,45.13L411.2,59.7L411.36,59.7L411.36,45.13L411.53,45.13L411.53,59.7L411.85,59.7L411.85,45.13L412.17,45.13L412.17,30.57L412.5,30.57L412.5,16L412.98,16L412.98,30.57L413.63,30.57L413.63,45.13L414.12,45.13L414.12,30.57L414.28,30.57L414.28,176.24L414.6,176.24L414.6,30.57L415.25,30.57L415.25,45.13L416.06,45.13L416.06,30.57L417.52,30.57L417.52,176.24L417.84,176.24L417.84,30.57L418,30.57L418,16L422.7,16L422.7,161.67L423.02,161.67L423.02,16L423.34,16L423.34,30.57L423.99,30.57L423.99,16L425.12,16L425.12,16.17L425.29,111.03L425.45,93.37L425.45,122.51L425.61,121.14L425.61,266.82L425.77,282.59L425.93,280.22L425.93,134.54L426.1,139.29L427.39,68.5L427.55,74.67L427.55,89.24L428.2,124.54L428.2,139.11L428.36,158.57L428.52,143.14L428.69,144.02L428.85,173.04L429.33,171.35L429.5,172.89L429.5,304L430.14,97.87L430.14,97.87L430.31,98.24L430.63,74.69L430.63,103.82L430.95,100.39L431.11,98.1L432.09,69.68L432.09,69.68L432.25,76.13L432.25,61.56L432.9,72.5L433.06,72.41L433.87,68.26L433.87,68.27L434.03,69.99L434.51,68.28L435,68.84" style="vector-effect: non-scaling-stroke; fill: none; stroke: rgb(0, 128, 0); stroke-opacity: 1; stroke-width: 2px; opacity: 1;"/></g><g class="points"/><g class="text"/></g></g></g><g class="overplot"/><path class="xlines-above crisp" d="M0,0" style="fill: none;"/><path class="ylines-above crisp" d="M0,0" style="fill: none;"/><g class="overlines-above"/><g class="xaxislayer-above"><g class="xtick"><text text-anchor="middle" x="0" y="433" transform="translate(142.17000000000002,0)" style="font-family: 'Open Sans', verdana, arial, sans-serif; font-size: 12px; fill: rgb(42, 63, 95); fill-opacity: 1; white-space: pre; opacity: 1;"><tspan class="line" dy="0em" x="0" y="433">Feb 5</tspan><tspan class="line" dy="1.3em" x="0" y="433">2023</tspan></text></g><g class="xtick"><text text-anchor="middle" x="0" y="433" style="font-family: 'Open Sans', verdana, arial, sans-serif; font-size: 12px; fill: rgb(42, 63, 95); fill-opacity: 1; white-space: pre; opacity: 1;" transform="translate(250.96,0)">Feb 12</text></g><g class="xtick"><text text-anchor="middle" x="0" y="433" style="font-family: 'Open Sans', verdana, arial, sans-serif; font-size: 12px; fill: rgb(42, 63, 95); fill-opacity: 1; white-space: pre; opacity: 1;" transform="translate(359.75,0)">Feb 19</text></g><g class="xtick"><text text-anchor="middle" x="0" y="433" style="font-family: 'Open Sans', verdana, arial, sans-serif; font-size: 12px; fill: rgb(42, 63, 95); fill-opacity: 1; white-space: pre; opacity: 1;" transform="translate(468.54,0)">Feb 26</text></g></g><g class="yaxislayer-above"><g class="ytick"><text text-anchor="end" x="79" y="4.199999999999999" transform="translate(0,407.35)" style="font-family: 'Open Sans', verdana, arial, sans-serif; font-size: 12px; fill: rgb(42, 63, 95); fill-opacity: 1; white-space: pre; opacity: 1;">−100</text></g><g class="ytick"><text text-anchor="end" x="79" y="4.199999999999999" style="font-family: 'Open Sans', verdana, arial, sans-serif; font-size: 12px; fill: rgb(42, 63, 95); fill-opacity: 1; white-space: pre; opacity: 1;" transform="translate(0,349.08000000000004)">−80</text></g><g class="ytick"><text text-anchor="end" x="79" y="4.199999999999999" style="font-family: 'Open Sans', verdana, arial, sans-serif; font-size: 12px; fill: rgb(42, 63, 95); fill-opacity: 1; white-space: pre; opacity: 1;" transform="translate(0,290.81)">−60</text></g><g class="ytick"><text text-anchor="end" x="79" y="4.199999999999999" style="font-family: 'Open Sans', verdana, arial, sans-serif; font-size: 12px; fill: rgb(42, 63, 95); fill-opacity: 1; white-space: pre; opacity: 1;" transform="translate(0,232.54)">−40</text></g><g class="ytick"><text text-anchor="end" x="79" y="4.199999999999999" style="font-family: 'Open Sans', verdana, arial, sans-serif; font-size: 12px; fill: rgb(42, 63, 95); fill-opacity: 1; white-space: pre; opacity: 1;" transform="translate(0,174.26999999999998)">−20</text></g><g class="ytick"><text text-anchor="end" x="79" y="4.199999999999999" style="font-family: 'Open Sans', verdana, arial, sans-serif; font-size: 12px; fill: rgb(42, 63, 95); fill-opacity: 1; white-space: pre; opacity: 1;" transform="translate(0,116)">0</text></g></g><g class="overaxes-above"/></g></g><g class="polarlayer"/><g class="smithlayer"/><g class="ternarylayer"/><g class="geolayer"/><g class="funnelarealayer"/><g class="pielayer"/><g class="iciclelayer"/><g class="treemaplayer"/><g class="sunburstlayer"/><g class="glimages"/><defs id="topdefs-08f10e"><g class="clips"/><clipPath id="legend08f10e"><rect width="164" height="67" x="0" y="0"/></clipPath></defs><g class="layer-above"><g class="imagelayer"/><g class="shapelayer"/></g><g class="infolayer"><g class="legend" pointer-events="all" transform="translate(523.7,100)"><rect class="bg" shape-rendering="crispEdges" width="164" height="67" x="0" y="0" style="stroke: rgb(68, 68, 68); stroke-opacity: 1; fill: rgb(255, 255, 255); fill-opacity: 1; stroke-width: 0px;"/><g class="scrollbox" transform="" clip-path="url(#legend08f10e)"><g class="groups"><g class="traces" transform="translate(0,14.5)" style="opacity: 1;"><text class="legendtext" text-anchor="start" x="40" y="4.680000000000001" style="font-family: 'Open Sans', verdana, arial, sans-serif; font-size: 12px; fill: rgb(42, 63, 95); fill-opacity: 1; white-space: pre;">BESS</text><g class="layers" style="opacity: 1;"><g class="legendfill"/><g class="legendlines"><path class="js-line" d="M5,0h30" style="fill: none; stroke: rgb(0, 191, 255); stroke-opacity: 1; stroke-width: 2px;"/></g><g class="legendsymbols"><g class="legendpoints"/></g></g><rect class="legendtoggle" x="0" y="-9.5" width="158.71875" height="19" style="fill: rgb(0, 0, 0); fill-opacity: 0;"/></g><g class="traces" transform="translate(0,33.5)" style="opacity: 1;"><text class="legendtext" text-anchor="start" x="40" y="4.680000000000001" style="font-family: 'Open Sans', verdana, arial, sans-serif; font-size: 12px; fill: rgb(42, 63, 95); fill-opacity: 1; white-space: pre;">Solar</text><g class="layers" style="opacity: 1;"><g class="legendfill"/><g class="legendlines"><path class="js-line" d="M5,0h30" style="fill: none; stroke: rgb(255, 0, 0); stroke-opacity: 1; stroke-width: 2px;"/></g><g class="legendsymbols"><g class="legendpoints"/></g></g><rect class="legendtoggle" x="0" y="-9.5" width="158.71875" height="19" style="fill: rgb(0, 0, 0); fill-opacity: 0;"/></g><g class="traces" transform="translate(0,52.5)" style="opacity: 1;"><text class="legendtext" text-anchor="start" x="40" y="4.680000000000001" style="font-family: 'Open Sans', verdana, arial, sans-serif; font-size: 12px; fill: rgb(42, 63, 95); fill-opacity: 1; white-space: pre;">Grid Meter (Net Load)</text><g class="layers" style="opacity: 1;"><g class="legendfill"/><g class="legendlines"><path class="js-line" d="M5,0h30" style="fill: none; stroke: rgb(0, 128, 0); stroke-opacity: 1; stroke-width: 2px;"/></g><g class="legendsymbols"><g class="legendpoints"/></g></g><rect class="legendtoggle" x="0" y="-9.5" width="158.71875" height="19" style="fill: rgb(0, 0, 0); fill-opacity: 0;"/></g></g></g><rect class="scrollbar" rx="20" ry="3" width="0" height="0" x="0" y="0" style="fill: rgb(128, 139, 164); fill-opacity: 1;"/></g><g class="g-gtitle"><text class="gtitle" x="297.5" y="50" text-anchor="middle" dy="0em" style="font-family: 'Open Sans', verdana, arial, sans-serif; font-size: 17px; fill: rgb(42, 63, 95); opacity: 1; font-weight: normal; white-space: pre;"><tspan class="line" dy="0em" x="297.5" y="50">Scenario 1</tspan><tspan class="line" dy="1.3em" x="297.5" y="50">Microgrid Output</tspan><tspan class="line" dy="2.6em" x="297.5" y="50">From: February 01, 2023 to February 28, 2023</tspan></text></g><g class="g-xtitle"><text class="xtitle" x="297.5" y="476.409375" text-anchor="middle" style="font-family: 'Open Sans', verdana, arial, sans-serif; font-size: 14px; fill: rgb(42, 63, 95); opacity: 1; font-weight: normal; white-space: pre;">Time</text></g><g class="g-ytitle"><text class="ytitle" transform="rotate(-90,26.168750000000003,260)" x="26.168750000000003" y="260" text-anchor="middle" style="font-family: 'Open Sans', verdana, arial, sans-serif; font-size: 14px; fill: rgb(42, 63, 95); opacity: 1; font-weight: normal; white-space: pre;">Demand (kW)</text></g></g></svg>