<svg class="main-svg" xmlns="http://www.w3.org/2000/svg" xmlns:xlink="http://www.w3.org/1999/xlink" width="700" height="500" style="" viewBox="0 0 700 500"><rect x="0" y="0" width="700" height="500" style="fill: rgb(255, 255, 255); fill-opacity: 1;"/><defs id="defs-d42e5f"><g class="clips"><clipPath id="clipd42e5fxyplot" class="plotclip"><rect width="435" height="320"/></clipPath><clipPath class="axesclip" id="clipd42e5fx"><rect x="80" y="0" width="435" height="500"/></clipPath><clipPath class="axesclip" id="clipd42e5fy"><rect x="0" y="100" width="700" height="320"/></clipPath><clipPath class="axesclip" id="clipd42e5fxy"><rect x="80" y="100" width="435" height="320"/></clipPath></g><g class="gradients"/><g class="patterns"/></defs><g class="bglayer"><rect class="bg" x="80" y="100" width="435" height="320" style="fill: rgb(229, 236, 246); fill-opacity: 1; stroke-width: 0;"/></g><g class="layer-below"><g class="imagelayer"/><g class="shapelayer"/></g><g class="cartesianlayer"><g class="subplot xy"><g class="layer-subplot"><g class="shapelayer"/><g class="imagelayer"/></g><g class="gridlayer"><g class="x"><path class="xgrid crisp" transform="translate(178.26,0)" d="M0,100v320" style="stroke: rgb(255, 255, 255); stroke-opacity: 1; stroke-width: 1px;"/><path class="xgrid crisp" transform="translate(276.52,0)" d="M0,100v320" style="stroke: rgb(255, 255, 255); stroke-opacity: 1; stroke-width: 1px;"/><path class="xgrid crisp" transform="translate(374.78,0)" d="M0,100v320" style="stroke: rgb(255, 255, 255); stroke-opacity: 1; stroke-width: 1px;"/><path class="xgrid crisp" transform="translate(473.04,0)" d="M0,100v320" style="stroke: rgb(255, 255, 255); stroke-opacity: 1; stroke-width: 1px;"/></g><g class="y"><path class="ygrid crisp" transform="translate(0,416.78)" d="M80,0h435" style="stroke: rgb(255, 255, 255); stroke-opacity: 1; stroke-width: 1px;"/><path class="ygrid crisp" transform="translate(0,366.65)" d="M80,0h435" style="stroke: rgb(255, 255, 255); stroke-opacity: 1; stroke-width: 1px;"/><path class="ygrid crisp" transform="translate(0,316.52)" d="M80,0h435" style="stroke: rgb(255, 255, 255); stroke-opacity: 1; stroke-width: 1px;"/><path class="ygrid crisp" transform="translate(0,266.39)" d="M80,0h435" style="stroke: rgb(255, 255, 255); stroke-opacity: 1; stroke-width: 1px;"/><path class="ygrid crisp" transform="translate(0,216.26)" d="M80,0h435" style="stroke: rgb(255, 255, 255); stroke-opacity: 1; stroke-width: 1px;"/><path class="ygrid crisp" transform="translate(0,166.13)" d="M80,0h435" style="stroke: rgb(255, 255, 255); stroke-opacity: 1; stroke-width: 1px;"/></g></g><g class="zerolinelayer"><path class="yzl zl crisp" transform="translate(0,116)" d="M80,0h435" style="stroke: rgb(255, 255, 255); stroke-opacity: 1; stroke-width: 2px;"/></g><path class="xlines-below"/><path class="ylines-below"/><g class="overlines-below"/><g class="xaxislayer-below"/><g class="yaxislayer-below"/><g class="overaxes-below"/><g class="plot" transform="translate(80,100)" clip-path="url(#clipd42e5fxyplot)"><g class="scatterlayer mlayer"><g class="trace scatter trace7e43f2" style="stroke-miterlimit: 2; opacity: 1;"><g class="fills"/><g class="errorbars"/><g class="lines"><path class="js-line" d="M0,16L435,16L435,16" style="vector-effect: non-scaling-stroke; fill: none; stroke: rgb(0, 191, 255); stroke-opacity: 1; stroke-width: 2px; opacity: 1;"/></g><g class="points"/><g class="text"/></g><g class="trace scatter tracec1dee9" style="stroke-miterlimit: 2; opacity: 1;"><g class="fills"/><g class="errorbars"/><g class="lines"><path class="js-line" d="M0,16L435,16L435,16" style="vector-effect: non-scaling-stroke; fill: none; stroke: rgb(255, 0, 0); stroke-opacity: 1; stroke-width: 2px; opacity: 1;"/></g><g class="points"/><g class="text"/></g><g class="trace scatter trace7e5ee5" style="stroke-miterlimit: 2; opacity: 1;"><g class="fills"/><g class="errorbars"/><g class="lines"><path class="js-line" d="M0,52.92L0.15,50.47L0.29,57.03L0.85,51.24L0.88,51.02L1.02,53.63L1.17,50.58L1.61,51.11L1.73,52.66L1.9,50.14L2.49,53.61L2.49,53.61L2.61,51.25L2.78,52.95L3.07,50.54L3.22,52.45L3.22,177.78L3.36,175.81L3.36,50.48L3.51,52.49L3.51,177.81L3.66,175.75L3.8,176.29L3.8,63.5L4.09,67.06L4.09,67.06L4.22,69.29L4.39,67.53L4.83,71.27L4.97,70.65L5.09,69.15L5.12,68.85L5.12,56.31L6.43,92.85L6.43,92.85L6.56,80.81L6.58,78.37L7.02,110.52L7.16,94.13L7.29,99.79L7.46,98.35L7.75,120.02L7.9,116.68L7.9,242.01L8.04,234.66L8.19,241.77L8.19,116.44L8.48,126.1L8.92,99.72L8.92,99.72L9.04,107.13L9.21,112.33L9.36,92.37L9.5,93.6L9.63,83.9L9.8,86.25L10.53,68.32L10.53,68.32L10.65,69.28L10.67,69.47L10.82,65.96L10.82,65.96L10.94,63.21L10.97,62.65L10.97,187.98L11.11,188.95L11.26,188.72L11.26,63.4L11.84,53.12L12.28,55.35L12.4,57.51L12.43,57.95L12.57,51.91L12.72,54.79L12.84,52.56L12.87,52.11L13.01,54.01L13.01,54.01L13.13,22.45L13.16,16L13.6,55.74L13.74,51.09L13.87,52.88L14.33,50.09L14.48,56.83L14.6,52.99L14.62,52.2L14.91,53.55L15.06,50.48L15.21,52.79L15.33,55.03L15.35,55.49L15.79,50.09L15.94,53.13L16.06,50.85L16.08,50.38L16.38,53.99L16.67,53.69L16.67,179.01L16.82,176.36L16.82,51.03L16.96,50.69L17.11,52.02L17.11,64.55L17.25,62.95L17.4,66.7L17.55,65.37L17.55,52.84L17.98,50.58L17.98,50.58L18.11,60.85L18.86,75.38L18.86,75.38L18.98,71.91L19.01,71.2L19.01,83.73L19.01,83.73L19.13,91.23L19.45,95.55L19.45,83.02L19.59,84.84L19.59,210.17L19.74,208.12L19.74,220.65L19.89,225.49L19.89,100.17L20.03,101.25L20.03,126.32L20.18,138.21L20.62,117.76L20.62,117.76L20.74,117.99L20.91,96.44L21.06,223.16L21.2,221.41L21.32,231.49L21.35,233.58L21.35,108.25L21.49,97.37L21.91,120.7L21.93,123.17L21.93,248.5L22.66,95.92L22.66,95.92L22.78,104.47L23.25,101.95L23.54,120.25L23.54,107.72L23.66,91.95L23.83,105.56L24.27,85.19L24.27,85.19L24.39,95.25L24.42,97.33L24.56,62.17L24.86,77.94L24.98,76.06L25.73,68.64L25.73,68.64L25.86,74.01L25.88,75.12L26.17,52.23L26.17,52.23L26.29,55.79L26.76,52.23L27.05,56.86L27.05,56.86L27.17,51.2L27.2,50.03L27.76,56.53L27.78,56.89L28.66,50.52L28.66,50.52L28.78,53.39L28.95,54.22L29.36,50.61L29.39,50.25L30.12,53.91L30.24,52.97L30.27,52.77L30.41,50.31L30.85,51.12L30.97,22.08L31,16L31.44,53.92L31.56,52.99L31.58,52.8L31.58,178.12L31.88,50.93L32.31,56.17L32.44,56.34L33.05,219.42L33.19,153.86L33.19,28.53L33.78,28.53L33.78,141.33L34.22,153.86L34.22,28.53L35.24,135.95L35.53,122.51L35.65,120.6L35.68,120.2L35.68,120.2L35.8,131.15L35.82,133.46L35.97,112.4L36.41,121.5L36.53,119.31L36.55,118.84L36.85,123.71L36.85,136.24L36.99,138.15L37.14,136.8L37.26,129.19L38.16,117.48L38.16,117.48L38.28,128.21L38.31,130.48L38.72,105.55L38.75,104.56L38.89,231.33L39.48,70.58L39.48,70.58L39.6,65.44L39.92,67.42L40.36,58.82L40.36,58.82L40.48,66.12L40.5,67.67L40.65,61.09L41.09,62.71L41.21,61.32L41.38,58.08L41.67,63.07L41.67,63.07L41.79,63.37L41.96,16L42.52,58.71L42.55,58.15L42.7,58.36L42.7,58.36L42.82,52.92L43.28,50.73L43.43,54.28L43.57,50.85L43.69,52.03L44.16,53.28L44.3,50.85L44.3,50.85L44.42,51.67L44.6,52.45L44.74,50.72L44.89,51.18L44.89,176.5L45.04,175.73L45.04,50.4L45.62,52.64L45.91,52.23L45.91,177.56L46.06,176.21L46.21,181.42L46.21,56.09L47.37,112.58L47.37,112.58L47.5,111.45L47.52,111.21L47.52,111.21L47.64,119.96L47.67,121.84L47.81,105.04L48.11,116.43L48.11,254.29L48.25,255.86L48.25,243.33L48.4,241.14L48.4,115.81L48.54,113.98L48.54,113.98L48.66,122.89L48.98,111.62L49.42,155.09L49.57,145.44L49.69,143.62L50.01,145.03L50.13,129.88L50.15,126.62L50.59,98.92L50.88,110.23L51,32.69L51.18,120.11L51.76,16L51.76,16L51.88,16L52.64,28.53L52.64,28.53L52.76,28.53L53.22,28.53L53.22,16L53.52,79.47L54.07,61.39L54.1,60.52L54.25,66.7L54.69,56.15L54.69,56.15L54.81,54.06L54.83,53.61L54.83,53.61L54.95,22.69L54.98,16L55.27,60.31L55.56,52.68L55.68,50.8L55.71,50.39L55.71,50.39L55.83,59.36L55.86,61.3L56.15,52.04L56.44,56.02L56.56,52.73L56.88,50.61L57,58.02L57.03,59.63L57.61,50.76L57.61,63.29L57.61,63.29L57.73,63.89L57.9,68.46L58.05,64.39L58.05,51.86L58.34,50.36L58.49,54.32L58.61,51.06L58.63,50.36L58.78,52.37L58.93,52.3L58.93,177.63L59.07,16L59.36,54.54L59.36,179.87L59.66,177.74L59.66,52.41L59.95,53.27L60.1,50.41L60.1,50.41L60.22,56.81L60.39,70.51L60.53,70.22L60.65,25.7L61.27,16L61.27,28.53L61.39,28.53L61.41,28.53L61.7,53.6L62.14,41.07L62.26,41.07L62.44,41.07L62.44,28.53L62.73,28.53L62.73,16L63.61,282.09L63.61,156.76L63.73,148.58L63.75,146.79L64.19,169.11L64.34,155.73L64.34,168.26L64.48,165.68L64.48,178.22L64.63,166.83L64.63,154.29L64.77,156.47L64.77,169L64.92,187.95L65.36,151.41L65.36,138.87L65.51,150.12L65.65,126.87L65.94,131.47L65.94,118.93L66.68,95.69L66.82,96.56L66.82,84.03L67.11,77.66L67.26,80.25L67.38,101.13L67.41,105.72L67.85,68.37L67.85,68.37L67.97,66.59L68.14,72.55L68.28,61.39L68.28,61.39L68.4,24.19L68.43,16L68.72,63.62L68.99,61.17L69.02,61.03L69.31,64.68L69.89,50.5L69.89,50.5L70.01,52.03L70.18,54.36L70.18,54.36L70.3,22.94L71.06,16L71.06,16L71.18,16L72.67,16L72.67,16L72.79,44.76L73.4,176.2L73.69,175.39L73.69,50.06L73.99,51.11L73.99,51.11L74.11,22.38L74.86,16L74.86,16L74.98,16L75.89,16L75.89,166.39L76.33,166.39L76.33,28.53L76.91,251.9L77.2,237.67L77.32,230.89L77.35,229.38L77.5,234.49L77.5,109.16L78.37,16L78.37,16L78.49,16L79.25,16L79.25,28.53L79.54,28.53L79.54,41.07L80.71,41.07L80.71,28.53L81.44,28.53L81.44,16L86.27,16L86.27,141.33L86.42,141.33L86.42,16L86.85,16L86.85,28.53L87.58,69.68L87.73,63.28L87.85,65.85L87.88,66.43L88.02,62.96L88.17,63.34L88.17,188.67L88.46,196.66L88.46,71.33L88.61,72.77L88.61,60.23L88.75,56.41L89.05,66.02L89.05,66.02L89.17,65.2L89.19,65.01L89.19,65.01L89.31,71.13L89.34,72.51L89.34,197.84L89.49,194.85L89.49,207.39L89.49,207.39L89.6,214.55L89.63,216.18L89.78,210.02L89.78,84.69L90.51,98.32L90.51,110.85L90.95,100.99L91.39,126.33L91.53,125.44L91.65,120.98L91.68,119.97L91.83,129.84L91.83,129.84L91.94,57.49L91.97,41.07L92.26,129.85L92.56,115.33L92.68,126.29L92.85,107.79L92.99,133.27L93.29,116.12L93.41,112.79L94.02,81.25L94.43,86.73L94.46,86.22L94.6,89.44L94.6,89.44L94.72,72.13L94.9,79.02L95.04,64.03L95.33,69.02L95.33,194.34L95.77,181.93L95.92,192.26L95.92,66.93L96.8,50.74L96.94,53.74L97.06,62.72L97.09,64.78L97.24,51.17L97.67,56.88L97.79,54.16L97.97,50.71L98.23,60.15L98.26,61.03L98.7,51.28L99.11,55.6L99.14,56.19L99.28,51L99.43,65.5L99.43,65.5L99.55,69.89L99.57,70.9L99.87,52.69L99.87,52.69L99.99,53.4L100.16,50.9L100.45,55.43L100.6,53.96L100.72,52.66L101.04,54.46L101.33,50.75L101.59,50.85L101.62,50.8L101.77,54.94L101.77,180.27L101.91,176.33L101.91,51L102.21,56.62L102.21,181.95L102.35,180.81L102.35,55.48L102.5,59.39L102.5,184.72L102.65,180.85L102.65,80.59L102.79,80.06L102.94,80.58L103.06,84.84L103.08,85.82L103.38,68.62L103.5,69.97L103.52,70.28L104.25,209.06L104.25,209.06L104.37,212.42L104.4,213.19L104.55,211.14L104.55,85.82L104.69,85.21L104.84,87.75L104.84,87.75L104.96,95.05L104.98,96.74L105.28,77.19L105.42,86.09L105.54,78.65L105.57,89.47L105.72,41.07L105.72,28.53L106.59,89.94L106.59,89.94L106.71,86.18L107.18,69.49L107.3,77.57L107.32,79.44L107.47,67.98L107.88,90.2L107.91,91.86L108.06,90.8L108.06,90.8L108.17,79.77L108.35,94.47L108.49,28.53L108.61,73.7L108.64,84.18L108.64,96.72L109.37,69.52L109.37,69.52L109.49,72.81L109.52,73.58L109.81,68.06L109.81,55.53L109.96,53.69L110.25,53.78L110.37,23.13L111.13,16L111.13,16L111.24,16L112,63.49L112,63.49L112.12,63.97L112.3,67.9L112.59,65.57L112.59,53.03L112.88,51.49L113.03,54.89L113.17,52.1L113.29,52.05L113.61,51.31L114.05,65.11L114.05,52.58L114.17,53.86L114.2,54.15L114.34,51.74L114.64,51.93L114.75,51.43L114.93,53.65L115.07,50.8L115.07,63.33L115.22,65.82L115.22,53.29L115.22,53.29L115.34,51.75L115.66,50.51L115.95,52.52L116.1,51.52L116.1,64.06L116.24,63.75L116.24,63.75L116.36,73.41L116.39,75.67L116.39,63.14L116.68,71.68L116.68,197.01L116.83,196.95L116.83,71.63L117.09,76.63L117.12,77.62L117.56,77.61L117.85,225.41L117.85,225.41L117.97,221.87L118,221.04L118,95.72L118.14,104.26L118.29,103.82L118.29,229.15L118.44,229.5L118.44,216.97L118.58,229.28L118.58,103.95L118.73,89.1L119.14,119.47L119.17,120.53L119.17,133.06L119.9,97.73L119.9,97.73L120.02,96.1L120.05,95.71L120.05,83.18L120.34,100.56L120.34,225.88L120.48,207.11L120.78,240.98L120.78,115.66L120.92,105.3L121.22,130.18L121.22,142.71L122.38,68.81L122.38,68.81L122.5,80.35L122.68,73.27L122.82,98.82L123.26,82.58L123.38,69.62L124.14,51.63L124.26,55.2L124.29,56.04L124.72,51.02L125.16,52.31L125.28,51.86L125.46,54.74L125.6,50.83L125.89,51.3L126.01,51.56L126.19,53.57L126.33,51.77L126.45,34.15L126.48,29.97L126.92,53.02L127.06,51.69L127.18,53.04L127.21,53.35L127.77,51.42L127.79,50.99L128.67,52.9L128.67,52.9L128.79,51.69L129.11,51.86L129.55,50.62L129.55,50.62L129.67,51.23L129.7,51.38L129.99,50.5L130.28,50.94L130.4,59.56L130.72,71.32L130.72,196.65L130.87,200.32L130.87,74.99L131.6,82.91L131.71,81.14L131.74,80.72L132.04,103.29L132.18,75.52L132.47,80.61L132.59,78.45L132.62,77.94L132.62,77.94L132.74,27.96L132.77,16L133.21,41.07L133.47,28.53L133.5,28.53L133.5,178.92L134.23,28.53L134.35,28.53L134.52,28.53L134.52,28.53L134.64,98.76L135.54,244.39L135.54,244.39L135.66,232.41L135.84,215.19L135.84,89.87L135.98,101.84L136.39,75.18L136.42,72.67L136.57,76.93L136.83,65.19L136.86,63.62L137.15,57.04L137.74,77.76L137.74,77.76L137.86,57.09L138.32,50.86L138.62,50.88L138.73,53.11L138.91,52.17L139.49,60.45L139.64,58.99L139.76,57.68L139.93,61.83L140.81,51.04L140.81,51.04L140.93,22.82L140.95,16L141.39,52.99L141.54,51.39L141.66,51.79L141.69,177.22L141.98,51.45L142.39,64.55L142.42,64.68L142.86,63.6L143.12,64.77L143.15,64.99L143.29,64.09L143.29,51.55L143.44,51.67L143.59,51.37L143.7,50.75L143.73,50.6L144.17,51.93L144.17,51.93L144.29,51.81L144.61,72.19L144.61,197.52L144.76,196.95L144.9,197.48L144.9,72.16L145.93,87.76L145.93,87.76L146.04,40.12L146.07,28.53L146.22,206.64L146.36,196.5L146.36,221.57L146.51,217.55L146.66,226.29L146.66,226.29L146.77,237.41L146.8,240.11L146.8,114.78L146.95,109.29L147.07,130.78L147.1,132.96L147.97,99.66L147.97,212.45L148.12,214.86L148.27,207.67L148.27,207.67L148.38,205.45L148.41,204.91L148.41,217.45L148.41,217.45L148.53,220.43L148.56,221.16L148.7,215.6L148.7,90.27L149.44,115.22L149.55,98.58L149.58,97.58L149.73,96.28L149.73,96.28L149.85,31.76L150.31,219.79L150.61,16L150.61,16L150.72,16L151.48,28.53L151.48,28.53L151.6,28.53L152.21,28.53L152.21,16L152.65,16L152.65,16L152.77,58.38L152.8,68.78L153.09,51.25L153.5,51.73L153.53,51.84L153.68,51.54L153.82,51.67L153.94,54.9L153.97,55.7L154.11,51.73L154.55,51.77L154.67,53.49L154.7,53.92L154.85,51.44L155.28,52.64L155.4,52.03L155.72,52.52L156.02,51.61L156.13,51.97L156.16,52.06L156.6,51.42L156.75,51.68L156.75,64.21L157.04,64.05L157.04,51.52L157.33,51.1L157.33,51.1L157.45,34.5L157.48,30.4L157.92,63.93L157.92,63.93L158.03,63.45L158.65,86.45L158.65,211.78L158.79,198.74L158.79,85.95L159.09,84.57L159.09,97.1L159.52,100.58L159.52,88.05L160.26,110.63L160.26,248.49L160.4,248.36L160.4,260.9L160.55,258.7L160.55,133.38L160.69,131.83L160.69,131.83L160.81,117.18L160.99,127.82L161.13,66.13L161.13,191.46L161.28,191.46L161.28,178.92L161.43,178.92L161.43,166.39L162.3,16L162.3,153.86L162.74,153.86L162.74,28.53L163.18,28.53L163.18,41.07L163.33,41.07L163.33,53.6L163.47,41.07L163.47,41.07L163.59,117.79L163.76,142.27L164.35,126.85L164.35,114.32L164.5,117.05L164.64,107.42L164.64,94.89L164.79,97.49L164.93,89.81L164.93,89.81L165.05,74.9L165.08,71.19L165.67,88.53L165.67,88.53L165.78,79.59L165.96,91.47L166.54,28.53L166.66,64.27L166.69,73.18L167.57,16L167.57,16L167.68,16L169.32,16L169.32,16L169.44,44.15L169.61,53.29L170.2,51.2L170.32,52.56L170.34,52.9L170.49,50.8L170.64,50.84L170.75,22.98L171.51,16L171.51,16L171.63,16L171.95,41.07L172.39,28.53L172.39,16L172.83,16L172.83,28.53L173.27,28.53L173.27,153.86L174.15,16L174.15,41.07L174.44,41.07L174.44,53.6L174.73,53.6L174.73,41.07L175.02,41.07L175.02,28.53L175.46,28.53L175.46,41.07L176.05,41.07L176.05,53.6L176.92,53.6L176.92,41.07L177.22,41.07L177.22,28.53L177.95,16L177.95,28.53L178.06,28.53L178.83,53.6L178.83,53.6L178.94,53.6L179.7,28.53L179.7,28.53L179.82,28.53L180.14,28.53L180.14,16L182.04,16L182.04,141.33L182.33,141.33L182.33,16L185.84,16L185.84,28.53L185.99,28.53L185.99,153.86L186.28,166.39L186.28,28.53L186.87,28.53L186.87,16L187.6,16L187.6,141.33L188.48,16L188.48,16L188.59,16L189.35,41.07L189.35,41.07L189.47,41.07L189.94,41.07L189.94,53.6L190.96,28.53L190.96,28.53L191.08,28.53L192.13,28.53L192.13,16L193.3,16L193.3,141.33L193.59,153.86L193.59,28.53L194.47,28.53L194.47,153.86L194.76,153.86L194.76,141.33L194.91,141.33L194.91,28.53L196.37,28.53L196.37,16L197.69,16L197.69,28.53L198.13,28.53L198.13,16L198.71,16L198.71,141.33L198.86,141.33L198.86,28.53L199.44,41.07L199.59,28.53L199.59,16L200.03,16L200.03,28.53L200.61,28.53L200.61,16L200.9,16L200.9,28.53L201.05,28.53L201.05,153.86L201.34,153.86L201.34,28.53L201.49,28.53L201.49,16L201.93,16L201.93,28.53L202.51,28.53L202.51,41.07L202.66,41.07L202.66,28.53L202.81,28.53L202.81,41.07L203.24,178.92L203.54,28.53L203.54,28.53L203.65,28.53L203.83,28.53L203.83,16L204.12,16L204.12,141.33L204.27,141.33L204.27,153.86L204.71,28.53L205.11,53.6L205.14,53.6L205.44,53.6L205.44,41.07L206.02,41.07L206.02,28.53L206.61,16L206.61,141.33L207.19,141.33L207.19,16L212.6,16L212.6,28.53L212.89,28.53L212.89,16L213.33,16L213.33,141.33L214.21,16L214.21,16L214.33,16L215.23,16L215.23,28.53L215.38,28.53L215.38,41.07L215.53,41.07L215.53,166.39L215.82,166.39L215.82,28.53L216.11,28.53L216.11,16L216.99,28.53L216.99,28.53L217.1,28.53L217.72,41.07L217.83,28.53L217.87,28.53L218.16,41.07L218.16,166.39L218.6,166.39L218.6,41.07L219.62,16L219.62,16L219.74,16L220.5,41.07L220.5,41.07L220.61,41.07L220.79,41.07L220.79,28.53L220.94,28.53L220.94,41.07L221.81,28.53L221.81,28.53L221.93,28.53L222.4,28.53L222.4,16L227.95,16L227.95,153.86L228.1,153.86L228.1,28.53L228.83,28.53L228.83,16L229.27,153.86L229.56,28.53L229.68,28.53L230,166.39L230.41,53.6L230.44,53.6L230.73,53.6L230.73,28.53L231.03,28.53L231.03,16L231.46,16L231.46,28.53L231.9,28.53L231.9,153.86L232.34,153.86L232.34,41.07L232.49,41.07L232.49,28.53L232.78,28.53L232.78,41.07L233.51,41.07L233.51,28.53L233.95,28.53L233.95,16L241.7,16L241.7,28.53L241.85,28.53L241.85,141.33L242.14,141.33L242.14,16L242.72,16L242.72,28.53L243.02,28.53L243.02,16L243.75,16L243.75,41.07L244.33,53.6L244.48,41.07L244.48,166.39L244.77,153.86L244.77,28.53L245.06,41.07L245.06,166.39L245.35,166.39L245.35,53.6L245.79,53.6L245.79,41.07L245.94,41.07L245.94,53.6L246.23,53.6L246.23,28.53L246.38,28.53L246.38,41.07L247.4,41.07L247.4,28.53L249.01,28.53L249.01,16L252.23,16L252.23,28.53L253.4,28.53L253.4,16L256.61,16L256.61,28.53L257.05,141.33L257.34,28.53L257.46,28.53L257.64,28.53L257.64,16L258.51,16L258.51,141.33L258.81,141.33L258.81,16L259.1,16L259.1,28.53L260.56,28.53L260.56,41.07L261.44,28.53L261.44,153.86L261.73,153.86L261.73,41.07L262.17,166.39L262.46,28.53L262.46,28.53L262.58,28.53L263.05,41.07L263.31,28.53L263.34,28.53L263.63,28.53L263.63,41.07L264.51,28.53L264.51,28.53L264.62,28.53L265.09,28.53L265.09,16L267.73,16L267.73,28.53L268.46,28.53L268.46,16L271.09,16L271.09,153.86L271.24,153.86L271.24,166.39L272.11,28.53L272.11,28.53L272.23,28.53L273.28,28.53L273.28,41.07L273.57,41.07L273.57,166.39L274.01,166.39L274.01,66.13L274.16,66.13L274.16,53.6L274.45,53.6L274.45,166.39L275.04,166.39L275.04,41.07L275.33,41.07L275.33,28.53L275.48,28.53L275.48,16L282.79,16L282.79,141.33L283.66,16L283.66,16L283.78,16L284.39,16L284.39,28.53L284.69,28.53L284.69,16L285.71,16L285.71,28.53L285.86,28.53L285.86,41.07L286.3,41.07L286.3,28.53L286.73,28.53L286.73,41.07L287.03,41.07L287.03,28.53L287.32,41.07L287.32,166.39L287.47,166.39L287.47,153.86L288.34,28.53L288.34,153.86L288.49,153.86L288.49,41.07L288.93,166.39L289.22,53.6L289.33,53.6L289.81,28.53L290.06,53.6L290.1,53.6L290.1,41.07L290.83,66.13L290.83,66.13L290.94,66.13L291.71,28.53L291.71,28.53L291.82,28.53L292.14,153.86L292.29,16L292.55,16L292.58,16L298.43,16L298.43,28.53L298.72,28.53L298.72,153.86L299.6,16L299.6,16L299.71,16L300.19,208.44L300.33,207.91L300.33,82.58L300.48,85.7L300.48,73.17L300.48,73.17L300.59,72.09L300.63,71.78L300.74,76L300.77,77.23L301.21,241.04L301.5,235.57L301.62,241.06L301.65,242.66L301.65,117.34L302.38,87.95L302.38,87.95L302.49,103.43L302.67,90.95L302.82,108.7L302.82,234.03L302.96,219.91L303.4,243.24L303.4,243.24L303.52,243.59L303.7,118.09L303.99,267.73L304.25,259.67L304.28,262.83L304.43,243.5L304.43,118.18L305.01,116.47L305.16,132.89L305.16,120.36L305.27,98.08L305.45,102.05L306.04,77.16L306.04,77.16L306.15,81.83L306.18,83.19L306.62,70.79L306.62,70.79L306.73,70.52L306.91,70.3L306.91,70.3L307.03,65.83L307.21,67.59L307.64,60.25L307.76,65.95L307.79,67.63L308.81,60.11L308.81,60.11L308.93,60.67L308.96,60.84L309.11,60.01L309.11,60.01L309.22,57.16L309.4,58.36L309.84,52.8L309.98,56.82L310.1,53.79L310.71,55.02L310.86,52.69L310.86,52.69L310.97,54.45L311.01,54.97L311.01,180.3L311.3,178.1L311.45,179.83L311.45,54.5L311.88,51.03L312.03,52.07L312.03,64.6L312.18,66.02L312.32,63.91L312.62,64.04L312.62,51.51L312.76,51.62L312.76,51.62L312.87,56.29L313.35,85.79L313.49,83.9L313.49,71.37L313.64,82.64L313.64,70.11L314.22,79.35L314.34,77.43L314.37,76.86L314.48,88.53L314.52,91.98L314.66,92.65L314.66,92.65L314.77,98.3L314.95,135.95L315.1,124.61L315.1,249.93L315.25,267.13L315.39,259.99L315.39,134.66L315.69,148.1L315.83,137.34L315.83,124.8L315.98,122.17L315.98,247.5L316.12,270.1L316.27,258.81L316.27,133.49L316.42,140.22L316.56,120.34L316.71,139.23L316.71,264.56L316.86,258.53L317,260.68L317,147.88L317.15,148.96L317.15,136.42L317.29,138.53L317.29,138.53L317.41,125.25L317.44,108.76L317.88,135.88L317.99,133.89L318.03,133.3L318.76,102.09L318.76,102.09L318.87,100.47L318.9,99.99L319.02,109.37L319.05,112.17L319.93,88.78L319.93,88.78L320.04,89.39L320.07,89.57L320.07,77.04L320.22,69.9L320.51,81.51L320.66,77.89L320.77,85.57L320.8,87.86L321.1,61.18L321.1,61.18L321.21,56.41L321.24,54.99L321.39,65.08L321.94,57.11L321.97,57.54L323,51.64L323,51.64L323.11,54.11L323.58,58.66L323.73,51.93L323.87,55.22L323.99,53.34L324.46,51.22L324.61,55.03L324.75,52.95L324.86,55.14L324.9,55.8L324.9,181.12L325.04,178.79L325.04,53.47L325.34,54.36L325.48,51.62L325.92,51.81L325.92,64.34L326.07,66.91L326.21,64.14L326.51,64.43L326.51,51.89L326.65,51.7L326.8,52L326.91,56.34L328.55,134.74L328.7,118.23L328.7,243.55L328.99,268.42L329.14,262.71L329.14,137.39L329.58,166.89L329.58,154.35L329.69,139.72L330.16,119.9L330.31,131.91L330.31,232.17L330.45,227.41L330.6,243.85L330.6,118.53L330.75,116.47L330.75,129.01L331.77,173.56L331.77,161.03L331.88,153.36L332.06,172.83L333.52,99.41L333.52,99.41L333.64,97.54L335.57,59L335.57,59L335.68,66.92L335.72,69.31L335.86,54.96L336.3,61.19L336.41,58L336.59,55.93L336.74,61.03L337.18,56.44L337.29,56.76L337.47,59.64L337.62,54.05L337.91,55.1L338.02,53.36L338.35,56.53L338.64,52.82L338.64,52.82L338.75,53.7L339.08,52.08L339.23,56.04L339.34,52.94L339.37,52L339.81,56.64L339.81,69.17L340.1,64.73L340.1,52.2L340.25,54.84L340.25,180.17L340.4,178.15L340.4,52.83L340.54,52.95L340.54,52.95L340.65,54.59L340.69,55.09L340.69,180.42L340.84,177.59L340.84,52.26L341.57,90.99L341.57,216.31L341.71,228.35L341.71,103.02L341.86,92L342.01,117.84L342.41,104.1L342.44,104.86L342.7,126.15L342.74,131.46L343.03,111.67L343.47,253.17L343.47,127.85L343.58,128.98L343.76,130.85L343.76,155.91L343.91,148.07L344.05,162.53L344.49,153.77L344.6,160.31L344.64,162.32L344.78,145.09L344.93,158.29L344.93,133.22L345.08,123.8L345.22,144.25L345.51,134.16L345.63,144.9L346.25,172.21L346.36,144.34L346.39,139.63L346.54,160.73L346.94,116.26L346.98,112.51L347.12,127.58L347.27,107.97L347.42,110.54L347.53,90.47L347.71,97.91L348.15,73.7L348.15,199.02L348.29,205.48L348.44,196.19L348.44,70.87L348.58,83.82L348.73,66.07L349.02,72.28L349.14,64.41L349.32,68.12L349.75,54.03L349.9,59.27L350.01,62.49L350.05,63.48L350.34,55.46L350.6,59.17L350.63,58.6L351.51,51.6L351.51,51.6L351.62,53.85L351.8,56.74L352.21,52.24L352.24,51.02L352.83,58.6L353.12,54.9L353.23,52.36L353.56,53.57L353.7,51.25L353.7,51.25L353.81,57.31L353.85,59.19L353.99,51.04L354.29,52.29L354.29,177.62L354.43,176.85L354.43,51.53L354.73,51L355.16,71.09L355.31,69.22L355.31,182.02L355.46,183.68L355.46,58.35L355.9,209.47L356.01,107.25L356.04,110.53L356.33,85.15L356.77,228.38L356.77,228.38L356.88,238.75L356.92,241.97L356.92,116.65L357.07,100.27L357.65,118.59L357.65,118.59L357.76,129.8L357.94,117.8L358.38,153.57L358.38,153.57L358.49,127.79L358.53,119.78L359.11,152.66L359.11,152.66L359.22,159.55L359.26,161.69L359.41,138.65L359.7,146.51L359.7,271.84L359.84,276.93L359.99,258.75L359.99,133.42L360.28,151.49L360.39,140.08L360.43,136.52L360.57,136.2L360.57,123.66L360.72,109.38L360.72,234.71L360.87,235.24L360.87,235.24L360.98,231.59L361.01,217.92L361.16,227.91L361.16,102.58L361.31,102.34L361.31,102.34L361.42,105.94L361.45,107.07L361.45,232.39L361.89,204.61L361.89,79.28L362.62,63.48L362.73,71.96L362.77,74.6L363.79,56.81L363.79,56.81L363.9,60.51L363.94,61.67L364.38,53.12L364.52,58.69L364.63,55.82L365.11,52.31L365.22,58.93L365.25,61L365.84,53.33L365.98,54.12L365.98,66.65L366.13,64.95L366.28,68.12L366.57,65.53L366.57,52.99L366.86,52.47L367.01,59.16L367.3,52.99L367.41,54.5L367.59,52.07L367.74,55.51L367.89,52.15L367.89,64.68L368.32,64.53L368.47,67.59L368.47,80.12L368.62,76.66L368.62,201.98L368.76,203.95L368.76,78.63L368.91,76.77L369.06,79.63L369.06,79.63L369.17,93.82L369.2,98.28L369.64,72.66L369.75,73.25L369.79,73.44L370.08,72.34L370.66,91.39L370.66,91.39L370.78,102.64L371.54,128.96L371.54,254.29L371.69,247.58L371.69,134.78L371.83,136.1L371.98,130.85L371.98,118.32L372.13,95.25L372.27,103.55L372.27,228.87L372.42,224.78L372.56,231.59L372.56,106.27L372.71,148.77L373.3,130.51L373.41,127.67L373.44,126.77L373.55,142.08L373.59,146.91L374.03,121.41L374.03,246.74L374.17,257.26L374.47,244.32L374.47,106.47L375.93,84.07L375.93,84.07L376.04,85.21L376.07,85.57L376.18,79.45L376.22,77.52L376.37,93.56L376.95,83.35L377.06,86.1L377.1,86.98L377.24,78.61L377.24,78.61L377.35,74.55L377.54,85.23L378.12,59.24L378.23,67.96L378.27,70.73L379.14,57.23L379.14,57.23L379.26,55.01L379.58,53.12L379.73,56.22L379.99,55.15L380.02,55.04L380.61,52.12L380.75,54.6L380.86,53.71L381.19,54.62L381.34,51.82L381.34,64.36L381.48,67.58L381.48,55.05L381.48,55.05L381.59,52.57L381.63,51.78L381.63,64.32L381.63,64.32L381.74,65.38L381.78,65.72L381.78,191.05L381.92,191.63L381.92,66.31L382.07,66.89L382.07,54.35L382.22,56.07L382.36,52.75L382.36,190.6L382.51,191.47L382.65,191.27L382.65,65.94L382.8,64.9L382.95,66.75L382.95,66.75L383.06,68.49L383.38,84.83L383.68,83.28L383.68,70.75L384.12,55.14L384.12,67.67L384.23,68.77L384.41,76.59L384.52,70.34L384.55,68.34L384.99,76.5L384.99,63.97L385.14,71.76L385.25,64.86L385.29,62.65L385.43,71.61L386.02,62.91L386.13,70.43L386.46,67.45L386.75,89.93L387.04,85.37L387.15,90.21L387.19,91.76L387.33,84.12L387.33,196.92L387.48,205.38L387.77,196.54L387.77,71.21L388.21,65.81L388.36,86.43L388.5,76.36L388.61,77.39L388.79,84.99L388.79,84.99L388.91,78.24L388.94,76.07L389.09,76.97L389.09,202.3L389.23,186.52L389.34,197.06L389.38,200.44L389.53,181.19L389.53,55.86L390.26,55.48L390.4,67.17L390.4,67.17L390.51,59.36L391.13,65.22L391.28,52.41L391.28,52.41L391.39,58.13L391.43,59.97L392.01,52.3L392.01,52.3L392.12,56.37L392.45,52.62L392.6,68L393.15,65.9L393.18,66.39L393.47,64.45L393.62,66.68L393.62,192L393.77,189.42L393.91,195.62L393.91,57.76L394.79,50.97L394.79,50.97L394.9,51.21L395.52,54.96L395.63,52.3L395.67,51.44L395.81,53.94L395.96,51.04L396.4,52.21L396.51,52.85L396.69,51.03L397.09,58.52L397.13,60.43L397.71,55.52L397.82,60.82L397.86,62.54L397.86,200.4L398.59,81.21L398.7,75.7L399.03,91.83L399.18,67.46L399.18,80L399.29,83.5L400.2,127.21L400.35,123.35L400.35,110.81L400.49,117.05L400.78,97.53L400.78,97.53L400.9,100.35L401.22,127.32L401.52,117.5L401.63,110.78L401.66,108.59L401.81,123.01L401.81,235.8L401.95,208.44L402.1,228.79L402.1,103.47L402.25,108.42L402.39,96.64L402.54,101.02L402.65,87.11L402.69,82.58L402.98,120.24L403.12,113.51L403.23,118.66L403.27,120.33L403.67,106.13L403.71,101.64L403.86,107.83L403.86,233.16L404.15,223.44L404.15,85.58L404.29,94.59L404.84,83.71L404.88,81.72L405.17,82.89L405.17,82.89L405.28,81.53L405.32,81.08L405.32,68.55L405.61,59.98L405.76,68.78L406.19,61.58L406.31,63.68L406.49,65.21L406.63,61.64L406.78,62.48L406.89,56.49L407.66,52.26L407.66,52.26L407.77,53.77L408.1,52.64L408.24,55.19L408.24,180.51L408.39,177.66L408.53,179.41L408.53,54.09L409.12,51.95L409.23,53.88L409.27,54.51L409.56,52.24L409.7,54.58L410.14,52.81L410.25,52.55L410.58,51.81L410.73,54.42L410.98,52.56L411.02,52.77L411.46,58.86L411.86,57.39L411.9,57.22L412.04,57.66L412.04,57.66L412.15,60.97L412.19,74.6L412.34,68.78L412.34,93.85L412.48,95.12L412.63,93.93L412.63,81.4L412.92,86.03L412.92,60.96L413.07,57.68L413.21,63.9L413.21,76.43L413.51,71.22L413.8,74.77L413.8,200.09L413.94,200.48L413.94,187.95L414.24,204.49L414.38,195.86L414.38,70.53L414.53,101.05L414.97,92.26L414.97,217.58L415.41,244.65L415.41,119.32L415.55,120.6L415.55,108.06L416.28,123.37L416.28,123.37L416.39,111.29L417.16,89.06L417.16,89.06L417.27,99.3L417.31,102.69L417.86,86.76L417.89,84.83L418.15,79.2L418.18,77.61L418.33,89.25L418.77,75.02L418.92,78.85L419.03,73.53L419.94,61.84L419.94,61.84L420.05,63.39L420.38,62.78L420.67,66.45L420.67,66.45L420.78,61.52L421.11,59.48L421.4,64.8L421.55,60.22L421.66,62.49L421.69,63.24L422.1,56.92L422.13,55.03L422.86,51.7L422.97,52.78L423.01,53.14L423.16,53.24L423.16,65.77L423.3,64.36L423.45,64.67L423.45,52.13L423.74,53.28L424.03,51.03L424.03,51.03L424.14,53.04L424.18,53.72L424.33,50.97L424.76,51.4L424.87,52.3L425.06,50.84L425.17,55.92L425.2,57.61L425.5,89.44L425.93,74.93L426.04,77.44L426.37,91.31L426.37,229.17L426.52,240.14L426.67,238.7L426.67,113.38L426.81,113.93L426.81,126.46L426.96,132.03L426.96,244.83L427.1,247.69L427.1,134.89L427.25,131.77L427.25,144.3L427.25,144.3L427.36,145.49L427.4,145.88L427.4,283.74L427.54,287.88L427.69,285.47L427.69,147.61L428.13,114.51L428.13,239.84L428.27,248.11L428.27,235.57L428.42,246.26L428.42,133.47L428.57,128.29L428.71,145.3L428.71,145.3L428.82,160.38L429.01,140.26L429.44,204.73L429.59,169.71L429.59,295.03L429.74,304L429.85,275.7L429.88,266.21L430.03,296.22L430.03,158.36L430.03,158.36L430.14,151.03L431.2,103.94L431.2,103.94L431.31,101.84L432.08,84.59L432.22,95L432.33,101L432.37,103.01L432.81,91.31L432.81,91.31L432.92,78.98L433.1,82.25L433.54,65.85L433.68,71.69L433.79,64.98L433.98,72.13L434.27,60.55L434.56,63.37L434.67,60.08L434.71,58.98L434.85,68.9L435,62.71" style="vector-effect: non-scaling-stroke; fill: none; stroke: rgb(0, 128, 0); stroke-opacity: 1; stroke-width: 2px; opacity: 1;"/></g><g class="points"/><g class="text"/></g></g></g><g class="overplot"/><path class="xlines-above crisp" d="M0,0" style="fill: none;"/><path class="ylines-above crisp" d="M0,0" style="fill: none;"/><g class="overlines-above"/><g class="xaxislayer-above"><g class="xtick"><text text-anchor="middle" x="0" y="433" transform="translate(80,0)" style="font-family: 'Open Sans', verdana, arial, sans-serif; font-size: 12px; fill: rgb(42, 63, 95); fill-opacity: 1; white-space: pre; opacity: 1;"><tspan class="line" dy="0em" x="0" y="433">May 1</tspan><tspan class="line" dy="1.3em" x="0" y="433">2022</tspan></text></g><g class="xtick"><text text-anchor="middle" x="0" y="433" style="font-family: 'Open Sans', verdana, arial, sans-serif; font-size: 12px; fill: rgb(42, 63, 95); fill-opacity: 1; white-space: pre; opacity: 1;" transform="translate(178.26,0)">May 8</text></g><g class="xtick"><text text-anchor="middle" x="0" y="433" style="font-family: 'Open Sans', verdana, arial, sans-serif; font-size: 12px; fill: rgb(42, 63, 95); fill-opacity: 1; white-space: pre; opacity: 1;" transform="translate(276.52,0)">May 15</text></g><g class="xtick"><text text-anchor="middle" x="0" y="433" style="font-family: 'Open Sans', verdana, arial, sans-serif; font-size: 12px; fill: rgb(42, 63, 95); fill-opacity: 1; white-space: pre; opacity: 1;" transform="translate(374.78,0)">May 22</text></g><g class="xtick"><text text-anchor="middle" x="0" y="433" style="font-family: 'Open Sans', verdana, arial, sans-serif; font-size: 12px; fill: rgb(42, 63, 95); fill-opacity: 1; white-space: pre; opacity: 1;" transform="translate(473.04,0)">May 29</text></g></g><g class="yaxislayer-above"><g class="ytick"><text text-anchor="end" x="79" y="4.199999999999999" transform="translate(0,416.78)" style="font-family: 'Open Sans', verdana, arial, sans-serif; font-size: 12px; fill: rgb(42, 63, 95); fill-opacity: 1; white-space: pre; opacity: 1;">−120</text></g><g class="ytick"><text text-anchor="end" x="79" y="4.199999999999999" style="font-family: 'Open Sans', verdana, arial, sans-serif; font-size: 12px; fill: rgb(42, 63, 95); fill-opacity: 1; white-space: pre; opacity: 1;" transform="translate(0,366.65)">−100</text></g><g class="ytick"><text text-anchor="end" x="79" y="4.199999999999999" style="font-family: 'Open Sans', verdana, arial, sans-serif; font-size: 12px; fill: rgb(42, 63, 95); fill-opacity: 1; white-space: pre; opacity: 1;" transform="translate(0,316.52)">−80</text></g><g class="ytick"><text text-anchor="end" x="79" y="4.199999999999999" style="font-family: 'Open Sans', verdana, arial, sans-serif; font-size: 12px; fill: rgb(42, 63, 95); fill-opacity: 1; white-space: pre; opacity: 1;" transform="translate(0,266.39)">−60</text></g><g class="ytick"><text text-anchor="end" x="79" y="4.199999999999999" style="font-family: 'Open Sans', verdana, arial, sans-serif; font-size: 12px; fill: rgb(42, 63, 95); fill-opacity: 1; white-space: pre; opacity: 1;" transform="translate(0,216.26)">−40</text></g><g class="ytick"><text text-anchor="end" x="79" y="4.199999999999999" style="font-family: 'Open Sans', verdana, arial, sans-serif; font-size: 12px; fill: rgb(42, 63, 95); fill-opacity: 1; white-space: pre; opacity: 1;" transform="translate(0,166.13)">−20</text></g><g class="ytick"><text text-anchor="end" x="79" y="4.199999999999999" style="font-family: 'Open Sans', verdana, arial, sans-serif; font-size: 12px; fill: rgb(42, 63, 95); fill-opacity: 1; white-space: pre; opacity: 1;" transform="translate(0,116)">0</text></g></g><g class="overaxes-above"/></g></g><g class="polarlayer"/><g class="smithlayer"/><g class="ternarylayer"/><g class="geolayer"/><g class="funnelarealayer"/><g class="pielayer"/><g class="iciclelayer"/><g class="treemaplayer"/><g class="sunburstlayer"/><g class="glimages"/><defs id="topdefs-d42e5f"><g class="clips"/><clipPath id="legendd42e5f"><rect width="164" height="67" x="0" y="0"/></clipPath></defs><g class="layer-above"><g class="imagelayer"/><g class="shapelayer"/></g><g class="infolayer"><g class="legend" pointer-events="all" transform="translate(523.7,100)"><rect class="bg" shape-rendering="crispEdges" width="164" height="67" x="0" y="0" style="stroke: rgb(68, 68, 68); stroke-opacity: 1; fill: rgb(255, 255, 255); fill-opacity: 1; stroke-width: 0px;"/><g class="scrollbox" transform="" clip-path="url(#legendd42e5f)"><g class="groups"><g class="traces" transform="translate(0,14.5)" style="opacity: 1;"><text class="legendtext" text-anchor="start" x="40" y="4.680000000000001" style="font-family: 'Open Sans', verdana, arial, sans-serif; font-size: 12px; fill: rgb(42, 63, 95); fill-opacity: 1; white-space: pre;">BESS</text><g class="layers" style="opacity: 1;"><g class="legendfill"/><g class="legendlines"><path class="js-line" d="M5,0h30" style="fill: none; stroke: rgb(0, 191, 255); stroke-opacity: 1; stroke-width: 2px;"/></g><g class="legendsymbols"><g class="legendpoints"/></g></g><rect class="legendtoggle" x="0" y="-9.5" width="158.71875" height="19" style="fill: rgb(0, 0, 0); fill-opacity: 0;"/></g><g class="traces" transform="translate(0,33.5)" style="opacity: 1;"><text class="legendtext" text-anchor="start" x="40" y="4.680000000000001" style="font-family: 'Open Sans', verdana, arial, sans-serif; font-size: 12px; fill: rgb(42, 63, 95); fill-opacity: 1; white-space: pre;">Solar</text><g class="layers" style="opacity: 1;"><g class="legendfill"/><g class="legendlines"><path class="js-line" d="M5,0h30" style="fill: none; stroke: rgb(255, 0, 0); stroke-opacity: 1; stroke-width: 2px;"/></g><g class="legendsymbols"><g class="legendpoints"/></g></g><rect class="legendtoggle" x="0" y="-9.5" width="158.71875" height="19" style="fill: rgb(0, 0, 0); fill-opacity: 0;"/></g><g class="traces" transform="translate(0,52.5)" style="opacity: 1;"><text class="legendtext" text-anchor="start" x="40" y="4.680000000000001" style="font-family: 'Open Sans', verdana, arial, sans-serif; font-size: 12px; fill: rgb(42, 63, 95); fill-opacity: 1; white-space: pre;">Grid Meter (Net Load)</text><g class="layers" style="opacity: 1;"><g class="legendfill"/><g class="legendlines"><path class="js-line" d="M5,0h30" style="fill: none; stroke: rgb(0, 128, 0); stroke-opacity: 1; stroke-width: 2px;"/></g><g class="legendsymbols"><g class="legendpoints"/></g></g><rect class="legendtoggle" x="0" y="-9.5" width="158.71875" height="19" style="fill: rgb(0, 0, 0); fill-opacity: 0;"/></g></g></g><rect class="scrollbar" rx="20" ry="3" width="0" height="0" x="0" y="0" style="fill: rgb(128, 139, 164); fill-opacity: 1;"/></g><g class="g-gtitle"><text class="gtitle" x="297.5" y="50" text-anchor="middle" dy="0em" style="font-family: 'Open Sans', verdana, arial, sans-serif; font-size: 17px; fill: rgb(42, 63, 95); opacity: 1; font-weight: normal; white-space: pre;"><tspan class="line" dy="0em" x="297.5" y="50">Scenario 1</tspan><tspan class="line" dy="1.3em" x="297.5" y="50">Microgrid Output</tspan><tspan class="line" dy="2.6em" x="297.5" y="50">From: May 01, 2022 to May 31, 2022</tspan></text></g><g class="g-xtitle"><text class="xtitle" x="297.5" y="476.409375" text-anchor="middle" style="font-family: 'Open Sans', verdana, arial, sans-serif; font-size: 14px; fill: rgb(42, 63, 95); opacity: 1; font-weight: normal; white-space: pre;">Time</text></g><g class="g-ytitle"><text class="ytitle" transform="rotate(-90,26.168750000000003,260)" x="26.168750000000003" y="260" text-anchor="middle" style="font-family: 'Open Sans', verdana, arial, sans-serif; font-size: 14px; fill: rgb(42, 63, 95); opacity: 1; font-weight: normal; white-space: pre;">Demand (kW)</text></g></g></svg>