<svg class="main-svg" xmlns="http://www.w3.org/2000/svg" xmlns:xlink="http://www.w3.org/1999/xlink" width="700" height="500" style="" viewBox="0 0 700 500"><rect x="0" y="0" width="700" height="500" style="fill: rgb(255, 255, 255); fill-opacity: 1;"/><defs id="defs-182a19"><g class="clips"><clipPath id="clip182a19xyplot" class="plotclip"><rect width="435" height="320"/></clipPath><clipPath class="axesclip" id="clip182a19x"><rect x="80" y="0" width="435" height="500"/></clipPath><clipPath class="axesclip" id="clip182a19y"><rect x="0" y="100" width="700" height="320"/></clipPath><clipPath class="axesclip" id="clip182a19xy"><rect x="80" y="100" width="435" height="320"/></clipPath></g><g class="gradients"/><g class="patterns"/></defs><g class="bglayer"><rect class="bg" x="80" y="100" width="435" height="320" style="fill: rgb(229, 236, 246); fill-opacity: 1; stroke-width: 0;"/></g><g class="layer-below"><g class="imagelayer"/><g class="shapelayer"/></g><g class="cartesianlayer"><g class="subplot xy"><g class="layer-subplot"><g class="shapelayer"/><g class="imagelayer"/></g><g class="gridlayer"><g class="x"><path class="xgrid crisp" transform="translate(178.26,0)" d="M0,100v320" style="stroke: rgb(255, 255, 255); stroke-opacity: 1; stroke-width: 1px;"/><path class="xgrid crisp" transform="translate(276.52,0)" d="M0,100v320" style="stroke: rgb(255, 255, 255); stroke-opacity: 1; stroke-width: 1px;"/><path class="xgrid crisp" transform="translate(374.78,0)" d="M0,100v320" style="stroke: rgb(255, 255, 255); stroke-opacity: 1; stroke-width: 1px;"/><path class="xgrid crisp" transform="translate(473.04,0)" d="M0,100v320" style="stroke: rgb(255, 255, 255); stroke-opacity: 1; stroke-width: 1px;"/></g><g class="y"><path class="ygrid crisp" transform="translate(0,391.19)" d="M80,0h435" style="stroke: rgb(255, 255, 255); stroke-opacity: 1; stroke-width: 1px;"/><path class="ygrid crisp" transform="translate(0,320.85)" d="M80,0h435" style="stroke: rgb(255, 255, 255); stroke-opacity: 1; stroke-width: 1px;"/><path class="ygrid crisp" transform="translate(0,180.15)" d="M80,0h435" style="stroke: rgb(255, 255, 255); stroke-opacity: 1; stroke-width: 1px;"/><path class="ygrid crisp" transform="translate(0,109.8)" d="M80,0h435" style="stroke: rgb(255, 255, 255); stroke-opacity: 1; stroke-width: 1px;"/></g></g><g class="zerolinelayer"><path class="yzl zl crisp" transform="translate(0,250.5)" d="M80,0h435" style="stroke: rgb(255, 255, 255); stroke-opacity: 1; stroke-width: 2px;"/></g><path class="xlines-below"/><path class="ylines-below"/><g class="overlines-below"/><g class="xaxislayer-below"/><g class="yaxislayer-below"/><g class="overaxes-below"/><g class="plot" transform="translate(80,100)" clip-path="url(#clip182a19xyplot)"><g class="scatterlayer mlayer"><g class="trace scatter tracefca38b" style="stroke-miterlimit: 2; opacity: 1;"><g class="fills"/><g class="errorbars"/><g class="lines"><path class="js-line" d="M0,150.5L25.15,150.5L25.15,151.89L25.3,151.89L25.3,157.76L25.88,152.9L25.88,160.35L25.88,160.35L26,160.35L26.76,150.5L26.76,150.5L26.88,150.5L33.19,150.5L33.19,114.46L33.34,114.46L33.34,150.5L38.89,150.5L38.89,224.58L39.19,229.75L39.48,107.23L39.77,124.93L39.77,182.1L40.06,147.93L40.65,150.5L40.77,150.5L46.5,150.5L46.5,139.43L46.79,142.67L46.79,131.39L46.79,131.39L46.91,131.39L47.08,132.07L47.08,116.67L47.37,127.62L47.81,116.99L47.81,114.33L48.11,113.27L48.11,116.81L48.11,116.81L48.23,116.81L48.98,150.5L48.98,150.5L49.1,150.5L53.37,150.5L53.37,156.48L53.52,156.48L53.52,159.05L53.81,160.85L54.1,150.5L54.25,153.96L54.37,153.96L55.12,150.5L55.12,150.5L55.24,150.5L60.53,150.5L60.53,145.53L61.41,150.5L61.41,150.5L61.53,150.5L62.87,150.5L62.87,84.46L63.02,84.46L63.02,150.5L67.26,150.5L67.26,153.63L67.55,176.65L67.55,150.5L67.97,150.5L67.99,150.5L67.99,157.75L68.43,149.52L68.72,150.5L68.84,150.5L76.76,150.5L76.76,149.55L77.06,150.5L77.06,61.03L77.93,150.5L77.93,150.5L78.05,150.5L123.55,150.5L123.55,152.25L123.7,152.25L123.7,156.48L124.58,150.5L124.58,150.5L124.7,150.5L137.59,150.5L137.59,155.41L137.74,155.41L137.74,159L138.47,150.5L138.59,151.6L138.62,151.6L138.62,150.5L139.35,150.5L139.46,150.5L165.67,150.5L165.67,165.18L165.96,150.5L166.4,164.74L166.51,164.74L166.69,143.29L167.27,150.5L167.39,150.5L299.89,150.5L299.89,137.85L300.04,137.85L300.04,116.38L300.33,106.82L300.92,150.5L300.92,150.5L301.03,150.5L318.76,150.5L318.76,177.72L319.05,183.37L319.63,150.5L319.63,174.69L319.93,150.5L320.51,151.31L320.51,165.35L320.66,165.35L320.66,150.5L320.95,169.73L321.39,150.5L321.5,150.5L328.11,150.5L328.11,88.87L328.41,149.31L328.7,69.55L328.81,69.55L328.85,69.55L328.85,150.5L329.58,150.5L329.69,150.5L332.79,150.5L332.79,199.64L333.67,150.5L333.67,174.84L333.96,150.5L334.55,153.02L334.55,159.91L335.43,150.5L335.43,150.5L335.54,150.5L342.44,150.5L342.44,87.24L343.32,150.5L343.32,150.5L343.43,150.5L343.76,150.5L343.76,146.85L343.91,146.85L343.91,150.5L344.78,150.5L344.78,147.85L344.93,147.85L344.93,150.5L345.22,142.92L345.66,150.5L345.77,150.5L346.39,150.5L346.39,144.79L346.54,144.79L346.54,150.5L347.42,135.37L347.42,150.5L347.71,143.19L348,154.25L348,154.25L348.11,154.25L348.29,150.59L348.29,233.69L348.58,237.95L348.88,91.32L349.17,150.5L349.28,150.5L355.02,150.5L355.02,149.44L355.46,150.5L355.75,134.19L355.9,136.68L355.9,150.5L356.19,150.5L356.19,132.73L357.07,150.5L357.07,129.69L357.36,150.5L357.5,112.09L357.65,112.42L357.76,112.42L358.24,99.59L358.67,150.5L358.67,150.5L358.79,150.5L360.87,150.5L360.87,259.49L361.45,150.5L361.6,215.45L361.71,215.45L362.18,128.06L362.48,168.79L362.59,168.79L363.35,150.5L363.35,150.5L363.46,150.5L374.9,150.5L374.9,175.82L375.05,175.82L375.05,150.5L375.34,175.46L375.89,171.79L375.93,171.79L375.93,150.5L376.37,172.93L376.66,169.58L376.77,169.58L377.54,150.5L377.54,150.5L377.65,150.5L425.93,150.5L425.93,136.98L426.52,107.25L426.52,150.5L426.52,150.5L426.63,150.5L426.81,81.32L427.36,150.5L427.4,150.5L428.13,69.67L428.13,69.67L428.24,69.67L428.86,150.5L428.97,100.53L429.01,100.53L429.74,150.5L429.74,150.5L429.85,150.5L430.17,150.5L430.17,91.09L430.47,80.97L431.05,150.5L431.05,150.5L431.16,150.5L432.22,150.5L432.22,157.07L432.81,163.52L432.95,158.77L432.95,154.32L433.1,154.32L433.1,162.92L433.98,150.5L433.98,150.5L434.09,150.5L435,150.5L435,150.5" style="vector-effect: non-scaling-stroke; fill: none; stroke: rgb(0, 191, 255); stroke-opacity: 1; stroke-width: 2px; opacity: 1;"/></g><g class="points"/><g class="text"/></g><g class="trace scatter traceeb3e98" style="stroke-miterlimit: 2; opacity: 1;"><g class="fills"/><g class="errorbars"/><g class="lines"><path class="js-line" d="M0,150.66L3.51,150.34L3.51,150.34L3.63,147.91L4.24,125.73L4.24,125.73L4.36,115.68L5.85,16.11L6.41,16.19L6.43,16.19L9.36,16.44L9.36,16.44L9.48,18.33L9.8,36.23L9.8,36.23L9.92,45.28L11.7,150.67L11.7,150.67L11.82,150.67L17.55,150.4L17.55,150.4L17.67,148.74L18.54,123.6L18.57,121.99L20.18,16L20.47,16.12L20.59,16.14L23.39,16.5L23.39,16.5L23.52,21L24.71,110.79L24.71,110.79L24.83,120.7L25.88,150.67L26,150.66L26.03,150.66L31.88,150.35L31.88,150.35L32,149.77L32.61,135.71L32.61,135.71L32.73,123.13L33.19,37.08L33.19,37.08L33.31,130.8L34.07,150.5L34.07,150.5L34.19,150.5L34.51,150.5L34.51,150.5L34.63,39.54L34.65,16.18L35.38,16.27L35.51,16.3L37.43,16.6L37.43,16.6L37.55,20.7L38.02,52.41L38.02,52.41L38.14,61.8L39.77,150.67L39.77,150.67L39.89,150.67L45.62,149.95L45.62,149.95L45.74,146.86L46.35,120.42L46.35,120.42L46.47,110.86L47.96,16.14L48.4,16.26L48.52,16.31L50.88,16.56L50.88,16.56L51,126.78L51.3,16.57L51.76,150.5L51.76,150.5L51.88,150.5L53.22,150.5L53.22,150.5L53.34,149.4L53.37,149.16L53.81,150.67L53.93,150.67L53.95,150.67L59.63,149.95L59.66,149.82L60.53,115.09L60.53,115.09L60.65,144.16L61.41,150.5L61.41,150.5L61.53,150.5L62.73,150.5L62.73,150.5L62.85,40.46L63.31,16.38L63.61,16.52L63.73,16.53L65.63,16.97L65.65,17.08L66.53,84.48L66.53,84.48L66.65,98.23L67.85,150.67L67.85,150.67L67.97,150.67L73.55,150.5L73.55,150.5L73.67,149.56L73.99,144.35L74.13,150.5L74.13,150.5L74.25,150.5L76.62,150.5L76.62,150.5L76.74,40.8L76.76,16.37L77.5,16.51L77.62,16.57L78.52,150.5L78.52,150.5L78.64,150.5L87.73,150.12L87.73,150.12L87.85,147.85L88.32,134.14L88.32,134.14L88.44,125.74L90.07,16.1L90.34,16.2L90.36,16.21L91.83,16.28L91.83,16.28L91.94,125.66L91.97,150.5L92.26,16.21L92.53,16.28L92.56,16.29L93.58,16.41L93.58,16.41L93.7,17.27L93.73,17.46L93.73,17.46L93.85,23.57L96.21,150.67L96.21,150.67L96.33,150.66L102.03,149.91L102.06,149.81L102.65,142.82L102.94,145.15L103.06,143.45L103.67,124.88L103.67,124.88L103.79,114.03L104.4,70.09L104.52,105.12L104.55,113.2L104.84,25.68L105.42,28.28L105.54,44.72L105.72,150.5L105.72,150.5L105.83,45.07L105.86,20.69L106.45,42.8L106.57,54.4L106.89,25.94L107.32,81.84L107.32,81.84L107.44,38.27L107.47,28.18L107.91,71.97L108.06,62.51L108.17,50.01L108.2,47.11L108.35,52.31L108.35,52.31L108.47,132.01L108.49,150.5L108.64,82.17L109.2,128.64L109.23,130.91L110.1,150.68L110.22,150.67L110.25,150.67L111.27,150.5L111.27,150.5L111.39,150.5L115.81,150.17L115.81,150.17L115.92,147.79L116.39,131.19L116.39,131.19L116.51,107.46L116.83,111.43L117.41,25.66L117.53,54.63L117.56,61.43L118,76.36L118.14,21.67L118.44,35L118.56,45.52L119.02,30.58L119.17,77.53L119.17,77.53L119.29,39.58L119.46,54.68L119.9,20.69L120.05,30.54L120.16,20.37L120.19,17.98L120.34,58.48L120.34,58.48L120.46,61.66L120.48,62.41L120.48,62.41L120.6,27.61L120.92,44.95L121.07,16.17L121.22,16.34L121.33,33.27L121.36,37.26L121.51,20.73L122.06,33.57L122.09,33.17L123.85,150.6L123.85,150.6L123.97,150.66L129.7,150.53L129.7,150.53L129.81,150.13L130.57,118.93L130.57,118.93L130.69,109.48L132.04,16.13L132.62,16.2L132.74,124.57L133.5,150.5L133.5,150.5L133.62,150.5L134.52,150.5L134.52,150.5L134.64,42.2L134.67,16.23L135.4,16.56L135.52,37.42L135.69,50.17L135.84,22.83L136.25,35.66L136.28,34.57L137.15,108.35L137.15,108.35L137.27,120.07L138.18,150.68L138.32,150.67L138.44,150.66L143.73,150.51L143.73,150.51L143.85,149.5L144.29,139.83L144.32,139.04L145.61,40.46L145.63,38.57L145.93,19.45L145.93,19.45L146.04,124.86L146.07,150.5L146.22,16.21L146.66,16.33L146.77,16.31L148.7,16.39L148.7,16.39L148.82,16.42L149.73,16.42L149.73,16.42L149.85,124.17L150.02,20.53L150.61,150.5L150.61,150.5L150.72,150.5L157.77,150.45L157.77,150.45L157.89,149.59L158.21,143.53L158.21,143.53L158.33,140.11L159.2,72.53L159.23,70.15L160.11,16.27L160.67,16.44L160.69,16.45L160.99,16.57L160.99,16.57L161.1,123.9L161.86,150.5L161.86,150.5L161.98,150.5L163.47,150.5L163.47,150.5L163.59,43.35L163.76,16.66L164.32,41.25L164.35,43.35L166.4,150.67L166.4,150.67L166.51,150.53L167.71,150.5L167.71,150.5L167.83,150.5L299.75,150.5L299.75,150.5L299.86,122.72L300.63,16.08L300.92,16.13L301.03,16.15L302.2,16.24L302.23,16.24L304.13,16.43L304.13,16.43L304.25,18.13L304.57,35.81L304.57,35.81L304.69,43.41L306.77,150.67L306.77,150.67L306.88,150.67L312.18,150.27L312.18,150.27L312.29,147.36L313.49,93.09L313.49,93.09L313.61,84.7L314.95,16.13L314.95,16.13L315.07,16.22L317.29,16.52L317.29,16.52L317.41,50.9L318.32,150.5L318.32,150.5L318.43,150.5L327.82,150.66L327.82,150.66L327.93,140.23L327.97,137.09L327.97,137.09L328.08,64.8L328.85,16.41L328.85,16.41L328.96,16.41L330.45,16.67L330.45,16.67L330.57,64.67L330.89,150.5L331.18,16.06L331.18,16.06L331.3,16.07L331.77,16.14L331.77,16.14L331.88,50.53L332.79,150.5L332.79,150.5L332.91,150.5L342.3,150.56L342.3,150.56L342.41,63.84L342.74,17.14L342.88,82.48L343.03,82.42L343.14,82.41L345.95,82.43L345.95,82.43L346.06,82.42L347.12,82.46L347.12,82.46L347.23,83.44L347.27,83.74L347.27,83.74L347.38,91.28L348.88,150.67L349.02,150.66L349.14,150.66L354.29,149.97L354.29,149.97L354.4,147.22L355.42,100.01L355.46,97.51L356.19,82.44L356.33,82.45L356.45,82.44L357.36,82.41L357.36,82.41L357.47,48.7L357.65,16.42L358.24,16.51L358.35,16.57L358.97,16.8L358.97,16.8L359.08,91.58L359.84,150.5L359.84,150.5L359.96,150.5L425.79,150.54L425.79,150.54L425.9,115.57L426.81,18.78L426.81,18.78L426.92,16.86L426.96,16.22L427.69,16.46L427.8,16.49L430.47,16.67L430.47,16.67L430.58,20.13L431.49,80.27L431.49,80.27L431.6,88.91L433.1,150.67L433.1,150.67L433.21,150.67L435,150.66L435,150.66" style="vector-effect: non-scaling-stroke; fill: none; stroke: rgb(255, 0, 0); stroke-opacity: 1; stroke-width: 2px; opacity: 1;"/></g><g class="points"/><g class="text"/></g><g class="trace scatter trace5e596a" style="stroke-miterlimit: 2; opacity: 1;"><g class="fills"/><g class="errorbars"/><g class="lines"><path class="js-line" d="M0,171.38L0.15,170.01L0.29,173.69L0.85,170.44L0.88,170.32L1.02,171.78L1.17,170.07L1.61,170.37L1.73,171.24L1.9,169.83L2.49,171.78L2.49,171.78L2.61,170.45L2.78,171.41L3.36,170L3.36,170L3.48,170.69L3.51,241.17L4.22,157.23L4.24,155.9L4.97,97.42L4.97,97.42L5.09,86.95L5.7,44.24L6.14,55.18L6.26,55.03L6.58,51.25L7.02,69.39L7.31,63.92L7.43,62.72L7.46,62.48L7.6,64.9L7.6,71.94L7.75,74.69L7.9,72.83L7.9,136.15L8.04,132.08L8.19,143.12L8.19,72.77L8.48,78.12L8.63,61.89L8.92,63.41L9.04,67.56L9.07,68.4L9.07,61.37L9.21,63.42L9.33,54.16L9.36,52.27L9.77,73.69L9.8,75.66L10.38,116.91L10.38,116.91L10.5,124.56L10.97,159.83L10.97,230.17L11.26,246.18L11.41,246.04L11.41,175.69L11.55,176.34L11.7,174.71L11.7,174.71L11.82,172.05L11.99,176.43L12.57,170.81L12.57,170.81L12.7,172.16L12.72,172.43L12.87,170.93L13.01,171.99L13.13,154.14L13.16,150.5L13.6,172.96L13.74,170.36L13.87,171.36L14.33,169.8L14.48,173.58L14.6,171.42L14.62,170.98L14.91,171.74L15.06,170.01L15.21,171.31L15.33,172.57L15.35,172.83L15.79,169.79L15.94,171.5L16.06,170.22L16.08,169.96L16.08,240.3L16.23,240.63L16.23,170.28L16.38,171.98L16.52,170.23L16.67,171.81L16.67,242.16L16.82,240.67L16.82,170.33L16.96,170.13L17.11,170.88L17.11,177.91L17.25,177.02L17.4,179.08L17.55,178.11L17.55,171.08L18.57,153.7L18.57,153.7L18.69,142.96L19.01,145.57L19.59,130.95L19.59,201.29L20.62,73.26L20.62,73.26L20.74,73.44L21.06,132.49L21.2,61.24L21.35,68.06L21.47,63.13L21.49,62.11L21.64,77.61L21.93,76.55L21.93,146.89L22.08,143.02L22.37,143.7L22.37,66.31L22.52,66.25L22.52,66.25L22.64,62.08L22.66,61.21L23.1,68.43L23.25,64.73L23.25,71.76L23.54,80.45L23.69,71.29L23.69,71.29L23.81,87.59L25,166.51L25,166.51L25.12,171.88L25.15,171.6L25.88,181.45L25.88,174L26,170.49L26.03,169.77L26.32,173.41L26.61,172.79L26.73,171.3L27.05,173.59L27.2,169.76L27.34,172.19L27.46,173.04L27.64,172.41L27.78,173.61L27.78,173.61L27.9,170.9L28.07,171.9L28.66,170.04L28.66,170.04L28.78,171.65L28.95,172.11L29.36,170.08L29.39,169.89L30.12,171.94L30.24,171.41L30.27,171.3L30.41,169.92L30.85,170.38L30.97,154.08L31,150.66L31.44,171.95L31.56,171.38L31.58,171.26L31.58,241.61L32.31,168.66L32.31,168.66L32.44,165.73L32.46,172.15L32.75,159.04L32.75,229.39L33.19,80.15L33.31,173.87L33.34,193.57L33.63,150.5L33.92,227.88L34.07,227.88L34.19,227.88L34.36,227.88L34.36,164.57L34.65,57.38L35.24,76.59L35.36,78.77L35.68,74.79L35.82,82.22L35.97,77.33L35.97,70.29L36.99,84.85L36.99,84.85L37.11,84.22L37.29,78.97L37.58,81.46L37.7,91.63L38.89,245.69L38.89,171.6L39.01,172.66L39.04,172.88L39.04,245.69L39.19,250.86L39.19,102.53L39.33,107.23L39.33,222.72L39.48,224.45L39.48,128.33L39.63,124.92L39.63,203.35L39.77,203.2L39.77,146.03L39.92,147.93L39.92,182.1L40.06,169.04L40.36,174.7L40.48,178.8L40.5,179.67L40.65,175.97L41.09,176.88L41.21,176.1L41.38,174.28L41.67,177.08L41.67,177.08L41.79,177.25L41.96,150.5L42.52,174.63L42.55,174.32L42.7,174.44L42.7,174.44L42.82,171.39L43.28,170.16L43.43,172.15L43.57,170.23L43.69,170.89L44.01,170.31L44.16,171.59L44.28,170.47L44.3,170.23L44.6,171.12L45.01,170.05L45.04,169.97L45.18,171.17L45.62,170.52L45.74,166.49L45.91,163.11L45.91,233.46L46.21,224.72L46.21,154.37L46.64,139.43L46.64,139.43L46.76,132.8L46.79,149.7L47.81,109.96L47.81,109.96L47.93,112.68L48.11,116.81L48.11,183.61L48.25,184.53L48.25,150.85L48.54,148.7L48.54,78.36L48.98,77.12L49.42,94.54L49.54,90.09L49.57,89.13L49.86,86.16L50.01,88.97L50.01,81.93L50.59,63.17L50.74,66.76L50.86,68.98L50.88,69.45L50.88,69.45L51,136.14L51.32,70.57L51.76,150.5L51.76,150.5L51.88,150.5L52.64,157.53L52.64,157.53L52.76,157.53L53.08,157.53L53.08,150.5L53.81,181.95L54.07,176.15L54.1,175.66L54.1,171.6L54.54,178.83L54.83,171.77L54.95,154.28L54.98,150.5L55.27,175.53L55.56,171.25L55.68,170.19L55.71,169.96L55.71,169.96L55.83,175L55.86,176.09L56.15,170.89L56.44,173.13L56.56,171.28L56.88,170.08L57,174.25L57.03,175.15L57.61,170.17L57.61,177.21L57.61,177.21L57.73,177.54L57.9,180.1L58.05,177.82L58.05,170.79L58.34,169.95L58.49,172.17L58.61,170.34L58.63,169.95L58.78,171.08L58.93,171.04L58.93,241.39L59.07,150.66L59.36,172.29L59.36,242.64L59.66,240.61L59.66,170.26L60.53,145.53L60.97,150.5L61.09,150.5L61.27,150.5L61.27,157.53L62.14,171.6L62.14,164.57L62.26,164.57L62.44,164.57L62.44,157.53L62.73,157.53L62.73,157.53L62.85,97.57L63.17,68.09L63.46,154.32L63.46,154.32L63.58,163.81L63.61,165.89L63.75,160.29L63.75,89.94L64.19,102.49L64.48,100.58L64.6,95.27L64.63,94.11L64.89,111.12L64.92,113.04L65.65,79.31L65.8,83.63L65.92,90.49L67.41,197.76L67.41,174.73L67.53,157.81L67.55,154.08L67.7,182.64L68.14,178.85L68.26,173.71L68.43,149.52L68.58,176.79L68.58,175.81L68.7,177.11L68.72,177.39L69.13,173.14L69.16,172.52L69.31,177.98L69.45,171.36L69.75,173.45L69.87,170.65L70.18,172.2L71.06,150.5L71.06,150.5L71.18,150.5L72.67,150.5L72.67,150.5L72.79,166.78L73.4,240.58L73.69,238.82L73.69,168.47L73.84,172.5L75.16,150.5L75.16,150.5L75.28,150.5L75.89,150.5L75.89,234.91L76.33,234.91L76.33,164.57L76.62,234.91L76.76,143.46L76.91,156.78L76.91,78.45L77.06,61.03L77.06,220.84L77.2,230.35L77.2,140.88L77.35,136.26L77.35,65.91L77.5,68.8L77.5,68.8L77.62,26.1L77.64,16.59L77.79,150.5L78.08,150.5L78.2,150.5L79.25,150.5L79.25,157.53L79.54,157.53L79.54,164.57L80.71,164.57L80.71,157.53L81.3,157.53L81.3,150.5L86.27,150.5L86.27,220.85L86.42,220.85L86.42,150.5L86.85,150.5L86.85,157.53L87.58,180.72L87.73,176.65L87.73,169.62L88.02,165.04L88.02,172.07L88.17,167.36L88.17,237.71L88.32,233.97L88.32,163.62L89.34,87.47L89.34,157.82L89.49,145.74L89.63,148.19L89.63,77.84L90.22,55.3L90.51,62.41L90.51,69.44L91.53,84.69L91.68,81.53L91.68,74.5L91.83,80.18L91.83,80.18L91.94,148.95L91.97,164.57L92.53,72.44L92.56,72.05L92.99,82.17L93.11,65.68L93.14,63.52L93.29,72.58L93.73,56.65L93.99,70.87L94.02,71.21L95.63,249.26L95.77,243.77L95.77,173.42L95.92,179.26L96.5,173.17L96.65,179.08L96.77,171.82L96.8,170.16L97.09,178.04L97.38,173L97.5,173.62L97.67,173.61L97.67,173.61L97.79,172.08L97.97,170.14L98.23,175.44L98.26,175.94L98.7,170.46L99.11,172.89L99.14,173.22L99.28,170.31L99.43,178.44L99.43,178.44L99.55,180.91L99.57,181.48L99.87,171.26L99.87,171.26L99.99,171.65L100.16,170.25L100.42,172.79L100.86,170.66L100.89,170.56L101.04,172.25L101.33,170.17L101.59,170.22L101.62,170.19L101.77,172.43L101.77,242.78L101.91,240.37L101.91,170.02L102.06,170.7L102.21,168.76L102.21,239.11L102.35,236.67L102.35,166.32L102.5,167.4L102.5,237.75L102.65,235.35L102.65,179.07L103.08,182.25L103.23,178.71L103.23,171.68L104.25,127.4L104.25,197.75L104.55,222.74L104.69,168.5L104.69,98.15L104.84,65.95L105.42,67.62L105.54,79.88L105.72,164.57L105.72,157.53L105.83,74.36L105.86,55.13L106.45,83.84L106.45,76.8L106.57,88.78L106.74,60.38L107.32,117.45L107.32,117.45L107.44,68.66L107.47,57.36L107.91,114.55L108.06,104.5L108.17,85.8L108.2,81.46L108.47,146.01L108.49,157.53L108.64,120.44L109.2,159.45L109.23,161L109.66,180.86L110.1,172.6L110.22,172.02L111.13,150.5L111.13,150.5L111.24,150.5L112,177.15L112,177.15L112.12,177.56L112.3,179.8L112.59,178.49L112.59,171.46L112.88,170.59L113.03,172.5L113.17,170.93L113.29,170.91L113.61,170.49L114.2,179.12L114.2,172.08L115.07,170.2L115.07,177.23L115.22,178.63L115.37,177.56L115.37,170.52L115.51,170.67L115.66,169.87L115.66,169.87L115.78,169.78L116.1,159.73L116.39,164.68L116.51,144.56L117.12,154.71L117.41,71.66L117.41,71.66L117.53,102.78L118,191.46L118.14,71.22L118.14,71.22L118.26,84.84L118.58,167.7L118.58,97.35L118.73,76.17L119.02,86.13L119.14,126.67L119.17,143.24L119.61,72.5L119.61,72.5L119.73,81.95L120.19,62.36L120.34,105.95L120.34,176.3L120.48,176.71L120.6,138.8L120.63,129.86L120.63,66.55L121.36,97.58L121.48,87.5L122.09,69.04L122.09,69.04L122.21,91.34L122.38,84.87L123.38,166.42L123.41,166.82L123.7,177.59L124.29,173.14L124.29,171.6L124.43,169.65L124.58,172.41L124.87,170.48L124.99,172.39L125.02,172.84L125.57,170.63L125.6,170.21L125.75,171.9L126.33,170.74L126.45,160.72L126.48,158.34L126.92,171.44L127.06,170.7L127.18,171.45L127.21,171.63L127.77,170.54L127.79,170.31L128.67,171.38L128.67,171.38L128.79,170.69L129.11,170.79L129.55,170.1L129.55,170.1L129.67,170.34L129.99,165.65L129.99,165.65L130.11,163.39L130.72,138.28L130.72,208.63L130.87,198.89L130.87,128.54L132.62,50.97L132.62,50.97L132.74,131.28L133.64,248.98L133.64,241.95L133.76,241.95L134.52,157.53L134.52,157.53L134.64,88.66L135.11,71.68L135.4,72.61L135.4,142.96L135.54,170.62L135.84,134.64L135.84,64.29L136.39,111.88L136.42,121.06L136.57,126.83L136.57,126.83L136.69,99.53L136.71,92.97L137.27,149.44L137.3,153.78L137.74,180.11L138.18,171.81L138.29,169.11L138.32,168.46L138.47,172.7L138.91,170.97L139.03,174.26L139.35,173.53L139.49,175.61L139.76,174.06L139.78,173.88L139.93,176.39L140.37,174.61L140.49,172.1L140.93,154.36L140.95,150.5L141.69,241.16L141.98,240.92L141.98,177.6L142.12,178.21L142.56,177.56L142.56,184.6L142.71,184.54L142.71,177.5L143,177.55L143.12,178.05L143.15,178.17L143.29,177.66L143.44,177.72L143.44,170.69L143.88,169.28L143.88,169.28L144,166.5L144.61,150.75L144.61,221.1L144.76,208.51L144.76,138.17L145.93,59.73L145.93,59.73L146.04,138.4L146.07,157.53L146.22,59.91L146.66,64.03L146.77,70.24L146.95,68.62L147.1,81.98L147.53,74.72L147.53,67.68L147.83,67.81L147.97,63.38L147.97,133.72L148.12,135.03L148.12,128L148.41,122.49L148.56,131.58L148.7,128.42L148.7,58.08L149.44,72.13L149.58,69.28L149.58,62.25L149.73,61.49L149.73,61.49L149.85,133.02L149.87,220.85L150.31,83.72L150.46,87.51L150.58,138.12L151.34,157.53L151.34,157.53L151.45,157.53L152.07,157.53L152.07,150.5L152.65,150.5L152.65,150.5L152.77,174.42L152.8,180.29L153.09,170.45L153.5,170.71L153.53,170.78L153.82,170.68L153.82,170.68L153.94,172.5L153.97,172.94L154.11,170.72L154.55,170.74L154.67,171.71L154.7,171.95L154.85,170.55L155.28,171.23L155.4,170.88L156.75,170.69L156.75,177.72L157.04,177.63L157.04,170.6L157.33,170.36L157.33,170.36L157.45,160.91L157.48,158.58L157.77,184.2L157.89,183.5L157.92,183.32L158.65,158.01L158.65,228.35L160.11,67.79L160.11,67.79L160.23,69.11L160.26,69.43L160.26,146.81L160.4,153.84L160.69,151.81L160.69,88.5L160.84,78.29L160.99,79.34L161.1,158.92L161.28,248.98L161.72,157.53L161.72,157.53L161.83,157.53L162.3,150.5L162.3,227.88L162.74,227.88L162.74,157.53L163.18,157.53L163.18,164.57L163.47,164.57L163.47,164.57L163.59,100.48L163.91,83.46L164.32,104.24L164.35,105.57L164.35,98.54L165.08,134.11L165.08,134.11L165.2,149.07L165.67,186.29L166.1,185.94L166.22,178.61L166.4,185.85L166.54,143.29L166.54,164.74L166.66,184.93L166.69,189.97L166.84,157.53L167.24,157.53L167.27,157.53L167.27,150.5L168.01,150.5L168.12,150.5L169.32,150.5L169.32,150.5L169.44,166.43L169.91,241.42L170.2,240.77L170.2,170.42L170.34,171.37L170.49,170.19L170.64,170.22L170.75,154.45L171.51,150.5L171.51,150.5L171.63,150.5L172.1,164.57L172.39,157.53L172.39,150.5L172.83,150.5L172.83,157.53L173.27,157.53L173.27,227.88L173.71,227.88L173.71,150.5L174.15,150.5L174.15,164.57L174.44,164.57L174.44,171.6L175.02,171.6L175.02,157.53L175.46,157.53L175.46,164.57L176.05,164.57L176.05,171.6L176.34,171.6L176.34,178.64L176.49,178.64L176.49,171.6L177.07,171.6L177.07,164.57L177.22,164.57L177.22,157.53L177.95,150.5L177.95,157.53L178.06,157.53L178.83,171.6L178.83,171.6L178.94,171.6L179.12,171.6L179.12,164.57L180.14,150.5L180.14,150.5L180.26,150.5L182.04,150.5L182.04,220.85L182.48,220.85L182.48,150.5L185.99,150.5L185.99,220.85L186.87,150.5L186.87,150.5L186.98,150.5L187.6,150.5L187.6,220.85L188.48,150.5L188.48,150.5L188.59,150.5L189.35,164.57L189.35,164.57L189.47,164.57L190.23,164.57L190.23,157.53L192.13,157.53L192.13,150.5L193.3,150.5L193.3,220.85L193.59,227.88L193.59,157.53L194.47,157.53L194.47,227.88L194.62,227.88L194.62,220.85L194.91,220.85L194.91,157.53L196.23,157.53L196.23,150.5L197.69,150.5L197.69,157.53L198.13,157.53L198.13,150.5L198.86,150.5L198.86,157.53L199.44,164.57L199.59,157.53L199.7,157.53L200.03,150.5L200.44,157.53L200.47,157.53L201.05,157.53L201.05,227.88L201.93,150.5L201.93,157.53L202.04,157.53L202.51,157.53L202.51,164.57L202.81,164.57L202.81,171.6L203.39,241.95L203.54,164.57L203.54,164.57L203.65,164.57L203.83,164.57L203.83,157.53L204.12,150.5L204.12,220.85L204.27,220.85L204.27,227.88L204.71,157.53L205.11,171.6L205.14,171.6L205.29,171.6L205.29,164.57L205.88,164.57L205.88,157.53L206.17,157.53L206.17,150.5L206.61,150.5L206.61,220.85L206.9,220.85L206.9,150.5L212.6,150.5L212.6,157.53L213.19,157.53L213.19,150.5L213.92,220.85L213.92,150.5L214.03,150.5L215.23,150.5L215.23,157.53L215.38,157.53L215.38,164.57L215.53,164.57L215.53,234.91L215.82,234.91L215.82,157.53L216.11,157.53L216.11,150.5L217.13,164.57L217.13,164.57L217.25,164.57L218.16,164.57L218.16,234.91L218.6,234.91L218.6,164.57L218.89,164.57L218.89,157.53L219.04,157.53L219.04,150.5L219.77,150.5L219.77,157.53L220.06,157.53L220.06,164.57L221.23,164.57L221.23,157.53L222.4,157.53L222.4,150.5L227.95,150.5L227.95,227.88L228.1,227.88L228.1,157.53L228.69,157.53L228.69,150.5L228.98,150.5L228.98,227.88L229.27,227.88L229.27,157.53L229.71,157.53L229.71,220.85L229.86,220.85L229.86,234.91L230.73,164.57L230.73,164.57L230.85,164.57L231.46,150.5L231.61,157.53L231.73,157.53L231.9,157.53L231.9,227.88L232.34,227.88L232.34,164.57L232.49,164.57L232.49,157.53L232.78,157.53L232.78,164.57L233.66,164.57L233.66,157.53L234.1,157.53L234.1,150.5L241.7,150.5L241.7,157.53L241.85,157.53L241.85,227.88L242.72,150.5L242.72,157.53L242.84,157.53L243.02,157.53L243.02,150.5L243.75,150.5L243.75,164.57L244.04,171.6L244.48,164.57L244.48,234.91L244.92,157.53L245.21,227.88L245.32,227.88L245.94,164.57L246.09,171.6L246.2,171.6L246.96,164.57L246.96,171.6L247.11,171.6L247.11,164.57L247.55,164.57L247.55,157.53L247.99,157.53L247.99,164.57L248.86,157.53L248.86,157.53L248.98,157.53L249.3,157.53L249.3,150.5L252.23,150.5L252.23,157.53L253.84,157.53L253.84,150.5L256.61,150.5L256.61,157.53L256.91,227.88L257.34,157.53L257.46,157.53L257.78,157.53L257.78,150.5L258.51,150.5L258.51,220.85L258.66,220.85L258.66,150.5L259.1,150.5L259.1,157.53L259.83,157.53L259.83,164.57L259.98,164.57L259.98,157.53L260.56,157.53L260.56,164.57L261.44,157.53L261.44,227.88L261.73,227.88L261.73,164.57L262.17,234.91L262.46,157.53L262.46,157.53L262.58,157.53L262.75,164.57L263.31,157.53L263.34,157.53L264.95,157.53L264.95,150.5L267.73,150.5L267.73,157.53L268.02,157.53L268.02,150.5L271.09,150.5L271.09,227.88L271.24,227.88L271.24,164.57L271.53,164.57L271.53,157.53L271.82,157.53L271.82,150.5L271.97,150.5L271.97,157.53L272.7,157.53L272.7,150.5L272.99,150.5L272.99,157.53L273.28,157.53L273.28,164.57L273.57,164.57L273.57,234.91L273.72,234.91L273.72,227.88L274.01,150.5L274.45,234.91L274.45,234.91L274.57,234.91L274.74,234.91L274.74,157.53L275.04,157.53L275.04,150.5L282.79,150.5L282.79,220.85L283.66,150.5L283.66,150.5L283.78,150.5L284.39,150.5L284.39,157.53L284.54,157.53L284.54,150.5L285.71,150.5L285.71,157.53L286.3,157.53L286.3,150.5L287.17,157.53L287.17,157.53L287.29,157.53L287.61,227.88L287.76,150.5L288.02,150.5L288.05,150.5L288.49,234.91L288.78,234.91L288.9,234.91L289.07,234.91L289.07,164.57L289.37,164.57L289.37,157.53L289.95,157.53L289.95,164.57L290.54,164.57L290.54,171.6L291.41,164.57L291.41,164.57L291.53,164.57L291.85,157.53L291.85,227.88L292,227.88L292.11,227.88L293.02,150.5L293.02,150.5L293.14,150.5L298.43,150.5L298.43,157.53L298.72,150.5L298.72,220.85L299.6,150.5L299.6,150.5L299.71,150.5L299.89,157.53L300.04,116.38L300.04,208.19L300.63,47.39L300.92,59.08L301.03,56.11L301.06,55.25L301.21,65.27L301.21,142.65L301.36,134.04L301.5,146.43L301.5,69.05L301.79,66.92L301.94,73.41L302.09,67L302.09,59.96L302.53,74.87L302.67,58.32L302.82,68.38L302.82,138.73L302.96,130.86L303.11,140.06L303.4,136.78L303.4,73.47L303.84,75.32L303.84,82.36L303.99,87.3L303.99,157.65L304.13,147.17L304.43,154.24L304.43,76.85L306.04,184.25L306.04,177.21L306.18,186.28L306.77,181.23L306.88,181.16L307.64,175.5L307.76,178.7L307.79,179.64L308.81,175.43L308.81,175.43L308.93,175.74L309.22,173.77L309.25,173.3L309.4,174.44L309.54,172.46L309.69,173.22L309.8,171.75L309.84,171.32L309.98,173.58L310.53,171.71L310.57,171.6L310.86,171.26L311.01,172.54L311.01,242.89L311.3,241.66L311.45,242.62L311.45,172.28L311.88,170.33L312.03,170.83L312.03,177.87L312.18,178.35L312.18,178.35L312.29,174.52L313.64,112.59L313.64,112.59L313.75,92.62L314.37,58.31L314.66,59.17L314.77,62.37L314.95,83.46L315.1,77.22L315.1,147.56L315.25,157.2L315.39,153.23L315.39,82.88L315.69,97.47L315.8,85.79L315.83,84.42L315.98,83.07L315.98,146.39L316.12,159.04L316.27,152.67L316.27,82.32L316.42,93.22L316.56,82.02L316.56,74.98L316.71,85.62L316.71,155.97L316.86,152.62L317,153.74L317,90.43L317.15,91.1L317.15,84.06L317.29,85.3L317.29,85.3L317.41,112.23L317.88,217.79L318.32,203.34L318.43,200.31L318.61,202.43L318.76,198.82L318.76,171.6L318.9,170.42L318.9,197.64L319.05,204.48L319.05,171.6L319.05,171.6L319.16,164.64L319.34,201.86L319.49,162.37L319.49,192.62L319.6,195.06L319.63,195.79L319.63,171.6L319.78,168.58L319.78,192.77L319.93,191.35L319.93,171.6L320.07,172.04L320.07,184.32L320.22,172.04L320.48,185.04L320.51,186.45L320.8,190.83L320.95,157.61L321.24,172.38L321.35,176.75L321.39,178.05L321.83,172.77L321.97,173.81L322.09,172.85L323,170.5L323,170.5L323.11,171.89L323.58,174.44L323.73,170.66L323.87,172.51L323.99,171.45L324.46,170.27L324.61,172.4L324.75,171.24L324.86,172.47L324.9,172.84L325.19,171L325.34,172.03L325.45,170.85L325.48,170.49L325.63,171.62L325.92,170.6L325.92,177.63L326.07,179.07L326.21,177.52L326.51,177.68L326.51,170.64L326.8,170.7L326.8,170.7L326.91,173.14L327.82,201.07L327.82,194.03L327.93,179.57L328.41,80.62L328.41,149.31L328.55,147.71L328.55,80.62L328.7,69.55L328.7,225.09L328.85,230.5L328.85,149.56L328.99,158.11L329.28,157.63L329.28,94.31L329.43,91.8L329.43,150.5L329.58,159.94L329.58,94.21L330.16,74.94L330.31,81.68L330.31,144.99L330.45,135.33L330.45,135.33L330.57,190.43L330.75,277.24L331.15,113.91L331.18,91L331.33,85.69L331.48,102.19L331.62,91.66L331.74,101.59L331.92,143.75L331.92,136.71L332.03,214.92L332.06,238.53L332.65,212.22L332.76,218.76L332.79,220.74L332.94,155.64L333.52,197.32L333.64,196.27L333.67,195.95L333.67,171.6L333.82,168.32L333.82,192.66L333.96,189.95L333.96,171.6L334.11,171.93L334.11,189.95L334.26,171.93L334.81,180.3L334.84,180.08L334.99,180.09L335.57,174.64L335.57,174.64L335.68,179.08L335.72,180.42L335.86,172.37L336.3,175.86L336.41,174.07L336.59,172.91L336.74,175.77L337.18,173.2L337.29,173.38L337.47,174.99L337.62,171.86L337.91,172.45L338.02,171.47L338.35,173.25L338.64,171.16L338.75,171.66L338.79,171.81L338.93,171.93L338.93,171.93L339.05,171.03L339.23,172.97L339.37,170.7L339.67,171.57L339.78,172.9L339.81,180.34L340.25,179.33L340.25,249.68L340.4,248.55L340.4,178.2L340.54,178.27L340.54,171.24L340.69,172.44L340.69,242.79L340.84,241.2L340.95,246.69L340.98,248.37L340.98,178.02L341.71,269.69L341.71,269.69L341.82,264.95L341.86,263.5L341.86,193.15L342.01,207.66L342.3,198.62L342.41,113.3L342.59,87.24L342.88,199.24L343.03,150.5L343.14,157.3L343.17,159.39L343.17,215.36L343.32,210.13L343.61,216.36L343.61,146.01L343.76,146.85L343.76,164.57L344.05,164.62L344.34,159.11L344.49,159.72L344.6,163.41L344.64,164.54L344.78,147.85L344.78,143.46L345.08,142.92L345.22,161.99L345.81,157.37L345.81,150.33L346.39,144.79L346.54,162.34L346.54,156.63L346.65,147L347.12,158.95L347.27,135.37L347.27,150.5L347.38,159.13L347.56,143.19L348,175.36L348.15,171.7L348.15,245.71L348.29,254.8L348.29,171.7L348.44,168.47L348.44,251.66L348.58,259.06L348.58,101.25L348.73,91.32L348.73,237.95L348.88,242.59L348.88,112.43L349.02,111.26L349.02,221.49L349.17,215.71L349.17,176.47L349.32,179.91L349.72,173.65L349.75,172.01L350.05,177.31L350.63,174.58L350.74,171.61L350.92,173.95L351.51,170.65L351.51,170.65L351.62,171.91L351.8,173.53L352.21,171.01L352.24,170.32L352.83,174.57L353.12,172.49L353.23,171.07L353.56,171.75L353.7,170.45L353.7,170.45L353.81,173.85L353.85,174.9L353.99,170.33L354.29,170.34L354.4,167.27L355.16,142.67L355.31,145.79L355.31,213.02L355.46,203.36L355.46,128.31L355.6,150.5L355.75,136.67L355.75,204.54L355.9,204.86L355.9,198.08L356.04,205.85L356.04,135.5L356.19,132.73L356.19,157.53L356.33,153.1L356.33,128.3L356.48,136.42L356.48,220.85L356.63,220.26L356.63,199.15L356.92,209.23L356.92,138.88L357.21,154.46L357.94,103.7L357.94,120.41L358.05,126.42L358.09,128.29L358.2,100.56L358.24,99.59L358.38,144.71L358.53,74.88L358.97,84.23L359.08,160.72L359.84,304L359.96,296.21L359.99,293.79L360.72,209.95L360.72,280.3L360.83,280.52L361.01,161.88L361.56,237.83L361.6,236.55L362.04,128.06L362.33,187.29L362.44,189.28L362.48,189.9L362.48,165.3L362.62,158.85L362.77,183.39L362.91,179.27L363.03,178.71L363.06,178.53L363.06,171.6L363.21,171.62L363.21,178.55L364.08,171.7L364.08,171.7L364.2,174.33L364.23,175.16L364.38,171.33L364.82,171.98L364.93,172.14L365.11,170.88L365.22,174.59L365.25,175.75L365.84,171.45L365.98,171.89L365.98,178.93L366.13,177.97L366.28,179.75L366.42,178.99L366.42,171.95L366.72,172.84L366.86,170.97L366.86,170.97L366.97,173.83L367.01,174.73L367.56,171.13L367.59,170.74L368.47,186.49L368.62,184.55L368.62,254.89L368.76,256L368.76,185.65L368.91,184.61L369.06,186.21L369.06,186.21L369.17,194.18L369.2,196.68L369.64,182.3L369.75,182.63L369.79,182.74L370.08,182.12L370.66,192.82L370.66,192.82L370.78,199.13L371.54,213.9L371.54,284.25L371.69,280.49L371.69,217.17L371.83,217.91L371.83,210.88L372.13,194.98L372.27,199.64L372.27,269.99L372.42,267.69L372.42,197.34L372.71,217.99L373,217.32L373.11,207.33L373.15,204.18L373.59,223.98L373.7,219.21L373.73,217.7L374.17,285.92L374.47,201.28L374.47,201.28L374.58,199.65L374.9,196.93L374.9,171.6L375.05,169.99L375.05,195.32L375.2,196.57L375.2,171.6L375.34,166.25L375.34,191.21L375.34,191.21L375.45,194.6L375.49,195.67L375.49,171.6L375.64,165.7L375.64,189.77L375.64,189.77L375.75,192.14L375.78,192.89L375.78,171.6L375.93,167.42L375.93,188.71L375.93,188.71L376.04,189.35L376.07,189.55L376.07,171.6L376.22,167.08L376.22,192.06L376.37,194.03L376.37,171.6L376.51,169.52L376.51,191.95L376.66,190.68L376.66,171.6L376.81,169.98L376.81,189.06L376.95,188.3L376.95,171.6L377.1,173.64L377.1,188.3L377.54,189.35L378.12,174.77L378.12,174.77L378.23,179.66L378.27,181.22L378.85,174.96L378.85,174.96L378.96,178.27L379,179.32L379.44,171.44L379.44,171.44L379.55,171.36L379.73,173.07L380.17,171.12L380.28,171.19L380.31,171.21L380.46,171.31L380.61,170.77L380.72,171.83L381.05,170.63L381.48,179.45L381.63,177.62L381.63,184.65L381.78,185.44L381.78,255.79L381.92,256.12L381.92,249.08L382.07,249.41L382.07,172.02L382.22,172.99L382.36,171.12L382.36,248.51L382.51,248.99L382.65,248.88L382.65,178.53L382.8,177.95L383.06,179.96L383.09,180.27L383.38,196.17L383.82,179.38L383.82,179.38L383.93,180.1L383.97,180.33L384.12,179.5L384.12,186.54L384.26,187.35L384.26,180.32L384.55,179.88L385.14,188.83L385.14,181.79L385.29,176.68L386.02,176.83L386.13,181.05L386.46,179.38L386.75,192L387.04,189.44L387.15,192.15L387.19,193.02L387.33,188.74L387.33,259.09L387.48,263.83L387.77,251.84L387.77,181.49L388.21,178.46L388.36,190.03L388.5,184.38L388.61,184.95L388.79,189.22L388.79,189.22L388.91,185.43L388.94,184.22L389.09,184.72L389.09,255.07L389.23,253.25L389.34,259.16L389.38,261.06L389.53,172.87L390.11,177.53L390.22,173.84L390.26,172.66L390.4,179.22L390.84,174.38L390.95,175.68L391.13,178.12L391.25,172.69L391.28,170.94L391.43,175.18L392.01,170.87L392.01,170.87L392.12,173.16L392.45,171.05L392.6,179.69L393.15,178.51L393.18,178.78L393.47,177.69L393.62,178.94L393.62,249.29L393.77,247.84L393.77,170.46L393.91,173.94L394.5,170.22L394.5,170.22L394.61,171.16L394.79,170.13L395.08,172.23L395.37,172.19L395.49,172.33L395.96,170.16L396.36,170.71L396.4,170.82L396.69,170.16L396.84,171.8L396.98,171.04L397.09,174.36L397.71,172.68L397.86,176.62L397.86,254L398.01,251.51L398.01,181.16L398.15,180.41L398.15,173.37L398.3,173.43L398.3,173.43L398.41,174.31L398.45,174.6L398.45,181.63L398.59,187.1L398.88,174.76L399.14,181.01L399.18,179.38L399.47,201.75L399.91,199.44L400.02,201L400.49,207.22L400.49,200.19L400.49,200.19L400.6,199.13L400.78,196.26L400.93,198.36L400.93,205.39L401.22,212.99L401.52,207.47L401.63,203.7L401.66,195.43L401.81,203.53L401.81,273.88L401.95,258.52L402.1,269.94L402.1,199.59L402.25,202.38L402.39,195.76L402.54,198.22L402.65,190.41L402.69,187.87L402.98,209.01L403.12,205.23L403.23,208.12L403.27,209.06L403.67,201.09L403.71,198.57L403.86,202.04L403.86,272.39L404.15,266.94L404.15,189.56L404.29,194.61L404.84,188.5L404.88,187.39L405.17,188.04L405.28,187.28L405.32,187.03L405.61,175.18L406.19,176.08L406.31,177.26L406.49,178.12L406.63,176.11L406.78,176.58L406.89,173.23L407.66,170.85L407.66,170.85L407.77,171.7L408.1,171.06L408.24,172.49L408.24,242.84L408.39,241.24L408.39,170.89L408.53,171.88L408.83,170.73L409.08,170.89L409.12,170.68L409.7,172.15L409.85,170.9L409.96,171.51L410.29,170.97L410.44,171.94L410.55,170.93L410.58,170.6L411.46,174.56L411.57,173.43L411.61,173.05L412.19,176.35L412.19,183.39L412.34,180.13L412.34,194.2L412.34,194.2L412.45,194.73L412.48,194.91L412.63,194.24L412.77,194.75L412.77,187.72L412.92,189.8L413.07,187.96L413.07,180.93L413.21,184.42L413.8,183.48L413.8,253.83L413.94,254.05L413.94,254.05L414.05,258.74L414.24,263.34L414.38,251.46L414.38,181.11L414.53,198.24L414.97,193.3L414.97,263.65L415.41,278.84L415.41,208.49L415.55,209.21L415.55,202.17L416.28,210.76L416.28,210.76L416.39,203.98L416.72,206.53L417.16,191.51L417.16,191.51L417.27,197.26L417.31,199.16L417.86,190.22L417.89,189.13L418.15,185.97L418.18,185.08L418.33,191.61L418.77,183.63L418.92,185.78L419.03,182.79L419.94,176.23L419.94,176.23L420.05,177.1L420.38,176.75L420.67,178.81L420.67,178.81L420.78,176.05L421.11,174.9L421.4,177.89L421.55,175.32L421.66,176.59L421.69,177.01L422.1,173.46L422.13,172.4L422.86,170.54L422.97,171.14L423.01,171.34L423.16,171.4L423.16,178.44L423.3,177.64L423.3,170.61L423.59,170.33L423.89,171.33L423.89,171.33L424,170.45L424.18,171.67L424.33,170.12L424.76,170.37L424.87,170.87L425.06,170.05L425.2,173.85L425.2,180.89L425.5,191.72L425.79,182.08L425.9,148.27L426.37,107.25L426.37,206.99L426.48,204.68L426.52,203.91L426.67,81.32L427.1,214.98L427.25,88.39L427.36,88.98L427.4,89.17L427.4,227.88L427.54,230.38L427.54,162.02L427.69,160.68L427.69,90.33L427.84,83.17L427.84,143.46L427.98,145.62L427.98,76.14L428.13,69.67L428.13,223L428.27,227.64L428.27,139.78L428.42,145.76L428.42,87.18L428.57,84.34L428.57,152.8L428.71,155.44L428.71,89.28L428.86,150.5L429.3,136.85L429.3,124.89L429.44,136.22L429.59,117.17L429.59,206.57L429.74,211.62L429.74,178.3L430.47,80.97L430.47,147.82L430.61,151.25L430.61,74.69L431.45,124.79L431.49,127.62L432.81,184.63L432.92,177.74L432.95,175.43L433.1,184.03L433.25,167.87L433.68,181.92L433.79,178.15L433.98,182.16L434.27,175.67L434.56,177.25L434.67,175.41L434.71,174.78L434.85,180.36L435,176.88" style="vector-effect: non-scaling-stroke; fill: none; stroke: rgb(0, 128, 0); stroke-opacity: 1; stroke-width: 2px; opacity: 1;"/></g><g class="points"/><g class="text"/></g></g></g><g class="overplot"/><path class="xlines-above crisp" d="M0,0" style="fill: none;"/><path class="ylines-above crisp" d="M0,0" style="fill: none;"/><g class="overlines-above"/><g class="xaxislayer-above"><g class="xtick"><text text-anchor="middle" x="0" y="433" transform="translate(80,0)" style="font-family: 'Open Sans', verdana, arial, sans-serif; font-size: 12px; fill: rgb(42, 63, 95); fill-opacity: 1; white-space: pre; opacity: 1;"><tspan class="line" dy="0em" x="0" y="433">May 1</tspan><tspan class="line" dy="1.3em" x="0" y="433">2022</tspan></text></g><g class="xtick"><text text-anchor="middle" x="0" y="433" style="font-family: 'Open Sans', verdana, arial, sans-serif; font-size: 12px; fill: rgb(42, 63, 95); fill-opacity: 1; white-space: pre; opacity: 1;" transform="translate(178.26,0)">May 8</text></g><g class="xtick"><text text-anchor="middle" x="0" y="433" style="font-family: 'Open Sans', verdana, arial, sans-serif; font-size: 12px; fill: rgb(42, 63, 95); fill-opacity: 1; white-space: pre; opacity: 1;" transform="translate(276.52,0)">May 15</text></g><g class="xtick"><text text-anchor="middle" x="0" y="433" style="font-family: 'Open Sans', verdana, arial, sans-serif; font-size: 12px; fill: rgb(42, 63, 95); fill-opacity: 1; white-space: pre; opacity: 1;" transform="translate(374.78,0)">May 22</text></g><g class="xtick"><text text-anchor="middle" x="0" y="433" style="font-family: 'Open Sans', verdana, arial, sans-serif; font-size: 12px; fill: rgb(42, 63, 95); fill-opacity: 1; white-space: pre; opacity: 1;" transform="translate(473.04,0)">May 29</text></g></g><g class="yaxislayer-above"><g class="ytick"><text text-anchor="end" x="79" y="4.199999999999999" transform="translate(0,391.19)" style="font-family: 'Open Sans', verdana, arial, sans-serif; font-size: 12px; fill: rgb(42, 63, 95); fill-opacity: 1; white-space: pre; opacity: 1;">−100</text></g><g class="ytick"><text text-anchor="end" x="79" y="4.199999999999999" style="font-family: 'Open Sans', verdana, arial, sans-serif; font-size: 12px; fill: rgb(42, 63, 95); fill-opacity: 1; white-space: pre; opacity: 1;" transform="translate(0,320.85)">−50</text></g><g class="ytick"><text text-anchor="end" x="79" y="4.199999999999999" style="font-family: 'Open Sans', verdana, arial, sans-serif; font-size: 12px; fill: rgb(42, 63, 95); fill-opacity: 1; white-space: pre; opacity: 1;" transform="translate(0,250.5)">0</text></g><g class="ytick"><text text-anchor="end" x="79" y="4.199999999999999" style="font-family: 'Open Sans', verdana, arial, sans-serif; font-size: 12px; fill: rgb(42, 63, 95); fill-opacity: 1; white-space: pre; opacity: 1;" transform="translate(0,180.15)">50</text></g><g class="ytick"><text text-anchor="end" x="79" y="4.199999999999999" style="font-family: 'Open Sans', verdana, arial, sans-serif; font-size: 12px; fill: rgb(42, 63, 95); fill-opacity: 1; white-space: pre; opacity: 1;" transform="translate(0,109.8)">100</text></g></g><g class="overaxes-above"/></g></g><g class="polarlayer"/><g class="smithlayer"/><g class="ternarylayer"/><g class="geolayer"/><g class="funnelarealayer"/><g class="pielayer"/><g class="iciclelayer"/><g class="treemaplayer"/><g class="sunburstlayer"/><g class="glimages"/><defs id="topdefs-182a19"><g class="clips"/><clipPath id="legend182a19"><rect width="164" height="67" x="0" y="0"/></clipPath></defs><g class="layer-above"><g class="imagelayer"/><g class="shapelayer"/></g><g class="infolayer"><g class="legend" pointer-events="all" transform="translate(523.7,100)"><rect class="bg" shape-rendering="crispEdges" width="164" height="67" x="0" y="0" style="stroke: rgb(68, 68, 68); stroke-opacity: 1; fill: rgb(255, 255, 255); fill-opacity: 1; stroke-width: 0px;"/><g class="scrollbox" transform="" clip-path="url(#legend182a19)"><g class="groups"><g class="traces" transform="translate(0,14.5)" style="opacity: 1;"><text class="legendtext" text-anchor="start" x="40" y="4.680000000000001" style="font-family: 'Open Sans', verdana, arial, sans-serif; font-size: 12px; fill: rgb(42, 63, 95); fill-opacity: 1; white-space: pre;">BESS</text><g class="layers" style="opacity: 1;"><g class="legendfill"/><g class="legendlines"><path class="js-line" d="M5,0h30" style="fill: none; stroke: rgb(0, 191, 255); stroke-opacity: 1; stroke-width: 2px;"/></g><g class="legendsymbols"><g class="legendpoints"/></g></g><rect class="legendtoggle" x="0" y="-9.5" width="158.71875" height="19" style="fill: rgb(0, 0, 0); fill-opacity: 0;"/></g><g class="traces" transform="translate(0,33.5)" style="opacity: 1;"><text class="legendtext" text-anchor="start" x="40" y="4.680000000000001" style="font-family: 'Open Sans', verdana, arial, sans-serif; font-size: 12px; fill: rgb(42, 63, 95); fill-opacity: 1; white-space: pre;">Solar</text><g class="layers" style="opacity: 1;"><g class="legendfill"/><g class="legendlines"><path class="js-line" d="M5,0h30" style="fill: none; stroke: rgb(255, 0, 0); stroke-opacity: 1; stroke-width: 2px;"/></g><g class="legendsymbols"><g class="legendpoints"/></g></g><rect class="legendtoggle" x="0" y="-9.5" width="158.71875" height="19" style="fill: rgb(0, 0, 0); fill-opacity: 0;"/></g><g class="traces" transform="translate(0,52.5)" style="opacity: 1;"><text class="legendtext" text-anchor="start" x="40" y="4.680000000000001" style="font-family: 'Open Sans', verdana, arial, sans-serif; font-size: 12px; fill: rgb(42, 63, 95); fill-opacity: 1; white-space: pre;">Grid Meter (Net Load)</text><g class="layers" style="opacity: 1;"><g class="legendfill"/><g class="legendlines"><path class="js-line" d="M5,0h30" style="fill: none; stroke: rgb(0, 128, 0); stroke-opacity: 1; stroke-width: 2px;"/></g><g class="legendsymbols"><g class="legendpoints"/></g></g><rect class="legendtoggle" x="0" y="-9.5" width="158.71875" height="19" style="fill: rgb(0, 0, 0); fill-opacity: 0;"/></g></g></g><rect class="scrollbar" rx="20" ry="3" width="0" height="0" x="0" y="0" style="fill: rgb(128, 139, 164); fill-opacity: 1;"/></g><g class="g-gtitle"><text class="gtitle" x="297.5" y="50" text-anchor="middle" dy="0em" style="font-family: 'Open Sans', verdana, arial, sans-serif; font-size: 17px; fill: rgb(42, 63, 95); opacity: 1; font-weight: normal; white-space: pre;"><tspan class="line" dy="0em" x="297.5" y="50">Scenario 4</tspan><tspan class="line" dy="1.3em" x="297.5" y="50">Microgrid Output</tspan><tspan class="line" dy="2.6em" x="297.5" y="50">From: May 01, 2022 to May 31, 2022</tspan></text></g><g class="g-xtitle"><text class="xtitle" x="297.5" y="476.409375" text-anchor="middle" style="font-family: 'Open Sans', verdana, arial, sans-serif; font-size: 14px; fill: rgb(42, 63, 95); opacity: 1; font-weight: normal; white-space: pre;">Time</text></g><g class="g-ytitle"><text class="ytitle" transform="rotate(-90,26.168750000000003,260)" x="26.168750000000003" y="260" text-anchor="middle" style="font-family: 'Open Sans', verdana, arial, sans-serif; font-size: 14px; fill: rgb(42, 63, 95); opacity: 1; font-weight: normal; white-space: pre;">Demand (kW)</text></g></g></svg>