<svg class="main-svg" xmlns="http://www.w3.org/2000/svg" xmlns:xlink="http://www.w3.org/1999/xlink" width="700" height="500" style="" viewBox="0 0 700 500"><rect x="0" y="0" width="700" height="500" style="fill: rgb(255, 255, 255); fill-opacity: 1;"/><defs id="defs-91ff76"><g class="clips"><clipPath id="clip91ff76xyplot" class="plotclip"><rect width="435" height="320"/></clipPath><clipPath class="axesclip" id="clip91ff76x"><rect x="80" y="0" width="435" height="500"/></clipPath><clipPath class="axesclip" id="clip91ff76y"><rect x="0" y="100" width="700" height="320"/></clipPath><clipPath class="axesclip" id="clip91ff76xy"><rect x="80" y="100" width="435" height="320"/></clipPath></g><g class="gradients"/><g class="patterns"/></defs><g class="bglayer"><rect class="bg" x="80" y="100" width="435" height="320" style="fill: rgb(229, 236, 246); fill-opacity: 1; stroke-width: 0;"/></g><g class="layer-below"><g class="imagelayer"/><g class="shapelayer"/></g><g class="cartesianlayer"><g class="subplot xy"><g class="layer-subplot"><g class="shapelayer"/><g class="imagelayer"/></g><g class="gridlayer"><g class="x"><path class="xgrid crisp" transform="translate(123.52000000000001,0)" d="M0,100v320" style="stroke: rgb(255, 255, 255); stroke-opacity: 1; stroke-width: 1px;"/><path class="xgrid crisp" transform="translate(225.05,0)" d="M0,100v320" style="stroke: rgb(255, 255, 255); stroke-opacity: 1; stroke-width: 1px;"/><path class="xgrid crisp" transform="translate(326.59000000000003,0)" d="M0,100v320" style="stroke: rgb(255, 255, 255); stroke-opacity: 1; stroke-width: 1px;"/><path class="xgrid crisp" transform="translate(428.12,0)" d="M0,100v320" style="stroke: rgb(255, 255, 255); stroke-opacity: 1; stroke-width: 1px;"/></g><g class="y"><path class="ygrid crisp" transform="translate(0,404.28)" d="M80,0h435" style="stroke: rgb(255, 255, 255); stroke-opacity: 1; stroke-width: 1px;"/><path class="ygrid crisp" transform="translate(0,330.58000000000004)" d="M80,0h435" style="stroke: rgb(255, 255, 255); stroke-opacity: 1; stroke-width: 1px;"/><path class="ygrid crisp" transform="translate(0,183.17000000000002)" d="M80,0h435" style="stroke: rgb(255, 255, 255); stroke-opacity: 1; stroke-width: 1px;"/><path class="ygrid crisp" transform="translate(0,109.47)" d="M80,0h435" style="stroke: rgb(255, 255, 255); stroke-opacity: 1; stroke-width: 1px;"/></g></g><g class="zerolinelayer"><path class="yzl zl crisp" transform="translate(0,256.87)" d="M80,0h435" style="stroke: rgb(255, 255, 255); stroke-opacity: 1; stroke-width: 2px;"/></g><path class="xlines-below"/><path class="ylines-below"/><g class="overlines-below"/><g class="xaxislayer-below"/><g class="yaxislayer-below"/><g class="overaxes-below"/><g class="plot" transform="translate(80,100)" clip-path="url(#clip91ff76xyplot)"><g class="scatterlayer mlayer"><g class="trace scatter trace170119" style="stroke-miterlimit: 2; opacity: 1;"><g class="fills"/><g class="errorbars"/><g class="lines"><path class="js-line" d="M0,156.87L435,156.87L435,156.87" style="vector-effect: non-scaling-stroke; fill: none; stroke: rgb(0, 191, 255); stroke-opacity: 1; stroke-width: 2px; opacity: 1;"/></g><g class="points"/><g class="text"/></g><g class="trace scatter trace931193" style="stroke-miterlimit: 2; opacity: 1;"><g class="fills"/><g class="errorbars"/><g class="lines"><path class="js-line" d="M0,157.05L3.93,156.54L3.93,156.54L4,155.09L4.91,133.16L4.99,122.48L5.14,134.04L5.36,100.78L5.44,74.44L5.89,111.14L5.97,71.31L6.04,30.63L6.5,39.13L6.72,33.22L6.8,31.49L7.25,20.36L7.4,30.68L7.48,37.4L7.55,44.28L7.86,16.88L8.01,17.61L8.08,17.55L8.31,18.34L8.46,17.14L8.46,17.14L8.54,21.88L9.52,109.42L9.97,91L10.05,82.24L10.12,73.26L10.5,113.9L10.58,125.83L10.73,124.02L10.73,124.02L10.8,132.63L11.71,157.01L11.79,157.05L18.43,156.55L18.43,156.55L18.51,155.36L19.34,128.21L19.34,128.21L19.41,123.98L21.98,19.93L22.06,19.12L22.51,16.66L22.51,16.66L22.59,21.49L23.42,113.4L23.64,82.89L23.72,73.03L24.48,137.1L24.63,132.57L24.7,116.45L24.93,94.92L25.38,127.91L25.38,127.91L25.46,134.35L26.44,157.06L26.44,157.06L26.52,157.06L32.94,156.63L32.94,156.63L33.01,155.69L33.62,141.34L33.69,137.38L36.64,18.31L36.72,17.35L37.02,17.15L37.09,17.82L37.17,18.52L37.7,24.57L37.77,29.61L37.92,22.3L38.08,38.58L38.3,37.34L38.38,40.3L40.49,156.84L40.49,156.84L40.57,156.92L42,157.06L42,157.06L42.08,157.06L47.44,156.73L47.44,156.73L47.52,155.58L48.35,131.74L48.35,131.74L48.42,124L50.01,31.57L50.01,31.57L50.09,36.8L50.31,70.66L50.69,44.93L50.77,41.35L51.37,16.44L51.67,16.51L51.75,16.55L52.05,17.15L52.13,17.66L52.58,89.19L52.88,57.03L52.96,56.66L53.03,56.27L53.03,56.27L53.11,66.41L53.34,64.5L54.47,148.99L54.54,151.53L55.68,157.06L55.75,157.06L61.95,156.67L61.95,156.67L62.02,155.67L62.63,140.36L62.7,136.02L65.42,21.13L65.42,21.13L65.5,20.25L66.03,17.19L66.18,19.73L66.25,21.28L67.84,63.8L67.84,63.8L67.91,67.9L70.03,157.06L70.11,157.06L76.45,156.69L76.45,156.69L76.53,155.84L77.13,140.31L77.21,136.07L79.85,23.94L79.93,22.43L80.38,18.05L80.76,19.81L80.84,20.6L81.21,23.98L81.29,25.9L82.8,94.49L82.8,94.49L82.87,99.34L84.46,157.05L84.46,157.05L84.53,157.05L90.96,156.76L90.96,156.76L91.03,156.03L91.56,145L91.56,145L91.64,141.24L94.28,29.07L94.28,29.07L94.35,28.09L94.58,23.43L95.11,26.21L95.19,27.46L96.47,58.59L96.55,72.19L96.7,73.05L96.77,70.54L96.85,67.8L97.07,79.62L97.15,89.52L98.13,148.35L98.21,151.48L99.12,157.05L99.12,157.05L99.19,157.05L105.84,156.46L105.92,156.13L106.59,135.96L106.67,130.33L107.73,35.51L107.88,58.07L107.95,69.35L108.03,81.8L108.33,20.59L108.56,48.8L108.64,26.19L108.79,16.48L108.94,30.87L109.16,30.45L109.24,40.78L109.46,52.25L109.54,62.19L109.69,88L110.15,43.71L110.15,43.71L110.22,41.34L110.3,38.73L110.37,57.95L110.45,79.2L110.6,22.57L111.21,57.48L111.28,74.11L112.33,143.45L112.41,146.71L113.47,157.05L113.47,157.05L113.54,157.05L119.97,156.82L119.97,156.82L120.04,156.16L120.42,146.68L120.42,146.68L120.49,144.38L122.54,89.24L122.61,93.89L122.69,99.07L122.99,117.42L123.29,84.48L123.29,84.48L123.36,85.39L123.44,86.39L123.44,86.39L123.52,97.23L124.5,138.74L124.5,138.74L124.57,139.77L124.95,143.47L125.18,138.34L125.26,136.25L125.56,134.1L126.77,151.34L126.77,151.34L126.84,151.89L127.98,157.05L127.98,157.05L128.05,157.05L134.39,156.68L134.47,156.27L135.98,124.62L135.98,124.62L136.06,123.86L136.14,123.01L136.21,126.49L136.29,130.41L136.44,133.09L136.51,125.08L136.59,116.04L136.74,112.78L136.96,122.28L137.04,123.92L137.19,125.45L137.26,120.7L137.34,115.35L138.86,62.14L138.86,62.14L138.93,64.16L139.23,87.53L139.31,104.38L140.06,135.34L140.22,126.38L140.29,122.41L140.52,113.33L140.89,125.29L140.97,126.66L142.25,157.06L142.33,157.06L148.98,156.85L148.98,156.85L149.05,156.06L149.65,141.23L149.73,138.38L150.86,81.5L150.94,70.74L151.55,16L151.85,16.08L151.92,16.11L153.66,16.22L153.66,16.22L153.73,29.1L154.27,125.25L154.72,108.12L154.79,82.04L154.87,52.23L155.4,117.29L155.48,140.58L156.08,148.5L156.08,148.5L156.15,150.33L156.99,157.07L157.06,157.06L157.14,157.06L163.48,156.76L163.48,156.76L163.55,156.18L164.01,147.77L164.09,145.26L166.05,80.45L166.12,82.63L166.2,85.15L166.51,33.73L167.03,38.41L167.11,43.5L167.87,16.36L167.87,16.36L167.94,42.77L168.02,73.26L168.32,16.27L168.62,16.37L168.69,25.84L169.68,146.49L169.98,112.78L170.05,109.92L170.28,98.15L170.43,114.25L170.43,114.25L170.5,120.86L171.56,157.06L171.64,157.07L178.06,156.41L178.14,155.81L179.27,113.72L179.35,109.28L180.02,77.7L180.1,73.17L180.86,16.22L181.31,30.48L181.38,29.86L181.46,29.13L181.46,29.13L181.53,44.27L181.92,87.32L182.44,86.51L182.52,88.27L182.67,114.23L183.13,71.18L183.13,71.18L183.2,72.89L183.28,74.88L183.35,63.16L183.43,49.47L183.58,83.49L183.73,34.83L184.25,71.85L184.33,78.55L186,157.06L186,157.06L186.07,157.06L192.49,156.8L192.49,156.8L192.56,155.29L193.25,130.3L193.25,130.3L193.32,124.87L194.91,19.44L195.21,33.07L195.28,32.28L195.52,22.67L195.52,22.67L195.59,19.74L195.82,16.28L196.34,16.4L196.42,16.4L197.93,16.68L197.93,16.68L198,18.73L198.69,60.34L198.69,60.34L198.76,66.09L200.5,157.06L200.5,157.06L200.57,157.06L207.07,156.36L207.15,155.74L208.28,111.64L208.36,102.43L209.42,16.48L209.42,16.48L209.49,16.35L210.32,16.27L210.32,16.27L210.39,16.31L212.44,16.68L212.44,16.68L212.51,19.28L213.41,82.19L213.5,89.09L214.92,157.07L215.01,157.07L221.5,156.71L221.5,156.71L221.57,155.44L222.18,134.89L222.26,129.84L224.07,16.14L224.37,16.3L224.44,16.33L226.86,16.93L226.94,17.51L228.22,109.8L228.3,116.77L229.51,157.06L229.51,157.06L229.58,157.06L236.16,156.73L236.16,156.73L236.23,156.23L237.13,144.51L237.22,143.05L238.34,96.77L238.43,89.99L239.55,16L240.09,16.07L240.16,16.07L241.3,16.27L241.3,16.27L241.37,17.54L241.82,40.76L241.9,46.18L244.02,157.06L244.02,157.06L244.08,157.06L250.67,156.8L250.67,156.8L250.73,155.95L251.34,141.46L251.42,136.57L253.08,16.11L253.3,16.17L253.38,16.22L255.8,16.21L255.8,16.21L255.87,17.43L256.26,36.36L256.26,36.36L256.32,40.92L258.52,157.07L258.52,157.07L258.59,157.06L265.09,156.29L265.17,155.53L266.3,123.15L266.38,115.54L267.74,16.08L267.96,16.23L268.04,16.21L270.31,16.49L270.31,16.49L270.37,18.51L271.06,58.35L271.06,58.35L271.13,63.44L272.94,157.07L273.03,157.06L279.52,156.96L279.52,156.96L279.59,155.57L280.2,131.94L280.28,125.36L282.09,16.13L282.09,16.13L282.16,16.17L284.27,16.45L284.36,16.47L284.81,17.05L284.81,17.05L284.88,19.58L285.94,89.56L286.02,96.47L287.45,157.06L287.53,157.06L294.1,156.33L294.18,155.73L294.85,127.14L294.94,119.83L296.6,16.3L296.9,16.33L296.97,16.35L299.32,16.68L299.32,16.68L299.38,19.1L300.22,71.31L300.22,71.31L300.29,76.62L301.95,157.06L302.04,157.06L308.6,156.45L308.69,156.02L309.36,129.23L309.44,121.27L311.1,16.23L311.41,16.39L311.47,16.41L313.67,16.79L313.67,16.79L313.74,17.13L313.89,20.29L313.97,23.81L316.54,157.06L316.54,157.06L316.61,157.06L323.19,156.49L323.19,156.49L323.26,155.26L323.86,131.96L323.95,124.38L325.91,16.42L325.98,16.48L326.06,16.56L328.03,16.8L328.03,16.8L328.09,18.88L329.15,73.15L329.23,79.58L330.96,157.06L331.05,157.07L337.7,156.63L337.7,156.63L337.76,155.42L338.37,133.38L338.45,126.36L340.42,16.19L340.63,16.29L340.72,16.35L342.53,16.51L342.53,16.51L342.6,17.94L343.29,49.21L343.29,49.21L343.35,53.46L345.47,157.06L345.55,157.06L352.2,156.62L352.2,156.62L352.27,155.46L352.87,133.65L352.96,126.65L354.92,16.1L354.98,16.12L355.07,16.16L356.88,16.5L356.88,16.5L356.95,16.67L357.1,18.57L357.19,20.83L358.16,77.52L358.24,86.39L358.46,108.14L358.55,128.87L359.45,156.98L359.45,156.98L359.52,157.02L361.94,157.05L362.02,157.05L366.71,156.63L366.71,156.63L366.77,155.34L367.37,134.24L367.46,127.45L369.43,16.33L369.64,16.4L369.73,16.43L371.54,17.08L371.54,17.08L371.6,18.52L372.21,46.9L372.3,52.31L374.41,157.06L374.41,157.06L374.48,157.06L381.21,156.56L381.21,156.56L381.27,155.59L381.81,139.28L381.81,139.28L381.88,134.17L383.93,16.34L384.08,16.5L384.15,16.52L385.96,17.33L386.05,18.17L386.8,59.5L386.8,59.5L386.86,68.06L388.22,153.95L388.31,156.87L389.58,157.05L389.67,157.05L395.72,156.72L395.72,156.72L395.78,155.56L396.38,135.58L396.47,129.18L398.59,16.34L398.59,16.34L398.65,16.4L400.46,17.54L400.55,18.47L401.91,99.23L401.91,99.23L401.97,103.97L403.42,157.06L403.42,157.06L403.48,157.06L410.22,156.75L410.22,156.75L410.28,155.54L410.98,129.46L410.98,129.46L411.04,124.55L413.09,16.3L413.15,16.38L413.24,16.49L414.97,16.82L415.06,17.17L416.11,72.79L416.11,72.79L416.18,77.58L417.84,157.06L417.93,157.06L424.64,156.82L424.73,156.59L425.63,110.8L425.63,110.8L425.69,102.28L426.99,28.63L426.99,28.63L427.05,26.2L427.75,16.2L428.05,16.29L428.11,16.32L429.41,16.52L429.41,16.52L429.47,17.38L429.93,32.82L430.01,36.73L432.49,157.06L432.58,157.06L435,157.05L435,157.05" style="vector-effect: non-scaling-stroke; fill: none; stroke: rgb(255, 0, 0); stroke-opacity: 1; stroke-width: 2px; opacity: 1;"/></g><g class="points"/><g class="text"/></g><g class="trace scatter trace533b64" style="stroke-miterlimit: 2; opacity: 1;"><g class="fills"/><g class="errorbars"/><g class="lines"><path class="js-line" d="M0,198L0.6,187.63L0.76,196.82L0.83,194.21L1.36,189.74L1.59,192.15L1.66,191.8L1.96,194.61L2.12,186.86L2.34,191.14L2.42,194.88L3.17,185.97L3.25,187.54L3.32,189.14L3.32,262.84L3.63,183.24L4,191.9L4.08,192.86L4.23,197.44L4.38,185.38L4.68,189.06L4.76,188.91L4.84,188.77L4.84,262.47L5.29,172.93L5.29,172.93L5.36,145L5.89,170.56L6.19,95.62L6.19,95.62L6.27,104.43L6.35,113.44L6.5,99.72L7.03,108.45L7.1,104.6L7.55,135.63L7.63,119.64L7.71,103.29L7.86,102.84L7.86,102.84L7.93,96.12L8.01,89.25L8.16,107.64L8.16,181.34L8.46,176.89L8.61,195.28L8.61,114.2L8.76,98.34L9.07,139.6L9.07,139.6L9.14,165.32L9.52,207.86L9.9,178.03L9.97,172.72L10.12,156.97L10.5,187.21L10.58,200.86L10.73,194.71L10.88,212.84L11.03,211.04L11.1,213.28L11.63,224.47L12.01,219.19L12.09,215.43L12.24,223.13L12.62,212.5L12.69,203.16L12.84,212.09L13.3,200.61L13.45,208.83L13.52,205.41L13.75,207.85L13.9,199.71L14.35,200.2L14.43,203.38L14.51,206.65L14.66,197.46L15.03,197.64L15.11,193.05L15.26,192.74L15.41,193.86L15.41,193.86L15.49,191.54L15.56,189.15L15.71,194.96L16.17,193.6L16.24,192.05L16.92,188.36L17,190.69L17.07,193.08L17.07,200.45L17.75,188.9L17.83,187.56L17.98,188.97L18.36,186.24L18.43,183.94L18.89,200.2L18.96,194.4L19.04,188.42L19.19,183.49L19.19,257.2L19.34,254.58L19.34,180.87L21.46,95.29L21.53,99.39L21.61,103.63L21.91,84.79L22.36,96.01L22.44,99.9L23.42,195.17L23.42,261.5L23.87,147.51L24.25,201.17L24.33,205.09L24.48,203.69L24.63,205.74L24.63,205.74L24.7,187.46L24.93,166.16L25.38,198.74L25.38,198.74L25.46,205.44L25.84,224.36L26.29,220.14L26.36,220.25L27.2,200.25L27.27,203.09L27.35,206.04L27.65,206.32L27.8,196.84L28.18,199.35L28.25,198.83L28.41,199.55L28.86,198.36L28.86,198.36L28.93,197.43L29.16,201.12L29.77,188.66L29.92,192.72L29.99,193.65L30.07,194.61L30.22,189.13L30.52,191.16L30.6,191.23L30.82,188.81L30.97,193.21L31.35,190.48L31.43,191.1L31.88,201.02L32.18,187.99L32.18,187.99L32.26,190.93L32.33,201.36L32.49,193.2L32.49,266.9L32.64,271L32.64,197.29L32.94,198.91L32.94,198.91L33.01,195.83L33.09,192.62L33.24,202.26L33.24,283.33L33.39,279.94L33.39,206.24L33.62,192.57L33.69,188.51L35.51,107.93L35.51,189L35.66,192.1L35.81,183.57L35.81,109.87L35.96,111.45L36.11,109.79L36.11,183.49L36.26,169.67L36.41,183.68L36.41,109.98L36.87,82.4L36.94,91.2L37.02,100.4L37.17,85.04L37.77,99.47L37.85,99.86L37.92,100.26L37.92,100.26L38,108.1L38.38,106.26L39.59,199.44L39.59,192.07L40.04,220.64L40.04,294.34L40.34,304L40.34,230.3L40.49,230.8L40.49,223.43L40.64,223.83L40.64,231.2L42.16,206.98L42.16,206.98L42.23,209.25L42.61,211.89L42.68,201.32L42.76,197.96L43.36,192.73L43.52,194.47L43.59,194.6L43.67,194.73L43.67,194.73L43.74,193.01L43.82,191.2L44.12,196.09L44.42,193.92L44.5,193.8L44.87,195.24L45.03,189.89L45.48,190.46L45.55,190.95L46.08,192.76L46.16,190.64L46.23,188.42L46.39,189.54L46.39,263.24L46.54,267.78L46.54,194.07L46.69,188.77L46.84,189.85L46.84,263.55L46.99,261.28L46.99,187.57L47.9,212.58L48.05,209.27L48.05,201.89L48.8,152.35L48.95,176.43L48.95,242.77L49.18,217.97L49.26,196.83L49.56,96.13L50.01,100.63L50.09,111.99L50.31,225.28L50.77,185.58L50.77,119.24L51.37,96.35L51.52,103.97L51.6,108.37L51.83,94.25L52.2,137.84L52.28,175.56L52.43,136.35L52.58,252.91L52.81,210.36L52.88,217.62L53.34,130.2L53.56,138.67L53.64,144.02L54.7,208.24L54.7,208.24L54.77,208.16L55.15,210.94L55.22,208.51L55.3,205.93L55.75,209.61L55.83,206.15L55.9,202.49L56.06,210.15L56.21,191.72L56.43,196.53L56.51,193.83L56.96,196.5L57.19,194.37L57.26,192.71L57.42,191.88L57.42,191.88L57.49,195.45L57.57,199.24L57.72,190.49L58.09,192.27L58.17,191.14L58.32,197.19L58.47,189.83L58.93,194.01L59,192.57L59.23,193.63L59.83,187.22L59.91,189.29L59.98,191.49L60.59,192.45L60.74,187.51L60.74,194.88L60.89,194.41L60.89,194.41L60.96,198.26L61.04,202.36L61.19,186.61L61.42,187.84L61.5,186.22L61.65,193.16L61.8,188.6L61.8,262.3L61.95,257.77L62.1,266.98L62.1,193.27L63.61,144.94L63.61,144.94L63.68,137.56L64.22,114.43L64.22,188.13L64.37,188.17L64.37,188.17L64.44,186.46L64.52,184.62L64.52,110.92L64.82,101.25L64.82,174.96L64.97,171.57L65.12,174.41L65.12,100.7L65.27,92.93L65.42,105.22L65.73,101.56L65.73,108.93L65.88,100.6L66.03,114.43L66.25,112.2L66.33,119.04L66.78,93.79L66.93,107.52L67.01,109.08L67.99,142.87L67.99,150.24L69.5,228.08L69.58,221.94L69.65,215.37L69.81,224.96L69.96,208.71L70.18,210.54L70.26,205.38L70.41,213.1L70.78,201.06L70.86,196.41L71.32,195.24L71.47,201.56L71.54,196.86L71.62,191.82L71.77,203.19L71.92,191.11L72.37,197.29L72.45,196.3L72.53,195.24L72.53,202.61L72.68,201.48L72.75,203.07L72.83,212.15L73.2,208.67L73.28,205.14L73.43,213.5L73.81,200.38L73.89,195.86L74.04,204.47L74.19,186.65L74.41,191.44L74.49,185.5L75.24,200.34L75.32,198.01L75.4,195.51L75.62,198.37L75.7,201.01L76.15,184.04L76.3,267.06L76.45,194.2L76.53,192.92L76.6,191.55L76.68,199.68L76.76,208.44L77.06,210.61L77.89,157.79L77.96,150.82L78.12,151.95L78.19,147.59L78.27,142.89L78.42,145.51L78.49,137.27L78.57,128.39L78.72,139.53L78.87,133.59L78.94,125.68L79.32,115.42L79.32,181.75L79.63,184.43L79.78,168.75L79.78,95.05L80.38,114.97L80.38,181.3L80.68,190.87L80.68,117.16L80.84,111.26L80.99,124.2L81.21,123.66L81.29,123.43L82.04,172.17L82.04,157.43L82.12,153.69L82.2,149.64L82.5,170.84L82.5,170.84L82.57,170.68L82.65,170.51L82.65,170.51L82.72,176.21L84.01,226.51L84.08,223.88L84.16,221.04L84.31,224.78L84.46,217.99L84.69,220.64L84.76,216.6L84.91,223.79L85.22,205.82L85.22,205.82L85.29,204.31L85.82,200.69L85.89,203.49L85.97,206.54L86.27,206.56L86.73,196.16L86.8,201.4L86.88,207.1L87.33,188.55L87.71,192.16L87.79,195.72L88.69,188.74L88.69,188.74L88.76,191.66L88.84,194.83L89.15,187.88L89.37,190.37L89.45,187.12L89.6,195.06L90.05,186.51L90.2,188.62L90.28,190.02L90.35,191.55L90.51,187.04L90.51,260.75L90.66,264.05L90.66,190.34L90.81,187.6L91.26,191.7L91.26,191.7L91.33,196.56L91.41,201.84L91.87,193.25L91.87,266.95L92.02,256.39L92.02,182.69L92.17,182.85L92.17,182.85L92.24,174.92L92.62,151.17L93.15,154.45L93.23,149.17L93.83,109.74L93.98,117.75L94.05,118.75L94.13,119.83L94.13,193.54L94.28,179.78L94.28,106.07L94.43,117.77L94.74,100.64L95.04,116.07L95.04,189.77L95.19,187.92L95.34,191.75L95.34,118.05L95.49,113.24L95.79,126.53L95.79,126.53L95.87,126.47L96.47,149.1L96.55,165.25L96.85,154.11L97.07,167.78L97.15,176.29L98.21,225.57L98.43,221.22L98.51,222.08L98.66,224.15L98.82,218.85L98.97,221.9L98.97,214.53L99.12,208.82L99.27,213.21L99.27,286.92L99.42,280.74L99.57,285.64L99.57,211.93L100.48,197.31L100.48,197.31L100.55,199.29L100.93,204.61L101.08,196L101.23,203.03L101.31,197.18L101.54,198.38L101.69,188.91L102.06,194.28L102.14,199.37L102.29,189.44L102.97,191.25L103.05,189.39L103.2,194.61L103.65,189.02L103.8,192.48L103.87,191.28L104.1,187.95L104.25,192.55L104.48,190.52L104.56,193.11L104.71,187.78L105.16,197.91L105.16,197.91L105.23,197.97L105.61,198.45L105.61,191.08L105.77,197.47L105.84,200.49L106.07,205.26L106.44,197.03L106.52,192.7L106.52,207.44L107.2,133.29L107.28,125.42L107.58,118.5L107.88,213.86L108.03,157.89L108.1,133.87L108.64,82.56L108.64,156.27L108.79,149.42L108.86,161.76L108.94,175.37L109.09,76.24L109.24,105.76L109.31,101.49L109.39,96.77L109.54,125.26L109.54,125.26L109.62,136.63L109.69,149.19L110.15,109.02L110.15,109.02L110.22,107.04L110.3,104.85L110.37,122.79L110.45,142.62L110.6,97.11L111.21,125.44L111.28,145.6L111.81,271.73L112.18,206.46L112.26,203.88L113.17,219.47L113.17,219.47L113.24,212.7L113.32,205.19L113.77,229.79L113.92,213.59L114,215.26L114.08,217.1L114.23,205.62L114.45,209.01L114.53,204.01L114.53,196.64L114.68,205.64L115.28,203.39L115.36,201.26L115.59,202.45L116.34,193.37L116.34,193.37L116.41,193.84L116.64,195.78L116.72,192.87L116.8,189.65L117.1,188.72L117.25,199.66L117.62,193.53L117.7,188.12L118,184.78L118.16,204.43L118.46,194.93L118.53,192.6L118.91,194.51L119.36,189.31L119.36,189.31L119.44,190.55L119.67,192.89L119.82,188L119.82,261.7L119.97,267.85L120.12,259.06L120.12,185.35L120.72,215.36L121.03,208.97L121.03,201.6L121.18,177.35L121.33,263.1L121.4,258.72L121.48,253.84L121.63,264.14L122,238.98L122.08,236.42L122.54,149.46L122.76,174.87L122.84,177.22L122.99,184.78L123.14,164.23L123.14,164.23L123.21,155.68L123.44,141.28L123.82,170.85L123.9,171.89L124.8,221.99L125.11,216.24L125.18,214.83L125.26,205.87L125.33,212.75L125.41,220.43L125.56,201.95L126.16,214.72L126.23,217.3L126.31,220.19L126.47,210.65L126.84,212.49L126.92,209.59L127.07,214.58L127.52,201.2L127.67,202.59L127.75,203.44L127.98,197.42L128.58,209.68L128.58,209.68L128.65,204.95L129.19,207.81L129.34,197.53L129.41,202.5L129.49,208.07L130.09,187.21L130.24,193.57L130.31,190.05L130.85,194.93L131,184.93L131.07,187.32L131.15,189.99L131.6,191.04L131.75,185.59L131.98,188.65L132.06,189.13L132.36,191.86L132.66,186.92L132.73,190.14L132.81,193.76L132.96,186.08L133.57,193.14L133.64,190.6L133.87,186.04L134.17,194.52L134.17,194.52L134.24,196.14L134.32,197.96L134.47,190.26L134.47,190.26L134.54,185.3L134.62,179.71L134.78,201.83L134.93,186.39L134.93,260.09L135.23,260.27L135.38,239.93L135.38,166.22L135.53,172.94L135.98,166.9L136.06,161.53L136.29,176.33L136.74,152.12L136.74,159.49L136.81,163.67L136.89,168.39L136.89,242.1L137.04,253.96L137.34,245.9L137.34,238.53L137.5,239.79L137.5,166.09L138.55,114.04L138.55,114.04L138.62,116.88L138.86,111.3L139.23,148.55L139.31,172.19L139.91,216.08L140.06,198.58L140.14,190.76L140.52,169.02L140.89,177.17L140.97,182.61L142.03,212.29L142.4,208.13L142.48,205.08L142.63,206.94L142.85,201.21L142.94,199.73L143.09,211.86L143.61,196.43L143.69,192.13L143.84,195.47L143.99,190.73L144.29,191.85L144.37,190.29L144.6,196.78L144.75,188.1L144.97,193.37L145.05,192.63L145.65,188.06L145.73,191.37L145.81,195.13L146.41,186.23L146.63,191.06L146.71,192.72L147.01,194.19L147.32,183.61L147.39,188.81L147.47,194.72L147.62,187.31L147.77,187.87L147.77,261.57L147.92,268.02L148.07,256.95L148.07,183.25L148.83,205.03L149.13,200.64L149.13,193.27L149.28,201.53L149.5,180.52L149.58,173.57L149.73,178.99L149.96,166.99L150.04,162.69L150.49,138.68L150.64,146.99L150.64,220.7L151.09,147.53L151.09,73.83L151.55,67.47L151.7,85.82L152,82.53L152,75.16L152.3,63.01L152.76,90.02L152.76,171.09L152.91,169L152.98,178.3L153.06,180.5L153.51,83.34L153.81,122.66L153.88,126.51L154.04,160.01L154.12,193.26L154.42,193.85L154.57,182.23L154.57,182.23L154.64,176.91L154.87,107.72L155.09,140.13L155.17,162.52L155.32,147.87L155.48,197.02L155.55,194.5L155.63,191.61L155.78,189.6L156.08,193.97L156.08,193.97L156.15,196.62L156.99,205.52L156.99,205.52L157.06,200.08L157.29,203.36L157.74,191.71L157.89,193.5L157.96,194.39L158.2,191.35L158.35,197.22L158.42,194.11L158.5,190.54L158.95,188.64L159.1,196.43L159.17,193.34L159.25,189.8L159.71,189.34L159.86,193.68L160.01,191.92L160.08,190.26L160.16,188.36L160.31,195.36L160.68,191.55L160.76,193.96L160.92,182.91L161.52,189.64L161.52,263.35L161.67,262.66L161.82,262.86L161.82,189.15L161.97,191.21L162.12,185.78L162.58,189.38L162.65,187L162.73,184.25L163.03,197.79L163.18,189.86L163.25,193.12L163.63,183.6L163.94,214.53L164.31,208.52L164.39,209.84L164.84,196.99L164.84,263.33L165.07,256.16L165.15,255.37L165.75,122.26L165.9,131.02L165.97,125.98L166.2,134.9L166.51,89.07L166.58,108.34L166.66,130.56L167.26,106.62L167.26,172.95L167.41,180.13L167.56,171.01L167.56,97.31L167.94,134.02L168.02,162.02L168.32,96.83L168.84,123.08L168.92,114.48L169.68,221.66L169.83,187.43L169.9,176.95L170.13,148.38L170.59,178.58L170.59,178.58L170.66,184.57L170.74,191.49L170.74,265.2L171.04,275.16L171.19,274.7L171.19,201L171.95,195.07L172.02,196.55L172.1,198.27L172.7,190.34L172.77,199.52L172.85,201.62L173.46,195.63L173.61,201.18L173.68,200.35L173.91,194.11L173.98,197.95L174.06,202.4L174.66,187.47L174.82,191.94L174.89,191.9L175.12,185.22L175.27,192.78L175.64,189.79L175.72,193.49L175.87,182.86L176.48,187.46L176.55,189.39L176.63,191.64L176.93,185.15L177.23,188.78L177.3,186.13L177.38,183.05L177.38,264.13L177.54,270.94L177.54,197.23L177.99,187.13L178.21,196.03L178.29,199.99L178.44,199.21L178.44,191.84L178.59,195.36L178.59,269.06L178.81,263.39L178.9,258.04L179.05,261.21L179.2,239.58L179.2,165.87L179.5,177.43L180.86,78.23L180.86,151.93L181.16,165.47L181.16,91.77L181.38,85.37L181.46,79.24L181.92,158.83L182.14,144.11L182.22,145.21L182.37,146.94L182.37,139.56L182.44,144.59L182.52,150.45L182.67,170.54L183.13,135.27L183.2,143.43L183.28,144.36L183.58,161.32L183.73,112.83L184.1,132.79L184.18,143.26L184.49,153.76L184.49,161.14L185.39,219.13L185.54,211.5L185.61,212.54L185.69,213.76L186,207.18L186.15,212.48L186.15,205.11L186.6,206.22L187.05,197.03L187.12,199.48L187.21,202.36L187.66,197.37L188.03,198.4L188.11,197.77L188.26,200.46L188.48,194.46L188.57,191.46L188.87,185.03L188.94,187.66L189.02,190.74L189.62,182.49L189.93,184.44L189.99,185.16L190.23,186.35L190.38,183.23L190.68,184.71L190.75,184.15L190.98,185.25L191.29,181.41L191.51,183.89L191.59,184.72L191.59,265.8L192.34,188.65L192.41,189.72L192.49,190.98L192.71,186.7L192.8,183.31L192.8,190.68L193.55,149.17L193.55,149.17L193.62,143.62L194,115.4L194,189.1L194.46,100.77L194.46,174.48L194.76,147.05L194.76,73.34L194.91,73.19L194.98,73.67L195.06,74.23L195.21,166.56L195.67,69.44L195.74,70.92L195.82,72.67L196.12,65.95L196.12,147.03L196.27,156.74L196.42,152.28L196.42,85.95L196.72,90.04L197.03,74.77L197.33,79.44L197.4,79.27L197.48,79.07L197.48,71.7L198.39,93.01L198.39,166.71L198.84,193.24L198.84,119.54L200.35,288.91L200.5,281.76L200.5,200.69L200.8,205.36L200.8,197.99L200.8,197.99L200.87,194.88L201.56,186.7L201.71,191.17L201.78,190.74L202.54,186.09L202.62,182.99L202.77,183.09L202.77,183.09L202.84,186.96L202.92,191.56L203.37,183.96L203.59,188.39L203.67,185.12L203.98,187.97L203.98,261.68L204.28,259.13L204.28,185.42L204.5,184.1L204.58,182.84L204.73,190.11L204.88,182.31L205.34,184.28L205.41,184.38L205.49,184.51L205.64,184.06L205.64,184.06L205.71,183.35L205.94,187.74L206.09,182.15L206.31,183.85L206.39,184.42L206.55,185.55L206.7,181.36L206.7,181.36L206.77,181.3L207.15,186.79L207.22,182.89L207.3,178.25L207.45,178.37L207.52,177.61L207.6,176.7L207.75,186.34L208.28,164.16L208.36,157.48L209.11,77.49L209.11,77.49L209.18,73.91L209.42,64.69L209.57,67.36L209.57,141.06L209.72,145.7L209.72,71.99L209.87,70.89L209.87,144.59L210.02,145.84L210.02,72.13L210.47,61.44L210.63,72.74L210.93,62.84L211,64.44L211.38,60.4L211.53,73.33L211.6,67.51L211.68,60.57L211.83,73.59L212.51,72.61L212.59,72.9L213.34,140.11L213.34,213.82L213.65,238.36L213.65,164.66L213.8,163.99L213.8,163.99L213.87,168.97L214.4,202.12L214.55,195.55L214.55,269.26L214.86,273.62L215.01,270.49L215.01,196.79L215.16,195L215.38,199.78L215.46,203.68L216.06,189.73L216.13,200.07L216.22,203.63L216.97,186.56L217.12,190.28L217.19,190.53L217.27,190.84L217.34,188.32L217.42,185.31L218.48,179.12L218.63,179.89L218.7,181.43L218.78,183.29L219.09,178.83L219.31,179.57L219.39,178.4L219.54,184.42L219.84,178.2L220.06,179.18L220.14,177.76L220.3,181.66L220.6,177.62L220.97,180.05L221.05,181.74L221.2,178.36L221.2,252.06L221.35,250.73L221.5,252.62L221.5,178.91L221.66,174.39L221.66,248.09L221.96,245.75L221.96,179.42L222.86,119.7L222.86,186.03L223.32,159.44L223.32,85.73L223.47,81.81L223.47,155.52L223.92,134.79L224.22,145.3L224.22,78.96L224.37,75.75L224.44,88.16L224.53,94.22L224.68,94.96L224.68,87.59L224.83,77.73L225.5,80.05L225.58,81.03L225.58,88.4L226.19,76.97L226.26,79.48L226.34,82.52L226.64,67.07L227.09,74.94L227.16,80.55L227.7,111.07L227.7,192.15L228.3,244.27L228.3,170.57L229.06,203.47L229.36,194.32L229.43,193.95L229.51,193.51L229.73,196.37L229.81,199.56L229.97,199.7L229.97,199.7L230.03,194.92L230.87,184.64L230.87,184.64L230.94,186.14L231.33,182.72L231.48,188.49L231.54,186.62L231.63,184.34L232.08,186.67L232.23,179.98L232.3,182.41L232.38,185.36L232.99,178.87L233.06,181.97L233.14,185.72L233.44,178.51L234.04,179.09L234.04,252.79L234.2,253.67L234.2,179.97L234.72,180.02L234.8,179.52L235.1,180.63L235.71,177.48L235.71,177.48L235.78,178.5L236.01,182.86L236.38,177.48L236.46,174.95L236.61,179.7L236.92,170L236.98,170.22L237.07,170.48L237.22,168.62L237.22,242.32L237.59,227.89L237.67,223.85L238.34,123.57L238.43,118.6L239.79,50.69L239.85,53.99L239.94,58L240.39,145.63L240.69,133.27L240.76,132.73L240.84,132.08L240.84,65.74L241,79.96L241.15,73.13L241.15,146.83L241.6,170.46L241.6,96.75L242.51,148.85L242.51,148.85L242.57,157.74L243.56,203.08L243.63,200.68L243.71,197.74L243.87,196.38L243.93,199.31L244.02,202.88L244.92,190.6L244.92,190.6L244.99,192.96L245.07,195.86L245.68,190.91L245.68,190.91L245.75,191.33L245.83,191.84L245.98,189.85L246.43,190.89L246.5,190.29L246.8,183.35L246.89,178.44L247.49,183.77L247.56,180.92L247.64,177.42L248.1,181.22L248.4,179.11L248.47,178.82L248.7,181.21L248.85,178.03L248.92,179.19L249,180.62L249.61,178.2L249.68,179.14L249.76,180.28L249.91,179.67L249.98,181.65L250.06,184.09L251.27,169.3L251.27,176.67L251.72,143.36L251.72,143.36L251.79,120.23L252.18,83.96L252.48,88.26L252.48,161.96L252.93,50.1L252.93,123.81L253,123.82L253.08,57.51L253.75,62.81L253.84,62.91L254.29,51.82L254.59,74.03L254.59,74.03L254.66,73.71L254.74,73.32L254.96,75.42L255.05,77.06L255.8,68.89L255.87,71.41L255.95,74.52L256.26,89.01L256.26,162.72L256.86,201.39L256.86,127.69L258.52,200.44L258.59,199.05L258.67,197.33L259.13,197.38L259.58,183.25L259.73,186.83L259.73,194.2L260.18,195.63L260.49,187.51L260.55,188.08L260.64,188.79L260.79,190.06L261.09,187.66L261.09,180.29L261.24,181.95L261.7,179.15L261.7,179.15L261.76,178.94L261.85,178.67L261.91,180.18L262,182.04L262.15,177.6L262.3,183.36L262.67,179.87L262.75,182.39L262.9,177.35L263.51,180.57L263.58,179.99L263.66,179.25L263.66,186.62L264.11,184.62L264.11,177.25L264.41,181.23L264.57,177.2L264.78,177.32L264.87,177.23L265.17,188.16L265.32,181.73L265.32,174.36L265.47,177.6L265.62,176.75L265.62,250.46L265.93,254.49L265.93,180.78L266.23,181.46L267.13,91.2L267.13,172.27L267.44,180.15L267.5,162.79L267.59,150.33L267.74,167.01L268.04,160.48L268.04,79.4L268.19,83.29L268.34,70.69L268.34,144.4L268.65,141.38L268.8,147.39L268.8,73.68L268.95,61.25L269.1,80.76L269.1,161.83L269.25,168.52L269.7,165.82L269.7,92.12L270.01,94.98L270.16,77.2L270.46,80.12L270.53,87.28L272.27,206.79L272.34,205.85L272.42,204.68L272.57,211.78L273.03,199.24L273.03,199.24L273.09,199.03L273.25,196.21L273.33,193.02L274.08,182.65L274.08,182.65L274.15,183.52L274.39,186.48L274.54,180.33L274.84,183.15L274.91,182.52L275.29,185.84L275.75,179.75L275.81,181.03L275.9,182.62L276.35,179.09L276.72,180.76L276.8,179.6L277.11,181.3L277.17,179.68L277.26,177.65L277.78,179.5L277.86,181.36L278.01,177.53L278.16,179.38L278.16,253.09L278.32,253.05L278.32,179.34L278.47,180.41L278.84,177.73L278.92,177.54L279.22,180.85L279.59,176.56L279.68,174.11L279.98,177.84L280.13,167.46L280.13,167.46L280.2,162.98L282.09,76.16L282.09,164.61L282.24,161.81L282.24,88.11L282.39,87.98L282.39,154.31L282.55,151.88L282.55,70.8L282.7,79.66L282.7,79.66L282.76,83.45L282.85,88.22L283,61.45L283.37,76.05L283.45,77.81L283.45,70.44L283.6,162.49L284.12,74.76L284.21,73.82L284.51,71.19L286.63,208.39L286.99,205.25L287.08,202.39L287.38,199.15L287.53,207.95L287.6,203.45L287.68,197.77L287.83,206.34L288.29,193.31L288.44,202.36L288.51,197.72L288.59,191.84L288.59,265.55L288.81,268.88L288.89,272.26L289.19,264.74L289.19,191.03L289.35,196.59L289.8,191.31L289.87,188.24L290.77,180.54L290.86,180.17L291.16,184.96L291.23,182.26L291.31,178.83L291.46,178.32L291.53,179.93L291.61,181.97L292.06,177.02L292.43,180.08L292.52,179.93L292.97,177.35L293.12,180.69L293.58,177.92L293.64,177.89L293.88,253.86L294.33,182.5L294.4,180.8L295.24,138.17L295.24,138.17L295.3,133.85L296.6,63.39L296.75,68.69L296.75,142.39L296.9,131.69L297.35,143.08L297.35,69.38L297.5,65.44L297.66,69.74L297.66,143.44L297.96,158.29L297.96,84.59L298.18,86.67L298.26,88.71L298.41,74.94L298.93,85.53L299.02,83.83L299.47,74.16L299.62,82.76L299.62,97.5L299.77,104.57L299.77,178.27L300.22,200.26L300.22,126.55L301.28,267.23L301.28,193.53L301.43,193.51L301.43,193.51L301.5,194.55L301.73,202.07L301.95,196.79L302.04,191.62L302.34,192.41L302.41,189.58L302.49,185.96L302.64,187.6L302.79,184.06L303.01,184.82L303.09,184.36L303.4,185.08L304,180.49L304.07,181.41L304.15,182.59L305.06,179.62L305.13,180.01L305.21,180.5L305.36,180.9L305.43,179.64L305.51,178.02L305.81,181.16L305.88,179.3L305.97,176.91L306.42,187.21L306.94,185.33L307.02,184.58L307.33,176.35L307.69,186.12L307.78,186.33L307.93,183.96L308.53,184.72L308.53,258.42L308.69,256.76L308.69,183.05L308.99,188.3L309.05,185.74L309.14,182.44L309.74,198.19L309.89,110.41L309.89,110.41L309.96,105.6L310.95,56.03L311.25,66.64L311.32,73.93L311.71,89.57L312.16,84.52L312.23,78.52L312.31,70.8L312.76,85.12L312.92,79.22L312.98,80.03L313.22,90.81L313.37,88.71L313.37,162.42L313.52,164.25L313.67,164.12L313.67,90.42L314.43,124.03L314.58,120L314.58,193.7L314.88,226.44L314.88,160.1L315.18,174.09L315.25,179.67L315.94,219.06L316.24,204.5L316.31,204.72L316.39,205L316.46,203.84L316.54,202.33L316.69,207.36L316.84,199.15L317.21,200.29L317.3,199.18L318.05,190.99L318.12,194.25L318.2,198.48L319.33,182.36L319.41,181.29L319.56,181.31L319.56,181.31L319.63,182.16L319.87,179.7L320.02,184.05L320.02,191.42L320.17,184.66L320.77,188.27L320.77,254.6L320.92,251.76L320.92,178.06L321.38,177.31L321.59,180.72L321.68,183.78L321.83,176.61L322.5,178.19L322.59,178.43L322.74,176.24L322.74,249.95L323.04,253.61L323.04,179.9L323.34,173.94L323.49,181.55L323.64,176.52L323.64,183.89L323.79,177.39L323.79,251.09L323.95,251.28L324.1,237.8L324.1,164.09L325.31,96.07L325.46,96.78L325.46,177.86L325.61,175.75L325.61,94.67L325.91,71.36L326.36,79.57L326.36,145.9L326.58,148.9L326.67,152.1L326.97,164.29L327.12,163.88L327.12,90.18L327.57,83.01L327.64,91.22L327.72,92.32L328.39,118.03L328.48,129.2L328.63,116.25L329.23,151.38L329.23,151.38L329.3,153.97L331.05,211.94L331.05,211.94L331.11,206.7L331.2,192.48L331.87,197.66L331.95,197.08L332.1,201.45L332.56,197.82L332.62,194.23L333.46,184.45L333.46,191.82L333.62,197.11L334.22,195.29L334.29,192.34L334.52,196.56L335.13,180.34L335.19,183.21L335.28,186.97L336.03,181.03L336.1,182.39L336.18,184.17L336.34,179.15L336.49,185.21L336.94,182.76L337.01,181.88L337.24,182.62L337.54,179.46L337.61,181.55L337.7,184.28L337.85,177.19L337.85,258.26L338,256.95L338,183.24L338.45,170.79L338.45,163.42L338.6,164.42L339.21,117.45L339.21,110.08L340.33,67L340.42,65.3L340.57,67.11L340.57,148.19L340.72,144.12L340.87,150.72L340.87,77.02L341.02,74.51L341.02,155.59L341.17,163.66L341.32,161.63L341.32,80.56L341.47,81.09L341.47,88.46L341.62,90.81L341.62,105.55L341.77,100.37L341.77,166.7L342.08,174.43L342.08,100.73L342.53,81.53L342.6,89.81L342.68,100.74L342.83,101.03L342.83,93.66L342.98,99.72L342.98,173.42L343.29,187.12L343.29,113.41L344.04,163.24L344.04,236.95L344.19,258.33L344.34,186.27L344.56,209.36L344.65,207.47L345.25,221.63L345.47,212.58L345.55,214.83L345.85,281.57L346.16,202.17L346.22,202.3L346.31,202.47L346.46,197.14L347.13,197.43L347.21,197.07L347.52,198.01L348.42,185.3L348.42,185.3L348.49,185.72L348.88,184.94L349.03,186.47L349.09,185.84L349.18,185L349.33,184.74L349.33,184.74L349.39,182.73L349.48,180.06L349.63,184.57L350.09,182.17L350.09,189.55L350.24,190.17L350.3,188.51L350.39,186.31L350.54,191.73L351.06,187.77L351.14,185.22L351.29,192.12L351.6,179.57L351.75,182.06L351.81,180.47L352.2,180.73L352.35,176.25L352.35,249.95L352.5,255.72L352.5,182.01L354.47,73.84L354.47,147.54L354.77,137.32L354.77,63.62L354.92,62.05L355.22,66.81L355.37,63.48L355.37,137.19L355.98,155.86L355.98,82.16L356.28,75.08L356.43,92.07L356.43,99.44L356.58,89.72L356.73,97.46L356.8,99.25L357.04,98.19L358.4,148.81L358.4,148.81L358.46,163.32L359.37,201.28L359.45,204.24L360.51,197.11L360.58,198.08L360.66,199.37L361.27,188.17L361.57,190.05L361.63,189.67L362.02,186.55L362.09,188.19L362.17,190.39L362.78,185.08L362.99,186.75L363.08,186.57L363.99,183.61L364.05,184.48L364.14,185.64L364.74,178.6L364.81,182.25L364.89,187.14L365.65,179.89L365.65,187.26L366.55,198.57L366.55,264.9L366.71,260.47L366.71,186.77L366.86,190.78L366.86,183.41L367.01,185.7L367.01,259.4L367.16,263.86L367.31,255.88L367.31,182.17L369.58,87.33L369.58,153.66L369.73,151.23L369.94,159.88L370.03,160.33L370.18,76.72L370.78,184.26L370.78,184.26L370.85,183.23L370.94,181.82L371,188.05L371.09,196.44L371.24,185.31L371.39,203.3L371.39,122.22L371.54,110.8L371.69,133.24L371.91,124.85L371.99,135.54L372.14,132.23L372.21,138.83L372.3,147.75L372.45,136.06L372.9,181.2L373.05,159.34L373.12,169.86L373.66,210.1L374.02,204.6L374.11,201.34L374.26,205.87L374.41,198.22L374.78,200.03L374.86,198.88L375.02,202.26L375.32,196.28L375.32,269.98L375.47,264.25L375.92,265.86L375.92,192.16L376.22,190.83L376.38,192.49L376.44,192.39L376.53,192.27L376.98,188.03L377.04,190.3L377.13,193.38L377.58,182.8L377.95,187.04L378.04,188.94L378.19,184.85L378.64,192.77L378.64,192.77L378.71,192.51L379.1,189.79L379.16,191.83L379.25,194.6L379.4,189.75L379.55,191.84L379.55,258.18L379.7,255.96L379.7,182.25L379.85,181.32L379.91,183.15L380,185.65L380,193.02L380.67,190.76L380.76,192.95L380.91,185.1L381.36,196.38L381.36,196.38L381.43,198.8L381.51,202.1L381.88,187.51L381.97,178.57L382.12,237.06L382.57,124.27L382.72,199.98L382.79,195.56L383.02,181.71L383.02,108.01L384.53,70.95L384.6,77.27L384.69,85.88L384.84,73.47L384.99,97.46L385.29,92.99L385.35,98.03L385.74,107.61L385.89,98.84L385.89,172.54L386.05,172.37L386.05,165L386.35,178.08L386.35,104.38L388.22,211.16L388.31,211.17L388.46,213.26L388.53,205.41L388.61,204.75L390.13,191.4L390.28,191.55L390.34,192.75L390.43,194.39L390.79,190.5L390.88,188.37L391.03,192.26L391.33,191.77L391.33,265.48L391.79,261.13L391.85,263.55L391.94,266.86L392.69,184.76L392.69,184.76L392.76,186.75L392.84,189.47L393,183.04L393.45,185.78L393.51,185.87L393.6,185.99L393.6,185.99L393.66,184.21L393.9,188.57L394.36,180.66L394.42,181.36L394.51,182.32L394.66,185.27L395.17,183.34L395.26,182.1L395.41,181.44L395.63,182.96L395.72,184.09L395.87,178.2L395.87,251.9L396.02,260.52L396.02,186.82L396.17,180.93L396.17,254.63L396.32,254.24L396.32,254.24L396.38,249.53L396.47,243.04L396.47,169.34L396.92,147.79L396.92,221.49L397.23,210.06L397.23,136.36L398.13,112.73L398.2,117.52L398.28,124.11L399.49,75.06L399.49,75.06L399.56,79.31L401,142.97L401.07,136.26L401.15,137.17L402.58,212.43L402.67,218.7L402.82,223.11L403.18,212.69L403.27,209.54L403.57,217.91L403.94,216.12L404.03,218.49L405.08,197.07L405.15,200.06L405.23,204.2L406.29,186.93L406.29,186.93L406.36,187.87L406.75,187.59L406.9,190.32L406.96,187.76L407.05,184.21L407.2,192.2L407.35,183.93L407.72,184.89L407.8,182.35L408.41,193.64L408.71,190.85L408.77,191.59L408.86,192.62L408.86,185.25L408.86,185.25L408.92,183.17L409.01,180.27L409.16,184.36L409.68,182.68L409.77,182.38L409.92,182.87L410.07,180.76L410.07,180.76L410.13,180.22L410.22,179.48L410.22,179.48L410.28,186.29L410.52,184.73L410.82,262.89L410.98,250.17L410.98,176.47L413.09,70.86L413.09,144.57L413.24,141.44L413.39,152.05L413.39,78.34L413.54,69.4L413.85,85.95L413.85,93.32L414,89.62L414.15,102.89L414.45,96.91L414.51,98.67L414.6,101.12L414.75,90.15L415.06,96.56L415.06,89.19L415.21,90.47L415.21,97.84L416.11,222.56L416.11,141.49L416.26,139.59L416.26,139.59L416.33,151.21L417.17,274.28L417.32,267.57L417.32,193.87L417.62,193.39L417.78,200.34L418.14,196.15L418.23,194.79L419.29,186.44L419.35,188.26L419.44,190.81L419.59,194.54L419.89,185.11L419.95,185.73L420.04,186.61L420.26,185.76L420.34,184.78L420.49,186.48L420.8,183.94L421.01,185.19L421.1,183.9L421.4,184.49L421.46,183.03L421.55,180.98L421.7,187.33L422.22,182.9L422.31,181.66L422.61,182.77L422.67,180.9L422.76,178.27L423.21,177.78L423.37,182.84L423.43,180.79L423.52,177.9L423.82,253.91L424.27,176.77L424.27,184.14L424.34,185.49L424.42,187.39L424.73,177.61L424.73,177.61L424.79,178L424.88,178.55L425.18,176.8L425.18,257.87L425.33,256.26L425.33,182.55L425.48,171.77L425.48,245.47L427.05,65.82L427.14,61.44L427.75,166.68L427.81,160.78L427.9,152.47L428.05,68.13L428.65,76.49L428.72,77.27L429.11,87.45L429.26,85.2L429.26,92.57L429.56,88.26L429.56,80.89L430.92,164.33L430.92,238.03L431.07,233.81L431.29,253.55L431.37,260.3L431.37,193.97L432.04,209.9L432.13,208.68L432.43,208.79L432.73,200.97L432.73,200.97L432.8,199.39L433.04,199.99L433.34,194.25L433.7,194.44L433.79,194.47L434.7,191.55L434.7,191.55L434.76,191.14L434.85,190.55L434.91,194.75L435,200.7" style="vector-effect: non-scaling-stroke; fill: none; stroke: rgb(0, 128, 0); stroke-opacity: 1; stroke-width: 2px; opacity: 1;"/></g><g class="points"/><g class="text"/></g></g></g><g class="overplot"/><path class="xlines-above crisp" d="M0,0" style="fill: none;"/><path class="ylines-above crisp" d="M0,0" style="fill: none;"/><g class="overlines-above"/><g class="xaxislayer-above"><g class="xtick"><text text-anchor="middle" x="0" y="433" transform="translate(123.52000000000001,0)" style="font-family: 'Open Sans', verdana, arial, sans-serif; font-size: 12px; fill: rgb(42, 63, 95); fill-opacity: 1; white-space: pre; opacity: 1;"><tspan class="line" dy="0em" x="0" y="433">Sep 4</tspan><tspan class="line" dy="1.3em" x="0" y="433">2022</tspan></text></g><g class="xtick"><text text-anchor="middle" x="0" y="433" style="font-family: 'Open Sans', verdana, arial, sans-serif; font-size: 12px; fill: rgb(42, 63, 95); fill-opacity: 1; white-space: pre; opacity: 1;" transform="translate(225.05,0)">Sep 11</text></g><g class="xtick"><text text-anchor="middle" x="0" y="433" style="font-family: 'Open Sans', verdana, arial, sans-serif; font-size: 12px; fill: rgb(42, 63, 95); fill-opacity: 1; white-space: pre; opacity: 1;" transform="translate(326.59000000000003,0)">Sep 18</text></g><g class="xtick"><text text-anchor="middle" x="0" y="433" style="font-family: 'Open Sans', verdana, arial, sans-serif; font-size: 12px; fill: rgb(42, 63, 95); fill-opacity: 1; white-space: pre; opacity: 1;" transform="translate(428.12,0)">Sep 25</text></g></g><g class="yaxislayer-above"><g class="ytick"><text text-anchor="end" x="79" y="4.199999999999999" transform="translate(0,404.28)" style="font-family: 'Open Sans', verdana, arial, sans-serif; font-size: 12px; fill: rgb(42, 63, 95); fill-opacity: 1; white-space: pre; opacity: 1;">−100</text></g><g class="ytick"><text text-anchor="end" x="79" y="4.199999999999999" style="font-family: 'Open Sans', verdana, arial, sans-serif; font-size: 12px; fill: rgb(42, 63, 95); fill-opacity: 1; white-space: pre; opacity: 1;" transform="translate(0,330.58000000000004)">−50</text></g><g class="ytick"><text text-anchor="end" x="79" y="4.199999999999999" style="font-family: 'Open Sans', verdana, arial, sans-serif; font-size: 12px; fill: rgb(42, 63, 95); fill-opacity: 1; white-space: pre; opacity: 1;" transform="translate(0,256.87)">0</text></g><g class="ytick"><text text-anchor="end" x="79" y="4.199999999999999" style="font-family: 'Open Sans', verdana, arial, sans-serif; font-size: 12px; fill: rgb(42, 63, 95); fill-opacity: 1; white-space: pre; opacity: 1;" transform="translate(0,183.17000000000002)">50</text></g><g class="ytick"><text text-anchor="end" x="79" y="4.199999999999999" style="font-family: 'Open Sans', verdana, arial, sans-serif; font-size: 12px; fill: rgb(42, 63, 95); fill-opacity: 1; white-space: pre; opacity: 1;" transform="translate(0,109.47)">100</text></g></g><g class="overaxes-above"/></g></g><g class="polarlayer"/><g class="smithlayer"/><g class="ternarylayer"/><g class="geolayer"/><g class="funnelarealayer"/><g class="pielayer"/><g class="iciclelayer"/><g class="treemaplayer"/><g class="sunburstlayer"/><g class="glimages"/><defs id="topdefs-91ff76"><g class="clips"/><clipPath id="legend91ff76"><rect width="164" height="67" x="0" y="0"/></clipPath></defs><g class="layer-above"><g class="imagelayer"/><g class="shapelayer"/></g><g class="infolayer"><g class="legend" pointer-events="all" transform="translate(523.7,100)"><rect class="bg" shape-rendering="crispEdges" width="164" height="67" x="0" y="0" style="stroke: rgb(68, 68, 68); stroke-opacity: 1; fill: rgb(255, 255, 255); fill-opacity: 1; stroke-width: 0px;"/><g class="scrollbox" transform="" clip-path="url(#legend91ff76)"><g class="groups"><g class="traces" transform="translate(0,14.5)" style="opacity: 1;"><text class="legendtext" text-anchor="start" x="40" y="4.680000000000001" style="font-family: 'Open Sans', verdana, arial, sans-serif; font-size: 12px; fill: rgb(42, 63, 95); fill-opacity: 1; white-space: pre;">BESS</text><g class="layers" style="opacity: 1;"><g class="legendfill"/><g class="legendlines"><path class="js-line" d="M5,0h30" style="fill: none; stroke: rgb(0, 191, 255); stroke-opacity: 1; stroke-width: 2px;"/></g><g class="legendsymbols"><g class="legendpoints"/></g></g><rect class="legendtoggle" x="0" y="-9.5" width="158.71875" height="19" style="fill: rgb(0, 0, 0); fill-opacity: 0;"/></g><g class="traces" transform="translate(0,33.5)" style="opacity: 1;"><text class="legendtext" text-anchor="start" x="40" y="4.680000000000001" style="font-family: 'Open Sans', verdana, arial, sans-serif; font-size: 12px; fill: rgb(42, 63, 95); fill-opacity: 1; white-space: pre;">Solar</text><g class="layers" style="opacity: 1;"><g class="legendfill"/><g class="legendlines"><path class="js-line" d="M5,0h30" style="fill: none; stroke: rgb(255, 0, 0); stroke-opacity: 1; stroke-width: 2px;"/></g><g class="legendsymbols"><g class="legendpoints"/></g></g><rect class="legendtoggle" x="0" y="-9.5" width="158.71875" height="19" style="fill: rgb(0, 0, 0); fill-opacity: 0;"/></g><g class="traces" transform="translate(0,52.5)" style="opacity: 1;"><text class="legendtext" text-anchor="start" x="40" y="4.680000000000001" style="font-family: 'Open Sans', verdana, arial, sans-serif; font-size: 12px; fill: rgb(42, 63, 95); fill-opacity: 1; white-space: pre;">Grid Meter (Net Load)</text><g class="layers" style="opacity: 1;"><g class="legendfill"/><g class="legendlines"><path class="js-line" d="M5,0h30" style="fill: none; stroke: rgb(0, 128, 0); stroke-opacity: 1; stroke-width: 2px;"/></g><g class="legendsymbols"><g class="legendpoints"/></g></g><rect class="legendtoggle" x="0" y="-9.5" width="158.71875" height="19" style="fill: rgb(0, 0, 0); fill-opacity: 0;"/></g></g></g><rect class="scrollbar" rx="20" ry="3" width="0" height="0" x="0" y="0" style="fill: rgb(128, 139, 164); fill-opacity: 1;"/></g><g class="g-gtitle"><text class="gtitle" x="297.5" y="50" text-anchor="middle" dy="0em" style="font-family: 'Open Sans', verdana, arial, sans-serif; font-size: 17px; fill: rgb(42, 63, 95); opacity: 1; font-weight: normal; white-space: pre;"><tspan class="line" dy="0em" x="297.5" y="50">Scenario 2</tspan><tspan class="line" dy="1.3em" x="297.5" y="50">Microgrid Output</tspan><tspan class="line" dy="2.6em" x="297.5" y="50">From: September 01, 2022 to September 30, 2022</tspan></text></g><g class="g-xtitle"><text class="xtitle" x="297.5" y="476.409375" text-anchor="middle" style="font-family: 'Open Sans', verdana, arial, sans-serif; font-size: 14px; fill: rgb(42, 63, 95); opacity: 1; font-weight: normal; white-space: pre;">Time</text></g><g class="g-ytitle"><text class="ytitle" transform="rotate(-90,26.168750000000003,260)" x="26.168750000000003" y="260" text-anchor="middle" style="font-family: 'Open Sans', verdana, arial, sans-serif; font-size: 14px; fill: rgb(42, 63, 95); opacity: 1; font-weight: normal; white-space: pre;">Demand (kW)</text></g></g></svg>