<svg class="main-svg" xmlns="http://www.w3.org/2000/svg" xmlns:xlink="http://www.w3.org/1999/xlink" width="700" height="500" style="" viewBox="0 0 700 500"><rect x="0" y="0" width="700" height="500" style="fill: rgb(255, 255, 255); fill-opacity: 1;"/><defs id="defs-5b475c"><g class="clips"><clipPath id="clip5b475cxyplot" class="plotclip"><rect width="435" height="320"/></clipPath><clipPath class="axesclip" id="clip5b475cx"><rect x="80" y="0" width="435" height="500"/></clipPath><clipPath class="axesclip" id="clip5b475cy"><rect x="0" y="100" width="700" height="320"/></clipPath><clipPath class="axesclip" id="clip5b475cxy"><rect x="80" y="100" width="435" height="320"/></clipPath></g><g class="gradients"/><g class="patterns"/></defs><g class="bglayer"><rect class="bg" x="80" y="100" width="435" height="320" style="fill: rgb(229, 236, 246); fill-opacity: 1; stroke-width: 0;"/></g><g class="layer-below"><g class="imagelayer"/><g class="shapelayer"/></g><g class="cartesianlayer"><g class="subplot xy"><g class="layer-subplot"><g class="shapelayer"/><g class="imagelayer"/></g><g class="gridlayer"><g class="x"><path class="xgrid crisp" transform="translate(94.03999999999999,0)" d="M0,100v320" style="stroke: rgb(255, 255, 255); stroke-opacity: 1; stroke-width: 1px;"/><path class="xgrid crisp" transform="translate(192.3,0)" d="M0,100v320" style="stroke: rgb(255, 255, 255); stroke-opacity: 1; stroke-width: 1px;"/><path class="xgrid crisp" transform="translate(290.55,0)" d="M0,100v320" style="stroke: rgb(255, 255, 255); stroke-opacity: 1; stroke-width: 1px;"/><path class="xgrid crisp" transform="translate(388.81,0)" d="M0,100v320" style="stroke: rgb(255, 255, 255); stroke-opacity: 1; stroke-width: 1px;"/><path class="xgrid crisp" transform="translate(487.07,0)" d="M0,100v320" style="stroke: rgb(255, 255, 255); stroke-opacity: 1; stroke-width: 1px;"/></g><g class="y"><path class="ygrid crisp" transform="translate(0,341.83000000000004)" d="M80,0h435" style="stroke: rgb(255, 255, 255); stroke-opacity: 1; stroke-width: 1px;"/><path class="ygrid crisp" transform="translate(0,186.68)" d="M80,0h435" style="stroke: rgb(255, 255, 255); stroke-opacity: 1; stroke-width: 1px;"/><path class="ygrid crisp" transform="translate(0,109.1)" d="M80,0h435" style="stroke: rgb(255, 255, 255); stroke-opacity: 1; stroke-width: 1px;"/></g></g><g class="zerolinelayer"><path class="yzl zl crisp" transform="translate(0,264.25)" d="M80,0h435" style="stroke: rgb(255, 255, 255); stroke-opacity: 1; stroke-width: 2px;"/></g><path class="xlines-below"/><path class="ylines-below"/><g class="overlines-below"/><g class="xaxislayer-below"/><g class="yaxislayer-below"/><g class="overaxes-below"/><g class="plot" transform="translate(80,100)" clip-path="url(#clip5b475cxyplot)"><g class="scatterlayer mlayer"><g class="trace scatter traceb57a7d" style="stroke-miterlimit: 2; opacity: 1;"><g class="fills"/><g class="errorbars"/><g class="lines"><path class="js-line" d="M0,164.25L435,164.25L435,164.25" style="vector-effect: non-scaling-stroke; fill: none; stroke: rgb(0, 191, 255); stroke-opacity: 1; stroke-width: 2px; opacity: 1;"/></g><g class="points"/><g class="text"/></g><g class="trace scatter tracefc9f78" style="stroke-miterlimit: 2; opacity: 1;"><g class="fills"/><g class="errorbars"/><g class="lines"><path class="js-line" d="M0,164.44L4.09,164.15L4.09,164.15L4.15,163.46L5.12,145.82L5.12,145.82L5.18,143.73L5.85,96.94L5.85,96.94L5.91,88.04L7.02,16L7.02,16L7.08,16.04L8.54,16.74L8.63,17.56L9.86,97.47L9.94,105.27L11.32,164.46L11.41,164.46L18.13,164L18.13,164L18.19,162.88L19.07,134.43L19.15,131.77L19.89,55.37L19.89,55.37L19.95,51.07L20.76,16.04L21.12,16.12L21.2,16.09L22.52,16.88L22.52,16.88L22.58,18.71L23.6,76.18L23.69,83.38L25.36,164.46L25.44,164.46L32.02,163.95L32.02,163.95L32.08,162.66L32.81,133.17L32.9,126.29L35.01,16.34L35.09,16.31L36.41,16.61L36.41,16.61L36.47,17.51L36.99,36.95L36.99,36.95L37.05,40.61L39.48,164.46L39.48,164.46L39.54,164.45L46.06,164.11L46.06,164.11L46.12,163.19L46.7,143.96L46.79,138.42L48.98,16.37L49.04,16.4L49.13,16.44L50.45,16.83L50.45,16.83L50.5,17.83L51.03,37.84L51.03,37.84L51.09,40.98L53.52,164.45L53.52,164.45L53.57,164.45L60.1,164.15L60.1,164.15L60.15,163.11L60.74,141.76L60.83,135.54L63.02,16.6L63.02,16.6L63.08,16.53L64.25,16.63L64.34,16.83L65.21,50.06L65.21,50.06L65.27,53.47L67.47,164.45L67.55,164.45L74.43,164.15L74.43,164.15L74.48,162.83L75.65,126.57L75.74,120.25L76.03,109.02L76.03,109.02L76.09,81.1L76.97,18.4L77.06,17.1L77.93,16.35L77.93,16.35L77.99,16.3L78.23,16.64L78.23,16.64L78.29,17.72L79.16,48.27L79.25,52.83L81.15,164.46L81.5,164.45L81.59,164.45L88.17,164.16L88.17,164.16L88.23,163.06L88.9,136.72L88.9,136.72L88.96,133.03L91.53,16.81L91.53,16.81L91.59,16.92L91.83,16.66L91.97,17.74L91.97,17.74L92.03,18.73L93.05,43.93L93.14,49.78L95.54,164.45L95.63,164.45L102.21,164.12L102.21,164.12L102.26,163.33L102.79,147.67L102.79,147.67L102.85,144.94L105.72,16.24L105.77,16.26L105.86,16.28L106.45,16.12L106.89,129.36L106.94,97.81L107.03,49.04L107.18,45.11L107.24,54.01L107.32,67.78L107.62,71.63L107.62,71.63L107.67,77.21L109.23,164.46L109.28,164.45L109.37,164.45L116.24,164.17L116.24,164.17L116.3,163.48L116.83,148.12L116.83,148.12L116.89,144.92L119.46,18.8L119.52,19.98L119.61,21.82L119.75,44.89L119.9,16.39L120.34,18.8L120.39,19.72L121.07,41.97L121.07,41.97L121.13,45.2L123.61,164.46L123.7,164.46L129.4,164.45L129.4,164.45L129.46,164.45L130.34,164.03L130.43,163.62L131.89,101.68L131.89,101.68L131.95,89.57L132.97,30.98L133.06,28.71L133.94,17.19L134.14,18.23L134.23,19.42L134.87,58.14L134.96,118.44L135.25,131.06L135.25,131.06L135.31,101.65L135.4,55.1L136.04,103.22L136.13,110.13L137.36,164.45L137.45,164.45L144.61,164.05L144.61,164.05L144.67,163.63L145.4,153.7L145.49,151.34L147.59,80.64L147.68,66.12L147.97,20.7L148.27,106.88L148.41,67.57L148.47,81.22L148.7,47.17L149.44,136.4L149.44,136.4L149.49,130.15L149.58,120.14L149.87,149.46L150.08,147.64L150.17,148.04L150.31,139.14L150.66,159.13L150.75,162.37L151.63,164.44L151.63,164.44L151.68,164.44L158.5,164.13L158.5,164.13L158.56,163.32L160.4,132.85L160.4,132.85L160.46,119.67L161.57,22.37L161.57,22.37L161.63,21.47L161.72,20L161.77,25.6L161.86,34.64L162.01,53.98L162.45,18.08L162.45,18.08L162.5,19.66L163.62,72.23L163.62,72.23L163.67,75.65L165.52,164.45L165.52,164.45L165.58,164.45L172.68,163.89L172.68,163.89L172.74,162.4L174.49,101.83L174.58,96.56L175.75,20.84L175.75,20.84L175.81,20.38L175.9,19.63L176.39,21.56L176.49,22.86L177.51,65.29L177.51,65.29L177.56,68.5L179.61,164.45L179.7,164.44L179.76,164.44L186.72,164.13L186.72,164.13L186.78,163.61L188.62,139.92L188.62,139.92L188.68,135.93L190.08,21.53L190.58,28.92L190.67,30.76L191.75,80.56L191.84,86.55L193.5,164.46L193.59,164.45L200.67,163.96L200.76,163.49L201.64,148.95L201.84,153.71L201.93,153.63L203.74,114.69L203.83,102.01L203.97,106.15L204.12,89.7L204.32,95.75L204.41,92.02L206.75,164.26L206.75,164.26L206.81,164.32L208.07,164.45L208.07,164.45L208.12,164.45L214.7,163.76L214.79,163.16L215.58,145.76L215.67,143.49L216.26,122.36L216.55,129.97L216.6,129.67L216.7,129.17L216.7,129.17L216.75,124.39L217.87,53.86L218.07,65.17L218.16,71.68L218.45,64.46L218.5,72.57L218.6,86.31L218.74,71.88L219.09,108.87L219.18,114.72L221.23,164.35L221.23,164.35L221.28,164.39L223.42,164.45L223.42,164.45L223.48,164.45L228.59,164.02L228.69,163.53L229.56,117.5L229.56,117.5L229.62,113.11L231.52,16.57L231.61,16.29L232.78,17.05L232.78,17.05L232.83,17.95L233.27,33.55L233.36,39.28L234.73,142.3L234.83,150.66L235.85,164.45L235.85,164.45L235.9,164.45L242.72,163.89L242.72,163.89L242.78,162.91L243.36,138.55L243.45,130.77L245.65,16.43L245.65,16.43L245.7,16.43L246.82,17.3L246.82,17.3L246.87,18.27L247.55,44.85L247.55,44.85L247.6,47.71L249.89,164.45L249.89,164.45L249.94,164.45L256.76,164L256.76,164L256.81,163.19L257.34,146.08L257.34,146.08L257.4,141.53L259.44,21.14L259.54,18.53L259.88,16.3L260.42,16.48L260.47,16.48L260.85,17.09L260.85,17.09L260.91,18.58L261.93,67.52L262.02,74.08L263.83,164.45L263.92,164.45L270.8,163.71L270.8,163.71L270.85,162.14L271.73,115.76L271.82,100.4L271.97,101.56L272.02,96.08L272.11,86.36L273.57,20.39L273.63,20.94L273.72,21.9L274.45,16.49L274.5,17.29L274.6,18.72L274.74,16.89L275.04,20.99L275.04,20.99L275.09,23.22L276.55,117.59L276.65,125.91L277.82,164.45L277.82,164.45L277.87,164.45L284.89,163.91L284.98,163.55L285.71,122.91L285.71,122.91L285.76,118.57L287.17,25.43L287.23,39.6L287.32,65.06L288.34,17.29L288.34,17.29L288.4,19.03L288.64,16.42L290.24,87.38L290.24,87.38L290.3,91.67L291.85,164.45L291.85,164.45L291.9,164.45L299.16,164.16L299.16,164.16L299.21,163.13L299.51,147.03L299.6,140.19L301.21,64.75L301.26,67.34L301.36,72.04L301.79,36.72L301.99,78.26L302.09,101.88L303.26,17.17L303.31,19.17L303.4,22.81L304.28,118.98L304.33,109.54L304.43,92.33L305.36,164.35L305.45,164.42L308.43,164.45L308.52,164.45L312.81,164L312.91,163.19L314.37,83.49L314.37,83.49L314.42,72.2L315.39,23.79L315.39,23.79L315.44,22.22L315.69,16.19L316.32,16.35L316.42,16.46L317,16.24L317.05,16.53L317.15,17.05L318.22,79.32L318.32,87.85L319.83,164.45L319.93,164.44L326.94,164.2L326.94,164.2L327,163.59L327.53,148.19L327.53,148.19L327.58,144.05L329.58,16.06L329.87,16.1L329.92,16.09L331.18,16.2L331.18,16.2L331.24,17.12L331.77,40.61L331.77,40.61L331.82,43.81L334.01,164.45L334.11,164.44L340.98,164.09L340.98,164.09L341.03,163.57L341.47,153.76L341.57,148.59L343.91,17.1L343.91,17.1L343.96,16.8L344.05,16.23L344.69,16.42L344.78,16.43L345.08,17.01L345.08,17.01L345.13,18.05L345.81,48.13L345.81,48.13L345.86,51.32L348,164.45L348,164.45L348.05,164.45L355.02,164.19L355.02,164.19L355.07,163.45L355.65,144.66L355.75,137.6L357.7,29.18L357.8,28.15L358.67,16.16L358.67,16.16L358.72,16.18L359.11,19.42L359.11,19.42L359.16,20.82L360.04,61.43L360.14,68L361.89,164.46L361.94,164.45L362.04,164.45L369.06,164.17L369.06,164.17L369.11,163.35L369.54,144.4L369.64,136.46L369.79,136.91L369.84,136.01L369.93,134.28L371.44,35.29L371.54,32.85L372.71,17.74L372.76,17.96L372.86,18.4L373.15,20.8L373.15,20.8L373.2,22.23L374.08,64.16L374.17,70.37L375.98,164.45L376.07,164.45L383.14,163.81L383.24,163.02L383.82,139.76L383.82,139.76L383.87,135.47L385.92,24.26L386.02,22.11L386.6,16.22L386.65,18.92L386.75,24.2L387.04,17.1L387.38,24.54L387.48,28.35L389.58,164.31L389.67,164.43L393.52,164.45L393.62,164.45L397.18,163.87L397.28,163.23L397.91,136.33L398.01,128.07L399.96,24.86L400.05,22.84L400.64,16.57L400.83,19.98L400.93,20.67L401.08,20.6L401.13,21.36L401.22,22.85L402.39,83.56L402.39,83.56L402.44,87.71L404.05,164.45L404.15,164.45L411.17,164.26L411.17,164.26L411.22,163.48L411.9,141.26L411.9,141.26L411.95,135.8L413.41,42.51L413.51,39.76L414.87,19.32L414.97,19.11L415.6,33.47L415.7,37.79L417.06,136.97L417.16,145.05L418.09,164.45L418.18,164.46L425.25,163.96L425.35,163.53L425.93,141.4L425.93,141.4L425.98,137.24L427.98,30.22L427.98,30.22L428.03,28.74L428.27,21L428.32,29.8L428.42,47.65L428.57,22.92L428.91,68.6L429.01,84.34L429.3,105.32L429.59,61.52L429.64,74.38L429.74,100.51L429.88,75.09L430.32,130.53L430.37,125.06L430.47,113.94L430.61,98.64L430.95,132.38L431.05,143.23L431.93,164.46L431.98,164.45L432.08,164.45L435,164.44L435,164.44" style="vector-effect: non-scaling-stroke; fill: none; stroke: rgb(255, 0, 0); stroke-opacity: 1; stroke-width: 2px; opacity: 1;"/></g><g class="points"/><g class="text"/></g><g class="trace scatter trace35dc7d" style="stroke-miterlimit: 2; opacity: 1;"><g class="fills"/><g class="errorbars"/><g class="lines"><path class="js-line" d="M0,207.68L0.73,187.82L0.94,189.34L1.02,187.71L1.75,190.71L1.82,189.21L1.9,187.08L2.11,188.34L2.19,189.66L2.19,267.24L2.92,185.89L2.92,185.89L2.98,187.33L3.07,189.37L3.07,266.95L3.36,264.91L3.36,187.34L3.51,190.5L3.51,268.08L3.8,263.35L3.8,185.77L4.39,203.78L4.83,198.14L4.83,190.39L6.06,90.54L6.14,70.95L6.73,50.79L6.73,128.36L6.87,132.99L7.02,131.4L7.02,53.83L7.46,77.48L7.9,73.68L7.9,65.92L8.04,65.48L8.1,67.19L8.19,69.62L8.33,60.78L8.92,79.85L8.92,79.85L8.98,82.42L9.94,151.31L9.94,166.83L10.09,174.68L10.09,252.26L10.67,297.59L10.67,220.02L10.82,226.88L11.17,214.29L11.26,211.91L11.84,193L11.99,202.82L12.05,202.77L13.01,190.09L13.16,192.48L13.22,191.81L13.6,192.43L13.89,187.44L13.95,188.82L14.04,190.79L14.62,186.8L14.62,194.56L14.91,193.98L15.06,197.59L15.21,196.02L15.21,188.26L15.5,191.82L15.79,186.02L15.85,187.21L15.94,188.92L16.82,186.46L16.88,186.91L16.96,187.56L17.11,190.57L17.25,186.41L17.25,263.99L17.4,266.46L17.55,266.26L17.55,188.69L17.69,185.76L17.98,188.73L18.13,186.87L18.13,194.63L18.42,191.62L18.42,199.38L18.63,192.37L18.72,191.35L19.45,141.08L19.45,141.08L19.51,136.72L20.47,66.31L20.47,143.89L20.62,143.87L20.62,143.87L20.68,141.3L20.76,137.58L20.76,67.76L21.35,77.35L21.41,72.45L21.49,65.38L21.64,68.42L21.79,58.27L21.99,62.04L22.08,55.47L23.45,137.21L23.54,148L23.69,149.15L23.69,149.15L23.75,157.08L24.27,265.53L24.27,187.95L24.86,211.56L25.3,208.93L25.36,209.96L25.59,205.6L25.73,211.99L25.79,208.75L25.88,204.07L26.03,208.51L26.32,196.46L26.32,196.46L26.38,195.58L27.34,189.25L27.34,189.25L27.4,191.47L27.49,194.7L28.07,188.82L28.07,188.82L28.13,189.08L28.37,191.99L28.43,190L28.51,187.12L28.66,192.03L29.24,187.84L29.3,187.58L29.54,185.85L29.6,187.93L29.68,190.97L30.41,185.86L30.56,187.67L30.62,188.28L30.71,189.17L30.71,266.74L30.85,264.62L30.85,187.05L31.14,185.76L31.29,189.73L31.5,186.53L31.58,185.75L32.31,204.65L32.46,202.12L32.46,279.7L32.61,275.15L32.61,189.82L32.75,183.06L32.75,260.63L32.9,255.55L32.9,177.97L34.51,77.28L34.57,84.73L34.65,84.27L34.8,76.01L34.95,93.69L35.09,93.14L35.09,170.71L35.38,168.5L35.38,90.92L35.53,87.18L35.68,93.72L35.82,90.08L35.88,97.47L35.97,108.24L36.26,89.44L36.61,98.75L36.7,95.96L36.7,88.21L37.43,126.31L37.43,126.31L37.49,133.28L38.75,213.15L38.81,209.72L38.89,204.69L39.19,209.32L39.25,206.69L39.33,202.86L39.77,213.46L40.06,211.11L40.12,211.3L40.21,211.57L40.21,211.57L40.27,207.58L40.5,210.89L41.09,193.66L41.15,195.5L41.23,198.19L42.11,192.8L42.11,192.8L42.17,193.95L42.26,195.64L42.55,189.86L42.76,193.94L42.84,191.65L43.13,192.1L43.13,192.1L43.19,190.62L43.43,192.27L44.01,187.98L44.01,187.98L44.07,188.18L44.45,189.14L44.45,196.9L44.6,199.5L44.74,194.61L45.09,195.35L45.18,195.24L45.91,185.72L45.91,263.3L45.91,263.3L45.97,264.35L46.06,265.9L46.35,261.64L46.35,184.06L47.23,149.98L47.23,149.98L47.29,145.82L48.69,73.07L48.84,78.22L48.84,85.98L48.98,85.07L48.98,92.83L49.13,88.3L49.42,102.29L49.42,102.29L49.48,103.38L49.71,118.66L49.77,113.96L49.86,107.03L50.01,107.52L50.45,97.46L50.59,101.47L50.65,101.65L50.74,101.9L50.74,94.14L52.26,189.62L52.35,193.29L52.35,185.53L52.78,205.73L53.08,205.05L53.14,203.87L53.22,202.11L53.57,210.51L53.66,212.41L53.81,208.94L53.95,210.39L53.95,287.97L54.25,296.3L54.39,296.06L54.39,218.48L55.27,201.1L55.33,202.92L55.42,205.63L55.56,206.22L55.62,203.7L55.71,199.98L56.59,205.27L56.59,205.27L56.65,203.38L57.76,186.12L57.76,186.12L57.82,188.94L57.9,193.14L58.49,185.91L58.49,185.91L58.55,186.56L58.78,194.15L58.98,187.63L59.07,186.86L59.22,189.94L59.66,186.45L59.86,187.93L59.95,188.13L60.39,184.18L60.39,261.75L60.53,255.65L60.53,178.08L60.68,181.67L61.18,148.48L61.27,142.2L62.73,93.05L62.73,178.39L62.87,175.21L62.87,97.64L63.61,78.19L63.75,78.57L63.75,156.15L63.9,156.68L63.9,156.68L63.96,154.13L64.04,150.33L64.04,72.75L64.19,73.44L64.19,81.2L64.77,98.33L64.77,175.9L64.92,191.32L65.07,189.78L65.07,112.2L66.3,191.17L66.38,192.51L66.82,218.15L67.26,212.48L67.32,212.97L67.55,215.91L67.7,212.2L67.7,219.96L67.99,224.27L68.58,213.5L68.63,213.59L68.72,213.73L68.87,215.27L69.07,211.95L69.16,210.09L69.45,201.11L69.89,203.19L69.95,202.72L70.18,203.29L70.24,199.95L70.33,194.94L71.27,190.46L71.35,190.28L71.5,191.38L71.5,199.14L71.79,198.36L71.79,190.6L72.38,190.93L72.52,188.82L72.67,189.41L72.73,190.22L72.82,191.44L72.82,269.01L72.96,265.73L72.96,188.16L73.11,189.38L73.4,188.83L73.4,266.41L73.55,270.26L73.69,267.52L73.69,189.95L73.84,188.33L74.13,192.27L74.34,190.75L74.43,192.6L74.72,186.74L74.72,264.31L74.86,258.4L75.01,267.87L75.01,190.29L75.3,180.6L75.45,191.77L75.45,269.35L76.09,136.6L76.18,100.91L76.76,65.43L76.91,157.09L76.91,157.09L76.97,156.83L77.06,156.44L77.12,157.54L77.2,159.21L77.5,77.55L77.93,89.62L77.99,84.97L78.08,77.94L78.52,90.95L78.58,86.65L78.67,91.88L78.81,96.04L78.81,173.62L79.25,204.03L79.25,126.45L81.01,238.8L81.06,221.63L81.15,219.11L81.3,218.83L81.36,220.09L81.44,222.01L82.47,193.38L82.53,193.63L82.61,194.01L82.76,196.67L83.2,192.05L83.26,192.25L83.34,192.56L83.49,197.03L83.78,187.53L83.99,193.61L84.08,188.83L84.22,188.39L84.22,188.39L84.28,190.92L84.37,194.75L84.51,188.01L85.01,190.41L85.1,193.29L85.83,188.15L85.89,189.67L85.98,192L86.85,186.33L86.85,186.33L86.91,188.41L87,191.56L87.15,187.13L87.29,188.42L87.29,266L87.44,264.91L87.58,266.66L87.58,189.08L88.02,190.32L88.32,185.87L88.46,186.77L88.52,186.85L88.61,186.97L88.61,186.97L88.67,184.94L89.34,151.21L89.34,236.54L89.63,214.57L89.63,144.75L89.78,135.24L89.78,135.24L89.84,129.29L90.36,93.95L90.8,101.98L90.86,106.57L90.95,113.57L91.09,76.6L91.3,83.28L91.39,77.18L91.68,88.73L91.83,76.12L91.83,153.69L91.97,153.43L91.97,161.19L92.26,161.23L92.26,83.65L93.93,175.44L94.02,188.19L94.16,175.4L94.75,221.55L94.75,221.55L94.81,222.61L94.9,224.23L94.9,216.47L95.1,218.71L95.19,215.64L95.33,219.34L95.48,206.59L95.63,209.35L95.68,208.05L95.77,206.06L96.27,209.01L96.36,213.15L97.24,196.34L97.24,196.34L97.29,198.1L97.38,200.8L97.53,191.42L97.88,194.04L97.97,194.91L98.7,187.8L98.76,190.19L98.84,193.84L99.87,189.25L99.87,189.25L99.92,189.25L100.16,190.26L100.22,189.07L100.31,187.24L100.45,199.91L100.89,191.52L100.95,189.21L101.04,185.65L101.18,190.25L101.48,186.16L101.48,263.73L101.62,267.96L101.62,190.38L101.77,187.24L101.77,264.81L102.06,265.79L102.06,188.21L102.35,186.77L102.35,186.77L102.41,185.27L102.5,182.95L102.5,260.52L102.79,254.92L102.79,192.86L104.55,81.37L104.55,158.95L104.69,159.33L104.69,159.33L104.75,156.12L104.84,151.17L104.84,73.6L104.98,74.51L104.98,74.51L105.04,69.95L105.42,61.66L105.77,64.05L105.86,67.06L106.89,184.82L106.94,157.93L107.03,116.36L107.18,105.55L107.47,133.25L107.47,133.25L107.53,134.08L107.67,140.65L107.76,148.84L108.64,304L108.79,289.06L108.79,211.48L108.93,222.94L109.52,212.11L109.58,209.2L109.66,204.7L109.81,211.02L110.31,207.64L110.39,207.9L111.62,196.91L111.71,192.59L112,196.58L112.06,194.74L112.15,191.87L112.44,190.29L112.59,195.16L112.88,191.62L112.94,191.47L113.08,189.85L113.17,187.7L113.47,194.61L113.61,189.01L113.67,189.25L114.2,190.85L114.25,189.98L114.34,188.62L114.49,190L114.64,187.35L114.78,189.41L114.78,266.99L115.07,265.28L115.07,187.71L115.22,190.45L115.22,268.03L115.37,264.88L115.37,187.3L115.51,186.74L115.57,188.51L115.66,191.27L115.95,185.92L115.95,271.25L116.24,274.27L116.24,188.94L116.39,184.66L116.39,262.23L116.54,263.95L116.59,260.78L116.68,255.85L117.27,147.64L117.41,148.11L117.47,144.74L118.88,87.84L118.93,88.42L119.02,89.33L119.17,83.04L119.17,160.62L119.31,162.59L119.37,159.07L119.46,153.57L119.46,68.24L119.75,185.13L120.19,82.41L120.25,83.09L120.48,77.01L120.63,85.56L120.63,163.13L120.83,175.46L120.92,179.52L121.07,97.78L121.65,130.81L121.71,138.56L122.68,292.74L122.82,292.08L122.82,214.5L122.97,222.98L123.41,209.05L123.55,213.97L123.61,211.64L124.29,198.64L124.34,200.52L124.43,203.46L125.31,192.79L125.31,192.79L125.37,194.54L125.46,197.29L125.89,189.02L126.1,194.19L126.19,193.38L126.92,189.75L127.12,190.93L127.21,191.94L127.5,187.16L127.79,189.38L127.79,266.96L127.94,269L128.09,267.19L128.09,189.62L128.38,188.53L128.53,190.13L128.53,197.89L129.11,185.71L129.26,196.05L129.26,203.81L129.4,206.36L129.46,196.47L129.55,193.1L129.84,195.72L129.84,187.96L129.99,189.32L130.13,186.26L130.28,187.72L130.28,265.29L130.57,271.89L130.57,194.31L130.87,195.33L131.01,185.21L131.01,262.79L131.3,258.84L131.3,274.35L131.45,272.22L131.45,186.89L131.95,149.29L132.04,130.36L132.62,99.23L132.77,100.14L132.82,98.71L133.35,71.17L133.35,63.41L133.64,58.77L134.08,85.83L134.08,163.41L134.23,158.56L134.29,176.09L134.37,191.53L134.52,177.38L134.67,181.94L134.67,104.36L134.81,99.25L134.81,99.25L134.87,135.1L135.25,201.71L135.54,129.03L135.6,136.54L135.69,148.43L136.19,177.85L136.28,189.73L136.28,181.97L136.57,224.63L137.01,218.4L137.06,217.16L137.3,224.41L137.36,211.78L137.45,204.06L137.59,208.71L138.03,200.61L138.03,200.61L138.09,199.67L139.2,191.74L139.2,191.74L139.26,193.87L139.35,197.24L139.64,190.45L139.93,190.98L139.99,191.24L140.52,191.6L140.57,190.81L140.66,189.57L140.81,188.08L141.25,191.09L141.25,191.09L141.3,190.95L141.69,189.01L141.89,190.45L141.98,190.81L142.56,188.32L142.77,190.05L142.86,192.23L143,186.61L143.59,187.45L143.59,195.21L143.73,206.65L144.32,203.83L144.32,196.07L144.46,194.62L144.61,196.93L144.61,266.75L144.9,271.19L144.9,193.62L145.05,192.29L145.05,200.04L145.19,203.26L145.19,288.59L145.34,286.73L145.34,209.15L145.49,200.41L145.49,277.99L145.63,281.45L145.63,219.39L145.93,208.29L145.93,200.53L146.36,170.45L146.71,180.92L146.8,183.43L147.24,150.98L147.24,228.55L147.53,200.39L147.53,122.81L147.83,60.85L147.97,148.02L147.97,148.02L148.03,168.45L148.12,201.12L148.41,131.23L148.61,154.75L148.7,117.87L149.44,199.36L149.93,197.58L150.02,196.41L150.31,184.17L150.52,195.96L150.61,201.78L150.9,206.96L151.39,204.14L151.48,201.34L151.63,199.98L151.63,192.22L151.92,203.93L152.51,200.58L152.56,200.14L152.94,200.22L153.24,195.35L153.38,198.38L153.44,198.91L153.53,199.74L153.68,195.26L153.68,187.5L154.26,185.76L154.41,191.43L154.46,190.37L154.55,188.67L154.85,189.71L155.14,187.08L155.28,188L155.34,189.35L155.43,191.51L155.58,189.34L155.58,266.92L155.72,265.5L155.87,265.77L155.87,188.2L156.31,186.62L156.36,187.34L156.45,188.5L156.66,187.76L156.75,186.73L157.62,190.09L157.68,188.9L157.77,186.99L158.06,186.49L158.35,188.43L158.41,187.62L158.5,186.32L158.65,271.86L158.94,184.17L159.23,192.43L159.29,186.73L159.52,176.88L159.67,181.04L159.67,250.86L159.96,246.5L159.96,168.92L160.11,168.32L160.26,169.76L160.26,177.52L161.28,97.71L161.28,97.71L161.33,81.99L161.43,56.58L161.86,83.18L161.86,160.75L162.01,187.42L162.3,149.15L162.5,154.82L162.59,153.11L162.59,75.53L163.33,101.8L163.38,106.38L165.08,203.44L165.08,203.44L165.14,201.63L165.37,203.43L165.81,194.25L166.01,197.31L166.1,198.84L167.27,189.89L167.33,191.51L167.42,194.14L168.35,188.03L168.44,187.45L168.59,191.8L168.74,186.35L169.17,187.58L169.23,187.3L169.47,189.85L169.76,186.1L169.82,187.37L169.91,189.43L170.34,185.46L170.49,188.45L170.49,196.21L170.64,197.87L170.93,193.24L170.93,185.49L171.08,190.05L171.72,188.03L171.81,185.54L172.1,187.04L172.1,187.04L172.15,187.77L172.39,184.82L172.59,195.77L172.68,197.86L173.12,276.73L173.42,182.86L173.42,182.86L173.47,183.17L173.56,183.68L173.71,180.77L173.71,180.77L173.76,178.4L174.73,128.66L174.73,206.23L175.02,191.35L175.02,106.02L175.9,57.34L175.9,72.86L175.96,75.22L176.05,79.08L176.19,78.7L176.19,156.27L176.49,160.59L176.49,83.02L176.78,91.86L176.78,169.43L177.07,163.05L177.13,173.81L177.22,191.44L177.36,192L177.36,122.18L177.95,231.91L177.95,231.91L178,238.09L178.39,268L178.39,190.42L179.26,211.5L179.47,209.18L179.56,207.89L180.73,201.24L180.73,201.24L180.78,201.16L181.02,203.17L181.07,201.3L181.16,198.24L181.31,197.37L181.37,199.38L181.46,202.68L182.33,187.27L182.48,190.78L182.54,190.72L182.77,185.45L183.07,191.06L183.36,185.89L183.41,187.73L183.5,190.76L184.09,186.18L184.09,186.18L184.14,185.96L184.24,185.59L184.29,187.19L184.38,189.83L184.82,187.72L185.17,188.29L185.26,188.83L185.55,185.77L185.7,190.22L185.84,187.16L185.84,194.92L185.99,194.41L186.05,195.35L186.14,196.9L186.43,185.96L186.87,198.75L186.87,198.75L186.92,197.06L187.31,197.38L187.45,192.72L187.45,278.06L187.6,275.61L187.74,275.84L187.74,206.02L187.89,208.92L187.89,286.5L188.18,270.09L188.18,192.51L188.33,191.7L188.33,183.95L188.77,169.58L188.77,247.16L189.06,237.39L189.06,159.81L190.52,69.04L190.67,70.43L190.72,73.67L190.82,79.03L190.82,164.36L190.96,163.58L191.02,167.11L191.11,172.97L191.4,184.98L191.4,107.4L193.59,198.83L193.59,198.83L193.65,195.42L194.18,197.39L194.32,189.41L194.47,190.7L194.53,193.13L194.62,197.15L194.91,186.69L195.11,189.31L195.2,187.68L195.35,194.78L195.93,189.09L195.99,189.3L196.23,192.08L196.28,189.85L196.37,186.12L196.66,192.49L197.16,190.65L197.25,188.92L197.54,192.05L198.13,186.91L198.13,186.91L198.18,187.79L198.27,189.26L198.71,186.18L198.77,186.31L198.86,186.53L199.3,190.84L199.59,186.51L199.59,264.08L199.88,266.94L199.88,189.37L200.03,186.1L200.32,190.03L200.47,187.48L200.47,195.24L200.61,194.87L200.67,195.91L200.76,197.64L200.76,275.22L201.49,178.58L201.49,178.58L201.54,176.11L201.64,171.99L201.93,187L202.07,185.14L202.13,184.88L202.27,181.14L202.37,175.62L202.66,161.98L202.95,170.78L202.95,178.54L203.1,178.73L203.1,186.49L204.12,118.55L204.27,128.01L204.27,205.59L204.41,196.68L204.71,210.31L204.71,132.73L205,137.65L205.14,131.55L205.14,131.55L205.2,143.7L206.08,178.19L206.17,184.94L206.46,187.69L206.46,187.69L206.52,190.31L206.75,204.07L207.25,192.49L207.34,190.09L207.63,201.1L208.27,198.22L208.36,196.63L208.51,199.9L208.71,189.85L208.8,188.71L209.09,191.3L209.29,187.89L209.38,186.36L210.12,191.29L210.17,190.1L210.26,188.1L210.7,190.75L210.85,186.44L211.05,187.52L211.14,189.27L211.29,189.19L211.29,189.19L211.34,188.29L211.72,189.9L212.02,186.46L212.07,186.78L212.16,187.31L212.46,186.42L212.75,195.7L212.75,281.04L212.89,282.19L212.89,274.44L213.04,271.79L213.04,194.21L213.19,193.93L213.19,186.17L213.39,187.17L213.48,188.53L213.77,188.69L214.21,186.88L214.21,194.64L214.36,195.97L214.36,203.73L214.5,201.6L214.65,204.75L214.65,282.32L214.94,279.5L214.94,201.93L215.82,163.8L215.82,241.38L216.11,226.56L216.11,148.98L216.26,147.39L216.46,152.35L216.55,156.54L216.75,148.83L216.84,139.3L216.99,130.49L217.33,146.88L217.43,152.01L217.72,102.48L217.72,180.06L217.77,175.64L217.87,168.14L218.16,197.2L218.3,100.64L218.6,125.33L218.65,120.05L218.74,111.1L218.89,126.96L218.89,204.53L219.18,233.13L219.18,147.8L219.33,148L219.33,148L219.38,152.96L220.41,180.14L220.5,181.44L220.79,190.51L220.79,268.08L220.94,271.44L221.23,269.94L221.23,192.36L221.52,194.35L221.96,190.06L222.01,191.28L222.11,193.37L222.25,193.81L222.31,192.67L222.4,190.73L222.54,189.59L222.6,192.13L222.69,196.46L222.84,197.55L222.89,195.27L222.98,191.4L223.28,189.19L223.28,189.19L223.33,188.24L223.71,190.92L224.01,186.21L224.15,186.84L224.21,187.33L224.45,186.64L224.74,188.89L225.03,188.23L225.08,187.87L225.32,188.68L225.47,186.31L225.82,187.38L225.91,187.6L226.64,185.97L226.84,186.37L226.93,186.2L227.37,186.64L227.81,185.7L228.1,185.98L228.15,186.08L228.25,186.24L228.25,194L228.54,193.56L228.69,194.03L228.69,186.28L228.83,190.51L228.83,275.85L228.98,273.12L228.98,195.54L229.12,189.3L229.27,206.15L229.42,195.57L229.42,265.39L229.71,240.54L229.71,162.97L231.37,67.18L231.46,64.53L231.76,53.41L232.05,69.88L232.19,63.2L232.25,65.75L233.36,95.27L233.36,172.84L233.66,188.65L233.66,111.08L235.12,203.3L235.12,203.3L235.17,201.72L235.56,202.44L236,193.49L236.05,195.04L236.14,197.71L236.44,196.6L236.44,196.6L236.49,195.35L236.73,197.54L237.02,189.06L237.22,193.57L237.31,194.53L238.04,185.94L238.24,189.38L238.34,190.24L238.34,198L239.07,194.91L239.12,196.05L239.21,198.01L239.51,195.38L239.8,195.9L239.8,188.14L240.24,185.87L240.38,188.72L240.82,186.19L240.88,186.77L241.11,185.65L241.55,195.35L241.85,193.43L241.85,263.25L241.99,265.63L241.99,188.06L242.14,187.32L242.14,264.89L242.58,262.54L242.58,192.72L243.02,203.13L243.02,195.38L243.07,194.47L243.31,184.76L243.31,177.01L244.18,121.37L244.18,198.95L244.33,183.56L244.62,189.64L244.62,112.06L244.77,111.39L244.77,111.39L244.82,104.44L245.21,69.98L245.5,72.59L245.5,150.17L245.79,140.74L245.79,63.17L245.94,63.32L245.94,63.32L245.99,66.03L248.13,154.64L248.13,232.22L248.43,250.99L248.43,181.17L249.3,302.02L249.74,291.57L249.74,214L250.18,207.01L250.62,207.52L250.67,209.28L250.76,212.35L251.2,202.45L251.2,202.45L251.26,202.15L251.35,201.61L251.4,203.12L251.5,205.74L251.93,206.07L252.08,198.53L252.28,201.71L252.37,203.55L252.57,197.11L252.67,189.38L252.96,193.11L253.3,187.99L253.4,187.55L253.98,190.53L254.03,188.73L254.13,185.57L254.27,188.66L254.71,187.31L254.71,264.88L254.86,264.44L255.01,265.71L255.15,264.97L255.15,187.39L255.3,185.67L255.59,188.19L255.88,186.04L255.88,193.8L256.17,195.44L256.47,193.7L256.47,263.52L256.61,264.82L256.61,272.58L256.76,272.03L256.76,194.45L257.05,192.72L257.11,193.75L257.2,195.54L257.2,203.3L257.93,150.1L257.93,150.1L257.98,146.14L259.44,84.14L259.54,82.97L259.68,86.05L259.74,80.77L259.83,71.49L260.12,66.62L260.42,81.25L260.42,89.01L260.85,88.91L261.78,125.28L261.88,137.2L262.02,135.58L262.02,143.34L262.02,143.34L262.08,150.35L263.05,242.04L263.39,233.95L263.49,237.67L263.92,205.97L263.92,283.54L264.36,279.27L264.36,201.7L264.51,201.36L264.56,201.95L264.66,203L265.39,192.45L265.68,196L265.73,195.27L266.56,190.88L266.61,191.91L266.7,193.72L266.85,190.04L266.99,199.88L267.19,198.35L267.29,199.2L268.51,187.41L268.6,186.39L268.75,190.07L269.04,186.35L269.33,188.51L269.39,187.58L269.48,185.93L269.63,188.16L269.92,187.67L269.92,195.43L270.36,196.25L270.5,193.66L270.5,263.48L270.65,265.55L270.8,264.79L270.8,187.22L270.94,184.35L271.29,192.29L271.38,193.65L271.82,149.28L271.97,156.08L271.97,233.65L272.55,105.38L272.6,186.84L272.7,193.72L272.7,201.47L273.14,101.34L273.43,109.79L273.48,106.11L274.01,84.85L274.36,95.38L274.45,95.04L274.74,89.24L275.04,106.77L275.18,95.11L275.24,95.69L275.48,105.83L275.48,183.4L275.62,175.34L275.91,198.7L275.91,121.13L277.38,215.71L277.52,213.56L277.52,291.14L277.67,285.64L277.82,291.97L277.96,285.96L277.96,208.38L278.4,212.55L278.4,204.79L278.4,204.79L278.45,201.93L279.28,193.27L279.33,194.41L279.42,196.45L279.57,192.43L280.06,195.97L280.15,199.48L280.3,202.39L280.89,200.43L280.94,196.98L281.32,187.22L281.82,187.7L281.91,187.44L282.49,190.74L282.55,189.29L282.64,186.7L282.79,186.37L282.84,187.09L282.93,188.38L283.08,188.43L283.08,188.43L283.13,187.58L283.23,186.07L283.37,187.72L283.96,186.39L284.01,186.95L284.25,185.71L284.83,190.36L284.83,198.12L284.98,203.8L285.13,202.62L285.13,280.2L285.42,265.4L285.42,180.06L286.44,123.67L286.59,128.24L286.59,205.81L286.88,183.08L286.88,105.51L287.17,87.93L287.32,118.04L287.52,103.36L287.61,101.35L288.78,62.6L288.78,70.36L289.07,88.1L289.07,165.68L289.22,162.08L289.27,175L289.37,184.31L289.51,183.96L289.51,106.38L291.12,222.12L291.17,219.53L291.27,214.85L291.41,221.4L292,215.65L292.05,214.61L292.14,212.74L292.58,218.76L292.58,218.76L292.64,219.4L292.88,221.85L292.93,213.66L293.02,212.87L294.19,197.71L294.24,199.33L294.34,202.24L294.78,203.96L295.22,187.01L295.41,191.7L295.51,191.95L296.09,192.18L296.38,185.93L296.38,185.93L296.44,187.18L296.68,187.04L296.82,194.57L297.17,188.49L297.26,186.41L297.55,192.19L297.55,199.95L297.85,186.66L297.99,191.06L297.99,268.64L298.14,264.99L298.14,187.41L298.43,187.17L298.72,196.85L299.02,196.4L299.02,188.64L299.16,192.73L299.36,182.48L299.46,177.25L300.48,120.14L300.53,127.58L300.63,141.11L301.21,102.74L301.36,196.7L301.36,119.12L301.41,113.91L301.65,128.24L301.79,96.78L301.94,126.85L301.99,140.68L302.09,165.83L302.38,129.13L302.72,139.25L302.82,135.75L303.26,52.68L303.6,108.01L303.7,142.77L303.84,132.15L304.13,156.17L304.19,156.02L304.28,155.74L304.43,132.11L304.57,179.08L304.57,256.65L304.72,256.25L304.72,256.25L304.77,261.88L305.3,277.62L305.3,200.04L305.6,197.54L305.89,199.37L305.89,207.12L306.09,206.63L306.18,205.81L306.33,205.96L306.38,205.24L306.47,203.91L306.62,206.22L306.91,204.65L306.91,196.89L307.35,192L307.64,194.22L307.7,195.04L307.79,196.54L308.13,191.11L308.23,189.26L308.43,187.84L308.52,185.79L308.72,187.78L308.81,190.35L308.96,185.85L309.6,186.5L309.69,186.98L309.84,189.94L309.98,186.48L310.42,186.62L310.42,264.2L310.57,265.07L310.57,187.49L311.01,185.97L311.2,187.22L311.3,188.79L311.45,186.59L311.45,271.92L311.59,271.39L311.74,271.72L311.74,186.39L311.88,186.66L311.88,194.42L312.03,195.03L312.32,193.92L312.47,194.09L312.47,186.33L312.62,185.91L312.81,186.83L312.91,187.85L313.93,144.79L313.93,222.37L314.08,225.12L314.22,221.98L314.22,221.98L314.28,211.18L315.25,51.27L315.39,52.22L315.44,51.91L315.98,48.98L315.98,56.74L316.56,68.87L316.71,66.49L316.71,136.3L316.86,136.38L316.86,136.38L316.91,135.53L317,133.97L317,56.39L317.88,110.22L317.88,110.22L317.93,115.31L319.19,200.56L319.54,199.36L319.63,198.26L319.93,201.8L319.98,192.93L320.07,190.87L320.22,200.35L320.8,197.62L320.85,198.65L320.95,200.54L321.24,194L321.39,196.09L321.39,188.33L322.27,185.92L322.32,186.05L322.41,186.29L322.7,185.84L323.14,187.74L323.19,187.17L323.29,186.12L324.46,186.02L324.46,186.02L324.51,185.92L325.04,185.49L325.34,185.84L325.39,185.97L325.48,186.22L325.63,185.47L326.07,185.76L326.12,185.62L326.21,185.36L326.36,185.77L326.36,193.53L326.51,193.75L326.51,279.08L326.65,278.45L326.65,200.88L326.8,201.02L326.8,193.26L326.94,194.29L327.14,192.03L327.24,190.55L327.87,159.31L327.97,151.3L328.55,116.82L328.55,202.15L329.28,161.79L329.28,76.46L329.58,63.99L329.58,56.23L330.16,42.08L330.36,54.17L330.45,60.95L330.6,71.09L331.04,53.85L331.04,53.85L331.09,52.47L331.18,49.9L331.38,57.07L331.48,64L331.82,80.02L331.92,84.34L333.67,194.16L333.67,194.16L333.72,193.55L334.69,188.13L334.75,188.78L334.84,190.01L334.99,189.93L334.99,189.93L335.04,188.84L335.91,186.08L336.01,185.96L336.3,188.03L336.5,187.05L336.59,186.05L336.74,186.76L337.33,186.2L337.38,186.17L338.64,185.57L338.69,185.77L338.79,186.14L339.52,185.51L339.72,185.82L339.81,186.19L340.1,185.56L340.1,263.13L340.25,263.47L340.25,271.22L340.4,271.33L340.4,193.75L340.54,193.89L340.69,193.19L340.69,270.77L340.84,271.31L340.84,263.55L340.98,263.76L340.98,186.18L341.42,179.99L341.42,179.99L341.47,177.39L343.76,69.84L343.96,72.55L344.05,72.71L344.05,64.95L344.78,156.96L344.78,156.96L344.83,157.11L344.93,157.39L344.93,79.81L345.08,78.28L345.22,84.57L345.22,84.57L345.27,86.39L345.37,82.07L346.3,134.28L346.39,143.41L347.12,199.18L347.12,199.18L347.17,199.51L347.42,202.03L347.42,209.79L347.56,209.2L347.56,201.44L348.58,195.77L348.64,196.58L348.73,198.11L349.32,187.7L349.46,188.96L349.51,187.88L349.61,185.83L350.34,186.02L350.39,185.88L350.49,185.61L350.63,186.16L350.78,186.19L350.83,187.19L350.92,189.08L351.07,185.65L351.51,185.99L351.56,185.98L352.39,186.4L352.39,186.4L352.44,186.16L352.53,185.71L352.97,186.11L352.97,263.69L353.12,263.15L353.26,263.59L353.26,186.02L353.41,186.13L353.56,185.86L353.56,193.62L353.99,193.46L353.99,201.22L354.14,201.39L354.14,193.63L354.43,193.87L354.73,193.68L354.73,185.92L355.02,186.66L355.07,186.07L355.16,184.93L355.6,172.08L355.6,172.08L355.65,168.47L357.65,66.51L357.65,66.51L357.7,70.92L357.8,87.08L358.09,79.38L358.09,156.96L358.24,147.64L358.38,149.43L358.38,64.1L358.67,62.64L359.26,79.1L359.26,156.67L359.7,183.81L359.7,98.48L360.14,122.92L360.28,115.09L360.28,200.42L361.16,281.13L361.16,203.56L361.31,210.31L361.45,200.86L361.79,203.45L361.89,202.02L362.18,199.66L362.33,203.5L362.38,201.97L362.48,199.05L362.91,201.35L363.06,198.73L363.21,199.45L363.26,199.27L364.08,195.69L364.28,197.62L364.38,199.29L364.52,195.75L365.16,198.1L365.25,197.74L365.4,197.94L365.45,197.57L365.55,196.85L365.84,188.55L365.84,188.55L365.89,188.05L366.13,189.29L366.57,186.3L366.72,186.97L366.77,187.09L367.01,187.72L367.01,265.3L367.3,264.31L367.3,186.73L368.03,186.27L368.08,186.37L368.18,186.56L368.32,186.37L368.47,186.58L368.47,194.33L368.91,194.48L368.91,186.72L369.06,187.05L369.11,186.53L369.2,185.54L370.42,135.52L370.52,126.79L371.1,162.76L371.25,80.95L371.25,80.95L371.3,80.99L371.54,74.79L371.54,160.12L371.83,142.63L371.83,65.05L371.98,68.14L371.98,161.23L372.13,163.09L372.18,159.67L372.27,153.05L372.86,59.77L373,64.49L373.05,66.09L373.93,111.45L374.03,119.92L374.32,146.54L374.32,216.36L374.76,259.86L374.76,182.29L375.49,220.66L375.69,208.37L375.78,207.83L376.07,210.13L376.22,208.89L376.22,201.13L376.81,202.29L376.95,197.7L377,198.41L377.1,199.8L378.41,186.1L378.46,186.29L378.56,186.65L378.71,190.19L378.85,186.62L379.29,186.9L379.34,187.31L379.44,188.12L379.58,186.73L379.93,186.81L380.02,186.62L380.31,188.21L380.46,186.17L380.51,186.27L380.61,186.46L380.9,185.89L381.19,186.38L381.34,186.09L381.39,186.04L382.22,186.57L382.26,186.41L382.36,186.1L382.51,186.49L382.51,264.07L382.65,264.01L382.65,271.77L382.8,271.39L382.8,193.82L382.95,186.07L383.53,191.35L383.53,199.11L384.41,137.38L384.41,214.96L384.7,194.09L384.7,116.51L384.85,117.05L386.16,63.09L386.31,70.41L386.31,78.16L386.46,67.25L387.04,79.49L387.09,73.26L387.19,76.25L388.65,199.96L388.65,277.53L388.79,274.24L388.94,283.17L389.09,278.53L389.09,200.95L389.23,202L389.23,194.24L389.53,203L389.82,190.17L389.96,194.02L390.01,194.27L390.11,194.74L390.16,193.64L390.26,191.49L390.7,193.95L390.84,189.74L391.04,192.11L391.13,192.27L392.01,186.29L392.06,187.47L392.16,189.8L392.89,185.87L393.08,186.72L393.18,187.87L393.47,185.77L393.82,186.77L393.91,187.84L394.35,185.85L394.84,185.98L394.94,185.69L395.67,186.43L395.67,194.19L395.81,193.53L395.81,201.29L395.96,201.47L395.96,216.98L396.11,217.04L396.11,209.29L396.25,209.4L396.25,201.64L396.4,201L396.54,201.29L396.54,193.53L396.69,193.89L396.69,186.13L396.98,185.74L397.13,186.64L397.13,194.39L397.42,190.23L397.42,190.23L397.47,189.86L397.62,186.6L397.71,181.64L399.18,71.4L399.18,148.98L399.32,144.95L399.32,67.37L399.47,61.33L399.47,138.91L399.81,132.85L399.91,129.34L400.05,128.29L400.05,50.72L400.35,45.88L400.35,53.64L400.35,53.64L400.4,55.13L401.22,67L401.27,59.95L401.37,61.36L401.81,90.02L401.81,175.36L402.25,202.69L402.25,125.11L403.03,194.83L403.12,203.22L403.42,218.04L403.9,211.4L404,209.06L404.15,192.17L404.59,271.31L404.73,268.4L404.78,269.25L404.88,270.92L405.03,269.71L405.03,192.14L405.17,192.21L405.17,192.21L405.22,191.22L405.46,191.71L405.76,186.36L406.1,187.55L406.19,187.15L406.49,188.41L406.54,187.67L406.63,186.19L406.78,188.79L407.36,186.39L407.41,186.61L407.66,187.83L408,186.38L408.1,186.24L408.97,186.48L409.12,186.13L409.17,186.09L410,186.32L410.05,186.19L410.14,185.94L410.87,185.81L410.92,186.07L411.02,186.59L411.17,186.8L411.17,202.32L411.31,199.77L411.31,277.35L411.46,272.29L411.46,194.72L411.61,190.66L411.61,268.24L411.75,263.67L411.75,178.33L412.04,148.28L412.04,225.86L412.19,212.57L412.34,214.17L412.34,136.6L413.36,77.09L413.65,83.34L413.65,91.1L413.8,92.15L413.85,90.45L413.94,87.05L414.24,87.55L414.53,59.7L415.02,67.38L415.11,68.12L415.26,66.17L415.26,143.75L415.55,158.43L415.55,80.85L416.14,105.54L416.14,190.88L416.43,216.72L416.43,139.14L417.45,208.21L417.94,200.41L418.04,203.3L418.18,201.18L418.38,207.91L418.48,209.77L418.77,196.9L419.4,199.51L419.5,197.95L419.79,195.21L419.99,196.7L420.09,198.25L420.82,186.82L421.11,187.61L421.16,187.69L421.26,187.83L421.4,186.74L421.45,187.24L421.55,188.25L421.69,186.12L422.33,186.23L422.43,186.29L423.3,185.85L423.3,185.85L423.35,185.94L423.45,186.14L423.74,185.84L423.74,263.42L423.89,263.52L423.89,185.94L424.18,185.58L424.18,263.15L424.33,263.28L424.33,271.03L424.47,271.43L424.47,193.86L424.76,193.25L424.91,193.54L424.91,185.78L425.06,185.76L425.06,185.76L425.11,187.17L425.64,199.39L425.84,189.91L425.93,182.77L427.4,85.18L427.4,155L428.13,138.12L428.13,60.54L428.27,57.55L428.27,65.3L428.27,65.3L428.32,74.94L428.57,68.85L429.3,156.94L429.35,147.07L429.44,127.01L429.59,111.11L429.74,157.38L429.93,136.67L430.03,161.06L430.32,170.32L430.47,148.22L430.47,148.22L430.52,145.18L430.61,139L430.95,165.8L431.05,175.67L431.64,196.25L431.93,193.62L431.98,194.04L432.08,194.9L432.27,192.64L432.37,190.39L432.66,203.21L433.25,200.88L433.29,199.86L433.83,187.79L434.17,189.8L434.27,190.05L434.42,186.05L435,186.19" style="vector-effect: non-scaling-stroke; fill: none; stroke: rgb(0, 128, 0); stroke-opacity: 1; stroke-width: 2px; opacity: 1;"/></g><g class="points"/><g class="text"/></g></g></g><g class="overplot"/><path class="xlines-above crisp" d="M0,0" style="fill: none;"/><path class="ylines-above crisp" d="M0,0" style="fill: none;"/><g class="overlines-above"/><g class="xaxislayer-above"><g class="xtick"><text text-anchor="middle" x="0" y="433" transform="translate(94.03999999999999,0)" style="font-family: 'Open Sans', verdana, arial, sans-serif; font-size: 12px; fill: rgb(42, 63, 95); fill-opacity: 1; white-space: pre; opacity: 1;"><tspan class="line" dy="0em" x="0" y="433">Oct 2</tspan><tspan class="line" dy="1.3em" x="0" y="433">2022</tspan></text></g><g class="xtick"><text text-anchor="middle" x="0" y="433" style="font-family: 'Open Sans', verdana, arial, sans-serif; font-size: 12px; fill: rgb(42, 63, 95); fill-opacity: 1; white-space: pre; opacity: 1;" transform="translate(192.3,0)">Oct 9</text></g><g class="xtick"><text text-anchor="middle" x="0" y="433" style="font-family: 'Open Sans', verdana, arial, sans-serif; font-size: 12px; fill: rgb(42, 63, 95); fill-opacity: 1; white-space: pre; opacity: 1;" transform="translate(290.55,0)">Oct 16</text></g><g class="xtick"><text text-anchor="middle" x="0" y="433" style="font-family: 'Open Sans', verdana, arial, sans-serif; font-size: 12px; fill: rgb(42, 63, 95); fill-opacity: 1; white-space: pre; opacity: 1;" transform="translate(388.81,0)">Oct 23</text></g><g class="xtick"><text text-anchor="middle" x="0" y="433" style="font-family: 'Open Sans', verdana, arial, sans-serif; font-size: 12px; fill: rgb(42, 63, 95); fill-opacity: 1; white-space: pre; opacity: 1;" transform="translate(487.07,0)">Oct 30</text></g></g><g class="yaxislayer-above"><g class="ytick"><text text-anchor="end" x="79" y="4.199999999999999" transform="translate(0,419.41)" style="font-family: 'Open Sans', verdana, arial, sans-serif; font-size: 12px; fill: rgb(42, 63, 95); fill-opacity: 1; white-space: pre; opacity: 1;">−100</text></g><g class="ytick"><text text-anchor="end" x="79" y="4.199999999999999" style="font-family: 'Open Sans', verdana, arial, sans-serif; font-size: 12px; fill: rgb(42, 63, 95); fill-opacity: 1; white-space: pre; opacity: 1;" transform="translate(0,341.83000000000004)">−50</text></g><g class="ytick"><text text-anchor="end" x="79" y="4.199999999999999" style="font-family: 'Open Sans', verdana, arial, sans-serif; font-size: 12px; fill: rgb(42, 63, 95); fill-opacity: 1; white-space: pre; opacity: 1;" transform="translate(0,264.25)">0</text></g><g class="ytick"><text text-anchor="end" x="79" y="4.199999999999999" style="font-family: 'Open Sans', verdana, arial, sans-serif; font-size: 12px; fill: rgb(42, 63, 95); fill-opacity: 1; white-space: pre; opacity: 1;" transform="translate(0,186.68)">50</text></g><g class="ytick"><text text-anchor="end" x="79" y="4.199999999999999" style="font-family: 'Open Sans', verdana, arial, sans-serif; font-size: 12px; fill: rgb(42, 63, 95); fill-opacity: 1; white-space: pre; opacity: 1;" transform="translate(0,109.1)">100</text></g></g><g class="overaxes-above"/></g></g><g class="polarlayer"/><g class="smithlayer"/><g class="ternarylayer"/><g class="geolayer"/><g class="funnelarealayer"/><g class="pielayer"/><g class="iciclelayer"/><g class="treemaplayer"/><g class="sunburstlayer"/><g class="glimages"/><defs id="topdefs-5b475c"><g class="clips"/><clipPath id="legend5b475c"><rect width="164" height="67" x="0" y="0"/></clipPath></defs><g class="layer-above"><g class="imagelayer"/><g class="shapelayer"/></g><g class="infolayer"><g class="legend" pointer-events="all" transform="translate(523.7,100)"><rect class="bg" shape-rendering="crispEdges" width="164" height="67" x="0" y="0" style="stroke: rgb(68, 68, 68); stroke-opacity: 1; fill: rgb(255, 255, 255); fill-opacity: 1; stroke-width: 0px;"/><g class="scrollbox" transform="" clip-path="url(#legend5b475c)"><g class="groups"><g class="traces" transform="translate(0,14.5)" style="opacity: 1;"><text class="legendtext" text-anchor="start" x="40" y="4.680000000000001" style="font-family: 'Open Sans', verdana, arial, sans-serif; font-size: 12px; fill: rgb(42, 63, 95); fill-opacity: 1; white-space: pre;">BESS</text><g class="layers" style="opacity: 1;"><g class="legendfill"/><g class="legendlines"><path class="js-line" d="M5,0h30" style="fill: none; stroke: rgb(0, 191, 255); stroke-opacity: 1; stroke-width: 2px;"/></g><g class="legendsymbols"><g class="legendpoints"/></g></g><rect class="legendtoggle" x="0" y="-9.5" width="158.71875" height="19" style="fill: rgb(0, 0, 0); fill-opacity: 0;"/></g><g class="traces" transform="translate(0,33.5)" style="opacity: 1;"><text class="legendtext" text-anchor="start" x="40" y="4.680000000000001" style="font-family: 'Open Sans', verdana, arial, sans-serif; font-size: 12px; fill: rgb(42, 63, 95); fill-opacity: 1; white-space: pre;">Solar</text><g class="layers" style="opacity: 1;"><g class="legendfill"/><g class="legendlines"><path class="js-line" d="M5,0h30" style="fill: none; stroke: rgb(255, 0, 0); stroke-opacity: 1; stroke-width: 2px;"/></g><g class="legendsymbols"><g class="legendpoints"/></g></g><rect class="legendtoggle" x="0" y="-9.5" width="158.71875" height="19" style="fill: rgb(0, 0, 0); fill-opacity: 0;"/></g><g class="traces" transform="translate(0,52.5)" style="opacity: 1;"><text class="legendtext" text-anchor="start" x="40" y="4.680000000000001" style="font-family: 'Open Sans', verdana, arial, sans-serif; font-size: 12px; fill: rgb(42, 63, 95); fill-opacity: 1; white-space: pre;">Grid Meter (Net Load)</text><g class="layers" style="opacity: 1;"><g class="legendfill"/><g class="legendlines"><path class="js-line" d="M5,0h30" style="fill: none; stroke: rgb(0, 128, 0); stroke-opacity: 1; stroke-width: 2px;"/></g><g class="legendsymbols"><g class="legendpoints"/></g></g><rect class="legendtoggle" x="0" y="-9.5" width="158.71875" height="19" style="fill: rgb(0, 0, 0); fill-opacity: 0;"/></g></g></g><rect class="scrollbar" rx="20" ry="3" width="0" height="0" x="0" y="0" style="fill: rgb(128, 139, 164); fill-opacity: 1;"/></g><g class="g-gtitle"><text class="gtitle" x="297.5" y="50" text-anchor="middle" dy="0em" style="font-family: 'Open Sans', verdana, arial, sans-serif; font-size: 17px; fill: rgb(42, 63, 95); opacity: 1; font-weight: normal; white-space: pre;"><tspan class="line" dy="0em" x="297.5" y="50">Scenario 2</tspan><tspan class="line" dy="1.3em" x="297.5" y="50">Microgrid Output</tspan><tspan class="line" dy="2.6em" x="297.5" y="50">From: October 01, 2022 to October 31, 2022</tspan></text></g><g class="g-xtitle"><text class="xtitle" x="297.5" y="476.409375" text-anchor="middle" style="font-family: 'Open Sans', verdana, arial, sans-serif; font-size: 14px; fill: rgb(42, 63, 95); opacity: 1; font-weight: normal; white-space: pre;">Time</text></g><g class="g-ytitle"><text class="ytitle" transform="rotate(-90,26.168750000000003,260)" x="26.168750000000003" y="260" text-anchor="middle" style="font-family: 'Open Sans', verdana, arial, sans-serif; font-size: 14px; fill: rgb(42, 63, 95); opacity: 1; font-weight: normal; white-space: pre;">Demand (kW)</text></g></g></svg>