<svg class="main-svg" xmlns="http://www.w3.org/2000/svg" xmlns:xlink="http://www.w3.org/1999/xlink" width="700" height="500" style="" viewBox="0 0 700 500"><rect x="0" y="0" width="700" height="500" style="fill: rgb(255, 255, 255); fill-opacity: 1;"/><defs id="defs-8cf8ed"><g class="clips"><clipPath id="clip8cf8edxyplot" class="plotclip"><rect width="435" height="320"/></clipPath><clipPath class="axesclip" id="clip8cf8edx"><rect x="80" y="0" width="435" height="500"/></clipPath><clipPath class="axesclip" id="clip8cf8edy"><rect x="0" y="100" width="700" height="320"/></clipPath><clipPath class="axesclip" id="clip8cf8edxy"><rect x="80" y="100" width="435" height="320"/></clipPath></g><g class="gradients"/><g class="patterns"/></defs><g class="bglayer"><rect class="bg" x="80" y="100" width="435" height="320" style="fill: rgb(229, 236, 246); fill-opacity: 1; stroke-width: 0;"/></g><g class="layer-below"><g class="imagelayer"/><g class="shapelayer"/></g><g class="cartesianlayer"><g class="subplot xy"><g class="layer-subplot"><g class="shapelayer"/><g class="imagelayer"/></g><g class="gridlayer"><g class="x"><path class="xgrid crisp" transform="translate(152.53,0)" d="M0,100v320" style="stroke: rgb(255, 255, 255); stroke-opacity: 1; stroke-width: 1px;"/><path class="xgrid crisp" transform="translate(254.06,0)" d="M0,100v320" style="stroke: rgb(255, 255, 255); stroke-opacity: 1; stroke-width: 1px;"/><path class="xgrid crisp" transform="translate(355.6,0)" d="M0,100v320" style="stroke: rgb(255, 255, 255); stroke-opacity: 1; stroke-width: 1px;"/><path class="xgrid crisp" transform="translate(457.13,0)" d="M0,100v320" style="stroke: rgb(255, 255, 255); stroke-opacity: 1; stroke-width: 1px;"/></g><g class="y"><path class="ygrid crisp" transform="translate(0,387.99)" d="M80,0h435" style="stroke: rgb(255, 255, 255); stroke-opacity: 1; stroke-width: 1px;"/><path class="ygrid crisp" transform="translate(0,333.59000000000003)" d="M80,0h435" style="stroke: rgb(255, 255, 255); stroke-opacity: 1; stroke-width: 1px;"/><path class="ygrid crisp" transform="translate(0,279.19)" d="M80,0h435" style="stroke: rgb(255, 255, 255); stroke-opacity: 1; stroke-width: 1px;"/><path class="ygrid crisp" transform="translate(0,224.8)" d="M80,0h435" style="stroke: rgb(255, 255, 255); stroke-opacity: 1; stroke-width: 1px;"/><path class="ygrid crisp" transform="translate(0,170.4)" d="M80,0h435" style="stroke: rgb(255, 255, 255); stroke-opacity: 1; stroke-width: 1px;"/></g></g><g class="zerolinelayer"><path class="yzl zl crisp" transform="translate(0,116)" d="M80,0h435" style="stroke: rgb(255, 255, 255); stroke-opacity: 1; stroke-width: 2px;"/></g><path class="xlines-below"/><path class="ylines-below"/><g class="overlines-below"/><g class="xaxislayer-below"/><g class="yaxislayer-below"/><g class="overaxes-below"/><g class="plot" transform="translate(80,100)" clip-path="url(#clip8cf8edxyplot)"><g class="scatterlayer mlayer"><g class="trace scatter traceef1eaa" style="stroke-miterlimit: 2; opacity: 1;"><g class="fills"/><g class="errorbars"/><g class="lines"><path class="js-line" d="M0,16L435,16L435,16" style="vector-effect: non-scaling-stroke; fill: none; stroke: rgb(0, 191, 255); stroke-opacity: 1; stroke-width: 2px; opacity: 1;"/></g><g class="points"/><g class="text"/></g><g class="trace scatter trace015c6c" style="stroke-miterlimit: 2; opacity: 1;"><g class="fills"/><g class="errorbars"/><g class="lines"><path class="js-line" d="M0,16L435,16L435,16" style="vector-effect: non-scaling-stroke; fill: none; stroke: rgb(255, 0, 0); stroke-opacity: 1; stroke-width: 2px; opacity: 1;"/></g><g class="points"/><g class="text"/></g><g class="trace scatter trace642d17" style="stroke-miterlimit: 2; opacity: 1;"><g class="fills"/><g class="errorbars"/><g class="lines"><path class="js-line" d="M0,60.06L0.3,55.11L0.81,57.73L0.91,57.13L1.21,58.24L1.26,57.04L1.36,54.6L1.81,53.58L2.12,58.78L2.16,57.89L2.27,56.07L2.42,53.59L2.72,57.08L3.07,54.26L3.17,54.32L3.32,70.24L3.83,67.73L3.93,67.1L4.23,192.54L4.23,56.55L4.68,87.74L4.73,87.86L4.99,89.21L4.99,225.2L5.44,246.92L5.44,110.92L5.89,122.43L6.04,115.29L6.04,101.69L6.19,99.49L6.24,103.39L6.35,111.4L6.65,89.6L6.8,97.47L6.8,233.47L7.1,215.44L7.1,79.45L7.25,75.02L7.55,75.97L7.55,89.57L8.01,129.03L8.16,118.87L8.16,268.47L8.46,304L8.46,168.01L8.61,166.33L8.61,152.73L8.76,128.32L8.91,141.02L8.91,277.02L9.07,266.86L9.22,277.79L9.22,128.2L9.52,139.16L10.27,80.6L10.32,83.57L10.43,89.7L11.79,61.09L11.79,61.09L11.83,62.01L12.24,64.02L12.44,61.17L12.54,60.01L12.69,60.43L12.69,60.43L12.74,57.92L12.84,52.72L13.5,54.56L13.6,53.05L14.05,52.77L14.35,59.66L14.4,57.42L14.51,52.79L14.71,54.59L14.81,57.4L15.11,52.95L15.26,57.6L15.71,53.71L15.76,54.23L16.02,56.24L16.32,52.72L16.32,52.72L16.37,52.6L16.47,52.36L16.52,53.31L16.62,55.28L17.07,52.44L17.27,53.9L17.38,56.04L18.13,52.4L18.18,53.53L18.28,55.88L18.58,52.56L18.58,188.55L18.89,192.03L18.89,56.03L19.04,69.36L19.04,205.35L19.34,215.95L19.34,79.95L20.55,131.96L20.55,118.36L20.6,118.74L20.7,119.53L20.75,117.72L20.85,113.95L21.3,89.26L21.46,93.54L21.46,107.14L21.61,98.55L21.76,100.48L21.76,236.48L22.06,239.01L22.36,222.31L22.36,86.31L22.51,87.09L22.56,84.01L22.66,77.61L24.02,124.78L24.07,122.84L24.18,118.81L24.18,132.41L24.63,102.22L24.93,108.51L24.98,108.39L25.08,108.14L25.08,108.14L25.13,105.99L26.14,73.18L26.19,73.55L26.29,74.31L26.59,77.71L26.74,73.41L26.94,74.92L27.05,74.95L27.65,69.92L28,70.25L28.1,70.18L28.25,69.78L28.41,70.88L28.56,70.07L28.61,67.9L29.16,52.37L29.51,53.61L29.61,53.32L29.77,53.16L30.07,53.56L30.07,67.16L30.37,66.48L30.67,66.56L30.67,52.96L30.97,53.26L31.28,52.3L31.43,52.57L31.48,52.73L31.88,52.17L32.18,52.9L32.18,188.89L32.33,188.04L32.33,52.05L32.49,52.36L32.49,188.36L32.64,188.94L32.79,188.37L32.79,52.38L33.09,52.06L33.14,52.85L33.24,54.52L33.39,55.05L33.39,55.05L33.44,60.37L34.75,134.15L34.8,134.01L34.9,133.72L35.05,148.86L35.56,115.06L35.66,105.09L35.81,106.44L35.81,92.84L35.96,95.35L36.16,90.12L36.26,87.72L36.87,280.58L36.92,143.47L37.02,141.12L37.17,158.28L37.77,104.25L37.77,104.25L37.82,105.81L37.92,109.1L38.23,95.12L38.23,95.12L38.28,94L38.53,95.71L38.83,72.02L38.83,99.22L39.28,92.06L39.28,228.05L39.44,223.89L39.59,226.03L39.59,90.04L40.8,55.44L40.84,55.6L40.95,55.94L41.25,55.83L41.55,56.43L41.6,55.91L41.7,54.81L42.31,52.39L42.51,52.95L42.61,53.13L43.21,53.39L43.36,52.07L43.41,52.27L43.52,52.71L44.27,53.68L44.32,53.38L44.42,52.75L44.72,53.92L44.92,52.79L45.03,51.6L45.78,52.8L45.83,52.43L45.93,51.63L46.39,52.58L46.54,51.42L46.59,51.47L46.69,51.57L46.99,51.89L46.99,65.49L47.14,65.09L47.29,65.53L47.29,201.52L47.44,201.43L47.44,65.44L47.59,64.86L47.59,51.26L47.95,60.38L48.05,71.55L48.2,71.99L48.2,71.99L48.25,77.51L48.95,106.45L48.95,242.45L49.11,242.39L49.15,242.64L49.26,243.16L49.26,107.17L50.01,127.71L50.06,126.97L50.16,125.4L50.16,111.8L50.31,106.78L50.31,242.78L50.47,218.82L50.47,82.82L50.77,97.67L50.92,91.65L50.92,214.04L51.22,220.37L51.22,84.38L51.52,84.69L52.13,67.71L52.13,81.31L52.43,107.74L52.73,105.63L52.73,241.62L52.88,242.62L53.03,239.79L53.03,90.2L53.19,94.87L53.23,78.66L53.34,73.07L53.49,71.9L53.79,74.22L53.79,74.22L53.84,76.76L53.94,95.79L54.44,87.91L54.54,85.97L54.7,81.11L54.7,217.11L55.15,206.95L55.15,70.96L55.3,71.81L55.3,58.22L56.66,86.64L56.66,86.64L56.71,81.78L57.46,70.74L57.57,70.7L57.87,71.06L58.17,70.59L58.22,70.7L58.32,70.91L58.62,70.16L58.93,71.62L59.13,71.33L59.23,71.15L59.68,69.86L59.98,70.31L60.03,65.31L60.14,54.57L60.14,190.57L60.29,189.04L60.29,53.05L60.74,52.15L60.94,52.62L61.04,52.94L61.19,52.1L61.19,188.09L61.34,188.28L61.34,52.28L61.65,52.65L61.65,66.25L61.8,65.28L61.95,65.34L61.95,51.74L62.25,53.55L62.25,203.14L62.4,203.95L62.4,67.96L62.55,67.56L62.7,68.59L62.86,68.15L62.86,95.35L63.01,95.83L63.01,82.23L63.16,81.99L63.31,82.52L63.31,96.12L63.46,96.57L63.46,232.57L63.61,233.4L63.61,206.2L63.76,207L63.76,71.01L64.06,70.59L64.06,206.58L64.22,206.8L64.22,193.2L64.37,192.54L64.37,56.55L64.52,56.73L64.52,70.33L64.67,74.94L65.12,69.83L65.27,74.5L65.27,210.5L65.57,195.92L65.73,196.06L65.73,60.06L65.88,57.06L65.92,72.09L66.03,75.18L66.48,78.4L66.48,92L66.78,94.91L66.83,93.43L66.93,90.21L66.93,76.62L67.39,236.5L67.59,83.95L67.69,86.18L67.84,88.22L67.99,81.5L67.99,95.1L68.14,97.45L68.34,92.98L68.45,89.8L68.6,97.4L68.9,92.2L68.9,228.19L69.2,229.84L69.35,223.59L69.35,87.6L69.65,92.84L69.81,88.69L69.81,75.09L70.11,74.88L70.16,75.19L70.26,75.85L70.56,77.36L70.86,70.41L71.06,71.82L71.17,74.14L71.77,53.22L72.12,54.6L72.22,54.52L72.83,52.96L73.03,53.9L73.13,54.02L73.58,54.2L73.78,53.76L73.89,53.39L74.04,67.72L74.64,53.63L74.69,53.72L74.79,53.91L74.94,53.34L75.09,53.53L75.09,67.13L75.24,67.19L75.29,66.92L75.4,66.35L75.85,67.25L76,66.17L76.15,66.45L76.2,66.3L76.3,65.96L76.3,79.56L76.45,79.69L76.45,202.09L76.6,201.99L76.65,202.69L76.76,204.23L76.91,204.36L76.91,68.37L77.21,70.33L77.21,56.73L77.36,56.54L77.36,70.14L77.66,99.51L78.27,87.33L78.27,73.73L78.72,56.75L79.32,57.42L79.37,58.56L79.48,61.07L79.63,56.91L79.78,59.89L79.78,195.88L79.93,199.64L80.23,196.24L80.23,73.85L80.38,82.23L80.38,218.22L80.53,214.76L80.68,215.01L80.68,228.61L80.84,236.08L80.84,100.09L80.99,91.47L81.29,110.53L81.64,95.12L81.74,99.93L81.89,100.83L81.89,87.23L82.2,88.54L82.5,61.56L82.65,79.59L82.7,78.59L83.4,71.97L83.6,75.27L83.71,75.1L84.46,56.88L84.51,57.37L84.61,58.45L84.76,63.12L84.91,57.16L85.26,57.69L85.37,54.17L85.82,53.97L85.87,54.95L85.97,57.08L86.58,53.74L86.78,55.03L86.88,55.11L87.03,55.89L87.18,54.19L87.38,54.57L87.48,54.04L87.79,59.05L87.83,57.8L87.94,55.07L88.09,54.26L88.44,55.31L88.54,57.15L88.69,54.14L88.84,54.78L88.84,68.38L89.15,67.57L89.3,68.49L89.3,54.89L89.45,56.94L89.6,54.08L89.95,54.53L90.05,54.47L90.2,53.89L90.2,67.49L90.35,70.26L90.35,206.26L90.51,204.96L90.51,68.96L90.66,67.29L90.66,189.68L90.81,189.53L90.85,189.9L90.96,190.7L91.11,67.46L91.71,221.46L91.71,221.46L91.76,222.82L91.87,225.81L92.02,225.11L92.02,75.51L92.17,77.18L92.17,226.77L92.32,223.55L92.52,235.06L92.62,238.75L92.77,217.82L92.77,109.02L92.92,112.71L92.97,98.46L93.07,97.02L93.53,125.15L93.57,108.14L93.68,100.57L94.13,102.21L94.43,75.97L94.43,75.97L94.48,75.62L94.58,74.85L94.63,77.2L94.74,82.41L94.89,85.42L95.04,84.23L95.04,70.63L95.19,67.83L95.19,81.43L95.34,81.33L95.34,81.33L95.39,79.77L96.1,72.42L96.14,74.66L96.25,79.62L96.25,66.02L97,73.39L97.05,74.7L97.15,77.6L97.61,73.5L97.61,73.5L97.65,68.35L97.76,56.9L98.06,74.94L98.36,70.22L98.41,70.96L98.82,77.28L98.97,73.48L98.97,87.08L99.12,88.88L99.12,75.28L100.02,67.83L100.02,67.83L100.07,67.39L100.18,66.4L100.33,66.57L100.33,52.97L100.78,52.84L100.83,53.08L100.93,53.6L101.23,52.91L101.43,53.48L101.54,54.42L101.54,190.41L102.29,66.85L102.34,67.07L102.59,67.72L102.59,54.12L102.9,52.97L103.5,53.27L103.55,53.48L103.65,53.93L103.8,53.17L103.95,53.23L103.95,189.22L104.1,191.6L104.1,55.61L104.86,52.99L105.01,53.1L105.06,53.5L105.46,52.24L105.51,55.09L105.61,61.47L105.77,84.33L106.07,71.51L106.07,207.5L106.22,206.25L106.37,206.34L106.37,70.35L106.67,70.74L106.67,97.94L107.43,124.22L107.43,97.02L107.58,102.41L107.58,238.41L107.73,247.63L107.88,222.23L108.03,223.58L108.03,87.59L108.18,86.58L108.33,89.81L108.38,87.21L108.49,81.39L109.09,82.66L109.24,59.32L109.54,67.73L109.54,81.33L109.69,76.26L109.89,92.68L110,93.39L110.3,259.4L110.75,109.8L110.8,108.69L111.51,89.56L111.71,90.48L111.81,92.53L112.41,73.02L112.46,73.08L112.57,73.22L112.87,72.55L113.17,73.41L113.22,73.16L113.32,72.59L113.62,73.5L113.77,73.22L113.82,68.33L114.53,53.37L114.68,53.67L114.73,53.5L114.98,52.9L115.13,53.71L115.48,53.52L115.59,53.78L115.89,52.83L115.89,188.82L116.19,189.23L116.19,53.24L116.49,52.53L116.54,52.84L116.64,53.54L117.1,53.25L117.25,54.21L117.3,53.86L117.4,53.07L117.55,52.36L117.85,54.05L118.16,52.75L118.2,52.96L118.31,53.44L118.61,52.37L118.91,53.09L118.96,52.9L119.52,52.27L119.52,65.87L119.67,65.21L119.82,65.88L119.82,188.28L119.97,188.57L119.97,202.16L120.12,202.7L120.12,66.7L120.62,69.9L120.72,71.25L120.88,70.87L121.37,88.09L121.48,89.23L121.63,120.21L122.08,96.87L122.13,92.69L122.54,96.95L122.84,79.76L122.99,82.84L122.99,96.44L123.14,96.73L123.19,95.36L123.29,92.23L123.59,70.94L123.9,71.99L123.9,85.59L124.05,88.51L124.2,87.83L124.2,74.23L124.35,71.53L124.5,76.72L124.5,90.32L124.65,85.47L125,89.47L125.11,95.3L125.56,79.29L125.56,215.29L125.86,192.07L125.91,193.02L126.01,195.18L126.01,59.19L126.31,55.47L126.81,56.85L126.92,58.19L127.52,55.37L127.72,56.05L127.83,56.39L129.19,53.18L129.23,53.48L129.34,54.16L130.09,52.31L130.24,52.54L130.29,52.71L130.7,52.08L131,53.55L131.15,53.17L131.2,52.94L131.45,53.54L131.75,52.02L132.1,52.12L132.21,51.72L133.11,51.79L133.11,51.79L133.16,51.66L133.27,51.37L133.27,187.36L133.42,187.14L133.57,187.65L133.57,51.65L133.87,50.54L133.87,186.53L134.02,187.2L134.02,200.8L134.17,200.66L134.17,64.66L134.52,64.46L134.62,65.19L134.78,68.02L134.93,67.04L134.93,203.03L135.23,203.75L135.23,67.75L135.43,74.63L135.53,84.97L135.53,71.37L136.18,211.74L136.29,211.86L136.44,102.5L137.04,110.32L137.09,111.69L137.19,114.85L137.34,111.15L137.5,113.95L137.5,100.35L137.65,98.01L137.8,104.32L137.8,240.32L138.4,225.96L138.55,228.91L138.55,92.92L138.7,89.96L139.01,96.08L139.01,82.48L140.26,60.9L140.37,60.26L141.42,75.02L141.47,74.07L141.58,71.86L142.18,71.14L142.23,71.45L142.33,72.16L142.94,72L142.98,72.12L143.09,72.42L143.84,68.87L143.89,69.04L143.99,69.45L144.14,69.98L144.45,68.79L144.64,69.42L144.75,68.92L145.05,69.44L145.35,67.66L145.55,68.34L145.65,68.43L145.96,67.86L146.26,68.89L146.26,68.89L146.3,63.63L146.56,50.16L147.06,50.82L147.17,51.06L147.32,51.43L147.51,50.42L147.62,49.49L147.77,51.24L147.92,51.21L147.92,64.81L148.53,62.77L148.68,64.01L148.68,50.41L149.13,49.94L149.43,53.24L149.43,189.23L149.58,189.01L149.58,66.61L149.73,65.91L150.04,67.39L150.08,67.37L150.19,67.32L150.49,234.77L150.94,81.78L150.99,81.89L151.09,82.15L151.09,68.55L151.25,67.79L151.29,68.73L151.4,70.93L151.4,206.92L152,54.36L152.15,70.76L152.2,69.91L152.3,67.91L152.45,72.32L152.45,208.31L152.61,204.58L152.76,207.96L152.76,71.97L152.91,69.66L152.91,56.06L153.21,57.95L153.21,71.55L153.51,88.34L153.66,87.18L153.66,223.18L153.81,220.69L153.96,224.36L154.12,220.92L154.12,98.52L154.27,103.87L154.46,84.56L154.57,84.11L155.02,68.86L155.52,69.07L155.63,68.62L155.93,68.36L155.93,68.36L155.97,69.25L156.08,84.93L156.38,81.93L156.38,68.33L156.58,68.69L156.68,69.39L156.99,68.41L156.99,82.01L157.14,81.99L157.18,82.31L157.29,83.06L158.04,65.47L158.04,65.47L158.09,65.66L158.35,66.69L158.5,65.67L158.5,52.07L158.8,52.46L159.1,51.7L159.15,51.87L159.25,52.28L160.16,51.38L160.2,51.59L160.31,52.07L161.11,50.81L161.22,50.57L161.41,51.1L161.52,52.01L161.82,50.25L161.82,63.85L162.12,64.97L162.28,63.56L162.43,64.73L162.43,51.13L162.58,51.3L162.73,50.53L162.73,186.52L162.88,186.04L162.88,50.05L163.03,50.92L163.03,64.52L163.33,63.72L163.33,77.32L163.79,79.91L163.79,66.31L164.24,67.04L164.24,53.44L164.39,53.22L164.54,53.39L164.54,189.38L164.69,191.03L164.69,204.63L164.84,204.29L164.84,68.3L165.49,70.56L165.6,73.74L165.9,54.43L166.35,71.32L166.4,70.22L166.51,67.62L166.66,71.38L166.66,98.58L166.81,95.03L166.96,97.75L166.96,111.35L167.11,112.18L167.26,110L167.56,111.78L167.56,98.18L167.71,96.49L167.87,98.51L167.87,84.91L168.17,81.16L168.17,94.76L168.32,99.82L168.47,83.8L168.62,84.17L168.62,70.57L168.77,70.19L168.82,71.82L168.92,75.67L169.07,68.34L169.38,73.82L169.38,209.82L169.53,191.65L169.68,193.56L169.68,57.57L170.28,55.17L170.48,55.9L170.59,56.75L170.89,54.13L171.19,57.97L171.49,54.21L171.54,54.45L171.79,55.21L172.14,54.3L172.25,53.62L173,51.57L173.15,51.63L173.2,51.83L173.3,52.3L173.61,51.45L173.91,51.93L173.95,51.71L174.21,50.81L174.71,51.43L174.82,51.84L175.62,50.75L175.72,50.39L176.48,52.17L176.63,51.13L176.67,50.93L176.78,50.43L176.78,64.03L177.08,65.18L177.23,64.3L177.23,50.7L177.54,51.32L177.84,49.99L177.84,63.59L178.29,65.47L178.29,65.47L178.34,65.81L179.2,68.59L179.35,67.91L179.39,68.06L179.5,68.4L179.5,82L179.65,82.33L179.65,218.33L179.8,217.98L179.8,68.38L179.95,68.31L180,68.6L180.1,69.31L180.1,82.91L180.41,68.34L180.75,70.72L180.86,68.42L181.01,71.6L181.46,69.09L181.46,205.09L181.66,205.77L181.77,207.29L181.92,205.24L181.92,55.64L182.52,54.49L182.67,70.91L182.97,70.75L182.97,206.74L183.28,208.26L183.43,203.97L183.43,67.97L183.58,70.54L183.58,56.94L183.58,56.94L183.62,56.34L184.03,56.61L184.49,53.87L184.49,67.47L184.64,70.16L185.29,68.75L185.39,68.58L185.54,68.25L185.54,54.65L185.89,55.21L186,56.99L186.45,54.73L186.6,55.13L186.6,68.73L187.05,65.29L187.55,65.75L187.66,66.06L187.81,66.1L187.81,52.5L188.57,51.12L188.72,51.79L188.76,51.8L189.02,52.14L189.06,51.89L189.17,51.26L189.77,52.91L189.97,52.1L190.08,51.17L190.83,52.33L191.03,51.82L191.13,51.31L191.29,51.21L191.33,51.46L191.44,52.09L192.34,49.29L192.39,49.79L192.49,51.02L192.95,79.27L193.14,69.95L193.25,69.88L194,241.14L194,241.14L194.05,242.16L194.31,244.88L194.31,95.28L194.76,114.26L194.91,96.15L194.91,82.55L195.06,85.2L195.21,84.18L195.21,97.78L195.36,97.8L195.36,97.8L195.41,94.81L195.52,87.54L195.67,107.15L196.16,89.25L196.27,91.26L196.27,77.66L196.57,100.11L196.92,79.41L197.03,71.99L197.33,74.69L197.48,67.07L197.48,203.07L197.63,200L197.78,200.47L197.78,64.48L197.93,64.43L197.93,200.43L198.08,197.41L198.39,204.65L198.39,68.65L198.54,58.54L198.99,74.07L199.03,72.98L199.14,70.33L199.44,71.96L199.49,71.01L199.6,68.72L199.75,69.55L199.9,69.17L199.9,55.57L200.05,58.02L200.55,55.06L200.65,54.94L200.8,56.06L201.15,55.04L201.26,53.54L201.56,52.33L201.75,52.84L201.86,53.39L202.77,52.15L202.81,52.4L202.92,53.02L203.67,52.13L203.72,52.23L203.83,52.47L204.28,52.19L204.43,52.9L204.58,52.59L204.63,52.3L205.03,52.91L205.49,51.34L205.49,51.34L205.53,51.58L205.64,52.17L205.79,51.92L205.79,65.52L206.09,64.8L206.24,64.92L206.24,200.91L206.39,200.12L206.39,64.12L206.55,64.28L206.55,50.68L207.04,53.95L207.15,61.47L207.3,73.67L207.75,72.74L207.75,208.73L207.91,214.89L207.91,78.89L208.96,129.11L209.01,125.71L209.11,117.35L209.42,111.98L209.72,114.89L209.76,119.55L209.87,131.03L210.17,103.85L210.17,239.84L210.63,239.15L210.78,257.27L210.78,121.28L210.93,124.21L211.08,118.1L211.23,118.71L211.23,105.11L211.38,111.7L211.68,93.29L211.83,105.05L211.83,91.45L211.99,96.12L212.03,81.72L212.14,79.75L213.04,60.15L213.24,66.09L213.34,73.83L213.99,100.77L214.1,101.9L214.55,102.01L215.16,85.24L215.16,71.64L215.31,73.93L215.31,87.53L216.22,82.67L216.26,82.94L216.37,83.59L216.52,83.91L216.67,82.75L216.67,69.15L216.97,69.65L217.17,69.16L217.27,68.58L218.03,69.82L218.18,69.36L218.22,69.32L218.33,69.21L218.33,69.21L218.37,64.6L219.09,51.79L219.24,51.91L219.28,51.93L219.54,53.2L219.73,52.26L219.84,51.66L220.3,51.39L220.6,52.28L220.64,52.15L220.75,51.83L220.9,51.69L220.9,187.68L221.05,189.27L221.2,188.79L221.2,52.79L221.5,51.67L221.55,54.22L221.66,60.56L222.71,87.05L222.71,87.05L222.76,86L222.86,83.38L223.01,84.02L223.01,233.62L223.32,233.08L223.47,247.91L223.47,125.51L224.37,82.9L224.53,86.56L224.53,222.55L224.83,214.82L224.83,78.83L224.98,72.66L225.13,91.37L225.13,104.97L225.43,87.94L225.58,100.79L225.63,105.31L225.89,126.42L226.23,97.17L226.34,94.52L227.09,72.05L227.09,72.05L227.14,70.45L227.4,78.33L228.2,57.34L228.3,56.43L228.45,56.15L228.5,57.09L228.61,59.47L228.76,55.06L229.25,59.35L229.36,63.2L229.81,55.08L230.12,72.55L230.16,71.05L230.27,67.28L230.87,65.74L231.02,66.95L231.07,66.93L231.37,66.86L231.48,66.29L232.08,51.73L232.23,52.16L232.27,52.22L232.68,51.71L232.99,52.88L233.03,52.66L233.14,52.08L233.44,52.9L233.74,51.73L233.74,51.73L233.79,51.58L234.2,52.78L234.8,50.48L234.84,50.54L234.95,50.7L235.25,52.35L235.56,50.27L235.86,51.67L235.9,51.51L236.16,50.28L236.2,51.1L236.31,53.16L236.92,78.11L236.92,214.1L237.07,225.78L237.07,89.79L237.22,89.89L237.22,103.48L237.37,103.29L237.37,252.88L237.67,255.61L237.67,269.21L237.82,269L237.82,255.4L237.97,260.12L238.12,256.22L238.12,120.23L238.28,123.35L238.43,115.44L238.43,101.84L238.73,79.88L238.92,85.56L239.03,93.47L240.09,107.34L240.13,106.26L240.24,103.54L240.54,90.87L241,101.02L241.04,103.9L241.15,111.18L241.75,104.17L241.79,103.55L242.05,104.38L242.1,98.57L242.2,83.87L242.51,74.2L243,78.1L243.11,79.42L243.26,73.41L243.91,74.39L244.02,76.65L245.07,69.65L245.12,69.99L245.23,70.85L245.68,70.44L245.83,70.7L245.87,68.08L246.59,52.49L246.78,52.83L246.89,52.48L247.19,51.92L247.49,53.32L247.69,52.98L247.79,52.9L248.29,51.85L248.4,51.47L248.7,52.47L248.7,66.06L249,65.27L249.15,66.01L249.15,52.41L250.25,50.54L250.36,50.05L250.51,50.03L250.97,203.26L251.01,68.02L251.12,69.94L251.57,73.76L251.72,73.26L251.77,77.45L252.18,129.36L252.52,111.54L252.63,112.11L253.23,70.97L253.38,73.64L253.43,70.89L253.84,61.01L254.18,64.67L254.29,66.25L254.44,218.12L254.94,80.2L255.05,76.59L255.65,245.88L255.8,104.71L255.84,106.93L255.95,112.63L256.1,94.47L256.1,80.87L256.26,76.62L256.26,212.61L256.41,233.37L256.56,227.17L256.56,91.18L256.71,91.01L256.71,91.01L256.75,89.62L257.01,90.4L257.16,84.81L257.51,88.18L257.62,85.86L257.77,86.33L257.77,72.73L258.07,71.98L258.37,75.92L258.52,72.85L258.56,72.56L258.72,69.18L258.82,62.36L259.58,52.28L259.77,52.84L259.88,53.34L260.64,52.13L260.83,52.43L260.94,53L261.24,52.28L261.74,52.77L261.85,53.25L262.15,53.99L262.19,53.76L262.3,53.18L262.75,53.2L262.79,52.78L262.9,51.71L263.66,53.39L263.7,53.19L263.81,52.66L264.11,51.67L264.26,52.37L264.26,65.97L264.41,66.15L264.72,65.55L264.72,201.54L264.87,202.95L264.87,66.96L265.02,66.17L265.02,52.57L265.36,54.38L265.47,54.85L265.93,55.35L265.93,191.34L266.08,191.64L266.23,190.42L266.23,54.43L266.38,54.86L266.38,54.86L266.42,57.4L266.83,54.61L267.13,71.2L267.33,69.97L267.44,71.88L267.44,85.48L268.04,69L268.19,72.88L268.23,72.07L268.34,69.96L268.34,219.56L268.49,221.67L268.49,208.07L268.65,207.07L268.65,84.67L268.8,84.29L268.8,233.89L269.1,232.56L269.25,237.17L269.25,87.58L269.85,60.24L270.01,77.35L270.05,80.83L270.95,107.81L271.06,114.58L271.52,71.79L271.71,73.49L271.82,71.37L272.42,75.29L272.62,72.67L272.72,72.24L272.88,72.08L272.88,72.08L272.92,68.93L273.18,55.26L273.48,58.81L273.48,194.8L273.93,188.18L273.93,52.19L274.69,53.54L274.73,53.45L274.84,53.2L274.99,52.57L275.29,53.58L275.64,53.01L275.75,52.95L275.9,53.57L276.05,52.4L276.54,53.18L276.65,52.84L278.05,52.27L278.16,51.59L278.47,52.87L278.66,51.99L278.77,51.45L279.22,52.54L279.26,52.26L279.37,51.51L279.98,68.03L280.02,54.73L280.13,55.49L280.28,55.25L280.28,68.84L280.43,72.17L280.43,208.16L280.58,234.21L280.73,226.67L280.73,90.67L281.49,68.98L281.53,70.05L281.64,72.86L282.09,69.42L282.44,71.28L282.55,74.17L282.7,68.97L282.85,73.75L282.85,209.75L283,207.03L283.15,207.43L283.15,71.44L283.3,73.8L283.3,87.4L283.45,83.09L283.6,100.75L283.6,100.75L283.65,102.3L283.75,106.38L283.75,242.37L283.91,237.5L284.06,242.65L284.06,120.26L284.66,72.63L284.96,78.89L284.96,92.49L285.31,74.85L285.42,70.08L286.32,73.17L286.32,73.17L286.36,72.11L287.08,69.29L287.12,69.43L287.23,69.8L287.38,72.64L287.53,68.81L287.88,69.71L287.99,69.03L288.14,16L288.74,53.46L288.78,53.23L289.5,52.06L289.69,52.28L289.8,52.6L289.95,52.69L289.99,52.38L290.1,51.56L290.71,51.1L291.01,52.36L291.16,52.23L291.2,52.22L291.46,52.88L291.65,52.36L291.76,51.7L292.11,51.42L292.22,50.68L292.67,51.97L293.27,51.8L293.32,51.55L294.03,49.97L294.18,50.35L294.18,77.55L294.48,84.08L294.48,97.68L294.63,97.53L295.09,129.99L295.39,116.75L295.43,112.59L295.54,101.52L295.54,237.51L295.69,235.95L295.84,236.38L295.84,86.79L295.99,86.83L295.99,86.83L296.03,87.67L296.14,89.92L296.14,239.51L296.45,225.72L296.45,89.72L297.35,73.14L297.35,195.54L297.5,197.49L297.66,196.69L297.66,60.7L298.26,80.5L298.3,75.52L298.41,62.2L298.71,67.83L298.71,81.43L299.17,94.79L299.62,90.76L299.66,89.99L300.22,93.55L300.27,78.86L300.38,75.92L300.53,72.7L300.68,77.07L301.17,74.76L301.28,73.38L301.43,73.13L301.43,73.13L301.47,78.06L301.58,91.29L301.89,73.56L302.08,74.65L302.19,72.47L302.49,73.14L302.64,72.14L302.64,72.14L302.68,71.91L303.55,69.61L303.7,69.94L303.74,65.54L304.3,53.12L304.5,53.39L304.61,53.37L305.36,52.17L305.4,52.26L305.51,52.52L305.66,52.88L305.86,52.05L305.97,51.3L306.12,51.91L306.42,51.17L306.42,187.16L306.57,186.84L306.57,64.45L306.72,65.41L306.87,64.83L306.87,51.23L307.22,50.22L307.33,49.57L307.78,51.33L308.27,50.81L308.38,50.48L308.38,186.48L308.69,49.22L309.03,60.01L309.14,69.33L309.29,68.94L309.33,69.94L309.44,72.63L309.59,73.76L309.59,209.76L309.74,224.81L309.89,224.15L309.89,88.16L310.2,90.24L310.2,103.84L310.54,123.36L310.65,134.01L311.25,77.17L311.29,77.93L311.41,79.98L311.56,77L311.56,212.99L311.71,214.07L311.71,241.27L312.01,225.12L312.01,89.13L312.16,93.91L312.46,89.57L312.46,75.97L312.61,82.33L312.76,80.5L312.76,230.1L312.92,226.81L313.11,231.5L313.22,238.44L313.97,70.95L313.97,70.95L314.01,69.37L314.73,56.64L314.73,192.63L314.88,194.84L315.18,190.5L315.18,54.51L315.33,60.55L315.98,56.54L316.09,54.75L316.24,54.59L316.39,54.78L316.39,81.98L316.54,82.03L316.58,81.81L316.69,81.19L317,82.42L317.19,81.48L317.3,79.71L317.45,79.32L317.45,65.72L317.6,65.89L317.75,65.45L318.05,65.48L318.05,51.88L318.2,52.13L318.36,51.22L318.51,51.24L318.55,51.19L318.81,51.13L318.85,51.36L318.96,52.01L319.41,51.05L319.56,51.86L319.6,52.01L319.72,52.42L320.06,51.48L320.17,50.97L320.32,52.87L320.96,51.91L321.08,51.39L321.57,51.6L321.68,50.79L322.13,50.85L322.13,186.84L322.28,185.8L322.43,186.4L322.43,50.41L322.59,49.84L322.74,50.69L323.04,50.07L323.04,63.67L323.19,63.26L323.34,64.83L323.34,64.83L323.38,65.23L323.53,70.16L323.64,80.65L324.25,84.82L324.55,84.12L324.55,220.12L324.7,209.73L325.15,227.61L325.15,91.62L325.31,75.19L325.91,77.8L325.91,91.4L326.21,86.62L326.21,73.03L326.36,71.48L326.55,75.21L326.67,76.41L326.82,72.29L327.42,114.27L327.42,114.27L327.46,113.73L327.72,111.68L327.72,98.08L327.87,43.2L328.52,65.62L328.63,64.43L329.54,54.41L329.69,54.68L329.73,55.6L329.84,58.13L329.99,54.85L330.44,55.77L330.48,55.53L330.59,54.87L330.63,56.18L330.75,59.78L330.9,54.12L331.24,69.25L331.35,70.58L331.5,70.53L331.5,70.53L331.54,66.61L332.1,52.27L332.3,53.57L332.41,55.87L332.56,51.9L333.2,53.57L333.31,55.32L333.92,51.91L333.96,52.82L334.07,55.32L334.98,51.97L334.98,51.97L335.02,52.24L335.43,52.02L335.73,54.38L335.77,53.89L335.88,52.55L336.18,52.65L336.49,52.07L336.53,52.25L336.64,52.76L337.24,53.53L337.28,53.06L337.39,51.74L337.58,52.04L337.7,52.79L338.6,58.1L338.64,57.83L338.75,57.06L338.9,56.24L339.06,59.42L339.06,209.01L339.21,204.57L339.21,68.58L339.51,72.03L339.51,58.44L339.96,60.04L340.11,56.24L340.15,57.37L340.26,60.52L340.72,211.9L340.91,207.79L341.02,213.8L341.02,227.4L341.17,74.3L341.77,88.5L341.81,89.15L342.08,95.85L342.23,89.05L342.23,75.45L342.38,78.45L342.68,77.67L342.68,64.07L342.83,73.13L342.98,62.34L343.33,63.1L343.44,57.51L343.59,60.46L343.89,56.89L344.08,57.5L344.19,56.11L344.34,61.73L344.49,55.24L344.84,59.74L344.95,55.23L345.1,55.67L345.1,191.67L345.25,195.14L345.55,190.96L345.7,191.64L345.7,55.64L345.85,55.95L346.01,55.35L346.2,55.27L346.31,54.07L346.61,51.95L347.1,52.44L347.21,52.68L347.37,53.35L348.01,53.07L348.12,52.84L348.57,51.89L348.88,52.71L348.92,52.78L349.18,52.15L349.48,52.81L349.52,52.55L349.63,51.81L350.09,52.29L350.39,51.08L350.43,51.31L350.54,51.97L350.69,51.75L350.69,65.35L350.84,65.98L350.99,65.31L350.99,51.71L351.14,16L351.29,51.85L351.64,51.81L351.75,51.92L351.9,51.12L351.9,187.12L352.2,185.18L352.2,49.19L352.5,53.55L352.5,67.15L353.15,67.45L353.26,68.97L353.41,55.06L354.01,71.46L354.01,71.46L354.05,70.98L354.16,69.65L354.16,56.05L354.32,55.49L354.47,57.35L354.66,56.3L354.77,58.12L354.92,194.16L355.07,29.6L355.52,73.16L355.56,71.98L355.83,74.54L355.98,56.39L356.13,59.71L356.13,73.31L356.58,76.39L356.88,75.17L356.88,211.17L357.04,229.89L357.04,80.3L357.19,77.18L357.34,84.84L357.34,112.04L358.13,75.91L358.24,29.6L358.4,85.33L358.55,16L358.89,29.6L359,29.6L360.06,29.6L360.06,16L360.51,73.57L360.85,70.62L360.96,70.12L361.11,70.25L361.31,69.87L361.42,69.49L361.57,71.61L361.87,67.96L361.87,67.96L361.91,64.03L362.47,52.17L362.67,52.94L362.78,52.75L363.23,51.66L363.53,52.36L363.57,52.56L363.68,53.14L364.14,52.13L364.14,188.12L364.29,188.31L364.44,187.6L364.44,51.61L365.04,51.38L365.35,52.78L365.38,52.56L365.5,51.91L365.65,50.77L365.95,52.07L365.95,65.67L366.1,64.73L366.1,51.13L366.25,50.31L366.4,50.5L366.4,186.5L366.55,187.54L366.55,51.55L366.71,50.56L367.01,52.48L367.01,66.08L367.46,67.95L367.46,54.35L367.65,53.58L367.91,54.01L367.91,67.61L368.07,67.75L368.07,203.75L368.22,202.79L368.37,203.48L368.37,53.89L368.67,55.58L368.82,54.49L368.86,44.52L368.97,16L369.46,69.56L369.58,73.27L370.03,68.34L370.18,74.74L370.37,70.31L370.48,72.43L370.63,73.64L370.63,60.04L370.78,54.94L371.24,62.31L371.39,57.46L371.43,58.46L372.3,90.78L372.9,87.5L372.94,87.39L373.05,87.06L373.2,88.32L373.2,74.72L373.35,75.59L373.35,211.58L373.5,208.83L373.66,208.9L373.66,72.91L373.81,89L374.15,84.45L374.26,78.13L374.56,69.86L374.86,74.2L374.86,87.8L375.02,92.86L375.02,215.25L375.32,203.63L375.32,67.63L375.62,68.94L375.92,66.12L376.11,66.59L376.22,67.48L376.87,43.29L376.98,16L377.58,54.77L377.77,53.72L377.89,52.39L378.49,53.01L378.64,52.36L378.64,65.96L378.79,65.4L379.1,65.8L379.1,52.2L379.4,51.47L379.44,51.75L379.55,52.56L379.85,51.82L380.04,52.33L380.15,52.57L380.46,51.24L380.46,51.24L380.49,42.19L380.61,16L380.76,52.06L381.1,50.89L381.21,51.01L381.51,53.53L381.51,189.53L381.66,189.9L381.81,189.26L381.81,53.27L382.12,53.28L382.27,53.66L382.27,94.45L382.42,95.78L382.57,95.55L382.57,81.95L382.72,81.86L382.72,204.26L382.87,203.38L383.17,204.96L383.17,68.97L383.33,71.32L383.33,207.32L383.48,205.97L383.48,219.57L383.63,219.9L383.63,83.9L383.78,81.93L383.97,87.01L384.08,91.86L384.08,214.25L384.38,56.8L384.72,56.8L384.84,56.8L385.14,56.8L385.14,43.2L385.29,43.2L385.29,29.6L385.59,29.6L385.59,16L386.05,16L386.05,16L386.08,28.85L386.65,101.66L386.99,98.25L387.1,98.14L387.25,95.99L387.25,82.39L387.41,87.33L387.6,70.9L387.71,70.11L387.86,70.86L388.01,70.21L388.01,192.6L388.16,192.57L388.2,192.91L388.31,193.88L388.46,192.07L388.46,56.08L388.61,55.54L388.65,56.44L388.77,59.06L389.41,45.62L389.52,16L389.67,55.49L390.31,53.34L390.43,52.93L391.18,52.27L391.22,52.52L391.33,53.25L391.64,52.11L392.13,52.55L392.24,52.79L392.84,53.49L393,53.2L393.03,52.92L393.15,52.1L393.15,188.09L393.45,188.65L393.45,52.65L394.05,52.87L394.2,51.26L394.24,51.42L394.36,51.9L395.15,51.43L395.26,51.39L395.87,71.65L395.9,61.4L396.02,71.22L396.62,74.69L396.62,74.69L396.66,77.7L397.08,120.38L397.26,110.59L397.38,97.51L397.53,56.04L398.17,58.1L398.28,58.42L398.74,228.36L398.93,84.17L399.04,87.07L399.19,69.67L399.34,74.71L399.34,224.3L399.49,219.05L399.64,222.42L399.64,72.83L399.83,71.83L399.95,69.78L400.1,210.04L400.55,57.1L400.7,73.53L400.74,77.61L401.15,93.97L401.61,93.17L401.65,92.21L401.91,88.57L401.91,224.56L402.06,228.69L402.1,223.36L402.21,207.61L402.21,71.62L402.86,71.78L402.97,71.35L403.42,74.91L403.46,73.92L403.57,70.99L404.18,72.13L404.21,71.67L404.33,70.3L404.48,69.91L404.48,83.51L405.12,79.24L405.23,71.1L406.03,42.46L406.14,16L406.29,52.26L406.93,51.63L407.05,51.46L407.35,52.47L407.65,51.18L407.84,51.88L407.95,51.45L408.11,51.22L408.26,52.05L408.26,52.05L408.29,42.98L409.16,16L409.16,16L409.2,16L409.47,16L409.47,29.6L409.92,29.6L409.92,16L410.52,16L410.52,16L410.56,30.02L410.98,224.29L411.32,88.14L411.43,88.61L411.58,93.03L412.03,92.5L412.03,228.49L412.64,212.28L412.64,76.28L412.79,79.95L412.83,63.92L412.94,16L413.09,231.15L413.58,73.53L413.7,71.72L413.85,73.35L413.85,59.75L414,56.6L414.34,62.92L414.45,68.31L414.6,58.27L414.75,69.59L414.9,59.35L414.9,208.95L415.06,222.91L415.21,208.68L415.36,219.71L415.36,97.32L416.57,68.66L416.6,69.39L416.72,71.59L417.02,67.82L417.02,54.22L417.21,55.54L417.32,58.47L418.08,53.9L418.12,54.15L418.23,54.89L418.38,55.47L418.72,54.07L418.83,53.39L419.59,50.93L419.59,64.53L419.74,65.43L420.38,65.01L420.49,64.61L420.65,64.16L420.65,50.56L420.95,51.76L421.59,51.45L421.7,51.11L421.85,52.2L422.31,50.63L422.46,51.38L422.5,51.12L423.06,51.87L423.37,50.23L423.37,63.83L423.67,64.28L423.86,63.83L423.97,63.29L424.12,62.57L424.12,48.97L424.91,54.6L425.03,63.18L425.48,217.45L425.78,80.74L425.82,80.95L426.09,82.45L426.09,96.05L426.39,99.96L426.39,235.95L426.54,233.95L426.54,97.95L426.69,97.08L426.84,99.72L426.84,86.12L427.6,59L427.63,63.09L427.75,75.47L427.75,211.46L428.2,73.74L428.5,84.18L428.54,82.8L428.65,92.21L428.96,73.36L429.14,88.38L429.26,87.73L429.41,94.97L429.75,79.19L429.86,71.38L430.47,57.64L430.47,207.23L430.5,207.22L430.62,207.2L430.77,211.14L430.77,75.15L431.41,61.34L431.52,29.6L431.98,68.57L432.43,68.1L432.47,68.25L432.58,68.68L432.73,67.72L433.07,68.16L433.19,67.88L433.34,66.05L433.34,52.45L433.79,50.9L434.24,51.71L434.28,51.87L434.4,52.37L434.55,52.18L434.58,43.26L435,16L435,16" style="vector-effect: non-scaling-stroke; fill: none; stroke: rgb(0, 128, 0); stroke-opacity: 1; stroke-width: 2px; opacity: 1;"/></g><g class="points"/><g class="text"/></g></g></g><g class="overplot"/><path class="xlines-above crisp" d="M0,0" style="fill: none;"/><path class="ylines-above crisp" d="M0,0" style="fill: none;"/><g class="overlines-above"/><g class="xaxislayer-above"><g class="xtick"><text text-anchor="middle" x="0" y="433" transform="translate(152.53,0)" style="font-family: 'Open Sans', verdana, arial, sans-serif; font-size: 12px; fill: rgb(42, 63, 95); fill-opacity: 1; white-space: pre; opacity: 1;"><tspan class="line" dy="0em" x="0" y="433">Nov 6</tspan><tspan class="line" dy="1.3em" x="0" y="433">2022</tspan></text></g><g class="xtick"><text text-anchor="middle" x="0" y="433" style="font-family: 'Open Sans', verdana, arial, sans-serif; font-size: 12px; fill: rgb(42, 63, 95); fill-opacity: 1; white-space: pre; opacity: 1;" transform="translate(254.06,0)">Nov 13</text></g><g class="xtick"><text text-anchor="middle" x="0" y="433" style="font-family: 'Open Sans', verdana, arial, sans-serif; font-size: 12px; fill: rgb(42, 63, 95); fill-opacity: 1; white-space: pre; opacity: 1;" transform="translate(355.6,0)">Nov 20</text></g><g class="xtick"><text text-anchor="middle" x="0" y="433" style="font-family: 'Open Sans', verdana, arial, sans-serif; font-size: 12px; fill: rgb(42, 63, 95); fill-opacity: 1; white-space: pre; opacity: 1;" transform="translate(457.13,0)">Nov 27</text></g></g><g class="yaxislayer-above"><g class="ytick"><text text-anchor="end" x="79" y="4.199999999999999" transform="translate(0,387.99)" style="font-family: 'Open Sans', verdana, arial, sans-serif; font-size: 12px; fill: rgb(42, 63, 95); fill-opacity: 1; white-space: pre; opacity: 1;">−100</text></g><g class="ytick"><text text-anchor="end" x="79" y="4.199999999999999" style="font-family: 'Open Sans', verdana, arial, sans-serif; font-size: 12px; fill: rgb(42, 63, 95); fill-opacity: 1; white-space: pre; opacity: 1;" transform="translate(0,333.59000000000003)">−80</text></g><g class="ytick"><text text-anchor="end" x="79" y="4.199999999999999" style="font-family: 'Open Sans', verdana, arial, sans-serif; font-size: 12px; fill: rgb(42, 63, 95); fill-opacity: 1; white-space: pre; opacity: 1;" transform="translate(0,279.19)">−60</text></g><g class="ytick"><text text-anchor="end" x="79" y="4.199999999999999" style="font-family: 'Open Sans', verdana, arial, sans-serif; font-size: 12px; fill: rgb(42, 63, 95); fill-opacity: 1; white-space: pre; opacity: 1;" transform="translate(0,224.8)">−40</text></g><g class="ytick"><text text-anchor="end" x="79" y="4.199999999999999" style="font-family: 'Open Sans', verdana, arial, sans-serif; font-size: 12px; fill: rgb(42, 63, 95); fill-opacity: 1; white-space: pre; opacity: 1;" transform="translate(0,170.4)">−20</text></g><g class="ytick"><text text-anchor="end" x="79" y="4.199999999999999" style="font-family: 'Open Sans', verdana, arial, sans-serif; font-size: 12px; fill: rgb(42, 63, 95); fill-opacity: 1; white-space: pre; opacity: 1;" transform="translate(0,116)">0</text></g></g><g class="overaxes-above"/></g></g><g class="polarlayer"/><g class="smithlayer"/><g class="ternarylayer"/><g class="geolayer"/><g class="funnelarealayer"/><g class="pielayer"/><g class="iciclelayer"/><g class="treemaplayer"/><g class="sunburstlayer"/><g class="glimages"/><defs id="topdefs-8cf8ed"><g class="clips"/><clipPath id="legend8cf8ed"><rect width="164" height="67" x="0" y="0"/></clipPath></defs><g class="layer-above"><g class="imagelayer"/><g class="shapelayer"/></g><g class="infolayer"><g class="legend" pointer-events="all" transform="translate(523.7,100)"><rect class="bg" shape-rendering="crispEdges" width="164" height="67" x="0" y="0" style="stroke: rgb(68, 68, 68); stroke-opacity: 1; fill: rgb(255, 255, 255); fill-opacity: 1; stroke-width: 0px;"/><g class="scrollbox" transform="" clip-path="url(#legend8cf8ed)"><g class="groups"><g class="traces" transform="translate(0,14.5)" style="opacity: 1;"><text class="legendtext" text-anchor="start" x="40" y="4.680000000000001" style="font-family: 'Open Sans', verdana, arial, sans-serif; font-size: 12px; fill: rgb(42, 63, 95); fill-opacity: 1; white-space: pre;">BESS</text><g class="layers" style="opacity: 1;"><g class="legendfill"/><g class="legendlines"><path class="js-line" d="M5,0h30" style="fill: none; stroke: rgb(0, 191, 255); stroke-opacity: 1; stroke-width: 2px;"/></g><g class="legendsymbols"><g class="legendpoints"/></g></g><rect class="legendtoggle" x="0" y="-9.5" width="158.71875" height="19" style="fill: rgb(0, 0, 0); fill-opacity: 0;"/></g><g class="traces" transform="translate(0,33.5)" style="opacity: 1;"><text class="legendtext" text-anchor="start" x="40" y="4.680000000000001" style="font-family: 'Open Sans', verdana, arial, sans-serif; font-size: 12px; fill: rgb(42, 63, 95); fill-opacity: 1; white-space: pre;">Solar</text><g class="layers" style="opacity: 1;"><g class="legendfill"/><g class="legendlines"><path class="js-line" d="M5,0h30" style="fill: none; stroke: rgb(255, 0, 0); stroke-opacity: 1; stroke-width: 2px;"/></g><g class="legendsymbols"><g class="legendpoints"/></g></g><rect class="legendtoggle" x="0" y="-9.5" width="158.71875" height="19" style="fill: rgb(0, 0, 0); fill-opacity: 0;"/></g><g class="traces" transform="translate(0,52.5)" style="opacity: 1;"><text class="legendtext" text-anchor="start" x="40" y="4.680000000000001" style="font-family: 'Open Sans', verdana, arial, sans-serif; font-size: 12px; fill: rgb(42, 63, 95); fill-opacity: 1; white-space: pre;">Grid Meter (Net Load)</text><g class="layers" style="opacity: 1;"><g class="legendfill"/><g class="legendlines"><path class="js-line" d="M5,0h30" style="fill: none; stroke: rgb(0, 128, 0); stroke-opacity: 1; stroke-width: 2px;"/></g><g class="legendsymbols"><g class="legendpoints"/></g></g><rect class="legendtoggle" x="0" y="-9.5" width="158.71875" height="19" style="fill: rgb(0, 0, 0); fill-opacity: 0;"/></g></g></g><rect class="scrollbar" rx="20" ry="3" width="0" height="0" x="0" y="0" style="fill: rgb(128, 139, 164); fill-opacity: 1;"/></g><g class="g-gtitle"><text class="gtitle" x="297.5" y="50" text-anchor="middle" dy="0em" style="font-family: 'Open Sans', verdana, arial, sans-serif; font-size: 17px; fill: rgb(42, 63, 95); opacity: 1; font-weight: normal; white-space: pre;"><tspan class="line" dy="0em" x="297.5" y="50">Scenario 1</tspan><tspan class="line" dy="1.3em" x="297.5" y="50">Microgrid Output</tspan><tspan class="line" dy="2.6em" x="297.5" y="50">From: November 01, 2022 to November 30, 2022</tspan></text></g><g class="g-xtitle"><text class="xtitle" x="297.5" y="476.409375" text-anchor="middle" style="font-family: 'Open Sans', verdana, arial, sans-serif; font-size: 14px; fill: rgb(42, 63, 95); opacity: 1; font-weight: normal; white-space: pre;">Time</text></g><g class="g-ytitle"><text class="ytitle" transform="rotate(-90,26.168750000000003,260)" x="26.168750000000003" y="260" text-anchor="middle" style="font-family: 'Open Sans', verdana, arial, sans-serif; font-size: 14px; fill: rgb(42, 63, 95); opacity: 1; font-weight: normal; white-space: pre;">Demand (kW)</text></g></g></svg>