<svg class="main-svg" xmlns="http://www.w3.org/2000/svg" xmlns:xlink="http://www.w3.org/1999/xlink" width="700" height="500" style="" viewBox="0 0 700 500"><rect x="0" y="0" width="700" height="500" style="fill: rgb(255, 255, 255); fill-opacity: 1;"/><defs id="defs-cc4be3"><g class="clips"><clipPath id="clipcc4be3xyplot" class="plotclip"><rect width="435" height="320"/></clipPath><clipPath class="axesclip" id="clipcc4be3x"><rect x="80" y="0" width="435" height="500"/></clipPath><clipPath class="axesclip" id="clipcc4be3y"><rect x="0" y="100" width="700" height="320"/></clipPath><clipPath class="axesclip" id="clipcc4be3xy"><rect x="80" y="100" width="435" height="320"/></clipPath></g><g class="gradients"/><g class="patterns"/></defs><g class="bglayer"><rect class="bg" x="80" y="100" width="435" height="320" style="fill: rgb(229, 236, 246); fill-opacity: 1; stroke-width: 0;"/></g><g class="layer-below"><g class="imagelayer"/><g class="shapelayer"/></g><g class="cartesianlayer"><g class="subplot xy"><g class="layer-subplot"><g class="shapelayer"/><g class="imagelayer"/></g><g class="gridlayer"><g class="x"><path class="xgrid crisp" transform="translate(152.53,0)" d="M0,100v320" style="stroke: rgb(255, 255, 255); stroke-opacity: 1; stroke-width: 1px;"/><path class="xgrid crisp" transform="translate(254.06,0)" d="M0,100v320" style="stroke: rgb(255, 255, 255); stroke-opacity: 1; stroke-width: 1px;"/><path class="xgrid crisp" transform="translate(355.6,0)" d="M0,100v320" style="stroke: rgb(255, 255, 255); stroke-opacity: 1; stroke-width: 1px;"/><path class="xgrid crisp" transform="translate(457.13,0)" d="M0,100v320" style="stroke: rgb(255, 255, 255); stroke-opacity: 1; stroke-width: 1px;"/></g><g class="y"><path class="ygrid crisp" transform="translate(0,385.39)" d="M80,0h435" style="stroke: rgb(255, 255, 255); stroke-opacity: 1; stroke-width: 1px;"/><path class="ygrid crisp" transform="translate(0,318.49)" d="M80,0h435" style="stroke: rgb(255, 255, 255); stroke-opacity: 1; stroke-width: 1px;"/><path class="ygrid crisp" transform="translate(0,184.67000000000002)" d="M80,0h435" style="stroke: rgb(255, 255, 255); stroke-opacity: 1; stroke-width: 1px;"/><path class="ygrid crisp" transform="translate(0,117.77)" d="M80,0h435" style="stroke: rgb(255, 255, 255); stroke-opacity: 1; stroke-width: 1px;"/></g></g><g class="zerolinelayer"><path class="yzl zl crisp" transform="translate(0,251.58)" d="M80,0h435" style="stroke: rgb(255, 255, 255); stroke-opacity: 1; stroke-width: 2px;"/></g><path class="xlines-below"/><path class="ylines-below"/><g class="overlines-below"/><g class="xaxislayer-below"/><g class="yaxislayer-below"/><g class="overaxes-below"/><g class="plot" transform="translate(80,100)" clip-path="url(#clipcc4be3xyplot)"><g class="scatterlayer mlayer"><g class="trace scatter trace0b8135" style="stroke-miterlimit: 2; opacity: 1;"><g class="fills"/><g class="errorbars"/><g class="lines"><path class="js-line" d="M0,151.58L0,153.35L0.65,152.05L0.76,152.05L1.06,152.25L1.36,151.58L1.51,151.69L1.56,151.69L2.12,151.58L2.12,152.72L3.02,151.58L3.02,151.58L3.07,151.58L3.32,151.58L3.32,158.35L3.48,158.35L3.48,151.58L3.78,157.28L4.08,151.58L4.08,217.2L4.23,217.2L4.23,152.71L4.53,151.58L4.84,159.64L4.88,151.58L4.99,151.58L5.29,196.23L5.59,108.11L5.59,108.11L5.64,108.11L5.89,151.58L6.19,105.29L6.4,142.16L6.5,142.16L6.5,97.15L6.95,173.05L7.25,151.58L7.3,151.58L7.55,64.78L8.01,151.58L8.06,151.58L8.46,151.58L8.46,153.79L8.76,105.87L9.07,161.84L9.12,161.84L9.22,161.84L9.22,163.76L9.37,151.58L9.97,151.58L10.02,151.58L10.43,151.58L10.43,156.04L10.73,156.12L10.73,159.59L10.88,159.59L10.88,154.92L11.18,157.58L11.18,151.58L11.48,155.58L11.48,151.58L11.63,151.58L11.63,155.51L11.79,155.51L11.79,151.58L11.94,151.58L11.94,155.24L12.09,155.24L12.09,151.58L12.24,151.58L12.24,155.3L12.39,155.3L12.39,151.58L12.69,153.33L13.04,151.58L13.15,151.58L14.35,152.18L14.35,152.55L14.51,152.55L14.51,151.58L18.74,151.58L18.74,217.17L18.89,217.17L18.89,105.57L19.19,201.34L19.69,152.07L19.79,152.07L19.79,151.58L20.1,157.39L20.45,151.58L20.55,151.58L20.85,151.58L20.85,144.1L21.15,143.99L21.15,137.79L21.3,137.79L21.3,146.15L21.46,146.15L21.46,129.24L21.76,126.19L21.76,130.57L21.91,130.57L21.91,172.75L22.66,81.25L23.12,92.37L23.12,151.58L24.93,151.95L24.93,155.13L25.53,163.23L25.69,157.56L25.69,153.85L25.99,158.13L26.49,155.43L26.59,155.43L26.74,153.31L26.89,158.92L27.25,157.75L27.35,157.75L27.95,152.22L28.1,157.69L28.15,157.69L28.41,158.23L28.91,151.58L29.01,151.58L30.22,151.58L30.22,156.55L30.37,156.55L30.37,151.58L30.67,156.86L31.02,151.58L31.13,151.58L32.64,151.58L32.64,216.75L33.54,151.58L33.54,154.12L33.85,154.05L33.85,164.37L34.75,137.73L34.75,149.31L34.8,149.31L35.66,104.32L35.66,130.75L35.81,130.75L35.81,101.3L36.11,96.27L36.87,151.58L36.87,151.58L36.92,151.58L39.44,151.58L39.44,220.55L39.59,220.55L39.59,159.66L39.89,160.46L40.34,152.65L40.39,156.92L40.49,156.92L40.49,151.58L41.15,151.58L41.25,151.58L47.14,151.58L47.14,155.82L47.44,151.79L47.44,215.99L47.59,215.99L47.59,104.67L47.75,104.67L47.75,196.88L48.05,125.5L48.55,150.74L48.65,150.74L48.95,145.56L49.11,186.57L49.3,151.58L49.41,151.58L50.01,103.91L50.16,140.88L50.21,140.88L50.47,174.54L50.77,52.27L51.07,62.68L51.07,197.33L51.37,82.98L51.87,151.58L51.98,151.58L52.88,151.58L52.88,186.19L53.49,130.41L53.79,142.44L53.79,151.58L54.09,151.58L54.09,161.7L54.7,156.06L54.85,159.23L54.85,218.86L55.45,152.9L55.75,154.12L55.8,154.12L56.06,152.48L56.66,163.34L56.66,154.66L56.81,154.66L56.81,155.83L57.72,154.78L57.72,155.26L58.78,154.56L58.78,155.81L59.68,154.47L59.68,155.28L59.98,154.78L60.14,155.19L60.14,151.58L60.44,216.81L60.44,104.68L60.79,124.56L60.89,124.56L61.34,211.87L61.5,109.31L61.54,109.31L61.65,109.31L62.4,223.81L62.4,223.81L62.45,223.81L63.21,151.47L63.31,151.47L63.61,192.74L63.91,109.37L64.06,134.06L64.11,134.06L64.37,151.58L64.52,137.31L64.52,78.78L64.67,78.78L64.67,145.05L64.97,147.62L65.27,60.63L65.32,146.69L65.42,146.69L65.73,56.94L66.08,65.68L66.18,65.68L66.78,149.57L66.93,83.4L66.98,83.4L67.54,156.28L67.84,151.58L67.84,131.57L68.75,163.63L68.75,156.93L68.8,156.93L69.05,163.77L69.05,222.12L69.2,222.12L69.2,166.34L69.5,219.05L69.5,120.18L69.85,131.52L69.96,131.52L69.96,180.72L70.71,151.58L70.76,151.58L71.32,160.11L71.47,151.58L71.52,151.58L74.04,151.58L74.04,157.12L74.94,151.58L74.94,151.58L74.99,151.58L75.24,151.58L75.24,156.86L75.4,156.86L75.4,151.58L76,156.89L76.2,156.41L76.3,156.41L76.3,151.58L76.6,216.5L76.95,151.58L77.06,151.58L78.12,118.87L78.12,128.34L79.02,96.24L79.02,111.39L79.17,111.39L79.17,95.37L80.08,154.99L80.53,151.58L80.58,151.58L82.65,151.58L82.65,156.04L82.95,154.84L83.25,157.45L83.4,156.46L83.4,154.33L83.56,154.33L83.56,158.12L84.51,151.58L84.61,151.58L84.76,153.88L85.26,152.55L85.37,152.55L85.37,151.58L86.12,151.58L86.17,151.58L87.79,151.58L87.79,152.85L88.54,151.58L88.59,151.92L88.69,151.92L88.69,151.58L89.3,157.5L89.34,157.5L89.45,157.5L89.6,151.58L90.2,151.58L90.25,151.58L90.51,158.37L90.51,217.85L90.81,110.67L90.81,257.04L91.31,150.12L91.41,150.12L91.87,196.08L92.06,152.05L92.17,152.05L92.62,231.42L92.77,29.31L92.92,225.23L92.97,225.23L93.23,60.83L93.23,239.37L93.73,96.25L93.83,96.25L93.83,184.39L93.98,78.04L94.58,128.85L94.63,128.85L94.89,159.68L95.39,145.39L95.49,145.39L95.49,156.37L96.14,151.58L96.25,151.58L96.4,151.58L96.4,155.78L96.85,155.02L96.85,158.7L97,158.7L97,152.65L97.15,152.65L97.15,160.89L97.76,151.58L97.91,158.52L97.96,158.52L98.21,153.72L98.71,154.49L98.82,154.49L99.12,159.78L99.27,151.58L99.57,151.58L99.62,151.58L99.87,157.19L100.37,151.58L100.48,151.58L101.69,151.58L101.69,216.89L101.84,216.89L101.84,151.58L102.14,216.99L102.14,111.6L102.49,132.03L102.59,132.03L102.59,176.66L103.24,151.58L103.35,151.58L105.61,151.58L105.61,153.81L105.77,153.81L105.77,154.87L105.92,154.87L105.92,153.12L106.22,153.6L106.22,218.08L106.37,218.08L106.37,104.35L106.67,195.75L107.17,173.63L107.28,173.63L107.73,233.35L108.03,137.57L108.03,137.57L108.08,137.57L108.33,90.65L108.49,151.58L108.79,151.58L108.83,151.58L109.24,151.58L109.24,149.11L109.39,149.11L109.39,150.35L109.54,150.35L109.54,109.07L110.3,201.41L110.45,188.4L110.45,151.58L111.05,171.68L111.25,165.38L111.36,165.38L112.11,152.76L112.11,152.76L112.16,152.76L112.41,152.61L112.72,158.79L112.91,158.35L113.02,158.35L113.32,152.51L113.47,158.69L113.77,158.55L113.82,158.55L114.58,151.58L114.68,151.58L116.04,151.58L116.04,216.9L116.84,151.58L116.95,151.58L119.67,151.58L119.67,155.85L119.97,151.7L119.97,220.44L120.12,220.44L120.12,151.58L120.57,151.58L120.57,142.86L120.72,142.86L120.72,151.58L121.03,151.58L121.03,146.39L121.18,146.39L121.18,116.7L121.48,109.34L121.78,151.58L121.98,137.68L122.08,137.68L122.08,89.79L122.73,100.74L122.84,100.74L123.14,151.58L123.59,59.94L123.59,59.94L123.64,59.94L123.9,151.58L124.4,84.16L124.5,84.16L124.8,151.58L125.15,151.58L125.26,151.58L125.26,127.82L125.71,200.37L126.01,151.58L126.06,151.58L126.92,151.58L126.92,152.42L127.83,151.58L127.83,151.58L127.87,151.58L133.42,151.58L133.42,215.87L133.57,215.87L133.57,151.83L134.02,151.58L134.02,215.9L134.78,151.58L134.82,159.25L134.93,159.25L135.08,197.15L135.68,113.96L135.68,113.96L135.73,113.96L135.98,105.86L136.29,178.42L136.48,119.97L136.59,119.97L136.74,120.2L137.34,105.37L137.34,105.37L137.39,105.37L137.65,105.66L137.65,103.66L137.8,103.66L137.8,115.45L138.7,151.58L138.7,72.2L138.86,72.2L138.86,151.58L139.16,80.83L139.66,109.62L139.76,109.62L139.76,151.58L140.41,151.58L140.52,151.58L140.82,157.89L141.27,154.42L141.32,154.42L141.58,157.86L141.58,152.86L141.92,152.89L142.03,152.89L142.63,158.48L142.78,152.19L142.78,152.19L142.83,152.19L143.09,158.61L143.39,152.08L143.58,157.84L143.69,157.84L143.69,151.58L144.14,157.94L144.34,151.58L144.45,151.58L145.05,157.85L145.2,151.58L145.25,151.58L145.81,157.15L146,156.68L146.11,156.68L146.26,156.72L146.41,151.58L146.86,151.58L146.91,151.58L148.07,151.58L148.07,155.24L148.22,155.24L148.22,151.58L148.37,151.58L148.37,155.09L148.53,155.09L148.53,151.58L149.58,151.58L149.58,189.64L150.34,111.65L150.38,151.58L150.49,151.58L150.79,151.58L150.79,87.45L150.94,87.45L150.94,136.08L151.09,136.08L151.09,81.33L151.25,81.33L151.25,127.83L151.4,127.83L151.4,83.03L151.55,83.03L151.55,171.26L152.45,66.87L152.45,151.58L153.81,151.58L153.81,157.84L153.96,157.84L153.96,187.94L154.12,187.94L154.12,164.74L154.27,164.74L154.27,145.73L154.57,144.73L155.17,151.58L155.17,151.58L155.22,151.58L155.48,157.98L155.97,157.43L156.08,157.43L156.23,162.79L156.38,151.58L156.73,152.07L156.84,152.07L157.14,163.72L157.29,151.58L157.59,151.86L157.64,151.86L157.89,156.4L157.89,151.58L158.39,156.3L158.5,156.3L158.5,151.58L159.25,151.58L159.3,151.58L161.97,151.58L161.97,155.69L162.12,155.69L162.12,151.65L162.88,151.58L162.88,215.33L163.03,215.33L163.03,105.17L163.18,105.17L163.18,201.9L163.33,201.9L163.33,124.63L163.63,187.35L164.13,151.58L164.24,151.58L164.69,178.32L164.99,102.99L164.99,102.99L165.04,102.99L165.3,135.27L165.6,87.37L165.64,87.37L165.75,87.37L165.9,83.52L166.2,151.58L166.4,151.58L166.51,151.58L169.53,151.58L169.53,221.94L169.68,221.94L169.68,151.58L169.83,151.58L169.83,217.87L170.13,105.09L170.63,144.97L170.74,144.97L170.74,157.21L171.49,151.58L171.54,151.58L176.93,151.58L176.93,155.63L177.08,155.63L177.08,151.81L177.38,155.2L177.38,151.58L177.73,151.58L177.84,151.58L177.99,151.58L177.99,152.83L178.74,151.58L178.74,142.55L179.05,142.02L179.05,133.35L179.35,140.39L179.35,117.06L179.39,117.06L179.5,117.06L179.8,219.67L179.95,17.77L180.15,194.06L180.26,194.06L180.26,34.02L181.01,151.58L181.06,151.58L183.13,151.58L183.13,160.14L183.28,160.14L183.28,163.95L183.43,163.95L183.43,151.58L184.64,151.58L184.64,158.32L184.79,158.32L184.79,151.58L184.94,151.58L184.94,157.24L185.09,157.24L185.09,151.78L185.24,151.78L185.24,157.45L185.54,151.66L185.89,157.13L186,157.13L186.15,151.58L186.75,156.8L186.8,156.8L187.05,151.58L187.55,152.07L187.66,152.07L187.66,155.82L188.41,151.58L188.41,151.58L188.46,151.58L192.34,151.58L192.34,154.47L192.49,154.47L192.49,151.58L192.95,151.58L192.95,154.05L193.1,154.05L193.1,151.58L193.25,151.58L193.25,145.41L193.4,145.41L193.4,149.59L193.55,149.59L193.55,135.37L193.85,126.01L194.31,166.72L194.31,80.42L194.46,80.42L194.46,151.58L197.63,151.58L197.63,160.23L197.78,160.23L197.78,151.58L198.08,151.58L198.08,193.72L198.24,193.72L198.24,160.62L198.99,151.58L199.03,153.55L199.14,153.55L199.6,152.26L199.75,157.33L199.79,157.33L199.9,157.33L200.05,158.54L200.2,151.58L200.65,151.58L200.7,151.58L205.94,151.58L205.94,155.84L206.09,155.84L206.09,151.58L206.39,151.58L206.39,215.56L206.55,215.56L206.55,104.82L206.85,195.98L207.34,159.65L207.45,159.65L207.91,190.99L208.06,96.76L208.1,96.76L208.21,96.76L208.21,168.24L208.96,107.13L209.01,107.13L209.27,141.75L209.57,94.61L209.76,133.03L209.87,133.03L209.87,151.58L210.52,151.58L210.63,151.58L213.19,151.58L213.19,154.65L213.34,154.65L213.34,157.03L213.5,157.03L213.5,161.56L213.65,161.56L213.65,157.78L213.8,157.78L213.8,159.94L214.1,164.79L214.55,161.06L214.55,157.82L214.86,157.57L215.16,160.19L215.16,151.58L215.31,151.58L215.31,160.17L215.46,160.17L215.46,157.22L215.61,157.22L215.61,160.3L216.22,156.11L216.41,156.57L216.52,156.57L216.52,160.1L216.67,151.58L217.27,151.58L217.32,151.58L218.07,158.15L218.18,158.15L218.18,151.58L218.83,151.58L218.94,151.58L221.05,151.58L221.05,216.92L221.81,151.58L221.85,153.8L221.96,153.8L222.71,135.76L222.71,135.76L222.76,135.76L223.17,126.85L223.17,175.92L223.32,175.92L223.32,137.28L223.47,137.28L223.47,156.85L223.62,156.85L223.62,80.66L223.77,80.66L223.77,151.58L224.68,65.71L224.68,187.74L224.83,187.74L224.83,85.55L225.78,151.58L225.89,151.58L227.4,151.58L227.4,152.93L227.55,152.93L227.55,153.78L227.85,156.08L227.85,151.58L228.15,151.58L228.2,151.58L228.61,151.58L228.61,153.06L229.21,151.58L229.36,152.24L229.36,154.23L229.66,156.48L229.81,151.58L229.86,151.58L229.97,151.58L229.97,157.66L230.72,152.93L230.76,152.93L231.02,154.8L231.17,151.58L231.37,151.58L231.48,151.58L236.76,151.58L236.76,148.46L236.92,148.46L236.92,144.35L237.07,144.35L237.07,191.02L237.22,191.02L237.22,87.42L237.37,87.42L237.37,167.5L237.52,167.5L237.52,153.15L237.82,160.52L237.82,151.58L238.17,151.58L238.28,151.58L238.58,85.24L239.03,151.58L239.07,151.58L241.6,151.58L241.6,157.01L241.75,157.01L241.75,154.87L241.9,154.87L241.9,165.12L242.05,165.12L242.05,160.28L242.96,153.35L242.96,160.2L243.11,160.2L243.11,154.25L243.41,157.24L243.91,155.92L244.02,155.92L244.62,157.33L244.77,153.66L244.77,153.66L244.82,153.66L245.38,156.96L245.38,153.2L245.68,156.92L245.68,153.11L245.83,153.11L245.83,157.05L246.63,151.58L246.74,151.58L248.85,151.58L248.85,156.19L249,156.19L249,151.58L250.51,151.58L250.51,214.77L250.67,214.77L250.67,151.58L250.82,151.58L250.82,212.94L250.97,212.94L250.97,155.62L251.12,155.62L251.12,151.58L251.27,151.58L251.27,149.88L251.87,131.85L252.07,141.26L252.18,141.26L252.78,103.94L252.93,126.53L252.97,126.53L253.54,94.91L253.54,151.58L253.58,151.58L253.69,151.58L255.65,151.58L255.65,185.47L255.8,185.47L255.8,163.13L256.1,149.87L256.41,151.58L256.41,224.17L256.71,224.99L257.01,112.79L257.31,130.11L257.31,187.6L258.11,151.58L258.22,151.58L258.22,159.44L258.87,153.27L258.98,153.27L258.98,151.58L259.73,151.58L259.77,151.58L264.41,151.58L264.41,156.35L264.57,156.35L264.57,151.58L264.72,151.58L264.72,156.05L265.02,212.34L265.17,151.58L265.36,151.58L265.47,151.58L265.77,151.58L265.77,143.67L265.93,143.67L265.93,141.6L266.23,180.85L266.38,104.27L266.68,145.68L266.68,95.94L266.98,133.71L266.98,90.92L267.33,92.77L267.44,92.77L267.44,126.56L268.19,79.2L268.19,79.2L268.23,79.2L269.14,151.58L269.25,151.58L270.76,151.58L270.76,155.95L270.91,155.95L270.91,163.17L271.21,167.25L271.37,156.71L271.41,156.71L271.52,156.71L271.52,160.69L271.67,151.58L272.27,151.75L272.31,151.75L272.57,160.67L272.57,151.58L273.07,153.68L273.18,153.68L273.18,151.58L273.63,217.17L273.93,151.58L273.98,151.58L279.52,151.58L279.52,155.53L279.68,155.53L279.68,151.58L280.28,151.58L280.28,143.52L280.43,143.52L280.43,149.59L280.73,186.37L281.04,157.39L281.04,95.83L281.34,143.3L281.64,86.11L281.68,86.11L281.79,86.11L281.94,83.37L282.09,151.58L282.44,151.58L282.55,151.58L285.57,151.58L285.57,158.99L285.72,158.99L285.72,151.59L286.02,158.38L286.52,156.55L286.63,156.55L286.93,152.06L287.38,158.8L287.38,158.8L287.42,158.8L288.18,151.58L288.29,151.58L293.58,151.58L293.58,155.25L293.73,155.25L293.73,151.95L294.18,151.58L294.18,213.4L294.48,117.17L294.98,143.49L295.09,143.49L295.69,188.58L295.84,66.66L295.84,66.66L295.88,66.66L296.45,197.77L296.64,119.6L296.75,119.6L296.75,108.79L296.9,151.58L297.5,151.58L297.55,151.58L299.92,151.58L299.92,160.63L300.53,154.67L300.72,156.81L300.83,156.81L300.83,155.07L301.58,164.89L301.58,164.89L301.62,164.89L301.89,154.46L302.38,155.53L302.49,155.53L302.49,155.83L302.94,154.62L303.14,155.32L303.25,155.32L303.7,155.72L303.85,151.58L304,151.58L304.04,151.58L306.57,151.58L306.57,215.72L306.72,215.72L306.72,111.91L307.02,188.68L307.52,151.58L307.63,151.58L308.53,151.58L308.53,214.56L308.69,214.56L308.69,100.9L308.99,193.02L309.48,151.58L309.59,151.58L309.74,206.21L309.89,76.74L310.24,92.7L310.35,92.7L310.35,151.58L311.1,99.42L311.14,99.42L311.41,91.41L311.86,151.58L312.01,139.91L312.01,81.79L312.16,81.79L312.16,151.58L313.37,151.58L313.37,168.19L313.67,178L314.12,141.72L314.28,151.58L314.32,151.58L314.58,151.58L314.58,153.37L314.73,153.37L314.73,151.58L315.03,219.66L315.48,151.58L315.53,151.58L316.09,151.92L316.43,151.58L316.54,151.58L316.54,164.15L317.19,163.93L317.3,163.93L317.3,151.58L318.05,151.58L318.09,151.58L322.28,151.58L322.28,215.22L322.43,215.22L322.43,151.87L322.59,151.87L322.59,214.93L322.74,214.93L322.74,105.46L323.04,194.58L323.53,157.54L323.64,157.54L324.1,139.3L324.29,150.43L324.4,150.43L324.55,129.78L324.7,171.13L325.15,151.58L325.19,151.58L325.46,80.08L325.95,87.62L326.06,87.62L326.06,141.51L326.21,85.64L326.71,129.89L326.82,129.89L326.82,92.67L326.97,151.58L327.57,151.58L327.61,151.58L329.39,151.58L329.39,152.68L329.54,152.68L329.54,151.58L329.84,151.58L329.84,152.4L329.99,152.4L329.99,151.58L330.75,151.58L330.75,153.21L331.2,151.58L331.2,157.64L331.35,157.64L331.35,152.47L331.65,157.62L331.65,151.58L331.99,151.58L332.1,151.58L338.15,151.58L338.15,203.23L338.3,203.23L338.3,95.47L338.6,244.51L338.6,33.21L338.94,43.54L339.06,43.54L339.06,189.89L339.81,80.24L339.85,80.24L340.61,151.58L340.72,151.58L343.59,151.58L343.59,152.72L343.89,152.03L343.89,151.58L344.04,151.58L344.04,152.36L344.34,151.58L344.34,154.18L344.38,154.18L344.49,154.18L344.49,151.58L345.14,151.58L345.25,151.58L345.25,219.82L345.89,151.58L346.01,151.58L350.84,151.58L350.84,156.27L350.99,156.27L350.99,151.58L352.05,151.58L352.05,215.37L352.35,102.29L352.84,132.09L352.96,132.09L352.96,151.58L353.71,115.03L353.71,115.03L353.75,115.03L354.01,126.39L354.32,106.63L354.36,106.63L354.47,106.63L354.47,151.58L355.22,151.58L355.26,151.58L357.04,151.58L357.04,168.52L357.34,161.09L357.34,175.65L357.49,175.65L357.49,132.88L357.79,170.64L358.28,151.58L358.4,151.58L358.4,172.49L358.55,130.67L359.15,151.58L359.19,151.58L360.21,151.58L360.21,159.37L360.36,159.37L360.36,151.79L360.66,159.8L360.96,151.58L361,151.58L361.11,151.58L361.11,158.38L361.76,157.52L361.87,157.52L361.87,151.58L362.51,151.58L362.63,151.58L364.29,151.58L364.29,216.46L364.59,104.4L365.08,144.19L365.19,144.19L365.19,156.82L365.84,151.58L365.95,151.58L366.1,151.58L366.1,155.66L366.4,151.58L366.55,155.29L366.55,218.82L366.71,218.82L366.71,99.86L366.86,99.86L366.86,197.26L367.16,119.04L367.65,135.04L367.76,135.04L367.91,134.99L367.91,125.98L368.07,125.98L368.07,132.98L368.22,132.98L368.22,164.93L368.52,79.36L368.97,151.58L369.01,151.58L369.58,63.15L369.77,65.16L369.88,65.16L369.88,151.58L370.63,151.58L370.67,151.58L372.45,151.58L372.45,160.38L372.6,160.38L372.6,158.76L373.05,159.57L373.05,158.66L373.35,160.19L373.35,152.39L373.66,225.74L374.11,160.15L374.15,160.15L374.71,151.58L374.9,153.7L375.02,153.7L375.17,216.08L375.47,151.58L375.77,151.58L375.81,151.58L376.38,156.94L376.53,151.58L376.57,151.58L378.79,151.58L378.79,155.99L379.1,156.13L379.59,151.58L379.7,151.58L381.66,151.58L381.66,203.66L382.42,128.83L382.46,151.58L382.57,151.58L382.87,161.53L383.17,77.63L383.21,77.63L383.33,77.63L383.33,151.58L384.08,72.76L384.08,72.76L384.12,72.76L384.38,285.39L384.88,178.34L384.99,178.34L384.99,144.89L385.74,151.58L385.78,151.58L386.2,151.58L386.2,123.51L386.35,123.51L386.35,151.58L386.8,151.58L386.8,162.46L387.1,167.99L387.41,154.59L387.41,170.47L388.01,151.58L388.16,158.35L388.16,218.47L388.77,105.21L389.07,124.01L389.07,178.86L389.22,178.86L389.22,143.54L389.52,159.28L390.01,151.58L390.13,151.58L393.3,151.58L393.3,216.38L394.2,151.58L394.2,151.58L394.24,151.58L395.41,151.58L395.41,155.62L396.21,151.58L396.32,151.58L396.62,151.58L396.62,147.05L396.92,145.18L396.92,151.58L396.96,151.58L397.08,151.58L397.08,157.89L397.53,132.37L397.83,143.75L397.87,143.75L398.28,143.8L398.89,100.66L398.89,235.99L399.04,235.99L399.04,91.21L399.64,163.83L399.83,116.68L399.95,116.68L400.1,206.19L400.55,109.6L400.7,189.2L400.74,189.2L401,135.6L401.5,154.2L401.61,154.2L401.76,153.13L402.36,222.34L402.36,222.34L402.4,222.34L402.67,108.81L403.16,147.61L403.27,147.61L403.27,162.93L403.91,158.38L404.03,158.38L404.18,158.66L404.33,151.58L404.78,157.88L404.82,157.88L405.08,157.6L405.08,158.11L405.23,158.11L405.23,152.24L405.39,152.24L405.39,155.21L405.54,155.21L405.54,153.34L405.84,154.14L405.99,153.5L405.99,151.58L411.13,151.58L411.13,207.72L412.03,124.38L412.03,127.97L412.07,127.97L412.34,166.67L412.79,143.36L412.79,84.24L413.09,198.85L413.39,47.82L413.43,47.82L413.54,47.82L413.54,161.32L414.19,151.58L414.3,151.58L414.3,77.46L414.94,105.12L415.06,105.12L415.06,221.1L415.51,92.88L415.81,119.88L415.85,119.88L416.11,185.31L416.6,157.59L416.72,157.59L417.32,151.58L417.47,151.58L417.51,151.58L419.74,151.58L419.74,155.99L420.53,151.58L420.65,151.58L420.65,155.36L421.4,151.58L421.44,151.58L423.52,151.58L423.52,155.36L423.67,155.36L423.67,151.64L423.97,155.23L423.97,151.58L424.31,151.58L424.42,151.58L425.18,151.58L425.18,217.36L425.48,262.42L425.78,52.56L425.82,233.18L425.93,233.18L425.93,64.76L426.58,151.58L426.69,151.58L427.14,98.82L427.33,127.96L427.45,127.96L427.45,91.67L427.9,169.47L428.2,109.23L428.24,109.23L429.26,140.49L429.26,120.88L429.41,120.88L429.41,151.58L429.71,128.11L430.16,151.58L430.2,151.58L430.62,151.58L430.62,225.51L431.22,107.27L431.52,126.07L431.52,163.87L431.68,163.87L431.68,151.58L432.13,151.58L432.13,157.26L432.43,151.58L432.43,157.3L432.92,151.86L433.04,151.86L433.04,157.1L433.49,151.58L433.79,151.58L433.83,151.58L435,151.58L435,151.58" style="vector-effect: non-scaling-stroke; fill: none; stroke: rgb(0, 191, 255); stroke-opacity: 1; stroke-width: 2px; opacity: 1;"/></g><g class="points"/><g class="text"/></g><g class="trace scatter trace6f1f5a" style="stroke-miterlimit: 2; opacity: 1;"><g class="fills"/><g class="errorbars"/><g class="lines"><path class="js-line" d="M0,151.74L4.28,151.07L4.38,150.1L5.04,126.12L5.14,118.66L6.7,45.55L6.8,44.29L7.55,34.08L7.91,35.34L8.01,35.24L8.16,34.2L8.36,35.92L8.46,38.87L8.96,53.56L9.07,58.49L11.33,151.75L11.38,151.74L11.48,151.74L18.89,151.47L18.89,151.47L18.94,150.72L20.3,119.14L20.4,113.87L21.61,63.24L21.81,65.13L21.91,68.26L22.06,79.94L22.21,47.47L22.41,52.7L22.51,46.28L22.82,62.36L22.97,23.83L23.17,40.91L23.27,75.6L23.42,32.99L24.02,71.56L24.07,75.16L25.73,151.75L25.89,151.74L25.99,151.74L33.29,151.3L33.39,150.66L34.2,121.24L34.3,112.02L36.16,29.81L36.26,28.19L36.87,23.86L36.92,28.78L37.02,39.16L37.17,23.89L37.82,28.93L37.92,29.3L38.08,26.21L38.23,36.04L38.23,36.04L38.28,39.16L40.39,151.75L40.49,151.74L47.9,151.56L47.9,151.56L47.95,150.86L48.5,133.29L48.5,133.29L48.55,130.08L50.51,40.37L50.62,37.95L51.52,24.92L51.57,33.73L51.67,52.55L51.83,26.55L52.33,38.35L52.43,57.5L52.73,56.27L53.34,123.35L53.49,111.09L53.54,112.06L53.84,129.02L53.94,137.13L54.9,151.75L55,151.74L62.4,151.41L62.4,151.41L62.45,150.89L62.9,140.36L63.01,131.36L64.57,44.09L64.67,43.25L65.42,24.31L65.77,25.66L65.88,24.33L66.03,24.15L66.18,24.42L66.23,25.77L67.59,81.18L67.69,87.95L69.4,151.75L69.5,151.74L76.3,151.3L76.3,151.3L76.35,150.69L76.95,133.9L77.06,126.72L79.22,32.97L79.32,31.56L79.78,30.2L80.08,31.28L80.13,32.28L81.34,72.94L81.44,78.8L83.25,151.75L83.25,151.75L83.3,151.75L90.7,151.43L90.81,150.82L91.76,121.34L91.87,112.92L92.06,116.17L92.17,121.52L92.37,109.9L92.47,92.04L92.62,73.54L93.07,94.61L93.07,94.61L93.12,104.06L93.23,124.98L93.53,88.52L93.83,114.66L93.88,103.19L93.98,77.8L94.58,111.15L94.58,111.15L94.63,115.25L94.89,107.74L95.49,140.58L95.64,139.89L95.69,138.88L95.94,144.48L96.1,131.54L96.29,141.51L96.4,145.13L97.35,151.74L97.46,151.74L105.66,151.12L105.77,150.25L106.52,135.1L106.72,140.09L106.82,143.97L107.43,132.37L107.58,139.69L107.63,140.63L107.73,142.75L107.78,134.86L107.88,117.17L108.18,35.22L108.38,75.04L108.49,124.97L108.64,97.84L108.94,127.45L109.14,127.06L109.24,127.79L109.39,125.56L109.39,125.56L109.44,112.26L109.54,82.39L110.04,129.07L110.15,130.28L111.05,146.59L111.1,146.18L111.21,145.24L112.11,151.74L112.11,151.74L112.16,151.74L119.82,151.51L119.82,151.51L119.86,150.75L120.47,133.68L120.57,116.64L120.72,126.83L121.07,107.15L121.18,80.49L121.48,68.86L121.68,80.75L121.78,104.48L122.89,23.92L122.99,23.83L123.14,71.4L123.79,42.93L123.9,69.89L124.2,82.73L124.35,39.82L124.7,59.05L124.8,64.94L126.62,151.75L126.77,151.74L126.81,151.74L134.37,151.03L134.47,149.97L134.93,140.44L134.93,140.44L134.97,135.8L136.63,40.15L136.74,37.98L137.8,24.08L137.99,24.13L138.1,24.15L138.3,24.85L138.4,26.4L139.35,66.89L139.46,73.6L141.12,151.75L141.27,151.74L141.32,151.74L148.83,151.34L148.83,151.34L148.87,150.73L149.48,134.63L149.58,124.6L151.25,32.1L151.74,32.16L151.85,32.23L152.15,62.09L152.2,52.29L152.3,29.41L152.45,30.45L152.45,30.45L152.5,36.22L152.61,49.67L152.91,28.76L153.21,34.58L153.25,35.84L153.56,62.27L153.66,88.33L153.81,77.21L153.96,111.76L153.96,111.76L154.01,114.34L154.57,111.22L155.37,151.72L155.48,151.75L163.38,151.05L163.48,150.06L163.98,138.24L164.09,128.41L165.95,37.04L166.05,34.89L166.81,26.49L167.16,27.63L167.26,29.89L167.87,47.47L167.87,47.47L167.91,49.52L170.13,151.75L170.33,151.74L170.43,151.74L177.84,151.49L177.84,151.49L177.88,150.86L178.49,136.31L178.59,127.14L180.9,31.42L181.01,29.86L181.62,23.91L181.81,25.59L181.92,28.16L183.17,90.57L183.28,97.99L184.64,151.75L184.64,151.75L184.68,151.75L192.39,151.18L192.49,150.45L192.99,138.7L193.1,128.31L195.21,33.8L195.21,33.8L195.26,33.18L195.82,28.42L196.16,29.09L196.27,30.42L197.07,56.89L197.18,61.56L199.19,151.75L199.29,151.74L206.89,151.3L207,150.84L207.65,128.54L207.75,121.1L209.91,31.78L210.02,30.34L210.47,28.39L210.78,30.14L210.82,30.87L211.53,54.07L211.53,54.07L211.58,56.33L213.54,151.75L213.69,151.74L213.8,151.74L221.4,151.33L221.5,150.87L222.11,131.66L222.11,131.66L222.15,128.63L224.37,26.54L224.37,26.54L224.42,25.91L224.98,23.85L225.17,24.99L225.28,25.83L226.34,68.36L226.34,68.36L226.38,71.18L228.2,151.75L228.3,151.74L235.9,151.32L236.01,150.76L236.66,128.74L236.76,121.14L238.88,31.51L238.92,32.64L239.03,35.48L239.18,28.03L239.83,32.56L239.94,34.31L241.34,120.14L241.45,127.63L242.85,151.75L242.96,151.75L250.51,151.2L250.51,151.2L250.56,150.43L251.16,130.45L251.27,122.98L253.13,41.11L253.23,39.01L253.69,28.27L253.73,31.34L253.84,39.21L253.99,27.41L254.48,40.63L254.59,43.42L255.24,70.56L255.35,82.12L255.65,92.45L255.65,92.45L255.69,96.4L257.01,151.75L257.01,151.75L257.05,151.75L265.02,151.13L265.02,151.13L265.06,150.35L265.67,131.33L265.77,124.23L268.08,29.95L268.19,28.76L268.34,27.99L268.8,29.47L268.8,29.47L268.84,30.29L269.59,56.42L269.7,61.92L271.71,151.75L271.82,151.74L279.41,151.56L279.52,151.38L280.13,134.73L280.13,134.73L280.17,131.83L282.29,35.66L282.39,34.7L283.15,31.43L283.34,32.95L283.45,35.01L284.55,84.15L284.66,91.43L286.21,151.76L286.32,151.75L294.03,151.32L294.03,151.32L294.07,150.87L294.52,142.19L294.63,133.97L296.6,37.34L296.64,38.27L296.75,40.76L297.2,97.13L297.5,50.02L297.55,42.91L297.66,23.94L298.11,73.71L298.11,73.71L298.15,77.16L299.21,105.64L299.32,111.01L300.42,151.75L300.53,151.75L308.42,151.48L308.53,150.96L309.33,124.2L309.44,116.43L309.89,95.88L309.89,95.88L309.93,89.16L310.84,52.85L310.95,48.34L312.01,34.15L312.01,34.15L312.05,34.08L312.16,33.89L312.2,34.47L312.31,36.02L313.56,86.37L313.67,93.61L315.22,151.75L315.33,151.74L322.93,151.24L323.04,150.41L323.99,118.55L324.1,105.77L324.4,96.63L324.44,91.15L325.46,49.8L325.46,49.8L325.5,49.53L325.76,44.58L325.8,45.79L325.91,49.1L326.67,36.23L326.86,37.69L326.97,40.7L327.87,151.58L328.03,90.44L328.07,91.99L329.84,151.75L329.84,151.75L329.88,151.75L337.54,151.3L337.54,151.3L337.58,150.71L338.19,134.67L338.3,127.56L340.72,38.37L340.76,40.09L340.87,44.87L341.17,38.7L341.51,43.78L341.62,45.24L341.93,52.35L341.93,52.35L341.97,54.37L344.23,151.77L344.34,151.76L352.05,151.44L352.05,151.44L352.09,151L352.65,137.56L352.65,137.56L352.69,134.94L354.81,39.48L354.92,38.45L355.11,36.22L355.22,32.16L355.52,69.35L355.83,33.73L355.87,33.41L355.98,32.51L355.98,32.51L356.02,39.37L356.73,86.48L356.92,73.45L357.04,83.37L358.4,151.76L358.43,151.71L358.55,151.58L366.59,151.15L366.71,150.09L367.31,128.91L367.31,128.91L367.35,126.26L368.82,54.67L368.82,54.67L368.86,79.78L368.97,151.58L369.46,42.71L369.58,40.46L370.03,38.71L370.22,39.4L370.33,40.71L370.82,52.9L370.94,57.06L373.24,151.76L373.35,151.76L381.06,151.4L381.06,151.4L381.1,150.9L381.7,136.07L381.81,129.97L383.82,44.49L383.93,43.54L384.08,42.13L384.08,42.13L384.12,70.17L384.88,151.58L384.99,151.58L386.05,151.58L386.05,151.58L386.08,138.07L386.2,98.78L386.8,140.49L386.8,140.49L386.84,141.89L387.56,151.77L387.75,151.76L387.86,151.76L395.56,151.54L395.56,151.54L395.6,150.88L395.9,138.56L396.02,127.25L396.47,143.5L396.51,137.07L396.62,118.18L397.08,126.61L397.23,92.02L397.42,110.21L397.53,112.67L398.74,31.44L398.78,50.13L398.89,105.18L399.49,58.29L399.68,65.53L399.8,80.39L399.95,68.03L400.14,113.35L400.25,127.29L400.4,125.96L400.44,127.7L400.55,132.84L401.76,151.65L401.76,151.65L401.8,151.68L403.72,151.75L403.72,151.75L403.76,151.75L410.52,151.58L410.52,151.58L410.56,148.1L412.22,59.14L412.34,54.3L412.79,44.55L412.83,71.39L412.94,151.58L413.39,40.86L413.73,42.98L413.85,44.96L414.49,62.81L414.6,67.68L416.76,151.75L416.87,151.74L424.46,151.67L424.57,151.48L425.52,136.02L425.63,131.28L427.75,42.94L427.75,42.94L427.78,42.74L428.05,42.15L428.24,43.21L428.35,44.11L428.99,62.45L429.11,68.26L431.11,151.75L431.22,151.74L431.26,151.74L435,151.58L435,151.58" style="vector-effect: non-scaling-stroke; fill: none; stroke: rgb(255, 0, 0); stroke-opacity: 1; stroke-width: 2px; opacity: 1;"/></g><g class="points"/><g class="text"/></g><g class="trace scatter traceebd466" style="stroke-miterlimit: 2; opacity: 1;"><g class="fills"/><g class="errorbars"/><g class="lines"><path class="js-line" d="M0,173.42L0.15,169.59L0.65,171.82L0.76,171.95L1.06,172.32L1.36,170.54L1.51,171.65L1.56,171.58L1.81,170.23L1.96,170.76L2.01,171.42L2.12,172.79L2.42,170.24L2.72,171.65L2.77,171.16L2.87,170.14L3.17,170.6L3.17,177.29L3.32,178.43L3.32,171.65L3.48,170.16L3.52,177.07L3.63,177.36L3.78,164.95L4.08,237.27L4.38,172.78L4.43,171.71L4.53,181.64L4.99,165.77L4.99,225.99L5.29,163.54L5.34,207.53L5.44,206.17L6.19,105.29L6.19,148.21L6.24,146.23L6.35,142.16L6.35,105.29L6.5,97.15L6.5,142.16L6.65,136.8L6.65,97.15L6.8,99.16L6.8,203.71L6.95,193.12L6.95,119.23L7.1,114.88L7.1,173.04L7.25,168.87L7.25,65.26L7.4,64.78L7.4,151.58L7.55,150.38L7.55,70.27L8.01,90.84L8.16,84.82L8.16,151.72L8.46,173.87L8.46,104.75L8.61,105.87L8.61,147.1L8.76,145.6L8.76,99.89L8.91,112.67L8.91,179.57L9.07,171.65L9.22,183.83L9.22,108.31L9.37,108.66L9.37,120.85L10.63,177.27L10.73,179.67L11.03,168.3L11.48,175.28L11.53,175.38L11.63,175.58L11.63,171.65L11.79,170L11.94,175.32L12.09,174.16L12.14,174.56L12.24,175.37L12.39,170.52L12.54,173.4L12.54,171.65L12.69,171.86L12.69,173.4L12.84,169.61L13.5,170.72L13.6,169.98L14.05,169.84L14.35,172.63L14.4,171.15L14.51,168.87L15.26,172.22L15.26,171.65L15.31,171.23L16.02,171.54L16.22,169.85L16.32,169.81L16.47,169.63L16.52,170.1L16.62,171.07L17.07,169.67L17.27,170.39L17.38,171.44L18.13,169.65L18.18,170.21L18.28,171.36L18.58,169.73L18.58,236.63L18.74,237.24L18.74,104.75L18.89,105.57L18.89,217.17L19.04,221.41L19.04,192.55L19.19,187.68L19.19,154.5L19.34,151.61L19.34,167.64L19.64,178.5L20.14,172.97L20.25,169.99L21,143.99L21,144.1L21.05,142.05L21.46,152.84L21.61,126.19L21.76,130.57L21.76,193.1L21.91,192.82L21.91,150.64L22.06,182.96L22.21,149.63L22.36,157.29L22.36,90.38L22.51,81.25L22.51,151.58L23.12,65.32L23.17,82.53L23.27,118.36L23.42,83.86L23.92,108.74L24.02,118.39L25.38,183.3L25.58,175.74L25.69,173.92L25.84,178.2L26.44,177.21L26.49,177.55L26.59,178.25L26.64,174.82L26.74,173.38L26.89,178.99L27.35,173.13L27.4,177.65L27.5,177.3L27.8,177.81L28.25,172.1L28.25,177.76L28.3,177.93L28.41,178.3L28.41,172.1L28.56,171.7L28.56,178.3L28.86,166.69L29.36,169.94L29.46,170.32L30.07,170.22L30.07,176.91L30.22,176.62L30.22,171.65L30.37,171.61L30.37,176.58L30.52,176.93L30.52,164.96L30.67,164.65L30.67,169.93L30.97,170.07L31.28,169.6L31.48,169.81L31.58,169.98L32.33,169.48L32.49,169.63L32.49,236.54L32.64,236.83L32.64,171.65L32.79,171.37L32.79,169.64L33.09,169.48L33.14,169.83L33.24,170.56L33.39,169.88L33.44,171.27L33.54,174.19L33.85,184.44L34.2,165.91L34.3,156.79L34.3,163.48L35.05,123.77L35.05,123.77L35.1,121.52L35.2,149.06L35.51,104.32L35.51,142.27L36.11,96.26L36.16,121.59L36.26,118.79L36.87,154.03L36.87,87.12L36.92,91.5L37.02,100.72L37.02,107.41L37.77,72.17L37.77,72.17L37.82,73.11L38.08,69.37L38.43,88.27L38.53,99.47L38.73,100.84L38.83,102.83L39.44,240.62L39.48,174.25L39.59,179.73L39.89,180.53L40.34,166.04L40.34,166.04L40.39,166.63L40.49,173.23L41.1,171.61L41.15,171.52L42.31,169.64L42.51,169.92L42.61,170.01L43.36,169.49L43.52,169.8L43.56,169.87L44.72,170.4L44.77,170.31L44.87,170.12L45.03,169.26L45.68,169.61L45.78,169.85L46.54,169.17L46.69,169.24L46.74,169.29L46.99,169.4L46.99,176.09L47.14,175.89L47.14,171.65L47.29,171.87L47.29,236.11L47.44,236.07L47.44,104.96L47.59,104.67L47.59,215.99L47.75,216.96L47.75,124.75L47.9,125.5L47.9,196.88L48.05,202.77L48.05,145.58L48.2,142.72L48.2,182.7L48.35,190.62L48.4,158.94L48.5,150.74L48.95,145.56L48.95,218.48L49.15,163.87L49.26,160.13L50.01,103.9L50.01,145.16L50.06,143.79L50.16,140.88L50.16,103.9L50.31,98.26L50.31,207.79L50.47,194.62L50.47,51.42L50.62,52.27L50.62,167.85L50.77,168.22L50.77,68.91L50.92,62.68L50.92,218.48L51.07,217.4L51.07,82.75L51.22,82.98L51.22,130.42L51.37,128L51.37,59.4L51.52,58.71L51.52,58.71L51.57,66.9L51.83,53.08L52.58,125.92L52.58,125.92L52.63,117.77L52.73,100.37L52.78,179.7L52.88,206.26L53.19,96.47L53.54,139.82L53.64,142.44L54.09,181.77L54.39,177.44L54.44,177.02L54.54,176.14L54.54,181.69L54.7,179.3L54.7,243.04L54.85,238.93L54.85,179.3L55,179.24L55,238.93L55.15,238.1L55.15,172.55L55.3,171.19L55.45,173.79L55.45,172.97L55.5,174.43L56.06,172.55L56.06,178.94L56.21,178.52L56.21,172.55L56.51,183.41L56.56,174.64L56.66,174.74L56.66,183.41L57.31,175.46L57.42,175.46L57.57,174.85L58.17,175.16L58.22,175.21L58.62,174.64L58.67,175.56L58.78,175.89L59.53,174.54L59.53,175.69L59.58,175.58L59.68,174.54L59.98,174.85L60.03,172.39L60.14,167.11L60.14,237.63L60.29,236.88L60.29,104.74L60.44,104.67L60.44,216.81L60.59,216.62L60.59,124.75L60.74,124.56L60.74,196.55L60.89,196.7L60.89,144.63L61.04,144.87L61.04,176.63L61.19,176.21L61.19,231.85L61.34,231.94L61.34,109.31L61.5,109.31L61.5,211.87L61.65,212.04L61.65,136.07L61.8,135.6L61.8,191.97L61.95,192L61.95,155.67L62.1,155.94L62.1,169.6L62.25,170.17L62.25,243.77L62.4,243.88L62.4,171.65L62.55,175.13L62.86,168.44L62.86,176.88L63.31,141.22L63.46,156.77L63.46,213.32L63.61,212.81L63.61,158.27L63.91,109.37L64.06,134.06L64.06,169.59L64.37,137.31L64.37,84.67L64.52,78.78L64.52,144L64.67,145.05L64.67,78.78L64.82,70.17L64.82,145.05L64.97,147.62L64.97,70.17L65.12,60.63L65.12,147.62L65.27,146.69L65.27,127.53L65.42,123.06L65.47,140.82L65.57,142.59L65.57,56.15L66.23,67.16L66.33,70.36L66.78,149.57L66.98,147.4L67.09,157.2L67.39,176.36L67.39,104.75L67.84,151.58L67.89,153.65L67.99,144.83L68.9,183.84L68.9,243.91L69.05,242.2L69.05,183.84L69.2,186.41L69.2,242.2L69.35,239.12L69.35,119.5L69.5,120.18L69.5,219.05L69.65,220.95L69.65,133.56L69.81,131.52L69.81,200.87L69.96,200.79L69.96,151.59L70.11,151.57L70.11,180.72L70.26,181.2L70.26,171.64L70.41,170.37L70.41,179.92L70.56,181.93L70.56,171.65L70.71,169.44L70.71,179.72L70.71,179.72L70.76,179.34L70.86,178.51L70.86,171.65L71.01,171.82L71.01,178.51L71.17,180.18L71.17,171.82L71.32,167.33L71.32,175.86L71.92,170.17L71.97,170.35L72.07,170.76L72.72,170.34L72.83,169.93L73.58,170.54L73.73,170.41L73.78,170.32L73.89,170.14L73.89,176.83L74.04,177.19L74.04,171.65L74.19,171.17L74.19,176.71L74.34,176.44L74.34,171.65L74.49,172.04L74.49,169.75L75.09,170.21L75.09,176.9L75.24,176.93L75.24,171.65L75.4,171.24L75.4,176.52L75.55,176.87L75.55,171.65L75.7,171.5L75.7,176.72L75.85,176.96L75.85,171.65L76,171.12L76,176.43L76.15,176.49L76.15,171.65L76.3,171.05L76.3,175.88L76.45,174.02L76.45,238.56L76.6,236.57L76.6,174.02L76.76,173.76L76.76,169.67L77.96,118.87L77.96,136.48L78.87,96.24L78.87,116.63L79.32,95.36L79.48,95.97L79.48,108.15L79.63,95.97L79.78,97.4L79.78,172.88L79.93,175.06L79.93,117.47L80.08,117.86L80.08,121.27L80.23,123.14L80.23,62.93L80.38,68.93L80.38,135.83L80.73,151.81L80.84,158.78L80.84,91.87L81.59,126.46L81.64,130.62L82.65,178.34L82.85,175.74L82.95,174.91L83.56,178.19L83.6,174.36L83.71,174.28L83.71,178.19L83.86,167.59L84.46,171.86L84.51,172.1L84.61,171.65L84.76,173.95L84.81,171.72L84.91,169.7L85.22,172.63L85.37,169.55L85.57,170.74L85.67,170.81L85.97,171.96L86.58,170.31L86.58,170.31L86.62,170.51L87.03,171.37L87.38,170.72L87.48,170.46L87.79,172.93L87.83,171.04L87.94,169.69L88.54,171.99L88.69,170.51L88.74,170.61L88.84,170.83L88.84,177.52L88.99,177.22L88.99,171.65L89.15,171.55L89.15,177.12L89.3,177.57L89.3,171.65L89.45,172.66L89.6,169.47L89.9,170.72L89.95,170.7L90.2,170.39L90.2,177.08L90.35,178.44L90.35,238.56L90.51,237.92L90.51,111.53L90.66,110.67L90.66,278.06L90.81,277.11L90.81,130.74L90.96,128.57L90.96,196.82L91.11,192.8L91.11,148.64L91.26,150.12L91.26,179.42L91.41,183.24L91.46,167.87L91.56,162.71L91.71,226.24L92.02,142.55L92.21,224.06L92.32,220.52L92.47,267.36L92.77,29.31L93.07,225.23L93.12,235.87L93.23,259.44L93.23,87.59L93.38,73.67L93.38,239.36L93.53,220.13L93.53,80.36L93.68,96.25L93.68,200.06L93.83,204.46L93.83,116.32L93.98,78.03L94.13,204.04L94.28,183.97L94.33,183.64L94.43,182.9L94.43,114.02L94.74,179.75L95.09,148.35L95.19,150.94L95.34,145.39L95.49,176.44L95.94,171.65L95.99,167.02L96.1,156.73L96.4,175.85L96.6,175.62L96.7,175.09L97.3,172.46L97.3,180.97L97.46,180.73L97.46,172.46L97.61,170.96L97.61,180.03L97.91,171.87L98.41,176.18L98.51,177L99.12,179.86L99.16,171.9L99.27,170.1L99.42,178.47L100.02,172.9L100.07,172.69L100.18,169.3L100.78,169.87L100.83,169.98L101.54,170.64L101.54,237.55L101.69,236.96L101.69,171.65L101.84,171.39L101.84,236.7L101.99,237.06L101.99,111.44L102.14,111.6L102.14,216.99L102.29,216.74L102.29,131.67L102.44,132.03L102.44,196.67L102.59,196.74L102.59,152.11L102.74,151.84L102.74,170.24L103.5,170.09L103.55,170.19L103.65,170.41L104.1,171.23L104.45,170.13L104.56,170.16L104.86,169.94L105.31,170.8L105.36,170.37L105.46,169.42L105.77,180.57L106.07,173.67L106.07,240.1L106.22,238.15L106.22,106.76L106.37,104.35L106.37,224.76L106.52,215.82L106.52,124.43L106.67,127.81L106.67,202.44L106.82,210.21L106.82,154.57L106.97,146.57L106.97,190.14L107.13,193.71L107.13,166.64L107.28,165.11L107.28,187.16L107.43,185.61L107.43,164.96L107.58,174.93L107.58,245.83L107.73,253.43L107.73,168.24L108.18,90.64L108.38,111.62L108.49,158.68L108.64,128.06L108.79,167.06L109.24,151.58L109.29,151.2L109.39,149.1L109.39,149.1L109.44,136.77L109.54,109.07L109.89,168.42L110,191.22L110.15,221.49L110.3,154.58L110.75,188.93L110.8,189.8L110.9,191.75L110.9,174.07L111.21,185.46L111.4,178.59L111.51,178.19L111.66,181.38L112.11,172.83L112.26,172.83L112.31,172.78L112.57,172.68L112.72,178.87L113.06,178.49L113.17,178.66L113.47,178.76L113.92,165.11L113.92,172.08L113.97,171.98L114.98,169.9L115.13,170.3L115.18,170.25L115.89,169.86L115.89,236.77L116.04,236.98L116.04,171.65L116.49,169.72L116.84,170.42L116.95,170.33L117.25,170.54L117.55,169.63L117.75,170.18L117.85,170.47L118.61,169.64L118.66,169.77L118.76,170.07L119.52,169.59L119.52,176.28L119.67,175.93L119.67,171.65L119.82,171.78L119.82,242.83L119.97,240.51L119.97,171.78L120.47,160.12L120.57,142.86L120.72,162.73L121.18,116.7L121.22,146.62L121.33,147.13L121.63,157.12L122.08,89.79L122.08,137.67L122.13,135.27L122.24,129.8L122.24,89.79L122.39,129.8L122.84,106.17L122.84,100.73L122.99,102.13L122.99,112.86L123.14,160.57L123.49,61L123.59,59.94L123.75,151.78L124.25,114.89L124.35,84.15L124.8,155.68L125,149.35L125.11,159.5L125.11,117.5L125.71,220.44L125.86,153.54L125.91,156.34L126.16,171.66L126.77,171.55L126.81,171.84L126.92,172.5L127.07,170.37L127.42,171.15L127.52,171.11L128.28,171.42L128.43,171.32L128.48,171.22L129.64,170.09L129.68,170.14L129.79,170.26L130.7,169.5L130.85,169.64L130.89,169.82L131.3,169.66L131.45,170.22L131.65,169.79L131.75,169.47L132.66,169.63L132.66,169.63L132.71,169.64L133.27,169.14L133.27,236.05L133.42,235.94L133.42,171.65L133.57,171.9L133.57,169.03L133.87,168.73L133.87,235.64L134.02,235.97L134.02,178.34L134.17,178.24L134.17,169.06L134.32,168.85L134.32,175.44L134.62,170.23L134.62,178.93L134.78,179.33L134.78,164.96L134.93,157.87L134.93,232.45L135.98,105.86L135.98,206.7L136.14,198.49L136.14,125.93L137.19,106.44L137.24,107.66L137.34,105.37L137.65,103.66L137.8,170.57L137.99,131.98L138.1,129.9L138.55,157.07L138.55,68.28L138.75,146.94L138.86,151.67L138.86,72.28L139.46,161.79L139.61,151.58L139.66,155.62L139.76,122.97L140.56,172.13L140.67,173.23L140.67,172.1L140.82,177.96L141.42,174.49L141.47,174.02L141.58,177.94L141.73,172.94L141.88,172.97L141.88,177.77L142.03,177.93L142.03,172.97L142.18,172.6L142.18,177.92L142.33,178.42L142.33,172.6L142.48,172.57L142.48,178.42L142.63,178.55L142.63,172.57L142.78,172.26L142.78,178.55L142.94,178.69L142.94,172.26L143.09,172.47L143.09,178.69L143.39,172.15L143.43,177.55L143.54,177.91L144.14,178.01L144.29,171.43L144.29,177.79L144.34,177.77L145.05,177.92L145.2,171.56L145.2,177.83L145.35,177.16L145.35,171.65L145.5,171.97L145.5,177.16L145.65,177.23L145.65,171.97L145.81,172.17L145.81,177.23L145.96,176.75L145.96,172.16L146.11,172.63L146.11,176.75L146.26,176.79L146.26,172.63L146.41,164.04L147.06,168.88L147.17,168.99L147.32,169.18L147.51,168.68L147.62,168.22L147.92,169.07L147.92,175.76L148.07,175.31L148.07,171.65L148.22,171.63L148.22,175.29L148.37,175.16L148.37,164.96L148.53,164.55L148.53,168.06L148.83,168.65L148.87,167.96L148.98,166.34L149.43,157.27L149.43,224.17L150.19,111.65L150.23,148.93L150.34,152.48L150.34,179.46L151.09,81.33L151.09,136.08L151.14,133.6L151.25,127.83L151.25,74.64L151.4,83.03L151.4,194.74L151.55,191.34L151.55,103.1L151.85,98.32L152,112.4L152,112.4L152.05,120.58L152.3,66.87L152.45,142.87L152.76,121.74L152.8,119.83L152.91,115.38L152.91,48.47L153.66,123.35L153.66,190.25L153.96,208.01L154.12,141.11L154.61,154.41L154.72,161.05L154.72,154.2L155.32,178.05L155.37,171.62L155.48,171.56L156.08,184.19L156.23,166.43L156.23,166.43L156.28,166.38L157.03,183.8L157.14,183.79L157.14,165.37L157.29,165.9L157.29,178.04L157.44,177.39L157.44,171.65L157.59,171.93L157.59,177.39L157.74,176.47L157.74,171.93L157.89,171.59L157.89,176.41L158.04,176.08L158.04,171.65L158.2,171.96L158.2,176.09L158.35,176.37L158.35,171.96L159.1,169.31L159.15,169.39L159.25,169.6L160.16,169.15L160.31,169.49L160.36,169.48L161.37,168.83L161.41,169.02L161.52,169.46L161.82,168.59L161.82,175.28L161.97,175.76L161.97,171.65L162.12,171.73L162.12,169.07L162.28,168.38L162.73,168.73L162.73,235.64L162.88,235.4L162.88,104.74L163.03,105.17L163.03,222.02L163.18,221.97L163.18,125.24L163.33,124.63L163.33,208.59L163.48,207.42L163.48,138.01L163.63,136.19L163.63,187.35L163.79,186.88L163.79,156.27L163.94,167.48L164.44,132.91L164.54,125.71L164.54,207.61L165.19,100.9L165.3,95.96L165.3,135.27L165.9,83.52L166.05,83.52L166.1,82.36L166.2,79.63L166.2,51.38L166.35,50.16L166.35,56.85L166.51,54.2L166.66,55.34L166.66,68.72L166.81,65.38L167.16,74.63L167.26,76.14L168.02,94.72L168.17,93.72L168.17,100.41L169.38,170.45L169.38,237.35L169.53,242.01L169.53,164.96L169.68,168.61L169.68,238.97L169.83,237.94L169.83,104.74L169.98,105.09L169.98,217.87L170.13,218.36L170.13,125.16L170.28,124.3L170.28,198.29L170.43,198.47L170.43,144.38L170.59,144.97L170.59,178.4L170.74,177.28L170.74,165.04L170.89,164.87L170.89,170.5L171.19,172.39L171.34,170.34L171.39,170.92L171.49,170.54L171.79,171.04L172.14,170.59L172.25,170.25L173,169.24L173.15,169.27L173.2,169.37L173.61,169.18L173.91,169.42L173.95,169.31L174.06,169.05L174.56,169L174.71,169.18L174.82,169.38L176.33,168.66L176.37,168.92L176.48,169.54L176.78,168.69L176.78,175.38L176.93,175.71L176.93,171.65L177.08,171.88L177.08,175.71L177.23,175.28L177.23,171.88L177.38,171.58L177.38,168.51L177.69,169.1L177.84,168.21L177.84,174.9L178.59,158.69L178.59,152L179.35,117.06L179.35,207.3L179.5,199.42L179.5,76.91L179.65,68.3L179.65,246.25L179.8,239.75L179.8,21.47L179.95,16L179.95,217.91L180.1,214.13L180.1,37.84L180.26,34.02L180.26,194.06L180.41,189.81L180.41,47.4L180.56,43.55L180.56,169.73L180.71,168.31L180.71,60.28L181.01,63.91L181.46,50.19L181.46,117.1L181.62,116.96L181.66,117.45L181.77,118.64L181.92,121.26L181.92,54.35L182.97,103.65L182.97,170.56L183.28,184.02L183.28,113.31L184.64,178.39L184.68,171.46L184.79,171.01L184.79,177.75L185.54,171.74L185.59,171.76L185.69,177.37L186.15,169.7L186.3,171.29L186.34,171.14L186.45,170.8L186.6,171L186.6,177.69L186.75,176.87L186.75,171.65L186.9,171.15L186.9,176.37L187.05,175.99L187.05,171.65L187.21,175.99L187.36,175.67L187.36,172.53L187.51,172.14L187.51,175.67L187.66,175.89L187.66,172.14L187.81,172.16L187.81,175.89L187.96,175.62L187.96,172.16L188.11,172.29L188.11,175.62L188.26,175.59L188.26,165.6L188.41,165.55L188.41,169.49L189.17,169.1L189.21,169.29L189.32,169.76L189.77,169.91L190.08,169.05L190.23,169.21L190.27,169.3L190.83,169.63L191.03,169.37L191.13,169.12L192.19,168.5L192.19,175.19L192.34,174.54L192.34,171.65L192.49,171.48L192.49,174.37L192.95,164.96L192.95,164.96L192.99,161.29L193.85,126.01L193.9,145.09L194,140.72L194,192.92L194.31,80.42L194.65,95.52L194.76,93.23L195.21,67.34L195.41,70.13L195.52,65.8L195.67,73.31L196.12,64.18L196.27,67.45L196.32,70.3L197.48,104.16L197.48,171.06L197.63,180.3L197.63,104.75L197.93,137.09L197.93,204L198.08,213.79L198.08,171.65L198.24,180.69L198.24,146.89L198.99,178.34L199.19,173.71L199.29,173.93L199.9,172.14L199.94,177.76L200.05,178.62L200.5,164.49L200.8,171.45L200.85,171.38L202.16,169.67L202.21,169.75L202.32,169.96L203.57,169.78L203.67,169.52L204.43,169.9L204.63,169.6L204.73,169.26L205.34,169.56L205.38,169.44L205.49,169.13L205.64,169.54L205.79,169.42L205.79,176.11L205.94,175.91L205.94,171.65L206.09,171.49L206.09,169.06L206.24,169.12L206.24,236.03L206.39,235.63L206.39,104.74L206.55,104.82L206.55,215.56L206.7,216.05L206.7,124.89L206.85,124.69L206.85,195.98L207,194.89L207,144.76L207.15,147.52L207.15,174.82L207.3,179.73L207.45,164.53L207.5,168.66L207.6,158.98L207.75,149.01L207.75,218.48L207.91,211.06L207.91,102.18L208.06,96.76L208.06,197.68L208.21,188.31L208.21,116.84L208.36,107.36L208.36,168.24L208.51,161.67L208.51,110.77L208.66,104.95L208.66,151.58L208.96,107.12L208.96,151.49L209.27,103.01L209.27,141.75L209.42,136.02L209.42,96.32L209.57,94.61L209.57,136.02L209.72,133.03L209.72,94.61L209.87,100.81L209.91,79.77L210.02,73.67L210.32,142.21L210.63,71.3L210.67,72.44L210.78,75.25L211.53,98.82L211.53,98.82L211.58,99.13L211.68,99.89L211.68,93.2L213.95,184.86L213.95,180.01L214.1,184.86L214.25,183.59L214.25,180.79L214.4,181.13L214.4,176.9L214.55,181.13L214.7,177.89L214.75,177.82L214.86,177.64L214.86,180.17L215.01,180.27L215.01,170.96L215.16,170.5L215.16,179.12L215.61,180.38L215.65,177.1L215.76,176.62L215.76,180.37L216.06,176.19L216.41,180.06L216.52,180.17L216.67,169.38L217.27,177.61L217.32,177.72L217.42,178L217.42,171.65L217.58,171.67L217.58,178L217.73,177.78L217.73,171.67L217.88,171.65L217.88,177.78L218.03,178.22L218.03,171.65L218.18,171.43L218.18,178L218.33,177.92L218.33,171.65L218.48,163.76L219.09,169.35L219.13,169.37L219.73,169.58L219.84,169.29L220.6,169.59L220.75,169.37L220.79,169.35L221.05,236.99L221.5,168.42L221.5,168.42L221.55,168.89L221.81,173.87L221.96,171.36L222,167.79L223.01,126.85L223.01,202.65L223.17,195.99L223.17,146.92L223.32,137.27L223.32,182.61L223.47,176.92L223.47,90.44L223.62,80.66L223.62,156.85L223.77,153.04L223.77,82.12L223.92,77.58L223.92,144.89L224.07,140.34L224.07,70.89L224.22,66.11L224.22,140.34L224.37,138.23L224.37,66.11L224.53,65.71L224.53,211.83L224.68,207.81L224.68,85.78L224.83,85.55L224.83,120.83L224.98,117.75L224.98,92.24L225.13,95.56L225.13,68.43L225.28,67.76L225.28,61.07L226.38,103.92L226.49,112.94L227.7,176.15L228.04,171.32L228.15,170.47L228.61,173.13L228.76,169.48L228.8,171.07L228.91,171.32L229.06,171.12L229.1,171.46L229.21,172.31L229.81,169.66L229.86,177.68L229.97,177.73L229.97,171.65L230.72,174.99L230.76,174.96L231.17,168.14L231.63,169.91L231.67,170.01L231.78,170.25L232.08,169.32L232.27,169.56L232.38,169.63L233.14,169.5L233.18,169.55L233.29,169.7L233.44,169.9L233.79,169.25L233.89,169.07L234.2,169.84L234.65,169.02L234.69,168.93L234.8,168.71L235.15,169.33L235.25,169.63L236.05,167.23L236.16,165.2L236.46,165.69L236.46,165.69L236.51,163.7L236.92,144.35L236.92,215.37L237.07,211.1L237.07,97.51L237.22,87.41L237.22,197.71L238.12,168.01L238.12,98.97L238.28,95.46L238.28,151.58L238.43,142.93L238.43,88.77L238.58,85.24L238.58,142.93L238.73,137.05L238.73,70.71L238.88,70.88L238.88,64.19L239.03,73.6L239.68,70.81L239.79,74.55L240.74,108.42L240.84,122.95L242.05,185.19L242.25,179.51L242.35,177.38L242.81,173.42L242.96,180.27L243,173.68L243.11,174.33L243.11,180.27L243.76,176.17L243.87,175.99L244.47,174.67L244.62,177.41L244.62,174.67L244.66,174.4L244.77,177.4L245.07,173.35L245.07,176.45L245.12,176.61L245.23,177.03L245.23,173.35L245.38,173.27L245.38,177.03L245.53,176.99L245.53,173.27L245.68,173.19L245.68,176.99L245.83,177.12L245.83,173.19L245.98,168.62L245.98,174.09L246.63,169.76L246.74,169.94L247.04,170.12L247.19,169.42L247.53,170.07L247.64,169.96L248.7,169.69L248.7,176.38L248.85,176.26L248.85,164.96L249,164.68L249,169.29L249.8,169.48L249.91,169.53L250.36,168.32L250.36,235.22L250.51,234.84L250.51,171.65L250.67,169.22L250.67,232.41L250.82,233.02L250.82,171.65L250.97,175.69L251.01,163.23L251.12,155.87L251.12,159.91L251.72,131.85L251.87,145.23L251.92,144.11L252.18,127.46L252.18,147.95L253.08,101.94L253.08,126.53L253.23,122.39L253.23,95.25L253.38,94.91L253.38,122.39L253.54,115.09L253.54,58.42L253.69,52.69L253.84,61.35L254.18,57.93L254.29,62.64L254.74,146.96L254.94,86.9L255.05,89.87L255.65,205.54L255.8,138.64L255.84,141.79L256.1,171.07L256.26,170.78L256.26,231L256.41,244.24L256.41,178.34L256.45,179.38L256.56,182.04L256.71,245.06L256.86,112.79L257.31,150.19L257.36,150.61L257.46,151.68L257.46,187.7L257.62,186.12L257.62,164.96L257.77,165.19L257.77,179.66L257.92,180.68L257.92,171.65L258.07,170.27L258.07,179.29L258.22,179.51L258.22,171.65L258.37,179.51L258.56,173.23L258.67,172.86L258.67,178L258.98,169.72L259.32,170.6L259.43,171.56L260.18,169.63L260.23,169.64L260.34,169.67L260.94,169.95L261.28,169.61L261.39,169.64L262.15,170.44L262.34,170.06L262.45,170.09L262.9,169.32L263.1,169.9L263.21,170.1L264.11,169.3L264.26,169.64L264.26,176.33L264.41,176.42L264.41,171.65L264.57,171.55L264.57,176.32L264.72,176.12L264.72,231.87L264.87,232.41L264.87,176.12L265.02,175.27L265.02,165.51L265.17,166.42L265.93,141.6L265.93,210.58L266.23,150.72L266.23,113.94L266.38,104.26L266.38,150.72L266.42,149.31L266.53,145.68L266.98,90.92L267.18,96.26L267.29,92.76L267.29,129.26L268.04,78.94L268.04,78.94L268.08,79.01L268.19,79.2L268.19,122.43L268.34,120.23L268.34,152.79L268.49,153.98L268.49,55.72L268.65,55.75L268.65,62.44L268.8,63.07L268.8,136.67L268.95,141.01L268.95,134.32L269.1,135.95L269.1,69.05L271.06,187.32L271.52,180.76L271.52,170.09L271.67,171.32L271.67,180.43L271.82,171.65L271.97,172.07L271.97,178.98L272.12,179.2L272.12,172.07L272.27,171.82L272.27,179.2L272.42,180.74L272.42,171.83L272.57,170.62L272.57,179.71L272.72,179.42L272.72,171.65L272.88,171.57L272.88,179.34L273.18,168.96L273.48,172.81L273.48,238.56L273.63,237.25L273.63,172.81L273.93,169.39L274.58,169.96L274.69,170.22L275.75,169.93L275.75,169.93L275.79,170.01L276.05,169.66L276.5,170.11L276.54,170.04L276.65,169.88L279.37,169.1L279.37,175.79L279.52,175.6L279.52,171.65L280.13,154.16L280.13,154.16L280.17,151.23L280.28,143.52L280.28,158.27L280.43,149.59L280.43,210.42L280.58,206.44L280.58,176.35L280.73,162.86L280.73,190.97L280.88,177.46L280.88,104.74L281.04,95.83L281.04,150.69L281.19,143.3L281.19,95.83L281.34,88.44L281.34,149.99L281.49,142.84L281.49,88.44L281.64,86.11L281.64,142.84L281.79,138.03L281.79,86.11L281.94,83.37L281.94,131.34L282.09,126.34L282.09,58.13L282.24,57.16L282.24,63.85L282.7,58.39L282.85,60.01L282.85,120.23L283.15,118.92L283.15,58.7L283.45,68.02L283.45,74.71L283.75,88.14L283.75,155.04L283.91,151.84L284.06,161.01L284.06,100.8L284.21,99.04L285.11,152.74L285.11,152.74L285.16,155.91L285.72,179.06L286.06,171.78L286.17,171.84L286.32,178.53L286.82,173.1L286.93,172.14L287.38,178.88L287.53,170.51L287.68,171.65L287.72,171.71L287.83,171.85L287.99,170.96L287.99,171.15L288.03,165.78L288.14,151.58L288.29,170.2L288.74,170.18L288.78,170.07L289.65,169.54L289.69,169.6L289.8,169.76L290.6,169.41L290.71,169.02L291.46,169.89L291.61,169.76L291.65,169.64L292.22,168.81L292.56,169.2L292.67,169.45L293.42,168.92L293.42,175.61L293.58,175.33L293.58,171.65L293.73,172.02L293.73,168.64L294.03,168.04L294.03,234.94L294.18,233.47L294.18,118.13L294.33,117.17L294.33,213.39L294.48,213.18L294.48,137.24L294.63,132.56L294.63,193.1L294.78,189.48L294.78,152.63L294.94,169.41L295.54,122.27L295.54,211.83L295.69,208.65L295.69,68.75L295.84,66.66L295.84,188.58L295.99,176.25L295.99,86.73L296.14,86.15L296.14,229.78L296.3,217.84L296.3,106.22L296.45,103.59L296.45,130.86L296.6,103.59L296.79,131.07L296.9,161.68L297.35,117.33L297.35,184.24L297.55,132.1L297.66,112.84L297.66,45.94L298.26,118.11L298.41,116.06L298.45,113.5L298.71,104.04L298.91,121.25L299.02,129.08L299.92,180.7L300.27,176.14L300.38,174.74L300.38,178.14L301.13,176.96L301.17,176.7L301.43,175.47L301.47,178.46L301.58,184.96L301.73,174.54L302.23,175.51L302.34,175.61L302.64,175.9L302.83,175L302.94,174.7L303.55,174.14L303.59,175.68L303.7,175.8L303.85,166.16L304.45,170.15L304.5,170.14L305.36,169.54L305.55,169.76L305.66,169.89L306.42,169.05L306.42,235.95L306.57,235.8L306.57,111.43L306.72,111.91L306.72,209.03L306.87,208.75L306.87,131.98L307.02,131.92L307.02,188.68L307.17,188.35L307.17,151.99L307.33,151.55L307.33,168.28L308.23,168.93L308.27,168.85L308.38,168.64L308.38,235.55L308.69,100.9L309.03,192.73L309.14,191.95L309.74,226.29L309.89,76.74L309.89,206.21L309.93,199.63L310.2,92.7L310.24,168.39L310.35,168.22L311.1,99.42L311.1,131.08L311.14,130.67L311.25,129.59L311.25,92.73L311.41,91.41L311.41,129.59L311.56,126.84L311.56,158.31L311.71,158.16L311.71,146.8L311.86,139.91L311.86,84.67L312.01,81.79L312.01,139.91L312.16,142.01L312.16,72.22L312.5,78.03L312.61,83.32L312.61,76.63L313.26,178.86L313.37,188.27L313.67,198.07L313.82,127.78L314.12,149.68L314.17,151.87L314.58,173.44L314.73,169.85L314.73,238.54L314.88,239.74L314.88,171.65L315.03,169.71L315.33,173.66L315.53,172.74L315.64,171.8L316.09,170.46L316.39,184.2L316.39,184.2L316.43,184.21L316.69,171.24L317.19,171.61L317.3,170.74L317.3,176.4L317.45,164.96L318.05,169.4L318.09,169.43L319.6,169.47L319.72,169.67L320.32,169.89L320.62,169.11L320.66,169.16L320.77,169.33L321.53,169.41L321.57,169.26L321.68,168.87L322.13,168.89L322.13,235.8L322.28,235.29L322.28,171.65L322.43,171.95L322.43,235.29L322.59,235.01L322.59,105.04L322.74,105.46L322.74,214.93L322.89,214.65L322.89,125.53L323.04,124.16L323.04,201.27L323.19,197.1L323.19,144.24L323.34,143.85L323.34,177.02L323.49,177.61L323.49,163.93L323.64,162.68L323.64,168.63L323.68,165.95L323.79,158.62L323.99,152.08L324.1,139.3L324.55,129.78L324.55,191.66L324.85,171.13L324.89,169.68L325.15,159.62L325.15,92.72L325.31,80.08L325.31,158.27L325.46,156.66L325.46,85.16L325.61,85.19L325.61,151.58L325.76,143.47L325.76,85.19L325.91,87.62L325.91,150.16L326.06,141.51L326.06,87.62L326.21,85.64L326.21,134.82L326.36,130.7L326.36,85.64L326.51,87.65L326.51,130.7L326.67,129.88L326.67,94.34L326.82,92.67L326.82,123.19L326.97,129.16L326.97,76.94L327.87,164.96L328.03,126.69L328.03,120L329.39,172.75L329.58,170.68L329.69,170.78L329.84,172.47L329.99,170.04L330.48,171.2L330.59,170.87L330.9,168.87L331.35,177.71L331.5,177.69L331.5,172.54L331.65,165.29L332.26,169.82L332.3,170.23L332.56,169.41L332.86,171.37L332.9,170.89L333.01,169.57L333.31,171.1L333.35,170.68L333.46,169.54L334.07,171.09L334.11,170.75L334.22,169.78L335.58,169.71L335.62,169.95L335.73,170.63L336.49,169.5L336.53,169.59L336.64,169.84L337.24,170.22L337.28,169.97L337.39,169.25L337.89,166.29L338,165.27L338.3,270.13L338.6,33.21L338.75,53.29L338.79,50.71L338.9,43.54L338.9,217.06L339.06,209.96L339.06,137.21L339.21,127.14L339.21,189.89L339.36,183.68L339.36,80.31L339.51,75.11L339.51,163.61L339.66,159.22L339.66,82.75L339.81,80.24L339.81,144.89L339.96,141.5L339.96,70.17L340.26,62.6L340.42,67.23L340.42,134.14L340.57,133.84L340.72,134.74L340.72,134.74L340.76,135.65L341.02,139.72L341.17,134.29L341.17,67.38L342.23,96.76L342.23,96.76L342.27,99.41L343.74,172.8L344.08,171.41L344.19,170.72L344.34,174.26L344.49,168.46L344.84,170.86L344.95,168.64L345.25,239.9L345.7,170.93L345.74,170.97L346.16,171.29L346.2,171.08L346.31,170.49L346.61,169.44L347.1,169.69L347.21,169.81L347.97,170.03L348.01,170L348.12,169.88L348.57,169.42L348.92,169.85L349.03,169.95L349.78,169.05L349.97,169.51L350.09,169.61L350.39,169.02L350.69,169.35L350.69,176.04L350.84,176.35L350.84,164.96L350.99,164.63L350.99,169.33L351.14,151.58L351.29,169.39L351.64,169.37L351.75,169.43L351.9,168.97L351.9,235.88L352.05,235.44L352.05,104.74L352.2,102.29L352.2,215.37L352.35,214.88L352.35,122.36L352.5,121.94L352.5,201.5L352.65,192.38L352.65,142.02L352.8,172.3L353.41,122.54L353.41,142.83L354.32,106.63L354.47,111.7L354.47,66.76L354.77,60.56L354.77,127.47L354.92,126.1L354.92,65.89L355.07,44.34L355.41,78.57L355.52,97.47L355.98,52.38L356.13,80.26L356.13,86.95L356.43,75.56L356.73,116.14L356.88,99.06L356.88,165.97L357.34,195.72L357.34,127.64L357.34,127.64L357.38,129.01L357.49,132.88L357.49,175.65L357.64,190.72L357.64,152.96L358.13,179.16L358.24,156.91L358.4,192.56L358.55,130.67L358.89,159.1L359,159.1L359,158.27L359.64,158.27L359.76,158.27L360.06,158.27L360.06,151.58L360.66,179.87L360.85,171.72L360.96,171.48L361.11,178.45L361.61,177.95L361.72,177.59L362.47,169.56L362.47,169.56L362.51,169.66L362.63,169.97L362.93,169.38L363.12,169.49L363.23,169.31L363.83,169.92L364.14,169.54L364.14,236.44L364.29,236.53L364.29,104.75L364.44,104.4L364.44,216.46L364.59,216.74L364.59,124.47L364.74,124.51L364.74,196.67L364.89,196.64L364.89,144.58L365.04,144.18L365.04,176.56L365.19,176.89L365.19,164.26L365.35,164.62L365.35,169.86L365.65,168.87L365.95,169.5L365.95,176.19L366.1,175.73L366.1,171.65L366.25,171.25L366.25,175.33L366.4,175.36L366.4,238.56L366.55,238.9L366.55,101.76L366.71,99.85L366.71,218.82L366.86,217.33L366.86,119.93L367.01,119.04L367.01,203.95L367.16,195.78L367.16,139.11L367.31,130.19L367.31,175.7L367.91,125.97L368.07,132.98L368.07,192.88L368.22,185L368.22,86.15L368.37,79.35L368.37,164.93L368.52,160.18L368.52,87.96L368.67,84.39L368.67,144.89L368.82,140.79L368.82,84.39L368.97,162.36L369.43,63.15L369.58,157.07L369.58,68.64L369.73,65.16L369.73,151.58L369.88,153.73L369.88,74.01L370.18,74.53L370.33,67.06L370.52,71.36L370.63,75.19L370.78,70.61L370.98,80.71L371.09,85.61L371.88,141.2L371.99,148.22L372.6,180.45L373.09,179.81L373.2,180.26L373.2,172.04L373.35,247.17L373.85,178.86L373.96,177.94L374.11,180.22L374.56,171.55L374.71,171.65L374.75,172.2L375.02,180.76L375.02,240.68L375.17,236.15L375.17,180.76L375.32,179.57L375.32,169.25L375.47,168.61L375.47,176.53L375.62,177.81L375.62,171.65L375.62,171.65L375.66,171.4L375.77,170.68L375.77,176.84L375.92,176.42L375.92,171.65L376.07,171.72L376.07,176.42L376.22,177.02L376.22,171.72L376.38,173.22L376.53,168.14L376.72,170.04L376.83,169.85L376.98,151.76L377.47,169.9L377.58,170.84L378.64,169.65L378.64,176.34L378.79,176.07L378.79,171.65L378.94,171.71L378.94,176.07L379.1,176.2L379.1,165.02L379.25,164.97L379.25,169.52L379.55,169.75L379.85,169.38L380,169.6L380.04,169.64L380.15,169.75L380.46,169.1L380.46,169.1L380.49,164.6L380.61,151.58L380.76,169.5L381.21,166.69L381.25,166.41L381.51,164.56L381.51,231.47L381.66,223.73L381.66,171.65L382.57,121.96L382.57,151.58L382.72,143.51L382.72,188.87L383.02,152.2L383.02,81.86L383.17,77.63L383.17,158.27L383.48,145.22L383.48,158.27L383.63,156.27L383.63,83.01L383.78,77.25L383.78,151.58L383.93,151.98L383.93,70.97L384.08,72.76L384.08,218.49L384.23,304L384.23,104.74L384.57,124.82L384.69,124.82L384.69,198.41L385.44,158.27L385.48,158.27L386.2,123.5L386.2,158.27L386.24,160.4L386.35,145.21L387.1,188.06L387.14,175.32L387.25,174.66L387.41,190.54L387.71,164.96L387.9,178.66L388.01,178.42L388.01,238.56L388.61,105.21L388.65,218.03L388.77,219.32L388.92,124.01L389.52,159.28L389.56,164.28L389.67,178.89L389.82,162.85L390.31,170.13L390.43,169.93L391.79,169.63L391.83,169.73L391.94,170.02L392.69,169.78L392.73,169.89L392.84,170.2L393.15,169.52L393.15,236.43L393.3,236.46L393.3,171.65L393.45,171.89L393.45,169.55L394.05,169.89L394.2,169.1L394.24,169.18L394.36,169.42L395.26,169.16L395.26,175.85L395.41,175.69L395.41,164.96L395.56,165L395.56,169.04L396.02,154.42L396.21,160.09L396.32,165.89L396.47,171.3L396.51,165.14L396.62,147.05L397.08,177.96L397.23,134.43L397.26,160.1L397.38,166.62L398.13,121.19L398.13,135.77L398.17,137.81L398.28,143.8L398.32,121.4L398.44,102.33L398.89,256.06L399.19,85.7L399.19,85.7L399.23,95.87L399.34,225.18L399.64,143.1L399.64,96.93L400.1,226.27L400.4,215.11L400.4,104.75L400.55,109.6L400.55,195.04L400.7,209.27L400.7,129.67L400.85,135.6L400.85,189.2L401,186.6L401,155.67L401.61,186.2L401.91,185.9L401.91,240.11L402.06,242.13L402.06,185.9L402.21,175.53L402.21,242.13L402.36,242.41L402.36,108.63L402.51,108.81L402.51,222.34L402.67,223.77L402.67,128.88L402.82,127.13L402.82,203.7L402.97,203.42L402.97,147.21L403.12,147.61L403.12,183.35L403.27,183L403.27,167.69L403.42,169.38L403.42,180.73L403.57,171.65L403.72,178.8L403.76,178.71L403.87,178.45L403.87,172.11L404.03,172.28L404.03,178.45L404.18,178.73L404.18,172.28L404.33,171.38L404.33,178.46L405.08,177.67L405.08,177.67L405.12,176.32L405.23,178.18L406.14,151.58L406.18,156.12L406.29,169.58L406.59,169.02L407.09,169.27L407.2,169.48L407.65,169.05L407.8,169.47L407.84,169.4L407.95,169.18L408.11,169.07L408.26,169.48L408.29,164.98L409.16,151.58L409.16,151.58L409.2,151.58L409.47,151.58L409.47,158.27L410.07,158.27L410.07,151.58L410.52,151.58L410.52,151.58L410.56,155L410.98,229.34L411.13,227.8L411.13,171.65L411.88,124.38L412.03,127.97L412.03,191.29L412.18,186.74L412.18,148.04L412.34,142.56L412.34,166.67L412.34,166.67L412.37,169.58L412.49,178.27L412.64,143.36L412.64,91.29L412.79,84.23L412.79,143.36L412.94,218.92L413.28,54.84L413.39,47.82L413.39,186.87L414.04,153.15L414.15,157.84L414.15,72.78L414.9,225.18L414.9,225.18L414.94,229.18L415.06,241.17L415.06,125.19L415.21,127.62L415.21,221.1L415.36,236.14L415.36,87.47L415.51,92.88L415.51,216.07L415.66,227.2L415.66,112.95L415.81,119.88L415.81,200.44L415.96,205.39L415.96,146.64L416.11,152.59L416.11,186.32L416.26,185.31L416.26,171.65L416.42,170.88L416.42,177.85L416.57,177.66L416.57,171.65L416.72,177.66L417.17,176.46L417.17,165.91L417.32,172.64L417.81,170.75L417.93,170.8L418.38,171.16L419.14,169.06L419.17,169.16L419.29,169.46L419.59,168.93L419.59,175.62L419.74,176.07L419.74,171.65L419.89,171.39L419.89,175.8L420.04,175.76L420.04,171.65L420.34,175.92L420.49,171.39L420.65,175.44L420.65,164.96L420.8,165.23L420.8,169.01L421.1,168.79L421.55,169.24L421.59,169.19L421.7,169.02L421.85,169.56L422.31,168.78L422.46,169.15L422.5,169.03L423.06,169.4L423.37,168.59L423.37,175.28L423.52,175.43L423.52,171.65L423.67,171.71L423.67,175.43L423.82,175.3L423.82,165.02L423.97,164.67L423.97,168.32L424.57,168.75L424.61,168.13L424.73,166.24L424.88,163.76L425.03,167.72L425.03,234.63L425.18,237.44L425.18,104.75L425.33,105.78L425.33,284.27L425.48,282.49L425.48,58.95L425.63,52.55L425.63,262.42L425.78,253.25L425.78,72.63L425.93,64.75L425.93,233.18L426.09,227.87L426.09,91.52L426.24,91.14L426.24,207.79L426.39,212.56L426.39,178.12L427.45,91.66L427.45,127.96L427.6,126.31L427.6,91.66L427.75,97.47L427.75,193.22L427.9,189.54L427.9,117.54L428.35,109.23L428.5,115.01L428.5,116.54L428.81,125.27L428.81,117.89L429.11,140.49L429.11,115.06L430.47,168.68L430.47,242.28L430.62,245.58L430.62,171.65L430.77,173.77L430.77,245.58L430.92,243.69L430.92,106.86L431.07,107.27L431.07,223.62L431.22,224.76L431.22,127.35L431.37,126.07L431.37,204.68L431.52,146.14L432.02,177.54L432.13,177.33L432.28,171.42L432.43,177.38L432.88,176.91L432.92,176.97L433.04,177.17L433.04,171.93L433.19,171.75L433.19,177.17L433.34,176.27L433.34,165.06L433.49,164.72L433.49,169.34L434.55,169.55L434.55,169.55L434.58,165.16L435,151.58L435,151.58" style="vector-effect: non-scaling-stroke; fill: none; stroke: rgb(0, 128, 0); stroke-opacity: 1; stroke-width: 2px; opacity: 1;"/></g><g class="points"/><g class="text"/></g></g></g><g class="overplot"/><path class="xlines-above crisp" d="M0,0" style="fill: none;"/><path class="ylines-above crisp" d="M0,0" style="fill: none;"/><g class="overlines-above"/><g class="xaxislayer-above"><g class="xtick"><text text-anchor="middle" x="0" y="433" transform="translate(152.53,0)" style="font-family: 'Open Sans', verdana, arial, sans-serif; font-size: 12px; fill: rgb(42, 63, 95); fill-opacity: 1; white-space: pre; opacity: 1;"><tspan class="line" dy="0em" x="0" y="433">Nov 6</tspan><tspan class="line" dy="1.3em" x="0" y="433">2022</tspan></text></g><g class="xtick"><text text-anchor="middle" x="0" y="433" style="font-family: 'Open Sans', verdana, arial, sans-serif; font-size: 12px; fill: rgb(42, 63, 95); fill-opacity: 1; white-space: pre; opacity: 1;" transform="translate(254.06,0)">Nov 13</text></g><g class="xtick"><text text-anchor="middle" x="0" y="433" style="font-family: 'Open Sans', verdana, arial, sans-serif; font-size: 12px; fill: rgb(42, 63, 95); fill-opacity: 1; white-space: pre; opacity: 1;" transform="translate(355.6,0)">Nov 20</text></g><g class="xtick"><text text-anchor="middle" x="0" y="433" style="font-family: 'Open Sans', verdana, arial, sans-serif; font-size: 12px; fill: rgb(42, 63, 95); fill-opacity: 1; white-space: pre; opacity: 1;" transform="translate(457.13,0)">Nov 27</text></g></g><g class="yaxislayer-above"><g class="ytick"><text text-anchor="end" x="79" y="4.199999999999999" transform="translate(0,385.39)" style="font-family: 'Open Sans', verdana, arial, sans-serif; font-size: 12px; fill: rgb(42, 63, 95); fill-opacity: 1; white-space: pre; opacity: 1;">100</text></g><g class="ytick"><text text-anchor="end" x="79" y="4.199999999999999" style="font-family: 'Open Sans', verdana, arial, sans-serif; font-size: 12px; fill: rgb(42, 63, 95); fill-opacity: 1; white-space: pre; opacity: 1;" transform="translate(0,318.49)">50</text></g><g class="ytick"><text text-anchor="end" x="79" y="4.199999999999999" style="font-family: 'Open Sans', verdana, arial, sans-serif; font-size: 12px; fill: rgb(42, 63, 95); fill-opacity: 1; white-space: pre; opacity: 1;" transform="translate(0,251.58)">0</text></g><g class="ytick"><text text-anchor="end" x="79" y="4.199999999999999" style="font-family: 'Open Sans', verdana, arial, sans-serif; font-size: 12px; fill: rgb(42, 63, 95); fill-opacity: 1; white-space: pre; opacity: 1;" transform="translate(0,184.67000000000002)">50</text></g><g class="ytick"><text text-anchor="end" x="79" y="4.199999999999999" style="font-family: 'Open Sans', verdana, arial, sans-serif; font-size: 12px; fill: rgb(42, 63, 95); fill-opacity: 1; white-space: pre; opacity: 1;" transform="translate(0,117.77)">100</text></g></g><g class="overaxes-above"/></g></g><g class="polarlayer"/><g class="smithlayer"/><g class="ternarylayer"/><g class="geolayer"/><g class="funnelarealayer"/><g class="pielayer"/><g class="iciclelayer"/><g class="treemaplayer"/><g class="sunburstlayer"/><g class="glimages"/><defs id="topdefs-cc4be3"><g class="clips"/><clipPath id="legendcc4be3"><rect width="164" height="67" x="0" y="0"/></clipPath></defs><g class="layer-above"><g class="imagelayer"/><g class="shapelayer"/></g><g class="infolayer"><g class="legend" pointer-events="all" transform="translate(523.7,100)"><rect class="bg" shape-rendering="crispEdges" width="164" height="67" x="0" y="0" style="stroke: rgb(68, 68, 68); stroke-opacity: 1; fill: rgb(255, 255, 255); fill-opacity: 1; stroke-width: 0px;"/><g class="scrollbox" transform="" clip-path="url(#legendcc4be3)"><g class="groups"><g class="traces" transform="translate(0,14.5)" style="opacity: 1;"><text class="legendtext" text-anchor="start" x="40" y="4.680000000000001" style="font-family: 'Open Sans', verdana, arial, sans-serif; font-size: 12px; fill: rgb(42, 63, 95); fill-opacity: 1; white-space: pre;">BESS</text><g class="layers" style="opacity: 1;"><g class="legendfill"/><g class="legendlines"><path class="js-line" d="M5,0h30" style="fill: none; stroke: rgb(0, 191, 255); stroke-opacity: 1; stroke-width: 2px;"/></g><g class="legendsymbols"><g class="legendpoints"/></g></g><rect class="legendtoggle" x="0" y="-9.5" width="158.71875" height="19" style="fill: rgb(0, 0, 0); fill-opacity: 0;"/></g><g class="traces" transform="translate(0,33.5)" style="opacity: 1;"><text class="legendtext" text-anchor="start" x="40" y="4.680000000000001" style="font-family: 'Open Sans', verdana, arial, sans-serif; font-size: 12px; fill: rgb(42, 63, 95); fill-opacity: 1; white-space: pre;">Solar</text><g class="layers" style="opacity: 1;"><g class="legendfill"/><g class="legendlines"><path class="js-line" d="M5,0h30" style="fill: none; stroke: rgb(255, 0, 0); stroke-opacity: 1; stroke-width: 2px;"/></g><g class="legendsymbols"><g class="legendpoints"/></g></g><rect class="legendtoggle" x="0" y="-9.5" width="158.71875" height="19" style="fill: rgb(0, 0, 0); fill-opacity: 0;"/></g><g class="traces" transform="translate(0,52.5)" style="opacity: 1;"><text class="legendtext" text-anchor="start" x="40" y="4.680000000000001" style="font-family: 'Open Sans', verdana, arial, sans-serif; font-size: 12px; fill: rgb(42, 63, 95); fill-opacity: 1; white-space: pre;">Grid Meter (Net Load)</text><g class="layers" style="opacity: 1;"><g class="legendfill"/><g class="legendlines"><path class="js-line" d="M5,0h30" style="fill: none; stroke: rgb(0, 128, 0); stroke-opacity: 1; stroke-width: 2px;"/></g><g class="legendsymbols"><g class="legendpoints"/></g></g><rect class="legendtoggle" x="0" y="-9.5" width="158.71875" height="19" style="fill: rgb(0, 0, 0); fill-opacity: 0;"/></g></g></g><rect class="scrollbar" rx="20" ry="3" width="0" height="0" x="0" y="0" style="fill: rgb(128, 139, 164); fill-opacity: 1;"/></g><g class="g-gtitle"><text class="gtitle" x="297.5" y="50" text-anchor="middle" dy="0em" style="font-family: 'Open Sans', verdana, arial, sans-serif; font-size: 17px; fill: rgb(42, 63, 95); opacity: 1; font-weight: normal; white-space: pre;"><tspan class="line" dy="0em" x="297.5" y="50">Scenario 3</tspan><tspan class="line" dy="1.3em" x="297.5" y="50">Microgrid Output</tspan><tspan class="line" dy="2.6em" x="297.5" y="50">From: November 01, 2022 to November 30, 2022</tspan></text></g><g class="g-xtitle"><text class="xtitle" x="297.5" y="476.409375" text-anchor="middle" style="font-family: 'Open Sans', verdana, arial, sans-serif; font-size: 14px; fill: rgb(42, 63, 95); opacity: 1; font-weight: normal; white-space: pre;">Time</text></g><g class="g-ytitle"><text class="ytitle" transform="rotate(-90,26.168750000000003,260)" x="26.168750000000003" y="260" text-anchor="middle" style="font-family: 'Open Sans', verdana, arial, sans-serif; font-size: 14px; fill: rgb(42, 63, 95); opacity: 1; font-weight: normal; white-space: pre;">Demand (kW)</text></g></g></svg>