<svg class="main-svg" xmlns="http://www.w3.org/2000/svg" xmlns:xlink="http://www.w3.org/1999/xlink" width="700" height="500" style="" viewBox="0 0 700 500"><rect x="0" y="0" width="700" height="500" style="fill: rgb(255, 255, 255); fill-opacity: 1;"/><defs id="defs-4dbab2"><g class="clips"><clipPath id="clip4dbab2xyplot" class="plotclip"><rect width="432" height="320"/></clipPath><clipPath class="axesclip" id="clip4dbab2x"><rect x="80" y="0" width="432" height="500"/></clipPath><clipPath class="axesclip" id="clip4dbab2y"><rect x="0" y="100" width="700" height="320"/></clipPath><clipPath class="axesclip" id="clip4dbab2xy"><rect x="80" y="100" width="432" height="320"/></clipPath></g><g class="gradients"/><g class="patterns"/></defs><g class="bglayer"/><g class="layer-below"><g class="imagelayer"/><g class="shapelayer"/></g><g class="cartesianlayer"><g class="subplot xy"><g class="layer-subplot"><g class="shapelayer"/><g class="imagelayer"/></g><g class="gridlayer"><g class="x"><path class="xgrid crisp" transform="translate(149.7,0)" d="M0,100v320" style="stroke: rgb(255, 255, 255); stroke-opacity: 1; stroke-width: 1px;"/><path class="xgrid crisp" transform="translate(247.28,0)" d="M0,100v320" style="stroke: rgb(255, 255, 255); stroke-opacity: 1; stroke-width: 1px;"/><path class="xgrid crisp" transform="translate(344.86,0)" d="M0,100v320" style="stroke: rgb(255, 255, 255); stroke-opacity: 1; stroke-width: 1px;"/><path class="xgrid crisp" transform="translate(442.44,0)" d="M0,100v320" style="stroke: rgb(255, 255, 255); stroke-opacity: 1; stroke-width: 1px;"/></g><g class="y"><path class="ygrid crisp" transform="translate(0,345.76)" d="M80,0h432" style="stroke: rgb(255, 255, 255); stroke-opacity: 1; stroke-width: 1px;"/><path class="ygrid crisp" transform="translate(0,187.9)" d="M80,0h432" style="stroke: rgb(255, 255, 255); stroke-opacity: 1; stroke-width: 1px;"/><path class="ygrid crisp" transform="translate(0,108.98)" d="M80,0h432" style="stroke: rgb(255, 255, 255); stroke-opacity: 1; stroke-width: 1px;"/></g></g><g class="zerolinelayer"><path class="yzl zl crisp" transform="translate(0,266.83000000000004)" d="M80,0h432" style="stroke: rgb(255, 255, 255); stroke-opacity: 1; stroke-width: 2px;"/></g><path class="xlines-below"/><path class="ylines-below"/><g class="overlines-below"/><g class="xaxislayer-below"/><g class="yaxislayer-below"/><g class="overaxes-below"/><g class="plot" transform="translate(80,100)" clip-path="url(#clip4dbab2xyplot)"><g class="scatterlayer mlayer"><g class="trace scatter traceb56b28" style="stroke-miterlimit: 2; opacity: 0.5;"><g class="fills"/><g class="errorbars"/><g class="lines"><path class="js-line" d="M0,166.83L432,166.83" style="vector-effect: non-scaling-stroke; fill: none; stroke: rgb(0, 191, 255); stroke-opacity: 1; stroke-width: 2px; opacity: 1;"/></g><g class="points"/><g class="text"/></g><g class="trace scatter tracecd6077" style="stroke-miterlimit: 2; opacity: 0.5;"><g class="fills"/><g class="errorbars"/><g class="lines"><path class="js-line" d="M0,167.01L3.49,166.94L3.63,166.33L4.07,155.73L4.21,147.28L5.66,25.16L5.81,31.07L5.95,64.44L6.39,16.34L6.82,16.4L6.97,16.43L8.13,16.55L8.28,17.35L9,65.5L9.15,77.24L10.75,167.02L10.89,167.02L17.43,166.9L17.57,166.15L18.01,155.11L18.15,146.39L20.04,16.54L20.18,16.55L20.33,16.63L21.35,16.64L21.49,16.67L21.78,16.77L21.93,17.68L22.22,24.64L22.36,41.94L22.51,37.73L22.65,44.54L22.8,58.93L24.54,167.03L24.69,167.02L24.83,167.02L31.37,166.53L31.51,164.48L32.24,132.33L32.38,122.25L33.69,22.56L33.83,38.73L34.12,49.06L34.27,25.76L34.41,16.47L34.71,28.01L34.85,24.89L35,30.09L35.58,16.38L35.72,16.97L35.87,21.84L38.34,167.03L38.48,167.03L45.31,166.94L45.45,166.18L46.76,118.28L46.9,94.71L47.77,31.99L47.92,33.71L48.06,89.89L48.5,133.36L48.94,115.6L49.08,117.1L50.1,154.07L50.24,151.6L50.39,151.81L50.82,158.35L50.97,148.21L51.26,158.82L51.4,152.23L51.55,150.05L52.57,167.02L52.71,167.02L59.25,166.87L59.39,165.57L60.55,123.03L60.7,80.47L60.84,99.49L61.13,78.3L61.28,48.72L61.42,49.51L61.57,59.72L61.71,65.58L61.86,39.87L62,106.92L62.44,20.87L62.59,47.75L62.73,75.2L62.88,73.34L63.02,97.29L63.31,43.18L63.6,74.76L63.75,104.23L63.89,104L64.04,119.17L64.76,159.61L65.2,158.09L65.34,151.26L65.49,152.17L65.63,159.5L66.8,167.02L66.94,167.02L73.19,166.67L73.33,165.14L73.91,138.61L74.06,123.95L75.65,16.2L75.8,16.28L75.94,16.29L77.98,16.48L78.12,18.2L79.14,99.05L79.28,114.58L80.45,167.02L80.59,167.01L86.98,166.98L87.13,166.68L87.56,157.06L87.71,148.84L89.45,16.26L89.89,16.39L90.03,16.39L91.77,16.42L91.92,16.3L92.06,16.48L92.21,18.72L94.39,167.02L94.53,167.01L94.68,167.01L101.07,166.66L101.21,165.62L101.79,140.73L101.94,125.02L103.39,16.23L103.68,16.26L103.83,16.24L105.86,16.33L106,17.17L106.58,55.61L106.73,68.98L108.33,167.02L108.47,167.01L115.01,166.5L115.15,164.93L115.73,139.27L115.88,124.29L117.62,16.24L117.77,16.29L119.8,16.77L119.94,19.84L122.12,167.03L122.41,167.01L122.56,167.01L128.95,166.92L129.09,165.09L131.56,16.05L131.85,16.11L132,16.14L132.29,35.86L132.43,20.07L132.58,16.17L132.87,16.16L133.01,17.39L133.16,21.69L133.45,16.2L133.59,16.22L133.74,16.18L133.88,16.39L134.03,18.85L135.34,140.18L135.48,155.35L136.06,167.03L136.35,167.01L136.5,167.01L142.89,166.41L143.03,164.79L143.47,148.68L143.61,136.06L145.06,16.16L145.36,16.17L145.5,16.16L147.82,16.55L147.97,18.96L150.15,167.03L150.29,167.02L150.44,167.01L156.83,166.4L156.97,164.41L157.41,147.93L157.55,134.93L159.15,16.23L159.3,16.27L159.44,16.26L161.62,16.44L161.76,17.29L162.34,54.55L162.49,67.65L164.23,167.02L164.38,167.01L171.2,166.87L171.35,165.97L171.93,143.94L172.07,131.9L173.67,16.55L174.11,18.96L174.25,18.15L174.4,16.26L175.12,16.36L175.27,16.6L175.41,17.52L175.7,16.33L175.85,16.33L175.99,16.33L176.14,16.43L176.29,18.19L177.45,111.45L177.59,125.36L178.61,167.02L178.75,167.02L185.14,166.95L185.29,166.14L185.87,143.52L186.01,130.99L187.61,16.07L187.9,16.24L188.05,16.27L190.08,16.9L190.23,19.54L191.68,137.35L191.82,151.62L192.69,167.02L192.84,167.02L199.08,166.88L199.23,165.88L199.95,132.89L200.1,118.25L201.7,16.25L201.84,16.29L201.99,16.33L204.02,16.72L204.17,20.15L206.2,167L206.34,167.02L213.02,166.81L213.17,165.45L213.89,131.89L214.04,118.14L215.64,16.07L215.78,16.09L215.93,16.22L217.96,16.58L218.11,18.66L219.41,126.52L219.56,139.67L220.57,167.02L220.72,167.01L226.96,166.89L227.11,165.98L227.69,144.18L227.83,129.78L229.58,16.74L229.72,17.4L229.87,21L230.16,16.2L230.74,16.41L230.88,16.39L231.46,16.48L231.61,17.6L231.9,17.49L232.48,44.3L232.63,53.52L234.22,167.02L234.37,167.02L240.9,166.7L241.05,165.32L241.77,128.67L241.92,114.8L243.37,16.27L243.66,16.37L243.81,16.38L245.84,16.8L245.99,19.33L247.29,124.17L247.44,137.15L248.16,167.03L248.45,167.02L248.6,167.02L254.84,166.61L254.99,164.35L256.01,117.29L256.15,83.29L256.3,84.31L256.44,82.05L256.59,53.4L257.31,16L257.89,16.22L258.04,16.22L259.49,16.62L259.64,18.81L260.07,38.7L260.22,64.67L261.38,149.84L261.52,155.27L262.54,167.01L262.69,167.01L268.78,166.71L268.93,164.17L269.8,99.96L270.09,113.26L270.24,119.9L271.25,17.4L271.54,26.14L271.69,29.9L271.83,16.16L272.56,16.26L272.7,21L272.85,36.4L273.29,16.29L273.43,17.12L273.72,16.18L274.3,38.42L274.45,50.08L276.33,167.02L276.48,167.01L282.58,166.94L282.72,166.11L283.45,137.19L283.6,123.84L285.34,16.27L285.48,16.3L285.63,16.31L286.94,16.53L287.08,17.38L287.66,16.48L288.24,38.02L288.39,49.7L290.27,167.02L290.42,167.02L296.66,166.48L296.81,164.89L297.39,138.82L297.54,123.76L299.28,16.19L299.42,16.45L301.75,16.59L301.89,18.4L302.91,101.37L303.05,115.65L304.22,167.02L304.36,167.02L310.6,166.51L310.75,164.8L311.33,137.28L311.48,122.22L313.07,16.2L313.22,16.27L313.36,16.32L315.54,16.51L315.69,17.41L316.56,77.98L316.7,91.46L318.16,167.03L318.3,167.03L324.54,166.29L324.69,164.16L325.27,133.75L325.42,121.82L327.16,16.31L327.3,16.37L327.45,16.34L329.48,16.7L329.63,17.33L330.21,52.09L330.35,64.22L332.1,167.02L332.24,167.02L338.34,166.85L338.48,166.07L339.07,145.99L339.21,135L340.95,16.94L341.1,17.52L341.24,16.43L341.53,19.03L341.68,16.46L342.41,17.05L342.55,18.35L342.7,16.81L343.13,19.97L343.28,17.53L343.42,20.79L343.71,33.09L343.86,44.51L344,42.66L344.15,62.41L344.58,87.58L344.73,101.57L346.04,167.03L346.18,167.02L352.42,166.3L352.57,164.29L353.01,146.94L353.15,128.73L354.6,17.56L354.75,16.22L357.22,16.54L357.36,16.84L357.51,16.85L357.65,20.03L360.12,167.02L360.27,167.01L366.22,166.96L366.37,166.22L366.8,139.34L366.95,126.38L368.69,16.12L368.83,16.15L368.98,16.18L371.45,16.51L371.59,18.4L372.61,100.7L372.75,115.05L373.92,167.03L374.06,167.02L380.31,166.42L380.45,163.93L381.32,120.09L381.47,148.5L381.61,144.67L381.76,107.35L382.19,51.93L382.63,52.28L382.77,126.19L383.35,123.13L383.65,154.28L383.79,141.7L383.94,141.5L384.08,149.82L384.37,80.28L384.66,129.51L384.81,132.15L385.24,91.3L385.39,32.15L385.82,19.21L386.26,64.21L386.4,107.86L387.28,166.81L387.42,166.97L389.89,167.02L390.03,167.02L394.25,166.95L394.39,166.19L394.83,149.24L394.97,126.78L395.41,136.8L395.99,72.73L396.13,76.14L396.28,96.54L396.42,49.46L396.57,30.05L396.86,38.1L397,16.25L397.15,16.44L397.29,24.8L397.59,17.11L398.46,136.09L398.6,121.45L398.89,19.16L399.33,91.58L399.47,122.11L399.91,22.93L400.2,89.01L400.34,115.51L400.63,95.4L400.93,133.57L401.07,149.9L401.8,167.02L401.94,167.01L402.09,167.01L408.04,166.45L408.19,164.2L408.91,126.59L409.06,109.09L410.36,16.23L410.51,16.24L410.65,16.33L412.54,16.39L412.69,17.07L413.41,32.84L413.56,32.02L413.7,56.4L413.85,43.64L413.99,60.4L414.14,88.66L415.59,167.02L415.74,167.02L422.13,166.84L422.27,166.05L423,132.44L423.14,124.35L423.72,61.01L424.01,87.3L424.16,86L424.74,55.98L424.88,35.5L425.18,27.24L425.32,49.66L426.34,114.58L426.48,114.66L426.92,122.73L427.06,108.51L427.35,110.79L427.64,96.96L427.79,102.25L427.93,106.76L428.08,71.48L428.37,137.76L428.51,149.21L429.53,167.01L429.68,167.01L432,167.01" style="vector-effect: non-scaling-stroke; fill: none; stroke: rgb(255, 0, 0); stroke-opacity: 1; stroke-width: 2px; opacity: 1;"/></g><g class="points"/><g class="text"/></g><g class="trace scatter trace26accd" style="stroke-miterlimit: 2; opacity: 0.5;"><g class="fills"/><g class="errorbars"/><g class="lines"><path class="js-line" d="M0,189.04L0.44,189.41L0.58,189.29L0.73,191.07L1.45,188.75L1.6,197.77L2.03,201.91L2.18,190.83L2.47,188.54L2.61,198.27L3.05,200.12L3.19,191.2L3.49,188.69L3.63,251.56L3.92,275.48L4.07,215.5L4.21,193.07L5.66,77.33L5.81,85.03L5.95,115.92L6.24,71.32L6.53,83.76L6.68,94.27L7.12,88.37L7.26,94.87L7.41,94.15L7.55,84.11L7.84,74.78L7.99,79.44L8.13,92.43L8.42,183.65L8.86,135.71L9,146.43L10.02,304L10.16,298.9L10.31,237.47L11.18,190.61L11.33,193.92L12.05,189.79L12.2,190.24L12.34,190.45L12.49,191.03L12.63,190.34L12.78,189.15L12.92,189.88L13.36,188.84L13.5,189.48L13.65,188.84L13.94,189.75L14.09,188.77L14.23,189.45L14.81,189.22L14.96,189.11L15.97,188.6L16.12,188.5L16.84,188.46L16.99,197.51L17.43,199.89L17.57,198.7L17.72,196.38L18.01,265.41L18.3,167.23L18.44,161.81L19.75,63.45L19.89,120.16L20.04,136.99L20.18,82.83L20.33,90.2L20.47,94.04L20.77,90.9L20.91,99.12L21.49,66.46L21.78,78.76L21.93,95.58L22.94,222.19L23.09,171.12L23.23,160.96L23.38,156.09L23.52,175.68L23.67,187.26L24.1,223.78L24.54,207.06L24.69,204.86L24.83,205.77L25.12,203.39L25.27,203.36L25.41,202.44L25.56,194.9L26.28,188.93L26.43,190.81L26.57,190.73L26.72,189.78L27.3,189.11L27.44,189.77L27.59,184.68L27.74,171.27L28.03,189.16L28.17,252.82L28.61,188.86L29.04,189.39L29.19,188.8L29.91,189.04L30.06,188.87L30.49,188.59L30.64,251.76L30.78,267.54L30.93,213.71L31.07,199.83L31.37,199.17L31.51,187.98L32.24,166.7L32.38,167.87L32.53,215.99L32.67,211.94L32.82,185.89L33.54,76.9L33.69,83.12L33.83,91.64L33.98,96.27L34.12,90.76L34.27,69.29L34.56,58.61L34.71,127.55L34.85,140.5L35,83.19L35.58,58.87L35.72,72.36L35.87,78.88L36.45,158.97L36.88,148.01L37.03,147.8L37.17,146.6L37.32,157.61L37.9,200.58L38.34,190.29L38.48,189.69L38.63,191.73L38.92,189.24L39.21,191.09L39.35,190.68L39.79,189.24L39.93,191.62L40.08,189.94L40.22,190.11L40.37,189.11L40.8,190.21L40.95,191.33L41.38,188.98L41.68,189.04L41.82,190.36L42.11,188.7L42.4,189.97L42.55,189.7L43.56,188.75L43.71,189.35L44,200.21L44.43,188.47L44.58,189L45.02,188.51L45.16,188.82L45.31,197.52L45.45,199.09L45.6,194.46L45.74,184.82L45.89,185.54L46.03,190.96L46.32,195.32L46.47,180.04L46.76,241.73L46.9,155.44L47.19,227.8L47.34,129.39L47.48,129.28L47.63,102.83L47.77,79.46L48.06,143.47L48.21,167.08L49.23,253.51L49.37,221.39L49.66,193.14L49.81,202.3L49.95,269.89L50.1,286.16L50.24,209.91L50.39,192.44L50.82,210.66L50.97,199.83L51.11,202.18L51.26,206.78L51.4,200.76L51.55,183.75L51.69,181.22L51.84,190.3L51.99,192.37L52.13,192.56L52.28,189.18L53,201.25L53.15,210.69L53.44,212.56L53.58,202.58L55.18,188.79L55.33,189.21L56.2,188.82L56.34,189.1L56.63,189.71L57.07,188.98L57.21,188.83L57.36,189.22L57.5,197.97L57.65,200.54L57.94,200.51L58.08,191.23L58.52,188.7L58.81,188.79L58.96,252.07L59.83,177.38L59.97,170.48L60.55,147.6L60.7,114.12L60.84,135.74L61.28,94.03L61.42,87.9L61.71,110.87L61.86,87.78L62,145.18L62.44,75.26L62.73,122.68L62.88,184.35L63.02,223.51L63.17,122.57L63.31,70.81L63.46,70.05L63.6,101.27L64.04,223.1L64.62,191L64.76,196.08L65.2,194.44L65.34,187.51L65.49,179.82L65.93,191.28L66.07,191.48L66.65,188.79L66.94,188.95L67.09,188.95L68.1,189.44L68.25,189.29L68.39,189.13L69.7,189.28L69.85,188.7L70.28,200.47L70.57,188.89L70.72,188.13L71.44,188.6L71.59,188.25L71.73,188.64L72.31,188.16L72.46,188.36L73.33,186.45L73.48,182.44L73.62,250.39L74.06,159.63L74.2,144.92L74.49,183.32L74.64,123.69L74.78,84.67L75.07,65.2L75.22,89L75.36,82.86L75.51,104.91L75.65,120.86L75.8,60.17L75.94,43L76.67,52.98L76.82,52.94L76.96,54.25L77.4,53.09L77.54,54.66L77.69,44L77.83,42.43L77.98,113.77L78.27,145.98L78.41,89.58L78.56,84.42L80.01,191.53L80.3,189.99L80.45,189.12L80.59,189.9L80.88,189.72L81.03,252.33L81.17,268.3L81.32,268.17L81.46,204.88L82.33,189.1L82.48,189.51L83.35,189.02L83.5,189.32L84.08,188.79L84.22,189.01L84.37,189.1L84.51,189.4L84.66,188.8L84.8,189.09L84.95,188.48L85.09,187.93L85.53,188.64L85.67,188.13L85.82,188.33L86.55,188.37L86.69,251.46L86.84,267.17L86.98,203.97L87.13,187.79L87.27,195.92L87.71,193.63L87.85,174.76L89.16,78.46L89.3,127.05L89.45,139.87L89.59,77.8L89.74,70.27L90.18,81.92L90.32,82.26L90.76,155.44L91.05,75.56L91.19,70.39L91.48,69.36L91.63,79.63L91.92,68.99L92.21,81.52L92.35,93.08L93.81,201.35L93.95,266.46L94.1,282.08L94.24,270.35L94.39,205.57L94.82,189.05L95.11,197.65L95.26,197.68L96.27,196.94L96.42,192.54L97.15,188.65L97.29,188.75L97.44,188.51L98.31,188.61L98.45,188.42L98.89,188.54L99.18,188.23L99.32,187.86L100.19,188.32L100.34,188.06L100.92,187.94L101.07,187.41L101.21,249.8L101.65,181.2L101.79,237.65L101.94,238.08L102.95,76.13L103.1,65.92L103.53,42.72L103.97,54.44L104.12,56.09L104.26,55.92L104.41,122.47L104.55,144.19L104.7,77.47L104.84,56.56L104.99,59.58L105.13,50.55L105.28,50.03L105.71,54.59L105.86,127.13L106.15,155.13L106.29,122.12L106.58,137.59L106.73,139L107.6,210.92L107.89,204.01L108.04,194.09L108.76,189.25L108.91,190.01L109.05,188.83L109.2,189.82L109.78,189.17L109.92,189.14L110.8,188.68L110.94,188.87L111.09,188.86L111.52,189.19L111.81,188.87L111.96,188.55L112.39,188.94L112.68,188.38L112.83,188.42L112.97,188.29L113.12,188.62L113.26,251.51L113.84,187.53L114.14,188.54L114.28,188.02L114.86,188.15L115.01,187.5L115.15,195.09L115.44,180.23L115.59,182.53L115.73,172.62L117.33,74.75L117.47,138.92L117.91,53.93L118.35,64.33L118.49,46.35L118.78,45.87L119.65,66.43L119.8,77.26L120.23,97.73L120.38,108.79L121.83,205.59L122.12,203.08L122.27,192.71L122.7,189.22L122.99,189.69L123.14,191.23L123.43,268.8L123.86,189.22L124.01,189.48L124.74,201.37L124.88,201.16L125.03,201.15L125.32,200.97L125.46,201.11L125.61,191.92L126.48,189.68L126.62,189.74L127.64,189.53L127.78,189.66L128.08,188.87L128.22,198.13L128.51,200.82L128.66,263.46L129.38,172.38L129.53,178.94L129.67,172.91L129.96,229.84L130.4,195.27L130.54,121.79L131.27,60.05L131.56,67.49L131.71,66.7L131.85,59.05L132,66.9L132.14,65L132.29,78.31L132.72,68.86L133.01,74.43L133.16,139.55L133.3,151.46L133.45,88.86L133.59,74.03L133.74,138.32L133.88,154.74L134.03,70.51L134.17,64.91L134.32,81.82L134.46,116.79L134.9,236.31L135.34,192.4L135.48,197.93L136.35,189.66L136.5,190.29L136.79,192.18L136.93,198.44L137.08,197.45L137.22,199.65L137.37,200.89L137.51,200.39L138.09,201.07L138.24,200.92L138.39,201.46L138.68,201.22L138.82,191.74L138.97,189.34L139.55,189.75L139.69,189.98L140.42,190.04L140.56,190.36L141,189.84L141.43,189.96L141.58,198.97L141.87,201.22L142.02,263.71L142.89,199.46L143.03,197.76L145.06,63.83L145.21,64.75L145.36,72.55L145.65,63.57L145.79,126.87L146.52,71.35L146.66,73L146.81,74.3L146.95,78.64L147.1,73.45L147.24,75.96L147.39,65.42L147.53,63.99L147.68,66.71L147.82,72.14L148.11,81.42L148.26,100.86L149.86,279.7L150,219L151.02,190.76L151.16,188.86L151.6,190.21L151.89,189.03L152.03,189.2L153.34,188.67L153.49,188.99L155.08,188.38L155.23,188.26L156.68,188.11L156.83,187.33L156.97,185.03L157.12,254.57L157.26,267.57L157.41,189.88L158.71,68.75L158.86,60.63L159.15,42.12L159.73,47.34L159.88,48.88L160.89,169.37L161.04,107.76L161.47,81.78L161.62,138.32L161.91,155.96L162.05,88.46L162.2,87.77L162.34,95.55L164.23,211.16L164.38,213.41L164.67,213.91L164.81,212.5L164.96,202.97L165.39,191.95L165.54,188.98L166.12,188.78L166.27,189.45L166.41,188.82L167.14,188.8L167.28,197.81L168.15,200.69L168.3,195.93L168.59,169.1L168.73,229.97L168.88,250.08L169.46,188.43L169.75,188.54L169.9,188.36L170.04,188.62L170.19,188.33L170.33,197.6L170.77,208.65L170.91,202.12L171.06,199.46L171.2,199.59L171.35,189.21L171.64,259.98L171.93,167.78L172.07,156.21L173.09,63.57L173.67,64.32L173.82,66.13L174.4,48.17L174.54,55.45L174.69,62.56L174.83,61.32L174.98,122.28L175.12,142.24L175.27,79.55L175.41,65.63L175.56,51.44L176.14,55.29L176.29,54.86L178.61,203.45L178.75,202.47L178.9,202.11L179.04,193.99L179.19,189.01L179.77,189.49L179.92,190.23L180.5,190.99L180.64,189.12L180.79,189.56L181.22,188.9L181.66,189.29L181.8,189.32L183.11,189.12L183.26,252.04L184.13,188.52L184.27,188.61L184.42,188.25L184.56,197.67L184.85,199.61L185,199.47L185.14,191.99L185.29,196.06L185.43,259.98L185.58,271.43L185.72,201.61L187.03,115.58L187.18,108.27L187.47,105.51L187.61,92.42L187.9,83.94L188.05,148.79L188.19,153.39L188.34,81.76L188.92,57.23L189.06,65.78L189.21,67.42L189.35,62.69L189.79,66.16L189.93,71.99L190.08,64.08L190.37,83.94L190.52,95.69L190.81,127.48L190.95,156.2L191.82,225.3L192.11,222.84L192.26,223.03L192.4,223.64L192.55,212.05L193.57,205.92L193.71,260.13L193.86,273.61L194,211.61L194.87,191.07L195.02,189.84L195.16,189.28L195.31,189.94L195.45,189.76L195.6,190.94L196.47,189.1L196.61,189.19L197.34,188.67L197.49,252.2L198.36,188.69L198.5,188.79L198.94,188.44L199.08,189.09L199.23,200.49L199.37,204.64L199.66,199.18L199.81,182.6L199.95,230.78L200.24,139.68L200.54,197.4L200.68,185.56L200.83,184.51L200.97,121.4L201.84,51.27L201.99,56.1L202.13,68.81L202.28,73.89L202.42,135.01L202.57,146.72L202.71,86.45L203,64.53L203.15,137L203.44,169.96L203.58,109.01L203.73,90.44L204.17,86.83L204.6,111.36L204.75,141.26L205.18,246.34L205.33,201.55L205.47,184.38L206.78,207.65L206.92,205.6L207.07,205.9L207.21,202.71L207.36,204.38L207.65,202.72L207.8,196.1L208.81,189L209.25,189.48L209.39,189.22L210.12,189.01L210.26,189.93L210.7,188.48L211.14,188.87L211.28,188.98L212.01,188.45L212.15,188.81L212.3,251.95L212.88,188.65L213.02,189.52L213.17,258.31L214.18,159.71L214.33,154.26L214.77,118.57L214.91,159.68L215.06,156.56L215.2,84.9L215.35,59.74L215.64,128.02L215.78,148.14L215.93,85.88L216.22,162.62L216.65,90.69L216.8,89.91L216.94,79.54L217.09,82.1L217.23,165.18L217.52,181.87L217.67,116.35L218.11,77.18L218.4,104L218.54,116.03L220.14,205.88L220.28,205.06L220.43,200.19L220.72,198.61L220.86,203.79L221.15,202.67L221.3,201.27L221.59,203.44L221.74,201.21L221.88,196.9L223.04,189.06L223.19,189.61L223.91,188.95L224.06,189.55L224.93,188.57L225.08,252.33L225.22,267.71L225.37,205.06L225.51,190.21L225.8,199.94L226.09,189.34L226.24,188.55L226.96,189.91L227.11,204.06L227.25,208.41L227.4,204.3L227.54,189.79L230.01,59.67L230.16,58.12L230.45,143.97L231.03,140.47L231.17,155.15L231.32,152.39L231.46,156.3L231.61,99.31L231.76,79.58L232.34,91.14L232.48,96.47L232.77,129.8L232.92,155.26L233.06,154.83L233.21,171.01L233.93,211.76L234.08,203.77L234.22,197.33L234.37,197.83L234.51,197.57L234.66,193.5L234.8,195.57L235.24,191.25L235.39,192.82L236.26,190.45L236.4,191.27L236.69,191.35L237.13,189.26L237.42,189.47L237.56,189.91L238.43,189.23L238.58,189.82L239.45,189.13L239.6,189.31L239.89,188.75L240.03,188.93L240.18,198.4L240.76,209.56L240.9,274.98L241.05,293.27L241.19,241.73L241.34,226.18L242.21,125.88L242.36,177.89L242.5,181.57L243.23,68.05L243.37,129L243.52,140.31L243.66,84.53L244.1,65.38L244.24,141.55L244.39,161.11L244.53,160.91L244.68,94.2L244.82,83.27L245.41,95.28L245.55,90.93L245.99,79.8L246.13,91.88L246.28,103.51L246.42,100.14L246.57,112.54L246.71,123.91L248.16,198.53L248.31,194.25L248.45,198.29L248.6,190.88L249.18,194.45L249.33,192.11L249.47,191.76L249.62,192.61L249.76,190.01L249.91,193.21L250.49,191.99L250.63,191.13L250.78,188.91L251.36,191.21L251.5,189.96L251.65,190.27L251.79,189.19L251.94,189.93L252.08,189.11L252.23,189.81L252.38,189.03L252.81,189.02L252.96,252.67L253.68,188.7L253.83,189.13L253.97,189.02L254.41,189.05L254.55,189.76L255.13,184.45L255.28,176.85L255.57,157.76L255.71,219.26L255.86,244.27L256.01,160.31L256.15,108.33L256.3,118.64L256.44,184.14L257.31,67.88L257.46,72.19L257.6,71.05L257.75,73.58L258.04,72.28L258.18,63.58L258.47,60.47L258.62,67.23L258.91,66.37L260.07,88.83L260.22,117.55L260.94,240.22L261.09,183.8L261.38,173.21L261.52,189.99L261.67,198.69L262.1,204.57L262.54,202.47L262.69,195.16L263.12,189.73L263.41,191.17L263.56,191L263.7,189L264.14,191.32L264.28,189.45L264.43,189.54L264.72,188.66L265.01,189.83L265.15,191.68L266.02,189.06L266.17,189.92L266.32,190.55L266.61,188.86L266.75,189.87L266.9,188.76L267.04,189.36L267.19,188.57L267.48,188.99L267.62,252.19L268.2,188.68L268.49,200.49L268.64,200.47L268.78,201L268.93,200.73L269.07,182.37L269.8,125.04L270.09,138.51L270.24,211.34L271.11,56.05L271.25,65.25L271.4,72.97L271.83,59.29L272.12,63.71L272.27,71.09L272.85,95.17L273.14,85.65L273.29,69.09L273.58,70.8L273.72,68.15L273.87,134.61L274.01,137.42L274.16,87.38L274.3,75.32L274.59,98.59L274.74,116.45L275.17,220.92L275.32,244.21L275.61,188.26L276.19,198.36L276.33,194.83L276.48,195.17L276.63,194.42L276.77,197.06L277.64,189.68L277.79,190.19L277.93,190.23L278.95,188.73L279.09,188.81L279.38,190.24L279.97,189.47L280.11,198.15L280.26,200.68L280.4,200.47L280.55,191.39L281.13,188.92L281.42,188.99L281.56,189.09L282,188.8L282.14,251.82L282.58,188.46L283.01,192.84L283.16,186.82L283.89,134.38L284.03,120.44L284.47,92.51L284.61,96.54L284.76,160.63L284.9,173.76L285.05,108.39L285.48,150.85L285.77,69.19L285.92,70.79L286.06,68.27L286.21,69.68L286.5,65.68L286.64,69.18L286.79,68.02L288.1,198.95L288.24,132.96L288.39,129.19L288.53,133.4L288.68,144.18L289.84,211.85L290.13,209.95L290.27,194.58L290.57,195.36L290.71,193.31L290.86,191.41L291,197.45L291.44,190.52L291.58,193.52L291.73,190.67L291.87,189.94L292.02,192.74L292.16,190.31L292.31,192.26L292.45,189.04L293.18,189.12L293.32,189.3L293.61,191.39L293.91,190.02L294.05,189.5L294.2,190.94L294.49,189.29L294.78,189.45L294.92,189.57L295.21,189.81L295.36,189.11L295.5,252.52L295.65,268.34L295.79,205.02L295.94,198.34L296.08,218.62L296.52,200.85L296.66,192.66L296.81,197.63L297.25,187.53L297.39,174.14L297.83,143.82L297.97,144.31L298.12,196.87L298.26,203.03L298.41,185.48L298.55,170.83L298.99,78.68L299.42,86.09L299.57,72.59L299.71,62.29L300.29,70.79L300.44,69.9L301.46,116.59L301.6,106.6L301.75,98.89L301.89,96.02L302.04,96.06L302.18,112.4L302.76,144.59L302.91,230.93L303.2,257.8L303.49,204.4L303.63,202.81L304.07,196.68L304.51,196.91L304.65,196L305.96,192.03L306.1,192.45L306.68,189.45L306.97,189.57L307.12,192.55L307.26,188.94L307.85,190.63L307.99,189.64L308.14,192.07L308.57,189.1L308.72,189.72L308.86,188.94L309.44,201.09L309.59,191.31L309.73,189.54L310.17,188.99L310.46,189.38L310.6,252.98L311.62,144.23L311.77,195.6L311.91,202.53L312.06,135.67L312.93,68.27L313.22,74.32L313.36,77.95L313.65,162.59L314.09,86.23L314.23,87.14L314.53,87.76L314.67,85.84L314.96,170.93L315.54,159.95L315.69,172.69L315.83,177.47L315.98,119.79L316.12,106.63L316.41,126L316.56,138.2L317.72,206.87L318.01,205.07L318.16,199.31L318.3,203.39L318.88,199.84L319.03,197.3L319.17,199.79L319.61,196.59L319.75,195.89L319.9,195.64L320.04,199.42L320.91,193.56L321.06,191.66L321.64,188.95L321.79,189.43L321.93,191.99L322.8,188.85L322.95,261.78L323.53,189.16L323.67,189.36L323.82,252.19L323.96,268.31L324.11,204.96L324.25,189.59L324.4,197.87L324.54,263.51L324.69,279.24L324.83,212.63L325.13,182.85L325.27,233.54L325.42,238.31L326.29,80.38L326.43,86.83L326.72,152.34L327.01,64.45L327.16,70.3L327.3,61.15L327.45,143.69L327.74,163.49L327.88,93.91L328.47,177.25L328.61,119.3L328.76,110.18L329.19,84.71L329.34,144.54L329.63,172.92L329.77,113.7L329.92,111.54L330.79,165.01L330.93,174.16L331.66,215L332.1,209.27L332.24,207.5L332.39,209.37L332.82,207.21L332.97,206.28L333.11,208.23L333.4,204.24L333.55,196.39L333.69,190.46L334.42,191.25L334.56,190.44L334.71,189.2L334.85,191.29L335.29,189.53L335.44,189.83L335.73,190.56L335.87,190.22L336.02,189.27L336.16,190.85L336.74,189.23L336.89,189.43L337.32,188.84L337.47,189.75L337.61,188.94L337.76,189.59L337.9,188.69L338.48,189.55L338.63,193.63L338.78,193.66L338.92,188.04L340.08,98.42L340.23,154.42L340.37,185.02L340.66,95.82L340.81,98.92L341.39,72.44L341.68,78.39L341.82,84.19L342.26,165.55L342.55,81.56L342.7,85.8L343.57,99.52L343.71,112.26L345.31,212.66L345.6,211.12L345.75,207.14L346.62,193.76L347.05,194.44L347.2,194.68L347.49,197.05L347.63,189.21L348.07,190.15L348.21,189.72L348.5,191.92L348.65,189.15L349.09,192.46L349.38,190.35L349.52,189.43L350.39,190.84L350.54,189.09L350.68,189.78L350.83,189.11L350.97,198.63L351.12,200.8L351.26,200.52L351.41,191.75L351.84,188.92L351.99,198.63L352.13,200.26L352.28,263.7L353.3,142.1L353.44,140.97L353.73,180.66L353.88,172.83L354.02,101.33L354.75,64.95L354.89,71.9L355.04,71.83L355.62,76.23L355.76,150.57L355.91,173.89L356.2,115.06L356.35,101.42L357.51,65.96L357.65,75.06L359.83,211.03L359.98,210.38L360.27,207.87L360.41,212.75L360.56,206.13L360.7,206.55L360.85,209.61L361.14,195.54L361.72,195.64L361.86,195.6L363.17,189.25L363.46,189.42L363.61,190.35L364.04,188.78L364.19,197.95L364.62,213.31L364.77,202.71L365.06,191.58L365.2,189.63L365.35,189.3L365.49,252.74L365.78,189.06L366.07,261.39L366.37,200.23L366.51,199.61L367.09,151.23L367.24,217.38L368.25,90.22L368.4,76.31L368.69,46.69L368.83,52.24L368.98,112.36L369.12,141.34L369.41,67.59L369.56,63.04L369.7,67.29L369.85,66.09L370,53.33L371.45,88.92L371.59,90.4L371.74,85.8L372.03,98.93L372.17,107.62L374.21,204.31L374.35,200.5L374.5,201.96L374.64,200.44L374.79,191.75L374.93,188.87L375.66,188.99L375.8,189.77L376.67,189.24L376.82,190.1L377.11,190.22L377.55,189.09L377.69,189.29L377.84,189.37L378.27,188.79L378.56,189.13L378.71,189.88L378.85,189.41L379,252.32L379.58,188.95L379.87,200.34L380.01,200.72L380.31,189.69L380.45,255.54L381.32,166.99L381.47,209.4L381.61,209.11L381.76,255.26L382.63,97.45L382.77,168.84L383.65,286.07L383.79,207.83L383.94,201.7L384.08,284.39L384.23,276.72L384.37,228.18L385.39,70.28L385.53,78.23L385.68,68.81L385.82,59.74L385.97,65.96L386.11,100.3L386.26,104.18L386.4,139.18L386.98,193.97L387.28,189.34L387.42,191.87L387.86,188.86L388.29,189.2L388.44,189.83L388.87,190.17L389.02,188.76L389.16,188.87L389.31,189.33L390.03,189.03L390.18,188.86L390.91,189.17L391.05,188.73L391.2,189.13L391.78,188.66L391.92,188.67L392.5,188.78L392.65,197.78L392.94,200.15L393.08,199.84L393.23,190.98L393.37,188.45L393.52,251.93L393.66,267.48L393.81,204.57L393.95,188.42L394.25,189.7L394.39,195.85L394.54,197.77L394.68,194.64L394.83,195.5L394.97,241.46L395.12,238.19L395.26,186.49L395.84,140.26L395.99,123.03L396.28,148.02L396.42,98.5L397,60.37L397.15,61.4L397.29,138.57L397.44,189.18L397.88,99.79L398.02,100.46L398.46,190.52L398.6,178.04L398.75,115.72L398.89,100.99L399.18,126.58L399.33,164.83L399.47,190.38L399.62,153.01L399.76,92.44L399.91,75.33L400.2,123.83L400.34,147.17L400.49,125.69L400.93,162.01L401.07,176.62L401.65,202.25L401.94,202.18L402.09,200.57L402.23,201.24L402.38,200.8L402.52,194.06L402.67,188.86L403.1,198.66L403.25,197.95L403.54,193.83L403.68,188.93L403.83,189.76L403.97,188.72L404.41,189.13L404.56,189.24L404.85,189.87L405.57,188.76L405.72,189.14L406.15,188.57L406.3,189.03L406.44,251.88L406.73,188.55L407.02,252.19L407.31,189.17L407.46,188.87L407.9,200.08L408.19,189.38L408.33,188.24L408.48,187.88L408.62,180.46L408.91,254.84L409.2,146.46L409.35,132.79L409.49,122.91L409.64,181.71L409.78,188.36L409.93,102.61L410.8,47.76L410.94,49.12L411.09,65.14L411.82,82.86L411.96,82.69L412.11,63.7L412.4,131.75L412.69,55.09L412.83,62.91L412.98,60.21L413.27,148.35L413.7,109.49L413.85,104.22L414.28,141.75L414.43,176L414.72,162.99L415.01,183.58L415.16,182.4L416.03,211.09L416.17,210.98L416.32,202.2L417.19,188.91L417.33,189.26L417.48,188.91L417.62,190.03L417.77,189.89L417.91,191.1L418.79,189L418.93,190.03L419.37,190.24L419.8,188.9L419.95,189.47L420.67,188.56L420.82,188.71L420.96,188.63L421.11,189.27L421.25,198.83L421.54,200.76L421.69,199.92L421.84,209.64L421.98,211.19L422.13,266.24L422.27,282.8L422.42,215.02L422.56,195.43L422.71,189.63L422.85,246.01L423,266.41L423.14,198.7L423.29,173.19L423.58,148.55L423.72,170.92L423.87,210.17L424.01,229.21L424.16,166.88L424.3,147.07L425.18,65.48L425.32,91.45L425.47,130.46L426.34,187.97L426.63,180.95L426.77,169.22L426.92,170.63L427.06,150.07L427.21,150L427.35,156.67L427.64,143.61L427.79,160.79L427.93,166.17L428.08,124.54L428.51,207.61L428.66,217.4L429.68,200.54L429.82,255.7L429.97,270.53L430.11,268.31L430.26,205.73L430.98,188.89L431.13,189.84L431.27,188.51L431.85,191.43L432,188.96" style="vector-effect: non-scaling-stroke; fill: none; stroke: rgb(0, 128, 0); stroke-opacity: 1; stroke-width: 2px; opacity: 1;"/></g><g class="points"/><g class="text"/></g></g></g><g class="overplot"/><path class="xlines-above crisp" d="M0,0" style="fill: none;"/><path class="ylines-above crisp" d="M0,0" style="fill: none;"/><g class="overlines-above"/><g class="xaxislayer-above"><g class="xtick"><text text-anchor="middle" x="0" y="433" transform="translate(149.7,0)" style="font-family: 'Open Sans', verdana, arial, sans-serif; font-size: 12px; fill: rgb(42, 63, 95); fill-opacity: 1; white-space: pre; opacity: 1;"><tspan class="line" dy="0em" x="0" y="433">Mar 6</tspan><tspan class="line" dy="1.3em" x="0" y="433">2022</tspan></text></g><g class="xtick"><text text-anchor="middle" x="0" y="433" style="font-family: 'Open Sans', verdana, arial, sans-serif; font-size: 12px; fill: rgb(42, 63, 95); fill-opacity: 1; white-space: pre; opacity: 1;" transform="translate(247.28,0)">Mar 13</text></g><g class="xtick"><text text-anchor="middle" x="0" y="433" style="font-family: 'Open Sans', verdana, arial, sans-serif; font-size: 12px; fill: rgb(42, 63, 95); fill-opacity: 1; white-space: pre; opacity: 1;" transform="translate(344.86,0)">Mar 20</text></g><g class="xtick"><text text-anchor="middle" x="0" y="433" style="font-family: 'Open Sans', verdana, arial, sans-serif; font-size: 12px; fill: rgb(42, 63, 95); fill-opacity: 1; white-space: pre; opacity: 1;" transform="translate(442.44,0)">Mar 27</text></g></g><g class="yaxislayer-above"><g class="ytick"><text text-anchor="end" x="79" y="4.199999999999999" transform="translate(0,345.76)" style="font-family: 'Open Sans', verdana, arial, sans-serif; font-size: 12px; fill: rgb(42, 63, 95); fill-opacity: 1; white-space: pre; opacity: 1;">−50</text></g><g class="ytick"><text text-anchor="end" x="79" y="4.199999999999999" style="font-family: 'Open Sans', verdana, arial, sans-serif; font-size: 12px; fill: rgb(42, 63, 95); fill-opacity: 1; white-space: pre; opacity: 1;" transform="translate(0,266.83000000000004)">0</text></g><g class="ytick"><text text-anchor="end" x="79" y="4.199999999999999" style="font-family: 'Open Sans', verdana, arial, sans-serif; font-size: 12px; fill: rgb(42, 63, 95); fill-opacity: 1; white-space: pre; opacity: 1;" transform="translate(0,187.9)">50</text></g><g class="ytick"><text text-anchor="end" x="79" y="4.199999999999999" style="font-family: 'Open Sans', verdana, arial, sans-serif; font-size: 12px; fill: rgb(42, 63, 95); fill-opacity: 1; white-space: pre; opacity: 1;" transform="translate(0,108.98)">100</text></g></g><g class="overaxes-above"/></g></g><g class="polarlayer"/><g class="smithlayer"/><g class="ternarylayer"/><g class="geolayer"/><g class="funnelarealayer"/><g class="pielayer"/><g class="iciclelayer"/><g class="treemaplayer"/><g class="sunburstlayer"/><g class="glimages"/><defs id="topdefs-4dbab2"><g class="clips"/><clipPath id="legend4dbab2"><rect width="167" height="67" x="0" y="0"/></clipPath></defs><g class="layer-above"><g class="imagelayer"/><g class="shapelayer"/></g><g class="infolayer"><g class="legend" pointer-events="all" transform="translate(520.64,100)"><rect class="bg" shape-rendering="crispEdges" width="167" height="67" x="0" y="0" style="stroke: rgb(68, 68, 68); stroke-opacity: 1; fill: rgb(255, 255, 255); fill-opacity: 1; stroke-width: 0px;"/><g class="scrollbox" transform="" clip-path="url(#legend4dbab2)"><g class="groups"><g class="traces" transform="translate(0,14.5)" style="opacity: 1;"><text class="legendtext" text-anchor="start" x="40" y="4.680000000000001" style="font-family: 'Open Sans', verdana, arial, sans-serif; font-size: 12px; fill: rgb(42, 63, 95); fill-opacity: 1; white-space: pre;">BESS</text><g class="layers" style="opacity: 0.5;"><g class="legendfill"/><g class="legendlines"><path class="js-line" d="M5,0h30" style="fill: none; stroke: rgb(0, 191, 255); stroke-opacity: 1; stroke-width: 2px;"/></g><g class="legendsymbols"><g class="legendpoints"/></g></g><rect class="legendtoggle" x="0" y="-9.5" width="161.890625" height="19" style="fill: rgb(0, 0, 0); fill-opacity: 0;"/></g><g class="traces" transform="translate(0,33.5)" style="opacity: 1;"><text class="legendtext" text-anchor="start" x="40" y="4.680000000000001" style="font-family: 'Open Sans', verdana, arial, sans-serif; font-size: 12px; fill: rgb(42, 63, 95); fill-opacity: 1; white-space: pre;">Solar</text><g class="layers" style="opacity: 0.5;"><g class="legendfill"/><g class="legendlines"><path class="js-line" d="M5,0h30" style="fill: none; stroke: rgb(255, 0, 0); stroke-opacity: 1; stroke-width: 2px;"/></g><g class="legendsymbols"><g class="legendpoints"/></g></g><rect class="legendtoggle" x="0" y="-9.5" width="161.890625" height="19" style="fill: rgb(0, 0, 0); fill-opacity: 0;"/></g><g class="traces" transform="translate(0,52.5)" style="opacity: 1;"><text class="legendtext" text-anchor="start" x="40" y="4.680000000000001" style="font-family: 'Open Sans', verdana, arial, sans-serif; font-size: 12px; fill: rgb(42, 63, 95); fill-opacity: 1; white-space: pre;">Grid Meter (Net Load)</text><g class="layers" style="opacity: 0.5;"><g class="legendfill"/><g class="legendlines"><path class="js-line" d="M5,0h30" style="fill: none; stroke: rgb(0, 128, 0); stroke-opacity: 1; stroke-width: 2px;"/></g><g class="legendsymbols"><g class="legendpoints"/></g></g><rect class="legendtoggle" x="0" y="-9.5" width="161.890625" height="19" style="fill: rgb(0, 0, 0); fill-opacity: 0;"/></g></g></g><rect class="scrollbar" rx="20" ry="3" width="0" height="0" x="0" y="0" style="fill: rgb(128, 139, 164); fill-opacity: 1;"/></g><g class="g-gtitle"><text class="gtitle" x="296" y="50" text-anchor="middle" dy="0em" style="font-family: 'Open Sans', verdana, arial, sans-serif; font-size: 17px; fill: rgb(42, 63, 95); opacity: 1; font-weight: normal; white-space: pre;"><tspan class="line" dy="0em" x="296" y="50">Scenario 4</tspan><tspan class="line" dy="1.3em" x="296" y="50">Microgrid Output</tspan><tspan class="line" dy="2.6em" x="296" y="50">From: March 01, 2022 to March 31, 2022</tspan></text></g><g class="g-xtitle"><text class="xtitle" x="296" y="477.409375" text-anchor="middle" style="font-family: 'Open Sans', verdana, arial, sans-serif; font-size: 14px; fill: rgb(42, 63, 95); opacity: 1; font-weight: normal; white-space: pre;">Time</text></g><g class="g-ytitle"><text class="ytitle" transform="rotate(-90,33.60625,260)" x="33.60625" y="260" text-anchor="middle" style="font-family: 'Open Sans', verdana, arial, sans-serif; font-size: 14px; fill: rgb(42, 63, 95); opacity: 1; font-weight: normal; white-space: pre;">Demand (kW)</text></g></g></svg>