<svg class="main-svg" xmlns="http://www.w3.org/2000/svg" xmlns:xlink="http://www.w3.org/1999/xlink" width="700" height="500" style="" viewBox="0 0 700 500"><rect x="0" y="0" width="700" height="500" style="fill: rgb(255, 255, 255); fill-opacity: 1;"/><defs id="defs-27758a"><g class="clips"><clipPath id="clip27758axyplot" class="plotclip"><rect width="437" height="320"/></clipPath><clipPath class="axesclip" id="clip27758ax"><rect x="80" y="0" width="437" height="500"/></clipPath><clipPath class="axesclip" id="clip27758ay"><rect x="0" y="100" width="700" height="320"/></clipPath><clipPath class="axesclip" id="clip27758axy"><rect x="80" y="100" width="437" height="320"/></clipPath></g><g class="gradients"/><g class="patterns"/></defs><g class="bglayer"/><g class="layer-below"><g class="imagelayer"/><g class="shapelayer"/></g><g class="cartesianlayer"><g class="subplot xy"><g class="layer-subplot"><g class="shapelayer"/><g class="imagelayer"/></g><g class="minor-gridlayer"><g class="x"/><g class="y"/></g><g class="gridlayer"><g class="x"><path class="xgrid crisp" transform="translate(150.51,0)" d="M0,100v320" style="stroke: rgb(255, 255, 255); stroke-opacity: 1; stroke-width: 1px;"/><path class="xgrid crisp" transform="translate(249.22,0)" d="M0,100v320" style="stroke: rgb(255, 255, 255); stroke-opacity: 1; stroke-width: 1px;"/><path class="xgrid crisp" transform="translate(347.93,0)" d="M0,100v320" style="stroke: rgb(255, 255, 255); stroke-opacity: 1; stroke-width: 1px;"/><path class="xgrid crisp" transform="translate(446.64,0)" d="M0,100v320" style="stroke: rgb(255, 255, 255); stroke-opacity: 1; stroke-width: 1px;"/></g><g class="y"><path class="ygrid crisp" transform="translate(0,380.38)" d="M80,0h437" style="stroke: rgb(255, 255, 255); stroke-opacity: 1; stroke-width: 1px;"/><path class="ygrid crisp" transform="translate(0,288.86)" d="M80,0h437" style="stroke: rgb(255, 255, 255); stroke-opacity: 1; stroke-width: 1px;"/><path class="ygrid crisp" transform="translate(0,243.1)" d="M80,0h437" style="stroke: rgb(255, 255, 255); stroke-opacity: 1; stroke-width: 1px;"/><path class="ygrid crisp" transform="translate(0,197.34)" d="M80,0h437" style="stroke: rgb(255, 255, 255); stroke-opacity: 1; stroke-width: 1px;"/><path class="ygrid crisp" transform="translate(0,151.57999999999998)" d="M80,0h437" style="stroke: rgb(255, 255, 255); stroke-opacity: 1; stroke-width: 1px;"/><path class="ygrid crisp" transform="translate(0,105.82)" d="M80,0h437" style="stroke: rgb(255, 255, 255); stroke-opacity: 1; stroke-width: 1px;"/></g></g><g class="zerolinelayer"><path class="yzl zl crisp" transform="translate(0,334.62)" d="M80,0h437" style="stroke: rgb(255, 255, 255); stroke-opacity: 1; stroke-width: 2px;"/></g><path class="xlines-below"/><path class="ylines-below"/><g class="overlines-below"/><g class="xaxislayer-below"/><g class="yaxislayer-below"/><g class="overaxes-below"/><g class="plot" transform="translate(80,100)" clip-path="url(#clip27758axyplot)"><g class="scatterlayer mlayer"><g class="trace scatter tracebf34ba" style="stroke-miterlimit: 2; opacity: 0.5;"><g class="fills"/><g class="errorbars"/><g class="lines"><path class="js-line" d="M0,234.62L437,234.62" style="vector-effect: non-scaling-stroke; fill: none; stroke: rgb(0, 191, 255); stroke-opacity: 1; stroke-width: 2px; opacity: 1;"/></g><g class="points"/><g class="text"/></g><g class="trace scatter tracee369ed" style="stroke-miterlimit: 2; opacity: 0.5;"><g class="fills"/><g class="errorbars"/><g class="lines"><path class="js-line" d="M0,234.89L3.53,234.79L3.67,233.9L4.11,218.54L4.26,206.29L5.73,29.27L5.88,37.85L6.02,86.22L6.46,16.49L6.9,16.58L7.05,16.62L8.23,16.79L8.37,17.96L8.96,68.24L9.11,87.75L10.87,234.91L11.02,234.9L17.63,234.73L17.77,233.65L18.36,205L18.51,184.95L20.27,16.78L20.42,16.8L21.74,16.97L21.89,16.98L22.03,17.11L22.18,18.44L22.47,28.52L22.62,53.6L22.77,47.5L22.91,57.36L23.06,78.23L24.97,234.91L25.12,234.9L31.73,234.19L31.88,231.22L32.61,184.62L32.76,170L34.08,25.51L34.23,48.95L34.52,63.92L34.67,30.15L34.81,16.68L35.11,33.41L35.25,28.89L35.4,36.42L35.99,16.55L36.14,17.41L36.28,24.46L38.93,234.91L39.07,234.9L45.83,234.78L45.98,233.69L47.3,164.25L47.45,130.09L48.33,39.18L48.47,41.68L48.62,123.1L49.06,186.11L49.5,160.36L49.65,162.54L50.68,216.14L50.82,212.55L50.97,212.85L51.41,222.33L51.56,207.64L51.85,223.01L52,213.46L52.15,210.3L53.17,234.89L53.32,234.9L59.93,234.69L60.08,232.79L61.25,171.13L61.4,109.45L61.55,137.02L61.84,106.3L61.99,63.42L62.13,64.57L62.28,79.37L62.43,87.86L62.58,50.6L62.72,147.78L63.16,23.06L63.31,62.02L63.46,101.81L63.6,99.12L63.75,133.82L64.04,55.4L64.34,101.17L64.49,143.89L64.63,143.56L64.78,165.54L65.51,224.17L65.95,221.95L66.1,212.05L66.25,213.38L66.39,224L67.42,234.89L67.57,234.89L74.03,234.39L74.18,232.18L74.77,193.72L74.91,172.47L76.53,16.29L76.68,16.41L76.82,16.42L78.88,16.7L79.03,19.18L80.2,158.89L80.35,180.75L81.38,234.9L81.52,234.89L88.13,234.4L88.28,232.48L88.87,193.25L89.02,172.54L90.48,16.37L90.93,16.56L91.07,16.57L92.54,16.58L92.69,16.51L93.13,16.7L93.28,19.94L95.33,234.91L95.63,234.89L95.77,234.89L102.24,234.37L102.38,232.88L102.97,196.79L103.12,174.03L104.59,16.33L104.88,16.38L105.03,16.35L107.08,16.48L107.23,17.7L107.82,73.41L107.96,92.79L109.58,234.91L109.73,234.89L116.19,234.81L116.34,234.14L116.78,220.85L116.93,210.61L118.98,16.35L119.13,16.41L119.28,16.43L120.89,16.66L121.04,16.6L121.18,17.12L121.33,21.56L123.54,234.91L123.83,234.89L123.98,234.89L130.44,234.76L130.59,232.11L133.08,16.08L133.38,16.16L133.52,16.21L133.82,44.78L133.96,21.9L134.11,16.25L134.41,16.24L134.55,18.02L134.7,24.25L134.99,16.3L135.14,16.32L135.29,16.26L135.43,16.57L135.58,20.14L136.76,172.08L136.9,195.99L137.78,234.91L137.93,234.89L144.39,234.8L144.54,234.02L144.98,219.7L145.13,208.32L147.18,16.23L147.33,16.29L148.95,16.32L149.09,16.38L149.53,16.8L149.68,20.29L151.15,211.57L151.3,227.18L151.89,234.91L152.18,234.89L152.33,234.89L158.5,234.78L158.64,234L159.08,218.92L159.23,207.24L160.99,16.33L161.29,16.38L161.43,16.42L162.75,16.63L162.9,16.8L163.49,16.64L163.64,17.87L164.37,90.87L164.52,111.09L165.99,234.91L166.13,234.9L173.18,234.68L173.33,233.38L173.92,201.45L174.07,183.99L175.68,16.8L175.98,17.16L176.12,20.3L176.42,16.38L177.15,16.52L177.3,16.87L177.44,18.2L177.74,16.48L177.88,16.48L178.03,16.49L178.18,16.62L178.33,19.18L179.5,154.35L179.65,174.51L180.68,234.91L180.82,234.9L187.29,234.8L187.43,233.62L188.02,200.83L188.17,182.67L189.78,16.1L190.08,16.34L190.22,16.39L192.28,17.3L192.43,21.13L193.9,191.89L194.04,212.58L194.92,234.9L195.07,234.89L201.39,234.7L201.53,233.25L202.27,185.42L202.42,164.21L204.03,16.36L204.18,16.42L204.33,16.47L205.35,16.68L205.5,16.76L206.38,17.04L206.53,22.01L208.58,234.87L208.73,234.91L215.49,234.6L215.64,232.63L216.37,183.98L216.52,164.04L218.13,16.1L218.28,16.13L218.43,16.32L220.48,16.84L220.63,19.86L221.81,155.92L221.95,176.2L222.98,234.91L223.13,234.9L223.27,234.89L229.59,234.71L229.74,233.39L230.32,201.8L230.47,180.93L232.23,17.07L232.38,18.04L232.53,23.25L232.82,16.29L232.97,16.51L233.12,16.56L234.14,16.7L234.29,18.32L234.58,18.17L235.17,57.02L235.32,70.39L236.93,234.9L237.08,234.9L243.69,234.43L243.84,232.43L244.43,199.44L244.57,179.31L246.19,16.39L246.48,16.54L246.63,16.55L248.69,17.16L248.83,20.83L250.01,152.94L250.15,172.8L251.04,234.91L251.33,234.9L251.48,234.9L257.79,234.31L257.94,231.04L258.97,162.82L259.12,113.53L259.26,115.01L259.41,111.73L259.56,70.21L260.29,16L260.88,16.33L261.02,16.32L262.49,16.9L262.64,20.07L263.08,48.9L263.23,86.55L264.4,210L264.55,217.87L265.14,234.91L265.58,234.89L265.73,234.89L271.89,234.45L272.04,230.77L272.92,137.7L273.22,156.98L273.36,166.6L274.39,18.03L274.69,30.7L274.83,36.14L274.98,16.23L275.71,16.37L275.86,23.25L276.01,45.56L276.45,16.43L276.6,17.63L276.89,16.27L277.48,48.5L277.62,65.4L279.39,234.91L279.53,234.9L279.68,234.89L285.85,234.78L286,233.58L286.73,191.66L286.88,172.31L288.64,16.39L288.79,16.43L288.93,16.45L290.26,16.77L290.4,18L290.55,22.84L290.99,16.7L291.14,17.6L291.73,64.85L291.87,84.93L293.63,234.9L293.78,234.9L300.1,234.12L300.24,231.82L300.83,194.02L300.98,172.19L302.74,16.28L302.89,16.65L305.24,16.85L305.39,19.48L306.56,160.44L306.71,180.93L307.74,234.91L307.88,234.91L314.2,234.16L314.35,231.68L314.93,191.79L315.08,169.96L316.7,16.29L316.84,16.39L316.99,16.46L318.61,16.81L318.75,16.88L319.19,16.74L319.34,18.04L320.07,85.9L320.22,105.84L321.84,234.91L321.98,234.91L328.15,234.76L328.3,233.84L328.74,217.88L328.89,205.43L330.94,16.45L331.09,16.54L332.27,16.83L332.41,17L333.3,17.01L333.44,17.93L334.03,68.31L334.18,85.9L335.94,234.9L336.09,234.9L342.26,234.65L342.4,233.53L342.99,204.42L343.14,188.49L344.9,17.36L345.05,18.2L345.19,16.62L345.49,20.39L345.63,16.66L346.37,17.53L346.52,19.4L346.66,17.17L347.1,21.76L347.25,18.22L347.4,22.94L347.69,40.78L347.84,57.32L347.98,54.64L348.13,83.27L348.57,119.76L348.72,140.04L350.04,234.91L350.19,234.9L356.36,234.8L356.5,233.86L356.94,220.99L357.09,205.8L358.85,16.32L359,16.36L360.18,16.4L360.32,16.35L361.65,17.23L361.79,21.84L364.29,234.9L364.44,234.89L370.46,234.81L370.61,233.73L371.05,194.77L371.19,176L372.96,16.18L373.25,16.26L373.4,16.25L375.75,16.74L375.89,19.47L376.92,138.77L377.07,159.58L378.24,234.91L378.39,234.89L384.56,234.83L384.71,234.03L385.44,198.37L385.59,181.66L385.88,208.05L386.18,148.41L386.32,77.2L386.47,111.13L386.62,68.08L386.91,71.14L387.06,68.58L387.35,211.77L387.94,210.15L388.09,216.43L388.82,109.17L388.97,135.24L389.11,180.52L389.26,184.36L389.41,172.35L389.55,179.06L389.7,125.15L390.29,20.65L390.44,30.96L390.58,73.83L390.88,149.14L391.02,203.98L392.05,234.9L392.2,234.89L398.81,234.8L398.96,233.7L399.4,209.13L399.54,176.57L399.98,191.09L400.57,98.22L400.72,103.18L400.86,132.74L401.01,64.51L401.16,36.36L401.45,48.03L401.6,16.36L401.75,16.64L401.89,28.75L402.19,17.6L403.07,190.06L403.22,168.84L403.51,20.58L403.95,125.55L404.1,169.8L404.54,26.05L404.83,121.83L404.98,160.24L405.27,131.08L405.57,186.41L405.71,210.08L406.3,234.91L406.59,234.89L406.74,234.89L412.62,234.83L412.76,234.08L413.2,215.76L413.35,204.1L413.79,150.93L413.94,129.41L415.11,16.33L415.26,16.35L416.58,16.51L416.73,16.46L417.32,16.56L417.46,17.55L418.2,40.41L418.34,39.23L418.49,74.56L418.64,56.06L418.79,80.35L418.93,121.31L420.55,234.9L420.7,234.89L427.01,234.64L427.16,233.5L427.89,184.77L428.04,173.06L428.63,81.25L428.92,119.35L429.07,117.46L429.66,73.95L429.8,44.27L430.1,32.29L430.24,64.79L431.27,158.89L431.42,159.01L431.86,170.7L432.01,150.1L432.3,153.39L432.59,133.35L432.74,141.02L432.89,147.55L433.03,96.41L433.47,209.09L433.62,220.97L434.5,234.89L434.65,234.89L437,234.89" style="vector-effect: non-scaling-stroke; fill: none; stroke: rgb(255, 0, 0); stroke-opacity: 1; stroke-width: 2px; opacity: 1;"/></g><g class="points"/><g class="text"/></g><g class="trace scatter trace8c3584" style="stroke-miterlimit: 2; opacity: 0.5;"><g class="fills"/><g class="errorbars"/><g class="lines"><path class="js-line" d="M0,266.82L0.44,267.35L0.59,267.19L0.73,269.76L1.62,266.29L1.76,266.69L1.91,266.78L2.06,269L2.79,266.1L2.94,266.37L3.38,266.58L3.53,266.31L3.67,265.92L4.26,256.18L4.41,236.58L5.73,88.42L5.88,99.59L6.02,144.36L6.46,74.89L6.76,83.32L6.9,91.87L7.2,87.95L8.08,107.96L8.23,126.78L10.14,302.57L10.43,297.66L10.58,281.41L10.72,281.68L10.87,279.47L11.6,267.98L11.9,270.32L12.05,270.65L12.93,266.98L13.07,268.03L13.81,266.52L13.95,266.69L14.1,267.84L14.25,266.43L14.84,266.78L14.98,267.07L16.3,266.03L16.45,266.22L16.6,266.63L16.75,265.79L17.33,265.96L17.48,266L17.63,266.07L17.77,264.35L18.36,254.5L18.51,235.21L20.12,75.46L20.27,76.97L20.42,76.81L21.01,75.14L21.15,87.06L21.3,82.5L21.45,84.06L23.36,201.48L23.5,222.82L23.65,219.05L23.8,247.46L24.38,304L24.68,279.73L24.82,276.46L25.71,269.77L25.85,272.01L26.59,266.66L26.73,269.39L26.88,269.26L27.03,267.89L27.17,266.81L27.76,267.88L27.91,260.5L28.06,241.07L28.5,267.74L28.64,266.56L29.38,267.33L29.53,266.47L29.67,267.05L29.82,266.36L30.26,266.82L30.41,266.57L31.73,265.03L31.88,261.99L32.76,206.49L32.9,181.42L34.08,67.16L34.23,89.4L34.52,104.6L34.67,76.77L34.81,67.76L35.4,90.51L35.69,81.79L35.84,84.64L35.99,78.15L36.28,90.67L36.43,112.1L36.58,106.18L36.72,122.49L36.87,157.34L37.02,146.52L37.16,164.29L37.31,157.93L37.46,170.8L38.34,280.25L38.93,267.76L39.07,270.71L39.37,267.11L39.95,267.28L40.1,269.18L40.39,270.56L40.84,266.92L40.98,267.65L41.13,267.46L41.28,268.51L41.42,270.13L41.86,266.73L42.01,267.73L42.3,268.74L42.6,266.32L42.75,266.6L42.89,268.16L44.07,266.39L44.21,267.27L44.95,265.99L45.1,266.77L45.98,264.91L46.12,258.19L46.27,244.22L46.71,257.62L46.86,259.44L47.59,181.25L47.74,192.12L47.89,141L48.03,163.73L48.33,104.69L48.47,110.47L49.06,253.92L49.36,223.59L49.5,221.41L49.65,218.48L49.8,226.09L49.94,261.17L50.24,256.29L50.68,276.72L50.82,270.89L50.97,271.75L51.41,281.68L51.56,265.99L51.85,276.06L52,267.33L52.15,255.85L52.29,255.48L52.44,268.64L52.73,271.92L52.88,267.02L53.17,268.72L53.32,267.58L53.47,267.25L53.62,268.04L53.76,268.54L54.5,266.61L54.64,267.06L55.23,266.68L55.38,267.41L56.11,266.51L56.26,266.94L56.55,266.54L57.29,267.79L57.43,266.77L57.87,266.51L58.02,267.07L58.17,266.58L58.9,266.9L59.05,266.7L60.08,264.1L60.23,255.8L61.11,220.84L61.25,206.75L61.99,99.45L62.13,100.44L62.28,115.5L62.43,123.85L62.58,87.1L62.72,183.48L63.16,59.06L63.31,98.13L63.46,137.68L63.6,135.55L63.75,169.43L64.04,92.16L64.34,139.59L64.49,180.8L64.63,181.56L64.78,201.78L65.51,260.55L65.95,258.17L66.1,248.13L66.54,262.61L66.69,270.06L66.84,270.36L66.98,267.27L67.42,266.46L67.86,266.69L68.01,266.94L68.89,267.4L69.04,267.18L69.19,266.95L69.92,267.21L70.07,266.5L70.8,267.16L70.95,266.67L71.24,266.99L71.39,266.6L71.54,265.5L72.27,266.19L72.42,265.67L72.56,266.23L73.15,265.55L73.3,265.83L74.18,263.06L74.33,257.25L74.91,207.71L75.06,186.39L76.38,53.35L76.82,55.14L76.97,52.98L77.41,52.57L77.71,53.07L77.85,54.96L78.44,55.57L78.59,53.29L78.73,54.31L78.88,53.02L79.03,58.06L79.17,73.52L80.06,175.75L80.2,197.24L80.94,270.43L81.23,268.19L81.38,266.94L81.52,268.07L82.11,267.31L82.26,267.12L82.55,266.96L82.7,267.13L82.85,267.72L83.29,266.91L83.73,267.35L83.87,267.32L85.05,266.46L85.2,266.78L85.49,267.34L85.78,266.89L85.93,266L86.08,265.2L86.52,266.24L86.67,265.5L86.81,265.78L87.99,265.57L88.13,265L88.58,255.43L88.72,257L88.87,242.82L90.48,81.15L90.63,82.69L90.78,81.49L90.93,82.05L91.07,81.38L91.22,81.9L91.37,79.1L91.51,67.89L92.1,69.38L92.25,75.07L93.28,81.31L93.42,94.78L95.04,271.03L95.48,267.9L95.63,267.16L95.92,266.83L96.07,269.3L96.8,279.51L96.95,278.78L97.09,278.98L97.24,279.05L97.39,278.27L98.27,266.26L98.42,266.4L99.3,265.92L99.45,266.2L100.47,265.11L100.62,265.55L100.91,264.96L101.06,265.83L101.21,265.31L101.35,265.77L102.38,263.36L102.53,258.4L102.97,245.76L103.12,223.49L105.03,54.61L105.17,55.25L106.64,69.81L106.79,65.98L107.67,108.08L107.82,126.34L109.14,272.05L109.58,268.53L109.73,267.5L109.87,270.69L110.31,266.52L110.46,267.95L110.61,266.57L110.9,267.25L111.34,266.6L111.49,266.28L111.78,267.33L112.22,266.57L112.37,266.56L112.81,267.03L113.11,266.58L113.25,266.11L113.4,266.77L113.84,266.6L113.99,265.87L114.87,265.43L115.02,265.03L115.16,264.62L115.31,265.15L115.46,266.1L116.48,262.41L116.63,256.72L116.93,257.39L117.07,243.01L117.22,221L118.69,68.21L118.98,68.85L119.13,69.33L119.28,70.98L119.42,69.12L119.57,61.44L119.86,60L120.01,63.38L120.16,59.29L121.63,104.81L121.77,117.55L123.24,274.33L123.68,268.84L123.83,268.26L123.98,270.62L124.12,267.07L124.56,269.99L124.71,266.95L124.86,268.03L125,266.87L125.44,267.45L125.59,267.58L125.89,266.88L126.18,268.21L126.33,267.91L127.35,267.81L127.5,268.15L128.53,267.55L128.68,267.75L129.41,267.62L129.56,266.57L130,267.42L130.29,267.2L130.44,266.33L130.73,251.14L130.88,242.67L131.03,252.18L131.32,230.14L131.47,211.56L133.08,57.69L133.23,56.54L133.67,67.25L133.82,89.85L134.26,59.67L134.55,67.75L134.7,70.62L134.85,65L134.99,78.95L135.14,83.64L135.43,86.22L135.58,68.83L137.34,274.08L137.78,268.31L137.93,267.72L138.37,271.37L138.52,280.44L138.66,279L138.81,269.02L139.11,266.8L139.55,267.66L139.69,267.78L139.99,268.35L140.57,267.25L140.72,267.45L140.87,267.92L142.19,268.74L142.34,267.88L143.07,268.15L143.22,268.04L144.54,265.44L144.69,262.99L145.42,224.23L145.57,203.11L147.04,68.31L147.18,68.59L147.33,68.48L147.48,68.71L147.63,69.37L148.07,71.71L148.21,63.28L148.51,67.56L148.65,73.85L149.39,89.5L149.53,84.2L149.68,85.12L150.56,171.06L150.71,197.62L152.03,275.35L152.18,279.47L152.91,266.55L153.21,266.77L153.35,268.52L154.38,266.31L154.53,266.19L154.97,266.91L155.41,266.81L155.56,266.7L155.7,267.01L156,266.71L156.14,266.12L156.88,265.86L157.03,265.69L158.5,265.46L158.64,264.34L159.23,241.86L159.38,223.42L160.99,53.85L161.14,60.32L161.29,58.86L163.2,82.19L163.34,75.1L164.22,131.31L164.37,152.47L165.4,280.11L165.99,269.52L166.13,269.22L166.43,268.46L166.57,269.92L167.46,266.73L167.6,267.52L168.34,266.5L168.48,266.91L169.22,266.35L169.37,266.63L169.81,266.37L170.1,267.24L170.25,260.33L170.69,234.62L170.83,240.9L170.98,266.91L171.86,265.83L172.01,266.2L172.74,265.59L172.89,266.01L173.33,263.77L173.48,260.35L174.07,219.23L174.21,205.22L175.68,53.1L175.83,55.71L176.56,73.19L176.71,70.31L176.86,65.22L177,62.05L177.3,68.75L177.44,71.46L177.59,64.07L177.88,73.21L178.03,70.44L178.18,72.94L178.33,72.33L178.47,90.29L178.62,90.93L178.77,116.16L179.35,184.53L179.5,201.08L180.38,271.24L180.53,270.1L180.68,271.24L181.26,266.77L181.41,267.87L181.56,270.9L182.14,267.14L182.44,267.32L182.59,269.65L183.32,266.61L183.47,266.99L183.61,267.05L184.64,267.1L184.79,266.51L187.14,265.47L187.29,267.8L187.58,278.12L187.87,262.16L188.02,251.97L189.05,144.63L189.2,127.4L190.52,71.97L190.66,75.12L191.4,90.54L191.55,83.67L191.69,88.53L191.84,86.95L191.99,88.7L192.13,97.16L192.28,85.69L192.57,114.47L192.72,131.5L193.46,210.14L193.6,235.55L193.75,233.82L193.9,244.68L194.63,284.03L194.78,280.4L194.92,281.62L195.81,274.81L196.1,275L196.25,276.65L196.54,277.27L197.42,267.17L197.57,268.13L197.71,267.86L197.86,269.57L198.3,266.87L198.45,267.45L200.36,266.39L200.51,266.51L201.24,265.94L201.39,266.9L201.68,272.96L201.97,265.04L202.12,254.19L203.88,62.74L204.18,63.83L204.33,74.12L205.35,86.35L205.5,86.68L205.65,81.4L205.94,94.99L206.09,90.95L206.23,98.91L206.38,93.75L206.53,98.9L206.68,113.07L208.29,286.98L208.44,286.3L208.58,284.17L208.73,278.18L209.03,292.96L209.17,293.79L211.23,266.76L211.38,268.26L211.52,268.79L211.82,267.08L211.96,267.03L212.26,266.68L212.7,268.1L212.84,266.71L212.99,267.51L213.14,266L213.43,266.52L213.58,266.57L213.87,266.26L214.31,266.89L214.46,265.97L214.9,266.71L215.19,266.28L215.34,266.26L215.49,267.51L215.64,275.7L215.78,276.84L215.93,270.61L216.96,188.14L217.1,169.44L218.13,70.37L218.43,77.94L218.57,84.58L219.16,107.79L219.31,106.66L219.45,91.63L220.19,118.81L220.34,99.29L220.48,101.52L220.63,101.38L220.78,119.44L221.66,198.24L221.81,219.67L222.69,291.22L222.98,282.98L223.13,285.24L223.27,280.69L223.42,288.19L223.86,284.55L224.01,286.82L224.16,287.69L224.3,284.46L224.45,278.21L225.62,266.84L225.77,267.64L226.51,266.69L226.65,267.56L227.53,266.14L227.68,267.03L227.83,266.44L227.97,267.15L228.12,268.51L228.86,266.11L229,266.51L229.15,266.06L229.44,265.82L229.59,268.09L229.74,275.41L229.88,278.43L230.03,272.46L230.18,264.61L232.38,77.78L232.53,79.87L232.67,76L232.82,77.05L232.97,74.34L233.12,87.09L233.26,80.13L233.7,82.01L233.85,90.11L234,82.82L234.29,97.4L234.44,91.68L234.58,98.44L235.91,224.21L236.05,256.21L236.79,284.87L237.08,279.56L237.23,279.17L237.96,270.02L238.11,272.29L238.26,269.19L238.55,270.83L238.84,269.92L238.99,268.86L239.29,268.6L239.43,270.17L239.73,269.44L239.87,267.14L240.02,268.62L240.75,268.5L240.9,267.33L241.19,267.1L241.34,267.95L241.64,267.39L241.78,266.93L242.37,267.21L242.52,266.74L242.66,266.4L243.4,267.01L243.54,266.9L243.69,266.91L243.99,274.18L244.28,263.41L244.43,249.35L246.34,65.31L246.48,75.98L246.92,71.11L247.07,76.81L247.22,78.99L247.36,78.69L247.51,73.52L248.25,97.97L248.69,96.94L248.83,92.01L251.04,280.58L251.18,274.37L251.33,280.22L251.48,269.49L251.77,272.36L251.92,273.25L252.06,274.66L252.36,270.76L252.51,271.99L252.65,268.22L252.8,272.86L253.39,271.09L253.53,269.84L253.68,266.63L254.27,269.97L254.41,268.15L254.56,268.61L254.71,267.04L254.86,268.11L255,266.92L255.15,267.94L255.59,266.74L255.74,266.78L256.18,267.83L256.32,266.5L256.47,267.37L256.62,266.33L257.5,267.86L257.65,266.6L257.94,267.62L258.09,260.17L260.29,58.25L260.73,66.51L260.88,66.37L261.32,67.73L261.47,63.99L261.61,73.78L261.76,64.37L262.2,82.51L262.35,79.8L262.49,72.64L262.79,75.85L262.93,91.76L264.99,271.79L265.14,272.85L265.43,267.34L266.02,268.17L266.17,267.81L266.46,269.9L266.75,266.76L266.9,268.47L267.05,267.15L267.19,270.12L267.63,267.05L267.78,266.27L268.22,270.64L268.37,267.26L268.52,268.75L268.96,268.09L269.1,266.85L269.4,269L269.69,266.56L269.84,268.02L269.99,266.42L270.13,267.28L270.28,266.14L270.72,266.84L270.87,266.72L271.45,266.35L271.6,266.94L271.75,266.91L271.89,267.68L272.04,267.28L272.19,253.86L272.92,174.05L273.22,193.57L273.36,207.62L274.25,57.58L274.69,73.54L274.83,81.97L274.98,62.27L275.57,69.19L275.71,66.4L276.01,97.8L276.3,84L276.45,73.18L277.04,79.93L277.18,74.29L277.33,96.59L277.77,135.72L277.92,161.6L278.95,282.04L279.39,280.33L279.53,275.21L279.68,275.71L279.83,274.61L279.97,278.45L280.86,267.74L281,268.48L281.15,268.54L282.18,266.37L282.32,266.48L282.62,268.56L283.06,267.37L283.21,267.44L284.09,266.73L284.23,266.94L284.53,267.21L285.26,266.47L285.41,266.3L285.85,265.98L286,268.17L286.14,277.83L286.88,223.58L287.02,206.67L288.64,70.59L288.79,77.29L288.93,81.56L289.37,75.3L289.52,77.33L289.67,73.44L289.82,71.53L289.96,76.6L290.11,74.93L290.26,80.12L290.4,77.18L290.55,83.52L290.7,91.26L291.28,82.28L291.43,100.89L292.17,187.2L292.31,207.89L293.19,283.4L293.63,271.55L293.78,275.89L293.93,275.98L294.08,273L294.37,279L294.81,268.96L294.96,273.31L295.84,266.82L295.98,268.31L296.57,266.94L296.72,267.19L296.87,267.97L297.01,270.22L297.16,267.45L297.6,269.57L297.75,268.26L298.48,267.01L298.63,267.93L299.51,266.86L299.66,266.87L299.8,266.81L299.95,267.47L300.1,268.77L300.24,279.27L300.69,264.63L300.83,245.23L302.45,73.9L302.59,93.36L302.74,88.06L302.89,97.82L303.18,79.8L303.62,97.36L303.77,95.41L304.06,88.23L304.21,95.86L304.36,84.87L304.95,95.9L305.09,94.61L305.68,126.08L305.83,143.13L307.15,283.48L307.74,281.86L307.88,278.49L308.18,276.91L308.32,275.72L308.76,276.43L309.5,271.15L309.65,271.77L310.23,267.41L310.53,267.58L310.67,271.9L310.82,266.68L311.41,269.12L311.56,267.69L311.7,271.21L312.14,266.9L312.29,267.81L312.44,266.68L313.02,267.81L313.32,267.54L313.46,266.84L313.76,266.75L314.2,267.98L314.35,275.82L314.49,276.75L314.64,270.13L316.11,115.94L316.26,100.26L316.84,84.06L317.14,85.95L317.28,97.61L317.43,96.85L317.58,103.46L317.72,104.61L317.87,102.64L318.17,103.53L318.31,100.76L319.19,116.65L319.34,112.24L320.07,175.44L320.22,193.13L321.4,292.67L321.69,290.05L321.84,281.7L321.98,287.62L322.57,282.47L322.72,278.79L322.87,282.4L323.31,277.77L323.45,276.74L323.6,276.38L323.75,281.86L324.63,273.37L324.78,270.61L325.36,266.69L325.51,267.39L325.66,271.1L326.54,266.54L326.69,267.55L326.83,266.68L326.98,267.7L327.42,267.29L327.57,266.83L328.01,267.62L328.15,266.44L328.3,266.76L328.45,266.68L329.04,223.33L329.18,207.36L330.8,86.23L330.94,94.71L331.09,81.45L331.53,98.9L331.68,89.58L331.83,92.78L332.56,119.56L333,112.31L333.15,110.79L333.59,118.26L333.74,138.01L334.62,215.51L334.76,228.77L335.5,287.97L335.94,279.67L336.09,277.1L336.23,279.81L336.67,276.68L336.82,275.33L336.97,278.15L337.26,272.37L337.41,274.17L337.55,268.88L337.7,275.77L338.29,270.02L338.44,268.85L338.58,267.05L338.73,270.08L339.17,267.52L339.32,267.96L339.61,269.02L339.76,268.53L339.91,267.15L340.05,269.44L340.64,267.09L340.79,267.39L341.23,266.53L341.37,267.84L341.52,266.67L341.67,267.61L341.81,266.31L342.4,267.56L342.55,273.47L342.7,273.52L342.84,265.37L344.9,94.14L345.19,95.77L345.34,97.81L345.63,89.96L345.78,98.37L345.93,95.68L346.07,99.45L346.52,97.85L347.54,123.89L347.69,139.05L349.6,298.82L349.75,293.06L349.89,288.91L350.63,273.67L350.92,274.94L351.07,274.64L351.22,275L351.36,269.41L351.51,278.43L351.66,267.07L351.95,274.41L352.1,268.43L352.24,267.8L352.39,268.58L352.54,270.99L352.68,266.98L353.13,271.78L353.27,271.48L353.42,268.71L354.01,267.16L354.15,269.13L354.45,269.42L354.59,266.89L354.89,266.93L355.03,267.53L355.92,266.65L356.06,267.54L356.8,266.28L356.94,269.52L358.85,70.47L359.15,80.46L359.29,82.88L359.59,81.48L359.74,86.82L360.03,84.32L360.62,93.3L360.76,91.84L361.35,105.91L361.5,103.81L361.65,88.41L363.7,285.01L364.14,281.28L364.29,282.49L364.58,284.71L364.73,275.12L365.02,280.15L365.17,279.03L365.32,276.25L366.05,276.33L366.2,275.19L367.37,267.12L367.52,268.74L368.26,266.44L368.4,266.55L368.55,266.48L368.84,269.05L369.28,267.21L369.43,267.68L370.02,266.84L370.31,266.98L370.46,267.54L370.75,265.66L370.9,251.8L372.96,60.49L373.1,68.53L373.25,64.15L373.4,70.1L373.54,69.05L373.69,74.3L374.28,66.82L374.42,79.32L374.57,80.28L374.72,86.66L375.31,78.71L375.45,89.86L375.6,84.92L375.89,90.9L376.04,97.4L377.95,273.53L378.24,269.2L378.39,267.91L378.54,272.47L378.98,266.87L379.13,267.45L379.27,266.58L379.42,267.88L379.57,270.38L380.01,266.74L380.59,267.57L380.74,267.26L381.33,267.03L381.48,268.53L381.62,267.02L381.77,268.3L381.92,266.88L382.36,266.98L382.5,267.42L382.65,266.46L383.09,268.03L383.24,267.35L383.38,267.02L383.83,267.18L384.12,266.79L384.27,266.72L384.71,267.76L384.85,271.69L385,273.77L385.15,265.73L385.29,258.89L385.74,221.68L385.88,266.67L386.03,262.96L386.18,211.98L387.06,130.77L387.2,237.54L387.35,273.84L387.79,219.97L387.94,254.4L388.09,260.1L388.82,159.72L388.97,186.38L389.11,223.26L389.26,231.13L389.41,217.86L389.55,228.21L389.7,169.1L390.29,62.93L390.44,71.95L390.58,121.72L390.73,127.34L390.88,191.25L391.46,273.96L391.76,267.25L391.9,270.92L392.35,266.55L392.79,267.05L392.93,267.97L393.37,268.45L393.52,266.41L393.67,266.57L393.81,267.24L393.96,267.37L394.11,266.72L394.25,266.81L394.4,266.73L395.14,266.97L395.28,266.41L395.72,266.95L396.02,266.71L396.16,266.33L397.93,265.96L398.07,266.45L398.51,265.92L398.66,266.19L398.81,267.77L399.1,279.47L399.4,263.01L399.54,234.81L399.98,250.72L400.57,157.95L400.72,161.34L400.86,190.89L401.01,119.1L401.16,84.9L401.45,93.39L401.6,63.83L401.89,72.48L402.04,119.66L402.19,67.55L402.63,121.95L402.77,143.73L403.07,255.79L403.36,130.89L403.51,93.07L404.1,219.34L404.24,178.35L404.39,93.85L404.54,82.24L404.68,107.94L404.83,172.3L405.86,264.07L406.01,268.28L406.59,269.38L406.74,267.05L407.18,270.8L407.33,266.56L407.77,280.76L408.21,273.77L408.36,266.65L408.5,267.86L408.65,266.35L409.09,266.95L409.24,267.11L409.53,268.02L410.27,266.42L410.41,266.96L410.85,266.14L411.15,266.38L411.29,266.83L411.44,266.1L411.88,266.42L412.03,267L412.91,264.01L413.2,265.14L413.35,254.38L413.79,211.8L413.94,188.63L415.11,65.78L415.26,63.39L415.41,63.25L415.55,62.03L415.85,60.87L416.58,79.97L416.88,78.55L417.02,70.4L417.17,69.37L417.32,71.54L417.46,72.66L419.08,198.27L419.23,247.91L419.52,229.06L419.81,258.9L419.96,257.2L420.84,282.3L420.99,282.14L421.14,282.59L422.02,266.62L422.16,267.14L422.31,266.63L422.46,268.26L422.6,268.05L422.75,269.81L423.34,266.72L423.63,266.76L423.78,268.26L424.22,268.56L424.66,266.62L424.81,267.44L425.54,266.12L425.69,266.34L425.84,266.22L426.13,267.82L426.28,266.06L426.57,266.11L426.72,267.02L426.86,265.97L427.01,267.43L427.16,271.85L427.31,278.3L427.6,267.68L427.75,257.87L428.63,142.45L428.92,180.99L429.07,178.88L429.66,139.49L429.8,106.16L430.1,87.72L430.24,125.36L430.98,203.06L431.12,198.94L431.27,215.84L431.42,228.11L431.86,223.67L432.01,193.86L432.15,193.75L432.3,203.42L433.03,137.08L433.18,162.08L433.33,227.96L434.21,270.35L434.36,267.96L434.5,268.21L434.94,270.54L435.38,266.88L435.53,268.8L435.68,269.16L435.82,268.56L435.97,266.61L436.27,266.05L436.85,270.28L437,266.7" style="vector-effect: non-scaling-stroke; fill: none; stroke: rgb(0, 128, 0); stroke-opacity: 1; stroke-width: 2px; opacity: 1;"/></g><g class="points"/><g class="text"/></g></g></g><g class="overplot"/><path class="xlines-above crisp" d="M0,0" style="fill: none;"/><path class="ylines-above crisp" d="M0,0" style="fill: none;"/><g class="overlines-above"/><g class="xaxislayer-above"><g class="xtick"><text text-anchor="middle" x="0" y="433" transform="translate(150.51,0)" style="font-family: 'Open Sans', verdana, arial, sans-serif; font-size: 12px; fill: rgb(42, 63, 95); fill-opacity: 1; white-space: pre; opacity: 1;"><tspan class="line" dy="0em" x="0" y="433">Mar 6</tspan><tspan class="line" dy="1.3em" x="0" y="433">2022</tspan></text></g><g class="xtick"><text text-anchor="middle" x="0" y="433" style="font-family: 'Open Sans', verdana, arial, sans-serif; font-size: 12px; fill: rgb(42, 63, 95); fill-opacity: 1; white-space: pre; opacity: 1;" transform="translate(249.22,0)">Mar 13</text></g><g class="xtick"><text text-anchor="middle" x="0" y="433" style="font-family: 'Open Sans', verdana, arial, sans-serif; font-size: 12px; fill: rgb(42, 63, 95); fill-opacity: 1; white-space: pre; opacity: 1;" transform="translate(347.93,0)">Mar 20</text></g><g class="xtick"><text text-anchor="middle" x="0" y="433" style="font-family: 'Open Sans', verdana, arial, sans-serif; font-size: 12px; fill: rgb(42, 63, 95); fill-opacity: 1; white-space: pre; opacity: 1;" transform="translate(446.64,0)">Mar 27</text></g></g><g class="yaxislayer-above"><g class="ytick"><text text-anchor="end" x="79" y="4.199999999999999" transform="translate(0,380.38)" style="font-family: 'Open Sans', verdana, arial, sans-serif; font-size: 12px; fill: rgb(42, 63, 95); fill-opacity: 1; white-space: pre; opacity: 1;">−20</text></g><g class="ytick"><text text-anchor="end" x="79" y="4.199999999999999" style="font-family: 'Open Sans', verdana, arial, sans-serif; font-size: 12px; fill: rgb(42, 63, 95); fill-opacity: 1; white-space: pre; opacity: 1;" transform="translate(0,334.62)">0</text></g><g class="ytick"><text text-anchor="end" x="79" y="4.199999999999999" style="font-family: 'Open Sans', verdana, arial, sans-serif; font-size: 12px; fill: rgb(42, 63, 95); fill-opacity: 1; white-space: pre; opacity: 1;" transform="translate(0,288.86)">20</text></g><g class="ytick"><text text-anchor="end" x="79" y="4.199999999999999" style="font-family: 'Open Sans', verdana, arial, sans-serif; font-size: 12px; fill: rgb(42, 63, 95); fill-opacity: 1; white-space: pre; opacity: 1;" transform="translate(0,243.1)">40</text></g><g class="ytick"><text text-anchor="end" x="79" y="4.199999999999999" style="font-family: 'Open Sans', verdana, arial, sans-serif; font-size: 12px; fill: rgb(42, 63, 95); fill-opacity: 1; white-space: pre; opacity: 1;" transform="translate(0,197.34)">60</text></g><g class="ytick"><text text-anchor="end" x="79" y="4.199999999999999" style="font-family: 'Open Sans', verdana, arial, sans-serif; font-size: 12px; fill: rgb(42, 63, 95); fill-opacity: 1; white-space: pre; opacity: 1;" transform="translate(0,151.57999999999998)">80</text></g><g class="ytick"><text text-anchor="end" x="79" y="4.199999999999999" style="font-family: 'Open Sans', verdana, arial, sans-serif; font-size: 12px; fill: rgb(42, 63, 95); fill-opacity: 1; white-space: pre; opacity: 1;" transform="translate(0,105.82)">100</text></g></g><g class="overaxes-above"/></g></g><g class="polarlayer"/><g class="smithlayer"/><g class="ternarylayer"/><g class="geolayer"/><g class="funnelarealayer"/><g class="pielayer"/><g class="iciclelayer"/><g class="treemaplayer"/><g class="sunburstlayer"/><g class="glimages"/><defs id="topdefs-27758a"><g class="clips"/><clipPath id="legend27758a"><rect width="162" height="67" x="0" y="0"/></clipPath></defs><g class="layer-above"><g class="imagelayer"/><g class="shapelayer"/></g><g class="infolayer"><g class="legend" pointer-events="all" transform="translate(525.74,100)"><rect class="bg" shape-rendering="crispEdges" style="stroke: rgb(68, 68, 68); stroke-opacity: 1; fill: rgb(255, 255, 255); fill-opacity: 1; stroke-width: 0px;" width="162" height="67" x="0" y="0"/><g class="scrollbox" transform="" clip-path="url(#legend27758a)"><g class="groups"><g class="traces" transform="translate(0,14.5)" style="opacity: 1;"><text class="legendtext" text-anchor="start" x="40" y="4.680000000000001" style="font-family: 'Open Sans', verdana, arial, sans-serif; font-size: 12px; fill: rgb(42, 63, 95); fill-opacity: 1; white-space: pre;">BESS</text><g class="layers" style="opacity: 0.5;"><g class="legendfill"/><g class="legendlines"><path class="js-line" d="M5,0h30" style="fill: none; stroke: rgb(0, 191, 255); stroke-opacity: 1; stroke-width: 2px;"/></g><g class="legendsymbols"><g class="legendpoints"/></g></g><rect class="legendtoggle" x="0" y="-9.5" width="156.71875" height="19" style="fill: rgb(0, 0, 0); fill-opacity: 0;"/></g><g class="traces" transform="translate(0,33.5)" style="opacity: 1;"><text class="legendtext" text-anchor="start" x="40" y="4.680000000000001" style="font-family: 'Open Sans', verdana, arial, sans-serif; font-size: 12px; fill: rgb(42, 63, 95); fill-opacity: 1; white-space: pre;">Solar</text><g class="layers" style="opacity: 0.5;"><g class="legendfill"/><g class="legendlines"><path class="js-line" d="M5,0h30" style="fill: none; stroke: rgb(255, 0, 0); stroke-opacity: 1; stroke-width: 2px;"/></g><g class="legendsymbols"><g class="legendpoints"/></g></g><rect class="legendtoggle" x="0" y="-9.5" width="156.71875" height="19" style="fill: rgb(0, 0, 0); fill-opacity: 0;"/></g><g class="traces" transform="translate(0,52.5)" style="opacity: 1;"><text class="legendtext" text-anchor="start" x="40" y="4.680000000000001" style="font-family: 'Open Sans', verdana, arial, sans-serif; font-size: 12px; fill: rgb(42, 63, 95); fill-opacity: 1; white-space: pre;">Grid Meter (Net Load)</text><g class="layers" style="opacity: 0.5;"><g class="legendfill"/><g class="legendlines"><path class="js-line" d="M5,0h30" style="fill: none; stroke: rgb(0, 128, 0); stroke-opacity: 1; stroke-width: 2px;"/></g><g class="legendsymbols"><g class="legendpoints"/></g></g><rect class="legendtoggle" x="0" y="-9.5" width="156.71875" height="19" style="fill: rgb(0, 0, 0); fill-opacity: 0;"/></g></g></g><rect class="scrollbar" rx="20" ry="3" width="0" height="0" style="fill: rgb(128, 139, 164); fill-opacity: 1;" x="0" y="0"/></g><g class="g-gtitle"><text class="gtitle" x="298.5" y="50" text-anchor="middle" dy="0em" style="font-family: 'Open Sans', verdana, arial, sans-serif; font-size: 17px; fill: rgb(42, 63, 95); opacity: 1; font-weight: normal; white-space: pre;"><tspan class="line" dy="0em" x="298.5" y="50">Scenario 1</tspan><tspan class="line" dy="1.3em" x="298.5" y="50">Microgrid Output</tspan><tspan class="line" dy="2.6em" x="298.5" y="50">From: March 01, 2022 to March 31, 2022</tspan></text></g><g class="g-xtitle"><text class="xtitle" x="298.5" y="476.409375" text-anchor="middle" style="font-family: 'Open Sans', verdana, arial, sans-serif; font-size: 14px; fill: rgb(42, 63, 95); opacity: 1; font-weight: normal; white-space: pre;">Time</text></g><g class="g-ytitle"><text class="ytitle" transform="rotate(-90,33.840625,260)" x="33.840625" y="260" text-anchor="middle" style="font-family: 'Open Sans', verdana, arial, sans-serif; font-size: 14px; fill: rgb(42, 63, 95); opacity: 1; font-weight: normal; white-space: pre;">Demand (kW)</text></g></g></svg>