<svg class="main-svg" xmlns="http://www.w3.org/2000/svg" xmlns:xlink="http://www.w3.org/1999/xlink" width="700" height="500" style="" viewBox="0 0 700 500"><rect x="0" y="0" width="700" height="500" style="fill: rgb(255, 255, 255); fill-opacity: 1;"/><defs id="defs-4e404c"><g class="clips"><clipPath id="clip4e404cxyplot" class="plotclip"><rect width="435" height="320"/></clipPath><clipPath class="axesclip" id="clip4e404cx"><rect x="80" y="0" width="435" height="500"/></clipPath><clipPath class="axesclip" id="clip4e404cy"><rect x="0" y="100" width="700" height="320"/></clipPath><clipPath class="axesclip" id="clip4e404cxy"><rect x="80" y="100" width="435" height="320"/></clipPath></g><g class="gradients"/><g class="patterns"/></defs><g class="bglayer"/><g class="layer-below"><g class="imagelayer"/><g class="shapelayer"/></g><g class="cartesianlayer"><g class="subplot xy"><g class="layer-subplot"><g class="shapelayer"/><g class="imagelayer"/></g><g class="gridlayer"><g class="x"><path class="xgrid crisp" transform="translate(150.18,0)" d="M0,100v320" style="stroke: rgb(255, 255, 255); stroke-opacity: 1; stroke-width: 1px;"/><path class="xgrid crisp" transform="translate(248.44,0)" d="M0,100v320" style="stroke: rgb(255, 255, 255); stroke-opacity: 1; stroke-width: 1px;"/><path class="xgrid crisp" transform="translate(346.7,0)" d="M0,100v320" style="stroke: rgb(255, 255, 255); stroke-opacity: 1; stroke-width: 1px;"/><path class="xgrid crisp" transform="translate(444.96,0)" d="M0,100v320" style="stroke: rgb(255, 255, 255); stroke-opacity: 1; stroke-width: 1px;"/></g><g class="y"><path class="ygrid crisp" transform="translate(0,345.76)" d="M80,0h435" style="stroke: rgb(255, 255, 255); stroke-opacity: 1; stroke-width: 1px;"/><path class="ygrid crisp" transform="translate(0,187.9)" d="M80,0h435" style="stroke: rgb(255, 255, 255); stroke-opacity: 1; stroke-width: 1px;"/><path class="ygrid crisp" transform="translate(0,108.98)" d="M80,0h435" style="stroke: rgb(255, 255, 255); stroke-opacity: 1; stroke-width: 1px;"/></g></g><g class="zerolinelayer"><path class="yzl zl crisp" transform="translate(0,266.83000000000004)" d="M80,0h435" style="stroke: rgb(255, 255, 255); stroke-opacity: 1; stroke-width: 2px;"/></g><path class="xlines-below"/><path class="ylines-below"/><g class="overlines-below"/><g class="xaxislayer-below"/><g class="yaxislayer-below"/><g class="overaxes-below"/><g class="plot" transform="translate(80,100)" clip-path="url(#clip4e404cxyplot)"><g class="scatterlayer mlayer"><g class="trace scatter traceb9ac5b" style="stroke-miterlimit: 2; opacity: 1;"><g class="fills"/><g class="errorbars"/><g class="lines"><path class="js-line" d="M0,166.83L435,166.83" style="vector-effect: non-scaling-stroke; fill: none; stroke: rgb(0, 191, 255); stroke-opacity: 1; stroke-width: 2px; opacity: 1;"/></g><g class="points"/><g class="text"/></g><g class="trace scatter trace34be36" style="stroke-miterlimit: 2; opacity: 1;"><g class="fills"/><g class="errorbars"/><g class="lines"><path class="js-line" d="M0,167.01L3.51,166.94L3.66,166.33L4.09,155.73L4.24,147.28L5.7,25.16L5.85,31.07L5.99,64.44L6.43,16.34L6.87,16.4L7.02,16.43L8.33,17.35L8.48,22.08L9.94,146.28L10.09,159.65L10.97,167.02L11.11,167.01L17.55,166.9L17.69,166.15L18.28,146.39L18.42,132.56L20.18,16.54L20.32,16.55L20.47,16.63L21.64,16.67L21.79,16.68L22.08,17.68L22.23,18.84L23.25,85.29L23.39,101.1L23.54,101.63L23.69,121.54L24.71,167.03L24.86,167.02L25,167.02L31.58,166.53L31.73,164.48L32.46,132.33L32.61,122.25L33.92,22.56L34.07,38.73L34.36,49.06L34.51,25.76L34.65,16.47L34.95,28.01L35.09,24.89L35.24,30.09L35.82,16.38L35.97,16.97L36.12,21.84L38.6,167.03L38.75,167.03L45.62,166.94L45.77,166.18L47.08,118.28L47.23,94.71L48.11,31.99L48.25,33.71L48.4,89.89L48.84,133.36L49.28,115.6L49.42,117.1L50.45,154.07L50.59,151.6L50.74,151.81L51.18,158.35L51.32,148.21L51.62,158.82L51.76,152.23L51.91,150.05L52.93,167.02L53.08,167.02L59.66,166.87L59.8,165.57L60.97,123.03L61.12,80.47L61.27,99.49L61.56,78.3L61.7,48.72L61.85,49.51L62,59.72L62.14,65.58L62.29,39.87L62.44,106.92L62.87,20.87L63.02,47.75L63.17,75.2L63.31,73.34L63.46,97.29L63.75,43.18L64.04,74.76L64.19,104.23L64.34,104L64.48,119.17L65.21,159.61L65.65,158.09L65.8,151.26L65.94,152.17L66.09,159.5L67.11,167.02L67.26,167.02L73.69,166.67L73.84,165.14L74.43,138.61L74.57,123.95L76.18,16.2L76.33,16.28L76.47,16.29L78.52,16.48L78.67,18.2L79.84,114.58L79.98,129.66L81.01,167.02L81.15,167.01L87.58,166.98L87.73,166.68L88.17,157.06L88.32,148.84L90.07,16.26L90.51,16.39L90.66,16.39L92.41,16.42L92.56,16.3L92.7,16.48L92.85,18.72L95.04,167.02L95.19,167.01L95.33,167.01L101.77,166.66L101.91,165.62L102.5,140.73L102.65,125.02L104.11,16.23L104.4,16.26L104.55,16.24L106.59,16.33L106.74,17.17L107.32,55.61L107.47,68.98L109.08,167.02L109.23,167.01L115.81,166.5L115.95,164.93L116.54,139.27L116.68,124.29L118.44,16.24L118.58,16.29L120.63,16.77L120.78,19.84L122.97,167.03L123.26,167.01L123.41,167.01L129.84,166.92L129.99,165.09L132.47,16.05L132.77,16.11L132.91,16.14L133.21,35.86L133.35,20.07L133.5,16.17L133.79,16.16L133.94,17.39L134.08,21.69L134.37,16.2L134.52,16.22L134.67,16.18L134.81,16.39L134.96,18.85L136.13,123.68L136.28,140.18L137.01,167.03L137.15,167.02L137.3,167.01L143.88,166.41L144.03,164.79L144.61,136.06L144.76,119.86L146.07,16.16L146.36,16.17L146.51,16.16L148.85,16.55L149,18.96L151.19,167.03L151.34,167.02L151.48,167.01L157.92,166.4L158.06,164.41L158.5,147.93L158.65,134.93L160.26,16.23L160.4,16.27L160.55,16.26L162.74,16.44L162.89,17.29L163.62,67.65L163.76,81.61L165.37,167.02L165.52,167.01L172.39,166.87L172.54,165.97L173.12,143.94L173.27,131.9L174.88,16.55L175.32,18.96L175.46,18.15L175.61,16.26L176.34,16.36L176.49,16.6L176.63,17.52L176.92,16.33L177.07,16.33L177.22,16.33L177.36,16.43L177.51,18.19L178.53,96.76L178.68,111.45L179.85,167.02L179.99,167.02L186.43,166.95L186.57,166.14L187.16,143.52L187.31,130.99L188.91,16.07L189.21,16.24L189.35,16.27L191.4,16.9L191.55,19.54L193.01,137.35L193.15,151.62L194.03,167.02L194.18,167.02L200.47,166.88L200.61,165.88L201.34,132.89L201.49,118.25L203.1,16.25L203.24,16.29L203.39,16.33L205.29,16.48L205.44,16.72L205.73,34.86L205.88,50.14L206.02,53.06L206.17,83.58L207.78,167.02L207.92,167.02L214.5,166.81L214.65,165.45L215.38,131.89L215.53,118.14L217.13,16.07L217.28,16.09L217.43,16.22L219.47,16.58L219.62,18.66L220.79,112.53L220.94,126.52L222.11,167.02L222.25,167.01L228.54,166.89L228.69,165.98L229.27,144.18L229.42,129.78L231.17,16.74L231.32,17.4L231.46,21L231.76,16.2L231.9,16.35L232.05,16.38L233.07,16.48L233.22,17.6L233.51,17.49L234.24,53.52L234.39,69.87L235.41,164.02L235.56,166.8L236.58,167.01L236.73,167.01L242.58,166.7L242.72,165.32L243.31,142.55L243.45,128.67L245.06,16.27L245.35,16.37L245.5,16.38L247.55,16.8L247.69,19.33L248.86,110.47L249.01,124.17L249.89,167.03L250.18,167.02L250.33,167.02L256.61,166.61L256.76,164.35L257.78,117.29L257.93,83.29L258.08,84.31L258.22,82.05L258.37,53.4L259.1,16L259.68,16.22L259.83,16.22L261.29,16.62L261.44,18.81L261.88,38.7L262.02,64.67L263.19,149.84L263.34,155.27L264.36,167.01L264.51,167.01L270.65,166.71L270.8,164.17L271.67,99.96L271.97,113.26L272.11,119.9L273.14,17.4L273.43,26.14L273.57,29.9L273.72,16.16L274.45,16.26L274.6,21L274.74,36.4L275.18,16.29L275.33,17.12L275.62,16.18L276.21,38.42L276.35,50.08L278.25,167.02L278.4,167.01L284.54,166.94L284.69,166.11L285.42,137.19L285.56,123.84L287.32,16.27L287.47,16.3L287.61,16.31L288.93,16.53L289.07,17.38L289.22,20.72L289.66,16.48L289.81,17.11L290.39,49.7L290.54,63.56L292.29,167.02L292.44,167.02L298.72,166.48L298.87,164.89L299.46,138.82L299.6,123.76L301.36,16.19L301.5,16.45L303.84,16.59L303.99,18.4L305.16,115.65L305.3,129.78L306.33,167.02L306.47,167.02L312.76,166.51L312.91,164.8L313.49,137.28L313.64,122.22L315.25,16.2L315.39,16.27L315.54,16.32L317.73,16.51L317.88,17.41L318.61,64.22L318.76,77.98L320.36,167.03L320.51,167.03L326.8,166.29L326.94,164.16L327.53,133.75L327.68,121.82L329.43,16.31L329.58,16.37L329.72,16.34L331.92,17.33L332.06,21.75L334.55,167.02L334.69,167.01L340.69,166.85L340.84,166.07L341.42,145.99L341.57,135L343.32,16.94L343.47,17.52L343.61,16.43L343.91,19.03L344.05,16.46L344.2,16.57L344.78,17.05L344.93,18.35L345.08,16.81L345.51,19.97L345.66,17.53L345.81,20.79L346.1,33.09L346.25,44.51L346.39,42.66L346.54,62.41L346.98,87.58L347.12,101.57L348.44,167.03L348.58,167.02L354.87,166.3L355.02,164.29L355.46,146.94L355.6,128.73L357.07,17.56L357.21,16.22L359.99,16.85L360.14,20.03L362.62,167.02L362.77,167.01L368.76,166.96L368.91,166.22L369.35,139.34L369.49,126.38L371.25,16.12L371.54,16.18L371.69,16.17L374.03,16.51L374.17,18.4L375.2,100.7L375.34,115.05L376.51,167.03L376.66,167.02L382.95,166.42L383.09,163.93L383.97,120.09L384.12,148.5L384.26,144.67L384.41,107.35L384.85,51.93L385.29,52.28L385.43,126.19L386.02,123.13L386.31,154.28L386.46,141.7L386.6,141.5L386.75,149.82L387.04,80.28L387.33,129.51L387.48,132.15L387.92,91.3L388.06,32.15L388.5,19.21L388.94,64.21L389.09,107.86L389.96,166.81L390.11,166.97L392.6,167.02L392.74,167.02L396.98,166.95L397.13,166.19L397.57,149.24L397.71,126.78L398.15,136.8L398.74,72.73L398.88,76.14L399.03,96.54L399.18,49.46L399.32,30.05L399.62,38.1L399.76,16.25L399.91,16.44L400.05,24.8L400.35,17.11L401.22,136.09L401.37,121.45L401.66,19.16L402.1,91.58L402.25,122.11L402.69,22.93L402.98,89.01L403.12,115.51L403.42,95.4L403.71,133.57L403.86,149.9L404.59,167.02L404.73,167.01L404.88,167.01L410.87,166.45L411.02,164.2L411.75,126.59L411.9,109.09L413.21,16.23L413.36,16.24L413.51,16.33L415.55,17.07L415.7,19.62L415.85,18.04L415.99,18.43L416.14,25.43L417.16,97.58L417.31,131.71L417.45,130.26L417.6,132.74L417.75,148.33L418.62,167.02L418.77,167.01L418.92,167.01L425.06,166.84L425.2,166.05L425.93,132.44L426.08,124.35L426.67,61.01L426.96,87.3L427.1,86L427.69,55.98L427.84,35.5L428.13,27.24L428.27,49.66L429.3,114.58L429.44,114.66L429.88,122.73L430.03,108.51L430.32,110.79L430.61,96.96L430.76,102.25L430.91,106.76L431.05,71.48L431.49,149.21L431.64,157.41L432.51,167.01L432.66,167.01L435,167.01" style="vector-effect: non-scaling-stroke; fill: none; stroke: rgb(255, 0, 0); stroke-opacity: 1; stroke-width: 2px; opacity: 1;"/></g><g class="points"/><g class="text"/></g><g class="trace scatter traceae17c7" style="stroke-miterlimit: 2; opacity: 1;"><g class="fills"/><g class="errorbars"/><g class="lines"><path class="js-line" d="M0,189.04L0.44,189.41L0.58,189.29L0.73,191.07L1.46,188.75L1.61,197.77L2.05,201.91L2.19,190.83L2.49,188.54L2.63,198.27L3.22,200.29L3.36,191.15L3.51,188.69L3.66,251.56L3.95,275.48L4.09,215.5L4.24,193.07L5.7,77.33L5.85,85.03L5.99,115.92L6.14,78.78L6.73,94.27L6.87,102.44L7.02,104.41L7.16,90.64L7.31,94.87L7.6,84.11L7.75,81.94L7.9,74.78L8.19,92.43L8.33,162.91L8.48,183.65L8.77,123.46L8.92,135.71L9.65,204.79L9.8,202.23L9.94,279.22L10.09,304L10.24,235.76L10.38,221.68L11.26,190.61L11.41,193.92L12.14,189.79L12.28,190.24L12.43,190.45L12.57,191.03L12.87,189.15L13.01,189.88L13.16,189.04L13.45,188.84L14.04,189.75L14.18,188.77L14.62,189.39L14.91,189.22L15.06,189.11L15.94,189.1L16.08,188.6L16.96,188.46L17.11,197.51L17.4,199.84L17.55,190.8L17.84,185.02L17.98,246.97L19.15,109.78L19.3,94.88L19.89,63.45L20.03,120.16L20.32,67.05L20.76,91.77L20.91,81.81L21.35,62.95L21.64,66.46L21.79,73.23L22.52,127.66L22.81,123.61L22.96,197.05L23.1,222.19L23.39,158.69L23.54,156.09L24.27,223.78L24.56,209.31L24.71,207.06L26.47,188.93L26.61,190.81L26.76,190.73L26.9,189.78L27.49,189.11L27.64,189.77L27.78,184.68L27.93,171.27L28.22,189.16L28.37,252.82L28.81,188.86L29.24,189.39L29.39,188.8L30.12,189.04L30.27,188.87L30.71,188.59L30.85,251.76L31.73,187.98L31.88,182.31L32.46,166.7L32.61,167.87L32.75,215.99L32.9,211.94L33.05,122.75L33.78,76.9L33.92,83.12L34.07,100.74L34.22,98.54L34.36,99.85L34.51,71.56L34.65,63.07L34.8,67.7L34.95,129.82L35.09,140.5L35.24,83.19L35.82,58.87L35.97,72.36L36.12,78.88L36.7,158.97L37.29,156.9L37.43,167.06L37.58,162.15L37.72,174.53L37.87,177.61L38.16,198.31L38.75,189.69L38.89,191.73L39.19,189.24L39.77,189.36L39.92,190.67L40.21,191.62L40.65,189.11L40.79,189.62L40.94,189.49L41.09,190.21L41.23,191.33L41.67,188.98L41.96,189.04L42.11,190.36L42.4,188.7L42.7,189.97L42.84,189.7L43.57,188.81L43.72,188.97L43.87,251.89L44.74,188.47L44.89,189L45.33,188.51L45.47,188.82L45.62,197.52L45.77,199.09L45.91,194.46L46.06,175.72L46.64,195.32L46.79,180.04L46.94,239.53L47.08,241.73L47.23,155.44L47.52,227.8L47.81,129.28L47.96,93.73L48.11,77.18L48.25,81.18L48.4,143.47L49.57,253.51L49.71,212.29L50.01,193.14L50.15,202.3L50.3,269.89L50.45,286.16L50.59,273.05L50.74,208.23L51.18,210.66L51.32,199.83L51.47,202.18L51.62,206.78L52.05,181.22L52.49,192.56L52.64,189.18L53.37,201.25L53.52,210.69L53.81,212.56L53.95,202.58L55.56,188.79L55.71,189.21L56.59,188.82L56.73,189.1L57.03,189.71L57.46,188.98L57.61,188.83L57.76,189.22L57.9,197.97L58.05,200.54L58.19,191.37L58.34,189.15L59.22,188.79L59.36,252.07L59.51,267.67L59.66,204.43L60.68,162.47L60.83,157.32L61.7,84.94L62,96.01L62.14,110.87L62.44,142.91L62.87,66.17L63.02,95.39L63.46,214.42L63.61,111.2L63.75,68.54L63.9,70.05L64.04,101.27L64.48,223.1L64.92,169.84L65.07,191L65.21,196.08L65.65,194.44L65.8,187.51L65.94,179.82L66.38,191.28L66.53,191.48L67.11,188.79L67.41,188.95L67.55,188.95L68.58,189.44L68.72,189.29L68.87,189.13L70.18,189.28L70.33,188.7L70.48,189.28L71.06,188.89L71.21,188.13L71.94,188.6L72.09,188.25L72.23,188.64L72.82,188.16L72.96,188.36L73.84,186.45L73.99,182.44L74.13,250.39L74.57,159.63L74.72,144.92L74.86,131.54L75.01,183.32L75.16,186.83L75.59,65.2L76.03,104.91L76.18,120.86L76.33,123.31L76.47,58.79L76.62,50.6L77.2,52.98L77.35,52.94L78.08,54.66L78.23,44L78.37,42.43L78.52,113.77L78.67,135.31L78.96,73.79L79.1,84.42L80.57,191.53L80.86,189.99L81.01,189.12L81.15,189.9L81.44,189.72L81.59,252.33L81.74,268.3L81.88,268.17L82.03,204.88L82.91,189.1L83.05,189.51L83.93,189.02L84.08,189.32L84.66,188.79L84.81,189.01L84.95,189.1L85.1,189.4L85.25,188.8L85.39,189.09L85.54,188.48L85.68,187.93L86.12,188.64L86.27,188.13L86.42,188.33L87.15,188.37L87.29,251.46L87.73,187.79L88.17,192.55L88.32,184.54L89.78,67.09L89.92,124.78L90.07,139.87L90.22,77.8L90.36,70.27L90.8,81.92L90.95,73.17L91.09,126.31L91.24,142.82L91.39,90.03L91.53,67.05L91.83,68.12L92.12,57.99L92.26,68.27L92.7,71.3L92.85,81.52L94.75,272.99L94.9,204.94L95.48,189.05L95.63,190.75L95.77,197.65L96.8,197.48L96.94,196.94L97.82,188.65L97.97,188.75L98.84,188.42L98.99,188.61L100.45,187.76L100.6,188.36L101.48,187.96L101.62,187.94L101.77,187.41L101.91,249.8L102.79,170.47L102.94,156.21L104.25,44.99L104.4,53.4L104.69,54.44L104.84,65.18L104.98,58.19L105.13,122.47L105.42,149.7L105.57,74.62L106.3,50.48L106.45,54.59L106.59,127.13L106.89,155.13L107.03,122.12L107.32,128.49L107.47,136.72L108.35,199.55L108.64,192.65L108.79,191.82L109.52,189.25L109.66,190.01L109.81,188.83L110.39,189.34L110.54,189.17L111.13,188.94L111.27,189.39L112.15,188.8L112.3,189.19L112.73,188.55L113.03,188.65L113.17,188.94L114.49,187.81L114.64,187.53L114.93,188.54L115.51,188.14L115.66,188.15L115.81,187.5L115.95,195.09L116.1,193.44L116.24,182.5L116.39,182.53L116.54,172.62L118.14,74.75L118.29,138.92L118.73,53.93L119.02,126.27L119.17,127.48L119.61,45.87L120.05,61.72L120.19,60.7L120.48,66.43L120.63,77.26L121.07,97.73L121.22,108.79L122.68,205.59L122.97,191.71L123.12,190.43L123.41,191.66L123.55,189.22L123.85,189.69L123.99,191.23L124.29,268.8L124.72,189.22L124.87,189.48L125.6,201.37L125.75,201.16L125.89,192.06L126.04,189.55L126.77,189.72L126.92,189.96L127.94,189.55L128.09,189.68L128.82,189.59L128.96,188.87L129.4,200.82L129.55,263.46L130.28,172.38L130.43,178.94L130.57,172.91L130.87,229.84L131.3,195.27L131.45,121.79L132.18,60.05L132.47,67.49L132.62,66.7L133.06,74.09L133.21,80.59L133.79,65.53L133.94,72.16L134.08,139.55L134.23,142.37L134.37,86.58L134.52,74.03L134.67,138.32L134.81,154.74L134.96,70.51L135.11,64.91L135.25,81.82L135.4,116.79L135.84,236.31L136.28,201.5L136.42,209.29L137.3,189.66L137.45,190.29L137.74,192.18L137.88,198.44L138.03,197.45L138.18,199.65L138.32,200.89L138.47,200.39L138.91,200.99L139.05,201.07L139.2,200.92L139.35,201.46L139.49,192.14L139.93,189.34L140.37,189.89L140.52,189.75L141.54,190.36L141.69,189.77L142.42,189.96L142.56,198.97L142.86,201.22L143,191.48L143.15,189.28L143.29,198.02L143.44,200.18L143.59,199.77L143.73,200.01L143.88,190.36L144.76,159.66L144.9,145.09L146.36,63.45L146.51,63.65L146.66,63.57L146.8,126.87L147.53,71.35L147.68,73L147.83,74.3L147.97,78.64L148.27,66.87L148.41,63.15L148.7,66.71L148.85,72.14L149.14,81.42L149.29,100.86L151.19,284.1L151.34,212.98L152.21,188.86L152.36,189.98L152.65,190.21L152.94,189.03L153.24,189.09L153.38,189.03L153.82,188.61L154.11,188.86L154.26,189.1L154.41,188.67L154.99,189.17L155.14,188.99L156.45,188.25L156.6,188.22L157.62,188.35L157.77,188.11L158.06,185.03L158.21,254.57L158.35,267.57L158.5,262.11L158.65,177.16L159.82,68.75L159.96,51.54L160.26,42.12L160.69,47.05L160.84,47.34L161.13,48.9L161.28,109.63L161.43,126.24L161.57,68.05L161.72,65.41L162.01,169.37L162.45,95.76L162.59,72.69L162.89,151.39L163.18,70.41L163.33,87.77L163.47,95.55L165.37,211.16L165.52,213.41L165.81,213.91L166.1,212.06L166.25,203.7L167.27,188.78L167.42,189.45L168.15,188.74L168.3,188.8L168.44,197.81L169.32,200.69L169.47,195.93L169.76,169.1L169.91,229.97L170.05,250.08L170.64,188.43L170.93,188.54L171.08,188.36L171.22,188.62L171.37,188.33L171.51,197.6L171.66,199.51L171.81,190.92L172.1,199.85L172.54,198.3L172.68,249.99L172.83,259.98L172.98,191.36L174.29,63.57L174.44,72.12L174.58,88.09L174.88,64.32L175.02,66.13L175.17,58.57L175.32,58.35L175.46,50.99L175.61,48.17L175.75,55.45L175.9,62.56L176.05,61.32L176.19,122.28L176.49,142.69L176.63,81.42L176.78,60.53L177.07,66.83L177.36,55.29L177.51,54.86L179.85,203.45L179.99,202.47L180.14,202.11L180.29,203.08L180.43,191.28L180.73,191.86L181.31,189.26L181.46,189.86L181.75,190.99L182.48,188.9L182.63,189.16L183.8,189.23L183.94,188.83L184.38,189.12L184.53,252.04L185.41,188.52L185.55,188.61L185.7,188.25L185.84,197.67L185.99,199.62L186.14,190.52L186.28,188.11L186.43,189.72L186.57,196.06L186.87,271.43L187.16,178.8L187.31,172.41L189.21,74.84L189.35,128.33L189.5,139.75L189.65,133.54L189.79,72.58L190.23,57.23L190.67,62.69L190.82,66.04L190.96,64.95L191.11,66.16L191.25,71.99L191.4,64.08L191.69,83.94L191.84,95.69L192.13,127.48L192.28,156.2L193.3,207.77L193.45,211.47L193.74,212.28L193.89,209.78L194.03,210.62L194.32,208.45L194.47,208.39L194.62,210.3L194.76,198.08L194.91,194.56L195.06,257.85L195.2,273.61L195.35,211.61L195.49,194.45L195.64,196.25L195.79,194.02L196.08,195.01L196.23,191.07L197.1,189.17L197.25,190.01L198.13,188.96L198.27,189.14L198.71,188.67L198.86,198.15L199.15,200.25L199.3,191.09L200.03,188.5L200.17,188.73L200.32,188.44L200.47,189.09L200.61,200.49L200.76,204.64L200.9,204.51L201.05,190.09L201.2,180.33L201.34,230.78L201.64,139.68L202.07,185.56L202.22,184.51L203.24,49L203.39,56.1L203.97,146.72L204.12,77.35L204.27,64.09L204.41,64.53L204.56,137L205,172.15L205.14,106.22L205.29,95.93L205.73,105.7L205.88,111.73L206.02,111.36L206.17,141.26L206.61,246.34L206.75,201.55L206.9,184.38L208.22,207.65L208.36,205.6L208.51,205.9L208.65,202.71L208.8,204.38L209.09,202.72L209.24,196.1L210.26,189L210.7,189.48L210.85,189.22L211.72,189.93L211.87,188.97L212.02,189.52L212.16,188.48L212.6,188.87L212.75,188.98L213.19,188.64L213.33,189.09L213.48,251.59L213.92,267.89L214.36,188.65L214.5,189.52L214.79,274.88L215.23,194.96L215.38,187.46L216.26,109.48L216.4,157.41L216.55,156.56L216.7,84.9L216.84,59.74L217.13,128.02L217.28,148.14L217.87,164.83L218.16,81.6L218.3,87.64L218.45,79.54L218.6,82.1L218.74,165.18L218.89,181.38L219.04,172.78L219.18,114.08L219.62,77.18L219.91,104L220.06,116.03L221.67,205.88L221.81,205.06L221.96,200.19L222.25,198.61L222.4,203.79L222.69,202.67L222.84,201.27L223.13,203.44L223.28,201.21L223.42,196.9L224.59,189.06L224.74,189.61L225.47,188.95L225.62,189.55L226.49,188.57L226.64,252.33L226.93,189.27L227.52,200.36L227.66,200.71L227.81,199.92L227.95,191.1L228.39,188.35L228.54,189.91L228.69,204.06L228.83,208.41L229.12,198.88L229.27,181.22L230.88,92.05L231.03,85.45L231.76,60.39L231.9,119.39L232.19,60.24L232.49,126.13L232.63,140.47L232.78,155.15L232.93,89.25L233.07,77.37L233.51,84.24L233.66,92.16L233.95,91.14L234.24,102.27L234.39,129.8L235.56,211.76L235.7,203.77L236.29,193.5L236.58,194.36L236.73,191.85L237.02,192.82L237.17,190.68L237.61,191.35L237.75,191.18L238.19,190.27L238.34,191.35L238.48,190.87L238.63,190.85L238.77,189.26L239.36,189.71L239.51,189.75L239.65,190.2L240.09,189.23L240.24,189.82L240.38,189.24L241.26,189.31L241.41,188.99L241.55,188.75L241.7,188.93L241.85,198.4L242.43,209.56L242.58,274.98L242.72,293.27L242.87,232.64L243.02,205.72L243.89,123.61L244.04,177.89L244.18,181.57L244.33,108.88L244.92,68.05L245.06,129L245.21,140.31L245.35,84.53L245.5,57.22L245.79,65.38L245.94,141.55L246.09,161.11L246.23,160.91L246.38,94.2L246.52,74.18L247.11,86.19L247.26,79.56L248.13,97.87L248.28,112.54L249.89,198.53L250.03,194.25L250.18,198.29L250.33,190.88L250.91,194.45L251.06,192.11L251.2,191.76L251.35,192.61L251.5,190.01L251.64,193.21L252.23,191.99L252.37,191.13L252.52,188.91L253.1,191.21L253.25,189.96L253.4,190.27L253.54,189.19L253.69,189.93L253.84,189.11L253.98,189.81L254.13,189.03L254.57,189.02L254.71,252.67L254.86,277.13L255.01,216.89L255.15,191.1L255.44,188.7L256.03,188.76L256.17,189.05L256.32,189.76L256.47,188.89L256.76,189.6L256.91,184.45L257.34,157.76L257.49,219.26L257.64,244.27L257.78,160.31L257.93,108.33L258.08,118.64L258.22,184.14L259.1,58.78L259.39,71.05L259.54,73.58L259.68,73.48L259.83,72.28L259.98,72.67L260.12,65.33L260.27,60.47L260.42,67.23L260.71,64.1L260.85,66.76L262.02,117.55L262.17,208.67L262.9,246.94L263.05,193.59L263.19,173.21L263.63,200.02L263.78,203.83L263.92,204.57L264.07,202.07L264.22,200.77L264.51,204.25L264.66,192.43L265.53,189L265.68,190.18L265.97,191.32L266.56,188.66L266.7,189.08L266.99,191.68L267.29,190.37L267.43,189.51L267.87,189.06L268.02,189.92L268.16,190.55L268.46,188.86L268.6,189.87L268.75,188.76L268.9,189.36L269.04,188.57L269.33,188.99L269.48,252.19L270.07,188.68L270.36,200.49L270.5,191.37L270.94,180.1L271.09,171.5L271.53,152.31L271.67,125.04L272.26,213.47L272.41,108.54L272.55,106.9L272.7,130.76L272.99,56.05L273.57,63.79L273.72,47.92L274.74,86.07L274.89,77.16L275.04,85.65L275.48,70.8L275.62,68.15L275.91,146.51L276.35,94.25L276.5,98.59L277.52,267.18L277.67,215.33L277.82,194.97L278.11,198.36L278.25,194.83L278.4,195.17L278.69,197.06L280.15,189.06L280.3,189.89L280.89,188.73L281.03,188.81L281.18,189.49L281.32,190.24L281.91,189.47L282.06,198.15L282.2,200.68L282.35,191.38L282.49,189.12L283.52,189.09L283.66,188.8L284.54,188.46L284.69,189.97L284.83,196.64L285.13,186.82L285.27,181.74L286,120.44L286.15,171.4L286.44,92.51L286.88,173.76L287.03,108.39L287.17,81.26L287.47,150.85L287.76,69.19L287.9,70.79L288.49,65.68L288.64,69.18L288.78,77.11L289.51,108.78L289.66,172.11L290.24,193.83L290.39,144.98L290.54,133.4L290.83,154.57L290.97,162.02L291.85,211.85L292.14,198.59L292.29,192.3L292.88,191.41L293.02,197.45L293.17,191.17L293.46,190.52L293.61,193.52L293.75,190.67L293.9,189.94L294.05,192.74L294.48,189.04L294.63,190.07L294.78,189.39L295.22,189.12L295.65,191.39L295.8,189.47L296.24,190.94L296.38,190.04L296.53,189.29L297.26,189.81L297.41,189.11L297.7,268.34L298.14,209.52L298.29,211.81L298.58,212.22L298.72,204.03L298.87,209L299.02,198.47L299.16,193.57L299.89,143.82L300.04,144.31L300.19,196.87L300.33,203.03L300.48,194.57L300.63,173.11L301.06,78.68L301.5,95.18L301.65,74.86L301.79,62.29L302.38,70.79L302.53,69.9L303.55,116.59L303.84,110.26L303.99,98.29L304.87,144.59L305.01,230.93L305.3,257.8L305.45,207L305.6,204.4L306.91,195.18L307.06,194.27L307.35,195.67L307.5,193.59L307.94,192.41L308.08,192.03L308.23,192.45L308.37,190.08L308.67,191.67L308.81,189.45L308.96,190.63L309.11,189.57L309.25,192.55L309.4,188.94L309.84,190.41L309.98,190.63L310.28,192.07L310.71,189.1L310.86,189.72L311.01,188.94L311.59,201.09L311.74,191.31L311.88,189.54L312.32,188.99L312.62,189.38L312.76,252.98L313.78,144.23L313.93,195.6L314.08,202.53L314.22,135.67L315.1,68.27L315.39,74.32L315.54,77.95L315.83,162.59L316.27,97.59L316.42,89.41L316.86,85.84L317,154.73L317.15,180.02L317.44,106.61L317.59,93.28L317.88,172.69L318.32,118L318.46,121.13L319.05,163.28L319.19,172.65L319.49,187.82L319.63,195.76L319.93,206.87L320.36,199.31L320.51,203.39L321.1,199.84L321.24,197.3L321.39,199.79L321.83,196.59L321.97,195.89L322.12,195.64L322.27,199.42L323.14,193.56L323.29,191.66L323.87,188.95L324.02,189.43L324.17,191.99L325.04,188.85L325.19,198.64L325.48,201.02L325.63,191.32L325.77,189.16L325.92,189.36L326.07,252.19L326.36,189.17L326.65,197.87L326.8,263.51L327.97,119.06L328.11,110.63L328.41,94.76L328.55,80.38L328.7,86.83L328.85,139.9L329.58,61.15L329.72,143.69L329.87,160.99L330.02,100.35L330.16,78.13L330.6,178.09L330.89,103.51L331.04,110.18L331.48,93.81L331.62,146.81L331.92,172.92L332.06,113.7L332.21,111.54L332.5,134.73L332.65,156.95L332.79,150.29L333.09,165.01L333.23,174.16L333.67,216.32L334.26,209.81L334.4,209.27L334.55,207.5L334.69,218.46L335.72,204.24L335.86,205.48L336.3,190.61L336.74,191.25L336.89,190.44L337.03,189.2L337.18,191.29L337.62,189.53L337.76,189.83L338.06,190.56L338.2,190.22L338.35,189.27L338.5,190.85L339.08,189.23L339.23,189.43L339.67,188.84L339.81,189.75L339.96,188.94L340.1,189.59L340.25,188.69L340.84,189.55L340.98,193.63L341.13,193.66L341.27,188.04L342.44,98.42L342.59,154.42L342.74,185.02L343.03,95.82L343.17,98.92L343.47,98.96L343.76,74.71L344.2,84.19L344.34,145.48L344.64,165.55L344.78,102.76L344.93,83.83L345.51,91.19L345.66,97.28L346.25,123.5L346.39,120.47L346.54,137.57L346.83,161.96L346.98,171.84L348,222.48L348.15,209.42L348.29,204.28L349.02,193.76L349.32,194.64L349.46,194.44L349.61,194.68L349.75,190.83L349.9,197.05L350.05,189.21L350.34,194.28L350.49,190.15L350.63,189.72L350.78,190.26L350.92,191.92L351.07,189.15L351.51,192.46L351.66,192.26L352.39,189.28L352.53,190.64L352.68,189.33L352.83,190.84L352.97,189.09L353.41,189.53L353.56,189.44L354.29,188.92L354.43,198.63L354.58,200.26L354.73,263.7L355.31,269.83L355.75,142.1L355.9,140.97L356.33,181.93L356.48,103.6L357.21,64.95L357.36,80.99L357.8,72.95L357.94,81.63L358.09,87.59L358.53,181.16L358.82,103.7L358.97,103.43L359.99,65.96L360.14,75.06L362.33,211.03L362.48,210.38L362.77,207.87L362.91,212.75L363.06,206.13L363.21,206.55L363.35,200.51L363.65,195.54L364.23,195.64L364.38,195.6L365.69,189.25L365.98,189.42L366.13,190.35L366.57,188.78L366.72,197.95L367.15,213.31L367.3,202.71L367.74,191.91L367.89,189.3L368.32,189.06L368.62,261.39L368.76,216.69L369.64,151.23L369.79,217.38L370.08,126L370.66,162.51L370.81,153.36L371.25,46.69L371.54,112.36L371.69,141.34L371.83,142.89L371.98,83.37L372.56,53.33L372.71,59.68L372.86,69.44L373.88,84.01L374.03,88.92L374.61,98.93L374.76,107.62L376.07,191.47L376.22,193.67L376.37,192.6L376.51,199.78L376.81,204.31L377.1,201.96L377.24,200.44L377.54,200.24L377.83,202.86L377.97,192.81L378.27,188.99L378.85,189.56L379,189.34L379.29,189.24L379.73,190.22L379.88,189.18L380.02,190.06L380.17,189.09L380.61,189.15L380.75,189.45L380.9,188.79L381.34,189.88L381.48,189.41L381.63,252.32L382.22,188.95L382.51,200.34L382.65,191.63L382.8,188.93L382.95,189.69L383.09,255.54L383.24,272.76L383.38,204.07L383.53,183.57L383.97,166.99L384.12,209.4L384.26,209.11L384.41,255.26L385.29,95.18L385.43,168.84L385.58,193.88L386.02,179.45L386.16,266.34L386.31,286.07L386.46,198.74L386.6,181.24L386.75,270.75L386.89,274.45L387.04,228.18L388.06,70.28L388.21,78.23L388.36,68.81L388.5,59.74L388.65,65.96L388.79,100.3L388.94,104.18L389.09,148.27L389.67,193.97L389.96,189.34L390.11,191.87L390.55,188.86L390.99,189.2L391.13,189.83L391.57,190.17L391.72,188.76L391.87,188.87L392.01,189.33L392.74,189.03L392.89,188.86L393.62,189.17L393.77,188.73L393.91,189.13L394.5,188.66L394.64,188.67L395.23,188.78L395.37,197.78L396.11,188.45L396.25,251.93L396.4,267.48L396.54,204.57L396.69,188.42L396.98,189.7L397.13,195.85L397.28,197.77L397.42,194.64L397.57,195.5L397.71,241.46L397.86,238.19L398.01,186.49L398.74,123.03L398.88,127.63L399.03,148.02L399.76,60.37L399.91,61.4L400.05,138.57L400.2,189.18L400.49,74.23L400.64,84L401.22,190.52L401.37,178.04L401.52,115.72L401.66,100.99L401.95,126.58L402.1,164.83L402.25,190.38L402.39,153.01L402.54,92.44L402.69,75.33L402.98,126.1L403.12,147.17L403.27,125.69L403.71,162.01L403.86,176.62L404.44,202.25L404.73,202.18L404.88,200.57L405.32,203.15L405.46,191.13L405.61,191.39L405.76,196.66L405.9,198.66L406.19,197.31L406.34,193.83L406.78,188.72L407.22,189.13L407.36,189.24L407.66,189.87L408.39,188.76L408.53,189.14L408.97,188.57L409.12,189.03L409.27,251.88L409.41,267.98L409.56,204.33L409.7,188.88L410,267.7L410.44,188.86L410.58,198.16L410.73,200.08L411.17,199.6L411.31,190.15L411.46,180.46L411.61,239.07L411.75,254.84L411.9,178.23L413.21,50.34L413.36,48.69L413.65,47.76L413.8,49.12L414.68,82.86L414.82,82.69L414.97,72.79L415.26,143.11L415.55,55.09L415.7,62.91L415.85,60.21L415.99,122.32L416.14,148.35L416.43,93.24L416.58,109.49L416.72,104.22L417.16,141.75L417.31,176L417.6,162.99L417.89,183.58L418.04,182.4L419.21,211.29L419.35,205.28L420.38,188.91L420.52,190.03L420.67,189.89L420.82,191.1L421.69,189L421.84,190.03L422.28,190.24L422.72,188.9L422.86,189.47L423.59,188.56L423.74,188.71L423.89,188.63L424.03,189.27L424.18,198.83L424.47,200.76L424.62,199.92L424.76,209.64L424.91,211.19L425.06,275.33L425.2,285.08L425.35,224.11L425.64,189.63L425.79,246.01L425.93,266.41L426.52,148.55L426.67,180.02L426.81,212.45L426.96,229.21L427.1,166.88L427.25,147.07L428.13,65.48L428.27,91.45L428.42,130.46L429.3,187.97L429.74,178.31L429.88,172.91L430.61,143.61L430.76,160.79L430.91,157.08L431.05,122.26L431.64,208.31L432.08,202.5L432.22,202.84L432.66,189.18L432.81,253.43L432.95,270.53L433.1,268.31L433.25,205.73L433.98,188.89L434.12,189.84L434.27,188.51L434.85,191.43L435,188.96" style="vector-effect: non-scaling-stroke; fill: none; stroke: rgb(0, 128, 0); stroke-opacity: 1; stroke-width: 2px; opacity: 1;"/></g><g class="points"/><g class="text"/></g></g></g><g class="overplot"/><path class="xlines-above crisp" d="M0,0" style="fill: none;"/><path class="ylines-above crisp" d="M0,0" style="fill: none;"/><g class="overlines-above"/><g class="xaxislayer-above"><g class="xtick"><text text-anchor="middle" x="0" y="433" transform="translate(150.18,0)" style="font-family: 'Open Sans', verdana, arial, sans-serif; font-size: 12px; fill: rgb(42, 63, 95); fill-opacity: 1; white-space: pre; opacity: 1;"><tspan class="line" dy="0em" x="0" y="433">Mar 6</tspan><tspan class="line" dy="1.3em" x="0" y="433">2022</tspan></text></g><g class="xtick"><text text-anchor="middle" x="0" y="433" style="font-family: 'Open Sans', verdana, arial, sans-serif; font-size: 12px; fill: rgb(42, 63, 95); fill-opacity: 1; white-space: pre; opacity: 1;" transform="translate(248.44,0)">Mar 13</text></g><g class="xtick"><text text-anchor="middle" x="0" y="433" style="font-family: 'Open Sans', verdana, arial, sans-serif; font-size: 12px; fill: rgb(42, 63, 95); fill-opacity: 1; white-space: pre; opacity: 1;" transform="translate(346.7,0)">Mar 20</text></g><g class="xtick"><text text-anchor="middle" x="0" y="433" style="font-family: 'Open Sans', verdana, arial, sans-serif; font-size: 12px; fill: rgb(42, 63, 95); fill-opacity: 1; white-space: pre; opacity: 1;" transform="translate(444.96,0)">Mar 27</text></g></g><g class="yaxislayer-above"><g class="ytick"><text text-anchor="end" x="79" y="4.199999999999999" transform="translate(0,345.76)" style="font-family: 'Open Sans', verdana, arial, sans-serif; font-size: 12px; fill: rgb(42, 63, 95); fill-opacity: 1; white-space: pre; opacity: 1;">−50</text></g><g class="ytick"><text text-anchor="end" x="79" y="4.199999999999999" style="font-family: 'Open Sans', verdana, arial, sans-serif; font-size: 12px; fill: rgb(42, 63, 95); fill-opacity: 1; white-space: pre; opacity: 1;" transform="translate(0,266.83000000000004)">0</text></g><g class="ytick"><text text-anchor="end" x="79" y="4.199999999999999" style="font-family: 'Open Sans', verdana, arial, sans-serif; font-size: 12px; fill: rgb(42, 63, 95); fill-opacity: 1; white-space: pre; opacity: 1;" transform="translate(0,187.9)">50</text></g><g class="ytick"><text text-anchor="end" x="79" y="4.199999999999999" style="font-family: 'Open Sans', verdana, arial, sans-serif; font-size: 12px; fill: rgb(42, 63, 95); fill-opacity: 1; white-space: pre; opacity: 1;" transform="translate(0,108.98)">100</text></g></g><g class="overaxes-above"/></g></g><g class="polarlayer"/><g class="smithlayer"/><g class="ternarylayer"/><g class="geolayer"/><g class="funnelarealayer"/><g class="pielayer"/><g class="iciclelayer"/><g class="treemaplayer"/><g class="sunburstlayer"/><g class="glimages"/><defs id="topdefs-4e404c"><g class="clips"/><clipPath id="legend4e404c"><rect width="164" height="67" x="0" y="0"/></clipPath></defs><g class="layer-above"><g class="imagelayer"/><g class="shapelayer"/></g><g class="infolayer"><g class="legend" pointer-events="all" transform="translate(523.7,100)"><rect class="bg" shape-rendering="crispEdges" width="164" height="67" x="0" y="0" style="stroke: rgb(68, 68, 68); stroke-opacity: 1; fill: rgb(255, 255, 255); fill-opacity: 1; stroke-width: 0px;"/><g class="scrollbox" transform="" clip-path="url(#legend4e404c)"><g class="groups"><g class="traces" transform="translate(0,14.5)" style="opacity: 1;"><text class="legendtext" text-anchor="start" x="40" y="4.680000000000001" style="font-family: 'Open Sans', verdana, arial, sans-serif; font-size: 12px; fill: rgb(42, 63, 95); fill-opacity: 1; white-space: pre;">BESS</text><g class="layers" style="opacity: 1;"><g class="legendfill"/><g class="legendlines"><path class="js-line" d="M5,0h30" style="fill: none; stroke: rgb(0, 191, 255); stroke-opacity: 1; stroke-width: 2px;"/></g><g class="legendsymbols"><g class="legendpoints"/></g></g><rect class="legendtoggle" x="0" y="-9.5" width="158.71875" height="19" style="fill: rgb(0, 0, 0); fill-opacity: 0;"/></g><g class="traces" transform="translate(0,33.5)" style="opacity: 1;"><text class="legendtext" text-anchor="start" x="40" y="4.680000000000001" style="font-family: 'Open Sans', verdana, arial, sans-serif; font-size: 12px; fill: rgb(42, 63, 95); fill-opacity: 1; white-space: pre;">Solar</text><g class="layers" style="opacity: 1;"><g class="legendfill"/><g class="legendlines"><path class="js-line" d="M5,0h30" style="fill: none; stroke: rgb(255, 0, 0); stroke-opacity: 1; stroke-width: 2px;"/></g><g class="legendsymbols"><g class="legendpoints"/></g></g><rect class="legendtoggle" x="0" y="-9.5" width="158.71875" height="19" style="fill: rgb(0, 0, 0); fill-opacity: 0;"/></g><g class="traces" transform="translate(0,52.5)" style="opacity: 1;"><text class="legendtext" text-anchor="start" x="40" y="4.680000000000001" style="font-family: 'Open Sans', verdana, arial, sans-serif; font-size: 12px; fill: rgb(42, 63, 95); fill-opacity: 1; white-space: pre;">Grid Meter (Net Load)</text><g class="layers" style="opacity: 1;"><g class="legendfill"/><g class="legendlines"><path class="js-line" d="M5,0h30" style="fill: none; stroke: rgb(0, 128, 0); stroke-opacity: 1; stroke-width: 2px;"/></g><g class="legendsymbols"><g class="legendpoints"/></g></g><rect class="legendtoggle" x="0" y="-9.5" width="158.71875" height="19" style="fill: rgb(0, 0, 0); fill-opacity: 0;"/></g></g></g><rect class="scrollbar" rx="20" ry="3" width="0" height="0" x="0" y="0" style="fill: rgb(128, 139, 164); fill-opacity: 1;"/></g><g class="g-gtitle"><text class="gtitle" x="297.5" y="50" text-anchor="middle" dy="0em" style="font-family: 'Open Sans', verdana, arial, sans-serif; font-size: 17px; fill: rgb(42, 63, 95); opacity: 1; font-weight: normal; white-space: pre;"><tspan class="line" dy="0em" x="297.5" y="50">Scenario 2</tspan><tspan class="line" dy="1.3em" x="297.5" y="50">Microgrid Output</tspan><tspan class="line" dy="2.6em" x="297.5" y="50">From: March 01, 2022 to March 31, 2022</tspan></text></g><g class="g-xtitle"><text class="xtitle" x="297.5" y="476.409375" text-anchor="middle" style="font-family: 'Open Sans', verdana, arial, sans-serif; font-size: 14px; fill: rgb(42, 63, 95); opacity: 1; font-weight: normal; white-space: pre;">Time</text></g><g class="g-ytitle"><text class="ytitle" transform="rotate(-90,32.840625,260)" x="32.840625" y="260" text-anchor="middle" style="font-family: 'Open Sans', verdana, arial, sans-serif; font-size: 14px; fill: rgb(42, 63, 95); opacity: 1; font-weight: normal; white-space: pre;">Demand (kW)</text></g></g></svg>