<svg class="main-svg" xmlns="http://www.w3.org/2000/svg" xmlns:xlink="http://www.w3.org/1999/xlink" width="700" height="500" style="" viewBox="0 0 700 500"><rect x="0" y="0" width="700" height="500" style="fill: rgb(255, 255, 255); fill-opacity: 1;"/><defs id="defs-df8caa"><g class="clips"><clipPath id="clipdf8caaxyplot" class="plotclip"><rect width="432" height="320"/></clipPath><clipPath class="axesclip" id="clipdf8caax"><rect x="80" y="0" width="432" height="500"/></clipPath><clipPath class="axesclip" id="clipdf8caay"><rect x="0" y="100" width="700" height="320"/></clipPath><clipPath class="axesclip" id="clipdf8caaxy"><rect x="80" y="100" width="432" height="320"/></clipPath></g><g class="gradients"/><g class="patterns"/></defs><g class="bglayer"/><g class="layer-below"><g class="imagelayer"/><g class="shapelayer"/></g><g class="cartesianlayer"><g class="subplot xy"><g class="layer-subplot"><g class="shapelayer"/><g class="imagelayer"/></g><g class="gridlayer"><g class="x"><path class="xgrid crisp" transform="translate(149.7,0)" d="M0,100v320" style="stroke: rgb(255, 255, 255); stroke-opacity: 1; stroke-width: 1px;"/><path class="xgrid crisp" transform="translate(247.28,0)" d="M0,100v320" style="stroke: rgb(255, 255, 255); stroke-opacity: 1; stroke-width: 1px;"/><path class="xgrid crisp" transform="translate(344.86,0)" d="M0,100v320" style="stroke: rgb(255, 255, 255); stroke-opacity: 1; stroke-width: 1px;"/><path class="xgrid crisp" transform="translate(442.44,0)" d="M0,100v320" style="stroke: rgb(255, 255, 255); stroke-opacity: 1; stroke-width: 1px;"/></g><g class="y"><path class="ygrid crisp" transform="translate(0,365.93)" d="M80,0h432" style="stroke: rgb(255, 255, 255); stroke-opacity: 1; stroke-width: 1px;"/><path class="ygrid crisp" transform="translate(0,194.22)" d="M80,0h432" style="stroke: rgb(255, 255, 255); stroke-opacity: 1; stroke-width: 1px;"/><path class="ygrid crisp" transform="translate(0,108.36)" d="M80,0h432" style="stroke: rgb(255, 255, 255); stroke-opacity: 1; stroke-width: 1px;"/></g></g><g class="zerolinelayer"><path class="yzl zl crisp" transform="translate(0,280.07)" d="M80,0h432" style="stroke: rgb(255, 255, 255); stroke-opacity: 1; stroke-width: 2px;"/></g><path class="xlines-below"/><path class="ylines-below"/><g class="overlines-below"/><g class="xaxislayer-below"/><g class="yaxislayer-below"/><g class="overaxes-below"/><g class="plot" transform="translate(80,100)" clip-path="url(#clipdf8caaxyplot)"><g class="scatterlayer mlayer"><g class="trace scatter trace373c62" style="stroke-miterlimit: 2; opacity: 0.5;"><g class="fills"/><g class="errorbars"/><g class="lines"><path class="js-line" d="M0,180.07L0.58,180.07L0.73,181.02L1.6,180.07L1.74,188.71L2.61,180.07L2.76,188.22L3.05,188.25L3.63,180.07L3.78,245.03L4.07,251.57L4.5,150.55L4.79,151.37L4.94,163.64L5.66,122.43L5.81,138L5.95,167.78L6.39,96.93L6.68,107.93L6.82,162.04L7.55,111.69L7.7,155.91L7.84,102.75L8.28,164.32L8.42,180.07L8.57,180.07L8.71,140.03L9.58,190.68L9.73,182.48L10.31,268.44L10.46,154.17L10.6,233.16L11.18,192.45L11.33,184.27L12.2,180.07L12.34,180.07L12.49,180.6L13.07,180.07L13.21,180.07L16.99,180.07L17.13,188.18L17.86,180.07L18.01,245.98L18.44,144.83L18.73,155.5L18.88,172.53L19.6,119.84L19.75,132.34L19.89,109.85L20.04,179.94L20.62,162.42L20.77,112.06L20.91,163.07L21.06,108.64L21.49,139.15L21.64,118.76L22.94,220.21L23.09,190.47L23.23,232.47L23.38,127.61L23.81,217.57L23.96,181.31L24.1,209.92L24.69,192.26L24.83,184.66L25.27,190.73L25.41,182.67L25.56,182.77L25.99,180.15L26.43,180.32L26.57,180.24L27.74,180.07L27.88,180.07L28.17,180.07L28.32,247.18L28.46,149.48L29.04,181.42L29.19,182.07L30.06,180.07L30.2,180.07L30.64,180.07L30.78,247.04L31.66,180.07L31.8,180.07L32.09,180.07L32.24,173.53L32.38,178.44L32.53,171.34L32.67,208.69L33.69,119.75L33.83,160.87L34.12,168.29L34.56,97.35L34.71,159.85L35,174.37L35.14,90.26L35.87,159.83L36.01,117.53L36.88,180.07L37.03,180.07L37.61,180.07L37.75,184.66L38.92,180.07L39.06,180.71L39.79,180.22L39.93,181.43L40.8,180.07L40.95,181.03L41.82,180.07L41.97,180.07L43.56,180.07L43.71,247.9L43.85,148.21L44.43,170.8L44.58,192.8L45.31,180.07L45.45,188.03L46.03,180.07L46.18,182.56L46.32,183.76L46.61,180.07L46.76,228.88L47.19,247.54L47.92,104.84L48.06,181.2L48.21,163.61L48.65,198.43L48.79,184.61L49.08,180.07L49.23,238.01L49.66,180.61L49.95,187.25L50.1,260.46L50.39,180.86L50.97,183.12L51.11,187.95L51.26,189.5L51.4,184.91L51.55,180.81L51.69,180.07L51.84,189.39L52.57,180.14L52.71,189.22L52.86,182.36L53,189.26L53.15,183.16L53.29,197.68L54.02,183.96L54.16,188.72L55.03,180.07L55.18,180.07L57.5,180.07L57.65,188.82L57.94,188.83L58.52,180.07L58.66,180.07L58.96,180.07L59.1,247.24L59.97,180.07L60.12,179.58L60.41,172.96L60.55,178.42L60.7,122.18L60.84,175.7L61.28,111.02L61.42,162.98L61.57,124.75L61.86,94.64L62,222.35L62.15,71.99L62.3,207.8L62.44,57.38L63.02,192.51L63.17,184.81L63.31,102.83L63.89,145.86L64.04,231.52L64.33,166.06L64.91,181.31L65.05,184.31L65.78,180.07L65.93,180.59L66.07,180.96L66.94,180.07L67.09,180.07L69.99,180.07L70.14,188.57L71.01,180.07L71.15,180.07L73.62,180.07L73.77,244.84L74.49,134.71L74.64,215.19L75.07,83.17L75.51,128.75L75.65,163.63L76.09,78.16L76.24,155.19L76.38,80.99L76.82,155.43L76.96,180.07L79.87,180.07L80.01,181.44L80.88,180.07L81.03,180.07L81.17,247.79L81.75,180.07L81.9,180.07L86.69,180.07L86.84,246.78L87.71,180.07L87.85,180.07L89.16,122.65L89.3,168.07L90.18,180.07L90.32,180.07L93.66,180.07L93.81,189.12L93.95,182.33L94.1,250.48L94.53,148.47L94.97,200.04L95.11,186.61L95.26,186.51L95.4,181.7L95.55,186.07L96.13,185.62L96.27,182.37L97.44,180.07L97.58,180.07L101.21,180.07L101.36,242.9L101.5,145.28L101.94,249.36L102.08,173.47L102.23,173.56L103.53,108.07L103.68,131.05L103.83,116.71L103.97,133.04L104.12,171.76L104.99,180.07L105.13,180.07L107.17,180.07L107.31,182.9L107.46,183.51L107.6,195.57L108.18,180.07L108.47,180.09L108.62,181.7L109.49,180.07L109.63,180.07L113.26,180.07L113.41,247.11L113.55,148.33L114.14,179.74L114.28,182.97L115.15,180.07L115.3,183.22L115.59,184.48L116.02,166.61L116.17,158.73L116.31,162.55L116.6,151.19L116.75,135.66L116.89,137.76L117.04,137.18L117.18,171.39L118.06,180.07L118.2,180.07L121.4,180.23L121.54,180.94L121.98,188.45L122.27,187.02L122.41,181.55L122.56,181.64L122.7,180.46L122.99,180.07L123.14,181.19L123.28,180.35L123.43,248.41L124.15,180.07L124.3,188.79L124.45,182.25L124.59,188.94L125.17,188.62L125.32,182.86L126.19,180.07L126.33,180.07L128.22,180.07L128.37,188.52L128.51,182.84L128.66,188.01L128.8,242.01L128.95,154.09L129.53,182.72L129.67,180.07L129.82,179.39L129.96,217.68L131.27,106.91L131.42,135.47L131.56,114.8L131.71,136.4L131.85,115.81L132,165.83L132.87,180.07L133.01,180.07L134.61,180.07L134.75,206.02L134.9,196.76L135.05,227.62L135.19,159.1L135.34,210.45L135.92,181.14L136.06,180.34L136.79,180.15L136.93,186.81L137.22,180.25L137.37,189.22L137.51,182.36L137.66,188.77L137.8,182.59L137.95,188.91L138.39,183.33L138.53,188.53L139.4,180.07L139.55,180.07L141.58,180.07L141.73,189.12L142.02,180.07L142.16,247.76L142.31,148.54L142.89,171.29L143.03,190.44L145.36,117.82L145.5,127.57L146.37,180.07L146.52,180.07L149.28,180.07L149.42,190.19L149.57,182.6L149.71,192.19L149.86,248.19L150.15,250.79L150.29,153.37L150.73,205.27L150.87,181.29L151.02,185.85L151.31,180.07L151.45,180.07L151.6,180.07L157.12,180.07L157.26,247.8L158.28,135.16L158.42,143.06L159.15,99.7L159.3,162.41L160.17,180.07L160.31,180.07L163.36,180.07L163.51,187.3L163.94,180.29L164.09,190.36L164.23,182.65L164.38,200.18L164.67,200.7L165.1,184.73L165.25,189.71L166.12,180.07L166.27,180.07L167.28,180.07L167.43,188.53L167.86,182.23L168.15,182.72L168.3,188.09L168.44,174.17L168.73,180.07L168.88,228.15L169.02,163.49L169.61,181.63L169.75,180.07L170.33,180.07L170.48,187.78L170.77,180.24L170.91,188.3L171.35,182.09L171.49,185.33L171.64,247.35L172.07,171.99L172.22,172.06L173.24,113.71L173.38,151.93L173.53,102.73L173.96,162L174.11,180.07L177.88,180.07L178.03,185.1L178.61,188.03L178.9,187L179.04,187.1L179.92,180.07L180.06,180.07L180.35,180.07L180.5,180.92L181.37,180.07L181.51,180.07L183.26,180.07L183.4,247.42L183.55,148.92L184.13,179.56L184.27,183.73L184.56,180.07L184.71,188L184.85,182.09L185,187.81L185.14,182.24L185.43,183.01L185.58,250.18L186.45,163.61L186.59,158.72L186.89,165.9L187.32,131.31L187.47,161.43L187.9,122.17L188.05,166.81L188.19,180.07L191.24,180.07L191.39,200.01L191.53,185.06L191.68,201.66L192.11,193.51L192.26,189.35L192.4,204.74L192.84,185.62L192.98,194.38L193.13,184.74L193.71,183.68L193.86,261.75L194,200.48L194.87,180.5L195.02,180.07L195.45,180.07L195.6,180.87L196.47,180.07L196.61,180.07L197.49,180.07L197.63,257.24L197.78,151.3L198.36,179.45L198.5,184.03L199.08,180.07L199.23,180.5L199.37,191.88L199.95,180.07L200.1,228.85L200.24,121.72L200.83,180.07L200.97,180.07L201.7,104.67L201.84,138.88L201.99,100.81L202.42,143.52L202.57,174.7L203.15,111.65L203.29,191.2L203.73,105.15L204.02,180.07L204.17,180.07L205.04,180.07L205.18,232.21L205.47,233.21L205.62,160.37L206.2,183.02L206.34,185.35L206.49,182.79L206.63,193.21L206.78,185.88L206.92,191.01L207.8,181.65L207.94,184.49L208.52,180.07L208.81,180.09L208.96,180.07L210.26,180.07L210.41,180.07L212.01,180.07L212.15,247.29L212.3,148.74L212.44,283.58L212.88,179.46L213.02,183.5L213.17,181.38L213.31,254.13L214.18,168.31L214.33,177.22L215.35,100.52L215.64,106.49L215.78,194.36L216.51,116.21L216.65,159.78L217.09,108.61L217.23,162.59L217.38,180.07L217.67,181.28L217.82,117.24L218.11,112.27L218.69,180.07L218.83,180.07L219.56,180.07L219.7,180.98L220.57,189.51L220.72,182.33L220.86,191.68L221.45,190.61L221.59,183.7L221.74,189.4L222.17,180.87L222.32,184.39L222.46,181.15L223.33,180.07L223.48,180.07L225.08,180.07L225.22,247.21L225.66,180.07L226.09,188.91L226.24,182.26L226.96,180.07L227.11,183.37L227.25,193.84L227.69,182.22L227.83,180.07L228.85,142.24L229,147.07L229.43,127.4L229.58,168.43L230.45,180.07L230.59,180.07L233.21,180.07L233.35,182.17L233.5,181.39L233.64,192.88L234.66,181.56L234.8,183.67L235.24,180.29L235.68,181.14L235.82,180.5L236.69,180.93L236.84,180.29L236.98,180.76L237.27,180.07L237.42,180.07L237.56,180.07L240.18,180.07L240.32,188.51L240.61,180.12L240.9,191.69L241.05,261.86L241.19,164.27L241.92,175.12L242.07,155.71L242.21,162.05L242.36,145.82L242.5,197.27L243.37,115.01L243.52,178.18L243.95,83L244.1,155.81L244.24,180.07L247.73,180.07L247.87,187.37L248.02,181.9L248.45,188.64L248.6,182.21L248.74,185.53L249.33,180.47L249.47,180.82L249.62,182.05L249.91,182.81L250.34,180.07L250.49,181.41L251.21,180.07L251.36,180.97L252.23,180.07L252.38,180.07L252.96,180.07L253.1,247.36L253.25,159.66L253.83,183.6L253.97,180.07L255.42,180.07L255.57,165.55L255.86,227.64L256.01,191.96L256.15,129.24L256.59,188.7L256.88,136L257.02,127.68L257.89,180.07L258.04,180.07L260.36,180.07L260.51,198.54L260.65,195.57L260.8,201.44L260.94,208.51L261.09,209.07L261.23,173.57L261.96,191.02L262.25,189.07L262.39,182.37L262.54,189.87L262.98,180.07L263.12,180.07L263.99,180.08L264.14,181.17L265.01,180.07L265.15,181.62L266.02,180.07L266.17,180.07L267.04,180.07L267.19,180.07L267.62,180.07L267.77,247.46L268.35,180.07L268.64,182.25L268.78,180.07L268.93,180.61L269.36,179.41L269.51,179.91L269.66,173.82L269.8,144.83L270.24,173.38L270.38,208.95L271.25,105.14L271.4,148.33L271.54,102.55L271.83,180.07L271.98,180.07L272.12,180.07L275.17,180.07L275.32,224.43L275.61,234.86L275.75,170.74L276.33,182.37L276.48,184.45L276.77,186.46L277.21,181.13L277.35,184.16L278.22,180.07L278.37,180.07L280.11,180.07L280.26,188.96L281.13,180.07L281.27,180.07L282.14,180.07L282.29,247.61L282.43,148.41L283.01,178.27L283.16,185.3L284.18,148.22L284.32,187.12L284.47,98.35L284.9,213.88L285.05,155.76L285.19,182.56L285.34,81.94L285.48,218.59L285.92,103.93L286.06,139.43L286.21,112.6L286.5,180.07L286.64,180.07L287.95,180.07L288.1,186.71L288.24,185.49L288.39,190.4L288.53,182.42L289.4,180.07L289.55,186.36L289.84,194.67L289.98,185.74L290.13,196.6L290.57,181.46L290.71,182.98L291,187.45L291.44,180.52L291.58,183.19L291.87,180.07L292.45,180.63L292.6,180.07L293.47,180.07L293.61,181.26L294.49,180.07L294.63,180.07L295.5,180.07L295.65,247.84L295.94,180.07L296.52,202.71L296.66,192.73L297.54,176.26L297.68,167.77L297.83,169.79L297.97,160.37L298.26,199.2L298.41,185.44L298.55,180.07L298.7,174.35L298.84,112.46L298.99,150.02L299.57,138.92L299.71,118.85L300.73,180.07L300.88,180.07L302.91,180.07L303.05,236.35L303.34,246.86L303.49,161.11L303.92,201.64L304.07,185.88L304.22,188.82L304.36,182.3L304.51,185.8L304.65,181.51L304.8,184.33L304.94,181.14L305.38,181.63L305.52,181.83L305.96,180.73L306.1,181.89L306.97,180.2L307.12,182.58L307.7,180.07L307.99,180.19L308.14,182.05L309.01,180.07L309.15,189.24L309.44,189.45L310.02,180.07L310.17,180.07L310.6,180.07L310.75,252.61L310.89,151.63L311.48,161.05L311.62,174.08L311.91,214.37L312.49,141.01L312.64,134.35L312.93,131.68L313.07,124.08L313.22,133.29L313.51,129.95L313.65,185.94L314.23,125.36L314.38,167.62L314.53,180.07L317.28,180.07L317.43,183L318.01,192.71L318.3,191.31L318.45,182.88L318.59,189.23L319.03,182.26L319.17,188.56L319.32,182.19L319.9,181.31L320.04,188.8L320.19,182.25L320.33,184.57L320.48,181.2L320.77,182.82L320.91,181.66L321.79,180.07L321.93,181.82L322.8,180.07L322.95,180.07L323.09,188.43L323.67,180.31L323.82,180.07L324.69,251.43L324.83,203.19L325.42,223.22L326,136.17L326.14,151.95L326.43,156.87L326.58,108.27L326.72,200.78L327.3,122.53L327.45,131.43L327.59,181.54L327.74,170.45L327.88,176.99L328.03,104.54L328.17,210.67L328.76,150.82L328.9,142.64L329.77,180.07L329.92,180.07L331.22,180.07L331.37,192.34L331.66,201.67L332.1,184.27L332.24,194.49L332.53,195.18L332.97,183.56L333.11,196.14L333.98,182.26L334.13,180.07L334.27,182.98L334.85,180.74L335,180.3L336.02,180.07L336.16,180.69L337.03,180.07L337.18,180.07L338.48,180.07L338.63,182.58L339.21,180.07L339.36,172.85L340.23,132.72L340.37,191.21L340.81,122.58L341.1,128.57L341.24,167.73L342.11,180.07L342.26,180.07L344.73,180.07L344.87,189.42L345.02,182.41L345.31,194.93L345.45,191.66L345.6,202.45L346.33,181.24L346.47,184.77L346.62,181.25L347.34,180.49L347.49,187.44L347.63,181.91L347.92,183.49L348.36,180.07L348.5,181.93L349.38,180.12L349.52,180.07L350.97,180.07L351.12,189.11L351.41,189.19L351.99,180.07L352.13,188.49L352.72,180.35L352.86,250.43L353.73,139.87L353.88,203.55L354.75,114.35L354.89,165.67L355.76,180.07L355.91,180.07L358.96,180.07L359.1,193.5L359.25,184.93L359.39,196.52L359.83,193.82L359.98,187.75L360.27,183.67L360.41,200.73L360.7,193.42L360.85,186.74L360.99,193.94L361.43,181.22L361.57,185.27L361.72,181.37L361.86,184.59L362.01,181.2L362.3,182.46L362.44,180.52L362.73,180.96L363.17,180.07L363.32,180.2L363.46,180.1L364.19,180.07L364.33,188.38L364.48,182.7L364.62,199.84L364.77,184.98L364.91,199.4L365.49,180.07L365.64,247.69L365.78,148.6L366.22,279.18L366.37,198L366.51,195.85L367.24,164.2L367.38,222.22L367.67,149.94L368.25,167.06L368.4,176.82L368.54,83.47L369.12,160.51L369.27,170.4L369.41,167.71L369.56,97.13L369.7,153.59L370.29,149.37L370.43,111.51L371.45,180.07L371.59,180.07L373.48,180.45L373.63,182.69L373.92,180.59L374.06,188.14L374.64,183.47L374.79,187.95L375.08,188.25L375.66,180.09L375.8,180.07L379,180.07L379.14,247.78L379.29,148.53L379.87,179.01L380.01,185.03L380.31,180.07L380.45,181.23L380.6,251.72L380.74,145.95L381.32,151.29L381.47,213.41L382.48,116.95L382.63,152.8L383.65,258.93L383.79,199.19L383.94,180.07L384.08,180.2L384.23,262.74L384.95,136.65L385.1,213.5L385.82,107.18L385.97,135.02L386.98,183.84L387.13,181.01L387.28,180.07L387.42,181.84L388,180.07L388.15,180.07L392.65,180.07L392.79,188.38L393.52,180.07L393.66,246.99L394.25,180.07L394.54,183.65L394.68,182.72L394.97,180.07L395.12,220.47L395.99,148.54L396.13,160.25L396.28,176.8L397,101.22L397.15,144.77L397.29,97.13L397.44,235.48L397.59,100.62L397.73,217.62L397.88,58.23L398.31,257.18L398.46,111.24L398.6,254.04L398.75,67.19L399.33,146.02L399.47,205.34L399.91,114.51L400.2,155.06L400.34,175.31L400.49,144.4L400.78,180.07L400.93,180.07L401.07,180.07L401.22,180.07L401.36,189.56L401.51,182.45L401.94,190.58L402.09,182.7L402.23,189.64L402.52,191.71L402.81,180.07L403.1,183.61L403.25,184.85L404.41,180.07L404.56,180.07L406.44,180.07L406.59,247.6L406.73,148.27L407.17,268.01L407.31,197.09L407.46,183.69L407.75,180.07L407.9,188.4L408.04,182.17L408.19,186.82L408.77,180.07L408.91,230.72L409.35,131.41L409.64,139.34L409.78,201.21L410.65,107.36L410.8,123.1L410.94,109.25L411.09,164.95L411.23,180.07L415.45,180.62L415.59,192.7L415.74,183.2L416.32,191.73L416.46,186.91L417.77,180.07L417.91,180.81L418.79,180.07L418.93,180.07L421.25,180.07L421.4,188.01L421.54,183.24L421.84,183.84L421.98,196.42L422.13,186.67L422.27,267.42L422.42,151.26L423,208.63L423.14,228.19L423.29,154.36L423.87,195.9L424.01,192.17L424.16,209.09L424.3,145.05L424.45,169.62L424.59,149.15L424.74,160.37L424.88,122.52L425.03,140.74L425.18,107.68L425.9,174.71L426.05,171.99L426.19,178.05L426.48,185.84L426.77,180.07L426.92,180.07L427.64,160.61L427.79,175.98L427.93,180.07L428.08,139.82L428.95,199.02L429.1,188.53L429.39,184.41L429.53,187.68L429.68,181.81L429.82,180.07L429.97,250.18L430.4,147.89L430.84,201.47L430.98,177.66L431.13,186.92L431.71,180.07L431.85,181.4L432,180.4" style="vector-effect: non-scaling-stroke; fill: none; stroke: rgb(0, 191, 255); stroke-opacity: 1; stroke-width: 2px; opacity: 1;"/></g><g class="points"/><g class="text"/></g><g class="trace scatter trace3ce7ec" style="stroke-miterlimit: 2; opacity: 0.5;"><g class="fills"/><g class="errorbars"/><g class="lines"><path class="js-line" d="M0,180.27L3.49,180.2L3.63,179.53L4.07,168L4.21,158.81L5.66,25.96L5.81,32.4L5.95,68.7L6.1,16.36L6.82,16.44L6.97,16.47L8.13,16.6L8.28,17.47L9,69.85L9.15,82.62L10.75,180.29L10.89,180.28L17.43,180.15L17.57,179.34L18.01,167.32L18.15,157.84L20.04,16.59L20.18,16.6L20.33,16.69L21.35,16.69L21.49,16.73L21.78,16.84L21.93,17.83L22.22,25.4L22.36,44.22L22.51,39.64L22.65,47.04L22.8,62.7L24.69,180.29L24.83,180.28L31.37,179.75L31.51,177.52L32.24,142.55L32.38,131.58L33.69,23.13L33.83,40.73L34.12,51.96L34.27,26.62L34.41,16.51L34.71,29.07L34.85,25.67L35,31.33L35.58,16.41L35.72,17.06L35.87,22.35L38.48,180.29L38.63,180.28L45.31,180.19L45.45,179.37L46.76,127.26L46.9,101.62L47.77,33.39L47.92,35.27L48.06,96.38L48.5,143.66L48.94,124.34L49.08,125.98L50.1,166.2L50.24,163.51L50.39,163.73L50.82,170.85L50.97,159.82L51.26,171.36L51.4,164.19L51.55,161.82L52.57,180.28L52.71,180.28L59.25,180.12L59.39,178.7L60.55,132.42L60.7,86.13L60.84,106.82L61.13,83.77L61.28,51.59L61.42,52.45L61.57,63.56L61.71,69.93L61.86,41.97L62,114.9L62.44,21.3L62.59,50.54L62.73,80.4L62.88,78.38L63.02,104.42L63.31,45.57L63.6,79.92L63.75,111.98L63.89,111.73L64.04,128.23L64.76,172.22L65.2,170.56L65.34,163.13L65.49,164.13L65.63,172.1L66.8,180.28L66.94,180.28L73.19,179.9L73.33,178.24L73.91,149.38L74.06,133.43L75.65,16.22L75.8,16.31L75.94,16.32L77.98,16.53L78.12,18.39L79.14,106.34L79.28,123.24L80.45,180.28L80.59,180.27L86.98,180.24L87.13,179.91L87.56,169.45L87.71,160.5L89.45,16.28L89.89,16.42L90.03,16.42L91.77,16.46L91.92,16.32L92.06,16.53L92.21,18.96L94.24,180.29L94.53,180.27L94.68,180.27L101.07,179.89L101.21,178.76L101.79,151.68L101.94,134.6L103.39,16.25L103.68,16.29L103.83,16.26L105.86,16.36L106,17.28L106.58,59.09L106.73,73.63L108.33,180.29L108.47,180.28L115.01,179.71L115.15,178.01L115.73,150.09L115.88,133.8L117.62,16.26L117.77,16.31L119.8,16.84L119.94,20.17L122.12,180.29L122.41,180.27L122.56,180.28L128.95,180.18L129.09,178.18L131.56,16.06L131.85,16.12L132,16.15L132.29,37.6L132.43,20.43L132.58,16.19L132.87,16.18L133.01,17.52L133.16,22.19L133.45,16.22L133.59,16.24L133.74,16.19L133.88,16.43L134.03,19.1L135.34,151.08L135.48,167.58L136.21,180.29L136.35,180.27L136.5,180.27L142.89,179.62L143.03,177.86L143.47,160.33L143.61,146.61L145.36,16.18L145.5,16.17L147.82,16.6L147.97,19.22L150.15,180.29L150.29,180.28L150.44,180.27L156.83,179.6L156.97,177.44L157.41,159.52L157.55,145.37L159.15,16.25L159.3,16.3L159.44,16.29L161.62,16.48L161.76,17.4L162.34,57.94L162.49,72.19L164.09,180.29L164.23,180.28L164.38,180.27L171.2,180.11L171.35,179.14L171.93,155.18L172.07,142.07L173.67,16.6L174.11,19.22L174.25,18.33L174.4,16.28L175.12,16.39L175.27,16.65L175.41,17.65L175.7,16.36L175.85,16.36L175.99,16.36L176.14,16.46L176.29,18.39L177.45,119.83L177.59,134.96L178.61,180.29L178.75,180.28L185.14,180.21L185.29,179.32L185.87,154.71L186.01,141.09L187.61,16.07L187.9,16.26L188.05,16.29L190.08,16.98L190.23,19.85L191.68,148L191.82,163.53L192.69,180.28L192.84,180.28L199.08,180.13L199.23,179.05L199.95,143.15L200.1,127.23L201.7,16.27L201.84,16.32L201.99,16.36L203.29,16.6L203.44,16.57L204.02,16.78L204.17,20.51L206.2,180.26L206.34,180.29L213.02,180.06L213.17,178.58L213.89,142.06L214.04,127.1L215.64,16.07L215.78,16.1L215.93,16.24L217.96,16.63L218.11,18.89L219.41,136.23L219.56,150.53L220.43,180.29L220.57,180.28L220.72,180.27L226.96,180.14L227.11,179.15L227.69,155.44L227.83,139.77L229.58,16.81L229.72,17.53L229.87,21.44L230.16,16.22L230.74,16.45L230.88,16.43L231.46,16.52L231.61,17.74L231.9,17.63L232.48,46.79L232.63,56.82L234.22,180.28L234.37,180.28L240.9,179.93L241.05,178.43L241.77,138.56L241.92,123.48L243.37,16.29L243.66,16.41L243.81,16.41L245.84,16.87L245.99,19.62L247.29,133.67L247.44,147.79L248.16,180.29L248.45,180.28L248.6,180.28L254.84,179.83L254.99,177.38L256.01,126.18L256.15,89.2L256.3,90.3L256.44,87.84L256.59,56.68L257.31,16L257.89,16.24L258.04,16.24L259.49,16.67L259.64,19.05L260.07,40.69L260.22,68.94L261.38,161.6L261.52,167.5L262.1,180.29L262.54,180.27L262.69,180.27L268.78,179.95L268.93,177.18L269.8,107.33L270.09,121.8L270.24,129.02L271.25,17.52L271.54,27.04L271.69,31.12L271.83,16.17L272.56,16.28L272.7,21.44L272.85,38.19L273.29,16.32L273.43,17.22L273.72,16.2L274.3,40.39L274.45,53.07L276.19,180.29L276.33,180.28L276.48,180.27L282.58,180.19L282.72,179.29L283.45,147.83L283.6,133.31L285.34,16.29L285.48,16.33L285.63,16.33L286.94,16.58L287.08,17.5L287.66,16.53L288.24,39.96L288.39,52.66L290.27,180.28L290.42,180.28L296.66,179.7L296.81,177.97L297.39,149.6L297.54,133.22L299.28,16.21L299.42,16.49L301.75,16.64L301.89,18.62L302.91,108.87L303.05,124.4L304.22,180.29L304.36,180.29L310.6,179.73L310.75,177.87L311.33,147.93L311.48,131.54L313.07,16.22L313.22,16.3L313.36,16.34L315.54,16.56L315.69,17.53L316.56,83.42L316.7,98.09L318.16,180.29L318.3,180.29L324.4,180.17L324.54,179.49L324.98,167.51L325.13,158.17L327.16,16.34L327.3,16.41L328.76,16.76L328.9,16.76L329.48,16.76L329.63,17.45L330.21,55.26L330.35,68.46L332.1,180.28L332.24,180.28L338.34,180.09L338.48,179.25L339.07,157.41L339.21,145.45L340.95,17.02L341.1,17.65L341.24,16.47L341.53,19.29L341.68,16.5L342.41,17.15L342.55,18.55L342.7,16.88L343.13,20.32L343.28,17.67L343.42,21.21L343.71,34.6L343.86,47.01L344,45L344.15,66.49L344.58,93.87L344.73,109.09L346.04,180.29L346.18,180.28L352.28,180.21L352.42,179.5L352.86,169.84L353.01,158.44L354.75,16.24L354.89,16.27L356.2,16.26L356.35,16.36L357.51,16.92L357.65,20.38L360.12,180.28L360.27,180.27L366.22,180.21L366.37,179.41L366.8,150.17L366.95,136.07L368.69,16.14L368.83,16.17L368.98,16.2L371.45,16.55L371.59,18.61L372.61,108.14L372.75,123.75L373.92,180.29L374.06,180.28L380.31,179.63L380.45,176.92L381.32,129.23L381.47,160.13L381.61,155.97L381.76,115.37L382.19,55.09L382.63,55.46L382.77,135.87L383.35,132.54L383.65,166.42L383.79,152.74L383.94,152.52L384.08,161.57L384.37,85.92L384.66,139.47L384.81,142.35L385.24,97.92L385.39,33.57L385.82,19.49L386.26,68.45L386.4,115.92L387.28,180.06L387.42,180.23L389.89,180.28L390.03,180.28L394.25,180.21L394.39,179.38L394.83,160.94L394.97,136.51L395.41,147.41L395.99,77.71L396.13,81.43L396.28,103.61L396.42,52.4L396.57,31.28L396.86,40.04L397,16.27L397.15,16.48L397.29,25.57L397.59,17.2L398.46,146.63L398.6,130.71L398.89,19.44L399.33,98.21L399.47,131.43L399.91,23.54L400.2,95.42L400.34,124.25L400.63,102.37L400.93,143.89L401.07,161.65L401.65,180.29L401.94,180.27L402.09,180.27L408.04,179.66L408.19,177.21L408.91,136.3L409.06,117.26L410.36,16.25L410.51,16.26L410.65,16.36L412.54,16.42L412.69,17.16L413.41,34.32L413.56,33.43L413.7,59.95L413.85,46.06L413.99,64.3L414.14,95.04L415.59,180.28L415.74,180.28L422.13,180.08L422.27,179.23L423,142.66L423.14,133.87L423.72,64.97L424.01,93.56L424.16,92.14L424.74,59.49L424.88,37.22L425.18,28.23L425.32,52.62L426.34,123.23L426.48,123.33L426.92,132.1L427.06,116.64L427.35,119.11L427.64,104.07L427.79,109.82L427.93,114.73L428.08,76.35L428.37,148.45L428.51,160.91L429.53,180.27L429.68,180.27L432,180.27" style="vector-effect: non-scaling-stroke; fill: none; stroke: rgb(255, 0, 0); stroke-opacity: 1; stroke-width: 2px; opacity: 1;"/></g><g class="points"/><g class="text"/></g><g class="trace scatter trace523e8a" style="stroke-miterlimit: 2; opacity: 0.5;"><g class="fills"/><g class="errorbars"/><g class="lines"><path class="js-line" d="M0,204.23L0.73,205.5L0.87,204.07L1.02,204.69L1.16,203.92L1.45,203.92L1.6,213.73L2.18,203.59L2.47,203.7L2.61,214.27L3.05,198.22L3.49,203.85L3.63,272.25L3.92,273.94L4.07,161.51L4.65,165.18L4.79,170.58L5.52,129.31L5.66,140.35L5.81,133.17L6.1,155.19L6.24,98.68L6.68,173.29L6.97,162.65L7.12,117.31L7.26,159.15L7.7,102.01L7.84,154.79L7.99,106.96L8.42,198.38L8.86,156.23L9,179.24L10.16,290.51L10.31,168.54L10.46,253.46L10.6,164.77L11.04,215.83L11.18,193.56L11.76,206.66L12.05,204.69L12.2,205.54L12.49,205.87L12.63,205.52L12.78,204.35L12.92,205.15L13.36,204.01L13.5,204.71L13.65,204.02L13.94,205L14.09,203.95L14.23,204.69L14.81,204.43L14.96,204.31L15.97,203.75L16.12,203.64L16.41,204.1L16.84,203.61L16.99,213.45L17.72,199.86L17.86,267.25L18.01,152.72L18.59,163.72L18.73,181.04L19.46,122.54L19.6,140.38L19.75,115.34L19.89,199.53L20.47,169.6L20.62,116.07L20.77,165.49L21.2,110.25L21.35,142.5L21.49,111.81L22.36,161.03L22.51,157.56L22.65,163.68L22.8,234.79L23.09,243.02L23.23,138.46L23.52,155.14L23.67,225.97L23.81,182.41L24.25,228.84L24.4,209.57L24.54,219.66L25.27,199.26L25.41,203.85L25.56,205.44L25.7,203.63L25.85,205.76L26.28,203.95L26.43,205.92L27.3,204.31L27.44,205.03L27.74,184.91L27.88,203.68L28.03,204.36L28.17,273.62L28.32,154.1L28.75,219.21L28.9,186.08L29.62,204.23L29.77,203.84L29.91,204.24L30.49,203.75L30.64,272.46L31.51,200.61L31.66,196.92L32.09,181.35L32.38,182.85L32.53,242.28L33.54,124.95L33.69,149.34L33.98,164.34L34.41,95.44L34.56,154.96L34.71,169.93L34.85,168.48L35,94.8L35.29,90.88L35.72,160.58L35.87,104.64L36.01,172.92L36.74,166.85L36.88,159.6L37.9,210.74L38.34,205.48L38.48,204.94L38.92,204.45L39.21,206.31L39.35,205.49L39.79,204.3L39.93,205.69L40.08,204.88L40.22,205.39L40.37,204.31L40.8,205.5L40.95,205.76L41.68,204.23L41.82,205.68L42.11,203.86L42.4,205.24L42.55,204.95L43.27,203.98L43.42,204.16L43.56,272.6L43.71,153.92L44.29,176.44L44.43,212.89L44.58,191.46L45.16,203.99L45.31,213.46L45.74,199.64L46.18,207.21L46.32,207.37L46.47,193.68L46.61,259.16L47.77,111.38L47.92,162.13L48.06,153.53L48.21,196.81L48.35,200.08L48.5,225.75L48.79,194.45L48.94,194.89L49.08,261.37L49.37,203.18L49.81,209.68L49.95,285.01L50.24,206.57L50.82,217.9L50.97,212.94L51.26,214.11L51.84,198.75L52.28,203.74L52.42,205.84L53.15,224.7L53.29,211.27L53.44,223.46L53.87,202.67L54.02,212.89L54.16,207.96L54.31,214.32L54.6,204.48L54.74,204.68L54.89,204.12L55.18,203.96L55.76,204.52L55.91,204.03L56.63,204.97L56.78,204.2L57.36,204.43L57.5,213.95L57.79,214.48L57.94,198.07L58.37,204.14L58.52,203.87L58.81,203.96L58.96,272.8L59.83,191.55L59.97,184.05L60.55,160.81L60.7,180.63L61.42,121.19L61.57,160.83L61.86,179.52L62,114.25L62.15,216.59L62.59,80.99L62.88,194.58L63.02,229.29L63.46,105.61L63.75,152.67L63.89,243.15L64.18,169.96L64.62,206.37L64.76,206.94L64.91,210.08L65.2,208.4L65.34,202.41L65.49,194.21L65.93,206.15L66.07,206.01L66.65,203.97L66.94,204.14L67.09,204.14L68.1,204.67L68.25,204.51L68.39,204.34L69.7,204.5L69.85,203.87L69.99,214.38L70.57,204.07L70.72,203.24L71.44,203.76L71.59,203.37L71.73,203.8L72.31,203.28L72.46,203.49L73.33,201.42L73.48,197.06L73.62,270.97L73.77,151.36L74.2,206.67L74.35,147.28L74.49,243.37L74.93,98.16L75.07,168.9L75.22,108.54L75.8,164.09L75.94,79.36L76.09,155.55L76.67,154.89L76.82,90.71L77.69,56.35L77.83,57.11L78.12,148.26L78.56,90.43L78.7,105.18L80.01,205.58L80.45,204.32L80.59,205.17L80.74,204.44L80.88,204.97L81.03,273.09L81.46,204.29L81.9,204.91L82.04,204.6L82.91,204.62L83.06,204.36L83.21,204.7L83.64,203.9L83.79,204.13L84.8,204.29L84.95,203.62L85.09,203.02L85.53,203.8L85.67,203.24L85.82,203.46L86.55,203.51L86.69,272.13L87.56,195.69L87.71,196.86L89.16,129L89.3,146.33L89.45,150.75L89.59,83.22L89.74,75.04L90.18,87.71L90.32,88.08L90.61,153.95L90.9,71.53L91.05,68.43L91.48,64.15L91.77,74.6L91.92,73.65L92.06,76.16L93.66,205.63L93.81,198.69L93.95,273.82L94.39,154.05L94.82,220.63L94.97,186.13L95.4,211.88L95.84,207.68L95.98,211.4L96.56,203.53L97,204.06L97.15,203.81L98.02,203.72L98.16,203.56L98.89,203.69L99.03,203.16L99.47,203.28L99.61,202.94L99.76,202.84L100.19,203.45L100.49,203.23L100.63,203.27L101.07,202.46L101.21,270.33L101.36,152.26L101.79,280.16L101.94,188.29L102.08,190.63L103.39,108.53L103.53,129.43L103.83,133.07L104.26,71.78L104.41,144.18L104.55,167.81L104.7,163.92L104.84,89.65L105.71,60.45L105.86,136.88L106.15,167.35L106.29,131.44L106.73,159.69L106.87,178.08L107.46,212.28L108.04,206.78L108.18,204.63L108.62,205.51L108.76,204.05L108.91,205.29L109.05,204.01L109.2,205.09L109.78,204.37L109.92,204.34L110.8,203.84L110.94,204.05L112.54,204.07L112.68,203.52L113.12,203.78L113.26,272.19L113.41,153.8L113.99,184.25L114.14,204.03L114.28,200.23L114.86,203.27L115.01,202.56L115.15,210.82L115.59,195.22L115.73,185.27L117.33,79.91L117.47,139.82L117.62,143.99L117.77,73.2L117.91,57.26L118.06,124.55L118.2,135.96L118.78,48.49L119.07,50.79L119.22,65.74L119.36,64.63L119.51,65.91L119.65,70.86L121.83,214.96L122.12,213.64L122.27,201.27L123.14,205.5L123.28,272.74L123.57,204.36L124.15,214.69L124.3,207.98L124.74,214.8L125.03,214.58L125.17,208.6L125.32,204.54L126.04,205.23L126.19,205.02L126.91,204.9L127.06,204.79L127.93,204.83L128.08,204.05L128.66,267.36L128.8,159.76L128.95,229.85L129.53,190.6L129.67,186.68L129.82,246.08L130.4,208.46L130.54,131.08L130.69,162.33L131.12,114.45L131.27,137.08L131.42,115.91L131.56,137.29L131.71,114.82L131.85,127.09L132,85.61L132.72,63.61L132.87,67.41L133.01,77.09L133.45,161.47L133.88,157.03L134.03,72.82L134.17,69.2L134.32,87.6L134.9,238.97L135.19,220.43L135.34,177.52L135.48,208.59L136.21,205.35L136.35,204.91L137.08,210.98L137.22,215.6L137.37,207.98L137.95,208.4L138.09,214.63L138.68,204.32L138.97,204.56L139.11,204.71L139.98,205.65L140.27,205.52L140.42,205.32L140.56,205.66L140.71,205.03L141.14,205.23L141.29,205.22L141.58,215.04L141.73,198.3L141.87,202.86L142.02,273.1L142.16,153.98L142.74,176.67L142.89,211.98L143.9,169.41L144.05,160.16L145.06,116.79L145.21,118.93L145.36,127.4L145.65,77.77L145.79,136.61L146.66,68.11L146.81,67.06L147.1,66.13L147.82,77.07L147.97,80.24L148.84,157.1L148.99,177.03L149.71,276.67L150,274.99L150.15,158.35L150.29,237.34L150.87,209.4L151.02,200.33L151.6,205.51L151.89,204.22L152.03,204.41L153.05,204.04L153.2,204.31L153.34,203.84L153.92,204.38L154.07,204.18L155.37,203.38L155.52,203.35L156.54,203.48L156.68,203.22L156.97,199.87L157.12,275.52L158.13,143.91L158.28,150.64L159.44,48.16L159.73,50.09L159.88,51.77L160.89,182.84L161.04,174.61L161.18,112.91L161.47,87.55L161.62,149.07L161.91,168.25L162.05,94.83L162.2,94.07L162.34,102.54L163.94,215.9L164.09,208.34L164.23,225.72L164.81,224.59L164.96,200.77L165.1,213.06L165.25,198.28L165.68,204.76L165.83,204.1L166.12,203.96L166.27,204.68L166.56,204.3L166.7,203.88L167.14,203.97L167.28,213.78L167.43,208.01L167.57,214.28L168.01,208.15L168.15,214.27L168.59,182.04L168.73,248.76L168.88,153.87L169.46,199.36L169.61,202.11L170.04,203.77L170.19,203.46L170.33,213.54L170.62,203.67L171.2,207.63L171.35,212.29L171.49,275.17L171.93,181.11L172.07,176.6L173.09,116.19L173.38,122.56L173.53,147.41L174.54,61.39L174.69,66.65L174.83,65.3L174.98,131.61L175.12,153.33L175.27,85.13L175.41,69.99L175.7,71.26L175.99,56.86L176.29,58.27L176.43,71.76L176.58,72.24L176.72,91.17L177.16,126.48L177.3,142.48L178.46,212.99L178.61,211.96L178.75,213.38L179.04,202.59L179.48,206.1L179.62,206.35L180.06,204.47L180.35,204.61L180.5,205.52L181.22,204.08L181.37,204.37L182.53,204.45L182.67,204L183.11,204.32L183.26,272.77L183.4,154L183.98,184.88L184.13,204.18L184.27,200.1L184.42,202.02L184.56,213.62L184.85,213.72L185.14,205.28L185.29,207.53L185.43,278.46L186.45,163.98L186.59,159.44L186.74,173.55L186.89,151.43L187.03,161.7L187.18,138.91L187.76,125.16L188.05,173.71L188.19,165.45L188.48,60.37L189.06,70.15L189.21,71.94L189.35,66.78L189.79,70.56L189.93,76.91L190.08,68.3L190.37,89.9L190.52,102.68L190.81,137.27L190.95,168.51L191.53,223.94L191.97,216.21L192.11,215.2L192.26,229.45L192.69,212.44L192.84,220.6L192.98,211.05L193.13,220.62L193.57,209.24L193.71,287.84L194.15,207.18L194.58,207.32L194.73,208.27L195.16,204.5L195.6,205.51L195.74,204.18L195.89,205.29L196.47,204.3L196.61,204.4L197.34,203.83L197.49,282.83L197.63,156.44L198.21,184.75L198.36,204.48L198.5,200.01L199.08,204.29L199.23,216.26L199.52,216.8L199.81,205.3L199.95,262L200.1,136.43L200.68,200.45L200.83,199.31L201.55,102.03L201.7,141.51L201.84,95.57L202.28,144.3L202.42,182.02L202.71,108.62L203,110.46L203.15,216.04L204.17,93.05L204.31,101.21L205.33,260.65L205.47,163.2L205.62,222.78L206.2,214.31L206.34,207.49L206.78,218.67L207.07,216.15L207.21,211.75L207.36,213.5L207.8,210.34L207.94,206.45L208.09,207.65L208.38,205.74L208.52,205.76L208.67,205.47L208.81,204.17L209.1,205.63L209.54,204.39L209.68,204.88L210.26,205.2L210.41,204.16L210.55,204.76L210.7,203.62L211.43,203.82L211.57,203.76L211.86,204.29L212.01,272.28L212.15,153.94L212.3,304L212.73,184.55L212.88,204.42L213.02,201.33L213.17,278.28L214.04,176.99L214.18,184.1L214.77,149.72L214.91,207.84L215.2,107.42L215.49,108.66L215.64,211.44L216.36,116.02L216.51,157.02L216.8,167.45L216.94,108.69L217.09,159.36L217.23,195.76L217.52,196.44L217.67,133.84L217.96,114.62L218.11,160.25L218.25,132.44L218.4,114.2L219.99,214.41L220.43,213.14L220.57,208.63L221.01,217.02L221.15,208.12L221.3,214.81L221.45,208.7L221.59,216.27L222.03,206.56L222.17,209.01L222.32,206.78L222.46,208.58L222.75,204.34L222.9,204.45L223.19,204.85L223.62,204.18L223.77,204.77L224.64,203.94L224.79,203.99L224.93,203.73L225.08,273.08L225.37,204.65L225.95,214.21L226.09,198.2L227.4,217.6L227.54,196.46L229.29,132.9L229.43,144.22L230.16,64.29L230.3,128.47L230.45,155.21L230.59,81.3L230.74,69.35L231.17,167.37L231.46,82.76L231.61,89.46L231.76,85.16L231.9,90.23L232.05,98.85L232.19,93.63L232.48,103.54L232.63,109.85L233.64,210.74L233.79,209.91L233.93,212.03L234.66,207.6L234.8,207.74L234.95,208.67L235.53,205.39L235.68,206.14L235.82,206.82L236.55,205.34L236.69,205.9L236.84,206.01L237.13,204.3L237.71,204.97L237.85,205.01L238,205.5L238.43,204.45L238.58,205.08L238.73,204.46L239.6,204.53L239.74,204.18L239.89,203.92L240.03,204.12L240.18,214.41L240.47,204.45L240.76,217.8L240.9,286.1L241.05,167.14L241.63,181.48L241.77,191.45L242.21,151.08L242.36,226.36L243.23,115.58L243.37,203.98L243.81,82.73L244.24,152.58L244.39,173.85L244.53,173.63L244.68,101.07L244.82,79.29L245.41,92.35L245.55,85.14L245.84,89.11L245.99,75.51L248.02,207.88L248.31,207.86L248.45,205.73L248.6,204.1L248.89,207.03L249.04,206.78L249.18,207.96L249.76,204.84L250.34,205.76L250.49,206.1L250.63,206.17L250.78,204.09L251.36,205.7L251.65,205.51L251.79,204.39L251.94,205.2L252.38,204.22L252.52,204.7L252.67,204.18L252.96,273.45L253.1,164.08L253.25,237.77L253.39,180.17L253.54,211.53L254.12,204.22L254.26,203.93L254.99,204.84L255.13,199.24L255.42,178.67L255.57,184.73L255.71,240.73L256.3,140.76L256.44,232.67L257.31,60.07L257.46,74.66L257.6,75.88L257.89,76.05L258.47,54.49L258.62,59.36L258.76,62.19L260.22,116.57L260.36,213.23L260.51,213.03L260.65,227.06L260.8,224.43L260.94,231.47L261.09,169.54L261.81,213.89L261.96,209.38L262.1,216.57L262.83,204.76L262.98,205.25L263.12,204.98L263.41,206.1L263.7,204.07L263.85,205.46L263.99,204.48L264.14,205.62L264.28,204.41L264.57,204.41L264.72,203.83L265.44,205.64L265.59,204.73L265.73,204.68L266.02,204.26L266.32,205.71L266.46,204.87L266.61,204.04L266.75,205.14L267.19,203.73L267.33,204.31L267.48,204.18L267.62,272.94L268.2,203.85L268.35,213.77L269.95,160.78L270.09,176.04L270.24,235.19L270.53,135.8L270.67,152.29L270.82,148.54L270.96,156.42L271.11,105.95L271.54,149.07L271.69,96.33L271.83,63.09L272.85,92.23L273.14,91.76L273.29,73.75L273.58,75.61L273.72,72.73L273.87,135.14L274.01,145.6L274.16,93.65L274.3,80.53L274.59,105.85L274.74,125.27L275.46,255.05L275.61,165.77L275.75,224.99L276.33,208.23L276.48,206.53L276.63,208.99L277.06,206.49L277.21,208.3L277.35,205.81L278.22,204.25L278.37,205.16L278.95,203.9L279.09,203.98L279.24,204.72L279.38,205.54L279.97,204.7L280.11,214.15L280.26,198.11L280.84,204.17L280.98,204.33L281.27,204.53L282,203.98L282.14,272.53L282.29,153.92L282.87,185.54L283.01,210.17L284.03,156.07L284.18,216.9L284.32,111.76L284.76,240.18L284.9,153.81L285.05,209.51L285.19,91.79L285.34,236.15L285.77,102.06L285.92,141.85L286.21,141.87L286.5,70.04L286.79,72.59L286.94,86.37L287.08,86.64L287.23,101.29L287.52,116.93L287.66,185.82L288.1,208.38L288.24,206.5L288.39,145.98L288.53,141.36L288.68,155.44L288.82,179.1L289.98,220.15L290.13,200.57L290.57,209.72L291,206.01L291.15,204.71L291.58,205.98L292.02,205.7L292.16,204.97L292.31,205.51L292.45,203.68L292.89,205.03L293.03,204.96L293.61,205.6L293.76,204.41L293.91,205.3L294.2,205.78L294.49,204.51L294.78,204.68L294.92,204.81L295.21,205.07L295.36,204.31L295.5,273.28L295.79,204.68L296.37,227.94L296.52,219.18L297.83,165.33L297.97,175.29L298.12,226.52L298.55,186.9L298.7,118.11L298.84,155.97L298.99,114.23L299.42,147.57L299.57,121.19L299.71,127.58L299.86,119.16L300,84.82L300.44,74.63L300.58,80.1L300.73,88.3L301.46,125.42L301.75,118.54L301.89,105.52L302.76,155.88L302.91,249.8L303.2,264.64L303.34,156.99L303.78,220.92L303.92,193.72L304.36,210.77L304.8,206.66L304.94,208.86L305.23,209.09L305.81,207L305.96,206.82L306.68,204.32L306.97,204.69L307.12,205.54L307.26,203.5L307.7,205.73L307.85,205.51L307.99,204.78L308.14,205.55L308.28,203.95L308.72,204.98L308.86,204.13L309.01,214.5L309.59,214.25L309.73,198.08L310.02,204.76L310.46,204.61L310.6,273.79L310.75,155.63L311.33,175.95L311.48,190.73L311.77,240.04L312.35,148.1L312.49,142.43L312.93,123.73L313.36,133.45L313.51,199.67L314.67,91.97L314.82,166.91L314.96,194.42L315.25,104.68L315.4,97.59L315.69,186.45L316.12,126.96L316.27,130.36L316.85,176.22L316.99,186.41L317.28,202.91L317.43,208.61L317.72,214.65L318.16,212.36L318.3,208.61L318.45,216.46L318.88,207.22L319.03,211.03L319.17,207.45L319.32,211.75L319.75,206.72L319.9,210.17L320.04,206.8L320.33,206.69L320.77,209.55L320.91,207.56L321.64,204.14L321.79,204.66L321.93,205.7L322.8,204.02L322.95,214.67L323.53,203.96L323.67,204.35L323.82,272.93L324.11,204.6L324.54,276.77L324.69,230.99L325.27,252.64L325.85,137.54L326,158.9L326.43,116.25L326.58,222.58L327.01,116.11L327.3,122.66L327.45,203.54L327.88,103.83L328.03,230.2L328.17,144L328.32,226.73L329.19,88.28L329.34,155.82L329.77,190.97L329.92,137.11L330.06,125.1L331.51,220.59L331.81,219.48L331.95,210.02L332.1,222.04L332.24,209.89L332.68,220.51L332.82,209.83L332.97,219.5L333.11,209.04L333.55,216.7L333.69,211.36L333.84,203.15L334.42,205.91L334.56,205.47L334.71,204.34L335,206.29L335.29,204.76L335.44,205.1L335.73,205.84L335.87,205.51L336.02,204.49L336.16,205.59L336.31,204.41L336.74,204.44L336.89,204.66L337.32,204.02L337.47,205L337.61,204.12L337.76,204.83L337.9,203.85L338.48,204.79L338.63,206.71L338.78,207.55L338.92,202.88L340.08,138.09L340.23,213.93L341.39,79.87L341.53,84.15L341.68,83.87L341.82,90.18L341.97,156.85L342.26,178.68L342.41,110.38L342.55,89.79L343.13,97.79L343.28,104.42L344.29,151.84L344.44,174.78L345.45,223.03L345.6,218.24L345.75,216.84L346.47,206.39L346.76,206.8L346.91,208.75L347.63,202.58L347.78,206.8L347.92,206.52L348.65,203.89L348.79,205.5L349.23,207.13L349.52,204.66L349.67,205.04L349.96,204.49L350.1,205.51L350.54,204.12L350.83,204.32L350.97,214.66L351.84,204.11L351.99,214.67L352.57,203.91L352.72,272.24L353.59,168.59L353.73,235.32L354.6,116.94L354.75,134.96L355.33,77.96L355.62,83.99L355.76,162.39L356.2,204.81L356.35,128L357.51,70.35L357.65,80.24L359.69,220.44L359.83,214.41L360.27,221.12L360.41,209.37L360.56,217.66L360.7,209.94L360.85,219.94L361.28,207.7L361.43,210.22L361.57,207.05L361.72,210.12L361.86,206.85L362.3,207.87L362.44,206.02L363.17,204.46L363.46,204.62L363.61,205.48L364.04,203.95L364.19,213.93L364.33,208.04L364.48,224.5L364.62,210.87L364.77,224.09L365.2,198.14L365.35,202.22L365.49,273.53L365.64,153.98L366.07,299.3L366.22,203.89L366.37,215.65L367.09,167.35L367.24,250.93L367.53,153.37L368.11,176.58L368.25,178.44L368.69,82.76L368.98,156.8L369.12,171.91L369.27,163.7L369.41,101.65L369.7,98.28L369.85,152.21L370.14,149.78L370.29,107.31L370.43,149.95L370.72,80.16L370.87,86.79L371.01,87.79L373.92,215.4L374.06,209.35L374.21,213.96L374.79,209.2L374.93,213.63L375.08,209.22L375.66,204.17L375.95,204.7L376.09,204.61L376.82,205.38L376.97,204.39L377.11,205.51L377.55,204.28L377.69,204.51L377.84,204.59L378.27,203.97L378.56,204.33L378.71,205.15L378.85,204.63L379,273.08L379.14,153.98L379.72,184.29L379.87,205.22L380.01,199.63L380.31,204.94L380.45,275.42L380.6,154.98L381.18,170.38L381.32,209.03L381.47,193.05L381.61,216.04L381.76,266.49L382.63,129.4L382.77,185.04L383.5,278.72L383.65,230.92L383.79,195.67L383.94,195.75L384.08,292.98L384.52,130.13L385.1,144.3L385.24,193.73L385.39,112.37L385.97,115.41L386.11,143.38L386.98,205.83L387.42,205.55L387.57,203.95L388.44,205.1L388.58,204.32L388.87,205.46L389.02,203.93L389.31,204.55L389.45,204.65L390.18,204.04L390.32,204.48L391.05,203.9L391.2,204.33L392.07,203.81L392.21,203.93L392.36,203.74L392.5,203.96L392.65,213.75L393.08,203.58L393.37,203.59L393.52,272.65L393.95,203.48L394.39,207.46L394.54,210.15L394.68,207.67L394.83,210.76L394.97,261.26L395.99,163.96L396.13,157.26L396.28,162.88L396.42,150.55L396.57,117.09L397.15,100.69L397.29,222.38L397.44,136.62L397.59,232.36L397.73,56.5L398.17,223.64L398.31,108.77L398.46,274.69L398.89,93L399.04,206.98L399.18,125.16L399.33,202.06L399.76,122.78L399.91,133.75L400.05,123.82L401.07,190.72L401.22,212.07L401.8,215.99L401.94,208.01L402.09,214.15L402.38,214.63L402.52,198.05L402.96,207.59L403.1,211.17L403.68,203.68L404.26,204.13L404.41,204.33L404.85,205.14L404.99,204.24L405.72,204.34L405.86,204.05L406.3,204.23L406.44,272.59L406.59,153.89L407.02,288.93L407.17,201.86L407.31,204.53L407.46,200.43L407.6,202.72L407.75,214.15L408.62,194.9L408.77,258.66L409.49,145.58L409.64,227.1L410.51,107.19L410.65,124.18L411.38,79.28L411.67,83.55L411.82,88.73L412.11,65.41L412.25,125.51L412.4,141.91L412.54,74.85L412.69,58.52L412.98,64.09L413.12,131.66L413.41,173.8L413.56,117.19L413.7,117.7L413.85,111.96L414.28,152.79L414.43,190.05L414.72,175.9L415.01,198.3L415.16,197.02L416.03,217.98L416.17,216.3L416.32,216.78L416.9,202.18L417.48,204.09L417.62,205.32L417.91,205.75L418.06,204.88L418.21,204.26L418.5,204.16L418.93,205.31L419.08,204.27L419.37,205.55L419.8,204.09L419.95,204.7L420.67,203.71L420.82,203.87L420.96,203.78L421.11,204.49L421.25,214.88L421.4,208.09L421.69,208.92L421.84,222.88L421.98,211.98L422.13,291.51L422.27,152.67L422.85,244.21L423,259.84L423.14,166.62L423.72,202.43L423.87,211.4L424.01,235.84L424.16,151.12L424.3,193.6L424.45,154.34L424.59,161.97L424.74,140.74L424.88,143.69L425.03,116.47L426.05,196.61L426.19,192.4L426.34,203.07L426.48,206.51L426.63,196.47L426.77,192.56L426.92,196.58L427.06,168.66L427.79,177.6L427.93,169.47L428.08,171.84L428.22,170.31L428.37,208.9L428.81,222.69L429.1,212.89L429.24,211.59L429.39,213.12L429.53,200.14L429.68,202.65L429.82,274.28L430.26,153.97L430.69,222.11L430.84,184.15L430.98,206.49L431.71,205.72L431.85,205.51L432,203.82" style="vector-effect: non-scaling-stroke; fill: none; stroke: rgb(0, 128, 0); stroke-opacity: 1; stroke-width: 2px; opacity: 1;"/></g><g class="points"/><g class="text"/></g></g></g><g class="overplot"/><path class="xlines-above crisp" d="M0,0" style="fill: none;"/><path class="ylines-above crisp" d="M0,0" style="fill: none;"/><g class="overlines-above"/><g class="xaxislayer-above"><g class="xtick"><text text-anchor="middle" x="0" y="433" transform="translate(149.7,0)" style="font-family: 'Open Sans', verdana, arial, sans-serif; font-size: 12px; fill: rgb(42, 63, 95); fill-opacity: 1; white-space: pre; opacity: 1;"><tspan class="line" dy="0em" x="0" y="433">Mar 6</tspan><tspan class="line" dy="1.3em" x="0" y="433">2022</tspan></text></g><g class="xtick"><text text-anchor="middle" x="0" y="433" style="font-family: 'Open Sans', verdana, arial, sans-serif; font-size: 12px; fill: rgb(42, 63, 95); fill-opacity: 1; white-space: pre; opacity: 1;" transform="translate(247.28,0)">Mar 13</text></g><g class="xtick"><text text-anchor="middle" x="0" y="433" style="font-family: 'Open Sans', verdana, arial, sans-serif; font-size: 12px; fill: rgb(42, 63, 95); fill-opacity: 1; white-space: pre; opacity: 1;" transform="translate(344.86,0)">Mar 20</text></g><g class="xtick"><text text-anchor="middle" x="0" y="433" style="font-family: 'Open Sans', verdana, arial, sans-serif; font-size: 12px; fill: rgb(42, 63, 95); fill-opacity: 1; white-space: pre; opacity: 1;" transform="translate(442.44,0)">Mar 27</text></g></g><g class="yaxislayer-above"><g class="ytick"><text text-anchor="end" x="79" y="4.199999999999999" transform="translate(0,365.93)" style="font-family: 'Open Sans', verdana, arial, sans-serif; font-size: 12px; fill: rgb(42, 63, 95); fill-opacity: 1; white-space: pre; opacity: 1;">−50</text></g><g class="ytick"><text text-anchor="end" x="79" y="4.199999999999999" style="font-family: 'Open Sans', verdana, arial, sans-serif; font-size: 12px; fill: rgb(42, 63, 95); fill-opacity: 1; white-space: pre; opacity: 1;" transform="translate(0,280.07)">0</text></g><g class="ytick"><text text-anchor="end" x="79" y="4.199999999999999" style="font-family: 'Open Sans', verdana, arial, sans-serif; font-size: 12px; fill: rgb(42, 63, 95); fill-opacity: 1; white-space: pre; opacity: 1;" transform="translate(0,194.22)">50</text></g><g class="ytick"><text text-anchor="end" x="79" y="4.199999999999999" style="font-family: 'Open Sans', verdana, arial, sans-serif; font-size: 12px; fill: rgb(42, 63, 95); fill-opacity: 1; white-space: pre; opacity: 1;" transform="translate(0,108.36)">100</text></g></g><g class="overaxes-above"/></g></g><g class="polarlayer"/><g class="smithlayer"/><g class="ternarylayer"/><g class="geolayer"/><g class="funnelarealayer"/><g class="pielayer"/><g class="iciclelayer"/><g class="treemaplayer"/><g class="sunburstlayer"/><g class="glimages"/><defs id="topdefs-df8caa"><g class="clips"/><clipPath id="legenddf8caa"><rect width="167" height="67" x="0" y="0"/></clipPath></defs><g class="layer-above"><g class="imagelayer"/><g class="shapelayer"/></g><g class="infolayer"><g class="legend" pointer-events="all" transform="translate(520.64,100)"><rect class="bg" shape-rendering="crispEdges" width="167" height="67" x="0" y="0" style="stroke: rgb(68, 68, 68); stroke-opacity: 1; fill: rgb(255, 255, 255); fill-opacity: 1; stroke-width: 0px;"/><g class="scrollbox" transform="" clip-path="url(#legenddf8caa)"><g class="groups"><g class="traces" transform="translate(0,14.5)" style="opacity: 1;"><text class="legendtext" text-anchor="start" x="40" y="4.680000000000001" style="font-family: 'Open Sans', verdana, arial, sans-serif; font-size: 12px; fill: rgb(42, 63, 95); fill-opacity: 1; white-space: pre;">BESS</text><g class="layers" style="opacity: 0.5;"><g class="legendfill"/><g class="legendlines"><path class="js-line" d="M5,0h30" style="fill: none; stroke: rgb(0, 191, 255); stroke-opacity: 1; stroke-width: 2px;"/></g><g class="legendsymbols"><g class="legendpoints"/></g></g><rect class="legendtoggle" x="0" y="-9.5" width="161.890625" height="19" style="fill: rgb(0, 0, 0); fill-opacity: 0;"/></g><g class="traces" transform="translate(0,33.5)" style="opacity: 1;"><text class="legendtext" text-anchor="start" x="40" y="4.680000000000001" style="font-family: 'Open Sans', verdana, arial, sans-serif; font-size: 12px; fill: rgb(42, 63, 95); fill-opacity: 1; white-space: pre;">Solar</text><g class="layers" style="opacity: 0.5;"><g class="legendfill"/><g class="legendlines"><path class="js-line" d="M5,0h30" style="fill: none; stroke: rgb(255, 0, 0); stroke-opacity: 1; stroke-width: 2px;"/></g><g class="legendsymbols"><g class="legendpoints"/></g></g><rect class="legendtoggle" x="0" y="-9.5" width="161.890625" height="19" style="fill: rgb(0, 0, 0); fill-opacity: 0;"/></g><g class="traces" transform="translate(0,52.5)" style="opacity: 1;"><text class="legendtext" text-anchor="start" x="40" y="4.680000000000001" style="font-family: 'Open Sans', verdana, arial, sans-serif; font-size: 12px; fill: rgb(42, 63, 95); fill-opacity: 1; white-space: pre;">Grid Meter (Net Load)</text><g class="layers" style="opacity: 0.5;"><g class="legendfill"/><g class="legendlines"><path class="js-line" d="M5,0h30" style="fill: none; stroke: rgb(0, 128, 0); stroke-opacity: 1; stroke-width: 2px;"/></g><g class="legendsymbols"><g class="legendpoints"/></g></g><rect class="legendtoggle" x="0" y="-9.5" width="161.890625" height="19" style="fill: rgb(0, 0, 0); fill-opacity: 0;"/></g></g></g><rect class="scrollbar" rx="20" ry="3" width="0" height="0" x="0" y="0" style="fill: rgb(128, 139, 164); fill-opacity: 1;"/></g><g class="g-gtitle"><text class="gtitle" x="296" y="50" text-anchor="middle" dy="0em" style="font-family: 'Open Sans', verdana, arial, sans-serif; font-size: 17px; fill: rgb(42, 63, 95); opacity: 1; font-weight: normal; white-space: pre;"><tspan class="line" dy="0em" x="296" y="50">Scenario 8</tspan><tspan class="line" dy="1.3em" x="296" y="50">Microgrid Output</tspan><tspan class="line" dy="2.6em" x="296" y="50">From: March 01, 2022 to March 31, 2022</tspan></text></g><g class="g-xtitle"><text class="xtitle" x="296" y="477.409375" text-anchor="middle" style="font-family: 'Open Sans', verdana, arial, sans-serif; font-size: 14px; fill: rgb(42, 63, 95); opacity: 1; font-weight: normal; white-space: pre;">Time</text></g><g class="g-ytitle"><text class="ytitle" transform="rotate(-90,33.60625,260)" x="33.60625" y="260" text-anchor="middle" style="font-family: 'Open Sans', verdana, arial, sans-serif; font-size: 14px; fill: rgb(42, 63, 95); opacity: 1; font-weight: normal; white-space: pre;">Demand (kW)</text></g></g></svg>