<svg class="main-svg" xmlns="http://www.w3.org/2000/svg" xmlns:xlink="http://www.w3.org/1999/xlink" width="700" height="500" style="" viewBox="0 0 700 500"><rect x="0" y="0" width="700" height="500" style="fill: rgb(255, 255, 255); fill-opacity: 1;"/><defs id="defs-efcbc9"><g class="clips"><clipPath id="clipefcbc9xyplot" class="plotclip"><rect width="437" height="320"/></clipPath><clipPath class="axesclip" id="clipefcbc9x"><rect x="80" y="0" width="437" height="500"/></clipPath><clipPath class="axesclip" id="clipefcbc9y"><rect x="0" y="100" width="700" height="320"/></clipPath><clipPath class="axesclip" id="clipefcbc9xy"><rect x="80" y="100" width="437" height="320"/></clipPath></g><g class="gradients"/><g class="patterns"/></defs><g class="bglayer"/><g class="layer-below"><g class="imagelayer"/><g class="shapelayer"/></g><g class="cartesianlayer"><g class="subplot xy"><g class="layer-subplot"><g class="shapelayer"/><g class="imagelayer"/></g><g class="minor-gridlayer"><g class="x"/><g class="y"/></g><g class="gridlayer"><g class="x"><path class="xgrid crisp" transform="translate(150.51,0)" d="M0,100v320" style="stroke: rgb(255, 255, 255); stroke-opacity: 1; stroke-width: 1px;"/><path class="xgrid crisp" transform="translate(249.22,0)" d="M0,100v320" style="stroke: rgb(255, 255, 255); stroke-opacity: 1; stroke-width: 1px;"/><path class="xgrid crisp" transform="translate(347.93,0)" d="M0,100v320" style="stroke: rgb(255, 255, 255); stroke-opacity: 1; stroke-width: 1px;"/><path class="xgrid crisp" transform="translate(446.64,0)" d="M0,100v320" style="stroke: rgb(255, 255, 255); stroke-opacity: 1; stroke-width: 1px;"/></g><g class="y"><path class="ygrid crisp" transform="translate(0,345.76)" d="M80,0h437" style="stroke: rgb(255, 255, 255); stroke-opacity: 1; stroke-width: 1px;"/><path class="ygrid crisp" transform="translate(0,187.9)" d="M80,0h437" style="stroke: rgb(255, 255, 255); stroke-opacity: 1; stroke-width: 1px;"/><path class="ygrid crisp" transform="translate(0,108.98)" d="M80,0h437" style="stroke: rgb(255, 255, 255); stroke-opacity: 1; stroke-width: 1px;"/></g></g><g class="zerolinelayer"><path class="yzl zl crisp" transform="translate(0,266.83000000000004)" d="M80,0h437" style="stroke: rgb(255, 255, 255); stroke-opacity: 1; stroke-width: 2px;"/></g><path class="xlines-below"/><path class="ylines-below"/><g class="overlines-below"/><g class="xaxislayer-below"/><g class="yaxislayer-below"/><g class="overaxes-below"/><g class="plot" transform="translate(80,100)" clip-path="url(#clipefcbc9xyplot)"><g class="scatterlayer mlayer"><g class="trace scatter trace5f883d" style="stroke-miterlimit: 2; opacity: 0.5;"><g class="fills"/><g class="errorbars"/><g class="lines"><path class="js-line" d="M0,166.83L437,166.83" style="vector-effect: non-scaling-stroke; fill: none; stroke: rgb(0, 191, 255); stroke-opacity: 1; stroke-width: 2px; opacity: 1;"/></g><g class="points"/><g class="text"/></g><g class="trace scatter trace74de62" style="stroke-miterlimit: 2; opacity: 0.5;"><g class="fills"/><g class="errorbars"/><g class="lines"><path class="js-line" d="M0,167.01L3.53,166.94L3.67,166.33L4.11,155.73L4.26,147.28L5.73,25.16L5.88,31.07L6.02,64.44L6.46,16.34L6.9,16.4L7.05,16.43L8.23,16.55L8.37,17.35L8.96,52.04L9.11,65.5L10.87,167.02L11.02,167.02L17.63,166.9L17.77,166.15L18.36,146.39L18.51,132.56L20.27,16.54L20.42,16.55L22.18,17.68L22.33,18.84L23.36,85.29L23.5,101.1L23.65,101.63L23.8,121.54L24.82,167.03L24.97,167.02L25.12,167.02L31.73,166.53L31.88,164.48L32.61,132.33L32.76,122.25L34.08,22.56L34.23,38.73L34.52,49.06L34.67,25.76L34.81,16.47L35.11,28.01L35.25,24.89L35.4,30.09L35.99,16.38L36.14,16.97L36.28,21.84L38.93,167.03L39.07,167.02L45.83,166.94L45.98,166.18L47.3,118.28L47.45,94.71L48.33,31.99L48.47,33.71L48.62,89.89L49.06,133.36L49.5,115.6L49.65,117.1L50.68,154.07L50.82,151.6L50.97,151.81L51.41,158.35L51.56,148.21L51.85,158.82L52,152.23L52.15,150.05L53.17,167.02L53.32,167.02L59.93,166.87L60.08,165.57L61.25,123.03L61.4,80.47L61.55,99.49L61.84,78.3L61.99,48.72L62.13,49.51L62.28,59.72L62.43,65.58L62.58,39.87L62.72,106.92L63.16,20.87L63.31,47.75L63.46,75.2L63.6,73.34L63.75,97.29L64.04,43.18L64.34,74.76L64.49,104.23L64.63,104L64.78,119.17L65.51,159.61L65.95,158.09L66.1,151.26L66.25,152.17L66.39,159.5L67.42,167.02L67.57,167.02L74.03,166.67L74.18,165.14L74.77,138.61L74.91,123.95L76.53,16.2L76.68,16.28L76.82,16.29L78.88,16.48L79.03,18.2L80.2,114.58L80.35,129.66L81.38,167.02L81.52,167.01L87.99,166.98L88.13,166.68L88.58,157.06L88.72,148.84L90.48,16.26L90.93,16.39L91.07,16.39L92.83,16.42L92.98,16.3L93.13,16.48L93.28,18.72L95.48,167.02L95.63,167.01L95.77,167.01L102.24,166.66L102.38,165.62L102.97,140.73L103.12,125.02L104.59,16.23L104.88,16.26L105.03,16.24L107.08,16.33L107.23,17.17L107.82,55.61L107.96,68.98L109.58,167.02L109.73,167.01L116.34,166.5L116.48,164.93L117.07,139.27L117.22,124.29L118.98,16.24L119.13,16.29L121.18,16.77L121.33,19.84L123.54,167.03L123.83,167.01L123.98,167.01L130.44,166.92L130.59,165.09L133.08,16.05L133.38,16.11L133.52,16.14L133.82,35.86L133.96,20.07L134.11,16.17L134.41,16.16L134.55,17.39L134.7,21.69L134.99,16.2L135.14,16.22L135.29,16.18L135.43,16.39L135.58,18.85L136.76,123.68L136.9,140.18L137.64,167.03L137.78,167.02L137.93,167.01L144.54,166.41L144.69,164.79L145.27,136.06L145.42,119.86L147.18,16.16L147.33,16.2L149.24,16.25L149.39,16.31L149.53,16.55L149.68,18.96L151.15,150.92L151.3,161.7L151.89,167.03L152.18,167.01L152.33,167.01L158.64,166.4L158.79,164.41L159.23,147.93L159.38,134.93L160.99,16.23L161.14,16.27L161.29,16.26L163.49,16.44L163.64,17.29L164.37,67.65L164.52,81.61L165.99,167.02L166.13,167.02L173.18,166.87L173.33,165.97L173.92,143.94L174.07,131.9L175.68,16.55L175.98,16.8L176.12,18.96L177,16.32L177.15,16.36L177.3,16.6L177.44,17.52L177.74,16.33L177.88,16.33L178.03,16.33L178.18,16.43L178.33,18.19L179.5,111.45L179.65,125.36L180.68,167.02L180.82,167.02L187.29,166.95L187.43,166.14L188.02,143.52L188.17,130.99L189.78,16.07L190.08,16.24L190.22,16.27L192.28,16.9L192.43,19.54L193.9,137.35L194.04,151.62L194.92,167.02L195.07,167.02L201.39,166.88L201.53,165.88L202.27,132.89L202.42,118.25L204.03,16.25L204.18,16.29L204.33,16.33L206.38,16.72L206.53,20.15L208.58,167L208.73,167.02L215.49,166.81L215.64,165.45L216.37,131.89L216.52,118.14L218.13,16.07L218.28,16.09L218.43,16.22L220.48,16.58L220.63,18.66L221.81,112.53L221.95,126.52L223.13,167.02L223.27,167.01L229.59,166.89L229.74,165.98L230.32,144.18L230.47,129.78L232.23,16.74L232.38,17.4L232.53,21L232.82,16.2L232.97,16.35L233.12,16.38L234.14,16.48L234.29,17.6L234.58,17.49L235.17,44.3L235.32,53.52L236.93,167.02L237.08,167.02L243.69,166.7L243.84,165.32L244.43,142.55L244.57,128.67L246.19,16.27L246.48,16.37L246.63,16.38L248.69,16.8L248.83,19.33L250.01,110.47L250.15,124.17L251.04,167.03L251.33,167.02L251.48,167.02L257.79,166.61L257.94,164.35L258.97,117.29L259.12,83.29L259.26,84.31L259.41,82.05L259.56,53.4L260.29,16L260.88,16.22L261.02,16.22L262.49,16.62L262.64,18.81L263.08,38.7L263.23,64.67L264.4,149.84L264.55,155.27L265.58,167.01L265.73,167.01L271.89,166.71L272.04,164.17L272.92,99.96L273.22,113.26L273.36,119.9L274.39,17.4L274.69,26.14L274.83,29.9L274.98,16.16L275.71,16.26L275.86,21L276.01,36.4L276.45,16.29L276.6,17.12L276.89,16.18L277.48,38.42L277.62,50.08L279.53,167.02L279.68,167.01L285.85,166.94L286,166.11L286.73,137.19L286.88,123.84L288.64,16.27L288.79,16.3L288.93,16.31L290.26,16.53L290.4,17.38L290.55,20.72L290.99,16.48L291.14,17.11L291.73,49.7L291.87,63.56L293.63,167.02L293.78,167.02L300.1,166.48L300.24,164.89L300.83,138.82L300.98,123.76L302.74,16.19L302.89,16.45L305.24,16.59L305.39,18.4L306.56,115.65L306.71,129.78L307.74,167.02L307.88,167.02L314.2,166.51L314.35,164.8L314.93,137.28L315.08,122.22L316.7,16.2L316.84,16.27L316.99,16.32L319.19,16.51L319.34,17.41L320.07,64.22L320.22,77.98L321.84,167.03L321.98,167.03L328.3,166.29L328.45,164.16L329.04,133.75L329.18,121.82L330.94,16.31L331.09,16.37L331.24,16.34L333.44,17.33L333.59,21.75L336.09,167.02L336.23,167.01L342.26,166.85L342.4,166.07L342.99,145.99L343.14,135L344.9,16.94L345.05,17.52L345.19,16.43L345.49,19.03L345.63,16.46L345.78,16.57L346.37,17.05L346.52,18.35L346.66,16.81L347.1,19.97L347.25,17.53L347.4,20.79L347.69,33.09L347.84,44.51L347.98,42.66L348.13,62.41L348.57,87.58L348.72,101.57L350.04,167.03L350.19,167.02L356.5,166.3L356.65,164.29L357.09,146.94L357.24,128.73L358.71,17.56L358.85,16.22L361.65,16.85L361.79,20.03L364.29,167.02L364.44,167.01L370.46,166.96L370.61,166.22L371.05,139.34L371.19,126.38L372.96,16.12L373.25,16.18L373.4,16.17L375.75,16.51L375.89,18.4L376.92,100.7L377.07,115.05L378.24,167.03L378.39,167.02L384.71,166.42L384.85,163.93L385.74,120.09L385.88,148.5L386.03,144.67L386.18,107.35L386.62,51.93L387.06,52.28L387.2,126.19L387.79,123.13L388.09,154.28L388.23,141.7L388.38,141.5L388.53,149.82L388.82,80.28L389.11,129.51L389.26,132.15L389.7,91.3L389.85,32.15L390.29,19.21L390.73,64.21L390.88,107.86L391.76,166.81L391.9,166.97L394.4,167.02L394.55,167.02L398.81,166.95L398.96,166.19L399.4,149.24L399.54,126.78L399.98,136.8L400.57,72.73L400.72,76.14L400.86,96.54L401.01,49.46L401.16,30.05L401.45,38.1L401.6,16.25L401.75,16.44L401.89,24.8L402.19,17.11L403.07,136.09L403.22,121.45L403.51,19.16L403.95,91.58L404.1,122.11L404.54,22.93L404.83,89.01L404.98,115.51L405.27,95.4L405.57,133.57L405.71,149.9L406.45,167.02L406.59,167.01L406.74,167.01L412.76,166.45L412.91,164.2L413.64,126.59L413.79,109.09L415.11,16.23L415.26,16.24L415.41,16.33L417.46,17.07L417.61,19.62L417.76,18.04L417.9,18.43L418.05,25.43L419.08,97.58L419.23,131.71L419.37,130.26L419.52,132.74L419.67,148.33L420.55,167.02L420.7,167.01L420.84,167.01L427.01,166.84L427.16,166.05L427.89,132.44L428.04,124.35L428.63,61.01L428.92,87.3L429.07,86L429.66,55.98L429.8,35.5L430.1,27.24L430.24,49.66L431.27,114.58L431.42,114.66L431.86,122.73L432.01,108.51L432.3,110.79L432.59,96.96L432.74,102.25L432.89,106.76L433.03,71.48L433.47,149.21L433.62,157.41L434.5,167.01L434.65,167.01L437,167.01" style="vector-effect: non-scaling-stroke; fill: none; stroke: rgb(255, 0, 0); stroke-opacity: 1; stroke-width: 2px; opacity: 1;"/></g><g class="points"/><g class="text"/></g><g class="trace scatter trace9a3981" style="stroke-miterlimit: 2; opacity: 0.5;"><g class="fills"/><g class="errorbars"/><g class="lines"><path class="js-line" d="M0,189.04L0.59,189.29L0.73,191.07L1.47,188.75L1.62,197.77L2.06,201.91L2.2,190.83L2.5,188.54L2.64,198.27L3.08,200.12L3.23,191.2L3.53,188.69L3.67,251.56L3.97,275.48L4.11,215.5L4.26,193.07L5.73,77.33L5.88,85.03L6.02,115.92L6.32,71.32L6.61,83.76L6.76,94.27L7.2,88.37L7.34,94.87L7.49,94.15L7.64,84.11L7.93,74.78L8.08,79.44L8.23,92.43L8.52,183.65L8.96,135.71L9.11,146.43L10.14,304L10.28,298.9L10.43,237.47L11.31,190.61L11.46,193.92L12.19,189.79L12.34,190.24L12.63,191.03L12.78,190.34L12.93,189.15L13.07,189.88L13.51,188.84L13.66,189.48L13.81,188.84L14.1,189.75L14.25,188.77L14.69,189.39L14.98,189.22L15.13,189.11L16.01,189.1L16.16,188.6L17.04,188.46L17.19,197.51L17.63,199.89L17.77,198.7L17.92,196.38L18.21,265.41L18.51,167.23L18.66,161.81L19.98,63.45L20.12,120.16L20.27,136.99L20.42,82.83L20.56,90.2L20.71,94.04L21.01,90.9L21.15,99.12L21.74,66.46L22.03,78.76L22.18,95.58L23.21,222.19L23.36,171.12L23.5,160.96L23.65,156.09L23.8,175.68L24.38,223.78L24.82,207.06L24.97,204.86L25.12,205.77L25.41,203.39L25.56,203.36L25.71,202.44L25.85,194.9L26.59,188.93L26.73,190.81L26.88,190.73L27.03,189.78L27.62,189.11L27.76,189.77L27.91,184.68L28.06,171.27L28.35,189.16L28.5,252.82L28.94,188.86L29.38,189.39L29.53,188.8L30.26,189.04L30.41,188.87L30.85,188.59L30.99,251.76L31.14,267.54L31.29,213.71L31.43,199.83L31.73,199.17L31.88,187.98L32.61,166.7L32.76,167.87L32.9,215.99L33.05,211.94L33.2,185.89L33.93,76.9L34.08,83.12L34.23,91.64L34.37,96.27L34.52,90.76L34.67,69.29L34.96,58.61L35.11,127.55L35.25,140.5L35.4,83.19L35.99,58.87L36.14,72.36L36.28,78.88L36.87,158.97L37.46,147.8L37.6,146.6L38.34,200.58L38.78,190.29L38.93,189.69L39.07,191.73L39.37,189.24L39.66,191.09L39.81,190.68L40.25,189.24L40.39,191.62L40.54,189.94L40.69,190.11L40.84,189.11L41.28,190.21L41.42,191.33L41.86,188.98L42.16,189.04L42.3,190.36L42.6,188.7L42.89,189.97L43.04,189.7L44.07,188.75L44.21,189.35L44.51,200.21L44.8,188.91L44.95,188.47L45.39,188.94L45.68,188.82L45.83,197.52L45.98,199.09L46.12,194.46L46.27,184.82L46.42,185.54L46.56,190.96L46.86,195.32L47.01,180.04L47.3,241.73L47.45,155.44L47.74,227.8L47.89,129.39L48.03,129.28L48.18,102.83L48.33,79.46L48.62,143.47L48.77,167.08L49.8,253.51L49.94,221.39L50.24,193.14L50.38,202.3L50.53,269.89L50.68,286.16L50.82,209.91L50.97,192.44L51.41,210.66L51.56,199.83L51.71,202.18L51.85,206.78L52,200.76L52.15,183.75L52.29,181.22L52.44,190.3L52.59,192.37L52.73,192.56L52.88,189.18L53.62,201.25L53.76,210.69L54.06,212.56L54.2,202.58L55.82,188.79L55.97,189.21L56.85,188.82L56.99,189.1L57.29,189.71L57.73,188.98L57.87,188.83L58.02,189.22L58.17,197.97L58.32,200.54L58.61,200.51L58.76,191.23L59.2,188.7L59.49,188.79L59.64,252.07L60.52,177.38L60.67,170.48L61.25,147.6L61.4,114.12L61.55,135.74L61.99,94.03L62.13,87.9L62.43,110.87L62.58,87.78L62.72,145.18L63.16,75.26L63.46,122.68L63.6,184.35L63.75,223.51L63.9,122.57L64.04,70.81L64.19,70.05L64.34,101.27L64.78,223.1L65.22,169.84L65.37,191L65.51,196.08L65.95,194.44L66.1,187.51L66.25,179.82L66.69,191.28L66.84,191.48L67.42,188.79L67.72,188.95L67.86,188.95L68.89,189.44L69.04,189.29L69.19,189.13L70.65,188.7L70.8,198.37L71.1,200.47L71.24,191.43L71.54,188.13L72.12,188.29L72.27,188.6L73.15,188.16L73.3,188.36L74.18,186.45L74.33,182.44L74.47,250.39L74.91,159.63L75.06,144.92L75.35,183.32L75.5,123.69L75.65,84.67L75.94,65.2L76.09,89L76.24,82.86L76.38,104.91L76.53,120.86L76.68,60.17L76.82,43L77.56,52.98L77.71,52.94L77.85,54.25L78.29,53.09L78.44,54.66L78.59,44L78.73,42.43L78.88,113.77L79.17,145.98L79.32,89.58L79.47,84.42L80.94,191.53L81.23,189.99L81.38,189.12L81.52,189.9L81.82,189.72L81.97,252.33L82.11,268.3L82.26,268.17L82.41,204.88L83.29,189.1L83.43,189.51L84.32,189.02L84.46,189.32L85.05,188.79L85.2,189.01L85.34,189.1L85.49,189.4L85.64,188.8L85.78,189.09L85.93,188.48L86.08,187.93L86.67,188.13L86.81,188.33L87.55,188.37L87.69,251.46L87.84,267.17L87.99,203.97L89.02,166.65L89.16,156.74L90.19,78.46L90.34,127.05L90.48,139.87L90.63,77.8L90.78,70.27L91.22,81.92L91.37,82.26L91.81,155.44L92.1,75.56L92.25,70.39L92.54,69.36L92.69,79.63L92.98,68.99L93.28,81.52L93.42,93.08L94.89,201.35L95.04,266.46L95.19,282.08L95.33,270.35L95.48,205.57L95.92,189.05L96.21,197.65L96.36,197.68L97.39,196.94L97.54,192.54L98.27,188.65L98.42,188.75L98.56,188.51L99.45,188.61L99.59,188.42L100.03,188.54L100.33,188.23L100.47,187.86L101.35,188.32L101.5,188.06L102.09,187.94L102.24,187.41L102.38,249.8L102.82,181.2L102.97,237.65L103.12,238.08L104.15,76.13L104.29,65.92L104.73,42.72L105.17,54.44L105.32,56.09L105.47,55.92L105.61,122.47L105.76,144.19L105.91,77.47L106.06,56.56L106.2,59.58L106.5,50.03L106.64,53.12L106.79,50.48L106.94,54.59L107.08,127.13L107.38,155.13L107.52,122.12L107.82,137.59L107.96,139L108.85,210.92L109.14,204.01L109.29,194.09L110.02,189.25L110.17,190.01L110.31,188.83L110.9,189.34L111.05,189.17L111.64,188.94L111.78,189.39L112.67,188.8L112.81,189.19L113.25,188.55L113.55,188.65L113.69,188.94L114.43,188.62L114.57,251.51L115.16,187.53L115.46,188.54L115.6,188.02L116.19,188.15L116.34,187.5L116.48,195.09L116.78,180.23L116.93,182.53L117.07,172.62L118.69,74.75L118.83,138.92L119.28,53.93L119.72,64.33L119.86,46.35L120.16,45.87L121.04,66.43L121.18,77.26L121.63,97.73L121.77,108.79L123.24,205.59L123.54,203.08L123.68,192.71L124.12,189.22L124.42,189.69L124.56,191.23L124.86,268.8L125.3,189.22L125.44,189.48L126.18,201.37L126.33,201.16L126.47,201.15L126.77,200.97L126.91,201.11L127.06,191.92L127.94,189.68L128.09,189.74L129.12,189.53L129.26,189.66L129.56,188.87L129.7,198.13L130,200.82L130.15,263.46L130.88,172.38L131.03,178.94L131.17,172.91L131.47,229.84L131.91,195.27L132.05,121.79L132.79,60.05L133.08,67.49L133.23,66.7L133.38,59.05L133.52,66.9L133.67,65L133.82,78.31L134.26,68.86L134.55,74.43L134.7,139.55L134.85,151.46L134.99,88.86L135.14,74.03L135.29,138.32L135.43,154.74L135.58,70.51L135.73,64.91L135.87,81.82L136.02,116.79L136.46,236.31L136.9,192.4L137.05,197.93L137.93,189.66L138.08,190.29L138.37,192.18L138.52,198.44L138.66,197.45L138.81,199.65L138.96,200.89L139.11,200.39L139.55,200.99L139.69,201.07L139.99,201.46L140.28,201.22L140.43,191.74L140.57,189.34L141.16,189.75L141.31,189.98L142.04,190.04L142.19,190.36L142.63,189.84L142.92,189.94L143.07,189.96L143.51,201.22L143.66,263.71L144.54,199.46L144.69,197.76L146.74,63.83L146.89,64.75L147.04,72.55L147.33,63.57L147.48,126.87L148.21,71.35L148.36,73L148.51,74.3L148.65,78.64L148.8,73.45L148.95,75.96L149.09,65.42L149.24,63.99L149.39,66.71L149.53,72.14L149.83,81.42L149.98,100.86L151.59,279.7L151.74,219L152.77,190.76L152.91,188.86L153.35,190.21L153.65,189.03L153.79,189.2L155.12,188.67L155.26,188.99L156.29,188.69L156.44,188.44L157.91,188.42L158.05,188.23L158.5,188.11L158.64,187.33L158.79,185.03L158.94,254.57L159.08,267.57L159.23,189.88L160.55,68.75L160.7,60.63L160.99,42.12L161.58,47.34L161.73,48.88L162.75,169.37L162.9,107.76L163.34,81.78L163.49,138.32L163.78,155.96L163.93,88.46L164.08,87.77L164.22,95.55L166.13,211.16L166.28,213.41L166.57,213.91L166.72,212.5L166.87,202.97L167.31,191.95L167.46,188.98L168.04,188.78L168.19,189.45L168.34,188.82L168.48,189.1L169.07,188.8L169.22,197.81L170.1,200.69L170.25,195.93L170.54,169.1L170.69,229.97L170.83,250.08L171.42,188.43L171.72,188.54L171.86,188.36L172.01,188.62L172.16,188.33L172.3,197.6L172.74,208.65L172.89,202.12L173.04,199.46L173.18,199.59L173.33,189.21L173.62,259.98L173.92,167.78L174.07,156.21L175.09,63.57L175.68,64.32L175.83,66.13L176.42,48.17L176.56,55.45L176.71,62.56L176.86,61.32L177,122.28L177.15,142.24L177.3,79.55L177.44,65.63L177.59,51.44L178.18,55.29L178.33,54.86L180.68,203.45L180.82,202.47L180.97,202.11L181.12,193.99L181.26,189.01L181.85,189.49L182,190.23L182.59,190.99L182.73,189.12L182.88,189.56L183.32,188.9L183.76,189.29L183.91,189.32L185.23,189.12L185.38,252.04L186.26,188.52L186.4,188.61L186.55,188.25L186.7,197.67L186.99,199.61L187.14,199.47L187.29,191.99L187.43,196.06L187.58,259.98L187.73,271.43L187.87,201.61L189.05,127.48L189.2,115.58L190.08,83.94L190.22,148.79L190.37,153.39L190.52,81.76L191.1,57.23L191.25,65.78L191.4,67.42L191.55,62.69L191.99,66.16L192.13,71.99L192.28,64.08L192.57,83.94L192.72,95.69L193.01,127.48L193.16,156.2L194.04,225.3L194.34,222.84L194.48,223.03L194.63,223.64L194.78,212.05L195.81,205.92L195.95,260.13L196.1,273.61L196.25,211.61L197.13,191.07L197.27,189.84L197.42,189.28L197.57,189.94L197.71,189.76L197.86,190.94L198.74,189.1L198.89,189.19L199.62,188.67L199.77,252.2L200.65,188.69L200.8,188.79L201.24,188.44L201.39,189.09L201.53,200.49L201.68,204.64L201.97,199.18L202.12,182.6L202.27,230.78L202.56,139.68L202.86,197.4L203,185.56L203.15,184.51L203.3,121.4L204.18,51.27L204.33,56.1L204.47,68.81L204.62,73.89L204.77,135.01L204.91,146.72L205.06,86.45L205.35,64.53L205.5,137L205.79,169.96L205.94,109.01L206.09,90.44L206.53,86.83L206.97,111.36L207.12,141.26L207.56,246.34L207.7,201.55L207.85,184.38L209.17,207.65L209.32,205.6L209.47,205.9L209.61,202.71L209.76,204.38L210.05,202.72L210.2,196.1L211.23,189L211.67,189.48L211.82,189.22L212.7,189.93L212.84,188.97L212.99,189.52L213.14,188.48L213.58,188.87L213.73,188.98L214.46,188.45L214.61,188.81L214.75,251.95L215.34,188.65L215.49,189.52L215.64,258.31L216.66,159.71L216.81,154.26L217.25,118.57L217.4,159.68L217.55,156.56L217.69,84.9L217.84,59.74L218.13,128.02L218.28,148.14L218.43,85.88L218.72,162.62L219.16,90.69L219.31,89.91L219.45,79.54L219.6,82.1L219.75,165.18L220.04,181.87L220.19,116.35L220.63,77.18L220.92,104L221.07,116.03L222.69,205.88L222.83,205.06L222.98,200.19L223.27,198.61L223.42,203.79L223.71,202.67L223.86,201.27L224.16,203.44L224.3,201.21L224.45,196.9L225.62,189.06L225.77,189.61L226.51,188.95L226.65,189.55L227.53,188.57L227.68,252.33L227.83,267.71L227.97,205.06L228.86,188.55L229,188.83L229.44,188.35L229.59,189.91L229.88,208.41L230.18,189.79L230.32,178.95L232.23,75.87L232.38,69.99L232.53,71.43L232.67,59.67L232.82,58.12L232.97,119.39L233.12,143.97L233.26,76.03L233.41,65.04L234.14,156.3L234.29,99.31L234.44,79.58L235.03,91.14L235.17,96.47L235.47,129.8L235.61,155.26L235.76,154.83L235.91,171.01L236.64,211.76L236.79,203.77L236.93,197.33L237.08,197.83L237.23,197.57L237.38,193.5L237.52,195.57L237.96,191.25L238.11,192.82L238.99,190.45L239.14,191.27L239.43,191.35L239.87,189.26L240.02,190.28L240.17,189.47L240.75,190.2L241.05,189.79L241.19,189.23L241.34,189.82L241.93,189.27L242.08,189.12L242.81,188.93L242.96,198.4L243.54,209.56L243.69,274.98L243.84,293.27L243.99,241.73L244.13,226.18L245.01,125.88L245.16,177.89L245.31,181.57L246.04,68.05L246.19,129L246.34,140.31L246.48,84.53L246.92,65.38L247.07,141.55L247.22,161.11L247.36,160.91L247.51,94.2L247.66,83.27L248.1,91.85L248.25,95.28L248.83,79.8L248.98,91.88L249.13,103.51L249.27,100.14L249.42,112.54L249.57,123.91L251.04,198.53L251.18,194.25L251.33,198.29L251.48,190.88L251.77,192.86L251.92,193.48L252.06,194.45L252.36,191.76L252.51,192.61L252.65,190.01L252.8,193.21L253.39,191.99L253.53,191.13L253.68,188.91L254.27,191.21L254.41,189.96L254.56,190.27L254.71,189.19L254.86,189.93L255,189.11L255.15,189.81L255.3,189.03L255.74,189.02L255.88,252.67L256.62,188.7L256.77,189.13L256.91,189.02L257.21,188.76L257.35,189.05L257.5,189.76L258.09,184.45L258.23,176.85L258.53,157.76L258.67,219.26L258.82,244.27L258.97,160.31L259.12,108.33L259.41,184.14L259.56,105.79L260.29,67.88L260.58,71.05L260.73,73.58L260.88,73.48L261.02,72.28L261.47,60.47L261.76,69.83L261.91,66.37L262.05,66.76L262.2,73.25L263.23,117.55L263.38,199.58L263.96,240.22L264.11,183.8L264.4,173.21L264.55,189.99L264.7,198.69L265.14,204.57L265.28,202.07L265.43,200.77L265.58,202.47L265.73,195.16L266.17,189.73L266.46,191.17L266.61,191L266.75,189L267.19,191.32L267.34,189.45L267.49,189.54L267.78,188.66L268.08,189.83L268.22,191.68L269.1,189.06L269.25,189.92L269.4,190.55L269.69,188.86L269.84,189.87L269.99,188.76L270.13,189.36L270.28,188.57L270.57,188.99L270.72,252.19L271.31,188.68L271.6,200.49L271.75,200.47L271.89,201L272.04,200.73L272.19,182.37L272.92,125.04L273.22,138.51L273.36,211.34L274.25,56.05L274.39,65.25L274.54,72.97L274.98,59.29L275.27,63.71L275.42,71.09L276.01,95.17L276.3,85.65L276.45,69.09L276.6,69.04L276.74,70.8L276.89,68.15L277.04,134.61L277.18,137.42L277.33,87.38L277.48,75.32L277.77,98.59L277.92,116.45L278.36,220.92L278.5,244.21L278.8,188.26L279.24,195.79L279.39,198.36L280.12,194.04L280.27,195L280.41,193.75L280.56,194.24L280.71,190.02L281,190.19L281.44,189.06L281.59,189.89L282.18,188.73L282.32,188.81L282.47,189.49L282.62,190.24L283.21,189.47L283.35,198.15L283.5,200.68L283.65,200.47L283.79,191.39L284.38,188.92L284.67,188.99L284.82,189.09L285.26,188.8L285.41,251.82L285.85,188.46L286.29,192.84L286.44,186.82L287.17,134.38L287.32,120.44L287.76,92.51L287.91,96.54L288.05,160.63L288.2,173.76L288.35,108.39L288.79,150.85L289.08,69.19L289.23,70.79L289.37,68.27L289.52,69.68L289.82,65.68L289.96,69.18L290.11,68.02L291.43,198.95L291.58,132.96L291.73,129.19L291.87,133.4L292.02,144.18L293.19,211.85L293.49,209.95L293.63,194.58L293.93,195.36L294.08,193.31L294.22,191.41L294.37,197.45L294.81,190.52L294.96,193.52L295.1,190.67L295.25,189.94L295.4,192.74L295.54,190.31L295.69,192.26L295.84,189.04L296.57,189.12L296.72,189.3L297.01,191.39L297.31,190.02L297.45,189.5L297.6,190.94L297.89,189.29L298.19,189.45L298.34,189.57L298.63,189.81L298.78,189.11L298.92,252.52L299.07,268.34L299.22,205.02L299.51,218.62L300.1,192.66L300.24,197.63L300.69,187.53L300.83,174.14L301.27,143.82L301.42,144.31L301.57,196.87L301.71,203.03L301.86,185.48L302.01,170.83L302.45,78.68L302.89,86.09L303.04,72.59L303.18,62.29L303.77,70.79L303.92,69.9L304.95,116.59L305.09,106.6L305.24,98.89L305.39,96.02L305.53,96.06L305.68,112.4L306.27,144.59L306.41,230.93L306.71,257.8L306.85,207L307,204.4L308.32,195.18L308.47,194.27L308.76,195.67L308.91,193.59L309.21,193.35L309.35,192.41L309.79,190.08L309.94,190.92L310.09,191.67L310.67,192.55L310.82,188.94L310.97,189.07L311.11,189.13L311.7,192.07L311.85,189.23L312,190.1L312.44,188.94L312.58,198.48L313.02,201.09L313.17,191.31L313.76,188.99L314.05,189.38L314.2,252.98L315.23,144.23L315.37,195.6L315.52,202.53L315.67,135.67L316.55,68.27L316.84,74.32L316.99,77.95L317.28,162.59L317.72,86.23L317.87,87.14L318.17,87.76L318.31,85.84L318.61,170.93L319.19,159.95L319.34,172.69L319.49,177.47L319.63,119.79L319.78,106.63L320.07,126L320.22,138.2L321.4,206.87L321.69,205.07L321.84,199.31L321.98,203.39L322.57,199.84L322.72,197.3L322.87,199.79L323.31,196.59L323.45,195.89L323.6,195.64L323.75,199.42L324.63,193.56L324.78,191.66L325.36,188.95L325.51,189.43L325.66,191.99L326.54,188.85L326.69,261.78L327.27,189.16L327.42,189.36L327.57,252.19L327.71,268.31L327.86,204.96L328.01,189.59L328.15,197.87L328.3,263.51L328.45,279.24L328.59,212.63L328.89,182.85L329.04,233.54L329.18,238.31L330.06,80.38L330.21,86.83L330.5,152.34L330.8,64.45L330.94,70.3L331.09,61.15L331.24,143.69L331.53,163.49L331.68,93.91L332.27,177.25L332.41,119.3L332.56,110.18L333,84.71L333.15,144.54L333.44,172.92L333.59,113.7L333.74,111.54L334.62,165.01L334.76,174.16L335.5,215L335.94,209.27L336.09,207.5L336.23,209.37L336.67,207.21L336.82,206.28L336.97,208.23L337.26,204.24L337.41,196.39L337.55,190.46L338.14,193.38L338.29,191.25L338.58,189.2L339.17,189.53L339.32,189.83L339.61,190.56L339.76,190.22L339.91,189.27L340.05,190.85L340.64,189.23L340.79,189.43L341.23,188.84L341.37,189.75L341.52,188.94L341.67,189.59L341.81,188.69L342.4,189.55L342.55,193.63L342.7,193.66L342.84,188.04L344.02,98.42L344.17,154.42L344.31,185.02L344.61,95.82L344.75,98.92L345.34,72.44L345.63,78.39L345.78,84.19L346.22,165.55L346.52,81.56L346.66,85.8L347.54,99.52L347.69,112.26L349.31,212.66L349.6,211.12L349.75,207.14L350.63,193.76L351.07,194.44L351.22,194.68L351.51,197.05L351.66,189.21L352.1,190.15L352.24,189.72L352.54,191.92L352.68,189.15L353.13,192.46L353.42,190.35L353.57,189.43L354.45,190.84L354.59,189.09L354.74,189.78L354.89,189.11L355.03,198.63L355.18,200.8L355.33,200.52L355.48,191.75L355.92,188.92L356.06,198.63L356.21,200.26L356.36,263.7L357.39,142.1L357.53,140.97L357.83,180.66L357.97,172.83L358.12,101.33L358.85,64.95L359,71.9L359.15,71.83L359.74,76.23L359.88,150.57L360.03,173.89L360.32,115.06L360.47,101.42L361.65,65.96L361.79,75.06L364,211.03L364.14,210.38L364.44,207.87L364.58,212.75L364.73,206.13L364.88,206.55L365.02,209.61L365.32,195.54L365.9,195.64L366.05,195.6L367.37,189.25L367.67,189.42L367.81,190.35L368.26,188.78L368.4,197.95L368.84,213.31L368.99,202.71L369.14,201.21L369.28,191.58L369.58,189.3L369.72,252.74L370.02,189.06L370.31,261.39L370.61,200.23L370.75,199.61L371.34,151.23L371.49,217.38L372.51,90.22L372.66,76.31L372.96,46.69L373.1,52.24L373.25,112.36L373.4,141.34L373.69,67.59L373.84,63.04L373.98,67.29L374.13,66.09L374.28,53.33L375.6,84.01L375.75,88.92L376.04,85.8L376.19,93.38L376.33,98.93L378.54,204.31L378.68,200.5L378.83,201.96L378.98,200.44L379.13,191.75L379.27,188.87L380.01,188.99L380.15,189.77L381.03,189.24L381.18,190.1L381.48,190.22L381.92,189.09L382.06,189.29L382.21,189.37L382.65,188.79L382.94,189.13L383.09,189.88L383.24,189.41L383.38,252.32L383.97,188.95L384.27,200.34L384.41,200.72L384.71,189.69L384.85,255.54L385.74,166.99L385.88,209.4L386.03,209.11L386.18,255.26L387.06,97.45L387.2,168.84L388.09,286.07L388.23,207.83L388.38,201.7L388.53,284.39L388.82,228.18L388.97,183.43L389.26,198.51L389.41,171.18L389.55,164.68L390.29,59.74L390.44,65.96L390.58,100.3L390.73,104.18L390.88,139.18L391.46,193.97L391.76,189.34L391.9,191.87L392.35,188.86L392.79,189.2L392.93,189.83L393.37,190.17L393.52,188.76L393.67,188.87L393.81,189.33L394.55,189.03L394.7,188.86L395.43,189.17L395.58,188.73L395.72,189.13L396.31,188.66L396.46,188.67L397.05,188.78L397.19,197.78L397.49,200.15L397.63,199.84L397.78,190.98L397.93,188.45L398.07,251.93L398.22,267.48L398.37,204.57L398.51,188.42L399.1,197.77L399.25,194.64L399.4,195.5L399.54,241.46L399.69,238.19L399.84,186.49L400.57,123.03L400.72,127.63L400.86,148.02L401.6,60.37L401.75,61.4L401.89,138.57L402.04,189.18L402.48,99.79L402.63,100.46L403.07,190.52L403.22,178.04L403.36,115.72L403.51,100.99L403.8,126.58L403.95,164.83L404.1,190.38L404.24,153.01L404.39,92.44L404.54,75.33L404.83,123.83L404.98,147.17L405.12,125.69L405.57,162.01L405.71,176.62L406.3,202.25L406.59,202.18L406.74,200.57L406.89,201.24L407.03,200.8L407.18,194.06L407.33,188.86L407.77,198.66L407.92,197.95L408.21,193.83L408.36,188.93L408.5,189.76L408.65,188.72L409.09,189.13L409.24,189.24L409.53,189.87L410.27,188.76L410.41,189.14L410.85,188.57L411,189.03L411.15,251.88L411.44,188.55L411.73,252.19L412.03,189.17L412.18,188.87L412.62,200.08L412.91,189.38L413.06,188.24L413.2,187.88L413.35,180.46L413.64,254.84L413.94,146.46L414.09,132.79L414.23,122.91L414.38,181.71L414.53,188.36L414.67,102.61L415.55,47.76L415.7,49.12L415.85,65.14L416.58,82.86L416.73,82.69L416.88,63.7L417.17,131.75L417.46,55.09L417.61,62.91L417.76,60.21L418.05,148.35L418.49,109.49L418.64,104.22L419.08,141.75L419.23,176L419.52,162.99L419.81,183.58L419.96,182.4L420.84,211.09L420.99,210.98L421.14,202.2L422.02,188.91L422.16,189.26L422.31,188.91L422.46,190.03L422.6,189.89L422.75,191.1L423.63,189L423.78,190.03L424.22,190.24L424.66,188.9L424.81,189.47L425.54,188.56L425.69,188.71L425.84,188.63L425.98,189.27L426.13,198.83L426.42,200.76L426.57,199.92L426.72,209.64L426.86,211.19L427.01,266.24L427.16,282.8L427.31,215.02L427.6,189.63L427.75,246.01L427.89,266.41L428.48,148.55L428.63,170.92L428.77,210.17L428.92,229.21L429.07,166.88L429.21,147.07L430.1,65.48L430.24,91.45L430.39,130.46L431.27,187.97L431.57,180.95L431.71,169.22L431.86,170.63L432.01,150.07L432.15,150L432.3,156.67L432.59,143.61L432.74,160.79L432.89,166.17L433.03,124.54L433.47,207.61L433.62,217.4L434.65,200.54L434.8,255.7L434.94,270.53L435.09,268.31L435.24,205.73L435.97,188.89L436.12,189.84L436.27,188.51L436.85,191.43L437,188.96" style="vector-effect: non-scaling-stroke; fill: none; stroke: rgb(0, 128, 0); stroke-opacity: 1; stroke-width: 2px; opacity: 1;"/></g><g class="points"/><g class="text"/></g></g></g><g class="overplot"/><path class="xlines-above crisp" d="M0,0" style="fill: none;"/><path class="ylines-above crisp" d="M0,0" style="fill: none;"/><g class="overlines-above"/><g class="xaxislayer-above"><g class="xtick"><text text-anchor="middle" x="0" y="433" transform="translate(150.51,0)" style="font-family: 'Open Sans', verdana, arial, sans-serif; font-size: 12px; fill: rgb(42, 63, 95); fill-opacity: 1; white-space: pre; opacity: 1;"><tspan class="line" dy="0em" x="0" y="433">Mar 6</tspan><tspan class="line" dy="1.3em" x="0" y="433">2022</tspan></text></g><g class="xtick"><text text-anchor="middle" x="0" y="433" style="font-family: 'Open Sans', verdana, arial, sans-serif; font-size: 12px; fill: rgb(42, 63, 95); fill-opacity: 1; white-space: pre; opacity: 1;" transform="translate(249.22,0)">Mar 13</text></g><g class="xtick"><text text-anchor="middle" x="0" y="433" style="font-family: 'Open Sans', verdana, arial, sans-serif; font-size: 12px; fill: rgb(42, 63, 95); fill-opacity: 1; white-space: pre; opacity: 1;" transform="translate(347.93,0)">Mar 20</text></g><g class="xtick"><text text-anchor="middle" x="0" y="433" style="font-family: 'Open Sans', verdana, arial, sans-serif; font-size: 12px; fill: rgb(42, 63, 95); fill-opacity: 1; white-space: pre; opacity: 1;" transform="translate(446.64,0)">Mar 27</text></g></g><g class="yaxislayer-above"><g class="ytick"><text text-anchor="end" x="79" y="4.199999999999999" transform="translate(0,345.76)" style="font-family: 'Open Sans', verdana, arial, sans-serif; font-size: 12px; fill: rgb(42, 63, 95); fill-opacity: 1; white-space: pre; opacity: 1;">−50</text></g><g class="ytick"><text text-anchor="end" x="79" y="4.199999999999999" style="font-family: 'Open Sans', verdana, arial, sans-serif; font-size: 12px; fill: rgb(42, 63, 95); fill-opacity: 1; white-space: pre; opacity: 1;" transform="translate(0,266.83000000000004)">0</text></g><g class="ytick"><text text-anchor="end" x="79" y="4.199999999999999" style="font-family: 'Open Sans', verdana, arial, sans-serif; font-size: 12px; fill: rgb(42, 63, 95); fill-opacity: 1; white-space: pre; opacity: 1;" transform="translate(0,187.9)">50</text></g><g class="ytick"><text text-anchor="end" x="79" y="4.199999999999999" style="font-family: 'Open Sans', verdana, arial, sans-serif; font-size: 12px; fill: rgb(42, 63, 95); fill-opacity: 1; white-space: pre; opacity: 1;" transform="translate(0,108.98)">100</text></g></g><g class="overaxes-above"/></g></g><g class="polarlayer"/><g class="smithlayer"/><g class="ternarylayer"/><g class="geolayer"/><g class="funnelarealayer"/><g class="pielayer"/><g class="iciclelayer"/><g class="treemaplayer"/><g class="sunburstlayer"/><g class="glimages"/><defs id="topdefs-efcbc9"><g class="clips"/><clipPath id="legendefcbc9"><rect width="162" height="67" x="0" y="0"/></clipPath></defs><g class="layer-above"><g class="imagelayer"/><g class="shapelayer"/></g><g class="infolayer"><g class="legend" pointer-events="all" transform="translate(525.74,100)"><rect class="bg" shape-rendering="crispEdges" width="162" height="67" x="0" y="0" style="stroke: rgb(68, 68, 68); stroke-opacity: 1; fill: rgb(255, 255, 255); fill-opacity: 1; stroke-width: 0px;"/><g class="scrollbox" transform="" clip-path="url(#legendefcbc9)"><g class="groups"><g class="traces" transform="translate(0,14.5)" style="opacity: 1;"><text class="legendtext" text-anchor="start" x="40" y="4.680000000000001" style="font-family: 'Open Sans', verdana, arial, sans-serif; font-size: 12px; fill: rgb(42, 63, 95); fill-opacity: 1; white-space: pre;">BESS</text><g class="layers" style="opacity: 0.5;"><g class="legendfill"/><g class="legendlines"><path class="js-line" d="M5,0h30" style="fill: none; stroke: rgb(0, 191, 255); stroke-opacity: 1; stroke-width: 2px;"/></g><g class="legendsymbols"><g class="legendpoints"/></g></g><rect class="legendtoggle" x="0" y="-9.5" width="156.71875" height="19" style="fill: rgb(0, 0, 0); fill-opacity: 0;"/></g><g class="traces" transform="translate(0,33.5)" style="opacity: 1;"><text class="legendtext" text-anchor="start" x="40" y="4.680000000000001" style="font-family: 'Open Sans', verdana, arial, sans-serif; font-size: 12px; fill: rgb(42, 63, 95); fill-opacity: 1; white-space: pre;">Solar</text><g class="layers" style="opacity: 0.5;"><g class="legendfill"/><g class="legendlines"><path class="js-line" d="M5,0h30" style="fill: none; stroke: rgb(255, 0, 0); stroke-opacity: 1; stroke-width: 2px;"/></g><g class="legendsymbols"><g class="legendpoints"/></g></g><rect class="legendtoggle" x="0" y="-9.5" width="156.71875" height="19" style="fill: rgb(0, 0, 0); fill-opacity: 0;"/></g><g class="traces" transform="translate(0,52.5)" style="opacity: 1;"><text class="legendtext" text-anchor="start" x="40" y="4.680000000000001" style="font-family: 'Open Sans', verdana, arial, sans-serif; font-size: 12px; fill: rgb(42, 63, 95); fill-opacity: 1; white-space: pre;">Grid Meter (Net Load)</text><g class="layers" style="opacity: 0.5;"><g class="legendfill"/><g class="legendlines"><path class="js-line" d="M5,0h30" style="fill: none; stroke: rgb(0, 128, 0); stroke-opacity: 1; stroke-width: 2px;"/></g><g class="legendsymbols"><g class="legendpoints"/></g></g><rect class="legendtoggle" x="0" y="-9.5" width="156.71875" height="19" style="fill: rgb(0, 0, 0); fill-opacity: 0;"/></g></g></g><rect class="scrollbar" rx="20" ry="3" width="0" height="0" x="0" y="0" style="fill: rgb(128, 139, 164); fill-opacity: 1;"/></g><g class="g-gtitle"><text class="gtitle" x="298.5" y="50" text-anchor="middle" dy="0em" style="font-family: 'Open Sans', verdana, arial, sans-serif; font-size: 17px; fill: rgb(42, 63, 95); opacity: 1; font-weight: normal; white-space: pre;"><tspan class="line" dy="0em" x="298.5" y="50">Scenario 4</tspan><tspan class="line" dy="1.3em" x="298.5" y="50">Microgrid Output</tspan><tspan class="line" dy="2.6em" x="298.5" y="50">From: March 01, 2022 to March 31, 2022</tspan></text></g><g class="g-xtitle"><text class="xtitle" x="298.5" y="476.409375" text-anchor="middle" style="font-family: 'Open Sans', verdana, arial, sans-serif; font-size: 14px; fill: rgb(42, 63, 95); opacity: 1; font-weight: normal; white-space: pre;">Time</text></g><g class="g-ytitle"><text class="ytitle" transform="rotate(-90,33.840625,260)" x="33.840625" y="260" text-anchor="middle" style="font-family: 'Open Sans', verdana, arial, sans-serif; font-size: 14px; fill: rgb(42, 63, 95); opacity: 1; font-weight: normal; white-space: pre;">Demand (kW)</text></g></g></svg>