<svg class="main-svg" xmlns="http://www.w3.org/2000/svg" xmlns:xlink="http://www.w3.org/1999/xlink" width="700" height="500" style="" viewBox="0 0 700 500"><rect x="0" y="0" width="700" height="500" style="fill: rgb(255, 255, 255); fill-opacity: 1;"/><defs id="defs-a93c78"><g class="clips"><clipPath id="clipa93c78xyplot" class="plotclip"><rect width="437" height="320"/></clipPath><clipPath class="axesclip" id="clipa93c78x"><rect x="80" y="0" width="437" height="500"/></clipPath><clipPath class="axesclip" id="clipa93c78y"><rect x="0" y="100" width="700" height="320"/></clipPath><clipPath class="axesclip" id="clipa93c78xy"><rect x="80" y="100" width="437" height="320"/></clipPath></g><g class="gradients"/><g class="patterns"/></defs><g class="bglayer"/><g class="layer-below"><g class="imagelayer"/><g class="shapelayer"/></g><g class="cartesianlayer"><g class="subplot xy"><g class="layer-subplot"><g class="shapelayer"/><g class="imagelayer"/></g><g class="minor-gridlayer"><g class="x"/><g class="y"/></g><g class="gridlayer"><g class="x"><path class="xgrid crisp" transform="translate(150.51,0)" d="M0,100v320" style="stroke: rgb(255, 255, 255); stroke-opacity: 1; stroke-width: 1px;"/><path class="xgrid crisp" transform="translate(249.22,0)" d="M0,100v320" style="stroke: rgb(255, 255, 255); stroke-opacity: 1; stroke-width: 1px;"/><path class="xgrid crisp" transform="translate(347.93,0)" d="M0,100v320" style="stroke: rgb(255, 255, 255); stroke-opacity: 1; stroke-width: 1px;"/><path class="xgrid crisp" transform="translate(446.64,0)" d="M0,100v320" style="stroke: rgb(255, 255, 255); stroke-opacity: 1; stroke-width: 1px;"/></g><g class="y"><path class="ygrid crisp" transform="translate(0,396.07)" d="M80,0h437" style="stroke: rgb(255, 255, 255); stroke-opacity: 1; stroke-width: 1px;"/><path class="ygrid crisp" transform="translate(0,299.12)" d="M80,0h437" style="stroke: rgb(255, 255, 255); stroke-opacity: 1; stroke-width: 1px;"/><path class="ygrid crisp" transform="translate(0,250.64)" d="M80,0h437" style="stroke: rgb(255, 255, 255); stroke-opacity: 1; stroke-width: 1px;"/><path class="ygrid crisp" transform="translate(0,202.16)" d="M80,0h437" style="stroke: rgb(255, 255, 255); stroke-opacity: 1; stroke-width: 1px;"/><path class="ygrid crisp" transform="translate(0,153.69)" d="M80,0h437" style="stroke: rgb(255, 255, 255); stroke-opacity: 1; stroke-width: 1px;"/><path class="ygrid crisp" transform="translate(0,105.21)" d="M80,0h437" style="stroke: rgb(255, 255, 255); stroke-opacity: 1; stroke-width: 1px;"/></g></g><g class="zerolinelayer"><path class="yzl zl crisp" transform="translate(0,347.59000000000003)" d="M80,0h437" style="stroke: rgb(255, 255, 255); stroke-opacity: 1; stroke-width: 2px;"/></g><path class="xlines-below"/><path class="ylines-below"/><g class="overlines-below"/><g class="xaxislayer-below"/><g class="yaxislayer-below"/><g class="overaxes-below"/><g class="plot" transform="translate(80,100)" clip-path="url(#clipa93c78xyplot)"><g class="scatterlayer mlayer"><g class="trace scatter tracef02412" style="stroke-miterlimit: 2; opacity: 0.5;"><g class="fills"/><g class="errorbars"/><g class="lines"><path class="js-line" d="M0,247.59L0.59,247.59L0.73,248.92L1.62,247.59L1.76,247.59L2.06,248.32L2.5,247.59L2.64,247.59L4.41,247.59L4.55,234.96L4.7,233.33L4.85,215.4L4.99,216.07L5.14,193.56L5.29,198.87L5.43,176.36L5.58,184.05L5.73,160.59L5.88,176.4L6.02,224.6L6.46,118.42L6.76,120.35L6.9,215.99L7.05,130.97L7.64,137.1L7.79,209.99L7.93,138.45L8.37,225.35L8.52,170.47L8.67,228.31L8.81,191.07L9.25,240.05L9.4,247.59L9.55,247.59L9.69,252.81L9.84,248.9L9.99,261.81L10.14,267.33L10.43,271.89L10.87,250.35L11.02,252.93L11.16,248.92L11.31,247.59L11.46,253.15L12.34,247.59L12.49,247.59L12.63,248.33L13.22,247.59L13.37,247.59L18.51,247.59L18.66,233.82L19.98,155.59L20.12,227.34L21.01,247.59L21.15,247.59L23.94,247.59L24.09,261.97L24.24,258.81L24.38,272.99L25.27,248.26L25.41,249.25L25.71,247.76L25.85,251.39L26.29,247.71L26.73,247.94L26.88,247.82L27.91,247.59L28.06,247.59L32.46,247.59L32.61,238.36L32.9,215.26L33.05,240.17L33.93,247.59L34.08,247.59L38.19,247.59L38.34,257.5L38.93,247.59L39.22,248.01L39.37,247.59L40.1,248.44L40.25,247.8L40.39,249.5L40.69,247.59L40.98,247.59L41.13,247.59L41.42,248.95L41.86,247.59L42.01,247.59L47.3,247.59L47.45,218.46L48.33,247.59L48.47,247.59L49.94,247.59L50.09,250.3L50.38,247.59L50.53,253.12L50.82,248.16L50.97,249.31L51.41,257.39L51.56,249.68L51.71,247.59L51.85,254.9L52.44,247.59L52.59,249.54L52.73,249.8L52.88,248.02L55.67,247.59L55.82,247.59L60.81,246.9L60.96,244.46L61.11,237.55L61.25,245.26L61.4,165.88L61.69,247.67L62.28,247.59L62.43,247.59L66.69,248.33L66.84,248.84L67.72,247.59L67.86,247.59L80.79,247.59L80.94,249.52L81.82,247.59L81.97,247.59L94.89,247.59L95.04,249.2L96.07,247.59L96.21,256.35L96.65,249.75L96.8,256.7L96.95,249.87L97.09,256.1L97.39,256.54L97.98,247.59L98.12,247.59L102.97,247.59L103.12,241.7L103.41,226.34L103.7,247.59L103.85,247.59L108.99,247.59L109.14,250.27L109.73,247.61L110.02,248.17L110.17,247.59L117.07,247.59L117.22,239.37L118.1,247.59L118.25,247.59L123.09,247.59L123.24,252.43L123.83,247.59L124.12,248.14L124.27,247.59L124.42,247.59L124.56,249.17L125.44,247.59L125.59,247.59L131.17,247.59L131.32,246.63L131.47,232.8L131.76,247.59L132.05,247.59L132.2,247.59L137.2,247.59L137.34,252.64L138.08,247.59L138.22,247.76L138.37,247.7L138.52,257.1L138.96,247.59L139.11,247.59L139.25,247.59L145.27,247.59L145.42,242.07L145.57,229.27L145.86,247.59L146.01,247.59L146.16,247.59L151.3,247.59L151.44,250.73L151.59,248.38L151.89,250.77L152.03,249.71L152.18,256.62L153.06,247.59L153.21,247.59L159.23,247.59L159.38,241.89L159.67,219.81L159.96,247.59L160.11,247.59L165.25,247.59L165.4,257.79L166.13,247.73L166.28,248.05L166.43,247.7L166.57,248.79L166.87,247.59L167.16,247.59L167.31,247.59L173.92,247.59L174.07,236.18L174.95,247.59L175.09,247.59L180.09,247.59L180.23,248.83L180.38,248.91L180.53,247.84L180.97,247.59L181.12,249.88L181.26,248.16L181.41,247.59L181.56,249.28L182.14,247.59L182.29,247.59L182.44,247.59L182.59,248.78L183.47,247.59L183.61,247.59L187.29,247.59L187.43,253.96L188.46,231.21L188.61,224.35L189.49,247.59L189.64,247.59L194.04,247.59L194.19,253.74L194.63,256.7L194.78,251.25L195.36,249.66L195.51,258.77L195.66,250.39L195.81,252.49L195.95,249.2L196.25,251.47L196.39,249.64L196.54,254.31L196.69,249.19L196.98,250.59L197.13,248.04L197.71,247.59L197.86,248.72L198.74,247.59L198.89,247.59L201.53,248.19L201.68,250.3L201.83,250.11L201.97,248.06L202.27,247.59L202.42,234.61L203,198.32L203.15,237.14L204.03,247.59L204.18,247.59L208,247.59L208.14,248.42L208.29,262.36L208.88,257.02L209.03,260.54L209.17,261.38L209.32,257.45L209.61,252.39L209.76,263.65L209.91,252.03L210.05,264.09L210.49,249.15L210.64,250.66L210.79,248.36L211.67,247.62L211.82,247.59L215.49,247.59L215.64,252.87L216.52,245.66L216.66,230.98L216.81,231.96L216.96,219.79L217.55,170.63L217.69,230.91L218.57,247.59L218.72,247.59L222.1,247.59L222.25,248.87L223.13,260.91L223.27,250.77L223.42,263.97L224.01,262.47L224.16,252.71L224.3,260.76L224.74,248.72L224.89,253.68L225.04,249.11L225.92,247.59L226.06,247.59L229.59,247.59L229.74,252.25L229.88,253.06L230.03,248.67L230.47,247.59L230.62,230.71L231.35,191.02L231.5,236.43L232.38,247.59L232.53,247.59L236.2,247.59L236.35,252.55L236.79,257.92L236.93,249.81L237.08,256.35L237.67,249.5L237.82,249L237.96,247.89L238.11,251.12L238.55,248.2L238.7,248.44L238.99,247.67L239.14,248.9L239.29,247.92L239.43,248.79L240.31,247.59L240.46,247.59L243.84,248.15L243.99,251.95L244.87,226.6L245.01,208.75L245.9,247.59L246.04,247.59L250.6,247.59L250.74,257.89L250.89,250.17L251.33,259.68L251.48,250.61L251.62,255.29L252.21,248.15L252.36,248.65L252.51,250.37L252.8,251.46L253.24,247.59L253.39,249.48L254.12,247.59L254.27,248.86L255.15,247.59L255.3,247.59L258.38,247.59L258.53,227.09L258.82,240.06L258.97,231.01L259.12,187.31L260,247.59L260.14,247.59L264.84,247.59L264.99,249.65L265.14,249.97L265.28,248.06L265.58,247.63L265.73,251.25L266.17,247.59L266.61,248.41L266.75,247.76L267.05,247.6L267.19,249.13L268.08,247.59L268.22,249.78L269.1,247.59L269.25,247.59L270.13,247.59L270.28,247.59L271.89,247.59L272.04,248.35L272.92,247.59L273.07,247.59L278.8,247.59L278.95,260L279.53,248.89L279.83,249.13L279.97,256.6L280.86,247.59L281,247.59L286,247.59L286.14,255.86L287.47,202.63L287.61,238.33L288.49,247.59L288.64,247.59L292.9,247.59L293.05,251.36L293.34,249.97L293.49,259.5L293.78,253.38L293.93,249.55L294.22,248.58L294.37,258L294.52,250.19L294.66,250.14L294.96,251.99L295.25,247.59L295.4,251.21L296.28,247.59L296.43,247.59L296.87,247.59L297.01,249.27L297.89,247.59L298.04,247.59L300.1,247.59L300.24,256.63L301.57,200.24L301.71,237.33L302.59,247.59L302.74,247.59L306.85,247.59L307,248.39L307.15,260.04L307.74,259.2L307.88,250.49L308.03,255.68L308.47,249.09L308.62,252.39L308.76,250.92L309.5,248.52L309.65,250.15L309.94,247.71L310.53,247.77L310.67,251.13L311.26,247.59L311.56,247.75L311.7,250.39L312.58,247.59L312.73,247.59L314.2,247.59L314.35,253.02L315.08,241.69L315.23,227.19L315.67,201.46L315.82,237.82L316.7,247.59L316.84,247.59L320.96,247.59L321.1,251.73L321.69,265.43L321.98,263.45L322.13,251.55L322.28,260.51L322.72,250.68L322.87,259.57L323.01,250.59L323.6,249.34L323.75,259.91L323.89,250.67L324.04,253.93L324.19,249.18L324.48,251.47L324.63,249.84L325.51,247.59L325.66,250.05L326.54,247.59L326.69,247.59L328.89,247.59L329.04,240.63L330.06,171.62L330.21,231.32L331.09,247.59L331.24,247.59L335.06,247.59L335.2,250.95L335.35,250.72L335.5,264.11L335.94,250.03L336.23,251.95L336.38,254.95L336.82,249.02L336.97,256.3L337.26,249.82L337.41,251.76L337.7,254.63L338,247.59L338.29,248.62L338.44,247.99L338.73,248.53L339.32,247.59L339.46,247.59L340.05,248.46L340.2,247.81L340.35,247.59L342.4,247.59L342.55,251.13L343.14,247.59L343.28,237.4L343.58,213.44L343.72,213.63L343.87,241.01L344.75,247.59L344.9,247.59L349.16,247.59L349.31,260.04L349.6,270.64L350.04,252.03L350.19,256.11L350.63,249.25L350.78,256.5L350.92,249.82L351.07,251.98L351.36,248.18L351.51,257.99L352.39,247.59L352.54,250.22L353.42,247.66L353.57,247.59L354.3,247.75L354.45,248.54L355.33,247.59L355.48,247.59L356.8,247.59L356.94,249.95L357.24,246.68L357.39,221.85L357.53,219.09L357.68,241.83L358.12,165.93L358.41,247.59L358.56,247.59L363.41,247.59L363.55,258.44L363.85,258.58L364.44,250.01L364.58,261.76L365.32,250.19L365.46,253.78L365.76,254.93L366.2,249.18L366.35,250.98L367.37,247.59L367.52,247.77L368.7,247.59L368.84,248.16L369.72,247.59L369.87,247.59L371.05,247.59L371.19,231.46L371.63,211.3L371.78,193.79L372.66,247.59L372.81,247.59L377.8,248.12L377.95,251.29L378.39,247.77L378.54,251.76L378.83,248.16L378.98,247.73L379.42,247.59L379.57,249.08L380.45,247.59L380.59,247.59L384.71,247.59L384.85,249.22L385,251.77L385.29,247.59L385.44,247.59L385.59,247.59L385.88,247.59L386.03,248.97L386.91,247.59L387.06,247.59L387.35,251.61L387.64,247.77L387.79,229.01L388.09,248.64L388.67,247.59L388.82,247.59L391.32,247.59L391.46,252.9L392.35,247.59L392.49,247.59L398.81,247.59L398.96,253.49L399.54,247.59L399.69,222.78L400.57,247.59L400.72,247.59L406.45,247.72L406.59,248.47L407.03,247.59L407.18,250.06L407.47,247.59L407.62,254.54L408.8,247.59L408.94,247.59L413.64,247.59L413.79,231.42L414.09,196.75L414.23,235.96L415.11,247.59L415.26,247.59L420.11,248.3L420.25,248.36L420.7,248.23L421.14,260.54L421.28,250.83L422.16,247.59L422.31,247.59L422.6,247.59L422.75,248.63L423.63,247.59L423.78,247.59L427.01,247.59L427.16,248.8L427.31,254.73L427.75,247.59L427.89,247.59L428.19,233.12L428.48,247.59L428.63,247.59L434.06,248.16L434.21,248.83L434.8,247.59L434.94,249.6L435.53,247.59L435.82,247.64L435.97,247.59L436.71,247.59L436.85,249.46L437,248.06" style="vector-effect: non-scaling-stroke; fill: none; stroke: rgb(0, 191, 255); stroke-opacity: 1; stroke-width: 2px; opacity: 1;"/></g><g class="points"/><g class="text"/></g><g class="trace scatter tracef5918f" style="stroke-miterlimit: 2; opacity: 0.5;"><g class="fills"/><g class="errorbars"/><g class="lines"><path class="js-line" d="M0,247.87L3.53,247.77L3.67,246.82L4.11,230.55L4.26,217.57L5.73,30.06L5.88,39.14L6.02,90.38L6.17,16.51L6.9,16.62L7.05,16.66L8.23,16.84L8.37,18.07L8.96,71.34L9.11,92L10.87,247.89L11.02,247.88L17.63,247.7L17.77,246.56L18.36,216.21L18.51,194.97L20.27,16.83L20.42,16.84L21.59,16.98L21.74,17.03L22.03,17.18L22.18,18.58L22.47,29.26L22.62,55.83L22.77,49.37L22.91,59.82L23.06,81.92L24.97,247.89L25.12,247.88L31.73,247.14L31.88,243.98L32.61,194.62L32.76,179.14L34.08,26.07L34.23,50.91L34.52,66.76L34.67,30.98L34.81,16.72L35.11,34.44L35.25,29.66L35.4,37.64L35.99,16.58L36.14,17.49L36.28,24.96L38.93,247.9L39.07,247.88L45.83,247.76L45.98,246.6L47.3,173.04L47.45,136.86L48.33,40.55L48.47,43.2L48.62,129.46L49.06,196.2L49.5,168.93L49.65,171.23L50.68,228.01L50.82,224.21L50.97,224.53L51.41,234.57L51.56,219.01L51.85,235.29L52,225.17L52.15,221.82L53.17,247.88L53.32,247.88L59.93,247.66L60.08,245.65L61.25,180.33L61.4,114.99L61.55,144.2L61.84,111.65L61.99,66.23L62.13,67.45L62.28,83.13L62.43,92.13L62.58,52.66L62.72,155.6L63.16,23.48L63.31,64.75L63.46,106.9L63.6,104.05L63.75,140.81L64.04,57.74L64.34,106.22L64.49,151.48L64.63,151.13L64.78,174.41L65.51,236.51L65.95,234.17L66.1,223.68L66.25,225.08L66.39,236.34L67.42,247.88L67.57,247.88L74.03,247.35L74.18,245L74.77,204.26L74.91,181.75L76.53,16.31L76.68,16.43L76.82,16.45L78.88,16.74L79.03,19.37L80.2,167.37L80.35,190.52L81.23,247.89L81.38,247.88L81.52,247.87L87.99,247.83L88.13,247.36L88.58,232.59L88.72,219.97L90.48,16.39L90.93,16.59L91.07,16.6L92.54,16.62L92.69,16.54L93.13,16.74L93.28,20.17L95.48,247.89L95.63,247.87L95.77,247.87L102.24,247.33L102.38,245.74L102.97,207.51L103.12,183.4L104.59,16.35L104.88,16.4L105.03,16.37L107.08,16.51L107.23,17.8L107.82,76.82L107.96,97.35L109.58,247.89L109.73,247.88L116.19,247.79L116.34,247.08L116.78,233.01L116.93,222.15L118.98,16.37L119.13,16.44L119.28,16.45L120.6,16.67L120.74,16.62L121.18,17.18L121.33,21.89L123.68,247.89L123.83,247.87L123.98,247.88L130.44,247.74L130.59,244.92L133.08,16.08L133.38,16.17L133.52,16.22L133.82,46.49L133.96,22.25L134.11,16.26L134.41,16.25L134.55,18.14L134.7,24.74L134.99,16.31L135.14,16.34L135.29,16.27L135.43,16.6L135.58,20.38L136.76,181.34L136.9,206.67L137.64,247.9L137.78,247.89L137.93,247.88L144.39,247.78L144.54,246.95L144.98,231.78L145.13,219.73L147.18,16.24L147.33,16.31L148.95,16.34L149.09,16.4L149.53,16.84L149.68,20.54L151.15,223.17L151.3,239.71L151.89,247.9L152.18,247.87L152.33,247.87L158.5,247.76L158.64,246.93L159.08,230.95L159.23,218.58L160.99,16.35L161.29,16.41L161.43,16.45L162.61,16.63L162.75,16.67L163.64,17.98L163.78,25.69L166.13,247.89L166.28,247.87L173.18,247.65L173.33,246.27L173.92,212.45L174.07,193.96L175.68,16.84L175.98,17.23L176.12,20.55L176.42,16.4L177.15,16.55L177.3,16.92L177.44,18.34L177.74,16.51L177.88,16.51L178.03,16.51L178.18,16.65L178.33,19.37L179.5,162.56L179.65,183.91L180.68,247.89L180.82,247.88L187.29,247.78L187.43,246.53L188.02,211.8L188.17,192.56L189.78,16.1L190.08,16.36L190.22,16.41L192.28,17.38L192.43,21.44L193.9,202.32L194.04,224.24L194.92,247.89L195.07,247.88L201.39,247.67L201.53,246.14L202.27,195.47L202.42,173L204.03,16.38L204.18,16.45L204.33,16.5L205.35,16.72L205.5,16.8L206.38,17.11L206.53,22.37L208.58,247.86L208.73,247.89L215.49,247.57L215.64,245.48L216.37,193.94L216.52,172.82L218.13,16.1L218.28,16.14L218.43,16.33L220.48,16.89L220.63,20.08L221.81,164.22L221.95,185.7L223.13,247.89L223.27,247.88L229.59,247.69L229.74,246.28L230.32,212.82L230.47,190.71L232.23,17.14L232.38,18.16L232.53,23.68L232.82,16.31L232.97,16.54L233.12,16.59L234.14,16.74L234.29,18.46L234.58,18.29L235.17,59.46L235.32,73.61L236.93,247.89L237.08,247.89L243.69,247.39L243.84,245.27L244.43,210.32L244.57,188.99L246.19,16.41L246.48,16.58L246.63,16.58L248.69,17.23L248.83,21.11L250.01,161.06L250.15,182.1L251.33,247.89L251.48,247.88L257.79,247.25L257.94,243.79L258.97,171.53L259.12,119.32L259.26,120.88L259.41,117.41L259.56,73.42L260.29,16L260.88,16.34L261.02,16.34L262.49,16.95L262.64,20.31L263.08,50.85L263.23,90.73L264.4,221.51L264.55,229.85L265.28,247.89L265.58,247.87L265.73,247.88L271.89,247.41L272.04,243.5L272.92,144.92L273.22,165.34L273.36,175.53L274.39,18.15L274.69,31.58L274.83,37.34L274.98,16.24L275.71,16.39L275.86,23.68L276.01,47.32L276.45,16.45L276.6,17.72L276.89,16.28L277.48,50.43L277.62,68.33L279.53,247.89L279.68,247.87L285.85,247.76L286,246.49L286.73,202.08L286.88,181.58L288.64,16.41L288.79,16.46L288.93,16.47L290.26,16.82L290.4,18.12L290.55,23.25L290.99,16.74L291.14,17.7L291.73,67.74L291.87,89.02L293.63,247.89L293.78,247.88L299.95,247.77L300.1,247.06L300.54,233.16L300.69,222.62L302.74,16.3L302.89,16.69L303.04,16.68L305.24,16.9L305.39,19.69L306.56,169.01L306.71,190.71L307.74,247.89L307.88,247.89L314.2,247.1L314.35,244.48L314.93,202.22L315.08,179.09L316.7,16.31L316.84,16.42L316.99,16.48L319.19,16.79L319.34,18.16L320.07,90.05L320.22,111.17L321.84,247.9L321.98,247.89L328.15,247.73L328.3,246.77L328.74,229.86L328.89,216.67L330.94,16.48L331.09,16.57L332.27,16.88L332.41,17.06L333.3,17.07L333.44,18.04L334.03,71.41L334.18,90.04L335.94,247.89L336.09,247.89L342.26,247.62L342.4,246.43L342.99,215.6L343.14,198.72L344.9,17.44L345.05,18.33L345.19,16.66L345.49,20.65L345.63,16.7L346.37,17.62L346.52,19.6L346.66,17.24L347.1,22.1L347.25,18.35L347.4,23.35L347.69,42.25L347.84,59.77L347.98,56.93L348.13,87.26L348.57,125.91L348.72,147.39L349.89,247.9L350.04,247.89L350.19,247.89L356.36,247.78L356.5,246.78L356.94,233.15L357.09,217.06L358.85,16.34L359,16.38L360.03,16.41L360.18,16.42L361.65,17.3L361.79,22.19L364.29,247.89L364.44,247.87L370.46,247.79L370.61,246.65L371.05,205.38L371.19,185.49L372.96,16.19L373.25,16.28L373.4,16.27L375.75,16.78L375.89,19.68L376.92,146.05L377.07,168.09L378.24,247.89L378.39,247.88L384.56,247.81L384.71,246.97L385.44,209.19L385.59,191.49L385.88,219.44L386.18,156.27L386.32,80.83L386.47,116.77L386.62,71.17L386.91,74.41L387.06,71.7L387.35,223.39L387.94,221.66L388.09,228.32L388.82,114.69L388.97,142.31L389.11,190.28L389.26,194.35L389.41,181.62L389.55,188.73L389.7,131.63L390.29,20.93L390.44,31.85L390.58,77.26L390.88,157.04L391.02,215.13L392.05,247.89L392.2,247.87L398.81,247.78L398.96,246.62L399.4,220.58L399.54,186.1L399.98,201.48L400.57,103.1L400.72,108.35L400.86,139.66L401.01,67.38L401.16,37.57L401.45,49.93L401.6,16.38L401.75,16.68L401.89,29.51L402.19,17.7L403.07,200.39L403.22,177.91L403.51,20.85L403.95,132.05L404.1,178.92L404.54,26.65L404.83,128.11L404.98,168.8L405.27,137.91L405.57,196.52L405.71,221.59L406.45,247.89L406.59,247.87L406.74,247.87L412.62,247.81L412.76,247.01L413.2,227.61L413.35,215.26L413.79,158.93L413.94,136.14L415.11,16.35L415.26,16.37L416.58,16.54L416.73,16.49L417.32,16.6L417.46,17.64L418.2,41.86L418.34,40.6L418.49,78.03L418.64,58.43L418.79,84.17L418.93,127.56L420.55,247.89L420.7,247.88L427.01,247.6L427.16,246.4L427.89,194.79L428.04,182.37L428.63,85.12L428.92,125.48L429.07,123.48L429.66,77.39L429.8,45.95L430.1,33.26L430.24,67.69L431.27,167.36L431.42,167.49L431.86,179.88L432.01,158.05L432.3,161.54L432.59,140.31L432.74,148.43L432.89,155.36L433.03,101.18L433.47,220.54L433.62,233.13L434.5,247.87L434.65,247.87L437,247.87" style="vector-effect: non-scaling-stroke; fill: none; stroke: rgb(255, 0, 0); stroke-opacity: 1; stroke-width: 2px; opacity: 1;"/></g><g class="points"/><g class="text"/></g><g class="trace scatter trace2a3897" style="stroke-miterlimit: 2; opacity: 0.5;"><g class="fills"/><g class="errorbars"/><g class="lines"><path class="js-line" d="M0,281.69L0.73,283.48L0.88,281.46L1.03,282.34L1.18,281.25L1.47,281.24L1.62,281.13L2.06,283.28L2.2,280.78L2.35,282.1L2.94,281.22L3.08,281.26L3.38,281.45L3.53,281.15L3.67,280.75L4.26,270.43L4.41,249.67L5.58,170.3L6.02,174.96L6.17,206.83L6.61,120.16L6.76,214.56L6.9,127.97L7.05,216.01L7.2,131.08L7.79,137.4L7.93,211.9L8.08,144.39L8.52,229.36L8.67,179.82L8.81,237.52L8.96,213.94L9.25,253.38L9.4,264.34L10.28,303.03L10.43,290.07L10.58,291.37L10.87,292.34L11.6,281.53L11.75,284.18L11.9,285.12L12.19,282.33L12.34,283.54L12.49,283.87L12.63,284.01L12.78,283.51L12.93,281.86L13.07,282.98L13.51,281.38L13.66,282.37L13.81,281.39L14.1,282.78L14.25,281.29L14.4,282.33L14.98,281.96L15.13,281.8L16.01,281.78L16.16,281.01L16.6,281.5L17.33,280.79L17.48,280.83L17.63,280.91L17.77,279.08L18.36,268.64L18.51,248.21L19.83,166.93L19.98,180.85L20.12,99.24L21.01,78.65L21.15,91.28L21.3,86.44L21.59,96.52L21.74,93.47L21.89,103.87L22.03,98.4L22.18,120.74L22.33,127.17L24.53,303.99L24.68,286.16L24.82,289.64L25.41,284.62L25.71,284.65L25.85,283.39L26,280.85L26.15,283.85L26.59,281.3L26.73,284.07L26.88,284.05L27.03,282.8L27.17,281.69L27.76,282.82L27.91,275L28.06,254.42L28.5,282.68L28.64,281.42L29.38,282.23L29.53,281.32L29.67,281.94L30.11,281.14L30.26,281.7L30.41,281.44L31.73,279.81L31.88,276.58L32.9,223.56L33.05,168.19L34.08,70.19L34.23,93.76L34.52,109.85L34.67,80.37L34.81,70.83L35.4,94.93L35.69,85.69L35.84,88.71L35.99,81.83L36.28,95.09L36.43,117.8L36.58,111.53L36.72,128.81L36.87,165.72L37.02,154.26L37.16,173.09L37.31,166.34L37.46,179.98L38.49,291.12L38.93,282.7L39.07,284.16L39.37,282L39.51,284.13L39.66,284.62L39.81,283.46L39.95,281.99L40.25,281.79L40.39,283.75L40.69,283.33L40.84,281.8L41.42,283.85L41.72,282.69L41.86,281.6L42.3,283.73L42.45,283.09L42.6,281.17L42.89,283.12L43.19,282.11L43.33,282.2L44.07,281.24L44.21,282.18L44.95,280.82L45.1,281.64L45.98,279.67L46.12,272.56L46.27,257.76L46.71,271.96L46.86,273.88L47.59,198.33L47.74,202.57L47.89,148.42L48.03,172.49L48.33,109.95L48.47,116.08L49.06,268.03L49.36,235.9L49.5,233.6L49.65,230.49L49.8,238.55L49.94,275.71L50.24,269.86L50.68,288.52L50.97,285.19L51.12,287.5L51.26,289.93L51.41,287.64L51.56,278.73L51.71,284.42L52,280.41L52.15,270.08L52.29,269.68L52.44,283.62L52.73,284.9L52.88,281.48L53.17,283.61L53.32,282.51L53.76,283.4L53.91,281.55L54.06,282.9L54.5,281.48L54.94,281.53L55.08,281.45L55.38,282.33L55.52,281.53L55.67,282.26L55.82,281.31L56.26,281.83L56.41,282.09L56.85,281.36L56.99,281.78L57.14,282.3L57.29,282.73L57.43,281.64L57.58,282.02L57.73,281.6L58.02,281.97L58.17,281.45L58.46,281.79L58.61,281.86L59.49,281.31L59.64,281.52L59.93,281.09L60.08,278.81L61.69,178.77L61.84,149.65L62.58,91.31L62.72,193.41L63.16,61.62L63.46,144.9L63.6,142.64L63.75,178.53L64.04,96.67L64.19,98.99L65.37,267.25L65.51,275.06L65.95,272.53L66.1,261.9L66.54,277.24L66.69,284.4L66.84,284.2L66.98,281.9L67.42,281.32L67.86,281.56L68.01,281.83L68.89,282.31L69.04,282.08L69.19,281.84L69.92,282.11L70.07,281.36L70.8,282.06L70.95,281.54L71.24,281.88L71.39,281.46L71.54,280.3L71.83,281.27L72.27,281.03L72.42,280.48L72.56,281.08L73.15,280.35L73.3,280.65L73.59,280.74L74.18,277.72L74.33,271.56L74.91,219.08L75.06,196.5L76.38,55.56L76.82,57.46L76.97,55.17L77.41,54.74L77.71,55.26L77.85,57.27L78.44,57.91L78.59,55.5L78.73,56.58L78.88,55.22L79.03,60.55L79.17,76.93L80.06,185.23L80.2,207.99L80.94,283.59L81.23,283.15L81.38,281.82L81.52,283.02L82.11,282.21L82.26,282.01L82.55,281.85L82.7,282.02L82.85,282.65L83.29,281.79L83.73,282.26L83.87,282.23L85.05,281.32L85.2,281.65L85.49,282.25L85.64,281.32L85.78,281.77L85.93,280.83L86.08,279.99L86.52,281.08L86.96,280.62L87.11,280.52L87.25,280.98L87.4,280.4L87.84,280.47L87.99,280.38L88.28,278.29L88.43,271.53L88.58,269.63L88.72,271.29L88.87,256.27L90.48,85.02L90.63,86.65L90.78,85.37L90.93,85.97L91.07,85.26L91.22,85.81L91.37,82.84L91.51,70.97L92.1,72.55L92.25,78.58L93.28,85.19L93.42,99.45L95.19,284.7L95.48,282.84L95.63,282.06L95.92,281.71L96.07,284.32L96.36,292.7L96.65,292.53L96.8,286.03L97.24,292.53L97.39,284.88L97.54,284.83L98.27,281.1L98.42,281.26L98.56,280.89L99.45,281.04L99.59,280.74L99.89,280.4L100.03,280.93L100.18,280.17L100.47,279.88L100.62,280.35L100.77,279.86L100.91,279.72L101.06,280.65L101.65,280.28L101.8,280.34L102.38,278.03L102.53,272.78L102.97,259.38L103.12,241.69L103.56,182.89L103.7,158.47L105.03,56.9L105.17,57.57L106.64,73L106.79,68.95L107.67,113.54L107.82,132.89L109.29,285.29L109.58,283.44L109.73,282.4L109.87,283.5L110.31,281.38L110.46,282.9L110.61,281.43L110.9,282.15L111.34,281.46L111.49,281.13L111.78,282.23L112.22,281.43L112.37,281.42L112.81,281.92L112.96,280.96L113.11,281.44L113.25,280.95L113.4,281.65L113.84,281.46L113.99,280.69L114.72,280.9L114.87,280.23L115.16,279.37L115.31,279.93L115.46,280.93L116.48,277.03L116.63,271L116.93,271.71L117.07,256.48L117.22,241.39L118.69,71.31L118.83,72.88L118.98,71.98L119.28,74.24L119.42,72.27L119.57,64.13L119.86,62.61L120.01,66.19L120.16,61.86L121.63,110.08L121.77,123.57L123.39,286.62L123.68,283.39L123.83,283.22L123.98,283.51L124.12,281.41L124.56,283.47L124.86,282.98L125,281.75L125.15,282.71L125.74,281.83L125.89,281.77L126.18,283.17L126.77,282.56L126.91,282.77L127.65,282.81L127.79,283.09L128.53,282.47L128.68,282.69L128.82,282.62L129.41,282.54L129.56,281.43L130,282.33L130.29,282.1L130.44,281.18L130.73,265.09L130.88,256.12L131.03,266.19L131.32,243.8L131.47,237.94L132.79,66.18L132.94,62.65L133.23,58.95L133.52,62.74L133.67,70.29L133.82,94.23L134.26,62.26L134.41,71.12L134.55,70.82L134.85,67.91L135.43,90.38L135.58,71.97L137.34,284.35L137.78,283.18L137.93,282.65L138.66,291.22L138.81,283.77L139.11,281.67L139.55,282.59L139.69,282.71L139.99,283.32L140.57,282.15L140.72,282.37L140.87,282.86L142.19,283.71L142.34,282.82L143.07,283.1L143.22,282.99L144.54,280.24L144.69,277.64L145.57,232.53L145.72,192.15L147.04,71.41L147.18,71.71L147.33,71.59L147.48,71.84L147.63,72.53L148.07,75.01L148.21,66.09L148.51,70.62L148.65,77.28L149.39,93.86L149.53,88.25L149.68,89.22L150.56,180.26L150.71,208.39L152.03,288.61L152.18,286.07L152.47,285.57L152.62,288.98L152.77,283.36L152.91,281.17L153.35,283.5L153.5,282.45L153.65,281.67L153.79,281.94L154.24,281.19L154.38,281.16L154.53,281.03L154.68,281.74L154.82,281.42L154.97,281.8L155.12,281.13L155.7,281.9L155.85,281.62L156.88,280.68L157.03,280.5L158.5,280.26L158.64,279.07L159.23,255.26L159.38,241.43L159.82,174.08L159.96,148.53L160.99,56.1L161.29,61.4L161.43,63.67L161.87,66.52L162.02,62.82L162.17,64.08L162.31,71.68L163.2,86.12L163.34,78.61L164.22,138.15L164.37,160.56L165.55,288.12L165.99,284L166.13,284.1L166.87,282.14L167.01,283.27L167.16,283.4L168.04,281.3L168.19,282.32L168.92,281.23L169.07,281.33L169.22,281.2L170.1,282.14L170.25,274.82L170.69,247.59L170.83,254.24L170.98,281.79L171.86,280.64L172.01,281.04L172.74,280.4L172.89,280.84L173.33,278.46L173.48,274.84L174.21,219.29L174.36,185.79L175.68,55.3L175.98,60.42L176.12,63.58L176.56,76.58L176.71,73.53L176.86,68.14L177,64.78L177.3,71.88L177.44,74.75L177.59,66.92L177.88,76.6L178.03,73.67L178.18,76.32L178.33,75.67L178.47,94.7L178.62,95.38L178.77,122.1L179.35,194.52L179.5,212.06L180.38,285.06L180.53,284.92L180.68,284.2L180.97,284.31L181.12,283.51L181.26,281.08L181.7,284.69L181.85,282.39L182,283.52L182.73,281.52L182.88,282.5L183.32,281.48L183.61,281.94L183.76,282.07L184.64,281.99L184.79,281.37L187.14,280.26L187.29,282.73L187.58,289.77L187.73,284.76L187.87,276.35L189.2,134L189.34,122.78L190.52,75.29L190.66,78.63L191.4,94.96L191.55,87.68L191.69,92.83L191.84,91.15L191.99,93.01L192.13,101.97L192.28,89.83L192.57,120.31L192.72,138.36L193.46,221.66L193.6,248.57L193.75,246.74L193.9,258.25L194.78,292.43L194.92,287.57L195.07,292.84L195.51,285.71L195.66,289.29L195.81,285.26L195.95,288.8L196.54,286.05L196.69,287.74L196.98,287.85L197.42,282.07L197.71,282.8L197.86,283.49L198.01,281.61L198.74,281.79L198.89,281.92L199.62,281.12L199.77,281.72L199.92,281.46L201.24,280.77L201.39,281.78L201.68,285.5L201.97,279.34L202.12,268.32L203.88,65.51L204.33,77.57L204.47,83.13L204.91,78.08L205.35,90.52L205.5,90.87L205.65,85.28L205.94,99.67L206.09,95.39L206.23,103.82L206.38,98.36L206.53,103.82L206.68,118.83L208.44,298.42L208.58,286.09L209.61,297.89L209.76,289.19L209.91,299.91L210.35,284.82L210.49,286.52L211.23,281.6L211.38,283.22L211.52,283.66L212.26,281.55L212.4,282.68L212.7,283.06L213.14,280.83L213.29,281.57L213.43,281.38L214.31,281.77L214.46,280.79L214.9,281.58L215.19,281.12L215.34,281.1L215.78,288.68L215.93,284.56L216.08,277.25L216.37,261.82L216.52,243.24L217.25,206.52L217.4,188.06L217.55,187.59L217.69,114.24L218.13,73.6L218.43,81.61L218.57,88.65L219.16,113.24L219.31,112.04L219.45,96.12L220.19,124.9L220.34,104.23L220.48,106.59L220.63,106.45L220.78,125.57L221.66,209.05L221.81,231.76L222.54,296.05L222.98,294.26L223.13,287.9L223.57,299.75L223.71,287.18L223.86,296.62L224.01,288L224.16,298.68L224.6,284.98L224.74,288.44L224.89,285.29L225.04,287.83L225.33,281.84L225.48,281.99L225.77,282.57L226.21,281.62L226.36,282.45L227.24,281.28L227.39,281.35L227.53,280.98L227.68,281.92L227.83,281.3L227.97,282.05L228.12,283.49L228.42,280.99L228.71,282.16L228.86,280.95L229.44,280.64L229.59,283.04L229.74,286.14L229.88,288.53L230.03,286.6L230.18,279.36L232.67,79.56L232.82,80.67L232.97,77.8L233.12,91.31L233.26,83.93L233.7,85.93L233.85,94.51L234,86.79L234.29,102.23L234.44,96.17L234.58,103.33L235.91,236.56L236.05,270.46L236.93,292.2L237.23,291.36L237.38,286.44L237.67,287.95L237.82,284.61L237.96,284.79L238.11,283.97L238.26,283.33L238.55,285.34L238.99,283.77L239.14,283.81L239.58,284.2L239.87,281.79L240.02,283.61L240.9,282.24L241.05,282.85L241.34,282.9L241.78,281.81L241.93,282.05L242.08,281.82L242.37,282.11L242.52,281.61L242.66,281.25L243.4,281.9L243.54,281.78L243.69,281.79L244.13,285.31L244.28,278.09L246.34,68.24L246.63,75.81L246.78,75.7L246.92,74.38L247.07,80.42L247.51,76.93L247.95,89.18L248.1,97.56L248.25,102.83L248.39,96.15L248.69,101.74L248.83,96.52L250.89,286.84L251.04,284.76L251.18,286.82L251.48,281.5L251.92,285.29L252.06,286.95L252.65,282.55L253.09,283.46L253.24,283.85L253.53,284.43L253.68,281.5L254.27,283.76L254.56,283.5L254.71,281.91L254.86,283.06L255.3,281.68L255.44,282.35L255.59,281.61L255.88,282.44L256.03,281.8L256.18,282.77L256.62,281.18L256.91,281.66L257.06,281.67L257.21,281.26L257.35,281.71L257.5,282.8L258.09,274.65L258.23,262.97L260.29,60.75L260.58,65.62L260.73,69.51L260.88,69.35L261.02,67.51L261.32,70.8L261.47,66.84L262.2,86.45L262.35,83.58L262.49,76L262.79,79.4L262.93,96.25L264.99,284.91L265.14,285.71L265.43,282.25L266.02,283.13L266.17,282.75L266.46,284.33L266.75,281.46L266.9,283.42L267.05,282.04L267.19,283.65L267.34,281.94L267.63,281.94L267.78,281.12L268.52,283.67L268.66,282.4L268.81,282.32L269.1,281.72L269.4,283.78L269.54,282.59L269.69,281.42L269.84,282.97L270.28,280.98L270.43,281.8L270.57,281.62L271.16,281.67L271.31,281.15L271.89,282.61L272.04,281.43L272.19,267.78L272.92,183.43L273.22,204.11L273.36,218.99L274.25,60.05L274.69,76.95L274.83,85.89L274.98,65.02L275.57,72.35L275.71,69.39L276.01,102.65L276.3,88.04L276.45,76.58L277.04,83.72L277.18,77.75L277.33,101.37L277.77,142.82L277.92,170.24L279.39,289.43L279.53,289.28L280.27,284.87L280.41,287.44L280.71,281.76L281.3,282.5L281.44,281.72L281.59,283L281.74,281.63L282.03,282L282.18,281.22L282.47,282.38L282.62,283.54L283.35,281.73L283.5,282.11L283.65,281.8L284.82,281.77L284.97,281.32L285.56,281.76L285.7,281.05L285.85,280.81L286.29,285.47L286.44,278.29L287.47,202.62L287.61,146.14L288.64,73.83L288.79,80.92L288.93,85.44L289.37,78.81L289.52,80.97L289.67,76.85L289.82,74.82L289.96,80.2L290.11,78.42L290.26,83.92L290.4,80.81L290.55,87.53L290.7,95.73L291.28,86.21L291.43,105.92L292.17,197.36L292.31,219.27L293.34,292.32L293.49,284.44L293.63,283.73L293.93,289.44L294.22,284.34L294.37,284.2L294.52,282.37L295.1,283.1L295.25,283.08L295.4,283.76L295.54,282.74L295.69,283.49L295.84,280.91L295.98,283.28L296.57,281.82L296.72,282.09L297.16,281.94L297.6,283.88L297.75,283.04L298.48,281.9L298.63,282.88L299.51,281.74L299.66,281.75L299.8,281.69L299.95,282.38L300.1,283.76L300.39,290.42L300.54,283.87L300.69,278.18L302.45,77.33L302.74,92.33L302.89,102.68L303.18,83.59L303.62,102.18L303.77,100.12L304.06,92.52L304.21,100.6L304.36,88.96L304.95,100.64L305.09,99.27L305.68,132.61L305.83,150.67L307.3,292.92L307.59,290.52L307.74,286.03L307.88,291.16L308.32,285.11L308.47,288.22L308.62,285.65L308.76,288.54L309.35,285.6L309.5,285.35L310.23,281.81L310.53,282.33L310.67,283.54L310.82,280.66L311.26,283.81L311.41,283.5L311.56,282.46L311.7,283.55L311.85,281.29L312.29,282.75L312.44,281.55L313.02,282.75L313.32,282.46L313.46,281.72L313.76,281.62L314.35,285.8L314.49,288.74L314.93,258.48L315.08,241.67L315.82,160.96L315.96,138.64L316.84,88.1L317.14,90.1L317.28,102.45L317.43,101.65L317.58,108.65L317.72,109.87L317.87,107.78L318.17,108.73L318.31,105.79L319.19,122.62L319.34,117.95L320.07,184.9L320.22,203.64L321.4,296.4L321.54,295.97L321.69,288.47L322.13,298.96L322.28,286.98L322.43,295.88L322.57,285.9L323.01,292.3L323.16,285.88L323.31,290.85L323.45,285.21L323.6,290.08L324.04,285.15L324.19,288.46L324.33,285.92L324.48,289.2L324.78,284.75L324.92,281.89L325.36,281.56L325.66,283.77L325.8,281.92L325.95,281.9L326.1,283.27L326.54,281.4L326.83,281.55L326.98,282.63L327.57,281.71L327.71,282.22L327.86,281.9L328.01,282.54L328.15,281.3L328.45,281.55L328.59,276.23L330.21,141.03L330.36,109.29L331.09,85.33L331.24,101.15L331.39,99.98L331.53,103.82L331.68,93.94L332.56,125.71L332.85,123.03L333,118.02L333.15,116.41L333.3,119.14L333.44,118.3L333.59,124.33L335.35,290.82L335.5,287.58L335.65,289.25L335.94,292.87L336.09,286.19L336.38,288.03L336.53,290.71L336.97,284.99L337.41,285.32L337.55,282.97L337.85,282.34L338.14,284.26L338.29,284.06L338.44,283.44L338.58,281.84L338.88,284.6L339.17,282.44L339.32,282.91L339.61,283.96L339.76,283.49L339.91,282.05L340.05,283.6L340.2,281.94L340.64,281.98L340.79,282.3L341.23,281.39L341.37,282.78L341.52,281.54L341.67,282.54L341.81,281.15L342.4,282.48L342.55,285.19L342.7,286.37L342.84,279.78L344.9,98.77L345.19,100.51L345.34,102.66L345.63,94.35L345.78,103.26L345.93,100.41L346.07,104.4L346.52,102.7L347.54,130.28L347.69,146.35L349.75,304L349.89,287.36L350.04,295.05L350.48,284.73L350.63,287.29L350.78,285.32L350.92,288.07L351.36,283.85L351.51,283.6L351.66,279.36L351.8,285.31L352.24,282.73L352.39,283.56L352.54,283.49L352.68,281.21L353.27,285.78L353.42,283.64L353.57,282.29L354.01,282.06L354.15,283.5L354.3,281.98L354.45,283.51L354.59,281.54L355.03,282.45L355.18,282.3L355.92,281.52L356.06,282.47L356.8,281.13L356.94,282.2L358.27,124.7L358.41,89.95L358.85,73.7L359.15,84.28L359.29,86.84L359.59,85.36L359.74,91.03L360.03,88.38L360.62,97.89L360.76,96.34L361.35,111.25L361.5,109.02L361.65,92.71L363.7,295.38L364.14,288.07L364.29,291.93L364.88,286.26L365.02,289.9L365.61,290.15L365.76,285.67L365.9,290L366.79,283.61L366.93,283.7L367.37,282.01L367.67,282.23L367.81,283.45L368.26,281.29L368.55,281.33L368.7,282.6L368.84,283.49L368.99,281.6L369.43,282.6L369.58,282.1L369.72,282.55L370.02,281.72L370.16,282.37L370.31,281.87L370.46,282.46L370.61,281.43L370.75,280.47L372.96,63.12L373.25,67L373.4,73.31L373.54,72.19L373.69,77.76L374.28,69.83L374.42,83.07L374.57,84.09L374.72,90.85L375.31,82.43L375.45,94.25L375.6,89.01L375.89,95.34L376.04,102.23L378.1,286.27L378.24,283.49L378.39,282.67L378.68,280.81L378.83,283.52L378.98,281.61L379.27,281.44L379.57,283.98L379.86,283.46L380.01,281.6L380.89,283.11L381.03,282L381.33,281.92L381.48,283.5L381.77,283.27L381.92,281.77L382.5,282.33L382.65,281.32L382.94,281.83L383.09,282.98L383.97,281.56L384.12,281.66L384.27,281.59L384.56,281.52L384.85,285.23L385,284.88L385.15,279.59L385.74,233.88L385.88,281.54L386.03,276.23L386.18,223.26L387.06,137.58L387.2,250.68L387.35,285.12L387.79,250.64L387.94,268.96L388.09,273.53L388.82,168.25L388.97,196.48L389.11,235.55L389.26,243.89L389.41,229.84L389.55,240.79L389.7,178.18L390.29,65.72L390.44,75.26L390.58,127.99L390.73,133.94L390.88,201.64L391.46,283.95L391.76,282.15L391.9,283.56L392.05,281.29L392.64,282.09L392.79,281.95L393.08,281.82L393.37,283.42L393.52,281.26L393.96,282.28L394.25,281.69L394.4,281.6L395.14,281.85L395.28,281.26L395.72,281.84L396.02,281.58L396.16,281.18L397.93,280.79L398.07,281.31L398.51,280.75L398.66,281.03L398.81,282.7L399.1,290.04L399.25,286.55L399.4,276.95L400.57,166.37L400.72,169.96L400.86,201.26L401.01,125.22L401.16,88.98L401.45,97.98L401.6,66.67L401.89,75.83L402.04,125.81L402.19,70.61L402.63,128.23L402.77,151.3L403.07,270.01L403.36,137.71L403.51,97.64L404.1,231.41L404.24,187.98L404.39,98.47L404.54,86.16L404.68,113.39L404.83,181.57L405.86,278.79L406.01,283.25L406.45,284.32L406.59,283.54L406.74,281.72L407.33,280.8L407.62,286.44L407.77,291.48L408.36,280.91L408.94,281.54L409.09,281.84L409.53,282.97L409.68,281.71L410.27,281.27L410.41,281.84L410.56,281.44L410.85,280.98L411.29,281.71L411.44,280.94L412.03,281.89L412.32,281.42L412.47,281.73L412.91,278.73L413.2,279.91L413.35,268.53L414.09,214.76L414.23,156.88L415.55,64.76L415.7,66.85L415.85,63.54L416.58,83.76L416.88,82.26L417.02,73.63L417.17,72.54L417.32,74.84L417.46,76.02L419.08,209.08L419.23,261.67L419.52,241.7L419.81,273.31L419.96,271.51L420.84,287.14L420.99,295.23L421.43,282.47L421.87,283.5L422.02,281.14L422.75,283.83L422.9,282.6L423.05,281.73L423.34,281.6L423.78,283.22L423.93,281.75L424.22,283.55L424.51,281.75L424.66,281.49L424.81,282.35L425.25,281.02L425.4,282.2L425.54,280.96L426.13,282.76L426.28,280.89L426.86,280.8L427.45,289.24L427.6,282.47L428.48,184.62L428.63,149.95L428.92,190.77L429.36,161.61L429.51,157.45L430.1,91.98L430.24,131.84L430.39,191.74L431.42,240.69L431.57,234.37L431.71,230.32L431.86,235.98L432.01,204.42L432.15,204.29L432.3,214.54L433.03,144.26L433.18,170.75L433.33,240.53L434.06,284.34L434.36,282.63L434.5,283.17L434.94,283.63L435.09,281.72L435.38,281.77L435.53,283.8L435.68,283.98L435.82,283.49L435.97,281.47L436.27,280.88L436.71,283.79L436.85,283.49L437,281.1" style="vector-effect: non-scaling-stroke; fill: none; stroke: rgb(0, 128, 0); stroke-opacity: 1; stroke-width: 2px; opacity: 1;"/></g><g class="points"/><g class="text"/></g></g></g><g class="overplot"/><path class="xlines-above crisp" d="M0,0" style="fill: none;"/><path class="ylines-above crisp" d="M0,0" style="fill: none;"/><g class="overlines-above"/><g class="xaxislayer-above"><g class="xtick"><text text-anchor="middle" x="0" y="433" transform="translate(150.51,0)" style="font-family: 'Open Sans', verdana, arial, sans-serif; font-size: 12px; fill: rgb(42, 63, 95); fill-opacity: 1; white-space: pre; opacity: 1;"><tspan class="line" dy="0em" x="0" y="433">Mar 6</tspan><tspan class="line" dy="1.3em" x="0" y="433">2022</tspan></text></g><g class="xtick"><text text-anchor="middle" x="0" y="433" style="font-family: 'Open Sans', verdana, arial, sans-serif; font-size: 12px; fill: rgb(42, 63, 95); fill-opacity: 1; white-space: pre; opacity: 1;" transform="translate(249.22,0)">Mar 13</text></g><g class="xtick"><text text-anchor="middle" x="0" y="433" style="font-family: 'Open Sans', verdana, arial, sans-serif; font-size: 12px; fill: rgb(42, 63, 95); fill-opacity: 1; white-space: pre; opacity: 1;" transform="translate(347.93,0)">Mar 20</text></g><g class="xtick"><text text-anchor="middle" x="0" y="433" style="font-family: 'Open Sans', verdana, arial, sans-serif; font-size: 12px; fill: rgb(42, 63, 95); fill-opacity: 1; white-space: pre; opacity: 1;" transform="translate(446.64,0)">Mar 27</text></g></g><g class="yaxislayer-above"><g class="ytick"><text text-anchor="end" x="79" y="4.199999999999999" transform="translate(0,396.07)" style="font-family: 'Open Sans', verdana, arial, sans-serif; font-size: 12px; fill: rgb(42, 63, 95); fill-opacity: 1; white-space: pre; opacity: 1;">−20</text></g><g class="ytick"><text text-anchor="end" x="79" y="4.199999999999999" style="font-family: 'Open Sans', verdana, arial, sans-serif; font-size: 12px; fill: rgb(42, 63, 95); fill-opacity: 1; white-space: pre; opacity: 1;" transform="translate(0,347.59000000000003)">0</text></g><g class="ytick"><text text-anchor="end" x="79" y="4.199999999999999" style="font-family: 'Open Sans', verdana, arial, sans-serif; font-size: 12px; fill: rgb(42, 63, 95); fill-opacity: 1; white-space: pre; opacity: 1;" transform="translate(0,299.12)">20</text></g><g class="ytick"><text text-anchor="end" x="79" y="4.199999999999999" style="font-family: 'Open Sans', verdana, arial, sans-serif; font-size: 12px; fill: rgb(42, 63, 95); fill-opacity: 1; white-space: pre; opacity: 1;" transform="translate(0,250.64)">40</text></g><g class="ytick"><text text-anchor="end" x="79" y="4.199999999999999" style="font-family: 'Open Sans', verdana, arial, sans-serif; font-size: 12px; fill: rgb(42, 63, 95); fill-opacity: 1; white-space: pre; opacity: 1;" transform="translate(0,202.16)">60</text></g><g class="ytick"><text text-anchor="end" x="79" y="4.199999999999999" style="font-family: 'Open Sans', verdana, arial, sans-serif; font-size: 12px; fill: rgb(42, 63, 95); fill-opacity: 1; white-space: pre; opacity: 1;" transform="translate(0,153.69)">80</text></g><g class="ytick"><text text-anchor="end" x="79" y="4.199999999999999" style="font-family: 'Open Sans', verdana, arial, sans-serif; font-size: 12px; fill: rgb(42, 63, 95); fill-opacity: 1; white-space: pre; opacity: 1;" transform="translate(0,105.21)">100</text></g></g><g class="overaxes-above"/></g></g><g class="polarlayer"/><g class="smithlayer"/><g class="ternarylayer"/><g class="geolayer"/><g class="funnelarealayer"/><g class="pielayer"/><g class="iciclelayer"/><g class="treemaplayer"/><g class="sunburstlayer"/><g class="glimages"/><defs id="topdefs-a93c78"><g class="clips"/><clipPath id="legenda93c78"><rect width="162" height="67" x="0" y="0"/></clipPath></defs><g class="layer-above"><g class="imagelayer"/><g class="shapelayer"/></g><g class="infolayer"><g class="legend" pointer-events="all" transform="translate(525.74,100)"><rect class="bg" shape-rendering="crispEdges" width="162" height="67" x="0" y="0" style="stroke: rgb(68, 68, 68); stroke-opacity: 1; fill: rgb(255, 255, 255); fill-opacity: 1; stroke-width: 0px;"/><g class="scrollbox" transform="" clip-path="url(#legenda93c78)"><g class="groups"><g class="traces" transform="translate(0,14.5)" style="opacity: 1;"><text class="legendtext" text-anchor="start" x="40" y="4.680000000000001" style="font-family: 'Open Sans', verdana, arial, sans-serif; font-size: 12px; fill: rgb(42, 63, 95); fill-opacity: 1; white-space: pre;">BESS</text><g class="layers" style="opacity: 0.5;"><g class="legendfill"/><g class="legendlines"><path class="js-line" d="M5,0h30" style="fill: none; stroke: rgb(0, 191, 255); stroke-opacity: 1; stroke-width: 2px;"/></g><g class="legendsymbols"><g class="legendpoints"/></g></g><rect class="legendtoggle" x="0" y="-9.5" width="156.71875" height="19" style="fill: rgb(0, 0, 0); fill-opacity: 0;"/></g><g class="traces" transform="translate(0,33.5)" style="opacity: 1;"><text class="legendtext" text-anchor="start" x="40" y="4.680000000000001" style="font-family: 'Open Sans', verdana, arial, sans-serif; font-size: 12px; fill: rgb(42, 63, 95); fill-opacity: 1; white-space: pre;">Solar</text><g class="layers" style="opacity: 0.5;"><g class="legendfill"/><g class="legendlines"><path class="js-line" d="M5,0h30" style="fill: none; stroke: rgb(255, 0, 0); stroke-opacity: 1; stroke-width: 2px;"/></g><g class="legendsymbols"><g class="legendpoints"/></g></g><rect class="legendtoggle" x="0" y="-9.5" width="156.71875" height="19" style="fill: rgb(0, 0, 0); fill-opacity: 0;"/></g><g class="traces" transform="translate(0,52.5)" style="opacity: 1;"><text class="legendtext" text-anchor="start" x="40" y="4.680000000000001" style="font-family: 'Open Sans', verdana, arial, sans-serif; font-size: 12px; fill: rgb(42, 63, 95); fill-opacity: 1; white-space: pre;">Grid Meter (Net Load)</text><g class="layers" style="opacity: 0.5;"><g class="legendfill"/><g class="legendlines"><path class="js-line" d="M5,0h30" style="fill: none; stroke: rgb(0, 128, 0); stroke-opacity: 1; stroke-width: 2px;"/></g><g class="legendsymbols"><g class="legendpoints"/></g></g><rect class="legendtoggle" x="0" y="-9.5" width="156.71875" height="19" style="fill: rgb(0, 0, 0); fill-opacity: 0;"/></g></g></g><rect class="scrollbar" rx="20" ry="3" width="0" height="0" x="0" y="0" style="fill: rgb(128, 139, 164); fill-opacity: 1;"/></g><g class="g-gtitle"><text class="gtitle" x="298.5" y="50" text-anchor="middle" dy="0em" style="font-family: 'Open Sans', verdana, arial, sans-serif; font-size: 17px; fill: rgb(42, 63, 95); opacity: 1; font-weight: normal; white-space: pre;"><tspan class="line" dy="0em" x="298.5" y="50">Scenario 5</tspan><tspan class="line" dy="1.3em" x="298.5" y="50">Microgrid Output</tspan><tspan class="line" dy="2.6em" x="298.5" y="50">From: March 01, 2022 to March 31, 2022</tspan></text></g><g class="g-xtitle"><text class="xtitle" x="298.5" y="476.409375" text-anchor="middle" style="font-family: 'Open Sans', verdana, arial, sans-serif; font-size: 14px; fill: rgb(42, 63, 95); opacity: 1; font-weight: normal; white-space: pre;">Time</text></g><g class="g-ytitle"><text class="ytitle" transform="rotate(-90,33.840625,260)" x="33.840625" y="260" text-anchor="middle" style="font-family: 'Open Sans', verdana, arial, sans-serif; font-size: 14px; fill: rgb(42, 63, 95); opacity: 1; font-weight: normal; white-space: pre;">Demand (kW)</text></g></g></svg>