<svg class="main-svg" xmlns="http://www.w3.org/2000/svg" xmlns:xlink="http://www.w3.org/1999/xlink" width="700" height="500" style="" viewBox="0 0 700 500"><rect x="0" y="0" width="700" height="500" style="fill: rgb(255, 255, 255); fill-opacity: 1;"/><defs id="defs-7b8abf"><g class="clips"><clipPath id="clip7b8abfxyplot" class="plotclip"><rect width="432" height="320"/></clipPath><clipPath class="axesclip" id="clip7b8abfx"><rect x="80" y="0" width="432" height="500"/></clipPath><clipPath class="axesclip" id="clip7b8abfy"><rect x="0" y="100" width="700" height="320"/></clipPath><clipPath class="axesclip" id="clip7b8abfxy"><rect x="80" y="100" width="432" height="320"/></clipPath></g><g class="gradients"/><g class="patterns"/></defs><g class="bglayer"/><g class="layer-below"><g class="imagelayer"/><g class="shapelayer"/></g><g class="cartesianlayer"><g class="subplot xy"><g class="layer-subplot"><g class="shapelayer"/><g class="imagelayer"/></g><g class="gridlayer"><g class="x"><path class="xgrid crisp" transform="translate(149.7,0)" d="M0,100v320" style="stroke: rgb(255, 255, 255); stroke-opacity: 1; stroke-width: 1px;"/><path class="xgrid crisp" transform="translate(247.28,0)" d="M0,100v320" style="stroke: rgb(255, 255, 255); stroke-opacity: 1; stroke-width: 1px;"/><path class="xgrid crisp" transform="translate(344.86,0)" d="M0,100v320" style="stroke: rgb(255, 255, 255); stroke-opacity: 1; stroke-width: 1px;"/><path class="xgrid crisp" transform="translate(442.44,0)" d="M0,100v320" style="stroke: rgb(255, 255, 255); stroke-opacity: 1; stroke-width: 1px;"/></g><g class="y"><path class="ygrid crisp" transform="translate(0,365.93)" d="M80,0h432" style="stroke: rgb(255, 255, 255); stroke-opacity: 1; stroke-width: 1px;"/><path class="ygrid crisp" transform="translate(0,194.22)" d="M80,0h432" style="stroke: rgb(255, 255, 255); stroke-opacity: 1; stroke-width: 1px;"/><path class="ygrid crisp" transform="translate(0,108.36)" d="M80,0h432" style="stroke: rgb(255, 255, 255); stroke-opacity: 1; stroke-width: 1px;"/></g></g><g class="zerolinelayer"><path class="yzl zl crisp" transform="translate(0,280.07)" d="M80,0h432" style="stroke: rgb(255, 255, 255); stroke-opacity: 1; stroke-width: 2px;"/></g><path class="xlines-below"/><path class="ylines-below"/><g class="overlines-below"/><g class="xaxislayer-below"/><g class="yaxislayer-below"/><g class="overaxes-below"/><g class="plot" transform="translate(80,100)" clip-path="url(#clip7b8abfxyplot)"><g class="scatterlayer mlayer"><g class="trace scatter traceb54a58" style="stroke-miterlimit: 2; opacity: 0.5;"><g class="fills"/><g class="errorbars"/><g class="lines"><path class="js-line" d="M0,180.07L0.58,180.07L0.73,181.02L1.6,180.07L1.74,180.07L2.03,180.59L2.47,180.07L2.61,180.07L3.63,180.07L3.78,245.03L4.07,247.74L4.5,144.49L4.79,146.08L4.94,168.92L5.66,107.25L5.81,140.82L5.95,152.6L6.1,102.1L6.39,99.75L6.82,149.58L6.97,106.33L7.41,144.94L7.7,144.56L7.84,111.63L8.57,180.46L8.71,140.03L9.58,183.77L9.73,181L9.87,190.15L10.02,262.75L10.31,265.97L10.46,144.28L10.89,211.84L11.04,172.68L11.18,192.45L11.76,180.27L11.91,181.53L12.78,180.07L12.92,180.07L17.86,180.07L18.01,245.98L19.02,149.06L19.17,136.72L19.31,143.28L19.46,126.5L19.6,137.29L19.75,114.9L20.04,170.47L20.18,153.41L20.33,107.74L20.47,136.64L20.62,106.01L21.06,132.03L21.2,113.51L21.78,105.51L22.22,180.07L22.36,180.07L22.8,180.07L22.94,196.03L23.09,192.73L23.23,216.08L23.38,141.53L23.96,187.09L24.1,202.11L24.98,180.55L25.12,181.25L25.41,180.19L25.56,182.77L25.99,180.15L26.43,180.32L26.57,180.24L27.74,180.07L27.88,180.07L28.17,180.07L28.32,247.18L28.46,149.48L29.04,181.42L29.19,182.07L30.06,180.07L30.2,180.07L30.64,180.07L30.78,247.04L31.66,180.07L31.8,180.07L32.09,180.07L32.24,173.53L32.53,157.16L32.67,198.15L33.69,83.67L33.83,156.57L34.12,159.35L34.27,86.77L34.41,156.75L34.56,180.07L37.75,180.07L37.9,187.09L38.48,180.07L38.77,180.37L38.92,180.07L39.64,180.68L39.79,180.22L39.93,181.43L40.22,180.07L40.51,180.07L40.66,180.07L40.95,181.03L41.38,180.07L41.53,180.07L46.61,180.07L46.76,228.88L47.34,105.55L47.48,181.25L47.63,185.31L48.5,180.07L48.65,180.07L49.08,180.07L49.23,218.23L49.37,165.77L49.95,183.58L50.1,254.29L50.39,181.29L50.97,181.55L51.11,180.07L51.26,185.25L51.84,180.07L51.99,181.45L52.13,181.64L52.28,180.38L53.73,180.07L53.87,180.07L58.96,180.07L59.1,247.24L59.25,148.73L59.83,173.15L59.97,176.89L60.12,179.58L60.41,172.96L60.55,178.42L60.7,122.18L60.84,165.81L61.28,108.55L61.42,149.45L61.57,115.12L62,217.41L62.15,62.1L62.44,194.75L62.59,180.07L62.88,180.07L63.02,193.92L63.31,179.01L63.89,180.07L64.04,205.86L64.18,199.57L64.33,203.93L64.47,155.56L64.62,191.74L65.2,180.07L65.34,180.07L65.93,180.59L66.07,180.96L66.94,180.07L67.09,180.07L73.62,180.07L73.77,234.95L74.49,131.57L74.64,205.97L75.07,116.09L75.36,180.07L75.51,180.07L79.87,180.07L80.01,181.44L80.88,180.07L81.03,180.07L81.17,247.79L81.75,180.07L81.9,180.07L86.69,180.07L86.84,246.78L86.98,148.71L87.56,176.38L87.71,180.99L87.85,180.86L88,174.02L89.16,122.65L89.3,168.07L90.18,180.07L90.32,180.07L93.81,180.07L93.95,181.21L94.1,249.62L94.39,180.07L94.68,180.07L94.82,180.07L94.97,180.07L95.11,186.28L95.55,181.6L95.69,186.53L95.84,181.69L95.98,186.1L96.27,186.41L96.86,180.07L97,180.07L101.21,180.07L101.36,242.9L101.5,145.28L101.94,249.36L102.08,173.47L102.23,173.56L103.24,99.56L103.39,161.96L104.26,180.07L104.41,180.07L107.75,180.07L107.89,181.97L108.47,180.09L108.76,180.48L108.91,180.07L113.26,180.07L113.41,247.11L114.28,180.07L114.43,180.07L115.73,180.07L115.88,174.25L116.6,138.83L116.75,171.58L117.62,180.07L117.77,180.07L121.69,180.07L121.83,183.5L122.41,180.07L122.7,180.46L122.85,180.07L123.14,181.19L123.28,180.35L123.43,248.41L124.3,180.07L124.45,180.07L128.66,180.07L128.8,247.85L128.95,148.26L129.53,177.76L129.67,178.35L129.82,179.39L129.96,217.68L130.98,100.67L131.12,145.04L131.56,87.6L131.71,138.87L131.85,175.27L132.72,180.07L132.87,180.07L134.75,180.07L134.9,186.55L135.05,152.67L135.63,180.07L135.77,183.65L136.5,180.07L136.64,180.19L136.79,180.15L136.93,186.81L137.37,180.07L137.51,180.07L137.66,180.07L142.02,180.07L142.16,247.76L142.31,148.54L142.89,178.71L143.03,183.02L143.76,176.16L143.9,167.09L144.63,128.03L144.77,169.3L145.65,180.07L145.79,180.07L149.57,180.07L149.71,182.3L149.86,245.72L150.15,181.16L150.44,184.92L150.58,181.09L150.73,184.95L151.16,180.25L151.31,180.07L157.41,180.07L157.55,176.03L158.28,135.16L158.42,170.56L159.3,180.07L159.44,180.07L163.36,180.07L163.51,187.3L164.23,180.17L164.38,180.4L164.52,180.15L164.67,180.92L165.25,180.07L165.39,180.07L168.73,180.07L168.88,228.15L169.02,163.49L169.61,181.63L169.75,180.07L171.49,180.07L171.64,241.4L172.65,138.1L172.8,146.48L172.95,119.62L173.24,180.07L173.38,180.07L178.03,180.07L178.17,180.95L178.32,181L178.46,180.25L178.9,180.07L179.04,181.7L179.19,180.48L179.33,180.07L179.48,181.27L180.06,180.07L180.21,180.07L180.5,180.92L180.93,180.07L181.08,180.07L183.26,180.07L183.4,247.42L183.55,148.92L184.13,179.56L184.27,183.73L185.14,180.07L185.29,184.59L185.43,182.84L185.58,250.35L186.01,142.13L186.59,148.43L186.74,162.07L187.47,121.47L187.61,132.02L187.76,118.25L188.63,180.07L188.77,180.07L191.82,180.07L191.97,184.43L192.4,186.53L192.55,182.67L193.13,181.54L193.27,187.99L193.42,182.05L193.57,183.55L193.71,181.21L193.86,251.86L194.44,181.2L194.73,182.2L194.87,180.39L195.45,180.07L195.6,180.87L196.47,180.07L196.61,180.07L197.49,180.07L197.63,247.35L197.78,148.82L198.36,179.45L198.5,184.03L199.08,180.07L199.37,181.99L199.52,181.86L199.95,180.07L200.1,218.95L200.24,129.14L200.83,180.07L200.97,178.89L201.41,94.04L201.7,95.67L201.84,135.52L201.99,101.7L202.28,180.07L202.42,180.07L205.04,180.07L205.18,222.32L205.33,213.37L205.47,225.8L205.62,167.79L205.76,197.38L206.34,185.35L206.49,182.79L206.63,193.21L207.21,187.43L207.36,187.49L207.51,187.18L207.65,187.8L207.8,181.65L207.94,184.49L208.38,180.62L208.52,180.07L209.97,180.07L210.12,180.07L212.01,180.07L212.15,247.29L212.3,148.74L212.44,283.58L212.88,179.46L213.02,183.5L213.17,181.38L213.31,254.13L214.18,168.31L214.33,169L214.91,143.31L215.06,173.63L215.2,164.86L215.35,99.26L215.64,95.34L215.78,193.14L216.22,172.03L216.36,168.39L217.09,108.54L217.23,163.39L218.11,180.07L218.25,180.07L219.56,180.07L219.7,180.98L220.57,189.51L220.72,182.33L220.86,191.68L221.45,190.61L221.59,183.7L221.74,189.4L222.17,180.87L222.32,184.39L222.46,181.15L223.33,180.07L223.48,180.07L225.08,180.07L225.22,247.21L225.37,149L225.95,179.18L226.09,184.93L226.96,180.07L227.11,183.37L227.25,183.95L227.4,180.83L227.83,180.07L227.98,168.11L229.14,122.11L229.29,133.54L229.43,171.52L230.3,180.07L230.45,180.07L233.5,180.07L233.64,183.58L234.08,187.39L234.22,181.64L234.37,186.28L234.95,181.43L235.1,181.07L235.24,180.29L235.39,182.57L235.82,180.5L235.97,180.67L236.26,180.13L236.4,181L236.55,180.31L236.69,180.93L237.56,180.07L237.71,180.07L240.9,180.07L241.05,249.15L241.19,152.25L241.77,165.46L241.92,175.24L242.5,197.27L243.08,115.81L243.23,165.79L244.1,180.07L244.24,180.07L247.73,180.07L247.87,187.37L248.02,181.9L248.45,188.64L248.6,182.21L248.74,185.53L249.33,180.47L249.47,180.82L249.62,182.05L249.91,182.81L250.34,180.07L250.49,181.41L251.21,180.07L251.36,180.97L252.23,180.07L252.38,180.07L255.42,180.07L255.57,165.55L255.86,217.75L256.01,137.34L256.3,128.85L256.88,180.07L257.02,180.07L260.36,180.07L260.51,198.54L260.65,195.57L260.8,201.44L260.94,208.51L261.09,209.07L261.23,173.57L262.1,181.76L262.25,180.4L262.39,180.07L262.54,180.1L262.69,182.67L263.12,180.07L263.56,180.65L263.7,180.19L263.99,180.08L264.14,181.17L265.01,180.07L265.15,181.62L266.02,180.07L266.17,180.07L267.04,180.07L267.19,180.07L269.22,180.07L269.36,179.41L269.51,179.91L269.66,173.82L269.8,144.83L270.24,173.38L270.38,208.95L270.53,92.25L271.11,180.07L271.25,180.07L275.17,180.07L275.32,224.43L276.33,180.99L276.48,184.45L276.77,186.46L277.21,181.13L277.35,184.16L278.22,180.07L278.37,180.07L282.14,180.07L282.29,247.61L282.43,148.41L283.01,178.27L283.16,185.3L284.18,148.22L284.32,187.12L284.76,93.44L284.9,199.05L285.05,133.5L285.19,129.53L286.06,180.07L286.21,180.07L289.55,180.07L289.69,182.74L289.98,181.76L290.13,188.51L290.42,184.17L290.57,181.46L290.86,180.78L291,187.45L291.15,181.92L291.29,181.88L291.58,183.19L291.87,180.07L292.02,182.64L292.89,180.07L293.03,180.07L293.47,180.07L293.61,181.26L294.49,180.07L294.63,180.07L295.5,180.07L295.65,247.84L296.52,180.07L296.66,180.07L296.81,186.48L297.39,180.07L297.54,176.26L298.12,146.53L298.26,194.25L298.84,100.09L298.99,137.66L299.13,174.22L300,180.07L300.15,180.07L302.91,180.07L303.05,226.46L303.34,236.97L303.49,158.63L303.78,173.51L303.92,201.64L304.65,181.51L304.8,184.33L304.94,181.14L305.09,183.47L305.67,181.61L305.81,180.98L306.1,181.89L306.39,180.16L306.54,181.54L307.12,182.58L307.41,180.07L307.55,180.07L307.85,180.52L307.99,180.19L308.14,182.05L309.01,180.07L309.15,180.07L310.6,180.07L310.75,252.61L310.89,151.63L311.48,161.05L311.62,174.08L311.91,214.37L312.49,131.12L312.64,131.88L312.78,124.01L312.93,129.21L313.22,123.4L313.36,127.54L313.51,120.06L313.8,184.03L314.38,180.07L314.53,180.07L317.28,180.07L317.43,183L318.01,192.71L318.3,191.31L318.45,182.88L318.59,189.23L319.03,182.26L319.17,188.56L319.32,182.19L319.9,181.31L320.04,188.8L320.19,182.25L320.33,184.57L320.48,181.2L320.77,182.82L320.91,181.66L321.79,180.07L321.93,181.82L322.8,180.07L322.95,180.07L323.09,247.23L323.24,149.69L323.67,199.05L323.82,180.12L323.96,252.62L324.25,180.07L324.69,247.9L324.83,197.03L325.27,175.14L325.42,217.03L326.29,116.36L326.43,156.87L326.58,108.27L326.72,200.78L327.16,123.09L327.3,122.53L327.59,171.65L327.74,167.97L327.88,101.85L328.61,177.34L328.76,113.01L329.63,180.07L329.77,180.07L331.22,180.07L331.37,182.45L331.51,182.29L331.66,191.78L332.1,181.8L332.39,183.16L332.53,185.29L332.97,181.09L333.11,186.25L333.4,181.65L333.55,183.02L333.84,185.06L334.13,180.07L334.42,180.8L334.56,180.36L334.85,180.74L335.58,180.07L335.73,180.12L338.48,180.07L338.63,182.58L339.21,180.07L339.36,172.85L339.65,155.88L339.79,156.01L339.94,175.41L340.81,180.07L340.95,180.07L345.16,180.07L345.31,188.89L345.6,196.4L346.04,183.22L346.18,186.11L346.62,181.25L346.76,186.39L346.91,181.65L347.05,183.18L347.34,180.49L347.49,187.44L348.36,180.07L348.5,181.93L349.38,180.12L349.52,180.07L352.28,180.07L352.42,247.34L352.57,149.54L353.15,151L353.3,170.44L353.59,171.64L353.73,129.98L353.88,201.08L354.75,111.88L354.89,165.67L355.76,180.07L355.91,180.07L359.25,180.07L359.39,187.76L359.69,187.86L360.27,181.79L360.41,190.11L361.14,181.92L361.28,184.46L361.57,185.27L362.01,181.2L362.15,182.47L362.3,182.46L362.44,180.52L362.73,180.96L363.17,180.07L363.32,180.2L363.46,180.1L364.33,180.07L364.48,180.07L364.62,180.48L365.2,180.07L365.35,180.07L365.64,247.69L365.78,148.6L365.93,215.55L366.07,163.71L366.22,269.29L366.37,126.85L366.8,208.29L366.95,135.44L367.38,220.19L367.82,175.53L367.96,179.48L368.25,169.43L368.4,112.75L368.98,95.45L369.12,188.55L369.27,127.32L369.41,129.74L369.56,171.23L370.43,180.07L370.58,180.07L373.48,180.45L373.63,182.69L374.06,180.2L374.21,183.03L374.5,180.48L374.64,180.17L375.08,180.07L375.22,181.13L376.09,180.07L376.24,180.07L379,180.07L379.14,247.78L379.29,148.53L379.87,179.01L380.01,185.03L380.31,180.07L380.45,181.23L380.6,251.72L380.74,145.95L381.32,151.29L381.47,203.52L382.48,139.52L382.63,130.24L383.65,244.12L383.79,195.9L384.08,180.07L384.23,233.17L384.66,136.82L384.95,141.5L385.1,196.29L385.82,112.02L385.97,117.81L386.11,149.24L386.26,122.66L386.55,180.07L386.69,180.07L386.98,183.84L387.42,181.84L387.57,180.51L388.44,180.07L388.58,180.07L393.52,180.07L393.66,246.99L394.25,180.07L394.54,183.65L394.68,182.72L394.97,180.07L395.12,210.58L395.55,133.34L395.84,140.41L395.99,168.36L396.28,179.35L396.71,103.02L396.86,161.69L397.73,180.07L397.88,180.07L402.38,180.07L402.52,181.82L402.81,180.07L402.96,185L404.12,180.07L404.26,180.07L406.44,180.07L406.59,247.6L407.17,268.01L407.31,128.4L407.46,235.2L407.6,143.71L408.19,172.74L408.33,189.57L408.77,180.07L408.91,230.72L409.64,119.56L409.78,206.16L410.51,77.23L410.65,154.36L410.8,76.04L411.09,180.07L411.23,180.07L411.38,180.07L415.45,180.62L415.59,182.8L415.88,180.53L416.03,187.84L416.32,189.25L416.9,180.07L417.04,181.07L417.77,180.07L417.91,180.81L418.79,180.07L418.93,180.07L422.13,180.07L422.27,249.61L422.85,180.07L423.14,192.98L423.29,166.75L423.43,171.71L423.58,153.32L423.72,140.51L423.87,212.62L424.3,131.42L424.45,166.73L424.59,129.37L424.88,105.21L425.47,180.07L425.61,180.07L429.1,180.48L429.24,180.95L429.82,180.07L429.97,250.18L430.4,147.89L430.84,201.47L430.98,177.66L431.13,186.92L431.71,180.07L431.85,181.4L432,180.4" style="vector-effect: non-scaling-stroke; fill: none; stroke: rgb(0, 191, 255); stroke-opacity: 1; stroke-width: 2px; opacity: 1;"/></g><g class="points"/><g class="text"/></g><g class="trace scatter trace297668" style="stroke-miterlimit: 2; opacity: 0.5;"><g class="fills"/><g class="errorbars"/><g class="lines"><path class="js-line" d="M0,180.27L3.49,180.2L3.63,179.53L4.07,168L4.21,158.81L5.66,25.96L5.81,32.4L5.95,68.7L6.1,16.36L6.82,16.44L6.97,16.47L8.13,16.6L8.28,17.47L9,69.85L9.15,82.62L10.75,180.29L10.89,180.28L17.43,180.15L17.57,179.34L18.01,167.32L18.15,157.84L20.04,16.59L20.18,16.6L20.33,16.69L21.35,16.69L21.49,16.73L21.78,16.84L21.93,17.83L22.22,25.4L22.36,44.22L22.51,39.64L22.65,47.04L22.8,62.7L24.69,180.29L24.83,180.28L31.37,179.75L31.51,177.52L32.24,142.55L32.38,131.58L33.69,23.13L33.83,40.73L34.12,51.96L34.27,26.62L34.41,16.51L34.71,29.07L34.85,25.67L35,31.33L35.58,16.41L35.72,17.06L35.87,22.35L38.48,180.29L38.63,180.28L45.31,180.19L45.45,179.37L46.76,127.26L46.9,101.62L47.77,33.39L47.92,35.27L48.06,96.38L48.5,143.66L48.94,124.34L49.08,125.98L50.1,166.2L50.24,163.51L50.39,163.73L50.82,170.85L50.97,159.82L51.26,171.36L51.4,164.19L51.55,161.82L52.57,180.28L52.71,180.28L59.25,180.12L59.39,178.7L60.55,132.42L60.7,86.13L60.84,106.82L61.13,83.77L61.28,51.59L61.42,52.45L61.57,63.56L61.71,69.93L61.86,41.97L62,114.9L62.44,21.3L62.59,50.54L62.73,80.4L62.88,78.38L63.02,104.42L63.31,45.57L63.6,79.92L63.75,111.98L63.89,111.73L64.04,128.23L64.76,172.22L65.2,170.56L65.34,163.13L65.49,164.13L65.63,172.1L66.8,180.28L66.94,180.28L73.19,179.9L73.33,178.24L73.91,149.38L74.06,133.43L75.65,16.22L75.8,16.31L75.94,16.32L77.98,16.53L78.12,18.39L79.14,106.34L79.28,123.24L80.45,180.28L80.59,180.27L86.98,180.24L87.13,179.91L87.56,169.45L87.71,160.5L89.45,16.28L89.89,16.42L90.03,16.42L91.77,16.46L91.92,16.32L92.06,16.53L92.21,18.96L94.24,180.29L94.53,180.27L94.68,180.27L101.07,179.89L101.21,178.76L101.79,151.68L101.94,134.6L103.39,16.25L103.68,16.29L103.83,16.26L105.86,16.36L106,17.28L106.58,59.09L106.73,73.63L108.33,180.29L108.47,180.28L115.01,179.71L115.15,178.01L115.73,150.09L115.88,133.8L117.62,16.26L117.77,16.31L119.8,16.84L119.94,20.17L122.12,180.29L122.41,180.27L122.56,180.28L128.95,180.18L129.09,178.18L131.56,16.06L131.85,16.12L132,16.15L132.29,37.6L132.43,20.43L132.58,16.19L132.87,16.18L133.01,17.52L133.16,22.19L133.45,16.22L133.59,16.24L133.74,16.19L133.88,16.43L134.03,19.1L135.34,151.08L135.48,167.58L136.21,180.29L136.35,180.27L136.5,180.27L142.89,179.62L143.03,177.86L143.47,160.33L143.61,146.61L145.36,16.18L145.5,16.17L147.82,16.6L147.97,19.22L150.15,180.29L150.29,180.28L150.44,180.27L156.83,179.6L156.97,177.44L157.41,159.52L157.55,145.37L159.15,16.25L159.3,16.3L159.44,16.29L161.62,16.48L161.76,17.4L162.34,57.94L162.49,72.19L164.09,180.29L164.23,180.28L164.38,180.27L171.2,180.11L171.35,179.14L171.93,155.18L172.07,142.07L173.67,16.6L174.11,19.22L174.25,18.33L174.4,16.28L175.12,16.39L175.27,16.65L175.41,17.65L175.7,16.36L175.85,16.36L175.99,16.36L176.14,16.46L176.29,18.39L177.45,119.83L177.59,134.96L178.61,180.29L178.75,180.28L185.14,180.21L185.29,179.32L185.87,154.71L186.01,141.09L187.61,16.07L187.9,16.26L188.05,16.29L190.08,16.98L190.23,19.85L191.68,148L191.82,163.53L192.69,180.28L192.84,180.28L199.08,180.13L199.23,179.05L199.95,143.15L200.1,127.23L201.7,16.27L201.84,16.32L201.99,16.36L203.29,16.6L203.44,16.57L204.02,16.78L204.17,20.51L206.2,180.26L206.34,180.29L213.02,180.06L213.17,178.58L213.89,142.06L214.04,127.1L215.64,16.07L215.78,16.1L215.93,16.24L217.96,16.63L218.11,18.89L219.41,136.23L219.56,150.53L220.43,180.29L220.57,180.28L220.72,180.27L226.96,180.14L227.11,179.15L227.69,155.44L227.83,139.77L229.58,16.81L229.72,17.53L229.87,21.44L230.16,16.22L230.74,16.45L230.88,16.43L231.46,16.52L231.61,17.74L231.9,17.63L232.48,46.79L232.63,56.82L234.22,180.28L234.37,180.28L240.9,179.93L241.05,178.43L241.77,138.56L241.92,123.48L243.37,16.29L243.66,16.41L243.81,16.41L245.84,16.87L245.99,19.62L247.29,133.67L247.44,147.79L248.16,180.29L248.45,180.28L248.6,180.28L254.84,179.83L254.99,177.38L256.01,126.18L256.15,89.2L256.3,90.3L256.44,87.84L256.59,56.68L257.31,16L257.89,16.24L258.04,16.24L259.49,16.67L259.64,19.05L260.07,40.69L260.22,68.94L261.38,161.6L261.52,167.5L262.1,180.29L262.54,180.27L262.69,180.27L268.78,179.95L268.93,177.18L269.8,107.33L270.09,121.8L270.24,129.02L271.25,17.52L271.54,27.04L271.69,31.12L271.83,16.17L272.56,16.28L272.7,21.44L272.85,38.19L273.29,16.32L273.43,17.22L273.72,16.2L274.3,40.39L274.45,53.07L276.19,180.29L276.33,180.28L276.48,180.27L282.58,180.19L282.72,179.29L283.45,147.83L283.6,133.31L285.34,16.29L285.48,16.33L285.63,16.33L286.94,16.58L287.08,17.5L287.66,16.53L288.24,39.96L288.39,52.66L290.27,180.28L290.42,180.28L296.66,179.7L296.81,177.97L297.39,149.6L297.54,133.22L299.28,16.21L299.42,16.49L301.75,16.64L301.89,18.62L302.91,108.87L303.05,124.4L304.22,180.29L304.36,180.29L310.6,179.73L310.75,177.87L311.33,147.93L311.48,131.54L313.07,16.22L313.22,16.3L313.36,16.34L315.54,16.56L315.69,17.53L316.56,83.42L316.7,98.09L318.16,180.29L318.3,180.29L324.4,180.17L324.54,179.49L324.98,167.51L325.13,158.17L327.16,16.34L327.3,16.41L328.76,16.76L328.9,16.76L329.48,16.76L329.63,17.45L330.21,55.26L330.35,68.46L332.1,180.28L332.24,180.28L338.34,180.09L338.48,179.25L339.07,157.41L339.21,145.45L340.95,17.02L341.1,17.65L341.24,16.47L341.53,19.29L341.68,16.5L342.41,17.15L342.55,18.55L342.7,16.88L343.13,20.32L343.28,17.67L343.42,21.21L343.71,34.6L343.86,47.01L344,45L344.15,66.49L344.58,93.87L344.73,109.09L346.04,180.29L346.18,180.28L352.28,180.21L352.42,179.5L352.86,169.84L353.01,158.44L354.75,16.24L354.89,16.27L356.2,16.26L356.35,16.36L357.51,16.92L357.65,20.38L360.12,180.28L360.27,180.27L366.22,180.21L366.37,179.41L366.8,150.17L366.95,136.07L368.69,16.14L368.83,16.17L368.98,16.2L371.45,16.55L371.59,18.61L372.61,108.14L372.75,123.75L373.92,180.29L374.06,180.28L380.31,179.63L380.45,176.92L381.32,129.23L381.47,160.13L381.61,155.97L381.76,115.37L382.19,55.09L382.63,55.46L382.77,135.87L383.35,132.54L383.65,166.42L383.79,152.74L383.94,152.52L384.08,161.57L384.37,85.92L384.66,139.47L384.81,142.35L385.24,97.92L385.39,33.57L385.82,19.49L386.26,68.45L386.4,115.92L387.28,180.06L387.42,180.23L389.89,180.28L390.03,180.28L394.25,180.21L394.39,179.38L394.83,160.94L394.97,136.51L395.41,147.41L395.99,77.71L396.13,81.43L396.28,103.61L396.42,52.4L396.57,31.28L396.86,40.04L397,16.27L397.15,16.48L397.29,25.57L397.59,17.2L398.46,146.63L398.6,130.71L398.89,19.44L399.33,98.21L399.47,131.43L399.91,23.54L400.2,95.42L400.34,124.25L400.63,102.37L400.93,143.89L401.07,161.65L401.65,180.29L401.94,180.27L402.09,180.27L408.04,179.66L408.19,177.21L408.91,136.3L409.06,117.26L410.36,16.25L410.51,16.26L410.65,16.36L412.54,16.42L412.69,17.16L413.41,34.32L413.56,33.43L413.7,59.95L413.85,46.06L413.99,64.3L414.14,95.04L415.59,180.28L415.74,180.28L422.13,180.08L422.27,179.23L423,142.66L423.14,133.87L423.72,64.97L424.01,93.56L424.16,92.14L424.74,59.49L424.88,37.22L425.18,28.23L425.32,52.62L426.34,123.23L426.48,123.33L426.92,132.1L427.06,116.64L427.35,119.11L427.64,104.07L427.79,109.82L427.93,114.73L428.08,76.35L428.37,148.45L428.51,160.91L429.53,180.27L429.68,180.27L432,180.27" style="vector-effect: non-scaling-stroke; fill: none; stroke: rgb(255, 0, 0); stroke-opacity: 1; stroke-width: 2px; opacity: 1;"/></g><g class="points"/><g class="text"/></g><g class="trace scatter traceef3450" style="stroke-miterlimit: 2; opacity: 0.5;"><g class="fills"/><g class="errorbars"/><g class="lines"><path class="js-line" d="M0,204.23L0.73,205.5L0.87,204.07L1.02,204.69L1.16,203.92L1.45,203.92L1.6,203.84L2.03,205.36L2.18,203.59L2.32,204.52L2.9,203.9L3.05,203.93L3.34,204.06L3.49,203.85L3.63,272.25L4.07,152.98L4.65,160.16L4.79,175.87L5.52,114.13L5.66,143.17L5.81,117.99L6.24,101.49L6.39,140.53L6.53,100.98L6.97,148.82L7.26,145.33L7.41,111.43L7.7,110.89L8.42,198.86L8.57,135.19L9.58,205.3L9.73,205.29L10.16,288.04L10.31,158.65L10.46,250.98L10.6,164.77L10.75,234.83L11.33,205.35L11.47,205.11L11.76,206.66L12.05,204.69L12.34,205.77L12.49,205.87L13.36,204.01L13.5,204.71L13.94,205L14.09,203.95L14.23,204.69L14.38,204.28L14.52,204.62L15.1,204.35L15.25,204.35L17.43,203.68L17.57,202.38L17.72,199.86L17.86,267.25L18.88,157.44L19.02,146.56L19.17,145.16L19.31,133.7L19.46,139.99L19.6,122.93L19.75,132.79L19.89,182.09L20.18,105.47L20.77,107.6L20.91,134.49L21.49,140.14L21.64,111.23L21.78,148.94L22.07,94.76L22.51,112.74L22.65,120.69L23.09,228.41L23.38,206.93L23.52,169.05L23.96,219.91L24.4,207.1L24.54,209.76L25.12,206.31L25.41,206.33L25.56,205.44L25.7,203.63L25.85,205.76L26.28,203.95L26.43,205.92L27.3,204.31L27.44,205.03L27.74,184.91L27.88,203.68L28.03,204.36L28.17,273.62L28.32,154.1L28.75,219.21L28.9,186.08L29.62,204.23L29.77,203.84L29.91,204.24L30.49,203.75L30.64,272.46L31.51,200.61L31.66,196.92L32.38,168.06L32.53,231.74L33.54,88.87L33.69,150.8L33.98,161.49L34.56,59.88L34.71,137.35L35,157.78L35.14,82.76L35.58,62.64L35.87,72.04L36.01,88.12L36.16,83.68L36.3,95.92L36.45,122.07L36.59,113.95L36.74,127.29L36.88,122.51L37.03,132.18L38.05,210.91L38.48,204.94L38.63,205.98L38.92,204.45L39.06,205.96L39.21,206.31L39.35,205.49L39.5,204.45L39.79,204.3L39.93,205.69L40.22,205.39L40.37,204.31L40.95,205.76L41.24,204.94L41.38,204.17L41.82,205.68L41.97,205.22L42.11,203.86L42.4,205.24L42.84,204.6L42.98,204.22L44,204.02L44.14,203.71L44.87,204.13L45.02,203.66L45.16,203.99L45.45,202.8L45.6,197.76L45.74,187.28L46.32,198.7L46.47,191.97L46.61,259.16L46.76,144.05L47.05,213.04L47.19,143.83L47.34,184.33L47.63,92.85L47.77,82.56L47.92,86.9L48.06,144.77L49.08,236.64L49.23,152.68L49.95,276.32L50.1,223.3L50.24,205.91L50.68,210.07L50.82,208.45L50.97,202.14L51.11,206.16L51.4,203.32L51.55,196.01L51.69,195.72L51.84,205.6L52.13,206.5L52.28,204.08L52.57,205.59L52.71,204.81L53.15,205.44L53.29,204.13L53.44,205.09L54.31,204.12L54.45,204.06L55.03,204.64L55.18,203.96L56.05,204.48L56.2,203.99L56.63,204.97L57.07,204.17L57.21,204L57.94,204.35L58.08,204.15L58.81,203.96L58.96,272.8L59.1,153.92L59.68,178.46L59.83,198.47L60.84,148.15L60.99,167.96L61.42,110L61.71,112.33L61.86,174.57L62.15,214.11L62.44,33.64L62.73,107.32L62.88,174.41L63.02,203.16L63.17,117.87L63.31,74.22L63.46,74.8L63.6,108.75L64.18,233.6L64.47,197.97L64.62,182.33L64.91,199.81L65.34,190.21L65.49,191.74L65.93,206.15L66.36,204.04L66.51,204.38L66.65,203.97L67.23,204.33L67.38,204.45L68.68,204.35L68.83,204.39L69.7,204.5L69.85,203.87L69.99,204.49L70.57,204.07L70.72,203.24L71.44,203.76L71.59,203.37L71.73,203.8L72.31,203.28L72.46,203.49L73.33,201.42L73.48,197.06L73.62,261.08L73.77,148.88L74.2,186.88L74.35,141.44L74.49,234.15L74.93,125.92L75.07,133.51L75.22,108.96L75.8,132.73L76.24,43.68L76.38,43.75L76.53,43.45L76.96,45.24L77.25,44.07L77.4,43.99L77.54,45.69L77.83,44.75L77.98,112.47L78.12,133.42L78.41,66.51L78.56,78.06L80.01,205.58L80.45,204.32L80.59,205.17L80.74,204.44L80.88,204.97L81.03,273.09L81.46,204.29L81.9,204.91L82.04,204.6L82.91,204.62L83.06,204.36L83.21,204.7L83.64,203.9L83.79,204.13L84.8,204.29L84.95,203.62L85.09,203.02L85.53,203.8L85.67,203.24L85.82,203.46L86.55,203.51L86.69,272.13L86.84,153.83L87.42,183.09L87.56,199.38L88,176.04L88.14,168.5L89.16,129L89.3,146.33L89.45,150.75L89.59,83.22L90.32,63.35L90.47,123.63L90.61,141.59L90.76,74.27L90.9,56.7L91.05,56.06L91.19,60.33L92.21,65.02L92.35,75.12L93.81,205.26L93.95,274.94L94.24,204.21L94.82,204.24L94.97,206.1L95.26,212.03L95.55,211.91L95.69,207.3L96.13,211.91L96.27,206.49L96.42,206.45L97.15,203.81L97.29,203.92L97.44,203.66L98.31,203.77L98.45,203.56L98.74,203.31L98.89,203.69L99.18,203.35L99.32,202.95L100.19,203.45L100.34,203.17L100.92,203.03L101.07,202.46L101.36,152.26L101.79,280.16L101.94,188.29L103.1,106.19L103.24,128.88L103.39,63.27L103.83,44.98L104.26,47.06L104.41,119.45L104.55,133.2L104.7,68.03L104.84,47.76L105.42,56.38L105.57,53.51L105.71,57.97L105.86,126.99L106,148.11L106.29,96.82L106.44,85.1L108.04,206.78L108.33,205.47L108.47,204.73L108.62,205.51L108.76,204.05L109.2,205.09L109.34,204.05L109.63,204.56L110.07,204.07L110.21,203.83L110.5,204.62L110.94,204.05L111.09,204.04L111.52,204.4L111.81,204.05L111.96,203.71L112.39,204.12L112.68,203.52L112.83,203.56L112.97,203.42L113.12,203.78L113.26,272.19L113.84,202.59L114.14,203.69L114.28,203.12L114.86,203.27L115.01,202.56L115.44,194.65L115.59,197.16L115.73,186.37L117.33,55.18L117.47,124.98L117.62,141.52L117.77,73.2L117.91,57.26L118.06,124.55L118.2,135.96L118.35,137.26L118.49,66.19L118.78,48.49L119.36,52.26L119.51,53.55L120.52,104.32L120.67,117.33L121.98,207.72L122.12,205.87L122.7,204.03L122.99,204.94L123.14,205.5L123.57,273.05L123.86,204.58L124.01,204.71L125.46,205L125.61,204.89L127.49,204.95L127.64,204.76L127.93,204.83L128.08,204.05L128.51,204.68L128.66,272.83L128.8,153.92L129.38,176.69L129.53,195.56L129.67,188.41L129.82,246.08L130.83,105.88L130.98,148.37L132,49.11L132.14,54.46L132.29,71.42L132.72,48.77L132.87,55.05L133.01,54.84L133.88,154.55L134.03,72.82L134.17,69.2L134.32,77.71L134.46,93.5L134.75,203.66L135.34,180.7L135.48,199.07L135.77,206.11L136.35,204.91L136.5,205.6L136.93,207.72L137.08,210.98L137.51,204.22L137.95,204.87L138.09,204.96L138.39,205.38L138.97,204.56L139.11,204.71L139.26,205.06L140.56,205.66L140.71,205.03L141.43,205.23L141.58,205.15L141.73,204.88L141.87,205.12L142.02,273.1L142.16,153.98L142.74,184.09L142.89,204.56L144.63,131.16L144.77,78.49L145.36,55.26L145.65,55.39L145.79,124.25L146.52,51.48L146.66,53.27L146.81,54.7L147.68,71.16L147.82,67.18L147.97,67.87L148.99,152.3L149.13,163.43L149.71,274.2L149.86,224.85L150,203.83L150.87,209.39L151.02,205.41L151.16,203.86L151.6,205.51L151.74,204.77L151.89,204.22L152.33,204.23L152.47,203.88L152.62,203.85L153.34,203.84L153.49,204.18L153.63,204.23L155.96,203.32L156.1,203.56L156.83,202.38L156.97,199.87L157.55,175.71L157.7,169.62L159.15,44.41L159.59,49.78L159.73,50.09L160.02,51.79L160.17,117.85L160.46,55.45L160.75,127.76L160.89,145.75L161.47,60.35L161.62,134.23L161.76,150.91L161.91,155.89L162.05,92.35L162.34,102.54L162.49,118.42L163.65,208.79L164.09,205.87L164.23,205.94L165.83,204.1L165.98,204.67L166.7,203.88L166.85,204.08L166.99,203.9L168.15,204.55L168.3,199.36L168.59,180.07L168.73,248.76L168.88,153.87L169.46,199.36L169.61,202.11L170.04,203.77L170.33,203.65L170.48,203.26L170.62,203.81L171.2,203.35L171.35,201.95L171.49,268.07L171.93,181.11L172.07,176.6L173.24,67.16L173.38,72.17L173.53,45.34L173.67,43.84L173.96,47.47L174.11,49.71L174.54,58.92L174.83,52.94L174.98,119.24L175.12,140.96L175.27,72.76L175.41,57.62L175.56,52.08L175.85,58.93L175.99,56.86L176.14,58.74L176.29,58.27L176.43,71.76L176.58,72.24L176.72,91.17L177.16,126.48L177.3,142.48L178.32,206.62L178.61,206.01L178.75,206.1L179.04,205.52L179.19,203.8L179.62,206.35L179.92,205.53L180.06,204.47L180.5,205.52L180.64,204.11L180.79,204.8L180.93,204.33L181.22,204.08L181.8,204.54L181.95,204.57L183.11,204.32L183.26,272.77L183.4,154L183.98,184.88L184.13,204.18L184.27,200.1L184.85,203.37L185,203.22L185.29,207.35L185.43,278.64L185.87,150.86L186.45,158.31L186.59,169.73L187.61,119.98L187.76,130.5L188.19,150.62L188.48,60.37L188.63,66.09L188.77,61.71L188.92,60.85L189.06,70.15L189.35,66.78L189.93,76.91L190.08,68.3L192.55,211.84L192.69,208.4L192.84,212.13L193.27,207.08L193.42,209.62L193.57,206.76L193.71,277.95L194.29,207.32L194.44,208.52L194.73,208.6L195.16,204.5L195.45,205.02L195.6,205.51L195.74,204.18L196.47,204.3L196.61,204.4L197.34,203.83L197.49,272.94L197.63,153.97L198.21,184.75L198.36,204.48L198.5,200.01L199.08,204.29L199.23,206.37L199.52,206.91L199.66,202.57L199.81,194.76L199.95,249.64L200.1,143.85L200.68,200.45L200.83,189.42L201.55,93.03L201.7,138.16L202.28,66.61L202.42,133.1L202.57,145.84L202.86,68.31L203.29,150.94L203.44,158.75L203.73,72.25L204.31,88.85L204.46,105.3L204.6,107.37L204.75,139.9L205.33,253.23L205.47,170.62L205.62,215.37L206.34,207.49L206.49,213.26L206.63,210.72L206.78,218.67L207.21,211.75L207.36,213.5L207.65,211.38L207.8,210.34L208.67,205.47L208.81,204.17L209.1,205.63L209.54,204.39L209.68,204.88L210.26,205.2L210.41,204.16L210.55,204.76L210.7,203.62L211.43,203.82L211.57,203.76L211.86,204.29L212.01,272.28L212.15,153.94L212.3,304L212.73,184.55L212.88,204.42L213.02,201.33L213.17,278.28L214.18,174.21L214.33,165.1L214.48,164.88L214.62,154.49L214.77,150.97L214.91,206.59L215.49,97.51L215.64,210.23L216.36,108.53L216.51,152.15L216.8,152.69L216.94,108.61L217.09,147.08L217.23,172.71L217.38,171.17L217.52,171.71L217.67,110.33L217.82,78.51L218.4,99.36L218.54,112.45L219.99,214.41L220.43,213.14L220.57,208.63L221.01,217.02L221.15,208.12L221.3,214.81L221.45,208.7L221.59,216.27L222.03,206.56L222.17,209.01L222.32,206.78L222.46,208.58L222.75,204.34L222.9,204.45L223.19,204.85L223.62,204.18L223.77,204.77L224.64,203.94L224.79,203.99L224.93,203.73L225.08,273.08L225.22,153.98L225.8,184.1L225.95,205.08L226.09,199.71L226.67,204.01L226.82,203.49L227.25,209.08L227.4,207.71L227.54,202.58L230.01,61.03L230.16,61.82L230.3,128.47L230.59,64.13L230.88,135.8L231.03,151.4L231.17,157.48L231.32,152.01L231.46,87.57L231.76,72.8L232.05,86.49L232.19,91.16L232.63,109.85L232.77,129.9L233.93,211.43L234.08,210.46L234.22,211.68L234.37,207.59L234.51,211.08L234.66,207.6L234.95,208.67L235.1,206.3L235.24,206.42L235.39,205.84L235.53,205.39L235.82,206.82L236.26,205.71L236.4,205.73L236.84,206.01L237.13,204.3L237.27,205.59L238.14,204.62L238.29,205.05L239.02,204.32L239.16,204.49L239.31,204.32L240.18,204.52L240.32,204.06L240.76,204.3L240.9,272.99L241.05,155.13L241.63,179.36L241.77,191.11L242.21,151.08L242.36,226.36L243.23,74.54L243.37,126.56L243.52,138.87L244.1,57.36L244.24,130.32L244.39,149.13L244.53,148.9L244.68,76.34L244.97,63.77L245.41,77.52L245.55,72.78L246.13,86.18L246.28,98.83L247.29,176.79L247.44,193.22L247.58,194.63L247.73,207.28L248.02,207.88L248.6,204.1L248.74,206.37L249.18,207.96L249.47,206.44L249.62,206.15L249.76,204.84L250.34,205.76L250.49,206.1L250.63,206.17L250.78,204.09L251.36,205.7L251.65,205.51L251.79,204.39L251.94,205.2L252.38,204.22L252.52,204.7L252.67,204.18L253.25,204.99L253.54,204.65L253.68,203.87L254.55,205.01L254.7,204.07L254.99,204.84L255.13,199.24L255.57,174.84L255.71,228.37L256.73,75.92L256.88,85.36L257.31,47.71L257.75,53.91L257.89,53.8L258.33,54.83L258.47,52.02L258.62,59.36L258.76,52.3L259.2,65.91L259.35,63.88L259.49,58.51L259.78,60.91L259.93,72.86L260.22,114.1L260.36,213.23L260.51,213.03L260.65,227.06L260.8,224.43L260.94,231.47L261.09,169.54L261.96,206.51L262.1,207.08L262.39,204.63L262.98,205.25L263.12,204.98L263.41,206.1L263.7,204.07L263.85,205.46L263.99,204.48L264.14,205.62L264.28,204.41L264.57,204.41L264.72,203.83L265.44,205.64L265.59,204.73L265.73,204.68L266.02,204.26L266.32,205.71L266.46,204.87L266.61,204.04L266.75,205.14L267.19,203.73L267.33,204.31L267.48,204.18L268.78,204.88L268.93,204.05L269.95,160.78L270.09,176.04L270.24,235.19L270.67,121.38L270.82,174.55L270.96,89.61L271.11,47.21L271.83,50.73L271.98,53.45L272.12,53.06L272.27,53.67L272.41,55.92L272.56,53.83L272.7,60.75L272.85,77.39L273.29,58.92L273.72,60.37L273.87,132.66L274.01,145.6L274.16,93.65L274.3,80.53L275.17,238.91L275.46,186.37L275.61,200.24L276.19,209.71L276.48,206.53L276.63,208.99L277.5,204.28L277.64,204.93L277.93,205.53L278.22,204.25L278.37,205.16L278.51,204.19L278.95,203.9L279.38,205.54L279.53,204.9L281.13,204.11L281.27,204.53L282,203.98L282.14,272.53L282.29,153.92L282.87,185.54L283.01,210.17L284.03,156.07L284.18,216.9L284.61,102.64L284.76,225.34L284.9,131.55L285.05,135.88L285.48,147.85L286.06,60.5L286.21,62.03L286.35,59.11L286.5,57.67L286.64,61.48L286.79,60.23L286.94,64.12L287.08,61.91L287.23,66.68L287.37,72.48L287.52,69.95L287.66,136.37L288.1,165.56L288.24,103.67L288.39,102.04L288.53,116.51L289.98,211.76L290.13,206.18L290.27,205.67L290.57,209.72L290.86,206.11L291,206.01L291.15,204.71L291.73,205.23L291.87,205.22L292.02,205.7L292.16,204.97L292.31,205.51L292.45,203.68L292.6,205.36L293.18,204.33L293.32,204.52L294.2,205.78L294.34,205.19L295.07,204.38L295.21,205.07L295.36,204.31L295.5,273.28L296.37,204.23L296.52,204.72L296.95,210.42L297.1,205.78L297.68,170.23L297.83,162.86L297.97,155.51L298.12,221.57L299.28,70.08L299.42,77.41L299.71,63.88L300.15,77.06L300.29,75.6L300.58,70.21L300.73,75.94L300.88,67.69L301.46,75.97L301.6,74.99L302.18,98.61L302.33,111.41L302.76,143.51L302.91,237.44L303.2,254.75L303.34,154.52L303.63,180.76L303.78,220.92L303.92,193.72L304.51,207.07L304.65,210.38L304.8,206.66L305.52,207.38L305.67,207.38L306.68,204.32L306.97,204.69L307.12,205.54L307.26,203.5L307.7,205.73L307.85,205.51L307.99,204.78L308.14,205.55L308.28,203.95L308.72,204.98L308.86,204.13L309.44,204.98L309.73,204.78L309.88,204.25L310.02,204.76L310.46,204.61L310.6,273.79L310.75,155.63L311.33,175.95L311.48,190.73L311.77,240.04L312.35,138.21L312.49,139.96L313.36,123.56L313.51,197.19L314.23,81.02L314.53,81.69L314.67,79.61L314.96,172.17L315.54,160.22L315.69,174.09L315.98,109.26L316.41,135.66L316.56,148.93L317.72,214.65L317.86,214.35L318.01,209.03L318.45,216.46L318.59,207.98L318.74,214.28L318.88,207.22L319.32,211.75L319.61,210.72L319.75,206.72L319.9,210.17L320.33,206.69L320.48,209.02L320.62,207.23L320.77,209.55L321.06,206.4L321.2,204.37L321.64,204.14L321.93,205.7L322.08,204.39L322.37,205.35L322.66,204.8L322.8,204.02L322.95,273.47L323.09,154.15L323.53,219.41L323.67,185.61L324.54,272.88L324.69,222.16L325.27,245.21L325.85,137.54L326,158.9L326.43,116.25L326.58,222.58L327.01,116.11L327.3,122.66L327.45,193.65L327.74,107.49L328.03,171.38L328.17,169.85L328.47,174.61L328.61,106.38L329.19,88.28L329.48,174.93L329.63,174.33L329.92,107.57L330.35,144.6L330.5,147.24L332.1,212.15L332.24,207.42L332.39,210.9L332.82,207.35L332.97,209.61L333.11,206.57L333.26,207.42L333.55,206.81L333.69,205.14L333.98,204.69L334.27,206.05L334.42,205.91L334.56,205.47L334.71,204.34L335,206.29L335.29,204.76L335.44,205.1L335.73,205.84L335.87,205.51L336.02,204.49L336.16,205.59L336.31,204.41L336.74,204.44L336.89,204.66L337.32,204.02L337.47,205L337.61,204.12L337.76,204.83L337.9,203.85L338.48,204.79L338.63,206.71L338.78,207.55L338.92,202.88L340.08,105.66L340.23,166.57L340.37,180.08L340.52,105.12L340.95,74.64L341.39,77.4L341.53,74.26L341.68,71.51L341.82,77.82L341.97,144.48L342.26,166.32L342.41,98.02L342.55,77.43L343.13,85.42L343.28,92.06L343.86,120.58L344,117.28L344.15,135.88L344.58,160.8L344.73,174.25L345.75,220.04L345.89,208.24L346.04,213.7L346.47,206.39L346.62,208.2L346.76,206.8L346.91,208.75L347.34,205.76L347.49,205.59L347.63,202.58L347.78,206.8L348.21,204.97L348.36,205.56L348.65,203.89L348.94,204.67L349.09,206.29L349.23,207.13L349.52,204.66L349.67,205.04L349.96,204.49L350.1,205.51L350.54,204.12L350.83,204.32L350.97,204.77L351.84,204.11L351.99,204.78L352.13,204.08L352.28,273.09L352.42,154.13L353.01,168.29L353.15,204.13L353.73,232.85L354.02,134.16L354.17,133.02L355.04,64.37L355.62,69.15L355.76,140.14L356.06,158.58L356.2,89.15L356.35,71.83L356.93,83.02L357.07,81.81L357.22,83.48L357.36,81.9L357.51,70.35L359.54,213.93L359.98,208.75L360.12,211.49L360.7,207.47L360.85,210.05L361.43,210.22L361.57,207.05L361.72,210.12L362.59,205.59L362.73,205.66L363.17,204.46L363.46,204.62L363.61,205.48L364.33,203.98L364.48,204.88L364.62,205.51L364.77,204.17L365.2,204.88L365.35,204.52L365.64,153.98L366.07,289.41L366.22,132.73L366.37,257.27L366.95,207.8L367.09,152.28L367.24,248.9L367.53,151.33L367.82,183.31L367.96,180.08L368.11,176.3L368.25,107.38L368.83,98.77L368.98,205.44L369.12,133.98L369.41,110.08L369.56,63.65L370,54.14L370.29,64.24L370.43,69.03L371.01,63.06L371.16,71.43L371.3,67.72L371.59,72.21L371.74,77.09L373.77,207.48L373.92,205.51L374.06,204.93L374.35,203.6L374.5,205.52L374.64,204.17L374.79,204.71L374.93,204.05L375.22,205.86L375.37,205.61L375.51,205.49L375.66,204.17L376.53,205.24L376.67,204.45L376.97,204.39L377.11,205.51L377.4,205.35L377.55,204.28L378.13,204.69L378.27,203.97L378.71,205.15L378.85,204.63L379,273.08L379.14,153.98L379.72,184.29L379.87,205.22L380.01,199.63L380.31,204.94L380.45,275.42L380.6,154.98L381.18,170.38L381.32,199.14L381.47,180.68L381.76,234.34L381.9,198.51L382.05,202.47L382.19,133.13L382.77,175.15L382.92,205.15L383.06,203.58L383.21,186.98L383.35,182.24L383.5,263.9L384.52,122.61L384.66,214.79L385.39,117.21L385.53,128.14L385.68,119.13L385.97,120.25L386.11,126.17L386.98,205.83L387.13,204.2L387.28,204.56L387.42,205.55L387.57,203.95L388,204.88L388.15,204.51L388.44,205.1L388.58,204.32L388.73,205.12L388.87,205.46L389.02,203.93L389.16,204.05L389.45,204.65L389.89,204.17L390.03,204.23L390.32,204.48L390.76,203.93L390.91,204.38L391.78,203.82L391.92,203.83L393.37,203.59L393.52,272.65L393.95,203.48L394.39,207.46L394.54,210.15L394.83,200.87L394.97,248.9L395.12,146.14L395.7,154.27L395.84,190.84L396.57,100.84L396.71,149.23L397,51.9L397.29,127.07L397.44,179.66L397.88,77.61L398.17,111.86L398.31,185.88L398.46,195.96L398.6,179.91L398.75,102.23L398.89,73.84L399.18,99.2L399.33,140.81L399.47,168.61L399.62,137.84L399.76,74.42L399.91,65.71L400.05,85L400.2,133.3L401.22,202.18L401.36,205.33L401.8,206.1L401.94,205.54L402.09,204.25L402.67,203.6L403.1,211.17L403.39,210.01L403.54,207.17L403.68,203.68L404.26,204.13L404.41,204.33L404.85,205.14L404.99,204.24L405.72,204.34L405.86,204.05L406.3,204.23L406.44,272.59L407.02,288.93L407.17,133.18L407.31,256.04L407.46,148.92L408.04,179.11L408.19,209.46L408.33,193.86L408.62,194.9L408.77,258.66L409.49,123.32L409.64,232.05L410.65,77.17L410.8,154.58L411.09,49.68L411.67,58.82L411.82,64.01L412.11,62.94L412.25,125.51L412.4,141.91L412.54,74.85L412.69,58.52L412.98,64.09L413.12,131.66L413.27,159.98L413.56,100.02L413.7,117.7L413.85,111.96L414.28,152.79L414.43,190.05L414.72,175.9L415.01,198.3L415.16,197.02L416.17,213.82L416.32,206.9L416.46,207.24L416.61,204.78L416.9,205.66L417.04,205.51L417.19,203.84L417.91,205.75L418.06,204.88L418.21,204.26L418.5,204.16L418.93,205.31L419.08,204.27L419.37,205.55L419.8,204.09L419.95,204.7L420.67,203.71L420.82,203.87L420.96,203.78L421.25,204.99L421.4,203.66L421.84,204.39L421.98,203.6L422.13,273.38L422.85,266.2L423,216.99L423.58,162.21L423.72,219.15L423.87,184.79L424.01,219.59L424.16,137.49L424.3,182.5L424.45,132.51L424.59,166.92L425.03,95.72L425.18,69.83L426.34,165.98L426.48,175.19L427.64,132.56L427.93,142.27L428.08,106.87L429.1,206.11L429.24,206.01L429.39,204.9L429.53,205.28L429.68,204.39L429.82,274.28L430.26,153.97L430.69,222.11L430.84,184.15L430.98,206.49L431.71,205.72L431.85,205.51L432,203.82" style="vector-effect: non-scaling-stroke; fill: none; stroke: rgb(0, 128, 0); stroke-opacity: 1; stroke-width: 2px; opacity: 1;"/></g><g class="points"/><g class="text"/></g></g></g><g class="overplot"/><path class="xlines-above crisp" d="M0,0" style="fill: none;"/><path class="ylines-above crisp" d="M0,0" style="fill: none;"/><g class="overlines-above"/><g class="xaxislayer-above"><g class="xtick"><text text-anchor="middle" x="0" y="433" transform="translate(149.7,0)" style="font-family: 'Open Sans', verdana, arial, sans-serif; font-size: 12px; fill: rgb(42, 63, 95); fill-opacity: 1; white-space: pre; opacity: 1;"><tspan class="line" dy="0em" x="0" y="433">Mar 6</tspan><tspan class="line" dy="1.3em" x="0" y="433">2022</tspan></text></g><g class="xtick"><text text-anchor="middle" x="0" y="433" style="font-family: 'Open Sans', verdana, arial, sans-serif; font-size: 12px; fill: rgb(42, 63, 95); fill-opacity: 1; white-space: pre; opacity: 1;" transform="translate(247.28,0)">Mar 13</text></g><g class="xtick"><text text-anchor="middle" x="0" y="433" style="font-family: 'Open Sans', verdana, arial, sans-serif; font-size: 12px; fill: rgb(42, 63, 95); fill-opacity: 1; white-space: pre; opacity: 1;" transform="translate(344.86,0)">Mar 20</text></g><g class="xtick"><text text-anchor="middle" x="0" y="433" style="font-family: 'Open Sans', verdana, arial, sans-serif; font-size: 12px; fill: rgb(42, 63, 95); fill-opacity: 1; white-space: pre; opacity: 1;" transform="translate(442.44,0)">Mar 27</text></g></g><g class="yaxislayer-above"><g class="ytick"><text text-anchor="end" x="79" y="4.199999999999999" transform="translate(0,365.93)" style="font-family: 'Open Sans', verdana, arial, sans-serif; font-size: 12px; fill: rgb(42, 63, 95); fill-opacity: 1; white-space: pre; opacity: 1;">−50</text></g><g class="ytick"><text text-anchor="end" x="79" y="4.199999999999999" style="font-family: 'Open Sans', verdana, arial, sans-serif; font-size: 12px; fill: rgb(42, 63, 95); fill-opacity: 1; white-space: pre; opacity: 1;" transform="translate(0,280.07)">0</text></g><g class="ytick"><text text-anchor="end" x="79" y="4.199999999999999" style="font-family: 'Open Sans', verdana, arial, sans-serif; font-size: 12px; fill: rgb(42, 63, 95); fill-opacity: 1; white-space: pre; opacity: 1;" transform="translate(0,194.22)">50</text></g><g class="ytick"><text text-anchor="end" x="79" y="4.199999999999999" style="font-family: 'Open Sans', verdana, arial, sans-serif; font-size: 12px; fill: rgb(42, 63, 95); fill-opacity: 1; white-space: pre; opacity: 1;" transform="translate(0,108.36)">100</text></g></g><g class="overaxes-above"/></g></g><g class="polarlayer"/><g class="smithlayer"/><g class="ternarylayer"/><g class="geolayer"/><g class="funnelarealayer"/><g class="pielayer"/><g class="iciclelayer"/><g class="treemaplayer"/><g class="sunburstlayer"/><g class="glimages"/><defs id="topdefs-7b8abf"><g class="clips"/><clipPath id="legend7b8abf"><rect width="167" height="67" x="0" y="0"/></clipPath></defs><g class="layer-above"><g class="imagelayer"/><g class="shapelayer"/></g><g class="infolayer"><g class="legend" pointer-events="all" transform="translate(520.64,100)"><rect class="bg" shape-rendering="crispEdges" width="167" height="67" x="0" y="0" style="stroke: rgb(68, 68, 68); stroke-opacity: 1; fill: rgb(255, 255, 255); fill-opacity: 1; stroke-width: 0px;"/><g class="scrollbox" transform="" clip-path="url(#legend7b8abf)"><g class="groups"><g class="traces" transform="translate(0,14.5)" style="opacity: 1;"><text class="legendtext" text-anchor="start" x="40" y="4.680000000000001" style="font-family: 'Open Sans', verdana, arial, sans-serif; font-size: 12px; fill: rgb(42, 63, 95); fill-opacity: 1; white-space: pre;">BESS</text><g class="layers" style="opacity: 0.5;"><g class="legendfill"/><g class="legendlines"><path class="js-line" d="M5,0h30" style="fill: none; stroke: rgb(0, 191, 255); stroke-opacity: 1; stroke-width: 2px;"/></g><g class="legendsymbols"><g class="legendpoints"/></g></g><rect class="legendtoggle" x="0" y="-9.5" width="161.890625" height="19" style="fill: rgb(0, 0, 0); fill-opacity: 0;"/></g><g class="traces" transform="translate(0,33.5)" style="opacity: 1;"><text class="legendtext" text-anchor="start" x="40" y="4.680000000000001" style="font-family: 'Open Sans', verdana, arial, sans-serif; font-size: 12px; fill: rgb(42, 63, 95); fill-opacity: 1; white-space: pre;">Solar</text><g class="layers" style="opacity: 0.5;"><g class="legendfill"/><g class="legendlines"><path class="js-line" d="M5,0h30" style="fill: none; stroke: rgb(255, 0, 0); stroke-opacity: 1; stroke-width: 2px;"/></g><g class="legendsymbols"><g class="legendpoints"/></g></g><rect class="legendtoggle" x="0" y="-9.5" width="161.890625" height="19" style="fill: rgb(0, 0, 0); fill-opacity: 0;"/></g><g class="traces" transform="translate(0,52.5)" style="opacity: 1;"><text class="legendtext" text-anchor="start" x="40" y="4.680000000000001" style="font-family: 'Open Sans', verdana, arial, sans-serif; font-size: 12px; fill: rgb(42, 63, 95); fill-opacity: 1; white-space: pre;">Grid Meter (Net Load)</text><g class="layers" style="opacity: 0.5;"><g class="legendfill"/><g class="legendlines"><path class="js-line" d="M5,0h30" style="fill: none; stroke: rgb(0, 128, 0); stroke-opacity: 1; stroke-width: 2px;"/></g><g class="legendsymbols"><g class="legendpoints"/></g></g><rect class="legendtoggle" x="0" y="-9.5" width="161.890625" height="19" style="fill: rgb(0, 0, 0); fill-opacity: 0;"/></g></g></g><rect class="scrollbar" rx="20" ry="3" width="0" height="0" x="0" y="0" style="fill: rgb(128, 139, 164); fill-opacity: 1;"/></g><g class="g-gtitle"><text class="gtitle" x="296" y="50" text-anchor="middle" dy="0em" style="font-family: 'Open Sans', verdana, arial, sans-serif; font-size: 17px; fill: rgb(42, 63, 95); opacity: 1; font-weight: normal; white-space: pre;"><tspan class="line" dy="0em" x="296" y="50">Scenario 7</tspan><tspan class="line" dy="1.3em" x="296" y="50">Microgrid Output</tspan><tspan class="line" dy="2.6em" x="296" y="50">From: March 01, 2022 to March 31, 2022</tspan></text></g><g class="g-xtitle"><text class="xtitle" x="296" y="477.409375" text-anchor="middle" style="font-family: 'Open Sans', verdana, arial, sans-serif; font-size: 14px; fill: rgb(42, 63, 95); opacity: 1; font-weight: normal; white-space: pre;">Time</text></g><g class="g-ytitle"><text class="ytitle" transform="rotate(-90,33.60625,260)" x="33.60625" y="260" text-anchor="middle" style="font-family: 'Open Sans', verdana, arial, sans-serif; font-size: 14px; fill: rgb(42, 63, 95); opacity: 1; font-weight: normal; white-space: pre;">Demand (kW)</text></g></g></svg>