<svg class="main-svg" xmlns="http://www.w3.org/2000/svg" xmlns:xlink="http://www.w3.org/1999/xlink" width="700" height="500" style="" viewBox="0 0 700 500"><rect x="0" y="0" width="700" height="500" style="fill: rgb(255, 255, 255); fill-opacity: 1;"/><defs id="defs-1c7a83"><g class="clips"><clipPath id="clip1c7a83xyplot" class="plotclip"><rect width="432" height="320"/></clipPath><clipPath class="axesclip" id="clip1c7a83x"><rect x="80" y="0" width="432" height="500"/></clipPath><clipPath class="axesclip" id="clip1c7a83y"><rect x="0" y="100" width="700" height="320"/></clipPath><clipPath class="axesclip" id="clip1c7a83xy"><rect x="80" y="100" width="432" height="320"/></clipPath></g><g class="gradients"/><g class="patterns"/></defs><g class="bglayer"/><g class="layer-below"><g class="imagelayer"/><g class="shapelayer"/></g><g class="cartesianlayer"><g class="subplot xy"><g class="layer-subplot"><g class="shapelayer"/><g class="imagelayer"/></g><g class="gridlayer"><g class="x"><path class="xgrid crisp" transform="translate(149.7,0)" d="M0,100v320" style="stroke: rgb(255, 255, 255); stroke-opacity: 1; stroke-width: 1px;"/><path class="xgrid crisp" transform="translate(247.28,0)" d="M0,100v320" style="stroke: rgb(255, 255, 255); stroke-opacity: 1; stroke-width: 1px;"/><path class="xgrid crisp" transform="translate(344.86,0)" d="M0,100v320" style="stroke: rgb(255, 255, 255); stroke-opacity: 1; stroke-width: 1px;"/><path class="xgrid crisp" transform="translate(442.44,0)" d="M0,100v320" style="stroke: rgb(255, 255, 255); stroke-opacity: 1; stroke-width: 1px;"/></g><g class="y"><path class="ygrid crisp" transform="translate(0,382.18)" d="M80,0h432" style="stroke: rgb(255, 255, 255); stroke-opacity: 1; stroke-width: 1px;"/><path class="ygrid crisp" transform="translate(0,290.03999999999996)" d="M80,0h432" style="stroke: rgb(255, 255, 255); stroke-opacity: 1; stroke-width: 1px;"/><path class="ygrid crisp" transform="translate(0,243.97)" d="M80,0h432" style="stroke: rgb(255, 255, 255); stroke-opacity: 1; stroke-width: 1px;"/><path class="ygrid crisp" transform="translate(0,197.89)" d="M80,0h432" style="stroke: rgb(255, 255, 255); stroke-opacity: 1; stroke-width: 1px;"/><path class="ygrid crisp" transform="translate(0,151.82)" d="M80,0h432" style="stroke: rgb(255, 255, 255); stroke-opacity: 1; stroke-width: 1px;"/><path class="ygrid crisp" transform="translate(0,105.75)" d="M80,0h432" style="stroke: rgb(255, 255, 255); stroke-opacity: 1; stroke-width: 1px;"/></g></g><g class="zerolinelayer"><path class="yzl zl crisp" transform="translate(0,336.11)" d="M80,0h432" style="stroke: rgb(255, 255, 255); stroke-opacity: 1; stroke-width: 2px;"/></g><path class="xlines-below"/><path class="ylines-below"/><g class="overlines-below"/><g class="xaxislayer-below"/><g class="yaxislayer-below"/><g class="overaxes-below"/><g class="plot" transform="translate(80,100)" clip-path="url(#clip1c7a83xyplot)"><g class="scatterlayer mlayer"><g class="trace scatter trace3214d2" style="stroke-miterlimit: 2; opacity: 0.5;"><g class="fills"/><g class="errorbars"/><g class="lines"><path class="js-line" d="M0,236.11L0.58,236.11L0.73,237.38L1.6,236.11L1.74,247.7L2.61,236.11L2.76,247.04L3.34,247.17L3.63,236.11L3.78,236.11L4.07,243.64L4.5,236.11L4.65,226.83L5.66,165.74L5.81,172.71L5.95,223.97L6.1,122.73L6.53,210.27L6.68,139.32L6.82,211.91L7.41,197.57L7.55,167.59L7.84,165.55L8.28,190.13L8.42,188.9L8.57,195.7L9.87,262.89L10.16,257.66L10.31,262.52L11.18,236.11L11.33,241.4L12.2,236.11L12.34,236.11L12.49,236.82L13.07,236.11L13.21,236.11L16.99,236.11L17.13,246.99L17.43,247.28L18.01,236.11L18.15,236.11L18.3,236.11L18.44,223.02L18.59,229.11L18.88,212.54L19.02,197.83L20.18,154.65L20.33,174.99L21.78,236.11L21.93,236.11L23.67,236.11L23.81,249.78L23.96,246.77L24.1,260.25L24.98,241.43L25.12,249.58L25.99,236.22L26.14,237L27.01,236.11L27.15,236.11L30.93,236.11L31.07,247L31.95,236.11L32.09,236.11L33.4,153.58L33.54,217.23L34.41,236.11L34.56,236.11L37.75,236.11L37.9,245.53L38.48,236.11L38.77,236.51L38.92,236.11L39.64,236.92L39.79,236.31L39.93,237.93L40.22,236.11L40.51,236.11L40.66,236.11L40.95,237.4L41.38,236.11L41.53,236.11L43.85,236.11L44,247.56L44.29,247.69L44.87,236.11L45.02,236.11L45.31,236.11L45.45,246.79L46.03,236.11L46.18,239.45L46.32,241.06L46.76,236.11L46.9,208.42L47.05,208.83L47.19,231.02L47.34,167.78L47.63,237.01L47.92,236.11L48.06,236.11L48.35,236.11L48.5,251.1L48.65,250.34L48.79,238.73L49.23,236.11L49.37,240.93L49.52,261.61L50.39,237.71L50.53,239.68L50.68,255.63L51.26,249.3L51.4,242.06L51.84,236.11L52.28,236.52L52.42,236.48L52.57,236.2L52.71,248.38L52.86,239.18L53,248.44L53.15,240.26L53.29,259.73L54.02,241.33L54.16,247.71L55.03,236.11L55.18,236.11L57.5,236.11L57.65,247.85L57.94,247.86L58.52,236.11L58.66,236.11L60.12,235.45L60.26,233.14L60.41,226.57L60.55,233.89L60.7,158.45L60.84,230.25L61.28,143.48L61.42,213.18L61.57,161.9L62,292.83L62.15,104.38L62.3,276.62L62.44,71.52L62.59,268.11L63.31,236.11L63.46,236.11L64.62,236.11L64.76,242.76L65.49,236.11L65.63,242.51L66.51,236.11L66.65,236.11L69.99,236.11L70.14,247.5L70.43,247.67L71.01,236.11L71.15,236.11L73.91,236.11L74.06,231.14L74.2,217.46L74.64,236.11L74.78,236.11L79.87,236.11L80.01,237.95L80.88,236.11L81.03,236.11L87.27,236.11L87.42,240.49L87.71,241.67L88,227.99L88.14,233.59L88.29,211.75L89.16,236.11L89.3,236.11L93.66,236.11L93.81,248.25L94.68,236.11L94.82,236.11L94.97,236.11L95.11,244.44L95.55,238.16L95.69,244.77L95.84,238.28L95.98,244.2L96.27,244.61L96.86,236.11L97,236.11L101.79,236.11L101.94,230.52L102.66,194.88L102.81,226.91L103.68,236.11L103.83,236.11L107.75,236.11L107.89,238.66L108.47,236.13L108.76,236.66L108.91,236.11L115.15,236.11L115.3,240.33L116.17,236.11L116.31,236.11L121.4,236.33L121.54,237.27L121.98,247.35L122.27,237.49L122.41,236.11L122.56,238.21L123.14,237.61L123.28,236.49L124.15,236.11L124.3,247.8L124.45,239.03L124.59,248.01L125.03,239.92L125.17,247.58L126.04,236.11L126.19,236.11L128.22,236.11L128.37,247.45L129.24,236.11L129.38,236.11L129.67,236.11L129.82,235.2L130.69,180.29L130.83,224.18L131.71,236.11L131.85,236.11L135.19,236.11L135.34,244.45L135.48,261.29L135.92,240.42L136.06,236.45L136.79,236.22L136.93,245.15L137.22,236.35L137.37,248.39L137.51,239.18L137.66,247.77L137.8,239.48L137.95,247.96L138.39,240.49L138.53,247.45L139.4,236.11L139.55,236.11L141.58,236.11L141.73,248.25L142.31,236.31L142.6,238.97L142.74,247.28L144.77,164.39L144.92,220.96L145.79,236.11L145.94,236.11L149.28,236.11L149.42,249.69L149.71,252.37L150.29,238.13L150.44,244.69L151.31,236.11L151.45,236.11L157.55,236.11L157.7,225.39L158.13,184.59L158.28,224.97L158.42,236.11L163.36,236.11L163.51,245.81L163.94,236.4L164.09,249.92L164.23,239.56L164.38,263.08L164.67,263.79L165.1,242.35L165.25,249.04L166.12,236.11L166.27,236.11L167.28,236.11L167.43,247.45L167.86,239L168.01,247.46L168.15,239.66L168.3,246.86L169.17,236.11L169.31,236.11L170.33,236.11L170.48,246.45L170.91,253.26L171.35,238.82L171.49,243.16L172.36,198.42L172.51,202.23L172.65,179.8L172.8,191.04L172.95,155.02L173.09,171.13L173.24,147.08L174.11,236.11L174.25,236.11L177.88,236.11L178.03,242.86L178.61,246.79L178.9,245.4L179.04,245.54L180.06,236.11L180.21,236.11L180.5,237.24L180.93,236.11L181.08,236.11L184.56,236.11L184.71,246.75L185.58,238.25L185.72,236.51L186.01,236.11L186.16,232.82L186.74,198.16L186.89,228.13L187.03,236.11L191.24,236.11L191.39,262.86L191.53,242.8L191.68,265.08L192.11,257.45L192.26,248.56L192.4,269.2L192.84,242.07L192.98,257.25L193.13,241.4L193.27,260.01L193.86,240.55L194,239.53L194.29,242.23L195.16,236.11L195.31,236.11L195.6,237.18L196.03,236.11L196.18,236.11L197.49,236.11L197.63,247.49L198.5,236.11L198.65,236.11L199.23,236.68L199.37,251.95L200.97,185.36L201.12,191.13L201.55,157.02L201.7,165.59L201.84,222.72L202.71,236.11L202.86,236.11L205.18,236.11L205.33,244.42L205.62,236.11L205.91,250.15L206.05,239.83L206.2,249.41L206.34,239.42L206.92,245.48L207.07,250.04L207.65,251.79L207.8,240L207.94,242.04L208.52,236.11L208.81,236.14L208.96,236.11L209.97,236.11L210.12,236.11L213.02,236.11L213.17,241.13L213.6,236.25L213.75,242.67L214.48,214.69L214.62,216.39L214.77,193.14L215.06,164.65L215.2,170.25L215.35,223.47L216.22,236.11L216.36,236.11L219.56,236.11L219.7,237.33L220.57,248.77L220.72,239.14L220.86,251.68L221.45,250.25L221.59,240.98L221.74,248.63L222.17,237.18L222.32,241.9L222.46,237.56L223.33,236.11L223.48,236.11L225.66,236.11L225.8,247.05L226.09,247.96L226.67,236.11L226.82,236.11L227.11,240.54L227.25,254.58L228.56,199.36L228.71,198.93L229.14,174.94L229.29,222.91L230.16,236.11L230.3,236.11L233.21,236.11L233.35,238.92L233.5,237.88L233.64,253.29L233.93,255.5L234.66,238.49L234.8,242.21L235.24,236.58L235.68,237.54L235.82,236.69L236.26,236.19L236.4,237.36L236.55,236.42L236.69,237.26L237.13,236.34L237.27,236.11L240.18,236.11L240.32,247.43L240.61,236.11L240.9,251.7L241.05,253.69L241.34,266.28L241.48,242.61L242.94,175.8L243.08,224.05L243.95,236.11L244.1,236.11L247.73,236.11L247.87,245.91L248.02,238.56L248.45,247.6L248.6,238.98L248.74,243.43L249.33,236.65L249.47,237.12L249.62,238.76L249.91,239.79L250.34,236.11L250.49,237.91L251.21,236.11L251.36,237.32L252.23,236.11L252.38,236.11L253.1,236.11L253.25,248.78L254.12,236.11L254.26,236.11L255.42,236.11L255.57,216.63L255.86,235.42L256.01,217.2L256.15,181.97L257.02,236.11L257.17,236.11L261.52,236.11L261.67,245.53L261.96,250.8L262.39,239.19L262.54,249.26L263.12,236.11L263.56,236.89L263.7,236.27L263.99,236.12L264.14,237.58L265.01,236.11L265.15,238.19L266.02,236.11L266.17,236.11L267.04,236.11L267.19,236.11L268.35,236.11L268.49,247.79L268.78,247.95L269.36,235.22L269.51,235.89L269.8,188.84L269.95,224.82L270.24,227.13L270.53,166.67L270.67,220.36L270.82,236.11L275.61,236.11L275.75,247.9L276.33,237.35L276.63,237.58L276.77,244.67L277.64,236.11L277.79,236.11L280.11,236.11L280.26,248.04L281.13,236.11L281.27,236.11L282.72,236.11L282.87,243.97L284.03,200.62L284.18,228.58L285.05,236.11L285.19,236.11L289.4,236.11L289.55,244.55L289.84,255.7L289.98,243.71L290.13,258.28L290.57,237.98L290.71,240.01L291,246L291.44,236.72L291.58,240.3L291.87,236.11L292.45,236.86L292.6,236.11L293.47,236.11L293.61,237.71L294.49,236.11L294.63,236.11L296.08,236.11L296.23,261.03L296.52,261.69L296.95,238.26L297.1,240.66L297.25,237.25L297.54,230.99L297.68,219.61L297.83,222.32L297.97,209.67L298.12,217.65L298.26,197.27L298.41,192.57L298.7,173.78L298.84,223.65L298.99,236.11L303.34,236.11L303.49,236.87L303.63,247.95L304.22,247.15L304.36,238.87L304.51,243.8L304.94,237.54L305.09,240.67L305.23,239.28L305.96,237L306.1,238.55L306.39,236.23L306.97,236.28L307.12,239.48L307.7,236.11L307.99,236.26L308.14,238.77L309.01,236.11L309.15,248.42L309.44,248.7L310.02,236.11L310.17,236.11L310.6,236.11L310.75,241.27L311.48,230.5L311.62,216.73L312.35,184.8L312.49,224.61L313.36,236.11L313.51,236.11L317.28,236.11L317.43,240.04L318.01,253.07L318.3,251.18L318.45,239.88L318.59,248.39L319.03,239.05L319.17,247.5L319.32,238.96L319.9,237.78L320.04,247.82L320.19,239.04L320.33,242.14L320.48,237.62L320.77,239.8L320.91,238.25L321.79,236.11L321.93,238.45L322.8,236.11L322.95,236.11L323.09,247.33L323.67,236.11L323.82,236.11L324.4,236.11L324.54,247.48L326.29,158.94L326.43,196.68L326.58,148.09L326.87,236.11L327.01,236.11L327.16,236.11L331.08,236.11L331.22,238.33L331.37,264.18L331.95,258.65L332.1,241.75L332.53,269.64L332.82,256.03L332.97,241.09L333.11,257.66L333.69,245.2L333.84,238.17L334.27,240.02L334.71,236.21L334.85,237.01L335.58,236.11L335.73,236.18L335.87,236.13L336.02,236.11L336.16,236.94L337.03,236.11L337.18,236.11L338.48,236.11L338.63,239.48L339.21,236.11L339.36,226.42L340.23,172.58L340.37,186.55L340.52,193.26L341.39,236.11L341.53,236.11L345.02,236.11L345.16,242.99L345.6,266.13L345.75,242.93L345.89,252.98L346.04,240.33L346.62,237.69L346.76,244.58L346.91,238.23L347.34,236.67L347.49,245.99L347.63,238.58L347.78,237.31L347.92,240.69L348.21,236.11L348.5,238.61L348.65,236.74L348.94,236.23L349.09,238.35L349.96,236.11L350.1,236.73L350.39,237.02L350.97,236.11L351.12,236.11L351.99,236.11L352.13,247.4L352.72,236.11L353.01,236.67L353.15,235.25L354.02,158.34L354.17,185L354.31,227.89L355.18,236.11L355.33,236.11L358.96,236.11L359.1,254.12L359.25,240.62L359.83,253.05L359.98,247.93L360.27,241.73L360.41,262.85L360.7,254.01L360.85,245.06L360.99,254.72L361.43,237.85L361.57,243.21L361.72,237.89L361.86,242.17L362.01,237.63L362.3,239.31L362.44,236.71L362.73,237.31L363.17,236.11L363.32,236.28L363.46,236.15L364.19,236.11L364.33,247.26L364.62,262.63L365.2,236.11L365.35,236.11L366.07,236.11L366.22,248.49L366.51,248.61L367.24,214.82L367.38,228.16L368.11,143.32L368.4,149.7L368.54,167.87L369.41,236.11L369.56,236.11L373.48,236.61L373.63,239.62L373.92,236.8L374.06,246.94L374.64,240.66L374.79,246.67L375.08,247.08L375.66,236.11L375.8,236.11L379.72,236.11L379.87,247.46L380.74,237.01L380.89,236.11L381.18,236.11L381.32,217.62L381.47,260.7L381.9,209.02L382.05,243.9L382.19,178.83L382.34,241.41L382.48,168.85L383.06,237.45L383.21,236.11L384.08,262.83L384.23,248.24L384.37,208.05L385.1,250.18L385.24,202.5L385.39,138.68L385.82,236.11L385.97,236.11L386.55,236.11L386.69,239.31L386.98,241.16L387.28,236.11L387.57,236.7L387.71,236.11L392.65,236.11L392.79,247.26L393.66,236.11L393.81,236.11L394.25,236.11L394.39,241.72L394.97,236.11L395.12,225.8L395.41,243.27L395.55,205.85L395.99,193.8L396.42,236.11L396.57,236.11L398.46,236.11L398.6,238.73L399.47,236.11L399.62,236.11L401.22,236.11L401.36,248.84L401.51,239.3L401.94,250.21L402.09,239.64L402.23,248.95L402.52,251.73L402.81,236.11L403.1,240.85L403.25,242.52L404.41,236.11L404.56,236.11L407.75,236.11L407.9,247.29L408.77,236.11L408.91,236.11L409.06,234.01L409.2,219.22L409.78,185.3L409.93,225.6L410.8,236.11L410.94,236.11L415.45,236.84L415.59,253.05L415.74,240.31L416.32,251.74L416.46,245.28L417.77,236.11L417.91,237.1L418.79,236.11L418.93,236.11L421.25,236.11L421.4,246.76L421.69,236.51L421.98,251.16L422.13,239.13L422.27,250.53L423.29,236.11L423.43,236.11L423.72,194.73L424.01,218.84L424.16,227.91L424.88,163.25L425.03,220.37L425.9,236.11L426.05,236.11L426.34,236.11L426.48,243.84L427.35,236.11L427.5,236.11L428.22,236.11L428.37,240.49L428.81,258.23L429.1,244.14L429.24,246.38L430.26,236.11L430.4,236.11L431.71,236.11L431.85,237.89L432,236.56" style="vector-effect: non-scaling-stroke; fill: none; stroke: rgb(0, 191, 255); stroke-opacity: 1; stroke-width: 2px; opacity: 1;"/></g><g class="points"/><g class="text"/></g><g class="trace scatter trace7f7a8a" style="stroke-miterlimit: 2; opacity: 0.5;"><g class="fills"/><g class="errorbars"/><g class="lines"><path class="js-line" d="M0,236.38L3.49,236.28L3.63,235.38L4.07,219.92L4.21,207.58L5.66,29.36L5.81,37.99L5.95,86.7L6.1,16.49L6.82,16.58L6.97,16.63L8.13,16.8L8.28,17.97L9,88.24L9.15,105.37L10.75,236.4L10.89,236.39L17.43,236.22L17.57,235.13L18.01,219.01L18.15,206.28L20.04,16.79L20.18,16.8L20.33,16.92L21.2,16.87L21.35,16.93L21.78,17.12L21.93,18.45L22.22,28.61L22.36,53.85L22.51,47.72L22.65,57.65L22.8,78.65L24.69,236.4L24.83,236.39L31.37,235.68L31.51,232.68L32.24,185.77L32.38,171.05L33.69,25.57L33.83,49.18L34.12,64.24L34.27,30.24L34.41,16.68L34.71,33.53L34.85,28.98L35,36.56L35.58,16.55L35.72,17.42L35.87,24.52L38.34,236.4L38.48,236.4L45.31,236.27L45.45,235.17L46.76,165.26L46.9,130.87L47.77,39.34L47.92,41.85L48.06,123.83L48.5,187.27L48.94,161.35L49.08,163.54L50.1,217.5L50.24,213.89L50.39,214.19L50.82,223.74L50.97,208.95L51.26,224.42L51.4,214.81L51.55,211.62L52.57,236.39L52.71,236.39L59.25,236.18L59.39,234.27L60.55,172.19L60.7,110.09L60.84,137.84L61.13,106.91L61.28,63.74L61.42,64.9L61.57,79.8L61.71,88.35L61.86,50.84L62,148.68L62.44,23.11L62.59,62.34L62.73,102.4L62.88,99.69L63.02,134.62L63.31,55.67L63.6,101.75L63.75,144.76L63.89,144.43L64.04,166.56L64.76,225.58L65.2,223.35L65.34,213.39L65.49,214.72L65.63,225.41L66.8,236.39L66.94,236.39L73.19,235.88L73.33,233.65L73.91,194.93L74.06,173.54L75.65,16.29L75.8,16.41L75.94,16.43L77.98,16.71L78.12,19.21L79.14,137.2L79.28,159.87L80.3,236.4L80.45,236.39L80.59,236.38L87.13,235.89L87.27,233.96L87.85,194.46L88,173.61L89.45,16.37L89.89,16.56L90.03,16.57L91.48,16.59L91.63,16.51L92.06,16.7L92.21,19.97L94.24,236.4L94.53,236.38L94.68,236.38L101.07,235.86L101.21,234.35L101.79,198.02L101.94,175.11L103.39,16.33L103.68,16.38L103.83,16.36L105.86,16.49L106,17.71L106.58,73.8L106.73,93.31L108.33,236.4L108.47,236.38L114.86,236.3L115.01,235.63L115.44,222.25L115.59,211.93L117.62,16.35L117.77,16.42L117.91,16.43L119.51,16.67L119.65,16.61L119.8,17.12L119.94,21.6L122.27,236.4L122.41,236.38L122.56,236.38L128.95,236.25L129.09,233.58L131.56,16.08L131.85,16.16L132,16.21L132.29,44.98L132.43,21.94L132.58,16.25L132.87,16.24L133.01,18.03L133.16,24.31L133.45,16.3L133.59,16.32L133.74,16.26L133.88,16.57L134.03,20.16L135.34,197.22L135.48,219.36L136.21,236.4L136.35,236.38L136.5,236.38L142.74,236.29L142.89,235.5L143.32,221.08L143.47,209.63L145.5,16.23L145.65,16.29L146.95,16.41L147.1,16.42L147.68,16.46L147.82,16.8L147.97,20.32L150.15,236.4L150.29,236.39L150.44,236.38L156.68,236.27L156.83,235.48L157.41,208.54L157.55,189.56L159.15,16.33L159.3,16.4L159.44,16.39L161.62,16.64L161.76,17.88L162.34,72.26L162.49,91.38L164.09,236.4L164.23,236.39L164.38,236.38L171.2,236.17L171.35,234.86L171.93,202.72L172.07,185.14L173.67,16.8L174.11,20.32L174.25,19.13L174.4,16.38L175.12,16.53L175.27,16.88L175.41,18.22L175.7,16.48L175.85,16.49L175.99,16.49L176.14,16.62L176.29,19.2L177.45,155.29L177.59,175.59L178.61,236.4L178.75,236.39L185.14,236.29L185.29,235.1L185.87,202.09L186.01,183.81L187.61,16.1L187.9,16.35L188.05,16.39L189.79,16.83L189.93,16.85L190.08,17.31L190.23,21.17L191.68,193.09L191.82,213.92L192.55,236.4L192.69,236.39L192.84,236.39L199.08,236.19L199.23,234.73L199.95,186.58L200.1,165.22L201.7,16.36L201.84,16.43L201.99,16.48L203,16.69L203.15,16.76L204.02,17.05L204.17,22.06L206.2,236.37L206.34,236.4L213.02,236.09L213.17,234.1L213.89,185.12L214.04,165.05L215.64,16.1L215.78,16.13L215.93,16.32L217.96,16.85L218.11,19.88L219.41,177.29L219.56,196.49L220.43,236.4L220.57,236.39L220.72,236.38L226.96,236.2L227.11,234.87L227.69,203.07L227.83,182.05L229.58,17.08L229.72,18.05L229.87,23.3L230.16,16.3L230.74,16.6L230.88,16.57L231.46,16.7L231.61,18.34L231.9,18.18L232.48,57.3L232.63,70.76L234.22,236.4L234.37,236.39L240.9,235.92L241.05,233.91L241.77,180.42L241.92,160.19L243.37,16.39L243.66,16.55L243.81,16.56L245.84,17.17L245.99,20.86L247.29,173.86L247.44,192.8L248.31,236.4L248.45,236.39L248.6,236.39L254.84,235.79L254.99,232.5L256.01,163.82L256.15,114.2L256.3,115.68L256.44,112.38L256.59,70.58L257.31,16L257.89,16.33L258.04,16.32L259.49,16.9L259.64,20.1L260.07,49.12L260.22,87.03L261.38,211.32L261.52,219.25L262.1,236.4L262.54,236.38L262.69,236.38L268.78,235.94L268.93,232.23L269.8,138.53L270.09,157.94L270.24,167.63L271.25,18.04L271.54,30.8L271.69,36.28L271.83,16.23L272.56,16.37L272.7,23.3L272.85,45.77L273.29,16.43L273.43,17.64L273.72,16.27L274.3,48.72L274.45,65.74L276.19,236.4L276.33,236.39L276.48,236.38L282.58,236.27L282.72,235.06L283.45,192.85L283.6,173.37L285.34,16.39L285.48,16.44L285.63,16.45L286.94,16.78L287.08,18.02L287.66,16.71L288.24,48.14L288.39,65.18L290.27,236.39L290.42,236.39L296.66,235.61L296.81,233.29L297.39,195.24L297.54,173.26L299.28,16.28L299.42,16.65L301.75,16.86L301.89,19.51L302.91,140.59L303.05,161.43L304.22,236.4L304.36,236.4L310.6,235.65L310.75,233.15L311.33,192.99L311.48,171.01L313.07,16.3L313.22,16.4L313.36,16.46L314.96,16.82L315.11,16.89L315.54,16.75L315.69,18.05L316.56,106.45L316.7,126.13L318.16,236.4L318.3,236.4L324.4,236.25L324.54,235.33L324.98,219.26L325.13,206.72L327.16,16.45L327.3,16.54L328.47,16.84L328.61,17.01L329.48,17.02L329.63,17.94L330.21,68.67L330.35,86.37L332.1,236.4L332.24,236.39L338.34,236.14L338.48,235.01L339.07,205.7L339.21,189.66L340.95,17.37L341.1,18.21L341.24,16.63L341.53,20.42L341.68,16.67L342.41,17.54L342.55,19.42L342.7,17.18L343.13,21.8L343.28,18.24L343.42,22.99L343.71,40.95L343.86,57.6L344,54.9L344.15,83.73L344.58,120.46L344.73,140.88L346.04,236.4L346.18,236.39L352.28,236.29L352.42,235.34L352.86,222.38L353.01,207.09L354.75,16.32L354.89,16.36L356.06,16.4L356.2,16.35L357.51,17.24L357.65,21.88L359.98,236.4L360.12,236.39L360.27,236.38L366.22,236.3L366.37,235.22L366.8,195.99L366.95,177.09L368.69,16.18L368.83,16.22L368.98,16.26L371.45,16.74L371.59,19.5L372.61,139.61L372.75,160.56L373.92,236.4L374.06,236.39L380.16,236.32L380.31,235.52L381.03,199.61L381.18,182.79L381.47,209.36L381.76,149.31L381.9,77.62L382.05,111.78L382.19,68.44L382.48,71.51L382.63,68.94L382.92,213.11L383.5,211.47L383.65,217.79L384.37,109.8L384.52,136.05L384.66,181.64L384.81,185.51L384.95,173.41L385.1,180.17L385.24,125.89L385.82,20.68L385.97,31.07L386.11,74.22L386.4,150.05L386.55,205.26L387.57,236.39L387.71,236.38L394.25,236.29L394.39,235.18L394.83,210.44L394.97,177.67L395.41,192.29L395.99,98.78L396.13,103.77L396.28,133.53L396.42,64.84L396.57,36.5L396.86,48.25L397,16.36L397.15,16.64L397.29,28.84L397.59,17.61L398.46,191.25L398.6,169.89L398.89,20.61L399.33,126.29L399.47,170.85L399.91,26.12L400.2,122.55L400.34,161.23L400.63,131.87L400.93,187.58L401.07,211.4L401.65,236.4L401.94,236.38L402.09,236.38L407.9,236.32L408.04,235.56L408.48,217.12L408.62,205.38L409.06,151.85L409.2,130.19L410.36,16.34L410.51,16.35L411.67,16.53L411.82,16.52L412.54,16.57L412.69,17.56L413.41,40.58L413.56,39.39L413.7,74.95L413.85,56.33L413.99,80.79L414.14,122.03L415.59,236.4L415.74,236.39L422.13,236.12L422.27,234.98L423,185.92L423.14,174.13L423.72,81.69L424.01,120.06L424.16,118.15L424.74,74.34L424.88,44.46L425.18,32.4L425.32,65.12L426.34,159.86L426.48,159.98L426.92,171.76L427.06,151.01L427.35,154.33L427.64,134.15L427.79,141.87L427.93,148.45L428.08,96.96L428.37,193.69L428.51,210.4L429.53,236.38L429.68,236.38L432,236.38" style="vector-effect: non-scaling-stroke; fill: none; stroke: rgb(255, 0, 0); stroke-opacity: 1; stroke-width: 2px; opacity: 1;"/></g><g class="points"/><g class="text"/></g><g class="trace scatter trace37387e" style="stroke-miterlimit: 2; opacity: 0.5;"><g class="fills"/><g class="errorbars"/><g class="lines"><path class="js-line" d="M0,268.53L0.73,270.22L0.87,268.3L1.02,269.14L1.16,268.1L1.45,268.1L1.6,281.26L2.18,267.65L2.47,267.8L2.61,281.99L3.34,260.55L3.49,265.28L3.63,267.62L3.78,277.08L4.21,272.87L4.36,254.67L5.52,174.97L5.66,175.86L5.81,180.14L5.95,173.96L6.1,221L6.24,138.35L6.68,227.01L6.82,166.35L6.97,202.78L7.12,161.86L7.7,164.56L7.84,172.34L7.99,167.88L8.13,183.26L8.28,184.23L10.02,299.03L10.16,292.12L10.31,276.48L10.6,273L10.75,278.64L10.89,271.62L11.04,272.9L11.33,270.36L11.47,268.37L11.76,271.78L12.34,270.59L12.49,270.73L13.36,268.23L13.5,269.16L13.94,269.56L14.09,268.14L14.23,269.13L14.38,268.59L14.52,269.04L14.67,268.48L15.1,268.69L15.25,268.68L15.97,267.88L16.12,267.73L16.41,268.34L16.84,267.68L16.99,280.88L17.28,281.57L20.04,155.52L20.18,171.96L20.33,185.4L20.77,181.44L20.91,148.41L21.49,89.63L21.78,107.59L21.93,132.14L23.23,224.23L23.38,220.43L24.1,295.09L24.4,286.04L24.54,281.22L24.83,278.21L24.98,284.53L25.12,275.99L25.27,283.71L25.56,268.23L25.7,267.08L26.43,270.79L26.57,270.77L26.72,269.57L26.86,268.52L27.44,269.59L27.59,262.16L27.74,242.6L28.17,269.46L28.32,268.26L29.04,269.04L29.19,268.17L29.33,268.76L29.77,268L29.91,268.53L30.06,268.28L30.78,267.9L30.93,281.49L32.96,181.59L33.11,199.24L33.4,199.26L34.41,88.02L34.56,91.45L34.71,89.96L35,91.02L35.58,78.57L35.72,98.25L36.16,153.23L36.3,186.25L36.45,224.65L37.03,208.35L37.17,206.59L37.32,209.38L37.46,230.76L38.05,277.48L38.48,269.48L38.63,270.87L38.92,268.82L39.06,270.84L39.21,271.31L39.35,270.2L39.5,268.81L39.79,268.62L39.93,270.48L40.22,270.08L40.37,268.63L40.95,270.57L41.24,269.47L41.38,268.44L41.82,270.46L41.97,269.85L42.11,268.02L42.4,269.88L42.69,268.92L42.84,269.01L43.56,268.1L43.71,268.98L44.14,281.54L44.43,268.11L44.58,268.47L45.02,267.75L45.16,268.2L45.31,280.9L45.74,262.36L46.18,272.52L46.32,272.73L47.77,105.29L47.92,111.12L48.06,202.03L48.5,286.99L48.94,255.98L49.08,253.03L49.23,247.42L49.37,287.87L49.52,264.55L50.1,278.84L50.24,272.2L50.39,271.89L50.53,287.27L50.82,287.41L51.69,257.06L51.84,270.36L52.13,271.57L52.28,268.32L52.42,270.67L52.57,283.62L52.71,273.62L53,274.01L53.15,295.98L53.87,266.43L54.02,280.14L54.16,273.53L54.31,282.06L54.6,268.85L54.74,269.13L54.89,268.37L55.03,269.07L55.18,268.16L55.76,268.9L55.91,268.25L56.63,269.51L56.78,268.48L57.21,268.22L57.36,268.78L57.5,281.56L57.79,282.26L58.37,268.4L58.52,268.03L59.25,267.95L59.39,265.79L60.55,210.27L60.7,236.86L61.42,157.12L61.57,223.56L61.86,235.37L62,161.07L62.15,288.41L62.3,105.78L62.88,163.42L63.02,194.17L63.31,125.85L63.75,185.24L63.89,182.69L64.91,276.37L65.2,274.11L65.34,266.08L65.63,272.35L65.78,265.66L66.07,270.65L66.22,268.64L66.65,268.17L67.09,268.4L67.23,268.65L68.1,269.11L68.25,268.89L68.39,268.66L69.12,268.92L69.27,268.21L69.7,268.88L69.85,268.03L69.99,282.14L70.72,267.17L70.86,267.46L71.01,268.12L72.31,267.25L72.46,267.53L73.33,264.75L73.48,258.89L73.62,265.91L73.91,246.53L74.06,230.58L74.2,236.06L74.35,200.2L75.51,53.6L75.65,53.85L75.8,57.42L75.94,55.41L76.09,66.5L76.96,88.4L77.11,87.32L77.25,73.56L77.69,70.13L77.83,71.15L77.98,83.13L78.12,78.25L78.27,90.5L78.41,100.34L80.01,270.33L80.45,268.64L80.59,269.78L81.46,268.6L81.61,268.67L81.9,269.43L82.19,269.14L82.33,268.62L83.21,269.15L83.35,268.5L83.5,268.93L83.64,268.08L83.93,268.47L84.08,268.17L84.51,269.05L84.8,268.6L84.95,267.71L85.09,266.9L85.53,267.95L85.67,267.2L85.82,267.49L86.98,267.27L87.13,266.7L87.27,278.56L87.71,269.67L87.85,246.29L88,243.97L88.14,223.91L88.29,227.59L88.43,211.5L89.45,81.6L89.74,95.2L89.89,99.08L90.03,98.41L90.18,112.2L90.32,112.7L90.47,101.42L90.61,89.2L90.9,103.77L91.19,92.06L91.34,93.86L91.92,93.33L92.79,169.85L92.93,190.78L93.66,270.4L94.1,270.24L94.24,268.11L95.26,278.99L95.4,272.73L95.69,272.64L96.13,278.82L96.27,271.56L96.42,271.5L96.56,268.13L96.71,268.47L97.29,268.11L97.44,267.76L98.31,267.91L98.45,267.62L98.74,267.29L98.89,267.8L99.03,267.08L99.32,266.8L99.47,267.25L99.61,266.78L99.76,266.65L99.9,267.53L100.49,267.18L100.63,267.24L101.21,265.04L101.36,260.05L101.79,247.32L101.94,230.5L102.08,236.96L102.37,224.72L102.52,207.38L103.83,71.46L103.97,72.1L104.12,87.77L104.41,82.54L104.7,95.94L104.84,78.5L105.13,79.69L105.28,68.98L105.57,66.32L105.71,72.31L105.86,86.03L106.29,147.83L106.44,171.73L108.04,271.94L108.33,270.18L108.47,269.2L108.62,270.24L109.05,268.22L109.2,269.67L109.34,268.28L109.63,268.96L110.07,268.3L110.21,267.99L110.5,269.04L110.94,268.28L111.09,268.27L111.52,268.74L111.81,268.28L111.96,267.82L112.1,268.48L112.54,268.3L112.68,267.57L113.41,267.77L113.55,267.13L113.84,266.32L113.99,266.85L114.14,267.8L115.01,266.28L115.15,277.36L115.88,222.4L116.02,202.09L116.46,165.31L116.6,130.63L117.77,69.7L117.91,71.36L118.78,59.58L118.93,63.29L119.07,62.67L119.22,82.72L119.36,81.23L119.51,82.96L119.65,89.59L121.83,282.92L121.98,279.71L122.12,267.87L123.14,270.22L123.28,268.28L123.43,269.74L124.01,269.16L124.15,282.56L124.3,273.55L124.74,282.7L124.88,274.42L125.03,282.4L125.32,268.93L125.9,269.52L126.04,269.86L127.06,269.27L127.2,269.47L127.93,269.33L128.08,268.28L128.51,282L128.66,261.06L128.8,266.31L128.95,268.03L129.24,252.75L129.38,244.22L129.53,253.79L129.82,232.51L129.96,226.94L130.83,126.32L130.98,90.39L131.12,91.12L131.27,80.28L132.29,110.25L132.43,98.08L132.87,88.29L133.16,104.16L133.3,98.51L133.88,103.28L134.03,85.78L134.32,112.05L134.46,163.09L135.48,286.18L135.92,267.87L136.06,270.58L136.35,269.43L136.64,270.73L136.79,273L136.93,273.21L137.08,277.58L137.22,283.77L137.37,273.55L137.8,282.46L137.95,274.11L138.09,282.47L138.53,274.98L138.68,268.64L140.56,270.44L140.71,269.59L141.43,269.87L141.58,283.02L142.16,268.62L142.45,273.36L142.6,281.33L144.77,173.69L144.92,104.66L145.21,73.88L145.79,85.66L145.94,99.59L146.08,114.31L146.52,96.78L146.66,99.18L146.81,101.08L147.1,83.26L147.68,90L147.82,97.93L148.11,111.47L148.26,139.84L149.57,284.51L150,274.92L150.15,272.46L150.73,272.21L150.87,275.45L151.02,270.11L151.16,268.03L151.6,270.24L151.74,269.24L151.89,268.51L152.03,268.76L152.47,268.05L152.62,268.01L152.91,268.57L153.05,268.26L153.2,268.62L153.34,267.99L153.92,268.72L154.07,268.45L155.37,267.38L155.52,267.33L156.54,267.51L156.68,267.16L156.97,262.67L157.12,272.01L157.55,241.42L157.7,216.2L157.84,213.87L157.99,195.94L158.13,193.48L158.28,147.51L159.15,54.11L159.44,59.15L159.59,61.31L160.02,64.01L160.17,60.5L160.46,68.92L160.6,88.1L161.18,139.56L161.47,125.26L161.62,118.95L162.05,98.71L162.2,120.74L162.34,132.1L163.94,284.18L164.09,274.03L164.23,297.35L164.81,295.84L164.96,263.88L165.1,280.36L165.25,260.54L165.68,269.23L165.83,268.35L166.12,268.15L166.27,269.12L166.56,268.62L166.7,268.06L167.14,268.18L167.28,281.33L167.43,273.59L167.57,282.01L168.01,273.78L168.15,281.98L168.73,236.11L168.88,242.43L169.02,268.62L169.9,267.53L170.04,267.91L170.19,267.49L170.33,281.01L170.77,287.38L170.91,270.47L171.2,273.08L171.35,279.33L173.09,150.41L173.24,186.94L174.25,83.65L174.4,79.54L174.54,76.9L174.69,83.95L174.98,78.95L175.12,85.05L175.41,88.43L175.56,80.98L175.85,90.18L176.14,73.33L176.29,72.71L178.46,280.27L178.61,278.89L178.75,280.79L179.19,265.91L179.48,271.03L179.62,271.37L180.06,268.85L180.35,269.03L180.5,270.25L181.22,268.32L181.37,268.7L182.53,268.81L182.67,268.22L184.42,267.37L184.56,281.12L184.85,281.25L185,260.1L185.29,272.71L185.43,276.2L186.3,225.49L186.45,214.52L186.59,208.44L186.74,227.36L186.89,186.67L188.19,81.41L188.34,72.35L189.21,91.05L189.5,89.02L189.64,87.43L189.93,97.71L190.08,86.17L191.1,249.45L191.24,274.49L191.39,276.64L191.53,294.96L191.68,270.35L192.11,283.24L192.26,302.36L192.4,272.66L192.98,275.72L193.13,291.48L193.57,261.97L194,275.01L194.15,274.2L194.44,274.36L195.16,268.88L195.31,269.84L195.45,269.57L195.6,270.23L195.74,268.45L195.89,269.94L196.03,268.57L196.18,269.17L196.76,268.42L196.9,268.67L197.34,267.98L197.49,281.82L197.78,282.03L197.92,260.2L198.36,268.01L198.5,268.17L198.94,267.65L199.08,268.6L199.23,284.66L199.52,285.39L201.7,140.48L201.84,77.55L201.99,74.52L202.13,93.07L202.57,91.59L202.86,102.77L203,90.15L203.87,132.64L204.02,127.45L204.17,119.37L206.05,284.42L206.2,272.7L206.34,276.66L206.49,275.32L206.63,282.54L206.92,283.33L207.07,279.2L207.36,275.65L207.51,285.84L207.65,272.81L207.8,274.94L208.23,270.85L208.38,270.55L208.67,270.19L208.81,268.44L209.1,270.4L209.54,268.74L209.68,269.4L210.26,269.82L210.41,268.42L210.55,269.23L210.7,267.71L211.28,268.44L211.43,267.97L211.72,267.94L211.86,268.6L212.01,267.67L212.59,267.97L212.73,267.98L212.88,267.96L213.02,269.23L213.6,277.57L213.75,270.6L213.89,264.58L215.49,86.39L215.93,94.94L216.07,114.91L216.22,114.79L216.36,118.01L216.65,125L216.8,123.86L216.94,108.73L217.09,112.47L217.23,141.56L217.52,142.88L217.67,139.41L217.82,116.44L218.25,136.73L218.4,144.42L219.99,282.17L220.14,281.03L220.28,281.02L220.43,280.47L220.57,274.42L221.01,285.68L221.15,273.74L221.3,282.71L221.45,274.52L221.59,284.67L222.03,271.65L222.17,274.93L222.32,271.95L222.46,274.36L222.75,268.67L222.9,268.81L223.19,269.36L223.62,268.46L223.77,269.24L224.64,268.13L224.79,268.19L224.93,267.85L225.08,268.74L225.22,268.15L225.37,268.87L225.51,270.23L225.66,281.66L225.95,281.9L226.09,260.44L226.53,267.77L226.67,268.22L226.82,267.52L226.96,269.8L227.11,286.02L227.4,286.46L229,182.06L229.14,202.96L230.01,92.99L230.16,94.05L230.3,78.06L231.61,114.54L231.76,108.78L232.77,182.07L232.92,219.24L233.06,218.6L233.21,242.21L233.79,289.4L234.08,289.35L234.22,269.91L234.37,278.44L234.95,274.76L235.1,270.76L235.53,270.08L235.82,271.99L235.97,271.09L236.4,270.54L236.55,270.01L236.84,270.91L236.98,270.25L237.13,268.62L237.27,270.34L238,270.22L238.14,269.04L238.43,268.81L238.58,269.67L238.87,269.11L239.02,268.64L239.6,268.92L239.74,268.45L239.89,268.1L240.03,268.37L240.18,282.18L240.32,260.29L240.76,286.73L240.9,286.21L241.05,287.88L241.19,302.12L241.48,278.5L241.63,267.1L243.66,79.71L243.81,72.84L244.39,112.59L244.82,97.59L244.97,109.94L245.11,118.72L245.55,108.76L245.7,112.4L245.84,114.08L245.99,95.84L246.28,127.12L246.42,135.47L248.02,273.42L248.16,271.44L248.31,273.39L248.6,268.35L248.89,272.27L249.04,271.94L249.18,273.52L249.62,271.09L249.76,269.34L250.63,271.12L250.78,268.34L251.36,270.49L251.65,270.24L251.79,268.73L251.94,269.83L252.38,268.51L252.52,269.15L252.67,268.45L252.96,269.24L253.1,281.9L253.25,260.19L253.83,268.65L253.97,268.49L254.41,268.54L254.55,269.57L255.13,261.83L255.28,250.73L257.31,78.44L257.46,94.69L257.75,100.03L258.18,98.7L258.33,87.99L258.47,80.9L258.62,90.76L258.91,86.19L259.05,90.07L260.22,150.92L260.36,188.44L260.51,189.92L260.65,204.76L261.09,237.84L261.23,252.13L261.38,245.43L261.52,269.92L261.67,273.19L262.1,285.07L262.39,282.56L262.54,274.98L262.69,283.76L262.83,263.36L263.12,269.53L263.27,270.83L263.41,271.03L263.56,270.6L263.7,268.31L264.14,270.39L264.43,269.25L264.57,268.76L264.72,267.98L265.01,269.67L265.15,270.3L265.3,268.45L265.44,270.41L266.02,268.55L266.17,269.81L266.32,270.51L266.46,269.38L266.61,268.26L266.75,269.73L267.19,267.85L267.33,268.63L267.48,268.45L268.06,268.51L268.2,268L268.64,282.28L268.93,280.47L269.07,257.29L269.95,210.22L270.09,230.71L270.24,217.91L270.53,197.45L270.67,164.41L270.82,183.47L270.96,115.27L271.11,74.45L271.69,99.01L271.83,79.17L271.98,82.83L272.12,82.3L272.27,96.39L272.85,131.53L273.14,117.64L273.29,93.48L273.43,93.41L273.58,95.97L273.87,96.95L274.01,78.01L274.16,97.14L274.59,136.53L274.74,162.59L276.19,275.88L276.33,275.74L277.06,271.55L277.21,273.98L277.5,268.58L278.08,269.29L278.22,268.55L278.37,269.76L278.51,268.46L278.8,268.82L278.95,268.08L279.24,269.18L279.38,270.28L279.82,269.08L279.97,269.15L280.11,281.83L280.4,282.23L280.55,260.36L280.98,268.65L281.13,268.36L281.27,268.92L281.71,268.17L281.85,268.24L282,268.18L282.29,268.59L282.58,267.68L282.72,269.89L283.01,272.11L283.16,265.29L284.03,203.91L284.18,158.18L285.19,97.97L285.34,87.55L285.63,98.59L286.21,94.34L286.35,90.42L286.5,88.49L286.64,93.6L286.79,91.92L286.94,110.41L287.08,110.77L287.23,130.42L289.98,289.87L290.13,263.61L290.57,275.89L291,270.9L291.15,269.17L291.58,270.87L292.02,270.49L292.16,269.52L292.31,270.23L292.45,267.78L292.89,269.59L293.03,269.5L293.18,268.65L293.61,270.36L293.76,268.76L293.91,269.96L294.2,270.6L294.49,268.89L294.78,269.13L294.92,269.3L295.21,269.65L295.36,268.63L295.79,268.81L295.94,268.83L296.37,295.46L296.52,263.51L296.66,267.42L296.81,272.47L296.95,276.82L297.25,265.19L297.39,246.79L298.99,107.47L299.28,108.45L299.42,114.97L299.71,80.24L300.15,97.91L300.29,95.95L300.44,94.66L300.58,101.99L301.31,160.65L301.75,150.24L301.89,136.09L303.78,279.19L304.07,276.92L304.22,272.64L304.36,277.52L304.8,271.78L304.94,274.73L305.09,272.28L305.23,275.03L305.81,272.23L305.96,272L306.68,268.64L306.97,269.13L307.12,270.28L307.26,267.54L307.7,270.53L307.85,270.24L307.99,269.25L308.14,270.29L308.28,268.14L308.72,269.53L308.86,268.38L309.01,282.3L309.59,281.96L309.73,260.27L310.89,275.22L311.04,270.94L312.49,144.71L312.64,117.42L312.93,95.6L313.51,103.01L313.65,114.75L313.8,113.99L313.94,120.64L314.09,121.8L314.23,119.82L314.53,120.72L314.67,117.92L315.11,147.35L315.54,133.92L315.69,129.48L316.7,211.68L316.85,230.94L317.72,282.5L318.01,274.96L318.16,279.43L318.45,284.93L318.88,272.53L319.03,277.65L319.32,278.61L319.75,271.87L319.9,276.49L320.33,271.81L320.62,272.54L320.77,275.66L321.64,268.39L321.79,269.1L321.93,270.5L322.8,268.24L322.95,282.53L323.38,261.21L323.82,268.54L323.96,269.03L324.11,268.72L324.25,269.33L324.4,281.42L326.43,158.79L326.58,192.69L327.3,81.9L327.45,110.2L327.59,112.41L327.88,106.66L328.47,136.14L328.61,143.71L328.76,153.44L329.05,137.63L329.19,116.28L329.34,111.44L329.48,127.29L329.63,129.82L330.06,162.36L330.21,189.27L331.22,287.82L331.37,280.28L331.95,276.29L332.1,292.41L332.24,276.12L332.39,304L332.53,267.91L332.97,288.7L333.11,274.97L333.26,286.07L333.69,264.82L333.84,275.48L333.98,270.5L334.27,270.96L334.56,270.19L334.71,268.66L335,271.28L335.44,269.68L335.58,270.09L335.73,270.68L336.02,268.86L336.16,270.34L336.31,268.76L336.45,269.44L336.89,269.1L337.03,268.43L337.32,268.24L337.47,269.56L337.76,269.33L337.9,268.01L338.78,272.97L338.92,266.7L340.81,137.01L340.95,101.3L341.24,96.32L341.82,115.52L341.97,112.81L342.11,103.34L342.26,102.47L342.41,102.99L342.55,111.68L344.29,198.24L344.44,229L344.58,230.15L344.73,244.89L345.45,293.74L345.6,274.05L345.75,288.13L346.47,271.41L346.62,273.85L346.76,271.97L346.91,274.59L347.34,270.58L347.49,270.34L347.63,266.31L347.78,271.97L348.21,269.51L348.36,270.3L348.5,270.23L348.65,268.06L349.23,272.41L349.38,270.37L349.52,269.09L349.96,268.87L350.1,270.24L350.25,268.8L350.39,270.25L350.54,268.38L350.97,269.25L351.12,269.11L351.84,268.36L351.99,282.53L354.17,152.25L354.31,107.78L354.75,87.43L355.04,97.48L355.18,99.92L355.47,98.51L355.62,103.89L356.2,154.12L356.49,143.59L356.64,128.84L357.51,88.91L357.65,102.19L357.8,117.72L357.94,122.23L358.09,156.93L359.39,273.88L359.54,281.53L360.27,290.38L360.41,276.39L360.85,289.59L360.99,265.53L361.14,273.65L361.28,272.11L361.43,276.37L361.57,272.18L361.72,276.38L362.59,270.34L362.73,270.43L363.17,268.83L363.46,269.04L363.61,270.2L364.04,268.14L364.19,281.53L364.48,295.71L365.06,269.07L365.2,269.39L365.78,268.55L365.93,269.17L366.07,281.96L367.67,173.39L367.82,209.92L368.83,68.89L368.98,64.47L369.41,91.28L369.85,89.11L370,70.48L371.45,122.41L371.59,124.58L372.61,195.57L372.75,217.37L373.19,260.88L373.34,270.24L373.77,272.88L373.92,283.5L374.79,275.19L374.93,281.13L375.22,282.01L375.37,263.75L375.95,269.15L376.09,269.04L376.82,270.07L376.97,268.74L377.11,270.24L377.55,268.59L377.69,268.9L377.84,269.01L378.27,268.17L378.56,268.66L378.71,269.75L379.58,268.4L379.72,281.76L380.01,282.03L380.16,260.86L380.74,266.53L380.89,260.54L381.18,237.79L381.32,254.84L381.47,273.64L381.61,290.51L381.9,239.1L382.05,222.8L382.19,243.21L382.34,195.63L382.48,233.16L382.63,159.02L383.5,276.3L383.65,281.29L384.08,288.81L384.37,238.52L384.52,244.65L384.66,273.59L384.95,266.07L385.1,238.81L385.82,79.84L386.11,139.03L386.26,144.68L386.98,270.67L387.28,268.96L387.42,270.29L387.57,268.14L388.15,268.9L388.29,268.76L388.58,268.64L388.87,270.17L389.02,268.11L389.45,269.08L389.74,268.52L389.89,268.44L390.62,268.67L390.76,268.11L391.2,268.66L391.49,268.42L391.63,268.03L392.5,268.15L392.65,281.29L392.94,281.74L393.37,267.5L393.52,268.16L393.66,267.81L393.95,267.62L394.25,269.48L394.39,272.86L394.83,277.28L394.97,252.89L396.13,187.97L396.28,208.66L397,80.75L397.15,82.25L397.29,102.72L397.59,84.49L398.46,270.69L398.6,249.86L398.75,160.88L398.89,140.03L399.18,177.37L399.33,219.92L399.47,253.9L399.62,212.63L399.76,114.28L399.91,86L400.05,108.56L400.2,173.36L401.22,279.03L401.36,273.85L401.51,283.63L401.8,284.3L402.23,273.5L402.38,282.48L402.67,267.68L403.1,277.82L403.25,275.12L403.39,276.27L403.54,272.46L403.68,267.78L403.83,269.58L404.41,268.66L404.56,268.82L404.85,269.74L405.57,268.12L405.72,268.67L406.15,267.84L406.44,268.08L406.59,268.54L406.73,267.81L407.31,268.71L407.46,268.27L407.75,281.83L408.04,268.09L408.19,265.7L408.33,267.35L408.48,266.83L408.62,256.01L409.78,186.57L409.93,113.28L410.8,62.34L410.94,64.33L411.09,87.72L411.82,113.58L411.96,100.05L412.11,82.29L412.4,69.73L412.83,84.46L412.98,80.51L413.12,79.01L413.27,93.97L415.45,285.41L415.59,275.28L416.03,286.97L416.32,285.36L416.46,283.06L416.75,265.09L417.33,268.85L417.48,268.33L417.91,270.55L418.21,268.55L418.35,269.22L418.79,268.46L418.93,269.97L419.08,268.58L419.22,269.49L419.37,270.28L419.66,268.58L419.8,268.33L419.95,269.15L420.38,267.88L420.53,269.01L420.67,267.82L421.11,268.87L421.25,282.81L421.54,268.11L421.84,286.65L421.98,272.54L422.13,282.71L423.58,223.85L423.72,191.32L424.01,229.24L424.45,214.75L424.59,194.21L424.88,179.64L425.03,113.76L425.18,88.21L425.32,126.1L425.47,183.03L426.48,271.58L426.77,252.87L426.92,258.25L427.64,202.22L427.79,227.31L427.93,235.15L428.08,174.39L428.66,289.27L429.1,280.14L429.24,278.39L429.39,280.45L429.53,263.04L430.55,270.52L430.69,270.7L431.27,267.75L431.56,268.22L431.71,270.52L431.85,270.23L432,267.97" style="vector-effect: non-scaling-stroke; fill: none; stroke: rgb(0, 128, 0); stroke-opacity: 1; stroke-width: 2px; opacity: 1;"/></g><g class="points"/><g class="text"/></g></g></g><g class="overplot"/><path class="xlines-above crisp" d="M0,0" style="fill: none;"/><path class="ylines-above crisp" d="M0,0" style="fill: none;"/><g class="overlines-above"/><g class="xaxislayer-above"><g class="xtick"><text text-anchor="middle" x="0" y="433" transform="translate(149.7,0)" style="font-family: 'Open Sans', verdana, arial, sans-serif; font-size: 12px; fill: rgb(42, 63, 95); fill-opacity: 1; white-space: pre; opacity: 1;"><tspan class="line" dy="0em" x="0" y="433">Mar 6</tspan><tspan class="line" dy="1.3em" x="0" y="433">2022</tspan></text></g><g class="xtick"><text text-anchor="middle" x="0" y="433" style="font-family: 'Open Sans', verdana, arial, sans-serif; font-size: 12px; fill: rgb(42, 63, 95); fill-opacity: 1; white-space: pre; opacity: 1;" transform="translate(247.28,0)">Mar 13</text></g><g class="xtick"><text text-anchor="middle" x="0" y="433" style="font-family: 'Open Sans', verdana, arial, sans-serif; font-size: 12px; fill: rgb(42, 63, 95); fill-opacity: 1; white-space: pre; opacity: 1;" transform="translate(344.86,0)">Mar 20</text></g><g class="xtick"><text text-anchor="middle" x="0" y="433" style="font-family: 'Open Sans', verdana, arial, sans-serif; font-size: 12px; fill: rgb(42, 63, 95); fill-opacity: 1; white-space: pre; opacity: 1;" transform="translate(442.44,0)">Mar 27</text></g></g><g class="yaxislayer-above"><g class="ytick"><text text-anchor="end" x="79" y="4.199999999999999" transform="translate(0,382.18)" style="font-family: 'Open Sans', verdana, arial, sans-serif; font-size: 12px; fill: rgb(42, 63, 95); fill-opacity: 1; white-space: pre; opacity: 1;">−20</text></g><g class="ytick"><text text-anchor="end" x="79" y="4.199999999999999" style="font-family: 'Open Sans', verdana, arial, sans-serif; font-size: 12px; fill: rgb(42, 63, 95); fill-opacity: 1; white-space: pre; opacity: 1;" transform="translate(0,336.11)">0</text></g><g class="ytick"><text text-anchor="end" x="79" y="4.199999999999999" style="font-family: 'Open Sans', verdana, arial, sans-serif; font-size: 12px; fill: rgb(42, 63, 95); fill-opacity: 1; white-space: pre; opacity: 1;" transform="translate(0,290.03999999999996)">20</text></g><g class="ytick"><text text-anchor="end" x="79" y="4.199999999999999" style="font-family: 'Open Sans', verdana, arial, sans-serif; font-size: 12px; fill: rgb(42, 63, 95); fill-opacity: 1; white-space: pre; opacity: 1;" transform="translate(0,243.97)">40</text></g><g class="ytick"><text text-anchor="end" x="79" y="4.199999999999999" style="font-family: 'Open Sans', verdana, arial, sans-serif; font-size: 12px; fill: rgb(42, 63, 95); fill-opacity: 1; white-space: pre; opacity: 1;" transform="translate(0,197.89)">60</text></g><g class="ytick"><text text-anchor="end" x="79" y="4.199999999999999" style="font-family: 'Open Sans', verdana, arial, sans-serif; font-size: 12px; fill: rgb(42, 63, 95); fill-opacity: 1; white-space: pre; opacity: 1;" transform="translate(0,151.82)">80</text></g><g class="ytick"><text text-anchor="end" x="79" y="4.199999999999999" style="font-family: 'Open Sans', verdana, arial, sans-serif; font-size: 12px; fill: rgb(42, 63, 95); fill-opacity: 1; white-space: pre; opacity: 1;" transform="translate(0,105.75)">100</text></g></g><g class="overaxes-above"/></g></g><g class="polarlayer"/><g class="smithlayer"/><g class="ternarylayer"/><g class="geolayer"/><g class="funnelarealayer"/><g class="pielayer"/><g class="iciclelayer"/><g class="treemaplayer"/><g class="sunburstlayer"/><g class="glimages"/><defs id="topdefs-1c7a83"><g class="clips"/><clipPath id="legend1c7a83"><rect width="167" height="67" x="0" y="0"/></clipPath></defs><g class="layer-above"><g class="imagelayer"/><g class="shapelayer"/></g><g class="infolayer"><g class="legend" pointer-events="all" transform="translate(520.64,100)"><rect class="bg" shape-rendering="crispEdges" width="167" height="67" x="0" y="0" style="stroke: rgb(68, 68, 68); stroke-opacity: 1; fill: rgb(255, 255, 255); fill-opacity: 1; stroke-width: 0px;"/><g class="scrollbox" transform="" clip-path="url(#legend1c7a83)"><g class="groups"><g class="traces" transform="translate(0,14.5)" style="opacity: 1;"><text class="legendtext" text-anchor="start" x="40" y="4.680000000000001" style="font-family: 'Open Sans', verdana, arial, sans-serif; font-size: 12px; fill: rgb(42, 63, 95); fill-opacity: 1; white-space: pre;">BESS</text><g class="layers" style="opacity: 0.5;"><g class="legendfill"/><g class="legendlines"><path class="js-line" d="M5,0h30" style="fill: none; stroke: rgb(0, 191, 255); stroke-opacity: 1; stroke-width: 2px;"/></g><g class="legendsymbols"><g class="legendpoints"/></g></g><rect class="legendtoggle" x="0" y="-9.5" width="161.890625" height="19" style="fill: rgb(0, 0, 0); fill-opacity: 0;"/></g><g class="traces" transform="translate(0,33.5)" style="opacity: 1;"><text class="legendtext" text-anchor="start" x="40" y="4.680000000000001" style="font-family: 'Open Sans', verdana, arial, sans-serif; font-size: 12px; fill: rgb(42, 63, 95); fill-opacity: 1; white-space: pre;">Solar</text><g class="layers" style="opacity: 0.5;"><g class="legendfill"/><g class="legendlines"><path class="js-line" d="M5,0h30" style="fill: none; stroke: rgb(255, 0, 0); stroke-opacity: 1; stroke-width: 2px;"/></g><g class="legendsymbols"><g class="legendpoints"/></g></g><rect class="legendtoggle" x="0" y="-9.5" width="161.890625" height="19" style="fill: rgb(0, 0, 0); fill-opacity: 0;"/></g><g class="traces" transform="translate(0,52.5)" style="opacity: 1;"><text class="legendtext" text-anchor="start" x="40" y="4.680000000000001" style="font-family: 'Open Sans', verdana, arial, sans-serif; font-size: 12px; fill: rgb(42, 63, 95); fill-opacity: 1; white-space: pre;">Grid Meter (Net Load)</text><g class="layers" style="opacity: 0.5;"><g class="legendfill"/><g class="legendlines"><path class="js-line" d="M5,0h30" style="fill: none; stroke: rgb(0, 128, 0); stroke-opacity: 1; stroke-width: 2px;"/></g><g class="legendsymbols"><g class="legendpoints"/></g></g><rect class="legendtoggle" x="0" y="-9.5" width="161.890625" height="19" style="fill: rgb(0, 0, 0); fill-opacity: 0;"/></g></g></g><rect class="scrollbar" rx="20" ry="3" width="0" height="0" x="0" y="0" style="fill: rgb(128, 139, 164); fill-opacity: 1;"/></g><g class="g-gtitle"><text class="gtitle" x="296" y="50" text-anchor="middle" dy="0em" style="font-family: 'Open Sans', verdana, arial, sans-serif; font-size: 17px; fill: rgb(42, 63, 95); opacity: 1; font-weight: normal; white-space: pre;"><tspan class="line" dy="0em" x="296" y="50">Scenario 6</tspan><tspan class="line" dy="1.3em" x="296" y="50">Microgrid Output</tspan><tspan class="line" dy="2.6em" x="296" y="50">From: March 01, 2022 to March 31, 2022</tspan></text></g><g class="g-xtitle"><text class="xtitle" x="296" y="477.409375" text-anchor="middle" style="font-family: 'Open Sans', verdana, arial, sans-serif; font-size: 14px; fill: rgb(42, 63, 95); opacity: 1; font-weight: normal; white-space: pre;">Time</text></g><g class="g-ytitle"><text class="ytitle" transform="rotate(-90,33.60625,260)" x="33.60625" y="260" text-anchor="middle" style="font-family: 'Open Sans', verdana, arial, sans-serif; font-size: 14px; fill: rgb(42, 63, 95); opacity: 1; font-weight: normal; white-space: pre;">Demand (kW)</text></g></g></svg>