<svg class="main-svg" xmlns="http://www.w3.org/2000/svg" xmlns:xlink="http://www.w3.org/1999/xlink" width="700" height="500" style="" viewBox="0 0 700 500"><rect x="0" y="0" width="700" height="500" style="fill: rgb(255, 255, 255); fill-opacity: 1;"/><defs id="defs-9e61ca"><g class="clips"><clipPath id="clip9e61caxyplot" class="plotclip"><rect width="437" height="320"/></clipPath><clipPath class="axesclip" id="clip9e61cax"><rect x="80" y="0" width="437" height="500"/></clipPath><clipPath class="axesclip" id="clip9e61cay"><rect x="0" y="100" width="700" height="320"/></clipPath><clipPath class="axesclip" id="clip9e61caxy"><rect x="80" y="100" width="437" height="320"/></clipPath></g><g class="gradients"/><g class="patterns"/></defs><g class="bglayer"/><g class="layer-below"><g class="imagelayer"/><g class="shapelayer"/></g><g class="cartesianlayer"><g class="subplot xy"><g class="layer-subplot"><g class="shapelayer"/><g class="imagelayer"/></g><g class="minor-gridlayer"><g class="x"/><g class="y"/></g><g class="gridlayer"><g class="x"><path class="xgrid crisp" transform="translate(150.51,0)" d="M0,100v320" style="stroke: rgb(255, 255, 255); stroke-opacity: 1; stroke-width: 1px;"/><path class="xgrid crisp" transform="translate(249.22,0)" d="M0,100v320" style="stroke: rgb(255, 255, 255); stroke-opacity: 1; stroke-width: 1px;"/><path class="xgrid crisp" transform="translate(347.93,0)" d="M0,100v320" style="stroke: rgb(255, 255, 255); stroke-opacity: 1; stroke-width: 1px;"/><path class="xgrid crisp" transform="translate(446.64,0)" d="M0,100v320" style="stroke: rgb(255, 255, 255); stroke-opacity: 1; stroke-width: 1px;"/></g><g class="y"><path class="ygrid crisp" transform="translate(0,382.18)" d="M80,0h437" style="stroke: rgb(255, 255, 255); stroke-opacity: 1; stroke-width: 1px;"/><path class="ygrid crisp" transform="translate(0,290.03999999999996)" d="M80,0h437" style="stroke: rgb(255, 255, 255); stroke-opacity: 1; stroke-width: 1px;"/><path class="ygrid crisp" transform="translate(0,243.97)" d="M80,0h437" style="stroke: rgb(255, 255, 255); stroke-opacity: 1; stroke-width: 1px;"/><path class="ygrid crisp" transform="translate(0,197.89)" d="M80,0h437" style="stroke: rgb(255, 255, 255); stroke-opacity: 1; stroke-width: 1px;"/><path class="ygrid crisp" transform="translate(0,151.82)" d="M80,0h437" style="stroke: rgb(255, 255, 255); stroke-opacity: 1; stroke-width: 1px;"/><path class="ygrid crisp" transform="translate(0,105.75)" d="M80,0h437" style="stroke: rgb(255, 255, 255); stroke-opacity: 1; stroke-width: 1px;"/></g></g><g class="zerolinelayer"><path class="yzl zl crisp" transform="translate(0,336.11)" d="M80,0h437" style="stroke: rgb(255, 255, 255); stroke-opacity: 1; stroke-width: 2px;"/></g><path class="xlines-below"/><path class="ylines-below"/><g class="overlines-below"/><g class="xaxislayer-below"/><g class="yaxislayer-below"/><g class="overaxes-below"/><g class="plot" transform="translate(80,100)" clip-path="url(#clip9e61caxyplot)"><g class="scatterlayer mlayer"><g class="trace scatter tracef2d3b4" style="stroke-miterlimit: 2; opacity: 0.5;"><g class="fills"/><g class="errorbars"/><g class="lines"><path class="js-line" d="M0,236.11L0.59,236.11L0.73,237.38L1.62,236.11L1.76,247.7L2.64,236.11L2.79,247.04L3.38,247.17L3.67,236.11L3.82,236.11L4.11,243.64L4.55,236.11L4.7,226.83L5.73,165.74L5.88,172.71L6.02,223.97L6.17,122.73L6.61,210.27L6.76,139.32L6.9,211.91L7.49,197.57L7.64,167.59L7.93,165.55L8.37,190.13L8.52,188.9L8.67,195.7L9.99,262.89L10.28,257.66L10.43,262.52L11.31,236.11L11.46,241.4L12.34,236.11L12.49,236.11L12.63,236.82L13.22,236.11L13.37,236.11L17.19,236.11L17.33,246.99L17.63,247.28L18.21,236.11L18.36,236.11L18.51,236.11L18.66,223.02L18.8,229.11L19.1,212.54L19.24,197.83L20.42,154.65L20.56,174.99L22.03,236.11L22.18,236.11L23.94,236.11L24.09,249.78L24.24,246.77L24.38,260.25L25.27,241.43L25.41,249.58L26.29,236.22L26.44,237L27.32,236.11L27.47,236.11L31.29,236.11L31.43,247L32.32,236.11L32.46,236.11L33.78,153.58L33.93,217.23L34.81,236.11L34.96,236.11L38.19,236.11L38.34,245.53L38.93,236.11L39.22,236.51L39.37,236.11L40.1,236.92L40.25,236.31L40.39,237.93L40.69,236.11L40.98,236.11L41.13,236.11L41.42,237.4L41.86,236.11L42.01,236.11L44.36,236.11L44.51,247.56L44.8,247.69L45.39,236.11L45.54,236.11L45.83,236.11L45.98,246.79L46.56,236.11L46.71,239.45L46.86,241.06L47.3,236.11L47.45,208.42L47.59,208.83L47.74,231.02L47.89,167.78L48.18,237.01L48.47,236.11L48.62,236.11L48.91,236.11L49.06,251.1L49.21,250.34L49.36,238.73L49.8,236.11L49.94,240.93L50.09,261.61L50.97,237.71L51.12,239.68L51.26,255.63L51.85,249.3L52,242.06L52.44,236.11L52.88,236.52L53.03,236.48L53.17,236.2L53.32,248.38L53.47,239.18L53.62,248.44L53.76,240.26L53.91,259.73L54.64,241.33L54.79,247.71L55.67,236.11L55.82,236.11L58.17,236.11L58.32,247.85L58.61,247.86L59.2,236.11L59.34,236.11L60.81,235.45L60.96,233.14L61.11,226.57L61.25,233.89L61.4,158.45L61.55,230.25L61.99,143.48L62.13,213.18L62.28,161.9L62.72,292.83L62.87,104.38L63.02,276.62L63.16,71.52L63.31,268.11L63.9,236.11L64.04,236.11L65.37,236.11L65.51,242.76L66.25,236.11L66.39,242.51L67.28,236.11L67.42,236.11L70.8,236.11L70.95,247.5L71.24,247.67L71.83,236.11L71.98,236.11L74.77,236.11L74.91,231.14L75.06,217.46L75.5,236.11L75.65,236.11L80.79,236.11L80.94,237.95L81.82,236.11L81.97,236.11L88.28,236.11L88.43,240.49L88.72,241.67L89.02,227.99L89.16,233.59L89.31,211.75L90.19,236.11L90.34,236.11L94.74,236.11L94.89,248.25L95.77,236.11L95.92,236.11L96.8,244.77L96.95,238.28L97.24,238.13L97.39,244.61L97.54,238.24L97.68,236.11L102.97,236.11L103.12,230.52L103.85,194.88L104,226.91L104.88,236.11L105.03,236.11L108.99,236.11L109.14,238.66L109.73,236.13L110.02,236.66L110.17,236.11L116.48,236.11L116.63,240.33L117.51,236.11L117.66,236.11L122.8,236.33L122.95,237.27L123.39,247.35L123.68,237.49L123.83,236.11L123.98,238.21L124.56,237.61L124.71,236.49L125.59,236.11L125.74,247.8L125.89,239.03L126.03,248.01L126.47,239.92L126.62,247.58L127.5,236.11L127.65,236.11L129.7,236.11L129.85,247.45L130.73,236.11L130.88,236.11L131.17,236.11L131.32,235.2L132.2,180.29L132.35,224.18L133.23,236.11L133.38,236.11L136.76,236.11L136.9,244.45L137.05,261.29L137.49,240.42L137.64,236.45L138.37,236.22L138.52,245.15L138.81,236.35L138.96,248.39L139.11,239.18L139.25,247.77L139.4,239.48L139.55,247.96L139.99,240.49L140.13,247.45L141.02,236.11L141.16,236.11L143.22,236.11L143.37,248.25L143.95,236.31L144.25,238.97L144.39,247.28L146.45,164.39L146.6,220.96L147.48,236.11L147.63,236.11L151,236.11L151.15,249.69L151.44,252.37L152.03,238.13L152.18,244.69L153.06,236.11L153.21,236.11L159.38,236.11L159.52,225.39L159.96,184.59L160.11,224.97L160.26,236.11L165.25,236.11L165.4,245.81L165.84,236.4L165.99,249.92L166.13,239.56L166.28,263.08L166.57,263.79L167.01,242.35L167.16,249.04L168.04,236.11L168.19,236.11L169.22,236.11L169.37,247.45L169.81,239L169.95,247.46L170.1,239.66L170.25,246.86L171.13,236.11L171.27,236.11L172.3,236.11L172.45,246.45L172.89,253.26L173.33,238.82L173.48,243.16L174.36,198.42L174.51,202.23L174.65,179.8L174.8,191.04L174.95,155.02L175.09,171.13L175.24,147.08L176.12,236.11L176.27,236.11L179.94,236.11L180.09,242.86L180.68,246.79L180.97,245.4L181.12,245.54L182.14,236.11L182.29,236.11L182.44,236.11L182.59,237.24L183.47,236.11L183.61,236.11L186.7,236.11L186.85,246.75L187.73,238.25L187.87,236.51L188.17,236.11L188.31,232.82L188.9,198.16L189.05,228.13L189.2,236.11L193.46,236.11L193.6,262.86L193.75,242.8L193.9,265.08L194.34,257.45L194.48,248.56L194.63,269.2L195.07,242.07L195.22,257.25L195.36,241.4L195.51,260.01L196.1,240.55L196.25,239.53L196.54,242.23L197.27,236.11L197.42,236.11L197.71,236.11L197.86,237.18L198.74,236.11L198.89,236.11L199.77,236.11L199.92,247.49L200.8,236.11L200.95,236.11L201.53,236.68L201.68,251.95L203.3,185.36L203.44,191.13L203.88,157.02L204.03,165.59L204.18,222.72L205.06,236.11L205.21,236.11L207.56,236.11L207.7,244.42L208,236.11L208.29,250.15L208.44,239.83L208.58,249.41L208.73,239.42L209.32,245.48L209.47,250.04L210.05,251.79L210.2,240L210.35,242.04L210.94,236.11L211.23,236.14L211.38,236.11L212.4,236.11L212.55,236.11L215.49,236.11L215.64,241.13L216.08,236.25L216.22,242.67L216.96,214.69L217.1,216.39L217.25,193.14L217.55,164.65L217.69,170.25L217.84,223.47L218.72,236.11L218.87,236.11L222.1,236.11L222.25,237.33L223.13,248.77L223.27,239.14L223.42,251.68L224.01,250.25L224.16,240.98L224.3,248.63L224.74,237.18L224.89,241.9L225.04,237.56L225.92,236.11L226.06,236.11L228.27,236.11L228.42,247.05L228.71,247.96L229.3,236.11L229.44,236.11L229.59,236.11L229.74,240.54L229.88,254.58L230.32,238.99L230.47,236.11L231.5,185.36L231.65,191.84L231.79,174.94L231.94,222.91L232.09,236.11L235.91,236.11L236.05,238.92L236.2,237.88L236.35,253.29L236.64,255.5L237.38,238.49L237.52,242.21L237.96,236.58L238.4,237.54L238.55,236.69L238.99,236.19L239.14,237.36L239.29,236.42L239.43,237.26L239.87,236.34L240.02,236.11L242.96,236.11L243.1,247.43L243.4,236.11L243.69,251.7L243.84,253.69L244.13,266.28L244.28,242.61L245.75,175.8L245.9,224.05L246.78,236.11L246.92,236.11L250.6,236.11L250.74,245.91L250.89,238.56L251.33,247.6L251.48,238.98L251.62,243.43L252.21,236.65L252.36,237.12L252.51,238.76L252.8,239.79L253.24,236.11L253.39,237.91L254.12,236.11L254.27,237.32L255.15,236.11L255.3,236.11L256.03,236.11L256.18,248.78L257.06,236.11L257.21,236.11L258.38,236.11L258.53,216.63L258.82,235.42L258.97,217.2L259.12,181.97L260,236.11L260.14,236.11L264.55,236.11L264.7,245.53L264.99,250.8L265.43,239.19L265.58,249.26L266.17,236.11L266.61,236.89L266.75,236.27L267.05,236.12L267.19,237.58L268.08,236.11L268.22,238.19L269.1,236.11L269.25,236.11L270.13,236.11L270.28,236.11L271.45,236.11L271.6,247.79L271.89,247.95L272.48,235.22L272.63,235.89L272.92,188.84L273.07,224.82L273.36,227.13L273.66,166.67L273.8,220.36L273.95,236.11L278.8,236.11L278.95,247.9L279.53,237.35L279.83,237.58L279.97,244.67L280.86,236.11L281,236.11L283.35,236.11L283.5,248.04L284.38,236.11L284.53,236.11L286,236.11L286.14,243.97L287.32,200.62L287.47,228.58L288.35,236.11L288.49,236.11L292.75,236.11L292.9,244.55L293.19,255.7L293.34,243.71L293.49,258.28L293.93,237.98L294.08,240.01L294.37,246L294.81,236.72L294.96,240.3L295.25,236.11L295.84,236.86L295.98,236.11L296.87,236.11L297.01,237.71L297.89,236.11L298.04,236.11L299.51,236.11L299.66,261.03L299.95,261.69L300.39,238.26L300.54,240.66L300.69,237.25L300.98,230.99L301.13,219.61L301.27,222.32L301.42,209.67L301.57,217.65L301.71,197.27L301.86,192.57L302.15,173.78L302.3,223.65L302.45,236.11L306.85,236.11L307,236.87L307.15,247.95L307.74,247.15L307.88,238.87L308.03,243.8L308.47,237.54L308.62,240.67L308.76,239.28L309.5,237L309.65,238.55L309.94,236.23L310.53,236.28L310.67,239.48L311.26,236.11L311.56,236.26L311.7,238.77L312.58,236.11L312.73,248.42L313.02,248.7L313.61,236.11L313.76,236.11L314.2,236.11L314.35,241.27L315.08,230.5L315.23,216.73L315.96,184.8L316.11,224.61L316.99,236.11L317.14,236.11L320.96,236.11L321.1,240.04L321.69,253.07L321.98,251.18L322.13,239.88L322.28,248.39L322.72,239.05L322.87,247.5L323.01,238.96L323.6,237.78L323.75,247.82L323.89,239.04L324.04,242.14L324.19,237.62L324.48,239.8L324.63,238.25L325.51,236.11L325.66,238.45L326.54,236.11L326.69,236.11L326.83,247.33L327.42,236.11L327.57,236.11L328.15,236.11L328.3,247.48L330.06,158.94L330.21,196.68L330.36,148.09L330.65,236.11L330.8,236.11L330.94,236.11L334.91,236.11L335.06,238.33L335.2,264.18L335.79,258.65L335.94,241.75L336.38,269.64L336.67,256.03L336.82,241.09L336.97,257.66L337.55,245.2L337.7,238.17L338.14,240.02L338.58,236.21L338.73,237.01L339.46,236.11L339.61,236.18L339.76,236.13L339.91,236.11L340.05,236.94L340.93,236.11L341.08,236.11L342.4,236.11L342.55,239.48L343.14,236.11L343.28,226.42L344.17,172.58L344.31,186.55L344.46,193.26L345.34,236.11L345.49,236.11L349.01,236.11L349.16,242.99L349.6,266.13L349.75,242.93L349.89,252.98L350.04,240.33L350.63,237.69L350.78,244.58L350.92,238.23L351.36,236.67L351.51,245.99L351.66,238.58L351.8,237.31L351.95,240.69L352.24,236.11L352.54,238.61L352.68,236.74L352.98,236.23L353.13,238.35L354.01,236.11L354.15,236.73L354.45,237.02L355.03,236.11L355.18,236.11L356.06,236.11L356.21,247.4L356.8,236.11L357.09,236.67L357.24,235.25L358.12,158.34L358.27,185L358.41,227.89L359.29,236.11L359.44,236.11L363.11,236.11L363.26,254.12L363.41,240.62L364,253.05L364.14,247.93L364.44,241.73L364.58,262.85L364.88,254.01L365.02,245.06L365.17,254.72L365.61,237.85L365.76,243.21L366.64,236.71L366.79,236.11L366.93,237.31L367.52,236.28L367.67,236.15L368.4,236.11L368.55,247.26L368.84,262.63L369.43,236.11L369.58,236.11L370.31,236.11L370.46,248.49L370.75,248.61L371.49,214.82L371.63,228.16L372.37,143.32L372.66,149.7L372.81,167.87L373.69,236.11L373.84,236.11L377.8,236.61L377.95,239.62L378.24,236.8L378.39,246.94L378.98,240.66L379.13,246.67L379.42,247.08L380.01,236.11L380.15,236.11L384.12,236.11L384.27,247.46L385.15,237.01L385.29,236.11L385.59,236.11L385.74,217.62L385.88,260.7L386.32,209.02L386.47,243.9L386.62,178.83L386.76,241.41L386.91,168.85L387.5,237.45L387.64,236.11L387.79,236.11L387.94,249L388.09,249.76L388.23,238.72L388.38,236.11L388.53,262.83L388.82,208.05L389.11,236.95L389.26,248.04L389.55,250.18L389.7,202.5L389.85,138.68L390.73,236.11L390.88,236.11L391.46,241.16L391.61,237.37L391.76,236.11L391.9,238.48L392.49,236.11L392.64,236.11L397.19,236.11L397.34,247.26L398.22,236.11L398.37,236.11L398.81,236.11L398.96,241.72L399.54,236.11L399.69,225.8L399.98,243.27L400.13,205.85L400.57,193.8L401.01,236.11L401.16,236.11L403.07,236.11L403.22,238.73L404.1,236.11L404.24,236.11L405.86,236.11L406.01,248.84L406.15,239.3L406.59,250.21L406.74,239.64L406.89,248.95L407.18,251.73L407.47,236.11L407.62,242.72L407.77,240.85L407.92,242.52L408.21,239.17L408.36,236.69L409.24,236.11L409.38,236.11L412.47,236.11L412.62,247.29L413.5,236.11L413.64,236.11L413.79,234.01L413.94,219.22L414.53,185.3L414.67,225.6L415.55,236.11L415.7,236.11L420.25,236.84L420.4,253.05L420.55,240.31L421.14,251.74L421.28,245.28L422.6,236.11L422.75,237.1L423.63,236.11L423.78,236.11L426.13,236.11L426.28,246.76L426.57,236.51L426.86,251.16L427.01,239.13L427.16,250.53L428.19,236.11L428.33,236.11L428.63,194.73L428.92,218.84L429.07,227.91L429.8,163.25L429.95,220.37L430.83,236.11L430.98,236.11L431.27,236.11L431.42,243.84L432.3,236.11L432.45,236.11L433.18,236.11L433.33,240.49L433.77,258.23L434.06,244.14L434.21,246.38L435.24,236.11L435.38,236.11L436.71,236.11L436.85,237.89L437,236.56" style="vector-effect: non-scaling-stroke; fill: none; stroke: rgb(0, 191, 255); stroke-opacity: 1; stroke-width: 2px; opacity: 1;"/></g><g class="points"/><g class="text"/></g><g class="trace scatter trace7fa3e3" style="stroke-miterlimit: 2; opacity: 0.5;"><g class="fills"/><g class="errorbars"/><g class="lines"><path class="js-line" d="M0,236.38L3.53,236.28L3.67,235.38L4.11,219.92L4.26,207.58L5.73,29.36L5.88,37.99L6.02,86.7L6.17,16.49L6.9,16.58L7.05,16.63L8.23,16.8L8.37,17.97L8.96,68.59L9.11,88.24L10.87,236.4L11.02,236.39L17.63,236.22L17.77,235.13L18.36,206.28L18.51,186.1L20.27,16.79L20.42,16.8L21.59,16.93L21.74,16.98L22.03,17.12L22.18,18.45L22.47,28.61L22.62,53.85L22.77,47.72L22.91,57.65L23.06,78.65L24.97,236.4L25.12,236.39L31.73,235.68L31.88,232.68L32.61,185.77L32.76,171.05L34.08,25.57L34.23,49.18L34.52,64.24L34.67,30.24L34.81,16.68L35.11,33.53L35.25,28.98L35.4,36.56L35.99,16.55L36.14,17.42L36.28,24.52L38.93,236.4L39.07,236.39L45.83,236.27L45.98,235.17L47.3,165.26L47.45,130.87L48.33,39.34L48.47,41.85L48.62,123.83L49.06,187.27L49.5,161.35L49.65,163.54L50.68,217.5L50.82,213.89L50.97,214.19L51.41,223.74L51.56,208.95L51.85,224.42L52,214.81L52.15,211.62L53.17,236.39L53.32,236.39L59.93,236.18L60.08,234.27L61.25,172.19L61.4,110.09L61.55,137.84L61.84,106.91L61.99,63.74L62.13,64.9L62.28,79.8L62.43,88.35L62.58,50.84L62.72,148.68L63.16,23.11L63.31,62.34L63.46,102.4L63.6,99.69L63.75,134.62L64.04,55.67L64.34,101.75L64.49,144.76L64.63,144.43L64.78,166.56L65.51,225.58L65.95,223.35L66.1,213.39L66.25,214.72L66.39,225.41L67.42,236.39L67.57,236.39L74.03,235.88L74.18,233.65L74.77,194.93L74.91,173.54L76.53,16.29L76.68,16.41L76.82,16.43L78.88,16.71L79.03,19.21L80.2,159.87L80.35,181.87L81.23,236.4L81.38,236.39L81.52,236.38L88.13,235.89L88.28,233.96L88.87,194.46L89.02,173.61L90.48,16.37L90.93,16.56L91.07,16.57L92.54,16.59L92.69,16.51L93.13,16.7L93.28,19.97L95.33,236.4L95.63,236.38L95.77,236.38L102.24,235.86L102.38,234.35L102.97,198.02L103.12,175.11L104.59,16.33L104.88,16.38L105.03,16.36L107.08,16.49L107.23,17.71L107.82,73.8L107.96,93.31L109.58,236.4L109.73,236.38L116.19,236.3L116.34,235.63L116.78,222.25L116.93,211.93L118.98,16.35L119.13,16.42L119.28,16.43L120.89,16.67L121.04,16.61L121.18,17.12L121.33,21.6L123.68,236.4L123.83,236.38L123.98,236.38L130.44,236.25L130.59,233.58L133.08,16.08L133.38,16.16L133.52,16.21L133.82,44.98L133.96,21.94L134.11,16.25L134.41,16.24L134.55,18.03L134.7,24.31L134.99,16.3L135.14,16.32L135.29,16.26L135.43,16.57L135.58,20.16L136.76,173.15L136.9,197.22L137.78,236.4L137.93,236.38L144.39,236.29L144.54,235.5L144.98,221.08L145.13,209.63L147.18,16.23L147.33,16.29L148.95,16.32L149.09,16.38L149.53,16.8L149.68,20.32L151.15,212.9L151.3,228.62L151.89,236.4L152.18,236.38L152.33,236.38L158.5,236.27L158.64,235.48L159.08,220.3L159.23,208.54L160.99,16.33L161.29,16.39L161.43,16.43L162.75,16.63L162.9,16.8L163.49,16.64L163.64,17.88L164.37,91.38L164.52,111.74L165.99,236.4L166.13,236.39L173.18,236.17L173.33,234.86L173.92,202.72L174.07,185.14L175.68,16.8L175.98,17.17L176.12,20.32L176.42,16.38L177.15,16.53L177.3,16.88L177.44,18.22L177.74,16.48L177.88,16.49L178.03,16.49L178.18,16.62L178.33,19.2L179.5,155.29L179.65,175.59L180.68,236.4L180.82,236.39L187.29,236.29L187.43,235.1L188.02,202.09L188.17,183.81L189.78,16.1L190.08,16.35L190.22,16.39L191.99,16.83L192.13,16.85L192.28,17.31L192.43,21.17L193.9,193.09L194.04,213.92L194.78,236.4L194.92,236.39L195.07,236.39L201.39,236.19L201.53,234.73L202.27,186.58L202.42,165.22L204.03,16.36L204.18,16.43L204.33,16.48L205.35,16.69L205.5,16.76L206.38,17.05L206.53,22.06L208.58,236.37L208.73,236.4L215.49,236.09L215.64,234.1L216.37,185.12L216.52,165.05L218.13,16.1L218.28,16.13L218.43,16.32L220.48,16.85L220.63,19.88L221.81,156.88L221.95,177.29L222.98,236.4L223.13,236.39L223.27,236.38L229.59,236.2L229.74,234.87L230.32,203.07L230.47,182.05L232.23,17.08L232.38,18.05L232.53,23.3L232.82,16.3L232.97,16.51L233.12,16.56L234.14,16.7L234.29,18.34L234.58,18.18L235.17,57.3L235.32,70.76L236.93,236.4L237.08,236.39L243.69,235.92L243.84,233.91L244.43,200.69L244.57,180.42L246.19,16.39L246.48,16.55L246.63,16.56L248.69,17.17L248.83,20.86L250.01,153.87L250.15,173.86L251.18,236.4L251.33,236.39L251.48,236.39L257.79,235.79L257.94,232.5L258.97,163.82L259.12,114.2L259.26,115.68L259.41,112.38L259.56,70.58L260.29,16L260.88,16.33L261.02,16.32L262.49,16.9L262.64,20.1L263.08,49.12L263.23,87.03L264.4,211.32L264.55,219.25L265.14,236.4L265.58,236.38L265.73,236.38L271.89,235.94L272.04,232.23L272.92,138.53L273.22,157.94L273.36,167.63L274.39,18.04L274.69,30.8L274.83,36.28L274.98,16.23L275.71,16.37L275.86,23.3L276.01,45.77L276.45,16.43L276.6,17.64L276.89,16.27L277.48,48.72L277.62,65.74L279.39,236.4L279.53,236.39L279.68,236.38L285.85,236.27L286,235.06L286.73,192.85L286.88,173.37L288.64,16.39L288.79,16.44L288.93,16.45L290.26,16.78L290.4,18.02L290.55,22.89L290.99,16.71L291.14,17.61L291.73,65.18L291.87,85.4L293.63,236.39L293.78,236.39L300.1,235.61L300.24,233.29L300.83,195.24L300.98,173.26L302.74,16.28L302.89,16.65L305.24,16.86L305.39,19.51L306.56,161.43L306.71,182.05L307.74,236.4L307.88,236.4L314.2,235.65L314.35,233.15L314.93,192.99L315.08,171.01L316.7,16.3L316.84,16.4L316.99,16.46L318.61,16.82L318.75,16.89L319.19,16.75L319.34,18.05L320.07,86.38L320.22,106.45L321.84,236.4L321.98,236.4L328.15,236.25L328.3,235.33L328.74,219.26L328.89,206.72L330.94,16.45L331.09,16.54L332.27,16.84L332.41,17.01L333.3,17.02L333.44,17.94L334.03,68.67L334.18,86.37L335.94,236.4L336.09,236.39L342.26,236.14L342.4,235.01L342.99,205.7L343.14,189.66L344.9,17.37L345.05,18.21L345.19,16.63L345.49,20.42L345.63,16.67L346.37,17.54L346.52,19.42L346.66,17.18L347.1,21.8L347.25,18.24L347.4,22.99L347.69,40.95L347.84,57.6L347.98,54.9L348.13,83.73L348.57,120.46L348.72,140.88L350.04,236.4L350.19,236.39L356.36,236.29L356.5,235.34L356.94,222.38L357.09,207.09L358.85,16.32L359,16.36L360.18,16.4L360.32,16.35L361.65,17.24L361.79,21.88L364.14,236.4L364.29,236.39L364.44,236.38L370.46,236.3L370.61,235.22L371.05,195.99L371.19,177.09L372.96,16.18L373.25,16.26L373.4,16.25L375.75,16.74L375.89,19.5L376.92,139.61L377.07,160.56L378.24,236.4L378.39,236.39L384.56,236.32L384.71,235.52L385.44,199.61L385.59,182.79L385.88,209.36L386.18,149.31L386.32,77.62L386.47,111.78L386.62,68.44L386.91,71.51L387.06,68.94L387.35,213.11L387.94,211.47L388.09,217.79L388.82,109.8L388.97,136.05L389.11,181.64L389.26,185.51L389.41,173.41L389.55,180.17L389.7,125.89L390.29,20.68L390.44,31.07L390.58,74.22L390.88,150.05L391.02,205.26L392.05,236.39L392.2,236.38L398.81,236.29L398.96,235.18L399.4,210.44L399.54,177.67L399.98,192.29L400.57,98.78L400.72,103.77L400.86,133.53L401.01,64.84L401.16,36.5L401.45,48.25L401.6,16.36L401.75,16.64L401.89,28.84L402.19,17.61L403.07,191.25L403.22,169.89L403.51,20.61L403.95,126.29L404.1,170.85L404.54,26.12L404.83,122.55L404.98,161.23L405.27,131.87L405.57,187.58L405.71,211.4L406.3,236.4L406.59,236.38L406.74,236.38L412.62,236.32L412.76,235.56L413.2,217.12L413.35,205.38L413.79,151.85L413.94,130.19L415.11,16.34L415.26,16.35L416.58,16.52L416.73,16.47L417.32,16.57L417.46,17.56L418.2,40.58L418.34,39.39L418.49,74.95L418.64,56.33L418.79,80.79L418.93,122.03L420.4,236.4L420.55,236.39L420.7,236.38L427.01,236.12L427.16,234.98L427.89,185.92L428.04,174.13L428.63,81.69L428.92,120.06L429.07,118.15L429.66,74.34L429.8,44.46L430.1,32.4L430.24,65.12L431.27,159.86L431.42,159.98L431.86,171.76L432.01,151.01L432.3,154.33L432.59,134.15L432.74,141.87L432.89,148.45L433.03,96.96L433.47,210.4L433.62,222.37L434.5,236.38L434.65,236.38L437,236.38" style="vector-effect: non-scaling-stroke; fill: none; stroke: rgb(255, 0, 0); stroke-opacity: 1; stroke-width: 2px; opacity: 1;"/></g><g class="points"/><g class="text"/></g><g class="trace scatter tracec97587" style="stroke-miterlimit: 2; opacity: 0.5;"><g class="fills"/><g class="errorbars"/><g class="lines"><path class="js-line" d="M0,268.53L0.73,270.22L0.88,268.3L1.03,269.14L1.18,268.1L1.47,268.1L1.62,281.26L2.2,267.65L2.5,267.8L2.64,281.99L3.38,260.55L3.53,265.28L3.67,267.62L3.82,277.08L4.26,272.87L4.41,254.67L5.58,174.97L5.73,175.86L5.88,180.14L6.02,173.96L6.17,221L6.32,138.35L6.76,227.01L6.9,166.35L7.05,202.78L7.2,161.86L7.79,164.56L7.93,172.34L8.08,167.88L8.23,183.26L8.37,184.23L10.14,299.03L10.28,292.12L10.43,276.48L10.72,273L10.87,278.64L11.02,271.62L11.16,272.9L11.46,270.36L11.6,268.37L11.9,271.78L12.34,270.28L12.49,270.59L12.63,270.73L12.78,270.25L12.93,268.68L13.07,269.75L13.51,268.23L13.66,269.16L13.81,268.23L14.1,269.56L14.25,268.14L14.4,269.13L14.98,268.78L15.13,268.62L16.01,268.61L16.16,267.88L16.6,268.34L17.04,267.68L17.19,280.88L17.48,281.57L20.27,155.52L20.42,171.96L20.56,185.4L21.01,181.44L21.15,148.41L21.74,89.63L22.03,107.59L22.18,132.14L23.5,224.23L23.65,220.43L24.38,295.09L24.68,286.04L24.82,281.22L25.12,278.21L25.27,284.53L25.41,275.99L25.56,283.71L25.85,268.23L26,267.08L26.73,270.79L26.88,270.77L27.03,269.57L27.17,268.52L27.76,269.59L27.91,262.16L28.06,242.6L28.5,269.46L28.64,268.26L29.38,269.04L29.53,268.17L29.67,268.76L30.11,268L30.26,268.53L30.41,268.28L31.14,267.9L31.29,281.49L32.46,237.83L32.61,244.7L32.76,239.83L34.08,113.95L34.37,133.14L34.52,138.37L35.25,82.51L35.55,82.53L35.69,82.24L35.84,85.1L35.99,78.57L36.14,98.25L36.72,186.25L36.87,224.65L37.02,200.48L37.6,206.59L37.75,209.38L38.49,277.48L38.78,269.05L38.93,269.48L39.37,268.82L39.66,271.31L39.81,270.2L40.25,268.62L40.39,270.48L40.54,269.39L40.69,270.08L40.84,268.63L41.28,270.23L41.42,270.57L41.86,268.44L42.16,268.52L42.3,270.46L42.6,268.02L42.89,269.88L43.04,269.49L44.07,268.1L44.21,268.98L44.65,281.54L44.8,273.35L44.95,268.11L45.39,268.39L45.54,267.75L45.68,268.2L45.83,280.9L46.27,262.36L46.71,272.52L46.86,272.73L48.33,105.29L48.47,111.12L48.62,202.03L49.06,286.99L49.5,255.98L49.65,253.03L49.8,247.42L49.94,287.87L50.09,264.55L50.68,278.84L50.82,272.2L50.97,271.89L51.12,287.27L51.41,287.41L52.29,257.06L52.44,270.36L52.73,271.57L52.88,268.32L53.03,270.67L53.17,283.62L53.32,273.62L53.62,274.01L53.76,295.98L54.5,266.43L54.64,280.14L54.79,273.53L54.94,282.06L55.23,268.85L55.38,269.13L55.52,268.37L55.67,269.07L55.82,268.16L56.26,268.65L56.41,268.9L56.85,268.2L56.99,268.61L57.14,269.1L57.29,269.51L57.43,268.48L57.58,268.84L57.73,268.44L57.87,268.22L58.02,268.78L58.17,281.56L58.46,282.26L59.05,268.4L59.2,268.03L59.93,267.95L60.08,265.79L61.25,210.27L61.4,236.86L62.13,157.12L62.28,223.56L62.58,235.37L62.72,161.07L62.87,288.41L63.02,105.78L63.6,163.42L63.75,194.17L64.04,125.85L64.49,185.24L64.63,182.69L65.66,276.37L65.95,274.11L66.1,266.08L66.39,272.35L66.54,265.66L66.84,270.65L66.98,268.64L67.42,268.17L67.86,268.4L68.01,268.65L68.89,269.11L69.04,268.89L69.19,268.66L69.92,268.92L70.07,268.21L70.51,268.88L70.65,268.03L70.8,282.14L71.54,267.17L71.68,267.46L71.83,268.12L73.15,267.25L73.3,267.53L74.18,264.75L74.33,258.89L74.47,265.91L74.77,246.53L74.91,230.58L75.06,236.06L75.21,200.2L76.38,53.6L76.53,53.85L76.68,57.42L76.82,55.41L76.97,66.5L77.85,88.4L78,87.32L78.15,73.56L78.59,70.13L78.73,71.15L78.88,83.13L79.03,78.25L79.17,90.5L79.32,100.34L80.94,270.33L81.38,268.64L81.52,269.78L82.41,268.6L82.55,268.67L82.85,269.43L83.14,269.14L83.29,268.62L84.17,269.15L84.32,268.5L84.46,268.93L84.61,268.08L84.9,268.47L85.05,268.17L85.49,269.05L85.78,268.6L85.93,267.71L86.08,266.9L86.52,267.95L86.67,267.2L86.81,267.49L87.99,267.27L88.13,266.7L88.28,278.56L88.72,269.67L88.87,246.29L89.02,243.97L89.16,223.91L89.31,227.59L89.46,211.5L90.48,81.6L90.78,95.2L90.93,99.08L91.07,98.41L91.22,112.2L91.37,112.7L91.51,101.42L91.66,89.2L91.95,103.77L92.25,92.06L92.39,93.86L92.54,93.87L92.69,108.86L92.98,93.33L93.28,111.61L93.42,128.49L94.74,270.4L95.33,268.11L95.48,269.62L95.92,268.54L96.07,271.02L96.36,278.99L96.65,278.82L96.8,272.64L97.24,278.82L97.39,271.56L97.54,271.5L98.27,267.96L98.42,268.11L98.56,267.76L99.45,267.91L99.59,267.62L99.89,267.29L100.03,267.8L100.18,267.08L100.47,266.8L100.62,267.25L100.77,266.78L100.91,266.65L101.06,267.53L101.65,267.18L101.8,267.24L102.38,265.04L102.53,260.05L102.97,247.32L103.12,230.5L103.26,236.96L103.56,224.72L103.7,207.38L105.03,71.46L105.17,72.1L105.32,87.77L105.61,82.54L105.91,95.94L106.06,78.5L106.35,79.69L106.5,68.98L106.79,66.32L106.94,72.31L107.08,86.03L107.52,147.83L107.67,171.73L109.29,271.94L109.58,270.18L109.73,269.2L109.87,270.24L110.31,268.22L110.46,269.67L110.61,268.28L110.9,268.96L111.34,268.3L111.49,267.99L111.78,269.04L112.22,268.28L112.37,268.27L112.81,268.74L113.11,268.28L113.25,267.82L113.4,268.48L113.84,268.3L113.99,267.57L114.87,267.13L115.02,266.73L115.16,266.32L115.31,266.85L115.46,267.8L116.34,266.28L116.48,277.36L117.22,222.4L117.37,202.09L117.81,165.31L117.95,130.63L119.13,69.7L119.28,71.36L120.16,59.58L120.3,63.29L120.45,62.67L120.6,82.72L120.74,81.23L120.89,82.96L121.04,89.59L123.24,282.92L123.39,279.71L123.54,267.87L123.98,270.25L124.42,269.47L124.56,270.22L124.71,268.28L125.3,268.79L125.44,269.16L126.18,282.7L126.33,274.42L126.47,282.4L126.77,268.93L126.91,269.32L127.06,269.41L128.97,269.49L129.12,269.24L129.41,269.33L129.56,268.28L130,282L130.15,261.06L130.29,266.31L130.44,268.03L130.59,265.71L130.73,252.75L131.03,253.79L132.2,187.98L132.35,126.32L132.79,80.28L133.23,89.99L133.38,92.1L133.67,100.77L133.82,110.25L134.41,88.29L134.55,97.96L134.7,104.16L135.58,85.78L135.73,90.69L135.87,112.05L137.05,286.18L137.2,285.82L137.34,261.71L137.93,269.43L138.08,270.35L138.52,273.21L138.66,277.58L138.81,283.77L138.96,273.55L139.4,282.46L139.55,274.11L139.69,282.47L140.13,274.98L140.28,268.64L142.19,270.44L142.34,269.59L143.07,269.87L143.22,283.02L143.81,268.62L144.1,273.36L144.25,281.33L146.45,173.69L146.6,104.66L146.89,73.88L147.48,85.66L147.63,99.59L147.77,114.31L148.21,96.78L148.36,99.18L148.51,101.08L148.8,83.26L149.39,90L149.53,97.93L149.83,111.47L149.98,139.84L151.3,284.51L151.74,274.92L151.89,272.46L152.47,272.21L152.62,275.45L152.77,270.11L152.91,268.03L153.35,270.24L153.5,269.24L153.65,268.51L153.79,268.76L154.24,268.05L154.38,268.01L154.68,268.57L154.82,268.26L154.97,268.62L155.12,267.99L155.7,268.72L155.85,268.45L156.88,267.56L157.03,267.39L158.5,267.16L158.64,266.03L158.94,272.01L159.23,259.98L159.38,241.42L160.99,54.11L161.14,60.62L161.29,59.15L161.58,61.74L161.73,63.99L162.02,60.5L162.17,61.7L162.31,68.92L163.05,139.56L163.34,125.26L163.49,118.95L163.93,98.71L164.08,120.74L164.22,132.1L165.84,284.18L165.99,274.03L166.13,297.35L166.72,295.84L166.87,263.88L167.01,280.36L167.16,260.54L167.6,269.23L167.75,268.35L168.04,268.15L168.19,269.12L168.48,268.62L168.63,268.06L169.07,268.18L169.22,281.33L169.37,273.59L169.51,282.01L169.95,273.78L170.1,281.98L170.69,236.11L170.83,242.43L170.98,268.62L171.86,267.53L172.01,267.91L172.16,267.49L172.3,281.01L172.74,287.38L172.89,270.47L173.18,273.08L173.33,279.33L175.09,150.41L175.24,186.94L176.27,83.65L176.42,79.54L176.56,76.9L176.71,83.95L177,78.95L177.15,85.05L177.44,88.43L177.59,80.98L177.88,90.18L178.18,73.33L178.33,72.71L180.53,280.27L180.68,278.89L180.82,280.79L180.97,278.3L181.12,279.59L181.26,265.91L181.7,271.37L182.14,268.85L182.29,269.73L182.59,270.25L183.32,268.32L183.47,268.7L184.64,268.81L184.79,268.22L186.55,267.37L186.7,281.12L186.99,281.25L187.14,260.1L187.43,272.71L187.58,276.2L188.46,225.49L188.61,214.52L188.75,208.44L188.9,227.36L189.05,186.67L190.37,81.41L190.52,72.35L191.4,91.05L191.69,89.02L191.84,87.43L192.13,97.71L192.28,86.17L193.31,249.45L193.46,274.49L193.6,276.64L193.75,294.96L193.9,270.35L194.34,283.24L194.48,302.36L194.63,272.66L195.22,275.72L195.36,291.48L195.81,261.97L196.25,275.01L196.39,274.2L196.69,274.36L197.42,268.88L197.57,269.84L197.71,269.57L197.86,270.23L198.01,268.45L198.16,269.94L198.3,268.57L198.45,269.17L198.89,268.74L199.04,268.42L199.18,268.67L199.33,267.99L199.62,267.98L199.77,281.82L200.07,282.03L200.21,260.2L200.65,268.01L200.8,268.17L201.24,267.65L201.39,268.6L201.53,284.66L201.83,285.39L204.03,140.48L204.18,77.55L204.33,74.52L204.47,93.07L204.91,91.59L205.21,102.77L205.35,90.15L206.23,132.64L206.38,127.45L206.53,119.37L207.41,233.08L207.56,250.24L208.44,284.42L208.73,276.66L208.88,275.32L209.61,283.92L209.76,275.65L209.91,285.84L210.35,271.49L210.49,273.11L211.23,268.44L211.38,269.98L211.52,270.4L212.26,268.39L212.4,269.46L212.7,269.82L213.14,267.71L213.29,268.41L213.43,268.22L214.31,268.6L214.46,267.67L214.9,268.42L215.19,267.98L215.34,267.96L216.08,277.57L216.22,270.6L217.1,206.8L217.25,195.39L217.99,86.39L218.43,94.94L218.57,114.91L218.72,114.79L218.87,118.01L219.16,125L219.31,123.86L219.45,108.73L219.6,112.47L219.75,141.56L220.04,142.88L220.19,139.41L220.34,116.44L220.78,136.73L220.92,144.42L222.54,282.17L222.83,281.02L222.98,280.47L223.57,285.68L223.71,273.74L223.86,282.71L224.16,284.67L224.6,271.65L224.74,274.93L224.89,271.95L225.04,274.36L225.33,268.67L225.48,268.81L225.77,269.36L226.21,268.46L226.36,269.24L227.24,268.13L227.39,268.19L227.53,267.85L227.68,268.74L227.83,268.15L227.97,268.87L228.12,270.23L228.27,281.66L228.56,281.9L228.71,260.44L229.15,267.77L229.3,268.22L229.44,267.52L229.59,269.8L229.74,286.02L230.03,286.46L231.65,182.06L231.79,202.96L232.67,92.99L232.82,94.05L232.97,78.06L234.29,114.54L234.44,108.78L235.47,182.07L235.61,219.24L235.76,218.6L235.91,242.21L236.49,289.4L236.79,289.35L236.93,269.91L237.08,278.44L237.67,274.76L237.82,270.76L238.26,270.08L238.55,271.99L238.7,271.09L239.14,270.54L239.29,270.01L239.58,270.91L239.73,270.25L239.87,268.62L240.02,270.34L240.75,270.22L240.9,269.04L241.19,268.81L241.34,269.67L241.64,269.11L241.78,268.64L242.37,268.92L242.52,268.45L242.66,268.1L242.81,268.37L242.96,282.18L243.1,260.29L243.54,286.73L243.69,286.21L243.84,287.88L243.99,302.12L245.45,185.67L245.6,185.84L245.9,117.96L246.04,91.95L246.63,72.84L246.78,86.01L246.92,88.07L247.07,107.08L247.22,112.59L247.36,112.29L247.51,93.81L247.95,118.72L248.25,115.11L248.39,108.76L248.69,114.08L248.83,95.84L250.89,273.42L251.18,273.39L251.33,270.53L251.48,268.35L251.77,272.27L251.92,271.94L252.06,273.52L252.65,269.34L253.09,270.2L253.24,270.58L253.53,271.12L253.68,268.34L254.27,270.49L254.56,270.24L254.71,268.73L254.86,269.83L255.3,268.51L255.44,269.15L255.59,268.45L255.88,269.24L256.03,281.9L256.18,260.19L256.77,268.65L256.91,268.49L257.35,268.54L257.5,269.57L258.09,261.83L258.23,250.73L260.29,78.44L260.44,94.69L260.73,100.03L261.17,98.7L261.32,87.99L261.47,80.9L261.61,90.76L261.91,86.19L262.05,90.07L263.23,150.92L263.38,188.44L263.52,189.92L263.67,204.76L264.11,237.84L264.26,252.13L264.4,245.43L264.55,269.92L264.7,273.19L265.14,285.07L265.43,282.56L265.58,274.98L265.73,283.76L265.87,263.36L266.17,269.53L266.31,270.83L266.46,271.03L266.61,270.6L266.75,268.31L267.19,270.39L267.49,269.25L267.63,268.76L267.78,267.98L268.08,269.67L268.22,270.3L268.37,268.45L268.52,270.41L269.1,268.55L269.25,269.81L269.4,270.51L269.54,269.38L269.69,268.26L269.84,269.73L270.28,267.85L270.43,268.63L270.57,268.45L271.16,268.51L271.31,268L271.75,282.28L272.04,280.47L272.19,257.29L273.07,210.22L273.22,230.71L274.1,115.27L274.25,74.45L274.83,99.01L274.98,79.17L275.13,82.83L275.27,82.3L275.42,96.39L276.01,131.53L276.3,117.64L276.45,93.48L276.6,93.41L276.74,95.97L277.04,96.95L277.18,78.01L277.33,97.14L277.77,136.53L277.92,162.59L279.39,275.88L279.53,275.74L280.27,271.55L280.41,273.98L280.71,268.58L281.3,269.29L281.44,268.55L281.59,269.76L281.74,268.46L282.03,268.82L282.18,268.08L282.47,269.18L282.62,270.28L283.06,269.08L283.21,269.15L283.35,281.83L283.65,282.23L283.79,260.36L284.23,268.65L284.38,268.36L284.53,268.92L284.97,268.17L285.11,268.24L285.26,268.18L285.56,268.59L285.85,267.68L286,269.89L286.29,272.11L286.44,265.29L287.32,203.91L287.47,158.18L288.49,97.97L288.64,87.55L288.93,98.59L289.52,94.34L289.67,90.42L289.82,88.49L289.96,93.6L290.11,91.92L290.26,110.41L290.4,110.77L290.55,130.42L293.34,289.87L293.49,263.61L293.93,275.89L294.37,270.9L294.52,269.17L294.96,270.87L295.4,270.49L295.54,269.52L295.69,270.23L295.84,267.78L296.28,269.59L296.43,269.5L296.57,268.65L297.01,270.36L297.16,268.76L297.31,269.96L297.6,270.6L297.89,268.89L298.19,269.13L298.34,269.3L298.63,269.65L298.78,268.63L299.22,268.81L299.36,268.83L299.8,295.46L299.95,263.51L300.1,267.42L300.24,272.47L300.39,276.82L300.69,265.19L300.83,246.79L302.45,107.47L302.74,108.45L302.89,114.97L303.18,80.24L303.62,97.91L303.77,95.95L303.92,94.66L304.06,101.99L304.8,160.65L305.24,150.24L305.39,136.09L307.3,279.19L307.59,276.92L307.74,272.64L307.88,277.52L308.32,271.78L308.47,274.73L308.62,272.28L308.76,275.03L309.35,272.23L309.5,272L310.23,268.64L310.53,269.13L310.67,270.28L310.82,267.54L311.26,270.53L311.41,270.24L311.56,269.25L311.7,270.29L311.85,268.14L312.29,269.53L312.44,268.38L312.58,282.3L313.17,281.96L313.32,260.27L314.35,272.43L314.49,275.22L314.93,246.46L315.08,230.49L315.82,191.59L315.96,200.47L316.11,144.71L316.55,95.6L316.99,106.41L317.14,103.01L317.72,121.8L318.02,120.66L318.17,120.72L318.31,117.92L318.46,126.31L318.61,140.18L318.75,147.35L319.05,125.46L319.19,133.92L319.34,129.48L320.37,211.68L320.52,230.94L321.4,282.5L321.69,274.96L321.84,279.43L322.13,284.93L322.57,272.53L322.72,277.65L323.01,278.61L323.45,271.87L323.6,276.49L324.04,271.81L324.33,272.54L324.48,275.66L325.36,268.39L325.51,269.1L325.66,270.5L326.54,268.24L326.69,282.53L327.13,261.21L327.57,268.54L327.71,269.03L327.86,268.72L328.01,269.33L328.15,281.42L330.21,158.79L330.36,192.69L331.09,81.9L331.24,110.2L331.39,112.41L331.68,106.66L332.41,143.71L332.56,153.44L333.15,111.44L333.44,129.82L333.59,135.54L335.35,288.81L335.5,279.1L336.09,276.12L336.23,304L336.38,267.91L336.82,288.7L337.11,286.07L337.26,275.32L337.41,285.24L337.55,264.82L337.85,270.5L338,270.77L338.14,270.96L338.44,270.19L338.58,268.66L338.88,271.28L339.32,269.68L339.46,270.09L339.61,270.68L339.91,268.86L340.05,270.34L340.2,268.76L340.35,269.44L340.79,269.1L340.93,268.43L341.23,268.24L341.37,269.56L341.67,269.33L341.81,268.01L342.7,272.97L342.84,266.7L345.19,96.32L345.49,107.42L345.63,107.05L345.78,115.52L346.22,102.47L346.37,102.99L348.72,244.89L348.87,268.58L349.01,266.4L349.16,276.63L349.45,293.74L349.6,274.05L349.75,288.13L349.89,273.91L350.04,281.22L350.48,271.41L350.63,273.85L350.78,271.97L350.92,274.59L351.36,270.58L351.51,270.34L351.66,266.31L351.8,271.97L352.24,269.51L352.39,270.3L352.54,270.23L352.68,268.06L353.27,272.41L353.42,270.37L353.57,269.09L354.01,268.87L354.15,270.24L354.3,268.8L354.45,270.25L354.59,268.38L355.03,269.25L355.18,269.11L355.92,268.36L356.06,282.53L357.83,218.08L357.97,162.7L358.12,195.26L358.41,107.78L358.56,90.49L358.85,87.43L359,97.58L359.15,97.48L359.29,99.92L359.59,98.51L359.74,103.89L360.32,154.12L360.62,143.59L360.76,128.84L361.65,88.91L361.79,102.19L361.94,117.72L362.09,122.23L362.23,156.93L363.55,273.88L363.7,281.53L364.44,290.38L364.58,276.39L365.02,289.59L365.17,265.53L365.32,273.65L365.46,272.11L365.61,276.37L365.76,272.18L365.9,276.38L366.79,270.34L366.93,270.43L367.37,268.83L367.67,269.04L367.81,270.2L368.26,268.14L368.4,281.53L368.7,295.71L369.28,269.07L369.43,269.39L370.02,268.55L370.16,269.17L370.31,281.96L371.93,173.39L372.07,209.92L373.1,68.89L373.25,64.47L373.69,91.28L374.13,89.11L374.28,70.48L375.6,115.25L375.75,122.41L376.04,131.13L376.19,145.51L376.33,140.34L376.48,149.71L376.63,174.71L378.24,283.5L378.39,275.38L378.54,281.57L379.13,275.19L379.27,281.13L379.42,275.22L379.57,282.01L379.71,263.75L380.01,268.45L380.15,269.6L380.74,268.97L380.89,269.87L381.48,270.24L381.62,268.73L381.77,270.02L382.65,268.17L382.8,268.33L383.09,269.75L383.53,268.91L383.68,268.49L383.83,268.89L383.97,268.4L384.12,281.76L384.41,282.03L384.56,260.86L385.15,266.53L385.29,260.54L385.59,237.79L385.74,254.84L385.88,273.64L386.03,290.51L386.32,239.1L386.47,222.8L386.62,243.21L386.76,195.63L386.91,233.16L387.06,159.02L387.94,276.3L388.09,281.29L388.53,288.81L388.82,238.52L388.97,244.65L389.11,273.59L389.41,266.07L389.55,238.81L390.29,79.84L390.58,139.03L390.73,144.68L391.46,270.67L391.76,268.96L391.9,270.29L392.05,268.14L392.64,268.9L392.79,268.76L393.08,268.64L393.37,270.17L393.52,268.11L393.96,269.08L394.25,268.52L394.4,268.44L395.14,268.67L395.28,268.11L395.72,268.66L396.02,268.42L396.16,268.03L397.05,268.15L397.19,281.29L397.49,281.74L397.93,267.5L398.07,268.16L398.22,267.81L398.51,267.62L398.81,269.48L398.96,272.86L399.4,277.28L399.54,252.89L400.72,187.97L400.86,208.66L401.6,80.75L401.75,82.25L401.89,102.72L402.19,84.49L403.07,270.69L403.22,249.86L403.36,160.88L403.51,140.03L403.8,177.37L403.95,219.92L404.1,253.9L404.24,212.63L404.39,114.28L404.54,86L404.68,108.56L404.83,173.36L405.86,279.03L406.01,273.85L406.15,283.63L406.45,284.3L406.89,273.5L407.03,282.48L407.33,267.68L407.77,277.82L407.92,275.12L408.06,276.27L408.21,272.46L408.36,267.78L408.5,269.58L409.09,268.66L409.24,268.82L409.53,269.74L410.27,268.12L410.41,268.67L410.85,267.84L411.15,268.08L411.29,268.54L411.44,267.81L411.88,268.13L412.03,268.71L412.32,268.26L412.47,281.83L414.53,186.57L414.67,113.28L415.55,62.34L415.7,64.33L415.85,87.72L416.58,113.58L416.73,100.05L417.17,69.73L417.61,84.46L417.76,80.51L417.9,79.01L418.05,93.97L420.25,285.41L420.4,275.28L420.84,286.97L421.14,285.36L421.28,283.06L421.58,265.09L422.16,268.85L422.31,268.33L422.75,270.55L423.05,268.55L423.19,269.22L423.63,268.46L423.78,269.97L423.93,268.58L424.07,269.49L424.22,270.28L424.51,268.58L424.66,268.33L424.81,269.15L425.25,267.88L425.4,269.01L425.54,267.82L425.98,268.87L426.13,282.81L426.42,268.11L426.72,286.65L426.86,272.54L427.01,282.71L428.48,223.85L428.63,191.32L428.92,229.24L429.36,214.75L429.51,194.21L429.8,179.64L429.95,113.76L430.1,88.21L430.24,126.1L430.39,183.03L431.42,271.58L431.71,252.87L431.86,258.25L432.59,202.22L432.74,227.31L432.89,235.15L433.03,174.39L433.62,289.27L434.06,280.14L434.21,278.39L434.36,280.45L434.5,263.04L435.53,270.52L435.68,270.7L436.27,267.75L436.56,268.22L436.71,270.52L436.85,270.23L437,267.97" style="vector-effect: non-scaling-stroke; fill: none; stroke: rgb(0, 128, 0); stroke-opacity: 1; stroke-width: 2px; opacity: 1;"/></g><g class="points"/><g class="text"/></g></g></g><g class="overplot"/><path class="xlines-above crisp" d="M0,0" style="fill: none;"/><path class="ylines-above crisp" d="M0,0" style="fill: none;"/><g class="overlines-above"/><g class="xaxislayer-above"><g class="xtick"><text text-anchor="middle" x="0" y="433" transform="translate(150.51,0)" style="font-family: 'Open Sans', verdana, arial, sans-serif; font-size: 12px; fill: rgb(42, 63, 95); fill-opacity: 1; white-space: pre; opacity: 1;"><tspan class="line" dy="0em" x="0" y="433">Mar 6</tspan><tspan class="line" dy="1.3em" x="0" y="433">2022</tspan></text></g><g class="xtick"><text text-anchor="middle" x="0" y="433" style="font-family: 'Open Sans', verdana, arial, sans-serif; font-size: 12px; fill: rgb(42, 63, 95); fill-opacity: 1; white-space: pre; opacity: 1;" transform="translate(249.22,0)">Mar 13</text></g><g class="xtick"><text text-anchor="middle" x="0" y="433" style="font-family: 'Open Sans', verdana, arial, sans-serif; font-size: 12px; fill: rgb(42, 63, 95); fill-opacity: 1; white-space: pre; opacity: 1;" transform="translate(347.93,0)">Mar 20</text></g><g class="xtick"><text text-anchor="middle" x="0" y="433" style="font-family: 'Open Sans', verdana, arial, sans-serif; font-size: 12px; fill: rgb(42, 63, 95); fill-opacity: 1; white-space: pre; opacity: 1;" transform="translate(446.64,0)">Mar 27</text></g></g><g class="yaxislayer-above"><g class="ytick"><text text-anchor="end" x="79" y="4.199999999999999" transform="translate(0,382.18)" style="font-family: 'Open Sans', verdana, arial, sans-serif; font-size: 12px; fill: rgb(42, 63, 95); fill-opacity: 1; white-space: pre; opacity: 1;">−20</text></g><g class="ytick"><text text-anchor="end" x="79" y="4.199999999999999" style="font-family: 'Open Sans', verdana, arial, sans-serif; font-size: 12px; fill: rgb(42, 63, 95); fill-opacity: 1; white-space: pre; opacity: 1;" transform="translate(0,336.11)">0</text></g><g class="ytick"><text text-anchor="end" x="79" y="4.199999999999999" style="font-family: 'Open Sans', verdana, arial, sans-serif; font-size: 12px; fill: rgb(42, 63, 95); fill-opacity: 1; white-space: pre; opacity: 1;" transform="translate(0,290.03999999999996)">20</text></g><g class="ytick"><text text-anchor="end" x="79" y="4.199999999999999" style="font-family: 'Open Sans', verdana, arial, sans-serif; font-size: 12px; fill: rgb(42, 63, 95); fill-opacity: 1; white-space: pre; opacity: 1;" transform="translate(0,243.97)">40</text></g><g class="ytick"><text text-anchor="end" x="79" y="4.199999999999999" style="font-family: 'Open Sans', verdana, arial, sans-serif; font-size: 12px; fill: rgb(42, 63, 95); fill-opacity: 1; white-space: pre; opacity: 1;" transform="translate(0,197.89)">60</text></g><g class="ytick"><text text-anchor="end" x="79" y="4.199999999999999" style="font-family: 'Open Sans', verdana, arial, sans-serif; font-size: 12px; fill: rgb(42, 63, 95); fill-opacity: 1; white-space: pre; opacity: 1;" transform="translate(0,151.82)">80</text></g><g class="ytick"><text text-anchor="end" x="79" y="4.199999999999999" style="font-family: 'Open Sans', verdana, arial, sans-serif; font-size: 12px; fill: rgb(42, 63, 95); fill-opacity: 1; white-space: pre; opacity: 1;" transform="translate(0,105.75)">100</text></g></g><g class="overaxes-above"/></g></g><g class="polarlayer"/><g class="smithlayer"/><g class="ternarylayer"/><g class="geolayer"/><g class="funnelarealayer"/><g class="pielayer"/><g class="iciclelayer"/><g class="treemaplayer"/><g class="sunburstlayer"/><g class="glimages"/><defs id="topdefs-9e61ca"><g class="clips"/><clipPath id="legend9e61ca"><rect width="162" height="67" x="0" y="0"/></clipPath></defs><g class="layer-above"><g class="imagelayer"/><g class="shapelayer"/></g><g class="infolayer"><g class="legend" pointer-events="all" transform="translate(525.74,100)"><rect class="bg" shape-rendering="crispEdges" width="162" height="67" x="0" y="0" style="stroke: rgb(68, 68, 68); stroke-opacity: 1; fill: rgb(255, 255, 255); fill-opacity: 1; stroke-width: 0px;"/><g class="scrollbox" transform="" clip-path="url(#legend9e61ca)"><g class="groups"><g class="traces" transform="translate(0,14.5)" style="opacity: 1;"><text class="legendtext" text-anchor="start" x="40" y="4.680000000000001" style="font-family: 'Open Sans', verdana, arial, sans-serif; font-size: 12px; fill: rgb(42, 63, 95); fill-opacity: 1; white-space: pre;">BESS</text><g class="layers" style="opacity: 0.5;"><g class="legendfill"/><g class="legendlines"><path class="js-line" d="M5,0h30" style="fill: none; stroke: rgb(0, 191, 255); stroke-opacity: 1; stroke-width: 2px;"/></g><g class="legendsymbols"><g class="legendpoints"/></g></g><rect class="legendtoggle" x="0" y="-9.5" width="156.71875" height="19" style="fill: rgb(0, 0, 0); fill-opacity: 0;"/></g><g class="traces" transform="translate(0,33.5)" style="opacity: 1;"><text class="legendtext" text-anchor="start" x="40" y="4.680000000000001" style="font-family: 'Open Sans', verdana, arial, sans-serif; font-size: 12px; fill: rgb(42, 63, 95); fill-opacity: 1; white-space: pre;">Solar</text><g class="layers" style="opacity: 0.5;"><g class="legendfill"/><g class="legendlines"><path class="js-line" d="M5,0h30" style="fill: none; stroke: rgb(255, 0, 0); stroke-opacity: 1; stroke-width: 2px;"/></g><g class="legendsymbols"><g class="legendpoints"/></g></g><rect class="legendtoggle" x="0" y="-9.5" width="156.71875" height="19" style="fill: rgb(0, 0, 0); fill-opacity: 0;"/></g><g class="traces" transform="translate(0,52.5)" style="opacity: 1;"><text class="legendtext" text-anchor="start" x="40" y="4.680000000000001" style="font-family: 'Open Sans', verdana, arial, sans-serif; font-size: 12px; fill: rgb(42, 63, 95); fill-opacity: 1; white-space: pre;">Grid Meter (Net Load)</text><g class="layers" style="opacity: 0.5;"><g class="legendfill"/><g class="legendlines"><path class="js-line" d="M5,0h30" style="fill: none; stroke: rgb(0, 128, 0); stroke-opacity: 1; stroke-width: 2px;"/></g><g class="legendsymbols"><g class="legendpoints"/></g></g><rect class="legendtoggle" x="0" y="-9.5" width="156.71875" height="19" style="fill: rgb(0, 0, 0); fill-opacity: 0;"/></g></g></g><rect class="scrollbar" rx="20" ry="3" width="0" height="0" x="0" y="0" style="fill: rgb(128, 139, 164); fill-opacity: 1;"/></g><g class="g-gtitle"><text class="gtitle" x="298.5" y="50" text-anchor="middle" dy="0em" style="font-family: 'Open Sans', verdana, arial, sans-serif; font-size: 17px; fill: rgb(42, 63, 95); opacity: 1; font-weight: normal; white-space: pre;"><tspan class="line" dy="0em" x="298.5" y="50">Scenario 6</tspan><tspan class="line" dy="1.3em" x="298.5" y="50">Microgrid Output</tspan><tspan class="line" dy="2.6em" x="298.5" y="50">From: March 01, 2022 to March 31, 2022</tspan></text></g><g class="g-xtitle"><text class="xtitle" x="298.5" y="476.409375" text-anchor="middle" style="font-family: 'Open Sans', verdana, arial, sans-serif; font-size: 14px; fill: rgb(42, 63, 95); opacity: 1; font-weight: normal; white-space: pre;">Time</text></g><g class="g-ytitle"><text class="ytitle" transform="rotate(-90,33.840625,260)" x="33.840625" y="260" text-anchor="middle" style="font-family: 'Open Sans', verdana, arial, sans-serif; font-size: 14px; fill: rgb(42, 63, 95); opacity: 1; font-weight: normal; white-space: pre;">Demand (kW)</text></g></g></svg>