<svg class="main-svg" xmlns="http://www.w3.org/2000/svg" xmlns:xlink="http://www.w3.org/1999/xlink" width="700" height="500" style="" viewBox="0 0 700 500"><rect x="0" y="0" width="700" height="500" style="fill: rgb(255, 255, 255); fill-opacity: 1;"/><defs id="defs-80727e"><g class="clips"><clipPath id="clip80727exyplot" class="plotclip"><rect width="432" height="320"/></clipPath><clipPath class="axesclip" id="clip80727ex"><rect x="80" y="0" width="432" height="500"/></clipPath><clipPath class="axesclip" id="clip80727ey"><rect x="0" y="100" width="700" height="320"/></clipPath><clipPath class="axesclip" id="clip80727exy"><rect x="80" y="100" width="432" height="320"/></clipPath></g><g class="gradients"/><g class="patterns"/></defs><g class="bglayer"/><g class="layer-below"><g class="imagelayer"/><g class="shapelayer"/></g><g class="cartesianlayer"><g class="subplot xy"><g class="layer-subplot"><g class="shapelayer"/><g class="imagelayer"/></g><g class="gridlayer"><g class="x"><path class="xgrid crisp" transform="translate(177.57999999999998,0)" d="M0,100v320" style="stroke: rgb(255, 255, 255); stroke-opacity: 1; stroke-width: 1px;"/><path class="xgrid crisp" transform="translate(275.15999999999997,0)" d="M0,100v320" style="stroke: rgb(255, 255, 255); stroke-opacity: 1; stroke-width: 1px;"/><path class="xgrid crisp" transform="translate(372.74,0)" d="M0,100v320" style="stroke: rgb(255, 255, 255); stroke-opacity: 1; stroke-width: 1px;"/><path class="xgrid crisp" transform="translate(470.32,0)" d="M0,100v320" style="stroke: rgb(255, 255, 255); stroke-opacity: 1; stroke-width: 1px;"/></g><g class="y"><path class="ygrid crisp" transform="translate(0,356.17)" d="M80,0h432" style="stroke: rgb(255, 255, 255); stroke-opacity: 1; stroke-width: 1px;"/><path class="ygrid crisp" transform="translate(0,191.12)" d="M80,0h432" style="stroke: rgb(255, 255, 255); stroke-opacity: 1; stroke-width: 1px;"/><path class="ygrid crisp" transform="translate(0,108.59)" d="M80,0h432" style="stroke: rgb(255, 255, 255); stroke-opacity: 1; stroke-width: 1px;"/></g></g><g class="zerolinelayer"><path class="yzl zl crisp" transform="translate(0,273.65)" d="M80,0h432" style="stroke: rgb(255, 255, 255); stroke-opacity: 1; stroke-width: 2px;"/></g><path class="xlines-below"/><path class="ylines-below"/><g class="overlines-below"/><g class="xaxislayer-below"/><g class="yaxislayer-below"/><g class="overaxes-below"/><g class="plot" transform="translate(80,100)" clip-path="url(#clip80727exyplot)"><g class="scatterlayer mlayer"><g class="trace scatter trace56ba6a" style="stroke-miterlimit: 2; opacity: 0.5;"><g class="fills"/><g class="errorbars"/><g class="lines"><path class="js-line" d="M0,173.65L432,173.65" style="vector-effect: non-scaling-stroke; fill: none; stroke: rgb(0, 191, 255); stroke-opacity: 1; stroke-width: 2px; opacity: 1;"/></g><g class="points"/><g class="text"/></g><g class="trace scatter trace67efe5" style="stroke-miterlimit: 2; opacity: 0.5;"><g class="fills"/><g class="errorbars"/><g class="lines"><path class="js-line" d="M0,173.88L4.21,173.28L4.36,172.22L5.37,95.6L5.66,121.23L5.81,122.21L5.95,130.16L6.1,88.65L6.39,32.81L6.68,119.89L6.82,115.08L7.12,137.67L7.55,130.07L7.7,109.84L7.84,91.23L7.99,123.29L8.13,154.65L8.42,52.23L8.71,156.3L8.86,157.56L9.29,139.37L9.73,170.9L9.87,173.82L12.05,173.65L12.2,173.65L17.86,173.41L18.01,169.06L19.17,103.21L19.31,91.26L19.89,60.23L20.18,71.34L20.33,77.67L20.47,68.24L20.62,173.65L129.38,173.67L129.53,170.7L130.4,143.26L130.54,158.44L130.69,163.94L130.83,135.06L130.98,123.05L131.27,157.63L131.56,130.42L131.71,130.35L132.14,165.15L132.58,162.3L132.72,158.3L132.87,154.73L133.01,120.57L134.46,163.25L134.61,159.9L134.9,164.96L135.05,170.33L135.92,173.85L136.06,173.85L143.32,173.69L143.47,172.59L144.19,132.46L144.34,132.68L144.48,120.24L144.63,115.33L144.77,120.76L144.92,137.59L145.94,54.09L146.23,56.77L146.37,72.36L146.81,31.35L147.24,38.42L147.39,71.3L147.53,56.54L147.97,88.54L148.11,103.11L149.42,173.86L149.57,173.85L157.41,173.28L157.55,170.03L157.84,162.18L157.99,148.86L159.15,93.56L159.3,85.83L160.17,39.08L160.31,67.4L160.75,58.29L160.89,85.05L161.33,66.79L162.05,118.44L162.2,119.09L163.36,173.87L163.51,173.86L171.2,173.68L171.35,173.07L172.8,88.67L172.95,72.93L173.09,74.76L173.24,69.03L173.38,81.78L174.4,46.18L174.54,68.23L177.3,173.86L177.45,173.86L185.14,173.57L185.29,171.11L186.3,145.35L186.45,150.74L186.59,150.6L186.74,150.91L186.89,128.63L187.03,119.3L187.32,141.94L187.47,143.74L187.76,154.4L187.9,144.62L188.05,132.43L188.92,164.94L189.21,164.69L189.35,162.88L190.52,173.61L190.66,173.56L192.84,173.86L192.98,173.86L199.52,173.38L199.66,170.32L199.95,166.12L200.1,150.96L200.39,159.21L200.68,144.9L200.83,144.57L200.97,151.85L201.26,132.1L201.41,126.44L201.55,107.67L201.84,126.71L202.13,111.77L202.28,121.24L202.57,106.71L202.71,110.38L202.86,136.66L203,155.86L203.58,148.84L203.73,152.23L203.87,151.25L204.02,156.37L205.18,173.85L205.33,173.85L213.17,173.58L213.31,172.9L215.06,123.79L215.2,95.51L215.49,117.41L216.07,27.7L216.22,36.57L216.51,97.67L216.8,78.92L216.94,20.24L218.98,173.69L219.12,173.83L224.93,173.85L225.08,173.85L227.11,173.49L227.25,170.92L227.69,149.35L227.83,136.66L228.13,111.97L228.42,129.26L228.56,144.79L228.85,94.1L229,49.49L229.14,46.73L229.29,47.77L229.43,28.39L229.58,31.49L229.72,17.05L230.01,16.1L230.16,17.2L230.3,59.1L230.45,53.57L230.59,63.66L230.74,24.7L231.46,60.44L231.61,70.64L233.21,173.86L233.5,173.85L233.64,173.85L240.9,173.58L241.05,171.87L241.63,146.67L241.77,133.86L243.66,35.58L243.81,33.37L244.1,24.71L244.39,32.35L244.53,33.28L244.68,26.88L244.82,41.39L244.97,63.25L245.11,50.52L245.41,84.35L245.55,104.2L245.7,103.45L245.84,107.49L247.15,173.86L247.44,173.85L247.58,173.85L254.7,173.85L254.84,173.57L255.42,159.21L255.57,146.27L257.6,34.7L257.75,34.46L258.47,20.32L258.62,32.6L258.76,17.59L258.91,19.49L259.05,68.93L260.36,165.31L260.51,169.35L261.38,173.86L261.52,173.86L268.78,173.6L268.93,172.36L269.51,148.79L269.66,135.63L271.54,24.86L271.69,20.82L272.27,16.38L272.41,18.2L272.56,20.72L273.43,64.16L273.58,75.56L275.03,173.87L275.32,173.86L275.46,173.86L282.72,173.57L282.87,172.36L283.45,147.82L283.6,134.74L285.48,29.02L285.63,26.01L286.21,21.7L286.5,23.22L286.64,25.82L287.66,88.3L287.81,101.78L289.11,173.87L289.26,173.86L289.4,173.86L296.66,173.41L296.81,169.68L297.39,157.87L297.54,135.23L299.28,33.11L299.42,29.77L300.15,23.77L300.29,24.41L300.44,26.83L301.31,65.75L301.46,78.94L302.76,173.77L302.91,173.87L310.6,173.6L310.75,172.13L311.33,147.34L311.48,134.11L312.49,51.83L312.64,62.31L312.78,90.77L313.94,16.51L314.09,17.43L314.38,20.44L314.53,24.47L315.69,99.76L315.83,113.66L316.99,173.86L317.14,173.85L317.28,173.86L324.54,173.54L324.69,172.68L325.27,147.52L325.42,134.17L327.3,23.16L327.45,20.3L327.88,16.19L328.32,18.3L328.47,22.7L329.48,84.25L329.63,97.32L331.08,173.86L331.22,173.85L338.48,173.5L338.63,172.39L339.07,163.03L339.21,146.95L341.24,22.68L341.39,20.83L341.97,16.32L342.11,16.49L342.26,18.82L343.42,84.87L343.57,97.9L344.87,173.87L345.02,173.85L345.16,173.85L352.42,173.54L352.57,172.53L353.01,162.75L353.15,147.39L355.33,16.89L355.47,16.01L356.2,16.35L356.35,19.95L357.36,83.55L357.51,96.39L358.81,173.86L358.96,173.85L359.1,173.85L366.37,173.48L366.51,172.06L366.95,162.24L367.09,145.05L369.12,25.29L369.27,23.65L369.85,20.1L370.14,21.07L370.29,25.1L371.3,84.25L371.45,97.18L372.9,173.86L373.04,173.85L380.31,173.49L380.45,171.13L380.89,160.42L381.03,144.59L383.21,22.41L383.35,20.74L383.65,19.57L383.79,20.2L383.94,22.26L384.66,50.09L384.81,59.23L386.69,173.87L386.84,173.86L386.98,173.85L394.25,173.51L394.39,170.97L395.41,131.82L395.55,122.02L396.28,107.73L396.42,74.63L397.29,132.22L397.44,84.61L398.31,144.92L398.46,134.39L398.6,144.76L399.18,74.36L399.33,87.6L399.47,117.7L399.62,120.54L399.76,161.29L400.78,173.86L400.93,173.86L408.19,173.46L408.33,170.48L409.93,91.7L410.07,39.56L410.51,17.69L410.94,85.29L411.09,80.88L411.23,69.08L411.53,35.65L411.82,51.13L411.96,98.83L412.25,106.24L412.4,135.21L413.7,168.63L413.85,170.07L414.72,173.85L414.87,173.85L422.13,173.48L422.27,171.12L422.71,159.18L422.85,142.25L424.74,16L424.88,16.08L425.03,16.13L426.05,16.22L426.19,17.73L427.21,88.25L427.35,102.65L428.51,173.87L428.66,173.86L428.81,173.86L432,173.86" style="vector-effect: non-scaling-stroke; fill: none; stroke: rgb(255, 0, 0); stroke-opacity: 1; stroke-width: 2px; opacity: 1;"/></g><g class="points"/><g class="text"/></g><g class="trace scatter trace6c7d31" style="stroke-miterlimit: 2; opacity: 0.5;"><g class="fills"/><g class="errorbars"/><g class="lines"><path class="js-line" d="M0,193.88L0.15,193.14L0.73,193.53L0.87,193.48L1.16,193.99L1.31,193.19L1.45,192.38L1.89,193.69L2.03,259.32L2.18,275.19L2.32,209.45L3.05,192.37L3.19,192.68L3.34,258.82L3.49,275.03L3.63,209.43L3.78,192.89L4.21,194.39L4.36,193.13L4.5,185L5.37,116.63L5.66,142.21L5.81,144.23L5.95,152.01L6.1,109.65L6.39,54.02L6.68,141.55L6.82,136.7L6.97,148.4L7.12,224.78L7.26,225.83L7.41,239.93L8.42,73.8L8.57,169.8L8.86,158.25L9,189.72L9.15,185.56L9.29,160.99L9.73,274.43L10.02,194.26L10.16,173.65L12.63,174.25L12.78,192.77L13.21,194.07L13.36,192.69L13.5,192.75L13.65,191.97L13.79,193.4L14.23,191.78L14.38,193.11L14.52,192.88L14.81,193.97L15.1,192.28L15.25,191.88L15.39,193.31L16.12,193.23L16.26,192.92L16.84,193.38L16.99,191.67L17.13,191.92L17.28,192.78L17.43,193.42L17.72,191.95L17.86,192.97L18.01,255.8L18.15,274.96L18.3,207.69L18.44,186.34L19.75,87.24L19.89,147.8L20.04,166.25L20.18,110.71L20.33,105.52L20.47,68.24L20.62,173.65L20.77,173.65L20.91,173.65L21.49,256.17L21.64,190.15L21.78,173.65L23.23,173.65L23.38,239.67L23.81,256.17L23.96,190.15L24.83,173.65L24.98,173.65L33.54,173.65L33.69,239.67L34.56,173.65L34.71,239.67L34.85,256.17L35,190.15L35.14,173.65L35.43,256.17L35.87,173.65L36.01,173.65L37.75,173.65L37.9,239.67L38.19,256.17L38.34,190.15L39.21,173.65L39.35,173.65L46.03,173.65L46.18,239.67L47.05,173.65L47.19,173.65L47.77,173.65L47.92,239.67L48.06,256.17L48.21,190.15L48.35,173.65L48.65,239.67L49.08,173.65L49.23,173.65L50.1,173.65L50.24,239.67L50.39,256.17L50.53,190.15L50.68,173.65L50.97,173.65L51.11,239.67L51.4,256.17L51.55,190.15L51.99,173.65L52.13,239.67L52.42,256.17L52.57,190.15L53.44,173.65L53.58,173.65L59.83,173.65L59.97,239.67L60.84,173.65L60.99,173.65L61.71,173.65L61.86,239.67L62,256.17L62.15,190.15L62.3,173.65L62.59,256.17L63.02,173.65L63.17,173.65L64.33,173.65L64.47,239.67L64.62,256.17L64.76,190.15L64.91,173.65L74.2,173.65L74.35,239.67L74.49,256.17L74.64,190.15L74.78,173.65L75.36,173.65L75.51,239.67L75.65,256.17L75.8,190.15L75.94,173.65L77.83,173.65L77.98,239.67L78.27,256.17L78.41,190.15L79.28,173.65L79.43,173.65L85.09,173.65L85.24,239.67L85.38,256.17L85.53,190.15L85.67,173.65L86.11,173.65L86.25,239.67L86.98,173.65L87.13,239.67L87.27,256.17L87.42,190.15L87.56,173.65L87.85,173.65L88,239.67L88.14,256.17L88.29,190.15L88.43,173.65L92.93,173.65L93.08,239.67L93.22,256.17L93.37,190.15L93.52,173.65L101.21,173.65L101.36,239.67L101.65,256.17L101.79,190.15L102.66,173.65L102.81,173.65L104.7,173.65L104.84,239.67L104.99,256.17L105.13,190.15L105.28,173.65L107.17,173.65L107.31,239.67L107.75,256.17L107.89,190.15L108.76,173.65L108.91,173.65L116.17,173.65L116.31,239.67L116.46,256.17L116.6,190.15L116.75,173.65L116.89,239.67L117.47,173.65L117.62,173.65L118.64,173.65L118.78,239.67L118.93,256.17L119.07,190.15L119.22,173.65L121.4,173.65L121.54,239.67L121.69,256.17L121.83,190.15L121.98,173.65L125.9,174.12L126.04,191.06L126.48,193.11L126.91,192.98L127.06,191.76L127.35,193.39L127.78,192.27L127.93,191.75L128.8,193.56L128.95,193.61L129.09,191.85L129.38,196.64L129.53,200.11L129.67,266.1L130.11,189.04L130.25,185.48L130.4,182.38L130.54,194.25L130.69,274.63L131.71,183.84L132.29,195.56L132.43,188.75L132.58,187.59L132.72,180.28L132.87,177.21L133.01,218.21L133.3,257.97L133.59,187.04L133.74,185.7L134.03,179.76L134.46,195.23L134.61,192.88L134.75,192.97L135.34,205.67L135.48,205.11L135.63,270.21L135.77,292.29L135.92,221.17L136.06,201.55L136.21,193.68L136.64,200.01L136.79,203.09L137.22,204.61L137.51,203.92L137.66,203.33L137.95,196.42L138.09,190.93L138.68,192.8L138.82,191.88L138.97,191.97L139.4,193.3L139.55,191.93L139.84,191.79L140.13,193.33L140.27,191.66L140.71,192.7L140.85,191.82L141,191.39L141.14,192.46L141.58,191.2L141.73,190.96L141.87,193.26L142.45,192.46L142.6,192.26L142.74,191.16L143.03,193.6L143.18,257.76L144.05,182.27L144.19,174.46L144.34,176.68L144.48,236.41L144.92,265.39L145.06,251.26L145.21,213.46L145.94,100.08L146.08,100.76L146.23,156.57L146.37,177.92L146.52,93.72L146.66,102.08L146.81,64.05L146.95,171.87L147.1,200.03L147.39,201.95L147.68,104.34L148.11,136.52L148.26,151.83L149.13,203.91L149.28,193.84L149.42,194.1L149.71,194.81L149.86,193.21L150.15,193.8L150.29,194.18L150.44,192.99L150.58,193.94L150.73,199.25L151.31,204.28L151.45,204.1L151.6,202.36L152.18,201.17L152.33,202.99L152.62,201.96L152.91,202.29L153.05,203.13L153.49,202L153.63,204.07L154.65,198.22L154.79,193.02L155.08,191.42L155.67,191.57L155.81,191.6L156.1,191.2L156.39,192.33L156.54,191.94L156.68,191.3L156.83,191.5L156.97,191.13L157.12,192.91L157.26,191.33L157.41,199.12L157.55,199.23L157.7,197.27L158.42,149.3L158.57,128.13L159.3,199.38L159.44,134.32L159.59,103.04L159.88,179.53L160.02,175.99L160.75,83L160.89,108.47L161.04,119.02L161.33,90.17L161.62,123.44L161.76,124.99L162.2,226.02L162.64,185.95L162.78,193.44L163.51,206.3L163.65,197.65L164.09,194.36L164.23,195.96L164.38,199.53L164.67,277.9L165.1,193.49L165.25,194.2L165.39,194.53L165.54,193.12L165.68,191.97L165.83,194.22L166.12,191.72L166.41,192.37L166.56,191.57L167.28,192.85L167.43,191.8L168.01,193.39L168.44,192.63L168.59,191.69L168.73,193.22L169.17,191.39L169.31,192.3L169.46,192.21L169.75,193.01L169.9,191.33L170.04,191.3L170.19,191.36L170.33,192.29L170.48,193.32L170.62,192.88L170.77,257.74L170.91,274.76L171.06,208.3L171.2,191.86L171.35,193.43L171.49,193.4L171.64,256.68L171.78,266.27L171.93,195.6L172.95,110.03L173.09,112.42L173.24,105.78L173.38,115.51L173.67,92.3L173.82,89.08L173.96,80.9L174.11,87.82L174.25,152.88L174.54,183.62L174.69,121.92L175.12,95.06L175.27,105.59L175.41,138.59L175.7,125.12L175.85,155.24L175.99,161.67L176.14,224.4L176.43,265.67L176.58,200.81L176.72,181.37L177.3,197.05L177.59,194.38L177.74,193.53L177.88,193.9L178.03,193.34L178.46,193.53L178.61,193.08L179.04,196.83L179.19,202.5L180.06,191.59L180.21,192.01L180.35,191.51L180.64,192.92L180.93,191.84L181.08,191.94L181.37,191.42L181.51,192.84L181.8,193.69L182.24,191.6L182.38,191.76L182.53,192.71L182.67,192.8L182.82,192.26L182.96,191.88L183.26,191.5L183.55,193.15L183.69,193.09L183.84,191.39L184.13,257.33L184.56,191.55L184.71,192.19L184.85,191.36L185,192.78L185.14,257.7L185.29,272.35L185.43,200.11L186.3,164.87L186.45,179.89L186.59,180.02L186.74,181.2L187.03,158.82L187.47,173.99L187.61,181.83L187.76,183.76L187.9,241.82L188.05,245.02L188.19,188.83L188.63,173.61L188.77,189.92L188.92,196.24L189.35,193.35L189.5,195.44L189.64,263.84L189.79,281.6L189.93,214.81L190.08,200.25L190.23,200.85L190.37,192.79L190.66,195.16L190.81,192.89L190.95,193.5L191.1,200.37L191.68,205.3L191.97,203.48L192.11,204.26L192.4,203.4L192.55,204.79L192.69,205.76L193.13,203.82L193.27,203.81L193.57,201.67L193.86,202.23L194,203.27L194.15,202.01L194.29,204.56L194.44,211.3L194.58,210.8L194.73,201.24L195.02,203.45L195.45,201.06L195.6,192.32L195.74,192.47L195.89,259.58L196.32,191.95L196.76,193.76L196.9,191.92L197.05,191.27L197.49,191.58L197.63,192.86L197.92,191.04L198.36,192.2L198.5,192.07L198.94,191.4L199.08,192.61L199.37,192.8L199.52,192.01L199.66,189.54L199.95,185.68L200.1,171.29L200.39,179.02L200.68,164.53L200.83,163.6L201.26,217.89L201.41,229.34L202.57,126.74L202.71,131.01L203.15,252.31L203.44,197.42L203.58,179.87L205.04,204.73L205.33,203.42L205.47,203.56L205.62,204.88L205.76,204.32L205.91,198.49L206.63,193.57L206.78,202.37L207.07,212.84L207.51,202.09L207.65,201.6L207.8,201.51L207.94,198.18L208.52,191.47L208.67,192.13L208.81,193.74L209.1,191.54L209.39,193.38L209.54,259.01L209.68,274.9L209.83,210.17L209.97,192.16L210.26,192.77L210.7,191.22L210.85,191.88L211.43,192.31L211.57,191.55L211.72,190.92L212.01,192.74L212.44,191.13L212.59,191.32L212.88,192.94L213.17,191.9L213.31,258.67L213.46,270.75L213.6,200.47L213.89,180.88L214.04,243.73L214.62,246.51L215.06,143.67L215.2,116.05L215.35,77.56L215.64,169.99L215.78,196.82L216.07,49.3L216.51,119.83L216.65,115.1L216.8,109.44L216.94,51.6L218.4,244.91L218.54,276.27L219.41,203.89L219.56,204.45L219.85,204.2L219.99,269.68L220.28,286.55L220.43,280.86L220.57,211.04L221.45,192.45L221.59,195.4L221.74,192.08L221.88,258.29L222.03,274.95L222.17,274.08L222.32,208.59L222.75,191.76L223.19,192.44L223.33,192.24L223.48,192.5L223.77,191.67L223.91,193.55L224.2,192.54L224.35,191.14L224.64,192.5L225.08,191.4L225.22,191.03L225.66,192.92L225.8,190.62L225.95,192.1L226.09,191.27L226.24,192.04L226.82,191.64L226.96,197.14L227.11,203.66L227.54,192.94L227.69,253.5L227.83,258.92L227.98,248.69L228.13,169.46L228.56,273.34L228.71,199.04L228.85,140L229.43,74.77L229.58,75.49L229.72,122.5L229.87,137.02L230.01,129.32L230.16,56.46L230.59,98.16L230.88,68.24L231.03,73.92L232.48,190L232.63,203.19L232.77,211.71L233.21,196.98L233.35,194.09L233.64,192.94L234.08,194.9L234.22,193.39L234.37,193.24L234.51,194.15L234.66,203.43L234.8,204.77L235.24,203.93L235.39,202.48L235.82,201.67L235.97,202.48L236.11,202.93L236.4,201.55L236.69,202.58L236.84,204.58L238,191.23L238.14,192.53L238.29,192.47L238.43,190.82L238.73,193.96L239.16,191.27L239.31,191.28L239.45,257.96L239.74,191.2L240.03,191.9L240.18,192.66L240.47,193.06L240.76,192.92L240.9,192.02L241.05,192.84L241.19,198.65L241.34,196.25L241.48,257.66L241.63,270.28L241.77,191.61L242.94,83.99L243.08,81.14L244.1,46.71L244.39,53.31L244.53,58.94L244.68,54.26L244.82,77.03L245.99,147.23L246.13,150.93L246.28,152.72L246.42,166.18L247.15,276.36L247.29,210.91L248.16,193.87L248.31,193.91L248.74,205.46L249.18,203.48L249.33,203.73L249.47,203.49L249.62,204.77L250.63,201.5L250.78,201.62L250.92,202.16L251.21,199.23L251.36,192.68L251.65,191.77L251.79,259.32L252.38,192.07L252.67,192.39L252.81,191.74L252.96,191.27L253.25,192.54L253.54,191.83L253.68,193.44L253.97,192.13L254.26,193.82L254.41,194.41L254.55,192.73L254.7,198.13L254.84,201.05L254.99,201.34L255.13,198.03L255.57,178.88L255.71,162.42L255.86,153.11L256.01,207.11L257.02,89.07L257.17,84.54L257.31,146.71L257.6,62.47L257.75,67.42L257.89,63.89L258.47,54.64L258.62,67.67L258.91,148.53L259.49,141.85L259.64,162.99L260.22,182.82L260.36,253.19L260.65,276.69L260.8,210.97L260.94,194.03L261.09,193.54L261.67,193.81L261.81,193.92L262.54,193.91L262.69,193.21L262.98,194.58L263.27,193.09L263.41,193.72L263.56,193.4L264.28,191.62L264.43,191.98L264.57,192.16L264.86,192.03L265.01,193.19L265.15,192.02L265.3,191.36L265.59,193.87L266.02,192.56L266.17,192.2L266.46,274.27L266.75,190.98L266.9,192.45L267.04,192.4L267.62,192.59L267.91,191.06L268.06,192.84L268.2,193.97L268.49,191.79L268.64,258.51L268.78,279.89L268.93,212.6L269.07,189.42L269.36,184.4L269.51,238.16L269.66,240.62L269.8,163.97L270.96,74.06L271.11,82.83L271.69,49.7L271.83,112.03L271.98,128.21L272.12,60.92L272.41,41.26L272.85,53.23L272.99,58.2L273.87,123.3L274.01,202.46L274.3,245.54L274.59,188.58L274.74,193.94L275.03,194.39L275.75,193.36L275.9,193.89L276.04,193.98L276.19,195.05L276.48,196.21L276.63,193.7L277.64,191.71L277.79,191.91L277.93,192.2L278.37,192.87L278.51,193.57L278.8,193.46L278.95,191.61L279.09,191.46L279.24,192L279.38,193.16L279.67,191.64L280.11,191.7L280.26,192.59L280.4,192.44L280.55,192.93L280.69,193.04L280.84,193.09L280.98,193.68L281.27,192.29L281.42,191.86L282,191.49L282.14,192.92L282.29,192.35L282.43,191.67L282.58,192.3L282.87,190.85L283.01,190.59L283.6,155.52L283.74,141.63L283.89,128.61L284.03,193.04L285.05,70.71L285.19,65.07L286.21,51.88L286.35,54.28L286.5,55.15L286.64,56.11L286.79,129.91L287.08,159.18L287.23,103.85L287.37,96.11L287.95,225.79L288.24,162.34L288.39,178.02L288.82,193.96L289.26,193.78L289.4,194.39L289.69,193.67L290.27,193.9L290.42,193.6L290.86,195.09L291,194.57L291.15,200.71L291.29,201.3L291.44,192.82L291.58,193.04L291.73,191.92L291.87,192.2L292.02,191.72L292.31,192.85L292.45,191.19L292.6,191.45L292.74,193.22L293.03,191.38L293.18,191.68L293.32,193.52L293.47,195.5L293.91,192.3L294.05,192.89L294.2,191.49L294.78,191.84L294.92,192.24L295.21,192L295.65,194.02L295.79,192.93L296.95,186.87L297.1,251.96L298.26,91.9L298.41,81.2L299.42,49.71L299.57,48.73L300.15,43.58L300.29,44.84L300.44,48.23L300.73,55.92L300.88,130.22L301.02,85.58L301.31,175.68L301.6,117.59L301.75,131.28L303.05,193.56L303.2,193.71L303.63,194.04L303.78,194.77L304.07,196.85L304.22,203.6L304.8,202.97L304.94,203.05L305.09,203.75L305.38,201.54L305.96,202.18L306.1,203.87L306.25,204.36L306.39,203.16L306.54,201.58L306.68,202.78L306.97,202.14L307.12,194.99L307.99,191.48L308.14,192.35L308.28,194.79L308.72,191.64L308.86,193.4L309.01,191.66L309.59,191.42L309.88,193.08L310.02,191.85L310.17,191.48L310.31,192.71L310.46,192.73L310.6,198.71L310.75,277.43L311.19,191.11L311.33,178.85L311.91,138.19L312.06,197.97L312.49,173.23L312.64,191.87L313.07,101.84L313.51,140.82L313.65,140.26L313.94,132.23L314.09,134.58L314.23,74.76L314.38,59.43L314.82,78.81L314.96,83.16L317.14,195.44L317.28,194.99L317.43,194.46L317.72,194.73L317.86,195.76L318.16,194.26L318.45,195.84L318.59,195.66L318.74,195.08L319.32,192.39L319.61,192.5L319.75,193.27L319.9,193.59L320.04,192.02L320.19,191.79L320.33,192.24L320.48,192.99L320.62,196.15L321.2,193.7L321.35,192.7L321.79,192.35L321.93,193.33L322.22,192.23L322.37,193.16L322.51,193.17L322.66,193.01L322.8,193.51L322.95,193.52L323.09,194.66L323.53,191.73L323.67,258.7L323.96,192.22L324.54,194.51L324.69,202.62L324.98,198.96L325.13,261.47L325.27,271.35L325.42,191.09L326.58,98.88L326.72,91.35L328.03,49.05L328.17,51.19L328.32,50.76L328.9,91.92L329.05,164.99L329.19,193.07L329.48,134.79L329.63,144.94L329.77,158.81L331.08,214.63L331.22,205.12L331.81,204.88L331.95,204.52L332.68,205.06L332.82,204.26L333.11,202.09L333.4,204.81L333.55,204.51L334.56,192.67L334.71,192.46L335,192.15L335.14,193.58L335.58,193.37L335.73,192.17L336.02,193.52L336.45,192.08L336.6,193.25L336.74,193.73L337.03,194.24L337.18,259.77L337.76,192L338.05,193.33L338.19,192.86L338.48,274.03L338.92,198.56L339.07,195.55L339.36,174.63L339.5,228.38L339.65,231.81L339.79,154.17L341.1,51.07L341.24,46.77L342.11,38.97L342.26,43.33L342.55,55.89L342.7,81.57L345.16,196.71L345.31,195.42L345.75,194.79L345.89,198.29L346.18,204.94L346.76,204.42L346.91,203.29L347.2,203.56L347.49,202.94L347.63,203.06L347.78,203.32L348.21,202.95L348.36,203.97L348.65,202.77L348.79,203.17L348.94,204.14L349.23,204.74L349.38,203.03L349.67,203.89L349.81,203.05L349.96,196.22L350.68,191.94L350.83,192.59L350.97,193.71L351.7,192.42L351.84,193.51L351.99,193.74L352.13,192.68L352.28,191.6L352.57,202.37L353.01,194.72L353.15,178.88L353.73,126.1L353.88,186.24L354.89,65.15L355.04,63.4L355.18,124.12L355.62,50.2L355.76,50.12L356.49,152.04L356.64,95.22L356.78,83.11L357.07,114.54L357.22,190.98L357.36,211.31L357.65,155.54L357.8,166.5L357.94,180.95L358.67,221.42L358.81,221.32L358.96,220.75L359.25,304L359.69,212.25L359.83,200.76L360.27,194.39L360.7,194.84L360.85,193.08L360.99,192.99L361.14,193.37L361.28,194.87L362.59,192.91L362.73,193.78L363.17,192.52L363.32,193.17L363.46,194.18L363.61,194.69L363.75,192.34L363.9,192.09L364.04,192.42L364.19,195.05L364.33,195.21L364.48,194.17L364.77,192.17L365.06,193.05L365.2,258.89L365.35,274.71L365.49,208.93L366.22,191.84L366.37,198.88L366.51,203.41L366.66,191.12L366.8,187.41L366.95,184.29L367.09,234.19L367.24,237.94L367.38,164.6L367.67,218.77L367.96,117.86L368.11,99.69L369.27,61.31L369.41,62.72L370.14,46.96L370.29,57.95L370.43,68.53L371.01,184.38L371.16,131.4L371.3,122.01L372.46,207.33L372.9,205.05L373.04,204.69L373.34,206.33L373.48,203.74L373.92,193.95L374.35,194.05L374.5,193.62L375.22,192.32L375.37,193.04L375.51,193.77L375.8,192.16L375.95,192L376.67,194.16L376.82,193.57L376.97,193.65L378.13,191.65L378.27,191.58L379.14,193.36L379.29,192.87L379.43,192.59L379.58,259.5L380.45,190.59L380.6,189.51L380.74,252.89L381.18,152.41L381.32,139.98L382.92,59.06L383.06,56.29L383.65,51.28L383.79,53.67L383.94,119.41L384.08,141.79L384.23,79.08L384.37,67.41L386.4,200.48L386.98,198.85L387.13,197.1L387.57,193.85L388,194L388.15,194.34L388.29,195.05L388.58,193.24L388.73,192.22L389.02,192.12L389.16,192.5L389.31,193.36L389.45,193.28L389.6,192.28L390.03,191.77L390.18,192.08L390.32,193.64L391.05,192.04L391.2,192.24L391.34,192.99L391.78,193.54L392.07,191.79L392.21,192.63L392.36,191.96L392.79,193.42L392.94,258.83L393.52,192.62L393.81,193.49L393.95,191.93L394.1,192.29L394.25,191.16L394.39,189.86L395.26,163.22L395.41,218.1L395.55,225.01L395.7,156.27L396.42,96.45L396.71,108.53L396.86,111.35L397.29,237.17L397.59,127.32L397.73,137.81L397.88,136.11L398.02,150.96L398.6,166.76L398.75,132.67L398.89,161.33L399.18,103.88L399.62,151.84L399.76,191.27L400.78,205.2L400.93,203.52L401.22,204.56L401.36,203.93L401.51,203.01L402.09,204.59L402.38,203.69L402.52,203.35L404.12,192.08L404.26,193.56L405.14,192.3L405.28,193.38L405.43,192.41L406.01,193.11L406.15,192.96L406.44,193.5L406.59,192.96L406.73,192.73L407.02,274.64L407.31,191.93L407.46,192.76L407.6,193.02L408.48,184.31L408.62,181.53L408.91,244.78L409.2,147.58L409.35,141.02L409.49,228.34L409.93,127.21L410.07,75.2L410.51,54.65L410.94,121.95L411.09,180.68L411.23,183.28L411.38,103.02L411.53,69.95L411.82,76.24L411.96,200.06L412.25,237.33L412.54,182.61L412.69,176.3L413.56,210.76L413.7,208.04L413.85,203.53L414.57,204.88L414.72,204.64L414.87,204.6L415.01,206.01L415.16,204.02L415.59,205.33L415.74,205.21L416.17,204.07L416.32,205.49L416.46,205.28L416.61,205.56L416.9,201.86L417.48,201.99L417.62,202.37L417.91,202.9L418.06,200.39L418.21,192.34L418.79,194.69L419.08,193.37L419.22,192.41L419.37,191.64L419.66,193.54L419.95,191.86L420.09,192.57L420.53,192.24L420.82,194.23L420.96,193.38L421.11,191.73L421.54,192.98L421.69,192.41L421.84,258.45L422.71,182.5L422.85,175.88L423.14,154.55L423.29,131.5L425.03,59.9L425.18,57.18L425.32,56.79L425.61,57.52L425.76,54.46L425.9,52.85L426.05,58.19L426.19,61.92L426.34,127.48L427.06,117.41L427.21,132.83L427.35,144.52L427.5,225.63L427.64,256.48L427.93,203.04L428.22,219.03L428.37,219.16L428.81,219.97L428.95,219.06L429.1,218.75L429.24,216.47L430.26,202.83L430.4,203.59L430.84,191.72L431.27,192.95L431.42,192.25L431.71,191.79L431.85,192.77L432,195.85" style="vector-effect: non-scaling-stroke; fill: none; stroke: rgb(0, 128, 0); stroke-opacity: 1; stroke-width: 2px; opacity: 1;"/></g><g class="points"/><g class="text"/></g></g></g><g class="overplot"/><path class="xlines-above crisp" d="M0,0" style="fill: none;"/><path class="ylines-above crisp" d="M0,0" style="fill: none;"/><g class="overlines-above"/><g class="xaxislayer-above"><g class="xtick"><text text-anchor="middle" x="0" y="433" transform="translate(80,0)" style="font-family: 'Open Sans', verdana, arial, sans-serif; font-size: 12px; fill: rgb(42, 63, 95); fill-opacity: 1; white-space: pre; opacity: 1;"><tspan class="line" dy="0em" x="0" y="433">Jan 1</tspan><tspan class="line" dy="1.3em" x="0" y="433">2023</tspan></text></g><g class="xtick"><text text-anchor="middle" x="0" y="433" style="font-family: 'Open Sans', verdana, arial, sans-serif; font-size: 12px; fill: rgb(42, 63, 95); fill-opacity: 1; white-space: pre; opacity: 1;" transform="translate(177.57999999999998,0)">Jan 8</text></g><g class="xtick"><text text-anchor="middle" x="0" y="433" style="font-family: 'Open Sans', verdana, arial, sans-serif; font-size: 12px; fill: rgb(42, 63, 95); fill-opacity: 1; white-space: pre; opacity: 1;" transform="translate(275.15999999999997,0)">Jan 15</text></g><g class="xtick"><text text-anchor="middle" x="0" y="433" style="font-family: 'Open Sans', verdana, arial, sans-serif; font-size: 12px; fill: rgb(42, 63, 95); fill-opacity: 1; white-space: pre; opacity: 1;" transform="translate(372.74,0)">Jan 22</text></g><g class="xtick"><text text-anchor="middle" x="0" y="433" style="font-family: 'Open Sans', verdana, arial, sans-serif; font-size: 12px; fill: rgb(42, 63, 95); fill-opacity: 1; white-space: pre; opacity: 1;" transform="translate(470.32,0)">Jan 29</text></g></g><g class="yaxislayer-above"><g class="ytick"><text text-anchor="end" x="79" y="4.199999999999999" transform="translate(0,356.17)" style="font-family: 'Open Sans', verdana, arial, sans-serif; font-size: 12px; fill: rgb(42, 63, 95); fill-opacity: 1; white-space: pre; opacity: 1;">−50</text></g><g class="ytick"><text text-anchor="end" x="79" y="4.199999999999999" style="font-family: 'Open Sans', verdana, arial, sans-serif; font-size: 12px; fill: rgb(42, 63, 95); fill-opacity: 1; white-space: pre; opacity: 1;" transform="translate(0,273.65)">0</text></g><g class="ytick"><text text-anchor="end" x="79" y="4.199999999999999" style="font-family: 'Open Sans', verdana, arial, sans-serif; font-size: 12px; fill: rgb(42, 63, 95); fill-opacity: 1; white-space: pre; opacity: 1;" transform="translate(0,191.12)">50</text></g><g class="ytick"><text text-anchor="end" x="79" y="4.199999999999999" style="font-family: 'Open Sans', verdana, arial, sans-serif; font-size: 12px; fill: rgb(42, 63, 95); fill-opacity: 1; white-space: pre; opacity: 1;" transform="translate(0,108.59)">100</text></g></g><g class="overaxes-above"/></g></g><g class="polarlayer"/><g class="smithlayer"/><g class="ternarylayer"/><g class="geolayer"/><g class="funnelarealayer"/><g class="pielayer"/><g class="iciclelayer"/><g class="treemaplayer"/><g class="sunburstlayer"/><g class="glimages"/><defs id="topdefs-80727e"><g class="clips"/><clipPath id="legend80727e"><rect width="167" height="67" x="0" y="0"/></clipPath></defs><g class="layer-above"><g class="imagelayer"/><g class="shapelayer"/></g><g class="infolayer"><g class="legend" pointer-events="all" transform="translate(520.64,100)"><rect class="bg" shape-rendering="crispEdges" width="167" height="67" x="0" y="0" style="stroke: rgb(68, 68, 68); stroke-opacity: 1; fill: rgb(255, 255, 255); fill-opacity: 1; stroke-width: 0px;"/><g class="scrollbox" transform="" clip-path="url(#legend80727e)"><g class="groups"><g class="traces" transform="translate(0,14.5)" style="opacity: 1;"><text class="legendtext" text-anchor="start" x="40" y="4.680000000000001" style="font-family: 'Open Sans', verdana, arial, sans-serif; font-size: 12px; fill: rgb(42, 63, 95); fill-opacity: 1; white-space: pre;">BESS</text><g class="layers" style="opacity: 0.5;"><g class="legendfill"/><g class="legendlines"><path class="js-line" d="M5,0h30" style="fill: none; stroke: rgb(0, 191, 255); stroke-opacity: 1; stroke-width: 2px;"/></g><g class="legendsymbols"><g class="legendpoints"/></g></g><rect class="legendtoggle" x="0" y="-9.5" width="161.890625" height="19" style="fill: rgb(0, 0, 0); fill-opacity: 0;"/></g><g class="traces" transform="translate(0,33.5)" style="opacity: 1;"><text class="legendtext" text-anchor="start" x="40" y="4.680000000000001" style="font-family: 'Open Sans', verdana, arial, sans-serif; font-size: 12px; fill: rgb(42, 63, 95); fill-opacity: 1; white-space: pre;">Solar</text><g class="layers" style="opacity: 0.5;"><g class="legendfill"/><g class="legendlines"><path class="js-line" d="M5,0h30" style="fill: none; stroke: rgb(255, 0, 0); stroke-opacity: 1; stroke-width: 2px;"/></g><g class="legendsymbols"><g class="legendpoints"/></g></g><rect class="legendtoggle" x="0" y="-9.5" width="161.890625" height="19" style="fill: rgb(0, 0, 0); fill-opacity: 0;"/></g><g class="traces" transform="translate(0,52.5)" style="opacity: 1;"><text class="legendtext" text-anchor="start" x="40" y="4.680000000000001" style="font-family: 'Open Sans', verdana, arial, sans-serif; font-size: 12px; fill: rgb(42, 63, 95); fill-opacity: 1; white-space: pre;">Grid Meter (Net Load)</text><g class="layers" style="opacity: 0.5;"><g class="legendfill"/><g class="legendlines"><path class="js-line" d="M5,0h30" style="fill: none; stroke: rgb(0, 128, 0); stroke-opacity: 1; stroke-width: 2px;"/></g><g class="legendsymbols"><g class="legendpoints"/></g></g><rect class="legendtoggle" x="0" y="-9.5" width="161.890625" height="19" style="fill: rgb(0, 0, 0); fill-opacity: 0;"/></g></g></g><rect class="scrollbar" rx="20" ry="3" width="0" height="0" x="0" y="0" style="fill: rgb(128, 139, 164); fill-opacity: 1;"/></g><g class="g-gtitle"><text class="gtitle" x="296" y="50" text-anchor="middle" dy="0em" style="font-family: 'Open Sans', verdana, arial, sans-serif; font-size: 17px; fill: rgb(42, 63, 95); opacity: 1; font-weight: normal; white-space: pre;"><tspan class="line" dy="0em" x="296" y="50">Scenario 3</tspan><tspan class="line" dy="1.3em" x="296" y="50">Microgrid Output</tspan><tspan class="line" dy="2.6em" x="296" y="50">From: January 01, 2023 to January 31, 2023</tspan></text></g><g class="g-xtitle"><text class="xtitle" x="296" y="477.409375" text-anchor="middle" style="font-family: 'Open Sans', verdana, arial, sans-serif; font-size: 14px; fill: rgb(42, 63, 95); opacity: 1; font-weight: normal; white-space: pre;">Time</text></g><g class="g-ytitle"><text class="ytitle" transform="rotate(-90,33.60625,260)" x="33.60625" y="260" text-anchor="middle" style="font-family: 'Open Sans', verdana, arial, sans-serif; font-size: 14px; fill: rgb(42, 63, 95); opacity: 1; font-weight: normal; white-space: pre;">Demand (kW)</text></g></g></svg>