<svg class="main-svg" xmlns="http://www.w3.org/2000/svg" xmlns:xlink="http://www.w3.org/1999/xlink" width="700" height="500" style="" viewBox="0 0 700 500"><rect x="0" y="0" width="700" height="500" style="fill: rgb(255, 255, 255); fill-opacity: 1;"/><defs id="defs-f8c861"><g class="clips"><clipPath id="clipf8c861xyplot" class="plotclip"><rect width="437" height="320"/></clipPath><clipPath class="axesclip" id="clipf8c861x"><rect x="80" y="0" width="437" height="500"/></clipPath><clipPath class="axesclip" id="clipf8c861y"><rect x="0" y="100" width="700" height="320"/></clipPath><clipPath class="axesclip" id="clipf8c861xy"><rect x="80" y="100" width="437" height="320"/></clipPath></g><g class="gradients"/><g class="patterns"/></defs><g class="bglayer"/><g class="layer-below"><g class="imagelayer"/><g class="shapelayer"/></g><g class="cartesianlayer"><g class="subplot xy"><g class="layer-subplot"><g class="shapelayer"/><g class="imagelayer"/></g><g class="minor-gridlayer"><g class="x"/><g class="y"/></g><g class="gridlayer"><g class="x"><path class="xgrid crisp" transform="translate(178.70999999999998,0)" d="M0,100v320" style="stroke: rgb(255, 255, 255); stroke-opacity: 1; stroke-width: 1px;"/><path class="xgrid crisp" transform="translate(277.41999999999996,0)" d="M0,100v320" style="stroke: rgb(255, 255, 255); stroke-opacity: 1; stroke-width: 1px;"/><path class="xgrid crisp" transform="translate(376.13,0)" d="M0,100v320" style="stroke: rgb(255, 255, 255); stroke-opacity: 1; stroke-width: 1px;"/><path class="xgrid crisp" transform="translate(474.84,0)" d="M0,100v320" style="stroke: rgb(255, 255, 255); stroke-opacity: 1; stroke-width: 1px;"/></g><g class="y"><path class="ygrid crisp" transform="translate(0,352.40999999999997)" d="M80,0h437" style="stroke: rgb(255, 255, 255); stroke-opacity: 1; stroke-width: 1px;"/><path class="ygrid crisp" transform="translate(0,189.94)" d="M80,0h437" style="stroke: rgb(255, 255, 255); stroke-opacity: 1; stroke-width: 1px;"/><path class="ygrid crisp" transform="translate(0,108.71000000000001)" d="M80,0h437" style="stroke: rgb(255, 255, 255); stroke-opacity: 1; stroke-width: 1px;"/></g></g><g class="zerolinelayer"><path class="yzl zl crisp" transform="translate(0,271.18)" d="M80,0h437" style="stroke: rgb(255, 255, 255); stroke-opacity: 1; stroke-width: 2px;"/></g><path class="xlines-below"/><path class="ylines-below"/><g class="overlines-below"/><g class="xaxislayer-below"/><g class="yaxislayer-below"/><g class="overaxes-below"/><g class="plot" transform="translate(80,100)" clip-path="url(#clipf8c861xyplot)"><g class="scatterlayer mlayer"><g class="trace scatter trace1bff2f" style="stroke-miterlimit: 2; opacity: 0.5;"><g class="fills"/><g class="errorbars"/><g class="lines"><path class="js-line" d="M0,171.18L437,171.18" style="vector-effect: non-scaling-stroke; fill: none; stroke: rgb(0, 191, 255); stroke-opacity: 1; stroke-width: 2px; opacity: 1;"/></g><g class="points"/><g class="text"/></g><g class="trace scatter tracef00f54" style="stroke-miterlimit: 2; opacity: 0.5;"><g class="fills"/><g class="errorbars"/><g class="lines"><path class="js-line" d="M0,171.41L4.26,170.81L4.41,169.78L5.43,94.35L5.58,96.91L5.73,119.58L5.88,120.55L6.02,128.37L6.46,32.55L6.76,118.26L6.9,113.53L7.2,135.77L7.64,128.28L7.79,108.37L7.93,90.06L8.08,121.61L8.23,152.47L8.52,51.66L8.81,154.1L8.96,155.34L9.4,137.44L9.84,168.47L9.99,171.35L12.19,171.18L12.34,171.18L18.07,170.95L18.21,166.67L19.39,101.85L19.54,90.08L20.12,59.54L20.42,70.47L20.56,76.7L20.71,67.42L20.86,171.18L130.88,171.2L131.03,168.28L131.91,141.27L132.05,156.21L132.2,161.62L132.35,133.19L132.5,121.37L132.79,155.41L133.08,128.63L133.23,128.56L133.67,162.82L134.11,160.01L134.26,156.07L134.41,152.56L134.55,118.93L136.02,160.95L136.17,157.64L136.46,162.63L136.61,167.91L137.49,171.37L137.64,171.37L144.98,171.23L145.13,170.14L145.86,130.64L146.01,130.86L146.16,118.61L146.3,113.78L146.45,119.12L146.6,135.69L147.63,53.5L147.92,56.13L148.07,71.48L148.51,31.11L148.95,38.07L149.09,70.44L149.24,55.9L149.53,75.66L149.68,87.4L151.15,171.39L151.3,171.37L159.23,170.82L159.38,167.61L159.67,159.89L159.82,146.78L160.99,92.34L161.14,84.74L162.02,38.72L162.17,66.59L162.61,57.63L162.75,83.97L163.2,66L163.93,116.84L164.08,117.48L165.25,171.4L165.4,171.39L173.33,170.61L173.48,165.18L175.98,51.81L176.12,57.16L176.42,45.71L177,83.78L177.3,80.94L177.44,114.59L177.74,101.29L177.88,122.15L178.03,125.92L178.18,125.45L178.33,136.02L179.35,171.39L179.5,171.38L187.29,171.1L187.43,168.68L188.46,143.32L188.61,148.63L188.75,148.49L188.9,148.8L189.05,126.86L189.2,117.68L189.49,139.97L189.64,141.74L189.93,152.23L190.08,142.61L190.22,130.61L191.1,162.6L191.4,162.36L191.55,160.58L192.72,171.15L192.87,171.09L194.92,171.39L195.07,171.39L201.83,170.92L201.97,167.9L202.27,163.77L202.42,148.84L202.71,156.97L203,142.88L203.15,142.56L203.3,149.72L203.59,130.28L203.74,124.71L203.88,106.23L204.18,124.98L204.47,110.27L204.62,119.59L204.91,105.29L205.06,108.9L205.21,134.77L205.35,153.68L205.94,146.76L206.09,150.1L206.23,149.13L206.38,154.18L207.56,171.38L207.7,171.38L215.64,171.11L215.78,170.44L217.55,122.1L217.69,94.26L217.99,115.82L218.57,27.51L218.72,36.25L219.01,96.39L219.31,77.93L219.45,20.18L221.51,171.22L221.66,171.36L227.39,171.38L227.53,171.38L229.74,171.03L229.88,168.5L230.32,147.26L230.47,134.78L230.77,110.46L231.06,127.49L231.21,142.77L231.5,92.88L231.65,48.96L231.79,46.24L231.94,47.27L232.09,28.2L232.23,31.25L232.38,17.03L232.67,16.1L232.82,17.18L232.97,58.42L233.12,52.99L233.26,62.91L233.41,24.57L234.14,59.74L234.29,69.79L235.91,171.39L236.2,171.38L236.35,171.38L243.69,171.11L243.84,169.43L244.43,144.62L244.57,132.02L246.34,40.27L246.48,35.27L246.92,24.57L247.07,30.92L247.22,32.1L247.36,33.01L247.51,26.71L249.57,167.66L249.71,171.24L251.04,171.38L251.18,171.38L257.79,171.1L257.94,169.1L258.53,144.23L258.67,132.83L260.58,34.41L260.73,34.17L261.47,20.25L261.61,32.34L261.76,17.57L261.91,19.44L262.05,68.1L263.38,162.97L263.52,166.95L264.4,171.38L264.55,171.39L271.89,171.13L272.04,169.91L272.63,146.71L272.78,133.76L274.69,24.72L274.83,20.74L275.42,16.38L275.57,18.17L275.71,20.65L276.45,53.52L276.6,63.4L278.21,171.4L278.5,171.38L278.65,171.38L285.85,171.37L286,171.1L286.58,160L286.73,145.75L288.79,28.81L288.93,25.85L289.52,21.61L289.82,23.1L289.96,25.66L290.99,87.17L291.14,100.44L292.46,171.4L292.61,171.39L292.75,171.39L300.1,170.94L300.24,167.27L300.83,155.65L300.98,133.36L302.74,32.85L302.89,29.56L303.62,23.65L303.77,24.28L303.92,26.66L304.8,64.98L304.95,77.95L306.27,171.3L306.41,171.4L314.2,171.13L314.35,169.68L314.93,145.28L315.08,132.26L316.11,51.27L316.26,61.59L316.4,89.6L317.58,16.51L317.72,17.41L318.02,20.37L318.17,24.33L319.34,98.45L319.49,112.13L320.66,171.39L320.81,171.38L320.96,171.38L328.3,171.07L328.45,170.23L329.04,145.47L329.18,132.32L331.09,23.04L331.24,20.23L331.68,16.18L331.97,16.31L332.12,18.26L333,59.82L333.15,70.58L334.91,171.39L335.06,171.38L342.4,171.04L342.55,169.94L342.99,160.73L343.14,144.9L345.19,22.57L345.34,20.76L345.93,16.31L346.07,16.48L346.22,18.77L347.4,83.8L347.54,96.62L348.87,171.39L349.01,171.38L349.16,171.38L356.5,171.07L356.65,170.08L357.24,145.33L357.39,132.56L359.29,19.33L359.44,16.87L359.59,16.01L360.18,16.17L360.32,16.35L361.06,48.92L361.2,58.45L362.97,171.39L363.11,171.38L363.26,171.37L370.46,171.31L370.61,171.01L371.19,159.95L371.34,143.03L373.4,25.14L373.54,23.53L374.13,20.04L374.42,20.99L374.57,24.96L375.6,83.18L375.75,95.91L377.22,171.39L377.36,171.38L384.71,171.02L384.85,168.7L385.29,158.16L385.44,142.58L387.64,22.3L387.79,20.67L388.09,19.51L388.23,20.13L388.38,22.16L389.11,49.56L389.26,58.55L391.32,171.39L391.46,171.38L398.81,171.04L398.96,168.54L400.86,106.3L401.01,73.71L401.89,130.4L402.04,83.54L402.92,142.9L403.07,132.54L403.22,142.75L403.8,73.45L403.95,86.48L404.1,116.11L404.24,118.9L404.39,159.01L405.42,171.39L405.57,171.39L412.91,170.99L413.06,168.06L414.67,90.52L414.82,39.2L415.26,17.67L415.7,84.21L415.85,79.86L415.99,68.25L416.29,35.34L416.58,50.58L416.73,97.53L417.02,104.83L417.17,133.35L418.49,166.24L418.64,167.66L419.52,171.38L419.67,171.38L427.01,171.02L427.16,168.69L427.6,156.93L427.75,140.28L429.66,16L429.8,16.08L430.98,16.21L431.12,17.71L432.15,87.11L432.3,101.29L433.47,171.4L433.62,171.39L433.77,171.39L437,171.38" style="vector-effect: non-scaling-stroke; fill: none; stroke: rgb(255, 0, 0); stroke-opacity: 1; stroke-width: 2px; opacity: 1;"/></g><g class="points"/><g class="text"/></g><g class="trace scatter trace9bf311" style="stroke-miterlimit: 2; opacity: 0.5;"><g class="fills"/><g class="errorbars"/><g class="lines"><path class="js-line" d="M0,191.1L0.15,190.37L0.73,190.75L0.88,190.7L1.18,191.2L1.32,190.41L1.47,189.62L1.91,190.91L2.06,255.51L2.64,189.9L2.94,191.05L3.08,198.97L3.23,201.61L3.38,266.71L3.53,282.68L3.67,218.1L3.82,201.82L3.97,202.9L4.11,202.73L4.26,193.94L4.99,161.65L5.14,163.99L5.29,149.23L5.43,136.11L5.73,165.97L5.88,165.61L6.02,163.92L6.17,119.88L6.46,55.77L6.76,148.95L6.9,146.51L7.05,158.02L7.2,233.21L7.34,234.25L7.49,248.12L8.52,96.29L8.67,200.15L8.96,181.76L9.11,210.4L9.25,206.3L9.4,172.76L9.69,272.53L10.14,193.81L10.28,171.18L12.78,171.78L12.93,190.01L13.07,189.95L13.22,190.49L13.37,191.28L13.81,189.21L14.25,189.62L14.4,189.03L14.98,191.19L15.13,189.75L15.28,189.52L15.57,190.53L15.86,189.2L16.01,189.39L16.16,189.84L16.3,190.46L16.75,189.29L16.89,189.53L17.19,188.92L17.63,190.64L17.77,189.24L17.92,189.2L18.07,190.2L18.36,270.91L18.8,186.2L18.95,177.55L19.98,97.82L20.12,157.43L20.27,175.6L20.42,120.93L20.56,106.45L20.71,67.42L20.86,171.18L21.01,171.18L21.15,171.18L21.3,171.18L21.45,236.17L21.74,252.41L21.89,187.42L22.03,180.54L22.33,194.57L22.47,194.57L22.62,194.57L22.91,194.57L23.06,185.22L23.5,171.18L23.65,236.17L23.94,252.41L24.09,187.42L24.97,171.18L25.12,171.18L26.15,182.88L26.29,182.88L26.73,182.88L26.88,173.52L27.76,171.18L27.91,171.18L31.43,171.18L31.58,180.54L31.88,182.88L32.02,173.52L32.46,171.18L32.61,180.54L33.34,182.88L33.49,173.52L33.93,182.88L34.08,247.86L34.52,171.18L34.96,182.88L35.11,247.86L35.99,171.18L36.14,171.18L36.72,171.18L36.87,180.54L37.9,194.57L38.04,185.22L38.19,182.88L38.34,247.86L38.49,264.11L38.63,199.12L38.78,173.52L39.66,171.18L39.81,171.18L44.07,171.18L44.21,180.54L44.51,182.88L44.65,173.52L45.54,171.18L45.68,171.18L46.42,171.18L46.56,189.89L47.15,194.57L47.3,185.22L47.45,173.52L48.03,182.88L48.18,182.88L48.33,173.52L48.47,180.54L48.62,247.86L49.06,182.88L49.5,192.23L49.65,194.57L50.24,194.57L50.38,185.22L50.68,194.57L50.82,259.56L51.41,182.88L51.56,192.23L51.71,250.2L52,273.47L52.15,210.82L52.59,194.57L52.73,250.2L53.03,275.81L53.17,210.82L53.32,185.22L54.94,171.18L55.08,171.18L59.2,171.18L59.34,180.54L59.49,182.88L59.64,173.52L59.78,171.18L60.23,171.18L60.37,180.54L60.52,182.88L60.67,238.51L61.55,171.18L61.69,180.54L62.13,192.23L62.28,185.22L62.43,182.88L62.72,273.47L63.31,264.11L63.46,254.75L64.19,171.18L64.34,180.54L64.49,192.23L64.78,194.57L64.93,213.29L65.07,217.97L65.22,282.96L65.37,289.85L65.51,213.16L66.39,182.88L66.54,182.88L66.84,182.88L66.98,192.23L67.86,182.88L68.01,182.88L69.48,182.88L69.63,173.52L70.51,171.18L70.65,171.18L73.45,171.18L73.59,180.54L73.89,182.88L74.03,247.86L74.91,171.18L75.06,171.18L75.21,236.17L75.8,182.88L75.94,192.23L76.24,194.57L76.38,250.2L76.53,264.11L76.68,189.76L77.56,171.18L77.71,171.18L78.44,171.18L78.59,180.54L78.73,182.88L78.88,247.86L79.17,264.11L79.32,199.12L79.47,173.52L80.06,194.57L80.2,194.57L80.5,194.57L80.64,185.22L81.52,171.18L81.67,171.18L82.26,171.18L82.41,180.54L83.29,182.88L83.43,182.88L84.32,171.18L84.46,171.18L86.08,171.18L86.22,236.17L86.37,252.41L86.52,187.42L87.11,171.18L87.25,236.17L87.99,171.18L88.13,236.17L88.28,252.41L88.43,187.42L88.87,171.18L89.02,236.17L89.16,252.41L89.31,187.42L89.46,171.18L90.48,171.18L90.63,189.89L90.93,185.22L91.66,217.97L91.81,208.61L91.95,206.27L92.1,187.55L92.25,192.23L92.54,182.88L92.69,182.88L92.83,182.88L94.01,182.88L94.16,247.86L94.3,254.75L94.45,187.42L95.33,171.18L95.48,171.18L101.35,171.18L101.5,180.54L102.09,194.57L102.24,185.22L102.38,182.88L102.82,247.86L103.12,182.88L103.26,182.88L104.15,171.18L104.29,171.18L105.61,171.18L105.76,180.54L106.06,259.56L106.2,275.81L107.08,171.18L107.23,171.18L107.67,171.18L107.82,180.54L108.41,182.88L108.55,247.86L108.85,264.11L108.99,199.12L109.87,171.18L110.02,171.18L117.07,171.18L117.22,180.54L117.51,182.88L117.66,247.86L117.81,254.75L117.95,187.42L118.1,171.18L118.25,254.88L118.39,285.17L118.69,215.63L118.83,199.25L119.86,217.97L120.01,208.61L120.3,278.15L120.74,203.93L120.89,206.27L121.63,182.88L121.77,192.23L121.92,194.57L122.8,182.88L122.95,247.86L123.09,264.11L123.24,254.75L123.39,187.42L124.27,171.18L124.42,171.18L127.35,171.65L127.5,188.32L127.94,190.34L128.38,190.21L128.53,189.01L128.82,190.62L129.26,189.51L129.41,189L129.7,200.98L130.15,191.66L130.29,190.78L130.44,190.83L130.59,189.1L131.17,273.88L131.32,219.32L131.91,179.78L132.05,191.46L132.2,270.59L132.35,204.68L132.79,276.13L132.94,253.6L133.08,256.84L133.23,183.55L133.82,204.45L133.96,197.74L134.11,196.6L134.26,189.41L134.41,186.39L134.55,217.38L134.85,254.18L135.14,193.72L135.29,194.74L135.58,188.9L136.02,204.12L136.17,201.81L136.31,192.54L136.46,194.14L136.61,209.15L136.9,214.4L137.05,213.85L137.2,277.93L137.49,304L137.64,303.27L137.78,230.54L138.08,203.48L138.52,212.89L138.66,212.8L139.69,188.19L139.84,189.88L139.99,188.99L140.28,190.03L140.57,189.22L140.72,189.19L141.02,190.52L141.31,189.46L141.46,189.04L141.75,190.55L141.9,188.91L142.19,189.82L142.34,189.93L143.37,188.22L143.51,190.49L144.39,188.42L144.54,189.06L144.98,188.77L145.27,196.72L145.42,191.57L145.57,181.5L145.72,189.03L146.01,185.86L146.16,244.65L146.6,273.18L146.74,259.28L146.89,212.7L147.63,110.46L147.77,111.13L147.92,166.07L148.07,187.08L148.21,113.56L148.36,114.77L148.51,75L148.65,190.48L148.8,220.54L149.24,112.85L149.83,134.64L149.98,149.7L150.86,200.97L151,191.06L151.15,191.31L151.3,190.99L151.44,201.37L152.03,203.09L152.33,202.85L152.47,198.72L153.21,212.85L153.65,210.7L153.79,210.41L153.94,209.97L154.09,211.76L154.24,211.48L154.38,210.75L154.53,210.92L154.68,201.71L155.26,199.09L155.56,200.07L155.7,199.11L155.85,198.78L156,200.63L156.44,195.36L156.59,190.25L156.88,188.68L157.47,188.82L157.61,188.85L157.76,189.45L157.91,188.45L158.05,207.59L158.2,212.96L158.35,203.22L158.5,190.89L158.79,188.39L159.08,188.59L159.23,205.62L159.38,208.06L159.52,206.13L159.67,191.15L160.4,126.38L160.55,136.18L160.7,208.72L161.14,215.23L161.43,125.07L161.58,181L162.02,77.55L162.46,96.24L162.61,103.01L162.9,140.8L163.49,133.46L163.64,125.62L164.08,234.43L164.52,206.69L164.66,214.06L165.4,226.72L165.55,208.85L165.99,203.27L166.28,208.35L166.43,277.51L166.57,285.5L166.72,275.78L166.87,207.25L167.6,189.22L167.75,191.43L167.9,190.24L168.48,188.82L168.78,189.07L168.92,189.14L169.22,190.08L169.37,189.04L169.66,189.3L169.81,189.69L169.95,190.61L170.1,189.31L170.39,189.86L170.54,188.94L170.69,190.44L171.13,188.64L171.27,189.54L171.42,189.45L171.72,190.23L171.86,197.94L172.45,202.24L172.6,192.45L172.74,253.96L173.04,189.04L173.33,190.65L173.48,199.98L173.77,274.05L174.07,177.16L174.21,171.64L175.24,127.77L175.39,146.71L175.53,148.59L175.68,137.9L175.98,126.68L176.12,133.49L176.27,197.52L176.42,193.26L176.56,141.75L177.15,93.82L177.3,104.19L177.44,136.67L177.74,123.41L177.88,153.06L178.03,159.38L178.18,221.14L178.62,274.6L178.77,206.72L178.91,208.83L179.35,217.61L179.5,215.4L179.65,205.62L180.68,190.31L180.97,191.99L181.12,194L181.26,199.58L181.7,189.45L181.85,189L182.44,188.76L182.73,190.15L182.88,189.59L183.47,188.67L183.61,190.07L183.91,190.91L184.35,188.85L184.49,189L184.64,189.94L184.79,190.03L184.94,189.5L185.08,189.13L185.38,188.75L185.67,190.38L185.82,190.31L185.96,188.65L186.11,188.69L186.26,253.55L186.4,269.71L186.55,206.58L186.7,188.8L186.85,189.43L186.99,197.97L187.14,192.35L187.29,253.92L187.58,271.57L187.73,207.57L188.46,162.54L188.61,177.32L188.75,177.45L188.9,178.61L189.05,167.74L189.2,168.28L189.34,184.56L189.93,202.19L190.08,252.32L190.37,274.51L190.52,216.82L190.81,185.18L191.4,194.67L191.55,190.57L191.69,192.63L191.84,259.96L191.99,277.44L192.13,211.7L192.28,197.37L192.43,197.96L192.57,190.02L192.87,192.35L193.01,190.12L193.16,190.72L193.31,197.49L193.9,202.33L194.19,200.54L194.34,201.31L194.63,200.46L194.78,201.84L194.92,202.79L195.36,200.88L195.51,200.87L195.81,198.77L196.1,199.31L196.25,200.34L196.39,199.1L196.54,201.6L196.69,208.25L196.83,207.75L196.98,198.34L197.27,200.51L197.71,198.16L197.86,189.56L198.01,189.71L198.16,255.77L198.6,189.2L199.04,190.97L199.18,189.17L199.33,188.53L199.48,189.02L199.62,198.31L199.92,201.79L200.36,200.44L200.51,191.89L201.24,188.66L201.39,189.84L201.53,189.61L201.68,199.39L201.83,200.95L202.12,196.27L202.27,194.72L203.15,161.29L203.3,178.39L203.44,178.76L203.59,226.42L203.74,237.69L203.88,218.42L204.03,163.91L204.18,165.53L204.33,165.2L204.47,150.17L204.91,136.7L205.21,166.14L205.35,240.34L205.79,259.57L205.94,202.91L206.23,190.89L206.53,200.69L206.68,204.1L206.82,206.19L206.97,227.27L207.7,223.88L207.85,224.02L208,225.32L209.03,190.79L209.17,199.46L209.61,220.15L209.91,210.87L210.05,210.39L210.2,210.3L210.35,207.02L211.52,188.79L211.67,189.26L211.82,190.6L211.96,255.21L212.55,188.74L212.84,190.02L212.99,188.91L213.14,188.48L213.29,189.13L213.43,189.1L213.58,189.54L214.17,188.18L214.31,189.5L214.46,189.98L214.61,188.29L214.9,188.39L215.05,197.93L215.34,201.87L215.49,200.85L215.64,191.48L216.37,190L216.52,261.22L216.66,214.95L216.81,201.01L216.96,246.68L217.1,256.94L217.84,97.66L217.99,159.54L218.13,190.97L218.28,226.74L218.43,109.47L218.57,62.81L218.87,85.57L219.01,129.9L219.31,119.68L219.45,62.74L220.78,165.61L220.92,253.03L221.07,283.89L221.36,212.86L221.51,212.91L221.95,200.95L222.39,201.26L222.54,265.71L222.98,297.77L223.13,231.38L224.01,203.73L224.16,204.29L224.3,201.02L224.45,266.19L224.6,282.59L224.74,281.73L224.89,217.27L225.33,200.71L225.77,201.38L225.92,201.18L226.36,188.92L226.8,189.78L226.95,188.4L227.24,189.74L227.68,188.66L227.83,188.29L228.27,190.15L228.42,187.89L228.56,189.34L228.71,188.53L228.86,189.29L229,189.25L229.15,198.54L229.44,209.95L229.59,217.7L230.18,192.51L230.32,249.78L230.47,255.12L230.62,180.06L230.77,150.81L230.91,231.16L231.06,253.29L231.21,269.31L231.35,196.17L232.09,92.56L232.23,97.96L232.38,144.23L232.53,158.53L232.67,85.96L232.97,103.46L233.41,61.5L233.56,67.42L234.73,138.58L234.88,169.34L235.47,220.34L235.91,205.85L236.05,203L236.35,190.17L236.93,190.61L237.08,190.47L237.23,191.36L237.38,200.5L237.52,201.81L237.96,200.98L238.11,199.56L238.55,198.76L238.7,199.56L238.84,200L239.14,198.65L239.43,199.66L239.58,201.63L240.75,188.48L240.9,189.77L241.05,189.71L241.19,188.08L241.49,191.17L241.93,188.52L242.08,188.53L242.37,282.88L242.81,200.84L242.96,201.59L243.25,201.99L243.54,201.85L243.69,200.96L243.84,201.77L243.99,207.49L244.13,205.13L244.28,265.58L244.43,287.35L244.57,212.26L244.72,173.25L246.34,97.97L246.48,80.74L246.63,85.23L246.78,74.6L246.92,69.62L247.22,66.76L247.66,99.47L247.8,113.48L247.95,100.8L248.25,131.64L248.39,146.23L248.54,131.49L248.98,148.82L249.13,150.58L250.15,272.84L250.3,207.6L250.6,191.2L251.04,202.79L251.18,202.82L251.62,214.19L252.06,212.24L252.21,203.13L253.09,198.72L253.24,199.74L253.39,199.91L253.53,198.59L253.83,199.25L253.97,198.71L254.12,196.36L254.56,189.02L255,190.11L255.15,190.42L255.88,188.52L256.03,189.11L256.18,189.78L256.47,189.08L256.62,190.66L256.91,189.37L257.06,190.25L257.35,191.62L257.5,189.97L257.65,195.28L257.94,207.79L258.09,225.59L258.23,226.7L258.38,211.62L258.82,172.02L258.97,218.15L260,87.93L260.14,83.47L260.44,155.34L260.73,75.98L260.88,74.84L261.47,65.73L261.61,78.56L262.05,191.3L262.64,172.39L262.79,179.28L263.08,186.9L263.23,182.55L263.38,249.48L263.67,272.61L263.82,207.92L263.96,191.25L264.11,190.76L264.7,191.03L264.84,191.14L265.58,191.13L265.73,190.44L266.02,203.48L266.61,202.32L266.75,201.28L266.9,201.46L267.05,191.49L267.34,188.87L267.93,189.27L268.08,190.42L268.37,188.62L268.66,191.09L268.81,190.41L268.96,190.9L269.25,189.44L269.4,253.89L269.84,188.25L270.28,188.75L270.43,198.56L270.72,201.53L271.01,200.02L271.16,192.41L271.6,189.04L271.75,254.72L271.89,275.76L272.19,210.1L272.34,208.83L272.48,205.16L272.63,267.44L272.78,272.2L272.92,196.75L274.1,87.18L274.25,93.48L274.39,88.14L274.83,49.17L274.98,110.53L275.13,126.46L275.27,69.57L275.42,56.18L275.57,52.56L275.86,57.96L276.01,64.35L277.04,121.62L277.18,199.54L277.48,241.95L277.77,185.88L277.92,191.16L278.21,191.6L278.5,190.75L278.65,190.98L278.8,191.35L278.95,190.58L279.39,192.24L279.53,192.44L279.68,193.39L279.97,190.61L280.12,191.04L280.86,188.96L281,189.15L281.15,189.44L281.59,190.1L281.74,190.79L282.03,190.68L282.18,188.86L282.32,188.71L282.47,189.25L282.62,190.39L282.91,188.89L283.35,188.95L283.5,189.82L283.65,189.68L283.79,190.16L283.94,190.27L284.09,190.31L284.38,190.86L284.53,189.53L284.67,198.47L285.26,188.75L285.56,189.59L285.7,188.92L285.85,189.54L286.14,188.11L286.29,197.22L286.44,195.65L286.58,181.15L287.17,138.54L287.32,201.97L288.2,75.78L288.35,79.21L288.49,76L288.79,79.68L289.52,63.02L289.67,65.38L289.96,67.18L290.11,139.82L290.26,161.35L290.55,102.47L290.7,94.86L291.28,231.86L291.58,183.44L291.73,198.88L292.17,214.57L292.46,204.97L292.61,193.33L293.05,190.88L293.19,200.71L294.08,203.84L294.22,203.99L295.1,189.16L295.25,189.44L295.4,188.97L295.54,198.5L296.13,202.15L296.28,201.65L296.43,200.33L296.72,202.44L296.87,195.03L297.6,188.74L297.75,188.85L297.89,189.48L298.19,189.09L298.48,190.53L298.63,189.24L299.07,191.23L299.22,199.51L299.51,201.57L299.66,191.88L299.8,188.49L299.95,208.07L300.1,212.64L300.39,207.59L300.54,271.66L301.57,125.63L301.71,114.11L303.33,44.77L303.48,43.37L304.8,187.22L304.95,117.8L305.09,116L305.24,129.47L306.71,202.62L306.85,202.67L307.15,202.95L307.3,194.31L307.44,191.95L307.59,194.02L307.74,200.67L308.32,200.04L308.47,200.12L308.62,200.81L308.91,198.63L309.5,199.26L309.65,200.93L309.79,201.42L309.94,200.23L310.09,198.67L310.23,199.86L310.53,199.22L310.67,192.19L311.56,188.73L311.7,189.59L311.85,191.99L312.29,188.89L312.44,190.62L312.58,188.91L313.17,188.67L313.46,190.31L313.61,189.1L313.76,188.74L313.91,199.3L314.2,207.54L314.35,275.68L315.37,149.06L315.52,155L315.67,218.52L316.11,194.17L316.26,138.17L316.4,145.8L316.7,123.89L316.84,175.64L316.99,180.64L317.14,162.27L317.28,161.71L318.17,65L318.46,77.82L318.61,82.11L320.22,214.9L320.37,215.5L320.52,214.85L320.66,225.23L320.81,227.72L320.96,227.28L321.1,217.4L321.69,205.68L321.84,193.81L322.57,190.94L322.72,191.36L322.87,190.63L323.6,190.81L323.75,189.27L323.89,189.04L324.19,190.22L324.33,193.33L325.22,189.86L325.36,189.91L325.51,189.59L325.66,190.55L325.8,190.35L325.95,198.83L326.54,214.13L326.69,204.77L326.83,203.56L327.27,200.68L327.71,201.16L327.86,201.21L329.04,290.75L329.18,202.39L330.36,109.28L330.5,101.86L331.83,48.53L332.12,50.21L332.27,58.4L332.85,174.36L333,202L333.3,144.63L333.74,164.9L333.88,181.03L334.91,211.53L335.06,202.16L335.35,202.57L335.65,201.92L335.79,201.57L336.53,202.1L336.67,201.31L336.97,199.18L337.26,201.86L337.41,201.56L338.44,189.9L338.58,189.7L338.88,189.4L339.02,190.8L339.46,190.59L339.61,189.42L339.91,190.74L340.35,189.32L340.49,190.47L340.64,200.31L340.93,203.15L341.08,258.29L342.11,190.09L342.26,253.93L342.4,269.99L342.55,206.84L342.7,197.97L343.14,182.01L343.28,172.15L343.58,228.43L343.87,141.92L344.02,115.39L345.63,55.66L345.78,70.63L346.22,68.64L346.52,97.38L346.66,127.34L348.72,215.87L348.87,206.82L349.75,203.69L349.89,207.14L350.04,213.58L350.48,201.77L350.63,201.75L351.51,200.01L351.66,200.14L351.8,200.39L352.24,200.03L352.39,201.03L352.68,199.85L352.83,200.24L352.98,201.2L353.27,201.79L353.42,200.1L353.71,200.95L353.86,200.12L354.01,193.39L354.15,189.6L354.45,191.03L354.59,198.7L355.03,202.63L355.18,202.33L355.33,192.02L355.48,189.57L355.62,199.67L356.06,202.66L356.36,200.54L356.5,197.88L356.65,199.46L356.94,197.75L357.09,191.93L357.83,136.07L357.97,195.27L358.12,201.84L358.27,125.47L358.56,173.54L358.71,100.57L358.85,69.4L359,64.38L359.15,72.02L359.29,134.13L359.44,148.29L359.59,78.88L359.88,61.29L360.03,124.48L360.62,161.61L360.76,115.03L360.91,105.46L361.06,124.37L361.2,145.75L361.65,241.91L361.94,178.18L362.09,190.07L362.38,224.08L362.97,218.1L363.11,217.55L363.41,299.49L363.7,230.02L363.85,209.18L364.44,191.6L364.73,192.54L364.88,192.04L365.17,190.22L365.61,191.65L365.76,191.76L366.79,190.14L366.93,191L367.37,189.75L367.52,190.39L367.67,191.39L367.81,191.89L367.96,189.57L368.11,189.33L368.26,189.66L368.4,192.25L368.55,192.4L368.7,191.38L368.99,189.41L369.28,190.28L369.43,255.09L370.31,189.33L370.46,189.09L370.75,200.48L371.05,184.72L371.19,181.66L371.49,243.83L371.63,173.97L371.93,236.65L372.07,155.82L373.1,81.71L373.25,79.85L374.42,46.47L374.57,57.29L374.72,67.71L375.16,198.68L375.6,143.75L375.75,156.29L375.89,156.8L376.04,160.65L376.77,204.33L377.36,201.73L377.51,202.25L377.66,203.35L377.8,200.81L377.95,191.53L378.68,191.26L378.83,190.84L379.57,189.56L379.71,190.27L379.86,190.99L380.15,189.4L380.3,189.25L381.03,191.37L381.18,190.79L381.33,190.87L382.5,188.9L382.65,198.19L382.94,201.95L383.09,200.59L383.24,192.12L383.38,189.34L383.83,189.83L383.97,255.69L384.27,272.09L384.41,216.25L385,189.13L385.15,249.18L385.29,258.89L385.44,178.41L386.62,83.59L386.76,77.62L388.09,50.73L388.23,53.08L388.53,149.17L389.11,113.26L389.26,116.62L389.41,117.78L389.55,114.61L389.7,125.97L391.32,220.05L391.61,217.66L391.76,215.19L392.49,191.21L392.64,200.9L392.79,203.94L393.37,200.99L393.67,201.43L393.81,192.93L394.55,189.02L394.7,189.33L394.84,190.86L395.58,189.28L395.72,189.48L395.87,190.22L396.31,190.76L396.61,189.04L396.75,189.86L396.9,189.2L397.19,189.61L397.34,200L397.49,266.73L398.07,201.56L398.22,192.58L399.54,172.8L399.69,176.26L399.84,181.97L400.13,245.13L400.42,151.34L400.57,141.97L401.01,104.54L401.31,118.78L401.45,130.91L401.75,240.77L402.04,115.16L402.19,137.27L402.33,138.24L402.48,134.23L402.63,148.85L402.77,143.6L402.92,185.21L403.22,187.79L403.36,154.24L403.51,191.81L403.8,125.9L404.24,161.41L404.39,200.23L404.54,196.51L404.83,201.19L404.98,200.9L405.12,202.04L405.27,201.93L405.42,202.24L405.57,200.59L405.86,201.61L406.01,200.99L406.15,200.09L406.74,201.64L407.03,200.75L407.18,200.42L407.33,198.74L407.92,198.87L408.06,199.01L408.8,189.32L408.94,190.78L409.09,189.91L409.53,190.12L409.68,189.77L409.83,189.54L409.97,190.6L410.56,189.89L410.71,190.34L411.44,189.97L411.59,254.96L412.62,188.91L412.76,189.18L413.06,187.01L413.2,181.68L413.35,178.94L413.5,245.86L414.09,153.1L414.23,227.35L414.38,223.47L414.82,74.27L415.26,86.79L415.41,115.15L415.99,192.36L416.14,132.07L416.29,104.2L416.44,113.36L416.58,110.39L416.73,232.28L416.88,262.04L417.17,200.93L417.32,182.35L417.46,183.15L417.61,195.44L418.34,231.11L418.49,228.43L418.64,214.63L419.52,201.69L419.67,211L419.81,214.73L420.4,214.06L420.55,213.95L420.84,212.87L420.99,203.47L421.72,198.95L422.31,199.08L422.46,199.45L422.75,199.98L422.9,197.51L423.05,189.58L423.63,191.89L423.93,190.59L424.07,189.64L424.22,188.89L424.51,190.76L424.81,189.11L424.95,189.81L425.4,189.48L425.69,191.44L425.84,190.6L425.98,188.98L426.42,190.21L426.57,189.65L426.72,254.66L427.6,189.25L427.75,185.08L428.19,141.39L428.33,132L430.83,63.97L430.98,69.23L431.12,72.9L431.27,137.43L431.42,96.76L432.01,127.52L432.15,142.7L432.3,154.21L432.45,243.41L432.59,266.75L432.89,211.81L433.03,224.71L433.18,227.55L433.47,227.76L433.62,219.04L435.82,188.97L435.97,189.33L436.12,191.34L436.71,189.04L436.85,190L437,193.04" style="vector-effect: non-scaling-stroke; fill: none; stroke: rgb(0, 128, 0); stroke-opacity: 1; stroke-width: 2px; opacity: 1;"/></g><g class="points"/><g class="text"/></g></g></g><g class="overplot"/><path class="xlines-above crisp" d="M0,0" style="fill: none;"/><path class="ylines-above crisp" d="M0,0" style="fill: none;"/><g class="overlines-above"/><g class="xaxislayer-above"><g class="xtick"><text text-anchor="middle" x="0" y="433" transform="translate(80,0)" style="font-family: 'Open Sans', verdana, arial, sans-serif; font-size: 12px; fill: rgb(42, 63, 95); fill-opacity: 1; white-space: pre; opacity: 1;"><tspan class="line" dy="0em" x="0" y="433">Jan 1</tspan><tspan class="line" dy="1.3em" x="0" y="433">2023</tspan></text></g><g class="xtick"><text text-anchor="middle" x="0" y="433" style="font-family: 'Open Sans', verdana, arial, sans-serif; font-size: 12px; fill: rgb(42, 63, 95); fill-opacity: 1; white-space: pre; opacity: 1;" transform="translate(178.70999999999998,0)">Jan 8</text></g><g class="xtick"><text text-anchor="middle" x="0" y="433" style="font-family: 'Open Sans', verdana, arial, sans-serif; font-size: 12px; fill: rgb(42, 63, 95); fill-opacity: 1; white-space: pre; opacity: 1;" transform="translate(277.41999999999996,0)">Jan 15</text></g><g class="xtick"><text text-anchor="middle" x="0" y="433" style="font-family: 'Open Sans', verdana, arial, sans-serif; font-size: 12px; fill: rgb(42, 63, 95); fill-opacity: 1; white-space: pre; opacity: 1;" transform="translate(376.13,0)">Jan 22</text></g><g class="xtick"><text text-anchor="middle" x="0" y="433" style="font-family: 'Open Sans', verdana, arial, sans-serif; font-size: 12px; fill: rgb(42, 63, 95); fill-opacity: 1; white-space: pre; opacity: 1;" transform="translate(474.84,0)">Jan 29</text></g></g><g class="yaxislayer-above"><g class="ytick"><text text-anchor="end" x="79" y="4.199999999999999" transform="translate(0,352.40999999999997)" style="font-family: 'Open Sans', verdana, arial, sans-serif; font-size: 12px; fill: rgb(42, 63, 95); fill-opacity: 1; white-space: pre; opacity: 1;">−50</text></g><g class="ytick"><text text-anchor="end" x="79" y="4.199999999999999" style="font-family: 'Open Sans', verdana, arial, sans-serif; font-size: 12px; fill: rgb(42, 63, 95); fill-opacity: 1; white-space: pre; opacity: 1;" transform="translate(0,271.18)">0</text></g><g class="ytick"><text text-anchor="end" x="79" y="4.199999999999999" style="font-family: 'Open Sans', verdana, arial, sans-serif; font-size: 12px; fill: rgb(42, 63, 95); fill-opacity: 1; white-space: pre; opacity: 1;" transform="translate(0,189.94)">50</text></g><g class="ytick"><text text-anchor="end" x="79" y="4.199999999999999" style="font-family: 'Open Sans', verdana, arial, sans-serif; font-size: 12px; fill: rgb(42, 63, 95); fill-opacity: 1; white-space: pre; opacity: 1;" transform="translate(0,108.71000000000001)">100</text></g></g><g class="overaxes-above"/></g></g><g class="polarlayer"/><g class="smithlayer"/><g class="ternarylayer"/><g class="geolayer"/><g class="funnelarealayer"/><g class="pielayer"/><g class="iciclelayer"/><g class="treemaplayer"/><g class="sunburstlayer"/><g class="glimages"/><defs id="topdefs-f8c861"><g class="clips"/><clipPath id="legendf8c861"><rect width="162" height="67" x="0" y="0"/></clipPath></defs><g class="layer-above"><g class="imagelayer"/><g class="shapelayer"/></g><g class="infolayer"><g class="legend" pointer-events="all" transform="translate(525.74,100)"><rect class="bg" shape-rendering="crispEdges" width="162" height="67" x="0" y="0" style="stroke: rgb(68, 68, 68); stroke-opacity: 1; fill: rgb(255, 255, 255); fill-opacity: 1; stroke-width: 0px;"/><g class="scrollbox" transform="" clip-path="url(#legendf8c861)"><g class="groups"><g class="traces" transform="translate(0,14.5)" style="opacity: 1;"><text class="legendtext" text-anchor="start" x="40" y="4.680000000000001" style="font-family: 'Open Sans', verdana, arial, sans-serif; font-size: 12px; fill: rgb(42, 63, 95); fill-opacity: 1; white-space: pre;">BESS</text><g class="layers" style="opacity: 0.5;"><g class="legendfill"/><g class="legendlines"><path class="js-line" d="M5,0h30" style="fill: none; stroke: rgb(0, 191, 255); stroke-opacity: 1; stroke-width: 2px;"/></g><g class="legendsymbols"><g class="legendpoints"/></g></g><rect class="legendtoggle" x="0" y="-9.5" width="156.71875" height="19" style="fill: rgb(0, 0, 0); fill-opacity: 0;"/></g><g class="traces" transform="translate(0,33.5)" style="opacity: 1;"><text class="legendtext" text-anchor="start" x="40" y="4.680000000000001" style="font-family: 'Open Sans', verdana, arial, sans-serif; font-size: 12px; fill: rgb(42, 63, 95); fill-opacity: 1; white-space: pre;">Solar</text><g class="layers" style="opacity: 0.5;"><g class="legendfill"/><g class="legendlines"><path class="js-line" d="M5,0h30" style="fill: none; stroke: rgb(255, 0, 0); stroke-opacity: 1; stroke-width: 2px;"/></g><g class="legendsymbols"><g class="legendpoints"/></g></g><rect class="legendtoggle" x="0" y="-9.5" width="156.71875" height="19" style="fill: rgb(0, 0, 0); fill-opacity: 0;"/></g><g class="traces" transform="translate(0,52.5)" style="opacity: 1;"><text class="legendtext" text-anchor="start" x="40" y="4.680000000000001" style="font-family: 'Open Sans', verdana, arial, sans-serif; font-size: 12px; fill: rgb(42, 63, 95); fill-opacity: 1; white-space: pre;">Grid Meter (Net Load)</text><g class="layers" style="opacity: 0.5;"><g class="legendfill"/><g class="legendlines"><path class="js-line" d="M5,0h30" style="fill: none; stroke: rgb(0, 128, 0); stroke-opacity: 1; stroke-width: 2px;"/></g><g class="legendsymbols"><g class="legendpoints"/></g></g><rect class="legendtoggle" x="0" y="-9.5" width="156.71875" height="19" style="fill: rgb(0, 0, 0); fill-opacity: 0;"/></g></g></g><rect class="scrollbar" rx="20" ry="3" width="0" height="0" x="0" y="0" style="fill: rgb(128, 139, 164); fill-opacity: 1;"/></g><g class="g-gtitle"><text class="gtitle" x="298.5" y="50" text-anchor="middle" dy="0em" style="font-family: 'Open Sans', verdana, arial, sans-serif; font-size: 17px; fill: rgb(42, 63, 95); opacity: 1; font-weight: normal; white-space: pre;"><tspan class="line" dy="0em" x="298.5" y="50">Scenario 4</tspan><tspan class="line" dy="1.3em" x="298.5" y="50">Microgrid Output</tspan><tspan class="line" dy="2.6em" x="298.5" y="50">From: January 01, 2023 to January 31, 2023</tspan></text></g><g class="g-xtitle"><text class="xtitle" x="298.5" y="476.409375" text-anchor="middle" style="font-family: 'Open Sans', verdana, arial, sans-serif; font-size: 14px; fill: rgb(42, 63, 95); opacity: 1; font-weight: normal; white-space: pre;">Time</text></g><g class="g-ytitle"><text class="ytitle" transform="rotate(-90,33.840625,260)" x="33.840625" y="260" text-anchor="middle" style="font-family: 'Open Sans', verdana, arial, sans-serif; font-size: 14px; fill: rgb(42, 63, 95); opacity: 1; font-weight: normal; white-space: pre;">Demand (kW)</text></g></g></svg>