<svg class="main-svg" xmlns="http://www.w3.org/2000/svg" xmlns:xlink="http://www.w3.org/1999/xlink" width="700" height="500" style="" viewBox="0 0 700 500"><rect x="0" y="0" width="700" height="500" style="fill: rgb(255, 255, 255); fill-opacity: 1;"/><defs id="defs-3f3c0f"><g class="clips"><clipPath id="clip3f3c0fxyplot" class="plotclip"><rect width="437" height="320"/></clipPath><clipPath class="axesclip" id="clip3f3c0fx"><rect x="80" y="0" width="437" height="500"/></clipPath><clipPath class="axesclip" id="clip3f3c0fy"><rect x="0" y="100" width="700" height="320"/></clipPath><clipPath class="axesclip" id="clip3f3c0fxy"><rect x="80" y="100" width="437" height="320"/></clipPath></g><g class="gradients"/><g class="patterns"/></defs><g class="bglayer"/><g class="layer-below"><g class="imagelayer"/><g class="shapelayer"/></g><g class="cartesianlayer"><g class="subplot xy"><g class="layer-subplot"><g class="shapelayer"/><g class="imagelayer"/></g><g class="minor-gridlayer"><g class="x"/><g class="y"/></g><g class="gridlayer"><g class="x"><path class="xgrid crisp" transform="translate(178.70999999999998,0)" d="M0,100v320" style="stroke: rgb(255, 255, 255); stroke-opacity: 1; stroke-width: 1px;"/><path class="xgrid crisp" transform="translate(277.41999999999996,0)" d="M0,100v320" style="stroke: rgb(255, 255, 255); stroke-opacity: 1; stroke-width: 1px;"/><path class="xgrid crisp" transform="translate(376.13,0)" d="M0,100v320" style="stroke: rgb(255, 255, 255); stroke-opacity: 1; stroke-width: 1px;"/><path class="xgrid crisp" transform="translate(474.84,0)" d="M0,100v320" style="stroke: rgb(255, 255, 255); stroke-opacity: 1; stroke-width: 1px;"/></g><g class="y"><path class="ygrid crisp" transform="translate(0,366.36)" d="M80,0h437" style="stroke: rgb(255, 255, 255); stroke-opacity: 1; stroke-width: 1px;"/><path class="ygrid crisp" transform="translate(0,194.3)" d="M80,0h437" style="stroke: rgb(255, 255, 255); stroke-opacity: 1; stroke-width: 1px;"/><path class="ygrid crisp" transform="translate(0,108.28)" d="M80,0h437" style="stroke: rgb(255, 255, 255); stroke-opacity: 1; stroke-width: 1px;"/></g></g><g class="zerolinelayer"><path class="yzl zl crisp" transform="translate(0,280.33000000000004)" d="M80,0h437" style="stroke: rgb(255, 255, 255); stroke-opacity: 1; stroke-width: 2px;"/></g><path class="xlines-below"/><path class="ylines-below"/><g class="overlines-below"/><g class="xaxislayer-below"/><g class="yaxislayer-below"/><g class="overaxes-below"/><g class="plot" transform="translate(80,100)" clip-path="url(#clip3f3c0fxyplot)"><g class="scatterlayer mlayer"><g class="trace scatter tracef23694" style="stroke-miterlimit: 2; opacity: 0.5;"><g class="fills"/><g class="errorbars"/><g class="lines"><path class="js-line" d="M0,180.33L2.06,180.33L2.2,244.35L3.08,180.33L3.23,180.33L3.53,244.22L3.67,148.49L3.82,211.56L3.97,164.91L4.11,196.15L4.7,179.79L4.85,175.35L4.99,176.07L5.14,169.06L5.43,145.77L5.88,162.95L6.02,174.61L6.46,109.12L6.76,153.71L6.9,169.17L7.05,162.35L7.2,176.12L7.34,202.81L7.49,198.18L7.64,154.9L7.93,133.07L8.23,180.36L8.37,155.23L8.52,113.25L8.67,201.86L9.25,180.33L9.4,169.49L9.55,177.62L9.69,235.37L10.58,180.33L10.72,180.33L18.21,180.33L18.36,244.2L19.24,165.4L19.39,155.36L19.98,130.56L20.12,135.47L20.27,178.94L20.42,177.18L20.56,128.33L20.71,127.64L20.86,189.68L21.01,165.82L21.45,180.33L21.59,228.5L22.47,180.33L22.62,180.33L23.65,180.33L23.8,228.5L24.24,144.2L24.68,180.33L24.82,175.17L25.71,180.33L25.85,180.33L34.08,180.33L34.23,228.5L34.37,144.2L34.96,175.17L35.11,178.61L35.84,228.5L35.99,192.37L36.87,180.33L37.02,180.33L38.34,180.33L38.49,228.5L38.93,144.2L39.37,180.33L39.51,175.17L40.39,180.33L40.54,180.33L48.47,180.33L48.62,228.5L49.21,180.33L49.5,192.37L49.65,180.33L133.08,180.33L133.23,174.36L134.11,180.33L134.26,180.33L134.41,180.33L134.55,162.12L135.43,180.33L135.58,180.33L146.01,180.33L146.16,177.86L147.04,180.33L147.18,154.42L147.33,157.08L147.48,139.33L147.63,146.56L147.92,137.9L148.07,188.75L148.51,110.36L148.8,182.42L148.95,173.84L149.09,188.93L149.24,182.03L149.39,122.78L150.27,180.33L150.42,180.33L150.71,180.92L150.86,184.71L151.74,180.33L151.89,180.33L152.47,180.94L152.62,184.06L152.91,184.19L153.35,181.19L153.5,183.03L153.94,180.94L154.09,184.16L154.24,181.29L154.38,183.29L154.68,183.44L155.12,181.23L155.26,183.15L155.7,181.94L155.85,182.17L156,183.48L157.03,180.33L157.17,180.33L159.82,180.33L159.96,171.64L160.26,166.89L160.4,150.64L160.85,209.04L160.99,188.76L161.14,147.07L161.29,207.22L161.58,140.79L161.87,169.85L162.02,166.6L162.17,177.83L162.31,110.72L162.61,105.44L162.75,161.71L163.05,158.38L163.2,118.23L163.93,229.04L164.22,228.31L164.37,144.62L164.52,206.25L165.11,186L165.25,181.75L165.4,187.11L165.69,180.33L165.84,180.33L165.99,180.33L166.28,181.17L166.43,184.35L166.57,243.77L167.01,150.77L167.16,210.5L167.31,166.72L167.46,193.91L168.04,180.33L168.19,180.33L172.74,180.33L172.89,244.01L173.04,147.7L173.62,177.83L173.77,243.1L173.92,136.51L174.51,151.37L174.65,166.54L175.53,140.55L175.68,138.21L175.98,130.42L176.12,139.32L176.27,131.34L176.42,177.09L176.56,182.1L176.71,123.59L177.44,170.69L177.59,146.14L178.33,234.11L178.47,194.5L178.62,180.33L181.12,180.33L181.26,183.87L182.14,180.33L182.29,180.33L186.26,180.33L186.4,243.11L186.55,149.5L187.14,181.75L187.29,179.47L187.43,242.12L188.02,178.3L188.17,179.67L188.31,175.69L188.75,180.33L188.9,180.33L189.05,169.54L189.64,179.83L189.78,180.33L190.08,180.33L190.22,219L190.52,179.3L191.1,180.33L191.25,180.33L191.84,180.33L191.99,249.72L192.87,180.33L193.01,180.33L193.16,180.33L193.31,181.92L193.9,184.24L194.19,183.44L194.34,183.16L194.63,182.5L194.78,184.5L195.07,184L195.22,182.65L195.36,183.68L195.66,183.38L195.81,181.03L196.69,187.35L196.83,186.54L196.98,181.52L197.71,182.11L197.86,180.72L198.16,180.33L198.3,245.28L198.45,147.16L199.04,178.65L199.18,180.82L199.33,180.94L199.48,180.33L199.62,180.33L199.77,180.33L202.27,180.33L202.42,178.25L202.71,180.33L202.86,179.26L203,173.55L203.3,179.82L203.44,177.21L203.59,164.6L203.74,217.75L204.18,135.7L204.33,173.91L204.47,145.41L205.5,225.36L205.65,191.59L205.79,234.58L205.94,144.75L206.23,159.6L206.38,172.86L207.26,180.33L207.41,180.33L216.81,180.33L216.96,169.34L217.1,228.83L217.55,155.88L217.69,151.45L217.99,174.66L218.13,115.25L218.28,230.42L218.72,61.14L219.01,118.55L219.16,163.47L219.45,117.49L219.9,140.24L220.04,136.36L221.36,250.54L221.51,153.95L221.66,218.02L222.25,186.83L222.39,182.08L222.54,184.72L222.69,249.76L223.57,180.33L223.71,180.33L224.45,180.33L224.6,244.18L225.48,180.33L225.62,180.33L230.62,180.33L230.77,162.77L231.35,180.33L231.5,153.13L232.38,108.73L232.53,176.48L233.41,87.3L233.56,157.07L233.7,97.02L234.14,163.16L234.29,123.43L234.44,166.11L234.58,140.41L235.03,177.88L235.17,180.33L235.47,188.67L235.91,181.57L236.05,180.33L237.23,180.33L237.38,184.49L237.67,184.68L238.11,181.4L238.26,183.12L238.4,181.43L238.84,183.3L238.99,181.69L239.14,182.44L239.58,183.47L240.17,180.33L240.31,180.33L242.22,180.33L242.37,244.43L243.25,180.33L243.4,180.33L244.28,180.33L244.43,240.5L245.45,143.47L245.6,142.73L246.34,123.45L246.48,127.82L246.63,120.33L246.92,113.13L247.22,115.36L247.36,124.63L247.51,112.15L247.66,142.48L247.8,137.36L247.95,138.33L248.98,172.36L249.13,165.85L250.01,245.33L250.3,245.23L250.45,148.71L250.6,212.5L251.18,181.73L251.33,181.11L251.48,185.12L252.06,183.87L252.21,182.3L252.65,183.96L252.8,181.65L252.95,182.66L253.09,181.35L253.24,183.52L253.83,182.92L253.97,181.25L254.71,180.33L254.86,245.71L255,147.32L255.59,177.25L255.74,181.77L256.77,180.33L256.91,180.33L257.65,180.33L257.79,182.53L258.53,180.33L258.67,171.14L258.82,170.32L258.97,159.09L259.12,210.16L259.41,135.61L259.56,157.73L259.7,126.94L260.29,115.24L260.44,192.24L260.58,135.98L261.47,110.18L261.61,137.41L261.76,105.19L261.91,189.02L262.2,152.78L262.35,174.01L262.49,153.42L262.93,179.56L263.08,180.33L263.38,180.33L263.52,243.05L263.82,243.95L263.96,150.1L264.4,195.61L264.55,181.05L264.7,180L265.28,180.33L265.43,180.33L269.4,180.33L269.54,243.6L269.69,147.74L270.28,179.06L270.43,179.94L270.57,180.65L271.16,180.33L271.31,180.33L271.75,180.33L271.89,248.3L272.63,179.33L272.78,216.48L273.95,126.12L274.1,131.49L274.25,132.72L274.39,129.05L274.54,118.68L274.69,120.19L274.83,112.54L274.98,115.87L275.13,167.71L275.71,102.26L276.01,108.63L276.15,130.49L276.3,116.32L276.45,166.47L276.6,180.33L277.18,180.33L277.33,208.33L277.48,198.38L277.62,222.84L277.77,162.87L277.92,197.15L278.5,180.33L278.65,180.33L286.58,180.33L286.73,176.75L287.17,154.18L287.32,158.44L287.47,191.18L287.76,117.66L287.91,201.64L288.05,143.55L288.64,180.33L288.79,180.33L290.84,180.33L290.99,182.53L291.58,205.7L291.73,168.06L291.87,184.05L292.46,180.33L292.61,180.33L294.37,180.33L294.52,182.24L295.54,180.33L295.69,180.33L300.54,180.33L300.69,236.52L301.42,131.72L301.57,158.58L301.71,119.54L302.01,180.33L302.15,180.33L302.3,180.33L307.59,180.33L307.74,184.67L307.88,181.41L308.47,181.45L308.62,184.65L309.35,181.31L309.5,183.45L309.79,184.24L309.94,181.66L310.38,182.69L310.53,182.07L311.41,180.33L311.56,180.33L314.2,180.36L314.35,191.2L314.49,249.29L314.64,150.84L315.08,183.17L315.23,162.51L315.52,150.87L315.82,181.1L316.11,179.68L316.26,180.17L316.84,135.48L316.99,175.32L317.14,181.34L318.02,180.33L318.17,180.33L327.42,180.33L327.57,244.91L327.71,147.38L328.3,179.78L328.45,188.74L328.89,180.46L329.04,241.39L330.06,128.05L330.21,160.85L330.65,114.53L330.8,164.67L330.94,180.33L333,180.33L333.15,183.12L334.03,180.33L334.18,187.28L334.62,181.84L334.76,192.51L334.91,184.89L335.06,184.8L335.35,185.13L335.79,182.18L335.94,185.38L336.53,185.41L336.67,181.56L336.82,183.88L337.11,184.77L337.7,180.33L337.85,180.33L341.08,180.33L341.23,244.68L341.37,147.78L341.96,178.56L342.11,181.59L342.26,181.13L342.4,243.37L343.28,180.33L343.43,171.12L343.58,215.27L343.87,141.95L344.02,162.09L344.17,127.43L344.31,149.69L344.75,111.72L344.9,129.11L345.05,105.13L345.93,180.33L346.07,180.33L349.89,180.33L350.04,185.69L350.78,181.64L350.92,184.41L351.07,181.35L351.22,184.63L351.66,181.38L351.8,184.35L351.95,181.33L352.39,184.97L352.54,181.49L352.68,183.96L353.27,185.32L353.42,181.55L353.57,184.67L354.45,180.33L354.59,180.33L356.5,180.33L356.65,183.65L357.53,167.48L357.68,160.55L357.97,152.85L358.12,192.3L358.27,105L358.85,180.33L359,180.33L361.35,180.33L361.5,190.93L361.65,191.58L361.79,182.48L362.09,180.33L362.23,184.59L362.38,191.37L362.53,188.03L362.97,194.89L363.11,189.19L363.26,194.86L363.41,258.54L363.85,159.2L364,211.6L364.14,167.73L364.29,194.57L364.88,180.33L365.02,180.33L369.43,180.33L369.58,243.96L369.72,148.26L370.31,179.47L370.46,179.45L370.75,184.69L370.9,181.42L371.05,180.33L371.34,175.95L371.49,216.69L371.93,216.93L372.51,130.55L372.66,137.1L373.4,116.86L373.54,127.15L373.69,117.63L373.84,124.56L373.98,117.23L374.13,118.94L374.28,168.26L375.16,180.33L375.31,180.33L376.48,180.33L376.63,184.72L377.22,183.32L377.51,183.66L377.66,185.06L378.54,180.33L378.68,180.33L383.97,180.33L384.12,244.99L385,180.33L385.15,180.33L385.29,234.22L385.59,162.8L385.74,165.59L385.88,149.07L386.03,160.91L386.18,138.78L386.32,149.12L386.47,130.15L387.5,180.33L387.64,180.33L390.73,180.63L390.88,181.86L391.76,180.33L391.9,180.33L397.49,180.33L397.63,244.34L398.51,180.33L398.66,180.33L399.54,180.33L399.69,176.79L399.98,166.22L400.13,212.2L401.01,117.18L401.16,164.65L401.89,199.69L402.04,180.38L402.19,144.29L403.07,180.33L403.22,180.33L404.54,180.33L404.68,182.15L405.42,184.92L405.57,181.43L405.71,184.78L406.15,181.31L406.3,184.41L406.45,181.35L406.59,184.79L407.18,183.97L407.33,181.2L407.47,183.28L408.06,182.88L408.21,180.93L409.09,180.33L409.24,180.33L411.59,180.33L411.73,243.91L412.62,180.33L412.76,180.33L413.5,180.33L413.64,219.25L414.82,126.68L414.97,141.85L415.11,137.33L415.26,107.84L416.14,180.33L416.29,180.33L416.73,180.33L416.88,206.84L417.17,225.68L417.32,154.95L417.76,181.44L417.9,181.06L418.34,188.67L418.64,184.27L418.79,182.26L419.08,181.73L419.23,185.25L419.52,185.1L419.67,182L419.81,186.31L419.96,181.79L420.4,185.75L420.55,182.04L420.84,181.66L421.28,185.02L421.43,183.07L421.58,182.98L421.72,181.53L422.46,183.14L422.6,181.22L422.75,183.94L423.05,180.33L423.19,180.33L423.34,180.33L426.72,180.33L426.86,244.25L427.75,180.33L427.89,177.86L429.07,129.46L429.21,130.14L429.36,125.08L429.51,124.42L429.66,169.18L430.54,180.33L430.68,180.33L432.45,180.33L432.59,228.58L432.89,244.45L433.03,169.74L433.47,201.57L433.62,185.96L433.77,198.32L434.21,184.58L434.36,189.41L434.5,182.6L434.94,189.16L435.09,182.54L435.24,183.96L435.38,182.05L436.27,180.33L436.41,180.33L437,180.33" style="vector-effect: non-scaling-stroke; fill: none; stroke: rgb(0, 191, 255); stroke-opacity: 1; stroke-width: 2px; opacity: 1;"/></g><g class="points"/><g class="text"/></g><g class="trace scatter tracee3741b" style="stroke-miterlimit: 2; opacity: 0.5;"><g class="fills"/><g class="errorbars"/><g class="lines"><path class="js-line" d="M0,180.57L4.26,179.94L4.41,178.85L5.43,98.97L5.58,101.69L5.73,125.69L5.88,126.72L6.02,135L6.46,33.53L6.76,124.29L6.9,119.28L7.2,142.83L7.64,134.9L7.79,113.82L7.93,94.42L8.08,127.84L8.23,160.52L8.52,53.77L8.81,162.25L8.96,163.56L9.4,144.6L9.84,177.46L9.99,180.51L12.19,180.33L12.34,180.33L18.07,180.09L18.21,175.55L19.39,106.91L19.54,94.45L20.12,62.11L20.42,73.69L20.56,80.28L20.71,70.45L20.86,180.33L130.88,180.35L131.03,177.26L131.91,148.65L132.05,164.48L132.2,170.21L132.35,140.1L132.5,127.59L132.79,163.63L133.08,135.27L133.23,135.2L133.67,171.48L134.11,168.51L134.26,164.34L134.41,160.61L134.55,125L136.02,169.5L136.17,166L136.46,171.27L136.61,176.87L137.49,180.54L137.64,180.54L144.98,180.38L145.13,179.23L145.86,137.4L146.01,137.63L146.16,124.66L146.3,119.55L146.45,125.21L146.6,142.74L147.63,55.71L147.92,58.49L148.07,74.75L148.51,32L148.95,39.37L149.09,73.65L149.24,58.26L149.53,79.18L149.68,91.62L151.15,180.55L151.3,180.54L159.23,179.95L159.38,176.56L159.67,168.38L159.82,154.49L160.99,96.85L161.14,88.79L162.02,40.06L162.17,69.57L162.61,60.09L162.75,87.98L163.2,68.95L163.93,122.78L164.08,123.46L165.25,180.56L165.4,180.55L173.18,180.37L173.33,179.73L174.51,112.42L174.65,97.86L175.98,53.92L176.12,59.58L176.42,47.46L177,87.78L177.3,84.77L177.44,120.41L177.74,106.32L177.88,128.41L178.03,132.41L178.18,131.9L178.33,143.1L179.35,180.55L179.5,180.55L187.29,180.25L187.43,177.69L188.46,150.83L188.61,156.45L188.75,156.3L188.9,156.63L189.05,133.4L189.2,123.68L189.49,147.28L189.64,149.16L189.93,160.26L190.08,150.08L190.22,137.37L191.1,171.25L191.4,171L191.55,169.1L192.72,180.3L192.87,180.24L194.92,180.55L195.07,180.55L201.83,180.05L201.97,176.86L202.27,172.49L202.42,156.68L202.71,165.28L203,150.36L203.15,150.02L203.3,157.6L203.59,137.02L203.74,131.13L203.88,111.56L204.18,131.4L204.47,115.83L204.62,125.7L204.91,110.56L205.06,114.38L205.21,141.77L205.35,161.79L205.94,154.47L206.09,158.01L206.23,156.98L206.38,162.33L207.56,180.55L207.7,180.54L215.49,180.46L215.64,180.26L215.78,179.55L215.93,174.87L217.25,142.46L217.4,151.34L217.55,128.36L218.57,28.19L218.72,37.44L219.01,101.13L219.31,81.59L219.45,20.42L221.51,180.37L221.66,180.52L227.53,180.55L227.68,180.54L229.74,180.17L229.88,177.49L230.32,155L230.47,141.78L230.77,116.04L231.06,134.06L231.21,150.25L231.5,97.41L231.65,50.91L231.79,48.03L231.94,49.12L232.09,28.92L232.23,32.15L232.38,17.1L232.67,16.1L232.82,17.25L232.97,60.92L233.12,55.17L233.26,65.68L233.41,25.07L234.14,62.32L234.29,72.96L235.91,180.56L236.2,180.54L236.35,180.54L243.69,180.26L243.84,178.47L244.43,152.21L244.57,138.86L246.34,41.71L246.48,36.41L246.92,25.08L247.07,31.8L247.22,33.05L247.36,34.01L247.51,27.34L249.57,176.61L249.71,180.4L251.04,180.55L251.18,180.55L257.79,180.25L257.94,178.13L258.53,151.79L258.67,139.71L260.58,35.5L260.73,35.24L261.47,20.5L261.61,33.3L261.76,17.66L261.91,19.64L262.05,71.17L263.38,171.64L263.52,175.85L264.4,180.55L264.55,180.55L271.89,180.28L272.04,178.99L272.63,154.42L272.78,140.7L274.69,25.24L274.83,21.02L275.42,16.4L275.57,18.3L275.71,20.92L276.45,55.73L276.6,66.2L278.36,180.56L278.5,180.55L278.65,180.55L286,180.25L286.14,178.99L286.73,153.41L286.88,139.77L288.64,31.57L288.79,29.57L289.52,21.95L289.67,22.7L289.82,23.52L290.4,47.66L290.55,56.72L292.31,180.57L292.61,180.55L292.75,180.55L300.1,180.08L300.24,176.19L300.83,163.88L300.98,140.28L302.74,33.84L302.89,30.36L303.62,24.1L303.77,24.77L303.92,27.29L304.8,67.86L304.95,81.6L306.27,180.46L306.41,180.56L314.2,180.28L314.35,178.75L314.93,152.9L315.08,139.12L316.11,53.35L316.26,64.28L316.4,93.94L317.58,16.54L317.72,17.49L318.02,20.63L318.17,24.82L319.34,103.31L319.49,117.8L320.52,180.56L320.81,180.55L320.96,180.55L328.3,180.21L328.45,179.33L329.04,153.1L329.18,139.18L331.09,23.46L331.24,20.48L331.68,16.19L331.97,16.33L332.12,18.39L333,62.4L333.15,73.8L334.76,180.56L334.91,180.55L335.06,180.54L342.4,180.18L342.55,179.02L342.99,169.26L343.14,152.5L345.19,22.96L345.34,21.04L345.93,16.33L346.07,16.51L346.22,18.94L347.4,87.79L347.54,101.37L348.87,180.56L349.01,180.55L349.16,180.55L356.5,180.22L356.65,179.17L357.24,152.96L357.39,139.44L359.29,19.52L359.44,16.93L359.59,16.01L360.18,16.18L360.32,16.37L361.06,50.86L361.2,60.95L362.97,180.55L363.11,180.54L363.26,180.54L370.61,180.15L370.75,178.67L371.19,168.44L371.34,150.52L373.4,25.68L373.54,23.97L374.13,20.28L374.42,21.29L374.57,25.49L375.6,87.14L375.75,100.62L377.07,180.56L377.22,180.55L377.36,180.54L384.56,180.49L384.71,180.16L385.29,166.54L385.44,150.04L387.64,22.68L387.79,20.94L388.09,19.72L388.23,20.38L388.38,22.53L389.11,51.53L389.26,61.06L391.17,180.56L391.32,180.55L391.46,180.54L398.66,180.52L398.81,180.19L399.69,155.02L399.84,148.56L401.01,77.12L401.16,84.49L401.31,91.8L401.45,94.36L401.6,91.25L401.75,122.49L401.89,137.14L402.04,87.52L402.33,121.83L402.48,119.81L402.77,119.44L402.92,150.39L403.22,150.22L403.36,107.08L403.51,136.2L403.8,76.83L404.1,122.01L404.24,124.97L405.12,180.55L405.27,180.55L412.91,180.13L413.06,177.03L414.67,94.91L414.82,40.56L415.26,17.76L415.7,88.23L415.85,83.63L415.99,71.34L416.29,36.48L416.58,52.62L416.73,102.34L417.02,110.06L417.17,140.27L418.49,175.1L418.64,176.6L419.52,180.54L419.67,180.54L427.01,180.16L427.16,177.69L427.6,165.25L427.75,147.61L429.66,16L429.8,16.09L430.98,16.23L431.12,17.81L432.15,91.31L432.3,106.32L433.47,180.56L433.62,180.55L433.77,180.55L437,180.55" style="vector-effect: non-scaling-stroke; fill: none; stroke: rgb(255, 0, 0); stroke-opacity: 1; stroke-width: 2px; opacity: 1;"/></g><g class="points"/><g class="text"/></g><g class="trace scatter tracec24e8d" style="stroke-miterlimit: 2; opacity: 0.5;"><g class="fills"/><g class="errorbars"/><g class="lines"><path class="js-line" d="M0,201.42L0.15,200.65L0.73,201.06L0.88,201L1.18,201.54L1.32,200.7L1.47,199.86L1.91,201.23L2.06,269.64L2.64,200.15L2.94,201.38L3.08,199.85L3.23,200.17L3.38,269.11L3.53,153.3L4.11,185.54L4.26,201.4L4.41,201.04L4.55,191.95L5.58,146.83L5.73,161.53L5.88,167.05L6.17,164.25L6.32,119.62L6.76,173.49L7.05,171.99L7.2,237.84L7.79,149.85L8.08,161.33L8.23,183.15L8.52,143.32L8.67,154.79L8.81,208.06L8.96,172.59L9.4,177.98L9.55,250.07L10.58,180.33L10.72,180.33L12.78,180.96L12.93,200.27L13.07,200.21L13.22,200.78L13.37,201.62L13.81,199.43L14.25,199.86L14.4,199.24L14.98,201.52L15.13,200L15.28,199.76L15.57,200.82L15.86,199.42L16.01,199.62L16.16,200.09L16.3,200.75L16.75,199.51L16.89,199.77L17.19,199.12L17.63,200.94L17.77,199.46L17.92,199.41L18.07,200.47L18.21,265.97L18.66,193.56L18.8,183.85L19.83,137.93L19.98,140.02L20.12,198.25L20.42,117.88L20.71,123.14L20.86,170.98L21.45,249.15L21.59,218.18L21.74,185.49L22.62,180.33L22.77,180.33L23.5,180.33L23.65,249.15L23.94,254.31L24.09,149.36L24.68,180.33L24.82,185.49L25.71,180.33L25.85,180.33L33.93,180.33L34.08,249.15L34.23,149.36L34.81,180.33L34.96,185.49L35.11,250.87L35.55,180.33L35.69,249.15L35.84,218.18L36.72,180.33L36.87,180.33L38.19,180.33L38.34,249.15L38.63,254.31L38.78,149.36L39.37,180.33L39.51,185.49L40.39,180.33L40.54,180.33L48.33,180.33L48.47,249.15L49.06,180.33L49.5,185.49L49.65,180.33L50.68,180.33L50.82,249.15L50.97,266.36L51.12,197.53L51.26,180.33L51.56,180.33L51.71,249.15L51.85,266.36L52,197.53L52.15,180.33L52.59,180.33L52.73,249.15L52.88,266.36L53.03,197.53L53.17,180.33L60.52,180.33L60.67,249.15L61.55,180.33L61.69,180.33L62.43,180.33L62.58,249.15L62.72,266.36L62.87,197.53L63.02,180.33L63.31,266.36L63.75,180.33L63.9,180.33L65.07,180.33L65.22,249.15L65.37,266.36L65.51,197.53L65.66,180.33L75.06,180.33L75.21,249.15L76.09,180.33L76.24,180.33L76.53,266.36L76.97,180.33L77.12,180.33L78.73,180.33L78.88,249.15L79.03,266.36L79.17,197.53L79.32,180.33L86.08,180.33L86.22,249.15L86.37,266.36L86.52,197.53L86.67,180.33L87.11,180.33L87.25,249.15L87.4,266.36L87.55,197.53L87.69,180.33L87.99,180.33L88.13,249.15L88.28,266.36L88.43,197.53L88.58,180.33L88.87,180.33L89.02,249.15L89.31,266.36L89.46,197.53L90.34,180.33L90.48,180.33L94.01,180.33L94.16,249.15L94.45,266.36L94.6,197.53L95.48,180.33L95.63,180.33L102.68,180.33L102.82,249.15L103.7,180.33L103.85,180.33L105.91,180.33L106.06,249.15L106.2,266.36L106.35,197.53L106.5,180.33L108.41,180.33L108.55,249.15L108.99,266.36L109.14,197.53L110.02,180.33L110.17,180.33L117.51,180.33L117.66,249.15L117.81,266.36L117.95,197.53L118.1,180.33L118.39,266.36L118.83,180.33L118.98,180.33L120.01,180.33L120.16,249.15L120.3,266.36L120.45,197.53L120.6,180.33L122.8,180.33L122.95,249.15L123.24,266.36L123.39,197.53L124.27,180.33L124.42,180.33L127.35,180.83L127.5,198.48L127.94,200.62L128.38,200.48L128.53,199.21L128.82,200.91L129.26,199.75L129.41,199.2L130.29,201.09L130.44,201.14L130.59,199.31L130.88,204.3L131.03,207.92L131.17,276.7L131.61,196.38L131.76,192.66L131.91,189.44L132.05,201.81L132.2,285.6L132.5,255.04L132.94,255.22L133.08,189.83L133.23,179.72L133.38,207.12L133.52,206.24L133.67,209.98L134.41,184.05L134.55,244.99L134.85,268.23L134.99,206.99L135.58,186.71L135.73,200.37L135.87,202.06L136.17,200.38L136.46,204.65L136.61,210.64L136.9,213.72L137.05,213.13L137.2,280.99L137.34,304L137.49,229.87L137.64,209.41L137.78,201.21L138.22,207.81L138.37,211.02L138.81,212.6L139.11,211.89L139.25,211.27L139.55,204.07L139.69,198.35L140.28,200.29L140.43,199.34L140.57,199.43L140.87,199.75L141.02,200.82L141.9,199.11L142.04,199.34L142.34,200.19L142.63,198.83L142.78,199.94L142.92,199.52L143.07,199.8L143.22,198.63L143.37,198.38L143.51,200.78L144.1,199.94L144.25,199.73L144.39,198.59L144.69,201.13L144.83,268.01L145.72,189.32L145.86,181.17L146.01,183.49L146.16,248.22L146.6,275.96L146.74,261.24L146.89,221.83L147.63,137.41L147.77,146.47L147.92,204.96L148.21,121.78L148.51,136.05L148.65,194.1L148.8,205.74L148.95,181.62L149.09,201.23L149.24,121.68L150.12,184.33L150.27,186.4L150.86,207.5L151.15,201.65L151.3,201.31L151.44,202.39L151.59,200.72L152.03,201.74L152.18,200.49L152.62,207.66L152.77,210.02L153.5,206.82L153.65,208.89L154.24,209.67L154.38,206.88L154.53,209.14L154.82,209.42L155.26,207.07L155.41,209.38L156.44,205.62L156.59,200.53L156.88,198.86L157.47,199.01L157.61,199.04L157.91,198.62L158.2,199.8L158.35,199.4L158.5,198.73L158.64,198.94L158.79,198.56L158.94,200.41L159.08,198.76L159.23,206.29L159.38,206.72L159.52,204.92L159.67,199L160.55,152.95L160.7,240.81L161.43,140.4L161.58,215.4L162.46,110.14L162.61,160.73L162.9,168.66L163.34,129.92L163.49,169.89L163.64,140.09L163.78,240.08L163.93,183.17L164.08,235.19L164.22,135.91L164.81,190.48L164.96,206.75L165.25,211.78L165.4,207.59L165.99,201.92L166.13,203.59L166.28,206.47L166.43,276.52L166.87,156.2L167.01,230.57L167.16,171.58L167.31,215.7L167.9,200.29L168.04,199.17L168.48,199.01L168.63,200.34L168.78,199.27L168.92,199.35L169.22,200.35L169.37,199.25L169.66,199.52L169.81,199.93L169.95,200.91L170.1,199.54L170.39,200.12L170.54,199.14L170.69,200.73L171.13,198.83L171.27,199.77L171.42,199.68L171.72,200.51L171.86,198.76L172.01,198.73L172.16,198.79L172.3,199.77L172.45,200.84L172.6,200.38L172.74,267.99L172.89,153.23L173.48,185.12L173.62,269.38L173.77,145.29L174.36,162.56L174.51,174.61L174.95,142.34L175.39,148.52L175.53,149.12L176.12,131.88L176.27,207.67L176.56,120.14L177.15,129.05L177.3,152.66L177.44,153.43L177.59,171.56L177.74,145.22L178.03,171.33L178.18,245.2L178.77,188.38L179.06,198.27L179.21,203.36L179.35,204.72L179.65,201.94L179.79,201.05L179.94,201.44L180.09,200.86L180.53,201.05L180.68,200.59L181.12,204.5L181.26,206.87L182.14,199.03L182.29,199.47L182.44,198.95L182.73,200.42L183.17,199.4L183.32,199.37L183.47,198.86L183.61,200.33L183.76,199.03L183.91,201.22L184.35,199.04L184.64,200.2L184.79,200.3L185.38,198.94L185.52,200.23L185.67,200.67L185.82,200.59L185.96,198.83L186.11,198.87L186.26,267.56L186.4,153.06L186.99,185.71L187.14,198.85L187.29,268.81L187.73,189.27L187.87,186.07L188.46,175.37L188.61,187.6L188.75,186.97L188.9,188.2L189.05,177.57L189.2,169.5L189.34,182.6L189.64,181.19L189.78,188.86L189.93,190.87L190.08,251.39L190.37,178.25L190.96,197.39L191.1,203.88L191.55,200.87L191.69,203.05L191.84,274.34L192.57,200.11L192.72,200.65L192.87,202.75L193.01,200.39L193.31,206.6L193.46,208.29L194.04,209.78L194.34,209.42L194.48,208.91L194.63,209.17L194.78,208.63L194.92,210.5L195.95,207.12L196.1,209.15L196.25,207.13L196.54,207.56L196.69,212.56L196.83,212.85L196.98,207.91L197.13,207.06L197.27,209.87L197.42,207.44L197.57,208.99L197.86,199.4L198.01,199.95L198.16,269.91L198.3,153.52L198.89,183.61L199.04,202.97L199.33,198.09L199.77,199.02L199.92,200.36L200.21,198.46L200.65,199.67L200.8,199.54L201.24,198.84L201.39,200.1L201.68,200.3L201.83,199.47L201.97,196.89L203.15,173.52L203.3,178.56L203.44,179.09L203.59,242.17L204.03,133.64L204.47,178.13L204.62,166.69L204.77,172.99L204.91,149.64L205.21,168.82L205.35,251.09L205.79,150.85L206.23,209.55L206.38,201.02L206.53,199.19L206.68,202.8L206.82,205.02L207.41,212.73L207.85,211.51L208,212.89L208.14,212.31L208.29,206.23L209.03,201.09L209.17,210.27L209.47,221.19L209.91,209.98L210.05,209.47L210.2,209.37L210.35,205.9L210.94,198.91L211.08,199.6L211.23,201.28L211.52,198.98L211.82,200.9L211.96,269.32L212.55,198.93L212.84,200.28L212.99,199.11L213.14,198.65L213.29,199.34L213.43,199.31L213.58,199.77L214.17,198.33L214.31,199.73L214.46,200.24L214.61,198.45L215.19,199.96L215.34,200.44L215.64,199.35L215.78,268.96L215.93,281.55L216.08,208.29L216.37,187.87L216.52,253.38L216.66,270.73L216.81,204.35L216.96,246.49L217.1,207.78L217.25,236.32L217.55,173.54L217.69,149.17L217.84,144.47L217.99,148.9L218.13,241.59L218.57,59.44L218.87,86.3L219.01,186.01L219.45,115.95L219.9,130.47L220.04,141.99L220.19,138.57L220.34,152.39L220.48,154.31L220.63,173.54L220.78,171.78L220.92,254.62L221.22,272.21L221.36,159.07L221.95,189.93L222.1,207.54L222.25,205.86L222.39,210.43L222.54,276.04L223.27,201.38L223.42,201.42L223.57,201.29L224.01,199.94L224.16,203.01L224.3,199.54L224.45,268.56L224.74,269.06L225.33,199.21L225.48,199.78L226.06,199.98L226.21,199.54L226.36,199.11L226.51,201.07L226.95,198.57L227.09,199.19L227.24,199.99L227.83,198.45L227.97,199.63L228.12,199.64L228.27,200.42L228.42,198.02L228.56,199.56L228.71,198.7L228.86,199.51L229.44,199.09L229.59,204.82L229.74,211.61L230.18,200.44L230.32,263.57L230.47,269.22L230.62,189.74L230.77,176.32L230.91,248.24L231.06,267.28L231.21,215.43L231.35,189.59L232.23,124.45L232.38,198.62L232.67,111.01L233.26,118.31L233.41,157.22L233.56,93.71L234,163.29L234.14,117.53L234.29,166.32L234.44,133.1L234.88,178.27L235.03,187.61L235.61,212.38L235.91,203.41L236.05,201.64L236.35,200.45L236.79,202.48L236.93,200.91L237.08,200.76L237.23,201.7L237.52,210.59L238.11,209.32L238.26,206.85L238.99,208.99L239.14,207.31L239.58,209.43L239.73,208.84L239.87,206.41L240.75,198.65L240.9,200.02L241.05,199.96L241.19,198.23L241.49,201.5L241.93,198.7L242.08,198.71L242.22,268.22L242.81,199.36L242.96,200.15L243.25,200.57L243.54,200.42L243.69,199.48L243.84,200.34L243.99,206.15L244.13,203.83L244.28,267.91L245.31,154.26L245.45,148.75L246.78,117.42L246.92,115.21L247.07,114.25L247.22,119.86L247.36,116.46L247.51,124.06L247.66,117.47L247.8,147.33L247.95,135.42L248.39,157.56L248.54,163.2L248.69,154.14L248.83,169.32L248.98,164.62L249.13,173L249.42,185.11L249.57,198.13L249.71,202.35L249.86,270.39L250.15,271.25L250.3,154L250.74,217.74L250.89,185.18L251.62,211.18L251.77,208.17L251.92,210.02L252.06,207.89L252.65,209.09L252.8,209.33L253.53,207.27L253.68,208.27L253.97,208.57L254.12,206.42L254.27,200.04L254.56,199.23L254.71,269.63L254.86,153.63L255.44,182.69L255.59,202.95L255.74,197.74L256.32,199.59L256.47,199.28L257.35,201.98L257.5,200.22L257.94,208.34L258.23,201.97L258.38,195.91L258.82,168.93L258.97,236.45L259.85,126.51L260,153.13L260.14,118.34L260.29,217.33L260.73,119.76L260.88,129.37L261.32,111.98L261.61,112.78L261.76,204.42L262.05,135.46L262.49,174.09L262.64,175.95L263.23,189.89L263.38,263.25L263.67,269.51L263.82,155.61L264.26,215.95L264.4,186.3L264.7,201.68L265.28,201.56L265.43,201.51L265.73,200.72L265.87,202.04L266.02,202.15L266.17,200.67L266.46,201.26L266.61,200.92L266.75,199.82L266.9,200.01L267.05,199.36L267.19,199.44L267.34,199.07L268.08,200.71L268.22,199.48L268.37,198.8L268.66,201.41L269.1,200.05L269.25,199.67L269.4,267.92L269.54,153.13L269.99,215.89L270.13,184.98L270.28,200.2L271.01,198.49L271.16,200.33L271.31,201.52L271.6,199.24L271.75,268.8L272.48,191.54L272.63,248.58L273.8,129.28L273.95,135.24L274.69,117.15L274.83,118.92L274.98,180.57L275.57,101.51L275.86,103.33L276.01,126.52L276.3,132.36L276.6,89.05L276.74,101.94L276.89,113.18L277.48,237.22L277.62,158.57L277.77,213.35L278.36,200.53L278.5,201.05L279.53,202.84L279.68,203.85L280.41,199.44L280.56,200.88L280.71,199.33L280.86,199.16L281.3,199.78L281.44,199.9L281.74,201.1L282.03,200.98L282.18,199.06L282.32,198.9L282.47,199.46L282.62,200.67L282.91,199.09L283.35,199.15L283.5,200.07L283.65,199.92L283.79,200.43L283.94,200.54L284.09,200.59L284.23,201.21L284.53,199.76L284.67,199.32L284.82,199.3L284.97,200.09L285.26,198.93L285.41,200.42L285.7,199.11L285.85,199.78L286.29,198L286.44,193.86L287.17,159.53L287.32,222.43L287.76,229.48L288.64,63.16L288.79,61.14L289.52,53.41L289.67,55.9L289.82,56.81L289.96,57.81L290.11,134.74L290.4,165.25L290.55,107.57L290.7,99.51L291.28,221.78L291.43,220.42L291.58,160.38L292.17,201.5L292.46,201.25L292.61,201.31L292.75,201.95L292.9,201.23L293.34,201.43L293.49,201.64L293.78,201.13L293.93,201.34L294.08,202.53L294.22,202.68L294.37,202.14L294.52,206.63L294.66,208.02L294.81,200.15L294.96,200.54L295.1,199.38L295.25,199.67L295.4,199.17L295.69,200.35L295.84,198.61L296.13,200.74L296.28,200.21L296.43,198.82L296.72,201.05L296.87,203.11L297.6,198.93L297.75,199.05L297.89,199.71L298.19,199.29L298.48,200.83L298.63,199.46L299.07,201.57L299.36,199.56L299.51,200.13L299.8,198.67L300.1,199.46L300.24,195.26L300.39,194.12L300.54,261.96L301.27,144.96L301.42,167.93L302.59,57.72L302.74,54.7L303.62,44.75L303.77,46.06L303.92,49.6L304.21,57.61L304.36,135.07L304.5,88.53L304.8,182.45L305.09,121.9L305.24,136.16L306.56,201.08L306.71,201.24L307.15,201.59L307.3,202.35L308.18,210.39L308.32,207.21L308.47,209.85L308.91,206.8L309.06,208.88L309.21,207.49L309.5,206.95L309.94,209.77L310.09,207.15L310.23,208.69L310.53,208.29L310.67,202.27L311.56,198.92L311.7,199.83L311.85,202.37L312.29,199.09L312.44,200.92L312.58,199.11L313.17,198.86L313.46,200.59L313.61,199.31L313.76,198.92L313.91,200.2L314.05,200.22L314.2,206.42L314.35,277.64L314.49,164.52L314.93,211.39L315.08,173.25L315.37,159.62L315.67,218.02L315.96,187.11L316.11,180.55L316.26,130.67L316.7,146.45L316.84,205.13L317.87,60.05L318.17,65.42L318.31,73.02L320.81,203.04L320.96,202.58L321.1,202.02L321.4,202.31L321.54,203.38L321.84,201.82L322.13,203.46L322.28,203.28L322.43,202.67L323.01,199.87L323.31,199.98L323.45,200.78L323.6,201.12L323.75,199.49L323.89,199.25L324.04,199.71L324.19,200.5L324.33,203.79L324.92,201.24L325.07,200.2L325.51,199.82L325.66,200.85L325.95,199.7L326.1,200.67L326.24,200.68L326.39,200.52L326.54,201.04L326.69,201.04L326.83,202.23L327.27,199.18L327.42,268.99L327.57,153.44L328.15,183.8L328.3,202.63L328.45,202.12L328.59,206.33L328.74,206.2L328.89,271.75L329.92,136.98L330.06,167.1L331.09,64.62L331.24,57.74L331.39,61.73L331.68,53.04L331.83,50.45L332.41,64.48L332.56,80.93L332.85,171.31L333,200.58L333.15,138.33L333.74,173.69L333.88,190.76L334.91,218.5L335.06,208.67L335.5,210.83L335.65,208.29L335.79,210.66L335.94,208.13L336.09,211.16L336.23,208L336.67,211.01L336.82,207.01L337.26,210.8L337.55,209.12L337.7,201.63L338.58,199.94L338.73,199.77L338.88,199.62L339.02,201.1L339.46,200.89L339.61,199.64L339.91,201.04L340.35,199.54L340.49,200.76L340.64,201.27L340.93,201.8L341.08,270.1L341.23,153.39L341.81,183.65L341.96,202.61L342.11,199.09L342.26,267.16L343.14,191.8L343.28,181.36L343.43,246.59L343.72,150.72L343.87,170.53L344.02,139.49L344.17,158.78L344.31,124.97L344.46,148.09L344.61,116.71L344.75,134.97L344.9,110.1L345.05,127.75L345.19,64.63L346.07,39.95L346.22,44.49L346.52,57.58L346.66,84.35L349.16,204.37L349.31,203.02L349.75,202.37L349.89,206.02L350.19,211.52L350.48,211.39L350.63,207.45L350.78,211.09L350.92,207.15L351.36,210.32L351.51,207.08L351.95,210.03L352.24,209.86L352.39,207.3L352.68,207.05L353.13,210.71L353.27,207.75L353.71,210.52L353.86,207.18L354.01,202.92L354.74,199.4L354.89,200.08L355.03,201.25L355.48,199.81L355.62,200.59L355.77,199.89L356.06,201.28L356.36,199.04L356.5,206.13L356.8,209.02L356.94,206.51L357.09,201.81L357.83,157.58L357.97,220.93L358.85,72.55L359,67.23L359.15,65.41L359.29,128.71L359.44,143.71L359.59,70.2L359.88,51.57L360.03,118.49L360.32,73.31L360.62,157.81L360.76,98.57L360.91,85.96L361.2,118.72L361.35,198.4L361.5,208.99L361.65,150.39L362.82,220.77L363.11,220.58L363.26,283.85L363.55,284.23L363.7,168.06L364.29,188.26L364.44,199.62L364.58,202.97L365.17,200.5L365.32,200.89L365.46,202.46L366.05,201.76L366.2,201.51L367.37,200L367.52,200.68L367.81,202.27L368.11,199.55L368.26,199.9L368.55,202.81L368.99,199.64L369.14,200.92L369.28,200.56L369.43,269.19L369.58,153.23L370.16,185.2L370.31,200.41L370.46,200.17L370.61,206.46L370.75,207L370.9,197.45L371.19,191.43L371.34,247.81L372.37,139.65L372.51,141.49L373.54,116.4L373.69,127.4L374.42,48.27L374.72,70.76L374.87,148.51L375.16,184.68L375.31,122.69L375.45,119.09L376.77,211.26L377.22,210.08L377.36,209.05L377.8,210.17L377.95,201.75L378.24,201.49L378.54,201.86L378.68,201.6L378.83,201.15L379.57,199.8L379.71,200.54L379.86,201.31L380.15,199.63L380.3,199.46L381.03,201.71L381.18,201.1L381.33,201.18L382.5,199.09L382.65,199.03L383.53,200.88L383.68,200.37L383.83,200.08L383.97,269.82L384.85,197.99L385,196.86L385.15,262.93L385.44,174.51L385.59,175.72L385.74,159.97L385.88,162.76L386.03,148.38L386.18,158.26L386.32,136.3L386.47,147.38L386.62,128.1L387.5,58L387.64,55.72L387.79,56.66L387.94,53.33L388.09,52.78L388.23,55.26L388.38,123.79L388.53,147.12L388.67,81.75L388.82,69.59L391.32,207.01L391.46,206.2L391.61,204.68L392.05,201.39L392.49,201.55L392.64,201.9L392.79,202.64L393.08,200.75L393.23,199.7L393.52,199.59L393.67,199.98L393.81,200.88L393.96,200.8L394.11,199.75L394.55,199.22L394.7,199.55L394.84,201.17L395.43,199.92L395.58,199.5L396.31,201.07L396.46,200.06L396.61,199.24L397.34,200.94L397.49,269.13L398.07,200.11L398.37,201.01L398.51,199.39L398.66,199.77L398.81,198.58L398.96,197.23L399.84,175.34L399.98,240.77L400.86,145.04L401.01,163.01L401.31,112.46L401.6,180.91L401.75,211.01L401.89,227.19L402.04,125.78L402.92,172.89L403.07,162.26L403.22,173.15L403.36,137.62L403.51,167.49L403.66,108.81L403.8,107.61L403.95,121.93L404.98,209.5L405.12,208.68L405.71,207.31L405.86,210.74L406.01,207.81L406.3,207.16L406.74,210.76L406.89,207.78L407.03,210.03L407.47,206.9L407.62,209.35L407.77,207.76L407.92,208.48L408.06,207.25L408.21,202.72L408.8,199.54L409.24,200.34L409.38,199.9L409.97,200.9L410.12,199.88L410.27,200.06L411.15,201.02L411.29,200.46L411.44,200.23L411.59,269.05L412.47,199.29L412.62,199.11L412.76,199.4L412.91,199.05L413.06,197.1L413.35,188.55L413.5,249.5L413.79,157.37L414.09,157.59L414.23,242.14L415.41,113.92L415.55,157.8L415.99,190.38L416.29,72.24L416.58,78.79L416.73,207.87L417.02,234.42L417.17,154.1L417.32,215.06L418.05,207.46L418.2,211.93L418.49,213.84L418.64,207.54L418.93,208.15L419.08,210.43L419.23,207.71L419.37,211.11L419.81,208.08L419.96,210.53L420.11,207.45L420.55,211.52L420.7,207.67L420.84,210.76L420.99,207.48L421.14,211L421.58,208.33L421.72,208.54L422.02,209.06L422.46,207.46L422.6,208.86L423.05,199.82L423.49,202.15L423.63,202.27L424.22,199.08L424.37,200L424.51,201.06L424.81,199.32L425.4,199.71L425.54,200.94L425.69,201.78L425.98,199.18L426.13,199.75L426.42,200.48L426.57,199.89L426.72,268.73L427.6,189.55L427.75,182.66L428.63,146.33L428.77,139.63L429.51,123.85L429.66,76.56L430.24,58.52L430.54,59.29L430.68,56.09L430.83,54.41L430.98,59.98L431.12,63.86L431.42,157.96L431.86,109.31L432.01,121.71L432.74,257.44L432.89,164.06L433.03,235.22L433.62,222.9L433.77,210.62L433.92,223.17L434.36,208.39L434.5,214.3L434.65,208.22L435.09,214.64L435.24,207.12L435.38,209.82L435.53,202.74L435.82,199.17L436.41,199.73L436.56,199.43L436.71,199.24L436.85,200.26L437,203.48" style="vector-effect: non-scaling-stroke; fill: none; stroke: rgb(0, 128, 0); stroke-opacity: 1; stroke-width: 2px; opacity: 1;"/></g><g class="points"/><g class="text"/></g></g></g><g class="overplot"/><path class="xlines-above crisp" d="M0,0" style="fill: none;"/><path class="ylines-above crisp" d="M0,0" style="fill: none;"/><g class="overlines-above"/><g class="xaxislayer-above"><g class="xtick"><text text-anchor="middle" x="0" y="433" transform="translate(80,0)" style="font-family: 'Open Sans', verdana, arial, sans-serif; font-size: 12px; fill: rgb(42, 63, 95); fill-opacity: 1; white-space: pre; opacity: 1;"><tspan class="line" dy="0em" x="0" y="433">Jan 1</tspan><tspan class="line" dy="1.3em" x="0" y="433">2023</tspan></text></g><g class="xtick"><text text-anchor="middle" x="0" y="433" style="font-family: 'Open Sans', verdana, arial, sans-serif; font-size: 12px; fill: rgb(42, 63, 95); fill-opacity: 1; white-space: pre; opacity: 1;" transform="translate(178.70999999999998,0)">Jan 8</text></g><g class="xtick"><text text-anchor="middle" x="0" y="433" style="font-family: 'Open Sans', verdana, arial, sans-serif; font-size: 12px; fill: rgb(42, 63, 95); fill-opacity: 1; white-space: pre; opacity: 1;" transform="translate(277.41999999999996,0)">Jan 15</text></g><g class="xtick"><text text-anchor="middle" x="0" y="433" style="font-family: 'Open Sans', verdana, arial, sans-serif; font-size: 12px; fill: rgb(42, 63, 95); fill-opacity: 1; white-space: pre; opacity: 1;" transform="translate(376.13,0)">Jan 22</text></g><g class="xtick"><text text-anchor="middle" x="0" y="433" style="font-family: 'Open Sans', verdana, arial, sans-serif; font-size: 12px; fill: rgb(42, 63, 95); fill-opacity: 1; white-space: pre; opacity: 1;" transform="translate(474.84,0)">Jan 29</text></g></g><g class="yaxislayer-above"><g class="ytick"><text text-anchor="end" x="79" y="4.199999999999999" transform="translate(0,366.36)" style="font-family: 'Open Sans', verdana, arial, sans-serif; font-size: 12px; fill: rgb(42, 63, 95); fill-opacity: 1; white-space: pre; opacity: 1;">−50</text></g><g class="ytick"><text text-anchor="end" x="79" y="4.199999999999999" style="font-family: 'Open Sans', verdana, arial, sans-serif; font-size: 12px; fill: rgb(42, 63, 95); fill-opacity: 1; white-space: pre; opacity: 1;" transform="translate(0,280.33000000000004)">0</text></g><g class="ytick"><text text-anchor="end" x="79" y="4.199999999999999" style="font-family: 'Open Sans', verdana, arial, sans-serif; font-size: 12px; fill: rgb(42, 63, 95); fill-opacity: 1; white-space: pre; opacity: 1;" transform="translate(0,194.3)">50</text></g><g class="ytick"><text text-anchor="end" x="79" y="4.199999999999999" style="font-family: 'Open Sans', verdana, arial, sans-serif; font-size: 12px; fill: rgb(42, 63, 95); fill-opacity: 1; white-space: pre; opacity: 1;" transform="translate(0,108.28)">100</text></g></g><g class="overaxes-above"/></g></g><g class="polarlayer"/><g class="smithlayer"/><g class="ternarylayer"/><g class="geolayer"/><g class="funnelarealayer"/><g class="pielayer"/><g class="iciclelayer"/><g class="treemaplayer"/><g class="sunburstlayer"/><g class="glimages"/><defs id="topdefs-3f3c0f"><g class="clips"/><clipPath id="legend3f3c0f"><rect width="162" height="67" x="0" y="0"/></clipPath></defs><g class="layer-above"><g class="imagelayer"/><g class="shapelayer"/></g><g class="infolayer"><g class="legend" pointer-events="all" transform="translate(525.74,100)"><rect class="bg" shape-rendering="crispEdges" width="162" height="67" x="0" y="0" style="stroke: rgb(68, 68, 68); stroke-opacity: 1; fill: rgb(255, 255, 255); fill-opacity: 1; stroke-width: 0px;"/><g class="scrollbox" transform="" clip-path="url(#legend3f3c0f)"><g class="groups"><g class="traces" transform="translate(0,14.5)" style="opacity: 1;"><text class="legendtext" text-anchor="start" x="40" y="4.680000000000001" style="font-family: 'Open Sans', verdana, arial, sans-serif; font-size: 12px; fill: rgb(42, 63, 95); fill-opacity: 1; white-space: pre;">BESS</text><g class="layers" style="opacity: 0.5;"><g class="legendfill"/><g class="legendlines"><path class="js-line" d="M5,0h30" style="fill: none; stroke: rgb(0, 191, 255); stroke-opacity: 1; stroke-width: 2px;"/></g><g class="legendsymbols"><g class="legendpoints"/></g></g><rect class="legendtoggle" x="0" y="-9.5" width="156.71875" height="19" style="fill: rgb(0, 0, 0); fill-opacity: 0;"/></g><g class="traces" transform="translate(0,33.5)" style="opacity: 1;"><text class="legendtext" text-anchor="start" x="40" y="4.680000000000001" style="font-family: 'Open Sans', verdana, arial, sans-serif; font-size: 12px; fill: rgb(42, 63, 95); fill-opacity: 1; white-space: pre;">Solar</text><g class="layers" style="opacity: 0.5;"><g class="legendfill"/><g class="legendlines"><path class="js-line" d="M5,0h30" style="fill: none; stroke: rgb(255, 0, 0); stroke-opacity: 1; stroke-width: 2px;"/></g><g class="legendsymbols"><g class="legendpoints"/></g></g><rect class="legendtoggle" x="0" y="-9.5" width="156.71875" height="19" style="fill: rgb(0, 0, 0); fill-opacity: 0;"/></g><g class="traces" transform="translate(0,52.5)" style="opacity: 1;"><text class="legendtext" text-anchor="start" x="40" y="4.680000000000001" style="font-family: 'Open Sans', verdana, arial, sans-serif; font-size: 12px; fill: rgb(42, 63, 95); fill-opacity: 1; white-space: pre;">Grid Meter (Net Load)</text><g class="layers" style="opacity: 0.5;"><g class="legendfill"/><g class="legendlines"><path class="js-line" d="M5,0h30" style="fill: none; stroke: rgb(0, 128, 0); stroke-opacity: 1; stroke-width: 2px;"/></g><g class="legendsymbols"><g class="legendpoints"/></g></g><rect class="legendtoggle" x="0" y="-9.5" width="156.71875" height="19" style="fill: rgb(0, 0, 0); fill-opacity: 0;"/></g></g></g><rect class="scrollbar" rx="20" ry="3" width="0" height="0" x="0" y="0" style="fill: rgb(128, 139, 164); fill-opacity: 1;"/></g><g class="g-gtitle"><text class="gtitle" x="298.5" y="50" text-anchor="middle" dy="0em" style="font-family: 'Open Sans', verdana, arial, sans-serif; font-size: 17px; fill: rgb(42, 63, 95); opacity: 1; font-weight: normal; white-space: pre;"><tspan class="line" dy="0em" x="298.5" y="50">Scenario 7</tspan><tspan class="line" dy="1.3em" x="298.5" y="50">Microgrid Output</tspan><tspan class="line" dy="2.6em" x="298.5" y="50">From: January 01, 2023 to January 31, 2023</tspan></text></g><g class="g-xtitle"><text class="xtitle" x="298.5" y="476.409375" text-anchor="middle" style="font-family: 'Open Sans', verdana, arial, sans-serif; font-size: 14px; fill: rgb(42, 63, 95); opacity: 1; font-weight: normal; white-space: pre;">Time</text></g><g class="g-ytitle"><text class="ytitle" transform="rotate(-90,33.840625,260)" x="33.840625" y="260" text-anchor="middle" style="font-family: 'Open Sans', verdana, arial, sans-serif; font-size: 14px; fill: rgb(42, 63, 95); opacity: 1; font-weight: normal; white-space: pre;">Demand (kW)</text></g></g></svg>