<svg class="main-svg" xmlns="http://www.w3.org/2000/svg" xmlns:xlink="http://www.w3.org/1999/xlink" width="700" height="500" style="" viewBox="0 0 700 500"><rect x="0" y="0" width="700" height="500" style="fill: rgb(255, 255, 255); fill-opacity: 1;"/><defs id="defs-203be7"><g class="clips"><clipPath id="clip203be7xyplot" class="plotclip"><rect width="435" height="320"/></clipPath><clipPath class="axesclip" id="clip203be7x"><rect x="80" y="0" width="435" height="500"/></clipPath><clipPath class="axesclip" id="clip203be7y"><rect x="0" y="100" width="700" height="320"/></clipPath><clipPath class="axesclip" id="clip203be7xy"><rect x="80" y="100" width="435" height="320"/></clipPath></g><g class="gradients"/><g class="patterns"/></defs><g class="bglayer"/><g class="layer-below"><g class="imagelayer"/><g class="shapelayer"/></g><g class="cartesianlayer"><g class="subplot xy"><g class="layer-subplot"><g class="shapelayer"/><g class="imagelayer"/></g><g class="gridlayer"><g class="x"><path class="xgrid crisp" transform="translate(142.17000000000002,0)" d="M0,100v320" style="stroke: rgb(255, 255, 255); stroke-opacity: 1; stroke-width: 1px;"/><path class="xgrid crisp" transform="translate(250.96,0)" d="M0,100v320" style="stroke: rgb(255, 255, 255); stroke-opacity: 1; stroke-width: 1px;"/><path class="xgrid crisp" transform="translate(359.75,0)" d="M0,100v320" style="stroke: rgb(255, 255, 255); stroke-opacity: 1; stroke-width: 1px;"/><path class="xgrid crisp" transform="translate(468.54,0)" d="M0,100v320" style="stroke: rgb(255, 255, 255); stroke-opacity: 1; stroke-width: 1px;"/></g><g class="y"><path class="ygrid crisp" transform="translate(0,405.3)" d="M80,0h435" style="stroke: rgb(255, 255, 255); stroke-opacity: 1; stroke-width: 1px;"/><path class="ygrid crisp" transform="translate(0,347.44)" d="M80,0h435" style="stroke: rgb(255, 255, 255); stroke-opacity: 1; stroke-width: 1px;"/><path class="ygrid crisp" transform="translate(0,289.58000000000004)" d="M80,0h435" style="stroke: rgb(255, 255, 255); stroke-opacity: 1; stroke-width: 1px;"/><path class="ygrid crisp" transform="translate(0,231.72)" d="M80,0h435" style="stroke: rgb(255, 255, 255); stroke-opacity: 1; stroke-width: 1px;"/><path class="ygrid crisp" transform="translate(0,173.86)" d="M80,0h435" style="stroke: rgb(255, 255, 255); stroke-opacity: 1; stroke-width: 1px;"/></g></g><g class="zerolinelayer"><path class="yzl zl crisp" transform="translate(0,116)" d="M80,0h435" style="stroke: rgb(255, 255, 255); stroke-opacity: 1; stroke-width: 2px;"/></g><path class="xlines-below"/><path class="ylines-below"/><g class="overlines-below"/><g class="xaxislayer-below"/><g class="yaxislayer-below"/><g class="overaxes-below"/><g class="plot" transform="translate(80,100)" clip-path="url(#clip203be7xyplot)"><g class="scatterlayer mlayer"><g class="trace scatter trace5897c3" style="stroke-miterlimit: 2; opacity: 1;"><g class="fills"/><g class="errorbars"/><g class="lines"><path class="js-line" d="M0,16L435,16" style="vector-effect: non-scaling-stroke; fill: none; stroke: rgb(0, 191, 255); stroke-opacity: 1; stroke-width: 2px; opacity: 1;"/></g><g class="points"/><g class="text"/></g><g class="trace scatter traceb4703c" style="stroke-miterlimit: 2; opacity: 1;"><g class="fills"/><g class="errorbars"/><g class="lines"><path class="js-line" d="M0,16L435,16" style="vector-effect: non-scaling-stroke; fill: none; stroke: rgb(255, 0, 0); stroke-opacity: 1; stroke-width: 2px; opacity: 1;"/></g><g class="points"/><g class="text"/></g><g class="trace scatter trace32eb40" style="stroke-miterlimit: 2; opacity: 1;"><g class="fills"/><g class="errorbars"/><g class="lines"><path class="js-line" d="M0,53.45L0.32,47.83L0.81,49.27L0.97,47.66L1.78,50.99L2.1,50.12L2.27,48.68L2.59,69.61L2.91,51.44L3.08,48.67L3.4,69.33L3.72,67.92L3.89,185.26L4.05,201.46L4.21,80.92L4.37,66.1L4.69,90.55L4.86,207.29L5.02,236.27L5.18,105.19L5.34,99.69L5.67,111.47L5.83,119.3L6.96,242.54L7.12,140.22L7.93,77.26L8.09,79.31L8.26,58.91L8.42,57.72L8.58,65.76L8.74,63.98L9.07,67.86L9.23,57.49L9.71,60.12L9.88,54.24L10.2,74.07L10.36,194.05L10.68,238.9L10.85,124L11.49,74.58L11.66,93.64L11.82,95.14L12.14,72.7L12.63,82.28L12.79,81.9L12.95,97.66L13.44,79.01L13.6,68.24L13.92,66.15L14.08,66.78L14.25,83.62L14.41,89.42L15.06,87.64L15.22,89.02L15.54,88.96L15.7,88.01L16.35,47.95L16.51,49.09L16.67,48.82L16.84,50.77L17.32,48.58L17.48,48.03L18.46,50.98L18.62,50.43L18.78,51.08L18.94,165.05L19.1,194.18L19.26,76.64L19.43,47.64L19.91,57.28L20.07,68.25L20.72,76.1L20.88,201.7L21.05,233.29L21.21,134.68L21.37,119.61L21.69,146.56L22.18,137.37L22.34,126.2L23.31,289.83L23.47,287.72L23.64,143.98L23.8,114.98L24.12,149.98L24.28,147.31L24.45,153.02L25.25,100.36L25.42,207.11L25.58,214.64L25.9,208.96L26.06,98.37L26.23,68.08L26.71,105.87L26.87,106.17L27.68,94.64L27.85,105.48L28.65,51.67L28.98,52.33L29.14,50.9L29.3,48.32L29.95,49L30.11,50.02L30.44,50.28L30.92,48.34L31.08,50.29L31.57,52.58L31.73,50.03L31.89,49.61L32.05,48.61L32.54,49.16L32.7,49.4L33.35,47.51L33.51,49.48L33.67,49.2L33.84,47.13L34.16,51.07L34.64,49.05L34.81,47.45L34.97,47.02L35.13,68.38L35.29,68.6L35.45,58.11L35.62,71.06L35.94,49.94L36.26,68.46L36.43,197.45L36.59,220.63L36.75,124.37L37.07,141.25L37.23,240.66L37.4,250.87L37.56,131.11L37.72,96.53L37.88,115.93L38.04,238.4L38.21,265.25L38.37,153.39L38.85,81.23L39.02,195.79L39.18,219.65L39.34,124.1L39.5,115.11L39.66,126.01L39.83,141.18L40.15,166.13L40.31,149.29L40.63,280.99L40.96,143.34L41.12,106.6L41.28,109.23L41.44,203.3L41.77,236.86L41.93,114.07L42.74,60.94L42.9,61.09L43.39,77.03L43.55,60.42L44.36,88.74L44.52,88.53L44.68,87.69L45.01,84.74L45.33,86.58L45.49,67.9L45.65,63.84L46.3,64.38L46.46,66.06L46.62,63.35L46.79,47.42L47.27,51.2L47.6,48.45L47.76,49.39L48.41,46.69L48.57,47.81L48.73,48.67L49.38,46.88L49.54,50.54L49.7,64.81L49.86,166.91L50.19,211.76L50.35,101.89L50.83,46.36L51.32,50.04L51.48,49.79L51.97,51.71L52.13,68.06L52.61,88.78L52.78,73.3L53.1,92.14L53.42,90.65L53.59,73.97L53.75,69.44L53.91,75.84L54.07,87.89L54.56,129.34L54.72,251.58L54.88,266.4L55.04,258.83L55.2,139.76L55.69,68.63L56.18,94.82L56.34,92.45L56.66,259L56.99,242.26L57.15,126.03L57.79,73.67L57.96,74.11L58.12,89.15L58.28,87.84L58.44,90.97L58.6,79.88L59.09,73.3L59.41,75.01L59.58,73.38L60.55,47.93L60.71,47.7L61.68,48.8L61.84,48.29L62,47.79L62.33,47.21L62.49,48.13L62.65,52.05L63.14,49.6L63.3,48.85L63.62,47.73L63.78,48.35L63.95,50.28L64.76,46.76L64.92,49.31L65.57,47.09L65.73,49.05L65.89,48.94L66.05,46.98L66.7,50.61L66.86,66.68L67.83,72.48L67.99,73.53L68.32,49.49L68.48,51.2L68.64,166.1L68.97,67.73L69.45,93.58L69.61,93.85L69.77,98.11L69.94,78.04L70.1,171.71L70.58,52.18L70.75,68.58L71.56,89.32L71.72,82.03L71.88,73.22L72.53,97.87L72.69,76.62L72.85,72.73L73.01,75.26L73.17,189.74L73.5,52.05L73.98,52.39L74.15,55.15L74.63,51.92L74.79,61.2L75.93,86.78L76.09,86.67L76.9,89.89L77.06,88.14L77.22,86.6L77.55,88.88L77.71,70.39L78.68,48.13L78.84,49.63L79,50.91L79.33,48.41L79.49,49.56L79.65,49.31L79.97,48.25L80.14,52.47L80.46,50.31L80.62,46.95L80.95,49.3L81.11,48.95L81.27,47.1L81.75,47.23L81.92,48.54L82.56,88.76L82.73,206.8L83.37,69.93L83.54,75.59L83.7,79.6L83.86,78.74L84.02,78.77L84.18,113.88L85.15,235.99L85.32,101.17L85.48,64.91L85.64,170.87L85.8,200.24L85.96,199.36L86.13,204.2L86.29,206.34L86.45,108.08L86.77,106.7L86.94,109.55L87.1,107.11L87.26,90.05L87.42,89.59L87.58,68.42L88.07,53.5L88.23,185.47L88.55,233.87L88.72,123.19L89.69,77.16L89.85,75.49L90.01,73.09L90.17,73.17L90.33,59.29L90.82,69.93L91.14,68.75L91.31,68.68L91.47,70.01L91.63,66.83L91.79,66.05L91.95,65.39L92.12,66.86L92.28,67.48L92.93,65.12L93.25,65.95L93.41,67.49L93.57,67.4L93.73,49.35L94.06,52.2L94.54,50.63L94.71,50.37L94.87,47.94L95.35,48.67L95.52,50.73L95.84,192.68L96.16,47.99L96.32,49.35L96.49,49.37L96.65,50.67L96.81,51.12L96.97,50.5L97.13,48.04L97.46,49.82L97.62,69.27L97.78,71.25L97.94,68.44L98.11,100.84L98.27,109.75L98.43,211.1L98.75,252.82L99.24,242.62L99.4,127.21L99.56,100.67L100.05,123.67L100.21,134.08L100.37,132.65L100.53,103.07L100.86,99.97L101.02,195.9L101.34,242.62L101.51,240.12L101.67,124.53L101.83,96.87L102.48,99.29L102.64,91.6L103.12,90.58L103.29,94.95L103.45,93.21L103.61,91.19L103.77,92.53L103.93,76.28L104.1,73.85L104.26,74.1L104.42,189.34L104.74,234.94L104.91,120.01L105.88,75.54L106.04,58.01L107.01,48.92L107.17,60.08L107.33,65.95L107.66,64.74L107.82,49.36L108.14,47.56L108.63,48.74L108.79,49.48L109.11,50.9L109.28,49.2L109.44,48.31L109.6,49.73L110.09,48.03L110.25,48.28L110.41,47.25L110.9,48.88L111.06,49L111.54,47.13L111.7,47.31L111.87,49.72L112.03,49.4L112.19,50.56L112.35,48.24L112.68,46.66L113,47.03L113.16,63.76L113.32,57.22L113.49,68.79L113.65,84.52L113.81,106.49L113.97,234.66L114.62,98.99L114.78,134.99L114.94,142.91L115.1,143L115.27,165.79L115.43,179.6L115.59,172.64L115.75,137.67L115.91,129.42L116.08,243.19L116.72,83.56L117.05,97.21L117.21,237.41L117.69,129.18L117.86,133.35L118.02,230.87L118.18,253.74L118.34,139.17L118.5,98.22L118.99,133.17L119.15,128.93L119.31,130.13L119.48,141.27L119.96,122.98L120.12,218.03L120.45,234.71L120.61,114.72L121.09,62.69L121.42,65.06L121.58,63.13L122.71,86.88L122.87,88.02L123.04,88.22L123.2,87.96L123.36,87.15L123.85,87.59L124.01,70.32L124.82,65.22L124.98,66.52L125.3,66.12L125.79,68.31L125.95,83.06L126.27,86.49L126.44,70.44L127.08,47.06L127.25,63.76L127.89,68.46L128.06,102.44L128.7,109.67L128.86,100.69L129.35,68.85L129.51,92.23L129.67,108.44L129.84,109.39L130,124.19L130.65,121.61L130.81,141.71L130.97,125.07L131.29,135.5L131.46,247.45L131.62,269.41L131.94,227.59L132.1,119.99L132.26,90.44L132.75,101.01L132.91,221.73L133.07,282.8L133.4,152.53L133.56,124.24L133.88,122.07L134.05,126.81L134.21,123.86L134.37,112.25L134.53,99.59L134.85,119.95L135.02,123.16L135.66,125.53L136.47,90.16L136.8,93.68L136.96,91.85L138.09,50.06L138.25,49.91L138.42,49.85L138.58,48.5L139.06,49.39L139.23,48.68L139.39,48.38L139.55,48.26L139.71,49.34L140.04,49.16L140.2,48.04L140.68,48.93L140.84,49.37L141.01,49.48L141.17,51.21L141.49,47.6L141.98,48.2L142.14,49.52L142.3,49.81L142.46,48.8L142.63,48.5L142.95,46.79L143.11,49.77L143.27,49.8L143.44,47.73L143.6,47.06L143.92,47.81L144.08,49.98L144.24,50.25L144.41,181.84L144.57,213.13L144.73,97.24L145.38,70.89L145.54,91.06L145.7,127.3L146.19,124.22L146.67,263.66L146.83,174.36L147.81,75.03L147.97,225.79L148.29,285.68L148.45,183.22L148.62,152.8L148.78,164.14L149.1,134.71L149.26,109.46L149.43,114.19L149.75,108.99L149.91,102.8L150.23,216.19L150.56,103.61L150.72,68.91L150.88,68.73L151.04,63.47L151.21,64.62L151.37,58.94L151.53,53.19L151.69,73.18L151.85,74.74L152.18,94.61L152.5,73.2L152.66,73.17L152.82,73.68L152.99,60.23L153.8,48.8L153.96,49.08L154.12,65.2L154.44,69.94L154.93,69.37L155.09,70.25L155.25,69.48L155.41,52.16L155.58,47.92L156.22,48.58L156.39,48.74L156.87,49.44L157.03,48.6L157.68,69.74L157.84,52.89L158.33,48.31L158.49,164.76L158.81,47.85L159.3,85.9L159.46,90.25L159.79,109.62L159.95,227.73L160.11,240.95L160.27,119.78L160.6,219.02L160.76,49.44L160.92,52L161.24,216.57L161.57,71.61L161.73,72.31L162.05,75.5L162.21,88.89L162.38,58.03L162.7,131.4L162.86,138.33L163.02,134.86L163.19,140.2L163.51,138.98L163.67,118.14L164.32,93.73L164.64,94.65L164.8,94L164.97,37.19L165.45,88.88L165.61,79.92L166.42,72.16L166.59,71.99L166.75,54.69L167.07,75.14L167.23,72.71L167.39,187.5L167.72,217.02L167.88,101.66L168.53,51L168.85,51.95L169.01,50.74L169.34,47.77L169.82,48.82L169.99,48.25L170.15,47.77L170.47,48.72L170.79,48.19L170.96,49.76L171.6,48.05L171.77,48.43L171.93,49.11L172.25,51.09L172.41,49.22L172.58,47.43L172.9,46.94L173.06,48.35L173.38,69.61L173.71,51.05L173.87,47.55L174.03,49.89L174.52,47.28L174.68,47.85L174.84,49.1L175,47.44L175.17,63.03L175.49,70.41L175.65,56.13L175.81,49.83L176.14,194.68L176.46,166.1L176.62,77.9L176.95,91.07L177.11,207.4L177.27,237.32L177.43,105.37L177.59,54.67L177.92,186.77L178.08,218.01L178.73,52.12L178.89,52.74L179.05,169.1L179.21,197.56L179.37,85.67L179.54,52.78L180.18,73.57L180.35,94.22L180.51,94.89L180.67,78.25L180.99,53.82L181.16,94.08L181.32,110.66L181.8,94.02L181.97,76.55L182.77,51.36L183.26,52.58L183.42,52.2L183.58,51.33L183.91,52.92L184.07,52.96L184.23,51.57L184.39,68.48L185.2,90.49L185.36,89.61L185.53,72.52L185.85,70.72L186.01,87.21L186.17,90.31L186.34,75.97L187.15,69.75L187.31,70.78L188.28,49.13L188.44,48.95L188.6,50.4L188.76,48.1L189.09,48.97L189.25,48.22L189.41,47.59L189.57,49.2L189.9,48.02L190.06,48.43L190.22,47.99L190.38,48.14L190.55,49.3L190.71,48.24L190.87,173.47L191.35,183.8L191.84,57.49L192,68.43L192.65,132.37L192.81,127.08L192.97,254.89L193.14,271.68L193.3,156.12L193.94,124.87L194.11,237.78L194.27,245.62L194.43,126.13L195.24,37.43L195.4,107.48L195.56,97.58L195.73,114.48L195.89,135.19L196.05,118.4L196.21,233.49L196.37,257.55L196.54,145.57L197.51,67.76L197.67,59.69L197.83,57.04L197.99,60.92L198.48,57.18L198.64,56.91L199.13,56.23L199.29,57.12L199.93,94.55L200.26,92.04L200.42,91.31L200.58,91.19L200.74,91.46L200.91,75.3L201.39,69.44L201.55,16.45L201.88,70.5L202.36,51.95L202.53,52.93L203.01,54.12L203.17,53.35L203.33,16.31L203.5,53.84L204.14,52.67L204.31,16L204.47,16L204.63,131.72L204.95,16L205.28,160.65L205.44,44.93L205.6,16L205.92,16L206.09,32.95L206.9,74.67L207.06,61.07L207.71,138.98L208.35,135.77L208.52,135.92L208.84,136.4L209,120.63L210.46,76.53L210.62,77L210.78,99.84L211.75,186.27L211.91,185.87L212.08,186.86L212.4,190.18L212.56,170.17L213.53,73.41L213.7,91.36L214.02,238.06L214.34,108.53L214.51,109.41L214.83,115.12L214.99,105.79L215.15,41.3L215.48,220.87L215.8,74.96L215.96,73.4L216.12,71.34L216.29,55.61L216.45,52.54L216.61,52.98L216.77,16.27L217.42,53.4L217.58,51.56L217.74,50.5L218.23,53.94L218.39,16.28L218.88,54.21L219.2,51.47L219.36,51.19L219.69,52.75L219.85,16L220.17,16L220.33,32.66L220.66,36.83L220.82,152.55L220.98,181.48L221.14,49.1L221.63,16L221.79,16.26L221.95,50.34L222.11,54.45L222.28,170.97L222.44,199.2L222.6,84.39L222.92,58.68L223.09,59.69L223.25,132.19L223.73,16.5L223.89,83.16L224.06,116.43L224.22,126.45L224.38,125.83L224.54,58.19L225.35,177.31L225.51,65.76L226.81,20.17L226.97,32.66L227.13,36.83L227.29,153.01L227.46,243.98L227.78,126.96L227.94,94.86L228.1,97L228.27,79.93L228.43,73.7L228.91,79.62L229.08,79.96L229.4,100.61L229.88,91.31L230.05,90.68L230.69,56.6L230.86,59.33L231.02,16.31L231.18,58.75L231.83,57.67L231.99,58.38L232.47,56.93L232.64,16.23L232.96,50.28L233.45,48.38L233.61,48.36L233.77,50.08L233.93,47.47L234.09,16L235.23,16L235.39,131.72L235.87,160.65L236.2,16L236.36,16L236.68,16.24L236.85,49.89L237.01,16.21L237.49,49.32L237.66,68.75L237.82,68.42L237.98,68.5L238.14,85.93L238.46,129.81L239.11,129.65L239.27,115.24L239.76,146.46L240.25,134.76L240.41,126.25L240.57,115.85L240.73,212.97L240.89,245.41L241.22,223.61L241.38,108.9L241.86,243.19L242.03,123.86L242.19,115.44L242.35,114.67L242.51,106.68L242.67,119.67L242.84,16.67L243,115.32L243.32,16.52L243.65,100.57L243.81,103.89L244.45,91.58L244.62,16.5L245.1,208.97L245.43,79.99L245.59,74.61L246.07,16.25L246.24,54.07L246.4,53.47L247.21,16L247.37,16L248.18,16.23L248.34,50.71L248.5,50.03L248.66,50.53L248.83,51.99L249.31,49.78L249.64,50.13L249.8,52.86L249.96,53.59L250.12,51.01L250.28,49.58L250.44,49.6L250.61,51.14L250.93,211.55L251.25,54.34L251.42,49.99L251.74,196.46L252.06,16.22L252.23,49.6L252.39,49.43L252.55,68L253.03,93.96L253.36,75.3L253.52,74.28L254.33,109.83L254.49,93.88L254.82,112.15L254.98,37.24L255.79,164.42L255.95,170.35L256.11,99.77L256.6,144.36L256.76,194.21L256.92,206.48L257.08,86.59L257.57,36.83L257.73,135.89L257.89,177.31L258.05,65.76L258.22,36.83L258.38,36.83L258.54,53.49L258.7,58.12L258.86,132.19L259.83,106.01L260,118.84L260.16,122.74L260.32,122.38L260.48,106.53L261.29,80.92L261.45,63.5L261.78,64.12L261.94,59.33L262.75,50.78L262.91,53.15L263.72,49.47L263.88,51.24L264.04,52.64L264.37,49.9L264.53,49.53L264.69,49.34L264.85,53.95L265.18,70.66L265.5,63.52L265.66,49.91L265.82,49.63L265.99,51.63L266.47,49.11L266.63,16.2L267.28,70.12L267.44,53.93L267.61,50.01L267.77,50.66L267.93,16.2L268.58,71.05L268.74,57.08L268.9,32.66L269.55,36.83L269.71,20.17L270.03,16L270.2,131.72L270.52,177.31L270.68,65.76L271,36.83L271.17,37.15L271.33,92.93L271.49,92.43L271.65,96.98L271.81,93.09L271.98,211.08L272.3,239.88L272.46,124.66L272.62,92.42L273.11,100.56L273.27,120L273.43,133.32L273.6,62.14L273.76,128.99L274.4,110.84L274.57,103.21L275.38,16L275.54,32.66L276.35,36.83L276.51,36.83L276.67,36.83L276.83,20.17L277.64,16L277.8,16.3L277.97,70.5L278.61,69.95L278.78,16.29L278.94,68.37L279.1,16L279.42,16L279.59,16L281.85,16.2L282.01,52.26L282.18,52.55L282.34,16L283.31,16L283.47,148.38L284.44,16L284.6,32.66L285.57,57.66L285.74,41L286.38,36.83L286.55,152.55L286.71,65.76L287.03,164.82L287.19,160.65L287.36,160.65L288.17,16L288.33,16L289.46,78.49L289.62,61.83L290.11,41L290.27,20.17L290.76,36.83L290.92,152.55L291.24,181.48L291.4,65.76L292.37,16L292.54,16L299.66,16L299.82,32.66L300.15,57.66L300.47,36.83L300.63,20.17L300.79,32.66L300.95,152.55L301.93,36.83L302.09,36.83L302.25,20.17L302.41,32.66L302.57,152.55L303.06,181.48L303.22,65.76L304.03,36.83L304.19,70.16L304.84,78.49L305,61.83L305.81,41L305.97,20.17L306.78,16L306.94,16L312.29,16L312.45,131.72L313.26,16L313.42,16L313.74,16L313.91,131.72L314.07,160.65L314.23,44.93L314.55,16L314.88,36.83L315.04,36.83L315.2,36.83L315.36,20.17L316.17,16L316.33,32.66L317.14,36.83L317.31,36.83L317.63,36.83L317.79,20.17L318.6,16L318.76,16L318.92,16L319.09,32.66L319.57,202.31L319.73,86.59L319.9,41L321.03,16L321.19,32.66L321.84,36.83L322,152.55L322.16,181.48L322.32,49.1L323.13,16L323.3,32.66L324.59,57.66L324.75,41L326.21,16L326.37,16L329.77,16L329.93,131.72L330.42,16L330.74,36.83L330.9,70.16L331.07,78.49L331.39,57.66L331.55,57.66L332.04,16L332.36,36.83L332.52,152.55L332.69,181.48L332.85,65.76L333.66,16L333.82,32.66L334.63,36.83L334.79,36.83L335.6,16L335.76,16L336.89,57.66L337.06,41L337.7,20.17L337.87,148.38L338.35,202.31L338.51,86.59L339.65,20.17L339.81,16L344.5,16L344.67,131.72L345.64,16L345.8,16L346.93,16L347.09,131.72L347.26,160.65L347.42,44.93L348.23,20.17L348.39,32.66L348.55,36.83L348.71,169.21L348.87,202.31L349.04,86.59L349.2,57.66L349.36,74.32L349.68,57.66L349.85,173.38L350.01,185.65L350.17,181.48L350.33,49.1L350.49,16L350.66,148.38L350.82,181.48L350.98,65.76L351.14,36.83L351.63,57.66L351.79,41L351.95,36.83L352.44,36.83L352.6,135.89L352.92,160.65L353.08,44.93L353.89,16L354.05,16L354.22,16L354.38,131.72L354.7,160.65L354.86,44.93L355.67,16L355.84,16L360.69,16L360.85,32.66L361.02,36.83L361.18,152.55L361.66,16L361.99,36.83L362.15,36.83L362.8,36.83L362.96,20.17L363.61,16L363.77,131.72L363.93,160.65L364.09,61.59L364.25,36.83L365.06,36.83L365.23,20.17L366.03,57.66L366.2,57.66L366.36,57.66L366.52,41L367.01,160.65L367.17,78.26L367.33,57.66L368.46,57.66L368.62,41L369.43,16L369.6,16L376.72,16L376.88,49.33L377.21,74.32L377.53,57.66L377.69,41L378.66,16L378.82,131.72L378.99,160.65L379.15,44.93L379.96,16L380.12,16L380.44,177.31L380.77,36.83L380.93,36.83L381.09,36.83L381.25,20.17L381.74,239.8L381.9,128.25L382.06,99.32L382.22,82.66L382.39,177.55L382.55,185.65L382.71,65.76L383.68,16L383.84,16L384,16L384.17,32.66L384.98,36.83L385.14,36.83L385.62,36.83L385.79,20.17L386.59,16L386.76,16L391.29,16L391.45,32.66L391.61,36.83L391.78,20.17L392.58,16L392.75,16L392.91,32.66L393.07,152.55L393.23,181.48L393.39,65.76L394.37,16L394.53,32.66L395.34,36.83L395.5,36.83L396.31,36.83L396.47,53.49L397.12,78.49L397.28,61.83L397.77,36.83L397.93,152.55L398.09,181.48L398.25,49.1L399.06,16L399.22,16L399.38,16L399.55,131.72L399.71,160.65L399.87,61.59L400.03,53.49L400.84,57.66L401,57.66L401.16,57.66L401.33,41L402.46,16L402.62,16L404.24,16L404.4,32.66L405.21,36.83L405.37,36.83L405.86,36.83L406.02,20.17L406.83,16L406.99,16L408.13,16L408.29,32.66L408.45,20.17L408.77,36.83L408.94,152.55L409.1,181.48L409.26,49.1L409.58,16L409.91,36.83L410.07,53.49L410.39,74.32L410.55,61.83L410.72,173.38L410.88,218.97L411.04,90.76L411.2,74.32L411.69,78.49L412.01,57.66L412.17,57.66L412.82,16L412.98,32.66L413.14,36.83L413.47,36.83L413.63,53.49L414.12,57.66L414.28,156.72L414.44,181.48L414.6,65.76L415.09,36.83L415.41,57.66L415.57,57.66L416.06,57.66L416.22,41L416.38,36.83L416.54,53.49L417.35,36.83L417.52,152.55L417.84,181.48L418,65.76L418.81,16L418.97,16L421.72,16L421.89,131.72L422.53,16L422.7,131.72L422.86,160.65L423.02,44.93L423.83,16L423.99,16L425.12,16.03L425.29,110.36L425.45,126.15L425.61,248.86L425.77,293.45L425.93,158.7L426.1,115.86L426.42,120.3L426.74,103.49L426.91,84.62L427.39,68.13L427.55,90.92L429.01,196.45L429.17,179.35L429.33,174.88L429.66,304L429.98,147.13L430.14,101.46L430.47,86.58L430.63,107.6L430.79,108.28L430.95,112.53L431.44,96.43L431.76,96.56L431.92,63.39L432.09,54.84L432.41,71.25L432.57,70.94L432.9,72.1L433.06,72.02L433.22,69.47L433.38,69.32L433.54,71.18L434.51,67.91L434.68,68.51L434.84,68.82L435,68.46" style="vector-effect: non-scaling-stroke; fill: none; stroke: rgb(0, 128, 0); stroke-opacity: 1; stroke-width: 2px; opacity: 1;"/></g><g class="points"/><g class="text"/></g></g></g><g class="overplot"/><path class="xlines-above crisp" d="M0,0" style="fill: none;"/><path class="ylines-above crisp" d="M0,0" style="fill: none;"/><g class="overlines-above"/><g class="xaxislayer-above"><g class="xtick"><text text-anchor="middle" x="0" y="433" transform="translate(142.17000000000002,0)" style="font-family: 'Open Sans', verdana, arial, sans-serif; font-size: 12px; fill: rgb(42, 63, 95); fill-opacity: 1; white-space: pre; opacity: 1;"><tspan class="line" dy="0em" x="0" y="433">Feb 5</tspan><tspan class="line" dy="1.3em" x="0" y="433">2023</tspan></text></g><g class="xtick"><text text-anchor="middle" x="0" y="433" style="font-family: 'Open Sans', verdana, arial, sans-serif; font-size: 12px; fill: rgb(42, 63, 95); fill-opacity: 1; white-space: pre; opacity: 1;" transform="translate(250.96,0)">Feb 12</text></g><g class="xtick"><text text-anchor="middle" x="0" y="433" style="font-family: 'Open Sans', verdana, arial, sans-serif; font-size: 12px; fill: rgb(42, 63, 95); fill-opacity: 1; white-space: pre; opacity: 1;" transform="translate(359.75,0)">Feb 19</text></g><g class="xtick"><text text-anchor="middle" x="0" y="433" style="font-family: 'Open Sans', verdana, arial, sans-serif; font-size: 12px; fill: rgb(42, 63, 95); fill-opacity: 1; white-space: pre; opacity: 1;" transform="translate(468.54,0)">Feb 26</text></g></g><g class="yaxislayer-above"><g class="ytick"><text text-anchor="end" x="79" y="4.199999999999999" transform="translate(0,405.3)" style="font-family: 'Open Sans', verdana, arial, sans-serif; font-size: 12px; fill: rgb(42, 63, 95); fill-opacity: 1; white-space: pre; opacity: 1;">−100</text></g><g class="ytick"><text text-anchor="end" x="79" y="4.199999999999999" style="font-family: 'Open Sans', verdana, arial, sans-serif; font-size: 12px; fill: rgb(42, 63, 95); fill-opacity: 1; white-space: pre; opacity: 1;" transform="translate(0,347.44)">−80</text></g><g class="ytick"><text text-anchor="end" x="79" y="4.199999999999999" style="font-family: 'Open Sans', verdana, arial, sans-serif; font-size: 12px; fill: rgb(42, 63, 95); fill-opacity: 1; white-space: pre; opacity: 1;" transform="translate(0,289.58000000000004)">−60</text></g><g class="ytick"><text text-anchor="end" x="79" y="4.199999999999999" style="font-family: 'Open Sans', verdana, arial, sans-serif; font-size: 12px; fill: rgb(42, 63, 95); fill-opacity: 1; white-space: pre; opacity: 1;" transform="translate(0,231.72)">−40</text></g><g class="ytick"><text text-anchor="end" x="79" y="4.199999999999999" style="font-family: 'Open Sans', verdana, arial, sans-serif; font-size: 12px; fill: rgb(42, 63, 95); fill-opacity: 1; white-space: pre; opacity: 1;" transform="translate(0,173.86)">−20</text></g><g class="ytick"><text text-anchor="end" x="79" y="4.199999999999999" style="font-family: 'Open Sans', verdana, arial, sans-serif; font-size: 12px; fill: rgb(42, 63, 95); fill-opacity: 1; white-space: pre; opacity: 1;" transform="translate(0,116)">0</text></g></g><g class="overaxes-above"/></g></g><g class="polarlayer"/><g class="smithlayer"/><g class="ternarylayer"/><g class="geolayer"/><g class="funnelarealayer"/><g class="pielayer"/><g class="iciclelayer"/><g class="treemaplayer"/><g class="sunburstlayer"/><g class="glimages"/><defs id="topdefs-203be7"><g class="clips"/><clipPath id="legend203be7"><rect width="164" height="67" x="0" y="0"/></clipPath></defs><g class="layer-above"><g class="imagelayer"/><g class="shapelayer"/></g><g class="infolayer"><g class="legend" pointer-events="all" transform="translate(523.7,100)"><rect class="bg" shape-rendering="crispEdges" width="164" height="67" x="0" y="0" style="stroke: rgb(68, 68, 68); stroke-opacity: 1; fill: rgb(255, 255, 255); fill-opacity: 1; stroke-width: 0px;"/><g class="scrollbox" transform="" clip-path="url(#legend203be7)"><g class="groups"><g class="traces" transform="translate(0,14.5)" style="opacity: 1;"><text class="legendtext" text-anchor="start" x="40" y="4.680000000000001" style="font-family: 'Open Sans', verdana, arial, sans-serif; font-size: 12px; fill: rgb(42, 63, 95); fill-opacity: 1; white-space: pre;">BESS</text><g class="layers" style="opacity: 1;"><g class="legendfill"/><g class="legendlines"><path class="js-line" d="M5,0h30" style="fill: none; stroke: rgb(0, 191, 255); stroke-opacity: 1; stroke-width: 2px;"/></g><g class="legendsymbols"><g class="legendpoints"/></g></g><rect class="legendtoggle" x="0" y="-9.5" width="158.71875" height="19" style="fill: rgb(0, 0, 0); fill-opacity: 0;"/></g><g class="traces" transform="translate(0,33.5)" style="opacity: 1;"><text class="legendtext" text-anchor="start" x="40" y="4.680000000000001" style="font-family: 'Open Sans', verdana, arial, sans-serif; font-size: 12px; fill: rgb(42, 63, 95); fill-opacity: 1; white-space: pre;">Solar</text><g class="layers" style="opacity: 1;"><g class="legendfill"/><g class="legendlines"><path class="js-line" d="M5,0h30" style="fill: none; stroke: rgb(255, 0, 0); stroke-opacity: 1; stroke-width: 2px;"/></g><g class="legendsymbols"><g class="legendpoints"/></g></g><rect class="legendtoggle" x="0" y="-9.5" width="158.71875" height="19" style="fill: rgb(0, 0, 0); fill-opacity: 0;"/></g><g class="traces" transform="translate(0,52.5)" style="opacity: 1;"><text class="legendtext" text-anchor="start" x="40" y="4.680000000000001" style="font-family: 'Open Sans', verdana, arial, sans-serif; font-size: 12px; fill: rgb(42, 63, 95); fill-opacity: 1; white-space: pre;">Grid Meter (Net Load)</text><g class="layers" style="opacity: 1;"><g class="legendfill"/><g class="legendlines"><path class="js-line" d="M5,0h30" style="fill: none; stroke: rgb(0, 128, 0); stroke-opacity: 1; stroke-width: 2px;"/></g><g class="legendsymbols"><g class="legendpoints"/></g></g><rect class="legendtoggle" x="0" y="-9.5" width="158.71875" height="19" style="fill: rgb(0, 0, 0); fill-opacity: 0;"/></g></g></g><rect class="scrollbar" rx="20" ry="3" width="0" height="0" x="0" y="0" style="fill: rgb(128, 139, 164); fill-opacity: 1;"/></g><g class="g-gtitle"><text class="gtitle" x="297.5" y="50" text-anchor="middle" dy="0em" style="font-family: 'Open Sans', verdana, arial, sans-serif; font-size: 17px; fill: rgb(42, 63, 95); opacity: 1; font-weight: normal; white-space: pre;"><tspan class="line" dy="0em" x="297.5" y="50">Scenario 1</tspan><tspan class="line" dy="1.3em" x="297.5" y="50">Microgrid Output</tspan><tspan class="line" dy="2.6em" x="297.5" y="50">From: February 01, 2023 to February 28, 2023</tspan></text></g><g class="g-xtitle"><text class="xtitle" x="297.5" y="476.409375" text-anchor="middle" style="font-family: 'Open Sans', verdana, arial, sans-serif; font-size: 14px; fill: rgb(42, 63, 95); opacity: 1; font-weight: normal; white-space: pre;">Time</text></g><g class="g-ytitle"><text class="ytitle" transform="rotate(-90,26.168750000000003,260)" x="26.168750000000003" y="260" text-anchor="middle" style="font-family: 'Open Sans', verdana, arial, sans-serif; font-size: 14px; fill: rgb(42, 63, 95); opacity: 1; font-weight: normal; white-space: pre;">Demand (kW)</text></g></g></svg>