<svg class="main-svg" xmlns="http://www.w3.org/2000/svg" xmlns:xlink="http://www.w3.org/1999/xlink" width="700" height="500" style="" viewBox="0 0 700 500"><rect x="0" y="0" width="700" height="500" style="fill: rgb(255, 255, 255); fill-opacity: 1;"/><defs id="defs-e100bf"><g class="clips"><clipPath id="clipe100bfxyplot" class="plotclip"><rect width="437" height="320"/></clipPath><clipPath class="axesclip" id="clipe100bfx"><rect x="80" y="0" width="437" height="500"/></clipPath><clipPath class="axesclip" id="clipe100bfy"><rect x="0" y="100" width="700" height="320"/></clipPath><clipPath class="axesclip" id="clipe100bfxy"><rect x="80" y="100" width="437" height="320"/></clipPath></g><g class="gradients"/><g class="patterns"/></defs><g class="bglayer"/><g class="layer-below"><g class="imagelayer"/><g class="shapelayer"/></g><g class="cartesianlayer"><g class="subplot xy"><g class="layer-subplot"><g class="shapelayer"/><g class="imagelayer"/></g><g class="minor-gridlayer"><g class="x"/><g class="y"/></g><g class="gridlayer"><g class="x"><path class="xgrid crisp" transform="translate(142.45,0)" d="M0,100v320" style="stroke: rgb(255, 255, 255); stroke-opacity: 1; stroke-width: 1px;"/><path class="xgrid crisp" transform="translate(251.74,0)" d="M0,100v320" style="stroke: rgb(255, 255, 255); stroke-opacity: 1; stroke-width: 1px;"/><path class="xgrid crisp" transform="translate(361.03,0)" d="M0,100v320" style="stroke: rgb(255, 255, 255); stroke-opacity: 1; stroke-width: 1px;"/><path class="xgrid crisp" transform="translate(470.32,0)" d="M0,100v320" style="stroke: rgb(255, 255, 255); stroke-opacity: 1; stroke-width: 1px;"/></g><g class="y"><path class="ygrid crisp" transform="translate(0,384.93)" d="M80,0h437" style="stroke: rgb(255, 255, 255); stroke-opacity: 1; stroke-width: 1px;"/><path class="ygrid crisp" transform="translate(0,345.28)" d="M80,0h437" style="stroke: rgb(255, 255, 255); stroke-opacity: 1; stroke-width: 1px;"/><path class="ygrid crisp" transform="translate(0,265.97)" d="M80,0h437" style="stroke: rgb(255, 255, 255); stroke-opacity: 1; stroke-width: 1px;"/><path class="ygrid crisp" transform="translate(0,226.31)" d="M80,0h437" style="stroke: rgb(255, 255, 255); stroke-opacity: 1; stroke-width: 1px;"/><path class="ygrid crisp" transform="translate(0,186.66)" d="M80,0h437" style="stroke: rgb(255, 255, 255); stroke-opacity: 1; stroke-width: 1px;"/><path class="ygrid crisp" transform="translate(0,147)" d="M80,0h437" style="stroke: rgb(255, 255, 255); stroke-opacity: 1; stroke-width: 1px;"/><path class="ygrid crisp" transform="translate(0,107.35)" d="M80,0h437" style="stroke: rgb(255, 255, 255); stroke-opacity: 1; stroke-width: 1px;"/></g></g><g class="zerolinelayer"><path class="yzl zl crisp" transform="translate(0,305.62)" d="M80,0h437" style="stroke: rgb(255, 255, 255); stroke-opacity: 1; stroke-width: 2px;"/></g><path class="xlines-below"/><path class="ylines-below"/><g class="overlines-below"/><g class="xaxislayer-below"/><g class="yaxislayer-below"/><g class="overaxes-below"/><g class="plot" transform="translate(80,100)" clip-path="url(#clipe100bfxyplot)"><g class="scatterlayer mlayer"><g class="trace scatter tracec9101c" style="stroke-miterlimit: 2; opacity: 0.5;"><g class="fills"/><g class="errorbars"/><g class="lines"><path class="js-line" d="M0,205.62L2.44,205.62L2.6,211.44L3.25,205.62L3.42,211.27L3.58,207.04L4.07,212.9L4.23,207.39L4.39,205.62L4.72,216.33L4.88,209.51L5.04,207.97L5.53,198.82L5.69,191.83L6.99,145.19L7.16,152.81L7.32,195.63L8.13,205.62L8.29,205.62L10.73,205.62L10.9,211.5L11.38,220L11.55,216.18L11.71,209.93L11.87,223.6L12.36,209.54L12.52,214.97L12.69,211.84L12.85,215L13.01,220.51L13.82,206.89L13.99,209.52L14.15,206.95L14.31,209.69L14.47,219.32L14.64,211.54L15.29,212.97L15.45,218.81L16.43,205.62L16.59,205.62L20,205.62L20.17,207.02L20.82,205.3L20.98,197.81L22.12,157.52L22.28,174.21L22.44,147.95L22.77,180.51L22.93,200.85L23.74,205.62L23.91,205.62L26.35,205.62L26.51,206.41L26.67,206.73L26.83,230.48L27.32,210.53L27.65,211.98L27.81,224L28.62,205.62L28.79,205.62L35.29,205.62L35.45,210.82L35.62,209.91L35.78,217.65L36.59,186.18L36.92,188.77L37.08,195.71L37.57,205.62L37.73,183.15L38.22,200.91L38.38,156.39L38.54,155.88L38.71,196.26L39.52,205.62L39.68,205.62L41.8,205.62L41.96,209.06L42.12,210.27L42.29,206.66L42.45,208.42L42.61,206.32L42.94,205.91L43.26,207.45L43.42,212.59L43.75,206.48L43.91,207.46L44.07,217.28L44.24,208.82L44.72,220.01L44.89,211.01L45.05,219.03L45.38,219.21L45.86,206.32L46.03,208.42L46.68,209.49L47,205.62L47.16,205.62L49.93,205.62L50.09,210.46L50.42,205.67L50.58,213.27L50.74,207.53L50.9,210.29L52.21,190.07L52.37,172.39L52.53,193.21L52.69,169.28L52.86,180.35L53.02,156.5L53.99,205.62L54.16,205.62L57.57,205.62L57.74,209.19L57.9,207.06L58.06,213.01L58.22,208.3L58.39,221.51L59.2,208.67L59.36,212.46L59.69,212.99L60.17,207.72L60.34,212.78L61.15,205.62L61.31,205.62L67.98,205.51L68.14,195.2L68.31,203.02L68.63,199.8L68.79,175.67L69.12,159.08L69.77,205.62L69.93,205.62L73.35,205.62L73.51,207.64L73.67,211.77L74,205.62L74.16,205.62L74.32,205.62L74.97,205.62L75.14,206.74L75.95,211.17L76.11,207.42L76.6,221.03L76.93,220.73L77.09,211.12L77.25,221.26L77.41,210.19L77.74,210.87L77.9,209.33L78.88,205.62L79.04,205.62L82.46,205.62L82.62,206.78L82.78,205.91L82.94,215.19L84.41,146.03L84.57,192.95L85.38,205.62L85.55,205.62L88.96,205.62L89.12,217.36L89.29,215.42L89.45,219.28L89.61,227.22L90.59,207.57L90.75,214.79L91.56,207.11L91.73,210.75L92.21,206.98L92.54,207.7L92.7,209.25L92.86,207.44L93.52,207.68L93.68,208.24L94,208.53L94.17,206.2L94.98,205.62L95.14,205.62L98.07,205.62L98.23,217.9L99.04,205.62L99.21,205.62L100.18,153.96L100.35,161.81L100.51,152.64L100.67,194.47L101.48,205.62L101.65,205.62L104.57,205.62L104.74,206.82L105.71,219.75L105.88,213.76L106.04,218.99L106.36,210.97L106.53,206.65L107.34,205.62L107.5,205.62L107.83,209.01L107.99,206.61L108.15,208.71L108.48,205.62L108.64,205.62L108.8,205.62L113.68,205.62L113.84,208.3L114.33,215.59L114.49,208L114.66,205.62L114.82,205.62L114.98,194.48L115.15,194.94L115.31,174.56L115.63,165.25L116.28,205.62L116.45,205.62L119.86,205.62L120.02,210.71L120.51,230.32L120.84,224.37L121,210.72L121.33,209.02L121.49,220.95L121.65,209.46L121.81,207.71L122.14,206.89L122.3,212.47L123.11,207.12L123.28,220.5L123.6,220.77L124.09,210.26L124.25,220.29L125.07,209.14L125.23,209.29L125.39,206.54L125.55,209.72L126.04,207.07L126.2,209.97L126.37,207.57L126.53,208.99L126.69,218.23L127.51,205.62L127.67,205.62L127.83,205.62L127.99,210.75L128.64,205.62L128.81,233.22L129.46,233.99L129.62,207.93L129.78,205.46L129.95,205.88L130.11,202.76L130.27,204.91L130.43,195.25L130.76,195.74L131.9,154.44L132.06,157.9L132.55,129.48L132.87,136.99L133.04,191.96L133.85,205.62L134.01,205.62L135.64,206.35L135.8,216.97L135.96,219.58L136.13,218.31L136.29,234.53L137.1,210.53L137.26,223.1L138.24,205.62L138.4,205.62L145.72,205.62L145.88,197.51L146.86,166.24L147.02,170.45L147.84,205.62L148,205.62L151.58,205.62L151.74,207.27L151.9,207.39L152.06,205.96L152.39,205.62L152.55,214.16L152.88,219.55L153.04,213.91L153.85,208.47L154.02,212.62L154.83,205.62L154.99,211.46L155.48,207.07L155.8,207.53L155.97,210.99L156.78,205.62L156.94,205.62L157.92,205.62L158.08,210.73L158.41,211.21L159.06,205.62L159.22,205.62L159.71,205.62L159.87,211.23L160.03,207.02L160.2,222.73L161.01,208.84L161.17,206.36L161.33,199.84L161.5,204.18L161.66,162.1L161.82,181.73L161.98,157.89L162.15,170.72L162.31,144.94L163.45,205.62L163.61,205.62L166.21,205.62L166.38,211.78L166.86,205.62L167.19,206.86L167.35,210.74L167.51,208.68L167.68,211.59L168.16,209.49L168.33,210.31L168.65,210.64L169.14,209.84L169.3,206.44L170.12,205.62L170.28,205.62L174.02,205.62L174.18,211.43L175,205.62L175.16,205.62L175.97,205.62L176.13,209.09L177.27,189.14L177.43,171.71L178.41,205.62L178.57,205.62L182.64,205.62L182.8,208.34L182.96,218.16L183.45,207.61L183.61,205.62L185.24,205.62L185.4,212.55L185.89,207.15L186.05,222.88L186.87,208.19L187.03,221.78L187.84,208.85L188.01,209.78L188.33,210.81L188.49,208.95L188.66,206.17L189.47,205.62L189.63,205.62L192.4,205.62L192.56,202.78L193.86,154.92L194.02,195.73L194.84,205.62L195,205.62L198.74,205.62L198.9,206.64L199.88,205.62L200.04,205.62L200.2,205.62L200.37,212.06L200.53,208.96L200.69,223.62L201.5,210.7L201.67,222.73L202.48,201.72L202.64,215.64L203.62,205.62L203.78,205.62L207.03,205.62L207.2,212.86L207.52,224.36L208.17,205.62L208.34,205.62L208.82,224.45L208.99,209.98L209.15,205.62L210.29,136.52L210.45,170.94L210.61,155.33L210.77,194.21L210.94,205.62L211.91,205.62L212.08,252.69L212.24,160.89L212.73,266.5L212.89,221.69L213.38,274.29L213.7,273.89L213.86,222.59L214.03,227.93L214.19,211.2L214.35,224.93L214.52,210.45L215.17,223.8L215.33,220.62L215.49,215.91L215.65,230.2L215.98,225.39L216.14,203.93L216.3,219.22L216.79,208.02L216.95,205.62L223.46,205.62L223.62,196.95L224.11,175.76L224.27,199.77L224.76,204.12L224.92,106.59L225.09,173.1L225.25,121.39L225.57,211.06L225.74,99.31L226.23,205.62L226.39,205.62L228.34,205.62L228.5,138.35L229.32,202.35L229.48,205.62L229.64,205.62L229.8,213.01L229.97,211.2L230.13,214.26L230.29,212.07L230.45,225.05L231.27,209.47L231.43,212.8L231.75,213.32L232.24,205.62L232.41,205.62L239.07,205.62L239.24,203.23L239.56,205.62L239.72,200.45L239.89,181.21L240.05,180.59L240.21,182.08L240.37,166.46L241.19,149.03L241.35,157.96L241.51,196.62L242.33,205.62L242.49,205.62L244.93,205.62L245.09,210.29L245.58,217.57L245.74,198.18L245.9,230.44L246.55,217.13L246.72,208.5L246.88,208.39L247.04,206.48L247.21,205.5L247.86,205.62L248.02,205.62L252.08,205.62L252.25,211.75L253.22,205.62L253.39,205.62L253.71,205.62L253.87,211.81L254.2,221.14L254.36,208.82L254.52,205.62L254.69,205.62L254.85,200.68L255.01,204.39L255.17,198.01L255.34,192.05L255.82,175.05L255.99,176.04L256.15,210.92L256.31,126.38L256.8,205.62L256.96,205.62L257.13,205.62L257.29,216.09L257.78,205.62L258.1,208.24L258.26,205.62L260.54,205.62L260.7,211.52L261.68,231.31L261.84,212.2L262.33,228.4L262.49,211.23L262.66,208.07L262.98,208.19L263.63,205.62L263.79,205.62L266.07,205.62L266.23,211.03L267.21,205.62L267.37,205.62L268.35,205.62L268.51,211.7L269.32,205.62L269.49,205.62L269.65,211.23L270.14,204.84L270.3,205.36L271.28,205.62L271.44,205.62L272.41,205.62L272.58,136.7L273.23,136.55L274.2,205.62L274.37,205.62L279.08,205.62L279.24,211.92L280.06,201.01L280.22,215.52L280.38,197.04L281.03,205.62L281.2,205.62L286.56,205.62L286.73,216.09L287.54,205.62L287.7,205.62L290.3,205.62L290.47,216.09L291.28,208.24L291.44,205.62L305.59,205.62L305.75,216.09L306.57,205.62L306.73,205.62L332.43,205.62L332.59,216.09L333.4,205.62L333.56,205.62L350.97,205.62L351.13,216.09L351.94,205.62L352.1,205.62L383.17,205.62L383.33,216.09L383.66,227.51L384.14,208.24L384.31,216.09L385.12,205.62L385.28,205.62L398.78,205.62L398.94,216.09L399.76,205.62L399.92,205.62L412.28,205.62L412.44,216.09L413.26,205.62L413.42,205.62L413.58,216.09L414.07,205.62L414.23,205.62L427.4,205.62L427.57,189.24L427.73,180.24L427.89,188.04L428.06,129.33L428.22,203.89L428.71,188L428.87,147.08L429.19,205.62L429.52,177.55L429.68,133.68L430.49,244.64L430.66,215.63L431.15,257.58L431.47,250.87L431.63,216.15L431.8,239.96L432.28,209.81L432.45,206.25L432.61,205.62L432.77,230.91L433.58,210.96L433.75,226.04L434.56,207.3L434.72,212.38L435.05,212.44L435.21,207.3L435.54,208.05L435.7,210.23L436.02,211.04L436.51,206.86L436.67,210.82L436.84,207.09L437,209.87" style="vector-effect: non-scaling-stroke; fill: none; stroke: rgb(0, 191, 255); stroke-opacity: 1; stroke-width: 2px; opacity: 1;"/></g><g class="points"/><g class="text"/></g><g class="trace scatter trace3f2114" style="stroke-miterlimit: 2; opacity: 0.5;"><g class="fills"/><g class="errorbars"/><g class="lines"><path class="js-line" d="M0,205.87L4.39,205.28L4.55,202.35L5.04,187.43L5.2,166.66L7.32,17.89L7.48,16.18L8.78,16.77L8.94,21.29L10.08,104.64L10.25,121.01L11.71,205.89L11.87,205.88L20,205.44L20.17,201.29L20.65,179.89L20.82,163.89L22.61,34.1L22.77,39.15L22.93,38.9L23.09,57.21L23.42,23.52L23.58,16.61L24.4,57.91L24.56,78.13L24.88,55.75L25.05,88.26L25.21,93.17L25.37,89.63L25.53,133.44L25.7,123.16L26.02,142.83L26.18,153.51L27.16,205.89L27.32,205.88L35.62,205.42L35.78,200.92L36.43,157.44L36.59,131.99L37.08,123.07L37.24,136.1L37.41,140.51L37.57,126.69L37.73,104.25L37.89,101.09L38.06,115.12L38.22,127.2L38.38,71.74L39.03,16.66L39.2,27.73L39.36,25.34L39.52,70.73L39.85,21.96L40.01,63.24L40.17,36.26L40.5,36.23L42.29,203.64L42.45,205.68L43.59,205.87L43.75,205.87L51.07,205.74L51.23,204.79L51.88,180.44L52.04,163.24L54.16,28.69L54.32,21.07L54.65,16.39L55.13,16.74L55.3,18.34L56.11,46.17L56.27,57.96L58.39,205.88L58.55,205.88L66.84,205.25L67.01,203.57L67.33,194.69L67.49,178.13L67.66,185.37L67.98,169.15L68.14,154.03L68.31,164.49L68.63,152.69L68.79,140.61L69.12,117.43L69.28,97.24L69.45,115.25L69.61,38.9L69.93,95.87L70.26,52.41L70.42,49.92L70.58,131.01L71.07,64.62L71.23,75.37L71.4,22.08L71.72,86.47L72.05,42.58L72.21,52.83L74,205.89L74.16,205.89L80.18,205.88L80.34,205.88L82.46,205.14L82.62,201.56L82.94,197.26L83.11,180L85.38,16.24L85.55,16.22L86.85,16.29L87.01,17.5L88.15,97.13L88.31,113.94L89.77,205.88L89.94,205.87L98.07,205.3L98.23,201.41L98.56,196.15L98.72,178.8L101,18.68L101.16,16.61L102.13,16.37L102.3,16.4L102.62,16.8L102.79,24.13L104.09,131.08L104.25,148.08L105.39,205.89L105.55,205.88L113.52,205.56L113.68,202.34L114.33,184.44L114.49,161.1L116.61,20.8L116.77,16.69L117.59,16.49L117.75,16.52L117.91,16.61L118.07,20.61L119.05,72.39L119.21,85.78L121.16,205.88L121.33,205.87L129.13,205.66L129.29,205.04L129.95,177.41L130.11,161.14L132.22,20.54L132.38,16.8L133.2,16.54L133.36,16.58L133.52,16.56L133.69,18.6L134.5,55.1L134.66,68.27L136.78,205.89L136.94,205.87L144.75,205.62L144.91,204.71L145.56,175.26L145.72,158.25L147.67,20L147.84,17.1L148.16,17.45L148.32,16.56L148.49,18.96L148.81,16.37L149.3,51.92L149.46,20.55L149.62,18.61L149.79,38.35L149.95,38L150.11,62.44L150.6,99.33L150.76,117.96L151.09,147.38L151.25,174.5L152.23,205.89L152.39,205.88L160.52,205.38L160.68,203.79L161.17,174.4L161.33,161.46L161.5,204.86L161.82,110.25L161.98,95.3L162.96,34.17L163.12,203.84L163.61,16.28L163.94,18.77L164.1,16.26L164.42,38.23L164.59,127.09L164.91,16L165.24,144.81L165.4,40.55L165.56,61.4L165.72,20.79L165.89,166.67L166.05,169.58L167.51,205.81L167.68,205.88L175.97,205.61L176.13,204.31L177.27,150.14L177.43,128.04L177.6,135.74L177.92,130.01L178.09,26.75L178.41,120.04L178.9,69.51L179.06,126.45L179.22,142.08L179.39,116.58L179.55,17.28L180.36,16.11L180.52,19.4L181.01,34.95L181.18,77.05L181.34,69.16L181.5,125.96L181.83,205.28L182.31,163.28L182.48,167.34L183.29,205.89L183.78,205.87L183.94,205.87L191.42,205.87L191.58,205.55L191.75,205.03L191.91,199.17L192.72,162.88L192.89,128.5L194.51,16.52L194.67,29.23L194.84,103.31L195.32,16.07L195.49,16.34L195.65,38.47L196.14,34.18L196.3,16.64L196.63,137.7L197.11,64.91L197.28,88.28L199.07,205.88L199.23,205.87L199.39,205.87L207.52,205.14L207.68,196.5L208.5,163.43L208.66,175.46L208.82,182.77L210.29,16.19L210.45,34.58L210.61,57.32L210.77,40.62L210.94,78.26L211.1,72.6L211.26,81.17L211.75,16.09L211.91,17.65L212.08,204.69L212.24,88.46L212.73,182.03L212.89,189.44L214.19,205.79L214.35,205.82L217.61,205.87L217.77,205.62L218.74,205.87L218.91,205.87L222.81,205.59L222.97,201.68L223.46,182.96L223.62,167.62L224.11,116.52L224.27,204.66L225.25,17.35L225.41,17.89L225.74,16.56L226.23,205.62L226.39,205.62L228.18,205.62L228.34,204.59L228.5,64.52L229.15,133.87L229.32,151.58L230.29,205.88L230.45,205.87L230.62,205.87L238.42,205.45L238.59,202.12L239.07,182.11L239.24,166.03L241.19,17.27L241.35,21.01L242,16.57L242.16,16.6L242.33,16.69L242.65,41.78L242.81,32.02L242.98,19.21L243.14,17.9L243.3,33.93L243.79,70.51L243.95,205.01L244.44,114.37L244.77,154.67L244.93,163.67L245.9,205.87L246.07,205.86L254.04,205.54L254.2,200.06L255.99,80.61L256.15,204.69L256.96,31.53L257.13,79.91L257.61,17.05L257.94,205.62L258.1,205.62L259.89,204.98L260.05,101.72L261.52,205.88L261.68,205.87L261.84,205.86L269.49,205.83L269.65,205.54L269.97,197L270.14,205.62L270.3,205.62L270.46,205.62L272.25,205.62L272.41,204.82L272.74,32.01L273.23,35.17L273.39,38.81L273.55,23.61L273.71,57.85L273.88,101.19L274.04,104.59L274.2,63.39L274.69,123.33L274.85,204.65L275.02,34.81L275.67,105.57L275.83,123.96L277.29,205.62L277.46,205.62L427.08,205.6L427.24,146.51L427.4,170.34L427.57,104.85L427.73,67.52L427.89,74.28L428.06,16.07L429.19,152.33L429.36,158.13L429.68,33.66L429.84,118.8L430.01,174.22L430.17,165.66L430.33,84.64L431.31,189.55L431.47,179.54L431.63,175.05L431.8,178.25L431.96,192.61L432.45,176.37L432.61,190.34L432.77,203.73L433.58,205.87L433.75,205.87L437,205.88" style="vector-effect: non-scaling-stroke; fill: none; stroke: rgb(255, 0, 0); stroke-opacity: 1; stroke-width: 2px; opacity: 1;"/></g><g class="points"/><g class="text"/></g><g class="trace scatter trace9715d8" style="stroke-miterlimit: 2; opacity: 0.5;"><g class="fills"/><g class="errorbars"/><g class="lines"><path class="js-line" d="M0,231.54L0.33,227.69L0.81,228.67L0.98,227.57L1.79,229.85L2.11,229.25L2.28,228.27L2.44,240.22L2.93,225.2L3.09,227.02L3.58,240.71L3.9,240.49L4.07,226.57L4.88,245.72L5.04,236.91L6.18,179.56L6.34,182.28L8.46,45.03L8.62,50.48L8.78,49.65L8.94,56.82L10.08,133.52L10.25,160.81L11.71,254.8L11.87,242.14L12.03,241.8L12.2,238.77L12.69,245.08L12.85,241.66L13.01,235.53L13.5,246.28L13.82,239.4L13.99,236.34L14.64,248.75L14.8,241.23L14.96,248.67L15.45,242.7L15.61,237.12L15.78,239.57L15.94,228.75L16.26,229.52L16.43,227.78L16.75,228.37L16.91,229.71L17.56,227.83L18.05,228.12L18.22,228.78L18.87,229.92L19.03,228.71L19.19,228.86L19.35,227.61L19.52,227.56L19.68,228.33L19.84,228.48L20,233.73L20.33,235.83L20.49,231.5L20.65,216L21.96,167.99L22.12,173.11L22.28,149.22L22.77,176.64L22.93,149.41L23.09,146.1L23.74,87.28L24.07,102.24L24.23,136.02L24.56,160.61L24.72,133.66L24.88,121.38L25.53,170.84L25.7,157.3L25.86,167.85L26.51,235.58L26.67,259.24L27,260.22L27.49,240.33L27.65,255.44L28.3,227.85L28.46,230.34L28.62,230.62L29.27,229.79L29.44,228.03L30.25,229.19L30.41,228.12L31.39,230.8L31.55,229.75L31.71,230.95L32.04,228.92L32.2,228.23L32.85,228.77L33.01,227.8L33.34,227.82L33.5,227.48L33.67,228.83L33.83,228.63L33.99,227.21L34.32,229.91L34.8,228.53L34.97,227.43L35.13,227.13L35.29,241.78L36.76,184.19L36.92,200.83L37.08,213.34L37.41,226.59L37.57,202.8L37.73,188.64L38.22,205.03L39.03,64.22L39.36,65.77L39.52,124.99L39.68,121.03L39.85,97.35L40.66,155.16L40.82,145.65L40.98,145.64L41.15,156.18L42.12,239.69L42.61,236.14L42.77,235.65L43.42,238.6L43.59,242.64L43.75,235.46L43.91,247.24L44.4,239.27L44.56,249.86L45.38,228.44L45.54,236.64L45.7,236.01L46.51,238.28L46.68,236.31L46.84,237.36L47,227.41L47.49,229.99L47.81,228.11L47.98,228.75L48.63,226.9L48.79,227.67L48.95,228.26L49.6,227.03L49.77,229.54L50.25,228.85L50.42,240.85L50.58,237.26L50.74,241.45L53.18,154.5L53.34,114.19L54.16,69.7L54.32,70.34L54.48,81.58L54.65,83.25L54.81,96.62L54.97,100.4L55.13,89.21L55.3,97.05L55.46,89.84L55.62,98.25L55.78,76.78L55.95,71.47L58.22,242.97L58.39,240.13L58.55,250.97L58.71,237.65L59.04,238.14L59.2,242.66L60.01,237.96L60.17,242.01L60.34,226.16L60.99,227.59L61.15,227.66L61.96,228.35L62.13,228L62.29,227.65L62.61,227.26L62.78,227.89L62.94,230.57L63.26,229.93L63.43,228.9L63.92,227.62L64.08,228.04L64.24,229.36L65.05,226.95L65.22,228.7L65.87,227.17L66.03,228.52L66.19,228.45L66.36,227.11L66.68,228.8L67.01,227.3L67.17,236.86L68.14,203.16L68.31,206.53L68.47,203.35L68.63,184.32L68.79,194.68L68.96,174.5L69.12,186.88L69.28,143.87L69.45,165.26L69.61,91.62L69.93,149.23L70.1,119.65L70.42,77.32L70.58,158.04L70.75,103.79L70.91,123.63L71.4,61.77L71.56,113.43L71.72,125.61L71.88,136.47L72.05,87.83L72.21,92.05L72.37,127.81L73.51,235.96L74,231.38L74.16,231.05L74.32,230.82L74.49,232.7L74.97,230.49L75.14,235.73L75.46,240.81L75.95,237.69L76.11,252.17L76.93,239.23L77.09,250.89L77.9,237.84L78.06,238.81L79.04,227.9L79.2,228.93L79.37,229.81L79.69,228.09L79.85,228.88L80.02,228.71L80.34,227.98L80.5,230.87L80.83,229.4L80.99,227.09L81.32,228.7L81.48,228.46L81.64,227.18L82.29,227.98L82.46,233.05L82.78,247.11L82.94,237.56L83.11,229.06L84.24,156.65L84.41,157.21L85.55,67.86L85.71,54.82L86.36,42.8L86.52,46.25L86.68,47.63L89.45,256.64L89.94,249.23L90.1,234.18L90.26,243.69L90.59,243.1L90.75,226.37L91.24,241.12L91.56,240.54L91.73,236.85L91.89,240.66L92.38,236.64L92.54,238.65L92.7,237.53L92.86,238.9L93.03,237.13L93.35,237.19L93.52,237.77L93.68,237.49L93.84,238.2L94,238.19L94.17,228.15L94.49,230.68L94.98,229.61L95.14,229.43L95.3,227.76L95.79,228.27L95.95,229.68L96.44,227.43L96.77,228.73L96.93,228.74L97.26,229.94L97.42,229.51L97.58,227.83L97.91,228.85L98.07,241.8L98.23,238.42L98.39,246.7L98.56,260.12L99.86,165.77L100.02,164.17L100.18,166.4L100.35,155.61L100.51,160.93L100.67,120.66L101.65,69.62L101.81,72.56L101.97,70.77L102.3,71.83L102.46,74.35L102.62,74.03L102.79,75.17L102.95,86.9L103.92,167.01L104.09,182.61L105.22,249.21L105.39,245.33L105.55,247.33L105.88,248.97L106.04,243.44L106.2,248.59L106.36,229.91L107.01,230.74L107.18,230.44L107.5,228.43L107.66,235.55L107.99,238.66L108.15,236.18L108.31,227.97L109.13,228.31L109.29,228.82L109.62,229.79L109.78,228.63L109.94,228.01L110.1,228.99L110.59,227.82L110.75,228L110.92,227.29L111.4,228.41L111.57,228.49L112.06,227.2L112.22,227.33L112.38,228.98L112.54,228.76L112.71,229.56L112.87,227.97L113.52,226.83L113.68,235.07L114.01,239.7L114.17,253.81L114.33,250.76L114.49,232.13L115.47,174.68L115.8,175.65L115.96,187.54L117.26,62.78L117.42,69.32L117.59,72.15L118.72,113.89L118.89,125.36L120.68,259.69L120.84,239.21L121,251.54L121.49,239.17L121.65,236.9L121.81,235.91L121.98,237.75L122.14,236.91L122.3,237.97L122.63,236.9L123.11,250.83L123.28,239.57L123.77,250.47L124.09,250.03L124.25,240L124.42,250.08L124.74,249.8L124.9,228.91L125.72,239.57L125.88,236.67L126.53,248.46L126.69,230.05L126.86,236.95L127.18,228.02L127.34,228.43L127.51,228.62L127.67,227.16L127.83,238.61L127.99,225.22L128.48,227.55L128.64,262.26L128.97,262.82L129.46,208.27L129.62,232.75L129.78,230.65L130.76,190.26L130.92,193.56L131.73,158.5L131.9,163.98L133.2,74.04L133.52,78.25L133.69,90.9L136.45,262.51L136.61,243.97L136.78,252.03L137.26,239.75L137.43,241.79L138.56,229.99L138.73,229.21L139.54,228.42L139.7,228.75L140.19,227.98L140.35,228.72L140.52,228.74L141.17,227.91L141.33,228.44L141.82,230.01L141.98,228.62L142.14,227.53L142.47,228.76L142.63,227.95L142.79,228.85L142.96,229.05L143.12,228.36L143.28,228.15L143.61,226.97L143.77,229.02L143.93,229.03L144.09,227.61L144.26,227.16L144.58,227.67L144.75,228.91L144.91,228.19L145.07,235.31L145.23,235.13L145.4,226.97L147.02,163.78L147.18,108.95L147.35,104.19L147.51,112.2L147.84,107.03L148,108.56L148.16,106.73L148.32,78.55L148.49,62.27L148.65,99.92L148.81,99.26L148.97,105.29L149.3,145.68L149.46,122.08L149.62,127.67L149.79,122.57L149.95,102.05L151.41,226.87L151.58,234.21L151.9,237.32L152.06,234.97L152.23,231.38L153.04,248.62L153.2,241.26L153.36,239.17L153.53,241.34L153.69,239.86L153.85,242.69L154.02,226.7L154.67,228.54L154.83,239.58L155.15,241.24L155.64,236.79L155.8,241.15L156.29,225.37L156.78,228.17L156.94,228.2L157.59,228.79L157.76,228.21L157.92,239.32L158.24,240.57L158.41,225.7L158.89,228.37L159.06,228.02L159.22,228.52L159.54,227.7L159.71,239.02L159.87,236.77L160.03,252.38L160.2,239.65L160.36,252.57L160.68,242.34L160.85,247.5L162.47,142.63L162.63,83.66L162.8,77.64L162.96,84.12L163.12,232.65L163.29,86.66L163.94,89.62L164.1,83.93L164.26,95.48L164.42,93.96L164.59,182.96L164.91,60.16L165.24,206.39L165.4,94.45L165.56,114.86L165.72,35.31L166.05,208.7L166.21,226.2L166.38,225.49L166.54,228.16L166.7,226.23L166.86,231.2L167.03,235.52L167.84,241.69L168.16,240.23L168.33,239.19L168.82,240.34L168.98,239.51L169.14,228.6L169.63,230.52L169.79,229.68L169.95,228.15L170.28,227.68L170.77,227.98L170.93,227.65L171.74,229.01L171.91,227.97L173.04,229.93L173.21,228.64L173.69,227.08L173.86,228.05L174.02,241L174.18,225.39L174.83,229.1L175,228.96L175.32,227.31L175.81,227.42L175.97,237.84L176.46,230.67L176.62,207.21L177.43,184.55L177.6,196.43L177.76,197.07L177.92,192.15L178.09,81.2L178.41,160.82L178.9,108.82L179.06,165.99L179.22,181.66L179.39,155.24L179.55,44.89L180.36,41.32L180.52,56.88L181.01,74.4L181.18,130.66L181.34,123.23L181.5,180.04L182.15,234.07L182.48,222.96L182.64,227.15L183.13,241.57L183.45,231.13L183.61,230.11L183.94,231.1L184.27,230.69L184.43,230.09L184.92,231.21L185.08,230.26L185.24,241.84L185.4,237.1L185.57,242.45L185.73,237.57L185.89,252.55L186.7,238.02L186.87,252.12L187.68,238.82L187.84,239.64L188.01,238.56L188.33,239.34L188.49,228.96L188.66,228.1L189.31,228.46L189.47,229.46L190.28,227.53L190.45,228.64L191.1,227.8L191.26,227.9L191.42,228.7L191.58,227.65L191.75,233.64L191.91,235.34L192.07,229.77L192.23,210.79L192.4,221.59L192.72,200.44L192.89,190.95L193.86,162.67L194.02,132.9L194.51,93.66L194.67,117.85L194.84,180.78L195.49,68.87L195.65,93.76L195.81,87.9L195.98,94.92L196.14,48.86L196.63,205.2L196.95,174.75L197.11,148.93L198.9,235.6L199.23,234.04L199.39,234.09L200.04,233.44L200.2,234.05L200.37,236.99L200.53,253.65L201.18,252.74L201.34,240.51L201.67,240.48L201.83,252.54L201.99,240.66L202.16,240.67L202.32,237.1L202.48,209.83L202.81,240.39L203.29,230.5L203.46,231.18L203.94,232L204.11,231.47L204.27,205.84L204.43,231.8L205.08,231L205.25,217.29L205.41,219.9L205.57,208.48L206.38,205.62L206.55,205.62L206.87,205.62L207.03,217.24L207.36,254.12L207.85,227.11L208.01,215.91L208.17,214.93L208.34,232.12L208.66,252.95L208.82,245.17L208.99,240.04L209.47,172.63L209.8,185.57L209.96,203.87L210.77,120.73L210.94,133.63L211.59,62.4L211.91,90.78L212.08,257.65L212.4,196.44L212.56,283.25L212.73,237.85L213.21,294.94L213.38,254.17L213.54,304L214.35,228.77L214.52,240.37L215.49,259.6L215.65,248.6L215.82,260.03L215.98,236.22L216.14,222.04L216.47,243.37L216.95,230.94L217.12,229.52L217.61,231.22L217.77,205.81L218.42,231.51L218.58,230.24L218.74,229.51L219.23,231.87L219.39,205.81L219.88,232.06L220.21,230.18L220.37,229.99L220.7,231.06L220.86,205.62L221.18,205.62L221.35,217.04L221.67,219.9L221.83,208.48L222.65,205.62L222.81,205.77L223.14,225.43L223.46,209.37L223.62,203.33L224.11,176.33L224.27,210.83L225.09,127.43L225.25,177.28L225.57,216.28L225.9,94.73L226.06,205.62L226.23,205.62L226.39,217.04L227.04,234.17L227.2,222.75L227.85,208.48L228.01,217.04L228.18,219.9L228.34,219.18L228.5,188.9L228.66,151.37L229.15,202.48L229.32,198.66L230.29,255.61L230.62,254.04L230.78,240.92L230.94,251.57L231.43,237.16L231.59,242.57L232.08,206.08L232.41,234.37L232.57,234.65L233.06,234.91L233.22,234.55L233.38,234.18L233.54,233.92L233.71,205.78L234.03,229.37L234.52,228.07L234.68,228.05L234.84,229.23L235.01,227.43L235.17,205.62L237.77,205.79L237.93,229.09L238.1,205.77L238.59,224.96L238.75,235.19L241.35,150.07L241.51,113.74L242.49,71.47L242.65,83.82L242.81,85.14L242.98,75.78L243.14,72L243.3,102.08L243.79,141.56L243.95,205.47L244.44,114.73L244.6,190.8L244.77,212.63L245.42,246.52L245.58,245.57L245.74,213.41L246.72,243.16L246.88,236.06L247.04,237.96L247.21,205.92L247.37,232L247.69,205.62L247.86,205.62L248.02,205.62L249.32,205.78L249.48,229.66L249.64,229.19L249.97,230.54L250.13,229.42L250.3,229.85L250.46,229.02L250.78,229.26L250.95,231.14L251.11,231.63L251.27,229.86L251.43,228.89L251.6,228.9L251.76,229.95L251.92,230.48L252.08,240.76L252.41,241.6L252.57,225.89L253.06,229.54L253.22,205.77L253.87,248.33L254.2,237.98L254.36,238.45L255.5,178.18L255.66,181.81L255.82,185.08L255.99,176.09L256.15,213.95L256.31,219.05L256.48,153.23L256.8,125.72L256.96,133.25L257.13,174.28L257.29,225.8L257.61,93.36L257.78,119.59L258.1,231.56L258.59,219.9L258.75,219.9L258.91,208.48L259.4,219.9L259.57,219.9L259.89,233.84L260.05,181.35L260.38,212.27L260.54,227.57L261.19,260.67L261.52,260.61L261.68,242.23L261.84,258.12L262,241.87L262.33,242.34L262.49,244.75L263.47,231.23L263.63,230.33L263.96,229.71L264.12,231.33L264.28,231.03L264.93,228.81L265.09,230.01L265.26,230.97L265.91,228.71L266.07,231.87L266.4,241L266.72,237.33L266.88,229.11L267.05,228.92L267.21,230.29L267.7,228.55L267.86,205.76L268.35,240.99L268.67,227.49L268.84,229.17L269,229.62L269.16,205.76L269.49,240.5L269.97,224.11L270.14,217.83L270.3,220.16L270.46,219.9L270.62,208.48L271.44,205.62L271.6,205.62L272.25,219.9L272.41,219.32L272.58,176.77L273.55,63.64L273.71,109.64L274.85,221.99L275.02,97.97L276.48,213.48L276.64,205.62L277.46,219.9L277.62,219.9L277.78,219.9L277.94,208.48L278.76,205.62L278.92,205.62L279.08,205.83L279.24,236.94L279.41,241.52L279.89,236.7L280.06,210.44L280.22,231.87L280.71,205.62L280.87,205.62L283.15,205.76L283.31,230.73L283.47,230.93L283.64,205.62L283.8,205.62L283.96,217.04L284.77,231.32L284.94,222.75L285.1,219.9L286.07,219.9L286.24,231.32L286.89,245.83L287.05,226.56L287.38,231.32L287.86,219.9L288.03,219.9L288.51,219.9L288.68,208.48L289.49,205.62L289.65,205.62L290.95,245.83L291.12,226.56L291.44,234.17L291.6,222.75L291.77,219.9L293.23,219.9L293.39,208.48L294.21,205.62L294.37,205.62L301.2,205.62L301.36,217.04L302.18,219.9L302.34,219.9L302.83,234.17L302.99,222.75L303.15,219.9L303.31,219.9L303.48,208.48L303.64,205.62L303.8,217.04L304.62,219.9L304.78,219.9L305.43,219.9L305.59,242.74L306.57,234.17L306.73,234.17L306.89,234.17L307.05,222.75L308.19,205.62L308.36,205.62L316,205.62L316.16,217.04L316.98,219.9L317.14,208.48L317.63,205.62L317.79,217.04L318.6,231.32L318.76,222.75L318.93,219.9L319.25,219.9L319.41,208.48L320.23,205.62L320.39,205.62L321.37,234.17L321.53,222.75L322.34,205.62L322.51,205.62L323.32,219.9L323.48,219.9L324.29,205.62L324.46,205.62L324.62,205.62L324.78,217.04L325.92,234.17L326.08,222.75L327.55,205.62L327.71,205.62L331.94,205.62L332.1,217.04L332.26,219.9L332.43,242.74L333.4,205.62L333.56,205.62L334.21,219.9L334.38,208.48L335.19,205.62L335.35,217.04L336,219.9L336.17,208.48L336.98,205.62L337.14,205.62L337.3,205.62L337.47,217.04L338.28,234.17L338.44,222.75L339.26,205.62L339.42,217.04L340.23,234.17L340.39,222.75L341.7,205.62L341.86,205.62L346.25,205.62L346.41,217.04L346.57,219.9L346.74,208.48L347.55,205.62L347.71,205.62L349.01,205.62L349.18,217.04L349.67,219.9L349.83,208.48L350.97,245.59L351.13,226.56L351.29,231.56L351.62,219.9L351.78,219.9L352.1,205.62L352.43,219.9L352.59,219.9L352.76,219.9L352.92,231.32L353.08,234.17L353.24,222.75L354.87,205.62L355.03,205.62L362.19,205.62L362.35,217.04L362.68,234.17L363,219.9L363.16,208.48L363.33,205.62L363.49,217.04L364.14,219.9L364.3,208.48L365.12,205.62L365.28,205.62L365.6,205.62L365.77,217.04L366.42,219.9L366.58,208.48L366.9,205.62L367.07,228.46L367.88,234.17L368.04,222.75L368.69,205.62L368.86,228.46L369.67,234.17L369.83,234.17L369.99,234.17L370.16,222.75L370.97,205.62L371.13,205.62L378.45,205.62L378.61,217.04L379.1,219.9L379.26,208.48L380.08,205.62L380.24,205.62L382.03,205.62L382.19,217.04L382.52,219.9L382.68,208.48L383.01,205.62L383.17,239.88L383.33,237.98L383.49,257.25L384.31,215.14L384.47,217.28L384.63,219.9L384.79,219.9L384.96,208.48L385.77,205.62L385.93,217.04L386.75,219.9L386.91,219.9L387.23,219.9L387.4,208.48L388.21,205.62L388.37,205.62L393.09,205.62L393.25,217.04L393.58,219.9L393.74,208.48L394.55,205.62L394.71,217.04L395.2,219.9L395.37,208.48L396.18,205.62L396.34,217.04L397.15,219.9L397.32,219.9L397.8,219.9L397.97,208.48L398.78,245.59L398.94,226.56L399.11,231.56L400.24,205.62L400.41,205.62L401.55,205.62L401.71,217.04L402.52,234.17L402.68,234.17L403.82,205.62L403.99,205.62L406.1,205.62L406.26,217.04L407.08,219.9L407.24,219.9L407.56,219.9L407.73,208.48L408.54,205.62L408.7,205.62L410,205.62L410.17,217.04L410.49,231.32L410.65,222.75L410.82,219.9L411.14,219.9L411.3,208.48L411.47,205.62L411.63,217.04L412.12,234.17L412.28,245.59L412.44,226.56L413.09,234.17L413.26,234.17L413.42,245.59L413.58,226.56L413.74,231.56L413.91,222.75L414.72,205.62L414.88,217.04L415.69,234.17L415.86,222.75L416.51,208.48L416.67,217.04L416.83,219.9L417,219.9L417.16,231.32L417.81,234.17L417.97,222.75L418.78,219.9L418.95,219.9L420.09,219.9L420.25,208.48L421.06,205.62L421.22,205.62L425.13,205.62L425.29,217.04L425.62,219.9L425.78,208.48L426.59,205.62L426.75,205.62L427.08,205.62L427.24,211.18L427.4,245.84L427.73,183.91L427.89,181.25L428.06,186.49L428.22,154.88L428.54,215.13L429.03,176.95L429.19,196.38L429.36,203.26L429.52,201.19L429.68,163.54L430.98,284.5L431.15,258.46L431.31,287.78L431.8,243.95L431.96,249.45L432.45,224.12L432.61,253.12L432.77,241.69L432.93,261.64L433.42,240.49L433.75,240.67L433.91,244.38L434.07,226.45L434.72,237.06L434.89,242.23L435.37,236.77L435.7,237.47L435.86,239.84L436.19,240.68L436.67,236.67L436.84,240.61L437,237.59" style="vector-effect: non-scaling-stroke; fill: none; stroke: rgb(0, 128, 0); stroke-opacity: 1; stroke-width: 2px; opacity: 1;"/></g><g class="points"/><g class="text"/></g></g></g><g class="overplot"/><path class="xlines-above crisp" d="M0,0" style="fill: none;"/><path class="ylines-above crisp" d="M0,0" style="fill: none;"/><g class="overlines-above"/><g class="xaxislayer-above"><g class="xtick"><text text-anchor="middle" x="0" y="433" transform="translate(142.45,0)" style="font-family: 'Open Sans', verdana, arial, sans-serif; font-size: 12px; fill: rgb(42, 63, 95); fill-opacity: 1; white-space: pre; opacity: 1;"><tspan class="line" dy="0em" x="0" y="433">Feb 5</tspan><tspan class="line" dy="1.3em" x="0" y="433">2023</tspan></text></g><g class="xtick"><text text-anchor="middle" x="0" y="433" style="font-family: 'Open Sans', verdana, arial, sans-serif; font-size: 12px; fill: rgb(42, 63, 95); fill-opacity: 1; white-space: pre; opacity: 1;" transform="translate(251.74,0)">Feb 12</text></g><g class="xtick"><text text-anchor="middle" x="0" y="433" style="font-family: 'Open Sans', verdana, arial, sans-serif; font-size: 12px; fill: rgb(42, 63, 95); fill-opacity: 1; white-space: pre; opacity: 1;" transform="translate(361.03,0)">Feb 19</text></g><g class="xtick"><text text-anchor="middle" x="0" y="433" style="font-family: 'Open Sans', verdana, arial, sans-serif; font-size: 12px; fill: rgb(42, 63, 95); fill-opacity: 1; white-space: pre; opacity: 1;" transform="translate(470.32,0)">Feb 26</text></g></g><g class="yaxislayer-above"><g class="ytick"><text text-anchor="end" x="79" y="4.199999999999999" transform="translate(0,384.93)" style="font-family: 'Open Sans', verdana, arial, sans-serif; font-size: 12px; fill: rgb(42, 63, 95); fill-opacity: 1; white-space: pre; opacity: 1;">−40</text></g><g class="ytick"><text text-anchor="end" x="79" y="4.199999999999999" style="font-family: 'Open Sans', verdana, arial, sans-serif; font-size: 12px; fill: rgb(42, 63, 95); fill-opacity: 1; white-space: pre; opacity: 1;" transform="translate(0,345.28)">−20</text></g><g class="ytick"><text text-anchor="end" x="79" y="4.199999999999999" style="font-family: 'Open Sans', verdana, arial, sans-serif; font-size: 12px; fill: rgb(42, 63, 95); fill-opacity: 1; white-space: pre; opacity: 1;" transform="translate(0,305.62)">0</text></g><g class="ytick"><text text-anchor="end" x="79" y="4.199999999999999" style="font-family: 'Open Sans', verdana, arial, sans-serif; font-size: 12px; fill: rgb(42, 63, 95); fill-opacity: 1; white-space: pre; opacity: 1;" transform="translate(0,265.97)">20</text></g><g class="ytick"><text text-anchor="end" x="79" y="4.199999999999999" style="font-family: 'Open Sans', verdana, arial, sans-serif; font-size: 12px; fill: rgb(42, 63, 95); fill-opacity: 1; white-space: pre; opacity: 1;" transform="translate(0,226.31)">40</text></g><g class="ytick"><text text-anchor="end" x="79" y="4.199999999999999" style="font-family: 'Open Sans', verdana, arial, sans-serif; font-size: 12px; fill: rgb(42, 63, 95); fill-opacity: 1; white-space: pre; opacity: 1;" transform="translate(0,186.66)">60</text></g><g class="ytick"><text text-anchor="end" x="79" y="4.199999999999999" style="font-family: 'Open Sans', verdana, arial, sans-serif; font-size: 12px; fill: rgb(42, 63, 95); fill-opacity: 1; white-space: pre; opacity: 1;" transform="translate(0,147)">80</text></g><g class="ytick"><text text-anchor="end" x="79" y="4.199999999999999" style="font-family: 'Open Sans', verdana, arial, sans-serif; font-size: 12px; fill: rgb(42, 63, 95); fill-opacity: 1; white-space: pre; opacity: 1;" transform="translate(0,107.35)">100</text></g></g><g class="overaxes-above"/></g></g><g class="polarlayer"/><g class="smithlayer"/><g class="ternarylayer"/><g class="geolayer"/><g class="funnelarealayer"/><g class="pielayer"/><g class="iciclelayer"/><g class="treemaplayer"/><g class="sunburstlayer"/><g class="glimages"/><defs id="topdefs-e100bf"><g class="clips"/><clipPath id="legende100bf"><rect width="162" height="67" x="0" y="0"/></clipPath></defs><g class="layer-above"><g class="imagelayer"/><g class="shapelayer"/></g><g class="infolayer"><g class="legend" pointer-events="all" transform="translate(525.74,100)"><rect class="bg" shape-rendering="crispEdges" width="162" height="67" x="0" y="0" style="stroke: rgb(68, 68, 68); stroke-opacity: 1; fill: rgb(255, 255, 255); fill-opacity: 1; stroke-width: 0px;"/><g class="scrollbox" transform="" clip-path="url(#legende100bf)"><g class="groups"><g class="traces" transform="translate(0,14.5)" style="opacity: 1;"><text class="legendtext" text-anchor="start" x="40" y="4.680000000000001" style="font-family: 'Open Sans', verdana, arial, sans-serif; font-size: 12px; fill: rgb(42, 63, 95); fill-opacity: 1; white-space: pre;">BESS</text><g class="layers" style="opacity: 0.5;"><g class="legendfill"/><g class="legendlines"><path class="js-line" d="M5,0h30" style="fill: none; stroke: rgb(0, 191, 255); stroke-opacity: 1; stroke-width: 2px;"/></g><g class="legendsymbols"><g class="legendpoints"/></g></g><rect class="legendtoggle" x="0" y="-9.5" width="156.71875" height="19" style="fill: rgb(0, 0, 0); fill-opacity: 0;"/></g><g class="traces" transform="translate(0,33.5)" style="opacity: 1;"><text class="legendtext" text-anchor="start" x="40" y="4.680000000000001" style="font-family: 'Open Sans', verdana, arial, sans-serif; font-size: 12px; fill: rgb(42, 63, 95); fill-opacity: 1; white-space: pre;">Solar</text><g class="layers" style="opacity: 0.5;"><g class="legendfill"/><g class="legendlines"><path class="js-line" d="M5,0h30" style="fill: none; stroke: rgb(255, 0, 0); stroke-opacity: 1; stroke-width: 2px;"/></g><g class="legendsymbols"><g class="legendpoints"/></g></g><rect class="legendtoggle" x="0" y="-9.5" width="156.71875" height="19" style="fill: rgb(0, 0, 0); fill-opacity: 0;"/></g><g class="traces" transform="translate(0,52.5)" style="opacity: 1;"><text class="legendtext" text-anchor="start" x="40" y="4.680000000000001" style="font-family: 'Open Sans', verdana, arial, sans-serif; font-size: 12px; fill: rgb(42, 63, 95); fill-opacity: 1; white-space: pre;">Grid Meter (Net Load)</text><g class="layers" style="opacity: 0.5;"><g class="legendfill"/><g class="legendlines"><path class="js-line" d="M5,0h30" style="fill: none; stroke: rgb(0, 128, 0); stroke-opacity: 1; stroke-width: 2px;"/></g><g class="legendsymbols"><g class="legendpoints"/></g></g><rect class="legendtoggle" x="0" y="-9.5" width="156.71875" height="19" style="fill: rgb(0, 0, 0); fill-opacity: 0;"/></g></g></g><rect class="scrollbar" rx="20" ry="3" width="0" height="0" x="0" y="0" style="fill: rgb(128, 139, 164); fill-opacity: 1;"/></g><g class="g-gtitle"><text class="gtitle" x="298.5" y="50" text-anchor="middle" dy="0em" style="font-family: 'Open Sans', verdana, arial, sans-serif; font-size: 17px; fill: rgb(42, 63, 95); opacity: 1; font-weight: normal; white-space: pre;"><tspan class="line" dy="0em" x="298.5" y="50">Scenario 6</tspan><tspan class="line" dy="1.3em" x="298.5" y="50">Microgrid Output</tspan><tspan class="line" dy="2.6em" x="298.5" y="50">From: February 01, 2023 to February 28, 2023</tspan></text></g><g class="g-xtitle"><text class="xtitle" x="298.5" y="476.409375" text-anchor="middle" style="font-family: 'Open Sans', verdana, arial, sans-serif; font-size: 14px; fill: rgb(42, 63, 95); opacity: 1; font-weight: normal; white-space: pre;">Time</text></g><g class="g-ytitle"><text class="ytitle" transform="rotate(-90,33.840625,260)" x="33.840625" y="260" text-anchor="middle" style="font-family: 'Open Sans', verdana, arial, sans-serif; font-size: 14px; fill: rgb(42, 63, 95); opacity: 1; font-weight: normal; white-space: pre;">Demand (kW)</text></g></g></svg>