<svg class="main-svg" xmlns="http://www.w3.org/2000/svg" xmlns:xlink="http://www.w3.org/1999/xlink" width="700" height="500" style="" viewBox="0 0 700 500"><rect x="0" y="0" width="700" height="500" style="fill: rgb(255, 255, 255); fill-opacity: 1;"/><defs id="defs-b4fcb8"><g class="clips"><clipPath id="clipb4fcb8xyplot" class="plotclip"><rect width="432" height="320"/></clipPath><clipPath class="axesclip" id="clipb4fcb8x"><rect x="80" y="0" width="432" height="500"/></clipPath><clipPath class="axesclip" id="clipb4fcb8y"><rect x="0" y="100" width="700" height="320"/></clipPath><clipPath class="axesclip" id="clipb4fcb8xy"><rect x="80" y="100" width="432" height="320"/></clipPath></g><g class="gradients"/><g class="patterns"/></defs><g class="bglayer"/><g class="layer-below"><g class="imagelayer"/><g class="shapelayer"/></g><g class="cartesianlayer"><g class="subplot xy"><g class="layer-subplot"><g class="shapelayer"/><g class="imagelayer"/></g><g class="gridlayer"><g class="x"><path class="xgrid crisp" transform="translate(141.74,0)" d="M0,100v320" style="stroke: rgb(255, 255, 255); stroke-opacity: 1; stroke-width: 1px;"/><path class="xgrid crisp" transform="translate(249.78,0)" d="M0,100v320" style="stroke: rgb(255, 255, 255); stroke-opacity: 1; stroke-width: 1px;"/><path class="xgrid crisp" transform="translate(357.82,0)" d="M0,100v320" style="stroke: rgb(255, 255, 255); stroke-opacity: 1; stroke-width: 1px;"/><path class="xgrid crisp" transform="translate(465.86,0)" d="M0,100v320" style="stroke: rgb(255, 255, 255); stroke-opacity: 1; stroke-width: 1px;"/></g><g class="y"><path class="ygrid crisp" transform="translate(0,342.08000000000004)" d="M80,0h432" style="stroke: rgb(255, 255, 255); stroke-opacity: 1; stroke-width: 1px;"/><path class="ygrid crisp" transform="translate(0,186.84)" d="M80,0h432" style="stroke: rgb(255, 255, 255); stroke-opacity: 1; stroke-width: 1px;"/><path class="ygrid crisp" transform="translate(0,109.23)" d="M80,0h432" style="stroke: rgb(255, 255, 255); stroke-opacity: 1; stroke-width: 1px;"/></g></g><g class="zerolinelayer"><path class="yzl zl crisp" transform="translate(0,264.46000000000004)" d="M80,0h432" style="stroke: rgb(255, 255, 255); stroke-opacity: 1; stroke-width: 2px;"/></g><path class="xlines-below"/><path class="ylines-below"/><g class="overlines-below"/><g class="xaxislayer-below"/><g class="yaxislayer-below"/><g class="overaxes-below"/><g class="plot" transform="translate(80,100)" clip-path="url(#clipb4fcb8xyplot)"><g class="scatterlayer mlayer"><g class="trace scatter trace496890" style="stroke-miterlimit: 2; opacity: 0.5;"><g class="fills"/><g class="errorbars"/><g class="lines"><path class="js-line" d="M0,164.46L432,164.46" style="vector-effect: non-scaling-stroke; fill: none; stroke: rgb(0, 191, 255); stroke-opacity: 1; stroke-width: 2px; opacity: 1;"/></g><g class="points"/><g class="text"/></g><g class="trace scatter tracee95584" style="stroke-miterlimit: 2; opacity: 0.5;"><g class="fills"/><g class="errorbars"/><g class="lines"><path class="js-line" d="M0,164.66L4.34,164.19L4.5,161.9L4.98,150.21L5.14,133.95L7.23,17.48L7.4,16.14L8.68,16.6L8.84,20.14L10.13,98.21L10.29,111.5L11.58,164.67L11.74,164.66L19.78,164.31L19.94,161.07L20.42,144.31L20.58,131.79L22.35,30.17L22.51,34.13L22.67,33.93L22.83,48.26L23.15,21.89L23.31,16.48L24.12,48.81L24.28,64.64L24.6,47.12L24.76,72.57L24.92,76.42L25.08,73.64L25.24,107.95L25.4,99.9L25.72,115.3L25.88,123.66L26.85,164.67L27.01,164.66L35.21,164.3L35.37,160.78L36.01,126.73L36.17,106.81L36.66,99.83L36.82,110.03L36.98,113.48L37.14,102.67L37.3,85.09L37.46,82.62L37.62,93.6L37.78,103.06L37.94,59.64L38.59,16.51L38.75,25.18L38.91,23.31L39.07,58.85L39.39,20.67L39.55,52.98L39.71,31.86L40.03,31.84L41.8,162.91L41.96,164.5L43.25,164.65L43.41,164.66L50.48,164.55L50.64,163.81L51.29,144.74L51.45,131.28L53.54,25.93L53.7,19.97L54.02,16.3L54.5,16.58L54.66,17.83L55.47,39.62L55.63,48.85L57.72,164.66L57.88,164.66L66.08,164.17L66.24,162.86L66.56,155.9L66.72,142.93L66.88,148.61L67.2,135.91L67.36,124.07L67.53,132.26L67.85,123.02L68.01,113.56L68.33,95.42L68.49,79.6L68.65,93.7L68.81,33.93L69.13,78.54L69.45,44.51L69.62,42.56L69.78,106.04L70.42,62.48L70.58,20.76L70.9,71.17L71.38,44.84L71.54,61.73L73.31,164.67L73.47,164.66L81.51,164.08L81.67,161.28L81.99,157.91L82.16,144.4L84.41,16.19L84.57,16.17L85.85,16.23L86.01,17.17L87.14,79.52L87.3,92.68L88.75,164.66L88.91,164.65L89.07,164.65L96.95,164.2L97.11,161.17L97.43,157.04L97.59,143.46L99.84,18.1L100,16.48L100.97,16.29L101.13,16.32L101.45,16.63L101.61,22.37L102.9,106.1L103.06,119.41L104.18,164.67L104.34,164.66L104.5,164.65L112.22,164.41L112.38,161.89L113.02,147.87L113.18,129.6L115.44,16.54L115.6,16.33L116.56,16.48L116.72,19.61L117.69,60.15L117.85,70.63L119.78,164.66L119.94,164.65L127.65,164.49L127.82,164L128.46,142.37L128.62,129.63L130.71,19.56L130.87,16.62L131.83,16.45L132,16.43L132.48,24.78L132.64,30.71L134.09,131.07L134.25,144.43L135.21,164.67L135.37,164.65L143.09,164.46L143.25,163.75L143.89,140.69L144.05,127.37L145.98,19.13L146.14,16.86L146.47,17.14L146.63,16.44L146.79,18.31L147.11,16.29L147.59,44.12L147.75,19.56L147.91,18.04L148.07,33.5L148.23,33.22L148.39,52.36L148.88,81.24L149.04,95.83L149.52,140.09L149.68,152.71L150.48,164.67L150.65,164.66L150.81,164.65L158.68,164.27L158.84,163.02L159.33,140.01L159.49,129.88L159.65,163.86L159.97,89.79L160.13,78.09L161.1,30.22L161.26,163.06L161.74,16.22L162.06,18.17L162.22,16.21L162.54,33.4L162.7,102.97L163.02,16L163.35,116.84L163.51,35.22L163.67,51.55L163.83,19.75L163.99,133.96L164.15,136.24L165.6,164.6L165.76,164.66L173.96,164.45L174.12,163.43L175.24,121.02L175.4,103.72L175.57,109.74L175.89,105.26L176.05,24.42L177.01,102.48L177.17,114.71L177.82,16.06L178.14,16.28L178.3,16.09L178.94,30.83L179.1,63.8L179.26,57.62L179.42,102.09L179.75,164.2L180.23,131.31L180.39,134.48L181.67,164.66L181.84,164.66L189.55,163.99L189.71,159.41L190.52,130.99L190.68,104.08L192.29,16.4L192.45,26.35L192.61,84.36L193.09,16.05L193.25,16.27L193.41,33.59L193.89,30.23L194.05,16.5L194.38,111.28L194.86,54.29L195.02,72.59L196.79,164.66L196.95,164.65L197.11,164.65L205.15,164.08L205.31,157.31L206.11,131.42L206.27,140.84L206.43,146.57L207.88,16.15L208.04,30.54L208.2,48.35L208.36,35.27L208.52,64.75L208.68,60.31L208.85,67.02L209.33,16.07L209.49,17.29L209.65,163.73L209.81,72.73L210.29,145.99L210.45,151.79L211.74,164.59L211.9,164.62L216.72,164.65L216.88,164.46L218.01,164.66L218.17,164.66L219.14,164.46L219.3,164.46L220.26,164.44L220.42,161.37L220.9,146.72L221.06,134.71L221.55,94.7L221.71,163.71L222.67,17.06L222.83,17.48L223.15,16.44L223.64,164.46L223.8,164.46L225.57,164.46L225.73,163.65L225.89,53.99L226.53,108.28L226.69,122.15L227.82,164.66L227.98,164.65L235.69,164.33L235.86,161.72L236.34,146.05L236.5,133.46L238.43,17L238.59,19.93L239.23,16.45L239.55,16.54L239.71,22.87L239.87,36.18L240.36,17.49L240.52,30.04L240.68,39.27L241,58.67L241.16,163.98L241.64,93.02L241.97,124.57L242.13,131.62L243.09,164.66L243.25,164.65L251.13,164.39L251.29,160.11L253.06,66.58L253.22,163.73L254.02,28.16L254.18,66.04L254.67,16.82L254.99,164.46L255.15,164.46L256.92,163.95L257.08,83.11L258.69,164.66L258.85,164.65L266.56,164.4L266.72,161.04L266.89,157.71L267.05,164.46L267.21,164.46L267.37,164.46L269.3,163.83L269.46,55.58L269.62,28.53L270.26,33.86L270.42,21.96L271.71,163.7L271.87,30.72L273.8,164.46L273.96,164.46L422.19,164.44L422.35,118.18L422.51,136.84L422.68,85.56L422.84,56.33L423,61.63L423.16,16.06L424.28,122.73L424.44,127.28L424.77,29.83L424.93,96.49L425.09,139.87L425.25,133.17L425.41,69.74L426.37,151.88L426.53,144.04L426.69,140.52L426.86,143.03L427.02,154.27L427.5,141.56L427.66,152.5L427.82,162.98L428.62,164.65L428.78,164.65L432,164.66" style="vector-effect: non-scaling-stroke; fill: none; stroke: rgb(255, 0, 0); stroke-opacity: 1; stroke-width: 2px; opacity: 1;"/></g><g class="points"/><g class="text"/></g><g class="trace scatter traced922a4" style="stroke-miterlimit: 2; opacity: 0.5;"><g class="fills"/><g class="errorbars"/><g class="lines"><path class="js-line" d="M0,184.75L0.32,181.74L0.8,182.51L0.96,181.64L1.77,183.43L2.09,182.96L2.25,182.19L2.41,182.61L2.73,181.42L2.89,181.44L3.05,182.19L3.22,191.91L3.7,181.34L3.86,244.3L4.02,261.93L4.18,261.5L4.34,206.6L4.5,189.97L4.66,199.77L4.82,252.05L4.98,257.23L5.14,179.57L6.59,90.71L6.75,138.91L6.91,136.09L7.07,77.09L8.04,39.07L8.2,37.12L8.84,47.96L9,54.26L9.32,65.52L9.49,74.99L10.13,129.37L10.29,207.03L10.61,257.27L10.93,195.9L11.09,195.2L11.58,197.39L11.9,195.54L12.06,195.08L12.38,198.79L12.54,200.22L12.7,191.08L13.18,198.62L13.34,198.47L13.83,191.57L13.99,191.91L14.15,200.94L14.31,204.06L14.95,203.1L15.11,203.84L15.43,203.81L15.6,194.35L16.24,181.8L16.4,182.42L16.56,182.27L16.72,183.32L17.2,182.14L17.36,181.85L18.33,183.43L18.49,183.13L18.65,183.48L18.81,244.63L18.97,260.27L19.13,197.2L19.29,181.63L19.94,189.11L20.1,188.39L20.58,164.03L20.74,218.42L21.7,113.84L21.87,103.58L22.03,104.65L22.19,94.42L22.83,179.95L22.99,125.13L23.31,151.1L23.47,87.33L23.63,77.32L23.79,83.52L23.96,109.96L24.28,129.22L24.44,108.12L24.6,98.51L25.72,218.84L25.88,167.86L26.69,213.02L27.01,206.9L27.17,207.1L27.33,208.44L27.49,197.92L27.65,201.5L27.81,195.49L27.97,185.22L29.1,182L29.26,182.24L29.74,182.37L29.9,182.92L30.23,183.06L30.71,182.01L30.87,183.06L31.35,184.29L31.51,182.92L31.67,182.7L32.64,181.83L32.8,181.95L33.12,181.57L33.28,182.63L33.6,181.36L33.76,182.46L33.92,183.48L34.41,182.39L34.57,181.54L34.73,181.3L34.89,192.77L35.05,192.87L35.21,195.84L35.37,201.5L35.53,177.61L36.01,154.88L36.17,204.17L36.33,211.76L36.5,163.04L36.66,162.74L36.82,177.24L37.14,248.81L37.46,137.01L37.62,149.45L37.78,222.4L38.1,94.94L38.26,63.91L38.43,66.18L38.59,62.69L38.75,123.89L38.91,132.58L39.07,116.85L39.23,98.23L39.39,79.69L39.55,120.15L39.71,101.45L39.87,126.64L40.03,103.36L40.19,187.04L40.35,195.13L40.68,127.99L41,140.74L41.16,218.17L41.48,268.78L41.64,210.29L41.8,191.52L42.44,188.78L42.61,188.85L42.77,190.42L43.25,188.49L43.57,200.49L43.73,199.13L43.89,201.76L44.05,203.69L44.53,202.28L44.7,201.54L45.18,190.26L45.5,190.53L45.66,190.53L46.14,191.51L46.3,190.06L46.46,181.51L47.11,183.09L47.27,182.07L47.43,182.57L47.75,181.81L47.91,181.26L48.07,181.12L48.23,181.72L48.39,182.18L49.04,181.22L49.2,183.19L49.84,203.25L50.16,194.01L50.32,192.31L50.48,192.02L50.64,183.48L52.09,125.18L52.25,113.81L53.54,58.04L53.7,58.55L53.86,67.35L54.02,68.65L54.18,79.12L54.34,144.17L54.82,73.81L54.98,80.39L55.31,59.43L55.63,87.84L55.79,104.06L55.95,99.38L56.11,189.6L56.27,219.51L56.59,155.66L56.75,159.06L57.72,203.92L57.88,203.21L58.2,207.87L58.36,197.82L59.33,195.07L59.49,194.58L60.29,181.66L60.45,181.72L60.61,181.85L61.25,182.26L61.42,181.98L61.58,181.71L61.9,181.4L62.06,181.89L62.22,184L62.54,183.49L62.7,182.68L63.18,181.68L63.34,182.01L63.51,183.04L64.31,181.16L64.47,182.53L65.11,181.33L65.27,182.39L65.44,182.33L65.6,181.28L65.92,182.61L66.24,181.43L66.4,188.92L68.01,132.45L68.17,190.78L68.81,75.2L68.97,101.59L69.13,120.31L69.45,75.56L69.62,126.11L69.78,142.73L70.58,51.83L70.74,92.28L71.06,110.32L71.22,72.24L71.38,75.54L71.54,103.54L72.51,182.22L72.67,242.94L72.83,261.68L72.99,199.48L73.15,184.62L73.47,184.18L73.63,185.66L74.12,183.93L74.28,188.91L75.4,202.63L75.56,202.58L76.37,204.31L76.53,203.37L76.69,193.6L78.14,181.9L78.3,182.71L78.46,183.4L79.42,181.96L79.58,184.23L79.9,183.07L80.07,181.27L80.39,182.53L80.55,182.34L80.71,181.34L81.35,181.96L81.51,185.93L81.83,197.17L81.99,196.95L82.16,246.78L82.32,250.9L82.48,166.35L83.44,79.9L83.6,89.65L83.76,95.07L84.08,90.19L84.25,71.51L84.57,134.21L84.89,42.47L85.05,99.3L85.21,115.14L85.37,114.6L85.53,117.3L85.69,118.38L85.85,65.64L86.01,65.89L86.17,71.16L87.46,126.01L87.62,210.5L87.78,242.82L88.1,199.32L88.26,205.96L88.43,215.1L89.39,195.28L89.55,195.33L89.71,196.82L89.87,203.95L90.36,193.04L90.52,192.96L90.68,192.92L90.84,193.63L91,191.93L91.32,191.16L91.64,192.28L91.8,191.94L92.28,191.01L92.61,191.46L92.77,192.28L92.93,192.24L93.09,182.55L93.41,184.08L93.89,183.24L94.05,183.1L94.21,181.79L94.7,182.19L94.86,183.29L95.18,259.46L95.5,181.82L95.66,182.55L95.98,183.26L96.14,183.5L96.46,181.84L96.79,182.65L96.95,192.79L97.43,204.8L97.59,193.76L97.75,244.23L98.88,94.44L99.04,93.3L99.68,83.87L99.84,73.76L100,73.09L100.16,63.54L100.48,144.53L100.81,74.4L100.97,59L101.29,61.68L101.45,70.37L101.61,64.56L101.93,77.69L102.09,88.22L103.54,188.99L103.7,257.25L104.02,282.14L104.18,220.48L105.15,196.6L105.31,196.14L105.47,195.13L105.63,186.26L106.27,182.32L106.43,188.31L106.59,191.45L106.91,190.8L107.08,182.55L107.4,181.59L107.88,182.22L108.04,182.62L108.36,183.38L108.52,182.47L108.68,181.99L108.84,182.75L109.33,181.84L109.49,181.98L109.65,181.43L110.13,182.3L110.29,182.36L110.77,181.36L110.93,181.45L111.09,182.75L111.42,183.2L111.58,181.95L111.74,181.33L112.22,181.06L112.38,187.51L113.02,196.43L113.18,246.93L113.35,247.12L113.51,169.49L114.31,119.85L114.47,124.89L115.11,84.8L115.28,141.66L115.44,145.04L115.6,78.78L115.92,50.39L116.24,59.96L116.4,135.21L116.72,158.94L116.88,100.19L117.04,83.4L117.2,148.69L117.53,179.24L117.69,119.79L117.85,121.48L119.62,282.02L119.78,279.72L120.26,189.71L120.58,190.98L120.74,189.95L121.87,202.68L122.03,203.3L122.67,202.86L122.83,202.86L122.99,203.07L123.15,193.8L123.96,191.07L124.12,191.77L124.44,191.55L124.92,192.73L125.08,191.7L125.24,191.22L125.4,191.3L125.56,182.69L126.21,181.32L126.37,190.29L126.53,192.76L126.69,183.66L126.85,181.32L127.01,181.63L127.17,208.8L127.33,214.76L127.82,205.32L127.98,195.45L130.39,91.78L130.55,147.83L130.71,155.53L130.87,141.59L131.03,132.14L131.35,56.3L131.83,62.07L132,126.83L132.32,163.55L132.48,98.03L132.64,88.79L133.76,158.87L133.92,173.7L134.73,223.35L135.05,212.88L135.21,205.25L135.37,206.94L135.53,204.44L135.85,206.33L136.01,205.35L136.34,184.27L136.82,184.77L136.98,183.54L137.62,182.09L137.94,182.3L138.1,182.57L138.59,181.96L138.91,182.56L139.07,182.45L139.55,181.91L139.71,182.33L139.87,182.56L140.03,182.63L140.2,183.55L140.52,181.62L141,181.94L141.16,182.64L141.32,182.8L141.64,182.09L141.8,181.72L141.96,181.17L142.12,182.78L142.29,182.79L142.61,181.32L142.93,181.72L143.09,182.69L143.25,182.13L143.41,249.8L144.54,130.32L144.7,135.64L144.86,141.2L145.02,133.69L145.18,115.44L145.34,157.32L145.82,91.32L145.98,91.12L146.3,79.52L146.47,57.98L146.63,49.33L146.79,49.99L146.95,143.79L147.11,158.8L147.27,101.43L147.59,117.53L147.91,72.13L148.23,81.13L148.39,105.04L148.72,119.39L148.88,118.87L149.04,189.97L149.36,225.86L149.68,181.1L149.84,186.84L150.16,190.66L150.32,187.7L150.48,184.62L151.13,206.84L151.29,204.62L151.45,195.35L151.61,195.33L151.77,186.67L152.74,182.25L152.9,182.4L153.06,191.05L153.38,193.59L153.86,193.29L154.02,193.76L154.5,181.78L154.83,182.52L154.99,182.11L155.95,182.15L156.11,190.85L156.43,193.12L156.59,184.55L157.24,181.99L157.4,244.48L157.56,259.61L157.72,197.27L157.88,190.61L158.2,202.16L158.36,195.55L158.52,202.72L158.68,212.27L158.84,267.69L159.01,278.06L159.17,260.27L159.33,237.89L159.49,225.41L159.65,241.66L159.81,137.27L160.13,185.71L160.29,175.17L160.45,103.06L160.77,60.34L161.1,69.33L161.26,185.62L161.42,71.32L162.06,73.64L162.22,69.18L162.38,78.23L162.54,77.03L162.7,146.71L163.02,50.58L163.35,165.06L163.51,77.42L163.67,93.4L163.83,31.12L164.15,166.87L164.31,180.57L165.44,193.56L165.6,185.36L165.92,196.39L166.08,195.09L166.24,256.68L166.56,272.51L166.72,210.62L167.37,183.43L167.69,183.95L167.85,183.3L168.33,181.73L168.65,182.27L168.81,181.96L169.62,181.93L169.78,182.77L170.42,181.86L170.58,182.06L170.74,182.43L171.06,183.49L171.22,182.48L171.39,181.52L171.71,181.26L171.87,182.02L172.19,193.42L172.51,192.41L172.67,183.82L173.8,181.52L173.96,189.68L174.12,191.11L174.28,188.5L174.44,184.07L174.6,165.7L174.76,215.69L174.92,228.77L175.73,148.3L175.89,207.96L176.53,108.8L176.69,142.93L176.85,166.28L177.01,211.05L177.33,116.07L177.49,36.38L177.66,36.31L177.82,98.21L178.14,115.76L178.3,51.35L178.46,48.01L178.62,54.18L178.78,61.57L178.94,61.72L179.1,105.77L179.26,99.95L179.42,135.49L179.75,184.49L180.39,178.04L180.55,181.31L180.71,181.57L180.87,190.87L181.03,194.92L181.19,186.57L181.35,183.75L181.51,183.63L181.67,183.88L181.84,184.41L182.32,183.61L182.48,184.07L182.64,184.47L182.8,184.49L182.96,183.75L183.93,204.64L184.09,204.16L184.57,194.02L184.73,202.87L184.89,204.54L185.05,205.79L185.21,196.37L185.85,193.51L186.02,194.06L186.18,194.91L186.34,194.28L186.5,184.72L187.14,182.34L187.3,183.12L187.46,181.89L187.94,181.95L188.11,181.61L188.27,182.48L188.91,181.82L189.07,181.9L189.23,182.53L189.39,181.71L189.55,248.49L190.2,254.58L190.68,132.21L190.84,127.79L191.48,91.24L191.64,153.23L191.8,177.4L191.96,105.99L192.13,79.95L192.29,76.8L192.45,95.74L192.77,150.25L193.09,139.48L193.25,72.92L193.57,72.29L193.73,77.79L193.89,41.73L195.18,214.29L195.34,148.32L195.5,148.31L195.66,151.26L196.63,188.73L196.79,187.39L196.95,186.7L197.91,186.72L198.07,194.06L198.56,206.8L198.88,205.46L199.04,205.06L199.84,204.66L200,195.56L200.16,164.7L200.65,187.06L200.81,185.36L200.97,183.94L201.45,184.83L201.61,185.11L201.77,184.69L201.93,164.63L202.09,184.96L202.74,184.33L202.9,173.59L203.06,175.64L203.22,166.7L203.54,164.46L203.7,226.55L203.86,242.08L204.02,179.98L204.5,164.46L204.67,173.56L204.83,194.83L204.99,204.15L205.31,188.61L205.47,181.29L205.63,181.46L205.79,173.98L206.43,210.17L206.59,194.82L206.76,168.12L207.88,73.83L208.04,83.48L208.2,101.48L208.52,117.04L209.17,52.33L209.33,61.06L209.49,74.54L209.65,242.04L210.29,237.35L210.45,242.94L210.94,256.23L211.1,256.11L211.26,246.76L212.06,195.45L212.22,205.09L212.38,269.21L212.54,283.8L212.7,226.66L213.67,178.23L213.83,258.66L214.15,274.76L214.31,211.82L215.28,164.61L215.44,183.41L215.92,184.73L216.08,183.74L216.24,183.16L216.72,185.01L216.88,164.61L217.37,185.16L217.69,183.69L217.85,183.54L218.17,184.37L218.33,164.46L218.65,164.46L218.81,173.4L219.14,164.46L219.3,226.55L220.1,164.46L220.26,164.58L220.42,179.8L220.58,179.97L220.74,239.01L221.55,118.14L221.71,226.05L222.35,67.48L222.67,76.33L222.83,76.41L223.32,54.23L223.64,242.08L223.8,188.92L223.96,175.64L224.6,177.87L224.76,175.64L225.24,164.46L225.41,173.4L225.57,175.64L225.73,237.17L226.05,124.34L226.21,123.07L226.53,140.57L226.69,154.21L227.82,210.06L227.98,207.22L228.14,204.71L228.3,205.06L228.46,204.72L228.62,192.01L229.42,164.82L229.59,187.59L230.23,187.01L230.39,187.39L230.55,187.11L230.87,186.62L231.03,164.59L231.35,183.05L231.84,182.03L232,182.02L232.16,182.94L232.32,181.54L232.48,164.46L233.6,164.46L233.77,226.55L234.25,242.08L234.73,164.46L234.89,164.46L235.05,164.59L235.21,182.84L235.37,164.57L235.86,179.6L236.02,187.61L237.14,147.86L237.3,134.2L238.43,79.64L238.91,82.78L239.07,127.01L239.23,77.45L239.55,139.12L239.71,83.89L239.87,133.43L240.04,147.75L240.2,140.42L240.36,75.37L241,114.3L241.16,164.34L241.64,93.3L241.8,152.85L241.97,169.95L242.77,205.09L242.93,164.73L243.41,268.19L243.73,198.99L243.89,196.1L244.38,164.6L244.54,185.08L244.7,184.76L244.86,164.46L246.47,164.58L246.63,183.28L247.11,183.97L247.27,183.09L247.43,183.43L247.59,182.78L247.91,182.97L248.07,184.43L248.24,184.82L248.4,183.44L248.56,182.67L248.72,182.68L248.88,183.51L249.04,246.01L249.52,194.17L249.68,185.13L250,261.48L250.33,164.58L250.49,182.68L250.65,182.59L250.81,192.56L251.13,204.51L251.45,192.67L251.61,176.3L253.06,118.17L253.22,175.13L253.86,101.9L254.02,107.8L254.18,130.98L254.67,76.57L255.15,275.61L255.31,266.66L255.47,202.34L255.79,175.64L255.95,237.73L256.11,262.19L256.27,255.49L256.43,191.16L257.08,145.45L257.24,158.69L257.4,180.84L257.88,204.08L258.04,219.85L258.69,222.17L258.85,212.95L259.49,208.43L259.65,192.38L260.94,183.32L261.1,184.59L261.9,182.61L262.06,183.55L262.22,184.31L262.54,182.84L262.7,182.64L262.87,182.54L263.03,185.01L263.35,193.98L263.67,190.15L263.83,182.85L263.99,182.7L264.15,183.77L264.63,182.41L264.79,164.57L265.28,192.15L265.6,182.77L265.76,182.9L265.92,183.25L266.08,164.57L266.4,191.77L266.89,177.52L267.05,173.4L267.53,175.64L267.69,166.7L268.17,164.46L268.33,226.55L268.65,251.02L268.81,191.16L269.3,175.18L269.46,87.91L269.62,67.31L269.94,81.57L270.1,135.68L270.26,144.19L270.42,130.91L270.58,104.83L271.07,95.91L271.71,186.22L271.87,82.41L273.32,170.61L273.48,164.46L274.28,175.64L274.44,175.64L274.76,175.64L274.92,166.7L275.73,164.46L275.89,164.62L276.05,193.91L276.69,193.61L276.85,164.62L277.01,192.76L277.17,164.46L277.5,164.46L277.66,164.46L279.91,164.57L280.07,184.12L280.23,184.27L280.39,164.46L280.55,164.46L280.71,173.4L281.03,175.64L281.19,166.7L281.35,164.46L281.52,235.49L281.68,253.25L281.84,191.16L282,175.64L282.48,164.46L282.64,173.4L282.8,175.64L283.28,195.75L283.61,186.81L283.77,177.87L284.41,175.64L284.57,237.73L284.89,253.25L285.21,242.08L285.37,242.08L286.18,164.46L286.34,164.46L287.3,197.99L287.46,189.05L287.62,186.81L287.95,186.81L288.11,177.87L288.27,175.64L288.43,184.58L288.59,186.81L288.75,177.87L289.23,253.25L289.39,191.16L289.55,175.64L290.04,175.64L290.2,166.7L291,164.46L291.16,164.46L297.59,164.46L297.75,173.4L298.24,186.81L298.4,177.87L298.56,175.64L298.72,175.64L298.88,237.73L299.84,175.64L300,166.7L300.17,164.46L300.33,173.4L300.97,253.25L301.13,191.16L301.93,175.64L302.09,193.52L302.26,197.99L302.58,186.81L302.74,186.81L303.38,186.81L303.54,177.87L304.35,164.46L304.51,164.46L310.13,164.46L310.29,226.55L311.1,164.46L311.26,164.46L311.58,164.46L311.74,226.55L311.9,242.08L312.06,179.98L312.38,164.46L312.71,175.64L312.87,175.64L313.19,175.64L313.35,166.7L313.99,164.46L314.15,173.4L314.96,175.64L315.12,175.64L315.6,175.64L315.76,166.7L316.56,164.46L316.72,164.46L316.89,173.4L317.05,246.67L317.37,264.43L317.53,202.34L318.65,164.46L318.82,164.46L319.62,175.64L319.78,237.73L319.94,244.31L320.1,242.08L320.26,179.98L320.91,164.46L321.07,173.4L321.23,175.64L321.39,175.64L321.55,184.58L322.19,186.81L322.35,177.87L323.64,164.46L323.8,164.46L327.5,164.46L327.66,226.55L327.82,242.08L327.98,179.98L328.14,164.46L328.62,184.58L328.78,186.81L329.1,186.81L329.27,168.93L329.75,164.46L329.91,173.4L330.07,175.64L330.23,237.73L330.39,253.25L330.55,182.22L331.36,164.46L331.52,173.4L332.16,175.64L332.32,166.7L333.12,164.46L333.28,164.46L333.45,164.46L333.61,173.4L334.41,186.81L334.57,177.87L335.37,164.46L335.54,235.49L335.86,262.19L336.02,202.34L336.98,177.87L337.14,175.64L337.95,164.46L338.11,164.46L342.13,164.46L342.29,226.55L343.25,164.46L343.41,164.46L344.54,164.46L344.7,226.55L344.86,242.08L345.02,179.98L345.83,164.46L345.99,173.4L346.15,175.64L346.31,246.67L346.63,184.58L347.11,186.81L347.27,186.81L347.59,253.25L347.92,175.64L348.08,175.64L348.24,237.73L348.72,175.64L348.88,184.58L349.36,186.81L349.52,177.87L350.01,175.64L350.17,237.73L350.33,244.31L350.49,179.98L351.29,164.46L351.45,164.46L351.77,164.46L351.93,226.55L352.26,242.08L352.42,179.98L353.22,164.46L353.38,164.46L358.04,164.46L358.2,173.4L358.53,186.81L358.69,248.91L358.85,255.49L359.01,182.22L359.17,164.46L359.81,175.64L359.97,175.64L360.13,175.64L360.29,166.7L361.1,164.46L361.26,226.55L361.42,242.08L361.58,188.92L361.74,175.64L362.38,175.64L362.55,166.7L362.71,164.46L362.87,182.34L363.67,186.81L363.83,177.87L363.99,166.7L364.15,226.55L364.47,242.08L364.64,197.87L365.44,186.81L365.6,186.81L365.76,186.81L365.92,177.87L366.73,164.46L366.89,164.46L374.12,164.46L374.28,182.34L374.76,186.81L374.93,177.87L376.05,164.46L376.21,226.55L377.02,164.46L377.18,164.46L377.5,164.46L377.66,226.55L377.82,251.02L377.98,191.16L378.14,175.64L378.62,175.64L378.78,193.52L379.11,284.55L379.43,209.17L379.59,209.17L379.91,266.66L380.23,191.16L380.39,166.7L381.2,164.46L381.36,164.46L382.16,175.64L382.32,175.64L382.96,175.64L383.12,166.7L383.93,164.46L384.09,164.46L388.59,164.46L388.75,235.49L389.56,164.46L389.72,164.46L390.04,164.46L390.2,173.4L390.52,253.25L390.84,179.98L391,164.46L391.65,164.46L391.81,173.4L392.61,175.64L392.77,175.64L393.25,175.64L393.41,166.7L394.22,195.75L394.38,189.05L394.54,177.87L395.02,175.64L395.18,237.73L395.34,244.31L395.5,242.08L395.67,179.98L396.47,164.46L396.63,164.46L397.27,262.19L397.43,202.34L397.59,186.81L398.08,186.81L398.24,177.87L399.36,164.46L399.52,164.46L401.45,164.46L401.61,173.4L402.42,175.64L402.58,175.64L402.9,175.64L403.06,166.7L403.86,164.46L404.03,164.46L405.31,164.46L405.47,173.4L405.79,184.58L405.95,177.87L406.12,237.73L406.76,164.46L407.08,175.64L407.24,184.58L407.56,195.75L407.72,189.05L407.88,248.91L408.53,186.81L408.69,195.75L408.85,197.99L409.97,164.46L410.13,173.4L410.94,186.81L411.1,177.87L411.26,175.64L411.42,237.73L411.58,253.25L411.74,191.16L412.22,175.64L412.39,184.58L412.55,186.81L413.03,186.81L413.19,177.87L413.99,175.64L414.15,175.64L414.48,175.64L414.64,237.73L414.8,253.25L414.96,191.16L415.92,164.46L416.08,164.46L418.82,164.46L418.98,226.55L419.62,164.46L419.78,226.55L419.94,242.08L420.1,179.98L420.26,164.46L420.75,175.64L420.91,175.64L421.71,164.46L421.87,164.46L422.19,164.46L422.35,168.81L422.68,210.51L422.84,205.21L423,147.14L423.16,89.76L423.64,168.41L423.8,147.2L423.96,94.25L424.28,157.22L424.44,155.25L424.6,139.01L424.77,75.19L425.09,193.57L425.25,203.36L425.41,153.71L425.73,207.84L425.89,240.73L426.37,248.31L426.53,294.44L426.69,304L426.86,298.97L427.02,238.05L427.5,179.43L427.82,212.5L427.98,216.35L428.46,207.81L428.95,207.97L429.11,198.91L429.27,191.17L429.91,194.76L430.07,194.72L430.87,192.5L431.04,193.42L431.52,192.51L432,192.81" style="vector-effect: non-scaling-stroke; fill: none; stroke: rgb(0, 128, 0); stroke-opacity: 1; stroke-width: 2px; opacity: 1;"/></g><g class="points"/><g class="text"/></g></g></g><g class="overplot"/><path class="xlines-above crisp" d="M0,0" style="fill: none;"/><path class="ylines-above crisp" d="M0,0" style="fill: none;"/><g class="overlines-above"/><g class="xaxislayer-above"><g class="xtick"><text text-anchor="middle" x="0" y="433" transform="translate(141.74,0)" style="font-family: 'Open Sans', verdana, arial, sans-serif; font-size: 12px; fill: rgb(42, 63, 95); fill-opacity: 1; white-space: pre; opacity: 1;"><tspan class="line" dy="0em" x="0" y="433">Feb 5</tspan><tspan class="line" dy="1.3em" x="0" y="433">2023</tspan></text></g><g class="xtick"><text text-anchor="middle" x="0" y="433" style="font-family: 'Open Sans', verdana, arial, sans-serif; font-size: 12px; fill: rgb(42, 63, 95); fill-opacity: 1; white-space: pre; opacity: 1;" transform="translate(249.78,0)">Feb 12</text></g><g class="xtick"><text text-anchor="middle" x="0" y="433" style="font-family: 'Open Sans', verdana, arial, sans-serif; font-size: 12px; fill: rgb(42, 63, 95); fill-opacity: 1; white-space: pre; opacity: 1;" transform="translate(357.82,0)">Feb 19</text></g><g class="xtick"><text text-anchor="middle" x="0" y="433" style="font-family: 'Open Sans', verdana, arial, sans-serif; font-size: 12px; fill: rgb(42, 63, 95); fill-opacity: 1; white-space: pre; opacity: 1;" transform="translate(465.86,0)">Feb 26</text></g></g><g class="yaxislayer-above"><g class="ytick"><text text-anchor="end" x="79" y="4.199999999999999" transform="translate(0,419.69)" style="font-family: 'Open Sans', verdana, arial, sans-serif; font-size: 12px; fill: rgb(42, 63, 95); fill-opacity: 1; white-space: pre; opacity: 1;">−100</text></g><g class="ytick"><text text-anchor="end" x="79" y="4.199999999999999" style="font-family: 'Open Sans', verdana, arial, sans-serif; font-size: 12px; fill: rgb(42, 63, 95); fill-opacity: 1; white-space: pre; opacity: 1;" transform="translate(0,342.08000000000004)">−50</text></g><g class="ytick"><text text-anchor="end" x="79" y="4.199999999999999" style="font-family: 'Open Sans', verdana, arial, sans-serif; font-size: 12px; fill: rgb(42, 63, 95); fill-opacity: 1; white-space: pre; opacity: 1;" transform="translate(0,264.46000000000004)">0</text></g><g class="ytick"><text text-anchor="end" x="79" y="4.199999999999999" style="font-family: 'Open Sans', verdana, arial, sans-serif; font-size: 12px; fill: rgb(42, 63, 95); fill-opacity: 1; white-space: pre; opacity: 1;" transform="translate(0,186.84)">50</text></g><g class="ytick"><text text-anchor="end" x="79" y="4.199999999999999" style="font-family: 'Open Sans', verdana, arial, sans-serif; font-size: 12px; fill: rgb(42, 63, 95); fill-opacity: 1; white-space: pre; opacity: 1;" transform="translate(0,109.23)">100</text></g></g><g class="overaxes-above"/></g></g><g class="polarlayer"/><g class="smithlayer"/><g class="ternarylayer"/><g class="geolayer"/><g class="funnelarealayer"/><g class="pielayer"/><g class="iciclelayer"/><g class="treemaplayer"/><g class="sunburstlayer"/><g class="glimages"/><defs id="topdefs-b4fcb8"><g class="clips"/><clipPath id="legendb4fcb8"><rect width="167" height="67" x="0" y="0"/></clipPath></defs><g class="layer-above"><g class="imagelayer"/><g class="shapelayer"/></g><g class="infolayer"><g class="legend" pointer-events="all" transform="translate(520.64,100)"><rect class="bg" shape-rendering="crispEdges" width="167" height="67" x="0" y="0" style="stroke: rgb(68, 68, 68); stroke-opacity: 1; fill: rgb(255, 255, 255); fill-opacity: 1; stroke-width: 0px;"/><g class="scrollbox" transform="" clip-path="url(#legendb4fcb8)"><g class="groups"><g class="traces" transform="translate(0,14.5)" style="opacity: 1;"><text class="legendtext" text-anchor="start" x="40" y="4.680000000000001" style="font-family: 'Open Sans', verdana, arial, sans-serif; font-size: 12px; fill: rgb(42, 63, 95); fill-opacity: 1; white-space: pre;">BESS</text><g class="layers" style="opacity: 0.5;"><g class="legendfill"/><g class="legendlines"><path class="js-line" d="M5,0h30" style="fill: none; stroke: rgb(0, 191, 255); stroke-opacity: 1; stroke-width: 2px;"/></g><g class="legendsymbols"><g class="legendpoints"/></g></g><rect class="legendtoggle" x="0" y="-9.5" width="161.890625" height="19" style="fill: rgb(0, 0, 0); fill-opacity: 0;"/></g><g class="traces" transform="translate(0,33.5)" style="opacity: 1;"><text class="legendtext" text-anchor="start" x="40" y="4.680000000000001" style="font-family: 'Open Sans', verdana, arial, sans-serif; font-size: 12px; fill: rgb(42, 63, 95); fill-opacity: 1; white-space: pre;">Solar</text><g class="layers" style="opacity: 0.5;"><g class="legendfill"/><g class="legendlines"><path class="js-line" d="M5,0h30" style="fill: none; stroke: rgb(255, 0, 0); stroke-opacity: 1; stroke-width: 2px;"/></g><g class="legendsymbols"><g class="legendpoints"/></g></g><rect class="legendtoggle" x="0" y="-9.5" width="161.890625" height="19" style="fill: rgb(0, 0, 0); fill-opacity: 0;"/></g><g class="traces" transform="translate(0,52.5)" style="opacity: 1;"><text class="legendtext" text-anchor="start" x="40" y="4.680000000000001" style="font-family: 'Open Sans', verdana, arial, sans-serif; font-size: 12px; fill: rgb(42, 63, 95); fill-opacity: 1; white-space: pre;">Grid Meter (Net Load)</text><g class="layers" style="opacity: 0.5;"><g class="legendfill"/><g class="legendlines"><path class="js-line" d="M5,0h30" style="fill: none; stroke: rgb(0, 128, 0); stroke-opacity: 1; stroke-width: 2px;"/></g><g class="legendsymbols"><g class="legendpoints"/></g></g><rect class="legendtoggle" x="0" y="-9.5" width="161.890625" height="19" style="fill: rgb(0, 0, 0); fill-opacity: 0;"/></g></g></g><rect class="scrollbar" rx="20" ry="3" width="0" height="0" x="0" y="0" style="fill: rgb(128, 139, 164); fill-opacity: 1;"/></g><g class="g-gtitle"><text class="gtitle" x="296" y="50" text-anchor="middle" dy="0em" style="font-family: 'Open Sans', verdana, arial, sans-serif; font-size: 17px; fill: rgb(42, 63, 95); opacity: 1; font-weight: normal; white-space: pre;"><tspan class="line" dy="0em" x="296" y="50">Scenario 4</tspan><tspan class="line" dy="1.3em" x="296" y="50">Microgrid Output</tspan><tspan class="line" dy="2.6em" x="296" y="50">From: February 01, 2023 to February 28, 2023</tspan></text></g><g class="g-xtitle"><text class="xtitle" x="296" y="477.409375" text-anchor="middle" style="font-family: 'Open Sans', verdana, arial, sans-serif; font-size: 14px; fill: rgb(42, 63, 95); opacity: 1; font-weight: normal; white-space: pre;">Time</text></g><g class="g-ytitle"><text class="ytitle" transform="rotate(-90,26.746875000000003,260)" x="26.746875000000003" y="260" text-anchor="middle" style="font-family: 'Open Sans', verdana, arial, sans-serif; font-size: 14px; fill: rgb(42, 63, 95); opacity: 1; font-weight: normal; white-space: pre;">Demand (kW)</text></g></g></svg>