<svg class="main-svg" xmlns="http://www.w3.org/2000/svg" xmlns:xlink="http://www.w3.org/1999/xlink" width="700" height="500" style="" viewBox="0 0 700 500"><rect x="0" y="0" width="700" height="500" style="fill: rgb(255, 255, 255); fill-opacity: 1;"/><defs id="defs-486753"><g class="clips"><clipPath id="clip486753xyplot" class="plotclip"><rect width="432" height="320"/></clipPath><clipPath class="axesclip" id="clip486753x"><rect x="80" y="0" width="432" height="500"/></clipPath><clipPath class="axesclip" id="clip486753y"><rect x="0" y="100" width="700" height="320"/></clipPath><clipPath class="axesclip" id="clip486753xy"><rect x="80" y="100" width="432" height="320"/></clipPath></g><g class="gradients"/><g class="patterns"/></defs><g class="bglayer"/><g class="layer-below"><g class="imagelayer"/><g class="shapelayer"/></g><g class="cartesianlayer"><g class="subplot xy"><g class="layer-subplot"><g class="shapelayer"/><g class="imagelayer"/></g><g class="gridlayer"><g class="x"><path class="xgrid crisp" transform="translate(141.74,0)" d="M0,100v320" style="stroke: rgb(255, 255, 255); stroke-opacity: 1; stroke-width: 1px;"/><path class="xgrid crisp" transform="translate(249.78,0)" d="M0,100v320" style="stroke: rgb(255, 255, 255); stroke-opacity: 1; stroke-width: 1px;"/><path class="xgrid crisp" transform="translate(357.82,0)" d="M0,100v320" style="stroke: rgb(255, 255, 255); stroke-opacity: 1; stroke-width: 1px;"/><path class="xgrid crisp" transform="translate(465.86,0)" d="M0,100v320" style="stroke: rgb(255, 255, 255); stroke-opacity: 1; stroke-width: 1px;"/></g><g class="y"><path class="ygrid crisp" transform="translate(0,369.15)" d="M80,0h432" style="stroke: rgb(255, 255, 255); stroke-opacity: 1; stroke-width: 1px;"/><path class="ygrid crisp" transform="translate(0,195.32999999999998)" d="M80,0h432" style="stroke: rgb(255, 255, 255); stroke-opacity: 1; stroke-width: 1px;"/><path class="ygrid crisp" transform="translate(0,108.42)" d="M80,0h432" style="stroke: rgb(255, 255, 255); stroke-opacity: 1; stroke-width: 1px;"/></g></g><g class="zerolinelayer"><path class="yzl zl crisp" transform="translate(0,282.24)" d="M80,0h432" style="stroke: rgb(255, 255, 255); stroke-opacity: 1; stroke-width: 2px;"/></g><path class="xlines-below"/><path class="ylines-below"/><g class="overlines-below"/><g class="xaxislayer-below"/><g class="yaxislayer-below"/><g class="overaxes-below"/><g class="plot" transform="translate(80,100)" clip-path="url(#clip486753xyplot)"><g class="scatterlayer mlayer"><g class="trace scatter trace549cc7" style="stroke-miterlimit: 2; opacity: 0.5;"><g class="fills"/><g class="errorbars"/><g class="lines"><path class="js-line" d="M0,182.24L432,182.24" style="vector-effect: non-scaling-stroke; fill: none; stroke: rgb(0, 191, 255); stroke-opacity: 1; stroke-width: 2px; opacity: 1;"/></g><g class="points"/><g class="text"/></g><g class="trace scatter trace59b3f7" style="stroke-miterlimit: 2; opacity: 0.5;"><g class="fills"/><g class="errorbars"/><g class="lines"><path class="js-line" d="M0,182.46L4.34,181.94L4.5,179.37L4.98,166.29L5.14,148.08L7.23,17.65L7.4,16.16L8.68,16.67L8.84,20.64L10.13,108.06L10.29,122.93L11.58,182.47L11.74,182.46L19.78,182.07L19.94,178.44L20.42,159.68L20.58,145.65L22.35,31.87L22.51,36.3L22.67,36.08L22.83,52.12L23.15,22.6L23.31,16.54L24.12,52.74L24.28,70.46L24.6,50.85L24.76,79.35L24.92,83.66L25.08,80.55L25.24,118.96L25.4,109.94L25.72,127.19L25.88,136.55L26.85,182.48L27.01,182.47L35.21,182.06L35.37,178.12L36.01,139.99L36.17,117.69L36.66,109.87L36.82,121.29L36.98,125.15L37.14,113.04L37.3,93.37L37.46,90.59L37.62,102.89L37.78,113.49L37.94,64.87L38.59,16.58L38.75,26.28L38.91,24.19L39.07,63.98L39.39,21.22L39.55,57.41L39.71,33.76L40.03,33.74L41.8,180.5L41.96,182.29L43.09,182.46L43.25,182.46L50.48,182.34L50.64,181.51L51.29,160.16L51.45,145.09L53.54,27.12L53.7,20.45L54.02,16.34L54.5,16.65L54.66,18.05L55.47,42.45L55.63,52.79L57.72,182.47L57.88,182.47L66.08,181.91L66.24,180.44L66.56,172.65L66.72,158.13L66.88,164.49L67.2,150.27L67.36,137.01L67.53,146.18L67.85,135.84L68.01,125.24L68.33,104.93L68.49,87.22L68.65,103.01L68.81,36.08L69.13,86.02L69.45,47.92L69.62,45.74L69.78,116.82L70.42,68.05L70.58,21.33L70.9,77.78L71.38,48.29L71.54,67.21L73.31,182.47L73.47,182.46L81.51,181.82L81.67,178.67L81.99,174.91L82.16,159.78L84.41,16.21L84.57,16.2L85.85,16.26L86.01,17.31L87.14,87.12L87.3,101.86L88.75,182.47L88.91,182.46L89.07,182.45L96.95,181.95L97.11,178.55L97.43,173.93L97.59,158.72L99.84,18.35L100,16.54L100.97,16.32L101.13,16.35L101.45,16.7L101.61,23.13L102.9,116.89L103.06,131.79L104.34,182.47L104.5,182.45L112.22,182.18L112.38,179.36L113.02,163.67L113.18,143.21L115.44,16.6L115.6,16.36L116.56,16.54L116.72,20.04L117.69,65.44L117.85,77.18L119.62,182.47L119.78,182.46L119.94,182.46L127.82,181.72L127.98,178.57L128.3,171.46L128.46,157.51L130.71,19.98L130.87,16.7L131.83,16.5L132,16.49L132.48,25.83L132.64,32.47L134.09,144.85L134.25,159.8L135.21,182.47L135.37,182.45L143.09,182.24L143.25,181.44L143.89,155.62L144.05,140.71L145.98,19.51L146.14,16.96L146.47,17.27L146.63,16.49L146.79,18.59L147.11,16.33L147.59,47.49L147.75,19.99L147.91,18.29L148.07,35.6L148.23,35.28L148.39,56.71L148.88,89.05L149.04,105.39L149.52,154.95L149.68,169.08L150.48,182.47L150.65,182.46L150.81,182.46L158.68,182.03L158.84,180.63L159.33,154.86L159.49,143.52L159.65,181.57L159.97,98.63L160.13,85.52L161.1,31.93L161.26,180.68L161.74,16.24L162.06,18.43L162.22,16.23L162.54,35.49L162.7,113.39L163.02,16L163.35,128.92L163.51,37.52L163.67,55.8L163.83,20.2L163.99,148.09L164.15,150.64L165.6,182.4L165.76,182.46L173.96,182.23L174.12,181.08L175.24,133.6L175.4,114.22L175.57,120.97L175.89,115.95L176.05,25.42L177.01,112.83L177.17,126.53L177.82,16.07L178.14,16.31L178.3,16.1L178.94,32.61L179.1,69.52L179.26,62.6L179.42,112.4L179.75,181.94L180.23,145.12L180.39,148.67L181.67,182.46L181.84,182.46L189.55,181.72L189.71,176.59L190.52,144.76L190.68,114.63L192.29,16.45L192.45,27.59L192.61,92.55L193.09,16.06L193.25,16.3L193.41,35.7L193.89,31.94L194.05,16.56L194.38,122.69L194.86,58.87L195.02,79.37L196.79,182.46L196.95,182.45L197.11,182.45L205.15,181.82L205.31,174.24L206.11,145.24L206.27,155.79L206.43,162.2L207.88,16.17L208.04,32.28L208.2,52.22L208.36,37.58L208.52,70.58L208.68,65.62L208.85,73.13L209.33,16.08L209.49,17.44L209.65,181.42L209.81,79.52L210.29,161.56L210.45,168.05L211.74,182.39L211.9,182.41L215.12,182.46L215.28,182.24L216.24,182.45L216.4,182.45L220.26,182.21L220.42,178.78L220.9,162.37L221.06,148.92L221.55,104.12L221.71,181.4L222.67,17.19L222.83,17.66L223.15,16.49L223.64,182.24L223.8,182.24L225.57,182.24L225.73,181.33L225.89,58.54L226.53,119.33L226.69,134.86L227.66,182.47L227.82,182.46L227.98,182.45L235.69,182.09L235.86,179.17L236.34,161.62L236.5,147.53L238.43,17.11L238.59,20.4L239.23,16.5L239.55,16.6L239.71,23.69L239.87,38.6L240.36,17.67L240.52,31.72L240.68,42.06L241,63.78L241.16,181.7L241.64,102.24L241.97,137.57L242.13,145.46L243.09,182.46L243.25,182.45L251.13,182.16L251.29,177.36L253.06,72.64L253.22,181.42L254.02,29.61L254.18,72.03L254.67,16.92L254.99,182.24L255.15,182.24L256.92,181.67L257.08,91.15L258.69,182.46L258.85,182.45L266.56,182.17L266.72,178.4L266.89,174.68L267.05,182.24L267.21,182.24L267.37,182.24L269.3,181.53L269.46,60.31L269.62,30.03L270.26,36L270.42,22.68L271.71,181.38L271.87,32.49L273.8,182.24L273.96,182.24L422.19,182.22L422.35,130.42L422.51,151.31L422.68,93.89L422.84,61.16L423,67.09L423.16,16.06L424.28,135.51L424.44,140.6L424.77,31.48L424.93,106.13L425.09,154.71L425.25,147.2L425.41,76.18L426.37,168.15L426.53,159.37L426.69,155.44L426.86,158.24L427.02,170.83L427.5,156.59L427.66,168.84L427.82,180.58L428.62,182.46L428.78,182.46L432,182.46" style="vector-effect: non-scaling-stroke; fill: none; stroke: rgb(255, 0, 0); stroke-opacity: 1; stroke-width: 2px; opacity: 1;"/></g><g class="points"/><g class="text"/></g><g class="trace scatter trace92a621" style="stroke-miterlimit: 2; opacity: 0.5;"><g class="fills"/><g class="errorbars"/><g class="lines"><path class="js-line" d="M0,204.96L0.32,201.58L0.8,202.45L0.96,201.48L1.77,203.48L2.09,202.96L2.25,202.09L2.41,202.56L2.73,201.23L2.89,201.25L3.22,202.96L3.54,201.72L3.7,201.14L4.02,291.39L4.34,202.03L4.5,198.29L4.66,209.26L4.82,277.81L4.98,286.11L5.14,199.16L6.59,84.64L6.75,141.12L6.91,147.97L7.07,74.4L7.88,40.65L8.04,41.83L8.2,39.64L8.36,41.45L8.52,46.23L8.68,45.5L8.84,51.78L10.13,132.94L10.29,217.4L10.61,263.63L10.93,202.43L11.09,204.15L11.58,206.6L11.9,204.53L12.06,204.01L12.38,208.16L12.54,209.77L12.7,209.54L12.86,219.01L13.18,220.49L13.34,220.32L13.51,213.85L13.83,212.59L14.15,213.08L14.31,214.06L14.63,212.43L14.95,212.99L15.11,213.82L15.6,213.21L15.76,202.58L16.08,203.19L16.24,201.66L16.56,202.18L16.72,203.36L17.36,201.71L17.85,201.96L18.01,202.54L18.65,203.54L18.81,272.01L18.97,289.52L19.13,218.89L19.29,201.47L19.94,209.84L20.1,209.03L20.58,181.76L20.74,242.66L20.9,241.06L21.06,156.59L22.19,88.8L22.35,86.16L22.51,97.27L22.67,91.23L22.83,172.05L22.99,182.7L23.31,154.77L23.47,83.36L23.63,72.14L23.96,98.69L24.12,106.6L24.28,127.76L24.6,95.87L24.92,124.76L25.08,118.72L25.72,243.13L25.88,186.04L26.05,196.31L26.69,211.58L26.85,206.16L27.01,204.73L27.17,204.95L27.33,206.45L27.49,204.68L27.65,211.2L27.81,214.48L28.46,203.9L28.62,204.2L28.78,204.29L29.58,201.92L29.74,202.29L29.9,202.9L30.23,203.06L30.71,201.89L30.87,203.07L31.35,204.44L31.51,202.91L31.67,202.66L32.64,201.68L32.8,201.82L33.12,201.4L33.28,202.58L33.6,201.17L33.76,202.4L33.92,203.53L34.41,202.32L34.57,201.36L34.73,201.09L34.89,203.92L35.05,201.53L35.21,204.86L35.37,211.2L36.01,171.52L36.17,226.71L36.66,147.78L36.82,159L36.98,232.6L37.3,132.63L37.62,152.92L37.78,234.6L38.59,55.77L38.75,134.3L39.39,74.8L39.55,110.1L39.71,86.65L40.03,86.29L40.52,201.54L40.68,143.76L40.84,137.49L41,153.18L41.16,242.38L41.48,299.05L41.64,233.56L41.8,212.54L42.44,209.47L42.61,209.54L42.77,211.31L43.09,219.13L43.25,209.15L43.41,210.33L43.57,210.06L43.73,208.54L43.89,211.49L44.05,213.65L44.37,213.02L44.53,212.07L45.02,212.34L45.18,211.13L45.34,211.19L45.5,211.43L45.98,211.52L46.14,212.53L46.3,210.91L46.46,201.33L46.95,203.6L47.27,201.95L47.43,202.51L48.07,200.89L48.23,201.57L48.39,202.08L49.04,201.01L49.2,203.21L49.36,201.77L49.52,270.62L50.48,200.58L50.64,201.03L51.29,181.02L51.45,165.36L53.38,65.35L53.54,63.08L54.02,49.93L54.18,51.64L54.34,121.97L54.5,139.56L54.66,79.41L54.82,65.71L55.31,64.63L55.79,102.09L55.95,96.85L56.11,187.86L56.43,221.78L56.59,164.74L56.75,161.18L57.72,213.9L57.88,213.12L58.04,204.98L58.2,205.82L58.68,204.37L58.84,205L59,205.4L59.16,204.42L59.33,204L60.29,201.5L60.61,201.71L60.77,201.91L61.25,202.17L61.42,201.86L61.58,201.55L61.9,201.21L62.06,201.76L62.22,204.11L62.54,203.55L62.7,202.65L63.18,201.52L63.34,201.89L63.51,203.05L64.31,200.94L64.47,202.47L65.11,201.13L65.27,202.31L65.44,202.25L65.6,201.07L65.92,202.56L66.24,201.24L66.4,199.61L68.01,146.39L68.17,211.71L68.81,57.26L69.13,107.77L69.29,81.84L69.45,70.18L69.62,136.79L69.78,227.44L70.26,80.2L70.42,91.9L70.58,43.61L70.9,99.57L71.22,63.95L71.38,70.16L72.83,291.11L72.99,221.45L73.15,204.82L73.47,204.32L73.63,205.98L74.12,204.04L74.28,209.61L74.44,215.26L75.08,215.22L75.24,214.61L76.05,212.43L76.21,214.23L76.37,214.34L76.53,213.29L77.01,213.73L77.33,212.3L77.49,203.67L78.14,201.77L78.3,202.67L78.46,203.44L79.42,201.84L79.58,204.37L79.9,203.08L80.07,201.06L80.39,202.47L80.55,202.26L80.71,201.14L81.35,201.84L81.51,206.28L81.67,209.57L81.99,206.11L82.16,261.9L83.28,99.34L83.44,87.55L84.25,50.62L84.41,118.08L84.57,143.36L84.73,67.41L84.89,45.64L85.69,130.64L85.85,61.57L86.01,49.34L86.5,67.28L86.66,77.45L87.46,139.19L87.62,223.78L87.94,270.13L88.26,203.67L88.43,203.9L89.23,205.68L89.39,204.24L89.55,204.29L90.19,214.86L90.52,214.15L90.68,214.11L90.84,214.91L91,212.99L91.16,212.53L91.32,212.13L91.48,213.02L91.64,213.39L92.28,211.97L92.61,212.47L92.77,213.39L92.93,213.34L93.09,202.49L93.41,204.21L93.89,203.27L94.05,203.11L94.21,201.65L94.7,202.09L94.86,203.33L95.18,288.62L95.5,201.68L95.66,202.5L95.82,202.51L95.98,203.29L96.14,203.56L96.3,203.18L96.46,201.7L96.95,203.95L97.11,209.24L97.43,204.88L97.59,190.02L97.91,257.58L98.39,219.43L98.55,210.75L99.52,75.44L99.68,66.97L100.16,54.22L100.32,121.88L100.64,139.98L100.81,138.41L100.97,69.02L101.13,52.43L101.61,67.87L101.77,78.16L102.73,148.39L102.9,162.07L104.02,304L104.18,232.45L105.15,205.72L105.31,205.2L106.27,202.24L106.43,208.94L106.59,212.46L106.91,211.73L107.08,202.5L107.4,201.42L107.88,202.13L108.04,202.57L108.36,203.43L108.52,202.41L108.68,201.87L108.84,202.72L109.33,201.7L109.49,201.85L109.65,201.24L110.13,202.21L110.29,202.29L110.77,201.16L110.93,201.27L111.09,202.71L111.26,202.52L111.42,203.22L111.58,201.83L112.38,198.04L112.54,198.81L112.7,206.06L112.86,205L113.02,195.5L113.18,249.56L113.51,157.98L113.67,144.9L115.11,68.01L115.28,131.68L116.24,52.71L116.4,126.96L116.72,64.11L117.04,76.45L117.2,152.06L117.37,176.21L117.53,116.74L117.69,112.34L119.62,301.36L119.78,229.26L119.94,210.21L120.58,211.94L120.74,210.78L121.38,217.37L121.55,215.42L121.71,213.17L122.19,213.34L122.51,212.69L122.67,212.72L123.8,212.33L123.96,212.03L124.92,213.89L125.08,212.74L125.24,212.2L125.4,281.83L126.21,201.12L126.37,201.14L127.17,201.85L127.33,201.01L127.82,200.46L127.98,201.92L128.14,208.04L128.3,204.04L128.46,189.26L130.39,88.34L130.55,151.1L130.71,159.72L131.03,143.54L131.19,68.94L131.35,48.61L131.83,55.07L132,127.58L132.32,166.2L132.48,95.34L132.64,84.99L133.76,165.97L133.92,180.07L134.89,228.04L135.05,223.94L135.21,215.39L135.37,217.29L135.53,214.49L135.85,216.61L136.01,215.51L136.34,204.43L136.82,204.98L136.98,203.6L137.62,201.98L137.94,202.22L138.1,202.51L138.59,201.84L138.91,202.5L139.07,202.38L139.55,201.78L139.71,202.25L139.87,202.51L140.03,202.58L140.2,203.62L140.52,201.45L141,201.81L141.16,202.6L141.32,202.78L141.48,202.17L141.64,201.98L141.96,200.95L142.12,202.75L142.29,202.76L142.45,201.52L142.61,201.12L142.93,201.57L143.09,202.65L143.25,202.02L143.41,277.8L144.54,131.49L144.7,127.44L145.18,99.82L145.34,159.22L145.5,163.59L145.66,88.17L146.63,53.32L146.79,54.06L147.27,143.64L147.59,92.14L147.75,61.44L147.91,63.83L148.07,79.39L148.23,76.42L148.39,103.19L148.88,128.69L149.04,210.81L149.52,277.12L149.68,218.25L149.84,207.3L150.16,211.58L150.32,208.26L150.48,204.81L151.13,217.17L151.29,214.69L151.45,204.31L151.77,204.6L151.93,206.53L153.06,202L153.22,202.2L154.02,202.53L154.18,202.07L154.5,201.63L154.83,202.46L154.99,202L155.15,202.03L155.79,202.55L155.95,202.04L156.11,201.77L156.27,201.39L156.59,202.23L156.75,202.12L156.92,202.53L157.24,201.87L157.4,271.84L157.56,288.78L157.72,218.98L157.88,201.51L158.52,202.55L158.68,200.73L159.01,284.42L159.49,250.48L159.65,199.16L160.61,73.85L160.77,65.65L161.1,53.19L161.26,180.9L161.58,38.94L162.06,42.99L162.22,38.01L162.54,56.81L162.7,137.34L163.19,38.88L163.35,157.88L163.51,69.75L163.67,90.16L163.83,20.41L164.15,172.43L164.31,177.75L165.28,197.66L165.44,202.31L165.92,205.48L166.08,204.02L166.24,272.98L166.4,290.17L166.56,221.19L167.37,203.49L167.53,203.62L167.69,204.06L167.85,203.33L168.01,201.99L168.33,201.57L168.81,201.84L168.97,201.55L169.78,202.74L169.94,201.83L170.1,202.03L170.42,201.72L170.74,202.36L170.9,202.74L171.06,203.55L171.22,202.42L171.39,201.34L171.71,201.05L171.87,201.9L172.03,203.24L172.51,201.02L172.67,201.42L172.83,202.82L173.31,201.25L173.48,201.59L173.64,202.34L173.96,200.47L174.12,199.57L174.6,181.12L174.76,239.6L174.92,254.24L175.08,183.77L175.24,223.78L175.57,159.69L175.73,139.11L175.89,205.92L176.21,127.71L176.37,127.94L176.53,109.9L177.01,221.89L177.17,166.1L177.33,125.55L177.66,38.74L177.98,125.24L178.14,127.7L178.46,41.83L178.94,54.68L179.1,93.99L179.26,84.98L179.42,134.78L179.75,182.14L180.23,166.9L180.39,172.41L181.19,204.49L181.67,203.99L181.84,204.58L182.32,203.69L182.48,204.2L182.64,204.64L182.8,204.67L182.96,203.84L183.28,203.39L183.44,204.14L183.6,203.25L184.25,201.41L184.41,202.94L184.89,202.09L185.05,203.48L185.85,202.25L186.02,202.87L186.18,203.82L186.66,202.37L186.82,202.63L187.3,203.14L188.11,201.44L188.27,202.41L188.91,201.68L189.07,201.77L189.23,202.47L189.39,201.55L189.55,276.33L190.68,146.13L190.84,131.16L191.48,87.73L191.64,147.13L192.29,59.05L192.45,80.26L192.61,145.44L192.77,153.81L192.93,151.53L193.09,82.23L193.41,84.17L193.89,32.3L194.05,59.01L195.18,225.52L195.34,151.65L195.5,151.64L195.66,164.96L196.63,209.41L196.79,207.91L196.95,207.15L197.43,206.96L197.59,206.54L197.91,207.16L198.07,215.39L198.23,217.26L198.72,216.66L198.88,215.63L200,214.56L200.16,182.51L200.49,215.2L200.97,204.05L201.13,204.64L201.61,205.36L201.77,204.89L201.93,182.43L202.09,205.19L202.74,204.48L202.9,182.45L203.06,182.24L203.22,251.77L203.38,269.15L203.54,199.62L203.86,269.15L204.18,182.24L204.34,182.24L204.67,182.41L204.83,203.73L204.99,204.15L205.15,204.07L205.31,196.76L205.47,188.56L205.95,195.45L206.11,201.05L206.43,208.39L206.59,191.2L206.76,161.31L207.88,65.73L208.04,79.05L208.52,116.62L208.85,112.15L209.01,70.28L209.33,56.44L209.49,59.03L209.65,234.06L209.81,134.75L210.29,213.8L210.45,220.05L210.94,234.94L211.26,234.34L211.42,227.14L212.06,216.94L212.22,217.72L212.38,287.02L212.54,303.36L212.7,239.37L213.67,182.64L213.83,275.2L214.15,293.23L214.31,222.75L215.28,182.4L215.44,203.46L215.92,204.93L216.08,203.82L216.24,203.18L216.72,205.25L216.88,182.41L217.37,205.42L217.69,203.77L217.85,203.6L218.17,204.54L218.33,182.24L219.14,182.24L219.3,251.77L220.1,182.24L220.26,182.37L220.42,199.41L220.58,199.6L220.74,265.72L220.9,272.44L221.06,190.01L221.55,130.37L221.71,251.21L222.67,58.52L222.83,58.62L223.8,269.15L223.96,199.62L224.76,182.24L224.92,182.24L225.57,182.24L225.73,251.13L226.37,137.49L226.53,155.49L226.69,170.77L227.66,221.7L227.82,220.78L227.98,217.61L228.78,203.66L229.1,204.35L229.26,208.49L229.42,182.64L229.91,207.69L230.07,207.75L230.87,207.05L231.03,182.38L231.35,203.06L231.84,201.91L232,201.9L232.16,202.93L232.32,201.36L232.48,182.24L233.6,182.24L233.77,251.77L234.25,269.15L234.41,199.62L234.89,182.24L235.05,182.38L235.21,202.81L235.37,182.37L235.86,199.19L236.02,208.16L236.66,167.78L236.82,171.53L236.98,151.45L238.43,62.23L238.59,66.72L238.75,68.76L238.91,65.75L239.07,125.28L240.04,163.52L240.2,155.32L240.36,82.48L241,126.07L241.16,182.1L241.64,102.55L241.8,169.24L241.97,188.38L242.77,227.73L242.93,182.54L243.41,298.39L243.73,220.9L243.89,217.67L244.38,182.39L244.54,205.33L244.7,204.97L244.86,182.24L246.47,182.38L246.63,203.31L246.79,202.9L247.11,204.08L247.27,203.1L247.43,203.48L247.59,202.75L247.91,202.96L248.07,204.6L248.24,205.04L248.4,203.49L248.56,202.63L248.72,202.65L248.88,203.57L249.2,289.94L249.52,202.99L249.68,202.88L249.84,272.61L250.33,182.37L250.49,202.64L250.65,202.54L250.81,203.69L251.13,202.05L251.29,209.19L253.06,117.89L253.22,181.67L254.02,71.23L254.18,114.71L254.34,181.57L254.67,58.79L254.83,71.77L255.15,269.15L255.63,182.24L255.79,182.24L256.43,269.15L256.6,199.62L257.08,135.93L257.4,165.54L257.56,176.45L258.69,221.83L258.85,221.52L259.01,221.19L259.33,221.87L259.49,218.95L260.45,204.69L260.61,203.89L260.94,203.35L261.1,204.78L261.26,204.52L261.9,202.56L262.06,203.62L262.22,204.46L262.87,202.48L263.03,205.25L263.35,215.29L263.67,211L263.83,202.83L263.99,202.66L264.15,203.86L264.63,202.34L264.79,182.36L265.12,204.03L265.6,202.74L265.76,202.89L265.92,203.27L266.08,182.36L266.4,202.8L266.89,196.86L267.05,182.24L268.17,182.24L268.33,251.77L268.81,269.15L268.98,199.62L269.46,94.02L269.62,63.44L269.94,76.91L270.1,137.5L270.26,157.03L270.58,105.46L270.74,124.08L270.9,129.65L271.07,80.45L271.55,143.04L271.71,181.57L271.87,65.33L272.51,136.48L272.67,150.53L272.83,119.28L273.16,186.12L273.32,189.13L274.12,182.24L274.28,182.24L275.89,182.42L276.05,215.21L276.53,214.53L276.69,214.88L276.85,182.41L277.01,213.93L277.17,182.24L277.5,182.24L277.66,182.24L279.91,182.36L280.07,204.25L280.23,204.43L280.39,182.24L281.35,182.24L281.52,251.77L282.48,182.24L282.64,182.24L284.41,182.24L284.57,251.77L284.73,199.62L285.05,269.15L285.21,269.15L285.37,269.15L286.18,182.24L286.34,182.24L288.75,182.24L288.91,251.77L289.23,269.15L289.39,199.62L290.2,182.24L290.36,182.24L298.72,182.24L298.88,251.77L299.84,182.24L300,182.24L300.33,182.24L300.49,251.77L301.13,269.15L301.29,199.62L302.09,182.24L302.26,182.24L310.13,182.24L310.29,251.77L311.1,182.24L311.26,182.24L311.58,182.24L311.74,251.77L311.9,269.15L312.06,199.62L312.87,182.24L313.03,182.24L316.89,182.24L317.05,251.77L317.37,269.15L317.53,199.62L318.33,182.24L318.49,182.24L319.62,182.24L319.78,251.77L320.1,269.15L320.26,199.62L321.07,182.24L321.23,182.24L327.5,182.24L327.66,251.77L327.82,269.15L327.98,199.62L328.78,182.24L328.94,182.24L330.07,182.24L330.23,251.77L330.39,269.15L330.55,199.62L331.36,182.24L331.52,182.24L335.37,182.24L335.54,251.77L335.7,269.15L335.86,199.62L336.66,182.24L336.82,182.24L342.13,182.24L342.29,251.77L342.45,269.15L342.61,199.62L343.41,182.24L343.57,182.24L344.54,182.24L344.7,251.77L344.86,269.15L345.02,199.62L345.83,182.24L345.99,182.24L346.15,182.24L346.31,251.77L346.47,269.15L346.63,199.62L347.27,182.24L347.43,251.77L347.59,269.15L347.75,199.62L348.08,182.24L348.24,251.77L348.4,269.15L348.56,199.62L349.36,182.24L349.52,182.24L350.01,182.24L350.17,251.77L350.49,269.15L350.65,199.62L351.45,182.24L351.61,182.24L351.77,182.24L351.93,251.77L352.1,269.15L352.26,199.62L353.06,182.24L353.22,182.24L358.53,182.24L358.69,251.77L358.85,269.15L359.01,199.62L359.81,182.24L359.97,182.24L361.1,182.24L361.26,251.77L361.42,269.15L361.58,199.62L362.38,182.24L362.55,182.24L363.99,182.24L364.15,251.77L364.31,269.15L364.47,199.62L365.28,182.24L365.44,182.24L376.05,182.24L376.21,251.77L377.02,182.24L377.18,182.24L377.5,182.24L377.66,251.77L377.82,269.15L377.98,199.62L378.78,182.24L378.94,251.77L379.11,269.15L379.27,199.62L379.59,182.24L379.75,251.77L380.23,269.15L380.39,199.62L381.2,182.24L381.36,182.24L388.59,182.24L388.75,251.77L389.56,182.24L389.72,182.24L390.2,182.24L390.36,251.77L390.68,269.15L390.84,199.62L391.65,182.24L391.81,182.24L395.02,182.24L395.18,251.77L395.5,269.15L395.67,199.62L396.47,182.24L396.63,182.24L397.11,269.15L397.27,199.62L397.43,182.24L405.95,182.24L406.12,251.77L406.28,269.15L406.44,199.62L407.24,182.24L407.4,182.24L407.72,182.24L407.88,251.77L408.69,182.24L408.85,182.24L411.26,182.24L411.42,251.77L411.58,269.15L411.74,199.62L412.55,182.24L412.71,182.24L414.48,182.24L414.64,251.77L414.8,269.15L414.96,199.62L415.76,182.24L415.92,182.24L418.82,182.24L418.98,251.77L419.62,182.24L419.78,251.77L420.59,182.24L420.75,182.24L422.19,182.24L422.35,187.11L422.68,208.77L422.84,133.31L423.16,63.55L423.32,108.7L423.48,155.83L423.64,174.15L423.8,150.39L423.96,91.1L424.44,171.93L424.6,143.73L424.77,69.76L425.25,203.27L425.73,193.27L425.89,220.08L426.37,226.06L426.53,287.74L426.69,300.94L426.86,295.31L427.02,237.1L427.5,199L427.82,211L427.98,215.31L429.11,205.79L429.27,209.64L429.91,216.17L430.07,216.12L430.23,214.59L430.39,214.5L430.55,215.61L431.52,213.65L431.68,214.01L431.84,214.2L432,213.98" style="vector-effect: non-scaling-stroke; fill: none; stroke: rgb(0, 128, 0); stroke-opacity: 1; stroke-width: 2px; opacity: 1;"/></g><g class="points"/><g class="text"/></g></g></g><g class="overplot"/><path class="xlines-above crisp" d="M0,0" style="fill: none;"/><path class="ylines-above crisp" d="M0,0" style="fill: none;"/><g class="overlines-above"/><g class="xaxislayer-above"><g class="xtick"><text text-anchor="middle" x="0" y="433" transform="translate(141.74,0)" style="font-family: 'Open Sans', verdana, arial, sans-serif; font-size: 12px; fill: rgb(42, 63, 95); fill-opacity: 1; white-space: pre; opacity: 1;"><tspan class="line" dy="0em" x="0" y="433">Feb 5</tspan><tspan class="line" dy="1.3em" x="0" y="433">2023</tspan></text></g><g class="xtick"><text text-anchor="middle" x="0" y="433" style="font-family: 'Open Sans', verdana, arial, sans-serif; font-size: 12px; fill: rgb(42, 63, 95); fill-opacity: 1; white-space: pre; opacity: 1;" transform="translate(249.78,0)">Feb 12</text></g><g class="xtick"><text text-anchor="middle" x="0" y="433" style="font-family: 'Open Sans', verdana, arial, sans-serif; font-size: 12px; fill: rgb(42, 63, 95); fill-opacity: 1; white-space: pre; opacity: 1;" transform="translate(357.82,0)">Feb 19</text></g><g class="xtick"><text text-anchor="middle" x="0" y="433" style="font-family: 'Open Sans', verdana, arial, sans-serif; font-size: 12px; fill: rgb(42, 63, 95); fill-opacity: 1; white-space: pre; opacity: 1;" transform="translate(465.86,0)">Feb 26</text></g></g><g class="yaxislayer-above"><g class="ytick"><text text-anchor="end" x="79" y="4.199999999999999" transform="translate(0,369.15)" style="font-family: 'Open Sans', verdana, arial, sans-serif; font-size: 12px; fill: rgb(42, 63, 95); fill-opacity: 1; white-space: pre; opacity: 1;">−50</text></g><g class="ytick"><text text-anchor="end" x="79" y="4.199999999999999" style="font-family: 'Open Sans', verdana, arial, sans-serif; font-size: 12px; fill: rgb(42, 63, 95); fill-opacity: 1; white-space: pre; opacity: 1;" transform="translate(0,282.24)">0</text></g><g class="ytick"><text text-anchor="end" x="79" y="4.199999999999999" style="font-family: 'Open Sans', verdana, arial, sans-serif; font-size: 12px; fill: rgb(42, 63, 95); fill-opacity: 1; white-space: pre; opacity: 1;" transform="translate(0,195.32999999999998)">50</text></g><g class="ytick"><text text-anchor="end" x="79" y="4.199999999999999" style="font-family: 'Open Sans', verdana, arial, sans-serif; font-size: 12px; fill: rgb(42, 63, 95); fill-opacity: 1; white-space: pre; opacity: 1;" transform="translate(0,108.42)">100</text></g></g><g class="overaxes-above"/></g></g><g class="polarlayer"/><g class="smithlayer"/><g class="ternarylayer"/><g class="geolayer"/><g class="funnelarealayer"/><g class="pielayer"/><g class="iciclelayer"/><g class="treemaplayer"/><g class="sunburstlayer"/><g class="glimages"/><defs id="topdefs-486753"><g class="clips"/><clipPath id="legend486753"><rect width="167" height="67" x="0" y="0"/></clipPath></defs><g class="layer-above"><g class="imagelayer"/><g class="shapelayer"/></g><g class="infolayer"><g class="legend" pointer-events="all" transform="translate(520.64,100)"><rect class="bg" shape-rendering="crispEdges" width="167" height="67" x="0" y="0" style="stroke: rgb(68, 68, 68); stroke-opacity: 1; fill: rgb(255, 255, 255); fill-opacity: 1; stroke-width: 0px;"/><g class="scrollbox" transform="" clip-path="url(#legend486753)"><g class="groups"><g class="traces" transform="translate(0,14.5)" style="opacity: 1;"><text class="legendtext" text-anchor="start" x="40" y="4.680000000000001" style="font-family: 'Open Sans', verdana, arial, sans-serif; font-size: 12px; fill: rgb(42, 63, 95); fill-opacity: 1; white-space: pre;">BESS</text><g class="layers" style="opacity: 0.5;"><g class="legendfill"/><g class="legendlines"><path class="js-line" d="M5,0h30" style="fill: none; stroke: rgb(0, 191, 255); stroke-opacity: 1; stroke-width: 2px;"/></g><g class="legendsymbols"><g class="legendpoints"/></g></g><rect class="legendtoggle" x="0" y="-9.5" width="161.890625" height="19" style="fill: rgb(0, 0, 0); fill-opacity: 0;"/></g><g class="traces" transform="translate(0,33.5)" style="opacity: 1;"><text class="legendtext" text-anchor="start" x="40" y="4.680000000000001" style="font-family: 'Open Sans', verdana, arial, sans-serif; font-size: 12px; fill: rgb(42, 63, 95); fill-opacity: 1; white-space: pre;">Solar</text><g class="layers" style="opacity: 0.5;"><g class="legendfill"/><g class="legendlines"><path class="js-line" d="M5,0h30" style="fill: none; stroke: rgb(255, 0, 0); stroke-opacity: 1; stroke-width: 2px;"/></g><g class="legendsymbols"><g class="legendpoints"/></g></g><rect class="legendtoggle" x="0" y="-9.5" width="161.890625" height="19" style="fill: rgb(0, 0, 0); fill-opacity: 0;"/></g><g class="traces" transform="translate(0,52.5)" style="opacity: 1;"><text class="legendtext" text-anchor="start" x="40" y="4.680000000000001" style="font-family: 'Open Sans', verdana, arial, sans-serif; font-size: 12px; fill: rgb(42, 63, 95); fill-opacity: 1; white-space: pre;">Grid Meter (Net Load)</text><g class="layers" style="opacity: 0.5;"><g class="legendfill"/><g class="legendlines"><path class="js-line" d="M5,0h30" style="fill: none; stroke: rgb(0, 128, 0); stroke-opacity: 1; stroke-width: 2px;"/></g><g class="legendsymbols"><g class="legendpoints"/></g></g><rect class="legendtoggle" x="0" y="-9.5" width="161.890625" height="19" style="fill: rgb(0, 0, 0); fill-opacity: 0;"/></g></g></g><rect class="scrollbar" rx="20" ry="3" width="0" height="0" x="0" y="0" style="fill: rgb(128, 139, 164); fill-opacity: 1;"/></g><g class="g-gtitle"><text class="gtitle" x="296" y="50" text-anchor="middle" dy="0em" style="font-family: 'Open Sans', verdana, arial, sans-serif; font-size: 17px; fill: rgb(42, 63, 95); opacity: 1; font-weight: normal; white-space: pre;"><tspan class="line" dy="0em" x="296" y="50">Scenario 3</tspan><tspan class="line" dy="1.3em" x="296" y="50">Microgrid Output</tspan><tspan class="line" dy="2.6em" x="296" y="50">From: February 01, 2023 to February 28, 2023</tspan></text></g><g class="g-xtitle"><text class="xtitle" x="296" y="477.409375" text-anchor="middle" style="font-family: 'Open Sans', verdana, arial, sans-serif; font-size: 14px; fill: rgb(42, 63, 95); opacity: 1; font-weight: normal; white-space: pre;">Time</text></g><g class="g-ytitle"><text class="ytitle" transform="rotate(-90,33.60625,260)" x="33.60625" y="260" text-anchor="middle" style="font-family: 'Open Sans', verdana, arial, sans-serif; font-size: 14px; fill: rgb(42, 63, 95); opacity: 1; font-weight: normal; white-space: pre;">Demand (kW)</text></g></g></svg>