<svg class="main-svg" xmlns="http://www.w3.org/2000/svg" xmlns:xlink="http://www.w3.org/1999/xlink" width="700" height="500" style="" viewBox="0 0 700 500"><rect x="0" y="0" width="700" height="500" style="fill: rgb(255, 255, 255); fill-opacity: 1;"/><defs id="defs-421465"><g class="clips"><clipPath id="clip421465xyplot" class="plotclip"><rect width="437" height="320"/></clipPath><clipPath class="axesclip" id="clip421465x"><rect x="80" y="0" width="437" height="500"/></clipPath><clipPath class="axesclip" id="clip421465y"><rect x="0" y="100" width="700" height="320"/></clipPath><clipPath class="axesclip" id="clip421465xy"><rect x="80" y="100" width="437" height="320"/></clipPath></g><g class="gradients"/><g class="patterns"/></defs><g class="bglayer"/><g class="layer-below"><g class="imagelayer"/><g class="shapelayer"/></g><g class="cartesianlayer"><g class="subplot xy"><g class="layer-subplot"><g class="shapelayer"/><g class="imagelayer"/></g><g class="minor-gridlayer"><g class="x"/><g class="y"/></g><g class="gridlayer"><g class="x"><path class="xgrid crisp" transform="translate(142.45,0)" d="M0,100v320" style="stroke: rgb(255, 255, 255); stroke-opacity: 1; stroke-width: 1px;"/><path class="xgrid crisp" transform="translate(251.74,0)" d="M0,100v320" style="stroke: rgb(255, 255, 255); stroke-opacity: 1; stroke-width: 1px;"/><path class="xgrid crisp" transform="translate(361.03,0)" d="M0,100v320" style="stroke: rgb(255, 255, 255); stroke-opacity: 1; stroke-width: 1px;"/><path class="xgrid crisp" transform="translate(470.32,0)" d="M0,100v320" style="stroke: rgb(255, 255, 255); stroke-opacity: 1; stroke-width: 1px;"/></g><g class="y"><path class="ygrid crisp" transform="translate(0,388.5)" d="M80,0h437" style="stroke: rgb(255, 255, 255); stroke-opacity: 1; stroke-width: 1px;"/><path class="ygrid crisp" transform="translate(0,294.24)" d="M80,0h437" style="stroke: rgb(255, 255, 255); stroke-opacity: 1; stroke-width: 1px;"/><path class="ygrid crisp" transform="translate(0,247.11)" d="M80,0h437" style="stroke: rgb(255, 255, 255); stroke-opacity: 1; stroke-width: 1px;"/><path class="ygrid crisp" transform="translate(0,199.98000000000002)" d="M80,0h437" style="stroke: rgb(255, 255, 255); stroke-opacity: 1; stroke-width: 1px;"/><path class="ygrid crisp" transform="translate(0,152.85)" d="M80,0h437" style="stroke: rgb(255, 255, 255); stroke-opacity: 1; stroke-width: 1px;"/><path class="ygrid crisp" transform="translate(0,105.72)" d="M80,0h437" style="stroke: rgb(255, 255, 255); stroke-opacity: 1; stroke-width: 1px;"/></g></g><g class="zerolinelayer"><path class="yzl zl crisp" transform="translate(0,341.37)" d="M80,0h437" style="stroke: rgb(255, 255, 255); stroke-opacity: 1; stroke-width: 2px;"/></g><path class="xlines-below"/><path class="ylines-below"/><g class="overlines-below"/><g class="xaxislayer-below"/><g class="yaxislayer-below"/><g class="overaxes-below"/><g class="plot" transform="translate(80,100)" clip-path="url(#clip421465xyplot)"><g class="scatterlayer mlayer"><g class="trace scatter tracef9acf5" style="stroke-miterlimit: 2; opacity: 0.5;"><g class="fills"/><g class="errorbars"/><g class="lines"><path class="js-line" d="M0,241.37L4.55,241.37L4.72,242.41L5.2,241.01L5.37,232.38L6.51,182.15L6.67,229.56L7.48,241.37L7.64,241.37L12.52,241.37L12.69,242.96L12.85,241.77L13.01,252.95L13.34,253.58L13.82,242.84L13.99,245.8L14.15,243.15L14.31,246L14.8,243.59L14.96,245.68L15.29,246.5L15.94,241.53L16.1,241.37L20,241.37L20.17,243.03L20.82,240.99L20.98,232.08L21.47,206.67L21.63,234.29L21.79,241.37L26.35,241.37L26.51,242.31L26.83,243.76L27,243.41L27.16,241.75L27.81,241.37L27.97,244.44L28.14,245.89L28.3,242.31L28.46,241.37L35.62,241.37L35.78,244.76L36.43,234.59L36.59,240.06L36.76,241.37L41.8,241.37L41.96,245.46L42.12,246.89L42.29,242.6L42.45,244.69L42.61,242.19L42.94,241.71L43.26,243.54L43.42,249.66L44.24,241.58L44.4,244.63L44.72,245.09L44.89,244.18L45.21,243L45.38,244.14L45.7,243L46.03,243.27L46.19,243.69L46.35,243.48L46.51,243.62L46.68,244.58L47.65,241.37L47.81,241.37L51.72,241.37L51.88,240.28L52.69,194.79L52.86,230.93L53.67,241.37L53.83,241.37L58.22,241.37L58.39,247.44L59.2,241.37L59.36,241.37L74.97,241.37L75.14,242.7L75.95,247.97L76.11,243.5L76.6,246.11L76.76,242.61L76.93,245.75L77.09,244.51L77.25,246.38L77.41,243.41L77.9,245.78L78.06,243.13L78.23,245.23L78.55,241.37L78.72,241.37L82.46,241.37L82.62,242.75L83.27,238.72L83.43,224.29L83.76,203.51L83.92,233.13L84.73,241.37L84.9,241.37L90.75,241.37L90.91,247.46L91.24,247.97L91.73,242.95L91.89,248.55L92.38,242.51L92.7,243.06L92.86,246.16L93.19,246.47L93.35,242.64L93.68,242.69L93.84,246.68L94.82,241.37L94.98,241.37L98.07,241.37L98.23,242.39L98.72,241.37L98.88,235.77L99.21,220.27L99.37,213.81L99.53,204.59L99.7,233.59L99.86,241.37L104.57,241.37L104.74,242.79L105.22,250.38L105.55,248.32L105.71,245.71L105.88,246.52L106.04,244.82L106.2,246.32L106.36,242.46L107.18,241.37L107.34,241.37L107.66,242.01L107.83,245.4L108.8,241.37L108.97,241.37L114.33,241.37L114.49,239.06L115.15,208.03L115.31,234.4L116.12,241.37L116.28,241.37L120.19,241.37L120.35,249.55L120.51,248.53L120.68,249.44L120.84,243.07L121,248.05L121.16,243.04L121.49,244.49L121.65,242.02L122.3,249.51L122.63,248.17L122.79,246.13L122.95,246.81L123.11,243.15L123.6,245.8L123.93,245.22L124.09,243.49L124.25,245.23L124.9,244.94L125.07,243.57L125.39,243.18L125.55,245.44L125.88,244.79L126.04,243.9L126.2,245.74L126.69,243.59L126.86,244.64L127.67,241.37L127.83,241.37L129.95,241.37L130.11,237.97L131.25,187.17L131.41,230.07L132.22,241.37L132.38,241.37L135.8,241.93L135.96,253.91L136.29,257.4L136.78,244.28L136.94,251.13L137.75,242.9L137.91,241.37L145.56,241.37L145.72,234.56L146.21,204.83L146.37,233.77L146.53,241.37L151.58,241.37L151.74,243.33L151.9,243.47L152.06,241.77L152.55,241.37L152.71,246.82L152.88,246.92L153.04,245.26L153.85,241.37L154.02,241.37L161.01,241.37L161.17,233.7L161.33,226.68L161.66,241.37L161.82,241.37L198.74,241.37L198.9,242.57L199.88,241.37L200.04,241.37L200.2,241.37L200.37,249.02L200.69,249.18L201.18,244.21L201.34,247.97L201.67,248.13L202.16,243.77L202.32,247.78L202.48,236.73L202.64,253.28L203.13,241.37L203.29,241.37L208.99,241.43L209.15,218.91L209.47,195.63L209.64,209.98L209.8,235.91L210.61,241.37L210.77,241.37L211.91,241.37L212.08,270.16L212.24,167.84L212.4,276.7L212.73,269.61L212.89,250.29L213.21,247.41L213.38,268.69L213.7,268.21L213.86,247.96L214.03,254.3L214.19,244.6L214.35,250.74L214.52,243.71L215.33,255.61L215.49,244.55L215.65,250.18L215.82,244.21L215.98,244.46L216.14,239.41L217.12,241.37L217.28,241.37L223.46,241.37L223.62,231.07L224.11,205.87L224.27,234.42L224.76,239.59L224.92,123.67L225.09,211.94L225.9,241.37L226.06,241.37L229.64,241.37L229.8,250.15L230.13,251.63L230.94,245L231.1,246.68L231.75,241.37L231.92,241.77L232.08,241.31L238.42,241.37L238.59,241.37L239.07,241.37L239.24,238.53L239.72,208.08L239.89,219.15L240.05,237.89L240.86,241.37L241.02,241.37L244.93,241.37L245.09,246.92L245.58,255.57L245.74,232.52L245.9,270.87L246.55,255.05L246.72,244.79L246.88,244.67L247.04,242.39L247.21,241.23L247.86,241.37L248.02,241.37L254.04,241.37L254.2,242.38L254.69,241.37L254.85,235.5L255.01,234.26L255.17,222.99L255.82,199.08L255.99,232.22L256.8,241.37L256.96,241.37L260.87,241.37L261.03,253.2L261.68,254.28L261.84,246.45L262,253.84L262.33,254.21L262.82,242.48L262.98,244.42L263.79,241.37L263.96,241.37L266.07,241.37L266.23,247.79L267.21,241.37L267.37,241.37L272.41,241.37L272.58,145.89L273.55,241.37L273.71,241.37L279.08,241.37L279.24,248.85L280.06,235.88L280.22,253.14L280.38,231.17L281.03,241.37L281.2,241.37L427.4,241.37L427.57,194.75L428.38,241.37L428.54,241.37L430.66,241.37L430.82,254.13L431.15,257.73L431.8,241.46L431.96,253.67L432.61,241.37L432.77,244.28L432.93,246.77L433.91,241.37L434.07,241.37L434.72,248.48L434.89,244.79L435.05,248.55L435.21,243.12L435.7,246.8L435.86,243.31L436.02,247.76L436.51,242.82L436.67,247.55L436.84,243.12L437,246.41" style="vector-effect: non-scaling-stroke; fill: none; stroke: rgb(0, 191, 255); stroke-opacity: 1; stroke-width: 2px; opacity: 1;"/></g><g class="points"/><g class="text"/></g><g class="trace scatter trace1e156b" style="stroke-miterlimit: 2; opacity: 0.5;"><g class="fills"/><g class="errorbars"/><g class="lines"><path class="js-line" d="M0,241.67L4.39,240.97L4.55,237.48L5.04,219.74L5.2,195.06L7.32,18.24L7.48,16.22L8.78,16.91L8.94,22.29L10.08,121.35L10.25,140.8L11.71,241.69L11.87,241.67L20,241.15L20.17,236.22L20.65,210.79L20.82,191.77L22.61,37.51L22.77,43.52L22.93,43.22L23.09,64.97L23.42,24.94L23.58,16.73L24.4,65.81L24.56,89.84L24.88,63.24L25.05,101.88L25.21,107.72L25.37,103.51L25.53,155.58L25.7,143.36L26.02,166.74L26.18,179.43L27.16,241.69L27.32,241.68L35.62,241.13L35.78,235.78L36.43,184.1L36.59,153.86L37.08,143.26L37.24,158.75L37.41,163.98L37.57,147.56L37.73,120.89L37.89,117.13L38.06,133.8L38.22,148.17L38.38,82.25L39.03,16.78L39.2,29.94L39.36,27.1L39.52,81.04L39.85,23.08L40.01,72.14L40.17,40.08L40.5,40.05L42.29,239.01L42.45,241.44L43.42,241.66L43.59,241.66L51.07,241.5L51.23,240.39L51.88,211.44L52.04,191L54.16,31.08L54.32,22.03L54.65,16.46L55.13,16.88L55.3,18.79L56.11,51.86L56.27,65.87L58.39,241.68L58.55,241.68L66.84,240.93L67.01,238.94L67.33,228.38L67.49,208.69L67.66,217.3L67.98,198.03L68.14,180.05L68.31,192.49L68.63,178.46L68.79,164.1L69.12,136.56L69.28,112.55L69.45,133.96L69.61,43.22L69.93,110.93L70.26,59.28L70.42,56.31L70.58,152.69L71.07,73.79L71.23,86.56L71.4,23.22L71.72,99.75L72.05,47.59L72.21,59.78L74,241.69L74.16,241.68L82.29,241.43L82.46,240.8L83.11,210.92L83.27,191.29L85.38,16.28L85.55,16.27L86.85,16.35L87.01,17.78L88.15,112.42L88.31,132.41L89.77,241.68L89.94,241.66L98.07,240.98L98.23,236.37L98.56,230.11L98.72,209.49L101,19.19L101.16,16.73L101.97,16.36L102.13,16.44L102.62,16.95L102.79,25.67L104.09,152.78L104.25,172.98L105.39,241.69L105.55,241.68L111.57,241.67L111.73,241.67L113.52,241.3L113.68,237.46L114.33,216.19L114.49,188.46L116.61,21.7L116.77,16.81L117.59,16.59L117.75,16.62L117.91,16.73L118.07,21.48L119.05,83.02L119.21,98.94L121.16,241.68L121.33,241.66L129.13,241.42L129.29,240.67L129.95,207.84L130.11,188.5L132.22,21.4L132.38,16.95L133.2,16.64L133.36,16.68L133.52,16.66L133.69,19.09L134.5,62.47L134.66,78.12L136.78,241.69L136.94,241.66L144.75,241.37L144.91,240.29L145.56,205.28L145.72,185.07L147.67,20.76L147.84,17.31L148.16,17.73L148.32,16.67L148.49,19.51L148.81,16.44L149.3,58.7L149.46,21.41L149.62,19.1L149.79,42.57L149.95,42.14L150.11,71.19L150.6,115.04L150.76,137.18L151.09,172.15L151.25,204.38L152.23,241.68L152.39,241.67L160.52,241.09L160.68,239.19L161.17,204.26L161.33,188.88L161.5,240.46L161.82,128.02L161.98,110.25L162.96,37.59L163.12,239.25L163.61,16.33L163.94,19.29L164.1,16.31L164.42,42.42L164.59,148.03L164.91,16L165.24,169.09L165.4,45.17L165.56,69.96L165.72,21.69L165.89,195.07L166.05,198.54L167.51,241.59L167.68,241.67L175.97,241.36L176.13,239.8L177.27,175.43L177.43,149.16L177.6,158.31L177.92,151.5L178.09,28.77L178.41,139.65L178.9,79.6L179.06,147.28L179.22,165.85L179.39,135.55L179.55,17.52L180.36,16.13L180.52,20.04L181.01,38.52L181.18,88.56L181.34,79.18L181.5,146.69L181.83,240.97L182.31,191.05L182.48,195.87L183.78,241.67L183.94,241.67L191.58,241.29L191.75,240.66L192.72,190.57L192.89,149.71L194.51,16.61L194.67,31.72L194.84,119.77L195.32,16.08L195.49,16.41L195.65,42.71L196.14,37.6L196.3,16.77L196.63,160.65L197.11,74.13L197.28,101.91L199.07,241.68L199.23,241.66L199.39,241.66L207.36,241.55L207.52,240.8L208.5,191.22L208.66,205.52L208.82,214.21L210.29,16.23L210.45,38.08L210.61,65.11L210.77,45.26L210.94,90L211.1,83.26L211.26,93.46L211.75,16.11L211.91,17.96L212.08,240.27L212.24,102.12L212.73,213.33L212.89,222.14L214.19,241.57L214.35,241.61L217.61,241.66L217.77,241.37L218.74,241.66L218.91,241.66L222.81,241.33L222.97,236.68L223.46,214.43L223.62,196.2L224.11,135.46L224.27,240.23L225.25,17.61L225.41,18.25L225.74,16.67L226.23,241.37L226.39,241.37L228.18,241.37L228.34,240.14L228.5,73.67L229.15,156.09L229.32,177.14L230.29,241.68L230.45,241.67L230.62,241.66L238.42,241.17L238.59,237.21L239.07,213.42L239.24,194.32L241.19,17.51L241.35,21.96L242,16.68L242.16,16.71L242.33,16.82L242.65,46.64L242.81,35.05L242.98,19.82L243.14,18.26L243.3,37.31L243.79,80.78L243.95,240.64L244.44,132.92L244.77,180.81L244.93,191.51L245.9,241.67L246.07,241.65L253.87,241.62L254.04,241.27L255.17,167.75L255.34,146.72L255.99,92.79L256.15,240.26L256.96,34.46L257.13,91.96L257.61,17.25L257.94,241.37L258.1,241.37L259.73,241.37L259.89,240.6L260.05,117.88L260.54,181.73L260.7,206.02L261.68,241.67L261.84,241.66L269.65,241.28L269.81,236.17L269.97,231.12L270.14,241.37L270.3,241.37L270.46,241.37L272.25,241.37L272.41,240.42L272.74,35.02L273.23,38.78L273.39,43.11L273.55,25.05L273.71,65.74L273.88,117.24L274.04,121.29L274.2,72.33L274.69,143.56L274.85,240.21L275.02,38.35L275.67,122.45L275.83,144.32L277.29,241.37L277.46,241.37L427.08,241.35L427.24,171.12L427.4,199.44L427.57,121.6L427.73,77.23L427.89,85.27L428.06,16.09L429.19,178.03L429.36,184.93L429.68,36.99L429.84,138.18L430.01,204.05L430.17,193.87L430.33,97.58L431.31,222.27L431.47,210.37L431.63,205.04L431.8,208.84L431.96,225.91L432.45,206.6L432.61,223.21L432.77,239.12L433.58,241.66L433.75,241.66L437,241.67" style="vector-effect: non-scaling-stroke; fill: none; stroke: rgb(255, 0, 0); stroke-opacity: 1; stroke-width: 2px; opacity: 1;"/></g><g class="points"/><g class="text"/></g><g class="trace scatter tracef695d6" style="stroke-miterlimit: 2; opacity: 0.5;"><g class="fills"/><g class="errorbars"/><g class="lines"><path class="js-line" d="M0,272.17L0.33,267.6L0.81,268.77L0.98,267.46L1.79,270.17L2.11,269.46L2.28,268.29L2.44,268.92L2.6,268.37L2.76,267.12L2.93,267.14L3.09,268.28L3.25,269.46L3.58,267.79L3.74,267L4.07,271.52L4.39,268.2L4.55,263.14L4.72,276.96L5.04,264.37L5.2,241.11L5.69,222.6L5.85,212.21L6.18,196.93L6.34,193.16L6.67,120.87L6.83,91.36L7.97,49.41L8.13,51.02L8.29,48.05L8.46,50.5L8.62,56.98L8.78,55.99L8.94,64.51L10.25,174.53L10.41,194.77L11.71,274.39L11.87,272.2L12.2,270.89L12.36,271.72L12.52,276.51L13.01,279.64L13.17,288.63L13.5,288.78L13.99,278.09L14.15,281.26L14.31,278.55L14.47,281.6L14.96,279.17L15.13,280.96L15.45,281.84L15.61,279.01L15.78,281.51L15.94,268.79L16.1,268.49L16.26,269.77L16.43,267.7L16.91,270L17.24,268.67L17.4,268.21L17.56,267.77L17.73,268.81L18.05,268.11L18.22,268.9L18.87,270.25L19.03,268.81L19.19,268.99L19.35,267.5L19.52,267.44L19.68,268.36L19.84,268.54L20,274.77L20.33,277.27L20.49,272.13L20.65,253.7L22.61,111.12L22.77,126.18L23.09,133.29L23.74,83.75L23.91,92.11L24.07,101.53L24.56,167.51L25.05,165.83L25.21,163.44L25.37,155.25L25.53,200.03L25.7,183.94L26.02,206.1L26.18,222.96L27,279.11L27.16,273.42L27.65,274.2L27.81,271.8L27.97,277.56L28.14,280.55L28.3,271.95L28.46,270.75L29.11,271.27L29.27,270.1L29.44,268L30.09,268.56L30.25,269.39L30.58,269.6L31.06,268.02L31.23,269.61L31.71,271.47L31.88,269.4L32.04,269.06L32.2,268.24L32.69,268.69L32.85,268.88L33.5,267.34L33.67,268.95L33.83,268.72L33.99,267.03L34.32,270.24L34.8,268.59L34.97,267.29L35.13,266.93L35.29,270.77L35.45,267.53L35.62,272.04L35.78,277.24L37.08,194.65L37.24,209.87L37.41,215.39L37.57,200.69L37.73,174.12L38.06,201.62L38.22,218.1L39.03,69.91L39.2,82.12L39.36,75.15L40.01,143.57L40.17,111.78L40.33,136.46L40.5,111.29L40.98,149.71L41.15,165.64L42.12,281.87L42.61,277.65L42.77,277.06L43.42,280.56L43.59,285.37L44.24,276.82L44.4,277.77L44.56,280.57L45.86,278.37L46.03,279.04L46.19,278.62L46.68,279.22L46.84,279.34L47,267.21L47.65,269.66L47.81,268.1L47.98,268.86L48.3,267.7L48.47,266.87L48.63,266.66L48.79,267.57L48.95,268.27L49.6,266.82L49.77,269.8L50.09,266.93L50.42,269.72L50.58,271.09L51.72,255.56L51.88,240.81L52.53,200.5L52.69,211.36L52.86,157.95L53.99,82.9L54.16,79.82L54.65,62L54.97,65.41L55.13,65.69L58.55,281.71L58.71,272.2L58.87,273.34L59.04,271.66L59.2,272.04L59.36,271.37L59.69,272.77L60.01,270.87L60.17,270.13L60.34,270.89L60.5,269.61L60.66,268.24L60.99,267.48L61.48,268.04L61.64,268.38L62.61,267.09L62.78,267.83L62.94,271.03L63.43,269.04L63.59,268.43L63.92,267.51L64.08,268.02L64.24,269.58L65.05,266.72L65.22,268.8L65.87,266.98L66.03,268.59L66.19,268.5L66.36,266.9L66.68,268.92L67.01,267.13L67.17,264.93L69.28,141.12L69.45,162.86L69.61,71.94L69.93,140.41L70.26,89.45L70.42,85.49L70.58,184.82L71.07,103.04L71.23,118.9L71.4,53.43L71.72,129.3L72.05,81.01L72.21,89.42L73.67,271.14L73.84,270.96L74,271.98L74.32,271.31L74.49,273.55L74.97,270.92L75.14,277.15L75.46,283.19L76.11,283.12L76.28,278.26L76.93,277.92L77.09,281.59L77.25,279.88L77.41,281.43L77.58,278.51L78.06,280.82L78.23,278.26L79.04,267.85L79.2,269.07L79.37,270.11L79.69,268.08L79.85,269.01L80.02,268.81L80.34,267.94L80.5,271.38L80.83,269.62L80.99,266.89L81.32,268.8L81.48,268.51L81.64,267L82.29,267.94L82.46,273.97L82.78,277.11L82.94,273.73L83.11,255.11L85.38,60.13L85.71,62.14L85.87,56.19L86.36,47.86L86.52,51.95L86.68,53.59L86.85,54.21L87.01,61.19L87.66,99.31L87.82,117.15L89.94,271.48L90.1,271.12L91.4,283.14L91.56,278.3L91.73,283L92.21,277.86L92.38,280.75L92.54,278L92.7,281.91L93.35,280.41L93.52,277.78L94,281.88L94.17,268.74L94.49,271.16L94.98,269.88L95.14,269.66L95.3,267.69L95.79,268.29L95.95,269.96L96.44,267.29L96.77,268.83L96.93,268.85L97.26,270.27L97.42,269.76L97.58,267.76L98.07,270.8L98.23,276.96L98.39,276.62L98.56,272.07L100.67,96.59L100.83,85.1L101.65,62.76L101.81,66.26L101.97,64.12L102.3,65.39L102.46,68.38L105.06,284.5L105.39,283.67L105.55,278.49L105.71,284.29L106.2,279.99L106.36,272.11L106.53,272.5L106.69,270.96L107.01,271.23L107.18,270.86L107.34,269.37L107.5,268.48L107.66,276.94L107.99,280.64L108.15,277.68L108.31,267.93L109.13,268.34L109.29,268.94L109.62,270.09L109.78,268.71L109.94,267.98L110.1,269.14L110.59,267.76L110.75,267.96L110.92,267.13L111.4,268.45L111.57,268.55L112.06,267.02L112.22,267.17L112.38,269.13L112.54,268.87L112.71,269.82L112.87,267.93L113.68,262.79L113.84,263.84L114.01,273.67L114.17,272.22L114.33,259.36L116.61,78.57L116.77,73.7L117.59,65.76L117.75,72.17L118.07,81.23L118.24,86.31L119.86,252.03L120.02,267.41L120.51,286.16L120.84,281.51L121,278.35L121.16,279.88L121.33,277.26L121.65,279.05L121.81,277.36L122.46,284.58L122.79,284.24L122.95,280.91L123.11,281.53L123.28,278.33L123.77,281.1L124.09,280.58L124.25,278.84L124.42,280.64L125.07,280.2L125.23,278.86L125.55,278.75L125.72,280.91L126.04,280.2L126.2,279.48L126.37,281.16L126.86,278.85L127.02,268.33L127.51,268.71L128.32,266.96L128.48,267.43L128.64,267.96L128.97,266.66L129.13,266.55L129.29,266.07L129.46,268.06L129.62,276.35L129.78,270.93L129.95,250.9L131.41,141.71L131.57,118.97L131.73,120.22L131.9,114.07L132.87,60.21L133.04,64.85L133.2,68.01L133.52,73.01L133.69,88.05L136.45,294.04L136.61,284.92L136.78,283.41L137.43,284.36L137.91,271.45L138.08,272.9L138.24,273.8L138.4,272.2L138.56,270.33L139.22,268.14L139.54,268.46L139.7,268.86L140.19,267.94L140.35,268.82L140.52,268.84L141.17,267.86L141.33,268.49L141.82,270.35L141.98,268.7L142.14,267.41L142.47,268.87L142.63,267.9L142.79,268.97L142.96,269.21L143.12,268.39L143.28,268.14L143.61,266.74L143.77,269.18L143.93,269.19L144.09,267.51L144.26,266.97L144.58,267.58L144.75,269.05L144.91,268.19L145.07,276.66L145.23,276.44L145.4,266.74L147.67,79.14L147.84,73.29L148,75.1L148.16,72.94L148.32,66.59L148.49,67.59L148.65,88.59L148.81,67.45L149.14,78.86L149.3,119.23L149.46,77.6L149.95,97.91L150.11,134.21L150.93,187.86L151.09,216.76L151.9,279.04L152.06,276.25L152.23,271.98L152.88,283.18L153.04,281.48L153.2,270.58L153.69,274.3L153.85,271.84L154.02,271.34L154.83,268.16L154.99,268.43L155.15,268.63L155.97,268.26L156.13,267.73L156.29,267.66L156.45,268.24L156.62,268.78L156.94,268.21L157.43,268.46L157.59,268.91L158.08,267.34L158.41,268.48L158.57,268.33L158.73,268.88L159.06,267.99L159.22,268.58L159.38,267.99L159.71,267.49L160.03,268.06L160.2,268.21L160.36,268.91L160.52,266.45L160.68,266.49L161.33,230.75L161.5,243.94L161.66,176.53L162.96,66.42L163.12,239.55L163.45,47.1L163.94,52.59L164.1,45.83L164.42,71.33L164.59,180.5L165.07,47.02L165.24,208.35L165.4,88.88L165.56,116.53L165.72,21.98L166.05,228.07L166.21,235.29L167.19,262.28L167.35,268.58L167.84,272.88L168.16,270.13L168.33,269.86L168.65,270.91L169.14,270.29L169.3,270.18L169.63,270.96L169.79,269.97L170.12,267.55L170.6,268.41L170.77,267.94L170.93,267.55L171.25,268.32L171.58,267.89L171.74,269.17L172.39,267.78L172.56,268.08L172.72,268.65L173.04,270.26L173.21,268.73L173.37,267.27L173.69,266.87L173.86,268.02L174.02,269.85L174.34,267.78L174.51,266.83L174.83,269.28L175,269.1L175.16,267.18L175.48,267.61L175.65,268.63L176.3,260.9L176.46,254.17L177.43,176.02L177.92,179.22L178.09,57.29L179.06,177.3L179.22,195.92L180.04,46.27L180.2,49.61L180.36,46.09L181.01,68.44L181.18,121.74L181.34,109.51L181.5,177.03L181.83,241.23L182.31,220.58L182.48,228.05L183.29,271.54L183.78,270.86L183.94,271.65L184.43,270.45L184.59,271.14L184.75,271.74L184.92,271.78L185.08,270.65L185.4,270.05L185.57,271.06L185.73,269.85L186.38,267.36L186.54,269.43L187.03,268.28L187.19,270.17L188.01,268.5L188.17,269.34L188.33,270.63L188.82,268.67L188.98,269.01L189.47,269.7L190.28,267.41L190.45,268.72L191.1,267.73L191.26,267.84L191.42,268.8L191.58,267.55L191.75,274.67L191.91,276.69L192.07,270.08L192.23,247.52L192.4,260.35L192.56,237.04L192.72,224.36L193.86,99.52L194.02,109.25L194.19,95.12L194.51,74.37L194.67,103.11L194.84,191.49L195.49,78.84L195.65,108.42L195.81,87.89L195.98,92.84L196.14,38.09L196.63,210.32L196.95,170.74L197.11,140.05L198.74,274.83L198.9,277L199.88,274.31L200.04,274.43L200.2,275.16L200.53,284.88L201.18,283.79L201.34,279.44L201.67,279.41L201.83,283.56L202.16,283.03L202.32,278.78L202.48,246.37L202.81,282.69L202.97,275.69L203.13,273.1L203.29,270.94L203.78,272.29L203.94,272.72L204.11,272.09L204.27,241.62L204.43,272.49L205.08,271.53L205.25,241.66L206.22,241.37L206.38,241.37L207.03,241.61L207.2,270.51L207.36,271.08L207.52,270.97L207.68,261.06L207.85,249.95L208.34,259.29L208.5,266.87L208.82,276.59L208.99,253.47L209.15,235.45L210.29,83.42L210.45,101.47L210.61,128.79L210.77,109.94L210.94,152.41L211.1,142.42L211.26,146.35L211.75,70.83L211.91,74.33L212.08,282.84L212.4,210.1L212.56,289.52L212.73,255.92L212.89,283.72L213.05,280.71L213.21,293.24L213.54,304L214.03,279.93L214.19,286.63L215,278.97L215.17,287.04L215.65,278.93L215.82,285.63L216.14,243.87L216.3,273.81L216.63,274.02L216.79,272.73L217.12,269.78L217.61,271.79L217.77,241.59L218.42,272.13L218.58,270.63L218.74,269.76L219.23,272.57L219.39,241.6L219.88,272.79L220.21,270.56L220.37,270.33L220.7,271.6L220.86,241.37L222.81,241.54L222.97,264.65L223.14,264.91L223.3,260.28L224.11,206.55L224.27,247.57L225.25,73.64L225.41,73.78L225.57,240.13L225.9,74.03L226.06,241.37L226.23,241.37L226.39,241.37L228.18,241.37L228.34,240.51L228.5,124.57L228.99,180.71L229.15,205.11L230.29,287.21L230.45,284.1L230.62,285.35L231.43,270.41L231.75,271.35L231.92,276.56L232.08,241.98L232.57,275.87L232.73,275.96L233.06,276.18L233.54,275.01L233.71,241.56L234.03,269.59L234.52,268.05L234.68,268.02L234.84,269.43L235.01,267.29L235.17,241.37L237.77,241.57L237.93,269.27L238.1,241.54L238.59,264.36L238.75,276.51L239.89,204.46L240.05,164.97L240.21,167.82L240.37,145.18L241.19,78.68L241.35,84.76L241.51,87.53L242.33,68.11L242.49,78.53L243.95,241.19L244.28,226.77L244.44,133.34L245.42,289.97L245.58,288.85L245.74,250.63L246.23,277.57L246.39,279.75L246.55,280.11L246.72,285.98L247.21,241.72L247.37,272.72L247.53,272.18L248.34,241.37L248.51,241.37L249.32,241.56L249.48,269.93L249.64,269.38L249.81,269.79L249.97,270.98L250.46,269.18L250.78,269.46L250.95,271.69L251.11,272.29L251.27,270.18L251.43,269.02L251.6,269.04L251.76,270.29L251.92,270.91L252.08,269.55L252.25,268.86L252.9,270.83L253.06,269.8L253.22,241.55L253.71,270.45L254.04,268.23L254.2,276.9L255.99,163.28L256.15,240.59L256.96,90.88L257.13,149.82L257.29,240.46L257.61,74.01L257.78,91.61L258.59,241.37L258.75,241.37L259.89,240.98L260.05,178.59L261.19,289.18L261.52,289.1L261.68,282.14L261.84,289.54L262,281.71L262.49,288.09L262.66,277.45L262.82,279.72L263.14,276.23L263.31,272.76L263.96,270L264.12,271.93L264.28,271.57L264.93,268.92L265.09,270.36L265.26,271.5L265.91,268.81L266.07,272.57L266.4,283.42L266.72,279.06L266.88,269.28L267.05,269.05L267.21,270.68L267.7,268.62L267.86,241.53L268.18,270.91L268.67,269.16L268.84,269.36L269,269.89L269.16,241.53L269.49,269.25L269.97,261.19L270.14,241.37L272.41,240.68L272.58,217.26L273.55,72.62L273.71,113.72L274.2,103.37L274.85,240.47L275.02,82.88L276.48,250.71L276.8,241.37L276.97,241.37L279.08,241.62L279.24,278.59L279.41,284.03L279.89,278.3L280.06,247.09L280.22,272.57L280.71,241.37L280.87,241.37L283.15,241.53L283.31,271.21L283.47,271.45L283.64,241.37L427.08,241.37L427.24,247.98L427.4,262.02L427.57,229.7L427.73,163.12L427.89,157.58L428.06,80.46L428.54,230.41L429.03,174.25L429.19,226.99L429.36,227.39L429.52,189.16L429.68,88.89L430.01,268.59L430.17,269.88L430.33,177.55L430.82,279.91L430.98,289.72L431.31,293.62L431.8,276.74L431.96,279.88L432.12,282.08L432.28,279.47L432.45,261.35L433.1,281.76L433.26,273.79L433.42,273.24L433.91,273.48L434.07,273.3L434.24,277.08L434.89,283.95L435.21,283.48L435.37,278.44L435.54,283.69L436.19,282.99L436.35,278.34L436.67,278.27L436.84,282.95L437,279.36" style="vector-effect: non-scaling-stroke; fill: none; stroke: rgb(0, 128, 0); stroke-opacity: 1; stroke-width: 2px; opacity: 1;"/></g><g class="points"/><g class="text"/></g></g></g><g class="overplot"/><path class="xlines-above crisp" d="M0,0" style="fill: none;"/><path class="ylines-above crisp" d="M0,0" style="fill: none;"/><g class="overlines-above"/><g class="xaxislayer-above"><g class="xtick"><text text-anchor="middle" x="0" y="433" transform="translate(142.45,0)" style="font-family: 'Open Sans', verdana, arial, sans-serif; font-size: 12px; fill: rgb(42, 63, 95); fill-opacity: 1; white-space: pre; opacity: 1;"><tspan class="line" dy="0em" x="0" y="433">Feb 5</tspan><tspan class="line" dy="1.3em" x="0" y="433">2023</tspan></text></g><g class="xtick"><text text-anchor="middle" x="0" y="433" style="font-family: 'Open Sans', verdana, arial, sans-serif; font-size: 12px; fill: rgb(42, 63, 95); fill-opacity: 1; white-space: pre; opacity: 1;" transform="translate(251.74,0)">Feb 12</text></g><g class="xtick"><text text-anchor="middle" x="0" y="433" style="font-family: 'Open Sans', verdana, arial, sans-serif; font-size: 12px; fill: rgb(42, 63, 95); fill-opacity: 1; white-space: pre; opacity: 1;" transform="translate(361.03,0)">Feb 19</text></g><g class="xtick"><text text-anchor="middle" x="0" y="433" style="font-family: 'Open Sans', verdana, arial, sans-serif; font-size: 12px; fill: rgb(42, 63, 95); fill-opacity: 1; white-space: pre; opacity: 1;" transform="translate(470.32,0)">Feb 26</text></g></g><g class="yaxislayer-above"><g class="ytick"><text text-anchor="end" x="79" y="4.199999999999999" transform="translate(0,388.5)" style="font-family: 'Open Sans', verdana, arial, sans-serif; font-size: 12px; fill: rgb(42, 63, 95); fill-opacity: 1; white-space: pre; opacity: 1;">−20</text></g><g class="ytick"><text text-anchor="end" x="79" y="4.199999999999999" style="font-family: 'Open Sans', verdana, arial, sans-serif; font-size: 12px; fill: rgb(42, 63, 95); fill-opacity: 1; white-space: pre; opacity: 1;" transform="translate(0,341.37)">0</text></g><g class="ytick"><text text-anchor="end" x="79" y="4.199999999999999" style="font-family: 'Open Sans', verdana, arial, sans-serif; font-size: 12px; fill: rgb(42, 63, 95); fill-opacity: 1; white-space: pre; opacity: 1;" transform="translate(0,294.24)">20</text></g><g class="ytick"><text text-anchor="end" x="79" y="4.199999999999999" style="font-family: 'Open Sans', verdana, arial, sans-serif; font-size: 12px; fill: rgb(42, 63, 95); fill-opacity: 1; white-space: pre; opacity: 1;" transform="translate(0,247.11)">40</text></g><g class="ytick"><text text-anchor="end" x="79" y="4.199999999999999" style="font-family: 'Open Sans', verdana, arial, sans-serif; font-size: 12px; fill: rgb(42, 63, 95); fill-opacity: 1; white-space: pre; opacity: 1;" transform="translate(0,199.98000000000002)">60</text></g><g class="ytick"><text text-anchor="end" x="79" y="4.199999999999999" style="font-family: 'Open Sans', verdana, arial, sans-serif; font-size: 12px; fill: rgb(42, 63, 95); fill-opacity: 1; white-space: pre; opacity: 1;" transform="translate(0,152.85)">80</text></g><g class="ytick"><text text-anchor="end" x="79" y="4.199999999999999" style="font-family: 'Open Sans', verdana, arial, sans-serif; font-size: 12px; fill: rgb(42, 63, 95); fill-opacity: 1; white-space: pre; opacity: 1;" transform="translate(0,105.72)">100</text></g></g><g class="overaxes-above"/></g></g><g class="polarlayer"/><g class="smithlayer"/><g class="ternarylayer"/><g class="geolayer"/><g class="funnelarealayer"/><g class="pielayer"/><g class="iciclelayer"/><g class="treemaplayer"/><g class="sunburstlayer"/><g class="glimages"/><defs id="topdefs-421465"><g class="clips"/><clipPath id="legend421465"><rect width="162" height="67" x="0" y="0"/></clipPath></defs><g class="layer-above"><g class="imagelayer"/><g class="shapelayer"/></g><g class="infolayer"><g class="legend" pointer-events="all" transform="translate(525.74,100)"><rect class="bg" shape-rendering="crispEdges" width="162" height="67" x="0" y="0" style="stroke: rgb(68, 68, 68); stroke-opacity: 1; fill: rgb(255, 255, 255); fill-opacity: 1; stroke-width: 0px;"/><g class="scrollbox" transform="" clip-path="url(#legend421465)"><g class="groups"><g class="traces" transform="translate(0,14.5)" style="opacity: 1;"><text class="legendtext" text-anchor="start" x="40" y="4.680000000000001" style="font-family: 'Open Sans', verdana, arial, sans-serif; font-size: 12px; fill: rgb(42, 63, 95); fill-opacity: 1; white-space: pre;">BESS</text><g class="layers" style="opacity: 0.5;"><g class="legendfill"/><g class="legendlines"><path class="js-line" d="M5,0h30" style="fill: none; stroke: rgb(0, 191, 255); stroke-opacity: 1; stroke-width: 2px;"/></g><g class="legendsymbols"><g class="legendpoints"/></g></g><rect class="legendtoggle" x="0" y="-9.5" width="156.71875" height="19" style="fill: rgb(0, 0, 0); fill-opacity: 0;"/></g><g class="traces" transform="translate(0,33.5)" style="opacity: 1;"><text class="legendtext" text-anchor="start" x="40" y="4.680000000000001" style="font-family: 'Open Sans', verdana, arial, sans-serif; font-size: 12px; fill: rgb(42, 63, 95); fill-opacity: 1; white-space: pre;">Solar</text><g class="layers" style="opacity: 0.5;"><g class="legendfill"/><g class="legendlines"><path class="js-line" d="M5,0h30" style="fill: none; stroke: rgb(255, 0, 0); stroke-opacity: 1; stroke-width: 2px;"/></g><g class="legendsymbols"><g class="legendpoints"/></g></g><rect class="legendtoggle" x="0" y="-9.5" width="156.71875" height="19" style="fill: rgb(0, 0, 0); fill-opacity: 0;"/></g><g class="traces" transform="translate(0,52.5)" style="opacity: 1;"><text class="legendtext" text-anchor="start" x="40" y="4.680000000000001" style="font-family: 'Open Sans', verdana, arial, sans-serif; font-size: 12px; fill: rgb(42, 63, 95); fill-opacity: 1; white-space: pre;">Grid Meter (Net Load)</text><g class="layers" style="opacity: 0.5;"><g class="legendfill"/><g class="legendlines"><path class="js-line" d="M5,0h30" style="fill: none; stroke: rgb(0, 128, 0); stroke-opacity: 1; stroke-width: 2px;"/></g><g class="legendsymbols"><g class="legendpoints"/></g></g><rect class="legendtoggle" x="0" y="-9.5" width="156.71875" height="19" style="fill: rgb(0, 0, 0); fill-opacity: 0;"/></g></g></g><rect class="scrollbar" rx="20" ry="3" width="0" height="0" x="0" y="0" style="fill: rgb(128, 139, 164); fill-opacity: 1;"/></g><g class="g-gtitle"><text class="gtitle" x="298.5" y="50" text-anchor="middle" dy="0em" style="font-family: 'Open Sans', verdana, arial, sans-serif; font-size: 17px; fill: rgb(42, 63, 95); opacity: 1; font-weight: normal; white-space: pre;"><tspan class="line" dy="0em" x="298.5" y="50">Scenario 5</tspan><tspan class="line" dy="1.3em" x="298.5" y="50">Microgrid Output</tspan><tspan class="line" dy="2.6em" x="298.5" y="50">From: February 01, 2023 to February 28, 2023</tspan></text></g><g class="g-xtitle"><text class="xtitle" x="298.5" y="476.409375" text-anchor="middle" style="font-family: 'Open Sans', verdana, arial, sans-serif; font-size: 14px; fill: rgb(42, 63, 95); opacity: 1; font-weight: normal; white-space: pre;">Time</text></g><g class="g-ytitle"><text class="ytitle" transform="rotate(-90,33.840625,260)" x="33.840625" y="260" text-anchor="middle" style="font-family: 'Open Sans', verdana, arial, sans-serif; font-size: 14px; fill: rgb(42, 63, 95); opacity: 1; font-weight: normal; white-space: pre;">Demand (kW)</text></g></g></svg>