<svg class="main-svg" xmlns="http://www.w3.org/2000/svg" xmlns:xlink="http://www.w3.org/1999/xlink" width="700" height="500" style="" viewBox="0 0 700 500"><rect x="0" y="0" width="700" height="500" style="fill: rgb(255, 255, 255); fill-opacity: 1;"/><defs id="defs-6285f8"><g class="clips"><clipPath id="clip6285f8xyplot" class="plotclip"><rect width="432" height="320"/></clipPath><clipPath class="axesclip" id="clip6285f8x"><rect x="80" y="0" width="432" height="500"/></clipPath><clipPath class="axesclip" id="clip6285f8y"><rect x="0" y="100" width="700" height="320"/></clipPath><clipPath class="axesclip" id="clip6285f8xy"><rect x="80" y="100" width="432" height="320"/></clipPath></g><g class="gradients"/><g class="patterns"/></defs><g class="bglayer"/><g class="layer-below"><g class="imagelayer"/><g class="shapelayer"/></g><g class="cartesianlayer"><g class="subplot xy"><g class="layer-subplot"><g class="shapelayer"/><g class="imagelayer"/></g><g class="gridlayer"><g class="x"><path class="xgrid crisp" transform="translate(141.74,0)" d="M0,100v320" style="stroke: rgb(255, 255, 255); stroke-opacity: 1; stroke-width: 1px;"/><path class="xgrid crisp" transform="translate(249.78,0)" d="M0,100v320" style="stroke: rgb(255, 255, 255); stroke-opacity: 1; stroke-width: 1px;"/><path class="xgrid crisp" transform="translate(357.82,0)" d="M0,100v320" style="stroke: rgb(255, 255, 255); stroke-opacity: 1; stroke-width: 1px;"/><path class="xgrid crisp" transform="translate(465.86,0)" d="M0,100v320" style="stroke: rgb(255, 255, 255); stroke-opacity: 1; stroke-width: 1px;"/></g><g class="y"><path class="ygrid crisp" transform="translate(0,384.93)" d="M80,0h432" style="stroke: rgb(255, 255, 255); stroke-opacity: 1; stroke-width: 1px;"/><path class="ygrid crisp" transform="translate(0,345.28)" d="M80,0h432" style="stroke: rgb(255, 255, 255); stroke-opacity: 1; stroke-width: 1px;"/><path class="ygrid crisp" transform="translate(0,265.97)" d="M80,0h432" style="stroke: rgb(255, 255, 255); stroke-opacity: 1; stroke-width: 1px;"/><path class="ygrid crisp" transform="translate(0,226.31)" d="M80,0h432" style="stroke: rgb(255, 255, 255); stroke-opacity: 1; stroke-width: 1px;"/><path class="ygrid crisp" transform="translate(0,186.66)" d="M80,0h432" style="stroke: rgb(255, 255, 255); stroke-opacity: 1; stroke-width: 1px;"/><path class="ygrid crisp" transform="translate(0,147)" d="M80,0h432" style="stroke: rgb(255, 255, 255); stroke-opacity: 1; stroke-width: 1px;"/><path class="ygrid crisp" transform="translate(0,107.35)" d="M80,0h432" style="stroke: rgb(255, 255, 255); stroke-opacity: 1; stroke-width: 1px;"/></g></g><g class="zerolinelayer"><path class="yzl zl crisp" transform="translate(0,305.62)" d="M80,0h432" style="stroke: rgb(255, 255, 255); stroke-opacity: 1; stroke-width: 2px;"/></g><path class="xlines-below"/><path class="ylines-below"/><g class="overlines-below"/><g class="xaxislayer-below"/><g class="yaxislayer-below"/><g class="overaxes-below"/><g class="plot" transform="translate(80,100)" clip-path="url(#clip6285f8xyplot)"><g class="scatterlayer mlayer"><g class="trace scatter trace2e73d5" style="stroke-miterlimit: 2; opacity: 0.5;"><g class="fills"/><g class="errorbars"/><g class="lines"><path class="js-line" d="M0,205.62L2.41,205.62L2.57,211.44L3.22,205.62L3.38,211.27L4.02,212.9L4.34,205.62L4.5,207.75L4.66,216.33L5.14,206.12L5.31,205.62L6.91,145.19L7.07,152.81L7.23,195.63L8.04,205.62L8.2,205.62L10.61,205.62L10.77,211.5L11.25,220L11.41,216.18L11.58,209.93L11.74,223.6L12.22,209.54L12.38,214.97L12.54,211.84L12.86,220.51L13.02,208.82L13.18,216.73L13.67,206.89L13.83,209.52L13.99,206.95L14.15,209.69L14.31,219.32L14.47,211.54L15.11,212.97L15.27,218.81L16.24,205.62L16.4,205.62L19.78,205.62L19.94,207.02L20.58,205.3L20.74,197.81L21.87,157.52L22.03,174.21L22.19,147.95L22.51,180.51L22.67,200.85L23.47,205.62L23.63,205.62L26.05,205.62L26.21,206.41L26.37,206.73L26.53,230.48L27.01,210.53L27.33,211.98L27.49,224L28.3,205.62L28.46,205.62L34.89,205.62L35.05,210.82L35.21,209.91L35.37,217.65L36.17,186.18L36.5,188.77L36.66,195.71L37.14,205.62L37.3,183.15L37.78,200.91L37.94,156.39L38.1,155.88L38.26,196.26L39.07,205.62L39.23,205.62L41.32,205.62L41.48,209.06L41.64,210.27L41.8,206.66L41.96,208.42L42.12,206.32L42.44,205.91L42.77,207.45L42.93,212.59L43.25,206.48L43.41,207.46L43.57,217.28L43.73,208.82L44.21,220.01L44.37,211.01L44.53,219.03L44.86,219.21L45.34,206.32L45.5,208.42L46.14,209.49L46.46,205.62L46.62,205.62L49.36,205.62L49.52,210.46L49.84,205.67L50,213.27L50.16,207.53L50.32,210.29L51.61,190.07L51.77,172.39L51.93,193.21L52.09,169.28L52.25,180.35L52.41,156.5L53.54,205.62L53.7,205.62L56.91,205.62L57.07,209.19L57.24,207.06L57.4,213.01L57.56,208.3L57.72,221.51L58.52,208.67L58.68,212.46L59,212.99L59.49,207.72L59.65,212.78L60.61,205.62L60.77,205.62L67.2,205.51L67.36,195.2L67.53,203.02L67.85,199.8L68.01,175.67L68.33,159.08L68.97,205.62L69.13,205.62L72.51,205.62L72.67,207.64L72.83,211.77L73.15,205.62L73.31,205.62L73.47,205.62L74.12,205.62L74.28,206.74L75.08,211.17L75.24,207.42L75.72,221.03L76.05,220.73L76.21,211.12L76.37,221.26L76.53,210.19L76.85,210.87L77.01,209.33L77.98,205.62L78.14,205.62L81.51,205.62L81.67,206.78L81.83,205.91L81.99,215.19L83.44,146.03L83.6,192.95L84.41,205.62L84.57,205.62L87.94,205.62L88.1,217.36L88.26,215.42L88.43,219.28L88.59,227.22L89.55,207.57L89.71,214.79L90.52,207.11L90.68,210.75L91.16,206.98L91.48,207.7L91.64,209.25L91.8,207.44L92.45,207.68L92.61,208.24L92.93,208.53L93.09,206.2L93.89,205.62L94.05,205.62L96.95,205.62L97.11,217.9L98.88,157.64L99.04,153.96L99.36,152.64L99.52,194.47L99.68,205.62L103.38,205.62L103.54,206.82L104.5,219.75L104.66,213.76L104.82,218.99L105.15,210.97L105.31,206.65L106.11,205.62L106.27,205.62L106.59,209.01L106.75,206.61L106.91,208.71L107.24,205.62L107.4,205.62L107.56,205.62L112.38,205.62L112.54,208.3L113.02,215.59L113.18,208L113.35,205.62L113.51,205.62L113.67,194.48L113.83,194.94L113.99,174.56L114.31,165.25L114.95,205.62L115.11,205.62L118.49,205.62L118.65,210.71L119.13,230.32L119.46,224.37L119.62,210.72L119.94,209.02L120.1,220.95L120.26,209.46L120.42,207.71L120.74,206.89L120.9,212.47L121.71,207.12L121.87,220.5L122.19,220.77L122.67,210.26L122.83,220.29L123.64,209.14L123.8,209.29L123.96,206.54L124.12,209.72L124.6,207.07L124.76,209.97L124.92,207.57L125.08,208.99L125.24,218.23L126.05,205.62L126.21,205.62L126.37,205.62L126.53,210.75L127.17,205.62L127.33,233.22L127.98,233.99L128.14,207.93L128.3,205.46L128.46,205.88L128.62,202.76L128.78,204.91L128.94,195.25L129.26,195.74L130.39,154.44L130.55,157.9L131.03,129.48L131.35,136.99L131.51,191.96L132.32,205.62L132.48,205.62L134.09,206.35L134.25,216.97L134.41,219.58L134.57,218.31L134.73,234.53L135.53,210.53L135.69,223.1L136.66,205.62L136.82,205.62L144.05,205.62L144.21,197.51L145.18,166.24L145.34,170.45L146.14,205.62L146.3,205.62L149.84,205.62L150,207.27L150.16,207.39L150.32,205.96L150.65,205.62L150.81,214.16L151.13,219.55L151.29,213.91L152.09,208.47L152.25,212.62L153.06,205.62L153.22,211.46L153.7,207.07L154.02,207.53L154.18,210.99L154.99,205.62L155.15,205.62L156.11,205.62L156.27,210.73L156.59,211.21L157.24,205.62L157.4,205.62L157.88,205.62L158.04,211.23L158.2,207.02L158.36,222.73L159.17,208.84L159.33,206.36L159.49,199.84L159.65,204.18L159.81,162.1L159.97,181.73L160.13,157.89L160.29,170.72L160.45,144.94L161.58,205.62L161.74,205.62L164.31,205.62L164.47,211.78L164.95,205.62L165.28,206.86L165.44,210.74L165.6,208.68L165.76,211.59L166.24,209.49L166.4,210.31L166.72,210.64L167.21,209.84L167.37,206.44L168.17,205.62L168.33,205.62L172.03,205.62L172.19,211.43L173.15,205.62L173.31,205.62L173.96,205.62L174.12,209.09L175.24,189.14L175.4,171.71L176.37,205.62L176.53,205.62L180.55,205.62L180.71,208.34L180.87,218.16L181.35,207.61L181.51,205.62L183.12,205.62L183.28,212.55L183.76,207.15L183.93,222.88L184.73,208.19L184.89,221.78L185.69,208.85L185.85,209.78L186.18,210.81L186.34,208.95L186.5,206.17L187.3,205.62L187.46,205.62L190.2,205.62L190.36,202.78L191.64,154.92L191.8,195.73L192.61,205.62L192.77,205.62L196.47,205.62L196.63,206.64L197.59,205.62L197.75,205.62L197.91,205.62L198.07,212.06L198.23,208.96L198.4,223.62L199.2,210.7L199.36,222.73L200.16,201.72L200.32,215.64L201.29,205.62L201.45,205.62L204.67,205.62L204.83,212.86L205.15,224.36L205.79,205.62L205.95,205.62L206.43,224.45L206.59,209.98L206.76,205.62L207.88,136.52L208.04,170.94L208.2,155.33L208.36,194.21L208.52,205.62L209.49,205.62L209.65,252.69L209.81,160.89L210.29,266.5L210.45,221.69L210.61,264.67L210.77,222.13L210.94,274.29L211.42,222.59L211.58,227.93L212.06,210.45L212.38,218.98L212.54,216.02L213.03,215.91L213.19,230.2L213.35,219.39L213.51,225.39L213.67,203.93L214.31,208.02L214.47,205.62L220.9,205.62L221.06,196.95L221.55,175.76L221.71,199.77L222.19,204.12L222.35,106.59L222.51,173.1L222.67,121.39L222.99,211.06L223.15,99.31L223.64,205.62L223.8,205.62L225.73,205.62L225.89,138.35L226.85,205.62L227.01,205.62L227.82,225.05L227.98,211.82L228.14,221.74L228.62,209.47L228.78,212.8L229.1,213.32L229.59,205.62L229.75,205.62L236.34,205.62L236.5,203.23L236.82,205.62L236.98,200.45L237.14,181.21L237.3,180.59L237.46,182.08L237.62,166.46L238.43,149.03L238.59,157.96L238.75,196.62L239.55,205.62L239.71,205.62L242.13,205.62L242.29,210.29L242.77,217.57L242.93,198.18L243.09,230.44L243.73,217.13L243.89,208.5L244.06,208.39L244.22,206.48L244.38,205.5L245.02,205.62L245.18,205.62L249.2,205.62L249.36,211.75L250.33,205.62L250.49,205.62L250.81,205.62L250.97,211.81L251.29,221.14L251.45,208.82L251.61,205.62L251.77,205.62L251.93,200.68L252.09,204.39L252.25,198.01L252.42,192.05L252.9,175.05L253.06,176.04L253.22,210.92L253.38,126.38L253.86,205.62L254.02,205.62L254.18,205.62L254.34,216.09L255.31,205.62L255.47,205.62L257.56,205.62L257.72,211.52L258.69,231.31L258.85,212.2L259.33,228.4L259.49,211.23L259.65,208.07L259.97,208.19L260.61,205.62L260.78,205.62L263.03,205.62L263.19,211.03L264.15,205.62L264.31,205.62L265.28,205.62L265.44,211.7L266.4,205.62L266.56,211.23L267.05,204.84L267.37,205.62L267.53,205.62L269.3,205.62L269.46,136.7L270.1,136.55L271.07,205.62L271.23,205.62L275.89,205.62L276.05,211.92L276.85,201.01L277.01,215.52L277.17,197.04L277.82,205.62L277.98,205.62L283.28,205.62L283.44,216.09L284.41,205.62L284.57,205.62L286.98,205.62L287.14,216.09L287.95,208.24L288.11,205.62L302.09,205.62L302.26,216.09L303.22,205.62L303.38,205.62L328.62,205.62L328.78,216.09L329.59,205.62L329.75,205.62L346.95,205.62L347.11,216.09L347.92,205.62L348.08,205.62L378.78,205.62L378.94,216.09L379.27,227.51L379.75,208.24L379.91,216.09L380.87,205.62L381.03,205.62L394.22,205.62L394.38,216.09L395.34,205.62L395.5,205.62L407.56,205.62L407.72,216.09L408.53,205.62L408.69,205.62L408.85,216.09L409.33,205.62L409.49,205.62L422.51,205.62L422.68,189.24L422.84,180.24L423,188.04L423.16,129.33L423.32,203.89L423.8,188L423.96,147.08L424.28,205.62L424.6,177.55L424.77,133.68L425.57,244.64L425.73,215.63L426.21,257.58L426.53,250.87L426.69,216.15L426.86,239.96L427.34,209.81L427.5,206.25L427.66,205.62L427.82,230.91L428.62,210.96L428.78,226.04L429.59,207.3L429.75,212.38L430.07,212.44L430.23,207.3L430.55,208.05L430.71,210.23L431.04,211.04L431.52,206.86L431.68,210.82L431.84,207.09L432,209.87" style="vector-effect: non-scaling-stroke; fill: none; stroke: rgb(0, 191, 255); stroke-opacity: 1; stroke-width: 2px; opacity: 1;"/></g><g class="points"/><g class="text"/></g><g class="trace scatter traced7831f" style="stroke-miterlimit: 2; opacity: 0.5;"><g class="fills"/><g class="errorbars"/><g class="lines"><path class="js-line" d="M0,205.87L4.34,205.28L4.5,202.35L4.98,187.43L5.14,166.66L7.23,17.89L7.4,16.18L8.68,16.77L8.84,21.29L10.13,121.01L10.29,137.98L11.58,205.89L11.74,205.88L19.78,205.44L19.94,201.29L20.42,179.89L20.58,163.89L22.35,34.1L22.51,39.15L22.67,38.9L22.83,57.21L23.15,23.52L23.31,16.61L24.12,57.91L24.28,78.13L24.6,55.75L24.76,88.26L24.92,93.17L25.08,89.63L25.24,133.44L25.4,123.16L25.72,142.83L25.88,153.51L26.85,205.89L27.01,205.88L35.21,205.42L35.37,200.92L36.01,157.44L36.17,131.99L36.66,123.07L36.82,136.1L36.98,140.51L37.14,126.69L37.3,104.25L37.46,101.09L37.62,115.12L37.78,127.2L37.94,71.74L38.59,16.66L38.75,27.73L38.91,25.34L39.07,70.73L39.39,21.96L39.55,63.24L39.71,36.26L40.03,36.23L41.8,203.64L41.96,205.68L43.09,205.87L43.25,205.87L50.48,205.74L50.64,204.79L51.29,180.44L51.45,163.24L53.54,28.69L53.7,21.07L54.02,16.39L54.5,16.74L54.66,18.34L55.47,46.17L55.63,57.96L57.72,205.88L57.88,205.88L66.08,205.25L66.24,203.57L66.56,194.69L66.72,178.13L66.88,185.37L67.2,169.15L67.36,154.03L67.53,164.49L67.85,152.69L68.01,140.61L68.33,117.43L68.49,97.24L68.65,115.25L68.81,38.9L69.13,95.87L69.45,52.41L69.62,49.92L69.78,131.01L70.42,75.37L70.58,22.08L70.9,86.47L71.38,52.83L71.54,74.41L73.31,205.89L73.47,205.87L81.51,205.14L81.67,201.56L81.99,197.26L82.16,180L84.41,16.24L84.57,16.22L85.85,16.29L86.01,17.5L87.14,97.13L87.3,113.94L88.75,205.88L88.91,205.87L89.07,205.87L96.95,205.3L97.11,201.41L97.43,196.15L97.59,178.8L99.84,18.68L100,16.61L100.97,16.37L101.13,16.4L101.45,16.8L101.61,24.13L102.9,131.08L103.06,148.08L104.18,205.89L104.34,205.88L104.5,205.87L112.22,205.56L112.38,202.34L113.02,184.44L113.18,161.1L115.44,16.69L115.6,16.42L116.56,16.61L116.72,20.61L117.69,72.39L117.85,85.78L119.78,205.88L119.94,205.87L127.65,205.66L127.82,205.04L128.46,177.41L128.62,161.14L130.71,20.54L130.87,16.8L131.67,16.54L131.83,16.58L132,16.56L132.16,18.6L132.96,55.1L133.12,68.27L135.21,205.89L135.37,205.87L143.09,205.62L143.25,204.71L143.89,175.26L144.05,158.25L145.98,20L146.14,17.1L146.47,17.45L146.63,16.56L146.79,18.96L147.11,16.37L147.59,51.92L147.75,20.55L147.91,18.61L148.07,38.35L148.23,38L148.39,62.44L148.88,99.33L149.04,117.96L149.52,174.5L149.68,190.61L150.48,205.89L150.65,205.88L150.81,205.87L158.68,205.38L158.84,203.79L159.33,174.4L159.49,161.46L159.65,204.86L159.97,110.25L160.13,95.3L161.1,34.17L161.26,203.84L161.74,16.28L162.06,18.77L162.22,16.26L162.54,38.23L162.7,127.09L163.02,16L163.35,144.81L163.51,40.55L163.67,61.4L163.83,20.79L163.99,166.67L164.15,169.58L165.6,205.81L165.76,205.88L173.96,205.61L174.12,204.31L175.24,150.14L175.4,128.04L175.57,135.74L175.89,130.01L176.05,26.75L177.01,126.45L177.17,142.08L177.82,16.08L178.14,16.36L178.3,16.11L178.94,34.95L179.1,77.05L179.26,69.16L179.42,125.96L179.75,205.28L180.23,163.28L180.39,167.34L181.19,205.89L181.67,205.87L181.84,205.87L189.23,205.87L189.39,205.55L189.55,205.03L189.71,199.17L190.52,162.88L190.68,128.5L192.29,16.52L192.45,29.23L192.61,103.31L193.09,16.07L193.25,16.34L193.41,38.47L193.89,34.18L194.05,16.64L194.38,137.7L194.86,64.91L195.02,88.28L196.79,205.88L196.95,205.87L197.11,205.87L205.15,205.14L205.31,196.5L206.11,163.43L206.27,175.46L206.43,182.77L207.88,16.19L208.04,34.58L208.2,57.32L208.36,40.62L208.52,78.26L208.68,72.6L208.85,81.17L209.33,16.09L209.49,17.65L209.65,204.69L209.81,88.46L210.29,182.03L210.45,189.44L211.74,205.79L211.9,205.82L215.12,205.87L215.28,205.62L216.24,205.87L216.4,205.87L220.26,205.59L220.42,201.68L220.9,182.96L221.06,167.62L221.55,116.52L221.71,204.66L222.67,17.35L222.83,17.89L223.15,16.56L223.64,205.62L223.8,205.62L225.57,205.62L225.73,204.59L225.89,64.52L226.53,133.87L226.69,151.58L227.66,205.88L227.82,205.87L227.98,205.87L235.69,205.45L235.86,202.12L236.34,182.11L236.5,166.03L238.43,17.27L238.59,21.01L239.23,16.57L239.55,16.69L239.71,24.77L239.87,41.78L240.36,17.9L240.52,33.93L240.68,45.73L241,70.51L241.16,205.01L241.64,114.37L241.97,154.67L242.13,163.67L243.09,205.87L243.25,205.86L251.13,205.54L251.29,200.06L253.06,80.61L253.22,204.69L254.02,31.53L254.18,79.91L254.67,17.05L254.99,205.62L255.15,205.62L256.92,204.98L257.08,101.72L258.52,205.88L258.69,205.87L258.85,205.86L266.4,205.83L266.56,205.54L266.89,197L267.05,205.62L267.21,205.62L267.37,205.62L269.14,205.62L269.3,204.82L269.62,32.01L270.1,35.17L270.26,38.81L270.42,23.61L270.58,57.85L270.74,101.19L270.9,104.59L271.07,63.39L271.55,123.33L271.71,204.65L271.87,34.81L272.51,105.57L272.67,123.96L274.12,205.62L274.28,205.62L422.19,205.6L422.35,146.51L422.51,170.34L422.68,104.85L422.84,67.52L423,74.28L423.16,16.07L424.28,152.33L424.44,158.13L424.77,33.66L424.93,118.8L425.09,174.22L425.25,165.66L425.41,84.64L426.37,189.55L426.53,179.54L426.69,175.05L426.86,178.25L427.02,192.61L427.5,176.37L427.66,190.34L427.82,203.73L428.62,205.87L428.78,205.87L432,205.88" style="vector-effect: non-scaling-stroke; fill: none; stroke: rgb(255, 0, 0); stroke-opacity: 1; stroke-width: 2px; opacity: 1;"/></g><g class="points"/><g class="text"/></g><g class="trace scatter tracecbb5f7" style="stroke-miterlimit: 2; opacity: 0.5;"><g class="fills"/><g class="errorbars"/><g class="lines"><path class="js-line" d="M0,231.54L0.32,227.69L0.8,228.67L0.96,227.57L1.77,229.85L2.09,229.25L2.25,228.27L2.41,240.22L2.89,225.2L3.05,227.02L3.54,240.71L3.86,240.49L4.02,226.57L4.82,245.72L4.98,236.91L6.11,179.56L6.27,182.28L8.2,45.83L8.36,45.03L9.65,104.48L9.81,115.4L11.58,254.8L11.74,242.14L11.9,241.8L12.06,238.77L12.54,245.08L12.7,241.66L12.86,235.53L13.34,246.28L13.67,239.4L13.83,236.34L14.47,248.75L14.63,241.23L14.79,248.67L15.27,242.7L15.43,237.12L15.6,239.57L15.76,228.75L16.08,229.52L16.24,227.78L16.56,228.37L16.72,229.71L17.36,227.83L17.85,228.12L18.01,228.78L18.65,229.92L18.81,228.71L18.97,228.86L19.13,227.61L19.29,227.56L19.45,228.33L19.61,228.48L19.78,233.73L20.1,235.83L20.26,231.5L20.42,216L21.7,167.99L21.87,173.11L22.03,149.22L22.51,176.64L22.67,149.41L22.83,146.1L23.47,87.28L23.79,102.24L23.96,136.02L24.28,160.61L24.44,133.66L24.6,121.38L25.24,170.84L25.56,167.85L25.72,175.95L26.69,260.22L27.01,254.92L27.17,240.33L27.33,255.44L27.49,229.97L27.65,248.42L27.81,228.09L27.97,227.85L28.14,230.34L28.78,230.78L28.94,229.79L29.1,228.03L29.74,228.5L29.9,229.19L30.23,229.37L30.71,228.04L30.87,229.39L31.35,230.95L31.51,229.2L31.67,228.92L31.83,228.23L32.32,228.61L32.48,228.77L33.12,227.48L33.28,228.83L33.44,228.63L33.6,227.21L33.92,229.91L34.41,228.53L34.57,227.43L34.73,227.13L34.89,241.78L36.33,184.19L36.5,200.83L36.66,213.34L36.98,226.59L37.14,202.8L37.3,188.64L37.78,205.03L38.59,64.22L38.91,65.77L39.07,124.99L39.23,121.03L39.39,97.35L40.19,155.16L40.35,145.65L40.52,145.64L40.68,156.18L41.64,239.69L42.12,236.14L42.28,235.65L42.93,238.6L43.09,242.64L43.25,235.46L43.41,247.24L43.89,239.27L44.05,249.86L44.86,228.44L45.02,236.64L45.18,236.01L45.98,238.28L46.14,236.31L46.3,237.36L46.46,227.41L46.95,229.99L47.27,228.11L47.43,228.75L48.07,226.9L48.23,227.67L48.39,228.26L49.04,227.03L49.2,229.54L49.68,228.85L49.84,240.85L50,237.26L50.16,241.45L52.57,154.5L52.73,114.19L53.54,69.7L53.7,70.34L53.86,81.58L54.02,83.25L54.18,96.62L54.34,100.4L54.5,89.21L54.66,97.05L54.82,89.84L54.98,98.25L55.15,76.78L55.31,71.47L57.56,242.97L57.72,240.13L57.88,250.97L58.04,237.65L58.36,238.14L58.52,242.66L59.33,237.96L59.49,242.01L59.65,226.16L60.29,227.59L60.45,227.66L61.25,228.35L61.42,228L61.58,227.65L61.9,227.26L62.06,227.89L62.22,230.57L62.54,229.93L62.7,228.9L63.18,227.62L63.34,228.04L63.51,229.36L64.31,226.95L64.47,228.7L65.11,227.17L65.27,228.52L65.44,228.45L65.6,227.11L65.92,228.8L66.24,227.3L66.4,236.86L67.36,203.16L67.53,206.53L67.69,203.35L67.85,184.32L68.01,194.68L68.17,174.5L68.33,186.88L68.49,143.87L68.65,165.26L68.81,91.62L69.13,149.23L69.29,119.65L69.62,77.32L69.78,158.04L69.94,103.79L70.1,123.63L70.58,61.77L70.74,113.43L70.9,125.61L71.06,136.47L71.22,87.83L71.38,92.05L71.54,127.81L72.67,235.96L73.15,231.38L73.31,231.05L73.47,230.82L73.63,232.7L74.12,230.49L74.28,235.73L74.6,240.81L75.08,237.69L75.24,252.17L76.05,239.23L76.21,250.89L77.01,237.84L77.17,238.81L78.14,227.9L78.3,228.93L78.46,229.81L78.78,228.09L78.94,228.88L79.1,228.71L79.42,227.98L79.58,230.87L79.9,229.4L80.07,227.09L80.39,228.7L80.55,228.46L80.71,227.18L81.35,227.98L81.51,233.05L81.83,247.11L81.99,237.56L82.16,229.06L83.28,156.65L83.44,157.21L84.57,67.86L84.73,54.82L85.37,42.8L85.53,46.25L85.69,47.63L88.43,256.64L88.91,249.23L89.07,234.18L89.23,243.69L89.55,243.1L89.71,226.37L90.19,241.12L90.52,240.54L90.68,236.85L90.84,240.66L91.32,236.64L91.48,238.65L91.64,237.53L91.8,238.9L91.96,237.13L92.28,237.19L92.45,237.77L92.61,237.49L92.77,238.2L92.93,238.19L93.09,228.15L93.41,230.68L93.89,229.61L94.05,229.43L94.21,227.76L94.7,228.27L94.86,229.68L95.34,227.43L95.66,228.73L95.82,228.74L96.14,229.94L96.3,229.51L96.46,227.83L96.79,228.85L96.95,241.8L97.11,238.42L97.27,246.7L97.43,260.12L98.72,165.77L98.88,164.17L99.04,166.4L99.2,155.61L99.36,160.93L99.52,120.66L100.48,69.62L100.64,72.56L100.81,70.77L101.13,71.83L101.29,74.35L101.45,74.03L101.61,75.17L101.77,86.9L102.73,167.01L102.9,182.61L104.02,249.21L104.18,245.33L104.34,247.33L104.66,248.97L104.82,243.44L104.99,248.59L105.15,229.91L105.79,230.74L105.95,230.44L106.27,228.43L106.43,235.55L106.75,238.66L106.91,236.18L107.08,227.97L107.88,228.31L108.04,228.82L108.36,229.79L108.52,228.63L108.68,228.01L108.84,228.99L109.33,227.82L109.49,228L109.65,227.29L110.13,228.41L110.29,228.49L110.77,227.2L110.93,227.33L111.09,228.98L111.26,228.76L111.42,229.56L111.58,227.97L112.22,226.83L112.38,235.07L112.7,239.7L112.86,253.81L113.02,250.76L113.18,232.13L114.15,174.68L114.47,175.65L114.63,187.54L115.92,62.78L116.08,69.32L116.24,72.15L117.37,113.89L117.53,125.36L119.29,259.69L119.46,239.21L119.62,251.54L120.1,239.17L120.26,236.9L120.42,235.91L120.58,237.75L120.74,236.91L120.9,237.97L121.22,236.9L121.71,250.83L121.87,239.57L122.35,250.47L122.67,250.03L122.83,240L122.99,250.08L123.31,249.8L123.47,228.91L124.28,239.57L124.44,236.67L125.08,248.46L125.24,230.05L125.4,236.95L125.73,228.02L125.89,228.43L126.05,228.62L126.21,227.16L126.37,238.61L126.53,225.22L127.01,227.55L127.17,262.26L127.49,262.82L127.98,208.27L128.14,232.75L128.3,230.65L129.26,190.26L129.42,193.56L130.23,158.5L130.39,163.98L131.67,74.04L132.16,90.9L132.32,102.47L132.48,100.95L132.64,108.97L133.76,198.48L133.92,217.43L134.89,262.51L135.05,243.97L135.21,252.03L135.69,239.75L135.85,241.79L136.98,229.99L137.14,229.21L137.94,228.42L138.1,228.75L138.59,227.98L138.75,228.72L138.91,228.74L139.55,227.91L139.71,228.44L140.2,230.01L140.36,228.62L140.52,227.53L140.84,228.76L141,227.95L141.16,228.85L141.32,229.05L141.48,228.36L141.64,228.15L141.96,226.97L142.12,229.02L142.29,229.03L142.45,227.61L142.61,227.16L142.93,227.67L143.09,228.91L143.25,228.19L143.41,235.31L143.57,235.13L143.73,226.97L145.34,163.78L145.5,108.95L145.66,104.19L145.82,112.2L146.14,107.03L146.3,108.56L146.47,106.73L146.63,78.55L146.79,62.27L146.95,99.92L147.11,99.26L147.27,105.29L147.59,145.68L147.75,122.08L147.91,127.67L148.23,102.05L148.39,129.73L149.36,184.91L149.52,214.72L150.65,245.07L150.81,237.59L151.29,248.62L151.45,241.26L151.61,239.17L152.09,242.69L152.25,226.7L152.57,228.72L152.9,228.54L153.06,239.58L153.38,241.24L153.86,236.79L154.02,241.15L154.5,225.37L154.99,228.17L155.15,228.2L155.79,228.79L155.95,228.21L156.11,239.32L156.43,240.57L156.59,225.7L157.08,228.37L157.24,228.02L157.4,228.52L157.72,227.7L157.88,239.02L158.04,236.77L158.2,252.38L158.36,239.65L158.52,252.57L159.01,247.5L159.17,237.06L160.29,155.07L160.45,168.04L160.93,77.64L161.1,84.12L161.26,232.65L161.42,86.66L162.06,89.62L162.22,83.93L162.38,95.48L162.54,93.96L162.7,182.96L163.02,60.16L163.35,206.39L163.51,94.45L163.67,114.86L163.83,35.31L164.15,208.7L164.31,226.2L164.47,225.49L164.63,228.16L164.79,226.23L164.95,231.2L165.92,241.69L166.08,239.74L166.4,239.19L166.88,240.34L167.04,239.51L167.21,228.6L167.85,229.68L168.01,228.15L168.33,227.68L168.65,228.37L168.81,227.98L168.97,227.65L169.78,229.01L169.94,227.97L170.1,228.19L170.42,227.84L170.74,228.57L170.9,229.01L171.06,229.93L171.22,228.64L171.39,227.41L171.71,227.08L171.87,228.05L172.03,241L172.19,225.39L172.51,227.04L172.67,227.5L172.83,229.1L173.31,227.31L173.48,227.7L173.64,228.56L173.8,227.42L173.96,237.84L174.44,230.67L174.6,207.21L175.4,184.55L175.57,196.43L175.73,197.07L175.89,192.15L176.05,81.2L176.37,160.82L176.85,108.82L177.01,165.99L177.17,181.66L177.33,155.24L177.49,44.89L178.3,41.32L178.46,56.88L178.94,74.4L179.1,130.66L179.26,123.23L179.42,180.04L180.07,234.07L180.39,222.96L180.55,227.15L181.03,241.57L181.35,231.13L181.51,230.11L181.84,231.1L182.16,230.69L182.32,230.09L182.8,231.21L182.96,230.26L183.12,241.84L183.28,237.1L183.44,242.45L183.6,237.57L183.76,252.55L184.57,238.02L184.73,252.12L185.53,238.82L185.69,239.64L185.85,238.56L186.18,239.34L186.34,228.96L186.5,228.1L187.14,228.46L187.3,229.46L188.11,227.53L188.27,228.64L188.91,227.8L189.07,227.9L189.23,228.7L189.39,227.65L189.55,233.64L189.71,235.34L189.87,229.77L190.03,210.79L190.2,221.59L190.52,200.44L190.68,190.95L191.64,162.67L191.8,132.9L192.29,93.66L192.45,117.85L192.61,180.78L193.25,68.87L193.41,93.76L193.57,87.9L193.73,94.92L193.89,48.86L194.38,205.2L194.7,174.75L194.86,148.93L196.63,235.6L196.95,234.04L197.11,234.09L197.75,233.44L197.91,234.05L198.07,236.99L198.23,253.65L198.88,252.74L199.04,240.51L199.36,240.48L199.52,252.54L199.68,240.66L199.84,240.67L200,237.1L200.16,209.83L200.49,240.39L200.97,230.5L201.13,231.18L201.61,232L201.77,231.47L201.93,205.84L202.09,231.8L202.74,231L202.9,217.29L203.06,219.9L203.22,208.48L204.02,205.62L204.18,205.62L204.5,205.62L204.67,217.24L204.99,254.12L205.47,227.11L205.63,215.91L205.79,214.93L205.95,232.12L206.27,252.95L206.43,245.17L206.59,240.04L207.08,172.63L207.4,185.57L207.56,203.87L208.36,120.73L208.52,133.63L209.17,62.4L209.49,90.78L209.65,257.65L209.97,196.44L210.13,283.25L210.29,237.85L210.77,294.94L210.94,254.17L211.1,304L211.9,228.77L212.06,240.37L213.03,259.6L213.19,248.6L213.35,260.03L213.51,236.22L213.67,222.04L213.99,243.37L214.47,230.94L214.63,229.52L215.12,231.22L215.28,205.81L215.92,231.51L216.08,230.24L216.24,229.51L216.72,231.87L216.88,205.81L217.37,232.06L217.69,230.18L217.85,229.99L218.17,231.06L218.33,205.62L218.65,205.62L218.81,217.04L219.14,219.9L219.3,208.48L220.1,205.62L220.26,205.77L220.58,225.43L220.9,209.37L221.06,203.33L221.55,176.33L221.71,210.83L222.51,127.43L222.67,177.28L222.99,216.28L223.32,94.73L223.48,205.62L223.64,205.62L223.8,217.04L224.44,234.17L224.6,222.75L225.24,208.48L225.41,217.04L225.57,219.9L225.73,219.18L225.89,188.9L226.05,151.37L226.53,202.48L226.69,198.66L227.66,255.61L227.98,254.04L228.14,240.92L228.3,251.57L228.78,237.16L228.94,242.57L229.42,206.08L229.75,234.37L229.91,234.65L230.39,234.91L230.55,234.55L230.71,234.18L230.87,233.92L231.03,205.78L231.35,229.37L231.84,228.07L232,228.05L232.16,229.23L232.32,227.43L232.48,205.62L235.05,205.79L235.21,229.09L235.37,205.77L235.86,224.96L236.02,235.19L238.59,150.07L238.75,113.74L239.71,71.47L239.87,83.82L240.04,85.14L240.2,75.78L240.36,72L240.52,102.08L241,141.56L241.16,205.47L241.64,114.73L241.8,190.8L241.97,212.63L242.61,246.52L242.77,245.57L242.93,213.41L243.89,243.16L244.06,236.06L244.22,237.96L244.38,205.92L244.54,232L244.86,205.62L245.02,205.62L245.18,205.62L246.47,205.78L246.63,229.66L246.79,229.19L247.11,230.54L247.27,229.42L247.43,229.85L247.59,229.02L247.91,229.26L248.07,231.14L248.24,231.63L248.4,229.86L248.56,228.89L248.72,228.9L248.88,229.95L249.04,230.48L249.2,240.76L249.52,241.6L249.68,225.89L250.16,229.54L250.33,205.77L250.97,248.33L251.29,237.98L251.45,238.45L252.58,178.18L252.74,181.81L252.9,185.08L253.06,176.09L253.22,213.95L253.38,219.05L253.54,153.23L253.86,125.72L254.02,133.25L254.18,174.28L254.34,225.8L254.67,93.36L254.83,119.59L255.15,231.56L255.63,219.9L255.79,219.9L255.95,208.48L256.43,219.9L256.6,219.9L256.92,233.84L257.08,181.35L257.4,212.27L257.56,227.57L258.2,260.67L258.52,260.61L258.69,242.23L258.85,258.12L259.01,241.87L259.33,242.34L259.49,244.75L260.45,231.23L260.61,230.33L260.94,229.71L261.1,231.33L261.26,231.03L261.9,228.81L262.06,230.01L262.22,230.97L262.87,228.71L263.03,231.87L263.35,241L263.67,237.33L263.83,229.11L263.99,228.92L264.15,230.29L264.63,228.55L264.79,205.76L265.28,240.99L265.6,227.49L265.76,229.17L265.92,229.62L266.08,205.76L266.4,240.5L266.89,224.11L267.05,217.83L267.21,220.16L267.37,219.9L267.53,208.48L268.33,205.62L268.49,205.62L269.14,219.9L269.3,219.32L269.46,176.77L270.42,63.64L270.58,109.64L271.71,221.99L271.87,97.97L273.32,213.48L273.48,205.62L274.28,219.9L274.44,219.9L274.6,219.9L274.76,208.48L275.57,205.62L275.73,205.62L275.89,205.83L276.05,236.94L276.21,241.52L276.69,236.7L276.85,210.44L277.01,231.87L277.5,205.62L277.66,205.62L279.91,205.76L280.07,230.73L280.23,230.93L280.39,205.62L280.55,205.62L280.71,217.04L281.52,231.32L281.68,222.75L281.84,219.9L282.8,219.9L282.96,231.32L283.61,245.83L283.77,226.56L284.09,231.32L284.57,219.9L284.73,219.9L285.21,219.9L285.37,208.48L286.18,205.62L286.34,205.62L287.62,245.83L287.79,226.56L288.11,234.17L288.27,222.75L288.43,219.9L289.88,219.9L290.04,208.48L290.84,205.62L291,205.62L297.75,205.62L297.91,217.04L298.72,219.9L298.88,219.9L299.36,234.17L299.52,222.75L299.68,219.9L299.84,219.9L300,208.48L300.17,205.62L300.33,217.04L301.13,219.9L301.29,219.9L301.93,219.9L302.09,242.74L303.06,234.17L303.22,234.17L303.38,234.17L303.54,222.75L304.67,205.62L304.83,205.62L312.38,205.62L312.54,217.04L313.35,219.9L313.51,208.48L313.99,205.62L314.15,217.04L314.96,231.32L315.12,222.75L315.28,219.9L315.6,219.9L315.76,208.48L316.56,205.62L316.72,205.62L317.69,234.17L317.85,222.75L318.65,205.62L318.82,205.62L319.62,219.9L319.78,219.9L320.58,205.62L320.74,205.62L320.91,205.62L321.07,217.04L322.19,234.17L322.35,222.75L323.8,205.62L323.96,205.62L328.14,205.62L328.3,217.04L328.46,219.9L328.62,242.74L329.59,205.62L329.75,205.62L330.39,219.9L330.55,208.48L331.36,205.62L331.52,217.04L332.16,219.9L332.32,208.48L333.12,205.62L333.28,205.62L333.45,205.62L333.61,217.04L334.41,234.17L334.57,222.75L335.37,205.62L335.54,217.04L336.34,234.17L336.5,222.75L337.79,205.62L337.95,205.62L342.29,205.62L342.45,217.04L342.61,219.9L342.77,208.48L343.57,205.62L343.74,205.62L345.02,205.62L345.18,217.04L345.66,219.9L345.83,208.48L346.95,245.59L347.11,226.56L347.27,231.56L347.59,219.9L347.75,219.9L348.08,205.62L348.4,219.9L348.56,219.9L348.72,219.9L348.88,231.32L349.04,234.17L349.2,222.75L350.81,205.62L350.97,205.62L358.04,205.62L358.2,217.04L358.53,234.17L358.85,219.9L359.01,208.48L359.17,205.62L359.33,217.04L359.97,219.9L360.13,208.48L360.94,205.62L361.1,205.62L361.42,205.62L361.58,217.04L362.22,219.9L362.38,208.48L362.71,205.62L362.87,228.46L363.67,234.17L363.83,222.75L364.47,205.62L364.64,228.46L365.44,234.17L365.6,234.17L365.76,234.17L365.92,222.75L366.73,205.62L366.89,205.62L374.12,205.62L374.28,217.04L374.76,219.9L374.93,208.48L375.73,205.62L375.89,205.62L377.66,205.62L377.82,217.04L378.14,219.9L378.3,208.48L378.62,205.62L378.78,239.88L378.94,237.98L379.11,257.25L379.91,215.14L380.07,217.28L380.23,219.9L380.39,219.9L380.55,208.48L381.36,205.62L381.52,217.04L382.32,219.9L382.48,219.9L382.8,219.9L382.96,208.48L383.77,205.62L383.93,205.62L388.59,205.62L388.75,217.04L389.07,219.9L389.23,208.48L390.04,205.62L390.2,217.04L390.68,219.9L390.84,208.48L391.65,205.62L391.81,217.04L392.61,219.9L392.77,219.9L393.25,219.9L393.41,208.48L394.22,245.59L394.38,226.56L394.54,231.56L395.67,205.62L395.83,205.62L396.95,205.62L397.11,217.04L397.92,234.17L398.08,234.17L399.2,205.62L399.36,205.62L401.45,205.62L401.61,217.04L402.42,219.9L402.58,219.9L402.9,219.9L403.06,208.48L403.86,205.62L404.03,205.62L405.31,205.62L405.47,217.04L405.79,231.32L405.95,222.75L406.12,219.9L406.44,219.9L406.6,208.48L406.76,205.62L406.92,217.04L407.4,234.17L407.56,245.59L407.72,226.56L408.37,234.17L408.53,234.17L408.69,245.59L408.85,226.56L409.01,231.56L409.17,222.75L409.97,205.62L410.13,217.04L410.94,234.17L411.1,222.75L411.74,208.48L411.9,217.04L412.06,219.9L412.22,219.9L412.39,231.32L413.03,234.17L413.19,222.75L413.99,219.9L414.15,219.9L415.28,219.9L415.44,208.48L416.24,205.62L416.4,205.62L420.26,205.62L420.42,217.04L420.75,219.9L420.91,208.48L421.71,205.62L421.87,205.62L422.19,205.62L422.35,211.18L422.51,245.84L422.84,183.91L423,181.25L423.16,186.49L423.32,154.88L423.64,215.13L424.12,176.95L424.28,196.38L424.44,203.26L424.6,201.19L424.77,163.54L424.93,174.61L425.09,238.06L425.25,248.47L425.41,217.15L425.57,219.85L426.37,287.78L426.53,247.09L426.69,274.19L427.18,235.97L427.34,242.75L427.5,224.12L427.66,253.12L427.82,241.69L427.98,261.64L428.46,240.49L428.78,240.67L428.95,244.38L429.11,226.45L429.75,237.06L429.91,242.23L430.39,236.77L430.71,237.47L430.87,239.84L431.2,240.68L431.68,236.67L431.84,240.61L432,237.59" style="vector-effect: non-scaling-stroke; fill: none; stroke: rgb(0, 128, 0); stroke-opacity: 1; stroke-width: 2px; opacity: 1;"/></g><g class="points"/><g class="text"/></g></g></g><g class="overplot"/><path class="xlines-above crisp" d="M0,0" style="fill: none;"/><path class="ylines-above crisp" d="M0,0" style="fill: none;"/><g class="overlines-above"/><g class="xaxislayer-above"><g class="xtick"><text text-anchor="middle" x="0" y="433" transform="translate(141.74,0)" style="font-family: 'Open Sans', verdana, arial, sans-serif; font-size: 12px; fill: rgb(42, 63, 95); fill-opacity: 1; white-space: pre; opacity: 1;"><tspan class="line" dy="0em" x="0" y="433">Feb 5</tspan><tspan class="line" dy="1.3em" x="0" y="433">2023</tspan></text></g><g class="xtick"><text text-anchor="middle" x="0" y="433" style="font-family: 'Open Sans', verdana, arial, sans-serif; font-size: 12px; fill: rgb(42, 63, 95); fill-opacity: 1; white-space: pre; opacity: 1;" transform="translate(249.78,0)">Feb 12</text></g><g class="xtick"><text text-anchor="middle" x="0" y="433" style="font-family: 'Open Sans', verdana, arial, sans-serif; font-size: 12px; fill: rgb(42, 63, 95); fill-opacity: 1; white-space: pre; opacity: 1;" transform="translate(357.82,0)">Feb 19</text></g><g class="xtick"><text text-anchor="middle" x="0" y="433" style="font-family: 'Open Sans', verdana, arial, sans-serif; font-size: 12px; fill: rgb(42, 63, 95); fill-opacity: 1; white-space: pre; opacity: 1;" transform="translate(465.86,0)">Feb 26</text></g></g><g class="yaxislayer-above"><g class="ytick"><text text-anchor="end" x="79" y="4.199999999999999" transform="translate(0,384.93)" style="font-family: 'Open Sans', verdana, arial, sans-serif; font-size: 12px; fill: rgb(42, 63, 95); fill-opacity: 1; white-space: pre; opacity: 1;">−40</text></g><g class="ytick"><text text-anchor="end" x="79" y="4.199999999999999" style="font-family: 'Open Sans', verdana, arial, sans-serif; font-size: 12px; fill: rgb(42, 63, 95); fill-opacity: 1; white-space: pre; opacity: 1;" transform="translate(0,345.28)">−20</text></g><g class="ytick"><text text-anchor="end" x="79" y="4.199999999999999" style="font-family: 'Open Sans', verdana, arial, sans-serif; font-size: 12px; fill: rgb(42, 63, 95); fill-opacity: 1; white-space: pre; opacity: 1;" transform="translate(0,305.62)">0</text></g><g class="ytick"><text text-anchor="end" x="79" y="4.199999999999999" style="font-family: 'Open Sans', verdana, arial, sans-serif; font-size: 12px; fill: rgb(42, 63, 95); fill-opacity: 1; white-space: pre; opacity: 1;" transform="translate(0,265.97)">20</text></g><g class="ytick"><text text-anchor="end" x="79" y="4.199999999999999" style="font-family: 'Open Sans', verdana, arial, sans-serif; font-size: 12px; fill: rgb(42, 63, 95); fill-opacity: 1; white-space: pre; opacity: 1;" transform="translate(0,226.31)">40</text></g><g class="ytick"><text text-anchor="end" x="79" y="4.199999999999999" style="font-family: 'Open Sans', verdana, arial, sans-serif; font-size: 12px; fill: rgb(42, 63, 95); fill-opacity: 1; white-space: pre; opacity: 1;" transform="translate(0,186.66)">60</text></g><g class="ytick"><text text-anchor="end" x="79" y="4.199999999999999" style="font-family: 'Open Sans', verdana, arial, sans-serif; font-size: 12px; fill: rgb(42, 63, 95); fill-opacity: 1; white-space: pre; opacity: 1;" transform="translate(0,147)">80</text></g><g class="ytick"><text text-anchor="end" x="79" y="4.199999999999999" style="font-family: 'Open Sans', verdana, arial, sans-serif; font-size: 12px; fill: rgb(42, 63, 95); fill-opacity: 1; white-space: pre; opacity: 1;" transform="translate(0,107.35)">100</text></g></g><g class="overaxes-above"/></g></g><g class="polarlayer"/><g class="smithlayer"/><g class="ternarylayer"/><g class="geolayer"/><g class="funnelarealayer"/><g class="pielayer"/><g class="iciclelayer"/><g class="treemaplayer"/><g class="sunburstlayer"/><g class="glimages"/><defs id="topdefs-6285f8"><g class="clips"/><clipPath id="legend6285f8"><rect width="167" height="67" x="0" y="0"/></clipPath></defs><g class="layer-above"><g class="imagelayer"/><g class="shapelayer"/></g><g class="infolayer"><g class="legend" pointer-events="all" transform="translate(520.64,100)"><rect class="bg" shape-rendering="crispEdges" width="167" height="67" x="0" y="0" style="stroke: rgb(68, 68, 68); stroke-opacity: 1; fill: rgb(255, 255, 255); fill-opacity: 1; stroke-width: 0px;"/><g class="scrollbox" transform="" clip-path="url(#legend6285f8)"><g class="groups"><g class="traces" transform="translate(0,14.5)" style="opacity: 1;"><text class="legendtext" text-anchor="start" x="40" y="4.680000000000001" style="font-family: 'Open Sans', verdana, arial, sans-serif; font-size: 12px; fill: rgb(42, 63, 95); fill-opacity: 1; white-space: pre;">BESS</text><g class="layers" style="opacity: 0.5;"><g class="legendfill"/><g class="legendlines"><path class="js-line" d="M5,0h30" style="fill: none; stroke: rgb(0, 191, 255); stroke-opacity: 1; stroke-width: 2px;"/></g><g class="legendsymbols"><g class="legendpoints"/></g></g><rect class="legendtoggle" x="0" y="-9.5" width="161.890625" height="19" style="fill: rgb(0, 0, 0); fill-opacity: 0;"/></g><g class="traces" transform="translate(0,33.5)" style="opacity: 1;"><text class="legendtext" text-anchor="start" x="40" y="4.680000000000001" style="font-family: 'Open Sans', verdana, arial, sans-serif; font-size: 12px; fill: rgb(42, 63, 95); fill-opacity: 1; white-space: pre;">Solar</text><g class="layers" style="opacity: 0.5;"><g class="legendfill"/><g class="legendlines"><path class="js-line" d="M5,0h30" style="fill: none; stroke: rgb(255, 0, 0); stroke-opacity: 1; stroke-width: 2px;"/></g><g class="legendsymbols"><g class="legendpoints"/></g></g><rect class="legendtoggle" x="0" y="-9.5" width="161.890625" height="19" style="fill: rgb(0, 0, 0); fill-opacity: 0;"/></g><g class="traces" transform="translate(0,52.5)" style="opacity: 1;"><text class="legendtext" text-anchor="start" x="40" y="4.680000000000001" style="font-family: 'Open Sans', verdana, arial, sans-serif; font-size: 12px; fill: rgb(42, 63, 95); fill-opacity: 1; white-space: pre;">Grid Meter (Net Load)</text><g class="layers" style="opacity: 0.5;"><g class="legendfill"/><g class="legendlines"><path class="js-line" d="M5,0h30" style="fill: none; stroke: rgb(0, 128, 0); stroke-opacity: 1; stroke-width: 2px;"/></g><g class="legendsymbols"><g class="legendpoints"/></g></g><rect class="legendtoggle" x="0" y="-9.5" width="161.890625" height="19" style="fill: rgb(0, 0, 0); fill-opacity: 0;"/></g></g></g><rect class="scrollbar" rx="20" ry="3" width="0" height="0" x="0" y="0" style="fill: rgb(128, 139, 164); fill-opacity: 1;"/></g><g class="g-gtitle"><text class="gtitle" x="296" y="50" text-anchor="middle" dy="0em" style="font-family: 'Open Sans', verdana, arial, sans-serif; font-size: 17px; fill: rgb(42, 63, 95); opacity: 1; font-weight: normal; white-space: pre;"><tspan class="line" dy="0em" x="296" y="50">Scenario 6</tspan><tspan class="line" dy="1.3em" x="296" y="50">Microgrid Output</tspan><tspan class="line" dy="2.6em" x="296" y="50">From: February 01, 2023 to February 28, 2023</tspan></text></g><g class="g-xtitle"><text class="xtitle" x="296" y="477.409375" text-anchor="middle" style="font-family: 'Open Sans', verdana, arial, sans-serif; font-size: 14px; fill: rgb(42, 63, 95); opacity: 1; font-weight: normal; white-space: pre;">Time</text></g><g class="g-ytitle"><text class="ytitle" transform="rotate(-90,33.60625,260)" x="33.60625" y="260" text-anchor="middle" style="font-family: 'Open Sans', verdana, arial, sans-serif; font-size: 14px; fill: rgb(42, 63, 95); opacity: 1; font-weight: normal; white-space: pre;">Demand (kW)</text></g></g></svg>