<svg class="main-svg" xmlns="http://www.w3.org/2000/svg" xmlns:xlink="http://www.w3.org/1999/xlink" width="700" height="500" style="" viewBox="0 0 700 500"><rect x="0" y="0" width="700" height="500" style="fill: rgb(255, 255, 255); fill-opacity: 1;"/><defs id="defs-075d35"><g class="clips"><clipPath id="clip075d35xyplot" class="plotclip"><rect width="496" height="320"/></clipPath><clipPath class="axesclip" id="clip075d35x"><rect x="80" y="0" width="496" height="500"/></clipPath><clipPath class="axesclip" id="clip075d35y"><rect x="0" y="100" width="700" height="320"/></clipPath><clipPath class="axesclip" id="clip075d35xy"><rect x="80" y="100" width="496" height="320"/></clipPath></g><g class="gradients"/><g class="patterns"/></defs><g class="bglayer"/><g class="layer-below"><g class="imagelayer"/><g class="shapelayer"/></g><g class="cartesianlayer"><g class="subplot xy"><g class="layer-subplot"><g class="shapelayer"/><g class="imagelayer"/></g><g class="minor-gridlayer"><g class="x"/><g class="y"/></g><g class="gridlayer"><g class="x"><path class="xgrid crisp" transform="translate(162.9,0)" d="M0,100v320" style="stroke: rgb(255, 255, 255); stroke-opacity: 1; stroke-width: 1px;"/><path class="xgrid crisp" transform="translate(245.79,0)" d="M0,100v320" style="stroke: rgb(255, 255, 255); stroke-opacity: 1; stroke-width: 1px;"/><path class="xgrid crisp" transform="translate(330.05,0)" d="M0,100v320" style="stroke: rgb(255, 255, 255); stroke-opacity: 1; stroke-width: 1px;"/><path class="xgrid crisp" transform="translate(412.94,0)" d="M0,100v320" style="stroke: rgb(255, 255, 255); stroke-opacity: 1; stroke-width: 1px;"/><path class="xgrid crisp" transform="translate(495.84,0)" d="M0,100v320" style="stroke: rgb(255, 255, 255); stroke-opacity: 1; stroke-width: 1px;"/></g><g class="y"><path class="ygrid crisp" transform="translate(0,352.11)" d="M80,0h496" style="stroke: rgb(255, 255, 255); stroke-opacity: 1; stroke-width: 1px;"/><path class="ygrid crisp" transform="translate(0,190)" d="M80,0h496" style="stroke: rgb(255, 255, 255); stroke-opacity: 1; stroke-width: 1px;"/><path class="ygrid crisp" transform="translate(0,108.95)" d="M80,0h496" style="stroke: rgb(255, 255, 255); stroke-opacity: 1; stroke-width: 1px;"/></g></g><g class="zerolinelayer"><path class="yzl zl crisp" transform="translate(0,271.06)" d="M80,0h496" style="stroke: rgb(255, 255, 255); stroke-opacity: 1; stroke-width: 2px;"/></g><path class="xlines-below"/><path class="ylines-below"/><g class="overlines-below"/><g class="xaxislayer-below"/><g class="yaxislayer-below"/><g class="overaxes-below"/><g class="plot" transform="translate(80,100)" clip-path="url(#clip075d35xyplot)"><g class="scatterlayer mlayer"><g class="trace scatter trace835449" style="stroke-miterlimit: 2; opacity: 0.5;"><g class="fills"/><g class="errorbars"/><g class="lines"><path class="js-line" d="M0,171.06L496,171.06" style="vector-effect: non-scaling-stroke; fill: none; stroke: rgb(0, 191, 255); stroke-opacity: 1; stroke-width: 2px; opacity: 1;"/></g><g class="points"/><g class="text"/></g><g class="trace scatter tracecc7dee" style="stroke-miterlimit: 2; opacity: 0.5;"><g class="fills"/><g class="errorbars"/><g class="lines"><path class="js-line" d="M0,171.25L0.35,170.54L0.37,168.5L0.59,16.5L0.95,135.68L0.96,149.95L1.05,171.26L1.73,168.09L1.74,164.87L2.02,16.65L2.29,124.54L2.31,140.05L2.41,171.26L3.07,168.65L3.09,165.06L3.47,16.55L3.68,153.76L3.69,168.15L3.75,171.26L4.43,170.39L4.44,165.75L4.66,32.58L5.1,171.25L5.14,171.25L5.15,171.25L5.78,171.1L5.79,169.76L6.09,21.16L6.45,171.25L6.48,171.25L6.5,171.25L7.13,170.89L7.15,169.32L7.38,16.37L7.76,146.98L7.77,159.3L7.83,171.26L8.52,165.92L8.54,161.03L8.72,16.42L9.19,171.26L9.26,171.24L9.27,171.24L9.84,171.2L9.85,170.88L9.87,169.82L10.08,16.39L10.45,115.22L10.46,130.38L10.56,171.26L11.24,165.75L11.25,161.3L11.47,16.41L11.82,132.42L11.83,146.7L11.92,171.26L12.58,169.27L12.6,160.63L12.83,16.22L13.26,171.26L13.33,171.24L13.35,171.24L13.92,171.18L13.93,170.63L13.94,168.97L14.21,16.32L14.5,79.36L14.51,94.44L14.65,171.26L15.3,168.57L15.32,165.27L15.51,16.39L15.95,170.64L15.97,171.2L16.68,171.24L16.69,171.1L16.7,170.18L16.86,50.22L16.87,39.38L16.9,43.34L16.92,18.11L16.93,16.73L17,16.43L17.28,99.1L17.3,114.18L17.41,171.26L18.08,166.93L18.09,162.56L18.29,16.23L18.67,123.87L18.69,140.78L18.78,171.26L19.45,162.79L19.46,157.29L19.66,16.41L20.04,155.64L20.06,161.65L20.13,171.26L20.79,165.72L20.81,161.31L21.02,16.23L21.47,171.26L21.49,171.26L22.13,171.12L22.14,170.18L22.44,16.37L22.73,118.37L22.75,146.57L22.85,171.26L23.51,165.8L23.53,161.78L23.72,16.44L24.19,171.26L24.21,171.26L24.84,170.83L24.86,168.52L25.08,16.16L25.52,169.98L25.54,171.18L26.19,171.23L26.2,170.94L26.22,168.32L26.5,16.32L26.91,171.26L26.95,171.25L26.97,171.25L27.55,171.17L27.56,170.32L27.82,16.43L28.14,79.35L28.16,90.92L28.3,171.26L28.95,165.76L28.96,161.41L29.17,16.36L29.54,118.5L29.56,133.01L29.67,171.26L30.32,160.76L30.34,153.13L30.52,16.37L31,171.26L31.07,171.25L31.09,171.25L31.64,170.51L31.65,168.31L31.89,16.48L32.22,80.15L32.23,94.32L32.37,171.26L33.04,157.94L33.05,149.66L33.27,16.6L33.69,171.15L33.7,171.25L34.36,170.52L34.37,168.45L34.61,16.33L34.96,103.65L34.98,118.37L35.09,171.26L35.74,157.6L35.76,142.82L35.94,16.29L36.44,171.26L36.48,171.25L36.49,171.25L37.07,170.64L37.09,168.08L37.61,19.46L37.77,171.2L37.78,171.25L38.43,171.18L38.45,170.4L38.7,16.42L39.07,119.64L39.08,136.9L39.15,171.26L39.83,149.43L39.85,143.91L40,16.4L40.51,171.26L40.58,171.25L40.6,171.25L41.15,171.07L41.16,170.26L41.45,27.7L41.75,91.98L41.76,141.2L42.47,171.25L42.52,163.85L42.54,159.08L42.76,16.37L43.17,158.86L43.19,167.2L43.25,171.26L43.91,156.03L43.92,146.53L44.31,16.32L44.59,171.26L44.62,171.24L44.63,171.24L45.21,171.17L45.23,170.56L45.24,168.34L45.5,77.23L45.86,163.81L45.88,166.99L46.54,171.25L46.61,167.64L46.63,166.52L46.83,16.32L47.19,112.05L47.21,144.47L47.9,171.25L47.96,160.94L47.97,155.03L48.16,16.34L48.58,130.92L48.6,144.36L48.7,171.26L49.35,148.53L49.36,134.96L49.52,16.43L50.03,171.26L50.08,171.25L50.1,171.24L50.62,171.23L50.63,171.03L50.65,169.59L50.88,16.52L51.17,171.06L51.2,171.06L51.22,171.06L65.77,171.06L65.78,164.88L65.97,16.5L66.35,171.26L66.49,171.25L66.5,171.25L66.94,170.71L66.96,167.94L67.32,16.33L67.66,166.9L67.68,171.1L68.27,171.25L68.32,170.2L68.33,166.58L68.82,16.28L69.02,166.55L69.04,171.05L69.62,171.25L69.66,169.56L69.67,164.99L69.89,16.21L70.3,86.94L70.31,101.73L70.44,171.26L71.09,146.39L71.1,135.28L71.47,27.17L71.95,171.25L71.97,171.25L72.36,171.04L72.38,170.12L72.59,16.36L73.04,111.57L73.06,127.99L73.16,171.26L73.81,129.41L73.82,116.33L73.95,16.3L74.46,164.7L74.47,170.14L74.54,171.26L75.1,168.07L75.11,163.76L75.31,16.27L75.78,131.01L75.79,139.08L75.9,171.26L76.53,130.13L76.54,124.81L76.96,16.46L77.16,161.99L77.18,169.21L77.25,171.26L77.84,156.93L77.86,149.67L78.04,16.37L78.58,171.26L78.59,171.26L79.17,171.01L79.19,170.38L79.44,16.96L79.75,105.42L79.77,121.91L79.82,106.13L79.94,171.26L80.56,161.88L80.57,150.81L80.77,16.22L81.25,164.05L81.27,169.79L81.32,171.26L81.9,160.71L81.92,155.09L82.1,16.27L82.6,152.72L82.61,163.22L83.19,171.25L83.29,151.57L83.31,140.21L83.46,16.22L84.03,171.26L84.04,171.26L84.59,170.56L84.61,168.36L84.85,16.1L85.23,72.04L85.25,85.95L85.39,171.26L86.04,160.5L86.05,151.12L86.38,16.33L86.73,171.23L86.75,171.26L87.3,171L87.31,169.72L87.54,16.26L87.82,42.13L87.84,145.66L87.85,16.75L88.1,171.26L88.57,171.25L88.59,171.25L88.67,169.54L88.69,165.06L88.77,171.06L89.02,16.54L89.39,154.42L89.41,159.66L89.49,171.26L90.16,171.06L90.17,171.06L90.33,16.52L90.41,42L90.43,171.06L91.37,171.08L91.39,170.1L91.71,16.2L92.05,95.05L92.07,109.55L92.2,171.26L92.85,164.39L92.86,164.51L93.03,59.69L93.05,29.32L93.14,22.75L93.55,171.27L93.89,171.25L93.91,171.25L94.09,171L94.11,170.13L94.62,16.32L94.8,121.54L94.81,134.17L94.91,171.26L95.54,132.51L95.55,119L95.68,16.24L96.26,171.26L96.27,171.26L96.81,170.84L96.82,169.02L97.05,16.34L97.39,41.41L97.41,146.99L97.42,22.87L97.69,171.25L98.14,171.08L98.16,171.18L98.24,146.78L98.25,131.92L98.4,16.41L98.5,171.06L98.92,157.69L98.93,166.25L98.99,171.26L99.7,171.06L99.71,171.06L111.9,171.06L111.91,164.66L112,16.2L112.58,171.26L112.64,171.25L112.65,171.25L113.1,171.11L113.12,170.13L113.39,16.27L113.64,171.06L113.73,171.06L113.74,171.06L114.62,171.15L114.63,168.85L114.92,171.06L114.96,16.16L115.31,171.06L115.33,171.06L116.02,171.07L116.03,151.15L116.06,20.33L116.66,171.25L116.77,171.25L116.78,171.25L117.18,171.02L117.19,169.82L117.52,16.59L117.66,136.23L117.68,171.06L124.1,171.06L124.12,163.05L124.23,16.36L124.81,171.25L124.85,171.24L124.87,171.24L125.33,171L125.35,170.18L125.59,16.2L126.04,104.26L126.06,116.59L126.61,171.25L126.81,119.26L126.82,107.22L126.96,16.39L127.51,171.23L127.53,171.25L128.07,170.81L128.08,169.44L128.41,16.32L128.77,112.56L128.79,128.76L128.92,171.25L129.55,151.06L129.57,134.88L129.75,16.19L130.25,171.26L130.26,171.25L130.27,171.25L130.8,170.88L130.81,170.07L131.02,87.26L131.04,28.14L131.11,16.28L131.63,171.26L132.03,171.24L132.04,171.24L132.14,170.24L132.16,166.52L132.4,16.47L132.62,65.74L132.64,171.06L133.66,171.06L133.67,167.62L133.8,16.58L133.94,171.06L134.37,171.06L134.38,171.06L138.12,171.06L138.13,160.89L138.22,60.76L138.4,171.25L138.87,171.24L138.88,171.24L138.95,167L138.97,164.03L139.22,16.46L139.65,116.82L139.66,128.21L139.8,171.25L140.4,122.83L140.41,111.39L140.57,16.35L141.1,171.17L141.12,171.24L141.66,170.87L141.67,169.92L141.94,16.43L142.22,135.77L142.24,171.06L152.78,171.06L152.8,161.07L152.87,16.25L153.36,171.26L153.53,171.25L153.55,171.25L153.89,170.51L153.9,167.68L154.42,16.56L154.58,102.73L154.59,114.85L155.19,171.26L155.34,121.86L155.36,110.19L155.5,16.21L156.05,171.11L156.07,171.22L156.58,171.23L156.59,171L156.6,170.26L156.76,70.55L156.77,59.78L156.86,16.35L157.34,130.12L157.35,142.16L157.75,171.26L158.05,128.65L158.06,115.93L158.2,16.28L158.71,143.84L158.73,154.81L159.28,171.27L159.42,118.15L159.44,105.72L159.58,16.23L160.13,171.12L160.14,171.23L160.65,171.24L160.67,171.07L160.68,170.26L160.96,16.48L161.39,109.89L161.4,121.96L161.53,171.27L162.14,122.77L162.15,111.16L162.31,16.46L162.79,145.89L162.8,155.37L162.93,171.26L163.48,133.97L163.5,122.4L163.65,16.34L164.19,169.73L164.21,171.11L164.72,171.25L164.76,170.64L164.77,168.66L165.01,16.41L165.41,61.26L165.42,72.39L165.92,171.26L166.2,134.96L166.22,123.58L166.4,16.4L166.92,171.15L166.94,171.23L167.45,171.24L167.46,171.1L167.48,170.52L167.74,16.23L168.16,81.64L168.17,94.53L168.34,171.27L168.93,122.17L168.95,110.33L169.09,16.21L169.64,171.13L169.66,171.21L170.17,171.25L170.18,171.13L170.19,170.41L170.46,16.02L170.84,60L170.86,71.52L171.04,171.29L171.65,125.38L171.67,114.18L171.81,16L172.36,171.13L172.37,171.22L172.9,171.14L172.91,170.59L172.93,168.01L173.17,16.28L173.62,110.32L173.63,122.17L173.77,171.27L174.37,124.65L174.38,112.57L174.53,16.3L175.03,155.56L175.05,164.44L175.4,171.26L175.71,137.03L175.73,125.47L175.9,16.39L176.44,171.18L176.45,171.23L176.96,171.24L176.99,170.75L177,168.92L177.33,16.12L177.64,62.7L177.65,73.84L177.85,171.27L178.43,137.41L178.45,125.59L178.62,16.2L179.15,171.15L179.17,171.24L179.69,171.18L179.71,170.84L179.72,169.66L179.99,16.39L180.4,100.48L180.41,112.33L180.58,171.26L181.16,128.38L181.18,116.76L181.33,16.38L181.87,171.11L181.89,171.24L182.41,171.19L182.42,170.81L182.44,169.52L182.71,16.42L183.13,116.73L183.15,127.33L183.58,171.26L183.88,131.94L183.9,121.23L184.11,16.49L184.6,171.25L184.62,171.26L185.14,171.02L185.16,170.34L185.42,16.51L185.85,116.77L185.86,128.36L186.47,171.26L186.6,132.87L186.61,122.25L186.78,16.37L187.25,151.92L187.27,160.1L187.38,171.27L187.96,128.96L187.97,117.46L188.14,16.26L188.61,149.87L188.62,158.97L188.74,171.26L189.3,144.02L189.32,133.48L189.53,16.5L190.03,171.18L190.04,171.25L190.58,171L190.59,170.44L190.78,58.11L190.79,48.52L190.86,16.27L191.4,171.25L191.41,171.26L191.95,170.95L191.96,170.13L192.28,171.06L192.45,16.56L192.64,118.34L192.66,131.07L192.8,171.27L193.39,134.23L193.41,124.21L193.61,16.6L194.12,171.26L194.13,171.26L194.65,171.16L194.67,170.14L195.02,16.63L195.39,141.3L195.4,151.51L195.52,171.27L196.1,136.48L196.11,147.79L196.13,143.49L196.14,145.1L196.28,73.08L196.3,16.23L196.64,55.3L196.65,65.4L196.86,171.27L197.46,144.62L197.47,133.42L197.67,16.28L198.09,119.85L198.11,132.28L198.19,171.27L198.84,124.06L198.86,114.56L199.07,16.55L199.48,148.34L199.5,157.48L199.58,171.27L200.2,127.19L200.22,116.19L200.4,16.48L200.91,171.26L200.93,171.26L201.45,171.14L201.46,170.3L201.86,16.61L202.11,90.16L202.13,101.51L202.3,171.26L202.91,143.68L202.92,137.67L203.33,17.1L203.47,88.63L203.49,101.18L203.66,171.26L204.25,152.62L204.27,151.09L204.51,16.46L204.9,148.42L204.92,157.51L205.02,171.27L205.63,135.16L205.64,123.19L205.89,16.32L206.33,171.25L206.35,171.26L206.9,170.79L206.91,168.89L207.32,16.33L207.52,68.54L207.54,117.3L207.73,171.27L208.31,161.73L208.33,156.21L208.56,16.39L209.05,171.26L209.06,171.26L209.08,171.26L209.63,170.6L209.65,168.31L209.91,16.47L210.32,139.68L210.34,149.3L210.47,171.26L211.07,135.41L211.09,122.45L211.1,124.84L211.36,16.52L211.39,16.59L211.4,16.67L211.49,19.22L211.5,21.72L212.21,171.26L212.42,141.52L212.43,119.52L212.72,16.5L213.07,165.8L213.09,170.5L213.52,171.26L213.79,171.06L213.81,166.33L214.01,16.53L214.49,171.26L214.54,171.26L214.56,171.25L215.07,170.51L215.08,167.97L215.28,38.84L215.29,30.84L215.34,16.25L215.75,125.6L215.76,136.48L216.09,171.26L216.5,141.88L216.51,130.62L216.72,16.49L217.2,171.26L217.22,171.26L217.23,171.26L217.77,171.02L217.78,170.39L218.04,26.59L218.05,20.21L218.08,16.56L218.39,62.06L218.41,112.4L218.58,171.26L219.17,166.51L219.19,161.63L219.61,16.72L219.92,171.26L219.94,171.26L220.5,170.63L220.52,168.44L220.79,16.45L221.17,119.7L221.18,130.63L221.34,171.26L221.93,142.8L221.95,132.4L222.14,16.52L222.64,171.26L222.65,171.26L222.67,171.26L223.21,170.81L223.22,167.52L223.56,16.63L223.94,160.54L223.96,167.26L224.45,171.26L224.65,147.33L224.66,137.45L224.88,16.45L225.3,160.16L225.32,167.11L225.41,171.27L226.02,153.75L226.04,143.33L226.24,16.24L226.72,171.27L226.77,171.26L226.79,171.26L227.3,170.72L227.31,168.67L227.59,16.55L227.91,77.2L227.92,87.93L228.6,171.26L228.71,156.85L228.73,147.9L228.95,16.67L229.43,171.26L229.45,171.26L229.46,171.26L230.02,170.63L230.03,168.3L230.34,16.6L230.67,116.72L230.68,127.94L230.85,171.26L231.44,148.58L231.46,138.46L231.76,16.6L232.14,171.26L232.17,171.26L232.18,171.26L232.73,170.67L232.75,168.71L233.19,16.8L233.4,130.65L233.41,140.29L234.05,171.26L234.16,149.79L234.18,140.46L234.42,16.25L234.86,171.27L234.88,171.27L234.9,171.27L235.45,170.69L235.47,167.9L235.78,16.2L236.13,140.4L236.14,150L236.26,171.27L236.88,149.89L236.89,140.74L237.14,16.45L237.52,159.92L237.53,166.69L237.62,171.27L238.23,159.04L238.24,151.72L238.48,16.62L238.93,171.26L238.96,171.26L238.98,171.27L239.53,170.94L239.54,170.06L239.83,16.41L240.15,101.67L240.16,114.64L240.32,171.27L240.96,151.53L240.97,142.03L241.21,16.57L241.59,162.9L241.61,168.68L241.69,171.26L242.3,158.91L242.32,152.56L242.57,16.7L243.01,171.26L243.05,171.26L243.07,171.25L243.6,170.99L243.62,170.33L243.93,16.34L244.26,123.15L244.27,134L244.41,171.26L245.03,155.49L245.05,151.23L245.29,16.31L245.71,171.23L245.73,171.26L246.32,170.93L246.34,169.88L246.65,16.49L246.99,138.23L247,148.08L247.13,171.26L247.75,155.32L247.77,145.51L248.06,16.77L248.43,171.26L248.49,171.26L248.5,171.25L249.05,170.64L249.07,168.66L249.39,16.71L249.71,135.16L249.72,145.68L249.88,171.26L250.48,161.87L250.5,154.19L250.78,17.18L251.15,171.26L251.23,171.25L251.25,171.25L251.76,171.07L251.77,170.44L252.03,39.92L252.04,34.57L252.14,17.28L252.24,120.98L252.28,91.95L252.3,126.4L252.38,104.22L253.07,171.26L253.09,171.26L253.19,157.31L253.2,148.76L253.5,17.35L253.83,167.85L253.84,171.03L254.45,171.26L254.49,170.65L254.5,167.95L254.86,16.63L255.07,86.45L255.08,117.57L255.27,171.27L255.86,168.31L255.88,165.6L256.23,17.71L256.51,153.64L256.53,162.11L256.67,171.26L257.26,156.3L257.28,147.26L257.58,18.43L257.97,171.26L258,171.26L258.02,171.25L258.57,170.77L258.58,168.93L258.91,24.42L259.15,100.59L259.16,134.86L259.33,171.26L259.97,169.99L259.98,167.36L260.24,18.17L260.46,65.4L260.48,102.11L260.72,171.26L261.26,171.25L261.27,171.23L261.33,159.34L261.34,154.13L261.6,91.64L261.87,160.26L261.88,164.04L261.89,163.41L262.01,171.26L262.5,171.26L262.52,171.25L262.67,162.77L262.69,153.33L263.05,67.32L263.37,171.26L263.42,171.25L263.44,171.25L263.99,171.24L264,170.86L264.02,168.83L264.24,16.14L264.6,109.61L264.61,153.23L265.33,171.26L265.38,169.27L265.39,166.1L265.81,16.43L266.03,141.48L266.04,158.45L266.13,171.27L266.79,159.16L266.81,153.18L266.99,17.02L267.44,171.26L267.54,171.25L267.56,171.25L268.08,170.64L268.09,167L268.39,16.44L268.67,80L268.69,94.39L268.84,171.27L269.48,158.97L269.5,152.92L269.68,16.36L270.16,171.27L270.17,171.27L270.19,171.27L270.8,170.6L270.81,167.38L271.04,16.29L271.41,99.99L271.42,114.21L271.56,171.26L272.2,166.51L272.21,163.79L272.41,77.93L272.43,64.39L272.5,16.14L272.88,171.26L273.05,171.25L273.06,171.25L273.52,171.23L273.53,170.79L273.54,168.64L273.7,48.8L273.71,28.71L273.76,16.26L274.17,146.19L274.18,158.53L274.27,171.27L274.92,161.81L274.93,158.35L275.13,16.24L275.47,90.1L275.48,104.5L275.62,171.27L276.28,156.26L276.29,148.24L276.47,16.29L276.96,171.26L277.01,171.25L277.03,171.25L277.59,170.88L277.61,169.46L277.83,16.47L278.23,133.57L278.24,147.37L278.36,171.26L278.99,162.94L279.01,156.49L279.19,16.39L279.7,171.27L279.74,171.25L279.76,171.25L280.31,171L280.32,170.36L280.58,16.61L280.88,74.65L280.89,87.17L281.07,171.27L281.7,167.43L281.71,164.02L281.94,16.35L282.28,115.28L282.29,128.54L282.45,171.26L283.07,164.08L283.08,158.7L283.3,16.25L283.65,159.45L283.68,158.74L283.69,164.38L283.78,171.27L284.43,163.96L284.44,158.72L284.66,16.5L285.04,157.2L285.05,166.97L285.15,171.26L285.77,167.91L285.79,164.24L286.02,16.52L286.45,171.26L286.47,171.26L287.12,170.64L287.13,167.59L287.39,16.52L287.67,84.12L287.69,97.33L288.35,171.26L288.49,167.49L288.51,164.22L288.75,16.48L289.16,171.21L289.17,171.26L289.82,171.15L289.84,170.34L290.12,16.36L290.5,171.07L290.52,171.22L291.18,171.24L291.21,170.81L291.22,168.91L291.49,16.16L291.75,83.68L291.76,96.72L291.92,171.27L292.58,167.73L292.6,164.81L292.82,16.2L293.19,162.22L293.21,169.4L293.28,171.27L293.93,167.16L293.94,163.62L294.21,16.48L294.49,116.07L294.51,129.14L294.64,171.27L295.29,168.3L295.3,164.91L295.56,16.54L295.87,128.72L295.88,142.34L296.56,171.26L296.66,164.45L296.67,158.3L296.97,16.56L297.25,155.82L297.27,165.07L297.59,171.26L298.02,170.67L298.03,167.3L298.17,107.51L298.19,40.34L298.37,16.42L298.57,123.7L298.59,137.35L298.7,171.27L299.36,167.68L299.38,162.81L299.7,16.93L300.03,171.26L300.09,171.25L300.1,171.25L300.71,170.75L300.72,168.56L301.05,16.41L301.26,106.7L301.27,113.45L301.39,171.27L302.08,168.86L302.1,165.39L302.42,16.6L302.75,171.27L302.79,171.27L302.8,171.25L303.43,171.04L303.44,170.08L303.78,17.42L304.08,171.1L304.09,171.22L304.79,171.21L304.81,170.75L304.83,169.49L305.13,24.45L305.38,152.23L305.39,164.01L305.95,171.26L306.16,170.76L306.17,168.46L306.54,18.65L306.67,86.04L306.68,108.43L306.85,171.26L307.53,170.36L307.55,166.38L307.84,19.97L308.08,134.31L308.1,145.16L308.79,171.26L308.86,171.24L308.88,171.06L309.05,149.32L309.06,147L309.22,22.36L309.44,137.2L309.46,147.7L309.54,171.27L310.22,171.24L310.24,170.99L310.58,93.8L310.76,149.15L310.77,159.87L311.41,171.27L311.57,171.26L311.58,171.19L311.71,145.07L311.72,139.38L311.91,56.29L312.25,171.26L312.4,171.26L312.42,171.26L312.94,171.05L312.95,170L313.24,16.46L313.49,105.45L313.51,118L314.2,171.26L314.28,171.24L314.3,171.07L314.4,122.08L314.41,110.09L314.6,16.6L314.96,171.26L315.03,171.25L315.05,171.25L315.67,170.62L315.69,168.26L315.97,16.47L316.25,144.44L316.27,158.62L316.76,171.26L317.03,170.16L317.04,165.72L317.38,16.83L317.55,91.77L317.57,104.74L317.72,171.26L318.36,171.25L318.37,171.16L318.43,160.18L318.45,152.21L318.76,16.68L319.04,171.26L319.18,171.25L319.2,171.25L319.78,170.74L319.79,167.15L320.17,17.79L320.4,171.27L320.53,171.26L320.54,171.26L321.09,171.16L321.11,169.54L321.38,16.36L321.76,171.26L321.8,171.25L321.81,171.25L322.45,171.19L322.47,170.87L322.48,169.01L322.76,16.23L323.02,116.02L323.03,130.09L323.8,171.26L323.82,170.78L323.84,169.14L324.12,16.4L324.39,134.87L324.41,147.85L324.49,171.27L325.17,171.2L325.18,170.83L325.34,73.65L325.35,57.37L325.54,16.33L325.83,171.27L326,171.26L326.02,171.26L326.54,170.8L326.56,168.15L326.9,18.01L327.19,171.26L327.22,171.26L327.24,171.25L327.89,171.22L327.9,170.93L327.92,169.58L328.24,16.95L328.45,148.4L328.47,154.78L328.57,171.27L329.25,171.24L329.26,170.92L329.42,73.78L329.43,63.55L329.6,16.96L329.91,171.27L330.04,171.26L330.05,171.26L330.62,170.9L330.63,168.25L330.99,19.54L331.19,139.19L331.2,151.76L331.3,171.27L331.96,171.24L331.98,170.94L332.09,108.16L332.11,96.11L332.28,23.21L332.62,171.27L332.77,171.26L332.79,171.26L333.34,170.9L333.35,169.02L333.65,28.72L333.88,121.67L333.89,133.99L334.65,171.26L334.67,171.25L334.68,171.24L334.74,158.89L334.75,152.37L334.84,134.22L334.85,124.49L335.09,16.33L335.33,171.27L335.52,171.26L335.53,171.25L336.06,171.02L336.07,169.65L336.38,16.41L336.69,171.27L336.72,171.26L336.73,171.25L337.43,170.86L337.44,168.14L337.77,19.75L337.92,93.79L337.94,135.91L337.95,122.24L338.07,171.27L338.66,171.26L338.67,171.26L338.8,168.69L338.82,165.91L339.13,16.71L339.41,171.26L339.44,171.26L339.45,171.25L340.08,171.13L340.09,170.57L340.1,168.24L340.25,72.29L340.26,62.68L340.42,24.04L340.71,171.27L340.85,171.26L340.87,171.26L341.43,171.14L341.45,169.93L341.62,76.76L342.06,171.25L342.09,171.25L342.1,171.25L342.84,170.88L342.85,169.22L343.08,31.41L343.4,171.24L343.42,171.25L344.15,171.21L344.17,170.79L344.18,167.82L344.45,16.43L344.7,133.34L344.72,146.3L345.4,171.26L345.48,171.25L345.5,171.25L345.57,165.08L345.58,156.44L345.85,16.6L346.15,171.26L346.3,171.26L346.32,171.26L346.88,170.62L346.9,168.15L347.27,23.06L347.42,123.17L347.44,139.66L347.52,171.27L348.21,171.26L348.23,171.22L348.31,142.2L348.33,129.05L348.57,19.52L348.87,171.26L349.04,171.26L349.05,171.26L349.6,170.8L349.62,168.2L349.96,16.44L350.17,160.23L350.18,168.97L350.78,171.27L350.95,171.19L350.96,170.86L351.06,118.98L351.07,106.52L351.29,21.91L351.57,171.26L351.68,171.25L351.7,171.25L352.31,171.24L352.32,170.9L352.33,169.99L352.66,21.82L352.82,98.32L352.83,111.19L353.57,171.26L353.62,171.25L353.64,171.26L353.72,165.1L353.74,161.35L353.99,16.34L354.3,171.27L354.47,171.26L354.49,171.26L355.04,170.96L355.05,169.9L355.35,21.56L355.53,102.16L355.55,130.1L355.66,171.27L356.33,171.26L356.34,171.26L356.41,170.41L356.43,167.22L356.74,20.97L356.89,100.38L356.91,117L357.02,171.27L357.71,171.26L357.73,171.26L357.78,167L357.8,165.15L358.08,21.34L358.34,169.72L358.35,171.14L359.1,171.26L359.11,171.1L359.13,170.64L359.47,25.55L359.68,162.56L359.7,170.66L360.35,171.27L360.46,171.25L360.47,171.07L360.53,162.67L360.54,149.02L360.83,16.55L361.08,171.26L361.22,171.26L361.24,171.26L361.83,171.13L361.85,170.08L362.19,28.62L362.46,171.27L362.48,171.25L362.5,171.26L363.19,170.94L363.21,169.38L363.55,31.34L363.81,171.27L363.89,171.26L363.9,171.26L364.56,170.57L364.58,167.95L364.86,34.32L365.07,127.9L365.09,140.16L365.19,171.29L365.85,171.27L365.87,171.27L365.97,164.56L365.98,153.44L366.22,27.22L366.52,171.27L366.7,171.27L366.72,171.27L367.27,171.19L367.28,170.89L367.3,169.13L367.61,34.33L367.81,143.38L367.82,154.75L368.57,171.28L368.58,171.27L368.6,171.07L368.61,171.27L368.68,163.92L368.7,154.31L368.91,40.09L369.24,171.28L369.43,171.07L369.45,171.28L370,170.85L370.01,167.45L370.3,30.04L370.6,171.26L370.71,171.26L370.72,171.26L371.39,171.06L371.4,170.21L371.67,37.01L371.95,171.27L372.12,171.26L372.14,171.26L372.72,170.83L372.73,168.75L373.03,38.46L373.23,139.8L373.24,150.06L374.02,171.26L374.03,171.25L374.09,170.7L374.11,167.32L374.33,47.24L374.7,171.26L374.77,171.26L374.79,171.26L375.45,170.91L375.46,169.52L375.65,74.53L376.03,171.26L376.14,171.26L376.16,171.26L376.8,171.11L376.81,170.12L377.12,48.98L377.39,171.27L377.53,171.26L377.55,171.26L378.15,171.14L378.17,170.42L378.35,64.84L378.75,171.26L378.88,171.26L378.89,171.26L379.53,170.75L379.54,167.28L379.82,16.07L380.01,135.49L380.02,148.73L380.8,171.26L380.83,171.25L380.84,171.25L380.91,164.13L380.93,161.47L381.18,35.8L381.45,171.21L381.47,171.26L382.23,171.05L382.25,169.96L382.58,22L382.92,171.27L382.94,171.26L383.58,171.25L383.59,171.09L383.6,170.37L383.93,41.1L384.09,121.57L384.1,133.53L384.18,171.27L384.88,171.26L384.89,171.25L384.96,170.59L384.98,167.79L385.27,42.92L385.5,165.61L385.52,170.76L386.28,171.26L386.29,171.25L386.38,151.54L386.39,138.66L386.63,43.95L386.9,171.26L387.02,171.25L387.03,171.25L387.67,171.25L387.68,170.96L387.7,169.56L388.05,98.07L388.26,171.26L388.43,171.26L388.45,171.26L389.03,171.2L389.05,170.58L389.07,170.24L389.44,43.93L389.52,116.37L389.54,128.67L390.31,171.26L390.33,171.26L390.43,165.37L390.44,161.02L390.71,37.27L390.98,171.26L391.11,171.25L391.12,171.25L391.74,171.19L391.76,170.84L391.77,168.67L392.06,39.45L392.22,110.98L392.24,122.03L392.83,171.27L393.03,171.26L393.05,171.26L393.15,162.57L393.16,156.23L393.39,51.98L393.7,171.25L393.88,171.25L393.9,171.26L394.48,170.9L394.49,168.19L394.77,28.1L395.06,171.27L395.23,171.26L395.24,171.26L395.83,170.84L395.85,168.82L396.17,39.75L396.41,171.27L396.43,171.26L397.18,171.23L397.19,171.06L397.21,170.38L397.5,38.18L397.77,171.27L397.84,171.26L397.86,171.26L398.55,170.9L398.57,168.61L398.86,42.31L399.1,170.24L399.12,171.16L399.9,171.25L399.91,171.03L399.93,168.2L400.22,42.39L400.49,171.27L400.61,171.25L400.62,171.26L401.27,170.98L401.28,170.03L401.58,42.64L401.75,118.96L401.77,130.79L402.54,171.26L402.56,171.26L402.63,169.72L402.64,166.72L402.88,31.44L403.14,147.72L403.15,154.98L403.22,171.27L403.95,171.26L403.96,171.26L404.03,164.07L404.04,154.6L404.3,46.61L404.58,171.27L404.72,171.26L404.74,171.26L405.35,171.05L405.36,170.19L405.66,45.37L405.83,117.38L405.84,128.98L406.65,171.28L406.66,171.28L406.72,167.27L406.73,162.52L407.02,43.7L407.23,150.01L407.24,160.48L407.91,171.28L408.01,171.27L408.02,171.26L408.08,168.28L408.09,163.63L408.38,58.12L408.63,171.18L408.65,171.27L409.42,171.13L409.44,170.5L409.65,87.09L410,171.26L410.17,171.26L410.19,171.26L410.78,171.02L410.8,170.22L411.12,31.99L411.38,171.27L411.45,171.26L411.46,171.26L412.18,170.68L412.2,167.12L412.5,96.6L412.75,171.26L412.93,171.26L412.95,171.26L413.51,170.91L413.53,168.66L413.73,112.21L414.1,171.26L414.27,171.26L414.28,171.26L414.87,170.72L414.89,166.09L415.1,123.69L415.44,171.28L415.61,171.28L415.62,171.28L416.25,170.69L416.26,169.66L416.46,32.74L416.81,171.27L416.84,171.06L416.86,171.06L417.58,170.83L417.59,166.56L417.78,59.67L417.85,171.06L418.1,171.06L418.12,171.06L428.45,171.08L428.46,168.17L428.8,118.93L428.99,162.52L429,167.8L429.77,171.26L429.78,171.26L429.82,170.02L429.84,165.92L430.15,31.3L430.4,171.26L430.47,171.25L430.49,171.25L431.18,170.7L431.2,167.5L431.45,38.89L431.66,134.8L431.68,142.2L431.76,171.28L432.46,171.27L432.47,171.27L432.54,170.49L432.55,165.07L432.84,45.87L433.12,171.27L433.15,171.26L433.16,171.26L433.88,170.98L433.9,168.57L434.07,117.68L434.55,171.27L434.64,171.27L434.65,171.27L435.29,170.8L435.3,167.79L435.58,105.32L435.82,171.26L435.95,171.26L435.97,171.26L436.62,170.99L436.63,170.32L436.99,20.39L437.11,126.3L437.13,146L437.59,171.27L437.89,171.26L437.91,171.26L437.99,168.38L438,165.42L438.26,16.32L438.5,146.51L438.51,159.11L438.57,171.27L439.28,171.26L439.29,171.26L439.36,163.84L439.38,157.91L439.63,24.78L439.93,171.27L440.11,171.26L440.13,171.26L440.68,170.98L440.69,168.98L441.06,17.79L441.13,114.22L441.15,135.24L441.76,171.27L441.93,171.26L441.94,171.27L442.05,169.8L442.07,166.87L442.38,16.6L442.53,100.2L442.55,113.56L443.34,171.27L443.36,171.27L443.43,166.75L443.44,165.11L443.74,21.82L444.01,171.28L444.09,171.27L444.11,171.27L444.76,170.82L444.77,167.16L445.1,23.86L445.29,149.88L445.31,157.61L445.99,171.27L446.07,171.26L446.09,171.26L446.16,164.97L446.17,159.72L446.44,16.73L446.72,171.27L446.88,171.26L446.89,171.26L447.46,171.26L447.47,170.95L447.49,170.11L447.8,16.41L448.03,150.46L448.04,162.36L448.72,171.27L448.79,171.26L448.81,171.26L448.89,160.63L448.9,144.84L449.17,16.53L449.44,171.27L449.58,171.26L449.6,171.26L450.18,171.23L450.19,170.95L450.21,169.96L450.49,16.23L450.74,148.69L450.76,160.97L451.1,171.27L451.52,171.26L451.54,171.19L451.61,159.85L451.62,142.97L451.89,20.25L452.17,171.27L452.3,171.26L452.32,171.26L452.91,170.9L452.92,168.58L453.11,47.83L453.12,42.86L453.24,19.73L453.43,130.17L453.45,141.98L453.53,171.27L454.21,171.26L454.23,171.26L454.3,164.77L454.31,160.42L454.75,73.54L454.82,164.68L454.84,168.57L455.57,171.27L455.6,171.26L455.61,171.24L455.67,157.89L455.68,150.98L455.85,17.88L456.24,171.26L456.35,171.26L456.36,171.26L456.99,170.9L457,168.57L457.14,62.34L457.16,51.26L457.24,16.22L457.61,171.28L457.75,171.26L457.77,171.26L458.35,170.78L458.36,168.38L458.61,16.17L458.87,115.75L458.88,129.04L458.98,171.28L459.66,171.26L459.68,171.26L459.75,160.96L459.76,150.02L460.02,16.52L460.33,171.28L460.44,171.27L460.46,171.27L461.06,170.89L461.08,167.21L461.36,16.56L461.69,171.27L461.74,171.26L461.76,171.26L462.41,171.15L462.42,170.38L462.72,16.34L462.93,103.71L462.95,116.14L463.06,171.27L463.74,171.26L463.75,171.26L463.82,162.12L463.84,148.58L464.18,20.99L464.42,171.27L464.62,171.26L464.63,171.27L465.14,170.66L465.15,167.73L465.24,108.91L465.25,95.48L465.41,16.2L465.76,171.27L465.86,171.26L465.88,171.26L466.5,170.79L466.51,167.62L466.6,108.4L466.61,94.83L466.84,16.27L467.12,171.27L467.22,171.26L467.24,171.26L467.84,171.01L467.86,168.37L468.14,16.36L468.4,126.11L468.41,139.79L469.03,171.27L469.18,171.26L469.19,171.26L469.26,161L469.27,147.99L469.53,16.39L469.84,171.27L469.95,171.26L469.97,171.26L470.56,171.06L470.58,170.31L470.92,16.32L471.13,145.61L471.14,158.78L471.4,171.27L471.92,171.15L471.94,170.86L472.08,70.12L472.09,59.56L472.32,16.02L472.56,171.26L472.59,171.26L472.6,171.26L473.28,171.05L473.29,169.98L473.62,16.08L473.76,105.92L473.78,138.15L473.83,136.44L474.54,171.27L474.55,171.26L474.65,170.57L474.67,165.79L474.96,16.07L475.25,168.92L475.26,171.07L476,171.25L476.01,171.18L476.03,170.66L476.39,16.1L476.65,171.26L476.76,171.26L476.78,171.26L477.36,171.03L477.37,167.83L477.47,98.2L477.48,170.27L477.5,65.81L477.61,16.48L478.01,171.27L478.12,171.26L478.14,171.26L478.72,170.92L478.73,168.2L479.03,16.49L479.18,60.58L479.2,170.55L479.24,96.45L479.37,171.26L479.93,171.26L479.95,171.26L480.07,170.99L480.09,166.51L480.39,16.88L480.73,171.27L480.83,171.26L480.84,171.26L481.43,170.99L481.45,167.48L481.48,171.06L481.77,22.24L482.04,171.06L482.06,171.06L495.14,171.04L495.15,122.73L495.22,16.08L495.92,171.26L495.93,171.26" style="vector-effect: non-scaling-stroke; fill: none; stroke: rgb(255, 0, 0); stroke-opacity: 1; stroke-width: 2px; opacity: 1;"/></g><g class="points"/><g class="text"/></g><g class="trace scatter trace1ecbfb" style="stroke-miterlimit: 2; opacity: 0.5;"><g class="fills"/><g class="errorbars"/><g class="lines"><path class="js-line" d="M0,193.87L0.31,205.42L0.35,193.23L0.41,198L0.42,184.12L0.76,76.52L0.98,230.87L1.15,196.35L1.16,196.58L1.7,205.01L1.94,58.29L2.21,138.34L2.22,139.58L2.35,229.55L3.02,202.99L3.03,195.61L3.37,59.92L3.62,171.29L3.64,175.59L4.29,205.34L4.4,193.64L4.42,202.58L4.43,204.19L4.61,116.4L4.63,132.5L4.64,105.33L4.66,81.33L5.21,218.02L5.29,205.43L5.31,205.38L5.62,205.67L6.09,77.02L6.13,124.21L6.14,148.21L6.19,85.68L6.84,205.43L6.85,205.61L7.36,42.62L7.71,141.02L7.73,156.24L8.51,200.93L8.52,198.74L8.54,197.47L8.72,62.32L9.16,208.53L9.27,202.71L9.29,202.75L9.33,202.86L9.4,197.46L9.41,193.59L9.43,193.83L9.87,191.42L9.88,187.9L10.29,53.91L10.39,141.03L10.4,151.81L11.23,200.09L11.24,198.39L11.27,198.86L11.58,46.83L11.78,140.22L11.79,150.76L11.88,210.86L12.56,194.14L12.57,193.52L13.07,53.59L13.11,119.67L13.12,132.73L13.83,206.38L13.93,204.56L13.94,193.49L14.16,56.89L14.51,158.71L14.52,170.52L14.65,211.58L15.29,192.11L15.3,189.75L15.32,196.32L15.51,45.31L15.61,47.47L15.63,48.32L16.05,219.41L16.65,204.67L16.66,204.97L16.72,191.62L16.73,185.66L17,49.2L17.3,147.29L17.31,164.9L17.41,208.67L18.08,201.88L18.09,197.42L18.36,55.81L18.64,198.07L18.66,218.4L18.74,226.44L19.39,193.25L19.42,205.63L19.44,209.89L19.68,50.05L19.99,168.92L20,181L20.16,212.98L20.78,200.16L20.79,200.97L20.99,61.08L21.33,140.75L21.35,148.62L22.15,213.77L22.17,209.54L22.45,57.5L22.8,217.2L22.88,198.44L22.89,200.57L23.39,193.57L23.48,217.28L23.5,219.86L23.51,231.77L23.74,53.43L24.22,203.36L24.23,195.76L24.69,206.26L24.89,181.34L24.9,169.73L25.2,61.83L25.55,209.81L25.59,207.66L25.61,200.15L26.2,206.15L26.43,57.29L26.58,81.75L26.6,97.46L26.71,69.13L26.88,204.65L27.29,194.31L27.31,203.23L27.32,205.82L27.7,110.91L27.72,97.01L27.82,66.51L28.14,147.8L28.16,160.8L28.88,228.92L28.96,198.52L28.98,192.32L29.22,61.37L29.6,205.67L29.71,200.17L29.73,199.24L29.95,193.77L30.14,206.07L30.32,196.22L30.34,188.82L30.51,69.84L30.97,212.18L31.06,206.04L31.07,205.51L31.47,193.67L31.51,206.17L31.67,201.88L31.68,205.47L31.91,62.53L32.33,220.52L32.42,214.7L32.43,213.53L32.47,213.57L33.12,120.73L33.14,107.31L33.27,72.68L33.66,218.13L33.73,205.77L33.75,202.17L34.26,205.99L34.51,99.25L34.53,78.41L34.58,66.43L34.96,176.94L34.98,190.03L35.54,218.79L35.73,204.72L35.74,194.9L35.94,47.68L36.46,206.31L36.48,209.55L37.19,214.78L37.3,99.81L37.31,173.12L37.33,198.84L37.44,224.61L37.61,61.08L37.81,193.68L37.82,194.48L37.91,195.02L38.25,193.4L38.26,193.6L38.28,202.85L38.31,205.27L38.6,126.07L38.63,151.74L38.64,100.88L38.7,61.72L39.24,208.36L39.3,203.75L39.31,203.02L39.76,205.21L39.89,150.14L39.9,136.1L40.05,48.77L40.56,216.51L40.57,216.4L40.58,216.72L40.61,194.39L40.66,196.01L40.67,193.73L41.01,193.37L41.14,216.61L41.21,194.48L41.22,187.53L41.45,66.98L41.58,201.46L41.72,170.38L41.73,127.63L41.8,226.86L42.51,204.58L42.52,207.69L42.62,157.48L42.64,144.87L42.86,64.79L43.17,204.86L43.19,206.25L44.18,126L44.19,96.99L44.26,53.43L44.59,198.2L44.89,194.62L44.9,195.9L45.06,196.32L45.47,133.25L45.48,119.34L45.82,204.24L46.4,194.2L46.42,194.24L46.63,211.16L46.69,190.24L46.7,169.16L47.03,55.94L47.31,212.34L47.46,197.04L47.48,194.52L47.78,206.64L48.02,164.04L48.03,151.66L48.2,56.33L48.65,206.85L48.72,202.52L48.74,201.5L49.23,204.09L49.59,75.83L49.73,100.09L49.74,100.3L49.81,78.4L50.03,225.94L50.04,226.5L50.97,81.51L51.13,114.8L51.14,118.09L51.23,263.32L51.88,193.92L51.89,195.2L51.92,193.93L52.08,209.7L52.09,207.73L52.11,211.68L52.39,287.49L52.77,213.13L52.79,212.98L53.25,193.41L53.51,214.48L53.54,209.72L53.55,217.5L53.59,211.34L53.71,255.89L53.73,246.72L53.75,257.24L53.82,279.32L54.39,194.49L54.44,196.14L54.46,195.53L54.64,193.83L55.22,235.23L55.26,209.54L55.28,210.61L55.36,217.47L55.48,198.7L55.49,196.19L56.03,193.28L56.27,262.47L56.57,233.79L56.58,221.61L57.26,193.62L57.36,193.98L57.37,203.37L57.46,197.67L57.66,234.3L58.15,209.08L58.17,206.46L58.69,193.31L58.85,228.77L58.87,223.69L58.89,234.98L59.26,266.47L59.68,193.86L59.69,194.27L59.71,194.88L60.15,193.06L60.25,213.21L60.29,208.88L60.3,213.56L60.36,244.81L60.97,194.98L61.01,195L61.03,194.66L61.1,208.68L61.31,193.51L61.55,203.71L61.56,206.79L61.95,257.43L62.1,230.77L62.12,221.66L62.13,228.66L62.82,193.81L62.84,194.04L62.92,197.09L62.94,199.45L63.02,236.76L63.63,195.39L63.67,205.81L63.69,207.94L64.01,193.41L64.27,209.5L64.28,217.75L64.44,198.31L64.55,250.15L64.97,201.5L64.99,200.09L65.57,193.99L65.71,242.73L65.78,222.44L65.8,175.65L65.99,79.11L66.33,215.89L66.53,194.52L66.55,195.51L66.64,208.58L66.79,193.66L66.91,193.95L66.93,194.1L66.94,194.28L66.98,182.71L67,178.28L67.15,65.89L67.69,215.68L67.72,209.49L67.73,212.94L68.77,60.73L68.91,108.89L68.92,128.57L69.7,211.04L69.73,191.04L69.74,170.99L70.17,58.45L70.37,184.76L70.38,199.09L70.41,206.89L71.03,188.55L71.09,205.35L71.1,185.74L71.12,189.58L71.23,83.32L71.39,122.01L71.4,91.69L71.46,78.22L72.34,202.56L72.35,195.52L72.58,53.28L73,119.55L73.01,138.26L73.33,212.13L73.79,167.82L73.81,154.94L74.01,53.63L74.47,217.72L74.5,210.49L74.52,211.5L75.35,71.6L75.68,92.21L75.69,105.98L75.79,238.4L76.47,183.68L76.48,180.31L76.55,186.3L76.64,119.5L76.65,105.15L76.7,127.05L76.71,94.84L76.75,106.72L76.77,137.27L77.01,75.85L77.26,211.03L77.57,193.85L77.59,193.89L77.86,201.51L77.94,106.33L77.98,112.94L78,102.5L78.24,62.72L78.55,217.32L78.68,209.8L78.69,206.69L78.75,207.6L78.76,205.44L78.78,197.13L79.17,217.37L79.46,86.64L79.67,157.4L79.68,171.14L79.75,140.31L80.53,214.62L80.57,207.69L80.59,195.72L80.73,50.97L81.27,202.71L81.32,198.22L81.34,199.51L81.73,205.58L82.13,66.78L82.36,91.78L82.37,99.66L82.46,83.36L82.64,203.51L82.95,195.28L82.97,194.61L83.14,195.27L83.32,161.13L83.33,150.9L83.45,49.12L83.97,194.56L83.99,200.22L84.01,200.52L84.16,191.71L84.17,174.74L84.55,203.71L84.86,101.16L84.88,92.06L84.93,71.3L85.29,171.26L85.3,184.44L85.4,212.25L85.9,174.97L86.05,191.68L86.07,171L86.25,71.6L86.72,205.77L86.8,199.89L86.82,203.97L87.79,71.12L87.82,93.05L87.84,156.74L87.85,83.25L88.08,210.55L88.57,193.68L88.59,194.76L88.64,196.07L89.01,80.84L89.35,173.03L89.36,192.62L89.42,225.22L89.72,171.06L90.06,195.8L90.07,182.73L90.26,194.4L90.41,42L90.67,194.4L90.68,194.4L91.35,214.82L91.62,61.24L91.76,91.33L91.77,91.69L91.96,64.76L92.52,205.06L92.56,195.07L92.58,195.26L92.83,206.73L93,139.88L93.02,170.22L93.03,111.85L93.14,66.14L93.51,209.42L93.72,186.4L93.74,205.43L93.77,208.03L94.16,186.33L94.18,161.92L94.57,80.19L94.87,203.93L95.01,194.67L95.03,194.68L95.04,195.89L95.54,168.14L95.55,155.17L95.69,57.73L95.82,213.08L96.26,195.94L96.27,197.04L96.65,206.44L97.01,78.11L97.04,164.63L97.05,59.86L97.25,59.16L97.69,205.3L98.04,194.36L98.06,194.18L98.4,79.63L98.5,217.75L98.72,181.97L98.74,102.76L98.76,101.18L98.96,220.69L99.47,171.06L99.49,171.06L100.22,206.07L100.25,185.06L100.26,182.73L100.92,192.07L101.07,171.06L101.09,171.06L101.3,194.4L101.86,182.73L101.88,173.39L102.18,194.4L102.43,171.06L102.53,192.07L102.54,203.74L102.66,171.06L102.76,206.07L103,171.06L103.01,171.06L103.46,171.06L103.48,180.39L103.55,171.06L104,206.07L104.28,194.4L104.3,194.4L105.05,171.06L105.06,180.39L105.08,182.73L105.19,206.07L105.87,171.06L105.88,171.06L106.28,171.06L106.29,180.39L106.35,171.06L106.72,206.07L107,182.73L107.02,173.39L107.33,182.73L107.72,171.06L107.74,180.39L107.84,171.06L108.26,194.4L108.5,182.73L108.52,173.39L109.13,171.06L109.17,194.4L109.18,194.4L109.44,206.07L109.96,171.06L109.98,171.06L110.41,171.06L110.43,180.39L110.48,171.06L110.88,206.07L111.15,173.39L111.16,171.06L111.77,171.06L111.79,180.39L111.8,182.73L111.99,68.28L112,52.82L112.54,211.56L112.86,196.5L112.88,196.9L113.12,205.83L113.32,74.99L113.33,65.06L113.63,148.13L113.64,238.49L113.67,255.47L114.17,194.43L114.29,195.52L114.31,194.22L114.63,229.56L114.65,186.58L114.66,107.93L114.87,77.42L115.04,273.64L115.26,210.15L115.27,211.81L115.75,194.56L115.96,220.75L115.98,226.24L116.01,237.39L116.06,76.8L116.57,186.98L116.59,199.72L116.64,213.33L117.22,186.32L117.24,180.1L117.55,83.85L117.73,269.87L117.85,233.25L117.86,238.7L117.89,240.68L117.92,222.39L117.93,211.76L118.48,194.73L118.58,215.28L118.6,218.51L118.68,207.78L119.06,261.76L119.33,224.42L119.35,222.17L119.79,194.53L120,230.89L120.01,233.94L120.78,195.35L120.82,197.38L120.83,196.42L120.92,208.12L121.12,193.71L121.4,197.3L121.41,210.06L121.44,197.42L121.74,249.33L122.16,200.36L122.18,204.76L122.67,194.36L122.81,227.56L122.83,232.81L123.01,208.08L123.1,240.36L123.11,245.14L123.98,193.9L123.99,194.99L124.09,221.57L124.13,148.92L124.15,110.4L124.36,84.58L124.75,217.84L124.77,221.17L124.78,221.47L124.87,204.05L124.88,206.39L124.9,202.37L125.16,207.62L125.49,141.52L125.5,130.86L125.62,74.43L126.04,170.4L126.06,185.47L126.16,226.95L126.41,200.16L126.42,195L126.45,200.61L126.82,149.16L126.83,137.98L126.95,74.57L127.4,176.13L127.42,203.87L127.5,229.76L128.08,192.83L128.17,207.06L128.18,202.55L128.35,71.98L128.77,162.65L128.79,177.99L128.9,218.84L129.52,196.81L129.54,188.11L129.69,72.06L130.22,207.8L130.26,205.03L130.27,206.31L130.83,216.87L131.22,60.8L131.39,90.04L131.41,97.01L132.13,215.73L132.21,196.76L132.23,191.58L132.53,68.72L132.68,297.74L132.96,215.41L132.98,214.57L133.5,193.71L133.63,249.99L133.66,246.53L133.67,248.36L133.74,90.49L133.97,289.69L134.39,204.04L134.41,202L134.78,193.68L135.19,254.67L135.21,241.93L135.23,240.09L135.34,285.12L135.88,198.67L135.91,201.01L135.92,198.22L136.23,193.56L136.55,253.78L136.56,265.33L136.64,288.29L136.93,230.2L137.04,234.09L137.06,229.56L137.55,194.34L137.76,269.1L137.78,254.01L138.1,304L138.22,144.82L138.46,216.33L138.47,207L138.78,212.65L139.05,166.38L139.07,156.14L139.22,86.88L139.73,229.73L139.74,216.31L139.76,218.91L140.88,74.19L140.91,101.92L140.92,108.64L141.09,255.28L141.71,184L141.73,185.35L141.77,186.16L141.84,139.89L141.85,130.67L141.95,73.02L142.21,105.96L142.22,206.61L142.26,241.78L142.86,194.31L142.96,195.62L142.97,198.53L143,194.63L143.27,260.73L143.28,260.81L143.33,272.03L143.81,210.3L143.85,215.57L143.86,212.54L144.36,193.35L144.49,220.52L144.5,227.63L144.53,205.06L144.68,263.95L145.24,216.06L145.25,217.33L145.65,193.13L146.2,275.15L146.3,267.41L146.31,257.14L146.34,272.46L146.91,193.37L146.95,197.64L146.96,197.3L147.06,192.77L147.35,247.65L147.39,245.96L147.4,252.24L147.64,264.05L148.1,192.67L148.27,193.62L148.28,196.4L148.39,191.92L148.76,257.18L148.9,239.28L148.92,235.8L148.93,253.07L149.64,192.32L149.65,192.36L150.16,246.56L150.6,228.53L150.62,214.86L151.04,191.88L151.3,217.19L151.31,218.78L151.72,279.16L152.03,212.22L152.05,206.7L152.53,193.25L152.74,259.68L152.8,251.72L152.81,195.57L153.12,96.87L153.29,221.9L153.55,204.47L153.56,203.06L153.82,208.65L153.94,188.67L154.01,189.73L154.03,166.26L154.11,78.93L154.68,225.14L154.76,209.2L154.78,209.18L154.82,214.56L155.25,193.34L155.32,198.89L155.33,183.38L155.83,86.55L155.97,199.92L155.98,197.84L156,220.31L156.02,227.42L156.76,145.92L156.77,126.87L156.92,85.57L157.26,138.19L157.27,155.8L157.41,250.15L157.93,192.53L157.95,193.13L158.08,134.9L158.09,127.21L158.19,85.28L158.74,219.83L158.76,225.98L159.56,69.81L159.82,129.68L159.83,131.66L159.92,112.56L160.09,211.89L160.1,224.89L160.13,228.52L160.95,101.13L161.16,117.02L161.18,147.74L161.29,141.62L161.47,238.48L161.81,201.8L161.83,202.99L162,210.75L162.14,185.3L162.15,173.33L162.38,87.86L162.83,227.31L162.85,222.57L162.86,226.7L163.51,187.48L163.53,169.44L163.77,82.43L164.21,227.45L164.22,216.46L164.23,225.24L164.89,166.31L164.9,151.58L164.91,153.73L165.34,85.55L165.35,85.51L165.55,243.93L166.2,181.47L166.22,179.47L166.56,77.72L166.91,229.41L166.94,229.41L166.95,216.65L168,75.47L168.1,101.56L168.11,119.18L168.24,198.82L168.25,208.88L168.27,216.21L168.91,185.55L168.92,170.4L169.06,61.15L169.6,198.24L169.61,205.86L169.66,210.65L170.24,183.73L170.25,185.68L170.26,181.27L170.49,56.67L170.93,194.94L170.94,190.24L170.96,220.41L171,236.57L171.62,180.65L171.65,180.97L171.67,164.58L171.68,165.65L171.75,115.5L171.76,90.73L172.13,68.64L172.27,166.07L172.29,189.73L172.36,216.64L173.21,70.87L173.46,90.52L173.48,95.92L173.49,89.13L173.72,220.58L174.07,197.79L174.09,193.46L174.28,203.82L174.36,163.44L174.37,153.22L174.38,154.61L174.51,68.92L174.53,65.46L175.08,216.27L175.35,197.87L175.36,197.29L175.52,208.13L175.69,193.36L175.7,179.52L175.94,72.85L176.41,228.36L176.42,228L176.44,232.07L177.33,71.98L177.5,97.71L177.51,101.46L178.16,224.93L178.38,189.73L178.39,189.22L178.62,76.71L179.07,198.68L179.08,202.04L179.17,234.29L179.79,171.31L179.81,174.38L180.2,87.53L180.44,189.46L180.46,204.11L180.56,228.02L181.08,190.07L181.09,191.19L181.11,188.27L181.32,60.61L181.82,212.02L181.83,217.02L181.86,228.26L182.48,188.56L182.49,181.39L182.75,64.08L183.16,203.41L183.17,225.47L183.23,241.84L183.81,191.01L183.83,188.87L184.12,74.3L184.53,213.96L184.55,225.33L184.62,237.98L185.03,194.97L185.21,198.37L185.23,187.36L185.24,189.14L185.38,88.46L185.45,100.1L185.47,94.16L185.48,92.43L185.81,161.06L185.82,170.09L186.02,225.81L186.57,188.12L186.59,181.38L186.78,68.55L187.29,225.37L187.31,221.18L187.32,221.76L187.39,224.26L188.14,89.79L188.5,134.48L188.51,152.75L188.65,243.86L189.02,204.95L189.03,200.67L189.12,225.29L189.22,198L189.23,199.61L189.25,194.58L189.56,91.58L190.03,239.18L190.04,222.46L190.21,223.46L190.68,180.63L190.69,175.96L190.92,99.66L191.4,229.84L191.41,232.01L192.25,100.56L192.26,125.7L192.28,194.4L192.47,100.78L192.74,242.35L193.05,205.96L193.07,203.04L193.13,205.54L193.24,198.62L193.31,198.7L193.32,190.96L193.39,211.11L193.61,83.57L193.93,150.5L193.95,160.53L194.05,227.11L194.7,185.53L194.71,179.6L194.73,181.71L194.84,126.12L194.85,114.44L195.02,68.41L195.33,151.55L195.35,176.33L195.48,227.5L196.13,200.32L196.14,197.43L196.32,57.23L196.82,216.22L196.88,204.09L196.89,208.57L197.34,220.53L197.57,114.28L197.58,99.59L197.88,71.13L198.11,180.79L198.12,191.39L198.17,216.74L198.84,175.51L198.86,166.71L199.11,73.08L199.45,188.49L199.47,188.45L199.48,205.58L200.03,196.12L200.15,229.88L200.18,210.05L200.19,196.14L200.4,83.23L200.91,231.88L200.93,229.46L201.6,148.59L201.62,119.96L201.76,84.95L202.24,221.98L202.31,210.47L202.33,208.87L202.37,222.44L202.89,185.55L202.92,194.6L202.94,185.82L203.12,80.31L203.54,210.65L203.56,227.64L204.49,68.72L204.51,83.8L205,244.49L205.33,198.9L205.34,203.26L205.82,77.84L206.21,165.3L206.22,166.78L206.3,223.68L206.97,178.65L206.98,173.69L207,176.2L207.13,106.16L207.14,87.46L207.28,82.35L207.73,229.57L207.97,205.21L207.99,205.14L208.33,240.54L208.41,162.39L208.43,153.48L208.56,89.31L209.02,227.39L209.15,210.59L209.16,209.62L209.6,214.75L209.72,181.14L209.73,173.15L209.9,85.39L210.42,226.16L210.44,227.46L210.45,227.91L210.68,205.9L210.69,204.16L211.05,212.14L211.16,141.06L211.17,127.7L211.41,87.29L211.6,148.69L211.61,160.06L211.75,244.14L212.14,204.84L212.15,204.76L212.52,214.52L212.77,85.51L212.87,161.98L212.89,222L213.03,243.52L213.51,199.1L213.59,204.53L213.61,201.97L213.85,215.39L213.96,109.85L213.98,105.76L214.02,81.28L214.26,115.6L214.27,135.75L214.46,226.72L215.04,199.98L215.05,198.06L215.07,197.67L215.11,206.28L215.12,187.55L215.32,63.7L215.75,185.43L215.76,190.6L215.83,219.68L216.5,192.41L216.51,177.39L216.89,89.31L217.06,224.08L217.16,217.41L217.18,226.48L217.83,230.34L218.05,98.31L218.07,100.51L218.08,113.06L218.27,92.1L218.49,237.09L219.09,202.02L219.1,203.48L219.61,116.45L219.85,237.32L219.89,233.91L219.91,226.67L219.96,227.83L220.79,82.7L221.04,135.54L221.05,150.79L221.1,142.82L221.25,244.77L221.58,206.29L221.59,208.05L221.69,199.56L221.8,212.62L221.82,215.39L221.83,223.59L222.2,93.48L222.54,193.8L222.56,204.27L222.65,243.33L223.29,189.97L223.31,182.01L223.62,84.11L223.9,222.71L223.91,232.71L224.01,256.6L224.59,199.53L224.61,198.59L224.91,83.29L225.39,232.83L225.41,227.8L225.43,221.68L225.44,225.67L226.05,180.56L226.07,165.37L226.21,78.63L226.58,177.23L226.6,176.82L226.62,199.47L226.72,234.99L227.23,198.25L227.37,200.84L227.38,198.37L227.41,203.64L227.59,78.36L227.88,135.25L227.89,147.74L228.02,235.26L228.53,205.88L228.54,200.01L228.61,215.57L228.88,114.28L228.9,104.06L228.93,83.24L229.36,231.39L229.49,213.47L229.51,210.58L229.52,214.95L230.13,162.7L230.14,169.1L230.16,163.69L230.5,97.58L230.75,225.25L230.96,212.47L230.98,209.34L231.36,213.73L231.64,91.07L231.98,144.4L232,158.93L232.75,244.08L232.8,207.11L232.82,200.88L233.16,82.37L233.51,235.05L233.53,231.55L233.54,236.48L234.49,73.02L234.5,80.02L234.53,76.92L234.6,90.67L234.62,112.72L234.86,220.37L235.51,205.43L235.52,187.55L235.72,65.02L236.19,228.95L236.2,226.32L236.22,227.75L237.14,71.39L237.4,144.39L237.42,165.72L237.43,162.47L237.55,224.47L238.06,200.19L238.07,207.44L238.21,236.62L238.45,71.24L238.59,117.38L238.61,112.11L238.93,231.03L239.44,203.45L239.46,202.61L239.58,205.08L239.83,80.24L240.16,200.92L240.18,208.46L240.26,243.64L240.84,196.93L240.93,210.79L240.94,204.52L241.24,75.76L241.58,218.95L241.59,226.86L241.62,234.91L241.93,207.06L242.13,214.44L242.15,201.7L242.16,201.33L242.22,226.74L242.26,202.94L242.27,194.98L242.57,76.51L242.98,233.83L243.05,233.22L243.07,226.66L243.08,227.53L243.45,198.86L243.48,202.18L243.49,196.49L243.62,219.67L243.75,153.83L243.76,138.4L244,69.72L244.34,226.91L244.4,212.12L244.41,212.98L245.18,102.52L245.19,94.97L245.26,62.52L245.53,131.11L245.54,135.96L245.7,229.55L246.35,191.42L246.37,189.64L246.38,191.36L246.49,110.74L246.59,112.67L246.61,92.58L246.66,89.68L247.04,248.91L247.48,209.11L247.5,203.37L247.62,217.09L247.99,92.78L248.01,91.95L248.04,87.42L248.3,187.5L248.32,207.78L248.4,253.66L248.91,204.5L249.05,216.12L249.07,203.94L249.35,119.21L249.8,252.74L249.83,251.9L249.85,241.66L250.63,105.63L250.72,123.83L250.74,142.44L250.8,102.25L251.14,244.44L251.52,212.33L251.53,206.98L251.65,219.52L251.9,175.94L251.91,160.66L252.1,91.82L252.18,174.87L252.2,166.46L252.21,191.39L252.28,167.8L252.47,248.38L252.96,208.96L252.98,207.48L253.16,233.51L253.53,92.82L253.68,164.11L253.7,170.12L253.83,258.99L254.46,213.15L254.48,215.84L254.53,228.65L254.67,109.05L254.84,127.71L254.86,112.45L254.9,108.88L255.21,229.98L255.69,208.65L255.71,207.91L255.76,223.76L256.02,140.56L256.03,134.88L256.3,105.47L256.4,149.57L256.42,166.15L256.56,251.58L257.18,201.92L257.19,210.48L257.24,230.8L257.38,155.96L257.39,156.75L257.41,140.13L257.52,103.49L257.92,250.63L258.21,215.6L258.23,206.88L258.61,229.02L258.84,119.29L258.86,132.44L258.88,119.99L258.92,114.5L259.25,249.63L259.71,212.03L259.73,207.4L259.97,234.49L260.18,126.87L260.2,107.99L260.24,84.52L260.7,253.13L260.97,213.21L260.99,207.93L261.6,163.08L261.74,254.02L261.79,252.07L261.81,232.7L261.88,251.16L262.32,202.44L262.53,209.43L262.54,204.26L263.03,126.91L263.15,245.82L263.35,231.47L263.37,226.74L263.45,230.37L263.92,200.89L264.03,222.96L264.05,204.78L264.31,71.34L264.71,223.78L264.78,221.1L264.8,211.16L265.12,200.52L265.45,238.82L265.5,201.15L265.52,195.85L265.65,104.3L265.94,235.03L266.25,220.5L266.27,222.55L266.35,224.08L266.85,177.82L266.88,180.48L266.89,163.65L266.99,85.69L267.41,242.32L267.54,216.14L267.56,221.93L268.02,222.3L268.38,75.23L268.5,87.72L268.52,95.26L268.58,78.33L268.77,251.78L269.08,203.9L269.1,201.57L269.11,208.13L269.65,74.64L269.67,78.54L269.74,64.09L270.02,136.5L270.03,153.22L270.3,225.21L270.8,194.84L270.81,190.22L270.84,195.89L270.9,155.59L270.91,134.31L271.02,70.27L271.51,225.5L271.53,212.16L271.55,211.37L271.58,218.01L271.96,195.1L272.04,195.78L272.06,194.26L272.16,199.42L272.43,95.74L272.44,96.3L272.45,63.21L272.51,55.01L272.71,136.58L272.72,127.93L272.74,146.83L272.86,233.02L273.52,196.17L273.53,196.07L273.61,172.95L273.63,153.44L273.87,56.37L274.27,222.23L274.36,202.75L274.38,212.8L274.42,216.53L275.21,73.55L275.43,110.42L275.44,120.86L275.58,237.69L276.23,194.43L276.25,190.31L276.26,193.53L276.56,75.3L276.69,91.73L276.7,90.47L276.9,231.12L277.49,193.9L277.51,197.05L277.59,204.44L277.88,73.16L278.17,146.4L278.19,163.95L278.31,220.65L278.95,205.08L278.97,203.48L278.99,208.62L279.06,134.09L279.08,118.9L279.18,60.76L279.64,242.15L279.74,222.74L279.76,219.56L280.64,79.08L280.81,127.94L280.82,155.86L280.83,138L281.02,234.43L281.54,200.6L281.56,196.14L281.74,212.73L281.94,70.52L282.15,105.92L282.16,102.12L282.39,244.82L282.97,207.17L282.99,198.58L283.08,185.44L283.1,179.08L283.3,66.95L283.72,222.91L283.78,216.04L283.79,216.79L283.81,216.98L283.82,215.52L283.84,216.97L283.85,208.47L284.39,223.63L284.49,183.13L284.5,179.5L284.73,87.87L285.05,229.14L285.19,214.66L285.21,213.86L285.79,227.29L286.07,77.96L286.14,105.48L286.16,117.2L286.23,106.56L286.43,234.53L286.44,236.52L287.27,146.24L287.29,136.29L287.47,82.02L287.69,189.19L287.7,188.1L287.71,207.89L287.78,247L288.11,204.32L288.17,207.28L288.18,201.86L288.31,214.74L288.75,76.18L288.76,74L289.13,218.5L289.77,208.24L289.78,200.07L289.81,208.1L290.02,86.81L290.04,75.06L290.05,73.66L290.32,132.06L290.33,141.32L290.52,233.7L291.17,194.72L291.18,193.87L291.24,216.5L291.38,126.57L291.39,105.52L291.46,52.9L291.85,240.61L292.07,198.25L292.09,200.41L292.6,212.02L292.95,58.01L293.08,144.92L293.09,155.54L293.11,146.62L293.22,223.93L293.74,197.61L293.76,193.79L293.94,209.74L294.07,122.06L294.08,111.64L294.18,83.27L294.57,221.43L294.59,215.04L294.61,217.59L294.66,225.67L295.26,193.71L295.29,195.44L295.3,191.49L295.53,76.21L295.8,163.61L295.81,173.86L296.07,227.95L296.59,194.36L296.6,195.68L296.62,195.9L296.66,191.36L296.67,185.15L296.69,190.21L297,81.55L297.01,75.51L297.4,236.6L297.95,197.77L297.96,196.32L298.02,200.25L298.17,169.08L298.19,102.03L298.25,68.33L298.66,259.3L298.88,201L298.9,204.88L299.7,78.94L299.82,103.69L299.83,126.23L299.99,238.27L300.61,200.45L300.62,196.64L300.77,202.55L300.91,98.51L300.92,86.29L301.02,64.28L301.12,93.53L301.13,160.42L301.19,106.11L301.36,235.46L301.9,197.74L301.91,195.36L302.04,203.18L302.18,157.05L302.19,138.67L302.38,76.99L302.72,239.13L302.76,233.5L302.78,237.76L303.55,193.99L303.57,179.74L303.75,61.97L304.04,240.47L304.23,206.96L304.25,202.6L304.66,194.57L304.87,224.56L304.9,216.25L304.91,238.04L305.13,72.5L305.51,206.5L305.52,213.51L305.75,193.98L306.16,194.13L306.17,203.52L306.23,212.21L306.24,190.78L306.26,188.15L306.44,70.45L306.8,211.62L307.02,201.92L307.04,197.5L307.53,218.7L307.6,190.56L307.62,191.12L307.63,187.82L307.81,62.78L308.17,220.31L308.31,209.68L308.32,209.67L308.51,193.35L309,224.22L309.05,214.77L309.06,202.43L309.24,75.93L309.56,206.47L309.81,199.67L309.82,194.11L310.25,209.27L310.33,179.71L310.52,191.93L310.53,186.64L310.6,124.48L310.96,212.48L311.27,196.92L311.28,194.62L311.38,194.23L311.58,217.45L311.59,220.38L311.81,144.3L311.82,136.08L311.91,107.68L312.39,205.37L312.61,195.2L312.63,196.39L313.01,223.62L313.25,55.42L313.48,169.07L313.49,171.41L314.34,218.62L314.35,215.61L314.61,65.45L314.95,237.47L315.08,216.63L315.09,220.81L315.97,74.3L316.03,97.52L316.04,103.62L316.07,90.93L316.12,113.06L316.14,118.06L316.32,254.49L316.93,195.37L316.95,204.81L316.96,206.52L317.19,128.07L317.2,110.35L317.45,98.93L317.67,228.23L317.99,209.52L318.01,208.14L318.4,215.85L318.77,74.5L318.84,122.44L318.86,138.49L319.03,233.92L319.69,197.98L319.71,195.1L320.17,67.11L320.44,219.28L320.47,218.05L320.48,216.23L320.5,218.38L320.68,193.6L321.04,205.66L321.05,196.29L321.38,52.34L321.63,151.82L321.64,163.7L322.42,214.73L322.44,207.13L322.78,46.35L323.02,147.23L323.03,169.39L323.75,203.01L323.8,193.23L323.81,193.77L323.88,178.85L323.9,166.9L324.12,71.1L324.45,214.05L324.62,195.92L324.63,195.64L325.11,205.63L325.21,190.06L325.23,186.57L325.55,73.17L325.79,222.62L325.93,209.77L325.95,209.63L326.81,71.19L327.02,128.78L327.04,145.46L327.17,236.82L327.82,194.34L327.83,193.91L327.94,208.18L327.99,189.6L328,176.9L328.2,65.87L328.44,222.94L328.72,196.98L328.74,196.81L329.15,235.75L329.44,81.47L329.46,73.76L329.56,50.31L329.84,223.07L329.86,231.89L329.87,237.94L330.48,193.52L330.53,193.67L330.55,193.77L330.63,214.95L330.68,188.89L330.69,172.27L330.96,54.43L331.37,222.03L331.41,212.11L331.43,209.78L331.48,209.83L332.13,129.6L332.15,122.9L332.26,62.49L332.7,215.16L332.86,197.74L332.87,194.02L333.37,208.56L333.46,157.3L333.48,144.26L333.63,65.81L333.92,204.7L334.16,195.22L334.17,195.2L334.75,190.85L334.81,211.55L334.85,196.56L334.87,187.41L335.06,58.76L335.29,225.92L335.59,203.35L335.6,203.93L335.77,204.96L335.97,192.75L336.1,202.25L336.11,213.25L336.32,69L336.68,219.05L336.79,195.3L336.81,195L337.3,192.37L337.34,201.97L337.36,204.09L337.47,206.69L337.48,192.69L337.5,187.05L337.8,52.18L338.02,218.21L338.22,207.63L338.24,213.2L338.67,192.78L338.82,200.81L338.83,214.85L339.07,43.96L339.42,221L339.58,203.7L339.59,204.02L339.76,193.32L340.09,213.26L340.13,198.42L340.15,187.62L340.4,48.55L340.74,211.72L340.88,199.12L340.9,195.8L341.05,193.8L341.28,205.67L341.32,195.55L341.34,193.97L341.51,214.22L341.52,195.75L341.53,183.25L341.62,131.26L342.21,218.49L342.24,207.02L342.26,207.18L342.82,193L342.84,198.32L342.85,210.85L343.08,73.59L343.33,233.58L343.61,195.86L343.63,195.45L344.18,210.64L344.24,155.55L344.28,165.75L344.29,126.13L344.31,126.43L344.32,109.46L344.52,53.53L344.83,196.31L345.11,193.41L345.13,192.9L345.48,191.86L345.5,201.57L345.51,203.77L345.82,59.32L346.19,206.32L346.2,204.53L346.22,204.34L346.3,204.82L346.56,202.07L346.64,202.16L346.66,192.33L346.81,203.37L346.97,158.66L346.98,142.3L347.15,49.42L347.39,195.02L347.44,178.41L347.45,188.64L347.68,218.31L348.21,201.4L348.23,203.64L348.24,212.19L348.51,49.58L348.95,194.02L348.97,194.67L349.53,204.1L349.66,190.01L349.67,174.45L349.96,51.75L350.24,207.06L350.32,205.97L350.34,206.04L350.98,211.38L351.22,75.63L351.23,78.19L351.33,75.73L351.41,94.62L351.43,107.22L351.63,208.06L352.28,203.51L352.29,194.29L352.36,200.02L352.49,125.76L352.5,117.71L352.66,72.86L353,229.5L353.52,192.98L353.54,192.53L353.72,197.89L353.75,179.21L353.76,166.91L353.96,51.31L354.27,203.3L354.43,199.68L354.44,204.43L354.5,208.35L355.26,100.27L355.28,87.8L355.32,68.17L355.62,221.71L355.75,207.42L355.76,206.16L355.8,207.34L356.47,180.47L356.48,168.33L356.71,51.84L356.99,219.24L357.13,205.01L357.15,206.87L358.07,50.24L358.24,123.65L358.25,154.9L358.35,215.2L359.03,193.22L359.04,192.82L359.13,203.57L359.16,188.61L359.17,185.96L359.45,53.18L359.81,208.19L359.85,206.99L359.87,208.46L359.94,172.29L360.5,210.15L360.52,211.38L360.56,221.47L360.83,43.37L361.25,204.92L361.27,205.09L361.28,205.28L361.41,193.74L361.42,193.76L361.44,193.47L361.65,192.21L361.66,201.4L361.68,204.25L361.97,144.99L361.99,116.79L362.13,68.18L362.64,217.97L362.85,192.48L362.87,192.18L363.21,199.01L363.29,179.76L363.3,159.67L363.5,76.5L363.52,69.58L363.98,203.79L364.41,193.04L364.42,192.77L364.54,193.58L364.61,187.07L364.62,176.29L364.86,64.05L365.2,198.33L365.29,196.93L365.3,195.64L365.81,204.61L366.09,99.51L366.11,93.26L366.21,45.92L366.49,228.97L366.67,184.49L366.69,207.16L367.54,66.78L367.76,139.77L367.78,156.1L368.06,219.03L368.56,193.05L368.57,192.57L368.61,192.73L368.92,86.77L368.94,201.4L369.12,146.9L369.21,230.62L369.7,193.36L369.72,193.65L369.99,203.83L370.1,165.18L370.13,193.44L370.14,207.87L370.3,82.41L370.61,216.33L370.88,213.89L370.89,213.82L371.73,73.05L371.81,125.08L371.83,145.97L371.93,220.22L372.63,203.59L372.65,194.08L372.79,195.16L373,68.21L373.26,186.75L373.27,201.31L373.3,209.9L373.68,171.06L373.99,192.38L374.01,192.4L374.33,97.54L374.73,228.18L374.77,215.83L374.79,217.99L375.41,191.72L375.48,228.38L375.52,213.41L375.54,206.11L375.65,120.33L376.19,215.8L376.27,202.57L376.29,202.53L376.54,204.01L376.58,191.72L376.6,192.18L376.61,192.08L376.63,191.72L376.7,203.72L376.71,203.86L376.74,203.94L376.89,160.87L376.91,153.04L377.19,93.08L377.36,229.93L377.6,194.11L377.62,193.76L378.34,119.54L378.35,99.08L378.41,92.36L378.71,217.03L379.16,192.57L379.17,192.91L379.31,204.68L379.57,184.26L379.58,170.36L379.67,195.01L379.7,140.05L379.74,167.26L379.75,110.89L379.84,55.81L380.11,219.64L380.66,191.96L380.67,192.17L380.79,191.64L380.8,191.92L380.82,201.44L381.03,218.12L381.08,116.02L381.1,113.35L381.64,216.4L381.86,202.39L381.88,202.72L382.17,203.64L382.53,70.84L382.71,156.39L382.73,183.18L382.8,239.52L383.48,191.44L383.49,190.99L383.58,192.82L383.6,190.05L383.62,191.52L383.63,198.2L383.9,77.8L384.16,205.39L384.21,194.2L384.23,193.4L384.4,204.31L384.69,191.86L384.71,191.51L384.75,190.83L384.82,191.4L384.84,200.38L384.85,202.67L385.16,104.28L385.18,90.69L385.27,88.94L385.52,220.54L386.15,190.13L386.17,190.05L386.34,218.6L386.62,66.82L386.94,214.62L386.96,213.97L387.72,173.5L387.74,190.42L387.75,204.01L387.78,214.96L387.82,183.9L387.84,174.34L387.99,180.69L388.05,121.84L388.18,178.18L388.19,177.42L388.47,211.58L388.97,199.07L388.98,202.14L389.11,213.55L389.44,82.71L389.55,181L389.56,186.55L389.72,204.55L390.31,190.12L390.33,190.33L390.67,85.37L390.95,216.59L391.09,201.78L391.11,192.69L391.67,189.1L391.69,198.56L391.72,210.41L392.01,77.63L392.39,194.59L392.41,191.61L392.96,188.85L393.05,209.75L393.06,221.41L393.4,111.68L393.82,201.34L393.84,201.65L393.91,202.64L394.52,184.15L394.53,196.5L394.77,76.31L394.99,173.56L395,178.75L395.1,225.43L395.75,188.97L395.76,188.74L395.81,190.28L395.91,175.69L395.92,158.44L396.17,69.9L396.39,214.47L396.61,202.86L396.63,202.47L396.75,202.75L397.35,111.82L397.36,103.12L397.49,59.55L397.73,195.87L397.75,202.43L397.76,203.06L398.21,188.34L398.28,189.46L398.3,188.89L398.35,188.6L398.44,199.97L398.47,189.2L398.48,189.22L398.52,190.57L398.62,168.15L398.64,157.87L398.85,86.12L399.3,203.35L399.36,189.88L399.37,189.83L399.76,190.78L399.84,188.67L399.85,198.33L399.9,200.76L400.04,144.77L400.05,121.12L400.29,99.35L400.52,204.4L400.82,189.59L400.83,188.99L401.16,200.79L401.31,186.03L401.33,177.76L401.34,178.51L401.41,134.61L401.43,121.95L401.61,76.58L401.86,205.26L402.09,190.36L402.11,189.77L402.35,191.16L402.56,188.82L402.57,198.36L402.6,202.3L402.8,114.3L402.81,96.96L402.88,89.27L403.32,204.44L403.8,189.28L403.82,189.75L404.03,204.04L404.09,154.69L404.1,148.21L404.3,88.8L404.43,137.5L404.44,144.4L405.15,201.76L405.26,190.77L405.28,189.64L405.38,199L405.4,189.41L405.42,180.39L405.67,67.71L406.15,211.89L406.17,213.79L406.21,213.41L406.22,204.33L407.05,77.52L407.2,152.3L407.22,170.09L407.27,208.96L407.98,189.1L407.99,189.29L408.09,192.97L408.12,180.77L408.14,166.83L408.38,91.4L408.65,225.78L408.84,191.97L408.86,193.17L409.47,205.34L409.65,121.29L409.81,149.98L409.82,151.04L410.08,227.5L410.61,189.62L410.63,189.89L410.64,189.73L410.7,199.06L410.71,201.52L411.12,67.24L411.35,238.28L411.45,203.04L411.46,203.46L411.69,189.15L411.77,201.77L411.79,202.26L412.5,138.25L412.55,181.65L412.57,193.72L412.59,210.11L412.99,189.23L413.3,189.81L413.32,189.61L413.43,207.88L413.71,160.5L414.01,182.48L414.02,202.96L414.1,216.69L414.7,189.23L414.73,189.37L414.75,189.62L414.79,190.97L414.9,184.18L414.92,184.28L414.93,178.69L415.03,167.23L415.37,211.46L415.64,191.77L415.65,191.52L416.19,199.33L416.32,161.55L416.33,163.89L416.35,149.16L416.46,55.9L416.71,210.19L417.07,171.66L417.08,189.84L417.59,186.9L417.63,192.86L417.65,186.05L417.83,67.53L417.99,194.4L418.4,173.39L418.41,171.06L418.87,171.06L418.88,180.39L418.92,171.06L419.5,194.4L419.6,173.39L419.62,171.06L420.08,171.06L420.1,180.39L420.15,171.06L420.68,203.74L420.88,194.4L420.89,185.06L420.93,192.07L421.64,171.06L421.65,180.39L421.67,182.73L422.11,217.75L422.4,171.06L422.42,180.39L422.43,182.73L423.11,171.06L423.14,182.73L423.15,192.07L423.24,171.06L423.58,194.4L423.71,171.06L423.72,171.06L424.3,182.73L424.46,171.06L424.47,171.06L424.66,217.75L425.15,171.06L425.17,171.06L425.6,171.06L425.62,180.39L425.83,171.06L426.11,194.4L426.35,182.73L426.37,173.39L427.12,171.06L427.13,180.39L427.19,171.06L427.36,217.75L427.7,173.39L427.71,171.06L428.11,171.52L428.12,188.16L428.46,208.73L428.55,179.64L428.59,188.28L428.6,172.06L428.62,172.43L428.63,194.72L428.8,152.31L429.09,222.53L429.38,189.06L429.4,189.03L429.84,196.54L429.86,181.36L429.92,181.86L429.94,168.68L429.96,191.78L430.09,101.12L430.11,105.87L430.12,88.02L430.15,75.09L430.6,212.64L430.91,195.19L430.93,190.09L431.08,212.75L431.44,115.65L431.45,75.43L431.78,226.48L432.27,188.78L432.29,190.28L432.41,200.07L432.6,178.74L432.61,165.36L432.91,93.87L433.12,217.38L433.18,202.62L433.19,202.07L434,162.43L434.01,177.19L434.05,167.63L434.79,208.04L434.81,207.55L434.82,198.16L435.1,201.61L435.34,171.07L435.37,176.34L435.39,169.61L435.6,131.52L435.82,224.93L436.08,210.18L436.09,210.09L436.99,62.86L437.1,137.31L437.11,165.5L437.32,216.32L437.86,189.18L437.88,188.37L437.96,217.48L438.05,173.76L438.06,163.71L438.33,61.63L438.53,220.11L438.74,201.49L438.75,200.6L438.92,201.44L438.95,195.95L438.97,189.25L439.08,187.93L439.28,201.8L439.33,199.25L439.35,207.29L439.66,66.87L439.87,175.56L439.89,187.83L440.09,213.98L440.64,191.45L440.65,189.8L440.72,226.46L440.91,83.54L440.92,79.75L441.06,58.12L441.26,191.5L441.44,190.27L441.46,200.85L442.05,211.78L442.11,181.25L442.12,167.45L442.18,127.51L442.19,112.88L442.35,45.38L442.52,107.79L442.53,121.6L443.27,198.29L443.34,189.99L443.36,189.43L443.43,197.04L443.5,148.95L443.51,138.49L443.74,63.14L443.89,132.56L443.91,150.55L443.99,214.35L444.67,199.33L444.69,200.85L444.76,212.42L444.81,182.72L444.83,174.6L445.08,43.54L445.39,202.43L445.56,199.93L445.58,200.63L446.13,219.82L446.41,68.89L446.43,62.83L446.44,61L446.64,161.17L446.65,171.79L446.75,227.48L447.42,200.97L447.43,201.02L447.45,201.18L447.46,211.05L447.5,230.6L447.79,58.15L447.8,51.12L447.81,48.68L448.01,180.88L448.03,192.01L448.64,189.16L448.75,213.05L448.76,193.75L448.78,190.31L448.83,188.6L448.85,190.43L448.86,197.79L449.05,93.06L449.06,77.67L449.14,55.79L449.26,122.69L449.27,133.36L449.44,215.65L450.15,202.47L450.16,201.42L450.53,50.28L450.77,225L450.87,217.8L450.89,213.56L451.92,46.63L451.93,57.42L451.95,67.82L452.15,204.14L452.75,200.41L452.77,191.95L452.9,200.58L453.24,50.88L453.46,174.14L453.48,185.22L453.55,219.82L454.23,192.88L454.24,189.02L454.25,189.37L454.34,172.68L454.38,173.21L454.4,163.79L454.48,104.57L454.82,205.67L454.86,200.71L454.88,201.85L454.91,202.05L455.09,198.55L455.16,198.83L455.18,192.72L455.54,212.36L455.81,74.36L456,167.18L456.01,180.66L456.15,230.85L456.76,189.72L456.77,188.95L457,206.72L457.06,187.26L457.07,179.58L457.36,64.09L457.55,213.93L457.57,224.47L457.64,228.22L457.84,188.81L458.2,191.11L458.22,188.79L458.37,207.93L458.45,163.92L458.46,151.61L458.69,38.07L459.1,217.02L459.15,200.54L459.17,199.71L459.22,212.41L459.76,179.54L459.78,170.61L460.03,74.3L460.31,221.77L460.5,191.63L460.51,190.82L461.06,203.83L461.15,147.69L461.16,139.4L461.39,56.71L461.84,212.02L461.97,198.28L461.98,198.28L462.03,199.31L462.04,197.79L462.05,188.87L462.37,203.18L462.47,180.82L462.48,169.92L462.68,59.93L463.07,213.27L463.2,193.18L463.22,191.37L463.81,196.6L463.98,117.68L463.99,111.43L464.18,53.44L464.69,212.67L464.79,191.04L464.8,189.81L465.01,188.61L465.14,193.48L465.15,196.55L465.48,37.93L465.78,226.71L465.91,201.48L465.92,200.9L465.96,201.53L466.09,198.79L466.15,200.07L466.16,189.95L466.54,210.85L466.58,164.93L466.6,148.37L466.8,49.92L467.16,215.24L467.31,190.32L467.32,189.71L467.92,204.44L467.97,138.57L467.99,128.18L468.17,51.93L468.44,225.8L468.79,211.38L468.81,201.7L469.18,223.58L469.53,58.1L469.73,146.01L469.74,165.22L469.84,237.12L470.49,190.2L470.51,189.04L470.59,195.33L470.65,176.73L470.66,162.61L470.89,51.51L471.27,215.31L471.36,194.36L471.37,191.67L471.52,201.66L471.85,189.11L471.91,201.19L471.92,211.01L471.95,211.68L471.98,190.05L471.99,176.02L472.39,31.8L472.57,204.4L472.71,191L472.73,191.41L473.11,199.98L473.39,144.96L473.41,126.1L473.66,36.72L474.16,213.01L474.17,212.52L474.19,202.94L474.24,212.91L474.77,132.76L474.78,116.23L474.79,116.58L474.82,94.59L474.84,85.14L475.04,42.89L475.45,215.27L475.73,192.19L475.74,171.23L476.14,218.79L476.37,66.64L476.38,53.96L476.54,266.89L477.1,192.67L477.12,192.3L477.51,95.72L477.53,170.3L477.54,69.78L477.63,60.61L478.02,218.67L478.29,194.2L478.31,171.19L478.74,195.23L479,74.09L479.01,64.77L479.06,51.86L479.1,72.55L479.13,61.8L479.14,86.4L479.34,213.48L479.96,190.5L479.98,191.32L480.06,211.03L480.17,163.2L480.19,141.95L480.39,79.27L480.74,231.33L480.88,192.65L480.9,192L481.15,201.88L481.6,171.06L481.67,182.25L481.69,91.12L481.77,57.3L482.27,201.81L482.4,171.06L482.41,171.06L482.61,171.17L482.62,191.59L482.64,191.75L482.65,171.06L483.3,206.07L483.43,182.73L483.44,182.73L484.17,171.06L484.18,180.39L484.19,192.07L484.25,171.06L484.58,206.07L484.75,171.06L484.76,171.06L485.47,171.06L485.48,180.39L485.55,171.06L485.92,194.4L486.15,171.06L486.16,171.06L486.94,194.4L486.95,175.73L487.39,194.4L487.72,171.06L487.73,171.06L488.1,171.06L488.12,180.39L488.19,171.06L488.51,203.74L488.82,173.39L488.84,171.06L489.49,171.06L489.5,180.39L489.59,171.06L490.14,194.4L490.22,171.06L490.24,171.06L490.9,171.06L490.92,189.73L491.02,171.06L491.37,217.75L491.65,182.73L491.67,182.73L492.45,171.06L492.46,180.39L492.67,203.74L492.77,171.06L493.13,171.06L493.14,171.06L493.31,171.06L493.32,180.39L493.45,171.06L493.96,206.07L494.03,182.73L494.05,173.39L494.15,194.4L494.81,171.06L494.83,171.06L495.16,203.94L495.18,154.3L495.36,77.83L495.49,256.73L495.9,200.34L495.92,201.3L495.96,200.35L496,200.67" style="vector-effect: non-scaling-stroke; fill: none; stroke: rgb(0, 128, 0); stroke-opacity: 1; stroke-width: 2px; opacity: 1;"/></g><g class="points"/><g class="text"/></g></g></g><g class="overplot"/><path class="xlines-above crisp" d="M0,0" style="fill: none;"/><path class="ylines-above crisp" d="M0,0" style="fill: none;"/><g class="overlines-above"/><g class="xaxislayer-above"><g class="xtick"><text text-anchor="middle" x="0" y="433" transform="translate(80,0)" style="font-family: 'Open Sans', verdana, arial, sans-serif; font-size: 12px; fill: rgb(42, 63, 95); fill-opacity: 1; white-space: pre; opacity: 1;">Mar 2022</text></g><g class="xtick"><text text-anchor="middle" x="0" y="433" style="font-family: 'Open Sans', verdana, arial, sans-serif; font-size: 12px; fill: rgb(42, 63, 95); fill-opacity: 1; white-space: pre; opacity: 1;" transform="translate(162.9,0)">May 2022</text></g><g class="xtick"><text text-anchor="middle" x="0" y="433" style="font-family: 'Open Sans', verdana, arial, sans-serif; font-size: 12px; fill: rgb(42, 63, 95); fill-opacity: 1; white-space: pre; opacity: 1;" transform="translate(245.79,0)">Jul 2022</text></g><g class="xtick"><text text-anchor="middle" x="0" y="433" style="font-family: 'Open Sans', verdana, arial, sans-serif; font-size: 12px; fill: rgb(42, 63, 95); fill-opacity: 1; white-space: pre; opacity: 1;" transform="translate(330.05,0)">Sep 2022</text></g><g class="xtick"><text text-anchor="middle" x="0" y="433" style="font-family: 'Open Sans', verdana, arial, sans-serif; font-size: 12px; fill: rgb(42, 63, 95); fill-opacity: 1; white-space: pre; opacity: 1;" transform="translate(412.94,0)">Nov 2022</text></g><g class="xtick"><text text-anchor="middle" x="0" y="433" style="font-family: 'Open Sans', verdana, arial, sans-serif; font-size: 12px; fill: rgb(42, 63, 95); fill-opacity: 1; white-space: pre; opacity: 1;" transform="translate(495.84,0)">Jan 2023</text></g><g class="xtick"><text text-anchor="middle" x="0" y="433" style="font-family: 'Open Sans', verdana, arial, sans-serif; font-size: 12px; fill: rgb(42, 63, 95); fill-opacity: 1; white-space: pre; opacity: 1;" transform="translate(576.01,0)">Mar 2023</text></g></g><g class="yaxislayer-above"><g class="ytick"><text text-anchor="end" x="79" y="4.199999999999999" transform="translate(0,352.11)" style="font-family: 'Open Sans', verdana, arial, sans-serif; font-size: 12px; fill: rgb(42, 63, 95); fill-opacity: 1; white-space: pre; opacity: 1;">50</text></g><g class="ytick"><text text-anchor="end" x="79" y="4.199999999999999" style="font-family: 'Open Sans', verdana, arial, sans-serif; font-size: 12px; fill: rgb(42, 63, 95); fill-opacity: 1; white-space: pre; opacity: 1;" transform="translate(0,271.06)">0</text></g><g class="ytick"><text text-anchor="end" x="79" y="4.199999999999999" style="font-family: 'Open Sans', verdana, arial, sans-serif; font-size: 12px; fill: rgb(42, 63, 95); fill-opacity: 1; white-space: pre; opacity: 1;" transform="translate(0,190)">50</text></g><g class="ytick"><text text-anchor="end" x="79" y="4.199999999999999" style="font-family: 'Open Sans', verdana, arial, sans-serif; font-size: 12px; fill: rgb(42, 63, 95); fill-opacity: 1; white-space: pre; opacity: 1;" transform="translate(0,108.95)">100</text></g></g><g class="overaxes-above"/></g></g><g class="polarlayer"/><g class="smithlayer"/><g class="ternarylayer"/><g class="geolayer"/><g class="funnelarealayer"/><g class="pielayer"/><g class="iciclelayer"/><g class="treemaplayer"/><g class="sunburstlayer"/><g class="glimages"/><defs id="topdefs-075d35"><g class="clips"/><clipPath id="legend075d35"><rect width="102" height="67" x="0" y="0"/></clipPath></defs><g class="layer-above"><g class="imagelayer"/><g class="shapelayer"/></g><g class="infolayer"><g class="legend" pointer-events="all" transform="translate(585.9200000000001,100)"><rect class="bg" shape-rendering="crispEdges" width="102" height="67" x="0" y="0" style="stroke: rgb(68, 68, 68); stroke-opacity: 1; fill: rgb(255, 255, 255); fill-opacity: 1; stroke-width: 0px;"/><g class="scrollbox" transform="" clip-path="url(#legend075d35)"><g class="groups"><g class="traces" transform="translate(0,14.5)" style="opacity: 1;"><text class="legendtext" text-anchor="start" x="40" y="4.680000000000001" style="font-family: 'Open Sans', verdana, arial, sans-serif; font-size: 12px; fill: rgb(42, 63, 95); fill-opacity: 1; white-space: pre;">BESS</text><g class="layers" style="opacity: 0.5;"><g class="legendfill"/><g class="legendlines"><path class="js-line" d="M5,0h30" style="fill: none; stroke: rgb(0, 191, 255); stroke-opacity: 1; stroke-width: 2px;"/></g><g class="legendsymbols"><g class="legendpoints"/></g></g><rect class="legendtoggle" x="0" y="-9.5" width="96.6875" height="19" style="fill: rgb(0, 0, 0); fill-opacity: 0;"/></g><g class="traces" transform="translate(0,33.5)" style="opacity: 1;"><text class="legendtext" text-anchor="start" x="40" y="4.680000000000001" style="font-family: 'Open Sans', verdana, arial, sans-serif; font-size: 12px; fill: rgb(42, 63, 95); fill-opacity: 1; white-space: pre;">Solar</text><g class="layers" style="opacity: 0.5;"><g class="legendfill"/><g class="legendlines"><path class="js-line" d="M5,0h30" style="fill: none; stroke: rgb(255, 0, 0); stroke-opacity: 1; stroke-width: 2px;"/></g><g class="legendsymbols"><g class="legendpoints"/></g></g><rect class="legendtoggle" x="0" y="-9.5" width="96.6875" height="19" style="fill: rgb(0, 0, 0); fill-opacity: 0;"/></g><g class="traces" transform="translate(0,52.5)" style="opacity: 1;"><text class="legendtext" text-anchor="start" x="40" y="4.680000000000001" style="font-family: 'Open Sans', verdana, arial, sans-serif; font-size: 12px; fill: rgb(42, 63, 95); fill-opacity: 1; white-space: pre;">Grid Meter</text><g class="layers" style="opacity: 0.5;"><g class="legendfill"/><g class="legendlines"><path class="js-line" d="M5,0h30" style="fill: none; stroke: rgb(0, 128, 0); stroke-opacity: 1; stroke-width: 2px;"/></g><g class="legendsymbols"><g class="legendpoints"/></g></g><rect class="legendtoggle" x="0" y="-9.5" width="96.6875" height="19" style="fill: rgb(0, 0, 0); fill-opacity: 0;"/></g></g></g><rect class="scrollbar" rx="20" ry="3" width="0" height="0" x="0" y="0" style="fill: rgb(128, 139, 164); fill-opacity: 1;"/></g><g class="g-gtitle"><text class="gtitle" x="328" y="50" text-anchor="middle" dy="0em" style="font-family: 'Open Sans', verdana, arial, sans-serif; font-size: 17px; fill: rgb(42, 63, 95); opacity: 1; font-weight: normal; white-space: pre;"><tspan class="line" dy="0em" x="328" y="50">Scenario 2</tspan><tspan class="line" dy="1.3em" x="328" y="50">Microgrid Output</tspan><tspan class="line" dy="2.6em" x="328" y="50">From: March 01, 2022 to February 28, 2023</tspan></text></g><g class="g-xtitle"><text class="xtitle" x="328" y="460.8" text-anchor="middle" style="font-family: 'Open Sans', verdana, arial, sans-serif; font-size: 14px; fill: rgb(42, 63, 95); opacity: 1; font-weight: normal; white-space: pre;">Time</text></g><g class="g-ytitle"><text class="ytitle" transform="rotate(-90,33.840625,260)" x="33.840625" y="260" text-anchor="middle" style="font-family: 'Open Sans', verdana, arial, sans-serif; font-size: 14px; fill: rgb(42, 63, 95); opacity: 1; font-weight: normal; white-space: pre;">Demand (kW)</text></g></g></svg>