<svg class="main-svg" xmlns="http://www.w3.org/2000/svg" xmlns:xlink="http://www.w3.org/1999/xlink" width="700" height="500" style="" viewBox="0 0 700 500"><rect x="0" y="0" width="700" height="500" style="fill: rgb(255, 255, 255); fill-opacity: 1;"/><defs id="defs-82a04d"><g class="clips"><clipPath id="clip82a04dxyplot" class="plotclip"><rect width="540" height="320"/></clipPath><clipPath class="axesclip" id="clip82a04dx"><rect x="80" y="0" width="540" height="500"/></clipPath><clipPath class="axesclip" id="clip82a04dy"><rect x="0" y="100" width="700" height="320"/></clipPath><clipPath class="axesclip" id="clip82a04dxy"><rect x="80" y="100" width="540" height="320"/></clipPath></g><g class="gradients"/><g class="patterns"/></defs><g class="bglayer"/><g class="layer-below"><g class="imagelayer"/><g class="shapelayer"/></g><g class="cartesianlayer"><g class="subplot xy"><g class="layer-subplot"><g class="shapelayer"/><g class="imagelayer"/></g><g class="minor-gridlayer"><g class="x"/><g class="y"/></g><g class="gridlayer"><g class="x"><path class="xgrid crisp" transform="translate(116.00999999999999,0)" d="M0,100v320" style="stroke: rgb(255, 255, 255); stroke-opacity: 1; stroke-width: 1px;"/><path class="xgrid crisp" transform="translate(242.06,0)" d="M0,100v320" style="stroke: rgb(255, 255, 255); stroke-opacity: 1; stroke-width: 1px;"/><path class="xgrid crisp" transform="translate(368.1,0)" d="M0,100v320" style="stroke: rgb(255, 255, 255); stroke-opacity: 1; stroke-width: 1px;"/><path class="xgrid crisp" transform="translate(494.14,0)" d="M0,100v320" style="stroke: rgb(255, 255, 255); stroke-opacity: 1; stroke-width: 1px;"/></g><g class="y"><path class="ygrid crisp" transform="translate(0,402.14)" d="M80,0h540" style="stroke: rgb(255, 255, 255); stroke-opacity: 1; stroke-width: 1px;"/><path class="ygrid crisp" transform="translate(0,318.98)" d="M80,0h540" style="stroke: rgb(255, 255, 255); stroke-opacity: 1; stroke-width: 1px;"/><path class="ygrid crisp" transform="translate(0,152.65)" d="M80,0h540" style="stroke: rgb(255, 255, 255); stroke-opacity: 1; stroke-width: 1px;"/></g></g><g class="zerolinelayer"><path class="yzl zl crisp" transform="translate(0,235.82)" d="M80,0h540" style="stroke: rgb(255, 255, 255); stroke-opacity: 1; stroke-width: 2px;"/></g><path class="xlines-below"/><path class="ylines-below"/><g class="overlines-below"/><g class="xaxislayer-below"/><g class="yaxislayer-below"/><g class="overaxes-below"/><g class="plot" transform="translate(80,100)" clip-path="url(#clip82a04dxyplot)"><g class="scatterlayer mlayer"><g class="trace scatter trace7fc539" style="stroke-miterlimit: 2; opacity: 0.5;"><g class="fills"/><g class="errorbars"/><g class="lines"><path class="js-line" d="M0,159.45L0.56,159.49L0.75,159.78L1.69,159.37L1.88,160.24L2.06,160.14L2.25,161.24L3.75,158.85L3.94,162.55L4.31,157.63L4.88,159.19L5.06,160.79L5.63,160.76L5.81,150.82L6.56,135.74L6.75,135.77L6.94,135.86L8.25,135.71L8.44,135.84L8.63,135.82L8.82,137.35L9.94,133.96L10.13,135.86L10.69,135.77L10.88,76.37L11.07,46.64L11.63,49.52L11.82,54.44L13.13,128.69L13.32,139.99L13.88,160.84L14.25,160.75L14.44,160.79L18.01,159.96L18.19,159.07L18.38,159.16L18.57,160.17L18.76,160.78L19.32,160.07L19.51,159.5L20.07,159.92L20.26,159.84L20.44,159.47L21.19,159.77L21.38,159.5L21.57,159.59L22.32,159.44L22.51,162.56L23.45,153.95L23.63,160.79L24.2,135.81L24.38,161.91L24.57,134.67L25.13,139.48L25.32,140.26L26.07,135.51L26.26,136.08L26.45,135.86L27.38,135.56L27.57,109.64L27.76,101.96L27.95,104.32L28.13,19.73L28.32,16L28.51,17.6L28.7,101.88L28.89,124.94L29.07,50.34L29.26,49.74L29.45,42.68L32.64,160.76L32.82,160.39L33.57,160.74L33.76,159.89L34.51,160.65L34.7,159.71L35.45,160.76L35.64,160.29L35.82,160.29L36.95,159.78L37.14,160.52L38.45,159.81L38.64,160.74L40.14,159.77L40.33,162.55L41.26,157.96L41.45,153.48L42.01,154.39L42.39,140.3L42.58,135.51L42.95,135.8L43.14,161.96L44.08,134.4L44.27,135.47L44.64,136.45L44.83,135.88L45.02,129.81L45.39,91.86L45.77,103.7L45.95,161.4L46.33,160.68L46.52,134.93L46.89,157.5L47.27,141.42L47.45,136.9L49.14,162.63L49.33,160.77L49.52,160.49L49.7,156.74L50.08,160.4L50.27,160.52L50.83,159.71L51.02,160.67L51.96,160.43L52.14,160.62L53.27,160.09L53.46,160.77L55.14,159.45L55.33,159.54L55.52,159.5L55.71,160.23L58.33,159.52L58.52,159.65L58.71,159.22L58.9,159.33L59.08,160.74L60.21,160.76L60.4,156.11L60.77,162.31L61.33,135.64L61.52,135.72L61.71,135.38L62.27,135.81L62.46,135.84L62.83,135.79L63.02,117.2L63.4,22.95L63.77,25.98L63.96,27.25L64.33,19.42L64.71,20.99L64.9,103.27L65.09,107.25L65.27,24.78L66.21,124.19L66.4,49.88L67.52,160.82L68.09,160.8L68.27,160.76L69.21,160.75L69.4,160.72L70.15,160.42L70.34,160.08L70.52,160.77L71.09,160.47L71.27,159.77L71.46,160.67L72.03,160.17L72.21,159.56L72.78,160.51L72.96,160.23L73.15,159.41L73.34,160.3L73.71,159.11L73.9,158.99L74.65,161L74.84,160.76L75.03,158.96L75.59,159.67L75.96,159.54L76.15,159.89L76.9,156.97L77.09,160.88L77.46,160.74L77.65,145.72L77.84,161.98L78.21,134.61L78.4,135.74L79.15,135.74L79.34,117.84L79.72,23.28L80.09,104.9L80.28,105.79L80.47,19.05L80.84,108.21L81.03,109.49L81.22,124.35L81.4,47.6L81.59,44.5L81.78,50.82L81.97,50.7L82.15,42.26L82.34,53.31L82.53,52.94L82.72,57.3L82.9,63.3L83.09,50.2L83.28,42.23L84.59,87.69L84.78,97.14L86.28,160.82L86.47,160.73L89.47,160.8L89.66,160.74L91.16,160.61L91.34,161.03L92.47,159.72L92.66,160.46L93.22,160.76L93.41,160.43L93.59,162.57L93.78,158.77L94.35,160.76L94.53,162.6L95.66,156.85L95.85,145.65L96.78,135.58L96.97,136L98.1,135.57L98.28,137.42L98.85,134.03L99.03,71.63L99.6,42.3L99.78,55.23L99.97,62.04L100.16,60.28L100.53,63.78L100.72,62.64L100.91,147.95L101.29,52.66L101.47,58.8L101.66,133.39L102.04,43.72L102.22,51.05L104.1,160.84L104.29,160.74L104.47,160.78L105.41,160.76L105.6,160.73L108.79,160.55L108.98,160.15L109.35,160.77L109.54,162.58L109.91,158.27L110.48,159.26L110.66,159.14L110.85,159.2L111.04,160.42L111.23,160.37L111.41,159.54L111.98,159.73L112.16,159.62L112.35,159.49L112.54,159.72L112.73,162.55L113.1,158.95L113.48,160.73L113.66,145.45L114.23,135.76L114.6,135.79L114.79,161.92L114.98,160.69L115.35,160.98L115.54,134.58L115.73,135.56L115.92,160.67L116.1,159.32L116.29,134.71L117.42,141.03L117.6,134.14L118.35,135.85L118.54,135.79L119.48,135.95L119.67,151.84L120.04,161L120.6,160.75L120.79,160.49L121.73,160.78L121.92,160.73L126.61,160.76L126.79,160.76L127.54,160.74L127.73,160.04L128.48,160.4L128.67,162.55L129.04,157.51L129.42,160.44L129.61,159.54L130.73,160.78L130.92,160.78L131.11,162.39L131.3,158.94L131.67,160.79L131.86,160.75L134.11,160.78L134.3,160.54L135.8,161.08L135.98,160.81L138.24,160.72L138.42,160.8L139.74,160.74L139.92,162.61L140.3,158.91L140.86,160.76L141.05,160.77L144.99,160.19L145.18,161.04L146.3,159.8L146.49,160.16L146.68,160.17L147.05,160.52L147.24,159.11L147.43,158.75L147.61,158.86L147.8,160.14L148.18,159.45L148.55,160.32L148.74,159.63L149.49,160.76L149.68,162.61L149.86,158.93L150.43,160.72L150.61,160.85L150.8,162.58L150.99,160.74L151.18,159L152.12,161.1L152.3,160.78L152.87,162.35L153.05,160.82L153.24,158.94L153.43,161.01L153.62,160.52L153.8,162.6L153.99,145.1L154.55,160.78L154.74,160.83L155.87,160.72L156.05,160.77L157.55,160.8L157.74,162.53L158.3,158.94L158.49,160.75L158.68,204.45L159.06,261.44L159.24,179L159.43,177.66L159.81,178.11L160.56,174.64L160.74,175.82L161.68,161.7L161.87,161.38L162.06,162.9L162.43,160.79L162.62,162.57L162.81,161.49L162.99,160.94L163.37,162.13L163.56,162.1L163.74,159.65L164.31,160.96L164.49,160.7L164.68,159.61L165.06,161.73L165.24,160.6L165.43,160.1L165.62,159.58L166,160.18L166.18,172.14L166.37,172.64L166.56,159.65L166.93,161.46L167.12,173.59L167.87,175.23L168.06,174.1L168.25,162.17L169.37,188.71L169.75,186.28L169.93,174.35L170.12,178.07L170.31,260.17L170.5,257.63L170.68,173.33L171.06,256.78L171.43,191.28L171.62,192.95L171.81,192.5L172,192.62L172.18,196.47L172.75,181.29L172.94,271.81L173.12,274.49L173.31,200.81L173.69,189.93L173.87,270.11L174.06,257.37L174.25,177.28L175,170.23L175.19,181.2L175.37,182.17L175.56,180.89L175.75,262.35L176.12,259.97L176.31,177.01L177.06,161.31L177.25,163.32L177.44,163.48L177.62,161.01L178.19,162.23L178.37,161.15L178.56,159.85L178.75,161.9L179.12,160.11L179.31,160.19L179.87,159.98L180.06,160.99L180.63,161.57L180.81,159.99L181,160.38L181.19,159.56L181.56,161.08L181.75,160.73L182.13,159.32L182.69,159.57L182.88,161.08L183.44,159.7L183.63,242.18L183.81,242.76L184,159.11L184.19,158.69L184.38,158.96L184.56,160.82L184.75,161.64L184.94,160.21L185.13,175.65L185.69,173.71L186.25,196.3L186.44,184.58L187.19,230.59L187.38,217.53L187.57,299.07L187.75,301.57L187.94,293.65L188.88,185.53L189.07,182.84L189.44,186.52L189.63,199.95L189.82,199.92L190,191.69L190.94,199.51L191.13,189.22L192.63,174.41L192.82,168.98L193.94,163.66L194.13,246.24L194.51,245.36L194.69,163.83L195.44,159.98L195.82,160.61L196.01,161.55L196.76,159.8L196.94,160.51L197.13,160.36L197.51,161.2L197.69,159.28L198.07,159.15L198.26,160.41L198.44,160.93L198.63,159.85L198.82,160.17L199.01,160.11L199.38,243.33L199.57,159.79L199.76,159.66L200.88,159.21L201.07,159.43L201.82,159.32L202.01,171.5L202.76,171.32L202.95,171.57L203.13,162.6L203.51,172.65L203.7,173.43L204.82,182.59L205.01,183.22L205.38,179.81L205.57,181.23L205.76,285.77L206.7,172.7L206.88,177.52L207.26,274.28L207.82,268.29L208.01,267.02L208.2,180.81L208.76,188.78L208.95,183.58L209.7,189.3L209.89,186.2L210.07,179.98L210.64,182.4L210.82,192.54L211.01,189.63L211.39,190.85L211.57,176.25L212.51,172.48L212.7,173.3L212.89,173.01L213.07,160.88L213.82,159.19L214.01,160.14L214.39,160.8L214.57,160.17L214.76,159.1L215.51,159.94L215.7,159.4L215.89,159.61L216.26,158.75L216.64,159.34L216.83,159.63L218.14,159.25L218.33,241.71L218.51,242.19L218.7,159.45L219.45,158.77L219.64,170.41L220.58,170.38L220.76,181.93L220.95,181.68L221.14,183.21L221.33,185.16L221.51,197.28L221.7,198.26L221.89,194.17L222.08,201.92L222.45,190.09L222.64,190.6L223.01,195.37L223.39,190.58L223.58,191.03L223.77,261.91L224.14,177.15L224.33,176.58L224.52,260.04L224.89,171.75L225.08,170.84L225.27,169.96L225.45,173.44L225.64,175.25L225.83,187.83L226.2,193.36L226.39,208.13L226.95,222.3L227.14,218.24L227.33,216.22L228.27,180.68L228.45,191.89L228.64,183.54L229.77,176.2L229.95,176.5L230.14,164.19L230.89,160.58L231.08,160.64L231.27,160.76L231.46,161.14L231.64,159.66L232.39,161.2L232.58,159.3L233.33,159.83L233.52,159.08L234.27,159.63L234.46,159.14L235.21,159.99L235.39,159.5L235.58,159.46L236.33,159.18L236.52,171.1L237.46,158.96L237.65,158.68L238.4,158.6L238.58,158.39L238.96,158.51L239.15,164.81L239.33,171.51L239.52,254.3L240.08,261.96L240.27,176.27L240.46,173.54L240.65,175.85L240.83,182.27L241.58,212.33L241.77,186.6L242.15,178.1L242.52,180.73L242.71,182.23L243.65,199.62L243.83,188.42L244.96,211.03L245.15,210.14L245.34,203.23L245.71,189.65L245.9,184.91L246.65,170.34L247.02,171.86L247.21,193.72L247.4,194.06L247.59,202.04L247.77,203.61L247.96,202.8L248.15,199.95L249.46,160.52L249.65,160.95L249.84,161.78L250.21,160.32L250.4,159.72L250.59,160.34L250.77,160.25L250.96,171.95L251.15,174.09L251.71,171.97L251.9,171.79L252.28,171.3L252.65,171.74L252.84,159.04L253.4,160.41L253.59,160.01L253.78,159.52L254.9,159.13L255.09,171.03L255.28,171.21L255.46,159.23L256.03,159.2L256.21,241.93L256.96,159.48L257.15,163.9L258.09,186.77L258.28,269.36L258.46,188.08L259.03,197.46L259.22,263.95L259.97,176.95L260.15,178.7L260.34,189.02L260.53,190.91L260.72,273.39L261.28,191.62L261.47,286.97L262.03,199.23L262.22,213.41L262.4,289.93L262.59,295.62L262.78,212.37L262.97,215.16L263.34,214.6L263.53,203.96L263.9,205.43L264.09,199.47L264.28,208.05L264.65,192.86L264.84,190.88L265.03,192.99L265.22,188.26L265.4,185.38L265.59,169.32L265.78,250.04L265.97,252.06L266.15,167.7L266.34,249.21L266.72,164.11L266.91,163.99L267.28,176.74L267.66,175.8L267.84,174.53L268.03,172.87L268.41,175.45L268.59,173.91L268.78,160.6L269.16,161.79L269.34,160.46L269.53,159.96L269.91,159.66L270.28,161.29L270.47,161.01L270.66,160.43L271.59,159.24L271.78,159.4L271.97,160.68L273.28,159.56L273.47,159.68L274.22,159.25L274.41,159.39L274.6,159.43L274.97,159.32L275.16,160.77L275.72,165.46L275.91,260.81L276.1,284.92L276.28,284.9L276.47,202.67L276.66,203.14L276.85,214.55L277.03,214.54L277.22,273.54L277.41,273.5L277.6,190.28L277.78,188.76L277.97,176.32L278.35,162.5L278.53,245.84L278.72,247.82L278.91,166.15L279.1,163.98L279.47,167.48L279.66,166.41L279.85,165.75L280.03,167.92L280.41,173.64L280.78,170.21L280.97,166.21L281.35,175.41L281.54,174.23L281.72,254.53L281.91,253.85L282.1,170.42L282.29,169.44L282.47,181.93L283.79,176.27L283.97,165.34L284.72,161.64L284.91,162.44L285.1,174.14L285.29,171.07L285.85,173.11L286.04,172.77L286.22,172.56L286.41,172.83L286.6,161.47L286.79,161.65L286.97,159.92L287.54,159.5L287.72,161.24L287.91,160.87L288.1,160.09L289.23,160.16L289.41,160.74L289.6,160.88L289.79,159.21L290.16,158.82L290.35,159.71L290.54,160.19L290.73,159.33L291.29,159.57L291.48,159.58L291.66,159L292.04,159.53L292.23,160.57L292.41,255.6L292.79,171.76L292.98,159.73L293.54,186.23L293.73,269.6L293.91,258L294.1,258.24L294.29,164.86L295.23,177.38L295.42,176.04L295.79,251.15L295.98,170.59L296.17,169.65L297.1,298.66L297.29,300.3L297.48,304L297.67,218.42L298.79,183.49L298.98,184.14L300.48,210.68L300.67,205.93L301.23,204.34L301.42,190.68L301.6,189.81L301.79,174.04L302.73,166.02L303.11,167.12L303.29,165.46L303.48,166.92L303.67,163.28L303.86,162.37L304.23,164.52L304.61,162.33L304.79,162.47L305.54,160.65L305.73,161.83L305.92,162.44L306.11,162.12L306.29,160.35L307.42,160.61L307.61,160.37L307.79,159.5L308.17,160.01L308.36,171.25L308.54,254.03L309.11,171.89L309.29,159.96L310.61,159.54L310.8,242.38L310.98,254.55L311.17,175.25L311.55,184.48L311.73,291.11L311.92,279.8L312.3,299.94L312.48,221.42L313.8,135.77L313.98,135.86L315.48,135.87L315.67,135.77L316.05,149.29L316.23,133.81L316.42,135.81L316.61,136.07L317.36,135.79L317.55,136.05L317.74,135.87L319.05,135.69L319.24,135.99L320.36,161.01L320.55,160.8L321.86,160.74L322.05,162.33L322.61,158.94L322.99,160.78L323.17,160.61L323.36,160.28L323.74,160.78L323.92,161.03L324.86,160.76L325.05,160.75L325.99,160.2L326.18,159.74L326.36,160.21L326.55,159.59L326.74,159.09L326.93,159.15L327.11,160.15L327.3,161.02L327.68,160.77L327.86,159.52L328.24,159.81L328.43,162.56L328.99,160.74L329.18,148.37L329.36,147L329.55,139.31L329.74,161.91L330.11,160.67L330.3,134.67L330.68,136.03L331.24,135.77L331.43,135.51L332.18,136.37L332.37,135.77L332.55,135.82L334.43,135.81L334.62,136.66L335.18,135.78L335.37,135.83L335.55,135.86L336.12,135.53L336.3,136.19L337.43,135.86L337.62,138.39L337.8,162L338.37,159.21L338.56,160.78L340.24,160.61L340.43,159.34L340.99,160.75L341.37,160.21L341.56,160.59L341.93,160.76L342.12,160.31L342.31,160.14L343.43,160.7L343.62,160.7L344.37,160.19L344.56,159.37L345.12,162.33L345.31,157.65L345.68,160.78L346.06,160.03L346.25,160.12L347.37,156.64L347.56,149.33L348.31,135.76L348.5,161.91L348.68,160.63L348.87,134.57L349.06,136L349.62,135.78L349.81,135.71L350.75,136.05L350.93,135.65L351.12,135.48L351.31,135.79L351.5,137.82L351.68,150.92L352.06,133.98L352.25,135.6L353.19,136.08L353.37,135.88L354.12,135.85L354.31,137.67L354.5,135.93L354.69,143.85L354.87,134.54L355.44,135.88L355.62,135.9L356.19,152.86L356.37,160.23L357.12,160.77L357.31,160.37L357.5,160.12L357.69,161.03L357.87,160.78L358.06,160.77L358.81,160.77L359,158.75L359.56,160.46L359.94,160.18L360.13,159.94L361.44,159.85L361.63,159.46L362.38,159.48L362.56,159.28L363.31,159.47L363.5,159.12L363.69,160.98L364.25,159.33L364.44,159.32L364.63,158.9L364.81,160.94L365.38,160.74L365.56,162.25L366.13,135.47L366.5,135.74L366.69,135.77L368.38,135.82L368.57,137.95L368.75,135.82L368.94,147.18L369.5,133.77L369.88,135.87L370.07,135.72L370.25,135.84L370.44,137.63L371,133.95L371.38,135.55L371.57,135.8L372.5,135.9L372.69,135.84L373.63,135.92L373.82,135.87L374.38,160.8L374.94,160.75L375.13,160.75L375.69,160.43L375.88,159.88L376.44,160.69L376.63,160.13L376.82,159.57L377.01,160.72L377.38,159.19L377.57,159L378.32,160.77L378.51,160.29L378.69,160.1L379.82,160.41L380.01,159.23L380.76,159.59L380.94,159.23L381.51,160.99L381.7,159.5L381.88,162.55L382.26,157.48L382.45,160.02L382.63,159.47L383.01,151.65L383.2,160.7L383.57,160.72L383.95,139.62L384.13,140.07L384.32,161.88L384.7,134.26L385.26,135.57L385.45,135.49L386.38,135.82L386.57,135.89L388.07,135.85L388.26,135.83L388.45,135.47L388.82,135.83L389.01,136.13L389.39,135.81L389.57,137.41L389.76,146.1L390.32,139.89L390.51,136.24L390.89,135.78L391.26,138.5L391.45,150.38L391.82,162.43L392.39,160.79L392.57,158.95L392.95,160.79L393.32,160.44L393.51,159.95L394.82,159.49L395.01,159.52L395.95,159.07L396.14,159.18L396.33,159.9L396.89,159.39L397.08,159.55L400.08,158.9L400.26,160.97L401.2,148.31L401.39,162.15L402.14,134.59L402.33,135.73L402.89,135.75L403.08,136.02L404.2,135.57L404.39,135.81L404.77,135.55L405.33,135.88L405.52,135.78L407.02,135.6L407.2,97.34L407.95,30.44L408.14,45.51L410.02,147.15L410.2,158.57L410.96,160.8L411.14,160.73L411.33,160.78L411.71,160.76L411.89,162.6L412.46,158.93L412.83,160.77L413.02,160.76L413.77,160.77L413.96,160.76L414.89,160.76L415.08,159.74L415.46,159.75L415.64,161.01L416.21,160.76L416.39,159.03L417.33,160.98L417.71,160.77L417.9,160.77L418.08,158.91L418.46,160.99L418.65,160.76L418.83,160.74L419.02,160.17L419.21,162.52L419.96,134.59L420.33,135.71L420.52,135.75L422.02,135.82L422.21,123.16L423.52,19.29L423.71,21.92L424.84,42.06L425.02,54.04L425.4,138.33L425.59,137.48L425.77,40.33L425.96,35.96L426.34,38.38L426.52,46.77L428.21,160.97L428.77,160.75L428.96,160.78L431.21,160.57L431.4,159.81L431.96,159.61L432.15,160.32L432.34,159.73L432.53,159.12L432.71,159.6L432.9,160.66L433.46,160.25L433.65,160.07L434.21,159.4L434.59,159.62L434.78,159.42L436.09,159.03L436.28,162.55L437.78,135.73L438.34,136.02L438.53,135.77L439.09,135.73L439.28,77.96L439.65,54.81L439.84,126.38L440.03,126.91L440.22,116.98L440.4,139.53L440.59,62.72L440.97,77.96L441.15,72.49L441.34,57.83L441.53,47.05L441.9,68.32L442.09,67.81L442.47,60.24L442.84,64.76L443.03,62.63L444.15,39.37L444.34,45.42L445.09,114.19L445.28,147.47L445.84,161.11L446.03,160.79L446.22,160.82L446.97,160.51L447.16,160.76L447.34,160.75L447.53,162.6L447.72,160.51L447.91,158.92L448.47,160.8L448.66,160.74L448.84,160.59L450.16,160.69L450.34,160.76L451.09,159.76L451.28,160.37L451.66,160.22L451.84,160.72L452.03,159.65L452.41,159.97L452.59,159.09L453.34,160.33L453.53,159.66L453.72,159.87L454.66,157.89L454.85,152.62L455.22,146.53L455.41,146.87L455.6,162.09L456.53,135.5L456.72,135.89L458.41,135.67L458.6,151.2L458.97,161.18L459.16,134.21L459.91,136.01L460.1,135.92L460.85,135.78L461.04,87.93L461.97,35.97L462.35,50.76L462.54,41.49L463.85,131.77L464.04,150.4L464.41,160.8L464.79,160.77L464.97,160.74L465.35,161.03L465.54,162.6L465.91,158.94L466.47,160.77L466.66,160.76L467.79,160.62L467.97,159.89L468.16,160.66L468.73,160.37L468.91,160.52L469.1,160.76L469.29,160.12L469.48,159.18L469.66,159.06L469.85,159.96L470.04,160.78L470.6,160.13L470.79,159.49L471.54,162.59L471.73,158.49L471.91,160.32L472.48,159.68L472.66,157.99L473.23,160.93L473.41,153.93L474.16,135.44L474.35,135.63L474.54,135.86L474.73,136.01L474.91,162.13L475.29,134.33L475.85,136.13L476.04,135.79L476.23,134.01L476.6,135.83L476.79,96.14L476.98,32.52L477.54,36.13L477.73,118.31L477.92,119.05L478.1,35.43L478.29,22.51L478.85,27.27L479.04,25.86L479.79,52.27L479.98,136.67L480.35,142.27L480.54,68.17L480.73,68.19L480.92,77.98L482.42,160.83L482.79,160.75L482.98,160.77L485.42,160.78L485.61,159.85L485.98,160.77L486.17,159.88L486.36,159.35L487.48,160.77L487.67,160.27L487.86,159.16L488.04,160.98L488.23,160.78L488.42,160.76L488.61,160.77L488.79,159.41L489.54,159.56L489.73,160.57L489.92,162.58L490.11,157.62L490.48,160.98L490.67,161.03L491.8,159.53L491.98,156.15L492.73,135.67L492.92,135.71L493.11,135.81L493.86,136.04L494.05,135.62L494.23,135.85L494.42,140.48L495.36,119.73L495.55,55.87L495.92,75.07L496.3,56.16L496.48,63.2L497.05,161.16L497.42,134.76L497.61,138.08L497.8,139.13L497.99,135.74L498.36,135.56L498.55,135.92L498.74,125.94L499.49,113.46L499.67,122.39L500.61,160.77L500.99,159.69L501.17,160.77L501.36,162.58L501.92,160.78L502.11,158.95L502.3,160.58L502.86,160.27L503.05,160.41L503.24,159.82L503.61,160.02L503.8,160.53L505.3,160.25L505.49,159.59L505.68,160.05L505.86,159.94L506.05,162.56L506.24,157.83L506.8,160.06L506.99,159.82L507.74,159.57L507.93,159.37L508.11,159.37L508.3,160.99L509.43,160.71L509.61,154.85L510.18,160.07L510.55,135.55L510.74,135.73L511.68,136.07L511.87,137.67L512.05,135.84L512.24,112.56L512.43,47.36L512.8,48.41L512.99,121.26L513.18,128.64L513.55,122.11L513.74,35.39L513.93,22.02L514.49,30.34L514.68,28.06L515.05,48.33L515.62,46.61L515.8,48.98L516.18,34.33L516.37,38.72L516.55,49.27L518.81,160.78L518.99,160.75L519.18,160.76L520.87,160.26L521.06,159.31L521.24,160.55L521.81,160.06L521.99,160.24L522.18,160.63L522.37,159.39L522.56,160.04L522.74,160.05L523.12,160.4L523.31,159.3L523.49,160.47L524.06,159.97L524.24,159.12L524.43,160.99L524.62,158.88L524.99,160L525.18,159.4L525.37,159.88L525.93,159.54L526.12,159.19L526.31,159.43L526.5,162.55L526.68,160.74L526.87,150.03L527.25,160.88L527.43,159.55L527.62,140.93L527.81,135.48L528.37,135.69L528.56,135.73L528.75,136.26L528.93,111.02L529.12,59.83L529.5,127.71L529.68,117.12L529.87,106.54L530.06,28.6L530.62,149.71L530.81,70.72L531,73.73L531.18,73.47L531.37,63.3L531.56,54.22L531.75,68.64L531.93,55.1L532.12,66.43L532.5,72.04L532.68,69.95L532.87,64.13L533.06,81.07L533.44,53.91L533.62,59.37L534.37,46.2L534.56,55.52L534.75,56.85L534.94,68.14L536.62,160.8L536.81,160.74L537,160.77L539.62,160.5L539.81,159.64L540,160.25" style="vector-effect: non-scaling-stroke; fill: none; stroke: rgb(0, 191, 255); stroke-opacity: 1; stroke-width: 2px; opacity: 1;"/></g><g class="points"/><g class="text"/></g></g></g><g class="overplot"/><path class="xlines-above crisp" d="M0,0" style="fill: none;"/><path class="ylines-above crisp" d="M0,0" style="fill: none;"/><g class="overlines-above"/><g class="xaxislayer-above"><g class="xtick"><text text-anchor="middle" x="0" y="433" transform="translate(116.00999999999999,0)" style="font-family: 'Open Sans', verdana, arial, sans-serif; font-size: 12px; fill: rgb(42, 63, 95); fill-opacity: 1; white-space: pre; opacity: 1;"><tspan class="line" dy="0em" x="0" y="433">Apr 3</tspan><tspan class="line" dy="1.3em" x="0" y="433">2022</tspan></text></g><g class="xtick"><text text-anchor="middle" x="0" y="433" style="font-family: 'Open Sans', verdana, arial, sans-serif; font-size: 12px; fill: rgb(42, 63, 95); fill-opacity: 1; white-space: pre; opacity: 1;" transform="translate(242.06,0)">Apr 10</text></g><g class="xtick"><text text-anchor="middle" x="0" y="433" style="font-family: 'Open Sans', verdana, arial, sans-serif; font-size: 12px; fill: rgb(42, 63, 95); fill-opacity: 1; white-space: pre; opacity: 1;" transform="translate(368.1,0)">Apr 17</text></g><g class="xtick"><text text-anchor="middle" x="0" y="433" style="font-family: 'Open Sans', verdana, arial, sans-serif; font-size: 12px; fill: rgb(42, 63, 95); fill-opacity: 1; white-space: pre; opacity: 1;" transform="translate(494.14,0)">Apr 24</text></g></g><g class="yaxislayer-above"><g class="ytick"><text text-anchor="end" x="79" y="4.199999999999999" transform="translate(0,402.14)" style="font-family: 'Open Sans', verdana, arial, sans-serif; font-size: 12px; fill: rgb(42, 63, 95); fill-opacity: 1; white-space: pre; opacity: 1;">−100</text></g><g class="ytick"><text text-anchor="end" x="79" y="4.199999999999999" style="font-family: 'Open Sans', verdana, arial, sans-serif; font-size: 12px; fill: rgb(42, 63, 95); fill-opacity: 1; white-space: pre; opacity: 1;" transform="translate(0,318.98)">−50</text></g><g class="ytick"><text text-anchor="end" x="79" y="4.199999999999999" style="font-family: 'Open Sans', verdana, arial, sans-serif; font-size: 12px; fill: rgb(42, 63, 95); fill-opacity: 1; white-space: pre; opacity: 1;" transform="translate(0,235.82)">0</text></g><g class="ytick"><text text-anchor="end" x="79" y="4.199999999999999" style="font-family: 'Open Sans', verdana, arial, sans-serif; font-size: 12px; fill: rgb(42, 63, 95); fill-opacity: 1; white-space: pre; opacity: 1;" transform="translate(0,152.65)">50</text></g></g><g class="overaxes-above"/></g></g><g class="polarlayer"/><g class="smithlayer"/><g class="ternarylayer"/><g class="geolayer"/><g class="funnelarealayer"/><g class="pielayer"/><g class="iciclelayer"/><g class="treemaplayer"/><g class="sunburstlayer"/><g class="glimages"/><defs id="topdefs-82a04d"><g class="clips"/></defs><g class="layer-above"><g class="imagelayer"/><g class="shapelayer"/></g><g class="infolayer"><g class="g-gtitle"><text class="gtitle" x="350" y="50" text-anchor="middle" dy="0em" style="font-family: 'Open Sans', verdana, arial, sans-serif; font-size: 17px; fill: rgb(42, 63, 95); opacity: 1; font-weight: normal; white-space: pre;"><tspan class="line" dy="0em" x="350" y="50">Scenario 8</tspan><tspan class="line" dy="1.3em" x="350" y="50">Microgrid Output</tspan><tspan class="line" dy="2.6em" x="350" y="50">From: April 01, 2022 to April 30, 2022</tspan></text></g><g class="g-xtitle"><text class="xtitle" x="350" y="476.409375" text-anchor="middle" style="font-family: 'Open Sans', verdana, arial, sans-serif; font-size: 14px; fill: rgb(42, 63, 95); opacity: 1; font-weight: normal; white-space: pre;">Time</text></g><g class="g-ytitle"><text class="ytitle" transform="rotate(-90,27.168750000000003,260)" x="27.168750000000003" y="260" text-anchor="middle" style="font-family: 'Open Sans', verdana, arial, sans-serif; font-size: 14px; fill: rgb(42, 63, 95); opacity: 1; font-weight: normal; white-space: pre;">Demand (kW)</text></g></g></svg>