<svg class="main-svg" xmlns="http://www.w3.org/2000/svg" xmlns:xlink="http://www.w3.org/1999/xlink" width="700" height="500" style="" viewBox="0 0 700 500"><rect x="0" y="0" width="700" height="500" style="fill: rgb(255, 255, 255); fill-opacity: 1;"/><defs id="defs-156018"><g class="clips"><clipPath id="clip156018xyplot" class="plotclip"><rect width="437" height="320"/></clipPath><clipPath class="axesclip" id="clip156018x"><rect x="80" y="0" width="437" height="500"/></clipPath><clipPath class="axesclip" id="clip156018y"><rect x="0" y="100" width="700" height="320"/></clipPath><clipPath class="axesclip" id="clip156018xy"><rect x="80" y="100" width="437" height="320"/></clipPath></g><g class="gradients"/><g class="patterns"/></defs><g class="bglayer"/><g class="layer-below"><g class="imagelayer"/><g class="shapelayer"/></g><g class="cartesianlayer"><g class="subplot xy"><g class="layer-subplot"><g class="shapelayer"/><g class="imagelayer"/></g><g class="minor-gridlayer"><g class="x"/><g class="y"/></g><g class="gridlayer"><g class="x"><path class="xgrid crisp" transform="translate(109.14,0)" d="M0,100v320" style="stroke: rgb(255, 255, 255); stroke-opacity: 1; stroke-width: 1px;"/><path class="xgrid crisp" transform="translate(211.15,0)" d="M0,100v320" style="stroke: rgb(255, 255, 255); stroke-opacity: 1; stroke-width: 1px;"/><path class="xgrid crisp" transform="translate(313.15,0)" d="M0,100v320" style="stroke: rgb(255, 255, 255); stroke-opacity: 1; stroke-width: 1px;"/><path class="xgrid crisp" transform="translate(415.15,0)" d="M0,100v320" style="stroke: rgb(255, 255, 255); stroke-opacity: 1; stroke-width: 1px;"/></g><g class="y"><path class="ygrid crisp" transform="translate(0,387.52)" d="M80,0h437" style="stroke: rgb(255, 255, 255); stroke-opacity: 1; stroke-width: 1px;"/><path class="ygrid crisp" transform="translate(0,318.09000000000003)" d="M80,0h437" style="stroke: rgb(255, 255, 255); stroke-opacity: 1; stroke-width: 1px;"/><path class="ygrid crisp" transform="translate(0,179.20999999999998)" d="M80,0h437" style="stroke: rgb(255, 255, 255); stroke-opacity: 1; stroke-width: 1px;"/><path class="ygrid crisp" transform="translate(0,109.78)" d="M80,0h437" style="stroke: rgb(255, 255, 255); stroke-opacity: 1; stroke-width: 1px;"/></g></g><g class="zerolinelayer"><path class="yzl zl crisp" transform="translate(0,248.65)" d="M80,0h437" style="stroke: rgb(255, 255, 255); stroke-opacity: 1; stroke-width: 2px;"/></g><path class="xlines-below"/><path class="ylines-below"/><g class="overlines-below"/><g class="xaxislayer-below"/><g class="yaxislayer-below"/><g class="overaxes-below"/><g class="plot" transform="translate(80,100)" clip-path="url(#clip156018xyplot)"><g class="scatterlayer mlayer"><g class="trace scatter traceff4642" style="stroke-miterlimit: 2; opacity: 0.5;"><g class="fills"/><g class="errorbars"/><g class="lines"><path class="js-line" d="M0,148.65L1.52,148.65L1.67,149.96L1.82,148.98L1.97,164.02L2.88,148.65L3.04,148.65L3.34,203.62L3.79,203.32L3.95,162.32L4.86,148.65L5.01,147.82L5.46,134.87L5.62,135.91L5.77,106.68L5.92,138.76L6.38,105.22L6.53,124.1L6.68,114.15L6.83,112.88L7.13,113.3L7.29,141.58L7.59,146.04L7.74,131.7L8.04,135.94L8.2,85.13L8.65,132.2L8.8,77.01L8.96,130.74L9.11,87.57L10.02,148.65L10.17,148.65L11.08,148.65L11.23,153.58L11.38,158.49L11.69,150.31L11.84,156.47L11.99,150.61L12.14,152.17L12.75,151.43L12.9,150.64L13.21,149.55L13.36,153.07L13.66,152.01L13.81,150.7L14.12,151.57L15.03,148.65L15.18,148.91L15.33,149.72L15.79,148.71L15.94,148.65L18.21,148.65L18.37,203.34L18.52,123.12L19.13,147.09L19.28,152.87L19.58,142.78L19.73,146L19.88,181.57L20.19,138.67L20.8,146.5L20.95,133.87L21.1,144.29L21.25,120.46L21.71,141.35L21.86,125.57L22.01,136.19L22.16,107.24L22.31,100.08L22.46,100.13L22.62,138.94L23.38,148.65L23.53,148.65L26.26,148.65L26.41,150.86L26.71,148.65L27.32,148.97L27.47,148.65L27.93,150.15L28.23,148.65L28.38,148.94L28.69,149.39L29.3,148.73L29.45,148.89L29.75,149.22L30.05,148.65L30.21,149.61L31.12,148.65L31.27,148.65L31.42,149.62L31.88,148.66L32.03,148.65L32.63,148.65L32.79,203.6L33.7,148.65L33.85,147.94L34.3,148.65L34.46,147.29L34.91,133.24L35.06,186.26L35.97,103.11L36.13,136.34L36.43,143.95L36.58,129.11L36.73,143.77L36.88,124.74L37.19,127.04L37.34,203.89L37.8,119.84L38.25,148.7L38.4,142.37L39.31,149.52L39.47,150.31L39.62,154.61L39.77,150.05L39.92,209.84L40.38,128.61L40.83,157.02L40.98,151.53L41.74,148.65L41.89,148.65L42.05,148.65L42.2,150.42L43.11,148.68L43.26,148.77L43.41,149.29L43.87,148.66L44.02,148.65L47.81,148.65L47.97,153.71L48.12,206.19L48.27,127.83L48.72,172.24L48.88,143.82L49.18,148.65L49.33,200.13L50.39,88.87L50.55,115.03L51,87.43L51.3,89.39L51.46,114.38L52.22,92.53L52.37,136.48L53.13,148.65L53.28,148.65L54.49,148.65L54.64,153.22L54.8,155.7L54.95,150.13L55.4,154.38L55.55,149.83L55.86,149.1L56.01,150.98L56.16,149.23L56.31,148.75L56.47,150.82L56.92,148.79L57.07,148.65L57.22,150.23L57.68,148.83L57.83,148.65L57.98,150.41L58.44,148.74L58.59,148.65L60.11,148.65L60.26,148.65L60.56,156.56L61.17,155.38L61.32,151.22L62.23,148.65L62.39,148.65L62.54,153.33L62.99,148.91L63.14,192.27L64.21,116.31L64.36,108.22L64.51,109.21L64.66,140.92L65.42,148.65L65.57,148.65L69.52,148.65L69.67,155.72L69.82,150.42L69.97,157.42L70.43,151.21L70.58,151.43L70.89,151.93L71.04,149.32L71.19,155.08L71.64,151.9L71.8,149.28L72.4,148.95L72.56,152.09L72.71,149.49L72.86,148.65L73.16,149.95L73.31,150.44L73.62,148.79L73.92,148.88L74.07,159.28L74.98,148.65L75.14,149.26L75.44,149.65L75.74,148.65L75.89,204.42L76.05,123.12L76.65,196.32L76.81,171.35L76.96,199.47L77.11,134.56L77.41,143.31L77.56,145.27L77.72,148.65L77.87,140.65L78.02,137.23L79.08,118.68L79.23,123.09L79.39,114.54L79.54,116.4L79.69,148.19L79.84,142.84L79.99,143.55L80.14,89.6L80.75,83.22L81.06,148.65L81.21,148.65L83.94,148.65L84.09,149.42L84.85,161.96L85,159.82L85.15,162.13L86.22,149.46L86.37,150.05L86.67,149.6L86.82,151L86.97,149.2L87.13,148.89L87.28,150.46L87.58,148.65L88.19,148.9L88.34,148.71L88.64,149.23L88.8,203.24L89.71,148.65L89.86,148.65L90.01,149.4L90.62,148.65L90.77,148.65L91.23,148.65L91.38,202.73L92.29,148.65L92.44,137.14L92.74,141.79L92.89,137.05L93.05,180.65L93.65,108.9L93.81,138.71L93.96,148.65L94.11,148.87L94.26,148.7L94.41,105.69L94.72,105.12L94.87,155.76L95.17,146.7L95.32,94.9L95.48,135.11L96.08,132.47L96.23,109.33L96.54,109.2L96.99,194.78L97.3,192.92L97.45,159.72L97.6,195.7L98.06,159.09L98.21,174.91L98.36,155.11L98.51,166.18L98.97,152.44L99.12,158.35L99.27,151.48L99.42,156.7L100.03,156L100.18,150.4L100.33,156.49L100.79,150.02L100.94,152.38L101.09,150.88L101.7,149.95L101.85,153.27L102,149.76L102.15,152.56L102.61,149.3L102.76,149.76L103.06,149.3L103.22,151.86L103.37,149.45L103.52,148.65L103.98,150.21L104.13,149.04L104.28,203.4L105.04,148.65L105.19,149.02L105.34,148.74L105.49,157.64L105.95,151.33L106.1,148.89L106.25,211.89L106.86,154.56L107.01,155.85L107.16,155.6L107.31,165.77L107.47,155.53L107.62,176.1L107.77,165.27L107.92,181.6L108.68,156.06L108.83,180.62L108.98,156.61L109.44,189.52L109.59,169.31L109.74,181.87L109.9,174.06L110.05,197.6L110.2,182.21L110.35,189.35L111.26,172.54L111.41,186.97L111.87,164.93L112.32,166.99L112.48,152.29L113.23,148.65L113.39,148.65L253.79,148.65L253.94,91.55L254.4,135.56L254.7,135.28L254.85,90.17L255.76,147.16L255.92,141.13L256.07,91.56L256.67,97.47L256.83,133.31L256.98,94.45L257.13,135.29L257.59,97.88L257.74,142.4L257.89,114.48L258.34,141.13L258.5,148.65L258.8,148.65L258.95,151.29L259.1,149.31L259.41,155.02L259.56,159.69L259.71,152.57L260.32,157.5L260.47,154.85L260.62,149.7L260.77,204.8L261.23,126.37L261.68,160.82L261.84,152.77L261.99,148.75L262.29,156.34L262.44,150.49L262.59,156.69L262.75,150.66L262.9,157.79L263.35,151.37L263.51,155.59L263.81,156.5L264.42,148.65L264.57,148.65L264.87,149.14L265.02,155.7L265.33,156.36L265.78,148.65L265.93,203.21L266.09,124.09L266.24,229.99L266.69,142.98L266.84,146.21L267,184.84L267.3,122.04L267.45,141.05L267.6,110.9L267.76,139.27L268.21,98.06L268.36,119.58L268.51,92.78L268.82,85.36L269.27,133.84L269.43,94.09L269.58,132.05L270.18,124.77L270.34,109.8L270.64,102.66L271.25,134.37L271.4,114.68L271.55,134.46L271.85,112.46L272.01,113.31L272.16,100.69L272.61,141.47L273.07,136.7L273.22,145.66L273.37,148.65L273.52,194.86L273.83,150.43L274.43,151.73L274.59,161.28L275.5,149.26L275.65,148.65L276.1,149.58L276.41,148.9L276.56,148.71L276.71,150.04L277.01,148.65L277.17,148.81L277.32,148.69L278.08,148.81L278.23,149.3L278.99,148.65L279.14,156.6L279.29,150.64L279.44,211.26L279.59,117.53L280.2,145.32L280.35,155.12L281.26,148.65L281.42,148.65L281.72,148.65L281.87,147L282.02,141.38L282.18,183.77L282.48,116.06L283.09,140.31L283.24,133.27L283.39,142L283.54,133.58L283.69,106.21L283.85,135.01L284.3,114.46L284.45,105.68L284.76,164.42L284.91,68.31L285.06,127.71L285.21,84.35L285.36,132.58L285.51,77.24L285.97,131.64L286.12,91.39L286.43,85.63L286.88,163.82L287.03,126.83L287.18,164.36L287.49,126.23L287.79,137.3L287.94,145.81L288.55,149.83L288.85,148.99L289.01,149.43L289.31,148.73L289.46,148.94L289.61,155.96L290.07,150.43L290.22,156.91L290.37,150.71L290.52,155.45L291.43,148.65L291.59,148.65L292.65,148.65L292.8,148.65L294.32,148.65L294.47,155.45L294.77,155.93L295.23,148.65L295.38,151.8L295.53,149.44L295.68,159.89L295.84,151.46L295.99,202.61L296.44,100.76L296.75,103.37L296.9,136.37L297.66,93.24L297.81,114.14L297.96,87.86L298.11,120L298.27,89.68L298.42,172.13L298.72,210.75L298.87,58.95L299.18,69.11L299.33,144.09L299.48,78.76L299.93,163.01L300.09,116.4L300.24,138.79L301,148.65L301.15,148.65L302.82,148.65L302.97,150.5L303.43,153.6L303.73,151.22L303.88,149.15L304.03,149.85L304.34,148.65L304.49,149.18L304.64,148.78L305.25,149.82L305.4,148.94L305.55,148.65L306.16,149.33L306.31,148.82L306.46,148.65L307.22,148.65L307.37,150.36L308.28,148.65L308.43,148.65L308.74,148.65L308.89,156.42L309.04,150.59L309.19,202.99L310.1,148.65L310.26,152.3L311.02,148.65L311.17,183.14L311.93,96.43L312.08,135.05L312.23,96.59L312.53,148.65L312.68,148.65L312.84,148.65L317.09,148.65L317.24,198.51L317.54,201.13L317.69,129.03L318,140.38L318.15,166.32L319.06,148.65L319.21,148.65L323.92,148.65L324.07,155.16L324.83,148.65L324.98,188.23L326.19,92.79L326.35,110.18L326.5,87.57L326.8,98.13L326.95,137.65L327.71,148.65L327.86,148.65L332.11,148.65L332.27,154.49L332.87,149.63L333.18,149.7L333.33,151.29L333.78,205.61L333.94,125.47L334.09,179.3L334.24,138.42L334.39,165.93L335,155.68L335.15,150.4L335.61,156.61L335.76,150.63L335.91,148.65L336.36,148.65L336.52,155.55L337.43,148.65L337.58,148.65L337.73,148.65L337.88,155.73L338.64,148.65L338.79,155.22L339.25,149.09L339.4,201.21L339.55,108.53L339.7,217.87L340.16,113.69L340.31,126.64L341.07,83.51L341.22,121.09L341.52,123.5L341.68,75.01L341.83,159.51L342.28,62.36L342.59,150.4L342.74,148.65L346.53,148.65L346.69,160.27L347.44,150.9L347.6,160.76L348.51,149.05L348.66,149.28L349.27,148.65L349.42,150.85L350.33,148.65L350.48,149.72L351.39,148.65L351.54,148.65L353.06,148.65L353.21,203.06L354.12,148.65L354.28,145.87L355.49,111.05L355.64,119.97L356.55,148.65L356.7,148.65L360.5,148.65L360.65,162.12L360.8,152.02L360.95,177.67L361.11,158.69L361.26,176.21L362.02,152.23L362.17,159.93L362.32,207.02L362.78,129.3L363.23,158.12L363.38,151.79L364.29,148.69L364.44,149.46L365.2,148.65L365.36,149.53L366.27,148.66L366.42,148.65L366.72,148.65L366.87,149.89L367.78,148.65L367.94,148.65L368.7,148.65L368.85,184.24L369.61,115.16L369.76,140.52L369.91,140.02L370.06,120.35L370.21,130.38L370.36,106.22L370.67,122.31L370.82,112.41L371.12,97.08L371.28,175.63L371.58,144.58L371.73,110.22L372.49,142.33L372.64,141.49L372.79,126.18L373.1,118.91L373.25,138.69L373.4,110.96L373.86,148.65L374.01,148.65L375.53,148.65L375.68,149.58L375.83,148.99L375.98,153.57L376.44,149.71L376.59,151.81L376.74,157.01L376.89,209.25L377.2,153.5L377.35,156.33L377.5,153.15L377.65,156.41L377.95,149.02L378.11,149.48L378.56,150.53L378.86,148.65L379.02,149.83L379.93,148.65L380.08,148.65L380.38,148.93L380.53,150.12L381.45,148.65L381.6,148.71L381.75,202.89L381.9,125.81L382.36,163.25L382.51,149.33L382.81,149.1L382.96,148.65L383.11,153.22L383.42,146.93L383.57,135.12L383.72,145.38L384.03,120.52L384.18,125.4L384.33,120.62L384.48,166.42L384.78,100.5L385.09,112.46L385.24,160.43L386.15,104.18L386.3,139.53L387.06,148.65L387.21,148.65L390.1,148.65L390.25,151.88L390.55,160.19L390.86,157.13L391.01,153.55L391.31,151.28L391.46,158.05L391.77,154.95L391.92,154.42L393.13,148.65L393.28,149.05L393.44,148.75L394.5,148.71L394.65,149.06L394.95,148.65L395.11,155.42L395.71,155.47L396.02,148.65L396.17,148.65L396.47,148.87L396.62,202.65L396.78,124.42L397.38,155.49L397.53,162.11L398.6,131.35L398.75,139.6L399.2,108.28L399.36,139.66L399.51,145.28L399.81,141.27L399.96,119.63L400.12,115.08L400.27,154.48L400.42,151.49L400.57,108.85L400.87,105.98L401.33,138.45L401.48,119.21L402.39,176.54L402.54,116.62L402.7,160.57L403.3,144.36L403.45,148.65L404.97,148.65L405.12,150.03L405.58,148.65L405.73,149.46L405.88,202.59L406.34,148.81L406.79,149.22L406.95,148.79L407.1,149.25L407.55,148.65L407.7,148.65L407.86,150.22L408.31,148.65L408.46,148.65L409.53,148.65L409.68,203.56L409.83,123.24L410.44,149.47L410.59,151.08L411.5,148.65L411.65,148.65L411.8,148.65L411.95,154.59L412.26,158.33L412.71,143.55L412.87,147.45L413.02,148.65L413.93,90.82L414.08,104.93L414.23,140.82L414.99,148.65L415.14,148.65L419.54,148.65L419.7,154.05L420.61,149.09L420.76,150.65L421.06,148.65L421.67,148.83L421.82,148.65L421.97,150.15L422.58,149.79L422.73,148.94L423.04,149.17L423.19,148.78L423.34,149.4L423.79,150.46L424.25,148.66L424.4,148.65L426.07,148.65L426.22,202.92L427.13,148.65L427.29,145L427.44,142.71L427.59,121.85L427.74,121.44L427.89,107.47L428.96,148.65L429.11,148.65L434.12,148.65L434.27,150.99L434.42,152.96L434.57,149.58L434.87,149.84L435.03,148.73L435.18,152.99L435.63,149.13L435.79,148.7L436.7,150.44L436.85,149.1L437,148.65" style="vector-effect: non-scaling-stroke; fill: none; stroke: rgb(0, 191, 255); stroke-opacity: 1; stroke-width: 2px; opacity: 1;"/></g><g class="points"/><g class="text"/></g><g class="trace scatter trace6481db" style="stroke-miterlimit: 2; opacity: 0.5;"><g class="fills"/><g class="errorbars"/><g class="lines"><path class="js-line" d="M0,148.81L3.95,148.39L4.1,146.5L5.31,96.16L5.46,88.3L6.83,16.14L6.98,16.22L7.13,16.19L9.26,16.27L9.41,16.4L9.71,25.34L9.87,34.24L11.99,148.82L12.14,148.82L18.52,148.6L18.67,147.72L20.19,107.96L20.34,113.79L21.25,89.28L21.4,90.58L21.55,93.32L22.16,58.47L22.31,28.93L22.46,28.93L22.62,27.25L22.77,29.4L22.92,20.5L23.38,16.1L23.53,18.87L23.68,28.41L23.83,16.3L24.29,22.94L24.44,42.35L26.56,148.82L26.71,148.81L33.24,148.22L33.39,146.33L36.13,68.28L36.28,83.41L36.43,88.73L36.58,80.55L36.73,81.01L36.88,76.6L37.34,102.22L37.95,101.19L38.1,101.18L38.25,96.46L38.55,106.16L38.71,109.85L40.98,148.81L41.13,148.81L47.81,148.49L47.97,147.97L48.88,133.55L49.03,114.89L49.18,117.64L49.48,110.56L49.63,95.66L50.39,16.09L50.85,16.21L51,16.25L53.13,16.33L53.28,17.48L54.34,98.1L54.49,125.88L55.4,148.73L55.55,148.82L62.08,148.73L62.23,147.8L62.99,118.35L63.14,106.72L64.66,16.11L65.12,16.14L65.27,16.24L67.7,16.45L67.85,18.21L69.22,114.27L69.37,125.78L70.43,148.82L70.58,148.82L76.65,148.72L76.81,147.8L77.56,117.73L77.72,106.01L79.23,16.19L79.54,16.34L79.69,16.36L82.27,16.46L82.42,17.19L83.18,62.02L83.33,73.81L84.85,148.82L85,148.82L91.23,148.62L91.38,147.39L92.14,117.96L92.29,105.36L93.81,16.27L94.11,16.33L94.26,16.38L96.54,16.68L96.69,21.41L97.6,148.65L97.75,148.65L253.49,148.65L253.64,143.36L254.55,18.29L254.7,25.92L255.61,16.25L255.76,16.34L256.67,16.47L256.83,17.72L257.28,16.98L257.59,27.57L257.74,60.94L258.04,47.79L258.19,70.85L259.41,148.74L259.56,148.81L265.93,148.79L266.09,148.36L266.54,132.45L266.69,124.1L268.51,16.1L268.67,16.11L268.82,16.15L270.79,16.18L270.94,16.14L272.01,16.6L272.16,19.95L274.43,148.82L274.59,148.82L280.66,148.63L280.81,147.91L281.87,113.59L282.02,105.47L282.33,80.65L282.48,68.65L282.93,103.64L283.24,89.4L283.39,81.49L283.69,35.28L283.85,49.81L284,74.21L285.06,16.6L285.21,21.45L285.36,29.78L285.51,16.08L285.82,16.09L285.97,16.1L286.43,16.1L286.58,16.92L287.34,65.97L287.49,78.74L289.01,148.82L289.16,148.82L295.08,148.58L295.23,147.37L296.14,104.77L296.29,94L297.66,16L297.96,16.05L298.11,16.09L301.15,16.79L301.3,20.84L303.58,148.82L303.73,148.81L303.88,148.81L309.65,148.62L309.8,147.63L311.17,106.63L311.32,48.36L311.47,46.93L311.62,55.53L311.77,84.94L312.08,42.18L312.23,45.14L312.38,50.3L312.99,67.29L313.14,56.71L313.29,61.47L313.9,34.08L314.05,34.89L314.2,50.67L314.66,25.39L315.11,96.79L315.27,96.87L316.18,116.84L316.33,111.4L316.48,106.96L316.63,109.17L316.78,133.13L317.85,148.77L318,148.81L324.22,148.64L324.37,147.84L324.98,125.65L325.13,112.67L326.65,16.13L326.95,16.15L327.1,16.19L329.99,16.49L330.14,16.52L330.29,16.52L330.44,17.71L331.35,83.97L331.51,97.69L332.72,148.82L332.87,148.82L338.79,148.35L338.94,146.12L339.86,101.77L340.01,89.63L341.22,16.08L341.52,16.2L341.68,16.16L344.86,16.52L345.02,18.76L347.44,148.83L347.6,148.82L353.36,148.3L353.52,146.09L354.28,111.65L354.43,99.15L355.79,16.05L356.1,16.11L356.25,16.17L359.44,16.87L359.59,20.39L362.02,148.82L362.17,148.82L367.94,148.17L368.09,144.97L369.3,94.94L369.45,72.18L369.61,66.49L369.76,76.06L369.91,71.9L370.06,38.86L370.36,25.17L370.52,32.37L370.67,51.84L371.12,17.13L371.43,49.89L371.58,68.23L372.19,21.1L372.34,27.62L372.49,49.26L372.64,49.11L372.79,30.36L373.25,34.55L373.55,16.21L373.7,16.26L373.86,16.35L374.61,43.77L374.77,57.5L376.44,148.82L376.59,148.82L382.51,148.2L382.66,145.59L383.27,119.23L383.42,100.98L385.09,16.14L385.24,16.15L385.39,16.17L387.21,16.35L387.37,16.3L388.58,16.79L388.73,20.36L391.16,148.82L391.31,148.81L397.38,148.07L397.53,145.99L398.14,136.09L398.29,128.55L399.05,44.06L399.36,68.83L399.51,93.61L399.81,77.01L399.96,48.45L400.12,16.65L400.72,39.75L400.87,40.03L401.03,34.29L401.18,44.13L401.33,56.11L401.48,58.52L401.63,48.85L401.78,40.95L401.94,65.56L402.09,77.45L402.24,65.12L402.54,80.73L402.7,98.87L402.85,103.69L403,94.58L403.15,81.61L403.61,106.55L403.76,113.51L404.21,93.03L404.37,101.75L404.52,115.08L405.58,148.82L405.73,148.81L411.8,148.17L411.95,145.98L413.17,89.35L413.32,53.62L414.38,16.01L414.54,16.07L417.72,16.83L417.87,20.16L420.3,148.82L420.46,148.82L426.07,148.72L426.22,147.65L427.44,102.22L427.59,85.46L428.65,16.05L428.8,16.11L428.96,16.13L431.99,16.82L432.14,19.14L432.29,19.64L432.45,19.01L432.6,27.14L434.87,148.82L435.03,148.81L437,148.81" style="vector-effect: non-scaling-stroke; fill: none; stroke: rgb(255, 0, 0); stroke-opacity: 1; stroke-width: 2px; opacity: 1;"/></g><g class="points"/><g class="text"/></g><g class="trace scatter trace43fb38" style="stroke-miterlimit: 2; opacity: 0.5;"><g class="fills"/><g class="errorbars"/><g class="lines"><path class="js-line" d="M0,168.77L0.15,167.91L0.76,168.7L0.91,168.31L1.21,167.92L1.67,169.15L1.82,183.41L2.73,168.03L2.88,167.91L3.04,167.95L3.19,223.5L3.49,168.53L3.64,223.87L4.1,171.54L4.25,175.92L5.46,139.99L5.62,127.41L5.92,124.52L6.07,142.92L6.22,113.59L6.53,108.72L6.68,122.9L6.83,111.45L6.98,113.43L7.13,159.85L7.74,144.15L7.89,132.44L8.65,82.02L8.8,140L9.41,76.31L9.71,85.21L9.87,82.87L11.38,176.95L11.54,171.21L11.69,174.57L12.14,170.62L12.29,173.09L12.45,171.48L12.6,172.54L13.05,171.27L13.21,172.34L13.36,170.18L13.81,172.62L14.12,170.32L14.27,168.52L14.72,168.08L15.18,169.78L15.33,169.51L15.79,168.13L16.09,168.68L16.24,168.49L16.39,169.04L16.54,168.24L16.85,168.47L17,168.34L17.15,168.88L17.76,168.29L17.91,168.68L18.06,168.34L18.21,223.97L18.37,127.53L18.97,151.03L19.13,172.62L19.58,146.91L19.73,198.08L20.64,141.27L20.8,142.21L20.95,143.91L21.1,124.73L21.25,148.81L21.71,130.05L21.86,139.05L22.46,155.67L22.92,47.89L23.07,49.86L23.22,106.07L23.38,137.08L23.68,82.76L23.83,68.35L24.29,65.46L26.41,169.69L26.56,169.44L26.71,168.72L27.17,169.46L27.32,168.73L27.47,168.67L27.93,169.39L28.08,168.33L28.23,168.68L28.38,169.27L28.69,169.56L29.3,168.46L29.45,169.31L30.36,168.34L30.51,169.08L30.96,169.25L31.12,168.37L31.27,169.48L31.72,169.25L31.88,168.37L32.48,168.99L32.63,223.74L33.55,164.44L33.7,159.13L34,167.38L34.76,134.52L34.91,198.11L35.37,199.66L35.82,115.29L35.97,141.88L36.13,119.76L36.28,145.73L36.73,128.65L36.88,137.08L37.04,127.93L37.19,209.92L37.64,124.76L37.95,139.15L38.1,169.16L38.25,144.04L38.86,149.1L39.01,153.67L39.47,171.79L39.62,171.11L39.77,226.66L40.22,128.11L40.53,145.34L40.68,176.28L40.83,160.24L41.44,169.37L41.59,168L42.5,169.4L42.65,168.85L42.96,169.26L43.11,168.46L43.26,169.65L43.87,168.33L44.32,168.76L44.47,169.05L44.63,168.22L45.08,168.76L45.23,169.3L46.14,168.18L46.3,168.79L47.21,168.33L47.36,168.6L47.66,168.04L47.81,169.96L47.97,226.46L48.12,132.82L48.57,189.52L48.72,148.73L49.18,216.23L49.48,156.89L49.63,143.33L49.94,118.76L50.09,123.51L50.24,91.58L50.39,115.49L50.55,89.3L51,111.37L51.15,94.25L51.46,90.92L51.61,113.87L51.91,110.13L52.06,93.64L52.37,67.45L52.67,125.44L52.82,68.65L53.73,141.56L53.89,99.05L54.04,94.56L54.19,111.31L54.34,135.21L55.25,176.29L55.4,167.39L55.55,172.84L56.16,168.8L56.31,169.99L56.62,168.3L56.92,168.51L57.07,169.73L57.68,168.39L57.83,169.3L57.98,169.33L58.44,168.17L58.59,168.95L58.74,169.35L59.8,168.02L59.96,168.15L60.11,169.03L60.26,169.2L60.41,176.42L61.02,176.5L61.32,168.19L61.47,167.98L61.63,168.82L62.08,168.23L62.23,167.29L62.69,173.46L62.84,168.57L62.99,216.13L64.05,123.11L64.21,113.99L64.36,113.26L64.51,105.86L64.81,120.07L64.97,70.45L65.12,50.37L65.27,107.79L65.42,125.41L65.57,126.2L65.72,131.74L66.03,69.07L66.64,73.52L66.79,84.17L67.09,92.49L67.39,72.29L67.55,77.61L67.7,88.57L67.85,78.84L68.3,91.5L68.46,109.5L68.61,110.29L68.76,119.34L70.43,174.58L70.58,171.56L70.73,172.6L71.04,170.55L71.19,169.78L71.34,169.18L71.49,170.79L71.64,171.94L71.8,169.66L72.4,170.31L72.56,169.83L72.71,168.74L73.16,170.82L73.31,170.3L73.47,168.94L73.77,169.48L73.92,177.22L74.38,163.64L74.83,168.63L74.98,168.87L75.29,169.99L75.59,169.67L75.74,224.26L75.89,127.74L76.5,216.57L76.65,193.12L76.81,222.27L76.96,138.16L77.11,190.3L77.26,150.7L77.41,167.82L77.87,144.53L78.02,136.95L78.32,122.17L78.63,131.02L78.78,129.69L79.39,114.63L79.54,161.6L79.99,86.06L80.3,89.27L80.45,131.28L80.75,141.97L81.21,84.15L81.36,88.78L81.51,87.86L81.66,143.58L81.81,160.56L81.97,92.15L82.12,83.46L82.27,138.32L82.42,138.71L82.57,84.82L82.72,74.21L83.03,97.1L83.18,107.18L84.7,183.46L84.85,182.84L85.15,180.4L85.31,182.33L85.46,177.52L85.61,180.59L85.76,173.08L85.91,171.2L86.06,170.09L86.22,171.57L86.67,171.14L86.82,170.25L87.58,168.82L87.73,169.75L87.89,169.73L88.34,168.45L88.49,169.7L88.64,225.27L89.4,168.08L89.56,168.24L89.71,168.03L90.01,169.28L90.47,168.74L90.62,168.27L90.77,168.94L90.92,168.05L91.07,168.87L91.23,223.62L92.29,147.63L92.44,144.15L92.59,149.19L92.74,139.48L92.89,196.73L93.5,119.84L93.65,139.02L93.81,165.57L93.96,167.39L94.11,162.47L94.26,109.24L94.56,104.43L94.72,178.17L95.02,162.81L95.17,99.68L95.32,139.03L95.93,135.05L96.08,104.85L97.14,215.01L97.3,180.5L97.45,214.16L97.9,178.56L98.06,202.66L98.21,176.53L98.66,186.27L98.81,173.66L98.97,181.92L99.12,172.37L99.27,178.79L99.42,172.16L99.88,176.17L100.03,171.88L100.18,174.49L100.64,170.17L100.79,171.46L100.94,170.71L101.09,173.4L101.24,171.51L101.39,172.73L102,170.13L102.15,170.15L102.31,171.67L103.06,169.05L103.22,169.61L103.37,168.61L103.67,169.21L103.82,168.36L103.98,169.26L104.13,223.27L104.58,168.23L104.73,169.33L104.89,168.8L105.04,168.24L105.19,169.18L105.34,176.2L105.95,168.87L106.1,227.38L106.56,171.97L107.01,176.26L107.16,178.94L107.31,178.33L107.47,194.63L107.77,205.73L108.23,177.58L108.38,195.39L108.53,175.42L108.68,198.17L109.14,178.19L109.29,207.57L109.44,188.3L109.9,213.75L110.05,199.44L110.2,211.28L111.11,196L111.26,203.88L112.02,185.34L112.17,189.29L112.32,187.83L113.39,261.55L113.54,256.53L113.69,198.17L114.75,174.77L114.9,176.14L115.06,176.92L115.21,173.67L115.36,175.63L115.51,171.08L115.66,172.41L115.81,171.27L115.97,174.33L116.42,171.43L116.57,169.97L116.73,172.58L117.18,171.95L117.33,168.76L117.64,181.02L118.09,169.56L118.24,169.97L118.55,168.44L118.85,168.63L119,170.85L119.31,167.8L119.76,169.93L119.91,168.56L120.06,168.65L120.22,170.64L120.37,168.13L120.82,170.49L120.98,171.01L121.13,226.37L121.73,180.51L121.89,176.32L122.04,241.39L122.65,187.8L122.8,190.95L122.95,183.16L123.25,203.89L123.4,214.6L123.56,220.08L123.71,261.65L124.32,210.84L124.47,269.01L124.77,304L124.92,242.41L125.07,231.31L125.38,241.39L125.53,226.61L125.68,221.67L126.29,195.92L126.74,203.1L126.9,199.49L127.2,195.67L127.35,198.1L127.5,184.01L127.81,247.61L128.11,176.32L128.26,176.33L128.72,251.96L129.02,184.57L129.17,182.24L129.48,183.87L129.63,181.46L129.78,182.79L129.93,172.39L130.39,170.21L130.54,170.76L130.69,172.02L131.45,168.73L131.6,170.84L131.75,170.8L131.9,169.16L132.36,171.66L132.51,168.74L132.66,168.76L132.82,170.86L133.27,168.97L133.42,168.28L133.57,170.52L134.03,168.87L134.18,168.16L134.48,176.61L134.64,179.6L134.79,178.85L134.94,170.35L135.09,170.29L135.24,177.89L135.85,182.15L136,172.6L136.15,170.63L136.31,171.78L136.46,178.08L136.76,183.54L136.91,190.59L137.22,193.89L137.37,190.75L137.52,182.81L137.67,181.87L137.82,241.44L138.13,181.47L138.43,250.45L138.58,201.61L138.73,194.06L139.49,201.85L139.65,191.73L139.8,187.3L139.95,248.21L140.1,261.76L140.25,214.4L140.4,203.62L140.56,193.55L140.71,248.91L140.86,259.05L141.01,198.42L141.47,178.82L141.77,183.13L141.92,188.41L142.07,185.86L142.23,241.9L142.38,252.84L142.53,197.08L143.29,170.18L143.44,170.28L143.59,173.05L144.5,168.27L144.65,169.81L144.81,170.82L144.96,168.33L145.11,169.59L145.26,168.39L145.57,168.3L146.17,171.24L146.32,168.54L146.78,168.25L146.93,169.76L147.08,169.62L147.24,169.02L147.84,168.08L147.99,169.36L148.15,169.96L148.3,168.35L148.45,169.17L148.6,223.46L149.06,167.69L149.51,170.73L149.66,169.24L150.57,199.02L150.73,190.39L150.88,190L151.49,218.32L151.64,216.96L151.79,271.89L151.94,277.49L152.09,224.32L152.4,258.99L153.15,187.66L153.31,190.28L153.61,202.28L154.07,196.09L154.22,196.55L154.67,203.45L154.82,194.39L154.98,189.96L156.49,174.1L156.65,173.6L156.95,171.9L157.1,227.4L157.25,240.87L157.41,184.3L158.16,168.74L158.32,169.05L158.47,169.46L158.62,169.52L158.77,170.57L158.92,168.18L159.53,169.85L159.68,168.55L159.83,170.74L160.14,168.1L160.29,168.09L160.44,168.56L160.59,169.99L161.05,169.34L161.2,224.08L161.96,168.16L162.11,168.66L162.26,167.98L162.87,168.7L163.02,168.06L163.17,168.28L163.32,168.29L163.48,176.33L163.78,185.94L163.93,180.14L164.08,178.21L164.39,169.44L164.69,179.51L164.84,179.52L165.91,188.36L166.06,187.57L166.21,185.44L166.36,185.74L166.51,258.38L166.66,270.77L166.82,213.86L167.42,181.74L167.57,243.03L167.73,263.1L167.88,209.53L168.18,259.65L168.33,202.9L168.64,185.19L169.09,191.44L169.24,191.53L169.55,190.28L169.85,193.65L170,185.78L170.31,199.66L170.91,194.14L171.07,195.88L171.98,168.98L172.58,169.5L172.74,168.21L173.04,167.98L173.34,169.44L173.49,169.31L173.65,169.53L174.25,168.03L174.41,168.96L174.56,168.44L175.01,167.72L175.32,168.13L175.47,168.54L176.38,167.91L176.53,168.31L176.68,223.6L177.59,167.71L177.74,175.83L179.11,189.68L179.26,198.09L180.02,186.07L180.17,192.01L180.48,198.55L180.93,194.59L181.08,242.5L181.54,182.71L181.69,238.43L181.84,252.48L182.3,177.54L182.6,182.97L182.75,188.32L183.66,222.39L184.12,215.34L184.27,209.04L184.88,184.81L185.33,185.24L185.49,187.48L186.85,168.6L187.16,168.66L187.31,170.44L187.61,168.56L187.91,168.6L188.07,170.88L188.67,168.2L188.83,169.12L188.98,168.04L189.58,168.85L189.74,168.04L190.34,169.17L190.65,168.51L190.8,168.17L191.25,168.05L191.41,176.26L191.71,178.18L191.86,170.15L192.77,167.62L192.92,167.74L193.23,167.5L193.38,167.73L193.53,169.34L193.68,178.53L193.83,233.93L194.29,254.2L194.44,252.84L194.59,193.83L194.75,181.05L195.05,199.26L195.2,209.1L195.66,212.7L195.81,199.24L196.11,184.62L196.57,195.44L196.72,197.86L197.17,201.64L197.33,194.42L197.48,194.25L197.63,201.62L197.78,201.07L197.93,207.47L198.39,211.76L198.54,207.53L198.69,201.5L199.6,176.9L199.91,181.34L200.06,191.44L200.66,206.28L200.82,201.94L200.97,194.52L202.03,169.14L202.33,170.03L202.49,169.16L202.79,168.52L202.94,169.73L203.09,176.28L203.4,180.88L203.85,178.28L204,179.16L204.16,178.26L204.31,178.46L204.46,171.03L204.61,168.01L205.22,169.47L205.37,168.06L205.52,168.85L205.67,167.88L206.13,168.13L206.28,168.23L206.58,178.26L206.89,168.22L207.04,168.37L207.19,168.2L207.34,223.7L207.65,168.25L208.25,176.62L208.41,179.26L208.56,179.38L208.71,180.67L208.86,189.38L209.01,246.6L209.32,194.09L209.62,200.86L209.77,253.6L210.08,188.66L210.68,193.08L210.83,193.72L211.59,257.63L211.75,221.76L212.05,200.71L212.2,211.2L212.35,271.04L212.5,292.08L212.66,228.35L212.81,212.86L212.96,216.98L213.11,204.38L213.26,206.95L213.42,204.19L213.57,208.4L213.72,203.29L214.02,207.44L214.17,199.81L214.93,180.12L215.08,229.92L215.24,245.48L215.39,189.9L215.69,244.17L215.84,185.2L216,172.59L216.6,181.99L216.75,181.7L218.12,168.39L218.27,169.37L218.58,168.56L218.88,169.94L219.03,169.24L219.18,169.02L219.49,169.49L219.79,168.19L220.09,168.78L220.25,170L220.4,168.15L221,168.9L221.16,168.26L221.31,168.74L221.76,168.32L221.92,168.14L222.67,168.59L222.83,170.87L222.98,170.95L223.13,172.97L223.43,199.88L223.58,259.25L224.19,205.91L224.34,252.45L224.5,263.36L225.25,170.72L225.41,226.88L225.56,241.48L225.71,187.64L225.86,172.92L226.01,171.61L226.32,174.99L226.47,173.16L226.62,174.8L226.92,181.51L227.23,180.19L227.38,173.22L227.68,182.4L227.84,180.62L227.99,235.66L228.14,246.35L228.29,192.33L228.44,175.66L229.05,186.14L229.2,187.21L230.57,169.5L230.72,180.26L230.87,178.14L231.48,180.01L231.63,178.91L231.78,179.84L231.93,171.41L232.69,168.14L232.84,169.23L233,170.44L233.91,168.23L234.06,169.31L234.36,170.19L234.67,167.79L234.97,168.07L235.12,169.29L236.03,167.86L236.18,168.33L236.34,168.65L236.49,168.55L236.64,233.79L236.79,248.08L236.94,192.34L237.09,170.84L237.55,188.65L237.7,246.68L237.85,260.86L238,204.88L238.16,184.25L238.31,190.41L238.61,180.67L238.76,181.5L238.92,183.78L239.07,182.5L239.22,229.54L239.37,243.29L239.52,191.77L239.67,176.56L240.59,282.46L240.74,290.75L241.65,196.32L241.8,191.22L241.95,185.76L242.1,194.17L242.41,191.82L242.56,197.49L243.17,212.04L243.32,208.82L243.47,205.28L243.62,208.16L243.77,205.61L243.92,197.61L245.44,171.76L245.59,175.55L245.9,170.29L246.51,170.67L246.66,170.96L247.11,170.09L247.26,168.92L247.72,170.97L247.87,169.71L248.02,168.58L248.17,170.06L248.33,168.54L248.78,168.96L248.93,169.68L249.09,168.34L249.39,169.21L249.54,176.28L249.69,233.85L250.15,171.13L250.3,168.39L250.45,169.15L250.91,168.47L251.06,168.3L251.21,168.65L251.36,168.29L251.51,224.22L251.67,245.84L251.82,193.27L251.97,184.93L252.12,188.99L252.27,253.17L252.73,283.23L253.03,199.19L253.18,199.75L253.34,203.96L253.79,152.58L253.94,133.29L254.09,91.32L254.55,136.03L254.7,97.68L254.85,148.49L255.31,95.55L255.46,135.22L255.61,156.25L255.92,91.29L256.22,99.03L256.37,128.38L256.83,97.57L256.98,139.54L257.13,98.32L257.28,127.54L257.43,98.62L257.89,143.23L258.04,107.07L258.19,140.94L258.34,138.59L258.5,152.9L259.26,178.36L259.41,177.74L259.56,176.02L259.71,179.39L259.86,174.1L260.17,176.91L260.32,174.87L260.47,169.75L260.62,224.47L260.92,225.79L261.08,130.11L261.53,179.6L261.68,156.58L262.14,177.74L262.75,177.71L262.9,171.66L263.05,177.63L263.2,171.42L263.66,176.53L263.81,171.7L264.42,168.01L264.57,168.18L264.72,168.4L264.87,177.37L265.33,171.32L265.48,168.29L265.63,168.94L265.78,223.81L265.93,127.72L266.09,248.66L266.54,148.43L266.69,160.51L266.84,202.88L267.15,132.82L267.3,141.79L267.45,119.44L267.6,145.05L268.06,102.64L268.21,123.65L268.36,89.63L268.82,137.65L269.12,133.88L269.27,90.62L269.43,134.37L270.03,123.06L270.18,108.34L270.49,101.3L271.09,131.92L271.25,117.84L271.4,133.6L271.85,114.49L272.01,103.35L273.07,146.75L273.22,145.99L273.37,206.69L273.98,172.91L274.13,182.26L275.04,170.31L275.19,170.39L275.5,167.75L275.65,168.53L275.8,169.47L276.26,168.36L276.41,169.41L276.86,169.46L277.01,168.53L277.93,169.44L278.08,169.15L278.23,169.52L278.53,168.77L278.68,169.25L278.84,168.02L278.99,176.73L279.14,171.3L279.29,231.97L279.44,121.61L280.05,148.36L280.2,172.84L280.35,161.81L280.96,166.12L281.11,166.27L281.87,146.76L282.02,200.75L282.33,125.59L282.93,144.8L283.09,143.7L283.24,144.34L283.39,134.32L283.54,140.38L283.69,126.91L283.85,106.88L284.45,172.96L284.6,146.23L284.76,114.06L284.91,141.39L285.06,83.02L285.21,134.66L285.36,86.56L285.67,76.77L285.82,134.87L286.12,133.78L286.27,89.64L286.58,85.99L286.73,177.81L287.18,149.12L287.34,120.38L288.25,159.81L288.4,168.36L288.7,170.45L289.16,169.81L289.31,168.36L289.46,177.39L290.07,176.48L290.22,171.3L290.37,176.25L290.52,163.18L290.83,168.55L290.98,169.33L291.13,168.27L291.74,169.28L291.89,168.34L292.5,169.05L292.65,168.25L293.26,168.59L293.41,168.15L293.56,168.4L294.01,168.54L294.17,168.13L294.32,176.04L294.62,176.44L295.08,168.25L295.23,174.71L295.38,169.68L295.53,177.83L295.68,171.66L295.84,230.46L296.29,112.74L296.6,115.04L296.75,150.4L297.51,91.08L297.66,113.78L297.96,120.6L298.11,89.67L298.27,184.68L298.57,226.31L298.72,41.92L299.02,69.16L299.18,164.05L299.33,78.06L299.78,181.38L299.93,119.53L300.09,113.65L300.69,54.18L301,54.89L301.15,55.72L301.76,88.92L301.91,102.47L303.27,174.48L303.58,173.6L303.73,171.31L304.18,168.11L304.64,169.17L304.79,169.23L305.1,169.4L305.4,167.96L305.55,168.01L305.7,168.34L306.16,169.6L306.46,168.52L306.61,169.34L307.52,167.65L307.68,168.46L308.59,168.53L308.74,176.18L308.89,163.23L309.04,221.64L309.95,163.64L310.1,167.89L310.26,169.67L310.56,167.51L310.71,159.1L310.86,164.52L311.02,205.1L312.08,95.09L312.23,127.56L312.68,80.09L312.99,98.42L313.14,93.58L313.29,116.96L313.44,87.7L313.75,106.63L313.9,80.66L314.2,97.37L314.35,123.29L314.51,69.12L314.96,118.51L315.11,135.52L315.27,137.93L315.42,156.59L315.57,157.13L315.72,151.09L316.33,147.34L316.48,142.53L316.63,142.3L316.78,158.9L316.94,164.02L317.09,219.91L317.39,220.76L317.54,131.57L317.85,145.65L318,180.7L318.15,157.01L318.76,168.13L318.91,168.94L319.36,169.05L319.82,167.9L319.97,168.16L320.88,168.99L321.03,168.18L321.79,168.4L321.94,168.24L322.1,168.12L322.55,168.18L322.7,167.99L322.85,167.85L323.01,168.25L323.61,167.95L323.77,168.1L324.22,175.89L324.37,162.53L324.52,162.06L324.68,159.99L324.83,211.79L326.04,99.56L326.19,115.71L327.1,51.23L327.26,52.54L327.41,59.68L327.71,53.64L328.02,55.37L328.17,62.23L328.77,57.84L328.93,62.87L329.38,52.87L329.69,59.75L329.84,61.46L330.14,60.29L330.6,85.43L330.75,93.45L331.2,120.55L331.35,129.98L332.42,173.42L332.72,172.61L332.87,172.09L333.02,170.52L333.18,173.32L333.33,225.83L333.63,226.47L333.78,130.81L334.24,183.35L334.39,163.34L334.54,178.25L335.15,176.36L335.3,171.23L335.45,176.51L335.91,168.49L336.06,169.12L336.21,168.27L336.36,177.02L336.97,167.91L337.27,168.33L337.43,168.35L337.58,168.41L337.73,176.06L338.03,176.25L338.19,163.24L338.49,167.99L338.64,176.35L339.1,169.19L339.25,222.23L339.4,117.72L339.55,241.54L340.01,123.05L340.16,137.08L340.92,89.81L341.07,118.29L341.37,121.04L341.52,74.5L341.68,176.99L342.59,63.46L342.74,53.11L342.89,52.28L343.04,55.98L343.35,55.69L343.5,63.93L343.65,70.83L343.8,69.82L343.95,78.96L344.41,142.32L344.56,81.37L344.71,68.42L344.86,62.36L345.17,72.82L345.32,78.94L346.84,181.3L347.14,177.83L347.29,173.85L347.44,178.96L347.9,171.57L348.05,168.71L348.36,170.19L348.81,169.93L348.96,169.1L349.27,168.56L349.42,169.31L349.57,167.61L350.48,169.52L350.63,169.01L350.94,169.24L351.09,168.09L351.54,168.43L351.69,168.84L352.61,168.03L352.76,168.27L352.91,167.91L353.06,223.73L354.12,154.84L354.28,145.6L355.64,111.95L355.79,86.69L356.4,152.58L356.55,95.14L356.7,96.22L356.86,100.28L357.16,93.88L357.31,85.41L357.46,79.8L357.61,92.53L357.92,85.39L358.07,86.66L358.22,85.35L358.37,91.77L359.59,68.34L359.74,81.1L361.11,192.43L361.41,189.58L361.56,172.95L361.86,172.91L362.17,227.85L362.32,186.71L362.47,225.51L362.62,131.43L362.78,193.2L362.93,145.73L363.08,177.64L363.69,168.14L363.84,169.54L364.75,168.47L364.9,169.42L365.51,168.2L365.66,169.46L366.27,168.05L366.42,168.25L366.57,168.81L366.87,169.27L367.03,167.86L367.48,168.32L367.63,168.6L367.78,168.08L367.94,168.31L368.09,164.26L368.39,156.58L368.54,158.75L368.7,210.02L369.45,120.49L369.61,150.16L370.52,103.81L370.67,135.29L370.97,111.54L371.12,182.64L371.88,113.8L372.03,135.26L372.19,129.2L372.34,140.34L372.49,135.41L372.64,142.49L373.86,65.76L374.01,67.09L374.16,79.47L374.46,68.92L374.61,89.36L374.77,95.53L375.83,171.27L375.98,170.52L376.13,172.9L376.28,169.9L376.59,178.18L376.74,230.08L377.65,173.75L377.8,168.89L377.95,169.72L378.56,169.41L378.71,168.2L379.62,169.59L379.78,169.28L379.93,168.11L380.38,169.85L380.53,169.57L380.99,167.9L381.29,168.65L381.45,168.35L381.6,224.77L381.75,128.06L382.2,179.14L382.36,154.45L382.96,174.35L383.11,170.17L383.27,160.66L384.03,121.32L384.18,127.88L384.33,187.48L384.63,110.8L385.24,131.94L385.39,108.52L385.54,111.43L385.85,111.4L386,103.23L386.15,108.73L386.3,78.57L386.45,66.6L386.61,119.58L386.76,135.49L386.91,77.96L387.06,64.69L387.21,55.85L387.82,56.46L387.97,68.12L388.12,77.53L388.28,76.5L388.43,137.44L388.73,154.93L388.88,100.04L389.19,105.89L389.34,110.48L390.1,160.32L390.25,171.37L390.7,179.97L391.01,177.89L391.16,173.86L391.46,172.58L391.62,178.27L391.92,176.06L392.07,174.65L392.22,174.05L392.37,174.89L392.53,174.18L392.68,166.86L392.83,167.13L392.98,168.99L393.44,169.41L393.59,167.87L394.5,169.58L394.65,169.34L394.8,168.11L394.95,176.01L395.26,176.35L395.71,164.03L395.87,166.36L396.02,169.1L396.17,168.16L396.32,169.11L396.47,224.75L396.62,127.84L397.23,164.01L397.38,180.55L399.05,109.34L399.2,125.88L399.36,126.95L399.51,147.03L399.66,150.03L399.81,138.37L399.96,137.41L400.12,170.33L400.42,106.23L400.57,131.62L400.72,107.79L401.03,100.7L401.18,139.55L401.48,131.44L401.63,95.19L401.78,78.21L401.94,114.35L402.09,135.12L402.24,180.95L402.39,120.88L402.85,165.2L403,148.66L403.15,147.72L403.3,141.81L403.61,139.19L403.76,141.19L403.91,122.84L404.97,166.31L405.12,169.77L405.28,170L405.43,168.08L405.58,169.56L405.73,224.85L406.04,167.79L406.64,168.48L406.79,169.29L407.25,168.38L407.55,169.15L407.7,168.9L408.01,168.22L408.62,169.33L408.77,168.65L408.92,169.33L409.07,168.57L409.37,169.18L409.53,223.8L409.68,127.61L410.29,153.08L410.44,168.2L410.59,166.03L410.89,168.63L411.04,168.27L411.2,168.36L411.65,168.57L411.8,175.97L412.11,178.21L412.56,141.01L412.71,156.06L412.87,162.58L413.78,94.26L414.08,98.96L414.23,119.77L414.54,63.4L414.99,77.55L415.14,129.84L415.29,144.05L415.45,142.82L415.6,82.71L416.05,57.09L416.51,59.81L416.66,66.3L417.42,76.77L417.57,74.74L417.72,73.1L417.87,75.92L418.03,74.32L418.18,83.43L419.24,154.11L419.39,164.07L419.85,172.29L420.3,170.26L420.46,170.86L420.61,169.45L421.21,169.62L421.37,169.84L422.12,167.86L422.28,169.23L422.58,169.42L423.19,168.1L423.34,169.32L423.95,167.65L424.25,168.06L424.4,168.16L424.71,168.23L424.86,169.19L425.77,167.96L425.92,168.44L426.07,223.73L426.37,163.54L426.68,173.04L426.83,168.99L427.44,132.85L427.59,133.94L427.74,115.72L427.89,132.78L428.2,124.45L428.35,95.95L428.96,59.32L429.26,154.24L429.41,159.5L430.32,80.95L430.47,83.87L431.08,95.35L431.23,90.21L431.38,88.74L431.54,97.49L431.69,79.59L431.84,84.52L431.99,77.87L432.14,78.02L432.29,74.61L432.45,73.53L432.6,76.8L432.75,90.41L432.9,90.25L433.05,100.42L434.57,172.52L434.72,170.42L434.87,172.09L435.33,169.46L435.63,170.34L435.79,169.85L436.39,169.37L436.54,168.92L436.7,169.35L436.85,167.9L437,168.91" style="vector-effect: non-scaling-stroke; fill: none; stroke: rgb(0, 128, 0); stroke-opacity: 1; stroke-width: 2px; opacity: 1;"/></g><g class="points"/><g class="text"/></g></g></g><g class="overplot"/><path class="xlines-above crisp" d="M0,0" style="fill: none;"/><path class="ylines-above crisp" d="M0,0" style="fill: none;"/><g class="overlines-above"/><g class="xaxislayer-above"><g class="xtick"><text text-anchor="middle" x="0" y="433" transform="translate(109.14,0)" style="font-family: 'Open Sans', verdana, arial, sans-serif; font-size: 12px; fill: rgb(42, 63, 95); fill-opacity: 1; white-space: pre; opacity: 1;"><tspan class="line" dy="0em" x="0" y="433">Apr 3</tspan><tspan class="line" dy="1.3em" x="0" y="433">2022</tspan></text></g><g class="xtick"><text text-anchor="middle" x="0" y="433" style="font-family: 'Open Sans', verdana, arial, sans-serif; font-size: 12px; fill: rgb(42, 63, 95); fill-opacity: 1; white-space: pre; opacity: 1;" transform="translate(211.15,0)">Apr 10</text></g><g class="xtick"><text text-anchor="middle" x="0" y="433" style="font-family: 'Open Sans', verdana, arial, sans-serif; font-size: 12px; fill: rgb(42, 63, 95); fill-opacity: 1; white-space: pre; opacity: 1;" transform="translate(313.15,0)">Apr 17</text></g><g class="xtick"><text text-anchor="middle" x="0" y="433" style="font-family: 'Open Sans', verdana, arial, sans-serif; font-size: 12px; fill: rgb(42, 63, 95); fill-opacity: 1; white-space: pre; opacity: 1;" transform="translate(415.15,0)">Apr 24</text></g></g><g class="yaxislayer-above"><g class="ytick"><text text-anchor="end" x="79" y="4.199999999999999" transform="translate(0,387.52)" style="font-family: 'Open Sans', verdana, arial, sans-serif; font-size: 12px; fill: rgb(42, 63, 95); fill-opacity: 1; white-space: pre; opacity: 1;">−100</text></g><g class="ytick"><text text-anchor="end" x="79" y="4.199999999999999" style="font-family: 'Open Sans', verdana, arial, sans-serif; font-size: 12px; fill: rgb(42, 63, 95); fill-opacity: 1; white-space: pre; opacity: 1;" transform="translate(0,318.09000000000003)">−50</text></g><g class="ytick"><text text-anchor="end" x="79" y="4.199999999999999" style="font-family: 'Open Sans', verdana, arial, sans-serif; font-size: 12px; fill: rgb(42, 63, 95); fill-opacity: 1; white-space: pre; opacity: 1;" transform="translate(0,248.65)">0</text></g><g class="ytick"><text text-anchor="end" x="79" y="4.199999999999999" style="font-family: 'Open Sans', verdana, arial, sans-serif; font-size: 12px; fill: rgb(42, 63, 95); fill-opacity: 1; white-space: pre; opacity: 1;" transform="translate(0,179.20999999999998)">50</text></g><g class="ytick"><text text-anchor="end" x="79" y="4.199999999999999" style="font-family: 'Open Sans', verdana, arial, sans-serif; font-size: 12px; fill: rgb(42, 63, 95); fill-opacity: 1; white-space: pre; opacity: 1;" transform="translate(0,109.78)">100</text></g></g><g class="overaxes-above"/></g></g><g class="polarlayer"/><g class="smithlayer"/><g class="ternarylayer"/><g class="geolayer"/><g class="funnelarealayer"/><g class="pielayer"/><g class="iciclelayer"/><g class="treemaplayer"/><g class="sunburstlayer"/><g class="glimages"/><defs id="topdefs-156018"><g class="clips"/><clipPath id="legend156018"><rect width="162" height="67" x="0" y="0"/></clipPath></defs><g class="layer-above"><g class="imagelayer"/><g class="shapelayer"/></g><g class="infolayer"><g class="legend" pointer-events="all" transform="translate(525.74,100)"><rect class="bg" shape-rendering="crispEdges" width="162" height="67" x="0" y="0" style="stroke: rgb(68, 68, 68); stroke-opacity: 1; fill: rgb(255, 255, 255); fill-opacity: 1; stroke-width: 0px;"/><g class="scrollbox" transform="" clip-path="url(#legend156018)"><g class="groups"><g class="traces" transform="translate(0,14.5)" style="opacity: 1;"><text class="legendtext" text-anchor="start" x="40" y="4.680000000000001" style="font-family: 'Open Sans', verdana, arial, sans-serif; font-size: 12px; fill: rgb(42, 63, 95); fill-opacity: 1; white-space: pre;">BESS</text><g class="layers" style="opacity: 0.5;"><g class="legendfill"/><g class="legendlines"><path class="js-line" d="M5,0h30" style="fill: none; stroke: rgb(0, 191, 255); stroke-opacity: 1; stroke-width: 2px;"/></g><g class="legendsymbols"><g class="legendpoints"/></g></g><rect class="legendtoggle" x="0" y="-9.5" width="156.71875" height="19" style="fill: rgb(0, 0, 0); fill-opacity: 0;"/></g><g class="traces" transform="translate(0,33.5)" style="opacity: 1;"><text class="legendtext" text-anchor="start" x="40" y="4.680000000000001" style="font-family: 'Open Sans', verdana, arial, sans-serif; font-size: 12px; fill: rgb(42, 63, 95); fill-opacity: 1; white-space: pre;">Solar</text><g class="layers" style="opacity: 0.5;"><g class="legendfill"/><g class="legendlines"><path class="js-line" d="M5,0h30" style="fill: none; stroke: rgb(255, 0, 0); stroke-opacity: 1; stroke-width: 2px;"/></g><g class="legendsymbols"><g class="legendpoints"/></g></g><rect class="legendtoggle" x="0" y="-9.5" width="156.71875" height="19" style="fill: rgb(0, 0, 0); fill-opacity: 0;"/></g><g class="traces" transform="translate(0,52.5)" style="opacity: 1;"><text class="legendtext" text-anchor="start" x="40" y="4.680000000000001" style="font-family: 'Open Sans', verdana, arial, sans-serif; font-size: 12px; fill: rgb(42, 63, 95); fill-opacity: 1; white-space: pre;">Grid Meter (Net Load)</text><g class="layers" style="opacity: 0.5;"><g class="legendfill"/><g class="legendlines"><path class="js-line" d="M5,0h30" style="fill: none; stroke: rgb(0, 128, 0); stroke-opacity: 1; stroke-width: 2px;"/></g><g class="legendsymbols"><g class="legendpoints"/></g></g><rect class="legendtoggle" x="0" y="-9.5" width="156.71875" height="19" style="fill: rgb(0, 0, 0); fill-opacity: 0;"/></g></g></g><rect class="scrollbar" rx="20" ry="3" width="0" height="0" x="0" y="0" style="fill: rgb(128, 139, 164); fill-opacity: 1;"/></g><g class="g-gtitle"><text class="gtitle" x="298.5" y="50" text-anchor="middle" dy="0em" style="font-family: 'Open Sans', verdana, arial, sans-serif; font-size: 17px; fill: rgb(42, 63, 95); opacity: 1; font-weight: normal; white-space: pre;"><tspan class="line" dy="0em" x="298.5" y="50">Scenario 8</tspan><tspan class="line" dy="1.3em" x="298.5" y="50">Microgrid Output</tspan><tspan class="line" dy="2.6em" x="298.5" y="50">From: April 01, 2022 to April 30, 2022</tspan></text></g><g class="g-xtitle"><text class="xtitle" x="298.5" y="476.409375" text-anchor="middle" style="font-family: 'Open Sans', verdana, arial, sans-serif; font-size: 14px; fill: rgb(42, 63, 95); opacity: 1; font-weight: normal; white-space: pre;">Time</text></g><g class="g-ytitle"><text class="ytitle" transform="rotate(-90,27.168750000000003,260)" x="27.168750000000003" y="260" text-anchor="middle" style="font-family: 'Open Sans', verdana, arial, sans-serif; font-size: 14px; fill: rgb(42, 63, 95); opacity: 1; font-weight: normal; white-space: pre;">Demand (kW)</text></g></g></svg>