<svg class="main-svg" xmlns="http://www.w3.org/2000/svg" xmlns:xlink="http://www.w3.org/1999/xlink" width="700" height="500" style="" viewBox="0 0 700 500"><rect x="0" y="0" width="700" height="500" style="fill: rgb(255, 255, 255); fill-opacity: 1;"/><defs id="defs-c956dd"><g class="clips"><clipPath id="clipc956ddxyplot" class="plotclip"><rect width="437" height="320"/></clipPath><clipPath class="axesclip" id="clipc956ddx"><rect x="80" y="0" width="437" height="500"/></clipPath><clipPath class="axesclip" id="clipc956ddy"><rect x="0" y="100" width="700" height="320"/></clipPath><clipPath class="axesclip" id="clipc956ddxy"><rect x="80" y="100" width="437" height="320"/></clipPath></g><g class="gradients"/><g class="patterns"/></defs><g class="bglayer"/><g class="layer-below"><g class="imagelayer"/><g class="shapelayer"/></g><g class="cartesianlayer"><g class="subplot xy"><g class="layer-subplot"><g class="shapelayer"/><g class="imagelayer"/></g><g class="minor-gridlayer"><g class="x"/><g class="y"/></g><g class="gridlayer"><g class="x"><path class="xgrid crisp" transform="translate(109.14,0)" d="M0,100v320" style="stroke: rgb(255, 255, 255); stroke-opacity: 1; stroke-width: 1px;"/><path class="xgrid crisp" transform="translate(211.15,0)" d="M0,100v320" style="stroke: rgb(255, 255, 255); stroke-opacity: 1; stroke-width: 1px;"/><path class="xgrid crisp" transform="translate(313.15,0)" d="M0,100v320" style="stroke: rgb(255, 255, 255); stroke-opacity: 1; stroke-width: 1px;"/><path class="xgrid crisp" transform="translate(415.15,0)" d="M0,100v320" style="stroke: rgb(255, 255, 255); stroke-opacity: 1; stroke-width: 1px;"/></g><g class="y"><path class="ygrid crisp" transform="translate(0,341.65999999999997)" d="M80,0h437" style="stroke: rgb(255, 255, 255); stroke-opacity: 1; stroke-width: 1px;"/><path class="ygrid crisp" transform="translate(0,186.59)" d="M80,0h437" style="stroke: rgb(255, 255, 255); stroke-opacity: 1; stroke-width: 1px;"/><path class="ygrid crisp" transform="translate(0,109.05)" d="M80,0h437" style="stroke: rgb(255, 255, 255); stroke-opacity: 1; stroke-width: 1px;"/></g></g><g class="zerolinelayer"><path class="yzl zl crisp" transform="translate(0,264.12)" d="M80,0h437" style="stroke: rgb(255, 255, 255); stroke-opacity: 1; stroke-width: 2px;"/></g><path class="xlines-below"/><path class="ylines-below"/><g class="overlines-below"/><g class="xaxislayer-below"/><g class="yaxislayer-below"/><g class="overaxes-below"/><g class="plot" transform="translate(80,100)" clip-path="url(#clipc956ddxyplot)"><g class="scatterlayer mlayer"><g class="trace scatter trace79e1b8" style="stroke-miterlimit: 2; opacity: 0.5;"><g class="fills"/><g class="errorbars"/><g class="lines"><path class="js-line" d="M0,164.12L437,164.12" style="vector-effect: non-scaling-stroke; fill: none; stroke: rgb(0, 191, 255); stroke-opacity: 1; stroke-width: 2px; opacity: 1;"/></g><g class="points"/><g class="text"/></g><g class="trace scatter trace140b86" style="stroke-miterlimit: 2; opacity: 0.5;"><g class="fills"/><g class="errorbars"/><g class="lines"><path class="js-line" d="M0,164.3L3.95,163.83L4.1,161.73L5.31,105.51L5.46,96.73L6.83,16.15L6.98,16.25L7.13,16.22L8.8,16.35L8.96,16.45L9.41,16.44L9.56,18.45L10.93,129.08L11.08,141.38L12.14,164.31L12.29,164.3L18.52,164.07L18.67,163.08L20.19,118.68L20.34,125.19L21.25,97.83L21.4,99.28L21.55,102.34L22.16,63.42L22.31,30.44L22.46,30.44L22.62,28.56L22.77,30.96L22.92,21.03L23.38,16.11L23.53,19.2L23.68,29.85L23.83,16.34L24.29,23.75L24.44,45.43L26.56,164.31L26.71,164.3L33.24,163.65L33.39,161.53L36.13,74.37L36.28,91.28L36.43,97.21L36.58,88.08L36.73,88.6L36.88,83.67L37.34,112.28L37.95,111.13L38.1,111.12L38.25,105.84L38.55,116.68L38.71,120.8L40.98,164.3L41.13,164.3L47.66,164.17L47.81,163.95L48.27,159.78L48.42,157.42L48.88,147.26L49.03,126.43L49.18,129.5L49.48,121.59L49.63,104.95L50.39,16.1L50.85,16.24L51,16.28L53.13,16.37L53.28,17.65L54.34,107.68L54.49,138.69L55.4,164.22L55.55,164.31L62.08,164.22L62.23,163.17L62.99,130.29L63.14,117.3L64.66,16.12L65.12,16.16L65.27,16.27L67.7,16.51L67.85,18.47L69.22,125.73L69.37,138.59L70.43,164.32L70.58,164.31L76.65,164.2L76.81,163.17L77.56,129.59L77.72,116.51L79.23,16.21L79.54,16.37L79.69,16.4L82.27,16.51L82.42,17.33L83.18,67.39L83.33,80.56L84.85,164.31L85,164.31L91.23,164.09L91.38,162.72L92.14,129.85L92.29,115.78L93.81,16.3L94.11,16.37L94.26,16.42L96.54,16.76L96.69,22.04L97.6,164.12L97.75,164.12L253.49,164.12L253.64,158.22L254.55,18.55L254.7,27.07L255.61,16.28L255.76,16.38L256.67,16.52L256.83,17.92L257.28,17.09L257.59,28.92L257.74,66.18L258.04,51.5L258.19,77.25L259.41,164.22L259.56,164.3L265.18,164.31L265.33,164.3L266.09,163.79L266.24,161.14L267.45,80.88L267.6,67.87L268.51,16.11L268.82,16.17L268.97,16.24L272.01,16.67L272.16,20.41L274.43,164.32L274.59,164.31L280.66,164.1L280.81,163.3L281.87,124.97L282.02,115.9L282.33,88.19L282.48,74.79L282.93,113.86L283.24,97.96L283.39,89.13L283.69,37.53L283.85,53.75L284,81L285.06,16.67L285.21,22.09L285.36,31.39L285.51,16.09L285.82,16.1L285.97,16.11L286.43,16.12L286.58,17.03L287.34,71.8L287.49,86.06L289.01,164.32L289.16,164.31L295.08,164.05L295.23,162.69L296.14,115.13L296.29,103.1L297.66,16L297.96,16.06L298.11,16.1L301.15,16.88L301.3,21.4L303.43,164.32L303.73,164.31L303.88,164.3L309.65,164.09L309.8,162.98L311.17,117.2L311.32,52.13L311.47,50.54L311.62,60.14L311.77,92.98L312.08,45.24L312.23,48.54L312.38,54.3L312.99,73.27L313.14,61.45L313.29,66.78L313.9,36.19L314.05,37.09L314.2,54.71L314.66,26.48L315.11,106.22L315.27,106.31L316.18,128.61L316.33,122.53L316.48,117.57L316.63,120.04L316.78,146.8L317.85,164.26L318,164.31L324.22,164.11L324.37,163.22L324.98,138.44L325.13,123.95L326.65,16.14L326.95,16.16L327.1,16.21L329.38,16.42L329.53,16.42L330.29,16.58L330.44,17.91L331.35,91.89L331.51,107.22L332.72,164.31L332.87,164.31L338.79,163.79L338.94,161.3L339.86,111.77L340.01,98.22L341.22,16.09L341.52,16.23L341.68,16.18L344.86,16.58L345.02,19.09L347.44,164.32L347.6,164.32L353.36,163.74L353.52,161.27L354.28,122.8L354.43,108.85L355.79,16.06L356.1,16.12L356.25,16.19L359.44,16.97L359.59,20.91L362.02,164.32L362.17,164.31L367.94,163.58L368.09,160.02L369.3,104.14L369.45,78.74L369.61,72.38L369.76,83.07L369.91,78.42L370.06,41.52L370.36,26.24L370.52,34.28L370.67,56.02L371.12,17.26L371.43,53.84L371.58,74.32L372.19,21.7L372.34,28.97L372.49,53.14L372.64,52.97L372.79,32.04L373.25,36.71L373.55,16.24L373.7,16.29L373.86,16.39L374.61,47.01L374.77,62.34L376.44,164.32L376.59,164.32L382.51,163.62L382.66,160.71L383.27,131.27L383.42,110.89L385.24,16.16L385.39,16.19L387.06,16.35L387.21,16.39L388.43,16.41L388.58,16.88L389.03,43.21L389.19,56.49L391.01,164.32L391.16,164.31L397.23,164.08L397.38,163.48L398.29,141.68L398.45,117.97L399.05,47.34L399.36,74.99L399.51,102.66L399.81,84.12L399.96,52.24L400.12,16.72L400.72,42.52L400.87,42.84L401.03,36.43L401.18,47.41L401.33,60.79L401.48,63.48L401.63,52.69L401.78,43.87L401.94,71.34L402.09,84.62L402.24,70.85L402.54,88.28L402.7,108.54L402.85,113.92L403,103.75L403.15,89.27L403.61,117.11L403.76,124.89L404.21,102.02L404.37,111.76L404.52,126.64L405.58,164.31L405.73,164.3L411.8,163.59L411.95,161.14L413.17,97.91L413.32,58.01L414.38,16.01L414.54,16.08L417.72,16.93L417.87,20.64L420.3,164.31L420.46,164.31L426.07,164.2L426.22,163.01L427.44,112.28L427.59,93.57L428.65,16.06L428.8,16.12L428.96,16.15L431.84,16.43L431.99,16.92L432.6,28.44L432.75,39.78L434.87,164.31L435.03,164.3L437,164.3" style="vector-effect: non-scaling-stroke; fill: none; stroke: rgb(255, 0, 0); stroke-opacity: 1; stroke-width: 2px; opacity: 1;"/></g><g class="points"/><g class="text"/></g><g class="trace scatter trace66c3ea" style="stroke-miterlimit: 2; opacity: 0.5;"><g class="fills"/><g class="errorbars"/><g class="lines"><path class="js-line" d="M0,186.59L0.15,185.63L0.76,186.51L0.91,186.07L1.21,185.64L1.37,186.43L1.52,186.18L1.67,188.48L2.13,185.42L2.43,185.93L2.58,185.83L2.88,185.63L3.04,247.7L3.34,264.04L3.49,201.67L3.79,263.64L4.1,200.53L4.25,188L4.71,180.55L4.86,172.21L6.38,59.39L6.83,60.3L6.98,62.98L7.59,140.61L7.89,140.01L8.04,82.19L8.2,63.71L8.8,65.54L8.96,71.08L9.11,69.96L9.26,78.57L9.41,72.18L9.71,82.12L9.87,88.43L11.54,196.89L11.69,194.92L11.84,197.78L12.14,192.58L12.75,193.2L12.9,192.89L13.05,193.82L13.21,191.58L13.36,193.11L13.51,191.26L13.81,193.19L13.96,190.94L14.12,191.58L14.27,187.06L14.57,187.1L14.72,185.82L15.03,186.33L15.18,188.01L15.33,188.62L15.48,186.45L15.63,187.37L15.79,185.94L16.39,186.89L16.54,186L16.7,186.44L17.76,186.05L17.91,186.49L18.06,186.11L18.21,248.23L19.13,180.21L19.28,173.59L19.58,155.63L19.73,216.37L20.64,138.39L20.8,143.36L21.86,116.48L22.01,109.85L22.46,117.78L22.92,51.61L23.07,53.81L23.38,133.34L23.68,68.21L23.83,52.12L26.41,190.09L26.56,187.96L26.71,186.53L27.17,188.78L27.32,186.89L27.47,186.48L27.93,188.96L28.08,186.52L28.23,186.49L28.69,188.3L28.84,187.48L28.99,186.49L29.3,186.34L29.75,187.89L29.9,186.54L30.21,188.28L30.36,186.38L30.96,187.14L31.12,186.14L31.42,188.29L31.72,187.17L31.88,186.16L32.48,186.84L32.63,247.97L33.55,181.76L33.7,175.83L34,175.9L34.76,140.44L34.91,202.14L35.52,205.93L35.97,103.48L36.13,100.26L37.34,219.43L37.49,154.32L37.64,126.71L38.25,134.46L38.4,139.55L39.62,184.7L39.77,241.63L39.92,261.75L40.07,199.61L40.22,182.89L40.68,189.78L40.98,188.13L41.13,186.37L41.44,190.13L41.59,186.44L42.2,189.24L42.35,186.66L42.5,187.51L42.8,186.44L42.96,187.26L43.11,186.28L43.41,188.06L43.72,187.19L43.87,186.11L44.47,186.91L44.63,185.98L45.23,187.18L45.54,186.34L45.69,186.14L46.6,186.36L46.75,186.05L46.9,186.07L47.36,186.4L47.51,186.13L47.66,185.78L47.81,187.92L47.97,256.66L48.88,182.47L49.03,162.3L49.33,246.76L49.63,145.28L49.79,117.54L50.85,57.18L51,54.13L51.15,53.68L51.3,46.95L52.37,59.86L52.52,116.03L52.82,74.79L53.13,142.69L53.28,85.33L53.58,153.26L54.04,103.72L54.19,122.43L55.25,189.97L55.4,189.21L55.55,192.45L56.16,187.27L56.31,188.07L56.47,189.76L56.92,186.45L57.22,188.98L57.38,186.56L57.68,186.36L57.98,189.17L58.14,186.47L58.44,186.02L59.05,187.6L59.2,186.01L59.5,187.36L59.8,185.75L59.96,185.9L60.26,187.07L60.56,187L60.72,185.84L61.63,186.65L61.78,186.34L61.93,185.96L62.08,185.99L62.23,184.94L62.84,176.51L62.99,228.61L64.05,90.08L64.21,78.15L64.51,61.14L64.66,117.32L64.81,132.21L64.97,76.8L65.12,54.38L65.72,145.24L65.88,102.01L66.03,75.26L66.18,85.05L66.64,71.29L66.79,80.95L66.94,71.68L67.09,90.25L67.55,64.7L67.7,74.71L67.85,72.78L68.3,89.15L68.46,109.24L68.61,110.13L68.76,129.16L69.97,198.36L70.28,195.33L70.43,195.93L71.34,188.85L71.49,192.14L71.64,193.76L71.8,188.29L72.1,191.41L72.25,189.16L72.4,188.65L72.56,191.62L73.47,187.21L73.62,187.82L73.92,187.36L74.07,190.35L74.22,187.16L74.53,188.01L74.68,186.36L74.98,186.7L75.14,188.19L75.59,187.87L75.74,248.55L76.2,186.79L76.35,187.54L76.5,248.71L76.65,264.77L76.81,200.72L78.32,105.49L78.47,106.31L79.39,63.48L79.54,129.18L79.69,149.74L79.84,88.6L79.99,73.03L80.9,83.56L81.06,84.21L81.21,80.93L81.36,86.11L81.51,85.07L81.66,147.3L81.81,166.26L81.97,98.8L82.12,91.33L82.42,153.02L82.72,81.01L82.88,94.12L84.39,209.91L84.85,206L85,202.99L85.15,203.46L85.31,200.9L86.37,189.87L86.52,190.88L86.67,190.29L86.82,190.87L86.97,188.62L87.13,188.16L87.28,190L87.58,186.65L87.89,188.57L88.04,186.94L88.34,186.3L88.49,188.16L88.64,250.33L88.8,264.28L88.95,202.9L89.71,185.76L89.86,186.6L90.01,188L90.16,186.11L90.47,186.56L90.62,186.03L90.77,186.78L90.92,185.79L91.07,186.7L91.23,247.84L92.14,167.13L92.29,162.98L92.74,123.89L92.89,182.53L93.65,75.48L93.81,138.42L93.96,151.55L94.11,93.21L94.26,82.34L94.56,85.06L94.72,146.24L95.02,168.68L95.17,107.27L95.32,93.36L95.93,99.51L96.08,97.15L96.23,103.39L96.69,102.29L96.84,141.89L96.99,239.04L97.6,230.04L97.75,226.51L98.06,224.93L98.21,213.41L99.27,200.94L99.42,199.37L99.57,200.24L99.73,198.13L99.88,198.18L100.03,198.26L100.79,191.12L100.94,192.92L101.09,194.26L102,189.36L102.15,192.5L103.06,187.63L103.22,191.12L103.52,186.22L103.98,188.88L104.13,247.88L104.28,263.81L104.43,201.72L104.58,186L105.49,188.3L105.65,186.11L105.8,186.14L105.95,187.46L106.25,275.6L106.71,201.09L106.86,199.21L107.77,226.32L108.07,218.38L108.23,211.55L109.59,243.53L109.74,233.79L109.9,233.94L110.05,242.01L111.11,255.09L111.26,252.47L111.41,256.91L111.56,247.68L111.72,233.68L113.08,215.18L113.23,273.83L113.39,290.2L113.69,281.45L113.84,223.41L114.75,193.29L114.9,194.82L115.06,195.69L115.21,192.06L115.36,194.25L115.51,189.17L115.66,190.66L115.81,189.38L115.97,192.8L116.42,189.56L116.57,187.92L116.73,190.84L117.18,190.14L117.33,186.57L117.64,189.1L117.79,186.39L118.24,187.93L118.4,186.88L118.55,186.22L118.7,187.66L118.85,186.43L119,188.92L119.31,185.51L119.76,187.88L119.91,186.36L120.06,186.45L120.22,188.68L120.37,185.88L120.82,188.52L120.98,189.09L121.13,250.91L121.73,199.7L121.89,195.02L122.04,267.68L122.65,207.84L122.8,211.36L122.95,202.65L123.4,217.67L123.56,221.56L123.71,276.91L124.16,225.18L124.32,222.4L124.62,304L125.07,225.16L125.23,228.79L125.38,234.19L125.53,217.69L125.83,224.24L125.98,227.8L127.2,205.47L127.35,208.17L127.5,201.38L127.65,266.44L127.81,274.63L127.96,217.72L128.26,195.03L128.41,255.08L128.57,271.02L129.17,190.47L129.48,192.28L129.63,189.59L129.78,191.08L129.93,188.4L130.23,189.76L130.39,188.2L130.69,190.22L130.84,188.77L130.99,187.61L131.3,189.5L131.45,186.54L131.75,188.86L131.9,187.03L132.36,189.82L132.51,186.55L132.66,186.57L132.82,188.92L133.27,186.81L133.42,186.04L133.57,188.54L134.03,186.71L134.18,185.91L135.09,188.29L135.24,187.84L135.85,190.36L136,188.63L136.15,188.67L136.46,196.99L136.61,198.72L136.76,194.15L137.07,201.07L137.22,203.48L137.37,199.97L137.67,201.22L137.82,267.74L137.98,276.58L138.13,216.28L138.43,277.8L138.73,203.66L138.89,206.29L139.19,205.63L139.34,207.52L139.49,212.36L139.8,207.29L139.95,266.36L140.1,279.26L140.25,226.38L140.56,203.1L140.71,264.91L140.86,276.24L141.01,217.47L141.77,193.69L141.92,197.35L142.07,194.5L142.38,269.3L142.68,206.23L142.83,191.08L143.29,188.17L143.44,188.28L143.59,191.37L144.5,186.03L144.65,187.75L144.81,188.88L144.96,186.1L145.11,187.5L145.26,186.16L145.57,186.07L146.17,189.34L146.32,186.34L146.78,186.01L146.93,187.69L147.08,187.54L147.24,186.87L147.69,186.97L147.84,185.81L147.99,187.25L148.15,187.92L148.3,186.12L148.45,187.04L148.6,247.66L148.75,264.32L148.9,262.99L149.06,200.89L149.21,185.61L149.82,187.8L149.97,194.69L151.33,210.33L151.49,208.42L151.64,206.9L151.79,268.24L152.09,288.31L152.24,227.83L152.55,285.46L152.85,200.36L153,197.29L153.15,196.52L153.31,199.44L153.46,201.57L153.76,202.66L153.91,208.29L154.07,205.93L154.37,209.59L154.52,211.13L154.67,214.15L154.98,210.25L155.13,206.9L155.28,209.62L155.74,204.92L155.89,203.36L156.8,190.39L156.95,190.08L157.25,267.1L157.56,204.93L157.71,189.99L158.16,186.56L158.62,187.42L158.77,188.6L158.92,185.93L159.53,187.8L159.68,186.35L159.83,188.79L160.29,185.83L160.44,186.36L160.59,187.95L161.05,187.23L161.2,248.35L161.35,264.95L161.5,201.44L161.66,186.27L162.11,186.47L162.26,185.7L162.87,186.51L163.02,185.8L163.17,186.04L164.24,186.24L164.39,187.34L165.15,204.64L165.45,204.26L165.6,204.1L165.91,208.46L166.36,205.54L166.51,268.78L166.66,278.16L166.82,214.61L167.27,197.41L167.42,201.07L167.57,269.51L167.73,291.92L167.88,232.11L168.18,288.08L168.33,224.7L169.24,203.08L169.4,201.4L169.85,203.2L170,194.42L170.46,195.76L170.61,196.45L171.52,187.21L171.67,189.79L172.74,185.96L172.89,187.39L173.04,185.71L173.49,187.19L173.65,187.44L174.25,185.77L174.41,186.81L174.56,186.22L175.01,185.42L175.32,185.87L175.47,186.33L176.38,185.63L176.53,186.07L176.68,247.81L177.59,185.41L177.74,185.54L178.2,184.97L178.5,185.23L178.66,185.02L178.81,184.56L178.96,185.04L179.11,187.61L179.41,188.21L179.57,192.14L180.48,208.68L180.63,207.39L180.78,203.93L180.93,204.25L181.08,266.69L181.24,281.47L181.39,217.77L181.54,202.15L181.69,264.37L181.84,280.07L182.3,196.38L182.75,199.49L182.91,204.14L183.06,202.99L183.21,211.35L183.66,212.96L184.12,205.09L184.27,207L184.42,207.05L184.58,203.39L184.88,193.34L185.33,193.82L185.49,196.31L186.4,188.69L186.55,189.24L186.7,189.39L186.85,186.4L187.46,186.48L187.61,186.35L188.07,188.95L188.22,185.93L188.37,186.33L188.83,186.98L188.98,185.77L189.13,186.03L189.58,186.68L189.74,185.78L189.89,186L190.04,185.98L190.34,187.04L190.65,186.3L190.8,185.92L193.38,185.43L193.53,187.23L193.68,197.49L193.83,259.35L194.29,281.98L194.44,218.44L194.59,199.07L195.2,211.53L195.35,211.74L195.66,213.32L195.81,207.22L195.96,203.13L196.41,207.39L196.57,207.44L196.87,209.09L197.02,208.72L197.17,212.13L197.48,215.04L197.63,223.27L198.08,219.89L198.24,222.46L198.39,223.43L198.54,218.71L199.6,195.67L199.75,198.22L199.91,200.63L200.06,194.04L200.21,197.91L200.36,192.87L200.51,192.47L200.66,194.98L201.58,186.7L201.73,189.5L202.64,186.7L202.79,186.31L203.09,186.04L203.4,188.95L203.55,186.42L203.7,187.19L204.61,185.74L204.76,185.77L205.22,187.37L205.52,186.67L205.67,185.6L205.98,186.37L206.58,186.03L206.74,185.85L207.04,186.14L207.19,185.96L207.34,247.93L207.65,186.01L208.25,195.36L208.41,198.31L208.56,198.44L208.71,199.88L208.86,200.68L209.01,262.34L209.16,278.25L209.32,219.2L209.47,211.2L209.62,211.26L209.77,270.15L210.08,197.63L210.68,202.57L210.83,203.29L211.75,296.63L211.9,229.34L212.05,211.09L212.2,213.87L212.35,278.46L212.5,301.95L212.66,239.72L212.81,224.66L213.11,224.12L213.57,230.84L213.72,225.13L214.93,197.03L215.08,254.88L215.24,272.25L215.39,210.18L215.84,266.97L216,206.37L216.91,187.66L217.06,187.78L217.21,190.17L217.67,187.18L217.82,188.4L217.97,187.84L218.12,186.17L218.73,187.75L218.88,187.89L219.79,185.94L219.94,186.04L220.09,186.61L220.25,187.97L220.4,185.9L220.7,186.54L220.85,186.11L221,186.73L221.16,186.02L221.46,186.05L221.61,185.95L222.67,186.38L222.83,188.94L222.98,189.03L223.13,191.28L223.43,269.84L223.89,208.66L224.04,193.48L224.19,192.34L224.34,255.47L224.5,269.88L224.65,208.24L225.25,188.76L225.41,251.48L225.56,267.78L225.71,207.67L225.86,191.22L226.01,189.76L226.32,193.54L226.47,191.49L226.62,193.32L226.92,200.82L227.23,199.35L227.38,191.56L227.68,201.82L227.84,199.83L227.99,261.28L228.29,274.93L228.44,209.79L229.35,193.55L229.5,193.25L230.57,187.4L230.72,190.48L230.87,185.88L231.48,187.98L231.63,186.75L232.09,188.77L232.24,187.05L232.39,186.31L232.69,185.88L233,188.45L233.15,186.21L233.3,187.32L233.45,186L233.75,186.66L233.91,185.99L234.36,188.18L234.51,186.21L234.67,185.5L234.97,185.81L235.12,187.18L236.03,185.58L236.18,186.1L236.34,186.45L236.49,186.34L236.64,250.26L236.79,263.99L236.94,201.75L237.25,186.58L237.55,188.69L237.7,251.26L237.85,267.09L238,204.58L238.16,190.48L238.31,190.66L238.46,188.69L238.61,188.72L238.76,189.64L238.92,192.19L239.07,190.75L239.22,252.22L239.37,269.8L239.52,212.27L239.67,195.28L239.98,282.87L240.59,280.05L240.74,289.31L241.19,205.98L241.65,215.13L241.8,211.66L241.95,205.56L242.1,214.96L242.41,212.33L242.56,218.66L242.71,220.48L242.86,207.59L243.17,212.58L243.32,208.98L243.47,205.03L243.62,208.24L244.08,202.37L244.23,202.99L245.14,191.9L245.29,196.02L245.9,188.28L246.05,190.02L246.2,190.85L247.11,188.06L247.26,186.75L247.72,189.04L247.87,187.65L248.02,186.38L248.17,188.03L248.33,186.33L248.78,186.8L248.93,187.61L249.54,186.04L249.69,248.1L250.6,186.12L250.76,186.5L251.36,186.06L251.51,248.51L251.67,263.72L251.82,202.78L251.97,193.47L252.12,198L252.27,260.73L252.73,280.9L253.03,209.39L253.18,210.02L253.34,214.72L253.49,215.99L253.64,213.27L253.79,168.51L254.09,78.59L254.55,90.33L254.7,92.28L255.16,65.82L255.46,72.93L255.61,130.15L255.76,154.8L255.92,91.68L256.07,76.32L256.37,73.81L256.67,75.28L256.83,78.79L257.43,66.97L257.59,74.98L257.74,117.12L258.04,101.29L258.19,120.85L258.34,144.49L259.26,195.38L259.41,192.55L259.56,195.85L259.86,191.27L260.01,195.51L260.17,189.78L260.47,192.37L260.62,249.96L260.92,268.83L261.08,204.34L261.68,186.57L261.99,187.83L262.14,189.12L262.44,186.61L262.9,188.85L263.05,187.87L263.2,186.1L263.81,187.46L263.96,186.15L264.42,185.74L264.87,187.81L265.02,186.48L265.33,186.88L265.48,185.97L265.63,186.77L265.78,248.05L266.09,248.36L266.69,171.03L266.84,221.95L267,235.07L267.15,156.56L268.36,63.52L268.51,69.24L268.67,72.33L268.82,63.3L268.97,65.84L269.12,59.17L269.43,64.93L269.58,63.6L269.73,72.23L269.88,67.62L270.18,81.28L270.34,82.58L270.49,78.95L270.79,81.86L270.94,87.77L271.85,74.4L272.01,71.85L272.16,71.12L272.31,89.37L273.52,253.6L273.68,201.28L273.83,193.08L274.13,195.64L274.28,194.39L274.43,189.73L274.59,193.02L274.89,188.53L275.04,188.82L275.19,189.26L275.34,190.83L275.5,186.14L275.8,188.12L275.95,187.41L276.26,186.39L276.71,189.12L276.86,187.74L277.01,186.32L277.62,187.45L277.77,186.57L278.23,188.15L278.38,187.27L278.53,186.59L278.68,187.69L278.84,185.89L279.14,187.12L279.29,248.22L280.05,186.09L280.2,187.43L280.35,186.04L280.51,186.87L280.81,185.4L280.96,183.63L281.11,183.8L281.26,180.86L281.87,160.17L282.02,214.18L282.48,116.74L282.93,157.15L283.09,149.28L283.69,70.13L284.3,78.21L284.45,134.36L284.76,193.96L284.91,70.65L285.06,56.28L285.36,74.61L285.67,58.59L285.82,62.51L286.12,72.41L286.27,68.19L286.43,61.83L286.58,60.55L286.73,127.89L287.03,167.23L287.18,120.16L287.49,133.59L287.64,139.15L288.55,189.02L289.01,188.83L289.16,188.31L290.07,186.03L290.22,187.48L290.68,185.72L290.83,186.35L290.98,188.14L291.89,186.14L292.04,186.68L292.35,186.09L292.5,186.9L293.41,185.9L293.56,186.18L294.01,186.34L294.17,185.88L294.32,185.78L295.08,186.01L295.23,184.3L296.29,143.57L296.44,129.84L297.96,55.99L298.11,55.11L298.57,125.11L298.87,67.35L299.02,65.11L299.48,71.21L299.63,58.51L300.09,139.89L300.39,64.11L300.54,57.86L301,48.27L301.15,49.18L301.3,53.65L303.27,198.4L303.58,195.57L303.73,192.29L304.18,186.19L304.64,187.19L304.79,187.72L305.25,188.52L305.55,185.74L305.7,186.11L306.16,188.28L306.46,186.32L306.61,187.31L307.22,186.47L307.37,189.08L307.52,185.82L308.13,186.58L308.28,185.86L308.89,186.84L309.04,247.79L309.19,263.24L309.35,201.32L310.1,176.68L310.26,180.51L310.41,176.66L310.71,164.77L310.86,170.68L311.02,224.93L311.17,221.73L311.32,93.22L311.47,79.52L311.62,90.07L311.77,123.57L312.08,77.96L312.53,102.49L312.68,87.56L313.29,108.63L313.44,73.74L313.75,85.94L313.9,63.64L314.35,113.47L314.51,61.92L314.66,57.13L314.81,67.96L314.96,117.07L315.57,162.43L316.02,161.39L316.18,165.95L316.63,157.03L316.78,175.57L316.94,181.29L317.09,243.7L317.39,263.4L317.54,203.65L318.45,186.22L318.6,186.98L319.52,185.79L319.67,186.62L319.82,185.62L320.43,185.86L320.58,185.77L320.88,186.84L321.49,186.39L321.64,186.04L322.25,186.12L322.4,185.68L323.31,185.87L323.46,185.74L324.22,185.19L324.37,184.46L324.68,176.78L324.83,234.63L325.89,80L326.04,67.67L326.5,40.29L326.95,44.01L327.1,44.17L328.17,56.45L328.62,54.69L328.77,51.56L329.53,60.71L329.69,55.92L329.84,55.59L329.99,59.38L330.14,54.29L330.44,61.72L330.6,71.2L332.72,196.14L332.87,191.39L333.02,193.24L333.18,192.84L333.33,253.25L333.63,270.23L333.78,207.81L334.69,185.87L334.85,186.43L335.45,186.18L335.61,187.41L336.52,185.86L336.67,186.02L336.97,185.63L337.12,186.41L337.43,186.12L337.58,186.19L338.49,185.72L338.64,186.12L339.1,177.85L339.25,235.61L340.31,94.83L340.46,83.65L341.07,46.32L341.52,51.01L341.68,113.54L341.98,135.84L342.13,131.76L342.28,67.53L342.74,55.2L343.04,60.64L343.19,62.41L343.35,60.31L343.65,66.06L343.8,64.94L343.95,66.2L344.11,126.51L344.41,145.88L344.56,139.86L344.71,78.87L344.86,56.6L345.32,86.28L345.47,100.82L346.84,197.6L347.14,190.68L347.29,191.65L347.6,192.25L348.05,187.41L348.2,188.98L348.36,190.2L349.27,186.37L349.42,189.64L350.03,185.84L350.18,186.02L350.33,187.11L350.48,188.62L350.78,186.41L350.94,187.47L351.09,185.92L351.24,186.87L351.69,186.67L351.85,185.88L352,186.39L352.15,185.74L352.45,186.24L352.61,185.76L353.06,185.94L353.21,185.78L353.36,185.39L354.12,171.03L354.28,157.61L355.79,66.78L355.94,128.02L356.25,128.78L356.55,66.53L356.86,78.85L357.01,72.76L357.31,68.94L357.46,73.85L357.61,81.36L357.77,76.2L358.07,83.74L358.22,82.28L358.37,89.45L359.44,75.84L359.59,74.44L361.41,201.61L361.56,197.23L361.71,195.69L361.86,196.03L362.02,194.68L362.17,253.99L362.32,269.56L362.47,269.42L362.62,205.75L363.38,187.53L363.53,190.02L363.69,186.58L363.84,189.07L364.44,188.41L364.6,187.57L364.75,186.26L364.9,187.88L365.2,186.46L365.36,188.13L365.66,188.23L366.27,185.8L366.42,186.01L366.87,188.54L367.03,185.92L367.18,186.87L367.63,186.39L367.78,185.82L367.94,186.08L368.09,181.56L368.39,172.98L368.54,175.4L368.7,232.65L368.85,236.63L369,172.48L370.52,79.33L370.67,99.7L370.82,68.89L371.12,122.15L371.28,155.55L371.43,178.08L371.58,131.97L371.73,86.41L371.88,80.99L372.03,97.34L372.19,99.14L372.34,91.82L372.49,108.79L372.64,115.76L373.55,73.33L373.7,82.98L373.86,71.56L374.16,86.87L374.46,75.09L374.61,97.91L375.37,156.01L375.53,170.9L375.98,194.04L376.28,192.6L376.44,189.51L376.59,191.69L376.74,253.22L376.89,268.55L377.04,205.65L377.95,188.07L378.11,188.48L378.56,189.4L378.71,186.47L378.86,187.1L379.02,188.61L379.62,188.71L379.93,185.85L380.08,185.92L380.23,185.96L380.38,188.11L380.53,189.13L380.69,186.48L380.84,187.82L380.99,185.79L381.9,188.46L382.05,185.74L382.36,186.9L382.51,185.26L383.27,165.41L383.42,147.47L383.72,149.69L384.03,102.2L384.18,106.03L384.33,156.08L384.94,73.14L385.09,114.14L385.24,136.3L386,56.04L386.15,58.73L386.3,64.52L386.45,61.34L386.61,120.5L386.76,138.26L386.91,74.02L387.06,59.2L387.21,58.26L387.37,63.25L387.67,63.47L387.82,61.18L387.97,74.2L388.12,75.77L388.28,72.39L388.43,140.44L388.73,159.97L388.88,98.67L389.19,105.21L389.34,119.26L390.55,197.21L391.16,190.3L391.31,188.13L391.46,190.17L391.77,186.77L391.92,190.01L392.07,187.04L392.68,187.92L392.83,185.84L393.28,187.92L393.44,187.41L393.59,185.58L394.5,187.56L394.65,187.68L394.95,185.74L395.41,185.93L395.56,185.93L395.87,185.72L396.32,186.97L396.47,249.34L397.38,185.06L397.53,183.78L397.69,184.65L397.84,190.14L398.29,177L398.45,152.66L399.05,90.78L399.36,120.93L399.51,147.4L399.81,122.08L399.96,87.91L400.27,136.34L400.57,76.11L400.72,82.15L400.87,80.14L401.03,85.45L401.18,97.23L401.48,109.8L401.63,96.21L401.78,85.47L402.24,177.86L402.7,141.87L402.85,146.19L403.15,122.18L403.45,132.48L403.61,149.09L403.91,135.3L404.06,157.65L404.21,141.33L405.12,189.25L405.58,187.47L405.73,250.13L405.88,263.55L406.19,263.3L406.34,203.44L407.25,186.32L407.4,186.85L407.55,187.01L407.7,186.74L407.86,189.01L408.01,186.41L408.62,187.36L408.77,186.5L408.92,187.22L409.07,186.37L409.37,187.05L409.53,248.04L409.83,186.18L410.44,186.87L410.59,186.24L411.5,186.48L411.65,186.37L411.95,183.54L412.11,178.7L412.26,176.84L412.41,165.38L412.87,167.18L413.93,49.25L414.08,50.89L414.23,111.96L414.38,131.18L414.54,73.27L414.69,59.78L414.84,59.54L414.99,62.4L415.45,146.45L415.75,75.64L415.9,57.29L416.96,71.48L417.12,70.02L417.27,67.73L418.48,115.52L418.63,122.58L419.7,194.4L420,192.97L420.15,190.69L420.46,191.34L421.06,187.42L421.21,188.72L421.67,185.87L421.82,186.8L421.97,188.83L422.12,185.99L422.73,186.45L422.88,185.98L423.79,189.18L423.95,185.84L424.1,187.18L424.71,185.98L424.86,187.06L425.77,185.69L425.92,186.23L426.07,247.97L426.53,175.79L426.68,171.26L427.59,117.76L427.74,96.97L428.35,53.6L428.5,106.95L428.65,124.75L428.8,62.25L428.96,50.98L429.56,134.47L429.71,76.43L429.87,62.18L430.02,61L430.17,65.92L430.32,66.2L430.47,69.46L430.62,63.19L431.08,71.11L431.23,65.37L431.38,63.73L431.69,62.44L432.14,74.09L432.29,70.29L432.45,69.07L432.6,72.72L432.75,87.92L434.42,195.16L434.87,191.63L435.03,187.53L435.18,192.63L435.63,188.88L435.79,187.85L435.94,189.25L436.24,187.1L436.39,188.23L436.54,187L436.7,189.24L436.85,186.12L437,186.75" style="vector-effect: non-scaling-stroke; fill: none; stroke: rgb(0, 128, 0); stroke-opacity: 1; stroke-width: 2px; opacity: 1;"/></g><g class="points"/><g class="text"/></g></g></g><g class="overplot"/><path class="xlines-above crisp" d="M0,0" style="fill: none;"/><path class="ylines-above crisp" d="M0,0" style="fill: none;"/><g class="overlines-above"/><g class="xaxislayer-above"><g class="xtick"><text text-anchor="middle" x="0" y="433" transform="translate(109.14,0)" style="font-family: 'Open Sans', verdana, arial, sans-serif; font-size: 12px; fill: rgb(42, 63, 95); fill-opacity: 1; white-space: pre; opacity: 1;"><tspan class="line" dy="0em" x="0" y="433">Apr 3</tspan><tspan class="line" dy="1.3em" x="0" y="433">2022</tspan></text></g><g class="xtick"><text text-anchor="middle" x="0" y="433" style="font-family: 'Open Sans', verdana, arial, sans-serif; font-size: 12px; fill: rgb(42, 63, 95); fill-opacity: 1; white-space: pre; opacity: 1;" transform="translate(211.15,0)">Apr 10</text></g><g class="xtick"><text text-anchor="middle" x="0" y="433" style="font-family: 'Open Sans', verdana, arial, sans-serif; font-size: 12px; fill: rgb(42, 63, 95); fill-opacity: 1; white-space: pre; opacity: 1;" transform="translate(313.15,0)">Apr 17</text></g><g class="xtick"><text text-anchor="middle" x="0" y="433" style="font-family: 'Open Sans', verdana, arial, sans-serif; font-size: 12px; fill: rgb(42, 63, 95); fill-opacity: 1; white-space: pre; opacity: 1;" transform="translate(415.15,0)">Apr 24</text></g></g><g class="yaxislayer-above"><g class="ytick"><text text-anchor="end" x="79" y="4.199999999999999" transform="translate(0,419.19)" style="font-family: 'Open Sans', verdana, arial, sans-serif; font-size: 12px; fill: rgb(42, 63, 95); fill-opacity: 1; white-space: pre; opacity: 1;">−100</text></g><g class="ytick"><text text-anchor="end" x="79" y="4.199999999999999" style="font-family: 'Open Sans', verdana, arial, sans-serif; font-size: 12px; fill: rgb(42, 63, 95); fill-opacity: 1; white-space: pre; opacity: 1;" transform="translate(0,341.65999999999997)">−50</text></g><g class="ytick"><text text-anchor="end" x="79" y="4.199999999999999" style="font-family: 'Open Sans', verdana, arial, sans-serif; font-size: 12px; fill: rgb(42, 63, 95); fill-opacity: 1; white-space: pre; opacity: 1;" transform="translate(0,264.12)">0</text></g><g class="ytick"><text text-anchor="end" x="79" y="4.199999999999999" style="font-family: 'Open Sans', verdana, arial, sans-serif; font-size: 12px; fill: rgb(42, 63, 95); fill-opacity: 1; white-space: pre; opacity: 1;" transform="translate(0,186.59)">50</text></g><g class="ytick"><text text-anchor="end" x="79" y="4.199999999999999" style="font-family: 'Open Sans', verdana, arial, sans-serif; font-size: 12px; fill: rgb(42, 63, 95); fill-opacity: 1; white-space: pre; opacity: 1;" transform="translate(0,109.05)">100</text></g></g><g class="overaxes-above"/></g></g><g class="polarlayer"/><g class="smithlayer"/><g class="ternarylayer"/><g class="geolayer"/><g class="funnelarealayer"/><g class="pielayer"/><g class="iciclelayer"/><g class="treemaplayer"/><g class="sunburstlayer"/><g class="glimages"/><defs id="topdefs-c956dd"><g class="clips"/><clipPath id="legendc956dd"><rect width="162" height="67" x="0" y="0"/></clipPath></defs><g class="layer-above"><g class="imagelayer"/><g class="shapelayer"/></g><g class="infolayer"><g class="legend" pointer-events="all" transform="translate(525.74,100)"><rect class="bg" shape-rendering="crispEdges" width="162" height="67" x="0" y="0" style="stroke: rgb(68, 68, 68); stroke-opacity: 1; fill: rgb(255, 255, 255); fill-opacity: 1; stroke-width: 0px;"/><g class="scrollbox" transform="" clip-path="url(#legendc956dd)"><g class="groups"><g class="traces" transform="translate(0,14.5)" style="opacity: 1;"><text class="legendtext" text-anchor="start" x="40" y="4.680000000000001" style="font-family: 'Open Sans', verdana, arial, sans-serif; font-size: 12px; fill: rgb(42, 63, 95); fill-opacity: 1; white-space: pre;">BESS</text><g class="layers" style="opacity: 0.5;"><g class="legendfill"/><g class="legendlines"><path class="js-line" d="M5,0h30" style="fill: none; stroke: rgb(0, 191, 255); stroke-opacity: 1; stroke-width: 2px;"/></g><g class="legendsymbols"><g class="legendpoints"/></g></g><rect class="legendtoggle" x="0" y="-9.5" width="156.71875" height="19" style="fill: rgb(0, 0, 0); fill-opacity: 0;"/></g><g class="traces" transform="translate(0,33.5)" style="opacity: 1;"><text class="legendtext" text-anchor="start" x="40" y="4.680000000000001" style="font-family: 'Open Sans', verdana, arial, sans-serif; font-size: 12px; fill: rgb(42, 63, 95); fill-opacity: 1; white-space: pre;">Solar</text><g class="layers" style="opacity: 0.5;"><g class="legendfill"/><g class="legendlines"><path class="js-line" d="M5,0h30" style="fill: none; stroke: rgb(255, 0, 0); stroke-opacity: 1; stroke-width: 2px;"/></g><g class="legendsymbols"><g class="legendpoints"/></g></g><rect class="legendtoggle" x="0" y="-9.5" width="156.71875" height="19" style="fill: rgb(0, 0, 0); fill-opacity: 0;"/></g><g class="traces" transform="translate(0,52.5)" style="opacity: 1;"><text class="legendtext" text-anchor="start" x="40" y="4.680000000000001" style="font-family: 'Open Sans', verdana, arial, sans-serif; font-size: 12px; fill: rgb(42, 63, 95); fill-opacity: 1; white-space: pre;">Grid Meter (Net Load)</text><g class="layers" style="opacity: 0.5;"><g class="legendfill"/><g class="legendlines"><path class="js-line" d="M5,0h30" style="fill: none; stroke: rgb(0, 128, 0); stroke-opacity: 1; stroke-width: 2px;"/></g><g class="legendsymbols"><g class="legendpoints"/></g></g><rect class="legendtoggle" x="0" y="-9.5" width="156.71875" height="19" style="fill: rgb(0, 0, 0); fill-opacity: 0;"/></g></g></g><rect class="scrollbar" rx="20" ry="3" width="0" height="0" x="0" y="0" style="fill: rgb(128, 139, 164); fill-opacity: 1;"/></g><g class="g-gtitle"><text class="gtitle" x="298.5" y="50" text-anchor="middle" dy="0em" style="font-family: 'Open Sans', verdana, arial, sans-serif; font-size: 17px; fill: rgb(42, 63, 95); opacity: 1; font-weight: normal; white-space: pre;"><tspan class="line" dy="0em" x="298.5" y="50">Scenario 3</tspan><tspan class="line" dy="1.3em" x="298.5" y="50">Microgrid Output</tspan><tspan class="line" dy="2.6em" x="298.5" y="50">From: April 01, 2022 to April 30, 2022</tspan></text></g><g class="g-xtitle"><text class="xtitle" x="298.5" y="476.409375" text-anchor="middle" style="font-family: 'Open Sans', verdana, arial, sans-serif; font-size: 14px; fill: rgb(42, 63, 95); opacity: 1; font-weight: normal; white-space: pre;">Time</text></g><g class="g-ytitle"><text class="ytitle" transform="rotate(-90,27.168750000000003,260)" x="27.168750000000003" y="260" text-anchor="middle" style="font-family: 'Open Sans', verdana, arial, sans-serif; font-size: 14px; fill: rgb(42, 63, 95); opacity: 1; font-weight: normal; white-space: pre;">Demand (kW)</text></g></g></svg>