<svg class="main-svg" xmlns="http://www.w3.org/2000/svg" xmlns:xlink="http://www.w3.org/1999/xlink" width="700" height="500" style="" viewBox="0 0 700 500"><rect x="0" y="0" width="700" height="500" style="fill: rgb(255, 255, 255); fill-opacity: 1;"/><defs id="defs-4d47a8"><g class="clips"><clipPath id="clip4d47a8xyplot" class="plotclip"><rect width="437" height="320"/></clipPath><clipPath class="axesclip" id="clip4d47a8x"><rect x="80" y="0" width="437" height="500"/></clipPath><clipPath class="axesclip" id="clip4d47a8y"><rect x="0" y="100" width="700" height="320"/></clipPath><clipPath class="axesclip" id="clip4d47a8xy"><rect x="80" y="100" width="437" height="320"/></clipPath></g><g class="gradients"/><g class="patterns"/></defs><g class="bglayer"/><g class="layer-below"><g class="imagelayer"/><g class="shapelayer"/></g><g class="cartesianlayer"><g class="subplot xy"><g class="layer-subplot"><g class="shapelayer"/><g class="imagelayer"/></g><g class="minor-gridlayer"><g class="x"/><g class="y"/></g><g class="gridlayer"><g class="x"><path class="xgrid crisp" transform="translate(109.14,0)" d="M0,100v320" style="stroke: rgb(255, 255, 255); stroke-opacity: 1; stroke-width: 1px;"/><path class="xgrid crisp" transform="translate(211.15,0)" d="M0,100v320" style="stroke: rgb(255, 255, 255); stroke-opacity: 1; stroke-width: 1px;"/><path class="xgrid crisp" transform="translate(313.15,0)" d="M0,100v320" style="stroke: rgb(255, 255, 255); stroke-opacity: 1; stroke-width: 1px;"/><path class="xgrid crisp" transform="translate(415.15,0)" d="M0,100v320" style="stroke: rgb(255, 255, 255); stroke-opacity: 1; stroke-width: 1px;"/></g><g class="y"><path class="ygrid crisp" transform="translate(0,393.39)" d="M80,0h437" style="stroke: rgb(255, 255, 255); stroke-opacity: 1; stroke-width: 1px;"/><path class="ygrid crisp" transform="translate(0,352.45)" d="M80,0h437" style="stroke: rgb(255, 255, 255); stroke-opacity: 1; stroke-width: 1px;"/><path class="ygrid crisp" transform="translate(0,270.58000000000004)" d="M80,0h437" style="stroke: rgb(255, 255, 255); stroke-opacity: 1; stroke-width: 1px;"/><path class="ygrid crisp" transform="translate(0,229.64)" d="M80,0h437" style="stroke: rgb(255, 255, 255); stroke-opacity: 1; stroke-width: 1px;"/><path class="ygrid crisp" transform="translate(0,188.7)" d="M80,0h437" style="stroke: rgb(255, 255, 255); stroke-opacity: 1; stroke-width: 1px;"/><path class="ygrid crisp" transform="translate(0,147.77)" d="M80,0h437" style="stroke: rgb(255, 255, 255); stroke-opacity: 1; stroke-width: 1px;"/><path class="ygrid crisp" transform="translate(0,106.83)" d="M80,0h437" style="stroke: rgb(255, 255, 255); stroke-opacity: 1; stroke-width: 1px;"/></g></g><g class="zerolinelayer"><path class="yzl zl crisp" transform="translate(0,311.52)" d="M80,0h437" style="stroke: rgb(255, 255, 255); stroke-opacity: 1; stroke-width: 2px;"/></g><path class="xlines-below"/><path class="ylines-below"/><g class="overlines-below"/><g class="xaxislayer-below"/><g class="yaxislayer-below"/><g class="overaxes-below"/><g class="plot" transform="translate(80,100)" clip-path="url(#clip4d47a8xyplot)"><g class="scatterlayer mlayer"><g class="trace scatter trace8aabc7" style="stroke-miterlimit: 2; opacity: 0.5;"><g class="fills"/><g class="errorbars"/><g class="lines"><path class="js-line" d="M0,211.52L1.52,211.52L1.67,213.45L2.58,211.52L2.73,211.52L4.86,211.52L5.01,210.29L5.16,194.54L5.46,211.52L5.62,211.52L5.77,211.52L11.23,211.52L11.38,219.68L11.99,214.86L12.29,215.72L12.45,214.62L12.6,216.64L12.75,214.39L13.05,216.15L13.21,212.7L13.36,217.84L13.96,213.54L14.12,215.82L15.03,211.52L15.18,211.91L15.33,213.1L15.79,211.61L15.94,211.52L19.43,211.52L19.58,202.87L19.88,202.73L20.04,207.67L20.19,198.12L20.34,208.28L20.64,190.92L20.8,205.84L20.95,177.5L21.86,211.52L22.01,211.52L26.26,211.52L26.41,214.77L26.71,211.52L27.32,211.99L27.47,211.52L27.93,213.73L28.08,212.07L28.23,211.52L28.69,212.61L29.14,212.01L29.3,211.64L30.21,212.94L30.36,211.87L31.27,211.52L31.42,212.94L32.33,211.52L32.48,211.52L33.7,211.52L33.85,210.47L34,211.25L34.15,208.9L34.3,210.86L34.46,197.72L35.52,211.52L35.67,211.52L40.22,211.52L40.38,214.05L40.68,214.94L41.29,211.52L41.44,215.3L42.05,211.52L42.35,212.17L42.5,211.8L43.11,211.56L43.26,211.7L43.41,212.47L44.32,211.52L44.47,211.52L47.81,211.52L47.97,218.97L49.03,208.22L49.18,210.69L49.33,211.52L49.48,210.64L49.63,198.09L49.79,175.24L50.09,211.52L50.24,211.52L50.39,211.52L54.64,211.52L54.8,215.17L55.1,211.52L55.4,212.29L55.55,217.46L55.86,211.52L56.31,211.67L56.47,214.71L57.07,211.52L57.38,212.1L57.53,212.57L57.83,211.52L57.98,214.1L58.44,211.65L58.59,211.52L59.65,211.59L59.8,211.52L62.99,211.52L63.14,206.7L63.45,191.46L63.75,211.52L63.9,211.52L69.52,211.52L69.67,221.94L69.82,214.12L69.97,224.45L70.43,215.29L70.58,215.61L70.89,216.35L71.04,212.51L71.19,220.99L71.64,216.31L71.8,212.44L72.4,211.96L72.56,216.59L72.71,212.76L72.86,211.52L73.16,213.43L73.31,214.16L73.62,211.73L73.92,211.86L74.07,215.4L74.98,211.52L75.14,212.42L75.44,213L75.74,211.52L76.05,211.6L76.2,211.52L76.35,211.92L76.96,211.52L77.11,211.52L77.56,211.52L77.72,205L78.63,155L78.78,198.74L79.54,211.52L79.69,211.52L83.94,211.52L84.09,212.65L84.7,229.51L85,225.04L85.15,219.59L85.31,222.21L85.46,218.18L85.61,214.8L85.76,215.19L85.91,212.3L86.82,214.98L86.97,212.33L87.13,211.88L87.28,214.19L87.58,211.52L88.19,211.88L88.34,211.61L88.64,212.37L89.1,211.61L89.25,212.09L89.86,211.52L90.01,212.62L90.92,211.52L91.07,211.52L92.29,211.52L92.44,194.55L92.59,196.65L92.74,177.83L93.2,175.12L93.96,211.52L94.11,211.52L96.84,211.52L96.99,267.71L97.45,221.93L97.75,222.96L97.9,250.93L98.36,218.08L98.66,219.48L98.81,231.2L99.27,215.68L99.57,216.79L99.73,221.15L100.18,214.09L100.33,223.08L100.48,214.41L100.64,219.62L100.79,213.54L101.39,214.22L101.55,215.57L101.85,218.33L102.31,212.96L102.46,215.33L102.91,215.79L103.06,212.48L103.22,216.25L103.52,211.52L104.13,212.09L104.28,211.52L105.34,211.65L105.49,212.98L105.95,211.52L106.1,212.75L106.25,221.92L106.4,214.95L106.56,222.05L106.86,219.55L107.01,222.8L107.16,221.08L107.31,237.43L107.47,220.97L107.62,240.87L108.07,229.47L108.23,226.27L109.29,245.33L109.44,248.84L109.59,250.14L109.74,237.57L110.5,261.9L110.65,238.74L111.41,270.29L111.56,238.32L111.72,250.43L111.87,233.23L112.32,240.83L112.48,234.07L112.63,240.44L113.08,228.33L113.23,227.61L113.39,229.53L113.54,222.16L113.69,222.71L113.84,226.67L114.75,213.44L114.9,218.94L115.81,212.5L115.97,217.74L116.57,211.52L116.88,212.53L117.03,211.52L117.18,215.28L117.79,212.16L117.94,213.23L118.55,211.52L118.85,211.7L119,213.77L119.61,211.52L119.91,211.73L120.06,211.52L120.22,213.59L120.82,212.54L120.98,212.73L121.13,211.76L121.28,215.92L121.43,212.62L121.58,214.34L121.73,224.04L121.89,214.47L122.04,231.32L122.34,224.2L122.49,224.78L122.65,224.31L122.8,231.13L122.95,215.78L123.4,232.97L123.56,235.47L124.01,235.95L124.62,211.52L124.77,211.52L253.79,211.52L253.94,127.36L254.4,192.22L254.7,191.81L254.85,125.32L255.01,179.5L255.16,115.58L255.61,171.2L255.76,134.51L256.37,132.38L256.52,173.34L256.67,131.55L256.83,178.7L256.98,127.1L257.43,163.15L257.59,130.55L258.5,211.52L258.65,211.52L258.8,211.52L258.95,215.4L259.1,212.49L259.26,220.78L259.41,213.83L259.56,221.3L260.17,213.28L260.32,216.25L260.47,214.22L260.62,211.9L260.92,215.56L261.23,213.7L261.38,212.06L261.53,214.42L261.99,211.56L262.14,213.52L262.29,212.02L262.75,211.53L262.9,213.19L263.66,211.52L263.81,211.92L264.72,211.52L264.87,212.23L265.78,211.52L265.93,211.52L266.69,211.52L266.84,206.99L267,210.38L267.15,190.26L267.45,184.38L267.6,171.82L267.76,171.68L267.91,161.68L268.82,141.73L268.97,152.17L269.12,134.41L269.58,147.58L269.73,152.81L269.88,142.19L270.03,163.65L270.18,148.64L270.34,167.19L270.94,178.69L271.09,132.67L271.25,179.82L271.4,127.87L271.85,193.53L272.01,211.52L273.68,211.52L273.83,217.42L274.13,219.81L274.43,212.72L274.59,217.53L275.04,212.19L275.5,212.42L275.65,211.52L276.1,212.89L276.41,211.88L276.56,211.61L276.71,213.57L277.01,211.52L277.17,211.76L277.32,211.58L277.77,211.6L277.93,212.47L278.53,211.52L278.84,211.7L278.99,211.52L279.75,211.52L279.9,214.22L280.81,211.52L280.96,211.52L281.72,211.52L281.87,209.09L282.33,176.02L282.48,202.83L282.63,211.52L288.4,211.52L288.55,213.25L289.31,211.64L289.46,211.94L289.76,212.29L290.37,211.61L290.52,211.52L290.83,211.52L290.98,212.73L291.89,211.56L292.04,211.52L302.82,211.52L302.97,214.24L303.43,218.81L303.73,215.3L303.88,212.26L304.03,213.29L304.34,211.52L304.49,212.3L304.64,211.71L305.1,211.52L305.25,213.25L305.4,211.95L305.55,211.52L306.16,212.53L306.31,211.77L306.46,211.52L307.22,211.52L307.37,214.04L308.28,211.52L308.43,211.52L310.56,211.52L310.71,210.61L311.02,211.3L311.17,205.21L311.32,124.65L311.62,211.52L311.77,211.52L311.93,211.52L317.54,211.8L317.69,214.65L318,212.95L318.15,217.79L319.06,211.52L319.21,211.52L332.11,211.52L332.27,220.13L332.87,212.97L333.18,213.06L333.33,215.41L333.48,213.46L333.63,216.41L334.09,213.7L334.24,214.86L334.54,217.92L335.15,211.52L335.3,211.52L336.82,211.52L336.97,211.52L339.4,211.52L339.55,210.48L340.01,179.8L340.16,204.43L340.31,211.52L346.53,211.52L346.69,216.85L346.84,219.36L346.99,213.14L347.29,214.34L347.44,212.03L347.6,217.64L348.2,212.8L348.36,214.19L349.27,211.52L349.42,214.76L350.33,211.52L350.48,213.09L351.39,211.52L351.54,211.52L354.12,211.52L354.28,207.42L354.73,181.84L354.88,205.1L355.03,211.52L361.11,211.52L361.26,219.85L361.41,221.16L361.56,216.59L361.71,217.8L361.86,216.7L362.02,216.96L362.17,212.98L362.78,216.47L362.93,212.65L363.08,217.18L363.38,211.52L363.53,215.16L363.69,212.43L363.84,213.65L364.29,211.57L364.44,212.71L364.6,211.81L364.9,212.26L365.2,211.52L365.36,212.82L366.27,211.53L366.42,211.52L366.72,211.52L366.87,213.34L367.78,211.52L367.94,211.52L368.7,211.52L368.85,206.67L369,207.55L369.15,206.29L369.3,202.32L369.45,177.82L369.91,206.88L370.06,211.52L375.53,211.52L375.68,212.88L375.83,212.02L375.98,218.77L376.74,212.68L376.89,215.54L377.8,212.06L377.95,211.8L378.41,211.52L378.56,214.28L378.71,212.21L378.86,211.52L379.02,213.26L379.62,213.11L379.78,211.91L380.23,211.52L380.38,211.94L380.53,213.69L381.45,211.52L381.6,211.61L381.75,211.54L381.9,213.24L382.81,211.52L382.96,211.52L383.27,211.52L383.42,197.19L383.72,206.69L383.87,177.9L384.03,203.11L384.18,211.52L390.4,212.05L390.55,222.01L391.31,212.42L391.46,214.42L391.92,214.94L392.37,211.52L392.53,211.83L392.68,212.33L392.98,211.52L393.28,212.1L393.44,211.66L394.5,211.6L394.65,212.12L395.56,211.52L395.71,211.52L397.69,211.52L397.84,214.84L398.45,203.36L398.6,186.02L399.51,211.52L399.66,211.52L404.97,211.52L405.12,213.56L406.04,211.52L406.19,211.52L406.34,211.75L406.49,213.61L407.4,211.52L407.55,211.52L407.86,213.83L408.16,211.52L408.31,211.52L409.68,211.52L409.83,211.52L412.41,211.52L412.56,197.86L413.47,211.52L413.62,211.52L419.54,211.52L419.7,219.48L420.61,212.16L420.76,214.46L421.06,211.52L421.67,211.78L421.82,211.52L421.97,213.73L422.58,213.2L422.73,211.94L422.88,211.52L423.04,212.28L423.19,211.71L423.34,212.62L423.79,214.19L424.25,211.53L424.4,211.52L426.83,211.52L426.98,208.59L427.59,169.13L427.74,201.14L428.5,211.52L428.65,211.52L434.12,211.52L434.27,214.97L434.42,217.86L434.57,212.89L434.87,213.28L435.03,211.64L435.18,217.92L435.63,212.22L435.79,211.6L436.24,211.52L436.7,214.16L436.85,212.18L437,211.52" style="vector-effect: non-scaling-stroke; fill: none; stroke: rgb(0, 191, 255); stroke-opacity: 1; stroke-width: 2px; opacity: 1;"/></g><g class="points"/><g class="text"/></g><g class="trace scatter trace7f08f6" style="stroke-miterlimit: 2; opacity: 0.5;"><g class="fills"/><g class="errorbars"/><g class="lines"><path class="js-line" d="M0,211.75L3.79,211.72L3.95,211.14L4.71,184.98L4.86,177.03L6.83,16.2L6.98,16.33L8.8,16.46L8.96,16.6L9.26,16.39L9.41,16.58L9.56,19.23L10.93,165.26L11.08,181.49L11.99,211.77L12.14,211.76L12.29,211.75L18.52,211.45L18.67,210.14L20.19,151.54L20.34,160.13L21.25,124.01L21.4,125.93L21.55,129.97L22.16,78.6L22.31,35.06L22.46,35.06L22.62,32.58L22.77,35.75L22.92,22.63L23.38,16.14L23.53,20.22L23.68,34.28L23.83,16.45L24.29,26.23L24.44,54.84L26.41,211.77L26.56,211.76L26.71,211.75L33.09,211.66L33.24,210.89L33.7,192.46L33.85,180.87L34,192.87L34.3,173.14L34.46,160.67L36.13,93.05L36.28,115.36L36.43,123.2L36.58,111.14L36.73,111.82L36.88,105.32L37.34,143.09L37.95,141.57L38.1,141.55L38.25,134.59L38.55,148.89L38.71,154.33L40.98,211.75L41.13,211.76L47.81,211.28L47.97,210.51L48.88,189.26L49.03,161.76L49.18,165.82L49.48,155.37L49.63,133.42L50.39,16.14L50.85,16.32L51,16.37L52.52,16.39L52.67,16.19L53.28,18.18L53.43,28.32L54.34,137.01L54.49,177.95L55.4,211.64L55.55,211.77L62.08,211.64L62.23,210.26L62.99,166.86L63.14,149.71L64.66,16.16L65.12,16.21L65.27,16.36L67.7,16.67L67.85,19.26L69.22,160.84L69.37,177.81L70.43,211.77L70.58,211.77L76.2,211.76L76.35,211.76L76.65,211.61L76.81,210.26L77.56,165.94L77.72,148.67L79.23,16.27L79.54,16.49L79.69,16.53L82.27,16.67L82.42,17.76L83.18,83.83L83.33,101.21L84.7,211.77L84.85,211.76L85,211.76L91.23,211.48L91.38,209.66L92.14,166.28L92.29,147.71L93.81,16.39L94.11,16.49L94.26,16.56L96.54,17.01L96.69,23.97L97.6,211.52L97.75,211.52L253.49,211.52L253.64,203.72L254.55,19.37L254.7,30.62L255.61,16.37L255.76,16.51L256.67,16.69L256.83,18.53L257.28,17.44L257.59,33.06L257.74,82.24L258.04,62.86L258.19,96.84L259.41,211.65L259.56,211.75L265.18,211.76L265.33,211.76L266.09,211.08L266.24,207.58L267.45,101.64L267.6,84.46L268.51,16.15L268.82,16.23L268.97,16.31L271.4,16.29L271.55,16.3L272.01,16.88L272.16,21.82L274.43,211.77L274.59,211.76L280.66,211.48L280.81,210.43L281.87,159.84L282.02,147.87L282.33,111.28L282.48,93.6L282.93,145.17L283.24,124.19L283.39,112.53L283.69,44.42L283.85,65.83L284,101.8L285.06,16.88L285.21,24.04L285.36,36.31L285.67,16.11L285.82,16.13L285.97,16.15L286.43,16.15L286.58,17.35L287.34,89.65L287.49,108.48L289.01,211.77L289.16,211.76L295.08,211.42L295.23,209.62L296.14,146.84L296.29,130.97L297.66,16L297.96,16.08L298.11,16.13L300.54,16.31L300.69,16.27L301.15,17.16L301.3,23.13L303.58,211.77L303.73,211.76L303.88,211.75L309.65,211.47L309.8,210.01L311.17,149.58L311.32,63.7L311.47,61.59L311.62,74.27L311.77,117.62L312.08,54.59L312.23,58.95L312.38,66.55L312.99,91.6L313.14,76L313.29,83.02L313.9,42.65L314.05,43.84L314.2,67.1L314.66,29.84L315.11,135.08L315.27,135.2L316.18,164.63L316.33,156.62L316.48,150.06L316.63,153.33L316.78,188.65L317.85,211.7L318,211.76L324.22,211.5L324.37,210.33L324.98,177.61L325.13,158.49L326.65,16.19L326.95,16.22L327.1,16.27L329.23,16.67L329.38,16.55L330.29,16.76L330.44,18.53L331.35,116.18L331.51,136.4L332.72,211.77L332.87,211.77L338.79,211.07L338.94,207.79L339.86,142.42L340.01,124.53L341.22,16.11L341.52,16.3L341.68,16.24L344.86,16.76L345.02,20.07L347.44,211.78L347.6,211.77L353.36,211.01L353.52,207.75L354.28,156.98L354.43,138.55L355.79,16.08L356.1,16.16L356.25,16.25L359.44,17.28L359.59,22.48L362.02,211.77L362.17,211.77L367.78,211.71L367.94,210.8L368.85,159.85L369,153.12L369.61,90.42L369.91,98.39L370.06,49.69L370.36,29.51L370.52,40.13L370.67,68.83L371.12,17.67L371.43,65.95L371.58,92.98L372.19,23.52L372.34,33.12L372.49,65.03L372.64,64.8L372.79,37.17L373.25,43.34L373.55,16.32L373.7,16.38L373.86,16.51L374.61,56.93L374.77,77.16L376.44,211.77L376.59,211.77L382.36,211.67L382.51,210.85L383.11,184.51L383.27,168.15L384.78,18.84L384.94,16.25L386.91,16.41L387.06,16.47L388.58,17.17L388.73,22.42L391.16,211.77L391.31,211.75L397.23,211.46L397.38,210.67L398.29,181.89L398.45,150.59L399.05,57.36L399.36,93.86L399.51,130.39L399.81,105.92L399.96,63.83L400.12,16.95L400.72,51.01L400.87,51.42L401.03,42.96L401.18,57.46L401.33,75.12L401.48,78.67L401.63,64.42L401.78,52.78L401.94,89.05L402.09,106.58L402.24,88.39L402.54,111.41L402.7,138.14L402.85,145.25L403,131.82L403.15,112.71L403.61,149.46L403.76,159.72L404.21,129.54L404.37,142.39L404.52,162.04L405.58,211.77L405.73,211.75L411.65,211.48L411.8,210.81L412.26,185.96L412.41,168.02L412.87,169.34L414.08,16.04L414.23,16.08L414.38,16.01L416.36,16.4L416.51,16.41L417.72,17.23L417.87,22.13L420.3,211.77L420.46,211.76L426.07,211.62L426.22,210.05L427.44,143.08L427.59,118.39L428.65,16.08L428.8,16.16L428.96,16.2L431.84,16.56L431.99,17.21L432.6,32.42L432.75,47.38L434.87,211.76L435.03,211.76L437,211.75" style="vector-effect: non-scaling-stroke; fill: none; stroke: rgb(255, 0, 0); stroke-opacity: 1; stroke-width: 2px; opacity: 1;"/></g><g class="points"/><g class="text"/></g><g class="trace scatter tracecbe1b4" style="stroke-miterlimit: 2; opacity: 0.5;"><g class="fills"/><g class="errorbars"/><g class="lines"><path class="js-line" d="M0,241.18L0.15,239.91L0.76,241.07L0.91,240.49L1.21,239.91L1.67,241.73L1.82,239.16L1.97,240.77L2.58,240.17L2.73,240.08L3.19,239.97L3.34,241.06L4.1,239.11L4.25,242.32L4.55,235.59L4.71,233.2L6.38,73.27L6.98,78.01L7.13,76.35L7.29,71.05L7.59,78.13L7.74,77.56L7.89,77.34L8.65,89.06L8.8,81.39L10.47,162.92L10.63,184.99L11.54,250.21L11.99,248.75L12.14,245.12L12.75,247.02L12.9,245.33L13.05,246.08L13.21,246.57L13.36,243.45L13.81,246.85L13.96,244.89L14.12,243.46L14.88,240.14L15.03,240.83L15.18,242.66L15.48,240.61L15.63,241.84L15.79,240.23L16.39,241.57L16.54,240.39L16.7,240.97L17.15,241.33L17.76,240.46L17.91,241.04L18.82,237.49L18.97,233.66L19.13,232.76L19.28,224.01L20.04,201.67L20.19,208.67L20.34,206.79L20.8,189.79L20.95,202.02L22.31,67.46L22.46,68.47L22.62,68.52L22.77,71.53L22.92,63L23.53,67.97L23.68,84.92L23.83,63.68L24.29,83L24.44,111.72L26.41,242.53L26.56,242.16L26.71,241.09L27.17,242.19L27.32,241.11L27.47,241.03L27.93,242.08L28.08,240.53L28.23,241.04L28.38,241.9L28.54,240.88L28.69,242.34L28.99,241.03L29.14,241.91L29.3,240.72L29.75,242.05L29.9,240.89L30.05,241.42L30.21,241.98L30.36,240.54L30.66,241.61L30.81,240.9L31.12,240.58L31.27,242.22L31.42,241.99L31.57,240.69L31.72,241.88L31.88,240.59L32.33,241.09L32.48,241.5L32.63,240.32L33.24,241.33L33.39,240.62L36.13,127.21L36.28,150L36.88,141.54L37.34,182.18L37.49,178.1L37.64,162.13L37.8,163.84L37.95,178.61L38.1,178.68L38.25,172.36L39.62,238.67L40.07,237.89L40.22,236.29L40.98,242L41.13,240.58L41.29,242.08L41.59,240.03L41.89,241.73L42.05,241.13L42.35,240.61L42.5,242.1L42.65,241.29L42.8,240.98L43.11,240.72L43.26,242.47L43.56,241.04L43.72,241.88L44.63,240.36L44.78,240.9L44.93,240.49L45.08,241.16L45.23,241.95L46.14,240.3L46.3,241.2L46.75,240.46L47.05,240.98L47.21,240.52L47.36,240.92L47.66,240.1L47.81,242.93L48.12,249.59L48.27,244.21L48.42,245.93L48.57,242.56L48.72,242.85L48.88,235.74L50.55,74.47L50.7,77.04L51.3,56.85L51.76,57.73L51.91,71.73L52.37,73.9L52.52,66.16L52.67,74.96L52.82,73.13L52.97,76.77L53.13,80.89L53.43,79.7L54.04,131.79L54.19,156.48L55.25,242.53L55.4,243.86L56.16,241.21L56.31,242.97L56.47,242.17L56.62,240.48L57.07,242.58L57.22,241.99L57.38,240.55L57.98,241.99L58.14,240.37L58.44,240.28L58.74,242.03L58.89,241.48L59.05,241.89L59.8,240.06L59.96,240.26L60.26,241.81L60.56,241.71L60.72,240.18L61.63,241.25L61.78,240.84L61.93,240.34L62.08,240.38L62.23,238.99L62.99,214.76L63.14,207.47L63.6,160L63.75,142.98L65.12,66.66L65.27,69.41L65.88,109.06L66.33,106.62L66.48,103.09L67.09,114L67.39,84.23L67.55,80.29L70.13,246.44L70.28,244.63L70.43,249.73L70.89,245.13L71.04,243.79L71.34,241.78L71.49,244.15L71.64,245.85L71.8,242.49L72.4,243.45L72.56,242.74L72.71,241.13L73.16,244.19L73.31,243.43L74.22,240.96L74.38,242.41L74.68,240.61L74.98,241.32L75.14,242.38L75.29,242.97L75.59,242.5L75.74,241.08L75.89,242.11L76.5,241.2L76.65,241.86L77.41,228.96L77.56,212.21L78.47,166.08L78.63,175.68L78.78,124.35L79.39,78.67L79.69,90.19L79.84,91.37L79.99,91.28L80.14,98.22L80.45,96.56L80.6,99.74L80.75,93.44L81.06,106.04L81.21,101.71L81.36,108.54L81.51,107.18L81.66,107.44L81.81,111.99L82.12,115.43L82.42,94.52L82.72,101.8L82.88,119.12L84.55,258.38L84.7,251.03L84.85,258.96L85.76,244.58L85.91,244.75L86.06,243.12L86.22,245.29L86.67,244.66L86.82,243.36L87.13,242.89L87.43,243.32L87.58,241.25L87.73,242.61L88.19,241.88L88.34,240.7L88.64,242.58L88.95,241.86L89.1,240.55L89.71,240.07L90.01,241.93L90.16,240.27L90.77,241.42L90.92,240.12L91.07,241.32L91.38,238.81L91.53,235.97L91.83,238.23L91.98,228.01L93.96,92.58L94.26,103.56L94.41,103.61L94.87,98.45L95.32,118.11L95.48,131.37L95.78,120.83L96.23,131.35L96.39,129.18L96.54,128.69L96.69,129.9L96.84,182.18L97.14,285.74L97.75,282.42L97.9,252.65L98.06,279.34L98.51,249.02L98.66,266.97L98.81,248.38L98.97,260.55L99.42,246.17L99.57,253.92L99.73,246.78L99.88,252.08L100.33,243.96L100.48,247.73L100.64,243.24L101.09,248L101.39,247.01L101.55,244.56L101.7,246.79L102,243.18L102.31,245.45L102.46,242.9L102.61,244.3L103.06,241.58L103.22,242.41L104.13,239.62L104.28,240.76L104.58,240.39L104.73,242L105.34,240.34L105.49,241.97L105.65,240.17L105.95,242.32L106.1,244.79L106.4,252.59L106.56,246.57L107.47,268.18L107.62,255.08L107.77,272.75L108.38,260.46L108.53,267.98L108.68,267.51L108.83,269.78L108.98,270.39L109.14,266.18L110.05,279.82L110.2,277.97L110.81,271.04L110.96,291.2L111.11,279.02L111.26,295.21L111.72,264.42L111.87,279.13L112.02,263.31L112.63,264.17L112.78,268.82L113.69,252.84L113.84,254.14L113.99,256.29L114.15,251.52L114.3,254.4L114.45,251.06L115.66,242.6L115.81,243.88L116.12,244.8L116.73,242.74L116.88,243.05L117.18,242.09L117.33,240.21L117.48,242.69L118.09,241.9L118.24,242.18L119.31,239.74L119.46,239.78L119.61,240.6L119.76,242.03L120.22,241.86L120.37,239.71L121.58,245.56L121.73,245.96L122.19,257.51L122.65,256.43L122.8,254.26L123.1,248.98L123.71,264.48L123.86,259.1L124.77,296.88L124.92,296.82L125.07,292.08L125.38,304L125.53,282.22L125.98,295.57L126.14,287.8L126.29,278.25L126.44,278.73L126.59,277.88L126.74,277.04L127.81,255.03L127.96,261.8L128.87,248.63L129.02,249.72L129.93,243.56L130.08,246.12L130.39,243.3L130.54,244.11L130.69,245.96L131.45,241.11L131.6,244.23L131.75,244.17L131.9,241.75L132.36,245.44L132.51,241.12L132.66,241.15L132.82,244.25L133.27,241.47L133.42,240.45L133.57,243.75L134.03,241.33L134.18,240.27L135.09,243.41L135.24,242.82L135.85,246.15L136,243.87L136.15,243.92L136.46,254.9L136.61,257.19L136.76,251.16L137.07,260.29L137.22,263.47L137.82,266.41L137.98,257.61L138.13,259.9L138.28,253.86L138.73,263.7L138.89,267.17L139.19,266.31L139.34,268.81L139.49,275.19L139.95,264.59L140.1,261.15L140.4,277.8L140.71,262.67L140.86,257.16L141.16,261.87L141.47,255.99L141.62,256.63L142.53,247.7L142.68,246.62L142.83,247.1L142.99,245.99L143.14,246.41L143.29,243.25L143.44,243.4L143.59,247.48L144.5,240.43L144.65,242.71L144.81,244.2L144.96,240.53L145.11,242.38L145.26,240.61L145.57,240.49L146.17,244.81L146.32,240.84L146.78,240.41L146.93,242.63L147.08,242.42L147.24,241.55L147.69,241.68L147.84,240.15L147.99,242.05L148.15,242.93L148.3,240.55L148.45,241.77L148.6,239.91L149.06,239.58L149.51,244.06L149.66,241.86L149.82,242.77L149.97,251.87L151.33,272.51L151.49,269.99L151.94,266.66L152.09,273.1L152.24,275.14L152.55,269.34L152.7,263.1L153.15,254.28L153.46,260.95L153.61,261.09L154.52,273.56L154.67,277.55L155.89,263.31L156.04,252.1L156.19,252.13L156.34,249.41L156.65,248.29L156.8,246.18L157.41,243.6L157.56,244.91L157.71,245.66L158.16,241.14L158.62,242.27L158.77,243.83L158.92,240.31L159.53,242.77L159.68,240.85L159.83,244.08L160.29,240.17L160.44,240.86L160.59,242.97L161.05,242.02L161.2,240.82L161.35,242.26L161.5,240.3L161.81,240.84L161.96,240.27L162.11,241.01L162.26,240L162.57,240.55L162.72,240.14L162.87,241.06L163.48,240.53L163.63,240.94L163.78,239.96L164.24,240.71L164.39,242.17L165.15,265L165.45,264.49L165.6,264.29L165.91,270.04L166.36,266.19L166.51,267.79L167.27,255.46L167.42,260.28L167.88,280.78L168.33,271.01L168.49,268.67L168.64,265.37L168.79,278.39L168.94,276.5L169.09,274.59L169.24,262.93L169.85,263.1L170,251.51L170.46,253.27L170.61,254.19L171.52,241.99L171.67,245.4L171.98,241.49L172.43,241.99L172.58,242.24L173.04,240.01L173.34,242.15L173.49,241.97L173.65,242.3L173.8,240.17L174.41,241.46L174.56,240.69L174.71,240.48L174.86,241.01L175.01,239.63L175.47,240.83L175.62,240.74L176.83,240L176.99,240.16L178.2,239.04L178.35,239.21L178.5,239.38L178.66,239.1L178.81,238.5L179.41,243.31L179.57,248.5L180.48,270.33L180.63,268.63L181.54,261.72L181.69,261.96L181.84,262.22L181.99,255.38L182.3,254.1L182.45,254.48L182.6,262.1L182.75,258.2L182.91,264.34L183.06,262.82L183.21,273.86L183.66,275.98L184.12,265.59L184.27,268.11L184.42,268.18L184.58,263.35L184.88,250.08L185.33,250.71L185.49,254.01L186.4,243.94L186.55,244.67L186.7,244.86L186.85,240.92L187.46,241.03L187.61,240.86L188.07,244.29L188.22,240.31L188.83,241.69L188.98,240.09L189.58,241.3L189.74,240.1L190.34,241.77L190.65,240.8L190.8,240.29L192.16,240.33L192.32,239.52L192.92,239.66L193.08,239.36L193.38,239.64L193.53,242.01L194.29,264.74L194.44,262.74L194.59,257.65L194.9,265.18L195.05,274.33L195.2,274.1L195.35,274.37L195.5,275.16L195.66,276.45L195.81,268.4L195.96,263L196.41,268.62L196.57,268.69L196.87,270.87L197.02,270.39L197.17,274.88L197.48,278.72L197.63,289.59L198.08,285.13L198.24,288.52L198.39,289.8L198.54,283.57L199.6,253.15L199.75,256.52L199.91,259.7L200.06,251L200.21,256.12L200.36,249.46L200.51,248.94L200.66,252.25L201.58,241.31L201.73,245.02L202.64,241.32L202.79,240.8L203.09,240.45L203.4,244.29L203.55,240.94L203.7,241.97L204.61,240.05L204.76,240.08L205.22,242.2L205.52,241.28L205.67,239.86L205.98,240.88L206.43,240.01L206.58,240.43L207.34,240.26L207.5,240.4L207.65,240.41L208.1,242.5L208.25,252.74L209.62,273.73L209.77,269.59L210.08,255.74L210.53,265.54L210.68,262.27L210.99,265.91L211.14,263.5L211.29,274.04L211.75,284.07L211.9,277.14L212.05,273.51L212.96,297.49L213.26,297.45L213.42,293.38L213.57,299.59L213.87,286.08L214.02,283.44L215.08,249.43L215.24,251.89L215.39,251.84L215.54,248.13L215.69,249.97L215.84,244.93L216,246.81L216.15,245.36L216.45,247.66L216.75,245.49L216.91,242.58L217.06,242.75L217.21,245.9L218.12,240.61L218.27,242.06L218.42,241.09L218.58,240.86L218.73,242.71L218.88,242.89L219.03,241.87L219.49,242.23L219.79,240.31L219.94,240.45L220.09,241.19L220.25,242.99L220.4,240.26L220.7,241.11L220.85,240.53L221,241.36L221.16,240.41L221.46,240.46L221.61,240.33L222.67,240.9L222.83,244.27L222.98,244.39L223.13,247.36L224.04,250.26L224.19,248.76L224.34,250.21L224.65,249.28L224.8,247.22L225.1,245.56L225.25,244.04L225.71,248.52L225.86,247.29L226.01,245.35L226.92,259.95L227.08,255.92L227.23,258.01L227.38,247.73L227.68,261.27L227.84,258.64L227.99,257.89L228.44,251.33L228.9,251.7L229.05,252.03L229.2,253.62L229.5,249.96L229.66,246.5L229.96,248.32L230.11,245.21L230.72,246.31L230.87,240.24L231.02,240.66L231.17,243.35L231.63,241.38L231.93,242.11L232.09,244.04L232.69,240.24L232.84,241.85L233,243.63L233.91,240.38L234.06,241.97L234.36,243.27L234.67,239.73L234.97,240.14L235.12,241.94L236.03,239.84L236.18,240.52L236.64,243.34L236.79,240.99L236.94,240.71L237.09,241.27L237.25,241.15L237.4,245.32L237.55,243.95L238,244.45L238.16,246.31L238.31,246.55L238.46,243.95L238.61,243.98L238.76,245.2L240.43,270.12L240.59,262.19L241.5,282.75L241.65,278.84L241.95,266.21L242.25,277.32L242.41,275.15L242.71,285.91L242.86,268.9L243.01,270.29L243.17,275.48L244.38,253.01L244.53,259.06L245.44,245.58L245.59,251.16L245.9,243.41L246.51,243.97L246.66,244.4L247.11,243.11L247.26,241.39L247.72,244.41L247.87,242.57L248.02,240.89L248.17,243.07L248.33,240.84L248.78,241.45L248.93,242.51L249.54,240.44L249.69,240.49L249.84,240.72L250,241.99L250.3,240.62L250.45,241.74L250.6,240.56L251.21,241L251.36,240.47L251.82,242.08L251.97,250.26L253.34,278.31L253.49,279.98L253.64,276.39L253.79,217.31L254.09,127.02L254.4,148.91L254.55,192.92L255.31,117.53L255.46,177.98L255.61,125.11L256.22,133.86L256.37,171.43L256.98,176.08L257.13,127.72L257.28,171.8L257.43,131.64L257.89,194.92L258.04,155.89L258.19,194.49L258.34,194.8L258.5,217.78L259.41,246.73L259.56,243.6L260.47,246.09L260.62,242.56L260.92,243.34L261.23,242.32L261.38,242.42L261.68,240.42L261.84,242.26L261.99,242.76L262.29,242.48L262.44,241.19L262.75,242.56L263.05,242.44L263.2,240.52L263.81,241.92L263.96,240.49L264.42,240.05L264.87,242.06L265.02,240.85L265.18,240.72L265.33,241.56L265.48,240.35L265.63,241.42L266.09,240.84L266.24,235.9L268.97,141.13L269.12,150.09L269.27,135.91L269.43,151.01L269.73,148.93L269.88,153.46L270.03,146.13L270.18,165.04L270.34,148.21L270.49,166.45L271.09,176.21L271.25,132.54L271.4,178.68L271.7,179.7L272.16,88.76L272.31,112.84L272.46,136.66L273.98,248.76L274.13,244.83L274.28,248.96L274.74,242.89L274.89,242.59L275.19,243.56L275.34,242.88L275.5,239.67L275.8,242.2L276.41,242.11L276.56,241.97L276.71,242.45L276.86,242.18L277.01,240.81L277.93,242.16L278.08,241.73L278.23,242.27L278.53,241.17L278.68,241.88L278.84,240.07L279.75,242.67L279.9,241.94L280.96,237.27L281.11,237.49L282.18,195.34L282.33,195.95L282.48,157.66L282.93,202.31L283.24,170.71L283.39,165.86L283.69,87.44L283.85,112.16L284,148.57L284.6,89.54L284.76,148.56L284.91,67.67L285.51,78.43L285.67,72.21L286.12,90.45L286.43,76.49L286.58,74.8L287.18,133.02L287.34,157.87L288.7,243.65L289.01,242.97L289.16,242.7L290.07,240.43L290.22,241.96L290.52,240.01L290.83,240.85L290.98,242L291.13,240.44L291.74,241.92L291.89,240.54L292.5,241.58L292.65,240.4L293.26,240.91L293.41,240.26L294.01,240.84L294.17,240.24L294.32,240.1L294.62,240.65L294.77,241.09L295.23,238.14L295.38,232.42L295.68,232.53L295.84,224.89L295.99,207.28L298.11,67.62L298.27,69.31L299.18,87.5L299.33,83.06L299.48,88.87L299.63,72.11L299.78,75.57L299.93,72.67L300.24,87.83L300.39,79.5L300.54,71.25L301,58.59L301.15,59.8L301.3,65.7L303.27,249.58L303.43,248.86L303.58,248.29L304.18,240.21L304.49,242.16L304.64,241.77L304.79,241.85L304.94,240L305.85,242.22L306.01,242.16L306.31,242.32L306.46,240.81L306.61,242.01L307.22,241.01L307.37,241.94L307.52,239.52L308.13,241.16L308.28,240.2L308.89,241.51L309.04,240.08L309.35,240.15L309.5,240.92L309.65,241.46L309.8,238.54L311.32,184.32L311.47,121.17L311.62,113.77L311.77,157.99L312.08,97.79L312.53,130.17L312.68,110.46L313.29,138.27L313.44,92.21L313.75,108.32L313.9,78.89L314.35,144.66L314.51,76.62L314.66,70.29L314.81,84.59L314.96,149.41L315.57,209.28L316.02,207.91L316.18,213.92L316.63,202.15L316.78,226.63L317.85,245.28L318,245.13L318.76,240.23L319.21,240.47L319.36,241.59L319.82,239.89L320.12,240.76L320.27,240.38L320.58,240.09L320.73,240.77L320.88,241.5L321.03,240.3L321.64,240.45L321.79,240.62L322.85,239.82L323.01,240.41L324.07,239.46L324.22,239.32L324.52,233.61L324.68,228.23L325.13,190.56L325.28,172.3L326.5,48.06L326.95,52.98L327.1,53.19L328.17,69.4L328.62,67.07L328.77,62.93L329.53,75.01L329.69,68.69L329.84,68.26L329.99,73.26L330.14,66.54L330.44,76.35L330.6,88.86L332.42,248.03L332.72,246.84L332.87,246.06L333.18,247.87L333.33,243.4L333.63,244.34L333.78,246.63L334.69,238.63L334.85,240.97L335,240.94L335.3,239.98L335.45,240.63L335.61,242.09L336.52,240.2L336.67,240.42L336.97,239.91L337.12,240.94L337.43,240.55L337.58,240.64L338.49,240.03L338.64,240.55L339.1,229.63L339.25,224L340.01,188.93L340.16,150.03L341.07,56.02L341.37,57.24L341.52,62.21L341.83,63.24L341.98,71.85L342.28,63.55L342.59,73.78L342.74,67.74L342.89,69.48L343.95,82.26L344.11,80L344.26,80.24L344.41,85.1L344.86,69.59L345.02,87.12L345.17,99.74L346.23,206.77L346.38,222.48L346.84,247.86L347.29,245.02L347.44,244.25L348.05,241.08L348.2,243.04L348.36,243.27L349.27,240.87L349.42,241.96L349.57,239.46L350.18,240.42L350.33,241.86L350.48,242.28L350.78,240.94L350.94,241.86L351.09,240.17L351.24,241.55L351.85,240.24L352,240.9L352.91,239.91L353.06,240.31L353.36,239.59L353.52,236.67L354.73,186.97L354.88,151.34L355.94,81.99L356.1,84.74L356.25,82.99L356.55,82.7L356.7,104.76L357.01,90.93L357.16,86.58L357.31,85.88L357.46,92.36L358.37,112.95L358.53,104.65L358.68,110.44L358.98,100.77L359.13,107.1L359.28,101.07L359.59,93.14L359.74,111.96L359.89,117.56L361.41,251.35L361.56,250.14L361.71,246.91L361.86,248.45L362.02,246.42L362.17,246.8L362.32,243.77L362.47,246.29L362.93,242.43L363.08,242.51L363.69,240.24L363.84,242.31L363.99,241.77L364.44,242.38L364.6,242.16L364.75,240.73L364.9,242.13L365.36,241.9L365.51,240.33L365.66,242.19L366.11,241.87L366.27,240.12L366.87,241.92L367.03,239.84L367.18,241.54L367.78,240.15L367.94,240.5L369.91,175.14L370.06,116.94L370.52,99.6L370.67,126.48L371.12,74.24L371.28,97.86L371.43,127.59L371.58,148.61L371.88,101.78L372.03,123.36L372.19,125.74L372.34,116.08L372.49,138.48L372.64,147.68L373.55,91.68L373.7,104.42L373.86,89.34L374.16,109.55L374.46,94L374.61,124.12L375.37,200.8L375.53,220.46L376.13,247.26L376.28,242.84L376.44,243.46L376.59,243.25L376.74,246.09L377.5,242.97L377.65,244.26L378.71,240.33L378.86,241.84L379.02,242.09L379.17,240.89L379.62,242.37L379.78,241.92L379.93,240.19L380.23,240.34L380.38,242.76L380.99,239.88L381.45,240.55L381.6,241.83L381.9,241.92L382.66,236.58L382.81,229.33L383.87,196.15L384.03,138.19L384.33,119.03L384.48,108.65L385.09,63.67L385.54,70.36L385.7,71.16L385.85,72.6L386,68.86L386.15,72.4L386.3,80.05L387.21,71.78L387.37,78.36L387.67,78.65L387.82,75.63L387.97,92.82L388.28,90.43L388.88,104.66L389.03,126.9L389.79,186.88L389.95,203.81L390.7,248.65L391.01,246.08L391.16,242.44L391.31,242.3L391.46,243L391.62,244.21L392.07,240.91L392.37,242.11L392.53,242.46L392.83,240.01L392.98,241.49L393.13,241.53L393.28,242.34L393.44,242.11L393.59,239.84L394.5,242.37L394.65,242.01L394.95,240.05L395.41,240.27L395.56,240.3L395.87,240.03L396.47,241.81L396.62,239.88L397.08,241.16L397.23,240.52L397.38,239.15L397.53,237.46L397.69,238.61L397.84,242.54L398.14,238.13L398.29,228.51L399.05,114.71L399.36,154.5L399.51,189.44L399.81,156.02L399.96,110.91L400.12,67.91L400.72,103.32L400.87,100.66L401.48,139.81L401.63,121.87L401.78,107.7L402.7,182.15L402.85,187.85L403.15,156.16L403.45,169.75L403.61,191.68L403.91,173.47L404.06,202.98L404.21,181.42L405.28,242.99L405.73,241.96L405.88,240.12L406.04,240.4L406.19,240.08L406.34,242.71L406.95,240.64L407.1,242L407.25,240.6L407.7,241.37L407.86,242.06L408.01,240.36L408.46,241.29L408.62,241.99L409.53,240.41L409.68,240.97L409.83,240.63L409.98,241.1L410.13,241.92L411.04,240.43L411.2,240.57L411.65,240.88L411.8,240L412.26,228.3L412.41,213.18L412.87,215.55L413.02,204.26L413.17,170.5L413.93,59.89L414.23,60.79L414.38,65.69L415.45,85.84L415.6,79.12L415.9,70.5L416.2,78.43L416.36,81.88L416.66,78.35L416.81,88.89L416.96,89.24L417.12,87.3L417.27,84.28L417.42,90.83L417.72,85.43L417.87,89.58L419.09,203.87L419.24,219.57L419.85,246.37L420.15,245L420.3,243.37L420.46,244.25L420.61,242.17L420.91,242.65L421.06,242.26L421.37,242.75L421.52,241.91L421.67,239.96L422.12,239.83L422.58,242.12L422.73,240.56L422.88,240.36L423.04,241.84L423.19,240.19L423.34,241.99L423.64,241.15L423.79,241.92L423.95,239.52L424.55,240.24L424.71,240.37L424.86,241.8L425.31,241.33L425.46,240.02L425.62,241.26L425.77,239.98L426.07,240.31L426.22,238.88L427.44,185.34L427.59,192.71L427.74,133.25L428.5,54.17L428.8,56.58L428.96,62.17L430.32,82.26L430.47,86.57L430.62,78.29L431.08,88.75L431.23,81.17L431.38,79L431.69,77.3L432.14,92.67L432.29,87.66L432.45,86.05L432.6,90.87L432.75,110.93L434.57,246.7L434.87,246.06L435.03,242.3L435.33,242.19L435.63,243.49L435.79,242.76L435.94,242.63L436.09,243.2L436.24,241.84L436.39,242.06L436.54,241.39L436.7,242.03L436.85,239.9L437,241.38" style="vector-effect: non-scaling-stroke; fill: none; stroke: rgb(0, 128, 0); stroke-opacity: 1; stroke-width: 2px; opacity: 1;"/></g><g class="points"/><g class="text"/></g></g></g><g class="overplot"/><path class="xlines-above crisp" d="M0,0" style="fill: none;"/><path class="ylines-above crisp" d="M0,0" style="fill: none;"/><g class="overlines-above"/><g class="xaxislayer-above"><g class="xtick"><text text-anchor="middle" x="0" y="433" transform="translate(109.14,0)" style="font-family: 'Open Sans', verdana, arial, sans-serif; font-size: 12px; fill: rgb(42, 63, 95); fill-opacity: 1; white-space: pre; opacity: 1;"><tspan class="line" dy="0em" x="0" y="433">Apr 3</tspan><tspan class="line" dy="1.3em" x="0" y="433">2022</tspan></text></g><g class="xtick"><text text-anchor="middle" x="0" y="433" style="font-family: 'Open Sans', verdana, arial, sans-serif; font-size: 12px; fill: rgb(42, 63, 95); fill-opacity: 1; white-space: pre; opacity: 1;" transform="translate(211.15,0)">Apr 10</text></g><g class="xtick"><text text-anchor="middle" x="0" y="433" style="font-family: 'Open Sans', verdana, arial, sans-serif; font-size: 12px; fill: rgb(42, 63, 95); fill-opacity: 1; white-space: pre; opacity: 1;" transform="translate(313.15,0)">Apr 17</text></g><g class="xtick"><text text-anchor="middle" x="0" y="433" style="font-family: 'Open Sans', verdana, arial, sans-serif; font-size: 12px; fill: rgb(42, 63, 95); fill-opacity: 1; white-space: pre; opacity: 1;" transform="translate(415.15,0)">Apr 24</text></g></g><g class="yaxislayer-above"><g class="ytick"><text text-anchor="end" x="79" y="4.199999999999999" transform="translate(0,393.39)" style="font-family: 'Open Sans', verdana, arial, sans-serif; font-size: 12px; fill: rgb(42, 63, 95); fill-opacity: 1; white-space: pre; opacity: 1;">−40</text></g><g class="ytick"><text text-anchor="end" x="79" y="4.199999999999999" style="font-family: 'Open Sans', verdana, arial, sans-serif; font-size: 12px; fill: rgb(42, 63, 95); fill-opacity: 1; white-space: pre; opacity: 1;" transform="translate(0,352.45)">−20</text></g><g class="ytick"><text text-anchor="end" x="79" y="4.199999999999999" style="font-family: 'Open Sans', verdana, arial, sans-serif; font-size: 12px; fill: rgb(42, 63, 95); fill-opacity: 1; white-space: pre; opacity: 1;" transform="translate(0,311.52)">0</text></g><g class="ytick"><text text-anchor="end" x="79" y="4.199999999999999" style="font-family: 'Open Sans', verdana, arial, sans-serif; font-size: 12px; fill: rgb(42, 63, 95); fill-opacity: 1; white-space: pre; opacity: 1;" transform="translate(0,270.58000000000004)">20</text></g><g class="ytick"><text text-anchor="end" x="79" y="4.199999999999999" style="font-family: 'Open Sans', verdana, arial, sans-serif; font-size: 12px; fill: rgb(42, 63, 95); fill-opacity: 1; white-space: pre; opacity: 1;" transform="translate(0,229.64)">40</text></g><g class="ytick"><text text-anchor="end" x="79" y="4.199999999999999" style="font-family: 'Open Sans', verdana, arial, sans-serif; font-size: 12px; fill: rgb(42, 63, 95); fill-opacity: 1; white-space: pre; opacity: 1;" transform="translate(0,188.7)">60</text></g><g class="ytick"><text text-anchor="end" x="79" y="4.199999999999999" style="font-family: 'Open Sans', verdana, arial, sans-serif; font-size: 12px; fill: rgb(42, 63, 95); fill-opacity: 1; white-space: pre; opacity: 1;" transform="translate(0,147.77)">80</text></g><g class="ytick"><text text-anchor="end" x="79" y="4.199999999999999" style="font-family: 'Open Sans', verdana, arial, sans-serif; font-size: 12px; fill: rgb(42, 63, 95); fill-opacity: 1; white-space: pre; opacity: 1;" transform="translate(0,106.83)">100</text></g></g><g class="overaxes-above"/></g></g><g class="polarlayer"/><g class="smithlayer"/><g class="ternarylayer"/><g class="geolayer"/><g class="funnelarealayer"/><g class="pielayer"/><g class="iciclelayer"/><g class="treemaplayer"/><g class="sunburstlayer"/><g class="glimages"/><defs id="topdefs-4d47a8"><g class="clips"/><clipPath id="legend4d47a8"><rect width="162" height="67" x="0" y="0"/></clipPath></defs><g class="layer-above"><g class="imagelayer"/><g class="shapelayer"/></g><g class="infolayer"><g class="legend" pointer-events="all" transform="translate(525.74,100)"><rect class="bg" shape-rendering="crispEdges" width="162" height="67" x="0" y="0" style="stroke: rgb(68, 68, 68); stroke-opacity: 1; fill: rgb(255, 255, 255); fill-opacity: 1; stroke-width: 0px;"/><g class="scrollbox" transform="" clip-path="url(#legend4d47a8)"><g class="groups"><g class="traces" transform="translate(0,14.5)" style="opacity: 1;"><text class="legendtext" text-anchor="start" x="40" y="4.680000000000001" style="font-family: 'Open Sans', verdana, arial, sans-serif; font-size: 12px; fill: rgb(42, 63, 95); fill-opacity: 1; white-space: pre;">BESS</text><g class="layers" style="opacity: 0.5;"><g class="legendfill"/><g class="legendlines"><path class="js-line" d="M5,0h30" style="fill: none; stroke: rgb(0, 191, 255); stroke-opacity: 1; stroke-width: 2px;"/></g><g class="legendsymbols"><g class="legendpoints"/></g></g><rect class="legendtoggle" x="0" y="-9.5" width="156.71875" height="19" style="fill: rgb(0, 0, 0); fill-opacity: 0;"/></g><g class="traces" transform="translate(0,33.5)" style="opacity: 1;"><text class="legendtext" text-anchor="start" x="40" y="4.680000000000001" style="font-family: 'Open Sans', verdana, arial, sans-serif; font-size: 12px; fill: rgb(42, 63, 95); fill-opacity: 1; white-space: pre;">Solar</text><g class="layers" style="opacity: 0.5;"><g class="legendfill"/><g class="legendlines"><path class="js-line" d="M5,0h30" style="fill: none; stroke: rgb(255, 0, 0); stroke-opacity: 1; stroke-width: 2px;"/></g><g class="legendsymbols"><g class="legendpoints"/></g></g><rect class="legendtoggle" x="0" y="-9.5" width="156.71875" height="19" style="fill: rgb(0, 0, 0); fill-opacity: 0;"/></g><g class="traces" transform="translate(0,52.5)" style="opacity: 1;"><text class="legendtext" text-anchor="start" x="40" y="4.680000000000001" style="font-family: 'Open Sans', verdana, arial, sans-serif; font-size: 12px; fill: rgb(42, 63, 95); fill-opacity: 1; white-space: pre;">Grid Meter (Net Load)</text><g class="layers" style="opacity: 0.5;"><g class="legendfill"/><g class="legendlines"><path class="js-line" d="M5,0h30" style="fill: none; stroke: rgb(0, 128, 0); stroke-opacity: 1; stroke-width: 2px;"/></g><g class="legendsymbols"><g class="legendpoints"/></g></g><rect class="legendtoggle" x="0" y="-9.5" width="156.71875" height="19" style="fill: rgb(0, 0, 0); fill-opacity: 0;"/></g></g></g><rect class="scrollbar" rx="20" ry="3" width="0" height="0" x="0" y="0" style="fill: rgb(128, 139, 164); fill-opacity: 1;"/></g><g class="g-gtitle"><text class="gtitle" x="298.5" y="50" text-anchor="middle" dy="0em" style="font-family: 'Open Sans', verdana, arial, sans-serif; font-size: 17px; fill: rgb(42, 63, 95); opacity: 1; font-weight: normal; white-space: pre;"><tspan class="line" dy="0em" x="298.5" y="50">Scenario 5</tspan><tspan class="line" dy="1.3em" x="298.5" y="50">Microgrid Output</tspan><tspan class="line" dy="2.6em" x="298.5" y="50">From: April 01, 2022 to April 30, 2022</tspan></text></g><g class="g-xtitle"><text class="xtitle" x="298.5" y="476.409375" text-anchor="middle" style="font-family: 'Open Sans', verdana, arial, sans-serif; font-size: 14px; fill: rgb(42, 63, 95); opacity: 1; font-weight: normal; white-space: pre;">Time</text></g><g class="g-ytitle"><text class="ytitle" transform="rotate(-90,33.840625,260)" x="33.840625" y="260" text-anchor="middle" style="font-family: 'Open Sans', verdana, arial, sans-serif; font-size: 14px; fill: rgb(42, 63, 95); opacity: 1; font-weight: normal; white-space: pre;">Demand (kW)</text></g></g></svg>