<svg class="main-svg" xmlns="http://www.w3.org/2000/svg" xmlns:xlink="http://www.w3.org/1999/xlink" width="700" height="500" style="" viewBox="0 0 700 500"><rect x="0" y="0" width="700" height="500" style="fill: rgb(255, 255, 255); fill-opacity: 1;"/><defs id="defs-9b64fe"><g class="clips"><clipPath id="clip9b64fexyplot" class="plotclip"><rect width="540" height="320"/></clipPath><clipPath class="axesclip" id="clip9b64fex"><rect x="80" y="0" width="540" height="500"/></clipPath><clipPath class="axesclip" id="clip9b64fey"><rect x="0" y="100" width="700" height="320"/></clipPath><clipPath class="axesclip" id="clip9b64fexy"><rect x="80" y="100" width="540" height="320"/></clipPath></g><g class="gradients"/><g class="patterns"/></defs><g class="bglayer"/><g class="layer-below"><g class="imagelayer"/><g class="shapelayer"/></g><g class="cartesianlayer"><g class="subplot xy"><g class="layer-subplot"><g class="shapelayer"/><g class="imagelayer"/></g><g class="minor-gridlayer"><g class="x"/><g class="y"/></g><g class="gridlayer"><g class="x"><path class="xgrid crisp" transform="translate(116.00999999999999,0)" d="M0,100v320" style="stroke: rgb(255, 255, 255); stroke-opacity: 1; stroke-width: 1px;"/><path class="xgrid crisp" transform="translate(242.06,0)" d="M0,100v320" style="stroke: rgb(255, 255, 255); stroke-opacity: 1; stroke-width: 1px;"/><path class="xgrid crisp" transform="translate(368.1,0)" d="M0,100v320" style="stroke: rgb(255, 255, 255); stroke-opacity: 1; stroke-width: 1px;"/><path class="xgrid crisp" transform="translate(494.14,0)" d="M0,100v320" style="stroke: rgb(255, 255, 255); stroke-opacity: 1; stroke-width: 1px;"/></g><g class="y"><path class="ygrid crisp" transform="translate(0,414.29)" d="M80,0h540" style="stroke: rgb(255, 255, 255); stroke-opacity: 1; stroke-width: 1px;"/><path class="ygrid crisp" transform="translate(0,350.59000000000003)" d="M80,0h540" style="stroke: rgb(255, 255, 255); stroke-opacity: 1; stroke-width: 1px;"/><path class="ygrid crisp" transform="translate(0,286.89)" d="M80,0h540" style="stroke: rgb(255, 255, 255); stroke-opacity: 1; stroke-width: 1px;"/><path class="ygrid crisp" transform="translate(0,223.2)" d="M80,0h540" style="stroke: rgb(255, 255, 255); stroke-opacity: 1; stroke-width: 1px;"/><path class="ygrid crisp" transform="translate(0,159.5)" d="M80,0h540" style="stroke: rgb(255, 255, 255); stroke-opacity: 1; stroke-width: 1px;"/></g></g><g class="zerolinelayer"/><path class="xlines-below"/><path class="ylines-below"/><g class="overlines-below"/><g class="xaxislayer-below"/><g class="yaxislayer-below"/><g class="overaxes-below"/><g class="plot" transform="translate(80,100)" clip-path="url(#clip9b64fexyplot)"><g class="scatterlayer mlayer"><g class="trace scatter traceea34d8" style="stroke-miterlimit: 2; opacity: 0.5;"><g class="fills"/><g class="errorbars"/><g class="lines"><path class="js-line" d="M0,21.88L0.19,21.1L0.38,22.53L0.56,22.03L0.75,23.14L1.31,21.2L1.69,21.57L1.88,26.64L2.06,26.34L2.25,20.57L2.63,19.82L2.81,21.27L3,20.8L3.19,20.47L3.75,19.58L3.94,21.3L4.13,22.81L4.69,21.62L4.88,21.51L5.81,77.83L6,76.07L6.19,78.05L6.56,68.83L6.75,59.07L6.94,61.66L7.32,57.07L7.5,54.02L7.88,97.29L8.07,128.69L8.82,111.87L9,107.49L10.13,135.22L10.32,134.49L11.44,177.73L11.63,161.42L11.82,163.39L14.25,62.33L14.44,63.11L14.63,65.98L14.82,53.65L15.76,49.79L15.94,51.87L16.69,44.09L16.88,49.57L17.44,37.25L17.63,25.24L17.82,25.79L18.01,23.82L18.19,20.41L18.57,24.79L18.76,31.26L19.51,22.06L19.88,22.62L20.07,23.66L20.82,21.77L21.01,22.82L21.19,23.09L21.38,22.06L21.57,22.39L21.76,21.48L22.13,22.61L22.51,22.02L22.7,21.41L22.88,20.73L23.07,26.32L24.57,72.62L24.76,71.49L25.32,65.59L25.51,67.73L25.7,69.07L26.07,36.08L26.63,41.93L26.82,38.54L27.01,37.86L27.2,44.31L27.57,33.4L27.76,39.29L27.95,42.77L28.51,73.15L28.7,88.27L28.89,88.67L29.07,85.47L29.26,83.38L29.45,89.53L29.64,97.02L29.82,97.04L30.01,110.32L30.57,82.47L31.14,83.14L31.32,89.47L32.26,20.47L32.45,29.46L32.64,35.32L33.01,26.23L33.39,29.5L33.57,30.06L33.76,23.58L34.32,29.43L34.51,29.74L34.7,22.88L35.26,26.12L35.45,29.86L36.2,24.76L36.39,25.5L36.76,26.97L36.95,23.13L37.33,27.49L37.7,25.32L37.89,23.82L38.08,24.38L38.45,23.26L38.64,28.99L39.76,22.45L39.95,24.24L40.33,21.94L40.7,22.44L40.89,23.36L41.64,37.52L42.01,35.97L42.2,34.94L42.39,34.71L42.58,32.93L43.14,41.67L43.33,39.67L43.52,34.31L44.08,41.98L44.27,41.3L44.45,35.12L45.58,44.51L45.77,41.22L46.14,51.27L46.7,50.66L46.89,47.51L47.08,47.52L47.27,53.67L47.45,58.15L47.64,45.95L47.83,43.66L48.77,86.22L48.95,69.05L49.14,51.7L49.33,52.39L49.52,34.89L50.46,26.24L50.64,27.24L50.83,22.87L51.02,32.17L51.21,32.34L51.77,23.54L51.96,28.6L52.14,30.21L52.71,23.4L53.08,24.44L53.27,24.33L53.46,29.33L53.83,25.17L54.02,24.22L54.21,22.66L54.58,23.28L54.77,24.46L55.14,21.88L55.52,22.04L55.71,24.85L55.89,24.63L56.08,22.53L56.83,21.6L57.02,22.21L57.21,22.72L57.77,21.31L57.96,22.24L58.15,22.38L58.71,21.15L58.9,22.28L60.02,74.7L60.21,76.68L60.4,76.76L60.58,84.03L61.52,97.67L61.71,100.07L62.46,117.81L62.65,114.48L62.83,95.13L63.4,60.88L63.58,79.54L63.77,72.56L63.96,77.4L64.15,101.7L64.33,93.35L64.52,102.85L64.9,98.25L65.09,111.71L65.27,112.02L65.46,122.25L65.65,142.54L65.84,124.7L66.02,97.66L66.21,102.82L66.4,94.44L66.59,88.49L67.34,55.95L67.71,58.17L67.9,48.95L68.09,51.42L68.27,40.71L68.46,40.51L68.65,43.77L69.4,26.85L69.59,33.53L70.34,24.28L70.52,31.03L71.27,23.08L71.46,30.19L71.65,29.59L71.84,25.34L72.03,24.93L72.21,22.27L72.78,26.41L72.96,25.24L73.15,21.72L73.34,25.22L73.71,20.57L73.9,20.12L74.28,25.51L74.84,23.46L75.03,20.83L75.59,22.71L75.78,22.39L75.96,22.2L76.15,23.54L76.53,21.27L76.71,21.41L76.9,22.06L77.09,33.41L78.21,98.99L78.4,98.9L78.96,121.31L79.53,116.1L79.72,105.92L79.9,89.16L80.28,106.3L80.47,90.79L80.65,103.39L81.22,176.96L81.4,199.77L81.59,189.61L81.78,213.62L81.97,212.75L82.53,175.39L82.72,192.07L82.9,215.16L83.28,134.68L83.84,145.96L84.03,140.3L85.15,100.02L85.34,92.1L86.66,53.15L86.84,61.6L88.16,37.03L88.34,50.9L89.28,32.08L89.47,38.07L89.66,38.1L89.84,26.63L90.41,40.03L90.59,33.97L90.78,26.76L91.53,34.09L91.72,26.25L91.91,28.79L92.09,26.88L92.28,22.84L92.47,22.9L92.66,26.46L93.22,31.54L93.41,26.42L93.78,26.52L93.97,24.19L94.16,25.96L94.35,25.91L94.91,22.97L95.1,32.31L96.03,85.89L96.22,78.78L97.16,152.12L97.35,170.69L98.1,129.86L98.28,148.06L99.41,186.53L99.6,179.98L99.78,183.9L99.97,209.76L100.16,203.06L100.35,204.87L100.53,216.61L100.72,212.19L100.91,222.28L101.1,217.81L101.29,218.03L101.47,243.63L101.66,212.32L101.85,168L102.22,137.08L102.79,137.33L102.97,138.39L103.16,154.05L103.54,127.16L103.72,109.13L103.91,104.21L104.1,115.13L104.29,115.43L106.16,38.14L106.54,38.66L106.72,38.99L107.1,40.45L107.29,38.06L107.47,30.6L107.85,36.45L108.04,28.71L108.23,25.95L108.41,31.32L108.79,26.31L108.98,24.7L109.16,25.17L109.35,30.92L110.66,20.68L110.85,20.9L111.04,26.51L111.6,23.63L111.79,22.36L112.35,22.05L112.54,23.01L112.73,21.68L112.91,23.75L113.1,35.19L115.16,208.39L115.35,211.64L116.1,173.07L116.29,191.29L116.48,202.06L116.85,215.53L117.04,197.13L117.79,265.34L117.98,278.49L118.17,256.7L118.73,272.68L118.92,285.56L119.29,274.99L119.48,252.17L122.86,78.94L123.04,77.25L124.54,45.3L124.73,52.7L124.92,54.81L125.11,52.36L125.29,49.84L125.67,51.3L126.79,35.95L126.98,41.39L127.73,24.96L128.29,28.28L128.48,28.96L128.67,22.01L129.23,23.98L129.42,26.41L129.61,22.94L130.17,26.42L130.36,28.09L130.55,22.09L130.92,29.67L131.11,51.67L132.61,142.27L132.8,143.15L133.17,180.04L133.36,165.03L133.55,142.23L133.73,136.86L133.92,165.37L135.23,259.78L135.42,243.63L135.61,216.16L136.36,280.95L136.55,279.92L136.73,256.98L137.49,304L137.67,303.62L137.86,253.77L138.8,192.52L138.99,187.47L139.36,162.91L139.55,147.2L141.24,90.38L141.42,80.84L142.74,38.02L142.92,37.81L143.3,46.47L143.67,38.85L143.86,32.95L144.24,39.17L144.43,31.06L144.61,34.59L144.8,33.2L144.99,25.44L145.18,32.33L145.74,30.96L145.93,28.99L146.11,28.63L146.3,23.94L147.05,29.66L147.24,21.3L147.43,19.93L147.61,20.35L147.8,25.77L148.18,22.62L148.36,28.33L148.55,28.24L148.74,23.29L149.11,26.79L149.3,33.46L149.49,33.42L149.68,37.96L149.86,40.53L150.05,37.32L150.24,61.11L151.55,120.08L151.74,112.67L151.93,90.18L153.24,186.53L153.43,177.65L153.62,175.82L153.8,184.56L154.74,211.88L154.93,193.28L155.12,156.69L155.68,187L155.87,158.08L156.99,106.71L157.18,108.78L159.06,49.09L159.24,49.86L159.43,46.5L159.81,48.2L160.56,34.92L160.74,39.44L161.87,30L162.06,35.81L162.43,27.72L162.99,28.3L163.18,28.76L163.37,32.87L163.56,32.77L163.74,23.38L164.12,31.94L164.49,27.38L164.68,23.22L165.06,31.34L165.24,27L165.43,25.09L165.62,23.09L166,25.42L166.18,25.58L166.56,23.12L167.87,37.18L168.06,32.87L168.25,32.78L168.43,48.15L169.37,88.81L169.56,88.28L169.93,79.42L170.12,93.91L170.31,91.59L170.87,70.97L171.06,76.88L171.25,81.27L172.37,127.33L172.56,116.99L172.94,90.58L173.12,98.8L173.31,133.38L174.62,72.07L174.81,73.12L176.12,43.23L176.31,42.26L176.87,37.23L177.06,29.72L177.44,38.03L177.62,28.57L177.81,30.28L178,30.7L178.19,33.25L178.37,29.1L178.56,24.16L178.75,31.99L179.31,25.46L179.5,25.46L179.69,25.59L179.87,24.65L180.25,24.39L180.63,30.74L180.81,24.68L181.19,23.05L181.56,28.85L181.75,27.51L181.94,24.38L182.13,22.11L182.31,24.43L182.69,23.07L182.88,28.86L184,19.55L184.19,19.71L184.38,20.71L185.69,76.96L185.88,96.59L186.44,118.59L186.81,117.95L187,119.42L187.57,102.97L187.75,110.79L187.94,126.07L188.13,130.46L188.32,123.6L188.5,105.43L189.07,66.33L189.44,80.43L189.63,86.22L189.82,85.86L190,99.97L191.13,136.38L191.32,129.89L191.5,115.19L191.88,113.28L192.07,102.59L192.44,100.14L192.63,79.92L193.57,44.17L193.75,39.52L194.32,34.58L194.51,33.14L194.69,37.64L195.07,30.3L195.26,27.77L195.44,24.64L195.82,27.04L196.01,30.64L196.38,23.66L196.76,23.97L196.94,26.66L197.13,26.1L197.32,28.09L197.51,29.31L197.69,21.98L197.88,21.26L198.07,21.48L198.26,26.3L198.44,28.26L198.63,24.13L198.82,25.38L199.01,25.13L199.19,25.5L199.38,25.36L199.57,22.16L199.76,23.4L200.32,22.55L200.51,21.44L201.26,22.87L201.44,21.51L202.01,23.13L202.2,22.44L202.38,20.94L202.95,23.18L203.13,34.42L204.07,97.5L204.26,96.7L204.45,95.77L205.01,113.64L205.2,106.97L205.38,100.56L205.57,106.02L205.76,98.4L205.95,78.68L206.32,80.86L206.51,70.1L206.7,72.85L206.88,91.8L207.26,143.88L207.82,120.93L208.01,116.06L208.2,102.67L208.38,115.58L208.57,137.85L208.76,134.94L208.95,115.02L210.07,55.35L210.26,65.08L210.45,69.12L210.64,64.63L210.82,57.85L211.95,30.92L212.14,37.72L213.26,24.88L213.45,24.63L213.64,24.88L213.82,21.6L214.39,27.79L214.57,25.39L214.76,21.27L215.51,24.47L215.7,22.42L215.89,23.23L216.08,22.18L216.26,19.93L216.83,23.3L217.2,22.46L217.39,21.31L217.95,21.22L218.14,21.86L219.26,19.76L219.45,19.99L220.2,17.89L220.39,18.52L220.58,18.63L220.95,16L221.14,21.87L221.89,63.61L222.08,93.54L222.83,107.07L223.01,114.29L224.14,88.63L224.33,88.19L224.52,91.09L224.7,81.94L225.27,62.85L225.45,76.18L225.64,83.13L226.02,91.51L226.2,106.62L226.58,104.84L226.95,125.71L227.14,110.17L228.08,82.8L228.27,58.03L228.45,55.39L228.64,68.77L230.89,26.93L231.08,27.17L231.27,27.63L231.46,29.1L231.64,23.4L232.39,29.31L232.58,22.03L232.77,24.65L233.33,24.07L233.52,21.2L234.27,23.29L234.46,21.43L234.83,22.3L235.02,25L235.21,24.67L235.39,22.81L236.71,21.23L236.89,21.8L238.02,19.46L238.21,19.4L238.4,19.37L238.58,18.56L238.77,19.09L238.96,18.99L239.15,43.13L240.08,96.7L240.27,85.29L240.46,76.59L240.65,85.4L240.83,110L241.58,133.41L241.77,126.09L242.15,94.02L242.52,104.1L242.71,109.84L242.9,110.31L243.08,114.16L243.27,115.16L243.46,120.35L244.21,174.6L244.77,164.65L244.96,174.29L245.15,170.89L245.34,144.39L247.21,62.64L247.4,63.41L248.15,40.13L248.34,40.77L248.52,36.3L249.46,26.69L249.65,28.35L249.84,31.53L250.21,25.95L250.4,23.65L251.15,32.82L251.34,29.77L251.52,25.36L252.28,22.12L252.46,24.33L252.65,23.83L252.84,20.78L253.4,26.29L253.59,24.76L253.78,22.89L253.96,22.92L254.15,20.98L254.34,22.97L254.9,21.37L255.09,21.34L255.84,22.29L256.03,21.66L256.21,21.76L256.4,21.83L256.59,22.79L256.78,23.6L256.96,22.73L257.15,39.67L258.09,81.64L258.28,80.91L258.46,84.62L258.65,106.21L258.84,126.29L259.22,105.81L259.4,81.84L259.59,71.53L259.97,89.39L260.15,96.32L260.34,90.26L260.53,97.25L260.72,96.36L260.9,104.08L261.65,150.78L261.84,131.16L262.03,129.09L262.22,137.8L262.97,190.08L263.34,187.95L263.53,192.8L263.9,198.69L264.09,175.87L266.15,52.45L266.34,49.62L267.09,38.53L267.28,42.98L267.47,42.48L268.03,28.14L268.22,33.25L268.41,38.03L269.53,24.57L269.72,26.15L269.91,23.43L270.09,25.52L270.28,29.64L271.41,21.67L271.78,22.41L271.97,27.32L272.16,26.57L272.34,22.67L272.53,24.61L273.09,23.65L273.28,23.04L273.47,23.5L273.66,21.95L274.78,22.85L274.97,22.13L275.16,27.66L276.66,52.34L276.85,50.44L277.41,49.16L277.6,47.21L278.35,34.28L278.53,36.73L278.72,42.55L279.1,39.98L279.47,53.35L279.66,49.27L279.85,46.75L280.41,76.94L280.6,75.5L280.78,63.82L280.97,48.5L281.16,71.23L281.35,83.72L282.85,56.97L283.04,60.9L283.41,53.37L283.6,47.59L284.72,31L284.91,34.06L285.1,33.24L285.29,21.24L285.66,29.53L286.22,26.96L286.41,27.97L286.79,31.03L286.97,24.4L287.54,22.78L287.72,29.46L287.91,28.07L288.1,25.07L288.29,25.07L288.48,23.23L288.85,23.16L289.6,28.08L289.79,21.68L289.98,20.15L290.16,20.19L290.35,23.61L290.54,25.45L290.73,22.16L290.91,22.85L291.1,22.49L291.48,23.09L291.66,20.9L292.41,28.47L292.6,23.3L292.79,23.89L292.98,23.45L293.16,29.65L294.1,36.61L294.29,41.31L294.66,32.96L294.85,33.65L295.04,41.35L295.42,40.27L295.98,63.53L296.17,61.68L296.35,84.57L296.73,83.84L297.48,120.11L297.67,109.1L297.85,105.05L298.04,112.82L298.23,141.22L298.42,149.71L298.6,138.85L298.79,114.69L298.98,117.16L299.17,140.3L299.35,132.54L299.54,138.53L299.73,163.23L300.85,106.15L301.04,108.63L303.29,45.64L303.48,51.2L303.86,33.8L304.23,42.01L304.42,37.61L305.54,27.2L305.73,31.71L305.92,34.06L306.11,32.84L306.29,26.07L306.67,27.39L306.86,24.59L307.04,27.99L307.61,26.15L307.79,22.81L307.98,25.32L308.36,22.19L308.54,22.22L308.92,26.93L309.29,24.32L309.48,24.61L310.05,22.55L310.42,23.08L310.61,22.97L310.8,23.48L310.98,22.7L311.17,35.5L312.48,120.59L312.67,117.52L314.55,216.27L314.73,201.68L314.92,171.17L315.48,129.8L315.67,130.46L315.86,159.59L316.05,180.35L316.61,169.66L316.8,170.38L317.17,180.53L317.36,164.28L318.11,128.37L318.3,131.43L318.49,129.52L319.05,113.12L319.24,101.98L320.55,54.8L320.74,55.6L321.49,40.03L321.67,48.23L322.05,29.59L322.61,33.82L322.8,31.47L322.99,32.66L323.17,30.65L323.36,25.05L323.92,32.71L324.11,26.86L324.3,25.01L324.86,32.05L325.05,25.74L325.24,23.42L325.8,25.46L325.99,24.91L326.74,20.49L326.93,20.68L327.11,24.9L327.3,26.7L327.49,22.55L327.68,23.6L327.86,23.1L328.43,21.28L328.61,23.5L328.99,22.31L329.18,36.65L330.3,100.99L330.49,102.19L330.86,128.7L331.24,118.43L331.43,120.63L331.8,158.43L331.99,147.48L332.18,131.79L332.55,108.71L332.74,121.57L332.93,126.61L334.62,214.73L334.8,209.13L335.37,179.17L335.55,198.4L335.74,194.15L337.05,104.73L337.24,91.82L338.56,56.84L338.74,60.67L339.68,32.1L339.87,32.65L340.06,38.58L340.43,21.42L340.81,28.42L340.99,29.02L341.37,24.93L341.56,26.54L341.74,29.67L341.93,32.43L342.12,25.73L342.31,24.56L342.68,23.96L343.43,27.97L343.62,27.85L343.81,28.98L343.99,24.87L344.18,26L344.37,25.17L344.56,21.56L344.74,24.67L345.31,21.82L345.49,24.22L345.68,31.8L346.25,24.62L346.43,22.7L347.18,35.57L347.37,61.39L347.93,83.77L348.31,77.98L348.5,82.75L348.68,83.4L348.87,92.46L349.43,108.85L349.62,106.45L349.81,87.24L350,83.95L350.18,103.02L350.56,69.47L351.12,69.52L351.31,83.17L351.68,114.79L352.25,101.29L352.43,108.54L353.56,158.67L353.75,136.89L353.94,116.24L354.31,102.22L354.5,103.55L354.69,118.21L355.06,140.34L355.25,115.53L355.44,90.22L356.94,30.76L357.12,32.76L357.5,24.59L357.87,27L358.06,29.63L359,19.99L359.19,20.35L359.56,27L359.94,24.66L360.13,23.74L360.5,24.56L360.69,22.6L360.88,24.2L361.44,23.38L361.63,21.89L361.81,22.84L362.38,21.97L362.56,21.2L363.13,22.35L363.31,21.92L363.5,20.59L363.69,20.2L363.88,20.81L364.06,22.77L364.81,20.82L365,21.46L365.19,40.66L366.13,97.07L366.31,96.13L366.5,96.05L367.82,127.28L368,113.1L368.38,92.32L368.57,106.89L368.75,122.73L369.88,151.15L370.07,136.89L370.63,109.61L370.82,135.53L371,146.36L372.13,63.79L372.32,69.05L372.5,82.86L372.88,61.93L373.07,60.4L373.25,64.82L373.44,60.48L373.63,50.21L373.82,50.3L374,40.62L374.76,72.07L374.94,67.23L375.13,56.9L375.88,23.52L376.07,27.91L376.26,27.7L376.44,27.63L376.63,25L376.82,22.34L377.01,29.27L377.19,27.71L377.57,20.13L377.76,24.67L377.94,28.03L378.32,30.1L378.51,25.51L379.07,23.91L379.26,25.85L379.44,23.71L379.63,28.36L379.82,28.63L380.01,21.04L380.57,22.6L380.76,22.39L380.94,21.02L381.32,21.55L381.51,22.71L381.7,23.01L381.88,20.15L382.07,20.04L382.26,21.13L382.45,24.3L383.01,21.94L383.2,41.94L383.95,74.61L384.13,73.83L384.32,59.81L384.51,39.7L385.07,55.74L385.26,59.43L385.63,65.3L385.82,59.99L386.01,57.71L386.2,66L386.38,58.43L386.57,39.95L386.76,40.61L386.95,75.61L387.13,96.37L387.51,73L387.7,53.51L388.07,65.93L388.26,51.77L389.57,74.42L389.76,87.78L389.95,89.32L390.14,82.02L390.89,96.67L391.07,93.54L391.26,71.56L392.2,44.35L392.39,41.44L392.95,45.72L393.14,44.27L393.32,27.69L394.26,20.72L394.45,23.22L394.82,22L395.01,22.13L395.2,19.98L395.57,21.93L395.95,20.38L396.14,20.83L396.33,23.57L396.89,21.64L397.08,22.25L397.64,21.72L397.83,20.9L398.01,21.23L398.2,20.92L398.39,20.35L398.76,19.67L399.14,20.71L399.33,20.3L399.7,19.96L399.89,20.3L400.08,19.75L400.26,18.43L400.83,19.72L401.01,19.25L401.76,31.96L401.95,31.51L402.14,31.7L402.7,32.4L402.89,31.36L403.27,31.6L403.45,31.03L403.64,38.92L404.95,62.39L405.14,64.14L405.89,89.77L406.08,82.46L406.27,86.29L407.2,106.84L407.39,91.96L407.95,88.76L408.33,115.68L408.52,115.1L408.7,113.7L409.45,87.41L409.64,70.22L410.02,71.07L410.77,49.03L410.96,55.65L411.14,54.77L411.33,46.28L411.52,50.9L411.89,43.91L412.08,47.28L412.27,48.69L412.64,41.24L413.02,41.86L413.21,45.57L414.33,20.26L414.52,24.1L414.71,25.98L414.89,22.96L415.08,23.82L415.27,23.41L415.46,23.01L415.64,23.17L415.83,20.71L416.58,22.43L416.77,21.61L416.96,21.95L417.14,21.27L417.33,20.86L417.52,20.94L417.71,20.12L418.46,20.9L418.65,19.57L419.02,19.77L419.21,27.61L420.15,39.04L420.33,39.79L420.52,32.55L420.9,37.18L421.08,44.7L422.58,99.58L422.77,82.14L423.15,112.47L423.33,103.42L423.52,92.72L424.84,134.25L425.02,134.55L425.4,138.24L425.96,110.67L426.15,113.2L426.34,142.26L428.02,76.33L428.21,78.55L428.4,77.89L429.15,39.42L429.52,39.59L429.71,36.43L429.9,35.85L430.09,28.9L430.27,36.38L430.65,28.17L430.84,31.64L431.02,29.16L431.4,23.24L431.59,29.18L431.77,29.94L432.53,20.6L432.71,22.44L432.9,28.57L433.09,30.01L433.28,24.32L433.46,25.15L433.65,24.46L433.84,22.63L434.03,23.64L434.21,21.67L434.4,23.1L434.59,22.5L435.15,20.47L435.71,20.83L435.9,20.62L436.09,20.23L436.46,20.58L436.65,21.54L436.84,21.7L437.03,20.33L439.09,136.25L439.28,134.79L440.22,148.81L440.4,144.17L440.78,202.14L441.15,159.34L441.34,148.75L441.53,152.93L441.72,181.9L443.22,226.57L443.4,210.11L445.09,140.18L445.28,153.46L445.47,154.69L445.65,135.05L445.84,133.54L446.03,121.97L446.97,61.77L447.16,61.12L448.28,39.46L448.47,37.98L448.66,38.8L448.84,26.5L449.03,32.75L449.59,31.21L449.78,27.42L449.97,26.41L450.16,28.18L450.34,30.33L451.09,23.06L451.28,26.55L451.66,25.66L451.84,28.5L452.59,20.5L452.78,22.53L452.97,22.48L453.34,27.16L453.72,23.46L453.91,21.28L454.66,22.93L454.85,21L455.03,22.6L455.22,40.62L456.53,123.27L456.72,125.81L457.47,161.89L457.66,139.78L458.03,106.1L458.41,122.15L458.6,121.3L458.97,112.93L459.91,229.98L460.1,176.2L460.28,173.78L460.47,181.14L460.66,186.55L461.22,201.88L461.41,184.95L461.6,185.4L461.79,188.41L462.72,136.93L462.91,124.7L463.29,121.35L463.47,101.12L465.16,39.2L465.35,43.78L466.85,29.71L467.22,30.94L467.41,25.69L467.79,30.49L467.97,23.53L468.16,28.8L468.35,28.57L468.73,25.64L468.91,27.7L469.1,30.89L469.66,20.38L469.85,23.94L470.04,32.47L470.79,22.01L471.16,22.13L471.35,23.87L471.54,23.57L471.73,26.5L471.91,27L472.1,20.26L472.48,23.29L472.85,22.75L473.04,20.13L475.1,140.82L475.29,122.22L475.48,107.47L475.67,91.23L476.23,94.25L476.42,100.61L476.98,97.62L477.35,126.19L477.54,111.35L477.73,109.27L477.92,110.55L478.1,107.14L478.29,104.83L479.23,135.61L479.42,173.38L479.6,168.28L479.79,173.05L479.98,179.51L480.17,180.61L480.35,168.11L481.85,57.08L482.23,62.82L482.42,66.59L482.61,65.93L482.79,50.41L483.92,30.4L484.11,30.5L484.29,32.93L484.48,25.96L484.67,26.46L485.04,29.55L485.23,25.49L485.42,22.21L485.79,26.49L485.98,28.99L486.73,21.32L486.92,24.39L487.29,23.38L487.48,28.37L488.04,20.06L488.23,23.6L488.42,24.38L488.61,20.63L489.17,22.46L489.36,23.23L489.54,22.31L489.73,26.36L490.48,21.45L490.67,23.65L490.86,21.58L491.05,22.07L491.23,26.65L492.36,77.51L492.55,77.05L492.73,78.3L492.92,98.89L493.48,118.81L493.67,116.29L493.86,104.01L494.05,83.31L494.61,97.42L494.8,100.13L495.17,87.58L495.36,103.22L495.55,136.79L496.3,106.47L496.48,109.78L496.67,116.61L496.86,116.98L497.05,107.79L497.61,66.16L498.17,74.26L498.36,72.53L498.92,58.56L499.11,72.84L499.3,91.93L499.67,76.03L499.86,52.93L500.8,26.56L500.99,22.74L501.17,28.92L501.55,21.49L501.74,20.28L502.11,31.7L502.49,26.31L502.67,25.71L502.86,25.61L503.05,26.35L503.24,23.28L503.99,29.18L504.18,24.42L504.55,23.55L504.74,25.45L504.93,25.18L505.11,24.67L505.3,24.94L505.49,22.43L505.68,24.16L506.05,22.05L506.24,22.55L506.43,22.24L506.61,24.78L507.18,23.73L507.36,22.54L507.55,23.21L507.74,22.33L507.93,21.56L508.3,22.18L508.49,23.5L509.05,22.97L509.24,41.24L510.18,77.96L510.36,78.87L510.93,67.04L511.11,57.73L512.99,121.46L513.18,148.11L513.93,103.38L514.12,115.48L514.3,129.64L514.68,126.47L515.05,158.01L515.24,156.86L515.43,146.76L515.8,160.08L515.99,149.98L516.18,144.58L519.18,38.87L519.37,41.28L520.12,28.74L520.49,31.31L520.68,30.29L521.06,21.34L521.62,24.36L521.81,24.56L522.18,28.75L522.37,21.65L523.12,26.57L523.31,21.29L523.49,28.9L524.06,23.86L524.24,20.59L524.43,20.86L524.62,20.51L524.81,23.2L524.99,23.98L525.18,21.65L525.37,23.5L525.56,22.2L526.12,20.86L526.5,21.5L526.68,22.16L526.87,21.46L527.06,21.64L527.25,26.13L528.18,33.81L528.37,34.23L532.5,156.84L532.68,148.71L532.87,126.57L533.44,132.97L533.62,154.28L533.81,158.19L534,149.12L534.19,139.59L535.69,72.54L535.87,73.81L537.37,35.94L537.56,36.93L537.75,41.94L538.31,30.97L538.5,31.2L538.69,33.97L539.25,27.53L539.44,29.92L539.62,29.42L539.81,22.61L540,24.93" style="vector-effect: non-scaling-stroke; fill: none; stroke: rgb(0, 191, 255); stroke-opacity: 1; stroke-width: 2px; opacity: 1;"/></g><g class="points"/><g class="text"/></g></g></g><g class="overplot"/><path class="xlines-above crisp" d="M0,0" style="fill: none;"/><path class="ylines-above crisp" d="M0,0" style="fill: none;"/><g class="overlines-above"/><g class="xaxislayer-above"><g class="xtick"><text text-anchor="middle" x="0" y="433" transform="translate(116.00999999999999,0)" style="font-family: 'Open Sans', verdana, arial, sans-serif; font-size: 12px; fill: rgb(42, 63, 95); fill-opacity: 1; white-space: pre; opacity: 1;"><tspan class="line" dy="0em" x="0" y="433">Apr 3</tspan><tspan class="line" dy="1.3em" x="0" y="433">2022</tspan></text></g><g class="xtick"><text text-anchor="middle" x="0" y="433" style="font-family: 'Open Sans', verdana, arial, sans-serif; font-size: 12px; fill: rgb(42, 63, 95); fill-opacity: 1; white-space: pre; opacity: 1;" transform="translate(242.06,0)">Apr 10</text></g><g class="xtick"><text text-anchor="middle" x="0" y="433" style="font-family: 'Open Sans', verdana, arial, sans-serif; font-size: 12px; fill: rgb(42, 63, 95); fill-opacity: 1; white-space: pre; opacity: 1;" transform="translate(368.1,0)">Apr 17</text></g><g class="xtick"><text text-anchor="middle" x="0" y="433" style="font-family: 'Open Sans', verdana, arial, sans-serif; font-size: 12px; fill: rgb(42, 63, 95); fill-opacity: 1; white-space: pre; opacity: 1;" transform="translate(494.14,0)">Apr 24</text></g></g><g class="yaxislayer-above"><g class="ytick"><text text-anchor="end" x="79" y="4.199999999999999" transform="translate(0,414.29)" style="font-family: 'Open Sans', verdana, arial, sans-serif; font-size: 12px; fill: rgb(42, 63, 95); fill-opacity: 1; white-space: pre; opacity: 1;">−60</text></g><g class="ytick"><text text-anchor="end" x="79" y="4.199999999999999" style="font-family: 'Open Sans', verdana, arial, sans-serif; font-size: 12px; fill: rgb(42, 63, 95); fill-opacity: 1; white-space: pre; opacity: 1;" transform="translate(0,350.59000000000003)">−50</text></g><g class="ytick"><text text-anchor="end" x="79" y="4.199999999999999" style="font-family: 'Open Sans', verdana, arial, sans-serif; font-size: 12px; fill: rgb(42, 63, 95); fill-opacity: 1; white-space: pre; opacity: 1;" transform="translate(0,286.89)">−40</text></g><g class="ytick"><text text-anchor="end" x="79" y="4.199999999999999" style="font-family: 'Open Sans', verdana, arial, sans-serif; font-size: 12px; fill: rgb(42, 63, 95); fill-opacity: 1; white-space: pre; opacity: 1;" transform="translate(0,223.2)">−30</text></g><g class="ytick"><text text-anchor="end" x="79" y="4.199999999999999" style="font-family: 'Open Sans', verdana, arial, sans-serif; font-size: 12px; fill: rgb(42, 63, 95); fill-opacity: 1; white-space: pre; opacity: 1;" transform="translate(0,159.5)">−20</text></g></g><g class="overaxes-above"/></g></g><g class="polarlayer"/><g class="smithlayer"/><g class="ternarylayer"/><g class="geolayer"/><g class="funnelarealayer"/><g class="pielayer"/><g class="iciclelayer"/><g class="treemaplayer"/><g class="sunburstlayer"/><g class="glimages"/><defs id="topdefs-9b64fe"><g class="clips"/></defs><g class="layer-above"><g class="imagelayer"/><g class="shapelayer"/></g><g class="infolayer"><g class="g-gtitle"><text class="gtitle" x="350" y="50" text-anchor="middle" dy="0em" style="font-family: 'Open Sans', verdana, arial, sans-serif; font-size: 17px; fill: rgb(42, 63, 95); opacity: 1; font-weight: normal; white-space: pre;"><tspan class="line" dy="0em" x="350" y="50">Scenario 1</tspan><tspan class="line" dy="1.3em" x="350" y="50">Microgrid Output</tspan><tspan class="line" dy="2.6em" x="350" y="50">From: April 01, 2022 to April 30, 2022</tspan></text></g><g class="g-xtitle"><text class="xtitle" x="350" y="476.409375" text-anchor="middle" style="font-family: 'Open Sans', verdana, arial, sans-serif; font-size: 14px; fill: rgb(42, 63, 95); opacity: 1; font-weight: normal; white-space: pre;">Time</text></g><g class="g-ytitle"><text class="ytitle" transform="rotate(-90,33.840625,260)" x="33.840625" y="260" text-anchor="middle" style="font-family: 'Open Sans', verdana, arial, sans-serif; font-size: 14px; fill: rgb(42, 63, 95); opacity: 1; font-weight: normal; white-space: pre;">Demand (kW)</text></g></g></svg>