<svg class="main-svg" xmlns="http://www.w3.org/2000/svg" xmlns:xlink="http://www.w3.org/1999/xlink" width="700" height="500" style="" viewBox="0 0 700 500"><rect x="0" y="0" width="700" height="500" style="fill: rgb(255, 255, 255); fill-opacity: 1;"/><defs id="defs-73288f"><g class="clips"><clipPath id="clip73288fxyplot" class="plotclip"><rect width="432" height="320"/></clipPath><clipPath class="axesclip" id="clip73288fx"><rect x="80" y="0" width="432" height="500"/></clipPath><clipPath class="axesclip" id="clip73288fy"><rect x="0" y="100" width="700" height="320"/></clipPath><clipPath class="axesclip" id="clip73288fxy"><rect x="80" y="100" width="432" height="320"/></clipPath></g><g class="gradients"/><g class="patterns"/></defs><g class="bglayer"/><g class="layer-below"><g class="imagelayer"/><g class="shapelayer"/></g><g class="cartesianlayer"><g class="subplot xy"><g class="layer-subplot"><g class="shapelayer"/><g class="imagelayer"/></g><g class="gridlayer"><g class="x"><path class="xgrid crisp" transform="translate(108.81,0)" d="M0,100v320" style="stroke: rgb(255, 255, 255); stroke-opacity: 1; stroke-width: 1px;"/><path class="xgrid crisp" transform="translate(209.65,0)" d="M0,100v320" style="stroke: rgb(255, 255, 255); stroke-opacity: 1; stroke-width: 1px;"/><path class="xgrid crisp" transform="translate(310.48,0)" d="M0,100v320" style="stroke: rgb(255, 255, 255); stroke-opacity: 1; stroke-width: 1px;"/><path class="xgrid crisp" transform="translate(411.32,0)" d="M0,100v320" style="stroke: rgb(255, 255, 255); stroke-opacity: 1; stroke-width: 1px;"/></g><g class="y"><path class="ygrid crisp" transform="translate(0,387.52)" d="M80,0h432" style="stroke: rgb(255, 255, 255); stroke-opacity: 1; stroke-width: 1px;"/><path class="ygrid crisp" transform="translate(0,318.09000000000003)" d="M80,0h432" style="stroke: rgb(255, 255, 255); stroke-opacity: 1; stroke-width: 1px;"/><path class="ygrid crisp" transform="translate(0,179.20999999999998)" d="M80,0h432" style="stroke: rgb(255, 255, 255); stroke-opacity: 1; stroke-width: 1px;"/><path class="ygrid crisp" transform="translate(0,109.78)" d="M80,0h432" style="stroke: rgb(255, 255, 255); stroke-opacity: 1; stroke-width: 1px;"/></g></g><g class="zerolinelayer"><path class="yzl zl crisp" transform="translate(0,248.65)" d="M80,0h432" style="stroke: rgb(255, 255, 255); stroke-opacity: 1; stroke-width: 2px;"/></g><path class="xlines-below"/><path class="ylines-below"/><g class="overlines-below"/><g class="xaxislayer-below"/><g class="yaxislayer-below"/><g class="overaxes-below"/><g class="plot" transform="translate(80,100)" clip-path="url(#clip73288fxyplot)"><g class="scatterlayer mlayer"><g class="trace scatter tracebeefcb" style="stroke-miterlimit: 2; opacity: 0.5;"><g class="fills"/><g class="errorbars"/><g class="lines"><path class="js-line" d="M0,148.65L432,148.65" style="vector-effect: non-scaling-stroke; fill: none; stroke: rgb(0, 191, 255); stroke-opacity: 1; stroke-width: 2px; opacity: 1;"/></g><g class="points"/><g class="text"/></g><g class="trace scatter trace32f048" style="stroke-miterlimit: 2; opacity: 0.5;"><g class="fills"/><g class="errorbars"/><g class="lines"><path class="js-line" d="M0,148.81L3.9,148.39L4.05,146.5L5.25,96.16L5.4,88.3L6.75,16.14L6.9,16.22L7.05,16.19L9.15,16.27L9.3,16.4L9.6,25.34L9.75,34.24L11.85,148.82L12,148.82L18.31,148.6L18.46,147.72L19.96,107.96L20.11,113.79L21.01,89.28L21.16,90.58L21.31,93.32L21.91,58.47L22.06,28.93L22.21,28.93L22.36,27.25L22.51,29.4L22.66,20.5L23.11,16.1L23.26,18.87L23.41,28.41L23.56,16.3L24.01,22.94L24.16,42.35L26.26,148.82L26.41,148.81L32.86,148.22L33.01,146.33L35.71,68.28L35.86,83.41L36.01,88.73L36.46,76.6L36.61,87.78L36.76,90.94L36.91,102.22L37.36,90.01L37.51,101.19L37.66,101.18L37.81,96.46L38.11,106.16L38.26,109.85L40.51,148.81L40.66,148.81L47.27,148.49L47.42,147.97L48.32,133.55L48.47,114.89L48.62,117.64L48.92,110.56L49.07,95.66L49.82,16.09L50.27,16.21L50.42,16.25L52.52,16.33L52.67,17.48L53.72,98.1L53.87,125.88L54.77,148.73L54.92,148.82L61.37,148.73L61.52,147.8L62.27,118.35L62.42,106.72L63.92,16.11L64.37,16.14L64.52,16.24L66.92,16.45L67.07,18.21L68.42,114.27L68.57,125.78L69.62,148.82L69.77,148.82L75.78,148.72L75.93,147.8L76.68,117.73L76.83,106.01L78.33,16.19L78.63,16.34L78.78,16.36L81.33,16.46L81.48,17.19L82.23,62.02L82.38,73.81L83.88,148.82L84.03,148.82L90.18,148.62L90.33,147.39L91.08,117.96L91.23,105.36L92.73,16.27L93.03,16.33L93.18,16.38L95.43,16.68L95.58,21.41L96.63,148.65L96.78,148.65L250.59,148.65L250.74,143.36L251.64,18.29L251.79,25.92L252.69,16.25L252.84,16.34L253.74,16.47L253.89,17.72L254.34,16.98L254.64,27.57L254.79,60.94L255.09,47.79L255.24,70.85L256.44,148.74L256.59,148.81L262.89,148.79L263.04,148.36L263.49,132.45L263.64,124.1L265.44,16.1L265.74,16.15L265.89,16.21L268.89,16.6L269.04,19.95L271.44,148.82L271.59,148.81L277.45,148.63L277.6,147.91L278.65,113.59L278.8,105.47L279.25,68.65L279.4,92.75L279.7,103.64L280,89.4L280.15,81.49L280.45,35.28L280.6,49.81L280.75,74.21L281.8,16.6L281.95,21.45L282.1,29.78L282.25,16.08L282.55,16.09L282.7,16.1L283.15,16.1L283.3,16.92L284.05,65.97L284.2,78.74L285.7,148.82L285.85,148.82L291.7,148.58L291.85,147.37L292.75,104.77L292.9,94L294.25,16L294.55,16.05L294.7,16.09L297.7,16.79L297.85,20.84L300.1,148.82L300.25,148.81L300.4,148.81L306.11,148.62L306.26,147.63L307.61,106.63L307.76,48.36L307.91,46.93L308.06,55.53L308.21,84.94L308.51,42.18L308.66,45.14L308.81,50.3L309.41,67.29L309.56,56.71L309.71,61.47L310.31,34.08L310.46,34.89L310.61,50.67L311.06,25.39L311.51,96.79L311.66,96.87L312.56,116.84L312.71,111.4L312.86,106.96L313.01,109.17L313.16,133.13L314.21,148.77L314.36,148.81L320.51,148.64L320.66,147.84L321.26,125.65L321.41,112.67L322.91,16.13L323.21,16.15L323.36,16.19L326.06,16.48L326.21,16.49L326.51,16.52L326.66,17.71L327.71,97.69L327.86,111.76L328.91,148.82L329.06,148.82L334.92,148.35L335.07,146.12L335.97,101.77L336.12,89.63L337.32,16.08L337.77,16.16L337.92,16.18L340.92,16.52L341.07,18.76L343.47,148.83L343.62,148.82L349.32,148.3L349.47,146.09L350.22,111.65L350.37,99.15L351.72,16.05L352.02,16.11L352.17,16.17L355.32,16.87L355.47,20.39L357.87,148.82L358.02,148.82L363.73,148.17L363.88,144.97L365.08,94.94L365.23,72.18L365.53,76.06L365.83,38.86L365.98,29.95L366.13,25.17L366.28,32.37L366.43,51.84L366.88,17.13L367.18,49.89L367.33,68.23L367.93,21.1L368.08,27.62L368.23,49.26L368.38,49.11L368.53,30.36L368.98,34.55L369.28,16.21L369.43,16.26L369.58,16.35L370.33,43.77L370.48,57.5L372.13,148.82L372.28,148.82L378.13,148.2L378.28,145.59L378.88,119.23L379.03,100.98L380.68,16.14L380.83,16.15L380.98,16.17L382.78,16.35L382.93,16.3L384.13,16.79L384.28,20.36L386.68,148.82L386.83,148.81L392.84,148.07L392.99,145.99L393.59,136.09L393.74,128.55L394.49,44.06L394.79,68.83L394.94,93.61L395.24,77.01L395.39,48.45L395.54,16.65L396.14,39.75L396.29,40.03L396.44,34.29L396.59,44.13L396.74,56.11L396.89,58.52L397.04,48.85L397.19,40.95L397.34,65.56L397.49,77.45L397.64,65.12L397.94,80.73L398.09,98.87L398.24,103.69L398.39,94.58L398.54,81.61L398.99,106.55L399.14,113.51L399.59,93.03L399.74,101.75L399.89,115.08L400.94,148.82L401.09,148.81L407.09,148.17L407.24,145.98L408.44,89.35L408.59,53.62L409.64,16.01L409.79,16.07L412.94,16.83L413.09,20.16L415.49,148.82L415.64,148.82L421.2,148.72L421.35,147.65L422.55,102.22L422.7,85.46L423.75,16.05L423.9,16.11L424.05,16.13L427.05,16.82L427.2,19.14L427.35,19.64L427.5,19.01L427.65,27.14L429.9,148.82L430.05,148.81L432,148.81" style="vector-effect: non-scaling-stroke; fill: none; stroke: rgb(255, 0, 0); stroke-opacity: 1; stroke-width: 2px; opacity: 1;"/></g><g class="points"/><g class="text"/></g><g class="trace scatter trace21b2e7" style="stroke-miterlimit: 2; opacity: 0.5;"><g class="fills"/><g class="errorbars"/><g class="lines"><path class="js-line" d="M0,168.77L0.15,167.91L0.75,168.7L0.9,168.31L1.2,167.92L1.35,168.63L1.5,168.41L1.65,170.46L1.95,188.5L2.4,178.18L2.55,170.09L2.85,167.91L3,223.5L3.3,238.13L3.45,182.27L3.9,245.3L4.05,191.25L4.2,180.04L4.5,174.98L4.65,165.36L6.3,74.85L6.45,84.17L6.6,88.4L6.9,70.07L7.05,122.5L7.2,132.79L7.8,127.05L7.95,75.28L8.1,58.73L8.7,68.36L8.85,75.33L9,74.32L9.15,82.03L9.3,76.31L9.6,85.21L9.75,82.87L9.9,100.98L11.7,178.79L11.85,176.18L12,174.14L12.6,174.69L12.75,174.41L12.9,175.24L13.05,173.24L13.2,174.61L13.35,172.95L13.65,174.68L13.8,172.66L13.95,173.24L14.1,169.19L14.41,169.23L14.56,168.08L14.86,168.54L15.01,170.04L15.16,170.58L15.31,168.64L15.46,169.47L15.61,168.19L16.21,169.04L16.36,168.24L16.51,168.63L17.56,168.29L17.71,168.68L17.86,168.34L18.01,223.97L18.76,163.67L18.91,171.06L19.06,167.12L19.36,151.05L19.51,197.43L19.66,209.52L19.81,153.25L20.26,154.4L20.86,128.37L21.01,130.62L21.91,93.2L22.06,52.91L22.36,121.07L22.66,47.89L22.81,49.86L23.26,140.69L23.56,68.35L23.71,75.99L24.16,100.94L24.31,108.62L24.61,104.29L24.76,120.57L24.91,122.35L25.06,134.58L26.11,171.9L26.26,169.99L26.86,170.73L27.16,168.67L27.31,170.17L27.61,170.89L28.21,168.65L28.36,170.3L28.96,168.55L29.26,168.83L29.41,169.93L29.86,170.29L30.01,168.58L30.16,169.08L30.31,169.06L30.76,168.37L30.91,169.48L31.06,170.29L31.21,168.68L31.36,169.29L31.51,223.93L31.81,168.44L32.26,223.74L32.41,238.17L33.31,159.13L33.46,150.35L33.61,167.2L34.06,137.86L34.21,130.4L34.36,127.44L34.51,182.7L34.66,207.87L34.81,149.66L35.26,189.24L35.41,122.15L35.56,94.34L36.01,132.98L36.16,124.35L36.46,103.17L36.61,119.95L36.76,188.3L36.91,218.18L37.21,157.02L37.36,146.3L37.66,156.37L37.81,144.08L38.11,152.34L38.26,145.07L38.56,152.94L38.71,161.45L39.46,238.07L39.61,180.43L39.76,165.46L40.36,168.61L40.51,170.15L40.66,168.57L40.96,171.94L41.26,169.13L41.41,169.15L41.56,168.74L41.71,171.14L42.61,168.49L42.76,169.78L42.91,170.09L43.06,168.83L43.22,169.31L43.37,168.34L43.97,169.05L44.12,168.22L44.72,169.3L45.02,168.55L45.17,168.36L46.52,168.64L46.67,168.33L46.82,168.6L47.12,168.04L47.27,169.96L47.42,231.52L48.02,173.34L48.17,170.32L48.47,147.02L48.62,216.23L48.77,232.65L48.92,225.31L49.07,155.66L49.97,55.67L50.12,57.41L50.27,52.88L50.42,50.15L50.57,57.75L50.72,53.71L50.87,56.65L51.32,63.81L51.47,54.02L51.62,51.66L51.77,55.28L51.92,105.58L52.67,133.63L52.82,128.66L52.97,138.92L53.27,154.6L53.42,108.45L53.57,111.31L53.72,135.21L54.62,181.79L54.77,173.12L54.92,174.02L55.07,171.2L55.22,169.39L55.37,171.84L55.82,171.61L55.97,168.84L56.27,168.64L56.57,170.91L56.72,168.75L57.02,168.56L57.32,171.08L57.47,168.66L57.77,168.26L58.37,169.68L58.52,168.25L58.82,169.46L59.12,168.02L59.27,168.15L59.57,169.2L59.72,176.42L59.87,179.13L60.02,178.09L60.17,170.34L60.77,168.21L61.07,168.54L61.22,168.21L61.37,168.23L61.52,167.29L61.82,175.44L61.97,175.11L62.12,161.74L62.27,206.4L62.72,121.59L62.87,118.83L63.77,56.42L63.92,106.74L64.07,120.07L64.22,70.45L64.37,50.37L64.67,125.41L65.12,79.14L65.27,69.07L66.02,84.17L66.17,75.86L66.32,92.49L66.62,72.29L66.92,80.58L67.07,76.84L67.52,91.5L67.67,109.5L67.82,110.29L67.97,119.34L69.17,179.31L69.47,176.6L69.62,177.14L70.52,170.79L70.67,173.74L70.82,175.19L70.97,170.29L71.27,173.09L71.42,171.07L71.57,170.61L71.72,173.28L72.63,169.32L72.78,169.87L72.93,170.46L73.08,177.46L73.23,182.14L73.53,169.61L73.68,170.04L73.83,168.56L74.28,170.2L74.43,170.14L74.58,170.65L74.73,169.92L74.88,224.26L75.18,168.97L75.48,179.62L75.63,234.4L75.78,248.79L75.93,191.42L76.08,175.09L76.38,176.95L76.53,170.48L76.83,152.51L76.98,136.53L78.33,92L78.48,88.52L78.78,147.77L79.08,67.07L79.23,71.78L79.53,70.65L79.68,72.81L80.43,88.78L80.58,87.86L80.73,143.58L80.88,160.56L81.03,92.15L81.18,83.46L81.33,138.32L81.48,138.71L81.63,84.82L81.78,74.21L82.08,97.1L82.23,107.18L83.88,196.15L84.03,193.46L84.18,193.87L84.33,191.59L84.93,181.73L85.08,174.31L86.13,170.18L86.28,171.82L87.33,168.51L87.48,170.18L87.63,225.85L88.08,168.41L88.23,169.64L88.68,168.03L88.83,168.78L88.98,170.03L89.88,168.05L90.03,168.87L90.18,223.62L90.63,176.65L90.78,168.77L91.68,132.62L91.83,185.13L91.98,197.71L92.28,189.9L92.43,124.96L92.88,167.39L93.33,85.44L93.48,79.84L93.93,152.73L94.23,85.27L94.38,94.28L94.68,87.12L95.13,94.26L95.28,92.79L95.73,138.74L95.88,225.74L96.18,224.77L96.48,227.68L96.63,224.51L97.98,182.06L98.13,181.62L99.63,172.83L99.78,174.44L99.93,175.64L100.38,173.82L100.53,173.88L100.68,174.94L100.84,171.25L100.99,174.06L101.14,172.65L101.59,171.46L101.74,173.2L102.34,168.43L102.64,168.52L102.79,170.82L102.94,223.66L103.39,168.24L103.54,169.33L103.84,168.24L103.99,169.55L104.14,176.29L104.29,180.3L104.59,170.36L104.74,169.55L105.04,248.48L105.49,181.76L105.64,180.07L106.39,208.12L106.54,222.35L106.99,203.12L107.14,207.83L107.29,212.7L107.74,202.77L107.89,205.32L108.04,222.96L108.94,252.84L109.24,246.82L109.39,240.2L110.74,204.47L110.89,208.54L111.79,194.37L111.94,246.89L112.09,261.55L112.24,256.53L112.39,198.17L113.44,174.77L113.59,176.14L113.74,176.92L113.89,173.67L114.04,175.63L114.19,171.08L114.34,172.41L114.49,171.27L114.64,174.33L115.09,171.43L115.24,169.97L115.39,172.58L115.84,171.95L115.99,168.76L116.29,181.02L116.74,169.56L116.89,169.97L117.19,168.44L117.49,168.63L117.64,170.85L117.94,167.8L118.39,169.93L118.54,168.56L118.69,168.65L118.84,170.64L118.99,168.13L119.44,170.49L119.59,171.01L119.74,226.37L120.34,180.51L120.49,176.32L120.79,252.65L121.24,187.8L121.39,190.95L121.54,183.16L121.84,203.89L121.99,214.6L122.14,220.08L122.29,269.65L122.44,286.91L122.59,230.09L122.74,221.33L122.89,220.84L123.04,271.01L123.34,304L123.49,250.41L123.64,241.31L123.94,241.39L124.54,217.67L124.69,210.4L124.84,195.92L125.44,199.49L125.59,197.87L125.89,198.1L126.04,192.01L126.19,242.27L126.34,247.61L126.49,196.65L126.64,176.32L126.94,230.1L127.09,244.38L127.69,182.24L127.99,183.87L128.14,181.46L128.29,182.79L128.44,180.39L128.59,182.13L128.74,173.61L129.49,169.68L129.65,170.78L129.8,171.37L129.95,168.73L130.85,171.66L131,168.74L131.15,168.76L131.3,170.86L131.9,168.28L132.2,169.69L132.35,168.82L132.5,168.87L132.65,168.16L132.8,169.38L133.1,179.6L133.7,177.89L133.85,180.77L134,180.5L134.15,180.66L134.3,174.15L134.45,170.6L134.75,171.78L134.9,178.08L135.2,183.54L135.35,190.59L135.65,193.89L135.8,182.75L135.95,180.81L136.1,181.87L136.25,241.44L136.55,181.47L137,187.72L137.15,194.06L137.75,197.52L137.9,193.85L138.2,187.3L138.35,248.21L138.95,193.55L139.1,248.91L139.25,251.06L139.4,196.42L139.85,178.82L140.15,183.13L140.3,188.41L140.45,185.86L140.6,241.9L140.75,252.84L140.9,197.08L141.65,170.18L141.8,170.28L141.95,173.05L142.85,168.27L143,169.81L143.15,170.82L143.3,168.33L143.45,169.59L143.6,168.39L143.9,168.3L144.5,171.24L144.65,168.54L145.1,168.25L145.25,169.76L145.4,169.62L145.55,169.02L146.15,168.08L146.3,169.36L146.45,169.96L146.6,168.35L146.75,169.17L146.9,223.46L147.35,167.69L147.8,170.73L147.95,169.24L149.3,206.15L149.45,200.45L150.2,285.49L150.35,234.31L150.5,213.81L150.8,275.31L151.1,191.1L151.25,188.35L151.4,187.66L151.55,190.28L151.7,200.19L152,193.16L152.45,196.55L152.6,199.36L152.75,200.74L152.9,195.45L153.05,192.39L155,172.17L155.15,171.9L155.45,240.87L155.75,185.19L155.9,171.82L156.35,168.74L156.8,169.52L156.95,170.57L157.1,168.18L157.7,169.85L157.85,168.55L158,170.74L158.3,168.1L158.46,168.09L158.61,168.56L158.76,169.99L159.21,169.34L159.36,224.08L160.11,168.16L160.26,168.66L160.41,167.98L161.01,168.7L161.31,168.28L161.46,168.29L162.21,188.21L162.36,180.45L162.51,179.44L163.26,184.93L163.41,184.41L163.56,184.59L163.71,184.45L163.86,187.26L164.01,188.36L164.31,185.44L164.46,185.74L164.61,258.38L165.21,199.2L165.36,198.46L165.51,201.73L165.66,247.03L166.26,259.65L166.56,187.43L166.71,185.19L166.86,194.02L167.46,192.03L167.61,190.28L167.91,193.65L168.06,185.78L168.36,199.66L168.96,194.14L169.11,195.88L170.01,168.98L170.61,169.5L170.76,168.21L171.06,167.98L171.66,169.53L171.81,168.09L172.86,168.66L173.01,167.72L173.91,168.3L174.06,167.87L174.51,168.31L174.66,223.6L174.81,237.41L174.96,181.97L175.56,167.71L175.71,175.83L175.86,177.28L176.01,177.67L176.16,185.32L176.46,179.55L177.66,203.41L177.81,196.47L178.11,194.01L178.41,198.55L178.56,197.4L178.71,194.3L178.86,194.59L179.01,250.5L179.16,263.73L179.31,198.69L179.46,182.71L179.61,238.43L179.76,252.48L179.91,247.85L180.06,191.87L180.21,177.54L180.66,188.32L180.81,194.49L180.96,193.45L181.11,208.94L181.56,230.38L181.86,216.27L182.01,215.34L183.21,185.24L183.36,187.48L184.71,168.6L185.01,168.66L185.16,170.44L185.46,168.56L185.76,168.6L185.91,170.88L186.81,168.04L186.96,168.27L187.42,168.85L187.57,168.04L187.72,168.24L187.87,168.22L188.17,169.17L188.47,168.51L188.62,168.17L189.07,168.05L189.22,176.26L189.52,178.18L189.67,170.15L190.57,167.62L190.72,167.74L191.02,167.5L191.17,167.73L191.32,169.34L191.47,178.53L191.62,233.93L192.07,254.2L192.22,197.29L192.37,179.95L192.82,199.26L192.97,209.1L193.42,212.7L193.57,191.24L193.72,183.58L194.17,187.39L194.32,195.44L194.92,201.64L195.07,194.42L195.22,194.25L195.37,201.62L195.52,201.07L195.67,207.47L196.12,211.76L196.27,207.53L196.42,201.5L196.57,204.65L196.72,192.98L196.87,186.61L197.32,176.9L197.62,181.34L197.77,191.44L198.37,206.28L198.67,202.52L198.82,185.79L199.27,168.86L199.87,170.39L200.02,170.03L200.47,168.52L200.62,169.73L200.77,176.28L201.07,180.88L201.52,178.28L201.67,179.16L201.82,178.26L201.97,170.46L202.27,168.01L202.72,168.8L202.87,169.47L203.32,167.88L203.62,168.57L203.77,168.13L203.92,168.23L204.07,175.98L204.22,178.26L204.52,178.22L204.67,170.37L204.82,168.2L204.97,223.7L205.12,237.68L205.27,182.14L205.42,168.66L205.57,168.46L205.72,169.67L206.47,189.38L206.62,246.6L206.77,260.86L206.92,215.97L207.07,202.81L207.22,200.86L207.37,253.6L207.67,188.66L208.27,201.08L208.42,195.72L209.32,277.31L209.47,217.06L209.62,200.71L209.77,211.2L209.92,271.04L210.07,292.08L210.22,228.35L210.37,212.86L210.52,216.98L210.82,208.95L210.97,204.19L211.12,208.4L211.27,203.29L211.57,207.44L211.72,199.81L212.47,188.12L212.62,231.92L212.77,245.48L213.37,240.75L213.52,186.48L213.67,179.61L214.27,181.7L214.42,179.72L214.57,179.84L214.72,181.97L215.02,179.42L215.17,171.29L215.62,168.39L216.08,168.56L216.23,169.81L216.38,169.94L216.53,169.24L216.68,169.02L216.98,169.49L217.28,168.19L217.58,168.78L217.73,170L217.88,168.15L218.48,168.9L218.63,168.26L218.78,168.74L219.23,168.32L219.38,168.14L220.13,168.59L220.28,170.87L220.43,170.95L220.58,172.97L221.03,273.14L221.33,216.53L221.48,212.93L221.63,197.91L221.78,250.45L221.93,263.36L222.08,255.71L222.23,196.76L222.68,170.72L222.83,226.88L223.13,243.19L223.28,186.81L223.43,171.61L224.03,174.8L224.18,177.52L224.33,181.51L224.63,180.19L224.78,173.22L225.08,182.4L225.23,180.62L225.38,235.66L225.68,247.88L225.83,245.1L225.98,199.89L226.88,184.73L227.03,174.38L227.93,169.5L228.08,180.26L228.23,178.14L228.83,180.01L228.98,178.91L229.73,168.52L229.88,170.02L230.03,168.14L230.33,170.44L230.78,168.24L230.93,168.97L231.23,168.23L231.38,169.31L231.68,170.19L231.98,167.79L232.28,168.07L232.43,169.29L233.33,167.86L233.48,168.33L233.63,168.65L233.78,168.55L233.93,233.79L234.08,248.08L234.23,192.34L234.38,170.84L234.83,188.65L234.98,246.68L235.13,252.86L235.28,194.88L235.88,180.67L236.03,181.5L236.18,183.78L236.33,182.5L236.48,237.54L236.63,245.29L236.78,191.77L236.93,176.56L237.08,234.58L237.23,262.99L237.53,203.84L237.83,282.46L237.98,290.75L238.88,196.32L239.03,191.22L239.18,185.76L239.33,194.17L239.63,191.82L239.78,197.49L240.38,212.04L240.53,208.82L240.68,205.28L240.83,208.16L241.13,205.61L241.28,194.9L241.43,193.45L241.58,178.8L241.73,180.91L241.88,176.55L242.03,176.91L242.18,174.73L242.48,177.21L243.08,170.29L243.23,171.84L243.38,172.58L244.28,170.09L244.43,168.92L244.89,170.97L245.04,169.71L245.19,168.58L245.34,170.06L245.49,168.54L245.94,168.96L246.09,169.68L246.24,168.34L246.54,169.21L246.69,176.28L246.84,225.85L247.29,169.13L247.44,168.39L247.59,169.15L248.04,168.47L248.19,168.3L248.34,168.65L248.49,168.29L248.64,224.22L248.79,245.84L249.09,184.93L249.24,188.99L249.99,279.48L250.14,215.07L250.89,152.58L251.04,76.19L251.19,72.05L251.34,80.14L251.49,93.08L252.24,80.61L252.39,81.85L252.54,86.98L252.84,142.3L253.14,70.02L253.29,76.73L254.04,85.34L254.19,76.96L254.34,79.59L254.49,71.64L254.64,78.82L254.79,116.55L255.09,94.38L255.24,109.9L255.39,131.07L256.29,184.64L256.44,184.11L256.59,187.06L257.19,181.63L257.34,183.72L257.49,183.94L257.94,242.42L258.09,184.67L258.24,171.03L258.54,171.36L258.69,168.75L258.99,169.88L259.14,179.03L259.44,178.78L259.89,180.8L260.04,179.91L261.39,168.01L261.54,168.18L261.69,168.4L262.29,179.03L262.44,170.21L262.59,168.94L263.04,237.98L263.34,175.23L263.49,158.64L263.64,154.83L263.79,200.44L263.94,212.19L264.09,141.87L265.29,58.56L265.44,63.68L265.89,80.64L266.49,78.63L266.64,78.35L266.79,72.22L267.09,84.46L267.39,72.37L267.54,74.04L267.84,110.27L268.29,99.62L268.44,86L268.59,86.31L268.74,70.3L268.89,66.01L269.04,73.36L269.19,91.7L270.39,228.78L270.69,182.58L270.84,185.33L270.99,186.88L271.14,185.76L271.29,181.58L271.44,184.53L271.74,180.51L271.89,172.76L272.34,168.36L272.79,169.51L272.94,170.25L273.09,168.59L273.54,171.03L273.7,169.8L273.85,168.53L274.75,170.09L274.9,169.31L275.05,170.16L275.35,168.77L275.5,169.76L275.65,168.15L275.95,179.24L276.1,233.96L276.85,168.32L277,169.52L277.15,168.27L277.3,169.02L277.6,167.7L277.75,166.12L277.9,166.27L278.05,163.64L278.65,145.11L278.8,193.48L279.25,106.22L279.7,142.4L279.85,135.36L280.3,125.32L280.45,84.47L280.75,115.94L280.9,91.95L281.05,81.71L281.35,145.33L281.65,61.05L281.8,62.07L282.1,70.49L282.4,54.14L282.55,65.65L282.7,69.29L282.85,76.51L283.3,65.89L283.45,126.2L283.6,138.32L283.75,95.89L283.9,95.4L285.25,170.95L285.4,170.75L286,168.44L286.15,177.68L286.45,180.12L286.9,179.56L287.05,178.32L287.2,177.98L287.35,169.99L287.65,170.16L288.25,168.41L288.4,169.4L289.3,168.25L289.45,168.61L290.8,168.13L290.95,176.04L291.1,178.04L291.25,170.41L291.4,168.72L291.55,168.17L291.7,168.25L291.85,174.71L292,172.83L292.15,178.61L292.3,182.9L292.45,225.27L292.75,146.59L292.9,132.25L294.1,55.43L294.7,61.02L294.85,125.72L295.3,159.57L295.75,76.51L295.9,71.5L296.2,66.07L296.65,136.95L296.8,88.62L297.25,52.18L297.7,55.72L297.85,59.72L299.8,179.35L299.95,178.94L300.1,176.81L300.7,168.41L301.15,169.31L301.3,169.78L301.75,170.49L302.05,168.01L302.2,168.34L302.66,170.28L302.96,168.52L303.11,169.41L303.71,168.66L303.86,171L304.01,168.08L304.61,168.76L304.76,168.11L305.06,168.53L305.21,176.18L305.36,178.99L305.51,233.58L306.41,163.64L306.56,167.89L307.01,178.03L307.16,169.23L307.31,166.52L307.46,213.1L307.76,93.15L307.91,82.88L308.21,122.33L308.36,88.35L308.51,73.49L308.66,73.5L308.81,77.51L309.71,116.96L309.86,87.7L310.16,106.63L310.31,80.66L310.76,115.29L310.91,67.12L311.21,82.53L311.36,126.51L311.96,157.13L312.26,150.04L312.41,148.2L312.56,150.28L312.71,147.34L312.86,142.53L313.01,142.3L313.16,158.9L313.31,164.02L313.46,219.91L313.76,237.56L313.91,184.05L314.81,168.44L314.96,169.12L315.86,168.05L316.01,168.8L316.16,167.9L316.76,168.12L316.91,168.03L317.21,168.99L317.81,168.59L317.96,168.28L318.86,168.18L319.01,167.99L319.91,167.95L320.06,168.1L320.36,177.61L320.66,176.86L320.81,165.64L320.96,159.99L321.11,211.79L322.16,85.31L322.31,64.27L322.76,47.75L322.91,56.41L323.06,61.05L323.36,51.23L323.81,55.7L323.96,53.64L324.41,62.23L324.86,60.65L325.01,57.84L325.16,62.87L325.46,53.5L325.61,50.87L327.71,127.99L327.86,141.19L328.91,177.33L329.06,173.07L329.21,174.72L329.36,174.37L329.51,228.47L329.81,243.68L329.96,187.78L330.11,172.43L330.71,183.83L330.86,178.12L331.16,178.61L331.47,177.96L331.62,170.4L332.37,168.27L332.52,177.02L332.97,178.6L333.12,169.91L333.42,168.33L333.72,168.41L333.87,176.06L334.02,178.28L334.32,178.04L334.47,170.26L334.62,167.99L334.77,176.35L334.92,177.39L335.22,170.94L335.37,222.67L336.57,76.58L336.72,67.53L337.17,53.15L337.62,57.35L337.77,105.35L338.07,131.32L338.22,74.12L338.97,54.28L339.12,55.98L339.27,57.56L339.42,55.69L339.57,63.93L340.02,78.96L340.17,134.97L340.32,149.02L340.62,136.92L340.77,82.31L340.92,62.36L341.37,78.94L341.52,91.96L342.87,188.63L343.32,183.3L343.47,181.21L343.62,183.83L344.07,179.5L344.22,172.91L345.27,168.57L345.42,171.51L346.02,168.1L346.17,168.26L346.32,169.24L346.47,170.59L346.77,168.61L346.92,169.56L347.07,168.17L347.22,169.02L347.82,168.13L347.97,168.59L348.87,167.91L349.02,168.18L349.32,177.69L349.62,171.73L349.77,160.67L350.07,154.84L350.22,142.82L351.57,83.27L351.72,81.47L352.32,150.58L352.47,95.14L352.62,96.22L352.77,100.28L352.92,96.83L353.07,85.88L353.37,79.8L353.52,92.53L354.12,85.35L354.42,86.15L354.57,90.07L355.47,68.34L355.62,81.1L357.27,212.22L357.42,200.29L357.57,196.92L357.87,186.02L358.02,239.13L358.17,253.07L358.32,189.4L359.22,169.61L359.37,171.84L359.52,168.76L360.13,169.3L360.28,170.4L360.58,168.47L361.03,168.66L361.18,170.15L361.48,170.24L362.08,168.07L362.23,168.25L362.68,170.51L362.83,168.17L362.98,169.02L363.43,168.6L363.58,168.08L363.73,168.31L363.88,164.26L364.18,156.58L364.33,158.75L364.48,210.02L364.63,221.58L364.78,174.13L366.13,93.45L366.28,92.72L366.58,83.36L367.18,189.14L367.33,141.85L367.48,107.05L367.63,104.2L367.78,110.84L367.93,118.45L368.08,113.9L368.23,129.09L368.38,135.33L369.28,77.34L369.43,85.99L369.73,67.09L370.18,68.92L370.33,89.36L371.23,154.71L371.38,170.66L371.68,175.44L371.98,174.15L372.13,171.38L372.43,238.44L372.58,252.17L373.48,180.14L373.63,180.09L374.38,168.67L374.53,169.22L374.68,170.58L375.28,170.67L375.58,168.11L375.73,168.17L375.88,168.21L376.03,170.13L376.18,171.04L376.33,168.67L376.48,169.87L376.63,168.06L376.78,168.95L377.08,168.35L377.23,224.83L378.13,167.58L378.28,173.65L378.73,174.74L378.88,161.8L379.03,143.73L379.63,93.2L379.78,104.63L379.93,159.45L380.23,89.92L380.68,135.77L380.83,143.73L381.58,61.86L381.73,64.26L381.88,69.45L382.03,66.6L382.18,119.58L382.33,135.49L382.48,77.96L382.63,56.69L382.78,53.85L383.23,58.51L383.38,56.46L383.53,68.12L383.68,77.53L383.83,76.5L383.98,137.44L384.28,154.93L384.43,100.04L384.58,101.24L384.73,97.89L384.88,108.48L386.08,188.28L386.68,182.09L386.83,180.15L386.98,181.98L387.28,178.93L387.43,181.83L387.58,179.17L388.03,179.85L388.18,171.96L388.33,168.1L388.94,169.51L389.09,167.87L389.99,169.64L390.14,169.75L390.29,168.21L390.44,176.01L390.74,179.37L390.89,178.18L391.04,170.18L391.34,167.99L391.79,169.11L391.94,224.97L392.24,168.73L392.69,188.33L392.84,187.39L394.49,82.97L394.64,85.52L394.79,117.97L395.39,108.39L395.69,145.77L395.84,154.62L396.29,83.43L396.74,95.46L396.89,100L397.19,78.21L397.34,114.35L397.49,135.12L397.94,206.39L398.24,152.59L398.39,146.23L398.84,122.31L399.29,122.84L399.44,142.86L399.59,128.23L400.04,150.42L400.19,158.8L400.49,171.15L400.94,169.56L401.09,225.67L401.24,237.69L401.54,237.47L401.69,183.86L402.59,168.53L402.74,169L402.89,169.15L403.04,168.9L403.19,170.94L403.34,168.61L403.94,169.46L404.09,168.68L404.24,169.33L404.39,168.57L404.69,169.18L404.84,223.8L405.14,168.4L405.74,169.02L405.89,168.46L406.19,168.63L406.49,168.36L406.64,176.31L407.24,176.04L407.54,180.03L407.69,161.77L409.19,45.78L409.34,55.24L409.49,111.94L409.64,129.15L409.79,77.29L409.94,73.21L410.24,77.55L410.39,121.84L410.69,142.82L410.84,138.26L410.99,71.41L411.14,52.98L411.74,59.81L411.89,66.3L412.64,76.77L412.79,74.74L413.09,67.92L413.24,72.32L413.39,83.43L414.44,154.11L414.59,164.07L414.89,175.76L415.49,171.92L415.64,173.03L416.24,169.51L416.39,170.68L416.54,170.11L416.69,169.99L416.84,168.13L417.14,170.77L417.44,169.66L417.59,168.37L417.75,170.56L418.05,168.22L418.2,169.74L418.35,168.23L418.95,171.09L419.1,168.1L419.25,169.3L419.4,168.07L419.55,176.16L419.85,168.23L420.45,168.88L420.6,167.99L420.75,168.83L421.05,168.44L421.2,223.73L422.1,157.04L422.25,138.86L423.3,87.65L423.45,87.67L423.6,129.44L423.75,135.38L423.9,77.42L424.05,59.32L424.2,124.15L424.35,154.24L424.5,159.5L424.65,106.54L425.55,87.87L425.7,86.26L426.6,99.49L426.75,79.59L426.9,84.52L427.05,77.87L427.2,78.02L427.35,74.61L427.5,73.53L427.65,76.8L427.8,82.41L428.7,139.81L428.85,152.83L429.45,176.45L429.9,173.28L430.05,169.62L430.2,174.18L430.8,169.9L430.95,171.15L431.55,169.13L431.7,171.14L431.85,168.35L432,168.91" style="vector-effect: non-scaling-stroke; fill: none; stroke: rgb(0, 128, 0); stroke-opacity: 1; stroke-width: 2px; opacity: 1;"/></g><g class="points"/><g class="text"/></g></g></g><g class="overplot"/><path class="xlines-above crisp" d="M0,0" style="fill: none;"/><path class="ylines-above crisp" d="M0,0" style="fill: none;"/><g class="overlines-above"/><g class="xaxislayer-above"><g class="xtick"><text text-anchor="middle" x="0" y="433" transform="translate(108.81,0)" style="font-family: 'Open Sans', verdana, arial, sans-serif; font-size: 12px; fill: rgb(42, 63, 95); fill-opacity: 1; white-space: pre; opacity: 1;"><tspan class="line" dy="0em" x="0" y="433">Apr 3</tspan><tspan class="line" dy="1.3em" x="0" y="433">2022</tspan></text></g><g class="xtick"><text text-anchor="middle" x="0" y="433" style="font-family: 'Open Sans', verdana, arial, sans-serif; font-size: 12px; fill: rgb(42, 63, 95); fill-opacity: 1; white-space: pre; opacity: 1;" transform="translate(209.65,0)">Apr 10</text></g><g class="xtick"><text text-anchor="middle" x="0" y="433" style="font-family: 'Open Sans', verdana, arial, sans-serif; font-size: 12px; fill: rgb(42, 63, 95); fill-opacity: 1; white-space: pre; opacity: 1;" transform="translate(310.48,0)">Apr 17</text></g><g class="xtick"><text text-anchor="middle" x="0" y="433" style="font-family: 'Open Sans', verdana, arial, sans-serif; font-size: 12px; fill: rgb(42, 63, 95); fill-opacity: 1; white-space: pre; opacity: 1;" transform="translate(411.32,0)">Apr 24</text></g></g><g class="yaxislayer-above"><g class="ytick"><text text-anchor="end" x="79" y="4.199999999999999" transform="translate(0,387.52)" style="font-family: 'Open Sans', verdana, arial, sans-serif; font-size: 12px; fill: rgb(42, 63, 95); fill-opacity: 1; white-space: pre; opacity: 1;">−100</text></g><g class="ytick"><text text-anchor="end" x="79" y="4.199999999999999" style="font-family: 'Open Sans', verdana, arial, sans-serif; font-size: 12px; fill: rgb(42, 63, 95); fill-opacity: 1; white-space: pre; opacity: 1;" transform="translate(0,318.09000000000003)">−50</text></g><g class="ytick"><text text-anchor="end" x="79" y="4.199999999999999" style="font-family: 'Open Sans', verdana, arial, sans-serif; font-size: 12px; fill: rgb(42, 63, 95); fill-opacity: 1; white-space: pre; opacity: 1;" transform="translate(0,248.65)">0</text></g><g class="ytick"><text text-anchor="end" x="79" y="4.199999999999999" style="font-family: 'Open Sans', verdana, arial, sans-serif; font-size: 12px; fill: rgb(42, 63, 95); fill-opacity: 1; white-space: pre; opacity: 1;" transform="translate(0,179.20999999999998)">50</text></g><g class="ytick"><text text-anchor="end" x="79" y="4.199999999999999" style="font-family: 'Open Sans', verdana, arial, sans-serif; font-size: 12px; fill: rgb(42, 63, 95); fill-opacity: 1; white-space: pre; opacity: 1;" transform="translate(0,109.78)">100</text></g></g><g class="overaxes-above"/></g></g><g class="polarlayer"/><g class="smithlayer"/><g class="ternarylayer"/><g class="geolayer"/><g class="funnelarealayer"/><g class="pielayer"/><g class="iciclelayer"/><g class="treemaplayer"/><g class="sunburstlayer"/><g class="glimages"/><defs id="topdefs-73288f"><g class="clips"/><clipPath id="legend73288f"><rect width="167" height="67" x="0" y="0"/></clipPath></defs><g class="layer-above"><g class="imagelayer"/><g class="shapelayer"/></g><g class="infolayer"><g class="legend" pointer-events="all" transform="translate(520.64,100)"><rect class="bg" shape-rendering="crispEdges" width="167" height="67" x="0" y="0" style="stroke: rgb(68, 68, 68); stroke-opacity: 1; fill: rgb(255, 255, 255); fill-opacity: 1; stroke-width: 0px;"/><g class="scrollbox" transform="" clip-path="url(#legend73288f)"><g class="groups"><g class="traces" transform="translate(0,14.5)" style="opacity: 1;"><text class="legendtext" text-anchor="start" x="40" y="4.680000000000001" style="font-family: 'Open Sans', verdana, arial, sans-serif; font-size: 12px; fill: rgb(42, 63, 95); fill-opacity: 1; white-space: pre;">BESS</text><g class="layers" style="opacity: 0.5;"><g class="legendfill"/><g class="legendlines"><path class="js-line" d="M5,0h30" style="fill: none; stroke: rgb(0, 191, 255); stroke-opacity: 1; stroke-width: 2px;"/></g><g class="legendsymbols"><g class="legendpoints"/></g></g><rect class="legendtoggle" x="0" y="-9.5" width="161.890625" height="19" style="fill: rgb(0, 0, 0); fill-opacity: 0;"/></g><g class="traces" transform="translate(0,33.5)" style="opacity: 1;"><text class="legendtext" text-anchor="start" x="40" y="4.680000000000001" style="font-family: 'Open Sans', verdana, arial, sans-serif; font-size: 12px; fill: rgb(42, 63, 95); fill-opacity: 1; white-space: pre;">Solar</text><g class="layers" style="opacity: 0.5;"><g class="legendfill"/><g class="legendlines"><path class="js-line" d="M5,0h30" style="fill: none; stroke: rgb(255, 0, 0); stroke-opacity: 1; stroke-width: 2px;"/></g><g class="legendsymbols"><g class="legendpoints"/></g></g><rect class="legendtoggle" x="0" y="-9.5" width="161.890625" height="19" style="fill: rgb(0, 0, 0); fill-opacity: 0;"/></g><g class="traces" transform="translate(0,52.5)" style="opacity: 1;"><text class="legendtext" text-anchor="start" x="40" y="4.680000000000001" style="font-family: 'Open Sans', verdana, arial, sans-serif; font-size: 12px; fill: rgb(42, 63, 95); fill-opacity: 1; white-space: pre;">Grid Meter (Net Load)</text><g class="layers" style="opacity: 0.5;"><g class="legendfill"/><g class="legendlines"><path class="js-line" d="M5,0h30" style="fill: none; stroke: rgb(0, 128, 0); stroke-opacity: 1; stroke-width: 2px;"/></g><g class="legendsymbols"><g class="legendpoints"/></g></g><rect class="legendtoggle" x="0" y="-9.5" width="161.890625" height="19" style="fill: rgb(0, 0, 0); fill-opacity: 0;"/></g></g></g><rect class="scrollbar" rx="20" ry="3" width="0" height="0" x="0" y="0" style="fill: rgb(128, 139, 164); fill-opacity: 1;"/></g><g class="g-gtitle"><text class="gtitle" x="296" y="50" text-anchor="middle" dy="0em" style="font-family: 'Open Sans', verdana, arial, sans-serif; font-size: 17px; fill: rgb(42, 63, 95); opacity: 1; font-weight: normal; white-space: pre;"><tspan class="line" dy="0em" x="296" y="50">Scenario 4</tspan><tspan class="line" dy="1.3em" x="296" y="50">Microgrid Output</tspan><tspan class="line" dy="2.6em" x="296" y="50">From: April 01, 2022 to April 30, 2022</tspan></text></g><g class="g-xtitle"><text class="xtitle" x="296" y="477.409375" text-anchor="middle" style="font-family: 'Open Sans', verdana, arial, sans-serif; font-size: 14px; fill: rgb(42, 63, 95); opacity: 1; font-weight: normal; white-space: pre;">Time</text></g><g class="g-ytitle"><text class="ytitle" transform="rotate(-90,26.746875000000003,260)" x="26.746875000000003" y="260" text-anchor="middle" style="font-family: 'Open Sans', verdana, arial, sans-serif; font-size: 14px; fill: rgb(42, 63, 95); opacity: 1; font-weight: normal; white-space: pre;">Demand (kW)</text></g></g></svg>