<svg class="main-svg" xmlns="http://www.w3.org/2000/svg" xmlns:xlink="http://www.w3.org/1999/xlink" width="700" height="500" style="" viewBox="0 0 700 500"><rect x="0" y="0" width="700" height="500" style="fill: rgb(255, 255, 255); fill-opacity: 1;"/><defs id="defs-22bb26"><g class="clips"><clipPath id="clip22bb26xyplot" class="plotclip"><rect width="435" height="320"/></clipPath><clipPath class="axesclip" id="clip22bb26x"><rect x="80" y="0" width="435" height="500"/></clipPath><clipPath class="axesclip" id="clip22bb26y"><rect x="0" y="100" width="700" height="320"/></clipPath><clipPath class="axesclip" id="clip22bb26xy"><rect x="80" y="100" width="435" height="320"/></clipPath></g><g class="gradients"/><g class="patterns"/></defs><g class="bglayer"/><g class="layer-below"><g class="imagelayer"/><g class="shapelayer"/></g><g class="cartesianlayer"><g class="subplot xy"><g class="layer-subplot"><g class="shapelayer"/><g class="imagelayer"/></g><g class="gridlayer"><g class="x"><path class="xgrid crisp" transform="translate(109.01,0)" d="M0,100v320" style="stroke: rgb(255, 255, 255); stroke-opacity: 1; stroke-width: 1px;"/><path class="xgrid crisp" transform="translate(210.55,0)" d="M0,100v320" style="stroke: rgb(255, 255, 255); stroke-opacity: 1; stroke-width: 1px;"/><path class="xgrid crisp" transform="translate(312.08000000000004,0)" d="M0,100v320" style="stroke: rgb(255, 255, 255); stroke-opacity: 1; stroke-width: 1px;"/><path class="xgrid crisp" transform="translate(413.62,0)" d="M0,100v320" style="stroke: rgb(255, 255, 255); stroke-opacity: 1; stroke-width: 1px;"/></g><g class="y"><path class="ygrid crisp" transform="translate(0,399.24)" d="M80,0h435" style="stroke: rgb(255, 255, 255); stroke-opacity: 1; stroke-width: 1px;"/><path class="ygrid crisp" transform="translate(0,326.81)" d="M80,0h435" style="stroke: rgb(255, 255, 255); stroke-opacity: 1; stroke-width: 1px;"/><path class="ygrid crisp" transform="translate(0,181.94)" d="M80,0h435" style="stroke: rgb(255, 255, 255); stroke-opacity: 1; stroke-width: 1px;"/><path class="ygrid crisp" transform="translate(0,109.51)" d="M80,0h435" style="stroke: rgb(255, 255, 255); stroke-opacity: 1; stroke-width: 1px;"/></g></g><g class="zerolinelayer"><path class="yzl zl crisp" transform="translate(0,254.38)" d="M80,0h435" style="stroke: rgb(255, 255, 255); stroke-opacity: 1; stroke-width: 2px;"/></g><path class="xlines-below"/><path class="ylines-below"/><g class="overlines-below"/><g class="xaxislayer-below"/><g class="yaxislayer-below"/><g class="overaxes-below"/><g class="plot" transform="translate(80,100)" clip-path="url(#clip22bb26xyplot)"><g class="scatterlayer mlayer"><g class="trace scatter trace895d19" style="stroke-miterlimit: 2; opacity: 1;"><g class="fills"/><g class="errorbars"/><g class="lines"><path class="js-line" d="M0,154.38L1.51,154.38L1.66,155.74L1.81,154.72L1.96,170.41L2.87,154.38L3.02,154.38L3.63,128.62L3.78,241.27L3.93,155.93L4.08,177.44L4.68,158.66L4.84,155.45L5.44,140.01L5.59,141.09L5.74,118.94L5.89,146.14L6.35,109.07L6.5,128.77L6.65,118.39L6.8,117.06L7.1,117.5L7.25,147L7.55,151.65L7.86,142.49L8.01,147.37L8.46,77.9L8.76,79.65L8.91,135.69L9.07,90.66L9.52,139.25L9.67,100.84L9.82,140.99L9.97,115.38L10.27,154.38L10.43,154.38L10.58,154.38L11.03,154.38L11.18,159.52L11.33,164.64L11.48,156.62L11.79,158.74L11.94,158.08L12.39,155.41L12.54,159.21L12.69,155.59L12.84,158.23L13.45,155.18L13.75,156.52L13.9,155.81L14.05,157.42L14.35,154.38L14.51,154.38L14.66,154.38L15.11,154.65L15.26,155.5L16.17,154.38L16.32,154.38L18.13,154.38L18.28,211.42L18.43,127.75L19.04,152.75L19.19,158.77L19.64,147.24L19.79,193.09L19.94,116.86L20.55,150.55L20.7,153.42L21.15,141.08L21.46,145.85L21.61,148.51L22.21,105.46L22.36,112.43L22.51,146.44L22.66,134.22L22.97,154.38L23.12,154.38L23.27,154.38L26.14,154.38L26.29,156.68L26.59,154.38L27.2,154.71L27.35,154.38L27.8,155.94L28.1,154.38L28.25,154.68L28.56,155.15L29.16,154.46L29.31,154.63L29.61,154.97L29.92,154.38L30.07,155.38L30.97,154.38L31.13,154.38L31.28,155.38L31.88,154.38L32.03,154.38L32.49,154.38L32.64,211.7L32.79,128.12L33.39,151.23L33.54,154.42L34.6,140.73L34.75,144.56L34.9,187.35L35.36,189.44L35.96,118.48L36.11,146.6L36.72,129.27L36.87,148.78L37.02,131.83L37.17,212L37.62,124.32L38.08,160.68L38.23,141.56L39.13,155.29L39.28,156.11L39.44,160.59L39.59,155.84L39.74,218.21L40.34,154.38L40.64,154.98L40.8,155.23L41.1,154.38L41.25,157.06L41.85,154.38L42.16,154.84L42.31,154.58L43.06,154.51L43.21,155.05L44.12,154.38L44.27,154.38L47.59,154.38L47.75,159.65L47.9,214.4L48.05,132.66L48.5,178.99L48.65,157.68L48.8,153.34L48.95,154.38L49.11,208.08L50.16,92.02L50.31,119.3L50.77,90.51L51.07,92.55L51.22,118.62L51.37,98.01L51.67,106.05L51.83,144.15L52.73,154.38L52.88,154.38L54.24,154.38L54.39,159.14L54.7,155.92L55.3,163.22L55.45,156.28L55.6,154.38L55.75,156.8L56.06,154.49L56.21,156.64L56.81,154.38L57.11,154.79L57.26,155.12L57.72,156.21L58.17,154.47L58.32,154.38L59.83,154.38L59.98,154.38L60.14,154.38L60.29,162.63L61.19,154.38L61.34,154.38L62.1,154.38L62.25,159.26L62.7,154.65L62.86,199.88L63.01,107.93L63.61,114.55L63.76,139.56L63.91,103.35L64.22,154.38L64.37,154.38L64.52,154.38L69.2,154.38L69.35,161.76L69.5,156.22L69.65,163.53L70.11,157.04L70.26,157.27L70.56,157.8L70.71,155.08L70.86,161.08L71.32,157.77L71.47,155.03L72.07,154.69L72.22,157.97L72.37,155.26L72.53,154.38L72.83,155.73L72.98,156.25L73.28,154.53L73.58,154.62L73.73,165.47L74.64,154.38L74.79,155.01L75.09,155.42L75.4,154.38L75.55,212.56L75.7,127.74L76.3,204.1L76.45,178.06L77.36,154.38L77.51,146.03L77.96,120.96L78.12,135.32L78.27,119.92L78.42,138.89L78.87,121.45L79.02,125.05L79.17,114.47L79.32,160.16L80.08,88.65L80.23,137.95L80.99,154.38L81.14,154.38L83.56,154.38L83.71,155.18L84.46,168.26L84.61,166.03L84.76,168.44L85.82,155.22L85.97,155.84L86.27,155.37L86.43,156.83L86.58,154.95L86.73,154.63L86.88,156.27L87.18,154.38L87.79,154.64L87.94,154.44L88.24,154.98L88.39,211.33L88.54,129.4L89.15,156.45L89.3,155.12L90.35,154.38L90.51,154.38L90.81,154.38L90.96,210.79L91.11,134.05L91.71,149.81L91.87,152.66L92.47,142.28L92.62,187.76L92.92,210.07L93.07,63.67L93.38,77.13L93.53,219.43L93.98,88.88L94.28,95.06L94.43,173.61L94.89,86.49L95.19,96.3L95.34,139.2L95.49,106.71L96.1,111.74L96.25,144.03L96.55,202.49L96.85,200.56L97,165.92L97.15,203.46L97.61,165.27L97.76,181.77L97.91,161.11L98.06,181.01L98.51,158.33L98.66,164.49L98.82,157.32L98.97,162.78L99.57,162.04L99.72,156.2L99.87,162.56L100.33,155.81L100.48,158.27L100.63,156.7L101.23,155.73L101.38,159.2L101.54,155.54L101.69,158.46L102.14,155.05L102.29,155.54L102.44,157.4L102.74,157.73L103.05,154.38L103.35,154.54L103.5,156L103.65,154.78L103.8,211.49L103.95,128.13L104.56,154.25L104.71,158.9L104.86,155.85L105.01,163.76L105.46,157.17L105.61,162.85L105.77,214.17L105.92,136.25L106.37,171.93L106.52,159.54L107.43,184.15L107.58,176.34L107.73,176.42L108.03,174.05L108.18,181.31L108.33,170.6L108.64,169.72L109.09,188.89L109.24,176.08L109.69,202.35L110,199.29L110.15,185.25L110.6,198.75L110.75,180.94L110.9,194.8L111.05,174.52L111.96,154.38L112.11,154.38L252.63,154.38L252.78,94.81L253.23,140.72L253.54,140.43L253.69,93.37L254.59,152.82L254.74,96.93L255.05,93.91L255.2,138.78L255.5,138.18L255.65,101.17L256.1,142.35L256.26,90.28L256.41,137.37L256.56,129.29L256.86,118.22L257.46,154.55L257.62,154.38L258.37,165.89L258.82,163.11L258.98,159.29L259.13,163.61L259.43,155.47L259.58,212.95L260.03,131.14L260.49,167.08L260.64,158.67L260.79,154.48L261.09,162.4L261.24,156.3L261.39,162.76L261.54,156.47L261.7,163.91L262.15,157.21L262.3,161.61L263.21,154.38L263.36,154.38L263.66,154.88L263.81,161.73L264.11,162.42L264.57,154.38L264.72,211.29L264.87,128.75L265.02,239.22L265.47,148.46L265.62,151.83L265.77,192.13L266.08,126.62L266.23,146.45L266.38,115L266.53,144.59L266.98,101.6L267.13,115.71L267.29,102.35L267.74,139.44L267.89,93.61L268.04,138.11L268.19,98.33L268.34,136.19L268.49,98.28L268.95,134.85L269.1,108.46L269.4,101.01L270.01,134.09L270.16,124.33L270.31,134.19L270.61,111.23L270.76,114.56L270.91,105.21L271.37,147.17L271.82,141.91L271.97,151.26L272.12,154.38L272.27,210.92L272.57,216.5L272.72,138.12L273.03,151.47L273.18,174.7L273.93,156.73L274.08,166.02L274.39,154.38L274.99,154.62L275.14,154.64L275.29,154.44L275.44,155.83L276.2,154.38L276.35,154.62L276.5,154.44L276.96,155.05L277.11,154.55L277.26,154.38L277.41,154.9L277.71,154.38L277.86,162.67L278.01,156.45L278.16,219.69L278.32,130.25L278.92,157.17L279.07,154.86L280.13,154.38L280.28,154.38L280.43,154.38L280.58,152.66L280.73,146.79L280.88,191.01L281.19,120.38L281.79,145.68L281.94,138.33L282.09,147.44L282.24,138.66L282.39,110.1L282.7,142.31L283,127.05L283.15,111.64L283.45,164.57L283.75,96.87L283.91,126.47L284.06,108.54L284.36,92.91L284.81,129.96L284.96,101.42L285.27,98.09L286.02,163.11L286.17,124.44L287.08,154.38L287.23,155.6L287.99,154.46L288.14,154.68L288.89,162.99L289.04,156.53L289.35,156.15L289.5,161.6L289.65,158.16L289.8,154.87L290.71,154.38L290.86,154.38L292.97,154.38L293.12,161.47L293.42,161.97L293.88,154.38L294.03,157.66L294.18,155.2L294.33,166.11L294.48,157.31L294.63,202.32L295.09,116.93L295.39,119.1L295.54,139.44L296.3,101.16L296.45,113.79L296.6,95.55L296.75,119.91L296.9,97.45L297.05,174.28L297.2,70.71L297.35,214.57L297.81,98.09L297.96,140.01L298.11,95.35L298.56,166.58L298.71,123.51L298.86,121.54L299.02,106.52L299.17,143.88L299.32,154.38L301.43,154.38L301.58,156.31L302.04,159.54L302.34,157.05L302.49,154.9L302.64,155.63L302.94,154.38L303.09,154.93L303.25,154.52L303.85,155.6L304,154.68L304.15,154.38L305.81,154.38L305.97,156.16L306.87,154.38L307.02,154.38L307.33,154.38L307.48,162.48L307.63,156.4L307.78,219.41L308.69,154.38L308.84,158.18L309.14,163.26L309.44,154.08L309.59,154.38L309.74,198.71L310.5,93.65L310.65,138.22L310.8,91.64L311.25,143.45L311.41,154.38L315.64,154.38L315.79,206.39L316.09,155.51L316.69,158.67L316.84,155.39L317.75,154.38L317.9,154.38L322.43,154.38L322.59,161.17L323.34,154.38L323.49,195.66L324.7,96.11L324.85,114.24L325,90.66L325.31,154.38L325.46,154.38L330.59,154.38L330.75,160.47L331.35,155.4L331.65,155.47L331.8,157.13L332.26,213.8L332.41,130.19L332.56,186.35L332.71,143.71L332.86,172.41L333.46,161.71L333.62,156.21L334.07,162.68L334.22,156.44L334.37,154.38L334.82,154.38L334.98,161.57L335.28,162.1L335.88,154.38L336.03,154.38L336.18,154.38L336.34,161.76L337.09,154.38L337.24,161.23L337.7,154.83L337.85,209.2L338,112.52L338.15,226.58L338.6,117.91L338.75,131.42L339.51,86.43L339.66,125.62L339.81,84.41L340.26,159.45L340.42,117.56L340.57,153.39L340.72,70.62L341.02,154.38L341.17,154.38L341.32,154.38L344.95,154.38L345.1,166.5L345.85,156.72L346.01,167.01L346.91,154.79L347.06,155.03L347.67,154.38L347.82,156.67L348.73,154.38L348.88,155.49L349.78,154.38L349.93,154.38L351.44,154.38L351.6,211.14L351.75,136.27L352.35,150.77L352.5,152.39L352.65,151.48L352.8,142.08L353.11,133.38L353.26,139.74L353.41,127.2L353.56,127.06L353.71,113.85L354.62,154.38L354.77,154.38L358.85,154.38L359,168.43L359.15,157.89L359.3,184.64L359.45,164.85L359.6,183.12L360.51,161.57L360.66,219.83L361.27,155.05L361.57,155.38L361.72,154.38L361.87,156.96L362.47,154.54L362.63,154.42L362.78,155.22L363.38,154.51L363.53,154.38L363.68,155.3L364.14,154.58L364.29,154.38L365.04,154.38L365.19,155.67L366.1,154.38L366.25,154.38L367.01,154.38L367.16,191.51L367.76,126.68L368.07,142.62L368.22,151.9L368.67,103.32L369.12,117.12L369.27,133.42L369.43,101.12L369.58,190.32L369.73,141.87L369.88,207.12L370.03,70.12L370.63,108.23L370.78,157.21L371.84,110.11L371.99,144.73L372.75,154.38L372.9,154.38L373.81,154.38L373.96,155.34L374.11,154.74L374.26,159.51L374.71,155.49L374.86,157.67L375.02,163.1L375.17,217.59L375.47,159.44L375.62,162.39L375.77,159.07L375.92,162.47L376.38,156.19L376.53,154.97L376.83,156.34L377.13,154.38L377.28,155.61L378.19,154.38L378.34,154.38L378.64,154.67L378.79,155.91L379.7,154.38L379.85,154.44L380,210.96L380.15,130.56L380.61,169.61L380.76,155.09L381.06,154.85L381.21,154.38L381.36,159.14L381.66,152.58L381.81,140.27L381.97,150.96L382.27,125.04L382.42,130.12L382.57,125.14L382.72,172.91L382.87,89.14L383.48,147.35L383.63,151.05L383.78,92.58L384.23,126.55L384.38,151.15L385.14,154.38L385.29,154.38L388.31,154.38L388.46,157.75L388.77,166.42L389.07,163.23L389.22,159.49L389.52,157.12L389.67,172.53L389.82,158.87L389.97,161.68L390.43,159.23L390.73,159.56L390.88,160.42L391.18,160.83L391.94,154.38L392.09,154.38L393.15,154.38L393.3,161.44L393.9,161.49L394.2,154.38L394.36,154.38L394.66,154.6L394.81,210.71L394.96,129.1L395.56,161.51L395.72,168.42L396.77,136.33L396.92,144.93L397.38,112.26L397.53,145L397.68,150.87L397.98,146.68L398.13,124.11L398.28,119.36L398.44,160.46L398.59,157.34L398.74,104.52L398.89,141.93L399.04,99.47L399.49,141.65L399.64,115.32L400.55,183.47L400.7,161.65L401.61,136.93L401.76,150.01L402.51,154.38L402.67,154.38L403.12,154.38L403.27,155.82L403.72,154.38L403.87,155.22L404.03,210.65L404.48,130.3L404.78,141.31L404.93,172.19L405.08,153.04L405.69,154.38L405.84,154.38L405.99,156.01L406.59,154.38L406.75,154.52L407.65,154.38L407.8,211.66L407.95,127.87L408.56,155.23L408.71,156.91L409.47,154.38L409.62,162.05L410.07,156.19L410.22,156.25L410.37,163.07L411.43,118.5L411.58,126.05L411.73,93.86L412.03,87.79L412.49,160L412.64,68.73L413.54,154.38L413.7,154.38L417.62,154.38L417.78,160.01L418.68,154.83L418.83,156.46L419.14,154.38L419.74,154.56L419.89,154.38L420.04,155.94L420.65,155.57L420.8,154.68L421.4,155.15L421.7,154.38L421.85,156.27L422.46,154.38L422.61,161.62L422.91,162.63L423.52,154.38L423.67,154.38L424.12,154.38L424.27,210.99L425.18,154.38L425.33,133.89L425.48,149.25L425.63,122.48L425.78,129.93L425.93,107.49L426.84,154.38L426.99,154.38L432.13,154.38L432.28,156.82L432.43,158.87L432.58,155.35L432.88,155.62L433.04,154.46L433.19,158.91L433.64,154.88L433.79,154.43L434.24,154.38L434.7,156.25L434.85,154.84L435,154.38" style="vector-effect: non-scaling-stroke; fill: none; stroke: rgb(0, 191, 255); stroke-opacity: 1; stroke-width: 2px; opacity: 1;"/></g><g class="points"/><g class="text"/></g><g class="trace scatter tracef6b165" style="stroke-miterlimit: 2; opacity: 1;"><g class="fills"/><g class="errorbars"/><g class="lines"><path class="js-line" d="M0,154.54L3.93,154.11L4.08,152.14L5.29,99.62L5.44,91.42L6.8,16.14L6.95,16.23L7.1,16.2L9.22,16.28L9.37,16.41L9.67,25.74L9.82,35.02L11.94,154.56L12.09,154.55L18.43,154.33L18.58,153.4L19.34,122.26L19.49,115.83L20.1,111.93L20.25,118.01L21.15,92.44L21.3,93.8L21.46,96.66L22.06,60.3L22.21,29.49L22.51,27.73L22.66,29.98L22.82,20.69L23.27,16.1L23.42,18.99L23.57,28.94L23.72,16.32L24.18,23.24L24.33,43.49L26.29,154.56L26.44,154.55L26.59,154.54L33.09,153.93L33.24,151.95L35.96,70.53L36.11,86.32L36.26,91.87L36.72,79.22L36.87,90.88L37.02,94.17L37.17,105.95L37.62,93.21L37.77,104.87L37.92,104.86L38.08,99.93L38.38,110.06L38.53,113.9L40.8,154.54L40.95,154.55L47.59,154.21L47.75,153.66L48.65,138.63L48.8,119.16L48.95,122.03L49.26,114.64L49.41,99.1L50.16,16.1L50.62,16.22L50.77,16.26L52.88,16.34L53.03,17.54L53.94,85.29L54.09,101.64L55,152.55L55.15,154.46L56.66,154.55L56.81,154.55L61.8,154.46L61.95,153.49L62.7,122.77L62.86,110.63L64.37,16.12L64.82,16.15L64.97,16.25L67.39,16.47L67.54,18.31L68.9,118.51L69.05,130.52L70.11,154.56L70.26,154.55L76.3,154.45L76.45,153.49L77.21,122.12L77.36,109.89L78.87,16.19L79.17,16.35L79.32,16.38L81.89,16.48L82.04,17.25L82.65,52.26L82.8,64.01L84.31,154.56L84.61,154.55L84.76,154.55L90.81,154.35L90.96,153.07L91.71,122.36L91.87,109.22L93.38,16.28L93.68,16.35L93.83,16.4L96.1,16.71L96.25,21.64L97.3,154.38L97.46,154.38L252.33,154.38L252.48,148.86L253.38,18.38L253.54,26.34L254.44,16.26L254.59,16.36L255.5,16.49L255.65,17.79L256.1,17.02L256.41,28.07L256.56,62.88L256.86,49.17L257.01,73.22L258.22,154.47L258.37,154.54L264.11,154.55L264.26,154.55L264.87,154.07L265.02,151.59L266.23,76.61L266.38,64.45L267.29,16.1L267.59,16.16L267.74,16.22L270.76,16.62L270.91,20.12L273.18,154.56L273.33,154.55L279.37,154.35L279.52,153.61L280.58,117.8L280.73,109.33L281.19,70.92L281.34,96.06L281.64,107.42L281.94,92.57L282.09,84.32L282.39,36.12L282.55,51.27L282.7,76.73L283.75,16.62L283.91,21.69L284.06,30.37L284.21,16.08L284.51,16.09L284.66,16.11L285.11,16.11L285.27,16.96L286.02,68.12L286.17,81.45L287.68,154.56L287.83,154.55L293.73,154.31L293.88,153.04L294.78,108.6L294.94,97.37L296.3,16L296.6,16.05L296.75,16.09L299.77,16.82L299.92,21.05L302.19,154.56L302.34,154.55L302.49,154.54L308.23,154.34L308.38,153.31L309.74,110.54L309.89,49.76L310.05,48.27L310.2,57.24L310.35,87.92L310.65,43.32L310.8,46.4L310.95,51.78L311.56,69.5L311.71,58.46L311.86,63.43L312.46,34.86L312.61,35.7L312.76,52.17L313.22,25.79L313.67,100.28L313.82,100.36L314.73,121.2L314.88,115.52L315.03,110.88L315.18,113.19L315.33,138.19L316.39,154.51L316.54,154.55L322.74,154.36L322.89,153.54L323.49,130.38L323.64,116.84L325.15,16.14L325.46,16.15L325.61,16.19L327.72,16.47L327.87,16.39L328.78,16.54L328.93,17.79L329.99,101.22L330.14,115.89L331.2,154.55L331.35,154.55L337.24,154.06L337.39,151.74L338.3,105.47L338.45,92.81L339.66,16.08L339.96,16.21L340.11,16.17L343.29,16.54L343.44,18.88L345.85,154.56L346.01,154.56L351.75,154.02L351.9,151.71L352.65,115.78L352.8,102.74L354.16,16.06L354.62,16.17L354.77,16.21L357.64,16.47L357.79,16.91L358.24,38.45L358.4,52.41L360.21,154.56L360.36,154.56L366.25,153.87L366.4,150.54L367.61,98.34L367.76,74.61L368.07,78.66L368.37,39.84L368.52,30.56L368.67,25.56L368.82,33.08L368.97,53.39L369.43,17.18L369.73,51.35L369.88,70.48L370.48,21.32L370.63,28.12L370.78,50.7L370.94,50.53L371.09,30.98L371.54,35.35L371.84,16.22L371.99,16.27L372.14,16.36L372.45,33.48L372.75,26.47L372.9,44.97L374.71,154.56L374.86,154.56L380.76,153.91L380.91,151.19L381.51,123.68L381.66,104.65L383.48,16.15L383.63,16.18L385.44,16.36L385.59,16.31L386.8,16.82L386.95,20.55L389.22,154.56L389.37,154.55L389.52,154.54L395.41,154.34L395.56,153.77L396.47,133.41L396.62,111.26L397.23,45.28L397.53,71.11L397.68,96.96L397.98,79.64L398.13,49.85L398.28,16.67L398.89,40.78L399.04,41.07L399.19,35.08L399.34,45.34L399.49,57.85L399.64,60.36L399.8,50.27L399.95,42.03L400.1,67.7L400.25,80.1L400.4,67.24L400.7,83.53L400.85,102.45L401,107.48L401.15,97.97L401.31,84.44L401.76,110.45L401.91,117.72L402.36,96.36L402.51,105.46L402.67,119.36L403.57,154.56L403.72,154.55L403.87,154.54L409.92,153.88L410.07,151.59L411.28,92.52L411.43,55.24L412.49,16.01L412.64,16.07L415.81,16.87L415.96,20.34L418.38,154.56L418.53,154.55L424.12,154.45L424.27,153.34L425.48,105.94L425.63,88.46L426.69,16.06L426.84,16.11L426.99,16.14L429.86,16.4L430.01,16.86L430.62,27.62L430.77,38.21L432.88,154.55L433.04,154.55L435,154.54" style="vector-effect: non-scaling-stroke; fill: none; stroke: rgb(255, 0, 0); stroke-opacity: 1; stroke-width: 2px; opacity: 1;"/></g><g class="points"/><g class="text"/></g><g class="trace scatter tracebfe425" style="stroke-miterlimit: 2; opacity: 1;"><g class="fills"/><g class="errorbars"/><g class="lines"><path class="js-line" d="M0,175.37L0.15,174.47L0.76,175.29L0.91,174.88L1.21,174.48L1.66,175.76L1.81,190.63L2.42,191.69L2.72,174.88L2.87,174.47L3.48,133.02L3.63,258.6L3.78,160.45L3.93,195.69L4.53,179.07L4.68,175.87L5.89,129.21L6.04,148.4L6.5,112.72L6.8,115.57L6.95,117.64L7.1,166.06L7.71,143.42L7.86,143.73L8.31,82.37L8.61,86.83L8.76,145.35L9.52,96.26L9.67,141.73L9.82,107.48L9.97,145.73L10.43,130.42L10.58,146.03L11.48,182.74L11.79,181.46L11.94,179.39L12.09,179.5L12.24,177.67L12.54,177.23L12.69,180.33L12.99,179.76L13.15,178.27L13.45,178.93L13.6,177.27L13.75,179.38L14.81,174.63L14.96,175.13L15.11,176.42L15.41,174.97L15.56,175.84L15.71,174.7L16.32,175.65L16.47,174.81L16.62,175.22L17.68,174.86L17.83,175.27L17.98,174.91L18.13,232.95L18.28,132.35L18.89,156.86L19.04,179.38L19.49,148.19L19.64,210.32L19.79,121.22L20.4,164.18L20.55,155.02L20.7,156.8L20.85,152.48L21,145.66L21.3,142.08L21.46,151.08L21.61,135.3L21.76,144.04L21.91,127.43L22.06,131.05L22.21,111.77L22.36,155.11L22.66,89.95L22.82,54.3L22.97,51.33L23.12,109.96L23.42,146.08L23.57,100.13L23.72,70.61L26.29,176.33L26.44,176.07L27.35,175.26L27.5,175.99L27.95,174.91L28.41,175.16L28.56,176.19L29.16,175.04L29.31,175.93L30.22,174.92L30.37,175.69L30.82,175.86L30.97,174.94L31.13,176.1L31.58,175.87L31.73,174.95L32.33,175.6L32.49,232.71L32.64,132.49L33.24,158.2L33.39,174L33.85,174.47L34.45,142.77L34.6,145.89L34.75,199.72L35.2,210.23L35.81,123.15L35.96,147.3L36.26,149.49L36.87,132.12L37.02,218.29L37.47,129.46L37.77,138.21L37.92,182.03L38.08,143.31L38.68,154.85L38.83,159.61L39.28,178.51L39.44,177.81L39.59,235.76L40.04,170.5L40.49,175.92L40.64,174.59L41.1,176.01L41.25,175.99L41.4,174.56L42.31,176.02L42.46,175.45L42.76,175.88L42.91,175.04L43.06,176.29L43.67,174.9L44.12,175.35L44.27,175.66L44.42,174.79L44.87,175.36L45.03,175.91L45.93,174.75L46.08,175.39L46.99,174.9L47.14,175.19L47.44,174.6L47.59,176.61L47.75,235.55L47.9,137.86L48.35,197.01L48.5,162.8L48.8,155.8L48.95,224.87L49.11,188.31L49.26,162.98L50.31,92.46L50.62,92.84L50.77,115.49L51.22,94.15L51.37,118.1L51.52,98.31L51.67,114.2L52.13,59.06L52.28,109.45L52.43,130.17L52.58,128.87L52.73,131.44L52.88,134.36L53.19,133.52L53.49,146.98L53.64,102.64L53.79,97.95L53.94,115.43L54.09,140.35L55,183.21L55.15,182.27L55.3,174.08L55.9,175.39L56.06,176.64L56.36,174.88L56.66,175.09L56.81,176.36L57.42,174.96L57.57,175.92L57.72,175.94L57.87,174.8L58.17,174.74L58.47,175.97L58.78,175.88L58.93,174.71L59.23,175.87L59.83,175.64L59.98,175.81L60.14,183.34L60.59,178.03L60.74,175.09L61.04,175.35L61.65,174.78L61.8,174.8L61.95,173.82L62.1,179.58L62.4,180.26L62.55,175.15L62.7,224.77L62.86,119.18L63.46,125.27L63.61,145.85L64.22,60.25L64.37,110.65L64.52,124.56L64.82,51.86L65.12,130.13L65.42,64.3L65.57,81.87L65.73,71.36L66.33,76L66.48,87.11L66.78,95.79L67.09,74.72L67.24,80.27L67.39,83.36L67.54,79.47L67.69,81.91L67.84,92.11L67.99,94.76L68.14,113.54L68.29,114.37L68.45,123.8L70.11,181.43L70.26,178.27L70.41,179.36L70.71,177.22L70.86,176.42L71.01,175.8L71.17,177.47L71.32,178.67L71.47,176.3L72.07,176.98L72.22,176.47L72.37,175.34L72.83,177.5L72.98,176.96L73.13,175.54L73.43,176.11L73.58,184.18L74.34,174.96L74.49,175.22L74.64,175.47L74.94,176.64L75.24,176.3L75.4,233.25L75.55,132.57L76.15,225.23L76.3,200.77L77.21,162.97L77.36,156.32L78.12,127.77L78.27,142.24L79.02,112.63L79.17,174.15L80.38,79.15L80.53,89.55L80.68,90.15L80.84,87.09L80.99,91.92L81.14,90.96L81.29,149.09L81.44,166.8L81.59,95.43L81.74,86.37L81.89,143.6L82.04,144.01L82.2,87.79L82.35,76.73L82.65,100.6L82.8,111.12L84.31,190.68L84.46,190.04L84.76,187.49L84.91,189.51L85.07,184.5L85.22,187.69L85.37,179.86L85.52,177.9L85.67,176.75L85.82,178.28L86.27,177.83L86.43,176.91L87.18,175.42L87.33,176.38L87.48,176.37L87.94,175.03L88.09,176.34L88.24,234.31L88.39,133.05L88.99,160.7L89.15,172.74L89.6,175.9L90.05,175.33L90.2,174.84L90.35,175.54L90.51,174.62L90.66,175.47L90.81,232.59L90.96,140.11L91.56,160.73L91.71,161.74L92.32,144.81L92.47,204.53L92.77,231.87L92.92,73.33L93.23,80.38L93.38,238.9L93.83,93.58L94.13,98.69L94.28,196.99L94.74,91.47L95.04,105.17L95.19,149.3L95.34,105.37L95.94,111.53L96.1,146.74L96.25,117.39L96.55,186.68L96.7,223.6L97.46,185.58L97.61,210.72L98.36,180.47L98.51,189.08L98.97,178.9L99.27,179.33L99.42,183.08L100.18,176.83L100.33,178.17L100.48,177.38L100.63,180.2L101.23,179.34L101.38,176.98L101.69,176.8L101.84,178.39L102.59,175.66L102.74,176.24L102.9,175.2L103.2,175.83L103.35,174.93L103.5,175.88L103.65,232.22L103.8,132.45L104.25,188.09L104.41,159.33L105.16,183L105.31,178.14L105.46,183.81L105.61,230.36L105.77,140.77L106.22,191.22L106.37,169.6L107.28,209.32L107.43,198.81L107.58,203.97L107.88,192.28L108.03,201.51L108.18,188.92L109.24,216.53L109.39,209.33L109.54,220.32L110.15,219.01L110.3,199.77L110.45,217.95L111.05,212.29L111.21,216.59L111.36,217.6L111.51,212.61L111.66,216.85L112.11,212.11L112.26,208.77L112.57,202.07L112.72,256.86L112.87,272.15L113.02,266.92L113.17,206.03L114.23,181.63L114.38,183.05L114.53,183.87L114.68,180.47L114.83,182.52L114.98,177.78L115.13,179.16L115.28,177.98L115.44,181.16L115.89,178.14L116.04,176.61L116.19,179.34L116.64,178.68L116.8,175.35L117.1,188.14L117.55,176.19L117.7,176.62L118,175.02L118.31,175.22L118.46,177.54L118.76,174.35L119.21,176.57L119.36,175.15L119.52,175.24L119.67,177.32L119.82,174.7L120.27,177.16L120.42,177.7L120.57,235.45L121.18,187.62L121.33,183.24L121.48,251.12L122.08,195.22L122.24,198.51L122.39,190.37L122.69,212L122.84,223.17L122.99,220.55L123.14,270.17L123.29,288.17L123.44,237.24L123.59,221.85L123.75,219.25L123.9,279.94L124.05,303.82L124.35,246.04L124.5,242.69L124.8,251.12L124.95,235.71L125.71,201.61L126.16,211.18L126.31,207.41L126.62,203.43L126.77,205.96L126.92,191.27L127.22,257.61L127.52,183.25L127.67,183.25L127.98,254.24L128.43,191.85L128.58,189.42L128.88,191.11L129.03,188.6L129.19,189.99L129.34,187.49L129.79,176.87L130.24,177.4L130.39,176.31L130.7,178.08L130.85,175.32L131.15,177.49L131.3,175.77L131.75,178.38L131.91,175.33L132.06,175.35L132.21,177.55L132.66,175.57L132.81,174.85L132.96,177.19L133.42,175.47L133.57,174.73L133.87,183.54L134.02,186.67L134.32,174.93L134.62,184.88L134.78,187.88L134.93,187.6L135.08,187.77L135.23,189.32L135.68,180.59L135.83,185.08L135.98,186.7L136.59,201.57L136.89,198.36L137.04,191.11L137.5,188.62L137.8,260.57L137.95,209.63L138.1,201.74L138.7,205.35L138.86,209.87L139.16,194.7L139.31,258.23L139.46,272.37L139.61,222.97L139.76,211.72L139.91,201.22L140.06,258.96L140.22,269.55L140.37,206.3L140.82,185.85L141.12,190.34L141.27,195.85L141.42,193.19L141.58,251.65L141.73,263.06L141.88,204.9L142.63,176.84L142.78,176.94L142.94,179.83L143.84,174.84L143.99,176.45L144.14,177.51L144.29,174.91L144.45,176.22L144.6,174.97L144.9,174.88L145.5,177.94L145.65,175.13L146.11,174.82L146.26,176.4L146.41,176.25L146.56,175.63L147.17,174.64L147.32,175.98L147.47,176.61L147.62,174.92L147.77,175.79L147.92,232.42L148.37,174.24L148.83,177.41L148.98,175.85L150.34,214.36L150.49,208.41L151.09,282.93L151.25,239.18L151.4,220.91L151.55,211.92L151.7,267.39L152.45,195.07L152.61,197.8L152.76,208.14L152.91,210.33L153.06,202.9L153.21,206.07L153.36,203.86L153.66,207.28L153.81,208.72L153.96,211.54L154.12,210.44L154.27,199.55L155.32,183.1L155.48,183.12L155.63,181.2L156.23,178.63L156.38,236.53L156.53,250.57L156.68,191.57L157.44,175.34L157.59,175.66L157.74,176.08L157.89,176.14L158.04,177.25L158.2,174.75L158.8,176.5L158.95,175.14L159.1,177.42L159.4,174.67L159.56,174.66L159.71,175.15L159.86,176.64L160.31,175.96L160.46,233.06L161.22,174.73L161.37,175.25L161.52,174.54L162.12,175.29L162.28,174.63L162.43,174.85L162.58,174.87L162.73,183.25L162.88,185.63L163.33,185.22L163.48,177.12L163.63,176.07L163.79,181.36L164.39,192.23L164.69,191.87L164.84,191.73L165.15,195.8L165.6,193.07L165.75,268.84L165.9,281.77L166.05,222.4L166.51,187.56L166.66,188.89L166.81,252.83L166.96,273.77L167.11,217.89L167.41,270.17L167.56,210.97L167.87,192.49L168.32,199.01L168.47,199.11L168.77,197.81L169.07,201.32L169.23,193.11L169.53,207.59L170.13,201.83L170.28,203.65L171.95,174.78L172.1,176.11L172.25,174.54L172.7,175.93L172.85,176.16L173.46,174.6L173.61,175.57L173.76,175.02L174.21,174.27L174.51,174.7L174.66,175.13L175.57,174.46L175.72,174.88L175.87,232.56L176.78,174.26L176.93,182.73L177.54,194.83L177.69,186.61L178.44,205.95L178.74,201.41L178.9,203.16L179.35,201.7L179.5,203.41L179.65,206.43L179.95,202L180.1,202.3L180.26,260.62L180.41,266.08L180.56,204.49L180.71,189.91L180.86,248.03L181.01,262.69L181.46,184.51L181.77,190.18L181.92,195.76L182.82,239.64L183.13,224.91L183.28,223.94L184.49,192.55L184.64,194.88L186,175.19L186.3,175.25L186.45,177.11L186.75,175.14L187.05,175.19L187.21,177.57L188.11,174.6L188.26,174.85L188.72,175.45L188.87,174.61L189.02,174.81L189.17,174.8L189.47,175.79L189.77,175.1L189.93,174.74L190.38,174.62L190.53,183.18L190.83,185.18L190.98,176.8L191.89,174.16L192.04,174.29L192.34,174.04L192.49,174.28L192.65,175.96L192.8,185.55L192.95,243.34L193.25,260.52L193.4,206.53L193.7,187.02L194,192.36L194.16,207.18L194.76,221.19L194.91,198.81L195.06,190.82L195.52,194.79L195.67,203.19L196.42,210.47L196.57,204.03L197.48,220.21L197.63,215.8L197.78,209.5L197.93,212.8L198.08,200.62L198.24,193.97L198.69,183.85L198.99,188.48L199.14,199.01L199.75,214.5L200.05,210.58L200.2,201.47L200.65,175.46L201.26,177.06L201.41,176.68L201.86,175.1L202.01,176.37L202.16,183.2L202.47,188L202.92,185.29L203.07,186.2L203.22,185.27L203.37,185.47L203.52,177.72L203.67,174.57L204.28,176.09L204.43,174.62L204.58,175.44L204.73,174.44L205.19,174.7L205.34,174.8L205.64,185.27L206.09,174.95L206.24,174.77L207,175.04L207.15,176.31L207.91,196.87L208.06,256.56L208.36,201.78L208.96,213.09L209.11,196.11L209.57,194.7L209.87,201.39L210.02,261.25L210.32,209.05L210.63,278.49L210.93,211.25L211.08,208.68L211.38,282.05L211.53,304L211.68,303.81L211.83,237.93L212.74,211.37L212.89,215.49L213.04,215.71L213.19,207.74L213.95,195.55L214.1,249.59L214.25,257.47L214.86,250.46L215.01,193.84L215.16,186.67L215.76,188.85L215.91,186.79L216.06,186.91L216.22,189.14L216.52,186.48L216.67,178L217.12,174.97L217.58,175.15L217.73,176.45L217.88,176.58L218.03,175.86L218.18,175.63L218.48,176.12L218.78,174.76L219.09,175.38L219.24,176.65L219.39,174.72L219.99,175.5L220.14,174.83L220.3,175.33L220.75,174.9L220.9,174.71L221.66,175.17L221.81,177.56L221.96,177.64L222.11,179.75L222.71,284.35L222.86,235.62L223.01,223.52L223.17,214.11L223.32,262.66L223.47,274.04L223.62,216.45L224.22,177.39L224.37,235.99L224.53,251.21L224.68,195.05L224.83,179.7L224.98,178.32L225.28,181.86L225.43,179.94L225.58,181.65L225.89,188.66L226.19,187.28L226.34,180.01L226.64,189.59L226.79,187.73L226.94,245.14L227.09,256.29L227.25,199.95L227.4,182.55L228,193.48L228.15,194.6L229.51,176.12L229.66,187.35L229.81,185.14L230.42,187.09L230.57,185.94L230.72,186.92L230.87,178.12L231.63,174.71L231.78,175.85L231.93,177.11L232.84,174.8L232.99,175.93L233.29,176.85L233.59,174.35L233.89,174.64L234.04,175.91L234.95,174.42L235.1,174.91L235.25,175.24L235.4,175.13L235.56,243.19L235.71,258.1L235.86,199.95L236.01,177.52L236.46,196.1L236.61,256.64L236.76,271.43L236.92,204.69L237.37,187.76L237.67,188.65L237.82,191.03L237.97,181.34L238.12,236.68L238.28,253.1L238.43,199.36L238.58,183.49L239.48,293.97L239.64,302.62L240.24,201.95L240.54,202.02L240.69,198.79L240.84,193.09L241,201.87L241.3,199.41L241.45,205.32L242.05,220.51L242.2,217.14L242.35,213.45L244.02,180.32L244.17,184.17L244.77,176.95L244.92,178.57L245.07,179.34L245.98,176.74L246.13,175.52L246.59,177.66L246.74,176.35L246.89,175.17L247.04,176.71L247.19,175.13L247.64,175.56L247.79,176.31L247.95,174.92L248.25,175.82L248.4,183.19L248.7,185.47L248.85,178.03L249.46,174.93L249.76,175.05L249.91,174.88L250.06,175.24L250.21,174.87L250.36,233.21L250.51,255.76L250.82,192.23L250.97,188.11L251.57,286.42L251.72,232.91L251.87,209.18L252.18,212.08L252.33,204.92L252.48,200.29L252.93,94.58L253.54,101.21L253.69,154.21L254.14,98.99L254.29,140.37L254.44,162.3L254.9,94.71L255.2,96.03L255.35,138.99L256.1,96.44L256.26,138.14L256.41,98.54L256.56,145.98L257.01,123.42L257.16,153.36L258.07,185.37L258.37,182.93L258.52,186.45L259.28,176.38L259.43,233.47L259.73,234.85L259.88,135.04L260.34,186.66L260.49,162.65L260.94,184.72L261.54,184.69L261.7,178.38L261.85,184.61L262,178.13L262.15,183.52L262.3,170.44L262.6,175.89L263.21,174.57L263.36,174.75L263.51,174.98L263.66,184.34L264.26,174.87L264.41,175.54L264.57,232.78L264.72,132.54L264.87,258.7L265.32,154.15L265.47,166.75L265.62,210.95L265.93,137.87L266.08,147.22L266.23,123.91L266.38,150.62L266.83,106.38L266.98,119.96L267.59,136.64L267.74,98.36L267.89,137.96L268.19,138.61L268.34,91.17L268.65,98.74L268.8,133.07L269.1,134.55L269.25,99.59L269.55,127.49L269.7,135.43L270.76,107.99L270.91,125L271.06,113.51L271.21,142.68L271.37,134.17L271.52,147.73L271.67,132.61L271.82,152.4L271.97,151.6L272.12,223.26L272.42,232.9L272.57,142.13L272.88,155.88L273.03,196L273.18,168.4L273.78,178.45L273.93,185.93L274.08,169.77L274.69,175.96L274.84,175.94L274.99,174.93L275.44,176.27L275.6,176.08L275.75,175.11L276.35,175.93L276.5,175.29L276.96,176.15L277.26,175.37L277.41,175.87L277.56,174.58L277.71,183.67L277.86,178L278.01,241.3L278.16,134.51L278.77,160.33L278.92,173.36L279.37,175.4L279.52,174.25L279.68,172.6L279.83,172.76L279.98,170.01L280.58,152.4L280.73,208.73L281.04,130.32L281.64,150.36L281.79,149.21L281.94,149.88L282.09,139.43L282.24,145.75L282.39,131.7L282.55,119.15L283,113.95L283.15,188.08L283.45,182.49L283.6,97.09L284.06,127.02L284.21,96.82L284.36,117.25L284.51,102.14L285.11,99.66L285.42,157.82L285.57,147.08L285.72,157.28L285.87,171.26L286.02,122.16L286.17,155.79L286.32,139.08L287.38,177.12L287.53,176.35L287.68,176.64L287.83,176.45L287.99,174.94L288.14,184.36L288.74,183.41L288.89,178.01L289.19,177.88L289.35,183.21L289.5,178.34L289.65,175.12L289.8,174.57L290.1,175.8L290.25,174.99L290.4,175.9L291.31,174.82L291.46,175.2L292.52,174.99L292.67,175.13L292.82,174.7L292.97,182.95L293.27,183.37L293.73,174.82L293.88,181.57L294.03,176.32L294.18,184.81L294.33,178.38L294.48,231.37L294.63,128.35L295.24,131.1L295.39,144.24L296.14,98.91L296.3,113.42L296.45,100.05L296.75,97.44L296.9,187.38L297.05,74.88L297.2,230.8L297.81,143.75L297.96,90.34L298.41,185.75L298.71,115.09L298.86,110.1L299.02,119.24L299.17,76.03L299.62,56.57L299.92,61.6L300.07,74.49L301.89,181.32L302.04,180.81L302.19,180.4L302.79,174.68L303.09,176.06L303.25,175.79L303.4,175.85L303.55,174.54L304.45,176.11L304.61,176.07L304.91,176.18L305.06,175.11L305.21,175.96L305.81,175.25L305.97,175.91L306.12,174.2L306.72,175.36L306.87,174.68L307.17,175.11L307.33,183.09L307.48,177.93L307.63,240.95L308.53,170.01L308.69,174.45L308.99,183.91L309.14,167.8L309.29,164.38L309.44,171.23L309.59,221.61L310.65,92.12L310.8,138.72L311.1,140.52L311.41,85.95L311.56,101.98L311.71,96.93L311.86,121.31L312.01,90.8L312.31,110.54L312.46,83.46L312.92,119.57L313.07,69.33L313.37,85.4L313.52,131.28L314.12,163.22L314.43,155.83L314.58,153.91L314.73,156.08L314.88,153.01L315.03,147.99L315.18,147.75L315.33,165.07L315.48,170.41L315.64,228.72L315.94,171.65L316.54,178.02L316.69,177.24L317.6,174.73L317.75,174.87L317.9,175.66L318.36,174.46L318.66,175.07L318.81,174.8L319.11,174.6L319.26,175.08L319.41,175.6L320.17,174.85L320.32,174.97L321.38,174.41L321.53,174.83L322.13,174.51L322.28,174.66L322.43,182.53L322.74,182.79L323.19,166.2L323.34,220.24L324.55,103.16L324.7,120.01L325.46,52.6L325.76,54.12L325.91,53.22L326.67,64.22L327.12,62.57L327.27,59.65L327.42,64.89L327.87,54.46L328.03,57.76L329.39,98.92L329.54,108.35L330.9,180.22L331.05,177.79L331.5,177.2L331.65,180.11L331.8,234.89L332.1,235.56L332.26,135.77L332.71,190.57L332.86,169.7L333.01,185.25L333.62,183.28L333.77,177.93L333.92,183.44L334.07,169.91L334.37,175.07L334.52,175.73L334.67,174.85L334.82,183.97L335.43,174.63L335.73,174.91L335.88,174.92L336.03,174.99L336.18,182.97L336.49,183.16L336.94,174.48L337.09,183.27L337.54,175.81L337.7,231.14L337.85,122.11L338,251.28L338.45,127.67L338.6,142.31L339.36,93L339.51,122.7L339.81,125.58L339.96,85.37L340.11,177.68L341.02,67.33L341.17,54.71L341.32,53.85L341.47,57.7L341.77,57.4L341.93,66L342.08,73.2L342.23,72.15L342.38,81.67L342.68,154.76L343.13,85.17L343.29,64.36L343.89,95.24L344.04,107.06L345.25,188.44L345.55,184.82L345.7,180.67L345.85,186L346.01,170.1L346.31,176.2L346.46,175.3L346.76,176.85L347.21,176.58L347.37,175.71L347.67,175.15L347.82,175.93L347.97,174.15L348.88,176.15L349.03,175.61L349.33,175.85L349.48,174.66L349.93,175.01L350.09,175.44L350.99,174.59L351.14,174.85L351.29,174.47L351.44,232.7L351.6,140.68L352.2,154.13L352.35,169.18L354.16,84.3L354.32,141.51L354.77,158.48L354.92,98.55L355.22,103.92L355.37,100.32L355.52,97.24L355.83,82.56L356.28,90.48L356.43,89.71L356.58,88.34L356.73,95.05L357.94,70.6L358.09,83.91L359.45,200.05L359.76,197.08L359.91,188.07L360.21,184.79L360.36,185.24L360.51,241.56L361.42,176.31L361.57,175.25L361.72,176.24L362.02,174.71L362.32,175.79L362.47,176.04L363.08,175.06L363.23,176.04L363.83,174.77L363.99,176.08L364.59,174.62L364.89,175.41L365.04,175.13L365.19,175.89L365.35,174.42L365.65,174.84L365.8,174.9L365.95,175.18L366.1,174.64L366.25,174.89L366.4,170.66L366.71,162.65L366.86,164.91L367.01,218.39L367.91,135.29L368.07,146.3L368.22,146.6L368.37,144.62L368.52,107.73L369.43,197.63L369.58,133.37L369.73,209.12L370.18,90.61L370.33,172.01L370.48,119.87L370.63,164.27L371.24,132.34L371.39,117.57L371.54,129.88L371.84,124.26L371.99,98.65L372.3,69.29L372.75,71.2L372.9,92.52L373.81,160.7L373.96,176.37L374.86,185.18L375.02,239.32L375.92,180.56L376.07,183.84L376.22,171.21L376.83,176.03L376.98,174.77L377.89,176.22L378.04,175.9L378.19,174.67L378.64,176.49L378.79,176.2L379.25,174.45L379.55,175.24L379.7,174.93L379.85,233.78L380,132.9L380.46,186.19L380.61,160.42L381.21,181.19L381.36,168.48L381.51,164.82L382.27,125.87L382.42,132.71L382.57,194.88L382.72,98.39L383.33,141.99L383.48,154.19L384.38,69.57L384.53,71.76L384.69,68.79L384.84,124.05L384.99,140.65L385.14,80.63L385.29,58.45L385.44,55.48L385.89,60.34L386.05,58.2L386.2,70.37L386.35,80.18L386.5,79.11L386.65,142.68L387.1,161.61L387.25,110.46L387.41,99.19L387.71,119.74L387.86,131.05L388.92,187.05L389.22,184.88L389.37,180.67L389.52,192.84L389.67,173.08L390.13,183.7L390.28,180.77L391.03,181.83L391.18,171.23L391.48,176.2L392.09,174.89L392.24,175.01L392.54,174.7L392.69,176.21L392.84,175.96L393,174.68L393.45,183.28L393.75,182.51L393.9,170.42L394.51,175.72L394.66,233.76L394.81,132.66L395.41,170.4L395.56,187.66L397.23,113.37L397.38,130.63L397.53,131.74L398.28,177L398.44,153.64L399.19,96.69L399.34,142.79L399.95,80.9L400.1,118.6L400.25,140.26L400.4,188.07L401,158.66L401.15,151.85L401.31,151.79L401.46,138.36L401.61,152.69L402.06,127.45L402.21,148.33L402.36,133.08L403.42,176.65L403.72,176.19L403.87,233.87L404.33,133.33L404.78,188.49L404.93,158.69L405.08,176.47L405.69,175.76L405.84,175.51L406.14,174.79L406.75,175.95L406.9,175.24L407.05,175.95L407.2,175.16L407.5,175.8L407.65,232.77L407.8,132.43L408.41,159L408.56,174.77L408.71,172.5L409.01,175.22L409.16,174.84L409.31,174.94L410.22,184.89L410.37,170.07L411.43,134.49L411.58,104.63L411.88,91.38L412.34,175.27L412.49,70.46L412.64,151.1L413.24,124.33L413.39,147.49L413.54,148.29L413.7,143.54L414,54.57L414.6,61.7L414.75,68.47L415.51,79.39L415.66,77.27L415.96,70.16L416.11,74.75L416.26,86.34L417.17,148.96L417.32,160.07L417.93,179.04L418.23,178.07L418.38,176.92L418.53,177.55L418.68,176.07L418.98,176.41L419.14,176.14L419.44,176.49L419.59,175.89L419.74,174.51L420.19,174.41L420.65,176.04L420.8,174.93L420.95,174.79L421.1,175.84L421.4,175.94L421.55,174.7L421.7,175.35L421.85,175.89L422.01,174.19L422.31,174.62L422.46,183.07L422.76,183.42L422.91,169.64L423.37,175.48L423.52,174.55L423.67,175.43L423.97,175.03L424.12,232.7L425.03,162.71L425.18,144.17L425.33,149.9L425.48,134.73L425.63,142.96L425.78,116.09L425.93,141.76L426.24,93.26L426.39,82.42L426.99,59.11L427.29,158.12L427.45,165.69L428.2,77.24L428.35,81.67L428.5,86.8L429.11,98.78L429.26,93.42L429.41,83.53L429.56,90.58L429.71,71.9L430.01,78.45L430.16,80.69L430.62,71.08L430.77,83.19L430.92,91.37L432.58,179.28L432.73,177.08L432.88,178.82L433.34,176.08L433.49,176.43L433.64,177.01L434.09,176.8L434.24,175.84L434.55,175.52L434.7,175.97L434.85,174.46L435,175.51" style="vector-effect: non-scaling-stroke; fill: none; stroke: rgb(0, 128, 0); stroke-opacity: 1; stroke-width: 2px; opacity: 1;"/></g><g class="points"/><g class="text"/></g></g></g><g class="overplot"/><path class="xlines-above crisp" d="M0,0" style="fill: none;"/><path class="ylines-above crisp" d="M0,0" style="fill: none;"/><g class="overlines-above"/><g class="xaxislayer-above"><g class="xtick"><text text-anchor="middle" x="0" y="433" transform="translate(109.01,0)" style="font-family: 'Open Sans', verdana, arial, sans-serif; font-size: 12px; fill: rgb(42, 63, 95); fill-opacity: 1; white-space: pre; opacity: 1;"><tspan class="line" dy="0em" x="0" y="433">Apr 3</tspan><tspan class="line" dy="1.3em" x="0" y="433">2022</tspan></text></g><g class="xtick"><text text-anchor="middle" x="0" y="433" style="font-family: 'Open Sans', verdana, arial, sans-serif; font-size: 12px; fill: rgb(42, 63, 95); fill-opacity: 1; white-space: pre; opacity: 1;" transform="translate(210.55,0)">Apr 10</text></g><g class="xtick"><text text-anchor="middle" x="0" y="433" style="font-family: 'Open Sans', verdana, arial, sans-serif; font-size: 12px; fill: rgb(42, 63, 95); fill-opacity: 1; white-space: pre; opacity: 1;" transform="translate(312.08000000000004,0)">Apr 17</text></g><g class="xtick"><text text-anchor="middle" x="0" y="433" style="font-family: 'Open Sans', verdana, arial, sans-serif; font-size: 12px; fill: rgb(42, 63, 95); fill-opacity: 1; white-space: pre; opacity: 1;" transform="translate(413.62,0)">Apr 24</text></g></g><g class="yaxislayer-above"><g class="ytick"><text text-anchor="end" x="79" y="4.199999999999999" transform="translate(0,399.24)" style="font-family: 'Open Sans', verdana, arial, sans-serif; font-size: 12px; fill: rgb(42, 63, 95); fill-opacity: 1; white-space: pre; opacity: 1;">−100</text></g><g class="ytick"><text text-anchor="end" x="79" y="4.199999999999999" style="font-family: 'Open Sans', verdana, arial, sans-serif; font-size: 12px; fill: rgb(42, 63, 95); fill-opacity: 1; white-space: pre; opacity: 1;" transform="translate(0,326.81)">−50</text></g><g class="ytick"><text text-anchor="end" x="79" y="4.199999999999999" style="font-family: 'Open Sans', verdana, arial, sans-serif; font-size: 12px; fill: rgb(42, 63, 95); fill-opacity: 1; white-space: pre; opacity: 1;" transform="translate(0,254.38)">0</text></g><g class="ytick"><text text-anchor="end" x="79" y="4.199999999999999" style="font-family: 'Open Sans', verdana, arial, sans-serif; font-size: 12px; fill: rgb(42, 63, 95); fill-opacity: 1; white-space: pre; opacity: 1;" transform="translate(0,181.94)">50</text></g><g class="ytick"><text text-anchor="end" x="79" y="4.199999999999999" style="font-family: 'Open Sans', verdana, arial, sans-serif; font-size: 12px; fill: rgb(42, 63, 95); fill-opacity: 1; white-space: pre; opacity: 1;" transform="translate(0,109.51)">100</text></g></g><g class="overaxes-above"/></g></g><g class="polarlayer"/><g class="smithlayer"/><g class="ternarylayer"/><g class="geolayer"/><g class="funnelarealayer"/><g class="pielayer"/><g class="iciclelayer"/><g class="treemaplayer"/><g class="sunburstlayer"/><g class="glimages"/><defs id="topdefs-22bb26"><g class="clips"/><clipPath id="legend22bb26"><rect width="164" height="67" x="0" y="0"/></clipPath></defs><g class="layer-above"><g class="imagelayer"/><g class="shapelayer"/></g><g class="infolayer"><g class="legend" pointer-events="all" transform="translate(523.7,100)"><rect class="bg" shape-rendering="crispEdges" width="164" height="67" x="0" y="0" style="stroke: rgb(68, 68, 68); stroke-opacity: 1; fill: rgb(255, 255, 255); fill-opacity: 1; stroke-width: 0px;"/><g class="scrollbox" transform="" clip-path="url(#legend22bb26)"><g class="groups"><g class="traces" transform="translate(0,14.5)" style="opacity: 1;"><text class="legendtext" text-anchor="start" x="40" y="4.680000000000001" style="font-family: 'Open Sans', verdana, arial, sans-serif; font-size: 12px; fill: rgb(42, 63, 95); fill-opacity: 1; white-space: pre;">BESS</text><g class="layers" style="opacity: 1;"><g class="legendfill"/><g class="legendlines"><path class="js-line" d="M5,0h30" style="fill: none; stroke: rgb(0, 191, 255); stroke-opacity: 1; stroke-width: 2px;"/></g><g class="legendsymbols"><g class="legendpoints"/></g></g><rect class="legendtoggle" x="0" y="-9.5" width="158.71875" height="19" style="fill: rgb(0, 0, 0); fill-opacity: 0;"/></g><g class="traces" transform="translate(0,33.5)" style="opacity: 1;"><text class="legendtext" text-anchor="start" x="40" y="4.680000000000001" style="font-family: 'Open Sans', verdana, arial, sans-serif; font-size: 12px; fill: rgb(42, 63, 95); fill-opacity: 1; white-space: pre;">Solar</text><g class="layers" style="opacity: 1;"><g class="legendfill"/><g class="legendlines"><path class="js-line" d="M5,0h30" style="fill: none; stroke: rgb(255, 0, 0); stroke-opacity: 1; stroke-width: 2px;"/></g><g class="legendsymbols"><g class="legendpoints"/></g></g><rect class="legendtoggle" x="0" y="-9.5" width="158.71875" height="19" style="fill: rgb(0, 0, 0); fill-opacity: 0;"/></g><g class="traces" transform="translate(0,52.5)" style="opacity: 1;"><text class="legendtext" text-anchor="start" x="40" y="4.680000000000001" style="font-family: 'Open Sans', verdana, arial, sans-serif; font-size: 12px; fill: rgb(42, 63, 95); fill-opacity: 1; white-space: pre;">Grid Meter (Net Load)</text><g class="layers" style="opacity: 1;"><g class="legendfill"/><g class="legendlines"><path class="js-line" d="M5,0h30" style="fill: none; stroke: rgb(0, 128, 0); stroke-opacity: 1; stroke-width: 2px;"/></g><g class="legendsymbols"><g class="legendpoints"/></g></g><rect class="legendtoggle" x="0" y="-9.5" width="158.71875" height="19" style="fill: rgb(0, 0, 0); fill-opacity: 0;"/></g></g></g><rect class="scrollbar" rx="20" ry="3" width="0" height="0" x="0" y="0" style="fill: rgb(128, 139, 164); fill-opacity: 1;"/></g><g class="g-gtitle"><text class="gtitle" x="297.5" y="50" text-anchor="middle" dy="0em" style="font-family: 'Open Sans', verdana, arial, sans-serif; font-size: 17px; fill: rgb(42, 63, 95); opacity: 1; font-weight: normal; white-space: pre;"><tspan class="line" dy="0em" x="297.5" y="50">Scenario 3</tspan><tspan class="line" dy="1.3em" x="297.5" y="50">Microgrid Output</tspan><tspan class="line" dy="2.6em" x="297.5" y="50">From: April 01, 2022 to April 30, 2022</tspan></text></g><g class="g-xtitle"><text class="xtitle" x="297.5" y="476.409375" text-anchor="middle" style="font-family: 'Open Sans', verdana, arial, sans-serif; font-size: 14px; fill: rgb(42, 63, 95); opacity: 1; font-weight: normal; white-space: pre;">Time</text></g><g class="g-ytitle"><text class="ytitle" transform="rotate(-90,26.168750000000003,260)" x="26.168750000000003" y="260" text-anchor="middle" style="font-family: 'Open Sans', verdana, arial, sans-serif; font-size: 14px; fill: rgb(42, 63, 95); opacity: 1; font-weight: normal; white-space: pre;">Demand (kW)</text></g></g></svg>