<svg class="main-svg" xmlns="http://www.w3.org/2000/svg" xmlns:xlink="http://www.w3.org/1999/xlink" width="700" height="500" style="" viewBox="0 0 700 500"><rect x="0" y="0" width="700" height="500" style="fill: rgb(255, 255, 255); fill-opacity: 1;"/><defs id="defs-07e6ab"><g class="clips"><clipPath id="clip07e6abxyplot" class="plotclip"><rect width="432" height="320"/></clipPath><clipPath class="axesclip" id="clip07e6abx"><rect x="80" y="0" width="432" height="500"/></clipPath><clipPath class="axesclip" id="clip07e6aby"><rect x="0" y="100" width="700" height="320"/></clipPath><clipPath class="axesclip" id="clip07e6abxy"><rect x="80" y="100" width="432" height="320"/></clipPath></g><g class="gradients"/><g class="patterns"/></defs><g class="bglayer"/><g class="layer-below"><g class="imagelayer"/><g class="shapelayer"/></g><g class="cartesianlayer"><g class="subplot xy"><g class="layer-subplot"><g class="shapelayer"/><g class="imagelayer"/></g><g class="gridlayer"><g class="x"><path class="xgrid crisp" transform="translate(177.57999999999998,0)" d="M0,100v320" style="stroke: rgb(255, 255, 255); stroke-opacity: 1; stroke-width: 1px;"/><path class="xgrid crisp" transform="translate(275.15999999999997,0)" d="M0,100v320" style="stroke: rgb(255, 255, 255); stroke-opacity: 1; stroke-width: 1px;"/><path class="xgrid crisp" transform="translate(372.74,0)" d="M0,100v320" style="stroke: rgb(255, 255, 255); stroke-opacity: 1; stroke-width: 1px;"/><path class="xgrid crisp" transform="translate(470.32,0)" d="M0,100v320" style="stroke: rgb(255, 255, 255); stroke-opacity: 1; stroke-width: 1px;"/></g><g class="y"><path class="ygrid crisp" transform="translate(0,398.06)" d="M80,0h432" style="stroke: rgb(255, 255, 255); stroke-opacity: 1; stroke-width: 1px;"/><path class="ygrid crisp" transform="translate(0,361.8)" d="M80,0h432" style="stroke: rgb(255, 255, 255); stroke-opacity: 1; stroke-width: 1px;"/><path class="ygrid crisp" transform="translate(0,325.53999999999996)" d="M80,0h432" style="stroke: rgb(255, 255, 255); stroke-opacity: 1; stroke-width: 1px;"/><path class="ygrid crisp" transform="translate(0,253.03)" d="M80,0h432" style="stroke: rgb(255, 255, 255); stroke-opacity: 1; stroke-width: 1px;"/><path class="ygrid crisp" transform="translate(0,216.76999999999998)" d="M80,0h432" style="stroke: rgb(255, 255, 255); stroke-opacity: 1; stroke-width: 1px;"/><path class="ygrid crisp" transform="translate(0,180.51999999999998)" d="M80,0h432" style="stroke: rgb(255, 255, 255); stroke-opacity: 1; stroke-width: 1px;"/><path class="ygrid crisp" transform="translate(0,144.26)" d="M80,0h432" style="stroke: rgb(255, 255, 255); stroke-opacity: 1; stroke-width: 1px;"/><path class="ygrid crisp" transform="translate(0,108)" d="M80,0h432" style="stroke: rgb(255, 255, 255); stroke-opacity: 1; stroke-width: 1px;"/></g></g><g class="zerolinelayer"><path class="yzl zl crisp" transform="translate(0,289.28999999999996)" d="M80,0h432" style="stroke: rgb(255, 255, 255); stroke-opacity: 1; stroke-width: 2px;"/></g><path class="xlines-below"/><path class="ylines-below"/><g class="overlines-below"/><g class="xaxislayer-below"/><g class="yaxislayer-below"/><g class="overaxes-below"/><g class="plot" transform="translate(80,100)" clip-path="url(#clip07e6abxyplot)"><g class="scatterlayer mlayer"><g class="trace scatter traceff3608" style="stroke-miterlimit: 2; opacity: 0.5;"><g class="fills"/><g class="errorbars"/><g class="lines"><path class="js-line" d="M0,189.29L432,189.29" style="vector-effect: non-scaling-stroke; fill: none; stroke: rgb(0, 191, 255); stroke-opacity: 1; stroke-width: 2px; opacity: 1;"/></g><g class="points"/><g class="text"/></g><g class="trace scatter tracef4c0ff" style="stroke-miterlimit: 2; opacity: 0.5;"><g class="fills"/><g class="errorbars"/><g class="lines"><path class="js-line" d="M0,189.5L3.34,189.41L3.49,188.46L4.21,154.79L4.36,139.32L5.81,16.14L6.24,16.25L6.39,16.24L8.71,16.58L8.86,16.53L9.29,17.05L9.44,21.27L11.76,189.51L11.91,189.5L17.43,188.73L17.57,186.27L18.15,171.19L18.3,162.71L20.04,16L20.62,16.24L20.77,16.23L23.09,16.61L23.23,17.8L24.1,94.12L24.25,109.9L25.7,189.51L25.85,189.5L31.66,188.95L31.8,187.67L32.38,166.99L32.53,146.75L32.96,67.3L33.11,189.29L34.12,189.29L34.27,160.69L34.41,16.26L35.14,16.35L35.29,16.38L37.03,16.48L37.17,17.82L38.05,95.89L38.19,112.06L39.64,189.51L39.79,189.5L45.16,189.22L45.31,187.79L46.18,133.48L46.32,121.45L47.63,16.18L48.06,16.34L48.21,16.41L50.39,16.77L50.53,45.11L50.82,16.73L51.4,189.29L51.55,189.29L52.86,189L53,187.85L53.87,189.5L54.02,189.49L59.1,189.18L59.25,187.59L60.12,151.16L60.26,189.29L62.15,189.29L62.3,160.93L62.88,16.5L63.17,16.67L63.31,16.67L65.05,16.72L65.2,18.79L66.22,129.77L66.36,151.79L67.52,189.51L67.67,189.51L68.97,189.5L69.12,189.5L73.04,189.04L73.19,187.11L73.48,182.66L73.62,189.29L73.77,189.29L73.91,189.29L75.94,189.29L76.09,161.02L76.24,16.47L76.96,16.66L77.11,44.96L77.98,189.29L78.12,189.29L86.98,189.31L87.13,188.21L87.71,166.04L87.85,152.45L89.45,16.14L89.89,16.26L90.03,16.31L91.05,16.2L91.19,44.53L91.34,161.09L91.63,16.27L91.77,16.31L91.92,16.37L92.93,16.74L93.08,19.45L95.55,189.51L95.69,189.5L101.21,189.01L101.36,187.59L103.39,129.42L103.53,106.5L103.83,129.95L103.97,64.75L104.12,30.79L104.84,79.23L104.99,162.12L105.13,23.44L105.71,53.51L105.86,62.95L106,31.58L106.29,86.37L106.44,82.44L106.58,89.6L106.73,38.13L107.31,72.69L107.46,57.16L107.75,174.99L108.33,151.03L108.47,166.18L109.34,189.52L109.49,189.48L109.63,189.29L114.86,189.22L115.01,188.25L115.59,158.29L115.73,126.12L115.88,125.82L116.02,137.92L116.31,125.69L116.46,82.46L117.33,26.86L117.47,44.52L117.62,43.19L117.77,54.52L118.06,38.06L118.2,44.57L118.35,85.49L119.07,24.09L119.22,32.11L119.36,26.99L119.51,71.55L119.8,19.73L120.09,47.29L120.23,16.25L121.54,69.48L121.69,86.13L123.28,189.51L123.43,189.5L123.57,189.5L128.8,189.23L128.95,187.91L129.67,146.17L129.82,131.08L131.12,16.16L131.56,16.26L131.71,44.18L132.58,189.29L132.72,189.29L133.45,189.29L133.59,161.38L133.74,16.31L134.46,22.09L134.61,51.65L134.75,54.34L134.9,24.86L135.34,51.28L135.48,111.08L135.63,108.29L135.77,76.17L137.08,189.52L137.37,189.51L137.51,189.5L142.74,189.05L142.89,187.01L143.61,146.43L143.76,130.77L144.77,29.85L144.92,47.6L145.06,161.45L145.21,16.27L145.94,16.33L146.08,16.41L148.55,16.57L148.7,44.3L148.99,23.57L149.57,189.29L149.71,189.29L156.68,189.01L156.83,187.23L157.41,162.13L157.55,145.52L159.01,16.35L159.44,16.5L159.59,16.58L159.73,16.65L159.88,44.38L160.75,189.29L160.89,189.29L162.2,189.29L162.34,161.67L162.64,16.88L163.07,39.83L163.22,53.42L165.1,189.51L165.25,189.48L165.39,189.32L166.41,189.29L166.56,189.29L297.54,189.29L297.68,182.13L298.55,16.11L298.84,16.17L298.99,16.23L300,16.31L300.15,16.31L301.89,16.45L302.04,16.99L302.47,43.47L302.62,56.39L304.65,189.51L304.8,189.5L309.88,189.34L310.02,188.25L310.89,137.68L311.04,127.79L312.78,16.19L313.07,16.3L313.22,16.36L314.96,16.6L315.11,25.52L316.12,189.29L316.27,189.29L325.42,189.39L325.56,186.81L326.72,16.52L326.87,16.51L328.03,16.79L328.17,29.22L328.47,189.29L328.76,127.37L328.9,16.07L329.34,16.09L329.48,25.03L330.5,189.29L330.64,189.29L339.79,189.3L339.94,167.02L340.23,20.74L340.66,101.57L340.81,101.54L344.58,101.62L344.73,101.87L345.02,118.18L345.16,132.53L346.33,189.51L346.47,189.5L346.62,189.5L351.7,189.25L351.84,187.9L352.72,145.17L352.86,132.57L353.73,101.6L353.88,101.61L354.02,101.59L354.75,101.54L354.89,92.87L355.18,16.55L355.76,16.66L355.91,16.75L356.35,16.96L356.49,36.29L357.36,189.29L357.51,189.29L422.71,189.29L422.85,180.33L424.01,16.29L424.16,16.41L426.63,16.8L426.77,16.83L427.35,16.84L427.5,17.75L428.37,85.96L428.51,101.03L430.11,189.51L430.26,189.5L432,189.5" style="vector-effect: non-scaling-stroke; fill: none; stroke: rgb(255, 0, 0); stroke-opacity: 1; stroke-width: 2px; opacity: 1;"/></g><g class="points"/><g class="text"/></g><g class="trace scatter tracece8309" style="stroke-miterlimit: 2; opacity: 0.5;"><g class="fills"/><g class="errorbars"/><g class="lines"><path class="js-line" d="M0,215.9L0.15,215.22L0.29,218.52L1.16,214.82L1.31,216.14L1.89,214.2L2.18,214.32L2.32,215.26L2.47,216.36L2.9,214.52L3.05,214.71L3.19,215.62L3.34,214.59L3.49,214.6L3.63,209.56L3.78,215.98L4.07,208.73L4.21,186.94L5.23,84.21L5.37,72.36L5.66,52.93L6.1,67.81L6.24,71.16L6.53,67.26L7.55,94.02L7.7,88.75L7.84,83.27L8.13,95.37L8.42,91.59L8.57,80.45L9,87.94L9.15,77.32L9.29,64.87L11.47,222.23L11.76,217.41L11.91,221.87L13.07,193.41L13.21,214.46L13.5,217.68L14.09,216.49L14.23,214.96L14.38,218.47L14.96,214.71L15.1,216.43L15.25,217.47L15.39,214.87L15.54,216.13L15.68,214.51L15.97,214.43L16.26,216.59L16.55,216.43L16.7,214.79L16.99,225.8L17.43,215.31L17.57,212.43L18.3,203.54L18.44,190.65L19.89,117.58L20.04,115.46L20.91,77.73L21.2,89.77L21.35,95.62L21.49,96.43L21.64,93.22L21.78,101.15L22.51,82.09L22.94,86.74L23.09,93.76L24.1,149.6L24.25,170L24.4,161.64L24.54,189.52L24.69,204.25L25.7,235.35L25.85,230.46L26.57,215.79L26.72,216.71L26.86,218.23L27.01,214.62L27.3,218.39L27.59,218.37L27.74,215.18L28.46,214.88L28.61,217L28.75,216.86L29.48,214.58L29.62,215.8L29.77,215.24L29.91,216.78L30.2,214.44L30.35,215.07L30.49,214.84L30.78,193.66L30.93,214.91L31.22,216.78L31.51,215.49L31.66,214.5L31.8,214.77L31.95,212.76L32.09,211.93L32.24,217.37L32.53,189.22L32.67,163.08L32.82,152.87L32.96,80.35L33.83,202.34L33.98,202.34L34.12,212.78L34.27,194.07L34.41,78.06L35.14,100.78L35.29,97.13L35.43,86.86L35.87,93.14L36.3,91.14L36.45,92.75L36.74,108.53L37.32,106.94L37.46,111.12L38.77,228.03L39.06,226.95L39.21,228.1L40.08,221.52L40.22,226.09L41.09,220.02L41.24,220.98L41.38,223.59L41.53,218.11L41.68,194.35L42.11,221.9L42.4,219.35L42.55,215.34L42.84,216.41L42.98,215.04L43.13,216.78L43.27,214.88L43.71,215.09L43.85,216.18L44.72,214.64L44.87,215.86L45.31,214.04L45.45,208.25L46.18,173.36L46.32,163.23L46.47,161.28L46.61,143.28L46.76,143.02L46.9,132.53L47.48,86.09L48.06,92.29L48.21,92.55L48.35,90.22L48.65,95.4L48.79,105.75L49.08,124.01L49.37,116.25L49.52,104.52L50.24,77.53L50.39,81.97L50.53,102.05L50.82,91.09L51.4,189.29L51.55,199.73L52.42,202.34L52.57,191.9L52.71,189.29L52.86,195.03L53,226L53.15,233.44L53.58,224.68L53.73,222.44L53.87,225.8L54.16,224.6L54.31,218.23L54.6,193.82L54.74,217.61L54.89,220.8L55.33,215.66L55.47,221.67L55.76,216.05L55.91,218.51L56.49,215.6L56.63,220.04L56.78,215.09L57.21,225.16L57.36,228.74L57.5,230.94L57.65,218.15L58.52,211.44L58.66,193.61L58.96,217.25L59.39,207.98L59.54,204.46L60.12,183.93L60.55,189.29L60.7,189.29L61.71,215.39L61.86,215.39L62.3,176.44L62.44,103.32L62.73,88.4L63.02,113.99L63.17,135.71L63.31,123.72L63.75,144.27L63.89,138.53L64.18,131.46L64.47,154.6L64.62,144.27L64.76,140.7L65.2,115.52L65.49,122.19L65.63,129.7L66.94,249.85L67.23,230.16L67.38,227.13L67.52,226.57L67.67,229.09L67.96,194.63L68.25,223.73L68.39,222.53L68.83,223.3L69.7,212.7L69.85,189.46L70.86,189.29L71.01,189.29L72.02,189.29L72.17,193.48L72.46,216.05L72.9,210.55L73.04,193.08L73.33,218.71L73.77,202.34L73.91,191.9L74.78,189.29L74.93,189.29L75.22,189.29L75.36,210.17L75.8,215.39L75.94,194.51L77.11,44.96L77.25,189.29L78.56,189.29L78.7,199.73L79.87,215.39L80.01,215.39L81.03,189.29L81.17,189.29L86.11,189.29L86.25,203.87L86.69,238.23L87.13,226.76L87.27,214.48L87.42,217.47L87.71,208.35L87.85,196.63L89.3,76.21L89.45,66.48L89.74,78.86L89.89,90.92L90.32,82.91L90.47,98.11L90.61,96.38L90.76,93.4L91.19,124.38L91.34,197.31L92.21,79.3L92.35,89.75L92.93,70.42L93.08,71.04L93.22,85.13L93.81,138.3L93.95,154.9L94.39,186.64L94.53,206.91L95.26,225.68L95.4,222.15L95.55,221.05L95.98,224.24L96.13,214.98L96.27,218.09L96.42,223.17L97.29,215.26L97.44,219.19L97.58,221.16L97.87,216.41L98.02,215.69L98.6,215.04L98.74,227.31L98.89,222.17L99.03,216.48L99.47,215.26L99.61,217.97L99.9,216.77L100.05,215.69L100.19,215.49L100.34,216.91L101.07,217.04L101.21,214.58L101.36,214.91L101.65,209.9L101.79,210.56L101.94,229.18L103.39,184.79L103.53,163.95L103.68,154.43L103.83,188.35L103.97,123.08L104.7,89.65L104.84,132.04L104.99,183.52L105.13,71.96L105.42,90.13L105.57,98.66L105.71,110.47L106,73.32L106.15,82.64L106.58,134.13L106.73,76.85L106.87,121.31L107.02,105.92L107.75,194.58L108.04,178.75L108.18,183.04L108.91,232.19L109.2,219.55L109.34,217.62L110.36,189.29L110.5,199.73L111.09,206.44L111.23,227.73L111.52,230.64L111.81,229.51L111.96,219.59L112.83,215.06L112.97,225.53L113.41,229.87L113.55,218.17L113.99,215.32L114.14,216.4L114.28,225.4L114.43,229.3L115.01,226.74L115.15,212.43L115.59,206.36L115.73,179.07L115.88,179.14L116.02,191.29L116.6,103.7L117.04,133.78L117.18,160.66L117.33,97.25L117.91,107.16L118.06,108.74L118.35,178.67L118.64,143.53L118.78,112.25L119.36,100.48L119.51,143.56L119.65,126.64L119.8,87.67L120.52,130.47L120.67,116.83L120.81,117.03L121.11,107.18L121.25,94.06L122.56,211.68L122.7,219.98L122.85,226.04L123.28,215.79L123.43,218.05L123.86,214.86L124.3,215.69L124.45,215.7L124.59,217.06L124.74,215.04L125.17,215.49L125.32,216.46L125.61,201.91L125.75,215.03L125.9,215.5L126.33,216.35L126.77,216.15L126.91,214.94L127.78,216.02L127.93,215.13L128.51,215.12L128.66,214.6L128.8,214.74L128.95,213L129.96,159.37L130.11,148.2L131.27,62.56L131.56,62.67L131.71,81.74L132.58,236.27L132.72,231.05L133.3,218L133.45,225.83L133.59,200.25L134.17,92.55L134.46,98.67L134.61,128.44L134.9,82.3L135.19,97.29L135.34,100.15L136.21,169.32L136.35,196.32L136.79,230.84L137.22,218.34L137.37,215.23L137.66,215.05L138.09,220.69L138.39,219.4L138.53,221.47L138.97,222.13L139.69,216.18L139.84,210.73L139.98,193.41L140.42,216.07L140.56,215.16L140.71,215.43L140.85,215.22L141,225.71L141.14,228.85L141.73,228.04L141.87,227.95L142.16,228.82L142.31,217.84L143.61,187L143.76,171.06L144.77,85.35L144.92,96.6L145.06,182.1L145.21,64.93L145.79,95.15L145.94,103.52L146.08,101.79L146.23,84.74L146.52,85.94L147.24,64.15L147.39,73.42L147.53,77.6L147.68,74.88L147.97,82.66L148.11,88.75L148.4,91.71L148.55,78.03L148.84,170.73L148.99,75.02L149.42,121.17L149.57,189.29L150.44,202.34L150.58,202.34L151.02,202.34L151.16,191.9L151.45,189.29L151.6,195.45L151.74,227.58L152.33,215.06L152.76,215.76L152.91,217.75L153.78,215.34L153.92,216.28L154.79,215.29L154.94,215.31L155.37,215.34L155.52,215.15L155.67,225.73L155.81,228.29L156.1,228.11L156.25,215.06L156.39,212.55L156.54,227.72L156.83,238.87L157.12,225.12L157.26,212.55L159.01,87.05L159.15,99.26L159.3,112.05L159.44,113.18L159.73,109.81L159.88,134.06L160.02,241.5L160.6,204.95L160.75,202.34L161.04,191.9L161.47,202.34L161.62,202.34L161.91,202.34L162.05,212.78L162.2,225.83L162.34,201.49L162.49,112.91L162.78,111.14L162.93,115.38L163.07,132.12L164.81,244.79L165.25,238.58L165.39,207.54L165.54,229.64L165.68,202.34L165.98,202.34L166.12,202.34L166.27,202.34L166.41,191.9L167.28,189.29L167.43,189.29L168.01,189.29L168.15,193.39L168.44,216.13L169.02,215.15L169.17,215.94L169.46,210.63L169.61,189.29L170.33,189.29L170.48,199.73L170.62,212.78L171.06,189.29L171.2,189.29L171.49,189.29L171.64,199.73L172.22,202.34L172.36,191.9L172.8,189.29L172.95,210.17L173.53,228.44L173.67,218L173.82,215.39L174.11,202.34L174.54,215.39L174.69,215.39L175.56,228.44L175.7,228.44L176.58,189.29L176.72,199.73L176.87,212.78L177.74,228.44L177.88,218L178.9,189.29L179.04,189.29L184.42,189.29L184.56,199.73L184.85,212.78L185,204.95L185.14,202.34L185.29,202.34L185.43,191.9L186.3,189.29L186.45,189.29L187.18,189.29L187.32,199.73L188.77,215.39L188.92,204.95L189.79,202.34L189.93,202.34L190.52,202.34L190.66,191.9L191.53,189.29L191.68,189.29L191.97,189.29L192.11,199.73L192.98,202.34L193.13,202.34L193.42,189.29L193.86,202.34L194,202.34L194.58,202.34L194.73,191.9L195.6,189.29L195.74,189.29L196.18,189.29L196.32,199.73L196.76,202.34L196.9,191.9L197.34,189.29L197.49,199.73L197.92,215.39L198.07,204.95L198.21,191.9L198.5,189.29L198.65,199.73L199.08,202.34L199.23,191.9L199.37,189.29L199.52,199.73L199.66,202.34L199.95,202.34L200.1,191.9L200.39,189.29L200.54,199.73L201.41,212.78L201.55,225.83L201.7,228.44L201.84,218L201.99,215.39L202.71,189.29L202.86,199.73L203,202.34L203.15,202.34L203.29,212.78L203.73,228.44L204.02,215.39L204.17,215.39L205.47,189.29L205.62,189.29L210.99,189.29L211.14,199.73L211.57,202.34L211.72,191.9L212.59,189.29L212.73,189.29L213.6,189.29L213.75,199.73L214.18,215.39L214.48,202.34L214.62,202.34L215.35,202.34L215.49,212.78L216.51,228.44L216.65,218L217.52,202.34L217.67,191.9L218.11,189.29L218.25,199.73L219.41,215.39L219.56,215.39L220.43,202.34L220.57,202.34L221.45,189.29L221.59,189.29L226.24,189.29L226.38,199.73L226.96,202.34L227.11,191.9L227.25,189.29L227.4,199.73L227.54,202.34L227.83,202.34L227.98,191.9L228.13,189.29L228.27,210.17L228.85,228.44L229,218L229.14,204.95L229.72,189.29L229.87,199.73L230.01,202.34L231.03,202.34L231.17,212.78L231.9,215.39L232.05,204.95L233.35,189.29L233.5,189.29L239.89,189.29L240.03,199.73L240.32,202.34L240.47,191.9L240.9,189.29L241.05,199.73L241.34,202.34L241.48,191.9L241.92,189.29L242.07,210.17L242.5,228.44L242.65,207.56L242.79,212.78L242.94,204.95L243.08,202.34L243.23,212.78L243.37,215.39L243.52,204.95L243.81,228.44L243.95,228.44L244.53,207.56L244.82,215.39L244.97,215.39L245.55,215.39L245.7,204.95L246.13,202.34L246.28,212.78L247.15,202.34L247.29,202.34L248.16,189.29L248.31,189.29L250.34,189.29L250.49,199.73L251.36,202.34L251.5,202.34L251.65,202.34L251.79,191.9L252.67,189.29L252.81,189.29L254.7,189.29L254.84,199.73L255.57,202.34L255.71,191.9L256.59,189.29L256.73,189.29L257.17,189.29L257.31,199.73L257.75,202.34L257.89,191.9L258.47,202.34L258.76,199.73L258.91,202.34L259.35,202.34L259.49,191.9L260.22,215.39L260.36,204.95L260.51,202.34L261.52,202.34L261.67,191.9L262.54,202.34L262.69,202.34L263.56,189.29L263.7,189.29L265.73,189.29L265.88,199.73L266.32,202.34L266.46,191.9L267.33,189.29L267.48,189.29L269.07,189.29L269.22,199.73L269.66,215.39L270.09,212.78L270.24,215.39L271.11,202.34L271.25,202.34L272.27,228.44L272.41,218L273.14,215.39L273.29,194.51L274.16,189.29L274.3,189.29L282.29,189.29L282.43,199.73L282.72,202.34L282.87,191.9L283.6,189.29L283.74,199.73L284.61,215.39L284.76,215.39L285.34,215.39L285.48,204.95L286.06,191.9L286.21,199.73L286.35,202.34L287.08,228.44L287.23,218L287.37,204.95L287.81,202.34L287.95,212.78L288.82,225.83L288.97,218L289.69,202.34L289.84,191.9L290.71,189.29L290.86,189.29L296.23,189.29L296.37,199.73L296.52,202.34L296.66,191.9L296.81,189.29L297.54,189.29L297.68,186.76L298.41,74.36L298.55,57.06L299.28,96.93L299.57,96.3L299.71,90.87L300.58,72.53L300.73,81.92L300.88,75.18L301.02,84.59L301.17,81.27L301.31,91.47L302.33,114.74L302.47,133.75L304.07,234.58L304.36,233.89L304.51,229.1L304.8,228.13L304.94,224.93L305.09,226.11L305.23,222.44L305.38,223.14L305.52,222.33L305.67,226.45L305.96,221.96L306.25,222.6L306.39,225L307.41,217.73L307.55,218.19L307.85,218.59L307.99,216.28L308.43,216.67L308.57,217.46L308.86,217.53L309.44,215.41L309.59,216.73L309.73,214.94L309.88,226.03L310.02,228.18L310.17,222.14L310.31,217.33L312.06,81.85L312.2,70.75L312.49,72.44L312.64,88.61L313.07,114.47L313.51,105.63L313.65,98.8L313.8,98.46L313.94,103.31L314.09,97.14L314.23,109.56L314.38,102.08L314.53,113.01L314.67,99.14L315.11,109.76L315.25,163.65L315.69,283.68L316.12,260.58L316.27,256.89L316.56,255.3L316.7,265.82L316.85,263.64L316.99,252.46L317.14,257.62L317.57,247.46L317.72,246L317.86,245.69L318.01,241.4L319.03,218.61L319.17,223.77L320.04,215.52L320.19,217.57L320.77,215.42L321.06,215.52L321.2,217.16L321.35,219.39L321.5,215.64L321.79,215.9L321.93,216.14L322.22,215.19L322.66,217.81L322.8,216.28L323.09,216.73L323.24,215.27L323.53,215.48L323.67,225.91L323.82,229.79L324.11,229.59L324.25,217.83L324.4,215.14L324.69,221.34L324.83,232.12L324.98,232.48L325.13,242.37L325.56,254.71L325.71,206.65L326.14,101.4L326.58,109.71L326.72,115.78L326.87,112.8L327.01,136.19L328.03,84.58L328.17,93.31L328.32,185.4L328.61,279.51L328.9,115.56L329.05,122.09L329.63,195.67L329.77,304L330.93,255.97L331.08,254.47L332.24,231.98L332.39,232.43L332.53,231.44L332.68,230.58L332.82,224.65L333.11,223.57L333.26,221.53L333.4,226.25L333.55,218.01L333.98,221.51L334.13,218.84L334.27,218.73L334.42,221.64L335.29,217.05L335.58,217.31L335.73,216.26L336.02,218.52L336.31,216.04L336.45,216.77L336.6,216.67L336.89,217.8L337.03,215.57L337.32,216.79L337.47,229L337.61,230.55L337.76,228.81L337.9,230.21L338.05,218.55L338.19,216.25L338.48,216.93L338.63,225.92L339.65,263.46L339.79,260.39L339.94,233.3L340.23,83.88L340.66,172.52L340.81,181.19L340.95,176.54L341.24,183.67L341.39,204.6L341.68,219.28L342.11,214.09L342.26,196.56L342.55,191.86L342.7,194.83L342.84,202.25L343.13,196.55L343.28,205.29L344.58,173.09L344.73,180.4L344.87,172.02L345.02,183.66L345.16,183.44L345.31,203.45L346.18,236.56L346.47,231.47L346.62,229.06L347.34,217.58L347.49,221.26L347.63,222.98L348.36,215.96L348.5,219.45L348.94,217.23L349.09,215.57L349.38,218.94L349.81,215.2L349.96,217.03L350.39,219.54L350.83,215.36L350.97,216.16L351.12,216.41L351.26,215.87L351.41,219.83L353.3,154.52L353.44,166.84L353.59,177.39L353.73,183.94L354.17,169.8L354.31,179.05L354.46,175.12L355.47,91.77L355.76,98.31L355.91,112.52L356.06,94.7L356.49,123.62L356.64,251.56L357.36,299.79L357.51,281.19L357.8,293.6L358.09,282.62L358.23,273.92L359.54,233.65L359.69,234.01L360.7,224.65L360.85,220.55L360.99,221.75L361.28,219.34L361.43,221.45L361.57,217.28L361.72,220.31L361.86,216.74L362.3,217.01L362.44,216.97L362.59,216.51L362.73,221.41L363.32,216.37L363.46,227.11L363.75,230.82L363.9,219.41L364.48,219.81L364.62,215.95L364.77,216.26L364.91,217.15L365.06,215.75L365.2,217.49L365.35,225.98L365.49,229.23L365.64,229.18L365.78,218.27L366.66,243.51L366.8,232.6L366.95,233.32L367.09,230.35L367.38,232.85L367.53,230.44L368.11,249.43L368.25,269.59L369.12,280.71L369.27,273.1L369.56,251.5L370,261.85L370.14,277.74L370.29,266.19L370.72,279.67L370.87,279.59L371.01,290.71L371.45,270.67L371.59,275.7L372.46,247.28L372.61,247.6L373.34,238.68L373.48,238.72L373.63,244.61L373.77,248.96L374.21,242.81L374.35,242.38L374.5,243.69L374.64,237.97L375.22,221.41L375.51,221.82L375.66,227.79L376.53,218.79L376.67,216.88L376.82,216.25L376.97,216.47L377.11,218.3L377.98,215.68L378.13,217.08L378.42,215.53L378.56,216.91L378.71,225.99L379.14,242.35L379.43,230.26L379.58,220.51L380.74,259.61L380.89,246.77L381.03,245.56L381.47,230.81L381.9,231.88L382.05,236.21L382.34,237.88L382.48,231.23L382.92,223.97L383.35,224.3L383.5,230.49L383.65,230.32L383.79,236.67L384.52,247.23L384.66,243.47L384.81,238.03L385.39,226.82L385.53,236.64L385.68,243.11L386.84,218.97L386.98,223.2L387.28,224.43L387.57,219.12L387.71,225.16L388.58,216.45L388.73,220.52L389.31,216.13L389.6,216.6L389.74,216.08L390.03,230.73L390.62,229.15L390.76,228.56L391.34,215.64L391.63,216.73L391.78,214.94L392.07,214.61L392.65,217.28L392.79,217.08L392.94,215.19L393.23,214.93L393.37,216.38L393.66,215.57L393.81,215.87L393.95,214.94L394.25,216.62L394.39,221L394.54,218.6L394.97,218.63L395.12,232.9L395.41,218.77L395.7,231.84L395.84,239.64L396.13,225.35L396.42,237.46L396.57,244.03L397.44,268.21L397.59,256.08L397.73,257.02L397.88,244.56L398.46,276.82L398.6,271.31L398.75,259.26L399.18,240.05L399.47,254.84L399.62,248.08L399.76,248.76L399.91,238.88L400.49,271.29L400.78,270.41L400.93,249.43L401.07,239.98L401.51,249.61L401.65,246.35L401.8,244.23L401.94,245.77L402.09,230.39L402.67,221.51L403.25,222.12L403.39,222.56L403.68,224.49L403.97,222.03L404.12,217.02L404.26,216.47L404.41,217.67L404.56,218.46L404.85,215.73L405.28,216.06L405.43,217.32L406.01,215.51L406.3,215.57L406.44,217L407.02,215.73L407.31,215.87L407.46,215.85L408.04,215.35L408.62,220L408.77,218.54L409.2,219.9L409.35,232.41L409.64,258.34L410.07,237.11L410.22,233.16L411.09,237.27L411.23,234.24L411.38,234.03L411.53,230.68L412.54,272.13L412.69,263.3L413.41,269.18L413.56,260.12L413.7,264.88L413.85,253.84L413.99,245.05L414.28,243.61L414.43,250.97L414.57,245.06L414.72,244.19L414.87,243.83L415.01,238.98L415.3,235.11L415.45,241.06L416.46,227.54L416.61,225.73L416.75,225.21L416.9,226.52L417.04,222.66L417.77,225.06L417.91,221.39L418.21,220.96L418.5,224.08L418.79,223.02L418.93,220.94L419.08,222.16L419.22,217.27L419.37,216.01L419.66,215.44L419.8,217L419.95,215.26L420.09,216.16L420.24,226.51L420.38,228.28L420.53,217.94L421.4,214.83L421.54,216.05L421.69,214.68L422.13,215.22L422.27,230.81L422.56,245.77L422.85,223.87L423,164.53L423.72,102.68L423.87,104.94L424.01,98.05L424.59,138.25L424.88,114.92L425.03,105.6L425.32,92.59L425.47,106.43L425.61,116.87L426.48,166.82L426.63,143.51L426.77,142.35L427.5,100.9L427.79,102.18L427.93,112.84L429.68,245.66L429.82,242.14L429.97,232.87L430.11,235.96L430.26,228.27L430.4,230.71L430.55,226.18L430.84,224.3L430.98,229.01L431.13,222.72L431.27,222.87L431.42,228.59L431.71,221.65L432,223.2" style="vector-effect: non-scaling-stroke; fill: none; stroke: rgb(0, 128, 0); stroke-opacity: 1; stroke-width: 2px; opacity: 1;"/></g><g class="points"/><g class="text"/></g></g></g><g class="overplot"/><path class="xlines-above crisp" d="M0,0" style="fill: none;"/><path class="ylines-above crisp" d="M0,0" style="fill: none;"/><g class="overlines-above"/><g class="xaxislayer-above"><g class="xtick"><text text-anchor="middle" x="0" y="433" transform="translate(80,0)" style="font-family: 'Open Sans', verdana, arial, sans-serif; font-size: 12px; fill: rgb(42, 63, 95); fill-opacity: 1; white-space: pre; opacity: 1;"><tspan class="line" dy="0em" x="0" y="433">May 1</tspan><tspan class="line" dy="1.3em" x="0" y="433">2022</tspan></text></g><g class="xtick"><text text-anchor="middle" x="0" y="433" style="font-family: 'Open Sans', verdana, arial, sans-serif; font-size: 12px; fill: rgb(42, 63, 95); fill-opacity: 1; white-space: pre; opacity: 1;" transform="translate(177.57999999999998,0)">May 8</text></g><g class="xtick"><text text-anchor="middle" x="0" y="433" style="font-family: 'Open Sans', verdana, arial, sans-serif; font-size: 12px; fill: rgb(42, 63, 95); fill-opacity: 1; white-space: pre; opacity: 1;" transform="translate(275.15999999999997,0)">May 15</text></g><g class="xtick"><text text-anchor="middle" x="0" y="433" style="font-family: 'Open Sans', verdana, arial, sans-serif; font-size: 12px; fill: rgb(42, 63, 95); fill-opacity: 1; white-space: pre; opacity: 1;" transform="translate(372.74,0)">May 22</text></g><g class="xtick"><text text-anchor="middle" x="0" y="433" style="font-family: 'Open Sans', verdana, arial, sans-serif; font-size: 12px; fill: rgb(42, 63, 95); fill-opacity: 1; white-space: pre; opacity: 1;" transform="translate(470.32,0)">May 29</text></g></g><g class="yaxislayer-above"><g class="ytick"><text text-anchor="end" x="79" y="4.199999999999999" transform="translate(0,398.06)" style="font-family: 'Open Sans', verdana, arial, sans-serif; font-size: 12px; fill: rgb(42, 63, 95); fill-opacity: 1; white-space: pre; opacity: 1;">−60</text></g><g class="ytick"><text text-anchor="end" x="79" y="4.199999999999999" style="font-family: 'Open Sans', verdana, arial, sans-serif; font-size: 12px; fill: rgb(42, 63, 95); fill-opacity: 1; white-space: pre; opacity: 1;" transform="translate(0,361.8)">−40</text></g><g class="ytick"><text text-anchor="end" x="79" y="4.199999999999999" style="font-family: 'Open Sans', verdana, arial, sans-serif; font-size: 12px; fill: rgb(42, 63, 95); fill-opacity: 1; white-space: pre; opacity: 1;" transform="translate(0,325.53999999999996)">−20</text></g><g class="ytick"><text text-anchor="end" x="79" y="4.199999999999999" style="font-family: 'Open Sans', verdana, arial, sans-serif; font-size: 12px; fill: rgb(42, 63, 95); fill-opacity: 1; white-space: pre; opacity: 1;" transform="translate(0,289.28999999999996)">0</text></g><g class="ytick"><text text-anchor="end" x="79" y="4.199999999999999" style="font-family: 'Open Sans', verdana, arial, sans-serif; font-size: 12px; fill: rgb(42, 63, 95); fill-opacity: 1; white-space: pre; opacity: 1;" transform="translate(0,253.03)">20</text></g><g class="ytick"><text text-anchor="end" x="79" y="4.199999999999999" style="font-family: 'Open Sans', verdana, arial, sans-serif; font-size: 12px; fill: rgb(42, 63, 95); fill-opacity: 1; white-space: pre; opacity: 1;" transform="translate(0,216.76999999999998)">40</text></g><g class="ytick"><text text-anchor="end" x="79" y="4.199999999999999" style="font-family: 'Open Sans', verdana, arial, sans-serif; font-size: 12px; fill: rgb(42, 63, 95); fill-opacity: 1; white-space: pre; opacity: 1;" transform="translate(0,180.51999999999998)">60</text></g><g class="ytick"><text text-anchor="end" x="79" y="4.199999999999999" style="font-family: 'Open Sans', verdana, arial, sans-serif; font-size: 12px; fill: rgb(42, 63, 95); fill-opacity: 1; white-space: pre; opacity: 1;" transform="translate(0,144.26)">80</text></g><g class="ytick"><text text-anchor="end" x="79" y="4.199999999999999" style="font-family: 'Open Sans', verdana, arial, sans-serif; font-size: 12px; fill: rgb(42, 63, 95); fill-opacity: 1; white-space: pre; opacity: 1;" transform="translate(0,108)">100</text></g></g><g class="overaxes-above"/></g></g><g class="polarlayer"/><g class="smithlayer"/><g class="ternarylayer"/><g class="geolayer"/><g class="funnelarealayer"/><g class="pielayer"/><g class="iciclelayer"/><g class="treemaplayer"/><g class="sunburstlayer"/><g class="glimages"/><defs id="topdefs-07e6ab"><g class="clips"/><clipPath id="legend07e6ab"><rect width="167" height="67" x="0" y="0"/></clipPath></defs><g class="layer-above"><g class="imagelayer"/><g class="shapelayer"/></g><g class="infolayer"><g class="legend" pointer-events="all" transform="translate(520.64,100)"><rect class="bg" shape-rendering="crispEdges" width="167" height="67" x="0" y="0" style="stroke: rgb(68, 68, 68); stroke-opacity: 1; fill: rgb(255, 255, 255); fill-opacity: 1; stroke-width: 0px;"/><g class="scrollbox" transform="" clip-path="url(#legend07e6ab)"><g class="groups"><g class="traces" transform="translate(0,14.5)" style="opacity: 1;"><text class="legendtext" text-anchor="start" x="40" y="4.680000000000001" style="font-family: 'Open Sans', verdana, arial, sans-serif; font-size: 12px; fill: rgb(42, 63, 95); fill-opacity: 1; white-space: pre;">BESS</text><g class="layers" style="opacity: 0.5;"><g class="legendfill"/><g class="legendlines"><path class="js-line" d="M5,0h30" style="fill: none; stroke: rgb(0, 191, 255); stroke-opacity: 1; stroke-width: 2px;"/></g><g class="legendsymbols"><g class="legendpoints"/></g></g><rect class="legendtoggle" x="0" y="-9.5" width="161.890625" height="19" style="fill: rgb(0, 0, 0); fill-opacity: 0;"/></g><g class="traces" transform="translate(0,33.5)" style="opacity: 1;"><text class="legendtext" text-anchor="start" x="40" y="4.680000000000001" style="font-family: 'Open Sans', verdana, arial, sans-serif; font-size: 12px; fill: rgb(42, 63, 95); fill-opacity: 1; white-space: pre;">Solar</text><g class="layers" style="opacity: 0.5;"><g class="legendfill"/><g class="legendlines"><path class="js-line" d="M5,0h30" style="fill: none; stroke: rgb(255, 0, 0); stroke-opacity: 1; stroke-width: 2px;"/></g><g class="legendsymbols"><g class="legendpoints"/></g></g><rect class="legendtoggle" x="0" y="-9.5" width="161.890625" height="19" style="fill: rgb(0, 0, 0); fill-opacity: 0;"/></g><g class="traces" transform="translate(0,52.5)" style="opacity: 1;"><text class="legendtext" text-anchor="start" x="40" y="4.680000000000001" style="font-family: 'Open Sans', verdana, arial, sans-serif; font-size: 12px; fill: rgb(42, 63, 95); fill-opacity: 1; white-space: pre;">Grid Meter (Net Load)</text><g class="layers" style="opacity: 0.5;"><g class="legendfill"/><g class="legendlines"><path class="js-line" d="M5,0h30" style="fill: none; stroke: rgb(0, 128, 0); stroke-opacity: 1; stroke-width: 2px;"/></g><g class="legendsymbols"><g class="legendpoints"/></g></g><rect class="legendtoggle" x="0" y="-9.5" width="161.890625" height="19" style="fill: rgb(0, 0, 0); fill-opacity: 0;"/></g></g></g><rect class="scrollbar" rx="20" ry="3" width="0" height="0" x="0" y="0" style="fill: rgb(128, 139, 164); fill-opacity: 1;"/></g><g class="g-gtitle"><text class="gtitle" x="296" y="50" text-anchor="middle" dy="0em" style="font-family: 'Open Sans', verdana, arial, sans-serif; font-size: 17px; fill: rgb(42, 63, 95); opacity: 1; font-weight: normal; white-space: pre;"><tspan class="line" dy="0em" x="296" y="50">Scenario 2</tspan><tspan class="line" dy="1.3em" x="296" y="50">Microgrid Output</tspan><tspan class="line" dy="2.6em" x="296" y="50">From: May 01, 2022 to May 31, 2022</tspan></text></g><g class="g-xtitle"><text class="xtitle" x="296" y="477.409375" text-anchor="middle" style="font-family: 'Open Sans', verdana, arial, sans-serif; font-size: 14px; fill: rgb(42, 63, 95); opacity: 1; font-weight: normal; white-space: pre;">Time</text></g><g class="g-ytitle"><text class="ytitle" transform="rotate(-90,33.60625,260)" x="33.60625" y="260" text-anchor="middle" style="font-family: 'Open Sans', verdana, arial, sans-serif; font-size: 14px; fill: rgb(42, 63, 95); opacity: 1; font-weight: normal; white-space: pre;">Demand (kW)</text></g></g></svg>