<svg class="main-svg" xmlns="http://www.w3.org/2000/svg" xmlns:xlink="http://www.w3.org/1999/xlink" width="700" height="500" style="" viewBox="0 0 700 500"><rect x="0" y="0" width="700" height="500" style="fill: rgb(255, 255, 255); fill-opacity: 1;"/><defs id="defs-e9d034"><g class="clips"><clipPath id="clipe9d034xyplot" class="plotclip"><rect width="432" height="320"/></clipPath><clipPath class="axesclip" id="clipe9d034x"><rect x="80" y="0" width="432" height="500"/></clipPath><clipPath class="axesclip" id="clipe9d034y"><rect x="0" y="100" width="700" height="320"/></clipPath><clipPath class="axesclip" id="clipe9d034xy"><rect x="80" y="100" width="432" height="320"/></clipPath></g><g class="gradients"/><g class="patterns"/></defs><g class="bglayer"/><g class="layer-below"><g class="imagelayer"/><g class="shapelayer"/></g><g class="cartesianlayer"><g class="subplot xy"><g class="layer-subplot"><g class="shapelayer"/><g class="imagelayer"/></g><g class="gridlayer"><g class="x"><path class="xgrid crisp" transform="translate(177.57999999999998,0)" d="M0,100v320" style="stroke: rgb(255, 255, 255); stroke-opacity: 1; stroke-width: 1px;"/><path class="xgrid crisp" transform="translate(275.15999999999997,0)" d="M0,100v320" style="stroke: rgb(255, 255, 255); stroke-opacity: 1; stroke-width: 1px;"/><path class="xgrid crisp" transform="translate(372.74,0)" d="M0,100v320" style="stroke: rgb(255, 255, 255); stroke-opacity: 1; stroke-width: 1px;"/><path class="xgrid crisp" transform="translate(470.32,0)" d="M0,100v320" style="stroke: rgb(255, 255, 255); stroke-opacity: 1; stroke-width: 1px;"/></g><g class="y"><path class="ygrid crisp" transform="translate(0,400.79)" d="M80,0h432" style="stroke: rgb(255, 255, 255); stroke-opacity: 1; stroke-width: 1px;"/><path class="ygrid crisp" transform="translate(0,358.78)" d="M80,0h432" style="stroke: rgb(255, 255, 255); stroke-opacity: 1; stroke-width: 1px;"/><path class="ygrid crisp" transform="translate(0,274.76)" d="M80,0h432" style="stroke: rgb(255, 255, 255); stroke-opacity: 1; stroke-width: 1px;"/><path class="ygrid crisp" transform="translate(0,232.76)" d="M80,0h432" style="stroke: rgb(255, 255, 255); stroke-opacity: 1; stroke-width: 1px;"/><path class="ygrid crisp" transform="translate(0,190.75)" d="M80,0h432" style="stroke: rgb(255, 255, 255); stroke-opacity: 1; stroke-width: 1px;"/><path class="ygrid crisp" transform="translate(0,148.74)" d="M80,0h432" style="stroke: rgb(255, 255, 255); stroke-opacity: 1; stroke-width: 1px;"/><path class="ygrid crisp" transform="translate(0,106.73)" d="M80,0h432" style="stroke: rgb(255, 255, 255); stroke-opacity: 1; stroke-width: 1px;"/></g></g><g class="zerolinelayer"><path class="yzl zl crisp" transform="translate(0,316.77)" d="M80,0h432" style="stroke: rgb(255, 255, 255); stroke-opacity: 1; stroke-width: 2px;"/></g><path class="xlines-below"/><path class="ylines-below"/><g class="overlines-below"/><g class="xaxislayer-below"/><g class="yaxislayer-below"/><g class="overaxes-below"/><g class="plot" transform="translate(80,100)" clip-path="url(#clipe9d034xyplot)"><g class="scatterlayer mlayer"><g class="trace scatter trace173e30" style="stroke-miterlimit: 2; opacity: 0.5;"><g class="fills"/><g class="errorbars"/><g class="lines"><path class="js-line" d="M0,216.77L0.29,219.27L0.73,216.77L0.87,216.77L1.74,216.77L1.89,216.77L4.07,216.77L4.21,214.82L4.5,198.17L4.79,216.77L4.94,216.77L11.04,216.77L11.18,221.82L11.47,222.43L11.76,216.77L11.91,222.54L12.78,217.02L12.92,217.24L13.07,216.42L13.36,216.77L13.5,218.4L13.94,216.77L14.23,216.88L14.38,219.13L15.1,216.77L15.25,218.23L16.12,216.77L16.26,217.22L17.13,216.77L17.28,217.3L18.15,216.77L18.3,216.77L19.17,197.23L19.31,211.99L20.18,216.77L20.33,216.77L24.98,216.77L25.12,218.71L25.27,219.29L25.41,217.97L25.56,218.15L25.7,222.1L25.99,216.77L26.57,217.13L26.72,216.77L27.59,219.17L27.74,217.37L28.9,216.81L29.04,216.77L32.53,216.77L32.67,192.67L33.54,216.77L33.69,216.77L38.77,216.77L38.92,220.53L39.21,224.01L39.35,219.77L39.64,222L39.79,219.6L40.08,218.55L40.22,226.4L40.51,222.45L40.66,218.64L41.24,218.07L41.38,222.94L41.53,219.02L41.68,216.22L42.11,222.14L42.26,218.11L42.4,220.16L42.69,216.77L43.27,216.93L43.42,216.77L46.03,216.77L46.18,203.55L46.32,204.12L46.47,191.61L46.9,164.65L47.05,205.74L47.92,216.77L48.06,216.77L52.86,216.77L53,223.91L53.29,219.33L53.44,229.13L53.58,219.86L53.73,221.62L54.02,220.58L54.16,223.32L54.31,218.24L54.6,216.63L54.74,217.25L54.89,221.06L55.47,222.13L55.76,216.77L55.91,218.66L56.2,216.77L56.49,216.98L56.63,221.01L57.36,216.77L57.5,218.52L58.37,216.77L58.52,216.77L58.81,216.77L58.96,217.6L59.83,216.77L59.97,216.77L60.12,210.84L60.7,216.77L60.84,216.77L62.3,216.77L62.44,129.5L63.31,216.77L63.46,216.77L66.65,216.77L66.8,220.51L66.94,248.94L67.38,220.07L67.52,225.43L67.67,223.19L67.96,215.9L68.54,218.21L68.68,217.72L68.83,223.71L69.27,217.66L69.41,216.77L69.7,217.48L69.85,216.44L70.86,216.77L71.01,216.77L76.09,216.77L76.24,114.82L76.53,109.93L77.11,216.77L77.25,216.77L86.4,216.77L86.55,217.55L86.84,216.77L86.98,219.26L87.85,216.77L88,216.77L94.68,216.77L94.82,219.25L95.11,218.33L95.26,225.92L95.55,221.42L95.69,217.93L95.84,218.64L95.98,224.3L96.27,217.06L96.86,218.09L97,218.49L97.29,216.77L97.44,218.77L97.58,220.46L98.02,216.82L98.31,217.39L98.45,218.7L98.89,220.16L99.18,216.77L99.32,216.94L99.47,216.81L99.61,218.15L100.19,216.77L100.34,217.54L100.92,216.77L101.07,217.76L101.94,216.77L102.08,216.77L108.62,216.77L108.76,217.98L108.91,218.51L109.2,217.02L109.34,217.79L109.49,217.01L110.36,216.77L110.5,216.77L111.38,216.77L111.52,218.16L111.81,216.77L112.39,217.04L112.54,216.77L112.68,220.15L113.26,216.77L113.41,217.34L114.28,216.83L114.43,216.77L115.59,216.77L115.73,195.65L116.6,216.77L116.75,216.77L122.56,216.77L122.7,218.86L122.85,224.44L123.28,217.15L123.43,218.6L123.57,217.23L124.01,216.77L124.15,218.25L124.3,217.14L124.45,216.77L124.59,217.73L125.17,216.77L125.32,216.95L126.48,216.78L126.62,216.77L129.53,216.77L129.67,215.97L129.82,202.78L130.11,216.77L130.4,216.77L130.54,216.77L136.5,216.77L136.64,222.64L136.79,228.4L137.08,217.02L137.22,218.96L137.37,217.3L137.95,216.83L138.09,220.89L138.24,217.8L138.97,221.45L139.11,217.85L139.26,220.82L139.55,216.77L139.69,216.77L139.84,216.77L143.61,216.77L143.76,202.05L144.05,186.34L144.19,180.47L145.06,216.77L145.21,216.77L151.6,216.77L151.74,227.14L152.62,216.77L152.76,216.77L152.91,218.37L153.49,216.77L153.63,217.18L154.65,216.77L154.79,216.77L164.38,216.77L164.52,234.31L165.39,207.67L165.54,230.79L165.68,203.98L166.27,216.77L166.41,216.77L297.68,216.77L297.83,201.66L298.12,151.44L298.41,216.77L298.55,216.77L303.63,216.77L303.78,222.09L303.92,219.49L304.07,233.26L304.36,233.71L304.8,219.65L304.94,224.29L305.52,219.06L305.67,225.24L306.54,218.22L306.68,221.27L307.41,217.62L307.55,218.7L307.7,217.25L307.85,219.13L308.14,217.01L308.28,217.14L308.43,216.85L308.86,217.89L309.15,216.77L309.3,217.57L310.17,216.77L310.31,216.77L310.6,212.6L310.75,215.69L310.89,197.11L311.04,205.05L311.19,188.03L311.33,197.2L311.48,181.11L311.62,164.94L311.91,216.77L312.06,216.77L315.25,216.77L315.4,249.5L315.54,224.95L315.69,255.13L316.12,226.88L316.27,238.84L316.85,243.24L316.99,223.02L317.14,244.5L317.86,221.09L318.01,227.3L318.16,220.35L318.3,234.75L318.45,221.2L318.59,239.74L319.03,218.04L319.46,219.04L319.61,217.34L319.75,219.41L320.04,216.77L320.33,217.07L320.48,217.74L320.77,216.77L321.2,216.9L321.35,220.07L321.93,216.77L322.22,216.89L322.37,217.73L322.66,218.24L322.95,216.77L323.24,216.9L323.38,216.79L324.54,216.77L324.69,219.48L325.56,235.73L325.71,220.86L326.43,117.17L326.58,187.33L326.72,128.99L327.3,141.84L327.45,173.96L328.47,258.92L328.61,237.47L328.9,134.89L329.05,196.1L329.77,288.3L330.06,274.2L330.21,231.21L330.35,265.22L330.93,241.49L331.08,237.26L331.66,230.07L331.81,231.25L331.95,222.77L332.1,232.03L332.24,220.4L332.68,230.83L332.82,220.29L333.11,218.63L333.4,224.59L333.55,218.5L333.98,221.19L334.13,217.82L334.27,218.34L334.42,220.58L335.29,217.25L335.44,218.53L335.73,216.77L336.31,217.04L336.45,217.02L336.74,216.81L336.89,218.41L337.47,218.81L337.76,216.77L337.9,217.6L338.19,216.77L338.34,217.77L338.48,217.02L338.63,224.43L339.21,234.97L339.36,237.96L339.65,245.04L339.79,226.63L339.94,238.15L340.08,117.41L340.52,245.16L340.95,176.7L341.1,222.03L341.24,198.26L341.82,207.41L341.97,208.87L342.11,206.75L342.26,214.61L342.41,196.8L342.84,212.41L343.28,212.08L343.42,210.5L343.86,215.77L344,209.96L344.15,215.07L344.29,209.06L344.44,214.84L344.58,200.22L344.73,212.63L344.87,198.71L345.89,232.14L346.04,220.61L346.18,237.2L346.62,220.3L346.76,222.59L346.91,222.34L347.05,222.17L347.2,222.32L347.34,217.89L347.78,217.48L348.07,220.85L348.21,217.7L348.36,216.77L348.5,219.58L348.65,217.47L348.79,219.43L349.09,216.77L349.52,217.79L349.67,218.23L350.25,216.77L350.39,220.32L350.97,216.77L351.26,216.82L351.41,220.71L352.28,216.77L352.42,216.77L352.57,215.51L352.72,207.11L353.3,177.64L353.59,187.02L353.73,199.83L353.88,180.9L354.31,208.25L354.46,202.89L354.6,202.33L354.75,204.88L354.89,202.93L355.04,158.87L355.47,158.76L355.62,169.42L355.76,156.2L356.35,136.95L356.78,269.27L356.93,228.93L357.07,275.58L357.65,264.23L357.8,230L357.94,254.54L358.38,225.23L358.52,241.79L358.67,231.12L358.81,243.3L359.25,230.33L359.39,227.2L359.54,226.34L359.69,228.28L359.83,220.77L360.12,219.95L360.27,230.85L360.56,225.05L360.7,218.86L361.28,217.71L361.43,222.18L361.57,218.12L361.72,221.02L362.15,217.62L362.3,217.23L362.59,216.83L362.73,221.73L363.32,216.77L363.61,216.86L363.75,218.1L364.04,216.77L364.19,218.25L364.33,217.14L364.48,220.5L364.77,216.77L365.35,217.09L365.49,216.77L365.78,216.77L365.93,217.75L366.37,216.77L366.51,217.42L366.66,229.44L366.8,219.9L366.95,232.89L367.38,222.44L367.53,227.58L367.82,229.86L367.96,221.89L368.11,232.1L368.25,232.53L368.4,238.54L368.54,233.12L368.69,239.22L368.83,234L368.98,249.63L369.41,228.77L369.85,231.69L370,234.34L370.29,224.91L370.43,262.97L370.72,251.53L370.87,225.46L371.01,262.52L371.59,260.88L371.74,227.8L371.88,252.21L372.32,224.69L372.46,245.09L372.61,225.34L372.75,239.07L373.34,229.29L373.48,230.79L373.77,231.79L374.21,219.94L374.35,228.26L374.79,218.24L374.93,229.57L375.22,221L375.37,220.09L375.51,218.86L375.66,227.11L376.53,218.37L376.67,217.24L376.97,216.77L377.11,218.53L377.98,216.77L378.13,217.44L378.42,216.77L378.71,216.94L378.85,217.74L379.14,216.77L379.43,217.19L379.58,218.13L380.16,216.77L380.31,217.18L380.45,218.41L380.6,218.34L380.74,220.01L381.47,217.28L381.61,218.78L381.9,218.02L382.48,224.3L382.63,218.36L382.77,228.78L383.35,223.01L383.5,224.99L383.65,225.23L383.79,220.96L384.08,228.85L384.23,219.47L384.37,229.67L384.95,225.88L385.1,223.61L385.24,232.47L385.39,220.37L385.68,224.24L385.82,219.56L386.11,224.66L386.26,218.7L386.4,223.77L386.55,218.5L386.69,231.19L387.13,218.46L387.28,224.19L387.42,218.63L387.57,218.03L387.71,224.92L388.58,217.38L388.73,221.04L389.31,216.77L389.6,217.45L389.74,216.77L389.89,218.02L390.47,216.94L390.62,216.81L390.91,217.14L391.05,216.86L391.2,219.56L392.07,216.77L392.21,216.77L392.65,217.48L392.94,216.82L393.08,217L393.95,216.77L394.1,217.01L394.25,216.83L394.39,221.35L394.97,217.34L395.12,222.76L395.55,217.37L395.7,220.29L395.84,224.25L395.99,218.42L396.28,231.17L396.42,220.14L396.57,229.18L396.86,221.34L397.15,226.63L397.29,229.94L397.73,236.01L397.88,228.04L398.02,232.57L398.17,229.78L398.31,239.03L398.6,219.96L398.75,216.77L422.85,216.77L423,200.63L423.72,147.22L423.87,163.51L424.01,145.63L424.3,144.12L424.45,166.14L424.74,165.29L424.88,138.38L425.18,131.3L425.32,169.33L425.61,167.73L425.76,142.14L426.05,128.63L426.48,196.65L426.63,134.73L426.77,196.26L426.92,115.49L427.35,191.64L427.5,124.53L428.22,202.87L428.37,175.98L429.24,224.62L429.39,233.58L429.68,235.27L429.82,230.54L429.97,223.81L430.11,232.76L430.55,220.28L430.69,229.09L430.84,219.85L430.98,229.38L431.56,218.56L431.71,220.57L431.85,224.37L432,218.43" style="vector-effect: non-scaling-stroke; fill: none; stroke: rgb(0, 191, 255); stroke-opacity: 1; stroke-width: 2px; opacity: 1;"/></g><g class="points"/><g class="text"/></g><g class="trace scatter trace8373ac" style="stroke-miterlimit: 2; opacity: 0.5;"><g class="fills"/><g class="errorbars"/><g class="lines"><path class="js-line" d="M0,217.01L3.34,216.92L3.49,215.82L4.21,176.8L4.36,158.88L5.81,16.16L6.24,16.29L6.39,16.28L8.28,16.5L8.42,16.5L9.29,17.21L9.44,22.1L11.76,217.03L11.91,217.02L17.28,216.9L17.43,216.13L18.3,185.98L18.44,171.11L20.04,16L20.62,16.28L20.77,16.26L22.8,16.64L22.94,16.59L23.09,16.71L23.23,18.08L24.1,106.51L24.25,124.79L25.7,217.03L25.85,217.01L31.66,216.38L31.8,214.9L32.38,190.94L32.53,167.49L32.96,75.44L33.11,216.77L34.12,216.77L34.27,183.64L34.41,16.3L35.14,16.4L35.29,16.44L37.03,16.56L37.17,18.11L38.05,108.56L38.19,127.3L39.64,217.03L39.79,217.02L45.16,216.7L45.31,215.03L46.18,152.11L46.32,138.17L47.63,16.21L48.06,16.39L48.21,16.47L50.39,16.89L50.53,49.73L50.82,16.85L51.4,216.77L51.55,216.77L52.86,216.44L53,215.11L53.87,217.02L54.02,217.01L59.1,216.65L59.25,214.8L60.12,172.6L60.26,216.77L62.15,216.77L62.3,183.92L62.88,16.58L63.17,16.77L63.31,16.77L65.05,16.84L65.2,19.23L66.22,147.81L66.36,173.33L67.52,217.03L67.67,217.03L68.83,217.01L68.97,217.01L72.9,216.97L73.04,216.49L73.48,209.1L73.62,216.77L75.94,216.77L76.09,184.02L76.24,16.55L76.96,16.77L77.11,49.56L77.98,216.77L78.12,216.77L86.98,216.8L87.13,215.53L87.71,189.84L87.85,174.09L89.45,16.16L89.89,16.3L90.03,16.35L91.05,16.23L91.19,49.06L91.34,184.11L91.63,16.31L91.77,16.36L91.92,16.43L92.93,16.86L93.08,20L95.55,217.03L95.69,217.01L101.07,216.83L101.21,216.45L102.52,198.22L102.66,184.95L103.39,147.4L103.53,120.85L103.83,148.03L103.97,72.48L104.12,33.13L104.84,89.26L104.99,185.29L105.13,24.62L105.71,59.46L105.86,70.4L106,34.05L106.29,97.54L106.44,92.97L106.58,101.27L106.73,41.64L107.31,81.69L107.46,63.69L107.75,200.21L108.33,172.45L108.47,190L109.2,217.05L109.49,216.99L109.63,216.77L114.86,216.69L115.01,215.57L115.59,180.86L115.73,143.59L115.88,143.24L116.02,157.26L116.31,143.08L116.46,93L117.33,28.59L117.47,49.04L117.62,47.5L117.77,60.63L118.06,41.56L118.2,49.1L118.35,96.52L119.07,25.37L119.22,34.66L119.36,28.73L119.51,80.36L119.8,20.32L120.09,52.26L120.23,16.29L121.54,77.96L121.69,97.26L123.28,217.03L123.43,217.01L123.57,217.01L128.8,216.7L128.95,215.17L129.67,166.82L129.82,149.33L131.12,16.19L131.56,16.3L131.71,48.65L132.58,216.77L132.72,216.77L133.45,216.77L133.59,184.44L133.74,16.36L134.46,23.05L134.61,57.3L134.75,60.42L134.9,26.27L135.34,56.87L135.48,126.16L135.63,122.93L135.77,85.71L137.22,217.04L137.37,217.03L137.51,217.02L142.74,216.49L142.89,214.14L143.61,167.12L143.76,148.97L144.77,32.05L144.92,52.61L145.06,184.52L145.21,16.31L145.94,16.39L146.08,16.48L148.55,16.67L148.7,48.79L148.99,24.78L149.57,216.77L149.71,216.77L156.68,216.45L156.83,214.39L157.41,185.31L157.55,166.07L159.01,16.41L159.44,16.58L159.59,16.67L159.73,16.75L159.88,48.88L160.75,216.77L160.89,216.77L162.2,216.77L162.34,184.78L162.64,17.01L163.07,43.61L163.22,59.35L165.1,217.03L165.25,216.99L165.39,216.81L166.27,216.77L166.41,216.77L297.54,216.77L297.68,208.48L298.55,16.13L298.84,16.19L298.99,16.26L299.86,16.32L300,16.36L302.04,17.14L302.18,21.74L304.65,217.03L304.8,217.02L309.88,216.83L310.02,215.57L310.89,156.98L311.04,145.52L312.06,39.54L312.2,26.49L312.78,16.22L313.07,16.35L313.22,16.41L314.96,16.7L315.11,27.03L316.12,216.77L316.27,216.77L325.42,216.9L325.56,213.91L326.72,16.6L326.87,16.59L328.03,16.92L328.17,31.32L328.47,216.77L328.76,145.04L328.9,16.08L329.34,16.11L329.48,26.47L330.5,216.77L330.64,216.77L339.79,216.79L339.94,190.98L340.23,21.49L340.66,115.14L340.81,115.11L344.15,115.15L344.29,115.17L344.73,115.49L344.87,119.37L346.33,217.03L346.47,217.02L346.62,217.02L351.7,216.73L351.84,215.16L352.72,165.65L352.86,151.06L353.59,115.17L353.88,115.19L354.02,115.17L354.75,115.11L354.89,105.06L355.18,16.64L355.76,16.76L355.91,16.87L356.35,17.11L356.49,39.51L357.36,216.77L357.51,216.77L422.71,216.78L422.85,206.39L424.01,16.33L424.16,16.47L425.61,16.88L425.76,17.02L427.35,16.97L427.5,18.02L428.37,97.06L428.51,114.51L430.11,217.03L430.26,217.02L432,217.01" style="vector-effect: non-scaling-stroke; fill: none; stroke: rgb(255, 0, 0); stroke-opacity: 1; stroke-width: 2px; opacity: 1;"/></g><g class="points"/><g class="text"/></g><g class="trace scatter trace2e0e06" style="stroke-miterlimit: 2; opacity: 0.5;"><g class="fills"/><g class="errorbars"/><g class="lines"><path class="js-line" d="M0,247.61L0.29,248.14L0.44,246.44L0.87,246.73L1.02,247.91L1.89,245.63L2.03,245.66L2.18,245.78L2.32,246.87L2.47,247.94L2.9,246L3.05,246.23L3.19,247.29L3.34,246.09L3.49,246.1L3.63,240.26L4.5,194.14L4.65,161.27L5.66,58.78L5.95,64.42L6.1,63.93L6.39,68.16L6.53,60.26L7.55,79.18L7.7,82.15L8.28,70.94L8.42,85.44L9.29,72.62L9.44,85.51L9.87,115.7L10.02,137.6L11.33,253.27L11.62,250.71L11.76,249.36L12.49,247.07L12.78,247.28L12.92,243.07L13.07,221.89L13.36,248.43L13.5,248.04L13.65,246.31L14.38,248.23L14.52,246.56L14.67,246.52L14.81,247.89L15.1,248.22L15.68,245.99L15.83,247.74L15.97,245.9L16.26,247.96L16.55,247.97L16.7,246.26L17.28,248.17L17.43,246.79L17.57,243.59L18.3,233.29L18.44,218.35L19.31,188.29L19.46,168.3L20.47,80.52L20.62,79.52L21.06,64.21L21.35,65.91L21.49,75.92L21.64,75.22L21.78,84.41L22.51,74.43L22.65,81.37L22.94,82.84L23.09,78.88L23.23,83.63L23.81,126.52L23.96,149.24L24.54,204.94L24.69,218.98L25.27,250.46L25.7,249.69L25.85,248.09L25.99,247.97L26.14,248.76L26.28,249.98L27.01,245.53L27.15,248.71L27.44,249.48L27.59,248.07L27.74,246.18L28.61,248.42L28.75,248.45L29.48,245.98L29.62,247.49L29.91,248.22L30.2,245.92L30.49,246.37L30.64,241.58L30.78,221.84L31.22,248.21L31.37,247.6L32.09,243.01L32.24,237.21L32.82,168.5L32.96,75.44L33.83,216.77L33.98,216.77L34.27,192.07L34.41,69.76L35.14,99.1L35.43,95.08L35.58,103.13L35.72,98.54L35.87,105.37L36.3,103.06L36.45,104.93L36.74,108.08L36.88,105.87L37.03,99.57L37.32,106.24L37.46,123.18L39.21,254.5L39.35,254.46L39.5,251.7L39.64,254.11L39.93,250.84L40.08,252.34L40.22,249.78L40.66,254.11L40.95,252.87L41.09,249.18L41.24,252.19L41.53,247.91L41.68,223.2L41.97,251.81L42.55,246.11L42.69,247.13L43.13,247.97L43.27,246.26L43.42,247.49L43.56,247.56L43.85,247.93L44.43,246.17L44.58,246.39L44.72,246.14L44.87,247.56L45.31,245.45L45.45,238.74L46.61,184.46L46.76,175.54L46.9,172.89L47.05,124.78L47.48,82.08L47.92,90.98L48.06,89.27L48.21,89.56L48.35,98.97L48.79,92.76L49.08,110.9L49.23,103.86L49.81,88.82L49.95,91.9L50.1,96.71L50.24,87.29L50.53,115.7L50.68,198.23L50.82,103L51.11,216.77L51.4,216.77L51.55,216.77L52.71,216.77L52.86,223.42L53.29,256.02L53.73,250.34L53.87,253.73L54.02,253.46L54.16,251.13L54.45,243.1L54.6,222.17L54.74,249.11L55.47,248.94L55.62,248.91L56.05,249.53L56.49,247.05L56.63,248.17L56.78,245.61L57.36,247.36L57.5,248.16L58.23,245.91L58.37,247.49L58.66,221.78L58.81,246.55L58.96,248.35L59.25,245.08L59.39,238.43L60.12,216.5L60.7,216.77L60.84,216.77L62.15,216.77L62.3,198.87L62.44,192.34L62.59,112.18L62.73,84.76L63.17,112.35L63.31,107.53L63.46,118.66L63.75,122.28L63.89,112.59L64.18,101.38L64.33,105.49L64.47,116.09L64.91,100.2L65.2,101.06L65.34,108.49L67.38,257.33L67.52,251.31L67.67,256.47L67.81,246.55L67.96,223.84L68.25,254.41L68.83,249.24L68.97,247.02L69.27,249.3L69.41,246.18L69.56,247.77L69.7,243.19L70.57,216.77L70.72,216.77L72.02,216.77L72.17,221.63L72.46,247.78L72.9,241.41L73.04,221.16L73.19,242.87L73.62,216.77L73.77,216.77L75.94,216.77L76.09,195.92L76.24,194.53L76.38,130.45L76.53,192.38L76.96,82.07L77.11,49.56L77.98,216.77L78.12,216.77L86.11,216.77L86.25,221.57L86.84,247.98L87.13,244.45L87.27,242.94L88,193.17L88.14,174.83L89.59,65.68L89.89,75.59L90.03,80.78L90.32,78.4L90.76,87.53L90.9,86.26L91.05,83.7L91.34,195.82L91.48,88.64L91.63,90.96L91.77,91.76L91.92,91L92.06,97.58L92.35,101.44L92.93,79.05L93.08,79.77L94.97,250.99L95.26,249.8L95.4,252.56L96.13,244.77L96.27,249.86L96.56,245.27L96.71,248.88L96.86,250.14L97.29,246.86L97.73,247.5L97.87,248.01L98.16,248.36L98.6,246.13L98.74,248.73L99.47,246.83L99.61,248.63L99.76,249.47L100.05,247.27L100.19,247.14L100.34,248.01L100.49,246.16L100.78,246.36L100.92,246.72L101.07,247.94L101.21,245.83L101.36,246.46L101.5,243.44L101.94,238.79L102.23,242.11L102.37,242.32L103.68,146.14L103.83,185.44L104.12,73.47L104.7,86.21L104.84,123.23L104.99,191.94L105.13,65.72L105.42,86.76L105.57,96.65L106,82.42L106.58,152.87L106.73,86.5L107.75,207.78L107.89,163.07L108.91,249.61L109.34,248.58L109.49,243.27L110.36,216.77L110.5,216.77L110.94,216.77L111.09,221.52L111.81,248.26L111.96,248.07L112.1,247.03L112.68,248.17L112.83,245.79L113.7,248.1L113.84,247.02L113.99,246.93L114.14,247.95L114.43,248.01L115.15,240.56L115.3,229.65L116.31,194.39L116.46,142.3L116.6,87.36L117.18,150.34L117.33,91.99L117.47,112.18L117.62,112.55L117.77,132.32L118.35,162.12L118.49,102.86L118.64,118.39L118.78,82.15L119.36,95.73L119.51,148.67L119.8,71.82L120.38,93.62L120.52,103.26L120.67,87.45L121.11,103.5L121.25,91.32L121.4,124.68L121.54,124.15L121.69,152.14L122.99,254.06L123.14,248.12L123.28,247.11L123.86,246.16L124.15,248.21L124.3,247L124.74,246.37L124.88,248.02L125.03,246.55L125.32,248.08L125.46,243.96L125.61,231.39L126.04,247.86L126.19,247.15L126.33,248.09L126.77,247.9L126.91,246.49L127.78,247.74L127.93,246.71L128.22,246.93L128.37,246.27L128.51,246.7L128.66,246.11L128.8,246.26L128.95,244.24L129.96,185.55L130.11,169.17L131.27,66.92L131.56,70.08L131.71,92.17L132.58,216.77L132.72,216.77L133.45,216.77L133.59,196.21L134.17,89.57L134.46,96.66L134.61,131.15L134.9,89.79L135.19,110.19L135.34,113.49L136.21,193.63L136.35,224.93L136.79,253.29L137.22,248.25L137.37,246.3L138.24,250.63L138.39,249.35L138.53,251.01L139.11,250.87L139.26,249.2L139.4,251L139.69,247.93L139.84,241.62L139.98,221.55L140.42,247.8L140.56,246.75L141.14,247.49L141.43,247.21L141.58,246.66L141.87,246.45L142.02,246.8L142.16,247.45L142.89,243.98L143.03,239.05L144.05,193.29L144.19,179.75L144.77,81.23L144.92,94.26L145.06,193.33L145.5,60.44L145.94,75.06L146.08,82.13L146.95,76.53L147.1,77.2L147.68,69.1L147.82,73.84L147.97,78.11L148.7,105.25L148.84,195.27L148.99,84.38L149.42,137.85L149.57,216.77L151.45,216.77L151.6,223.91L151.89,255.74L152.47,247.01L152.62,246.81L153.2,248.29L153.34,247.41L153.49,247.28L153.78,246.85L153.92,248.05L154.21,247.62L154.36,247.09L155.08,247.15L155.23,246.75L155.96,246.76L156.1,246.64L156.39,231.63L156.54,246.18L156.83,243.97L156.97,240.39L157.12,243.16L157.26,240.7L157.41,234.16L159.01,83.2L159.44,83.23L159.59,79.77L159.73,67.22L159.88,92.29L160.02,216.77L162.2,216.77L162.34,197.64L162.78,95.99L163.07,120.3L163.22,131.61L164.67,263.74L164.96,258.81L165.1,251.37L166.56,216.77L166.7,216.77L168.01,216.77L168.15,221.53L168.44,247.88L169.02,246.74L169.17,247.65L169.46,241.5L169.61,216.77L297.54,216.77L297.68,213.85L298.26,145.47L298.41,80.59L298.55,63.58L299.13,77.05L299.28,67.43L300.15,86.41L300.29,79.28L301.02,95.47L301.17,91.62L301.31,91.35L301.6,91.96L301.75,95.19L302.04,88.09L302.33,100.15L302.47,122.18L304.22,260.94L304.51,258.66L304.65,251.13L304.8,258.9L304.94,250.55L305.38,252.02L305.52,252.76L305.81,254.88L305.96,249.9L306.25,251.88L306.39,252L306.54,253.53L306.68,249.59L306.83,252.79L306.97,249.36L307.12,250.1L307.26,248.67L307.41,248.88L307.55,248.32L307.99,247.45L308.28,248.49L308.43,248.42L309.3,248.08L309.44,246.83L309.59,248.02L309.73,246.35L310.02,246.71L310.17,239.72L311.62,172.43L311.77,126.09L312.2,79.44L312.78,94.26L312.93,88.59L313.51,104.72L313.65,96.81L313.8,96.41L313.94,102.04L314.09,94.88L314.23,97.18L314.38,85.49L315.25,171.95L315.4,256.29L315.83,282.4L315.98,255.44L316.12,274.14L316.27,257.9L316.41,270.42L316.99,268.59L317.14,253.09L317.57,263.93L317.72,252.17L317.86,262.67L318.01,251.49L318.45,265.49L318.59,250.8L318.74,250.13L319.32,248.45L319.46,248.68L319.61,249.7L320.04,247.17L320.48,248.38L320.62,248.05L321.06,246.96L321.2,248.94L321.35,248.36L321.5,246.49L322.22,246.66L322.37,248.25L323.24,246.75L323.38,248.11L324.25,246.75L324.4,246.72L324.83,254.05L324.98,260.45L325.42,262.5L325.71,229.77L325.85,196.48L326.58,120.75L326.72,189.14L327.59,102.86L327.74,88.71L327.88,84.51L328.03,92.43L328.17,105.57L328.61,285.49L328.9,198.11L329.05,132.36L329.34,110.9L329.48,136.21L329.63,209.04L330.21,304L330.5,295.61L330.64,266.98L330.79,279.99L331.37,266.35L331.51,264.19L332.1,254.31L332.24,262.61L332.97,250.07L333.11,254.63L333.55,248.32L333.98,249.68L334.13,249.96L334.56,251.47L334.71,248.99L334.85,250.21L335.73,248.02L335.87,248.74L336.02,249.83L336.31,247.5L336.45,248.37L336.6,248.29L337.03,246.82L337.32,248.52L337.47,248.64L337.61,248.94L337.76,247.44L338.63,251.55L338.78,257.97L339.5,269.33L339.65,262.34L339.79,274.17L339.94,231.26L340.08,207.76L340.23,117.75L340.66,252.73L340.81,188.05L340.95,242.07L341.1,203.71L341.68,208.56L341.82,213.36L341.97,206.16L342.41,213.46L342.55,206.6L342.7,213.43L343.13,204.47L343.42,214.09L343.57,218.21L343.71,217.8L343.86,223.46L344.15,224.76L344.44,209.31L344.73,210.62L344.87,214.83L345.02,214.76L345.16,218.73L346.04,260.63L346.18,251.12L346.33,254.94L346.62,259.33L346.76,250.52L347.05,253.55L347.2,252.17L347.34,248.44L347.92,249.35L348.07,250.34L348.21,250.9L348.36,247.68L348.65,250.68L348.94,248.48L349.09,247.23L349.52,249.88L349.67,248.59L349.81,246.47L350.25,248.59L350.68,248.12L350.83,246.71L351.41,248.22L351.55,245.69L351.7,247.99L351.84,245.47L351.99,240L353.01,198.87L353.15,191L353.44,179.51L353.59,202.5L353.88,200.35L354.02,183.19L354.46,211.21L354.75,203.4L354.89,195.99L355.18,154.57L355.62,160.17L355.76,171.93L356.06,185.44L356.2,142.71L356.35,196.94L356.49,160.64L356.78,272.91L356.93,298.83L357.22,301.58L357.36,260.28L357.65,260.4L357.8,294.16L358.23,256.45L358.52,257.21L358.67,274.94L359.54,258.6L359.69,257.08L359.83,258.89L359.98,251.58L360.12,254.8L360.27,250.86L360.41,256.04L360.85,249.43L360.99,252.2L361.14,249.96L361.28,250.65L361.43,248.62L361.57,247.85L361.86,247.52L362.01,248.65L362.44,248.5L362.59,248.25L362.88,249.78L363.32,248.15L363.46,248.15L363.61,247.61L363.75,248.44L364.33,247.82L364.48,248.41L364.62,246.74L365.35,246.87L365.49,247.93L365.78,247.32L365.93,248.08L366.07,246.6L366.37,247.05L366.51,250.82L366.66,251.81L366.8,260.81L366.95,251.67L367.38,261.58L367.53,253.64L367.67,260.02L367.82,255.55L367.96,261.25L368.11,256.01L368.25,266.84L368.54,270.09L368.69,264.96L368.83,272.85L369.12,280.18L369.56,257.47L369.85,262.15L370,268.15L370.14,267.98L370.29,282.61L370.72,256.49L371.01,258.29L371.16,285.94L371.88,256.65L372.03,280.29L372.46,255.64L372.75,256.26L372.9,270.57L373.77,255.77L373.92,262.39L374.64,251.56L374.79,254.31L374.93,250.19L375.22,249.76L375.37,252.56L375.8,251.88L375.95,249.67L376.09,252.89L376.53,249.35L376.67,248.27L376.82,247.89L377.11,248.63L377.26,249.38L377.98,247.35L378.13,248.3L378.27,247.76L378.56,248.09L379,246.69L379.14,248.01L379.43,248.71L379.58,248.56L379.72,247.36L380.6,250.38L380.74,249.64L380.89,249.37L381.32,248.6L381.47,249.25L381.61,249.73L381.76,250.49L382.05,249.94L382.19,254.56L382.63,255.42L382.77,250.27L383.06,250.93L383.21,258.06L383.35,251.1L383.94,253.63L384.08,254.9L384.37,252.31L384.52,261.28L384.95,258.98L385.1,257.66L385.53,251.35L385.97,252.22L386.11,255.05L386.26,254.79L386.4,249.95L386.55,254.68L386.84,247.56L387.13,251.41L387.28,250.07L387.42,254.17L387.86,249.44L388,249.17L388.44,252.62L388.58,247.63L388.73,248.69L389.16,249.08L389.74,247.82L389.89,248.56L390.03,249.36L390.32,246.79L390.47,248.25L390.62,247.79L391.2,248.31L391.34,246.61L391.49,247.34L391.63,248L391.78,246.35L391.92,247.78L392.07,246.12L392.79,248.59L392.94,246.74L393.23,246.43L393.37,248.01L393.66,247.22L393.81,247.57L393.95,246.49L394.25,248.38L394.39,248.94L395.26,250.37L395.41,248.82L396.42,257.12L396.57,252.66L397.44,262.26L397.59,264.12L397.88,266.53L398.02,259.26L398.31,263.36L398.46,270.24L399.47,292.73L399.62,284.9L399.76,285.68L399.91,274.23L400.05,283.57L400.63,273.83L400.78,280.52L401.36,265.72L401.65,267.76L401.8,265.31L401.94,267.09L402.09,261.37L402.23,261.64L402.38,262.09L402.67,254.1L403.25,254.81L403.39,255.32L403.68,257.56L403.97,254.71L404.12,248.91L404.26,248.27L404.41,249.66L404.56,250.58L404.85,247.41L405.28,247.79L405.43,249.25L406.01,247.15L406.3,247.22L406.44,248.88L407.02,247.41L407.31,247.58L407.46,247.55L408.04,246.97L408.62,252.35L408.77,250.66L409.35,254.64L409.49,250.66L409.64,251.41L409.78,250.68L409.93,251.8L410.07,254.03L410.22,252.48L410.36,256.39L410.65,252.86L410.8,254.8L411.09,257.24L411.23,265.84L411.53,264.73L413.12,291.11L413.27,288.03L413.41,294.21L413.56,283.72L413.85,288.53L413.99,281.39L414.28,279.71L414.43,288.24L414.57,281.39L414.72,280.38L414.87,279.96L415.01,274.35L415.3,269.87L415.45,276.75L416.46,261.09L416.61,258.99L416.75,258.4L416.9,259.91L417.04,255.44L417.77,258.22L417.91,253.97L418.21,253.47L418.5,257.09L418.79,255.86L418.93,253.44L419.08,254.86L419.22,249.19L419.37,247.74L419.66,247.07L419.8,248.89L419.95,246.87L420.67,246.62L420.82,247.99L420.96,247.61L421.25,248.03L421.69,246.19L421.84,246.58L421.98,247.22L422.13,246.81L422.27,252.78L422.56,267.09L422.85,253.82L423,204.22L423.87,145.09L424.16,145.76L424.3,165.38L424.59,166.59L425.03,137.58L425.18,164.83L425.32,134.02L425.76,171.03L425.9,142.34L426.05,181.6L426.19,136.46L426.34,199.18L426.77,137.53L426.92,195.21L427.64,127.52L427.79,197.67L427.93,149.41L428.37,209.09L428.51,194.48L428.66,214.99L429.53,266.21L429.97,260.22L430.11,254.87L430.26,258.23L430.4,250.73L430.55,256.01L430.69,250.23L430.98,250.19L431.56,254.37L431.71,250.47L432,254.41" style="vector-effect: non-scaling-stroke; fill: none; stroke: rgb(0, 128, 0); stroke-opacity: 1; stroke-width: 2px; opacity: 1;"/></g><g class="points"/><g class="text"/></g></g></g><g class="overplot"/><path class="xlines-above crisp" d="M0,0" style="fill: none;"/><path class="ylines-above crisp" d="M0,0" style="fill: none;"/><g class="overlines-above"/><g class="xaxislayer-above"><g class="xtick"><text text-anchor="middle" x="0" y="433" transform="translate(80,0)" style="font-family: 'Open Sans', verdana, arial, sans-serif; font-size: 12px; fill: rgb(42, 63, 95); fill-opacity: 1; white-space: pre; opacity: 1;"><tspan class="line" dy="0em" x="0" y="433">May 1</tspan><tspan class="line" dy="1.3em" x="0" y="433">2022</tspan></text></g><g class="xtick"><text text-anchor="middle" x="0" y="433" style="font-family: 'Open Sans', verdana, arial, sans-serif; font-size: 12px; fill: rgb(42, 63, 95); fill-opacity: 1; white-space: pre; opacity: 1;" transform="translate(177.57999999999998,0)">May 8</text></g><g class="xtick"><text text-anchor="middle" x="0" y="433" style="font-family: 'Open Sans', verdana, arial, sans-serif; font-size: 12px; fill: rgb(42, 63, 95); fill-opacity: 1; white-space: pre; opacity: 1;" transform="translate(275.15999999999997,0)">May 15</text></g><g class="xtick"><text text-anchor="middle" x="0" y="433" style="font-family: 'Open Sans', verdana, arial, sans-serif; font-size: 12px; fill: rgb(42, 63, 95); fill-opacity: 1; white-space: pre; opacity: 1;" transform="translate(372.74,0)">May 22</text></g><g class="xtick"><text text-anchor="middle" x="0" y="433" style="font-family: 'Open Sans', verdana, arial, sans-serif; font-size: 12px; fill: rgb(42, 63, 95); fill-opacity: 1; white-space: pre; opacity: 1;" transform="translate(470.32,0)">May 29</text></g></g><g class="yaxislayer-above"><g class="ytick"><text text-anchor="end" x="79" y="4.199999999999999" transform="translate(0,400.79)" style="font-family: 'Open Sans', verdana, arial, sans-serif; font-size: 12px; fill: rgb(42, 63, 95); fill-opacity: 1; white-space: pre; opacity: 1;">−40</text></g><g class="ytick"><text text-anchor="end" x="79" y="4.199999999999999" style="font-family: 'Open Sans', verdana, arial, sans-serif; font-size: 12px; fill: rgb(42, 63, 95); fill-opacity: 1; white-space: pre; opacity: 1;" transform="translate(0,358.78)">−20</text></g><g class="ytick"><text text-anchor="end" x="79" y="4.199999999999999" style="font-family: 'Open Sans', verdana, arial, sans-serif; font-size: 12px; fill: rgb(42, 63, 95); fill-opacity: 1; white-space: pre; opacity: 1;" transform="translate(0,316.77)">0</text></g><g class="ytick"><text text-anchor="end" x="79" y="4.199999999999999" style="font-family: 'Open Sans', verdana, arial, sans-serif; font-size: 12px; fill: rgb(42, 63, 95); fill-opacity: 1; white-space: pre; opacity: 1;" transform="translate(0,274.76)">20</text></g><g class="ytick"><text text-anchor="end" x="79" y="4.199999999999999" style="font-family: 'Open Sans', verdana, arial, sans-serif; font-size: 12px; fill: rgb(42, 63, 95); fill-opacity: 1; white-space: pre; opacity: 1;" transform="translate(0,232.76)">40</text></g><g class="ytick"><text text-anchor="end" x="79" y="4.199999999999999" style="font-family: 'Open Sans', verdana, arial, sans-serif; font-size: 12px; fill: rgb(42, 63, 95); fill-opacity: 1; white-space: pre; opacity: 1;" transform="translate(0,190.75)">60</text></g><g class="ytick"><text text-anchor="end" x="79" y="4.199999999999999" style="font-family: 'Open Sans', verdana, arial, sans-serif; font-size: 12px; fill: rgb(42, 63, 95); fill-opacity: 1; white-space: pre; opacity: 1;" transform="translate(0,148.74)">80</text></g><g class="ytick"><text text-anchor="end" x="79" y="4.199999999999999" style="font-family: 'Open Sans', verdana, arial, sans-serif; font-size: 12px; fill: rgb(42, 63, 95); fill-opacity: 1; white-space: pre; opacity: 1;" transform="translate(0,106.73)">100</text></g></g><g class="overaxes-above"/></g></g><g class="polarlayer"/><g class="smithlayer"/><g class="ternarylayer"/><g class="geolayer"/><g class="funnelarealayer"/><g class="pielayer"/><g class="iciclelayer"/><g class="treemaplayer"/><g class="sunburstlayer"/><g class="glimages"/><defs id="topdefs-e9d034"><g class="clips"/><clipPath id="legende9d034"><rect width="167" height="67" x="0" y="0"/></clipPath></defs><g class="layer-above"><g class="imagelayer"/><g class="shapelayer"/></g><g class="infolayer"><g class="legend" pointer-events="all" transform="translate(520.64,100)"><rect class="bg" shape-rendering="crispEdges" width="167" height="67" x="0" y="0" style="stroke: rgb(68, 68, 68); stroke-opacity: 1; fill: rgb(255, 255, 255); fill-opacity: 1; stroke-width: 0px;"/><g class="scrollbox" transform="" clip-path="url(#legende9d034)"><g class="groups"><g class="traces" transform="translate(0,14.5)" style="opacity: 1;"><text class="legendtext" text-anchor="start" x="40" y="4.680000000000001" style="font-family: 'Open Sans', verdana, arial, sans-serif; font-size: 12px; fill: rgb(42, 63, 95); fill-opacity: 1; white-space: pre;">BESS</text><g class="layers" style="opacity: 0.5;"><g class="legendfill"/><g class="legendlines"><path class="js-line" d="M5,0h30" style="fill: none; stroke: rgb(0, 191, 255); stroke-opacity: 1; stroke-width: 2px;"/></g><g class="legendsymbols"><g class="legendpoints"/></g></g><rect class="legendtoggle" x="0" y="-9.5" width="161.890625" height="19" style="fill: rgb(0, 0, 0); fill-opacity: 0;"/></g><g class="traces" transform="translate(0,33.5)" style="opacity: 1;"><text class="legendtext" text-anchor="start" x="40" y="4.680000000000001" style="font-family: 'Open Sans', verdana, arial, sans-serif; font-size: 12px; fill: rgb(42, 63, 95); fill-opacity: 1; white-space: pre;">Solar</text><g class="layers" style="opacity: 0.5;"><g class="legendfill"/><g class="legendlines"><path class="js-line" d="M5,0h30" style="fill: none; stroke: rgb(255, 0, 0); stroke-opacity: 1; stroke-width: 2px;"/></g><g class="legendsymbols"><g class="legendpoints"/></g></g><rect class="legendtoggle" x="0" y="-9.5" width="161.890625" height="19" style="fill: rgb(0, 0, 0); fill-opacity: 0;"/></g><g class="traces" transform="translate(0,52.5)" style="opacity: 1;"><text class="legendtext" text-anchor="start" x="40" y="4.680000000000001" style="font-family: 'Open Sans', verdana, arial, sans-serif; font-size: 12px; fill: rgb(42, 63, 95); fill-opacity: 1; white-space: pre;">Grid Meter (Net Load)</text><g class="layers" style="opacity: 0.5;"><g class="legendfill"/><g class="legendlines"><path class="js-line" d="M5,0h30" style="fill: none; stroke: rgb(0, 128, 0); stroke-opacity: 1; stroke-width: 2px;"/></g><g class="legendsymbols"><g class="legendpoints"/></g></g><rect class="legendtoggle" x="0" y="-9.5" width="161.890625" height="19" style="fill: rgb(0, 0, 0); fill-opacity: 0;"/></g></g></g><rect class="scrollbar" rx="20" ry="3" width="0" height="0" x="0" y="0" style="fill: rgb(128, 139, 164); fill-opacity: 1;"/></g><g class="g-gtitle"><text class="gtitle" x="296" y="50" text-anchor="middle" dy="0em" style="font-family: 'Open Sans', verdana, arial, sans-serif; font-size: 17px; fill: rgb(42, 63, 95); opacity: 1; font-weight: normal; white-space: pre;"><tspan class="line" dy="0em" x="296" y="50">Scenario 5</tspan><tspan class="line" dy="1.3em" x="296" y="50">Microgrid Output</tspan><tspan class="line" dy="2.6em" x="296" y="50">From: May 01, 2022 to May 31, 2022</tspan></text></g><g class="g-xtitle"><text class="xtitle" x="296" y="477.409375" text-anchor="middle" style="font-family: 'Open Sans', verdana, arial, sans-serif; font-size: 14px; fill: rgb(42, 63, 95); opacity: 1; font-weight: normal; white-space: pre;">Time</text></g><g class="g-ytitle"><text class="ytitle" transform="rotate(-90,33.60625,260)" x="33.60625" y="260" text-anchor="middle" style="font-family: 'Open Sans', verdana, arial, sans-serif; font-size: 14px; fill: rgb(42, 63, 95); opacity: 1; font-weight: normal; white-space: pre;">Demand (kW)</text></g></g></svg>