<svg class="main-svg" xmlns="http://www.w3.org/2000/svg" xmlns:xlink="http://www.w3.org/1999/xlink" width="700" height="500" style="" viewBox="0 0 700 500"><rect x="0" y="0" width="700" height="500" style="fill: rgb(255, 255, 255); fill-opacity: 1;"/><defs id="defs-944593"><g class="clips"><clipPath id="clip944593xyplot" class="plotclip"><rect width="437" height="320"/></clipPath><clipPath class="axesclip" id="clip944593x"><rect x="80" y="0" width="437" height="500"/></clipPath><clipPath class="axesclip" id="clip944593y"><rect x="0" y="100" width="700" height="320"/></clipPath><clipPath class="axesclip" id="clip944593xy"><rect x="80" y="100" width="437" height="320"/></clipPath></g><g class="gradients"/><g class="patterns"/></defs><g class="bglayer"/><g class="layer-below"><g class="imagelayer"/><g class="shapelayer"/></g><g class="cartesianlayer"><g class="subplot xy"><g class="layer-subplot"><g class="shapelayer"/><g class="imagelayer"/></g><g class="minor-gridlayer"><g class="x"/><g class="y"/></g><g class="gridlayer"><g class="x"><path class="xgrid crisp" transform="translate(178.70999999999998,0)" d="M0,100v320" style="stroke: rgb(255, 255, 255); stroke-opacity: 1; stroke-width: 1px;"/><path class="xgrid crisp" transform="translate(277.41999999999996,0)" d="M0,100v320" style="stroke: rgb(255, 255, 255); stroke-opacity: 1; stroke-width: 1px;"/><path class="xgrid crisp" transform="translate(376.13,0)" d="M0,100v320" style="stroke: rgb(255, 255, 255); stroke-opacity: 1; stroke-width: 1px;"/><path class="xgrid crisp" transform="translate(474.84,0)" d="M0,100v320" style="stroke: rgb(255, 255, 255); stroke-opacity: 1; stroke-width: 1px;"/></g><g class="y"><path class="ygrid crisp" transform="translate(0,388.72)" d="M80,0h437" style="stroke: rgb(255, 255, 255); stroke-opacity: 1; stroke-width: 1px;"/><path class="ygrid crisp" transform="translate(0,319.01)" d="M80,0h437" style="stroke: rgb(255, 255, 255); stroke-opacity: 1; stroke-width: 1px;"/><path class="ygrid crisp" transform="translate(0,179.57)" d="M80,0h437" style="stroke: rgb(255, 255, 255); stroke-opacity: 1; stroke-width: 1px;"/><path class="ygrid crisp" transform="translate(0,109.85)" d="M80,0h437" style="stroke: rgb(255, 255, 255); stroke-opacity: 1; stroke-width: 1px;"/></g></g><g class="zerolinelayer"><path class="yzl zl crisp" transform="translate(0,249.29)" d="M80,0h437" style="stroke: rgb(255, 255, 255); stroke-opacity: 1; stroke-width: 2px;"/></g><path class="xlines-below"/><path class="ylines-below"/><g class="overlines-below"/><g class="xaxislayer-below"/><g class="yaxislayer-below"/><g class="overaxes-below"/><g class="plot" transform="translate(80,100)" clip-path="url(#clip944593xyplot)"><g class="scatterlayer mlayer"><g class="trace scatter traced1dcfe" style="stroke-miterlimit: 2; opacity: 0.5;"><g class="fills"/><g class="errorbars"/><g class="lines"><path class="js-line" d="M0,149.29L437,149.29" style="vector-effect: non-scaling-stroke; fill: none; stroke: rgb(0, 191, 255); stroke-opacity: 1; stroke-width: 2px; opacity: 1;"/></g><g class="points"/><g class="text"/></g><g class="trace scatter trace6772fd" style="stroke-miterlimit: 2; opacity: 0.5;"><g class="fills"/><g class="errorbars"/><g class="lines"><path class="js-line" d="M0,149.45L3.38,149.38L3.53,148.65L4.26,122.75L4.41,110.85L5.88,16.1L6.17,16.15L6.32,16.19L9.4,16.81L9.55,20.05L11.9,149.46L12.05,149.45L17.63,148.86L17.77,146.96L18.36,135.37L18.51,128.85L20.27,16L20.86,16.19L21.01,16.18L23.36,16.47L23.5,17.38L24.38,76.08L24.53,88.22L26,149.46L26.15,149.45L32.02,149.03L32.17,148.04L32.76,132.14L32.9,116.57L33.34,55.46L33.49,149.29L34.52,149.29L34.67,127.29L34.81,16.2L35.55,16.27L35.69,16.29L37.46,16.37L37.6,17.4L38.49,77.45L38.63,89.89L40.1,149.46L40.25,149.45L45.68,149.24L45.83,148.13L46.56,117.59L46.71,106.36L48.18,16.14L48.62,16.26L48.77,16.31L50.97,16.59L51.12,38.39L51.41,16.56L52,149.29L52.15,149.29L53.47,149.07L53.62,148.18L54.5,149.45L54.64,149.45L59.78,149.21L59.93,147.98L60.81,119.96L60.96,149.29L62.87,149.29L63.02,127.48L63.6,16.38L63.9,16.51L64.04,16.51L65.81,16.56L65.95,18.14L66.98,103.5L67.13,120.44L68.3,149.46L68.45,149.46L72.56,149.29L72.71,149.29L73.89,149.1L74.03,147.61L74.33,144.19L74.47,149.29L74.62,149.29L74.77,149.29L76.82,149.29L76.97,127.54L77.12,16.36L77.85,16.51L78,38.28L78.88,149.29L79.03,149.29L87.99,149.3L88.13,148.46L88.72,131.41L88.87,120.95L90.48,16.11L90.93,16.2L91.07,16.23L92.1,16.16L92.25,37.95L92.39,127.6L92.69,16.21L92.83,16.24L92.98,16.29L94.01,16.57L94.16,18.65L96.65,149.46L96.8,149.45L102.38,149.07L102.53,147.98L104.59,103.24L104.73,85.61L105.03,103.65L105.17,53.5L105.32,27.37L106.06,64.63L106.2,128.39L106.35,21.72L106.94,44.85L107.08,52.11L107.23,27.98L107.52,70.13L107.67,67.1L107.82,72.61L107.96,33.02L108.55,59.61L108.7,47.66L108.99,138.29L109.58,119.86L109.73,131.51L110.61,149.47L110.76,149.43L111.93,149.29L112.08,149.29L116.19,149.23L116.34,148.49L116.93,125.45L117.07,100.7L117.22,100.47L117.37,109.78L117.66,100.37L117.81,67.12L118.69,24.36L118.83,37.94L118.98,36.91L119.13,45.63L119.42,32.97L119.57,37.98L119.72,69.45L120.45,22.22L120.6,28.39L120.74,24.45L120.89,58.73L121.18,18.87L121.48,40.07L121.63,16.19L122.95,57.14L123.09,69.95L124.71,149.46L124.86,149.45L125,149.45L130.29,149.24L130.44,148.23L131.17,116.13L131.32,104.51L132.64,16.13L133.08,16.2L133.23,37.67L134.11,149.29L134.26,149.29L134.99,149.29L135.14,127.82L135.29,16.24L136.02,20.68L136.17,43.42L136.31,45.49L136.46,22.82L136.9,43.14L137.05,89.13L137.2,86.99L137.34,62.28L138.96,149.46L139.11,149.45L144.39,149.1L144.54,147.54L145.13,128.75L145.27,116.32L146.45,26.65L146.6,40.3L146.74,127.88L146.89,16.2L147.63,16.26L147.77,16.32L150.27,16.44L150.42,37.77L150.71,21.83L151.3,149.29L151.44,149.29L158.5,149.07L158.64,147.71L159.23,128.4L159.38,115.63L160.85,16.27L161.29,16.39L161.43,16.45L161.58,16.5L161.73,37.83L162.61,149.29L162.75,149.29L164.08,149.29L164.22,128.05L164.52,16.67L164.96,34.33L165.11,44.78L167.01,149.46L167.16,149.43L167.31,149.31L168.48,149.29L168.63,149.29L300.98,149.29L301.13,143.78L302.01,16.09L302.3,16.13L302.45,16.18L303.62,16.24L303.77,16.26L305.39,16.35L305.53,16.76L305.97,37.13L306.12,47.06L308.18,149.46L308.32,149.45L313.46,149.33L313.61,148.49L314.49,109.59L314.64,101.99L316.4,16.14L316.7,16.23L316.84,16.28L318.61,16.46L318.75,23.33L319.78,149.29L319.93,149.29L329.18,149.37L329.33,147.38L330.5,16.4L330.65,16.39L331.83,16.61L331.97,26.17L332.27,149.29L332.56,101.67L332.71,16.05L333.15,16.07L333.3,22.95L334.32,149.29L334.47,149.29L343.72,149.3L343.87,132.16L344.17,19.64L344.61,81.82L344.75,81.8L347.54,81.83L347.69,81.81L348.72,82.05L348.87,84.62L350.33,149.46L350.48,149.45L350.63,149.45L355.77,149.26L355.92,148.22L356.94,105.66L357.09,95.12L357.83,81.84L357.97,81.85L358.12,81.84L358.85,81.8L359,75.13L359.29,16.43L359.88,16.51L360.03,16.58L360.47,16.74L360.62,31.61L361.5,149.29L361.65,149.29L427.6,149.29L427.75,142.4L428.77,18.37L428.92,16.22L430.98,16.63L431.12,16.58L432.45,17.34L432.59,22.42L435.09,149.46L435.24,149.45L435.38,149.45L437,149.45" style="vector-effect: non-scaling-stroke; fill: none; stroke: rgb(255, 0, 0); stroke-opacity: 1; stroke-width: 2px; opacity: 1;"/></g><g class="points"/><g class="text"/></g><g class="trace scatter trace9f5364" style="stroke-miterlimit: 2; opacity: 0.5;"><g class="fills"/><g class="errorbars"/><g class="lines"><path class="js-line" d="M0,169.76L0.15,169.23L0.29,171.77L1.18,168.93L1.32,169.94L2.06,168.47L2.2,168.54L2.35,169.26L2.5,170.11L2.94,168.69L3.08,168.85L3.67,234.6L3.82,183.76L3.97,168.38L4.55,131.95L4.7,120.06L5.73,44.4L6.17,55.85L6.32,58.43L6.61,55.43L6.9,70L7.34,66.31L7.49,65.52L8.08,142.79L8.23,90.99L9.11,63.3L9.25,61.15L9.4,53.59L9.69,65.48L9.84,75.88L10.87,150.41L11.02,215.97L11.31,244.09L11.46,188.3L11.6,174.63L12.63,169.69L12.78,170.78L13.07,167.05L13.22,152.46L13.66,171.12L14.1,168.95L14.25,170.21L14.54,171.73L15.13,168.84L15.28,170.16L15.42,170.97L15.57,168.96L15.72,169.93L15.86,168.69L16.01,169.85L16.16,224.4L16.75,225.94L17.04,168.87L17.19,177.37L17.48,180.52L17.63,171.31L18.8,139.99L19.1,145.23L19.24,145.45L19.54,137.24L19.68,182.92L20.71,80.92L20.86,86.28L21.01,123.91L21.15,133.2L21.3,80.02L21.45,72.74L21.89,75.39L22.03,137.27L22.18,148.24L22.33,141.23L22.47,82.86L22.77,64.83L23.21,70.41L23.36,75.81L23.5,72.95L23.8,77.09L23.94,93.88L24.82,149.46L24.97,160.79L25.56,183.37L25.85,174.38L26,174.68L26.88,169.67L27.03,170.38L27.32,168.77L27.91,171.66L28.06,169.21L28.2,170.26L28.35,169.08L28.64,169.88L28.79,168.97L28.94,170.6L29.53,168.84L29.67,170.19L30.26,170.43L30.55,168.64L30.7,169.12L30.85,168.94L30.99,165.76L31.14,152.65L31.58,170.43L31.73,225.59L32.46,166.7L32.61,170.89L32.76,167.02L32.9,213.04L33.2,201.03L33.34,89.48L34.08,237.08L34.23,231.05L34.37,173.27L34.67,152.97L34.81,71.77L35.4,89.58L35.55,83.22L35.69,78.4L35.84,78.54L35.99,83.88L36.14,72.81L36.72,73.79L36.87,75.04L38.78,157.25L38.93,222.59L39.22,248.81L39.37,190.04L39.51,178.26L39.66,179.14L39.81,176.3L40.1,177.55L40.25,175.37L40.54,174.08L40.69,177.59L40.84,174.6L40.98,174.98L41.28,175.28L41.42,174.23L41.57,172.93L41.86,175.67L42.01,171.46L42.16,153.19L42.6,174.37L42.75,172.92L43.48,169.1L43.63,170.43L44.51,168.93L44.65,169.45L44.8,169.57L44.95,168.81L45.1,224.72L45.24,238.5L45.39,183.67L45.54,169.36L45.83,168.33L45.98,163.87L46.27,225.63L46.56,162.66L46.71,137.04L48.03,79.95L48.18,83.09L48.33,141.07L48.47,155.58L48.62,154.44L48.77,90.83L49.21,79.08L49.36,85.03L49.5,92.24L49.65,99.08L50.09,92.12L50.24,92.76L50.38,76.39L50.82,63.33L50.97,66.74L51.12,82.19L51.41,73.76L52,149.29L52.15,157.32L53.03,159.33L53.17,159.33L53.47,155.71L53.62,177.53L53.76,183.25L54.2,176.51L54.35,174.79L54.5,177.37L54.79,176.45L54.94,171.55L55.23,152.77L55.38,171.07L55.52,173.53L55.97,169.57L56.11,174.2L56.41,169.87L56.55,171.76L57.14,169.52L57.29,172.94L57.43,169.13L57.87,176.88L58.02,179.64L58.17,181.32L58.32,179.52L58.46,171.71L58.9,168.75L59.05,169.68L59.2,222.1L59.78,239.83L60.08,163.67L60.23,160.96L60.81,145.17L61.25,149.29L61.4,149.29L62.28,177.4L62.43,171.37L62.58,169.37L63.02,139.41L63.16,83.16L63.46,71.69L63.6,141.03L63.75,161.09L63.9,113.99L64.04,96.85L64.63,108.23L64.78,107.97L64.93,102.8L65.22,122.61L65.51,109.91L65.66,93.98L65.95,92.55L66.54,112.73L66.69,129.97L67.72,195.87L68.16,178.4L68.3,177.97L68.45,179.9L68.6,170.54L68.74,153.4L69.04,175.78L69.19,174.86L69.33,173.94L69.63,175.45L70.51,167.3L70.65,149.42L71.83,149.29L71.98,149.29L72.86,149.29L73,152.51L73.89,221.92L74.03,180.56L75.21,149.29L75.35,149.29L76.09,149.29L76.24,221.12L76.53,239.08L76.68,183.31L76.82,217.11L76.97,207.17L78,38.28L78.15,149.29L79.47,149.29L79.61,157.32L80.2,169.37L80.35,161.33L80.64,169.37L80.94,159.33L81.08,159.33L81.38,159.33L81.52,151.29L82.41,149.29L82.55,149.29L86.52,149.29L86.67,205.06L87.11,149.29L87.4,179.18L87.55,180.54L87.69,186.93L88.13,178.11L88.28,176.7L88.43,181.01L88.58,226.25L89.6,91.86L89.75,140.65L89.9,151.86L90.04,92.33L90.34,62.31L90.78,66.36L90.93,73.63L91.81,83.57L91.95,82.72L92.1,81.02L92.25,99.36L92.39,155.46L92.69,75.8L92.83,76.34L92.98,75.83L93.13,80.2L93.28,64.69L93.42,72.72L93.57,64.56L94.01,57.86L95.63,162.84L95.77,225.57L96.07,246.28L96.21,242.67L96.36,191.23L97.24,169.05L97.39,171.44L97.54,175.35L97.68,169.43L98.12,171.89L98.27,170.08L98.42,169.26L98.56,172.29L98.71,173.8L99.15,169.59L99.45,170.35L99.59,171.33L99.74,169.1L99.89,178.53L100.03,182.61L100.33,179.98L100.47,172.11L100.62,169.27L101.35,169.44L101.5,170.54L101.8,168.81L102.09,169.17L102.24,226.41L102.38,238.46L102.53,182.94L102.68,222.77L102.82,179.09L103.26,185.37L103.41,186.19L103.56,186.32L103.7,173.38L104.59,147.83L104.73,193.6L104.88,194.2L105.03,218.29L105.91,72.65L106.06,105.26L106.2,144.85L106.35,59.05L106.64,73.02L106.79,79.58L107.08,85.86L107.23,60.09L107.82,106.86L107.96,62.8L108.99,153.36L109.14,123.68L109.87,174.16L110.46,170.56L110.61,171.08L111.64,149.29L111.78,157.32L112.37,162.48L112.52,178.85L112.81,181.09L112.96,171.59L113.69,169.53L113.84,170.07L113.99,172.37L114.13,169.11L114.43,179.13L114.57,179.98L115.31,169.31L115.46,170.14L115.6,177.07L115.75,180.06L116.04,171.16L116.19,168.47L116.34,168.05L116.48,165.08L116.63,165.87L116.78,165.02L116.93,162.42L117.22,189.22L117.95,83.46L118.1,112.42L118.39,166.27L118.54,131.17L118.69,76.49L118.98,159.86L119.42,85.33L119.57,97.66L119.72,141.12L120.16,90.03L120.3,90L120.74,70.94L120.89,159.85L121.04,168.81L121.18,140.85L121.33,151.24L121.48,110.04L121.63,75.31L122.36,79.77L122.51,84.13L122.65,76.04L122.8,98.19L122.95,97.84L123.09,108.39L123.24,113.24L123.39,143.47L124.12,172.9L124.27,177.56L125.3,168.96L125.44,169.47L125.59,171.14L126.03,170.65L126.18,169.1L126.33,170.27L126.77,170.19L126.91,167.36L127.06,158.99L127.5,169.92L127.65,169.46L127.79,170.1L128.24,169.95L128.38,169.02L129.26,169.85L129.41,169.16L130,169.15L130.15,168.76L130.29,168.86L130.44,167.52L131.47,126.27L131.61,117.69L132.79,51.81L133.08,51.9L133.23,66.57L134.26,249.12L134.41,249.12L134.85,239.08L134.99,191.34L135.73,74.88L135.87,77.69L136.02,135.36L136.17,164.17L136.46,78.93L136.61,72.26L136.9,80.72L137.05,121.03L137.2,120.42L137.34,92.54L137.78,133.93L137.93,154.7L138.37,181.25L138.81,171.63L138.96,169.24L139.25,169.1L140.13,174.04L140.28,173.22L140.43,172.86L140.57,174.55L141.46,165.78L141.6,152.46L142.34,225.17L142.48,183.18L142.63,177.31L142.78,179.72L143.37,179.1L143.51,179.03L143.81,179.69L143.95,171.25L145.13,152.58L145.27,203.31L145.42,204.98L145.57,138.17L146.45,69.34L146.6,77.99L146.74,135.73L147.33,140.68L147.77,71.95L147.92,66.86L148.07,66.85L148.21,69.79L148.36,67.76L148.51,69.7L148.65,122L149.09,129.89L149.24,77.33L149.39,61.29L149.98,72.57L150.12,74.24L150.27,63.71L150.42,75.25L150.56,190.79L151.15,96.89L151.3,149.29L151.44,157.32L152.33,159.33L152.47,159.33L153.21,149.29L153.35,154.03L153.5,178.74L154.09,169.11L154.24,169.36L154.38,169.23L154.53,169.65L154.68,171.18L155.56,169.32L155.7,170.05L156.59,169.29L156.73,169.3L157.32,169.18L157.47,177.32L158.05,167.1L158.2,167.18L158.35,178.85L158.5,186.68L158.79,175.01L158.94,176.85L159.08,167.18L159.23,160.83L159.38,209.43L160.4,83.2L160.55,80.15L160.85,70.65L160.99,135.82L161.14,159.6L161.43,88.46L161.58,88.16L161.73,106.81L161.87,237.19L162.02,241.09L162.17,239.08L162.31,183.31L162.9,149.29L163.05,213.09L163.49,229.04L163.64,173.27L164.66,89.18L164.96,97.29L165.11,102.79L165.84,136.01L165.99,152.49L166.72,191.98L167.16,187.21L167.31,163.33L167.46,180.33L167.9,151.29L168.04,149.29L169.95,149.29L170.1,152.44L170.69,225.37L170.83,183.11L170.98,169.18L171.13,169.79L171.27,168.81L171.42,165.7L172.3,149.29L172.45,157.32L172.74,169.37L173.04,151.29L173.18,149.29L173.48,149.29L173.62,157.32L173.92,159.33L174.07,207.07L174.21,219.01L174.36,163.23L174.8,149.29L174.95,165.35L175.09,169.37L175.24,177.4L175.53,161.33L175.68,159.33L175.98,149.29L176.27,167.36L176.42,169.37L177,169.37L177.15,177.4L177.44,179.4L177.59,171.37L178.62,149.29L178.77,157.32L179.5,177.4L179.65,171.37L179.79,161.33L181.41,149.29L181.56,149.29L182.73,149.29L182.88,205.06L183.03,219.01L183.17,163.23L183.32,149.29L186.55,149.29L186.7,157.32L186.99,229.04L187.43,159.33L187.58,159.33L188.31,149.29L188.46,205.06L188.61,219.01L188.75,163.23L188.9,149.29L189.34,149.29L189.49,157.32L190.81,177.4L190.96,171.37L191.1,161.33L191.69,151.29L191.84,157.32L191.99,159.33L192.72,159.33L192.87,151.29L193.75,149.29L193.9,149.29L194.48,229.04L194.63,173.27L194.78,159.33L195.22,159.33L195.36,215.1L195.51,221.01L195.66,219.01L195.81,171.26L196.69,159.33L196.83,159.33L197.71,149.29L197.86,149.29L198.45,149.29L198.6,157.32L198.89,159.33L199.04,151.29L199.48,149.29L199.62,205.06L200.51,151.29L200.65,149.29L200.8,149.29L200.95,157.32L201.53,159.33L201.68,151.29L201.83,157.32L201.97,215.1L202.12,229.04L202.27,173.27L202.71,149.29L203,159.33L203.15,159.33L203.3,159.33L203.44,167.36L203.74,169.37L203.88,233.17L204.18,249.12L204.33,193.35L204.91,159.33L205.06,207.07L205.21,227.04L205.35,173.27L205.5,159.33L206.23,179.4L206.38,171.37L206.53,169.37L206.82,169.37L206.97,161.33L207.41,149.29L207.56,205.06L207.7,219.01L207.85,163.23L208,149.29L213.43,149.29L213.58,157.32L214.02,159.33L214.17,151.29L214.75,219.01L214.9,163.23L215.05,149.29L216.08,149.29L216.22,157.32L216.52,225.14L216.66,239.08L217.55,159.33L217.69,159.33L217.84,159.33L217.99,167.36L218.87,169.37L219.01,169.37L219.45,239.08L219.75,169.37L219.9,161.33L220.63,149.29L220.78,157.32L221.95,169.37L222.1,169.37L222.25,169.37L222.39,161.33L224.01,149.29L224.16,149.29L228.86,149.29L229,157.32L229.44,159.33L229.59,151.29L229.88,149.29L230.03,213.09L230.62,151.29L230.77,205.06L230.91,235.07L231.79,163.34L231.94,159.33L232.38,149.29L232.67,159.33L232.82,159.33L233.26,229.04L233.56,159.33L233.7,159.33L234.44,169.37L234.58,161.33L236.2,149.29L236.35,149.29L242.66,149.29L242.81,157.32L243.25,159.33L243.4,151.29L243.69,149.29L243.84,157.32L244.28,159.33L244.43,151.29L244.72,149.29L244.87,165.35L245.6,235.18L245.75,185.32L245.9,161.33L246.04,167.36L246.19,225.14L246.92,171.37L247.07,177.4L247.22,179.4L248.25,169.37L248.39,169.37L248.98,159.33L249.27,161.33L249.42,159.33L250.15,159.33L250.3,151.29L251.18,149.29L251.33,149.29L253.24,149.29L253.39,157.32L254.27,159.33L254.41,159.33L254.56,159.33L254.71,151.29L255.59,149.29L255.74,149.29L257.65,149.29L257.79,157.32L258.23,237.08L258.53,159.33L258.67,159.33L259.56,149.29L259.7,205.06L259.85,219.01L260,163.23L260.14,149.29L261.02,159.33L261.17,159.33L262.35,159.33L262.49,151.29L263.38,239.08L263.52,231.05L264.4,159.33L264.55,159.33L264.84,167.36L265.28,159.33L265.43,159.33L265.87,159.33L266.02,151.29L266.9,149.29L267.05,149.29L268.81,149.29L268.96,157.32L269.25,159.33L269.4,151.29L270.28,149.29L270.43,149.29L272.19,149.29L272.34,213.09L273.07,151.29L273.22,157.32L273.36,159.33L273.8,159.33L273.95,151.29L274.1,149.29L274.25,157.32L274.69,169.37L274.83,225.14L274.98,239.08L275.13,183.31L275.57,171.37L275.71,225.14L276.01,239.08L276.15,183.31L277.04,149.29L277.18,149.29L283.94,149.29L284.09,205.06L284.97,149.29L285.11,149.29L285.56,149.29L285.7,157.32L286,159.33L286.14,151.29L286.88,149.29L287.02,157.32L287.91,169.37L288.05,169.37L288.49,169.37L288.64,225.14L289.23,159.33L289.52,171.26L289.67,215.1L290.26,247.12L290.4,193.35L290.99,159.33L291.28,169.37L291.43,169.37L291.73,169.37L291.87,177.4L292.31,179.4L292.46,171.37L293.05,159.33L293.19,207.07L293.49,219.01L293.63,163.23L294.52,149.29L294.66,149.29L299.66,149.29L299.8,157.32L299.95,159.33L300.1,215.1L300.69,219.01L300.98,149.29L301.13,147.34L301.27,138.46L301.42,156.91L301.57,93.82L301.71,103.19L301.86,60.89L302.01,47.58L302.3,61.16L302.45,59.5L302.59,130.38L302.74,147.97L302.89,99.31L303.04,79.77L304.06,59.48L304.21,122.48L304.8,143.77L304.95,90.22L305.09,76.47L305.24,86.64L305.39,146.96L305.68,161.59L305.83,105.89L305.97,106.57L306.12,112.87L307.59,184.13L307.74,181.29L307.88,183.59L308.32,179.16L308.47,176.7L308.62,177.61L308.76,174.79L308.91,175.32L309.06,174.7L309.21,177.87L309.5,174.42L309.79,174.91L309.94,176.75L310.97,171.17L311.11,171.52L311.41,171.82L311.56,170.05L312,170.35L312.14,170.96L312.29,170.06L312.44,171.01L312.58,226.05L313.32,169.02L313.46,177.55L313.61,179.2L314.79,132.48L314.93,117.53L315.82,58.11L316.11,59.42L316.26,71.85L316.55,140.05L316.7,105.68L316.84,80.83L316.99,90.04L317.28,79.69L317.43,135.2L317.58,160.91L317.87,87.96L318.02,82.21L318.46,158.74L318.75,88.12L318.9,129.57L319.19,215.52L319.78,204.12L319.93,201.29L320.22,200.07L320.52,204.47L320.66,197.87L320.81,201.84L321.25,194.03L321.4,192.91L321.54,192.67L321.69,181.34L321.84,180.58L321.98,185.42L322.13,184.57L322.28,187.13L322.43,175.25L322.87,175.81L323.31,171.52L323.45,172.2L324.48,169.39L324.63,170.65L324.78,169.47L325.07,172.44L325.22,169.55L325.36,170.89L325.95,169.21L326.1,170.82L326.24,170.09L326.39,227L326.98,169.28L327.13,170.11L327.27,169.43L327.42,177.46L327.57,180.44L327.71,171.31L327.86,170.25L328.15,169.17L328.3,169.79L328.45,173.94L329.18,198.36L329.33,191.58L329.48,160.63L329.92,81.69L330.21,144.04L330.36,157.8L330.5,162.47L330.65,160.17L330.8,122.39L331.68,81.56L331.83,134.56L332.27,228.45L332.41,218.69L332.56,176.3L332.71,92.58L333.3,115.88L333.44,156.2L333.59,237.52L334.18,221.79L334.32,218.48L335.35,190.66L335.5,188.43L335.65,187.77L335.79,182.91L335.94,184.34L336.38,181.71L336.53,181.05L337.41,171.38L337.55,173.8L337.7,174.42L337.85,174.07L338,172.02L338.14,171.94L338.29,174.17L339.17,170.64L339.46,170.84L339.61,170.03L339.91,171.77L340.2,169.87L340.35,170.43L340.49,170.35L340.79,171.22L340.93,169.51L341.23,170.44L341.37,179.83L341.52,181.02L341.67,179.69L341.81,228.5L342.11,170.03L342.4,240.27L342.7,182.62L342.84,183.8L342.99,186.13L343.14,247.8L343.28,266.47L343.43,206.64L343.58,206.34L343.72,203.98L343.87,183.14L344.17,76.24L344.61,136.39L344.75,198.83L344.9,209.2L345.05,158.04L345.19,144.97L345.63,172.36L345.78,170.93L346.37,143.87L346.66,153.55L346.81,159.26L347.1,154.87L347.25,161.6L347.84,163.1L348.57,136.83L348.72,142.45L348.87,136.01L349.01,144.96L349.16,144.79L349.31,160.18L349.6,173.94L349.75,231.17L349.89,252.26L350.19,199.59L350.33,178.01L350.48,181.74L350.78,175.55L350.92,178.26L351.07,177.28L351.22,176.47L351.36,171.05L351.66,175.2L352.1,174.28L352.24,172.56L353.13,169.51L353.27,171.08L353.42,172.09L353.71,171.38L353.86,169.22L354.45,172.56L354.74,170.8L354.89,169.34L355.48,172.78L355.62,169.14L355.77,170.01L355.92,224.12L356.8,146.9L356.94,194.25L357.24,134.1L357.53,201.74L357.83,145.17L357.97,136.66L358.41,211.13L358.56,152.33L358.71,129.27L358.85,132.52L359,126.3L359.15,90.91L359.59,74.28L359.88,79.31L360.03,90.24L360.18,76.53L360.62,98.78L360.76,197.18L361.5,304L361.65,289.7L361.79,241.77L362.23,221.07L362.38,262.13L362.53,273.91L362.67,272.5L362.82,221.42L362.97,199.73L363.26,264.02L363.41,261.15L364.29,176.64L364.44,181.26L365.46,172.4L365.61,174.02L366.05,170.41L366.49,170.61L366.64,170.58L366.79,170.22L366.93,173.99L367.52,170.12L367.67,178.38L367.96,181.23L368.11,172.45L368.7,172.76L368.84,169.8L368.99,170.03L369.14,170.72L369.28,169.64L369.43,170.98L369.58,177.51L370.16,188.79L370.31,253.14L370.61,189.47L371.19,193.19L371.34,182.88L371.78,180.94L371.93,182.88L372.07,183.72L373.1,218.03L373.25,272.41L373.4,289.32L373.54,235.73L373.69,209.33L373.84,197.14L373.98,256.48L374.13,269.07L374.28,219.05L374.42,217.32L374.57,208.44L375.01,218.81L375.16,218.75L375.45,214.85L375.75,267.66L375.89,285.48L376.77,193.89L376.92,194.14L377.66,187.28L377.8,187.31L377.95,191.84L378.1,195.19L378.54,190.46L378.68,190.13L378.83,191.13L378.98,186.73L379.27,190.01L379.57,184.03L379.71,177.26L380.01,178.9L380.59,174.18L380.74,177L381.18,170.03L381.62,171.22L381.77,170.81L382.36,169.59L382.5,170.66L382.65,169.97L382.8,169.48L382.94,170.53L383.09,177.52L383.38,187.38L383.53,237.85L383.97,173.3L384.12,233.61L384.27,249.95L384.56,187.75L385,200.75L385.15,203.38L385.74,181.8L386.03,184.54L386.18,185.37L386.76,186.67L387.06,176L387.2,179.5L387.35,175.96L387.79,176.22L387.94,180.98L388.09,180.85L388.23,185.74L388.97,193.86L389.11,246.74L389.26,256.5L389.41,253.07L389.55,194.92L389.85,178.15L390.29,186.05L390.44,187.3L390.58,189.98L390.73,185.85L390.88,241.78L391.17,250.27L391.32,186.06L392.05,172.23L392.2,176.88L393.08,170.18L393.23,173.31L393.81,169.93L394.11,170.3L394.25,169.9L394.55,181.17L395.14,179.95L395.28,179.49L395.43,236.1L395.87,179.6L396.02,171.59L396.61,168.77L396.75,169.2L396.9,170.55L397.19,170.82L397.78,169.01L397.93,170.13L398.51,169.02L398.66,170.29L398.81,170.31L398.96,173.68L399.54,171.86L399.69,238.61L399.98,182.01L400.57,184.39L400.72,185.05L402.04,220.03L402.19,218.73L402.48,201.84L402.77,218.59L402.92,217.08L403.07,216.61L403.22,212.38L403.51,208.14L403.66,269.48L403.8,270.1L403.95,214.31L404.54,187.43L404.68,201.67L404.83,210.84L404.98,210.24L405.12,212.36L405.27,207.24L405.42,211.69L405.57,203.58L405.71,262.13L405.86,282.58L406.01,217.81L406.15,197.7L407.33,174.07L407.47,174.49L407.62,178.27L407.92,174.54L408.5,174.74L408.65,174.48L409.53,169.62L409.68,170.53L409.97,169.88L410.12,226.62L410.27,239.36L410.41,184.32L410.71,169.46L411.29,169.91L411.44,169.64L411.59,170.56L412.18,169.72L412.32,170.34L412.62,170.45L412.76,169.33L412.91,170.23L413.06,172.84L413.35,172.91L413.5,171.79L413.79,172.25L413.94,172.83L414.23,197.89L414.67,182.58L414.82,184.06L414.97,175L415.55,184.58L415.7,240.85L415.85,255.91L416.14,253.42L416.29,195.07L416.58,191.98L416.73,198.79L416.88,251.72L417.17,278.62L417.32,218.92L417.46,204.21L418.2,210.74L418.34,195.74L418.49,197.39L418.64,196.93L418.79,192.18L419.08,191.07L419.23,196.73L419.37,192.19L419.52,191.52L419.67,191.24L419.81,187.51L420.11,184.53L420.25,189.11L421.28,178.71L421.43,177.32L421.58,176.92L421.72,177.93L421.87,174.96L422.6,176.8L422.75,173.98L423.05,173.65L423.34,176.05L423.63,175.23L423.78,173.63L423.93,174.57L424.07,170.81L424.22,169.84L424.51,169.4L424.66,170.61L424.81,169.27L424.95,169.96L425.1,177.92L425.4,179.36L425.54,171.11L426.57,168.82L426.72,169.08L426.86,169.5L427.01,169.23L427.16,181.22L427.45,192.73L427.75,173.88L427.89,130.24L428.48,161.1L428.77,76.38L428.92,132.88L429.21,108.99L429.51,171.72L429.66,167.52L429.8,98L429.95,74.88L430.24,144.63L430.39,155.27L430.68,99.49L431.12,122.25L431.27,124.33L431.42,123.98L431.57,167.84L431.71,182.9L431.86,159.54L432.01,107.07L432.59,76.87L432.74,80.28L432.89,90.48L434.65,192.65L434.8,189.94L435.53,177.66L435.68,179.68L435.82,176.22L435.97,179.84L436.12,175.01L436.41,179.51L436.56,175.43L436.71,174.18L436.85,178.36L437,175.38" style="vector-effect: non-scaling-stroke; fill: none; stroke: rgb(0, 128, 0); stroke-opacity: 1; stroke-width: 2px; opacity: 1;"/></g><g class="points"/><g class="text"/></g></g></g><g class="overplot"/><path class="xlines-above crisp" d="M0,0" style="fill: none;"/><path class="ylines-above crisp" d="M0,0" style="fill: none;"/><g class="overlines-above"/><g class="xaxislayer-above"><g class="xtick"><text text-anchor="middle" x="0" y="433" transform="translate(80,0)" style="font-family: 'Open Sans', verdana, arial, sans-serif; font-size: 12px; fill: rgb(42, 63, 95); fill-opacity: 1; white-space: pre; opacity: 1;"><tspan class="line" dy="0em" x="0" y="433">May 1</tspan><tspan class="line" dy="1.3em" x="0" y="433">2022</tspan></text></g><g class="xtick"><text text-anchor="middle" x="0" y="433" style="font-family: 'Open Sans', verdana, arial, sans-serif; font-size: 12px; fill: rgb(42, 63, 95); fill-opacity: 1; white-space: pre; opacity: 1;" transform="translate(178.70999999999998,0)">May 8</text></g><g class="xtick"><text text-anchor="middle" x="0" y="433" style="font-family: 'Open Sans', verdana, arial, sans-serif; font-size: 12px; fill: rgb(42, 63, 95); fill-opacity: 1; white-space: pre; opacity: 1;" transform="translate(277.41999999999996,0)">May 15</text></g><g class="xtick"><text text-anchor="middle" x="0" y="433" style="font-family: 'Open Sans', verdana, arial, sans-serif; font-size: 12px; fill: rgb(42, 63, 95); fill-opacity: 1; white-space: pre; opacity: 1;" transform="translate(376.13,0)">May 22</text></g><g class="xtick"><text text-anchor="middle" x="0" y="433" style="font-family: 'Open Sans', verdana, arial, sans-serif; font-size: 12px; fill: rgb(42, 63, 95); fill-opacity: 1; white-space: pre; opacity: 1;" transform="translate(474.84,0)">May 29</text></g></g><g class="yaxislayer-above"><g class="ytick"><text text-anchor="end" x="79" y="4.199999999999999" transform="translate(0,388.72)" style="font-family: 'Open Sans', verdana, arial, sans-serif; font-size: 12px; fill: rgb(42, 63, 95); fill-opacity: 1; white-space: pre; opacity: 1;">−100</text></g><g class="ytick"><text text-anchor="end" x="79" y="4.199999999999999" style="font-family: 'Open Sans', verdana, arial, sans-serif; font-size: 12px; fill: rgb(42, 63, 95); fill-opacity: 1; white-space: pre; opacity: 1;" transform="translate(0,319.01)">−50</text></g><g class="ytick"><text text-anchor="end" x="79" y="4.199999999999999" style="font-family: 'Open Sans', verdana, arial, sans-serif; font-size: 12px; fill: rgb(42, 63, 95); fill-opacity: 1; white-space: pre; opacity: 1;" transform="translate(0,249.29)">0</text></g><g class="ytick"><text text-anchor="end" x="79" y="4.199999999999999" style="font-family: 'Open Sans', verdana, arial, sans-serif; font-size: 12px; fill: rgb(42, 63, 95); fill-opacity: 1; white-space: pre; opacity: 1;" transform="translate(0,179.57)">50</text></g><g class="ytick"><text text-anchor="end" x="79" y="4.199999999999999" style="font-family: 'Open Sans', verdana, arial, sans-serif; font-size: 12px; fill: rgb(42, 63, 95); fill-opacity: 1; white-space: pre; opacity: 1;" transform="translate(0,109.85)">100</text></g></g><g class="overaxes-above"/></g></g><g class="polarlayer"/><g class="smithlayer"/><g class="ternarylayer"/><g class="geolayer"/><g class="funnelarealayer"/><g class="pielayer"/><g class="iciclelayer"/><g class="treemaplayer"/><g class="sunburstlayer"/><g class="glimages"/><defs id="topdefs-944593"><g class="clips"/><clipPath id="legend944593"><rect width="162" height="67" x="0" y="0"/></clipPath></defs><g class="layer-above"><g class="imagelayer"/><g class="shapelayer"/></g><g class="infolayer"><g class="legend" pointer-events="all" transform="translate(525.74,100)"><rect class="bg" shape-rendering="crispEdges" width="162" height="67" x="0" y="0" style="stroke: rgb(68, 68, 68); stroke-opacity: 1; fill: rgb(255, 255, 255); fill-opacity: 1; stroke-width: 0px;"/><g class="scrollbox" transform="" clip-path="url(#legend944593)"><g class="groups"><g class="traces" transform="translate(0,14.5)" style="opacity: 1;"><text class="legendtext" text-anchor="start" x="40" y="4.680000000000001" style="font-family: 'Open Sans', verdana, arial, sans-serif; font-size: 12px; fill: rgb(42, 63, 95); fill-opacity: 1; white-space: pre;">BESS</text><g class="layers" style="opacity: 0.5;"><g class="legendfill"/><g class="legendlines"><path class="js-line" d="M5,0h30" style="fill: none; stroke: rgb(0, 191, 255); stroke-opacity: 1; stroke-width: 2px;"/></g><g class="legendsymbols"><g class="legendpoints"/></g></g><rect class="legendtoggle" x="0" y="-9.5" width="156.71875" height="19" style="fill: rgb(0, 0, 0); fill-opacity: 0;"/></g><g class="traces" transform="translate(0,33.5)" style="opacity: 1;"><text class="legendtext" text-anchor="start" x="40" y="4.680000000000001" style="font-family: 'Open Sans', verdana, arial, sans-serif; font-size: 12px; fill: rgb(42, 63, 95); fill-opacity: 1; white-space: pre;">Solar</text><g class="layers" style="opacity: 0.5;"><g class="legendfill"/><g class="legendlines"><path class="js-line" d="M5,0h30" style="fill: none; stroke: rgb(255, 0, 0); stroke-opacity: 1; stroke-width: 2px;"/></g><g class="legendsymbols"><g class="legendpoints"/></g></g><rect class="legendtoggle" x="0" y="-9.5" width="156.71875" height="19" style="fill: rgb(0, 0, 0); fill-opacity: 0;"/></g><g class="traces" transform="translate(0,52.5)" style="opacity: 1;"><text class="legendtext" text-anchor="start" x="40" y="4.680000000000001" style="font-family: 'Open Sans', verdana, arial, sans-serif; font-size: 12px; fill: rgb(42, 63, 95); fill-opacity: 1; white-space: pre;">Grid Meter (Net Load)</text><g class="layers" style="opacity: 0.5;"><g class="legendfill"/><g class="legendlines"><path class="js-line" d="M5,0h30" style="fill: none; stroke: rgb(0, 128, 0); stroke-opacity: 1; stroke-width: 2px;"/></g><g class="legendsymbols"><g class="legendpoints"/></g></g><rect class="legendtoggle" x="0" y="-9.5" width="156.71875" height="19" style="fill: rgb(0, 0, 0); fill-opacity: 0;"/></g></g></g><rect class="scrollbar" rx="20" ry="3" width="0" height="0" x="0" y="0" style="fill: rgb(128, 139, 164); fill-opacity: 1;"/></g><g class="g-gtitle"><text class="gtitle" x="298.5" y="50" text-anchor="middle" dy="0em" style="font-family: 'Open Sans', verdana, arial, sans-serif; font-size: 17px; fill: rgb(42, 63, 95); opacity: 1; font-weight: normal; white-space: pre;"><tspan class="line" dy="0em" x="298.5" y="50">Scenario 4</tspan><tspan class="line" dy="1.3em" x="298.5" y="50">Microgrid Output</tspan><tspan class="line" dy="2.6em" x="298.5" y="50">From: May 01, 2022 to May 31, 2022</tspan></text></g><g class="g-xtitle"><text class="xtitle" x="298.5" y="476.409375" text-anchor="middle" style="font-family: 'Open Sans', verdana, arial, sans-serif; font-size: 14px; fill: rgb(42, 63, 95); opacity: 1; font-weight: normal; white-space: pre;">Time</text></g><g class="g-ytitle"><text class="ytitle" transform="rotate(-90,27.168750000000003,260)" x="27.168750000000003" y="260" text-anchor="middle" style="font-family: 'Open Sans', verdana, arial, sans-serif; font-size: 14px; fill: rgb(42, 63, 95); opacity: 1; font-weight: normal; white-space: pre;">Demand (kW)</text></g></g></svg>