<svg class="main-svg" xmlns="http://www.w3.org/2000/svg" xmlns:xlink="http://www.w3.org/1999/xlink" width="700" height="500" style="" viewBox="0 0 700 500"><rect x="0" y="0" width="700" height="500" style="fill: rgb(255, 255, 255); fill-opacity: 1;"/><defs id="defs-6def70"><g class="clips"><clipPath id="clip6def70xyplot" class="plotclip"><rect width="437" height="320"/></clipPath><clipPath class="axesclip" id="clip6def70x"><rect x="80" y="0" width="437" height="500"/></clipPath><clipPath class="axesclip" id="clip6def70y"><rect x="0" y="100" width="700" height="320"/></clipPath><clipPath class="axesclip" id="clip6def70xy"><rect x="80" y="100" width="437" height="320"/></clipPath></g><g class="gradients"/><g class="patterns"/></defs><g class="bglayer"/><g class="layer-below"><g class="imagelayer"/><g class="shapelayer"/></g><g class="cartesianlayer"><g class="subplot xy"><g class="layer-subplot"><g class="shapelayer"/><g class="imagelayer"/></g><g class="minor-gridlayer"><g class="x"/><g class="y"/></g><g class="gridlayer"><g class="x"><path class="xgrid crisp" transform="translate(178.70999999999998,0)" d="M0,100v320" style="stroke: rgb(255, 255, 255); stroke-opacity: 1; stroke-width: 1px;"/><path class="xgrid crisp" transform="translate(277.41999999999996,0)" d="M0,100v320" style="stroke: rgb(255, 255, 255); stroke-opacity: 1; stroke-width: 1px;"/><path class="xgrid crisp" transform="translate(376.13,0)" d="M0,100v320" style="stroke: rgb(255, 255, 255); stroke-opacity: 1; stroke-width: 1px;"/><path class="xgrid crisp" transform="translate(474.84,0)" d="M0,100v320" style="stroke: rgb(255, 255, 255); stroke-opacity: 1; stroke-width: 1px;"/></g><g class="y"><path class="ygrid crisp" transform="translate(0,400.79)" d="M80,0h437" style="stroke: rgb(255, 255, 255); stroke-opacity: 1; stroke-width: 1px;"/><path class="ygrid crisp" transform="translate(0,358.78)" d="M80,0h437" style="stroke: rgb(255, 255, 255); stroke-opacity: 1; stroke-width: 1px;"/><path class="ygrid crisp" transform="translate(0,274.76)" d="M80,0h437" style="stroke: rgb(255, 255, 255); stroke-opacity: 1; stroke-width: 1px;"/><path class="ygrid crisp" transform="translate(0,232.76)" d="M80,0h437" style="stroke: rgb(255, 255, 255); stroke-opacity: 1; stroke-width: 1px;"/><path class="ygrid crisp" transform="translate(0,190.75)" d="M80,0h437" style="stroke: rgb(255, 255, 255); stroke-opacity: 1; stroke-width: 1px;"/><path class="ygrid crisp" transform="translate(0,148.74)" d="M80,0h437" style="stroke: rgb(255, 255, 255); stroke-opacity: 1; stroke-width: 1px;"/><path class="ygrid crisp" transform="translate(0,106.73)" d="M80,0h437" style="stroke: rgb(255, 255, 255); stroke-opacity: 1; stroke-width: 1px;"/></g></g><g class="zerolinelayer"><path class="yzl zl crisp" transform="translate(0,316.77)" d="M80,0h437" style="stroke: rgb(255, 255, 255); stroke-opacity: 1; stroke-width: 2px;"/></g><path class="xlines-below"/><path class="ylines-below"/><g class="overlines-below"/><g class="xaxislayer-below"/><g class="yaxislayer-below"/><g class="overaxes-below"/><g class="plot" transform="translate(80,100)" clip-path="url(#clip6def70xyplot)"><g class="scatterlayer mlayer"><g class="trace scatter trace347b03" style="stroke-miterlimit: 2; opacity: 0.5;"><g class="fills"/><g class="errorbars"/><g class="lines"><path class="js-line" d="M0,216.77L0.29,219.27L0.73,216.77L0.88,216.77L1.76,216.77L1.91,216.77L4.11,216.77L4.26,214.82L4.55,198.17L4.85,216.77L4.99,216.77L11.16,216.77L11.31,221.82L11.6,222.43L11.9,216.77L12.05,222.54L12.93,217.02L13.07,217.24L13.22,216.42L13.51,216.77L13.66,218.4L14.1,216.77L14.4,216.88L14.54,219.13L15.28,216.77L15.42,218.23L16.3,216.77L16.45,217.22L17.33,216.77L17.48,217.3L18.36,216.77L18.51,216.77L19.39,197.23L19.54,211.99L20.42,216.77L20.56,216.77L25.27,216.77L25.41,218.71L25.56,219.29L25.71,217.97L25.85,218.15L26,222.1L26.29,216.77L26.88,217.13L27.03,216.77L27.91,219.17L28.06,217.37L29.23,216.81L29.38,216.77L32.9,216.77L33.05,192.67L33.93,216.77L34.08,216.77L39.22,216.77L39.37,220.53L39.66,224.01L39.81,219.77L40.1,222L40.25,219.6L40.54,218.55L40.69,226.4L40.98,222.45L41.13,218.64L41.72,218.07L41.86,222.94L42.01,219.02L42.16,216.22L42.3,220.61L42.45,217.78L42.6,222.14L43.19,216.77L43.48,216.84L43.63,217.42L44.51,216.77L44.65,216.77L46.56,216.77L46.71,203.55L46.86,204.12L47.01,191.61L47.45,164.65L47.59,205.74L48.47,216.77L48.62,216.77L53.47,216.77L53.62,223.91L53.91,219.33L54.06,229.13L54.2,219.86L54.35,221.62L54.64,220.58L54.79,223.32L54.94,218.24L55.23,216.63L55.38,217.25L55.52,221.06L56.11,222.13L56.41,216.77L56.55,218.66L56.85,216.77L57.14,216.98L57.29,221.01L58.02,216.77L58.17,218.52L59.05,216.77L59.2,216.77L59.49,216.77L59.64,217.6L60.52,216.77L60.67,216.77L60.81,210.84L61.4,216.77L61.55,216.77L63.02,216.77L63.16,129.5L64.04,216.77L64.19,216.77L67.42,216.77L67.57,220.51L67.72,248.94L68.16,220.07L68.3,225.43L68.45,223.19L68.74,215.9L69.33,218.21L69.48,217.72L69.63,223.71L70.07,217.66L70.21,216.77L70.51,217.48L70.65,216.44L71.83,216.77L71.98,216.77L76.97,216.77L77.12,114.82L77.41,109.93L78,216.77L78.15,216.77L87.4,216.77L87.55,217.55L87.84,216.77L87.99,219.26L88.87,216.77L89.02,216.77L95.77,216.77L95.92,219.25L96.21,218.33L96.36,225.92L96.65,221.42L96.8,217.93L96.95,218.64L97.09,224.3L97.39,217.06L97.98,218.09L98.12,218.49L98.42,216.77L98.56,218.77L98.71,220.46L99.15,216.82L99.45,217.39L99.59,218.7L100.03,220.16L100.33,216.77L100.47,216.94L100.62,216.81L100.77,218.15L101.35,216.77L101.5,217.54L102.09,216.77L102.24,217.76L103.12,216.77L103.26,216.77L109.87,216.77L110.02,217.98L110.17,218.51L110.46,217.02L110.61,217.79L110.76,217.01L111.64,216.77L111.78,216.77L112.67,216.77L112.81,218.16L113.11,216.77L113.69,217.04L113.84,216.77L113.99,220.15L114.57,216.77L114.72,217.34L115.6,216.83L115.75,216.77L116.93,216.77L117.07,195.65L117.95,216.77L118.1,216.77L123.98,216.77L124.12,218.86L124.27,224.44L124.71,217.15L124.86,218.6L125,217.23L125.44,216.77L125.59,218.25L125.74,217.14L125.89,216.77L126.03,217.73L126.62,216.77L126.77,216.95L127.94,216.78L128.09,216.77L131.03,216.77L131.17,215.97L131.32,202.78L131.61,216.77L131.91,216.77L132.05,216.77L138.08,216.77L138.22,222.64L138.37,228.4L138.66,217.02L138.81,218.96L138.96,217.3L139.55,216.83L139.69,220.89L139.84,217.8L140.57,221.45L140.72,217.85L140.87,220.82L141.16,216.77L141.31,216.77L141.46,216.77L145.27,216.77L145.42,202.05L145.72,186.34L145.86,180.47L146.74,216.77L146.89,216.77L153.35,216.77L153.5,227.14L154.38,216.77L154.53,216.77L154.68,218.37L155.26,216.77L155.41,217.18L156.44,216.77L156.59,216.77L166.28,216.77L166.43,234.31L167.31,207.67L167.46,230.79L167.6,203.98L168.19,216.77L168.34,216.77L301.13,216.77L301.27,201.66L301.57,151.44L301.86,216.77L302.01,216.77L307.15,216.77L307.3,222.09L307.44,219.49L307.59,233.26L307.88,233.71L308.32,219.65L308.47,224.29L309.06,219.06L309.21,225.24L310.09,218.22L310.23,221.27L310.97,217.62L311.11,218.7L311.26,217.25L311.41,219.13L311.7,217.01L311.85,217.14L312,216.85L312.44,217.89L312.73,216.77L312.88,217.57L313.76,216.77L313.91,216.77L314.2,212.6L314.35,215.69L314.49,197.11L314.64,205.05L314.79,188.03L314.93,197.2L315.08,181.11L315.23,164.94L315.37,205.84L315.52,216.77L318.9,216.77L319.05,249.5L319.19,224.95L319.34,255.13L319.78,226.88L319.93,238.84L320.52,243.24L320.66,223.02L320.81,244.5L321.54,221.09L321.69,227.3L321.84,220.35L321.98,234.75L322.13,221.2L322.28,239.74L322.72,218.04L323.16,219.04L323.31,217.34L323.45,219.41L323.75,216.77L324.04,217.07L324.19,217.74L324.48,216.77L324.92,216.9L325.07,220.07L325.66,216.77L325.95,216.89L326.1,217.73L326.39,218.24L326.69,216.77L326.98,216.9L327.13,216.79L328.3,216.77L328.45,219.48L329.33,235.73L329.48,220.86L330.21,117.17L330.36,187.33L330.5,128.99L331.09,141.84L331.24,173.96L332.27,258.92L332.41,237.47L332.71,134.89L332.85,196.1L333.59,288.3L333.88,274.2L334.03,231.21L334.18,265.22L334.76,241.49L334.91,237.26L335.5,230.07L335.65,231.25L335.79,222.77L335.94,232.03L336.09,220.4L336.53,230.83L336.67,220.29L336.97,218.63L337.26,224.59L337.41,218.5L337.85,221.19L338,217.82L338.14,218.34L338.29,220.58L339.17,217.25L339.32,218.53L339.61,216.77L340.2,217.04L340.35,217.02L340.64,216.81L340.79,218.41L341.37,218.81L341.67,216.77L341.81,217.6L342.11,216.77L342.26,217.77L342.4,217.02L342.55,224.43L343.14,234.97L343.28,237.96L343.58,245.04L343.72,226.63L343.87,238.15L344.02,117.41L344.46,245.16L344.75,236.11L344.9,176.7L345.05,222.03L345.63,214.36L345.78,207.41L346.07,206.75L346.22,214.61L346.37,196.8L346.81,212.41L347.25,212.08L347.4,210.5L347.84,215.77L347.98,209.96L348.13,215.07L348.28,209.06L348.42,214.84L348.57,200.22L348.72,212.63L348.87,198.71L349.89,232.14L350.04,220.61L350.19,237.2L350.63,220.3L350.78,222.59L350.92,222.34L351.07,222.17L351.22,222.32L351.36,217.89L351.8,217.48L352.1,220.85L352.24,217.7L352.39,216.77L352.54,219.58L352.68,217.47L352.83,219.43L353.13,216.77L353.57,217.79L353.71,218.23L354.3,216.77L354.45,220.32L355.03,216.77L355.33,216.82L355.48,220.71L356.36,216.77L356.5,216.77L356.65,215.51L356.8,207.11L357.39,177.64L357.68,187.02L357.83,199.83L357.97,180.9L358.41,208.25L358.56,202.89L358.71,202.33L358.85,204.88L359,202.93L359.15,158.87L359.59,158.76L359.74,169.42L359.88,156.2L360.47,136.95L360.91,269.27L361.06,228.93L361.2,275.58L361.79,264.23L361.94,230L362.09,254.54L362.53,225.23L362.67,241.79L362.82,231.12L362.97,243.3L363.41,230.33L363.55,227.2L363.7,226.34L363.85,228.28L364,220.77L364.29,219.95L364.44,230.85L364.73,225.05L364.88,218.86L365.46,217.71L365.61,222.18L365.76,218.12L365.9,221.02L366.35,217.62L366.49,217.23L366.79,216.83L366.93,221.73L367.52,216.77L367.81,216.86L367.96,218.1L368.26,216.77L368.4,218.25L368.55,217.14L368.7,220.5L368.99,216.77L369.58,217.09L369.72,216.77L370.02,216.77L370.16,217.75L370.61,216.77L370.75,217.42L370.9,229.44L371.05,219.9L371.19,232.89L371.63,222.44L371.78,227.58L372.07,229.86L372.22,221.89L372.37,232.1L372.51,232.53L372.66,238.54L372.81,233.12L372.96,239.22L373.1,234L373.25,249.63L373.69,228.77L374.13,231.69L374.28,234.34L374.57,224.91L374.72,262.97L375.01,251.53L375.16,225.46L375.31,262.52L375.89,260.88L376.04,227.8L376.19,252.21L376.63,224.69L376.77,245.09L376.92,225.34L377.07,239.07L377.66,229.29L377.8,230.79L378.1,231.79L378.54,219.94L378.68,228.26L379.13,218.24L379.27,229.57L379.57,221L379.71,220.09L379.86,218.86L380.01,227.11L380.89,218.37L381.03,217.24L381.33,216.77L381.48,218.53L382.36,216.77L382.5,217.44L382.8,216.77L383.09,216.94L383.24,217.74L383.53,216.77L383.83,217.19L383.97,218.13L384.56,216.77L384.71,217.18L384.85,218.41L385,218.34L385.15,220.01L385.88,217.28L386.03,218.78L386.32,218.02L386.91,224.3L387.06,218.36L387.2,228.78L387.79,223.01L387.94,224.99L388.09,225.23L388.23,220.96L388.53,228.85L388.67,219.47L388.82,229.67L389.41,225.88L389.55,223.61L389.7,232.47L389.85,220.37L390.14,224.24L390.29,219.56L390.58,224.66L390.73,218.7L390.88,223.77L391.02,218.5L391.17,231.19L391.61,218.46L391.76,224.19L391.9,218.63L392.05,218.03L392.2,224.92L393.08,217.38L393.23,221.04L393.81,216.77L394.11,217.45L394.25,216.77L394.4,218.02L394.99,216.94L395.14,216.81L395.43,217.14L395.58,216.86L395.72,219.56L396.61,216.77L396.75,216.77L397.19,217.48L397.49,216.82L397.63,217L398.51,216.77L398.66,217.01L398.81,216.83L398.96,221.35L399.54,217.34L399.69,222.76L400.13,217.37L400.28,220.29L400.42,224.25L400.57,218.42L400.86,231.17L401.01,220.14L401.16,229.18L401.45,221.34L401.75,226.63L401.89,229.94L402.33,236.01L402.48,228.04L402.63,232.57L402.77,229.78L402.92,239.03L403.22,219.96L403.36,216.77L427.75,216.77L427.89,200.63L428.63,147.22L428.77,163.51L428.92,145.63L429.21,144.12L429.36,166.14L429.66,165.29L429.8,138.38L430.1,131.3L430.24,169.33L430.54,167.73L430.68,142.14L430.98,128.63L431.42,196.65L431.57,134.73L431.71,196.26L431.86,115.49L432.3,191.64L432.45,124.53L433.18,202.87L433.33,175.98L434.21,224.62L434.36,233.58L434.65,235.27L434.8,230.54L434.94,223.81L435.09,232.76L435.53,220.28L435.68,229.09L435.82,219.85L435.97,229.38L436.41,225.14L436.56,218.56L436.85,224.37L437,218.43" style="vector-effect: non-scaling-stroke; fill: none; stroke: rgb(0, 191, 255); stroke-opacity: 1; stroke-width: 2px; opacity: 1;"/></g><g class="points"/><g class="text"/></g><g class="trace scatter trace07c440" style="stroke-miterlimit: 2; opacity: 0.5;"><g class="fills"/><g class="errorbars"/><g class="lines"><path class="js-line" d="M0,217.01L3.38,216.92L3.53,215.82L4.26,176.8L4.41,158.88L5.88,16.16L6.17,16.23L6.32,16.29L9.4,17.21L9.55,22.1L11.9,217.03L12.05,217.02L17.48,216.9L17.63,216.13L18.51,185.98L18.66,171.11L20.27,16L20.71,16.22L20.86,16.28L23.21,16.59L23.36,16.71L23.5,18.08L23.65,26.97L26,217.03L26.15,217.01L32.02,216.38L32.17,214.9L32.76,190.94L32.9,167.49L33.34,75.44L33.49,216.77L34.52,216.77L34.67,183.64L34.81,16.3L35.55,16.4L35.69,16.44L37.46,16.56L37.6,18.11L38.49,108.56L38.63,127.3L40.1,217.03L40.25,217.02L45.68,216.7L45.83,215.03L46.56,169.02L46.71,152.11L48.18,16.21L48.62,16.39L48.77,16.47L50.97,16.89L51.12,49.73L51.41,16.85L52,216.77L52.15,216.77L53.47,216.44L53.62,215.11L54.5,217.02L54.64,217.01L59.78,216.65L59.93,214.8L60.81,172.6L60.96,216.77L62.87,216.77L63.02,183.92L63.6,16.58L63.9,16.77L64.04,16.77L65.81,16.84L65.95,19.23L66.98,147.81L67.13,173.33L68.3,217.03L68.45,217.03L70.36,217.02L70.51,217.02L71.83,216.77L71.98,216.77L73.89,216.49L74.03,214.25L74.33,209.1L74.47,216.77L74.62,216.77L74.77,216.77L76.82,216.77L76.97,184.02L77.12,16.55L77.85,16.77L78,49.56L78.88,216.77L79.03,216.77L87.99,216.8L88.13,215.53L88.72,189.84L88.87,174.09L90.48,16.16L90.93,16.3L91.07,16.35L92.1,16.23L92.25,49.06L92.39,184.11L92.69,16.31L92.83,16.36L92.98,16.43L94.01,16.86L94.16,20L96.65,217.03L96.8,217.01L102.24,216.83L102.38,216.45L103.7,198.22L103.85,184.95L104.59,147.4L104.73,120.85L105.03,148.03L105.17,72.48L105.32,33.13L106.06,89.26L106.2,185.29L106.35,24.62L106.94,59.46L107.08,70.4L107.23,34.05L107.52,97.54L107.67,92.97L107.82,101.27L107.96,41.64L108.55,81.69L108.7,63.69L108.99,200.21L109.58,172.45L109.73,190L110.46,217.05L110.61,217.04L110.76,216.99L111.78,216.77L111.93,216.77L116.19,216.69L116.34,215.57L116.93,180.86L117.07,143.59L117.22,143.24L117.37,157.26L117.66,143.08L117.81,93L118.69,28.59L118.83,49.04L118.98,47.5L119.13,60.63L119.42,41.56L119.57,49.1L119.72,96.52L120.45,25.37L120.6,34.66L120.74,28.73L120.89,80.36L121.18,20.32L121.48,52.26L121.63,16.29L122.95,77.96L123.09,97.26L124.71,217.03L124.86,217.01L125,217.01L130.29,216.7L130.44,215.17L131.17,166.82L131.32,149.33L132.64,16.19L133.08,16.3L133.23,48.65L134.11,216.77L134.26,216.77L134.99,216.77L135.14,184.44L135.29,16.36L136.02,23.05L136.17,57.3L136.31,60.42L136.46,26.27L136.9,56.87L137.05,126.16L137.2,122.93L137.34,85.71L138.81,217.04L138.96,217.03L139.11,217.02L144.39,216.49L144.54,214.14L145.13,185.84L145.27,167.12L146.45,32.05L146.6,52.61L146.74,184.52L146.89,16.31L147.63,16.39L147.77,16.48L150.27,16.67L150.42,48.79L150.71,24.78L151.3,216.77L151.44,216.77L158.5,216.45L158.64,214.39L159.23,185.31L159.38,166.07L160.85,16.41L161.29,16.58L161.43,16.67L161.58,16.75L161.73,48.88L162.61,216.77L162.75,216.77L164.08,216.77L164.22,184.78L164.52,17.01L164.96,43.61L165.11,59.35L167.01,217.03L167.16,216.99L167.31,216.81L168.19,216.77L168.34,216.77L300.98,216.77L301.13,208.48L302.01,16.13L302.3,16.19L302.45,16.26L303.33,16.32L303.48,16.36L305.53,17.14L305.68,21.74L308.18,217.03L308.32,217.02L313.46,216.83L313.61,215.57L314.49,156.98L314.64,145.52L316.4,16.22L316.7,16.35L316.84,16.41L318.61,16.7L318.75,27.03L319.78,216.77L319.93,216.77L329.18,216.9L329.33,213.91L330.5,16.6L330.65,16.59L331.83,16.92L331.97,31.32L332.27,216.77L332.56,145.04L332.71,16.08L333.15,16.11L333.3,26.47L334.32,216.77L334.47,216.77L343.72,216.79L343.87,190.98L344.17,21.49L344.61,115.14L344.75,115.11L346.96,115.14L347.1,115.13L348.72,115.49L348.87,119.37L350.33,217.03L350.48,217.02L350.63,217.02L355.77,216.73L355.92,215.16L356.94,151.06L357.09,135.17L357.68,115.17L357.97,115.19L358.12,115.17L358.85,115.11L359,105.06L359.29,16.64L359.88,16.76L360.03,16.87L360.47,17.11L360.62,39.51L361.5,216.77L361.65,216.77L427.6,216.78L427.75,206.39L428.77,19.57L428.92,16.33L430.68,17.02L430.83,16.96L432.3,16.97L432.45,18.02L433.47,114.51L433.62,131.66L435.09,217.03L435.24,217.02L437,217.01" style="vector-effect: non-scaling-stroke; fill: none; stroke: rgb(255, 0, 0); stroke-opacity: 1; stroke-width: 2px; opacity: 1;"/></g><g class="points"/><g class="text"/></g><g class="trace scatter traced19da7" style="stroke-miterlimit: 2; opacity: 0.5;"><g class="fills"/><g class="errorbars"/><g class="lines"><path class="js-line" d="M0,247.61L0.29,248.14L0.44,246.44L0.88,246.73L1.03,247.91L1.91,245.63L2.06,245.66L2.35,246.87L2.5,247.94L2.94,246L3.38,246.09L3.53,246.1L4.55,194.14L4.7,161.27L5.73,58.78L6.17,63.93L6.32,64.79L6.61,60.26L7.79,82.15L7.93,78.82L8.37,70.94L8.52,85.44L9.4,72.62L9.55,85.51L9.99,115.7L10.14,137.6L11.46,253.27L11.75,250.71L11.9,249.36L12.63,247.07L12.93,247.28L13.07,243.07L13.22,221.89L13.51,248.43L13.66,248.04L13.81,246.31L14.54,248.23L14.69,246.56L14.84,246.52L14.98,247.89L15.28,248.22L15.86,245.99L16.01,247.74L16.16,245.9L16.45,247.96L16.6,246.51L16.75,247.97L17.04,246.26L17.48,248.17L17.63,246.79L18.8,214.42L18.95,207.39L19.1,212.86L19.24,201.07L19.39,209.36L19.54,188.29L20.86,79.52L21.01,73.36L21.15,72.4L21.3,64.21L22.03,84.41L22.33,81.47L22.47,80.58L22.77,74.43L22.91,81.37L23.21,82.84L23.36,78.88L23.5,83.63L24.09,126.52L24.24,149.24L24.82,204.94L24.97,218.98L25.56,250.46L26,249.69L26.15,248.09L26.29,247.97L26.44,248.76L26.59,249.98L27.32,245.53L27.47,248.71L27.76,249.48L27.91,248.07L28.06,246.18L28.94,248.42L29.08,248.45L29.82,245.98L29.97,247.49L30.26,248.22L30.55,245.92L30.85,246.37L30.99,241.58L31.14,221.84L31.58,248.21L31.73,247.6L32.46,243.01L32.61,237.21L33.2,168.5L33.34,75.44L34.23,216.77L34.37,216.77L34.52,216.77L34.67,192.07L34.81,69.76L35.4,96.59L35.55,99.1L35.69,94.87L35.99,103.13L36.14,98.54L36.28,105.37L36.43,102.1L36.87,104.93L37.02,107.05L37.16,108.08L37.31,105.87L37.46,99.57L37.75,106.24L37.9,123.18L39.66,254.5L39.81,254.46L39.95,251.7L40.1,254.11L40.39,250.84L40.54,252.34L40.69,249.78L41.13,254.11L41.42,252.87L41.57,249.18L41.72,252.19L42.01,247.91L42.16,223.2L42.45,251.81L42.89,248.21L43.04,246.11L43.63,247.97L43.92,247.49L44.07,247.56L44.36,247.93L44.95,246.17L45.1,246.39L45.24,246.14L45.39,247.56L45.83,245.45L45.98,238.74L47.45,172.89L47.59,124.78L48.03,82.08L48.47,90.98L48.62,89.27L48.77,89.56L48.91,98.97L49.36,92.76L49.65,110.9L49.8,103.86L50.09,100.41L50.24,101.37L50.38,88.82L50.68,96.71L50.82,87.29L50.97,92.43L51.12,115.7L51.41,103L52,216.77L52.15,216.77L53.32,216.77L53.47,223.42L53.91,256.02L54.35,250.34L54.5,253.73L54.64,253.46L54.79,251.13L55.08,243.1L55.23,222.17L55.38,249.11L56.11,248.94L56.26,248.91L56.7,249.53L57.14,247.05L57.29,248.17L57.43,245.61L58.02,247.36L58.17,248.16L58.9,245.91L59.05,247.49L59.34,221.78L59.49,246.55L59.64,248.35L59.93,245.08L60.08,238.43L60.81,216.5L61.4,216.77L61.55,216.77L62.87,216.77L63.02,198.87L63.16,192.34L63.31,112.18L63.46,84.76L63.9,112.35L64.04,107.53L64.19,118.66L64.49,122.28L64.63,112.59L64.93,101.38L65.07,105.49L65.22,116.09L65.66,100.2L65.95,101.06L66.1,108.49L68.16,257.33L68.3,251.31L68.45,256.47L68.6,246.55L68.74,223.84L69.04,254.41L69.63,249.24L69.77,247.02L70.07,249.3L70.21,246.18L70.36,247.77L70.51,243.19L71.39,216.77L71.54,216.77L72.86,216.77L73,221.63L73.3,247.78L73.74,241.41L73.89,221.16L74.03,242.87L74.47,216.77L74.62,216.77L76.82,216.77L76.97,195.92L77.12,194.53L77.26,130.45L77.41,192.38L77.85,82.07L78,49.56L78.88,216.77L79.03,216.77L87.11,216.77L87.25,221.57L87.84,247.98L88.13,244.45L88.28,242.94L89.02,193.17L89.16,174.83L90.63,65.68L90.93,75.59L91.07,80.78L91.37,78.4L91.81,87.53L91.95,86.26L92.1,83.7L92.39,195.82L92.54,88.64L92.69,90.96L92.83,91.76L92.98,91L93.13,97.58L93.42,101.44L94.01,79.05L94.16,79.77L96.07,250.99L96.36,249.8L96.51,252.56L97.24,244.77L97.39,249.86L97.68,245.27L97.83,248.88L97.98,250.14L98.42,246.86L98.86,247.5L99,248.01L99.3,248.36L99.74,246.13L99.89,248.73L100.62,246.83L100.77,248.63L100.91,249.47L101.21,247.27L101.35,247.14L101.5,248.01L101.65,246.16L101.94,246.36L102.09,246.72L102.24,247.94L102.38,245.83L102.53,246.46L102.68,243.44L103.12,238.79L103.41,242.11L103.56,242.32L104.88,146.14L105.03,185.44L105.32,73.47L105.91,86.21L106.06,123.23L106.2,191.94L106.35,65.72L106.64,86.76L106.79,96.65L107.23,82.42L107.82,152.87L107.96,86.5L108.99,207.78L109.14,163.07L110.17,249.61L110.61,248.58L110.76,243.27L111.64,216.77L111.78,216.77L112.22,216.77L112.37,221.52L113.11,248.26L113.25,248.07L113.4,247.03L113.99,248.17L114.13,245.79L115.02,248.1L115.16,247.02L115.31,246.93L115.46,247.95L115.75,248.01L116.48,240.56L116.63,229.65L117.66,194.39L117.81,142.3L117.95,87.36L118.39,110.12L118.54,150.34L118.69,91.99L119.28,106.49L119.42,108.33L119.57,111.79L119.72,162.12L120.16,82.15L120.6,92.57L120.74,95.73L120.89,148.67L121.18,71.82L121.48,106.4L121.63,75.1L122.51,103.5L122.65,91.32L123.98,242.72L124.12,250.25L124.42,254.06L124.56,248.12L124.86,248.26L125.3,246.16L125.44,247.18L125.59,248.21L126.18,246.37L126.47,246.55L126.62,247.13L126.77,248.08L126.91,243.96L127.06,231.39L127.5,247.86L127.65,247.15L127.79,248.09L128.24,247.9L128.38,246.49L129.26,247.74L129.41,246.71L129.85,246.27L130,246.7L130.15,246.11L130.29,246.26L130.44,244.24L131.47,185.55L131.61,169.17L132.79,66.92L133.08,70.08L133.23,92.17L134.11,216.77L134.26,216.77L134.99,216.77L135.14,196.21L135.73,89.57L136.02,96.66L136.17,131.15L136.46,89.79L136.76,110.19L136.9,113.49L137.78,193.63L137.93,224.93L138.37,253.29L138.81,248.25L138.96,246.3L139.84,250.63L139.99,249.35L140.13,251.01L140.72,250.87L140.87,249.2L141.02,251L141.31,247.93L141.46,241.62L141.6,221.55L142.04,247.8L142.19,246.75L142.78,247.49L143.07,247.21L143.22,246.66L143.51,246.45L143.66,246.8L143.81,247.45L144.54,243.98L144.69,239.05L145.72,193.29L145.86,179.75L146.45,81.23L146.6,94.26L146.74,193.33L147.18,60.44L147.63,75.06L147.77,82.13L148.65,76.53L148.8,77.2L149.39,69.1L149.53,73.84L149.68,78.11L150.42,105.25L150.56,195.27L150.71,84.38L151.15,137.85L151.3,216.77L153.21,216.77L153.35,223.91L153.65,255.74L154.09,246.36L154.24,247.01L154.38,246.81L154.53,247.44L154.68,248.15L154.97,248.29L155.56,246.85L155.7,248.05L156.59,246.9L156.73,246.92L157.47,246.9L157.61,246.84L157.91,246.64L158.05,243.6L158.2,231.63L158.35,246.18L158.79,240.39L158.94,243.16L159.38,223.35L159.52,196.19L160.85,83.2L161.14,84.94L161.29,83.23L161.58,67.22L161.73,92.29L162.61,216.77L162.75,216.77L164.08,216.77L164.22,197.64L164.66,95.99L164.96,120.3L165.11,131.61L166.57,263.74L166.87,258.81L167.01,251.37L168.48,216.77L168.63,216.77L169.95,216.77L170.1,221.53L170.39,247.88L170.98,246.74L171.13,247.65L171.42,241.5L171.57,216.77L300.98,216.77L301.13,213.85L301.71,145.47L301.86,80.59L302.01,63.58L302.59,77.05L302.74,67.43L303.62,86.41L303.77,79.28L304.5,95.47L304.65,91.62L304.8,91.35L305.09,91.96L305.24,95.19L305.53,88.09L305.83,100.15L305.97,122.18L307.74,260.94L308.03,258.66L308.18,251.13L308.32,258.9L308.47,250.55L308.91,252.02L309.06,252.76L309.35,254.88L309.5,249.9L309.79,251.88L309.94,252L310.09,253.53L310.23,249.59L310.38,252.79L310.53,249.36L310.67,250.1L310.82,248.67L310.97,248.88L311.11,248.32L311.56,247.45L311.7,248.4L311.85,248.49L312.88,248.08L313.02,246.83L313.17,248.02L313.32,246.35L313.61,246.71L313.76,239.72L315.23,172.43L315.37,126.09L315.82,79.44L316.4,94.26L316.55,88.59L317.14,104.72L317.28,96.81L317.43,96.41L317.58,102.04L317.72,94.88L317.87,97.18L318.02,85.49L318.9,171.95L319.05,256.29L319.49,282.4L319.63,255.44L319.78,274.14L319.93,257.9L320.07,270.42L320.66,268.59L320.81,253.09L321.25,263.93L321.4,252.17L321.54,262.67L321.69,251.49L322.13,265.49L322.28,250.8L322.43,250.13L323.01,248.45L323.16,248.68L323.31,249.7L323.75,247.17L324.19,248.38L324.33,248.05L324.78,246.96L324.92,248.94L325.07,248.36L325.22,246.49L325.95,246.66L326.1,248.25L326.98,246.75L327.13,248.11L328.01,246.75L328.15,246.72L328.59,254.05L328.74,260.45L329.18,262.5L329.48,229.77L329.62,196.48L330.36,120.75L330.5,189.14L331.39,102.86L331.53,88.71L331.68,84.51L331.83,92.43L331.97,105.57L332.41,285.49L332.71,198.11L332.85,132.36L333.15,110.9L333.3,136.21L333.44,209.04L334.03,304L334.32,295.61L334.47,266.98L334.62,279.99L335.2,266.35L335.35,264.19L335.94,254.31L336.09,262.61L336.82,250.07L336.97,254.63L337.41,248.32L337.85,249.68L338,249.96L338.14,249.32L338.29,250.45L338.44,251.47L339.17,248.46L339.32,248.57L339.46,248.81L339.91,249.83L340.2,247.5L340.35,248.37L340.64,247.48L340.79,248.17L340.93,246.82L341.52,248.94L341.81,248.23L341.96,247.44L342.55,251.55L342.7,257.97L343.43,269.33L343.58,262.34L343.72,274.17L343.87,231.26L344.02,207.76L344.17,117.75L344.61,252.73L344.75,188.05L344.9,242.07L345.05,203.71L345.63,208.56L345.78,213.36L345.93,206.16L346.37,213.46L346.52,206.6L346.66,213.43L347.1,204.47L347.25,209.77L347.4,214.09L348.13,224.76L348.28,215.19L348.42,209.31L349.01,214.76L349.16,218.73L350.04,260.63L350.19,251.12L350.33,254.94L350.63,259.33L350.78,250.52L351.07,253.55L351.22,252.17L351.36,248.44L351.95,249.35L352.1,250.34L352.24,250.9L352.39,247.68L352.68,250.68L352.98,248.48L353.13,247.23L353.57,249.88L353.71,248.59L353.86,246.47L354.3,248.59L354.74,248.12L354.89,246.71L355.48,248.22L355.62,245.69L355.77,247.99L355.92,245.47L356.06,240L356.8,210.74L356.94,201.72L357.24,191L357.39,200.5L357.53,179.51L358.27,210.19L358.41,198.31L358.56,211.21L359,195.99L359.15,186.73L359.29,154.57L360.03,156.8L360.18,185.44L360.32,142.71L360.47,196.94L360.62,160.64L360.76,261.41L361.35,301.58L361.5,260.28L361.94,294.16L362.09,258.96L362.23,284.16L362.38,256.45L362.53,275.89L363.11,274.37L363.26,263.7L363.41,266.7L363.7,258.6L363.85,257.08L364,258.89L364.14,251.58L364.29,254.8L364.44,250.86L364.58,256.04L365.02,249.43L365.17,252.2L365.32,249.96L365.46,250.65L365.61,248.62L365.76,247.85L366.05,247.52L366.2,248.65L366.64,248.5L366.79,248.25L367.08,249.78L367.52,248.15L367.67,248.15L367.81,247.61L367.96,248.44L368.4,248.22L368.55,247.82L368.7,248.41L368.84,246.74L369.14,248.14L369.28,247.21L369.58,246.87L370.16,248.08L370.31,246.6L370.9,251.81L371.05,260.81L371.19,251.67L371.63,261.58L371.78,253.64L371.93,260.02L372.07,255.55L372.22,261.25L372.37,256.01L372.51,266.84L372.81,270.09L372.96,264.96L373.1,272.85L373.4,280.18L373.84,257.47L374.13,262.15L374.28,268.15L374.42,267.98L374.57,282.61L375.01,256.49L375.31,258.29L375.45,285.94L376.19,256.65L376.33,280.29L376.77,255.64L377.07,256.26L377.22,270.57L378.1,255.77L378.24,262.39L378.98,251.56L379.13,254.31L379.57,249.76L379.86,252.38L380.01,251.04L380.3,249.67L380.45,252.89L380.74,251.41L380.89,249.35L381.18,247.89L381.77,248.23L381.92,247.34L382.5,248.3L382.65,247.76L382.8,247.18L383.38,246.69L383.68,248.38L383.83,248.71L384.56,247.48L384.71,248.67L385,250.38L385.29,249.37L385.44,248.63L386.03,249.73L386.18,250.49L386.32,249.75L386.47,249.94L386.62,254.56L387.06,255.42L387.2,250.27L387.5,250.93L387.64,258.06L387.79,251.1L388.38,253.63L388.53,254.9L388.82,252.31L388.97,261.28L389.41,258.98L389.55,257.66L389.99,251.35L390.44,252.22L390.58,255.05L390.73,254.79L390.88,249.95L391.02,254.68L391.32,247.56L391.61,251.41L391.76,250.07L391.9,254.17L392.35,249.44L392.49,249.17L392.93,252.62L393.08,247.63L393.23,248.69L393.67,249.08L394.25,247.82L394.4,248.56L394.55,249.36L394.7,248.13L394.84,246.79L395.72,248.31L395.87,246.61L396.16,248L396.31,246.35L396.46,247.78L396.61,246.12L397.34,248.59L397.49,246.74L397.78,246.43L397.93,248.01L398.22,247.22L398.37,247.57L398.51,246.49L398.81,248.38L398.96,248.94L399.84,250.37L399.98,248.82L401.01,257.12L401.16,252.66L402.04,262.26L402.19,264.12L402.48,266.53L402.63,259.26L402.92,263.36L403.07,270.24L404.1,292.73L404.24,284.9L404.39,285.68L404.54,274.23L404.68,283.57L405.27,273.83L405.42,280.52L406.01,265.72L406.3,267.76L406.45,265.31L406.59,267.09L406.74,261.37L406.89,261.64L407.03,262.09L407.33,254.1L407.92,254.81L408.06,255.32L408.36,257.56L408.65,254.71L408.8,248.91L408.94,248.27L409.09,249.66L409.24,250.58L409.53,247.41L409.97,247.79L410.12,249.25L410.71,247.15L411,247.22L411.15,248.88L411.73,247.41L412.03,247.58L412.18,247.55L412.76,246.97L413.35,252.35L413.5,250.66L414.09,254.64L414.23,250.66L414.38,251.41L414.53,250.68L414.67,251.8L414.82,254.03L414.97,252.48L415.11,256.39L415.41,252.86L415.55,254.8L415.85,257.24L415.99,265.84L416.29,264.73L417.9,291.11L418.05,288.03L418.2,294.21L418.34,283.72L418.64,288.53L418.79,281.39L419.08,279.71L419.23,288.24L419.37,281.39L419.52,280.38L419.67,279.96L419.81,274.35L420.11,269.87L420.25,276.75L421.28,261.09L421.43,258.99L421.58,258.4L421.72,259.91L421.87,255.44L422.6,258.22L422.75,253.97L423.05,253.47L423.34,257.09L423.63,255.86L423.78,253.44L423.93,254.86L424.07,249.19L424.22,247.74L424.51,247.07L424.66,248.89L424.81,246.87L424.95,247.91L425.4,246.95L425.54,246.62L425.98,246.46L426.13,248.03L426.28,246.37L426.57,246.19L427.16,252.78L427.31,260.54L427.45,267.09L427.75,253.82L427.89,204.22L428.77,145.09L429.07,145.76L429.21,165.38L429.51,166.59L429.95,137.58L430.1,164.83L430.24,134.02L430.68,171.03L430.83,142.34L430.98,181.6L431.12,136.46L431.27,199.18L431.71,137.53L431.86,195.21L432.59,127.52L432.74,197.67L432.89,149.41L433.33,209.09L433.47,194.48L433.62,214.99L434.5,266.21L434.94,260.22L435.09,254.87L435.24,258.23L435.38,250.73L435.53,256.01L435.68,250.23L435.97,250.19L436.56,254.37L436.71,250.47L437,254.41" style="vector-effect: non-scaling-stroke; fill: none; stroke: rgb(0, 128, 0); stroke-opacity: 1; stroke-width: 2px; opacity: 1;"/></g><g class="points"/><g class="text"/></g></g></g><g class="overplot"/><path class="xlines-above crisp" d="M0,0" style="fill: none;"/><path class="ylines-above crisp" d="M0,0" style="fill: none;"/><g class="overlines-above"/><g class="xaxislayer-above"><g class="xtick"><text text-anchor="middle" x="0" y="433" transform="translate(80,0)" style="font-family: 'Open Sans', verdana, arial, sans-serif; font-size: 12px; fill: rgb(42, 63, 95); fill-opacity: 1; white-space: pre; opacity: 1;"><tspan class="line" dy="0em" x="0" y="433">May 1</tspan><tspan class="line" dy="1.3em" x="0" y="433">2022</tspan></text></g><g class="xtick"><text text-anchor="middle" x="0" y="433" style="font-family: 'Open Sans', verdana, arial, sans-serif; font-size: 12px; fill: rgb(42, 63, 95); fill-opacity: 1; white-space: pre; opacity: 1;" transform="translate(178.70999999999998,0)">May 8</text></g><g class="xtick"><text text-anchor="middle" x="0" y="433" style="font-family: 'Open Sans', verdana, arial, sans-serif; font-size: 12px; fill: rgb(42, 63, 95); fill-opacity: 1; white-space: pre; opacity: 1;" transform="translate(277.41999999999996,0)">May 15</text></g><g class="xtick"><text text-anchor="middle" x="0" y="433" style="font-family: 'Open Sans', verdana, arial, sans-serif; font-size: 12px; fill: rgb(42, 63, 95); fill-opacity: 1; white-space: pre; opacity: 1;" transform="translate(376.13,0)">May 22</text></g><g class="xtick"><text text-anchor="middle" x="0" y="433" style="font-family: 'Open Sans', verdana, arial, sans-serif; font-size: 12px; fill: rgb(42, 63, 95); fill-opacity: 1; white-space: pre; opacity: 1;" transform="translate(474.84,0)">May 29</text></g></g><g class="yaxislayer-above"><g class="ytick"><text text-anchor="end" x="79" y="4.199999999999999" transform="translate(0,400.79)" style="font-family: 'Open Sans', verdana, arial, sans-serif; font-size: 12px; fill: rgb(42, 63, 95); fill-opacity: 1; white-space: pre; opacity: 1;">−40</text></g><g class="ytick"><text text-anchor="end" x="79" y="4.199999999999999" style="font-family: 'Open Sans', verdana, arial, sans-serif; font-size: 12px; fill: rgb(42, 63, 95); fill-opacity: 1; white-space: pre; opacity: 1;" transform="translate(0,358.78)">−20</text></g><g class="ytick"><text text-anchor="end" x="79" y="4.199999999999999" style="font-family: 'Open Sans', verdana, arial, sans-serif; font-size: 12px; fill: rgb(42, 63, 95); fill-opacity: 1; white-space: pre; opacity: 1;" transform="translate(0,316.77)">0</text></g><g class="ytick"><text text-anchor="end" x="79" y="4.199999999999999" style="font-family: 'Open Sans', verdana, arial, sans-serif; font-size: 12px; fill: rgb(42, 63, 95); fill-opacity: 1; white-space: pre; opacity: 1;" transform="translate(0,274.76)">20</text></g><g class="ytick"><text text-anchor="end" x="79" y="4.199999999999999" style="font-family: 'Open Sans', verdana, arial, sans-serif; font-size: 12px; fill: rgb(42, 63, 95); fill-opacity: 1; white-space: pre; opacity: 1;" transform="translate(0,232.76)">40</text></g><g class="ytick"><text text-anchor="end" x="79" y="4.199999999999999" style="font-family: 'Open Sans', verdana, arial, sans-serif; font-size: 12px; fill: rgb(42, 63, 95); fill-opacity: 1; white-space: pre; opacity: 1;" transform="translate(0,190.75)">60</text></g><g class="ytick"><text text-anchor="end" x="79" y="4.199999999999999" style="font-family: 'Open Sans', verdana, arial, sans-serif; font-size: 12px; fill: rgb(42, 63, 95); fill-opacity: 1; white-space: pre; opacity: 1;" transform="translate(0,148.74)">80</text></g><g class="ytick"><text text-anchor="end" x="79" y="4.199999999999999" style="font-family: 'Open Sans', verdana, arial, sans-serif; font-size: 12px; fill: rgb(42, 63, 95); fill-opacity: 1; white-space: pre; opacity: 1;" transform="translate(0,106.73)">100</text></g></g><g class="overaxes-above"/></g></g><g class="polarlayer"/><g class="smithlayer"/><g class="ternarylayer"/><g class="geolayer"/><g class="funnelarealayer"/><g class="pielayer"/><g class="iciclelayer"/><g class="treemaplayer"/><g class="sunburstlayer"/><g class="glimages"/><defs id="topdefs-6def70"><g class="clips"/><clipPath id="legend6def70"><rect width="162" height="67" x="0" y="0"/></clipPath></defs><g class="layer-above"><g class="imagelayer"/><g class="shapelayer"/></g><g class="infolayer"><g class="legend" pointer-events="all" transform="translate(525.74,100)"><rect class="bg" shape-rendering="crispEdges" width="162" height="67" x="0" y="0" style="stroke: rgb(68, 68, 68); stroke-opacity: 1; fill: rgb(255, 255, 255); fill-opacity: 1; stroke-width: 0px;"/><g class="scrollbox" transform="" clip-path="url(#legend6def70)"><g class="groups"><g class="traces" transform="translate(0,14.5)" style="opacity: 1;"><text class="legendtext" text-anchor="start" x="40" y="4.680000000000001" style="font-family: 'Open Sans', verdana, arial, sans-serif; font-size: 12px; fill: rgb(42, 63, 95); fill-opacity: 1; white-space: pre;">BESS</text><g class="layers" style="opacity: 0.5;"><g class="legendfill"/><g class="legendlines"><path class="js-line" d="M5,0h30" style="fill: none; stroke: rgb(0, 191, 255); stroke-opacity: 1; stroke-width: 2px;"/></g><g class="legendsymbols"><g class="legendpoints"/></g></g><rect class="legendtoggle" x="0" y="-9.5" width="156.71875" height="19" style="fill: rgb(0, 0, 0); fill-opacity: 0;"/></g><g class="traces" transform="translate(0,33.5)" style="opacity: 1;"><text class="legendtext" text-anchor="start" x="40" y="4.680000000000001" style="font-family: 'Open Sans', verdana, arial, sans-serif; font-size: 12px; fill: rgb(42, 63, 95); fill-opacity: 1; white-space: pre;">Solar</text><g class="layers" style="opacity: 0.5;"><g class="legendfill"/><g class="legendlines"><path class="js-line" d="M5,0h30" style="fill: none; stroke: rgb(255, 0, 0); stroke-opacity: 1; stroke-width: 2px;"/></g><g class="legendsymbols"><g class="legendpoints"/></g></g><rect class="legendtoggle" x="0" y="-9.5" width="156.71875" height="19" style="fill: rgb(0, 0, 0); fill-opacity: 0;"/></g><g class="traces" transform="translate(0,52.5)" style="opacity: 1;"><text class="legendtext" text-anchor="start" x="40" y="4.680000000000001" style="font-family: 'Open Sans', verdana, arial, sans-serif; font-size: 12px; fill: rgb(42, 63, 95); fill-opacity: 1; white-space: pre;">Grid Meter (Net Load)</text><g class="layers" style="opacity: 0.5;"><g class="legendfill"/><g class="legendlines"><path class="js-line" d="M5,0h30" style="fill: none; stroke: rgb(0, 128, 0); stroke-opacity: 1; stroke-width: 2px;"/></g><g class="legendsymbols"><g class="legendpoints"/></g></g><rect class="legendtoggle" x="0" y="-9.5" width="156.71875" height="19" style="fill: rgb(0, 0, 0); fill-opacity: 0;"/></g></g></g><rect class="scrollbar" rx="20" ry="3" width="0" height="0" x="0" y="0" style="fill: rgb(128, 139, 164); fill-opacity: 1;"/></g><g class="g-gtitle"><text class="gtitle" x="298.5" y="50" text-anchor="middle" dy="0em" style="font-family: 'Open Sans', verdana, arial, sans-serif; font-size: 17px; fill: rgb(42, 63, 95); opacity: 1; font-weight: normal; white-space: pre;"><tspan class="line" dy="0em" x="298.5" y="50">Scenario 5</tspan><tspan class="line" dy="1.3em" x="298.5" y="50">Microgrid Output</tspan><tspan class="line" dy="2.6em" x="298.5" y="50">From: May 01, 2022 to May 31, 2022</tspan></text></g><g class="g-xtitle"><text class="xtitle" x="298.5" y="476.409375" text-anchor="middle" style="font-family: 'Open Sans', verdana, arial, sans-serif; font-size: 14px; fill: rgb(42, 63, 95); opacity: 1; font-weight: normal; white-space: pre;">Time</text></g><g class="g-ytitle"><text class="ytitle" transform="rotate(-90,33.840625,260)" x="33.840625" y="260" text-anchor="middle" style="font-family: 'Open Sans', verdana, arial, sans-serif; font-size: 14px; fill: rgb(42, 63, 95); opacity: 1; font-weight: normal; white-space: pre;">Demand (kW)</text></g></g></svg>