<svg class="main-svg" xmlns="http://www.w3.org/2000/svg" xmlns:xlink="http://www.w3.org/1999/xlink" width="700" height="500" style="" viewBox="0 0 700 500"><rect x="0" y="0" width="700" height="500" style="fill: rgb(255, 255, 255); fill-opacity: 1;"/><defs id="defs-2b41b5"><g class="clips"><clipPath id="clip2b41b5xyplot" class="plotclip"><rect width="432" height="320"/></clipPath><clipPath class="axesclip" id="clip2b41b5x"><rect x="80" y="0" width="432" height="500"/></clipPath><clipPath class="axesclip" id="clip2b41b5y"><rect x="0" y="100" width="700" height="320"/></clipPath><clipPath class="axesclip" id="clip2b41b5xy"><rect x="80" y="100" width="432" height="320"/></clipPath></g><g class="gradients"/><g class="patterns"/></defs><g class="bglayer"/><g class="layer-below"><g class="imagelayer"/><g class="shapelayer"/></g><g class="cartesianlayer"><g class="subplot xy"><g class="layer-subplot"><g class="shapelayer"/><g class="imagelayer"/></g><g class="gridlayer"><g class="x"><path class="xgrid crisp" transform="translate(177.57999999999998,0)" d="M0,100v320" style="stroke: rgb(255, 255, 255); stroke-opacity: 1; stroke-width: 1px;"/><path class="xgrid crisp" transform="translate(275.15999999999997,0)" d="M0,100v320" style="stroke: rgb(255, 255, 255); stroke-opacity: 1; stroke-width: 1px;"/><path class="xgrid crisp" transform="translate(372.74,0)" d="M0,100v320" style="stroke: rgb(255, 255, 255); stroke-opacity: 1; stroke-width: 1px;"/><path class="xgrid crisp" transform="translate(470.32,0)" d="M0,100v320" style="stroke: rgb(255, 255, 255); stroke-opacity: 1; stroke-width: 1px;"/></g><g class="y"><path class="ygrid crisp" transform="translate(0,414.33)" d="M80,0h432" style="stroke: rgb(255, 255, 255); stroke-opacity: 1; stroke-width: 1px;"/><path class="ygrid crisp" transform="translate(0,338.06)" d="M80,0h432" style="stroke: rgb(255, 255, 255); stroke-opacity: 1; stroke-width: 1px;"/><path class="ygrid crisp" transform="translate(0,185.53)" d="M80,0h432" style="stroke: rgb(255, 255, 255); stroke-opacity: 1; stroke-width: 1px;"/><path class="ygrid crisp" transform="translate(0,109.27)" d="M80,0h432" style="stroke: rgb(255, 255, 255); stroke-opacity: 1; stroke-width: 1px;"/></g></g><g class="zerolinelayer"><path class="yzl zl crisp" transform="translate(0,261.8)" d="M80,0h432" style="stroke: rgb(255, 255, 255); stroke-opacity: 1; stroke-width: 2px;"/></g><path class="xlines-below"/><path class="ylines-below"/><g class="overlines-below"/><g class="xaxislayer-below"/><g class="yaxislayer-below"/><g class="overaxes-below"/><g class="plot" transform="translate(80,100)" clip-path="url(#clip2b41b5xyplot)"><g class="scatterlayer mlayer"><g class="trace scatter trace9053a3" style="stroke-miterlimit: 2; opacity: 0.5;"><g class="fills"/><g class="errorbars"/><g class="lines"><path class="js-line" d="M0,161.8L0.29,163.61L0.73,161.8L0.87,161.8L1.89,161.8L2.03,161.8L3.49,161.8L3.63,218.59L4.65,138.04L4.79,146.41L4.94,125.56L5.37,161.8L5.52,161.8L10.89,161.8L11.04,221.34L11.76,161.8L11.91,165.99L12.05,162.85L12.2,162.79L12.34,163.31L12.49,162.11L12.63,162.52L13.07,161.55L13.21,161.71L13.36,161.8L13.5,162.98L13.94,161.8L14.23,161.88L14.38,163.51L15.1,161.8L15.25,162.86L15.97,161.8L16.12,221.66L16.99,161.8L17.13,169.18L18.15,161.8L18.3,161.8L18.88,151.42L19.17,155.5L19.31,156.72L19.46,150.15L19.75,161.8L19.89,100.34L20.04,146.43L20.62,131.44L20.77,99.96L20.91,173.74L21.49,148.97L21.64,161.8L24.83,161.8L24.98,165.69L25.7,171.53L25.85,163.93L26.72,161.8L26.86,163.53L27.44,162.02L27.74,162.23L27.88,162.05L28.9,161.83L29.04,161.8L31.37,161.87L31.51,222.3L31.66,133.31L32.24,156.21L32.38,168.85L32.53,164.29L32.67,187L32.96,133.23L33.4,159.98L33.54,161.24L33.98,207.26L34.27,163.81L34.41,83.73L35.14,146.45L35.29,99.96L36.16,161.8L36.3,161.8L38.48,161.8L38.63,228.74L38.92,233.5L39.06,133.34L39.35,144.49L39.5,190.25L39.64,159.84L40.37,162.88L40.51,165.92L40.8,166.13L41.24,162.75L41.38,166.28L41.68,161.4L42.26,162.77L42.4,164.26L42.69,161.8L43.27,161.92L43.42,161.8L44.58,161.8L44.72,221.4L44.87,135.03L45.45,157.69L45.6,161.83L45.74,208.91L46.18,152.2L46.32,152.61L46.47,143.53L46.61,144.36L46.76,135.24L47.05,138.53L47.48,124.64L47.63,136.37L47.77,118.72L47.92,178.22L48.35,127.88L48.5,126.3L48.79,121.67L48.94,134.7L49.52,130.25L49.66,132.75L49.81,156.11L50.68,161.8L50.82,161.8L52.86,161.8L53,175.77L53.73,163.57L53.87,167.43L54.16,168.07L54.6,161.69L54.74,162.15L54.89,164.91L55.47,165.69L55.76,161.8L55.91,163.17L56.2,161.8L56.49,161.95L56.63,164.88L57.21,161.8L57.36,169.7L58.37,161.8L58.52,161.8L59.1,222.94L59.25,177.08L59.39,161.8L59.97,161.8L60.12,157.49L60.99,161.8L61.13,161.8L62.3,161.8L62.44,98.42L62.73,93.36L63.31,161.8L63.46,165.02L63.6,120.24L64.18,120.95L64.33,151.59L64.47,140.05L64.76,161.8L64.91,161.8L65.05,161.8L66.36,161.8L66.51,164.37L66.65,162.44L66.8,164.51L66.94,185.16L67.81,163.42L67.96,161.16L68.83,166.84L68.97,163.02L69.12,164.39L69.41,161.8L69.56,161.8L69.7,162.31L69.85,161.56L70.43,161.8L70.57,161.8L72.9,161.8L73.04,204.51L74.06,161.8L74.2,161.8L75.36,161.8L75.51,222.08L76.09,254.11L76.24,80.32L76.38,231.23L77.11,59.67L77.25,235.01L77.4,84.01L77.98,111.47L78.12,193.83L78.27,125.19L78.85,161.43L78.99,160.94L79.58,161.8L79.72,169.85L80.59,161.8L80.74,161.8L85.67,161.8L85.82,204.51L85.96,129.77L86.55,165.47L86.69,172.53L87.56,161.8L87.71,218.57L88.43,123L88.58,141.5L88.87,172.41L89.01,85.25L89.3,85.44L89.45,142.71L89.59,81.92L90.03,145.57L90.18,103.32L90.32,142.07L90.61,147.37L90.76,105.09L91.05,111.05L91.19,143.99L91.34,164.97L91.48,101.35L91.63,146.41L91.77,107.04L92.64,161.8L92.79,161.8L94.68,161.8L94.82,224.61L95.26,143.2L95.69,174.83L95.84,166.02L95.98,168.28L96.27,162.01L96.42,167.22L96.56,163.14L97.15,162.07L97.29,161.8L97.58,164.47L98.16,163.6L98.31,162.25L98.74,161.8L98.89,164.26L99.03,162.41L99.18,161.8L99.61,162.8L99.9,162.09L100.05,161.87L100.92,161.8L101.07,162.51L101.21,220.9L101.5,162.12L101.94,216.39L102.08,195.2L102.95,161.8L103.1,161.8L103.39,161.03L103.53,138.93L103.68,192.14L104.12,94.98L104.26,145.19L104.41,101.13L104.7,92.61L104.99,161.8L105.13,81.78L105.86,148.02L106,83.65L106.87,147.22L107.02,161.8L108.47,161.8L108.62,164.06L108.76,169.76L109.2,163.44L109.34,162.67L110.21,161.8L110.36,161.8L111.09,161.8L111.23,169.3L111.52,171.27L112.1,161.8L112.25,162.58L112.54,161.8L112.68,164.25L112.97,161.8L113.12,169.49L113.41,170.44L113.99,161.8L114.14,161.97L114.28,161.84L114.43,170.58L115.3,161.8L115.44,161.8L115.59,161.8L115.73,155.25L115.88,158.18L116.02,199.18L116.89,121.38L117.04,174.48L117.18,173.72L117.33,90.98L117.77,167.2L118.2,161.8L118.35,161.8L122.56,161.8L122.7,163.32L122.85,167.37L123.28,162.07L123.43,163.13L123.57,162.13L124.01,161.8L124.15,162.87L124.3,162.07L124.45,161.8L124.59,162.5L125.17,161.8L125.32,161.93L126.77,161.8L126.91,161.8L129.82,161.8L129.96,185.46L130.11,118.22L130.69,161.8L130.83,161.8L132.58,161.8L132.72,230.86L133.74,105.32L133.88,142.08L134.03,104.82L134.46,148.76L134.61,163.63L135.48,161.8L135.63,161.8L136.5,161.8L136.64,166.06L136.79,170.24L137.08,161.98L137.22,163.39L137.37,162.18L137.95,161.84L138.09,164.79L138.24,162.55L138.97,165.2L139.11,162.58L139.26,164.74L139.55,161.8L139.69,161.8L139.84,161.8L140.71,161.8L140.85,221.98L141.58,163.85L141.73,169.6L141.87,163.75L142.02,169.64L142.45,163.65L142.6,161.8L143.61,161.8L143.76,193.81L144.48,104.49L144.63,143.67L145.06,160.77L145.21,75.78L145.36,179.76L146.37,161.8L146.52,161.8L151.6,161.8L151.74,169.33L152.62,161.8L152.76,161.8L152.91,162.96L153.49,161.8L153.63,162.1L154.65,161.8L154.79,161.8L155.67,161.8L155.81,169.76L156.39,161.8L156.68,163.69L156.83,177.33L157.55,161.8L157.7,194.26L158.57,111.22L158.71,149.73L159.59,161.8L159.73,161.8L159.88,161.8L160.02,178.64L160.17,218.24L160.6,146.79L160.75,180.47L160.89,151.73L161.33,218.42L161.62,213.29L161.76,174.67L162.49,103.94L162.78,109.03L162.93,148.61L163.07,122.39L163.51,153.84L163.65,138.87L163.8,156.07L163.94,147.59L164.23,161.8L164.38,161.8L164.52,174.54L164.67,164.98L165.1,167.85L165.25,177.96L165.54,178.85L165.68,156.63L166.12,161.8L166.27,161.8L168.73,161.8L168.88,221.92L169.02,133.99L169.61,143.53L169.75,161.76L169.9,157.26L170.19,161.8L170.48,161.8L170.62,161.8L172.07,161.8L172.22,213.29L173.09,161.8L173.24,161.8L173.38,169.85L173.96,161.8L174.11,161.8L174.83,161.8L174.98,169.85L175.12,172.6L175.41,163.81L175.56,169.85L175.7,163.81L175.85,169.85L176.14,161.8L176.29,161.8L176.43,161.8L177.45,161.8L177.59,169.85L178.46,161.8L178.61,161.8L180.79,161.8L180.93,204.51L181.37,129.77L181.8,161.8L181.95,157.22L182.82,161.8L182.96,161.8L184.71,161.8L184.85,213.29L185,140.75L185.58,157.22L185.72,160.27L186.3,161.8L186.45,204.51L186.59,129.77L187.18,157.22L187.32,160.27L188.19,161.8L188.34,161.8L188.63,161.8L188.77,169.85L189.64,161.8L189.79,161.8L191.97,161.8L192.11,204.51L192.4,206.7L192.55,138.55L192.98,163.99L193.13,163.32L193.27,213.29L193.71,138.55L193.86,177.72L194,152.28L194.15,163.99L194.87,161.8L195.02,161.8L197.34,161.8L197.49,204.51L197.63,138.55L198.21,165.52L198.36,161.8L199.66,161.8L199.81,213.29L200.68,161.8L200.83,161.8L201.41,161.8L201.55,169.85L201.99,224.82L202.28,163.81L202.42,161.8L202.71,161.8L202.86,204.51L203.15,206.7L203.29,138.55L203.73,174.98L203.87,165.52L204.02,169.85L204.31,161.8L204.46,161.8L204.6,161.8L205.18,161.8L205.33,204.51L205.76,129.77L206.2,161.8L206.34,157.22L207.21,161.8L207.36,161.8L211.86,161.8L212.01,204.51L212.3,236.54L212.44,97.74L212.73,111.46L212.88,193.83L213.02,125.19L213.6,152.65L213.75,158.75L214.04,161.8L214.18,222.08L215.06,161.8L215.2,161.8L297.68,161.8L297.83,150.83L298.12,159.26L298.55,102.96L298.84,111.55L298.99,112.98L299.42,162.15L299.57,161.54L299.71,103.47L299.86,147.22L300,94.75L300.44,145.85L300.58,81.86L301.46,159.1L301.6,99.83L302.04,182.15L302.33,168.04L302.47,115.08L303.05,161.8L303.34,158.85L303.49,161.8L304.07,174.53L304.22,164.98L304.36,174.1L304.8,163.89L304.94,167.26L305.09,164.66L305.38,164.69L305.52,163.46L305.67,167.95L305.81,163.27L306.25,164.33L306.39,166.26L307.12,162.51L307.26,164.26L308.14,161.98L308.28,162.07L308.57,162.63L308.72,162.01L308.86,162.61L309.01,162L309.15,222.55L309.3,135.12L309.88,163.59L310.02,172.95L310.6,158.77L310.89,161.79L311.04,160.15L311.77,124.24L311.91,124.84L312.06,112.89L312.2,113.03L312.35,111.71L312.64,115.23L312.78,127.92L312.93,122.11L313.07,179.82L313.8,109L313.94,184.81L314.38,92.9L314.67,162.46L314.82,161.8L315.11,110.63L315.4,185.36L315.54,178.27L315.69,198.73L316.27,179.06L316.41,180.66L316.85,182.25L316.99,172.51L317.14,185.85L317.86,167.14L318.01,169.45L318.16,164.4L318.59,178.48L318.88,165.49L319.03,162.72L319.17,167.39L319.61,162.21L319.75,163.71L319.9,162.28L320.19,162.66L320.77,161.8L320.91,162.4L321.2,161.89L321.35,164.19L321.93,161.8L322.22,161.88L322.37,162.49L322.51,161.97L322.66,162.87L322.8,221.94L322.95,134.67L323.53,160.61L323.67,166.53L323.82,166.01L323.96,167.69L324.25,166.96L324.4,162.86L324.54,161.8L324.69,163.77L324.83,170.77L324.98,166.43L325.13,169.53L325.27,179.98L325.56,184.35L325.71,166.96L325.85,108.35L326.43,101.69L326.58,201.65L326.72,132.67L326.87,184.77L327.45,134.96L327.59,126.18L327.88,121.05L328.03,133.19L328.17,156.79L328.47,230.37L328.76,180.3L328.9,99L329.77,217.63L329.92,175.35L330.06,212.29L330.21,174.48L330.64,184.99L330.79,178.75L330.93,179.75L331.08,176.67L331.22,175.77L331.95,166.16L332.1,172.88L332.82,164.35L332.97,167.21L333.4,167.47L333.55,163.05L333.84,163.2L333.98,165.01L334.85,162.16L335,163.37L335.14,163.57L335.29,162.14L335.44,163.08L335.73,161.8L336.02,162.39L336.16,162.65L336.74,161.83L336.89,162.99L337.76,161.8L337.9,161.8L339.94,161.8L340.08,109.62L340.95,185.18L341.1,184.82L341.24,144.4L341.68,163.8L342.11,161.8L342.26,163.73L342.41,154.64L342.99,161.8L343.13,161.8L344.15,161.8L344.29,156.2L344.44,160.4L344.58,149.78L344.73,158.79L344.87,148.68L345.6,165.06L345.75,162.7L345.89,233.97L346.76,161.8L346.91,161.8L352.42,161.8L352.57,160.88L353.15,161.8L353.3,138.36L353.44,198.92L353.73,142.97L354.31,161.8L354.46,161.8L355.47,114.69L355.62,132.39L356.06,99.98L356.2,146.66L356.35,103.83L356.49,147.31L357.36,283.82L357.51,192.3L358.38,161.8L358.52,161.8L422.85,161.8L423,150.08L423.43,119.77L423.58,183.13L424.3,107.2L424.45,148.15L424.59,170.33L424.74,163.93L424.88,111.46L425.18,98.94L425.32,192.81L425.61,135.21L425.76,129.32L426.05,119.52L426.48,155.97L426.63,137.36L426.77,193.99L427.21,98.5L427.35,148.97L427.5,97.99L428.22,151.7L428.37,132.18L429.24,167.5L429.39,174.01L429.68,175.23L429.82,171.8L429.97,166.91L430.11,173.41L430.55,164.35L430.69,170.75L430.84,164.04L430.98,170.96L431.56,163.1L431.71,164.56L431.85,167.32L432,163.01" style="vector-effect: non-scaling-stroke; fill: none; stroke: rgb(0, 191, 255); stroke-opacity: 1; stroke-width: 2px; opacity: 1;"/></g><g class="points"/><g class="text"/></g><g class="trace scatter trace5920d2" style="stroke-miterlimit: 2; opacity: 0.5;"><g class="fills"/><g class="errorbars"/><g class="lines"><path class="js-line" d="M0,161.98L3.34,161.9L3.49,161.11L4.21,132.77L4.36,119.76L5.81,16.11L6.24,16.21L6.39,16.2L8.86,16.45L9,16.42L9.29,16.88L9.44,20.43L11.76,161.99L11.91,161.98L17.43,161.33L17.57,159.26L18.15,146.57L18.3,139.44L20.04,16L20.62,16.2L20.77,16.19L23.09,16.52L23.23,17.51L24.1,81.72L24.25,95L25.56,161.99L25.7,161.98L25.85,161.98L31.66,161.52L31.8,160.44L32.38,143.04L32.53,126.01L32.96,59.16L33.11,161.8L34.12,161.8L34.27,137.74L34.41,16.22L35.14,16.29L35.29,16.32L37.03,16.41L37.17,17.53L38.05,83.22L38.19,96.83L39.64,161.99L39.79,161.98L45.16,161.75L45.31,160.54L46.18,114.84L46.32,104.72L47.63,16.15L48.06,16.28L48.21,16.34L50.39,16.65L50.53,40.5L50.82,16.62L51.4,161.8L51.55,161.8L52.86,161.56L53,160.59L53.87,161.98L54.02,161.97L59.1,161.71L59.25,160.37L60.12,129.72L60.26,161.8L62.15,161.8L62.3,137.94L62.88,16.42L63.17,16.56L63.31,16.56L65.05,16.61L65.2,18.35L66.22,111.72L66.36,130.25L67.52,161.99L67.67,161.99L69.12,161.98L69.27,161.98L73.04,161.6L73.19,159.97L73.48,156.23L73.62,161.8L73.77,161.8L73.91,161.8L75.94,161.8L76.09,138.01L76.24,16.4L76.96,16.56L77.11,40.37L77.98,161.8L78.12,161.8L86.98,161.82L87.13,160.89L87.71,142.24L87.85,130.81L89.45,16.12L89.89,16.22L90.03,16.26L91.05,16.17L91.19,40.01L91.34,138.08L91.63,16.23L91.77,16.26L91.92,16.31L92.93,16.62L93.08,18.9L95.4,161.99L95.55,161.98L95.69,161.98L101.21,161.57L101.36,160.37L103.39,111.43L103.53,92.14L103.83,111.88L103.97,57.02L104.12,28.44L104.84,69.2L104.99,138.94L105.13,22.26L105.71,47.56L105.86,55.5L106,29.11L106.29,75.21L106.44,71.9L106.58,77.92L106.73,34.62L107.31,63.7L107.46,50.63L107.75,149.77L108.33,129.61L108.47,142.36L109.34,162L109.49,161.96L109.63,161.8L114.86,161.74L115.01,160.92L115.59,135.72L115.73,108.65L115.88,108.4L116.02,118.58L116.31,108.29L116.46,71.92L117.33,25.14L117.47,40L117.62,38.87L117.77,48.41L118.06,34.56L118.2,40.04L118.35,74.47L119.07,22.81L119.22,29.55L119.36,25.24L119.51,62.74L119.8,19.14L120.09,42.33L120.23,16.21L121.54,61L121.69,75.01L123.28,161.99L123.43,161.98L123.57,161.98L128.8,161.75L128.95,160.64L129.67,125.53L129.82,112.82L131.12,16.14L131.56,16.22L131.71,39.71L132.58,161.8L132.72,161.8L133.45,161.8L133.59,138.32L133.74,16.26L134.46,21.12L134.61,45.99L134.75,48.26L134.9,23.46L135.34,45.68L135.48,95.99L135.63,93.65L135.77,66.63L137.22,161.99L137.37,161.98L137.51,161.98L142.74,161.6L142.89,159.89L143.61,125.74L143.76,112.56L144.77,27.65L144.92,42.58L145.06,138.38L145.21,16.22L145.94,16.28L146.08,16.35L148.55,16.48L148.7,39.81L148.99,22.37L149.57,161.8L149.71,161.8L156.68,161.56L156.83,160.07L157.41,138.95L157.55,124.98L159.01,16.29L159.44,16.42L159.59,16.49L159.88,39.88L160.02,161.8L162.2,161.8L162.34,138.57L162.64,16.74L163.07,36.05L163.22,47.48L165.1,161.99L165.25,161.96L165.39,161.83L166.41,161.8L166.56,161.8L297.54,161.8L297.68,155.78L298.55,16.09L298.84,16.14L298.99,16.19L300,16.26L300.15,16.26L301.89,16.38L302.04,16.83L302.47,39.11L302.62,49.98L304.65,161.99L304.8,161.98L309.88,161.85L310.02,160.92L310.89,118.38L311.04,110.06L312.78,16.16L313.07,16.26L313.22,16.3L314.96,16.51L315.11,24.01L316.12,161.8L316.27,161.8L325.42,161.89L325.56,159.72L326.72,16.44L326.87,16.43L328.03,16.67L328.17,27.12L328.47,161.8L328.76,109.71L328.9,16.06L329.34,16.08L329.48,23.6L330.5,161.8L330.64,161.8L339.79,161.81L339.94,143.07L340.23,19.99L340.66,88L340.81,87.97L344.58,88.04L344.73,88.25L345.02,101.98L345.16,114.05L346.47,161.98L346.62,161.98L351.7,161.77L351.84,160.63L352.72,124.68L352.86,114.08L353.73,88.02L353.88,88.03L354.02,88.02L354.75,87.97L354.89,80.68L355.18,16.47L355.76,16.56L355.91,16.63L356.35,16.8L356.49,33.07L357.36,161.8L357.51,161.8L422.71,161.81L422.85,154.26L424.01,16.24L424.16,16.34L427.35,16.71L427.5,17.47L428.37,74.86L428.51,87.54L430.11,161.98L430.26,161.98L432,161.98" style="vector-effect: non-scaling-stroke; fill: none; stroke: rgb(255, 0, 0); stroke-opacity: 1; stroke-width: 2px; opacity: 1;"/></g><g class="points"/><g class="text"/></g><g class="trace scatter traced5384c" style="stroke-miterlimit: 2; opacity: 0.5;"><g class="fills"/><g class="errorbars"/><g class="lines"><path class="js-line" d="M0,184.19L0.29,184.58L0.44,183.34L0.87,183.55L1.02,184.41L1.89,182.76L2.03,182.78L2.32,183.65L2.47,184.43L2.9,183.03L3.34,183.09L3.49,244.11L4.5,146.5L4.65,153.58L5.66,47.07L5.95,51.16L6.1,59.59L6.53,59.13L6.82,75.07L7.26,71.04L7.41,70.17L7.99,154.69L8.13,98.03L8.57,70.23L9,76.53L9.15,67.59L9.29,57.12L9.58,70.13L9.73,81.51L10.75,163.02L10.89,234.74L11.18,184.47L11.76,185.46L11.91,185.02L12.34,185.38L12.49,183.8L12.78,183.96L12.92,180.89L13.07,165.52L13.36,184.79L13.5,184.51L13.65,183.25L14.38,184.64L14.52,183.43L14.67,183.4L14.81,184.4L15.1,184.64L15.68,183.02L15.83,184.29L16.41,183.11L16.55,245.47L16.7,199.76L17.43,178.9L17.57,179.63L17.72,179.23L18.01,181.05L18.3,173.79L18.44,162.95L18.73,154.99L18.88,167.74L19.31,153.7L19.46,201.45L20.33,106.92L20.47,131.29L20.62,103.47L20.77,191.49L21.2,109.59L21.35,139.3L21.64,80.97L21.93,160.66L22.07,152.99L22.22,150.14L22.36,88.17L22.51,69.41L23.09,81.43L23.23,87.08L23.52,82.82L23.67,101.19L24.69,174.39L24.83,183.68L25.27,192.13L25.56,191.91L25.7,182.04L26.28,185.91L26.72,184.87L26.86,184.42L27.01,182.68L27.44,185.55L27.59,184.53L27.74,183.15L28.61,184.79L28.75,184.8L29.48,183.01L29.62,184.11L29.91,184.64L30.2,182.97L30.49,183.3L30.64,179.82L30.78,165.48L31.22,184.63L31.37,245.2L31.51,138.6L32.09,163.22L32.24,191.02L32.53,220.26L32.96,113.97L33.11,160.87L33.25,178.28L33.4,165.82L33.54,223.37L33.83,230.14L34.56,95.04L34.85,98.38L35,146.92L35.87,80.9L36.01,78.52L36.59,90.91L36.74,93.85L37.32,83.73L37.46,93.84L38.77,252.82L38.92,134.69L39.06,221.95L39.64,194.67L39.79,177.95L40.66,188.91L40.8,185.9L40.95,188.02L41.09,185.33L41.38,186.18L41.53,184.41L41.68,166.47L41.97,187.25L42.26,186.67L42.4,184.63L42.55,183.11L43.27,183.21L43.42,184.11L43.85,184.42L44.43,183.15L44.58,244.32L44.72,138.78L45.31,165.63L45.45,181.87L45.6,235.49L46.03,161.17L46.18,158L47.34,131.09L47.48,134.09L47.63,117.01L47.77,195.89L48.35,121.15L48.65,124.01L48.79,131.64L49.08,135.76L49.66,120.23L49.81,85.55L50.24,67.77L50.39,71.5L50.53,88.4L50.82,79.18L51.4,161.8L51.55,170.58L52.42,172.78L52.57,172.78L53,180.91L53.15,195.46L53.29,186.76L53.87,186.9L54.02,189.87L54.6,165.72L54.74,185.28L54.89,185.2L55.33,183.99L55.76,184.32L55.91,185.01L56.05,185.59L56.2,184.15L56.34,184.44L56.49,183.79L56.63,184.6L56.78,182.74L57.07,184.11L57.21,191.99L58.23,182.96L58.37,184.11L58.81,171.12L58.96,242.13L59.1,199.7L59.25,182.32L60.12,161.6L60.55,161.8L60.7,161.8L61.28,183.76L61.57,181.57L61.71,174.98L62.15,161.8L62.3,148.8L62.44,152.84L62.59,97.29L63.17,182L63.31,180.7L63.46,124.54L63.89,157.63L64.18,151.8L64.33,132.93L64.47,154.36L64.76,118.72L64.91,101.3L65.2,99.73L65.78,121.82L65.93,140.67L66.8,190.01L67.09,188.8L67.23,186.62L67.38,191.25L67.81,183.42L67.96,166.93L68.25,189.13L68.83,185.38L68.97,183.77L69.27,185.42L69.41,183.16L69.56,184.31L69.7,180.98L70.57,161.8L70.72,161.8L72.02,161.8L72.17,165.33L72.9,240.7L73.04,198.55L73.19,169.74L73.33,185.27L73.91,172.78L74.06,164L74.93,161.8L75.07,161.8L75.22,161.8L75.36,240.38L75.8,138.74L75.94,272.41L76.09,143.79L76.24,240.34L76.96,26.58L77.11,142.49L77.25,88.59L77.4,239.59L77.54,102.31L77.69,225.86L77.83,116.04L78.41,143.5L78.56,184.68L78.7,166.01L79.28,183.76L79.43,183.76L79.87,192.73L80.01,177.91L80.16,181.75L81.32,161.8L81.46,161.8L85.53,161.8L85.67,222.81L85.82,134.34L86.4,168.63L86.55,192.31L86.69,192.25L86.84,189.49L86.98,190.51L87.13,190.31L87.27,186.85L87.42,186.58L87.56,243.79L88.29,132.93L88.43,149.94L88.58,119.28L88.72,199.06L89.16,92.63L89.3,143.02L89.45,86.35L89.59,151.72L90.18,146.14L90.32,103.01L90.47,151.09L90.61,100.26L91.05,140.07L91.19,125L91.34,165.38L91.63,107.79L91.77,138.96L91.92,105.73L92.06,137.07L92.5,69.11L92.64,76.93L92.93,61.78L93.22,74.16L93.37,79.38L94.97,247.66L95.11,143.75L95.26,211.02L95.84,183.2L95.98,184.73L96.13,181.79L96.27,185.83L96.71,185.12L96.86,186.03L97.29,183.65L97.87,184.48L98.02,183.98L98.6,183.12L98.74,185.01L98.89,184.81L99.03,184.07L99.47,183.63L99.76,185.54L99.9,184.63L100.05,183.95L100.19,183.85L100.34,184.48L100.49,183.14L100.92,183.55L101.07,245.45L101.36,182.58L101.79,240.92L101.94,217.04L102.66,172.04L102.81,179.86L102.95,178.61L103.39,150L103.53,222.17L104.55,101.48L104.7,147.16L104.99,156.94L105.28,91.06L105.57,102.46L105.71,150.61L106.15,91.6L106.44,122.14L106.58,139.42L107.02,91.65L107.46,92.94L107.6,117.23L108.47,178.33L108.62,186.75L108.91,192.73L109.05,180.67L109.34,184.77L109.49,181L109.63,161.8L110.36,161.8L110.5,170.58L111.23,186.64L111.38,192.66L111.81,178.2L112.25,184.6L112.39,183.75L112.68,184.6L112.83,182.87L112.97,192.29L113.26,192.71L113.84,183.76L113.99,183.7L114.14,184.44L114.28,192.14L114.57,192.32L115.15,179.07L115.3,179.94L115.44,179.01L115.73,159.76L115.88,209.1L116.6,122.64L116.75,134.06L116.89,196.51L117.77,121.3L117.91,143.64L118.35,152.86L118.78,96.98L118.93,96.95L119.36,76.1L119.51,173.35L119.65,183.16L119.8,152.57L119.94,102.92L120.09,103.61L120.23,80.88L120.52,112.31L120.96,85.76L121.11,90.52L121.25,81.68L121.4,97.12L121.54,94.54L121.69,114.86L122.99,188.88L123.14,184.57L123.28,183.83L123.86,183.14L124.15,184.63L124.3,183.75L124.74,183.29L124.88,184.49L125.03,183.43L125.32,184.53L125.46,181.54L125.61,172.42L126.04,184.37L126.19,183.86L126.33,184.54L126.77,184.4L126.91,183.38L127.78,184.29L127.93,183.54L128.51,183.53L128.66,183.1L128.8,183.21L128.95,181.75L129.67,159.05L129.82,207.86L130.69,78.86L130.83,78.29L131.12,62.33L131.27,52.97L131.71,71.32L131.85,170.58L132.43,172.78L132.58,251.36L133.3,172.96L133.45,181.57L133.59,168.83L133.88,104.1L134.32,138.15L134.46,159.6L134.61,176.25L134.75,169.94L134.9,84.84L135.05,77.55L135.34,86.8L135.48,130.89L135.63,130.22L135.77,99.73L136.21,145L136.35,167.72L136.79,188.32L137.22,184.66L137.37,183.24L138.24,186.39L138.39,185.46L138.53,186.66L139.11,186.56L139.26,185.35L139.4,186.66L139.69,184.42L139.84,179.84L139.98,165.27L140.42,184.34L140.56,183.57L140.71,244.8L141.29,192.51L141.43,186.66L141.73,186.61L142.16,192.57L142.31,178.29L142.6,183.41L143.03,177.97L143.18,174.93L143.47,165.4L143.61,220.89L144.34,112.73L144.48,150.33L144.63,102.89L145.06,148L145.21,202L145.79,82.6L146.08,88.18L146.23,82.62L146.66,72.62L146.81,74.74L146.95,131.95L147.39,140.58L147.68,65.54L147.82,68.99L147.97,72.09L148.55,68.19L148.7,80.81L148.84,207.19L149.13,89.17L149.57,161.8L149.71,170.58L150.58,172.78L150.73,172.78L151.45,161.8L151.6,166.99L151.74,186.49L151.89,190.1L152.33,183.29L152.47,183.76L152.62,183.61L152.76,184.07L152.91,184.58L153.2,184.69L153.78,183.64L153.92,184.51L154.79,183.68L154.94,183.69L155.37,183.72L155.52,183.56L155.67,192.47L155.96,192.57L156.1,177.83L156.54,186.56L156.68,200.81L157.41,174.43L157.55,227.59L158.86,79.9L159.01,75.78L159.44,174.03L159.73,94.93L159.88,115.33L160.02,241.11L160.6,198.77L160.75,156.31L161.18,236.72L161.62,197.55L161.76,175.16L161.91,172.78L162.05,181.57L162.2,192.55L162.93,112.8L163.22,122.98L163.36,155.06L163.51,131.13L163.94,161.49L164.09,168.85L164.96,197.08L165.1,193.79L165.25,187.12L166.41,161.8L166.56,161.8L168.01,161.8L168.15,165.25L168.73,245.02L168.88,138.67L169.02,211.37L169.61,180.06L169.75,161.84L170.19,161.8L170.91,183.76L171.06,174.98L171.49,161.8L171.78,172.78L171.93,172.78L172.07,233.79L172.51,161.8L172.65,161.8L172.8,161.8L173.24,192.55L173.53,183.95L173.67,174.98L173.96,164L174.11,170.58L174.25,181.57L174.98,195.48L175.12,194.93L175.27,186.69L175.7,192.73L175.85,177.91L176.58,161.8L176.72,170.58L177.74,192.73L177.88,177.91L179.04,161.8L179.19,161.8L180.64,161.8L180.79,222.81L181.08,227.39L181.22,134.34L181.8,161.8L181.95,166.37L182.82,161.8L182.96,161.8L184.42,161.8L184.56,170.58L184.71,233.79L184.85,145.33L185.29,182.3L185.43,161.8L185.58,166.37L186.16,161.8L186.3,222.81L186.45,134.34L187.03,161.8L187.18,166.37L188.34,183.76L188.48,183.76L188.63,192.55L189.06,174.98L189.21,172.78L189.5,172.78L189.64,181.57L190.52,172.78L190.66,172.78L191.53,161.8L191.68,161.8L192.26,229.58L192.4,143.13L193.13,232.27L193.27,197.55L193.42,227.39L193.57,143.13L194.15,170.59L194.29,171.26L195.02,172.78L195.16,164L196.03,161.8L196.18,161.8L196.76,172.78L196.9,164L197.05,161.8L197.34,222.81L197.49,143.13L197.92,191.08L198.07,172.78L198.5,164L198.65,170.58L199.52,172.78L199.66,233.79L200.39,164L200.54,170.58L200.68,172.78L200.97,172.78L201.12,181.57L201.41,192.55L201.55,247.7L202.57,164L202.71,222.81L203,229.58L203.15,143.13L203.44,167.84L203.58,193.28L203.73,181.57L204.31,183.76L204.46,183.76L205.04,164L205.18,222.81L205.47,227.39L205.62,134.34L206.2,161.8L206.34,166.37L207.21,161.8L207.36,161.8L210.99,161.8L211.14,170.58L211.43,172.78L211.57,164L211.72,161.8L211.86,222.81L212.15,254.84L212.3,102.31L212.59,116.04L212.73,212.13L212.88,129.77L213.46,157.22L213.6,170.95L213.89,181.57L214.04,244.77L214.62,164L214.91,172.78L215.06,172.78L215.35,164L215.49,170.58L215.64,181.57L215.93,183.76L216.07,174.98L216.36,172.78L216.51,181.57L216.94,260.03L217.23,172.78L217.38,172.78L218.11,161.8L218.25,170.58L219.12,183.76L219.27,174.98L219.56,183.76L219.85,172.78L219.99,172.78L220.57,172.78L220.72,164L221.59,161.8L221.74,161.8L226.24,161.8L226.38,231.6L227.25,161.8L227.4,231.6L227.54,249.04L227.69,188.03L227.83,172.78L227.98,164L228.13,222.81L228.27,255.63L228.56,192.55L228.71,194.74L228.85,194.74L229.14,194.74L229.29,177.17L229.72,161.8L230.01,172.78L230.16,172.78L230.45,249.04L230.88,174.98L231.03,172.78L231.76,183.76L231.9,174.98L233.06,161.8L233.21,161.8L239.89,161.8L240.03,170.58L240.18,233.79L240.61,164L240.76,161.8L241.48,172.78L241.63,164L241.92,161.8L242.07,179.37L242.79,246.97L242.94,190.23L243.08,172.78L243.23,181.57L243.37,244.77L243.52,260.03L243.66,207.8L243.81,194.74L244.82,183.76L244.97,183.76L245.55,183.76L245.7,174.98L246.13,172.78L246.28,181.57L247.15,172.78L247.29,172.78L247.58,172.78L247.73,164L248.6,161.8L248.74,161.8L250.34,161.8L250.49,170.58L251.36,172.78L251.5,172.78L251.79,172.78L251.94,164L252.81,161.8L252.96,161.8L254.7,161.8L254.84,170.58L255.13,238.06L255.57,164L255.71,161.8L256.59,161.8L256.73,222.81L256.88,238.06L257.02,177.05L257.17,161.8L257.46,172.78L258.04,170.58L258.18,172.78L259.49,172.78L259.64,233.79L259.93,196.82L260.36,260.03L260.51,190.23L261.38,172.78L261.52,172.78L261.67,172.78L261.81,181.57L261.96,183.76L262.1,174.98L262.25,172.78L263.12,172.78L263.27,164L264.14,161.8L264.28,161.8L265.73,161.8L265.88,170.58L266.17,172.78L266.32,164L267.19,161.8L267.33,161.8L269.07,161.8L269.22,231.6L269.51,260.03L269.66,199.02L269.8,174.98L269.95,172.78L270.09,181.57L270.24,183.76L270.96,172.78L271.11,181.57L271.25,174.98L271.54,183.76L271.69,244.77L271.98,260.03L272.12,216.59L272.27,196.94L272.41,185.96L272.56,244.77L272.85,260.03L272.99,199.02L273.87,161.8L274.01,161.8L280.69,161.8L280.84,222.81L280.98,238.06L281.13,177.05L281.27,161.8L282.29,161.8L282.43,170.58L282.72,172.78L282.87,164L283.6,161.8L283.74,170.58L284.47,183.76L284.61,174.98L285.19,183.76L285.34,244.77L285.48,260.03L285.63,190.23L285.92,172.78L286.06,225.01L286.21,185.84L286.35,233.79L286.79,260.03L287.23,185.96L287.37,183.76L287.66,172.78L288.1,183.76L288.24,183.76L288.97,194.74L289.11,185.96L289.69,174.98L289.84,233.79L289.98,240.26L290.13,177.05L291,161.8L291.15,161.8L296.23,161.8L296.37,170.58L296.52,172.78L296.66,225.01L297.25,238.06L297.54,161.8L297.68,159.67L297.83,160.93L297.97,199.78L298.12,103.66L298.84,115.66L298.99,112.4L299.13,183.5L299.57,110.06L299.71,148.3L299.86,100.65L300.44,88.74L300.73,152.46L300.88,159.08L301.02,154.23L301.31,158.91L301.46,99.88L301.89,207.79L302.18,188.41L302.33,108.08L302.47,170.57L303.2,161.89L303.34,171.4L304.22,193.62L304.36,187.02L304.51,192.22L304.8,192.39L304.94,186.33L305.38,187.39L305.52,187.93L305.81,189.47L305.96,185.86L306.25,187.3L306.39,187.38L306.54,188.5L306.68,185.63L306.83,187.95L306.97,185.46L307.12,186L307.26,184.96L307.41,185.12L307.55,184.71L307.99,184.08L308.28,184.83L308.43,184.78L308.72,184.31L308.86,184.75L309.01,245.56L309.15,139.02L309.73,167.81L309.88,190.92L310.6,161.03L310.75,174.16L310.89,164.94L312.2,110.84L312.49,112.32L312.64,123.67L312.78,126.48L312.93,191.38L313.65,109.94L313.8,199.18L314.23,105.31L314.53,173.96L314.67,170.34L314.82,172.14L314.96,111.95L315.54,217.78L315.98,199.64L316.12,204.69L316.7,200.35L316.85,201.71L316.99,204.24L317.28,205.74L318.01,187.01L318.16,193.44L318.45,197.18L318.88,185.02L319.03,185.55L319.17,185.22L319.61,185.71L320.04,183.87L320.19,184.73L321.06,183.72L321.2,185.16L321.5,183.38L321.93,184.4L322.08,184.48L322.22,183.5L322.37,184.66L322.51,184.38L322.66,245.74L322.8,139.62L323.38,165.71L323.53,185.03L323.82,191.66L324.11,190.67L324.25,180.66L325.42,203.8L325.56,194.29L326,109.05L326.29,109.45L326.43,216.17L327.16,129.47L327.3,142.41L327.45,125.22L327.59,132.15L327.74,124.24L327.88,128.46L328.03,174.31L328.17,164.51L328.32,204.06L328.47,179.83L328.61,222.49L329.05,122.12L329.48,152.86L329.63,169.17L330.21,233.93L330.5,219.05L330.64,198.26L330.79,207.71L331.37,197.8L331.51,196.24L332.1,189.06L332.24,195.09L332.97,185.98L333.11,189.29L333.55,184.71L333.98,185.7L334.13,185.9L334.56,186.99L334.71,185.19L335,185.35L335.14,186.06L335.73,184.5L335.87,185.02L336.02,185.8L337.03,183.62L337.18,185.02L337.32,184.94L337.47,195.21L337.61,196.51L337.76,195.05L337.9,257.24L338.19,186.68L338.78,198.26L338.92,199.55L339.07,202.1L339.21,269.56L339.36,289.99L339.5,224.54L339.65,224.21L339.79,221.62L339.94,198.83L340.23,107.98L340.66,178.14L340.81,211.73L340.95,203.95L341.1,148.36L341.68,185.04L341.97,181.3L342.11,182.67L342.55,165.88L342.84,173.68L342.99,171.53L343.13,167.91L343.42,177.26L343.57,183.81L344.44,156.38L344.58,160.19L344.73,157.33L345.6,185.51L345.75,250.48L346.04,254.66L346.33,193.22L346.62,195.27L346.76,190.53L346.91,193.49L347.2,191.54L347.34,185.61L347.63,190.15L348.07,189.14L348.21,187.26L349.09,183.92L349.23,185.64L349.38,186.75L349.67,185.96L349.81,183.6L350.39,187.25L350.68,185.34L350.83,183.73L351.41,187.5L351.55,183.51L351.7,184.47L351.84,243.65L352.57,160.27L352.72,166.2L352.86,214.08L353.01,218.69L353.15,160.44L353.3,217L353.59,147.51L353.73,165.14L353.88,150.5L354.17,223.38L354.6,157.94L354.75,147.97L354.89,151.69L355.04,135.01L355.91,113.26L356.06,144.03L356.2,109.67L356.35,147.4L356.49,121.04L356.64,203L356.78,204.76L356.93,230.17L357.07,196.87L357.22,293.18L357.36,209.01L357.51,284.89L358.09,240.33L358.23,294.02L358.38,300.32L358.52,296.58L358.67,240.7L358.81,216.97L359.1,287.3L359.25,284.17L360.12,191.72L360.27,196.78L361.28,187.09L361.43,188.86L361.86,184.9L362.3,185.13L362.44,185.09L362.59,184.7L362.73,188.82L363.32,184.59L363.46,193.62L363.61,195.24L363.75,187.96L364.62,184.24L364.77,184.49L365.06,184.07L365.2,185.53L365.35,192.67L365.93,196.23L366.07,264.42L366.22,282.71L366.37,221.01L366.51,200.17L366.8,196.05L367.24,197.08L367.38,198.45L367.53,196.43L367.82,199.46L367.96,206.6L368.4,234.56L368.83,226.02L368.98,285.5L369.12,304L369.27,245.38L369.41,225.28L369.56,214.15L369.7,279.06L369.85,292.83L370,229.32L370.29,226.5L371.01,238.35L371.16,231.32L371.3,235.47L371.45,291.28L371.59,301.99L371.74,232.13L372.46,210.59L372.61,210.86L372.75,206.67L372.9,209.8L373.34,203.36L373.48,203.39L373.77,212.01L374.21,206.84L374.35,206.47L374.5,207.57L374.64,202.76L375.22,188.83L375.51,189.17L375.66,194.2L376.53,186.62L376.67,185.02L376.82,184.48L377.11,186.21L377.26,185.8L377.98,184.01L378.13,185.18L378.42,183.88L378.56,185.04L378.71,192.68L379,203.47L379.14,258.67L379.58,185.87L379.72,254.04L379.87,271.92L380.31,198.44L380.74,212.18L380.89,207.97L381.32,188.58L381.76,201.27L381.9,197.64L382.19,201.88L382.34,193.9L382.48,194.89L382.63,191.02L382.92,190.98L383.5,196.46L383.65,196.32L384.52,210.55L384.66,259.62L384.81,276.88L384.95,214.32L385.1,196.46L385.39,193.38L385.68,207.09L386.11,206.31L386.26,201.79L386.55,269.05L386.84,186.78L386.98,190.33L387.13,188.18L387.57,186.9L387.71,191.99L387.86,186.95L388.44,190.57L388.58,184.65L388.73,188.08L389.31,184.38L389.45,186.82L389.74,184.34L389.89,194.58L390.03,196.67L390.62,195.34L390.76,194.84L390.91,247.98L391.34,183.97L391.49,184L391.63,184.89L392.07,183.11L392.21,183.59L392.65,185.35L392.94,183.6L393.08,184.62L393.95,183.38L394.1,184.77L394.25,184.79L394.39,188.49L394.97,186.49L395.12,259.51L395.26,274.53L395.41,212.84L395.55,197.83L396.57,207.86L396.71,220.57L397.29,233.32L397.73,229.77L397.88,219.29L398.46,235.45L398.75,229.46L398.89,226.18L399.04,284.49L399.47,216.96L399.62,211.27L399.76,211.84L399.91,203.53L400.49,230.8L400.78,230.06L400.93,221.19L401.22,298.82L401.65,212.01L401.8,208.03L401.94,209.32L402.09,205.17L402.23,205.37L402.38,205.69L404.26,184.67L404.41,185.68L404.56,186.35L404.7,185.77L404.85,184.05L404.99,185.04L405.28,184.33L405.43,246.39L405.57,260.33L405.72,200.12L406.01,183.86L406.59,184.36L406.73,184.07L406.88,185.07L407.6,184.83L407.75,183.83L408.04,183.73L408.62,187.64L408.91,187.25L409.06,186.92L409.2,187.55L409.35,198.08L409.64,219.9L409.93,200.42L410.07,191.06L410.22,187.73L410.36,199.35L410.51,199.32L410.65,198.99L410.8,200.4L410.94,261.96L411.23,273.69L411.38,214.7L411.53,196.63L411.96,215.95L412.11,273.85L412.25,295.98L412.4,233.47L412.54,220.52L413.41,229.02L413.56,212.61L413.7,214.42L413.99,208.72L414.14,210.57L414.28,207.5L414.43,213.7L414.87,207.69L415.01,203.61L415.3,200.36L415.45,205.36L416.46,193.98L416.61,192.46L416.75,192.03L416.9,193.13L417.04,189.88L417.77,191.9L417.91,188.81L418.21,188.45L418.5,191.08L418.79,190.18L418.93,188.43L419.08,189.46L419.22,185.34L419.37,184.29L419.66,183.8L419.8,185.12L419.95,183.66L420.09,184.41L420.24,193.12L421.11,183.36L421.25,184.5L421.69,183.16L421.98,183.91L422.13,183.62L422.56,209.32L422.85,190.9L423,152.69L423.29,123.44L423.43,203.6L424.16,112.61L424.3,157.06L424.45,189.23L425.03,103.97L425.18,207.85L425.61,127.47L425.9,129.47L426.05,156.27L426.19,142.36L426.34,157.81L426.48,148.73L426.63,208.73L427.64,98.86L427.79,147.93L427.93,112.88L428.37,156.22L428.51,145.61L428.66,160.5L429.53,197.7L429.97,193.35L430.11,189.46L430.26,191.9L430.4,186.46L430.55,190.29L430.69,186.1L430.98,186.06L431.56,189.1L431.71,186.27L432,189.13" style="vector-effect: non-scaling-stroke; fill: none; stroke: rgb(0, 128, 0); stroke-opacity: 1; stroke-width: 2px; opacity: 1;"/></g><g class="points"/><g class="text"/></g></g></g><g class="overplot"/><path class="xlines-above crisp" d="M0,0" style="fill: none;"/><path class="ylines-above crisp" d="M0,0" style="fill: none;"/><g class="overlines-above"/><g class="xaxislayer-above"><g class="xtick"><text text-anchor="middle" x="0" y="433" transform="translate(80,0)" style="font-family: 'Open Sans', verdana, arial, sans-serif; font-size: 12px; fill: rgb(42, 63, 95); fill-opacity: 1; white-space: pre; opacity: 1;"><tspan class="line" dy="0em" x="0" y="433">May 1</tspan><tspan class="line" dy="1.3em" x="0" y="433">2022</tspan></text></g><g class="xtick"><text text-anchor="middle" x="0" y="433" style="font-family: 'Open Sans', verdana, arial, sans-serif; font-size: 12px; fill: rgb(42, 63, 95); fill-opacity: 1; white-space: pre; opacity: 1;" transform="translate(177.57999999999998,0)">May 8</text></g><g class="xtick"><text text-anchor="middle" x="0" y="433" style="font-family: 'Open Sans', verdana, arial, sans-serif; font-size: 12px; fill: rgb(42, 63, 95); fill-opacity: 1; white-space: pre; opacity: 1;" transform="translate(275.15999999999997,0)">May 15</text></g><g class="xtick"><text text-anchor="middle" x="0" y="433" style="font-family: 'Open Sans', verdana, arial, sans-serif; font-size: 12px; fill: rgb(42, 63, 95); fill-opacity: 1; white-space: pre; opacity: 1;" transform="translate(372.74,0)">May 22</text></g><g class="xtick"><text text-anchor="middle" x="0" y="433" style="font-family: 'Open Sans', verdana, arial, sans-serif; font-size: 12px; fill: rgb(42, 63, 95); fill-opacity: 1; white-space: pre; opacity: 1;" transform="translate(470.32,0)">May 29</text></g></g><g class="yaxislayer-above"><g class="ytick"><text text-anchor="end" x="79" y="4.199999999999999" transform="translate(0,414.33)" style="font-family: 'Open Sans', verdana, arial, sans-serif; font-size: 12px; fill: rgb(42, 63, 95); fill-opacity: 1; white-space: pre; opacity: 1;">−100</text></g><g class="ytick"><text text-anchor="end" x="79" y="4.199999999999999" style="font-family: 'Open Sans', verdana, arial, sans-serif; font-size: 12px; fill: rgb(42, 63, 95); fill-opacity: 1; white-space: pre; opacity: 1;" transform="translate(0,338.06)">−50</text></g><g class="ytick"><text text-anchor="end" x="79" y="4.199999999999999" style="font-family: 'Open Sans', verdana, arial, sans-serif; font-size: 12px; fill: rgb(42, 63, 95); fill-opacity: 1; white-space: pre; opacity: 1;" transform="translate(0,261.8)">0</text></g><g class="ytick"><text text-anchor="end" x="79" y="4.199999999999999" style="font-family: 'Open Sans', verdana, arial, sans-serif; font-size: 12px; fill: rgb(42, 63, 95); fill-opacity: 1; white-space: pre; opacity: 1;" transform="translate(0,185.53)">50</text></g><g class="ytick"><text text-anchor="end" x="79" y="4.199999999999999" style="font-family: 'Open Sans', verdana, arial, sans-serif; font-size: 12px; fill: rgb(42, 63, 95); fill-opacity: 1; white-space: pre; opacity: 1;" transform="translate(0,109.27)">100</text></g></g><g class="overaxes-above"/></g></g><g class="polarlayer"/><g class="smithlayer"/><g class="ternarylayer"/><g class="geolayer"/><g class="funnelarealayer"/><g class="pielayer"/><g class="iciclelayer"/><g class="treemaplayer"/><g class="sunburstlayer"/><g class="glimages"/><defs id="topdefs-2b41b5"><g class="clips"/><clipPath id="legend2b41b5"><rect width="167" height="67" x="0" y="0"/></clipPath></defs><g class="layer-above"><g class="imagelayer"/><g class="shapelayer"/></g><g class="infolayer"><g class="legend" pointer-events="all" transform="translate(520.64,100)"><rect class="bg" shape-rendering="crispEdges" width="167" height="67" x="0" y="0" style="stroke: rgb(68, 68, 68); stroke-opacity: 1; fill: rgb(255, 255, 255); fill-opacity: 1; stroke-width: 0px;"/><g class="scrollbox" transform="" clip-path="url(#legend2b41b5)"><g class="groups"><g class="traces" transform="translate(0,14.5)" style="opacity: 1;"><text class="legendtext" text-anchor="start" x="40" y="4.680000000000001" style="font-family: 'Open Sans', verdana, arial, sans-serif; font-size: 12px; fill: rgb(42, 63, 95); fill-opacity: 1; white-space: pre;">BESS</text><g class="layers" style="opacity: 0.5;"><g class="legendfill"/><g class="legendlines"><path class="js-line" d="M5,0h30" style="fill: none; stroke: rgb(0, 191, 255); stroke-opacity: 1; stroke-width: 2px;"/></g><g class="legendsymbols"><g class="legendpoints"/></g></g><rect class="legendtoggle" x="0" y="-9.5" width="161.890625" height="19" style="fill: rgb(0, 0, 0); fill-opacity: 0;"/></g><g class="traces" transform="translate(0,33.5)" style="opacity: 1;"><text class="legendtext" text-anchor="start" x="40" y="4.680000000000001" style="font-family: 'Open Sans', verdana, arial, sans-serif; font-size: 12px; fill: rgb(42, 63, 95); fill-opacity: 1; white-space: pre;">Solar</text><g class="layers" style="opacity: 0.5;"><g class="legendfill"/><g class="legendlines"><path class="js-line" d="M5,0h30" style="fill: none; stroke: rgb(255, 0, 0); stroke-opacity: 1; stroke-width: 2px;"/></g><g class="legendsymbols"><g class="legendpoints"/></g></g><rect class="legendtoggle" x="0" y="-9.5" width="161.890625" height="19" style="fill: rgb(0, 0, 0); fill-opacity: 0;"/></g><g class="traces" transform="translate(0,52.5)" style="opacity: 1;"><text class="legendtext" text-anchor="start" x="40" y="4.680000000000001" style="font-family: 'Open Sans', verdana, arial, sans-serif; font-size: 12px; fill: rgb(42, 63, 95); fill-opacity: 1; white-space: pre;">Grid Meter (Net Load)</text><g class="layers" style="opacity: 0.5;"><g class="legendfill"/><g class="legendlines"><path class="js-line" d="M5,0h30" style="fill: none; stroke: rgb(0, 128, 0); stroke-opacity: 1; stroke-width: 2px;"/></g><g class="legendsymbols"><g class="legendpoints"/></g></g><rect class="legendtoggle" x="0" y="-9.5" width="161.890625" height="19" style="fill: rgb(0, 0, 0); fill-opacity: 0;"/></g></g></g><rect class="scrollbar" rx="20" ry="3" width="0" height="0" x="0" y="0" style="fill: rgb(128, 139, 164); fill-opacity: 1;"/></g><g class="g-gtitle"><text class="gtitle" x="296" y="50" text-anchor="middle" dy="0em" style="font-family: 'Open Sans', verdana, arial, sans-serif; font-size: 17px; fill: rgb(42, 63, 95); opacity: 1; font-weight: normal; white-space: pre;"><tspan class="line" dy="0em" x="296" y="50">Scenario 8</tspan><tspan class="line" dy="1.3em" x="296" y="50">Microgrid Output</tspan><tspan class="line" dy="2.6em" x="296" y="50">From: May 01, 2022 to May 31, 2022</tspan></text></g><g class="g-xtitle"><text class="xtitle" x="296" y="477.409375" text-anchor="middle" style="font-family: 'Open Sans', verdana, arial, sans-serif; font-size: 14px; fill: rgb(42, 63, 95); opacity: 1; font-weight: normal; white-space: pre;">Time</text></g><g class="g-ytitle"><text class="ytitle" transform="rotate(-90,26.746875000000003,260)" x="26.746875000000003" y="260" text-anchor="middle" style="font-family: 'Open Sans', verdana, arial, sans-serif; font-size: 14px; fill: rgb(42, 63, 95); opacity: 1; font-weight: normal; white-space: pre;">Demand (kW)</text></g></g></svg>