<svg class="main-svg" xmlns="http://www.w3.org/2000/svg" xmlns:xlink="http://www.w3.org/1999/xlink" width="700" height="500" style="" viewBox="0 0 700 500"><rect x="0" y="0" width="700" height="500" style="fill: rgb(255, 255, 255); fill-opacity: 1;"/><defs id="defs-6e2f9d"><g class="clips"><clipPath id="clip6e2f9dxyplot" class="plotclip"><rect width="437" height="320"/></clipPath><clipPath class="axesclip" id="clip6e2f9dx"><rect x="80" y="0" width="437" height="500"/></clipPath><clipPath class="axesclip" id="clip6e2f9dy"><rect x="0" y="100" width="700" height="320"/></clipPath><clipPath class="axesclip" id="clip6e2f9dxy"><rect x="80" y="100" width="437" height="320"/></clipPath></g><g class="gradients"/><g class="patterns"/></defs><g class="bglayer"/><g class="layer-below"><g class="imagelayer"/><g class="shapelayer"/></g><g class="cartesianlayer"><g class="subplot xy"><g class="layer-subplot"><g class="shapelayer"/><g class="imagelayer"/></g><g class="minor-gridlayer"><g class="x"/><g class="y"/></g><g class="gridlayer"><g class="x"><path class="xgrid crisp" transform="translate(178.70999999999998,0)" d="M0,100v320" style="stroke: rgb(255, 255, 255); stroke-opacity: 1; stroke-width: 1px;"/><path class="xgrid crisp" transform="translate(277.41999999999996,0)" d="M0,100v320" style="stroke: rgb(255, 255, 255); stroke-opacity: 1; stroke-width: 1px;"/><path class="xgrid crisp" transform="translate(376.13,0)" d="M0,100v320" style="stroke: rgb(255, 255, 255); stroke-opacity: 1; stroke-width: 1px;"/><path class="xgrid crisp" transform="translate(474.84,0)" d="M0,100v320" style="stroke: rgb(255, 255, 255); stroke-opacity: 1; stroke-width: 1px;"/></g><g class="y"><path class="ygrid crisp" transform="translate(0,418.75)" d="M80,0h437" style="stroke: rgb(255, 255, 255); stroke-opacity: 1; stroke-width: 1px;"/><path class="ygrid crisp" transform="translate(0,341.36)" d="M80,0h437" style="stroke: rgb(255, 255, 255); stroke-opacity: 1; stroke-width: 1px;"/><path class="ygrid crisp" transform="translate(0,186.57)" d="M80,0h437" style="stroke: rgb(255, 255, 255); stroke-opacity: 1; stroke-width: 1px;"/><path class="ygrid crisp" transform="translate(0,109.17)" d="M80,0h437" style="stroke: rgb(255, 255, 255); stroke-opacity: 1; stroke-width: 1px;"/></g></g><g class="zerolinelayer"><path class="yzl zl crisp" transform="translate(0,263.96000000000004)" d="M80,0h437" style="stroke: rgb(255, 255, 255); stroke-opacity: 1; stroke-width: 2px;"/></g><path class="xlines-below"/><path class="ylines-below"/><g class="overlines-below"/><g class="xaxislayer-below"/><g class="yaxislayer-below"/><g class="overaxes-below"/><g class="plot" transform="translate(80,100)" clip-path="url(#clip6e2f9dxyplot)"><g class="scatterlayer mlayer"><g class="trace scatter trace8ca435" style="stroke-miterlimit: 2; opacity: 0.5;"><g class="fills"/><g class="errorbars"/><g class="lines"><path class="js-line" d="M0,163.96L0.29,165.8L0.73,163.96L0.88,163.96L1.76,163.96L1.91,163.96L3.23,163.96L3.38,224.47L3.53,136.47L3.67,253.56L4.11,156.97L4.26,161.17L5.29,115.65L5.43,116.59L5.58,154.68L6.46,163.96L6.61,163.96L11.02,163.96L11.16,224.39L11.46,225.56L11.6,141.48L12.05,184.56L12.19,163.82L12.34,169.96L12.93,164.14L13.07,164.31L13.22,163.7L13.51,163.96L13.66,165.16L14.1,163.96L14.4,164.04L14.54,165.7L15.28,163.96L15.42,165.04L16.16,163.96L16.3,224.71L16.45,137.31L16.89,241.16L17.04,181.15L17.19,165.93L18.07,163.96L18.21,163.96L18.66,163.96L18.8,155.38L18.95,161.82L19.39,149.56L19.54,155.68L19.68,144.13L19.83,166.64L19.98,165.35L20.12,93.02L20.27,140.51L20.71,87.67L20.86,139.99L21.01,83.22L21.15,182.91L21.74,145.69L21.89,163.96L25.27,163.96L25.41,165.39L25.56,165.82L25.71,164.84L25.85,164.97L26,167.89L26.29,163.96L26.88,164.22L27.03,163.96L27.91,165.73L28.06,164.4L29.23,163.99L29.38,163.96L31.73,164.04L31.88,225.36L32.02,135.05L32.61,158.29L32.76,162.2L32.9,164.26L33.05,189.54L33.34,126.05L33.78,159.89L33.93,163.39L34.08,207.87L34.52,131.46L34.67,177.89L34.81,57.24L34.96,150.82L35.55,146.15L35.69,92.28L36.58,163.96L36.72,163.96L38.93,163.96L39.07,222.98L39.37,165.89L39.95,167.58L40.1,168.65L40.25,165.2L40.69,171.06L40.84,165.74L40.98,168.15L41.28,168.36L41.72,164.92L41.86,168.51L42.16,163.55L42.75,164.95L42.89,166.46L43.19,163.96L43.77,164.08L43.92,163.96L45.1,163.96L45.24,224.44L46.12,163.96L46.27,213.67L47.3,117.98L47.45,142.35L47.89,107.13L48.18,107.98L48.33,125.9L49.21,163.96L49.36,163.96L53.47,163.96L53.62,169.23L53.91,165.84L54.06,173.07L54.2,166.24L54.35,167.53L54.64,166.77L54.79,168.79L54.94,165.04L55.23,163.85L55.38,164.32L55.52,167.12L56.11,167.91L56.41,163.96L56.55,165.35L56.85,163.96L57.14,164.11L57.29,167.08L58.02,163.96L58.17,165.25L59.05,163.96L59.2,163.96L59.78,226.01L59.93,179.47L60.08,163.96L60.67,163.96L60.81,159.59L61.69,163.96L61.84,163.96L63.02,163.96L63.16,99.65L63.46,92.28L63.9,162.7L64.04,98.28L64.93,163.96L65.07,163.96L67.42,163.96L67.57,166.72L67.72,187.67L68.16,166.39L68.3,170.34L68.45,168.69L68.74,163.32L69.33,165.02L69.48,164.66L69.63,169.08L70.07,164.62L70.21,163.96L70.51,164.48L70.65,163.72L71.83,163.96L71.98,163.96L73.74,163.96L73.89,207.3L74.33,163.3L74.91,163.96L75.06,163.96L76.24,163.96L76.38,207.3L76.97,239.81L77.12,85.73L77.26,218.82L77.41,60.09L77.56,229.8L78,60.32L78.15,238.26L78.29,85.02L78.88,112.88L79.03,196.47L79.17,126.81L79.76,154.67L79.91,160.87L80.79,163.96L80.94,163.96L86.67,163.96L86.81,207.3L87.4,163.96L87.69,164.1L87.84,163.96L87.99,165.8L88.58,163.96L88.72,212.66L89.75,112.49L89.9,178.81L90.63,73.98L90.78,141.47L90.93,80.24L91.07,143.03L91.51,90.3L91.66,135.94L92.1,92.4L92.25,146.71L92.39,163.96L95.77,163.96L95.92,227.71L96.8,164.82L96.95,165.34L97.09,169.51L97.39,164.17L97.68,165.32L97.83,165.19L98.42,163.96L98.56,165.43L98.71,166.68L99,164.1L99.15,164L100.03,166.46L100.18,164.59L100.62,163.99L100.77,164.97L100.91,164.25L101.06,164.26L102.09,163.96L102.24,164.69L102.38,223.94L102.53,136.89L102.97,208.87L103.12,189.72L103.26,209.67L103.41,147.43L103.56,181.19L103.7,158.44L104.15,162.73L104.29,150.02L104.73,145.21L105.03,189.24L105.17,150.3L105.91,87.17L106.06,144.96L106.2,163.96L106.35,73.84L107.08,147.75L107.23,84.65L108.11,163.96L108.26,163.96L109.87,163.96L110.02,164.85L110.17,165.25L110.46,164.14L110.61,164.71L110.76,164.14L111.78,163.96L111.93,163.96L112.67,163.96L112.81,164.98L113.11,163.96L113.69,164.16L113.84,163.96L113.99,166.45L114.57,163.96L114.72,164.38L115.75,163.96L115.9,163.96L117.22,163.96L117.37,200.4L117.81,112.34L118.1,163.96L118.25,163.96L118.54,175.25L118.98,163.96L119.13,163.96L123.98,163.96L124.12,165.5L124.27,169.61L124.71,164.24L124.86,165.31L125,164.3L125.44,163.96L125.59,165.05L125.74,164.23L125.89,163.96L126.03,164.67L126.62,163.96L126.77,164.09L128.24,163.96L128.38,163.96L131.32,163.96L131.47,187.98L131.76,126.28L132.2,163.96L132.35,163.96L134.11,163.96L134.26,207.3L135.29,88.81L135.43,145.17L135.58,92.95L136.02,147.08L136.17,163.96L138.08,163.96L138.22,168.29L138.37,172.53L138.66,164.14L138.81,165.57L138.96,164.35L139.55,164L139.69,167L139.84,164.72L140.57,167.41L140.72,164.76L140.87,166.95L141.16,163.96L141.31,163.96L141.46,163.96L142.34,163.96L142.48,225.03L142.63,135.83L143.22,163.01L143.37,168.32L144.25,163.96L144.39,163.96L145.27,163.96L145.42,196.45L146.16,105.8L146.3,136.65L146.45,95.02L146.74,163.96L146.89,163.96L147.04,163.96L153.35,163.96L153.5,171.6L154.38,163.96L154.53,163.96L154.68,165.14L155.26,163.96L155.41,164.26L156.44,163.96L156.59,163.96L159.38,163.96L159.52,196.9L159.67,118.08L160.26,163.96L160.4,163.96L161.87,163.96L162.02,207.3L162.9,163.96L163.05,163.96L163.49,207.3L163.64,131.46L163.78,177.89L163.93,145.39L164.08,163.96L164.22,159.32L164.37,98.18L164.66,95.26L165.25,163.96L165.4,163.96L166.28,163.96L166.43,176.89L167.31,157.26L167.46,174.29L167.6,154.54L168.19,163.96L168.34,163.96L170.69,163.96L170.83,224.98L171.72,163.96L171.86,163.96L174.07,163.96L174.21,207.3L175.09,163.96L175.24,163.96L182.88,163.96L183.03,207.3L183.47,131.46L183.91,163.96L184.05,159.32L184.94,163.96L185.08,163.96L186.85,163.96L186.99,207.3L187.87,163.96L188.02,163.96L188.46,163.96L188.61,207.3L188.75,131.46L189.34,159.32L189.49,162.41L190.37,163.96L190.52,163.96L194.19,163.96L194.34,207.3L195.22,163.96L195.36,163.96L195.51,207.3L196.1,163.96L196.25,163.96L199.62,163.96L199.77,207.3L199.92,131.46L200.51,159.32L200.65,162.41L201.53,163.96L201.68,163.96L201.97,163.96L202.12,207.3L203,163.96L203.15,163.96L203.88,163.96L204.03,207.3L204.91,163.96L205.06,163.96L205.5,207.3L205.65,131.46L205.79,177.89L205.94,145.39L206.82,163.96L206.97,163.96L207.56,163.96L207.7,207.3L208.14,131.46L208.58,163.96L208.73,159.32L209.61,163.96L209.76,163.96L214.31,163.96L214.46,207.3L215.34,163.96L215.49,163.96L216.52,163.96L216.66,207.3L217.55,163.96L217.69,163.96L219.16,163.96L219.31,207.3L220.19,163.96L220.34,163.96L229,163.96L229.15,207.3L229.3,131.46L229.88,159.32L230.03,162.41L230.91,207.3L231.06,174.8L231.94,163.96L232.09,163.96L232.97,163.96L233.12,207.3L233.56,131.46L234,163.96L234.14,159.32L235.03,163.96L235.17,163.96L242.96,163.96L243.1,207.3L243.25,131.46L243.84,159.32L243.99,162.41L244.87,163.96L245.01,163.96L245.6,163.96L245.75,207.3L246.63,163.96L246.78,163.96L257.94,163.96L258.09,207.3L258.97,163.96L259.12,163.96L259.7,163.96L259.85,207.3L260.73,163.96L260.88,163.96L262.64,163.96L262.79,207.3L263.67,163.96L263.82,163.96L301.13,163.96L301.27,152.83L301.57,159.16L302.01,95.34L302.3,97.36L302.45,118.88L302.74,156.85L303.04,104.31L303.18,117.54L303.33,108.67L303.92,125.45L304.06,103.16L304.36,159.4L304.95,159.2L305.09,91.96L305.53,180.36L305.83,122.71L305.97,131.02L306.12,130.73L306.27,144.32L306.41,138.07L306.56,158.29L306.71,143.07L306.85,158.74L307.88,176.44L308.03,167.08L308.18,172.44L308.32,166.08L308.76,166.77L308.91,166.89L309.21,170.21L309.35,165.45L309.65,166.51L309.79,166.53L309.94,168.49L310.09,165.03L310.53,166.96L310.67,164.68L310.82,166.46L311.26,164.32L311.41,165.7L311.56,164.4L312.14,164.81L312.29,164.17L312.44,164.79L312.88,226.14L313.02,135.05L313.17,197.69L313.32,147.79L313.46,183.82L314.05,163.96L314.2,160.89L314.35,163.16L314.49,149.47L314.64,155.32L314.79,142.78L314.93,149.54L315.08,137.68L316.11,111.89L316.26,119.21L316.55,115.05L316.7,168.6L317.43,96.21L317.58,190.34L318.02,64.26L318.31,139.5L318.46,157.69L318.61,154.27L318.75,101.65L319.34,191.06L319.63,182.8L319.78,171.62L320.37,171.59L320.52,183.25L320.66,168.5L320.81,184.4L321.25,167.74L321.4,175.15L321.54,167.15L321.84,166.6L322.28,180.89L322.43,168.19L322.72,164.9L322.87,169.63L323.75,163.96L323.89,164.84L324.48,163.96L324.78,164.11L324.92,164.06L325.07,166.39L325.66,163.96L325.8,164.31L326.1,164.67L326.24,164.14L326.39,165.05L326.54,225L326.69,136.43L327.13,183.1L327.27,162.75L327.42,168.77L328.01,164.01L328.15,163.96L328.3,163.96L328.45,165.96L329.33,177.93L329.48,166.97L330.21,90.56L330.36,185.61L330.8,82.42L331.09,102.03L331.24,139.12L331.68,95.7L331.83,139.55L331.97,156.79L332.41,202.51L332.56,163.49L332.71,112.98L333.59,216.68L333.88,206.28L334.03,174.6L334.18,199.67L334.76,182.18L334.91,179.06L335.5,173.76L335.65,174.63L335.79,168.38L335.94,175.21L336.09,166.63L336.53,174.32L336.67,166.55L336.97,165.33L337.26,169.72L337.41,165.23L337.85,167.22L338,164.74L338.14,165.12L338.29,166.76L339.17,164.31L339.32,165.26L339.61,163.96L340.2,164.16L340.35,164.15L340.64,163.99L340.79,165.17L341.37,165.46L341.67,163.96L341.81,164.57L341.96,225.04L342.11,136.52L342.55,218.14L342.7,156.13L343.28,236.31L343.43,194.08L343.58,179.61L343.87,174.53L344.02,95.92L345.05,193.5L345.19,140.13L345.34,165.01L345.93,158.14L346.07,156.58L346.22,162.37L346.37,149.25L346.81,160.75L346.96,154.75L347.84,163.23L347.98,158.94L348.13,162.71L348.28,158.28L348.42,162.54L348.57,151.76L348.87,150.65L349.45,163.96L349.6,167.27L349.75,164.87L349.89,237.21L350.19,240.93L350.63,166.56L350.78,168.25L350.92,168.06L351.22,168.05L351.36,164.78L351.8,164.48L352.1,166.97L352.24,164.65L352.39,163.96L352.54,166.03L352.68,164.48L352.83,165.92L353.13,163.96L353.57,164.72L353.71,165.04L354.3,163.96L354.45,166.58L355.03,163.96L355.33,163.99L355.48,166.87L355.92,163.96L356.06,221.23L356.21,133.45L356.8,148.86L356.94,159.58L357.09,181.59L357.24,130.2L357.68,173.53L357.83,130.81L358.27,200.6L358.56,197.07L358.71,120.82L358.85,169.13L359.29,108.48L359.44,142.62L359.59,102.63L360.03,148.25L360.18,97.41L360.32,147.32L360.47,105.14L361.5,268.11L361.65,190L361.79,260.85L361.94,145.85L362.38,203.27L362.53,175.28L363.41,163.96L363.55,163.96L427.75,163.96L427.89,152.07L428.63,112.71L428.77,124.71L428.92,111.54L429.21,110.42L429.51,157.57L429.66,154.35L429.8,93.34L430.1,88.12L430.24,185.19L430.54,170.08L430.68,77.53L430.83,151.15L431.42,147.48L431.57,103.5L431.71,196.63L432.15,66.29L432.3,159.86L432.45,76.92L433.18,153.72L433.33,133.9L434.21,169.74L434.36,176.35L434.65,177.6L434.8,174.11L434.94,169.15L435.09,175.74L435.53,166.55L435.68,173.04L435.82,166.23L435.97,173.26L436.41,170.13L436.56,165.28L436.85,169.56L437,165.19" style="vector-effect: non-scaling-stroke; fill: none; stroke: rgb(0, 191, 255); stroke-opacity: 1; stroke-width: 2px; opacity: 1;"/></g><g class="points"/><g class="text"/></g><g class="trace scatter trace20df9a" style="stroke-miterlimit: 2; opacity: 0.5;"><g class="fills"/><g class="errorbars"/><g class="lines"><path class="js-line" d="M0,164.14L3.38,164.07L3.53,163.26L4.26,134.5L4.41,121.3L5.88,16.12L6.17,16.17L6.32,16.22L9.4,16.89L9.55,20.5L11.9,164.15L12.05,164.14L17.63,163.49L17.77,161.38L18.36,148.51L18.51,141.27L20.27,16L20.86,16.21L21.01,16.2L23.36,16.52L23.5,17.53L24.38,82.7L24.53,96.18L26,164.15L26.15,164.14L32.02,163.68L32.17,162.58L32.76,144.92L32.9,127.64L33.34,59.8L33.49,163.96L34.52,163.96L34.67,139.55L34.81,16.22L35.55,16.3L35.69,16.33L37.46,16.41L37.6,17.56L38.49,84.21L38.63,98.02L40.1,164.15L40.25,164.14L45.68,163.91L45.83,162.68L46.56,128.77L46.71,116.31L48.18,16.15L48.62,16.29L48.77,16.35L50.97,16.66L51.12,40.86L51.41,16.63L52,163.96L52.15,163.96L53.47,163.72L53.62,162.74L54.5,164.14L54.64,164.14L59.78,163.87L59.93,162.51L60.81,131.41L60.96,163.96L62.87,163.96L63.02,139.75L63.6,16.43L63.9,16.57L64.04,16.57L65.81,16.62L65.95,18.38L66.98,113.14L67.13,131.94L68.3,164.15L68.45,164.15L72.71,163.96L72.86,163.96L73.74,164.11L73.89,163.76L74.03,162.1L74.33,158.31L74.47,163.96L74.62,163.96L74.77,163.96L76.82,163.96L76.97,139.82L77.12,16.4L77.85,16.57L78,40.73L78.88,163.96L79.03,163.96L87.99,163.98L88.13,163.04L88.72,144.12L88.87,132.51L90.48,16.12L90.93,16.22L91.07,16.26L92.1,16.17L92.25,40.36L92.39,139.89L92.69,16.23L92.83,16.26L92.98,16.32L94.01,16.63L94.16,18.95L96.65,164.15L96.8,164.14L102.38,163.72L102.53,162.52L104.59,112.84L104.73,93.27L105.03,113.3L105.17,57.62L105.32,28.63L106.06,69.99L106.2,140.76L106.35,22.35L106.94,48.03L107.08,56.09L107.23,29.3L107.52,76.09L107.67,72.73L107.82,78.84L107.96,34.9L108.55,64.41L108.7,51.15L108.99,151.76L109.58,131.3L109.73,144.23L110.61,164.16L110.76,164.12L111.78,163.96L111.93,163.96L116.19,163.9L116.34,163.07L116.93,137.5L117.07,110.03L117.22,109.77L117.37,120.1L117.66,109.66L117.81,72.75L118.69,25.28L118.83,40.35L118.98,39.21L119.13,48.89L119.42,34.84L119.57,40.4L119.72,75.34L120.45,22.91L120.6,29.75L120.74,25.38L120.89,63.43L121.18,19.19L121.48,42.72L121.63,16.21L122.95,61.67L123.09,75.89L124.56,164.16L124.86,164.14L125,164.14L130.29,163.91L130.44,162.79L131.17,127.15L131.32,114.26L132.64,16.14L133.08,16.22L133.23,40.06L134.11,163.96L134.26,163.96L134.99,163.96L135.14,140.13L135.29,16.26L136.02,21.2L136.17,46.44L136.31,48.74L136.46,23.57L136.9,46.12L137.05,97.18L137.2,94.81L137.34,67.38L138.81,164.16L138.96,164.15L139.11,164.14L144.39,163.76L144.54,162.02L145.13,141.17L145.27,127.37L146.45,27.82L146.6,42.98L146.74,140.2L146.89,16.23L147.63,16.28L147.77,16.35L150.27,16.49L150.42,40.17L150.71,22.47L151.3,163.96L151.44,163.96L158.5,163.72L158.64,162.21L159.23,140.78L159.38,126.59L160.85,16.3L161.29,16.43L161.43,16.5L161.58,16.55L161.73,40.23L162.61,163.96L162.75,163.96L164.08,163.96L164.22,140.38L164.52,16.75L164.96,36.35L165.11,47.95L167.01,164.15L167.16,164.12L167.31,163.99L168.34,163.96L168.48,163.96L300.98,163.96L301.13,157.85L302.01,16.1L302.3,16.14L302.45,16.19L303.48,16.27L303.62,16.26L305.53,16.84L305.68,20.23L308.18,164.15L308.32,164.15L313.46,164.01L313.61,163.07L314.49,119.9L314.64,111.45L316.4,16.16L316.7,16.26L316.84,16.31L318.61,16.51L318.75,24.13L319.78,163.96L319.93,163.96L329.18,164.05L329.33,161.85L330.5,16.44L330.65,16.44L331.83,16.68L331.97,27.29L332.27,163.96L332.56,111.1L332.71,16.06L333.15,16.08L333.3,23.71L334.32,163.96L334.47,163.96L343.72,163.97L343.87,144.95L344.17,20.05L344.61,89.06L344.75,89.04L347.4,89.07L347.54,89.08L348.72,89.32L348.87,92.18L350.48,164.15L350.63,164.14L355.77,163.93L355.92,162.78L356.94,115.53L357.09,103.83L357.83,89.09L357.97,89.1L358.12,89.08L358.85,89.04L359,81.64L359.29,16.47L359.88,16.56L360.03,16.64L360.47,16.82L360.62,33.33L361.5,163.96L361.65,163.96L427.6,163.97L427.75,156.31L428.77,18.63L428.92,16.25L430.83,16.71L430.98,16.7L432.3,16.72L432.45,17.49L433.47,88.6L433.62,101.24L435.09,164.15L435.24,164.15L437,164.14" style="vector-effect: non-scaling-stroke; fill: none; stroke: rgb(255, 0, 0); stroke-opacity: 1; stroke-width: 2px; opacity: 1;"/></g><g class="points"/><g class="text"/></g><g class="trace scatter tracedce9a7" style="stroke-miterlimit: 2; opacity: 0.5;"><g class="fills"/><g class="errorbars"/><g class="lines"><path class="js-line" d="M0,186.69L0.29,187.08L0.44,185.82L0.88,186.04L1.03,186.91L1.91,185.23L2.06,185.25L2.35,186.14L2.5,186.93L2.94,185.5L3.08,185.67L3.23,248.37L3.38,140.54L3.53,274.98L3.97,164L4.11,176.41L5.73,47.53L6.17,51.33L6.32,51.95L6.61,48.62L7.79,64.75L7.93,124.21L8.08,136.69L8.23,76.96L8.37,56.49L8.96,61.33L9.11,66.28L9.25,66.13L9.4,57.73L10.87,165.2L11.02,237.99L11.31,248.89L11.46,145.67L11.9,199.71L12.05,171.18L12.19,188.39L12.78,187.09L12.93,186.45L13.22,167.74L13.37,185.54L13.51,187.29L14.1,185.79L14.25,186.87L14.54,187.14L15.13,185.64L15.28,187.14L15.57,185.54L15.72,186.85L15.86,185.5L16.01,186.79L16.16,247.34L16.3,140.76L16.75,260.77L16.89,185.93L17.04,183.98L17.33,185.07L17.48,187.1L18.07,179.94L18.36,182.26L18.51,176.13L19.54,147.73L19.68,209.99L20.56,88.05L20.71,139.84L20.86,86.79L21.01,200.93L21.45,90.77L21.59,130.13L21.89,59.64L22.18,140.51L22.33,141.65L22.77,59.06L23.21,65.26L23.36,62.34L24.09,97.45L24.24,114.19L24.82,155.24L24.97,165.59L25.56,188.79L26,188.22L26.15,187.04L26.29,186.95L26.44,187.53L26.59,188.43L27.32,185.16L27.47,187.5L27.76,188.06L27.91,187.03L28.06,185.63L28.94,187.29L29.08,187.31L29.82,185.49L29.97,186.6L30.26,187.14L30.55,185.44L30.85,185.78L30.99,182.25L31.14,167.7L31.58,187.13L31.73,248.6L31.88,140.42L32.46,165.4L32.61,184.7L32.76,174.26L32.9,223.29L33.34,113.19L33.78,168.04L33.93,226.44L34.23,230.33L34.96,78.39L35.11,156.48L35.99,80.21L36.14,76.83L37.02,83.1L37.16,83.86L37.46,77.59L37.75,82.51L37.9,94.99L38.78,161.66L38.93,234.2L39.22,185.5L39.81,190.9L39.95,190.55L40.1,190.64L40.25,191.68L40.39,188.23L40.98,188.3L41.13,191.48L42.16,168.7L42.3,187.38L42.45,189.79L42.89,187.13L43.04,185.59L43.63,186.95L43.92,186.6L44.07,186.65L44.36,186.92L44.95,185.63L45.1,247.7L45.98,180.15L46.12,238.78L47.15,124.26L47.3,150.38L48.03,105.67L48.18,124.17L48.33,170.61L48.77,85.69L48.91,77.14L49.36,72.57L49.65,85.94L49.8,80.75L50.09,78.21L50.24,78.92L50.38,69.67L50.68,75.48L50.82,68.54L50.97,72.33L51.12,89.47L51.41,80.12L52,163.96L52.15,163.96L53.32,163.96L53.47,168.86L53.91,192.88L54.35,188.7L54.5,191.2L54.64,191L54.79,189.28L55.08,183.37L55.23,167.94L55.38,187.79L56.11,187.67L56.26,187.65L56.7,188.1L57.14,186.28L57.29,187.1L57.43,185.21L58.02,186.51L58.17,187.09L58.9,185.44L59.05,186.6L59.49,173.42L59.64,245.49L59.78,202.42L59.93,184.79L60.81,163.76L61.25,163.96L61.4,163.96L62.87,163.96L63.02,150.77L63.16,145.96L63.31,96.27L63.75,160.82L64.04,149.14L64.19,108.08L64.34,150.17L64.78,84.66L64.93,78.92L65.22,89.77L65.51,86.81L65.66,78.05L66.54,112.24L66.69,131.38L68.16,193.85L68.3,189.42L68.45,193.22L68.6,185.91L68.74,169.17L69.04,191.7L69.63,187.89L69.77,186.26L70.07,187.94L70.21,185.64L70.36,186.8L70.51,183.43L71.39,163.96L71.54,163.96L72.86,163.96L73,167.54L73.74,244.04L73.89,201.25L74.03,172.02L74.18,178.87L74.47,163.96L74.62,163.96L76.09,163.96L76.24,225.88L76.53,230.52L76.68,136.1L76.82,258.38L77.26,42.19L77.56,86.72L77.71,233.94L77.85,26.74L78.29,242.9L78.44,103.59L78.59,228.97L78.73,117.53L79.32,145.39L79.47,187.18L79.61,159.32L80.2,163.96L80.35,163.96L86.52,163.96L86.67,225.88L87.11,163.96L87.55,186.94L87.69,185.55L87.84,186.96L88.13,184.36L88.28,183.25L88.43,179.11L88.58,236.02L89.6,116.74L89.75,205.85L90.48,78.47L90.78,81.03L90.93,143.63L91.07,84.67L91.66,90.36L91.81,137.41L92.39,148.52L92.54,69.54L92.69,71.24L92.83,71.83L92.98,71.27L93.13,76.12L93.42,78.97L94.01,62.46L94.16,63L96.07,251.09L96.21,207.56L96.36,186.05L97.09,188.26L97.24,184.6L97.98,188.55L98.12,187.78L98.42,186.14L98.71,188.46L98.86,186.61L99,186.98L99.3,187.24L99.74,185.6L99.89,187.51L100.62,186.11L100.77,187.44L100.91,188.06L101.21,186.44L101.35,186.34L101.5,186.98L101.65,185.62L101.94,185.77L102.09,186.03L102.24,248.85L102.38,141.06L102.82,231.33L102.97,214.62L103.12,231.83L103.26,151.5L103.41,199.16L104,163.46L104.15,159.96L104.29,159.81L104.44,149.32L104.59,156.44L104.73,200.71L105.76,95.67L105.91,144.53L106.5,83.26L106.64,145.71L106.79,94.82L106.94,150.38L107.38,92.73L107.67,106.76L107.82,116.87L107.96,67.96L108.55,101.5L108.7,82.94L109.87,180.43L110.02,187.62L110.17,188.16L110.46,187.4L110.61,187.4L110.76,183.49L111.64,163.96L111.78,163.96L112.22,163.96L112.37,167.46L113.11,187.16L113.25,187.03L113.4,186.26L113.99,187.1L114.13,185.35L115.02,187.05L115.16,186.25L115.31,186.19L115.46,186.94L115.75,186.98L116.48,181.49L116.63,173.45L116.93,167.4L117.07,144.09L117.22,206.07L117.37,133.57L117.81,160.7L117.95,82.75L118.39,162.76L118.54,119.2L118.69,69.18L118.98,164.55L119.42,84.05L119.57,86.59L119.72,123.69L120.16,64.75L120.3,73.63L120.45,65.44L120.74,74.76L120.89,175.69L121.04,176.72L121.18,72.62L121.48,82.62L121.63,59.56L121.77,73.21L121.92,80.31L122.07,68.66L122.51,80.48L122.65,71.51L122.8,96.1L122.95,95.7L123.09,116.33L124.42,191.44L124.56,187.07L124.71,186.32L125.3,185.62L125.59,187.13L125.74,186.24L126.18,185.77L126.33,186.99L126.47,185.91L126.77,187.03L126.91,184L127.06,174.74L127.5,186.87L127.65,186.35L127.79,187.04L128.24,186.9L128.38,185.86L129.26,186.78L129.41,186.03L130,186.02L130.15,185.58L130.29,185.69L130.44,184.21L131.17,161.17L131.32,210.71L132.79,53.52L132.94,56.54L133.08,55.85L134.41,230.52L134.55,198.02L134.7,230.52L134.99,168.61L135.14,148.81L135.29,145.82L135.43,93.03L135.73,92.52L136.17,178.26L136.31,172.68L136.46,85.86L136.61,78.46L136.9,87.85L137.05,132.6L137.2,131.91L137.34,100.97L137.78,146.91L137.93,169.97L138.37,190.87L138.81,187.16L138.96,185.72L139.84,188.91L139.99,187.97L140.13,189.19L140.72,189.09L140.87,187.86L141.02,189.19L141.31,186.92L141.46,182.27L141.6,167.48L142.04,186.83L142.19,186.05L142.34,248.2L142.48,140.52L142.92,200.71L143.07,167.95L143.22,186.94L143.95,186.12L144.1,186.14L144.54,184.01L144.69,180.38L145.13,167.62L145.27,223.93L146.01,114.17L146.16,143.4L146.6,90.09L146.74,146.68L146.89,117.47L147.04,127.31L147.18,126.15L147.33,70.2L147.63,59.52L148.07,61.31L148.21,64.57L148.36,62.32L148.51,64.47L148.65,122.52L148.8,138.49L149.09,133.51L149.24,72.93L149.39,55.13L149.98,67.65L150.12,69.5L150.27,66.74L150.42,81.77L150.56,210.03L151.15,105.8L151.3,163.96L153.21,163.96L153.35,169.23L153.65,192.68L154.09,185.77L154.24,186.25L154.38,186.1L154.53,186.57L154.68,187.08L154.97,187.19L155.56,186.13L155.7,187.01L156.59,186.16L156.73,186.18L157.61,186.12L157.76,186.07L157.91,185.97L158.05,183.74L158.2,174.91L158.35,185.64L158.79,181.37L158.94,183.41L159.23,176.78L159.38,230.73L160.26,86.75L160.4,79.45L160.85,65.52L160.99,128.95L161.14,144.2L161.29,81.02L161.58,53.75L161.73,72.23L161.87,225.88L162.9,163.96L163.05,225.88L163.34,230.52L163.49,136.1L164.08,163.96L164.22,154.5L164.96,92.86L165.11,101.2L165.25,113.65L166.57,198.58L167.01,189.46L167.16,185.48L168.19,163.96L168.34,163.96L169.95,163.96L170.1,167.47L170.69,248.42L170.83,202.41L170.98,186.27L171.13,186.72L171.27,185.64L171.42,182.19L172.3,163.96L172.45,163.96L173.92,163.96L174.07,225.88L175.09,163.96L175.24,163.96L182.73,163.96L182.88,225.88L183.17,230.52L183.32,136.1L183.91,163.96L184.05,168.61L184.94,163.96L185.08,163.96L186.7,163.96L186.85,225.88L187.87,163.96L188.02,163.96L188.31,163.96L188.46,225.88L188.61,136.1L189.2,163.96L189.34,168.61L190.22,163.96L190.37,163.96L194.04,163.96L194.19,225.88L195.22,163.96L195.36,225.88L196.39,163.96L196.54,163.96L199.48,163.96L199.62,225.88L199.77,136.1L200.36,163.96L200.51,168.61L201.39,163.96L201.53,163.96L201.83,163.96L201.97,225.88L203,163.96L203.15,163.96L203.74,163.96L203.88,225.88L204.18,230.52L204.91,163.96L205.06,225.88L205.35,230.52L205.5,136.1L206.09,163.96L206.23,168.61L207.12,163.96L207.26,163.96L207.41,163.96L207.56,225.88L207.85,230.52L208,136.1L208.58,163.96L208.73,168.61L209.61,163.96L209.76,163.96L214.17,163.96L214.31,225.88L214.61,230.52L215.34,163.96L215.49,163.96L216.37,163.96L216.52,225.88L217.55,163.96L217.69,163.96L219.01,163.96L219.16,225.88L219.45,230.52L220.19,163.96L220.34,163.96L228.86,163.96L229,225.88L229.15,136.1L229.74,163.96L229.88,168.61L230.03,227.43L230.47,163.96L230.62,163.96L230.77,225.88L231.35,163.96L231.5,163.96L232.82,163.96L232.97,225.88L233.26,230.52L233.41,136.1L234,163.96L234.14,168.61L235.03,163.96L235.17,163.96L242.81,163.96L242.96,225.88L243.1,136.1L243.69,163.96L243.84,168.61L244.72,163.96L244.87,163.96L245.45,163.96L245.6,225.88L246.63,163.96L246.78,163.96L257.79,163.96L257.94,225.88L258.97,163.96L259.12,163.96L259.56,163.96L259.7,225.88L260.73,163.96L260.88,163.96L262.49,163.96L262.64,225.88L262.93,168.61L263.23,241.36L263.38,241.36L264.26,163.96L264.4,163.96L272.19,163.96L272.34,225.88L272.48,241.36L272.63,179.44L272.78,163.96L274.69,163.96L274.83,225.88L275.13,241.36L275.27,179.44L275.57,163.96L275.71,225.88L275.86,241.36L276.01,179.44L276.15,163.96L283.94,163.96L284.09,225.88L284.97,163.96L285.11,163.96L288.49,163.96L288.64,225.88L289.23,163.96L289.37,225.88L289.52,241.36L290.26,241.36L290.4,179.44L291.28,163.96L291.43,163.96L293.05,163.96L293.19,225.88L293.49,241.36L293.63,179.44L294.52,163.96L294.66,163.96L299.95,163.96L300.1,225.88L300.69,241.36L300.98,163.96L301.13,161.81L301.27,154.17L301.42,200.28L301.57,96.05L302.15,96.29L302.3,121.59L302.45,98.22L302.59,181.53L303.04,121.93L303.18,104.05L304.21,165.95L304.5,161.15L304.65,154.06L304.8,159.01L304.95,92.01L305.39,206.38L305.68,124.79L305.83,119.27L307.74,196.51L307.88,189.56L308.32,195.01L308.47,188.86L308.62,192.5L308.76,189.46L309.35,192.04L309.5,188.38L310.09,191.05L310.23,188.15L310.38,190.5L310.53,187.98L310.67,188.52L310.82,187.47L310.97,187.63L311.11,187.21L311.56,186.57L311.85,187.34L312,187.29L312.29,186.81L312.44,249.17L312.88,140.93L313.32,202.04L313.46,166.56L313.61,187.73L314.05,168.71L314.2,163.19L315.96,112.16L316.26,113.84L316.4,119.48L316.55,180.33L316.99,99.74L317.14,146.63L317.28,97.16L317.43,204.93L317.87,76.86L318.02,166.91L318.17,146.53L318.61,100.77L319.19,210.39L319.34,195.17L319.49,212.43L319.63,192.68L320.07,203.29L320.22,195.65L320.66,202.22L320.81,190.72L320.96,197.99L321.1,190.44L321.25,198.72L321.69,189.55L321.84,196.07L321.98,190.82L322.13,199.86L322.57,187.53L322.72,188.07L323.75,186.36L323.89,187.23L324.78,186.21L324.92,187.67L325.22,185.86L325.51,186.48L325.66,186.89L325.8,186.98L325.95,185.99L326.1,187.16L326.24,186.87L326.39,249.15L326.54,141.45L327.13,167.93L327.27,187.53L327.42,181.51L328.01,186.06L328.15,186.04L328.59,191.44L328.74,196.15L329.18,197.67L329.48,173.54L329.62,149.01L330.06,98.43L330.21,200.33L330.65,85.1L330.94,99.28L331.09,146.68L331.53,98.93L331.68,134.76L331.83,158.65L331.97,166.58L332.12,141.09L332.27,218.37L332.85,113.42L333.3,139.34L333.44,165.45L334.03,228.25L334.32,222.07L334.47,200.96L334.62,210.55L335.2,200.5L335.35,198.91L335.94,191.62L336.09,197.74L336.82,188.5L336.97,191.86L337.41,187.21L337.85,188.21L338,188.42L338.44,189.53L338.58,187.7L338.73,188.6L339.61,186.99L339.76,187.52L339.91,188.32L340.2,186.61L340.35,187.25L340.49,187.19L340.93,186.11L341.08,187.2L341.23,187.36L341.52,187.67L341.67,186.56L341.81,249.06L341.96,141.12L342.4,236.26L342.55,156.54L343.14,254.72L343.28,221.7L343.43,197.51L343.58,202.73L343.72,201.08L343.87,179.83L344.17,94.26L344.46,133.36L344.61,186.71L344.9,212.91L345.05,144.15L345.19,183L345.34,158.15L345.49,168.87L345.93,156.14L346.07,159.09L346.22,156.16L346.37,161.52L346.81,155.95L346.96,160.75L347.1,154.9L348.13,169.85L348.28,162.8L348.42,158.47L349.01,162.48L349.16,165.41L350.04,258.2L350.19,204.75L350.78,188.83L351.07,191.06L351.22,190.05L351.36,187.3L351.95,187.97L352.1,188.7L352.24,189.12L352.39,186.74L352.68,188.95L352.98,187.33L353.13,186.41L353.57,188.36L353.71,187.41L353.86,185.85L354.3,187.41L354.74,187.06L354.89,186.02L355.48,187.14L355.62,185.27L355.77,186.97L355.92,247.03L356.06,139.3L356.65,159.07L356.8,167.5L356.94,207.12L357.09,130.66L357.53,191.22L357.68,137.43L357.97,134.14L358.12,219.59L358.41,210.77L358.56,132L358.71,184.88L359.15,123.25L359.29,136.7L359.44,108.84L359.74,103.68L360.18,149.74L360.32,112.34L361.35,288.38L361.5,211.5L361.65,280.42L361.79,149.68L362.23,227.55L362.38,236.55L362.97,217.73L363.26,291.33L363.41,288.14L364.29,194.33L364.44,199.46L365.46,189.62L365.61,191.42L366.05,187.41L366.49,187.63L366.64,187.6L366.79,187.2L366.93,191.39L367.81,186.75L367.96,188.28L368.55,187.12L368.7,190.02L369.58,186.38L369.72,186.93L370.02,186.48L370.16,187.75L370.31,248.04L370.61,186.28L370.9,199.12L371.05,198.72L371.19,201.56L371.78,199.1L371.93,201.26L372.22,200.51L372.37,204.17L372.51,212.47L373.1,217.99L373.25,287.27L373.4,299.36L373.54,237.63L373.84,205.94L373.98,271.82L374.13,285.79L374.87,215.88L375.01,218.85L375.16,218.78L375.75,284.22L375.89,304L376.77,213.48L376.92,213.75L377.95,202.28L378.1,203.77L379.13,192.71L379.27,198.02L379.57,191.39L380.15,191.67L380.3,191.64L380.74,194.72L380.89,189.15L381.18,186.98L381.62,188.32L381.77,187.85L382.36,186.5L382.5,187.69L382.65,186.93L382.94,187.55L383.09,186.39L383.24,187.77L383.38,186.19L383.53,248.9L383.68,264.74L383.83,203.29L383.97,188.39L384.12,248.65L384.56,186.59L384.71,187.78L384.85,189.09L385.15,190.57L385.29,188.53L385.44,189.72L385.59,188.16L386.18,192.87L386.32,189.19L386.91,197.54L387.2,197.5L387.35,193.57L387.94,199.14L388.09,199L388.23,195.51L388.38,195.39L388.53,200.97L388.67,196.35L388.97,202.29L389.11,261L389.26,280.75L389.41,217.26L389.55,199.14L389.7,203.86L389.99,195.48L390.14,198.77L390.29,193.62L390.58,197.99L390.73,193.4L390.88,255.49L391.02,270.57L391.17,214.15L391.32,189.31L392.2,194.6L392.35,189.48L392.93,193.16L393.08,187.15L393.23,190.63L393.81,186.88L393.96,189.35L394.84,186.3L394.99,187.28L395.28,186.35L395.43,249.19L395.58,263.9L395.72,204.74L395.87,186.46L396.02,186.49L396.16,187.39L396.61,185.59L396.75,186.07L396.9,187.57L397.19,187.86L397.78,185.86L397.93,187.1L398.51,185.87L398.66,187.27L398.81,187.3L398.96,191.04L399.54,189.02L399.69,254.2L399.84,267.22L399.98,204.62L400.13,189.39L400.72,192.52L400.86,201.95L401.01,196.18L401.31,203.54L401.6,198.57L401.75,202.67L403.07,216.41L403.22,211.71L403.51,207L403.66,275.1L403.8,284.7L403.95,233.92L404.54,206.31L404.83,212.23L404.98,209.34L405.12,211.69L405.27,206.01L405.42,210.94L405.57,201.95L405.86,280.73L406.3,201.54L406.45,199.74L406.59,201.04L406.74,196.83L406.89,197.03L407.03,197.36L407.33,191.47L407.92,192L408.06,192.37L408.36,194.02L408.65,191.92L408.8,187.65L408.94,187.17L409.09,188.2L409.24,188.87L409.53,186.54L409.97,186.82L410.12,249.81L410.27,263.96L410.41,202.85L410.71,186.35L411.29,186.86L411.44,186.56L411.59,187.58L412.18,186.64L412.32,187.33L412.62,187.45L412.76,186.21L412.91,187.22L413.06,190.1L413.35,190.18L413.5,188.94L413.79,189.46L413.94,190.1L414.09,191.87L414.23,188.94L414.53,188.95L414.67,189.78L415.11,193.16L415.55,191.99L415.7,254.47L416.14,279.56L416.29,214.79L416.58,200.21L416.73,207.78L416.88,266.53L417.02,288.99L417.32,227.89L417.46,213.79L418.2,221.03L418.34,213.3L418.49,217.36L418.79,211.58L418.93,213.46L419.08,210.34L419.23,216.63L419.67,210.53L419.81,206.39L420.11,203.09L420.25,208.17L421.28,196.62L421.43,195.08L421.58,194.64L421.72,195.75L421.87,192.46L422.6,194.51L422.75,191.38L423.05,191.01L423.34,193.67L423.63,192.77L423.78,190.99L423.93,192.03L424.07,187.86L424.22,186.78L424.51,186.29L424.66,187.63L424.81,186.14L424.95,186.91L425.4,186.2L425.54,185.96L425.98,185.84L426.13,187L426.28,185.78L426.57,185.64L427.16,190.5L427.31,196.22L427.45,201.04L427.75,191.27L427.89,154.71L428.77,111.13L429.07,111.63L429.21,126.09L429.36,172.92L429.66,98.46L429.8,137.65L429.95,92.75L430.1,200.45L430.54,80.29L430.68,161.68L430.83,96.26L431.57,211.59L431.71,135.18L431.86,199.39L432.01,74.85L432.45,164.39L432.59,97.04L433.33,158.3L433.47,147.53L434.5,200.39L434.65,198.47L434.8,198.95L435.97,188.59L436.12,190.19L436.56,191.67L436.71,188.8L436.85,190.64L437,191.7" style="vector-effect: non-scaling-stroke; fill: none; stroke: rgb(0, 128, 0); stroke-opacity: 1; stroke-width: 2px; opacity: 1;"/></g><g class="points"/><g class="text"/></g></g></g><g class="overplot"/><path class="xlines-above crisp" d="M0,0" style="fill: none;"/><path class="ylines-above crisp" d="M0,0" style="fill: none;"/><g class="overlines-above"/><g class="xaxislayer-above"><g class="xtick"><text text-anchor="middle" x="0" y="433" transform="translate(80,0)" style="font-family: 'Open Sans', verdana, arial, sans-serif; font-size: 12px; fill: rgb(42, 63, 95); fill-opacity: 1; white-space: pre; opacity: 1;"><tspan class="line" dy="0em" x="0" y="433">May 1</tspan><tspan class="line" dy="1.3em" x="0" y="433">2022</tspan></text></g><g class="xtick"><text text-anchor="middle" x="0" y="433" style="font-family: 'Open Sans', verdana, arial, sans-serif; font-size: 12px; fill: rgb(42, 63, 95); fill-opacity: 1; white-space: pre; opacity: 1;" transform="translate(178.70999999999998,0)">May 8</text></g><g class="xtick"><text text-anchor="middle" x="0" y="433" style="font-family: 'Open Sans', verdana, arial, sans-serif; font-size: 12px; fill: rgb(42, 63, 95); fill-opacity: 1; white-space: pre; opacity: 1;" transform="translate(277.41999999999996,0)">May 15</text></g><g class="xtick"><text text-anchor="middle" x="0" y="433" style="font-family: 'Open Sans', verdana, arial, sans-serif; font-size: 12px; fill: rgb(42, 63, 95); fill-opacity: 1; white-space: pre; opacity: 1;" transform="translate(376.13,0)">May 22</text></g><g class="xtick"><text text-anchor="middle" x="0" y="433" style="font-family: 'Open Sans', verdana, arial, sans-serif; font-size: 12px; fill: rgb(42, 63, 95); fill-opacity: 1; white-space: pre; opacity: 1;" transform="translate(474.84,0)">May 29</text></g></g><g class="yaxislayer-above"><g class="ytick"><text text-anchor="end" x="79" y="4.199999999999999" transform="translate(0,418.75)" style="font-family: 'Open Sans', verdana, arial, sans-serif; font-size: 12px; fill: rgb(42, 63, 95); fill-opacity: 1; white-space: pre; opacity: 1;">−100</text></g><g class="ytick"><text text-anchor="end" x="79" y="4.199999999999999" style="font-family: 'Open Sans', verdana, arial, sans-serif; font-size: 12px; fill: rgb(42, 63, 95); fill-opacity: 1; white-space: pre; opacity: 1;" transform="translate(0,341.36)">−50</text></g><g class="ytick"><text text-anchor="end" x="79" y="4.199999999999999" style="font-family: 'Open Sans', verdana, arial, sans-serif; font-size: 12px; fill: rgb(42, 63, 95); fill-opacity: 1; white-space: pre; opacity: 1;" transform="translate(0,263.96000000000004)">0</text></g><g class="ytick"><text text-anchor="end" x="79" y="4.199999999999999" style="font-family: 'Open Sans', verdana, arial, sans-serif; font-size: 12px; fill: rgb(42, 63, 95); fill-opacity: 1; white-space: pre; opacity: 1;" transform="translate(0,186.57)">50</text></g><g class="ytick"><text text-anchor="end" x="79" y="4.199999999999999" style="font-family: 'Open Sans', verdana, arial, sans-serif; font-size: 12px; fill: rgb(42, 63, 95); fill-opacity: 1; white-space: pre; opacity: 1;" transform="translate(0,109.17)">100</text></g></g><g class="overaxes-above"/></g></g><g class="polarlayer"/><g class="smithlayer"/><g class="ternarylayer"/><g class="geolayer"/><g class="funnelarealayer"/><g class="pielayer"/><g class="iciclelayer"/><g class="treemaplayer"/><g class="sunburstlayer"/><g class="glimages"/><defs id="topdefs-6e2f9d"><g class="clips"/><clipPath id="legend6e2f9d"><rect width="162" height="67" x="0" y="0"/></clipPath></defs><g class="layer-above"><g class="imagelayer"/><g class="shapelayer"/></g><g class="infolayer"><g class="legend" pointer-events="all" transform="translate(525.74,100)"><rect class="bg" shape-rendering="crispEdges" width="162" height="67" x="0" y="0" style="stroke: rgb(68, 68, 68); stroke-opacity: 1; fill: rgb(255, 255, 255); fill-opacity: 1; stroke-width: 0px;"/><g class="scrollbox" transform="" clip-path="url(#legend6e2f9d)"><g class="groups"><g class="traces" transform="translate(0,14.5)" style="opacity: 1;"><text class="legendtext" text-anchor="start" x="40" y="4.680000000000001" style="font-family: 'Open Sans', verdana, arial, sans-serif; font-size: 12px; fill: rgb(42, 63, 95); fill-opacity: 1; white-space: pre;">BESS</text><g class="layers" style="opacity: 0.5;"><g class="legendfill"/><g class="legendlines"><path class="js-line" d="M5,0h30" style="fill: none; stroke: rgb(0, 191, 255); stroke-opacity: 1; stroke-width: 2px;"/></g><g class="legendsymbols"><g class="legendpoints"/></g></g><rect class="legendtoggle" x="0" y="-9.5" width="156.71875" height="19" style="fill: rgb(0, 0, 0); fill-opacity: 0;"/></g><g class="traces" transform="translate(0,33.5)" style="opacity: 1;"><text class="legendtext" text-anchor="start" x="40" y="4.680000000000001" style="font-family: 'Open Sans', verdana, arial, sans-serif; font-size: 12px; fill: rgb(42, 63, 95); fill-opacity: 1; white-space: pre;">Solar</text><g class="layers" style="opacity: 0.5;"><g class="legendfill"/><g class="legendlines"><path class="js-line" d="M5,0h30" style="fill: none; stroke: rgb(255, 0, 0); stroke-opacity: 1; stroke-width: 2px;"/></g><g class="legendsymbols"><g class="legendpoints"/></g></g><rect class="legendtoggle" x="0" y="-9.5" width="156.71875" height="19" style="fill: rgb(0, 0, 0); fill-opacity: 0;"/></g><g class="traces" transform="translate(0,52.5)" style="opacity: 1;"><text class="legendtext" text-anchor="start" x="40" y="4.680000000000001" style="font-family: 'Open Sans', verdana, arial, sans-serif; font-size: 12px; fill: rgb(42, 63, 95); fill-opacity: 1; white-space: pre;">Grid Meter (Net Load)</text><g class="layers" style="opacity: 0.5;"><g class="legendfill"/><g class="legendlines"><path class="js-line" d="M5,0h30" style="fill: none; stroke: rgb(0, 128, 0); stroke-opacity: 1; stroke-width: 2px;"/></g><g class="legendsymbols"><g class="legendpoints"/></g></g><rect class="legendtoggle" x="0" y="-9.5" width="156.71875" height="19" style="fill: rgb(0, 0, 0); fill-opacity: 0;"/></g></g></g><rect class="scrollbar" rx="20" ry="3" width="0" height="0" x="0" y="0" style="fill: rgb(128, 139, 164); fill-opacity: 1;"/></g><g class="g-gtitle"><text class="gtitle" x="298.5" y="50" text-anchor="middle" dy="0em" style="font-family: 'Open Sans', verdana, arial, sans-serif; font-size: 17px; fill: rgb(42, 63, 95); opacity: 1; font-weight: normal; white-space: pre;"><tspan class="line" dy="0em" x="298.5" y="50">Scenario 7</tspan><tspan class="line" dy="1.3em" x="298.5" y="50">Microgrid Output</tspan><tspan class="line" dy="2.6em" x="298.5" y="50">From: May 01, 2022 to May 31, 2022</tspan></text></g><g class="g-xtitle"><text class="xtitle" x="298.5" y="476.409375" text-anchor="middle" style="font-family: 'Open Sans', verdana, arial, sans-serif; font-size: 14px; fill: rgb(42, 63, 95); opacity: 1; font-weight: normal; white-space: pre;">Time</text></g><g class="g-ytitle"><text class="ytitle" transform="rotate(-90,27.168750000000003,260)" x="27.168750000000003" y="260" text-anchor="middle" style="font-family: 'Open Sans', verdana, arial, sans-serif; font-size: 14px; fill: rgb(42, 63, 95); opacity: 1; font-weight: normal; white-space: pre;">Demand (kW)</text></g></g></svg>