<svg class="main-svg" xmlns="http://www.w3.org/2000/svg" xmlns:xlink="http://www.w3.org/1999/xlink" width="700" height="500" style="" viewBox="0 0 700 500"><rect x="0" y="0" width="700" height="500" style="fill: rgb(255, 255, 255); fill-opacity: 1;"/><defs id="defs-c23409"><g class="clips"><clipPath id="clipc23409xyplot" class="plotclip"><rect width="432" height="320"/></clipPath><clipPath class="axesclip" id="clipc23409x"><rect x="80" y="0" width="432" height="500"/></clipPath><clipPath class="axesclip" id="clipc23409y"><rect x="0" y="100" width="700" height="320"/></clipPath><clipPath class="axesclip" id="clipc23409xy"><rect x="80" y="100" width="432" height="320"/></clipPath></g><g class="gradients"/><g class="patterns"/></defs><g class="bglayer"/><g class="layer-below"><g class="imagelayer"/><g class="shapelayer"/></g><g class="cartesianlayer"><g class="subplot xy"><g class="layer-subplot"><g class="shapelayer"/><g class="imagelayer"/></g><g class="gridlayer"><g class="x"><path class="xgrid crisp" transform="translate(177.57999999999998,0)" d="M0,100v320" style="stroke: rgb(255, 255, 255); stroke-opacity: 1; stroke-width: 1px;"/><path class="xgrid crisp" transform="translate(275.15999999999997,0)" d="M0,100v320" style="stroke: rgb(255, 255, 255); stroke-opacity: 1; stroke-width: 1px;"/><path class="xgrid crisp" transform="translate(372.74,0)" d="M0,100v320" style="stroke: rgb(255, 255, 255); stroke-opacity: 1; stroke-width: 1px;"/><path class="xgrid crisp" transform="translate(470.32,0)" d="M0,100v320" style="stroke: rgb(255, 255, 255); stroke-opacity: 1; stroke-width: 1px;"/></g><g class="y"><path class="ygrid crisp" transform="translate(0,411.45)" d="M80,0h432" style="stroke: rgb(255, 255, 255); stroke-opacity: 1; stroke-width: 1px;"/><path class="ygrid crisp" transform="translate(0,373.47)" d="M80,0h432" style="stroke: rgb(255, 255, 255); stroke-opacity: 1; stroke-width: 1px;"/><path class="ygrid crisp" transform="translate(0,335.49)" d="M80,0h432" style="stroke: rgb(255, 255, 255); stroke-opacity: 1; stroke-width: 1px;"/><path class="ygrid crisp" transform="translate(0,259.53)" d="M80,0h432" style="stroke: rgb(255, 255, 255); stroke-opacity: 1; stroke-width: 1px;"/><path class="ygrid crisp" transform="translate(0,221.56)" d="M80,0h432" style="stroke: rgb(255, 255, 255); stroke-opacity: 1; stroke-width: 1px;"/><path class="ygrid crisp" transform="translate(0,183.57999999999998)" d="M80,0h432" style="stroke: rgb(255, 255, 255); stroke-opacity: 1; stroke-width: 1px;"/><path class="ygrid crisp" transform="translate(0,145.6)" d="M80,0h432" style="stroke: rgb(255, 255, 255); stroke-opacity: 1; stroke-width: 1px;"/><path class="ygrid crisp" transform="translate(0,107.62)" d="M80,0h432" style="stroke: rgb(255, 255, 255); stroke-opacity: 1; stroke-width: 1px;"/></g></g><g class="zerolinelayer"><path class="yzl zl crisp" transform="translate(0,297.51)" d="M80,0h432" style="stroke: rgb(255, 255, 255); stroke-opacity: 1; stroke-width: 2px;"/></g><path class="xlines-below"/><path class="ylines-below"/><g class="overlines-below"/><g class="xaxislayer-below"/><g class="yaxislayer-below"/><g class="overaxes-below"/><g class="plot" transform="translate(80,100)" clip-path="url(#clipc23409xyplot)"><g class="scatterlayer mlayer"><g class="trace scatter trace44fdec" style="stroke-miterlimit: 2; opacity: 0.5;"><g class="fills"/><g class="errorbars"/><g class="lines"><path class="js-line" d="M0,197.51L432,197.51" style="vector-effect: non-scaling-stroke; fill: none; stroke: rgb(0, 191, 255); stroke-opacity: 1; stroke-width: 2px; opacity: 1;"/></g><g class="points"/><g class="text"/></g><g class="trace scatter trace0d46df" style="stroke-miterlimit: 2; opacity: 0.5;"><g class="fills"/><g class="errorbars"/><g class="lines"><path class="js-line" d="M0,197.73L3.34,197.64L3.49,196.65L4.21,161.38L4.36,145.17L5.81,16.14L6.24,16.26L6.39,16.26L8.86,16.56L9,16.53L9.29,17.1L9.44,21.52L11.76,197.75L11.91,197.74L17.28,197.63L17.43,196.93L18.3,169.68L18.44,156.23L20.04,16L20.62,16.25L20.77,16.24L23.09,16.64L23.23,17.88L24.1,97.82L24.25,114.36L25.56,197.75L25.7,197.74L25.85,197.73L31.66,197.16L31.8,195.82L32.38,174.16L32.53,152.96L32.96,69.74L33.11,197.51L34.12,197.51L34.27,167.56L34.41,16.27L35.14,16.37L35.29,16.4L37.03,16.5L37.17,17.91L38.05,99.68L38.19,116.62L39.5,197.75L39.64,197.74L39.79,197.74L45.16,197.45L45.31,195.94L46.18,139.05L46.32,126.45L47.63,16.19L48.06,16.35L48.21,16.43L50.39,16.81L50.53,46.5L50.82,16.77L51.4,197.51L51.55,197.51L52.86,197.22L53,196.01L53.87,197.74L54.02,197.73L59.1,197.4L59.25,195.73L60.12,157.58L60.26,197.51L62.15,197.51L62.3,167.81L62.88,16.52L63.17,16.7L63.31,16.7L65.05,16.76L65.2,18.92L66.22,135.17L66.36,158.23L67.52,197.75L67.67,197.75L68.97,197.73L69.12,197.73L73.04,197.26L73.19,195.23L73.48,190.58L73.62,197.51L73.77,197.51L73.91,197.51L75.94,197.51L76.09,167.9L76.24,16.5L76.96,16.7L77.11,46.34L77.98,197.51L78.12,197.51L86.98,197.53L87.13,196.39L87.71,173.17L87.85,158.93L89.45,16.15L89.89,16.28L90.03,16.32L91.05,16.21L91.19,45.89L91.34,167.98L91.63,16.28L91.77,16.32L91.92,16.39L92.93,16.78L93.08,19.62L95.4,197.75L95.55,197.74L95.69,197.73L101.21,197.22L101.36,195.74L103.39,134.8L103.53,110.79L103.83,135.36L103.97,67.06L104.12,31.49L104.84,82.23L104.99,169.05L105.13,23.79L105.71,55.29L105.86,65.18L106,32.32L106.29,89.72L106.44,85.59L106.58,93.09L106.73,39.18L107.31,75.38L107.46,59.12L107.75,182.54L108.33,157.44L108.47,173.31L109.34,197.76L109.49,197.71L109.63,197.51L114.86,197.44L115.01,196.42L115.59,165.05L115.73,131.35L115.88,131.03L116.02,143.71L116.31,130.89L116.46,85.62L117.33,27.38L117.47,45.87L117.62,44.48L117.77,56.35L118.06,39.11L118.2,45.93L118.35,88.79L119.07,24.47L119.22,32.87L119.36,27.51L119.51,74.19L119.8,19.91L120.09,48.78L120.23,16.26L121.54,72.02L121.69,89.46L123.28,197.75L123.43,197.73L123.57,197.73L128.8,197.45L128.95,196.07L129.67,152.35L129.82,136.54L131.12,16.17L131.56,16.27L131.71,45.52L132.58,197.51L132.72,197.51L133.45,197.51L133.59,168.28L133.74,16.32L134.46,22.38L134.61,53.34L134.75,56.16L134.9,25.29L135.34,52.95L135.48,115.59L135.63,112.68L135.77,79.03L137.22,197.75L137.37,197.74L137.51,197.73L142.6,197.71L142.74,197.26L143.32,180.48L143.47,169.55L144.77,30.51L144.92,49.1L145.06,168.36L145.21,16.28L145.94,16.35L146.08,16.43L148.55,16.6L148.7,45.65L148.99,23.93L149.57,197.51L149.71,197.51L156.68,197.22L156.83,195.36L157.41,169.07L157.55,151.67L159.01,16.37L159.44,16.53L159.59,16.61L159.73,16.68L159.88,45.73L160.75,197.51L160.89,197.51L162.2,197.51L162.34,168.59L162.64,16.92L163.07,40.96L163.22,55.19L165.1,197.75L165.25,197.71L165.39,197.55L166.41,197.51L166.56,197.51L297.54,197.51L297.68,190.01L298.55,16.12L298.84,16.18L298.99,16.24L300,16.33L300.15,16.32L301.89,16.47L302.04,17.03L302.47,44.78L302.62,58.3L304.65,197.75L304.8,197.74L309.88,197.57L310.02,196.42L310.89,143.46L311.04,133.1L312.78,16.2L313.07,16.32L313.22,16.37L314.96,16.63L315.11,25.98L316.12,197.51L316.27,197.51L325.42,197.63L325.56,194.92L326.58,16.54L326.72,16.55L326.87,16.53L328.03,16.83L328.17,29.85L328.47,197.51L328.76,132.66L328.9,16.07L329.34,16.1L329.48,25.46L330.5,197.51L330.64,197.51L339.79,197.53L339.94,174.19L340.23,20.96L340.66,105.63L340.81,105.6L344.58,105.69L344.73,105.95L345.02,123.04L345.16,138.07L346.47,197.74L346.62,197.74L351.7,197.47L351.84,196.06L352.72,151.3L352.86,138.1L353.73,105.66L353.88,105.67L354.02,105.66L354.75,105.6L354.89,96.52L355.18,16.58L355.76,16.69L355.91,16.79L356.35,17L356.49,37.26L357.36,197.51L357.51,197.51L422.71,197.52L422.85,188.13L424.01,16.3L424.16,16.43L425.61,16.79L425.76,16.93L427.35,16.88L427.5,17.83L428.37,89.28L428.51,105.06L430.11,197.74L430.26,197.74L432,197.73" style="vector-effect: non-scaling-stroke; fill: none; stroke: rgb(255, 0, 0); stroke-opacity: 1; stroke-width: 2px; opacity: 1;"/></g><g class="points"/><g class="text"/></g><g class="trace scatter trace2db339" style="stroke-miterlimit: 2; opacity: 0.5;"><g class="fills"/><g class="errorbars"/><g class="lines"><path class="js-line" d="M0,225.39L0.15,224.67L0.29,228.13L1.16,224.26L1.31,225.64L1.89,223.61L2.18,223.74L2.32,224.72L2.47,225.87L2.9,223.94L3.05,224.15L3.19,225.1L3.34,224.02L3.49,224.03L3.63,218.75L4.21,192.32L4.36,174.94L5.66,54.68L6.1,59.34L6.24,60.11L6.53,56.02L7.7,75.8L7.84,72.79L8.28,65.67L8.42,78.78L9.29,67.19L9.44,78.84L9.87,106.14L10.02,125.94L11.47,232.02L11.62,229.48L11.76,226.97L11.91,231.64L12.34,228.75L12.49,225.3L12.63,226.78L12.78,225.32L12.92,221.71L13.07,201.83L13.5,227.25L13.65,224.59L13.94,224.29L14.38,228.08L14.52,224.98L14.81,225.79L14.96,224.14L15.1,225.94L15.25,227.04L15.39,224.31L15.54,225.63L15.68,223.94L15.97,223.85L16.26,226.12L16.55,225.95L16.7,224.23L17.13,224.27L17.28,226.38L18.3,212.44L18.44,198.94L20.47,74.33L20.62,73.43L21.06,59.58L21.35,61.12L21.49,70.17L21.64,69.54L21.78,77.85L22.51,68.82L22.65,75.1L22.94,76.43L23.09,72.84L23.23,77.14L23.81,115.91L23.96,136.46L24.54,186.82L24.69,199.51L25.7,232.09L25.85,226.96L26.14,228.38L26.57,225.27L26.72,226.24L27.01,224.05L27.59,227.98L27.74,224.64L28.46,224.32L28.61,226.54L28.75,226.4L29.48,224L29.62,225.28L29.77,224.7L29.91,226.31L30.2,223.86L30.35,224.52L30.49,224.28L30.78,202.09L30.93,224.36L31.22,226.31L31.51,224.96L31.66,223.92L31.8,224.21L31.95,222.1L32.24,215.99L32.38,207.99L32.82,148.43L32.96,69.74L33.83,197.51L33.98,197.51L34.27,175.18L34.41,64.6L35.14,91.13L35.43,87.49L35.58,94.77L35.72,90.62L35.87,96.8L36.3,94.7L36.45,96.4L36.74,99.25L36.88,97.25L37.03,91.55L37.32,97.59L37.46,112.9L39.21,238.17L39.5,234.56L39.64,236L40.08,231.28L40.22,236.06L40.51,232.5L40.66,232.95L41.09,229.71L41.24,230.71L41.38,233.44L41.68,202.82L41.82,229.71L42.11,231.67L42.26,229.69L42.98,224.49L43.13,226.31L44,224.26L44.14,224.97L44.29,225.13L44.43,224.1L44.87,225.34L45.02,224.85L45.16,224.19L45.31,223.44L45.45,217.37L46.18,180.83L46.32,170.22L47.48,75.74L47.92,83.79L48.06,82.24L48.21,82.51L48.35,91.01L48.79,85.4L49.08,101.8L49.23,95.43L49.81,81.83L49.95,84.62L50.1,88.96L50.24,80.45L50.53,106.13L50.68,180.75L50.82,94.65L51.11,197.51L51.4,197.51L51.55,197.51L52.71,197.51L52.86,203.53L53.15,243.77L53.73,232.24L53.87,235.76L54.31,227.83L54.45,221.5L54.6,202.26L54.89,230.53L55.03,226.44L55.18,225.23L55.33,225.14L55.47,231.44L56.2,225.33L56.34,226.43L56.49,225.07L56.63,229.73L57.21,224.16L57.36,225.17L57.5,227.47L57.94,224.26L58.08,226.27L58.23,224.01L58.37,225.28L58.52,220.72L58.66,202.04L58.96,226.81L59.39,217.1L59.54,213.41L60.12,191.9L60.55,197.51L60.7,197.51L62.15,197.51L62.3,181.33L62.73,78.16L63.17,103.11L63.31,98.75L63.75,112.08L64.04,100.23L64.18,93.19L64.47,106.49L64.76,102.87L64.91,92.12L65.78,134.06L65.93,157.54L66.94,260.95L67.38,237.16L67.52,236.57L67.67,239.2L67.81,226.45L67.96,203.11L68.25,233.59L68.39,232.34L68.54,231.09L68.83,233.14L69.7,222.04L69.85,197.7L70.86,197.51L71.01,197.51L72.02,197.51L72.17,201.91L72.46,225.55L72.9,219.79L73.04,201.48L73.19,221.11L73.62,197.51L73.77,197.51L75.94,197.51L76.09,178.67L76.96,75.73L77.11,46.34L77.98,197.51L78.12,197.51L86.11,197.51L86.25,201.85L86.98,227.92L87.13,223.1L87.27,221.17L88,176.18L88.14,159.6L89.59,60.91L89.89,69.87L90.03,74.56L90.32,72.41L90.76,80.67L90.9,79.52L91.05,77.2L91.34,178.57L91.48,81.67L91.63,83.77L91.77,84.49L91.92,83.81L92.06,89.75L92.35,93.25L92.93,73L93.08,73.65L95.26,235.64L95.4,231.93L95.69,228.34L95.84,229.41L95.98,234.13L96.13,224.42L96.71,228.05L96.86,228.87L97.29,224.72L97.44,228.84L97.58,230.9L97.87,225.93L98.02,225.17L98.6,224.49L98.89,229.22L99.03,226L99.47,224.72L99.61,227.56L99.76,227.43L99.9,226.3L100.34,226.45L100.63,224.1L100.78,224.26L100.92,224.59L101.07,226.58L101.21,224.01L101.36,224.35L101.5,221.63L101.94,217.42L102.23,220.42L102.37,220.61L103.68,133.65L103.83,169.19L104.12,67.96L104.7,79.48L104.84,112.94L104.99,175.06L105.13,60.95L105.42,79.97L105.57,88.91L106,76.05L106.58,139.74L106.73,79.74L107.75,189.39L107.89,148.96L108.91,228.78L109.34,227.19L109.49,221.69L110.36,197.51L110.5,197.51L110.94,197.51L111.09,201.81L111.52,227.15L111.96,226.52L112.1,225.05L112.68,228.95L112.83,224.51L113.12,224.48L113.26,225.64L113.41,226.35L113.84,224.89L113.99,224.78L114.14,225.91L114.28,224.41L114.57,224.57L114.72,224.56L115.15,219.02L115.3,209.16L115.59,201.73L115.73,173.14L115.88,173.21L116.02,185.94L116.31,177.28L116.46,130.18L116.6,80.52L117.18,137.45L117.33,84.7L117.47,102.95L117.62,103.29L117.77,121.16L118.35,148.11L118.49,94.53L118.64,108.56L118.78,75.8L119.36,88.08L119.51,135.94L119.8,66.47L120.38,86.18L120.52,94.89L120.67,80.6L121.11,95.11L121.25,84.1L121.4,114.26L121.54,113.78L121.69,139.08L122.85,236.01L123.14,227.22L123.28,225.28L123.43,227.64L123.86,224.3L124.15,227.27L124.3,225.17L124.45,225.18L124.59,226.6L125.46,222.13L125.61,210.73L126.33,225.86L126.48,224.94L126.62,225.1L126.77,225.66L126.91,224.38L127.2,224.99L127.35,224.47L127.49,224.29L127.64,224.71L127.78,225.51L128.66,224.03L128.8,224.17L129.38,208.99L129.53,205.66L131.27,62.03L131.56,64.89L131.71,84.87L132.58,197.51L132.72,197.51L133.45,197.51L133.59,178.92L134.17,82.51L134.46,88.92L134.61,120.11L134.9,82.71L135.19,101.15L135.34,104.14L136.21,176.59L136.35,204.89L136.79,241.04L137.22,227.95L137.37,224.69L137.66,224.5L138.09,230.41L138.39,229.06L138.53,231.23L138.97,231.91L139.69,225.68L139.84,219.97L139.98,201.83L140.42,225.57L140.56,224.62L141.14,225.29L141.43,225.03L141.58,224.53L141.87,224.34L142.02,224.66L142.16,225.25L142.89,222.11L143.03,217.65L143.61,195.12L143.76,178.42L144.77,74.97L144.92,86.75L145.06,176.32L145.5,56.18L145.94,69.39L146.08,75.78L146.95,70.72L147.1,71.32L147.68,64.01L147.82,68.29L147.97,72.16L148.7,96.69L148.84,178.07L148.99,77.82L149.42,126.16L149.57,197.51L151.45,197.51L151.6,203.97L151.74,237.62L152.33,224.51L152.47,224.85L152.62,224.67L152.76,225.24L152.91,227.32L153.2,227.34L153.78,224.8L153.92,225.79L154.79,224.75L154.94,224.77L155.67,224.75L155.81,224.7L156.1,224.51L156.25,221.77L156.39,210.94L156.54,224.1L156.97,218.87L157.12,221.37L157.55,203.46L157.7,178.91L159.01,76.75L159.15,78.61L159.3,78.33L159.59,73.65L159.73,62.31L160.75,197.51L160.89,197.51L162.2,197.51L162.34,180.21L162.78,88.31L163.07,110.29L163.22,120.52L164.52,245.48L164.96,239.38L165.1,231.2L165.25,235.48L165.39,202.96L165.54,226.11L165.68,197.51L165.98,197.51L166.12,197.51L168.01,197.51L168.15,201.81L168.44,225.63L169.02,224.61L169.17,225.43L169.46,219.87L169.61,197.51L297.54,197.51L297.68,194.87L298.55,59.01L298.99,61.56L299.13,71.19L299.28,62.49L299.57,72.76L299.71,67.08L299.86,73.15L300,68.22L300.15,79.66L300.29,73.21L300.44,83.96L300.58,75.21L301.02,87.85L301.17,84.37L301.31,84.12L301.6,84.67L301.75,87.59L302.04,81.17L302.33,92.08L302.47,112L303.63,218.47L303.78,232.25L304.07,244.96L304.51,239.21L304.65,238.97L305.52,232.12L305.67,236.44L306.68,231.24L306.83,231.61L307.99,225.78L308.14,226.33L308.28,226.53L308.57,227.03L308.72,225.8L308.86,227.1L309.73,224.38L309.88,225.06L310.02,224.58L311.48,140.97L311.62,110.57L312.2,73.35L312.64,81.12L312.78,86.75L312.93,81.63L313.36,92.22L313.51,96.21L314.38,78.82L314.53,90.27L314.67,86.68L314.96,89.12L315.11,97.8L315.69,269.04L316.12,258.52L316.27,254.65L316.56,252.99L316.85,258.99L316.99,250.01L317.14,255.41L317.57,244.78L317.72,243.25L317.86,242.92L318.01,238.42L318.59,249.04L318.74,232.87L319.17,233.63L319.61,227.79L319.75,228.72L320.77,224.88L320.91,226.61L321.06,224.99L321.35,229.05L321.5,225.11L321.64,226.94L322.22,224.64L322.37,226.84L322.51,225.84L322.66,227.39L322.95,225.39L323.09,226.26L323.24,224.73L323.82,226.26L324.11,226.06L324.25,224.68L324.4,224.59L324.54,225.44L325.56,252.37L325.71,212.96L326.43,76.13L326.58,84.08L326.72,93.18L326.87,90.05L327.16,91.77L327.3,100.34L327.88,77.94L328.03,85.1L328.17,96.98L328.61,278.35L328.9,106.61L329.05,102.51L329.34,101.79L329.48,124.68L329.63,190.52L329.77,304L330.5,289.01L330.64,271.78L330.79,275.76L331.08,265.79L331.22,260.42L333.26,231.29L333.4,236.23L333.55,227.6L334.27,228.36L334.42,231.4L335.29,226.59L335.58,226.87L335.73,225.77L336.02,228.13L336.31,225.54L336.45,226.31L336.6,226.2L336.89,227.38L337.03,225.05L337.32,226.32L337.47,228.17L337.76,225.24L338.19,225.75L338.34,226.8L338.48,226.47L338.63,235.89L339.65,264.27L339.79,258.32L339.94,229.94L340.23,84.37L340.66,179.95L340.81,189.03L340.95,184.16L341.39,191.67L341.53,186.85L341.68,187.92L342.41,176.47L342.55,183.8L343.13,177.78L343.28,186.94L344.15,203.19L344.29,189.12L344.44,189.03L344.58,180.55L344.87,179.43L346.18,247.03L346.47,241.7L346.62,239.18L347.34,227.15L347.49,231L347.63,232.81L348.36,225.45L348.5,229.11L348.94,226.78L349.09,225.05L349.38,228.57L349.81,224.65L349.96,226.58L350.39,229.2L350.83,224.82L350.97,225.66L351.12,225.93L351.26,225.36L351.41,229.51L353.3,147.42L353.88,150.24L354.02,159.4L354.17,160.69L354.31,173.12L354.46,179.94L354.89,166.21L355.04,118.01L355.47,95.37L355.76,102.22L355.91,117.1L356.06,98.43L356.49,128.73L356.64,251.8L356.78,295.73L357.36,288.65L357.51,277.38L357.65,279.86L357.8,279.44L357.94,269.79L358.52,256.69L358.67,263.08L358.96,265.39L359.1,258.82L360.12,234.77L360.41,236.2L360.56,235.35L361.57,226.83L361.72,230.01L362.59,226.03L362.73,231.16L363.61,225.47L363.75,227.34L364.04,225.86L364.33,225.92L364.48,229.48L365.35,225.01L365.49,225.68L365.78,225.13L365.93,226.7L366.07,224.7L366.51,228.88L366.66,240.64L366.8,240.15L366.95,243.64L367.09,240.52L367.67,243.26L367.82,244.4L367.96,242.35L368.11,246.84L368.25,257.02L368.98,272.82L369.27,268.9L369.41,262.87L369.56,249.01L370,259.85L370.14,276.5L370.58,261.2L370.87,264.76L371.01,276.41L372.03,262.95L372.17,261.55L374.79,232.77L374.93,239.29L375.22,231.16L375.8,231.5L375.95,231.47L376.38,235.25L376.53,228.41L376.82,225.75L377.26,227.39L377.4,226.82L377.98,225.16L378.27,225.68L378.42,225.01L378.85,226.72L379,224.78L379.14,225.75L379.29,226.2L379.58,227.48L379.72,225.45L379.87,225.98L380.01,225.73L380.16,225.28L380.31,226.73L380.45,228.33L380.74,230.16L380.89,227.65L381.03,229.11L381.18,227.2L381.76,232.97L381.9,228.46L382.48,238.71L382.77,238.65L382.92,233.84L383.5,240.67L383.65,240.49L383.79,236.21L383.94,236.07L384.08,242.91L384.23,237.25L384.52,244.54L384.66,240.6L384.81,245.84L385.24,246.46L385.82,233.9L385.97,235.61L386.11,239.26L386.69,240.09L386.84,228.61L386.98,233.04L387.13,230.36L387.57,228.76L387.71,235.09L387.86,228.82L388.44,233.33L388.58,225.96L388.73,230.23L389.31,225.63L389.45,228.66L390.32,224.91L390.47,226.12L390.76,224.97L391.05,225.16L391.2,228.55L392.07,224.04L392.21,224.64L392.65,226.83L392.94,224.65L393.08,225.92L393.95,224.38L394.1,226.11L394.25,226.14L394.39,230.74L394.54,228.21L394.97,228.25L395.12,232.26L395.41,228.4L395.7,231.15L395.84,236.59L395.99,231.64L396.28,244.11L396.42,237.03L396.57,241.18L396.86,237.25L397.44,252.84L397.59,251.07L397.73,254.79L398.02,250.21L398.17,253.6L398.31,259.75L398.46,261.86L398.6,256.09L398.75,254.4L398.89,250.32L399.04,257.9L399.18,250.68L399.33,264.34L399.47,266.18L399.62,259.1L399.76,259.81L400.63,249.09L400.78,255.15L401.36,241.76L401.65,243.61L401.8,241.4L401.94,243L402.09,237.83L402.23,238.08L402.38,238.48L402.67,231.26L403.25,231.91L403.39,232.36L403.68,234.39L403.97,231.81L404.12,226.57L404.26,225.99L404.41,227.25L404.56,228.07L404.85,225.21L405.28,225.56L405.43,226.87L406.01,224.98L406.3,225.04L406.44,226.54L407.02,225.21L407.31,225.36L407.46,225.34L408.04,224.81L408.62,229.68L408.77,228.15L409.35,231.75L409.49,228.15L409.64,228.83L409.78,228.17L409.93,229.18L410.07,231.2L410.22,229.8L410.36,233.33L410.65,230.14L410.8,231.9L411.09,234.1L411.23,241.87L411.53,240.87L413.12,264.72L413.27,261.94L413.41,267.53L413.56,258.04L413.85,262.39L413.99,255.93L414.28,254.41L414.43,262.12L414.57,255.94L414.72,255.02L414.87,254.64L415.01,249.57L415.3,245.51L415.45,251.74L416.46,237.58L416.61,235.68L416.75,235.14L416.9,236.51L417.04,232.47L417.77,234.98L417.91,231.14L418.21,230.69L418.5,233.96L418.79,232.85L418.93,230.67L419.08,231.95L419.22,226.83L419.37,225.51L419.66,224.91L419.8,226.55L419.95,224.72L420.67,224.5L420.82,225.73L420.96,225.4L421.25,225.77L421.69,224.11L421.84,224.47L421.98,225.04L422.13,224.67L422.27,230.07L422.56,243L422.85,231.01L423,171.58L423.87,84.55L424.01,85.54L424.16,87.16L424.59,89.36L425.18,73.29L425.32,79.81L425.47,86.11L425.61,83.38L425.76,88.68L425.9,98.74L426.05,86.03L426.34,108.84L426.48,119.3L426.92,86.45L427.5,91.26L427.64,96.16L428.66,179.2L428.81,196.2L429.68,256.57L429.97,243.16L430.11,246.41L430.84,234.19L430.98,239.12L431.13,232.54L431.27,232.69L431.42,238.68L431.71,231.42L432,233.04" style="vector-effect: non-scaling-stroke; fill: none; stroke: rgb(0, 128, 0); stroke-opacity: 1; stroke-width: 2px; opacity: 1;"/></g><g class="points"/><g class="text"/></g></g></g><g class="overplot"/><path class="xlines-above crisp" d="M0,0" style="fill: none;"/><path class="ylines-above crisp" d="M0,0" style="fill: none;"/><g class="overlines-above"/><g class="xaxislayer-above"><g class="xtick"><text text-anchor="middle" x="0" y="433" transform="translate(80,0)" style="font-family: 'Open Sans', verdana, arial, sans-serif; font-size: 12px; fill: rgb(42, 63, 95); fill-opacity: 1; white-space: pre; opacity: 1;"><tspan class="line" dy="0em" x="0" y="433">May 1</tspan><tspan class="line" dy="1.3em" x="0" y="433">2022</tspan></text></g><g class="xtick"><text text-anchor="middle" x="0" y="433" style="font-family: 'Open Sans', verdana, arial, sans-serif; font-size: 12px; fill: rgb(42, 63, 95); fill-opacity: 1; white-space: pre; opacity: 1;" transform="translate(177.57999999999998,0)">May 8</text></g><g class="xtick"><text text-anchor="middle" x="0" y="433" style="font-family: 'Open Sans', verdana, arial, sans-serif; font-size: 12px; fill: rgb(42, 63, 95); fill-opacity: 1; white-space: pre; opacity: 1;" transform="translate(275.15999999999997,0)">May 15</text></g><g class="xtick"><text text-anchor="middle" x="0" y="433" style="font-family: 'Open Sans', verdana, arial, sans-serif; font-size: 12px; fill: rgb(42, 63, 95); fill-opacity: 1; white-space: pre; opacity: 1;" transform="translate(372.74,0)">May 22</text></g><g class="xtick"><text text-anchor="middle" x="0" y="433" style="font-family: 'Open Sans', verdana, arial, sans-serif; font-size: 12px; fill: rgb(42, 63, 95); fill-opacity: 1; white-space: pre; opacity: 1;" transform="translate(470.32,0)">May 29</text></g></g><g class="yaxislayer-above"><g class="ytick"><text text-anchor="end" x="79" y="4.199999999999999" transform="translate(0,411.45)" style="font-family: 'Open Sans', verdana, arial, sans-serif; font-size: 12px; fill: rgb(42, 63, 95); fill-opacity: 1; white-space: pre; opacity: 1;">−60</text></g><g class="ytick"><text text-anchor="end" x="79" y="4.199999999999999" style="font-family: 'Open Sans', verdana, arial, sans-serif; font-size: 12px; fill: rgb(42, 63, 95); fill-opacity: 1; white-space: pre; opacity: 1;" transform="translate(0,373.47)">−40</text></g><g class="ytick"><text text-anchor="end" x="79" y="4.199999999999999" style="font-family: 'Open Sans', verdana, arial, sans-serif; font-size: 12px; fill: rgb(42, 63, 95); fill-opacity: 1; white-space: pre; opacity: 1;" transform="translate(0,335.49)">−20</text></g><g class="ytick"><text text-anchor="end" x="79" y="4.199999999999999" style="font-family: 'Open Sans', verdana, arial, sans-serif; font-size: 12px; fill: rgb(42, 63, 95); fill-opacity: 1; white-space: pre; opacity: 1;" transform="translate(0,297.51)">0</text></g><g class="ytick"><text text-anchor="end" x="79" y="4.199999999999999" style="font-family: 'Open Sans', verdana, arial, sans-serif; font-size: 12px; fill: rgb(42, 63, 95); fill-opacity: 1; white-space: pre; opacity: 1;" transform="translate(0,259.53)">20</text></g><g class="ytick"><text text-anchor="end" x="79" y="4.199999999999999" style="font-family: 'Open Sans', verdana, arial, sans-serif; font-size: 12px; fill: rgb(42, 63, 95); fill-opacity: 1; white-space: pre; opacity: 1;" transform="translate(0,221.56)">40</text></g><g class="ytick"><text text-anchor="end" x="79" y="4.199999999999999" style="font-family: 'Open Sans', verdana, arial, sans-serif; font-size: 12px; fill: rgb(42, 63, 95); fill-opacity: 1; white-space: pre; opacity: 1;" transform="translate(0,183.57999999999998)">60</text></g><g class="ytick"><text text-anchor="end" x="79" y="4.199999999999999" style="font-family: 'Open Sans', verdana, arial, sans-serif; font-size: 12px; fill: rgb(42, 63, 95); fill-opacity: 1; white-space: pre; opacity: 1;" transform="translate(0,145.6)">80</text></g><g class="ytick"><text text-anchor="end" x="79" y="4.199999999999999" style="font-family: 'Open Sans', verdana, arial, sans-serif; font-size: 12px; fill: rgb(42, 63, 95); fill-opacity: 1; white-space: pre; opacity: 1;" transform="translate(0,107.62)">100</text></g></g><g class="overaxes-above"/></g></g><g class="polarlayer"/><g class="smithlayer"/><g class="ternarylayer"/><g class="geolayer"/><g class="funnelarealayer"/><g class="pielayer"/><g class="iciclelayer"/><g class="treemaplayer"/><g class="sunburstlayer"/><g class="glimages"/><defs id="topdefs-c23409"><g class="clips"/><clipPath id="legendc23409"><rect width="167" height="67" x="0" y="0"/></clipPath></defs><g class="layer-above"><g class="imagelayer"/><g class="shapelayer"/></g><g class="infolayer"><g class="legend" pointer-events="all" transform="translate(520.64,100)"><rect class="bg" shape-rendering="crispEdges" width="167" height="67" x="0" y="0" style="stroke: rgb(68, 68, 68); stroke-opacity: 1; fill: rgb(255, 255, 255); fill-opacity: 1; stroke-width: 0px;"/><g class="scrollbox" transform="" clip-path="url(#legendc23409)"><g class="groups"><g class="traces" transform="translate(0,14.5)" style="opacity: 1;"><text class="legendtext" text-anchor="start" x="40" y="4.680000000000001" style="font-family: 'Open Sans', verdana, arial, sans-serif; font-size: 12px; fill: rgb(42, 63, 95); fill-opacity: 1; white-space: pre;">BESS</text><g class="layers" style="opacity: 0.5;"><g class="legendfill"/><g class="legendlines"><path class="js-line" d="M5,0h30" style="fill: none; stroke: rgb(0, 191, 255); stroke-opacity: 1; stroke-width: 2px;"/></g><g class="legendsymbols"><g class="legendpoints"/></g></g><rect class="legendtoggle" x="0" y="-9.5" width="161.890625" height="19" style="fill: rgb(0, 0, 0); fill-opacity: 0;"/></g><g class="traces" transform="translate(0,33.5)" style="opacity: 1;"><text class="legendtext" text-anchor="start" x="40" y="4.680000000000001" style="font-family: 'Open Sans', verdana, arial, sans-serif; font-size: 12px; fill: rgb(42, 63, 95); fill-opacity: 1; white-space: pre;">Solar</text><g class="layers" style="opacity: 0.5;"><g class="legendfill"/><g class="legendlines"><path class="js-line" d="M5,0h30" style="fill: none; stroke: rgb(255, 0, 0); stroke-opacity: 1; stroke-width: 2px;"/></g><g class="legendsymbols"><g class="legendpoints"/></g></g><rect class="legendtoggle" x="0" y="-9.5" width="161.890625" height="19" style="fill: rgb(0, 0, 0); fill-opacity: 0;"/></g><g class="traces" transform="translate(0,52.5)" style="opacity: 1;"><text class="legendtext" text-anchor="start" x="40" y="4.680000000000001" style="font-family: 'Open Sans', verdana, arial, sans-serif; font-size: 12px; fill: rgb(42, 63, 95); fill-opacity: 1; white-space: pre;">Grid Meter (Net Load)</text><g class="layers" style="opacity: 0.5;"><g class="legendfill"/><g class="legendlines"><path class="js-line" d="M5,0h30" style="fill: none; stroke: rgb(0, 128, 0); stroke-opacity: 1; stroke-width: 2px;"/></g><g class="legendsymbols"><g class="legendpoints"/></g></g><rect class="legendtoggle" x="0" y="-9.5" width="161.890625" height="19" style="fill: rgb(0, 0, 0); fill-opacity: 0;"/></g></g></g><rect class="scrollbar" rx="20" ry="3" width="0" height="0" x="0" y="0" style="fill: rgb(128, 139, 164); fill-opacity: 1;"/></g><g class="g-gtitle"><text class="gtitle" x="296" y="50" text-anchor="middle" dy="0em" style="font-family: 'Open Sans', verdana, arial, sans-serif; font-size: 17px; fill: rgb(42, 63, 95); opacity: 1; font-weight: normal; white-space: pre;"><tspan class="line" dy="0em" x="296" y="50">Scenario 1</tspan><tspan class="line" dy="1.3em" x="296" y="50">Microgrid Output</tspan><tspan class="line" dy="2.6em" x="296" y="50">From: May 01, 2022 to May 31, 2022</tspan></text></g><g class="g-xtitle"><text class="xtitle" x="296" y="477.409375" text-anchor="middle" style="font-family: 'Open Sans', verdana, arial, sans-serif; font-size: 14px; fill: rgb(42, 63, 95); opacity: 1; font-weight: normal; white-space: pre;">Time</text></g><g class="g-ytitle"><text class="ytitle" transform="rotate(-90,33.60625,260)" x="33.60625" y="260" text-anchor="middle" style="font-family: 'Open Sans', verdana, arial, sans-serif; font-size: 14px; fill: rgb(42, 63, 95); opacity: 1; font-weight: normal; white-space: pre;">Demand (kW)</text></g></g></svg>