<svg class="main-svg" xmlns="http://www.w3.org/2000/svg" xmlns:xlink="http://www.w3.org/1999/xlink" width="700" height="500" style="" viewBox="0 0 700 500"><rect x="0" y="0" width="700" height="500" style="fill: rgb(255, 255, 255); fill-opacity: 1;"/><defs id="defs-6efc82"><g class="clips"><clipPath id="clip6efc82xyplot" class="plotclip"><rect width="437" height="320"/></clipPath><clipPath class="axesclip" id="clip6efc82x"><rect x="80" y="0" width="437" height="500"/></clipPath><clipPath class="axesclip" id="clip6efc82y"><rect x="0" y="100" width="700" height="320"/></clipPath><clipPath class="axesclip" id="clip6efc82xy"><rect x="80" y="100" width="437" height="320"/></clipPath></g><g class="gradients"/><g class="patterns"/></defs><g class="bglayer"/><g class="layer-below"><g class="imagelayer"/><g class="shapelayer"/></g><g class="cartesianlayer"><g class="subplot xy"><g class="layer-subplot"><g class="shapelayer"/><g class="imagelayer"/></g><g class="minor-gridlayer"><g class="x"/><g class="y"/></g><g class="gridlayer"><g class="x"><path class="xgrid crisp" transform="translate(178.70999999999998,0)" d="M0,100v320" style="stroke: rgb(255, 255, 255); stroke-opacity: 1; stroke-width: 1px;"/><path class="xgrid crisp" transform="translate(277.41999999999996,0)" d="M0,100v320" style="stroke: rgb(255, 255, 255); stroke-opacity: 1; stroke-width: 1px;"/><path class="xgrid crisp" transform="translate(376.13,0)" d="M0,100v320" style="stroke: rgb(255, 255, 255); stroke-opacity: 1; stroke-width: 1px;"/><path class="xgrid crisp" transform="translate(474.84,0)" d="M0,100v320" style="stroke: rgb(255, 255, 255); stroke-opacity: 1; stroke-width: 1px;"/></g><g class="y"><path class="ygrid crisp" transform="translate(0,411.45)" d="M80,0h437" style="stroke: rgb(255, 255, 255); stroke-opacity: 1; stroke-width: 1px;"/><path class="ygrid crisp" transform="translate(0,373.47)" d="M80,0h437" style="stroke: rgb(255, 255, 255); stroke-opacity: 1; stroke-width: 1px;"/><path class="ygrid crisp" transform="translate(0,335.49)" d="M80,0h437" style="stroke: rgb(255, 255, 255); stroke-opacity: 1; stroke-width: 1px;"/><path class="ygrid crisp" transform="translate(0,259.53)" d="M80,0h437" style="stroke: rgb(255, 255, 255); stroke-opacity: 1; stroke-width: 1px;"/><path class="ygrid crisp" transform="translate(0,221.56)" d="M80,0h437" style="stroke: rgb(255, 255, 255); stroke-opacity: 1; stroke-width: 1px;"/><path class="ygrid crisp" transform="translate(0,183.57999999999998)" d="M80,0h437" style="stroke: rgb(255, 255, 255); stroke-opacity: 1; stroke-width: 1px;"/><path class="ygrid crisp" transform="translate(0,145.6)" d="M80,0h437" style="stroke: rgb(255, 255, 255); stroke-opacity: 1; stroke-width: 1px;"/><path class="ygrid crisp" transform="translate(0,107.62)" d="M80,0h437" style="stroke: rgb(255, 255, 255); stroke-opacity: 1; stroke-width: 1px;"/></g></g><g class="zerolinelayer"><path class="yzl zl crisp" transform="translate(0,297.51)" d="M80,0h437" style="stroke: rgb(255, 255, 255); stroke-opacity: 1; stroke-width: 2px;"/></g><path class="xlines-below"/><path class="ylines-below"/><g class="overlines-below"/><g class="xaxislayer-below"/><g class="yaxislayer-below"/><g class="overaxes-below"/><g class="plot" transform="translate(80,100)" clip-path="url(#clip6efc82xyplot)"><g class="scatterlayer mlayer"><g class="trace scatter trace96c5ed" style="stroke-miterlimit: 2; opacity: 0.5;"><g class="fills"/><g class="errorbars"/><g class="lines"><path class="js-line" d="M0,197.51L437,197.51" style="vector-effect: non-scaling-stroke; fill: none; stroke: rgb(0, 191, 255); stroke-opacity: 1; stroke-width: 2px; opacity: 1;"/></g><g class="points"/><g class="text"/></g><g class="trace scatter trace90c5ea" style="stroke-miterlimit: 2; opacity: 0.5;"><g class="fills"/><g class="errorbars"/><g class="lines"><path class="js-line" d="M0,197.73L3.38,197.64L3.53,196.65L4.26,161.38L4.41,145.17L5.88,16.14L6.17,16.21L6.32,16.26L9.4,17.1L9.55,21.52L11.9,197.75L12.05,197.74L17.48,197.63L17.63,196.93L18.51,169.68L18.66,156.23L20.27,16L20.71,16.2L20.86,16.25L23.36,16.64L23.5,17.88L24.38,97.82L24.53,114.36L25.85,197.75L26,197.74L26.15,197.73L32.02,197.16L32.17,195.82L32.76,174.16L32.9,152.96L33.34,69.74L33.49,197.51L34.52,197.51L34.67,167.56L34.81,16.27L35.55,16.37L35.69,16.4L37.46,16.5L37.6,17.91L38.49,99.68L38.63,116.62L39.95,197.75L40.1,197.74L40.25,197.74L45.68,197.45L45.83,195.94L46.56,154.34L46.71,139.05L48.18,16.19L48.62,16.35L48.77,16.43L50.97,16.81L51.12,46.5L51.41,16.77L52,197.51L52.15,197.51L53.47,197.22L53.62,196.01L54.5,197.74L54.64,197.73L59.78,197.4L59.93,195.73L60.81,157.58L60.96,197.51L62.87,197.51L63.02,167.81L63.6,16.52L63.9,16.7L64.04,16.7L65.81,16.76L65.95,18.92L66.98,135.17L67.13,158.23L68.3,197.75L68.45,197.75L71.1,197.51L71.24,197.51L73.89,197.26L74.03,195.23L74.33,190.58L74.47,197.51L74.62,197.51L74.77,197.51L76.82,197.51L76.97,167.9L77.12,16.5L77.85,16.7L78,46.34L78.88,197.51L79.03,197.51L87.99,197.53L88.13,196.39L88.72,173.17L88.87,158.93L90.48,16.15L90.93,16.28L91.07,16.32L92.1,16.21L92.25,45.89L92.39,167.98L92.69,16.28L92.83,16.32L92.98,16.39L94.01,16.78L94.16,19.62L96.51,197.75L96.65,197.74L96.8,197.73L102.38,197.22L102.53,195.74L104.59,134.8L104.73,110.79L105.03,135.36L105.17,67.06L105.32,31.49L106.06,82.23L106.2,169.05L106.35,23.79L106.94,55.29L107.08,65.18L107.23,32.32L107.52,89.72L107.67,85.59L107.82,93.09L107.96,39.18L108.55,75.38L108.7,59.12L108.99,182.54L109.58,157.44L109.73,173.31L110.61,197.76L110.76,197.71L111.78,197.51L111.93,197.51L116.19,197.44L116.34,196.42L116.93,165.05L117.07,131.35L117.22,131.03L117.37,143.71L117.66,130.89L117.81,85.62L118.69,27.38L118.83,45.87L118.98,44.48L119.13,56.35L119.42,39.11L119.57,45.93L119.72,88.79L120.45,24.47L120.6,32.87L120.74,27.51L120.89,74.19L121.18,19.91L121.48,48.78L121.63,16.26L122.95,72.02L123.09,89.46L124.71,197.75L124.86,197.73L125,197.73L130.29,197.45L130.44,196.07L131.17,152.35L131.32,136.54L132.64,16.17L133.08,16.27L133.23,45.52L134.11,197.51L134.26,197.51L134.99,197.51L135.14,168.28L135.29,16.32L136.02,22.38L136.17,53.34L136.31,56.16L136.46,25.29L136.9,52.95L137.05,115.59L137.2,112.68L137.34,79.03L138.81,197.75L138.96,197.74L139.11,197.73L144.39,197.26L144.54,195.13L145.13,169.55L145.27,152.62L146.45,30.51L146.6,49.1L146.74,168.36L146.89,16.28L147.63,16.35L147.77,16.43L150.27,16.6L150.42,45.65L150.71,23.93L151.3,197.51L151.44,197.51L158.5,197.22L158.64,195.36L159.23,169.07L159.38,151.67L160.85,16.37L161.29,16.53L161.43,16.61L161.58,16.68L161.73,45.73L162.61,197.51L162.75,197.51L164.08,197.51L164.22,168.59L164.52,16.92L164.96,40.96L165.11,55.19L167.01,197.75L167.16,197.71L167.31,197.55L168.19,197.51L168.34,197.51L300.98,197.51L301.13,190.01L302.01,16.12L302.3,16.18L302.45,16.24L303.48,16.33L303.62,16.32L305.53,17.03L305.68,21.19L308.18,197.75L308.32,197.74L313.46,197.57L313.61,196.42L314.49,143.46L314.64,133.1L316.4,16.2L316.7,16.32L316.84,16.37L318.61,16.63L318.75,25.98L319.78,197.51L319.93,197.51L329.18,197.63L329.33,194.92L330.36,16.54L330.5,16.55L330.65,16.53L331.83,16.83L331.97,29.85L332.27,197.51L332.56,132.66L332.71,16.07L333.15,16.1L333.3,25.46L334.32,197.51L334.47,197.51L343.72,197.53L343.87,174.19L344.17,20.96L344.61,105.63L344.75,105.6L346.96,105.63L347.1,105.62L348.72,105.95L348.87,109.45L350.48,197.74L350.63,197.74L355.77,197.47L355.92,196.06L356.94,138.1L357.09,123.74L357.83,105.66L357.97,105.67L358.12,105.66L358.85,105.6L359,96.52L359.29,16.58L359.88,16.69L360.03,16.79L360.47,17L360.62,37.26L361.5,197.51L361.65,197.51L427.6,197.52L427.75,188.13L428.77,19.22L428.92,16.3L430.68,16.93L430.83,16.87L432.3,16.88L432.45,17.83L433.47,105.06L433.62,120.57L435.09,197.74L435.24,197.74L437,197.73" style="vector-effect: non-scaling-stroke; fill: none; stroke: rgb(255, 0, 0); stroke-opacity: 1; stroke-width: 2px; opacity: 1;"/></g><g class="points"/><g class="text"/></g><g class="trace scatter trace6942e6" style="stroke-miterlimit: 2; opacity: 0.5;"><g class="fills"/><g class="errorbars"/><g class="lines"><path class="js-line" d="M0,225.39L0.15,224.67L0.29,228.13L1.18,224.26L1.32,225.64L1.91,223.61L2.2,223.74L2.35,224.72L2.5,225.87L2.94,223.94L3.08,224.15L3.23,225.1L3.38,224.02L3.53,224.03L3.67,218.75L4.26,192.32L4.41,174.94L5.73,54.68L6.17,59.34L6.32,60.11L6.61,56.02L7.79,75.8L7.93,72.79L8.37,65.67L8.52,78.78L9.4,67.19L9.55,78.84L9.99,106.14L10.14,125.94L11.6,232.02L11.75,229.48L11.9,226.97L12.05,231.64L12.49,228.75L12.63,225.3L12.78,226.78L12.93,225.32L13.07,221.71L13.22,201.83L13.66,227.25L13.81,224.59L14.1,224.29L14.54,228.08L14.69,224.98L14.98,225.79L15.13,224.14L15.28,225.94L15.42,227.04L15.57,224.31L15.72,225.63L15.86,223.94L16.16,223.85L16.45,226.12L16.75,225.95L16.89,224.23L17.33,224.27L17.48,226.38L18.51,212.44L18.66,198.94L20.42,74.62L20.56,74.9L20.71,74.33L20.86,73.43L21.01,67.86L21.15,66.99L21.3,59.58L22.03,77.85L22.33,75.19L22.47,74.39L22.77,68.82L22.91,75.1L23.21,76.43L23.36,72.84L23.5,77.14L24.09,115.91L24.24,136.46L24.82,186.82L24.97,199.51L26,232.09L26.15,226.96L26.44,228.38L26.88,225.27L27.03,226.24L27.32,224.05L27.91,227.98L28.06,224.64L28.2,226.07L28.35,224.47L28.64,225.56L28.79,224.32L28.94,226.54L29.38,224.97L29.53,224.13L29.82,224L30.26,226.31L30.41,225.28L30.99,219.94L31.14,202.09L31.58,226.31L32.02,223.92L32.17,224.21L32.76,207.99L32.9,194.71L33.34,69.74L33.49,197.51L34.52,197.51L34.67,175.18L34.81,64.6L35.4,88.86L35.55,91.13L35.69,87.31L35.99,94.77L36.14,90.62L36.28,96.8L36.43,93.84L36.87,96.4L37.02,98.32L37.16,99.25L37.31,97.25L37.46,91.55L37.75,97.59L37.9,112.9L39.66,238.17L39.95,234.56L40.1,236L40.54,231.28L40.69,236.06L40.98,232.5L41.13,232.95L41.28,232.91L41.42,231.47L41.86,233.44L42.01,227.7L42.16,202.82L42.6,231.67L42.89,229L43.04,224.81L43.33,225.92L43.48,224.49L43.63,226.31L43.77,224.32L44.21,224.54L44.36,225.68L45.24,224.06L45.39,225.34L45.83,223.44L45.98,217.37L46.71,180.83L46.86,170.22L48.03,75.74L48.47,83.79L48.62,82.24L48.77,82.51L48.91,91.01L49.36,85.4L49.65,101.8L49.8,95.43L50.09,92.31L50.24,93.19L50.38,81.83L50.68,88.96L50.82,80.45L50.97,85.1L51.12,106.13L51.41,94.65L52,197.51L52.15,197.51L53.32,197.51L53.47,203.53L53.76,243.77L54.35,232.24L54.5,235.76L54.94,227.83L55.08,221.5L55.23,202.26L55.52,230.53L55.67,226.44L55.82,225.23L55.97,225.14L56.11,231.44L56.85,225.33L56.99,226.43L57.14,225.07L57.29,229.73L57.43,224.54L57.73,225.29L57.87,224.16L58.17,227.47L58.46,225.32L58.61,224.26L58.76,226.27L58.9,224.01L59.05,225.28L59.2,220.72L59.34,202.04L59.64,226.81L59.93,223.1L60.08,217.1L60.81,191.9L61.25,197.51L61.4,197.51L62.87,197.51L63.02,181.33L63.46,78.16L63.75,91.3L63.9,103.11L64.04,98.75L64.34,109.99L64.49,112.08L64.93,93.19L65.37,95.67L65.51,102.87L65.66,92.12L66.1,99.62L66.25,110.82L67.72,260.95L68.01,240.33L68.16,237.16L68.3,236.57L68.45,239.2L68.74,203.11L69.04,233.59L69.19,232.34L69.63,233.14L70.51,222.04L70.65,197.7L71.68,197.51L71.83,197.51L72.86,197.51L73,201.91L73.3,225.55L73.74,219.79L73.89,201.48L74.03,221.11L74.47,197.51L74.62,197.51L76.82,197.51L76.97,178.67L77.85,75.73L78,46.34L78.88,197.51L79.03,197.51L87.11,197.51L87.25,201.85L87.99,227.92L88.13,223.1L88.28,221.17L89.02,176.18L89.16,159.6L90.63,60.91L90.93,69.87L91.07,74.56L91.37,72.41L91.81,80.67L91.95,79.52L92.1,77.2L92.39,178.57L92.54,81.67L92.69,83.77L92.83,84.49L92.98,83.81L93.13,89.75L93.42,93.25L94.01,73L94.16,73.65L96.36,235.64L96.51,231.93L96.8,228.34L96.95,229.41L97.09,234.13L97.24,224.42L97.83,228.05L97.98,228.87L98.42,224.72L98.56,228.84L98.71,230.9L99,225.93L99.15,225.17L99.74,224.49L100.03,229.22L100.18,226L100.62,224.72L100.77,227.56L101.06,226.3L101.21,225.17L101.35,224.96L101.5,226.45L102.24,226.58L102.38,224.01L102.53,224.35L103.12,217.42L103.41,220.42L103.56,220.61L104.88,133.65L105.03,169.19L105.32,67.96L105.91,79.48L106.06,112.94L106.2,175.06L106.35,60.95L106.64,79.97L106.79,88.91L107.23,76.05L107.82,139.74L107.96,79.74L108.99,189.39L109.14,148.96L110.17,228.78L110.61,227.19L110.76,221.69L111.64,197.51L111.78,197.51L112.22,197.51L112.37,201.81L112.81,227.15L113.25,226.52L113.4,225.05L113.99,228.95L114.13,224.51L114.43,224.48L114.57,225.64L114.72,226.35L115.16,224.89L115.31,224.78L115.46,225.91L115.6,224.41L115.9,224.57L116.04,224.56L116.48,219.02L116.63,209.16L116.93,201.73L117.07,173.14L117.22,173.21L117.37,185.94L117.66,177.28L117.81,130.18L117.95,80.52L118.39,101.09L118.54,137.45L118.69,84.7L119.28,97.81L119.42,99.47L119.57,102.6L119.72,148.11L120.16,75.8L120.6,85.22L120.74,88.08L120.89,135.94L121.18,66.47L121.48,97.73L121.63,69.43L122.51,95.11L122.65,84.1L124.12,229.67L124.27,236.01L125.3,224.3L125.44,225L125.59,227.27L126.03,226.6L126.18,224.49L126.33,226.09L126.77,225.98L126.91,222.13L127.06,210.73L127.5,225.62L127.65,224.98L127.79,225.86L128.24,225.66L128.38,224.38L129.26,225.51L129.41,224.58L129.85,224.18L130,224.57L130.15,224.03L130.29,224.17L130.44,222.35L131.47,166.17L131.61,154.48L132.79,62.03L133.08,64.89L133.23,84.87L134.11,197.51L134.26,197.51L134.99,197.51L135.14,178.92L135.73,82.51L136.02,88.92L136.17,120.11L136.46,82.71L136.76,101.15L136.9,104.14L137.78,176.59L137.93,204.89L138.37,241.04L138.81,227.95L138.96,224.69L139.25,224.5L140.13,231.23L140.28,230.11L140.43,229.62L140.57,231.91L141.46,219.97L141.6,201.83L142.04,225.57L142.48,224.68L142.63,224.73L142.78,225.29L143.22,224.53L143.37,224.44L143.51,224.34L143.66,224.66L143.81,225.25L144.54,222.11L144.69,217.65L145.42,178.42L145.57,163.39L146.45,74.97L146.6,86.75L146.74,176.32L147.18,56.18L147.63,69.39L147.77,75.78L148.65,70.72L148.8,71.32L149.39,64.01L149.53,68.29L149.68,72.16L150.42,96.69L150.56,178.07L150.71,77.82L151.15,126.16L151.3,197.51L153.21,197.51L153.35,203.97L153.5,237.62L154.09,224.51L154.24,224.85L154.38,224.67L154.53,225.24L154.68,227.32L154.97,227.34L155.56,224.8L155.7,225.79L156.59,224.75L156.73,224.77L157.47,224.75L157.61,224.7L157.91,224.51L158.05,221.77L158.2,210.94L158.35,224.1L158.79,218.87L158.94,221.37L159.38,203.46L159.52,178.91L160.85,76.75L161.14,78.33L161.29,76.78L161.58,62.31L161.73,84.98L162.61,197.51L162.75,197.51L164.08,197.51L164.22,180.21L164.66,88.31L164.96,110.29L165.11,120.52L166.43,245.48L166.87,239.38L167.01,231.2L167.16,235.48L167.31,202.96L167.46,226.11L167.6,197.51L167.9,197.51L168.04,197.51L169.95,197.51L170.1,201.81L170.39,225.63L170.98,224.61L171.13,225.43L171.42,219.87L171.57,197.51L300.98,197.51L301.13,194.87L302.01,59.01L302.45,61.56L302.59,71.19L302.74,62.49L303.04,72.76L303.18,67.08L303.33,73.15L303.48,68.22L303.62,79.66L303.77,73.21L303.92,83.96L304.06,75.21L304.5,87.85L304.65,84.37L304.8,84.12L305.09,84.67L305.24,87.59L305.53,81.17L305.83,92.08L305.97,112L307.15,218.47L307.3,232.25L307.59,244.96L308.03,239.21L308.18,238.97L309.06,232.12L309.21,236.44L310.23,231.24L310.38,231.61L311.56,225.78L311.7,226.33L311.85,226.53L312.14,227.03L312.29,225.8L312.44,227.1L313.32,224.38L313.46,225.06L313.61,224.58L315.08,140.97L315.23,110.57L315.82,73.35L316.26,81.12L316.4,86.75L316.55,81.63L316.99,92.22L317.14,96.21L318.02,78.82L318.17,90.27L318.31,86.68L318.61,89.12L318.75,97.8L319.34,269.04L319.78,258.52L319.93,254.65L320.22,252.99L320.52,258.99L320.66,250.01L320.81,255.41L321.25,244.78L321.4,243.25L321.54,242.92L321.69,238.42L322.28,249.04L322.43,232.87L322.87,233.63L323.31,227.79L323.45,228.72L324.48,224.88L324.63,226.61L324.78,224.99L325.07,229.05L325.22,225.11L325.36,226.94L325.95,224.64L326.1,226.84L326.24,225.84L326.39,227.39L326.69,225.39L326.83,226.26L326.98,224.73L327.57,226.26L327.86,226.06L328.01,224.68L328.15,224.59L328.3,225.44L329.33,252.37L329.48,212.96L330.21,76.13L330.36,84.08L330.5,93.18L330.65,90.05L330.94,91.77L331.09,100.34L331.68,77.94L331.83,85.1L331.97,96.98L332.41,278.35L332.71,106.61L332.85,102.51L333.15,101.79L333.3,124.68L333.44,190.52L333.59,304L334.32,289.01L334.47,271.78L334.62,275.76L334.91,265.79L335.06,260.42L337.11,231.29L337.26,236.23L337.41,227.6L338.14,228.36L338.29,231.4L339.17,226.59L339.46,226.87L339.61,225.77L339.91,228.13L340.2,225.54L340.35,226.31L340.49,226.2L340.79,227.38L340.93,225.05L341.23,226.32L341.37,228.17L341.67,225.24L342.11,225.75L342.26,226.8L342.4,226.47L342.55,235.89L343.58,264.27L343.72,258.32L343.87,229.94L344.17,84.37L344.61,179.95L344.75,189.03L344.9,184.16L345.34,191.67L345.49,186.85L345.63,187.92L346.37,176.47L346.52,183.8L347.1,177.78L347.25,186.94L347.84,202.65L347.98,192.26L348.13,203.19L348.42,189.03L348.57,180.55L348.87,179.43L350.19,247.03L350.48,241.7L350.63,239.18L351.36,227.15L351.51,231L351.66,232.81L352.39,225.45L352.54,229.11L352.98,226.78L353.13,225.05L353.42,228.57L353.71,227.6L353.86,224.65L354.45,229.2L354.74,226.82L354.89,224.82L355.48,229.51L355.62,224.55L355.77,225.74L355.92,223.46L356.06,218.51L356.65,194.47L356.8,183.32L357.39,147.42L357.83,153.63L357.97,150.24L358.56,179.94L358.85,174.68L359,166.21L359.59,95.37L359.88,102.22L360.03,117.1L360.18,98.43L360.62,128.73L360.76,251.8L360.91,295.73L361.5,288.65L361.65,277.38L361.79,279.86L361.94,279.44L362.09,269.79L362.67,256.69L362.82,263.08L363.11,265.39L363.26,258.82L364.29,234.77L364.58,236.2L364.73,235.35L365.46,228.99L365.61,231.2L366.05,226.27L366.49,226.55L366.64,226.51L366.79,226.03L366.93,231.16L367.81,225.47L367.96,227.34L368.26,225.86L368.55,225.92L368.7,229.48L369.58,225.01L369.72,225.68L370.02,225.13L370.16,226.7L370.31,224.7L370.61,224.89L370.75,228.88L371.19,243.64L371.63,243.15L371.78,240.62L373.25,272.82L373.54,268.9L373.69,262.87L373.84,249.01L374.28,259.85L374.42,276.5L374.87,261.2L375.16,264.76L375.31,276.41L376.33,262.95L376.48,261.55L379.13,232.77L379.27,239.29L379.57,231.16L380.15,231.5L380.3,231.47L380.74,235.25L380.89,228.41L381.18,225.75L381.62,227.39L381.77,226.82L382.36,225.16L382.5,226.62L382.65,225.68L382.94,226.45L383.09,225.02L383.24,226.72L383.38,224.78L383.83,226.76L383.97,227.48L384.56,225.28L384.71,226.73L384.85,228.33L385.15,230.16L385.29,227.65L385.44,229.11L385.59,227.2L386.18,232.97L386.32,228.46L386.91,238.71L387.2,238.65L387.35,233.84L387.94,240.67L388.09,240.49L388.23,236.21L388.38,236.07L388.53,242.91L388.67,237.25L388.97,244.54L389.11,240.6L389.26,245.84L389.7,246.46L390.29,233.9L390.44,235.61L390.58,239.26L391.17,240.09L391.32,228.61L391.46,233.04L391.61,230.36L392.05,228.76L392.2,235.09L392.35,228.82L392.93,233.33L393.08,225.96L393.23,230.23L393.81,225.63L393.96,228.66L394.84,224.91L394.99,226.12L395.28,224.97L395.58,225.16L395.72,228.55L396.61,224.04L396.75,224.64L397.19,226.83L397.49,224.65L397.63,225.92L398.51,224.38L398.66,226.11L398.81,226.14L398.96,230.74L399.1,228.21L399.54,228.25L399.69,232.26L399.98,228.4L400.28,231.15L400.42,236.59L400.57,231.64L400.86,244.11L401.01,237.03L401.16,241.18L401.45,237.25L402.04,252.84L402.19,251.07L402.33,254.79L402.63,250.21L402.77,253.6L402.92,259.75L403.07,261.86L403.22,256.09L403.36,254.4L403.51,250.32L403.66,257.9L403.8,250.68L403.95,264.34L404.1,266.18L404.24,259.1L404.39,259.81L405.27,249.09L405.42,255.15L406.01,241.76L406.3,243.61L406.45,241.4L406.59,243L406.74,237.83L406.89,238.08L407.03,238.48L407.33,231.26L407.92,231.91L408.06,232.36L408.36,234.39L408.65,231.81L408.8,226.57L408.94,225.99L409.09,227.25L409.24,228.07L409.53,225.21L409.97,225.56L410.12,226.87L410.71,224.98L411,225.04L411.15,226.54L411.73,225.21L412.03,225.36L412.18,225.34L412.76,224.81L413.35,229.68L413.5,228.15L414.09,231.75L414.23,228.15L414.38,228.83L414.53,228.17L414.67,229.18L414.82,231.2L414.97,229.8L415.11,233.33L415.41,230.14L415.55,231.9L415.85,234.1L415.99,241.87L416.29,240.87L417.9,264.72L418.05,261.94L418.2,267.53L418.34,258.04L418.64,262.39L418.79,255.93L419.08,254.41L419.23,262.12L419.37,255.94L419.52,255.02L419.67,254.64L419.81,249.57L420.11,245.51L420.25,251.74L421.28,237.58L421.43,235.68L421.58,235.14L421.72,236.51L421.87,232.47L422.6,234.98L422.75,231.14L423.05,230.69L423.34,233.96L423.63,232.85L423.78,230.67L423.93,231.95L424.07,226.83L424.22,225.51L424.51,224.91L424.66,226.55L424.81,224.72L424.95,225.66L425.4,224.8L425.54,224.5L425.98,224.35L426.13,225.77L426.28,224.27L426.57,224.11L427.16,230.07L427.31,237.08L427.45,243L427.75,231.01L427.89,171.58L428.77,84.55L428.92,85.54L429.07,87.16L429.51,89.36L430.1,73.29L430.24,79.81L430.39,86.11L430.54,83.38L430.68,88.68L430.83,98.74L430.98,86.03L431.27,108.84L431.42,119.3L431.86,86.45L432.45,91.26L432.59,96.16L433.62,179.2L433.77,196.2L434.65,256.57L434.94,243.16L435.09,246.41L435.82,234.19L435.97,239.12L436.12,232.54L436.27,232.69L436.41,238.68L436.71,231.42L437,233.04" style="vector-effect: non-scaling-stroke; fill: none; stroke: rgb(0, 128, 0); stroke-opacity: 1; stroke-width: 2px; opacity: 1;"/></g><g class="points"/><g class="text"/></g></g></g><g class="overplot"/><path class="xlines-above crisp" d="M0,0" style="fill: none;"/><path class="ylines-above crisp" d="M0,0" style="fill: none;"/><g class="overlines-above"/><g class="xaxislayer-above"><g class="xtick"><text text-anchor="middle" x="0" y="433" transform="translate(80,0)" style="font-family: 'Open Sans', verdana, arial, sans-serif; font-size: 12px; fill: rgb(42, 63, 95); fill-opacity: 1; white-space: pre; opacity: 1;"><tspan class="line" dy="0em" x="0" y="433">May 1</tspan><tspan class="line" dy="1.3em" x="0" y="433">2022</tspan></text></g><g class="xtick"><text text-anchor="middle" x="0" y="433" style="font-family: 'Open Sans', verdana, arial, sans-serif; font-size: 12px; fill: rgb(42, 63, 95); fill-opacity: 1; white-space: pre; opacity: 1;" transform="translate(178.70999999999998,0)">May 8</text></g><g class="xtick"><text text-anchor="middle" x="0" y="433" style="font-family: 'Open Sans', verdana, arial, sans-serif; font-size: 12px; fill: rgb(42, 63, 95); fill-opacity: 1; white-space: pre; opacity: 1;" transform="translate(277.41999999999996,0)">May 15</text></g><g class="xtick"><text text-anchor="middle" x="0" y="433" style="font-family: 'Open Sans', verdana, arial, sans-serif; font-size: 12px; fill: rgb(42, 63, 95); fill-opacity: 1; white-space: pre; opacity: 1;" transform="translate(376.13,0)">May 22</text></g><g class="xtick"><text text-anchor="middle" x="0" y="433" style="font-family: 'Open Sans', verdana, arial, sans-serif; font-size: 12px; fill: rgb(42, 63, 95); fill-opacity: 1; white-space: pre; opacity: 1;" transform="translate(474.84,0)">May 29</text></g></g><g class="yaxislayer-above"><g class="ytick"><text text-anchor="end" x="79" y="4.199999999999999" transform="translate(0,411.45)" style="font-family: 'Open Sans', verdana, arial, sans-serif; font-size: 12px; fill: rgb(42, 63, 95); fill-opacity: 1; white-space: pre; opacity: 1;">−60</text></g><g class="ytick"><text text-anchor="end" x="79" y="4.199999999999999" style="font-family: 'Open Sans', verdana, arial, sans-serif; font-size: 12px; fill: rgb(42, 63, 95); fill-opacity: 1; white-space: pre; opacity: 1;" transform="translate(0,373.47)">−40</text></g><g class="ytick"><text text-anchor="end" x="79" y="4.199999999999999" style="font-family: 'Open Sans', verdana, arial, sans-serif; font-size: 12px; fill: rgb(42, 63, 95); fill-opacity: 1; white-space: pre; opacity: 1;" transform="translate(0,335.49)">−20</text></g><g class="ytick"><text text-anchor="end" x="79" y="4.199999999999999" style="font-family: 'Open Sans', verdana, arial, sans-serif; font-size: 12px; fill: rgb(42, 63, 95); fill-opacity: 1; white-space: pre; opacity: 1;" transform="translate(0,297.51)">0</text></g><g class="ytick"><text text-anchor="end" x="79" y="4.199999999999999" style="font-family: 'Open Sans', verdana, arial, sans-serif; font-size: 12px; fill: rgb(42, 63, 95); fill-opacity: 1; white-space: pre; opacity: 1;" transform="translate(0,259.53)">20</text></g><g class="ytick"><text text-anchor="end" x="79" y="4.199999999999999" style="font-family: 'Open Sans', verdana, arial, sans-serif; font-size: 12px; fill: rgb(42, 63, 95); fill-opacity: 1; white-space: pre; opacity: 1;" transform="translate(0,221.56)">40</text></g><g class="ytick"><text text-anchor="end" x="79" y="4.199999999999999" style="font-family: 'Open Sans', verdana, arial, sans-serif; font-size: 12px; fill: rgb(42, 63, 95); fill-opacity: 1; white-space: pre; opacity: 1;" transform="translate(0,183.57999999999998)">60</text></g><g class="ytick"><text text-anchor="end" x="79" y="4.199999999999999" style="font-family: 'Open Sans', verdana, arial, sans-serif; font-size: 12px; fill: rgb(42, 63, 95); fill-opacity: 1; white-space: pre; opacity: 1;" transform="translate(0,145.6)">80</text></g><g class="ytick"><text text-anchor="end" x="79" y="4.199999999999999" style="font-family: 'Open Sans', verdana, arial, sans-serif; font-size: 12px; fill: rgb(42, 63, 95); fill-opacity: 1; white-space: pre; opacity: 1;" transform="translate(0,107.62)">100</text></g></g><g class="overaxes-above"/></g></g><g class="polarlayer"/><g class="smithlayer"/><g class="ternarylayer"/><g class="geolayer"/><g class="funnelarealayer"/><g class="pielayer"/><g class="iciclelayer"/><g class="treemaplayer"/><g class="sunburstlayer"/><g class="glimages"/><defs id="topdefs-6efc82"><g class="clips"/><clipPath id="legend6efc82"><rect width="162" height="67" x="0" y="0"/></clipPath></defs><g class="layer-above"><g class="imagelayer"/><g class="shapelayer"/></g><g class="infolayer"><g class="legend" pointer-events="all" transform="translate(525.74,100)"><rect class="bg" shape-rendering="crispEdges" width="162" height="67" x="0" y="0" style="stroke: rgb(68, 68, 68); stroke-opacity: 1; fill: rgb(255, 255, 255); fill-opacity: 1; stroke-width: 0px;"/><g class="scrollbox" transform="" clip-path="url(#legend6efc82)"><g class="groups"><g class="traces" transform="translate(0,14.5)" style="opacity: 1;"><text class="legendtext" text-anchor="start" x="40" y="4.680000000000001" style="font-family: 'Open Sans', verdana, arial, sans-serif; font-size: 12px; fill: rgb(42, 63, 95); fill-opacity: 1; white-space: pre;">BESS</text><g class="layers" style="opacity: 0.5;"><g class="legendfill"/><g class="legendlines"><path class="js-line" d="M5,0h30" style="fill: none; stroke: rgb(0, 191, 255); stroke-opacity: 1; stroke-width: 2px;"/></g><g class="legendsymbols"><g class="legendpoints"/></g></g><rect class="legendtoggle" x="0" y="-9.5" width="156.71875" height="19" style="fill: rgb(0, 0, 0); fill-opacity: 0;"/></g><g class="traces" transform="translate(0,33.5)" style="opacity: 1;"><text class="legendtext" text-anchor="start" x="40" y="4.680000000000001" style="font-family: 'Open Sans', verdana, arial, sans-serif; font-size: 12px; fill: rgb(42, 63, 95); fill-opacity: 1; white-space: pre;">Solar</text><g class="layers" style="opacity: 0.5;"><g class="legendfill"/><g class="legendlines"><path class="js-line" d="M5,0h30" style="fill: none; stroke: rgb(255, 0, 0); stroke-opacity: 1; stroke-width: 2px;"/></g><g class="legendsymbols"><g class="legendpoints"/></g></g><rect class="legendtoggle" x="0" y="-9.5" width="156.71875" height="19" style="fill: rgb(0, 0, 0); fill-opacity: 0;"/></g><g class="traces" transform="translate(0,52.5)" style="opacity: 1;"><text class="legendtext" text-anchor="start" x="40" y="4.680000000000001" style="font-family: 'Open Sans', verdana, arial, sans-serif; font-size: 12px; fill: rgb(42, 63, 95); fill-opacity: 1; white-space: pre;">Grid Meter (Net Load)</text><g class="layers" style="opacity: 0.5;"><g class="legendfill"/><g class="legendlines"><path class="js-line" d="M5,0h30" style="fill: none; stroke: rgb(0, 128, 0); stroke-opacity: 1; stroke-width: 2px;"/></g><g class="legendsymbols"><g class="legendpoints"/></g></g><rect class="legendtoggle" x="0" y="-9.5" width="156.71875" height="19" style="fill: rgb(0, 0, 0); fill-opacity: 0;"/></g></g></g><rect class="scrollbar" rx="20" ry="3" width="0" height="0" x="0" y="0" style="fill: rgb(128, 139, 164); fill-opacity: 1;"/></g><g class="g-gtitle"><text class="gtitle" x="298.5" y="50" text-anchor="middle" dy="0em" style="font-family: 'Open Sans', verdana, arial, sans-serif; font-size: 17px; fill: rgb(42, 63, 95); opacity: 1; font-weight: normal; white-space: pre;"><tspan class="line" dy="0em" x="298.5" y="50">Scenario 1</tspan><tspan class="line" dy="1.3em" x="298.5" y="50">Microgrid Output</tspan><tspan class="line" dy="2.6em" x="298.5" y="50">From: May 01, 2022 to May 31, 2022</tspan></text></g><g class="g-xtitle"><text class="xtitle" x="298.5" y="476.409375" text-anchor="middle" style="font-family: 'Open Sans', verdana, arial, sans-serif; font-size: 14px; fill: rgb(42, 63, 95); opacity: 1; font-weight: normal; white-space: pre;">Time</text></g><g class="g-ytitle"><text class="ytitle" transform="rotate(-90,33.840625,260)" x="33.840625" y="260" text-anchor="middle" style="font-family: 'Open Sans', verdana, arial, sans-serif; font-size: 14px; fill: rgb(42, 63, 95); opacity: 1; font-weight: normal; white-space: pre;">Demand (kW)</text></g></g></svg>