<svg class="main-svg" xmlns="http://www.w3.org/2000/svg" xmlns:xlink="http://www.w3.org/1999/xlink" width="700" height="500" style="" viewBox="0 0 700 500"><rect x="0" y="0" width="700" height="500" style="fill: rgb(255, 255, 255); fill-opacity: 1;"/><defs id="defs-028f3e"><g class="clips"><clipPath id="clip028f3exyplot" class="plotclip"><rect width="496" height="320"/></clipPath><clipPath class="axesclip" id="clip028f3ex"><rect x="80" y="0" width="496" height="500"/></clipPath><clipPath class="axesclip" id="clip028f3ey"><rect x="0" y="100" width="700" height="320"/></clipPath><clipPath class="axesclip" id="clip028f3exy"><rect x="80" y="100" width="496" height="320"/></clipPath></g><g class="gradients"/><g class="patterns"/></defs><g class="bglayer"/><g class="layer-below"><g class="imagelayer"/><g class="shapelayer"/></g><g class="cartesianlayer"><g class="subplot xy"><g class="layer-subplot"><g class="shapelayer"/><g class="imagelayer"/></g><g class="minor-gridlayer"><g class="x"/><g class="y"/></g><g class="gridlayer"><g class="x"><path class="xgrid crisp" transform="translate(162.9,0)" d="M0,100v320" style="stroke: rgb(255, 255, 255); stroke-opacity: 1; stroke-width: 1px;"/><path class="xgrid crisp" transform="translate(245.79,0)" d="M0,100v320" style="stroke: rgb(255, 255, 255); stroke-opacity: 1; stroke-width: 1px;"/><path class="xgrid crisp" transform="translate(330.05,0)" d="M0,100v320" style="stroke: rgb(255, 255, 255); stroke-opacity: 1; stroke-width: 1px;"/><path class="xgrid crisp" transform="translate(412.94,0)" d="M0,100v320" style="stroke: rgb(255, 255, 255); stroke-opacity: 1; stroke-width: 1px;"/><path class="xgrid crisp" transform="translate(495.84,0)" d="M0,100v320" style="stroke: rgb(255, 255, 255); stroke-opacity: 1; stroke-width: 1px;"/></g><g class="y"><path class="ygrid crisp" transform="translate(0,363.51)" d="M80,0h496" style="stroke: rgb(255, 255, 255); stroke-opacity: 1; stroke-width: 1px;"/><path class="ygrid crisp" transform="translate(0,300.26)" d="M80,0h496" style="stroke: rgb(255, 255, 255); stroke-opacity: 1; stroke-width: 1px;"/><path class="ygrid crisp" transform="translate(0,173.75)" d="M80,0h496" style="stroke: rgb(255, 255, 255); stroke-opacity: 1; stroke-width: 1px;"/><path class="ygrid crisp" transform="translate(0,110.5)" d="M80,0h496" style="stroke: rgb(255, 255, 255); stroke-opacity: 1; stroke-width: 1px;"/></g></g><g class="zerolinelayer"><path class="yzl zl crisp" transform="translate(0,237)" d="M80,0h496" style="stroke: rgb(255, 255, 255); stroke-opacity: 1; stroke-width: 2px;"/></g><path class="xlines-below"/><path class="ylines-below"/><g class="overlines-below"/><g class="xaxislayer-below"/><g class="yaxislayer-below"/><g class="overaxes-below"/><g class="plot" transform="translate(80,100)" clip-path="url(#clip028f3exyplot)"><g class="scatterlayer mlayer"><g class="trace scatter trace8d30ab" style="stroke-miterlimit: 2; opacity: 0.5;"><g class="fills"/><g class="errorbars"/><g class="lines"><path class="js-line" d="M0,137L496,137" style="vector-effect: non-scaling-stroke; fill: none; stroke: rgb(0, 191, 255); stroke-opacity: 1; stroke-width: 2px; opacity: 1;"/></g><g class="points"/><g class="text"/></g><g class="trace scatter trace234dbe" style="stroke-miterlimit: 2; opacity: 0.5;"><g class="fills"/><g class="errorbars"/><g class="lines"><path class="js-line" d="M0,137.15L0.35,136.6L0.37,135.01L0.59,16.39L0.95,109.39L0.96,120.53L1.05,137.16L1.73,134.68L1.74,132.18L2.02,16.5L2.29,100.7L2.31,112.8L2.41,137.16L3.07,135.12L3.09,132.32L3.47,16.43L3.68,123.5L3.69,134.73L3.75,137.16L4.43,136.48L4.44,132.86L4.66,28.94L5.1,137.15L5.14,137.15L5.15,137.15L5.78,137.04L5.79,135.99L6.09,20.03L6.45,137.15L6.48,137.15L6.5,137.15L7.13,136.87L7.15,135.65L7.38,16.29L7.76,118.21L7.77,127.82L7.83,137.16L8.52,132.99L8.54,129.17L8.72,16.33L9.19,137.16L9.26,137.15L9.27,137.15L9.85,136.86L9.87,136.04L10.08,16.31L10.45,93.43L10.46,105.26L10.56,137.16L11.24,132.86L11.25,129.39L11.47,16.32L11.82,106.85L11.83,117.99L11.92,137.16L12.58,135.61L12.6,128.86L12.83,16.17L13.26,137.16L13.33,137.15L13.35,137.15L13.93,136.67L13.94,135.37L14.21,16.25L14.5,65.45L14.51,77.21L15.02,137.16L15.3,135.06L15.32,132.49L15.51,16.31L15.95,136.67L15.97,137.11L16.68,137.14L16.69,137.03L16.7,136.31L16.86,42.7L16.87,34.24L16.89,33.73L16.9,37.33L16.92,17.65L17,16.33L17.26,57.78L17.27,69.11L17.41,137.16L18.06,136.45L18.08,133.78L18.29,16.18L18.7,124.82L18.71,132.41L18.78,137.16L19.45,130.55L19.46,126.25L19.66,16.32L20.04,124.97L20.06,129.66L20.13,137.16L20.79,132.84L20.81,129.4L21.02,16.18L21.47,137.16L21.49,137.16L22.13,137.05L22.14,136.32L22.44,16.29L22.73,95.89L22.75,117.89L22.85,137.16L23.51,132.9L23.53,129.76L23.72,16.34L24.19,137.16L24.21,137.16L24.84,136.83L24.86,135.02L25.08,16.13L25.52,136.16L25.54,137.1L26.19,137.13L26.2,136.91L26.22,134.87L26.5,16.25L26.91,137.16L26.95,137.15L26.97,137.15L27.56,136.43L27.58,133.81L27.82,16.34L28.21,119.36L28.23,128.62L28.3,137.16L28.96,129.47L28.98,123.97L29.17,16.28L29.64,137.16L29.71,137.15L29.73,137.15L30.28,136.75L30.29,135.38L30.52,16.29L30.86,65.8L30.87,76.6L31.03,137.16L31.68,127.74L31.69,120.86L31.89,16.37L32.35,137.16L32.37,137.16L32.39,137.16L33,136.4L33.01,134.29L33.27,16.47L33.59,73.49L33.61,84.71L33.75,137.16L34.38,132.96L34.4,129.46L34.61,16.26L35.08,137.16L35.13,137.15L35.15,137.15L35.71,136.51L35.73,133.64L35.94,16.22L36.44,137.16L36.46,137.15L36.48,137.15L37.07,136.68L37.09,134.68L37.61,18.7L37.78,137.16L37.8,137.15L38.45,136.49L38.46,134.03L38.7,16.32L38.83,103.96L38.84,112.36L38.89,18.66L39.15,137.16L39.42,137.15L39.44,137.15L39.78,136.7L39.79,134.89L40,16.31L40.37,74.35L40.39,81.5L40.53,137.16L41.16,136.38L41.18,133.45L41.45,25.13L41.84,137.06L41.86,137.13L42.48,137.12L42.5,136.77L42.51,135.05L42.76,16.29L43.17,127.48L43.19,133.99L43.25,137.16L43.91,125.27L43.92,117.86L44.31,16.25L44.59,137.16L44.62,137.15L44.63,137.15L45.23,136.61L45.24,134.88L45.5,63.78L45.86,131.35L45.88,133.83L46.54,137.15L46.61,134.33L46.63,133.46L46.83,16.25L47.19,90.95L47.21,116.26L47.32,137.16L47.96,129.11L47.97,124.49L48.16,16.26L48.58,105.68L48.6,116.17L48.71,137.16L49.35,119.42L49.36,108.83L49.52,16.33L50.03,137.16L50.08,137.15L50.1,137.15L50.63,136.98L50.65,135.86L50.88,16.41L51.17,137L51.2,137L51.22,137L65.77,137L65.78,132.18L65.97,16.39L66.35,137.16L66.49,137.15L66.5,137.15L66.94,136.73L66.96,134.57L67.17,16.25L67.66,133.76L67.68,137.04L68.27,137.15L68.3,136.98L68.32,136.33L68.82,16.22L68.99,118.08L69.01,127.15L69.08,137.16L69.72,117.32L69.73,106.78L69.89,16.16L70.42,137.16L70.44,137.16L70.45,137.15L71,136.97L71.02,136.07L71.47,24.72L71.67,122.87L71.68,128.44L71.71,127.21L71.78,137.15L72.19,137.15L72.21,137.15L72.38,136.27L72.39,133.21L72.59,16.28L73.01,66.12L73.03,78.08L73.17,137.16L73.79,114.6L73.81,104.5L73.95,16.23L74.5,137.16L74.52,137.16L74.53,137.16L75.08,136.69L75.1,134.67L75.31,16.21L75.76,101.5L75.78,105.75L75.9,137.16L76.51,115.04L76.53,105.07L76.96,16.36L77.15,114.79L77.16,129.93L77.25,137.16L77.86,120.31L77.87,110.2L78.04,16.29L78.58,137.16L78.59,137.16L78.61,137.16L79.19,136.48L79.2,134.58L79.31,81.35L79.33,58.08L79.44,16.75L79.94,137.16L80.02,137.15L80.04,137.15L80.53,136.57L80.55,134.57L80.77,16.17L81.24,124.33L81.25,131.53L81.32,137.16L81.93,119.43L81.95,114.04L82.1,16.21L82.65,137.15L82.67,137.15L83.24,136.43L83.25,133.73L83.46,16.17L83.91,90.66L83.93,102.4L84.04,137.16L84.68,118.46L84.69,109.5L84.85,16.08L85.34,135.43L85.36,137.07L85.94,137.14L85.98,136.77L86,135.87L86.12,137L86.25,16.25L86.62,83.11L86.63,94.36L86.76,137.16L87.38,108.24L87.4,98.06L87.54,16.2L88.1,137.16L88.12,137.16L88.66,136.93L88.67,135.82L88.77,137L89.02,16.43L89.34,80.11L89.35,95.47L89.49,137.16L90.11,137L90.13,137L90.3,137L90.31,117.27L90.33,16.41L90.43,137L91.05,137L91.06,137L91.37,137.02L91.39,136.25L91.71,16.16L92.05,77.69L92.07,89.01L92.21,137.16L92.85,131.8L92.86,131.89L93.03,50.09L93.05,26.4L93.14,21.27L93.55,137.17L93.89,137.15L93.91,137.15L94.09,136.95L94.11,136.28L94.62,16.25L94.8,98.36L94.81,108.22L94.91,137.16L95.54,106.92L95.55,96.38L95.68,16.19L96.26,137.16L96.27,137.16L96.81,136.83L96.82,135.42L97.05,16.26L97.39,35.83L97.41,118.22L97.42,21.36L97.69,137.15L98.14,137.02L98.16,137.1L98.24,118.05L98.25,106.46L98.4,16.32L98.5,137L98.92,126.57L98.93,133.25L98.99,137.16L99.7,137L99.71,137L111.9,137L111.91,132.01L112,16.15L112.58,137.16L112.64,137.15L112.65,137.15L113.1,137.04L113.12,136.28L113.39,16.21L113.64,137L113.73,137L113.74,137L114.62,137.08L114.63,135.28L114.92,137L114.96,16.12L115.31,137L115.33,137L116.02,137.01L116.03,121.47L116.06,19.38L116.66,137.16L116.77,137.15L116.78,137.15L117.18,136.98L117.19,136.03L117.52,16.46L117.66,109.83L117.68,137L124.1,137.01L124.12,130.75L124.23,16.28L124.81,137.16L124.85,137.15L124.87,137.15L125.33,136.96L125.35,136.32L125.59,16.15L126.04,84.87L126.06,94.5L126.2,137.16L126.81,96.58L126.82,87.18L126.96,16.3L127.51,137.13L127.53,137.16L128.07,136.81L128.08,135.74L128.41,16.25L128.77,91.35L128.79,104L128.9,137.16L129.55,121.4L129.57,108.77L129.75,16.15L130.25,137.16L130.26,137.16L130.27,137.15L130.8,136.87L130.81,136.23L131.02,71.61L131.04,25.47L131.11,16.22L131.63,137.16L132.03,137.15L132.04,137.15L132.14,136.36L132.16,133.46L132.4,16.37L132.62,54.82L132.64,137L133.66,137L133.67,134.32L133.8,16.46L133.94,137L134.37,137L134.38,137L138.12,137L138.13,129.07L138.22,50.93L138.4,137.15L138.87,137.15L138.88,137.15L138.95,133.84L138.97,131.52L139.22,16.36L139.65,94.68L139.66,103.56L140.25,137.15L140.4,99.37L140.41,90.44L140.57,16.28L141.1,137.09L141.12,137.15L141.66,136.86L141.67,136.11L141.94,16.33L142.22,109.46L142.24,137L152.78,137L152.8,129.21L152.87,16.19L153.36,137.16L153.53,137.15L153.55,137.16L153.89,136.58L153.9,134.37L154.42,16.43L154.58,83.68L154.59,93.14L155.2,137.16L155.34,98.61L155.36,89.5L155.5,16.16L156.05,137.04L156.07,137.13L156.58,137.14L156.59,136.96L156.6,136.38L156.76,58.57L156.77,50.17L156.86,16.27L157.34,105.06L157.35,114.45L157.79,137.16L158.05,103.91L158.06,93.98L158.2,16.22L158.71,115.76L158.73,124.33L159.27,137.17L159.42,95.72L159.44,86.02L159.58,16.18L160.13,137.05L160.14,137.14L160.67,137.02L160.68,136.38L160.96,16.38L161.39,89.27L161.4,98.69L161.53,137.17L162.14,99.32L162.15,90.26L162.31,16.36L162.79,117.36L162.8,124.76L162.93,137.16L163.48,108.06L163.5,99.03L163.65,16.26L164.19,135.97L164.21,137.05L164.73,137.14L164.76,136.68L164.77,135.13L165.01,16.32L165.41,51.32L165.42,60.01L165.92,137.16L166.2,108.83L166.22,99.95L166.4,16.31L166.92,137.07L166.94,137.14L167.46,137.03L167.48,136.58L167.49,134.86L167.74,16.18L168.17,77.28L168.18,86.4L168.32,137.17L168.93,98.85L168.95,89.61L169.12,16.17L169.64,137.06L169.66,137.12L170.17,137.16L170.19,136.5L170.21,133.89L170.46,16.01L170.89,78.92L170.9,88.81L171.06,137.18L171.65,101.36L171.67,92.62L171.84,16L172.36,137.06L172.37,137.13L172.9,137.07L172.91,136.64L172.93,134.62L173.17,16.22L173.62,89.61L173.63,98.85L173.76,137.17L174.37,100.79L174.38,91.36L174.53,16.23L175.03,124.91L175.05,131.84L175.4,137.16L175.71,110.45L175.73,101.42L175.9,16.3L176.44,137.1L176.45,137.14L176.99,136.76L177,135.34L177.33,16.09L177.64,52.45L177.65,61.14L177.85,137.17L178.43,110.74L178.45,101.52L178.62,16.16L179.15,137.07L179.17,137.14L179.69,137.1L179.71,136.84L179.72,135.91L179.99,16.3L180.4,81.93L180.41,91.17L180.87,137.16L181.16,103.7L181.18,94.63L181.33,16.29L181.87,137.05L181.89,137.14L182.41,137.11L182.42,136.81L182.44,135.8L182.71,16.32L183.13,94.61L183.15,102.88L183.74,137.16L183.88,106.48L183.9,98.12L184.12,16.39L184.6,137.15L184.62,137.16L185.16,136.44L185.17,133.79L185.45,16.4L185.82,76.4L185.84,85.65L186.47,137.16L186.6,107.2L186.61,98.92L186.78,16.29L187.25,122.07L187.27,128.45L187.38,137.17L187.96,104.15L187.97,95.18L188.14,16.2L188.61,120.47L188.62,127.57L188.96,137.16L189.3,115.9L189.32,107.68L189.53,16.39L190.03,137.1L190.04,137.16L190.59,136.52L190.61,134.61L190.86,16.21L191.29,79.77L191.3,93.01L191.88,137.16L192.05,102.93L192.06,91.3L192.08,93.45L192.23,36.26L192.25,30.46L192.45,16.44L192.79,137.17L193.03,137.15L193.04,137.15L193.3,136.94L193.31,135.7L193.61,16.47L194.03,117.4L194.05,124.8L194.61,137.16L194.74,112.91L194.75,105.96L195.02,16.49L195.31,59.62L195.32,68.84L195.86,137.16L196.11,118.85L196.13,115.49L196.14,116.75L196.28,60.54L196.3,16.18L196.64,46.67L196.65,54.55L197.16,137.16L197.46,116.37L197.47,107.63L197.67,16.22L198.09,97.04L198.11,106.74L198.67,137.16L198.84,100.32L198.86,92.91L199.07,16.43L199.48,119.28L199.5,126.41L199.85,137.16L200.2,102.77L200.22,94.19L200.4,16.37L200.91,137.16L200.93,137.16L201.46,136.41L201.48,133.5L201.86,16.47L202.16,99.84L202.17,108.6L202.71,137.16L202.91,115.64L202.92,110.95L203.33,16.86L203.47,72.68L203.49,82.47L203.66,137.16L204.25,122.61L204.27,121.42L204.51,16.36L204.9,119.34L204.92,126.43L205,137.17L205.63,108.99L205.64,99.65L205.89,16.25L206.33,137.15L206.35,137.16L206.9,136.79L206.91,135.31L207.32,16.26L207.52,57L207.54,95.05L207.73,137.17L208.31,129.73L208.33,125.41L208.56,16.31L209.05,137.16L209.06,137.16L209.08,137.16L209.63,136.65L209.65,134.86L209.91,16.37L210.32,112.52L210.34,120.02L210.91,137.16L211.07,109.19L211.09,99.07L211.1,100.94L211.36,16.41L211.39,16.46L211.4,16.52L211.49,18.51L211.5,20.46L212.26,137.16L212.42,113.95L212.43,96.78L212.72,16.39L213.07,132.9L213.09,136.57L213.54,137.16L213.79,137L213.81,133.31L214.01,16.41L214.49,137.16L214.54,137.16L214.56,137.15L215.07,136.58L215.08,134.59L215.28,33.83L215.29,27.58L215.34,16.19L215.75,101.53L215.76,110.02L216.37,137.16L216.5,114.23L216.51,105.45L216.72,16.38L217.2,137.16L217.22,137.16L217.23,137.16L217.78,136.48L217.8,134.2L218.08,16.43L218.42,109.16L218.44,117.99L218.61,137.16L219.19,129.65L219.2,120.62L219.41,137L219.61,16.56L219.79,85.28L219.81,110.84L219.98,137.16L220.56,125.01L220.57,117.02L220.79,16.35L221.22,129.97L221.24,134.74L221.56,137.16L221.92,124.52L221.93,114.95L222.14,16.41L222.58,128.48L222.6,134.47L223.14,137.16L223.28,123.37L223.29,115.86L223.56,16.49L223.94,128.8L223.96,134.04L224.52,137.16L224.65,118.49L224.66,110.77L224.88,16.35L225.3,128.5L225.32,133.92L225.41,137.17L226.02,123.49L226.04,115.37L226.24,16.18L226.72,137.17L226.77,137.16L226.79,137.16L227.3,136.74L227.31,135.14L227.59,16.43L227.91,63.76L227.92,72.13L228.61,137.16L228.71,125.92L228.73,118.93L228.95,16.52L229.43,137.16L229.45,137.16L229.46,137.16L230.02,136.67L230.03,134.85L230.34,16.47L230.67,94.6L230.68,103.35L231.28,137.16L231.44,119.46L231.46,111.57L231.76,16.47L232.14,137.16L232.17,137.16L232.18,137.16L232.73,136.7L232.75,135.17L233.19,16.62L233.4,105.47L233.41,112.99L234.05,137.16L234.16,120.41L234.18,113.13L234.42,16.2L234.86,137.17L234.88,137.17L234.9,137.17L235.45,136.71L235.47,134.54L235.78,16.15L236.13,113.08L236.14,120.57L236.26,137.17L236.88,120.48L236.89,113.34L237.14,16.35L237.52,128.31L237.53,133.59L237.6,137.17L238.23,127.63L238.24,121.91L238.48,16.48L238.93,137.16L238.96,137.16L238.98,137.16L239.53,136.91L239.54,136.22L239.83,16.32L240.15,82.86L240.16,92.98L240.32,137.17L240.96,121.76L240.97,114.35L241.21,16.44L241.59,130.64L241.61,135.15L241.69,137.16L242.3,127.52L242.32,122.57L242.57,16.54L243.01,137.16L243.05,137.16L243.07,137.16L243.62,136.44L243.63,134.08L243.86,28.42L243.87,23.98L243.93,16.27L244.24,90.71L244.26,99.62L244.94,137.16L245.03,124.85L245.05,121.53L245.29,16.24L245.71,137.13L245.73,137.16L246.32,136.9L246.34,136.08L246.65,16.39L246.99,111.39L247,119.07L247.13,137.16L247.75,124.72L247.77,117.07L248.06,16.6L248.43,137.16L248.49,137.16L248.5,137.15L249.05,136.67L249.07,135.13L249.39,16.55L249.71,108.99L249.72,117.2L249.88,137.16L250.48,129.83L250.5,123.84L250.78,16.92L251.15,137.16L251.23,137.15L251.25,137.15L251.77,136.52L251.79,134.45L252.14,17L252.41,100.81L252.42,113.25L253.09,137.16L253.19,126.27L253.2,119.6L253.5,17.05L253.83,134.5L253.84,136.98L254.45,137.16L254.49,136.69L254.5,134.58L254.86,16.49L255.07,70.98L255.08,95.26L255.25,137.17L255.86,134.86L255.88,132.74L256.23,17.34L256.51,123.41L256.53,130.02L257.11,137.16L257.26,125.49L257.28,118.43L257.58,17.9L257.96,137.16L258,137.16L258.02,137.16L258.57,136.78L258.58,135.34L258.91,22.57L259.15,82.02L259.16,108.75L259.9,137.15L259.97,136.17L259.98,134.12L260.24,17.69L260.46,54.55L260.48,83.2L260.97,137.16L261.26,137.15L261.27,137.14L261.33,127.86L261.34,123.79L261.6,75.03L261.87,128.58L261.88,131.53L261.89,131.04L262.01,137.16L262.5,137.16L262.52,137.16L262.67,130.54L262.69,123.17L263.05,56.05L263.37,137.16L263.42,137.15L263.44,137.16L264,136.85L264.02,135.26L264.24,16.11L264.6,89.05L264.61,123.09L265.33,137.16L265.38,135.61L265.39,133.14L265.81,16.34L266.03,113.92L266.04,127.16L266.13,137.17L266.79,127.72L266.81,123.05L266.99,16.79L267.44,137.16L267.54,137.15L267.56,137.15L268.08,136.68L268.09,133.84L268.39,16.34L268.67,65.94L268.69,77.17L268.83,137.17L269.48,127.57L269.5,122.85L269.68,16.28L270.16,137.17L270.17,137.17L270.19,137.17L270.8,136.65L270.81,134.13L271.04,16.23L271.41,81.54L271.42,92.64L272.06,137.16L272.2,133.46L272.21,131.33L272.41,64.32L272.43,53.76L272.5,16.11L272.88,137.16L273.05,137.15L273.06,137.15L273.52,137.14L273.53,136.79L273.54,135.12L273.7,41.59L273.71,25.92L273.76,16.2L274.17,117.6L274.18,127.23L274.27,137.17L274.92,129.78L274.93,127.09L275.13,16.19L275.47,73.82L275.48,85.06L275.61,137.17L276.28,125.45L276.29,119.2L276.47,16.22L276.96,137.16L277.01,137.15L277.03,137.15L277.59,136.86L277.61,135.76L277.83,16.36L278.23,107.75L278.24,118.52L278.7,137.16L278.99,130.67L279.01,125.63L279.19,16.3L279.66,137.16L279.74,137.16L279.76,137.16L280.32,136.46L280.34,134.03L280.58,16.48L280.95,112.85L280.96,121.89L281.07,137.17L281.71,131.51L281.73,127.26L281.94,16.27L282.38,137.16L282.45,137.16L282.46,137.15L283.04,136.59L283.06,134.24L283.3,16.19L283.64,114.34L283.65,127.95L283.67,117.76L283.74,137.17L284.37,137.15L284.39,137.01L284.49,100.68L284.5,90.5L284.66,16.39L285.09,137.16L285.19,137.15L285.21,137.15L285.76,136.56L285.77,134.55L286.02,16.41L286.33,75.24L286.34,85.97L287.01,137.16L287.12,136.67L287.13,134.29L287.39,16.41L287.67,69.16L287.69,79.47L288.36,137.16L288.49,134.22L288.51,131.66L288.75,16.37L289.16,137.12L289.17,137.16L289.84,136.44L289.85,132.63L290.12,16.28L290.42,88.38L290.43,98.82L291.17,137.16L291.22,135.33L291.24,132.85L291.41,33.72L291.42,20.25L291.49,16.13L291.76,78.99L291.78,89.81L291.92,137.17L292.57,136.61L292.58,134.4L292.77,31.37L292.78,25.49L292.82,16.15L293.15,102.92L293.16,112.74L293.28,137.17L293.94,131.2L293.96,127.39L294.21,16.38L294.61,137.17L294.65,137.16L294.66,137.16L295.27,136.73L295.29,134.85L295.56,16.42L295.88,114.59L295.9,124.03L296.58,137.16L296.66,131.84L296.67,127.05L296.97,16.44L297.25,125.11L297.27,132.33L297.67,137.16L298.02,136.7L298.03,134.07L298.17,87.41L298.19,35L298.29,16.33L298.57,100.05L298.59,110.7L298.67,137.17L299.36,134.36L299.38,130.57L299.7,16.72L300.03,137.16L300.09,137.15L300.1,137.15L300.69,137.13L300.71,136.76L300.72,135.05L301.05,16.32L301.26,86.78L301.27,92.05L301.39,137.17L302.08,135.29L302.1,132.58L302.42,16.47L302.75,137.17L302.79,137.17L302.8,137.16L303.43,136.99L303.44,136.24L303.78,17.11L304.08,137.03L304.09,137.13L304.79,137.12L304.81,136.77L304.83,135.78L305.13,22.6L305.38,122.31L305.39,131.51L306.07,137.16L306.16,136.77L306.17,134.97L306.54,18.07L306.67,70.66L306.68,88.13L307.02,137.16L307.53,136.46L307.55,133.35L307.84,19.1L308.08,108.33L308.1,116.79L308.81,137.16L308.86,137.14L308.88,137.01L309.05,120.04L309.06,118.23L309.22,20.97L309.44,110.58L309.46,118.77L309.54,137.17L310.22,137.14L310.24,136.95L310.58,76.71L310.76,119.91L310.77,128.27L311.41,137.17L311.57,137.16L311.58,137.11L311.72,112.28L311.74,103.63L311.78,109L311.89,57.09L311.91,47.44L312.6,137.17L312.8,137.16L312.81,137.16L312.95,136.18L312.97,132.96L313.24,16.36L313.6,137.16L313.62,137.16L314.31,136.55L314.33,134.29L314.6,16.47L314.92,131.63L314.94,136.54L315.63,137.16L315.67,136.66L315.69,134.82L315.97,16.37L316.25,116.23L316.27,127.3L316.95,137.16L317.03,136.3L317.04,132.84L317.38,16.65L317.55,75.13L317.57,85.25L318.26,137.16L318.36,137.15L318.37,137.09L318.43,128.51L318.45,122.29L318.76,16.53L319.04,137.16L319.18,137.15L319.2,137.15L319.78,136.76L319.79,133.95L320.17,17.4L320.4,137.17L320.53,137.16L320.54,137.16L321.09,137.09L321.11,135.82L321.38,16.28L321.76,137.16L321.8,137.16L321.81,137.16L322.47,136.86L322.48,135.41L322.76,16.18L323.02,94.05L323.03,105.03L323.8,137.16L323.82,136.78L323.84,135.51L324.12,16.32L324.39,108.76L324.41,118.89L324.49,137.17L325.17,137.11L325.18,136.83L325.34,60.99L325.35,48.28L325.54,16.25L325.83,137.17L326,137.16L326.02,137.16L326.54,136.8L326.56,134.73L326.9,17.57L327.19,137.16L327.22,137.16L327.24,137.15L327.89,137.13L327.9,136.9L327.92,135.85L328.24,16.74L328.45,119.32L328.47,124.3L328.57,137.17L329.25,137.15L329.26,136.89L329.42,61.09L329.43,53.11L329.6,16.75L329.91,137.17L330.04,137.16L330.05,137.16L330.62,136.88L330.63,134.81L330.99,18.76L331.19,112.13L331.2,121.95L331.3,137.17L331.96,137.14L331.98,136.91L332.09,87.92L332.11,78.51L332.28,21.63L332.62,137.17L332.77,137.16L332.79,137.16L333.34,136.88L333.35,135.41L333.65,25.93L333.86,89.23L333.88,98.46L334.65,137.16L334.67,137.15L334.68,137.15L334.74,127.51L334.75,122.42L334.84,108.26L334.85,100.66L335.09,16.26L335.33,137.17L335.52,137.16L335.53,137.16L336.06,136.97L336.07,135.9L336.38,16.32L336.69,137.17L336.72,137.16L336.73,137.16L337.43,136.85L337.44,134.73L337.77,18.92L337.92,76.7L337.94,109.58L337.95,98.91L338.05,137.16L338.66,137.16L338.67,137.16L338.8,135.15L338.82,132.99L339.13,16.55L339.41,137.16L339.44,137.16L339.45,137.15L340.08,137.06L340.09,136.62L340.1,134.8L340.25,59.93L340.26,52.43L340.42,22.27L340.71,137.17L340.85,137.16L340.87,137.16L341.43,137.07L341.45,136.12L341.62,63.42L342.07,137.16L342.09,137.16L342.1,137.16L342.84,136.86L342.85,135.57L343.08,28.02L343.4,137.14L343.42,137.16L344.17,136.79L344.18,134.47L344.45,16.34L344.7,107.57L344.72,117.68L345.43,137.16L345.48,137.15L345.5,137.15L345.57,132.34L345.58,125.59L345.85,16.47L346.15,137.16L346.3,137.16L346.32,137.16L346.88,136.66L346.9,134.73L347.27,21.51L347.42,99.63L347.44,112.5L347.51,137.17L348.21,137.16L348.23,137.13L348.31,114.49L348.33,104.22L348.57,18.75L348.87,137.16L349.04,137.16L349.05,137.16L349.6,136.8L349.62,134.77L349.96,16.34L350.15,118.34L350.17,128.55L350.78,137.17L350.93,137.16L350.95,137.11L351.02,128.08L351.03,114.48L351.29,20.61L351.57,137.16L351.68,137.15L351.7,137.15L352.31,137.14L352.32,136.88L352.33,136.17L352.66,20.54L352.82,80.24L352.83,90.28L353.62,137.16L353.64,137.16L353.72,132.36L353.74,129.43L353.99,16.27L354.3,137.16L354.47,137.16L354.49,137.16L355.04,136.93L355.05,136.1L355.35,20.34L355.53,83.24L355.55,105.04L355.66,137.17L356.33,137.16L356.34,137.16L356.41,136.5L356.43,134.01L356.74,19.88L356.89,81.85L356.91,94.82L357.02,137.17L357.71,137.16L357.73,137.16L357.78,133.84L357.8,132.39L358.08,20.17L358.34,135.96L358.35,137.06L359.1,137.16L359.11,137.04L359.13,136.68L359.47,23.45L359.68,130.37L359.7,136.69L360.35,137.17L360.46,137.15L360.47,137.02L360.53,130.46L360.54,119.8L360.83,16.43L361.08,137.16L361.22,137.16L361.24,137.16L361.83,137.05L361.85,136.24L362.19,25.85L362.46,137.17L362.48,137.16L362.5,137.16L363.19,136.91L363.21,135.69L363.55,27.97L363.81,137.17L363.89,137.16L363.9,137.16L364.56,136.62L364.58,134.58L364.86,30.3L365.07,103.32L365.09,112.89L365.51,137.18L365.85,137.17L365.87,137.17L365.97,131.93L365.98,123.25L366.22,24.75L366.69,137.17L366.7,137.17L366.72,137.17L367.27,137.1L367.28,136.87L367.3,135.5L367.61,30.3L367.81,115.41L367.82,124.28L368.56,137.18L368.58,137.17L368.6,137.01L368.61,137.17L368.68,131.43L368.7,123.93L368.91,34.8L369.24,137.18L369.43,137.01L369.45,137.17L370,136.84L370.01,134.19L370.3,26.96L370.6,137.16L370.71,137.16L370.72,137.16L371.39,137L371.4,136.34L371.67,32.4L371.95,137.17L372.12,137.16L372.14,137.16L372.72,136.83L372.73,135.2L373.03,33.53L373.23,112.61L373.24,120.62L374.02,137.16L374.03,137.16L374.11,134.09L374.12,130.8L374.33,40.38L374.67,137.16L374.84,137.16L374.86,137.16L375.45,136.89L375.46,135.81L375.65,61.67L376.03,137.16L376.14,137.16L376.16,137.16L376.8,137.04L376.81,136.27L377.12,41.74L377.39,137.17L377.53,137.16L377.55,137.16L378.15,137.06L378.17,136.5L378.18,132.37L378.35,54.12L378.66,122.45L378.68,130.22L378.98,137.17L379.44,137.16L379.46,137.16L379.54,134.05L379.56,130.5L379.82,16.06L380.11,137.16L380.29,137.16L380.31,137.16L380.87,136.93L380.89,135.18L381.18,31.45L381.38,115.33L381.4,125.13L381.41,123.54L381.76,137.17L382.06,137.16L382.08,137.16L382.25,136.15L382.26,133.04L382.58,20.68L382.92,137.17L382.98,137.16L383,137.16L383.59,137.03L383.6,136.47L383.62,134.09L383.93,35.59L384.11,117.07L384.13,126.31L384.18,137.17L384.89,137.15L384.91,137.16L384.99,132.3L385.01,127.68L385.27,37.01L385.54,137.16L385.74,137.16L385.76,137.16L386.31,137.04L386.32,136.35L386.63,37.81L386.85,126.08L386.86,133.85L387.62,137.16L387.64,137.16L387.7,135.83L387.71,130.03L388.05,80.04L388.26,137.16L388.45,137.16L388.46,137.16L389.05,136.63L389.07,136.37L389.44,37.8L389.52,94.33L389.54,103.92L390.31,137.16L390.33,137.16L390.43,132.56L390.44,129.17L390.71,32.6L390.98,137.16L391.11,137.16L391.12,137.16L391.76,136.83L391.77,135.14L392.06,34.3L392.22,90.12L392.24,98.74L392.83,137.17L393.03,137.16L393.05,137.16L393.15,130.38L393.16,125.43L393.39,44.08L393.7,137.16L393.88,137.16L393.9,137.16L394.48,136.88L394.49,134.77L394.77,25.44L395.06,137.16L395.23,137.16L395.24,137.16L395.83,136.84L395.85,135.25L396.17,34.54L396.41,137.17L396.43,137.16L397.19,137L397.21,136.47L397.22,133.59L397.5,33.31L397.67,96.72L397.69,106.17L398.44,137.17L398.47,137.16L398.48,137.16L398.57,135.09L398.58,132.93L398.86,36.53L399.15,137.16L399.16,137.15L399.9,137.16L399.91,136.98L399.93,134.77L400.22,36.59L400.49,137.17L400.61,137.16L400.62,137.16L401.27,136.94L401.28,136.2L401.58,36.79L401.75,96.34L401.77,105.58L402.54,137.16L402.56,137.16L402.67,122.75L402.69,119.54L402.88,28.05L403.1,100.29L403.11,113.64L403.17,127.57L403.18,133.48L403.22,137.17L403.95,137.16L403.96,137.16L404.03,131.55L404.04,124.16L404.3,39.89L404.58,137.17L404.72,137.16L404.74,137.16L405.35,137L405.36,136.32L405.66,38.92L405.83,95.11L405.84,104.17L406.64,137.18L406.65,137.17L406.66,137.17L406.72,134.04L406.73,130.34L407.02,37.62L407.23,120.58L407.24,128.75L407.31,137.18L408.01,137.17L408.02,137.16L408.08,134.84L408.09,131.21L408.38,48.87L408.63,137.1L408.65,137.17L409.44,136.57L409.45,133.17L409.65,71.48L410,137.16L410.02,137.16L410.78,136.97L410.8,136.35L411.12,28.48L411.38,137.17L411.45,137.16L411.46,137.16L412.18,136.71L412.2,133.93L412.5,78.9L412.74,137.16L412.93,137.16L412.95,137.16L413.51,136.89L413.53,135.13L413.73,91.08L414.1,137.16L414.27,137.16L414.28,137.16L414.87,136.74L414.89,133.13L415.1,100.04L415.54,137.18L415.61,137.18L415.62,137.18L416.25,136.72L416.26,135.91L416.46,29.06L416.81,137.17L416.84,137L416.86,137L417.58,136.82L417.59,133.49L417.78,50.08L417.85,137L418.1,137L418.12,137L428.45,137.02L428.46,134.75L428.8,96.32L428.99,130.34L429,134.46L429.77,137.16L429.78,137.16L429.88,117.34L429.89,105.43L429.91,105.61L429.92,96.07L430.15,27.94L430.35,130.99L430.36,133.09L430.94,137.17L431.12,137.16L431.14,137.16L431.21,132.77L431.22,128.22L431.45,33.86L431.76,137.17L431.92,137.17L431.93,137.17L432.54,136.56L432.55,132.33L432.84,39.31L433.12,137.17L433.15,137.16L433.16,137.16L433.88,136.94L433.9,135.06L434.07,95.35L434.55,137.17L434.64,137.17L434.65,137.17L435.29,136.8L435.3,134.45L435.58,85.7L435.82,137.16L435.95,137.16L435.97,137.16L436.62,136.95L436.63,136.43L436.99,19.43L437.11,102.07L437.13,117.45L437.59,137.17L437.89,137.16L437.91,137.16L437.99,134.91L438,132.6L438.26,16.25L438.5,117.84L438.51,127.68L438.57,137.17L439.28,137.16L439.29,137.16L439.36,131.37L439.38,126.74L439.63,22.85L439.93,137.17L440.11,137.16L440.13,137.16L440.68,136.94L440.69,135.38L441.06,17.39L441.13,92.65L441.15,109.05L441.76,137.17L441.93,137.16L441.94,137.17L442.05,136.02L442.07,133.74L442.38,16.47L442.53,81.7L442.55,92.13L443.34,137.17L443.36,137.17L443.44,132.36L443.45,128.3L443.74,20.55L444.01,137.18L444.16,137.16L444.18,137.16L444.74,137.13L444.76,136.82L444.77,133.96L445.1,22.13L445.29,120.48L445.31,126.51L445.99,137.17L446.07,137.16L446.09,137.16L446.16,132.25L446.17,128.15L446.44,16.57L446.72,137.17L446.88,137.16L446.89,137.16L447.46,137.16L447.47,136.92L447.49,136.26L447.8,16.32L448.03,120.93L448.04,130.22L448.72,137.17L448.79,137.16L448.81,137.16L448.89,128.86L448.9,116.54L449.17,16.42L449.44,137.17L449.58,137.16L449.6,137.16L450.18,137.14L450.19,136.92L450.21,136.15L450.49,16.18L450.74,119.55L450.76,129.13L451.1,137.17L451.52,137.16L451.54,137.1L451.61,128.26L451.62,115.08L451.89,19.32L452.17,137.17L452.3,137.16L452.32,137.16L452.91,136.88L452.92,135.07L453.11,40.84L453.12,36.96L453.24,18.91L453.43,105.09L453.45,114.31L453.53,137.17L454.21,137.16L454.23,137.16L454.3,132.1L454.31,128.7L454.75,60.9L454.82,132.03L454.84,135.06L455.57,137.17L455.6,137.16L455.61,137.15L455.67,126.73L455.68,121.34L455.85,17.47L456.24,137.16L456.35,137.16L456.36,137.16L456.99,136.88L457,135.06L457.14,52.16L457.16,43.52L457.24,16.17L457.61,137.17L457.75,137.16L457.77,137.16L458.35,136.78L458.36,134.91L458.61,16.13L458.87,93.84L458.88,104.21L459.63,137.17L459.66,137.16L459.68,137.16L459.75,129.12L459.76,120.58L460.02,16.4L460.33,137.18L460.44,137.17L460.46,137.17L461.06,136.87L461.08,134L461.36,16.43L461.69,137.17L461.74,137.16L461.76,137.16L462.42,136.47L462.44,133.6L462.72,16.26L462.96,104.43L462.97,114.97L463.06,137.17L463.75,137.16L463.77,137.09L463.88,113.73L463.89,104.08L464.18,19.89L464.7,137.17L464.73,137.16L464.74,137.16L465.13,137.03L465.14,136.69L465.15,134.41L465.24,88.5L465.25,78.03L465.41,16.16L465.76,137.17L465.86,137.16L465.88,137.16L466.5,136.79L466.51,134.32L466.6,88.1L466.61,77.52L466.84,16.21L467.12,137.17L467.22,137.16L467.24,137.16L467.84,136.96L467.86,134.91L468.14,16.28L468.4,101.92L468.41,112.6L469.03,137.17L469.18,137.16L469.19,137.16L469.26,129.16L469.27,119L469.53,16.3L469.84,137.17L469.95,137.16L469.97,137.16L470.58,136.42L470.59,134.03L470.79,25.41L470.8,20.8L470.92,16.25L471.07,69.18L471.09,81.07L471.4,137.17L471.91,137.16L471.92,137.08L471.96,133.04L471.98,126.38L472.32,16.01L472.56,137.16L472.71,137.16L472.73,137.16L473.28,136.99L473.29,136.16L473.62,16.07L473.76,86.17L473.78,111.32L473.83,109.99L474.54,137.17L474.55,137.16L474.65,136.62L474.67,132.89L474.96,16.06L475.25,135.33L475.26,137.02L476,137.16L476.01,137.1L476.03,136.7L476.39,16.07L476.65,137.16L476.76,137.16L476.78,137.16L477.36,136.98L477.37,134.48L477.47,80.15L477.48,136.39L477.5,54.87L477.61,16.37L478.01,137.17L478.12,137.16L478.14,137.16L478.72,136.89L478.73,134.77L479.03,16.38L479.18,50.79L479.2,136.61L479.24,78.78L479.37,137.16L479.93,137.16L479.95,137.16L480.07,136.95L480.09,133.46L480.39,16.68L480.73,137.17L480.83,137.16L480.84,137.16L481.43,136.95L481.45,134.21L481.48,137L481.77,20.87L482.04,137L482.06,137L495.14,136.99L495.15,99.29L495.22,16.06L495.92,137.16L495.93,137.16" style="vector-effect: non-scaling-stroke; fill: none; stroke: rgb(255, 0, 0); stroke-opacity: 1; stroke-width: 2px; opacity: 1;"/></g><g class="points"/><g class="text"/></g><g class="trace scatter trace2fdf01" style="stroke-miterlimit: 2; opacity: 0.5;"><g class="fills"/><g class="errorbars"/><g class="lines"><path class="js-line" d="M0,154.8L0.07,156.43L0.11,154.57L0.14,154.57L0.16,161.8L0.38,224.07L0.48,99.62L0.5,88.28L0.61,60.46L0.98,246.93L1.16,156.92L1.17,155.4L1.61,154.23L1.7,163.5L1.73,160.69L1.74,203.05L1.76,216.01L1.93,54.15L2.43,166.51L2.45,166.3L2.69,151.31L2.7,140.56L3,217.71L3.27,64.93L3.31,80.46L3.33,76.04L3.37,50.27L3.69,164.05L4.03,154.75L4.05,155.31L4.29,163.76L4.53,147.59L4.54,195.27L4.56,197.03L4.57,127.88L4.66,66.98L4.88,232.64L5.32,154.72L5.34,155.13L5.62,164.02L5.7,154.53L5.73,154.6L5.75,205.32L6.19,59.44L6.51,154.89L6.53,154.73L6.64,155.12L6.81,154.53L6.82,162.28L7.16,149.51L7.18,203.97L7.19,163.56L7.21,142.72L7.59,37.3L7.9,205.53L7.91,218.33L8.75,59.62L8.76,61.75L8.78,61.38L8.8,69.23L8.82,113.64L8.96,58.59L9.17,229.37L9.6,154.31L9.61,154.45L9.85,153.49L9.87,203.49L10.09,37.54L10.63,154.64L10.65,155.43L11.01,154.2L11.03,154.47L11.04,204.86L11.58,40.06L11.81,144.47L11.82,149.34L12.03,218.72L12.57,154.53L12.58,153.26L12.67,187.5L12.85,50.63L13.14,181.7L13.15,192.69L13.18,151.29L13.84,214.65L13.9,163.4L13.92,163.59L14.01,131.25L14.03,119.58L14.2,54.25L14.61,227.46L14.75,155.55L14.76,154.78L14.78,155.74L15.3,151.59L15.32,207.32L15.33,217.74L15.51,37.05L16.02,174.34L16.04,173.93L16.05,174.73L16.42,146.11L16.43,138.82L16.73,211.65L17,41.91L17.14,47.75L17.16,46.23L18.09,220.83L18.11,164.88L18.12,146.59L18.42,49.17L18.7,183.87L18.81,170.36L18.83,170.31L18.9,222.58L19.18,154.74L19.2,154.88L19.21,154.51L19.25,205.42L19.68,44.39L19.89,77.33L19.9,72.89L20,200.73L20.58,154.66L20.6,154.76L20.65,154.84L20.67,154.33L20.68,154.62L20.7,205.22L20.78,210.32L20.99,51.18L21.45,167.79L21.46,168.3L21.93,154.43L21.94,205.52L21.96,217.85L22.42,51.12L22.44,49.88L22.8,173.01L23.2,155.74L23.22,155.09L23.39,154.57L23.47,171.24L23.48,223.67L23.5,238.34L23.8,55.7L24.09,126.68L24.11,134.58L24.66,205.8L24.87,151.13L24.89,145.03L24.94,199.07L25.2,51.77L25.62,155.7L25.64,155.55L25.85,156.92L26.05,154.43L26.07,154.76L26.09,205.42L26.43,48.22L26.85,159.08L26.87,154.17L27.5,205.12L27.6,153.03L27.62,148.95L27.93,55.94L28.25,173.08L28.35,156.7L28.37,161.54L28.82,218.36L29.22,53.22L29.3,63.35L29.32,69.39L29.56,209.91L30.17,164.46L30.18,156.62L30.28,206.05L30.48,71.82L30.49,60.92L30.51,58.02L30.58,133.61L30.69,127.3L30.7,140.29L30.75,76.23L30.97,169.09L31.44,154.94L31.45,155.22L31.47,154.65L31.48,213.1L31.65,227.09L31.91,52.31L32.26,142.88L32.27,148.34L32.33,175.6L33.03,158.51L33.04,154L33.28,61.36L33.66,173.73L33.76,160.21L33.78,159.85L34.23,164.23L34.3,154.71L34.33,163.79L34.34,214.64L34.58,55.35L35.11,172.58L35.12,169.89L35.69,212.78L35.77,131.84L35.79,124.5L35.8,177.52L35.94,40.72L36.54,156.97L36.55,154.67L36.88,154.6L36.95,205.52L36.99,155L37,154.73L37.3,81.4L37.4,232.56L37.54,135.28L37.55,100.77L37.61,51.18L37.72,158.75L38.26,154.6L38.28,161.81L38.38,217.66L38.56,121.9L38.57,128.8L38.59,115.71L38.7,51.68L39.15,165.39L39.3,162.51L39.31,161.94L39.59,154.43L39.61,154.8L39.62,205.16L39.86,207.53L40.05,41.57L40.4,144.35L40.41,135.83L40.43,133.93L40.56,172.47L40.95,154.59L40.97,154.86L41.01,154.42L41.14,172.55L41.15,216.67L41.16,229.95L41.45,55.78L41.86,164.54L41.87,164.68L41.89,164.02L41.9,208.23L42.5,225.05L42.59,140.98L42.61,131.57L42.89,55.09L43.23,164.46L43.27,161.11L43.29,160.47L43.83,205.62L43.85,154.57L43.87,154.15L43.98,192.45L44.18,101.84L44.19,86.49L44.26,45.21L44.59,158.18L44.9,156.39L44.92,155.29L45.03,154.97L45.06,156.72L45.09,155.8L45.1,205.58L45.18,218.55L45.48,87.53L45.84,209.34L45.85,218.46L45.88,152.31L46.6,212.49L46.61,174.99L46.73,213.52L46.88,47.27L47.22,162.4L47.24,166.93L47.28,167.19L47.99,148.93L48,189.61L48.2,47.47L48.75,157.56L48.77,162.11L49.28,228.22L49.59,62.69L49.67,80.39L49.69,80.92L49.84,69.19L50.04,180.27L50.08,176.12L50.1,174.71L50.39,207.33L50.95,74.32L50.96,122.41L51.02,79.27L51.23,209L51.75,159.02L51.77,155.92L51.84,205.33L51.92,154.85L52.01,156.04L52.02,208.93L52.06,165.18L52.7,239.85L52.73,182.11L52.74,172.71L53.25,154.45L53.41,157.37L53.42,207.8L53.45,157.74L53.76,278.52L54.19,168.88L54.2,169.08L54.64,154.77L54.88,168.79L54.9,175.21L54.95,166.3L55.26,230.29L55.28,180.52L55.29,168.12L55.41,231.91L55.91,154.7L55.97,155.7L55.99,205.15L56.03,154.34L56.3,261.66L56.75,158.43L56.76,158.18L56.79,221.01L57.26,154.61L57.51,167.07L57.53,170.06L57.54,169.58L57.6,173.17L57.64,170.79L57.66,236.96L57.81,238.12L58.26,154.61L58.43,155.23L58.45,154.38L58.49,155.12L58.59,154.91L58.6,205.27L58.69,154.36L59.03,241.84L59.31,192.02L59.33,182.95L60.13,154.21L60.15,154.17L60.19,164.23L60.2,214.69L60.25,233.15L60.74,162.74L60.88,170.84L60.9,166.17L61.31,154.52L61.48,218.1L61.61,174.11L61.62,226.23L61.95,267.66L62.28,165.2L62.31,168.45L62.33,167.37L62.82,154.75L62.94,159.16L62.95,218.04L62.98,250.41L63.63,155.99L63.67,164.12L63.69,165.79L64.01,154.44L64.18,155.13L64.2,214.56L64.24,157.22L64.58,266.45L64.9,177.81L64.92,164.47L65.54,154.9L65.71,256.19L65.75,187.39L65.77,181.14L66.01,65.37L66.31,169.79L66.32,169.3L66.46,222.42L66.79,154.64L66.97,161.21L66.98,146.1L67.03,194.88L67.15,54.93L67.56,104.25L67.58,111.26L68.17,214.72L68.34,153.05L68.36,150.66L68.43,177.84L68.77,50.91L69.09,156.73L69.11,155.03L69.72,206.8L69.79,107.52L69.8,97.35L69.99,146.95L70.17,49.12L70.35,138.06L70.37,147.7L70.95,214.37L71.15,185.82L71.16,86.44L71.46,62.74L71.73,217.99L71.83,155.03L71.84,155.65L72.35,163.38L72.41,147.33L72.42,194.52L72.58,45.09L73.17,159.25L73.18,160.75L73.2,160.43L73.21,209.72L73.24,223.57L73.82,127.13L73.84,103.44L73.93,50.01L74.47,173.42L74.5,167.77L74.52,168.56L74.54,169.05L75.66,63.84L75.69,86.22L75.7,101.35L75.92,232.13L76.47,146.85L76.48,144.23L76.53,203.44L76.57,134.65L76.58,106.86L76.62,128.05L76.65,92.85L76.67,86.72L76.7,102.66L76.71,77.53L76.72,85.38L76.74,128.27L77.01,62.7L77.28,231.3L77.5,156.11L77.52,155.46L77.71,206.4L77.88,132.52L77.9,115.72L78.24,50.64L78.55,173.11L78.69,164.81L78.71,165.02L78.73,165.43L78.83,154.51L79.02,156.61L79.03,155.4L79.05,154.62L79.06,155.64L79.09,155.64L79.1,206.52L79.6,72.84L79.88,146.25L79.89,153.09L79.98,218.12L80.43,155.22L80.45,155.2L80.57,165.59L80.59,148.96L80.6,136.17L80.63,148.61L80.73,43.29L81.03,69.34L81.04,67.47L81.1,63.46L81.86,205.4L81.93,156.99L81.95,144.64L82.13,55.63L82.64,162.32L82.68,159.44L82.7,156.1L83.25,214.4L83.33,121.28L83.35,110.48L83.45,41.84L83.97,218.6L83.99,223.01L84.71,128.57L84.75,133.52L84.76,129.87L84.79,167.52L85.09,60.38L85.29,137.16L85.3,147.44L85.9,140.05L85.95,206.23L86.09,183.95L86.11,82.74L86.25,66.67L86.68,227.29L86.87,160.59L86.89,159.63L86.93,160.94L86.96,140.54L87.23,154.71L87.24,205.44L87.26,217.95L87.75,70.87L87.77,63.61L87.79,59.01L88.66,219.14L88.67,166.7L88.69,150.05L88.87,162.51L89.01,66.6L89.39,155.35L89.41,162.65L89.72,137L90.02,202.9L90.14,137L90.16,137L90.27,218.47L90.41,36.29L90.91,137L90.92,137L91.23,137L91.25,187.6L91.43,206.83L91.96,54.05L92.01,84.58L92.03,90.82L92.15,225L92.83,177.49L92.85,169.74L92.97,135.68L93,177.75L93.02,199.6L93.14,55.13L93.77,165.86L93.78,157.23L94.19,173.24L94.22,126.27L94.23,138.1L94.25,110.36L94.53,65.92L94.87,162.65L94.98,155.31L95,156.83L95.69,48.56L95.75,144.29L95.76,146.11L95.86,227.58L95.93,69.87L95.95,72.79L95.98,69.5L96,124.37L96.02,150.51L96.06,67.12L96.23,166L96.6,155.06L96.61,205.85L97.29,57.17L97.39,69.83L97.41,174.65L97.46,89.47L98.16,163.83L98.17,170.93L98.4,65.66L98.51,220.29L98.92,157.75L98.93,168.96L98.96,175.73L99.27,137L99.33,154.67L99.34,206.03L100.11,137L100.12,144.29L100.14,153.4L100.32,137L100.53,200.26L100.79,137L100.8,137L100.9,196.71L100.92,209.36L101.6,137L101.68,146.11L101.69,146.11L101.89,137L102.37,209.36L102.43,137L102.44,144.29L102.54,213.11L102.56,227.58L103.36,137L103.38,137L103.58,187.6L103.59,200.26L103.78,218.47L104.16,137L104.36,146.11L104.37,146.11L105.05,137L105.06,194.89L105.15,214.83L105.84,137L105.86,137L106.28,137L106.29,144.29L106.37,137L106.55,164.33L106.56,214.93L107.3,137L107.34,146.11L107.36,146.11L107.72,137L107.74,144.29L107.75,196.71L107.85,137L108.28,218.47L108.42,153.4L108.43,147.93L109.13,137L109.14,194.89L109.39,218.47L109.9,137L109.92,137L110.26,137L110.27,187.6L110.54,137L110.87,225.76L111.02,162.51L111.04,164.33L111.16,200.26L111.77,137L111.8,146.11L111.82,196.71L111.87,200.26L112,44.73L112.57,168.13L112.58,164.78L112.92,155.84L113,156.71L113.02,206.65L113.33,54.29L113.77,183.12L113.78,187.07L114.35,207.51L114.52,155.04L114.58,167.15L114.59,174.05L114.86,75.56L115.04,217.05L115.31,166.42L115.33,165.82L115.75,155.35L115.89,219.54L115.95,170.43L115.96,226.38L115.98,243.32L116.06,70.73L116.64,182.64L116.66,163.07L117.19,204.89L117.31,133.3L117.32,123.23L117.55,68.95L117.73,277.37L118.07,158.82L118.09,159.65L118.36,165.99L118.48,155.47L118.51,162.61L118.53,164.88L118.55,164.51L118.57,172.84L118.58,231.22L118.72,165.72L118.88,264.05L119.35,176.89L119.36,175.7L119.79,155.32L119.84,171.56L119.86,217.35L119.9,158.79L120.41,234.27L120.62,160.67L120.63,158.88L121,215.77L121.12,154.68L121.29,155.55L121.3,154.9L121.81,246.61L121.84,182.75L121.85,178.03L121.88,171.61L121.89,184.52L121.91,192.84L121.94,194.23L121.98,186.26L121.99,239.38L122.01,257.94L122.64,155.27L122.66,156.2L122.67,155.19L122.81,181.1L122.94,169.02L122.96,220.08L123.1,254.34L123.66,159.11L123.68,160.24L124,154.72L124.09,176.42L124.12,159.32L124.13,119.72L124.33,69.49L124.78,176.34L124.84,164.21L124.85,165.91L125.07,225.28L125.25,154.65L125.35,163.3L125.36,211.1L125.38,222.32L125.73,68.91L125.86,80.38L125.87,73.52L125.93,69.22L126.13,179.16L126.76,139.67L126.78,135.79L127,69.11L127.3,158.78L127.4,140.96L127.42,162.61L128.08,153.99L128.14,212.14L128.17,172.38L128.18,163.4L128.35,57.86L128.75,179.3L128.76,189.44L129.33,154.61L129.35,218L129.44,168.49L129.45,156.13L129.55,143.64L129.57,179.31L129.58,195.17L129.95,63.62L130.33,156.82L130.35,159.07L130.94,142.42L130.97,213.78L130.98,157.65L131,137.72L131.22,50.96L131.58,170.37L131.72,164.95L131.73,169.25L131.94,154.63L132.13,164.58L132.14,213.78L132.55,58.64L132.67,296.15L132.82,181.13L132.84,179.49L133.33,154.91L133.37,207.41L133.56,164.35L133.57,228.18L133.74,74.13L134.01,287.31L134.25,177.71L134.27,174.72L134.78,154.66L135.09,248.38L135.1,196.96L135.12,184.54L135.21,264.67L135.92,158.2L135.95,158.63L135.97,157.12L136.06,155.26L136.09,213.47L136.11,171.7L136.12,157.96L136.23,154.56L136.45,243.91L136.56,210.57L136.57,262.5L136.59,287.96L137.22,160.01L137.24,160.4L137.55,155.17L138.1,304L138.13,246.64L138.15,184.23L138.22,116.53L138.77,230.11L138.9,156.01L138.91,158.05L138.94,163.92L139.19,71.7L139.21,76.26L139.22,71.32L139.24,71L139.28,80.97L139.31,78.25L139.32,90.92L139.52,83.65L139.67,168.97L139.69,173.46L140.35,199.33L140.38,139.81L140.4,139.79L140.88,61.41L141.05,179.5L141.06,192.44L141.15,249.29L141.27,167.16L141.29,171.9L141.3,162.92L141.64,208.49L141.94,63.68L142.21,86.2L142.22,164.75L142.86,155.15L142.92,229.14L142.96,156.17L142.97,158.44L143,155.4L143.04,218.39L143.24,193.94L143.26,261.21L143.27,272.05L143.91,163.46L143.92,171.54L143.93,169.56L144.36,154.4L144.43,208.99L144.57,186.4L144.59,239.18L144.91,269.85L145.19,168.32L145.28,173.93L145.29,172.32L145.65,154.22L145.73,164.35L145.75,215.44L145.79,159.3L146.2,283.3L146.5,203.93L146.51,201.43L146.89,208.94L147.06,153.94L147.13,166.81L147.15,164.58L147.18,160.67L147.63,264.35L147.73,204.83L147.74,184.76L148.22,207.88L148.39,153.28L148.58,158.25L148.59,169.53L148.89,254.46L149.23,165.03L149.27,167.06L149.29,165.42L149.3,165.1L149.31,214.12L149.64,153.6L149.98,235.23L149.99,175.58L150.57,246.25L150.76,160.48L150.77,161.16L151.04,153.25L151.31,174.24L151.32,231.73L151.79,268.19L152.1,161.47L152.12,163.42L152.53,154.32L152.65,175.79L152.67,231.08L152.68,247.22L153.12,79.11L153.38,172.8L153.39,164.85L153.91,205.54L153.94,150.75L154.04,183.96L154.06,135.75L154.3,236.22L154.38,96.56L154.81,163.93L154.82,170.95L155.29,207.33L155.54,80.32L155.6,90.29L155.61,141.72L155.83,71.05L155.92,202.47L156.36,158.41L156.38,155.95L156.67,197.25L156.87,78.16L156.94,102.36L156.96,85.78L157,76.28L157.38,194.15L157.78,158.19L157.79,154.54L157.96,204.26L158.01,147.73L158.02,142.5L158.19,60.96L158.67,198.73L158.71,162.36L158.73,167.72L159.36,149.4L159.39,211.37L159.41,150.92L159.42,120.08L159.55,59.64L159.56,108.59L159.58,127.74L159.65,67.29L160.13,181.85L160.31,166.57L160.33,163.33L160.77,191.82L160.95,82.43L161.08,131.48L161.09,167.74L161.15,118.54L161.18,182.06L161.19,127.43L161.2,114.7L161.28,194.46L161.98,166.27L162,167.98L162.01,214.92L162.28,77.82L162.73,137.41L162.75,144.84L163.41,205.49L163.5,150.11L163.51,133.43L163.77,67.84L164.21,181.01L164.26,175.67L164.28,170.11L164.83,209.56L164.89,133.3L164.9,121.8L164.98,81.58L165.14,154.59L165.24,81.82L165.25,74.08L165.55,193.87L166.02,157.7L166.03,156.73L166.13,154.02L166.16,213.54L166.17,167.56L166.19,151.57L166.61,70.83L166.88,174.88L166.9,178.13L167.48,217.06L167.55,144.46L167.57,188.05L167.59,130.96L168,64.23L168.27,172.24L168.32,166.4L168.34,165.28L168.89,215.9L169.06,51.23L169.23,117.83L169.25,128.89L169.44,63.43L170,219.09L170.05,155.56L170.07,155.11L170.09,204.6L170.11,219.51L170.28,136.75L170.29,130.51L170.46,47.61L171,188.13L171.06,175.17L171.07,164.84L171.44,165.82L171.67,131.95L171.68,132.78L171.69,179.84L171.71,185.54L171.95,56.86L172.1,135.36L172.12,87.78L172.13,57.08L172.36,172.57L172.81,164.2L172.83,216.8L173.41,62.97L173.59,118.38L173.6,134.85L174.13,218.79L174.34,142.13L174.36,131.06L174.41,183.83L174.53,54.6L175.05,169.49L175.06,171.9L175.09,234.8L175.78,102.96L175.8,94.39L175.91,62.98L176.34,195.94L176.69,162.54L176.71,157.87L176.82,154.54L176.89,213.03L176.96,157.39L176.97,153.89L176.99,156.69L177.21,89.5L177.23,79.87L177.37,61.13L177.65,189.93L178.04,159.86L178.05,161.21L178.28,209.19L178.62,63.38L179,110.9L179.01,121.58L179.58,210.25L179.78,145.32L179.79,137.2L179.81,139.6L179.96,73.21L180,83.18L180.02,72.86L180.14,72.75L180.56,181.45L180.84,159.93L180.85,156.46L181.11,213.69L181.18,128.84L181.19,116.5L181.35,57.13L181.52,146.96L181.7,110.56L181.72,118.84L182.44,227.51L182.49,146.89L182.51,136.41L182.75,53.52L182.85,156.2L183.13,147.95L183.15,161.68L183.19,193.09L183.43,172.56L183.44,162.26L183.83,201.5L184.09,73.03L184.43,118.57L184.45,129.2L184.56,190.46L185.21,158.32L185.23,149.72L185.47,77L185.92,179.18L185.93,173.77L185.95,178.56L186.37,156.89L186.46,207.11L186.47,175.02L186.49,155.99L186.57,213.57L186.78,57.01L187.24,158.52L187.25,169.37L187.29,179.39L187.65,157.2L187.87,158.6L187.89,155.16L187.94,222.78L188.14,73.58L188.6,163.6L188.61,181.14L189.13,220.62L189.3,155.08L189.32,145.18L189.39,179.72L189.57,80.52L189.97,175.11L189.98,181.99L190.51,157.14L190.54,210.99L190.63,166.53L190.65,152.78L190.86,88.52L190.97,182.7L191.36,178.65L191.37,176.21L192.05,141.4L192.09,206.79L192.11,195.84L192.12,140.41L192.25,81.99L192.67,244.5L192.86,166.48L192.87,176.3L193.18,158.99L193.22,161.15L193.24,209.11L193.58,70.45L194,168.02L194.02,178.17L194.07,187.66L194.67,155.39L194.68,206.56L194.7,211.55L194.92,89.39L194.94,72.71L195.05,67.84L195.48,181.05L195.79,160.83L195.8,159.93L196.14,200.9L196.24,121.64L196.25,101.31L196.3,61.25L196.93,172.3L197.02,162.28L197.03,161.97L197.32,173.01L197.54,100.51L197.56,95.44L197.67,57.99L198.17,172.65L198.32,164.4L198.33,162.43L198.48,155.74L198.53,157.1L198.55,208.47L198.56,223.24L199.11,60.54L199.24,154.16L199.26,141.58L199.31,88.01L199.54,175.85L200.02,157.83L200.03,156.56L200.12,169.36L200.13,177.89L200.16,242.19L200.43,59.7L200.88,183.23L200.9,180.54L201.46,214.65L201.55,146.5L201.58,154.99L201.59,151.33L201.99,71.08L202.24,176.74L202.34,167.97L202.36,165.91L202.94,211.78L203.03,105.29L203.05,116.9L203.06,88.72L203.16,70.94L203.64,235.04L203.87,161.46L203.88,163.41L204.2,166.48L204.35,119.04L204.37,135.82L204.38,110.14L204.49,57.14L205,194.31L205.14,164.2L205.16,164.38L205.51,211.23L205.6,151.72L205.61,202.35L205.63,208.58L205.82,64.26L206.23,140.29L206.25,148.9L206.3,241.32L206.9,182.86L206.91,164.46L206.97,206.18L207.28,67.78L207.52,124.87L207.54,159.52L208.22,221.87L208.26,158.88L208.27,161.6L208.29,155.72L208.33,191.22L208.56,73.21L209.05,175.92L209.06,171.6L209.53,160.5L209.67,211.76L209.72,208.12L209.73,151.29L209.9,70.15L210.45,181.37L210.47,178.28L210.78,214.04L210.93,158.75L211.09,209.87L211.1,224.3L211.41,69.81L211.85,170.24L211.87,167.05L212.42,209.22L212.43,148.56L212.45,130.85L212.46,129.33L212.53,226.04L212.63,216.03L212.65,214.59L212.75,69.95L213.11,240.2L213.13,251.57L214.06,68.37L214.09,74.89L214.1,82.28L214.13,71.39L214.16,129.48L214.18,150.65L214.22,76.86L214.46,180.44L214.91,159.59L214.93,161.05L215.1,213.8L215.32,53.22L215.72,136.98L215.73,148.65L216.3,210.51L216.48,157.32L216.5,151.85L216.52,193.26L216.74,68.18L217.25,180.96L217.26,176.85L217.28,180.15L217.73,160.55L217.86,166.6L217.87,148.44L218.07,72.84L218.49,188.53L218.58,182.66L218.59,181.25L219.09,161.17L219.17,167.52L219.19,218.55L219.2,222.99L219.61,94.39L219.87,188.14L219.88,185.88L220.39,227.29L220.47,161.23L220.49,162.43L220.5,157.58L220.56,165.83L220.59,153.86L220.6,204.63L220.79,68.05L221.25,257.78L221.35,180.34L221.37,175.98L221.71,213.73L222.2,69.18L222.24,77.1L222.26,84.54L222.65,193.4L223.02,168.56L223.04,167.8L223.05,168.2L223.06,159.27L223.08,162.26L223.09,211.59L223.15,226.08L223.62,69.15L223.86,148.75L223.87,157.65L223.98,208.47L224.62,161.67L224.64,155.52L224.92,74.01L225.3,174.01L225.32,172.7L225.33,178.11L225.39,185.21L225.91,158.7L225.97,168.38L225.98,161.09L226.04,211.35L226.21,64.88L226.6,141.5L226.62,159.17L227.23,158.22L227.33,216.17L227.37,160.24L227.38,158.31L227.47,186.85L227.52,94.17L227.54,83.5L227.58,69.89L228.02,179.82L228.05,176.91L228.06,231.53L228.09,242.61L228.66,159.07L228.67,159.59L228.68,155L228.93,68.47L229.39,245.2L229.46,175.39L229.48,172.39L229.94,225.78L230.26,105.31L230.27,151.45L230.28,164.93L230.5,79.67L230.75,242.55L231.02,164.54L231.03,165.86L231.36,170.3L231.43,157.77L231.44,152.82L231.47,161.05L231.57,106.67L231.59,87.19L231.88,82.53L232.12,237.88L232.29,165.48L232.31,163.6L232.82,203.59L232.85,137.05L232.9,183.03L232.92,126.78L233.2,70.13L233.41,226.56L233.64,180.6L233.65,179.69L233.91,160.6L233.95,225.9L233.99,164.8L234.01,159.67L234.19,168.44L234.35,67.06L234.5,67.78L234.52,65.36L234.53,63.54L234.62,154.73L234.77,152.69L234.79,160.8L235.42,157.21L235.44,207.82L235.52,164.45L235.54,155.26L235.72,54.26L236.17,188.66L236.27,180.47L236.29,165.86L236.65,157.06L236.77,222.16L236.78,169.77L236.8,158.7L236.94,200.96L237.22,64.08L237.57,174.9L237.59,172.05L237.63,174.55L237.94,157.81L238.11,165.13L238.13,160.81L238.2,223.32L238.41,95.02L238.42,75.36L238.45,59.11L238.65,117.22L238.66,107.63L238.68,122.77L238.86,237L239.39,159.56L239.4,163.04L239.6,211.65L239.66,143.08L239.68,151.26L239.7,117.21L239.87,66.7L240.26,193.64L240.48,169.49L240.49,169.94L240.69,210.91L241.27,68.25L241.48,126.22L241.5,135.67L241.51,134.27L241.61,182.36L242.02,167.72L242.03,169.61L242.06,216.25L242.37,142.97L242.39,134.07L242.57,63.22L242.98,185.99L243.1,170.05L243.11,167.57L243.21,229.94L243.7,143.12L243.72,132.56L243.97,57.7L244.34,171.48L244.38,168.12L244.4,169.05L244.41,169.71L244.82,157.38L244.84,159.09L244.85,209.09L244.88,228.91L245.26,52.3L245.47,73.09L245.49,79.6L245.61,203.97L246.29,156.41L246.31,158.45L246.61,66.65L247.07,199.29L247.12,188.21L247.13,183.7L247.65,159.94L247.7,161.44L247.71,210.24L247.72,225.29L248.04,71.73L248.43,189.8L248.45,190.04L249.03,229.59L249.07,162.66L249.11,173.2L249.13,169.48L249.35,96.54L249.58,206.87L249.86,185.2L249.88,185.3L250.37,226.65L250.63,85.95L250.71,95.38L250.72,100.15L250.8,83.31L251.14,194.27L251.56,168.25L251.57,165.74L251.65,174.82L251.77,160.47L251.83,163.66L251.84,210.23L252.1,75.17L252.24,223.23L252.59,174.72L252.61,178.57L253.17,247.99L253.36,96.13L253.37,152.53L253.39,170.26L253.5,74.6L253.81,258.29L254.02,173.35L254.04,177.35L254.45,227.29L254.67,88.61L254.92,94.25L254.93,106.24L254.97,218.09L255.69,166.34L255.71,165.76L255.85,224.36L255.98,142.67L255.99,129.3L256.08,163.57L256.3,85.82L256.46,163.04L256.47,178.62L257.18,161.08L257.19,218.37L257.21,182.43L257.22,170.94L257.53,94.65L257.92,199.1L258,196.66L258.02,191.08L258.54,228.75L258.84,96.6L258.85,104.56L258.86,157.47L258.92,92.87L259.37,246.65L259.56,171.85L259.57,165.25L259.98,187.16L260.11,125.11L260.17,142.86L260.18,102.52L260.27,70.21L260.52,237.71L260.83,171.8L260.85,176.56L261.29,231.53L261.4,157.74L261.43,228.44L261.44,233.96L261.6,123.49L262.19,166.82L262.21,169.75L262.7,217.71L262.8,137.49L262.87,200.64L262.88,224.02L262.9,224.83L262.91,219.07L262.93,167.68L263.05,105.73L263.15,197.17L263.68,166.31L263.69,164.33L263.9,231.5L264.19,121.78L264.2,69.13L264.31,57.37L264.71,178.14L265.11,167.94L265.12,159.99L265.5,221.92L265.6,113.38L265.62,118.05L265.65,84.9L266.07,238.48L266.35,171.09L266.37,164.69L266.52,159.59L266.68,237.33L266.83,210.14L266.85,154.93L266.86,155.61L266.92,117.01L266.95,117.22L266.96,105.21L266.98,72.33L267.41,192.61L267.66,173.01L267.67,172.32L267.99,218.72L268.18,141.33L268.19,116.63L268.38,62.22L268.77,200L268.79,190.26L268.8,238.56L268.82,255.32L269.41,158L269.45,162L269.47,155.35L269.59,171.37L269.65,61.76L269.74,66.18L269.75,55.92L269.85,55.22L270.17,236.95L270.61,160.22L270.63,155.89L270.71,154.96L270.76,158.08L270.77,205.94L270.78,217.7L271.29,61.28L271.48,175.73L271.49,169.34L271.58,173.64L271.96,155.76L271.97,206.74L272.28,207.65L272.51,46.44L272.75,121.83L272.77,134.43L272.86,176.25L273.53,156.52L273.54,156.22L273.87,47.51L274.04,77.85L274.05,132.76L274.11,184.95L274.14,127.33L274.82,159.42L274.83,154.46L274.86,154.69L274.87,164.23L274.9,161.37L274.95,220.39L274.96,169.41L274.97,149.19L275.24,63.15L275.58,189L275.74,160.95L275.75,161.94L276.11,206.92L276.56,69.56L276.62,133.95L276.63,138.79L276.67,70.99L277.11,235.54L277.37,158.37L277.38,156.46L277.56,205.79L277.83,66.28L278.13,148.78L278.14,167.61L278.17,117.76L278.24,220.92L278.89,163.18L278.91,164.68L278.95,214.16L279.02,146.15L279.04,132.36L279.18,50.93L279.56,212.86L279.73,173.65L279.74,177.34L280.11,218.51L280.2,154.13L280.27,155.34L280.28,204.38L280.4,220.76L280.58,66.98L281,184.53L281.02,186.45L281.6,156.48L281.7,212.23L281.71,174.9L281.73,217.83L281.94,58.55L282.45,243.91L282.48,175.9L282.49,175.74L283.06,204.66L283.3,55.76L283.35,124.34L283.37,135.3L283.41,70.53L283.72,177.47L284.1,160.96L284.12,161.42L284.22,156.27L284.37,176.56L284.39,228.63L284.4,230.81L284.57,117.21L284.59,118.18L284.6,101.17L284.73,72.09L285.05,182.33L285.17,173.3L285.18,175.54L285.22,229.48L286.07,64.35L286.13,85.3L286.14,85.83L286.74,229.76L286.98,163.11L286.99,157.54L287.18,219.76L287.19,160.12L287.44,65.91L287.77,193.16L287.91,187.03L287.93,186.87L288.52,215.95L288.73,66.04L288.9,91.73L288.92,99.91L288.95,95.11L288.99,184.16L289.09,150.55L289.1,205.37L289.7,155.3L289.74,227.01L289.81,165.91L289.82,165.05L289.87,154.93L289.88,211.87L289.89,224.31L290.05,61L290.59,174.57L290.6,171.78L291.1,154.88L291.13,219.3L291.2,157.54L291.21,155.98L291.44,45.03L291.82,232.93L291.97,170.26L291.99,167.87L292.48,205.84L292.95,48.78L292.97,54.32L293.12,185.47L293.14,202.12L293.79,207.78L293.87,154.73L293.89,156.88L293.9,163.27L293.97,218.93L294.03,130.67L294.04,110.8L294.18,68.49L294.52,149.71L294.54,167.98L295.17,156.09L295.19,206.61L295.24,156.6L295.26,205.28L295.27,219.85L295.53,62.99L295.98,170.86L295.99,173.89L296.07,244.65L296.12,169.97L296.14,168.52L296.66,203.45L296.76,115.44L296.77,116.49L296.79,111.84L296.83,113.87L296.87,94.01L296.89,144.02L296.97,68.68L297.4,188.15L297.62,161.83L297.64,159.65L297.75,167.99L297.83,157.07L297.85,157.64L297.86,209.56L297.93,223.26L298.23,60.83L298.33,78.07L298.34,70.72L298.66,205.87L299.19,157.37L299.21,158.21L299.28,219.19L299.66,68.04L299.93,159.32L299.94,174.97L299.99,189.46L300.37,156.59L300.4,159.32L300.41,158.61L300.52,156.06L300.58,167.96L300.62,156.96L300.64,205.73L301.02,53.67L301.33,248.77L301.37,183.11L301.39,185.59L301.97,208.76L302,155.62L302.03,157.29L302.04,212.67L302.38,63.6L302.66,244.29L302.76,178.44L302.78,172.66L303.19,208.22L303.41,155.04L303.48,162.66L303.5,207.38L303.51,218.76L303.75,51.87L304.21,165.47L304.22,162.81L304.66,155.35L304.87,229.36L304.97,163.54L304.98,153.06L305.03,154.46L305.05,136.18L305.07,178.96L305.11,82.32L305.27,181.9L305.52,170.13L305.54,169.72L305.75,154.89L305.86,159.09L305.88,207.97L305.89,219.57L306.44,60.31L306.54,132.78L306.55,80.62L306.6,72.99L306.8,168.66L307.01,158.17L307.02,161.09L307.5,153.89L307.53,174.18L307.55,172.11L307.56,218.29L307.81,54.33L308.32,167.13L308.34,168.43L308.51,154.39L308.85,216.48L308.95,163.73L308.96,217.95L309.02,235.59L309.27,61.03L309.61,163.53L309.63,157.59L310.25,217.42L310.29,150.31L310.31,151.75L310.32,148.28L310.58,109.42L310.62,170.06L311.04,159.92L311.06,158.9L311.23,155.09L311.41,223.39L311.58,173.21L311.59,226.09L311.95,88.09L312.36,158.07L312.37,163.33L312.39,163.78L312.5,154.94L312.74,155.3L312.76,154.74L312.87,154.5L312.92,163.96L312.95,155.21L312.97,216.14L313.04,217.41L313.22,43.39L313.73,163.84L313.75,159.87L314.16,154.56L314.23,214.32L314.26,208.1L314.27,217.34L314.62,55.14L314.96,251.31L315.03,172.26L315.05,176.91L315.49,218.77L315.97,61.5L316.01,70.61L316.03,79.62L316.07,74.47L316.38,233.74L316.92,156.46L316.93,155.98L317.02,219.55L317.33,82.08L317.41,88.36L317.43,89.67L317.47,84.29L317.7,239.13L318.16,158.36L318.18,155.28L318.33,154.52L318.4,171.96L318.42,221.19L318.7,61.59L319.17,177.57L319.18,176.46L319.51,154.88L319.65,157.35L319.66,209.25L319.68,219.3L320.03,91.62L320.13,115.95L320.14,64.46L320.17,48.6L320.2,78.69L320.22,118.87L320.23,111.01L320.36,228.25L320.85,155.86L320.87,205.89L320.97,213.07L321.38,44.36L321.63,121.99L321.64,131.26L322.42,221.69L322.44,185.09L322.45,172.61L322.64,176.18L322.78,37.86L323.13,159.94L323.15,159.44L323.68,154.34L323.73,154.73L323.74,204.99L323.75,225.19L324.12,59L324.46,170.02L324.48,168.8L324.49,169.32L324.74,154.44L324.94,154.51L324.96,154.73L324.99,205.39L325.37,54.57L325.67,90.81L325.68,96.97L325.75,217.96L326.43,155.15L326.44,154.97L326.49,162.49L326.5,164.36L326.91,56.67L327.08,212.7L327.22,177.12L327.24,176.06L327.69,154.67L327.83,154.83L327.84,205.73L328.2,54.92L328.47,242.48L328.54,162.88L328.55,158.34L329.05,154.5L329.06,205.44L329.3,159.65L329.32,153.37L329.57,48.01L329.98,211.48L330,222.06L330.76,102.53L330.78,93.76L330.96,45.99L331.14,195.1L331.45,165.07L331.47,165.74L331.88,205L332.05,154.23L332.06,136.96L332.26,52.28L332.7,171.42L332.74,169.66L332.76,169.48L333.11,154.67L333.31,205.21L333.32,218.09L333.63,54.87L334.09,159.42L334.1,158.38L334.6,154.11L334.67,154.4L334.68,204.8L334.7,218.04L335.06,49.37L335.36,164.48L335.38,166.7L335.93,153.99L335.96,204.89L335.97,217.18L336,217.58L336.01,166.72L336.32,57.36L336.65,234.55L336.76,155.52L336.78,155.75L337.3,153.63L337.36,162.78L337.37,213.58L337.39,218.88L337.63,95.67L337.64,86.08L337.8,44.24L338.08,229.59L338.39,162.56L338.41,162.72L338.46,163.02L338.53,162.23L338.55,162.49L338.56,212.56L338.79,226.94L339.01,56.8L339.03,58.51L339.04,50L339.11,43.21L339.42,239.23L339.83,154.92L339.85,154.79L340.1,220.59L340.4,41.4L340.44,57.86L340.46,54.51L340.74,168.74L341.22,155.13L341.24,156.21L341.41,215.74L341.75,109.32L341.96,158.98L341.97,161.98L342.23,176.47L342.38,154.31L342.44,154.43L342.45,205.59L342.92,151.57L343.03,240.52L343.05,159.04L343.06,115.87L343.08,62.77L343.26,230.95L343.78,154.45L343.8,204.9L344.18,231.15L344.42,50.77L344.44,49.23L344.45,48.86L344.46,60.14L344.48,101.45L344.52,45.28L344.75,217.14L345.21,154.61L345.23,154.43L345.26,154.6L345.33,153.77L345.41,153.79L345.43,204.2L345.82,51.62L346.19,164.52L346.2,163.12L346.3,163.35L346.56,161.21L346.64,161.27L346.66,153.6L346.81,162.22L346.93,146.96L346.94,192.16L347.17,43.43L347.37,199.45L347.69,164.2L347.71,164.4L348.09,153.24L348.17,153.56L348.19,203.81L348.51,42.2L348.82,218.19L348.95,154.92L348.97,155.43L349.53,162.79L349.64,148.86L349.66,149.97L349.67,139.65L349.93,44.62L350.11,179.06L350.35,155.12L350.37,156.18L350.48,163.68L350.92,153.25L350.96,161.48L350.98,168.47L351.09,122.3L351.1,113.63L351.22,62.54L351.5,196.32L351.85,154.54L351.87,154.4L352.19,153.62L352.24,162.78L352.25,162.64L352.26,205.99L352.28,216.47L352.57,63.77L352.94,173.4L352.96,173.97L353.58,153.63L353.65,217.74L353.66,166.88L353.68,153.56L353.72,157.94L353.79,117.66L353.81,111.27L353.96,43.56L354.5,166.11L354.51,163.76L354.53,163.23L354.59,163.64L354.6,156.33L355.21,178.31L355.32,54.89L355.52,117.27L355.53,127.41L355.62,176.53L356.3,153.97L356.31,153.78L356.35,153.97L356.38,153.28L356.4,203.41L356.71,43.97L356.96,241.2L357.16,163.58L357.18,162.88L357.74,213.62L358.07,42.72L358.08,96.88L358.1,112.41L358.19,69.04L358.58,219.04L358.83,154.15L358.85,154.5L359.13,162.37L359.17,148.64L359.19,138.89L359.23,189.07L359.37,48.61L359.68,158.37L359.7,165.77L359.87,166.19L359.92,154.49L359.94,137.97L360.49,212.2L360.66,95.67L360.67,82.8L360.84,42.52L361.2,172.13L361.44,154.49L361.45,154.44L361.61,153.6L361.63,153.7L361.65,204.11L361.85,215.32L362.12,59.18L362.41,157.58L362.43,206.63L362.44,220.25L363.09,153.27L363.15,216.41L363.16,165.57L363.52,57.81L363.91,155.36L363.93,157.38L363.98,162.55L364.59,151.18L364.61,200.1L364.81,54.05L365.29,220.44L365.36,155.48L365.37,155.59L365.81,163.19L365.84,146.99L365.9,153.85L365.91,204.02L365.92,216.16L366.29,46.42L366.6,146.11L366.62,146.11L366.67,140.2L366.72,163.95L367.04,154.06L367.06,204.59L367.07,217.3L367.54,55.63L367.69,70.53L367.71,74.93L367.93,228.68L368.54,154.04L368.56,154.16L368.6,137.87L368.67,150.21L368.68,199.5L368.91,63.66L368.94,223.94L369.31,219.33L369.32,169.26L369.79,217.26L370.1,132.41L370.11,141.69L370.13,154.47L370.28,70.2L370.61,235.59L370.89,170.37L370.91,165.43L371.44,197.79L371.61,69.15L371.63,184.42L371.73,56.88L372.38,155.59L372.39,153.29L372.63,162.39L372.68,152.52L372.72,153.12L372.73,150.75L372.79,206.42L372.92,124.22L372.93,75.55L373,56.74L373.04,125.37L373.2,114.86L373.21,121.45L373.28,228.75L373.88,137L373.89,137.82L374.33,79.63L374.67,237.46L374.69,185.16L374.93,233.81L375.41,153.13L375.45,162.47L375.46,176.12L375.71,111.95L375.96,231.2L376.07,155.48L376.09,155.2L376.13,166.16L376.14,164.55L376.16,215.19L376.17,230.45L376.63,153.12L376.85,154.18L376.87,148.69L377.01,182.71L377.15,78.33L377.6,155L377.62,154.72L378.18,149.46L378.2,196.96L378.21,203.79L378.41,75.59L378.9,173.42L378.92,166.33L379.58,136.46L379.6,138.07L379.61,190.41L379.82,45.44L380.15,237.53L380.36,162.55L380.38,163.12L380.65,152.96L380.66,153.31L380.67,204.08L381.01,233.11L381.2,95.16L381.44,156.31L381.45,156.6L381.52,155.3L381.54,163.29L381.55,164.64L381.58,164.42L381.59,165.64L381.61,172.06L381.64,172.39L381.68,165.12L381.69,162.48L381.95,153.69L381.98,154.03L381.99,204.23L382.02,217.4L382.53,58.79L382.66,147.23L382.67,83.13L382.75,223.28L383.42,152.99L383.43,153.36L383.45,203.73L383.92,66.55L384.18,155.37L384.2,154.96L384.23,154.44L384.4,162.95L384.61,160.6L384.62,161.02L384.75,152.43L384.82,152.88L384.84,159.89L384.98,210.56L385.12,115.16L385.13,101.81L385.26,65.78L385.52,175.61L385.78,160.28L385.8,160.43L386.19,160.91L386.25,151.82L386.27,202.59L386.58,60.95L386.96,226.46L387.03,161.64L387.04,161.46L387.61,151.63L387.65,161.48L387.67,211.8L388.05,105.88L388.3,226.63L388.43,162.7L388.45,163.09L388.62,151.76L389.15,214.73L389.2,163.99L389.21,159.59L389.44,68.06L389.71,163.14L389.9,152.55L389.92,152.12L390,151.78L390.03,152.54L390.04,202.61L390.06,215.15L390.61,95.53L390.63,89.69L390.67,77.42L390.95,172.53L391.3,151.99L391.32,152.14L391.67,151.08L391.7,160.8L391.72,167.71L391.86,182.22L391.97,78.19L392.1,98.58L392.11,94.19L392.47,216.91L393.07,178.44L393.09,171.27L393.4,90.67L393.53,218.49L393.78,160.57L393.8,160.71L393.91,161.65L393.94,158.94L393.95,151.74L394.07,152.8L394.15,150.6L394.42,151.95L394.43,202.92L394.77,63.06L395.2,160.98L395.21,160.45L395.25,161.68L395.3,159.08L395.31,151.16L395.65,152.46L395.68,150.79L395.78,151.54L395.79,202.2L396.17,70.71L396.56,161.27L396.57,162.4L396.88,150.82L396.94,151.13L396.95,202.27L397.49,49.99L397.72,150L397.73,156.36L397.82,216.19L398.21,150.49L398.31,151.03L398.33,150.84L398.35,150.69L398.43,152.23L398.44,210.16L398.48,223.54L398.89,80.58L399.2,153.32L399.22,153.19L399.94,146.7L399.97,205.72L399.98,161.81L400,150.44L400.04,174.38L400.29,81.04L400.72,151.96L400.73,151.68L400.87,152.63L400.92,150.73L401.13,151.03L401.14,158.1L401.21,214.43L401.31,148.69L401.33,142.23L401.34,142.82L401.41,106.74L401.43,98.68L401.62,63.59L401.82,172.31L402.06,162.05L402.08,161.35L402.56,150.86L402.57,158.31L402.69,203.88L402.76,115.55L402.77,104.52L402.88,73.18L403.03,118.27L403.04,174.86L403.08,113.42L403.14,206.48L403.79,163.69L403.8,151.23L403.92,161.13L403.95,150.65L403.97,150.85L403.99,209.19L404,222.93L404.3,72.81L404.68,153.41L404.7,153.44L404.98,150.99L405.12,159L405.13,160.46L405.15,160.96L405.22,151.12L405.35,152.6L405.36,209.23L405.4,214.58L405.67,56.35L406.13,162.45L406.14,162.32L406.81,187.22L406.82,134.47L406.83,117.86L407.09,72.89L407.27,166.58L407.44,153.26L407.46,153.61L407.47,154.47L408.08,149.64L408.11,151.47L408.12,144.58L408.19,176.55L408.38,74.84L408.59,162.15L408.6,168.97L408.82,152.98L408.83,203.99L408.84,216.58L408.86,217.51L408.87,165.34L408.93,214.77L409.52,130.62L409.61,160.73L409.62,186.91L409.66,106.02L410.08,244.3L410.32,151.59L410.33,152.06L410.39,153.02L410.57,151.59L410.58,201.99L410.6,214.78L411.01,60.78L411.11,132.21L411.12,63.27L411.18,62.13L411.34,256.58L411.94,151.03L411.96,151.2L411.99,150.93L412.03,152.18L412.06,151.21L412.07,158.69L412.13,211.67L412.14,165.44L412.16,151.51L412.17,152.23L412.21,144.34L412.23,145.71L412.24,204.64L412.5,111.4L412.67,226.52L412.91,152.91L412.92,152.96L412.95,151.99L412.96,202.25L413.59,140.67L413.66,219.37L413.67,155.39L413.71,130.59L414,207.31L414.42,151.72L414.44,151.93L414.79,152.54L415.02,142.26L415.03,184.62L415.27,134.75L415.37,222.68L415.79,151.73L415.81,152.02L415.95,152.6L415.98,151.36L416.02,152.37L416.03,202.67L416.18,223.82L416.46,47.14L416.8,162.46L416.81,154.62L417.05,137L417.56,151.03L417.58,151.81L417.61,214.66L417.83,56.21L418.31,146.11L418.33,146.11L418.96,137L419.08,144.29L419.09,146.11L419.16,137L419.55,209.36L419.83,137L419.84,137L420.08,137L420.1,144.29L420.15,137L420.95,218.47L420.96,167.87L420.98,147.93L421.64,137L421.67,146.11L421.68,189.43L422.02,137L422.14,229.4L422.45,146.11L422.46,146.11L422.91,137L422.96,146.11L422.97,196.71L423.21,209.36L423.75,137L423.76,137L424.43,200.26L424.51,137L424.53,137L424.92,202.08L425.28,137L425.29,137L425.6,137L425.62,144.29L425.82,137L426.07,218.47L426.14,137L426.16,137L426.33,209.36L426.35,138.82L426.37,137L427.12,137L427.13,144.29L427.22,137L427.23,202.18L427.25,225.76L428.01,137L428.02,137L428.11,137.37L428.12,150.35L428.46,166.4L428.48,216.97L428.55,143.7L429.09,240.42L429.24,160.21L429.26,159.75L429.86,145.04L429.91,148.43L429.92,194.21L429.96,216.43L430.06,89.72L430.11,149.39L430.12,92.14L430.13,93.08L430.15,62.11L430.16,152.03L430.18,175.44L430.22,91.58L430.91,155.83L430.93,151.85L431.08,169.54L431.29,102.12L431.31,109.75L431.32,166.24L431.45,64.1L431.89,226.02L432.07,150.74L432.09,151.72L432.33,150.6L432.46,161.19L432.47,153.57L432.48,201.46L432.91,76.77L433.05,217.53L433.25,151.9L433.26,152.29L433.3,159.12L433.76,150.6L433.77,150.64L433.79,201.14L434,130.27L434.34,219.74L434.49,160.33L434.51,160.66L434.79,165.86L434.9,151.31L434.92,151.43L434.93,202.87L435.58,110.16L435.67,205.82L435.7,153.51L435.71,152.35L436.26,202.43L436.32,150.68L436.35,151.67L436.36,150.81L436.48,150.24L436.56,157.83L436.57,160.54L436.59,160.9L436.62,152.81L436.63,202.17L436.99,52.57L437.32,235.57L437.38,170.63L437.4,170.16L437.48,223.75L438.08,121.14L438.09,183.71L438.1,200.94L438.12,213.41L438.33,51.61L438.78,159.1L438.8,158.55L438.92,160.71L439.08,150.17L439.17,150.51L439.18,208.91L439.39,227.46L439.66,55.7L439.89,150.09L439.9,153.19L439.94,216.16L440.5,150.51L440.64,152.92L440.65,151.63L440.72,180.24L440.91,68.71L440.93,124.67L440.95,64.44L441.03,54.9L441.09,152.67L441.18,144.44L441.19,149.24L441.2,145.85L441.25,215.98L441.78,151.22L441.8,201.41L442.04,218.43L442.32,42L442.55,159.08L442.56,181.93L442.58,192.11L442.6,148.45L443.24,152.32L443.26,151.29L443.74,52.79L443.91,184.25L444.02,163.31L444.03,154.25L444.19,162.55L444.52,150.68L444.69,160.25L444.7,160.67L444.8,215.24L445.08,37.49L445.45,155.01L445.46,153.18L446.02,150.62L446.12,165.32L446.13,218.37L446.5,54.33L446.89,153.88L446.91,153.43L447.05,150.91L447.47,171.21L447.49,177.43L447.55,230.1L447.81,41.5L448.17,161.04L448.18,160.94L448.21,161.15L448.64,151.13L448.65,152.03L448.66,159.68L448.81,151.73L448.83,213.94L448.89,153.79L448.9,145.44L448.95,181.58L449.14,47.05L449.54,162.32L449.56,165L449.57,170.02L450.26,141.01L450.28,130.57L450.52,51.44L450.86,236.91L451,153.25L451.01,151.9L451.31,151.14L451.35,153.53L451.42,151.88L451.44,202.34L451.92,39.9L452.2,160.79L452.22,161.19L452.68,150.79L452.87,215.58L452.92,159.1L452.94,150.98L452.97,205.3L453.24,43.22L453.69,162.51L453.7,161.53L453.86,150.89L454.13,159.45L454.14,211.4L454.48,85.12L454.91,161.18L454.92,159.9L455.03,160.72L455.23,151.13L455.27,151.71L455.29,151.39L455.33,151.3L455.46,152.22L455.49,151.63L455.5,202.24L455.81,61.55L456.01,207.75L456.25,160.94L456.27,160.76L456.72,150.79L456.96,202L457,157.55L457.02,155.7L457.1,113.81L457.11,106.49L457.36,53.52L457.5,123.79L457.51,193.24L457.52,211.42L458.2,150.83L458.23,151.45L458.25,159.37L458.32,216.44L458.69,33.22L458.98,163.84L459,162.66L459.22,169.27L459.39,151.14L459.61,152.5L459.62,202.34L459.63,215.08L460.04,65.98L460.34,171.59L460.36,171.75L460.37,172.84L460.88,150.95L460.91,151.68L460.92,150.78L461.08,167.19L461.11,139.77L461.12,132.81L461.36,54.07L461.6,206.66L461.62,222.02L462.2,150.58L462.38,161.08L462.39,159.7L462.42,152.5L462.44,148.34L462.68,50.28L462.89,83.97L462.9,157.49L462.92,181.87L462.95,129.83L463.64,151.73L463.65,150.83L463.74,150.71L463.81,156.93L463.82,153.64L463.84,143.6L463.97,158.45L464.18,45.22L464.35,151.47L464.36,200.96L464.38,216.24L465.01,150.7L465.04,151.73L465.06,151.57L465.07,150.76L465.17,163.66L465.18,163.48L465.2,204.09L465.21,207.45L465.44,37.59L465.51,99.45L465.52,56.47L465.55,60.97L465.57,67.02L466.34,214.42L466.36,163.57L466.57,202.01L466.85,51.06L467.08,156.99L467.09,212.62L467.12,232.91L467.69,150.77L467.73,150.85L467.75,151.9L467.84,150.53L467.92,163.05L467.93,204.21L467.94,204.36L467.96,141.1L468.17,44.04L468.5,232.8L468.69,168.15L468.71,168.66L468.75,168.27L468.79,168.47L468.81,160.91L469.18,177.99L469.53,48.85L469.73,115.63L469.74,132.45L469.83,184.99L470.49,151.94L470.51,151.03L470.52,150.74L470.56,151.86L470.58,151.4L470.59,206.55L470.87,43.17L471.34,154.68L471.36,153.36L471.52,160.88L471.57,151.12L471.81,151.29L471.82,202.21L471.96,229.58L472.12,52.15L472.3,57.47L472.32,44.19L472.39,28.33L472.63,225.06L473.14,160.29L473.15,159.78L473.37,189.41L473.61,32.57L473.89,158.53L473.9,161.83L474.26,170.68L474.53,150.98L474.64,151.06L474.65,205.48L474.71,210.44L475.04,36.98L475.4,161.13L475.42,169.78L475.87,137L475.91,200.26L475.96,137L475.97,137L476.38,45.62L476.68,234.26L476.76,176.42L476.78,148.22L476.82,226.89L477.51,78.21L477.53,136.41L477.63,47.17L477.65,200.26L478.26,155.46L478.28,155.22L478.29,155.06L478.31,137.11L478.59,200.26L478.96,67.88L479.01,106.48L479.03,66.09L479.13,64.4L479.4,221.54L479.79,152.08L479.81,153.28L479.82,153.6L479.85,151.84L479.88,152.53L479.89,203.47L480.39,65.37L480.43,227.58L480.66,160.74L480.67,169.29L480.74,184.04L481.28,137.09L481.39,137.09L481.41,151.91L481.62,207.54L481.7,57.83L482.14,146.11L482.16,146.11L482.76,209.36L482.84,137L482.89,155.22L482.91,162.51L483.03,209.36L483.7,137L483.71,137L484.17,137L484.18,144.29L484.39,137L484.46,209.36L484.92,137L484.93,137L485.27,137L485.28,187.6L485.89,218.47L486.03,137L486.05,144.29L486.06,146.11L486.13,202.08L486.18,137L486.78,137L486.8,137L487.53,216.65L487.55,167.87L487.56,155.22L488.09,137L488.1,187.6L488.57,209.36L488.88,137L488.89,137L489.56,211.19L489.64,146.11L489.66,146.11L489.79,200.26L490.44,137L490.45,137L490.9,137L490.92,151.58L491.05,137L491.34,234.87L491.65,146.11L491.67,146.11L492.19,194.89L492.31,137L492.32,144.29L492.33,196.71L492.39,137L492.94,216.65L493.01,155.22L493.03,147.93L493.65,137L493.69,153.4L493.71,147.93L493.72,196.71L494.06,137L494.2,209.36L494.47,196.71L494.49,209.36L495.22,76.12L495.25,130.53L495.26,140.23L495.36,64.25L495.53,250.72L495.94,160L495.96,159.86L495.99,160.26L496,160.11" style="vector-effect: non-scaling-stroke; fill: none; stroke: rgb(0, 128, 0); stroke-opacity: 1; stroke-width: 2px; opacity: 1;"/></g><g class="points"/><g class="text"/></g></g></g><g class="overplot"/><path class="xlines-above crisp" d="M0,0" style="fill: none;"/><path class="ylines-above crisp" d="M0,0" style="fill: none;"/><g class="overlines-above"/><g class="xaxislayer-above"><g class="xtick"><text text-anchor="middle" x="0" y="433" transform="translate(80,0)" style="font-family: 'Open Sans', verdana, arial, sans-serif; font-size: 12px; fill: rgb(42, 63, 95); fill-opacity: 1; white-space: pre; opacity: 1;">Mar 2022</text></g><g class="xtick"><text text-anchor="middle" x="0" y="433" style="font-family: 'Open Sans', verdana, arial, sans-serif; font-size: 12px; fill: rgb(42, 63, 95); fill-opacity: 1; white-space: pre; opacity: 1;" transform="translate(162.9,0)">May 2022</text></g><g class="xtick"><text text-anchor="middle" x="0" y="433" style="font-family: 'Open Sans', verdana, arial, sans-serif; font-size: 12px; fill: rgb(42, 63, 95); fill-opacity: 1; white-space: pre; opacity: 1;" transform="translate(245.79,0)">Jul 2022</text></g><g class="xtick"><text text-anchor="middle" x="0" y="433" style="font-family: 'Open Sans', verdana, arial, sans-serif; font-size: 12px; fill: rgb(42, 63, 95); fill-opacity: 1; white-space: pre; opacity: 1;" transform="translate(330.05,0)">Sep 2022</text></g><g class="xtick"><text text-anchor="middle" x="0" y="433" style="font-family: 'Open Sans', verdana, arial, sans-serif; font-size: 12px; fill: rgb(42, 63, 95); fill-opacity: 1; white-space: pre; opacity: 1;" transform="translate(412.94,0)">Nov 2022</text></g><g class="xtick"><text text-anchor="middle" x="0" y="433" style="font-family: 'Open Sans', verdana, arial, sans-serif; font-size: 12px; fill: rgb(42, 63, 95); fill-opacity: 1; white-space: pre; opacity: 1;" transform="translate(495.84,0)">Jan 2023</text></g><g class="xtick"><text text-anchor="middle" x="0" y="433" style="font-family: 'Open Sans', verdana, arial, sans-serif; font-size: 12px; fill: rgb(42, 63, 95); fill-opacity: 1; white-space: pre; opacity: 1;" transform="translate(576.01,0)">Mar 2023</text></g></g><g class="yaxislayer-above"><g class="ytick"><text text-anchor="end" x="79" y="4.199999999999999" transform="translate(0,363.51)" style="font-family: 'Open Sans', verdana, arial, sans-serif; font-size: 12px; fill: rgb(42, 63, 95); fill-opacity: 1; white-space: pre; opacity: 1;">100</text></g><g class="ytick"><text text-anchor="end" x="79" y="4.199999999999999" style="font-family: 'Open Sans', verdana, arial, sans-serif; font-size: 12px; fill: rgb(42, 63, 95); fill-opacity: 1; white-space: pre; opacity: 1;" transform="translate(0,300.26)">50</text></g><g class="ytick"><text text-anchor="end" x="79" y="4.199999999999999" style="font-family: 'Open Sans', verdana, arial, sans-serif; font-size: 12px; fill: rgb(42, 63, 95); fill-opacity: 1; white-space: pre; opacity: 1;" transform="translate(0,237)">0</text></g><g class="ytick"><text text-anchor="end" x="79" y="4.199999999999999" style="font-family: 'Open Sans', verdana, arial, sans-serif; font-size: 12px; fill: rgb(42, 63, 95); fill-opacity: 1; white-space: pre; opacity: 1;" transform="translate(0,173.75)">50</text></g><g class="ytick"><text text-anchor="end" x="79" y="4.199999999999999" style="font-family: 'Open Sans', verdana, arial, sans-serif; font-size: 12px; fill: rgb(42, 63, 95); fill-opacity: 1; white-space: pre; opacity: 1;" transform="translate(0,110.5)">100</text></g></g><g class="overaxes-above"/></g></g><g class="polarlayer"/><g class="smithlayer"/><g class="ternarylayer"/><g class="geolayer"/><g class="funnelarealayer"/><g class="pielayer"/><g class="iciclelayer"/><g class="treemaplayer"/><g class="sunburstlayer"/><g class="glimages"/><defs id="topdefs-028f3e"><g class="clips"/><clipPath id="legend028f3e"><rect width="102" height="67" x="0" y="0"/></clipPath></defs><g class="layer-above"><g class="imagelayer"/><g class="shapelayer"/></g><g class="infolayer"><g class="legend" pointer-events="all" transform="translate(585.9200000000001,100)"><rect class="bg" shape-rendering="crispEdges" width="102" height="67" x="0" y="0" style="stroke: rgb(68, 68, 68); stroke-opacity: 1; fill: rgb(255, 255, 255); fill-opacity: 1; stroke-width: 0px;"/><g class="scrollbox" transform="" clip-path="url(#legend028f3e)"><g class="groups"><g class="traces" transform="translate(0,14.5)" style="opacity: 1;"><text class="legendtext" text-anchor="start" x="40" y="4.680000000000001" style="font-family: 'Open Sans', verdana, arial, sans-serif; font-size: 12px; fill: rgb(42, 63, 95); fill-opacity: 1; white-space: pre;">BESS</text><g class="layers" style="opacity: 0.5;"><g class="legendfill"/><g class="legendlines"><path class="js-line" d="M5,0h30" style="fill: none; stroke: rgb(0, 191, 255); stroke-opacity: 1; stroke-width: 2px;"/></g><g class="legendsymbols"><g class="legendpoints"/></g></g><rect class="legendtoggle" x="0" y="-9.5" width="96.6875" height="19" style="fill: rgb(0, 0, 0); fill-opacity: 0;"/></g><g class="traces" transform="translate(0,33.5)" style="opacity: 1;"><text class="legendtext" text-anchor="start" x="40" y="4.680000000000001" style="font-family: 'Open Sans', verdana, arial, sans-serif; font-size: 12px; fill: rgb(42, 63, 95); fill-opacity: 1; white-space: pre;">Solar</text><g class="layers" style="opacity: 0.5;"><g class="legendfill"/><g class="legendlines"><path class="js-line" d="M5,0h30" style="fill: none; stroke: rgb(255, 0, 0); stroke-opacity: 1; stroke-width: 2px;"/></g><g class="legendsymbols"><g class="legendpoints"/></g></g><rect class="legendtoggle" x="0" y="-9.5" width="96.6875" height="19" style="fill: rgb(0, 0, 0); fill-opacity: 0;"/></g><g class="traces" transform="translate(0,52.5)" style="opacity: 1;"><text class="legendtext" text-anchor="start" x="40" y="4.680000000000001" style="font-family: 'Open Sans', verdana, arial, sans-serif; font-size: 12px; fill: rgb(42, 63, 95); fill-opacity: 1; white-space: pre;">Grid Meter</text><g class="layers" style="opacity: 0.5;"><g class="legendfill"/><g class="legendlines"><path class="js-line" d="M5,0h30" style="fill: none; stroke: rgb(0, 128, 0); stroke-opacity: 1; stroke-width: 2px;"/></g><g class="legendsymbols"><g class="legendpoints"/></g></g><rect class="legendtoggle" x="0" y="-9.5" width="96.6875" height="19" style="fill: rgb(0, 0, 0); fill-opacity: 0;"/></g></g></g><rect class="scrollbar" rx="20" ry="3" width="0" height="0" x="0" y="0" style="fill: rgb(128, 139, 164); fill-opacity: 1;"/></g><g class="g-gtitle"><text class="gtitle" x="328" y="50" text-anchor="middle" dy="0em" style="font-family: 'Open Sans', verdana, arial, sans-serif; font-size: 17px; fill: rgb(42, 63, 95); opacity: 1; font-weight: normal; white-space: pre;"><tspan class="line" dy="0em" x="328" y="50">Scenario 4</tspan><tspan class="line" dy="1.3em" x="328" y="50">Microgrid Output</tspan><tspan class="line" dy="2.6em" x="328" y="50">From: March 01, 2022 to February 28, 2023</tspan></text></g><g class="g-xtitle"><text class="xtitle" x="328" y="460.8" text-anchor="middle" style="font-family: 'Open Sans', verdana, arial, sans-serif; font-size: 14px; fill: rgb(42, 63, 95); opacity: 1; font-weight: normal; white-space: pre;">Time</text></g><g class="g-ytitle"><text class="ytitle" transform="rotate(-90,27.168750000000003,260)" x="27.168750000000003" y="260" text-anchor="middle" style="font-family: 'Open Sans', verdana, arial, sans-serif; font-size: 14px; fill: rgb(42, 63, 95); opacity: 1; font-weight: normal; white-space: pre;">Demand (kW)</text></g></g></svg>