<svg class="main-svg" xmlns="http://www.w3.org/2000/svg" xmlns:xlink="http://www.w3.org/1999/xlink" width="700" height="500" style="" viewBox="0 0 700 500"><rect x="0" y="0" width="700" height="500" style="fill: rgb(255, 255, 255); fill-opacity: 1;"/><defs id="defs-b2a65d"><g class="clips"><clipPath id="clipb2a65dxyplot" class="plotclip"><rect width="540" height="320"/></clipPath><clipPath class="axesclip" id="clipb2a65dx"><rect x="80" y="0" width="540" height="500"/></clipPath><clipPath class="axesclip" id="clipb2a65dy"><rect x="0" y="100" width="700" height="320"/></clipPath><clipPath class="axesclip" id="clipb2a65dxy"><rect x="80" y="100" width="540" height="320"/></clipPath></g><g class="gradients"/><g class="patterns"/></defs><g class="bglayer"/><g class="layer-below"><g class="imagelayer"/><g class="shapelayer"/></g><g class="cartesianlayer"><g class="subplot xy"><g class="layer-subplot"><g class="shapelayer"/><g class="imagelayer"/></g><g class="minor-gridlayer"><g class="x"/><g class="y"/></g><g class="gridlayer"><g class="x"><path class="xgrid crisp" transform="translate(152.03,0)" d="M0,100v320" style="stroke: rgb(255, 255, 255); stroke-opacity: 1; stroke-width: 1px;"/><path class="xgrid crisp" transform="translate(278.07,0)" d="M0,100v320" style="stroke: rgb(255, 255, 255); stroke-opacity: 1; stroke-width: 1px;"/><path class="xgrid crisp" transform="translate(404.11,0)" d="M0,100v320" style="stroke: rgb(255, 255, 255); stroke-opacity: 1; stroke-width: 1px;"/><path class="xgrid crisp" transform="translate(530.1600000000001,0)" d="M0,100v320" style="stroke: rgb(255, 255, 255); stroke-opacity: 1; stroke-width: 1px;"/></g><g class="y"><path class="ygrid crisp" transform="translate(0,385.19)" d="M80,0h540" style="stroke: rgb(255, 255, 255); stroke-opacity: 1; stroke-width: 1px;"/><path class="ygrid crisp" transform="translate(0,340.83000000000004)" d="M80,0h540" style="stroke: rgb(255, 255, 255); stroke-opacity: 1; stroke-width: 1px;"/><path class="ygrid crisp" transform="translate(0,296.48)" d="M80,0h540" style="stroke: rgb(255, 255, 255); stroke-opacity: 1; stroke-width: 1px;"/><path class="ygrid crisp" transform="translate(0,252.13)" d="M80,0h540" style="stroke: rgb(255, 255, 255); stroke-opacity: 1; stroke-width: 1px;"/><path class="ygrid crisp" transform="translate(0,207.78)" d="M80,0h540" style="stroke: rgb(255, 255, 255); stroke-opacity: 1; stroke-width: 1px;"/><path class="ygrid crisp" transform="translate(0,163.42000000000002)" d="M80,0h540" style="stroke: rgb(255, 255, 255); stroke-opacity: 1; stroke-width: 1px;"/></g></g><g class="zerolinelayer"><path class="yzl zl crisp" transform="translate(0,119.07)" d="M80,0h540" style="stroke: rgb(255, 255, 255); stroke-opacity: 1; stroke-width: 2px;"/></g><path class="xlines-below"/><path class="ylines-below"/><g class="overlines-below"/><g class="xaxislayer-below"/><g class="yaxislayer-below"/><g class="overaxes-below"/><g class="plot" transform="translate(80,100)" clip-path="url(#clipb2a65dxyplot)"><g class="scatterlayer mlayer"><g class="trace scatter trace192710" style="stroke-miterlimit: 2; opacity: 0.5;"><g class="fills"/><g class="errorbars"/><g class="lines"><path class="js-line" d="M0,52.33L0.19,54.77L0.75,52.33L0.94,49.88L1.5,52.65L1.88,52.33L2.06,52.34L3.38,50.13L3.56,54.73L3.75,49.03L4.31,52.31L4.5,54.76L6,18.99L6.19,19.33L6.38,18.94L6.56,19.37L6.75,53.82L7.13,17L7.69,21.04L7.88,19.11L8.07,26.46L8.25,16.96L8.44,19.14L8.63,19.06L8.82,18.73L9.38,19.15L9.57,19.01L10.88,19.17L11.07,18.98L12,19.11L12.19,19.13L13.32,19.48L13.5,27.21L14.25,52.42L14.63,52.32L14.82,52.38L16.13,52.33L16.32,52.36L18.57,52.18L18.76,52.36L21.19,51.79L21.38,52.33L22.32,50.51L22.51,43.86L22.7,37.83L22.88,54.27L23.07,19.55L24.01,19.03L24.2,18.98L24.38,19.31L24.57,18.75L24.95,18.98L25.13,21.52L25.51,16.67L25.7,19.43L25.88,25.51L26.07,16.46L26.63,19.49L26.82,25.09L27.2,16.6L27.57,19.05L27.76,19.49L28.89,18.36L29.07,35.26L29.26,35.23L29.45,16.9L29.82,22.14L30.01,37.17L30.2,17.54L30.76,19.23L30.95,19.18L31.14,20.17L31.32,19.3L31.51,34.46L31.7,52.69L32.26,52.34L32.45,52.32L33.39,52.33L33.57,51.95L34.51,52.32L34.7,52.36L37.7,52.11L37.89,52.34L38.64,51.24L38.83,52.03L39.2,52.34L39.39,52.13L39.58,51.7L39.95,50.81L40.14,52.05L40.51,49.82L40.7,45.59L41.26,54.78L41.64,52.65L41.83,52.32L42.01,50.49L42.2,21.88L42.58,18.7L42.95,19.57L43.14,19.1L43.89,18.79L44.08,19.19L44.45,31.15L44.64,27.41L44.83,16.68L45.2,21.52L45.39,18.72L45.58,16.76L46.14,21.56L46.52,19.04L46.7,16.64L46.89,19.45L47.45,19.14L47.64,19.02L49.14,19.33L49.33,53.83L49.89,52.34L50.08,44.14L50.46,52.37L51.02,52.33L51.21,52.68L52.14,52.3L52.33,52.34L53.46,52.27L53.64,51.25L54.21,52.34L54.39,52.25L54.58,50.8L55.14,52.23L55.33,52.05L55.52,51.02L56.27,52.35L56.46,52.04L56.64,51.59L56.83,50.85L57.02,51.18L57.21,54.75L57.39,48.91L57.96,52.34L58.15,54.41L59.08,45.45L59.27,52.46L59.83,52.17L60.02,23.62L60.21,53.83L60.58,17.58L60.77,18.88L62.08,19.13L62.27,18.89L62.83,17.2L63.21,45.93L63.4,44.64L63.58,45.82L63.77,17.34L64.52,19.39L64.71,19.06L64.9,18.78L65.09,18.65L65.27,19.15L65.46,19.71L66.02,18.78L66.4,19.01L66.59,19.33L67.34,18.84L67.52,19.16L67.71,19.24L68.46,52.39L69.02,52.35L69.21,52.31L71.65,52.31L71.84,50.77L72.03,50.5L72.21,52.24L73.53,52.33L73.71,51.33L74.28,51.01L74.46,52.33L74.84,51.17L75.03,52.67L75.21,52.35L75.4,52.34L76.71,52.69L76.9,51.93L77.28,52.33L77.46,41.15L77.65,41.5L77.84,41.22L78.03,54.41L78.21,52.29L78.4,27.23L78.59,54.49L78.96,52.28L79.15,17.88L79.9,19.23L80.09,18.98L80.28,19L80.47,19.4L81.03,19.1L81.22,19.05L81.4,21.54L81.59,19.04L81.78,16L82.34,19.41L82.72,19.08L82.9,19.07L84.59,19.22L84.78,53.85L84.97,52.44L85.15,17.65L85.72,20.81L85.9,31.27L86.28,52.4L86.84,52.28L87.03,52.37L88.53,52.29L88.72,52.72L89.66,52.34L89.84,52.35L90.03,52.29L90.22,51.15L90.41,52.39L90.97,51.83L91.16,52.13L91.34,52.33L91.53,51.87L91.72,50.9L92.28,52.35L92.47,52.1L92.66,51.68L93.03,50.41L93.22,51L93.41,52.64L93.59,50.62L93.78,52.69L94.16,52.33L94.35,54.74L94.72,37.71L94.91,52.52L95.1,52.3L95.28,54.73L95.47,51.95L95.66,19.06L95.85,18.67L96.22,18.98L96.41,19.38L96.97,18.99L97.16,19.61L97.35,18.66L97.72,18.97L97.91,19.89L98.47,18.77L98.66,18.98L98.85,23.66L99.03,25.96L99.22,18.51L99.41,16.73L99.78,19.17L99.97,19.02L100.53,19.32L100.72,46.22L101.29,79.62L101.47,50.67L101.66,52.45L102.22,51.65L102.41,52.32L102.6,52.31L105.6,52.36L105.79,52.27L107.66,52.29L107.85,52.36L109.73,52.31L109.91,50.7L110.66,54.76L110.85,47.74L111.41,52.69L111.79,51.01L111.98,50.33L112.16,49.63L112.35,51.6L112.54,51.56L113.29,55.19L113.48,49.54L114.04,54.75L114.23,52.33L114.41,49.93L114.6,52.23L114.79,31.94L115.16,18.69L115.54,19.07L115.73,30.65L115.92,50.16L116.1,17.78L116.29,19.36L116.48,18.67L116.85,19.41L117.23,19.1L117.42,18.36L117.79,21.39L117.98,51.83L118.35,52.69L118.73,52.23L118.92,59.69L119.1,58.73L119.29,32.68L119.48,22.59L119.67,49.06L119.85,51.88L120.04,52.72L120.6,52.39L120.79,52.34L125.86,52.35L126.04,54.76L126.61,49.89L126.98,52.37L127.17,52.31L128.86,52.26L129.04,51.89L129.23,51.06L129.42,52.33L129.8,51.79L129.98,54.78L130.17,49.89L130.73,51.61L130.92,51.83L131.11,54.85L131.48,50.28L131.67,52.06L131.86,52.36L132.05,52.72L132.61,52.37L132.8,52.3L133.17,52.37L133.36,54.35L133.73,49.86L134.11,52.36L134.3,52.57L134.48,52.76L134.67,52.32L134.86,33.29L135.05,186.79L135.61,128.55L135.8,121.71L136.73,184.84L136.92,167.69L137.11,170.25L137.49,168.9L137.67,164.18L139.17,107.85L139.36,103.59L139.74,99.59L139.92,95.05L140.11,96.12L140.3,93.9L140.49,198.36L140.67,202.57L140.86,201.51L141.05,83.03L141.42,82L141.61,76.49L142.74,63.58L142.92,65.22L143.86,58.62L144.05,61.01L145.18,54.38L145.36,55.99L145.74,55.9L145.93,57.48L146.11,54.43L146.3,52.61L146.49,53.09L146.68,178.82L147.43,52.04L147.61,52.4L147.8,52.23L148.18,53.74L148.36,50.85L148.74,52.29L148.93,51.92L149.11,74.78L149.68,92L149.86,81.9L150.05,199.26L150.61,101.39L150.8,109.98L150.99,94.19L151.18,201.77L151.37,203.55L151.55,98.3L152.87,148.22L153.05,265.07L153.24,283.56L153.43,159.49L153.62,152.65L153.8,166.88L153.99,168.03L154.18,150.86L154.37,270.61L154.55,267.77L154.74,160.36L154.93,138.22L155.12,164.84L155.3,162.41L155.49,160.4L155.68,160.68L155.87,152.08L156.05,151.37L156.24,259.01L156.8,220.3L156.99,108.92L157.74,100.35L157.93,115.57L158.12,114.75L158.3,110.4L158.68,108.17L158.87,103.8L159.06,106.17L159.24,102.6L159.43,100.35L159.99,69.46L160.37,69.63L160.56,65.7L160.74,69.11L160.93,67.01L161.12,61.98L161.31,66.99L161.68,59.31L161.87,62.25L162.06,64.57L162.43,58.66L162.81,58.76L162.99,59.77L163.37,54.38L163.56,56.51L163.74,60.14L164.87,52.38L165.06,52.82L165.24,55.68L165.62,52.17L165.81,51.66L166,51.79L166.18,163.87L166.37,165.52L166.56,54.24L167.87,108.56L168.06,112.97L168.81,154.7L169,144.96L169.18,140.3L169.56,176.1L169.93,156.67L170.12,162.23L170.31,166.17L170.5,155.41L170.68,159.68L170.87,155.22L171.43,155.19L171.81,170.27L172,167.33L172.56,141.76L172.75,166.09L172.94,182.7L173.12,300.58L173.31,304L173.5,193.22L174.81,19.25L175,19.06L175.19,18.85L175.37,21.36L176.12,184.21L176.31,92.95L176.87,110.38L177.25,105.8L177.44,105.64L178.75,66.6L178.94,67.56L180.06,60.19L180.25,64.81L181.19,56.48L181.38,61.09L181.75,53.02L181.94,166.01L182.13,186.15L182.31,75.36L182.69,71.62L182.88,56.55L183.06,57.72L183.25,54.64L183.44,54.6L183.63,52.66L184,56.12L184.19,55.42L184.38,67.02L184.94,59.42L185.13,35.1L185.5,35.71L186.25,18.95L186.44,18.67L186.63,52.18L187,16.97L187.19,19.02L187.38,19.41L188.32,18.72L188.5,19.39L189.44,19.02L189.63,19.13L190.57,18.66L190.75,23.35L191.13,39.94L191.32,17.17L191.5,19.06L193.19,19.46L193.38,22.01L193.94,52.45L194.51,51.98L194.69,52.46L195.63,52.29L195.82,52.32L202.38,52.33L202.57,48.75L204.07,18.63L204.26,19L204.45,19.35L204.82,18.99L205.01,19.39L205.2,44.25L206.13,16.65L206.32,19.21L207.26,18.69L207.45,19.82L208.01,18.81L208.38,19.16L208.57,19.01L211.01,19.17L211.2,19.14L211.39,19.14L211.57,38.8L212.51,52.68L212.7,52.43L213.07,52.42L213.26,54.31L213.82,49.87L214.01,52.33L214.2,52.37L214.39,51.95L214.95,52.32L215.14,52.29L216.64,52.34L216.83,52.33L218.51,52.36L218.7,51.98L219.64,52.33L219.83,52.34L220.01,52.35L220.2,54.76L221.14,37.5L221.51,37.77L221.7,38.27L221.89,39.05L222.08,27.06L222.64,18.93L222.83,19.32L223.01,19.05L224.14,19.02L224.33,21.56L224.52,16.58L225.08,21.55L225.27,16.63L226.2,25.49L226.39,16.84L226.58,18.94L226.77,32.63L227.14,16.37L227.52,19.07L227.7,24.85L227.89,52.63L228.45,52.26L228.64,52.37L230.14,52.33L230.33,52.67L231.27,52.31L231.46,52.36L231.64,51.93L232.21,52.28L232.39,52.33L236.14,52.09L236.33,51.1L236.89,54.76L237.08,52.32L237.27,52.34L237.46,49.46L238.02,51.9L238.21,51.94L238.4,51.7L238.58,52.67L238.77,54.76L239.15,49.99L239.52,52.36L239.71,52.36L240.46,51.98L240.65,52.73L241.4,52.36L241.58,48.41L241.77,30.32L242.15,49.49L242.33,52.74L242.71,149.05L243.08,132.82L243.27,129.82L243.46,129.15L243.65,118.64L243.83,117.7L244.02,121.02L244.58,129.31L244.77,126.15L244.96,126.63L245.34,235.37L245.71,141.28L245.9,133.59L246.09,130.98L246.27,242.67L246.46,244.1L246.65,132.65L247.4,98.42L247.59,90.53L247.77,85.4L248.34,86.22L248.52,86.75L249.84,70.68L250.02,65.86L250.4,77.98L250.96,75.83L251.15,75.74L252.09,56.46L252.28,58.31L252.46,60.4L252.65,58L252.84,53.58L253.21,59.19L253.59,54.81L253.78,52.4L254.15,56.98L254.34,52.37L254.53,51.95L254.9,50.12L255.09,51.76L255.28,53.59L256.03,50.48L256.21,51.08L256.4,54.24L256.78,51.19L256.96,53.78L257.15,168.77L257.9,74.44L258.09,82.69L258.46,71.02L258.65,81.12L258.84,87.94L259.03,109.07L259.22,219.49L259.4,221.8L259.59,126.08L259.78,118.11L260.15,130.04L260.34,123.85L260.53,125.11L261.28,105.81L261.47,108.32L261.65,116.07L262.03,109.61L262.22,118.36L262.4,124.16L263.15,132.61L263.34,251.02L263.72,252.16L263.9,132.1L264.84,122.94L265.03,133.23L267.28,73.91L267.47,77.29L267.66,74.7L267.84,82.88L268.22,85.32L268.41,82.78L268.59,80.26L268.97,77.42L269.16,61.06L269.34,63.57L269.72,58.66L269.91,57.74L270.28,60.07L270.47,56.38L270.66,54.58L271.03,57.09L271.22,57.59L271.41,53.41L271.59,54L271.78,71.25L271.97,70.87L272.16,68.33L272.34,51.68L272.91,54.31L273.09,51.73L273.28,49.39L273.66,50.02L273.85,54.1L274.03,69.54L274.41,67.55L274.6,176.95L274.78,162.59L274.97,54.92L275.35,61.68L275.53,73.72L275.91,88.86L276.1,215.26L276.66,240.78L276.85,124.93L277.03,123.98L277.22,107.4L277.41,101.72L277.6,111.01L277.78,130.23L278.72,123.01L278.91,124.04L279.1,109.18L279.28,222.78L279.66,246.71L279.85,145.33L280.22,156.91L280.41,278.45L280.6,280.57L280.78,256.08L280.97,149.35L281.16,261.28L281.35,260.41L281.54,268.4L282.1,137.73L282.29,156.86L282.47,154.88L282.66,151.27L282.85,152.56L283.04,129.64L283.22,124.65L283.41,139.49L283.6,132.78L283.79,134.12L284.35,123.71L284.54,135.54L284.72,137.45L284.91,137.33L285.1,111.83L285.47,107.17L285.66,88.92L287.16,57.45L287.35,54.36L287.54,55.21L287.72,60.44L287.91,59.45L288.1,54.11L288.48,53.77L288.66,57.38L288.85,55.12L289.04,53.14L289.6,57.39L289.79,163.41L290.35,52.87L290.73,52.98L290.91,51.42L291.29,54.88L291.66,52.9L291.85,50.49L292.04,49.51L292.23,71.19L292.41,71.94L292.6,66.99L292.79,69.37L292.98,68.59L293.16,58.56L293.35,64.39L293.54,62.43L293.73,191.75L293.91,208.57L294.1,96.54L294.48,101.28L294.66,217L294.85,216.03L295.04,100.49L295.79,123.1L295.98,119.39L296.17,112.22L296.35,127.58L296.92,112.37L297.1,104.27L297.29,87.25L297.85,96.33L298.04,99.09L298.23,103.67L298.42,99.95L298.6,212.69L298.79,218.04L298.98,106.87L299.54,248.61L299.73,145.19L300.1,120.83L300.29,215.73L300.85,224.73L301.04,100.01L303.11,68.92L303.29,71.42L303.48,74.36L304.79,54.42L304.98,54.22L305.17,56.27L305.36,55.17L305.54,51.18L305.73,48.26L305.92,51.03L306.11,54.76L306.86,49.17L307.04,49.92L307.23,53.32L307.42,163.88L307.79,49.65L307.98,51.83L308.17,51.63L308.36,49.89L308.92,51.46L309.11,50.63L309.29,49.09L309.48,49.12L309.67,48.31L309.86,50.88L310.42,49.3L310.61,49.09L310.8,49.99L310.98,48.61L311.17,67.74L311.92,54.74L312.11,59.59L312.86,121.06L313.23,106.98L313.42,112.01L313.8,97.9L313.98,109.11L314.17,120.33L314.92,133.11L315.11,127.74L315.3,135.44L315.48,122L315.67,123.11L315.86,123.6L316.05,232.89L316.42,110.2L316.61,112.97L316.99,131.79L317.17,116.65L317.36,107.71L317.74,117.57L317.92,111.81L318.11,103.49L318.49,84.79L319.05,84.83L319.24,85.77L319.42,87.21L319.8,86.37L319.99,191.7L320.17,187.79L320.36,78.65L320.74,70.44L321.3,70.62L321.49,68.79L321.67,67.53L321.86,173.77L322.05,173.08L322.24,64.27L322.61,58.95L322.8,169.18L323.17,170.86L323.36,56.03L323.55,57.73L324.11,56.48L324.3,56.96L324.49,58.82L324.86,55.34L325.05,55.83L325.99,49.11L326.18,48.06L326.55,49.25L326.74,66.14L326.93,66.25L327.11,64.03L327.3,65.28L327.49,175.32L328.05,63.88L328.24,64.82L328.43,80.69L328.8,63.55L328.99,64.31L329.18,83.52L329.36,84.83L329.55,70.47L330.11,73.67L330.3,66.44L330.49,187.78L331.05,69.25L331.24,69.22L331.43,69.21L331.62,183.08L331.8,187.31L331.99,76.17L332.18,70.37L332.37,73.55L332.55,93.2L333.49,121.45L333.68,106.92L333.87,109.52L334.05,95.53L334.24,91.38L334.43,93.59L334.62,101.01L335.18,102.55L335.37,98.52L335.55,105.28L335.74,108.49L335.93,99.72L336.12,88.73L336.49,100.2L337.05,97.29L337.24,93.21L337.62,109.55L337.99,102.78L338.18,100.85L338.37,212.6L338.74,194.08L338.93,79.8L340.43,63.46L340.62,65.44L341.74,58.4L341.93,59.05L342.12,60.22L342.31,56.96L342.49,56.75L342.68,55.14L342.87,57.92L343.06,61.16L344.37,49.03L344.56,48.99L345.12,48.34L345.31,49.13L346.06,48.26L346.25,64.88L347,82.37L347.18,68.75L347.37,69.66L347.56,59.51L349.06,98.72L349.25,101.21L349.43,101.61L349.62,120.85L349.81,123.17L350,237.25L350.18,242.03L350.37,130.49L350.75,135.23L350.93,133.08L351.12,146.51L351.31,146.79L351.5,146.42L351.68,141.43L351.87,145.93L352.06,144.17L352.25,133.02L352.43,133.26L352.62,137.17L353.37,165.93L353.56,165.6L353.75,165.13L354.31,134.83L354.5,245.55L354.87,229.96L355.06,119.38L356.19,95.89L356.37,96.94L357.12,86.69L357.31,80.82L357.5,81.25L357.69,79.61L358.81,63.6L359,63.81L359.56,60.54L359.75,61.72L359.94,62.58L360.5,59.88L360.69,57.87L361.06,53.18L361.25,55.46L361.44,60.33L362.19,51.63L362.38,54.49L362.56,53.79L363.5,51.05L363.69,51.31L364.06,53.5L364.25,51.26L364.44,50L364.63,51.44L364.81,68.37L365,69.07L365.19,58.09L366.13,90.13L366.31,207.29L366.5,216.96L366.69,124.74L366.88,125.78L367.06,136.45L367.44,142.12L367.63,126.57L367.82,133.91L368,101.33L368.75,18.76L368.94,53.9L369.13,17.52L369.69,18.75L369.88,19.02L370.44,19.12L370.63,18.69L370.82,53.93L371.19,17.24L371.75,18.96L371.94,19.03L373.25,19.22L373.44,38.96L374.38,52.45L374.57,52.28L376.26,52.35L376.44,52.32L382.26,52.27L382.45,50.33L382.63,47.74L382.82,54.71L383.01,40.76L383.76,52.7L383.95,52.28L384.13,31.11L384.7,24.96L384.88,127.16L385.07,69.18L385.26,20.65L385.45,19.08L385.63,28.49L385.82,52.27L386.2,17.61L386.38,19.05L386.76,18.55L387.32,19.36L387.51,19.36L387.7,54.19L388.26,52.18L388.45,52.32L389.2,19.04L389.39,19.14L389.57,18.95L389.76,19.41L389.95,29.24L390.14,52.59L390.7,50.47L390.89,43.01L391.26,41.92L391.45,54.09L391.64,52.42L391.82,104.81L392.01,158.69L392.2,59.45L392.39,72.24L392.57,74.4L392.95,86.81L393.32,85.09L393.51,82.45L394.45,69.2L394.64,72.35L394.82,71.91L395.01,65.85L395.2,67.95L395.57,64.06L395.76,63.73L397.26,60.34L397.45,59.34L397.83,56.12L398.2,57.5L398.39,59.8L398.58,59.68L398.76,56.17L398.95,55.6L399.14,57.1L399.33,57.76L399.51,52.61L400.08,54.41L400.26,52.74L400.45,47.5L400.64,62.04L400.83,74.65L401.2,166.5L401.39,47.55L401.58,19.41L402.33,18.91L402.51,19.13L402.7,19.33L403.08,19.68L403.64,18.8L403.83,18.91L404.2,18.62L404.58,19.39L404.77,19.07L404.95,19.13L405.14,18.98L405.33,54.19L405.52,52.27L405.7,17.66L405.89,18.95L406.08,18.87L406.27,53.53L406.64,44.53L406.83,39.94L407.2,16.84L407.39,19.17L407.58,36.45L408.14,16.73L408.7,19.17L408.89,19.15L409.08,53.98L409.64,34.45L409.83,49.64L410.2,52.46L410.58,52.39L410.77,52.05L411.71,52.32L411.89,52.28L414.14,52.34L414.33,52.34L415.64,51.88L415.83,50.65L416.21,52.34L416.39,50.42L416.58,50.11L417.33,52.67L417.52,52.31L417.71,48.85L418.27,51.73L418.46,47.13L418.83,41.47L419.02,51.41L419.4,54.31L419.58,17.18L420.15,19.38L420.33,18.99L421.46,19.01L421.65,19.45L422.02,19.06L422.21,21.17L422.4,19.05L422.58,19.12L422.77,49.38L422.96,17.38L423.52,18.71L423.71,18.78L424.84,19.49L425.02,18.74L425.77,19.09L425.96,18.63L426.34,19.44L426.9,19.06L427.09,19.22L427.46,18.87L427.65,31.78L428.4,52.46L428.59,52.38L428.77,52.34L432.34,52.35L432.53,52.32L433.84,52.36L434.03,51.77L434.4,52.04L435.15,49.01L435.34,51.94L435.53,52.07L435.71,51.39L435.9,50.08L436.09,48.8L436.28,49.11L436.46,54.65L437.78,18.98L437.96,19.01L438.71,19.01L438.9,34.02L439.09,16.78L439.65,19.4L439.84,18.72L440.4,19.41L440.59,49.24L440.78,51.51L440.97,17.16L441.15,19.16L441.72,19.05L441.9,19.05L442.09,18.73L442.65,19.07L442.84,19.05L443.22,19.09L443.4,18.73L443.59,39.48L443.78,37.47L443.97,17.14L444.72,19.16L444.9,19.14L445.09,19.13L445.28,19.19L445.47,53.89L445.84,52.43L446.03,35.73L446.59,52.41L446.97,52.31L447.16,52.32L453.16,52.33L453.34,50.89L454.1,52.3L454.28,50.16L454.66,46.72L454.85,42.43L455.03,38.99L455.22,54.61L455.97,18.62L456.16,19.36L456.35,19.33L457.28,18.69L457.47,19.05L458.03,16.65L458.22,26.24L458.41,21.95L458.6,16.34L458.97,21.55L459.53,19.09L459.72,19.38L460.85,18.68L461.04,19.41L461.79,18.71L461.97,19.01L462.16,19.03L462.35,53.37L462.72,17.62L462.91,18.83L463.47,19.32L463.66,28.57L464.6,52.45L464.79,52.31L466.47,52.37L466.66,52.31L471.91,52.4L472.1,51.98L472.48,51.31L472.66,52.6L473.04,52.16L473.23,52.24L473.41,49.14L473.6,20.67L474.54,18.96L474.73,19.06L475.1,18.95L475.29,40.25L475.48,44.55L475.67,17.44L476.6,19.4L476.79,19.43L477.73,18.79L477.92,53.48L478.48,52.07L478.67,17.41L478.85,53.97L479.42,19.14L479.6,19.42L479.79,19.01L479.98,53.74L480.17,52.8L480.35,17.5L481.29,19.14L481.48,24.66L481.67,22.45L481.85,42.17L482.23,52.48L482.61,52.42L482.79,52.38L484.48,52.28L484.67,52.36L488.23,52.31L488.42,52.35L489.73,52.69L489.92,51.78L490.11,54.74L490.3,49.92L490.48,52.32L490.67,48.56L490.86,46.96L491.05,52.59L491.42,52.38L491.61,36.36L492.17,19.08L492.36,53.71L492.92,50.32L493.11,17.31L493.86,19.41L494.05,19.13L494.23,19.02L496.67,19.15L496.86,19.09L498.74,19.03L498.92,19.2L499.49,19.22L499.67,23.99L500.24,52.41L500.61,52.38L500.8,52.4L502.3,52.35L502.49,52.35L505.3,52.3L505.49,52.36L507.55,52.33L507.74,52.34L508.11,52.36L508.3,51.19L508.49,49L508.68,54.71L508.86,50.23L509.05,52.36L509.43,52.58L509.99,37.37L510.18,53.78L510.36,17.07L510.93,18.96L511.11,19.38L511.49,18.99L511.68,50.17L511.87,17.73L512.43,19.01L512.62,19.08L514.87,19.36L515.05,19.49L515.99,19.04L516.18,19.02L516.55,18.74L516.74,19.54L517.12,19.14L517.3,20.11L517.49,28.63L518.24,52.44L518.43,52.37L518.62,52.4L518.81,51.99L519.37,52.41L519.56,52.33L526.31,52.28L526.5,51.27L527.06,38.59L527.25,39.51L527.43,54.45L528.18,18.94L528.37,19.11L528.56,18.58L528.75,19.03L528.93,52.15L529.31,17.21L529.87,19.05L530.06,18.98L530.25,35.03L530.62,16.67L530.81,18.96L531,19.89L531.18,18.96L531.37,48.3L531.56,17.48L532.12,20.82L532.31,22.11L532.5,16.81L533.06,19.25L533.25,42.86L534.37,16.74L534.56,19.15L534.75,19.46L535.31,19.09L535.5,19.14L535.87,36.87L536.06,47.83L536.81,52.75L537,52.32L537.75,52.29L537.94,52.37L539.62,52.27L539.81,52.39L540,52.32" style="vector-effect: non-scaling-stroke; fill: none; stroke: rgb(0, 191, 255); stroke-opacity: 1; stroke-width: 2px; opacity: 1;"/></g><g class="points"/><g class="text"/></g></g></g><g class="overplot"/><path class="xlines-above crisp" d="M0,0" style="fill: none;"/><path class="ylines-above crisp" d="M0,0" style="fill: none;"/><g class="overlines-above"/><g class="xaxislayer-above"><g class="xtick"><text text-anchor="middle" x="0" y="433" transform="translate(152.03,0)" style="font-family: 'Open Sans', verdana, arial, sans-serif; font-size: 12px; fill: rgb(42, 63, 95); fill-opacity: 1; white-space: pre; opacity: 1;"><tspan class="line" dy="0em" x="0" y="433">Jun 5</tspan><tspan class="line" dy="1.3em" x="0" y="433">2022</tspan></text></g><g class="xtick"><text text-anchor="middle" x="0" y="433" style="font-family: 'Open Sans', verdana, arial, sans-serif; font-size: 12px; fill: rgb(42, 63, 95); fill-opacity: 1; white-space: pre; opacity: 1;" transform="translate(278.07,0)">Jun 12</text></g><g class="xtick"><text text-anchor="middle" x="0" y="433" style="font-family: 'Open Sans', verdana, arial, sans-serif; font-size: 12px; fill: rgb(42, 63, 95); fill-opacity: 1; white-space: pre; opacity: 1;" transform="translate(404.11,0)">Jun 19</text></g><g class="xtick"><text text-anchor="middle" x="0" y="433" style="font-family: 'Open Sans', verdana, arial, sans-serif; font-size: 12px; fill: rgb(42, 63, 95); fill-opacity: 1; white-space: pre; opacity: 1;" transform="translate(530.1600000000001,0)">Jun 26</text></g></g><g class="yaxislayer-above"><g class="ytick"><text text-anchor="end" x="79" y="4.199999999999999" transform="translate(0,385.19)" style="font-family: 'Open Sans', verdana, arial, sans-serif; font-size: 12px; fill: rgb(42, 63, 95); fill-opacity: 1; white-space: pre; opacity: 1;">−120</text></g><g class="ytick"><text text-anchor="end" x="79" y="4.199999999999999" style="font-family: 'Open Sans', verdana, arial, sans-serif; font-size: 12px; fill: rgb(42, 63, 95); fill-opacity: 1; white-space: pre; opacity: 1;" transform="translate(0,340.83000000000004)">−100</text></g><g class="ytick"><text text-anchor="end" x="79" y="4.199999999999999" style="font-family: 'Open Sans', verdana, arial, sans-serif; font-size: 12px; fill: rgb(42, 63, 95); fill-opacity: 1; white-space: pre; opacity: 1;" transform="translate(0,296.48)">−80</text></g><g class="ytick"><text text-anchor="end" x="79" y="4.199999999999999" style="font-family: 'Open Sans', verdana, arial, sans-serif; font-size: 12px; fill: rgb(42, 63, 95); fill-opacity: 1; white-space: pre; opacity: 1;" transform="translate(0,252.13)">−60</text></g><g class="ytick"><text text-anchor="end" x="79" y="4.199999999999999" style="font-family: 'Open Sans', verdana, arial, sans-serif; font-size: 12px; fill: rgb(42, 63, 95); fill-opacity: 1; white-space: pre; opacity: 1;" transform="translate(0,207.78)">−40</text></g><g class="ytick"><text text-anchor="end" x="79" y="4.199999999999999" style="font-family: 'Open Sans', verdana, arial, sans-serif; font-size: 12px; fill: rgb(42, 63, 95); fill-opacity: 1; white-space: pre; opacity: 1;" transform="translate(0,163.42000000000002)">−20</text></g><g class="ytick"><text text-anchor="end" x="79" y="4.199999999999999" style="font-family: 'Open Sans', verdana, arial, sans-serif; font-size: 12px; fill: rgb(42, 63, 95); fill-opacity: 1; white-space: pre; opacity: 1;" transform="translate(0,119.07)">0</text></g></g><g class="overaxes-above"/></g></g><g class="polarlayer"/><g class="smithlayer"/><g class="ternarylayer"/><g class="geolayer"/><g class="funnelarealayer"/><g class="pielayer"/><g class="iciclelayer"/><g class="treemaplayer"/><g class="sunburstlayer"/><g class="glimages"/><defs id="topdefs-b2a65d"><g class="clips"/></defs><g class="layer-above"><g class="imagelayer"/><g class="shapelayer"/></g><g class="infolayer"><g class="g-gtitle"><text class="gtitle" x="350" y="50" text-anchor="middle" dy="0em" style="font-family: 'Open Sans', verdana, arial, sans-serif; font-size: 17px; fill: rgb(42, 63, 95); opacity: 1; font-weight: normal; white-space: pre;"><tspan class="line" dy="0em" x="350" y="50">Scenario 8</tspan><tspan class="line" dy="1.3em" x="350" y="50">Microgrid Output</tspan><tspan class="line" dy="2.6em" x="350" y="50">From: June 01, 2022 to June 30, 2022</tspan></text></g><g class="g-xtitle"><text class="xtitle" x="350" y="476.409375" text-anchor="middle" style="font-family: 'Open Sans', verdana, arial, sans-serif; font-size: 14px; fill: rgb(42, 63, 95); opacity: 1; font-weight: normal; white-space: pre;">Time</text></g><g class="g-ytitle"><text class="ytitle" transform="rotate(-90,27.168750000000003,260)" x="27.168750000000003" y="260" text-anchor="middle" style="font-family: 'Open Sans', verdana, arial, sans-serif; font-size: 14px; fill: rgb(42, 63, 95); opacity: 1; font-weight: normal; white-space: pre;">Demand (kW)</text></g></g></svg>