<svg class="main-svg" xmlns="http://www.w3.org/2000/svg" xmlns:xlink="http://www.w3.org/1999/xlink" width="700" height="500" style="" viewBox="0 0 700 500"><rect x="0" y="0" width="700" height="500" style="fill: rgb(255, 255, 255); fill-opacity: 1;"/><defs id="defs-8f964a"><g class="clips"><clipPath id="clip8f964axyplot" class="plotclip"><rect width="435" height="320"/></clipPath><clipPath class="axesclip" id="clip8f964ax"><rect x="80" y="0" width="435" height="500"/></clipPath><clipPath class="axesclip" id="clip8f964ay"><rect x="0" y="100" width="700" height="320"/></clipPath><clipPath class="axesclip" id="clip8f964axy"><rect x="80" y="100" width="435" height="320"/></clipPath></g><g class="gradients"/><g class="patterns"/></defs><g class="bglayer"/><g class="layer-below"><g class="imagelayer"/><g class="shapelayer"/></g><g class="cartesianlayer"><g class="subplot xy"><g class="layer-subplot"><g class="shapelayer"/><g class="imagelayer"/></g><g class="gridlayer"><g class="x"><path class="xgrid crisp" transform="translate(138.02,0)" d="M0,100v320" style="stroke: rgb(255, 255, 255); stroke-opacity: 1; stroke-width: 1px;"/><path class="xgrid crisp" transform="translate(239.56,0)" d="M0,100v320" style="stroke: rgb(255, 255, 255); stroke-opacity: 1; stroke-width: 1px;"/><path class="xgrid crisp" transform="translate(341.09,0)" d="M0,100v320" style="stroke: rgb(255, 255, 255); stroke-opacity: 1; stroke-width: 1px;"/><path class="xgrid crisp" transform="translate(442.63,0)" d="M0,100v320" style="stroke: rgb(255, 255, 255); stroke-opacity: 1; stroke-width: 1px;"/></g><g class="y"><path class="ygrid crisp" transform="translate(0,363.49)" d="M80,0h435" style="stroke: rgb(255, 255, 255); stroke-opacity: 1; stroke-width: 1px;"/><path class="ygrid crisp" transform="translate(0,300.2)" d="M80,0h435" style="stroke: rgb(255, 255, 255); stroke-opacity: 1; stroke-width: 1px;"/><path class="ygrid crisp" transform="translate(0,173.63)" d="M80,0h435" style="stroke: rgb(255, 255, 255); stroke-opacity: 1; stroke-width: 1px;"/><path class="ygrid crisp" transform="translate(0,110.34)" d="M80,0h435" style="stroke: rgb(255, 255, 255); stroke-opacity: 1; stroke-width: 1px;"/></g></g><g class="zerolinelayer"><path class="yzl zl crisp" transform="translate(0,236.92)" d="M80,0h435" style="stroke: rgb(255, 255, 255); stroke-opacity: 1; stroke-width: 2px;"/></g><path class="xlines-below"/><path class="ylines-below"/><g class="overlines-below"/><g class="xaxislayer-below"/><g class="yaxislayer-below"/><g class="overaxes-below"/><g class="plot" transform="translate(80,100)" clip-path="url(#clip8f964axyplot)"><g class="scatterlayer mlayer"><g class="trace scatter trace8c81cb" style="stroke-miterlimit: 2; opacity: 1;"><g class="fills"/><g class="errorbars"/><g class="lines"><path class="js-line" d="M0,136.92L435,136.92" style="vector-effect: non-scaling-stroke; fill: none; stroke: rgb(0, 191, 255); stroke-opacity: 1; stroke-width: 2px; opacity: 1;"/></g><g class="points"/><g class="text"/></g><g class="trace scatter traced03c76" style="stroke-miterlimit: 2; opacity: 1;"><g class="fills"/><g class="errorbars"/><g class="lines"><path class="js-line" d="M0,137.06L3.32,136.87L3.48,136.23L4.23,114.56L4.38,105.2L6.04,16L6.5,16.14L6.65,16.15L9.52,16.66L9.67,18.2L10.73,75.39L10.88,84.76L12.39,137.07L12.54,137.07L17.83,136.87L17.98,135.88L18.89,105.36L19.04,96.47L20.7,16.15L21,17.21L21.15,20.59L21.3,26.48L21.46,16.18L21.76,16.23L21.91,16.28L24.02,16.5L24.18,17.66L26.74,137.07L26.89,137.07L32.49,136.72L32.64,135.65L34,111.46L34.15,100.08L35.05,25.38L35.2,36.81L35.36,33.55L36.11,16.1L36.26,16.47L36.41,18.38L36.56,16.94L36.72,16.96L36.87,21.41L37.02,21.14L37.17,18.06L37.32,20.34L37.77,16.28L37.92,16.3L38.53,16.39L38.68,17.71L40.34,112.61L40.49,128.34L41.55,137.07L41.7,137.06L47.29,136.68L47.44,135.59L48.35,121.3L48.5,108.67L49.71,45.44L49.86,28.73L50.01,26.28L50.16,31.48L50.31,16.51L51.22,16.11L51.37,16.11L53.03,16.74L53.19,19.91L56.06,137.07L56.21,137.06L61.65,136.78L61.8,136.14L63.76,104.68L63.91,91.24L64.97,16.07L65.12,16.08L67.54,16.43L67.69,18.76L69.35,113.48L69.5,121.85L70.56,137.07L70.71,137.07L76,136.28L76.15,133.37L76.76,115.35L76.91,106.82L78.72,16.22L79.17,16.31L79.32,16.37L80.84,16.55L80.99,20.02L82.04,136.92L82.2,136.92L92.17,136.92L92.32,134.23L93.38,16.32L93.53,16.33L94.74,16.5L94.89,23.59L95.94,136.92L96.1,136.92L139.76,136.92L139.91,128.98L140.82,50.8L140.97,58.71L142.78,137.06L142.94,137.06L148.37,136.9L148.53,136.28L149.43,108.65L149.58,100.3L151.55,16.21L151.7,16.22L151.85,16.27L154.57,17.03L154.72,20.96L157.59,137.07L157.74,137.07L163.03,136.32L163.18,133.81L163.79,116.56L163.94,108.1L165.9,16.13L166.2,16.17L166.35,16.2L169.07,16.43L169.23,18.11L170.74,100.86L170.89,110.24L172.1,137.07L172.25,137.07L177.54,136.77L177.69,136.03L178.9,111.39L179.05,100.74L180.56,16.18L181.01,16.24L181.16,16.34L183.28,16.38L183.43,28.97L184.33,136.92L184.49,136.92L296.3,136.92L296.45,129.12L297.2,16.05L297.35,16.07L297.5,16.13L299.62,16.78L299.77,20.23L300.83,81.73L300.98,107.49L302.04,136.39L302.19,136.97L303.7,137.07L303.85,137.07L308.08,136.49L308.23,134.28L309.29,111.18L309.44,100.59L310.05,105.76L310.65,18.34L310.8,28.44L310.95,28.67L311.1,19.8L311.41,19.78L311.56,40.56L311.71,26.01L311.86,17.05L312.31,45.1L312.46,73.52L312.76,88.13L313.82,16.29L313.97,20.49L314.43,88.78L315.03,88.76L315.18,91.93L315.33,79.59L315.64,93.03L315.79,107.81L317.15,137.08L317.3,137.08L322.43,136.79L322.59,135.54L323.49,107.34L323.64,98.5L325.31,16.01L325.61,16.11L325.76,16.11L327.72,16.44L327.87,16.38L328.78,17.21L328.93,21.74L331.65,137.07L331.8,137.08L337.09,136.3L337.24,134.5L337.85,114.83L338,105.18L339.81,16.13L340.11,16.17L340.26,16.24L343.29,16.6L343.44,18.79L346.16,137.08L346.31,137.08L351.6,136.43L351.75,134.81L352.35,114.09L352.5,103.81L354.16,16.07L354.47,16.11L354.62,16.23L357.34,16.4L357.49,16.32L357.79,16.41L357.94,17.95L359.45,106.4L359.6,115.66L360.66,137.08L360.81,137.08L366.1,136.48L366.25,134.38L366.86,115.02L367.01,105.24L368.82,16.03L369.12,16.14L369.27,16.14L372.3,16.69L372.45,20.35L375.17,137.08L375.32,137.08L380.46,136.93L380.61,136.29L381.51,108.58L381.66,99.9L383.63,16.23L383.78,16.37L383.93,16.39L385.29,16.51L385.44,16.55L386.2,16.88L386.35,20.27L386.65,17.59L389.67,137.08L389.82,137.08L395.11,136.5L395.26,134.2L395.87,116.94L396.02,108.08L397.98,16.21L398.28,16.31L398.44,16.36L401.15,16.56L401.31,17.83L402.51,79.56L402.67,89.5L404.03,137.08L404.18,137.08L409.62,136.52L409.77,134.48L410.37,117.16L410.52,107.96L412.34,16.12L412.79,16.19L412.94,16.24L414.6,16.35L414.75,16.32L415.81,17.26L415.96,21.86L418.68,137.08L418.83,137.08L424.12,136.59L424.27,135.05L424.88,117.6L425.03,108.48L426.84,16.17L427.29,16.33L427.45,16.37L428.5,17.05L428.65,17.74L429.26,16.36L429.41,16.41L429.56,16.45L430.32,17.24L430.47,21.96L433.19,137.08L433.34,137.08L435,137.06" style="vector-effect: non-scaling-stroke; fill: none; stroke: rgb(255, 0, 0); stroke-opacity: 1; stroke-width: 2px; opacity: 1;"/></g><g class="points"/><g class="text"/></g><g class="trace scatter tracedeea02" style="stroke-miterlimit: 2; opacity: 1;"><g class="fills"/><g class="errorbars"/><g class="lines"><path class="js-line" d="M0,160.11L0.45,225.24L0.6,173.93L0.76,160.22L0.91,158.71L1.06,159.37L1.21,165.25L1.51,165.46L1.81,157.85L1.96,155.32L2.27,155.82L2.72,154.59L2.87,205.63L3.02,219.51L3.17,174.55L3.32,164.48L3.48,163.23L3.63,211.05L4.68,119.82L4.84,115.31L5.14,105.53L5.29,100.24L5.59,155.08L5.89,96.22L6.04,83.3L6.5,146.09L6.8,91.69L6.95,84.77L7.25,85.98L7.4,83.33L7.55,77.91L7.71,91.37L8.31,85.6L8.46,85.13L8.76,82.04L8.91,89.38L9.07,82.52L9.22,83.15L9.37,78.68L9.67,69.1L9.97,80.18L10.12,88.63L12.09,180.55L12.24,168.16L12.39,171.15L12.69,164.86L12.84,165.66L12.99,162.19L13.15,162.1L13.3,163.74L13.45,159.47L14.05,159.65L14.2,160.77L14.96,155.61L15.11,157.96L15.26,159.99L15.71,155.44L16.17,157.25L16.32,157.7L17.07,155.32L17.22,156L17.53,155.22L17.68,156.52L17.98,155.88L18.13,152.7L18.28,148.3L18.43,196.29L19.34,111.09L19.49,105.8L19.94,89.36L20.1,77.92L20.7,72.14L21,140.55L21.15,83.46L21.46,72.68L21.61,129.8L21.91,143.62L22.06,98.69L22.21,94.3L22.36,100.91L22.51,115.21L23.27,105.88L23.42,138.13L23.57,143.24L23.72,92.02L23.87,74.76L24.02,125.77L24.18,137.59L24.33,158.71L24.63,105.84L24.78,106.4L25.69,177.3L26.14,173.75L26.29,174.07L26.44,182.75L26.59,174L26.89,174.77L27.05,166.18L27.95,158.91L28.1,160.27L28.71,156.45L28.86,157.19L29.01,158.64L29.46,156.4L29.92,156.72L30.07,155.83L30.37,155.5L30.52,157.09L30.67,156.59L30.82,155.09L31.13,154.88L31.73,156.97L31.88,155.32L32.18,155.08L32.49,157.16L32.64,153.91L32.94,155.9L33.09,157.94L33.24,212.1L33.69,170.61L33.85,160.93L35.05,82.36L35.2,95.8L35.51,66.85L35.66,121.06L35.96,146.74L36.11,83.13L36.26,73.63L36.41,118.39L36.56,131.94L36.72,82.93L36.87,80.95L37.02,70.27L37.17,118.27L37.32,135.4L37.47,81.23L37.62,65.84L37.92,77.59L38.38,77.36L38.53,72.4L38.68,69.03L38.98,70.43L39.13,83.62L40.04,193.64L40.19,154.99L40.34,146.36L41.25,173.12L41.4,174.22L42.16,167.1L42.46,169.94L42.61,158.58L43.36,155.29L43.52,156.63L43.67,157.15L43.82,157.43L43.97,155.34L44.12,154.86L44.27,156.41L44.42,155.71L44.57,157.34L45.18,154.67L45.33,156.35L45.48,156.78L45.93,154.53L46.08,206.78L46.39,156.43L46.69,163.8L46.84,214.72L46.99,219.48L47.14,168.42L47.59,152.53L47.9,159.96L48.05,157.03L48.35,143.56L48.5,179.24L48.65,195.12L48.8,137.23L48.95,124.8L49.86,59.62L50.01,67.68L50.16,72.05L50.47,150.7L51.07,150.27L51.22,95.08L51.83,71.54L52.13,73.45L52.28,66.28L52.43,68.64L52.58,63.49L52.73,84.59L53.19,76.17L53.34,84.32L53.49,97.2L53.64,95.61L53.79,110.08L53.94,94.03L54.39,123.18L54.54,131.82L55.45,165.6L55.75,165.1L55.9,163.44L56.06,164.44L56.21,159.83L56.36,161.94L56.66,156.74L56.96,161.05L57.11,157.82L57.57,158.86L58.02,154.42L58.17,155.71L58.78,157.41L58.93,156.11L59.08,155.68L59.23,157.09L59.53,154.64L59.68,156.07L59.83,154.78L60.14,157.37L60.29,154.55L60.44,163.36L61.04,165.58L61.19,159.6L61.8,171.1L61.95,165.39L62.1,158.98L62.25,160.07L62.4,159.14L62.55,150.95L62.7,150.3L62.86,198.93L63.01,209.9L63.16,154.99L63.46,213.73L63.76,137.63L63.91,122.42L64.06,114.8L64.22,63.6L64.37,65.31L64.52,78.3L65.27,67.11L65.42,69.54L65.73,134.07L66.03,55.64L66.18,50.83L67.09,69.3L67.24,69.18L67.39,72.82L67.54,61.28L67.69,58.53L68.14,79.1L68.29,143.28L68.45,159.82L68.75,117.17L68.9,121.38L69.96,170.31L70.11,165.76L70.26,168.59L70.56,164.63L70.71,162.55L71.01,160.39L71.62,169.18L71.92,167.79L72.07,167.26L72.22,166.48L72.53,167.57L72.68,156.6L72.98,160.72L73.13,155.25L73.58,156.08L73.73,158.34L73.89,154.55L74.49,157.36L74.64,155.2L74.79,155.81L74.94,154.62L75.09,155.09L75.24,162.32L75.4,156.15L75.7,165.25L75.85,171.8L76.15,223.49L76.45,161.72L76.6,160.75L76.91,216.23L77.21,125.88L77.36,117L78.57,71.01L78.87,82.46L79.02,88.08L79.17,70.3L79.48,78.38L79.63,122.19L79.78,133.84L79.93,72.91L80.08,57.01L80.68,62.8L80.84,79.16L80.99,84.82L81.14,136.3L81.44,291.67L81.89,227.28L82.04,228.48L83.4,179.42L83.56,178.1L83.71,178.77L83.86,174.8L84.01,177.93L84.16,172.36L84.31,176.93L84.46,169.6L84.61,173.48L85.07,166.71L85.22,167.89L85.82,160.95L86.12,162.01L86.27,160.01L86.73,161.63L86.88,158.01L87.03,160.54L87.18,160.71L87.33,157.45L87.48,156.66L87.63,159.77L87.79,159.96L88.69,154.83L88.84,159.91L88.99,155.28L89.15,207.36L89.45,163.49L90.05,164.93L90.2,163.8L90.51,154.6L90.81,161.16L90.96,163.8L91.11,164.28L91.26,228.14L91.56,175.62L91.87,249.17L92.02,259.45L93.07,74.01L93.23,125.92L93.38,154.2L93.68,107.72L93.83,96.21L94.13,100.86L94.74,79.85L94.89,99.98L95.94,287.3L96.1,275.87L97,191.79L97.15,193.18L97.46,198.04L97.76,193.91L97.91,188.02L98.97,173.24L99.12,170.91L99.27,176.91L99.42,169.37L99.57,171.56L99.72,162.97L100.18,161.08L100.33,165.49L100.48,158.93L101.08,162.47L101.23,161.03L101.38,158.82L101.69,221.71L101.99,158.65L102.14,157.54L102.29,156.43L102.44,160.43L102.59,157.79L102.74,158.79L103.5,155.33L103.8,155.84L103.95,158.65L104.1,154.58L104.56,155.17L104.71,207.16L105.16,155.38L105.46,155.6L105.61,207.57L105.77,226.79L105.92,177.59L106.07,170.94L106.82,199.21L107.28,195.55L107.43,241.06L107.58,245.71L107.73,197.13L107.88,181.26L108.33,193.77L108.49,202.2L108.79,264.65L109.24,206.69L109.39,190.53L110.15,225.98L110.3,220.39L110.45,223.5L111.21,197.95L111.66,198.34L111.81,199.94L112.72,179.46L113.02,180.06L113.17,228.81L113.47,245.03L113.62,184.86L114.53,164.92L114.68,164.86L114.98,161.92L115.28,162.86L115.44,158.9L115.74,162.4L115.89,158.47L116.19,160.3L116.34,158.12L116.49,159.17L116.8,157.04L116.95,157.8L117.1,156.58L117.25,159.71L117.7,158.64L117.85,155.18L118.46,166.99L118.61,164.72L118.76,157.97L119.67,154.49L119.82,156.35L119.97,155.32L120.12,164.49L120.57,178.04L120.72,172.75L120.88,226.45L121.33,181.82L121.63,182.86L121.78,228.58L122.08,179.93L122.54,186.17L122.69,196.07L122.84,192.43L122.99,201.5L123.14,210.52L123.44,287.95L123.9,214.61L124.05,226.62L124.2,216.82L124.35,270.73L124.5,279.48L124.65,228.07L124.8,210.84L125.41,220.56L125.56,213.34L125.71,212.18L125.86,262.86L126.31,250.06L126.47,253.28L126.62,197.56L127.07,183.09L127.37,191.38L127.52,190.95L129.03,165.03L129.19,167.11L129.79,160.84L129.94,162.84L130.09,165.46L130.85,157.97L131,161.38L131.6,156.87L131.75,157.64L131.91,159.57L132.06,160.81L132.21,156.76L132.51,158.92L132.66,156.71L132.96,155.52L133.11,157.35L133.27,158.07L133.42,155.6L133.57,155.94L133.72,155.09L133.87,207.05L134.02,220.3L134.17,169.92L134.32,163.38L136.59,228.94L136.74,221.54L136.89,213.75L137.95,225.59L138.1,213.47L138.55,223.26L138.86,217.64L139.01,213.35L139.16,210.86L139.31,236.84L139.61,304L139.91,233.95L140.06,184.17L140.82,116.43L140.97,132.28L141.12,132.98L141.73,221.95L141.88,181.89L142.03,174.29L142.33,185.13L142.48,191.22L143.99,162.32L144.14,166.01L145.05,158.56L145.2,163.07L145.5,157.09L145.65,162.84L145.96,158.44L146.11,158.86L146.26,162.81L146.41,156.2L146.56,207.48L146.71,230.07L147.01,167.88L147.17,161.2L148.07,155.93L148.22,157.97L148.37,158.03L148.53,163.84L148.83,161.26L148.98,163.46L149.13,147.57L149.73,133.27L149.89,125.27L150.19,99.65L150.34,143.86L150.49,151.91L150.64,93.54L151.55,71.2L151.7,78.17L152,75.61L152.15,80.86L152.3,80.52L152.45,78.13L153.21,91.19L153.36,91.05L153.51,82.7L153.81,145.27L154.12,84.7L154.27,85.29L154.72,83.53L154.87,88.53L155.02,88.94L155.17,94.89L156.08,151.14L156.23,158.32L156.99,191.84L157.14,174.07L157.29,174.28L158.35,162.22L158.65,163.03L158.8,164.34L159.71,159.61L159.86,160.46L160.01,163.73L160.61,157.6L160.76,159.88L160.92,158.85L161.22,156.98L161.67,159.64L161.82,158.23L162.12,157.12L162.28,158.71L162.43,164.26L162.73,171.9L162.88,167.62L163.03,164.72L163.48,148.25L163.63,199.28L164.69,105.31L164.84,100.02L165.15,91.41L165.3,132.58L165.45,136.77L165.6,79.28L165.9,127.82L166.2,69.02L166.35,80.77L166.51,81.78L166.81,73.73L167.26,97.23L167.41,90.34L167.56,82.6L167.71,89.9L168.02,86.55L168.17,71.83L168.32,71.83L168.47,74.68L169.23,61.28L169.38,73.54L172.1,249.26L172.25,197.61L173,170.62L173.15,172.09L173.3,170.07L174.51,157.08L174.66,157.68L174.82,157.94L174.97,161.36L175.27,156.49L175.42,156.97L175.57,156.97L176.18,166.56L176.33,158.43L176.48,156.46L176.63,159.2L176.78,155.56L177.23,156.87L177.38,208.44L177.54,219.5L177.69,168.72L178.14,147.02L178.59,147.19L178.74,148.71L179.05,133.58L179.2,126.94L180.56,63.55L180.71,111L180.86,127.91L181.01,79.7L181.16,70.56L181.77,138.57L182.07,134.58L182.22,91.41L182.37,77.08L182.52,86.72L182.67,126.72L182.82,147.18L182.97,86.6L183.13,82.22L183.28,75.26L183.43,86.09L183.58,164.67L184.03,192.14L184.33,188.18L184.49,182.83L184.64,182.28L184.79,177.19L184.94,179.4L185.24,176.44L185.39,174.82L185.85,181.94L186.15,178.75L186.3,178.4L186.75,164.86L186.9,159.91L187.05,165.28L187.66,162.31L187.81,158.9L187.96,160.91L188.41,160.53L188.57,157.72L188.72,160.13L189.17,158.14L189.32,157.34L189.47,159.97L189.62,156.54L190.08,157.99L190.23,157.5L190.38,155.07L190.53,162.66L190.68,164.91L190.83,218.28L191.29,156.16L191.44,156.09L191.89,155.32L192.19,162.64L192.34,218.35L192.65,159.15L193.1,181.5L193.25,183.51L193.55,188.86L193.7,179.98L194.16,195.93L194.46,193.88L194.61,261.19L194.76,272.04L194.91,219.65L195.21,210.2L195.67,212.62L195.82,212.28L196.57,192.77L196.72,197.83L196.88,195.33L197.18,194.64L197.63,262.39L197.78,258.13L197.93,218.64L198.24,200.38L198.39,252.08L198.54,265.17L198.69,214.71L198.84,199.99L199.29,180.97L199.44,182.19L199.6,172.16L199.75,178.3L200.35,176.45L200.5,167.56L200.65,171.95L201.11,169.3L201.26,167.17L201.56,163.39L201.71,171.48L201.86,169.49L202.01,171.15L203.07,158.15L203.22,158.67L203.37,160.32L203.52,160.3L203.67,157.19L203.83,156.56L203.98,160.86L204.88,155.6L205.03,156.18L205.34,154.58L205.64,156.52L205.79,156.59L206.39,154.32L206.55,156.61L206.7,157.17L206.85,154.98L207,155.95L207.15,208.94L207.45,168.93L208.06,173.25L208.21,163.47L208.66,186.34L208.81,239.15L209.11,197.29L209.57,197.9L209.72,202.49L209.87,209.44L210.32,197.77L210.47,195.5L210.63,195.99L210.78,191.98L210.93,193.77L211.08,185.22L211.83,200.94L211.99,198.71L212.14,256.84L212.29,269.83L212.44,269.63L212.59,218.04L212.74,195.59L213.34,197.78L213.5,200.92L213.65,200.39L213.8,194.12L214.86,177.04L215.01,175.35L215.31,168.25L215.76,172.05L215.91,173.04L216.06,175.15L216.52,171.29L216.67,171.2L217.12,171.3L218.03,156.53L218.18,157.89L218.33,157L218.78,156.46L219.09,166.84L219.39,164.21L219.54,157.79L220.14,154.15L220.45,154.34L220.6,155.5L221.35,226.82L221.5,171.54L221.66,157.4L222.11,174.49L222.26,177.79L222.71,257.66L223.01,200.19L223.17,186.29L223.47,182.55L223.77,199.49L224.22,198.35L224.37,199.1L224.83,186.35L224.98,241.52L225.13,260.71L225.43,204.47L225.58,214.91L225.73,215.82L225.89,267.83L226.04,283.29L226.19,271.02L226.34,223.28L226.79,279.36L226.94,225.88L227.09,212.15L227.55,216.09L228.15,195.92L228.3,198.31L228.45,193.65L228.76,203.88L229.06,196.05L229.21,203.88L230.57,163.21L230.72,160.6L230.87,160.78L231.02,158.24L231.33,160.86L231.48,156.18L231.63,158.11L231.78,157.81L231.93,163.21L232.08,155.69L232.38,156.74L232.53,157.29L232.68,159.97L232.84,154.57L233.29,158.61L233.44,208.9L234.35,154.82L234.5,156.26L234.8,157.87L234.95,156.41L235.1,155.63L235.25,153.87L235.4,162.98L235.56,168.82L235.86,155.32L236.01,157.63L236.16,155.4L236.31,164.57L236.46,160.6L236.61,216.53L236.76,245.42L237.07,180.85L237.22,184.25L237.37,234.93L237.67,181.62L237.97,192.19L238.12,193.07L238.58,191.88L238.88,200.3L239.03,193.46L239.48,173.51L239.94,180.15L240.09,182.36L240.39,186.3L240.54,230.75L240.84,196.96L241.3,264.33L241.45,222.18L241.75,197.34L241.9,235.97L242.05,253.05L243.11,179.15L243.26,180.24L243.41,177.99L244.32,164.88L244.47,169.28L245.68,156.37L245.83,157.94L245.98,158.17L246.13,156.18L246.28,153.79L246.59,157.18L246.89,154.76L247.04,156.02L247.34,153.84L247.49,155.8L247.64,207.83L247.79,218.81L247.95,166.62L248.4,153.95L248.7,155.03L248.85,154.54L249,156.17L249.46,153.21L249.61,154.44L249.76,155.58L249.91,153.32L250.36,154.99L250.51,153.89L250.97,167.96L251.27,157.17L251.42,158.17L252.03,197.73L252.33,177.37L252.48,173.97L252.63,172.15L252.78,179.39L252.93,186.28L253.38,204.16L253.84,198.1L253.99,201.08L254.14,191.51L254.44,198.38L254.59,245.16L254.74,261.72L254.9,204.66L255.05,187.46L255.2,200.95L255.65,186.31L255.8,189.62L255.95,192.22L256.1,193.16L256.26,185.03L256.41,185.15L256.56,184.41L256.71,175.81L256.86,178.56L257.16,174.28L257.31,175.95L257.46,175.62L257.62,175.67L257.77,224.8L257.92,233.32L258.07,233.29L258.22,183.09L258.37,164.96L258.98,165.35L259.13,165.03L259.58,225.78L259.73,174.28L259.88,158.6L260.34,224.95L260.49,170.72L260.64,157.62L260.79,160.39L260.94,157.19L261.39,159.89L261.54,158.88L262.75,153.52L262.9,153.55L263.05,154.5L263.21,161.22L263.36,164.66L263.66,155.42L263.81,205.37L264.41,155.23L264.72,162.26L264.87,162.33L265.02,162.4L265.17,170.92L265.32,175.01L265.47,166.82L265.77,167.19L265.93,166.93L266.08,163.4L266.23,218.78L266.38,235.19L266.53,175.51L266.68,163.46L266.83,167.13L266.98,163.88L267.13,218.47L267.59,166.04L267.89,177.09L268.04,187.14L268.34,195.87L268.8,195.81L268.95,189.59L269.4,176.85L269.85,181.6L270.01,186.26L270.46,189.38L270.91,175.01L271.06,184.92L271.52,180.77L271.82,183.54L271.97,189.2L272.42,182.04L272.57,236.08L272.72,246.22L272.88,188.1L273.78,166.09L273.93,161.97L274.08,165.91L274.24,161.29L274.54,162.71L274.69,160.4L274.99,161.79L275.14,158.57L275.44,157.75L275.6,162L275.9,158.86L276.05,157.71L276.2,157.74L276.35,161.03L277.71,153.17L278.01,153.67L278.16,153.7L278.32,154.42L278.47,153.24L278.77,153.85L278.92,160.7L279.22,171.48L279.68,164.82L279.83,158.51L279.98,157.59L280.13,163.89L280.58,174.18L280.73,231.69L281.04,180.62L281.64,191.59L281.79,197.13L282.09,264.97L282.55,202.36L282.7,203.76L283.15,201.61L283.45,211.34L283.6,206.93L284.06,204.16L284.66,219.9L284.81,219.73L284.96,221.32L285.42,213.16L285.57,254.4L285.72,268.18L285.87,266.55L286.02,215.55L286.93,180L287.08,181.72L288.29,169.06L288.44,164.74L288.59,165.97L288.74,164.02L288.89,164.79L289.04,161.39L289.19,163.35L289.65,160.35L289.8,161.02L290.1,161.77L290.25,160.77L290.4,159.76L290.55,160.35L290.71,157.43L290.86,158.26L291.01,154.79L291.16,161.5L291.61,159.78L291.76,154.32L291.91,157.19L292.52,156.32L292.67,156.97L293.58,154.24L293.73,155.15L294.78,172.73L294.94,175.72L295.24,247.19L295.69,202.29L295.84,206.11L296.6,156.05L296.75,109.21L296.9,111.67L297.05,98.23L297.35,166.54L297.66,97.04L297.81,105.65L297.96,107.74L298.56,93.2L298.71,140.18L298.86,157.35L299.02,149.07L299.17,104.05L299.92,78.99L300.07,93.78L300.68,125.92L300.83,140.7L301.73,176.61L301.89,171.78L302.19,175.13L302.64,172.73L302.79,164.77L302.94,168.07L303.4,163.45L303.55,163.14L303.7,164.46L304,162.44L304.15,161.45L304.45,163L305.06,158.75L305.21,164.06L305.97,156.18L306.12,162.14L306.27,156.21L306.87,157.97L307.02,159.86L307.48,166.36L307.63,159.67L307.78,157.61L308.08,159.43L308.23,151.79L308.38,205.49L308.69,150.67L309.29,158.67L309.44,149.68L309.89,133.84L310.05,200.36L310.2,181.81L310.35,139.93L310.65,86.67L310.8,141.83L310.95,159.9L311.1,105.59L311.25,98.04L311.41,90.65L311.56,111.93L311.86,96.41L312.01,106.65L312.16,107.24L312.31,189.3L312.46,236.18L312.92,158.28L313.07,145.58L313.37,96.45L313.97,101.61L314.12,135.42L314.43,170.33L314.88,148.73L315.03,156.01L315.18,155.29L315.33,192.56L315.64,205.38L315.79,164.82L315.94,156.3L316.24,169.73L316.39,168.61L316.54,179.14L317.45,166.7L317.6,166.68L317.75,167.61L317.9,163.86L318.05,170.88L318.81,161.28L318.96,163.53L319.11,160.61L319.72,160.8L319.87,160.92L320.62,157.17L320.92,158.68L321.08,161.69L321.98,154.93L322.13,158.42L322.59,154.31L322.74,159L322.89,168.94L323.34,156.82L323.49,139.25L324.25,114L324.55,119.55L324.7,126.41L325.76,80.2L326.06,84.74L326.21,85.85L326.36,90.18L326.51,141.64L327.12,88.08L327.27,150.64L327.42,148.22L327.57,103.61L327.87,148.68L328.18,78.9L328.48,141.48L328.63,147.51L328.93,80.11L329.39,104.78L329.54,164.38L329.84,202.42L330.14,151.87L330.29,159.45L330.44,157.83L330.59,175.37L330.75,167.49L331.05,177.47L331.35,174.45L331.5,174.58L331.95,162.5L332.56,162.93L332.71,161.45L333.16,163.09L333.31,160.32L333.46,161.87L333.62,159.71L334.07,160.56L334.22,158.55L334.37,158.83L334.52,158.33L334.67,155.87L334.82,159.41L334.98,154.38L335.28,156.62L335.43,156.07L335.58,153.58L335.73,156.1L336.03,156.02L336.18,162.85L336.34,165.05L336.49,162.8L336.64,156.3L336.94,156.8L337.39,150.67L337.54,155.12L337.7,153.04L337.85,197.2L338.9,102.41L339.06,100.31L339.96,78.04L340.11,128.24L340.26,141.94L340.42,133.46L340.57,100.39L340.87,85.67L341.47,88.54L341.62,84.71L342.53,107.34L342.68,100.29L342.83,98.45L343.29,90.14L343.44,91.88L343.59,95.51L345.55,195.2L345.7,198.67L346.61,164.68L346.76,165.09L346.91,166.36L347.06,165.46L347.21,171.94L348.57,159.08L348.73,159.89L349.03,160.04L349.78,154.46L349.93,156.1L350.54,153.34L350.69,155.24L350.84,156.75L351.29,153.68L351.44,154.15L351.6,204.21L352.65,118.01L352.8,108.69L353.41,81.31L353.56,132.65L354.01,69.94L354.47,84.36L354.62,88.99L354.77,90.43L354.92,140.37L355.07,147.21L355.22,98.08L356.13,81.95L356.28,82.02L356.58,85.16L356.88,74.38L357.04,82.44L357.19,83.99L357.34,135.57L357.49,146.7L357.64,97.14L357.94,72.72L358.4,94.25L358.55,101.43L358.7,108.76L358.85,171.01L359,187.76L359.3,144.85L359.45,152.69L360.06,179.79L360.51,175.08L360.66,175.64L361.42,163.95L361.57,165.36L361.72,164.75L362.32,162.33L362.47,164.04L362.63,158.65L363.23,163.39L363.38,158.82L363.53,159.43L363.68,160.28L363.83,159.21L363.99,157.53L364.14,160.64L364.29,154.56L364.74,158.23L364.89,155.11L365.35,154.61L365.8,158.2L365.95,155.42L366.55,149.32L366.71,203.65L367.76,110.37L367.91,100.63L368.52,61.34L368.67,108.49L368.82,127.65L368.97,84.35L369.27,90.87L369.43,68.5L369.58,74.45L369.73,120.37L369.88,134.48L370.03,80.92L370.18,73.57L371.24,110.66L371.39,106.43L371.54,106.15L371.69,110.36L371.99,110.33L372.14,101.04L372.3,93.19L372.45,149.16L372.9,178.96L373.05,138.48L373.2,121.56L374.71,181.78L374.86,177.8L376.22,164.25L376.38,165.41L376.68,166.5L376.98,160.67L377.28,162.45L377.43,162.38L377.58,163.37L377.74,161.08L377.89,162.35L378.04,158.95L378.19,163.92L378.34,158.77L378.79,159.59L378.94,158.18L379.4,169.4L380,168.64L380.15,163.17L380.61,156.36L380.76,161.35L380.91,162.21L381.36,152.23L381.51,189.94L382.57,97.93L382.72,94.19L383.02,149.7L383.33,88.14L383.48,82.32L385.29,172.86L385.59,169.07L385.74,158.01L385.89,181.99L386.2,127.26L386.35,127.85L386.5,128.77L386.65,172.38L386.8,183.25L386.95,179.82L387.1,122.94L387.41,117.76L387.56,121.1L387.71,129.32L389.07,189.56L389.22,183.27L389.37,179.43L389.52,182.61L389.67,175.65L389.82,172.12L390.88,164.86L391.03,169.17L391.18,162.15L391.79,166.3L391.94,162.8L392.09,164.92L392.39,161.18L392.54,163.06L392.69,160.92L393.15,159.97L393.3,162.7L393.45,160.1L393.9,158.64L394.05,163.19L394.2,159.34L394.36,159.15L394.51,166.19L394.66,167.91L394.81,214.87L395.41,151.31L395.72,158.09L395.87,160.08L396.02,161.63L396.17,148.04L396.32,145.98L396.47,125.85L396.62,173.65L397.08,118.26L397.23,86.9L397.38,95.12L397.68,77.71L397.98,89.63L398.13,94.65L398.74,73.78L399.04,79.24L399.19,88.34L399.95,108.7L400.1,103.56L400.25,109.19L400.4,109.75L400.55,105.11L401.15,98.08L401.31,85.54L402.36,122.99L402.51,137.32L403.57,180.84L403.87,180.36L404.03,177.25L405.08,165.37L405.23,165.42L405.39,164.57L406.14,162.67L406.29,165.39L407.2,160.21L407.35,161.92L408.11,157.01L408.26,162.97L409.01,157.22L409.16,157.91L409.31,157.89L409.47,158.88L409.62,153.19L409.77,205.44L410.67,157.32L410.82,149.74L410.98,186.28L411.28,117.58L411.43,104.34L411.73,95.98L412.03,99.16L412.18,141.93L412.34,159.78L412.49,108.51L412.64,79.1L412.79,82.08L412.94,75.07L413.09,76.22L413.24,69.9L413.54,67.72L413.85,77.94L414,73.88L414.15,90.73L414.3,89.4L414.45,104.46L414.6,96.76L414.9,111.95L415.06,120.04L415.36,112.38L415.51,115.99L415.66,98.6L415.81,100.32L415.96,91.76L416.26,103.56L416.42,116.9L418.23,180.95L418.53,179.22L418.68,178.51L418.98,170.04L419.29,172.32L419.44,176.98L420.34,162.22L420.49,163.02L420.65,162.66L421.1,158.3L421.25,163.44L421.55,159.44L421.7,162.08L422.31,157.04L422.61,158.04L422.76,159.06L423.37,155.6L423.52,156.97L423.67,156.68L423.82,159.13L423.97,155.79L424.12,156.3L424.27,154.14L424.42,160.82L424.73,155.91L424.88,202.22L425.93,102.78L426.09,146.64L426.24,151.53L426.39,98.64L426.54,81.47L426.99,86.5L427.14,129.67L427.29,147.57L427.45,137.14L427.6,91.12L427.75,84.81L427.9,97.55L428.05,138.51L428.2,154.52L428.35,103.9L428.5,87.63L428.96,140.74L429.11,90.01L429.26,81.7L429.41,73.96L429.56,139.69L429.71,145.07L430.01,138.1L430.16,141.1L430.32,133.44L430.62,80.57L431.07,107.62L431.22,121.88L431.52,133.09L431.68,152.35L432.58,193.81L432.88,185.44L433.04,182.48L434.85,160.22L435,165.19" style="vector-effect: non-scaling-stroke; fill: none; stroke: rgb(0, 128, 0); stroke-opacity: 1; stroke-width: 2px; opacity: 1;"/></g><g class="points"/><g class="text"/></g></g></g><g class="overplot"/><path class="xlines-above crisp" d="M0,0" style="fill: none;"/><path class="ylines-above crisp" d="M0,0" style="fill: none;"/><g class="overlines-above"/><g class="xaxislayer-above"><g class="xtick"><text text-anchor="middle" x="0" y="433" transform="translate(138.02,0)" style="font-family: 'Open Sans', verdana, arial, sans-serif; font-size: 12px; fill: rgb(42, 63, 95); fill-opacity: 1; white-space: pre; opacity: 1;"><tspan class="line" dy="0em" x="0" y="433">Jun 5</tspan><tspan class="line" dy="1.3em" x="0" y="433">2022</tspan></text></g><g class="xtick"><text text-anchor="middle" x="0" y="433" style="font-family: 'Open Sans', verdana, arial, sans-serif; font-size: 12px; fill: rgb(42, 63, 95); fill-opacity: 1; white-space: pre; opacity: 1;" transform="translate(239.56,0)">Jun 12</text></g><g class="xtick"><text text-anchor="middle" x="0" y="433" style="font-family: 'Open Sans', verdana, arial, sans-serif; font-size: 12px; fill: rgb(42, 63, 95); fill-opacity: 1; white-space: pre; opacity: 1;" transform="translate(341.09,0)">Jun 19</text></g><g class="xtick"><text text-anchor="middle" x="0" y="433" style="font-family: 'Open Sans', verdana, arial, sans-serif; font-size: 12px; fill: rgb(42, 63, 95); fill-opacity: 1; white-space: pre; opacity: 1;" transform="translate(442.63,0)">Jun 26</text></g></g><g class="yaxislayer-above"><g class="ytick"><text text-anchor="end" x="79" y="4.199999999999999" transform="translate(0,363.49)" style="font-family: 'Open Sans', verdana, arial, sans-serif; font-size: 12px; fill: rgb(42, 63, 95); fill-opacity: 1; white-space: pre; opacity: 1;">−100</text></g><g class="ytick"><text text-anchor="end" x="79" y="4.199999999999999" style="font-family: 'Open Sans', verdana, arial, sans-serif; font-size: 12px; fill: rgb(42, 63, 95); fill-opacity: 1; white-space: pre; opacity: 1;" transform="translate(0,300.2)">−50</text></g><g class="ytick"><text text-anchor="end" x="79" y="4.199999999999999" style="font-family: 'Open Sans', verdana, arial, sans-serif; font-size: 12px; fill: rgb(42, 63, 95); fill-opacity: 1; white-space: pre; opacity: 1;" transform="translate(0,236.92)">0</text></g><g class="ytick"><text text-anchor="end" x="79" y="4.199999999999999" style="font-family: 'Open Sans', verdana, arial, sans-serif; font-size: 12px; fill: rgb(42, 63, 95); fill-opacity: 1; white-space: pre; opacity: 1;" transform="translate(0,173.63)">50</text></g><g class="ytick"><text text-anchor="end" x="79" y="4.199999999999999" style="font-family: 'Open Sans', verdana, arial, sans-serif; font-size: 12px; fill: rgb(42, 63, 95); fill-opacity: 1; white-space: pre; opacity: 1;" transform="translate(0,110.34)">100</text></g></g><g class="overaxes-above"/></g></g><g class="polarlayer"/><g class="smithlayer"/><g class="ternarylayer"/><g class="geolayer"/><g class="funnelarealayer"/><g class="pielayer"/><g class="iciclelayer"/><g class="treemaplayer"/><g class="sunburstlayer"/><g class="glimages"/><defs id="topdefs-8f964a"><g class="clips"/><clipPath id="legend8f964a"><rect width="164" height="67" x="0" y="0"/></clipPath></defs><g class="layer-above"><g class="imagelayer"/><g class="shapelayer"/></g><g class="infolayer"><g class="legend" pointer-events="all" transform="translate(523.7,100)"><rect class="bg" shape-rendering="crispEdges" width="164" height="67" x="0" y="0" style="stroke: rgb(68, 68, 68); stroke-opacity: 1; fill: rgb(255, 255, 255); fill-opacity: 1; stroke-width: 0px;"/><g class="scrollbox" transform="" clip-path="url(#legend8f964a)"><g class="groups"><g class="traces" transform="translate(0,14.5)" style="opacity: 1;"><text class="legendtext" text-anchor="start" x="40" y="4.680000000000001" style="font-family: 'Open Sans', verdana, arial, sans-serif; font-size: 12px; fill: rgb(42, 63, 95); fill-opacity: 1; white-space: pre;">BESS</text><g class="layers" style="opacity: 1;"><g class="legendfill"/><g class="legendlines"><path class="js-line" d="M5,0h30" style="fill: none; stroke: rgb(0, 191, 255); stroke-opacity: 1; stroke-width: 2px;"/></g><g class="legendsymbols"><g class="legendpoints"/></g></g><rect class="legendtoggle" x="0" y="-9.5" width="158.71875" height="19" style="fill: rgb(0, 0, 0); fill-opacity: 0;"/></g><g class="traces" transform="translate(0,33.5)" style="opacity: 1;"><text class="legendtext" text-anchor="start" x="40" y="4.680000000000001" style="font-family: 'Open Sans', verdana, arial, sans-serif; font-size: 12px; fill: rgb(42, 63, 95); fill-opacity: 1; white-space: pre;">Solar</text><g class="layers" style="opacity: 1;"><g class="legendfill"/><g class="legendlines"><path class="js-line" d="M5,0h30" style="fill: none; stroke: rgb(255, 0, 0); stroke-opacity: 1; stroke-width: 2px;"/></g><g class="legendsymbols"><g class="legendpoints"/></g></g><rect class="legendtoggle" x="0" y="-9.5" width="158.71875" height="19" style="fill: rgb(0, 0, 0); fill-opacity: 0;"/></g><g class="traces" transform="translate(0,52.5)" style="opacity: 1;"><text class="legendtext" text-anchor="start" x="40" y="4.680000000000001" style="font-family: 'Open Sans', verdana, arial, sans-serif; font-size: 12px; fill: rgb(42, 63, 95); fill-opacity: 1; white-space: pre;">Grid Meter (Net Load)</text><g class="layers" style="opacity: 1;"><g class="legendfill"/><g class="legendlines"><path class="js-line" d="M5,0h30" style="fill: none; stroke: rgb(0, 128, 0); stroke-opacity: 1; stroke-width: 2px;"/></g><g class="legendsymbols"><g class="legendpoints"/></g></g><rect class="legendtoggle" x="0" y="-9.5" width="158.71875" height="19" style="fill: rgb(0, 0, 0); fill-opacity: 0;"/></g></g></g><rect class="scrollbar" rx="20" ry="3" width="0" height="0" x="0" y="0" style="fill: rgb(128, 139, 164); fill-opacity: 1;"/></g><g class="g-gtitle"><text class="gtitle" x="297.5" y="50" text-anchor="middle" dy="0em" style="font-family: 'Open Sans', verdana, arial, sans-serif; font-size: 17px; fill: rgb(42, 63, 95); opacity: 1; font-weight: normal; white-space: pre;"><tspan class="line" dy="0em" x="297.5" y="50">Scenario 2</tspan><tspan class="line" dy="1.3em" x="297.5" y="50">Microgrid Output</tspan><tspan class="line" dy="2.6em" x="297.5" y="50">From: June 01, 2022 to June 30, 2022</tspan></text></g><g class="g-xtitle"><text class="xtitle" x="297.5" y="476.409375" text-anchor="middle" style="font-family: 'Open Sans', verdana, arial, sans-serif; font-size: 14px; fill: rgb(42, 63, 95); opacity: 1; font-weight: normal; white-space: pre;">Time</text></g><g class="g-ytitle"><text class="ytitle" transform="rotate(-90,26.168750000000003,260)" x="26.168750000000003" y="260" text-anchor="middle" style="font-family: 'Open Sans', verdana, arial, sans-serif; font-size: 14px; fill: rgb(42, 63, 95); opacity: 1; font-weight: normal; white-space: pre;">Demand (kW)</text></g></g></svg>