<svg class="main-svg" xmlns="http://www.w3.org/2000/svg" xmlns:xlink="http://www.w3.org/1999/xlink" width="700" height="500" style="" viewBox="0 0 700 500"><rect x="0" y="0" width="700" height="500" style="fill: rgb(255, 255, 255); fill-opacity: 1;"/><defs id="defs-30fd34"><g class="clips"><clipPath id="clip30fd34xyplot" class="plotclip"><rect width="540" height="320"/></clipPath><clipPath class="axesclip" id="clip30fd34x"><rect x="80" y="0" width="540" height="500"/></clipPath><clipPath class="axesclip" id="clip30fd34y"><rect x="0" y="100" width="700" height="320"/></clipPath><clipPath class="axesclip" id="clip30fd34xy"><rect x="80" y="100" width="540" height="320"/></clipPath></g><g class="gradients"/><g class="patterns"/></defs><g class="bglayer"/><g class="layer-below"><g class="imagelayer"/><g class="shapelayer"/></g><g class="cartesianlayer"><g class="subplot xy"><g class="layer-subplot"><g class="shapelayer"/><g class="imagelayer"/></g><g class="minor-gridlayer"><g class="x"/><g class="y"/></g><g class="gridlayer"><g class="x"><path class="xgrid crisp" transform="translate(152.03,0)" d="M0,100v320" style="stroke: rgb(255, 255, 255); stroke-opacity: 1; stroke-width: 1px;"/><path class="xgrid crisp" transform="translate(278.07,0)" d="M0,100v320" style="stroke: rgb(255, 255, 255); stroke-opacity: 1; stroke-width: 1px;"/><path class="xgrid crisp" transform="translate(404.11,0)" d="M0,100v320" style="stroke: rgb(255, 255, 255); stroke-opacity: 1; stroke-width: 1px;"/><path class="xgrid crisp" transform="translate(530.1600000000001,0)" d="M0,100v320" style="stroke: rgb(255, 255, 255); stroke-opacity: 1; stroke-width: 1px;"/></g><g class="y"><path class="ygrid crisp" transform="translate(0,402.42)" d="M80,0h540" style="stroke: rgb(255, 255, 255); stroke-opacity: 1; stroke-width: 1px;"/><path class="ygrid crisp" transform="translate(0,358.34)" d="M80,0h540" style="stroke: rgb(255, 255, 255); stroke-opacity: 1; stroke-width: 1px;"/><path class="ygrid crisp" transform="translate(0,314.26)" d="M80,0h540" style="stroke: rgb(255, 255, 255); stroke-opacity: 1; stroke-width: 1px;"/><path class="ygrid crisp" transform="translate(0,226.1)" d="M80,0h540" style="stroke: rgb(255, 255, 255); stroke-opacity: 1; stroke-width: 1px;"/><path class="ygrid crisp" transform="translate(0,182.01999999999998)" d="M80,0h540" style="stroke: rgb(255, 255, 255); stroke-opacity: 1; stroke-width: 1px;"/><path class="ygrid crisp" transform="translate(0,137.94)" d="M80,0h540" style="stroke: rgb(255, 255, 255); stroke-opacity: 1; stroke-width: 1px;"/></g></g><g class="zerolinelayer"><path class="yzl zl crisp" transform="translate(0,270.18)" d="M80,0h540" style="stroke: rgb(255, 255, 255); stroke-opacity: 1; stroke-width: 2px;"/></g><path class="xlines-below"/><path class="ylines-below"/><g class="overlines-below"/><g class="xaxislayer-below"/><g class="yaxislayer-below"/><g class="overaxes-below"/><g class="plot" transform="translate(80,100)" clip-path="url(#clip30fd34xyplot)"><g class="scatterlayer mlayer"><g class="trace scatter tracec91454" style="stroke-miterlimit: 2; opacity: 0.5;"><g class="fills"/><g class="errorbars"/><g class="lines"><path class="js-line" d="M0,203.23L1.5,202.87L1.69,202.41L2.06,203.24L2.25,202.98L2.44,201.72L2.81,202.14L3,201.38L3.19,201.5L3.38,201.05L3.56,202.56L4.13,201.76L4.31,198.28L6,170.1L6.19,170.09L6.94,170.05L7.13,85.83L7.88,25.71L8.07,35.28L8.25,38.44L10.13,65.64L10.32,64.27L10.5,66.15L10.69,62.77L11.25,65.24L11.44,72.56L11.82,52.53L12.19,63.93L12.38,76.48L14.25,203.32L14.63,203.22L14.82,203.28L16.32,203.27L16.51,203.18L18.19,203.26L18.38,203.14L21.19,202.7L21.38,203.24L22.32,201.42L22.51,194.81L23.82,170.09L24.01,170.13L24.76,170.09L24.95,128.2L25.51,41.2L25.88,48.13L26.07,50.1L26.26,57.16L26.63,50.19L26.82,46.25L27.01,45.57L27.2,53.86L27.76,67.47L28.32,63.76L28.51,66.19L29.07,58.31L29.26,60.17L29.45,64.56L29.64,63.61L29.82,54.6L30.95,120.05L31.14,136.76L32.07,203.31L32.45,203.22L32.64,203.35L33.57,203.2L33.76,203.29L35.26,203.23L35.45,203.22L37.89,203.24L38.08,202.72L38.64,202.15L38.83,202.93L39.2,203.25L39.39,203.04L39.58,202.61L39.95,201.72L40.14,202.96L40.51,200.73L40.7,196.53L40.89,190.27L41.26,197.35L41.45,200.88L41.64,200.83L41.83,196.37L42.58,169.81L42.95,170.32L43.14,170.2L44.08,40.19L44.27,49.42L44.45,55.83L45.2,34.55L45.39,35.21L45.58,46.08L46.33,55.22L46.52,49.16L46.89,50.14L47.27,40.9L47.45,45.09L47.64,47.58L48.02,37.22L48.2,43.22L48.39,59.26L49.7,167.05L49.89,179.87L50.46,203.27L50.83,203.25L51.02,203.23L53.46,203.17L53.64,202.16L54.21,203.25L54.39,203.16L54.58,201.72L55.14,203.14L55.33,202.96L55.52,201.93L56.27,203.25L56.46,202.95L56.64,202.49L56.83,201.77L57.39,202.18L57.58,203.24L58.15,201.05L58.33,201.49L58.52,203.15L58.71,202.99L58.9,200.17L60.77,169.98L60.96,170.12L61.15,170.28L62.46,17.36L62.65,18.64L62.83,18.81L63.77,23.36L63.96,26.42L64.15,25.09L64.33,28.06L64.52,30.75L64.71,27.37L64.9,31.84L65.09,30.93L65.27,31.66L66.02,36.68L66.21,56.52L67.52,151.55L67.71,165.56L68.46,203.29L68.84,203.22L69.02,203.25L71.65,203.21L71.84,201.68L72.03,201.41L72.21,203.14L73.53,203.23L73.71,202.24L74.28,201.92L74.46,203.24L75.21,201.64L75.4,202.86L75.78,203.26L75.96,202.88L76.15,201.98L76.53,200.63L76.71,201.55L76.9,197.37L78.4,180.05L78.59,180.01L79.53,169.67L79.72,105.47L80.65,17.84L80.84,16L82.34,31.31L82.53,30.6L82.72,31.34L83.65,39.89L83.84,34.39L84.03,35.15L84.22,47.98L86.28,203.3L86.84,203.18L87.03,203.27L90.03,202.85L90.22,202.34L90.41,203.29L90.78,202.09L90.97,202.74L91.16,203.04L91.34,203.23L91.53,202.77L91.72,201.81L92.28,203.25L92.47,203L92.66,202.58L93.41,201L93.59,201.79L93.78,203.24L93.97,203.09L94.16,201.69L95.66,170.09L96.03,170.12L96.22,170.08L96.78,170.06L96.97,74.85L97.72,24.4L97.91,25.87L98.1,27.59L98.28,23.44L98.47,34.17L98.66,30.98L98.85,29.11L99.97,45.05L100.16,42.58L100.35,42.9L100.53,63.58L100.91,203.3L101.47,203.13L101.66,203.35L102.6,203.21L102.79,203.26L103.91,203.19L104.1,203.29L105.41,203.19L105.6,203.26L107.29,203.26L107.47,203.26L109.73,203.22L109.91,201.61L110.29,203.08L110.66,202.96L110.85,201.06L111.6,203.23L111.79,202.27L111.98,201.25L112.16,200.55L112.35,202.51L112.54,202.47L112.73,200.32L113.1,202.86L113.29,203.31L114.6,203.13L114.79,179.53L115.35,170.07L115.54,170.17L115.73,170.28L117.04,170.19L117.23,170.2L117.79,170.68L117.98,195.8L118.17,203.3L118.73,203.13L118.92,203.28L120.98,203.23L121.17,203.22L123.23,203.15L123.42,203.28L124.54,203.16L124.73,203.26L129.04,202.8L129.23,201.97L130.17,203.23L130.36,203.05L130.55,202.33L130.92,202.73L131.11,206.02L133.17,258.73L133.36,255.53L133.55,251.34L133.73,250.15L133.92,250.87L134.11,257.83L134.48,245.46L134.86,248.71L135.05,255.77L135.23,254.9L135.42,263.25L135.61,263.03L135.8,256.32L137.11,288.69L137.3,288.07L137.49,287.35L137.67,282.66L138.42,261.75L138.61,263.2L138.8,259.32L139.92,245.69L140.11,246.75L140.3,244.54L141.8,221.54L141.99,221.26L143.3,210.65L143.49,214.85L144.43,207.88L144.61,208.7L145.18,205.27L145.36,206.87L145.55,208.31L146.3,203.51L146.68,203.57L146.86,206.21L147.43,202.95L147.8,203.14L147.99,203.62L148.18,204.63L148.36,201.76L148.55,202.21L148.74,203.19L148.93,202.82L149.11,209.76L153.43,293.17L153.62,287.07L153.8,285.43L153.99,286.48L154.18,285.2L154.37,294.71L157.18,254.69L157.37,256.19L160.56,216.52L160.74,219.91L161.68,210.17L161.87,213.09L162.06,215.4L162.24,210.19L162.43,209.52L162.62,211.05L162.99,210.62L163.18,207.67L163.37,205.27L163.56,207.39L163.74,210.99L164.87,203.29L165.06,203.72L165.24,206.56L165.62,203.07L165.81,202.57L166,202.7L166.18,204.49L166.93,208.42L167.12,214.09L168.06,247.63L168.25,245.18L168.43,250.86L169.56,278.64L169.75,263.97L169.93,259.32L170.31,268.77L170.5,273.85L170.68,278.18L171.06,272.73L171.25,272.74L171.43,273.64L171.62,278.88L172,301.57L172.56,292.11L172.75,300.51L172.94,301.15L173.12,292.84L173.31,295.55L173.5,295.05L173.69,255.66L174.62,170L174.81,170.35L175.19,170.31L175.37,172.45L175.94,203.36L176.31,203.31L176.5,203.25L176.87,245.05L177.44,240.35L177.62,229.89L178.75,217.42L178.94,218.37L180.06,211.04L180.25,215.64L181.19,207.36L181.38,211.94L181.75,203.92L181.94,206.62L182.13,210.25L182.69,206.53L182.88,207.34L183.06,208.59L183.63,203.56L183.81,204.7L184,207L184.19,206.3L184.38,202.05L186.25,170.06L186.44,170.13L191.88,170.16L192.07,123.98L192.25,74.62L192.82,110.87L193,127.09L194.69,203.37L194.88,203.12L196.19,203.29L196.38,203.17L197.88,203.25L198.07,203.21L201.82,203.09L202.01,203.01L202.2,203.22L202.38,202L203.13,189.92L203.32,177.06L203.88,170.07L204.26,170.11L204.45,170.11L205.38,170.09L205.57,65.34L205.76,38.59L206.32,45.18L206.51,51.52L207.07,44.79L207.45,48.82L207.63,54.6L207.82,49.07L208.2,53.59L208.38,56.98L208.76,54.45L208.95,59.83L209.14,55.93L209.89,43.13L210.07,46.06L210.26,65.99L212.7,203.33L212.89,203.18L214.01,203.23L214.2,203.27L216.64,203.25L216.83,203.23L219.26,203.15L219.45,203.05L220.39,203.24L220.58,201.36L221.14,188.49L221.7,189.25L221.89,190.04L222.64,170.04L222.83,170.08L223.01,170.15L223.77,170.14L223.95,89.39L224.89,36.46L225.08,37.34L226.39,58.33L226.58,58.29L226.77,55.21L227.14,50.45L227.33,59.27L227.52,59.84L227.7,133.84L227.89,203.53L228.45,203.16L228.64,203.28L230.33,203.22L230.52,203.24L236.14,203L236.33,202.01L237.65,203.24L237.83,203.22L238.4,202.61L238.58,202.96L238.77,203.22L244.02,203.3L244.21,254.3L244.58,279.74L244.96,277.07L245.15,274.07L245.71,275.25L245.9,268.13L247.4,249.04L247.59,241.2L247.77,236.1L248.34,236.92L248.52,237.44L249.84,221.47L250.02,216.68L250.4,228.73L250.96,226.58L251.15,226.5L252.09,207.34L252.28,209.17L252.46,211.25L252.65,208.87L252.84,204.48L253.21,210.05L253.59,205.7L253.78,203.3L254.15,207.85L254.34,203.27L254.53,202.85L254.9,201.03L255.09,202.67L255.28,204.49L256.03,201.4L256.21,201.99L256.4,205.13L256.78,202.1L256.96,204.67L257.15,209.36L257.71,215.84L257.9,225.12L258.46,221.81L259.03,243.84L259.22,243.9L259.78,252.65L259.97,256.51L260.15,248.81L260.53,259.7L260.72,261.39L260.9,266.03L261.09,258.67L261.28,256.38L261.65,266.58L261.84,262.18L262.03,260.16L263.34,291.11L263.53,291.19L263.72,291.63L263.9,281.91L265.59,241.76L265.78,245.61L265.97,242.62L267.28,224.68L267.47,228.04L268.97,212.3L269.16,211.82L269.34,214.41L269.72,209.52L269.91,208.61L270.28,210.92L270.47,207.26L270.66,205.47L271.03,207.97L271.22,208.46L272.16,203.26L272.34,202.5L272.91,205.2L273.09,202.64L273.28,200.31L273.66,200.93L273.85,204.99L274.03,204.55L274.22,201.02L275.35,212.53L275.53,224.49L276.66,264.46L276.85,258.91L277.22,257.87L277.41,252.32L277.78,264.87L278.35,262.44L278.53,258.78L278.72,257.61L279.1,259.64L279.28,263.04L279.85,279.19L280.03,290.82L280.22,291.3L280.41,302.5L280.6,304L280.78,295.45L281.16,301.3L281.35,299.83L281.54,291.99L283.22,259.24L283.41,258.21L284.54,238.41L284.72,240.22L284.91,240.11L285.1,230.54L286.79,208.71L286.97,212L287.35,205.25L287.72,211.29L287.91,210.31L288.48,204.66L288.66,208.25L288.85,206L289.04,204.03L289.23,206.31L289.41,205.84L289.6,208.26L290.35,203.77L290.54,206.46L290.91,202.33L291.29,205.77L291.48,205.69L292.04,200.43L292.23,206.19L292.41,206.85L292.6,201.93L293.35,215.22L293.54,213.27L293.73,232.2L294.66,257.3L294.85,255.73L295.04,250.49L295.23,260.11L295.42,266.61L295.79,273.57L295.98,269.88L296.17,262.75L296.54,260.13L296.73,251.09L297.29,237.86L297.67,242.37L297.85,246.96L299.17,259.04L299.35,251.37L299.73,263.18L299.92,253.16L300.1,239.57L300.29,240.08L300.48,245.05L300.67,244.92L300.85,248.51L301.04,249.93L301.23,247.14L301.42,248.18L301.6,247.71L303.11,219.72L303.29,222.21L303.48,225.13L304.79,205.31L304.98,205.11L305.17,207.14L305.36,206.05L305.54,202.09L305.73,199.19L305.92,201.94L306.11,205.65L306.86,200.09L307.04,200.84L307.23,204.22L307.42,204.5L307.61,201.47L307.79,199.96L307.98,202.73L308.36,200.81L308.54,202.09L308.92,202.37L309.67,199.24L309.86,201.8L310.98,199.53L311.17,202.77L312.11,210.45L312.3,211.47L312.48,212.02L312.67,223.34L312.86,223.93L313.05,218.57L313.98,259.67L314.36,251.53L314.55,247.89L315.11,230.57L315.3,238.23L315.48,240.65L317.17,251.2L317.36,242.4L317.74,252.21L317.92,246.47L318.11,238.21L318.3,238.02L318.49,235.49L318.86,240.09L319.24,236.47L319.42,237.9L319.8,237.07L319.99,232.15L320.74,221.23L320.92,226.3L321.11,225.66L322.42,210.75L322.61,209.81L322.99,210.47L323.17,210.83L323.36,206.3L323.92,207.01L324.11,207.36L324.49,209.68L324.68,207.13L326.18,198.99L326.55,200.17L326.74,201.17L326.93,201.2L327.11,198.99L327.3,200.23L327.86,199.87L328.05,198.84L328.43,199.77L328.61,198.49L328.8,198.52L329.18,202.58L329.36,203.8L330.11,208.57L330.3,217.17L330.49,228.26L330.86,215.28L331.05,219.44L331.24,220.02L331.43,220.01L331.62,223.59L332.18,221.16L332.55,228.07L332.74,229.28L333.87,244.21L334.05,246.08L334.24,242.04L334.43,244.23L334.62,251.62L335.18,253.15L335.37,249.14L335.55,255.86L335.74,259.05L335.93,250.34L336.12,239.41L336.49,250.81L337.05,247.92L337.24,243.86L337.62,244.23L340.06,217.17L340.24,217.12L341.37,210.86L341.56,210.07L341.74,209.27L341.93,209.91L342.12,211.07L342.68,206.02L342.87,208.79L343.06,212.01L344.37,199.96L344.56,199.91L345.12,199.27L345.31,200.05L346.06,199.19L346.25,199.93L346.43,199.99L346.62,198.97L347.37,204.58L347.56,210.28L349.06,249.34L349.25,251.82L349.43,252.2L349.62,255.55L350.75,269.76L350.93,267.62L351.12,265.18L351.31,265.37L351.5,265L351.68,275.83L352.81,288.49L353,289.13L353.19,290.6L353.37,284.48L353.75,283.6L353.94,277.74L354.31,269.35L354.87,269.57L355.06,269.26L356.19,246.52L356.37,247.56L357.12,237.38L357.31,231.55L357.5,231.97L357.69,230.35L358.81,214.44L359,214.64L359.56,211.39L359.75,212.57L359.94,213.42L360.5,210.74L360.69,208.73L361.06,204.07L361.25,206.34L361.44,211.18L362.19,202.54L362.38,205.37L362.56,204.69L363.5,201.96L363.69,202.22L364.06,204.39L364.25,202.17L364.44,200.92L365.19,208.87L365.38,218.53L367.63,276.93L367.82,268.53L368.19,169.76L368.75,170.22L368.94,170.21L371.38,170.11L371.57,170.31L372.5,170.2L372.69,170.28L373.25,170.32L373.44,189.95L374.38,203.35L374.57,203.18L376.26,203.25L376.44,203.22L382.26,203.17L382.45,201.25L383.01,193.93L383.2,197.63L383.38,203.21L384.32,170.03L384.7,176.65L384.88,178.97L385.07,169.73L385.63,170.26L385.82,170.23L387.32,170.12L387.51,170.47L387.88,170.88L388.07,179.55L388.26,190.95L388.63,170.04L388.82,169.84L389.76,170.52L389.95,170.36L390.32,181.54L390.51,176.5L390.7,170.17L391.07,188.5L391.26,177.87L391.45,170.14L391.64,170.46L391.82,184.13L392.76,203.37L392.95,203.14L394.07,203.24L394.26,203.26L396.14,203.26L396.33,203.22L399.33,203.22L399.51,202.61L400.08,203.25L400.26,202.82L400.45,198.44L400.83,193.77L401.01,189.06L401.2,190.63L401.39,182.01L402.33,170.02L402.51,170.24L403.83,170.02L404.02,170.37L404.2,170.07L404.39,120.94L404.77,63.61L405.14,67.21L405.33,68.75L406.64,85.6L406.83,80.71L407.2,67.11L407.58,75.51L407.77,73.86L408.14,61.47L408.33,73.33L408.52,84.85L410.39,203.23L410.58,203.3L415.64,202.79L415.83,201.56L416.21,203.24L416.39,201.34L416.58,201.03L416.77,203.08L417.33,203.02L417.52,201.53L417.71,200.01L418.08,202.09L418.27,202.64L419.77,170.08L420.15,170.14L420.33,170.09L421.46,170.11L421.65,71.02L422.02,51.33L422.58,54.3L422.77,58.52L422.96,52L423.33,63.07L423.52,56.98L423.71,61.94L425.4,87.52L425.77,86.26L425.96,80.41L426.15,73.89L426.34,77.18L426.52,90.33L428.4,203.36L428.59,203.28L428.77,203.24L432.34,203.25L432.53,203.23L434.03,202.67L434.21,201.95L434.4,202.95L434.78,202.67L434.96,200.39L435.15,199.93L435.34,202.85L435.53,202.97L435.71,202.3L435.9,201L436.84,194.49L437.03,185.65L437.78,170.08L437.96,170.12L438.15,170.11L439.09,170.18L439.28,130.63L439.47,28.29L440.03,36.05L440.22,40.24L440.59,41.05L440.78,45.69L440.97,46.62L441.15,51.36L441.53,65.72L441.9,60.04L442.09,58.97L442.28,56.64L442.47,58.84L442.65,63.97L442.84,61.45L443.03,66.86L443.22,76.28L443.4,78.89L443.78,78.26L443.97,75.8L444.34,62.85L444.53,73.5L444.72,85.83L446.59,203.31L446.78,203.3L446.97,203.22L451.84,203.28L452.03,202.7L452.22,202.55L452.41,203.21L452.59,203.26L453.34,201.8L453.53,202.49L453.72,203.19L454.1,203.2L454.28,201.08L454.66,197.65L454.85,193.4L455.97,170.08L456.16,170.12L456.35,170.08L457.28,170.15L457.47,106.41L457.66,31.37L458.22,48.69L458.41,44.55L458.6,39.19L458.78,46.95L458.97,52.78L459.35,54.19L459.53,61.32L459.72,60.03L459.91,60.9L460.1,67.66L460.47,59.39L460.66,70.5L460.85,73.95L461.04,68.79L461.41,75.22L461.6,75.07L461.79,75.45L461.97,68.95L462.16,59.44L462.35,68.31L462.54,83.25L463.66,163.75L463.85,179.36L464.6,203.36L464.79,203.21L464.97,203.3L466.66,203.21L466.85,203.22L470.41,203.29L470.6,203.2L471.54,203.16L471.73,202.34L471.91,202.22L472.1,203.24L472.29,203.21L472.48,202.22L473.41,186.37L473.6,171.68L474.54,170.07L474.73,170.17L476.42,170.17L476.6,97.34L477.35,86.43L477.54,93.8L478.48,112L478.67,106.91L479.04,107.73L479.23,99.01L479.42,103.83L479.6,109.91L480.17,87.46L480.35,93.72L480.54,98.69L482.23,203.38L482.61,203.32L482.79,203.28L484.48,203.18L484.67,203.27L487.67,203.24L487.86,203.22L489.92,203.03L490.11,202.66L490.48,203.22L490.67,199.48L491.23,192.19L491.42,197.26L492.36,170.03L492.55,170.1L492.73,170.25L493.48,170.1L493.67,170.21L494.8,170.07L494.98,153.08L495.36,69.97L495.73,85.16L495.92,87.27L496.3,82.84L496.48,91.9L496.86,106.93L497.24,98.57L497.42,95.8L497.8,105.59L497.99,93.28L498.17,82.79L498.55,103.74L498.74,108.38L499.67,175.01L499.86,191.46L500.24,203.31L500.8,203.3L500.99,203.19L502.67,203.2L502.86,203.24L508.11,203.26L508.3,202.1L509.43,185.9L509.61,180.25L510.36,170.05L510.55,170.18L510.74,170.14L512.05,170.05L512.24,167.19L512.62,47.42L512.99,53.89L513.18,53.83L513.37,53.19L513.55,63.51L513.74,63.44L513.93,67.87L515.24,92.74L515.43,85.44L515.8,79.26L515.99,66.41L516.18,58.57L516.37,64.7L516.55,78.41L518.62,203.3L518.81,203.25L518.99,203.31L520.12,203.27L520.31,203.22L521.99,203.24L522.18,203.21L524.24,203.27L524.43,203.22L526.31,203.19L526.5,202.18L527.43,186.19L527.62,172.65L528.56,170.04L528.75,170.13L530.25,170.24L530.43,119.82L531.37,55.52L531.56,58.41L532.12,57.83L532.68,70.7L532.87,66.73L533.25,81.99L533.44,71.95L533.62,64.93L533.81,64.99L534,61.95L534.19,52.87L534.37,60.55L534.56,77.16L536.81,203.3L537,203.22L537.19,203.25L540,203.22" style="vector-effect: non-scaling-stroke; fill: none; stroke: rgb(0, 191, 255); stroke-opacity: 1; stroke-width: 2px; opacity: 1;"/></g><g class="points"/><g class="text"/></g></g></g><g class="overplot"/><path class="xlines-above crisp" d="M0,0" style="fill: none;"/><path class="ylines-above crisp" d="M0,0" style="fill: none;"/><g class="overlines-above"/><g class="xaxislayer-above"><g class="xtick"><text text-anchor="middle" x="0" y="433" transform="translate(152.03,0)" style="font-family: 'Open Sans', verdana, arial, sans-serif; font-size: 12px; fill: rgb(42, 63, 95); fill-opacity: 1; white-space: pre; opacity: 1;"><tspan class="line" dy="0em" x="0" y="433">Jun 5</tspan><tspan class="line" dy="1.3em" x="0" y="433">2022</tspan></text></g><g class="xtick"><text text-anchor="middle" x="0" y="433" style="font-family: 'Open Sans', verdana, arial, sans-serif; font-size: 12px; fill: rgb(42, 63, 95); fill-opacity: 1; white-space: pre; opacity: 1;" transform="translate(278.07,0)">Jun 12</text></g><g class="xtick"><text text-anchor="middle" x="0" y="433" style="font-family: 'Open Sans', verdana, arial, sans-serif; font-size: 12px; fill: rgb(42, 63, 95); fill-opacity: 1; white-space: pre; opacity: 1;" transform="translate(404.11,0)">Jun 19</text></g><g class="xtick"><text text-anchor="middle" x="0" y="433" style="font-family: 'Open Sans', verdana, arial, sans-serif; font-size: 12px; fill: rgb(42, 63, 95); fill-opacity: 1; white-space: pre; opacity: 1;" transform="translate(530.1600000000001,0)">Jun 26</text></g></g><g class="yaxislayer-above"><g class="ytick"><text text-anchor="end" x="79" y="4.199999999999999" transform="translate(0,402.42)" style="font-family: 'Open Sans', verdana, arial, sans-serif; font-size: 12px; fill: rgb(42, 63, 95); fill-opacity: 1; white-space: pre; opacity: 1;">−60</text></g><g class="ytick"><text text-anchor="end" x="79" y="4.199999999999999" style="font-family: 'Open Sans', verdana, arial, sans-serif; font-size: 12px; fill: rgb(42, 63, 95); fill-opacity: 1; white-space: pre; opacity: 1;" transform="translate(0,358.34)">−40</text></g><g class="ytick"><text text-anchor="end" x="79" y="4.199999999999999" style="font-family: 'Open Sans', verdana, arial, sans-serif; font-size: 12px; fill: rgb(42, 63, 95); fill-opacity: 1; white-space: pre; opacity: 1;" transform="translate(0,314.26)">−20</text></g><g class="ytick"><text text-anchor="end" x="79" y="4.199999999999999" style="font-family: 'Open Sans', verdana, arial, sans-serif; font-size: 12px; fill: rgb(42, 63, 95); fill-opacity: 1; white-space: pre; opacity: 1;" transform="translate(0,270.18)">0</text></g><g class="ytick"><text text-anchor="end" x="79" y="4.199999999999999" style="font-family: 'Open Sans', verdana, arial, sans-serif; font-size: 12px; fill: rgb(42, 63, 95); fill-opacity: 1; white-space: pre; opacity: 1;" transform="translate(0,226.1)">20</text></g><g class="ytick"><text text-anchor="end" x="79" y="4.199999999999999" style="font-family: 'Open Sans', verdana, arial, sans-serif; font-size: 12px; fill: rgb(42, 63, 95); fill-opacity: 1; white-space: pre; opacity: 1;" transform="translate(0,182.01999999999998)">40</text></g><g class="ytick"><text text-anchor="end" x="79" y="4.199999999999999" style="font-family: 'Open Sans', verdana, arial, sans-serif; font-size: 12px; fill: rgb(42, 63, 95); fill-opacity: 1; white-space: pre; opacity: 1;" transform="translate(0,137.94)">60</text></g></g><g class="overaxes-above"/></g></g><g class="polarlayer"/><g class="smithlayer"/><g class="ternarylayer"/><g class="geolayer"/><g class="funnelarealayer"/><g class="pielayer"/><g class="iciclelayer"/><g class="treemaplayer"/><g class="sunburstlayer"/><g class="glimages"/><defs id="topdefs-30fd34"><g class="clips"/></defs><g class="layer-above"><g class="imagelayer"/><g class="shapelayer"/></g><g class="infolayer"><g class="g-gtitle"><text class="gtitle" x="350" y="50" text-anchor="middle" dy="0em" style="font-family: 'Open Sans', verdana, arial, sans-serif; font-size: 17px; fill: rgb(42, 63, 95); opacity: 1; font-weight: normal; white-space: pre;"><tspan class="line" dy="0em" x="350" y="50">Scenario 3</tspan><tspan class="line" dy="1.3em" x="350" y="50">Microgrid Output</tspan><tspan class="line" dy="2.6em" x="350" y="50">From: June 01, 2022 to June 30, 2022</tspan></text></g><g class="g-xtitle"><text class="xtitle" x="350" y="476.409375" text-anchor="middle" style="font-family: 'Open Sans', verdana, arial, sans-serif; font-size: 14px; fill: rgb(42, 63, 95); opacity: 1; font-weight: normal; white-space: pre;">Time</text></g><g class="g-ytitle"><text class="ytitle" transform="rotate(-90,33.840625,260)" x="33.840625" y="260" text-anchor="middle" style="font-family: 'Open Sans', verdana, arial, sans-serif; font-size: 14px; fill: rgb(42, 63, 95); opacity: 1; font-weight: normal; white-space: pre;">Demand (kW)</text></g></g></svg>