<svg class="main-svg" xmlns="http://www.w3.org/2000/svg" xmlns:xlink="http://www.w3.org/1999/xlink" width="700" height="500" style="" viewBox="0 0 700 500"><rect x="0" y="0" width="700" height="500" style="fill: rgb(255, 255, 255); fill-opacity: 1;"/><defs id="defs-798999"><g class="clips"><clipPath id="clip798999xyplot" class="plotclip"><rect width="432" height="320"/></clipPath><clipPath class="axesclip" id="clip798999x"><rect x="80" y="0" width="432" height="500"/></clipPath><clipPath class="axesclip" id="clip798999y"><rect x="0" y="100" width="700" height="320"/></clipPath><clipPath class="axesclip" id="clip798999xy"><rect x="80" y="100" width="432" height="320"/></clipPath></g><g class="gradients"/><g class="patterns"/></defs><g class="bglayer"/><g class="layer-below"><g class="imagelayer"/><g class="shapelayer"/></g><g class="cartesianlayer"><g class="subplot xy"><g class="layer-subplot"><g class="shapelayer"/><g class="imagelayer"/></g><g class="gridlayer"><g class="x"><path class="xgrid crisp" transform="translate(137.62,0)" d="M0,100v320" style="stroke: rgb(255, 255, 255); stroke-opacity: 1; stroke-width: 1px;"/><path class="xgrid crisp" transform="translate(238.46,0)" d="M0,100v320" style="stroke: rgb(255, 255, 255); stroke-opacity: 1; stroke-width: 1px;"/><path class="xgrid crisp" transform="translate(339.29,0)" d="M0,100v320" style="stroke: rgb(255, 255, 255); stroke-opacity: 1; stroke-width: 1px;"/><path class="xgrid crisp" transform="translate(440.13,0)" d="M0,100v320" style="stroke: rgb(255, 255, 255); stroke-opacity: 1; stroke-width: 1px;"/></g><g class="y"><path class="ygrid crisp" transform="translate(0,352.08000000000004)" d="M80,0h432" style="stroke: rgb(255, 255, 255); stroke-opacity: 1; stroke-width: 1px;"/><path class="ygrid crisp" transform="translate(0,189.86)" d="M80,0h432" style="stroke: rgb(255, 255, 255); stroke-opacity: 1; stroke-width: 1px;"/><path class="ygrid crisp" transform="translate(0,108.75)" d="M80,0h432" style="stroke: rgb(255, 255, 255); stroke-opacity: 1; stroke-width: 1px;"/></g></g><g class="zerolinelayer"><path class="yzl zl crisp" transform="translate(0,270.97)" d="M80,0h432" style="stroke: rgb(255, 255, 255); stroke-opacity: 1; stroke-width: 2px;"/></g><path class="xlines-below"/><path class="ylines-below"/><g class="overlines-below"/><g class="xaxislayer-below"/><g class="yaxislayer-below"/><g class="overaxes-below"/><g class="plot" transform="translate(80,100)" clip-path="url(#clip798999xyplot)"><g class="scatterlayer mlayer"><g class="trace scatter trace694245" style="stroke-miterlimit: 2; opacity: 0.5;"><g class="fills"/><g class="errorbars"/><g class="lines"><path class="js-line" d="M0,175.47L0.15,172.09L0.75,173.74L0.9,172.12L1.2,171.74L1.65,179.17L1.8,174.73L2.7,170.97L2.85,170.97L3,171.62L3.15,171.13L3.3,179.91L4.2,170.97L4.35,170.97L5.25,138.24L5.4,152.52L6.3,101.86L6.45,147.29L7.05,148.87L7.2,116.9L7.35,153.46L7.5,112.71L7.95,157.36L8.1,118.97L8.25,157.53L8.55,157.67L9,104.39L9.15,154.32L9.6,108.33L9.9,115.51L10.05,157.44L10.2,127.95L10.65,164.24L10.8,168.25L11.25,179.77L11.4,175.75L11.55,189.02L12.45,175.1L12.6,178.4L13.35,172.44L13.5,178.53L13.95,172.04L14.25,172.29L14.41,173.59L14.56,171.62L14.71,175.59L15.01,172.64L15.16,174.33L15.61,171.18L15.91,171.36L16.06,172.21L16.21,172.25L16.36,171.21L16.81,173.13L16.96,171.51L17.11,171.08L18.46,170.97L18.61,169.55L18.76,170.61L18.91,163.29L19.96,139.01L20.11,121.57L20.41,111.73L20.86,142.13L21.01,122.88L22.06,170.97L22.21,170.97L25.36,170.97L25.51,193.22L25.66,176.53L25.81,198.87L26.26,187.54L26.41,179.87L26.56,187.31L27.01,173.01L27.16,180.84L27.31,173.38L27.46,178.12L27.61,172.76L27.91,173.99L28.06,171.55L28.21,174.26L28.51,171.45L28.81,173.66L28.96,171.61L29.11,172.6L29.26,171.38L29.56,172.02L29.71,171.32L29.86,171L30.01,171.75L30.16,171.16L30.31,172.21L31.21,170.97L31.36,171.74L31.51,171.79L31.66,171.13L31.81,170.97L32.11,170.97L32.26,172.88L32.71,170.97L32.86,172.45L33.01,175.5L33.31,179.44L33.91,170.97L34.06,155.51L34.21,126.93L34.81,126.99L34.96,158.56L35.41,125.61L35.56,161.65L35.71,170.97L40.06,170.97L40.21,182.72L40.51,183.09L40.96,173.68L41.11,189.96L41.56,174.65L41.86,174.82L42.01,182.92L43.06,170.97L43.22,171.64L43.52,172.52L43.67,171.32L43.82,170.97L44.27,172.86L44.57,170.97L44.72,170.98L45.02,171.3L45.17,171.92L45.62,170.97L45.92,171.11L46.07,171.44L46.22,171.62L46.37,178.59L47.27,170.97L47.42,170.97L47.57,175.68L48.02,171.49L48.17,162.89L48.47,159.9L48.62,168.38L48.77,140.63L48.92,157.91L49.22,157.64L49.37,121.49L49.67,110.13L50.57,170.97L50.72,170.97L54.62,170.97L54.77,174.87L55.37,177.98L55.52,173.8L55.67,179.63L56.12,172.55L56.27,171.51L56.57,175.13L56.87,171.26L57.02,171.54L57.17,173.94L57.47,170.97L57.62,170.97L57.77,170.97L58.37,172.33L58.52,171.28L58.67,170.97L58.82,172.31L59.42,171.08L59.57,170.97L60.77,181.09L60.92,173.36L61.07,189.44L61.67,175.71L61.82,183.04L62.72,170.97L62.87,170.97L63.32,170.97L63.47,157.35L63.62,159.16L63.77,109.4L64.37,107.52L64.67,170.97L64.82,170.97L68.87,170.97L69.02,171.93L69.77,184.24L69.92,174.29L70.07,180.36L70.52,173.26L70.67,175.87L70.82,173.97L70.97,171.41L71.12,184.67L71.87,173.68L72.03,183.63L72.78,170.97L72.93,171.1L73.08,171L73.23,174.18L73.53,170.97L73.83,171.71L73.98,172.31L74.73,170.97L74.88,178.36L75.18,178.94L75.33,174.41L75.48,186.96L76.38,170.97L76.53,170.97L76.68,170.97L76.83,160.81L78.03,128.38L78.18,136.92L78.33,116.85L78.63,170.97L78.78,170.97L80.58,170.97L80.73,239.37L80.88,193.34L81.03,245.09L81.48,209.19L81.63,216.4L82.68,183.52L82.83,189.32L83.28,176.01L83.43,194.32L83.58,176.78L83.73,193.95L84.48,175.01L84.63,184.33L85.08,173.63L85.38,174.3L85.53,175.82L86.28,172.04L86.43,175.61L86.88,171.22L87.33,171.25L87.48,172.22L87.78,173.42L88.08,170.97L88.23,175.94L88.68,171.25L88.83,178.51L89.13,171.37L89.28,181.51L89.88,170.97L90.18,171.78L90.33,179.13L90.48,173.01L90.93,185L91.08,185.69L91.38,179.08L91.53,211.37L91.83,190.92L91.98,118.16L92.58,114.95L92.73,156.71L92.88,123.2L93.03,159.09L93.63,156.96L93.78,131.59L94.08,121.57L94.83,246.28L94.98,191.17L95.13,235.25L95.58,186.07L95.73,216.86L95.88,188.26L96.03,206.32L96.48,188.1L96.63,206.17L96.78,189.84L96.93,205.37L97.08,187.34L97.38,191.43L97.53,187.14L97.68,188.26L97.83,183.23L97.98,183.28L98.13,184.76L98.58,188.72L98.73,174.97L98.88,188.6L99.78,172.65L99.93,176.53L100.68,172.03L100.84,174.67L101.14,175.3L101.59,171.47L101.74,176.11L102.34,171.18L102.64,171.48L102.79,170.97L103.24,174.54L103.39,171.86L103.84,170.97L104.29,171.16L104.44,170.97L104.89,170.97L105.04,179.88L105.19,173.2L105.34,185.3L105.64,180.69L105.79,192.99L106.09,210.68L106.24,180.54L106.54,186.05L106.69,200.6L107.59,170.97L107.74,170.97L139.4,170.97L139.55,165.39L139.7,169.57L139.85,147.19L140.9,184.53L141.05,174.3L141.95,170.97L142.1,170.97L148.55,170.96L148.7,168.45L150.2,119.02L150.35,144.68L150.8,106.09L150.95,154.69L151.1,113.79L151.25,156.53L151.4,109.76L152,117.03L152.15,157.63L152.6,114.77L152.9,127.05L153.05,148.3L153.5,127.35L153.8,131.57L153.95,154.74L154.1,132.7L154.55,163.99L154.7,164.37L155.9,197.67L156.05,177.42L156.2,190.23L156.65,175.39L156.8,181.82L156.95,173.68L157.1,184.02L157.55,173.29L157.7,179.89L157.85,173.2L158,175.88L158.46,175.19L158.61,172.37L159.36,177.58L159.51,172.48L159.66,175.27L159.81,172.04L160.26,173.72L160.41,172.7L160.56,174.23L161.01,171.32L161.16,174.17L161.31,171.77L161.46,182.18L162.06,178.96L162.21,172.97L163.41,157.02L163.56,140.44L163.71,155.19L163.86,132.37L164.16,135.93L164.31,130.26L164.46,123.12L164.61,131.83L165.06,124.57L165.21,143.07L165.51,156.41L165.96,111.02L166.11,156.36L166.26,122.59L166.86,138.11L167.01,133.59L167.46,117.29L167.61,138L167.76,117.83L167.91,136.45L168.06,108.5L168.51,154.11L168.66,134.73L168.81,160.8L168.96,145.84L169.11,164.78L169.26,159.18L169.41,176.3L169.56,173.04L169.71,187.07L169.86,182.05L170.01,195.68L170.16,192.57L170.31,207.93L170.46,179.22L171.06,183.38L171.21,183.84L171.51,187.31L171.66,176.58L171.96,178.1L172.11,183.23L173.01,171.33L173.16,177.47L173.61,171.44L174.06,171.49L174.21,171.68L174.36,171.54L174.51,172.28L174.66,179.81L174.96,181.69L175.26,170.97L175.56,171.98L175.71,171.76L176.16,172.62L176.61,171.13L176.76,170.97L177.66,170.97L177.81,168.53L179.76,117.69L179.91,136.9L180.51,144.44L180.66,106.89L180.81,138.32L180.96,125.1L181.11,138.74L181.41,127.59L181.56,161.85L182.46,202.69L182.61,178.61L182.76,209.32L183.36,198.96L183.51,177.97L183.66,195.45L184.11,176.3L184.26,189.68L184.41,183.24L184.56,192.13L185.01,181.82L185.16,186.17L185.31,184L185.76,187.25L186.51,172.55L186.66,176.2L187.27,171.67L187.57,171.99L187.72,175.49L188.62,171.85L188.77,173.13L189.22,170.97L189.37,179.69L190.12,171.06L190.42,171.69L190.57,170.97L190.72,171.59L190.87,171.12L191.02,183.34L191.47,173.81L191.62,193.95L192.22,202.27L192.37,178.57L192.52,192.85L192.67,189.93L192.82,202.85L192.97,184.87L193.42,216.77L193.57,189.7L193.72,223.33L193.87,183.57L194.02,233.19L194.47,188.63L194.62,212.75L194.92,216L195.07,182.04L195.37,187.07L195.52,204.39L195.97,205.42L196.12,187.02L196.27,209.66L196.42,182.74L196.57,213.47L197.02,189.35L197.17,211.32L197.92,180.3L198.07,199.8L198.97,170.97L199.12,170.97L294.55,170.97L294.7,133.65L295.15,162.71L295.45,162.45L295.6,130.91L295.75,160.95L296.35,154.83L296.5,142.02L296.95,141.16L297.1,153.42L297.25,135.77L297.85,116.86L298,158.08L298.15,129.08L299.05,177.02L299.2,179.13L299.35,173.22L299.65,186.18L299.8,177.05L299.95,188.31L300.4,175.03L300.55,189.63L300.7,175.64L300.85,184.12L301.3,173.46L301.6,174.64L301.75,176.65L302.2,172.08L302.35,178.45L302.51,172.84L302.66,177.85L303.11,178.79L303.56,171.93L303.71,173.45L304.01,178.4L304.61,171.17L304.76,172.68L305.06,171.71L305.21,181.6L305.36,173.63L305.51,182.28L305.81,170.97L305.96,175.93L306.11,172.21L306.71,170.97L306.86,182.08L307.61,145.41L307.76,164.68L307.91,170.97L308.51,117.5L308.66,151.07L308.81,136.72L309.26,139.58L309.41,164.18L309.56,129.73L310.01,161.8L310.16,167.88L310.61,190.92L310.91,170.97L311.06,154.32L311.66,158.19L311.81,135.43L311.96,172.46L312.11,169.7L312.26,179.05L312.71,170.97L312.86,170.97L313.01,172.45L313.16,166.19L313.76,170.97L313.91,179.72L314.21,177.61L314.36,192.36L314.66,193.67L315.11,175.93L315.26,182.09L315.41,173.75L315.86,187.86L316.01,175.19L316.16,181.1L316.91,173.05L317.06,177.7L317.81,172.3L317.96,176.43L318.41,171.84L318.71,171.91L318.86,177.54L319.76,170.97L319.91,173.83L320.51,170.97L320.66,177.69L321.41,168.43L321.56,170.33L321.71,153.81L321.86,166.68L322.01,146.53L322.46,166.48L322.61,163.28L323.51,131.76L323.66,159.32L323.81,128.17L324.41,151.34L324.56,139.39L324.71,161.9L325.16,123.71L325.31,159.15L325.46,126.63L325.61,159.88L325.76,110.55L326.21,146.62L326.36,128.29L328.01,175.33L328.16,172.06L328.31,191.16L328.46,176.02L328.61,195.66L329.06,176.63L329.21,190.95L329.66,174.1L329.96,174.11L330.11,177.82L330.56,173.2L331.01,173.3L331.16,176.17L331.92,172.18L332.07,173.97L332.52,175.42L332.82,170.97L332.97,171.72L333.12,171.16L333.87,171.02L334.02,180.74L334.92,170.97L335.07,170.97L335.67,170.97L335.82,166.88L337.17,125.62L337.32,136.57L337.47,136.16L337.62,132.29L337.92,133.71L338.07,131.61L338.22,129.65L338.67,159.85L338.82,124.08L338.97,157.7L339.12,111.77L339.87,154.72L340.02,142.17L340.62,138.82L340.77,153.83L340.92,130.15L341.97,164.17L342.12,169.72L342.42,177.81L342.57,186.39L342.72,181.94L342.87,200.17L343.17,201.79L343.92,176.44L344.07,181.13L344.22,173.32L344.67,178.26L344.82,182.62L345.87,172.51L346.02,175.4L346.47,172.06L346.62,175.83L346.77,172.19L346.92,172.61L347.22,173.88L347.82,170.97L347.97,170.97L348.27,170.97L348.42,172.09L349.32,170.97L349.47,170.97L349.92,170.97L350.07,160.81L350.22,160.58L350.37,148.73L350.52,152.07L350.67,139.95L350.82,140.93L351.57,122.48L351.72,142.58L351.87,131.78L352.47,141.4L352.62,140.94L353.07,145.39L353.22,133.29L353.37,143.04L353.67,143.06L353.82,131.28L354.12,136.67L354.27,138.64L354.42,133.91L354.57,163.29L355.47,170.97L355.62,170.97L356.97,170.97L357.12,176.81L357.27,177.58L357.42,185.85L357.72,184.85L357.87,183.6L358.02,182.95L358.17,185.32L358.32,174.28L358.47,181.41L358.92,173.24L359.07,180.75L359.22,173.41L359.82,172.74L359.97,180.27L360.13,173.29L360.58,171.59L360.73,179.39L360.88,173.08L361.03,174.42L361.18,172.99L361.33,173.87L361.48,171.62L361.63,176.94L362.23,173.89L362.38,171.7L362.83,170.97L362.98,173.32L363.28,173.73L363.88,170.97L364.03,170.97L364.48,170.97L364.63,153.65L364.78,166.34L364.93,143.24L365.38,154.09L365.53,135.37L365.68,142.2L365.83,110.52L366.13,108.04L366.88,170.97L367.03,170.97L371.23,171.22L371.38,181.05L371.53,173.47L371.83,186.39L371.98,182.38L372.13,191.89L372.88,173.97L373.03,187.16L373.48,174.27L373.78,174.83L373.93,177.19L374.08,177.94L374.23,174.84L374.38,173.62L374.53,176.75L374.68,173.77L374.83,176.27L375.28,176.88L375.43,172.33L375.58,180.07L376.33,171.77L376.48,177.74L376.63,172.66L376.78,185.03L377.23,176.1L377.38,182.06L378.13,171.18L378.28,177.75L379.78,142.96L379.93,149.63L380.83,133.55L380.98,144.61L381.13,137.5L381.43,144.76L381.58,157.18L381.73,156.13L381.88,167.79L382.03,153.63L382.33,170.97L382.48,170.97L382.63,170.97L385.48,170.97L385.63,174L385.93,190.76L386.08,178.84L386.23,199.11L386.98,177.39L387.13,187.86L387.28,175.19L387.88,180.29L388.03,176.83L388.18,176.37L388.33,182.48L388.48,173.57L389.09,175.03L389.24,176.46L389.39,176.32L389.54,177.71L389.69,172.4L389.84,178.67L390.29,172.5L390.44,174.63L390.74,172.27L390.89,176.22L391.04,172.41L391.19,172.85L391.34,177.66L391.79,171.82L391.94,183.89L392.84,170.97L392.99,172.98L393.14,173.16L393.29,177.74L394.49,127.48L394.64,159.91L394.79,119.11L395.39,129.77L395.54,153.11L396.14,155.61L396.29,113.52L396.44,154.81L396.59,134.33L396.89,170.97L397.04,170.97L397.19,170.97L400.04,170.97L400.19,178.72L401.09,190.83L401.24,179.73L401.39,187.35L401.84,174.37L401.99,182.67L402.14,175.74L402.29,179.27L402.74,173.73L402.89,179.19L403.04,172.96L403.34,172.82L403.49,181.45L403.79,179.63L403.94,173.14L404.09,177.02L404.54,175.92L404.69,172.05L405.44,179.16L405.59,173.02L405.74,175.56L406.19,171.5L406.34,173.08L406.49,171.5L406.64,174.98L406.94,170.97L407.24,174.47L407.39,174.17L407.69,178.65L408.14,168.82L408.29,153.54L408.89,137.03L409.04,149.18L409.49,139.78L409.64,149.67L409.79,118.99L410.09,114.14L410.69,170.97L410.84,170.97L414.44,170.97L414.59,177.51L414.89,174.88L415.34,196.94L415.49,177.36L415.64,194.94L416.09,176.26L416.24,188.54L416.39,175.36L416.54,193.38L417.14,180.28L417.29,174.84L417.59,174.65L417.75,176.47L417.9,172.19L418.35,179.32L418.65,174.11L418.8,175.43L418.95,171.89L419.25,175.56L419.4,171.98L419.55,175.45L420.45,171.33L420.6,172.19L420.9,174.83L421.5,170.97L421.65,174.16L422.4,167.46L422.55,170.2L422.7,154.81L422.85,166.93L423,144.05L423.15,159.75L423.3,124.68L423.45,153.36L423.6,118.78L424.05,152.37L424.2,116.7L424.5,113.28L425.1,170.97L425.25,170.97L428.7,170.97L428.85,174.23L429,171.78L429.15,183.91L429.3,179.61L429.45,190.54L429.6,196.47L430.65,180.95L430.8,186.21L431.55,173.33L431.7,180.89L431.85,173.42L432,180.75" style="vector-effect: non-scaling-stroke; fill: none; stroke: rgb(0, 191, 255); stroke-opacity: 1; stroke-width: 2px; opacity: 1;"/></g><g class="points"/><g class="text"/></g><g class="trace scatter tracef31643" style="stroke-miterlimit: 2; opacity: 0.5;"><g class="fills"/><g class="errorbars"/><g class="lines"><path class="js-line" d="M0,171.16L3.3,170.92L3.45,170.09L4.2,142.31L4.35,130.32L6,16.01L6.45,16.18L6.6,16.2L9.45,16.84L9.6,18.82L10.65,92.11L10.8,104.12L12.3,171.17L12.45,171.17L17.71,170.91L17.86,169.64L18.76,130.53L18.91,119.13L20.56,16.2L20.86,17.56L21.01,21.88L21.16,29.43L21.31,16.23L21.61,16.3L21.76,16.36L23.86,16.64L24.01,18.13L26.56,171.17L26.71,171.17L32.26,170.72L32.41,169.35L33.76,138.35L33.91,123.76L34.81,28.02L34.96,42.68L35.11,38.49L35.86,16.13L36.01,16.6L36.16,19.05L36.31,17.2L36.46,17.23L36.61,22.93L36.76,22.58L36.91,18.63L37.06,21.56L37.51,16.36L37.66,16.38L38.26,16.5L38.41,18.19L40.06,139.81L40.21,159.98L41.26,171.17L41.41,171.15L46.97,170.67L47.12,169.26L48.02,150.96L48.17,134.77L49.37,53.74L49.52,32.31L49.67,29.18L49.82,35.84L49.97,16.66L50.72,16.13L50.87,16.15L52.52,16.34L52.67,16.95L53.27,49.88L53.42,68.64L53.57,68.34L53.72,74.37L55.22,171.13L55.37,171.17L61.22,170.79L61.37,169.98L63.32,129.65L63.47,112.43L64.52,16.09L64.67,16.1L67.07,16.55L67.22,19.54L68.87,140.93L69.02,151.66L70.07,171.17L70.22,171.16L75.33,170.93L75.48,170.15L76.38,132.4L76.53,121.09L78.18,16.28L78.63,16.4L78.78,16.47L80.28,16.7L80.43,21.15L81.48,170.97L81.63,170.97L91.53,170.97L91.68,167.53L92.73,16.41L92.88,16.42L94.08,16.64L94.23,25.73L95.28,170.97L95.43,170.97L138.8,170.97L138.95,160.8L139.85,60.6L140,70.73L141.8,171.16L141.95,171.16L147.35,170.94L147.5,170.15L148.25,144.99L148.4,134.74L150.5,16.27L150.65,16.28L150.8,16.34L153.5,17.32L153.65,22.36L156.5,171.17L156.65,171.16L161.76,170.94L161.91,170.21L162.66,144.88L162.81,134.04L164.76,16.16L165.06,16.22L165.21,16.25L167.91,16.55L168.06,18.7L169.56,124.75L169.71,136.78L170.91,171.17L171.06,171.16L176.31,170.78L176.46,169.83L177.66,138.26L177.81,124.61L179.31,16.24L179.76,16.31L179.91,16.44L182.01,16.48L182.16,32.63L183.06,170.97L183.21,170.97L294.25,170.97L294.4,160.97L295.15,16.06L295.3,16.09L295.45,16.17L297.4,16.43L297.55,17L298.3,55.5L298.45,67.48L299.8,166.76L299.95,170.3L300.85,171.16L301,171.16L305.81,171.05L305.96,170.43L307.16,137.98L307.31,124.42L307.91,131.04L308.51,18.99L308.66,31.94L308.81,32.23L308.96,20.87L309.26,20.84L309.41,47.48L309.56,28.83L309.71,17.35L310.16,53.3L310.31,89.71L310.61,108.45L311.66,16.37L311.81,21.75L312.26,109.28L312.86,109.25L313.01,113.31L313.16,97.5L313.46,114.73L313.61,133.66L314.96,171.17L315.11,171.17L320.21,170.81L320.36,169.21L321.26,133.06L321.41,121.74L323.06,16.02L323.51,16.13L323.66,16.25L326.36,16.56L326.51,17.55L327.56,83.1L327.71,95.54L329.36,171.17L329.51,171.17L334.62,170.91L334.77,170.17L335.37,154.43L335.52,142.66L337.47,16.16L337.77,16.21L337.92,16.31L340.77,16.49L340.92,16.77L341.37,37.83L341.52,47.73L343.77,171.18L343.92,171.18L349.02,170.95L349.17,170.34L349.77,154.26L349.92,141.72L351.72,16.09L352.02,16.15L352.17,16.29L354.57,16.48L354.72,16.47L355.32,16.52L355.47,18.49L356.97,131.86L357.12,143.73L358.17,171.18L358.32,171.18L363.43,170.99L363.58,170.41L364.18,154.6L364.33,142.91L366.28,16.04L366.58,16.18L366.73,16.18L369.73,16.89L369.88,21.58L372.58,171.18L372.73,171.18L377.83,170.99L377.98,170.17L378.88,134.66L379.03,123.53L380.98,16.3L381.13,16.47L381.28,16.5L382.48,16.67L382.63,16.65L383.53,17.13L383.68,21.48L383.98,18.04L386.98,171.18L387.13,171.18L392.39,170.43L392.54,167.49L393.14,145.36L393.29,134.02L395.24,16.27L395.54,16.4L395.69,16.47L398.39,16.72L398.54,18.34L399.74,97.46L399.89,110.2L401.24,171.17L401.39,171.18L406.79,170.47L406.94,167.85L407.54,145.64L407.69,133.85L409.49,16.15L409.94,16.24L410.09,16.31L411.59,16.53L411.74,16.45L412.79,16.57L412.94,17.62L413.99,85.65L414.14,98.24L415.79,171.18L415.94,171.18L421.2,170.55L421.35,168.57L421.95,146.21L422.1,134.52L423.9,16.22L424.35,16.43L424.5,16.48L425.55,17.34L425.7,18.24L426.3,16.46L426.45,16.53L426.6,16.57L427.2,16.62L427.35,17.59L428.55,96.15L428.7,108.62L430.2,171.18L430.35,171.18L432,171.16" style="vector-effect: non-scaling-stroke; fill: none; stroke: rgb(255, 0, 0); stroke-opacity: 1; stroke-width: 2px; opacity: 1;"/></g><g class="points"/><g class="text"/></g><g class="trace scatter traced026c8" style="stroke-miterlimit: 2; opacity: 0.5;"><g class="fills"/><g class="errorbars"/><g class="lines"><path class="js-line" d="M0,196.2L0.45,199.2L0.75,198.06L0.9,197.76L1.05,196.51L1.2,206.52L2.1,193.9L2.25,195.04L2.4,193.56L3,195.07L3.15,202.82L5.1,149.84L5.25,156.69L6.15,111.77L6.3,143.39L6.45,113.62L6.6,150.7L7.05,115.88L7.2,148.08L7.35,117.46L7.8,153.09L7.95,117.84L8.1,157.89L8.85,112.83L9,156.15L9.45,109.88L9.75,110.64L9.9,153.71L10.05,122.61L10.5,165.82L10.65,165.19L11.7,213.99L12,209.7L12.15,200.26L12.3,204.32L12.6,199.35L12.75,202.4L12.9,199.58L13.2,198.71L13.35,198.4L13.95,199.04L14.1,196.24L14.25,197.9L14.56,198.06L14.86,193.78L15.01,196.27L15.16,197.19L15.61,194.5L15.91,196.05L16.06,195.79L16.21,196.33L16.36,194.92L16.66,195.87L16.81,195.31L16.96,194.02L17.41,194.43L17.56,195.39L17.71,195.43L17.86,194.86L18.01,191.1L20.26,120L20.41,133.66L20.71,139.81L21.61,85.52L21.76,98.46L22.36,143.15L22.96,139.76L23.11,140.53L24.01,90.73L24.16,117.79L24.31,117.96L24.46,131.14L24.61,131.86L24.76,152.62L25.66,216.33L25.96,211.2L26.11,201.8L26.26,213.15L26.71,201.82L26.86,200.36L27.01,201.09L27.16,197.36L27.61,198.85L27.76,196.42L27.91,197.88L28.06,196.48L28.36,196.86L28.51,195.52L28.81,196.13L28.96,196.32L29.86,195.18L30.01,195.22L30.46,195.87L30.91,193.73L31.06,195.21L31.21,195.09L31.36,195.61L31.51,195.84L32.41,192.28L32.56,193.26L33.16,200.66L33.46,200.48L33.61,194.78L34.96,130.69L35.11,152.46L35.86,85.81L36.01,89.86L36.16,82.34L36.61,89.9L36.76,83.22L36.91,82.18L37.06,87.92L37.36,79.88L37.51,90.87L37.66,94.94L38.41,83.96L38.56,86.99L38.71,85.76L40.36,203.58L40.51,197.93L40.81,197.91L40.96,214.66L41.26,212.02L41.41,198.92L41.56,209.79L41.71,198.41L42.16,207.14L42.31,200.22L42.91,194L43.06,194.52L43.22,195.56L43.37,196.24L43.67,194.22L43.82,193.97L44.27,195.25L44.42,193.7L44.57,194.7L44.72,195.02L45.02,195.55L45.62,193.55L45.77,195.05L45.92,193.58L46.07,195.52L46.22,204.82L46.67,188.93L47.12,194.15L47.27,190.98L47.42,198.59L47.87,195.3L48.02,181.3L48.92,141.4L49.07,160.23L49.97,96.26L50.27,104.77L50.42,108.79L50.72,106.98L50.87,110.48L51.02,99.04L51.62,102.33L51.92,80.44L52.07,83.47L52.22,76.87L52.37,103.91L52.67,101.11L52.82,93.12L54.92,200.76L55.07,201.86L55.52,202.13L55.97,196.73L56.12,199.69L56.87,195.47L57.02,196.19L57.32,195.84L57.47,194.82L57.62,193.4L57.92,195.4L58.07,195.3L58.22,195.66L58.37,195.88L58.67,195.02L58.82,195.49L58.97,195.22L59.57,195.46L59.87,193.06L60.02,204.39L60.17,197.85L60.77,199.26L60.92,212.58L61.07,190.3L61.67,206.18L61.82,200.25L62.72,177.92L62.87,187.91L63.02,188.31L63.77,147.93L63.92,103.57L64.07,149.03L64.52,107.26L64.67,83.15L64.82,81.51L64.97,84.62L65.12,83.14L65.27,86.21L65.57,80.81L65.72,62.97L66.62,84.31L66.77,84.16L66.92,88.83L67.07,74.03L67.22,70.51L67.97,119.22L68.12,133.5L69.62,205.36L69.77,198.3L69.92,205.97L70.37,196.75L70.52,198.76L70.67,196.86L71.27,208.14L71.42,198.28L71.57,206.79L72.03,197.59L72.18,193.04L72.33,196.43L72.93,195.25L73.08,195.5L73.23,195.22L73.38,192.77L73.98,195.83L74.13,194.12L74.28,195.06L74.43,193.63L74.58,194.26L74.73,203.53L74.88,197.57L75.18,199.32L75.33,212.23L75.78,185.93L76.08,195.99L76.23,195.31L76.68,166.17L76.83,157.95L77.13,158.92L77.58,140.8L77.73,155.39L78.78,94.24L78.93,95.95L79.53,68.56L79.83,70.49L79.98,81.13L80.13,75.97L80.28,96.95L80.43,104.2L80.58,170.17L81.18,268.58L81.48,250.09L81.63,228.56L81.78,232.01L81.93,218.05L82.08,230.01L82.53,206.68L82.68,215.01L83.43,200.18L83.58,210.59L84.18,210.76L84.33,198.34L84.48,205.12L84.63,197.3L85.23,197.38L85.38,200.09L85.83,196.47L86.28,196.93L86.43,196.61L86.58,199.48L86.88,196.03L87.18,198.44L87.33,195.01L87.63,196.87L87.78,195.86L87.93,194.53L88.23,195.47L88.38,193.27L88.53,195.24L88.98,193.89L89.43,204.24L89.58,188.01L91.08,221.73L91.23,205.25L91.38,236.46L91.83,189.07L91.98,173.57L92.43,115.18L92.73,126.26L92.88,167.94L93.63,130.35L93.78,155.5L93.93,122.68L94.23,140.56L94.38,199.55L94.53,204.51L94.68,269.79L95.43,205.93L95.58,240.89L95.73,207.84L96.33,211.84L96.48,225.96L96.78,230.43L97.23,210.76L97.38,220.53L97.53,205.28L98.13,207.71L98.28,207.56L98.58,204.47L98.73,208.56L98.88,197.74L99.18,197.3L99.33,201.57L99.63,199.79L99.78,197.51L99.93,196.67L100.08,200.35L100.84,196.35L100.99,197.64L101.29,197.74L101.44,195.39L101.74,195.97L101.89,196.43L102.19,196.97L102.79,194.57L102.94,195.22L103.09,195.08L103.24,195.25L103.39,192.71L104.14,195.93L104.29,195.81L104.44,194.63L104.74,194.92L104.89,196.63L105.04,196.13L105.19,204.65L105.34,200.25L105.49,202.68L105.64,214.69L105.94,227.74L106.09,201.76L106.24,232.01L106.39,204.86L106.99,231.92L107.14,227.8L107.74,254.64L108.19,249.39L108.34,242.26L108.64,239.69L109.39,285.11L109.54,277.95L109.69,281.94L109.84,271.67L110.14,279.07L110.29,262.87L111.19,234.43L111.34,236.13L112.54,219.73L112.69,228.42L113.44,207.82L113.59,209.71L113.74,206.85L114.04,206.07L114.19,203.02L114.34,204.41L114.49,204.22L114.64,199.15L114.94,203.63L115.09,198.6L115.39,200.94L115.54,198.15L115.69,199.49L115.99,196.77L116.14,197.74L116.29,196.17L116.44,200.18L116.89,198.81L117.04,194.38L117.64,209.52L117.79,206.61L117.94,197.95L118.84,193.49L118.99,195.87L119.14,194.56L119.29,206.31L120.34,232.69L120.49,228.51L120.64,235.83L120.94,223.56L121.09,224.61L121.24,226.1L122.59,283.43L122.89,275.5L123.04,270.54L123.19,285.94L123.34,264.03L123.79,271.58L123.94,265.71L124.24,280.25L124.54,278.17L124.69,268.91L124.84,267.43L124.99,258.15L125.74,232.46L125.89,234.24L126.04,233.71L126.19,230.15L126.49,240.77L126.64,240.21L128.14,207L128.29,209.66L128.89,201.63L129.04,204.2L129.19,207.55L129.95,197.95L130.1,202.32L130.7,196.54L130.85,197.53L131,200L131.15,201.6L131.3,196.4L131.6,199.17L131.75,196.34L132.05,194.81L132.2,197.16L132.35,198.08L132.5,194.91L132.65,195.35L132.8,194.27L133.4,204.88L133.55,210.23L134.15,220.29L134.3,231.25L135.05,269.08L135.35,261.77L135.5,266.06L135.65,288.92L136.25,279.5L136.4,281.15L136.85,276.16L137,284.62L137.15,269.08L137.6,290.97L137.75,280.91L137.9,265.09L138.05,266.6L138.2,265.74L138.35,299.03L138.65,304L139.1,231.53L139.25,184.83L139.4,207L139.55,166.62L139.85,168.49L140,170.97L140.15,171.98L140.3,183.35L140.45,180.82L140.6,195.47L140.9,198.82L141.05,215.54L141.5,240.57L141.95,234.96L142.1,231.33L143,203.52L143.15,208.26L143.3,204.16L143.45,206.35L143.75,203.8L143.9,205.67L144.05,198.71L144.2,204.49L144.5,196.82L144.8,202.58L144.95,198.56L145.1,199.09L145.25,204.16L145.4,195.68L145.85,212.59L146,210.65L146.3,195.78L146.9,195.96L147.05,195.34L147.5,205.48L147.95,204.99L148.1,193.96L149.75,131.03L149.9,141.43L150.5,144.35L150.65,106.1L150.8,157.57L150.95,108.67L151.55,127.17L151.7,150.29L151.85,119.51L152,156.82L152.45,120.37L152.6,147.87L152.75,124.44L152.9,149.88L153.35,127.21L153.5,147.23L153.95,125.71L154.1,155.38L154.25,135.4L154.4,163.25L154.55,163.1L154.7,171.73L155.75,210.72L155.9,202.98L156.35,211.2L156.5,198.9L156.65,206.87L156.8,197.46L156.95,203.23L157.4,197.22L157.55,202.13L157.7,197.2L157.85,201.54L158,196.81L158.46,199.63L158.61,198.66L158.91,198.96L159.51,195.97L159.66,196.11L159.81,198.01L160.11,195.62L160.41,198.36L160.56,196.83L160.71,197.54L160.86,195.57L161.16,195.7L161.31,205.22L162.36,185.49L162.51,186.01L164.76,123.68L164.91,132.04L165.21,126.91L165.36,151.37L165.81,113.63L165.96,169.89L166.11,125.37L166.26,157.32L166.41,122.14L167.01,124.93L167.16,132.49L167.76,137.63L167.91,115.86L168.06,136.51L168.21,113.6L168.66,157.65L168.81,137.51L169.86,214.39L170.01,217.34L170.16,224.01L170.31,199.59L170.46,218.53L170.61,201.35L170.76,213.29L171.36,208.58L171.51,203.83L171.66,210.39L171.81,200.76L171.96,208.92L172.11,191.86L172.56,200.06L173.01,197.43L173.16,195.96L173.31,195.19L173.61,197.44L173.91,195.79L174.06,195.54L174.36,196.1L174.51,205.15L175.41,195.5L175.56,193.86L176.16,196.1L176.31,195.34L176.46,194.85L179.46,121.41L179.61,122.84L179.76,134.7L180.36,141.68L180.51,109.17L180.66,140.86L180.96,142.3L181.71,78.58L181.86,89.2L182.01,89.61L182.16,105.83L182.61,226.66L183.06,202.65L183.21,221.31L183.96,200.31L184.11,214.22L184.41,216.01L184.86,206.04L185.01,213.28L185.76,193.38L186.06,196.53L186.21,200.16L186.66,196.49L186.96,196.56L187.11,199.2L187.72,196.08L188.02,196.23L188.17,196.37L188.32,195.15L188.77,195.83L188.92,196.81L189.07,194.24L189.22,203.96L189.37,198.12L189.52,204.58L189.67,190.99L190.27,195.59L190.42,194.92L190.57,194.56L190.72,195.14L190.87,203.78L191.17,205.26L191.32,190.06L191.47,214.91L192.07,222.3L192.22,196.89L192.37,216.23L192.52,210.85L192.67,221.74L192.82,214.73L192.97,226.1L193.12,210.42L193.27,239.15L193.42,214.9L193.57,242.05L193.87,252.29L194.32,206.32L194.47,235.89L194.77,236.61L194.92,200.31L195.22,205.73L195.37,232.94L196.27,211.97L196.42,233.45L196.72,238.34L196.87,212.68L197.17,213.88L197.32,235.44L197.77,200.05L198.22,208.94L198.37,200.73L198.67,221.92L199.12,210.24L199.27,215.87L200.17,204.9L200.32,215.26L201.67,198.18L201.82,198.85L201.97,200.97L202.12,200.94L202.27,196.95L202.42,196.14L202.57,201.66L203.47,194.92L203.62,195.66L203.92,193.61L204.22,196.09L204.37,196.18L204.97,193.27L205.12,196.21L205.27,196.93L205.42,194.12L205.72,198.39L205.87,210.99L206.17,214.12L206.32,220.47L206.77,205L206.92,215.26L208.27,255.01L208.42,254.58L208.57,245.03L208.72,255.74L209.02,234.37L209.17,235L209.32,239.2L209.62,232.88L210.37,253.03L210.52,250.17L210.82,260.21L211.12,258.71L211.27,246.17L212.02,253L212.17,252.32L212.32,244.28L213.37,220.05L213.52,220.23L213.82,211.13L214.27,216L214.42,217.27L214.57,219.98L215.02,215.02L215.17,214.91L216.53,196.1L216.68,197.85L216.98,201.05L217.28,196.02L217.43,206.67L217.58,209.32L217.73,207.85L217.88,196.61L218.33,196.82L218.63,193.05L218.93,193.3L219.08,194.79L219.23,207.73L219.83,195.75L219.98,196.78L220.13,197.22L220.28,200.97L221.18,244.61L221.48,240.39L221.63,231.91L221.93,229.45L222.23,251.16L222.68,249.71L222.83,241.32L222.98,233.01L223.43,240.14L223.58,248.52L224.48,275.13L224.63,261.73L225.23,272.42L225.53,267.39L225.68,257.11L225.98,272.44L226.28,256.63L226.43,255.77L226.58,237.25L227.03,250.81L227.18,256.8L228.53,222.89L228.68,219.44L229.43,198.3L229.58,201.1L229.73,201.65L230.33,204.66L230.48,195.03L230.63,198.55L231.08,200.51L231.23,193.6L231.38,198.76L231.68,198.78L231.98,193.29L232.28,194.44L232.43,197.57L232.58,197.23L232.73,193.91L233.18,197.83L233.48,194.95L233.63,192.69L233.93,211.85L234.38,209.19L234.53,196.99L235.88,238.31L236.03,228.26L237.23,252.21L237.38,243.44L237.83,220.21L238.28,226.38L238.43,229.21L238.73,234.26L238.88,226.35L239.78,264.03L239.93,259.35L240.08,248.41L240.98,228.85L241.13,226.54L241.28,230.2L241.73,223.61L241.88,210.23L242.03,220.6L242.48,208.53L242.63,206.81L242.78,212.44L243.08,203.34L243.23,198.03L243.53,200.51L243.83,197.67L243.98,195.9L244.28,198.22L244.43,195.66L244.58,192.6L244.73,192.61L244.89,196.94L245.04,196.75L245.19,193.84L245.64,192.65L245.94,196.97L246.09,194.82L246.54,196.33L246.69,192.8L246.84,194.53L246.99,194.18L247.29,195.64L247.74,191.85L247.89,193.43L248.04,194.89L248.19,191.99L248.64,194.13L248.79,192.73L249.09,209.52L249.54,196.93L249.69,198.21L250.29,239.57L250.74,239.48L250.89,230.15L251.64,257.15L251.94,255.87L252.09,249.39L252.24,253.2L252.39,240.94L252.69,249.75L252.84,244.81L253.29,235.75L253.44,253.03L254.94,218.48L255.09,224.34L256.14,213.41L256.29,213.38L256.44,213.93L256.59,206.91L256.89,213.13L257.34,207L257.49,204.96L258.39,198.73L258.54,202.68L259.14,196.96L259.44,197.41L259.59,200.41L260.94,192.25L261.09,192.29L261.24,193.5L261.39,202.12L261.69,192.25L261.99,193.81L262.14,201.21L262.29,204.87L262.59,194.44L262.89,203.45L263.04,203.54L263.19,203.63L263.34,205.21L263.79,210.64L263.94,209.77L264.09,200.09L264.54,215.81L264.69,204.21L264.99,209.69L265.14,205.53L266.49,246.52L266.79,245.57L266.94,237.1L267.09,236.15L267.24,229.22L267.54,222.15L267.84,230.89L267.99,228.24L268.14,234.22L268.59,238.21L269.04,219.8L269.19,232.49L269.64,227.18L269.94,230.72L270.09,237.98L271.14,219.13L271.29,212.46L271.44,213.62L271.59,211.82L271.74,209.34L272.04,203.08L272.19,208.12L272.79,201.07L272.94,201.95L273.09,202.85L273.54,197.67L273.7,203.12L273.85,198.25L274,199.09L274.15,197.61L274.45,201.87L274.6,200.91L275.5,192.06L275.65,193.74L275.8,191.8L276.4,193.4L276.55,191.89L276.7,192.77L276.85,192.67L277,201.45L277.6,216.63L277.75,209.07L277.9,198.65L278.05,197.46L278.2,205.53L280.15,253.97L280.3,251.62L281.05,265.43L281.2,263.23L281.35,267.31L281.5,268.69L281.65,260.7L282.1,257.15L282.7,277.33L282.85,277.11L283,279.15L284.95,226.19L285.25,227.14L285.4,225.56L286.75,205.7L286.9,206.7L287.65,201L287.8,201.86L287.95,202.67L288.1,202.82L288.25,201.54L289,193.87L289.15,202.48L289.75,193.28L290.05,196.65L290.2,195.79L290.65,196.67L290.8,194.28L291.1,194.86L291.25,196.28L291.55,193.17L291.7,194.33L291.85,204.54L293.2,231.19L293.35,247.99L293.5,245.65L293.65,254.76L293.8,259.65L294.55,195.5L294.7,172.78L295.45,134.85L295.6,171.6L296.35,137.66L296.5,153.23L297.4,134.94L297.55,152.99L297.7,122.52L298.15,162.47L298.3,144.86L298.45,167.02L298.6,162.26L298.75,175.82L298.9,197.25L299.8,209.57L299.95,202.37L300.1,212.65L300.55,198.21L300.7,202.01L301,202.64L301.45,197.42L301.6,202.6L302.35,196.92L302.51,201.12L303.41,196.26L303.56,198.9L304.16,193.83L304.31,196.15L304.46,197.83L304.61,196.08L304.91,196.97L305.06,204.23L305.36,206.05L306.11,188.79L306.26,193.97L306.56,188.59L306.71,204.64L307.76,157.1L307.91,187.39L308.36,116.95L308.81,153.57L308.96,137.64L309.41,145.73L309.56,175.97L309.71,130.28L310.16,166.97L310.31,199.45L311.21,140.26L311.36,149.61L311.51,152.01L311.66,146.42L311.81,161.25L311.96,158.22L312.11,190.86L312.56,182.46L312.71,183.78L312.86,195.43L313.31,166.79L313.61,190.51L313.76,195.81L314.51,210.19L314.66,199.74L314.81,209.73L315.26,198.02L315.41,206.34L315.56,197.47L316.31,202.97L316.46,196.84L316.61,200.06L317.06,196.61L317.21,199.68L317.36,196.68L317.51,199.9L317.96,196.19L318.11,197.42L318.26,195.73L318.71,197.92L318.86,196.15L319.16,195.71L319.31,196.72L320.36,192.87L320.51,199.27L320.66,205.29L320.81,193.62L321.11,193.94L321.26,173.32L321.71,176.06L322.16,162.87L322.31,166.65L322.46,171.33L323.36,142.77L323.51,160.85L323.96,127.04L324.26,141.55L324.41,145.57L324.71,140.28L324.86,161.41L325.01,136.22L325.16,160.96L325.61,118.35L325.76,155.77L325.91,112.26L326.06,156.06L326.66,134.85L326.81,136.91L328.76,221.4L328.91,198.41L329.06,213.41L329.51,197.42L329.66,200.62L329.81,197.42L329.96,203.05L330.56,200.42L330.71,197.94L330.86,200.65L331.16,197.75L331.32,199L331.47,196.32L331.62,199.4L332.07,196.05L332.22,197.66L332.37,195.26L332.52,195.35L332.67,192.24L332.97,195.47L333.42,195.27L333.57,194.89L333.72,195.24L333.87,204.15L334.92,189.29L335.07,188.6L335.22,194.3L335.52,183.34L335.67,170.19L336.42,159.85L336.57,152.43L337.02,131.28L337.47,138.38L337.62,134.19L338.07,124.78L338.22,149.25L338.82,158.13L338.97,106.38L339.12,154.15L339.27,120.97L339.42,154.78L339.87,135.63L340.02,150.06L340.62,152.14L340.77,137.76L340.92,142.49L341.07,137.96L341.22,149.12L341.37,143.71L341.52,161.02L341.67,148.97L341.97,165.19L342.12,177.88L343.02,225.65L343.17,214.85L343.32,217.3L344.07,200.04L344.22,204.2L344.37,197.91L344.97,206.32L345.12,200.77L345.27,201.03L346.02,196.18L346.17,198.26L346.77,194.65L347.07,195.82L347.22,195.23L348.12,192.02L348.27,194.45L348.42,195.26L348.57,194.13L348.72,194.55L348.87,192.46L349.02,193.05L349.17,192.33L349.32,189.8L349.47,191.09L349.62,184.72L351.27,133.43L351.42,137.72L351.57,133.63L352.02,139.39L352.17,138.61L352.32,142.21L352.62,133.08L352.77,139.12L352.92,137.54L353.07,129.86L353.52,144.58L353.67,130.76L353.82,140.3L355.02,102.4L355.17,103.77L355.32,96.76L355.47,88.69L355.77,104.65L355.92,116.29L357.57,211.28L357.87,208.57L358.02,207.9L358.47,198.55L358.62,206.03L359.37,197.28L359.52,202.68L359.97,196.44L360.28,197.23L360.43,200.89L361.03,196.36L361.33,196.64L361.48,196.73L361.78,192.09L362.08,195.97L362.23,195.36L362.38,193.56L362.83,193.65L362.98,195.44L363.58,192.48L363.73,192.9L363.88,188.54L364.18,182.27L364.33,173.54L364.78,151.82L364.93,172.03L365.98,109.42L366.13,132.58L366.88,71.6L367.03,79.24L367.18,82.54L368.83,129.56L369.13,125.26L369.28,123.55L369.43,125.21L369.58,122.66L369.73,105.58L370.63,148.96L370.78,164.64L371.98,210.98L372.13,207.55L372.28,214.75L373.03,198.59L373.18,203.36L373.33,198.07L373.48,204.28L373.63,197.68L374.08,201.91L374.23,200.86L374.83,198.3L374.98,200.5L375.13,199.3L375.58,196.48L375.88,196.74L376.03,200.33L376.48,196.2L376.63,205.96L377.53,192.75L377.68,196.26L377.98,195.07L378.13,202.08L378.43,198.27L378.58,185.83L378.73,188.26L378.88,174.04L380.23,137.53L380.53,140.45L380.68,140.25L380.98,135.77L381.13,145.04L381.28,146.37L381.43,155.99L381.58,156.68L381.73,169.54L383.08,116.89L383.23,147.63L383.53,142.37L383.68,159.35L383.83,160.53L383.98,151.53L384.43,136.84L384.58,140.24L384.73,144.08L386.38,223.53L386.68,217.53L386.83,203.18L386.98,214.2L387.43,199.11L387.58,207.37L387.73,202.11L388.03,203.62L388.18,201.38L388.63,197.75L388.78,204.16L388.94,197.98L389.09,204.56L389.54,200.01L389.69,200.63L389.84,196.77L390.29,200.99L390.44,196.86L390.59,199.35L390.74,199.39L390.89,196.92L391.04,199.94L391.49,198.16L391.64,196.08L391.79,207.65L392.24,188.83L392.39,196.18L392.54,194.49L392.69,189.2L392.84,202.44L393.14,198.47L393.29,195.87L394.64,128.46L394.79,155.64L394.94,117.62L395.09,158.53L395.54,128.33L395.69,153.28L396.14,117.4L396.29,154.51L396.44,124.86L396.59,159.09L397.04,113.34L397.34,137.56L397.49,147.12L397.64,147.83L397.79,132.55L398.24,134.87L398.69,112.17L398.84,117.79L398.99,127.48L399.14,124.88L399.29,139.39L399.44,140.23L399.59,153.12L400.79,210.46L400.94,211.57L401.24,213.9L401.69,198.06L401.99,198.54L402.14,206.81L402.89,198.1L403.04,202.93L403.79,196.98L403.94,200.36L404.24,201.15L404.84,196.57L404.99,200.46L405.29,195.13L405.74,196.27L405.89,198.29L406.79,190.83L406.94,193.91L407.39,189.04L407.54,201.33L407.69,196.36L407.84,185.85L408.74,147.02L409.04,147.16L409.19,149.18L409.49,150.36L409.94,119.42L410.09,148.54L410.69,82.29L410.99,95.39L411.14,90.18L412.19,158.68L412.34,149.54L413.09,113.1L413.39,128.22L413.54,145.32L415.19,215.25L415.34,201.43L415.79,218.28L415.94,199.4L416.09,208.13L416.24,199.43L416.39,211.96L416.99,210.65L417.14,197.89L417.29,204.25L417.9,199.94L418.05,196.24L418.35,196.61L418.5,197.73L418.8,198.76L419.4,195.74L419.55,196L420,195.13L420.3,197.06L420.45,194.55L420.75,195.99L421.05,194.19L421.2,195.07L421.35,192.86L421.5,201.61L421.8,185.18L421.95,187.44L422.1,175.05L422.4,176.74L422.85,157.67L423,163.49L423.15,132.09L423.3,154.88L423.45,123.31L423.9,154.27L424.05,124.95L424.5,157.18L424.65,112.74L424.8,104.19L424.95,120.52L425.55,117.14L425.7,92.29L425.85,90L426,94.76L426.15,94.64L426.3,100.21L426.45,90.29L426.6,109.64L427.05,91.37L427.2,95.22L427.5,85.36L427.65,98.76L427.8,117.87L429.6,218.39L429.9,214.29L430.05,211.22L430.2,212.05L430.35,208.74L430.5,207.98L430.65,210.63L430.8,196.13L430.95,206.34L431.55,203.26L431.7,197.14L431.85,198.39L432,197.42" style="vector-effect: non-scaling-stroke; fill: none; stroke: rgb(0, 128, 0); stroke-opacity: 1; stroke-width: 2px; opacity: 1;"/></g><g class="points"/><g class="text"/></g></g></g><g class="overplot"/><path class="xlines-above crisp" d="M0,0" style="fill: none;"/><path class="ylines-above crisp" d="M0,0" style="fill: none;"/><g class="overlines-above"/><g class="xaxislayer-above"><g class="xtick"><text text-anchor="middle" x="0" y="433" transform="translate(137.62,0)" style="font-family: 'Open Sans', verdana, arial, sans-serif; font-size: 12px; fill: rgb(42, 63, 95); fill-opacity: 1; white-space: pre; opacity: 1;"><tspan class="line" dy="0em" x="0" y="433">Jun 5</tspan><tspan class="line" dy="1.3em" x="0" y="433">2022</tspan></text></g><g class="xtick"><text text-anchor="middle" x="0" y="433" style="font-family: 'Open Sans', verdana, arial, sans-serif; font-size: 12px; fill: rgb(42, 63, 95); fill-opacity: 1; white-space: pre; opacity: 1;" transform="translate(238.46,0)">Jun 12</text></g><g class="xtick"><text text-anchor="middle" x="0" y="433" style="font-family: 'Open Sans', verdana, arial, sans-serif; font-size: 12px; fill: rgb(42, 63, 95); fill-opacity: 1; white-space: pre; opacity: 1;" transform="translate(339.29,0)">Jun 19</text></g><g class="xtick"><text text-anchor="middle" x="0" y="433" style="font-family: 'Open Sans', verdana, arial, sans-serif; font-size: 12px; fill: rgb(42, 63, 95); fill-opacity: 1; white-space: pre; opacity: 1;" transform="translate(440.13,0)">Jun 26</text></g></g><g class="yaxislayer-above"><g class="ytick"><text text-anchor="end" x="79" y="4.199999999999999" transform="translate(0,352.08000000000004)" style="font-family: 'Open Sans', verdana, arial, sans-serif; font-size: 12px; fill: rgb(42, 63, 95); fill-opacity: 1; white-space: pre; opacity: 1;">−50</text></g><g class="ytick"><text text-anchor="end" x="79" y="4.199999999999999" style="font-family: 'Open Sans', verdana, arial, sans-serif; font-size: 12px; fill: rgb(42, 63, 95); fill-opacity: 1; white-space: pre; opacity: 1;" transform="translate(0,270.97)">0</text></g><g class="ytick"><text text-anchor="end" x="79" y="4.199999999999999" style="font-family: 'Open Sans', verdana, arial, sans-serif; font-size: 12px; fill: rgb(42, 63, 95); fill-opacity: 1; white-space: pre; opacity: 1;" transform="translate(0,189.86)">50</text></g><g class="ytick"><text text-anchor="end" x="79" y="4.199999999999999" style="font-family: 'Open Sans', verdana, arial, sans-serif; font-size: 12px; fill: rgb(42, 63, 95); fill-opacity: 1; white-space: pre; opacity: 1;" transform="translate(0,108.75)">100</text></g></g><g class="overaxes-above"/></g></g><g class="polarlayer"/><g class="smithlayer"/><g class="ternarylayer"/><g class="geolayer"/><g class="funnelarealayer"/><g class="pielayer"/><g class="iciclelayer"/><g class="treemaplayer"/><g class="sunburstlayer"/><g class="glimages"/><defs id="topdefs-798999"><g class="clips"/><clipPath id="legend798999"><rect width="167" height="67" x="0" y="0"/></clipPath></defs><g class="layer-above"><g class="imagelayer"/><g class="shapelayer"/></g><g class="infolayer"><g class="legend" pointer-events="all" transform="translate(520.64,100)"><rect class="bg" shape-rendering="crispEdges" width="167" height="67" x="0" y="0" style="stroke: rgb(68, 68, 68); stroke-opacity: 1; fill: rgb(255, 255, 255); fill-opacity: 1; stroke-width: 0px;"/><g class="scrollbox" transform="" clip-path="url(#legend798999)"><g class="groups"><g class="traces" transform="translate(0,14.5)" style="opacity: 1;"><text class="legendtext" text-anchor="start" x="40" y="4.680000000000001" style="font-family: 'Open Sans', verdana, arial, sans-serif; font-size: 12px; fill: rgb(42, 63, 95); fill-opacity: 1; white-space: pre;">BESS</text><g class="layers" style="opacity: 0.5;"><g class="legendfill"/><g class="legendlines"><path class="js-line" d="M5,0h30" style="fill: none; stroke: rgb(0, 191, 255); stroke-opacity: 1; stroke-width: 2px;"/></g><g class="legendsymbols"><g class="legendpoints"/></g></g><rect class="legendtoggle" x="0" y="-9.5" width="161.890625" height="19" style="fill: rgb(0, 0, 0); fill-opacity: 0;"/></g><g class="traces" transform="translate(0,33.5)" style="opacity: 1;"><text class="legendtext" text-anchor="start" x="40" y="4.680000000000001" style="font-family: 'Open Sans', verdana, arial, sans-serif; font-size: 12px; fill: rgb(42, 63, 95); fill-opacity: 1; white-space: pre;">Solar</text><g class="layers" style="opacity: 0.5;"><g class="legendfill"/><g class="legendlines"><path class="js-line" d="M5,0h30" style="fill: none; stroke: rgb(255, 0, 0); stroke-opacity: 1; stroke-width: 2px;"/></g><g class="legendsymbols"><g class="legendpoints"/></g></g><rect class="legendtoggle" x="0" y="-9.5" width="161.890625" height="19" style="fill: rgb(0, 0, 0); fill-opacity: 0;"/></g><g class="traces" transform="translate(0,52.5)" style="opacity: 1;"><text class="legendtext" text-anchor="start" x="40" y="4.680000000000001" style="font-family: 'Open Sans', verdana, arial, sans-serif; font-size: 12px; fill: rgb(42, 63, 95); fill-opacity: 1; white-space: pre;">Grid Meter (Net Load)</text><g class="layers" style="opacity: 0.5;"><g class="legendfill"/><g class="legendlines"><path class="js-line" d="M5,0h30" style="fill: none; stroke: rgb(0, 128, 0); stroke-opacity: 1; stroke-width: 2px;"/></g><g class="legendsymbols"><g class="legendpoints"/></g></g><rect class="legendtoggle" x="0" y="-9.5" width="161.890625" height="19" style="fill: rgb(0, 0, 0); fill-opacity: 0;"/></g></g></g><rect class="scrollbar" rx="20" ry="3" width="0" height="0" x="0" y="0" style="fill: rgb(128, 139, 164); fill-opacity: 1;"/></g><g class="g-gtitle"><text class="gtitle" x="296" y="50" text-anchor="middle" dy="0em" style="font-family: 'Open Sans', verdana, arial, sans-serif; font-size: 17px; fill: rgb(42, 63, 95); opacity: 1; font-weight: normal; white-space: pre;"><tspan class="line" dy="0em" x="296" y="50">Scenario 6</tspan><tspan class="line" dy="1.3em" x="296" y="50">Microgrid Output</tspan><tspan class="line" dy="2.6em" x="296" y="50">From: June 01, 2022 to June 30, 2022</tspan></text></g><g class="g-xtitle"><text class="xtitle" x="296" y="477.409375" text-anchor="middle" style="font-family: 'Open Sans', verdana, arial, sans-serif; font-size: 14px; fill: rgb(42, 63, 95); opacity: 1; font-weight: normal; white-space: pre;">Time</text></g><g class="g-ytitle"><text class="ytitle" transform="rotate(-90,33.60625,260)" x="33.60625" y="260" text-anchor="middle" style="font-family: 'Open Sans', verdana, arial, sans-serif; font-size: 14px; fill: rgb(42, 63, 95); opacity: 1; font-weight: normal; white-space: pre;">Demand (kW)</text></g></g></svg>