<svg class="main-svg" xmlns="http://www.w3.org/2000/svg" xmlns:xlink="http://www.w3.org/1999/xlink" width="700" height="500" style="" viewBox="0 0 700 500"><rect x="0" y="0" width="700" height="500" style="fill: rgb(255, 255, 255); fill-opacity: 1;"/><defs id="defs-f849b6"><g class="clips"><clipPath id="clipf849b6xyplot" class="plotclip"><rect width="432" height="320"/></clipPath><clipPath class="axesclip" id="clipf849b6x"><rect x="80" y="0" width="432" height="500"/></clipPath><clipPath class="axesclip" id="clipf849b6y"><rect x="0" y="100" width="700" height="320"/></clipPath><clipPath class="axesclip" id="clipf849b6xy"><rect x="80" y="100" width="432" height="320"/></clipPath></g><g class="gradients"/><g class="patterns"/></defs><g class="bglayer"/><g class="layer-below"><g class="imagelayer"/><g class="shapelayer"/></g><g class="cartesianlayer"><g class="subplot xy"><g class="layer-subplot"><g class="shapelayer"/><g class="imagelayer"/></g><g class="gridlayer"><g class="x"><path class="xgrid crisp" transform="translate(137.62,0)" d="M0,100v320" style="stroke: rgb(255, 255, 255); stroke-opacity: 1; stroke-width: 1px;"/><path class="xgrid crisp" transform="translate(238.46,0)" d="M0,100v320" style="stroke: rgb(255, 255, 255); stroke-opacity: 1; stroke-width: 1px;"/><path class="xgrid crisp" transform="translate(339.29,0)" d="M0,100v320" style="stroke: rgb(255, 255, 255); stroke-opacity: 1; stroke-width: 1px;"/><path class="xgrid crisp" transform="translate(440.13,0)" d="M0,100v320" style="stroke: rgb(255, 255, 255); stroke-opacity: 1; stroke-width: 1px;"/></g><g class="y"><path class="ygrid crisp" transform="translate(0,384.49)" d="M80,0h432" style="stroke: rgb(255, 255, 255); stroke-opacity: 1; stroke-width: 1px;"/><path class="ygrid crisp" transform="translate(0,315.83000000000004)" d="M80,0h432" style="stroke: rgb(255, 255, 255); stroke-opacity: 1; stroke-width: 1px;"/><path class="ygrid crisp" transform="translate(0,178.51999999999998)" d="M80,0h432" style="stroke: rgb(255, 255, 255); stroke-opacity: 1; stroke-width: 1px;"/><path class="ygrid crisp" transform="translate(0,109.86)" d="M80,0h432" style="stroke: rgb(255, 255, 255); stroke-opacity: 1; stroke-width: 1px;"/></g></g><g class="zerolinelayer"><path class="yzl zl crisp" transform="translate(0,247.18)" d="M80,0h432" style="stroke: rgb(255, 255, 255); stroke-opacity: 1; stroke-width: 2px;"/></g><path class="xlines-below"/><path class="ylines-below"/><g class="overlines-below"/><g class="xaxislayer-below"/><g class="yaxislayer-below"/><g class="overaxes-below"/><g class="plot" transform="translate(80,100)" clip-path="url(#clipf849b6xyplot)"><g class="scatterlayer mlayer"><g class="trace scatter trace2cab14" style="stroke-miterlimit: 2; opacity: 0.5;"><g class="fills"/><g class="errorbars"/><g class="lines"><path class="js-line" d="M0,147.18L432,147.18" style="vector-effect: non-scaling-stroke; fill: none; stroke: rgb(0, 191, 255); stroke-opacity: 1; stroke-width: 2px; opacity: 1;"/></g><g class="points"/><g class="text"/></g><g class="trace scatter trace4d0e44" style="stroke-miterlimit: 2; opacity: 0.5;"><g class="fills"/><g class="errorbars"/><g class="lines"><path class="js-line" d="M0,147.33L3.3,147.13L3.45,146.43L4.2,122.92L4.35,112.77L6,16.01L6.45,16.15L6.6,16.17L9.45,16.71L9.6,18.39L10.65,80.43L10.8,90.6L12.3,147.34L12.45,147.34L17.71,147.12L17.86,146.05L18.76,112.94L18.91,103.3L20.56,16.17L20.86,17.32L21.01,20.97L21.16,27.37L21.31,16.19L21.61,16.25L21.76,16.3L23.86,16.54L24.01,17.8L26.56,147.34L26.71,147.34L32.26,146.97L32.41,145.81L33.76,119.56L33.91,107.22L34.81,26.17L34.96,38.58L35.11,35.04L35.86,16.11L36.01,16.51L36.16,18.59L36.31,17.02L36.46,17.04L36.61,21.86L36.76,21.57L36.91,18.23L37.06,20.71L37.51,16.3L37.66,16.32L38.26,16.42L38.41,17.85L40.06,120.8L40.21,137.87L41.26,147.34L41.41,147.33L46.97,146.92L47.12,145.73L48.02,130.24L48.17,116.54L49.37,47.94L49.52,29.81L49.67,27.16L49.82,32.8L49.97,16.56L50.72,16.11L50.87,16.12L52.67,16.8L52.82,20.24L54.62,129.97L54.77,138.12L55.37,147.35L55.67,147.34L55.82,147.33L61.22,147.03L61.37,146.34L63.32,112.21L63.47,97.63L64.52,16.08L64.67,16.09L67.07,16.47L67.22,19L68.87,121.75L69.02,130.83L70.07,147.35L70.22,147.34L75.33,147.14L75.48,146.48L76.38,114.53L76.53,104.96L78.18,16.24L78.48,16.32L78.63,16.34L80.28,16.6L80.43,20.36L81.48,147.18L81.63,147.18L91.53,147.18L91.68,144.26L92.73,16.35L92.88,16.36L94.08,16.55L94.23,24.24L95.28,147.18L95.43,147.18L138.8,147.18L138.95,138.57L139.85,53.75L140,62.33L141.8,147.34L141.95,147.34L147.35,147.16L147.5,146.48L148.25,125.18L148.4,116.51L150.5,16.23L150.65,16.24L150.8,16.29L153.5,17.12L153.65,21.38L156.5,147.34L156.65,147.34L161.76,147.16L161.91,146.53L162.66,125.09L162.81,115.92L164.76,16.14L165.06,16.18L165.21,16.21L167.91,16.46L168.06,18.28L169.56,108.06L169.71,118.24L170.91,147.34L171.06,147.34L176.31,147.02L176.46,146.21L177.66,119.49L177.81,107.93L179.31,16.2L179.76,16.26L179.91,16.37L182.01,16.41L182.16,30.08L183.06,147.18L183.21,147.18L294.25,147.18L294.4,138.72L295.15,16.05L295.3,16.08L295.45,16.14L297.55,16.84L297.7,20.59L298.75,87.31L298.9,115.26L299.95,146.61L300.1,147.23L301.6,147.34L301.75,147.34L305.96,146.72L306.11,144.32L307.16,119.25L307.31,107.77L307.91,113.38L308.51,18.54L308.66,29.5L308.81,29.74L308.96,20.12L309.26,20.1L309.41,42.65L309.56,26.86L309.71,17.14L310.16,47.57L310.31,78.4L310.61,94.26L311.66,16.31L311.81,20.87L312.26,94.96L312.86,94.93L313.01,98.37L313.16,84.98L313.46,99.57L313.61,115.6L314.96,147.35L315.11,147.35L320.21,147.04L320.36,145.69L321.26,115.09L321.41,105.5L323.06,16.01L323.51,16.11L323.66,16.21L326.36,16.48L326.51,17.31L327.56,72.8L327.71,83.33L329.36,147.35L329.51,147.35L334.62,147.13L334.77,146.5L335.37,133.18L335.52,123.21L337.47,16.14L337.77,16.18L337.92,16.27L340.77,16.42L340.92,16.65L341.37,34.48L341.52,42.86L343.77,147.35L343.92,147.35L349.17,146.65L349.32,144.9L349.92,122.42L350.07,111.26L351.72,16.08L352.02,16.12L352.17,16.25L354.87,16.43L355.02,16.34L355.32,16.44L355.47,18.11L356.97,114.08L357.12,124.12L358.17,147.35L358.32,147.36L363.58,146.7L363.73,144.42L364.33,123.42L364.48,112.81L366.28,16.03L366.58,16.15L366.73,16.16L369.73,16.75L369.88,20.72L372.58,147.36L372.73,147.36L377.83,147.19L377.98,146.5L378.88,116.44L379.03,107.02L380.98,16.25L381.13,16.4L381.28,16.42L382.63,16.55L382.78,16.59L383.53,16.96L383.68,20.64L383.98,17.73L386.98,147.36L387.13,147.35L392.39,146.72L392.54,144.23L393.14,125.5L393.29,115.9L395.24,16.23L395.54,16.34L395.69,16.39L398.39,16.61L398.54,17.98L399.74,84.95L399.89,95.73L401.24,147.35L401.39,147.35L406.79,146.75L406.94,144.53L407.54,125.74L407.69,115.76L409.49,16.13L409.94,16.2L410.09,16.26L411.74,16.38L411.89,16.34L412.94,17.37L413.09,22.36L415.79,147.35L415.94,147.35L421.2,146.82L421.35,145.15L421.95,126.22L422.1,116.32L423.9,16.19L424.35,16.36L424.5,16.41L425.55,17.13L425.7,17.89L426.3,16.39L426.45,16.45L426.6,16.49L427.2,16.53L427.35,17.35L428.55,83.85L428.7,94.4L430.2,147.35L430.35,147.35L432,147.34" style="vector-effect: non-scaling-stroke; fill: none; stroke: rgb(255, 0, 0); stroke-opacity: 1; stroke-width: 2px; opacity: 1;"/></g><g class="points"/><g class="text"/></g><g class="trace scatter trace4d0fe9" style="stroke-miterlimit: 2; opacity: 0.5;"><g class="fills"/><g class="errorbars"/><g class="lines"><path class="js-line" d="M0,172.34L0.45,243L0.75,172.45L0.9,170.82L1.05,171.53L1.2,170.01L1.35,166.67L1.5,168.26L1.95,167.15L2.1,166.59L2.25,167.69L2.4,166.34L2.7,166.35L2.85,221.72L3.45,165.83L3.75,174.97L3.9,157.4L4.95,114.25L5.1,103.24L5.25,89.59L5.4,139.25L5.55,147.11L6,61.33L6.3,124.1L6.45,129.45L6.75,64.61L7.35,77.18L7.5,73.27L8.1,82.2L8.4,81.11L8.55,83.03L8.7,77.76L9.15,86.87L9.3,83.99L9.6,73.6L9.9,85.62L10.05,94.79L12,184.63L12.3,184.31L12.45,178.66L13.35,171.64L13.95,171.84L14.1,173.05L14.86,167.46L15.01,170L15.16,172.21L15.61,167.27L16.06,169.24L16.21,169.72L16.96,167.14L17.11,167.88L17.41,167.03L17.56,168.45L17.86,167.75L18.01,164.3L19.51,103.19L19.66,92.49L19.81,93.6L19.96,83.17L20.11,129.35L20.41,65.45L20.71,125.04L20.86,86.31L21.31,69.58L21.46,129.57L21.61,133.61L21.76,89.64L21.91,74.18L22.51,78.75L22.66,79.02L22.81,83.28L23.11,81.87L23.26,134.65L23.41,144.15L23.56,96.49L23.71,79.75L23.86,135.09L24.01,140L24.31,92.42L24.76,111.87L24.91,123.37L26.26,187.02L26.41,177.52L26.56,179.59L26.86,176.95L27.01,174.4L27.16,177.87L27.61,172.29L27.76,171.04L27.91,172.51L28.06,169.26L28.36,169.79L28.51,168.37L28.81,170.75L29.11,169.32L29.26,168.32L29.56,169.33L29.71,168.66L29.86,167.7L30.16,167.34L30.31,169.06L30.46,168.52L30.61,166.89L30.91,166.67L31.51,168.93L31.66,167.14L31.96,166.88L32.26,169.14L32.41,165.62L32.56,166.04L32.71,159.86L32.86,160.1L33.01,163.93L33.31,167.79L33.46,163.96L33.61,161.36L34.81,78.11L34.96,92.69L35.26,61.28L35.41,128L35.71,147.95L35.86,78.94L36.01,68.64L36.16,117.19L36.31,131.9L36.46,78.72L36.61,76.58L36.76,72.9L36.91,126.95L37.06,145.53L37.21,141.69L37.36,83.8L37.96,66.41L38.26,67.3L38.41,63.64L38.71,73.07L38.86,89.36L39.91,221.71L40.06,171.15L40.21,179.69L40.36,177.27L40.51,180.26L40.96,178.55L41.11,177.76L42.31,168.7L42.46,168.89L42.61,170.3L42.76,170.21L42.91,167.26L43.06,167.11L43.22,168.56L43.52,169.44L43.67,167.16L43.82,166.65L43.97,168.32L44.12,167.57L44.27,169.33L44.87,166.44L45.02,168.26L45.17,168.72L45.62,166.29L45.77,222.97L45.92,235.09L46.07,182.08L46.37,166.46L46.52,221.7L46.67,234.77L46.82,181.35L47.72,159.11L47.87,159.65L48.02,154.39L48.17,193.1L48.32,202.41L48.47,137.63L49.52,61.34L49.82,66.93L49.97,105.25L50.12,122.58L50.27,120.25L50.42,68.73L50.87,125.08L51.02,68.39L51.17,57.38L51.32,57.61L51.47,56.48L51.62,61.39L52.07,63.22L52.22,57.64L52.37,64.71L52.52,60.09L52.67,66.3L52.82,61.51L52.97,70.35L54.77,172.82L54.92,178.18L55.07,178.3L55.22,176.61L55.37,177.75L55.52,175.95L55.67,177.04L55.82,172.03L55.97,174.33L56.27,168.68L56.57,173.36L56.72,169.85L57.17,170.98L57.62,166.16L57.77,167.57L58.37,169.41L58.52,168L58.67,167.53L58.82,169.06L59.12,166.41L59.27,167.96L59.42,166.56L59.72,169.36L59.87,166.31L60.02,167.96L60.17,166.3L60.77,169.81L60.92,166.62L61.07,167.31L62.12,160.42L62.27,161.69L62.42,214.45L62.57,226.36L62.72,166.79L63.02,220.63L63.32,138.07L63.47,121.57L64.52,53.07L64.67,51.09L64.97,54.31L65.12,107.98L65.27,124.31L65.42,67.17L65.57,59L65.72,53.78L65.87,60.96L66.17,60.37L66.32,61.22L66.92,67.76L67.07,63.14L67.22,62.14L67.37,66.41L67.82,154.08L67.97,172.03L68.27,125.76L68.72,150.45L68.87,162.25L69.47,183.4L69.92,179.61L70.07,177.25L70.97,169.61L71.12,172.3L71.27,171.65L72.18,166.56L72.33,169.24L72.48,173L73.38,166.31L73.53,167.72L73.68,167.73L73.83,168.74L73.98,169.35L74.13,167.01L74.28,167.67L74.43,166.38L74.88,166.06L75.03,168.14L75.33,167.22L75.48,220.63L76.08,153.26L76.38,158.52L76.53,140.33L78.33,52.51L78.63,53.15L78.78,60.48L78.93,63.9L79.08,111.43L79.23,131.97L79.38,75.76L79.53,60.49L80.58,110.91L80.73,256.35L80.88,275.52L81.03,225.45L81.18,214.94L81.63,204.72L82.08,205.37L82.23,202.85L82.38,203.5L82.53,194.04L82.68,195.08L82.83,193.29L82.98,191.85L83.13,192.58L83.28,188.27L83.43,191.67L83.58,185.63L83.73,190.59L83.88,182.64L84.03,186.85L84.48,179.5L84.63,180.78L85.23,173.25L85.53,174.4L85.68,172.24L86.13,173.99L86.28,170.06L86.43,172.81L86.58,172.99L86.73,169.45L86.88,168.6L87.03,171.97L87.18,172.18L88.08,166.61L88.23,172.12L88.38,167.1L88.53,223.6L88.68,235.44L88.83,179.85L89.58,166.46L89.73,166.48L89.88,166.36L90.03,170.37L90.18,165.57L90.48,166.97L90.63,228.35L90.78,248.57L90.93,193.01L91.08,184.81L91.38,260.33L91.68,192.88L91.83,169.5L92.43,69.05L92.58,125.36L92.73,148.13L93.33,67.47L93.63,69.29L93.78,71.08L94.08,73.4L94.23,89.31L95.28,290.56L95.43,286.05L95.58,222.99L96.33,196.82L96.48,198.33L96.63,203.42L96.78,203.6L96.93,202.44L97.53,187.93L97.98,188.12L98.13,189.95L98.58,190.57L99.48,173.39L99.63,178.18L99.78,171.06L100.38,174.9L100.53,173.33L100.68,170.94L100.84,226.72L100.99,239.17L101.14,185.88L101.59,168.35L101.89,169.82L102.04,170.91L102.79,167.15L103.09,167.71L103.24,170.75L103.39,166.34L103.84,166.99L103.99,223.38L104.44,167.21L104.74,167.45L104.89,223.82L105.04,244.68L105.19,183.39L105.34,174.21L106.54,200.9L106.69,258.18L107.59,191.06L107.74,198.23L107.89,251.12L108.34,197.63L108.49,212.99L108.64,195.46L109.39,222.04L109.69,221.34L109.84,220.56L110.14,218.91L110.29,213.1L111.19,198.92L111.34,202.33L111.94,193.33L112.24,193.98L112.39,246.87L112.69,264.46L112.84,199.19L113.74,177.55L113.89,177.49L114.19,174.31L114.49,175.32L114.64,171.03L114.94,174.82L115.09,170.56L115.39,172.55L115.54,170.18L115.69,171.32L115.99,169.01L116.14,169.84L116.29,168.51L116.44,171.9L116.89,170.75L117.04,166.99L117.64,169.92L117.79,167.46L117.94,168.04L118.24,168.43L118.39,167.05L118.54,169.21L118.84,166.24L119.29,169.18L119.44,175.3L119.74,172.02L119.89,174.19L120.04,234.42L120.49,186L120.79,195.04L120.94,246.62L121.09,261.24L121.24,207.57L121.39,199.88L122.29,217.14L122.44,273.51L122.59,293.23L122.74,234.57L122.89,225.77L123.04,213.67L123.34,214.08L123.49,280.49L123.64,291.96L123.79,291.11L123.94,239.13L124.84,209.06L124.99,264.04L125.29,278.79L125.44,269.93L125.59,218.49L126.49,196.38L126.64,195.9L127.54,186.85L127.69,187.81L128.44,176.24L128.59,176.47L128.74,179.55L129.34,172.15L129.49,172.57L129.65,175.74L130.7,168.82L130.85,169.66L131.15,173.1L131.3,168.7L131.6,171.05L131.75,168.66L132.05,167.36L132.2,169.34L132.35,170.12L132.5,167.44L132.65,167.82L132.8,166.9L133.1,237.63L133.55,170.52L133.7,172.56L134.9,201.47L135.05,200.57L135.5,199.98L135.65,217.36L135.8,209.33L135.95,200.88L136.7,214.56L137,213.72L137.15,208.48L137.6,228.98L138.05,228.13L138.2,219.49L138.65,298.78L138.8,233.87L138.95,222.79L139.85,115.07L140,132.26L140.15,133.02L140.3,146.49L140.75,239.43L141.05,179.82L141.2,187.2L141.5,196.21L141.95,191.46L142.1,188.38L143,174.73L143.15,178.74L144.05,170.66L144.2,175.55L144.5,169.06L144.65,175.3L144.95,170.53L145.1,170.98L145.25,175.27L145.4,168.1L145.55,223.72L145.7,240.33L145.85,186.25L146,170.88L146.15,171.55L146.3,168.18L146.45,172.81L146.9,168.34L147.05,167.81L147.35,170.09L147.5,168.48L147.65,164.62L147.8,163.71L147.95,166.09L148.1,156.75L148.25,156L148.4,147.29L148.55,146.21L148.7,133.33L149.15,104.77L149.3,154.71L149.45,163.44L149.6,100.12L150.5,65.99L150.65,73.56L150.95,70.78L151.1,76.48L151.25,76.11L151.4,73.52L152.15,87.69L152.45,86.38L152.6,134.98L152.75,148.33L152.9,95.99L153.05,80.65L153.2,81.28L153.5,80.27L153.65,79.38L155.15,160.51L155.3,171.99L155.9,196.88L156.2,187.71L156.35,185.3L156.5,185.79L156.65,181.31L157.25,174.63L157.55,175.51L157.7,176.93L158.61,171.8L158.76,172.72L158.91,176.27L159.51,169.62L159.66,172.1L159.81,170.97L160.11,168.95L160.56,171.83L160.71,170.3L161.16,170.83L161.61,167.33L161.76,168.63L162.36,159.47L162.51,214.83L163.56,104.98L163.71,97.26L164.01,80.02L164.16,130.61L164.46,61.03L164.76,135.33L164.91,138.19L165.66,66.76L165.81,71.97L165.96,69.81L166.41,68.48L166.86,80.67L167.01,74.59L167.31,79.66L167.46,71.17L167.61,74.58L167.91,71.31L168.06,65.13L170.01,179.66L170.16,180.7L170.31,188.85L170.46,184.53L170.61,246.08L170.91,251.26L171.06,193.25L171.81,173.86L171.96,175.44L172.11,173.26L172.41,175.17L173.01,169.88L173.16,173.84L174.06,168.42L174.21,168.93L174.51,169.31L174.66,168.09L174.81,167.7L174.96,169.45L175.26,168.38L175.41,171.35L175.56,167.41L176.01,168.83L176.16,224.77L176.31,236.77L176.46,181.68L176.91,158.14L177.36,158.33L177.51,159.97L177.96,136.36L178.11,128.18L179.31,67.59L179.46,119.06L179.61,137.41L179.76,77.19L179.91,65.3L180.51,139.08L180.81,134.76L180.96,87.92L181.11,72.37L181.26,82.83L181.41,126.23L181.56,148.42L181.86,91.69L182.01,78.31L182.16,92.04L182.31,177.29L182.76,207.08L183.06,202.79L183.21,196.99L183.36,196.39L183.51,190.87L183.66,193.27L183.96,190.05L184.11,188.3L185.46,175.51L185.61,172.12L185.76,177.95L186.36,174.73L186.51,171.02L186.66,173.2L187.11,172.8L187.27,169.75L187.42,172.36L187.87,170.21L188.02,169.34L188.17,172.18L188.32,168.47L188.77,170.04L188.92,169.51L189.07,166.88L189.37,167.66L189.52,225.56L189.82,167.4L190.42,168.05L190.57,167.14L191.02,170.71L191.32,169.32L191.47,178.87L192.82,201.31L192.97,195.72L193.12,199.09L193.27,256.29L193.42,272.02L193.57,217.16L193.72,207.99L194.17,197.71L194.47,207.19L194.62,207.74L194.77,203.79L195.07,209.27L195.22,207.77L195.37,213.26L195.67,220.28L195.82,209.8L195.97,217.41L196.27,283.3L196.57,214.2L196.72,209.72L196.87,206.14L197.02,262.23L197.17,276.43L197.32,221.69L197.47,205.71L198.22,185.42L198.82,187.23L198.97,190.06L199.87,180L200.02,177.36L200.17,175.9L200.32,184.67L201.67,170.21L201.82,170.78L201.97,172.57L202.12,172.54L202.27,169.17L202.42,168.48L202.57,173.16L203.47,167.45L203.62,168.08L203.92,166.34L204.22,168.44L204.37,168.52L204.97,166.06L205.12,168.54L205.27,169.15L205.42,166.78L205.57,167.83L205.72,225.32L206.02,172.02L206.62,186.59L206.77,175.98L207.22,192.89L207.37,248.2L207.82,193.24L208.27,198.54L208.42,206.09L208.57,199.98L208.72,209.05L209.17,201.37L209.32,204.94L209.62,199.58L210.37,216.64L210.52,214.22L210.82,291.37L211.12,221.45L211.27,210.83L211.42,215.61L211.87,213.2L212.02,208.71L213.22,186.96L213.37,188.73L213.52,188.87L213.67,184.63L214.42,176.49L214.72,177.37L214.87,175.62L216.08,171.07L216.23,172.73L216.53,168.45L216.83,168.97L216.98,172.64L217.88,166.9L218.03,167.84L218.18,167.58L218.33,169.06L218.63,165.87L218.93,166.08L219.08,167.34L219.23,170.38L219.38,166.09L219.53,166.97L219.68,222.43L219.98,169.03L220.43,176.75L220.58,187.94L220.73,191.52L220.88,244.18L221.18,268.28L221.33,218.67L221.48,205.94L221.93,196.68L222.08,201.76L222.23,207.15L222.98,199.7L223.28,200.81L223.43,260.66L223.58,273.57L223.73,223.89L223.88,210.58L224.33,279.32L224.48,304L224.78,240.87L224.93,283.14L225.08,297.95L225.23,293.8L225.38,233.8L226.13,208.97L226.28,209.8L226.43,209.07L227.48,191.56L227.63,192.14L227.93,194.31L228.83,172.14L228.98,173.73L229.43,170.31L229.58,172.68L229.73,173.15L230.33,175.7L230.48,167.55L230.63,170.52L231.08,172.19L231.23,166.33L231.38,170.7L231.53,168.55L231.68,170.72L231.83,225.27L232.73,166.6L232.88,168.17L233.18,169.91L233.33,168.32L233.48,167.48L233.63,165.57L233.78,167.54L233.93,171.9L234.23,167.15L234.53,167.23L234.68,177.17L234.83,172.87L234.98,233.55L235.13,264.89L235.43,194.84L235.58,198.53L235.88,272.84L236.33,207.15L236.48,208.09L236.63,212.05L236.93,206.81L237.08,202.72L237.23,206.06L237.38,198.64L237.53,195.76L237.83,186.88L238.13,191.1L238.28,194.08L238.73,200.75L238.88,248.98L239.03,273.23L239.33,204.26L239.63,265.63L239.78,219.91L240.08,192.95L240.23,242.77L240.38,263.28L240.53,261.62L240.68,208.93L241.43,192.99L241.58,194.18L241.73,191.73L242.63,177.52L242.78,182.28L243.98,168.28L244.13,169.99L244.28,170.24L244.43,168.07L244.58,165.48L244.89,169.16L245.19,166.54L245.34,167.9L245.64,165.53L245.94,169.19L246.24,165.68L246.39,166.29L246.54,168.65L246.69,165.65L247.14,166.3L247.29,168.06L247.74,164.85L248.19,164.97L248.34,166.77L248.49,164.94L248.94,165.91L249.09,169.92L249.54,169.15L250.14,177.34L250.29,183.49L250.44,176.76L250.89,185.41L251.04,193.26L251.34,204.4L251.64,200.35L251.79,189.19L252.09,183.89L252.69,194.09L252.84,244.83L252.99,262.8L253.14,208.81L253.29,192.13L253.74,202.64L253.89,190.88L254.04,194.47L254.19,197.28L254.34,198.31L254.49,189.48L254.64,189.61L254.79,188.82L254.94,187.39L255.09,192.35L255.69,189.16L255.84,189.22L256.14,251.76L256.44,183.54L256.59,177.6L256.89,182.87L257.34,177.67L257.49,230.88L257.79,243.58L257.94,187.71L258.09,170.7L258.24,228.01L258.39,239.33L259.14,169.17L259.29,171.18L259.44,169.55L259.59,172.1L259.89,169.19L260.04,170.19L260.19,169.51L260.34,169.32L260.49,170.17L260.64,167.02L260.94,165.19L261.39,165.63L261.54,167.38L261.69,165.19L261.84,165.28L261.99,221.44L262.89,164.78L263.04,164.86L263.19,164.94L263.34,166.27L264.24,173.93L264.39,235.99L264.54,253.79L264.69,189.05L264.84,175.97L264.99,179.95L265.14,176.43L265.29,235.66L265.74,178.77L266.19,183.87L266.34,185.31L267.24,194.51L267.39,193.71L267.54,190.5L267.84,197.9L267.99,195.65L268.14,200.71L268.59,204.1L269.04,188.51L269.19,199.25L269.94,189.85L270.09,194.02L270.24,192.32L270.39,191.55L270.54,186.25L270.84,255.87L271.14,185.97L271.29,182.3L271.44,183.28L271.59,181.76L271.74,179.66L272.04,174.36L272.19,178.63L272.79,172.66L272.94,173.4L273.09,174.16L273.54,169.78L273.7,174.39L273.85,170.27L274,170.98L274.15,169.73L274.45,173.34L274.6,172.52L275.5,165.03L275.65,166.45L275.8,164.81L276.4,166.16L276.55,164.89L277.15,166.39L277.3,164.9L277.45,165.48L278.05,169.6L278.2,176.44L278.65,187.6L278.8,249.99L279.1,194.59L279.7,198.59L279.85,202.61L280.15,276.21L280.6,208.29L280.75,209.81L280.9,205.44L281.35,208.96L281.5,218.03L281.65,213.24L281.95,218.28L282.1,218.15L282.25,222.71L282.55,223.84L283.45,210.12L283.6,262.76L283.75,279.69L283.9,223L284.05,208.87L284.2,207.82L284.35,199.97L284.65,201.5L284.95,193.92L285.25,194.72L285.4,193.38L286.75,176.58L286.9,177.42L287.65,172.6L287.8,173.33L287.95,174.01L288.1,174.14L288.25,173.05L289,166.56L289.15,173.85L289.75,166.06L290.05,168.91L290.2,168.19L290.65,168.93L290.8,166.91L291.1,167.4L291.25,168.6L291.55,165.97L291.85,167.68L292,168.18L292.3,175.18L292.45,180.61L292.9,189.28L293.05,249.29L293.2,266.81L293.35,218.2L293.5,200.51L294.1,215.22L294.25,210.6L294.4,197.7L294.7,79.55L295.15,142.82L295.3,159.54L295.6,86.12L296.2,97.63L296.35,93.45L296.5,97.77L296.65,150.72L296.8,169.35L296.95,160.36L297.1,111.53L297.85,84.34L298,100.38L298.6,135.24L298.75,151.28L299.65,190.24L299.8,185L300.1,188.64L300.55,186.03L300.7,177.4L300.85,180.97L301.3,175.96L301.45,175.63L301.6,177.06L301.9,174.87L302.05,173.79L302.35,175.48L302.96,170.86L303.11,176.62L303.86,168.08L304.01,174.54L304.16,168.1L304.76,170.02L304.91,172.06L305.81,167.79L305.96,171.6L306.11,163.31L306.26,221.57L307.01,158.29L307.16,158.91L307.31,151.13L307.76,143.84L307.91,216L308.06,195.88L308.21,150.45L308.81,152.34L309.11,93.14L309.26,95.01L309.41,120.07L309.71,83.46L310.01,85.32L310.16,174.35L310.31,217.3L310.76,150.58L310.91,144.71L311.21,83.51L311.81,89.1L311.96,125.78L312.86,158L313.01,157.23L313.46,219.47L313.76,168.21L313.91,177.9L314.36,192.99L314.81,184.79L314.96,187.67L315.71,176.4L315.86,184.03L316.61,173.61L316.76,176.05L316.91,172.88L317.51,173.09L317.66,173.22L318.41,169.15L318.71,170.79L318.86,174.05L319.76,166.72L319.91,170.51L320.51,163.22L320.66,164.12L320.81,213.63L321.86,126.81L322.01,112.43L322.16,117.35L322.46,108.09L322.61,98.91L323.21,79.05L323.81,80.69L323.96,81.89L324.11,86.58L324.26,134.51L324.41,157.95L324.71,93.75L324.86,84.31L325.61,159.94L325.76,96.9L325.91,84.24L326.06,147.37L326.21,152.13L326.36,103.74L326.51,75.59L326.96,101.13L327.11,112.32L327.56,208.35L327.86,153.52L328.01,161.74L328.16,159.98L328.31,179.01L328.46,178.37L328.61,185.03L328.76,191.17L329.21,188.04L329.36,182.34L330.41,173.79L330.56,174L330.86,175.57L331.01,172.57L331.16,174.25L331.32,171.91L331.62,172.3L331.77,172.83L332.67,166.12L332.82,167.74L332.97,168.56L333.27,165.25L333.42,167.99L334.17,165.37L334.47,166.03L334.62,168.75L335.37,154.79L335.52,202.69L336.57,99.86L336.72,97.58L337.62,73.42L337.77,127.88L338.22,146.66L338.37,89.8L338.52,71.81L339.12,82.84L339.27,80.66L340.32,95.57L340.62,94.14L340.77,94.67L340.92,86.54L341.22,92.37L341.37,105.25L341.97,126.64L342.12,142.09L343.32,194.4L343.62,189.13L343.77,184.44L344.22,177.3L344.67,178.14L344.82,185.17L346.17,171.22L346.32,172.1L346.62,172.26L347.37,166.21L347.52,167.99L348.12,165L348.27,167.05L348.42,168.69L348.87,165.36L349.02,165.87L349.17,220.18L350.22,126.66L350.37,116.55L350.97,86.85L351.12,134.64L351.57,54.75L352.02,62.48L352.17,65.53L352.32,67.08L352.47,121.26L352.62,136.59L352.77,85.27L352.92,69.61L353.22,82.5L353.67,77.66L353.82,77.73L353.97,75.47L354.12,81.14L354.42,79.33L354.57,88.08L354.72,89.76L354.87,145.72L355.02,157.79L355.17,104.03L355.47,77.53L355.92,100.89L356.07,108.68L356.22,116.63L356.37,184.16L356.52,202.33L356.82,155.79L356.97,164.29L357.57,193.69L358.02,188.58L358.17,189.19L358.92,176.51L359.07,178.03L359.22,177.38L359.82,174.74L359.97,176.61L360.13,170.75L360.73,175.9L360.88,170.94L361.03,171.6L361.18,172.53L361.33,171.36L361.48,169.54L361.63,172.92L361.78,166.32L362.23,170.3L362.38,166.91L362.83,166.37L363.28,170.27L363.43,167.25L364.03,160.63L364.18,211.66L364.33,218.01L364.48,160.3L365.53,81.36L365.68,78.81L365.98,63.21L366.13,116.34L366.43,80.26L366.73,142.27L366.88,76.8L367.03,69.53L367.18,127.25L367.33,144.53L367.48,141.36L367.63,92.19L368.38,76.45L368.53,81.86L368.68,89.04L369.28,87.27L369.43,88.67L369.73,79.96L369.88,132.78L370.33,173.01L370.48,129.1L370.63,118.66L372.13,195.85L372.28,191.53L373.63,176.83L373.78,178.09L374.08,179.27L374.38,172.95L374.68,174.87L374.83,174.8L374.98,175.88L375.13,173.4L375.28,174.77L375.43,171.08L375.58,176.47L375.73,170.88L376.18,171.77L376.33,170.24L376.48,174.26L377.08,171.82L377.23,167.72L377.53,165.77L377.68,171.96L377.98,168.28L378.13,165.77L378.58,157.78L378.73,161.82L378.88,204.7L379.93,104.89L380.08,100.83L380.38,161.05L380.68,94.26L380.83,87.94L381.13,96.9L381.73,95.84L381.88,98.97L382.03,92.13L382.18,109.55L382.33,158.79L382.78,176.38L382.93,127.13L383.23,180.26L383.53,103.19L383.68,109.66L383.83,108.68L383.98,155.99L384.28,170L384.43,112.24L384.58,109.31L384.73,114.53L384.88,120.13L386.38,204.29L386.68,193.3L386.83,196.75L387.73,179.24L387.88,181.78L388.33,182.17L388.48,174.56L388.78,177.59L388.94,178.17L389.09,179.05L389.24,175.25L389.39,177.55L389.69,173.5L389.84,175.54L389.99,173.22L390.44,172.19L390.59,175.15L390.74,172.33L391.19,170.75L391.34,175.68L391.49,171.51L391.94,170.91L392.09,221.86L392.99,160.26L393.14,162.42L393.29,164.1L393.44,149.35L393.59,147.12L393.74,133.2L393.89,187.02L394.34,181.86L394.49,106.65L394.94,82.95L395.54,86.08L395.69,86.34L395.84,85.37L395.99,76.7L396.89,98.17L397.04,88.51L397.64,107.81L397.94,101.85L398.09,100.36L398.54,91.44L398.99,110.37L399.14,108.16L400.79,194.83L400.94,190.81L401.09,194.3L401.39,187.73L401.54,182.74L402.74,176.39L402.89,177.1L403.49,178.07L403.64,173.47L403.79,176.53L404.69,170.41L404.84,172.89L405.14,174.02L405.29,168.98L405.44,175.45L406.04,169.88L406.19,169.2L406.64,171.01L406.79,164.83L406.94,221.52L407.24,161.92L407.39,163.21L407.54,157.56L407.99,141.32L408.14,188.87L408.29,193.74L408.44,126.2L409.19,86.44L409.34,132.84L409.49,144.3L409.64,141.62L409.79,76.43L409.94,75.83L410.09,70.2L410.84,78.33L410.99,83.2L411.14,78.79L411.29,89.17L411.44,85.75L411.59,102.08L412.49,90.9L412.64,94.81L413.09,76.44L413.39,93.19L413.54,105.69L415.34,194.95L415.79,192.3L415.94,189.15L416.09,183.11L416.54,190.64L416.69,185.41L416.84,186.75L418.2,170.38L418.35,175.95L419.1,170.64L419.25,173.57L420,168.41L420.15,170.18L420.3,170.92L420.45,167.44L420.9,171.28L421.2,168.21L421.35,165.86L421.5,165.2L421.65,160.71L421.8,157.9L421.95,216.04L423,108.17L423.15,157.72L423.3,163.03L423.45,105.66L424.05,82.59L424.2,129.43L424.35,148.85L424.5,90.52L424.65,83.76L424.8,74.83L424.95,84.7L425.1,129.13L425.4,77.86L425.7,131.54L425.85,147.3L426,151.32L426.15,96.29L426.45,78.88L426.6,150.19L426.75,156.02L427.05,148.46L427.2,151.71L427.35,143.41L427.65,86.05L428.1,105.51L428.25,120.97L428.55,133.14L428.7,146.13L429.6,189.13L430.05,186.72L430.2,184.08L431.1,176.16L431.25,178.38L431.55,176.51L431.7,177.73L431.85,172.46L432,177.85" style="vector-effect: non-scaling-stroke; fill: none; stroke: rgb(0, 128, 0); stroke-opacity: 1; stroke-width: 2px; opacity: 1;"/></g><g class="points"/><g class="text"/></g></g></g><g class="overplot"/><path class="xlines-above crisp" d="M0,0" style="fill: none;"/><path class="ylines-above crisp" d="M0,0" style="fill: none;"/><g class="overlines-above"/><g class="xaxislayer-above"><g class="xtick"><text text-anchor="middle" x="0" y="433" transform="translate(137.62,0)" style="font-family: 'Open Sans', verdana, arial, sans-serif; font-size: 12px; fill: rgb(42, 63, 95); fill-opacity: 1; white-space: pre; opacity: 1;"><tspan class="line" dy="0em" x="0" y="433">Jun 5</tspan><tspan class="line" dy="1.3em" x="0" y="433">2022</tspan></text></g><g class="xtick"><text text-anchor="middle" x="0" y="433" style="font-family: 'Open Sans', verdana, arial, sans-serif; font-size: 12px; fill: rgb(42, 63, 95); fill-opacity: 1; white-space: pre; opacity: 1;" transform="translate(238.46,0)">Jun 12</text></g><g class="xtick"><text text-anchor="middle" x="0" y="433" style="font-family: 'Open Sans', verdana, arial, sans-serif; font-size: 12px; fill: rgb(42, 63, 95); fill-opacity: 1; white-space: pre; opacity: 1;" transform="translate(339.29,0)">Jun 19</text></g><g class="xtick"><text text-anchor="middle" x="0" y="433" style="font-family: 'Open Sans', verdana, arial, sans-serif; font-size: 12px; fill: rgb(42, 63, 95); fill-opacity: 1; white-space: pre; opacity: 1;" transform="translate(440.13,0)">Jun 26</text></g></g><g class="yaxislayer-above"><g class="ytick"><text text-anchor="end" x="79" y="4.199999999999999" transform="translate(0,384.49)" style="font-family: 'Open Sans', verdana, arial, sans-serif; font-size: 12px; fill: rgb(42, 63, 95); fill-opacity: 1; white-space: pre; opacity: 1;">−100</text></g><g class="ytick"><text text-anchor="end" x="79" y="4.199999999999999" style="font-family: 'Open Sans', verdana, arial, sans-serif; font-size: 12px; fill: rgb(42, 63, 95); fill-opacity: 1; white-space: pre; opacity: 1;" transform="translate(0,315.83000000000004)">−50</text></g><g class="ytick"><text text-anchor="end" x="79" y="4.199999999999999" style="font-family: 'Open Sans', verdana, arial, sans-serif; font-size: 12px; fill: rgb(42, 63, 95); fill-opacity: 1; white-space: pre; opacity: 1;" transform="translate(0,247.18)">0</text></g><g class="ytick"><text text-anchor="end" x="79" y="4.199999999999999" style="font-family: 'Open Sans', verdana, arial, sans-serif; font-size: 12px; fill: rgb(42, 63, 95); fill-opacity: 1; white-space: pre; opacity: 1;" transform="translate(0,178.51999999999998)">50</text></g><g class="ytick"><text text-anchor="end" x="79" y="4.199999999999999" style="font-family: 'Open Sans', verdana, arial, sans-serif; font-size: 12px; fill: rgb(42, 63, 95); fill-opacity: 1; white-space: pre; opacity: 1;" transform="translate(0,109.86)">100</text></g></g><g class="overaxes-above"/></g></g><g class="polarlayer"/><g class="smithlayer"/><g class="ternarylayer"/><g class="geolayer"/><g class="funnelarealayer"/><g class="pielayer"/><g class="iciclelayer"/><g class="treemaplayer"/><g class="sunburstlayer"/><g class="glimages"/><defs id="topdefs-f849b6"><g class="clips"/><clipPath id="legendf849b6"><rect width="167" height="67" x="0" y="0"/></clipPath></defs><g class="layer-above"><g class="imagelayer"/><g class="shapelayer"/></g><g class="infolayer"><g class="legend" pointer-events="all" transform="translate(520.64,100)"><rect class="bg" shape-rendering="crispEdges" width="167" height="67" x="0" y="0" style="stroke: rgb(68, 68, 68); stroke-opacity: 1; fill: rgb(255, 255, 255); fill-opacity: 1; stroke-width: 0px;"/><g class="scrollbox" transform="" clip-path="url(#legendf849b6)"><g class="groups"><g class="traces" transform="translate(0,14.5)" style="opacity: 1;"><text class="legendtext" text-anchor="start" x="40" y="4.680000000000001" style="font-family: 'Open Sans', verdana, arial, sans-serif; font-size: 12px; fill: rgb(42, 63, 95); fill-opacity: 1; white-space: pre;">BESS</text><g class="layers" style="opacity: 0.5;"><g class="legendfill"/><g class="legendlines"><path class="js-line" d="M5,0h30" style="fill: none; stroke: rgb(0, 191, 255); stroke-opacity: 1; stroke-width: 2px;"/></g><g class="legendsymbols"><g class="legendpoints"/></g></g><rect class="legendtoggle" x="0" y="-9.5" width="161.890625" height="19" style="fill: rgb(0, 0, 0); fill-opacity: 0;"/></g><g class="traces" transform="translate(0,33.5)" style="opacity: 1;"><text class="legendtext" text-anchor="start" x="40" y="4.680000000000001" style="font-family: 'Open Sans', verdana, arial, sans-serif; font-size: 12px; fill: rgb(42, 63, 95); fill-opacity: 1; white-space: pre;">Solar</text><g class="layers" style="opacity: 0.5;"><g class="legendfill"/><g class="legendlines"><path class="js-line" d="M5,0h30" style="fill: none; stroke: rgb(255, 0, 0); stroke-opacity: 1; stroke-width: 2px;"/></g><g class="legendsymbols"><g class="legendpoints"/></g></g><rect class="legendtoggle" x="0" y="-9.5" width="161.890625" height="19" style="fill: rgb(0, 0, 0); fill-opacity: 0;"/></g><g class="traces" transform="translate(0,52.5)" style="opacity: 1;"><text class="legendtext" text-anchor="start" x="40" y="4.680000000000001" style="font-family: 'Open Sans', verdana, arial, sans-serif; font-size: 12px; fill: rgb(42, 63, 95); fill-opacity: 1; white-space: pre;">Grid Meter (Net Load)</text><g class="layers" style="opacity: 0.5;"><g class="legendfill"/><g class="legendlines"><path class="js-line" d="M5,0h30" style="fill: none; stroke: rgb(0, 128, 0); stroke-opacity: 1; stroke-width: 2px;"/></g><g class="legendsymbols"><g class="legendpoints"/></g></g><rect class="legendtoggle" x="0" y="-9.5" width="161.890625" height="19" style="fill: rgb(0, 0, 0); fill-opacity: 0;"/></g></g></g><rect class="scrollbar" rx="20" ry="3" width="0" height="0" x="0" y="0" style="fill: rgb(128, 139, 164); fill-opacity: 1;"/></g><g class="g-gtitle"><text class="gtitle" x="296" y="50" text-anchor="middle" dy="0em" style="font-family: 'Open Sans', verdana, arial, sans-serif; font-size: 17px; fill: rgb(42, 63, 95); opacity: 1; font-weight: normal; white-space: pre;"><tspan class="line" dy="0em" x="296" y="50">Scenario 3</tspan><tspan class="line" dy="1.3em" x="296" y="50">Microgrid Output</tspan><tspan class="line" dy="2.6em" x="296" y="50">From: June 01, 2022 to June 30, 2022</tspan></text></g><g class="g-xtitle"><text class="xtitle" x="296" y="477.409375" text-anchor="middle" style="font-family: 'Open Sans', verdana, arial, sans-serif; font-size: 14px; fill: rgb(42, 63, 95); opacity: 1; font-weight: normal; white-space: pre;">Time</text></g><g class="g-ytitle"><text class="ytitle" transform="rotate(-90,26.746875000000003,260)" x="26.746875000000003" y="260" text-anchor="middle" style="font-family: 'Open Sans', verdana, arial, sans-serif; font-size: 14px; fill: rgb(42, 63, 95); opacity: 1; font-weight: normal; white-space: pre;">Demand (kW)</text></g></g></svg>