<svg class="main-svg" xmlns="http://www.w3.org/2000/svg" xmlns:xlink="http://www.w3.org/1999/xlink" width="700" height="500" style="" viewBox="0 0 700 500"><rect x="0" y="0" width="700" height="500" style="fill: rgb(255, 255, 255); fill-opacity: 1;"/><defs id="defs-2735c6"><g class="clips"><clipPath id="clip2735c6xyplot" class="plotclip"><rect width="540" height="320"/></clipPath><clipPath class="axesclip" id="clip2735c6x"><rect x="80" y="0" width="540" height="500"/></clipPath><clipPath class="axesclip" id="clip2735c6y"><rect x="0" y="100" width="700" height="320"/></clipPath><clipPath class="axesclip" id="clip2735c6xy"><rect x="80" y="100" width="540" height="320"/></clipPath></g><g class="gradients"/><g class="patterns"/></defs><g class="bglayer"/><g class="layer-below"><g class="imagelayer"/><g class="shapelayer"/></g><g class="cartesianlayer"><g class="subplot xy"><g class="layer-subplot"><g class="shapelayer"/><g class="imagelayer"/></g><g class="minor-gridlayer"><g class="x"/><g class="y"/></g><g class="gridlayer"><g class="x"><path class="xgrid crisp" transform="translate(152.03,0)" d="M0,100v320" style="stroke: rgb(255, 255, 255); stroke-opacity: 1; stroke-width: 1px;"/><path class="xgrid crisp" transform="translate(278.07,0)" d="M0,100v320" style="stroke: rgb(255, 255, 255); stroke-opacity: 1; stroke-width: 1px;"/><path class="xgrid crisp" transform="translate(404.11,0)" d="M0,100v320" style="stroke: rgb(255, 255, 255); stroke-opacity: 1; stroke-width: 1px;"/><path class="xgrid crisp" transform="translate(530.1600000000001,0)" d="M0,100v320" style="stroke: rgb(255, 255, 255); stroke-opacity: 1; stroke-width: 1px;"/></g><g class="y"><path class="ygrid crisp" transform="translate(0,361.87)" d="M80,0h540" style="stroke: rgb(255, 255, 255); stroke-opacity: 1; stroke-width: 1px;"/><path class="ygrid crisp" transform="translate(0,287.91999999999996)" d="M80,0h540" style="stroke: rgb(255, 255, 255); stroke-opacity: 1; stroke-width: 1px;"/><path class="ygrid crisp" transform="translate(0,140.02)" d="M80,0h540" style="stroke: rgb(255, 255, 255); stroke-opacity: 1; stroke-width: 1px;"/></g></g><g class="zerolinelayer"><path class="yzl zl crisp" transform="translate(0,213.97)" d="M80,0h540" style="stroke: rgb(255, 255, 255); stroke-opacity: 1; stroke-width: 2px;"/></g><path class="xlines-below"/><path class="ylines-below"/><g class="overlines-below"/><g class="xaxislayer-below"/><g class="yaxislayer-below"/><g class="overaxes-below"/><g class="plot" transform="translate(80,100)" clip-path="url(#clip2735c6xyplot)"><g class="scatterlayer mlayer"><g class="trace scatter trace0eccac" style="stroke-miterlimit: 2; opacity: 0.5;"><g class="fills"/><g class="errorbars"/><g class="lines"><path class="js-line" d="M0,136.15L0.19,137.78L0.56,136.15L0.75,134.52L1.5,136.36L1.69,136.17L1.88,136.15L2.25,135.75L2.44,135.13L2.81,135.41L3.19,134.98L3.38,134.68L3.56,137.75L4.13,136.15L4.31,136.13L4.5,137.77L4.69,134.51L4.88,134.32L5.44,113.92L5.81,113.94L6,113.91L6.56,114.17L6.75,137.14L7.32,112.41L7.88,114L8.07,118.9L8.25,120.81L8.44,112.53L9.38,114.02L9.57,114.16L11.07,113.67L11.25,114.03L13.13,114.02L13.32,114.24L14.25,136.21L14.63,136.14L14.82,136.18L16.69,136.18L16.88,136.13L21.01,136.04L21.19,135.79L22.13,136.16L22.32,134.93L22.7,126.48L22.88,137.44L23.07,114.29L24.01,113.94L24.2,113.91L24.95,113.91L25.13,115.6L25.51,112.36L25.7,114.21L25.88,118.26L26.07,117.99L26.26,112.27L27.2,120.51L27.38,112.75L28.13,114.2L28.32,114L28.51,113.95L28.89,113.49L29.07,124.53L29.26,124.74L29.45,127.69L29.64,112.44L30.01,126.04L30.2,136.15L30.39,112.98L30.95,114.04L31.14,114.7L31.7,136.39L32.26,136.15L32.45,135.91L33.39,136.15L33.57,135.9L34.51,136.14L34.7,136.17L38.83,135.95L39.01,136.09L39.76,135.68L39.95,135.13L40.14,135.96L40.51,134.47L40.7,131.65L41.64,136.36L41.83,136.15L42.01,134.92L42.2,125.27L42.58,113.48L43.14,113.98L43.33,113.82L44.08,113.82L44.27,115.57L44.64,120.77L45.02,112.33L45.2,115.6L45.58,112.43L45.95,113.95L46.14,115.63L46.7,112.35L47.08,113.93L47.27,113.95L49.14,114.14L49.33,137.15L49.89,136.16L50.08,130.69L50.46,136.18L51.02,136.15L51.21,136.38L52.33,136.16L52.52,136.17L53.83,135.87L54.02,136.16L54.39,136.1L54.58,135.13L55.14,136.08L55.33,135.96L55.52,135.28L56.27,136.16L56.46,135.96L56.64,135.65L56.83,135.17L57.02,135.38L57.21,137.77L57.39,133.87L57.96,136.16L58.15,137.77L59.08,131.56L59.27,136.24L59.83,136.04L60.02,125.58L60.21,136.96L60.4,136.32L60.58,112.98L61.15,114.27L61.52,113.79L61.71,113.87L62.27,113.85L62.46,129.97L62.65,128.83L62.83,112.72L63.02,113.98L63.21,131.88L63.4,131.02L63.58,112.85L64.52,114.18L64.71,113.73L65.27,114.02L65.46,92.99L66.02,45.74L66.21,58.99L66.4,64.94L68.27,134.67L68.46,136.19L71.65,136.14L71.84,135.11L72.03,134.93L72.21,136.09L73.53,136.15L73.71,135.48L74.28,135.27L74.46,136.15L75.21,134.9L75.4,135.9L76.53,136.16L76.71,136.16L77.09,136.16L77.28,129.96L77.84,128.74L78.03,137.53L78.59,137.59L78.96,119.74L79.15,114.29L79.53,113.62L80.09,113.9L80.28,113.92L80.47,114.18L80.65,111.7L80.84,31.8L81.4,108.81L81.59,35.64L81.78,16L82.34,31.37L82.53,30.95L83.28,34.55L83.47,36.85L83.84,22.85L84.22,31.96L84.4,41.54L84.59,52.57L84.78,135.73L84.97,136.23L85.15,99.34L85.34,91.56L85.53,103.41L85.72,115.13L86.28,136.19L86.84,136.12L87.03,136.18L91.16,136.02L91.34,136.15L91.72,135.2L91.91,136.04L92.09,136.14L92.66,135.71L92.84,135.44L93.03,134.87L93.22,135.26L93.41,136.36L93.97,135.92L94.16,136.38L94.35,137.76L94.72,134.33L95.1,135.9L95.28,137.75L95.66,136.1L95.85,112.45L96.41,114.17L96.78,113.89L96.97,113.92L97.35,113.7L97.91,114.52L98.1,113.66L98.66,113.91L98.85,117.03L99.6,111.35L99.78,26.6L99.97,30L100.16,28.34L100.35,49.74L101.29,154.35L101.47,135.04L101.66,136.23L102.22,135.7L102.41,136.14L102.6,136.13L106.16,136.16L106.35,136.13L109.73,136.14L109.91,135.06L110.66,137.77L110.85,136.38L111.04,134.54L111.41,136.39L111.79,135.27L111.98,134.82L112.16,134.35L112.35,135.66L112.54,135.64L113.29,137.83L113.48,136.15L113.66,134.56L114.04,137.53L114.23,136.38L114.41,134.55L114.6,135.85L114.79,122.78L115.16,113.71L115.54,113.96L115.73,121.69L115.92,134.7L116.1,113.11L116.29,113.93L116.48,113.94L117.6,114.02L117.79,115.51L118.35,136.39L118.73,136.08L118.92,141.06L119.48,116.31L119.67,133.74L119.85,136.08L120.6,136.19L120.79,136.16L120.98,142.8L121.17,183.25L121.92,161.36L122.1,164.45L122.29,159.99L122.86,154.73L123.04,157.17L123.23,156.86L124.73,140.82L124.92,142.41L125.48,143.34L125.86,140.05L126.04,213.34L126.42,214.27L126.61,139.4L126.79,137.19L127.17,140.11L127.36,138.88L127.54,139.21L128.29,135.86L128.48,136.04L128.67,136.14L128.86,137.75L129.23,135.31L129.42,136.24L129.61,135.6L129.8,135.89L129.98,210.73L130.55,135.55L130.92,135.82L131.11,214.5L131.3,142.44L131.86,162.62L132.05,176.67L132.23,166.81L132.42,181.03L132.61,187.95L132.8,176.71L133.17,184.04L133.36,255.44L133.55,242.44L133.73,168.04L133.92,168.12L134.11,172.79L134.67,189.39L134.86,261.51L135.05,266.66L135.23,181.94L136.55,221.18L136.92,213.03L137.11,214.79L137.49,213.9L137.67,210.75L138.99,181.87L139.17,183.77L139.92,164.64L140.11,165.35L140.3,163.87L140.67,236.35L140.86,235.65L141.05,156.62L141.42,155.94L141.61,152.27L142.74,143.65L142.92,144.75L143.86,140.34L144.05,141.94L145.18,137.52L145.36,138.59L145.93,139.58L146.11,137.55L146.3,136.33L146.49,136.66L146.68,146.97L146.86,148.8L147.24,146.79L147.43,136.02L148.18,137.09L148.36,135.16L148.74,136.12L148.93,135.88L149.11,151.12L149.86,166.46L150.05,234.2L150.43,168.36L150.99,174.66L151.18,235.88L151.37,237L151.55,166.81L152.87,200.1L153.05,278.04L153.24,290.37L153.43,218.21L154.18,212.45L154.37,281.79L154.55,279.84L154.74,281.74L154.93,204.43L155.12,211.24L155.68,208.41L155.87,202.68L156.05,202.2L156.24,273.99L156.43,275.38L156.62,262.27L156.99,247.43L157.18,171.09L157.37,171.69L157.55,169.82L157.74,168.18L157.93,178.33L158.49,174.45L158.68,173.39L159.62,155.38L159.81,150.29L160.56,145.06L160.74,147.34L160.93,145.94L161.68,140.81L161.87,142.77L162.06,144.31L162.24,140.82L162.43,140.37L162.62,141.4L162.99,141.11L163.18,139.13L163.37,137.52L163.56,138.94L163.74,141.36L164.87,136.19L165.06,136.47L165.24,138.38L165.62,136.04L165.81,135.7L166,135.79L166.18,210.54L166.37,211.64L166.56,210.97L166.75,148.38L167.68,159.08L167.87,173.65L168.06,176.59L168.25,196.13L168.62,203.77L169,187.28L169.18,194.76L169.56,218.64L169.75,208.86L169.93,205.74L170.31,212.08L170.5,204.9L170.68,207.75L170.87,204.77L171.43,204.75L171.81,214.81L172,212.85L172.56,195.79L172.75,212.02L172.94,223.1L173.12,301.72L173.31,304L173.5,303.66L173.69,203.69L174.62,116.07L174.81,114.08L175,113.96L175.19,116.5L175.37,115.51L175.56,176.22L175.94,218.58L176.12,150.56L176.31,162.84L176.87,174.86L177.25,171.81L177.44,171.71L178.75,145.67L178.94,146.31L180.06,141.39L180.25,144.48L181.19,138.92L181.38,141.99L181.75,136.61L181.94,211.97L182.69,138.42L182.88,138.9L183.06,139.75L183.63,136.37L183.81,137.13L184,138.67L184.19,138.21L184.38,145.95L185.13,124.66L185.31,119.62L185.5,125.06L185.69,118.8L185.88,113.91L186.44,113.94L186.63,136.05L186.81,112.81L187.38,114.19L187.57,113.91L189.44,114.17L189.63,113.78L190.38,113.97L190.57,113.69L190.75,116.82L190.94,127.05L191.13,112.74L191.32,113.97L191.5,113.96L193.19,114.23L193.38,115.93L193.94,136.23L194.51,136.15L194.69,136.24L195.82,136.14L196.01,136.13L198.44,136.18L198.63,136.12L202.2,136.15L202.38,135.91L202.95,127.48L203.13,137.54L203.88,113.9L204.07,113.91L204.26,113.69L205.01,114.18L205.2,130.76L205.57,112.36L205.95,114.53L206.13,114.25L206.32,112.44L206.88,113.91L207.07,114.01L207.45,114.46L207.82,113.68L208.01,114.03L209.89,113.91L210.07,114.05L211.39,114.01L211.57,127.13L212.51,136.39L212.7,136.22L213.07,135.74L213.26,137.7L213.82,134.51L214.2,135.94L214.39,136.13L220.01,136.16L220.2,137.77L221.14,126.26L221.51,126.44L221.7,126.77L221.89,127.3L222.08,119.29L222.64,113.87L222.83,114.14L223.01,113.95L224.14,113.94L224.33,115.63L225.27,112.34L225.45,116.32L226.2,112.5L226.39,114.05L226.58,113.88L226.77,123.01L227.14,112.4L227.33,113.97L227.52,113.74L227.89,136.35L228.45,136.1L228.64,136.18L230.14,136.15L230.33,136.38L231.46,136.17L231.64,136.12L236.14,135.99L236.33,135.33L236.89,137.77L237.08,134.52L237.83,136.14L238.02,135.87L238.21,135.89L238.4,135.73L238.58,136.38L238.77,137.77L238.96,134.52L239.52,136.17L239.71,136.17L241.4,136.17L241.58,133.53L241.77,121.47L242.15,136.09L242.33,136.42L242.9,135.97L243.08,139.22L244.02,192.61L244.21,183.18L244.58,187.49L244.96,185.7L245.15,257.23L245.34,258.23L245.52,184.16L245.71,195.07L246.09,188.61L246.27,263.1L246.46,264.05L246.65,189.72L247.4,177.54L247.59,161.68L247.77,158.2L248.34,158.75L248.52,159.11L249.84,148.39L250.02,145.18L250.4,153.26L250.96,151.82L251.15,151.76L252.09,138.9L252.28,140.14L252.46,141.53L252.65,139.93L252.84,136.99L253.21,140.73L253.59,137.8L253.78,136.2L254.15,139.25L254.34,136.17L254.53,135.9L254.9,134.67L255.09,135.77L255.28,136.99L256.03,134.92L256.21,135.31L256.4,137.42L256.78,135.39L256.96,137.12L257.15,213.81L257.34,225.91L257.53,152.24L257.9,161.48L258.09,156.46L258.28,151.2L258.46,148.61L258.65,155.35L258.84,159.9L259.03,173.99L259.22,247.63L259.4,249.17L259.59,185.34L259.97,182.61L260.53,195.34L260.72,185.89L260.9,188.94L261.09,184L261.28,171.87L261.65,178.66L261.84,175.71L262.03,174.35L263.15,189.69L263.34,268.67L263.72,269.42L263.9,189.35L264.84,183.24L265.03,190.11L267.28,150.54L267.47,152.79L267.66,151.07L267.84,156.53L268.22,158.15L268.41,156.46L268.59,154.78L269.16,152.56L269.34,154.3L269.91,139.76L270.28,141.31L270.47,138.85L270.66,137.65L271.03,139.33L271.22,139.66L271.41,136.87L271.59,137.26L271.78,148.77L271.97,148.52L272.16,136.23L272.34,135.66L272.72,136.6L272.91,137.47L273.28,134.19L273.66,134.61L273.85,137.33L274.03,147.63L274.41,146.3L274.6,219.27L274.78,136.14L275.35,142.39L275.53,150.41L275.91,160.51L276.1,244.81L276.47,257.2L276.66,177.7L277.41,169.09L277.6,175.28L277.78,188.1L278.35,186.53L278.53,173.49L278.72,172.64L279.1,174.01L279.28,249.83L279.47,263.09L279.66,192.25L279.85,197.77L280.22,195.25L280.41,276.31L280.6,277.72L280.78,198.44L280.97,200.45L281.16,275.51L281.35,274.93L281.54,280.25L282.1,193.11L282.29,205.87L282.47,204.55L283.41,183.69L283.6,179.15L284.54,191.64L284.72,182.33L284.91,182.19L285.1,175.77L286.04,152.27L286.22,152.79L286.41,152.6L286.6,140.56L286.97,142.04L287.16,139.56L287.35,137.5L287.54,138.07L287.72,141.56L287.91,140.9L288.1,137.34L288.48,137.11L288.66,139.52L288.85,138.01L289.04,136.69L289.6,139.52L289.79,136.69L289.98,136.56L290.54,138.32L290.73,136.58L290.91,135.54L291.29,137.85L291.66,136.53L291.85,134.92L292.04,134.27L292.23,148.72L292.41,149.23L292.6,145.92L293.16,150.9L293.35,144.25L293.54,142.88L293.73,229.14L293.91,240.35L294.1,165.64L294.48,168.8L294.66,245.98L295.04,167.86L295.42,178.68L295.6,181.39L295.79,183.35L295.98,180.87L296.17,176.09L296.35,186.34L296.92,176.19L297.1,170.79L297.29,170.03L297.48,162.13L297.67,162.41L297.85,165.49L298.23,170.39L298.42,167.91L298.6,243.1L298.79,246.67L298.98,172.53L299.54,267.06L299.73,198.08L300.1,181.83L300.29,255.72L300.48,259.46L300.67,175.24L300.85,177.18L301.04,167.54L303.11,147.21L303.29,148.88L303.48,150.84L304.79,137.54L304.98,137.41L305.17,138.78L305.36,138.04L305.54,135.39L305.73,133.44L305.92,135.28L306.11,137.77L306.86,134.04L307.04,134.54L307.23,136.81L307.42,210.55L307.79,134.36L307.98,135.81L308.17,135.68L308.36,134.52L308.92,135.57L309.11,135.01L309.29,133.99L309.67,133.47L309.86,135.19L310.98,133.67L311.17,146.43L311.36,149.5L311.55,140.13L311.92,137.76L312.11,140.99L312.86,181.99L313.05,167.8L313.23,161.95L313.61,158.17L313.98,174.02L314.17,181.5L314.92,190.02L315.11,186.45L315.48,171.97L315.67,183.3L315.86,183.68L316.23,249.87L316.42,248.29L316.61,177L316.8,176.44L316.99,178.5L317.17,178.99L317.36,173.09L317.74,179.66L317.92,175.82L318.11,170.27L318.3,170.14L318.49,157.85L318.86,160.88L319.24,158.45L319.42,159.41L319.8,158.85L319.99,229.1L320.17,226.49L320.36,227.25L320.55,150.7L320.92,151.63L321.49,147.13L321.67,146.29L322.24,217.66L322.42,141.6L322.61,140.56L322.8,214.08L323.17,215.2L323.36,138.62L323.74,139.72L324.11,138.92L324.3,139.24L324.49,140.48L324.86,138.16L325.05,138.49L326.18,133.3L326.55,134.09L326.74,145.36L326.93,145.44L327.11,143.95L327.49,133.98L327.68,144.16L327.86,144.54L328.05,143.85L328.24,144.48L328.43,155.07L328.8,143.64L328.99,144.14L329.18,156.95L329.36,147.23L329.93,149L330.11,150.38L330.3,145.56L330.49,226.49L330.68,224.52L330.86,144.64L331.43,147.41L331.62,223.35L332.18,148.18L332.37,150.3L332.55,163.41L333.12,180.62L333.3,179.56L333.49,171.66L333.68,172.5L333.87,163.7L334.24,162.19L335.18,169.65L335.37,166.96L335.74,173.61L335.93,167.76L336.12,160.43L336.49,168.08L337.05,166.14L337.24,163.41L337.62,174.31L337.99,169.8L338.18,168.51L338.37,243.04L338.74,167.73L338.93,164.71L339.12,162.96L339.31,152.39L340.81,142.98L340.99,141.64L341.18,142.83L341.56,140.74L341.74,140.2L342.12,141.41L342.31,139.24L342.68,138.02L342.87,139.88L343.06,142.04L343.43,138.7L343.62,138.79L345.12,133.49L345.31,134.02L346.06,133.43L346.25,144.52L346.43,155.21L347,145.59L347.18,147.05L347.37,147.7L347.56,140.94L348.31,160.63L348.5,240.01L348.87,165.48L349.25,168.75L349.43,169.01L349.81,183.4L350,259.48L350.18,262.67L350.37,188.28L350.56,199.8L351.12,198.96L351.31,199.15L351.5,198.9L351.68,195.58L351.87,198.58L352.06,197.4L352.25,189.96L352.43,190.12L352.62,192.73L353.37,211.91L353.56,211.69L353.75,211.38L354.31,191.17L354.5,265.02L354.69,266.61L354.87,191.72L356,165.27L356.19,165.2L356.37,165.9L356.56,164.92L356.75,161.72L357.69,154.35L357.87,149.35L359.19,142.74L359.37,142.25L359.56,141.62L359.75,142.41L359.94,142.99L360.5,141.18L360.69,139.84L361.06,136.71L361.25,138.24L361.44,141.48L362.19,135.68L362.38,137.59L362.56,137.13L363.5,135.3L363.69,135.47L364.06,136.93L364.25,135.44L364.44,134.6L364.63,135.56L364.81,146.85L365,147.31L365.19,150.58L366.13,161.36L366.31,239.5L366.5,245.95L366.69,184.44L366.88,185.13L367.06,192.25L367.44,196.04L367.63,185.67L367.82,190.56L368,168.83L368.75,113.76L368.94,137.19L369.13,136.14L369.32,112.93L370.07,114.01L370.25,113.93L370.63,113.95L370.82,137.21L371.38,112.9L371.94,113.94L372.13,113.92L373.25,114.07L373.44,127.23L374.38,136.23L374.57,136.12L377.01,136.14L377.19,136.15L382.26,136.11L382.45,134.82L382.63,133.09L382.82,137.74L383.01,128.43L383.76,136.4L383.95,136.12L384.13,122L384.7,118.04L384.88,186.06L385.07,113.69L385.26,116.49L385.63,112.63L385.82,137.43L386.01,135.87L386.2,112.99L386.95,114.31L387.13,113.99L387.32,114.16L387.51,114.16L387.7,137.39L388.26,134.42L388.45,127.43L389.2,113.95L389.39,114.01L389.57,113.89L389.76,114.2L389.95,120.75L390.14,136.32L390.7,134.91L390.89,129.93L391.26,129.21L391.82,162.37L392.01,133.54L392.95,159.14L393.32,158L393.51,156.23L394.45,147.4L394.64,149.5L394.82,149.21L395.01,145.17L395.2,146.57L395.57,143.97L395.76,143.76L397.45,140.83L397.64,139.65L397.83,138.68L398.2,139.6L398.39,141.13L398.58,141.05L398.76,138.71L398.95,138.33L399.14,139.33L399.33,139.77L399.51,136.33L400.08,137.54L400.26,136.42L400.45,132.93L400.64,142.62L400.83,140.45L401.39,121.97L401.58,114.13L402.51,114.01L402.7,114.14L403.08,114.38L403.64,113.78L403.83,113.86L404.58,114.18L404.77,113.97L404.95,114.01L405.14,113.91L405.33,137.39L405.52,112.91L406.08,114.06L406.27,136.95L406.45,135.99L406.64,112.67L406.83,129.16L407.2,112.48L407.39,114.03L407.58,125.56L407.95,112.65L408.52,114.03L408.7,114.04L408.89,114.02L409.08,137.25L409.27,136.42L409.45,117.37L410.2,136.24L410.58,136.19L410.77,135.96L411.89,136.12L412.08,136.16L415.64,135.85L415.83,135.03L416.21,136.15L416.39,134.88L416.58,134.67L417.33,136.38L417.52,136.14L417.71,136.16L418.83,128.91L419.02,135.53L419.4,137.47L419.77,113.84L420.33,113.91L420.52,113.86L422.02,113.96L422.21,120.77L422.58,113.87L422.77,134.18L423.15,112.75L423.71,114.01L423.9,113.48L424.84,114.25L425.02,113.98L427.27,113.97L427.46,114.45L428.4,136.24L428.59,136.18L433.65,136.15L433.84,136.17L435.15,133.93L435.34,135.89L435.53,135.97L435.71,135.52L435.9,134.65L436.84,130.28L437.03,124.35L437.78,113.9L437.96,113.93L438.15,113.92L440.4,113.96L440.59,123.97L440.78,125.68L440.97,112.48L441.72,114.19L441.9,113.96L443.4,113.98L443.59,127.58L443.78,126.24L443.97,112.68L444.9,114.01L445.09,114.01L445.28,114.05L445.47,137.19L445.65,136.22L445.84,115.76L446.59,136.2L446.78,136.19L446.97,136.14L453.16,136.15L453.34,135.19L454.1,136.13L454.28,134.7L454.66,132.41L454.85,129.55L455.03,127.26L455.22,137.67L455.41,136.15L455.6,116.54L455.78,113.73L456.35,114.14L456.53,113.9L457.47,113.96L457.66,115.58L458.03,112.35L458.22,118.75L458.6,112.38L459.16,113.94L459.35,114L459.53,112.36L459.72,114.18L459.91,114L460.1,114.22L460.85,113.7L461.04,114.19L461.41,113.72L461.79,113.96L461.97,113.93L462.16,113.7L462.35,137.07L462.54,136.17L462.72,136.21L462.91,112.79L463.47,114.13L463.66,120.31L463.85,120.19L464.04,131.34L464.6,136.23L464.79,136.13L464.97,136.19L467.6,136.13L467.79,136.13L471.16,136.16L471.35,136.12L472.29,135.9L472.48,135.47L472.66,136.33L473.23,136.09L473.41,134.02L473.6,137.29L473.79,112.91L474.73,113.96L474.91,113.95L475.1,113.89L475.29,128.09L475.48,130.96L475.67,112.88L476.6,114.19L476.79,114.21L477.73,113.54L477.92,137.15L478.29,135.91L478.48,136.21L478.67,112.86L478.85,137.25L479.42,113L479.6,114.2L479.79,113.93L479.98,137.09L480.35,135.89L480.54,113.02L481.48,117.69L481.67,126.57L482.23,136.25L482.79,136.18L482.98,136.11L489.92,136.13L490.11,137.79L490.86,132.57L491.05,136.32L491.42,136.18L491.61,133.88L492.17,113.74L492.36,137.07L492.92,134.81L493.11,112.79L493.86,114.19L494.05,114.01L494.23,113.93L496.67,114.02L496.86,113.74L497.99,113.87L498.17,113.75L499.3,114.03L499.49,114.07L500.8,136.19L500.99,136.12L503.42,136.16L503.61,136.15L508.11,136.17L508.3,135.39L508.49,133.93L508.68,137.74L509.05,134.54L509.24,136.12L509.43,136.61L509.61,135.89L509.8,134.1L510.18,137.11L510.55,112.95L510.93,113.89L511.11,114.18L511.49,113.91L511.68,134.71L511.87,136.28L512.05,112.87L512.99,114L513.18,113.69L514.12,114.16L514.3,91.91L514.68,69.22L515.05,89.91L515.24,104.54L516.18,71.02L516.37,75.13L516.55,73.74L516.74,82.32L518.24,136.23L518.43,135.94L518.62,136.2L522.18,136.13L522.37,136.18L524.43,136.14L524.62,136.16L526.5,135.44L526.68,134.07L527.43,137.48L527.62,136.12L527.81,112.93L528.37,113.99L528.56,113.64L528.75,113.94L528.93,136.03L529.31,112.73L529.87,113.95L530.06,113.91L530.25,124.61L530.62,112.4L530.81,113.9L531,114.51L531.18,113.89L531.37,133.46L531.56,134.21L531.75,112.92L531.93,113.93L532.12,124.34L532.5,112.46L532.68,114.01L532.87,56.8L533.06,48.15L533.25,128.33L534.19,109.2L534.37,40.81L536.25,136.23L536.62,136.19L536.81,136.43L537.56,135.91L537.75,136.12L537.94,136.17L540,136.14" style="vector-effect: non-scaling-stroke; fill: none; stroke: rgb(0, 191, 255); stroke-opacity: 1; stroke-width: 2px; opacity: 1;"/></g><g class="points"/><g class="text"/></g></g></g><g class="overplot"/><path class="xlines-above crisp" d="M0,0" style="fill: none;"/><path class="ylines-above crisp" d="M0,0" style="fill: none;"/><g class="overlines-above"/><g class="xaxislayer-above"><g class="xtick"><text text-anchor="middle" x="0" y="433" transform="translate(152.03,0)" style="font-family: 'Open Sans', verdana, arial, sans-serif; font-size: 12px; fill: rgb(42, 63, 95); fill-opacity: 1; white-space: pre; opacity: 1;"><tspan class="line" dy="0em" x="0" y="433">Jun 5</tspan><tspan class="line" dy="1.3em" x="0" y="433">2022</tspan></text></g><g class="xtick"><text text-anchor="middle" x="0" y="433" style="font-family: 'Open Sans', verdana, arial, sans-serif; font-size: 12px; fill: rgb(42, 63, 95); fill-opacity: 1; white-space: pre; opacity: 1;" transform="translate(278.07,0)">Jun 12</text></g><g class="xtick"><text text-anchor="middle" x="0" y="433" style="font-family: 'Open Sans', verdana, arial, sans-serif; font-size: 12px; fill: rgb(42, 63, 95); fill-opacity: 1; white-space: pre; opacity: 1;" transform="translate(404.11,0)">Jun 19</text></g><g class="xtick"><text text-anchor="middle" x="0" y="433" style="font-family: 'Open Sans', verdana, arial, sans-serif; font-size: 12px; fill: rgb(42, 63, 95); fill-opacity: 1; white-space: pre; opacity: 1;" transform="translate(530.1600000000001,0)">Jun 26</text></g></g><g class="yaxislayer-above"><g class="ytick"><text text-anchor="end" x="79" y="4.199999999999999" transform="translate(0,361.87)" style="font-family: 'Open Sans', verdana, arial, sans-serif; font-size: 12px; fill: rgb(42, 63, 95); fill-opacity: 1; white-space: pre; opacity: 1;">−100</text></g><g class="ytick"><text text-anchor="end" x="79" y="4.199999999999999" style="font-family: 'Open Sans', verdana, arial, sans-serif; font-size: 12px; fill: rgb(42, 63, 95); fill-opacity: 1; white-space: pre; opacity: 1;" transform="translate(0,287.91999999999996)">−50</text></g><g class="ytick"><text text-anchor="end" x="79" y="4.199999999999999" style="font-family: 'Open Sans', verdana, arial, sans-serif; font-size: 12px; fill: rgb(42, 63, 95); fill-opacity: 1; white-space: pre; opacity: 1;" transform="translate(0,213.97)">0</text></g><g class="ytick"><text text-anchor="end" x="79" y="4.199999999999999" style="font-family: 'Open Sans', verdana, arial, sans-serif; font-size: 12px; fill: rgb(42, 63, 95); fill-opacity: 1; white-space: pre; opacity: 1;" transform="translate(0,140.02)">50</text></g></g><g class="overaxes-above"/></g></g><g class="polarlayer"/><g class="smithlayer"/><g class="ternarylayer"/><g class="geolayer"/><g class="funnelarealayer"/><g class="pielayer"/><g class="iciclelayer"/><g class="treemaplayer"/><g class="sunburstlayer"/><g class="glimages"/><defs id="topdefs-2735c6"><g class="clips"/></defs><g class="layer-above"><g class="imagelayer"/><g class="shapelayer"/></g><g class="infolayer"><g class="g-gtitle"><text class="gtitle" x="350" y="50" text-anchor="middle" dy="0em" style="font-family: 'Open Sans', verdana, arial, sans-serif; font-size: 17px; fill: rgb(42, 63, 95); opacity: 1; font-weight: normal; white-space: pre;"><tspan class="line" dy="0em" x="350" y="50">Scenario 7</tspan><tspan class="line" dy="1.3em" x="350" y="50">Microgrid Output</tspan><tspan class="line" dy="2.6em" x="350" y="50">From: June 01, 2022 to June 30, 2022</tspan></text></g><g class="g-xtitle"><text class="xtitle" x="350" y="476.409375" text-anchor="middle" style="font-family: 'Open Sans', verdana, arial, sans-serif; font-size: 14px; fill: rgb(42, 63, 95); opacity: 1; font-weight: normal; white-space: pre;">Time</text></g><g class="g-ytitle"><text class="ytitle" transform="rotate(-90,27.168750000000003,260)" x="27.168750000000003" y="260" text-anchor="middle" style="font-family: 'Open Sans', verdana, arial, sans-serif; font-size: 14px; fill: rgb(42, 63, 95); opacity: 1; font-weight: normal; white-space: pre;">Demand (kW)</text></g></g></svg>