<svg class="main-svg" xmlns="http://www.w3.org/2000/svg" xmlns:xlink="http://www.w3.org/1999/xlink" width="700" height="500" style="" viewBox="0 0 700 500"><rect x="0" y="0" width="700" height="500" style="fill: rgb(255, 255, 255); fill-opacity: 1;"/><defs id="defs-97a974"><g class="clips"><clipPath id="clip97a974xyplot" class="plotclip"><rect width="435" height="320"/></clipPath><clipPath class="axesclip" id="clip97a974x"><rect x="80" y="0" width="435" height="500"/></clipPath><clipPath class="axesclip" id="clip97a974y"><rect x="0" y="100" width="700" height="320"/></clipPath><clipPath class="axesclip" id="clip97a974xy"><rect x="80" y="100" width="435" height="320"/></clipPath></g><g class="gradients"/><g class="patterns"/></defs><g class="bglayer"/><g class="layer-below"><g class="imagelayer"/><g class="shapelayer"/></g><g class="cartesianlayer"><g class="subplot xy"><g class="layer-subplot"><g class="shapelayer"/><g class="imagelayer"/></g><g class="gridlayer"><g class="x"><path class="xgrid crisp" transform="translate(108.07,0)" d="M0,100v320" style="stroke: rgb(255, 255, 255); stroke-opacity: 1; stroke-width: 1px;"/><path class="xgrid crisp" transform="translate(206.32999999999998,0)" d="M0,100v320" style="stroke: rgb(255, 255, 255); stroke-opacity: 1; stroke-width: 1px;"/><path class="xgrid crisp" transform="translate(304.59000000000003,0)" d="M0,100v320" style="stroke: rgb(255, 255, 255); stroke-opacity: 1; stroke-width: 1px;"/><path class="xgrid crisp" transform="translate(402.85,0)" d="M0,100v320" style="stroke: rgb(255, 255, 255); stroke-opacity: 1; stroke-width: 1px;"/><path class="xgrid crisp" transform="translate(501.11,0)" d="M0,100v320" style="stroke: rgb(255, 255, 255); stroke-opacity: 1; stroke-width: 1px;"/></g><g class="y"><path class="ygrid crisp" transform="translate(0,393.82)" d="M80,0h435" style="stroke: rgb(255, 255, 255); stroke-opacity: 1; stroke-width: 1px;"/><path class="ygrid crisp" transform="translate(0,358.12)" d="M80,0h435" style="stroke: rgb(255, 255, 255); stroke-opacity: 1; stroke-width: 1px;"/><path class="ygrid crisp" transform="translate(0,322.41999999999996)" d="M80,0h435" style="stroke: rgb(255, 255, 255); stroke-opacity: 1; stroke-width: 1px;"/><path class="ygrid crisp" transform="translate(0,251.03)" d="M80,0h435" style="stroke: rgb(255, 255, 255); stroke-opacity: 1; stroke-width: 1px;"/><path class="ygrid crisp" transform="translate(0,215.32999999999998)" d="M80,0h435" style="stroke: rgb(255, 255, 255); stroke-opacity: 1; stroke-width: 1px;"/><path class="ygrid crisp" transform="translate(0,179.63)" d="M80,0h435" style="stroke: rgb(255, 255, 255); stroke-opacity: 1; stroke-width: 1px;"/><path class="ygrid crisp" transform="translate(0,143.93)" d="M80,0h435" style="stroke: rgb(255, 255, 255); stroke-opacity: 1; stroke-width: 1px;"/><path class="ygrid crisp" transform="translate(0,108.23)" d="M80,0h435" style="stroke: rgb(255, 255, 255); stroke-opacity: 1; stroke-width: 1px;"/></g></g><g class="zerolinelayer"><path class="yzl zl crisp" transform="translate(0,286.72)" d="M80,0h435" style="stroke: rgb(255, 255, 255); stroke-opacity: 1; stroke-width: 2px;"/></g><path class="xlines-below"/><path class="ylines-below"/><g class="overlines-below"/><g class="xaxislayer-below"/><g class="yaxislayer-below"/><g class="overaxes-below"/><g class="plot" transform="translate(80,100)" clip-path="url(#clip97a974xyplot)"><g class="scatterlayer mlayer"><g class="trace scatter traceb2d47f" style="stroke-miterlimit: 2; opacity: 1;"><g class="fills"/><g class="errorbars"/><g class="lines"><path class="js-line" d="M0,189.42L0.29,195.23L0.44,188.51L0.58,193.79L0.73,188.49L1.02,188.23L1.17,194.91L1.46,192.04L1.61,188.05L1.9,187.85L2.05,194.85L2.34,188.89L2.49,187.27L2.63,189.66L2.92,186.72L3.22,187.45L3.36,187.66L3.66,186.72L3.8,252.05L4.68,172.65L4.83,168.38L5.41,146.44L5.56,160.67L5.7,133.05L6.43,187.22L6.58,107.79L7.02,255.13L7.31,240.1L7.46,110.02L7.75,105.63L7.9,228.66L8.19,194.76L8.33,170.91L8.48,127.59L9.07,150.5L9.21,142.89L9.5,138.1L11.55,212.68L11.7,193.67L11.84,216.48L12.28,190.39L12.43,200.49L12.57,190.17L12.72,199.5L12.87,189.92L13.31,189.94L13.45,197.49L13.74,198.45L14.18,188.88L14.33,191.57L14.48,192.67L14.62,187.91L15.21,187.83L15.35,193.99L15.5,188.54L15.65,189.69L15.79,187.47L15.94,188.26L16.08,187.11L16.38,188.6L16.67,187.23L16.82,186.85L16.96,188.52L17.25,186.72L17.4,255.18L17.55,157.51L18.13,190.82L18.28,186.72L18.42,234.06L18.72,164.31L18.86,165.55L19.01,160.79L19.59,148.36L19.74,203.62L20.18,125.3L20.76,144.42L20.91,142.85L21.2,154.36L21.35,134.72L21.64,137.98L21.79,153.38L22.81,124.6L22.96,173.13L23.83,186.72L23.98,186.72L25.15,186.72L25.3,188.58L25.88,201.02L26.17,198.08L26.32,189.52L26.9,189.3L27.05,195.16L27.2,188.76L27.34,197.9L27.78,188.62L27.93,192.05L28.07,188.03L28.66,187.88L28.81,193.35L28.95,188.38L29.1,188.35L29.24,187.13L29.68,186.72L29.83,187.54L29.97,190.3L30.27,186.72L30.41,186.72L30.56,186.72L31,188.31L31.29,186.72L31.44,186.72L32.31,186.72L32.46,170.68L32.61,172.82L32.75,158.24L32.9,162.51L33.05,142.48L33.34,130.8L34.22,186.72L34.36,186.72L38.46,186.72L38.6,211.15L38.89,225.24L39.04,165.54L39.33,191.78L39.48,195.43L39.77,195.92L40.21,190.85L40.36,196.01L41.09,188.53L41.23,190.54L41.53,187.24L41.67,191.2L41.96,186.79L42.4,191.4L42.55,187.89L42.7,186.72L42.84,190.14L43.28,187.13L43.43,257.66L43.57,155.16L44.16,186.48L44.3,192.2L44.45,188.54L44.6,258.59L45.04,156.17L45.33,173.03L45.47,213.74L46.35,186.72L46.5,180.77L46.64,174.77L46.79,207.02L47.37,137.01L47.52,211.84L48.54,88.94L48.69,218.4L49.13,102.84L49.42,105.77L49.57,165.11L50.01,96.73L50.15,164.35L50.3,186.72L53.08,186.72L53.22,188.67L53.81,210.22L54.1,209.14L54.25,204.95L54.39,206.68L54.54,202.51L54.69,198.23L54.83,188.87L55.56,189.37L55.71,187.43L55.86,192.17L56.44,190.5L56.59,187.61L56.73,186.74L56.88,188.58L57.03,191.01L57.32,186.93L57.76,186.96L57.9,189.07L58.19,186.72L58.34,197.87L58.93,186.72L59.22,187.96L59.36,186.72L60.53,186.72L60.68,182.01L60.83,178.03L60.97,184.66L61.12,221.02L62.14,121.76L62.29,204.23L63.17,138.68L63.31,176.48L64.19,186.72L64.34,186.72L67.26,186.72L67.41,193.26L67.7,191.07L67.85,205.04L67.99,191.15L68.14,200.78L68.58,189.81L68.72,197.24L68.87,189.35L69.45,187.84L69.6,196.58L69.75,189.19L70.33,187.42L70.48,191.47L70.62,187.91L70.77,188.83L70.92,187.25L71.06,187.46L71.21,193.25L72.09,187.05L72.23,189.77L72.38,187.49L72.52,187.66L72.67,198.1L72.82,257.6L73.26,188.92L73.4,187.27L74.28,186.22L74.43,181.42L74.57,180.42L74.72,165.32L74.86,224.48L75.45,190.46L75.59,188.07L75.74,180.87L75.89,127.3L76.33,161.92L76.47,122.07L76.62,152.45L76.76,116.31L77.64,186.72L77.79,186.72L81.3,186.72L81.44,190.18L81.88,208.43L82.17,198.98L82.32,192.28L82.61,189.01L82.76,199.8L83.05,196.32L83.2,189.12L83.34,198.93L83.78,188.34L83.93,189.96L84.08,187.52L84.81,194.86L84.95,188.76L85.25,190.4L85.83,186.72L85.98,190.52L86.12,254.61L86.56,186.72L86.71,189.17L86.85,188.02L87.29,186.72L87.58,186.8L87.73,194.35L88.75,172.29L88.9,174.95L89.05,217.53L90.22,111.22L90.36,143.06L90.51,137.49L90.66,176.05L91.53,186.72L91.68,186.72L95.33,186.72L95.48,198.12L95.63,193.04L95.77,202.01L95.92,194.41L96.07,272.79L96.94,189.42L97.09,196.29L97.53,188.59L97.67,196.41L97.82,189.15L97.97,192.06L98.11,188.06L98.26,194.67L98.84,188.32L98.99,187.86L99.14,186.91L99.28,194.15L99.72,187.11L100.16,187.47L100.31,197.64L101.04,186.72L101.18,188.81L101.33,187.25L101.48,186.72L101.62,187.48L101.77,192.1L102.06,194.35L102.65,173.27L102.79,180.78L102.94,154.86L103.08,174.56L103.23,145.15L103.67,166.55L103.82,141.06L103.96,149.16L104.11,201.76L104.55,97.61L104.84,170.3L104.98,182.62L105.13,96.99L105.42,186.72L105.72,186.72L105.86,186.72L108.49,186.72L108.64,209.45L108.79,204.66L108.93,221.34L109.08,166.97L109.96,206.75L110.1,205.13L110.39,205.26L110.98,189.1L111.13,197.94L111.56,188.41L111.86,188.72L112,193.42L112.15,188.4L112.3,195.24L112.73,188.77L112.88,189.51L113.03,190.06L113.17,190L113.32,187.38L113.9,186.81L114.2,194.11L114.34,188.56L114.49,188.83L114.64,187.25L114.78,266.02L114.93,165.19L115.37,201.88L115.51,190.65L116.68,176.11L116.83,184.31L117.56,146.88L117.71,162.65L117.85,152.16L118.14,136.92L118.29,162.58L118.44,144.87L119.31,184.78L119.46,103.85L120.34,186.72L120.48,186.72L122.24,186.72L122.38,210.44L122.53,216.05L122.68,201.66L122.82,179.92L123.7,204.09L124.14,199.51L124.29,198.33L124.87,188.13L125.02,198.82L125.89,188.47L126.04,192.77L126.77,187.94L126.92,193.11L127.36,187.77L127.65,188.29L127.79,213.25L128.67,188.79L128.82,187.24L128.96,189.93L129.11,256.9L129.26,155.79L129.84,187.26L129.99,187.19L130.13,187.29L130.28,248.59L131.01,126.31L131.3,130.02L131.45,171.82L132.18,113.41L132.33,157.13L132.47,111.47L132.77,185.83L132.91,180.43L133.06,185.15L133.21,110.84L133.79,127.21L133.94,146.54L134.08,138.67L134.52,150.96L134.67,179.96L135.54,186.72L135.69,186.72L137.01,186.72L137.15,189.62L137.3,187.63L137.45,211.54L137.59,192.92L138.18,206.32L138.32,204.4L138.47,205.44L138.62,204.43L138.76,196.89L138.91,209.8L139.05,194.83L139.35,205.05L139.49,192.45L139.78,190.23L140.08,199.37L140.22,189.68L140.37,196.26L140.81,188.19L140.95,194.89L141.1,188.77L141.39,188.15L141.83,194.62L141.98,188.7L142.42,190.23L142.56,254.44L142.71,161.05L143.29,188.4L143.44,194.08L144.03,186.72L144.32,187.02L144.46,186.72L144.61,186.72L144.76,182.06L144.9,185.56L145.05,167.44L145.19,181.9L145.63,166.35L145.78,147.51L146.07,125.8L146.22,212.03L146.36,84.5L146.8,189.4L147.1,164.31L147.24,124.05L147.39,223.69L147.97,156.75L148.12,181.85L148.27,184.79L148.41,121.19L148.56,214.5L149.14,185.76L149.29,135.67L150.17,186.72L150.31,186.72L151.34,186.72L151.48,194.33L151.63,189.37L151.77,203.02L152.07,198.7L152.21,200.03L152.51,210.93L152.65,195.65L152.8,202.08L152.94,203.44L153.53,205.54L153.68,191.33L153.82,197.65L154.55,188.52L154.7,191.81L155.58,187.15L155.72,190.93L156.02,190.97L156.31,186.72L156.6,187.05L156.75,187.7L156.89,186.97L157.04,195.13L157.33,195.89L157.92,186.72L158.06,186.72L158.21,252.69L158.79,181.02L158.94,183.76L159.96,138.48L160.11,141.6L160.26,137.91L160.4,176.64L160.69,115.01L160.99,123.86L161.13,149L162.01,186.72L162.16,186.72L162.45,186.72L162.59,194.26L162.74,127.1L163.33,186.72L163.47,186.72L165.37,186.99L165.52,200.59L165.81,204.29L166.25,191.42L166.4,195.56L166.54,201.77L167.27,188.44L167.42,196.13L168.15,187.8L168.3,193.01L169.17,186.9L169.32,190.78L169.61,186.72L170.2,187.07L170.34,186.72L170.49,186.72L170.64,187.99L170.78,199.4L171.37,186.72L171.51,186.72L171.66,187.92L171.81,255.89L172.25,162.47L172.68,181.31L172.83,186.72L174.29,140.66L174.44,136.04L174.73,126.15L175.75,186.72L175.9,186.72L179.12,186.72L179.26,193.28L179.41,188.36L179.56,204.36L179.7,206.55L180.29,198.8L180.43,225.55L180.58,196.22L180.73,218.63L181.16,192.48L181.31,205.37L181.46,193.67L182.04,200.73L182.19,189.92L182.48,188.05L182.63,195.46L182.92,191.97L183.07,188.04L183.21,195.84L183.65,187.83L183.8,189.04L183.94,188.08L184.09,186.92L184.24,201.71L184.67,189.57L185.11,190L185.26,195.73L186.14,186.72L186.28,186.72L186.43,247.36L186.57,149.41L187.01,187.6L187.16,165.2L187.74,211.28L187.89,183.52L188.04,144.81L188.18,210.45L188.77,139.74L188.91,165.77L189.06,140.35L189.5,183.31L189.65,175.24L190.38,116.76L190.52,169.79L190.67,126.73L191.11,175.79L191.25,143.7L191.4,171.98L191.69,146.34L191.98,186.72L192.13,186.72L193.01,186.72L193.15,192.15L193.3,188.13L193.45,203.19L193.59,200.98L193.74,195.86L193.89,220.1L194.47,220.25L194.62,194.69L194.76,209.37L195.49,189.51L195.64,198.57L196.08,188.9L196.23,199.16L196.37,189.83L196.52,194.41L196.81,194.96L197.25,188.22L197.39,192.04L197.98,187.42L198.27,187.83L198.42,186.72L199.3,201.38L199.44,190.39L199.88,186.72L200.17,187.6L200.32,192.4L201.34,173.86L201.49,227L202.07,139.58L202.22,166.94L202.37,184.73L202.51,186.72L202.81,186.46L202.95,121.02L203.1,170.3L203.54,117.94L203.68,169.63L203.83,134.61L204.27,177.53L204.56,175.09L204.71,144.84L205,141.02L205.73,186.72L205.88,186.72L207.34,186.72L207.48,198.12L207.63,189.57L207.92,203.61L208.07,195.98L208.22,207.54L208.8,194.93L208.95,210.39L209.24,212.3L209.68,191.67L209.82,197.55L210.55,188.72L210.7,197.45L211.43,188.23L211.58,189.62L211.72,192.6L212.31,186.95L212.46,195.69L213.04,186.97L213.19,192.57L213.33,193.26L213.48,192.7L213.63,273.15L213.77,143.95L214.36,155.96L214.5,213.98L214.79,227.85L214.94,206.61L215.09,223.46L215.23,148.26L215.67,181.17L215.96,161.8L216.11,153.22L216.26,153.83L216.4,131.4L216.84,125.72L217.28,199.21L217.43,182.8L217.57,145.18L217.87,134.46L218.45,200.35L218.6,190.76L218.74,146.64L218.89,168.63L219.04,146.42L219.47,154.29L219.62,163.12L220.06,183.79L220.21,170.65L221.08,256.22L221.23,154.95L221.37,235.36L221.96,217.5L222.11,195.24L222.25,209.31L222.4,193.56L222.84,199.89L222.98,198.41L223.13,207.1L223.57,191.08L223.71,196.37L223.86,189.14L224.01,200.71L224.45,192.43L224.59,192.72L224.74,187.98L224.88,196.96L225.18,190.34L225.32,193.59L225.47,188.21L225.62,197.33L226.05,189L226.2,191.92L226.35,188.02L226.64,196.39L226.93,190.71L227.08,190.22L227.22,187.44L227.37,191.31L227.52,197.41L227.66,200.2L227.81,189.51L227.95,199.49L228.1,189.92L228.54,186.72L228.69,190.81L228.83,259.83L228.98,152.64L229.56,200.72L229.71,194.34L230.44,120.12L230.59,170.9L230.73,117.37L231.32,127.16L231.46,162.49L231.61,129.55L232.05,164.94L232.19,194.34L232.49,149.7L233.07,155.19L233.22,152.63L233.51,179.11L233.8,159.15L233.95,141.08L234.24,140.41L234.68,178.1L234.83,170.84L235.85,211.91L236,207.53L236.14,217.71L237.17,191.91L237.31,200.06L237.46,189.96L237.61,201.6L238.04,192.19L238.19,192.77L238.34,190.06L238.48,194.06L238.77,191.15L238.92,193.8L239.21,195.52L239.36,188.82L239.51,198.8L240.24,189.67L240.38,190.85L240.53,194.91L240.68,188.55L240.97,201.3L241.11,200.95L241.26,263.43L241.85,187.9L242.14,189.53L242.28,187.3L242.43,186.72L242.58,196.19L243.45,178.07L243.6,184.56L243.75,213.02L244.04,167.45L244.18,181.65L244.33,155.9L244.48,172.15L244.62,139.64L244.77,165.98L244.92,131.93L245.06,210.58L245.65,147.65L245.79,151.14L246.09,146.05L246.23,163.32L246.38,183.02L246.52,186.72L246.67,126.14L246.82,171.58L247.26,117.3L247.4,169.37L247.55,125.72L248.28,176.41L248.43,161.66L249.3,186.72L249.45,196.38L249.59,194.05L249.74,203.61L249.89,203.8L250.47,201L250.62,214.9L250.76,194.78L250.91,212.06L251.35,190.6L251.5,209.09L251.64,194.16L251.79,207.47L252.37,197.71L252.52,198.71L252.67,201.93L252.81,195.18L252.96,201.49L253.1,190.09L253.4,188.32L253.54,198.55L253.84,192.34L253.98,190.46L254.13,190.73L254.27,189.18L254.42,199.19L254.86,188.32L255.01,191.26L255.15,188.94L255.3,187L255.59,190.37L255.74,255.04L256.03,188.78L256.61,196.83L256.76,188.36L257.49,177.26L257.78,181.13L257.93,185.44L258.08,186.72L258.22,181.66L258.37,185.46L258.51,147.79L258.81,142.86L259.25,202.32L259.39,185.84L259.54,186.83L259.68,187.2L259.83,146.5L260.12,218.08L260.71,206.77L260.85,192.56L261,146.14L261.29,193.63L261.58,146.22L261.73,169.03L261.88,141.67L262.32,177.69L262.46,156.72L262.61,174.83L262.75,169.98L263.05,181.47L263.19,182.61L263.34,182.06L263.49,185.74L263.63,186.72L263.78,201.84L263.92,190.5L264.07,212.82L264.22,193.25L264.36,215.66L264.66,219.44L265.09,193.37L265.24,206.91L265.53,207.9L266.12,190.1L266.26,199.12L266.85,188.69L267.14,189.71L267.29,192.96L267.43,194.08L267.58,190.29L267.87,193.48L268.02,189.15L268.31,188.85L268.6,196.94L268.9,195.68L269.04,188.96L269.33,188.6L269.48,195.12L269.77,190.59L269.92,192.82L270.21,197.93L270.5,195.21L270.65,188.52L270.8,188.83L270.94,187.25L271.24,186.72L271.38,180.98L271.53,240.58L271.97,198.09L272.11,160.43L272.26,168.49L272.55,155.31L272.7,239.65L273.28,132.57L273.43,166.84L273.57,191.67L273.87,186.72L274.01,196.15L274.16,189.08L274.31,196.15L274.74,186.72L274.89,140.47L275.18,131.94L275.33,169.47L275.62,164.05L275.77,134.22L276.5,172.64L276.65,158.37L277.67,277.1L277.82,235.15L277.96,193.54L278.4,227.73L278.69,225.69L278.84,198.15L278.98,218.58L279.13,194.58L279.57,203.05L279.72,190.55L279.86,209.17L280.45,205.35L280.59,195.5L280.74,204.92L281.18,188.76L281.32,197.4L281.47,189.39L281.62,196.41L282.06,188.48L282.2,191.1L282.35,192.68L282.93,187.62L283.08,194.24L283.52,188.3L283.66,263.65L283.81,154.99L284.39,179.11L284.54,195.52L284.98,186.72L285.27,193.66L285.42,192.26L286,160.07L286.44,160.8L286.59,168.78L287.03,127.3L287.17,168.52L287.32,184.04L287.47,182.65L287.61,119.32L288.05,208.14L288.49,159.48L288.64,159.18L289.07,200.97L289.22,141.66L289.37,174.57L289.51,152.99L289.66,172.2L290.24,167.26L290.39,169.12L291.56,210.13L291.71,193.82L291.85,224.13L292.44,212.32L292.58,193.6L292.73,212.59L293.17,189.89L293.31,196.61L293.46,189.98L293.61,194.37L294.19,190.45L294.34,192.67L294.63,188.94L294.78,196.08L294.92,188.96L295.07,197.38L295.51,189.12L295.95,190.25L296.09,188.65L296.24,193.25L296.38,188.29L296.82,188.68L296.97,187.31L297.85,198.64L297.99,190.79L298.29,186.72L298.43,187.79L298.58,249.43L299.46,179.71L299.6,176.72L300.19,146.36L300.33,162.42L300.63,212.44L301.06,110.31L301.21,167.38L301.65,114.14L301.79,204.8L301.94,138.55L302.09,203.98L302.23,74.94L302.82,128.73L302.96,171.1L303.11,142.36L303.7,155.69L303.84,171.05L304.43,135.81L304.57,174.88L304.72,147.77L305.16,180.59L305.3,186.72L305.74,186.72L305.89,194.3L306.04,192.78L306.18,195.75L306.33,203.64L306.47,191.51L306.62,214.55L307.06,194.92L307.21,201.96L307.79,205.78L307.94,191.4L308.08,193.02L308.23,194.07L308.37,188.32L308.52,196.46L308.96,189.44L309.11,193.11L309.25,188.27L309.4,194.64L309.84,188.32L309.98,191.38L310.28,191.91L310.71,187.45L310.86,190.69L311.15,189.77L311.3,199.87L311.45,189.95L311.59,186.72L312.18,194.86L312.32,193.99L312.47,188.88L312.62,188.93L312.76,187.22L313.2,186.72L313.35,191.23L313.49,187.85L313.64,249.15L314.37,138.29L314.52,188.25L314.95,205.56L315.1,87.59L315.25,160.76L315.39,167.97L315.54,173.18L315.69,100.07L315.83,165.61L316.42,157.89L316.56,137.47L317.15,134.9L317.29,216.09L317.44,170.66L317.59,156.92L317.73,143.11L318.17,151.76L318.32,165.88L318.46,147.49L318.9,179.11L319.05,177.13L320.22,204.51L320.36,190.74L320.51,205.97L320.95,190.3L321.1,193.78L321.24,193.36L321.39,192.47L321.53,193.77L321.68,201.34L322.41,188.55L322.56,193.86L323,188L323.14,194.56L323.29,188.68L323.44,192.19L323.73,187.38L324.31,187.45L324.46,187.49L324.61,191.44L325.04,187.27L325.19,188.51L325.34,187.17L325.48,186.88L325.63,197.82L325.77,198.09L325.92,202.72L326.36,193.56L326.51,247.43L326.65,156.59L327.24,178.8L327.38,183.86L328.26,149.36L328.41,199.77L329.14,113.15L329.43,125.33L329.58,149.46L329.72,125.4L330.16,163.54L330.31,126.91L330.45,162.12L330.89,125.2L331.18,131.83L331.33,147.31L331.77,116.63L331.92,167.06L332.06,126.23L332.21,171.79L332.35,125.08L332.5,240.19L332.65,166.64L332.79,240.5L332.94,122.9L333.52,167.02L333.67,187.19L333.96,186.71L334.26,195.76L334.4,200.67L334.69,201.54L335.13,189.4L335.28,197.1L336.16,189.3L336.3,193.01L336.45,188.34L336.59,193.41L337.03,189.33L337.18,189.19L337.33,187.83L337.47,194.29L338.35,187.53L338.5,262.98L338.64,150.34L339.23,182.28L339.37,196.64L340.1,186.72L340.25,189.84L340.4,187.5L341.13,186.72L341.27,187.82L341.42,187L341.57,172.82L341.86,164.54L342.01,211.75L342.15,208.39L342.3,177.57L342.59,186.72L342.74,169.85L342.88,167.75L343.17,174.42L343.32,117.59L343.47,209.67L343.61,78.67L344.2,99.47L344.34,164.91L344.49,115.52L344.93,169.8L345.08,132.63L345.22,173.2L345.51,186.78L345.66,119.15L345.81,230.76L346.39,178.83L346.54,164.36L347.42,186.72L347.56,186.72L348.58,205.58L348.73,191.07L348.88,208.79L349.46,190.39L349.61,195.02L350.49,188.38L350.63,195.2L351.36,187.8L351.51,193.97L351.8,194.68L352.09,186.72L352.39,188.56L352.53,188.19L352.68,187.09L352.83,193.26L353.12,186.72L353.26,200.57L353.7,187.3L353.85,187.72L353.99,188.74L354.29,186.82L354.43,200.49L354.58,190.17L354.87,203.98L355.02,214.73L356.04,161.45L356.19,165.89L356.33,166.73L356.48,209.22L356.63,107.68L357.21,113.49L357.36,168.32L357.5,109.14L357.94,155.29L358.09,183.66L358.97,186.72L359.11,186.72L361.89,186.72L362.04,197.1L362.18,189.32L362.33,215.4L362.48,196.47L362.62,211.88L363.35,193.5L363.5,196.7L363.65,192.93L363.94,192.71L364.08,196.04L364.23,188.76L364.38,199.41L364.82,193.59L364.96,191.22L365.25,192.42L365.4,187.86L366.13,187.4L366.28,194.08L366.42,188.56L366.57,188.3L366.72,190.95L366.86,200.09L367.3,189.23L367.45,191.39L367.59,187.89L368.47,194.56L368.62,257.22L368.76,163.67L369.35,182.58L369.49,192.97L369.93,168.91L370.08,215.63L371.1,117.94L371.25,175.12L371.69,186.72L371.83,121.83L372.27,175.33L372.56,163.03L372.71,139L372.86,205.03L373.3,118.53L373.44,169.09L373.59,114.71L373.88,111.57L374.47,186.72L374.61,186.72L375.78,186.72L375.93,188.5L376.22,201.98L376.37,190.85L376.51,210.21L377.1,201.81L377.24,190.28L378.12,206.84L378.27,191.75L378.56,189.73L378.71,199.02L379,197.89L379.14,189.52L379.29,194.12L379.44,189.09L379.73,191.32L379.88,188.28L380.02,193.17L380.61,187.76L380.75,190.73L381.19,187.49L381.48,187.64L381.63,188.48L381.78,190.59L382.22,187.37L382.36,188.32L382.51,189.46L383.38,186.72L383.53,187.01L383.68,250.01L384.12,171.47L384.26,183.37L384.41,186.72L384.85,115.73L384.99,213.42L385.29,120.9L385.43,214.24L386.02,120.47L386.31,121.06L386.46,173.12L386.75,183L387.33,147.69L387.48,211.63L387.92,123.01L388.5,135.3L388.65,174.12L389.53,186.72L389.67,186.72L389.96,197L390.11,207.68L390.4,209.91L390.55,191.87L390.84,192.51L390.99,275.49L391.43,161.16L391.87,208.84L392.01,193.27L392.16,199.57L392.6,189.47L392.74,193.74L392.89,190.47L393.33,189.1L393.47,194.43L393.62,188.58L393.77,196.9L394.35,188.75L394.5,193.36L394.94,187.98L395.23,188.73L395.37,189.58L395.67,191.54L395.96,186.86L396.11,191.94L396.25,188.03L396.4,188.7L396.54,259.32L396.69,158.55L397.28,182.22L397.42,198.45L398.74,158.24L398.88,191.9L399.03,189.37L399.18,120.57L399.32,170.19L399.76,104.92L399.91,161.72L400.05,108.27L400.2,181.3L400.78,174.19L400.93,149.87L401.66,193.86L401.81,189.92L401.95,186.72L402.1,139.98L402.69,166.72L402.83,181.72L404.15,198.49L404.29,189.67L405.03,231.57L405.17,197.94L405.32,224.63L405.76,195.64L405.9,210.8L406.05,192.74L406.19,208.72L406.63,189.57L406.78,193.76L406.93,192.15L407.07,187.79L407.22,197.32L407.36,189.36L407.51,197.73L408.39,187.53L408.53,194.44L409.12,187.43L409.41,188.2L409.56,188.26L410.14,187.23L410.29,192.35L410.44,256.35L410.58,158.62L411.17,186.29L411.31,185.12L411.46,247.45L411.9,199.52L412.04,167.46L412.34,162.33L412.63,186.72L412.77,149.83L413.21,153.96L413.36,136.22L413.65,143.21L413.8,143.22L414.09,188.02L414.38,122.07L414.53,170.56L414.68,129.28L415.26,183.37L415.41,183.01L415.55,116.84L415.85,113.32L415.99,167.28L416.28,165.8L416.43,117.52L416.58,228.11L417.16,175.84L417.31,170.51L418.33,263.44L418.62,258.47L418.77,182.25L418.92,218.06L419.5,200.72L419.65,190.22L419.79,198.72L420.38,195.01L420.52,194.11L421.11,190.62L421.26,196.11L421.4,188.92L421.55,199.06L421.99,189.77L422.13,197.14L422.86,188.84L423.01,190.95L423.3,188.89L423.45,192.86L423.59,188.19L424.03,188.02L424.18,195.1L424.33,188.82L424.47,190.05L424.62,272.64L424.76,153.19L425.35,213.25L425.5,226.35L426.08,155.24L426.37,172.43L426.52,183.15L426.81,158.24L426.96,201.06L427.84,127.11L427.98,220.32L428.42,118.08L428.86,158.06L429.01,114.48L429.74,248.82L429.88,154.69L430.03,228.79L430.61,186.72L430.76,161.34L431.78,212.81L431.93,193.25L432.08,214.2L432.51,192.17L432.66,210.24L432.81,192.53L433.25,219.55L433.54,203.68L433.68,196.95L433.83,203.05L434.42,200.45L434.56,202.16L434.85,205.47L435,193.71" style="vector-effect: non-scaling-stroke; fill: none; stroke: rgb(0, 191, 255); stroke-opacity: 1; stroke-width: 2px; opacity: 1;"/></g><g class="points"/><g class="text"/></g><g class="trace scatter tracea48680" style="stroke-miterlimit: 2; opacity: 1;"><g class="fills"/><g class="errorbars"/><g class="lines"><path class="js-line" d="M0,186.94L3.22,186.77L3.36,186.03L4.09,159.37L4.24,146.98L6.29,16.44L6.43,16.51L6.58,16.46L9.36,16.96L9.5,19.64L12.28,186.96L12.43,186.95L17.25,186.77L17.4,186.13L17.98,170.94L18.13,159.78L20.18,16.25L20.47,16.31L20.62,16.27L22.96,16.58L23.1,16.57L23.39,16.79L23.54,19.03L25.3,166.69L25.44,177.77L26.17,186.96L26.32,186.95L26.47,186.95L31.29,186.76L31.44,185.88L32.31,145.8L32.46,132.9L34.07,16.23L34.51,16.29L34.65,16.27L36.41,16.48L36.55,16.44L37.43,16.57L37.58,18.72L40.21,186.96L40.36,186.95L40.5,186.94L45.33,186.81L45.47,186.01L46.21,157.53L46.35,146.32L48.25,16.02L48.54,16.13L48.69,16.15L50.01,16.36L50.15,16.34L51.47,16.75L51.62,20.65L54.25,186.98L54.39,186.97L59.36,186.84L59.51,186.13L60.39,147.91L60.53,136.44L62.14,16L62.58,16.08L62.73,16.17L63.9,16.4L64.04,16.43L65.51,17.18L65.65,22.04L68.28,186.95L68.43,186.95L73.55,186.22L73.69,183.37L74.43,147.21L74.57,134.89L76.18,16.31L76.62,16.42L76.76,16.38L78.96,16.82L79.1,16.72L79.54,17.3L79.69,22.63L82.32,186.96L82.47,186.95L87.58,186.48L87.73,185.28L88.32,162.22L88.46,148.71L90.22,16.33L90.66,16.5L90.8,16.45L92.26,16.86L92.41,16.9L93.43,16.9L93.58,17.92L94.6,92.11L94.75,105.69L96.36,186.95L96.5,186.95L101.62,186.32L101.77,184.45L102.5,149.26L102.65,136.53L104.4,16.43L104.69,16.57L104.84,16.6L106.45,16.81L106.59,16.95L107.47,16.92L107.62,17.71L108.79,106.18L108.93,119.32L110.39,186.96L110.54,186.96L115.66,186.38L115.81,184.38L116.54,149.22L116.68,136.19L118.29,16.27L118.73,16.47L118.88,16.35L119.9,16.47L120.05,16.57L121.51,16.93L121.65,18.22L122.82,106.07L122.97,119.47L124.43,186.96L124.58,186.96L129.7,186.52L129.84,185.59L130.43,163.49L130.57,149.67L132.47,16.22L132.77,16.28L132.91,16.29L135.54,16.74L135.69,18.28L136.86,106.1L137.01,119.87L138.32,186.96L138.47,186.96L143.73,186.49L143.88,185.18L144.46,164.15L144.61,150.85L146.66,16.43L146.8,16.51L146.95,16.57L149.44,16.71L149.58,16.96L150.02,37.38L150.17,46.97L152.51,186.95L152.65,186.95L157.77,186.37L157.92,184.35L158.65,152.12L158.79,139.73L160.55,16.41L160.84,16.55L160.99,16.62L163.62,17.11L163.76,19.99L166.54,186.95L166.69,186.94L171.81,186.46L171.95,185.03L172.68,153.2L172.83,141.19L174.73,16.46L175.02,16.51L175.17,16.6L177.51,17.12L177.66,18.55L178.97,113.27L179.12,126.91L180.58,186.95L180.73,186.95L185.84,186.68L185.99,185.61L186.72,155.22L186.87,143.66L188.91,16.59L189.06,16.62L189.21,16.54L189.94,16.68L190.08,18.28L190.96,54.08L191.11,41.76L191.25,33.36L191.55,35.3L191.69,18.17L191.98,18.4L192.13,34.28L193.3,142.21L193.45,152.38L194.62,186.95L194.76,186.95L199.88,186.69L200.03,185.93L200.9,144.06L201.05,132.22L202.81,16.56L203.1,16.57L203.24,16.7L205.58,16.95L205.73,20.65L207.05,114.27L207.19,126.95L208.51,186.95L208.65,186.95L213.92,186.63L214.06,185.54L214.79,156.17L214.94,144.68L216.84,16.41L217.28,16.42L217.43,16.46L219.62,17.01L219.77,20.05L222.69,186.96L222.84,186.96L227.95,186.47L228.1,184.33L228.98,140.37L229.12,127.71L230.88,16.29L231.03,16.38L231.17,16.4L231.76,16.53L231.9,17.67L232.19,16.56L232.49,26.42L232.63,17.31L232.78,23.57L233.07,17.49L233.22,27.77L233.36,48.13L233.51,75.3L233.95,25.56L234.1,41.68L234.24,42.22L234.39,45.92L236.14,184.99L236.29,186.83L237.61,186.94L237.75,186.94L241.99,186.79L242.14,186.13L242.87,156.95L243.02,145.35L245.06,16.55L245.21,16.56L245.35,16.65L246.52,16.88L246.67,16.82L247.69,17.07L247.84,19.15L249.16,115.81L249.3,128.59L250.62,186.94L250.76,186.94L256.03,186.66L256.17,186.04L256.76,169.05L256.91,157.12L258.95,16.3L259.25,16.44L259.39,16.51L261.73,17.04L261.88,19.53L264.95,186.95L265.09,186.95L270.21,186.6L270.36,185.71L271.97,88.81L272.11,74.8L272.7,75.79L273.14,44.58L273.28,36.4L273.43,56.24L273.57,186.72L274.6,186.72L274.74,165.91L275.33,16.62L275.62,16.73L275.77,17.07L276.35,44.31L276.5,56.41L278.84,186.96L278.98,186.95L284.1,186.63L284.25,184.88L285.86,102.45L286,75.67L287.32,16.66L287.47,16.77L288.78,17.07L288.93,17.01L289.81,17.06L289.95,18.5L291.12,103.61L291.27,124.49L292.58,186.95L292.73,186.95L298.14,186.83L298.29,185.72L299.6,118.49L299.75,107.38L301.06,20.7L301.21,23.78L301.36,24.8L301.5,19.01L301.94,16.69L302.38,16.83L302.53,17.43L302.82,33.69L303.11,18.57L303.26,20.11L303.7,17.94L304.28,37.8L304.43,41L305.89,165.21L306.04,174.35L306.91,186.95L307.06,186.95L312.18,186.84L312.32,186.01L313.05,148.65L313.35,156.37L313.49,158.15L315.1,16.25L315.69,19.32L315.83,41.46L315.98,41.5L316.12,18.31L316.27,31.19L316.42,16.39L316.71,16.51L316.86,16.42L317.88,17.54L318.03,23.21L320.51,186.9L320.66,186.95L326.21,186.77L326.36,185.72L327.53,125.3L327.68,113.51L329.28,16.31L329.43,16.34L329.58,16.36L331.77,17.2L331.92,22.55L335.13,186.95L335.28,186.94L340.4,186.38L340.54,184.19L341.27,167.76L341.42,134.97L342.01,76.85L342.15,111.59L342.3,123.6L342.59,114.39L342.74,86.06L343.76,16.6L343.91,16.64L344.05,16.68L345.08,16.79L345.22,17.83L345.95,46.14L346.1,19.27L346.68,114.11L347.27,108.96L347.42,114.28L348.88,186.95L349.02,186.95L354.29,186.78L354.43,186.04L355.31,149.49L355.46,138.42L357.5,16.53L357.65,16.57L359.99,17.41L360.14,21.94L361.89,155.54L362.04,166.34L363.06,186.95L363.21,186.94L368.32,186.81L368.47,185.89L369.64,148.01L369.79,148.5L369.93,97.4L370.81,44.91L370.96,70.91L371.54,20.43L371.83,22.84L371.98,21.13L372.13,45.33L372.56,16.67L372.71,16.77L373.88,17.07L374.03,19.66L375.64,134.29L375.78,146.66L376.95,186.95L377.1,186.95L382.51,186.38L382.65,184.16L383.97,125.9L384.12,114.25L384.26,129.62L384.55,95.58L384.7,75.69L384.85,19.25L385.58,22.34L385.72,39.27L385.87,48.39L386.02,23.23L386.16,18.98L386.31,23.76L386.46,64.88L386.75,112.32L387.04,22.7L387.19,23.1L387.33,21.99L387.48,27.42L387.63,38.99L387.77,17.21L388.21,26.94L388.36,34.36L390.84,186.95L390.99,186.95L396.54,186.55L396.69,185.74L397.57,159.11L397.71,150.52L399.03,17.8L399.18,23.12L399.32,43.81L399.76,16.5L399.91,16.51L400.05,16.93L400.2,19.78L400.49,16.65L401.08,16.8L401.22,16.95L401.81,16.95L401.95,18.1L402.98,77.2L403.12,88.66L405.03,186.96L405.17,186.95L410.58,186.3L410.73,183.59L411.31,163.71L411.46,147.2L412.19,82L412.48,108.29L412.63,122.71L413.65,16.36L413.8,16.39L415.26,16.59L415.41,17.27L415.55,21.39L415.7,16.59L416.14,16.72L416.28,18.15L419.06,186.95L419.21,186.95L424.62,186.43L424.76,184.33L425.79,135.6L425.93,121.23L427.1,34.43L427.25,32.64L427.69,62.98L427.98,47.81L428.13,39.35L428.27,60.76L428.57,22.87L428.71,31.21L428.86,23.9L429.01,16.36L429.74,16.51L429.88,16.5L430.03,17.96L430.17,33.46L431.34,142.46L431.49,152.74L432.66,186.81L432.81,186.96L435,186.94" style="vector-effect: non-scaling-stroke; fill: none; stroke: rgb(255, 0, 0); stroke-opacity: 1; stroke-width: 2px; opacity: 1;"/></g><g class="points"/><g class="text"/></g><g class="trace scatter trace41e8d0" style="stroke-miterlimit: 2; opacity: 1;"><g class="fills"/><g class="errorbars"/><g class="lines"><path class="js-line" d="M0,220.99L0.88,214.67L1.02,217.72L1.9,212.02L2.05,214.32L2.19,212.72L2.78,214.36L2.92,213.12L3.22,214.69L3.36,213.3L3.51,210.5L3.66,277.83L4.09,207.27L4.24,198.18L4.39,195.99L4.53,175.78L4.68,180.64L4.83,168.23L4.97,165.56L5.12,170.82L5.26,155.66L5.41,161.01L5.56,144.13L5.85,142.64L6.14,207.52L6.29,190.17L6.43,116.33L6.87,263.37L7.16,259.01L7.31,104.15L7.75,260.59L8.04,225.47L8.19,168.39L8.63,128.46L8.92,140.84L9.07,151.22L9.65,141.78L9.8,157.72L9.94,153.07L10.24,159.22L10.38,172.7L10.53,169.32L10.67,195.26L11.7,238.95L11.84,221.22L11.99,229.54L12.43,216.19L12.57,222.16L12.72,215.99L13.16,223.92L13.45,217.74L13.6,219.45L14.04,215.3L14.18,220.18L14.33,215.82L14.48,218.34L14.91,218.99L15.5,213.72L15.65,214.12L15.79,215.41L15.94,213.74L16.38,214.87L16.52,213.47L16.82,212.35L16.96,213.89L17.11,214.6L17.25,284.31L17.4,159.82L17.98,201.32L18.13,206.01L18.28,259.74L18.72,169.96L18.86,169.06L19.3,155.69L19.45,162.24L19.59,227.67L20.03,125.13L20.62,136.92L20.76,147.54L20.91,133.27L21.06,151.88L21.49,133.62L21.64,156.36L22.08,134.85L22.37,135.14L22.52,148.58L23.39,86.55L23.54,94.41L23.69,103.24L26.03,226.6L26.17,216.85L26.32,223.83L26.47,215.78L26.9,220.09L27.05,215.47L27.2,215.72L27.34,214.89L27.49,214.52L27.64,214.97L27.78,219.13L28.66,212.45L28.81,213.95L29.24,214.21L29.68,210.76L29.83,214.26L29.97,214.34L30.12,211.75L30.85,211.53L31,213.23L31.14,210.35L31.29,212.91L31.58,208.36L31.73,204.7L32.02,208.8L32.17,202.68L32.31,175.72L32.46,181.08L32.61,166.56L32.75,169.04L32.9,154.01L33.05,158.45L33.19,139.79L33.34,151.42L33.48,98.76L33.78,65.71L34.22,80.74L34.36,97.89L34.51,102.96L34.95,93.44L35.09,100.18L35.24,93.85L35.38,88.65L35.53,159.68L35.68,175.28L35.82,109.93L36.41,89.41L36.55,100.47L36.7,109.54L37.58,77.13L37.72,80.34L37.87,101.11L38.02,99.38L38.16,119.12L38.31,124.64L38.46,213.52L38.75,241.79L38.89,160.69L39.63,223.12L39.77,219.79L39.92,222.68L40.94,214.97L41.09,216.71L41.82,216.9L42.26,212.32L42.4,213.83L42.7,211.39L43.13,213.63L43.28,285.14L43.43,160.21L44.01,192.5L44.16,212.52L44.3,207.77L44.45,280.28L44.74,283.85L44.89,160.07L45.33,236.47L45.47,196.1L45.62,218.59L46.21,197.96L46.35,186.37L46.5,183.52L46.64,237.49L47.23,141.12L47.37,239.46L48.4,93.2L48.54,229.96L49.28,106.7L49.42,166.26L50.3,74.77L50.45,89.69L50.59,88.01L50.74,91.89L50.88,89.75L51.03,96.1L51.18,93.94L51.32,94.6L51.47,80.95L51.62,76.22L51.76,88.05L51.91,101.16L53.95,236.47L54.1,233.48L54.25,235.07L54.39,230.91L54.54,223.06L54.83,213.62L55.27,214.95L55.42,218.01L56.15,214.14L56.29,215.98L56.44,214.73L57.03,215.35L57.17,212.36L57.32,213.67L57.46,214L57.61,214.19L57.9,213.56L58.05,211.64L58.19,221.88L58.78,212.07L58.93,212.16L59.07,213.72L59.51,210.68L59.66,207.33L59.95,213.7L60.68,184.31L60.83,189.47L60.97,249.23L62,131.97L62.14,217.73L62.44,137.96L63.02,143.4L63.17,146.16L63.61,76.23L64.04,88.41L64.19,95.18L64.34,99.69L64.48,92.61L64.77,95.21L64.92,165.66L65.36,188.68L65.51,91.81L65.65,93.57L65.8,88.73L65.94,108.99L66.68,165.31L66.82,176.53L68.28,227.46L68.43,216.19L68.58,218.85L69.02,215.07L69.16,217.26L69.31,213.84L69.45,213.67L69.6,214.67L69.75,213.86L69.89,214.78L70.04,218.02L70.62,213.92L70.77,213.97L70.92,214.99L71.21,214.36L71.35,210.19L71.94,214.26L72.23,213.54L72.38,211.38L72.67,287.93L72.82,241.64L72.96,202.99L73.26,213.7L73.69,211.89L73.84,205.49L74.43,184.19L74.57,177.85L74.72,247.72L75.3,211.93L75.45,206.31L75.74,116.05L76.03,125.46L76.18,159.93L76.62,110.69L76.76,160.92L76.91,119.93L77.06,158.35L77.35,200.39L77.5,185.55L77.64,107.06L78.08,85.55L78.52,90L78.67,82.27L81.01,182.5L81.15,205.03L81.3,206.06L81.44,216.45L81.74,228.3L82.03,224.72L82.17,216.97L82.32,225.87L82.76,215.73L82.91,219.05L83.05,214.9L83.49,214.11L83.78,218.94L83.93,213.93L84.08,213.77L84.22,214.51L84.37,216.34L84.66,211.68L85.1,213.81L85.25,214.39L85.39,216.8L85.68,210.72L85.83,212.37L85.98,285.12L86.27,210.14L86.85,215.32L87,211.19L87.44,213.39L87.58,222.34L88.61,177.82L88.75,183.05L88.9,243.05L90.07,113.71L90.22,145.97L90.51,159.99L91.09,109.4L91.24,180.05L91.39,209.22L91.68,119.84L91.83,116.25L92.56,91.8L92.7,93.13L92.85,93.76L92.99,94.5L93.14,113.95L93.43,130.97L93.73,129.14L93.87,142.54L95.63,226.25L95.77,220.67L95.92,300.21L96.8,216.61L96.94,218.44L97.24,222.27L97.67,214.85L97.82,215.28L97.97,214.54L98.11,217.31L98.41,211.68L98.7,214.58L98.84,214.02L99.14,213.93L99.43,216.02L99.57,213.69L99.87,214.33L100.01,214.8L100.45,224.45L100.6,216.71L100.74,213.64L100.89,211.53L101.33,214.22L101.48,212.77L101.62,223.15L103.08,152.92L103.23,180.27L103.38,144.8L103.82,162.49L103.96,210.85L104.4,109.57L104.69,174.65L104.84,184.26L104.98,109.7L105.72,112.2L105.86,106.1L106.01,115.56L106.3,96.88L106.45,94.34L106.59,90.56L106.74,102.46L106.89,97.93L107.03,105.06L107.18,110.92L107.47,107.54L107.62,98.37L108.79,240.71L108.93,163.87L109.66,233.99L109.81,229.79L109.96,233.87L111.13,216.26L111.27,218.8L111.56,219.95L112,214.54L112.15,216.22L112.44,214.06L112.88,214.62L113.03,216.91L113.9,211.38L114.05,214.72L114.34,210L114.49,213.57L114.64,293.47L114.78,163.31L115.22,221.58L115.37,200.33L115.66,212.42L116.1,202.56L116.24,198.56L116.39,200.4L116.54,184.1L116.83,175.4L116.97,190.83L117.12,179.68L117.27,181.02L118,148.38L118.14,155.92L118.29,148.49L118.88,139.34L119.02,215.94L119.17,181.93L119.31,107.4L119.61,104.62L119.75,172.76L119.9,111.79L120.05,100.87L120.19,100.61L120.34,112.29L120.63,123.08L120.92,108.54L121.07,110.1L121.22,115.01L122.09,147.05L122.24,222.33L122.38,223.18L122.53,232.08L122.68,170.58L123.26,206.17L123.41,214.98L123.85,230.28L124.29,224.78L124.43,224.39L125.02,215.6L125.31,215.99L125.46,222.44L126.04,215.76L126.33,216.25L126.48,216.8L127.21,214.23L127.36,215.88L127.5,213.67L127.65,230.75L127.94,235.24L128.38,205.88L128.53,208.79L128.67,213.44L128.82,211.84L128.96,285.37L129.11,162.41L129.7,190.03L129.84,214.94L129.99,206.82L130.13,277.55L131.16,145.18L131.3,182.11L132.04,121.59L132.18,158.96L132.33,112.64L132.62,194.55L132.77,179.74L132.91,185.26L133.06,110.09L133.64,122.92L133.79,152.67L133.94,125.35L134.08,158.62L134.52,144.81L134.67,183.56L134.96,203.81L135.11,196.17L135.25,116.64L135.54,93.75L135.98,112.49L136.13,118.71L137.3,219.93L137.45,208.45L137.59,218.89L137.74,220.03L137.88,234.83L138.03,225.04L138.18,236.75L138.62,230.95L138.76,230.24L139.05,234.1L139.64,217.36L139.78,221.22L140.66,214.54L140.81,216.82L141.39,217.42L141.69,211.81L141.83,214.46L141.98,213.52L142.27,216.13L142.42,286.58L142.56,162.59L143.15,196.31L143.29,209.59L143.73,213.53L143.88,210.51L144.03,206.76L144.17,211.71L144.46,198.46L144.61,187L144.76,195.05L144.9,176.88L145.19,180.92L145.34,181.09L145.93,135.75L146.07,237.43L146.22,94.23L146.8,118.39L146.95,181.51L147.1,127.18L147.24,242.87L147.68,137.56L147.83,152.07L148.27,115.85L148.41,239.28L148.7,220L148.85,182.4L149,205.12L149.14,137.25L149.29,173.69L149.44,133.81L149.73,121.08L150.02,136.87L150.17,133.47L150.31,143.56L150.46,142.24L150.61,150.31L151.92,230.69L152.07,224.66L152.21,225.59L152.36,236.49L152.8,221.98L152.94,229.48L153.09,228.1L153.38,231.76L154.11,214.56L154.26,215.48L154.41,214.59L154.7,214.72L154.85,218.2L155.14,212.31L155.72,213.58L155.87,211.02L156.89,223.67L157.04,215.73L157.18,222.2L157.62,208.66L157.77,209.14L157.92,207.65L158.06,280.29L158.94,178.17L159.09,179.44L159.23,162.25L159.52,147.59L159.67,172.76L159.82,138.89L160.11,134.1L160.26,201.79L160.4,164.45L160.55,110.15L160.99,147.28L161.13,123.91L161.28,89.08L161.72,79.89L161.86,93.06L162.01,97.44L162.16,97.96L162.3,195.29L162.45,211.06L162.59,133.51L162.74,178.84L163.18,108.67L163.33,95.97L165.67,228.93L165.81,213.45L165.96,230.5L166.54,223.09L166.69,219.62L167.27,220.59L167.42,215.19L167.57,217.82L167.86,219.69L168.44,213.25L168.59,213.97L168.74,213.8L168.88,214.51L169.03,216.49L169.17,213.27L169.76,213.62L169.91,213.96L170.34,212.84L170.49,210.55L170.64,224.43L171.22,212.67L171.37,211.66L171.51,211.57L171.66,284.8L172.1,169.98L172.68,191.3L172.83,185.72L174.44,139.42L174.58,127.81L174.73,143.8L174.88,127.02L175.02,131.75L175.17,79.54L175.32,80L175.46,89.23L176.19,213.56L176.49,191.3L176.63,117.7L177.07,111.88L177.36,116.32L177.51,119.55L177.8,108.25L178.09,125.01L178.24,135.13L179.99,248.3L180.14,228.44L180.29,249.41L180.73,222.05L180.87,244.92L181.02,213.42L181.16,234.02L181.75,226.74L181.9,225.51L182.04,211.5L182.77,212.56L182.92,214.11L183.21,214.65L183.5,214.5L183.65,216.82L183.8,214.2L183.94,215.49L184.09,224.08L184.38,224.63L184.53,206.09L184.82,216.94L184.97,222.99L185.11,222.06L185.26,206.89L185.55,213.49L185.99,210.54L186.14,208.7L186.28,277.73L186.43,156.87L186.87,214.75L187.01,178.29L187.6,237.62L187.74,198.01L187.89,140.72L188.04,237.27L188.62,148.15L188.77,159.02L188.91,141.52L189.21,197.34L189.35,173.71L189.5,184.2L189.65,120.7L190.23,133.83L190.38,181.35L190.52,133.19L191.11,155.91L191.25,172.13L191.98,97.51L192.13,108.08L192.28,137.34L192.57,160.72L192.72,175.72L194.03,244.23L194.18,221.37L194.62,242.11L194.76,219.74L194.91,236.04L195.06,211.12L195.2,222.87L195.79,219.98L195.93,215.08L196.66,219.93L196.81,214.74L197.1,214.43L197.54,218.58L197.69,215.15L197.98,213.89L198.27,216.7L198.42,214.16L198.71,211.65L198.86,214.29L199,213.97L199.15,223.34L199.88,213.23L200.03,213.35L200.17,218.85L201.2,188.62L201.34,253.89L201.93,147.89L202.22,206.07L202.37,187.03L202.51,200.82L202.66,187.18L202.81,120.36L203.39,118.66L203.54,178.45L203.68,131.56L204.12,179.34L204.41,168.65L204.56,149.3L204.71,163.49L204.85,142.08L205,163.41L205.14,119.38L205.29,108.04L205.44,120.43L205.73,111.57L205.88,128.58L206.61,164.77L206.75,175.72L208.07,229.35L208.22,224.55L208.36,233.73L208.95,223.35L209.09,233.18L209.24,219.09L209.38,232.53L209.82,215.74L209.97,220.85L210.12,215.96L210.26,222.88L210.41,215.09L210.85,220.21L210.99,215.14L211.29,214.78L211.87,218.74L212.02,215.79L212.16,216.38L212.46,214.44L212.6,212.55L213.19,224.43L213.33,220.43L213.48,292.51L213.63,156.51L214.21,164.48L214.36,240.75L214.65,258.52L214.94,250.73L215.09,160.56L215.23,207.38L215.82,178.86L215.96,152.64L216.11,158.53L216.26,139.97L216.4,147.66L216.55,130.83L216.7,140.91L216.99,139.37L217.13,221L217.72,132.61L218.01,149.92L218.16,165.49L218.45,216.44L218.6,148.28L218.74,166.77L218.89,144.9L219.77,174.71L219.91,170.45L220.5,197.19L220.64,282.65L220.94,284.02L221.08,150.72L221.37,169.81L221.52,240.04L221.67,189.11L222.25,219.33L222.4,235.71L222.54,219.83L223.13,224.93L223.28,228.32L223.71,215.64L224.01,215.88L224.15,218.6L224.45,221.42L224.88,215.84L225.03,221.13L225.76,212.57L225.91,215.12L226.05,217.38L226.2,214.53L226.35,217.13L226.49,225.25L226.64,212.37L227.22,216.34L227.37,224.88L227.95,206.57L228.54,208.84L228.69,294.71L228.83,163.25L229.42,237.18L229.56,213.46L230.29,132.25L230.44,168.75L230.73,168.9L230.88,117.67L231.17,132.28L231.32,157.33L231.46,126.65L231.61,162.32L231.9,161.88L232.05,218.14L232.34,137.27L232.93,151.89L233.07,152.66L233.66,170.91L233.95,159.58L234.1,147.77L234.83,184.75L234.97,178.38L235.12,196.73L236.29,244.34L236.44,225.67L236.58,240.4L237.02,216.08L237.17,227.92L237.31,217.6L237.46,223.12L237.9,216.26L238.04,222.78L238.19,217.83L238.48,217.41L238.63,220.64L239.07,220.42L239.21,216.53L239.51,215.46L239.94,220.79L240.09,215.77L240.53,217.68L240.68,215.72L240.82,225.62L240.97,231.86L241.11,290.48L241.41,208.91L241.99,214.36L242.14,215.36L242.43,221.01L243.45,184.8L243.6,248.88L244.77,129.22L244.92,235.05L245.5,144.32L245.79,150L245.94,151.52L246.09,154.63L246.23,208.59L246.52,128.63L246.82,129.86L246.96,171.65L247.11,127.73L247.26,180.54L247.69,132.28L247.84,173.9L247.99,142.49L248.13,188.37L248.57,175.42L248.72,186.32L250.47,239.33L250.62,227.41L250.76,239.78L250.91,211L251.35,236.27L251.5,219.38L251.64,236.01L252.23,230.28L252.37,225.86L252.52,225.04L252.67,225.86L252.81,227.66L252.96,212.14L253.54,215.68L253.69,217.72L253.84,215.26L253.98,219.36L254.13,216.57L254.27,227.35L254.71,211.97L255.15,217.61L255.3,214.86L255.44,214.67L255.59,287.47L255.88,211.11L256.47,218.06L256.61,218.28L257.34,183.81L257.78,185.49L257.93,203.49L258.95,140.98L259.1,235.09L259.68,139.56L259.83,176.59L259.98,229.81L260.12,219.85L260.27,155.33L260.56,224.8L260.71,206.78L260.85,144.88L261.29,213.38L261.58,175.44L261.73,143.92L262.17,177.05L262.46,169.85L262.61,157.83L263.63,214.89L263.78,216.09L264.51,243.23L264.66,221.12L265.09,237.51L265.24,219.35L265.39,234.3L265.53,220.43L265.68,229.33L265.83,217.35L266.12,220.1L266.26,218.28L266.41,224.81L266.56,216.81L266.85,220.48L266.99,216.37L267.14,223.74L267.29,215.95L267.73,217.69L267.87,220.4L268.16,216.52L268.31,220.93L269.19,214.97L269.33,218.23L269.48,215.03L269.77,215.25L269.92,227.79L271.24,192.92L271.38,257.5L271.67,271.38L272.41,159.78L272.55,238.64L273.14,141.65L273.43,156.67L273.57,207.48L274.16,222.92L274.31,205.57L274.89,165.2L275.04,137.43L275.48,168.63L275.62,132.01L275.77,165.18L275.91,135.68L276.94,207.78L277.08,213.5L277.38,229.7L277.52,296.76L277.82,213.58L278.4,224.21L278.55,251.1L278.84,251.73L279.28,220.1L279.42,237.13L279.57,211.99L279.72,238.35L280.15,219.22L280.3,235.4L281.03,217.6L281.18,220.88L281.32,215.72L281.47,220.81L281.91,215.13L282.06,219.19L282.2,215.33L282.35,218.74L282.93,216.85L283.08,214.93L283.23,216.05L283.37,214.49L283.52,286.89L283.66,161.19L284.25,191.14L284.39,216.26L284.69,199.73L284.98,220.72L285.13,224.59L285.56,201.16L285.71,206.75L285.86,173.2L286,174.27L286.15,166.92L286.3,172.31L286.59,158.76L286.73,165.92L286.88,136.79L287.17,189.25L287.47,113.75L287.61,165.06L287.76,129.09L287.9,233.49L288.64,231.69L288.78,197.46L288.93,230.77L289.07,145.87L289.22,189.55L289.37,161.31L289.51,177.36L289.95,153.12L290.1,167.29L290.24,167.41L291.12,212.37L291.27,223.47L291.71,236.01L291.85,223.89L292.44,219.97L292.58,239.24L292.73,219.72L292.88,232.78L293.31,216.09L293.46,223.21L293.61,216.43L293.75,221.36L294.34,217.38L294.48,218.88L295.36,215.22L295.51,219.71L295.65,215.39L296.24,215.6L296.38,216.16L296.68,216.72L297.26,213.81L297.41,224.67L298.29,212.67L298.43,283.8L299.16,188.26L299.31,190.95L299.46,183.72L300.33,144.46L300.48,232.14L301.5,111.82L301.65,237.13L302.09,90.89L302.38,101.55L302.53,196.34L302.67,115.57L303.26,151.08L303.4,166.24L303.55,165.05L303.7,167.05L303.84,157.68L303.99,160.57L304.13,158.38L304.28,142.56L305.3,192.53L305.45,199.85L306.47,239.32L306.62,221.05L306.77,238.63L306.91,219.55L307.35,229.88L307.5,223.37L307.64,229.15L307.79,219.36L307.94,221.06L308.08,215.94L308.81,215.53L308.96,221.12L309.11,215.5L309.69,214.86L309.84,218.75L309.98,214.42L310.42,216.62L310.57,214.01L310.86,224.65L311.15,222.61L311.3,217.06L311.88,211.74L312.03,223.64L313.05,194.45L313.2,214.88L313.35,214.44L313.49,286.04L313.64,147.55L314.22,152.25L314.37,216.76L314.81,226.56L314.95,138.67L315.1,178.99L315.25,172.61L315.39,171.97L315.54,95.22L315.69,169.25L316.27,163.64L316.42,144.27L316.86,162.97L317,130.06L317.15,232.75L317.59,144.05L318.03,154.52L318.17,155.11L318.32,145.08L318.46,164.62L318.61,149.29L318.76,191.23L318.9,181.03L319.19,189.59L319.34,203.78L320.07,229.4L320.36,227.04L320.51,217.21L320.95,226.58L321.1,216.03L321.24,221.39L321.39,219.66L321.83,225.76L321.97,215.84L322.12,220.25L322.56,215.26L322.7,220.17L322.85,214.7L323.29,214.09L323.58,218.52L323.73,215.19L323.87,214.85L324.02,216.92L324.75,212.24L324.9,213.86L325.04,214.25L325.34,212.69L325.48,223.94L325.77,227.13L325.92,225.2L326.07,219.08L326.21,221.21L326.36,281.35L326.51,162.08L327.09,193.55L327.24,197.51L328.11,150.74L328.26,232.97L328.99,111.54L329.28,122.6L329.43,143.75L329.72,150.7L329.87,127.3L330.02,166.52L330.16,121.06L330.75,124.87L330.89,154.74L331.62,119.94L331.77,165.69L331.92,120.6L332.06,171.35L332.21,142.62L332.35,254.28L332.79,121.73L333.09,143.68L333.23,213.97L333.38,165.09L333.96,209.12L334.11,216.57L334.84,227.62L334.99,218.92L335.13,223.36L335.57,215.84L335.72,221.54L335.86,216.79L336.16,220.03L336.3,215.87L336.45,219.65L336.59,215.35L336.74,219.78L336.89,215.1L337.33,216.47L337.47,214.69L337.62,211.31L337.91,215.37L338.2,213.88L338.35,286.76L338.5,160.75L339.08,189.17L339.23,218.54L339.37,203.64L339.96,212.17L340.1,213.18L340.4,214.38L340.54,210.02L340.84,204.94L341.13,205.92L341.27,219.89L341.86,248.34L342.15,168.36L342.3,196.57L342.88,163.2L343.03,164.53L343.17,144.53L343.32,228.14L343.47,83.8L343.91,180.49L344.05,104.28L344.78,171.02L344.93,138.81L345.66,242.91L345.81,153.79L346.1,142.96L346.68,195.69L346.83,171.08L346.98,167.75L347.12,191.15L347.27,182.46L347.56,199.39L347.71,214.28L347.85,207.32L348.15,223.3L348.29,219.13L348.44,228.25L348.73,229.91L349.17,216.71L349.32,222.9L349.46,221.13L349.75,221.94L350.19,216.78L350.34,220.33L350.92,215.01L351.07,218.37L351.22,217.24L352.09,214.46L352.24,214.72L352.53,213.82L352.68,215.43L352.83,214.42L352.97,213.54L353.12,222.69L353.26,206.76L353.7,213.75L353.85,214.01L354.14,214.82L354.29,222.54L354.43,215.93L354.58,228.94L354.73,228.26L354.87,234.24L355.9,162.05L356.19,168.13L356.33,238.13L357.07,128.05L357.21,170.1L357.65,111.35L358.09,121.01L358.24,104.09L358.53,202.73L358.97,119.79L359.11,111.71L359.7,125.93L359.84,120.8L359.99,111.81L360.28,111.71L360.43,120.14L362.48,242.2L362.62,223L362.77,239.64L363.35,221.7L363.5,218.45L363.65,223.23L364.23,220.38L364.38,215.86L364.82,221.5L365.11,218.09L365.25,218.44L365.55,215.44L365.69,220.24L365.98,217.13L366.13,216.85L366.42,218.72L366.57,214.46L366.72,226.4L367.15,208.09L367.74,214.3L367.89,213.64L368.32,220.53L368.47,288.44L368.62,166.86L369.2,197.24L369.35,217.12L369.79,206.84L369.93,251.2L370.66,132.3L370.96,152.36L371.1,173.53L371.25,221.65L371.54,182.93L371.69,118.12L372.13,176.54L372.42,172.34L372.56,133.82L372.71,234.53L373.15,120L373.3,177.88L373.44,112.89L373.88,168.87L374.17,114.56L374.32,126.69L374.47,121.91L374.61,144.22L374.9,153.76L375.05,168.97L376.66,232.22L376.81,218.13L376.95,230.53L377.39,216.77L377.54,225.02L377.68,220.02L377.97,229.9L378.12,217.74L378.27,226.53L378.41,215.82L378.56,220.43L379,215.55L379.14,218.55L379.29,215.43L379.44,220.43L379.58,215.34L380.02,215.46L380.17,218.21L381.05,214.22L381.19,216.33L381.48,216.55L382.07,213.86L382.22,213.84L382.51,214.87L382.65,210.39L383.24,202.69L383.38,213.03L383.53,283.76L383.97,182.89L384.12,178.75L384.26,188.31L384.55,180.58L384.7,159L385.14,153.13L385.29,239.92L385.43,157.45L385.58,219.15L386.16,120.86L386.46,145.08L386.6,195.37L387.19,147.51L387.33,225.55L388.06,123.69L388.36,126.14L388.5,169.71L388.65,130.88L389.23,171.48L389.38,183.81L390.26,234.89L390.4,218.69L390.7,218.43L390.84,304L390.99,236.29L391.13,299.99L391.28,163.68L391.72,235.38L391.87,204.23L392.01,222.67L392.6,222.39L392.74,215.55L392.89,220.87L393.62,220.57L393.77,215.23L394.06,214.97L394.21,218.09L394.5,215.77L394.64,215.94L394.94,217.79L395.08,214.41L395.37,215.21L395.52,216.26L395.81,217.64L395.96,213.98L396.25,215.17L396.4,285.49L396.54,162.37L397.13,196.2L397.28,216.85L397.57,213.15L397.71,220.01L397.86,181.1L398.01,182.76L398.15,165.08L398.74,223.24L398.88,195.47L399.03,122.72L399.47,166.96L399.62,110.79L399.76,155.85L399.91,115.65L400.05,185.63L400.64,183L400.78,151.41L401.52,229.16L401.81,214.2L401.95,127.47L402.69,192.98L402.83,187.82L402.98,187.7L403.12,188.01L403.27,187.89L403.42,203.09L403.56,200.27L403.71,211.77L403.86,205.38L404,212.28L404.59,238.43L404.73,220.01L404.88,243.84L405.46,239.26L405.61,221.13L405.9,218.43L406.05,229.08L406.19,208.27L406.63,222.51L407.07,218.24L407.22,215.16L407.95,218.61L408.1,215.12L408.24,218.12L408.68,213.48L408.83,214.96L408.97,217.41L409.12,213.89L409.7,215.73L409.85,216.76L410,213.8L410.14,214.52L410.29,285.84L410.44,164.66L411.02,192.03L411.17,207.92L411.31,280.54L411.75,224.91L411.9,179.85L412.04,181.63L412.19,166.31L412.48,186.58L412.77,172.65L412.92,141.28L413.51,133.92L413.8,213.91L414.09,197.65L414.24,118.89L415.11,202.97L415.26,184.75L415.41,114.76L415.99,114.88L416.14,167.68L416.28,116.89L416.43,239.16L416.87,146.23L417.02,177.35L417.16,158.59L417.6,186.61L417.75,192.52L418.04,211.01L418.18,288.78L418.48,291.53L418.62,183.36L419.06,228.85L419.21,217.56L419.5,216.53L419.94,225.54L420.09,216.91L420.23,224.58L420.82,219.69L420.96,218.96L421.11,220.43L421.26,217.39L421.4,220.02L421.55,215.85L421.69,220.28L422.13,215.31L422.28,217.68L422.43,214.88L422.86,220.3L423.01,215.16L423.16,218.31L423.74,215.05L423.89,217.25L424.03,217.18L424.18,214.63L424.33,213.85L424.47,296.51L424.62,165.51L425.2,246.85L425.35,257.81L426.23,166.07L426.37,183.27L426.52,173.68L426.81,228.63L426.96,190.18L427.1,131.77L427.4,216.97L427.54,196.22L427.69,138.56L427.84,243L428.27,136.37L428.42,168.08L428.57,116.4L429.01,238.67L429.3,235.86L429.44,116.2L429.59,273.89L430.17,157.71L430.32,178.57L430.61,191.72L430.76,187.57L430.91,161.17L431.93,232.06L432.08,208.93L433.1,232.7L433.25,218.32L433.68,232.01L433.83,223.55L433.98,230.21L434.56,227.22L434.71,228.47L435,221.11" style="vector-effect: non-scaling-stroke; fill: none; stroke: rgb(0, 128, 0); stroke-opacity: 1; stroke-width: 2px; opacity: 1;"/></g><g class="points"/><g class="text"/></g></g></g><g class="overplot"/><path class="xlines-above crisp" d="M0,0" style="fill: none;"/><path class="ylines-above crisp" d="M0,0" style="fill: none;"/><g class="overlines-above"/><g class="xaxislayer-above"><g class="xtick"><text text-anchor="middle" x="0" y="433" transform="translate(108.07,0)" style="font-family: 'Open Sans', verdana, arial, sans-serif; font-size: 12px; fill: rgb(42, 63, 95); fill-opacity: 1; white-space: pre; opacity: 1;"><tspan class="line" dy="0em" x="0" y="433">Jul 3</tspan><tspan class="line" dy="1.3em" x="0" y="433">2022</tspan></text></g><g class="xtick"><text text-anchor="middle" x="0" y="433" style="font-family: 'Open Sans', verdana, arial, sans-serif; font-size: 12px; fill: rgb(42, 63, 95); fill-opacity: 1; white-space: pre; opacity: 1;" transform="translate(206.32999999999998,0)">Jul 10</text></g><g class="xtick"><text text-anchor="middle" x="0" y="433" style="font-family: 'Open Sans', verdana, arial, sans-serif; font-size: 12px; fill: rgb(42, 63, 95); fill-opacity: 1; white-space: pre; opacity: 1;" transform="translate(304.59000000000003,0)">Jul 17</text></g><g class="xtick"><text text-anchor="middle" x="0" y="433" style="font-family: 'Open Sans', verdana, arial, sans-serif; font-size: 12px; fill: rgb(42, 63, 95); fill-opacity: 1; white-space: pre; opacity: 1;" transform="translate(402.85,0)">Jul 24</text></g><g class="xtick"><text text-anchor="middle" x="0" y="433" style="font-family: 'Open Sans', verdana, arial, sans-serif; font-size: 12px; fill: rgb(42, 63, 95); fill-opacity: 1; white-space: pre; opacity: 1;" transform="translate(501.11,0)">Jul 31</text></g></g><g class="yaxislayer-above"><g class="ytick"><text text-anchor="end" x="79" y="4.199999999999999" transform="translate(0,393.82)" style="font-family: 'Open Sans', verdana, arial, sans-serif; font-size: 12px; fill: rgb(42, 63, 95); fill-opacity: 1; white-space: pre; opacity: 1;">60</text></g><g class="ytick"><text text-anchor="end" x="79" y="4.199999999999999" style="font-family: 'Open Sans', verdana, arial, sans-serif; font-size: 12px; fill: rgb(42, 63, 95); fill-opacity: 1; white-space: pre; opacity: 1;" transform="translate(0,358.12)">40</text></g><g class="ytick"><text text-anchor="end" x="79" y="4.199999999999999" style="font-family: 'Open Sans', verdana, arial, sans-serif; font-size: 12px; fill: rgb(42, 63, 95); fill-opacity: 1; white-space: pre; opacity: 1;" transform="translate(0,322.41999999999996)">20</text></g><g class="ytick"><text text-anchor="end" x="79" y="4.199999999999999" style="font-family: 'Open Sans', verdana, arial, sans-serif; font-size: 12px; fill: rgb(42, 63, 95); fill-opacity: 1; white-space: pre; opacity: 1;" transform="translate(0,286.72)">0</text></g><g class="ytick"><text text-anchor="end" x="79" y="4.199999999999999" style="font-family: 'Open Sans', verdana, arial, sans-serif; font-size: 12px; fill: rgb(42, 63, 95); fill-opacity: 1; white-space: pre; opacity: 1;" transform="translate(0,251.03)">20</text></g><g class="ytick"><text text-anchor="end" x="79" y="4.199999999999999" style="font-family: 'Open Sans', verdana, arial, sans-serif; font-size: 12px; fill: rgb(42, 63, 95); fill-opacity: 1; white-space: pre; opacity: 1;" transform="translate(0,215.32999999999998)">40</text></g><g class="ytick"><text text-anchor="end" x="79" y="4.199999999999999" style="font-family: 'Open Sans', verdana, arial, sans-serif; font-size: 12px; fill: rgb(42, 63, 95); fill-opacity: 1; white-space: pre; opacity: 1;" transform="translate(0,179.63)">60</text></g><g class="ytick"><text text-anchor="end" x="79" y="4.199999999999999" style="font-family: 'Open Sans', verdana, arial, sans-serif; font-size: 12px; fill: rgb(42, 63, 95); fill-opacity: 1; white-space: pre; opacity: 1;" transform="translate(0,143.93)">80</text></g><g class="ytick"><text text-anchor="end" x="79" y="4.199999999999999" style="font-family: 'Open Sans', verdana, arial, sans-serif; font-size: 12px; fill: rgb(42, 63, 95); fill-opacity: 1; white-space: pre; opacity: 1;" transform="translate(0,108.23)">100</text></g></g><g class="overaxes-above"/></g></g><g class="polarlayer"/><g class="smithlayer"/><g class="ternarylayer"/><g class="geolayer"/><g class="funnelarealayer"/><g class="pielayer"/><g class="iciclelayer"/><g class="treemaplayer"/><g class="sunburstlayer"/><g class="glimages"/><defs id="topdefs-97a974"><g class="clips"/><clipPath id="legend97a974"><rect width="164" height="67" x="0" y="0"/></clipPath></defs><g class="layer-above"><g class="imagelayer"/><g class="shapelayer"/></g><g class="infolayer"><g class="legend" pointer-events="all" transform="translate(523.7,100)"><rect class="bg" shape-rendering="crispEdges" width="164" height="67" x="0" y="0" style="stroke: rgb(68, 68, 68); stroke-opacity: 1; fill: rgb(255, 255, 255); fill-opacity: 1; stroke-width: 0px;"/><g class="scrollbox" transform="" clip-path="url(#legend97a974)"><g class="groups"><g class="traces" transform="translate(0,14.5)" style="opacity: 1;"><text class="legendtext" text-anchor="start" x="40" y="4.680000000000001" style="font-family: 'Open Sans', verdana, arial, sans-serif; font-size: 12px; fill: rgb(42, 63, 95); fill-opacity: 1; white-space: pre;">BESS</text><g class="layers" style="opacity: 1;"><g class="legendfill"/><g class="legendlines"><path class="js-line" d="M5,0h30" style="fill: none; stroke: rgb(0, 191, 255); stroke-opacity: 1; stroke-width: 2px;"/></g><g class="legendsymbols"><g class="legendpoints"/></g></g><rect class="legendtoggle" x="0" y="-9.5" width="158.71875" height="19" style="fill: rgb(0, 0, 0); fill-opacity: 0;"/></g><g class="traces" transform="translate(0,33.5)" style="opacity: 1;"><text class="legendtext" text-anchor="start" x="40" y="4.680000000000001" style="font-family: 'Open Sans', verdana, arial, sans-serif; font-size: 12px; fill: rgb(42, 63, 95); fill-opacity: 1; white-space: pre;">Solar</text><g class="layers" style="opacity: 1;"><g class="legendfill"/><g class="legendlines"><path class="js-line" d="M5,0h30" style="fill: none; stroke: rgb(255, 0, 0); stroke-opacity: 1; stroke-width: 2px;"/></g><g class="legendsymbols"><g class="legendpoints"/></g></g><rect class="legendtoggle" x="0" y="-9.5" width="158.71875" height="19" style="fill: rgb(0, 0, 0); fill-opacity: 0;"/></g><g class="traces" transform="translate(0,52.5)" style="opacity: 1;"><text class="legendtext" text-anchor="start" x="40" y="4.680000000000001" style="font-family: 'Open Sans', verdana, arial, sans-serif; font-size: 12px; fill: rgb(42, 63, 95); fill-opacity: 1; white-space: pre;">Grid Meter (Net Load)</text><g class="layers" style="opacity: 1;"><g class="legendfill"/><g class="legendlines"><path class="js-line" d="M5,0h30" style="fill: none; stroke: rgb(0, 128, 0); stroke-opacity: 1; stroke-width: 2px;"/></g><g class="legendsymbols"><g class="legendpoints"/></g></g><rect class="legendtoggle" x="0" y="-9.5" width="158.71875" height="19" style="fill: rgb(0, 0, 0); fill-opacity: 0;"/></g></g></g><rect class="scrollbar" rx="20" ry="3" width="0" height="0" x="0" y="0" style="fill: rgb(128, 139, 164); fill-opacity: 1;"/></g><g class="g-gtitle"><text class="gtitle" x="297.5" y="50" text-anchor="middle" dy="0em" style="font-family: 'Open Sans', verdana, arial, sans-serif; font-size: 17px; fill: rgb(42, 63, 95); opacity: 1; font-weight: normal; white-space: pre;"><tspan class="line" dy="0em" x="297.5" y="50">Scenario 3</tspan><tspan class="line" dy="1.3em" x="297.5" y="50">Microgrid Output</tspan><tspan class="line" dy="2.6em" x="297.5" y="50">From: July 01, 2022 to July 31, 2022</tspan></text></g><g class="g-xtitle"><text class="xtitle" x="297.5" y="476.409375" text-anchor="middle" style="font-family: 'Open Sans', verdana, arial, sans-serif; font-size: 14px; fill: rgb(42, 63, 95); opacity: 1; font-weight: normal; white-space: pre;">Time</text></g><g class="g-ytitle"><text class="ytitle" transform="rotate(-90,32.840625,260)" x="32.840625" y="260" text-anchor="middle" style="font-family: 'Open Sans', verdana, arial, sans-serif; font-size: 14px; fill: rgb(42, 63, 95); opacity: 1; font-weight: normal; white-space: pre;">Demand (kW)</text></g></g></svg>