<svg class="main-svg" xmlns="http://www.w3.org/2000/svg" xmlns:xlink="http://www.w3.org/1999/xlink" width="700" height="500" style="" viewBox="0 0 700 500"><rect x="0" y="0" width="700" height="500" style="fill: rgb(255, 255, 255); fill-opacity: 1;"/><defs id="defs-6c5e81"><g class="clips"><clipPath id="clip6c5e81xyplot" class="plotclip"><rect width="540" height="320"/></clipPath><clipPath class="axesclip" id="clip6c5e81x"><rect x="80" y="0" width="540" height="500"/></clipPath><clipPath class="axesclip" id="clip6c5e81y"><rect x="0" y="100" width="700" height="320"/></clipPath><clipPath class="axesclip" id="clip6c5e81xy"><rect x="80" y="100" width="540" height="320"/></clipPath></g><g class="gradients"/><g class="patterns"/></defs><g class="bglayer"/><g class="layer-below"><g class="imagelayer"/><g class="shapelayer"/></g><g class="cartesianlayer"><g class="subplot xy"><g class="layer-subplot"><g class="shapelayer"/><g class="imagelayer"/></g><g class="minor-gridlayer"><g class="x"/><g class="y"/></g><g class="gridlayer"><g class="x"><path class="xgrid crisp" transform="translate(114.85,0)" d="M0,100v320" style="stroke: rgb(255, 255, 255); stroke-opacity: 1; stroke-width: 1px;"/><path class="xgrid crisp" transform="translate(236.83,0)" d="M0,100v320" style="stroke: rgb(255, 255, 255); stroke-opacity: 1; stroke-width: 1px;"/><path class="xgrid crisp" transform="translate(358.8,0)" d="M0,100v320" style="stroke: rgb(255, 255, 255); stroke-opacity: 1; stroke-width: 1px;"/><path class="xgrid crisp" transform="translate(480.78,0)" d="M0,100v320" style="stroke: rgb(255, 255, 255); stroke-opacity: 1; stroke-width: 1px;"/><path class="xgrid crisp" transform="translate(602.76,0)" d="M0,100v320" style="stroke: rgb(255, 255, 255); stroke-opacity: 1; stroke-width: 1px;"/></g><g class="y"><path class="ygrid crisp" transform="translate(0,387.01)" d="M80,0h540" style="stroke: rgb(255, 255, 255); stroke-opacity: 1; stroke-width: 1px;"/><path class="ygrid crisp" transform="translate(0,341.83000000000004)" d="M80,0h540" style="stroke: rgb(255, 255, 255); stroke-opacity: 1; stroke-width: 1px;"/><path class="ygrid crisp" transform="translate(0,296.64)" d="M80,0h540" style="stroke: rgb(255, 255, 255); stroke-opacity: 1; stroke-width: 1px;"/><path class="ygrid crisp" transform="translate(0,251.46)" d="M80,0h540" style="stroke: rgb(255, 255, 255); stroke-opacity: 1; stroke-width: 1px;"/><path class="ygrid crisp" transform="translate(0,206.28)" d="M80,0h540" style="stroke: rgb(255, 255, 255); stroke-opacity: 1; stroke-width: 1px;"/><path class="ygrid crisp" transform="translate(0,161.09)" d="M80,0h540" style="stroke: rgb(255, 255, 255); stroke-opacity: 1; stroke-width: 1px;"/></g></g><g class="zerolinelayer"><path class="yzl zl crisp" transform="translate(0,115.91)" d="M80,0h540" style="stroke: rgb(255, 255, 255); stroke-opacity: 1; stroke-width: 2px;"/></g><path class="xlines-below"/><path class="ylines-below"/><g class="overlines-below"/><g class="xaxislayer-below"/><g class="yaxislayer-below"/><g class="overaxes-below"/><g class="plot" transform="translate(80,100)" clip-path="url(#clip6c5e81xyplot)"><g class="scatterlayer mlayer"><g class="trace scatter trace51c9f0" style="stroke-miterlimit: 2; opacity: 0.5;"><g class="fills"/><g class="errorbars"/><g class="lines"><path class="js-line" d="M0,60.63L0.18,63.6L0.54,57.5L0.73,58.52L1.27,59.11L1.63,54.35L1.82,56.95L2,56.29L2.18,51.97L2.54,56.73L2.9,51.69L3.09,52.23L3.27,53.13L3.45,50.2L3.81,53.19L4.17,51.51L4.36,50.42L4.72,167.24L5.08,77.45L5.26,69.79L6.72,111.54L6.9,97.26L7.08,98.25L7.26,119.83L7.44,121.41L7.62,232.59L7.81,216.38L7.99,98.99L8.71,283.46L8.89,263.08L9.08,147.27L9.44,129.97L9.62,236.5L9.8,221.9L9.98,224.88L10.16,110.8L11.25,134.6L11.44,126.21L11.62,121.16L13.07,93.05L13.25,109.39L13.43,108.85L13.61,102.18L13.79,101.9L13.98,103.47L15.97,65.31L16.15,68.81L16.52,62.96L16.88,63.46L17.06,64.91L18.15,56.32L18.33,58.6L18.7,53.38L18.88,55.43L19.06,56.51L19.97,51.18L20.15,52.98L20.69,48.99L20.87,49.93L21.06,52.1L21.42,47.57L21.6,49.78L21.78,51.72L21.96,50L22.14,51.43L22.33,74.58L22.51,74.65L22.69,184.27L23.05,65.11L23.6,88.63L23.78,101.03L24.14,110.42L24.32,236.84L24.5,241.42L24.69,128.46L24.87,147.18L25.41,134.01L25.59,138.67L25.96,123.1L26.5,124.98L26.68,114.8L27.23,136.83L27.41,133.05L27.59,116.01L27.95,121.24L28.13,115.48L28.32,119.2L28.5,108.77L28.68,107.85L28.86,99.75L29.77,111.88L29.95,106.15L30.31,108.66L30.49,105.57L32.31,69.99L32.49,67.62L33.58,58.73L33.76,59.97L33.94,60.63L34.12,55.99L34.49,58.85L34.85,55.9L35.03,56.61L35.21,57.19L35.39,52.87L35.76,54.36L35.94,50.24L36.12,51.59L36.48,49.78L36.67,47.41L36.85,48.02L37.03,53.44L38.12,48.65L38.3,49.22L38.66,47.28L38.84,49.01L39.21,49.37L39.39,47.58L39.75,182.29L40.11,53.07L40.3,56.87L41.02,63.01L41.2,67.47L41.38,67.67L41.57,71.39L41.75,70.28L41.93,72.01L42.11,75.27L42.66,125.63L43.2,116.61L43.38,117.5L43.56,102.14L43.93,105.63L44.11,217.55L44.47,223.14L44.65,123.02L44.83,126.38L45.02,112.42L45.2,108.03L45.38,129.48L45.56,129.56L45.74,128.06L46.83,89.42L47.01,88.64L47.56,83.47L47.74,198.92L48.1,194.44L48.28,83.51L49.73,65.07L49.92,65.03L50.82,55.4L51.01,56.28L51.19,57.6L51.91,52.93L52.09,53.02L52.28,52.52L52.64,52.95L52.82,47.25L53.18,51.92L53.55,50.25L53.73,162.21L54.27,47.54L54.64,48.33L54.82,48.71L55,47.59L55.18,160.07L55.36,162.27L55.54,161.34L55.72,50.41L56.09,47.32L56.27,63.86L56.45,62.79L56.63,65.88L56.81,49.6L56.99,48.23L57.18,67.01L57.36,66.57L57.54,68.64L57.72,55.22L57.9,167.47L58.08,184.02L58.27,77.18L58.45,77.97L58.63,76.86L58.81,194.72L59.17,197.94L59.35,91.37L59.72,72.62L60.08,74.15L60.26,191.42L60.63,193.55L60.81,100.08L60.99,98.75L61.17,104.07L61.53,102.16L61.71,86.22L61.9,86.24L62.08,89.63L62.44,92.62L62.62,109.32L62.8,108.87L62.98,109.88L63.17,112.29L63.35,115.61L63.53,98.49L63.89,90.62L64.07,87.16L64.44,92.48L64.62,88.94L64.8,103.24L65.53,96.56L65.71,100.05L65.89,81.2L66.07,78.16L66.25,110.58L67.52,95.68L67.7,63.56L68.43,55.93L68.61,58.07L68.79,58.16L69.7,53.36L69.88,55.26L70.25,50.45L70.43,50.95L70.61,55.4L70.97,49.49L71.52,50.93L71.7,51.4L72.06,47.32L72.24,64.82L72.42,66.91L72.79,65.63L72.97,47.36L73.33,52.53L73.69,47.77L73.88,47.07L74.24,51.39L74.42,68.5L74.6,65.34L74.78,66.17L74.96,89.37L75.15,90.19L75.33,87.51L75.51,108.92L75.69,226.49L75.87,231.49L76.05,99.91L76.24,101.3L76.42,88.52L77.32,223.07L77.51,110.41L78.23,126.84L78.41,112.33L78.96,89.94L79.14,99.03L79.32,106.24L79.68,118.36L80.23,115.16L80.41,114.78L80.95,232.8L81.14,106.46L81.32,96.71L81.68,94.29L81.86,99.21L82.04,92.4L82.23,94.56L82.41,91.99L82.59,88.01L82.77,92.58L82.95,83.95L83.13,86.78L83.31,86.41L84.4,67.88L84.58,72.32L84.77,71.58L84.95,64.86L86.04,52.92L86.22,56.92L86.4,58.97L87.13,53.75L87.31,54.61L87.49,54.26L88.03,51.51L88.22,55.6L88.58,49.61L88.94,50.26L89.12,52.42L89.85,49.14L90.03,67.86L90.21,177.7L90.57,47.1L90.76,50.76L90.94,51.4L91.12,47.78L91.85,52.33L92.21,51.7L92.39,59.02L92.57,59.54L92.75,174.42L93.12,180.25L93.3,68.35L93.66,205.56L94.02,98.17L94.21,115.29L94.57,120.07L94.75,119.71L94.93,110.57L95.11,92.51L95.48,116.86L95.66,121.17L96.02,246.71L96.38,125.46L96.56,106.94L96.93,103.22L97.11,105.42L97.29,109.07L97.84,102.62L98.02,106.01L98.2,110.32L99.11,145.61L99.29,143.11L99.47,142.71L100.92,78.15L101.1,83.11L101.65,78.97L101.83,69.78L102.01,70.82L102.19,70.41L102.37,64.55L102.55,65.54L102.74,65.26L102.92,62.34L104.19,52.33L104.37,54.08L104.91,52.75L105.28,56.85L105.46,50.09L105.82,55.19L106,54.42L106.18,50.39L106.37,46.91L106.55,51.16L106.73,164.42L107.27,47.13L107.64,53.92L107.82,50.67L108,47.17L108.54,49.37L108.73,63.92L108.91,64.25L109.09,49.07L109.27,49.45L109.45,53.27L110,58.01L110.18,78.25L110.36,195.82L110.9,101.38L111.09,90.17L111.63,79.77L111.81,84.88L111.99,82.38L113.45,257.67L113.63,145.05L113.81,144.5L113.99,123.69L114.17,121.82L114.35,125.57L114.53,127.78L114.72,110.49L115.26,112.78L115.44,118.98L115.99,159.71L116.35,150.69L116.53,151.63L117.44,111.23L117.62,90.83L117.8,93.96L117.98,90.55L118.16,85.8L118.53,87.43L118.71,81.88L118.89,79.55L119.07,190.67L119.25,189.64L119.44,72.36L120.34,61.45L120.52,64.33L120.71,62.69L121.43,56.13L121.61,56.58L121.79,58.54L122.88,50.98L123.07,54.83L123.25,58.47L123.61,51.05L123.79,50.9L124.34,65.56L124.52,50.91L124.7,50.81L124.88,51.53L125.06,50.07L125.24,48.06L125.61,52.19L125.79,49.98L125.97,49.78L126.51,69.71L126.7,52.55L126.88,51.42L127.97,71.05L128.15,85.37L128.69,114.06L128.87,109.76L129.06,216.45L129.24,224.17L129.42,106.66L129.6,105.84L129.78,98.47L130.14,213.16L130.51,112.09L130.69,123.78L130.87,140.9L131.42,133.97L131.6,124.48L131.96,105.39L132.14,109.09L132.32,115.8L133.05,134.05L133.23,130.59L133.41,124.61L133.96,116.37L134.14,119.45L134.32,98.76L134.5,97.4L134.68,209.47L134.86,207.85L135.05,207.95L135.23,93.75L135.77,106.67L135.95,103.56L136.13,101.19L136.68,89.83L137.04,93.3L137.22,64.96L137.41,66.54L137.77,64.28L137.95,64.14L138.86,57.38L139.04,57.09L139.22,58.36L139.58,56.88L139.76,57.74L139.95,53.33L140.31,57.98L140.67,53.36L140.85,55.11L141.4,48.13L141.58,55.48L141.76,54.18L141.94,49.66L142.12,50.66L142.31,175.6L142.85,47.74L143.21,49.15L143.39,48.5L143.94,50.09L144.12,47.52L145.57,117.87L145.75,103.87L145.94,104.96L146.66,130.98L146.84,153.37L147.03,157L147.21,152.23L147.39,134.87L147.57,120.48L147.75,229.08L147.93,208.95L148.11,213.26L148.3,96.28L149.2,123.45L149.38,135.73L149.75,146.75L149.93,126.58L150.47,145.14L150.66,129.26L150.84,146.63L151.38,142.79L151.56,141.78L151.93,234.61L152.11,234.24L152.29,115.26L153.2,88.89L153.38,89.87L153.56,89.29L153.74,81.52L154.1,82.53L154.29,76.96L155.37,61.94L155.74,62.5L155.92,62.15L156.1,61.85L156.28,58.89L156.46,61.01L156.83,56.54L157.01,57.77L157.92,54.62L158.1,56.17L158.28,52.68L158.46,84.49L158.64,88.54L159.19,85.67L159.37,51.51L159.55,49.96L159.91,50.77L160.09,165.36L160.82,47.14L161,51.86L161.18,50.96L161.36,49.11L161.55,162.85L161.73,54.04L161.91,169.93L162.45,64.58L162.64,63.65L164.45,104.96L164.63,236.9L164.81,219.85L164.99,222.22L165.18,111.29L165.36,109.68L165.54,117.99L166.08,105.48L166.27,111.83L166.45,130.34L166.63,124.76L166.81,131.83L166.99,131.61L167.17,236.64L167.35,242.64L167.54,232.38L167.72,115.49L167.9,117.32L168.08,115.27L168.26,117.16L168.44,112.17L168.63,108.03L168.81,112.36L168.99,110.8L169.17,124.28L169.9,116.34L170.08,117.47L170.26,99.66L170.44,100.6L170.62,97.97L170.8,89.21L171.35,84.43L171.53,103.13L171.71,96.43L171.89,95.36L173.53,61.01L173.71,65.16L174.62,56.74L174.8,58.43L174.98,58.18L175.52,58.57L175.89,54.87L176.07,57.09L176.25,52.29L176.61,56.53L176.79,164.77L177.7,47.73L177.88,50.72L178.06,52.5L178.43,51.59L178.61,47.4L179.88,94.17L180.06,114.28L180.61,120.63L180.79,106.43L181.15,115.41L181.33,226.04L181.51,115.94L182.06,137.26L182.24,142.07L182.42,115.84L182.6,131.26L182.78,246.59L183.15,120.26L183.51,129.35L183.69,231.51L183.87,118.54L184.42,238.05L184.6,235.38L184.78,233.39L184.96,138.74L185.32,149.05L185.69,147.43L185.87,142.89L186.05,141.81L186.23,124.1L186.41,123.09L186.59,106.47L188.95,79.8L189.14,94.42L189.32,93.09L189.5,84.2L189.68,85.3L189.86,84.36L190.04,78.73L190.23,81.31L190.41,80.53L190.59,75.54L190.77,76.28L190.95,61.67L191.86,55.67L192.04,57.34L192.22,57.08L192.4,52.99L192.58,51.77L192.77,56.24L193.86,49.41L194.04,50.38L194.4,49.73L194.58,50.63L194.76,64.58L194.94,63.45L195.13,64.53L195.31,68.7L195.85,60.91L196.03,47.99L196.22,164.28L196.76,61.99L196.94,64.15L198.39,98.16L198.57,94.56L198.76,93.22L198.94,209.39L199.12,206.79L199.3,85.14L199.85,102.89L200.21,100.54L200.39,98.66L200.57,95.74L200.75,97.16L200.93,117.78L201.12,111.1L201.3,135.16L201.84,275.73L202.02,162.08L202.21,146.63L202.39,148.53L202.57,130.64L202.75,131.1L202.93,133.78L203.29,126.82L203.48,147.55L203.84,143.61L204.2,145.48L204.38,135.52L205.84,95.16L206.02,96.82L206.92,64.45L207.11,64.51L208.01,58.63L208.19,60.09L209.47,52.85L209.65,55.75L210.55,50L210.74,50.33L211.1,50.88L211.28,49.64L211.46,47.14L211.64,48.17L211.83,69.31L212.19,63.62L212.37,48.85L212.73,46.89L212.91,48.9L213.1,162.03L213.28,178.6L213.46,65.33L213.82,49.14L214.18,56.63L214.37,63.45L215.27,79.6L215.46,79.88L215.64,83.26L215.82,104.82L216.54,94.53L216.73,102.7L217.09,87.89L217.45,88.08L217.63,95.4L218,127.57L218.18,246.57L218.54,256.95L218.72,249.06L218.9,136.99L219.09,120.47L219.45,141.23L219.63,138.74L219.81,136.77L219.99,139.42L220.17,143.3L220.36,145.14L220.54,124.59L221.99,109.81L222.17,113.6L222.35,116.12L222.72,107.91L222.9,123.96L223.08,136.16L223.44,114.56L223.62,112.44L223.81,112.25L223.99,109.43L224.71,79.33L224.89,81.22L225.08,80.79L226.89,53.89L227.07,54.38L227.25,57.22L227.44,58.38L227.62,54.51L227.8,55.99L228.16,53.79L228.34,51.86L228.71,70.9L229.07,51.47L229.25,65.42L229.61,70.37L229.79,64.81L229.98,50.35L230.34,49.64L230.52,50.92L230.7,50.4L230.88,48.79L231.61,58.76L231.79,68.3L232.7,102.38L232.88,216.54L233.24,97.36L233.43,220.72L233.61,122.68L233.79,136.61L233.97,143.62L234.33,141.05L234.51,130.51L234.7,132.06L234.88,219.1L235.06,216.21L235.24,217.54L235.42,118.45L236.33,137.34L236.51,127.8L237.06,143.02L237.42,140L237.6,132.94L238.14,121.63L238.33,113.72L238.87,104.52L239.05,118.1L239.6,124.83L239.78,124.51L239.96,118.72L241.05,93.09L241.23,103.93L241.41,104.07L241.59,91.45L241.96,86.12L242.14,65.53L242.32,66.75L242.5,62.24L242.68,62.58L242.86,64.82L243.77,58.77L243.95,60.74L244.13,61.12L244.32,58.51L244.86,55.58L245.04,58.38L245.22,56.98L245.41,56.74L245.59,54.4L245.95,56.18L246.13,52.58L246.49,53.14L246.68,52.76L246.86,55.31L247.04,50.2L247.22,68.26L247.4,70.06L247.58,68L247.76,68.46L247.95,50.37L248.31,53.05L248.49,66.99L249.04,77.2L249.22,84.91L249.4,79.55L249.58,99.79L249.76,98.59L249.94,208.43L250.49,94.53L250.85,106.02L251.03,213.55L251.21,214.83L251.39,234.53L251.58,119.22L252.3,123.03L252.48,137.26L252.67,137.51L252.85,143.37L253.57,182.69L253.75,163.77L253.94,165.77L254.12,145.35L254.48,144.27L254.66,145.29L254.84,138.25L255.03,145.56L255.21,136.38L255.57,142.26L255.75,131.57L257.02,122.41L257.2,106.69L258.29,85.6L258.66,87.3L258.84,83.45L259.02,80.23L259.38,87.08L259.56,85.02L259.74,86.01L259.93,81.34L261.2,58.02L261.38,59.41L261.56,63.86L262.47,55.47L262.65,58.09L262.83,61.26L263.92,52.9L264.1,56.1L264.28,54.02L264.46,54.8L264.65,70.91L264.83,65.92L265.01,184.13L265.37,50.9L265.92,56.99L266.1,53.23L266.82,180.33L267.01,76.16L267.19,76.71L267.37,94.93L267.91,118.47L268.09,116.1L268.28,108.78L268.46,108.09L268.64,88.84L269.36,123.67L269.55,233.21L269.73,251.22L269.91,147.48L270.09,145.91L270.27,122.83L271.18,284.27L271.36,166.73L271.72,140.07L272.27,150.48L272.45,161.03L272.99,183.53L273.36,177.55L273.54,181.38L273.72,181.1L273.9,272.06L274.99,97.26L275.17,98.14L275.35,92.54L275.9,86.23L276.08,83.8L276.63,79.06L276.81,87.03L278.26,60.69L278.44,64.09L278.62,65.46L278.8,59.5L279.17,64.61L279.35,59.43L279.89,61.07L280.07,58.32L280.44,60.67L280.8,56.4L280.98,58.05L281.16,75.51L281.53,55.51L281.71,57.76L281.89,56.77L282.07,55.22L282.25,72.42L282.43,76.89L282.62,74.8L282.8,52.36L283.34,57.27L283.52,56.08L283.7,81.05L283.89,216.63L284.43,79.02L284.61,80.15L284.97,199.6L285.34,86.6L285.52,91.24L286.61,122.34L286.79,109.82L287.88,128.75L288.06,241.54L288.24,242.75L288.42,260.06L288.97,133.71L289.33,142.85L289.51,141.34L289.69,142.46L289.88,117.4L290.06,116.63L290.24,132.09L290.6,132.53L290.78,130.07L291.69,105.79L291.87,115.36L292.05,113.87L292.24,113.01L292.42,108.6L292.6,127.84L293.14,118.66L293.32,100.25L293.51,100.44L293.69,97.67L294.59,68.75L294.78,68.83L294.96,69.58L295.14,64.93L295.32,66.35L295.5,65.98L295.68,61.97L295.87,62.25L296.05,64.46L296.95,61.73L297.14,63.13L297.32,63.34L297.5,59.67L297.68,62.65L298.04,57.36L298.23,58.29L298.77,56.16L298.95,76.72L299.13,91.55L299.31,199.76L299.68,73.03L299.86,58.56L300.77,53.79L300.95,74.14L302.22,107.59L302.4,222.61L302.58,226.52L302.76,139.96L303.49,158.47L303.67,139.18L303.85,143.49L304.03,240.86L304.22,239.28L304.4,246.27L304.58,125.31L305.3,141.96L305.49,144.69L305.67,259.61L306.03,135.53L306.21,138.01L306.39,136.07L306.76,129.91L306.94,141.67L307.3,138.55L307.48,140.81L307.66,141.71L307.85,144.47L308.03,161.91L308.93,140.38L309.12,136.91L309.48,106.29L310.02,112.4L310.21,110.86L310.75,106.12L310.93,85.72L311.84,72.31L312.02,85.76L312.2,86.35L312.56,85.21L312.75,82.02L313.11,84.71L313.29,78.83L314.2,62.18L314.38,58.56L314.74,63.65L314.92,58.52L315.11,60.21L315.29,60.39L315.47,58.05L315.65,72.38L315.83,75.24L316.01,75.13L316.19,55.66L316.56,57.53L316.74,54.9L316.92,52.63L317.1,56.33L317.28,165.86L317.47,165.18L317.65,54.09L318.01,88.14L318.37,55.1L318.55,62.59L318.92,73.88L319.1,85.67L319.28,88.73L319.46,88.08L319.64,109.7L320.19,168.35L320.55,158.96L320.73,145.04L321.1,165.95L321.28,143.9L321.46,148.9L321.64,256.24L321.82,260.8L322,258.26L322.18,244.1L322.37,159.5L322.73,304L322.91,292.78L323.82,163.33L324,157.2L324.36,274.93L324.73,160.98L324.91,151.76L325.82,134.84L326,120.48L326.36,118.62L326.54,120.73L327.99,90.7L328.17,96.23L328.36,99.61L328.54,94.97L328.72,87.76L328.9,88.79L329.08,85.7L329.26,83.75L329.45,85.88L329.63,81.73L329.81,73.11L329.99,72.89L330.17,69.06L330.53,70.12L330.72,65.51L330.9,68.36L331.08,67.35L331.44,67.82L331.62,63.39L331.81,63.87L331.99,65.38L332.71,61.8L332.89,63.41L333.08,58.8L333.62,59.18L333.8,62.05L334.71,56.29L334.89,59.62L335.62,75.34L335.8,58.02L336.71,86.45L336.89,203.15L337.61,232.21L337.79,114.8L337.98,121.36L338.16,118.79L338.34,229.53L338.52,239.83L338.7,218.8L338.88,99.97L339.07,96.86L339.25,112.68L339.79,48.44L340.34,48.53L340.52,32.27L340.7,32.18L340.88,16L341.24,143.3L341.97,137.06L342.15,134.62L342.51,137.9L342.7,130.08L343.24,119.65L343.42,135.93L343.6,167.49L344.15,158.95L344.33,153.33L344.51,244.44L344.87,203.75L345.06,90.84L345.24,91.06L345.42,110.47L345.6,112.87L345.96,112.46L346.14,107.98L347.05,68.51L347.23,87.3L348.14,82.65L348.32,84.26L349.05,63.53L349.23,64.16L349.41,63.28L350.14,57.9L350.32,60.2L350.5,62.37L351.05,56.73L351.59,56.94L351.77,56.54L351.95,168.15L352.5,56.2L352.68,56.88L352.86,54.71L353.22,58.35L353.41,58.61L353.59,65.5L353.77,106.42L353.95,128.21L354.49,116.79L354.68,98.87L355.04,105.1L355.22,126.97L355.76,146.62L355.95,133.65L356.13,132.33L356.31,129.14L356.49,226.34L356.67,222.38L356.85,115.27L357.04,112.93L357.22,130.84L357.4,248.94L357.94,144.75L358.12,155.99L358.67,291.95L358.85,175.77L359.03,180.02L359.21,180.81L359.39,172.7L359.58,185.98L359.94,159.83L360.12,152.87L360.67,178.77L360.85,176.73L361.03,142.62L361.21,159.22L361.57,149.35L361.75,136.44L364.48,63.99L364.66,64.26L364.84,64.54L365.02,63.67L365.2,61.48L365.38,61.98L365.57,59.13L365.93,61.89L366.29,61.47L366.47,57.95L366.66,60.26L367.02,57.57L367.2,57.63L367.56,58.68L367.93,54.6L368.11,55.7L368.29,56.08L369.02,52.86L369.2,71.34L369.92,68.31L370.1,49.85L370.29,53.42L370.47,166.65L370.65,162.63L370.83,169.76L371.01,174.23L371.19,65.22L371.74,73.71L371.92,79.17L372.1,80.17L372.28,86.61L372.83,97.07L373.01,213.92L373.19,214.9L373.37,211.53L373.55,113.97L374.1,120.54L374.28,127.23L374.46,233.47L374.82,98.56L375.01,101.77L376.28,153.23L376.46,155.62L377.18,168.86L377.36,158.12L378.45,99.13L378.64,96.24L379,87.63L379.54,87.75L379.72,87.92L379.91,80.47L380.27,80.6L380.45,92.85L380.63,92.77L380.81,88.1L380.99,87.36L381.18,83.15L381.54,83.83L381.9,78.19L382.08,79.92L382.27,60.9L382.45,63.94L382.99,63.12L383.17,61.31L383.35,62.23L383.54,61.75L383.72,58.8L383.9,59.44L384.08,59.38L384.26,57.22L384.44,58.1L384.63,57.78L384.81,54.68L384.99,54.82L385.17,56.63L385.53,52.7L385.71,54.47L385.9,70.43L386.62,48.83L387.17,49.6L387.35,65.28L387.71,68.15L387.89,49.46L388.26,54.57L388.44,73.16L388.62,72.15L388.8,90.78L388.98,92.61L389.16,184.1L390.07,61.22L390.25,59.24L390.8,205.58L390.98,95.3L391.16,94.03L391.34,186.02L391.52,186.74L391.7,79.97L393.16,141.84L393.34,124.95L393.52,111.71L393.7,249.08L393.88,238.47L394.06,131.49L394.61,137.01L394.79,133.62L394.97,104.34L395.33,108.98L395.52,104.07L395.7,133.35L396.24,121.44L396.42,120.05L396.61,116.33L396.79,116.76L396.97,96.94L397.33,95.08L397.51,89.7L397.69,91.64L397.88,74.45L398.6,64.48L398.96,65.21L399.15,72.71L399.33,75.6L399.51,65.99L400.24,59.27L400.42,60.7L400.6,59.14L400.96,59.29L401.32,55.02L401.51,59.19L402.59,51.83L402.78,54.4L403.87,49.37L404.05,66.55L404.41,82.79L404.77,67.47L404.95,53.4L405.14,161.85L405.32,49.55L405.68,52.9L405.86,54.55L406.77,80.02L406.95,65.65L407.31,85.25L407.5,199.38L407.68,197.42L407.86,104.09L408.04,106.25L408.22,89.41L408.58,93.39L408.77,108.54L408.95,100.22L409.13,114.49L409.31,112.14L409.49,118.73L409.67,133.47L410.22,124.11L410.4,126.64L411.49,99.06L411.67,105.75L411.85,116.75L412.4,110.84L412.58,241.55L412.94,239.19L413.12,130.6L415.3,76.19L415.48,77.21L416.93,61.32L417.12,63.11L418.21,56.31L418.39,56.45L418.57,54.66L418.75,57.85L418.93,55.64L419.11,50.11L419.48,56.48L419.84,51.82L420.02,167.29L420.38,49.97L420.93,51.84L421.11,49.95L421.29,49.93L421.47,53.62L421.84,46.73L422.02,48.08L422.2,51.4L422.38,53.74L422.74,50.05L422.92,51.34L423.11,53.17L423.29,54.28L423.47,61.19L424.56,212.78L424.74,109.76L424.92,109.6L425.1,105.72L425.83,119.64L426.01,117.95L426.19,232.7L426.37,220.15L426.55,108.16L426.74,108.58L426.92,102.9L427.1,94.9L427.28,99.18L427.46,120.08L428.01,130.25L428.19,149.28L428.37,152.03L428.55,264.76L429.46,231.91L429.64,116.3L430.18,96.01L430.37,117L431.09,109.2L431.27,107.78L431.46,112.64L431.64,110.61L431.82,90.84L432,91.97L432.18,84.47L433.82,64.28L434,65.8L434.18,66L434.36,63.52L434.72,65.41L435.45,56.89L435.63,58.49L435.81,61.68L436.17,56.54L436.36,58.01L436.54,58.43L436.72,58.33L436.9,51.91L437.26,57.94L437.63,51.64L437.81,55.55L437.99,56.15L438.17,49.78L438.35,67.28L438.53,71.86L438.72,70.89L438.9,51.95L439.08,50.79L439.26,52.46L439.44,53.42L439.62,50.18L439.81,67.52L439.99,69.1L440.17,83.72L440.71,221.4L440.89,107.82L441.44,72.33L441.8,88.11L441.98,91.85L442.16,110.52L442.35,228.93L442.53,220.35L442.71,113.18L443.07,141.01L443.44,118.61L443.62,114.7L444.16,108.29L444.34,134.48L444.52,135.88L444.71,132.12L444.89,251.44L445.07,251.87L445.25,274.09L445.79,139.25L446.16,141.69L446.34,139.51L446.52,158.91L446.88,133.54L447.07,125.55L448.88,87.95L449.06,88.25L449.24,89.14L449.43,87.02L449.61,98.08L449.79,99.65L449.97,95.96L450.33,98.98L450.51,96.93L451.06,82.73L451.24,85.56L451.42,67.38L451.78,67.47L452.15,64.52L452.33,65.41L452.51,61.09L452.87,65.94L453.06,62.32L453.24,63.01L454.33,56.59L454.51,57.37L454.69,60.27L455.05,54.99L455.23,74.68L455.42,73.95L455.6,54.61L455.96,55.64L456.14,52.83L456.32,53.77L456.5,55.42L456.69,52.1L456.87,57.58L457.05,63.05L457.59,66.88L457.77,78.96L458.32,62.27L458.5,77.68L458.68,88.57L458.86,93.59L459.05,93.15L459.23,209.92L459.95,91.44L460.13,99.13L460.32,103.39L460.5,103.91L460.68,102.11L460.86,221.63L461.41,115.91L461.59,123.37L461.95,130.89L462.13,134.18L462.31,130.55L462.49,137.7L462.68,247.53L463.04,238.89L463.22,131.15L463.95,113.4L464.13,118.71L464.31,120.21L464.49,132.73L465.22,118.61L465.4,119.03L465.58,118.33L467.21,82.78L467.39,84.52L468.3,69.42L468.48,69.8L468.67,68.18L469.03,82.21L469.39,77.22L469.57,70.77L470.48,63.3L470.66,60.2L470.84,61.63L471.03,58.94L471.21,58.2L471.75,59.25L471.93,55.93L472.11,56.99L472.3,56.91L472.48,54.57L472.66,55.86L473.02,54.15L473.2,54.6L473.38,55.09L474.47,51.36L474.66,54.11L475.02,49.55L475.2,53.29L475.93,92.75L476.11,205.53L476.29,203.1L476.47,76.91L476.83,80.82L477.02,90.87L477.38,100.93L477.56,100.61L477.74,213.63L478.1,98.88L478.47,215.26L478.65,210.43L478.83,226.43L479.01,109.38L479.19,107.96L479.37,112.45L479.56,113.21L480.1,107.53L480.28,129.31L480.46,133.37L480.65,131.41L480.83,249.43L481.01,239.22L481.19,135.77L481.37,135.91L481.55,135.63L481.73,125.17L482.82,99.6L483.01,101.94L483.19,112.39L483.73,107.88L483.91,104.95L484.09,105.61L484.28,103.13L484.46,100.73L484.64,83.11L485,80.62L485.18,192.17L485.55,185.31L485.73,73.22L486.45,67.29L486.64,69.6L487.54,62.17L487.72,63.03L487.91,64.31L488.99,56.71L489.18,58.44L489.36,58.15L489.54,58.63L489.72,58.03L489.9,55.82L490.08,57.19L490.45,55.07L490.63,55.84L490.81,54.49L491.17,57.57L491.35,53.76L491.54,53.46L491.72,55.63L491.9,53.06L492.08,165.79L492.26,168.84L492.44,70.89L492.63,67.84L492.81,74.6L492.99,76.86L493.17,76.66L493.35,98.75L493.53,88.28L493.71,107.96L493.9,111.14L494.44,84.44L494.62,120.84L494.8,125.74L494.98,236.14L495.35,253.72L495.53,104.15L496.07,90.5L496.26,92.78L496.44,107.83L497.16,169.4L497.34,167.5L497.53,171.41L498.07,184.77L498.25,189.42L498.8,263.42L498.98,250.52L499.16,165.24L499.52,141.27L499.89,166.78L500.07,158.45L501.34,103.49L501.52,84.96L502.06,81.51L502.25,95.98L502.43,92.6L502.61,109.47L502.79,110.05L502.97,104.21L503.7,97.86L503.88,81.97L504.06,80.01L504.24,65.79L505.33,60.91L505.51,60.55L505.69,60.52L505.88,61.64L506.96,57.5L507.15,56.67L507.33,53.73L507.51,58.35L507.87,54.26L508.05,56.15L508.6,56.66L508.96,51.66L509.14,54.4L509.32,168.33L509.51,53.63L509.87,54.52L510.05,55.42L510.41,62.82L510.59,189.54L510.78,80.96L510.96,208.87L511.32,105.03L511.5,108.15L511.68,110.33L511.87,106.06L512.05,108.45L512.23,107.16L512.41,111.16L512.59,97.34L512.95,119.97L513.5,119.62L513.68,226.35L513.86,241.18L514.04,145.87L514.23,125.71L514.77,135.36L514.95,134.78L515.13,142.31L515.31,238.87L515.5,239.23L515.68,127.8L516.22,109.31L516.4,115.13L516.58,117.72L516.77,110.12L516.95,221.02L517.13,221.63L517.31,111.09L518.94,90.19L519.13,202.91L519.31,202.37L519.49,199.38L520.4,76.2L520.58,71.33L521.67,66.12L521.85,67.07L522.03,68.42L522.21,65.05L522.39,64.86L522.94,63.43L523.12,64.14L523.3,65.17L523.66,64.04L523.85,62.48L524.57,58.46L524.75,62.2L525.84,55.46L526.02,58.55L526.21,58.91L526.39,58.75L526.57,57.67L526.75,53.55L526.93,186.15L527.48,57.78L527.66,60.05L527.84,182.97L528.02,183.1L528.2,188.39L528.38,76.59L529.11,85.71L529.29,85.2L529.65,96.87L529.84,215.38L530.02,213.96L530.2,103.13L530.38,107.21L530.56,217.35L530.92,203.83L531.29,206.7L531.47,95.91L532.38,101.42L532.56,233.01L532.74,237.67L532.92,140.51L533.1,157.24L533.28,269.95L533.65,274.02L533.83,142.49L534.19,145.28L534.55,118.71L534.74,137.45L534.92,137.65L535.1,134.66L536.01,107.16L536.19,88.22L537.28,81.3L537.46,82.66L537.64,89.75L537.82,83.42L538,69.24L538.18,88.33L538.73,85.2L538.91,83.53L539.27,85.18L539.46,83.8L539.64,83.61L539.82,84.07L540,65.45" style="vector-effect: non-scaling-stroke; fill: none; stroke: rgb(0, 191, 255); stroke-opacity: 1; stroke-width: 2px; opacity: 1;"/></g><g class="points"/><g class="text"/></g></g></g><g class="overplot"/><path class="xlines-above crisp" d="M0,0" style="fill: none;"/><path class="ylines-above crisp" d="M0,0" style="fill: none;"/><g class="overlines-above"/><g class="xaxislayer-above"><g class="xtick"><text text-anchor="middle" x="0" y="433" transform="translate(114.85,0)" style="font-family: 'Open Sans', verdana, arial, sans-serif; font-size: 12px; fill: rgb(42, 63, 95); fill-opacity: 1; white-space: pre; opacity: 1;"><tspan class="line" dy="0em" x="0" y="433">Jul 3</tspan><tspan class="line" dy="1.3em" x="0" y="433">2022</tspan></text></g><g class="xtick"><text text-anchor="middle" x="0" y="433" style="font-family: 'Open Sans', verdana, arial, sans-serif; font-size: 12px; fill: rgb(42, 63, 95); fill-opacity: 1; white-space: pre; opacity: 1;" transform="translate(236.83,0)">Jul 10</text></g><g class="xtick"><text text-anchor="middle" x="0" y="433" style="font-family: 'Open Sans', verdana, arial, sans-serif; font-size: 12px; fill: rgb(42, 63, 95); fill-opacity: 1; white-space: pre; opacity: 1;" transform="translate(358.8,0)">Jul 17</text></g><g class="xtick"><text text-anchor="middle" x="0" y="433" style="font-family: 'Open Sans', verdana, arial, sans-serif; font-size: 12px; fill: rgb(42, 63, 95); fill-opacity: 1; white-space: pre; opacity: 1;" transform="translate(480.78,0)">Jul 24</text></g><g class="xtick"><text text-anchor="middle" x="0" y="433" style="font-family: 'Open Sans', verdana, arial, sans-serif; font-size: 12px; fill: rgb(42, 63, 95); fill-opacity: 1; white-space: pre; opacity: 1;" transform="translate(602.76,0)">Jul 31</text></g></g><g class="yaxislayer-above"><g class="ytick"><text text-anchor="end" x="79" y="4.199999999999999" transform="translate(0,387.01)" style="font-family: 'Open Sans', verdana, arial, sans-serif; font-size: 12px; fill: rgb(42, 63, 95); fill-opacity: 1; white-space: pre; opacity: 1;">−120</text></g><g class="ytick"><text text-anchor="end" x="79" y="4.199999999999999" style="font-family: 'Open Sans', verdana, arial, sans-serif; font-size: 12px; fill: rgb(42, 63, 95); fill-opacity: 1; white-space: pre; opacity: 1;" transform="translate(0,341.83000000000004)">−100</text></g><g class="ytick"><text text-anchor="end" x="79" y="4.199999999999999" style="font-family: 'Open Sans', verdana, arial, sans-serif; font-size: 12px; fill: rgb(42, 63, 95); fill-opacity: 1; white-space: pre; opacity: 1;" transform="translate(0,296.64)">−80</text></g><g class="ytick"><text text-anchor="end" x="79" y="4.199999999999999" style="font-family: 'Open Sans', verdana, arial, sans-serif; font-size: 12px; fill: rgb(42, 63, 95); fill-opacity: 1; white-space: pre; opacity: 1;" transform="translate(0,251.46)">−60</text></g><g class="ytick"><text text-anchor="end" x="79" y="4.199999999999999" style="font-family: 'Open Sans', verdana, arial, sans-serif; font-size: 12px; fill: rgb(42, 63, 95); fill-opacity: 1; white-space: pre; opacity: 1;" transform="translate(0,206.28)">−40</text></g><g class="ytick"><text text-anchor="end" x="79" y="4.199999999999999" style="font-family: 'Open Sans', verdana, arial, sans-serif; font-size: 12px; fill: rgb(42, 63, 95); fill-opacity: 1; white-space: pre; opacity: 1;" transform="translate(0,161.09)">−20</text></g><g class="ytick"><text text-anchor="end" x="79" y="4.199999999999999" style="font-family: 'Open Sans', verdana, arial, sans-serif; font-size: 12px; fill: rgb(42, 63, 95); fill-opacity: 1; white-space: pre; opacity: 1;" transform="translate(0,115.91)">0</text></g></g><g class="overaxes-above"/></g></g><g class="polarlayer"/><g class="smithlayer"/><g class="ternarylayer"/><g class="geolayer"/><g class="funnelarealayer"/><g class="pielayer"/><g class="iciclelayer"/><g class="treemaplayer"/><g class="sunburstlayer"/><g class="glimages"/><defs id="topdefs-6c5e81"><g class="clips"/></defs><g class="layer-above"><g class="imagelayer"/><g class="shapelayer"/></g><g class="infolayer"><g class="g-gtitle"><text class="gtitle" x="350" y="50" text-anchor="middle" dy="0em" style="font-family: 'Open Sans', verdana, arial, sans-serif; font-size: 17px; fill: rgb(42, 63, 95); opacity: 1; font-weight: normal; white-space: pre;"><tspan class="line" dy="0em" x="350" y="50">Scenario 2</tspan><tspan class="line" dy="1.3em" x="350" y="50">Microgrid Output</tspan><tspan class="line" dy="2.6em" x="350" y="50">From: July 01, 2022 to July 31, 2022</tspan></text></g><g class="g-xtitle"><text class="xtitle" x="350" y="476.409375" text-anchor="middle" style="font-family: 'Open Sans', verdana, arial, sans-serif; font-size: 14px; fill: rgb(42, 63, 95); opacity: 1; font-weight: normal; white-space: pre;">Time</text></g><g class="g-ytitle"><text class="ytitle" transform="rotate(-90,27.168750000000003,260)" x="27.168750000000003" y="260" text-anchor="middle" style="font-family: 'Open Sans', verdana, arial, sans-serif; font-size: 14px; fill: rgb(42, 63, 95); opacity: 1; font-weight: normal; white-space: pre;">Demand (kW)</text></g></g></svg>