<svg class="main-svg" xmlns="http://www.w3.org/2000/svg" xmlns:xlink="http://www.w3.org/1999/xlink" width="700" height="500" style="" viewBox="0 0 700 500"><rect x="0" y="0" width="700" height="500" style="fill: rgb(255, 255, 255); fill-opacity: 1;"/><defs id="defs-c9e3c6"><g class="clips"><clipPath id="clipc9e3c6xyplot" class="plotclip"><rect width="540" height="320"/></clipPath><clipPath class="axesclip" id="clipc9e3c6x"><rect x="80" y="0" width="540" height="500"/></clipPath><clipPath class="axesclip" id="clipc9e3c6y"><rect x="0" y="100" width="700" height="320"/></clipPath><clipPath class="axesclip" id="clipc9e3c6xy"><rect x="80" y="100" width="540" height="320"/></clipPath></g><g class="gradients"/><g class="patterns"/></defs><g class="bglayer"/><g class="layer-below"><g class="imagelayer"/><g class="shapelayer"/></g><g class="cartesianlayer"><g class="subplot xy"><g class="layer-subplot"><g class="shapelayer"/><g class="imagelayer"/></g><g class="minor-gridlayer"><g class="x"/><g class="y"/></g><g class="gridlayer"><g class="x"><path class="xgrid crisp" transform="translate(114.85,0)" d="M0,100v320" style="stroke: rgb(255, 255, 255); stroke-opacity: 1; stroke-width: 1px;"/><path class="xgrid crisp" transform="translate(236.83,0)" d="M0,100v320" style="stroke: rgb(255, 255, 255); stroke-opacity: 1; stroke-width: 1px;"/><path class="xgrid crisp" transform="translate(358.8,0)" d="M0,100v320" style="stroke: rgb(255, 255, 255); stroke-opacity: 1; stroke-width: 1px;"/><path class="xgrid crisp" transform="translate(480.78,0)" d="M0,100v320" style="stroke: rgb(255, 255, 255); stroke-opacity: 1; stroke-width: 1px;"/><path class="xgrid crisp" transform="translate(602.76,0)" d="M0,100v320" style="stroke: rgb(255, 255, 255); stroke-opacity: 1; stroke-width: 1px;"/></g><g class="y"><path class="ygrid crisp" transform="translate(0,286)" d="M80,0h540" style="stroke: rgb(255, 255, 255); stroke-opacity: 1; stroke-width: 1px;"/><path class="ygrid crisp" transform="translate(0,218.70999999999998)" d="M80,0h540" style="stroke: rgb(255, 255, 255); stroke-opacity: 1; stroke-width: 1px;"/><path class="ygrid crisp" transform="translate(0,151.42000000000002)" d="M80,0h540" style="stroke: rgb(255, 255, 255); stroke-opacity: 1; stroke-width: 1px;"/></g></g><g class="zerolinelayer"><path class="yzl zl crisp" transform="translate(0,353.28999999999996)" d="M80,0h540" style="stroke: rgb(255, 255, 255); stroke-opacity: 1; stroke-width: 2px;"/></g><path class="xlines-below"/><path class="ylines-below"/><g class="overlines-below"/><g class="xaxislayer-below"/><g class="yaxislayer-below"/><g class="overaxes-below"/><g class="plot" transform="translate(80,100)" clip-path="url(#clipc9e3c6xyplot)"><g class="scatterlayer mlayer"><g class="trace scatter trace79c28f" style="stroke-miterlimit: 2; opacity: 0.5;"><g class="fills"/><g class="errorbars"/><g class="lines"><path class="js-line" d="M0,303.72L1.27,303.81L1.45,303.67L2,303.77L2.18,303.25L3.27,303.74L3.45,303.44L3.99,303.75L4.17,302.5L5.81,253.1L5.99,253.23L6.17,253.16L7.26,253.23L7.44,135.2L8.35,53.55L8.53,55.95L9.26,84.32L9.44,78.74L9.62,70.27L9.98,76.11L10.16,73.57L10.35,80.92L10.71,83.92L10.89,78.43L11.07,83.03L11.25,85.47L11.44,72.9L11.62,66.95L11.8,70.09L11.98,91.62L14.16,303.85L14.34,303.69L14.52,303.83L15.97,303.8L16.15,303.78L17.43,303.77L17.61,303.73L19.24,303.78L19.42,303.75L20.51,303.76L20.69,302.76L21.24,303.74L21.42,300.27L21.6,300.9L21.78,298.71L23.05,253.12L23.42,253.16L23.6,253.17L24.14,253.08L24.32,199.59L24.69,27.05L25.23,29.53L25.41,35.1L26.14,50.92L26.32,49.18L26.5,46.43L27.23,64.08L27.41,58.46L27.59,57.33L28.13,56.78L28.5,70.72L28.68,69.5L28.86,57.48L29.04,48.21L29.22,61.43L29.41,74.81L31.4,303.88L31.76,303.7L31.95,303.8L33.58,303.67L33.76,303.87L34.67,303.74L34.85,303.77L36.48,303.74L36.67,300.61L37.03,303.8L37.57,303.14L37.75,302.9L37.94,303.48L38.12,302.18L38.3,302.51L38.48,302.02L38.84,302.36L39.21,292.01L39.39,282.06L40.48,253.16L40.66,253.19L40.84,253.11L41.2,253.15L41.38,140.16L42.11,21.8L42.29,23.03L42.47,26.63L42.84,21.57L43.02,29.89L43.2,33.68L43.56,36.25L43.74,33.39L43.93,41.44L44.11,41L44.29,44.29L44.65,42.63L45.02,51.89L45.2,45.32L45.38,53.1L45.92,52.1L46.1,51.1L46.29,49.7L46.47,41.9L46.65,43.82L46.83,69.42L48.83,303.85L49.37,303.78L49.55,303.73L52.64,303.66L52.82,300.37L53.55,303.77L53.73,303.7L53.91,303.62L54.27,300.81L54.64,301.99L54.82,302.54L55,300.88L55.36,303.23L55.54,302.07L55.72,303.44L56.63,293.25L56.81,285.98L57.9,253.15L58.08,253.15L58.27,253.25L58.45,211.9L59.35,27.7L59.54,20.79L59.72,16L60.08,18.38L60.26,25.83L61.17,38.87L61.71,36.54L61.9,36.87L63.17,51.48L63.35,56.44L63.89,46.2L64.07,52.85L66.25,303.82L66.8,303.74L66.98,303.75L71.88,303.46L72.06,300.53L72.61,303.76L72.79,303.19L72.97,300.44L73.33,303.42L73.69,300.76L73.88,296.17L75.15,253.09L75.51,253.21L75.69,253.18L76.05,253.06L76.24,142.21L77.14,38.47L77.32,47.74L77.51,47.12L77.69,53.15L78.23,72.77L78.41,51.27L78.96,42.26L79.14,56.01L79.68,85.09L80.23,80.29L80.41,79.77L80.77,80.97L80.95,87.35L81.32,56.88L81.68,83.73L81.86,110.69L82.59,188.49L82.77,221.56L84.04,303.89L84.22,303.62L84.4,303.82L87.13,303.74L87.31,303.8L88.4,303.23L88.58,302.66L89.12,303.78L89.3,302.62L89.49,302.7L90.03,303.77L90.21,302.13L90.39,297.86L90.76,303.63L90.94,303.73L91.85,281.84L92.03,265.9L92.57,253.1L92.93,253.11L93.12,253.23L93.48,253.29L93.66,202.43L94.39,61.84L94.57,63L94.75,62.55L95.11,46.18L95.48,58.44L95.66,64.82L96.02,83.6L96.2,74.33L96.38,70.53L96.93,62.66L97.11,65.94L97.29,71.3L97.65,62.01L98.02,67.13L98.2,73.44L98.56,65.97L98.74,68.01L98.92,94L101.1,303.93L101.65,303.63L101.83,303.75L104.73,303.79L104.91,303.28L106,303.75L106.18,302.98L106.37,299.86L106.73,303.61L106.91,303.34L107.09,303.56L107.27,300.2L107.64,303.77L108,300.25L108.18,301.53L108.36,303.15L108.54,303.02L108.73,299.67L109.45,275.85L109.63,258.53L110.18,253.16L110.54,253.19L110.72,253.29L111.09,253.1L111.27,167.43L111.99,31.2L112.17,34.6L112.36,41.57L112.54,41.53L112.72,48.82L113.26,66.88L113.45,76.41L113.63,76.08L113.81,76.34L113.99,69.51L114.17,66.77L114.35,72.23L114.53,75.51L114.72,73.95L114.9,75.31L115.08,77.43L115.26,77.55L115.44,86.67L117.26,184.38L117.44,201.93L118.53,303.81L118.89,303.77L119.07,303.75L125.06,303.11L125.24,301.58L125.61,303.75L125.97,303.28L126.15,299.5L127.6,253.06L127.78,253.26L127.97,253.17L128.69,253.21L128.87,115.16L129.96,50.29L130.14,58.11L130.51,51.57L130.69,68.88L130.87,70.33L131.05,65.21L131.23,58.51L131.6,70.2L131.78,63.59L131.96,66.1L132.87,96.78L133.05,85.14L133.23,79.83L133.41,70.86L133.77,87.26L133.96,96.71L135.95,303.91L136.13,303.75L136.32,303.82L137.95,303.69L138.13,303.76L141.04,303.74L141.22,301.92L141.4,301.67L141.58,303.86L141.94,302.71L142.12,303.52L142.31,300.13L143.03,303.79L143.21,301.86L143.58,301.29L143.76,296.46L145.39,253.14L145.57,253.19L146.12,253.25L146.3,117L146.66,35.4L147.03,45.44L147.21,62.58L147.57,63.55L147.75,57.87L147.93,51.13L149.02,66.73L149.2,68.77L149.38,62.98L149.57,70.04L149.75,79.23L149.93,73.3L150.11,80.74L150.47,77.1L150.66,77.5L151.2,87.67L151.38,114.21L153.38,303.94L153.74,303.73L153.92,303.82L155.37,303.8L155.56,303.77L157.92,303.74L158.1,303.81L158.46,302.89L158.82,303.76L159.01,303.75L159.37,303.26L159.55,303.04L159.91,303.18L160.09,303.74L160.46,303.73L160.64,302.03L161,303.67L161.36,292.19L161.55,286.97L162.45,253.04L162.82,253.14L163,253.18L163.72,253.23L163.91,51.98L164.27,32.44L164.63,45.47L164.81,43.16L166.45,78.84L166.63,70.42L167.17,69.84L167.54,86.86L167.72,80.15L168.63,92.77L168.81,116.97L170.8,303.94L171.17,303.61L171.35,303.88L172.44,303.71L172.62,303.64L173.53,303.7L173.71,303.89L174.62,303.73L174.8,303.82L176.07,303.68L176.25,303.77L177.52,303.75L177.7,301.03L178.25,303.57L178.43,303.26L178.61,294.94L178.79,297.29L178.97,291.32L179.15,277.01L180.24,253.16L180.42,253.15L181.51,253.22L181.69,184.64L182.6,56.01L182.78,60.22L183.15,63.72L183.33,69.84L184.42,95.61L184.6,91.6L185.69,82.09L185.87,85.23L188.23,303.87L188.59,303.68L188.77,303.79L190.59,303.67L190.77,303.87L191.86,303.79L192.04,303.76L193.13,303.81L193.31,303.03L194.58,303.75L194.76,301.98L194.94,300.27L195.31,303.73L195.49,302.55L197.3,253.09L197.67,253.12L197.85,253.2L198.57,253.03L198.76,143.35L199.12,25.55L199.66,48.8L199.85,62.18L200.39,56.12L200.57,51.67L200.93,60.3L201.12,50.26L202.21,79.35L202.39,82.25L202.93,84.36L203.11,78.1L203.29,86.04L205.47,303.82L205.65,303.79L205.84,303.86L207.47,303.76L207.65,303.8L209.28,303.72L209.47,303.8L211.28,303.68L211.46,300.21L211.83,303.79L212.01,302.61L212.19,300.53L212.73,299.84L213.1,302.95L213.28,302.01L214.73,253.13L215.09,253.15L215.27,253.21L215.82,253.16L216,169.07L216.54,28.23L216.91,31.07L217.09,39.54L217.27,40.7L217.45,40.08L217.63,50.98L217.82,52.24L218,50.6L218.18,60.52L219.45,95.89L219.63,92.21L219.81,89.1L219.99,93.01L220.17,98.9L220.72,113.22L220.9,129.36L222.9,303.83L223.26,303.78L223.44,303.78L225.62,303.67L225.8,303.79L229.07,303.76L229.25,302.65L229.79,302.3L230.16,303.75L230.34,303.62L230.52,303.73L230.7,302.81L232.7,253.16L232.88,253.21L233.79,253.23L233.97,157.94L234.88,67.66L235.06,62.67L235.42,60.48L235.6,69.52L235.78,69.38L235.97,88.01L236.15,86.49L236.33,77.68L237.06,135.31L237.24,113.73L237.42,96.08L237.6,112.9L237.96,93.49L238.14,102.35L238.33,90.16L239.96,280.92L240.14,301.78L240.5,303.91L241.05,303.83L241.23,303.87L242.14,303.78L242.32,303.77L243.95,303.75L244.13,303.78L245.77,303.81L245.95,303.76L248.13,303.62L248.31,302.1L249.76,253.08L250.12,253.37L250.31,253L251.21,253.38L251.39,253.08L252.48,65.14L252.67,65.39L253.57,108.85L253.94,107.83L254.12,101.51L254.48,100.01L254.66,101.49L254.84,115.04L255.21,114.91L256.48,219.56L256.66,239.06L257.93,303.93L258.11,303.66L259.2,303.91L259.38,303.65L260.47,303.72L260.65,303.78L265.73,303.77L265.92,302.5L267.19,253.16L267.37,253.2L267.55,253.13L268.46,253.16L268.64,253.2L269.18,253.48L269.36,111.64L269.55,64.36L270.27,67.45L270.45,80.17L270.82,77.3L271.91,101.92L272.09,115.31L272.81,95.78L272.99,112.18L274.99,303.93L275.54,303.84L275.72,303.71L277.9,303.84L278.08,303.67L279.53,303.84L279.71,303.69L280.98,303.81L281.16,303.73L283.16,303.66L283.34,298.4L284.61,253.08L284.79,253.14L285.7,253.2L285.88,253.1L286.61,253.38L286.79,124.15L287.15,61.79L287.52,69.61L287.7,70.96L288.61,98.77L288.79,97.73L288.97,101.4L289.15,100.71L289.33,105.37L289.88,188.17L290.06,155.41L290.24,112.51L290.42,111.45L290.6,129.62L290.78,127.73L290.96,141.72L292.6,303.88L292.78,303.74L292.96,303.84L294.96,303.7L295.14,303.74L297.14,303.85L297.32,303.67L298.77,303.79L298.95,303.8L300.58,303.66L300.77,300.43L301.13,298.51L301.31,286.69L302.4,253.08L302.58,253.34L303.67,253.26L303.85,253.33L304.58,253L304.76,164.02L304.94,83.97L305.49,100.75L305.67,104.61L305.85,102.74L306.03,110.31L306.21,114.88L306.57,109.74L306.76,102.86L307.3,91.61L307.48,96.24L307.66,105.28L310.02,303.87L310.21,303.82L310.39,303.8L318.01,303.75L318.19,297.98L318.37,296.31L318.55,298.36L318.74,284.88L319.83,253.06L320.01,253.44L320.19,253.23L321.28,253.27L321.46,253.38L322,253.27L322.18,84.65L322.91,128.34L323.27,117.42L323.46,106.11L324.54,128.16L324.73,124.91L324.91,112.73L325.27,132.1L325.45,146.43L326.72,236.23L326.9,257.81L327.63,304L327.81,303.71L327.99,303.85L329.81,303.7L329.99,303.82L331.08,303.64L331.26,303.83L333.08,303.7L333.26,303.88L334.16,303.73L334.35,303.81L335.62,303.73L335.8,296.67L335.98,296.33L336.16,291.69L336.89,253.36L337.07,254.21L337.25,253.23L339.25,253.34L339.43,254.14L340.34,253.29L340.52,253.29L341.43,253.21L341.61,253.34L341.97,253.22L342.15,182.27L342.33,116.38L342.88,137.42L343.06,155.29L345.06,303.89L345.24,303.78L345.42,303.85L346.87,303.65L347.05,303.84L348.5,303.74L348.69,303.78L350.68,303.75L350.86,303.77L352.68,303.76L352.86,301.41L354.86,253.09L355.04,253.08L355.95,253.3L356.13,253.15L356.85,253.37L357.04,253.17L357.22,105.38L357.58,84.04L357.94,100.97L358.12,117.76L358.31,116.33L358.49,117.63L358.67,127.95L359.21,130.39L359.94,106.6L360.12,111.84L360.3,114.12L360.48,132.19L362.12,303.99L362.48,303.94L362.66,303.74L365.75,303.84L365.93,303.69L367.2,303.75L367.38,303.75L369.92,303.74L370.1,303.15L370.29,303.26L370.47,295.75L371.19,254.26L371.56,255.67L371.74,253.18L373.73,253.39L373.92,84.25L374.64,43.02L375.01,60.7L375.19,62.98L376.64,129.86L376.82,121.19L377,113.34L378.82,233.67L379,269.05L380.09,303.9L380.27,303.67L381.54,303.76L381.72,303.69L383.17,303.77L383.35,303.77L386.44,303.56L386.62,302.72L386.8,303.81L387.35,302.66L387.53,303.15L387.89,290.17L388.07,286.5L389.16,254.99L389.34,253.3L390.8,253.37L390.98,252.6L391.34,253.27L391.52,58.55L391.7,26.58L392.07,75.76L392.25,57.09L392.43,46.39L392.61,56.68L392.97,37.9L393.16,47.23L393.34,46.18L394.61,93.93L394.79,103.88L396.42,240.02L396.61,258.78L397.15,303.89L397.69,303.84L397.88,303.67L399.15,303.87L399.33,303.69L404.95,303.75L405.14,297.37L406.41,253.11L406.59,253.21L406.77,253.26L407.68,253.21L407.86,136.38L408.77,21.72L408.95,33.32L409.31,27.15L409.49,36.99L409.67,34.81L409.86,38.5L410.04,46.12L410.22,45.13L410.4,48.84L411.13,67.47L411.31,57.94L411.49,56.37L413.49,184.27L413.67,203.61L414.76,303.85L414.94,303.82L415.12,303.72L417.48,303.75L417.66,303.77L421.47,303.81L421.65,302.79L421.84,299.59L422.2,303.62L422.38,303.75L422.74,295.56L422.92,290.42L423.29,288.13L423.47,296.41L424.38,253.06L424.56,253.75L424.74,253.61L426.01,252.89L426.19,116.25L427.1,50.47L427.28,56.89L428.73,102.06L428.91,91.14L429.1,82.49L429.28,118.16L429.46,118.45L429.64,100.25L430.37,223.91L430.73,212.81L430.91,230.08L431.09,224.42L431.27,238.28L431.46,268.54L432.54,303.82L432.73,303.67L433.82,303.77L434,303.78L437.99,303.7L438.17,302.96L439.26,303.78L439.44,303.75L439.99,301.92L440.17,294.76L440.53,303.5L440.71,299.43L440.89,283.44L441.44,253.09L441.8,253.28L441.98,253.12L443.07,253.24L443.25,157.42L444.16,45.99L444.34,60.97L444.71,57.52L444.89,67.88L445.07,67.69L445.25,76.68L445.98,99.71L446.16,96.11L446.34,92.91L446.52,97.82L446.88,87.86L447.07,86.89L447.61,129.31L447.79,147.69L449.61,303.87L449.97,303.71L450.15,303.83L451.6,303.77L451.78,303.8L453.06,303.76L453.24,303.78L454.87,303.7L455.05,303.81L457.59,303.79L457.77,299.84L458.5,256.42L458.68,264.41L458.86,277.34L459.77,252.9L459.95,253.18L460.32,253.63L460.5,252.85L460.68,253.63L460.86,252.76L461.04,253.24L461.22,100L461.41,70.33L461.77,98.47L461.95,131.08L462.68,86.35L462.86,73.12L463.04,72.73L463.22,79.55L463.4,80.13L463.58,79.21L463.76,82.67L463.95,78.31L464.13,87.99L464.31,98.57L465.22,157.16L465.4,178.46L466.85,303.92L467.21,303.88L467.39,303.71L474.66,303.79L474.84,303.22L476.65,253.12L476.83,253.53L477.02,255.58L477.38,253.12L477.56,252.64L477.92,253.87L478.29,253.22L478.47,253.16L478.83,253.43L479.01,189.83L479.19,54.61L479.74,170.94L479.92,219.87L480.1,207.15L480.28,128.94L480.65,67.16L481.01,104.53L481.19,110.55L481.37,90.9L481.92,104.5L482.1,111.93L483.19,209.97L483.37,245.63L484.09,303.98L484.46,303.79L484.64,303.76L492.26,303.78L492.44,302.5L493.17,280.46L493.53,281L493.71,259.57L494.62,252.85L494.8,253.01L495.53,253.51L495.71,253.13L495.89,252.05L496.44,45.24L496.8,58.34L496.98,51.9L498.25,94.6L498.43,83.42L498.62,80.15L498.8,85.65L498.98,95.74L500.25,186.99L500.43,197.72L501.88,303.93L502.06,303.67L502.25,303.85L503.15,303.62L503.33,303.87L504.24,303.72L504.42,303.77L509.69,303.76L509.87,301.98L510.59,265.24L510.78,253.19L512.77,253.29L512.95,240.66L513.14,38.94L513.86,51.21L514.04,52.26L514.23,47.2L514.41,55.23L514.59,63.66L514.95,61.15L515.13,72.38L515.31,72.99L515.5,72.76L515.68,79.13L515.86,79.4L516.04,73.21L516.58,84.66L516.77,82.87L516.95,97.76L519.31,303.88L519.49,303.67L519.67,303.82L520.76,303.72L520.94,303.78L527.29,303.38L527.48,296.87L528.75,252.82L528.93,253.38L529.11,253.41L530.02,253.03L530.2,253.45L531.11,253.27L531.29,108.36L531.65,117.1L531.83,79.81L532.56,64.17L532.92,68.68L533.1,70.32L533.28,70.83L533.47,73.91L533.83,83.3L534.01,135.58L534.37,237.02L534.74,144.8L534.92,139.59L535.83,303.9L536.01,303.67L536.19,303.87L537.1,303.67L537.28,303.84L538.55,303.8L538.73,303.72L540,303.77" style="vector-effect: non-scaling-stroke; fill: none; stroke: rgb(0, 191, 255); stroke-opacity: 1; stroke-width: 2px; opacity: 1;"/></g><g class="points"/><g class="text"/></g></g></g><g class="overplot"/><path class="xlines-above crisp" d="M0,0" style="fill: none;"/><path class="ylines-above crisp" d="M0,0" style="fill: none;"/><g class="overlines-above"/><g class="xaxislayer-above"><g class="xtick"><text text-anchor="middle" x="0" y="433" transform="translate(114.85,0)" style="font-family: 'Open Sans', verdana, arial, sans-serif; font-size: 12px; fill: rgb(42, 63, 95); fill-opacity: 1; white-space: pre; opacity: 1;"><tspan class="line" dy="0em" x="0" y="433">Jul 3</tspan><tspan class="line" dy="1.3em" x="0" y="433">2022</tspan></text></g><g class="xtick"><text text-anchor="middle" x="0" y="433" style="font-family: 'Open Sans', verdana, arial, sans-serif; font-size: 12px; fill: rgb(42, 63, 95); fill-opacity: 1; white-space: pre; opacity: 1;" transform="translate(236.83,0)">Jul 10</text></g><g class="xtick"><text text-anchor="middle" x="0" y="433" style="font-family: 'Open Sans', verdana, arial, sans-serif; font-size: 12px; fill: rgb(42, 63, 95); fill-opacity: 1; white-space: pre; opacity: 1;" transform="translate(358.8,0)">Jul 17</text></g><g class="xtick"><text text-anchor="middle" x="0" y="433" style="font-family: 'Open Sans', verdana, arial, sans-serif; font-size: 12px; fill: rgb(42, 63, 95); fill-opacity: 1; white-space: pre; opacity: 1;" transform="translate(480.78,0)">Jul 24</text></g><g class="xtick"><text text-anchor="middle" x="0" y="433" style="font-family: 'Open Sans', verdana, arial, sans-serif; font-size: 12px; fill: rgb(42, 63, 95); fill-opacity: 1; white-space: pre; opacity: 1;" transform="translate(602.76,0)">Jul 31</text></g></g><g class="yaxislayer-above"><g class="ytick"><text text-anchor="end" x="79" y="4.199999999999999" transform="translate(0,353.28999999999996)" style="font-family: 'Open Sans', verdana, arial, sans-serif; font-size: 12px; fill: rgb(42, 63, 95); fill-opacity: 1; white-space: pre; opacity: 1;">0</text></g><g class="ytick"><text text-anchor="end" x="79" y="4.199999999999999" style="font-family: 'Open Sans', verdana, arial, sans-serif; font-size: 12px; fill: rgb(42, 63, 95); fill-opacity: 1; white-space: pre; opacity: 1;" transform="translate(0,286)">20</text></g><g class="ytick"><text text-anchor="end" x="79" y="4.199999999999999" style="font-family: 'Open Sans', verdana, arial, sans-serif; font-size: 12px; fill: rgb(42, 63, 95); fill-opacity: 1; white-space: pre; opacity: 1;" transform="translate(0,218.70999999999998)">40</text></g><g class="ytick"><text text-anchor="end" x="79" y="4.199999999999999" style="font-family: 'Open Sans', verdana, arial, sans-serif; font-size: 12px; fill: rgb(42, 63, 95); fill-opacity: 1; white-space: pre; opacity: 1;" transform="translate(0,151.42000000000002)">60</text></g></g><g class="overaxes-above"/></g></g><g class="polarlayer"/><g class="smithlayer"/><g class="ternarylayer"/><g class="geolayer"/><g class="funnelarealayer"/><g class="pielayer"/><g class="iciclelayer"/><g class="treemaplayer"/><g class="sunburstlayer"/><g class="glimages"/><defs id="topdefs-c9e3c6"><g class="clips"/></defs><g class="layer-above"><g class="imagelayer"/><g class="shapelayer"/></g><g class="infolayer"><g class="g-gtitle"><text class="gtitle" x="350" y="50" text-anchor="middle" dy="0em" style="font-family: 'Open Sans', verdana, arial, sans-serif; font-size: 17px; fill: rgb(42, 63, 95); opacity: 1; font-weight: normal; white-space: pre;"><tspan class="line" dy="0em" x="350" y="50">Scenario 3</tspan><tspan class="line" dy="1.3em" x="350" y="50">Microgrid Output</tspan><tspan class="line" dy="2.6em" x="350" y="50">From: July 01, 2022 to July 31, 2022</tspan></text></g><g class="g-xtitle"><text class="xtitle" x="350" y="476.409375" text-anchor="middle" style="font-family: 'Open Sans', verdana, arial, sans-serif; font-size: 14px; fill: rgb(42, 63, 95); opacity: 1; font-weight: normal; white-space: pre;">Time</text></g><g class="g-ytitle"><text class="ytitle" transform="rotate(-90,40.840625,260)" x="40.840625" y="260" text-anchor="middle" style="font-family: 'Open Sans', verdana, arial, sans-serif; font-size: 14px; fill: rgb(42, 63, 95); opacity: 1; font-weight: normal; white-space: pre;">Demand (kW)</text></g></g></svg>