<svg class="main-svg" xmlns="http://www.w3.org/2000/svg" xmlns:xlink="http://www.w3.org/1999/xlink" width="700" height="500" style="" viewBox="0 0 700 500"><rect x="0" y="0" width="700" height="500" style="fill: rgb(255, 255, 255); fill-opacity: 1;"/><defs id="defs-aa47e7"><g class="clips"><clipPath id="clipaa47e7xyplot" class="plotclip"><rect width="437" height="320"/></clipPath><clipPath class="axesclip" id="clipaa47e7x"><rect x="80" y="0" width="437" height="500"/></clipPath><clipPath class="axesclip" id="clipaa47e7y"><rect x="0" y="100" width="700" height="320"/></clipPath><clipPath class="axesclip" id="clipaa47e7xy"><rect x="80" y="100" width="437" height="320"/></clipPath></g><g class="gradients"/><g class="patterns"/></defs><g class="bglayer"/><g class="layer-below"><g class="imagelayer"/><g class="shapelayer"/></g><g class="cartesianlayer"><g class="subplot xy"><g class="layer-subplot"><g class="shapelayer"/><g class="imagelayer"/></g><g class="minor-gridlayer"><g class="x"/><g class="y"/></g><g class="gridlayer"><g class="x"><path class="xgrid crisp" transform="translate(108.2,0)" d="M0,100v320" style="stroke: rgb(255, 255, 255); stroke-opacity: 1; stroke-width: 1px;"/><path class="xgrid crisp" transform="translate(206.91,0)" d="M0,100v320" style="stroke: rgb(255, 255, 255); stroke-opacity: 1; stroke-width: 1px;"/><path class="xgrid crisp" transform="translate(305.62,0)" d="M0,100v320" style="stroke: rgb(255, 255, 255); stroke-opacity: 1; stroke-width: 1px;"/><path class="xgrid crisp" transform="translate(404.33,0)" d="M0,100v320" style="stroke: rgb(255, 255, 255); stroke-opacity: 1; stroke-width: 1px;"/><path class="xgrid crisp" transform="translate(503.05,0)" d="M0,100v320" style="stroke: rgb(255, 255, 255); stroke-opacity: 1; stroke-width: 1px;"/></g><g class="y"><path class="ygrid crisp" transform="translate(0,368.48)" d="M80,0h437" style="stroke: rgb(255, 255, 255); stroke-opacity: 1; stroke-width: 1px;"/><path class="ygrid crisp" transform="translate(0,195.13)" d="M80,0h437" style="stroke: rgb(255, 255, 255); stroke-opacity: 1; stroke-width: 1px;"/><path class="ygrid crisp" transform="translate(0,108.46000000000001)" d="M80,0h437" style="stroke: rgb(255, 255, 255); stroke-opacity: 1; stroke-width: 1px;"/></g></g><g class="zerolinelayer"><path class="yzl zl crisp" transform="translate(0,281.81)" d="M80,0h437" style="stroke: rgb(255, 255, 255); stroke-opacity: 1; stroke-width: 2px;"/></g><path class="xlines-below"/><path class="ylines-below"/><g class="overlines-below"/><g class="xaxislayer-below"/><g class="yaxislayer-below"/><g class="overaxes-below"/><g class="plot" transform="translate(80,100)" clip-path="url(#clipaa47e7xyplot)"><g class="scatterlayer mlayer"><g class="trace scatter tracea6c617" style="stroke-miterlimit: 2; opacity: 0.5;"><g class="fills"/><g class="errorbars"/><g class="lines"><path class="js-line" d="M0,184.26L0.29,190.07L0.44,183.55L0.59,188.67L0.73,183.52L1.03,183.27L1.18,189.75L1.47,186.97L1.62,183.1L1.91,182.9L2.06,189.7L2.35,183.91L2.5,182.33L2.64,184.66L2.94,181.81L3.23,182.51L3.38,182.72L3.67,181.81L3.82,245.25L4.55,171.7L4.7,175.63L4.85,156.5L4.99,167.7L5.14,145.48L5.29,167.08L5.43,135.19L5.73,122.19L6.32,178.38L6.46,174.29L6.61,100.8L7.05,242.6L7.2,152.89L7.34,218.02L7.49,110.46L8.08,150.02L8.23,183.98L8.37,102.74L8.96,106.13L9.11,163.31L9.25,181.91L9.99,181.81L10.14,181.81L11.02,182.55L11.16,185.01L11.6,207.02L11.9,200.72L12.05,186.48L12.19,196.05L12.63,185.15L12.78,194.22L12.93,184.91L13.66,184.25L13.81,193.2L13.95,184.66L14.1,188.55L14.25,183.9L14.54,187.58L14.69,182.96L15.28,182.88L15.42,188.86L15.57,183.57L15.72,184.69L15.86,182.53L16.01,183.3L16.16,182.18L16.45,183.63L16.75,182.3L16.89,181.93L17.04,183.55L17.33,181.81L17.48,248.29L17.63,153.44L18.21,185.78L18.36,181.81L18.51,217.79L18.8,150.05L18.95,168.73L19.1,149.14L19.54,161.77L19.68,137.06L19.83,205.7L20.42,108.23L20.71,120.48L20.86,165.22L21.01,114.7L21.45,155.79L21.59,178.67L22.47,181.81L22.62,181.81L25.27,181.81L25.41,183.61L26,195.69L26.29,192.84L26.44,184.52L27.03,184.31L27.17,190L27.32,183.79L27.47,192.66L27.91,183.65L28.06,186.99L28.2,183.07L28.79,182.93L28.94,188.24L29.08,183.42L29.23,183.38L29.38,182.2L29.82,181.81L29.97,182.6L30.11,185.28L30.41,181.81L30.55,181.81L30.7,181.81L31.14,183.34L31.43,181.81L31.58,181.81L32.02,181.81L32.17,247.94L32.32,146.47L32.9,146.94L33.05,165.5L33.78,113.46L33.93,165.9L34.81,181.81L34.96,181.81L38.63,181.81L38.78,205.53L39.07,219.21L39.22,161.24L39.51,186.72L39.66,190.27L39.95,190.74L40.39,185.82L40.54,190.83L41.28,183.56L41.42,185.51L41.72,182.31L41.86,186.15L42.16,181.87L42.6,186.35L42.75,182.95L42.89,181.81L43.04,185.12L43.63,181.89L43.77,181.96L44.65,181.85L44.8,251.61L45.24,152.13L45.54,168.51L45.68,208.04L46.56,181.81L46.71,176.03L46.86,170.19L47.01,201.52L47.45,126.42L47.74,180.62L47.89,181.81L48.47,104.2L48.62,142.88L48.77,97.79L48.91,201.62L49.36,111.29L49.5,152.89L50.38,181.81L50.53,181.81L53.32,181.81L53.47,183.7L53.62,185.32L53.76,208.37L54.06,212.11L54.5,192.02L54.64,208.67L54.94,210.46L55.08,181.79L55.52,186L55.67,185.04L55.97,182.49L56.11,187.1L56.99,181.82L57.14,183.61L57.29,185.97L57.58,182L57.73,182.54L57.87,182.91L58.17,184.08L58.46,181.81L58.61,192.63L59.2,181.81L59.49,183L59.64,181.81L60.81,181.81L60.96,177.23L61.11,173.36L61.25,179.8L61.4,215.12L61.84,136.14L62.13,178.27L62.28,179.95L62.43,100.15L62.58,207.4L63.02,127.75L63.16,150.12L63.6,120.97L63.75,168.16L64.63,181.81L64.78,181.81L67.57,181.81L67.72,188.15L68.01,186.02L68.16,199.6L68.3,186.11L68.45,195.46L68.89,184.8L69.04,192.02L69.19,184.36L69.77,182.9L69.92,191.38L70.07,184.2L70.65,182.48L70.8,186.41L70.95,182.96L71.1,183.85L71.24,182.32L71.39,182.52L71.54,188.15L72.42,182.13L72.56,184.77L72.71,182.55L72.86,182.72L73,192.86L73.89,181.81L74.03,181.81L74.62,181.32L74.77,176.65L74.91,175.69L75.06,161.02L75.21,218.48L75.8,185.43L75.94,183.12L76.09,176.12L76.24,180.39L76.38,123.5L76.53,165.95L76.97,106.3L77.12,163.19L77.26,114.31L78.15,181.81L78.29,181.81L81.67,181.81L81.82,185.16L82.26,202.89L82.55,193.71L82.7,187.2L82.99,184.02L83.14,194.51L83.43,191.13L83.58,184.14L83.73,193.66L84.17,183.37L84.32,184.95L84.46,182.59L85.2,189.71L85.34,183.79L85.64,185.38L86.22,181.81L86.37,185.5L86.52,247.74L86.67,154.42L87.11,202.95L87.25,185.11L87.69,181.81L87.99,181.88L88.13,189.22L89.16,167.79L89.31,170.37L89.46,211.72L90.34,129.57L90.48,125.57L90.63,126.4L90.78,121.48L91.81,181.81L91.95,181.81L95.77,181.81L95.92,192.87L96.07,187.94L96.21,196.66L96.36,189.28L96.51,265.4L96.95,157.45L97.39,200.2L97.54,187.49L97.68,190.69L97.83,184.03L98.12,188.15L98.27,183.14L98.56,183.1L98.71,189.52L99,188.29L99.15,183.43L99.45,182.91L99.59,181.99L99.74,189.02L100.33,183.16L100.47,185.03L100.62,182.53L100.77,192.41L100.91,184.81L101.06,192.12L101.94,181.81L102.09,182.54L102.53,189.21L102.68,183.61L102.82,181.81L102.97,181.81L103.12,178.72L104.29,144.94L104.44,137.83L104.59,203.9L105.17,129.58L105.32,176.75L105.47,171.63L105.61,103.33L106.5,181.81L106.64,181.81L108.99,181.81L109.14,203.88L109.29,199.23L109.43,215.43L109.58,162.62L110.46,201.26L110.61,199.69L110.9,209.8L111.49,184.12L111.64,192.7L112.08,183.45L112.37,183.74L112.52,188.31L112.67,183.43L112.81,190.08L113.25,183.8L113.4,184.51L113.55,185.05L113.69,184.99L113.84,182.44L114.43,181.89L114.72,188.98L114.87,183.59L115.02,183.85L115.16,182.32L115.31,258.82L115.75,182.02L115.9,183.84L116.04,182.3L116.19,183.15L116.48,181.81L116.63,181.81L116.78,181.81L116.93,181.81L117.07,177.58L117.37,179.46L118.69,140.93L118.83,150.87L118.98,148.64L119.13,161.3L119.57,141.12L119.72,177.18L119.86,179.92L120.01,170.66L120.16,105.57L121.04,181.81L121.18,181.81L122.8,181.81L122.95,204.84L123.09,210.29L123.24,196.31L123.39,175.2L124.27,198.67L124.71,194.23L124.86,193.08L125.44,183.18L125.59,193.56L126.47,183.5L126.62,187.68L127.35,182.99L127.5,188.01L127.94,182.82L128.24,183.33L128.38,207.57L129.26,183.81L129.41,182.31L129.56,184.92L129.7,249.97L129.85,151.77L130.44,182.33L130.59,182.26L130.73,182.36L130.88,241.89L131.17,267.13L131.61,143.65L131.76,171.81L132.5,124.99L132.64,151.18L133.08,115.1L133.23,154.4L133.38,178.81L133.52,175.7L133.67,111.62L134.11,164.07L134.26,103.05L134.41,162.12L134.55,100.93L135.43,181.81L135.58,181.81L137.64,181.81L137.78,184.62L137.93,182.69L138.08,205.91L138.22,187.82L138.37,212.46L138.81,195.32L138.96,204.49L139.4,187.01L139.55,209.09L139.69,188.63L139.84,196.23L139.99,197.6L140.13,189.38L140.28,198.12L140.43,185.6L140.72,193.01L140.87,184.32L141.02,191.07L141.46,183.23L141.6,189.74L141.75,183.79L142.04,183.2L142.48,189.48L142.63,183.73L142.92,184.17L143.07,185.21L143.95,181.81L144.1,186.03L144.69,181.81L144.98,182.1L145.13,181.81L146.3,162.02L146.45,143.73L146.74,122.64L146.89,206.38L147.04,82.52L147.48,184.41L147.77,162.02L147.92,117.58L148.07,221.06L148.65,168.01L148.8,181.81L152.03,181.81L152.18,189.19L152.33,184.38L152.47,197.63L152.77,193.44L152.91,194.73L153.21,205.32L153.35,190.48L153.5,196.72L153.65,198.04L154.24,200.08L154.38,186.29L154.53,202.4L155.26,183.55L155.41,186.75L155.56,183.04L155.7,186.43L155.85,182.96L156.14,184.28L156.29,182.22L156.73,185.93L156.88,182.84L157.03,181.81L158.05,190.71L158.2,189.44L158.35,183.17L158.79,181.81L158.94,245.87L159.82,160.79L159.96,172.52L160.99,124.42L161.14,172.52L161.43,114.41L161.87,142.92L162.02,175.33L162.9,181.81L163.05,181.81L166.13,182.07L166.28,195.27L166.57,198.87L167.01,186.37L167.16,190.39L167.31,196.42L168.04,183.47L168.19,190.95L168.92,182.86L169.07,187.91L169.95,181.98L170.1,185.75L170.39,181.81L170.98,182.14L171.13,181.81L171.42,183.03L171.57,194.12L171.86,197.19L172.3,182.62L172.45,182.97L172.6,248.98L173.48,181.01L173.62,181.61L175.09,137.07L175.24,132.58L175.68,129.86L176.56,181.81L176.71,181.81L179.94,181.81L180.09,188.18L180.23,183.4L180.38,198.93L180.53,201.06L181.12,193.53L181.26,219.52L181.41,191.03L181.56,212.79L182.14,193.64L182.29,194.82L182.59,201.05L183.03,186.09L183.17,186.94L183.32,183.09L184.05,190.66L184.2,184.02L184.35,186.12L184.49,182.89L184.79,183.13L184.94,182L185.67,200.03L185.82,186.35L186.26,192.69L186.4,184.5L186.55,181.81L186.7,183.72L187.14,181.81L187.29,240.7L187.43,145.56L188.02,160.91L188.17,175.98L188.31,165.29L188.46,167.69L188.61,205.66L188.75,119.34L189.34,131.96L189.49,169.35L189.93,119.24L190.22,166.92L190.37,178.09L190.96,126L191.1,168.7L191.25,113.86L191.84,155.08L191.99,171.18L192.13,140.02L192.57,172.7L192.72,181.81L193.9,181.81L194.04,187.08L194.19,183.17L194.34,197.8L194.48,195.66L194.63,190.68L194.78,214.22L195.36,214.37L195.51,189.54L195.66,203.8L196.39,185.83L196.54,193.31L196.98,183.92L197.13,193.89L197.27,184.83L197.42,189.27L197.71,189.81L198.16,183.26L198.3,186.97L198.89,182.48L199.18,182.89L199.33,181.81L200.21,196.04L200.36,185.37L200.8,181.81L201.09,182.66L201.24,187.32L202.27,169.32L202.42,220.92L203.15,133.97L203.3,193.24L204.33,108.85L204.47,163.92L204.62,124.87L205.06,170.05L205.21,147.33L205.35,152.8L205.5,149.64L205.65,175.04L206.53,181.81L206.68,181.81L208.29,181.81L208.44,192.88L208.58,184.58L208.88,198.21L209.03,190.79L209.17,202.02L209.76,189.78L209.91,204.79L210.2,206.65L210.64,186.61L210.79,192.33L211.52,183.75L211.67,192.22L212.4,183.27L212.55,184.62L212.7,187.51L213.29,182.03L213.43,190.52L214.02,182.05L214.17,187.48L214.31,188.15L214.46,187.61L214.61,265.75L214.75,150.25L215.34,151.93L215.49,208.28L215.78,221.75L215.93,201.12L216.08,217.49L216.22,144.45L216.66,176.41L216.96,157.6L217.1,159.26L217.84,107.58L217.99,159.09L218.28,208.91L218.72,101.24L218.87,171.61L219.31,129.35L219.45,227.06L219.9,141.84L220.34,162.14L220.48,135.4L221.36,179.74L221.51,181.81L221.66,181.81L221.81,237.89L222.25,155.94L222.54,174.5L222.69,208.86L222.83,189.64L223.42,192.89L223.57,195.42L224.01,197.6L224.3,187.78L224.45,196.44L224.89,184.15L225.18,185.21L225.33,188.91L225.77,183.03L225.92,191.75L226.51,183.26L226.65,192.11L226.8,184.38L226.95,190.66L227.39,183.07L227.68,191.19L227.83,189.59L228.12,192.11L228.27,183.89L228.71,194.96L228.86,184.52L229,194.22L229.3,181.81L229.44,181.81L229.59,181.81L229.74,185.78L229.88,252.81L230.47,172.13L230.77,188.66L230.91,186.72L231.35,121.48L231.65,132.68L231.79,148.68L232.23,127.07L232.38,158.19L232.53,134.03L232.67,153.02L232.82,125.94L232.97,168.94L233.12,134.16L233.26,215.7L233.56,220.88L234,136.89L234.14,162.07L234.29,137.8L234.58,171.55L234.88,152.16L235.03,140.34L235.32,138.06L235.76,173.44L235.91,166.39L236.93,206.27L237.08,202.02L237.23,211.9L238.4,187.27L238.55,189.23L238.7,191.17L238.84,186.14L239.14,188.93L239.29,185.87L239.73,188.4L239.87,184.3L240.17,183.91L240.61,193.53L240.75,184.74L241.34,184.67L241.64,189.75L241.78,183.58L242.22,193.13L242.37,256.3L242.52,150.59L243.1,178.71L243.25,194.8L244.13,181.81L244.28,181.81L244.43,181.81L244.57,173.41L244.87,207.35L245.01,192.11L245.16,163.09L245.31,176.88L245.45,151.88L245.6,174.33L245.75,141.06L246.04,133.57L246.19,212.48L246.48,204.64L246.63,150.34L246.92,142.24L247.07,155.67L247.22,137.3L247.51,181.16L247.66,182.13L247.8,181.81L247.95,126.63L248.1,161.77L248.69,148.79L248.83,146.07L249.27,156.98L249.42,176.87L249.57,157.46L250.01,180.15L250.15,181.81L250.45,181.81L250.6,191.19L250.74,188.92L250.89,198.21L251.04,198.39L251.62,195.68L251.77,209.18L251.92,189.63L252.51,185.19L252.65,203.53L252.8,189.03L252.95,201.96L253.53,192.48L253.68,193.45L253.83,196.58L253.97,190.02L254.12,186.17L254.27,189.48L254.41,183.53L254.71,189.2L254.86,183.3L255.59,193.91L255.74,191.44L255.88,189.68L256.47,182.08L256.62,184.59L256.77,185.35L256.91,248.16L257.21,183.81L257.5,187.52L257.65,195.6L258.67,172.62L258.97,176.38L259.12,180.56L259.26,181.81L259.41,176.89L259.56,180.58L259.7,144L260,139.21L260.44,196.96L260.58,180.95L260.73,180.08L261.02,191.28L261.17,135.13L261.76,91.71L261.91,271.08L262.05,119.88L262.35,97.32L262.49,248.55L262.79,239.15L262.93,80.08L263.08,201.79L263.67,172.53L263.82,142.7L264.7,181.81L264.84,181.81L265.58,209.91L265.73,189.8L265.87,213.58L266.31,188.26L266.46,201.41L266.61,189.3L266.75,202.37L266.9,186.79L267.19,189.67L267.34,185.09L267.49,193.85L267.63,184.82L267.93,191.37L268.08,183.71L268.22,193.39L268.81,185.27L268.96,188.55L269.1,188.37L269.25,184.17L269.54,183.87L269.84,191.73L270.13,190.5L270.28,183.98L270.57,183.63L270.72,189.96L271.01,185.57L271.16,187.73L271.45,192.69L271.6,189.16L271.75,183.07L272.04,183.86L272.63,176.23L272.78,234.11L273.8,151.3L273.95,233.21L274.54,129.21L274.69,162.49L274.83,186.61L275.27,190.96L275.71,181.81L275.86,181.81L276.45,122.63L276.74,126.63L276.89,162.76L277.04,127.84L277.18,166.4L277.62,143.39L277.77,171.1L277.92,151.3L278.21,181.81L278.36,181.81L278.5,194.97L278.65,189.79L278.8,205.31L278.95,269.58L279.39,168.78L279.68,195.87L279.83,218.84L280.12,220.67L280.56,189.4L280.71,208.97L280.86,188.6L281.44,192.86L281.59,198.76L281.88,200.88L282.47,185.82L282.62,189.89L282.91,191.06L283.35,183.52L283.5,186.05L283.65,187.6L283.79,185.02L284.09,185.17L284.23,182.68L284.38,189.11L284.82,183.34L284.97,256.52L285.11,150.99L285.7,174.41L285.85,190.35L286.73,181.81L286.88,181.81L287.47,148.85L287.76,149.14L287.91,171.87L288.35,116.61L288.49,161.64L288.64,179.21L288.79,177.86L288.93,116.35L289.37,202.61L289.67,143.57L289.82,145.37L290.4,195.64L290.55,138.04L290.7,170L291.28,154.39L291.43,160.27L291.73,172.2L291.87,151.62L292.02,174.51L292.17,172.15L292.31,179.39L292.46,184.4L292.61,182.46L292.75,193.4L293.05,185.11L293.19,209.81L293.34,188.81L293.63,188.05L294.08,206.93L294.22,188.06L294.37,194.09L294.52,184.88L294.96,189.23L295.1,186.2L295.25,188.11L295.54,185.43L295.69,187.58L295.84,185.61L296.13,190.89L296.28,183.98L296.43,192.16L296.87,184.13L297.16,184.32L297.31,185.23L297.6,188.15L297.75,183.32L298.19,183.71L298.34,182.38L298.92,192.61L299.07,184.29L299.22,184.31L299.66,181.96L299.8,182.84L299.95,242.71L300.1,143.22L300.24,281.02L300.69,169.15L300.83,177.2L301.86,129.12L302.01,211.9L302.45,102.48L302.74,118.88L302.89,165.15L303.18,199.36L303.62,109.64L303.77,164.89L303.92,113.54L304.5,151.52L304.65,141.88L304.8,173.45L305.39,170.14L305.53,135.96L305.83,122.12L306.27,172.35L306.41,157.97L307.3,189.16L307.44,187.69L307.74,198.23L307.88,186.45L308.03,208.83L308.62,196.61L308.76,192.19L308.91,197.77L309.06,186.81L309.21,190.33L309.35,183.85L309.79,183.36L309.94,191.27L310.23,189.23L310.38,184.44L310.67,183.31L310.82,189.5L311.11,186.94L311.26,183.36L311.56,182.92L311.7,186.85L312,183.63L312.14,182.51L312.44,190.66L312.73,184.59L312.88,182.44L313.02,181.81L313.17,186.04L313.46,182.65L313.61,189.71L313.91,183.91L314.05,183.95L314.64,181.81L314.79,186.18L314.93,182.9L315.08,242.44L315.23,139.25L315.82,190.79L315.96,160.2L316.11,158.56L316.26,158.81L316.4,214L317.28,115.41L317.43,165.21L317.58,99.38L318.17,129.54L318.31,165.58L318.46,128.19L318.9,182.11L319.05,181.81L319.19,122.54L319.78,134.68L319.93,168.09L320.07,139.23L320.52,179.19L320.66,180.46L320.96,181.81L321.1,189.5L321.25,190.58L321.4,186.96L321.54,199.41L321.69,185.99L322.28,191.14L322.43,189.69L322.57,184.26L322.72,192.66L323.01,191.96L323.16,192.7L323.45,184.69L324.04,186.95L324.19,185.19L324.48,184.22L324.63,188.12L325.22,182.44L325.36,185.04L325.51,184.29L325.95,182.55L326.1,186.38L326.98,181.96L327.13,192.59L327.27,192.85L327.42,197.34L327.86,184.94L328.01,244.52L328.15,148.78L328.74,170.36L328.89,177.78L329.77,145.52L329.92,194.48L330.65,110.36L330.94,122.18L331.09,145.61L331.24,122.25L331.68,159.29L331.83,123.71L331.97,157.91L332.27,158.73L332.71,111.02L332.85,158.5L333,99.62L333.44,162.06L333.59,120.82L333.74,166.56L333.88,121.94L334.03,233.73L334.18,162.3L334.32,234.03L334.47,119.82L335.06,162.67L335.2,192.24L335.35,176.1L335.79,194.4L335.94,191.53L336.09,192.26L336.38,192.39L336.53,188.26L336.82,188.06L336.97,186.15L337.41,183.27L337.55,191.13L337.7,184.12L337.85,188.63L338,183.51L338.44,185L338.58,184.26L338.73,184.28L338.88,182.81L339.02,189.24L339.61,183.28L339.76,182.98L339.91,182.59L340.05,255.87L340.93,181.81L341.08,182.34L341.23,186L341.52,181.81L341.81,184.83L341.96,182.57L342.7,181.81L342.84,182.88L343.14,178.29L343.28,179.31L343.43,170.25L343.72,210.34L344.17,181.81L344.31,165.42L344.46,163.38L344.61,142.61L344.9,114.67L345.05,204.1L345.34,140.38L345.49,129.25L345.78,125.17L346.81,164.09L346.96,180.97L347.1,182.16L347.25,116.22L347.4,224.53L347.98,192.12L348.13,139.38L348.28,194.82L348.87,178.05L349.01,180.87L349.31,186.17L349.45,182.9L349.6,200.3L350.33,186.02L350.48,203.24L351.07,185.37L351.36,186.67L351.51,189.24L351.95,189.77L352.1,183.41L352.24,190.04L352.98,182.85L353.13,188.85L353.42,189.54L353.71,181.81L354.01,183.59L354.15,183.23L354.3,182.16L354.45,188.16L354.74,181.81L354.89,195.26L355.33,182.23L355.48,182.77L355.62,183.77L355.92,181.9L356.06,195.18L356.21,185.15L356.36,197.5L356.5,188.58L356.65,275.85L357.39,164.54L357.53,168.48L357.68,163.58L357.83,155.25L357.97,168.71L358.12,197.34L358.56,110.34L358.85,111.74L359,164.29L359.44,97.3L359.74,131.41L359.88,153.92L360.03,137.45L360.18,203.71L360.76,139.8L361.06,141.66L361.2,152.06L361.5,155.36L361.94,136.11L362.09,159.92L362.23,146.9L362.67,162.44L362.82,168.33L364,209.66L364.14,191.28L364.29,206.24L364.88,190.79L365.02,185.9L365.17,191.5L365.76,190.86L365.9,183.79L366.05,194.13L366.64,186.18L366.79,187.11L366.93,187.34L367.08,182.91L367.81,182.47L367.96,188.95L368.11,183.59L368.26,183.34L368.4,185.91L368.55,194.78L368.99,184.24L369.14,186.34L369.28,182.94L370.16,189.42L370.31,250.27L371.19,181.81L371.34,181.81L371.49,181.81L371.63,164.5L371.78,209.88L372.22,134.64L372.37,157.63L372.81,115.01L372.96,170.54L373.1,176.29L373.4,181.81L373.54,118.78L373.98,170.74L374.28,158.79L374.42,135.45L374.57,199.58L375.01,115.58L375.16,159.72L375.31,115.59L375.6,112.54L376.19,181.81L376.33,181.81L377.51,181.81L377.66,183.54L377.95,196.62L378.1,185.82L378.24,204.61L378.83,196.46L378.98,185.26L379.86,201.34L380.01,186.69L380.3,184.73L380.45,193.75L380.74,192.66L380.89,184.52L381.03,188.99L381.18,184.11L381.48,186.27L381.62,183.32L381.77,188.07L382.21,186.47L382.36,182.81L382.5,185.7L382.94,182.55L383.09,185.37L383.24,182.7L383.53,185.56L383.83,184.31L383.97,182.44L384.27,184.46L384.56,181.81L384.71,181.81L385.29,182.09L385.44,243.27L386.32,165.27L386.47,165.27L386.62,112.86L386.76,207.74L387.06,164.21L387.2,181.58L387.35,172.1L387.64,185.28L387.79,106.63L388.53,187.88L388.67,153.39L388.82,151.73L388.97,141.67L389.26,198.8L389.41,187.44L389.55,138.17L390.58,181.81L390.73,181.81L391.46,181.81L391.61,183.35L392.2,204.32L392.49,203.09L392.64,187.25L392.79,268.2L393.37,186.12L393.52,194.7L393.67,184.81L394.25,185.79L394.4,189.82L394.55,183.7L394.99,192.2L395.14,184.41L395.28,190.17L395.58,191.69L396.16,183.77L396.31,188.26L396.75,183.03L397.05,183.75L397.19,184.58L397.49,186.49L397.78,181.94L397.93,186.88L398.07,183.08L398.22,183.73L398.37,252.31L398.51,154.45L399.1,184.92L399.25,185.7L400.13,165.35L400.28,178.22L400.72,186.84L401.01,120.83L401.16,166.84L401.6,102.36L401.89,105.62L402.04,176.54L402.19,111.12L402.77,136.03L402.92,170.36L403.07,153.68L403.22,174.45L403.36,159.71L403.51,188.73L403.8,181.81L403.95,136.41L404.83,181.81L404.98,181.81L405.57,181.81L405.71,189.21L405.86,183.66L406.01,193.24L406.15,184.67L406.3,204.08L406.45,187.38L406.59,213.93L406.74,189.84L406.89,225.36L407.62,190.47L407.77,205.19L408.5,184.57L408.65,188.64L408.8,187.08L408.94,182.85L409.09,192.1L409.24,184.37L409.38,192.49L410.27,182.59L410.41,189.3L411,182.49L411.29,183.24L411.44,183.3L412.03,182.3L412.18,187.27L412.32,249.43L412.47,154.51L413.06,181.39L413.2,180.25L413.5,136.83L413.64,276.31L413.79,81.74L413.94,237.87L414.53,225.12L414.67,100.45L414.82,165.36L415.41,157.73L415.55,115.23L415.99,180.16L416.14,114.74L416.29,165.04L416.44,121.31L416.73,119.69L417.17,208.64L417.32,147.05L417.46,193.63L417.61,91.66L418.05,163.99L418.2,111.21L419.08,181.81L419.23,181.81L419.96,181.81L420.11,195.93L420.25,256.32L420.7,177.46L420.84,212.24L420.99,190.69L421.14,201.24L421.58,185.21L421.72,193.45L421.87,185.24L422.02,192.99L422.6,187.96L422.75,187.15L423.05,185.59L423.19,190.93L423.34,183.94L423.49,193.79L424.07,191.93L424.22,184.34L424.37,190.71L424.81,183.87L424.95,185.91L425.1,186.88L425.4,187.77L425.54,183.23L425.69,184.89L425.84,187.6L425.98,183.06L426.13,189.94L426.42,185.04L426.57,255.26L426.72,146.74L427.31,207.57L427.45,220.3L428.04,151.23L428.33,167.92L428.48,178.34L428.77,144.16L428.92,203.22L429.8,123.91L429.95,214.44L430.39,115.14L430.83,153.97L430.98,111.64L431.12,214.38L431.71,205.71L431.86,187.1L432.3,155.87L432.45,180.44L432.59,183.16L432.74,157.15L433.77,203.85L433.92,187.05L434.21,185.98L434.65,204.64L434.8,187.45L435.24,213.69L435.53,198.27L435.68,191.74L435.82,197.66L436.41,195.14L436.56,196.8L436.85,200.02L437,185.95" style="vector-effect: non-scaling-stroke; fill: none; stroke: rgb(0, 191, 255); stroke-opacity: 1; stroke-width: 2px; opacity: 1;"/></g><g class="points"/><g class="text"/></g><g class="trace scatter tracef4b378" style="stroke-miterlimit: 2; opacity: 0.5;"><g class="fills"/><g class="errorbars"/><g class="lines"><path class="js-line" d="M0,182.02L3.23,181.85L3.38,181.14L4.11,155.24L4.26,143.21L6.32,16.43L6.46,16.49L6.61,16.45L9.4,16.93L9.55,19.53L12.19,182.03L12.34,182.04L17.33,181.85L17.48,181.23L18.07,166.47L18.21,155.64L20.27,16.24L20.56,16.3L20.71,16.26L23.21,16.55L23.36,16.58L23.5,16.76L23.65,18.95L26.44,182.03L26.59,182.03L31.43,181.84L31.58,180.99L32.46,142.06L32.61,129.53L34.23,16.23L34.67,16.28L34.81,16.26L36.58,16.46L36.72,16.43L37.6,16.55L37.75,18.64L39.37,151.87L39.51,163.27L40.39,182.03L40.54,182.03L45.54,181.89L45.68,181.12L46.42,153.46L46.56,142.57L48.47,16.02L48.77,16.13L48.91,16.15L50.24,16.35L50.38,16.33L51.71,16.72L51.85,20.51L54.5,182.05L54.64,182.05L59.64,181.92L59.78,181.23L60.67,144.12L60.81,132.97L62.43,16L62.87,16.07L63.02,16.17L64.19,16.39L64.34,16.41L65.81,17.15L65.95,21.86L68.6,182.03L68.74,182.03L73.89,181.31L74.03,178.55L74.77,143.43L74.91,131.46L76.53,16.3L76.97,16.4L77.12,16.37L79.32,16.8L79.47,16.7L79.91,17.26L80.06,22.44L82.7,182.04L82.85,182.03L87.99,181.57L88.13,180.4L88.72,158.01L88.87,144.89L90.63,16.32L91.07,16.48L91.22,16.43L92.69,16.84L92.83,16.87L93.86,16.87L94.01,17.87L95.04,89.92L95.19,103.11L96.65,182.03L96.8,182.03L102.09,181.42L102.24,179.6L102.97,145.43L103.12,133.06L104.88,16.42L105.03,16.5L105.17,16.55L108.11,17.66L108.26,24.04L110.9,182.03L111.05,182.03L116.19,181.48L116.34,179.53L117.07,145.38L117.22,132.72L118.83,16.26L119.28,16.46L119.42,16.34L120.45,16.46L120.6,16.55L122.07,16.9L122.21,18.16L123.39,103.48L123.54,116.49L124.86,182.04L125,182.03L130.29,181.61L130.44,180.71L131.03,159.24L131.17,145.82L133.08,16.21L133.38,16.28L133.52,16.28L136.17,16.71L136.31,18.21L137.49,103.51L137.64,116.88L138.96,182.04L139.11,182.04L144.39,181.58L144.54,180.31L145.13,159.88L145.27,146.97L147.33,16.42L147.48,16.49L147.63,16.55L150.27,16.93L150.42,19.73L153.21,182.03L153.35,182.03L158.5,181.47L158.64,179.5L159.38,148.2L159.52,136.17L161.29,16.4L161.58,16.53L161.73,16.6L164.37,17.07L164.52,19.87L167.31,182.03L167.46,182.02L172.6,181.55L172.74,180.16L173.48,149.25L173.62,137.58L175.53,16.44L175.83,16.49L175.98,16.58L178.33,17.09L178.47,18.48L179.65,97.66L179.79,110.47L181.26,182.03L181.41,182.03L186.7,181.76L186.85,180.73L187.73,139.98L187.87,128.52L189.78,16.58L189.93,16.6L190.08,16.53L190.81,16.66L190.96,18.22L191.84,52.99L191.99,41.01L192.13,32.86L192.43,34.74L192.57,18.11L192.87,18.33L193.01,33.75L194.19,138.57L194.34,148.45L195.51,182.03L195.66,182.03L200.8,181.77L200.95,181.04L201.83,140.37L201.97,128.88L203.74,16.54L204.03,16.55L204.18,16.68L206.53,16.92L206.68,20.52L208.29,136.15L208.44,147.93L209.61,182.03L209.76,182.03L214.9,181.72L215.05,180.66L215.93,140.98L216.08,129.62L217.84,16.39L218.13,16.41L218.28,16.41L220.63,16.98L220.78,19.93L223.71,182.04L223.86,182.04L229,181.56L229.15,179.48L230.03,136.79L230.18,124.49L231.94,16.28L232.09,16.37L232.23,16.39L232.82,16.52L232.97,17.62L233.26,16.55L233.56,26.12L233.7,17.28L233.85,23.35L234.14,17.45L234.29,27.43L234.44,47.21L234.58,73.6L235.03,25.28L235.17,40.95L235.32,41.46L235.47,45.06L237.23,180.12L237.38,181.91L238.55,182.01L238.7,182.02L243.1,181.87L243.25,181.23L243.99,152.9L244.13,141.63L246.19,16.53L246.34,16.54L246.48,16.63L247.66,16.86L247.8,16.79L248.83,17.04L248.98,19.06L250.3,112.94L250.45,125.35L251.77,182.02L251.92,182.02L257.21,181.75L257.35,181.15L257.94,164.64L258.09,153.06L260.14,16.29L260.44,16.43L260.58,16.49L262.93,17.01L263.08,19.42L264.84,140.8L264.99,155.67L266.02,182.03L266.17,182.03L271.45,181.69L271.6,180.82L273.07,99.48L273.22,86.71L274.39,43.76L274.54,35.82L274.69,55.09L274.83,181.81L275.86,181.81L276.01,161.59L276.6,16.6L276.89,16.71L277.04,17.04L277.62,43.5L277.77,55.25L280.12,182.03L280.27,182.03L285.41,181.72L285.56,180.02L287.17,99.96L287.32,73.95L288.64,16.64L288.79,16.75L290.11,17.04L290.26,16.98L291.14,17.03L291.28,18.43L292.46,101.09L292.61,121.37L293.93,182.03L294.08,182.03L299.51,181.91L299.66,180.83L300.98,115.54L301.13,104.75L302.45,20.56L302.59,23.55L302.74,24.54L302.89,18.92L303.33,16.67L303.77,16.81L303.92,17.39L304.21,33.18L304.5,18.5L304.65,19.99L305.09,17.88L305.68,37.18L305.83,40.28L307.15,149.99L307.3,160.91L308.32,182.03L308.47,182.03L313.61,181.92L313.76,181.11L314.49,144.83L314.79,152.33L314.93,154.06L316.55,16.24L317.14,19.22L317.28,40.73L317.43,40.76L317.58,18.24L317.72,30.75L317.87,16.38L318.17,16.5L318.31,16.41L319.34,17.49L319.49,23L321.98,181.98L322.13,182.03L327.71,181.86L327.86,180.84L329.04,122.15L329.18,110.7L330.8,16.3L331.09,16.35L331.24,16.38L333.3,17.16L333.44,22.37L336.67,182.03L336.82,182.02L341.96,181.47L342.11,179.35L342.84,163.39L342.99,131.55L343.58,75.1L343.72,108.84L343.87,120.51L344.17,111.56L344.31,84.04L345.34,16.59L345.49,16.62L345.63,16.66L346.66,16.77L346.81,17.77L347.54,45.27L347.69,19.18L348.28,111.29L348.87,106.28L349.01,111.45L350.48,182.03L350.63,182.03L355.92,181.86L356.06,181.15L356.94,145.65L357.09,134.9L359.15,16.51L359.29,16.56L359.44,16.58L361.65,17.37L361.79,21.77L363.26,128.9L363.41,140.55L364.58,182.03L364.73,182.03L370.02,181.9L370.16,181L371.34,144.21L371.49,144.68L371.63,95.06L372.51,44.08L372.66,69.32L373.25,20.3L373.54,22.65L373.69,20.98L373.84,44.49L374.28,16.65L374.42,16.75L375.6,17.04L375.75,19.56L377.36,130.89L377.51,142.9L378.68,182.03L378.83,182.03L384.27,181.47L384.41,179.32L385.74,122.74L385.88,111.42L386.03,126.35L386.32,93.29L386.47,73.97L386.62,19.16L387.35,22.16L387.5,38.6L387.64,47.46L387.79,23.03L387.94,18.89L388.09,23.54L388.23,63.47L388.53,109.54L388.67,79.71L388.82,22.51L388.97,22.9L389.11,21.81L389.26,27.09L389.41,38.33L389.55,17.17L389.99,26.62L390.14,33.83L392.64,182.03L392.79,182.03L398.37,181.64L398.51,180.85L399.4,154.99L399.54,146.64L400.86,17.74L401.01,22.91L401.16,43L401.6,16.49L401.75,16.49L401.89,16.9L402.04,19.67L402.33,16.63L402.92,16.78L403.07,16.92L403.66,16.92L403.8,18.04L404.83,75.44L404.98,86.57L406.74,182.03L406.89,182.03L412.47,181.4L412.62,178.76L413.2,159.45L413.35,143.42L414.09,80.1L414.38,105.63L414.53,119.64L415.55,16.35L415.7,16.38L417.32,17.23L417.46,21.23L417.61,16.57L418.2,18.09L418.34,27.58L419.96,151.35L420.11,165.56L420.99,182.03L421.14,182.03L426.57,181.52L426.72,179.49L427.75,132.16L427.89,118.2L429.07,33.9L429.21,32.16L429.66,61.63L429.95,46.9L430.1,38.68L430.24,59.47L430.54,22.67L430.68,30.78L430.83,23.67L430.98,16.35L431.71,16.49L431.86,16.49L432.01,17.9L432.15,32.96L433.33,138.82L433.47,148.8L434.65,181.89L434.8,182.03L437,182.02" style="vector-effect: non-scaling-stroke; fill: none; stroke: rgb(255, 0, 0); stroke-opacity: 1; stroke-width: 2px; opacity: 1;"/></g><g class="points"/><g class="text"/></g><g class="trace scatter trace4818af" style="stroke-miterlimit: 2; opacity: 0.5;"><g class="fills"/><g class="errorbars"/><g class="lines"><path class="js-line" d="M0,215.25L0.88,208.95L1.03,211.91L1.91,206.38L2.06,208.61L2.2,207.05L2.79,208.65L2.94,207.44L3.23,208.97L3.38,207.61L3.53,204.9L3.67,270.29L4.11,201.77L4.26,192.94L5.29,144.15L5.43,164.32L5.88,129.01L6.02,152.89L6.17,194.51L6.46,108.96L6.61,245.57L6.9,250.61L7.34,104.76L7.49,197.65L7.79,240.42L8.23,100.3L8.37,173.57L8.96,174.74L9.25,101.45L9.4,100.3L9.55,96.61L9.69,106.35L9.84,118.68L9.99,116.17L10.14,120.79L10.28,138.26L11.46,227.7L11.75,222.54L11.9,212.81L12.05,223.39L12.49,210.42L12.63,216.23L12.78,210.23L13.22,217.94L13.51,211.93L13.66,213.59L14.1,209.57L14.25,214.31L14.4,210.07L14.54,212.51L14.98,213.14L15.57,208.03L15.72,208.41L15.86,209.67L16.01,208.04L16.45,209.14L16.6,207.79L16.89,206.69L17.04,208.19L17.19,208.88L17.33,276.59L17.48,155.68L18.07,195.99L18.21,200.54L18.36,242.74L18.66,164.53L18.8,173.02L18.95,157.16L19.1,167.32L19.54,150.54L19.68,229.06L20.27,113.29L20.56,126.23L20.71,157.93L21.3,159.54L21.59,93.19L21.74,104.97L21.89,104.77L22.03,111.06L22.91,82.09L23.36,85.79L23.5,84.52L26.15,220.54L26.29,211.06L26.44,217.84L26.59,210.03L27.03,214.21L27.17,209.72L27.32,209.97L27.47,209.16L27.62,208.81L27.76,209.24L27.91,213.28L28.79,206.79L28.94,208.25L29.38,208.5L29.82,205.15L29.97,208.55L30.11,208.63L30.26,206.11L30.99,205.9L31.14,207.55L31.29,204.76L31.43,207.24L31.73,202.82L31.88,199.27L32.02,271.99L32.17,154.45L32.61,192.3L32.76,157.94L32.9,171.84L33.05,142.83L33.2,161.56L33.34,129.02L33.49,154.73L33.64,117.56L33.78,145.18L33.93,80.19L34.08,64.6L34.52,95.53L34.67,100.46L35.4,79.13L35.55,84.06L35.69,155.54L35.99,176.56L36.14,114.07L36.58,87.29L36.87,106.85L37.02,99.88L37.75,85.35L37.9,90.97L38.04,101.16L38.19,96.98L38.34,116.15L38.49,121.51L38.63,207.83L38.93,235.29L39.07,156.52L39.81,217.15L39.95,213.92L40.1,216.73L41.13,209.24L41.28,210.93L42.01,211.12L42.45,206.67L42.6,208.13L42.89,205.76L43.33,207.94L43.48,208.05L43.92,206.19L44.36,206.62L44.51,207.4L44.95,276.14L45.1,155.92L45.24,238.26L45.39,172.4L45.54,230.12L46.12,192.03L46.27,197.44L46.71,178.69L46.86,231.11L47.01,142.12L47.59,203.36L47.74,196.32L48.62,101.92L48.77,212.86L49.65,86.43L49.8,82L49.94,82.85L50.09,72.43L50.24,71.38L50.38,74.73L50.53,73.08L50.68,87.57L50.82,85.94L50.97,89.7L51.12,87.63L51.26,93.8L51.85,74.49L52,85.98L52.15,98.7L54.2,237.61L54.35,219.73L54.5,236.25L54.64,217.24L54.79,234.57L54.94,194.73L55.67,212.19L55.82,210.17L55.97,210.41L56.26,210.63L56.85,208.19L56.99,208.11L57.29,209.61L57.43,206.71L57.73,208.3L57.87,208.49L58.32,206.01L58.46,215.95L58.76,218.31L58.9,200.24L59.49,205.2L59.64,206.8L60.08,199.1L60.23,208.01L60.96,179.47L61.11,184.47L61.25,242.51L61.69,135.21L61.99,190.85L62.13,177.21L62.28,110.07L62.43,220.51L62.87,124.68L63.02,147.99L63.31,150.81L63.9,72L64.19,85.88L64.34,86.32L64.63,97.28L65.07,92.93L65.22,161.35L65.37,180.68L65.51,110.21L65.66,97.03L65.81,72.3L66.25,106.32L66.39,112.06L68.01,217.34L68.3,215.47L68.45,211.34L68.6,221.37L69.04,209.63L69.19,212.9L69.33,209.34L69.48,211.46L69.77,207.98L69.92,208.95L70.07,208.16L70.36,212.2L70.65,209.74L70.8,208.4L71.1,208.27L71.24,209.26L71.54,208.65L71.68,204.6L72.27,208.55L72.56,207.85L72.71,205.76L72.86,218.16L73.45,216.23L73.59,211.95L74.91,173.19L75.06,241.05L75.94,188.61L76.09,182.51L76.82,113.42L76.97,160.16L77.41,118.5L77.56,162.55L77.71,195.08L78,186.26L78.15,107.7L79.03,80.36L79.17,86.28L79.32,80.83L79.61,95.68L79.76,101.46L79.91,94.2L80.06,117.2L80.2,132.59L82.11,222.19L82.41,218.71L82.55,211.18L82.7,219.82L83.14,209.98L83.29,213.2L83.43,209.17L83.87,208.41L84.17,213.1L84.32,208.23L84.46,208.07L84.61,208.79L84.76,210.57L85.05,206.04L85.49,208.11L85.64,208.67L85.78,211.02L86.08,205.11L86.22,206.71L86.37,277.37L86.52,158.61L87.11,189.75L87.25,207.54L87.4,204.81L87.84,207.7L87.99,216.4L89.02,173.16L89.16,178.24L89.31,236.51L90.04,128.46L90.19,144.87L90.34,126.52L90.48,128.82L90.63,124.3L90.78,146.56L91.07,154.34L91.51,106.71L91.66,175.32L91.81,203.66L91.95,131.52L92.1,106.86L92.83,89.39L93.13,90.91L93.28,91.52L93.42,92.24L93.57,111.13L93.86,127.66L94.16,125.88L94.3,138.9L96.07,220.2L96.21,214.78L96.36,292.03L96.8,161L97.24,226.43L97.39,196.84L97.83,214.14L98.12,212.19L98.27,210.56L98.56,211.51L98.86,206.05L99.15,208.86L99.3,208.31L99.59,208.23L99.89,210.27L100.03,208L100.33,208.62L100.47,209.08L100.91,218.44L101.06,210.93L101.21,207.95L101.35,205.9L101.8,208.51L101.94,207.11L102.09,217.18L103.85,148.58L104.15,149.83L104.29,150.78L104.44,212.73L104.73,126.67L104.88,138.08L105.03,130.53L105.17,200.21L105.47,113.19L105.61,162.66L105.76,115.46L105.91,175.24L106.35,103.51L106.5,112.69L106.64,101.28L107.08,88.41L107.38,95.57L107.52,102.49L107.67,108.19L107.96,104.9L108.11,96L109.29,234.24L109.43,159.61L110.17,227.71L110.31,223.63L110.46,227.6L110.61,225.15L110.76,225.32L110.9,208.48L111.34,215.78L111.64,210.49L111.78,212.96L112.08,214.08L112.52,208.83L112.67,210.46L112.96,208.35L113.4,208.9L113.55,211.13L114.43,205.75L114.57,209L114.87,204.41L115.02,207.88L115.16,285.48L115.6,203.08L115.75,208.18L115.9,207.71L117.37,170.81L117.51,185.8L118.25,148.35L118.39,149.17L118.54,152.05L118.98,153.76L119.42,133.29L119.57,210.18L120.74,98.17L120.89,109.51L121.04,106.23L121.18,119.99L121.48,105.87L121.92,117.44L122.07,125.21L122.36,116.97L122.51,129.7L123.09,225.86L123.24,166.13L124.27,216.84L124.42,224.11L125.15,216.37L125.3,216.47L125.44,214.28L125.59,209.86L126.03,216.5L126.18,210.55L126.33,213.26L126.47,212.88L126.62,210.01L126.77,213.57L127.21,209.9L127.35,210.4L127.5,208.86L127.65,210.23L128.09,207.97L128.24,224.57L128.53,228.93L128.97,200.42L129.12,203.24L129.26,207.76L129.41,206.21L129.56,277.62L129.7,158.19L130.29,185.02L130.44,209.21L130.59,201.33L130.73,270.02L130.88,153.04L131.03,296.72L131.47,164.68L131.61,178.81L132.35,128.26L132.5,154.65L132.94,116.23L133.08,147.63L133.23,185.8L133.52,111.05L133.67,158.71L134.26,162.91L134.41,108.13L134.55,164.05L134.85,97.08L135.14,106.36L135.29,172.16L135.43,184.35L135.58,129.06L136.17,91.51L136.46,92.06L136.61,109.72L137.2,160.68L137.34,171.5L138.52,233.39L138.66,213.5L138.81,235.91L139.4,228.74L139.55,214.02L139.69,228.87L139.84,213.36L140.13,221.61L140.28,206.08L140.43,214.92L141.16,214.29L141.31,208.82L142.04,211.62L142.19,208.35L142.34,206.17L142.48,208.74L142.78,208.6L142.92,210.37L143.22,206.06L143.37,208.54L143.51,210.35L144.69,201.27L144.83,206.08L145.86,176.17L146.01,176.33L146.6,132.3L146.74,231.06L146.89,91.98L147.48,105.46L147.63,184.24L147.77,122L147.92,239.7L148.36,123.22L148.51,159L148.65,190.68L148.95,111.09L149.39,190.52L149.53,179.17L149.83,115.49L150.42,118.05L150.56,124.39L152.62,224.51L152.77,218.66L152.91,219.56L153.06,230.14L153.5,216.05L153.65,223.33L153.79,221.99L154.09,225.55L154.68,210.7L154.82,208.84L155.56,212.38L155.7,208.16L156.14,210.76L156.59,205.41L156.73,208.19L156.88,206.79L157.47,207.96L157.61,217.69L158.64,202.14L158.79,272.68L159.67,173.5L159.82,174.73L159.96,158.04L160.26,143.8L160.4,168.25L160.55,135.36L160.85,120.72L160.99,203.93L161.14,159.67L161.29,109.69L161.73,141.25L161.87,123.05L162.02,87.72L162.46,78.05L162.61,90.84L162.75,95.1L162.9,95.6L163.05,190.13L163.34,204.29L163.49,133.58L164.08,93.67L164.37,106.32L164.52,102.69L165.69,180.33L165.84,192.44L166.72,224.32L167.01,223.13L167.16,212.28L167.31,217.13L167.6,209.92L167.75,212.92L167.9,209.45L168.04,214.7L168.63,213.83L168.78,209.13L168.92,210.33L169.22,207.57L169.37,208.27L169.51,208.11L169.81,210.72L169.95,207.59L170.25,208.54L170.69,208.26L170.83,207.99L171.13,207.17L171.27,204.95L171.72,221.55L172.01,213.02L172.16,203.94L172.3,205.13L172.45,277.06L173.48,181.79L173.62,181.04L175.68,131.31L175.83,99.7L175.98,69.91L176.42,101.6L176.56,171.16L177.15,208.13L177.3,198.01L177.44,117.09L177.88,109.12L178.18,113.43L178.33,116.57L178.47,116.44L178.62,108.09L180.82,244.11L180.97,222.32L181.12,242.69L181.56,216.12L181.7,228.34L181.85,215.23L182,221.87L182.44,220.39L182.59,214.4L182.73,222.09L182.88,202.35L183.17,208.79L183.32,211.32L183.61,206.9L184.2,208.31L184.35,208.78L184.64,208.49L185.23,218.62L185.38,210.6L185.52,228.44L185.67,203.78L186.11,217.33L186.26,200.89L186.55,207.8L186.99,203.15L187.14,270.2L187.29,152.81L187.87,173.62L188.02,194.57L188.46,231.24L188.61,133.41L188.75,181.65L188.9,207.19L189.05,208.93L189.2,139.51L189.78,122.32L190.08,180.5L190.22,179.9L190.37,179.77L190.52,120.17L191.25,176.59L191.4,129.81L191.84,174.51L192.13,167.64L192.28,132.25L192.43,164.5L192.57,111.17L192.72,113.48L192.87,95.16L194.92,240.15L195.07,215.46L195.51,235.6L195.66,213.87L195.81,229.7L195.95,215.49L196.1,224.67L196.25,205.61L196.54,210.01L196.69,214.11L196.83,209.35L197.42,209.49L197.57,214.06L198.01,208.72L198.3,209.19L198.45,212.75L198.89,208.19L199.33,208.45L199.48,208.14L199.62,206.02L199.77,208.58L199.92,208.27L200.07,217.37L200.8,207.55L200.95,207.67L201.09,213.01L202.12,183.65L202.27,247.04L202.42,137.44L203,140.52L203.15,229.22L204.18,110.18L204.33,168.19L204.47,124.87L204.91,180.24L205.06,140.68L205.21,161.58L206.23,105.39L206.38,117.42L206.68,108.82L206.82,125.34L206.97,129.75L207.12,127.42L207.26,145.93L207.41,146.47L207.56,160.49L208.88,223.21L209.03,223.2L209.17,218.55L209.32,227.46L209.76,221.07L209.91,217.38L210.05,226.92L210.49,212L210.64,221.38L210.79,209.99L211.23,216.92L211.38,209.36L211.52,209.58L211.67,209.9L211.82,214.33L212.26,209.06L212.4,211.66L212.55,209.3L212.84,212.9L213.29,209.81L213.43,208.73L213.58,206.89L213.87,211.06L214.02,209.45L214.17,218.43L214.31,214.55L214.46,284.55L215.19,160.21L215.34,234.28L215.64,251.54L215.93,243.97L216.08,156.4L216.22,201.87L216.81,174.17L216.96,158.69L217.99,120.84L218.13,230.08L218.57,115.06L218.87,133.89L219.01,180.55L219.16,130.72L219.31,239.56L219.75,140.03L219.9,153.6L220.04,140.61L220.48,160.05L220.63,156.15L221.66,264.98L221.81,205.04L221.95,253.84L222.1,151.84L222.54,218.61L222.69,199.11L223.13,228.9L223.42,224.95L223.57,218.4L224.01,218.05L224.16,223.36L224.3,220.66L224.45,213.29L224.6,217.1L224.74,209.9L225.18,212.77L225.33,210.17L225.48,215.51L225.92,210.08L226.06,215.22L226.21,209.59L226.51,212.36L226.65,208.83L226.8,206.91L227.53,219.22L227.97,216.07L228.12,207.28L228.86,218.83L229,201.07L229.15,208.3L229.59,203.28L229.74,286.69L230.32,187.45L230.62,196.37L230.77,219.84L231.21,128.32L231.5,128.7L231.65,155.24L232.23,163.16L232.38,129.02L232.53,150.2L232.82,162.62L232.97,131.27L233.12,238.81L233.85,140.42L234,158.87L234.14,137.83L234.58,167.17L234.88,158.96L235.03,152.58L235.17,144.66L235.32,170.35L235.47,145.4L235.61,176.19L235.76,170.6L235.91,179.89L236.05,173.71L236.2,191.53L237.08,232.75L237.52,227.12L237.67,226.45L237.82,227.45L237.96,221.55L238.99,212.3L239.14,215.02L240.02,210.73L240.17,215.57L240.31,209.54L240.9,209.87L241.05,214.89L241.93,209.6L242.08,223.15L242.22,282.58L242.37,156.86L242.81,229.77L242.96,185.9L243.54,215.11L243.84,212.41L243.99,206.58L244.57,179.94L244.72,242.17L245.9,130.94L246.04,236.24L246.78,137.35L246.92,151.14L247.07,142.61L247.36,208.03L247.66,196.9L247.8,126.16L247.95,167.05L248.1,125.78L248.54,155.07L248.69,141.59L250.74,219.28L250.89,217.62L251.62,232.9L251.77,221.32L251.92,223.35L252.06,212.87L252.36,212.38L252.51,230.31L252.8,229.67L252.95,214.66L253.09,227.42L253.68,219.02L253.83,219.82L254.56,210.15L254.71,214.02L255,209.52L255.15,213.51L255.3,210.79L255.44,221.26L255.59,213.09L255.74,220.36L255.88,206.33L256.47,209.13L256.62,208.95L256.77,279.65L257.06,205.49L257.35,213.34L257.5,227.94L258.53,178.98L258.67,182.45L258.82,191.15L259.12,198.09L259.85,151.91L260,160.96L260.14,137.38L260.29,228.78L260.44,187.56L260.58,194.01L260.73,191.36L260.88,205.8L261.17,260.05L261.61,107.79L261.76,288.59L262.2,112.76L262.49,147.66L262.64,256.22L262.79,91.5L263.38,124.28L263.52,191.31L263.67,143.06L264.26,177.64L264.4,180.07L264.55,177.97L264.7,196.72L265.73,236.68L265.87,215.22L266.31,231.13L266.46,213.49L266.61,228.02L266.75,214.55L266.9,223.19L267.05,211.55L267.34,214.22L267.49,212.46L267.63,218.79L267.78,211.03L268.08,214.59L268.22,210.6L268.37,217.76L268.52,210.19L268.96,211.88L269.1,214.51L269.4,210.74L269.54,215.03L270.43,209.24L270.57,212.41L270.72,209.3L271.01,209.51L271.16,221.7L272.48,187.83L272.63,250.54L272.92,264.02L273.66,155.64L273.8,232.23L274.39,138.03L274.69,152.62L274.83,201.97L275.13,216.76L275.27,200.11L276.15,168.39L276.3,128.46L276.45,167.63L276.89,125.7L277.04,163.85L277.18,129.27L278.21,202.26L278.36,207.81L278.65,223.55L278.8,288.68L279.24,165.51L279.53,200.82L279.68,243.98L279.97,245.3L280.41,214.32L280.56,229.88L280.71,203.34L281.3,218.55L281.44,223.92L282.03,226.36L282.47,212.94L282.62,212.26L282.76,215.47L283.21,209.39L283.35,213.33L283.5,209.59L283.65,212.9L284.23,211.07L284.38,209.2L284.53,210.29L284.67,208.78L284.82,279.09L284.97,157L285.56,186.09L285.7,210.49L286,194.44L286.29,214.82L286.44,224.64L287.32,162.22L287.47,170.06L287.61,160.32L287.76,172.51L287.91,137.17L288.05,166.59L288.2,125.83L288.49,184.26L288.79,110.93L288.93,160.77L289.08,125.84L289.23,227.23L289.96,225.48L290.11,192.24L290.26,224.59L290.4,142.13L290.55,184.55L290.7,147.14L291.58,170.54L291.73,140.44L292.61,211.61L292.75,212.72L292.9,212.13L293.05,220.79L293.19,213.75L293.49,213.78L293.63,230.79L293.93,232.81L294.37,210.51L294.52,216.98L294.66,210.33L294.81,217.24L295.25,212.11L295.4,214.13L296.43,209.46L296.57,210.75L296.72,209.48L296.87,213.85L297.31,210.06L297.45,211.58L297.89,208.81L298.34,209.67L298.48,208.47L298.63,208.12L298.78,218.66L298.92,203.45L299.51,207.74L299.66,206.85L299.95,153.72L300.1,298.88L300.39,214.41L300.54,170.99L300.69,198.57L301.13,163.24L301.27,169.22L301.42,146.82L301.71,135.65L301.86,231.03L302.15,214.09L302.3,114.77L302.89,109.06L303.04,230.76L303.18,145.4L303.48,119.93L303.62,159.2L303.77,121.37L304.21,168.42L304.36,145.41L304.5,147.28L304.95,172.87L305.24,165.72L305.39,144.3L305.68,129.29L306.12,172.64L306.27,148.18L307.3,210.26L307.44,216.24L307.59,215.37L307.74,218.17L307.88,232.89L308.32,213.69L308.62,214.48L308.76,223.72L309.5,210.19L309.65,214.42L309.79,214.03L310.38,215.21L310.53,209.75L310.67,212.47L311.26,212.91L311.41,208.71L311.56,209.15L311.7,208.86L312,208.31L312.29,218.64L312.44,213.15L312.58,206.67L312.73,208.78L312.88,206.32L313.17,208.12L313.32,206.1L313.46,217.66L313.91,212.67L314.05,199.16L314.49,189.31L314.64,209.15L314.79,208.73L314.93,278.26L315.08,143.77L315.67,225.15L315.82,172.29L315.96,182.37L316.11,156.15L316.26,229.61L317.14,104.72L317.28,166.2L317.43,120.2L317.58,173.39L318.02,123.63L318.17,165.08L318.31,129.46L318.75,200.32L318.9,190.74L319.34,123.75L319.63,124.22L319.78,165.75L319.93,135.95L320.37,179.36L320.52,173.98L321.69,219.16L321.84,211.92L321.98,221.13L322.57,214.68L322.72,211.07L323.16,219.28L323.45,213.38L323.6,211.07L323.75,213.83L324.19,212.64L324.33,210.66L324.48,211.44L324.63,210.1L324.78,208.82L325.07,212.69L325.22,209.46L325.36,209.12L325.51,211.13L326.24,206.59L326.39,208.16L326.54,208.54L326.83,207.03L326.98,217.95L327.27,221.05L327.42,209.19L327.57,216.75L327.71,210.79L327.86,277.21L328.01,154.12L328.59,184.68L328.74,196.04L329.62,146.86L329.77,226.72L330.5,108.79L330.8,119.53L330.94,140.07L331.24,146.82L331.39,124.1L331.53,162.19L331.97,113.55L332.27,114.24L332.41,158.24L332.56,104.71L333.15,107.4L333.3,172.28L333.44,118.24L333.74,139.72L333.88,247.42L334.32,118.68L334.62,140.01L334.76,208.27L334.91,160.79L335.06,209.45L335.5,200.96L335.65,214.62L335.79,214.12L335.94,220.94L336.97,213.51L337.11,212.42L337.41,213.34L337.55,210.03L337.7,214.34L337.85,209.39L338.29,213.99L338.44,209.29L338.58,211.14L339.02,208.89L339.17,205.66L339.46,209.63L339.76,208.18L339.91,278.96L340.2,206.1L340.79,208.09L340.93,207.87L341.08,208.55L341.23,208.32L341.37,204.07L341.96,208.67L342.11,204.43L342.26,202.06L342.4,199.5L342.7,200.46L342.84,214.01L343.43,234.16L343.72,166.47L343.87,191.37L344.46,158.96L344.61,160.26L344.75,140.82L344.9,222.03L345.34,129L345.49,139.35L345.63,127.07L346.66,156.98L346.81,203.38L346.96,200.39L347.1,135.63L347.25,236.33L347.69,118.13L347.84,179.18L347.98,145.4L348.13,199.85L348.72,186.11L348.87,181.43L349.16,194.11L349.31,208.57L350.33,223.75L350.48,211.7L350.78,210.93L350.92,216.95L351.36,216.01L351.51,212.12L351.66,214.63L351.8,211L352.1,212.7L352.24,209.42L352.54,209.28L352.68,212.54L352.98,209.69L353.13,209.02L353.27,210.84L353.71,208.74L353.86,209L354.01,209.66L354.59,207.85L354.74,216.74L355.33,208.19L355.62,209.12L355.77,209.09L356.21,222.81L356.36,212.16L356.5,294.8L357.53,164.16L357.68,166.36L357.83,170.06L357.97,225.41L358.41,123.52L358.71,124.13L358.85,164.6L359.29,98.62L359.59,118.97L359.74,165.41L359.88,129.44L360.03,225.45L360.47,146.34L360.62,144.55L361.06,155.11L361.2,140.92L361.35,152.77L361.5,141.73L361.79,136.8L361.94,154.66L362.23,153L362.38,147.19L363.85,228.85L364,215.15L364.14,235.69L364.73,220.54L364.88,216.37L365.17,212.62L365.32,217.26L366.05,210.11L366.2,213.55L366.35,210.33L366.49,215.58L366.93,212.61L367.08,211.44L367.37,214.35L367.96,209.43L368.11,212.88L368.26,208.75L368.4,220.34L368.55,214.31L368.7,220.05L368.84,202.56L369.43,208.59L369.58,207.95L370.02,214.64L370.16,280.59L371.05,197.13L371.19,195.38L371.63,244.43L371.78,195.76L372.37,132.66L372.51,161.42L372.66,147.2L372.96,215.73L373.25,178.12L373.4,115.18L373.84,171.92L374.13,167.83L374.28,130.43L374.42,228.24L374.87,117L375.01,163.24L375.16,112.57L375.6,160.75L375.89,111.72L376.04,123.5L376.19,118.86L376.33,140.53L376.63,149.79L376.77,164.56L378.39,225.99L378.54,212.31L378.68,224.36L379.13,210.99L379.27,219L379.42,214.14L379.71,223.75L379.86,211.93L380.01,220.47L380.15,210.06L380.3,214.54L380.74,209.8L380.89,212.72L381.03,209.68L381.18,214.54L381.33,209.6L381.77,209.72L381.92,212.39L382.8,208.51L382.94,210.56L383.24,210.77L383.83,208.17L383.97,208.14L384.27,209.14L384.41,204.8L385,197.31L385.15,207.35L385.29,276.05L385.74,183.39L385.88,181.94L386.03,185.14L386.32,175.84L386.47,154.89L386.62,223.21L386.76,89.72L387.2,180.33L387.35,181.15L387.5,200.2L387.64,135.28L387.79,166.47L387.94,111.85L388.38,199.9L388.67,188.78L388.82,144.52L388.97,150.92L389.11,212.32L390.14,104.14L390.29,115.33L390.44,115.34L392.05,228.58L392.2,222.84L392.35,230.07L392.49,212.42L392.64,295.89L393.08,211.43L393.52,213.46L393.67,217.29L393.96,219.58L394.11,210.56L394.4,211.09L394.55,214.72L394.84,215.76L395.28,209.64L395.43,214.39L395.87,209.24L396.31,210.02L396.46,210.18L396.75,211.98L396.9,208.69L397.19,209.47L397.34,210.49L397.63,211.84L397.78,208.28L398.07,209.43L398.22,277.73L398.37,158.15L398.96,198.5L399.1,203.58L399.4,207.48L399.54,204.15L399.69,178.93L399.84,164.16L400.28,183.78L400.42,171.99L400.57,217.27L401.45,108.06L401.6,151.82L401.75,112.78L401.89,180.75L402.33,144.97L402.48,178.19L402.63,137.52L402.77,180.5L403.22,154.49L403.36,223.03L403.8,124.26L404.24,172.82L404.39,160.77L406.15,218.92L406.3,212.32L406.74,237.28L407.03,235.96L407.18,215.49L407.33,232.83L407.77,212.6L407.92,222.95L408.06,202.73L408.5,216.56L408.94,212.42L409.09,209.43L409.83,212.77L409.97,209.39L410.12,212.3L410.56,207.8L410.71,209.23L410.85,211.61L411,208.2L411.59,209.98L411.73,210.98L411.88,208.11L412.03,208.8L412.18,278.07L412.32,160.38L412.91,186.96L413.06,202.4L413.35,151.58L413.5,304L413.64,94.78L413.79,267.8L414.38,229.77L414.53,137.92L414.67,213.66L414.82,112.95L415.26,162.09L415.41,106.21L415.7,183.89L416.14,165.67L416.29,120.42L416.88,119.15L417.02,231.94L417.17,149.81L417.32,212.4L417.46,98.78L417.9,164.4L418.05,113.73L418.49,196.27L418.79,171.5L418.93,140.37L419.23,163.7L419.37,175.65L419.67,186.32L419.81,198.11L419.96,205.39L420.11,280.92L420.4,283.6L420.55,178.54L420.99,222.72L421.14,211.76L421.43,210.75L421.87,219.5L422.02,211.12L422.16,218.57L422.75,213.83L422.9,213.12L423.05,214.55L423.19,211.59L423.34,214.15L423.49,210.1L423.63,214.4L424.07,209.57L424.22,211.87L424.37,209.16L424.81,214.42L424.95,209.43L425.1,212.49L425.69,209.32L425.84,211.45L425.98,211.39L426.13,208.91L426.28,208.15L426.42,278.44L426.57,158.71L427.16,240.2L427.31,250.85L428.19,161.75L428.33,178.45L428.48,169.14L428.63,173.88L428.77,230L429.66,135.03L429.8,236.47L430.54,113.51L430.68,156.31L430.83,116.89L430.98,232.26L431.57,230.06L431.71,186.37L431.86,201.85L432.01,200.87L432.15,134.21L432.59,185.31L432.89,156.99L433.03,175.35L433.62,221.09L433.92,216.95L434.06,210.87L434.5,225.59L434.8,223.61L434.94,212.79L435.09,226.46L435.24,212.5L435.68,225.79L435.82,217.58L435.97,224.04L436.56,221.14L436.71,222.35L436.85,207.96L437,215.35" style="vector-effect: non-scaling-stroke; fill: none; stroke: rgb(0, 128, 0); stroke-opacity: 1; stroke-width: 2px; opacity: 1;"/></g><g class="points"/><g class="text"/></g></g></g><g class="overplot"/><path class="xlines-above crisp" d="M0,0" style="fill: none;"/><path class="ylines-above crisp" d="M0,0" style="fill: none;"/><g class="overlines-above"/><g class="xaxislayer-above"><g class="xtick"><text text-anchor="middle" x="0" y="433" transform="translate(108.2,0)" style="font-family: 'Open Sans', verdana, arial, sans-serif; font-size: 12px; fill: rgb(42, 63, 95); fill-opacity: 1; white-space: pre; opacity: 1;"><tspan class="line" dy="0em" x="0" y="433">Jul 3</tspan><tspan class="line" dy="1.3em" x="0" y="433">2022</tspan></text></g><g class="xtick"><text text-anchor="middle" x="0" y="433" style="font-family: 'Open Sans', verdana, arial, sans-serif; font-size: 12px; fill: rgb(42, 63, 95); fill-opacity: 1; white-space: pre; opacity: 1;" transform="translate(206.91,0)">Jul 10</text></g><g class="xtick"><text text-anchor="middle" x="0" y="433" style="font-family: 'Open Sans', verdana, arial, sans-serif; font-size: 12px; fill: rgb(42, 63, 95); fill-opacity: 1; white-space: pre; opacity: 1;" transform="translate(305.62,0)">Jul 17</text></g><g class="xtick"><text text-anchor="middle" x="0" y="433" style="font-family: 'Open Sans', verdana, arial, sans-serif; font-size: 12px; fill: rgb(42, 63, 95); fill-opacity: 1; white-space: pre; opacity: 1;" transform="translate(404.33,0)">Jul 24</text></g><g class="xtick"><text text-anchor="middle" x="0" y="433" style="font-family: 'Open Sans', verdana, arial, sans-serif; font-size: 12px; fill: rgb(42, 63, 95); fill-opacity: 1; white-space: pre; opacity: 1;" transform="translate(503.05,0)">Jul 31</text></g></g><g class="yaxislayer-above"><g class="ytick"><text text-anchor="end" x="79" y="4.199999999999999" transform="translate(0,368.48)" style="font-family: 'Open Sans', verdana, arial, sans-serif; font-size: 12px; fill: rgb(42, 63, 95); fill-opacity: 1; white-space: pre; opacity: 1;">50</text></g><g class="ytick"><text text-anchor="end" x="79" y="4.199999999999999" style="font-family: 'Open Sans', verdana, arial, sans-serif; font-size: 12px; fill: rgb(42, 63, 95); fill-opacity: 1; white-space: pre; opacity: 1;" transform="translate(0,281.81)">0</text></g><g class="ytick"><text text-anchor="end" x="79" y="4.199999999999999" style="font-family: 'Open Sans', verdana, arial, sans-serif; font-size: 12px; fill: rgb(42, 63, 95); fill-opacity: 1; white-space: pre; opacity: 1;" transform="translate(0,195.13)">50</text></g><g class="ytick"><text text-anchor="end" x="79" y="4.199999999999999" style="font-family: 'Open Sans', verdana, arial, sans-serif; font-size: 12px; fill: rgb(42, 63, 95); fill-opacity: 1; white-space: pre; opacity: 1;" transform="translate(0,108.46000000000001)">100</text></g></g><g class="overaxes-above"/></g></g><g class="polarlayer"/><g class="smithlayer"/><g class="ternarylayer"/><g class="geolayer"/><g class="funnelarealayer"/><g class="pielayer"/><g class="iciclelayer"/><g class="treemaplayer"/><g class="sunburstlayer"/><g class="glimages"/><defs id="topdefs-aa47e7"><g class="clips"/><clipPath id="legendaa47e7"><rect width="162" height="67" x="0" y="0"/></clipPath></defs><g class="layer-above"><g class="imagelayer"/><g class="shapelayer"/></g><g class="infolayer"><g class="legend" pointer-events="all" transform="translate(525.74,100)"><rect class="bg" shape-rendering="crispEdges" width="162" height="67" x="0" y="0" style="stroke: rgb(68, 68, 68); stroke-opacity: 1; fill: rgb(255, 255, 255); fill-opacity: 1; stroke-width: 0px;"/><g class="scrollbox" transform="" clip-path="url(#legendaa47e7)"><g class="groups"><g class="traces" transform="translate(0,14.5)" style="opacity: 1;"><text class="legendtext" text-anchor="start" x="40" y="4.680000000000001" style="font-family: 'Open Sans', verdana, arial, sans-serif; font-size: 12px; fill: rgb(42, 63, 95); fill-opacity: 1; white-space: pre;">BESS</text><g class="layers" style="opacity: 0.5;"><g class="legendfill"/><g class="legendlines"><path class="js-line" d="M5,0h30" style="fill: none; stroke: rgb(0, 191, 255); stroke-opacity: 1; stroke-width: 2px;"/></g><g class="legendsymbols"><g class="legendpoints"/></g></g><rect class="legendtoggle" x="0" y="-9.5" width="156.71875" height="19" style="fill: rgb(0, 0, 0); fill-opacity: 0;"/></g><g class="traces" transform="translate(0,33.5)" style="opacity: 1;"><text class="legendtext" text-anchor="start" x="40" y="4.680000000000001" style="font-family: 'Open Sans', verdana, arial, sans-serif; font-size: 12px; fill: rgb(42, 63, 95); fill-opacity: 1; white-space: pre;">Solar</text><g class="layers" style="opacity: 0.5;"><g class="legendfill"/><g class="legendlines"><path class="js-line" d="M5,0h30" style="fill: none; stroke: rgb(255, 0, 0); stroke-opacity: 1; stroke-width: 2px;"/></g><g class="legendsymbols"><g class="legendpoints"/></g></g><rect class="legendtoggle" x="0" y="-9.5" width="156.71875" height="19" style="fill: rgb(0, 0, 0); fill-opacity: 0;"/></g><g class="traces" transform="translate(0,52.5)" style="opacity: 1;"><text class="legendtext" text-anchor="start" x="40" y="4.680000000000001" style="font-family: 'Open Sans', verdana, arial, sans-serif; font-size: 12px; fill: rgb(42, 63, 95); fill-opacity: 1; white-space: pre;">Grid Meter (Net Load)</text><g class="layers" style="opacity: 0.5;"><g class="legendfill"/><g class="legendlines"><path class="js-line" d="M5,0h30" style="fill: none; stroke: rgb(0, 128, 0); stroke-opacity: 1; stroke-width: 2px;"/></g><g class="legendsymbols"><g class="legendpoints"/></g></g><rect class="legendtoggle" x="0" y="-9.5" width="156.71875" height="19" style="fill: rgb(0, 0, 0); fill-opacity: 0;"/></g></g></g><rect class="scrollbar" rx="20" ry="3" width="0" height="0" x="0" y="0" style="fill: rgb(128, 139, 164); fill-opacity: 1;"/></g><g class="g-gtitle"><text class="gtitle" x="298.5" y="50" text-anchor="middle" dy="0em" style="font-family: 'Open Sans', verdana, arial, sans-serif; font-size: 17px; fill: rgb(42, 63, 95); opacity: 1; font-weight: normal; white-space: pre;"><tspan class="line" dy="0em" x="298.5" y="50">Scenario 8</tspan><tspan class="line" dy="1.3em" x="298.5" y="50">Microgrid Output</tspan><tspan class="line" dy="2.6em" x="298.5" y="50">From: July 01, 2022 to July 31, 2022</tspan></text></g><g class="g-xtitle"><text class="xtitle" x="298.5" y="476.409375" text-anchor="middle" style="font-family: 'Open Sans', verdana, arial, sans-serif; font-size: 14px; fill: rgb(42, 63, 95); opacity: 1; font-weight: normal; white-space: pre;">Time</text></g><g class="g-ytitle"><text class="ytitle" transform="rotate(-90,33.840625,260)" x="33.840625" y="260" text-anchor="middle" style="font-family: 'Open Sans', verdana, arial, sans-serif; font-size: 14px; fill: rgb(42, 63, 95); opacity: 1; font-weight: normal; white-space: pre;">Demand (kW)</text></g></g></svg>