<svg class="main-svg" xmlns="http://www.w3.org/2000/svg" xmlns:xlink="http://www.w3.org/1999/xlink" width="700" height="500" style="" viewBox="0 0 700 500"><rect x="0" y="0" width="700" height="500" style="fill: rgb(255, 255, 255); fill-opacity: 1;"/><defs id="defs-0c2512"><g class="clips"><clipPath id="clip0c2512xyplot" class="plotclip"><rect width="432" height="320"/></clipPath><clipPath class="axesclip" id="clip0c2512x"><rect x="80" y="0" width="432" height="500"/></clipPath><clipPath class="axesclip" id="clip0c2512y"><rect x="0" y="100" width="700" height="320"/></clipPath><clipPath class="axesclip" id="clip0c2512xy"><rect x="80" y="100" width="432" height="320"/></clipPath></g><g class="gradients"/><g class="patterns"/></defs><g class="bglayer"/><g class="layer-below"><g class="imagelayer"/><g class="shapelayer"/></g><g class="cartesianlayer"><g class="subplot xy"><g class="layer-subplot"><g class="shapelayer"/><g class="imagelayer"/></g><g class="gridlayer"><g class="x"><path class="xgrid crisp" transform="translate(107.88,0)" d="M0,100v320" style="stroke: rgb(255, 255, 255); stroke-opacity: 1; stroke-width: 1px;"/><path class="xgrid crisp" transform="translate(205.45999999999998,0)" d="M0,100v320" style="stroke: rgb(255, 255, 255); stroke-opacity: 1; stroke-width: 1px;"/><path class="xgrid crisp" transform="translate(303.03999999999996,0)" d="M0,100v320" style="stroke: rgb(255, 255, 255); stroke-opacity: 1; stroke-width: 1px;"/><path class="xgrid crisp" transform="translate(400.62,0)" d="M0,100v320" style="stroke: rgb(255, 255, 255); stroke-opacity: 1; stroke-width: 1px;"/><path class="xgrid crisp" transform="translate(498.21,0)" d="M0,100v320" style="stroke: rgb(255, 255, 255); stroke-opacity: 1; stroke-width: 1px;"/></g><g class="y"><path class="ygrid crisp" transform="translate(0,377.63)" d="M80,0h432" style="stroke: rgb(255, 255, 255); stroke-opacity: 1; stroke-width: 1px;"/><path class="ygrid crisp" transform="translate(0,287.14)" d="M80,0h432" style="stroke: rgb(255, 255, 255); stroke-opacity: 1; stroke-width: 1px;"/><path class="ygrid crisp" transform="translate(0,241.89)" d="M80,0h432" style="stroke: rgb(255, 255, 255); stroke-opacity: 1; stroke-width: 1px;"/><path class="ygrid crisp" transform="translate(0,196.65)" d="M80,0h432" style="stroke: rgb(255, 255, 255); stroke-opacity: 1; stroke-width: 1px;"/><path class="ygrid crisp" transform="translate(0,151.4)" d="M80,0h432" style="stroke: rgb(255, 255, 255); stroke-opacity: 1; stroke-width: 1px;"/><path class="ygrid crisp" transform="translate(0,106.16)" d="M80,0h432" style="stroke: rgb(255, 255, 255); stroke-opacity: 1; stroke-width: 1px;"/></g></g><g class="zerolinelayer"><path class="yzl zl crisp" transform="translate(0,332.39)" d="M80,0h432" style="stroke: rgb(255, 255, 255); stroke-opacity: 1; stroke-width: 2px;"/></g><path class="xlines-below"/><path class="ylines-below"/><g class="overlines-below"/><g class="xaxislayer-below"/><g class="yaxislayer-below"/><g class="overaxes-below"/><g class="plot" transform="translate(80,100)" clip-path="url(#clip0c2512xyplot)"><g class="scatterlayer mlayer"><g class="trace scatter trace8fc00e" style="stroke-miterlimit: 2; opacity: 0.5;"><g class="fills"/><g class="errorbars"/><g class="lines"><path class="js-line" d="M0,235.8L0.29,243.17L0.44,234.65L0.58,241.34L0.73,234.63L1.02,234.29L1.16,242.76L1.45,239.12L1.6,234.07L1.89,233.82L2.03,242.68L2.32,235.13L2.47,233.07L2.61,236.11L2.9,232.39L3.19,233.3L3.34,233.58L4.21,231.1L4.36,231.19L4.5,219.85L4.65,223.67L4.79,200.02L4.94,213.32L5.08,185.63L5.23,199.47L5.37,168.95L5.95,146.18L6.39,232.39L6.53,232.39L11.04,232.39L11.18,245.86L11.47,255.21L11.62,237.84L11.76,257.88L12.49,236.75L12.63,248.58L13.5,235.57L13.65,247.25L14.52,233.89L14.67,239.69L15.1,233.79L15.25,241.59L15.39,234.69L15.54,236.15L16.41,232.87L16.55,233.02L16.7,232.55L16.84,234.66L17.72,232.39L17.86,232.39L18.01,232.39L18.15,221.77L18.3,223.97L18.44,212.21L19.46,148.94L19.6,213.6L20.47,232.39L20.62,232.39L24.98,232.39L25.12,234.73L25.7,250.51L25.99,246.78L26.14,235.93L26.72,235.65L26.86,243.07L27.01,234.97L27.15,246.55L27.59,234.79L27.74,239.14L27.88,234.04L28.46,233.85L28.61,240.78L28.75,234.49L28.9,234.44L29.04,232.9L29.48,232.39L29.62,233.43L29.77,236.92L30.06,232.39L30.2,232.39L30.35,232.39L30.78,234.39L31.07,232.39L31.22,232.39L31.95,232.39L32.09,219.63L32.24,221.63L32.38,205.19L32.53,205.86L32.67,192.12L33.11,171.07L33.25,219.55L34.12,232.39L34.27,232.39L38.92,232.39L39.06,234.39L39.64,243.57L39.79,239.83L39.93,239.12L40.08,242.65L40.22,234.61L40.51,235.43L40.66,236.17L40.95,237.22L41.24,233.04L41.38,238.06L41.68,232.47L42.11,238.32L42.26,233.87L42.4,232.39L42.55,236.71L43.13,232.49L43.27,232.58L44.14,232.44L44.29,232.98L44.72,233.73L45.16,232.39L45.31,232.39L45.89,232.37L46.03,220.09L46.18,221.03L46.32,204.76L46.47,203.98L46.61,187.56L47.63,232.39L47.77,232.39L52.86,232.39L53,238.82L53.15,239.14L53.29,245.1L54.16,237.96L54.31,241.86L54.45,234.49L54.6,246.32L55.18,235.74L55.33,233.28L55.47,239.29L56.05,237.17L56.2,233.51L56.34,232.4L56.49,234.74L56.63,237.82L56.92,232.64L57.36,232.69L57.5,235.36L57.79,232.39L58.37,232.6L58.52,232.39L58.66,238.63L59.25,232.39L59.39,232.39L59.68,232.39L59.83,231.06L60.99,174.54L61.13,220.56L62,232.39L62.15,232.39L66.8,232.39L66.94,240.67L67.23,237.89L67.38,255.61L67.52,238L67.67,250.21L68.1,236.29L68.25,245.71L68.39,235.72L68.97,233.81L69.12,244.88L69.27,235.51L69.85,233.27L69.99,238.4L70.14,233.89L70.43,233.05L70.72,240.66L70.86,234.4L71.01,235.03L71.15,233.05L71.44,234.43L71.59,232.8L71.73,236.25L72.31,232.66L72.46,232.39L72.61,232.39L72.75,235.17L73.62,232.39L73.77,231.75L74.49,186.41L74.64,206.31L74.78,165.87L75.07,151.14L75.8,232.39L75.94,232.39L80.74,232.39L80.88,236.77L81.32,259.9L81.61,247.92L81.75,239.43L82.04,235.28L82.19,248.96L82.48,244.55L82.62,235.43L82.77,247.85L83.21,234.43L83.35,236.49L83.5,233.4L84.22,242.7L84.37,234.97L84.66,237.05L85.24,232.39L85.38,237.2L85.96,232.39L86.25,234.03L86.4,232.6L87.42,232.39L87.56,232.39L88.58,192.91L88.72,202.46L88.87,170.37L90.18,232.39L90.32,232.39L94.68,232.39L94.82,246.83L95.11,251.76L95.55,240.37L95.69,244.16L96.13,246.52L96.27,235.8L96.42,244.51L96.86,234.75L97,244.66L97.15,235.46L97.29,239.14L97.44,234.08L97.58,242.45L98.16,234.41L98.31,233.82L98.45,232.62L98.6,241.8L99.03,232.87L99.47,233.33L99.61,233.19L99.9,232.81L100.05,234.63L100.49,235.04L100.78,232.39L100.92,233.34L101.65,232.39L101.79,224.88L102.23,197.63L102.37,211.34L102.52,185.33L102.66,190.67L102.95,188.16L103.1,176.88L103.97,232.39L104.12,232.39L108.47,232.39L108.62,238.92L108.76,237.03L108.91,254.09L109.2,259.41L109.78,236.46L109.92,242.3L110.07,242.49L110.21,235.4L110.36,246.6L110.8,234.52L110.94,242.53L111.09,234.91L111.38,234.51L111.52,243.18L111.81,242.78L111.96,234.99L112.25,236.62L112.39,236.54L112.54,233.22L113.12,232.5L113.41,241.75L113.55,234.71L113.7,235.05L113.84,233.05L113.99,232.39L114.14,240.29L114.43,232.66L115.01,232.83L115.15,232.39L115.59,232.39L115.73,226.87L117.04,165.02L117.18,217.99L118.06,232.39L118.2,232.39L122.41,232.39L122.56,235.47L122.85,254.39L123.28,248.59L123.43,247.09L124.01,234.17L124.15,247.72L124.3,236.22L124.45,244.31L125.03,234.6L125.32,237.07L125.46,236.32L125.75,239.02L125.9,233.92L126.04,240.48L126.48,233.71L126.77,234.37L126.91,239.94L127.35,233.03L127.78,235L127.93,233.04L128.08,236.45L128.37,232.39L128.66,233.09L128.8,232.39L128.95,235.62L129.53,232.39L129.67,230.15L130.98,163.05L131.12,174.55L132,232.39L132.14,232.39L136.35,232.39L136.5,250.98L136.64,237.04L136.79,259.36L137.08,247.14L137.22,257.22L138.09,239.4L138.24,235.56L138.39,252.36L138.97,238.52L139.11,247.01L139.84,234.25L139.98,242.74L140.42,234.2L140.71,234.85L140.85,242.39L141.58,233.34L141.73,236.35L142.31,232.39L142.45,237.89L143.03,232.39L143.32,232.76L143.47,232.39L144.05,212.67L144.19,213.43L144.34,197.57L144.63,191.31L144.77,178.39L144.92,189.11L145.06,163.9L145.21,179.35L145.36,155.8L146.37,232.39L146.52,232.39L150.29,232.39L150.44,242.02L150.58,235.74L150.73,253.04L151.02,247.57L151.16,249.25L151.45,250.03L151.74,238.82L151.89,250.32L152.62,235.44L152.76,246.23L153.49,234.66L153.63,238.83L154.5,232.92L154.65,237.72L154.94,237.77L155.23,232.39L155.52,232.8L155.67,233.63L156.25,232.39L156.39,237.84L157.26,232.39L157.41,232.39L157.7,225.16L157.84,228.63L157.99,204.96L158.13,220.26L158.28,186.88L158.42,207.23L158.57,172.63L159.01,162.16L159.73,232.39L159.88,232.39L164.23,232.39L164.38,237.18L164.81,249.96L165.1,247.85L165.25,235.7L165.39,259.74L165.98,241.06L166.12,234.56L166.27,244.31L166.85,238.07L166.99,233.75L167.14,240.35L167.57,233.65L167.72,236.95L167.86,234.4L168.15,237.53L168.44,232.39L168.73,232.59L168.88,234.12L169.31,232.39L169.46,233.99L169.61,235.42L170.33,232.39L170.48,233.91L171.49,231.35L171.64,232.13L172.8,166.36L172.95,217.54L173.82,232.39L173.96,232.39L178.17,232.39L178.32,241.7L178.46,241.22L178.61,249.55L178.9,252.23L179.04,241.17L179.19,255.54L180.06,235.12L180.21,245.87L180.35,235.76L180.5,247.43L180.93,236.67L181.08,237.62L181.22,233.57L181.37,243.46L181.8,234.05L181.95,243.94L182.82,232.63L182.96,238.35L183.55,232.44L183.69,240.62L184.42,232.39L184.56,234.88L184.71,233.01L185.58,232.39L185.72,226.18L187.18,167.66L187.32,218.4L188.19,232.39L188.34,232.39L192.11,232.39L192.26,240.04L192.4,234.84L192.55,254.5L192.84,245.76L192.98,249.06L193.13,257.94L193.27,241.06L193.57,243.36L193.71,238.53L194.15,234.88L194.29,246.43L194.44,235.82L194.73,235.15L194.87,248.15L195.16,242.13L195.31,234.82L195.45,242.82L195.89,234.28L196.03,239.13L196.18,234.8L196.61,233.27L196.76,238.01L196.9,233.79L197.05,232.39L197.2,239.49L197.78,232.39L198.07,233.77L198.21,234.75L198.65,236.81L199.08,232.39L199.23,232.39L199.52,232.39L199.66,230.27L200.39,185.23L200.54,215.15L201.26,132.87L201.41,207.95L202.28,232.39L202.42,232.39L205.91,232.39L206.05,246.83L206.2,236L206.49,253.79L206.63,244.11L206.78,258.76L207.36,242.79L207.51,262.38L207.8,264.81L208.23,238.66L208.38,246.11L209.1,234.92L209.25,245.98L209.97,234.29L210.12,236.06L210.26,239.83L210.85,232.67L210.99,243.75L211.57,232.7L211.86,234.24L212.01,232.39L212.15,242.88L212.73,234.59L212.88,232.94L213.31,232.39L213.46,227.06L213.6,230.31L213.75,216.44L213.89,215.25L215.06,153.77L215.2,191.11L215.35,133.26L215.78,208.07L215.93,232.39L219.7,232.39L219.85,234.92L219.99,233.02L220.14,250.99L220.28,241.49L220.43,255.5L220.86,250.19L221.01,246.81L221.3,239.94L221.45,256.34L221.59,249.07L221.74,243.52L221.88,248.14L222.03,235.8L222.17,244.61L222.32,235.44L222.46,250.12L223.04,239.99L223.19,233.98L224.06,245.83L224.2,235.75L224.35,243.93L224.79,234.03L224.93,241.77L225.08,234.73L225.37,234.02L225.51,240.23L225.8,238.28L225.95,233.86L226.09,245.51L226.67,232.69L226.82,232.39L227.4,231.64L227.54,223.51L227.69,221.36L227.83,200.33L228.13,208.18L228.27,189.23L228.42,190.53L228.56,186.33L228.71,182.16L229,183.75L229.14,157.39L229.43,165.21L229.58,218L230.45,232.39L230.59,232.39L233.93,232.39L234.08,243.52L234.51,253.93L234.95,247.77L235.1,246.32L235.24,248.3L235.39,238.73L235.53,250.17L235.68,238.08L236.11,239.48L236.26,240.09L236.4,243.12L236.55,236.24L236.98,242.43L237.13,234.67L237.85,247.69L238,236.21L238.58,236.12L238.87,242.76L239.02,234.69L239.16,239.41L239.45,234.13L239.6,235.85L239.74,233.2L239.89,240.69L240.47,237.87L240.61,233.76L241.48,232.39L241.63,232.39L242.65,177.59L242.79,210.11L243.52,160L243.66,212.12L243.81,135.05L244.1,232.39L244.24,232.39L244.39,232.39L247.73,232.39L247.87,237.82L248.89,255.67L249.04,238.74L249.18,252.07L249.62,237L249.76,247.71L249.91,238.55L250.49,247.06L250.63,235.66L250.78,242.54L251.36,240.61L251.5,234.54L251.79,242.4L251.94,234.46L252.23,237.12L252.38,237.46L252.81,241.7L252.96,234.57L253.1,238.32L253.39,239.5L253.97,233.31L254.12,237.98L254.7,232.39L254.99,232.45L255.13,232.39L255.42,232.39L255.57,223.65L256.01,195.98L256.15,223.82L257.02,162.12L257.17,198.8L257.31,170.26L257.75,232.39L257.89,232.39L261.81,232.39L261.96,251.54L262.1,237.18L262.25,265.46L262.39,240.66L262.54,269.06L262.83,273.85L263.27,240.8L263.41,257.97L263.7,259.22L264.28,236.67L264.43,248.1L265.01,234.87L265.3,236.17L265.44,240.29L265.59,241.71L265.73,236.91L266.02,240.95L266.17,235.46L266.46,235.08L266.75,245.33L267.04,243.73L267.19,235.22L267.48,234.77L267.62,243.03L267.91,237.29L268.06,240.12L268.78,233.05L268.93,235.06L269.51,225.11L269.66,230.57L269.8,232.39L270.53,184.93L270.67,195.58L270.82,216.83L271.4,177.84L271.54,180.05L271.69,236.46L271.83,221.53L272.41,232.39L272.56,232.39L272.85,232.39L272.99,160.73L273.14,214.47L273.29,155.16L273.72,207.53L273.87,161.96L274.74,232.39L274.88,232.39L275.61,232.39L275.75,239.2L275.9,239.51L276.04,245.51L276.48,262.51L276.77,262.4L276.92,249.95L277.06,253.38L277.35,243.51L277.5,248.01L277.64,235.73L277.79,251.49L278.37,248.49L278.51,236.38L278.66,247.94L278.8,236.27L279.24,240.17L279.38,240.39L279.67,241.92L279.82,234.54L280.26,237.93L280.4,239.94L280.98,233.52L281.13,241.91L281.85,234.14L282,237.64L282.87,232.39L283.01,232.39L283.45,232.39L283.6,230.97L283.74,232.03L283.89,214.87L284.47,173.46L284.61,203.13L285.19,206.06L285.34,138.5L285.48,204.61L285.63,146.96L285.92,232.39L286.06,232.39L286.21,232.39L289.4,232.39L289.55,238.69L289.69,233.96L289.84,255.9L289.98,238.27L290.13,264.97L290.57,241.1L290.71,265.17L291.15,236.4L291.58,242.07L291.73,238.12L291.87,240.62L292.16,237.11L292.31,239.92L292.45,237.35L292.6,235.2L292.74,244.24L292.89,235.23L293.03,245.9L293.47,235.42L293.61,237.57L294.05,234.82L294.2,240.66L294.92,233.13L295.07,237.46L295.5,233.53L295.79,234.51L295.94,234.22L296.81,232.39L296.95,232.39L297.25,232.39L297.39,223.49L297.83,195.77L297.97,208.66L298.12,181.22L298.55,201.64L298.7,164.28L298.84,185.07L298.99,149.64L299.86,232.39L300,232.39L303.63,232.39L303.78,241.98L303.92,240.06L304.07,243.82L304.22,253.82L304.51,254.62L304.65,237.86L305.09,238.67L305.23,242.68L305.67,243.51L305.81,235.05L305.96,240.36L306.1,241.69L306.25,234.41L306.39,244.73L306.83,235.82L306.97,240.48L307.12,234.35L307.26,242.42L307.7,234.41L307.85,238.29L308.14,238.96L308.57,233.31L308.72,237.42L309.44,232.39L309.59,237.91L310.46,232.39L310.6,232.39L311.48,222.11L311.62,229.82L312.35,215.56L312.49,177.63L312.64,210.49L312.93,144.21L313.07,164.48L313.22,141.53L314.09,232.39L314.23,232.39L317.72,232.78L317.86,245.4L318.01,238.83L318.16,246.87L318.45,239.52L318.59,246.97L319.17,236.33L319.32,244.66L319.46,247.57L320.19,235.41L320.33,240.06L320.48,235.84L320.77,234.57L320.91,241.59L321.2,239.31L321.35,235.8L321.5,233.21L321.64,236.6L322.22,233.36L322.37,238.36L323.24,232.58L323.38,233.42L323.53,232.63L323.67,234.78L323.82,232.98L323.96,235.71L324.98,222.72L325.13,226.18L325.27,204.11L325.42,213.73L325.71,193.49L325.85,183.71L326,188.7L326.14,165.62L327.01,232.39L327.16,232.39L331.66,232.39L331.81,242.59L332.1,250.06L332.24,241.04L332.39,251.17L332.82,235.78L332.97,245.53L333.11,235.65L333.26,242.95L333.84,235.65L333.98,240.35L334.13,234.43L334.27,240.86L334.85,235.51L335,233.79L335.14,241.98L335.73,234.31L335.87,233.92L336.02,233.4L336.16,238.55L337.03,232.39L337.18,233.08L337.32,237.86L337.61,232.39L337.9,236.33L338.05,233.37L338.78,232.39L338.92,233.78L339.65,191.4L339.79,224.17L339.94,232.39L340.66,170.59L340.81,211.14L340.95,134.12L341.24,232.39L341.39,232.39L341.53,232.39L345.45,232.39L345.6,243.49L345.75,237.55L345.89,248.88L346.04,243.92L346.18,256.28L346.47,260.36L347.05,237.03L347.2,242.9L348.07,234.48L348.21,243.13L348.94,233.75L349.09,241.57L349.38,242.47L349.67,232.39L349.96,234.71L350.1,234.24L350.25,232.85L350.39,240.67L350.68,232.39L351.26,232.94L351.41,233.64L351.84,232.51L351.99,236.8L352.13,233.49L352.28,232.39L352.57,241.35L352.86,232.39L353.01,229.11L354.17,172.47L354.31,196.65L354.46,163.81L354.89,232.39L355.04,232.39L359.39,232.39L359.54,245.53L359.69,235.67L359.83,255.7L360.12,251.24L360.27,246.95L360.41,249.9L360.7,244.1L360.85,237.72L360.99,245.03L361.57,244.2L361.72,234.97L361.86,248.47L362.44,238.09L362.59,239.31L362.73,239.6L362.88,233.82L363.61,233.25L363.75,241.71L363.9,234.72L364.04,234.39L364.19,237.74L365.06,232.88L365.2,240.12L365.35,234.32L365.64,240.96L365.78,237.55L365.93,242.32L366.8,232.39L366.95,231.98L367.24,232.39L367.38,196.77L367.53,202.42L367.67,166.46L367.82,223.79L368.25,158.21L368.4,217.27L368.54,142.8L368.83,119.26L369.41,232.39L369.56,232.39L373.19,232.39L373.34,234.64L373.63,251.72L373.77,237.62L373.92,262.15L374.5,251.51L374.64,236.9L375.51,257.88L375.66,238.76L375.95,236.2L376.09,247.97L376.38,246.54L376.53,235.93L376.67,241.76L376.82,235.39L377.11,238.21L377.26,234.36L377.4,240.56L377.98,233.7L378.13,237.46L378.56,233.36L378.85,233.55L379,234.61L379.14,237.29L379.58,233.2L379.72,234.41L379.87,235.85L380.74,232.39L380.89,232.39L381.18,230.96L381.32,224.09L381.76,232.39L382.19,142.41L382.34,202.88L382.48,201.88L382.63,169.32L382.92,155.14L383.94,232.39L384.08,232.39L387.13,232.39L387.28,233.89L387.71,257L388,255.4L388.15,240.99L388.29,253.13L388.44,237.46L388.73,240.76L388.87,237.97L389.02,249.26L389.16,236.32L389.6,244.1L389.74,237.59L390.03,234.86L390.47,245.95L390.62,235.78L390.91,235.12L391.05,245.28L391.34,237.97L391.49,236.98L391.78,240.8L392.21,233.98L392.36,236.03L392.79,233.19L392.94,238.49L393.23,232.56L393.37,239L393.81,233.91L393.95,237.4L394.83,232.39L394.97,232.39L396.13,149.54L396.28,193.57L396.57,213.12L396.71,141.3L396.86,209.61L397,232.39L401.22,232.39L401.36,247.3L401.51,236.12L401.65,261.46L401.8,239.65L401.94,261.28L402.23,263.16L402.67,237.88L402.81,251.54L403.54,236.1L403.68,244.07L404.26,233.74L404.41,245.81L404.7,246.33L405.14,235.13L405.28,238.21L405.43,237.93L405.57,233.41L405.72,242.16L406.3,233.28L406.44,239.87L407.31,233.03L407.46,239.51L408.33,232.39L408.48,232.39L409.49,194.9L409.64,220.03L409.78,225.49L409.93,176.87L410.51,156.36L410.65,216.38L411.53,232.39L411.67,232.39L415.16,232.39L415.3,250.82L415.45,239.13L415.59,263.48L416.03,239.8L416.17,257.15L416.61,237.67L416.9,238.22L417.04,246.23L417.48,235.73L417.62,249.45L417.77,236.65L417.91,244.11L418.06,236.48L418.5,236.73L418.64,245.66L418.79,235.51L418.93,247.8L419.37,235.69L419.51,244L419.95,235.07L420.38,235.13L420.53,240.17L421.11,234.03L421.25,243L421.84,233.47L422.13,233.88L422.27,232.39L422.71,232.39L422.85,225.22L423,230.6L423.14,179.45L423.58,224.6L423.87,180L424.01,183.96L424.16,151.97L424.59,195.51L424.74,186.96L424.88,186.54L425.18,173.64L425.32,220.29L426.19,232.39L426.34,232.39L428.37,232.39L428.51,237.36L428.66,235.29L428.81,251.17L428.95,236.98L429.1,254.18L429.53,239.29L429.68,262.19L429.82,239.74L430.26,273.99L430.4,240.4L430.55,253.87L430.69,237.91L431.27,240.1L431.42,242.33L431.56,243.12L431.71,237.49L431.85,247.31L432,235.93" style="vector-effect: non-scaling-stroke; fill: none; stroke: rgb(0, 191, 255); stroke-opacity: 1; stroke-width: 2px; opacity: 1;"/></g><g class="points"/><g class="text"/></g><g class="trace scatter traceeaf820" style="stroke-miterlimit: 2; opacity: 0.5;"><g class="fills"/><g class="errorbars"/><g class="lines"><path class="js-line" d="M0,232.66L3.19,232.45L3.34,231.51L4.07,197.72L4.21,182.01L6.24,16.56L6.39,16.64L6.53,16.58L9.29,17.21L9.44,20.61L12.05,232.68L12.2,232.68L17.13,232.44L17.28,231.64L17.86,212.38L18.01,198.24L20.04,16.32L20.18,16.34L20.33,16.39L23.23,17L23.38,19.85L26.14,232.68L26.28,232.67L31.07,232.43L31.22,231.32L32.09,180.52L32.24,164.16L33.83,16.3L34.12,16.31L34.27,16.37L37.17,16.72L37.32,19.44L39.93,232.68L40.08,232.67L40.22,232.66L45.02,232.49L45.16,231.48L45.89,195.39L46.03,181.18L47.92,16.02L48.21,16.17L48.35,16.19L49.37,16.27L49.52,16.42L51.11,16.94L51.26,21.89L53.87,232.71L54.02,232.7L58.96,232.53L59.1,231.63L59.97,183.2L60.12,168.65L61.71,16L62.15,16.1L62.3,16.22L63.17,16.42L63.31,16.49L64.91,16.73L65.05,17.5L65.78,77.82L65.93,93.54L67.81,232.68L67.96,232.68L72.9,232.51L73.04,231.74L73.77,196.94L73.91,182.3L75.65,16.39L76.09,16.53L76.24,16.48L77.69,16.79L77.83,16.75L78.85,16.95L78.99,17.65L79.72,78.96L79.87,94.93L81.61,232.68L81.75,232.68L86.98,232.07L87.13,230.55L87.85,184.2L88,167.62L89.59,16.42L89.89,16.56L90.03,16.63L90.76,17.02L90.9,17.08L92.35,17.17L92.5,17.11L92.79,17.14L92.93,18.44L93.95,112.47L94.1,129.68L95.69,232.67L95.84,232.67L100.78,232.51L100.92,231.88L101.5,214.4L101.65,201.94L103.68,16.54L103.83,16.66L103.97,16.72L106.73,17.16L106.87,18.17L107.89,113.61L108.04,130.3L109.63,232.68L109.78,232.68L114.86,231.95L115.01,229.41L115.73,184.85L115.88,168.33L117.47,16.34L117.77,16.58L117.91,16.6L118.35,16.16L118.78,16.67L118.93,16.64L120.67,17.17L120.81,18.82L121.98,130.16L122.12,147.14L123.57,232.68L123.72,232.68L128.8,232.13L128.95,230.95L129.53,202.94L129.67,185.43L131.56,16.28L131.85,16.36L132,16.37L134.61,16.93L134.75,18.88L135.92,130.2L136.06,147.65L137.51,232.69L137.66,232.69L142.74,232.09L142.89,230.43L143.61,186.92L143.76,170.52L145.65,16.54L145.79,16.65L145.94,16.72L148.4,16.9L148.55,17.21L148.99,43.09L149.13,55.25L151.45,232.67L151.6,232.67L156.68,231.94L156.83,229.38L157.55,188.53L157.7,172.82L159.44,16.52L159.73,16.69L159.88,16.79L162.49,17.4L162.64,21.06L165.39,232.67L165.54,232.67L170.62,232.05L170.77,230.24L171.49,189.9L171.64,174.67L173.53,16.58L173.67,16.7L173.82,16.64L175.7,17.39L175.85,17.31L176.29,17.43L176.43,19.24L177.59,122.57L177.74,139.29L179.19,232.67L179.33,232.67L184.56,232.33L184.71,230.98L185.58,177.8L185.72,162.85L187.61,16.75L187.76,16.78L187.9,16.69L188.63,16.86L188.77,18.89L189.64,64.27L189.79,48.64L189.93,38L190.23,40.46L190.37,18.75L190.66,19.04L190.81,39.16L191.97,175.96L192.11,188.85L193.13,232.68L193.27,232.67L193.42,232.67L198.5,232.34L198.65,231.38L199.52,178.31L199.66,163.31L201.41,16.71L201.7,16.72L201.84,16.88L204.17,17.2L204.31,21.89L205.62,140.56L205.76,156.63L207.21,232.67L207.36,232.67L212.44,232.27L212.59,230.89L213.31,193.66L213.46,179.1L215.35,16.52L215.64,16.53L215.78,16.53L218.11,17.28L218.25,21.13L219.7,160.74L219.85,177.25L221.01,232.68L221.15,232.68L226.38,232.06L226.53,229.35L227.4,173.63L227.54,157.59L229.29,16.36L229.43,16.49L229.58,16.51L230.16,16.68L230.3,18.12L230.59,16.71L230.88,29.2L231.17,25.6L231.32,30.73L231.46,17.89L231.76,56.73L231.9,91.16L232.34,28.11L232.77,53.93L232.92,77.13L234.95,232.67L235.1,232.67L240.32,232.47L240.47,231.64L241.19,194.65L241.34,179.95L243.52,16.7L243.66,16.83L244.68,17.19L244.82,17.12L245.84,17.16L245.99,17.36L246.28,29.03L246.42,40.52L249.04,232.66L249.18,232.67L254.26,232.31L254.41,231.52L254.99,209.98L255.13,194.87L257.17,16.38L257.6,16.64L257.75,16.64L259.35,17L259.49,17.04L259.93,17.31L260.07,20.47L261.81,178.87L261.96,198.28L262.98,232.67L263.12,232.67L268.35,232.23L268.49,231.1L269.95,124.94L270.09,108.28L271.25,52.23L271.4,41.86L271.54,67.01L271.69,232.39L272.7,232.39L272.85,206L273.43,16.79L273.72,16.93L273.87,17.36L274.45,51.88L274.59,67.22L276.92,232.68L277.06,232.68L282.14,232.27L282.29,230.05L283.89,125.58L284.03,91.63L285.34,16.83L285.48,16.98L286.79,17.35L286.94,17.28L287.81,17.35L287.95,19.17L289.11,127.05L289.26,153.51L290.57,232.67L290.71,232.68L296.08,232.53L296.23,231.11L297.54,145.9L297.68,131.83L298.99,21.95L299.13,25.86L299.28,27.15L299.42,19.81L299.71,16.87L300.29,17.05L300.44,17.81L300.73,38.42L301.02,19.26L301.17,21.2L301.6,18.46L302.18,43.64L302.33,47.69L303.78,205.11L303.92,216.7L304.8,232.68L304.94,232.68L310.02,232.53L310.17,231.48L311.62,173.87L311.77,177.69L311.91,180.05L312.2,167.62L312.35,144.69L312.93,16.32L313.36,16.4L313.51,20.21L313.8,48.32L314.23,16.49L314.38,16.74L315.4,16.95L315.54,16.95L315.69,17.95L315.83,25.14L318.45,232.68L318.59,232.68L323.96,232.45L324.11,231.12L325.42,139.59L325.56,124.28L327.01,16.39L327.3,16.45L327.45,16.49L329.05,16.72L329.19,16.67L329.48,17.52L329.63,24.31L332.68,232.68L332.82,232.67L332.97,232.66L338.05,231.95L338.19,229.17L338.92,208.35L339.07,166.8L339.65,93.13L339.79,137.15L339.94,152.39L340.23,140.71L340.37,104.8L341.39,16.77L341.53,16.81L341.68,16.87L342.7,17.01L342.84,18.31L343.57,54.2L343.71,20.15L344.29,140.35L344.87,133.82L345.02,140.57L346.47,232.68L346.62,232.68L351.84,232.45L351.99,231.53L353.01,171.17L353.15,155.82L355.04,16.67L355.18,16.73L355.33,16.76L357.51,17.78L357.65,23.53L359.1,163.34L359.25,178.54L360.41,232.67L360.56,232.67L365.78,232.5L365.93,231.33L367.09,183.32L367.24,183.94L367.38,119.17L368.25,52.65L368.4,85.59L368.98,21.61L369.27,24.67L369.41,22.5L369.56,53.18L370,16.85L370.14,16.97L371.3,17.36L371.45,20.64L373.04,165.93L373.19,181.61L374.35,232.68L374.5,232.67L379.87,231.95L380.01,229.14L381.32,155.3L381.47,140.53L381.61,160.01L381.9,116.87L382.05,91.66L382.19,20.12L382.92,24.04L383.06,45.49L383.21,57.05L383.35,25.17L383.5,19.78L383.65,25.84L383.79,77.95L384.08,138.08L384.37,24.49L384.52,25L384.66,23.59L384.81,30.48L384.95,45.14L385.1,17.53L385.53,29.86L385.68,39.27L388.29,232.67L388.44,232.67L393.81,232.16L393.95,231.14L394.83,197.39L394.97,186.5L396.28,18.28L396.42,25.02L396.57,51.24L397,16.64L397.15,16.64L397.29,17.18L397.44,20.79L397.73,16.82L398.31,17.01L398.46,17.2L399.04,17.2L399.18,18.66L400.2,93.57L400.34,108.09L402.23,232.68L402.38,232.68L407.6,232.57L407.75,231.85L408.48,203.21L408.62,182.29L409.35,99.65L409.64,132.97L409.78,151.25L410.8,16.45L410.94,16.5L412.4,16.75L412.54,17.61L412.69,22.83L412.83,16.75L413.27,16.92L413.41,18.73L416.17,232.67L416.32,232.67L421.69,232.01L421.84,229.36L422.85,167.59L423,149.38L424.16,39.36L424.3,37.08L424.74,75.55L425.03,56.32L425.18,45.6L425.32,72.73L425.61,24.7L425.76,35.28L425.9,26.02L426.05,16.46L426.77,16.64L426.92,16.63L427.06,18.49L427.21,38.13L428.37,176.28L428.51,189.31L429.68,232.5L429.82,232.68L432,232.66" style="vector-effect: non-scaling-stroke; fill: none; stroke: rgb(255, 0, 0); stroke-opacity: 1; stroke-width: 2px; opacity: 1;"/></g><g class="points"/><g class="text"/></g><g class="trace scatter traced5e0d3" style="stroke-miterlimit: 2; opacity: 0.5;"><g class="fills"/><g class="errorbars"/><g class="lines"><path class="js-line" d="M0,275.82L0.87,267.81L1.02,271.67L1.89,264.45L2.03,267.36L2.18,265.33L2.76,267.41L2.9,265.84L3.19,267.83L3.34,266.06L3.49,262.52L5.52,166.02L5.66,191.31L6.53,93.33L6.68,105.49L6.82,90.78L7.41,124.11L7.7,116.44L7.84,102.14L7.99,119.54L8.71,118.91L8.86,111.37L9.44,104.9L11.33,282.2L11.47,274.71L11.91,286.38L12.05,270.44L12.2,281.27L12.34,269.73L12.63,269.48L13.07,279.54L13.21,270.8L13.5,273.87L13.65,269.18L13.94,268.61L14.09,274.8L14.38,272.45L14.52,270.01L14.81,273.28L15.39,266.61L15.54,267.11L15.68,268.74L15.83,266.62L16.26,268.06L16.41,266.29L16.7,264.86L16.84,266.82L16.99,267.72L17.13,265.59L17.28,262.43L17.43,265.35L17.57,257.83L17.72,255.12L19.17,182.26L19.31,166.53L19.46,179.74L19.6,109.31L20.18,77.84L20.47,85.35L20.62,96.53L20.77,89.49L21.06,97.75L21.35,96.36L21.49,102.79L21.64,99.27L21.78,107.48L22.22,101.43L22.36,107.97L22.8,110.62L23.23,92.39L23.38,99.09L25.85,282.93L25.99,270.56L26.14,279.41L26.28,269.22L26.72,274.67L26.86,268.82L27.01,269.14L27.15,268.09L27.3,267.62L27.44,268.19L27.59,273.46L28.46,264.99L28.61,266.9L29.04,267.22L29.48,262.85L29.62,267.29L29.77,267.39L29.91,264.1L30.49,266.01L30.64,263.82L30.78,265.98L30.93,262.34L31.22,264.47L31.37,259.8L32.53,200.4L32.67,200.49L32.82,186.98L33.11,178.07L33.25,117.71L33.83,74.15L34.27,77.35L34.41,77.27L35.29,91.33L35.43,88.48L36.01,99.86L36.16,92.75L36.3,93.75L36.45,101.98L36.59,92.89L37.03,98.81L37.17,90.61L37.32,90.22L37.46,97.55L39.06,268.31L39.21,271.42L39.35,277.01L39.93,273.47L40.08,272.24L40.51,274.34L40.66,268.19L40.95,269.04L41.09,270.49L41.53,270.63L41.97,264.83L42.11,266.74L42.4,263.65L42.84,266.49L42.98,266.63L43.42,264.2L43.85,264.77L44,265.79L44.14,262.72L44.29,266.22L44.87,262.82L45.02,265.05L45.74,239.76L45.89,230.36L46.32,215.45L46.47,199.06L46.61,200L46.76,183.34L47.77,73.67L47.92,72.53L48.94,88.47L49.08,87.55L49.23,85.84L50.1,96.37L50.24,90.99L50.68,101.24L51.11,95.06L51.26,92.33L53.44,279.6L53.58,277.3L53.73,277.2L54.45,267.09L54.89,268.16L55.03,272.04L55.76,267.14L55.91,269.47L56.05,267.88L56.63,268.67L56.78,264.88L56.92,266.53L57.07,266.96L57.21,267.2L57.5,266.4L57.65,263.97L57.79,263.91L57.94,266.54L58.08,266.99L58.23,266.22L58.37,264.51L58.52,264.62L58.66,266.61L59.97,228.59L60.12,220.41L60.26,219.15L60.41,200.44L60.55,207.68L60.7,190.51L60.84,193.45L60.99,179.02L61.71,82.57L62,92.97L62.15,95.67L62.59,114.21L62.73,103.79L62.88,87.81L63.89,122.08L64.04,113.1L64.91,121.75L65.05,89.47L66.65,258.44L66.8,255.27L66.94,269.95L67.81,284.02L67.96,269.74L68.1,273.11L68.54,268.31L68.68,271.08L68.83,266.76L68.97,266.54L69.12,267.8L69.27,266.78L69.41,267.95L69.56,272.05L70.14,266.86L70.43,268.22L70.57,267.87L70.72,267.41L70.86,262.13L71.44,267.29L71.73,266.37L71.88,263.64L72.17,266.91L72.31,262.15L72.75,266.58L72.9,265.15L73.62,247.36L73.77,231.16L74.2,219.21L74.35,201.61L74.49,211.37L74.64,181.8L74.78,201.54L74.93,163.45L75.07,194.81L75.36,113.65L75.51,104.41L75.8,105.77L75.94,100L76.09,89.31L76.82,120.3L77.11,108.79L77.25,109.8L78.12,99.99L78.27,107.72L78.41,100.61L78.56,115.25L78.99,101.77L79.14,118.75L81.17,285.08L81.32,273.98L81.61,270.72L81.75,282L82.04,276.19L82.19,269.15L82.33,273.35L82.48,268.09L82.77,268.19L82.91,267.1L83.21,273.22L83.35,266.87L83.5,266.66L83.64,267.6L83.79,269.92L84.08,264.01L84.51,266.71L84.66,267.45L84.8,270.51L85.09,262.79L85.24,264.89L85.38,266.61L85.96,263.16L86.11,267.24L86.25,268.63L86.4,263.4L86.55,264.56L86.69,265.4L86.84,266.18L86.98,264.5L87.13,261.82L87.71,241.57L87.85,228.72L89.01,167.1L89.16,176.58L89.3,104.16L89.74,81.59L90.03,89.53L90.18,91.79L90.76,115.21L91.19,110.49L91.34,106.57L92.35,115.5L92.5,127.12L92.64,127.24L92.79,132.4L92.93,123.74L93.22,143.81L93.37,152.02L94.24,226.57L94.39,238.8L95.26,285.74L95.55,283.49L95.69,273.11L95.84,277.28L96.13,270.26L96.27,272.59L96.42,269.27L96.56,277.44L96.71,268.02L97.15,268.58L97.29,267.65L97.44,271.15L97.73,264.02L98.02,267.7L98.16,266.98L98.45,266.86L98.74,269.52L98.89,266.57L99.18,267.37L99.32,267.97L100.19,263.83L100.34,266.07L100.63,267.23L100.78,265.4L100.92,265.52L101.07,259.21L101.36,261.05L101.5,247.23L102.66,181.62L103.1,183L103.24,120.29L103.39,125.27L103.53,102.66L103.68,111.13L104.12,95.33L104.26,106.93L104.41,91.94L104.7,112.35L105.28,109.61L105.42,107.75L105.57,102.22L105.71,112.04L105.86,110.5L106,125.58L106.29,128.88L106.87,104.11L107.02,123L107.17,120.07L107.31,138.73L109.34,289.35L109.49,272.17L109.63,280.93L109.92,270.03L110.21,275.24L110.36,269.82L110.8,274.5L110.94,268.06L111.09,269.73L111.23,267.65L111.38,269.77L111.67,267.03L111.81,267.67L111.96,267.11L112.25,270.65L112.39,269.36L112.54,266.12L112.68,267.26L112.97,265.98L113.12,263.63L113.26,267.88L113.55,261.88L113.84,264.15L113.99,264.3L114.28,260.9L114.43,266.81L114.57,266.19L114.72,261.94L114.86,265.85L115.15,260.38L115.3,252.46L116.31,198.56L116.46,199.85L116.6,181.6L116.75,187.51L116.89,168.42L117.04,177.52L117.18,112.97L117.33,81.34L117.91,106.96L118.06,99.32L118.2,109.53L118.35,90.86L118.64,97.35L118.78,96.7L119.51,108.72L119.65,101.18L119.8,119.14L120.52,115.81L120.67,112.91L121.54,162.96L121.69,194.38L121.83,191.94L121.98,216.49L122.99,287.6L123.57,280.13L123.72,277.49L123.86,277.62L124.01,274.77L124.15,268.99L124.59,277.65L124.74,269.89L124.88,273.43L125.03,272.93L125.17,269.19L125.32,273.84L125.75,269.05L125.9,269.7L126.04,267.69L126.19,269.48L126.62,266.53L126.77,262.13L127.06,267.82L127.49,266.44L127.64,263.61L128.08,266.93L128.51,266.02L128.66,261.77L128.8,266.11L129.09,257.64L129.24,257.73L129.38,250.63L130.25,188.89L130.4,210.6L130.54,173.59L130.69,197.95L131.12,159.73L131.27,98.7L131.56,84.44L132,93.16L132.14,94.35L132.29,95.4L132.43,94.85L132.58,112.06L133.01,103.66L133.16,122.82L133.3,105.52L133.88,106.3L134.03,124.64L134.61,114.54L134.9,115.27L135.05,138.3L136.06,228.66L136.21,254.65L136.93,293.36L137.37,288.69L137.51,275.22L137.66,285.19L137.8,274.51L138.09,279.4L138.24,272.93L138.53,273.07L138.68,269.41L138.82,277.38L139.69,267.64L139.84,270.53L140.42,271.3L140.71,264.18L140.85,267.54L141.29,269.66L141.58,264.04L141.73,267.27L141.87,269.63L142.16,265.79L142.31,263.49L142.45,266.68L142.89,262.54L143.03,257.78L143.18,264.06L143.47,247.26L143.61,232.74L144.34,207.91L144.48,193.6L144.77,187.4L144.92,176.51L145.06,184.4L145.21,161.35L145.36,178.62L145.5,155.29L146.08,99.18L146.37,104.35L146.52,102.63L147.68,130.64L147.82,115.83L147.97,127.98L148.55,118.44L148.7,116.6L150,226.44L150.15,252.09L150.87,288.11L151.31,282.43L151.45,277.94L151.6,281.3L151.89,273.55L152.03,272.43L152.33,277.35L152.47,267.94L152.76,268.42L152.91,270.09L153.05,267.66L153.63,267.87L153.78,272.28L154.07,264.81L154.65,266.42L154.79,263.19L154.94,266.82L155.67,266.52L155.81,266.19L156.25,266.47L156.83,258.92L156.97,260.49L157.84,221.54L157.99,223.15L158.13,201.36L158.28,214.57L158.42,182.78L158.57,201.66L158.71,168.51L158.86,183.87L159.15,160.99L159.3,91.04L159.44,81.82L159.73,89.63L159.88,102.71L160.02,104.95L160.17,101.14L160.31,101.75L160.46,97.01L160.89,102.94L161.04,90.56L161.18,120.18L161.91,117.14L162.05,117.17L162.34,118.91L162.64,112.84L162.78,131.51L164.96,283.73L165.25,280.03L165.39,270.19L165.68,269.07L165.83,272.99L165.98,268.46L166.12,275.31L166.7,274.17L166.85,268.04L166.99,269.61L167.28,266L167.43,266.92L167.57,266.71L167.86,270.12L168.01,266.04L168.3,267.27L168.73,266.9L168.88,266.55L169.17,265.48L169.31,262.59L169.61,267.44L169.75,262.33L170.04,265.16L170.19,264L170.33,263.88L170.48,266.2L171.35,246.81L171.49,232.37L171.78,227.11L171.93,216.05L172.65,177.29L172.8,189.15L172.95,124.87L173.24,75.62L173.82,95.41L173.96,83.1L174.98,121.02L175.12,121.13L175.7,126.28L175.85,121.24L176.72,146.53L176.87,154.17L178.75,284.37L178.9,278.75L179.04,285.78L179.48,270.65L179.92,271.64L180.06,277.3L180.21,268.31L180.79,268.96L180.93,275.41L181.51,265.13L181.8,267.57L181.95,267.78L182.09,266.97L182.24,267.59L182.38,270.53L183.26,266.7L183.4,267.18L183.84,262.98L184.13,266.56L184.27,266.43L184.56,266.21L184.71,262.57L185.43,242.6L185.58,234.05L187.03,172.87L187.18,183.32L187.32,131.35L188.05,97.35L188.19,111.75L188.34,98.49L188.77,111.79L188.92,130.88L189.06,107.58L189.5,147.89L189.64,155.4L190.37,112.03L190.52,139.96L190.66,119.31L190.95,169.8L191.1,175.16L192.69,288.33L192.98,283.12L193.13,283.93L193.27,287.72L193.42,273.33L193.57,279.5L193.71,275.44L194,275.58L194.58,268.33L194.73,272.83L195.31,274.47L195.45,267.89L195.6,269.06L195.74,267.51L196.18,272.77L196.47,269.83L196.61,266.82L196.9,270.38L197.05,267.16L197.2,266.75L197.34,263.98L197.49,267.33L197.92,267.03L198.07,266.61L198.36,267.65L198.5,265.98L198.65,266.13L198.79,260.08L199.23,254.22L199.37,238.85L199.52,241.33L199.66,230.78L200.54,185.81L200.68,211.08L201.55,112.78L201.7,117.08L201.84,108.79L202.13,105.41L202.28,108.22L202.42,117.97L202.86,141.44L203.29,130.3L203.44,130.12L203.58,128.62L203.87,132.65L204.02,148.36L204.31,137.13L204.46,158.69L205.18,204.56L205.33,218.44L206.63,286.41L206.78,280.33L206.92,291.97L207.51,278.81L207.65,291.26L207.8,273.41L207.94,290.45L208.38,269.16L208.52,275.64L208.67,269.44L208.81,278.21L208.96,268.34L209.39,274.82L209.54,268.4L209.83,267.95L210.41,272.97L210.55,269.23L210.7,269.98L210.85,268.93L210.99,267.52L211.14,265.12L211.43,270.56L211.86,265.25L212.01,267.27L213.02,253.58L213.17,256.19L213.31,246.79L214.62,171.59L214.77,194.92L215.49,137.53L215.64,203.89L216.22,106.16L216.51,121.92L216.65,113.93L216.94,128.59L217.09,117.29L217.82,142.13L217.96,127.14L218.4,126.58L218.83,170.3L218.98,180.5L220.57,290.5L220.72,282.85L221.15,280.65L221.3,286.13L221.45,276.34L221.59,289.95L222.03,279.55L222.17,269.04L222.32,277.04L222.9,276.36L223.04,271.78L223.19,271.72L223.33,269.28L223.48,275.99L223.62,268.64L223.91,272.26L224.06,267.65L224.2,265.15L224.49,271.24L224.64,267.63L224.79,270.93L225.08,271.53L225.22,267.54L225.51,267.98L225.66,268.9L225.95,272.19L226.24,264.67L226.38,267.3L226.53,269.02L227.83,213.82L227.98,198.48L228.27,202.23L228.42,185.85L228.56,189.35L228.85,178.56L229,165.95L229.14,180.61L229.29,157.77L229.43,179.02L229.58,121.68L229.72,100.09L230.3,117.05L230.45,121.52L230.74,114.08L230.88,132.96L231.03,123.64L231.46,132.95L231.61,136.95L231.9,196.63L232.19,150.85L232.34,123.84L233.5,229.3L233.64,235.04L234.66,287.68L234.8,279.94L234.95,285.94L235.24,279.55L235.39,280.8L235.53,273.39L235.68,282.73L235.82,271.48L236.26,273.63L236.4,274.29L236.55,275.61L236.69,270.12L237.27,269.04L237.42,276.08L237.56,268.57L238.29,275.56L238.43,269.2L238.87,271.62L239.02,269.13L239.16,268.65L239.31,273.31L239.6,267.7L239.89,268.04L240.03,271.65L242.21,207.41L242.36,221.85L242.5,192.57L242.65,206.45L242.79,175.82L242.94,205L243.08,160.05L243.66,159.1L243.81,205.78L243.95,139.22L244.39,123.87L244.68,127.62L244.82,136.13L245.11,141.11L245.26,133.12L245.41,137.57L245.55,123.52L245.7,130.07L245.84,120.51L246.86,193.82L247,206.92L248.6,288.93L248.74,286.62L249.04,287.19L249.47,271.69L249.62,282.45L249.76,270.51L250.34,272.83L250.49,274.56L250.78,269.71L250.92,276.95L251.07,273.03L251.21,272.59L251.36,273.47L251.5,273.11L251.65,269.74L251.79,274.05L252.08,268.56L252.38,270.21L252.52,270.84L253.1,267.78L253.25,272.23L253.97,265.03L254.12,266.92L254.26,265.92L254.41,267.02L254.55,266.53L254.7,257.52L254.84,265.4L255.13,248.17L255.28,245.75L256.88,176.11L257.02,200.31L257.75,113.2L257.89,121.26L258.04,135.98L258.18,137.48L258.33,152.13L258.76,131.09L259.05,144.59L259.2,149.37L259.35,134.18L259.78,150.45L260.07,136.92L260.22,146.83L262.69,304L262.83,275.99L263.27,296.76L263.41,273.74L263.56,292.69L263.7,275.11L263.85,286.39L263.99,271.2L264.28,274.69L264.43,272.39L264.57,280.65L264.72,270.52L265.01,275.17L265.15,269.96L265.3,279.3L265.44,269.42L265.88,271.63L266.02,275.06L266.32,270.15L266.46,275.74L267.33,268.19L267.48,272.33L268.35,267.92L268.49,271L270.38,185.69L270.67,188.39L270.82,201.34L270.96,209.44L271.11,181.18L271.25,189.35L271.4,175.52L271.83,243.25L272.41,232.39L272.56,232.39L272.99,214.87L273.14,162.76L273.29,213.88L273.72,159.17L273.87,208.95L274.01,160.89L274.3,147.86L274.59,170.81L274.74,182.64L276.33,289.36L276.48,285.47L276.63,295.44L277.5,277.05L277.64,278.5L278.22,281.32L278.37,270.05L278.51,277.38L278.8,279.64L278.95,269.58L279.24,270.48L279.38,274.67L279.67,271.56L279.82,274.87L279.97,268.39L280.11,273.53L280.69,270.23L280.84,271.14L281.42,267.58L281.71,267.89L281.85,271.69L283.45,232.38L283.6,233.88L283.74,241.84L284.9,156.07L285.05,198.46L285.63,204.93L285.92,124.32L286.06,118.05L286.5,134.88L286.64,147.68L286.79,132.8L286.94,151.64L287.23,146.26L287.37,152.18L287.95,131.2L288.24,137.63L288.39,143.06L289.98,281.17L290.13,274.11L290.57,298.94L290.86,290.77L291,269.84L291.29,269.6L291.44,278.63L291.73,276.29L291.87,271.94L292.02,274.57L292.31,271.24L292.45,273.15L292.6,271.33L292.89,272.46L293.32,268.5L293.47,274.2L293.61,268.72L294.2,268.99L294.34,269.69L294.63,270.41L295.21,266.72L295.36,267.45L295.5,270.33L295.65,266.97L295.94,268.06L296.08,266.69L296.37,264.94L296.52,252.25L297.97,193.4L298.12,204.54L298.84,158.9L298.99,183.87L299.86,89.15L300,110.16L300.15,95.67L300.58,115.23L300.73,142.23L300.88,119.19L301.31,147.44L301.46,149.99L301.6,135.54L302.18,146.08L302.33,138.87L303.63,260.86L303.78,269.52L304.36,286.01L304.65,285.14L304.8,270.74L304.94,281.3L305.52,273.13L305.67,270.49L305.81,275.91L305.96,269.42L306.25,274.44L306.39,269.1L306.83,275.98L306.97,268.86L307.12,272.4L307.26,268.17L307.7,272.97L307.85,267.49L307.99,268.06L308.14,267.69L308.28,270.28L308.43,266.97L308.86,267.32L309.01,265.43L309.3,264.05L309.44,267.05L309.59,266.73L309.73,264.09L309.88,266.14L310.17,265.89L310.31,258.18L311.62,223.86L311.77,230.5L312.49,207.02L312.64,179.86L312.78,202.18L313.07,142.72L313.22,164.4L313.36,96.29L313.8,114.03L313.94,84.5L314.09,104.14L314.38,83.38L314.82,92.96L314.96,101.97L317.28,228.71L317.43,247.65L318.3,281.29L318.45,278.56L318.59,274.15L318.74,279.57L318.88,272.87L319.17,277.48L319.32,272.25L319.46,280.32L319.9,271.54L320.04,273.21L320.19,271.95L320.48,273.59L321.06,267.32L321.2,268.31L321.35,272.68L321.64,268.03L321.93,268.74L322.08,268.18L322.37,267.55L322.51,264.72L322.8,267.28L323.38,266.42L323.53,265.18L323.96,266.96L324.11,266.4L324.25,255.47L324.4,254.47L324.54,247.3L326,180.55L326.14,183.13L327.01,74.8L327.16,80.56L327.45,76.42L328.03,93.42L328.17,92.57L328.32,92.88L328.47,97.81L328.61,97.58L328.76,93.41L329.19,92.94L329.92,141.27L330.06,120.08L332.53,284.22L332.68,273.2L332.82,278.82L333.26,269.3L333.4,276.52L333.55,270.49L333.84,274.6L333.98,269.32L334.13,274.12L334.27,268.67L334.42,274.28L334.56,268.36L335,270.09L335.14,267.83L335.29,263.55L335.58,268.7L335.87,266.8L336.02,268.68L336.31,264.09L336.6,268.32L336.74,267.8L337.47,261.44L337.61,264.64L337.76,265.92L338.05,267.44L338.19,261.91L338.48,255.47L338.92,261.39L339.07,230.11L339.65,198.49L339.79,218.92L339.94,233.26L340.37,218.59L340.52,191.93L340.66,198.61L340.81,168.26L340.95,201.76L341.24,108.84L341.39,109.41L341.53,108.38L341.68,97.36L341.82,95.66L341.97,106.37L342.11,104.17L342.26,110.43L342.41,110.39L342.55,120.88L342.7,115.73L342.84,127.37L342.99,126.14L343.13,133.67L343.28,111.16L343.57,153.54L343.71,126.38L343.86,141.52L344.29,223.63L344.73,221.71L344.87,210.7L346.33,287.12L346.47,271.39L346.76,270.4L346.91,278.24L347.34,277.02L347.49,271.94L347.63,275.22L347.78,270.48L348.07,272.7L348.21,268.42L348.5,268.24L348.65,272.49L348.94,268.77L349.09,267.89L349.23,270.28L349.67,267.54L349.81,267.87L349.96,268.73L350.25,268.76L350.68,264.94L350.83,267.56L350.97,270.68L351.26,266.81L351.55,268.03L351.7,267.99L352.13,259.83L352.42,265.61L352.57,265.85L354.31,174.22L354.46,192.86L355.04,93.54L355.47,94.25L355.62,112.64L355.76,95.07L356.2,109.7L356.35,120.26L356.93,128.86L357.07,123.91L357.22,126.02L357.36,129.28L357.65,120.99L357.8,121.02L359.98,289.67L360.27,286.42L360.41,280.09L360.56,282.93L360.85,276.72L360.99,272.6L361.14,278.66L361.72,275.05L361.86,269.32L362.3,276.46L362.59,272.14L362.73,272.58L363.03,268.79L363.17,274.86L363.46,270.92L363.61,270.57L363.9,272.94L364.04,267.54L364.19,269.64L364.33,271.54L365.06,266.14L365.35,266.5L365.49,268.14L365.78,275.23L366.07,271.65L366.22,265.95L367.53,187.79L367.67,204.28L367.82,201.45L367.96,219.21L368.11,158.48L368.54,218.08L368.69,170.73L368.83,213.04L369.12,106.52L369.27,113.29L369.41,116.97L369.56,145.42L369.7,154.25L369.85,133.13L370,119.01L370.14,125.71L370.43,110.21L370.72,118.45L370.87,113.2L372.32,174.31L372.46,193.59L374.06,290.05L374.21,272.2L374.35,287.91L374.79,270.46L374.93,280.92L375.08,274.58L375.37,287.12L375.51,271.7L375.66,282.84L375.8,269.26L375.95,275.11L376.38,268.92L376.53,272.72L376.67,268.76L376.82,275.11L376.97,268.66L377.4,268.81L377.55,272.29L378.42,267.24L378.56,269.91L378.85,270.19L379.43,266.79L379.58,266.75L379.87,268.06L380.01,262.39L381.47,223.35L381.61,234.75L381.76,233.71L382.34,152.93L382.48,210.16L383.5,99.99L383.65,106.59L383.79,159.1L384.08,214.36L384.37,111.89L384.52,107.11L384.66,109.05L384.81,124L384.95,142.07L385.24,119.2L385.53,134.75L385.68,131.02L387.86,290.61L388,273.84L388.15,289.27L388.58,271.1L388.73,282L388.87,273.42L389.02,273.65L389.16,278.67L389.45,281.67L389.6,269.91L389.89,270.61L390.03,275.34L390.32,276.7L390.76,268.7L390.91,274.9L391.34,268.19L391.78,269.2L391.92,269.41L392.21,271.76L392.36,267.47L392.65,268.49L392.79,269.82L393.08,271.58L393.23,266.94L393.66,267.08L393.81,269.39L394.97,245.99L395.12,224.82L396.28,151.26L396.42,196.52L396.71,207.34L397.29,89.22L397.44,113.4L397.59,87.62L398.46,121.28L398.6,121.97L398.75,127.75L398.89,107.62L399.04,125.58L399.18,115.11L400.34,197.12L400.49,195.14L401.51,280.82L401.65,272.2L401.8,284.89L402.52,269.83L402.67,272.91L402.81,269.48L403.1,269.32L403.54,276.43L403.68,269.34L403.83,277.74L404.41,268.43L404.56,269.32L404.85,270.27L404.99,268.57L405.14,272.8L405.86,266.3L406.01,268.18L406.15,271.28L406.3,266.82L406.88,269.15L407.02,270.45L408.04,262.36L408.19,260.84L408.48,245.73L408.62,230.99L409.49,199.88L409.64,204.41L409.78,218.98L411.38,91.21L411.53,97.81L412.69,116.83L412.83,113.04L412.98,109.76L413.12,116.67L413.27,120.3L413.41,117.36L413.56,120.64L413.7,138.14L414.28,182.94L414.43,208.75L415.74,288.8L415.88,272.3L416.32,290.05L416.46,271.15L416.61,282.61L416.75,270.81L417.19,280.01L417.48,277.8L417.62,270.02L417.77,278.26L417.91,269.42L418.35,276.01L418.5,273.03L418.79,275.7L419.51,268.08L419.66,269.09L419.8,268.83L419.95,274.94L420.82,268.28L420.96,271.08L421.11,270.99L421.25,267.76L421.4,266.77L421.54,268.01L421.69,270.11L423.29,193.18L423.43,224.75L424.3,158.39L424.45,197.33L424.74,197.37L425.61,108.6L425.76,116.44L426.05,103.14L426.48,106.69L426.63,112.23L426.77,107.55L426.92,116.49L427.06,110.73L427.21,134.13L428.22,240.08L428.37,257.4L428.95,277.23L429.24,276.98L429.39,271.97L430.11,290.66L430.26,272.43L430.55,268.99L430.69,280.94L430.84,270.23L430.98,280.05L431.56,276.26L431.71,276.46L431.85,272.09L432,278.01" style="vector-effect: non-scaling-stroke; fill: none; stroke: rgb(0, 128, 0); stroke-opacity: 1; stroke-width: 2px; opacity: 1;"/></g><g class="points"/><g class="text"/></g></g></g><g class="overplot"/><path class="xlines-above crisp" d="M0,0" style="fill: none;"/><path class="ylines-above crisp" d="M0,0" style="fill: none;"/><g class="overlines-above"/><g class="xaxislayer-above"><g class="xtick"><text text-anchor="middle" x="0" y="433" transform="translate(107.88,0)" style="font-family: 'Open Sans', verdana, arial, sans-serif; font-size: 12px; fill: rgb(42, 63, 95); fill-opacity: 1; white-space: pre; opacity: 1;"><tspan class="line" dy="0em" x="0" y="433">Jul 3</tspan><tspan class="line" dy="1.3em" x="0" y="433">2022</tspan></text></g><g class="xtick"><text text-anchor="middle" x="0" y="433" style="font-family: 'Open Sans', verdana, arial, sans-serif; font-size: 12px; fill: rgb(42, 63, 95); fill-opacity: 1; white-space: pre; opacity: 1;" transform="translate(205.45999999999998,0)">Jul 10</text></g><g class="xtick"><text text-anchor="middle" x="0" y="433" style="font-family: 'Open Sans', verdana, arial, sans-serif; font-size: 12px; fill: rgb(42, 63, 95); fill-opacity: 1; white-space: pre; opacity: 1;" transform="translate(303.03999999999996,0)">Jul 17</text></g><g class="xtick"><text text-anchor="middle" x="0" y="433" style="font-family: 'Open Sans', verdana, arial, sans-serif; font-size: 12px; fill: rgb(42, 63, 95); fill-opacity: 1; white-space: pre; opacity: 1;" transform="translate(400.62,0)">Jul 24</text></g><g class="xtick"><text text-anchor="middle" x="0" y="433" style="font-family: 'Open Sans', verdana, arial, sans-serif; font-size: 12px; fill: rgb(42, 63, 95); fill-opacity: 1; white-space: pre; opacity: 1;" transform="translate(498.21,0)">Jul 31</text></g></g><g class="yaxislayer-above"><g class="ytick"><text text-anchor="end" x="79" y="4.199999999999999" transform="translate(0,377.63)" style="font-family: 'Open Sans', verdana, arial, sans-serif; font-size: 12px; fill: rgb(42, 63, 95); fill-opacity: 1; white-space: pre; opacity: 1;">−20</text></g><g class="ytick"><text text-anchor="end" x="79" y="4.199999999999999" style="font-family: 'Open Sans', verdana, arial, sans-serif; font-size: 12px; fill: rgb(42, 63, 95); fill-opacity: 1; white-space: pre; opacity: 1;" transform="translate(0,332.39)">0</text></g><g class="ytick"><text text-anchor="end" x="79" y="4.199999999999999" style="font-family: 'Open Sans', verdana, arial, sans-serif; font-size: 12px; fill: rgb(42, 63, 95); fill-opacity: 1; white-space: pre; opacity: 1;" transform="translate(0,287.14)">20</text></g><g class="ytick"><text text-anchor="end" x="79" y="4.199999999999999" style="font-family: 'Open Sans', verdana, arial, sans-serif; font-size: 12px; fill: rgb(42, 63, 95); fill-opacity: 1; white-space: pre; opacity: 1;" transform="translate(0,241.89)">40</text></g><g class="ytick"><text text-anchor="end" x="79" y="4.199999999999999" style="font-family: 'Open Sans', verdana, arial, sans-serif; font-size: 12px; fill: rgb(42, 63, 95); fill-opacity: 1; white-space: pre; opacity: 1;" transform="translate(0,196.65)">60</text></g><g class="ytick"><text text-anchor="end" x="79" y="4.199999999999999" style="font-family: 'Open Sans', verdana, arial, sans-serif; font-size: 12px; fill: rgb(42, 63, 95); fill-opacity: 1; white-space: pre; opacity: 1;" transform="translate(0,151.4)">80</text></g><g class="ytick"><text text-anchor="end" x="79" y="4.199999999999999" style="font-family: 'Open Sans', verdana, arial, sans-serif; font-size: 12px; fill: rgb(42, 63, 95); fill-opacity: 1; white-space: pre; opacity: 1;" transform="translate(0,106.16)">100</text></g></g><g class="overaxes-above"/></g></g><g class="polarlayer"/><g class="smithlayer"/><g class="ternarylayer"/><g class="geolayer"/><g class="funnelarealayer"/><g class="pielayer"/><g class="iciclelayer"/><g class="treemaplayer"/><g class="sunburstlayer"/><g class="glimages"/><defs id="topdefs-0c2512"><g class="clips"/><clipPath id="legend0c2512"><rect width="167" height="67" x="0" y="0"/></clipPath></defs><g class="layer-above"><g class="imagelayer"/><g class="shapelayer"/></g><g class="infolayer"><g class="legend" pointer-events="all" transform="translate(520.64,100)"><rect class="bg" shape-rendering="crispEdges" width="167" height="67" x="0" y="0" style="stroke: rgb(68, 68, 68); stroke-opacity: 1; fill: rgb(255, 255, 255); fill-opacity: 1; stroke-width: 0px;"/><g class="scrollbox" transform="" clip-path="url(#legend0c2512)"><g class="groups"><g class="traces" transform="translate(0,14.5)" style="opacity: 1;"><text class="legendtext" text-anchor="start" x="40" y="4.680000000000001" style="font-family: 'Open Sans', verdana, arial, sans-serif; font-size: 12px; fill: rgb(42, 63, 95); fill-opacity: 1; white-space: pre;">BESS</text><g class="layers" style="opacity: 0.5;"><g class="legendfill"/><g class="legendlines"><path class="js-line" d="M5,0h30" style="fill: none; stroke: rgb(0, 191, 255); stroke-opacity: 1; stroke-width: 2px;"/></g><g class="legendsymbols"><g class="legendpoints"/></g></g><rect class="legendtoggle" x="0" y="-9.5" width="161.890625" height="19" style="fill: rgb(0, 0, 0); fill-opacity: 0;"/></g><g class="traces" transform="translate(0,33.5)" style="opacity: 1;"><text class="legendtext" text-anchor="start" x="40" y="4.680000000000001" style="font-family: 'Open Sans', verdana, arial, sans-serif; font-size: 12px; fill: rgb(42, 63, 95); fill-opacity: 1; white-space: pre;">Solar</text><g class="layers" style="opacity: 0.5;"><g class="legendfill"/><g class="legendlines"><path class="js-line" d="M5,0h30" style="fill: none; stroke: rgb(255, 0, 0); stroke-opacity: 1; stroke-width: 2px;"/></g><g class="legendsymbols"><g class="legendpoints"/></g></g><rect class="legendtoggle" x="0" y="-9.5" width="161.890625" height="19" style="fill: rgb(0, 0, 0); fill-opacity: 0;"/></g><g class="traces" transform="translate(0,52.5)" style="opacity: 1;"><text class="legendtext" text-anchor="start" x="40" y="4.680000000000001" style="font-family: 'Open Sans', verdana, arial, sans-serif; font-size: 12px; fill: rgb(42, 63, 95); fill-opacity: 1; white-space: pre;">Grid Meter (Net Load)</text><g class="layers" style="opacity: 0.5;"><g class="legendfill"/><g class="legendlines"><path class="js-line" d="M5,0h30" style="fill: none; stroke: rgb(0, 128, 0); stroke-opacity: 1; stroke-width: 2px;"/></g><g class="legendsymbols"><g class="legendpoints"/></g></g><rect class="legendtoggle" x="0" y="-9.5" width="161.890625" height="19" style="fill: rgb(0, 0, 0); fill-opacity: 0;"/></g></g></g><rect class="scrollbar" rx="20" ry="3" width="0" height="0" x="0" y="0" style="fill: rgb(128, 139, 164); fill-opacity: 1;"/></g><g class="g-gtitle"><text class="gtitle" x="296" y="50" text-anchor="middle" dy="0em" style="font-family: 'Open Sans', verdana, arial, sans-serif; font-size: 17px; fill: rgb(42, 63, 95); opacity: 1; font-weight: normal; white-space: pre;"><tspan class="line" dy="0em" x="296" y="50">Scenario 5</tspan><tspan class="line" dy="1.3em" x="296" y="50">Microgrid Output</tspan><tspan class="line" dy="2.6em" x="296" y="50">From: July 01, 2022 to July 31, 2022</tspan></text></g><g class="g-xtitle"><text class="xtitle" x="296" y="477.409375" text-anchor="middle" style="font-family: 'Open Sans', verdana, arial, sans-serif; font-size: 14px; fill: rgb(42, 63, 95); opacity: 1; font-weight: normal; white-space: pre;">Time</text></g><g class="g-ytitle"><text class="ytitle" transform="rotate(-90,33.60625,260)" x="33.60625" y="260" text-anchor="middle" style="font-family: 'Open Sans', verdana, arial, sans-serif; font-size: 14px; fill: rgb(42, 63, 95); opacity: 1; font-weight: normal; white-space: pre;">Demand (kW)</text></g></g></svg>