<svg class="main-svg" xmlns="http://www.w3.org/2000/svg" xmlns:xlink="http://www.w3.org/1999/xlink" width="700" height="500" style="" viewBox="0 0 700 500"><rect x="0" y="0" width="700" height="500" style="fill: rgb(255, 255, 255); fill-opacity: 1;"/><defs id="defs-4de91c"><g class="clips"><clipPath id="clip4de91cxyplot" class="plotclip"><rect width="435" height="320"/></clipPath><clipPath class="axesclip" id="clip4de91cx"><rect x="80" y="0" width="435" height="500"/></clipPath><clipPath class="axesclip" id="clip4de91cy"><rect x="0" y="100" width="700" height="320"/></clipPath><clipPath class="axesclip" id="clip4de91cxy"><rect x="80" y="100" width="435" height="320"/></clipPath></g><g class="gradients"/><g class="patterns"/></defs><g class="bglayer"/><g class="layer-below"><g class="imagelayer"/><g class="shapelayer"/></g><g class="cartesianlayer"><g class="subplot xy"><g class="layer-subplot"><g class="shapelayer"/><g class="imagelayer"/></g><g class="gridlayer"><g class="x"><path class="xgrid crisp" transform="translate(164.22,0)" d="M0,100v320" style="stroke: rgb(255, 255, 255); stroke-opacity: 1; stroke-width: 1px;"/><path class="xgrid crisp" transform="translate(262.48,0)" d="M0,100v320" style="stroke: rgb(255, 255, 255); stroke-opacity: 1; stroke-width: 1px;"/><path class="xgrid crisp" transform="translate(360.74,0)" d="M0,100v320" style="stroke: rgb(255, 255, 255); stroke-opacity: 1; stroke-width: 1px;"/><path class="xgrid crisp" transform="translate(459,0)" d="M0,100v320" style="stroke: rgb(255, 255, 255); stroke-opacity: 1; stroke-width: 1px;"/></g><g class="y"><path class="ygrid crisp" transform="translate(0,348.58000000000004)" d="M80,0h435" style="stroke: rgb(255, 255, 255); stroke-opacity: 1; stroke-width: 1px;"/><path class="ygrid crisp" transform="translate(0,188.76)" d="M80,0h435" style="stroke: rgb(255, 255, 255); stroke-opacity: 1; stroke-width: 1px;"/><path class="ygrid crisp" transform="translate(0,108.85)" d="M80,0h435" style="stroke: rgb(255, 255, 255); stroke-opacity: 1; stroke-width: 1px;"/></g></g><g class="zerolinelayer"><path class="yzl zl crisp" transform="translate(0,268.66999999999996)" d="M80,0h435" style="stroke: rgb(255, 255, 255); stroke-opacity: 1; stroke-width: 2px;"/></g><path class="xlines-below"/><path class="ylines-below"/><g class="overlines-below"/><g class="xaxislayer-below"/><g class="yaxislayer-below"/><g class="overaxes-below"/><g class="plot" transform="translate(80,100)" clip-path="url(#clip4de91cxyplot)"><g class="scatterlayer mlayer"><g class="trace scatter tracec62fb4" style="stroke-miterlimit: 2; opacity: 1;"><g class="fills"/><g class="errorbars"/><g class="lines"><path class="js-line" d="M0,176.29L0.88,171.72L1.02,176.09L1.46,170.32L1.61,187.06L2.05,171.05L2.49,173.91L2.63,172.62L2.78,170.78L2.92,173.89L3.07,231.2L3.95,169.35L4.09,189.55L4.39,201.48L4.97,168.67L5.12,168.67L5.26,220.47L5.41,160.75L5.85,186.41L5.99,113.03L6.14,153.35L6.58,104.24L6.73,152.66L6.87,97.25L7.31,207.47L7.75,163.54L7.9,160.52L8.48,161.13L8.63,126.88L8.77,158.22L9.21,121.53L9.36,158.2L9.5,163.83L9.65,136.05L10.24,155.7L10.38,168.2L10.67,174.14L10.82,176.89L11.26,174.59L11.41,191.75L11.55,174.15L11.7,189.44L12.14,173.57L12.28,181.29L12.43,171.8L12.57,181.22L13.16,173.07L13.31,179.53L13.45,171.17L13.6,183.05L14.04,171.93L14.18,177.21L14.91,172.84L15.06,174.53L15.35,176.68L15.5,170.54L15.65,177.88L16.08,170.25L16.52,170.64L16.67,172.25L16.96,170.71L17.11,174.09L17.25,177.8L17.4,178.2L17.55,177.18L17.69,170.32L18.28,224.11L18.42,154.53L18.57,242.41L18.72,110.87L19.15,183.88L19.3,129.03L19.74,206.22L19.89,89.92L20.03,228.78L20.62,151.75L20.76,96.86L21.49,155.1L21.64,113.33L22.37,186.63L22.52,173.93L22.66,117.14L22.81,215.6L23.39,159.39L23.54,171L23.69,180.92L23.83,178.37L23.98,138.92L24.86,168.67L25,173.16L26.03,187.49L26.17,182.15L26.47,177.05L26.61,187.02L26.76,176.62L26.9,185.25L27.2,173.8L27.34,177.56L27.49,171.88L27.64,178.46L27.78,171.04L28.22,176.82L28.37,172.09L28.66,170.44L28.81,179.9L29.1,177.1L29.24,170.78L29.39,175.95L29.83,170.43L29.97,172.18L30.12,173.77L30.27,170.23L30.71,170.61L30.85,174.47L31.29,174.67L31.44,170.03L31.73,170.38L31.88,169.41L32.02,177.61L32.31,168.67L32.61,170.61L32.75,169.11L32.9,229.99L33.34,159.68L33.48,162.2L33.63,138.65L33.92,132.06L34.36,185.47L34.51,115.8L34.8,114.27L34.95,209.47L35.24,158.41L35.38,140.84L35.97,146.87L36.12,108.27L36.26,139.18L36.55,154.25L36.7,108.97L36.99,113.67L37.14,154.92L37.43,158.5L37.58,119.47L37.87,131.48L38.02,159.37L38.16,159.92L38.31,211.91L38.75,168.67L39.04,170.48L39.19,190.51L39.33,175.47L39.48,205.62L39.92,182.49L40.06,197.86L40.79,174.08L40.94,181.22L41.09,171.81L41.67,172.81L41.82,176.92L42.26,171.05L42.4,180.97L42.55,171.74L42.7,180.97L43.43,170.93L43.57,176.1L44.16,176.12L44.3,170.48L44.45,175.55L45.04,169.92L45.18,174.03L45.33,171.58L45.47,170.95L45.62,175.19L46.06,168.76L46.5,169.87L46.64,168.67L47.08,161.83L47.23,210.08L47.67,234.15L48.11,168.67L48.25,169.52L48.4,168.88L48.54,206.97L48.98,203.17L49.13,138.19L49.28,168.99L49.42,101.88L49.86,143.39L50.01,116.31L50.74,226.51L50.88,183.27L51.03,163.26L51.18,161.4L51.32,179.33L51.76,170.1L52.2,194.4L52.35,174.57L53.08,206.99L53.22,178.16L53.37,203.23L53.66,168.67L53.81,168.67L53.95,168.67L61.27,168.67L61.41,161.82L61.7,168.67L61.85,134.98L62,160.25L62.44,129.62L62.58,143.68L62.73,120.46L63.02,110.51L63.17,182.93L63.46,164.79L63.61,107.96L64.04,152.79L64.19,103.38L64.34,152.51L64.48,109.68L64.63,191.61L65.07,85L65.21,168.01L65.36,104.58L65.8,199.49L66.09,198.31L66.24,130.3L66.68,190.08L66.97,186.1L67.11,174.03L67.55,192.45L67.85,191.97L67.99,174.49L68.14,188.45L68.58,172.6L68.72,185.72L68.87,172.93L69.02,184.86L69.45,172.25L69.6,181.1L69.75,171.78L69.89,182.83L70.48,179.76L70.62,171.44L70.77,176.48L70.92,170.62L71.35,173.5L71.5,172.38L72.09,174.28L72.23,170.04L72.38,174.2L72.52,170.05L72.82,178.69L72.96,173.03L73.11,180.25L73.4,169.01L73.99,169.2L74.13,175.68L75.45,144.59L75.59,190.75L76.62,101.99L76.76,137.97L77.2,91.27L77.35,149.63L77.5,91.66L77.64,149.42L77.79,110.78L78.37,122.51L78.52,149.04L78.81,151.35L79.25,119.29L79.4,139.72L79.54,170.24L79.84,122.48L80.13,149.77L80.27,163.94L80.42,163.04L80.57,167.26L81.01,172.97L81.15,179.79L81.3,173.4L81.74,183.91L81.88,177.27L82.03,180.34L82.76,173.39L82.91,179.59L83.05,171.17L83.64,174.65L83.78,174.43L84.08,176.27L84.22,170.44L84.37,177.65L84.81,170.61L85.1,170.63L85.25,172.56L85.39,172.36L85.54,169.36L85.68,174.99L86.27,172.71L86.42,169.95L86.56,172.6L86.71,232.35L86.85,145.13L87.44,170.53L87.58,176.9L88.46,168.67L88.61,168.67L88.75,164.9L88.9,208.6L89.05,119.13L89.63,124.27L89.78,157.57L89.92,121.72L90.51,136.02L90.66,136.7L90.8,119.31L90.95,138.69L91.39,136L91.53,127.51L91.97,193.25L92.26,175.02L92.41,98.35L93.14,155.2L93.29,111.72L94.16,165.03L94.31,186.42L94.6,187.37L94.9,168.67L95.19,169.16L95.33,180.21L95.63,190.36L95.77,173.79L95.92,184.68L96.07,178.57L96.5,180.08L96.65,187.16L96.8,178.29L97.38,180.9L97.53,181.89L98.26,171.28L98.41,178.84L99.14,170.88L99.28,178.95L100.01,171.18L100.16,176.82L100.31,170.71L100.89,172.08L101.04,172.9L101.91,170.02L102.06,181.33L102.35,189.04L102.94,169.55L103.08,168.89L103.23,209.65L103.52,140.55L103.67,160.16L103.82,126.48L103.96,158.21L104.11,118.61L104.55,142.75L104.69,124.26L105.13,150.03L105.28,119.09L105.42,142.44L105.57,115.65L106.01,194.59L106.45,149.09L106.59,127.53L106.89,114.91L107.32,199.04L107.62,177.38L107.76,126.75L108.64,184.91L108.79,183.39L109.23,191.47L109.37,176.59L109.81,191.65L110.1,189.56L110.25,180.32L110.83,173.32L110.98,189.06L111.13,173.77L111.27,188.94L111.71,173.32L111.86,187.36L112,173.34L112.15,184.81L112.73,183.49L112.88,175.18L113.03,184.51L113.17,175.01L113.61,176.65L113.76,181.23L114.2,172.14L114.64,176.03L114.78,173.56L114.93,171.84L115.07,236.81L115.22,143.83L115.81,175.28L115.95,182.26L116.39,171.53L116.54,235.51L117.41,168.67L117.56,165.77L118.14,144.02L118.29,157.84L118.44,185.32L118.58,127.84L118.73,211.11L119.17,170.34L119.31,182.34L119.61,168.67L119.75,231.83L120.78,117.46L120.92,155.87L121.36,186.57L121.51,144.72L121.65,161.56L121.8,166.5L122.53,169.58L122.68,168.9L122.82,191.17L123.12,197.28L123.7,168.67L123.85,168.67L131.3,168.67L131.45,154.4L131.74,146.2L131.89,159.44L132.04,133.37L132.33,125.65L132.62,164.78L132.77,101.46L133.64,172.14L133.79,129.51L133.94,224.99L134.37,119.66L134.52,156.56L134.67,112.29L135.4,158.94L135.54,132.05L135.98,164.65L136.42,159.76L136.57,166.44L137.3,183.54L137.45,179.95L137.59,253.39L138.03,167.49L138.47,199.51L138.62,176.38L138.76,193.84L138.91,174.96L139.35,176.54L139.49,175.9L139.64,175.49L139.78,177.97L139.93,170.65L140.08,182.2L140.52,173.44L140.66,175.91L141.69,168.67L141.83,168.67L145.05,168.67L145.19,162.45L145.34,165.39L145.49,151.16L145.63,156.98L145.78,199.05L146.95,126.5L147.1,141.49L147.53,121.98L147.83,127.53L147.97,134.67L148.12,133.69L148.27,142.13L148.41,176.53L148.7,139.07L149,139.74L149.14,161.64L149.29,135.39L149.44,207.8L149.73,187.25L149.87,174.32L150.02,151.66L150.61,168.67L150.75,168.67L151.77,196.68L151.92,187.5L152.07,193.82L153.09,176.98L153.38,179.84L153.53,180.35L153.97,193.15L154.11,174.48L154.26,168.67L158.94,168.67L159.09,166.8L159.38,168.67L159.52,168.17L159.67,158.17L159.82,160.33L159.96,136.15L160.26,126.06L160.4,153.68L160.55,116.51L160.84,166.79L161.43,166.18L161.57,168.67L162.01,112.19L162.3,117.66L162.45,138.48L162.59,117L163.03,153.23L163.18,130.02L163.33,158.72L163.47,138.46L163.91,163.51L164.06,153.4L164.2,164.85L164.35,163.56L164.5,167.39L164.64,168.67L164.93,174.24L165.08,185.39L165.23,185.62L165.37,195.97L165.52,183.67L165.67,198.62L166.1,194.72L166.25,202.69L166.54,204.13L166.98,178.16L167.13,194.65L167.57,174.07L167.86,177.04L168.01,181.61L168.3,174.7L168.44,182.05L168.74,182.41L169.17,171.4L169.32,182L170.2,168.67L170.34,168.67L173.12,168.49L173.27,163.92L174,128.3L174.15,218.89L174.29,94.67L174.88,108.81L175.02,192.22L175.17,79.58L175.75,93.97L175.9,213.16L176.34,114.84L176.63,127.71L176.78,147.01L177.07,190.65L177.51,109.64L177.66,153.91L177.8,119.14L178.24,159.31L178.39,151.65L178.53,155.68L178.68,155.58L178.83,165.94L179.85,190.16L179.99,175.53L180.43,190.02L180.73,188.56L180.87,175.67L181.02,190.81L181.6,174.6L181.75,178.76L181.9,171.71L182.04,181.26L182.48,171.73L182.63,179.01L183.07,171.37L183.21,181.3L183.36,171.83L183.5,178.07L184.38,171.88L184.53,177.71L184.82,178.23L185.26,170.3L185.41,175.82L185.55,170.45L185.7,177.58L185.99,176.29L186.14,184.52L187.01,168.67L187.16,232.11L188.04,129.97L188.18,145.25L188.33,165.73L188.48,164.76L188.62,102.01L188.91,90.05L189.35,151.33L189.5,111.14L189.65,154.29L190.23,149.93L190.38,99.07L190.52,203L190.96,80.23L191.11,164.99L191.25,99.82L191.98,159.56L192.13,145.17L193.01,168.67L193.15,168.67L194.18,192.87L194.32,175.92L194.47,196.89L194.91,172.17L195.06,182.22L195.2,172.11L195.93,171.57L196.08,179.73L196.23,171.39L196.37,181.67L196.96,172.33L197.1,179.88L197.54,171.06L197.98,171.37L198.13,176.97L198.27,170.6L198.42,178.33L198.86,171.04L199,173.54L199.15,169.83L199.59,174.73L199.73,178.21L200.03,169.99L200.17,181.69L200.32,171.92L200.47,178.3L200.61,235.53L201.64,168.67L201.78,168.67L201.93,168.67L202.07,197.37L202.95,104.64L203.1,148.58L203.24,98.86L203.39,191.77L203.83,131.41L203.97,133.18L204.12,182.29L204.56,116.82L204.71,148L204.85,127.73L205.44,119.76L205.58,157.01L205.73,133.54L206.61,162.73L206.75,167.64L207.05,168.67L207.19,177.78L207.34,174.26L207.48,187.52L207.63,187.21L207.78,184.62L208.07,190.31L208.22,251.81L208.65,150.49L209.09,197.25L209.24,174.11L209.38,185.16L209.82,172.53L209.97,178.82L210.12,173.79L210.26,179.76L210.55,168.67L210.7,168.67L210.85,168.67L215.53,168.67L215.67,157.57L215.96,160.96L216.11,149.68L216.4,139.5L216.7,172.08L216.84,170.57L216.99,98.34L217.57,168.67L217.87,156.03L218.01,139.69L218.74,171.35L218.89,162.1L219.04,133.72L219.47,177.03L219.77,161.18L219.91,139.07L220.79,179.2L220.94,171.52L221.52,187.28L221.67,246.42L222.54,174.65L222.69,184.5L222.84,172.54L223.57,172.7L223.71,179.48L224.01,182.28L224.59,168.67L224.74,168.67L229.27,168.67L229.42,163.13L229.56,157.51L229.71,166.22L230,163.83L230.15,167.81L230.88,142.69L231.03,186.97L231.61,114.05L231.76,153.92L232.05,156.24L232.49,109.88L232.63,157.93L232.78,115.77L233.36,127.12L233.51,148.78L233.8,155.34L233.95,124.44L234.1,205.43L234.39,151.85L234.97,168.67L235.12,168.67L235.56,177.41L235.7,246.55L236.58,173.04L236.73,189.97L237.46,173.39L237.61,178.44L237.9,171.34L238.04,181.57L238.19,171.82L238.77,174.5L238.92,176.23L239.07,171.26L239.51,180.76L239.65,171.69L239.8,177.91L239.94,170.98L240.53,171.22L240.68,175.75L240.97,177.62L241.41,170.18L241.55,173.73L241.7,169.93L241.85,175.86L241.99,175.31L242.14,179.66L243.16,168.67L243.31,168.67L243.89,168.67L244.04,158.91L244.33,147.2L244.48,133.04L244.92,168.67L245.06,162.3L245.21,215.58L245.35,94.61L245.94,160.33L246.09,201.71L246.23,103.14L246.82,139.18L246.96,176.67L247.11,122.12L247.69,131.62L247.84,145.01L248.13,141.05L248.28,146.5L249.3,168.67L249.45,172.99L249.59,174.37L249.74,183.39L249.89,172.06L250.03,251.41L250.76,173.8L250.91,182.1L251.06,171.89L251.5,182.18L251.79,178.53L251.93,171.13L252.08,178.57L252.52,170.92L252.67,176.73L252.81,170.78L253.25,176.4L253.54,175.17L253.69,170.27L253.84,177.87L254.42,170.08L254.57,173.87L255.44,168.67L255.59,168.67L257.34,168.67L257.49,161.04L257.93,168.67L258.08,165.28L258.22,200.96L258.81,123.11L259.1,123.88L259.25,154.83L259.39,126.96L259.68,175.49L259.83,170.31L259.98,172.32L260.71,105L260.85,152.75L261,104.35L261.58,131.73L261.73,149.57L262.02,160.5L262.17,130.56L262.46,147.08L262.61,163.27L262.75,163.1L262.9,167.28L263.05,168.67L263.19,227.4L263.49,233.73L263.63,160.25L264.07,189.54L264.22,173.96L264.66,199.25L264.95,198.01L265.09,176L265.24,194.8L265.68,174.82L265.83,183.27L265.97,173.83L266.12,187.86L266.56,171.25L266.7,168.67L271.67,168.67L271.82,157.8L272.11,149.78L272.55,168.98L272.7,110.85L272.99,105.61L273.43,186.3L273.57,143.44L274.45,118.01L274.6,139.59L275.33,118.21L275.48,137.04L275.91,168.67L276.06,135.97L276.21,159.59L276.35,158.58L277.23,168.67L277.38,168.67L278.25,188.91L278.4,173.73L278.55,185.93L278.98,172.33L279.13,177.22L279.28,172.06L279.72,170.19L279.86,179.99L280.01,171.5L280.15,178.95L280.3,171.24L280.59,174.47L280.74,169.75L280.89,181.23L281.47,172.36L281.62,177.19L282.49,170.2L282.64,169.46L283.23,178.33L283.52,178.27L283.66,170.84L284.1,169.23L284.25,169.5L284.39,234.71L284.54,139.02L285.13,175.16L285.27,168.67L285.56,168.67L285.71,195.21L286.44,109.6L286.59,150.33L287.32,103.46L287.47,126.3L287.61,113.55L287.76,139.2L287.9,113.8L288.05,144.51L288.2,112.18L288.34,191.75L288.78,120.95L288.93,164.85L289.37,96.1L289.66,113.11L289.81,154.94L289.95,131.96L290.39,158.18L290.54,150.9L290.68,152.83L291.56,183.87L291.71,172.46L291.85,194.21L292.44,183.96L292.58,183.68L292.73,182.8L292.88,185.97L293.02,174.79L293.17,187.14L293.61,172.42L293.75,174.63L293.9,174.84L294.19,177.38L294.34,170.71L294.78,171.83L294.92,175.64L295.51,169.97L295.65,176.16L295.8,170.54L295.95,172.52L296.24,169.86L296.53,177.26L296.68,170.73L296.82,168.87L296.97,177.22L297.12,170.79L297.41,187.59L297.55,172.84L297.7,179L297.85,171.25L297.99,233.73L298.43,169.98L298.87,181.67L299.02,171.92L299.31,180.28L299.6,168.67L299.75,215.18L300.63,127.26L300.77,158.32L301.06,168.67L301.21,110.73L301.5,107.89L301.79,163.06L302.09,159.92L302.23,163.45L302.38,161.86L302.53,167.19L302.67,93.52L303.4,151.43L303.55,99.83L304.28,158.64L304.43,144.76L305.45,180.99L305.6,171.7L306.04,192.49L306.33,188.14L306.47,173.54L306.77,172.92L306.91,188.65L307.21,183.78L307.35,172.45L307.5,180.5L307.94,171.36L308.08,177.66L308.23,174.53L308.37,169.87L308.52,181.73L308.96,171.14L309.11,172.86L309.4,170.61L309.54,180.17L309.84,174.46L309.98,173.06L310.13,169.4L310.28,176.23L310.71,170.95L310.86,170.9L311.74,178.28L311.88,171.56L312.47,169.32L312.76,183.42L312.91,239.04L313.78,168.67L313.93,158.75L314.08,214.42L314.37,154.2L314.52,165.05L314.66,134.44L314.81,160.11L315.25,123.15L315.39,118.56L315.69,114.4L315.83,137.93L316.27,137.12L316.42,139.49L316.56,138.43L316.71,143.4L317,138.04L317.15,159.5L317.29,123.42L317.73,160.51L317.88,158.26L318.03,166.07L318.17,164.37L318.46,168.67L318.61,212.4L318.9,218.77L319.34,163.2L319.49,254.54L319.93,150.2L320.22,161.77L320.36,214.96L320.51,173.98L321.1,174.51L321.24,187.32L321.97,173.13L322.12,190.65L323,173.21L323.14,182.66L324.17,168.67L324.31,168.67L328.11,168.67L328.26,153.85L328.41,166.93L328.85,143.25L328.99,162.31L329.14,108.48L329.58,95.76L329.72,207.62L330.02,185.99L330.16,74.28L330.31,175.19L331.04,173.23L331.18,168.67L331.48,126.46L332.06,137.44L332.21,161.3L332.35,143.72L332.79,167.16L332.94,168.67L333.96,190.66L334.11,184.48L334.26,184.69L334.4,177.52L334.55,187.67L334.99,181.16L335.13,179.36L336.01,175.79L336.16,179.22L336.74,183.11L336.89,172.15L337.03,180.74L337.91,168.67L338.06,168.67L342.3,168.67L342.44,158.61L343.76,125.3L343.91,130.03L344.05,183.03L344.2,85.15L344.78,99.21L344.93,151.3L345.08,109.67L345.51,154.34L345.66,123.97L345.81,157.49L345.95,133.32L346.39,160.49L346.54,141.73L346.68,161.93L346.83,160.42L346.98,166.61L348.15,188.98L348.29,183.34L348.44,182.48L349.02,176.9L349.32,177.28L349.46,176.53L349.61,181.04L349.75,172.5L350.19,177.2L350.34,176.39L350.49,175.55L350.63,176.21L350.78,178.23L350.92,173.41L351.07,178.76L351.51,175.59L351.66,178.57L351.95,179.65L352.09,173.05L352.39,175.27L352.53,178.05L352.68,171.78L352.83,245.2L352.97,141.31L353.56,168.56L353.7,181.25L353.85,172.48L354.29,187.85L354.43,177.59L354.58,175.4L354.87,170.93L355.16,185.15L355.31,172.6L356.77,140.63L356.92,162.18L357.65,120.1L357.8,133.78L357.94,112.24L358.38,138.8L358.53,118.3L358.67,146.9L358.97,153.16L359.11,104.93L359.26,150.28L359.41,167.99L359.55,168.66L359.7,108.01L360.43,159.71L360.57,146.65L361.45,168.67L361.6,171.3L362.18,190.02L362.62,185.71L362.77,184.43L362.91,189.66L363.06,179.87L363.21,189.16L363.35,173.37L363.5,179.89L364.23,179.45L364.38,173.27L364.52,241.55L365.11,177.4L365.25,171.35L365.4,179.76L365.98,177.19L366.13,170.81L366.28,177.69L366.86,170.28L367.01,170.7L367.15,170.93L367.3,173.21L368.03,168.96L368.18,172L368.32,169.5L368.47,179.13L368.62,171.52L368.76,180.83L368.91,230.47L369.2,168.67L369.35,168.67L369.49,168.67L370.08,160.66L370.23,139.16L370.37,150.03L370.81,130.86L370.96,137.64L371.1,134.45L371.25,174.94L371.69,167.23L371.83,104.16L371.98,152.63L372.13,94.99L372.56,150.84L372.71,88.51L373.44,152.72L373.59,115.11L373.73,151.29L374.32,144.12L374.47,136.38L375.34,168.67L375.49,169.95L376.22,184.59L376.37,172.64L376.51,184.41L376.66,172.6L377.1,180.62L377.24,171.6L377.54,177.33L377.68,170.41L377.97,171.71L378.12,174.68L378.27,174.53L378.41,172.08L378.71,175.13L378.85,170.97L379.58,174.18L379.73,169.91L380.31,169.87L380.46,174.51L380.61,170.13L380.9,173.58L381.05,169.77L381.34,170.94L381.48,169.94L381.92,244.27L382.07,142.71L382.22,211.98L382.36,161.1L382.51,194.06L383.09,168.67L383.24,168.67L383.82,168.67L383.97,158.65L384.12,162.73L384.26,125.39L384.7,159.02L384.85,124.48L384.99,151.05L385.14,113.13L385.29,141.19L385.72,96.35L385.87,138.83L386.02,91.08L386.75,147.46L386.89,109.17L387.04,152.78L387.63,145.11L387.77,117.3L388.79,161.43L388.94,151.52L389.09,227.19L389.53,145.32L389.67,216.75L389.82,157.96L389.96,207.34L390.55,191.88L390.7,175.34L391.13,190.73L391.28,174.16L391.43,180.03L391.57,171.51L391.72,175.09L392.3,174.78L392.45,169.99L392.6,176.72L393.18,174.57L393.33,170.02L393.62,173.59L393.77,169.65L394.06,170.75L394.21,170.99L394.5,173.08L394.94,169.41L395.08,174.87L395.96,168.67L396.11,173.01L396.4,168.83L396.69,169.34L396.84,173.65L397.71,167.57L397.86,207.82L398.45,126.3L398.59,220.77L399.62,104.77L399.76,145.19L400.05,154.21L400.2,104.3L400.49,107.42L400.64,153.36L400.78,118.93L401.08,184.39L401.37,125.07L401.52,157.14L401.66,129.75L402.1,160.15L402.25,144.33L402.39,158.62L402.54,155.42L402.69,165.12L402.83,211.3L403.27,168.67L403.56,175.73L403.71,195.61L403.86,178.89L404,205.89L404.44,186.39L404.59,202.1L404.73,176.47L405.46,179.29L405.61,173.47L405.76,184.12L405.9,172.38L406.34,175.82L406.49,177.71L406.93,181.49L407.07,171.55L407.22,178.02L407.36,176.09L407.8,179.55L407.95,171.05L408.1,177.84L408.53,171.18L408.68,180.05L408.83,171.51L408.97,178.43L409.12,172.11L409.7,174.22L409.85,173.42L410,171.21L410.14,184.96L410.87,170.33L411.02,172.03L411.17,236.78L412.04,168.67L412.19,165.55L413.51,137.74L413.65,133.97L413.94,137.21L414.38,120.69L414.53,144.4L414.68,132.64L414.82,199.58L415.26,141.85L415.7,163.3L415.85,203.88L415.99,178.36L416.14,223.39L416.58,186.27L416.72,213.07L416.87,144.29L417.45,180.8L417.6,185.06L418.18,201.19L418.33,190.28L418.48,198.95L418.62,183.68L419.06,196.77L419.21,189.8L419.35,192.89L419.5,173.77L420.38,168.67L420.52,168.67L426.52,168.33L426.67,162.38L426.96,145.82L427.1,163.5L427.54,139.49L427.69,146.4L427.84,189.2L428.13,126.5L428.42,144.16L428.57,162.21L428.86,164.06L429.01,145.71L429.15,211.8L429.3,91.4L429.88,179.17L430.03,198.1L430.32,209.69L430.91,169.18L431.05,169.92L431.2,177.22L432.08,168.67L432.22,168.67L435,168.67" style="vector-effect: non-scaling-stroke; fill: none; stroke: rgb(0, 191, 255); stroke-opacity: 1; stroke-width: 2px; opacity: 1;"/></g><g class="points"/><g class="text"/></g><g class="trace scatter traceda2842" style="stroke-miterlimit: 2; opacity: 1;"><g class="fills"/><g class="errorbars"/><g class="lines"><path class="js-line" d="M0,168.86L3.51,168.37L3.66,166.63L4.39,140.87L4.53,126.45L6.58,16.19L6.73,16.27L8.92,16.91L9.07,19.42L9.5,85.86L9.65,46.5L11.7,168.87L11.84,168.87L17.69,168.22L17.84,165.96L18.57,129.49L18.72,119.24L20.62,16.27L20.76,16.36L20.91,16.36L21.64,16.84L21.79,19.15L22.08,16.48L22.66,16.53L22.81,16.57L23.1,21.94L23.25,28.82L26.03,168.87L26.17,168.87L31.58,168.65L31.73,167.93L32.61,133.53L32.75,120.75L32.9,123.11L33.05,108.57L33.19,107.4L33.34,87.78L34.65,33.52L34.8,28.94L35.09,28.8L35.38,33.35L35.53,16.32L36.7,16.78L36.85,18.98L37.43,38.89L37.58,45.09L40.06,168.87L40.21,168.87L45.62,168.66L45.77,167.69L46.64,117.86L46.79,108.81L46.94,112.75L47.08,103.55L47.23,95.03L48.25,123.34L48.4,105.82L48.69,111.53L49.57,16.3L50.15,19.05L50.3,42.16L50.74,103.44L51.03,67.89L51.18,69.42L52.05,121.5L52.2,133.6L53.81,168.87L53.95,168.87L60.68,168.67L60.83,164.01L62,43.63L62.14,35.31L62.87,16.33L63.31,16.44L63.46,16.48L64.92,16.56L65.07,17.05L66.09,71.03L66.24,80.99L67.99,168.87L68.14,168.87L73.84,168.13L73.99,165.63L74.57,140.44L74.72,129.87L76.62,16.05L76.91,16.1L77.06,16.13L79.1,16.68L79.25,18.52L80.57,101.31L80.71,112.48L82.17,168.87L82.32,168.87L87.88,168.4L88.02,166.79L88.46,151.27L88.61,139.9L90.8,18.02L90.95,16.29L91.39,17.35L91.53,16.79L91.68,18.5L92.26,16.53L92.41,16.61L92.56,17.02L92.7,16.59L92.85,18.92L93.29,17.41L94.6,147.11L95.04,136.29L95.19,145.49L96.21,168.87L96.36,168.87L101.77,168.63L101.91,168.01L102.65,144.87L102.79,132.26L104.98,16.35L105.13,16.37L105.28,16.38L107.03,16.92L107.18,19.61L108.2,61.21L108.35,110.85L109.37,160.05L109.52,161.46L110.54,168.86L110.69,168.86L115.95,168.37L116.1,167.3L117.12,128.67L117.27,114.31L118.29,68.24L118.44,42.39L118.58,46.25L118.73,168.67L120.48,168.67L120.63,151.71L120.78,16.51L121.51,26.5L121.65,34.83L123.99,168.86L124.14,168.87L129.99,168.25L130.13,166.09L130.72,143.43L130.87,133.36L132.91,16.25L133.06,16.31L133.21,16.38L135.11,16.86L135.25,18.74L136.86,118.04L137.01,128.82L138.18,168.87L138.32,168.87L144.03,168.36L144.17,166.74L145.05,120.75L145.19,110.5L146.95,16.32L147.24,16.36L147.39,16.38L149.29,17.46L149.44,22.74L151.19,138.77L151.34,148.7L152.36,168.87L152.51,168.87L157.92,168.42L158.06,165.18L159.23,109.67L159.38,99.03L161.13,16.68L161.28,19.62L161.43,17.62L161.57,16.42L162.16,16.61L162.3,16.64L163.18,17.07L163.33,19.91L164.79,109.31L164.93,120.58L166.25,168.87L166.4,168.87L172.1,168.22L172.25,165.76L172.98,135.53L173.12,125.51L175.17,16.24L175.32,16.27L175.46,16.4L176.92,16.72L177.07,19.33L180.43,168.88L180.58,168.88L186.14,168.36L186.28,166.04L187.01,151.6L187.16,141.34L188.48,38.15L188.62,31.61L189.21,16.04L189.65,16.29L189.79,16.32L191.25,16.57L191.4,17.79L192.72,96.34L192.86,108.09L194.32,168.87L194.47,168.88L200.17,168.34L200.32,166.31L200.9,142.55L201.05,127.2L203.24,16.35L203.39,16.4L203.54,16.43L205.29,16.88L205.44,19.66L207.19,133.2L207.34,143.2L208.36,168.87L208.51,168.87L214.21,168.28L214.36,165.67L214.94,145.84L215.09,136L217.28,16.47L217.43,16.48L217.57,16.5L217.72,17.87L217.87,29.67L218.01,34.07L218.16,18.95L218.3,31.61L218.45,20.69L218.74,92.74L219.04,17.35L219.18,23.98L219.33,29.23L219.47,70.16L220.06,51.07L220.21,61.22L222.4,168.87L222.54,168.87L228.25,168.25L228.39,165.95L228.98,146.2L229.12,136.27L231.61,16.39L231.76,16.44L232.19,16.79L232.34,18.56L232.49,18.98L232.63,37.09L232.78,16.51L233.36,18.16L233.51,23.19L234.68,92.17L234.83,103.42L236.29,168.87L236.44,168.87L242.28,168.37L242.43,166.46L243.16,136.53L243.31,126.57L244.48,42.31L244.62,44.97L244.77,95.09L244.92,101.86L245.06,24.46L245.21,86.47L245.65,20.55L245.79,43.4L245.94,62.43L246.23,16.4L246.67,44.89L246.82,46.81L246.96,51.63L247.11,22.22L247.4,16.67L247.69,23.59L247.84,30.9L250.33,168.87L250.47,168.87L256.32,168.29L256.47,166.36L257.2,137.84L257.34,127.91L258.95,30.8L259.1,36.2L259.25,56.58L259.68,35.44L259.83,18.52L260.12,46.33L260.27,17.51L260.56,43.96L260.71,16.93L261.15,16.6L261.29,17.09L261.44,21.16L262.75,94.76L262.9,106.17L264.36,168.87L264.51,168.87L270.36,168.36L270.5,166.23L271.24,138.51L271.38,129.1L273.72,16.05L273.87,16.12L275.48,16.98L275.62,21.1L278.55,168.88L278.69,168.88L284.39,168.3L284.54,165.56L285.42,128.11L285.56,118.39L287.76,16L287.9,16.1L289.37,16.49L289.51,19.16L290.68,83.63L290.83,94.55L292.44,168.88L292.58,168.88L298.43,168.33L298.58,165.77L299.46,129.64L299.6,120L301.5,20.93L301.65,21.9L301.79,16.25L303.26,16.58L303.4,17.81L304.72,86.45L304.87,97.74L306.47,168.87L306.62,168.87L312.47,168.44L312.62,167.02L313.35,140.1L313.49,130.57L315.69,16.41L315.83,16.59L315.98,16.49L317.29,16.67L317.44,17.84L318.46,68.43L318.61,78.46L320.51,168.87L320.66,168.87L326.51,168.55L326.65,167.68L327.82,115.57L327.97,99.55L328.11,111.67L328.26,74.8L328.55,91.56L328.7,80.1L328.85,82.46L328.99,74.57L329.14,36.74L329.58,16.21L330.16,16.44L330.31,16.48L330.75,16.61L330.89,18.07L331.33,17.03L331.77,31.06L331.92,37.79L334.69,168.88L334.84,168.87L340.54,168.59L340.69,167.99L341.27,149.42L341.42,140.06L343.91,16.37L344.05,16.39L344.2,16.56L345.37,16.76L345.51,18.71L346.68,77.68L346.83,88.31L348.58,168.87L348.73,168.87L354.58,168.42L354.73,166.59L355.6,131.5L355.75,121.43L357.94,16.49L358.09,16.5L359.41,16.8L359.55,18.67L360.72,77.53L360.87,87.94L362.48,168.87L362.62,168.87L368.62,168.61L368.76,167.96L369.49,141.19L369.64,131.12L371.98,16.15L372.13,16.21L373.59,17.31L373.73,21.79L374.76,77.32L374.9,87.54L376.66,168.87L376.81,168.87L382.8,168.29L382.95,165.82L383.97,128.18L384.12,112.95L385.14,38.88L385.29,33.19L386.02,16.11L386.46,16.16L386.6,16.17L387.33,16.39L387.48,17.05L388.36,51.64L388.5,60.29L390.7,168.87L390.84,168.87L396.69,168.54L396.84,167.51L397.71,132.78L397.86,122.86L400.05,16.29L400.2,16.31L401.37,16.72L401.52,17.86L402.54,63.63L402.69,72.93L404.73,168.87L404.88,168.87L410.87,168.16L411.02,165.9L411.61,143.48L411.75,133.83L414.09,16.65L414.24,16.58L415.41,16.98L415.55,19.48L416.72,73.28L416.87,83.49L418.77,168.86L418.92,168.87L424.91,168.25L425.06,166.3L425.79,134.44L425.93,124.6L428.27,16.66L428.42,16.5L429.3,16.94L429.44,18.72L430.47,59.06L430.61,98.29L430.91,86.87L431.2,107.92L431.34,116.93L432.81,168.87L432.95,168.87L435,168.86" style="vector-effect: non-scaling-stroke; fill: none; stroke: rgb(255, 0, 0); stroke-opacity: 1; stroke-width: 2px; opacity: 1;"/></g><g class="points"/><g class="text"/></g><g class="trace scatter traceb08a41" style="stroke-miterlimit: 2; opacity: 1;"><g class="fills"/><g class="errorbars"/><g class="lines"><path class="js-line" d="M0,197L0.15,200.11L0.73,196.71L0.88,198.21L1.17,199.67L1.32,194.38L1.46,206.22L2.19,194.25L2.34,195.46L2.49,194.34L2.63,198L2.78,195.97L2.92,258.65L3.8,191.32L3.95,211.56L4.24,231.05L4.97,172.22L5.12,244.76L5.85,100.02L6.14,111.59L6.29,154.03L6.43,109.68L6.87,161.76L7.02,128.75L7.16,221.05L7.6,150.37L8.04,157.1L8.19,140.72L8.33,161.26L8.48,130.22L8.92,149.39L9.07,124.35L9.5,163.7L9.94,157.38L10.09,149.06L11.11,203.15L11.26,201.53L11.41,201.12L11.55,207.32L12.14,209.99L12.28,195.89L12.43,203.53L12.57,195.72L12.72,204.51L13.16,198.33L13.31,197.6L13.74,200.94L13.89,195.28L14.04,200.27L14.18,195.08L14.33,201.5L14.91,198.97L15.06,196.58L15.65,194.63L15.79,199L15.94,194.2L16.08,198.6L16.67,194.77L16.82,196.61L16.96,196.84L17.11,203.89L17.55,192.5L17.69,205.03L17.98,199.38L18.13,258.34L18.42,267.55L18.57,120.84L18.86,126.33L19.01,204.08L19.59,226.72L19.74,101.92L19.89,247.69L20.62,101.63L20.76,160.53L21.49,112.93L21.64,154.78L21.79,113.86L22.08,116.35L22.23,210.63L22.66,220.45L23.1,126.83L23.25,159.29L23.69,198.54L23.83,142.32L23.98,160.62L24.13,153.97L25.3,202.11L25.44,203.95L25.73,203.54L25.88,212.34L26.17,211.23L26.32,204.75L26.61,201.69L26.76,210.46L26.9,200.64L27.2,200.29L27.34,197.8L27.78,201.96L27.93,195.04L28.07,201.7L28.22,195.87L28.37,200.74L28.81,194.67L28.95,197.47L29.1,194.52L29.54,199.87L29.83,198.57L29.97,194.28L30.56,197.09L30.71,195.39L30.85,195.08L31,196.21L31.14,193.97L31.44,196.13L31.58,193.7L31.88,202.57L32.02,195.01L32.17,189.53L32.46,200.95L32.61,192.5L32.75,248.77L33.78,145.67L33.92,149.38L34.07,202.32L34.22,195.6L34.36,133.22L34.65,126.3L34.8,212.49L35.09,151.39L35.24,133.79L35.38,156.02L35.68,122.38L35.82,142.87L35.97,106.71L36.7,152.54L36.85,115.73L37.58,158.36L37.72,136.56L38.16,230.51L38.6,184.98L38.75,188.05L38.89,185.85L39.04,204.33L39.19,198.3L39.33,224.83L39.63,229.3L40.06,196.4L40.21,218.79L40.65,188.92L40.94,195.53L41.09,202.93L41.23,195.39L41.82,196.62L41.96,200.88L42.26,200.92L42.7,194.73L42.84,196.88L43.43,199.16L43.57,194.54L43.72,199.78L44.45,194.12L44.6,197.13L45.18,194.21L45.33,197.9L46.06,191.17L46.21,201.39L46.94,162.16L47.08,229.3L47.52,266.76L48.11,176.69L48.25,190.15L48.69,235.48L48.84,231.78L48.98,161.49L49.13,186.81L49.28,142.58L49.42,161.31L49.57,114.06L49.86,109.24L50.59,236.89L50.74,215.02L50.88,183.95L51.03,166.58L51.32,208.23L51.47,207.09L51.91,196.85L52.05,216.32L52.2,197.6L52.35,205.33L52.49,197.68L52.64,222.17L52.78,204.09L52.93,228.7L53.08,194.17L53.52,222.93L53.66,289.83L53.95,304L54.1,237.23L54.39,212.14L54.98,212.31L55.12,215.27L56,200.55L56.15,208.1L57.03,198.67L57.17,203.75L57.46,200.71L57.61,204L57.76,196.32L58.19,209.51L58.34,209.45L58.49,203.96L58.63,263.29L59.07,197.54L59.51,208.22L59.66,211.19L59.95,200.86L60.1,168.67L60.39,180.18L60.53,253.31L60.68,262.39L60.83,197.57L61.12,169.21L61.27,200.87L61.41,237.23L61.7,167.81L61.85,169.87L62,139.8L62.14,148.99L62.29,126.66L62.44,145.07L62.58,120.07L62.87,118.89L63.02,202.25L63.31,188.31L63.46,101.83L63.61,163.88L64.19,151.07L64.34,111.08L64.48,208.95L64.92,98.12L65.07,176.37L65.21,107.62L65.65,216.69L65.94,207.43L66.09,133.58L66.82,194.81L66.97,176.27L67.41,209.2L67.85,197.59L67.99,208.6L68.28,210.14L68.43,195.89L68.72,195.92L68.87,201.9L69.45,204.61L69.6,195.51L69.75,203.45L70.04,203.96L70.48,194.77L70.62,198.19L70.92,199.3L71.06,194.32L71.35,195.15L71.5,197.36L72.38,193.52L72.52,194.06L72.67,202.95L73.55,193.36L73.69,194.33L73.84,192.77L73.99,200.2L74.43,193.52L74.57,179.33L75.3,147.88L75.45,218.63L76.18,99.89L76.47,100.47L76.62,132.38L77.2,145.62L77.35,94.63L77.5,158.55L77.64,103.99L78.23,115.1L78.37,150.56L79.1,109.65L79.25,141.07L79.4,183.76L79.69,119.13L79.98,142.62L80.13,164.15L80.27,153.26L80.57,170.05L80.71,183.38L81.59,207.28L81.74,201.36L81.88,207.35L82.76,198.74L82.91,198.05L83.2,195.13L83.34,201.62L83.64,199.19L83.78,198.03L83.93,198.11L84.08,195.96L84.51,199.02L84.66,194.42L84.81,198.88L84.95,194.2L85.1,198.43L85.68,193.7L85.83,194.72L86.12,195.46L86.27,193.69L86.42,196.73L86.56,257.6L86.71,148.49L87.15,205.37L87.29,178.8L88.02,203.45L88.17,185.31L88.61,178.22L88.75,231.11L88.9,133.58L89.05,193.71L89.49,131.57L89.63,166.02L89.78,128.19L89.92,146.92L90.07,126.96L90.51,136.11L90.66,125.9L90.95,120.76L91.39,138.48L91.53,134.44L91.68,138.07L91.83,208.55L92.26,110.43L92.41,163.3L92.56,110.21L92.85,105.87L92.99,164.91L93.29,155.02L93.43,137.28L94.46,203.9L94.6,197.31L94.75,178.75L95.33,196.21L95.48,206.65L95.77,210.1L95.92,197.47L96.07,209.79L96.21,210.73L96.94,202.18L97.24,205.09L97.38,205.41L97.82,195.24L98.11,195.67L98.26,200.61L98.55,201.75L98.7,194.98L98.99,195.62L99.14,200.09L99.57,194.52L99.87,194.65L100.01,198.42L100.31,199.63L100.45,194.25L100.74,195.08L100.89,196.9L101.33,194.95L101.77,195.15L101.91,205.65L102.06,195.51L102.21,209.23L102.65,201.97L102.79,200.99L103.08,242.87L103.96,127.55L104.11,164.91L104.84,125.88L104.98,145.29L105.42,117.9L105.57,151L105.72,118.69L105.86,215.94L106.74,125.62L106.89,144.59L107.03,117.61L107.18,224.92L107.32,159.07L107.47,206.27L107.62,122.06L108.2,161.46L108.35,188.08L109.08,213.67L109.23,201.76L109.37,212.68L109.52,200.58L109.96,216.11L110.1,205.46L110.25,212.92L110.98,197.51L111.13,211.2L111.42,211.59L111.56,196.83L111.86,197.23L112,210.28L112.15,197.11L112.73,199.7L112.88,207.47L113.17,207.94L113.32,198.77L113.61,201.35L113.76,201.46L114.05,198.5L114.34,204.97L114.49,201.18L114.64,195.92L114.78,197.84L114.93,260.86L115.07,147.96L115.66,187.46L115.81,204.99L116.1,205.84L116.24,186.55L116.39,266.53L117.27,176.34L117.41,176.42L118.14,152.08L118.29,224.75L118.44,128.47L119.02,175.13L119.17,201.52L119.31,180.31L119.46,187.83L119.61,255.61L120.48,168.67L120.63,169.46L120.78,166.04L120.92,202.75L121.07,195.35L121.22,204.47L121.36,143.39L121.51,178.72L122.24,178.52L122.38,189.46L122.53,184.02L122.82,190.59L122.97,216.37L123.12,201.87L123.41,233.27L123.55,221.22L123.7,230.64L124.58,214.59L124.72,214.99L124.87,218.37L125.89,212.66L126.04,214.03L127.06,201.73L127.21,206.54L127.79,200.79L128.09,201.39L128.23,201.37L128.38,213.01L128.67,199.7L128.82,271.23L129.7,196.98L129.84,200.79L130.28,194.5L130.43,195.87L130.57,205.09L130.72,204.44L130.87,189.97L131.01,254.1L131.3,160.22L131.45,164.2L131.6,151.87L131.74,157.34L131.89,144.95L132.04,155.34L132.18,131.16L132.47,187.27L132.62,110.81L132.91,101.09L133.5,193.43L133.64,130.24L133.79,236.5L134.23,124.17L134.37,154.81L134.52,112.91L134.96,167.54L135.25,160.34L135.4,141.35L135.54,170.28L136.13,164.32L136.28,159.48L137.3,201.21L137.45,272.94L137.74,280.08L137.88,169.53L138.32,217.79L138.47,198.95L138.62,211.44L139.05,196.03L139.2,204.25L139.35,198.89L139.49,200.62L139.93,200.52L140.08,195.78L140.37,195.18L140.95,203.7L141.1,203.4L141.25,205.14L141.54,201.19L141.69,200.4L141.98,198.79L142.12,203.52L142.27,196.77L142.42,265.61L143,197.56L143.15,199.57L143.44,209.64L143.88,204.29L144.03,206.24L144.46,201.07L144.61,209.74L145.34,160.52L145.49,161.89L145.63,222.23L146.66,131.33L146.8,133.15L146.95,139.77L147.1,120.4L147.68,122.97L147.83,140.22L147.97,126.99L148.12,137.37L148.27,198.54L148.56,138.01L148.85,138.44L149,167.48L149.14,137.98L149.29,224.65L149.44,163.02L149.58,203.38L149.87,144.71L150.31,166.32L150.46,172.32L151.92,220.61L152.21,218.22L152.36,212.92L152.65,210.08L152.8,215.24L152.94,198.84L153.82,214.62L153.97,203.2L154.55,225.99L154.85,223.17L154.99,213.67L155.72,206.35L155.87,211.56L156.45,196.8L156.6,200.58L156.75,262.9L157.48,194.68L157.62,205.73L157.77,209.4L158.94,179.47L159.09,177.14L159.23,183.86L159.52,167.12L159.67,156.92L160.4,125.28L160.55,150.77L160.99,113.05L161.28,182.84L161.43,177.36L161.57,120.6L161.72,145.64L161.86,111.38L162.3,141.15L162.45,116.9L163.18,155.09L163.33,132.09L163.47,168.52L164.2,163.86L164.35,167.96L164.64,183.51L164.79,193.65L165.81,222.92L165.96,219.79L166.25,218.97L166.4,225.58L166.54,213.84L166.69,226.4L166.84,199.73L166.98,221.88L167.13,192.27L167.57,212.56L167.86,210.27L168.01,200.26L168.15,205.6L168.44,198.59L168.59,200.97L168.74,195.42L169.03,195.07L169.17,201.45L169.47,199.39L169.61,195.12L170.05,206.63L170.49,205.45L170.64,199.7L170.78,214.87L171.37,201.17L171.51,200.14L171.95,197.54L172.1,202.15L172.25,196.74L172.39,195.81L172.54,199.83L172.68,192.06L173.85,139.85L174,232.61L174.15,104.86L174.73,117.22L174.88,218.3L175.02,78.91L175.61,104.82L175.75,227.57L176.19,113.41L176.49,121.05L176.63,148.92L176.78,124.72L176.92,210.57L177.07,160.57L177.22,188.69L177.36,116.58L177.95,128.82L178.09,160.1L178.24,140.46L178.39,163.22L178.68,159.55L178.83,170.24L179.99,213.79L180.14,207.96L180.29,213.46L180.73,204.71L180.87,211.58L181.02,200.37L181.16,205.04L181.31,197L181.6,199.36L181.75,199.03L182.33,195.43L182.48,203.62L182.63,195.49L182.77,203.01L182.92,195.09L183.36,200.05L183.5,195.11L183.65,201.94L184.24,199.09L184.38,197.77L185.11,194.14L185.26,198.76L185.84,193.85L185.99,212.35L186.87,190.6L187.01,262.29L187.89,143.53L188.04,143.94L188.18,191.01L188.77,100.49L188.91,156.18L189.06,109.09L189.21,160.75L189.65,113.46L189.79,146.27L190.23,107.93L190.38,218.74L190.82,91.75L191.11,101.22L191.25,179.19L191.4,120.3L191.98,142.54L192.13,164.25L192.42,166.91L192.57,158.81L192.72,163.25L192.86,170.16L194.32,215.48L194.47,191.95L194.62,207.89L195.2,205.79L195.35,195.74L195.49,203.27L196.08,195.61L196.23,200.41L196.37,195.14L196.81,201.9L196.96,197.32L197.1,197.42L197.54,201.25L197.69,194.84L197.83,200.18L197.98,195.72L198.27,195.94L198.42,194.25L198.71,194.17L198.86,198.34L199,194.55L199.3,193.53L199.59,203.2L199.73,200.6L199.88,192.46L200.47,259.05L200.61,219.19L200.76,195.62L201.78,185.32L201.93,231.65L202.81,112.66L202.95,148.16L203.1,103.96L203.24,211.02L203.68,122.72L203.83,136.18L203.97,195.42L204.41,115.78L204.56,158.64L204.71,113.64L204.85,159.81L205.44,150.57L205.58,135.37L205.73,160.36L206.46,158.18L206.61,170.52L207.63,213.42L207.92,210.09L208.07,277.95L208.51,156.62L208.95,214.62L209.09,182.9L209.82,202.61L209.97,195.53L210.55,206.73L210.85,204.93L210.99,202.37L211.14,208.22L211.29,200.67L211.72,204.28L211.87,203.2L212.02,203.08L212.16,201.99L212.31,202.43L212.46,200.64L212.6,201.58L212.75,199.88L212.89,203L213.04,197.21L213.33,200.31L213.48,198.92L213.77,212.55L214.06,201.09L214.21,196.55L214.36,197.21L214.5,191.4L214.79,203.65L215.23,193.8L215.38,174.61L216.26,147.61L216.4,151.63L216.55,200.16L216.84,116.7L217.13,173.78L217.28,169.31L217.43,177.67L217.57,115.22L218.01,159.79L218.45,155.37L218.6,164.33L218.74,197.73L219.18,136.08L219.33,165.4L219.47,163.42L219.62,177.25L219.77,137.8L219.91,159.08L220.06,140.68L221.23,202.44L221.37,201.99L221.52,273.47L222.11,204.55L222.25,209.11L222.54,211.18L222.98,196.16L223.13,204.26L224.01,195.24L224.15,198.65L224.3,195.27L224.59,205.25L224.74,203.56L225.03,204.8L225.32,203.33L225.47,203.83L225.62,203.86L225.76,204.14L225.91,202.96L226.05,203.25L226.2,201.26L226.35,205.6L226.49,200.75L226.64,202.47L226.78,265.13L227.22,197.05L227.37,265.03L227.52,280.82L227.81,198.03L228.39,222.04L228.54,207.44L228.69,208.34L228.83,198.36L229.71,163.85L229.86,174.77L230.73,139.39L230.88,210.59L231.76,114.54L231.9,155.46L232.05,110.84L232.49,157.07L232.63,140.91L232.78,159.19L233.22,118.28L233.51,127.83L233.66,150.96L233.8,125.02L233.95,217.85L234.39,152.83L234.53,155.28L235.41,200.6L235.56,262.68L236.44,200.86L236.58,208.02L237.02,196.04L237.31,199.02L237.46,200.95L237.75,202.18L238.04,196.6L238.19,203.26L238.34,195.25L238.92,198.26L239.07,200.02L239.51,194.78L239.8,194.86L239.94,200.59L240.09,194.51L240.68,195.39L240.82,196.56L241.41,197.88L241.55,193.65L241.7,195.83L242.28,203.07L242.43,196.69L242.58,193.08L242.72,200.7L243.02,188.66L243.31,199.05L243.45,192.85L244.62,138.37L244.77,166.16L244.92,223.96L245.21,137.78L245.35,194.2L245.5,120.95L245.94,247.03L246.09,115.9L246.23,186.27L246.38,122.82L246.82,193.78L247.11,172.36L247.26,133.68L247.4,157.26L247.55,118.14L247.99,139.58L248.13,142.78L248.43,150.43L248.57,159.03L248.86,167.59L249.01,174.15L249.74,199.99L249.89,270.41L250.33,196.96L250.76,205.38L250.91,197.13L251.06,200.84L251.5,195.19L251.64,198.71L251.79,194.79L252.23,201.56L252.52,201.15L252.67,194.67L252.81,200.66L253.4,200L253.54,194.42L253.69,198.06L254.13,194.27L254.27,197.69L254.42,196.28L254.57,194.44L254.86,197.7L255.15,196.38L255.3,198.14L255.59,195.51L255.88,197.81L256.03,205.94L256.47,242.95L256.76,222.15L256.91,203.74L257.05,201.91L257.2,261.99L257.93,169.03L258.08,230.21L258.95,121.78L259.1,142L259.25,127.5L259.54,199.67L260.12,161.19L260.27,130.91L260.71,144.9L260.85,106.06L261,151.93L261.15,105.2L261.58,148.13L261.73,132.3L262.75,167.38L262.9,166.65L263.34,254.87L263.49,157.6L263.63,225.24L263.78,180.96L264.51,218.73L264.66,202.58L264.8,218.26L265.24,198.98L265.39,216.94L265.53,189.64L266.26,211.01L266.41,198.84L266.56,214.03L267.14,206.39L267.29,202.39L267.58,200.14L267.73,203.73L268.02,203.64L268.16,263.83L268.46,198.48L268.75,261.56L268.9,280.98L269.77,198.2L269.92,197.31L270.21,196.1L270.36,199.26L270.5,193.57L270.65,192.81L270.8,196.26L271.38,208.38L271.53,185.26L272.11,162.11L272.26,201.45L273.14,111.19L273.28,206.05L274.01,125.38L274.16,129.39L274.31,122.03L274.45,134.19L274.89,116.57L275.04,128.76L275.18,118.87L275.77,191.06L275.91,130.53L276.79,169.14L276.94,176.09L278.11,206.55L278.25,197.04L278.4,206.84L278.84,196.06L278.98,204.39L279.13,194.94L279.28,201.15L279.86,194.77L280.01,197.82L280.59,198.83L280.89,194.57L281.03,194.47L281.18,194.67L281.32,198.88L281.76,193.73L282.2,193.77L282.35,195.76L282.49,196.44L282.64,193.96L282.93,195.76L283.08,202.77L283.52,189.52L284.1,193.63L284.25,257.3L284.39,145.65L284.98,181.15L285.13,187.64L285.42,170.12L285.56,224.4L286.3,126.62L286.44,153.43L287.17,102.15L287.32,130.41L287.47,111.75L287.9,139.4L288.05,114.86L288.2,208.09L288.64,116.9L288.93,155.68L289.07,169.7L289.22,91.86L289.81,126.16L289.95,159.07L290.1,133.37L290.24,160.22L290.68,151.35L290.83,166.64L292,211.26L292.29,209.26L292.44,207.57L292.58,207.8L292.73,207.69L292.88,206.28L293.02,208.21L293.17,190.02L293.61,201.1L294.05,198.42L294.19,196.51L294.34,199.66L294.48,194.55L294.92,196.47L295.07,198.73L295.95,194.23L296.09,196.85L296.68,192.55L296.97,194.08L297.12,201.75L297.26,205.05L297.41,195.75L297.55,201.75L297.7,186.49L297.85,259.43L298.43,203.96L298.58,194.65L298.72,198.75L298.87,186.77L299.16,198.35L299.31,193.85L299.46,186.47L299.6,239.2L300.48,144.45L300.63,158.61L300.77,193.2L301.06,113.36L301.21,152.35L301.36,107.31L301.65,170.95L302.23,161.09L302.38,164.84L303.11,99.26L303.26,151.55L303.4,100.73L303.55,162.42L303.99,129.71L304.13,160.08L304.28,143.05L304.72,164.98L304.87,168.44L305.89,204.93L306.04,197.5L306.47,208.08L306.62,196.54L306.77,207.05L306.91,196.13L307.5,195.23L307.64,200.95L307.79,194.94L307.94,201.72L308.52,194.89L308.67,194.46L308.81,194.77L308.96,198.77L309.4,194.24L309.84,194.47L309.98,198.19L310.57,193.57L310.71,195.78L310.86,194.9L311.01,204.18L311.59,200.82L311.74,200.32L311.88,201.31L312.03,187.22L312.62,211.2L312.76,262.96L312.91,178.91L313.64,183.47L313.78,178.16L313.93,230.57L314.37,165.06L314.52,151.73L314.66,160.84L314.81,139.82L314.95,147.39L315.1,122.04L315.39,120.37L315.69,137.58L315.83,117.45L316.56,140.21L316.71,139.6L316.86,143.13L317.15,132.41L317.88,166.45L318.03,162.4L318.32,170.31L318.46,231.77L319.05,241.01L319.19,151.59L319.34,272.83L319.78,150.56L320.07,169.46L320.22,230.83L320.36,181.5L320.95,198.19L321.1,212.84L321.24,197.68L321.83,198.63L321.97,205.31L322.41,197.25L322.56,209.47L322.7,198.67L322.85,204.22L323,204.74L323.14,198.08L324.02,218.2L324.17,210.81L325.04,197.17L325.19,201.56L325.48,195.44L325.63,200.6L325.92,196.85L326.07,197.25L326.21,199.88L326.8,193.36L326.94,197.08L327.09,202.21L327.24,262.97L327.68,177.37L327.82,176.51L328.11,186.69L328.26,167.69L328.55,166.66L328.7,154.71L328.99,142.24L329.28,174.29L329.43,116.29L329.58,215.97L330.02,78.51L330.16,193.5L330.31,97.71L331.04,197.65L331.18,191.03L331.33,124.92L332.06,156L332.21,146.81L332.35,163.92L332.5,159.12L332.65,167.78L332.79,178.31L332.94,176.52L333.09,194.31L334.11,212.91L334.26,206.49L334.4,207.8L334.55,202.63L334.69,211.26L335.43,201.21L335.57,202.5L335.72,202.48L336.3,203.09L336.45,199.17L336.59,203.71L337.03,195.88L337.18,204.56L337.33,195.95L337.47,199.94L337.62,205.86L337.76,198.68L338.35,205.13L338.5,198.11L338.93,197.33L339.08,205.92L339.23,197.6L339.37,197.4L339.52,204.07L339.67,196.79L339.96,200.83L340.1,194.18L340.98,207.83L341.13,201.66L341.86,174.15L342.01,186.93L342.15,243.85L343.03,144.72L343.17,140.26L343.61,127.08L343.76,132.97L343.91,190.15L344.05,102.82L344.64,108.35L344.78,161.31L345.22,116.11L345.51,123.46L345.66,157.65L345.81,126.56L346.25,160.77L346.39,139.11L346.54,163.95L346.68,161.79L346.83,175.23L346.98,167.28L347.27,181.85L347.42,194.55L348.15,211.31L348.44,205.63L348.58,205.71L349.17,200.8L349.61,200.96L349.75,203.82L349.9,196.93L350.05,204.48L350.49,199.84L350.63,199.95L350.92,201.52L351.07,197.9L351.22,202.5L351.8,202.24L351.95,198.59L352.24,197.24L352.39,203.26L352.53,198.49L352.68,265.68L352.83,148.46L353.41,176.12L353.56,198.98L353.7,185.93L354.14,208.64L354.29,204.39L354.87,192.29L355.16,198.87L355.31,203.58L355.6,196.28L355.75,238.51L355.9,237.83L356.04,180.94L356.92,141.45L357.07,157.62L357.5,116.15L357.8,117.33L357.94,131.89L358.53,139.02L358.67,119.9L358.82,146.58L359.26,168.8L359.55,105.19L359.7,154.42L359.84,118.18L360.28,168.3L360.43,149.07L360.57,166.73L360.72,164.42L360.87,168.23L361.01,172.06L362.04,213.76L362.33,213.59L362.48,208.12L362.62,212.93L363.06,212.29L363.21,194.65L363.35,205.72L363.94,199.76L364.08,202.97L364.23,197.79L364.38,266.98L364.96,199.46L365.25,200.52L365.4,196.2L365.55,203.44L365.69,195.74L366.13,200.72L366.28,194.58L366.42,196.96L366.57,193.84L366.86,195.81L367.01,194.05L367.45,192.72L367.74,195.43L367.89,195.13L368.03,193.87L368.18,193.47L368.32,204.39L368.47,195.29L368.62,203.37L368.76,259.15L369.06,269.93L369.79,166.97L369.93,163L370.66,133.46L370.96,138.04L371.1,193.69L371.98,98.77L372.13,150.59L372.42,151.31L372.86,91.83L373,158.61L373.15,100.48L373.3,161.21L373.73,115.96L373.88,154.17L374.03,119.94L374.47,155.1L374.61,141.26L374.76,162.94L374.9,156.67L375.2,173.34L375.34,183.75L376.37,205.25L376.51,196.13L376.95,205.81L377.1,195.91L377.24,199.68L377.39,195.21L377.83,194.66L377.97,200.2L378.12,195.65L378.27,199.03L379,194.93L379.29,196.11L379.44,196.31L379.73,196.82L379.88,193.89L380.02,197.52L380.46,193.64L380.75,193.71L380.9,195.23L381.19,193.19L381.34,194.3L381.48,258.47L381.78,266.5L381.92,149.49L382.22,162.1L382.36,217.27L382.51,170L383.09,191.14L383.24,186.39L383.97,165.73L384.12,153.69L384.26,162.93L384.41,126.39L384.55,158.85L384.7,138.33L384.85,156.79L384.99,113.57L385.14,147.69L385.29,110.09L385.87,96.89L386.02,146.33L386.16,94.36L386.31,147.28L386.89,146.59L387.04,111.15L387.19,143.61L387.33,109.63L387.77,137.74L387.92,116.53L388.94,230.59L389.09,191.21L389.23,235.59L389.38,143.86L389.82,220.72L389.96,179.21L390.7,215.74L390.84,198.6L390.99,213.5L391.13,188.69L391.57,197.85L391.72,194.7L391.87,199.58L392.45,197.6L392.6,194.7L392.74,200.31L392.89,194.28L393.33,196.33L393.47,194.12L393.62,196.98L393.91,193.86L394.21,194.08L394.35,195.11L394.64,195.77L394.79,193.12L395.23,193.57L395.37,193.4L395.52,195.24L395.96,192.16L396.11,193.29L396.25,192.55L396.54,193.03L396.69,199.84L397.13,175.48L397.57,177.73L397.71,231.65L398.3,131.77L398.59,177.3L398.74,235.42L399.47,114.92L399.62,143.7L400.2,152.82L400.35,106.85L400.49,171.65L400.64,120.45L400.93,205.4L401.22,136.74L401.37,158.5L401.81,128.47L401.95,160.25L402.1,128.65L402.25,162.09L402.39,144.85L402.54,162.08L402.69,221.5L402.98,173.65L403.42,204.13L403.56,207.12L404,205.74L404.15,230.31L404.29,207.86L404.44,229.64L404.88,191.1L405.03,207.89L405.17,197.35L405.32,209.6L405.9,203.35L406.05,196.04L406.19,204.71L406.78,198.86L406.93,199.66L407.07,200.79L407.22,195.62L407.36,202.51L407.95,199.77L408.1,195.13L408.24,202.31L408.68,194.8L408.83,197.68L408.97,195.21L409.12,202.1L409.27,195.12L409.7,197.7L409.85,197.74L410,206.25L410.44,196.03L410.58,197.12L410.73,194.98L410.87,197.88L411.02,257.83L412.04,169.88L412.19,166.73L413.07,141.75L413.21,155.8L413.94,122.96L414.24,123.45L414.38,134.19L414.53,140.84L414.68,211.61L415.26,138.05L415.55,161.93L415.7,230.13L416.28,245.82L416.43,196.99L416.58,232.26L416.72,145.84L417.31,197L417.45,205.53L417.75,211.42L417.89,213.74L418.33,224.06L418.48,205.09L418.62,220.66L419.21,219.69L419.35,212.66L419.65,235.76L420.09,233.12L420.23,221.15L420.38,222.49L420.52,214.06L420.67,220.96L421.11,208.11L421.26,205.32L421.4,208.91L421.99,206.19L422.13,207.86L422.86,202.92L423.01,203.23L423.16,205.3L423.3,205.51L423.45,201.64L423.59,203.6L423.74,266.19L424.18,202.19L424.47,208.5L424.62,285.63L425.06,210.29L425.5,214.4L425.64,209.7L426.81,150.42L426.96,164.26L427.4,139.64L427.54,150.32L427.69,209.09L427.98,128.49L428.57,150.1L428.71,164.66L428.86,155.12L429.01,219.3L429.15,99.14L429.74,197.33L429.88,213.41L430.03,214.85L430.17,225.59L430.47,170.6L430.91,190.59L431.05,193.98L431.34,184.82L431.49,206.82L431.64,203.96L432.66,249.2L432.81,243.38L434.27,210.87L434.42,210.94L434.56,211.58L434.85,209.18L435,209.61" style="vector-effect: non-scaling-stroke; fill: none; stroke: rgb(0, 128, 0); stroke-opacity: 1; stroke-width: 2px; opacity: 1;"/></g><g class="points"/><g class="text"/></g></g></g><g class="overplot"/><path class="xlines-above crisp" d="M0,0" style="fill: none;"/><path class="ylines-above crisp" d="M0,0" style="fill: none;"/><g class="overlines-above"/><g class="xaxislayer-above"><g class="xtick"><text text-anchor="middle" x="0" y="433" transform="translate(164.22,0)" style="font-family: 'Open Sans', verdana, arial, sans-serif; font-size: 12px; fill: rgb(42, 63, 95); fill-opacity: 1; white-space: pre; opacity: 1;"><tspan class="line" dy="0em" x="0" y="433">Aug 7</tspan><tspan class="line" dy="1.3em" x="0" y="433">2022</tspan></text></g><g class="xtick"><text text-anchor="middle" x="0" y="433" style="font-family: 'Open Sans', verdana, arial, sans-serif; font-size: 12px; fill: rgb(42, 63, 95); fill-opacity: 1; white-space: pre; opacity: 1;" transform="translate(262.48,0)">Aug 14</text></g><g class="xtick"><text text-anchor="middle" x="0" y="433" style="font-family: 'Open Sans', verdana, arial, sans-serif; font-size: 12px; fill: rgb(42, 63, 95); fill-opacity: 1; white-space: pre; opacity: 1;" transform="translate(360.74,0)">Aug 21</text></g><g class="xtick"><text text-anchor="middle" x="0" y="433" style="font-family: 'Open Sans', verdana, arial, sans-serif; font-size: 12px; fill: rgb(42, 63, 95); fill-opacity: 1; white-space: pre; opacity: 1;" transform="translate(459,0)">Aug 28</text></g></g><g class="yaxislayer-above"><g class="ytick"><text text-anchor="end" x="79" y="4.199999999999999" transform="translate(0,348.58000000000004)" style="font-family: 'Open Sans', verdana, arial, sans-serif; font-size: 12px; fill: rgb(42, 63, 95); fill-opacity: 1; white-space: pre; opacity: 1;">50</text></g><g class="ytick"><text text-anchor="end" x="79" y="4.199999999999999" style="font-family: 'Open Sans', verdana, arial, sans-serif; font-size: 12px; fill: rgb(42, 63, 95); fill-opacity: 1; white-space: pre; opacity: 1;" transform="translate(0,268.66999999999996)">0</text></g><g class="ytick"><text text-anchor="end" x="79" y="4.199999999999999" style="font-family: 'Open Sans', verdana, arial, sans-serif; font-size: 12px; fill: rgb(42, 63, 95); fill-opacity: 1; white-space: pre; opacity: 1;" transform="translate(0,188.76)">50</text></g><g class="ytick"><text text-anchor="end" x="79" y="4.199999999999999" style="font-family: 'Open Sans', verdana, arial, sans-serif; font-size: 12px; fill: rgb(42, 63, 95); fill-opacity: 1; white-space: pre; opacity: 1;" transform="translate(0,108.85)">100</text></g></g><g class="overaxes-above"/></g></g><g class="polarlayer"/><g class="smithlayer"/><g class="ternarylayer"/><g class="geolayer"/><g class="funnelarealayer"/><g class="pielayer"/><g class="iciclelayer"/><g class="treemaplayer"/><g class="sunburstlayer"/><g class="glimages"/><defs id="topdefs-4de91c"><g class="clips"/><clipPath id="legend4de91c"><rect width="164" height="67" x="0" y="0"/></clipPath></defs><g class="layer-above"><g class="imagelayer"/><g class="shapelayer"/></g><g class="infolayer"><g class="legend" pointer-events="all" transform="translate(523.7,100)"><rect class="bg" shape-rendering="crispEdges" width="164" height="67" x="0" y="0" style="stroke: rgb(68, 68, 68); stroke-opacity: 1; fill: rgb(255, 255, 255); fill-opacity: 1; stroke-width: 0px;"/><g class="scrollbox" transform="" clip-path="url(#legend4de91c)"><g class="groups"><g class="traces" transform="translate(0,14.5)" style="opacity: 1;"><text class="legendtext" text-anchor="start" x="40" y="4.680000000000001" style="font-family: 'Open Sans', verdana, arial, sans-serif; font-size: 12px; fill: rgb(42, 63, 95); fill-opacity: 1; white-space: pre;">BESS</text><g class="layers" style="opacity: 1;"><g class="legendfill"/><g class="legendlines"><path class="js-line" d="M5,0h30" style="fill: none; stroke: rgb(0, 191, 255); stroke-opacity: 1; stroke-width: 2px;"/></g><g class="legendsymbols"><g class="legendpoints"/></g></g><rect class="legendtoggle" x="0" y="-9.5" width="158.71875" height="19" style="fill: rgb(0, 0, 0); fill-opacity: 0;"/></g><g class="traces" transform="translate(0,33.5)" style="opacity: 1;"><text class="legendtext" text-anchor="start" x="40" y="4.680000000000001" style="font-family: 'Open Sans', verdana, arial, sans-serif; font-size: 12px; fill: rgb(42, 63, 95); fill-opacity: 1; white-space: pre;">Solar</text><g class="layers" style="opacity: 1;"><g class="legendfill"/><g class="legendlines"><path class="js-line" d="M5,0h30" style="fill: none; stroke: rgb(255, 0, 0); stroke-opacity: 1; stroke-width: 2px;"/></g><g class="legendsymbols"><g class="legendpoints"/></g></g><rect class="legendtoggle" x="0" y="-9.5" width="158.71875" height="19" style="fill: rgb(0, 0, 0); fill-opacity: 0;"/></g><g class="traces" transform="translate(0,52.5)" style="opacity: 1;"><text class="legendtext" text-anchor="start" x="40" y="4.680000000000001" style="font-family: 'Open Sans', verdana, arial, sans-serif; font-size: 12px; fill: rgb(42, 63, 95); fill-opacity: 1; white-space: pre;">Grid Meter (Net Load)</text><g class="layers" style="opacity: 1;"><g class="legendfill"/><g class="legendlines"><path class="js-line" d="M5,0h30" style="fill: none; stroke: rgb(0, 128, 0); stroke-opacity: 1; stroke-width: 2px;"/></g><g class="legendsymbols"><g class="legendpoints"/></g></g><rect class="legendtoggle" x="0" y="-9.5" width="158.71875" height="19" style="fill: rgb(0, 0, 0); fill-opacity: 0;"/></g></g></g><rect class="scrollbar" rx="20" ry="3" width="0" height="0" x="0" y="0" style="fill: rgb(128, 139, 164); fill-opacity: 1;"/></g><g class="g-gtitle"><text class="gtitle" x="297.5" y="50" text-anchor="middle" dy="0em" style="font-family: 'Open Sans', verdana, arial, sans-serif; font-size: 17px; fill: rgb(42, 63, 95); opacity: 1; font-weight: normal; white-space: pre;"><tspan class="line" dy="0em" x="297.5" y="50">Scenario 3</tspan><tspan class="line" dy="1.3em" x="297.5" y="50">Microgrid Output</tspan><tspan class="line" dy="2.6em" x="297.5" y="50">From: August 01, 2022 to August 31, 2022</tspan></text></g><g class="g-xtitle"><text class="xtitle" x="297.5" y="476.409375" text-anchor="middle" style="font-family: 'Open Sans', verdana, arial, sans-serif; font-size: 14px; fill: rgb(42, 63, 95); opacity: 1; font-weight: normal; white-space: pre;">Time</text></g><g class="g-ytitle"><text class="ytitle" transform="rotate(-90,32.840625,260)" x="32.840625" y="260" text-anchor="middle" style="font-family: 'Open Sans', verdana, arial, sans-serif; font-size: 14px; fill: rgb(42, 63, 95); opacity: 1; font-weight: normal; white-space: pre;">Demand (kW)</text></g></g></svg>