<svg class="main-svg" xmlns="http://www.w3.org/2000/svg" xmlns:xlink="http://www.w3.org/1999/xlink" width="700" height="500" style="" viewBox="0 0 700 500"><rect x="0" y="0" width="700" height="500" style="fill: rgb(255, 255, 255); fill-opacity: 1;"/><defs id="defs-acf34a"><g class="clips"><clipPath id="clipacf34axyplot" class="plotclip"><rect width="540" height="320"/></clipPath><clipPath class="axesclip" id="clipacf34ax"><rect x="80" y="0" width="540" height="500"/></clipPath><clipPath class="axesclip" id="clipacf34ay"><rect x="0" y="100" width="700" height="320"/></clipPath><clipPath class="axesclip" id="clipacf34axy"><rect x="80" y="100" width="540" height="320"/></clipPath></g><g class="gradients"/><g class="patterns"/></defs><g class="bglayer"/><g class="layer-below"><g class="imagelayer"/><g class="shapelayer"/></g><g class="cartesianlayer"><g class="subplot xy"><g class="layer-subplot"><g class="shapelayer"/><g class="imagelayer"/></g><g class="minor-gridlayer"><g class="x"/><g class="y"/></g><g class="gridlayer"><g class="x"><path class="xgrid crisp" transform="translate(184.55,0)" d="M0,100v320" style="stroke: rgb(255, 255, 255); stroke-opacity: 1; stroke-width: 1px;"/><path class="xgrid crisp" transform="translate(306.53,0)" d="M0,100v320" style="stroke: rgb(255, 255, 255); stroke-opacity: 1; stroke-width: 1px;"/><path class="xgrid crisp" transform="translate(428.5,0)" d="M0,100v320" style="stroke: rgb(255, 255, 255); stroke-opacity: 1; stroke-width: 1px;"/><path class="xgrid crisp" transform="translate(550.48,0)" d="M0,100v320" style="stroke: rgb(255, 255, 255); stroke-opacity: 1; stroke-width: 1px;"/></g><g class="y"><path class="ygrid crisp" transform="translate(0,282.97)" d="M80,0h540" style="stroke: rgb(255, 255, 255); stroke-opacity: 1; stroke-width: 1px;"/><path class="ygrid crisp" transform="translate(0,213.95999999999998)" d="M80,0h540" style="stroke: rgb(255, 255, 255); stroke-opacity: 1; stroke-width: 1px;"/><path class="ygrid crisp" transform="translate(0,144.94)" d="M80,0h540" style="stroke: rgb(255, 255, 255); stroke-opacity: 1; stroke-width: 1px;"/></g></g><g class="zerolinelayer"><path class="yzl zl crisp" transform="translate(0,351.99)" d="M80,0h540" style="stroke: rgb(255, 255, 255); stroke-opacity: 1; stroke-width: 2px;"/></g><path class="xlines-below"/><path class="ylines-below"/><g class="overlines-below"/><g class="xaxislayer-below"/><g class="yaxislayer-below"/><g class="overaxes-below"/><g class="plot" transform="translate(80,100)" clip-path="url(#clipacf34axyplot)"><g class="scatterlayer mlayer"><g class="trace scatter tracef0f058" style="stroke-miterlimit: 2; opacity: 0.5;"><g class="fills"/><g class="errorbars"/><g class="lines"><path class="js-line" d="M0,303.78L2,303.67L2.18,303.85L3.27,303.7L3.45,303.79L5.08,303.76L5.26,301.53L5.99,251.64L6.35,251.95L6.53,251.67L7.26,252.29L7.44,251.71L8.53,252.16L8.71,101.26L8.89,59.34L9.44,101.01L9.62,123.28L11.07,92.6L11.25,93.44L11.44,122.68L11.62,186.39L12.34,180.64L12.52,205.1L13.25,303.86L13.61,303.74L13.79,303.68L14.7,303.79L14.88,303.76L16.52,303.66L16.7,303.87L17.79,303.74L17.97,303.77L21.96,303.76L22.14,302.93L22.33,303.02L22.51,298.01L23.42,251.82L23.96,251.84L24.14,251.86L25.77,252.05L25.96,251.92L26.5,63.65L26.86,77.33L27.05,82.51L27.41,73.24L27.59,79.8L27.77,86.22L27.95,80.77L28.32,90.73L28.5,81.23L28.68,93.83L29.77,181.08L29.95,205.85L31.04,303.86L31.4,303.83L31.58,303.77L33.94,303.72L34.12,303.78L37.94,303.71L38.12,303.81L39.57,303.74L39.75,300.57L40.11,288.81L40.3,270.93L41.2,251.78L41.38,251.93L42.29,251.81L42.47,252.23L43.02,251.84L43.2,252.27L43.38,176.38L44.11,58.96L44.29,65.72L44.47,59.17L45.02,55.98L45.38,76.44L45.56,70.94L47.19,189.68L47.37,204.43L48.46,303.91L49.01,303.77L49.19,303.7L50.64,303.78L50.82,303.73L56.81,303.74L56.99,302.37L57.18,302.54L57.36,299.65L57.9,251.94L58.63,252.1L58.81,273.4L58.99,284.64L59.35,281.97L59.54,270.59L59.72,284.82L59.9,280.95L60.08,252.15L60.44,261.08L60.81,251.67L60.99,252.01L61.17,251.38L61.71,251.97L61.9,252.11L62.08,251.83L62.26,252.53L62.44,252.36L62.62,252.64L62.98,275.37L63.35,251.9L63.53,261.58L64.44,297.04L64.62,303.79L67.34,303.59L67.52,303.82L68.97,303.6L69.16,303.87L70.06,303.8L70.25,303.7L71.33,303.82L71.52,303.65L72.61,303.73L72.79,303.75L74.24,303.81L74.42,285.73L75.33,251.99L75.51,265.12L75.69,261.5L75.87,276.6L76.6,251.66L76.96,251.87L77.14,251.91L78.41,252.07L78.59,251.92L79.32,251.99L79.5,134.09L79.68,56.53L80.23,66.11L80.41,71.49L80.77,75.88L80.95,95.99L81.14,91.79L81.32,104.98L83.31,303.92L83.5,303.81L83.68,303.88L84.58,303.74L84.77,303.72L89.12,303.75L89.3,303.78L91.66,303.49L91.85,299.86L92.03,301.07L92.21,294.09L93.12,251.81L93.3,251.88L93.48,251.93L94.93,252.01L95.11,153.49L95.29,33.46L95.84,42.22L96.02,48.1L96.2,43.45L96.38,56.51L96.56,53.64L97.84,75.01L98.02,68.92L98.2,70.77L98.38,84.19L99.11,134.57L99.29,158.76L100.74,303.86L101.28,303.77L101.47,303.76L104.01,303.72L104.19,303.79L106,303.7L106.18,303.81L107.82,303.72L108,303.77L109.09,303.75L109.27,302.29L109.63,289.6L109.82,274.76L110.36,251.83L110.72,251.93L110.9,251.87L112.17,252.05L112.36,201.08L112.72,50.61L113.08,66.28L113.26,85.31L113.99,68.39L114.17,70.77L114.35,74.78L114.53,71.97L114.72,75.24L114.9,82L115.08,73.89L115.26,90.49L115.44,111.27L115.81,78.94L115.99,102.82L116.17,113.49L116.71,169.39L116.89,239.54L117.26,303.89L117.8,296.1L117.98,303.76L119.07,303.84L119.25,303.72L127.24,303.76L127.42,293.48L128.33,251.79L128.51,251.97L129.24,251.94L129.42,252.14L129.6,251.74L130.14,252.14L130.33,252.07L130.69,251.94L130.87,200.16L131.05,79.57L131.6,95.68L131.78,100.16L131.96,103.57L132.32,103.22L132.5,98.55L132.69,92.45L132.87,109.7L133.05,105.35L134.14,140.59L134.32,211.07L134.68,303.89L135.23,303.79L135.41,303.79L138.49,303.71L138.68,303.81L140.85,303.67L141.04,303.82L142.67,303.76L142.85,303.77L144.3,303.78L144.48,298.68L144.85,302.28L145.03,295.32L145.21,283.65L145.75,251.84L146.12,251.92L146.3,252.02L146.84,251.65L147.03,252.06L147.21,252.66L148.11,251.99L148.3,251.99L149.57,251.99L149.75,251.1L150.66,252.1L150.84,251.91L151.74,252.13L151.93,252.05L152.11,252.03L152.29,276.61L152.47,303.92L153.2,303.7L153.38,303.92L154.47,303.63L154.65,303.76L157.37,303.79L157.55,303.7L158.82,303.75L159.01,303.75L161.73,303.78L161.91,303.76L162.09,303.74L162.27,290.58L163.36,251.89L163.54,252.03L164.45,251.91L164.63,251.91L167.9,252.14L168.08,251.88L168.26,252.15L168.44,199.43L168.63,161.56L169.17,198.23L169.35,216.02L170.26,303.96L170.8,303.81L170.98,303.71L172.62,303.82L172.8,303.69L174.62,303.78L174.8,303.75L179.33,303.91L179.52,302.56L180.42,251.83L180.61,251.91L180.79,251.92L182.6,252.02L182.78,251.98L183.33,252.07L183.51,185.03L183.69,71.69L184.24,87.94L184.42,92.39L184.6,93.19L184.78,90.6L184.96,92.08L185.14,89.6L185.32,91.21L185.51,104.47L187.68,303.95L188.05,303.73L188.23,303.81L192.58,303.71L192.77,303.78L196.03,303.73L196.22,297.94L196.4,292.98L196.76,302.4L196.94,300.75L198.03,251.84L198.21,252.05L199.12,251.84L199.3,251.95L201.3,252.09L201.48,93.18L201.66,75.15L202.02,97.39L202.21,113.64L203.29,155.9L203.48,176.22L205.11,303.89L205.29,303.83L205.47,303.81L214.18,303.66L214.37,298.34L215.46,251.8L215.64,251.97L216.73,251.89L216.91,251.93L218.54,252.02L218.72,87.75L218.9,74.99L219.27,88.83L219.45,84.49L219.63,82L221.45,194.52L221.63,190.56L222.72,303.87L222.9,303.73L223.08,303.85L224.89,303.74L225.08,303.82L226.16,303.77L226.35,303.76L231.61,303.71L231.79,301.97L232.15,288.29L232.34,258.62L232.88,251.75L233.24,251.76L233.43,252.01L234.7,251.89L234.88,252.01L235.24,48.43L235.78,52.87L235.97,65.9L236.15,64.89L236.33,56.01L237.24,77.59L237.42,75.49L237.6,71.77L237.78,93.3L240.32,303.85L240.5,303.76L240.69,303.75L244.13,303.8L244.32,303.66L245.41,303.78L245.59,303.68L246.68,303.77L246.86,303.74L249.04,303.85L249.22,301.9L250.12,251.86L250.31,251.96L250.49,251.91L251.76,251.85L251.94,252L252.67,251.85L252.85,171.65L253.03,72.98L253.57,80.37L253.75,107.71L254.3,113.39L254.48,100.51L254.66,101.92L254.84,89.16L255.03,102.68L255.21,131.04L255.75,172.64L255.93,186.89L257.57,303.92L257.75,303.68L257.93,303.81L264.1,303.81L264.28,303.67L265.55,303.79L265.73,303.73L266.1,303.33L266.28,302.88L266.46,303.75L266.64,294.01L267.55,251.9L267.73,251.9L268.64,251.88L268.82,251.84L269.73,252.14L269.91,251.89L270.27,252.16L270.45,213.49L270.64,132.88L271.18,173.31L271.36,261.66L271.54,263.78L271.72,167.56L271.91,128.21L272.27,187.19L272.45,225.32L272.81,165.72L273.18,183.24L273.36,198.03L274.81,303.92L274.99,303.71L276.08,303.73L276.26,303.71L283.89,303.77L284.07,297.27L284.79,251.85L285.16,251.99L285.34,251.81L286.06,252.02L286.25,251.88L286.43,252.05L287.52,251.97L287.7,252.07L287.88,252L288.06,174.29L288.97,92.74L289.15,93.55L289.33,81.19L289.69,94.81L289.88,102.22L292.42,303.89L292.6,303.82L293.87,303.64L294.05,303.72L295.32,303.85L295.5,303.72L301.31,303.69L301.49,301.99L302.76,251.79L302.94,251.99L303.49,251.94L303.67,252.66L304.03,251L304.22,252.97L304.4,251.35L304.94,252.18L305.12,252.32L305.3,251.55L305.85,251.97L306.03,252.35L306.21,252.02L306.39,236.98L307.12,80.07L307.3,89.65L307.48,101.89L308.21,166.23L308.39,188.96L309.84,303.89L310.02,303.68L310.21,303.84L312.2,303.67L312.38,303.79L314.56,303.74L314.74,303.73L316.38,303.76L316.56,303.74L318.55,303.79L318.74,302.16L319.28,282.08L319.46,256.59L320.37,251.82L320.55,251.88L322.18,251.9L322.37,198.96L323.09,55.26L323.27,96.55L323.46,101.76L323.64,68.81L326.36,264.41L326.54,290.27L327.09,303.88L327.45,303.81L327.63,303.66L329.08,303.8L329.26,303.74L335.62,303.69L335.8,303.63L335.98,303.77L336.16,298.1L337.61,251.74L337.79,251.93L338.88,251.95L339.07,251.91L339.79,251.93L339.97,57.68L340.15,41.13L340.7,49.74L340.88,57.78L341.24,53.93L341.43,59.43L341.61,60.93L342.7,137.69L342.88,166.58L343.97,267.46L344.15,285.04L344.87,303.89L345.06,303.67L345.24,303.85L346.33,303.7L346.51,303.78L348.69,303.62L348.87,303.84L350.32,303.82L350.5,303.73L353.04,303.73L353.22,300.92L353.95,267.52L354.13,252.06L356.31,251.81L356.49,83.65L356.85,19.87L357.4,26.72L357.58,30.75L357.76,30.81L357.94,35.8L358.12,36.57L358.31,42.99L359.39,60.35L359.58,75.05L362.12,303.92L362.3,303.78L362.48,303.72L364.66,303.8L364.84,303.71L366.47,303.83L366.66,303.66L367.93,303.88L368.11,303.64L369.74,303.71L369.92,303.75L370.29,303.77L370.47,302.52L370.65,295.54L371.01,303.77L371.19,301.76L371.37,300.98L372.65,251.8L372.83,252.07L373.55,251.96L373.73,251.98L373.92,251.78L374.1,252L374.28,104.44L374.64,45.11L375.19,52.73L375.37,65.73L375.55,63.91L375.73,67.53L375.91,74.72L376.09,63.05L376.64,67.26L376.82,83.95L379.36,303.8L379.54,303.67L379.72,303.92L380.63,303.72L380.81,303.84L381.72,303.72L381.9,303.76L387.89,303.8L388.07,303.05L388.44,303.44L388.98,284.24L389.16,260.04L389.34,263.28L389.53,256.56L389.71,252.04L391.34,251.74L391.52,252.15L391.89,252L392.07,98.62L392.25,55.4L392.79,73.16L392.97,79.37L394.97,155.79L395.15,182.89L396.61,303.88L396.97,303.83L397.15,303.79L398.96,303.7L399.15,303.75L401.69,303.72L401.87,303.7L402.96,303.8L403.14,303.76L405.5,303.7L405.68,303.8L406.04,303.75L406.23,295.79L406.77,251.95L407.5,252.3L407.68,251.82L408.22,252.03L408.4,251.44L409.13,252.17L409.31,251.93L409.49,252.04L410.76,252.11L410.94,146.14L411.13,75.26L411.67,107.39L411.85,129.32L412.03,130.41L412.22,146.2L413.67,303.89L414.21,303.88L414.39,303.81L419.84,303.83L420.02,303.65L420.75,303.88L420.93,303.65L421.11,303.74L422.38,303.76L422.56,303.7L423.47,303.67L423.65,297.94L424.56,251.88L424.92,251.94L425.1,251.81L427.64,252.1L427.83,160.53L428.01,72.77L428.73,84.76L428.91,101.98L429.46,136.12L429.64,151.94L431.46,303.88L432,303.84L432.18,303.69L433.45,303.77L433.63,303.72L435.27,303.8L435.45,303.71L437.45,303.74L437.63,303.71L439.08,303.77L439.26,303.74L440.89,303.67L441.08,301.3L441.98,251.82L442.35,251.91L442.53,251.89L444.89,251.94L445.07,156.9L445.25,69.47L445.98,73.56L446.16,75.82L447.25,147.99L447.43,168.31L448.88,303.87L449.24,303.82L449.43,303.76L455.96,303.68L456.14,303.78L457.59,303.78L457.77,302.49L457.96,301.29L458.14,303.14L458.32,293.99L459.41,251.8L459.59,251.91L460.86,251.84L461.04,251.98L461.22,251.93L461.41,166.07L461.59,31.28L462.31,39.58L462.49,40.29L462.68,38.73L462.86,46.05L463.04,44.22L463.4,47.49L463.58,48.52L463.95,66.15L464.13,78.4L465.58,223.12L465.76,244.38L466.49,303.87L466.85,303.84L467.03,303.71L468.48,303.86L468.67,303.63L469.94,303.81L470.12,303.72L475.2,303.75L475.38,303.43L476.83,251.51L477.2,252.05L477.38,252.13L478.1,251.88L478.29,214.52L479.19,16L479.37,26.61L479.92,40.15L480.1,33.92L480.28,33.58L482.82,204.7L483.01,229.78L483.91,303.86L484.28,303.82L484.46,303.7L486.82,303.78L487,303.7L488.45,303.82L488.63,303.69L490.63,303.76L490.81,303.78L491.9,303.75L492.08,303.8L492.26,303.54L492.44,297.19L493.53,251.85L493.71,251.91L493.9,251.85L495.71,251.77L495.89,156.61L496.26,55.12L496.8,55.94L496.98,60.18L497.16,60.59L497.34,63.57L499.16,161.25L499.34,181.07L500.97,303.97L501.34,303.91L501.52,303.79L504.24,303.68L504.42,303.82L505.88,303.76L506.06,303.85L506.96,303.68L507.15,303.83L508.24,303.74L508.42,303.79L510.41,303.67L510.59,302.67L510.96,273.93L511.14,252.22L512.05,251.83L512.23,251.96L514.95,251.91L515.13,146.81L515.31,98.92L515.86,134.85L516.04,156.73L516.22,152.89L516.4,167.43L518.04,303.89L518.22,303.82L523.85,303.79L524.03,303.7L525.66,303.78L525.84,303.74L528.02,303.55L528.2,296.86L529.65,251.87L529.84,251.91L531.11,251.91L531.29,251.96L534.19,251.82L534.37,265.48L534.55,297.98L535.28,295.66L535.46,300.61L536.19,303.89L536.37,303.71L536.55,303.78L540,303.81" style="vector-effect: non-scaling-stroke; fill: none; stroke: rgb(0, 191, 255); stroke-opacity: 1; stroke-width: 2px; opacity: 1;"/></g><g class="points"/><g class="text"/></g></g></g><g class="overplot"/><path class="xlines-above crisp" d="M0,0" style="fill: none;"/><path class="ylines-above crisp" d="M0,0" style="fill: none;"/><g class="overlines-above"/><g class="xaxislayer-above"><g class="xtick"><text text-anchor="middle" x="0" y="433" transform="translate(184.55,0)" style="font-family: 'Open Sans', verdana, arial, sans-serif; font-size: 12px; fill: rgb(42, 63, 95); fill-opacity: 1; white-space: pre; opacity: 1;"><tspan class="line" dy="0em" x="0" y="433">Aug 7</tspan><tspan class="line" dy="1.3em" x="0" y="433">2022</tspan></text></g><g class="xtick"><text text-anchor="middle" x="0" y="433" style="font-family: 'Open Sans', verdana, arial, sans-serif; font-size: 12px; fill: rgb(42, 63, 95); fill-opacity: 1; white-space: pre; opacity: 1;" transform="translate(306.53,0)">Aug 14</text></g><g class="xtick"><text text-anchor="middle" x="0" y="433" style="font-family: 'Open Sans', verdana, arial, sans-serif; font-size: 12px; fill: rgb(42, 63, 95); fill-opacity: 1; white-space: pre; opacity: 1;" transform="translate(428.5,0)">Aug 21</text></g><g class="xtick"><text text-anchor="middle" x="0" y="433" style="font-family: 'Open Sans', verdana, arial, sans-serif; font-size: 12px; fill: rgb(42, 63, 95); fill-opacity: 1; white-space: pre; opacity: 1;" transform="translate(550.48,0)">Aug 28</text></g></g><g class="yaxislayer-above"><g class="ytick"><text text-anchor="end" x="79" y="4.199999999999999" transform="translate(0,351.99)" style="font-family: 'Open Sans', verdana, arial, sans-serif; font-size: 12px; fill: rgb(42, 63, 95); fill-opacity: 1; white-space: pre; opacity: 1;">0</text></g><g class="ytick"><text text-anchor="end" x="79" y="4.199999999999999" style="font-family: 'Open Sans', verdana, arial, sans-serif; font-size: 12px; fill: rgb(42, 63, 95); fill-opacity: 1; white-space: pre; opacity: 1;" transform="translate(0,282.97)">20</text></g><g class="ytick"><text text-anchor="end" x="79" y="4.199999999999999" style="font-family: 'Open Sans', verdana, arial, sans-serif; font-size: 12px; fill: rgb(42, 63, 95); fill-opacity: 1; white-space: pre; opacity: 1;" transform="translate(0,213.95999999999998)">40</text></g><g class="ytick"><text text-anchor="end" x="79" y="4.199999999999999" style="font-family: 'Open Sans', verdana, arial, sans-serif; font-size: 12px; fill: rgb(42, 63, 95); fill-opacity: 1; white-space: pre; opacity: 1;" transform="translate(0,144.94)">60</text></g></g><g class="overaxes-above"/></g></g><g class="polarlayer"/><g class="smithlayer"/><g class="ternarylayer"/><g class="geolayer"/><g class="funnelarealayer"/><g class="pielayer"/><g class="iciclelayer"/><g class="treemaplayer"/><g class="sunburstlayer"/><g class="glimages"/><defs id="topdefs-acf34a"><g class="clips"/></defs><g class="layer-above"><g class="imagelayer"/><g class="shapelayer"/></g><g class="infolayer"><g class="g-gtitle"><text class="gtitle" x="350" y="50" text-anchor="middle" dy="0em" style="font-family: 'Open Sans', verdana, arial, sans-serif; font-size: 17px; fill: rgb(42, 63, 95); opacity: 1; font-weight: normal; white-space: pre;"><tspan class="line" dy="0em" x="350" y="50">Scenario 3</tspan><tspan class="line" dy="1.3em" x="350" y="50">Microgrid Output</tspan><tspan class="line" dy="2.6em" x="350" y="50">From: August 01, 2022 to August 31, 2022</tspan></text></g><g class="g-xtitle"><text class="xtitle" x="350" y="476.409375" text-anchor="middle" style="font-family: 'Open Sans', verdana, arial, sans-serif; font-size: 14px; fill: rgb(42, 63, 95); opacity: 1; font-weight: normal; white-space: pre;">Time</text></g><g class="g-ytitle"><text class="ytitle" transform="rotate(-90,40.840625,260)" x="40.840625" y="260" text-anchor="middle" style="font-family: 'Open Sans', verdana, arial, sans-serif; font-size: 14px; fill: rgb(42, 63, 95); opacity: 1; font-weight: normal; white-space: pre;">Demand (kW)</text></g></g></svg>