<svg class="main-svg" xmlns="http://www.w3.org/2000/svg" xmlns:xlink="http://www.w3.org/1999/xlink" width="700" height="500" style="" viewBox="0 0 700 500"><rect x="0" y="0" width="700" height="500" style="fill: rgb(255, 255, 255); fill-opacity: 1;"/><defs id="defs-01e409"><g class="clips"><clipPath id="clip01e409xyplot" class="plotclip"><rect width="432" height="320"/></clipPath><clipPath class="axesclip" id="clip01e409x"><rect x="80" y="0" width="432" height="500"/></clipPath><clipPath class="axesclip" id="clip01e409y"><rect x="0" y="100" width="700" height="320"/></clipPath><clipPath class="axesclip" id="clip01e409xy"><rect x="80" y="100" width="432" height="320"/></clipPath></g><g class="gradients"/><g class="patterns"/></defs><g class="bglayer"/><g class="layer-below"><g class="imagelayer"/><g class="shapelayer"/></g><g class="cartesianlayer"><g class="subplot xy"><g class="layer-subplot"><g class="shapelayer"/><g class="imagelayer"/></g><g class="gridlayer"><g class="x"><path class="xgrid crisp" transform="translate(163.64,0)" d="M0,100v320" style="stroke: rgb(255, 255, 255); stroke-opacity: 1; stroke-width: 1px;"/><path class="xgrid crisp" transform="translate(261.22,0)" d="M0,100v320" style="stroke: rgb(255, 255, 255); stroke-opacity: 1; stroke-width: 1px;"/><path class="xgrid crisp" transform="translate(358.8,0)" d="M0,100v320" style="stroke: rgb(255, 255, 255); stroke-opacity: 1; stroke-width: 1px;"/><path class="xgrid crisp" transform="translate(456.38,0)" d="M0,100v320" style="stroke: rgb(255, 255, 255); stroke-opacity: 1; stroke-width: 1px;"/></g><g class="y"><path class="ygrid crisp" transform="translate(0,359.41)" d="M80,0h432" style="stroke: rgb(255, 255, 255); stroke-opacity: 1; stroke-width: 1px;"/><path class="ygrid crisp" transform="translate(0,192.15)" d="M80,0h432" style="stroke: rgb(255, 255, 255); stroke-opacity: 1; stroke-width: 1px;"/><path class="ygrid crisp" transform="translate(0,108.52)" d="M80,0h432" style="stroke: rgb(255, 255, 255); stroke-opacity: 1; stroke-width: 1px;"/></g></g><g class="zerolinelayer"><path class="yzl zl crisp" transform="translate(0,275.78)" d="M80,0h432" style="stroke: rgb(255, 255, 255); stroke-opacity: 1; stroke-width: 2px;"/></g><path class="xlines-below"/><path class="ylines-below"/><g class="overlines-below"/><g class="xaxislayer-below"/><g class="yaxislayer-below"/><g class="overaxes-below"/><g class="plot" transform="translate(80,100)" clip-path="url(#clip01e409xyplot)"><g class="scatterlayer mlayer"><g class="trace scatter trace76b37c" style="stroke-miterlimit: 2; opacity: 0.5;"><g class="fills"/><g class="errorbars"/><g class="lines"><path class="js-line" d="M0,185.67L0.15,179.51L0.73,179.69L0.87,180.89L1.02,181.64L1.16,180.04L1.31,180.93L1.45,176.95L1.6,194.98L2.18,185.91L2.32,178.31L2.76,177.99L2.9,181.25L3.05,241.23L3.19,153.82L3.78,174.44L3.92,182.76L4.36,203.86L4.5,182.22L4.65,183.1L4.79,177.61L4.94,168.13L5.08,172.81L5.23,211.53L6.24,130.44L6.39,144.1L6.82,110.01L6.97,160.09L7.12,117L7.26,214.77L8.13,153.15L8.28,150.66L8.57,140.01L8.71,160.5L8.86,136.57L9.15,131.7L9.44,171.48L9.73,161.51L9.87,147.62L10.89,187.99L11.04,183.98L11.18,181.98L11.33,199.94L12.05,180.92L12.2,188.99L12.34,179.06L13.07,180.39L13.21,187.15L13.36,178.4L13.5,190.83L13.94,179.2L14.09,184.73L14.81,180.15L14.96,181.92L15.25,184.17L15.39,177.74L15.54,185.43L15.97,177.44L16.41,177.85L16.55,179.53L16.84,177.92L16.99,181.45L17.13,185.34L17.28,185.76L17.43,184.69L17.57,184.23L17.72,184.77L17.86,177.94L18.15,234.06L18.44,218.08L18.59,197L19.31,149.63L19.46,160.21L19.6,192.59L20.33,104.94L20.47,158.07L20.62,100.63L21.06,159.26L21.2,118.99L21.35,161.58L21.64,163.35L21.78,122.26L22.07,139.74L22.22,187.36L22.51,175.78L22.94,187.4L23.09,137.56L23.52,188.6L23.96,170.83L24.1,156.8L25.12,186.28L25.27,190.02L25.7,186.93L25.85,195.48L26.57,184.1L26.72,193.14L26.86,179.88L27.44,180.88L27.59,183.34L27.88,184.5L28.32,178.49L28.46,181.98L28.61,183.01L28.75,177.57L28.9,184.34L29.48,182.46L29.62,177.62L29.91,181.12L30.06,177.42L30.35,178.89L30.49,177.81L30.78,177.2L31.07,182.07L31.22,177.21L31.66,176.56L31.8,185.14L32.09,182.62L32.24,177.49L32.38,178.35L32.53,176.89L32.67,239.61L33.11,132.58L33.4,132.86L33.54,164.37L34.12,193.37L34.27,120.45L34.41,160.89L34.56,118.85L34.71,218.49L35.14,146.66L35.29,134.77L35.58,119.08L35.72,152.97L35.87,112.57L36.3,160.69L36.59,160.32L36.74,118.22L37.17,165.14L37.46,162.91L37.61,136.86L38.05,221.04L38.48,175.78L38.63,183.35L38.77,177.67L38.92,198.65L39.06,182.9L39.21,214.46L39.35,187.73L39.93,192.07L40.08,200.55L40.8,179.07L40.95,186.42L41.68,178.97L41.82,186.03L41.97,178.27L42.11,188.66L42.55,179L42.69,185.76L43.42,177.99L43.56,181.02L43.85,183.58L44.29,177.58L44.43,179.5L44.58,181.97L44.72,177.1L45.02,178.83L45.16,178.17L45.31,182.61L45.74,175.88L45.89,176.52L46.32,173.12L46.47,171.47L46.61,170.45L46.76,170.62L46.9,217.13L47.05,152.76L47.63,175.78L47.77,175.78L47.92,176.67L48.06,176L48.21,215.87L48.35,210.35L48.65,211.89L48.79,143.88L48.94,176.12L49.08,105.88L49.52,149.32L49.66,120.99L50.39,236.32L50.53,191.06L50.68,170.12L50.82,168.17L50.97,186.94L51.4,177.28L51.84,193.08L51.99,187.01L52.13,189.6L52.28,189.16L52.42,207.9L53.15,186.5L53.29,208.88L53.44,242.83L53.87,181.86L54.02,173.82L54.89,175.78L55.03,175.78L61.13,175.78L61.28,164.4L61.57,169.81L62,134.91L62.15,149.63L62.3,134.96L62.59,114.91L62.73,190.71L62.88,152.09L63.02,124.89L63.31,122.3L63.46,154.77L63.75,142.57L63.89,129.65L64.18,178.73L64.33,177.82L64.47,120.83L65.34,195.61L65.49,186.97L65.63,199.8L65.78,142.63L66.36,176.68L66.51,189.42L66.65,179.48L67.09,200.35L67.23,181.71L67.38,200.17L68.1,179.89L68.25,193.63L68.97,179.53L69.12,188.79L69.27,179.04L69.41,190.6L69.85,179.37L69.99,187.39L70.43,177.83L70.72,178.59L70.86,180.84L71.44,177.28L71.59,181.66L71.73,177.22L72.17,180.6L72.31,186.27L72.61,187.9L72.75,180.11L73.04,182.82L73.19,184L73.48,175.78L73.62,183.12L73.77,247.12L74.64,161.07L74.78,159.08L74.93,155.18L75.07,194.29L75.94,86.96L76.09,153.58L76.24,95.61L76.82,109.92L76.96,141.65L77.4,107.3L77.54,159.14L77.69,115.08L77.83,160.61L78.12,164L78.56,119.03L78.7,161.59L78.99,208.22L79.43,127.57L79.58,175.9L79.72,147.44L80.3,175.78L80.45,180.28L81.32,192.01L81.46,180.78L81.61,193.28L82.04,179.2L82.19,184.18L82.33,183.76L82.91,179.66L83.06,184.33L83.93,177.75L84.08,183.93L84.95,176.5L85.09,182.4L85.82,177.13L85.96,179.89L86.11,242.44L86.25,151.14L86.69,195.43L86.84,177.73L86.98,184.4L87.42,176.45L87.56,183.09L87.71,178.58L88.14,175.78L88.29,224.25L88.87,140.48L89.3,149L89.45,135.2L89.74,115.77L89.89,161.5L90.18,154.26L90.32,116.68L90.76,160.9L90.9,111.29L91.05,159.66L91.19,121.55L91.34,213.78L91.77,89.92L91.92,172.56L92.06,91.27L92.5,161.47L92.93,154.19L93.08,163.83L93.66,194.36L93.95,185.72L94.1,178.06L94.24,175.78L94.53,176.3L94.68,187.86L94.97,198.48L95.11,181.14L95.4,186.14L95.55,191.5L95.69,192.18L95.84,187.73L95.98,195.13L96.13,185.85L96.56,189.13L96.71,188.58L96.86,189.62L97,188.34L97.15,178.67L97.29,186.41L97.87,183.12L98.02,180.03L98.16,184.13L98.6,182.8L98.74,178.67L99.03,178.05L99.18,186.29L99.47,184.31L99.61,177.91L99.76,181.72L100.34,180.21L100.49,178.07L101.07,180.18L101.21,177.2L101.65,197.1L101.94,195.8L102.08,180.79L102.81,147.45L102.95,165.78L103.1,132.73L103.24,165.21L103.39,123.39L103.83,148.66L103.97,129.3L104.12,147.77L104.7,141.11L104.84,127.52L105.28,195.68L105.42,106.61L105.57,161.86L105.71,127.39L106.58,186.89L106.73,179.87L106.87,129.38L107.46,157.53L107.6,195.42L107.75,181.83L108.18,205.49L108.33,186.02L108.47,208.25L108.91,184.13L109.2,188.8L109.34,199.03L110.07,181.12L110.21,197.12L110.94,180.65L111.09,195.35L111.23,180.67L111.81,183.06L111.96,191.29L112.25,192.36L112.39,182.41L112.68,185.73L112.83,184.14L112.97,188.93L113.41,179.42L113.55,182.43L113.7,188.94L114.14,177.96L114.28,248.86L114.43,148.03L115.01,183.29L115.15,190.01L115.44,178.14L115.59,178.25L115.73,244.33L116.6,175.78L116.75,172.75L117.33,149.98L117.47,164.45L117.62,193.21L117.77,133.05L117.91,220.2L118.35,182.43L118.49,184.61L118.78,175.78L118.93,241.89L119.94,122.19L120.09,162.38L120.23,194.44L120.81,167.45L120.96,174.39L121.69,176.74L121.83,176.02L121.98,199.33L122.85,175.78L122.99,175.78L130.4,175.78L130.54,170.48L131.42,137.99L131.56,141.62L131.71,177.63L132,111.4L132.29,114.36L132.43,161.01L132.58,132.93L132.72,211.56L132.87,169.56L133.01,216.69L133.74,143.23L133.88,157.41L134.03,143.34L134.61,137.45L134.75,167.57L134.9,159.29L135.77,175.78L135.92,175.78L136.35,191.34L136.5,187.59L136.64,264.45L137.08,174.55L137.51,208.06L137.66,183.85L137.8,202.13L138.09,175.78L138.24,175.78L138.39,175.78L144.05,175.78L144.19,169.27L144.34,172.35L144.48,157.46L144.63,163.55L144.77,207.58L145.94,124.42L146.08,154.56L146.52,126.92L146.95,132.98L147.1,146.4L147.24,140.78L147.39,200.87L148.26,144.32L148.4,203.74L148.84,131.1L149.28,170.9L149.42,175.78L149.71,175.78L149.86,182.75L150,177.53L150.29,191.01L150.44,191.97L150.58,190.36L150.73,205.1L151.45,193.63L151.6,200.55L152.47,180.78L152.62,206.83L153.49,175.78L153.63,175.78L157.84,175.78L157.99,173.82L158.28,175.78L158.42,175.27L158.57,164.79L158.71,173.07L158.86,137.25L159.44,117.44L159.73,175.07L159.88,167.47L160.46,175.78L160.6,118.26L160.75,160.76L160.89,109.44L161.47,114.48L161.62,157.7L161.76,120.75L162.2,164.73L162.34,143.71L162.49,167.76L162.64,153.7L163.07,173.09L163.22,171.27L164.96,212.68L165.1,204.17L165.39,205.67L165.54,200.39L165.83,202.58L165.98,188.53L166.12,201.36L166.56,181.16L166.7,198.18L166.85,181.38L166.99,197.17L167.43,180.05L167.57,175.78L171.93,175.59L172.07,170.81L172.8,133.53L172.95,228.35L173.09,98.33L173.67,115.55L173.82,200.43L174.54,127.31L174.69,195.05L174.98,134.88L175.56,139.6L175.7,144.83L175.85,182.86L176.29,123.64L176.43,161.27L176.58,125.06L177.01,165.99L177.45,162.08L177.59,172.93L178.32,192.5L178.46,180.9L178.61,198.27L178.75,182.97L179.33,189.44L179.48,196.6L179.77,198.96L179.92,182.51L180.21,186.34L180.35,191.63L180.64,178.97L180.93,179.02L181.08,187.29L181.8,178.61L181.95,189L182.09,179.09L182.67,180.76L182.82,182.82L183.11,179.14L183.26,185.24L183.55,185.79L183.98,177.49L184.13,183.27L184.27,177.64L184.42,185.11L184.71,183.76L184.85,192.37L186.01,175.78L186.16,175.78L186.45,175.78L186.59,156.28L186.74,144.84L187.03,175.04L187.18,169.36L187.32,173.94L187.47,103.34L188.19,146.65L188.34,130.78L188.63,125.87L189.21,181.48L189.35,172.79L189.5,174.2L189.64,110.43L190.37,166.77L190.52,135.22L191.39,175.78L191.53,175.78L191.82,175.78L191.97,189.25L192.11,184.31L192.26,197.11L192.4,192.52L192.55,199.1L193.13,205.32L193.27,183.04L193.42,200.06L193.86,179.38L194.29,182.47L194.44,186.21L194.87,178.63L195.02,189.39L195.16,179.18L195.31,185.62L195.74,187.51L196.18,178.29L196.32,184.03L196.76,184.47L196.9,177.81L197.05,185.9L197.78,176.99L197.92,181.7L198.07,177.26L198.36,185.77L198.5,183.42L198.65,183.05L198.79,184.99L199.08,181.46L199.23,250.16L200.1,175.78L200.24,175.78L200.54,174.77L200.68,206.57L201.55,108.77L201.7,154.76L201.84,102.72L201.99,199.96L202.42,136.79L202.57,138.64L202.71,190.04L203.15,111.89L203.29,158.84L203.44,127.61L203.58,161.98L204.02,119.27L204.17,161.81L204.31,139.02L205.04,168.4L205.18,166.8L205.33,173.79L205.76,185.32L205.91,181.64L206.05,195.51L206.2,195.19L206.34,192.48L206.49,187.6L206.63,196.03L206.78,253.16L207.21,163.99L207.65,198.47L207.8,181.99L208.09,179.55L208.23,191.96L208.52,186.41L208.67,181.14L208.81,187.39L209.25,178.6L209.39,186.42L209.54,178.44L209.68,189.66L209.97,175.78L210.12,175.78L210.26,175.78L213.75,175.78L213.89,171.16L214.04,174.3L214.18,164.41L214.33,166L214.48,158.32L214.62,162.89L214.91,152.24L215.06,144.17L215.2,186.34L215.49,106.4L215.78,172.67L215.93,175L216.07,175.78L216.22,122.89L217.09,169.74L217.23,178.59L217.52,139.2L217.82,142.08L217.96,184.53L218.4,144.8L218.69,159.53L218.83,164.32L219.99,195.26L220.14,257.16L220.57,163.81L221.01,202.12L221.15,182.82L221.3,191.07L221.59,175.78L221.74,175.78L221.88,175.78L227.69,175.78L227.83,169.98L227.98,164.1L228.13,173.23L228.42,170.72L228.56,174.89L229.14,145.25L229.29,155.82L229.43,187.71L229.58,179.6L229.72,124.83L229.87,163.04L230.01,118.62L230.45,153.14L230.59,124.93L230.88,118.12L231.32,162.72L231.46,124.16L231.9,154.96L232.19,152.2L232.34,136.72L232.48,207.03L233.06,163.81L233.21,172.79L233.93,184.93L234.08,257.29L234.51,163.38L234.95,197.97L235.1,181.86L235.39,179.23L235.53,192.35L235.82,186.51L235.97,180.23L236.11,190.4L236.26,179.33L236.69,184.95L236.84,181.33L237.27,183.7L237.42,178.49L237.85,188.44L238.14,185.45L238.29,178.2L238.43,181.6L238.87,178.46L239.02,176.22L239.89,175.78L240.03,175.78L241.92,175.78L242.07,172.14L242.21,172.88L242.36,157.44L242.5,159.73L242.65,154.81L242.79,137L243.23,175.78L243.37,169.12L243.52,224.88L243.66,98.27L244.24,167.06L244.39,210.37L244.53,107.21L245.11,144.92L245.26,184.15L245.41,127.06L245.99,146.64L246.13,143.79L247,170.26L247.15,167.52L248.02,191.19L248.16,179.33L248.31,262.38L248.89,189.17L249.04,181.15L249.33,179.16L249.76,189.92L249.91,179.32L250.2,178.36L250.34,186.14L250.63,185.21L250.78,178.14L250.92,184.22L251.07,177.99L251.5,183.87L251.65,178.12L251.94,177.46L252.08,185.41L252.38,180.8L252.52,180.44L252.81,181.23L253.39,175.78L253.54,175.78L256.15,175.78L256.3,172.24L256.73,175.78L256.88,125.86L257.17,117.16L257.6,160.16L257.75,134.52L257.89,210.95L258.33,115.1L258.47,158.04L258.62,106.71L258.76,176.14L258.91,95.93L259.35,153.8L259.49,123.63L260.22,167.23L260.36,135.89L261.38,237.25L261.52,203.97L261.67,243.87L261.81,166.97L262.1,186.9L262.25,197.63L262.39,181.32L262.83,207.79L262.98,183.56L263.12,206.49L263.56,182.62L263.85,182.66L263.99,200.36L264.86,175.78L265.01,175.78L269.8,175.78L269.95,164.41L270.24,156.01L270.67,176.1L270.82,115.27L271.11,100.15L271.54,201.46L271.69,142.16L271.83,147.13L271.98,122.22L272.12,151.3L272.56,115.53L272.7,142.94L272.85,114.33L273.87,175.78L274.01,121.69L274.88,175.04L275.03,175.6L275.46,175.78L275.61,180.11L276.19,179.98L276.33,196.97L276.48,181.08L276.63,193.85L277.06,179.61L277.21,184.73L277.35,179.33L277.79,177.38L277.93,187.63L278.08,178.75L278.22,186.54L278.37,178.47L278.66,181.85L278.8,176.91L278.95,188.93L279.53,179.65L279.67,184.7L280.55,177.38L280.69,176.61L281.27,185.9L281.42,181.91L281.56,176.75L281.71,180.86L282.14,176.49L282.29,176.91L282.43,177.73L282.58,176.2L282.72,182.68L282.87,186.62L283.01,178.06L283.3,178.28L283.45,175.78L283.6,175.78L283.74,203.56L284.61,110.22L284.76,155.17L285.05,155.49L285.48,85.07L285.63,153.14L285.77,107.07L285.92,156.23L286.21,154.53L286.35,174.38L286.5,168.69L286.64,174.01L286.79,97.23L286.94,200.4L287.52,120.19L287.66,151.55L288.1,135.96L288.24,165.99L288.39,149.24L288.53,169.15L288.68,155.98L288.97,175.78L289.11,175.78L289.26,184.82L289.4,178.12L289.55,191.69L289.69,179.76L289.84,202.52L290.13,202.64L290.57,184.27L290.71,197.79L291.29,178.04L291.58,179.71L291.73,182.03L291.87,182.24L292.02,179.36L292.16,184.9L292.31,177.92L292.74,179.09L292.89,183.08L293.47,177.15L293.61,183.62L293.76,177.74L293.91,179.82L294.2,177.03L294.49,184.77L294.63,177.94L294.78,176L294.92,184.73L295.07,178.01L295.36,195.59L295.65,184.11L295.79,184.74L295.94,238.56L296.08,151.12L296.52,197.43L296.66,181.62L296.81,189.97L296.95,179.38L297.25,183.38L297.39,177.3L297.54,175.78L297.68,224.46L297.83,130.6L298.41,151.44L298.55,150.7L298.7,149.08L298.84,191.43L299.28,100.43L299.57,102.45L299.71,194.79L300.44,108.33L300.58,147.72L300.73,120.1L301.02,118.41L301.6,143.04L301.75,148.87L301.89,147.84L302.04,150.99L302.18,159.66L302.33,159.28L302.47,164.07L303.34,188.68L303.49,178.96L303.92,200.72L304.22,196.16L304.36,180.88L304.65,180.23L304.8,196.69L305.09,191.6L305.23,179.74L305.38,188.17L305.81,178.6L305.96,185.19L306.1,181.92L306.25,177.04L306.39,189.45L306.83,178.37L306.97,180.17L307.26,177.82L307.41,187.82L307.7,181.84L307.85,180.38L307.99,176.55L308.14,183.69L308.57,178.18L308.72,178.12L309.01,185.43L309.15,183.03L309.3,177.05L309.44,189.14L310.02,179.47L310.17,176.7L310.31,175.78L310.46,178.79L310.6,191.22L310.75,249.44L311.19,185.94L311.33,180.14L311.77,165.41L311.91,223.67L312.78,132.91L312.93,140.67L313.07,128.14L313.36,135.38L313.51,118.99L313.65,143.61L313.8,126.69L314.23,145.24L314.38,144.14L314.53,149.34L314.82,143.72L314.96,156.55L315.11,135.65L315.54,167.25L315.69,164.89L316.7,230.32L316.85,205.24L317.14,175.19L317.28,260.54L317.43,197.62L317.57,197.56L317.72,186.56L318.16,204.17L318.3,182.76L318.45,201.89L318.59,182.31L318.74,200.22L318.88,181.89L319.32,192.14L319.46,182.31L319.75,180.45L319.9,198.79L320.19,193.76L320.33,182.81L320.77,180.53L320.91,190.42L321.06,183.98L321.2,184.08L321.64,176.91L321.79,197.87L322.37,177.49L322.66,178.08L322.8,178.79L323.24,176.36L323.38,182.5L323.53,177.46L323.82,176.74L323.96,181.86L324.4,179.21L324.54,176.52L324.83,181.48L324.98,179.31L325.13,230.4L325.27,154.4L326,160.27L326.14,171.9L326.43,171.95L326.87,112.79L327.01,160.03L327.16,175.78L327.3,99.47L327.45,216.55L327.59,56.93L328.03,187.06L328.17,87.81L328.32,184.97L328.9,184.35L329.05,118.67L329.77,166.57L329.92,161.13L330.06,160.65L331.08,194.89L331.22,182.12L331.66,203.21L331.95,199.37L332.1,180.71L332.24,200.02L332.82,191.33L332.97,180.26L333.11,190.15L333.69,187.59L333.84,182.47L333.98,187.07L334.56,181.56L334.71,185.72L335.44,178.01L335.58,186.87L336.16,177.03L336.31,253.82L336.45,144.11L337.03,175.78L337.18,175.78L340.08,175.78L340.23,152.71L340.37,160.33L340.52,144.85L340.66,147.73L340.81,139.01L340.95,144.98L341.1,132.72L341.24,140.09L341.39,129.72L341.53,136.01L341.68,190.14L342.41,121.23L342.55,155.64L342.99,117.43L343.13,161.33L343.28,129L343.42,164.09L343.57,129.15L344,167.22L344.15,147.58L344.29,168.73L344.44,167.15L344.58,173.62L345.75,197.04L345.89,191.14L346.04,190.24L347.05,184.02L347.2,188.73L347.34,179.79L347.92,183.86L348.07,182.98L348.36,185.79L348.5,180.74L348.65,186.34L349.23,186.14L349.38,181.83L349.52,187.27L349.67,180.37L350.1,185.6L350.25,179.04L350.39,255.88L350.97,191.35L351.12,179.63L351.26,180.63L351.41,177.64L351.55,179.87L351.7,185.63L351.84,195.37L352.13,175.78L352.28,175.78L352.42,175.78L353.59,175.78L353.73,161.61L353.88,170.5L354.02,155.57L354.17,162.12L354.31,146.44L354.46,168.99L354.6,132.48L355.04,148.95L355.18,134.58L355.47,123.95L355.62,126.97L355.76,132.22L356.35,127.27L356.49,152.32L356.64,116.3L357.07,175.78L357.22,112.3L357.36,159.91L357.51,129.5L357.8,129.25L358.38,170.91L358.52,174.56L359.1,178.54L359.25,184.59L359.69,198.13L360.12,193.62L360.27,192.28L360.41,197.75L360.85,185.9L360.99,183.63L361.28,178.41L361.43,191.03L361.72,189.18L361.86,179.13L362.01,253.69L362.44,151.81L362.59,221.68L362.73,161.9L362.88,209.09L363.46,186.63L363.61,178.49L363.75,185.35L364.33,177.47L364.48,177.91L364.62,178.15L364.77,180.53L365.49,176.09L365.64,179.27L365.78,176.65L365.93,186.73L366.07,178.77L366.22,188.51L366.37,240.47L366.66,175.78L366.8,175.78L366.95,175.78L367.53,167.4L367.67,144.9L367.82,156.28L368.25,136.21L368.4,143.3L368.54,139.97L368.69,182.35L369.41,102.45L369.7,104.35L369.85,153.99L370,98.56L370.58,105.73L370.72,158.55L370.87,112.73L371.3,160.73L371.45,124.58L371.59,162.98L371.74,124.48L372.17,167.9L372.32,160.93L372.46,172.07L373.19,187.24L373.63,185.22L373.77,184.12L374.06,181.1L374.21,187.38L374.5,186.16L374.64,178.14L374.93,184.85L375.08,177.61L375.51,182.07L375.66,181.91L376.09,182.55L376.24,178.2L376.38,180.81L376.53,179.95L376.82,178.8L376.97,181.55L377.69,177.04L377.84,181.9L378.42,176.93L378.56,177.06L378.71,178.16L378.85,177.12L379,242.79L379.87,176.93L380.01,176.74L380.16,177.22L380.45,175.97L380.6,175.78L381.18,175.78L381.32,165.29L381.47,169.56L381.61,130.48L382.05,165.68L382.19,129.54L382.34,147.71L382.48,124.88L382.63,139.8L382.77,113.15L382.92,132.69L383.06,107.32L383.35,101.81L383.5,144.87L383.79,139.96L383.94,127.51L384.23,118.33L384.37,142.3L384.66,130.07L384.81,119.58L385.82,160.3L385.97,152.64L386.4,237.03L386.55,184.85L386.69,173.94L386.84,175.78L386.98,186.96L387.13,181.24L387.28,194.58L387.42,186.37L387.57,199.89L388.29,178.98L388.44,189.6L388.87,178.76L389.31,180.29L389.45,180.18L389.74,177.16L389.89,184.21L390.18,180.46L390.32,179.03L390.47,181.96L390.62,177.2L390.91,180.93L391.05,176.81L391.78,180.4L391.92,176.91L392.21,176.55L392.36,182.27L392.65,178.31L392.79,177.66L392.94,177.67L393.08,176.18L393.23,175.78L393.37,180.33L393.66,175.95L393.95,176.49L394.1,180.99L394.97,174.63L395.12,216.76L395.26,118.39L395.84,199.16L395.99,188.26L396.13,202.67L396.28,133.77L396.42,165.32L396.86,126.75L397,133.36L397.15,131.14L397.73,114.79L397.88,161.6L398.02,123.73L398.31,192.23L398.75,162.05L398.89,138.11L399.76,168.52L399.91,165.46L400.05,227.01L400.63,187.98L400.78,183.17L401.22,214.74L401.51,214.29L401.65,194.33L401.8,210.78L401.94,183.95L402.38,203.09L402.52,182.61L402.81,179.33L402.96,193.83L403.25,188.29L403.39,182.36L403.68,185.25L403.83,181.92L403.97,182.19L404.12,189.2L404.26,178.8L404.56,183.55L404.7,180.59L404.99,187.18L405.14,178.28L405.86,187.7L406.01,178.76L406.15,186L406.73,180.49L406.88,181.59L407.17,178.44L407.31,192.84L408.04,177.75L408.19,179.3L408.33,247.07L409.2,175.78L409.35,162.88L409.49,172.54L409.93,158.74L410.07,147.74L410.22,154.47L410.65,143.42L410.8,139.47L411.09,142.86L411.53,125.57L411.67,150.39L411.82,138.08L411.96,208.13L412.4,138.08L412.83,173.61L412.98,208.25L413.12,190.31L413.27,228.67L413.7,198.35L413.85,227.74L413.99,147.19L414.57,185.4L414.72,196.01L414.87,192.26L415.01,205.86L415.16,197.74L415.3,212.9L415.45,195.32L416.03,204.08L416.17,201.05L416.32,202.04L416.46,196.99L416.61,198.69L417.04,195.92L417.19,198.01L417.33,193.25L417.48,191.96L417.62,183.3L417.77,196.85L418.21,179.31L418.35,186.06L418.5,181.73L418.79,180.07L419.22,187.39L419.37,178.55L419.8,188.46L420.09,184.46L420.24,179.81L420.38,185.54L420.53,178.11L420.82,178.11L420.96,250.49L421.11,148.55L421.69,175.78L421.84,175.78L423.58,175.43L423.72,169.2L424.59,150.19L424.74,147.53L424.88,202.22L425.18,136.59L425.47,154.28L425.61,170.41L426.05,145.54L426.19,215.09L426.48,151.68L426.92,210.27L427.06,185.18L427.21,221.2L427.64,184.01L427.79,175.78L432,175.78" style="vector-effect: non-scaling-stroke; fill: none; stroke: rgb(0, 191, 255); stroke-opacity: 1; stroke-width: 2px; opacity: 1;"/></g><g class="points"/><g class="text"/></g><g class="trace scatter trace22fc24" style="stroke-miterlimit: 2; opacity: 0.5;"><g class="fills"/><g class="errorbars"/><g class="lines"><path class="js-line" d="M0,175.98L3.49,175.47L3.63,173.65L4.36,146.69L4.5,131.59L6.53,16.2L6.68,16.28L8.86,16.95L9,19.58L9.44,89.12L9.58,47.93L11.62,175.99L11.76,175.99L17.57,175.31L17.72,172.95L18.44,134.78L18.59,124.05L20.47,16.28L20.62,16.38L20.77,16.37L21.49,16.88L21.64,19.3L21.93,16.5L22.51,16.55L22.65,16.6L22.94,22.21L23.09,29.42L25.85,176L25.99,176L31.37,175.76L31.51,175.01L32.38,139.01L32.53,125.63L32.67,128.1L32.82,112.89L32.96,111.66L33.11,91.13L34.41,34.34L34.56,29.54L34.85,29.4L35.14,34.16L35.29,16.33L36.45,16.82L36.59,19.11L37.17,39.95L37.32,46.45L39.93,175.99L40.08,175.99L45.31,175.78L45.45,174.75L46.18,145.31L46.32,122.61L46.9,98.72L47.05,112.1L47.19,123.71L47.48,125.52L47.63,121.33L47.77,121.83L47.92,128.34L48.06,110L48.21,100.27L48.35,115.98L48.65,97.09L48.79,78.53L49.23,16.32L49.81,19.2L49.95,43.38L50.39,107.52L50.68,70.31L50.82,71.91L51.69,126.41L51.84,139.08L53.44,175.99L53.58,175.99L59.39,175.65L59.54,175.2L60.26,175.78L60.41,170.9L61.57,44.92L61.71,36.21L62.44,16.34L62.88,16.46L63.02,16.5L64.47,16.59L64.62,17.1L65.63,73.6L65.78,84.01L67.67,175.99L67.81,175.99L73.33,175.22L73.48,172.6L74.06,146.24L74.2,135.18L76.09,16.05L76.38,16.1L76.53,16.14L78.56,16.71L78.7,18.64L80.01,105.28L80.16,116.97L81.46,175.99L81.61,175.99L87.27,175.5L87.42,173.81L87.85,157.58L88,145.67L90.18,18.12L90.32,16.3L90.61,16.58L90.76,17.41L91.05,18.61L91.19,16.61L91.34,17.21L91.48,18.31L91.63,16.55L92.06,16.62L92.21,19.06L92.64,17.48L93.95,153.22L94.53,151.53L94.68,160.23L95.55,176L95.69,176L101.07,175.74L101.21,175.09L101.94,150.87L102.08,137.67L104.26,16.37L104.41,16.39L104.55,16.4L106.29,16.96L106.44,19.77L107.46,63.32L107.6,115.27L108.62,166.76L108.76,168.24L109.63,175.99L109.78,175.98L109.92,175.98L115.15,175.47L115.3,174.36L116.31,133.92L116.46,118.89L117.47,70.67L117.62,43.62L117.77,47.66L117.91,175.78L119.65,175.78L119.8,158.03L119.94,16.54L120.67,26.99L120.81,35.7L123.14,175.99L123.28,175.99L129.09,175.35L129.24,173.08L129.82,149.36L129.96,138.83L132,16.26L132.29,16.4L132.43,16.43L134.17,16.9L134.32,18.87L136.06,134.07L136.21,144.9L137.22,175.99L137.37,175.99L143.03,175.46L143.18,173.76L144.05,125.64L144.19,114.91L145.94,16.33L146.23,16.38L146.37,16.4L148.11,16.71L148.26,17.53L149.57,97.54L149.71,109.8L151.16,175.99L151.31,175.99L156.83,175.53L156.97,172.13L158.13,114.03L158.28,102.9L160.02,16.71L160.17,19.79L160.31,17.69L160.46,16.44L161.18,16.67L161.33,16.64L162.05,17.12L162.2,20.09L163.65,113.66L163.8,125.45L165.1,175.99L165.25,175.99L170.91,175.31L171.06,172.74L171.78,141.1L171.93,130.61L173.96,16.26L174.11,16.29L174.25,16.42L175.7,16.75L175.85,19.48L179.04,176L179.19,176L184.85,175.46L185,173.03L185.72,157.92L185.87,147.18L187.03,46.56L187.18,39.18L187.9,16.04L188.34,16.3L188.48,16.34L189.93,16.59L190.08,17.87L191.39,100.08L191.53,112.38L192.98,176L193.13,176L198.79,175.44L198.94,173.32L199.52,148.45L199.66,132.39L201.84,16.37L201.99,16.42L202.13,16.45L203.87,16.92L204.02,19.83L205.47,114.79L205.62,127.07L206.92,175.99L207.07,176L212.73,175.37L212.88,172.64L213.46,151.89L213.6,141.6L215.78,16.49L216.07,16.52L216.22,17.96L217.23,96.32L217.38,55.31L217.52,17.41L217.82,29.85L217.96,72.68L218.11,68.86L218.25,41.71L218.4,43.14L218.54,52.7L220.86,175.99L221.01,175.99L226.67,175.34L226.82,172.94L227.4,152.27L227.54,141.88L230.01,16.41L230.16,16.46L230.59,16.82L230.74,18.68L230.88,19.12L231.03,38.08L231.17,16.53L231.76,18.26L231.9,23.53L233.06,95.72L233.21,107.49L234.66,175.99L234.8,176L240.61,175.47L240.76,173.47L241.48,142.15L241.63,131.72L242.79,43.54L242.94,46.32L243.08,98.77L243.23,105.87L243.37,24.85L243.52,89.76L243.95,20.77L244.1,44.68L244.24,64.59L244.53,16.42L244.97,46.24L245.11,48.24L245.26,53.29L245.41,22.51L245.7,16.7L245.99,23.94L246.13,31.59L248.74,176L248.89,176L254.55,175.39L254.7,173.36L255.42,143.52L255.57,133.12L257.17,31.49L257.31,37.14L257.46,58.47L257.89,36.34L258.04,18.64L258.33,47.74L258.47,17.58L258.76,45.27L258.91,16.97L259.35,16.63L259.49,17.14L259.64,21.4L260.94,98.43L261.09,110.38L262.54,176L262.69,176L268.49,175.46L268.64,173.23L269.36,144.22L269.51,134.37L271.83,16.06L271.98,16.13L273.58,17.02L273.72,21.34L276.63,176L276.77,176L282.43,175.4L282.58,172.53L283.45,133.33L283.6,123.16L285.63,16.03L285.77,16L287.37,16.52L287.52,19.31L288.82,98.21L288.97,110.19L290.42,176L290.57,176L296.37,175.43L296.52,172.75L297.39,134.94L297.54,124.85L299.42,21.16L299.57,22.17L299.71,16.26L300.44,16.44L300.58,16.45L301.17,16.61L301.31,17.9L302.62,89.73L302.76,101.55L304.36,176L304.51,176L310.31,175.54L310.46,174.06L311.19,145.88L311.33,135.91L313.51,16.43L313.65,16.62L313.8,16.51L315.11,16.7L315.25,17.92L316.27,70.87L316.41,81.37L318.3,176L318.45,176L324.25,175.66L324.4,174.75L325.56,120.21L325.71,103.44L325.85,116.13L326,77.54L326.29,95.08L326.43,83.09L326.58,85.56L326.72,77.3L326.87,37.7L327.3,16.22L327.88,16.46L328.03,16.51L328.47,16.64L328.61,18.17L329.05,17.07L329.48,31.76L329.63,38.8L332.39,176L332.53,176L338.19,175.7L338.34,175.07L338.92,155.63L339.07,145.84L341.53,16.38L341.68,16.41L341.82,16.58L342.99,16.8L343.13,18.84L344.29,80.55L344.44,91.68L346.18,175.99L346.33,175.99L352.13,175.52L352.28,173.6L353.15,136.88L353.3,126.34L355.47,16.52L355.62,16.53L356.93,16.84L357.07,18.8L358.23,80.4L358.38,91.29L360.12,175.99L360.27,175.99L366.07,175.72L366.22,175.04L366.95,147.03L367.09,136.48L369.41,16.15L369.56,16.22L371.01,17.37L371.16,22.06L372.17,80.18L372.32,90.88L373.92,176L374.06,176L380.16,175.38L380.31,172.8L381.32,133.4L381.47,117.46L382.48,39.95L382.63,33.99L383.65,16.12L383.79,16.16L383.94,16.18L384.66,16.41L384.81,17.1L385.68,53.3L385.82,62.35L388,176L388.15,176L393.95,175.65L394.1,174.57L394.83,148.1L394.97,138.23L397.29,16.31L397.44,16.32L398.6,16.75L398.75,17.95L399.76,65.85L399.91,75.58L401.94,176L402.09,176L408.04,175.25L408.19,172.89L408.77,149.42L408.91,139.32L411.38,16.61L411.53,16.73L412.54,17.02L412.69,19.64L413.99,86.63L414.14,97.27L415.74,175.99L415.88,175.99L421.98,175.35L422.13,173.31L422.85,139.96L423,129.66L425.18,18.27L425.32,16.69L426.05,16.86L426.19,16.87L426.34,16.98L426.48,18.84L427.5,61.06L427.64,102.13L427.93,90.17L428.22,112.21L428.37,121.63L429.82,175.99L429.97,175.99L432,175.98" style="vector-effect: non-scaling-stroke; fill: none; stroke: rgb(255, 0, 0); stroke-opacity: 1; stroke-width: 2px; opacity: 1;"/></g><g class="points"/><g class="text"/></g><g class="trace scatter trace14e3e0" style="stroke-miterlimit: 2; opacity: 0.5;"><g class="fills"/><g class="errorbars"/><g class="lines"><path class="js-line" d="M0,203.53L0.15,210.6L0.73,207.04L0.87,204.8L1.02,206.34L1.31,204.6L1.45,215.65L2.18,202.55L2.32,203.82L2.47,202.65L2.61,206.48L2.76,204.36L2.9,269.95L3.05,155.64L3.63,185.59L3.78,201.88L4.21,234.81L4.5,214.89L4.65,191.55L4.79,189.17L4.94,165.48L5.08,234.31L5.66,190.22L5.81,118.08L5.95,162.73L6.53,143.83L6.68,123.51L7.12,228.98L7.55,158.26L7.7,164.93L7.84,171.73L7.99,154.83L8.28,159.18L8.42,143.2L9,134.65L9.44,169.81L9.58,154.57L9.73,141.53L9.87,164.73L10.02,155.52L10.16,175.71L11.04,211.87L11.33,209.75L11.47,216.24L12.05,219.03L12.2,204.28L12.34,212.27L12.49,204.1L12.63,213.29L13.07,206.82L13.21,206.06L13.65,209.56L13.79,203.64L13.94,208.86L14.09,203.42L14.23,210.14L14.81,207.5L14.96,205L15.54,202.95L15.68,207.53L15.83,202.5L15.97,207.1L16.55,203.1L16.7,205.03L16.84,205.27L16.99,212.64L17.72,208.49L17.86,209.28L18.01,269.87L18.44,227.51L18.59,173.45L18.73,181.4L18.88,157.89L19.02,179.44L19.17,159.32L19.46,214.04L19.75,188.04L19.89,189.76L20.04,181.63L20.18,109.88L20.47,105.62L20.62,167.27L20.91,160.26L21.06,126.94L21.49,163.66L21.64,118.42L21.78,160.46L21.93,130.66L22.07,212.47L22.8,206.2L22.94,137.69L23.52,207.04L23.81,177L23.96,159.54L25.12,210.78L25.27,212.7L25.56,212.28L25.7,221.49L25.99,220.33L26.14,213.55L26.43,210.34L26.57,219.52L26.72,199.61L26.86,213.37L27.44,209.58L27.59,205.55L28.03,209.35L28.17,204.25L28.32,209.03L28.46,203.74L28.9,203.11L29.04,207.74L29.19,202.84L29.33,208.44L29.77,202.59L29.91,205.17L30.06,205.46L30.35,205.53L30.93,202.26L31.07,204.02L31.22,204.52L31.37,201.98L31.66,211.27L31.95,207.25L32.09,201.7L32.38,209.83L32.53,261.38L33.25,147.52L33.4,183.6L33.83,214.42L34.12,138.68L34.27,167.67L34.41,129.03L34.56,221.65L35,139.28L35.14,162.54L35.72,110.94L36.01,120.81L36.16,149.45L36.59,120.37L36.74,162.85L36.88,131.66L37.03,157.26L37.17,134.84L37.61,177.06L37.75,162.44L37.9,240.5L38.48,196.07L38.63,193.76L39.35,239.24L39.64,236.04L39.79,214.45L39.93,231.27L40.37,196.73L40.51,209.76L40.8,211.64L40.95,203.75L41.24,204.52L41.38,209.53L42.11,203.16L42.26,206.52L42.69,202.91L42.84,207.23L42.98,202.93L43.13,207.7L43.42,208.35L43.56,202.52L43.85,203.08L44,205.01L44.14,202.42L44.29,205.57L44.87,202.51L45.02,206.38L46.18,192.31L46.32,174.59L46.61,170.97L46.76,237.25L46.9,151.23L47.19,242.91L47.48,189.03L47.63,186.93L47.77,184.18L47.92,198.26L48.35,245.71L48.5,241.84L48.65,168.27L48.79,194.77L48.94,148.47L49.08,168.08L49.23,118.63L49.52,113.59L50.24,247.18L50.39,224.29L50.53,191.77L50.68,173.6L50.97,217.19L51.11,215.99L51.55,205.28L51.69,216.02L51.84,213.29L51.99,209.11L52.28,226.19L52.57,223.38L52.71,215.28L53,215.01L53.29,269.5L53.58,268.06L53.73,183.14L53.87,227.85L54.45,225.12L54.6,221.45L54.74,224.56L55.03,220.17L55.18,223.8L55.33,212.64L55.47,219.84L55.62,209.15L56.05,211.23L56.2,213.92L56.49,216.07L56.63,207.19L57.07,209.31L57.21,212.76L57.36,204.72L57.79,218.53L57.94,218.47L58.08,222.35L58.23,286.86L58.66,206L59.1,217.18L59.25,220.28L59.39,218.73L59.54,219.11L59.68,187.83L59.97,187.83L60.12,264.37L60.7,188.39L60.84,221.53L60.99,242.78L61.86,131.82L62,151.09L62.44,123.69L62.59,210.93L63.46,124.45L63.6,152.93L63.75,122.24L64.04,196.88L64.18,190.88L64.33,112.47L64.91,131.24L65.05,167.89L65.2,218.09L65.63,146.07L65.78,191.26L65.93,166.32L66.94,217.89L67.09,208.65L67.67,205.82L67.81,219.19L67.96,204.28L68.1,212L68.68,211.76L68.83,204.34L68.97,213.4L69.12,203.87L69.56,212.72L69.7,203.81L69.85,209.73L70.28,202.8L70.43,207.84L70.57,202.63L70.72,207.28L71.3,203.07L71.44,205.36L71.88,201.79L72.02,202.35L72.17,211.66L72.75,212.4L72.9,204.99L73.04,210.63L73.19,197.84L73.48,209.34L73.62,269.98L74.64,165.52L74.78,158.62L74.93,223.48L75.36,189.56L75.51,115.79L75.65,158.52L76.09,90.22L76.24,154.42L76.38,94.81L76.53,148.24L77.11,145.47L77.25,119.05L77.98,164.69L78.12,122.43L78.85,222.37L79.14,205.63L79.28,127.66L80.16,192.98L80.3,200.24L81.17,217.22L81.46,216.48L81.61,205.89L81.75,214.81L82.19,203.8L82.33,209.99L82.48,207.6L82.77,207.99L83.06,205.44L83.21,208.8L84.08,202.74L84.22,207.4L85.09,201.98L85.24,203.05L85.53,203.82L85.67,201.97L85.82,205.15L85.96,268.86L86.11,154.66L86.55,214.19L86.69,186.38L87.42,212.18L87.56,202.84L87.71,207.23L88,195.41L88.14,249.23L89.01,147.63L89.16,154.76L89.3,140.31L89.59,125.87L89.74,160.26L89.89,121.82L90.47,107.86L90.61,162.8L90.76,124.88L91.19,229.79L91.48,209.3L91.63,102.56L91.77,182.44L91.92,102.33L92.35,172.49L92.5,133.98L92.93,169.46L93.37,161.75L93.52,177.32L93.66,203.72L94.39,201.38L94.53,204.23L94.68,204.61L94.82,215.53L95.11,219.14L95.26,205.93L95.4,218.82L95.55,219.81L96.27,210.85L96.56,213.9L96.71,214.23L96.86,213.76L97,204.81L97.29,204.08L97.44,211.27L97.73,208.91L97.87,205.72L98.31,208.87L98.45,205.3L98.6,206.81L98.74,207.46L99.47,202.9L99.61,208.19L99.76,202.56L100.34,204.26L100.49,204.91L100.63,203.29L101.07,203.49L101.21,214.49L101.79,220.34L102.66,159.82L102.81,167.11L103.24,132.38L103.39,171.85L103.53,132.71L103.68,164.3L104.12,131L104.41,138.28L104.55,144.07L104.7,129.87L104.84,150.07L104.99,130.7L105.13,218.03L105.28,105.57L105.86,126.66L106,151.4L106.15,129.9L106.29,143.02L106.44,213.98L107.02,142.28L107.31,149.69L107.46,177.41L107.6,181.9L107.75,217.01L107.89,207.33L108.04,227.14L108.18,209.01L108.33,231.49L108.76,207.8L109.05,210.61L109.2,226.82L109.92,208.07L110.07,219.65L110.65,220.7L110.8,205.26L110.94,216.55L111.23,219.33L111.38,205.55L111.67,207.63L111.81,215.69L112.39,216.88L112.54,207.28L112.68,214.35L113.26,207L113.41,208.95L113.55,213.77L113.7,200.17L113.99,202.71L114.14,273.41L114.28,152.35L114.86,193.69L115.01,213.21L115.44,201.72L115.59,278.73L116.46,183.81L116.6,183.89L117.33,158.42L117.47,234.48L117.62,133.71L118.2,189.77L118.35,205.27L118.49,193.45L118.64,197.66L118.78,266.77L119.65,175.78L119.8,176.61L119.94,173.03L120.38,213.25L120.52,168.06L120.67,172.25L120.81,165.37L120.96,166.31L121.11,176.08L121.98,198.72L122.12,227.53L122.41,244.15L122.85,240.64L122.99,233.16L123.14,231.81L123.57,234.37L123.72,223.85L123.86,224.26L124.01,227.8L124.45,222.41L124.88,222.98L125.03,221.82L125.17,223.26L125.32,219.84L125.46,216.71L125.61,217.87L125.75,211.95L125.9,212.09L126.04,214.45L126.33,215.41L126.91,209.4L127.06,220.01L127.49,224.6L127.78,220.31L127.93,285.53L128.08,304L128.22,245.67L128.37,232.43L129.38,202.82L129.53,204.25L129.67,213.9L129.96,198.08L130.11,265.19L130.25,272.36L130.4,193.3L131.27,143.75L131.42,147.28L131.56,202.48L131.85,113.86L132,149L132.14,112.32L132.58,231.93L133.01,192.46L133.16,152.02L133.45,143.24L133.88,145.57L134.03,165.88L134.17,144.05L134.61,177.47L134.75,163.08L134.9,165.95L135.34,163.76L136.35,209.84L136.5,284.91L136.79,292.38L136.93,176.68L137.37,227.19L137.51,207.48L137.66,220.55L137.8,206.74L138.24,220.53L138.39,215.66L138.68,215.58L138.82,217.48L138.97,211.2L139.11,218.32L139.69,213.09L139.84,214.54L141,207.31L141.14,212.26L141.29,205.2L141.43,277.24L142.02,206.02L142.31,217.62L142.45,209.03L142.6,209.48L142.74,217.94L143.47,209.69L143.61,218.77L144.34,167.25L144.48,168.69L144.63,231.83L145.79,131.38L145.94,152.77L146.37,127.02L146.66,137.59L146.81,138.78L146.95,139.39L147.1,135.8L147.24,223.91L147.82,151.79L147.97,166.9L148.11,145.59L148.26,221.38L148.4,180.46L148.55,201.53L148.7,133.98L149.28,170.7L149.42,177.86L150.87,230.14L151.16,227.64L151.31,222.1L151.45,223.69L151.6,219.13L151.74,214.89L151.89,214.59L152.03,209.97L152.33,208.32L152.47,229.16L152.76,226.61L152.91,208.06L153.49,235.78L153.63,233.14L153.78,223.19L154.65,215.22L154.79,220.67L155.37,205.23L155.52,209.18L155.67,274.4L156.39,203.01L156.54,214.57L156.68,218.41L156.97,213.99L157.12,196.36L157.55,202.91L157.7,195.3L159.01,135.46L159.15,162.38L159.59,183.15L159.88,117.57L160.02,154.93L160.17,190.62L160.46,125.47L160.6,161.31L160.75,108.6L160.89,157.81L161.47,152.3L161.62,116.69L162.34,176.09L162.49,145.2L163.22,183.85L163.36,179.71L163.51,191.32L164.81,238.92L164.96,225.31L165.1,235.65L165.68,225.15L165.83,217.02L165.98,224.57L166.12,204.49L166.27,221.44L166.41,205.85L166.56,219.2L166.99,205.07L167.14,212.32L167.28,204.03L167.57,218.16L168.15,217.56L168.3,211.43L168.44,211.69L168.59,215.26L168.88,215.52L169.46,208.26L169.61,224.14L170.77,206L170.91,210.83L172.65,145.62L172.8,242.7L172.95,109L173.53,124.35L173.67,227.73L174.11,131.95L174.4,133.64L174.54,210.13L174.83,133.25L175.41,141.6L175.56,145.72L175.7,203.71L176.14,130.7L176.29,154.23L176.43,123.52L177.16,170.08L177.3,156.56L177.45,166.24L178.75,223.01L178.9,216.91L179.04,222.66L179.48,213.5L179.62,220.69L179.77,208.96L179.92,223.48L180.5,207.56L180.64,210.92L181.08,203.79L181.22,212.36L181.37,203.86L181.51,211.73L181.66,203.43L182.24,203.46L182.38,210.6L182.53,203.92L183.26,204.53L183.4,205.21L183.98,207.28L184.13,202.44L184.27,205L184.56,202.14L184.71,221.5L185.14,224.24L185.58,198.73L185.72,273.77L185.87,290.81L186.16,253.55L186.3,250.41L186.74,149.97L187.03,182.6L187.18,177.34L187.32,103.23L187.9,127.95L188.05,145.71L188.34,147.96L188.77,124.95L188.92,144.86L189.06,197.95L189.5,121.47L189.64,160.17L189.79,117.68L190.23,175.04L190.52,169.75L190.66,149.24L191.53,179.76L191.68,181.73L192.4,223.89L192.55,217.62L192.69,224.34L193.27,228.87L193.42,197.15L193.71,204.43L193.86,214.63L194.73,203.97L194.87,209L195.02,203.49L195.45,210.56L195.6,205.77L195.74,205.87L196.18,209.88L196.32,203.17L196.47,208.77L196.61,204.09L196.9,204.32L197.05,202.56L197.34,202.47L197.49,206.84L197.63,202.87L197.92,201.81L198.21,211.93L198.65,208.18L198.79,208.69L198.94,209.6L199.08,274.77L199.81,191.12L199.95,197.34L200.1,198.74L200.39,183.58L200.54,240.3L201.41,117.16L201.55,154.32L201.7,108.06L201.84,220.11L202.28,127.69L202.42,141.78L202.57,203.78L203,110.8L203.15,172.52L203.29,113.5L203.44,171.83L204.02,162.17L204.17,142.71L204.46,139.15L205.18,180.48L205.33,184.98L205.47,186.68L205.62,201.22L206.2,222.62L206.34,209.66L206.49,216.72L206.63,280.52L207.07,170.4L207.65,197.91L207.8,209.48L208.38,211.31L208.52,203.89L208.67,212.22L209.39,203.1L209.54,208.4L209.68,203.3L209.97,214.89L210.12,210.04L210.26,213.06L211.28,208.45L211.43,211.72L211.57,205.66L212.01,207.44L212.15,216.69L212.3,221.71L212.59,209.71L212.73,204.96L212.88,205.65L213.02,199.58L213.31,212.39L213.6,200.4L213.75,192.45L214.33,153.81L214.62,157.37L214.77,160.73L214.91,150.97L215.06,215.73L215.35,122.28L215.78,176.45L215.93,185.21L216.07,119.85L216.65,144.72L216.8,158.48L216.94,152.23L217.09,168.83L217.23,206.19L217.67,141.67L217.96,170.29L218.11,184.76L218.25,143.47L218.83,160.99L218.98,172.07L219.99,285.46L220.28,281.9L220.43,168.27L220.57,243.44L221.15,215.54L221.3,204.25L221.59,221.07L222.17,216.16L222.32,215.17L222.46,217.85L222.61,210.72L222.9,212.5L223.04,214.06L223.77,212.06L223.91,212.58L224.06,212.62L224.2,212.91L224.35,211.67L224.49,211.98L224.64,209.89L224.79,214.43L224.93,209.36L225.08,211.16L225.22,276.74L225.37,293.24L225.51,228.38L225.66,205.49L225.95,293.16L226.38,208.46L226.53,217.76L226.82,231.64L227.25,216.49L227.4,193.02L228.56,162.42L228.71,169.68L229,151.78L229.14,152.37L229.29,212.44L229.87,130.36L230.01,161.34L230.16,119.13L230.74,125.04L230.88,159.78L231.17,162.76L231.61,123.05L231.76,155.32L231.9,133.04L232.19,137.33L232.34,220.03L232.63,148.14L233.21,171.66L233.35,191.08L233.79,209.21L233.93,274.18L234.22,282.81L234.37,165.71L234.8,224.52L234.95,199.35L235.1,221.53L235.68,212.36L235.82,203.79L235.97,212.5L236.55,211.69L236.69,203.6L236.84,210.38L237.42,208.59L237.56,203.95L237.85,203.11L238.29,209.19L238.43,202.83L239.31,211.86L239.45,206.06L240.03,205.53L240.18,219.31L240.32,216.98L240.47,210.18L241.34,196.7L241.48,198.99L241.63,207.58L242.94,142.58L243.08,172.65L243.23,233.65L243.52,143.46L243.66,202.5L243.81,125.84L244.24,257.79L244.39,120.55L244.53,194.2L244.68,127.8L245.11,202.07L245.41,179.64L245.55,139.16L245.7,163.84L245.84,132.54L246.28,147.74L246.42,158.32L246.57,142.83L247,168.8L247.15,171.59L248.02,208.56L248.16,282.26L248.6,205.39L249.04,214.2L249.18,205.57L249.33,209.45L249.76,203.54L249.91,207.23L250.05,203.12L250.49,210.21L250.78,209.78L250.92,203L251.07,209.27L251.65,208.57L251.79,202.73L251.94,206.55L252.38,202.58L252.52,206.16L252.67,204.68L252.81,202.75L253.1,206.17L253.39,204.78L253.54,206.63L253.83,203.87L254.12,206.28L254.26,214.79L254.7,253.53L254.99,241.39L255.13,214.9L255.28,210.58L255.42,263.82L255.57,266.45L255.71,192.57L256.15,176.16L256.3,240.19L256.44,239.69L256.59,220.25L257.31,119.85L257.46,160.72L257.6,141.66L257.75,236.25L258.18,108.47L258.62,163.51L258.76,131.54L258.91,164.12L259.35,109.36L259.49,156.89L259.64,123.74L260.36,167.86L260.51,155.5L260.65,171.46L260.8,166.59L260.94,174.44L261.09,173.67L261.23,261.44L261.52,266L261.67,164.2L262.1,223.79L262.25,205.35L262.69,228.17L262.98,227.68L263.12,207.67L263.7,207.36L263.85,226.55L263.99,207.64L264.72,223.37L264.86,219.84L265.01,222.86L265.73,208.72L265.88,212.48L266.02,210.05L266.17,212.39L266.32,275.38L266.61,206.99L266.9,273L267.04,293.32L267.91,204.28L268.06,205.76L268.35,204.5L268.49,207.8L268.64,201.85L268.78,201.05L268.93,204.66L269.51,217.35L269.66,193.14L270.24,168.91L270.38,210.09L270.96,106.46L271.25,108.39L271.4,222.13L272.12,123.25L272.27,141.9L272.41,119.75L272.85,142.51L272.99,114.03L273.14,141.24L273.29,116.44L273.58,184.28L274.01,173.24L274.16,146.4L275.17,191.49L275.32,191.53L276.48,215.73L276.63,204.95L276.77,214.8L277.21,203.28L277.35,209.77L277.5,204.38L277.79,207.88L277.93,203.1L278.08,206.29L278.22,203.05L278.66,207.35L278.95,202.89L279.09,202.78L279.24,202.99L279.38,207.41L279.82,202.01L280.26,202.05L280.4,204.14L280.55,204.84L280.69,202.25L280.98,204.13L281.13,211.48L281.42,201.28L282.14,201.79L282.29,201.37L282.43,202.13L282.58,210.39L282.72,212.16L283.01,208.97L283.16,202.09L283.45,177.3L283.6,234.11L284.47,114.74L284.61,158.84L285.34,89.38L285.48,162.58L285.92,107.28L286.06,157.34L286.21,179.17L286.35,170.3L286.5,174.04L286.64,93.05L286.79,222.71L287.37,122.53L287.52,143.87L287.66,134.76L287.81,155.83L287.95,138.85L288.1,165.73L288.24,155.15L288.68,172.92L288.82,176.75L289.11,189.32L289.26,203.14L289.98,229.99L290.13,208.35L290.27,225.49L290.86,222.38L291,209.94L291.44,203.3L291.73,204.47L291.87,207.48L292.16,204.92L292.31,208.22L292.45,202.87L293.18,202.9L293.32,205.21L293.76,206.82L294.2,202.35L294.34,202.35L294.49,203.37L294.63,200.77L294.92,202.38L295.07,210.4L295.21,213.86L295.65,206.55L295.79,266.93L295.94,156.28L296.52,188.09L296.66,203.07L296.81,203.78L296.95,214.03L297.39,195.94L297.54,249.61L297.68,144.76L298.26,148.12L298.41,167.22L298.7,217.33L299.13,115.84L299.28,157.04L299.42,101.49L299.57,223.12L300,156.68L300.15,182.68L300.29,103.6L300.88,117.81L301.02,142.12L301.17,118.72L301.6,148.21L301.75,143.83L301.89,150.15L302.04,149.59L302.18,154.59L304.07,215.32L304.22,205.52L304.36,217.03L304.8,204.52L304.94,207.52L305.09,203.91L305.67,203.28L305.81,210.37L305.96,204.1L306.1,209.95L306.54,202.77L306.68,203.1L306.83,207.28L307.26,202.54L307.7,202.79L307.85,206.68L308.43,201.84L308.57,204.16L308.72,203.24L309.15,201L309.59,213.91L309.73,195.31L310.46,220.3L310.6,274.47L310.75,186.5L311.48,191.28L311.62,185.72L311.77,240.57L312.2,172.01L312.35,158.06L312.49,167.58L312.64,145.59L312.78,153.51L312.93,126.98L313.22,125.24L313.51,143.25L313.65,122.17L314.38,146L314.53,145.36L314.67,149.05L314.96,145.06L315.11,165.04L315.25,149.23L315.69,173.47L315.83,169.22L316.12,165.45L316.27,242.21L316.56,253.08L316.99,163.03L317.14,279.67L317.57,207.01L317.86,211.74L318.01,225.79L318.3,226.96L318.74,206.68L318.88,222.01L319.03,206.15L319.61,207.14L319.75,214.14L320.19,205.7L320.33,218.48L320.48,207.18L320.62,212.99L320.77,213.54L320.91,206.56L321.5,205.15L321.64,215.51L321.79,205.54L321.93,214.37L322.37,205.05L322.51,202.76L322.66,207.71L322.8,202.61L323.24,203.23L323.38,202.49L323.53,206.66L323.67,201.76L324.11,205.59L324.25,201.71L324.54,200.88L324.83,205.19L324.98,270.95L325.13,151.02L325.71,189.94L325.85,194.64L326.72,148.12L326.87,168.53L327.01,181.67L327.16,120.97L327.3,225.29L327.45,62.38L327.88,206.23L328.03,97.06L328.76,214.26L328.9,126.12L329.63,176.03L329.77,151.11L331.22,220.63L331.37,208.86L331.81,228.9L332.1,221.07L332.24,206.97L332.39,224.71L332.53,206.73L332.97,215.67L333.11,205.48L333.26,215.54L333.84,212.87L333.98,207.45L334.13,212.06L334.71,206.96L334.85,210.66L335.87,203.07L336.02,207.39L336.16,272.25L336.31,152.92L336.74,214.77L336.89,206.07L337.03,205.86L337.18,212.83L337.76,202.48L337.9,208.56L338.05,208.05L338.19,203.45L338.48,208.65L338.63,216.77L339.5,181.52L339.65,194.89L339.79,254.46L339.94,262.54L340.08,180.15L341.24,131.58L341.39,139.09L341.53,197.6L341.82,123.66L342.11,134.4L342.26,127.32L342.84,120.97L342.99,160.39L343.13,127.91L343.42,122.08L343.86,167.51L344,144.85L345.02,202.87L345.16,208.81L345.31,209.75L345.45,218.29L345.6,217.06L345.75,220.41L345.89,211.81L346.18,214.55L346.62,212.28L346.76,209.41L347.34,212.57L347.49,205.36L347.63,213.26L348.21,208.52L348.36,208.98L348.65,206.38L348.79,211.2L348.94,206.67L349.67,211.85L349.81,205.69L349.96,211.99L350.1,206.99L350.25,277.31L350.97,195.34L351.12,201.14L351.26,202.17L351.7,217.14L351.99,212.72L352.13,205.07L352.28,206.27L352.42,200.46L353.3,258.52L353.44,250.57L353.59,188.63L354.46,147.3L354.6,164.22L355.33,129.28L355.47,130.06L355.62,132.64L355.76,130.28L356.06,137.52L356.2,131.97L356.35,145.44L356.78,183.14L357.07,109.34L357.22,160.87L357.36,122.94L357.8,175.4L357.94,155.27L358.09,173.75L358.23,171.33L358.38,175.32L358.52,179.33L358.67,178.65L358.81,187.34L359.54,222.98L360.12,222.11L360.27,218.05L360.41,217.96L360.56,221.43L361.43,204.42L361.57,213.21L361.72,204.14L361.86,280.14L362.3,155.89L362.73,225.8L362.88,182.9L363.03,213.8L363.61,208.85L363.75,202.78L363.9,205.35L364.04,202.12L364.33,204.18L364.48,202.35L364.91,200.95L365.2,203.79L365.35,203.47L365.49,202.16L365.64,201.74L365.78,213.17L365.93,203.64L366.07,212.1L366.22,270.48L366.51,281.77L367.24,174L367.38,169.85L368.11,138.93L368.4,143.72L368.54,201.97L369.27,98.28L369.56,101.9L369.7,154.28L369.85,95.13L370.43,109.96L370.58,154.92L370.72,118.44L371.16,162.65L371.3,133.78L371.45,155.42L371.59,132.09L372.03,169.23L372.17,158.16L372.32,173.33L372.61,179.45L372.75,191.57L373.63,211.93L373.77,209.9L373.92,209.46L374.21,206.56L374.35,212.52L374.5,206.42L374.64,208.95L374.79,203.56L375.08,206.19L375.22,202.99L375.37,208.79L375.95,204.61L376.09,205.57L376.24,206.85L376.38,203.27L376.67,204.5L376.82,204.71L377.11,205.24L377.26,202.18L377.4,205.98L377.84,201.91L378.13,201.99L378.27,203.58L378.56,201.45L378.71,202.61L378.85,269.77L379.72,201.97L379.87,200.19L380.16,202.11L380.45,199.12L380.6,194.33L381.32,172.7L381.47,160.11L381.61,169.78L381.76,131.53L381.9,165.51L382.05,144.03L382.19,153.72L382.34,125.34L382.48,146.6L382.63,121.7L383.21,107.89L383.35,145.18L383.5,105.24L383.65,146.17L384.23,135.82L384.37,120.4L384.66,118.81L385.1,136.18L385.24,128.44L385.97,162.72L386.11,159.6L386.26,240.59L386.55,174.24L386.98,204L387.13,213.59L387.28,208.5L387.42,221.08L387.57,212.02L387.71,223.88L387.86,198.65L388.44,203.61L388.58,208.02L389.02,203.02L389.16,208.13L389.31,205.49L389.45,205.56L389.6,205.24L389.74,206.06L389.89,203.02L390.03,208.9L390.18,202.59L390.62,204.73L390.76,202.42L391.2,202.14L391.34,205.39L391.49,202.38L391.63,203.46L391.92,204.15L392.07,201.38L392.5,201.84L392.65,201.66L392.79,203.59L393.23,200.37L393.37,201.55L393.52,200.78L393.81,201.28L393.95,208.41L394.83,185.27L394.97,241.7L395.12,132.23L395.7,194.96L395.84,215.97L395.99,234.56L396.13,145.88L396.28,188.48L396.71,135.55L396.86,131.8L397.44,144.94L397.59,113.69L398.17,214.23L398.31,196.67L398.46,149.59L398.75,136.4L398.89,163.26L399.18,159.74L399.33,140.29L399.91,237.68L400.34,192.14L400.49,189.03L401.36,240.3L401.51,216.8L401.65,239.59L401.8,208.22L402.23,228.88L402.38,198.58L402.52,220.31L403.1,211.46L403.25,204.43L403.39,213.51L403.97,207.38L404.12,208.22L404.26,209.4L404.41,203.99L404.56,211.2L405.14,208.34L405.28,203.47L405.43,210.99L405.86,203.14L406.01,206.15L406.15,203.56L406.3,210.77L406.44,203.46L406.88,206.17L407.02,206.21L407.17,215.12L407.46,214.38L407.6,194.79L408.04,206.12L408.19,269.1L409.2,167.41L409.35,180.98L410.22,147.61L410.36,162.32L411.09,127.95L411.38,128.46L411.53,139.7L411.67,146.66L411.82,220.72L412.25,141.05L412.69,175.96L412.83,236.68L413.41,252.47L413.56,209.57L413.7,247.83L413.85,148.81L414.43,202.36L414.57,217.44L414.72,212.26L414.87,223.61L415.01,219.87L415.16,232.57L415.45,236.83L415.59,220.45L416.03,223.75L416.17,229.52L417.33,213.24L417.48,215.94L417.62,215.77L417.77,209.44L417.91,218.52L418.35,203.86L418.5,211.95L418.64,206.54L418.79,211.16L418.93,204.97L419.37,209.63L419.51,203.32L420.09,203.27L420.24,210.09L420.38,204.58L420.53,207.97L420.67,203.05L420.82,275.53L420.96,152.76L421.54,217.47L421.69,298.2L422.13,207.3L422.56,223.65L422.71,199.45L424.16,160.73L424.3,163.16L424.45,150.35L424.59,151.63L424.74,223.04L425.03,138.68L425.61,154.96L425.76,161.96L425.9,154.13L426.05,222.94L426.48,149.71L426.77,224.26L426.92,199.11L427.35,247.15L427.64,219.37L427.79,208.11L428.08,193.95L428.37,194.84L428.51,215.71L428.66,212.72L428.81,230.52L429.68,260.07L429.82,253.98L429.97,249.56L431.27,219.95L431.56,220.69L431.71,218.97L431.85,218.18L432,218.63" style="vector-effect: non-scaling-stroke; fill: none; stroke: rgb(0, 128, 0); stroke-opacity: 1; stroke-width: 2px; opacity: 1;"/></g><g class="points"/><g class="text"/></g></g></g><g class="overplot"/><path class="xlines-above crisp" d="M0,0" style="fill: none;"/><path class="ylines-above crisp" d="M0,0" style="fill: none;"/><g class="overlines-above"/><g class="xaxislayer-above"><g class="xtick"><text text-anchor="middle" x="0" y="433" transform="translate(163.64,0)" style="font-family: 'Open Sans', verdana, arial, sans-serif; font-size: 12px; fill: rgb(42, 63, 95); fill-opacity: 1; white-space: pre; opacity: 1;"><tspan class="line" dy="0em" x="0" y="433">Aug 7</tspan><tspan class="line" dy="1.3em" x="0" y="433">2022</tspan></text></g><g class="xtick"><text text-anchor="middle" x="0" y="433" style="font-family: 'Open Sans', verdana, arial, sans-serif; font-size: 12px; fill: rgb(42, 63, 95); fill-opacity: 1; white-space: pre; opacity: 1;" transform="translate(261.22,0)">Aug 14</text></g><g class="xtick"><text text-anchor="middle" x="0" y="433" style="font-family: 'Open Sans', verdana, arial, sans-serif; font-size: 12px; fill: rgb(42, 63, 95); fill-opacity: 1; white-space: pre; opacity: 1;" transform="translate(358.8,0)">Aug 21</text></g><g class="xtick"><text text-anchor="middle" x="0" y="433" style="font-family: 'Open Sans', verdana, arial, sans-serif; font-size: 12px; fill: rgb(42, 63, 95); fill-opacity: 1; white-space: pre; opacity: 1;" transform="translate(456.38,0)">Aug 28</text></g></g><g class="yaxislayer-above"><g class="ytick"><text text-anchor="end" x="79" y="4.199999999999999" transform="translate(0,359.41)" style="font-family: 'Open Sans', verdana, arial, sans-serif; font-size: 12px; fill: rgb(42, 63, 95); fill-opacity: 1; white-space: pre; opacity: 1;">50</text></g><g class="ytick"><text text-anchor="end" x="79" y="4.199999999999999" style="font-family: 'Open Sans', verdana, arial, sans-serif; font-size: 12px; fill: rgb(42, 63, 95); fill-opacity: 1; white-space: pre; opacity: 1;" transform="translate(0,275.78)">0</text></g><g class="ytick"><text text-anchor="end" x="79" y="4.199999999999999" style="font-family: 'Open Sans', verdana, arial, sans-serif; font-size: 12px; fill: rgb(42, 63, 95); fill-opacity: 1; white-space: pre; opacity: 1;" transform="translate(0,192.15)">50</text></g><g class="ytick"><text text-anchor="end" x="79" y="4.199999999999999" style="font-family: 'Open Sans', verdana, arial, sans-serif; font-size: 12px; fill: rgb(42, 63, 95); fill-opacity: 1; white-space: pre; opacity: 1;" transform="translate(0,108.52)">100</text></g></g><g class="overaxes-above"/></g></g><g class="polarlayer"/><g class="smithlayer"/><g class="ternarylayer"/><g class="geolayer"/><g class="funnelarealayer"/><g class="pielayer"/><g class="iciclelayer"/><g class="treemaplayer"/><g class="sunburstlayer"/><g class="glimages"/><defs id="topdefs-01e409"><g class="clips"/><clipPath id="legend01e409"><rect width="167" height="67" x="0" y="0"/></clipPath></defs><g class="layer-above"><g class="imagelayer"/><g class="shapelayer"/></g><g class="infolayer"><g class="legend" pointer-events="all" transform="translate(520.64,100)"><rect class="bg" shape-rendering="crispEdges" width="167" height="67" x="0" y="0" style="stroke: rgb(68, 68, 68); stroke-opacity: 1; fill: rgb(255, 255, 255); fill-opacity: 1; stroke-width: 0px;"/><g class="scrollbox" transform="" clip-path="url(#legend01e409)"><g class="groups"><g class="traces" transform="translate(0,14.5)" style="opacity: 1;"><text class="legendtext" text-anchor="start" x="40" y="4.680000000000001" style="font-family: 'Open Sans', verdana, arial, sans-serif; font-size: 12px; fill: rgb(42, 63, 95); fill-opacity: 1; white-space: pre;">BESS</text><g class="layers" style="opacity: 0.5;"><g class="legendfill"/><g class="legendlines"><path class="js-line" d="M5,0h30" style="fill: none; stroke: rgb(0, 191, 255); stroke-opacity: 1; stroke-width: 2px;"/></g><g class="legendsymbols"><g class="legendpoints"/></g></g><rect class="legendtoggle" x="0" y="-9.5" width="161.890625" height="19" style="fill: rgb(0, 0, 0); fill-opacity: 0;"/></g><g class="traces" transform="translate(0,33.5)" style="opacity: 1;"><text class="legendtext" text-anchor="start" x="40" y="4.680000000000001" style="font-family: 'Open Sans', verdana, arial, sans-serif; font-size: 12px; fill: rgb(42, 63, 95); fill-opacity: 1; white-space: pre;">Solar</text><g class="layers" style="opacity: 0.5;"><g class="legendfill"/><g class="legendlines"><path class="js-line" d="M5,0h30" style="fill: none; stroke: rgb(255, 0, 0); stroke-opacity: 1; stroke-width: 2px;"/></g><g class="legendsymbols"><g class="legendpoints"/></g></g><rect class="legendtoggle" x="0" y="-9.5" width="161.890625" height="19" style="fill: rgb(0, 0, 0); fill-opacity: 0;"/></g><g class="traces" transform="translate(0,52.5)" style="opacity: 1;"><text class="legendtext" text-anchor="start" x="40" y="4.680000000000001" style="font-family: 'Open Sans', verdana, arial, sans-serif; font-size: 12px; fill: rgb(42, 63, 95); fill-opacity: 1; white-space: pre;">Grid Meter (Net Load)</text><g class="layers" style="opacity: 0.5;"><g class="legendfill"/><g class="legendlines"><path class="js-line" d="M5,0h30" style="fill: none; stroke: rgb(0, 128, 0); stroke-opacity: 1; stroke-width: 2px;"/></g><g class="legendsymbols"><g class="legendpoints"/></g></g><rect class="legendtoggle" x="0" y="-9.5" width="161.890625" height="19" style="fill: rgb(0, 0, 0); fill-opacity: 0;"/></g></g></g><rect class="scrollbar" rx="20" ry="3" width="0" height="0" x="0" y="0" style="fill: rgb(128, 139, 164); fill-opacity: 1;"/></g><g class="g-gtitle"><text class="gtitle" x="296" y="50" text-anchor="middle" dy="0em" style="font-family: 'Open Sans', verdana, arial, sans-serif; font-size: 17px; fill: rgb(42, 63, 95); opacity: 1; font-weight: normal; white-space: pre;"><tspan class="line" dy="0em" x="296" y="50">Scenario 8</tspan><tspan class="line" dy="1.3em" x="296" y="50">Microgrid Output</tspan><tspan class="line" dy="2.6em" x="296" y="50">From: August 01, 2022 to August 31, 2022</tspan></text></g><g class="g-xtitle"><text class="xtitle" x="296" y="477.409375" text-anchor="middle" style="font-family: 'Open Sans', verdana, arial, sans-serif; font-size: 14px; fill: rgb(42, 63, 95); opacity: 1; font-weight: normal; white-space: pre;">Time</text></g><g class="g-ytitle"><text class="ytitle" transform="rotate(-90,33.60625,260)" x="33.60625" y="260" text-anchor="middle" style="font-family: 'Open Sans', verdana, arial, sans-serif; font-size: 14px; fill: rgb(42, 63, 95); opacity: 1; font-weight: normal; white-space: pre;">Demand (kW)</text></g></g></svg>