<svg class="main-svg" xmlns="http://www.w3.org/2000/svg" xmlns:xlink="http://www.w3.org/1999/xlink" width="700" height="500" style="" viewBox="0 0 700 500"><rect x="0" y="0" width="700" height="500" style="fill: rgb(255, 255, 255); fill-opacity: 1;"/><defs id="defs-b980bd"><g class="clips"><clipPath id="clipb980bdxyplot" class="plotclip"><rect width="432" height="320"/></clipPath><clipPath class="axesclip" id="clipb980bdx"><rect x="80" y="0" width="432" height="500"/></clipPath><clipPath class="axesclip" id="clipb980bdy"><rect x="0" y="100" width="700" height="320"/></clipPath><clipPath class="axesclip" id="clipb980bdxy"><rect x="80" y="100" width="432" height="320"/></clipPath></g><g class="gradients"/><g class="patterns"/></defs><g class="bglayer"/><g class="layer-below"><g class="imagelayer"/><g class="shapelayer"/></g><g class="cartesianlayer"><g class="subplot xy"><g class="layer-subplot"><g class="shapelayer"/><g class="imagelayer"/></g><g class="gridlayer"><g class="x"><path class="xgrid crisp" transform="translate(163.64,0)" d="M0,100v320" style="stroke: rgb(255, 255, 255); stroke-opacity: 1; stroke-width: 1px;"/><path class="xgrid crisp" transform="translate(261.22,0)" d="M0,100v320" style="stroke: rgb(255, 255, 255); stroke-opacity: 1; stroke-width: 1px;"/><path class="xgrid crisp" transform="translate(358.8,0)" d="M0,100v320" style="stroke: rgb(255, 255, 255); stroke-opacity: 1; stroke-width: 1px;"/><path class="xgrid crisp" transform="translate(456.38,0)" d="M0,100v320" style="stroke: rgb(255, 255, 255); stroke-opacity: 1; stroke-width: 1px;"/></g><g class="y"><path class="ygrid crisp" transform="translate(0,406.07)" d="M80,0h432" style="stroke: rgb(255, 255, 255); stroke-opacity: 1; stroke-width: 1px;"/><path class="ygrid crisp" transform="translate(0,363.26)" d="M80,0h432" style="stroke: rgb(255, 255, 255); stroke-opacity: 1; stroke-width: 1px;"/><path class="ygrid crisp" transform="translate(0,277.65)" d="M80,0h432" style="stroke: rgb(255, 255, 255); stroke-opacity: 1; stroke-width: 1px;"/><path class="ygrid crisp" transform="translate(0,234.85)" d="M80,0h432" style="stroke: rgb(255, 255, 255); stroke-opacity: 1; stroke-width: 1px;"/><path class="ygrid crisp" transform="translate(0,192.04000000000002)" d="M80,0h432" style="stroke: rgb(255, 255, 255); stroke-opacity: 1; stroke-width: 1px;"/><path class="ygrid crisp" transform="translate(0,149.23)" d="M80,0h432" style="stroke: rgb(255, 255, 255); stroke-opacity: 1; stroke-width: 1px;"/><path class="ygrid crisp" transform="translate(0,106.43)" d="M80,0h432" style="stroke: rgb(255, 255, 255); stroke-opacity: 1; stroke-width: 1px;"/></g></g><g class="zerolinelayer"><path class="yzl zl crisp" transform="translate(0,320.46000000000004)" d="M80,0h432" style="stroke: rgb(255, 255, 255); stroke-opacity: 1; stroke-width: 2px;"/></g><path class="xlines-below"/><path class="ylines-below"/><g class="overlines-below"/><g class="xaxislayer-below"/><g class="yaxislayer-below"/><g class="overaxes-below"/><g class="plot" transform="translate(80,100)" clip-path="url(#clipb980bdxyplot)"><g class="scatterlayer mlayer"><g class="trace scatter tracef69d00" style="stroke-miterlimit: 2; opacity: 0.5;"><g class="fills"/><g class="errorbars"/><g class="lines"><path class="js-line" d="M0,233.11L0.15,225.23L0.73,225.45L0.87,226.99L1.02,227.96L1.16,225.91L1.31,227.04L1.45,221.95L2.18,245.75L2.32,226.78L2.47,227.48L2.61,225.75L2.76,223.29L3.05,222.09L3.19,228.26L3.49,223.77L3.63,226.65L3.92,221.37L4.07,248.42L4.36,264.4L4.94,210.67L5.08,218.01L6.1,172.03L6.24,172.23L6.39,170.12L6.68,180.33L6.82,146.09L6.97,203.64L7.12,145.24L7.55,207.65L7.7,205.39L7.84,216.69L8.28,169.58L8.57,176.83L8.71,201.84L9.15,153.87L9.29,209.91L9.44,210.51L9.87,179.62L10.02,210.31L10.16,220.46L10.46,220.46L10.6,227.58L11.33,251.58L11.47,227.87L11.62,248.27L12.05,227.03L12.2,237.36L12.34,224.65L12.49,237.27L13.21,235L13.36,223.81L13.5,239.72L14.09,231.9L14.23,226.08L14.38,230.69L14.81,226.05L14.96,228.31L15.1,224.96L15.39,222.97L15.54,232.8L15.83,228.94L15.97,222.58L16.26,228.08L16.7,226.56L16.84,223.19L17.28,233.23L17.43,231.85L17.57,222.67L18.01,239.18L18.3,228.01L18.44,222.35L18.73,212.99L18.88,203.04L19.02,207.5L19.31,195.3L19.46,192.22L19.6,190.35L19.75,168.1L19.89,184.85L20.33,151.37L20.47,177.74L20.62,144.73L20.91,142.8L21.35,202.38L21.49,146.35L22.36,220.46L22.51,220.46L24.69,220.46L24.83,226.47L25.85,245.66L25.99,238.51L26.28,231.69L26.43,245.03L26.57,231.1L26.72,242.66L26.86,225.7L27.3,231.36L27.44,226.98L27.88,231.61L28.03,224.85L28.17,231.56L28.32,223.92L28.75,222.75L28.9,231.41L29.19,230.21L29.33,223.4L29.48,229L29.62,222.81L29.91,227.29L30.06,222.55L30.64,228.23L30.78,222.28L30.93,223.37L31.07,228.5L31.22,222.29L31.51,222.75L31.66,221.46L32.38,232.71L32.53,223.24L32.67,229.29L32.96,220.46L33.11,208.42L33.98,167.5L34.12,207.51L34.56,138.64L34.85,159.86L35,205.31L35.58,158.49L35.72,207L35.87,220.46L38.63,220.46L38.77,223.45L39.21,267.7L39.5,263.08L39.64,241.21L39.79,244.98L40.08,237.57L40.22,238.78L40.37,238.68L40.51,236.67L40.66,240.15L40.8,224.6L40.95,234.07L41.53,231.51L41.68,224.54L41.97,223.64L42.11,236.94L42.4,236.93L42.55,224.58L42.69,233.23L43.13,223.48L43.27,230.42L43.42,223.28L43.85,230.44L44,222.88L44.14,229.68L44.29,222.76L44.58,228.38L44.72,222.14L45.02,224.36L45.16,223.52L45.31,229.19L45.74,220.58L45.89,221.4L46.03,227.12L46.47,214.94L46.61,213.64L46.76,213.85L46.9,213.44L47.05,219.03L47.19,229.9L47.77,220.46L47.92,221.6L48.06,220.74L48.21,211.83L48.35,224.02L48.79,207L48.94,206.88L49.37,145.4L49.66,155.91L49.81,168.8L50.53,220.46L50.68,213.35L50.82,210.58L51.84,254.92L51.99,228.37L52.71,271.78L52.86,233.17L53,266.74L53.44,231.9L53.58,254.63L53.73,229L53.87,256.06L54.31,226.99L54.45,245.81L54.6,226.8L54.74,244.92L54.89,226.57L55.33,226.85L55.47,237.77L55.62,224.48L55.76,237.96L56.34,226.36L56.49,233.56L57.36,221.78L57.5,230.53L57.65,224.19L58.08,235.2L58.23,230.91L58.37,233.8L59.1,222.64L59.25,240.1L59.54,243.24L59.68,215.7L60.12,220.46L60.26,220.46L60.84,237.66L60.99,210.71L61.13,207.25L61.28,213.16L61.42,179L61.57,210.4L62,168.16L62.15,187L62.3,168.23L62.44,186.21L62.59,142.56L63.02,174.6L63.17,164.84L63.75,158.7L63.89,180.69L64.04,161.47L64.62,144.85L64.76,202.2L64.91,156.78L65.63,211.74L65.78,199.59L65.93,215.24L66.07,213.62L66.22,219.55L66.36,220.66L66.51,221.14L66.65,224.61L67.38,251.66L67.52,228.26L67.67,246.95L68.1,225.72L68.25,243.29L68.39,226.17L68.54,242.15L68.97,225.25L69.12,237.11L69.27,224.62L69.41,239.42L69.99,235.31L70.14,224.17L70.28,230.92L70.43,223.07L70.86,226.93L71.01,225.43L71.59,227.97L71.73,222.3L71.88,227.86L72.02,222.31L72.31,233.88L72.46,226.31L72.61,235.96L72.9,220.92L73.48,221.17L73.62,229.85L74.35,207.17L74.49,209.6L74.64,189.3L74.78,208.33L75.22,174.67L75.36,179.82L75.94,138.03L76.38,153.41L76.53,158.28L76.82,165.65L76.96,147.31L77.11,176.32L77.4,162.3L77.54,208.99L78.41,220.46L78.56,220.46L80.3,220.46L80.45,226.22L80.59,223.03L80.74,236.04L80.88,229.66L81.03,241.16L81.61,242.85L81.75,225.96L81.9,237.96L82.04,224.83L82.62,229.75L82.77,228.4L83.06,231.39L83.64,223.82L83.79,231.01L83.93,222.97L84.51,223.09L84.66,225.66L84.8,225.4L84.95,221.38L85.09,228.93L85.67,225.88L85.82,222.18L86.11,221.75L86.25,226.24L86.55,224.4L86.69,223.39L86.84,220.95L86.98,227.43L87.42,221.31L87.56,229.81L89.74,157.47L89.89,191.53L90.03,162.85L90.47,220.46L90.61,220.46L93.52,220.46L93.66,241.5L93.95,242.76L94.1,217.96L94.53,221.12L94.68,235.92L94.97,249.51L95.11,227.32L95.4,233.71L95.55,240.58L95.69,241.45L95.84,235.75L95.98,245.22L96.13,233.34L96.56,237.54L96.71,236.83L97.15,224.15L97.44,225.5L97.58,230.25L98.02,225.89L98.16,231.14L98.31,226.44L98.45,227.73L98.74,224.15L98.89,232.54L99.03,223.36L99.18,233.9L99.61,223.19L99.76,228.06L99.9,224.19L100.34,226.12L100.49,223.38L100.63,225.1L100.78,225.51L101.07,226.08L101.21,222.27L101.36,237.42L101.65,247.74L102.23,221.64L102.37,220.75L103.1,165.36L103.24,206.93L103.39,153.42L103.97,160.98L104.12,184.62L104.84,158.7L104.99,187.65L105.86,163.06L106,207.94L106.87,220.46L107.02,220.46L107.6,220.46L107.75,241.9L107.89,237.15L108.04,245.24L108.18,242.39L108.33,249.63L108.76,232.04L109.05,236.92L109.2,253.2L109.63,231.04L109.92,232.49L110.07,240.41L110.94,233.54L111.09,237.55L111.67,231.76L111.96,232.99L112.1,236.49L112.54,230.13L112.68,240.5L112.97,243.66L113.41,224.44L113.55,230.57L113.99,237.74L114.14,224.26L114.43,223.47L115.01,237.91L115.15,226.36L115.3,237.19L115.73,221.81L115.88,234.97L116.02,224.09L116.17,239.38L116.46,220.46L116.6,220.46L116.75,216.57L117.62,182.84L117.77,210.72L118.06,235.02L118.49,223.28L118.64,220.46L118.78,231.76L119.36,220.46L119.51,220.46L119.8,220.46L119.94,151.88L120.67,215.67L120.81,199.24L120.96,215.15L121.98,250.6L122.56,250.4L122.7,240.34L122.85,264.25L123.28,228.38L123.43,253.16L123.57,231.56L124.01,246.27L124.15,226.73L124.3,242.84L124.45,226.05L125.03,225.83L125.17,243.7L125.32,226.26L125.46,236.43L125.9,224.67L126.04,233.53L126.19,223.61L126.33,235.92L126.91,229.05L127.06,223.77L127.49,244.77L127.78,240.6L127.93,225.49L128.37,253.24L128.66,242.33L128.8,225.93L128.95,230.04L129.38,221.42L129.53,223.9L129.67,221.5L129.82,234.92L130.83,190.37L130.98,208.1L131.71,153.64L131.85,176.66L132,148.1L132.72,204.03L132.87,174.12L133.01,209.09L133.45,157.23L133.59,203.9L133.74,145.8L134.46,207.43L134.61,171.41L135.34,215.67L135.48,208.53L135.63,217.48L136.64,248.31L136.79,254.2L137.08,257.4L137.22,231.59L137.37,257.41L138.24,232.77L138.39,228.3L138.97,224.02L139.11,238.57L139.26,224.99L139.4,232.14L139.98,229.61L140.13,225.89L140.27,231.24L140.71,224.02L140.85,230.12L141,222.74L141.14,233.1L141.73,226.44L141.87,227.01L142.02,221.72L142.16,227.88L142.31,222.37L142.45,238.41L142.74,249.38L143.18,224.21L143.32,235.07L143.61,241.7L144.19,212.12L144.34,216.07L144.48,197.01L145.06,208.38L145.21,200.62L145.94,160.52L146.23,167.28L146.37,174.63L146.81,183.48L146.95,159.9L147.1,188.64L147.24,169.89L147.68,208.85L147.82,176.38L147.97,209.44L148.7,181.93L148.84,198.17L149.86,229.38L150,222.69L150.73,257.98L151.16,249.53L151.31,250.51L151.6,252.15L152.18,229.32L152.33,244.67L152.47,226.86L152.62,260.18L153.05,229.89L153.2,252.88L153.49,254.7L153.92,228.65L154.07,242.57L154.5,225.5L154.79,230.64L154.94,232.63L155.23,234.63L155.67,222.63L155.96,224.17L156.1,221.09L156.68,235.53L156.97,232.64L157.12,223.31L157.55,223.4L157.99,217.95L158.13,219.83L158.28,220.46L158.42,219.8L158.57,206.39L158.71,216.98L159.01,187.63L159.15,176.12L159.3,187.66L159.44,163.33L159.59,180.61L159.73,157.96L160.46,180.28L160.6,170.03L160.75,165.73L160.89,167.99L161.04,158.71L161.18,175.32L161.33,156.85L161.76,182.46L161.91,176.61L162.05,191.88L162.2,183.96L162.34,203.18L162.49,186.57L162.64,212.57L162.78,202.91L163.22,218.07L163.36,220.46L163.65,221.94L163.8,227.93L164.81,260.59L164.96,267.67L165.54,251.95L165.83,254.74L165.98,249.09L166.41,231.98L166.85,233.5L166.99,240.13L167.14,224.73L167.28,242.3L167.72,225.06L167.86,235.11L168.01,224.12L168.15,238.31L168.73,224.93L168.88,233.73L169.46,222.25L169.61,235.43L169.9,241.1L170.33,222.58L170.48,230.46L171.06,222.04L171.2,223.21L171.35,227.05L172.8,166.4L172.95,207.76L173.38,160.48L173.82,170.63L173.96,167.53L174.11,168.14L174.25,167.62L174.4,165.63L174.54,157.53L174.69,183.01L174.83,161.62L174.98,185.2L175.12,164.93L175.27,191.23L175.7,173.01L175.85,177.43L175.99,189.85L176.43,171.5L176.58,185.94L176.72,181.72L177.88,220.46L178.03,230.9L178.32,241.84L178.46,227.01L178.61,249.24L178.75,229.65L179.33,237.94L179.48,247.1L179.77,250.12L180.35,228.41L180.5,233.97L180.64,224.54L180.79,237.32L181.22,224.56L181.37,234.31L181.8,224.07L181.95,237.37L182.09,224.69L182.24,233.05L183.11,224.76L183.26,232.56L183.55,233.27L183.98,222.65L184.13,230.03L184.27,222.84L184.42,232.39L184.71,230.66L184.85,241.68L186.16,214.56L186.3,218.04L186.45,192.53L186.59,203.94L186.74,157.01L186.89,197.64L187.03,148.05L187.61,125.89L187.76,198.01L187.9,127.58L188.34,201.2L188.63,182.95L188.77,150.27L189.06,136.5L189.5,202.04L189.64,136.95L190.37,205.84L190.52,168.55L191.39,214.22L191.53,219.16L191.82,220.46L191.97,237.69L192.11,231.37L192.26,247.74L192.4,241.87L192.55,250.29L193.13,258.25L193.57,225.14L193.71,238.6L194.58,224.34L194.73,235.27L194.87,224.1L195.02,237.87L195.6,225.37L195.74,235.47L196.18,223.66L196.61,224.08L196.76,231.58L196.9,223.05L197.05,233.4L197.49,223.64L197.63,226.98L197.78,222.01L198.21,228.57L198.36,233.23L198.65,222.23L198.79,237.89L199.66,220.46L199.81,220.55L199.95,220.48L200.1,232.33L201.55,156.37L201.7,171.9L201.84,148.63L202.42,172.96L202.57,170.53L202.86,160.79L203,196.05L203.44,188.92L203.58,172.7L203.87,172.4L204.6,220.46L204.75,220.46L205.62,220.46L205.76,232.66L205.91,227.95L206.05,245.7L206.2,245.3L206.63,246.37L206.78,233.86L206.92,246.71L207.36,226.03L207.8,233.02L207.94,230.86L208.23,236.5L208.38,224.56L208.52,233.69L208.81,234.95L209.25,223.94L209.39,234.07L209.54,223.86L209.68,238.22L210.12,224.21L210.26,233.07L210.99,223.14L211.14,230.32L211.28,222.92L211.43,232.38L211.86,222.94L212.01,227.28L212.15,222.16L212.3,242.4L212.44,225.94L212.59,239.68L213.02,221.88L213.46,223.28L213.6,220.46L213.75,220.46L213.89,214.54L214.04,218.56L214.18,205.9L214.33,207.94L214.48,198.12L214.62,203.96L214.91,190.33L215.06,180L215.49,150.95L215.64,185.51L216.07,140.08L216.22,200.73L216.36,168.28L216.51,207.41L216.65,165.36L217.09,223.49L217.23,224.12L217.52,170.96L217.82,177.33L217.96,231.65L218.11,197.4L218.69,220.46L218.83,220.46L219.12,220.46L219.27,231.05L219.41,223.11L219.85,240.14L219.99,245.38L220.28,255.56L220.72,230.22L220.86,246.58L221.3,225.65L221.74,226.91L221.88,236.11L222.32,224.12L222.46,238.69L222.61,225.01L222.75,237.33L223.19,223.89L223.48,224.2L223.62,231.63L224.2,232.67L224.35,223.49L224.49,232.16L224.79,234.99L225.22,223.13L225.37,229.05L225.66,222.22L226.24,222.62L226.38,227.44L226.53,223.28L226.67,235.75L226.82,241.45L227.98,205.51L228.13,217.19L229.29,185.06L229.43,185.65L229.58,194.4L230.01,165.52L230.3,172.77L230.45,185.6L230.88,164.89L231.03,208.49L231.17,153.6L231.76,164.81L231.9,207.36L232.77,220.46L232.92,220.46L233.5,220.46L233.64,229.99L233.79,226.72L233.93,232.16L234.08,239.14L234.37,234.42L234.51,243.11L234.66,231.93L234.95,226.31L235.1,248.99L235.39,235.24L235.53,230.57L235.82,226.78L235.97,233.54L236.11,231.76L236.26,224.04L236.4,237.74L236.98,228.73L237.13,228.26L237.42,223.92L237.56,236.31L237.71,224.34L237.85,236.66L238.29,223.55L238.43,227.9L238.58,227.15L238.87,223.88L239.02,229.95L239.31,232.45L239.74,222.48L239.89,227.23L240.03,222.15L240.18,230.09L240.32,229.35L240.47,235.17L241.34,220.46L241.48,220.46L242.21,220.46L242.36,195.07L242.5,201.84L242.65,191.71L242.79,172.74L243.23,220.46L243.37,126.32L243.52,261.88L243.66,121.27L244.1,218.88L244.24,209.29L244.39,204.78L244.53,177.65L244.82,164.7L244.97,217.94L245.26,214.01L245.41,175.09L245.55,203.91L245.7,168.91L246.28,200.68L246.42,217.86L247.29,220.46L247.44,220.46L248.02,240.18L248.16,225L248.31,245.66L248.89,237.59L249.04,227.33L249.33,224.78L249.76,238.55L249.91,224.98L250.2,223.76L250.34,233.72L250.63,232.52L250.78,223.47L250.92,231.25L251.07,223.29L251.5,230.81L251.65,223.45L251.94,222.6L252.08,232.78L252.38,226.88L252.52,226.42L252.81,227.42L253.25,221.98L253.39,224.09L253.54,223.62L253.68,225.03L253.83,221.46L254.41,235.75L254.55,260.92L255.71,210.24L255.86,217.9L256.15,220.46L256.3,215.92L256.44,203.77L256.73,195.51L256.88,184.99L257.02,169.98L257.46,191.39L257.6,175.14L257.75,192.99L258.18,195.22L258.47,167.59L258.62,179.77L258.76,201.98L259.2,141.73L259.35,201.39L259.49,220.46L261.38,220.46L261.52,229.91L261.67,227.2L261.81,242.48L262.1,248.73L262.25,227.95L262.54,233.08L262.69,253.52L263.56,237.47L263.7,244.64L264.57,226.02L264.72,245.74L265.44,224.28L265.59,232.85L266.02,223.51L266.32,223.53L266.46,231.06L267.19,222.79L267.33,223.95L267.48,240.26L267.77,243.79L268.35,221.71L268.49,227.81L268.78,220.46L269.07,221.81L269.22,237.66L270.53,169.66L270.67,194.94L271.11,132.87L271.4,137.09L271.54,184.2L272.12,199.2L272.27,140.61L272.41,200.63L272.85,123.82L272.99,196.3L273.14,220.46L275.46,220.46L275.61,225.99L276.19,225.83L276.33,247.57L276.48,227.24L276.63,243.58L277.06,225.36L277.21,231.9L277.35,224.99L277.79,222.5L277.93,235.62L278.08,224.25L278.22,234.22L278.37,223.9L278.66,228.23L278.8,221.9L278.95,237.28L279.53,225.4L279.67,231.88L280.55,222.5L280.69,221.52L281.27,233.4L281.56,233.32L281.71,223.36L282.14,221.21L282.29,221.57L282.43,223.29L282.58,221.1L282.72,229.29L282.87,234.33L284.03,188.52L284.18,196.47L285.19,138.09L285.34,164.59L286.21,220.46L286.35,220.46L289.11,220.46L289.26,232.02L289.4,223.44L289.55,240.82L289.69,225.54L289.84,254.67L290.13,254.83L290.57,231.31L290.71,248.63L291.58,225.14L291.73,228.79L291.87,228.38L292.02,225.37L292.16,231.79L292.31,223.08L292.74,224.69L292.89,229.8L293.47,222.2L293.61,230.49L293.76,222.97L293.91,225.62L294.2,222.05L294.49,231.96L294.63,223.22L294.78,220.73L294.92,231.91L295.07,223.3L295.36,245.8L295.5,230.29L295.65,243.45L296.37,222.22L296.52,229.11L296.66,222.57L296.81,237.87L297.1,227.6L297.25,230.81L298.26,194.1L298.41,209.08L299.13,158.69L299.28,181.82L299.86,184.42L300,126.62L300.15,188.57L300.44,198.23L300.58,119.82L300.73,195.3L300.88,220.46L303.05,220.46L303.2,221.49L303.92,264.69L304.07,231.52L304.65,226.15L304.8,247.21L304.94,227.15L305.09,240.7L305.52,224.42L305.67,232.48L305.81,224.06L306.25,222.07L306.39,237.95L306.68,233.71L306.83,223.77L307.26,223.06L307.41,235.87L307.55,224.31L307.99,221.44L308.14,230.58L308.28,222.99L308.86,225.56L309.01,232.81L309.3,222.08L309.44,237.55L310.31,220.46L310.46,224.31L310.89,275.54L311.19,244.43L311.33,226.45L312.49,181.9L312.64,209.2L313.51,146.12L313.65,180.95L313.8,155.97L314.23,183.04L314.38,165.97L314.53,197.53L314.67,172.88L315.11,212.76L315.25,220.46L316.7,220.46L316.85,221.73L316.99,220.78L317.14,244.21L317.28,226.4L317.72,251.95L317.86,235.09L318.01,248.19L318.45,237.52L318.88,238.66L319.03,234.29L319.17,241.78L319.32,230.24L319.61,234.04L319.75,230.76L319.9,243.86L320.04,225.81L320.48,234.36L320.62,238.99L320.77,226.54L320.91,239.19L321.5,227.41L321.64,221.9L321.79,248.72L322.37,226.1L322.51,225.55L322.8,222.02L322.95,230.09L323.09,222.87L323.24,222.82L323.38,227.28L324.25,222.14L324.4,225.49L324.83,227.75L325.27,220.46L325.42,219.6L325.85,220.46L326,188.28L326.14,215.05L326.58,186.42L326.72,211.95L326.87,139.85L327.01,200.31L327.59,173.74L327.74,150.18L328.61,206.5L328.76,186.83L329.05,167.7L329.19,200.49L329.34,170.05L330.21,220.46L330.35,220.46L330.64,220.46L330.79,237.86L330.93,224.81L331.37,247.9L331.51,240.65L331.66,255.55L332.1,235.92L332.53,237.67L332.68,240.79L333.4,228.38L333.55,237.16L334.13,238.95L334.27,225.02L334.42,241.89L335.14,222.98L335.29,235.6L336.16,222.06L336.31,234.7L336.89,223.31L337.03,224.63L337.18,230.5L337.76,221.07L338.05,222.49L338.19,222.66L338.63,235.06L338.78,223.91L339.79,220.46L339.94,211.83L340.08,213.46L340.23,194.57L340.37,197.05L340.52,172.19L340.66,190.18L341.1,159.75L341.24,180.39L341.39,155.91L342.11,152.69L342.26,180.63L342.41,146.25L342.99,143.68L343.28,220.46L343.42,220.46L344.87,220.46L345.02,227.8L345.16,227.89L345.31,240.23L345.45,239.74L345.6,244.38L345.75,247.66L345.89,227.78L346.04,248.21L346.18,227.28L346.62,239.34L346.76,226.53L347.05,225.22L347.2,243.33L347.49,237.35L347.63,227.65L348.36,234.4L348.5,225.67L348.65,235.11L349.23,234.85L349.38,227.06L349.52,236.3L349.67,225.19L350.1,234.16L350.25,223.63L350.97,240.37L351.12,225.38L351.26,226.66L351.41,222.83L351.55,225.69L351.7,233.06L351.84,245.52L352.28,225.2L352.42,231.82L352.57,223.3L352.72,245.64L353.3,220.46L353.44,220.23L353.59,218.27L353.73,203.92L353.88,212.11L354.02,196.2L354.17,201.38L354.31,184.51L354.46,211.02L354.6,166.01L355.04,185.16L355.18,168.7L355.33,175.86L355.47,145.85L356.2,190.35L356.35,150.1L356.93,144.14L357.22,220.46L357.36,220.46L358.81,220.46L358.96,227.11L359.1,222.12L359.25,234.38L359.39,232.25L359.54,242.34L359.69,246.41L360.12,245.93L360.27,238.92L360.41,251.22L360.85,230.76L360.99,245.47L361.14,226.52L361.28,233.7L361.86,231.51L362.01,227.56L362.3,223.98L362.44,235.29L362.73,228.94L362.88,230.43L363.17,228.07L363.32,231.73L364.33,221.96L364.48,224.01L364.77,227.37L364.91,222.1L365.06,223.57L365.2,224.69L365.49,220.85L365.64,224.92L365.78,221.57L365.93,234.47L366.22,236.75L366.66,223.74L366.8,224.02L366.95,221.25L367.24,215.22L367.38,211.55L367.53,209.74L367.67,193.27L368.98,155.61L369.12,174.1L369.56,150.92L369.85,151.39L370,205.39L370.87,220.46L371.01,220.46L372.75,220.46L372.9,222.17L373.63,241.78L373.77,225.78L373.92,241.54L374.06,225.73L374.5,236.47L374.64,224.38L374.93,232.06L375.08,222.8L375.51,228.5L375.66,228.3L376.09,229.11L376.24,223.55L376.38,226.9L376.53,225.79L376.82,224.32L376.97,227.84L377.69,222.07L377.84,228.29L378.42,221.93L378.56,222.09L378.71,223.5L379,220.72L379.14,223.42L379.29,236.2L380.01,221.69L380.16,222.29L380.31,221.8L381.18,220.46L381.32,207.04L381.47,212.5L381.61,162.49L382.05,207.54L382.19,148.95L382.34,193.79L382.48,146.08L382.77,131.07L383.5,220.46L383.65,220.46L386.84,220.46L386.98,234.76L387.13,227.44L387.28,244.51L387.42,234.01L387.57,251.31L388.29,226.44L388.44,236.12L388.58,224.2L389.16,227.41L389.31,226.22L389.45,226.08L389.6,228.64L389.74,222.22L389.89,231.24L390.32,224.61L390.47,228.36L391.05,221.78L391.34,223.24L391.49,223.57L391.78,226.37L392.21,221.45L392.36,228.76L393.23,220.46L393.37,226.27L393.66,220.68L393.95,221.36L394.1,227.12L395.7,173.74L395.84,210.51L396.13,215.08L397.15,155.65L397.29,192.09L398.17,220.46L398.31,220.46L400.49,220.46L400.63,236.06L400.78,229.91L400.93,256.54L401.07,234.14L401.22,270.3L401.65,244.19L401.8,265.24L401.94,230.91L402.67,234.68L402.81,226.88L402.96,241.15L403.1,225.43L403.54,230.04L403.68,232.57L404.12,237.62L404.26,224.32L404.41,232.98L404.56,230.39L404.99,235.04L405.14,223.65L405.28,232.75L405.72,223.82L405.86,235.7L406.01,224.27L406.15,233.53L406.3,225.06L406.88,227.89L407.02,226.82L407.17,223.86L407.31,242.28L408.04,222.68L408.19,224.96L408.33,226.07L409.35,203.95L409.49,216.3L410.65,179.04L410.8,173.99L411.09,178.33L411.53,156.2L411.67,187.96L411.96,201.93L412.11,167.15L412.25,207.61L412.4,166.95L412.83,221.48L412.98,198.27L413.12,214.13L413.99,220.46L414.14,220.46L414.28,223.31L414.43,221.17L414.57,246.73L414.72,232.38L414.87,255.51L415.01,244.98L415.16,262.52L415.74,262.91L415.88,244.49L416.03,261.39L416.46,242.88L416.75,244.04L416.9,252.12L417.48,258.2L417.62,229.26L417.77,251.52L418.21,224.98L418.5,228.07L418.64,234.27L419.22,235.31L419.37,224L419.51,234.94L419.66,224.08L419.8,236.68L420.24,225.61L420.38,232.95L420.82,223.43L421.11,224.13L421.25,229.55L421.54,224.51L421.69,239.53L421.84,239.3L421.98,229.33L422.27,223.72L422.42,247.77L422.71,238.97L422.85,225.09L424.01,202.19L424.16,208.18L425.03,180.21L425.18,189.58L425.61,216.1L425.9,214.51L426.05,189.71L426.19,212.77L426.34,166.07L426.77,209.35L426.92,192.72L427.64,234.98L427.79,224.43L427.93,220.46L428.08,222.13L428.37,220.46L428.51,236.08L428.66,224.36L428.95,241.75L429.1,257.11L429.68,272.02L429.82,238.01L429.97,276.07L430.4,231.19L430.84,236.73L430.98,233.41L431.13,235.69L431.27,230.3L431.71,233.4L431.85,229.88L432,233.21" style="vector-effect: non-scaling-stroke; fill: none; stroke: rgb(0, 191, 255); stroke-opacity: 1; stroke-width: 2px; opacity: 1;"/></g><g class="points"/><g class="text"/></g><g class="trace scatter traceaee621" style="stroke-miterlimit: 2; opacity: 0.5;"><g class="fills"/><g class="errorbars"/><g class="lines"><path class="js-line" d="M0,220.72L3.49,220.06L3.63,217.73L4.36,183.23L4.5,163.91L6.53,16.26L6.68,16.36L8.86,17.22L9,20.58L9.44,109.56L9.58,56.85L11.62,220.73L11.76,220.73L17.43,220.47L17.57,219.86L18.15,195.42L18.3,181.37L20.47,16.36L20.62,16.48L20.77,16.48L21.49,17.13L21.64,20.22L21.93,16.64L22.51,16.7L22.65,16.76L22.94,23.95L23.09,33.17L25.85,220.73L25.99,220.73L31.37,220.43L31.51,219.48L32.38,173.4L32.53,156.28L32.67,159.44L32.82,139.98L32.96,138.41L33.11,112.13L34.41,39.47L34.56,33.33L34.85,33.14L35.14,39.23L35.29,16.43L36.45,17.05L36.59,19.98L37.17,46.65L37.32,54.96L39.93,220.73L40.08,220.73L45.31,220.45L45.45,219.14L46.18,181.46L46.32,152.41L46.9,121.85L47.05,138.97L47.19,153.82L47.48,156.14L47.63,150.78L47.77,151.42L47.92,159.75L48.06,136.28L48.21,123.83L48.35,143.94L48.65,119.76L48.79,96.01L49.23,16.41L49.81,20.09L49.95,51.04L50.39,133.11L50.68,85.5L50.82,87.54L51.69,157.29L51.84,173.5L53.44,220.73L53.58,220.73L59.39,220.29L59.54,219.72L60.26,220.46L60.41,214.22L61.57,53L61.71,41.87L62.44,16.44L62.88,16.59L63.02,16.64L64.33,16.76L64.47,16.76L64.62,17.41L64.76,23.3L66.22,147.51L66.36,162.76L67.67,220.73L67.81,220.73L73.19,220.41L73.33,219.74L73.91,197.61L74.06,182.66L76.09,16.07L76.38,16.13L76.53,16.18L78.56,16.91L78.7,19.37L80.01,130.24L80.16,145.2L81.46,220.73L81.61,220.73L87.27,220.1L87.42,217.94L87.85,197.16L88,181.93L90.18,18.71L90.32,16.39L90.61,16.75L90.76,17.81L91.05,19.34L91.19,16.78L91.34,17.55L91.48,18.96L91.63,16.71L92.06,16.79L92.21,19.91L92.64,17.89L93.95,191.59L94.53,189.42L94.68,200.56L95.55,220.73L95.69,220.73L101.07,220.41L101.21,219.58L101.94,188.58L102.08,171.69L104.26,16.48L104.41,16.5L104.55,16.51L106.29,17.23L106.44,20.83L107.46,76.55L107.6,143.02L108.62,208.91L108.76,210.81L109.78,220.72L109.92,220.71L115.15,220.05L115.3,218.63L116.31,166.88L116.46,147.66L117.47,85.96L117.62,51.34L117.77,56.51L117.91,220.46L119.65,220.46L119.8,197.75L119.94,16.69L120.67,30.06L120.81,41.21L123.14,220.72L123.28,220.72L128.95,220.51L129.09,219.9L129.67,200.17L129.82,186.65L132,16.33L132.29,16.51L132.43,16.55L134.17,17.15L134.32,19.67L136.06,167.09L136.21,180.94L137.22,220.73L137.37,220.73L143.03,220.05L143.18,217.87L144.05,156.29L144.19,142.56L145.94,16.43L146.23,16.49L146.37,16.52L148.11,16.91L148.26,17.96L149.57,120.34L149.71,136.03L151.16,220.72L151.31,220.72L156.83,220.13L156.97,215.79L158.13,141.44L158.28,127.19L160.02,16.91L160.17,20.85L160.31,18.16L160.46,16.57L161.18,16.85L161.33,16.82L162.05,17.44L162.2,21.24L163.65,140.97L163.8,156.05L165.1,220.73L165.25,220.73L170.77,220.56L170.91,219.85L171.64,189.13L171.78,176.08L173.96,16.33L174.25,16.54L174.4,16.62L175.7,16.96L175.85,20.46L179.04,220.73L179.19,220.74L184.85,220.04L185,216.93L185.72,197.6L185.87,183.85L187.03,55.1L187.18,45.66L187.9,16.05L188.34,16.39L188.48,16.43L189.93,16.76L190.08,18.4L191.39,123.59L191.53,139.33L192.98,220.73L193.13,220.74L198.79,220.02L198.94,217.3L199.52,185.48L199.66,164.93L201.84,16.47L201.99,16.54L202.13,16.58L203.87,17.18L204.02,20.9L205.47,142.41L205.62,158.12L206.92,220.73L207.07,220.73L212.59,220.6L212.73,219.93L213.46,189.89L213.6,176.71L215.78,16.63L216.07,16.67L216.22,18.51L217.23,118.77L217.38,66.3L217.52,17.81L217.82,33.72L217.96,88.53L218.11,83.64L218.25,48.9L218.4,50.73L218.54,62.96L220.86,220.73L221.01,220.73L226.53,220.57L226.67,219.89L227.4,190.37L227.54,177.07L230.01,16.53L230.16,16.58L230.59,17.05L230.74,19.43L230.88,19.99L231.03,44.25L231.17,16.68L231.76,18.89L231.9,25.63L233.06,118L233.21,133.07L234.66,220.73L234.8,220.73L240.61,220.05L240.76,217.5L241.48,177.42L241.63,164.07L242.79,51.24L242.94,54.79L243.08,121.92L243.23,130.99L243.37,27.32L243.52,110.38L243.95,22.1L244.1,52.7L244.24,78.18L244.53,16.53L244.97,54.69L245.11,57.26L245.26,63.72L245.41,24.33L245.7,16.9L245.99,26.17L246.13,35.95L248.74,220.73L248.89,220.73L254.41,220.6L254.55,219.95L255.13,202.01L255.28,191.26L257.17,35.82L257.31,43.05L257.46,70.34L257.89,42.03L258.04,19.38L258.33,56.61L258.47,18.02L258.76,53.45L258.91,17.24L259.35,16.81L259.49,17.46L259.64,22.91L260.94,121.48L261.09,136.76L262.54,220.73L262.69,220.73L268.49,220.05L268.64,217.19L269.36,180.07L269.51,167.47L271.83,16.07L271.98,16.16L273.43,16.6L273.58,17.31L274.3,64.65L274.45,89.63L275.75,204.22L275.9,213.29L276.77,220.74L276.92,220.73L282.43,219.97L282.58,216.29L283.45,166.14L283.6,153.13L285.63,16.04L285.77,16L287.08,16.39L287.23,16.32L287.37,16.66L287.52,20.24L288.82,121.2L288.97,136.52L290.42,220.74L290.57,220.74L296.37,220L296.52,216.58L297.39,168.2L297.54,155.28L299.42,22.6L299.57,23.9L299.71,16.34L300.44,16.56L300.58,16.57L301.17,16.78L301.31,18.43L302.62,110.35L302.76,125.47L304.36,220.73L304.51,220.73L310.31,220.15L310.46,218.25L311.19,182.19L311.33,169.43L313.51,16.55L313.65,16.79L313.8,16.65L315.11,16.9L315.25,18.46L316.27,86.21L316.41,99.65L318.3,220.73L318.45,220.73L324.25,220.3L324.4,219.14L325.56,149.35L325.71,127.89L325.85,144.12L326,94.74L326.29,117.2L326.43,101.85L326.58,105.01L326.72,94.44L326.87,43.77L327.3,16.28L327.88,16.58L328.03,16.65L328.47,16.82L328.61,18.78L329.05,17.38L329.48,36.17L329.63,45.18L332.39,220.74L332.53,220.73L338.19,220.35L338.34,219.55L338.92,194.68L339.07,182.14L341.53,16.49L341.68,16.52L341.82,16.75L342.99,17.02L343.13,19.63L344.29,98.6L344.44,112.84L346.18,220.72L346.33,220.72L352.13,220.13L352.28,217.67L353.15,170.68L353.3,157.19L355.47,16.66L355.62,16.67L356.93,17.08L357.07,19.58L358.23,98.41L358.38,112.35L360.12,220.73L360.27,220.72L366.07,220.38L366.22,219.5L366.95,183.66L367.09,170.17L369.41,16.2L369.56,16.28L370.87,16.68L371.01,17.75L372.03,84.54L372.17,98.12L374.06,220.73L374.21,220.73L380.01,220.54L380.16,219.95L381.03,186.2L381.18,177.66L383.35,16.15L383.5,16.2L384.66,16.53L384.81,17.4L385.68,63.72L385.82,75.31L388,220.73L388.15,220.73L393.95,220.29L394.1,218.9L394.83,185.03L394.97,172.4L397.29,16.39L397.44,16.41L398.6,16.96L398.75,18.49L399.76,79.79L399.91,92.24L401.94,220.73L402.09,220.73L407.9,220.44L408.04,219.78L408.62,199.68L408.77,186.73L411.23,16.87L411.38,16.78L412.54,17.31L412.69,20.66L413.99,106.38L414.14,120L415.74,220.72L415.88,220.72L421.84,220.44L421.98,219.9L422.56,200.27L422.71,187.39L425.18,18.91L425.32,16.88L425.47,16.67L426.05,17.1L426.19,17.11L426.34,17.26L426.48,19.64L427.5,73.66L427.64,126.21L427.93,110.9L428.22,139.11L428.37,151.17L429.82,220.73L429.97,220.73L432,220.71" style="vector-effect: non-scaling-stroke; fill: none; stroke: rgb(255, 0, 0); stroke-opacity: 1; stroke-width: 2px; opacity: 1;"/></g><g class="points"/><g class="text"/></g><g class="trace scatter trace562912" style="stroke-miterlimit: 2; opacity: 0.5;"><g class="fills"/><g class="errorbars"/><g class="lines"><path class="js-line" d="M0,255.96L0.15,265.01L0.73,260.46L0.87,257.58L1.02,259.56L1.31,257.34L1.45,271.47L2.18,245.47L2.32,253.25L2.47,254.83L2.61,259.73L3.19,254.48L3.34,259.44L3.49,254.17L3.63,255.88L3.78,250.79L3.92,277.9L4.21,304L5.23,212.45L5.37,201.65L5.52,200.55L5.66,208.03L5.81,154.46L6.39,170.49L6.53,169.78L6.68,163.36L6.82,189.94L6.97,162.67L7.41,208.12L7.55,188.57L7.7,216.84L8.13,175.62L8.28,217.94L8.42,183.76L8.57,197.89L9,157.64L9.15,206.27L9.29,192.29L9.44,217.26L9.73,171.83L10.16,203.01L10.31,234.26L10.46,229.01L10.6,255.71L11.47,272.16L11.62,258.5L12.05,275.8L12.2,256.92L12.34,267.15L12.49,256.69L12.63,268.45L13.21,259.2L13.36,262.08L13.65,263.68L14.09,255.82L14.23,264.42L14.96,257.84L15.1,260.64L15.68,261.08L15.83,254.65L15.97,260.54L16.12,255.14L16.7,257.88L16.84,258.19L17.43,252.37L17.57,269.15L17.72,255.87L17.86,261.59L18.15,251.94L18.3,240.78L19.89,166.93L20.04,181.97L20.62,189.13L20.77,148.3L20.91,193.67L21.2,203.16L21.93,118.66L22.07,132.59L22.65,157.91L22.94,149.78L23.09,145.78L23.23,145.28L23.38,151.71L24.83,255.36L24.98,261.56L25.7,278.95L25.99,277.46L26.14,268.79L26.43,264.68L26.57,276.43L26.72,250.95L26.86,268.56L27.44,263.71L27.59,258.55L28.03,263.41L28.17,256.89L28.32,263L28.46,256.23L28.9,255.42L29.04,261.35L29.19,255.07L29.33,262.25L29.77,254.76L29.91,258.06L30.06,258.43L30.35,258.52L30.93,254.34L31.07,256.59L31.22,257.23L31.37,253.99L32.24,273.33L32.38,258.14L32.67,252.3L32.82,227.83L32.96,226.27L33.11,204.31L33.83,181.53L33.98,205.92L34.41,150.46L34.71,176.19L34.85,206.88L35.87,106.78L36.01,110.62L36.16,117.51L37.17,154.45L37.32,140.76L38.77,267.64L38.92,262.38L39.35,299.41L39.64,282.99L39.79,269.09L39.93,276.89L40.51,270.49L40.66,256.63L40.8,266.41L40.95,256.24L41.38,263.65L41.53,257.89L41.97,263.65L42.11,255.49L42.26,259.79L42.4,255.36L42.69,255.17L43.13,261.3L43.27,255.1L43.42,262.13L43.56,254.67L44,257.86L44.14,254.54L45.02,259.61L45.16,256.16L45.31,255.93L45.45,253.16L45.74,250.59L45.89,264.29L46.76,213.49L46.9,227.56L47.19,253L47.63,233.68L47.77,231.21L47.92,249.23L48.06,220.55L48.5,243.29L48.65,235.64L49.23,145.89L49.52,146.44L49.66,181.65L49.81,159.17L50.1,211.95L50.24,227.05L50.68,217.52L50.97,273.3L51.11,272.05L51.26,258.21L51.4,258.58L51.55,258.2L51.69,284.27L51.84,246.88L52.28,292.11L52.42,267.89L52.57,300.85L52.71,254.61L53.29,263.67L53.44,283.51L54.16,258.61L54.31,274.78L55.03,258.19L55.18,271.12L56.05,255.65L56.2,262.94L56.92,263.63L57.07,255.33L57.21,260.48L57.5,255.26L57.65,262.56L57.79,267.46L58.37,251.01L58.81,258.15L58.96,255.44L59.1,271.25L59.54,253.12L59.68,228.3L60.41,253.17L60.55,252.88L60.7,233.52L60.84,261.79L61.28,205.2L61.42,218.41L62.44,153.8L62.59,179.82L62.73,143.5L63.17,188.36L63.31,164.56L63.46,174.03L63.89,161.46L64.04,181.1L64.47,156L64.62,194.32L64.76,156.08L64.91,203.53L65.05,170.29L65.49,209.92L65.63,200.49L65.78,218.71L67.23,272.46L67.38,259.19L67.81,276L67.96,256.92L68.1,266.8L68.25,256.96L68.97,268.6L69.12,256.4L69.56,267.73L69.7,256.32L69.85,263.89L69.99,255.41L70.43,261.49L70.57,254.81L70.72,260.76L70.86,255.92L71.01,258.88L71.3,255.38L71.44,258.3L71.59,254.52L71.88,253.73L72.17,266.37L72.46,265.58L72.61,258.99L73.33,252.74L73.48,262.68L76.09,139.86L76.24,163.65L76.38,146.32L76.82,150.62L76.96,176.92L77.25,177.34L77.69,125L77.83,149.8L77.98,137.78L78.41,143.66L78.99,130.01L79.14,134.71L80.59,259.95L80.74,258.12L81.17,273.48L81.46,272.54L81.61,258.98L81.75,270.39L82.19,256.31L82.33,264.22L82.48,261.17L82.77,261.67L83.06,258.41L83.21,262.71L84.08,254.95L84.22,260.92L85.09,253.98L85.24,255.34L85.53,256.34L85.67,253.97L85.82,258.04L86.25,253.59L86.55,253.82L86.69,256.23L87.13,252.37L87.27,253.37L87.42,267.03L88.87,187.11L89.01,198.24L89.89,162.06L90.03,177.98L90.47,100.95L90.9,119.5L91.05,147.05L92.06,109.44L92.21,112.95L93.22,189.95L93.37,192.88L93.81,264.9L94.24,244.33L94.39,253.21L95.11,275.94L95.26,259.03L95.55,276.79L96.13,275.85L96.27,265.33L96.42,273.47L96.71,257.33L96.86,265.97L97,257.6L97.29,256.66L97.44,265.87L97.73,262.85L97.87,258.77L98.31,262.8L98.45,258.23L98.6,260.16L98.74,261L99.47,255.16L99.61,261.92L99.76,254.72L100.34,256.89L100.49,257.73L100.63,255.66L101.07,255.92L101.21,269.99L101.36,256.4L101.79,277.47L101.94,257.25L102.08,261.14L103.24,164.93L103.39,215.42L104.12,163.16L104.26,176.82L104.55,179.88L104.7,161.71L104.84,187.56L104.99,162.78L105.13,188.91L105.57,176.86L105.71,171.77L105.86,180.2L106,145.67L106.15,116.21L106.44,146.75L106.58,141.26L106.73,163.01L106.87,148.3L107.31,160.07L107.46,183.79L108.18,279.06L108.33,263.34L108.47,279.09L108.62,265.09L109.05,281.1L109.2,269.69L109.34,284.04L109.78,262.56L110.07,263.46L110.21,272.95L110.36,265.74L111.09,266.66L111.23,269.08L111.81,264.21L111.96,269.33L112.1,265.1L112.25,268.91L112.83,270.3L112.97,257.99L113.12,271.78L113.99,251.87L114.14,258.76L114.28,254.68L114.43,260.43L114.72,258.85L114.86,269.06L115.15,269.4L115.44,255.68L115.73,257.57L115.88,255.51L116.02,272.87L116.31,243.06L116.46,230.73L116.6,230.84L116.75,206.29L116.89,211.08L117.04,199.73L117.18,203.74L117.33,198.24L117.91,267.13L118.35,255.39L118.49,251.54L118.64,263.61L118.78,243.06L119.07,251.28L119.22,238.95L119.94,216.94L120.09,180.49L120.96,224.18L121.11,223.43L121.25,225.25L121.4,245.98L122.7,283.28L122.85,262.74L123.14,260.47L123.57,284.32L123.72,260.63L124.15,276.58L124.3,258.11L124.45,274.52L124.59,258.37L124.74,275.11L125.17,257.98L125.32,271.03L125.46,256.86L125.61,268.14L126.19,261.59L126.33,255.71L126.91,254.87L127.06,273.73L127.2,258.81L127.35,273.82L127.78,257.29L127.93,270.24L128.08,257.39L128.22,283.46L128.37,247.83L128.8,255.99L128.95,253.9L129.09,252.87L129.38,254.09L129.53,253.45L129.67,268.19L130.98,188.69L131.12,202.61L131.85,151.24L132,176.16L132.14,149.27L132.58,204.4L132.72,168.67L132.87,219.59L133.59,146.13L133.74,202.64L133.88,173.8L134.03,218.95L134.46,183.88L134.61,222.62L134.75,204.21L135.34,205.07L135.48,219.29L136.93,285.82L137.22,285.69L137.37,265.08L137.51,288.12L137.66,264.19L137.95,267.69L138.09,259.8L138.24,265.41L138.68,264.94L138.82,258.66L139.26,267.17L139.4,255.96L139.55,264.72L139.69,258.49L140.42,262.78L140.56,257.3L140.71,259.39L140.85,256.21L141,258.51L141.14,254.49L141.29,254.94L141.43,254.63L141.58,258.46L141.87,258.98L142.16,254.43L142.31,272.08L142.6,272.46L142.74,248.56L143.03,255.78L143.18,263.25L144.63,206.57L144.77,206.63L144.92,213.31L146.37,163.84L146.52,174.79L146.81,167.34L146.95,179.67L147.1,163.52L147.53,211.31L147.82,209.71L147.97,191.14L148.11,200.28L148.26,187.06L148.4,188.56L148.55,177.85L149.71,247.87L149.86,242.17L150.29,265.64L150.44,273.85L150.87,290.02L151.16,286.81L151.31,279.73L151.45,281.76L151.6,275.92L151.74,270.5L151.89,270.11L152.03,264.2L152.33,262.09L152.47,288.76L152.76,285.5L152.91,261.77L153.05,287.7L153.2,261L153.63,285.45L153.78,248.34L154.5,271.34L154.65,256.97L154.79,267.72L155.37,254.92L155.52,254.51L155.67,258.87L156.25,253.98L156.39,252.75L156.83,267.05L156.97,257.17L157.12,243.94L157.55,252.23L157.7,244.7L157.84,234.92L158.13,240.8L158.28,228.35L158.42,218.38L158.71,210.25L158.86,189.36L159.3,175.08L159.44,183.76L159.59,161.81L160.17,176.23L160.31,169.66L160.46,174.86L160.89,165.04L161.04,167.41L161.33,174.3L161.47,157.99L161.62,177.27L161.76,167.81L161.91,196.59L162.05,179.1L162.2,194.64L162.49,204.95L162.64,194.49L162.78,217.36L162.93,203.87L163.22,227.39L163.36,224.13L163.51,240.34L164.81,301.25L164.96,283.83L165.1,297.07L165.68,283.64L165.83,285.55L166.27,263.68L166.7,271.89L166.85,267.06L166.99,265.63L167.14,269.77L167.28,256.61L167.86,255.82L168.01,264.36L168.15,256.07L168.44,255.88L168.59,263.34L169.02,260.81L169.17,255.4L169.75,268.97L170.04,260.45L170.19,255.3L170.62,260.6L170.77,254.57L170.91,257.85L171.06,256.48L171.64,244.12L171.78,229.91L172.65,181.86L172.8,220.47L173.82,160.22L173.96,172.12L174.25,157.42L174.4,165.63L174.54,176.62L174.69,162.35L174.83,183.12L174.98,162.59L175.12,197.25L175.27,167.89L175.85,175.06L175.99,180.71L176.14,187.48L176.29,162.48L176.43,183.97L176.58,173.39L178.03,255.79L178.17,265.47L178.46,274.31L178.61,261.23L178.75,280.89L179.48,268.73L179.62,277.92L179.92,281.49L180.5,261.12L180.64,265.42L181.08,256.3L181.22,267.26L181.37,256.38L181.51,266.45L181.66,255.84L182.24,255.87L182.38,265.01L182.53,256.46L183.26,257.24L183.4,258.12L183.98,260.76L184.13,254.56L184.27,257.84L184.56,254.18L184.71,278.96L185.43,246.52L185.58,247.8L185.72,260.23L185.87,260.63L186.01,233.01L187.18,144.58L187.32,182.41L187.76,137.1L187.9,209.85L188.05,145.81L188.19,201.39L188.34,146.52L188.92,148.36L189.06,192.66L189.21,141.68L189.64,200.37L189.79,146.07L189.93,213.87L190.08,143.06L190.23,216.42L190.66,186.5L190.81,214.54L190.95,195.07L191.39,216.36L191.53,223.76L191.68,228.07L191.82,257.97L191.97,257.77L192.11,272.59L192.26,266.72L192.4,282.01L192.55,273.99L192.69,282.59L192.98,283.16L193.13,251.63L193.71,257.11L193.86,270.17L194.73,256.53L194.87,262.97L195.02,255.91L195.45,264.96L195.6,258.83L195.74,258.96L196.18,264.09L196.32,255.51L196.47,262.66L196.61,256.69L196.9,256.98L197.05,254.72L197.34,254.61L197.49,260.2L197.63,255.12L197.92,253.76L198.21,266.71L198.36,263.22L198.5,252.32L198.94,269.35L199.08,243.56L199.37,265.26L199.52,257.46L199.81,252.41L199.95,263.45L201.12,184.42L201.26,179.99L201.99,150.1L202.13,183.14L202.28,161.31L202.86,180.57L203,166.49L203.87,188.68L204.02,172.94L204.31,196.66L204.89,189.68L205.04,193.43L206.2,280.39L206.34,263.81L206.78,277.79L207.07,277.78L207.21,261.38L207.51,257.46L207.65,270.48L207.94,265.52L208.09,262.5L208.23,261.63L208.38,266.99L208.52,256.79L209.1,257.11L209.25,264.13L209.39,255.42L209.97,255.51L210.12,260.55L210.41,263.55L210.85,254.94L210.99,260.59L211.43,254.52L211.72,254.84L211.86,260.35L212.01,254.15L212.15,271.1L212.3,257.28L212.44,267.8L212.59,244.65L213.17,265.18L213.31,255.59L214.04,213.29L214.18,215.29L214.33,192.35L214.48,216.84L214.91,188.71L215.06,185.96L215.93,147.83L216.07,207.86L216.22,157.67L216.65,209.82L216.8,192.52L216.94,214.27L217.09,203.89L217.23,259.3L217.67,177.71L217.96,213.43L218.11,231.95L218.4,167.97L218.83,186.87L218.98,213.27L220.14,277.83L220.28,273.71L220.43,275.06L220.57,268.51L220.86,263.11L221.01,277.39L221.15,259.13L221.3,271.26L221.45,257.27L221.88,260.61L222.03,267.39L222.46,256.05L222.75,256.09L222.9,263.23L223.04,255.71L223.48,265.11L223.62,255.88L223.77,263.76L224.06,264.34L224.49,255.07L224.64,261.18L225.08,255.04L225.22,261.36L225.37,255.15L225.51,260.95L226.09,254.82L226.38,255.29L226.53,271.36L226.67,270.29L226.82,270.95L226.96,260L228.13,214.01L228.27,228.63L229.14,180.64L229.29,191.61L229.43,195.5L229.58,187.56L229.72,181.45L229.87,178.72L230.01,183.76L230.16,166.17L230.3,184.56L230.88,181.77L231.03,180.87L231.17,203.79L231.32,154.1L231.46,202.2L231.61,152.98L231.76,194.28L232.05,149.04L232.34,156.88L232.48,157.98L234.22,271.8L234.37,271.78L234.51,267.06L234.66,274.78L234.8,263.57L234.95,273.15L235.1,258.24L235.39,257.12L235.53,268.3L235.82,263.69L235.97,260.04L236.4,257.86L236.55,266.78L236.69,256.05L236.84,264.74L237.42,262.44L237.56,256.51L237.85,255.43L238.29,263.21L238.43,255.07L238.58,260.85L239.16,257.81L239.31,254.63L239.74,259.58L239.89,253.91L240.03,256.83L240.18,266.52L240.32,264.28L240.47,249.76L240.61,255.8L241.19,253.27L241.34,247.23L241.63,261.15L241.77,252.1L241.92,245.39L242.94,179.88L243.08,217.09L243.52,179.09L243.66,254.65L243.81,156.55L244.39,188.31L244.53,199.08L244.68,165.99L245.11,225.33L245.26,207.79L245.41,208.42L245.55,173.14L245.7,188.95L245.84,165.94L246.28,180.68L246.42,154.48L246.57,157.85L246.71,180.18L247.29,224.17L247.44,237.09L248.45,277.16L248.6,258.35L248.74,273.05L249.33,263.54L249.47,256.15L249.62,263.46L250.05,255.44L250.2,262.16L250.34,255.74L250.49,264.51L250.92,255.28L251.07,263.3L251.21,255.45L251.36,263.1L251.79,254.94L251.94,259.83L252.08,255.01L252.38,254.75L252.52,259.33L252.96,259.17L253.1,254.03L253.25,257.67L253.39,253.93L253.83,255.4L253.97,253.82L254.26,267.13L254.41,295.67L255.57,231.04L255.71,230.76L255.86,241.32L256.15,220.95L256.3,217.26L257.17,168.2L257.46,175.86L257.6,202.12L258.62,160.14L258.76,182.77L258.91,180.19L259.05,143.68L259.2,190.64L259.64,121.14L259.78,143.49L259.93,146.17L260.22,165.01L260.36,159.28L260.51,181.74L261.09,215.89L261.23,244.45L261.38,246.04L261.52,255.51L262.25,278.75L262.39,261L262.54,292.32L263.12,277.85L263.27,273.69L263.56,276.84L264.14,264.19L264.28,270.28L264.72,259.38L264.86,270.61L265.59,255.02L265.73,259.51L265.88,255.2L266.02,261.25L266.46,254.58L266.61,257.74L266.75,254.43L267.62,269.48L267.77,245.06L268.2,257.4L268.64,252.01L268.78,252.79L268.93,252L269.07,264.69L269.51,264.75L270.96,140.5L271.11,186.64L271.25,143.42L271.69,187.44L271.83,147.02L271.98,193.27L272.27,199.5L272.7,126.37L272.85,195.89L273.14,99.86L273.72,114.33L273.87,143.43L274.3,168.23L274.45,203.85L275.9,264.8L276.04,261.81L276.48,271.58L276.63,257.78L276.77,270.39L276.92,257.14L277.06,268.3L277.21,255.65L277.64,261.38L277.79,261.53L278.51,255.32L278.66,260.86L279.09,255.01L279.24,255.28L279.38,260.92L279.82,254.02L280.26,254.07L280.4,256.74L280.55,257.64L280.69,254.33L280.98,256.74L281.13,266.13L281.56,248.38L282.14,253.88L282.29,253.54L282.43,253.84L282.58,264.63L282.72,267.01L283.01,262.92L283.16,241.79L284.18,183.5L284.32,191.11L285.48,96.93L285.63,106.16L285.77,110.15L286.06,116.05L286.35,104.63L286.5,89.8L286.64,87.84L286.79,94.38L286.94,90.94L287.08,92.73L287.23,90.18L287.37,98.53L287.52,108.49L288.53,199.71L288.68,194.55L288.82,215.37L289.98,289.82L290.13,262.14L290.27,284.07L290.86,280.08L291,264.17L291.15,270.63L291.44,255.33L291.58,264.23L291.73,256.83L292.31,262.07L292.45,255.11L292.6,261.17L293.18,255.16L293.32,258.12L293.76,260.18L294.2,254.45L294.34,254.46L294.49,255.76L294.63,252.44L294.92,254.49L295.07,264.76L295.5,275.93L295.65,250.59L295.79,269.78L295.94,243.67L296.37,267.72L296.52,255.25L296.95,268.82L297.25,259.39L297.39,246.04L298.41,189.73L298.55,203.4L298.84,203.53L299.28,141.77L299.42,179.18L300,183.68L300.15,128.19L300.29,190.43L300.58,197.73L300.88,102.85L301.17,105.2L301.31,106.39L303.78,281.35L303.92,262.15L304.36,273.24L304.51,257.79L304.65,271.86L304.8,257.23L305.38,256.04L305.52,263.69L305.67,255.65L305.81,264.72L306.39,255.58L306.54,254.99L306.68,255.41L306.83,260.77L307.26,254.7L307.7,255.02L307.85,259.99L308.43,253.8L308.57,256.77L308.72,255.59L309.15,252.73L309.59,269.25L309.73,245.45L310.75,298.38L310.89,268.48L311.04,272.39L311.19,256.17L312.35,205.02L312.49,202.69L313.36,154.2L313.51,180.5L313.65,150.19L313.8,181.72L314.23,164.81L314.38,193.26L314.67,197.17L315.11,163.06L315.25,174.66L315.4,167.69L316.41,221.41L316.56,244.71L316.7,238.4L316.99,253.65L317.14,246.35L317.28,264.03L317.43,259.02L317.57,278.12L317.72,264.79L317.86,284.18L318.01,266.74L318.59,268.89L318.74,273.42L319.46,262.71L319.61,271.73L320.04,273.15L320.19,258.74L320.33,275.1L320.91,259.85L321.2,260.64L321.35,262.44L321.5,258.03L321.64,271.3L321.79,258.53L321.93,269.83L322.08,245.6L322.66,257.08L322.8,257.07L323.09,260.44L323.24,253.96L323.38,256.41L323.53,258.79L324.25,254.29L324.4,254.46L324.54,252.36L324.83,258.09L324.98,256.62L325.13,236.52L325.27,247.81L325.56,230.95L325.71,236.02L325.85,232.26L326.72,185.06L326.87,211.18L327.01,142.38L327.59,146.57L327.74,171.8L328.47,193.73L328.61,177.85L328.76,207.4L329.19,169.81L329.34,190.64L329.48,171.99L329.63,219.74L330.35,211.2L330.5,231.35L331.51,283.49L331.66,274.79L331.81,276.1L332.1,269.25L332.24,269.55L332.39,273.89L333.26,262.16L333.4,269.34L333.98,270.17L334.13,257.7L334.27,268.96L334.71,256.91L335,257L335.14,262.34L335.29,255.12L335.87,255.38L336.02,260.91L337.03,254.77L337.18,257.83L337.61,259.27L337.76,254.01L337.9,254.54L338.05,259.71L338.19,253.66L338.63,258.31L338.78,261.19L340.37,178.25L340.66,181.92L340.81,188.88L341.53,144.82L341.68,174.18L342.26,154.04L342.41,191.79L342.99,202.87L343.28,133.51L343.42,133.69L345.45,274.85L345.6,273.27L345.75,265.24L346.18,277.47L346.33,259.02L346.47,277L346.62,259.29L346.76,271.35L347.2,257.4L347.34,266.94L347.49,257.17L347.63,269.55L348.21,263.49L348.36,261.8L348.65,258.48L348.79,266.91L349.09,262.84L349.23,261.54L349.81,257.59L349.96,267.92L350.1,259.26L350.39,256.58L350.54,277.23L350.83,271.48L350.97,245.49L351.99,276.13L352.13,252.62L352.28,270.14L352.42,243.76L352.86,266.18L353.01,254.15L353.15,255.55L353.3,240.71L354.17,192.75L354.31,211.3L355.33,152.67L355.47,170.24L356.06,179.78L356.2,156.11L356.35,189.91L357.22,120.15L357.36,132.53L359.54,278.2L359.69,277.39L359.83,277.97L359.98,275.93L360.27,277.19L360.41,271.78L360.56,281.52L360.7,264.94L360.85,281.48L360.99,250.25L361.14,272.38L361.72,264.35L361.86,261.62L362.15,260.11L362.3,266.19L362.44,256.81L362.59,267.23L363.17,261.6L363.32,260.6L363.46,263.01L363.9,258.14L364.04,255.55L364.33,257.45L364.48,253.62L364.62,256.83L364.91,252.39L365.2,256.3L365.35,255.89L365.64,253.68L365.78,268.3L366.51,255.61L366.66,262.35L367.67,192.2L367.82,198.77L368.83,156.15L368.98,178.62L370.14,86.66L370.29,90.72L370.43,106.92L370.58,104.12L370.72,125.03L370.87,120.74L371.01,130.13L371.16,126.59L371.3,135.11L371.45,125.81L371.59,148.17L371.74,128.39L371.88,159.05L373.77,269.45L373.92,257.23L374.35,270.2L374.5,256.94L374.64,261.99L374.79,256L375.22,255.27L375.37,262.69L375.51,256.59L375.66,261.12L376.38,255.63L376.67,257.2L376.82,257.48L377.11,258.15L377.26,254.24L377.4,259.1L377.84,253.9L378.13,254L378.27,256.03L378.56,253.3L379,253.71L379.14,265.97L379.43,267.22L379.87,251.71L380.01,253.07L380.16,254.14L380.31,253.88L380.45,250.32L381.47,200.4L381.61,212.77L381.76,163.84L381.9,207.31L382.34,146.67L382.48,192.36L382.63,142.01L382.77,179.78L383.06,77.15L383.21,84.37L383.94,106.13L384.08,105.17L384.23,95.81L384.52,108.67L384.81,90.97L385.1,107.16L385.24,112.33L387.71,282.01L387.86,262.04L388,269.6L388.44,258.08L388.58,262.39L388.73,255.54L389.02,255.32L389.16,261.85L389.45,258.56L389.6,258.15L389.74,259.2L389.89,255.32L390.03,262.84L390.76,254.54L390.91,258.37L391.2,254.19L391.78,254.38L391.92,256.76L392.07,253.21L392.65,253.58L392.79,256.05L393.23,251.92L393.66,253.07L393.81,253.08L393.95,262.2L394.25,245.68L394.39,232.67L394.54,244.18L394.83,232.59L394.97,219.19L395.26,195.9L395.41,196.55L395.55,181.06L395.99,226.15L396.28,224.83L396.42,187.57L396.57,207.87L396.71,173.61L396.86,174.95L397,159.31L397.15,177.93L397.29,157.82L397.44,116.54L397.59,116.12L397.73,142.43L398.02,140.85L398.31,173.54L398.46,187.28L399.33,155.45L399.47,179.04L399.62,175.11L399.76,193.89L400.93,277.5L401.07,290.25L401.36,303.01L401.8,261.96L401.94,288.51L402.38,258.88L402.81,267.15L402.96,259.77L403.25,257.12L403.39,268.73L403.68,263.15L403.83,263.5L404.41,256.55L404.56,265.78L405.28,255.89L405.43,265.51L405.86,255.46L406.15,256L406.3,265.23L406.44,255.88L407.02,259.39L407.17,270.79L407.9,255.7L408.04,259.58L408.19,254.25L408.33,257.2L408.62,249.93L408.77,256.05L408.91,236.49L409.06,232.71L409.2,209.75L409.35,227.11L409.78,200.91L409.93,188.51L410.36,203.23L410.51,182.82L410.65,182.85L411.09,159.25L411.38,159.9L411.53,174.29L411.96,173.97L412.11,201.21L412.25,171.3L412.98,226.83L413.12,226.33L413.27,239.62L413.41,238.1L413.56,226.19L414.72,281.1L414.87,267.69L415.3,295.98L415.59,291.59L415.74,283.15L416.03,277.12L416.17,293.93L416.46,289.4L416.61,274.42L416.75,286.73L417.19,273.62L417.33,285.44L417.48,257.88L417.91,273.78L418.06,256.94L418.21,268.76L418.35,256.39L418.5,266.74L419.08,265.16L419.22,258.1L419.37,263.77L419.51,255.69L419.95,262.28L420.09,255.64L420.24,264.36L420.67,255.35L420.82,262.48L420.96,255.21L421.69,272.42L421.84,262.02L421.98,268.01L422.13,249.49L422.27,287.28L422.71,256.89L422.85,255.04L424.01,205.3L424.16,201.19L424.3,204.3L424.45,187.91L424.88,186.25L425.18,216.08L425.32,199.13L425.47,215.7L425.61,194.37L426.05,202.66L426.19,171.4L426.48,169.86L427.06,221.64L427.21,221.54L427.79,257.86L428.22,251.5L428.37,244.84L429.53,303.28L429.68,276.75L429.82,302.97L429.97,259.25L430.4,279.12L430.55,259.19L430.69,273.93L431.27,267.14L431.42,262.52L431.56,267.13L432,262.54" style="vector-effect: non-scaling-stroke; fill: none; stroke: rgb(0, 128, 0); stroke-opacity: 1; stroke-width: 2px; opacity: 1;"/></g><g class="points"/><g class="text"/></g></g></g><g class="overplot"/><path class="xlines-above crisp" d="M0,0" style="fill: none;"/><path class="ylines-above crisp" d="M0,0" style="fill: none;"/><g class="overlines-above"/><g class="xaxislayer-above"><g class="xtick"><text text-anchor="middle" x="0" y="433" transform="translate(163.64,0)" style="font-family: 'Open Sans', verdana, arial, sans-serif; font-size: 12px; fill: rgb(42, 63, 95); fill-opacity: 1; white-space: pre; opacity: 1;"><tspan class="line" dy="0em" x="0" y="433">Aug 7</tspan><tspan class="line" dy="1.3em" x="0" y="433">2022</tspan></text></g><g class="xtick"><text text-anchor="middle" x="0" y="433" style="font-family: 'Open Sans', verdana, arial, sans-serif; font-size: 12px; fill: rgb(42, 63, 95); fill-opacity: 1; white-space: pre; opacity: 1;" transform="translate(261.22,0)">Aug 14</text></g><g class="xtick"><text text-anchor="middle" x="0" y="433" style="font-family: 'Open Sans', verdana, arial, sans-serif; font-size: 12px; fill: rgb(42, 63, 95); fill-opacity: 1; white-space: pre; opacity: 1;" transform="translate(358.8,0)">Aug 21</text></g><g class="xtick"><text text-anchor="middle" x="0" y="433" style="font-family: 'Open Sans', verdana, arial, sans-serif; font-size: 12px; fill: rgb(42, 63, 95); fill-opacity: 1; white-space: pre; opacity: 1;" transform="translate(456.38,0)">Aug 28</text></g></g><g class="yaxislayer-above"><g class="ytick"><text text-anchor="end" x="79" y="4.199999999999999" transform="translate(0,406.07)" style="font-family: 'Open Sans', verdana, arial, sans-serif; font-size: 12px; fill: rgb(42, 63, 95); fill-opacity: 1; white-space: pre; opacity: 1;">40</text></g><g class="ytick"><text text-anchor="end" x="79" y="4.199999999999999" style="font-family: 'Open Sans', verdana, arial, sans-serif; font-size: 12px; fill: rgb(42, 63, 95); fill-opacity: 1; white-space: pre; opacity: 1;" transform="translate(0,363.26)">20</text></g><g class="ytick"><text text-anchor="end" x="79" y="4.199999999999999" style="font-family: 'Open Sans', verdana, arial, sans-serif; font-size: 12px; fill: rgb(42, 63, 95); fill-opacity: 1; white-space: pre; opacity: 1;" transform="translate(0,320.46000000000004)">0</text></g><g class="ytick"><text text-anchor="end" x="79" y="4.199999999999999" style="font-family: 'Open Sans', verdana, arial, sans-serif; font-size: 12px; fill: rgb(42, 63, 95); fill-opacity: 1; white-space: pre; opacity: 1;" transform="translate(0,277.65)">20</text></g><g class="ytick"><text text-anchor="end" x="79" y="4.199999999999999" style="font-family: 'Open Sans', verdana, arial, sans-serif; font-size: 12px; fill: rgb(42, 63, 95); fill-opacity: 1; white-space: pre; opacity: 1;" transform="translate(0,234.85)">40</text></g><g class="ytick"><text text-anchor="end" x="79" y="4.199999999999999" style="font-family: 'Open Sans', verdana, arial, sans-serif; font-size: 12px; fill: rgb(42, 63, 95); fill-opacity: 1; white-space: pre; opacity: 1;" transform="translate(0,192.04000000000002)">60</text></g><g class="ytick"><text text-anchor="end" x="79" y="4.199999999999999" style="font-family: 'Open Sans', verdana, arial, sans-serif; font-size: 12px; fill: rgb(42, 63, 95); fill-opacity: 1; white-space: pre; opacity: 1;" transform="translate(0,149.23)">80</text></g><g class="ytick"><text text-anchor="end" x="79" y="4.199999999999999" style="font-family: 'Open Sans', verdana, arial, sans-serif; font-size: 12px; fill: rgb(42, 63, 95); fill-opacity: 1; white-space: pre; opacity: 1;" transform="translate(0,106.43)">100</text></g></g><g class="overaxes-above"/></g></g><g class="polarlayer"/><g class="smithlayer"/><g class="ternarylayer"/><g class="geolayer"/><g class="funnelarealayer"/><g class="pielayer"/><g class="iciclelayer"/><g class="treemaplayer"/><g class="sunburstlayer"/><g class="glimages"/><defs id="topdefs-b980bd"><g class="clips"/><clipPath id="legendb980bd"><rect width="167" height="67" x="0" y="0"/></clipPath></defs><g class="layer-above"><g class="imagelayer"/><g class="shapelayer"/></g><g class="infolayer"><g class="legend" pointer-events="all" transform="translate(520.64,100)"><rect class="bg" shape-rendering="crispEdges" width="167" height="67" x="0" y="0" style="stroke: rgb(68, 68, 68); stroke-opacity: 1; fill: rgb(255, 255, 255); fill-opacity: 1; stroke-width: 0px;"/><g class="scrollbox" transform="" clip-path="url(#legendb980bd)"><g class="groups"><g class="traces" transform="translate(0,14.5)" style="opacity: 1;"><text class="legendtext" text-anchor="start" x="40" y="4.680000000000001" style="font-family: 'Open Sans', verdana, arial, sans-serif; font-size: 12px; fill: rgb(42, 63, 95); fill-opacity: 1; white-space: pre;">BESS</text><g class="layers" style="opacity: 0.5;"><g class="legendfill"/><g class="legendlines"><path class="js-line" d="M5,0h30" style="fill: none; stroke: rgb(0, 191, 255); stroke-opacity: 1; stroke-width: 2px;"/></g><g class="legendsymbols"><g class="legendpoints"/></g></g><rect class="legendtoggle" x="0" y="-9.5" width="161.890625" height="19" style="fill: rgb(0, 0, 0); fill-opacity: 0;"/></g><g class="traces" transform="translate(0,33.5)" style="opacity: 1;"><text class="legendtext" text-anchor="start" x="40" y="4.680000000000001" style="font-family: 'Open Sans', verdana, arial, sans-serif; font-size: 12px; fill: rgb(42, 63, 95); fill-opacity: 1; white-space: pre;">Solar</text><g class="layers" style="opacity: 0.5;"><g class="legendfill"/><g class="legendlines"><path class="js-line" d="M5,0h30" style="fill: none; stroke: rgb(255, 0, 0); stroke-opacity: 1; stroke-width: 2px;"/></g><g class="legendsymbols"><g class="legendpoints"/></g></g><rect class="legendtoggle" x="0" y="-9.5" width="161.890625" height="19" style="fill: rgb(0, 0, 0); fill-opacity: 0;"/></g><g class="traces" transform="translate(0,52.5)" style="opacity: 1;"><text class="legendtext" text-anchor="start" x="40" y="4.680000000000001" style="font-family: 'Open Sans', verdana, arial, sans-serif; font-size: 12px; fill: rgb(42, 63, 95); fill-opacity: 1; white-space: pre;">Grid Meter (Net Load)</text><g class="layers" style="opacity: 0.5;"><g class="legendfill"/><g class="legendlines"><path class="js-line" d="M5,0h30" style="fill: none; stroke: rgb(0, 128, 0); stroke-opacity: 1; stroke-width: 2px;"/></g><g class="legendsymbols"><g class="legendpoints"/></g></g><rect class="legendtoggle" x="0" y="-9.5" width="161.890625" height="19" style="fill: rgb(0, 0, 0); fill-opacity: 0;"/></g></g></g><rect class="scrollbar" rx="20" ry="3" width="0" height="0" x="0" y="0" style="fill: rgb(128, 139, 164); fill-opacity: 1;"/></g><g class="g-gtitle"><text class="gtitle" x="296" y="50" text-anchor="middle" dy="0em" style="font-family: 'Open Sans', verdana, arial, sans-serif; font-size: 17px; fill: rgb(42, 63, 95); opacity: 1; font-weight: normal; white-space: pre;"><tspan class="line" dy="0em" x="296" y="50">Scenario 6</tspan><tspan class="line" dy="1.3em" x="296" y="50">Microgrid Output</tspan><tspan class="line" dy="2.6em" x="296" y="50">From: August 01, 2022 to August 31, 2022</tspan></text></g><g class="g-xtitle"><text class="xtitle" x="296" y="477.409375" text-anchor="middle" style="font-family: 'Open Sans', verdana, arial, sans-serif; font-size: 14px; fill: rgb(42, 63, 95); opacity: 1; font-weight: normal; white-space: pre;">Time</text></g><g class="g-ytitle"><text class="ytitle" transform="rotate(-90,33.60625,260)" x="33.60625" y="260" text-anchor="middle" style="font-family: 'Open Sans', verdana, arial, sans-serif; font-size: 14px; fill: rgb(42, 63, 95); opacity: 1; font-weight: normal; white-space: pre;">Demand (kW)</text></g></g></svg>