<svg class="main-svg" xmlns="http://www.w3.org/2000/svg" xmlns:xlink="http://www.w3.org/1999/xlink" width="700" height="500" style="" viewBox="0 0 700 500"><rect x="0" y="0" width="700" height="500" style="fill: rgb(255, 255, 255); fill-opacity: 1;"/><defs id="defs-58a40f"><g class="clips"><clipPath id="clip58a40fxyplot" class="plotclip"><rect width="437" height="320"/></clipPath><clipPath class="axesclip" id="clip58a40fx"><rect x="80" y="0" width="437" height="500"/></clipPath><clipPath class="axesclip" id="clip58a40fy"><rect x="0" y="100" width="700" height="320"/></clipPath><clipPath class="axesclip" id="clip58a40fxy"><rect x="80" y="100" width="437" height="320"/></clipPath></g><g class="gradients"/><g class="patterns"/></defs><g class="bglayer"/><g class="layer-below"><g class="imagelayer"/><g class="shapelayer"/></g><g class="cartesianlayer"><g class="subplot xy"><g class="layer-subplot"><g class="shapelayer"/><g class="imagelayer"/></g><g class="minor-gridlayer"><g class="x"/><g class="y"/></g><g class="gridlayer"><g class="x"><path class="xgrid crisp" transform="translate(164.61,0)" d="M0,100v320" style="stroke: rgb(255, 255, 255); stroke-opacity: 1; stroke-width: 1px;"/><path class="xgrid crisp" transform="translate(263.32,0)" d="M0,100v320" style="stroke: rgb(255, 255, 255); stroke-opacity: 1; stroke-width: 1px;"/><path class="xgrid crisp" transform="translate(362.03,0)" d="M0,100v320" style="stroke: rgb(255, 255, 255); stroke-opacity: 1; stroke-width: 1px;"/><path class="xgrid crisp" transform="translate(460.74,0)" d="M0,100v320" style="stroke: rgb(255, 255, 255); stroke-opacity: 1; stroke-width: 1px;"/></g><g class="y"><path class="ygrid crisp" transform="translate(0,344.03)" d="M80,0h437" style="stroke: rgb(255, 255, 255); stroke-opacity: 1; stroke-width: 1px;"/><path class="ygrid crisp" transform="translate(0,187.34)" d="M80,0h437" style="stroke: rgb(255, 255, 255); stroke-opacity: 1; stroke-width: 1px;"/><path class="ygrid crisp" transform="translate(0,108.99)" d="M80,0h437" style="stroke: rgb(255, 255, 255); stroke-opacity: 1; stroke-width: 1px;"/></g></g><g class="zerolinelayer"><path class="yzl zl crisp" transform="translate(0,265.68)" d="M80,0h437" style="stroke: rgb(255, 255, 255); stroke-opacity: 1; stroke-width: 2px;"/></g><path class="xlines-below"/><path class="ylines-below"/><g class="overlines-below"/><g class="xaxislayer-below"/><g class="yaxislayer-below"/><g class="overaxes-below"/><g class="plot" transform="translate(80,100)" clip-path="url(#clip58a40fxyplot)"><g class="scatterlayer mlayer"><g class="trace scatter tracedc0c91" style="stroke-miterlimit: 2; opacity: 0.5;"><g class="fills"/><g class="errorbars"/><g class="lines"><path class="js-line" d="M0,165.68L437,165.68" style="vector-effect: non-scaling-stroke; fill: none; stroke: rgb(0, 191, 255); stroke-opacity: 1; stroke-width: 2px; opacity: 1;"/></g><g class="points"/><g class="text"/></g><g class="trace scatter trace939547" style="stroke-miterlimit: 2; opacity: 0.5;"><g class="fills"/><g class="errorbars"/><g class="lines"><path class="js-line" d="M0,165.87L3.53,165.39L3.67,163.69L4.41,138.43L4.55,124.29L6.61,16.19L6.76,16.27L8.96,16.89L9.11,19.36L9.55,84.5L9.69,45.91L11.75,165.88L11.9,165.88L17.77,165.24L17.92,163.03L18.66,127.27L18.8,117.22L20.71,16.27L20.86,16.35L21.01,16.35L21.74,16.83L21.89,19.09L22.18,16.47L22.77,16.51L22.91,16.56L23.21,21.82L23.36,28.57L26.15,165.88L26.29,165.88L31.73,165.66L31.88,164.96L32.76,131.23L32.9,118.7L33.05,121.01L33.2,106.76L33.34,105.62L33.49,86.38L34.81,33.18L34.96,28.69L35.25,28.55L35.55,33.01L35.69,16.31L36.87,16.77L37.02,18.92L37.6,38.44L37.75,44.52L40.39,165.88L40.54,165.88L45.83,165.68L45.98,164.72L46.86,115.87L47.01,106.99L47.15,110.86L47.3,101.84L47.45,93.49L48.47,121.24L48.62,104.06L48.91,109.66L49.8,16.3L50.38,18.99L50.53,41.65L50.97,101.73L51.26,66.88L51.41,68.37L52.29,119.44L52.44,131.3L54.06,165.88L54.2,165.88L60.96,165.68L61.11,161.11L62.28,43.09L62.43,34.94L63.16,16.32L63.6,16.43L63.75,16.47L65.22,16.55L65.37,17.03L66.39,69.96L66.54,79.71L68.45,165.88L68.6,165.88L74.18,165.16L74.33,162.7L74.91,138.01L75.06,127.65L76.97,16.05L77.26,16.09L77.41,16.13L79.47,16.67L79.61,18.47L80.94,99.64L81.08,110.59L82.55,165.88L82.7,165.88L88.28,165.42L88.43,163.84L88.87,148.63L89.02,137.48L91.22,17.98L91.37,16.28L91.81,17.32L91.95,16.78L92.1,18.45L92.69,16.52L92.83,16.6L92.98,17L93.13,16.58L93.28,18.86L93.72,17.39L95.04,144.55L95.48,133.94L95.63,142.96L96.65,165.88L96.8,165.88L102.24,165.64L102.38,165.04L103.12,142.35L103.26,129.98L105.47,16.35L105.61,16.36L105.76,16.37L107.52,16.9L107.67,19.54L108.7,60.33L108.85,108.99L109.87,157.23L110.02,158.62L111.05,165.87L111.2,165.87L116.48,165.39L116.63,164.35L117.51,133.27L117.66,126.46L118.98,41.87L119.13,45.65L119.28,165.68L121.04,165.68L121.18,149.06L121.33,16.5L121.92,20.36L122.07,26.29L124.56,165.87L124.71,165.88L130.59,165.27L130.73,163.15L131.32,140.93L131.47,131.06L133.52,16.24L133.67,16.31L133.82,16.37L135.73,16.84L135.87,18.69L137.49,116.04L137.64,126.61L138.81,165.88L138.96,165.88L144.69,165.38L144.83,163.79L145.72,118.71L145.86,108.66L147.63,16.31L147.92,16.36L148.07,16.38L149.98,17.43L150.12,22.6L151.59,115.34L151.74,126.3L153.06,165.88L153.21,165.88L158.64,165.44L158.79,162.26L159.96,107.83L160.11,97.4L161.87,16.67L162.02,19.55L162.17,17.58L162.31,16.41L162.9,16.6L163.05,16.63L163.93,17.05L164.08,19.83L165.69,118.53L165.84,129.04L167.16,165.88L167.31,165.88L172.89,165.24L173.04,162.83L173.77,133.19L173.92,123.36L175.98,16.24L176.12,16.27L176.27,16.4L177.74,16.7L177.88,19.26L181.26,165.89L181.41,165.89L186.99,165.38L187.14,163.1L187.87,148.95L188.02,138.88L189.34,37.72L189.49,31.3L190.08,16.04L190.52,16.28L190.66,16.32L192.13,16.56L192.28,17.76L193.6,94.77L193.75,106.29L195.22,165.89L195.36,165.89L201.09,165.36L201.24,163.37L201.83,140.07L201.97,125.03L204.18,16.34L204.33,16.39L204.47,16.42L206.23,16.87L206.38,19.59L207.85,108.55L208,120.05L209.32,165.88L209.47,165.88L215.19,165.3L215.34,162.74L215.93,143.3L216.08,133.66L218.28,16.46L218.43,16.47L218.57,16.49L218.72,17.84L218.87,29.41L219.01,33.72L219.16,18.89L219.31,31.3L219.45,20.6L219.75,91.24L220.04,17.33L220.19,23.82L220.34,28.97L220.48,69.1L221.07,50.38L221.22,60.33L223.42,165.88L223.57,165.88L229.3,165.27L229.44,163.02L230.03,143.66L230.18,133.92L232.53,16.42L232.67,16.39L233.26,16.77L233.41,18.51L233.56,18.92L233.7,36.68L233.85,16.5L234.44,18.11L234.58,23.05L235.76,90.68L235.91,101.71L237.38,165.88L237.52,165.88L243.4,165.39L243.54,163.52L244.28,134.18L244.43,124.4L245.6,41.8L245.75,44.4L245.9,93.54L246.04,100.19L246.19,24.29L246.34,85.09L246.78,20.46L246.92,42.86L247.07,61.52L247.36,16.39L247.8,44.33L247.95,46.2L248.1,50.93L248.25,22.1L248.54,16.66L248.83,23.44L248.98,30.61L251.48,165.88L251.62,165.88L257.5,165.31L257.65,163.42L258.38,135.46L258.53,125.72L260.14,30.51L260.29,35.8L260.44,55.78L260.88,35.06L261.02,18.47L261.32,45.73L261.47,17.48L261.76,43.42L261.91,16.91L262.35,16.59L262.49,17.07L262.64,21.06L263.82,82.46L263.96,93.22L265.58,165.88L265.73,165.88L271.6,165.38L271.75,163.29L272.48,136.11L272.63,126.89L274.98,16.05L275.13,16.12L276.74,16.96L276.89,21L279.83,165.89L279.97,165.89L285.7,165.32L285.85,162.63L286.73,125.92L286.88,116.39L288.93,16.03L289.08,16L290.7,16.48L290.84,19.1L292.02,82.31L292.17,93.02L293.78,165.89L293.93,165.89L299.8,165.35L299.95,162.84L300.83,127.42L300.98,117.97L302.89,20.83L303.04,21.78L303.18,16.25L304.65,16.57L304.8,17.78L306.12,85.07L306.27,96.14L307.88,165.88L308.03,165.88L313.91,165.46L314.05,164.07L314.79,137.67L314.93,128.33L317.14,16.4L317.28,16.58L317.43,16.48L318.75,16.66L318.9,17.8L319.93,67.4L320.07,77.24L321.98,165.88L322.13,165.88L328.01,165.57L328.15,164.72L329.33,113.62L329.48,97.91L329.62,109.8L329.77,73.65L330.06,90.08L330.21,78.85L330.36,81.16L330.5,73.42L330.65,36.33L331.09,16.21L331.68,16.43L331.83,16.47L332.27,16.6L332.41,18.03L332.85,17.01L333.3,30.77L333.44,37.36L336.23,165.89L336.38,165.88L342.11,165.61L342.26,165.02L342.84,146.81L342.99,137.63L345.49,16.36L345.63,16.38L345.78,16.55L346.96,16.75L347.1,18.66L348.28,76.47L348.42,86.9L350.19,165.88L350.33,165.88L356.21,165.44L356.36,163.64L357.24,129.24L357.39,119.36L359.44,16.51L359.59,16.48L361.06,16.79L361.2,18.62L362.38,76.33L362.53,86.53L364.14,165.88L364.29,165.88L370.31,165.62L370.46,164.98L371.19,138.74L371.34,128.87L373.69,16.14L373.84,16.21L375.16,16.5L375.31,17.28L376.48,76.12L376.63,86.14L378.24,165.88L378.39,165.88L384.56,165.31L384.71,162.89L385.74,125.98L385.88,111.05L386.91,38.43L387.06,32.86L388.09,16.11L388.23,16.15L388.38,16.16L389.26,17.03L389.41,20.26L390.58,78.17L390.73,88.53L392.49,165.88L392.64,165.88L398.51,165.56L398.66,164.54L399.4,139.75L399.54,130.5L401.89,16.29L402.04,16.3L403.22,16.7L403.36,17.82L404.39,62.7L404.54,71.82L406.59,165.88L406.74,165.88L412.76,165.18L412.91,162.97L413.5,140.99L413.64,131.53L415.99,16.64L416.14,16.57L417.32,16.96L417.46,19.41L418.64,72.16L418.79,82.17L420.55,165.88L420.7,165.87L426.86,165.28L427.01,163.36L427.6,141.47L427.75,132.12L430.1,18.13L430.24,16.64L431.12,16.81L431.27,16.92L431.86,31.47L432.01,36.41L434.5,165.88L434.65,165.88L437,165.87" style="vector-effect: non-scaling-stroke; fill: none; stroke: rgb(255, 0, 0); stroke-opacity: 1; stroke-width: 2px; opacity: 1;"/></g><g class="points"/><g class="text"/></g><g class="trace scatter trace7875ca" style="stroke-miterlimit: 2; opacity: 0.5;"><g class="fills"/><g class="errorbars"/><g class="lines"><path class="js-line" d="M0,200.94L0.15,201.79L0.29,198.57L0.44,199.61L0.59,198.7L0.73,198.62L0.88,197.65L1.03,199.8L1.32,197.5L1.47,195.1L1.76,193.72L2.2,200.25L2.35,194.32L2.64,198.31L2.79,194.52L2.94,259.03L3.08,270.8L3.23,211.97L3.82,188.87L4.11,192.88L4.26,192.22L4.99,124.04L5.14,195.16L5.29,204.47L5.43,183.69L5.58,201.59L5.73,181.53L6.61,86.67L6.76,94.5L6.9,79.87L7.05,90.76L7.2,137.89L7.34,160.95L7.64,90.09L7.79,106.88L7.93,107.25L8.08,103.34L8.96,91.59L9.11,95.2L9.25,95.26L10.28,152.91L10.43,175.79L10.58,171.94L10.72,196.7L11.46,220.14L11.75,213.89L11.9,208.53L12.05,211.37L12.34,204.75L12.49,202.93L13.07,206.21L13.22,199.08L13.51,198.61L13.66,206.06L13.95,204.57L14.1,199.86L14.25,199.95L14.4,201.99L15.28,198.39L15.42,200.28L16.3,196.11L16.45,200.28L17.33,194.17L17.48,196.63L18.07,187.8L18.21,256.02L19.24,142.32L19.39,134.56L19.54,122.55L19.68,175.65L19.83,188.46L20.27,171.16L20.42,103.95L21.15,77.93L21.3,84.14L21.45,77.45L22.03,89.92L22.18,79.87L22.33,152.75L22.91,175.68L23.06,164.7L23.21,107.04L23.36,97.47L23.5,162.04L23.94,200.75L24.09,142.05L24.24,143.56L25.12,195.63L25.27,203.42L25.71,213.67L26.15,208.92L26.29,209.35L26.59,201.28L27.32,201.71L27.47,202.97L28.06,200.27L28.35,200.34L28.5,200.49L28.94,202.19L29.08,196.67L29.38,197.6L29.53,198.16L29.67,261.11L30.11,194.24L30.26,198.21L30.41,195.02L30.7,196.46L30.85,193.78L31.29,192.62L31.43,198.02L31.58,193.94L31.73,193.97L31.88,194.33L32.02,190.63L32.61,177.69L32.76,168.39L33.05,239.96L33.34,147.37L33.49,131.5L34.08,86.06L34.23,167.38L34.37,172.05L34.52,124.84L34.81,87.63L34.96,141.78L35.11,176.54L35.69,71.75L35.99,75.99L36.14,81.31L36.28,82.46L36.43,76.25L37.31,99.59L37.46,106.19L38.19,132.78L38.34,206.45L38.63,236.76L38.78,186.38L38.93,173.4L39.81,213.76L39.95,210.23L40.1,213.12L40.98,202.9L41.13,204.33L42.16,200.25L42.3,201.86L42.6,203.39L43.04,196.36L43.19,200.44L44.07,195.64L44.21,196.6L44.36,198.57L44.51,194.84L44.8,195.28L44.95,194.25L45.1,198.85L45.24,192.66L45.68,194.06L45.83,198.04L47.15,156.18L47.3,218.42L47.59,182.82L47.89,253.41L48.03,196.84L48.33,173.55L48.47,187.58L48.62,228.64L48.91,252.29L49.21,232.58L49.36,146.69L49.65,81.7L50.38,82.99L50.53,126.28L50.97,258.81L51.12,246.37L51.26,162.72L51.41,145.63L51.56,185.59L51.85,177.38L52,172.47L53.32,214.71L53.47,214.06L53.62,219.73L53.76,216.07L53.91,282.22L54.2,298.37L54.35,232.9L54.64,208.3L55.23,208.47L55.38,211.38L56.26,196.94L56.7,198.89L56.85,201.41L57.14,203.43L57.29,195.1L57.73,197.09L57.87,200.32L58.02,192.79L58.61,194.39L58.76,198.03L58.9,258.45L59.34,193.99L59.49,195.29L59.64,195.98L59.93,196.09L60.08,194.63L60.23,194.99L60.37,165.68L60.67,165.68L60.81,228.36L60.96,244.03L61.11,182.74L61.25,175.86L61.4,163.96L61.55,188.23L61.69,205.88L61.84,200.69L61.99,142.27L62.58,89.46L62.87,91.28L63.02,91.68L63.16,89.55L63.31,141.58L63.6,162.74L63.75,96.34L64.49,73.14L64.63,82.1L64.93,162.28L65.37,79.91L65.51,93.9L65.66,95.39L65.81,91.77L65.95,171.67L66.25,198.76L66.39,149.07L66.54,137.85L67.86,219.49L68.01,208.57L68.16,216.88L68.74,207.78L68.89,203.46L69.04,209.12L69.19,202.45L69.63,206.48L69.77,204.44L70.07,202.83L70.21,206.19L71.39,196.75L71.54,197.82L72.56,193.66L72.71,195.46L73.3,191.71L73.45,193.96L73.59,192.75L73.89,193.64L74.33,188.09L74.47,249.52L74.62,266.79L74.77,195.04L75.65,122.68L75.8,179.79L75.94,183.73L76.09,176.98L76.24,166.72L76.82,61.91L77.12,70.56L77.26,62.32L78.15,81.64L78.29,69.71L78.44,85.83L79.03,79.85L79.17,83.2L79.47,78.22L79.61,90.21L79.76,152.09L80.06,181.26L80.2,125.51L80.35,117.54L82.11,212.68L82.26,212.04L83.43,199.72L83.58,200.56L83.73,201.66L83.87,198.19L84.17,200.12L84.32,197.67L84.61,196.57L84.76,199.89L85.05,198.57L85.2,197.21L85.93,192.86L86.08,196.42L86.22,192.77L86.81,194.45L86.96,256.72L87.84,190.29L87.99,194.95L89.02,172.79L89.16,223.2L89.31,233.11L89.46,157.34L90.63,86.27L90.78,74.62L91.22,71.38L91.81,92.77L91.95,80.49L92.39,163.09L92.54,98.08L92.83,80.2L93.28,86.97L93.42,100.14L93.57,101.84L93.72,85.18L94.6,140.99L94.74,186.7L95.04,200.82L95.19,177.7L95.48,191.59L95.63,192.82L96.07,219.25L96.51,215.7L96.65,212.63L97.39,201.94L97.68,202.61L97.83,202.41L97.98,202.94L98.12,202.38L98.27,201.21L98.56,202.62L98.71,199.56L98.86,201.55L99,200.61L99.3,201.27L99.59,198.66L99.74,201.32L100.18,196.55L100.47,197.31L100.62,199.07L101.8,194.85L101.94,196.51L102.68,188.23L103.12,188.8L103.26,177.59L103.41,167.58L103.56,227.37L104.29,113.05L104.44,115.12L104.59,103.89L104.73,101.78L104.88,110.16L105.03,90.43L105.17,84.08L105.47,98.34L105.61,103.25L106.06,87.35L106.2,88.15L106.35,156.1L106.5,169.94L106.64,114.09L106.79,95.34L107.23,101.77L107.38,89.36L107.52,99.09L107.67,165.38L107.82,174.76L107.96,128.01L108.11,101.58L108.7,127.55L108.85,176.27L109.73,218.23L109.87,216.6L110.02,215.93L110.17,218.1L110.31,222.13L110.46,225.69L110.76,220.49L110.9,217.97L111.34,211.77L111.93,212.74L112.08,211.53L112.22,208.43L112.37,212.01L112.67,209.39L112.81,212.35L112.96,209.15L113.55,211.32L113.69,210.4L113.99,211.13L114.87,198.48L115.02,198.6L115.16,197.36L115.31,199.07L115.46,259.18L115.6,274.87L115.75,212.82L115.9,195.61L116.04,197.02L116.48,194.55L116.63,194.17L116.78,192.2L116.93,255.41L117.07,260.91L117.22,206.36L118.39,139.77L118.54,139.73L118.69,125.25L118.83,192L119.13,131.55L119.28,165.68L119.42,165.68L120.01,165.68L120.16,228.36L120.45,244.03L120.6,181.35L121.33,92.59L121.48,163.98L121.63,186.76L121.77,173.57L121.92,115.58L122.21,103L122.36,119.4L122.51,131.76L123.24,163.41L123.39,195.7L124.27,226.44L124.42,219.43L124.56,218.17L124.71,218.23L124.86,219.41L125,220.56L125.15,210.71L125.3,211.1L125.44,214.41L125.89,209.36L126.33,209.9L126.47,208.81L126.62,210.16L126.77,206.95L126.91,204.02L127.06,205.11L127.21,199.57L127.35,199.7L127.5,201.91L127.79,202.81L128.38,197.17L128.53,198.09L128.82,197.75L128.97,200.13L129.26,196.11L129.41,257.21L130,193.27L130.29,193.44L130.44,197.18L131.47,175.28L131.61,238.16L132.64,118.01L132.79,111.41L132.94,103.58L133.08,158.69L133.23,167.81L133.38,98.62L133.52,80.28L133.96,94.46L134.11,155.57L134.55,185.78L134.99,92.76L135.14,96.89L135.29,97.98L135.43,108.89L135.87,96.8L136.17,99.77L136.31,112.25L137.05,144.81L137.2,155.92L137.78,196.81L137.93,212.16L138.37,304L138.66,224.28L138.81,210.31L139.11,214.32L139.25,203.9L139.4,208.09L139.55,202.68L139.84,207.6L139.99,203.04L140.28,202.96L140.43,204.75L140.57,198.86L140.72,205.53L141.31,200.63L141.46,201.99L142.63,195.22L142.78,199.85L142.92,193.24L143.07,260.72L143.66,194.01L143.95,195.85L144.1,194.57L144.39,205.18L144.83,199.76L144.98,201.84L145.27,205.95L145.42,183.35L145.57,174.5L146.01,154.48L146.16,141.87L146.45,208.54L146.74,125.81L146.89,117.33L147.63,75.7L148.07,79.4L148.21,79.42L148.8,89.42L148.95,157.67L149.24,169.82L149.39,110.78L149.53,91.71L149.83,92.6L149.98,154.1L150.27,182.04L150.42,123.54L150.56,111.76L152.62,223.79L152.77,220.72L152.91,224.26L153.21,216L153.35,218.2L153.5,216.25L153.65,210.27L154.24,211.35L154.38,214.04L154.97,207.82L155.12,209.92L155.26,210.61L156,205.69L156.14,207.61L156.29,206.63L156.59,207.73L157.17,193.27L157.32,196.97L157.47,195.39L157.61,193.71L157.76,195.24L157.91,254.39L158.79,190.19L158.94,182.7L159.38,191.09L159.52,183.97L159.67,176.27L161.29,96.99L161.43,156.25L161.58,166.93L161.73,94.34L161.87,87.01L162.02,147.06L162.17,160.48L162.31,107.27L162.46,86.96L162.61,86.42L162.75,86.7L162.9,81.64L164.22,115.62L164.37,106.96L166.57,226.09L166.72,222.62L166.87,221.82L167.01,225.8L167.9,212.04L168.04,214.27L168.19,214.01L168.34,214.01L168.48,211.4L168.63,214.68L168.78,209.34L168.92,213.15L169.07,204.92L169.22,208.13L169.37,200.39L169.51,205.39L169.66,200.39L170.1,204.82L170.25,199.07L170.39,199.32L170.69,197.46L170.83,202.91L170.98,197.51L171.13,196.71L171.57,201.96L171.72,194.89L171.86,198.66L172.01,196.94L172.3,196.54L172.45,198.23L172.6,196.9L172.74,193.99L172.89,198.51L173.18,192.3L173.33,196.24L173.48,188.62L175.53,87.35L175.68,144.38L176.12,76.63L176.42,85.4L176.56,141.17L177.3,83.24L177.44,92.63L177.59,90.08L178.03,181.24L178.33,94.39L178.47,103.13L178.91,120.6L179.06,128.86L180.68,216.6L180.82,216.66L181.7,203.33L182,205.39L182.14,204.57L182.29,208.05L182.73,201.58L182.88,204.91L183.03,201.36L183.32,202.95L183.76,202.2L183.91,199.7L184.05,204.09L184.64,199.11L184.79,201.31L185.23,197.36L185.38,201.47L185.82,194.31L186.11,196.79L186.26,197.66L186.55,199.2L186.7,192.55L186.99,193.39L187.14,195.57L187.73,187.18L187.87,248.45L188.02,253.13L188.17,230.65L188.9,101.24L189.05,164.63L189.2,171.37L189.34,161.13L189.49,95.99L189.78,67.32L190.37,72.75L190.52,74.89L191.1,85.5L191.25,137.52L191.69,164.72L191.84,94.22L192.28,82.39L192.43,87.54L192.57,101.43L192.72,99.47L192.87,108.57L195.07,216.2L195.22,207.41L195.36,213.92L195.81,205.07L195.95,205.8L196.1,205.45L196.25,202.52L196.54,200.68L196.69,205.89L196.98,202.94L197.13,199.47L197.27,204.38L197.42,198.58L197.71,203.43L197.86,197.37L198.01,204.86L198.6,199.07L198.74,200.17L199.04,200.59L199.48,193.97L199.62,196.16L199.77,197.1L199.92,195.83L200.07,194.21L200.36,191.96L200.51,196.46L200.65,195.06L200.8,193.91L200.95,191.57L201.24,193.39L201.39,252.45L202.27,165.59L202.42,164.63L202.71,148.16L202.86,202.61L203,201.13L203.15,132.17L204.03,82.55L204.18,138.77L204.33,155.44L204.47,100.51L204.62,75.49L204.91,145.83L205.06,167.95L205.35,112.69L205.5,102.76L205.79,107.83L206.38,88.71L206.53,110.32L206.82,117.18L206.97,129.66L207.12,131.07L207.26,143.15L207.85,164.61L208,178.23L209.32,296.49L209.47,231.13L210.2,203.06L210.35,206.28L210.49,202.37L210.64,207.57L210.94,201.97L211.23,204.92L211.38,203.01L211.96,198.73L212.11,204.46L212.26,197.06L212.84,199.54L212.99,199.43L213.73,196.29L213.87,199.35L214.02,193.67L214.61,194.98L214.75,197.43L216.22,167.76L216.37,148.94L216.52,147.76L216.66,139.96L217.4,109.1L217.55,162.2L217.69,167.99L217.84,114.34L217.99,80.8L218.28,163.4L218.43,173.78L218.72,93.99L219.16,106.28L219.31,123.87L219.45,115.88L219.6,153.51L219.75,187.77L220.04,105.92L220.19,114.32L220.34,119.62L220.48,157.45L220.78,125.82L221.22,142.97L221.36,141.09L222.83,297.44L222.98,233.55L224.01,203.89L224.16,208.1L224.3,200.29L224.89,202.58L225.04,205.09L225.18,198.41L225.77,199.89L225.92,200.78L226.06,201.11L226.21,199.79L226.36,199.67L226.8,200.46L226.95,199.3L227.09,199.59L227.24,197.64L227.39,201.89L227.53,197.14L227.68,198.83L227.83,260.26L227.97,275.72L228.12,214.96L228.27,193.51L228.56,275.64L229,196.29L229.15,195.98L230.18,175.03L230.32,166.51L231.79,103.87L231.94,170.04L232.09,179.97L232.23,115.63L232.82,86.87L233.12,94.54L233.26,98.08L233.56,96.67L233.7,118.92L233.85,93.25L234,93.58L234.14,92.68L234.29,83.38L235.03,170.53L235.17,196.03L235.47,133.66L235.91,159.02L236.05,180.02L236.49,201.58L236.64,266.42L236.79,292.53L237.08,213.48L237.23,216.38L238.55,201.96L238.7,204.24L238.84,206.81L238.99,198.98L239.29,202.69L239.43,200.33L239.58,203.29L239.73,199.79L240.02,202.12L240.17,198.96L240.31,203.68L240.75,196.37L240.9,200.42L241.05,199.25L241.34,200.15L241.93,194.66L242.08,199.48L242.81,193.55L242.96,197.43L243.69,189.61L243.84,197.09L243.99,254.08L244.43,175.17L244.57,166.83L245.6,103.99L245.75,106.62L245.9,157.77L246.04,219.89L246.48,106.82L246.63,95.71L246.92,119.38L247.07,202.75L247.51,98.81L247.95,129.81L248.1,129.13L248.69,84.68L248.98,95.02L249.13,110.8L249.42,119.85L249.57,136.2L250.15,168.4L250.3,177.86L250.89,210.83L251.04,268.76L251.18,290.63L251.48,223.84L251.62,210.57L252.51,200.37L252.65,204.93L252.8,198.45L253.39,200.36L253.53,200.18L254.12,198.73L254.27,200.08L254.41,199.77L255,200L255.3,195.48L255.44,198.5L256.32,192.85L256.47,194.58L256.62,194.6L256.77,192L257.06,194.25L257.35,193.58L257.5,191.39L257.65,193.39L257.79,189.49L257.94,191.04L258.09,186.53L258.23,187L258.38,183.22L259.12,143.48L259.26,200.14L259.41,202.16L259.56,193.8L260.14,91.05L260.44,111.75L260.58,110.05L260.88,170.52L261.17,109.9L261.32,105.2L261.76,113.28L261.91,77.7L262.05,88.7L262.2,86.22L262.35,82.86L262.49,99.13L262.64,92.97L262.93,111.3L263.08,114L264.11,162.34L264.26,245.93L264.55,276.61L264.7,218.62L264.84,212.9L265.14,221.08L265.58,218.51L265.73,212.87L265.87,217.64L266.02,210.31L266.17,213.04L266.31,206.48L267.34,214.25L267.49,214.49L268.22,201.17L268.37,202.67L268.52,198.74L268.81,196.54L268.96,200.06L269.25,199.97L269.4,258.98L269.69,194.91L269.99,256.76L270.13,275.79L271.01,192.38L271.16,193.77L271.45,192.58L271.6,195.68L271.75,190.1L271.89,189.35L272.04,192.74L273.36,118.17L273.51,174.57L273.66,173.46L273.8,113.49L274.39,73.44L274.54,130.06L274.69,144.69L274.83,80.07L275.13,65.67L275.71,70.92L275.86,77.69L276.15,74.69L276.3,77.39L276.45,79.29L276.6,79.33L276.74,149.4L277.04,187.64L277.18,119.27L277.33,114.21L277.48,116.16L277.62,142.24L279.53,213.34L279.68,208.07L279.83,209.93L279.97,206.47L280.12,206.89L280.27,204.3L281,197.24L281.15,202.37L282.03,194.99L282.18,203.39L283.06,192.12L283.21,197.94L283.94,191.26L284.09,196.41L284.67,193.05L284.82,193.28L284.97,194.74L285.41,190.71L285.56,253.39L286.29,176.34L286.44,177.11L286.58,165.74L286.73,155.82L286.88,218.07L287.91,88.39L288.05,83.05L288.79,59.31L289.23,60.63L289.37,66.68L290.26,149.21L290.4,150.52L290.84,74.69L291.14,87.98L291.28,97.72L291.43,96.4L291.58,114.62L291.73,113.66L291.87,127.93L292.46,167.08L292.61,188.5L292.75,189.42L292.9,196.54L293.05,197.42L293.19,209.37L293.34,210.36L293.49,207.82L293.63,209.2L293.78,207.53L293.93,207.49L294.08,206.51L294.22,208.24L294.37,199.17L294.52,202.47L294.96,201.16L295.1,198.41L295.54,201.52L295.69,198.07L295.84,197.21L296.13,195.89L296.28,199.78L296.43,197.08L296.57,194.84L296.72,199.27L296.87,192.48L297.16,196.59L297.31,194.52L297.6,191.74L297.89,199.95L298.04,191.12L298.19,190.53L298.34,198.98L298.63,189.76L299.07,191.03L299.22,257.2L300.1,185.43L300.24,193.92L300.39,193.6L300.54,185.76L300.69,190.48L300.83,174.7L300.98,223.56L301.13,233.62L301.27,159L302.01,103.95L302.15,168.31L302.3,176.66L302.45,111.46L302.74,77.54L302.89,78.44L303.04,141.33L303.62,153.13L303.77,92.57L304.06,75.36L304.65,81.3L304.8,82.18L304.95,83.03L305.09,97.9L305.53,106.64L305.68,119.45L306.85,193.04L307,189.88L307.15,211.61L307.3,205.89L307.44,217.31L307.88,209.1L308.03,209.67L308.32,212.19L308.76,199.86L309.21,200.24L309.35,200.72L309.5,201.02L309.65,203.43L309.94,204.2L310.09,194.15L310.53,195.31L310.67,202.57L311.56,191.46L311.7,198.14L312.58,192.47L312.73,193.84L313.17,194.86L313.32,189.24L313.46,192.92L313.61,193.39L313.91,189.55L314.05,192.15L314.2,250.03L315.08,167.68L315.23,172.73L315.52,236.04L315.82,136.68L315.96,134.25L316.84,69.2L317.14,72.98L317.28,74.04L318.31,91.24L318.46,86.14L319.78,130.13L319.93,202.73L320.52,257.16L320.66,194.6L321.1,289.54L321.4,221.19L321.54,223.04L321.84,223.65L322.72,212.41L322.87,215.16L323.45,205.98L323.6,215.28L323.75,208.17L323.89,210.55L324.04,212.27L324.19,205.28L324.33,214.11L324.78,210.41L324.92,202.87L325.36,194.93L325.51,202.96L325.8,194.24L326.24,197.78L326.39,197.74L326.69,197.93L326.98,191.93L327.13,196.99L327.27,196.18L327.71,196.29L328.01,191.69L328.15,194.26L328.3,189.89L328.59,198.57L328.74,258.14L328.89,256.33L329.04,201.38L329.77,138.91L329.92,160.66L330.06,147.89L330.21,147.93L330.36,134.93L330.5,133.54L330.65,90.85L330.94,165.73L331.39,90.8L331.53,78.61L331.83,79.94L331.97,76.54L332.41,153.1L332.56,176L332.85,84.56L333.44,111.07L333.59,111.37L335.35,215.33L335.5,219.86L335.65,224.56L335.94,212.72L336.09,217.61L336.23,217.48L336.97,206.96L337.41,207.01L337.55,205.54L338.14,204.53L338.29,208.27L338.44,203.69L338.73,205.54L338.88,200.23L339.17,202.14L339.32,195.11L339.76,197.08L339.91,201.43L340.05,257.22L340.49,193.78L340.64,202.21L340.79,194.05L340.93,193.85L341.08,200.39L341.67,190.69L341.81,196.39L341.96,195.91L342.11,191.6L342.4,196.47L342.55,204.08L343.43,159.77L343.58,163.28L343.72,216.83L343.87,224.4L344.02,156.23L345.05,83.44L345.19,79.56L345.34,76.88L345.49,137.58L345.63,166.6L345.93,86.51L346.07,80.53L346.81,88.41L346.96,85.32L348.42,155.01L348.57,151.01L349.75,216.12L350.19,212.41L350.33,212L350.48,213.24L350.63,207.94L351.07,205.25L351.22,209.47L352.1,202.99L352.24,203.75L352.39,206.16L352.54,202.54L352.83,205.18L352.98,200.48L353.27,206.29L353.71,203.77L353.86,203.73L354.01,206.07L354.15,204.12L354.3,263.85L355.18,193.04L355.33,194.94L355.48,195.51L355.62,194.37L355.77,193.35L355.92,196.94L356.21,190.86L356.36,194.24L356.5,188.8L356.8,200.17L357.09,184.57L357.24,181.47L357.39,231.91L357.83,148.88L357.97,146.38L359.74,70.51L359.88,70.97L360.03,78.95L360.18,75.95L360.32,85.25L360.47,80.53L360.62,88.43L360.76,84.98L360.91,147.78L361.2,87.77L361.65,111.74L361.79,113.67L361.94,112.71L362.09,126.39L362.97,176.51L363.11,184.86L363.85,215.08L364.29,214.5L364.44,209.45L364.58,214.49L365.02,206.62L365.17,203.55L365.32,208.13L365.46,201.89L365.9,204.8L366.05,266.59L366.35,283.75L366.49,217.41L366.93,199.54L367.37,201.37L367.52,203.32L368.7,192.56L368.84,193.92L368.99,195.76L369.14,190.26L369.72,190.68L369.87,193.27L370.16,190.76L370.31,191.22L370.46,255.04L370.75,268.09L370.9,203.14L372.22,101.88L372.37,96.07L372.66,84.92L372.81,143.13L372.96,158.05L373.1,83.93L373.4,62.98L373.98,67.35L374.13,67.45L375.01,75.52L375.16,70.12L377.95,208.39L378.39,204.22L378.54,205.38L378.68,206.2L378.83,204.11L378.98,198.96L379.13,198.31L379.27,204.94L379.42,195.88L380.01,201.2L380.15,197.31L380.3,196.58L380.45,199.92L381.18,195.61L381.33,197.58L382.06,194.07L382.21,195.89L382.65,196.54L382.94,190.92L383.09,193.04L383.38,268.56L383.83,191.38L383.97,190.42L384.12,194.63L384.27,189.62L384.71,191.14L384.85,187.72L385.88,145.17L386.03,108.59L386.47,115.19L387.79,58.69L387.94,59.36L388.82,71.14L388.97,72.56L389.11,69.49L389.41,75.82L389.55,82.74L390.44,120.48L390.58,134.38L391.02,235.41L391.46,191.31L391.61,194.93L392.05,210.94L392.49,207.09L392.64,204.12L392.79,203.84L392.93,204.69L393.08,199.12L393.23,202.5L393.37,197.08L393.67,201.08L393.81,197.73L393.96,197.7L394.11,199.27L394.7,195.18L394.84,197.15L394.99,197.85L395.43,198.26L395.58,193.36L395.72,194.64L395.87,195.45L396.75,190.96L396.9,196.26L397.78,188.71L397.93,194.08L399.4,163.29L399.54,215.08L400.13,110.83L400.28,170.06L400.42,216.21L400.57,212.13L400.72,140.3L401.75,75.82L401.89,87.77L402.04,75.75L402.63,82.58L402.77,148.89L402.92,164.56L403.07,111.94L403.22,88.15L404.39,146.23L404.54,214L404.83,246.01L404.98,196.67L405.12,178.09L406.01,218.37L406.15,217.61L406.3,220.27L406.45,215.31L406.59,211.87L406.74,217.82L407.03,210.37L407.18,213.8L407.33,205.61L407.47,204.57L407.62,209.61L408.21,201.5L408.5,202.94L408.65,201.29L408.8,208.63L408.94,200L409.24,206.13L409.38,199.52L409.68,206.55L409.83,198.52L410.27,202.74L410.41,197.82L410.56,202.47L410.71,196.92L411,201.83L411.44,196.96L411.59,199.59L412.32,194.09L412.47,195.43L412.62,198.21L412.76,195.95L412.91,256.4L413.06,275.04L413.2,205.6L413.35,187.26L414.38,138.78L414.53,126.62L415.11,118.4L415.26,101.03L415.7,82.64L416.29,84.84L416.44,96.56L416.73,173.87L417.17,95.83L417.32,109.97L417.46,103.27L417.61,186.84L417.76,135.93L418.2,220.84L418.34,214.38L418.49,231.75L418.64,175.55L418.79,164.71L420.11,234.24L420.55,231.37L420.7,225.24L420.99,228.41L421.14,225.14L422.16,214.88L422.31,218.46L423.19,201.62L423.34,205.14L423.78,201.95L423.93,202.47L424.07,204.11L424.81,199.27L424.95,199.57L425.1,201.6L425.25,201.8L425.4,198.01L425.54,199.93L425.69,261.3L426.42,195.71L426.57,260.05L427.45,187.96L427.6,183.34L428.19,162.74L428.33,154.68L428.63,145.35L428.77,135.42L429.51,116.83L429.66,174.46L429.8,188.59L429.95,119.96L430.24,99.92L430.68,109.84L430.83,114.04L431.86,219.85L432.01,168.12L432.3,240.94L432.74,184.69L432.89,176.4L434.06,222.23L434.65,222.07L434.8,216.37L434.94,221.26L435.24,214.1L435.38,214.23L435.53,209.33L435.68,212.73L435.82,208.26L436.12,209.22L436.27,207.06L436.56,207.75L436.71,206.14L436.85,205.4L437,205.83" style="vector-effect: non-scaling-stroke; fill: none; stroke: rgb(0, 128, 0); stroke-opacity: 1; stroke-width: 2px; opacity: 1;"/></g><g class="points"/><g class="text"/></g></g></g><g class="overplot"/><path class="xlines-above crisp" d="M0,0" style="fill: none;"/><path class="ylines-above crisp" d="M0,0" style="fill: none;"/><g class="overlines-above"/><g class="xaxislayer-above"><g class="xtick"><text text-anchor="middle" x="0" y="433" transform="translate(164.61,0)" style="font-family: 'Open Sans', verdana, arial, sans-serif; font-size: 12px; fill: rgb(42, 63, 95); fill-opacity: 1; white-space: pre; opacity: 1;"><tspan class="line" dy="0em" x="0" y="433">Aug 7</tspan><tspan class="line" dy="1.3em" x="0" y="433">2022</tspan></text></g><g class="xtick"><text text-anchor="middle" x="0" y="433" style="font-family: 'Open Sans', verdana, arial, sans-serif; font-size: 12px; fill: rgb(42, 63, 95); fill-opacity: 1; white-space: pre; opacity: 1;" transform="translate(263.32,0)">Aug 14</text></g><g class="xtick"><text text-anchor="middle" x="0" y="433" style="font-family: 'Open Sans', verdana, arial, sans-serif; font-size: 12px; fill: rgb(42, 63, 95); fill-opacity: 1; white-space: pre; opacity: 1;" transform="translate(362.03,0)">Aug 21</text></g><g class="xtick"><text text-anchor="middle" x="0" y="433" style="font-family: 'Open Sans', verdana, arial, sans-serif; font-size: 12px; fill: rgb(42, 63, 95); fill-opacity: 1; white-space: pre; opacity: 1;" transform="translate(460.74,0)">Aug 28</text></g></g><g class="yaxislayer-above"><g class="ytick"><text text-anchor="end" x="79" y="4.199999999999999" transform="translate(0,344.03)" style="font-family: 'Open Sans', verdana, arial, sans-serif; font-size: 12px; fill: rgb(42, 63, 95); fill-opacity: 1; white-space: pre; opacity: 1;">−50</text></g><g class="ytick"><text text-anchor="end" x="79" y="4.199999999999999" style="font-family: 'Open Sans', verdana, arial, sans-serif; font-size: 12px; fill: rgb(42, 63, 95); fill-opacity: 1; white-space: pre; opacity: 1;" transform="translate(0,265.68)">0</text></g><g class="ytick"><text text-anchor="end" x="79" y="4.199999999999999" style="font-family: 'Open Sans', verdana, arial, sans-serif; font-size: 12px; fill: rgb(42, 63, 95); fill-opacity: 1; white-space: pre; opacity: 1;" transform="translate(0,187.34)">50</text></g><g class="ytick"><text text-anchor="end" x="79" y="4.199999999999999" style="font-family: 'Open Sans', verdana, arial, sans-serif; font-size: 12px; fill: rgb(42, 63, 95); fill-opacity: 1; white-space: pre; opacity: 1;" transform="translate(0,108.99)">100</text></g></g><g class="overaxes-above"/></g></g><g class="polarlayer"/><g class="smithlayer"/><g class="ternarylayer"/><g class="geolayer"/><g class="funnelarealayer"/><g class="pielayer"/><g class="iciclelayer"/><g class="treemaplayer"/><g class="sunburstlayer"/><g class="glimages"/><defs id="topdefs-58a40f"><g class="clips"/><clipPath id="legend58a40f"><rect width="162" height="67" x="0" y="0"/></clipPath></defs><g class="layer-above"><g class="imagelayer"/><g class="shapelayer"/></g><g class="infolayer"><g class="legend" pointer-events="all" transform="translate(525.74,100)"><rect class="bg" shape-rendering="crispEdges" width="162" height="67" x="0" y="0" style="stroke: rgb(68, 68, 68); stroke-opacity: 1; fill: rgb(255, 255, 255); fill-opacity: 1; stroke-width: 0px;"/><g class="scrollbox" transform="" clip-path="url(#legend58a40f)"><g class="groups"><g class="traces" transform="translate(0,14.5)" style="opacity: 1;"><text class="legendtext" text-anchor="start" x="40" y="4.680000000000001" style="font-family: 'Open Sans', verdana, arial, sans-serif; font-size: 12px; fill: rgb(42, 63, 95); fill-opacity: 1; white-space: pre;">BESS</text><g class="layers" style="opacity: 0.5;"><g class="legendfill"/><g class="legendlines"><path class="js-line" d="M5,0h30" style="fill: none; stroke: rgb(0, 191, 255); stroke-opacity: 1; stroke-width: 2px;"/></g><g class="legendsymbols"><g class="legendpoints"/></g></g><rect class="legendtoggle" x="0" y="-9.5" width="156.71875" height="19" style="fill: rgb(0, 0, 0); fill-opacity: 0;"/></g><g class="traces" transform="translate(0,33.5)" style="opacity: 1;"><text class="legendtext" text-anchor="start" x="40" y="4.680000000000001" style="font-family: 'Open Sans', verdana, arial, sans-serif; font-size: 12px; fill: rgb(42, 63, 95); fill-opacity: 1; white-space: pre;">Solar</text><g class="layers" style="opacity: 0.5;"><g class="legendfill"/><g class="legendlines"><path class="js-line" d="M5,0h30" style="fill: none; stroke: rgb(255, 0, 0); stroke-opacity: 1; stroke-width: 2px;"/></g><g class="legendsymbols"><g class="legendpoints"/></g></g><rect class="legendtoggle" x="0" y="-9.5" width="156.71875" height="19" style="fill: rgb(0, 0, 0); fill-opacity: 0;"/></g><g class="traces" transform="translate(0,52.5)" style="opacity: 1;"><text class="legendtext" text-anchor="start" x="40" y="4.680000000000001" style="font-family: 'Open Sans', verdana, arial, sans-serif; font-size: 12px; fill: rgb(42, 63, 95); fill-opacity: 1; white-space: pre;">Grid Meter (Net Load)</text><g class="layers" style="opacity: 0.5;"><g class="legendfill"/><g class="legendlines"><path class="js-line" d="M5,0h30" style="fill: none; stroke: rgb(0, 128, 0); stroke-opacity: 1; stroke-width: 2px;"/></g><g class="legendsymbols"><g class="legendpoints"/></g></g><rect class="legendtoggle" x="0" y="-9.5" width="156.71875" height="19" style="fill: rgb(0, 0, 0); fill-opacity: 0;"/></g></g></g><rect class="scrollbar" rx="20" ry="3" width="0" height="0" x="0" y="0" style="fill: rgb(128, 139, 164); fill-opacity: 1;"/></g><g class="g-gtitle"><text class="gtitle" x="298.5" y="50" text-anchor="middle" dy="0em" style="font-family: 'Open Sans', verdana, arial, sans-serif; font-size: 17px; fill: rgb(42, 63, 95); opacity: 1; font-weight: normal; white-space: pre;"><tspan class="line" dy="0em" x="298.5" y="50">Scenario 3</tspan><tspan class="line" dy="1.3em" x="298.5" y="50">Microgrid Output</tspan><tspan class="line" dy="2.6em" x="298.5" y="50">From: August 01, 2022 to August 31, 2022</tspan></text></g><g class="g-xtitle"><text class="xtitle" x="298.5" y="476.409375" text-anchor="middle" style="font-family: 'Open Sans', verdana, arial, sans-serif; font-size: 14px; fill: rgb(42, 63, 95); opacity: 1; font-weight: normal; white-space: pre;">Time</text></g><g class="g-ytitle"><text class="ytitle" transform="rotate(-90,33.840625,260)" x="33.840625" y="260" text-anchor="middle" style="font-family: 'Open Sans', verdana, arial, sans-serif; font-size: 14px; fill: rgb(42, 63, 95); opacity: 1; font-weight: normal; white-space: pre;">Demand (kW)</text></g></g></svg>