<svg class="main-svg" xmlns="http://www.w3.org/2000/svg" xmlns:xlink="http://www.w3.org/1999/xlink" width="700" height="500" style="" viewBox="0 0 700 500"><rect x="0" y="0" width="700" height="500" style="fill: rgb(255, 255, 255); fill-opacity: 1;"/><defs id="defs-a6a7db"><g class="clips"><clipPath id="clipa6a7dbxyplot" class="plotclip"><rect width="540" height="320"/></clipPath><clipPath class="axesclip" id="clipa6a7dbx"><rect x="80" y="0" width="540" height="500"/></clipPath><clipPath class="axesclip" id="clipa6a7dby"><rect x="0" y="100" width="700" height="320"/></clipPath><clipPath class="axesclip" id="clipa6a7dbxy"><rect x="80" y="100" width="540" height="320"/></clipPath></g><g class="gradients"/><g class="patterns"/></defs><g class="bglayer"/><g class="layer-below"><g class="imagelayer"/><g class="shapelayer"/></g><g class="cartesianlayer"><g class="subplot xy"><g class="layer-subplot"><g class="shapelayer"/><g class="imagelayer"/></g><g class="minor-gridlayer"><g class="x"/><g class="y"/></g><g class="gridlayer"><g class="x"><path class="xgrid crisp" transform="translate(184.55,0)" d="M0,100v320" style="stroke: rgb(255, 255, 255); stroke-opacity: 1; stroke-width: 1px;"/><path class="xgrid crisp" transform="translate(306.53,0)" d="M0,100v320" style="stroke: rgb(255, 255, 255); stroke-opacity: 1; stroke-width: 1px;"/><path class="xgrid crisp" transform="translate(428.5,0)" d="M0,100v320" style="stroke: rgb(255, 255, 255); stroke-opacity: 1; stroke-width: 1px;"/><path class="xgrid crisp" transform="translate(550.48,0)" d="M0,100v320" style="stroke: rgb(255, 255, 255); stroke-opacity: 1; stroke-width: 1px;"/></g><g class="y"><path class="ygrid crisp" transform="translate(0,410.19)" d="M80,0h540" style="stroke: rgb(255, 255, 255); stroke-opacity: 1; stroke-width: 1px;"/><path class="ygrid crisp" transform="translate(0,368.15)" d="M80,0h540" style="stroke: rgb(255, 255, 255); stroke-opacity: 1; stroke-width: 1px;"/><path class="ygrid crisp" transform="translate(0,326.11)" d="M80,0h540" style="stroke: rgb(255, 255, 255); stroke-opacity: 1; stroke-width: 1px;"/><path class="ygrid crisp" transform="translate(0,284.07)" d="M80,0h540" style="stroke: rgb(255, 255, 255); stroke-opacity: 1; stroke-width: 1px;"/><path class="ygrid crisp" transform="translate(0,242.04)" d="M80,0h540" style="stroke: rgb(255, 255, 255); stroke-opacity: 1; stroke-width: 1px;"/><path class="ygrid crisp" transform="translate(0,200)" d="M80,0h540" style="stroke: rgb(255, 255, 255); stroke-opacity: 1; stroke-width: 1px;"/><path class="ygrid crisp" transform="translate(0,157.96)" d="M80,0h540" style="stroke: rgb(255, 255, 255); stroke-opacity: 1; stroke-width: 1px;"/></g></g><g class="zerolinelayer"><path class="yzl zl crisp" transform="translate(0,115.92)" d="M80,0h540" style="stroke: rgb(255, 255, 255); stroke-opacity: 1; stroke-width: 2px;"/></g><path class="xlines-below"/><path class="ylines-below"/><g class="overlines-below"/><g class="xaxislayer-below"/><g class="yaxislayer-below"/><g class="overaxes-below"/><g class="plot" transform="translate(80,100)" clip-path="url(#clipa6a7dbxyplot)"><g class="scatterlayer mlayer"><g class="trace scatter trace9b3776" style="stroke-miterlimit: 2; opacity: 0.5;"><g class="fills"/><g class="errorbars"/><g class="lines"><path class="js-line" d="M0,63.69L0.91,59.12L1.09,59.86L1.27,60.59L1.63,56.59L1.82,73.2L2,72.4L2.18,57.41L2.72,58.58L2.9,54.81L3.09,57.94L3.45,55.71L3.63,158.83L4.17,54.12L4.54,56.74L4.72,54.91L5.26,133.44L5.63,109.08L5.81,113.91L6.17,118.76L6.35,229.49L6.72,240.03L6.9,227.07L7.08,207.67L7.26,104.76L7.99,111.78L8.17,116.07L8.35,111.58L8.53,123.58L8.71,136.55L9.08,256.32L9.44,184.43L9.62,183.05L9.8,180.83L9.98,161.4L12.71,94.08L12.89,92.65L13.79,80.53L13.98,82.49L14.16,82.63L15.25,66.92L15.43,66.57L15.79,66.08L15.97,68.1L16.15,65.5L16.52,63.94L16.7,64.48L16.88,66.56L17.43,61.4L17.97,62.78L18.15,62.17L19.24,58.94L19.42,60.57L19.97,56.49L20.15,59.18L20.33,59.46L20.51,55.03L21.06,56.27L21.24,70.54L21.42,70.51L21.6,71.66L21.78,69.95L22.14,70.01L22.33,75.51L22.87,183.87L23.05,82.41L23.23,83.73L23.42,81.49L23.6,85.07L23.78,108.43L23.96,108.94L24.14,105.86L24.32,213.76L24.5,98.28L24.87,209.36L25.05,104.78L25.23,104.65L25.41,105.23L25.59,102.66L26.32,132.67L26.5,131.63L26.68,123.31L26.86,122.87L27.05,125.93L27.23,123.05L27.41,137.37L28.32,252.95L28.5,154.72L28.86,135.91L29.04,218.92L29.41,222.5L29.59,112.62L29.77,112.77L29.95,96.57L31.4,81.28L31.58,81.35L31.95,75.44L32.13,89.41L32.31,89.26L32.49,87.54L33.94,64.29L34.12,63.55L34.31,63.76L34.49,62.26L34.85,63.01L35.03,62.3L35.21,61.88L35.94,58.85L36.12,59.75L36.3,58.77L36.48,59.46L36.67,163.5L37.57,55.11L37.75,56.35L38.48,52.45L38.66,55.17L38.84,56.74L39.03,53.64L39.39,55.19L39.57,71.17L39.93,76L40.11,93.98L40.3,95.34L40.48,113.12L40.66,205.31L41.02,101.6L41.2,103.66L41.38,95.1L41.75,96.85L41.93,116.15L42.11,117.16L42.29,220.19L42.47,225L42.66,106.12L42.84,87.01L43.02,100.37L43.2,213.57L43.38,237.33L43.56,130.92L43.74,139.14L43.93,116.01L44.11,113.86L44.29,117.93L44.47,113.85L44.65,104.1L44.83,100.74L45.02,111.56L45.92,124.95L46.1,130.36L46.83,104.56L47.01,112.95L47.19,115.86L47.37,216.02L47.92,108.1L48.1,104.3L48.65,99.06L48.83,110.91L49.01,111.55L49.19,108.3L49.73,104.49L49.92,86.93L51.01,64.45L51.19,65.06L51.37,64.32L52.28,62.59L52.46,63.84L53.18,59.37L53.55,59.89L53.73,60.39L54.45,56.2L55,56.35L55.18,57.12L55.91,53.61L56.09,57.27L56.81,52.96L56.99,56.43L57.36,78.05L57.54,83.84L58.08,80.71L58.45,198.28L58.63,219.06L58.99,235.31L59.54,111.72L59.72,99.21L59.9,102.18L60.08,205.14L60.63,233.4L60.81,231.13L60.99,125.44L61.71,102.71L61.9,107.71L62.08,106.96L62.44,123.49L62.62,116.14L62.8,224.19L63.17,239.11L63.35,137.72L63.53,133.16L63.71,160.82L63.89,160.53L64.07,158.8L65.16,109.99L65.34,124.6L65.71,119.78L65.89,104.38L66.43,100.67L66.62,206.54L66.8,207.43L66.98,191.81L67.52,75.57L67.89,76.66L68.07,75.49L68.43,76.09L68.61,72.81L68.79,74.23L68.97,69.48L69.88,59.12L70.25,61.2L70.43,62.78L70.79,57.97L71.15,59.32L71.33,60.23L71.7,55.21L71.88,60.28L72.06,59.44L72.24,70.72L72.61,72.95L72.79,175.36L73.33,54.32L73.69,55.94L73.88,71.18L74.06,70.66L74.24,72.67L74.96,31.05L75.15,150.62L75.33,151.28L75.51,81.11L76.42,228.55L76.6,123.02L76.96,142.68L77.14,126.14L77.32,116.14L77.87,131.68L78.05,108.17L78.41,208.79L78.59,104.52L78.78,109.94L78.96,123.79L79.32,124.89L79.68,112.08L79.87,118.96L80.23,238.04L80.59,122.41L80.77,121.13L81.14,115.13L81.32,127.72L81.5,236.37L81.68,232.29L81.86,234.17L82.04,113.05L82.23,114.85L82.41,109.42L82.59,104.24L82.77,107.62L82.95,104.68L83.13,88.89L84.77,75.14L84.95,69.19L85.13,70.11L85.49,68.73L85.67,69.81L85.86,68.13L86.04,69.23L86.22,67.64L86.4,66.28L86.76,68.47L87.13,66.21L87.31,63.94L88.4,57.85L88.58,57.72L89.67,54.5L89.85,53.39L90.03,52.52L90.21,69.55L90.57,67.05L90.76,53.2L90.94,50.35L91.66,50.59L91.85,65.42L92.03,174.88L92.39,60.13L92.57,62.25L92.75,61.5L93.48,84.48L93.66,191.22L94.02,193.19L94.39,73.77L94.57,77.32L94.75,80.39L94.93,77.55L95.11,85.19L95.29,83.46L95.48,84.33L96.75,112.71L96.93,131.36L97.11,127.73L97.29,133.55L97.47,131.42L97.65,132.8L97.84,138.57L98.02,134.79L98.2,120L98.38,108.31L98.56,207.68L98.74,206.96L98.92,99.96L99.29,114.41L99.65,109.26L99.83,107.86L100.01,106.63L100.19,107.91L100.38,88.56L102.01,73.27L102.19,69.48L103.1,61.68L103.28,63.36L104.37,59.4L104.55,59.16L104.73,60.19L105.1,59.05L105.28,57.56L105.46,57.4L105.64,56.02L105.82,55.99L106,54.74L106.91,53.2L107.09,54.06L107.27,54.15L107.64,157.99L108,51.29L108.18,53.2L108.91,50.14L109.09,52.53L109.82,88.57L110,77.4L110.18,183.61L110.36,185.84L110.54,66.22L111.63,93.41L111.81,112.79L111.99,111.77L112.17,113.09L112.36,123.38L112.54,121.94L112.72,122.63L112.9,113.5L113.08,103.18L113.26,129L113.45,124.81L113.63,122.64L113.81,138.54L113.99,238.67L114.35,242.17L114.53,122.15L114.9,127.28L115.08,106.96L115.26,108.79L115.44,122.97L115.62,120.64L115.81,124.35L115.99,154.85L118.35,84.73L118.53,86.16L118.89,75.55L119.07,78.25L119.25,81.22L119.44,91.93L119.98,85.6L120.16,80.97L120.52,83.17L120.71,80.18L120.89,80.39L121.07,80.55L121.25,79.3L121.43,78.92L121.61,65.16L122.34,62.09L122.52,62.43L122.7,63.49L123.61,60.06L123.79,59.88L123.97,60.8L124.15,59.15L124.34,60L124.52,57.98L125.61,54.86L125.79,55.85L125.97,56.16L126.33,55.65L126.51,71.32L126.7,70.99L126.88,88.8L127.42,109.26L127.78,98.74L127.97,205.25L128.15,192.22L128.33,89.14L128.51,89.29L128.69,90.63L129.96,119.13L130.14,130.71L130.51,127.54L130.69,118.15L130.87,113.18L131.05,125.99L131.23,130.22L131.6,240.91L131.96,140.52L132.14,124.77L132.32,125.22L132.5,122.4L132.69,118.67L132.87,127.68L133.05,239.46L133.23,239.07L133.41,130.88L133.96,115.5L134.14,137.04L135.05,112.11L135.23,112.78L135.41,112.86L135.59,112.13L135.77,109.57L136.13,106.81L136.32,94.1L136.5,94.3L136.68,90.68L137.59,78.87L137.95,79.26L138.13,79.75L138.68,75.11L139.04,75.35L139.22,76.22L139.4,76.4L139.58,74.33L140.31,76.6L140.49,73.77L140.67,74.37L140.85,73.1L141.04,71.92L141.22,74.07L141.4,69.63L141.58,64.53L141.76,60.93L141.94,74.88L142.49,59L142.67,161.48L143.21,56.71L143.39,56.97L143.58,71.76L143.94,70.52L144.12,56.25L144.3,60.4L144.48,183.76L144.67,192.5L144.85,94.12L145.03,109.45L145.57,99.98L145.75,87.15L146.3,97.81L146.48,95.42L146.66,90.65L146.84,232.89L147.39,76.37L147.57,61.4L147.93,61.32L148.11,46.27L148.3,61.24L148.48,150.79L148.66,151.28L148.84,31.71L149.38,31.05L149.57,16L150.11,269.39L150.47,167.12L150.66,184.64L153.74,87.13L153.92,86.04L154.29,89.09L154.47,83.66L155.37,74.46L155.56,74.4L155.92,75.94L156.1,74.25L156.28,74.5L156.46,73.73L157.19,61L157.55,61.72L157.73,62.14L157.92,63.06L158.1,61.77L158.28,62.44L158.46,59.41L158.64,58.45L158.82,74.03L159.01,73.62L159.19,75.46L159.73,70.59L159.91,190.09L160.64,70.54L160.82,70.73L161,55.64L161.36,52.56L161.55,55.79L161.91,66.48L162.09,91.08L162.45,96.16L162.64,209.77L163.18,95.04L163.54,106.67L163.72,109.53L164.27,104.44L164.45,208.12L164.81,101.46L165.18,106.82L165.36,129.7L165.72,253L165.9,152.58L166.08,282.68L166.63,152L166.81,135.7L167.35,153.2L167.54,163.26L169.35,112.9L169.53,112.56L169.9,94.52L170.44,100.19L170.62,200.04L170.8,216.47L170.98,214.62L171.17,109.74L172.44,65.45L172.62,68.99L172.8,69.21L173.71,64.11L173.89,68.02L174.62,63.38L174.8,63.9L174.98,62.2L175.16,62.32L175.34,63.63L176.61,55.56L176.79,162.11L177.52,54.79L177.7,56.34L177.88,70.34L178.06,70.48L178.25,78.02L178.61,64.12L178.97,68.04L179.15,71.12L179.52,84.51L180.06,84.22L180.24,86.16L180.42,89.55L180.61,89.22L180.79,213.89L180.97,225.07L181.15,145.79L182.24,115.12L182.42,111.95L182.78,116.47L182.96,115.51L183.15,101.1L183.87,132.13L184.05,253.68L184.24,251.34L184.42,164.57L184.6,164.57L184.78,163.01L184.96,178.92L185.14,162.27L185.32,249.18L185.51,250.1L185.69,235L186.23,124.42L186.59,130.12L186.78,128.25L187.32,103.88L187.5,96.13L188.41,108.16L188.59,106.73L188.77,106.92L188.95,107.11L189.14,101.04L189.32,99.62L189.5,85.53L189.86,77.02L190.41,78.65L190.59,93.88L191.5,88.46L191.68,90.71L191.86,74.62L192.77,70.46L192.95,71.68L194.22,54.87L194.4,56.87L194.58,54.41L194.76,54.44L194.94,52.82L195.31,159.85L195.49,51.39L195.67,68.17L195.85,68.9L196.03,68.73L196.22,51.64L196.58,58.18L196.76,65.87L197.85,116.42L198.39,114.44L198.57,100.39L199.12,109.66L199.3,107.06L199.48,214.22L199.66,209.37L199.85,224.36L200.03,122.96L200.57,234.37L200.75,215.24L200.93,110.84L201.12,106.6L201.66,108.12L201.84,112.92L202.93,158.05L203.11,149.33L203.29,153.15L204.2,126.41L204.38,128.7L204.56,125.95L204.75,134.95L204.93,132.12L205.29,132.91L205.47,114.95L205.65,113.05L205.84,125.25L206.02,136.61L206.38,122.85L206.56,120.21L207.11,111.6L207.29,95.86L207.47,94.29L207.65,95.81L207.83,80.8L209.83,63.4L210.01,65.24L210.19,64.89L210.37,60.31L210.55,63.12L211.1,62.61L211.28,57.49L212.01,75.05L212.19,72.26L212.37,58.95L213.28,55.57L213.46,56.89L213.64,58.79L213.82,57.5L214,64.07L215.27,75.47L215.46,75.89L215.82,77.81L216,218.06L216.91,109.56L217.09,210.85L217.27,215.08L217.45,115.36L217.63,112.54L217.82,118.89L218,104.09L218.54,227.85L218.72,126.41L218.9,138.36L219.09,141.23L219.27,131.86L219.45,129.12L219.63,230.98L219.99,234.71L220.17,123.05L221.08,99.2L221.26,103.08L222.35,90.07L222.53,93.86L222.72,92.49L223.44,81.99L223.62,94.68L223.81,95.74L223.99,93.92L224.17,90.88L225.44,66.28L225.62,66.45L225.8,65.99L225.98,66.16L226.16,64.26L226.35,65.52L226.89,64.71L227.07,62.87L227.44,64.51L227.62,61.76L227.8,63.36L227.98,62.15L228.16,61.84L228.34,62.81L228.52,62.72L229.61,55.29L229.79,57.05L229.98,58.14L230.16,56.55L230.34,57.75L230.52,56.41L230.7,55.14L230.88,86.4L231.07,86.56L231.25,87.7L231.43,58.26L231.97,64.37L232.15,184.1L232.7,206.09L232.88,191.29L233.06,73.61L233.24,75.16L233.43,74.92L233.61,186.28L233.97,183.33L234.15,85.56L234.33,83.27L234.51,102.09L235.06,121.03L235.42,114.16L235.6,114.95L235.78,94.99L236.15,102.16L236.33,216.32L236.69,229.22L236.87,225.1L237.06,118.15L237.6,116.75L237.78,136.7L237.96,136.5L238.14,130.18L238.33,129.62L238.51,115.82L238.87,108.2L239.05,96.13L239.23,99.99L239.42,93.27L239.6,88.95L239.78,105.56L240.32,100.06L240.5,99.44L241.05,93.04L241.23,75.6L241.41,78.97L241.59,73.72L241.77,69.29L241.96,68.91L242.14,69.51L242.32,67.09L242.5,67.05L242.68,65.77L243.05,66.58L243.23,64.38L243.95,61.01L244.13,64.99L244.86,61.34L245.04,62.4L245.22,61.01L245.41,61.5L245.59,58.42L246.31,58.28L246.49,54.79L246.86,57.21L247.22,55.02L247.4,53.39L247.58,53.58L247.76,71.25L248.31,67.09L248.49,70.21L248.67,70.78L248.85,177.06L249.4,90.74L249.58,111.35L250.49,151.84L250.67,238.01L250.85,236.22L251.03,131.25L252.12,100.24L252.3,200.51L252.48,207.61L252.67,117.2L252.85,116.53L253.03,122.15L253.57,231.65L253.75,143.73L253.94,138.79L254.3,146.49L254.48,138.67L254.66,139.59L254.84,130.33L255.21,141.35L255.39,135.43L255.57,137.78L255.75,136.62L255.93,118.31L256.3,109.13L256.48,120.19L257.38,103.54L257.57,107.36L257.93,94.78L258.11,100.29L258.29,191.7L258.66,189.7L258.84,82.03L259.74,67.97L259.93,67.49L260.29,69.18L260.47,64.75L260.83,68.37L261.2,65.94L261.38,64.02L262.29,61.1L262.47,62L263.56,58.98L263.74,58.39L264.1,58.9L264.46,55.84L264.65,58.45L265.01,55.03L265.19,71.74L265.55,68.97L265.73,54.24L266.28,56.27L266.46,78L266.64,79.47L266.82,77.19L267.01,98.74L267.19,99.73L267.37,98.85L267.55,92.15L267.91,107.36L268.09,115.27L268.28,115.36L268.46,116.45L268.64,112.78L268.82,212.18L269.36,101.56L269.55,213.95L269.73,219.49L269.91,118.23L270.45,139.09L270.64,145.01L271.36,161.17L271.54,157.73L271.72,151.82L271.91,150.97L272.09,152.63L272.27,151.93L272.45,144.67L272.81,146.76L272.99,140.88L273.18,123.54L273.54,119.78L273.72,120.23L273.9,137.73L274.63,109.11L274.81,110.61L274.99,210.41L275.17,206.37L275.35,103.36L276.26,77.48L276.44,73.06L277.17,65.85L277.35,69.03L277.53,66.88L277.9,67.12L278.98,62.03L279.17,63.02L279.53,61.32L279.89,61.89L280.07,62.19L280.62,59.69L280.8,61.3L280.98,61.38L281.16,58.9L281.34,59.44L281.53,162.66L282.07,55.25L282.25,162.93L282.43,161.48L282.62,54.64L283.16,69.76L283.34,86.27L283.89,97.04L284.07,82.14L284.25,67.09L284.79,73.96L284.97,102.81L285.7,146.84L286.06,135.07L286.25,139.56L286.43,129.32L286.61,241.29L287.52,125.49L287.7,129.13L287.88,134.59L288.06,122.37L288.24,126.67L288.42,124.26L288.61,123.17L288.79,138.12L289.51,126.38L289.88,128.45L290.06,129.89L290.24,109.13L290.42,208.1L290.6,211.28L290.78,210L290.96,104.12L291.15,102.66L291.33,95.36L291.69,104.69L292.05,98.79L292.24,89.98L292.6,194.36L292.96,82.31L293.14,82.03L293.32,81.78L293.51,78.07L293.87,75.68L294.05,67.14L294.41,70.26L294.59,65.64L294.78,65.4L294.96,69.47L295.32,64.39L295.5,67.82L295.68,63.72L295.87,64.1L296.05,64L296.23,62.28L296.41,64.27L296.95,62.25L297.14,61.61L297.32,61.74L297.5,59.2L297.68,61.81L297.86,58.82L298.23,60.65L298.41,57.41L298.59,58.28L299.13,57.7L299.31,55.17L299.5,56.65L299.86,53.96L300.04,55.61L300.22,70.56L301.13,61.41L301.31,68.86L301.49,174.02L302.04,115.05L302.22,120.08L302.58,125.57L302.76,111.49L303.13,117.58L303.31,99.73L303.49,99.16L303.67,101.08L303.85,97.52L304.22,211.19L304.58,126.62L304.76,147.84L304.94,153L305.12,149.97L305.3,271.4L305.49,168.16L306.21,173.68L306.39,170.32L306.94,150.9L307.12,141.16L307.3,142.97L307.48,142.13L307.66,120.82L307.85,120.53L308.03,112.97L308.21,115.78L308.39,101.05L310.02,77.86L310.21,178.68L310.39,183.51L310.57,180.52L310.75,74.82L311.11,71.09L311.29,71.19L311.48,66.77L312.38,61.25L312.75,61.41L312.93,62.85L313.84,60.19L314.02,60.78L314.2,61.7L314.74,57.08L314.92,58.95L315.11,59.47L315.83,54.97L316.01,56.09L316.19,54.78L317.28,51.59L317.47,53.28L317.65,53.34L317.83,68.05L318.55,118.45L318.74,91.63L318.92,96.71L319.1,91.35L319.28,199.4L319.46,75.24L320.01,120.91L320.19,128L320.37,232.41L320.91,115.63L321.1,102.15L321.82,93.27L322,102.85L322.37,227.64L322.73,127.07L322.91,127.11L323.09,125.68L323.27,116.81L323.46,118.77L323.64,104.18L324.73,124.89L324.91,118.18L325.09,118.96L325.27,113.91L326.18,98.85L326.36,100.12L326.54,205.39L326.72,201.49L326.9,201.65L327.09,94.39L327.45,92.57L327.63,86.29L327.81,80.9L327.99,84.49L328.17,97.94L328.54,96.02L328.72,92.7L329.08,87.51L329.45,87.69L329.63,72.91L329.81,72.21L329.99,72.41L330.17,77.06L330.35,81.59L330.72,74.06L330.9,75.16L332.17,59.26L332.53,60.25L332.71,59.37L332.89,162.74L333.44,56.62L333.62,160.38L333.8,161.96L333.98,53.85L334.71,56.18L334.89,52.12L335.07,54.57L335.62,54.45L335.8,52.73L336.89,104.56L337.07,98.58L337.25,85.3L337.61,107.52L337.79,103.51L337.98,204.23L338.16,190.84L338.34,89.39L338.52,88.21L338.7,92.6L338.88,77.81L339.07,94.05L339.25,200.15L339.61,219.61L339.79,116.13L339.97,115.85L340.15,118.33L340.34,121.18L340.52,107.32L340.7,108.33L340.88,98.15L341.24,95.71L341.43,99.01L341.61,99.85L341.79,104.55L341.97,211.43L342.15,219.34L342.33,217.84L342.51,120.64L342.88,122.8L343.06,122.31L343.24,116.35L343.78,103.26L343.97,84.85L345.96,70.74L346.14,69.76L346.69,61.12L347.05,62.05L347.23,61.35L347.42,61.48L347.6,60.45L347.78,61.12L347.96,57.51L348.5,60.49L348.69,60.45L348.87,57.36L349.05,60.63L349.23,56.19L349.59,58.14L349.77,54.59L349.96,57.89L350.14,53.82L350.5,56.33L350.68,52.01L351.05,55.23L351.23,53.37L351.41,68.36L351.77,67.51L351.95,53.83L352.68,49.15L352.86,154.98L353.04,52.55L353.59,83.48L353.77,86.47L354.13,56.01L354.31,61.46L354.49,171.13L354.68,174.8L354.86,78.7L355.04,182.99L355.58,66.24L355.76,69.87L355.95,69.98L356.13,73.97L356.31,73.95L356.49,72.28L356.85,90.27L357.04,107.94L357.22,106.89L357.4,109.6L357.58,96.98L358.31,89.73L358.49,195.48L358.67,195.14L358.85,194.51L359.03,92.74L359.21,93.49L359.39,108.26L359.76,126.08L360.12,120.85L360.3,106.65L360.67,87.54L360.85,88.3L361.03,106.31L361.57,109.92L362.12,92.83L362.3,94.67L363.21,86.1L363.39,87.19L364.11,60.93L364.3,62.36L364.48,61.43L365.2,61.82L365.38,58.42L366.11,60.03L366.29,56.13L366.84,55L367.02,58.55L367.2,55.58L367.38,57.36L367.56,56.18L367.74,50.1L368.29,48.81L369.2,84.66L369.38,64.53L369.56,67.07L369.74,52.16L369.92,48.93L370.29,52.31L370.47,65.15L370.65,63.17L370.83,72.35L371.56,100.03L371.74,91.61L371.92,196.17L372.28,94.01L372.65,103.01L372.83,108.5L373.01,109.82L373.19,107.07L373.37,217.84L373.55,204.23L373.73,104.4L374.1,92.12L374.28,93.07L374.46,194.18L375.19,199.89L375.37,103.27L375.55,101.6L375.73,103.74L375.91,108.06L376.64,99.28L376.82,117.9L377,122.26L377.36,113.46L377.55,112.83L377.73,114.18L377.91,108.3L378.09,111.79L378.27,108.59L378.45,101.12L379,104.03L379.18,97.21L379.36,97.59L379.54,84.43L380.63,72.97L380.81,75.28L381.9,61.99L382.08,62.31L382.27,62.61L382.45,65.09L383.54,56.6L383.72,60.34L384.44,54.86L384.63,59.08L385.53,53.19L385.71,53.67L385.9,54.23L386.08,68.64L386.62,66.86L386.8,69.5L387.71,49.57L387.89,50.68L388.07,82.47L388.26,187.39L388.8,120.42L388.98,108.3L389.34,91.11L389.53,96.01L389.71,202.07L389.89,218L390.07,127.29L390.62,121.41L390.8,110.45L391.34,87.25L391.7,96.16L391.89,107L394.06,163.31L394.25,160.58L394.43,181.65L394.61,180.84L394.79,175.1L395.15,159.33L395.33,244.18L395.7,245.92L395.88,226.91L396.06,220.49L396.24,115.36L396.42,207.53L396.79,201.73L396.97,95.33L397.88,88.5L398.06,85.86L399.51,74.54L399.69,75.58L399.87,77.96L400.42,73.47L400.6,74.46L400.78,75.5L401.87,56.87L402.05,75.04L402.41,54.62L402.96,56.33L403.14,59.01L404.05,53.83L404.23,57.39L404.59,52.77L405.14,53.06L405.32,52.99L405.68,59.86L405.86,70.56L406.04,79.7L406.23,184.04L406.41,84.1L406.95,107.54L407.13,118.69L407.5,104.27L407.68,98.44L407.86,101.04L408.04,99.28L408.22,92.06L408.4,93.49L408.58,102.67L408.77,212.2L409.49,201.87L409.67,100.38L410.94,241.35L411.13,239.87L411.31,139.65L411.49,123.85L412.03,140.6L412.22,125.24L412.4,124.16L412.94,120.59L413.12,129.66L413.3,134.78L413.67,124.25L413.85,119.05L415.12,81.55L415.3,85.48L416.93,70.18L417.12,69.85L417.48,70.13L417.66,68.99L417.84,70.24L418.02,70.12L418.21,66.81L418.39,68.43L418.57,66.23L418.75,60.5L418.93,62.06L419.29,59.2L419.48,61.35L419.66,57.47L419.84,60.8L420.02,59.13L420.2,163.33L421.11,53.12L421.29,57.72L421.47,57.93L421.65,54.1L421.84,57.53L422.2,52.5L422.38,56.89L422.56,53.67L422.74,52.77L422.92,57.44L424.56,131.45L424.74,237.4L424.92,226.77L425.1,121.57L425.47,98.45L425.65,102.48L425.83,115.19L426.74,110.03L426.92,207.84L427.1,207.95L427.28,100.93L428.91,134.55L429.1,131.63L429.28,131.68L430,108.64L430.18,111.97L430.37,114.14L430.55,114.13L430.73,102.5L430.91,98.25L431.27,102.78L431.46,99.48L431.64,99.64L432,96.59L432.18,80.7L433.09,76.43L433.27,71.99L433.45,71.95L433.63,70.24L433.82,71.56L434,71.14L434.18,67.37L434.36,69.73L434.72,67.32L434.9,67.56L435.09,65.97L435.27,68.38L435.81,68.26L435.99,65.82L436.17,63.35L436.36,67.52L436.54,68.86L437.08,66.57L437.26,68.16L437.45,68.95L437.63,65.23L437.81,170.33L438.35,70.48L438.53,71.72L438.9,53.42L439.26,55.11L439.44,68.35L439.81,85.81L440.17,68.43L440.35,70.32L440.71,85.96L440.89,92.13L441.08,91.43L441.26,96.59L441.44,100.15L441.62,198.99L441.8,88.31L442.35,107.67L442.53,110.3L442.71,110.5L442.89,130.06L443.25,117.01L443.62,120.71L443.8,121.92L444.34,91.31L444.71,108.96L444.89,112.3L445.61,125.25L445.79,107.81L445.98,211.68L446.52,109.82L446.7,114.81L446.88,115.6L447.07,106.21L447.43,119.99L447.79,119.84L447.97,113.18L449.24,86.15L449.43,99.06L450.7,88.38L450.88,72.72L451.6,67.25L451.78,69.35L452.15,67.75L452.33,170.41L452.51,172.05L452.69,67.34L453.42,63.43L453.6,66.26L455.6,52.34L455.78,54.98L456.14,49.66L456.69,50.9L456.87,50.73L457.05,52.34L457.23,65.66L457.41,64.72L457.59,66.64L457.77,170.4L458.14,177.87L458.32,74.24L458.5,71.71L459.05,73.31L459.23,80.41L459.41,81.79L459.59,65.39L460.5,102.24L460.68,212.37L460.86,197.6L461.04,91.22L461.22,108.75L461.77,98.24L461.95,97.42L462.31,102.09L462.49,87.42L462.68,86.35L462.86,90.8L463.95,123.86L464.13,124.15L464.67,85.15L465.04,102.75L465.22,102.65L466.31,92.04L466.49,93.4L466.67,73.57L467.58,67.95L467.76,69.48L467.94,69.12L468.12,64.33L468.85,57.62L469.03,60.45L469.21,60L469.39,61.13L469.57,61.13L470.3,57.08L470.48,57.77L470.66,58L471.39,54.85L471.57,55.43L471.75,55.21L472.48,50.65L472.66,54.1L472.84,54.24L473.02,49.88L473.38,52.08L473.57,154.58L473.75,154.65L473.93,172.58L474.84,48.25L475.02,49.91L476.29,58.78L476.47,57.14L476.65,56.47L476.83,59.78L477.56,89.79L477.74,78.45L477.92,81.99L478.1,84.2L478.29,77.31L478.47,73L478.65,72.68L478.83,77.74L479.01,78.6L479.19,87.84L479.92,117.71L480.1,98.84L480.28,98.53L480.46,105.72L480.65,104.68L480.83,87.58L481.73,93.59L481.92,103.81L482.1,103.38L482.46,103.85L482.64,100.52L483.01,205.8L483.37,186.3L483.55,97.67L484.64,85.31L484.82,86.04L485,69.59L486.09,57.76L486.27,60.62L486.45,61.21L487.18,57.59L487.36,60.69L488.27,53.74L488.45,56.81L488.63,56.45L488.81,53.46L488.99,55.14L489.36,51.8L489.54,53.14L489.72,53.93L489.9,52.43L490.08,50.41L490.45,53.95L490.81,52.12L490.99,52.39L491.35,47.13L491.9,48.05L492.08,49.63L492.26,49.18L492.44,59.07L492.81,33.09L492.99,36.99L493.17,57.58L493.53,61.49L493.71,151.56L494.26,44.66L494.44,44.76L494.62,179.44L494.98,246.78L495.17,140.15L495.35,139.64L495.53,141.36L495.71,132.95L495.89,104.63L496.44,118.51L496.62,119.84L496.8,111.99L496.98,114.54L497.16,129.81L497.53,137.07L497.71,273.63L497.89,281.41L498.07,163.84L498.98,120.2L499.16,126.4L499.34,128.67L499.52,124.16L499.7,125.47L499.89,228.65L500.07,226.87L500.25,120.9L500.61,112.23L500.79,128.51L500.97,122.42L501.16,129.52L501.34,119.2L501.52,121.16L501.7,117.38L501.88,117.52L502.06,101.5L503.33,68.26L503.52,71.16L503.7,70.92L504.42,66.37L504.61,67.99L504.97,68.25L505.33,62.08L505.51,66.66L505.69,66.08L505.88,61.24L506.06,66.49L506.42,60.82L506.6,63.5L506.78,65.47L507.51,60.02L507.69,64.05L508.78,58.28L508.96,73.34L509.14,72.81L509.32,54.07L509.51,54.36L509.69,57.42L509.87,58.58L510.05,56.77L510.23,165.35L510.41,168.17L510.59,62.93L512.23,107.31L512.41,99.31L512.95,126.88L513.32,117.88L513.5,113.42L513.68,102.89L514.23,108.17L514.41,114.83L514.95,253.41L515.13,149.88L515.31,137.75L515.5,160.99L515.68,164.53L515.86,183.77L516.04,295.66L516.4,304L517.31,250.96L517.49,141.06L519.31,116.2L519.49,117.37L519.67,100.29L520.22,113.28L520.4,108.5L522.76,65.72L522.94,65.93L523.12,68.39L523.48,64.97L523.66,64.48L523.85,66.25L524.21,63.1L524.39,62.6L524.75,63.97L524.93,60.76L525.3,64.22L525.48,61.78L525.66,60.22L525.84,60.87L526.02,164.2L526.21,165.25L526.39,60.76L526.57,61.02L526.75,59.26L526.93,72.02L527.11,177.4L527.66,62.97L527.84,95.38L528.02,93.71L528.56,114.01L528.75,90.1L529.65,126.36L529.84,110.9L530.74,142.69L530.92,263.99L531.11,250.39L531.29,143.87L531.65,192.17L532.19,189.38L532.38,170.75L532.74,256.8L532.92,149.82L533.1,152.03L533.28,156.35L533.47,264.84L533.83,287.76L534.19,277.08L534.37,155.95L534.74,158.82L534.92,134.57L535.83,107.86L536.01,116.5L536.19,113.65L536.37,110.2L536.55,119.61L536.73,120.78L536.91,121.89L537.1,117.95L538.18,76.5L538.37,75.99L539.82,68.97L540,71.59" style="vector-effect: non-scaling-stroke; fill: none; stroke: rgb(0, 191, 255); stroke-opacity: 1; stroke-width: 2px; opacity: 1;"/></g><g class="points"/><g class="text"/></g></g></g><g class="overplot"/><path class="xlines-above crisp" d="M0,0" style="fill: none;"/><path class="ylines-above crisp" d="M0,0" style="fill: none;"/><g class="overlines-above"/><g class="xaxislayer-above"><g class="xtick"><text text-anchor="middle" x="0" y="433" transform="translate(184.55,0)" style="font-family: 'Open Sans', verdana, arial, sans-serif; font-size: 12px; fill: rgb(42, 63, 95); fill-opacity: 1; white-space: pre; opacity: 1;"><tspan class="line" dy="0em" x="0" y="433">Aug 7</tspan><tspan class="line" dy="1.3em" x="0" y="433">2022</tspan></text></g><g class="xtick"><text text-anchor="middle" x="0" y="433" style="font-family: 'Open Sans', verdana, arial, sans-serif; font-size: 12px; fill: rgb(42, 63, 95); fill-opacity: 1; white-space: pre; opacity: 1;" transform="translate(306.53,0)">Aug 14</text></g><g class="xtick"><text text-anchor="middle" x="0" y="433" style="font-family: 'Open Sans', verdana, arial, sans-serif; font-size: 12px; fill: rgb(42, 63, 95); fill-opacity: 1; white-space: pre; opacity: 1;" transform="translate(428.5,0)">Aug 21</text></g><g class="xtick"><text text-anchor="middle" x="0" y="433" style="font-family: 'Open Sans', verdana, arial, sans-serif; font-size: 12px; fill: rgb(42, 63, 95); fill-opacity: 1; white-space: pre; opacity: 1;" transform="translate(550.48,0)">Aug 28</text></g></g><g class="yaxislayer-above"><g class="ytick"><text text-anchor="end" x="79" y="4.199999999999999" transform="translate(0,410.19)" style="font-family: 'Open Sans', verdana, arial, sans-serif; font-size: 12px; fill: rgb(42, 63, 95); fill-opacity: 1; white-space: pre; opacity: 1;">−140</text></g><g class="ytick"><text text-anchor="end" x="79" y="4.199999999999999" style="font-family: 'Open Sans', verdana, arial, sans-serif; font-size: 12px; fill: rgb(42, 63, 95); fill-opacity: 1; white-space: pre; opacity: 1;" transform="translate(0,368.15)">−120</text></g><g class="ytick"><text text-anchor="end" x="79" y="4.199999999999999" style="font-family: 'Open Sans', verdana, arial, sans-serif; font-size: 12px; fill: rgb(42, 63, 95); fill-opacity: 1; white-space: pre; opacity: 1;" transform="translate(0,326.11)">−100</text></g><g class="ytick"><text text-anchor="end" x="79" y="4.199999999999999" style="font-family: 'Open Sans', verdana, arial, sans-serif; font-size: 12px; fill: rgb(42, 63, 95); fill-opacity: 1; white-space: pre; opacity: 1;" transform="translate(0,284.07)">−80</text></g><g class="ytick"><text text-anchor="end" x="79" y="4.199999999999999" style="font-family: 'Open Sans', verdana, arial, sans-serif; font-size: 12px; fill: rgb(42, 63, 95); fill-opacity: 1; white-space: pre; opacity: 1;" transform="translate(0,242.04)">−60</text></g><g class="ytick"><text text-anchor="end" x="79" y="4.199999999999999" style="font-family: 'Open Sans', verdana, arial, sans-serif; font-size: 12px; fill: rgb(42, 63, 95); fill-opacity: 1; white-space: pre; opacity: 1;" transform="translate(0,200)">−40</text></g><g class="ytick"><text text-anchor="end" x="79" y="4.199999999999999" style="font-family: 'Open Sans', verdana, arial, sans-serif; font-size: 12px; fill: rgb(42, 63, 95); fill-opacity: 1; white-space: pre; opacity: 1;" transform="translate(0,157.96)">−20</text></g><g class="ytick"><text text-anchor="end" x="79" y="4.199999999999999" style="font-family: 'Open Sans', verdana, arial, sans-serif; font-size: 12px; fill: rgb(42, 63, 95); fill-opacity: 1; white-space: pre; opacity: 1;" transform="translate(0,115.92)">0</text></g></g><g class="overaxes-above"/></g></g><g class="polarlayer"/><g class="smithlayer"/><g class="ternarylayer"/><g class="geolayer"/><g class="funnelarealayer"/><g class="pielayer"/><g class="iciclelayer"/><g class="treemaplayer"/><g class="sunburstlayer"/><g class="glimages"/><defs id="topdefs-a6a7db"><g class="clips"/></defs><g class="layer-above"><g class="imagelayer"/><g class="shapelayer"/></g><g class="infolayer"><g class="g-gtitle"><text class="gtitle" x="350" y="50" text-anchor="middle" dy="0em" style="font-family: 'Open Sans', verdana, arial, sans-serif; font-size: 17px; fill: rgb(42, 63, 95); opacity: 1; font-weight: normal; white-space: pre;"><tspan class="line" dy="0em" x="350" y="50">Scenario 2</tspan><tspan class="line" dy="1.3em" x="350" y="50">Microgrid Output</tspan><tspan class="line" dy="2.6em" x="350" y="50">From: August 01, 2022 to August 31, 2022</tspan></text></g><g class="g-xtitle"><text class="xtitle" x="350" y="476.409375" text-anchor="middle" style="font-family: 'Open Sans', verdana, arial, sans-serif; font-size: 14px; fill: rgb(42, 63, 95); opacity: 1; font-weight: normal; white-space: pre;">Time</text></g><g class="g-ytitle"><text class="ytitle" transform="rotate(-90,27.168750000000003,260)" x="27.168750000000003" y="260" text-anchor="middle" style="font-family: 'Open Sans', verdana, arial, sans-serif; font-size: 14px; fill: rgb(42, 63, 95); opacity: 1; font-weight: normal; white-space: pre;">Demand (kW)</text></g></g></svg>