<svg class="main-svg" xmlns="http://www.w3.org/2000/svg" xmlns:xlink="http://www.w3.org/1999/xlink" width="700" height="500" style="" viewBox="0 0 700 500"><rect x="0" y="0" width="700" height="500" style="fill: rgb(255, 255, 255); fill-opacity: 1;"/><defs id="defs-022ae4"><g class="clips"><clipPath id="clip022ae4xyplot" class="plotclip"><rect width="432" height="320"/></clipPath><clipPath class="axesclip" id="clip022ae4x"><rect x="80" y="0" width="432" height="500"/></clipPath><clipPath class="axesclip" id="clip022ae4y"><rect x="0" y="100" width="700" height="320"/></clipPath><clipPath class="axesclip" id="clip022ae4xy"><rect x="80" y="100" width="432" height="320"/></clipPath></g><g class="gradients"/><g class="patterns"/></defs><g class="bglayer"/><g class="layer-below"><g class="imagelayer"/><g class="shapelayer"/></g><g class="cartesianlayer"><g class="subplot xy"><g class="layer-subplot"><g class="shapelayer"/><g class="imagelayer"/></g><g class="gridlayer"><g class="x"><path class="xgrid crisp" transform="translate(123.22,0)" d="M0,100v320" style="stroke: rgb(255, 255, 255); stroke-opacity: 1; stroke-width: 1px;"/><path class="xgrid crisp" transform="translate(224.05,0)" d="M0,100v320" style="stroke: rgb(255, 255, 255); stroke-opacity: 1; stroke-width: 1px;"/><path class="xgrid crisp" transform="translate(324.89,0)" d="M0,100v320" style="stroke: rgb(255, 255, 255); stroke-opacity: 1; stroke-width: 1px;"/><path class="xgrid crisp" transform="translate(425.72,0)" d="M0,100v320" style="stroke: rgb(255, 255, 255); stroke-opacity: 1; stroke-width: 1px;"/></g><g class="y"><path class="ygrid crisp" transform="translate(0,411.44)" d="M80,0h432" style="stroke: rgb(255, 255, 255); stroke-opacity: 1; stroke-width: 1px;"/><path class="ygrid crisp" transform="translate(0,367.85)" d="M80,0h432" style="stroke: rgb(255, 255, 255); stroke-opacity: 1; stroke-width: 1px;"/><path class="ygrid crisp" transform="translate(0,280.68)" d="M80,0h432" style="stroke: rgb(255, 255, 255); stroke-opacity: 1; stroke-width: 1px;"/><path class="ygrid crisp" transform="translate(0,237.09)" d="M80,0h432" style="stroke: rgb(255, 255, 255); stroke-opacity: 1; stroke-width: 1px;"/><path class="ygrid crisp" transform="translate(0,193.51)" d="M80,0h432" style="stroke: rgb(255, 255, 255); stroke-opacity: 1; stroke-width: 1px;"/><path class="ygrid crisp" transform="translate(0,149.92000000000002)" d="M80,0h432" style="stroke: rgb(255, 255, 255); stroke-opacity: 1; stroke-width: 1px;"/><path class="ygrid crisp" transform="translate(0,106.33)" d="M80,0h432" style="stroke: rgb(255, 255, 255); stroke-opacity: 1; stroke-width: 1px;"/></g></g><g class="zerolinelayer"><path class="yzl zl crisp" transform="translate(0,324.27)" d="M80,0h432" style="stroke: rgb(255, 255, 255); stroke-opacity: 1; stroke-width: 2px;"/></g><path class="xlines-below"/><path class="ylines-below"/><g class="overlines-below"/><g class="xaxislayer-below"/><g class="yaxislayer-below"/><g class="overaxes-below"/><g class="plot" transform="translate(80,100)" clip-path="url(#clip022ae4xyplot)"><g class="scatterlayer mlayer"><g class="trace scatter traceb205b9" style="stroke-miterlimit: 2; opacity: 0.5;"><g class="fills"/><g class="errorbars"/><g class="lines"><path class="js-line" d="M0,238.29L0.15,228.72L0.3,245.08L0.75,237.69L0.9,231L1.05,238.7L1.65,234.15L1.8,228.73L1.95,240.92L2.1,228.28L2.4,235.54L2.55,227.9L3.15,226.75L3.3,235.86L3.45,227.13L3.75,235.15L3.9,226.67L4.2,231.61L4.35,227.77L4.5,233.7L4.95,224.98L5.1,224.27L5.25,224.27L5.4,176.49L5.85,222.3L6,160.58L6.15,199.71L6.3,179.34L6.75,191.87L7.05,182.78L7.2,183.91L7.5,207.75L7.65,160.22L7.95,144.01L8.1,204.91L8.4,199.33L8.55,180.68L9,216.94L9.15,230.52L9.45,253.02L10.05,215.66L10.2,222.11L10.35,224.27L10.5,250.14L10.65,230.73L11.1,267.53L11.25,239.86L11.4,271.31L11.55,243.67L12.15,256.46L12.3,245.48L12.45,263.54L12.6,233.16L13.05,262.27L13.2,233.77L13.35,259.57L13.8,232.8L13.95,254.14L14.1,231.73L14.25,249.36L14.86,241.04L15.01,230.96L15.16,238L15.61,237.66L15.76,227.81L15.91,238.67L16.51,237.29L16.66,229.43L17.11,227.61L17.26,236.42L17.41,228.37L17.56,236.66L18.01,227.22L18.16,235.47L18.31,227.07L18.76,240.82L19.06,229.6L19.21,225.6L19.66,224.27L19.81,213.22L19.96,220.12L20.11,198.08L20.26,208.15L20.41,201.17L21.31,163.76L21.46,192.7L22.21,148.11L22.36,198L22.51,163.36L22.96,218.96L23.11,225.16L23.56,216.1L23.86,240.65L24.01,228.54L24.46,247.19L24.61,212.13L24.76,219.8L25.96,257.68L26.11,241.44L26.71,233.14L26.86,263.91L27.01,234.16L27.31,232.26L27.46,256.59L27.76,250.14L27.91,230.73L28.06,247.74L28.66,245.73L28.81,229.51L28.96,250.44L29.56,231.76L29.71,235.88L29.86,235.19L30.01,229.96L30.61,227.89L30.76,241.09L30.91,228.47L31.66,237.34L31.81,228.09L32.26,226.36L32.41,237.13L32.56,227.85L33.01,243.07L33.31,236.21L33.46,227.25L34.51,202.97L34.66,193.77L34.81,200.91L34.96,185.33L35.11,194.14L35.26,182.47L35.41,188.65L35.56,171.12L35.71,187.99L35.86,169.62L36.01,171.15L36.16,182.11L36.61,161.58L36.76,198.15L36.91,148.73L37.36,207.13L37.51,156.37L37.66,207.29L38.11,164.4L38.26,218.71L38.41,185.56L38.56,214L38.71,208.73L39.01,224.27L39.16,224.27L40.21,254.96L40.36,248.86L40.51,249.4L40.81,245.24L40.96,255.56L41.11,244.42L41.26,257.2L41.41,231.67L41.86,248.13L42.01,236.4L42.16,242.87L42.61,238.87L42.76,231.89L43.06,230.14L43.22,240.77L43.52,236.67L43.67,231.25L43.97,228.55L44.12,241.75L44.42,238.47L44.57,232.84L45.02,234.36L45.17,231.54L45.32,235.15L45.77,234.64L45.92,229.12L46.22,234.82L46.52,234.52L46.67,227.37L46.82,243.59L47.42,241.61L47.57,228.6L47.72,233.93L48.17,224.54L48.32,217.14L48.47,215.54L48.62,222.53L48.77,224.27L48.92,184.35L49.07,188.07L49.22,172.08L49.97,213.14L50.12,178.79L50.27,205.77L50.42,168L50.87,185.16L51.02,156.89L51.92,236.04L52.07,176.31L52.22,255.52L52.37,150.15L52.82,239.02L52.97,167.76L53.72,243.84L53.87,235.51L54.02,245.44L54.17,243.18L54.32,248.34L54.47,243.25L54.62,250.33L55.52,237.95L55.67,254.39L56.42,229.36L56.57,244.98L57.02,228.32L57.17,248.23L57.32,230.26L57.47,243.6L57.62,229.1L58.22,235.39L58.37,232.73L58.82,239.7L58.97,227.97L59.12,237.92L59.27,230.44L59.87,234.9L60.02,230.45L60.17,237.31L60.32,227.29L60.62,236.05L60.77,226.62L61.22,241.03L61.67,236.66L61.82,228.55L61.97,237.5L62.42,224.37L62.57,224.27L63.02,214.14L63.17,217.02L63.32,195.81L63.47,205.95L63.92,189.99L64.07,191.66L64.82,168.52L64.97,191.29L65.57,206.1L65.72,146.42L65.87,204.8L66.17,206.52L66.32,149.65L66.62,169.72L66.77,210.63L66.92,176.6L67.37,217.6L67.52,207.71L67.67,220.13L68.87,253.97L69.02,253.51L69.17,241.67L69.47,234.01L69.62,266.31L69.92,264.61L70.07,234.35L70.22,255.49L70.67,230.7L70.82,243.49L70.97,236.54L71.12,233.84L71.27,247.11L71.42,229.49L71.57,248.77L72.03,229.68L72.18,242.16L72.78,230.76L72.93,244.53L73.08,229.07L73.23,245.82L73.68,229.62L73.83,245.53L74.58,228.95L74.73,240.8L75.63,227.93L75.78,241.26L75.93,228.51L76.23,245.78L76.38,229.53L76.53,252.75L77.43,217.1L77.58,222.47L78.63,185.98L78.78,191.58L79.23,162.06L79.38,199.84L79.53,162.61L79.68,190.46L79.83,171.52L79.98,198.69L80.43,183.61L80.58,194.43L80.73,182.99L80.88,208.65L81.03,198.2L81.18,206.64L81.33,207.89L81.48,217.61L81.63,200.74L81.93,224.27L82.08,224.27L82.23,224.27L83.28,256.32L83.43,250.52L83.58,250.9L83.73,253.33L83.88,243.97L84.03,258.86L84.33,265.07L84.78,232.2L84.93,251.93L85.08,232.9L85.68,245.26L85.83,233.07L86.13,231.13L86.28,257.51L86.58,247.12L86.73,229.98L86.88,246.55L87.33,229.21L87.48,237.86L87.63,232.57L87.93,235.99L88.08,228.73L88.23,241.42L89.13,228.23L89.28,241.69L89.43,228.62L90.03,233.15L90.18,228.94L90.78,242.1L91.08,241.5L91.23,228.77L91.53,225.85L91.68,224.41L91.83,224.27L91.98,217.52L92.13,222.58L92.28,209.9L92.43,220.46L92.58,197.88L92.73,217.68L92.88,180.55L93.03,213.34L93.18,168.52L93.33,210.33L93.93,190.3L94.08,167.26L94.23,206.59L94.83,201.76L94.98,197.09L96.03,224.27L96.18,221L96.93,242.72L97.08,228.82L97.53,270.64L97.83,266.51L97.98,237.28L98.13,260.85L98.73,249L98.88,246.79L99.18,247.86L99.78,237.2L99.93,243.33L100.84,224.27L100.99,224.27L106.24,224.27L106.39,204.81L106.84,189.05L106.99,197.4L107.14,210.51L107.29,222.05L107.44,165.72L107.74,206.22L107.89,146.91L108.19,175.57L108.34,161.27L108.64,159.37L108.94,215.18L109.24,210.2L109.39,170L109.69,213.43L109.84,160.2L110.29,209.79L110.44,188.6L111.34,248.43L111.49,230.11L112.39,260.73L112.54,232.43L112.99,275.64L113.29,260.62L113.44,233.35L113.59,256.39L114.04,232.15L114.19,254.37L114.34,231.79L114.49,253.13L114.94,231.2L115.09,251.44L115.24,231.06L116.14,224.27L116.29,224.27L121.09,224.27L121.24,222.46L121.69,206.78L121.84,219.89L121.99,224.27L122.29,224.25L122.44,202.86L123.19,232.2L123.34,226.25L123.49,233.13L124.39,224.27L124.54,224.27L135.05,224.27L135.2,222.62L135.65,224.27L135.8,218.64L136.55,224.27L136.7,200.42L137.15,218.02L137.3,195.45L137.45,217.06L137.6,173.6L137.9,170.36L138.35,237.82L138.5,211.69L138.65,246.8L139.55,221.19L139.7,223.5L140,228.55L140.15,229.81L140.6,247.74L141.05,247.29L141.2,244.42L142.1,224.27L142.25,224.27L149.15,224.27L149.3,213.2L149.45,211.04L149.6,211.7L149.75,189.65L149.9,203.17L150.05,127.13L150.2,196.88L150.35,121.28L150.8,176.95L150.95,139.33L151.55,125.69L151.7,199.95L151.85,125.28L152.6,200.87L152.75,166.37L153.35,224.41L153.65,224.27L153.8,166.13L154.4,253.59L154.7,236.82L154.85,232.13L155.45,245.81L155.75,243.95L155.9,241.9L156.2,249.69L156.65,229.83L156.8,241.43L156.95,230.83L157.55,238.26L157.7,231.48L158,239.32L158.15,227.56L158.3,238.99L158.91,234.34L159.06,229.11L159.21,241.56L159.36,228.42L159.66,232.68L159.81,225.59L160.26,238.86L160.56,236.06L160.71,227.45L160.86,238.55L161.31,227.39L161.46,236.56L161.61,227.34L161.76,237.5L162.36,230.26L162.51,226.84L162.81,239.07L163.26,229.04L163.41,224.99L163.56,229.06L163.86,224.27L164.01,224.27L164.16,210.12L164.31,219.57L164.61,197.08L164.76,210.64L164.91,186.83L165.06,215.41L165.21,146.89L165.51,193.07L165.66,178.65L165.81,189.09L166.11,173.18L166.26,187.76L166.41,164.51L166.86,231L167.01,143.09L167.16,202.81L167.31,160.11L168.21,221.25L168.36,237.78L168.51,247.17L168.81,224.27L168.96,214.23L169.86,244.53L170.16,240.26L170.31,236.73L170.46,241.54L170.76,235.55L170.91,240.54L171.06,230.02L171.21,243.57L171.36,228.95L171.81,235.05L171.96,233.72L172.11,235.58L172.26,228.06L172.41,240.73L173.01,228.76L173.16,236.26L173.91,226.22L174.06,240.58L174.66,226.3L174.81,233.08L174.96,231.42L175.41,234.23L175.56,226.34L175.71,231.55L175.86,231.21L176.01,232.01L176.16,225.88L176.31,237.13L176.91,231.69L177.06,234.82L177.36,238.75L177.96,224.33L178.11,216.87L178.26,222.42L178.56,210.2L178.71,205.82L179.46,147.18L179.76,159.16L179.91,192.38L180.06,158.56L180.36,206.11L180.51,194.93L180.66,217.59L180.81,190.62L181.26,216.97L181.41,224.27L181.56,224.27L181.71,206.35L181.86,212.15L182.01,206.47L182.16,186.25L182.31,215.75L182.46,154.74L182.91,212.31L183.06,201.74L184.11,256.53L184.26,231.79L184.41,256.67L185.01,246.95L185.16,239.45L185.46,229.84L185.61,253.55L185.91,251.91L186.06,231.18L186.21,250.43L186.66,230.38L186.81,246.49L186.96,233L187.11,243.21L187.57,227.56L187.72,238.17L187.87,227.74L188.32,226.58L188.47,234.82L188.62,226.8L188.77,232.58L188.92,226.74L189.37,228.68L189.52,226.88L189.67,230.39L189.82,225.73L190.27,229.45L190.42,226.5L190.72,229.35L190.87,226.74L191.17,228.72L191.92,224.27L192.07,212.8L192.22,215.03L192.37,196.92L192.52,200.84L192.67,187.95L192.82,182.04L192.97,181.44L193.12,174.9L193.42,150.89L193.72,152.08L193.87,185.41L194.62,144.88L194.77,170.59L195.37,178.37L195.52,143.55L195.67,173.53L196.27,175.21L196.42,149.51L196.57,177.25L196.72,153.7L196.87,192.04L197.02,161.1L197.17,206.6L197.32,177.4L197.77,218.2L197.92,224.27L198.07,224.27L198.22,227.63L198.52,241.43L198.97,239.41L199.12,232.43L199.42,239.65L199.57,228.94L200.17,227.23L200.32,238.68L200.47,227.87L200.77,226.98L200.92,237.96L201.22,229.01L201.37,225.56L201.52,239.05L202.12,238.63L202.27,227.86L202.42,232.68L202.87,226.86L203.02,230.89L203.17,225.86L203.32,237.42L203.92,227.39L204.07,229.23L204.52,232.67L204.67,226.2L204.82,229.45L205.12,231.09L205.27,225.89L205.42,226.93L205.57,230.72L206.62,224.27L206.77,224.27L207.07,170.4L207.22,216.69L208.12,153.12L208.27,157.65L208.87,160.94L209.02,146.81L209.17,173.99L209.92,141.18L210.07,180.01L210.22,129.91L210.67,224.27L210.82,224.27L212.47,224.27L212.62,237.08L212.77,228.19L212.92,251.08L213.07,230.92L213.22,247.72L213.67,229.21L213.97,237.91L214.12,243.31L214.87,227.95L215.02,237.51L215.32,239.07L215.47,227.86L215.77,228.27L215.92,231.24L216.68,225.44L216.83,228.09L217.28,228.56L217.58,224.27L217.73,226.12L217.88,224.73L218.03,230.69L218.33,224.27L218.93,225.06L219.08,224.27L219.53,227.53L219.68,225.08L219.83,224.27L220.58,224.27L220.73,220.29L222.08,150.63L222.23,168.64L222.38,131.82L222.68,224.27L222.83,224.27L227.03,224.81L227.18,238.44L227.48,243.43L227.93,228.8L228.08,241.7L228.38,243.6L229.13,228.64L229.28,228.59L229.43,232.22L229.58,226.03L229.88,232.19L230.03,225.97L230.78,231.81L230.93,226.15L231.38,224.5L231.53,232.23L231.68,226.26L231.83,224.27L231.98,230.96L232.58,225.34L232.73,224.66L233.33,224.39L233.48,226.21L233.63,224.75L234.08,224.27L234.23,225.17L234.38,228.17L235.28,224.27L235.43,224.27L235.88,224.27L236.03,216.32L236.18,222.21L236.33,210.29L236.48,213.77L236.63,194.95L236.78,199.67L236.93,180.36L237.08,190.77L237.23,160.57L237.38,190.76L237.53,122.34L238.43,224.27L238.58,224.27L241.13,224.27L241.28,227.57L242.33,243.77L242.48,231.56L242.63,242.53L243.23,234.4L243.38,237.52L243.83,231.79L244.28,232.37L244.43,234.1L245.64,224.82L245.79,229.92L246.69,224.42L246.84,224.3L246.99,226.89L247.44,224.75L247.59,224.27L248.04,225.8L248.19,224.65L248.34,230.3L248.64,224.27L249.24,224.45L249.39,224.27L249.69,224.27L249.84,214.29L249.99,215.76L250.14,151.77L250.29,206.52L250.74,134.39L250.89,177.19L251.04,125.28L251.94,224.27L252.09,224.27L255.69,224.27L255.84,233.63L255.99,226.95L256.14,241.38L256.29,228.52L256.44,242.12L257.19,226.82L257.34,237.31L257.79,225.7L258.24,227.38L258.39,232.9L259.14,225.12L259.29,225.71L259.44,226.71L260.04,224.27L260.19,227.88L260.49,229.44L260.79,224.27L260.94,228.29L261.54,224.27L261.84,224.73L261.99,224.27L262.29,224.27L262.44,226.06L263.04,224.27L263.19,225.52L263.34,225.46L263.94,224.27L264.09,226.39L264.54,224.27L264.69,214.46L265.44,151.76L265.59,207.66L266.49,224.27L266.64,224.27L270.09,224.27L270.24,230.29L270.84,228.72L270.99,243.65L271.14,229.11L271.44,227.93L271.59,239.11L271.89,231.09L272.04,228.29L272.49,229.66L272.64,225.32L272.79,232.47L273.24,225.07L273.54,226.29L273.7,226.14L274,228.57L274.45,224.67L274.6,226.7L275.5,224.27L275.65,224.44L275.8,224.31L275.95,227.07L276.55,225.95L276.7,224.69L277,224.27L277.15,226.44L278.05,224.27L278.2,224.27L278.35,224.27L278.5,208.96L278.65,220.44L279.1,201.36L279.25,178.22L279.55,175.96L280.6,224.27L280.75,224.27L284.35,224.27L284.5,230.21L285.25,255.29L285.4,232.02L285.55,258.52L286.15,252.36L286.3,231.29L286.45,251.91L286.6,231.18L287.05,234.42L287.2,232.24L287.35,240.67L287.8,228.37L287.95,230.15L288.7,225.34L288.85,225.66L289,226.24L289.15,230.11L289.45,224.27L289.6,227.79L289.75,225.15L290.05,224.27L290.2,226.38L290.35,224.79L290.5,225.38L291.1,226.28L291.4,224.27L291.55,224.27L291.85,225.65L292.3,224.27L292.45,224.27L292.75,224.27L292.9,218.28L293.35,198.94L293.5,183.85L293.65,189.61L293.8,168.29L293.95,188.28L294.1,152.32L294.4,140.46L295.3,224.27L295.45,224.27L298.9,224.27L299.05,229.04L299.8,241.04L299.95,228.89L300.1,237.3L300.55,230.62L300.7,226.46L300.85,230.89L301,225.86L301.3,228.09L301.45,224.94L301.6,230.77L302.05,227.2L302.2,224.89L302.35,227.95L302.81,227.09L302.96,224.9L303.56,224.27L303.71,226.84L303.86,224.91L304.31,225.28L304.76,224.27L304.91,224.27L306.71,224.27L306.86,226.57L307.46,213.29L307.61,193.15L307.76,190.85L307.91,175.99L308.06,178.15L308.21,163.51L309.11,224.27L309.26,224.27L313.16,224.89L313.31,241.64L313.46,232.8L313.61,253.7L314.06,241.12L314.21,245.73L314.51,250.88L314.66,230.34L314.81,254.01L315.56,230.17L315.71,246.18L316.01,247.32L316.46,228.97L316.61,235.55L317.66,224.84L317.81,230.26L318.41,224.27L318.71,224.83L318.86,224.27L319.46,229.94L319.61,225.68L319.76,224.37L320.66,224.27L320.81,225.35L321.11,224.27L321.26,227.29L322.01,212.51L322.16,199.03L323.51,153.24L323.66,159.64L323.81,160.89L323.96,153.99L324.11,209.88L325.01,224.27L325.16,224.27L327.41,224.27L327.56,225.38L328.16,245.35L328.31,239.95L328.46,238.15L328.76,244.23L328.91,228.4L329.06,249.99L329.66,243.89L329.81,236.56L329.96,241.57L330.26,238.99L330.41,227.59L330.56,235.74L331.01,233.37L331.16,226.23L331.32,236.99L331.92,234.83L332.07,226.91L332.22,236.33L332.67,228.53L332.82,225.04L332.97,233.71L333.57,229.97L333.72,225.69L334.17,231.63L334.32,226.11L334.47,224.6L335.37,230.1L335.52,225.69L336.27,216.48L336.42,201.43L336.57,205.13L336.72,187.68L336.87,193.75L337.02,168.21L337.17,190.51L337.32,155.08L337.47,186.04L337.62,138.71L337.92,138.5L338.67,224.27L338.82,224.27L341.67,224.27L341.82,230.94L341.97,225.93L342.12,253.16L342.27,231.49L342.42,260.43L342.87,244L343.02,243.97L343.17,245.49L343.32,239.53L343.47,250.17L344.37,238.23L344.52,238.22L344.82,237.44L344.97,233.6L345.27,228.59L345.42,244.58L345.57,229.32L345.72,232.16L345.87,226.97L346.47,227.12L346.62,232.02L347.37,225.91L347.52,229.59L347.97,225.39L348.12,230.62L348.42,225.52L348.57,227.25L348.87,231.09L349.17,224.95L349.32,227.38L349.92,224.5L350.07,227.85L350.52,224.27L350.67,202.62L350.82,218.03L350.97,182.6L351.12,207.98L351.27,172.53L351.42,192.3L351.57,156.11L351.72,190.76L351.87,145.48L352.02,181.83L352.47,133.55L352.62,176.98L352.77,137.54L353.67,224.27L353.82,224.27L355.92,224.27L356.07,228.65L356.82,248L356.97,236.33L357.42,248.57L357.57,230.01L357.72,247.26L357.87,230.42L358.02,245.4L358.62,237.49L358.77,227.19L358.92,242.6L359.52,233.19L359.67,231.07L359.97,228.6L360.13,234.23L360.28,226.56L360.88,227.42L361.03,230.16L361.48,225.83L361.63,232.14L361.78,226.23L361.93,230.82L362.23,224.27L362.38,233.91L362.83,225.1L362.98,227.66L363.13,225.11L363.28,231.63L363.73,225.23L363.88,226.81L364.18,225.1L364.33,229.5L364.48,228.28L364.63,226.73L365.38,216.05L365.53,204.29L365.83,195.43L365.98,191.08L367.18,158.56L367.33,173.77L367.48,159.77L367.63,162.29L367.78,212.23L368.68,224.27L368.83,224.27L370.48,224.27L370.63,230.26L370.78,225.76L370.93,260.35L371.08,234L371.68,238.3L371.83,240.93L371.98,242.88L372.13,238.94L372.43,242.35L372.58,233.83L372.88,227.92L373.03,243.24L373.33,239.84L373.48,228.16L373.93,238.51L374.23,237.6L374.38,227.56L374.53,241.29L375.13,237.94L375.28,227.68L375.43,236.04L375.88,226.41L376.03,231.85L376.18,226.16L376.48,226.03L376.63,234.01L376.93,230.75L377.08,225.89L377.53,225.55L377.68,230.2L377.83,225.75L378.28,225.39L378.43,229.74L378.58,225.63L378.88,231.81L379.03,225.96L379.18,224.68L379.48,223.22L379.63,211.17L379.78,210.02L379.93,193.98L380.08,208.72L380.23,182.22L380.38,196.39L380.53,174.38L380.68,181.83L381.13,168L381.28,164.66L381.58,166.45L381.73,165.29L381.88,158.19L382.93,224.27L383.08,224.27L385.03,224.27L385.18,234.78L385.33,235.42L385.48,247.19L385.78,249.66L386.23,236.73L386.38,246.32L387.13,232.06L387.28,238.77L387.43,228.86L388.03,232.14L388.18,231.36L388.78,228.97L388.94,237.81L389.09,227.54L389.24,241.03L389.84,235.61L389.99,227.1L390.14,236.66L390.74,232.3L390.89,226.52L391.04,227.39L391.19,233.3L391.49,234.81L392.09,225.95L392.24,228.32L392.69,226.18L392.84,226.8L392.99,228.69L393.29,233.53L393.89,224.27L394.04,224.27L395.39,153.69L395.54,199.46L395.84,204.24L395.99,134.3L396.29,134.84L396.44,192.31L396.59,144.9L396.89,224.27L397.04,224.27L397.19,224.27L399.14,224.27L399.29,225.11L399.44,225.22L399.59,249.17L399.74,231.21L399.89,261.94L400.34,243.23L400.49,252.08L400.79,253.62L400.94,237.33L401.24,242.19L401.39,246.06L401.99,234.38L402.14,248.67L402.29,229.98L402.44,254.08L402.89,231.44L403.04,253.98L403.79,227.52L403.94,234.25L404.39,237.87L404.99,226.18L405.14,235.06L405.74,225.6L405.89,229.35L406.04,227.92L406.19,224.87L406.34,230.63L406.79,227.52L406.94,226.19L407.09,227.94L407.39,224.85L407.54,243.65L408.59,204.57L408.74,211.19L409.64,162.44L409.79,186.78L410.24,146.54L410.54,158.16L410.69,163.69L411.29,179.6L411.44,163.53L412.49,224.27L412.64,224.27L413.99,224.27L414.14,231.8L414.44,228.76L414.89,249.52L415.04,230.58L415.19,245.72L415.64,228.42L415.79,237.39L415.94,229.52L416.39,228.47L416.84,236.91L416.99,226.98L417.14,233.28L417.29,226.52L417.75,229.69L417.9,226.44L418.05,231.98L418.2,226.14L418.5,226.71L418.65,225.81L418.8,233.18L419.4,225.81L419.55,226.03L419.85,225.01L420,227.61L420.15,225.1L420.3,224.27L420.45,228.83L421.05,224.76L421.2,227.06L422.1,224.27L422.25,224.27L422.55,224.27L422.7,210.28L423.9,150.65L424.05,168.08L424.2,141.57L424.35,206.11L424.5,224.27L428.25,224.27L428.4,233.26L428.55,232.17L428.7,245.74L429,247.56L429.15,234.59L429.45,236.07L429.6,243.55L430.35,235.2L430.5,236.26L430.65,235.12L430.8,236.29L430.95,232.21L431.1,235.39L431.25,233.28L431.4,235.59L431.55,232.08L431.7,235.08L431.85,230.85L432,246.79" style="vector-effect: non-scaling-stroke; fill: none; stroke: rgb(0, 191, 255); stroke-opacity: 1; stroke-width: 2px; opacity: 1;"/></g><g class="points"/><g class="text"/></g><g class="trace scatter trace2012f6" style="stroke-miterlimit: 2; opacity: 0.5;"><g class="fills"/><g class="errorbars"/><g class="lines"><path class="js-line" d="M0,224.52L3.75,224.3L3.9,223.34L4.8,201.59L4.95,175.11L5.1,189.41L5.25,171.86L5.4,103.74L5.85,144.87L6,37.95L6.45,49.58L6.6,43.44L6.75,38.24L7.2,23.95L7.35,39.68L7.5,55.3L7.8,17.4L8.4,19.09L8.55,31.29L8.7,26.55L8.85,33.95L9,71.4L9.45,154.04L9.75,133.09L9.9,124.28L10.05,101.31L10.35,146.97L10.5,178.11L10.65,178.24L10.8,201.33L10.95,200.89L11.1,209.06L12,224.54L12.15,224.54L18.16,224.28L18.31,223.43L19.06,192.96L19.21,180.64L21.76,22.72L21.91,20.39L22.21,17.54L22.36,18.4L22.51,35.56L23.26,156.95L23.41,126.16L23.56,101.57L24.31,194.38L24.46,183.57L24.61,139.1L24.76,134.42L24.91,151.33L25.06,161.92L26.11,224.54L26.26,224.54L32.56,224.36L32.71,223.63L33.31,205.78L33.46,194.3L36.31,20.49L36.46,17.95L36.61,17.63L36.76,17.9L36.91,19.94L37.36,22.95L37.51,35.06L37.66,27.66L37.81,48.79L37.96,44.2L38.11,53.6L40.36,224.47L40.51,224.54L46.97,224.38L47.12,223.72L48.02,184.82L48.17,162.01L48.62,167.89L49.67,40.57L49.82,58.99L49.97,94.48L51.02,16.66L51.17,16.8L51.32,16.76L51.62,17.12L51.77,28.59L52.22,118.98L52.52,76.55L52.67,78.52L54.17,216.63L54.32,219.38L55.22,224.55L55.37,224.55L61.37,224.36L61.52,223.67L62.12,204.67L62.27,192.18L64.82,25.62L64.97,23.32L65.57,18.12L65.72,21.96L65.87,26.17L66.02,25.6L66.17,28L67.37,87.88L67.52,100.43L69.47,224.54L69.62,224.54L75.78,224.4L75.93,223.75L76.53,204.43L76.68,192.28L79.23,29.39L79.38,25.21L79.83,19.09L80.13,20.77L80.28,22.86L80.58,25.7L80.73,31.27L82.08,118.94L82.23,133.47L83.88,224.53L84.03,224.53L90.33,223.88L90.48,221.41L91.23,181.51L91.38,169.08L93.78,31.78L93.93,27.14L95.13,44.42L95.28,47.4L95.73,64.26L95.88,99.19L96.03,99.6L96.18,92.97L96.48,129.54L96.63,175.6L97.08,187.79L97.23,198.58L98.28,224.53L98.43,224.53L105.04,224.01L105.19,222.83L105.79,199.4L105.94,182.61L106.99,48.01L107.14,81.53L107.29,107.14L108.04,18.73L108.19,36.61L108.34,26.29L108.94,117.76L109.24,66.51L109.39,56.26L109.54,55.28L109.69,101.47L109.84,30.09L110.44,82.23L110.59,131.58L111.79,216.29L111.94,219.85L112.84,224.53L112.99,224.53L119.14,223.99L119.29,221.6L121.69,125.65L121.84,140.86L122.14,164.61L122.29,148.64L122.44,117.51L122.74,154.93L122.89,164.79L123.94,204.37L124.09,203.99L124.24,199.07L124.69,190.9L124.84,194.84L124.99,204.05L125.14,201.03L125.29,209.75L125.44,214.84L125.59,213.99L125.89,216.25L126.04,218.05L127.09,224.53L127.24,224.53L133.4,224.42L133.55,222.77L135.05,176.35L135.2,175.23L135.5,186.74L135.65,163.44L135.8,160.19L136.25,176.4L136.4,161.5L136.55,146.5L137.75,86.66L137.9,84.8L138.2,104.09L138.35,149.06L139.1,191.18L139.25,178.01L139.4,166.04L139.55,160.59L139.85,176.13L140,180.64L141.35,224.54L141.5,224.53L147.95,224L148.1,221.27L149.15,168.74L149.3,154.97L150.5,16L150.95,16.22L151.1,16.2L152.45,16.27L152.6,20.13L153.2,176.42L153.65,144.47L153.8,72.09L155.15,218.32L155.3,224.39L157.85,224.53L158,224.54L162.36,223.93L162.51,221.86L163.56,189.32L163.71,156.2L164.31,141.06L164.46,130.74L166.11,27.82L166.26,27.88L166.56,20.43L166.71,24.33L166.86,93.38L167.16,16.4L167.61,45.28L167.76,38.64L168.51,207.73L168.66,192.61L168.81,158.23L169.11,139.66L169.26,163.2L169.41,184.5L170.31,224.55L170.46,224.55L176.76,224.18L176.91,222.15L177.96,164.98L178.11,153.44L178.86,99.11L179.01,85.24L179.16,84.49L179.31,76.18L179.61,17.18L180.06,37.22L180.21,39.88L180.66,120.6L181.11,118.45L181.26,126.38L181.41,161.1L181.86,98.08L182.01,99.58L182.31,109.14L182.46,44.37L182.76,78.18L182.91,91.78L184.71,224.54L184.86,224.54L190.57,224.53L190.72,224.53L191.02,224.42L191.17,223.71L191.92,183.38L192.07,165.95L193.57,21.32L193.87,40.99L194.02,37.53L194.47,16.41L194.92,16.59L195.07,16.59L196.42,16.79L196.57,17.61L197.32,83.25L197.47,101.85L199.12,224.55L199.27,224.55L204.97,224.53L205.12,224.53L205.57,224.14L205.72,222.07L206.77,166.54L206.92,138.46L207.97,16.66L208.12,16.31L210.82,16.77L210.97,17.76L211.87,107.03L212.02,125.84L213.52,224.55L213.67,224.54L219.83,224.46L219.98,223.65L220.73,182.6L220.88,164.05L222.53,16.21L222.83,16.45L222.98,16.55L225.23,16.82L225.38,19.18L226.73,166.66L226.88,185.26L227.93,224.54L228.08,224.54L234.53,223.9L234.68,222.07L236.33,167.81L236.48,152.41L237.83,16L238.43,16.1L238.58,16.1L239.63,16.77L239.78,21.71L242.33,224.54L242.48,224.53L248.94,223.91L249.09,221.02L249.69,192.77L249.84,176.92L251.34,16.16L251.49,16.19L251.64,16.31L253.89,16.47L254.04,16.67L254.49,47.44L254.64,62.37L256.74,224.55L256.89,224.53L263.19,224.13L263.34,221.86L264.54,161.45L264.69,141.08L265.89,16.14L266.04,16.34L267.84,16.66L267.99,16.73L268.44,17.32L268.59,24.54L270.99,224.55L271.14,224.54L271.29,224.53L277.6,223.99L277.75,219.12L278.5,152.98L278.65,140.02L280.15,16.2L280.75,16.48L280.9,16.51L282.7,16.78L282.85,18.3L283.9,118.28L284.05,136.61L285.4,224.54L285.55,224.54L292,224.03L292.15,222.12L292.75,187.09L292.9,167.99L294.55,16.44L294.85,16.49L295,16.54L297.1,16.88L297.25,17.71L298.3,117.32L298.45,136.27L299.8,224.54L299.95,224.54L306.41,224.05L306.56,222.62L307.16,190.7L307.31,169.93L308.96,16.34L309.11,16.37L309.26,16.58L311.51,17.26L311.66,19.12L312.86,139.98L313.01,159.09L314.21,224.54L314.36,224.55L320.81,224.19L320.96,223.33L321.56,194.33L321.71,174.76L323.66,16.64L323.81,16.83L323.96,16.93L325.76,17.8L325.91,24.94L327.11,128.93L327.26,147.01L328.61,224.55L328.76,224.55L335.22,224.26L335.37,223.54L335.97,195.86L336.12,177.62L338.07,16.28L338.22,16.37L338.37,16.51L340.17,17.17L340.32,22.45L341.67,149.29L341.82,167.1L343.02,224.54L343.17,224.54L349.62,224.26L349.77,223.55L350.37,196.16L350.52,178.06L352.47,16.15L352.62,16.23L352.77,16.2L354.12,16.66L354.27,16.67L354.57,17.8L354.72,23.78L355.62,99.09L355.77,120.85L357.12,224.55L357.27,224.55L364.03,224.27L364.18,223.52L364.93,179.27L365.08,161.69L366.88,16.5L367.03,16.57L367.18,16.64L368.83,17.14L368.98,18.02L369.73,70.84L369.88,84.83L371.83,224.54L371.98,224.54L378.43,224.28L378.58,223.51L379.18,196.74L379.33,178.87L381.28,16.52L381.43,16.74L383.23,17.23L383.38,19.7L383.98,67.85L384.13,82.84L385.63,224.28L385.78,224.48L387.88,224.52L388.03,224.52L392.84,224.41L392.99,223.7L393.59,198.3L393.74,181.88L395.84,16.52L395.99,16.72L397.64,17.47L397.79,20.33L398.99,125.15L399.14,140.44L400.64,224.54L400.79,224.54L407.24,224.41L407.39,223.72L408.14,182.29L408.29,164.98L410.24,16.46L410.39,16.72L412.04,16.91L412.19,18.28L413.09,85.76L413.24,101.37L414.89,224.54L415.04,224.55L421.65,224.38L421.8,223.29L422.7,153.63L422.85,123.94L424.2,25.42L424.35,18.46L424.8,16.3L425.1,16.43L425.25,16.52L426.45,17.02L426.6,20.54L427.8,122.97L427.95,140.51L429.3,224.54L429.45,224.54L432,224.53" style="vector-effect: non-scaling-stroke; fill: none; stroke: rgb(255, 0, 0); stroke-opacity: 1; stroke-width: 2px; opacity: 1;"/></g><g class="points"/><g class="text"/></g><g class="trace scatter traceb696ad" style="stroke-miterlimit: 2; opacity: 0.5;"><g class="fills"/><g class="errorbars"/><g class="lines"><path class="js-line" d="M0,269.85L0.15,269.71L0.3,263.06L0.45,272.04L0.6,260.86L1.05,264.3L1.2,270.77L1.95,262.26L2.1,264.68L2.25,260.55L2.4,268.12L2.7,260.96L2.85,266.91L3.6,259.4L3.75,263.25L4.2,265.32L4.8,255.46L4.95,239.38L5.1,256.03L5.4,215.38L5.55,208.92L5.85,236.65L6,207.85L6.15,160.87L6.3,202.97L6.9,190.67L7.05,178.36L7.65,198.13L7.8,158.1L8.25,207.37L8.55,202.45L8.7,177.47L9.45,256.84L9.75,251.67L9.9,234.49L10.05,223.31L10.35,253.36L10.5,262.53L11.25,301.73L11.4,273.59L11.55,303.51L12.15,288.56L12.3,287.43L13.05,264.92L13.2,280.62L13.5,282.87L13.95,264.27L14.1,284.78L14.25,264.17L14.86,273.04L15.01,271.01L15.91,261.46L16.06,271.5L16.81,261.94L16.96,266.98L17.26,261.31L17.41,269.08L18.16,259.1L18.31,261.89L18.46,260.65L18.61,269.54L18.76,270.05L18.91,266.76L21.01,180.92L21.16,183.07L21.31,184.05L21.46,165.42L21.61,190.2L21.76,157.96L22.21,189.8L22.36,152.04L23.26,256.38L23.41,232.71L23.71,221.69L23.86,258.19L24.31,277.34L24.46,257.28L24.61,242.38L24.76,233.67L25.06,255.36L25.21,262.6L26.11,289.76L26.26,273.92L26.71,292.11L26.86,265.31L27.01,279.34L27.16,263.88L27.76,263.28L27.91,281.18L28.06,262.93L28.21,280.48L28.81,278.23L28.96,262.15L29.26,261.47L29.41,272.59L29.71,265.92L29.86,268.33L30.16,263.7L30.31,271.33L30.46,260.28L31.06,260.35L31.21,269.82L31.96,261.17L32.11,267.52L32.41,260.3L32.56,270.09L33.16,270.41L33.91,223.9L34.06,223.32L35.71,171.34L35.86,185.5L36.76,164.68L36.91,194.62L37.06,151.28L37.51,207.4L37.66,159.86L37.81,212.66L37.96,178.44L38.41,224.77L38.56,209.5L38.71,222.86L40.06,287.13L40.21,281.13L40.36,287.08L40.96,278.83L41.11,288.02L41.56,264.19L41.86,264.26L42.01,281.38L42.91,264.71L43.06,271.66L43.37,273.03L43.52,262.77L43.82,264.59L43.97,273.34L44.27,273.92L44.42,261.12L44.72,264.16L44.87,266.58L45.17,266.8L45.32,264.7L45.47,267.98L46.07,262.79L46.22,267.95L46.37,266.09L46.67,267.73L47.12,259.82L47.27,267.48L47.57,269.11L48.47,218.87L48.62,243.34L49.37,171.97L49.67,173.34L49.82,184.48L50.12,206.31L50.27,177.34L50.42,200.11L50.57,163.46L51.17,160.44L51.32,190.42L51.47,167.53L52.37,249.47L52.52,178.65L52.67,243.74L53.27,232.45L53.42,237.77L54.17,280.14L54.32,276.1L54.47,281.23L54.77,282.64L54.92,276.5L55.22,278.28L55.37,278.03L55.52,279.12L55.67,270.26L55.82,269.87L55.97,262.14L56.27,261.77L56.72,276.36L56.87,260.89L57.62,273.02L57.77,261.42L57.92,272.07L58.52,265.5L58.67,269.69L59.12,260.71L59.27,270.5L59.42,262.07L59.57,265.65L59.72,266.2L59.87,264.16L60.02,267.63L60.92,259.58L61.07,265.58L61.37,266.33L61.52,259.78L61.67,265.15L61.82,268.47L64.07,188.1L64.22,189.38L64.97,168.32L65.12,189L65.57,156.64L65.72,206.69L65.87,164.93L66.02,207.5L66.17,162.03L66.62,211.88L66.77,182.28L66.92,213.38L67.07,188.75L67.52,221.67L67.67,225.52L69.02,287.58L69.17,283.81L69.47,292.1L69.92,265.52L70.07,281.93L70.82,262.66L70.97,276.66L71.87,262.08L72.03,275.42L72.18,261.9L72.78,268.52L72.93,264.56L73.08,268.4L73.53,260.82L73.68,264.4L74.28,266.78L74.43,260.46L74.58,264.29L74.73,260.4L74.88,266.42L75.03,260.51L75.18,268.76L75.78,260.28L76.08,260.89L76.23,267.38L76.38,278.01L76.68,254.19L76.83,257.08L76.98,243.32L77.13,242.41L77.28,233.26L78.18,195.31L78.33,212.86L79.08,178.38L79.23,195.64L79.53,198.57L79.68,161.65L79.98,173.58L80.13,199.32L80.28,177.81L80.88,187.98L81.03,210.97L81.18,198.28L81.63,217.37L81.78,220.95L83.13,287.23L83.28,279.51L83.43,289.29L83.88,284.92L84.03,277.45L84.33,270.54L84.48,291.83L84.63,264.44L84.93,264.08L85.08,284.61L85.38,282.05L85.53,270.48L85.98,266.95L86.13,277.02L86.28,263.47L86.43,271.99L86.88,261.26L87.03,266.99L87.18,261.21L87.48,260.94L87.63,271.25L87.93,267.62L88.08,267.78L88.38,269.13L88.53,260.36L88.83,265.33L88.98,262.98L89.58,260.22L89.73,268.58L89.88,262.4L90.93,272.69L91.08,263.78L91.23,272.04L91.38,258.36L91.53,258.75L91.68,238.99L91.83,245.12L91.98,223.48L92.13,225.13L93.03,188.92L93.18,210.42L93.63,169.32L93.93,178.03L94.08,189.55L94.23,173.01L94.38,208.23L94.53,179.7L94.68,206.76L94.83,184.04L95.28,207.23L95.43,199.97L95.58,215.12L95.73,209.57L95.88,238.37L96.18,224.28L96.33,232L96.48,254.74L97.38,285.09L97.53,267.83L97.83,267.81L97.98,299.07L98.28,293.64L98.43,270.95L98.58,288.13L99.18,271.6L99.33,279.73L99.48,269.73L99.93,270.42L100.08,279.89L100.23,293.62L100.68,275.44L100.84,284.29L100.99,272.92L101.44,285.7L101.74,278.69L101.89,277.26L102.34,273.07L102.49,279.35L103.39,270.85L103.54,276.39L103.84,277.09L103.99,270.48L104.29,271.17L104.44,274.06L104.59,273.7L104.74,269.36L105.34,294.98L105.64,288.28L105.79,277.19L105.94,272.56L106.09,233.82L106.24,242.17L106.39,217.29L106.54,199.69L106.69,198.89L106.84,192.51L106.99,192.82L107.14,205.95L107.29,220.87L107.44,207.72L107.59,167L107.74,197.87L108.04,148.53L108.34,172.2L108.49,168.73L108.94,216.79L109.39,207.2L109.54,174.07L110.44,219.42L110.59,228.03L111.49,278.49L111.64,265.79L111.79,290.61L112.39,278.34L112.54,289.76L112.84,296.84L113.29,264.44L113.44,277.46L114.19,263.41L114.34,276.69L114.64,279.67L115.09,263.04L115.24,276.71L115.39,283.95L115.84,280.93L115.99,273.83L116.29,272.88L116.44,286.01L116.74,284.22L116.89,271.87L117.04,283.45L117.19,267.24L117.64,279.85L117.79,273.16L117.94,272.98L118.09,279.41L118.99,271.14L119.14,278.14L119.29,269.33L119.44,295.85L119.89,277.75L120.04,275.41L120.19,276.1L120.34,244.3L120.64,238.3L120.79,250.95L120.94,239.03L121.54,217.9L121.69,222.12L121.84,230.97L122.14,241.88L122.29,221.73L122.59,209.93L122.74,237.55L123.94,276.17L124.09,268.66L124.24,268.03L124.39,266.05L124.54,282.96L124.69,260.05L125.29,277.86L125.44,284.88L125.89,287.77L126.04,282.13L126.19,297.84L127.09,284.66L127.24,288.26L127.54,290.35L128.14,276.93L128.29,287.24L128.59,287.73L129.19,270L129.34,277.48L129.95,279.13L130.1,266.46L130.25,273.04L130.7,274.02L130.85,267.09L131,270.73L131.15,271.67L131.45,275.84L131.75,269.64L131.9,277.73L132.05,268.06L132.65,277.13L132.8,269.67L132.95,268.48L133.1,278.04L134.15,238.64L134.3,255.46L135.2,226.75L135.35,253.43L135.5,250.58L135.65,227.08L135.8,224.09L135.95,232.43L136.1,236.97L136.55,223.94L136.7,217.39L137.45,194.31L137.6,212.44L138.05,179.81L138.2,217.44L138.35,212.35L138.5,249.18L138.65,243.93L138.8,255.16L138.95,259.98L139.1,257.39L139.25,238.85L139.55,224.78L139.7,236.06L139.85,248.59L140.75,280.45L140.9,267.86L141.35,299.3L141.8,291.35L141.95,289.31L142.1,304L142.55,287.24L142.7,276.85L142.85,280.67L143,274.66L143.3,275.51L143.45,272.19L143.6,282.06L143.75,271.26L144.05,276.63L144.2,272.12L144.65,271.35L144.8,279.68L144.95,268.87L145.25,278.85L145.4,268.14L145.7,276.26L145.85,267.81L146.3,265.33L146.45,279.2L146.6,269.33L146.75,270.98L146.9,278.09L147.05,264.37L147.35,273.97L147.5,266.06L148.25,278.34L148.4,266.46L149.6,208.79L149.75,205.92L150.5,119.5L150.65,182.31L151.25,183.99L151.4,130.15L151.55,195.41L151.7,127.66L152.15,200.83L152.3,130.87L152.45,199.76L152.6,141.94L153.05,255.95L153.2,253.25L153.35,256.41L153.5,249.25L153.65,226.3L153.95,190.89L154.1,230.59L154.25,228.38L154.4,253.56L155.15,272.8L155.3,272.44L155.45,273.59L155.75,267.85L155.9,276.94L156.05,272.45L156.2,266.12L156.8,261.51L156.95,274.13L157.1,263.13L157.25,270.69L157.85,263.88L158,266.77L158.3,260.85L158.46,271.64L158.61,261.99L159.36,268.88L159.51,260.67L159.96,260.44L160.11,270.49L160.26,260.37L160.56,259.93L160.71,269.09L161.01,263.96L161.16,259.96L161.46,259.33L161.91,269.17L162.06,259.17L162.81,271.22L162.96,266.3L163.11,259.15L163.26,263.51L163.41,252.88L163.56,256.02L163.71,237.9L165.06,184.78L165.21,203.58L165.36,149.7L165.96,188.17L166.11,180.25L166.41,186.08L166.56,167.4L166.71,202.53L167.01,220.95L167.16,157.75L167.91,226.24L168.06,223.07L168.21,236.08L168.51,271.67L168.81,223.9L168.96,222.36L169.11,221.38L169.26,227.66L170.01,276.61L170.16,268.46L170.31,273.34L170.61,273.84L171.21,263.28L171.36,271.75L171.51,260.85L172.11,265.74L172.26,267.62L172.56,271.46L172.71,260.38L173.16,261.88L173.31,268.55L174.06,260.23L174.21,264.53L174.51,266.56L174.81,259.73L174.96,266.38L175.71,259.37L175.86,265.43L176.61,259.37L176.76,266.32L176.91,259.82L177.21,267.76L177.36,266.53L177.51,269.76L179.01,196.08L179.16,204.26L179.61,147.61L179.91,159.74L180.06,190.49L180.21,161.06L180.66,209.9L180.81,216.13L180.96,193.87L181.11,218.45L181.26,214.92L181.41,243.12L182.61,161.84L182.76,214.96L182.91,205.45L183.06,219.8L183.21,217.52L183.36,242.29L183.51,240.66L183.66,257.17L184.26,286.91L184.41,264.62L184.56,284.17L184.71,263.83L185.16,280.69L185.31,271.22L185.46,279.3L185.91,263.19L186.06,277.76L186.21,262.99L186.66,280.18L186.81,262.88L186.96,279.5L187.11,263.92L187.27,270.69L187.42,259.56L187.72,259.72L187.87,263.27L188.17,266.07L188.77,259.08L188.92,264.94L189.07,258.82L189.67,259.9L189.82,262.34L189.97,257.94L190.57,259.03L190.72,260.41L190.87,261.41L191.02,258.97L191.32,259.84L191.47,252.08L192.07,220.67L192.22,209.57L192.37,210.24L192.52,193.54L192.67,197.29L192.82,183.39L192.97,180.73L193.42,163.22L193.57,150.99L194.02,183.22L194.17,150.5L194.32,173.27L194.47,147.1L194.62,175.39L194.77,144.84L195.22,167.78L195.37,148.86L195.52,176.49L195.67,144.14L196.12,170.3L196.27,153.78L196.57,150.71L197.02,194.57L197.17,165.97L198.22,258.74L198.37,263.72L198.67,273.06L199.12,269.73L199.27,265.44L199.72,261.89L199.87,271.09L200.02,260.99L200.47,269.69L200.62,259.49L200.77,266.33L200.92,260.13L201.07,267.13L201.22,258.15L201.67,265.58L201.82,258.92L202.57,265.73L202.72,260.7L202.87,263.84L203.02,259.16L203.32,259.19L203.47,258.74L203.62,258.77L203.77,262.97L204.82,258.39L204.97,262.6L205.87,255.02L206.02,255.81L206.17,253.89L206.32,255.11L206.47,236.26L207.22,203.88L207.37,212.22L207.52,165.2L207.67,168.36L207.82,158.77L207.97,158.05L208.87,147.92L209.02,162.15L209.32,171.81L209.47,143.04L209.77,145.63L209.92,166.47L210.22,177.99L210.67,92.32L210.97,99.41L211.12,101.43L213.07,275.23L213.22,262.97L213.37,280.32L213.52,262.95L213.97,279.38L214.12,269.38L214.27,274.27L214.42,264.73L214.72,265.22L214.87,266.8L215.17,270.76L215.62,260.37L215.77,269.74L216.53,257.86L216.68,258.86L216.98,256.31L217.28,258.87L217.43,260.15L218.18,255.19L218.33,256.08L218.48,257.01L218.78,257.25L218.93,254.55L219.23,257.01L219.38,256.68L219.53,257.32L219.68,255.04L219.83,254.32L219.98,256.24L220.13,250.03L220.28,248.6L220.73,221.28L220.88,215.17L222.23,147.56L222.38,165.53L222.83,84.03L223.28,86.74L223.43,99.33L223.73,89.88L223.88,98.84L224.03,100.09L224.63,85.08L224.78,92.22L224.93,89.16L225.53,104.79L225.68,123.49L227.33,271.89L227.48,262.59L227.78,261.38L228.23,276.14L228.38,266.84L228.53,267.35L228.68,259.78L228.83,267.13L229.43,261.68L229.58,261.96L230.03,262.88L230.18,258.15L230.33,261.62L230.48,260.05L230.63,257.44L230.93,260.73L231.08,258.3L231.23,261.46L231.68,256.22L232.13,256.34L232.28,256.58L233.03,258.45L233.18,256.97L233.63,258.28L234.08,255.03L234.23,257.6L234.38,258.49L234.68,256.51L234.83,251.46L234.98,256.12L235.28,243.74L235.43,244.13L236.03,222.27L236.18,215.62L236.33,219.92L236.48,207.02L236.63,209.16L236.78,190.93L236.93,196.03L237.08,176.81L237.23,186.71L237.38,157.27L237.53,181.21L237.68,106.09L237.83,76.12L238.13,68.26L238.28,78.04L238.58,71.06L238.73,86.6L238.88,75.19L239.33,87.86L239.48,80.36L239.63,97.16L239.78,96.41L239.93,125.18L240.83,204.14L240.98,231.4L241.88,274.79L242.18,269.64L242.33,271.82L242.63,264.67L242.78,275.39L242.93,265.62L243.08,272.58L243.23,264.69L243.68,265.81L243.83,267.43L243.98,264.52L244.58,266.66L244.73,264.86L244.89,265.78L245.04,261.62L245.94,253.71L246.09,257.22L246.24,256.03L246.39,257.42L246.84,256.5L246.99,257.19L247.14,255.23L247.44,257.35L247.74,256.96L247.89,255.87L248.19,258.17L248.49,255.75L248.64,254.58L248.94,257.68L249.09,256.63L249.24,251.62L249.84,221.09L249.99,205.94L250.14,201.79L250.29,157.7L250.44,202.88L250.89,127.91L251.04,175.46L251.19,89.63L251.34,66.98L251.94,74.22L252.09,74.38L252.24,74.42L252.39,81.64L252.54,70.09L253.14,80.47L253.29,83.98L253.44,79.46L253.74,85.21L253.89,88.99L254.04,84.03L254.19,92.91L254.34,106.68L254.94,155.2L255.09,182.2L256.29,269.23L256.59,265.9L256.74,260.71L256.89,268.71L257.04,259.31L257.49,263.91L257.64,258.31L257.79,262.3L258.09,258.13L258.39,261.08L258.54,257.94L258.69,257.47L258.84,258.87L258.99,259.03L259.14,259.69L259.29,257.66L259.44,258.62L259.59,257.88L260.34,254.77L260.49,257.61L261.09,253.92L261.24,257.14L261.39,255.98L261.54,255.04L261.69,257.25L261.99,256.08L262.14,256.36L262.59,258.44L262.74,254.13L263.04,254.73L263.19,257.37L263.34,257.58L263.49,250.33L264.09,256.17L264.24,244.72L264.39,247.57L264.54,224.36L265.14,189.49L265.29,155.68L265.44,183.82L265.59,130.67L265.74,86.04L265.89,108.12L266.49,97.03L266.64,98.27L267.09,84.48L267.24,101.72L267.39,109.91L268.29,97.23L268.44,112.85L268.59,102.02L268.89,125.2L269.04,142.75L270.54,268.19L270.84,266.78L270.99,261.34L271.14,271.1L271.29,259.87L271.74,263.78L271.89,258.92L272.04,263.83L272.49,261.84L272.64,258.62L272.79,258.64L272.94,260.88L273.54,256.49L273.7,257.32L273.85,258L274.15,256.36L274.45,256.96L274.6,257.65L274.75,259.31L275.05,257.42L275.2,258L275.35,254.63L275.95,257.16L276.1,254.34L276.4,257.51L276.85,255.26L277,255.26L277.3,258.85L277.6,255.68L277.75,250.15L277.9,254.47L278.05,253.91L278.2,238.59L279.4,176.41L279.55,183.98L280.45,78.51L280.6,75.42L280.9,88.5L281.05,73.57L281.65,100.45L281.95,92.97L282.1,92.86L282.25,91.72L282.4,101.94L282.55,87.69L282.85,101.62L283,118.43L283.75,179.1L283.9,210.69L284.05,214L284.2,241.21L285.1,284.5L285.25,263.92L285.4,280.16L286,278.44L286.15,262.75L286.75,261.74L286.9,273.89L287.05,266.06L287.5,272.28L287.65,262.3L287.8,270.16L288.25,258.08L288.4,261.38L289.3,255.3L289.45,256.45L289.6,257.55L289.9,254.39L290.05,254.54L290.35,258.18L290.8,256.83L290.95,254.83L291.1,257.2L291.7,255.59L291.85,257.13L292.3,250.75L292.45,245.89L292.6,248.6L292.75,236.68L293.95,167.02L294.1,183.19L295,76.96L295.15,78.87L295.3,83.5L295.45,78.75L295.75,90.03L295.9,95.67L296.2,100.86L296.35,94.01L296.8,120.36L297.1,107.26L297.25,104.25L297.4,103.1L297.55,115.62L299.65,275.04L299.8,271.28L299.95,270.89L300.85,259.38L301,263.11L301.9,257.67L302.05,259.15L302.2,259.46L302.35,257.58L302.51,257.21L302.66,257.53L302.81,258.46L303.86,253.51L304.01,256.75L304.31,257.03L304.91,254.43L305.06,255.25L305.21,253.07L305.66,256.61L305.81,253.67L305.96,256.25L306.56,252.16L306.71,253.68L306.86,256.77L308.06,172.52L308.21,174.08L308.36,109.31L308.81,75.98L309.11,82.12L309.26,104.1L309.41,99.94L309.56,113.4L309.71,108.63L309.86,110.12L310.01,115.52L310.16,98.2L310.46,109.3L310.61,106.52L310.76,98.8L311.36,104.39L311.51,105.61L313.76,286.75L313.91,271.93L314.51,271.23L314.66,281.33L314.81,264.01L314.96,282.04L315.41,261.9L315.56,270.28L315.71,261.59L316.31,261.4L316.46,272.22L316.61,260.27L316.76,268.11L317.06,257.95L317.21,259.12L317.36,257.9L317.51,259.83L317.81,257.58L317.96,253.71L318.26,258.05L318.71,255.14L318.86,257.13L319.01,257L319.16,254.15L319.46,257.45L319.61,252.35L320.06,256.88L320.21,255.48L320.36,255.86L320.51,253.17L321.11,250.47L321.26,257.07L321.41,251.71L323.66,152.58L323.81,161.11L323.96,159.8L324.11,113.53L324.26,100.62L324.71,126.21L324.86,125.44L325.31,115.32L325.46,118.4L325.61,123.08L325.76,121.81L325.91,139.24L326.06,134.91L326.21,159.9L326.36,145.31L326.66,176.24L326.81,190.29L328.31,278.08L328.46,270.92L328.91,273.83L329.06,262.82L329.36,262.27L329.51,277.66L329.81,277.48L329.96,268.62L330.11,274.54L330.41,269.15L330.56,260.31L330.71,268.26L331.16,263.75L331.32,259.52L331.77,265.21L331.92,258.73L332.07,258.49L332.37,262.16L332.52,258.44L332.67,261.66L333.12,259.11L333.27,258.16L333.42,260.8L333.87,257.85L334.02,256.45L334.77,258.73L334.92,257.77L335.37,258.04L335.52,252.71L335.67,252.07L335.82,248.09L337.47,153.06L337.62,181.68L338.37,86.39L338.67,92.63L338.82,103.29L339.27,104.14L339.42,97.7L339.57,104.02L339.87,100.8L340.02,114.83L340.17,104.43L340.32,130.42L340.47,131.59L340.62,141.06L342.57,292.76L342.72,266.96L342.87,287.99L343.47,273.56L343.62,281.89L344.07,269.77L344.52,270.79L344.67,270.81L345.12,266.94L345.27,273.31L345.72,259.01L346.02,259.5L346.17,264.05L347.07,257.41L347.22,258.14L347.37,258.46L347.52,258.12L347.67,260.42L347.97,256.45L348.42,257.56L348.57,258.32L349.02,255.42L349.47,255.49L349.62,257.34L349.77,257.76L349.92,253.41L350.07,256.39L350.22,242.71L351.72,155.36L351.87,187.33L352.62,134.47L352.77,177.42L353.07,93.5L353.67,94.06L353.82,93.66L354.87,130.36L355.02,130.9L356.97,281.91L357.12,268.19L357.72,262.75L357.87,279.84L358.02,262.9L358.17,277.66L358.77,268.4L358.92,260.98L359.37,268.66L359.52,259.71L359.67,266.54L359.82,262.52L359.97,262.79L360.13,261.89L360.28,263.9L360.58,265.7L360.73,259.02L361.03,259.64L361.18,263.08L361.93,258.39L362.08,260.51L362.23,257.47L362.83,259.64L362.98,257.56L363.43,257.36L364.03,259.62L364.18,257.23L364.48,262.5L364.63,259.1L364.78,249.45L366.43,180.61L366.58,178.46L367.33,158.94L367.48,172.76L367.93,114.39L368.38,121.34L368.53,139.71L368.98,125.36L369.13,144.61L369.28,134.86L369.43,159.62L369.58,157.1L369.73,177.54L369.88,174.2L370.03,200.53L370.18,200.19L370.33,247.51L370.48,231.03L370.78,261.26L370.93,266.05L371.08,292.61L371.23,265.48L371.68,281.71L371.83,269.46L371.98,274.94L372.58,273.32L372.73,265.72L373.33,260.79L373.48,271.76L373.63,260.67L373.78,271.43L374.23,260.5L374.38,267.69L374.53,260.23L374.98,259.65L375.28,263.79L375.43,259.39L375.88,263.94L376.03,258.78L376.18,263.66L376.33,258.4L376.48,260.87L376.93,258.3L377.08,260.05L377.23,258.19L377.83,257.58L378.13,260.41L378.28,254.71L378.88,260.93L379.03,257.39L379.18,255.12L380.38,179.32L380.53,193.61L381.43,165.02L381.58,166.5L382.03,161.05L382.18,110.48L383.08,139.44L383.23,127.55L383.38,127.82L383.53,134.42L385.63,280.15L385.78,271.19L385.93,281.74L386.38,269.12L386.53,278.3L386.68,267.32L386.83,276.61L387.28,264.22L387.43,270.73L387.58,261.95L387.73,271.36L388.33,264.98L388.48,267.98L388.78,269.07L389.24,260.14L389.39,262.72L389.54,260.12L389.69,263.92L390.14,259.26L390.29,260.61L390.44,259.3L390.89,264.53L391.04,258.81L391.19,261.14L391.34,258.69L391.49,258.69L391.64,257L391.94,261.44L392.39,261.13L392.54,259.57L393.14,255.89L393.59,256.02L393.74,241.85L395.24,171.28L395.39,187.41L395.54,155.47L395.99,202.44L396.14,141.63L396.29,200.9L396.44,133.75L396.59,194.35L397.04,110.56L397.19,113.21L397.79,121.21L397.94,147.22L398.09,148.46L398.24,171.22L398.69,204.93L398.84,211.04L400.04,295.31L400.19,271.34L400.34,290.51L400.94,285.26L401.09,270.55L401.24,285.72L401.84,272.63L401.99,274.9L402.29,278.86L402.74,263.09L402.89,274.38L403.64,259.99L403.79,268.84L404.69,258.85L404.84,263.51L405.44,258.51L405.59,262.03L405.74,261.26L406.04,261.95L406.64,257.71L406.79,259.43L407.24,258.57L407.54,260.99L407.69,259.94L407.99,256.28L408.14,240.18L409.34,182.77L409.49,184.64L409.79,162.94L409.94,183.12L410.39,146.92L410.69,156.84L410.84,167.59L411.29,166.93L411.44,178.31L411.59,163.23L412.19,113.46L412.34,117.57L412.49,144.06L413.39,191.26L413.54,228.01L413.69,219.89L413.84,247.6L413.99,254.87L414.44,275.02L414.74,273.38L414.89,262.49L415.34,274.73L415.49,261.08L415.64,272.85L415.79,260.44L416.69,270L416.84,265.63L417.44,258.88L417.59,264.11L418.35,258.42L418.5,262.22L419.1,258.06L419.25,260.73L419.4,259.31L419.85,255.59L420,257.67L420.15,258.46L420.6,254.4L420.9,257.74L421.05,258.06L421.35,253.4L421.5,257.14L422.25,253.52L422.4,250.01L423.75,162.93L423.9,168.83L424.95,76.61L425.1,82.17L425.25,82.46L426.75,118.78L426.9,127.9L429.15,279.44L429.3,267.03L429.45,278.1L430.05,272.59L430.2,270.78L431.1,264.97L431.25,268.35L431.7,264.59L431.85,268.72L432,266.23" style="vector-effect: non-scaling-stroke; fill: none; stroke: rgb(0, 128, 0); stroke-opacity: 1; stroke-width: 2px; opacity: 1;"/></g><g class="points"/><g class="text"/></g></g></g><g class="overplot"/><path class="xlines-above crisp" d="M0,0" style="fill: none;"/><path class="ylines-above crisp" d="M0,0" style="fill: none;"/><g class="overlines-above"/><g class="xaxislayer-above"><g class="xtick"><text text-anchor="middle" x="0" y="433" transform="translate(123.22,0)" style="font-family: 'Open Sans', verdana, arial, sans-serif; font-size: 12px; fill: rgb(42, 63, 95); fill-opacity: 1; white-space: pre; opacity: 1;"><tspan class="line" dy="0em" x="0" y="433">Sep 4</tspan><tspan class="line" dy="1.3em" x="0" y="433">2022</tspan></text></g><g class="xtick"><text text-anchor="middle" x="0" y="433" style="font-family: 'Open Sans', verdana, arial, sans-serif; font-size: 12px; fill: rgb(42, 63, 95); fill-opacity: 1; white-space: pre; opacity: 1;" transform="translate(224.05,0)">Sep 11</text></g><g class="xtick"><text text-anchor="middle" x="0" y="433" style="font-family: 'Open Sans', verdana, arial, sans-serif; font-size: 12px; fill: rgb(42, 63, 95); fill-opacity: 1; white-space: pre; opacity: 1;" transform="translate(324.89,0)">Sep 18</text></g><g class="xtick"><text text-anchor="middle" x="0" y="433" style="font-family: 'Open Sans', verdana, arial, sans-serif; font-size: 12px; fill: rgb(42, 63, 95); fill-opacity: 1; white-space: pre; opacity: 1;" transform="translate(425.72,0)">Sep 25</text></g></g><g class="yaxislayer-above"><g class="ytick"><text text-anchor="end" x="79" y="4.199999999999999" transform="translate(0,411.44)" style="font-family: 'Open Sans', verdana, arial, sans-serif; font-size: 12px; fill: rgb(42, 63, 95); fill-opacity: 1; white-space: pre; opacity: 1;">−40</text></g><g class="ytick"><text text-anchor="end" x="79" y="4.199999999999999" style="font-family: 'Open Sans', verdana, arial, sans-serif; font-size: 12px; fill: rgb(42, 63, 95); fill-opacity: 1; white-space: pre; opacity: 1;" transform="translate(0,367.85)">−20</text></g><g class="ytick"><text text-anchor="end" x="79" y="4.199999999999999" style="font-family: 'Open Sans', verdana, arial, sans-serif; font-size: 12px; fill: rgb(42, 63, 95); fill-opacity: 1; white-space: pre; opacity: 1;" transform="translate(0,324.27)">0</text></g><g class="ytick"><text text-anchor="end" x="79" y="4.199999999999999" style="font-family: 'Open Sans', verdana, arial, sans-serif; font-size: 12px; fill: rgb(42, 63, 95); fill-opacity: 1; white-space: pre; opacity: 1;" transform="translate(0,280.68)">20</text></g><g class="ytick"><text text-anchor="end" x="79" y="4.199999999999999" style="font-family: 'Open Sans', verdana, arial, sans-serif; font-size: 12px; fill: rgb(42, 63, 95); fill-opacity: 1; white-space: pre; opacity: 1;" transform="translate(0,237.09)">40</text></g><g class="ytick"><text text-anchor="end" x="79" y="4.199999999999999" style="font-family: 'Open Sans', verdana, arial, sans-serif; font-size: 12px; fill: rgb(42, 63, 95); fill-opacity: 1; white-space: pre; opacity: 1;" transform="translate(0,193.51)">60</text></g><g class="ytick"><text text-anchor="end" x="79" y="4.199999999999999" style="font-family: 'Open Sans', verdana, arial, sans-serif; font-size: 12px; fill: rgb(42, 63, 95); fill-opacity: 1; white-space: pre; opacity: 1;" transform="translate(0,149.92000000000002)">80</text></g><g class="ytick"><text text-anchor="end" x="79" y="4.199999999999999" style="font-family: 'Open Sans', verdana, arial, sans-serif; font-size: 12px; fill: rgb(42, 63, 95); fill-opacity: 1; white-space: pre; opacity: 1;" transform="translate(0,106.33)">100</text></g></g><g class="overaxes-above"/></g></g><g class="polarlayer"/><g class="smithlayer"/><g class="ternarylayer"/><g class="geolayer"/><g class="funnelarealayer"/><g class="pielayer"/><g class="iciclelayer"/><g class="treemaplayer"/><g class="sunburstlayer"/><g class="glimages"/><defs id="topdefs-022ae4"><g class="clips"/><clipPath id="legend022ae4"><rect width="167" height="67" x="0" y="0"/></clipPath></defs><g class="layer-above"><g class="imagelayer"/><g class="shapelayer"/></g><g class="infolayer"><g class="legend" pointer-events="all" transform="translate(520.64,100)"><rect class="bg" shape-rendering="crispEdges" width="167" height="67" x="0" y="0" style="stroke: rgb(68, 68, 68); stroke-opacity: 1; fill: rgb(255, 255, 255); fill-opacity: 1; stroke-width: 0px;"/><g class="scrollbox" transform="" clip-path="url(#legend022ae4)"><g class="groups"><g class="traces" transform="translate(0,14.5)" style="opacity: 1;"><text class="legendtext" text-anchor="start" x="40" y="4.680000000000001" style="font-family: 'Open Sans', verdana, arial, sans-serif; font-size: 12px; fill: rgb(42, 63, 95); fill-opacity: 1; white-space: pre;">BESS</text><g class="layers" style="opacity: 0.5;"><g class="legendfill"/><g class="legendlines"><path class="js-line" d="M5,0h30" style="fill: none; stroke: rgb(0, 191, 255); stroke-opacity: 1; stroke-width: 2px;"/></g><g class="legendsymbols"><g class="legendpoints"/></g></g><rect class="legendtoggle" x="0" y="-9.5" width="161.890625" height="19" style="fill: rgb(0, 0, 0); fill-opacity: 0;"/></g><g class="traces" transform="translate(0,33.5)" style="opacity: 1;"><text class="legendtext" text-anchor="start" x="40" y="4.680000000000001" style="font-family: 'Open Sans', verdana, arial, sans-serif; font-size: 12px; fill: rgb(42, 63, 95); fill-opacity: 1; white-space: pre;">Solar</text><g class="layers" style="opacity: 0.5;"><g class="legendfill"/><g class="legendlines"><path class="js-line" d="M5,0h30" style="fill: none; stroke: rgb(255, 0, 0); stroke-opacity: 1; stroke-width: 2px;"/></g><g class="legendsymbols"><g class="legendpoints"/></g></g><rect class="legendtoggle" x="0" y="-9.5" width="161.890625" height="19" style="fill: rgb(0, 0, 0); fill-opacity: 0;"/></g><g class="traces" transform="translate(0,52.5)" style="opacity: 1;"><text class="legendtext" text-anchor="start" x="40" y="4.680000000000001" style="font-family: 'Open Sans', verdana, arial, sans-serif; font-size: 12px; fill: rgb(42, 63, 95); fill-opacity: 1; white-space: pre;">Grid Meter (Net Load)</text><g class="layers" style="opacity: 0.5;"><g class="legendfill"/><g class="legendlines"><path class="js-line" d="M5,0h30" style="fill: none; stroke: rgb(0, 128, 0); stroke-opacity: 1; stroke-width: 2px;"/></g><g class="legendsymbols"><g class="legendpoints"/></g></g><rect class="legendtoggle" x="0" y="-9.5" width="161.890625" height="19" style="fill: rgb(0, 0, 0); fill-opacity: 0;"/></g></g></g><rect class="scrollbar" rx="20" ry="3" width="0" height="0" x="0" y="0" style="fill: rgb(128, 139, 164); fill-opacity: 1;"/></g><g class="g-gtitle"><text class="gtitle" x="296" y="50" text-anchor="middle" dy="0em" style="font-family: 'Open Sans', verdana, arial, sans-serif; font-size: 17px; fill: rgb(42, 63, 95); opacity: 1; font-weight: normal; white-space: pre;"><tspan class="line" dy="0em" x="296" y="50">Scenario 5</tspan><tspan class="line" dy="1.3em" x="296" y="50">Microgrid Output</tspan><tspan class="line" dy="2.6em" x="296" y="50">From: September 01, 2022 to September 30, 2022</tspan></text></g><g class="g-xtitle"><text class="xtitle" x="296" y="477.409375" text-anchor="middle" style="font-family: 'Open Sans', verdana, arial, sans-serif; font-size: 14px; fill: rgb(42, 63, 95); opacity: 1; font-weight: normal; white-space: pre;">Time</text></g><g class="g-ytitle"><text class="ytitle" transform="rotate(-90,33.60625,260)" x="33.60625" y="260" text-anchor="middle" style="font-family: 'Open Sans', verdana, arial, sans-serif; font-size: 14px; fill: rgb(42, 63, 95); opacity: 1; font-weight: normal; white-space: pre;">Demand (kW)</text></g></g></svg>