<svg class="main-svg" xmlns="http://www.w3.org/2000/svg" xmlns:xlink="http://www.w3.org/1999/xlink" width="700" height="500" style="" viewBox="0 0 700 500"><rect x="0" y="0" width="700" height="500" style="fill: rgb(255, 255, 255); fill-opacity: 1;"/><defs id="defs-70fd31"><g class="clips"><clipPath id="clip70fd31xyplot" class="plotclip"><rect width="540" height="320"/></clipPath><clipPath class="axesclip" id="clip70fd31x"><rect x="80" y="0" width="540" height="500"/></clipPath><clipPath class="axesclip" id="clip70fd31y"><rect x="0" y="100" width="700" height="320"/></clipPath><clipPath class="axesclip" id="clip70fd31xy"><rect x="80" y="100" width="540" height="320"/></clipPath></g><g class="gradients"/><g class="patterns"/></defs><g class="bglayer"/><g class="layer-below"><g class="imagelayer"/><g class="shapelayer"/></g><g class="cartesianlayer"><g class="subplot xy"><g class="layer-subplot"><g class="shapelayer"/><g class="imagelayer"/></g><g class="minor-gridlayer"><g class="x"/><g class="y"/></g><g class="gridlayer"><g class="x"><path class="xgrid crisp" transform="translate(134.02,0)" d="M0,100v320" style="stroke: rgb(255, 255, 255); stroke-opacity: 1; stroke-width: 1px;"/><path class="xgrid crisp" transform="translate(260.06,0)" d="M0,100v320" style="stroke: rgb(255, 255, 255); stroke-opacity: 1; stroke-width: 1px;"/><path class="xgrid crisp" transform="translate(386.11,0)" d="M0,100v320" style="stroke: rgb(255, 255, 255); stroke-opacity: 1; stroke-width: 1px;"/><path class="xgrid crisp" transform="translate(512.15,0)" d="M0,100v320" style="stroke: rgb(255, 255, 255); stroke-opacity: 1; stroke-width: 1px;"/></g><g class="y"><path class="ygrid crisp" transform="translate(0,366.65)" d="M80,0h540" style="stroke: rgb(255, 255, 255); stroke-opacity: 1; stroke-width: 1px;"/><path class="ygrid crisp" transform="translate(0,256.61)" d="M80,0h540" style="stroke: rgb(255, 255, 255); stroke-opacity: 1; stroke-width: 1px;"/><path class="ygrid crisp" transform="translate(0,201.57999999999998)" d="M80,0h540" style="stroke: rgb(255, 255, 255); stroke-opacity: 1; stroke-width: 1px;"/><path class="ygrid crisp" transform="translate(0,146.56)" d="M80,0h540" style="stroke: rgb(255, 255, 255); stroke-opacity: 1; stroke-width: 1px;"/></g></g><g class="zerolinelayer"><path class="yzl zl crisp" transform="translate(0,311.63)" d="M80,0h540" style="stroke: rgb(255, 255, 255); stroke-opacity: 1; stroke-width: 2px;"/></g><path class="xlines-below"/><path class="ylines-below"/><g class="overlines-below"/><g class="xaxislayer-below"/><g class="yaxislayer-below"/><g class="overaxes-below"/><g class="plot" transform="translate(80,100)" clip-path="url(#clip70fd31xyplot)"><g class="scatterlayer mlayer"><g class="trace scatter trace19b961" style="stroke-miterlimit: 2; opacity: 0.5;"><g class="fills"/><g class="errorbars"/><g class="lines"><path class="js-line" d="M0,252.82L1.13,252.92L1.31,252.9L4.69,252.82L4.88,252.92L5.81,252.9L6,243.19L6.19,240.8L6.38,247.35L6.56,215.93L7.13,219.19L7.5,211.54L7.69,211.81L8.63,211.55L8.82,211.68L11.07,211.87L11.25,224.52L11.82,252.69L12,249.99L12.19,237.46L12.57,211.78L12.75,228.01L12.94,252.07L13.32,253.08L13.88,252.94L14.07,252.92L21.01,252.95L21.19,264.13L21.76,273.58L21.95,271.42L22.13,270.2L22.51,269.7L22.7,266.46L22.88,264.71L23.07,276.17L23.26,288.85L23.63,266.01L23.82,258.92L24.95,211.5L25.32,211.67L25.51,211.48L26.82,211.57L27.01,211.57L28.51,211.88L28.7,223.55L28.89,250.99L29.26,216.57L29.45,211.6L30.01,252.98L30.39,252.92L30.57,244.99L30.76,217.46L31.14,245.11L31.32,252.54L32.26,252.92L32.45,252.88L35.45,252.91L35.64,289.81L36.95,274.66L37.14,280.26L38.08,273.61L38.26,275.25L38.45,277.89L38.83,274.35L39.01,273.13L39.2,273.92L39.39,278.77L40.33,269.41L40.51,273.53L40.7,275.01L40.89,270.59L41.26,279.49L41.45,274.05L41.64,264.5L42.58,211.5L42.95,211.61L43.14,211.49L44.45,211.64L44.64,211.61L45.58,211.56L45.77,211.81L46.7,211.62L46.89,211.64L48.02,211.72L48.2,211.67L48.39,212.58L48.58,220.89L49.33,253.01L49.7,252.96L49.89,252.94L54.77,252.87L54.96,252.91L58.33,252.98L58.52,259.38L59.27,277.37L59.46,271.3L60.4,211.57L60.58,217.32L60.77,230.03L61.15,211.4L61.71,211.64L61.9,211.52L62.27,211.91L62.65,211.62L62.83,211.54L63.77,211.7L63.96,211.72L64.52,211.63L64.71,213.76L65.09,216.58L65.27,215.93L65.46,211.77L66.4,211.73L66.59,217.15L67.52,252.96L67.71,252.91L76.34,252.97L76.53,275.05L76.71,266.7L77.09,276.13L77.28,274.06L77.46,269.95L78.96,211.47L79.15,211.57L79.34,211.61L81.59,211.55L81.78,211.77L82.72,211.53L82.9,211.77L84.4,211.74L84.59,218.15L85.53,253.02L85.72,252.97L85.9,252.91L87.59,252.93L87.78,252.81L88.91,253.01L89.09,252.78L90.22,252.93L90.41,252.85L91.72,252.99L91.91,252.79L92.84,252.97L93.03,252.82L94.16,252.97L94.35,252.8L94.53,252.99L94.72,265.12L94.91,265.11L95.1,278L95.47,291.36L95.66,278.23L95.85,262.3L97.35,211.46L97.53,211.67L99.03,211.67L99.22,211.62L100.91,211.75L101.1,211.73L102.04,211.78L102.22,214.5L103.16,253.04L103.54,252.92L103.72,252.98L106.35,252.87L106.54,252.96L107.85,252.77L108.04,284.13L109.16,274.71L109.35,278.14L109.54,278.66L109.73,278.57L109.91,276.79L110.1,276.66L110.29,278.29L110.48,271.77L111.04,275.33L111.23,275.79L111.79,268.87L111.98,273.55L112.16,272.23L112.35,270.95L112.73,271.31L112.91,273.71L113.1,275.12L113.29,285.89L113.48,288.42L113.66,282.29L113.85,281.64L115.54,211.53L115.73,211.7L116.29,211.45L116.48,211.63L116.67,211.65L117.42,211.52L117.6,211.79L117.79,211.7L119.48,211.58L119.67,213.87L120.04,212.9L120.98,252.96L121.17,252.85L121.35,253.08L122.48,252.84L122.67,252.93L124.54,252.83L124.73,289.94L124.92,290.34L125.11,293.01L125.29,292.87L125.48,291.07L126.23,279.83L126.61,281.67L126.79,281.88L127.73,275.71L127.92,277.08L128.11,277.46L128.29,276.04L128.67,274.79L128.86,275.79L129.04,271.55L129.61,274.54L129.8,274.4L129.98,272.68L130.36,272.42L130.55,274.58L130.73,271.33L130.92,271.57L131.11,281.31L131.48,300.55L131.86,292.45L132.05,286.37L132.98,211.47L133.55,211.68L133.73,211.8L134.48,212.01L134.67,211.14L135.8,211.92L135.98,211.87L136.17,211.26L136.73,211.59L136.92,212.01L137.11,211.17L137.67,211.61L137.86,211.75L138.05,214.48L138.24,236.91L138.99,253.09L139.17,252.85L139.36,253L141.99,252.8L142.17,252.99L143.3,252.94L143.49,252.84L144.43,252.91L144.61,277.97L145.55,281.69L145.74,280.1L145.93,279.76L146.3,276.49L146.49,274.92L146.68,279.91L147.05,278.17L147.24,272.86L147.61,278.67L147.99,275.57L148.18,274.56L148.36,277.93L148.55,274.38L148.74,275.33L148.93,273.17L149.3,292.43L149.68,280.14L149.86,277.63L150.05,278.44L150.24,259.22L151.37,213.83L151.55,211.53L152.12,211.85L152.3,217.85L152.49,228.99L152.87,211.44L153.05,211.65L153.24,214.5L153.43,231.7L154.18,252.93L154.55,252.87L154.74,252.98L155.49,275.1L155.68,272.12L155.87,266.5L156.8,286.56L156.99,285.4L157.18,289.49L157.37,287.75L157.55,293.79L157.74,300.02L158.3,295.63L158.49,298.6L159.06,288.37L159.24,288.89L159.43,295.66L159.99,281.62L160.37,283.56L160.56,283.37L160.74,284.76L160.93,279.65L161.12,279.08L161.31,271.28L161.49,274.05L162.06,272.58L162.24,273.12L162.43,273.53L162.62,268.62L163.18,273.22L163.37,270.43L163.56,267.62L164.31,275.97L164.49,271.41L164.68,273.95L164.87,273.46L165.06,270.18L165.24,276.06L165.81,274.4L166,267.7L166.37,274.56L166.75,274.26L166.93,264.31L167.12,267.72L167.31,267.69L167.5,240.43L167.68,240.03L167.87,241.45L168.81,220.05L169,228.2L169.18,247.87L169.56,212.51L170.12,227.28L170.31,219.9L170.87,211.56L171.25,211.75L171.43,211.54L172.75,212.08L172.94,217.85L173.5,253.03L173.87,245.24L174.06,226.67L174.25,215.42L174.62,232.09L174.81,248.78L175.19,253L175.56,252.96L175.75,252.9L176.5,252.94L176.69,269.24L177.62,304L177.81,298.46L178,298.34L178.19,285.16L179.12,273.86L179.31,278.23L179.5,278.19L179.69,275.32L179.87,279.7L180.25,274.03L180.44,276.27L180.63,272.95L180.81,276.28L181,275.5L181.19,269.19L181.38,276.29L181.94,275.56L182.13,271.95L182.5,276.22L182.69,266.34L183.06,275.5L183.44,275.36L183.63,271.41L184,275.65L184.38,268.05L184.56,273.38L184.75,272.95L184.94,268.89L185.31,274.35L185.5,255.25L187,211.44L187.19,211.6L187.38,211.1L187.94,211.48L188.13,211.81L189.25,211.59L189.44,211.68L190.94,211.72L191.13,218.76L191.5,250.36L191.88,234.79L192.07,212.05L192.25,211.75L192.44,212.65L192.63,213.72L193.38,252.94L193.57,252.9L193.75,252.96L196.19,252.86L196.38,252.96L197.69,252.92L197.88,252.92L200.32,252.88L200.51,252.89L203.88,252.92L204.07,252.17L204.26,251.73L204.45,245.15L205.38,211.59L205.57,211.44L206.7,212.05L206.88,211.4L208.01,211.7L208.2,211.68L208.38,212.16L208.57,211.08L208.95,211.69L209.14,211.62L210.07,212.38L210.26,241.49L210.45,253.07L210.82,234.19L211.01,211.6L211.39,211.69L211.57,231.74L211.76,253L212.32,252.9L212.51,252.86L215.51,252.88L215.7,252.85L217.01,252.9L217.2,252.83L218.51,252.94L218.7,252.85L221.14,252.97L221.33,252.89L222.08,252.86L222.26,235.2L223.01,211.53L223.2,211.59L223.39,211.51L224.7,211.66L224.89,211.62L226.2,211.65L226.39,211.74L226.77,228.14L226.95,212.3L227.14,211.56L227.7,211.95L227.89,211.14L228.83,211.72L229.02,217.82L229.95,253.01L230.14,252.82L230.33,252.92L233.33,252.89L233.52,252.93L235.58,252.85L235.77,252.91L238.96,252.89L239.15,251.53L240.27,211.51L240.46,211.54L240.65,211.57L241.96,211.64L242.15,211.82L243.27,211.58L243.46,211.73L243.83,211.57L244.02,173.45L244.4,47.33L244.96,53.02L245.15,56.94L245.34,57.69L245.52,56.31L245.71,61.54L247.96,253L248.34,252.89L248.52,252.96L249.84,252.88L250.02,252.86L251.9,252.86L252.09,252.9L256.59,252.9L256.78,252.95L257.15,252.77L257.34,251.63L257.53,250.23L257.71,250.7L257.9,240.6L258.65,211.18L258.84,211.96L259.03,211.44L259.78,211.58L259.97,211.58L260.15,211.68L260.34,197.27L260.9,32.46L261.09,34.52L261.28,43.82L261.47,49.8L261.84,39.32L262.03,41.12L262.22,35.62L262.59,44.05L262.78,43.77L262.97,55.29L263.53,53.46L263.72,54.4L264.28,117.83L264.47,144.23L265.97,253.02L266.15,252.83L266.34,252.93L273.47,252.6L273.66,250.64L274.22,252.88L274.41,252.77L274.6,250.52L274.78,250.97L274.97,248.63L275.91,211.48L276.47,211.53L276.66,211.51L277.6,211.59L277.78,148.64L277.97,28.13L278.53,42.84L278.72,54.1L279.1,45.07L279.47,46.38L279.66,46.81L279.85,54.62L280.22,41.55L280.41,40.18L280.6,36.25L280.97,43.11L281.16,42.36L281.72,52.57L281.91,70.01L283.79,253.02L283.97,252.91L284.16,252.94L286.04,252.86L286.22,252.9L291.29,252.89L291.48,252.07L292.04,252.89L292.23,252.43L292.41,250.71L293.16,252.89L293.35,249.68L293.54,249.62L293.73,246.98L295.04,211.63L295.23,211.58L296.73,211.29L296.92,105.54L297.48,17.24L297.85,26.74L298.04,21.35L299.73,65.76L299.92,90.44L301.6,252.99L302.17,252.93L302.35,252.85L305.92,252.89L306.11,252.88L307.42,252.24L307.61,252.8L307.79,252.83L309.11,252.89L309.29,252.51L310.42,252.85L310.61,251.52L310.8,251.63L310.98,252.9L311.17,252.9L311.36,250.45L312.48,211.1L312.86,211.45L313.05,211.64L313.8,211.55L313.98,20.05L314.17,16L314.55,17.8L314.73,20.71L315.3,27.15L315.48,24.55L315.67,23.39L316.42,32.32L316.61,31.77L316.8,31.43L317.74,53.08L317.92,66.71L319.05,179.56L319.24,206.91L319.99,252.97L320.36,252.94L320.55,252.83L321.86,252.88L322.05,252.89L324.68,252.88L324.86,252.71L325.61,252.82L325.8,251.41L326.55,252.85L326.74,251.2L327.11,252.89L327.49,252.06L327.68,251.05L328.05,252.91L328.24,252.16L328.43,249.75L328.61,249.79L328.8,251.85L328.99,252.91L329.18,249.86L329.36,247.22L329.93,252.54L330.11,246.75L331.24,211.28L331.43,211.58L331.62,211.59L332.18,49.58L332.55,56.77L332.74,56.83L333.12,52.01L333.3,49.31L333.49,50.64L333.68,45.01L333.87,44.23L334.05,61.92L334.24,62.59L334.43,60.1L334.62,63.5L334.8,59.48L334.99,61.92L335.18,59.1L335.74,69.3L335.93,84.59L336.68,166.26L336.87,183.42L337.8,252.98L338.37,252.81L338.56,252.97L340.06,252.86L340.24,252.92L343.99,252.44L344.18,250.74L344.74,252.63L344.93,252.38L345.12,251.8L345.68,252.89L345.87,252.06L346.06,250.52L346.43,252.9L346.81,252.15L347,248L347.18,246.66L347.37,250.21L347.56,241.29L347.93,211.53L348.5,211.54L348.68,211.58L349.43,211.43L349.62,107.26L350.56,25.8L350.75,24.84L351.5,34.45L351.68,33.54L352.06,47.54L352.43,45.94L352.62,44.48L353.75,80.72L353.94,97.07L355.62,253.07L356,252.98L356.19,252.85L357.87,252.99L358.06,252.79L359.56,252.89L359.75,252.83L361.44,252.84L361.63,252.15L362,252.88L362.19,251.82L362.38,249.47L363.31,252.9L363.5,251.76L363.88,252.84L364.06,252.39L364.25,251.71L364.44,250.85L364.63,252.37L364.81,252.87L365.19,248.18L365.38,242.17L365.75,236.8L365.94,217.76L366.31,211.48L366.88,211.57L367.06,211.51L368.19,211.68L368.38,80.34L368.57,26.31L369.13,30.98L369.32,31.15L371,78.19L371.19,69.91L371.57,58.86L371.75,65.11L371.94,79.76L373.25,212.47L373.44,236.82L373.82,253.01L374.38,252.96L374.57,252.89L376.26,252.88L376.44,252.92L379.07,252.59L379.26,251.72L379.44,252.88L379.82,250.87L380.01,251.88L380.19,252.33L380.38,252.69L380.57,251.04L380.94,250.86L381.13,250.29L381.51,248.02L381.7,250.06L381.88,252.49L383.01,248.32L383.2,247.37L383.38,251.46L383.57,250.5L383.76,240.05L384.32,211.43L384.7,211.52L384.88,211.55L385.07,211.54L385.26,170.93L385.82,26.64L386.2,32.28L386.38,44.69L387.32,71.51L387.51,64.06L387.88,67.48L388.45,54.64L388.63,58.57L389.2,60.21L389.39,69.89L391.45,253.05L391.64,252.93L393.51,252.87L393.7,252.88L396.51,252.9L396.7,252.92L398.39,252L398.58,252.91L399.51,250.72L399.7,252.11L400.08,252.22L400.26,251.46L400.64,249.64L400.83,252.6L401.01,252.48L401.95,229.6L402.14,214.17L403.08,211.46L403.27,211.65L404.58,211.71L404.77,58.18L404.95,46.85L405.33,59.77L405.52,68.53L405.89,87.54L406.27,84.08L406.45,79.14L406.64,75.54L407.02,82.23L407.2,92.34L408.52,177.06L408.7,193.08L409.64,253.04L409.83,252.92L410.02,252.92L419.02,252.95L419.21,252.44L419.77,235.87L419.96,219.54L420.33,211.46L420.9,211.56L421.08,211.48L422.21,211.63L422.4,211.6L422.77,40.39L423.33,51.53L423.52,57.38L423.9,58.58L424.27,55.13L424.46,62.36L424.65,59.89L424.84,64.25L425.02,66.33L426.34,154.77L426.52,173.66L427.46,253.14L427.65,252.87L427.84,253L429.71,252.9L429.9,252.85L432.15,252.91L432.34,252.89L437.03,252.91L437.21,251.36L437.4,251.64L437.59,247.15L438.53,211.46L438.71,211.58L438.9,211.55L440.78,211.66L440.97,123.38L441.15,41.44L441.72,53.49L441.9,53.06L442.09,46.35L442.28,53.99L442.47,61.02L442.65,59.12L442.84,63.28L443.03,64.12L443.22,64.66L443.4,80.65L444.72,193.86L444.9,227.2L445.09,253.08L445.65,252.9L445.84,252.91L449.41,252.94L449.59,252.86L454.47,252.91L454.66,252.91L455.6,252.87L455.78,250.88L456.72,211.5L456.91,211.55L457.1,211.57L459.16,211.64L459.35,125.55L459.53,61.95L460.1,79.69L460.28,81.7L461.41,104.33L461.6,112.79L463.47,253.19L463.85,252.85L464.04,252.92L465.91,252.84L466.1,252.94L468.16,252.82L468.35,252.97L469.48,252.91L469.66,252.89L473.79,252.89L473.98,239.38L474.73,211.5L474.91,211.65L475.1,211.52L477.17,211.56L477.35,196.27L477.54,67.8L478.1,79.06L478.29,89.52L478.67,100.47L478.85,97.92L479.04,89.4L479.42,105.03L479.6,125.61L481.67,252.99L481.85,252.9L482.04,252.92L486.54,252.82L486.73,252.97L488.04,252.85L488.23,252.92L491.8,252.89L491.98,245.32L493.11,211.53L493.3,211.5L494.61,211.72L494.8,211.53L495.55,211.73L495.73,161.34L495.92,68.16L496.48,71.86L496.67,73.77L497.05,78.87L497.24,96.09L499.3,253.1L499.49,252.9L499.67,253.01L502.3,252.85L502.49,252.96L503.8,252.77L503.99,252.92L505.68,252.9L505.86,252.92L508.3,252.92L508.49,252.89L509.8,252.93L509.99,245.88L510.55,211.48L510.93,211.49L511.11,211.57L514.12,211.6L514.3,100.74L515.24,72.72L515.43,91.48L517.49,252.41L517.68,253.05L518.62,252.84L518.81,252.93L521.62,252.88L521.81,252.92L525.75,252.19L525.93,252.91L526.31,252.92L526.5,251.95L526.87,252.89L527.62,249.82L527.81,247.34L528.56,211.44L528.93,211.65L529.12,211.51L529.87,211.62L530.06,154.6L530.25,28.29L530.81,41.06L531,38.14L531.18,28.33L531.56,34.45L531.75,39.21L532.12,35.79L532.31,37.52L532.5,45.82L535.69,253L535.87,252.92L536.06,252.91L540,252.87" style="vector-effect: non-scaling-stroke; fill: none; stroke: rgb(0, 191, 255); stroke-opacity: 1; stroke-width: 2px; opacity: 1;"/></g><g class="points"/><g class="text"/></g></g></g><g class="overplot"/><path class="xlines-above crisp" d="M0,0" style="fill: none;"/><path class="ylines-above crisp" d="M0,0" style="fill: none;"/><g class="overlines-above"/><g class="xaxislayer-above"><g class="xtick"><text text-anchor="middle" x="0" y="433" transform="translate(134.02,0)" style="font-family: 'Open Sans', verdana, arial, sans-serif; font-size: 12px; fill: rgb(42, 63, 95); fill-opacity: 1; white-space: pre; opacity: 1;"><tspan class="line" dy="0em" x="0" y="433">Sep 4</tspan><tspan class="line" dy="1.3em" x="0" y="433">2022</tspan></text></g><g class="xtick"><text text-anchor="middle" x="0" y="433" style="font-family: 'Open Sans', verdana, arial, sans-serif; font-size: 12px; fill: rgb(42, 63, 95); fill-opacity: 1; white-space: pre; opacity: 1;" transform="translate(260.06,0)">Sep 11</text></g><g class="xtick"><text text-anchor="middle" x="0" y="433" style="font-family: 'Open Sans', verdana, arial, sans-serif; font-size: 12px; fill: rgb(42, 63, 95); fill-opacity: 1; white-space: pre; opacity: 1;" transform="translate(386.11,0)">Sep 18</text></g><g class="xtick"><text text-anchor="middle" x="0" y="433" style="font-family: 'Open Sans', verdana, arial, sans-serif; font-size: 12px; fill: rgb(42, 63, 95); fill-opacity: 1; white-space: pre; opacity: 1;" transform="translate(512.15,0)">Sep 25</text></g></g><g class="yaxislayer-above"><g class="ytick"><text text-anchor="end" x="79" y="4.199999999999999" transform="translate(0,366.65)" style="font-family: 'Open Sans', verdana, arial, sans-serif; font-size: 12px; fill: rgb(42, 63, 95); fill-opacity: 1; white-space: pre; opacity: 1;">−20</text></g><g class="ytick"><text text-anchor="end" x="79" y="4.199999999999999" style="font-family: 'Open Sans', verdana, arial, sans-serif; font-size: 12px; fill: rgb(42, 63, 95); fill-opacity: 1; white-space: pre; opacity: 1;" transform="translate(0,311.63)">0</text></g><g class="ytick"><text text-anchor="end" x="79" y="4.199999999999999" style="font-family: 'Open Sans', verdana, arial, sans-serif; font-size: 12px; fill: rgb(42, 63, 95); fill-opacity: 1; white-space: pre; opacity: 1;" transform="translate(0,256.61)">20</text></g><g class="ytick"><text text-anchor="end" x="79" y="4.199999999999999" style="font-family: 'Open Sans', verdana, arial, sans-serif; font-size: 12px; fill: rgb(42, 63, 95); fill-opacity: 1; white-space: pre; opacity: 1;" transform="translate(0,201.57999999999998)">40</text></g><g class="ytick"><text text-anchor="end" x="79" y="4.199999999999999" style="font-family: 'Open Sans', verdana, arial, sans-serif; font-size: 12px; fill: rgb(42, 63, 95); fill-opacity: 1; white-space: pre; opacity: 1;" transform="translate(0,146.56)">60</text></g></g><g class="overaxes-above"/></g></g><g class="polarlayer"/><g class="smithlayer"/><g class="ternarylayer"/><g class="geolayer"/><g class="funnelarealayer"/><g class="pielayer"/><g class="iciclelayer"/><g class="treemaplayer"/><g class="sunburstlayer"/><g class="glimages"/><defs id="topdefs-70fd31"><g class="clips"/></defs><g class="layer-above"><g class="imagelayer"/><g class="shapelayer"/></g><g class="infolayer"><g class="g-gtitle"><text class="gtitle" x="350" y="50" text-anchor="middle" dy="0em" style="font-family: 'Open Sans', verdana, arial, sans-serif; font-size: 17px; fill: rgb(42, 63, 95); opacity: 1; font-weight: normal; white-space: pre;"><tspan class="line" dy="0em" x="350" y="50">Scenario 3</tspan><tspan class="line" dy="1.3em" x="350" y="50">Microgrid Output</tspan><tspan class="line" dy="2.6em" x="350" y="50">From: September 01, 2022 to September 30, 2022</tspan></text></g><g class="g-xtitle"><text class="xtitle" x="350" y="476.409375" text-anchor="middle" style="font-family: 'Open Sans', verdana, arial, sans-serif; font-size: 14px; fill: rgb(42, 63, 95); opacity: 1; font-weight: normal; white-space: pre;">Time</text></g><g class="g-ytitle"><text class="ytitle" transform="rotate(-90,33.840625,260)" x="33.840625" y="260" text-anchor="middle" style="font-family: 'Open Sans', verdana, arial, sans-serif; font-size: 14px; fill: rgb(42, 63, 95); opacity: 1; font-weight: normal; white-space: pre;">Demand (kW)</text></g></g></svg>