<svg class="main-svg" xmlns="http://www.w3.org/2000/svg" xmlns:xlink="http://www.w3.org/1999/xlink" width="700" height="500" style="" viewBox="0 0 700 500"><rect x="0" y="0" width="700" height="500" style="fill: rgb(255, 255, 255); fill-opacity: 1;"/><defs id="defs-ac6338"><g class="clips"><clipPath id="clipac6338xyplot" class="plotclip"><rect width="432" height="320"/></clipPath><clipPath class="axesclip" id="clipac6338x"><rect x="80" y="0" width="432" height="500"/></clipPath><clipPath class="axesclip" id="clipac6338y"><rect x="0" y="100" width="700" height="320"/></clipPath><clipPath class="axesclip" id="clipac6338xy"><rect x="80" y="100" width="432" height="320"/></clipPath></g><g class="gradients"/><g class="patterns"/></defs><g class="bglayer"/><g class="layer-below"><g class="imagelayer"/><g class="shapelayer"/></g><g class="cartesianlayer"><g class="subplot xy"><g class="layer-subplot"><g class="shapelayer"/><g class="imagelayer"/></g><g class="gridlayer"><g class="x"><path class="xgrid crisp" transform="translate(123.22,0)" d="M0,100v320" style="stroke: rgb(255, 255, 255); stroke-opacity: 1; stroke-width: 1px;"/><path class="xgrid crisp" transform="translate(224.05,0)" d="M0,100v320" style="stroke: rgb(255, 255, 255); stroke-opacity: 1; stroke-width: 1px;"/><path class="xgrid crisp" transform="translate(324.89,0)" d="M0,100v320" style="stroke: rgb(255, 255, 255); stroke-opacity: 1; stroke-width: 1px;"/><path class="xgrid crisp" transform="translate(425.72,0)" d="M0,100v320" style="stroke: rgb(255, 255, 255); stroke-opacity: 1; stroke-width: 1px;"/></g><g class="y"><path class="ygrid crisp" transform="translate(0,342.11)" d="M80,0h432" style="stroke: rgb(255, 255, 255); stroke-opacity: 1; stroke-width: 1px;"/><path class="ygrid crisp" transform="translate(0,186.78)" d="M80,0h432" style="stroke: rgb(255, 255, 255); stroke-opacity: 1; stroke-width: 1px;"/><path class="ygrid crisp" transform="translate(0,109.11)" d="M80,0h432" style="stroke: rgb(255, 255, 255); stroke-opacity: 1; stroke-width: 1px;"/></g></g><g class="zerolinelayer"><path class="yzl zl crisp" transform="translate(0,264.44)" d="M80,0h432" style="stroke: rgb(255, 255, 255); stroke-opacity: 1; stroke-width: 2px;"/></g><path class="xlines-below"/><path class="ylines-below"/><g class="overlines-below"/><g class="xaxislayer-below"/><g class="yaxislayer-below"/><g class="overaxes-below"/><g class="plot" transform="translate(80,100)" clip-path="url(#clipac6338xyplot)"><g class="scatterlayer mlayer"><g class="trace scatter traced097b3" style="stroke-miterlimit: 2; opacity: 0.5;"><g class="fills"/><g class="errorbars"/><g class="lines"><path class="js-line" d="M0,164.44L432,164.44" style="vector-effect: non-scaling-stroke; fill: none; stroke: rgb(0, 191, 255); stroke-opacity: 1; stroke-width: 2px; opacity: 1;"/></g><g class="points"/><g class="text"/></g><g class="trace scatter trace69c118" style="stroke-miterlimit: 2; opacity: 0.5;"><g class="fills"/><g class="errorbars"/><g class="lines"><path class="js-line" d="M0,164.63L3.75,164.47L3.9,163.78L4.8,148.28L4.95,129.41L5.1,139.6L5.25,127.09L5.4,78.54L5.85,107.86L6,31.65L6.45,39.93L6.6,35.56L6.75,31.85L7.2,21.67L7.35,32.88L7.5,44.01L7.8,17L8.4,18.2L8.55,26.9L8.7,23.52L8.85,28.79L9,55.49L9.45,114.39L9.75,99.46L9.9,93.18L10.05,76.8L10.35,109.35L10.5,131.54L10.65,131.64L10.8,148.09L10.95,147.78L11.1,153.6L12,164.64L12.15,164.64L18.16,164.46L18.31,163.85L19.06,142.13L19.21,133.35L21.76,20.79L21.91,19.13L22.21,17.1L22.36,17.71L22.51,29.94L23.26,116.46L23.41,94.52L23.56,76.99L24.31,143.14L24.46,135.44L24.61,103.74L24.76,100.4L24.91,112.46L25.06,120.01L26.11,164.64L26.26,164.64L32.71,163.99L32.86,161.91L33.46,143.08L33.61,134.65L36.16,20.4L36.31,19.2L36.61,17.16L36.91,18.81L37.06,20.22L37.21,19.87L37.36,20.96L37.51,29.59L37.66,24.31L37.81,39.37L37.96,36.1L38.11,42.8L40.36,164.59L40.51,164.64L47.12,164.06L47.27,161.47L48.02,136.33L48.17,120.07L48.62,124.26L49.67,33.51L49.82,46.64L49.97,71.94L51.02,16.47L51.17,16.57L51.32,16.54L51.62,16.8L51.77,24.97L52.22,89.4L52.52,59.16L52.67,60.57L54.17,159L54.32,160.97L55.22,164.64L55.37,164.64L61.52,164.02L61.67,161.81L62.27,141.57L62.42,132.29L64.82,22.86L64.97,21.22L65.57,17.51L65.72,20.25L65.87,23.25L66.02,22.84L66.17,24.55L66.32,27.94L67.82,96.33L67.97,106.65L69.47,164.64L69.62,164.64L75.93,164.07L76.08,162.08L76.83,132.56L76.98,123.36L79.23,25.54L79.38,22.56L79.83,18.2L80.13,19.4L80.28,20.89L80.58,22.91L80.73,26.88L82.08,89.37L82.23,99.73L83.88,164.63L84.03,164.63L90.18,164.54L90.33,164.17L90.93,151.14L91.08,142.81L93.78,27.25L93.93,23.94L95.13,36.26L95.28,38.38L95.73,50.4L95.88,75.29L96.03,75.59L96.18,70.86L96.48,96.93L96.63,129.76L97.08,138.45L97.23,146.13L98.28,164.63L98.43,164.64L105.04,164.26L105.19,163.42L105.79,146.72L105.94,134.75L106.99,38.82L107.14,62.7L107.29,80.96L108.04,17.95L108.19,30.69L108.34,23.33L108.94,88.53L109.24,52L109.39,44.7L109.54,44L109.69,76.92L109.84,26.05L110.44,63.21L110.59,98.38L111.79,158.76L111.94,161.3L112.84,164.63L112.99,164.63L118.99,164.61L119.14,164.25L119.59,153.22L119.74,148.23L120.94,108.3L121.09,101.5L121.69,94.15L121.84,105L122.14,121.92L122.29,110.54L122.44,88.35L122.74,115.03L122.89,122.05L123.94,150.26L124.09,149.99L124.24,146.48L124.69,140.66L124.84,143.47L124.99,150.03L125.14,147.88L125.29,154.1L125.44,157.72L125.59,157.12L125.89,158.73L126.04,160.02L127.09,164.63L127.24,164.63L133.4,164.55L133.55,163.38L135.05,130.29L135.2,129.5L135.5,137.7L135.65,121.09L135.8,118.77L136.25,130.33L136.4,119.71L136.55,109.02L137.75,66.37L137.9,65.04L138.2,78.79L138.35,110.84L139.1,140.87L139.25,131.47L139.4,122.94L139.55,119.06L139.85,130.14L140,133.35L141.35,164.64L141.5,164.63L147.95,164.26L148.1,162.31L149.15,124.87L149.3,115.05L150.5,16L150.95,16.16L151.1,16.14L152.45,16.19L152.6,18.94L153.2,130.34L153.65,107.57L153.8,55.98L155.15,160.21L155.3,164.54L159.36,164.64L159.51,164.64L162.36,164.2L162.51,162.73L163.56,139.53L163.71,115.93L164.31,105.14L164.46,97.78L166.11,24.43L166.26,24.46L166.56,19.16L166.71,21.94L166.86,71.15L167.16,16.29L167.61,36.87L167.76,32.14L168.51,152.66L168.66,141.88L168.81,117.38L169.11,104.14L169.26,120.92L169.41,136.1L170.31,164.64L170.46,164.65L176.76,164.38L176.91,162.93L177.96,122.19L178.11,113.96L178.71,84.3L178.86,75.24L179.61,16.84L179.91,31.06L180.06,31.12L180.21,33.02L180.36,65.43L181.41,119.42L181.56,116.28L181.71,91.25L182.46,36.22L182.61,41.8L182.76,60.32L184.71,164.64L184.86,164.64L191.17,164.05L191.32,160.56L192.07,122.88L192.22,110.8L193.57,19.79L193.72,22.63L193.87,33.81L194.47,16.29L194.92,16.42L195.07,16.42L196.57,17.15L196.72,22.28L199.12,164.64L199.27,164.64L205.57,164.35L205.72,162.88L206.77,123.3L206.92,103.28L207.97,16.47L208.12,16.22L210.97,17.26L211.12,23.52L213.52,164.65L213.67,164.64L219.98,164.01L220.13,160.92L220.88,121.53L221.03,109.05L222.53,16.15L222.83,16.32L222.98,16.39L225.23,16.58L225.38,18.26L226.73,123.39L226.88,136.64L227.93,164.64L228.08,164.64L234.53,164.18L234.68,162.88L236.33,124.21L236.48,113.23L237.98,16L238.43,16.07L238.58,16.07L239.63,16.55L239.78,20.07L242.33,164.64L242.48,164.64L248.94,164.19L249.09,162.13L249.69,142L249.84,130.7L251.34,16.12L251.49,16.14L251.64,16.22L254.04,16.48L254.19,20L256.74,164.65L256.89,164.64L263.19,164.35L263.34,162.73L264.54,119.67L264.69,105.15L265.89,16.1L266.04,16.24L268.29,16.53L268.44,16.94L269.19,61.7L269.34,73.83L270.99,164.65L271.14,164.64L277.6,164.25L277.75,160.77L278.5,113.63L278.65,104.4L280.15,16.14L280.75,16.34L280.9,16.37L282.7,16.56L282.85,17.64L283.9,88.9L284.05,101.97L285.4,164.64L285.55,164.64L292,164.27L292.15,162.92L292.75,137.95L292.9,124.33L294.55,16.32L294.85,16.35L295,16.39L297.25,17.22L297.4,23.21L298.9,141.75L299.05,153.89L299.95,164.64L300.1,164.64L306.41,164.29L306.56,163.27L307.16,140.52L307.31,125.72L308.96,16.24L309.11,16.27L309.26,16.41L311.51,16.9L311.66,18.22L312.86,104.37L313.01,117.99L314.21,164.64L314.36,164.64L320.81,164.39L320.96,163.78L321.56,143.1L321.71,129.16L323.66,16.46L323.81,16.6L323.96,16.67L325.76,17.28L325.91,22.37L327.11,96.49L327.26,109.38L328.61,164.64L328.76,164.65L335.37,163.93L335.52,160.97L335.97,144.2L336.12,131.19L338.07,16.2L338.22,16.26L338.37,16.36L340.17,16.83L340.32,20.6L341.67,111L341.82,123.7L343.02,164.64L343.17,164.64L349.77,163.94L349.92,161.05L350.52,131.51L350.67,118.9L352.47,16.1L352.62,16.16L352.77,16.14L354.27,16.48L354.42,16.56L354.72,21.54L354.87,27.18L356.07,136.62L356.22,153.33L356.37,140.82L356.82,163.76L356.97,164.56L358.47,164.64L358.62,164.64L364.18,163.91L364.33,160.74L364.78,144.85L364.93,132.37L366.88,16.35L367.03,16.4L367.18,16.45L368.98,17.44L369.13,21.25L370.33,103.16L370.48,115.43L371.83,164.64L371.98,164.64L378.58,163.91L378.73,161.43L379.33,132.08L379.48,119L381.28,16.37L381.43,16.53L381.58,16.56L383.23,16.88L383.38,18.64L383.98,52.96L384.13,63.64L385.63,164.46L385.78,164.6L388.78,164.63L388.94,164.63L392.99,164.04L393.14,161.12L393.74,134.23L393.89,122L395.84,16.37L395.99,16.51L397.64,17.04L397.79,19.09L398.99,93.8L399.14,104.7L400.64,164.64L400.79,164.64L407.39,164.06L407.54,161.02L408.14,134.52L408.29,122.19L410.24,16.33L410.39,16.51L412.04,16.65L412.19,17.62L413.09,65.72L413.24,76.85L414.89,164.64L415.04,164.64L421.65,164.53L421.8,163.75L422.7,114.1L422.85,92.94L424.2,22.72L424.35,17.75L424.8,16.22L425.1,16.31L425.25,16.37L426.45,16.73L426.6,19.23L427.8,92.24L427.95,104.75L429.3,164.64L429.45,164.64L432,164.63" style="vector-effect: non-scaling-stroke; fill: none; stroke: rgb(255, 0, 0); stroke-opacity: 1; stroke-width: 2px; opacity: 1;"/></g><g class="points"/><g class="text"/></g><g class="trace scatter trace60597b" style="stroke-miterlimit: 2; opacity: 0.5;"><g class="fills"/><g class="errorbars"/><g class="lines"><path class="js-line" d="M0,206.93L0.6,197.82L0.75,205.99L0.9,201.23L1.05,203.27L1.35,199.37L1.5,201.91L1.65,200.85L1.95,203.4L2.1,196.11L2.25,197.46L2.4,203.74L3.15,195.44L3.3,260.47L3.9,192.8L4.2,198.94L4.35,194.79L4.5,196.89L4.65,190.56L4.8,250.85L4.95,253.39L5.1,202.62L6.15,101.75L6.3,117.25L7.05,102.16L7.2,108.01L7.5,130.92L7.65,100.17L7.8,98.33L7.95,87.33L8.1,167.28L8.55,195.5L8.7,119.36L8.85,115.93L9,143.89L9.45,208.16L9.75,183.35L9.9,171.74L10.05,157.63L10.35,185.18L10.5,210.16L10.65,206.2L10.8,223.23L10.95,222L11.1,226.71L11.25,230.78L11.55,234.76L11.7,227.16L11.85,233.21L12,226.95L12.15,233.22L12.3,224.59L12.45,230.73L12.6,214.15L12.75,221.46L13.2,211.39L13.35,218.48L13.5,212.51L13.65,217.31L13.8,210.06L14.1,212.9L14.25,210.77L14.41,215.94L14.56,207.78L14.86,211.17L15.01,202.53L15.16,202.36L15.31,202.93L15.46,199.06L15.61,203.99L15.76,198.87L16.21,199.73L16.36,199.04L16.81,198.12L16.96,201.93L17.11,196.18L17.26,199.51L17.86,198.12L18.01,196.84L18.16,197.26L18.31,193.26L18.76,208.88L18.91,197.17L19.06,192.22L19.66,169.12L19.81,154.48L19.96,214.2L20.26,133.27L20.41,135.87L20.56,121.6L20.86,111.44L21.01,104.6L21.16,109.48L21.31,92.65L21.46,100L21.61,94.12L22.06,94.46L22.21,85.6L22.36,94.24L23.11,183.63L23.26,256.9L23.56,234.58L23.71,174.62L24.16,207.34L24.46,204.32L24.61,168.71L24.76,167.96L24.91,182.04L25.66,227.35L26.26,223.38L26.41,221.96L26.56,224.41L26.71,219.12L26.86,221.96L27.01,210.75L27.46,215.57L27.61,206.97L27.76,210.69L28.81,206.65L28.96,210.1L29.56,198.36L29.71,202.41L29.86,203.64L30.61,198.55L30.76,202.56L31.06,199.35L31.21,262.38L31.96,197.85L32.11,202.71L32.26,257.51L32.41,276.96L32.56,215.2L32.71,200.32L32.86,195.34L33.01,266.29L33.16,278.35L33.31,213.1L34.51,137.63L34.66,124.83L34.81,125.63L34.96,118.06L35.11,114.26L35.26,174.56L35.41,185.15L35.56,177.21L35.71,116.4L36.16,176.7L36.31,110.17L36.46,92.37L36.61,87.82L36.76,103.36L37.06,96.49L37.21,100.05L37.96,123.23L38.11,114.2L38.26,142.15L38.41,137.21L38.56,146.61L38.71,152.37L40.06,304L40.21,242.39L40.81,222.13L41.11,224.26L41.26,224.8L42.16,209.08L42.31,213.98L43.06,202.41L43.22,204.09L43.37,203.97L43.52,200.73L43.82,205.43L44.12,203.46L44.27,202.94L44.57,204.32L44.72,199.38L45.17,199.94L45.32,201.02L45.47,202L45.62,200.78L45.77,201.81L45.92,197.8L46.22,280.77L46.67,275.31L46.82,220.31L47.72,195.25L47.87,185.4L48.02,187.08L48.17,170.46L48.47,154.38L48.62,238.93L48.77,245.72L48.92,142.14L49.37,177.3L49.67,92.04L49.82,117.09L49.97,203.13L50.42,107.12L50.57,88.46L51.02,85.92L51.32,101.53L51.47,91.44L51.77,106.54L51.92,172.36L52.22,252.82L52.37,207.25L52.52,157.26L52.67,131.72L53.27,153.47L53.42,179.85L54.32,218.55L54.47,218.58L54.77,220.9L54.92,216.27L55.07,217.57L55.22,218.32L55.37,219.29L55.52,213.3L55.67,218.7L55.82,201.92L55.97,208.37L56.12,203.63L56.57,206.14L56.72,205.27L56.87,202.12L57.02,202.08L57.17,208.2L58.07,199.39L58.22,201.48L58.52,203.28L58.67,200.7L58.82,202.76L58.97,199.03L59.27,201.79L59.42,196.86L60.17,201.43L60.32,196.68L60.47,197.04L60.62,203.76L60.77,196.06L61.22,202.21L61.37,259.55L62.27,187.49L62.42,181.11L63.62,127.49L63.77,181.86L63.92,197.07L64.07,130.96L64.22,109.46L64.37,167.62L64.52,180.22L65.12,90.86L65.42,91.02L65.57,103.3L65.72,96.44L65.87,108.28L66.32,99.36L66.47,112.76L67.67,162.39L67.82,174.24L67.97,174.05L68.12,193.18L69.02,230.42L69.32,227.52L69.47,219.75L69.62,225.05L69.77,216.34L69.92,222.6L70.07,212.74L70.22,214.65L70.37,206.55L70.82,205.52L70.97,210.54L71.12,202.43L71.27,212.02L71.42,201.39L71.87,206.82L72.03,204.76L72.33,206.67L72.48,202.57L72.63,206.26L72.93,207.61L73.38,198.64L73.53,205.77L73.98,195.6L74.28,198.16L74.43,203.6L74.58,196.31L75.18,202.47L75.33,196.46L75.48,202.41L75.63,194.01L75.78,264.36L76.68,190.84L76.83,194.39L78.03,134.81L78.18,137.8L78.48,115.04L78.63,116.9L78.78,174.56L78.93,185.62L79.08,129.76L79.68,95.72L79.83,167.35L79.98,187.75L80.13,129.77L80.28,109.17L82.53,198.17L82.68,211.33L83.43,229.51L83.73,227.55L83.88,221.72L84.03,227.01L84.48,219.67L84.63,215.7L85.23,211.21L85.38,216.05L86.13,206.94L86.28,216.09L86.73,198.77L87.03,198.87L87.18,204.89L88.08,198.64L88.23,203.98L88.83,197.12L89.13,197.13L89.28,202.55L89.43,195.89L89.73,200.53L89.88,258.7L90.18,197.08L90.78,211.04L90.93,203.74L91.08,204.89L91.23,263.84L91.98,159.07L92.13,163.86L92.28,151.63L92.43,150.44L92.58,141.51L92.73,146.13L92.88,126.24L93.03,131.46L93.18,114.84L93.33,115.66L93.63,181.99L93.93,107.28L94.08,99.07L94.68,200.72L94.83,135.26L94.98,131.75L95.28,132.99L95.43,139.75L97.53,228.55L97.98,227.04L98.13,222.29L98.28,224.63L98.43,219.63L98.58,285.33L98.88,299.08L99.03,227.33L99.78,207.47L99.93,210.93L100.08,207.04L100.23,213.88L100.68,200.92L100.84,207.23L100.99,199.12L101.44,208.23L101.59,199.2L101.74,203.24L102.34,199.23L102.49,203.71L103.39,197.65L103.54,201.59L103.84,202.1L103.99,197.38L104.29,197.88L104.44,199.94L104.59,199.68L104.74,196.58L105.34,214.85L105.64,210.07L105.79,202.17L105.94,198.87L106.09,171.25L106.24,177.21L106.39,145.61L106.69,125.24L106.84,178.84L106.99,200.55L107.14,157.11L107.29,160.45L107.44,110.92L107.59,101.78L107.74,132.76L107.89,147.59L108.04,159.19L108.19,119.26L108.34,82.43L108.94,152.64L109.24,121.81L109.39,113.6L109.54,113.41L109.69,144.87L109.84,103.71L110.44,135.57L110.59,176.58L110.74,182.9L110.89,258.76L111.04,276.92L111.19,209.14L111.34,210.9L111.49,207.26L111.64,217.59L111.79,221.04L112.09,226.98L112.24,217.91L112.39,228.98L112.99,231.9L113.14,216.8L113.29,218.99L113.74,207.25L114.04,207.56L114.19,213.8L114.94,206.88L115.09,211.45L115.99,199.77L116.14,206.45L116.44,208.46L116.89,198.38L117.04,206.63L117.19,195.07L117.79,199.3L117.94,199.17L118.09,203.75L118.54,198.89L118.69,201.48L118.84,201.91L119.14,280.51L119.59,203.1L119.74,203.4L120.04,200.9L120.19,201.39L120.34,178.73L120.79,261.13L120.94,190.5L121.09,167.48L121.69,150.46L121.84,166.11L122.14,177L122.29,162.63L122.44,145.62L123.04,181.64L123.19,194.56L123.34,192.43L123.64,196.61L123.79,194.64L123.94,201.44L124.54,206.28L124.69,189.95L124.84,202.09L124.99,198.62L125.14,203.26L125.29,202.64L125.44,207.65L125.89,209.71L126.04,205.69L126.19,216.88L127.09,207.49L127.24,210.06L127.54,211.55L128.14,201.99L128.29,209.33L128.59,209.68L129.19,197.04L129.34,202.37L129.95,203.55L130.1,194.52L130.25,199.21L130.7,199.91L130.85,194.97L131,197.56L131.15,198.24L131.45,201.21L131.75,196.78L131.9,202.55L132.05,195.66L132.65,202.13L132.8,196.81L132.95,195.96L133.1,202.78L133.7,189.98L133.85,202.52L134,248.55L134.15,252.35L134.3,202.22L135.2,165.04L135.35,184.94L135.5,183.2L135.65,166.45L135.8,160.31L135.95,231.39L136.1,251.16L136.4,242.85L136.55,179.74L136.85,136.19L137.45,137.96L137.6,119.9L137.75,124.81L137.9,117.1L138.2,122.5L138.35,165.61L138.95,202.53L139.1,191.21L139.25,174.84L139.55,162.62L139.7,172.3L139.85,181.78L141.05,222.33L141.2,217.8L141.35,220.73L141.5,215.42L141.65,216.76L141.8,212.26L141.95,210.8L142.1,221.28L143,200.37L143.15,202.62L143.45,198.61L143.6,205.64L143.75,197.94L144.35,201.09L144.5,200.43L144.8,203.94L144.95,196.23L145.1,198.45L145.25,203.35L145.85,195.48L146,203.22L146.15,197.43L146.3,193.72L146.45,203.6L146.6,196.57L146.75,259.87L146.9,280.47L147.05,208.56L147.2,200.65L147.35,199.87L147.5,194.24L148.25,202.99L148.4,194.52L149.45,145.36L149.6,206.59L149.9,196.7L150.05,85.46L150.5,56.51L150.95,71.27L151.1,76.92L151.25,66.66L151.4,77.2L151.55,73.62L151.7,140.39L151.85,154.33L152,96.25L152.3,79.85L152.6,89.09L152.75,113.67L153.35,187.46L153.5,182.28L153.65,165.9L153.8,113.91L154.1,168.95L154.25,159.79L154.4,206.22L154.7,199.32L155,204.09L155.15,209.52L155.3,210.04L155.45,214.96L156.35,202.87L156.5,206.97L157.4,200.23L157.55,203.16L157.85,198.68L158,205.47L158.61,199.08L158.76,203.06L158.91,201.03L159.06,198.31L159.21,204.46L159.51,199.23L159.66,202.44L159.81,192.68L160.26,200.59L160.41,261.04L161.01,195.27L161.31,198.06L161.46,198.2L161.76,199.56L162.06,192.13L162.21,198.81L162.36,198.24L162.51,193.38L162.81,208.46L163.26,195.82L163.41,185.36L163.56,190.5L163.71,237.15L163.86,246.34L164.01,181.37L164.16,213.88L164.31,166L164.61,206.49L164.76,151.67L165.36,89.29L165.66,105.12L165.81,107.7L165.96,109.66L166.11,158.79L166.26,180.3L166.56,117.79L166.71,112.15L166.86,156.76L167.16,101.74L167.31,107.2L167.46,107.74L168.51,214.56L168.66,186.67L168.81,164.18L168.96,155.93L169.26,166.86L169.41,188.58L169.86,289.05L170.16,207.34L170.31,208.31L170.61,209.81L170.76,205L170.91,207.53L171.06,202.68L171.21,206.01L171.36,201.63L171.51,200.09L171.66,203.52L171.96,202.6L172.11,202.07L172.41,203.19L172.71,196.72L172.86,204.07L173.46,197.12L173.61,201.39L173.76,200.65L173.91,195.05L174.06,201.71L174.36,196.45L174.51,201.99L174.66,192.18L175.26,197.08L175.41,200.48L175.56,194.56L176.01,197.51L176.16,254.83L176.31,276.45L176.46,210.28L176.61,196.35L176.91,195.08L177.06,202.04L177.21,201.64L177.36,267.03L177.51,280.56L177.81,264.52L177.96,243.06L178.86,128.71L179.01,130.61L179.31,123.17L179.46,85.03L179.91,173.4L180.21,102.35L180.36,128.31L180.66,149.45L180.96,136.79L181.11,139.5L181.41,177.89L181.71,147.85L181.86,141.84L182.01,141.32L182.16,123.06L182.31,148.89L182.46,102.83L182.91,142.52L183.06,145.21L184.11,221.54L184.56,212.92L184.71,210.2L185.31,215.58L185.46,207.64L185.61,213.19L185.76,207.27L186.21,210.69L186.36,207.34L186.96,210.04L187.11,206.21L187.57,194.67L188.02,196.31L188.17,197.66L188.32,192.07L188.47,197.85L188.92,195.2L189.07,192.44L189.22,194.58L189.82,192.63L189.97,190.47L190.12,192.32L190.27,255.84L191.02,190.39L191.17,192.48L191.32,190.54L192.52,125.85L192.67,181.46L192.82,182.88L192.97,180.56L193.12,174.31L193.42,146.31L193.57,84.13L193.87,166.56L194.17,76.02L194.32,72.62L194.47,75.5L194.62,73.03L194.77,131.71L194.92,156.11L195.07,89.12L195.22,68.8L195.82,80.63L195.97,75.05L196.12,75.14L196.87,93.98L197.02,160.39L197.32,198.82L197.47,142.26L197.62,143.42L197.77,150.84L198.97,287.35L199.12,218.2L200.02,199.37L200.17,196.3L200.32,200.5L200.92,199.77L201.07,197.44L201.22,191.98L201.52,200.59L201.82,195.91L201.97,193.68L202.12,199.97L202.42,195.42L202.57,259.21L202.72,273.24L202.87,272.17L203.02,209.57L203.47,191.36L203.77,195.96L203.92,193.34L204.07,193.52L204.22,192.95L204.37,191.95L204.52,196.43L204.67,191.2L205.12,194.26L205.27,190.23L205.42,190.59L205.57,195.34L205.72,195.14L205.87,186.98L206.02,186.93L206.17,185.56L206.32,186.43L206.47,172.99L206.92,153.1L207.07,114.33L207.22,206.65L207.67,80.04L207.82,72.06L207.97,66.85L208.12,124.93L208.57,144.52L208.87,64.89L209.02,64.96L209.17,75.28L209.92,64.03L210.07,75.18L210.22,64.21L210.37,76.59L210.82,74.94L210.97,75.45L211.12,76.89L211.27,87.47L212.02,232.47L212.17,188.11L212.32,172.99L213.37,287.17L213.52,221.87L214.42,199.36L214.57,199.7L214.72,205.15L214.87,197.38L215.32,201.51L215.47,196.08L215.77,199.71L216.08,193.18L216.23,193.19L216.98,187.96L217.13,189.02L217.28,192.17L217.88,187.7L218.03,192.95L218.93,186.59L219.08,186.49L219.53,190.33L219.68,249.09L220.58,167.29L220.73,159.48L221.18,127L221.33,178.56L221.48,182.61L221.63,112.9L221.78,89.11L222.08,152.64L222.23,147.79L222.83,64.49L223.28,66.42L223.43,75.39L223.73,68.66L223.88,75.05L224.03,75.94L224.63,65.24L224.78,70.33L224.93,68.15L225.53,79.28L225.68,92.61L226.43,221.42L226.58,170.44L226.73,171.68L227.48,205.42L227.93,203.07L228.08,203.84L228.23,209.44L228.53,198.29L228.68,196.96L228.83,198.67L228.98,194.47L229.13,194.8L229.28,194.02L229.73,192.23L229.88,197.37L230.03,193.18L230.48,195.21L230.63,189.3L230.78,194.22L231.38,188.27L231.53,194.3L232.28,187.48L232.43,250.07L232.58,266.45L232.73,204.37L232.88,189.27L233.03,189.18L233.18,188.14L233.48,189.44L234.08,186.37L234.23,188.85L234.38,191.62L234.68,187.91L234.83,183.95L234.98,187.75L235.28,178.33L235.43,178.61L235.73,251.19L236.03,172.89L236.18,156.81L237.23,92.28L237.38,92.81L237.53,61.11L237.68,62.9L237.83,58.85L237.98,56.36L238.13,53.25L238.28,122.35L238.73,143.99L239.03,139.46L239.18,76.83L239.33,67.22L239.48,124.01L239.93,171.49L240.08,115.3L240.23,109.04L240.38,109.7L240.53,130.05L240.83,150.1L240.98,169.53L241.88,212.63L242.33,212.24L242.48,205.4L242.78,207.49L243.08,205L243.23,200.48L243.38,205.35L243.83,200.58L243.98,200.4L244.13,201.11L244.28,199.34L244.58,200.47L244.73,200.16L245.04,195.72L245.19,187.27L245.79,192.19L245.94,186.44L246.39,189.97L246.69,187.82L246.84,187.45L246.99,189.79L247.14,186.98L247.44,188.37L247.59,187.04L248.34,192.68L248.49,187.96L248.79,188.5L249.54,177.02L249.69,170.22L250.44,87.73L250.59,88.56L250.74,144.54L251.64,54.34L251.79,56L252.39,62.79L252.54,54.56L253.29,64.45L253.44,61.23L254.34,80.63L254.49,148.05L254.94,192.88L255.09,150L255.24,143.08L256.44,203.04L256.59,197.3L256.74,202.29L257.79,192.58L257.94,195.49L258.39,196.84L258.69,189.08L258.84,190.43L258.99,191.54L259.29,189.28L259.44,190.68L259.59,188.78L260.04,187.73L260.19,190.55L260.34,186.83L260.49,191.9L260.94,190.86L261.09,186.3L261.24,189L261.54,186.38L261.69,251.43L262.29,186.22L262.59,189.73L262.74,185.88L263.04,186.16L263.19,188.93L263.34,189.04L263.49,183.18L263.64,186.21L263.79,247.64L263.94,264.6L264.09,204.23L264.24,179.41L264.39,181.05L264.54,164.51L265.14,92.16L265.29,149.25L265.59,163.57L265.74,143.59L266.04,156.22L266.19,90.94L266.34,78.65L266.49,135.89L266.64,152.3L266.79,86.55L267.09,64.81L267.24,139.23L267.39,160.6L267.69,158.58L267.84,95.82L268.29,73.9L268.59,77.31L268.74,92.74L268.89,93.83L269.04,106.35L270.69,205.92L270.99,204.68L271.14,201.28L271.44,195.32L271.59,200.47L272.64,189.69L272.79,194.79L273.85,188.82L274,191.26L274.45,188.04L274.75,190.4L274.9,188.42L275.2,189.84L275.35,186.37L275.95,189.89L276.1,186.38L276.4,265.89L276.85,186.54L277,186.53L277.15,189.69L277.6,186.84L277.75,182.9L277.9,185.97L278.05,185.57L278.2,174.66L280,70.11L280.15,125.73L280.3,138.57L280.6,136.02L280.75,76.11L281.05,57.04L281.5,66.62L281.65,138.33L281.8,144.27L281.95,86.4L282.55,67.1L282.7,74.54L282.85,77.03L284.95,217.33L285.25,214.82L285.4,209.81L285.55,217.32L285.7,208.34L286.15,211.9L286.3,203.68L286.45,211.4L286.6,263.49L286.9,285.43L287.05,217.01L287.95,193.25L288.1,191.66L288.55,191.73L288.7,189.64L288.85,189.12L289,190.76L289.15,193.47L289.9,185.91L290.05,186.02L290.2,189.58L290.95,186.33L291.1,189.35L291.55,186.61L291.7,248.91L292.45,179.86L292.6,181.79L292.75,173.29L294.55,66.42L294.7,132.66L295.15,138.48L295.45,60.73L295.6,127.3L295.75,146.43L295.9,88.32L296.05,73.59L296.35,71.6L296.8,90.38L296.95,86.93L297.1,81.05L297.4,78.08L297.55,87L298,192.32L298.3,135.27L298.45,150.07L298.6,158.66L298.75,236.06L299.2,280.74L299.35,218.8L299.5,206.12L299.65,211.96L300.1,200.3L300.25,201.29L301.15,191.98L301.3,193.78L301.9,189.52L302.2,189.97L302.35,190.82L302.96,188.5L303.11,189.38L303.26,189.5L303.71,189.65L303.86,185.74L304.16,186.81L304.31,188.52L305.21,184.97L305.36,185.22L305.51,187.36L305.66,187.5L305.81,185.41L305.96,187.24L306.26,186.06L306.41,248L306.56,262L306.71,200.95L307.46,149.15L307.61,191.16L307.76,192.14L307.91,118.7L308.81,58.75L308.96,64.43L309.11,63.13L310.01,86.93L310.16,74.59L310.31,83.39L310.91,77.03L311.06,79.1L311.51,157.54L311.81,104.73L311.96,107.66L312.71,238.45L312.86,184.27L313.01,176L313.76,221.38L314.06,214.68L314.21,214.91L314.51,216.89L315.56,201.46L315.71,206.67L316.01,207.68L316.61,198.15L316.76,200.95L317.66,188.9L317.81,192.47L317.96,186.5L318.41,187.23L318.56,251.63L318.71,264.52L318.86,203.4L319.61,185.47L319.76,187.75L319.91,186.86L320.06,187.95L320.21,186.76L320.36,186.96L320.51,247.18L320.66,264.82L320.81,204.08L320.96,186.4L321.11,183.12L321.26,189.98L321.41,184.55L321.56,239.77L321.71,247.16L321.86,171.31L323.06,84.91L323.21,147.53L323.36,160.09L323.51,87.53L323.66,67.29L323.96,68.41L324.11,137.4L324.71,172.22L324.86,109.54L325.31,86.79L325.76,91.42L325.91,103.84L326.06,100.76L326.21,118.57L326.36,108.16L326.66,130.21L326.81,140.23L328.31,213.98L328.46,207.59L328.76,213.6L328.91,202.72L329.06,210.26L329.21,206L329.36,205.97L329.51,207.8L329.66,207.21L329.81,211.14L331.16,193.99L331.32,198.64L332.07,190.72L332.22,198.09L332.82,189.78L333.12,190.96L333.27,192.46L333.87,192.75L334.02,188.47L334.17,193.91L334.47,188.36L335.07,189.34L335.22,188.69L335.37,192.68L335.52,247.87L336.57,132.46L336.72,121.92L338.07,68.11L338.22,131.62L338.37,143.84L338.52,87.83L338.82,155.88L339.12,77.03L339.27,78.83L339.57,156.4L339.87,76.44L340.02,86.44L340.17,79.03L340.77,192.91L340.92,135.26L341.07,131.41L341.37,153.9L341.52,164.9L341.82,270.84L342.27,210.85L342.42,220.09L342.57,220.79L342.72,216.03L342.87,223.94L343.02,213.95L343.17,279.45L343.47,295.71L343.62,293.93L343.77,227.74L344.07,207.03L344.67,207.41L344.82,206.47L345.12,207.31L346.02,194.49L346.17,195.35L346.62,195.5L347.07,189.28L347.22,193.29L347.97,188.19L348.12,193.08L348.72,187.18L348.87,193.31L349.47,187.22L349.62,188.83L349.77,189.18L349.92,247.51L350.37,172.13L350.52,165.61L351.87,81.97L352.02,138.52L352.17,147.71L352.32,81.57L352.47,64.69L352.77,69.24L352.92,128.57L353.22,153.4L353.37,88.49L353.52,77.41L353.82,71.35L353.97,80.41L354.12,78.18L354.27,78.91L355.17,110.25L355.32,121.26L355.92,159.01L356.07,193.23L356.97,214.13L357.12,211.62L357.27,211.14L357.42,212.49L357.57,207.55L358.02,207.05L358.17,208.44L358.32,200.29L358.77,197.99L358.92,203.68L359.07,199.32L359.67,199.43L359.97,194.99L360.13,198.37L361.03,193.86L361.18,194.43L361.33,194.78L361.48,192.8L361.63,194.61L362.08,191.45L362.23,188.11L362.38,195.78L362.98,190.59L363.13,189.18L363.28,193.89L363.58,188.94L363.88,190.65L364.03,254.59L364.48,272.22L364.63,268.7L364.78,198.24L365.98,117.78L366.13,110.02L366.88,87.22L367.03,145.31L367.33,159.56L367.48,97.29L367.63,73.56L368.08,88.06L368.23,154.26L368.53,181.84L368.68,109.93L368.98,93.95L369.28,100.72L369.43,118.36L369.58,116.57L369.73,131.14L369.88,128.76L370.03,147.53L370.18,147.28L370.33,181.01L370.48,169.26L370.63,192.77L370.78,191.88L370.93,219.95L371.08,220.1L371.23,215.6L371.38,216.76L371.53,211.71L371.68,215.39L371.83,208.54L372.13,210.64L372.28,209.01L372.43,211.76L372.58,206.22L372.73,267.59L373.03,282L373.18,216.46L373.63,200.38L374.08,200.47L374.23,199.78L374.53,202.21L374.98,192.46L375.13,199.49L375.58,194.05L376.03,194.45L376.18,193.88L376.33,193.8L376.48,191.79L376.63,196L376.78,191.51L376.93,255.46L377.08,268.77L377.23,206.12L377.83,189.25L378.13,193.99L378.28,186.94L378.88,195.96L379.03,189.26L379.18,186.73L379.33,171.08L379.48,224.67L379.63,228.99L379.78,219.74L379.93,145.8L380.23,198.16L380.53,107.03L380.68,96.37L380.83,96.75L380.98,91.15L381.88,75.24L382.03,88.53L382.18,78.04L382.33,93.71L382.63,90.42L382.78,101.65L382.93,99.25L383.08,103.98L383.23,157.64L383.53,178.07L383.68,125.83L383.83,123.19L383.98,126.84L384.13,137.88L385.78,215.99L385.93,214.7L387.43,200.84L387.58,201.23L387.73,203.71L388.18,197.98L388.48,199.97L388.63,263.22L388.94,278.34L389.09,274.82L389.24,217.5L389.99,194.25L390.14,198.22L391.04,191.29L391.19,197.17L391.64,189.66L391.94,194.14L392.09,191.61L392.39,193.1L392.54,190.96L392.69,190.39L392.84,191.24L392.99,192.6L393.59,266.06L393.74,192.84L393.89,173.48L394.04,163.92L394.19,216.16L395.24,102.9L395.39,87.87L395.54,97.73L395.99,84.76L396.14,89.51L396.29,84.05L396.44,77.15L396.89,88.4L397.04,83.4L397.19,85.29L397.79,90.99L397.94,109.53L398.09,110.41L398.24,126.63L398.69,150.66L398.84,155.02L400.04,226.03L400.19,221.48L400.34,225.18L400.94,217.23L401.09,217.66L401.24,221.03L402.29,207.43L402.44,213.54L403.49,196.32L403.64,198.49L403.79,198.54L403.94,197.05L404.24,193.96L404.39,200.94L404.54,193L404.84,195.52L404.99,191.87L405.14,197.61L405.29,191.37L405.59,195.11L405.74,191.77L406.04,193.91L406.19,189.46L406.34,193.29L406.94,191.37L407.09,191.65L407.24,189.5L407.39,189.7L407.54,204.44L407.69,193.3L407.84,250.2L407.99,267.27L408.14,191.91L409.34,107.77L409.49,109.11L410.09,77.31L410.24,135.67L410.54,158.57L410.69,88.75L410.84,84.12L411.29,91.74L411.44,88.4L411.59,86.09L411.74,89.85L412.19,85.47L412.34,88.4L412.49,169.41L412.79,199.98L412.94,196.77L413.09,143.44L413.24,140.3L413.39,140.92L413.54,167.12L413.69,161.33L413.84,181.08L413.99,248.39L414.14,273.47L414.44,203.82L414.59,207.73L414.89,209.69L415.49,202.52L415.64,202.03L416.39,195.99L416.54,200.53L416.69,204.1L416.99,194.33L417.14,195.77L417.44,194L417.59,195.5L418.65,190.4L418.8,196.02L419.55,190.13L419.7,191.34L420.3,186.91L420.45,191.38L420.6,248.87L421.05,188.89L421.2,190.01L421.35,185.7L421.95,187.23L422.1,186.46L422.25,247.43L422.7,166.06L422.85,132.78L424.05,71.12L424.2,63.38L424.35,58.74L424.5,68.03L424.65,125.77L424.8,150.23L425.1,78.7L425.25,63.37L426.75,89.26L426.9,95.76L427.8,151.13L427.95,226.94L428.25,262.3L428.4,211.71L428.55,201.62L429,213.28L429.45,211.23L429.6,209.65L429.75,210.58L429.9,207.15L430.05,209.62L430.2,206.46L431.1,201.39L431.25,202.3L431.85,200.82L432,210.41" style="vector-effect: non-scaling-stroke; fill: none; stroke: rgb(0, 128, 0); stroke-opacity: 1; stroke-width: 2px; opacity: 1;"/></g><g class="points"/><g class="text"/></g></g></g><g class="overplot"/><path class="xlines-above crisp" d="M0,0" style="fill: none;"/><path class="ylines-above crisp" d="M0,0" style="fill: none;"/><g class="overlines-above"/><g class="xaxislayer-above"><g class="xtick"><text text-anchor="middle" x="0" y="433" transform="translate(123.22,0)" style="font-family: 'Open Sans', verdana, arial, sans-serif; font-size: 12px; fill: rgb(42, 63, 95); fill-opacity: 1; white-space: pre; opacity: 1;"><tspan class="line" dy="0em" x="0" y="433">Sep 4</tspan><tspan class="line" dy="1.3em" x="0" y="433">2022</tspan></text></g><g class="xtick"><text text-anchor="middle" x="0" y="433" style="font-family: 'Open Sans', verdana, arial, sans-serif; font-size: 12px; fill: rgb(42, 63, 95); fill-opacity: 1; white-space: pre; opacity: 1;" transform="translate(224.05,0)">Sep 11</text></g><g class="xtick"><text text-anchor="middle" x="0" y="433" style="font-family: 'Open Sans', verdana, arial, sans-serif; font-size: 12px; fill: rgb(42, 63, 95); fill-opacity: 1; white-space: pre; opacity: 1;" transform="translate(324.89,0)">Sep 18</text></g><g class="xtick"><text text-anchor="middle" x="0" y="433" style="font-family: 'Open Sans', verdana, arial, sans-serif; font-size: 12px; fill: rgb(42, 63, 95); fill-opacity: 1; white-space: pre; opacity: 1;" transform="translate(425.72,0)">Sep 25</text></g></g><g class="yaxislayer-above"><g class="ytick"><text text-anchor="end" x="79" y="4.199999999999999" transform="translate(0,419.78)" style="font-family: 'Open Sans', verdana, arial, sans-serif; font-size: 12px; fill: rgb(42, 63, 95); fill-opacity: 1; white-space: pre; opacity: 1;">−100</text></g><g class="ytick"><text text-anchor="end" x="79" y="4.199999999999999" style="font-family: 'Open Sans', verdana, arial, sans-serif; font-size: 12px; fill: rgb(42, 63, 95); fill-opacity: 1; white-space: pre; opacity: 1;" transform="translate(0,342.11)">−50</text></g><g class="ytick"><text text-anchor="end" x="79" y="4.199999999999999" style="font-family: 'Open Sans', verdana, arial, sans-serif; font-size: 12px; fill: rgb(42, 63, 95); fill-opacity: 1; white-space: pre; opacity: 1;" transform="translate(0,264.44)">0</text></g><g class="ytick"><text text-anchor="end" x="79" y="4.199999999999999" style="font-family: 'Open Sans', verdana, arial, sans-serif; font-size: 12px; fill: rgb(42, 63, 95); fill-opacity: 1; white-space: pre; opacity: 1;" transform="translate(0,186.78)">50</text></g><g class="ytick"><text text-anchor="end" x="79" y="4.199999999999999" style="font-family: 'Open Sans', verdana, arial, sans-serif; font-size: 12px; fill: rgb(42, 63, 95); fill-opacity: 1; white-space: pre; opacity: 1;" transform="translate(0,109.11)">100</text></g></g><g class="overaxes-above"/></g></g><g class="polarlayer"/><g class="smithlayer"/><g class="ternarylayer"/><g class="geolayer"/><g class="funnelarealayer"/><g class="pielayer"/><g class="iciclelayer"/><g class="treemaplayer"/><g class="sunburstlayer"/><g class="glimages"/><defs id="topdefs-ac6338"><g class="clips"/><clipPath id="legendac6338"><rect width="167" height="67" x="0" y="0"/></clipPath></defs><g class="layer-above"><g class="imagelayer"/><g class="shapelayer"/></g><g class="infolayer"><g class="legend" pointer-events="all" transform="translate(520.64,100)"><rect class="bg" shape-rendering="crispEdges" width="167" height="67" x="0" y="0" style="stroke: rgb(68, 68, 68); stroke-opacity: 1; fill: rgb(255, 255, 255); fill-opacity: 1; stroke-width: 0px;"/><g class="scrollbox" transform="" clip-path="url(#legendac6338)"><g class="groups"><g class="traces" transform="translate(0,14.5)" style="opacity: 1;"><text class="legendtext" text-anchor="start" x="40" y="4.680000000000001" style="font-family: 'Open Sans', verdana, arial, sans-serif; font-size: 12px; fill: rgb(42, 63, 95); fill-opacity: 1; white-space: pre;">BESS</text><g class="layers" style="opacity: 0.5;"><g class="legendfill"/><g class="legendlines"><path class="js-line" d="M5,0h30" style="fill: none; stroke: rgb(0, 191, 255); stroke-opacity: 1; stroke-width: 2px;"/></g><g class="legendsymbols"><g class="legendpoints"/></g></g><rect class="legendtoggle" x="0" y="-9.5" width="161.890625" height="19" style="fill: rgb(0, 0, 0); fill-opacity: 0;"/></g><g class="traces" transform="translate(0,33.5)" style="opacity: 1;"><text class="legendtext" text-anchor="start" x="40" y="4.680000000000001" style="font-family: 'Open Sans', verdana, arial, sans-serif; font-size: 12px; fill: rgb(42, 63, 95); fill-opacity: 1; white-space: pre;">Solar</text><g class="layers" style="opacity: 0.5;"><g class="legendfill"/><g class="legendlines"><path class="js-line" d="M5,0h30" style="fill: none; stroke: rgb(255, 0, 0); stroke-opacity: 1; stroke-width: 2px;"/></g><g class="legendsymbols"><g class="legendpoints"/></g></g><rect class="legendtoggle" x="0" y="-9.5" width="161.890625" height="19" style="fill: rgb(0, 0, 0); fill-opacity: 0;"/></g><g class="traces" transform="translate(0,52.5)" style="opacity: 1;"><text class="legendtext" text-anchor="start" x="40" y="4.680000000000001" style="font-family: 'Open Sans', verdana, arial, sans-serif; font-size: 12px; fill: rgb(42, 63, 95); fill-opacity: 1; white-space: pre;">Grid Meter (Net Load)</text><g class="layers" style="opacity: 0.5;"><g class="legendfill"/><g class="legendlines"><path class="js-line" d="M5,0h30" style="fill: none; stroke: rgb(0, 128, 0); stroke-opacity: 1; stroke-width: 2px;"/></g><g class="legendsymbols"><g class="legendpoints"/></g></g><rect class="legendtoggle" x="0" y="-9.5" width="161.890625" height="19" style="fill: rgb(0, 0, 0); fill-opacity: 0;"/></g></g></g><rect class="scrollbar" rx="20" ry="3" width="0" height="0" x="0" y="0" style="fill: rgb(128, 139, 164); fill-opacity: 1;"/></g><g class="g-gtitle"><text class="gtitle" x="296" y="50" text-anchor="middle" dy="0em" style="font-family: 'Open Sans', verdana, arial, sans-serif; font-size: 17px; fill: rgb(42, 63, 95); opacity: 1; font-weight: normal; white-space: pre;"><tspan class="line" dy="0em" x="296" y="50">Scenario 3</tspan><tspan class="line" dy="1.3em" x="296" y="50">Microgrid Output</tspan><tspan class="line" dy="2.6em" x="296" y="50">From: September 01, 2022 to September 30, 2022</tspan></text></g><g class="g-xtitle"><text class="xtitle" x="296" y="477.409375" text-anchor="middle" style="font-family: 'Open Sans', verdana, arial, sans-serif; font-size: 14px; fill: rgb(42, 63, 95); opacity: 1; font-weight: normal; white-space: pre;">Time</text></g><g class="g-ytitle"><text class="ytitle" transform="rotate(-90,26.746875000000003,260)" x="26.746875000000003" y="260" text-anchor="middle" style="font-family: 'Open Sans', verdana, arial, sans-serif; font-size: 14px; fill: rgb(42, 63, 95); opacity: 1; font-weight: normal; white-space: pre;">Demand (kW)</text></g></g></svg>