<svg class="main-svg" xmlns="http://www.w3.org/2000/svg" xmlns:xlink="http://www.w3.org/1999/xlink" width="700" height="500" style="" viewBox="0 0 700 500"><rect x="0" y="0" width="700" height="500" style="fill: rgb(255, 255, 255); fill-opacity: 1;"/><defs id="defs-eeea5e"><g class="clips"><clipPath id="clipeeea5exyplot" class="plotclip"><rect width="540" height="320"/></clipPath><clipPath class="axesclip" id="clipeeea5ex"><rect x="80" y="0" width="540" height="500"/></clipPath><clipPath class="axesclip" id="clipeeea5ey"><rect x="0" y="100" width="700" height="320"/></clipPath><clipPath class="axesclip" id="clipeeea5exy"><rect x="80" y="100" width="540" height="320"/></clipPath></g><g class="gradients"/><g class="patterns"/></defs><g class="bglayer"/><g class="layer-below"><g class="imagelayer"/><g class="shapelayer"/></g><g class="cartesianlayer"><g class="subplot xy"><g class="layer-subplot"><g class="shapelayer"/><g class="imagelayer"/></g><g class="minor-gridlayer"><g class="x"/><g class="y"/></g><g class="gridlayer"><g class="x"><path class="xgrid crisp" transform="translate(134.02,0)" d="M0,100v320" style="stroke: rgb(255, 255, 255); stroke-opacity: 1; stroke-width: 1px;"/><path class="xgrid crisp" transform="translate(260.06,0)" d="M0,100v320" style="stroke: rgb(255, 255, 255); stroke-opacity: 1; stroke-width: 1px;"/><path class="xgrid crisp" transform="translate(386.11,0)" d="M0,100v320" style="stroke: rgb(255, 255, 255); stroke-opacity: 1; stroke-width: 1px;"/><path class="xgrid crisp" transform="translate(512.15,0)" d="M0,100v320" style="stroke: rgb(255, 255, 255); stroke-opacity: 1; stroke-width: 1px;"/></g><g class="y"><path class="ygrid crisp" transform="translate(0,386.53)" d="M80,0h540" style="stroke: rgb(255, 255, 255); stroke-opacity: 1; stroke-width: 1px;"/><path class="ygrid crisp" transform="translate(0,346.61)" d="M80,0h540" style="stroke: rgb(255, 255, 255); stroke-opacity: 1; stroke-width: 1px;"/><path class="ygrid crisp" transform="translate(0,306.69)" d="M80,0h540" style="stroke: rgb(255, 255, 255); stroke-opacity: 1; stroke-width: 1px;"/><path class="ygrid crisp" transform="translate(0,266.76)" d="M80,0h540" style="stroke: rgb(255, 255, 255); stroke-opacity: 1; stroke-width: 1px;"/><path class="ygrid crisp" transform="translate(0,186.92000000000002)" d="M80,0h540" style="stroke: rgb(255, 255, 255); stroke-opacity: 1; stroke-width: 1px;"/><path class="ygrid crisp" transform="translate(0,146.99)" d="M80,0h540" style="stroke: rgb(255, 255, 255); stroke-opacity: 1; stroke-width: 1px;"/><path class="ygrid crisp" transform="translate(0,107.07)" d="M80,0h540" style="stroke: rgb(255, 255, 255); stroke-opacity: 1; stroke-width: 1px;"/></g></g><g class="zerolinelayer"><path class="yzl zl crisp" transform="translate(0,226.84)" d="M80,0h540" style="stroke: rgb(255, 255, 255); stroke-opacity: 1; stroke-width: 2px;"/></g><path class="xlines-below"/><path class="ylines-below"/><g class="overlines-below"/><g class="xaxislayer-below"/><g class="yaxislayer-below"/><g class="overaxes-below"/><g class="plot" transform="translate(80,100)" clip-path="url(#clipeeea5exyplot)"><g class="scatterlayer mlayer"><g class="trace scatter trace7e34bb" style="stroke-miterlimit: 2; opacity: 0.5;"><g class="fills"/><g class="errorbars"/><g class="lines"><path class="js-line" d="M0,177.14L0.19,176.65L0.38,179.1L0.56,172.34L1.13,175.26L1.31,176.63L2.06,171.56L2.25,173.31L2.44,172.81L2.63,167.85L3,173.5L3.19,168.78L3.38,170.17L3.56,170.38L3.75,167.88L3.94,168.34L4.13,269.11L4.31,265.73L4.5,182.77L4.69,182.79L4.88,178.65L5.25,183.07L5.44,167.47L5.63,179.33L5.81,174.62L6,263.71L6.19,262.19L6.38,167.68L6.94,126.6L7.32,128.62L7.5,126.78L8.25,127.17L8.44,126.84L8.63,126.78L9.57,126.83L9.75,126.42L9.94,126.97L10.13,158.18L10.5,153.41L10.69,125.35L11.07,127.02L11.25,142.55L12,156.76L12.19,156.17L12.38,142.26L12.57,136.77L12.75,138.81L12.94,156.19L13.88,156.81L14.07,156.8L15.38,157.16L15.57,202.28L16.51,191.51L16.69,192.61L17.63,187.56L17.82,189.79L18.57,182.09L18.76,175.62L18.94,176.15L19.13,173.81L19.51,174.68L19.69,172.27L19.88,175.17L20.26,171.71L20.44,172.21L20.63,173.43L20.82,171.52L21.01,172.61L21.19,185.9L21.38,183.86L21.57,186.15L21.76,186.16L21.95,170.3L22.88,165.36L23.07,173.67L23.26,182.86L23.63,166.29L23.82,260.41L24.76,126.83L24.95,192.18L25.13,190.84L25.32,126.3L25.51,127.36L26.07,126.78L26.26,127.21L26.45,126.39L27.01,126.8L27.2,126.53L28.13,127.31L28.32,130.58L28.51,133.66L28.7,155.75L29.07,158.82L29.26,156.35L29.45,156.76L29.64,141.17L29.82,157.1L30.01,156.84L30.2,156.77L30.39,156.8L30.57,155.68L30.76,145.44L31.14,151.03L31.32,156.53L31.51,157.2L31.7,156.8L31.89,170.63L32.07,219.76L32.64,217.05L32.82,215.97L33.95,188.49L34.14,188.45L34.51,183.62L35.07,184.13L35.26,183.9L35.64,183.72L35.82,181.77L36.01,183.53L36.2,180.59L36.39,174.31L36.58,177.42L36.95,172.57L37.14,176.63L37.33,174.31L37.7,175.33L37.89,173.36L38.08,171.81L38.45,174.91L38.64,172.65L38.83,172.34L39.01,285.02L39.58,174.05L39.76,170.1L40.14,185.99L40.33,282.39L40.51,285.93L40.7,187.75L40.89,183.99L41.08,186.02L41.26,304L42.2,146.13L42.39,153.83L43.52,126.47L43.7,126.81L43.89,126.83L44.08,158.44L44.27,157.04L44.45,125.48L44.64,126.83L44.83,157.71L45.02,156.42L45.2,125.44L45.77,126.97L46.14,126.89L46.33,126.86L48.2,126.87L48.39,135.09L48.77,156.99L49.33,156.86L49.52,157.15L49.89,132.33L50.08,153.69L50.27,156.79L50.46,157.06L50.83,156.75L51.02,196.71L51.39,219.03L51.77,204.39L51.96,190.02L53.64,176.66L53.83,176.55L54.02,177.93L54.21,175.77L54.39,174.07L54.77,177.8L55.14,176.84L55.33,174.9L55.52,175.86L55.71,175.25L55.89,172.52L56.64,174.47L56.83,174.33L57.02,174.36L57.39,170.3L57.58,273.34L57.77,273.51L57.96,171.29L58.33,273.67L58.71,185.1L58.9,184.28L59.46,198.8L59.65,189.48L60.21,156.42L60.4,129.42L60.58,130.65L60.77,236.61L61.15,125.97L61.52,158.46L61.71,156.79L61.9,125.71L62.27,127.06L62.46,157.72L62.83,156.72L63.02,125.31L63.21,127.24L63.77,126.89L63.96,126.91L64.52,126.53L64.71,131.77L64.9,135.42L65.09,158.47L65.27,156.42L65.65,156.69L65.84,125.62L66.59,130.85L66.77,154L67.52,156.83L67.71,156.79L67.9,156.78L68.27,156.79L68.46,167.26L69.02,197.02L69.21,193.54L69.4,193.69L70.15,178.47L70.34,178.8L70.52,178.93L70.71,180.12L70.9,177.6L71.09,174.82L71.27,179.12L71.84,177.6L72.03,174.76L72.21,177.25L72.59,172.9L72.78,174.6L72.96,175.95L73.34,174.82L73.53,173.95L74.28,170.76L74.46,172.6L74.65,172.33L74.84,172.6L75.03,173.43L75.21,171.74L75.4,182.31L75.59,187.33L75.78,172.99L75.96,168.93L76.15,168.76L76.34,171.18L76.53,172.96L76.71,266.06L76.9,269.57L77.09,174.19L77.65,161.13L77.84,153.19L78.03,159.86L78.21,154.6L78.4,144.92L78.78,126.52L79.34,126.83L79.53,126.78L79.72,158.15L80.09,125.43L80.28,126.81L80.47,150.6L80.65,148.62L80.84,125.24L81.78,127.26L81.97,126.46L82.53,126.89L82.72,126.45L82.9,126.62L84.03,126.86L84.22,126.89L84.4,130.55L84.59,155.81L85.34,157.09L85.53,156.87L85.72,156.52L87.78,156.72L87.97,156.82L88.34,156.77L88.53,175.99L88.91,181.69L89.47,181.3L89.66,179.54L89.84,180.21L90.03,192.34L90.22,193.82L90.41,207.22L90.59,207.03L90.78,205.7L90.97,206.52L91.16,205.98L91.34,204.67L92.47,172.02L92.66,174.12L93.22,171.24L93.41,186.82L93.59,183.82L93.78,187.48L94.16,186.24L94.35,170.49L94.53,169.79L94.72,271.18L94.91,180.49L95.47,199.06L95.66,189.54L96.97,126.77L97.16,126.86L97.35,126.71L98.28,126.81L98.47,158.11L98.85,152.03L99.03,125.12L99.22,127.15L99.6,126.91L99.78,158.19L99.97,156.82L100.16,125.11L100.91,129.73L101.1,142.02L101.66,156.75L102.22,153.33L102.41,149.79L103.16,156.88L103.35,156.5L103.54,156.8L104.1,157.13L104.29,170.08L104.47,220.6L105.04,217.49L105.22,216.88L105.41,217.36L105.6,210.14L106.35,188.35L106.54,190.05L106.72,189.36L107.1,187.99L107.29,187.37L107.85,186.44L108.04,180.25L109.16,172.61L109.35,175.1L109.73,175.41L109.91,174.12L110.1,174.02L110.29,175.21L110.48,170.48L111.04,173.06L111.23,173.39L111.79,168.37L111.98,171.77L112.16,170.81L112.35,169.88L112.73,170.14L112.91,171.88L113.1,172.91L113.29,180.72L113.48,196.85L113.85,192.01L114.04,282.73L114.79,135.19L114.98,137.84L115.16,147.93L116.29,126.39L116.48,126.84L116.67,127.17L116.85,158.05L117.04,156.87L117.23,125.42L117.6,126.96L117.79,126.89L117.98,157.83L118.35,156.75L118.54,125.56L119.85,134.41L120.04,127.76L120.23,127.95L120.42,141.86L121.35,156.91L121.54,157.06L122.1,156.8L122.29,157.16L122.48,218.82L122.67,217.18L122.86,201.22L123.04,200.1L123.23,298.3L123.42,297.82L123.61,294.29L124.54,186.31L124.73,184.34L124.92,183.95L125.11,185.89L125.29,185.78L125.48,184.48L126.23,176.32L126.61,177.66L126.79,177.81L127.73,173.33L127.92,174.33L128.11,174.61L128.29,173.58L128.48,173.32L129.04,170.32L129.23,171.97L129.42,172.24L129.8,172.38L129.98,171.14L130.17,171.65L130.36,170.95L130.55,186.81L131.11,177.48L131.3,186.01L131.48,191.36L131.86,185.48L132.05,181.07L132.23,203.74L132.61,169.44L132.8,155.15L132.98,126.59L133.36,126.77L133.55,158.19L133.73,161.61L133.92,130.51L134.67,126.48L134.86,128.98L135.23,136.21L135.42,124.86L135.61,126.78L136.36,126.87L136.55,126.78L137.86,126.93L138.05,128.91L138.61,159.01L138.99,156.92L139.17,154.56L139.92,156.86L140.11,156.7L141.05,223.82L141.24,219.25L141.42,210.36L142.92,185.27L143.11,186.85L144.05,181.52L144.24,179.22L144.8,175.47L145.18,176.09L145.36,177.21L145.55,177.67L145.74,176.52L145.93,176.27L146.3,173.9L146.49,172.76L146.68,190.67L147.05,189.49L147.24,171.35L147.61,175.48L147.99,173.23L148.18,172.5L148.36,174.94L148.55,172.37L148.74,272.32L148.93,271.3L149.11,179.97L149.3,185.46L149.49,176.72L149.68,205.13L149.86,217.76L150.05,204.14L150.24,190.12L150.43,162.14L150.61,272.71L150.99,275.49L151.18,264.99L151.93,128.9L152.12,146.2L152.3,159.42L153.05,126.86L153.24,128.61L153.43,141.4L153.99,156.77L154.18,176.75L154.93,228.8L155.12,224.91L155.3,222.82L155.49,230.38L155.68,199.63L156.62,221.89L156.8,210.03L156.99,209.11L157.18,197.79L157.37,196.44L157.55,200.82L157.74,205.35L157.93,201.3L158.12,187.07L158.49,189.94L158.68,186.57L159.43,202.18L159.62,196.09L159.99,192L160.37,193.4L160.56,193.27L161.31,170.12L161.49,172.13L161.68,171.58L162.43,171.75L162.62,168.19L163.18,171.53L163.37,169.5L163.56,167.47L164.31,173.52L164.49,170.22L164.68,172.06L164.87,171.7L165.06,169.32L165.24,173.59L165.81,172.38L166,167.52L166.75,186.65L167.12,181.91L167.31,181.89L167.68,261.62L167.87,149.11L168.06,143.95L168.25,145.77L168.43,142.34L168.62,141.14L168.81,132.95L169,138.86L169.18,153.14L169.56,127.48L169.75,140.77L169.93,247.09L170.12,266.67L170.5,257.02L170.68,144.06L171.25,126.61L171.62,126.85L171.81,126.7L172.56,126.8L172.75,134.31L173.87,195.44L174.06,166.58L174.25,157.83L174.62,170.43L174.81,169.05L175.19,187.56L175.75,186.82L175.94,186.64L176.31,198.49L176.69,196.1L176.87,193.35L177.25,186.8L177.44,192.91L177.62,193.86L177.81,189.84L178,189.75L178.19,180.19L179.12,172L179.31,175.16L179.5,175.14L179.69,173.05L179.87,176.23L180.25,172.12L180.44,173.74L180.63,171.33L180.81,173.75L181,173.18L181.19,168.6L181.38,173.75L181.94,173.23L182.13,170.61L182.5,173.71L182.69,166.53L183.06,173.18L183.25,168.42L183.44,272.34L183.63,270.02L183.81,168.41L184.56,200.31L184.94,197.13L185.13,186.06L186.63,126.77L186.81,127.16L187.19,191.1L187.38,125.98L187.57,126.58L187.94,127.05L188.32,126.8L188.5,126.54L189.25,127.44L189.44,126.88L189.63,158.44L189.82,157.12L190,125.48L190.94,127.22L191.13,141.77L191.5,156.81L191.88,156.7L192.07,135.99L192.25,126.61L192.63,128.43L192.82,144.4L193.75,156.83L193.94,156.78L196.76,156.81L196.94,156.78L200.32,156.77L200.51,158.97L200.69,154.59L200.88,161.49L201.07,169.74L201.44,170.53L201.82,167.47L202.01,167.84L202.2,172.1L202.76,185.38L202.95,181.48L203.13,168.28L203.88,210.03L204.07,204.03L204.26,200.58L204.45,195.11L204.63,265.03L204.82,260.04L205.01,135.84L205.2,223.68L205.38,126.96L205.76,185.58L205.95,126.35L206.7,127.14L206.88,126.68L207.26,127.18L207.45,126.42L207.63,157.5L207.82,155.14L208.01,125.35L208.38,128.01L208.95,126.88L209.14,127.15L209.32,127.26L209.51,126.72L209.7,131.76L210.26,157.01L210.64,155.96L210.82,143.21L211.01,126.82L211.57,141.43L211.76,156.86L211.95,159.03L212.14,156.81L212.32,154.59L213.07,156.79L213.26,156.74L213.45,156.81L214.2,156.77L214.39,167.09L214.95,190.21L215.14,187.01L215.32,187.38L215.51,190.04L215.7,185.3L215.89,172.85L216.08,174.53L216.26,171.29L216.45,172.3L216.64,170.34L217.01,174.27L217.2,169.81L217.58,171.57L217.76,167.31L217.95,171.67L218.33,164.4L218.51,169.65L218.7,169.49L219.08,171.03L219.45,165.36L219.64,168L219.83,170.53L220.01,166.26L220.2,280.36L220.39,282.78L220.58,181.6L220.76,182.2L220.95,195.24L221.14,184.61L221.51,190.9L221.7,291.87L222.26,258.12L222.45,138.74L222.64,145.62L223.01,136.14L223.2,126.58L224.33,126.81L224.52,131.28L224.7,136.75L224.89,124.96L225.08,126.76L225.27,127.47L225.45,127.18L225.64,129.41L225.83,130.02L226.02,126.85L226.39,126.6L226.58,131.08L226.77,138.82L227.14,126.79L227.33,127.17L227.52,126.68L227.7,127.07L227.89,128.38L228.45,126.67L228.83,126.9L229.02,152.76L229.58,156.9L229.95,156.87L230.14,156.73L232.21,156.82L232.39,156.75L233.14,184.32L233.33,183.04L233.52,184.01L233.71,183.59L233.89,177.52L234.83,166.53L235.02,168.9L235.77,165.21L235.96,166.52L236.71,163.73L236.89,164.06L237.08,164.33L237.46,161.24L237.65,163.49L237.83,263.22L238.77,175.89L238.96,176.49L239.33,179.51L239.9,149.24L240.08,138.89L240.27,126.35L240.65,126.8L240.83,157.2L241.77,124.64L242.15,129.02L242.33,127.96L242.52,124.58L243.08,126.82L243.27,126.81L243.46,130.04L243.83,124.92L244.02,126.91L244.21,126.8L246.09,126.87L246.27,149.6L246.65,156.82L246.84,125.59L247.21,133.99L247.4,152.59L247.96,157.17L248.15,156.76L248.34,156.46L248.52,159.02L248.9,154.26L249.09,156.83L249.27,156.42L250.21,156.82L250.4,156.78L253.03,156.8L253.21,158.97L253.59,154.59L254.15,156.73L254.34,156.79L257.15,156.69L257.34,155.86L257.53,154.84L257.71,157.03L257.9,156.32L258.09,149.02L258.28,146.77L258.46,128.66L258.65,126.52L258.84,127.08L259.03,158.02L259.22,125.17L259.78,126.8L259.97,127.12L260.15,129.07L260.34,126.83L260.53,126.85L260.72,126.8L260.9,124.35L261.28,126.92L261.47,126.8L261.65,126.81L264.28,127L264.47,126.89L264.65,126.96L264.84,158.2L265.03,156.92L265.22,135.28L266.34,159L266.53,156.79L266.72,156.76L266.91,154.58L267.28,156.84L267.66,156.77L267.84,156.72L269.34,156.81L269.53,156.47L270.47,156.8L270.66,156.77L272.53,156.74L272.72,156.23L273.47,156.57L273.66,155.14L274.6,158.94L274.78,153.26L274.97,153.69L275.16,158.8L276.28,126.76L276.47,126.45L276.66,157.07L277.03,124.99L277.22,126.81L277.41,128.96L277.6,124.62L277.78,129.24L278.16,124.65L278.35,127.13L278.91,126.77L279.1,126.59L280.03,127.09L280.22,126.85L280.41,126.82L282.47,126.88L282.66,158.55L283.04,156.86L283.22,136.71L283.79,156.87L284.16,156.5L284.35,156.76L287.91,156.8L288.1,156.74L289.98,156.75L290.16,156.73L290.35,156.64L290.54,158.98L290.91,154.59L291.48,156.18L291.66,156.39L292.04,156.78L292.23,156.44L292.41,155.2L293.16,156.78L293.35,154.45L293.54,154.4L293.73,152.49L294.29,144.03L294.48,158.57L294.85,156.73L295.04,125.47L295.42,127.11L295.98,126.76L296.17,126.8L296.35,126.41L296.92,126.85L297.1,126.81L297.67,126.89L297.85,129.03L298.42,126.78L298.79,126.83L298.98,125.01L299.54,137.55L299.73,148.72L299.92,125.51L300.48,126.68L300.67,126.87L300.85,126.94L301.04,134.36L301.98,156.82L302.17,156.81L304.61,156.77L304.79,156.78L310.42,156.75L310.61,155.79L310.8,155.86L310.98,156.78L311.17,156.78L311.36,155L312.48,126.46L313.05,127.16L313.23,126.81L313.42,131.05L313.61,124.63L313.98,128.72L314.17,127.18L314.36,124.63L314.92,126.84L315.11,126.52L316.05,127.47L316.23,126.85L317.36,126.81L317.55,61.29L317.74,26.18L317.92,36.06L318.11,143.89L318.3,143.27L318.49,155.12L318.67,156.93L318.86,119.16L319.05,103.57L319.24,123.41L319.42,138.24L319.99,156.83L320.36,156.82L320.55,156.74L320.74,157.14L321.3,156.77L321.49,156.81L323.36,156.79L323.55,156.79L325.61,156.72L325.8,155.7L326.55,156.75L326.74,155.55L327.3,157.09L327.49,156.79L327.68,155.14L328.05,156.79L328.24,156.25L328.43,154.5L328.61,154.53L328.8,156.02L328.99,157.11L329.18,156.74L329.36,152.52L329.74,158.9L329.93,154.37L330.11,152.32L331.43,126.49L331.62,155.7L331.8,154.22L331.99,142.29L332.18,137.82L332.37,147.45L332.55,124.81L333.12,129.04L333.3,126.81L333.49,124.69L333.87,127.24L334.05,148.86L334.43,145.45L334.62,125.23L334.8,114.34L334.99,46.96L335.18,16.33L335.74,23.57L335.93,34.67L336.68,93.92L336.87,106.37L337.62,157.16L337.99,156.77L338.18,156.84L339.49,156.75L339.68,156.77L343.81,156.79L343.99,156.45L344.18,155.22L344.56,156.23L344.74,156.59L345.12,155.99L345.31,158.98L345.49,154.6L346.06,155.06L346.25,156.34L346.62,156.74L346.81,156.24L347,153.23L347.18,152.26L347.37,154.83L347.56,148.36L347.93,126.77L348.5,126.78L348.68,126.8L348.87,126.33L349.43,126.7L349.62,127.18L350,126.79L350.18,155.08L351.31,22.96L351.68,26.37L351.87,35.83L352.06,135.79L352.25,32.8L352.43,35.37L352.62,34.31L353,23.03L353.19,34.54L353.37,40.82L355.44,156.87L355.81,156.77L356,156.84L357.69,156.72L357.87,156.85L358.06,156.71L358.25,158.98L358.81,154.58L359.19,156.76L359.37,156.78L362,156.77L362.19,156L362.38,154.29L362.75,156.78L362.94,156.78L363.31,156.79L363.5,155.96L363.88,156.74L364.06,156.41L364.25,155.92L364.44,155.3L364.63,158.95L364.81,154.57L365.38,156.76L365.56,156.8L365.75,156.46L365.94,131.36L367.06,126.44L367.25,126.85L368.19,126.88L368.38,128.96L369.13,124.62L369.32,127.19L369.69,148.98L369.88,125.02L370.44,126.94L370.82,126.88L371,90.53L371.57,16L371.75,20.53L371.94,59.75L372.32,156.88L372.69,125.59L372.88,129.03L373.44,158.61L374,154.59L374.19,156.8L378.88,156.79L379.07,156.56L379.44,156.77L379.82,155.31L380.01,156.05L380.38,157.09L380.76,156.79L380.94,156.46L381.51,153.25L381.7,154.73L381.88,157.09L382.82,156.78L383.01,156.77L383.38,156.82L383.57,154.73L384.32,126.69L384.51,158.05L384.7,154.69L384.88,125.19L385.82,126.81L386.01,126.88L386.76,126.92L386.95,84.59L387.7,16.39L387.88,22.25L388.07,20.73L388.82,44.77L389.01,143.79L389.39,152.24L389.57,69.68L389.95,62.94L390.32,79.69L390.51,156.92L391.07,156.83L391.26,154.55L391.45,156.89L392.01,156.82L392.2,156.72L394.07,156.83L394.26,156.73L395.76,156.81L395.95,156.71L397.45,156.83L397.64,156.45L398.01,156.65L398.2,158.96L398.58,154.6L399.14,156.76L399.33,156.24L399.51,155.2L400.08,156.29L400.26,155.74L400.45,154.59L400.64,158.89L401.2,152.81L401.58,155.97L401.76,156.96L401.95,158.92L402.14,156.68L402.33,126.18L403.08,127.03L403.27,126.86L403.45,127.13L403.64,126.73L403.83,126.84L404.02,154.11L404.2,125.24L404.77,126.79L404.95,126.89L405.33,126.57L405.89,136.61L406.08,124.89L406.83,127.18L407.02,126.82L407.2,126.94L408.14,126.52L408.33,126.91L408.52,126.92L408.7,128.39L408.89,145.11L409.83,157.11L410.02,156.8L415.27,156.75L415.46,156.45L416.39,156.8L416.58,156.78L419.21,156.45L419.4,159.22L419.77,156.73L419.96,157.03L420.15,133.83L420.33,134.86L420.52,126.48L421.65,126.83L421.83,126.74L422.58,126.85L422.77,129.32L423.15,124.63L423.33,141.55L423.9,125.02L424.08,127.43L424.27,156.89L424.46,156.81L424.65,125.42L425.21,126.98L425.4,126.53L425.59,126.57L425.96,156.81L426.15,125.56L426.34,126.86L426.52,126.98L426.71,126.92L426.9,130.98L427.09,158.55L427.65,154.57L427.84,156.85L428.77,156.81L428.96,158.94L429.52,154.24L429.9,156.75L430.09,156.8L434.4,156.77L434.59,157.1L435.53,156.8L435.71,156.75L437.03,156.79L437.21,155.67L437.4,158.92L437.59,150.42L437.78,141.34L438.53,126.72L438.71,126.81L438.9,126.78L439.84,126.8L440.03,128.99L440.4,124.63L440.78,126.86L440.97,126.82L441.15,129.07L441.53,127.16L441.72,124.68L442.28,127.23L442.65,126.84L442.84,126.87L444.72,126.86L444.9,139.67L445.09,156.92L445.65,156.78L445.84,156.79L450.53,156.78L450.72,156.78L454.85,156.8L455.03,158.95L455.6,156.45L455.78,157.04L455.97,156.73L457.28,126.78L457.47,126.78L457.66,127.11L457.85,126.84L458.03,126.1L458.78,128.7L458.97,134.33L459.16,135.37L459.35,124.82L459.91,127.17L460.1,126.56L460.28,158.45L460.66,156.7L460.85,125.86L461.22,127.27L461.6,126.98L461.79,126.5L462.35,127.61L462.54,126.7L462.72,140.24L462.91,140.09L463.1,145.93L463.47,157L464.04,156.8L464.22,156.74L465.72,156.78L465.91,158.94L466.66,154.59L466.85,156.78L467.04,156.8L470.98,156.48L471.16,158.96L471.35,154.58L471.91,156.81L472.1,156.76L473.98,156.67L474.16,145.29L474.35,158.44L474.73,156.69L474.91,125.48L475.1,158.08L475.48,125.43L475.67,126.76L477.35,126.95L477.54,126.75L478.48,126.82L478.67,126.88L478.85,126.78L479.04,153.83L479.6,125.53L480.17,126.93L480.35,126.84L480.73,127L480.92,148.11L481.29,156.86L481.85,156.79L482.04,156.8L485.61,156.79L485.79,158.97L486.36,154.63L486.54,156.73L486.73,156.84L488.42,156.79L488.61,156.75L490.48,156.77L490.67,156.78L491.23,156.68L491.42,159.01L491.98,156.7L492.17,180.06L492.55,126.79L492.73,204.03L492.92,200.14L493.11,192.56L493.3,126.5L493.86,127.48L494.23,126.92L494.42,126.43L495.36,126.78L495.55,126.6L496.86,127.17L497.05,126.84L497.24,127.3L497.61,126.96L497.8,126.54L498.55,128.09L498.74,147.51L499.3,156.93L499.67,156.86L499.86,156.82L500.05,156.43L500.42,156.74L500.61,157.1L501.55,156.74L501.74,156.79L503.42,156.72L503.61,174L503.8,182.49L504.18,172.04L504.36,169.03L504.55,170.71L504.93,170.24L505.11,168.09L505.49,169.21L505.68,163.8L506.43,165.9L506.61,161.65L506.99,178.68L507.36,164.12L507.55,161.97L507.93,163.15L508.3,160.45L508.49,161.74L508.68,161.71L508.86,160.65L509.05,158.34L509.24,168.23L509.61,175.1L509.8,272.34L510.74,126.52L510.93,126.74L511.11,127.11L511.49,126.75L511.68,126.55L512.62,126.81L512.8,129.01L513.18,124.58L513.55,126.88L513.74,127.13L515.05,127.14L515.24,126.85L515.43,127.3L515.62,157.87L515.8,156.55L516.18,156.84L516.37,125.57L516.55,126.83L516.74,140.93L516.93,140.35L517.12,147.76L517.49,159.04L517.87,156.74L518.05,154.62L518.81,156.81L518.99,156.77L519.18,156.77L525.56,156.6L525.75,158.95L526.12,172.63L526.31,159.21L526.5,157.08L526.87,171.92L527.06,170.3L527.25,155.62L527.43,155.73L527.62,154.55L527.81,266.31L528.37,213.97L528.56,126.58L529.5,126.79L529.68,126.75L530.62,126.8L530.81,148.18L531.37,124.65L531.75,126.54L531.93,127.12L532.68,126.56L532.87,127.15L533.81,126.92L534,126.87L534.19,126.59L534.37,126.93L534.56,130.29L534.75,132.27L534.94,158.58L535.5,154.94L535.69,156.85L535.87,156.8L540,156.77" style="vector-effect: non-scaling-stroke; fill: none; stroke: rgb(0, 191, 255); stroke-opacity: 1; stroke-width: 2px; opacity: 1;"/></g><g class="points"/><g class="text"/></g></g></g><g class="overplot"/><path class="xlines-above crisp" d="M0,0" style="fill: none;"/><path class="ylines-above crisp" d="M0,0" style="fill: none;"/><g class="overlines-above"/><g class="xaxislayer-above"><g class="xtick"><text text-anchor="middle" x="0" y="433" transform="translate(134.02,0)" style="font-family: 'Open Sans', verdana, arial, sans-serif; font-size: 12px; fill: rgb(42, 63, 95); fill-opacity: 1; white-space: pre; opacity: 1;"><tspan class="line" dy="0em" x="0" y="433">Sep 4</tspan><tspan class="line" dy="1.3em" x="0" y="433">2022</tspan></text></g><g class="xtick"><text text-anchor="middle" x="0" y="433" style="font-family: 'Open Sans', verdana, arial, sans-serif; font-size: 12px; fill: rgb(42, 63, 95); fill-opacity: 1; white-space: pre; opacity: 1;" transform="translate(260.06,0)">Sep 11</text></g><g class="xtick"><text text-anchor="middle" x="0" y="433" style="font-family: 'Open Sans', verdana, arial, sans-serif; font-size: 12px; fill: rgb(42, 63, 95); fill-opacity: 1; white-space: pre; opacity: 1;" transform="translate(386.11,0)">Sep 18</text></g><g class="xtick"><text text-anchor="middle" x="0" y="433" style="font-family: 'Open Sans', verdana, arial, sans-serif; font-size: 12px; fill: rgb(42, 63, 95); fill-opacity: 1; white-space: pre; opacity: 1;" transform="translate(512.15,0)">Sep 25</text></g></g><g class="yaxislayer-above"><g class="ytick"><text text-anchor="end" x="79" y="4.199999999999999" transform="translate(0,386.53)" style="font-family: 'Open Sans', verdana, arial, sans-serif; font-size: 12px; fill: rgb(42, 63, 95); fill-opacity: 1; white-space: pre; opacity: 1;">−80</text></g><g class="ytick"><text text-anchor="end" x="79" y="4.199999999999999" style="font-family: 'Open Sans', verdana, arial, sans-serif; font-size: 12px; fill: rgb(42, 63, 95); fill-opacity: 1; white-space: pre; opacity: 1;" transform="translate(0,346.61)">−60</text></g><g class="ytick"><text text-anchor="end" x="79" y="4.199999999999999" style="font-family: 'Open Sans', verdana, arial, sans-serif; font-size: 12px; fill: rgb(42, 63, 95); fill-opacity: 1; white-space: pre; opacity: 1;" transform="translate(0,306.69)">−40</text></g><g class="ytick"><text text-anchor="end" x="79" y="4.199999999999999" style="font-family: 'Open Sans', verdana, arial, sans-serif; font-size: 12px; fill: rgb(42, 63, 95); fill-opacity: 1; white-space: pre; opacity: 1;" transform="translate(0,266.76)">−20</text></g><g class="ytick"><text text-anchor="end" x="79" y="4.199999999999999" style="font-family: 'Open Sans', verdana, arial, sans-serif; font-size: 12px; fill: rgb(42, 63, 95); fill-opacity: 1; white-space: pre; opacity: 1;" transform="translate(0,226.84)">0</text></g><g class="ytick"><text text-anchor="end" x="79" y="4.199999999999999" style="font-family: 'Open Sans', verdana, arial, sans-serif; font-size: 12px; fill: rgb(42, 63, 95); fill-opacity: 1; white-space: pre; opacity: 1;" transform="translate(0,186.92000000000002)">20</text></g><g class="ytick"><text text-anchor="end" x="79" y="4.199999999999999" style="font-family: 'Open Sans', verdana, arial, sans-serif; font-size: 12px; fill: rgb(42, 63, 95); fill-opacity: 1; white-space: pre; opacity: 1;" transform="translate(0,146.99)">40</text></g><g class="ytick"><text text-anchor="end" x="79" y="4.199999999999999" style="font-family: 'Open Sans', verdana, arial, sans-serif; font-size: 12px; fill: rgb(42, 63, 95); fill-opacity: 1; white-space: pre; opacity: 1;" transform="translate(0,107.07)">60</text></g></g><g class="overaxes-above"/></g></g><g class="polarlayer"/><g class="smithlayer"/><g class="ternarylayer"/><g class="geolayer"/><g class="funnelarealayer"/><g class="pielayer"/><g class="iciclelayer"/><g class="treemaplayer"/><g class="sunburstlayer"/><g class="glimages"/><defs id="topdefs-eeea5e"><g class="clips"/></defs><g class="layer-above"><g class="imagelayer"/><g class="shapelayer"/></g><g class="infolayer"><g class="g-gtitle"><text class="gtitle" x="350" y="50" text-anchor="middle" dy="0em" style="font-family: 'Open Sans', verdana, arial, sans-serif; font-size: 17px; fill: rgb(42, 63, 95); opacity: 1; font-weight: normal; white-space: pre;"><tspan class="line" dy="0em" x="350" y="50">Scenario 7</tspan><tspan class="line" dy="1.3em" x="350" y="50">Microgrid Output</tspan><tspan class="line" dy="2.6em" x="350" y="50">From: September 01, 2022 to September 30, 2022</tspan></text></g><g class="g-xtitle"><text class="xtitle" x="350" y="476.409375" text-anchor="middle" style="font-family: 'Open Sans', verdana, arial, sans-serif; font-size: 14px; fill: rgb(42, 63, 95); opacity: 1; font-weight: normal; white-space: pre;">Time</text></g><g class="g-ytitle"><text class="ytitle" transform="rotate(-90,33.840625,260)" x="33.840625" y="260" text-anchor="middle" style="font-family: 'Open Sans', verdana, arial, sans-serif; font-size: 14px; fill: rgb(42, 63, 95); opacity: 1; font-weight: normal; white-space: pre;">Demand (kW)</text></g></g></svg>