<svg class="main-svg" xmlns="http://www.w3.org/2000/svg" xmlns:xlink="http://www.w3.org/1999/xlink" width="700" height="500" style="" viewBox="0 0 700 500"><rect x="0" y="0" width="700" height="500" style="fill: rgb(255, 255, 255); fill-opacity: 1;"/><defs id="defs-27b0a7"><g class="clips"><clipPath id="clip27b0a7xyplot" class="plotclip"><rect width="435" height="320"/></clipPath><clipPath class="axesclip" id="clip27b0a7x"><rect x="80" y="0" width="435" height="500"/></clipPath><clipPath class="axesclip" id="clip27b0a7y"><rect x="0" y="100" width="700" height="320"/></clipPath><clipPath class="axesclip" id="clip27b0a7xy"><rect x="80" y="100" width="435" height="320"/></clipPath></g><g class="gradients"/><g class="patterns"/></defs><g class="bglayer"/><g class="layer-below"><g class="imagelayer"/><g class="shapelayer"/></g><g class="cartesianlayer"><g class="subplot xy"><g class="layer-subplot"><g class="shapelayer"/><g class="imagelayer"/></g><g class="gridlayer"><g class="x"><path class="xgrid crisp" transform="translate(123.52000000000001,0)" d="M0,100v320" style="stroke: rgb(255, 255, 255); stroke-opacity: 1; stroke-width: 1px;"/><path class="xgrid crisp" transform="translate(225.05,0)" d="M0,100v320" style="stroke: rgb(255, 255, 255); stroke-opacity: 1; stroke-width: 1px;"/><path class="xgrid crisp" transform="translate(326.59000000000003,0)" d="M0,100v320" style="stroke: rgb(255, 255, 255); stroke-opacity: 1; stroke-width: 1px;"/><path class="xgrid crisp" transform="translate(428.12,0)" d="M0,100v320" style="stroke: rgb(255, 255, 255); stroke-opacity: 1; stroke-width: 1px;"/></g><g class="y"><path class="ygrid crisp" transform="translate(0,401.61)" d="M80,0h435" style="stroke: rgb(255, 255, 255); stroke-opacity: 1; stroke-width: 1px;"/><path class="ygrid crisp" transform="translate(0,328.59000000000003)" d="M80,0h435" style="stroke: rgb(255, 255, 255); stroke-opacity: 1; stroke-width: 1px;"/><path class="ygrid crisp" transform="translate(0,182.55)" d="M80,0h435" style="stroke: rgb(255, 255, 255); stroke-opacity: 1; stroke-width: 1px;"/><path class="ygrid crisp" transform="translate(0,109.52)" d="M80,0h435" style="stroke: rgb(255, 255, 255); stroke-opacity: 1; stroke-width: 1px;"/></g></g><g class="zerolinelayer"><path class="yzl zl crisp" transform="translate(0,255.57)" d="M80,0h435" style="stroke: rgb(255, 255, 255); stroke-opacity: 1; stroke-width: 2px;"/></g><path class="xlines-below"/><path class="ylines-below"/><g class="overlines-below"/><g class="xaxislayer-below"/><g class="yaxislayer-below"/><g class="overaxes-below"/><g class="plot" transform="translate(80,100)" clip-path="url(#clip27b0a7xyplot)"><g class="scatterlayer mlayer"><g class="trace scatter traced902a5" style="stroke-miterlimit: 2; opacity: 1;"><g class="fills"/><g class="errorbars"/><g class="lines"><path class="js-line" d="M0,155.57L435,155.57" style="vector-effect: non-scaling-stroke; fill: none; stroke: rgb(0, 191, 255); stroke-opacity: 1; stroke-width: 2px; opacity: 1;"/></g><g class="points"/><g class="text"/></g><g class="trace scatter trace496e3a" style="stroke-miterlimit: 2; opacity: 1;"><g class="fills"/><g class="errorbars"/><g class="lines"><path class="js-line" d="M0,155.74L3.78,155.59L3.93,154.95L4.84,140.37L4.99,122.63L5.14,132.21L5.29,120.45L5.44,74.8L5.89,102.36L6.04,30.71L6.5,38.5L6.65,34.39L6.8,30.9L7.25,21.33L7.4,31.87L7.55,42.34L7.86,16.94L8.46,18.07L8.61,26.24L8.76,23.07L8.91,28.03L9.07,53.13L9.52,108.51L9.82,94.47L9.97,88.57L10.12,73.17L10.43,103.77L10.58,124.63L10.73,124.72L10.88,140.19L11.03,139.9L11.18,145.38L12.09,155.75L12.24,155.75L18.43,155.01L18.58,152.62L19.19,134.59L19.34,126.33L21.91,20.5L22.06,18.94L22.36,17.03L22.51,17.61L22.66,29.11L23.42,110.46L23.57,89.82L23.72,73.35L24.48,135.54L24.63,128.3L24.78,98.5L24.93,95.36L25.08,106.69L25.23,113.79L26.29,155.75L26.44,155.75L32.94,155.14L33.09,153.19L33.69,135.48L33.85,127.55L36.41,20.14L36.56,19.01L36.87,17.09L37.17,18.64L37.32,19.97L37.47,19.64L37.62,20.66L37.77,28.78L37.92,23.81L38.08,37.97L38.23,34.9L38.38,41.2L40.64,155.7L40.8,155.75L47.44,155.2L47.59,152.77L48.35,129.13L48.5,113.85L48.95,117.79L50.01,32.46L50.16,44.81L50.31,68.59L51.37,16.44L51.52,16.54L51.67,16.51L51.98,16.75L52.13,24.44L52.58,85.01L52.88,56.58L53.03,57.9L54.54,150.45L54.7,152.3L55.6,155.76L55.75,155.76L61.95,155.17L62.1,153.09L62.7,134.07L62.86,125.34L65.27,22.45L65.42,20.91L66.03,17.42L66.18,20L66.33,22.81L66.48,22.43L66.63,24.04L66.78,27.23L68.29,91.53L68.45,101.23L69.96,155.75L70.11,155.75L76.45,155.22L76.6,153.34L77.36,125.59L77.51,116.94L79.78,24.97L79.93,22.17L80.38,18.07L80.68,19.2L80.84,20.6L81.14,22.5L81.29,26.23L82.65,84.99L82.8,94.72L84.46,155.74L84.61,155.75L90.96,155.31L91.11,153.65L91.87,126.92L92.02,118.58L94.43,26.57L94.58,23.46L95.79,35.04L95.94,37.04L96.4,48.34L96.55,71.75L96.7,72.02L96.85,67.58L97.15,92.09L97.3,122.96L97.76,131.13L97.91,138.35L98.97,155.75L99.12,155.75L105.77,155.4L105.92,154.61L106.52,138.91L106.67,127.65L107.73,37.45L107.88,59.91L108.03,77.08L108.79,17.83L108.94,29.81L109.09,22.89L109.69,84.2L110,49.85L110.15,42.98L110.3,42.32L110.45,73.28L110.6,25.44L111.21,60.38L111.36,93.45L112.57,150.22L112.72,152.61L113.62,155.75L113.77,155.75L119.97,155.38L120.12,153.78L122.54,89.48L122.69,99.68L122.99,115.59L123.14,104.89L123.29,84.03L123.59,109.1L123.75,115.71L124.8,142.23L124.95,141.98L125.11,138.68L125.56,133.21L125.71,135.85L125.86,142.02L126.01,140L126.16,145.84L126.31,149.25L126.47,148.68L126.77,150.2L126.92,151.4L127.98,155.75L128.13,155.75L134.32,155.67L134.47,154.56L135.98,123.46L136.14,122.71L136.44,130.42L136.59,114.81L136.74,112.63L137.19,123.49L137.34,113.51L137.5,103.46L138.7,63.35L138.86,62.11L139.16,75.03L139.31,105.17L140.06,133.4L140.22,124.57L140.37,116.55L140.52,112.89L140.82,123.31L140.97,126.33L142.18,155.75L142.33,155.75L148.98,155.39L149.13,153.56L150.19,118.36L150.34,109.13L151.55,16L152,16.15L152.15,16.14L153.51,16.18L153.66,18.76L154.27,123.51L154.72,102.1L154.87,53.59L156.23,151.59L156.38,155.65L159.4,155.75L159.56,155.75L163.48,155.34L163.63,153.96L164.69,132.15L164.84,109.95L165.45,99.81L165.6,92.89L166.96,34.71L167.11,41.44L167.71,18.97L167.87,21.58L168.02,67.86L168.32,16.27L168.77,35.62L168.92,31.17L169.68,144.48L169.83,134.36L169.98,111.32L170.28,98.87L170.43,114.65L170.59,128.92L171.49,155.76L171.64,155.76L177.99,155.51L178.14,154.15L179.2,115.84L179.35,108.1L180.1,71.7L180.26,62.4L180.41,61.9L180.56,56.33L180.86,16.79L181.31,30.22L181.46,32L181.92,86.1L182.37,84.66L182.52,89.97L182.67,113.24L183.13,71.01L183.28,72.01L183.58,78.42L183.73,35.02L184.03,57.67L184.18,66.78L186,155.75L186.15,155.75L192.49,155.19L192.65,151.92L193.4,116.48L193.55,105.14L194.91,19.56L195.06,22.24L195.21,32.75L195.82,16.28L196.27,16.4L196.42,16.4L197.93,17.08L198.08,21.9L200.5,155.76L200.65,155.76L207,155.48L207.15,154.09L208.21,116.88L208.36,98.06L209.42,16.44L209.57,16.21L212.44,17.18L212.59,23.07L215.01,155.76L215.16,155.76L220.9,155.75L221.05,155.74L221.5,155.16L221.66,152.26L222.41,115.22L222.56,103.48L224.07,16.14L224.37,16.3L224.53,16.37L226.79,16.55L226.94,18.13L228.3,116.96L228.45,129.43L229.51,155.75L229.66,155.75L236.16,155.32L236.31,154.09L237.97,117.74L238.12,107.42L239.03,50.36L239.18,27.88L239.64,16L240.09,16.07L240.24,16.07L241.3,16.51L241.45,19.83L244.02,155.75L244.17,155.75L250.67,155.33L250.82,153.39L251.42,134.46L251.57,123.84L253.08,16.11L253.23,16.13L253.38,16.21L255.8,16.45L255.95,19.76L258.52,155.76L258.67,155.75L265.02,155.48L265.17,153.96L266.38,113.47L266.53,99.82L267.74,16.09L267.89,16.23L270.16,16.49L270.31,16.88L271.06,58.97L271.21,70.37L272.88,155.76L273.03,155.76L279.52,155.38L279.68,152.12L280.43,107.8L280.58,99.11L282.09,16.13L282.7,16.32L282.85,16.34L284.66,16.52L284.81,17.54L285.87,84.54L286.02,96.83L287.38,155.75L287.53,155.75L294.03,155.41L294.18,154.13L294.78,130.66L294.94,117.85L296.6,16.3L296.9,16.33L297.05,16.36L299.32,17.15L299.47,22.77L300.98,134.23L301.13,145.65L302.04,155.75L302.19,155.75L308.53,155.42L308.69,154.46L309.29,133.08L309.44,119.15L311.1,16.23L311.25,16.25L311.41,16.39L313.67,16.85L313.82,18.09L315.03,99.09L315.18,111.89L316.39,155.75L316.54,155.76L323.04,155.52L323.19,154.94L323.79,135.5L323.95,122.39L325.91,16.43L326.06,16.56L326.21,16.63L328.03,17.2L328.18,21.99L329.39,91.68L329.54,103.79L330.9,155.76L331.05,155.76L337.7,155.08L337.85,152.3L338.3,136.53L338.45,124.31L340.42,16.19L340.57,16.25L342.53,16.78L342.68,20.33L344.04,105.32L344.19,117.26L345.4,155.75L345.55,155.75L352.2,155.09L352.35,152.38L352.96,124.61L353.11,112.75L354.92,16.1L355.07,16.15L355.22,16.14L357.04,17.21L357.19,21.21L358.09,71.68L358.24,86.27L359.6,155.76L359.76,155.76L366.71,155.07L366.86,152.09L367.31,137.14L367.46,125.41L369.43,16.33L369.58,16.38L369.73,16.43L371.54,17.35L371.69,20.93L372.9,97.95L373.05,109.48L374.41,155.75L374.56,155.75L381.21,155.06L381.36,152.73L381.97,125.14L382.12,112.84L383.93,16.35L384.08,16.5L384.23,16.53L385.89,16.82L386.05,18.48L386.65,50.75L386.8,60.79L388.31,155.58L388.46,155.71L391.48,155.74L391.64,155.74L395.72,155.19L395.87,152.44L396.47,127.16L396.62,115.66L398.59,16.35L398.74,16.48L400.4,16.98L400.55,18.9L401.76,89.15L401.91,99.4L403.42,155.75L403.57,155.75L410.22,155.2L410.37,152.35L410.98,127.44L411.13,115.84L413.09,16.31L413.24,16.48L414.9,16.61L415.06,17.53L415.96,62.75L416.11,73.21L417.78,155.75L417.93,155.76L424.57,155.65L424.73,154.92L425.63,108.23L425.78,88.34L427.14,22.32L427.29,17.65L427.75,16.2L428.05,16.29L428.2,16.35L429.41,16.68L429.56,19.04L430.77,87.68L430.92,99.44L432.28,155.75L432.43,155.75L435,155.75" style="vector-effect: non-scaling-stroke; fill: none; stroke: rgb(255, 0, 0); stroke-opacity: 1; stroke-width: 2px; opacity: 1;"/></g><g class="points"/><g class="text"/></g><g class="trace scatter traceef1e27" style="stroke-miterlimit: 2; opacity: 1;"><g class="fills"/><g class="errorbars"/><g class="lines"><path class="js-line" d="M0,195.52L0.6,186.95L0.76,194.63L0.91,190.15L1.06,192.07L1.36,188.4L1.51,190.79L1.66,189.79L1.96,192.19L2.12,185.34L2.27,186.61L2.42,192.51L3.17,184.71L3.32,187.43L3.48,186.04L3.63,190.9L3.78,199.5L4.38,184.1L4.68,190.64L4.84,247.32L5.44,117.6L5.74,148.86L5.89,162.55L6.19,96.63L6.65,111.17L6.8,114.78L6.95,113.79L7.1,107.52L7.55,134.56L7.71,105.65L8.01,93.58L8.16,160.33L8.31,175.03L8.46,169.9L8.61,126.34L8.76,98.57L9.07,144.66L9.22,190.69L9.52,207.18L10.12,151.26L10.27,158.04L11.48,220.15L11.63,221.68L12.39,212.12L12.54,217.89L13.3,199.7L13.45,206.37L13.9,198.45L14.35,199.13L14.51,203.99L15.56,188.11L15.71,192.75L15.86,187.93L16.47,188.1L16.62,189.63L16.77,189.39L16.92,187.23L17.07,199.22L17.68,188.33L17.83,186.11L17.98,187.23L18.13,186.03L18.28,186.42L18.43,182.66L18.89,197.34L19.04,186.34L19.19,240.1L19.94,146.2L20.1,202.35L21,118.35L21.15,109.82L21.3,114.4L21.46,98.58L21.61,105.49L21.76,91.55L21.91,84.19L22.21,98.18L22.36,100.36L23.42,253.01L23.57,238.1L23.72,163.09L23.87,150.53L24.02,197.7L24.18,199.67L24.33,206.42L24.63,203.57L24.78,170.09L24.93,169.39L25.08,182.63L25.23,178.51L25.38,199.48L25.84,225.22L26.29,221.48L26.44,221.5L27.5,197.65L27.65,203.63L27.8,195.55L28.41,197.74L28.56,196.85L28.71,197.57L28.86,196.49L29.01,195.25L29.16,198.5L29.31,190.21L29.61,194.07L29.77,187.45L30.07,192.42L30.52,189.55L30.67,189.44L30.82,187.63L30.97,191.41L31.28,188.38L31.43,256.06L32.18,186.98L32.33,199.96L32.49,253.58L33.09,195.13L33.24,261.83L33.39,273.18L33.54,211.83L34.9,118.32L35.05,119.08L35.36,108.38L35.51,173.49L35.66,193.96L35.81,188.6L35.96,131.43L36.41,179.71L36.56,115.05L36.72,89.91L36.87,83.52L37.02,98.13L37.32,91.68L37.47,95.03L38.23,116.82L38.38,116.74L38.53,145.12L38.68,140.48L38.83,149.31L38.98,154.73L40.19,304L40.34,240.98L41.1,222.42L41.25,223.63L41.4,222.32L41.55,222.83L41.7,212.57L41.85,212.01L42,203.74L43.06,191.7L43.21,192.72L43.52,192.84L43.82,189.68L43.97,191.06L44.12,194.11L45.03,188.42L45.18,189.78L45.48,188.94L45.78,190.88L46.08,190.7L46.23,186.93L46.54,264.93L46.99,259.8L47.14,208.09L47.29,195.91L47.75,202.22L47.9,207.46L48.05,205.56L48.2,187.89L48.35,187.36L48.5,163.33L48.8,146.1L48.95,225.6L49.11,231.98L49.26,193.02L50.01,108.52L50.16,132.08L50.31,204.55L50.77,126.79L50.92,103.05L51.22,116.51L51.37,102.77L51.67,109.03L51.83,97.45L51.98,95.7L52.13,109.54L52.58,249.17L52.88,217.74L53.03,149.92L53.19,152.4L53.34,131.58L53.49,133.52L53.64,145.25L54.7,206.44L54.85,206.47L55.15,208.65L55.3,204.3L55.45,205.51L55.6,206.22L55.75,207.13L55.9,201.5L56.06,206.58L56.21,190.8L56.36,196.87L56.51,192.41L56.96,194.77L57.11,193.95L57.26,190.99L57.42,190.96L57.57,196.71L58.47,188.42L58.62,190.39L58.93,192.08L59.08,189.66L59.23,191.6L59.38,188.08L59.68,190.68L59.83,186.05L60.89,196.73L61.04,194.63L61.19,185.29L61.65,191.08L61.8,244.98L62.7,177.23L62.86,179.65L63.31,162.11L63.46,146.68L64.06,120.82L64.22,171.94L65.12,99.17L65.27,101.1L65.57,96.9L66.33,123.8L66.48,109.38L66.63,112.48L66.78,96.48L69.05,225.62L69.2,221.07L69.35,221.03L69.5,228.11L69.65,217.65L69.81,225.39L69.96,209.66L70.11,212.55L70.26,204.36L70.41,210.25L70.56,200.97L70.71,202.77L70.86,195.15L71.32,194.18L71.47,198.91L71.62,191.28L71.92,190.31L72.53,201.89L72.68,203.29L73.43,217.18L73.58,209.4L73.73,215.73L73.89,200.34L74.04,204.94L74.19,188.16L74.34,194.2L74.49,184.86L74.94,192.38L75.09,185.53L75.24,199.28L75.7,193.42L75.85,185.67L76,191.26L76.15,183.37L76.3,249.5L76.45,266.42L76.6,209.35L76.76,209.39L77.21,180.38L77.36,183.72L77.51,169.88L77.81,161.6L77.96,149.67L78.12,149.82L78.27,141.96L78.42,142.68L78.57,127.71L79.02,119.63L79.63,181.38L79.78,109.3L79.93,106.68L80.08,115.96L80.23,111.98L80.38,179.33L80.68,191.9L80.84,128.72L80.99,127.49L81.14,129.25L81.29,146.84L82.04,182.83L82.2,177.24L82.35,174.78L84.01,227.25L84.16,222.71L84.31,225.41L84.46,219.93L84.61,224.91L84.76,218.64L84.91,224.44L85.22,214.27L85.37,203.03L85.97,204.09L86.12,198.37L86.27,203.92L86.88,204.12L87.33,187.84L87.48,195.29L87.63,187.93L88.24,192.62L88.39,189.61L88.69,187.72L88.84,192.73L88.99,188.42L89.15,186.81L89.45,186.29L89.6,192.66L89.9,191.39L90.05,185.13L90.35,189.49L90.51,244.19L90.81,186.26L91.26,191.04L91.41,207.79L91.71,195.7L91.87,249.02L92.62,158.93L92.77,173.94L92.92,164.55L93.83,108.93L93.98,118.11L94.13,179.2L94.28,182.58L94.43,134L94.74,104.62L94.89,111.48L95.04,173.38L95.19,186.69L95.34,131.25L95.49,113.53L95.94,125.99L96.1,132.35L98.21,226.35L98.66,224.94L98.82,220.47L99.12,207.45L99.27,269.22L99.57,282.15L99.72,214.7L100.48,196.02L100.63,199.27L100.78,195.62L100.93,202.05L101.38,189.86L101.54,195.79L101.69,188.17L102.14,196.73L102.29,188.24L102.44,192.04L103.05,188.27L103.2,192.48L104.1,186.79L104.25,190.5L104.56,190.97L104.71,186.54L105.01,187L105.16,197.35L105.46,196.3L106.07,202.96L106.22,197.88L106.37,198.47L106.52,207.86L106.67,208.96L106.82,183L106.97,188.6L107.13,150.48L107.43,129.23L107.58,179.62L107.73,200.03L108.33,96.65L108.64,139.72L108.79,150.63L109.09,78.46L109.54,126.5L109.69,144.47L110.6,98.47L110.75,118.12L111.05,113.29L111.21,128.42L111.81,271.83L112.11,224.36L112.26,206.33L112.41,216.05L112.72,206.02L112.87,214.36L113.02,205.83L113.77,229.5L113.92,215.31L114.08,217.37L114.23,207.82L114.38,214.01L114.68,205.19L114.83,196.11L114.98,201.97L115.13,195.75L115.59,200.18L115.74,195.47L115.89,199.76L116.34,191.82L116.49,192.84L116.64,193.54L116.8,188.78L117.1,188.15L117.25,196.95L117.55,195.75L117.7,187.47L118,184.37L118.46,203.33L118.61,198.85L118.76,198.73L119.36,187.95L119.67,190.79L119.82,245.4L120.12,185.77L120.57,209.01L120.72,220.85L121.03,221.85L121.18,192.13L121.63,267.5L121.93,194.05L122.08,174.18L122.24,157.68L122.69,178.16L122.84,182.86L123.14,164.38L123.29,148.38L123.44,144.48L123.59,164.47L124.2,190.29L124.35,212.36L124.8,230.31L125.11,226.96L125.26,217.22L125.41,218.04L125.56,208.99L125.71,222.51L126.31,219.32L126.47,215.37L127.07,215.39L127.52,199.62L127.67,201.03L127.98,204.45L128.13,208.97L128.43,210.37L129.34,189.53L129.49,198.1L130.39,185.25L130.55,191.44L130.85,192.34L131,183.84L131.3,187.06L131.45,187.37L131.6,188.91L131.75,184.26L132.06,187.34L132.21,185.99L132.66,185.97L132.81,191.4L132.96,184.92L133.57,191L133.72,186L133.87,185.2L134.78,201.89L134.93,245.16L135.08,248.74L135.23,201.6L136.14,156.13L136.29,174.84L136.44,173.2L136.59,157.45L136.74,160.1L136.89,229.03L137.19,256.96L137.34,250.31L137.5,190.98L138.4,141.18L138.55,124.21L138.86,119.47L139.01,127.26L139.16,135.06L139.91,225.03L140.06,212.28L140.22,196.89L140.52,174.88L140.97,194.03L141.12,187.81L142.03,210L142.33,208.49L142.48,203.5L142.63,204.76L142.78,200.53L142.94,199.16L143.09,209L143.54,197.77L143.69,190.81L143.84,193.37L143.99,189.34L144.29,189.91L144.45,187.69L144.6,194.3L144.75,187.06L145.05,190.66L145.2,187.64L145.65,187.12L145.81,192.7L145.96,185.46L146.26,192.15L146.41,184.97L146.71,190.41L146.86,184.75L147.32,183.09L147.47,192.38L147.62,185.77L147.77,245.29L147.92,264.66L148.07,197.05L148.22,189.61L148.83,207.5L148.98,199.85L149.13,195.6L149.43,183.84L149.58,172.61L149.73,176.71L149.89,168.58L150.04,160.86L150.34,145.48L150.49,146.04L150.64,205.71L150.94,196.41L151.09,83.41L151.4,84.41L151.55,75.12L151.7,91.12L152.3,63.63L152.45,90.37L152.61,91.21L152.91,186.01L153.36,97.07L153.51,97.1L153.96,142.03L154.12,197.83L154.27,196.02L154.42,198.23L154.57,184.95L154.87,118.57L155.32,151.19L155.48,194.85L155.78,188.36L156.08,192.85L156.23,197.94L156.38,198.44L156.53,203.06L157.44,191.7L157.59,195.55L158.5,189.21L158.65,191.96L158.95,187.76L159.1,194.14L159.71,188.14L159.86,191.87L160.01,189.96L160.16,187.41L160.31,193.19L160.61,188.27L160.76,191.29L160.92,182.11L161.37,189.55L161.52,246.39L162.12,184.55L162.43,187.17L162.58,187.3L162.73,183.24L162.88,188.58L163.03,196.49L163.33,198.4L163.63,182.77L163.79,198.96L164.39,225.02L164.54,208.88L164.69,211.61L164.99,255.7L165.15,184.1L165.45,217.55L165.6,210.6L166.51,95.42L166.81,110.3L166.96,121.14L167.11,116.68L167.26,160.77L167.41,180.99L167.56,115.05L167.71,107.61L168.02,150.44L168.17,98.94L168.32,96.61L168.47,110.16L169.68,204.79L169.83,176.46L169.98,155.32L170.13,147.56L170.43,157.84L170.59,178.26L170.89,270.2L171.34,195.9L171.49,196.81L171.79,198.22L171.95,193.7L172.1,196.08L172.25,191.52L172.4,194.65L172.55,190.53L172.85,202.82L173.3,201.46L173.46,197.68L173.91,196.43L174.06,203.34L174.21,189.64L174.66,186.29L174.82,190.3L174.97,189.61L175.12,184.35L175.72,190.87L175.87,181.64L176.63,189.45L176.78,183.89L176.93,183.98L177.08,187.81L177.23,186.66L177.38,248.96L177.84,187.67L178.29,201.43L178.44,192.64L178.74,264.74L179.2,240L179.35,176.27L179.5,177.06L179.65,155.64L180.71,80.9L180.86,137.08L181.16,163.99L181.31,161.92L181.46,105.6L181.92,162.5L182.37,142.63L182.52,146.52L182.67,168.21L182.97,139.97L183.13,142.73L183.28,144.34L183.58,159.87L183.73,118.67L184.03,129.92L184.18,145.47L184.33,148L184.49,166.2L185.39,219.77L185.54,213.11L185.69,206.43L186,198.59L186.45,203.55L186.6,203.64L187.05,195.84L187.36,196.05L187.51,199.05L188.87,183.99L189.02,188.64L189.62,181.54L189.93,183.02L190.08,184.47L190.23,184.48L190.38,181.89L190.53,183.9L191.13,182.06L191.29,180.04L191.44,181.78L191.59,249.91L192.34,190.48L192.49,192.45L192.65,190.61L192.8,193.13L193.1,187.83L193.25,175.81L193.85,119.28L194,171.57L194.31,179.13L194.46,175.35L194.61,165.17L194.91,90.57L195.06,137.01L195.21,159.66L195.67,69.24L195.97,69.62L196.12,133.2L196.42,162.1L196.57,101.27L196.72,95.31L197.78,72.03L197.93,74.77L198.08,78.41L198.24,89.32L198.39,151.76L198.69,187.88L198.84,134.71L199.14,153.29L199.29,170.31L200.35,292.16L200.5,277.14L200.65,215.5L201.56,185.52L201.71,189.46L201.86,188.42L202.32,188.78L202.62,181.45L202.77,182.31L202.92,189.55L203.37,183.05L203.83,184.69L203.98,244.66L204.13,257.86L204.28,256.85L204.43,198L204.88,180.87L205.19,185.19L205.34,182.74L205.49,182.91L205.64,182.37L205.79,181.43L205.94,185.64L206.09,180.72L206.55,183.6L206.7,179.81L206.85,180.15L207,184.62L207.15,184.43L207.3,176.75L207.45,176.71L207.6,183.83L207.75,186.75L207.91,174.12L208.36,144.9L208.51,108.45L208.66,136.83L208.96,79.88L209.11,76.21L209.27,68.71L209.42,72.22L209.57,128.93L209.72,147.61L210.02,147.35L210.17,75.91L210.32,61.97L210.93,62.72L211.08,65.72L211.38,61.15L211.53,71.64L211.68,61.33L211.83,72.96L212.14,67.15L212.29,71.42L212.59,73.25L212.74,83.19L213.5,219.52L213.65,177.82L213.8,163.61L214.7,270.25L214.86,212.53L215.16,193.48L215.61,198.56L215.76,195.98L215.91,188.4L216.22,204.35L216.37,197.05L216.52,199.22L216.82,200.93L216.97,187.42L217.27,188.72L217.42,183.63L218.48,177.68L218.63,178.67L218.78,181.64L219.39,177.43L219.54,182.37L220.45,176.39L220.6,176.3L221.05,179.9L221.2,235.15L222.11,168.76L222.26,161.42L222.71,120.36L222.86,168.84L223.01,172.65L223.32,84.73L223.77,133.72L223.92,137.79L224.22,82.41L224.83,84.44L224.98,92.87L225.13,82.73L225.73,85.81L225.89,86.7L226.34,88.11L226.64,77.25L227.09,77.6L227.25,88.03L227.7,178.03L227.85,206.08L228.15,157.12L228.61,189.51L228.76,200.28L229.06,204.61L229.21,201.44L229.36,194.7L229.81,197.87L230.57,183.8L230.72,184.1L231.02,185.97L231.33,181.69L231.48,186.52L232.23,178.94L232.38,183.56L232.99,177.97L233.14,183.64L233.89,177.22L234.04,236.07L234.95,176.47L235.1,179.07L235.71,176.18L235.86,178.51L236.01,181.12L236.31,177.63L236.46,173.9L236.61,177.48L236.92,168.62L237.07,168.88L237.37,237.13L237.67,163.51L237.82,148.39L237.97,151.7L238.12,139.08L238.28,125.8L239.79,51.02L239.94,115.99L240.39,146.85L240.69,134.18L240.84,81.6L241,83.08L241.15,138.58L241.3,164.44L241.6,116.39L241.75,105.27L243.56,200.87L243.71,195.93L243.87,195.29L244.02,200.51L244.17,194.07L244.47,196.03L244.62,194.23L244.77,193.7L244.92,189.45L245.07,194.02L245.53,189.54L245.68,189.37L245.83,190.04L245.98,188.38L246.28,189.44L246.43,189.15L246.74,184.97L246.89,177.03L247.49,181.65L247.64,176.25L248.1,179.56L248.4,177.54L248.55,177.2L248.7,179.4L248.85,176.76L249.15,178.06L249.31,176.81L250.06,182.12L250.21,177.68L250.51,178.19L251.12,170.9L251.27,175.8L251.57,157.27L251.72,139.7L252.18,91.86L252.33,94.73L252.48,147.37L253.38,62.56L253.54,64.13L253.69,65.53L253.84,57.23L254.14,59.99L254.29,52.25L254.44,59.89L255.35,82.75L255.5,91.82L255.8,72.11L256.1,87.28L256.26,150.67L256.71,182.31L256.86,141.98L257.01,135.48L258.52,201.67L258.67,198.66L259.58,184.12L259.73,193.17L260.18,196.54L260.49,189.25L260.64,190.51L260.79,191.56L261.09,189.43L261.24,182.33L262.15,176.61L262.3,181.38L262.9,176.12L263.05,178.66L263.21,177.09L263.36,176.19L263.51,237.35L264.11,176.04L264.41,179.34L264.57,175.72L264.87,175.98L265.02,187L265.17,189.21L265.32,183.69L265.47,178.13L265.62,233.79L266.08,169.63L266.23,179.6L266.98,98.12L267.13,160.21L267.44,175.78L267.59,156.99L267.89,168.87L268.04,107.49L268.19,79.11L268.49,144.15L268.65,140.75L268.95,70.31L269.25,172.99L269.4,167.67L270.31,83.01L270.46,73.64L272.57,215.59L272.72,199.66L272.88,203.92L273.03,200.71L273.18,191.37L274.08,181.28L274.24,183.21L274.39,184.36L274.54,179.3L274.69,184.1L275.29,183.75L275.44,178.52L275.9,180.78L276.05,177.79L276.65,179.97L276.8,178.11L276.96,178.53L277.11,179.44L277.26,176.19L277.41,176.61L277.86,179.49L278.01,176.19L278.16,236.28L278.92,176.34L279.07,179.3L279.22,179.13L280.13,165.17L280.28,154.85L280.58,156.04L281.64,87.52L281.79,99.76L281.94,79.5L282.09,146.51L282.24,104.37L282.39,139.44L283,77.72L283.3,80.81L283.45,84.63L283.75,157.63L284.06,88.54L284.21,79.36L285.11,110.17L285.27,131.88L286.63,209.67L287.08,200.91L287.23,202.93L287.53,205.28L287.68,196.84L287.99,197.29L288.14,200.19L288.29,192.46L288.44,199.71L288.59,248.69L288.89,269.32L289.04,204.99L289.95,182.65L290.1,181.16L290.55,181.22L290.71,179.26L290.86,178.76L291.01,180.31L291.16,182.86L291.91,175.75L292.06,175.86L292.22,179.2L292.97,176.15L293.12,178.99L293.58,176.41L293.73,234.98L294.63,171.88L294.78,163.88L295.39,129.59L295.54,111.03L296.6,73.92L296.75,136.2L297.2,141.67L297.35,86.36L297.5,76.98L297.66,141.68L297.81,159.66L297.96,105.03L298.11,91.18L298.41,89.31L298.86,96.45L299.02,84.79L299.47,74.37L299.62,99.58L300.07,202.8L300.38,149.16L300.53,163.08L300.68,171.16L300.83,243.93L300.98,260.85L301.13,257.51L301.28,206.49L302.19,189.28L302.34,190.21L303.25,181.45L303.4,183.14L304,179.14L304.3,179.57L304.45,180.36L305.06,178.18L305.21,179.01L305.36,179.12L305.81,179.26L305.97,175.59L306.12,177.34L306.27,185L306.57,197.88L306.87,189.54L307.02,177.89L307.33,174.87L307.48,175.1L307.63,185.52L307.78,187.76L308.38,186.41L308.53,244.64L309.59,141.19L309.74,180.68L310.8,58.71L310.95,56.2L311.71,91.79L311.86,88.59L312.01,81.18L312.16,82.69L312.31,71.09L313.22,96.36L313.37,153.04L313.52,169.29L313.67,111.69L313.82,107.98L314.12,106.38L314.58,179.07L314.73,211.86L315.03,170.12L315.48,203.2L315.64,206.77L315.94,219.62L316.24,202.8L316.39,203.02L316.69,204.88L317.75,190.37L317.9,195.27L318.2,196.22L318.81,187.26L318.96,189.89L319.87,178.56L320.02,190.33L320.32,191.93L320.62,176.99L320.77,237.54L321.38,175.91L321.68,181.61L321.83,175.34L322.28,177.67L322.59,176.74L322.74,233.35L323.34,173.13L323.64,182.88L323.79,236.9L323.95,252.26L324.1,174.65L324.85,107.88L325.15,115.66L325.31,101.82L325.46,160.69L325.91,74.73L326.06,81.29L326.21,75.79L326.36,132.24L326.97,162.88L327.12,103.94L327.42,87.48L327.72,103.55L327.87,108.79L328.03,107.94L328.18,119.62L328.33,116.72L328.48,141.88L328.63,125.79L329.08,143.32L329.23,153.85L330.59,212.66L330.9,209.23L331.05,212.3L331.65,194.61L331.95,195.78L332.1,199.47L333.16,184L333.31,187.75L333.46,191.76L333.62,198.24L334.22,196.26L334.37,190.79L334.52,197.71L334.82,181.54L334.98,183.49L335.13,179.39L335.28,184.95L335.73,180.96L335.88,182.02L336.49,183.27L336.79,178.05L336.94,181.04L337.54,178.36L337.7,182.11L338.15,248.88L338.3,207.71L338.45,177.34L338.6,176.44L338.75,154.37L340.11,67.36L340.26,67.54L340.42,65L341.17,168.55L341.32,99.93L341.47,92.31L341.62,112.92L341.77,162.82L341.93,179.55L342.08,123.65L342.23,104.38L342.38,105.36L342.53,96.29L342.68,96.88L342.83,93.46L343.13,182.33L343.59,128.07L343.74,145.65L343.89,155.99L344.04,222.12L344.34,260.91L344.65,209.72L344.8,218.4L344.95,219.06L345.1,214.59L345.25,222.02L345.4,204.22L345.55,263.7L345.85,278.99L346.01,218.89L346.46,195.61L346.91,196.1L347.06,195.96L347.37,192.24L347.52,195.87L348.42,183.81L348.57,184.63L348.73,183.72L348.88,183.51L349.03,184.77L349.48,178.92L349.78,179.59L349.93,181.82L350.54,193L350.69,181.23L351.29,193.22L351.44,179.69L351.75,180.2L352.35,175.25L352.5,179.49L354.32,78.02L354.47,131.19L354.62,139.83L354.77,77.65L354.92,61.77L355.22,66.06L355.37,121.84L355.68,153.6L355.83,94.67L355.98,84.26L356.13,78.83L356.28,86.97L356.43,97.59L356.58,95.49L356.73,104.59L357.19,103.92L357.79,125.48L357.94,121.09L359.45,202.28L359.6,199.92L359.76,199.47L359.91,200.74L360.06,196.09L360.51,195.63L360.66,196.93L360.81,189.27L361.27,187.11L361.42,192.46L361.57,188.36L362.47,184.29L362.63,187.46L363.53,183.22L363.68,183.76L363.83,184.09L363.99,182.23L364.14,183.93L364.59,180.96L364.74,177.82L365.8,193.76L365.95,197.91L366.1,191.22L366.25,198.1L366.4,192.83L366.55,250.83L366.71,261.76L366.86,198.76L367.16,262L367.46,176.07L367.61,166.44L369.27,95.39L369.43,93.48L369.73,158.47L370.03,88.34L370.18,80.63L370.94,191.16L371.09,145.05L371.24,129.67L372.3,155.8L372.45,145.15L373.66,207.9L373.96,204.76L374.11,200.01L374.26,203.47L374.41,197.02L374.71,199L374.86,197.47L375.02,200.05L375.17,194.85L375.32,252.54L375.62,266.09L375.77,204.47L376.22,189.35L376.68,189.44L376.83,188.79L377.13,191.08L377.58,181.91L377.74,188.52L378.19,183.4L378.49,183.59L378.64,192.19L378.79,193.76L378.94,193.68L379.1,183.38L379.25,185.24L379.4,181.01L379.55,241.14L379.7,253.66L379.85,194.75L380.46,189.4L380.61,191.08L380.76,193.86L380.91,178.82L381.36,199.51L381.51,206.23L381.97,182.84L382.12,224.81L382.27,226.77L382.42,209.66L383.33,91.56L383.48,91.92L384.53,71.69L384.69,84.19L384.84,74.33L384.99,97.48L385.14,95.88L385.29,96.49L386.05,174.47L386.2,170.49L386.35,119.26L386.5,116.78L386.65,120.21L386.8,130.59L388.46,214.55L388.61,213.34L388.77,202.95L390.13,189.79L390.28,190.16L390.43,192.49L390.88,187.09L391.18,188.97L391.33,248.43L391.64,262.65L391.79,200.92L392.69,183.59L392.84,187.32L393.75,180.81L393.9,186.34L394.36,179.27L394.66,183.49L394.81,181.11L395.11,182.51L395.26,180.5L395.41,179.96L395.56,180.76L395.72,182.04L396.32,251.1L396.47,182.26L396.62,164.06L396.77,155.08L396.92,204.19L397.08,209.94L397.23,149.05L398.13,117.22L398.28,124.39L399.19,73.49L399.34,82.33L399.49,75.36L401.46,153.12L401.61,148.81L402.67,220.4L402.82,215.57L402.97,209.19L404.03,219.28L404.18,213.33L404.33,213.14L404.48,199.97L404.63,200.54L404.78,196.28L405.23,201.72L405.39,194.41L405.54,200.81L405.69,193.96L405.84,201.33L405.99,190.08L406.14,191.25L406.29,185.54L406.9,188.2L407.05,183.32L407.2,189.88L407.35,182.42L407.65,184.78L407.8,181.35L408.11,180.88L408.41,194.92L408.56,183.36L408.71,182.07L408.86,183.27L409.01,179.08L409.31,181.23L409.47,179.21L409.62,181.31L410.07,179.12L410.22,179.32L410.37,193.17L410.52,191.11L410.67,246.71L411.73,138.5L411.88,127.23L412.18,112.8L412.34,114.05L412.49,87.09L412.64,89.35L412.79,80.13L412.94,73.65L413.09,128.51L413.24,141.16L413.39,91.63L413.54,69.79L414.15,108.24L414.6,106.46L414.75,94.89L415.06,91.83L415.21,103L415.66,210.01L415.96,156.85L416.11,145.48L416.26,143.96L416.42,160.18L416.57,152.64L416.72,171.21L416.87,234.5L417.62,192.32L417.78,198.11L418.68,188.61L418.83,189.7L419.29,185.22L419.44,189.5L419.59,192.85L419.74,191.76L419.89,183.66L420.04,185.02L420.34,183.35L420.49,184.77L420.65,183.21L420.95,184.35L421.55,179.98L421.7,185.25L422.46,179.72L422.61,180.86L423.21,176.69L423.37,180.89L423.52,234.94L424.12,181.71L424.27,183.96L424.42,188.94L424.73,186.7L424.88,179.09L425.03,176.27L425.18,242L425.33,256.36L425.63,234.43L425.78,153.02L426.84,69.08L426.99,67.83L427.45,85.95L427.6,148.64L427.75,173.75L427.9,161.18L428.05,89.67L428.96,76.48L429.11,83.11L430.62,153.26L430.77,155.67L431.22,258.09L431.52,201.03L431.68,209.66L431.98,212L432.28,208.73L432.43,210.07L432.58,208.58L432.73,209.46L432.88,197.82L433.04,198.04L433.19,195.07L434.09,190.3L434.24,191.16L434.85,189.77L435,198.78" style="vector-effect: non-scaling-stroke; fill: none; stroke: rgb(0, 128, 0); stroke-opacity: 1; stroke-width: 2px; opacity: 1;"/></g><g class="points"/><g class="text"/></g></g></g><g class="overplot"/><path class="xlines-above crisp" d="M0,0" style="fill: none;"/><path class="ylines-above crisp" d="M0,0" style="fill: none;"/><g class="overlines-above"/><g class="xaxislayer-above"><g class="xtick"><text text-anchor="middle" x="0" y="433" transform="translate(123.52000000000001,0)" style="font-family: 'Open Sans', verdana, arial, sans-serif; font-size: 12px; fill: rgb(42, 63, 95); fill-opacity: 1; white-space: pre; opacity: 1;"><tspan class="line" dy="0em" x="0" y="433">Sep 4</tspan><tspan class="line" dy="1.3em" x="0" y="433">2022</tspan></text></g><g class="xtick"><text text-anchor="middle" x="0" y="433" style="font-family: 'Open Sans', verdana, arial, sans-serif; font-size: 12px; fill: rgb(42, 63, 95); fill-opacity: 1; white-space: pre; opacity: 1;" transform="translate(225.05,0)">Sep 11</text></g><g class="xtick"><text text-anchor="middle" x="0" y="433" style="font-family: 'Open Sans', verdana, arial, sans-serif; font-size: 12px; fill: rgb(42, 63, 95); fill-opacity: 1; white-space: pre; opacity: 1;" transform="translate(326.59000000000003,0)">Sep 18</text></g><g class="xtick"><text text-anchor="middle" x="0" y="433" style="font-family: 'Open Sans', verdana, arial, sans-serif; font-size: 12px; fill: rgb(42, 63, 95); fill-opacity: 1; white-space: pre; opacity: 1;" transform="translate(428.12,0)">Sep 25</text></g></g><g class="yaxislayer-above"><g class="ytick"><text text-anchor="end" x="79" y="4.199999999999999" transform="translate(0,401.61)" style="font-family: 'Open Sans', verdana, arial, sans-serif; font-size: 12px; fill: rgb(42, 63, 95); fill-opacity: 1; white-space: pre; opacity: 1;">−100</text></g><g class="ytick"><text text-anchor="end" x="79" y="4.199999999999999" style="font-family: 'Open Sans', verdana, arial, sans-serif; font-size: 12px; fill: rgb(42, 63, 95); fill-opacity: 1; white-space: pre; opacity: 1;" transform="translate(0,328.59000000000003)">−50</text></g><g class="ytick"><text text-anchor="end" x="79" y="4.199999999999999" style="font-family: 'Open Sans', verdana, arial, sans-serif; font-size: 12px; fill: rgb(42, 63, 95); fill-opacity: 1; white-space: pre; opacity: 1;" transform="translate(0,255.57)">0</text></g><g class="ytick"><text text-anchor="end" x="79" y="4.199999999999999" style="font-family: 'Open Sans', verdana, arial, sans-serif; font-size: 12px; fill: rgb(42, 63, 95); fill-opacity: 1; white-space: pre; opacity: 1;" transform="translate(0,182.55)">50</text></g><g class="ytick"><text text-anchor="end" x="79" y="4.199999999999999" style="font-family: 'Open Sans', verdana, arial, sans-serif; font-size: 12px; fill: rgb(42, 63, 95); fill-opacity: 1; white-space: pre; opacity: 1;" transform="translate(0,109.52)">100</text></g></g><g class="overaxes-above"/></g></g><g class="polarlayer"/><g class="smithlayer"/><g class="ternarylayer"/><g class="geolayer"/><g class="funnelarealayer"/><g class="pielayer"/><g class="iciclelayer"/><g class="treemaplayer"/><g class="sunburstlayer"/><g class="glimages"/><defs id="topdefs-27b0a7"><g class="clips"/><clipPath id="legend27b0a7"><rect width="164" height="67" x="0" y="0"/></clipPath></defs><g class="layer-above"><g class="imagelayer"/><g class="shapelayer"/></g><g class="infolayer"><g class="legend" pointer-events="all" transform="translate(523.7,100)"><rect class="bg" shape-rendering="crispEdges" width="164" height="67" x="0" y="0" style="stroke: rgb(68, 68, 68); stroke-opacity: 1; fill: rgb(255, 255, 255); fill-opacity: 1; stroke-width: 0px;"/><g class="scrollbox" transform="" clip-path="url(#legend27b0a7)"><g class="groups"><g class="traces" transform="translate(0,14.5)" style="opacity: 1;"><text class="legendtext" text-anchor="start" x="40" y="4.680000000000001" style="font-family: 'Open Sans', verdana, arial, sans-serif; font-size: 12px; fill: rgb(42, 63, 95); fill-opacity: 1; white-space: pre;">BESS</text><g class="layers" style="opacity: 1;"><g class="legendfill"/><g class="legendlines"><path class="js-line" d="M5,0h30" style="fill: none; stroke: rgb(0, 191, 255); stroke-opacity: 1; stroke-width: 2px;"/></g><g class="legendsymbols"><g class="legendpoints"/></g></g><rect class="legendtoggle" x="0" y="-9.5" width="158.71875" height="19" style="fill: rgb(0, 0, 0); fill-opacity: 0;"/></g><g class="traces" transform="translate(0,33.5)" style="opacity: 1;"><text class="legendtext" text-anchor="start" x="40" y="4.680000000000001" style="font-family: 'Open Sans', verdana, arial, sans-serif; font-size: 12px; fill: rgb(42, 63, 95); fill-opacity: 1; white-space: pre;">Solar</text><g class="layers" style="opacity: 1;"><g class="legendfill"/><g class="legendlines"><path class="js-line" d="M5,0h30" style="fill: none; stroke: rgb(255, 0, 0); stroke-opacity: 1; stroke-width: 2px;"/></g><g class="legendsymbols"><g class="legendpoints"/></g></g><rect class="legendtoggle" x="0" y="-9.5" width="158.71875" height="19" style="fill: rgb(0, 0, 0); fill-opacity: 0;"/></g><g class="traces" transform="translate(0,52.5)" style="opacity: 1;"><text class="legendtext" text-anchor="start" x="40" y="4.680000000000001" style="font-family: 'Open Sans', verdana, arial, sans-serif; font-size: 12px; fill: rgb(42, 63, 95); fill-opacity: 1; white-space: pre;">Grid Meter (Net Load)</text><g class="layers" style="opacity: 1;"><g class="legendfill"/><g class="legendlines"><path class="js-line" d="M5,0h30" style="fill: none; stroke: rgb(0, 128, 0); stroke-opacity: 1; stroke-width: 2px;"/></g><g class="legendsymbols"><g class="legendpoints"/></g></g><rect class="legendtoggle" x="0" y="-9.5" width="158.71875" height="19" style="fill: rgb(0, 0, 0); fill-opacity: 0;"/></g></g></g><rect class="scrollbar" rx="20" ry="3" width="0" height="0" x="0" y="0" style="fill: rgb(128, 139, 164); fill-opacity: 1;"/></g><g class="g-gtitle"><text class="gtitle" x="297.5" y="50" text-anchor="middle" dy="0em" style="font-family: 'Open Sans', verdana, arial, sans-serif; font-size: 17px; fill: rgb(42, 63, 95); opacity: 1; font-weight: normal; white-space: pre;"><tspan class="line" dy="0em" x="297.5" y="50">Scenario 2</tspan><tspan class="line" dy="1.3em" x="297.5" y="50">Microgrid Output</tspan><tspan class="line" dy="2.6em" x="297.5" y="50">From: September 01, 2022 to September 30, 2022</tspan></text></g><g class="g-xtitle"><text class="xtitle" x="297.5" y="476.409375" text-anchor="middle" style="font-family: 'Open Sans', verdana, arial, sans-serif; font-size: 14px; fill: rgb(42, 63, 95); opacity: 1; font-weight: normal; white-space: pre;">Time</text></g><g class="g-ytitle"><text class="ytitle" transform="rotate(-90,26.168750000000003,260)" x="26.168750000000003" y="260" text-anchor="middle" style="font-family: 'Open Sans', verdana, arial, sans-serif; font-size: 14px; fill: rgb(42, 63, 95); opacity: 1; font-weight: normal; white-space: pre;">Demand (kW)</text></g></g></svg>