<svg class="main-svg" xmlns="http://www.w3.org/2000/svg" xmlns:xlink="http://www.w3.org/1999/xlink" width="700" height="500" style="" viewBox="0 0 700 500"><rect x="0" y="0" width="700" height="500" style="fill: rgb(255, 255, 255); fill-opacity: 1;"/><defs id="defs-830cc6"><g class="clips"><clipPath id="clip830cc6xyplot" class="plotclip"><rect width="435" height="320"/></clipPath><clipPath class="axesclip" id="clip830cc6x"><rect x="80" y="0" width="435" height="500"/></clipPath><clipPath class="axesclip" id="clip830cc6y"><rect x="0" y="100" width="700" height="320"/></clipPath><clipPath class="axesclip" id="clip830cc6xy"><rect x="80" y="100" width="435" height="320"/></clipPath></g><g class="gradients"/><g class="patterns"/></defs><g class="bglayer"/><g class="layer-below"><g class="imagelayer"/><g class="shapelayer"/></g><g class="cartesianlayer"><g class="subplot xy"><g class="layer-subplot"><g class="shapelayer"/><g class="imagelayer"/></g><g class="gridlayer"><g class="x"><path class="xgrid crisp" transform="translate(94.03999999999999,0)" d="M0,100v320" style="stroke: rgb(255, 255, 255); stroke-opacity: 1; stroke-width: 1px;"/><path class="xgrid crisp" transform="translate(192.3,0)" d="M0,100v320" style="stroke: rgb(255, 255, 255); stroke-opacity: 1; stroke-width: 1px;"/><path class="xgrid crisp" transform="translate(290.55,0)" d="M0,100v320" style="stroke: rgb(255, 255, 255); stroke-opacity: 1; stroke-width: 1px;"/><path class="xgrid crisp" transform="translate(388.81,0)" d="M0,100v320" style="stroke: rgb(255, 255, 255); stroke-opacity: 1; stroke-width: 1px;"/><path class="xgrid crisp" transform="translate(487.07,0)" d="M0,100v320" style="stroke: rgb(255, 255, 255); stroke-opacity: 1; stroke-width: 1px;"/></g><g class="y"><path class="ygrid crisp" transform="translate(0,417.38)" d="M80,0h435" style="stroke: rgb(255, 255, 255); stroke-opacity: 1; stroke-width: 1px;"/><path class="ygrid crisp" transform="translate(0,340.32)" d="M80,0h435" style="stroke: rgb(255, 255, 255); stroke-opacity: 1; stroke-width: 1px;"/><path class="ygrid crisp" transform="translate(0,186.2)" d="M80,0h435" style="stroke: rgb(255, 255, 255); stroke-opacity: 1; stroke-width: 1px;"/><path class="ygrid crisp" transform="translate(0,109.14)" d="M80,0h435" style="stroke: rgb(255, 255, 255); stroke-opacity: 1; stroke-width: 1px;"/></g></g><g class="zerolinelayer"><path class="yzl zl crisp" transform="translate(0,263.26)" d="M80,0h435" style="stroke: rgb(255, 255, 255); stroke-opacity: 1; stroke-width: 2px;"/></g><path class="xlines-below"/><path class="ylines-below"/><g class="overlines-below"/><g class="xaxislayer-below"/><g class="yaxislayer-below"/><g class="overaxes-below"/><g class="plot" transform="translate(80,100)" clip-path="url(#clip830cc6xyplot)"><g class="scatterlayer mlayer"><g class="trace scatter trace5e0ca7" style="stroke-miterlimit: 2; opacity: 1;"><g class="fills"/><g class="errorbars"/><g class="lines"><path class="js-line" d="M0,163.26L435,163.26" style="vector-effect: non-scaling-stroke; fill: none; stroke: rgb(0, 191, 255); stroke-opacity: 1; stroke-width: 2px; opacity: 1;"/></g><g class="points"/><g class="text"/></g><g class="trace scatter trace7bbfc1" style="stroke-miterlimit: 2; opacity: 1;"><g class="fills"/><g class="errorbars"/><g class="lines"><path class="js-line" d="M0,163.45L4.09,163.02L4.24,161.22L5.41,130.45L5.56,120.14L5.99,71.99L6.14,37.43L7.02,16L7.16,16.07L8.48,16.27L8.63,18.04L9.94,105.76L10.09,118.96L11.26,163.46L11.41,163.46L18.13,162.78L18.28,160.09L19.15,130.37L19.3,122.73L20.76,16.04L21.2,16.09L21.35,16.1L22.37,16.22L22.52,17.23L23.54,71.81L23.69,83.96L25.3,163.46L25.44,163.46L32.02,162.7L32.17,159.55L32.9,124.64L33.05,113.4L34.95,16.35L35.09,16.31L36.41,16.78L36.55,19.24L37.72,86.81L37.87,98.97L39.33,163.46L39.48,163.46L46.06,162.93L46.21,160.63L46.79,136.64L46.94,124.77L48.98,16.36L49.13,16.43L50.3,16.55L50.45,17.01L51.18,46.12L51.32,55.11L53.37,163.45L53.52,163.45L60.1,162.95L60.24,160.33L60.83,133.76L60.97,121.87L63.17,16.43L63.31,16.47L63.46,16.47L64.19,16.52L64.34,17.03L65.07,41.85L65.21,50.5L67.41,163.45L67.55,163.45L74.43,162.89L74.57,159.69L75.45,142.93L75.59,129.15L76.03,102.84L76.18,38.99L76.33,40.14L76.47,35.85L76.62,29.31L77.2,16.25L77.64,16.31L77.79,16.34L78.08,16.25L78.23,16.84L78.37,19.48L78.96,38.68L79.1,45.65L81.44,163.46L81.59,163.45L88.17,162.95L88.32,160.04L89.49,99.16L89.63,88.91L91.39,18.68L91.53,16.82L91.97,17.92L92.12,20.26L92.56,27.1L92.7,29.82L93.43,66.92L93.58,77.02L95.48,163.45L95.63,163.45L102.21,162.97L102.35,160.88L103.08,130.06L103.23,120.06L105.28,19.65L105.42,17.24L105.72,16.23L105.86,18.14L106.01,38.21L106.15,17.96L106.45,22.12L106.59,94.3L106.89,122.33L107.03,48.51L107.18,46.68L107.32,67.5L107.62,72.36L107.76,86.65L109.23,163.46L109.37,163.46L116.24,163.04L116.39,161.17L117.12,129.45L117.27,119.97L119.31,21.36L119.46,19.01L119.75,42.48L119.9,16.42L120.48,21.39L120.63,25.11L121.65,76.69L121.8,87.82L123.41,163.46L123.55,163.46L130.28,163.25L130.43,162.33L131.74,107.26L131.89,98.7L132.91,32.02L133.06,28.35L133.94,17.2L134.08,17.61L134.23,20.43L134.37,32.51L134.81,27.56L134.96,118.25L135.11,124.73L135.25,124.45L135.4,55.64L137.3,163.45L137.45,163.46L144.61,162.97L144.76,161.77L147.1,112.27L147.24,103.45L147.68,62.58L147.83,23.88L147.97,24.74L148.12,76.13L148.27,103.26L148.7,47.78L148.85,60.31L149.87,148.41L150.02,146.55L150.17,146.47L150.31,138.79L151.34,163.45L151.48,163.44L151.63,163.44L158.5,162.98L158.65,160.79L160.4,129.44L160.55,97.29L160.84,98.05L161.28,59.11L161.43,22.67L161.72,21.08L161.86,35.98L162.01,52.68L162.45,18.37L162.59,22.61L163.76,82.43L163.91,103.72L165.37,163.45L165.52,163.45L172.54,163.13L172.68,162.6L174.44,103.82L174.58,93.93L175.75,20.71L175.9,19.63L176.34,20.89L176.49,23.06L177.36,56.69L177.51,65.59L179.56,163.45L179.7,163.45L186.72,163.04L186.87,161.59L189.06,120.73L189.21,105.78L190.08,21.9L190.52,27.94L190.67,30.94L191.55,68.4L191.69,77.25L193.59,163.46L193.74,163.45L200.61,163.2L200.76,162.22L201.64,148.41L201.78,152.81L201.93,152.53L203.68,120.04L203.83,101.74L203.97,104.32L204.12,89.81L205.88,146.97L206.02,142.43L207.05,163.45L207.19,163.45L214.65,163.05L214.79,162.03L215.82,138.55L215.96,133.14L216.99,104.17L217.13,108.97L217.43,112.55L217.57,100.57L217.87,54.15L218.45,65.74L218.6,84.77L218.74,72.64L219.04,105.5L219.18,114.49L221.08,163.24L221.23,163.36L222.69,163.45L222.84,163.45L228.54,163.25L228.69,162.25L229.42,128.11L229.56,115.94L231.46,16.69L231.61,16.29L232.63,16.49L232.78,17.22L233.36,39.7L233.51,47.83L235.7,163.46L235.85,163.45L242.72,162.7L242.87,159.96L243.45,129.09L243.6,116.7L245.65,16.42L245.79,16.43L246.82,17.48L246.96,20.28L248.13,83.52L248.28,95.83L249.74,163.45L249.89,163.46L256.76,162.85L256.91,160.6L257.34,144.3L257.49,131.83L259.54,18.36L259.68,16.44L260.56,16.47L260.71,16.51L261,21.6L261.15,27.53L262.17,86.25L262.32,98.38L263.78,163.46L263.92,163.46L270.65,163.29L270.8,162.4L271.67,121.97L271.82,99.92L271.97,99.9L272.11,84.91L273.57,20.47L273.72,21.58L274.45,16.64L274.6,18.56L274.74,16.95L275.04,21.39L275.18,27.53L276.35,100.22L276.5,113.19L277.82,163.45L277.96,163.45L284.83,163.08L284.98,162.28L285.56,133.98L285.71,121.33L287.17,28.17L287.32,63.13L288.34,17.62L288.49,21.7L288.64,16.5L289.07,21.96L289.22,26.98L290.1,75.55L290.24,87.75L291.56,163.46L291.85,163.45L292,163.45L299.16,162.96L299.31,159.54L301.21,64.93L301.36,70.63L301.65,72.27L301.79,38.58L301.94,67.51L302.09,99.71L303.26,17.55L303.4,24.42L304.28,116.41L304.43,95.19L305.3,163.33L305.45,163.42L308.37,163.45L308.52,163.45L312.76,163.36L312.91,161.82L314.37,80.79L314.52,50.99L315.69,16.19L316.27,16.29L316.42,16.43L317,16.29L317.15,17.4L318.17,75.22L318.32,88.3L319.78,163.45L319.93,163.45L326.94,163.08L327.09,161.32L327.53,146.48L327.68,134.59L329.58,16.07L329.72,16.29L330.6,16.17L330.75,16.19L331.18,16.38L331.33,19.25L332.5,97.64L332.65,110.94L333.67,163.46L333.82,163.45L333.96,163.45L340.98,162.99L341.13,161.44L341.57,146.9L341.71,135.34L343.76,20.05L343.91,17.02L344.05,16.23L344.64,16.41L344.78,16.42L345.08,17.2L345.22,20.34L346.25,79.93L346.39,91.47L348,163.46L348.15,163.45L355.02,163.05L355.16,160.89L355.6,146.74L355.75,135.89L357.65,29.51L357.8,27.37L358.67,16.16L358.82,16.31L359.41,28.96L359.55,36.31L360.57,105.55L360.72,119.06L361.89,163.46L362.04,163.45L369.06,163.01L369.2,160.49L370.08,115.49L370.23,104.61L371.83,24.36L371.98,21.85L372.71,17.76L372.86,18.41L373,18.92L373.59,37.56L373.73,44.65L376.07,163.46L376.22,163.44L383.09,163.14L383.24,161.85L383.82,138.07L383.97,125.52L385.87,25.08L386.02,21.93L386.6,16.75L386.75,23.74L387.04,17.18L387.33,22.93L387.48,29.18L389.53,163.27L389.67,163.44L395.37,163.45L395.52,163.45L397.13,163.13L397.28,162.05L397.86,138.84L398.01,126.49L399.91,25.6L400.05,22.66L400.64,16.76L400.78,19.66L400.93,20.63L401.08,20.72L401.22,23.11L402.39,83.93L402.54,96.32L404,163.46L404.15,163.46L411.17,163.11L411.31,160.59L412.48,101.35L412.63,86.81L414.09,24.52L414.24,23.26L414.97,19.21L415.11,21.11L415.26,23.31L415.99,54.07L416.14,62.86L418.04,163.46L418.18,163.46L425.2,163.14L425.35,162.35L425.93,139.73L426.08,127.26L427.98,29.82L428.13,25.36L428.27,22.71L428.42,45.81L428.57,22.96L428.86,62.09L429.01,83.38L429.15,78.21L429.3,102.78L429.59,63.77L429.88,77.2L430.03,113.41L430.32,128.67L430.47,112.28L430.61,99.45L431.78,163.46L431.93,163.46L435,163.45" style="vector-effect: non-scaling-stroke; fill: none; stroke: rgb(255, 0, 0); stroke-opacity: 1; stroke-width: 2px; opacity: 1;"/></g><g class="points"/><g class="text"/></g><g class="trace scatter traceadae06" style="stroke-miterlimit: 2; opacity: 1;"><g class="fills"/><g class="errorbars"/><g class="lines"><path class="js-line" d="M0,205.5L0.73,186.88L0.88,189.09L1.02,186.71L1.75,189.24L1.9,185.96L2.05,186.45L2.19,250.07L2.92,185.03L3.07,249.71L3.36,186.45L3.66,262.82L3.95,188.28L4.09,186.38L4.39,206.46L4.83,194.18L4.97,175.67L5.7,139L5.85,120.97L6.43,51.21L6.58,53.62L6.73,112.57L6.87,132.08L7.02,69.3L7.16,65.84L7.46,82.91L7.75,74.37L7.9,68.94L8.04,68.88L8.19,63.68L8.33,60.74L8.63,62.3L8.77,71.59L9.94,168.8L10.09,243.18L10.38,280.12L10.67,220.5L10.82,224.15L11.84,192.61L11.99,201.56L12.14,200.86L12.28,194.2L13.45,187.01L13.6,190.95L13.89,186.57L14.33,187.54L14.48,188.47L14.77,198.55L15.06,190.76L15.21,186.92L15.5,190.23L15.79,185.11L15.94,187.69L16.82,185.4L16.96,186.66L17.11,189.06L17.25,247.12L17.4,264.77L17.55,264.35L17.69,200.22L17.84,186.89L18.57,187.44L18.72,185.54L19.45,139.38L19.59,127.9L20.32,69.94L20.47,127.62L20.76,146.03L20.91,91.07L21.79,58.66L21.93,65.35L22.08,55.78L23.25,127.97L23.39,138.41L23.98,244.8L24.27,190.99L24.42,200.23L24.56,194.18L24.86,213.52L25,212.18L25.15,212.31L25.3,211.23L25.44,213.05L25.59,208.24L25.73,204.55L26.61,190.06L26.76,193.18L27.78,188.1L27.93,190.9L28.51,186.37L28.81,187.74L28.95,186.48L29.1,190.3L29.54,185.12L29.68,189.59L29.83,187.16L30.27,188.5L30.41,184.87L30.56,186.63L30.71,249.48L31.58,184.85L31.73,187.48L32.31,211.13L32.46,272.32L33.48,126.05L33.63,116.68L34.8,79.8L34.95,97.68L35.24,174.74L35.68,99.68L35.82,97.83L36.12,94.99L36.55,106.49L36.7,103.14L37.14,112.26L37.29,128.81L37.72,138.49L37.87,156.09L39.48,214.86L39.63,210.96L39.77,215.18L40.21,212.86L40.36,204.61L40.5,212.12L40.94,199.16L41.09,192.83L41.23,196.66L41.53,192.46L41.82,192.84L41.96,191.93L42.11,191.84L42.26,194.1L42.55,189.15L43.13,190.62L43.28,187.59L43.43,190.76L43.57,187.16L43.87,188.78L44.01,186.87L44.16,187.3L44.3,187.22L44.45,197.06L44.6,201.26L44.89,190.27L45.04,186.51L45.18,248.06L45.91,246.44L46.06,264.19L46.21,263.5L46.35,198.09L47.37,141.85L47.52,145.15L48.69,73.09L48.84,86.6L48.98,96.5L49.71,130.59L50.01,116.99L50.15,107.49L50.3,109.31L50.45,93.97L50.59,93.23L50.74,95.02L50.88,110.52L51.32,143.28L51.47,156.18L52.78,204.25L52.93,202.1L53.22,201.14L53.66,210.81L53.81,207.76L53.95,271.22L54.1,292.32L54.25,232.76L54.39,216.45L55.27,200.22L55.42,204.4L55.71,199.14L56.29,200.99L56.44,201.19L56.59,203.63L56.88,197.95L57.03,200.5L57.17,200.48L57.76,185.54L58.05,187.55L58.19,187.18L58.49,184.9L58.78,192.48L58.93,186.89L59.22,188.69L59.66,185.42L59.8,186.67L59.95,186.88L60.1,185.7L60.24,185.18L60.39,244.21L61.41,136.99L61.56,138.27L62.58,110.88L62.73,171.8L63.61,88.9L63.75,150.93L63.9,157.45L64.04,87.83L64.19,82.19L64.48,98.77L64.63,104.46L64.92,196.8L65.36,133.41L65.51,143.75L65.94,153.64L66.09,171.89L66.82,216.53L67.11,213.7L67.26,211.26L67.7,219.47L67.85,218.9L67.99,225.57L68.58,215.58L68.87,217.16L69.02,215.01L69.45,199.91L69.89,201.85L70.04,200.87L70.18,201.37L70.33,193.51L71.21,189.39L71.35,189.19L71.65,201.01L72.09,188.57L72.23,189.09L72.38,189.59L72.52,187.71L72.67,188.4L72.82,251.65L73.26,187.57L73.4,249.62L73.55,268.34L73.84,187.27L74.43,191.01L74.57,186.25L75.01,265.67L75.3,180.38L75.45,250.66L75.59,247.34L75.89,262.75L76.03,176.79L76.62,70.46L76.76,127.24L76.91,157.26L77.06,159.11L77.2,99.73L77.5,72.58L77.93,92.76L78.08,85.03L78.23,93.44L78.37,84.88L78.67,86.21L78.81,150.54L79.1,197.3L79.4,141.02L79.54,154.25L79.69,168.23L81.01,247.15L81.15,234.44L81.3,223.33L81.44,223.43L81.59,216.1L82.47,192.24L82.61,193.03L82.76,195.25L83.2,190.91L83.34,191.73L83.49,195.41L83.78,187.11L83.93,194.92L84.08,187.64L84.22,187.73L84.37,193.02L84.51,187.18L85.1,191.78L85.25,188.15L85.68,190.45L85.83,187.29L85.98,190.52L86.42,187.02L86.56,188.08L86.71,189.1L86.85,185.6L87,190.04L87.44,186.32L87.58,187.71L88.02,189.11L88.32,184.8L88.46,185.64L88.61,185.42L89.19,157.21L89.34,219.96L90.36,108.04L90.51,118.18L90.66,117.45L90.8,103.61L90.95,110.3L91.09,74.38L92.12,163.53L92.26,102.56L92.85,90.31L92.99,96.99L93.14,120.64L94.02,184.54L94.16,179.35L94.31,207.29L95.04,222.33L95.33,220.98L95.48,207.75L95.63,207.79L95.77,204.9L96.36,210.76L96.5,198.42L96.8,204.38L96.94,197.39L97.09,201.42L97.24,195.48L97.38,198.82L97.53,190.25L97.67,190.44L97.82,192.39L97.97,193.6L98.11,192.1L98.26,189.84L98.55,190.41L98.7,187.12L98.84,192.48L99.87,188.09L100.01,188.18L100.16,188.85L100.31,186.48L100.45,199.56L100.6,198.34L100.74,189.04L100.89,189.88L101.04,184.87L101.18,188.98L101.33,187.58L101.48,246.99L101.62,266.02L101.91,263.89L102.06,202.45L102.35,185.33L102.5,243.13L102.65,254.37L102.79,208.61L104.4,82.67L104.55,142.61L104.69,157.73L104.84,88.69L105.42,61.74L105.72,62.18L105.86,68.56L106.74,186.29L106.89,181.74L107.03,109.35L107.18,99.3L107.32,123.5L107.47,133.79L108.2,182.78L108.35,196.99L108.64,297.2L109.08,219.42L109.23,222.45L109.66,203.92L110.25,206.21L110.39,206.53L112.44,189.5L112.59,193.88L113.17,186.66L113.32,188.37L113.47,192.97L114.34,187.57L114.49,188.63L114.64,186.36L114.78,249.82L114.93,264.33L115.07,202.18L115.37,263.17L115.66,189.95L115.81,187.97L116.1,265.99L116.54,261.66L116.68,192.21L117.85,120.49L118,124.99L118.73,84.89L119.02,95.13L119.17,151.17L119.31,158.81L119.46,87.02L119.75,179.67L120.05,86.07L120.19,88.88L120.34,90.53L120.48,91.74L120.63,152.5L120.78,176.9L120.92,114.95L121.07,101.65L122.09,172.22L122.24,255.95L122.53,285.91L122.82,220.61L122.97,227.98L124.29,197.78L124.43,201.54L125.31,191.95L125.46,195.6L125.89,188.29L126.33,191.02L126.48,189.91L126.63,190.01L126.77,191.75L127.5,186.18L127.65,188.14L127.79,250.02L128.38,187.5L128.67,196.4L128.82,190.6L128.96,189.18L129.11,193.65L129.26,207.31L129.4,211.44L129.7,198.56L129.84,189.13L130.13,185.23L130.28,248.35L130.43,265.75L130.57,208.18L130.72,188.47L130.87,194.52L131.01,249L131.16,262.86L131.3,216.55L131.45,203.13L133.35,65.89L133.5,69.72L133.64,59.55L133.94,77.24L134.08,150.03L134.37,196.05L134.52,121.78L134.67,110.16L134.81,112.59L134.96,189L135.11,201.83L135.25,193.45L135.4,132.6L135.54,133.15L135.69,151.29L136.42,205.1L136.57,229.25L137.74,198.85L137.88,199.49L138.03,199.19L138.18,197.06L138.32,197.94L138.47,194.69L138.62,197.39L138.76,193.25L139.2,190.99L139.35,195.64L139.64,189.56L140.22,189.89L140.37,190.44L140.52,190.26L140.66,188.29L140.81,187.03L141.1,189.53L141.25,189.89L141.69,187.94L141.83,189.1L141.98,189.54L142.56,187.2L142.71,187.8L142.86,190.62L143,185.61L143.44,187.06L143.59,195.46L143.88,209.8L144.32,198.14L144.46,188.12L145.19,275.77L145.34,229.38L145.63,304L145.93,207.99L146.07,201.62L147.1,162.26L147.24,214.37L147.39,211.21L147.53,135.78L147.68,96.64L147.97,154.58L148.12,214.64L148.7,132.41L148.85,154.31L149,178.11L149.29,209.08L149.73,196.49L149.87,191.46L150.31,187.06L150.46,195.25L150.61,204.31L150.75,208.9L151.19,208.2L151.34,198.77L151.63,191.51L151.92,203.62L152.07,203.12L152.65,201.46L152.8,200.04L152.94,202.24L153.09,191.5L153.68,186.47L153.82,188.12L153.97,189.64L154.26,185.05L154.41,190.04L154.7,186.41L154.85,188.4L155.14,186L155.43,190.16L155.58,249.72L156.31,185.62L156.45,187.34L156.6,187.12L156.75,185.68L157.48,185.79L157.62,188.69L158.06,185.47L158.35,187.11L158.5,246.84L159.52,179.5L159.67,244.75L159.82,257.43L159.96,194.36L161.43,67.61L161.72,79.92L161.86,152L162.01,187.91L162.45,158.12L162.59,94.57L163.03,87.49L163.18,101.78L163.33,102.13L165.08,201.83L165.23,197.81L165.37,201.69L165.81,193.21L165.96,195.35L166.1,197.46L166.54,193.76L166.69,191.82L166.98,192.79L167.13,189.73L167.27,189.05L167.42,192.6L168.3,187.15L168.44,186.63L168.59,190.21L168.74,185.39L169.17,186.37L169.32,185.92L169.47,188.4L169.61,184.96L170.05,187.38L170.2,186.22L170.34,184.55L170.49,196.29L170.78,195.76L171.08,199.77L171.22,188.24L171.81,184.41L171.95,184.68L172.1,186.04L172.25,187.49L172.39,183.83L172.54,194.72L172.68,208.55L173.27,206.49L173.42,195.12L174.58,150.86L174.73,195.52L175.61,62.54L175.75,63.67L175.9,75.29L176.05,85.4L176.19,146.76L176.49,89.47L176.78,159.97L176.92,169.41L177.07,166.42L177.22,190.3L177.36,139.28L177.8,156.67L177.95,219.67L178.09,250.54L178.53,189.95L178.68,198.87L179.26,210.08L179.56,206.45L179.7,204.54L179.85,204.57L179.99,202.57L180.14,204.68L180.43,200.17L180.58,201.55L180.73,199.98L181.02,201.54L181.16,196.95L181.31,196.55L181.46,201.06L182.33,186.39L182.48,189.6L182.63,189.05L182.77,184.45L183.07,189.77L183.36,185.11L183.5,189.47L184.24,184.77L184.38,188.54L184.82,186.7L185.11,186.88L185.26,187.54L185.55,184.97L185.7,188.82L185.84,194.85L186.14,199.04L186.28,189.56L186.43,184.89L186.72,196.87L186.87,197.19L187.01,193.15L187.31,195.82L187.45,261.88L187.6,277.28L187.74,224.94L188.04,274.49L188.18,210.07L188.62,175.94L188.77,230.06L188.91,243.21L189.06,173.24L190.23,79.01L190.38,72.82L190.52,79.88L190.67,72.92L190.82,149.07L191.25,179.24L191.4,126.29L191.55,120.07L191.69,128.38L191.84,142.05L193.59,196.92L193.74,188.84L194.18,195.58L194.32,188.34L194.62,195.32L194.76,187.63L194.91,185.81L195.06,188.93L195.2,187.06L195.35,193.34L196.37,185.17L196.52,187.8L196.66,190.89L196.96,185.53L197.25,187.61L197.39,186.18L197.54,190.63L198.13,185.94L198.27,188L198.71,185.06L199,188.11L199.15,187.62L199.3,189.52L199.44,187.48L199.59,247.11L200.03,184.99L200.47,195.18L200.61,197.27L200.9,273.58L201.2,194.88L201.34,181.22L201.64,171.49L201.78,178.22L201.93,186.89L202.07,187.35L202.22,186.05L202.37,177.66L202.66,163.51L202.81,173.46L202.95,182.03L203.1,192.53L203.54,174.23L203.68,158.1L204.12,118.56L204.27,188.24L204.56,203.53L204.71,147.48L205.14,133.18L205.29,163.65L205.44,170.46L205.58,165.84L206.02,173.91L206.17,183.86L206.46,187.06L206.61,194.21L206.75,202.34L207.05,189.86L207.19,192.44L207.34,189.18L208.07,202.64L208.22,201.14L208.36,199.05L209.38,185.39L209.53,187.45L209.68,185.72L209.97,186.97L210.12,189.87L210.85,185.3L210.99,185.55L211.14,188.1L211.29,187.85L211.43,185.66L211.72,188.57L211.87,186.43L212.02,185.38L212.31,188.9L212.46,194.16L212.6,196.56L212.75,259.62L213.33,185.38L213.63,186.66L213.77,187.49L214.06,186.4L214.21,194.71L214.65,271.8L214.79,224.04L214.94,198.15L215.67,167.71L215.82,224.21L216.26,146.69L216.7,152.4L216.84,137.82L216.99,130.01L217.28,146.99L217.43,153.43L217.87,180.06L218.3,114.77L218.45,119.07L218.6,129.15L218.74,115.02L218.89,192.34L219.04,222.32L219.33,159.2L219.47,162.46L219.62,158.89L220.64,184.52L220.79,251.23L220.94,269.63L221.08,268.37L221.23,206.53L221.96,189.13L222.11,192.21L222.25,192.39L222.4,189.47L222.54,188.93L222.69,195.33L222.84,195.88L222.98,190.19L223.28,187.84L223.42,185.47L223.57,185.57L223.71,189.5L224.01,185.11L224.59,186.51L224.74,187.58L225.47,185.22L225.62,185.95L225.76,186.13L225.91,186.39L226.05,185.66L226.2,185.9L226.35,185.37L226.49,185.55L226.64,184.86L226.93,185.04L227.08,184.91L227.37,185.43L227.66,184.76L227.81,184.58L228.1,184.86L228.25,193.97L228.39,196.09L228.54,186.92L228.69,185.44L228.83,259.67L229.56,261.21L229.86,159.76L230,142.4L230.88,81.05L231.03,82.19L231.17,70.89L231.46,51.44L231.9,64.81L232.05,72.41L232.63,78.45L232.93,64.8L233.07,82.73L233.22,90.72L233.36,160.58L233.66,192.14L233.95,134.2L234.1,161.37L234.24,163.59L235.12,201.73L235.56,200.68L235.7,194.65L235.85,200.01L236,192.61L236.44,195.14L236.58,192.32L236.73,195.96L237.02,188.19L237.31,193.02L237.46,188.93L237.9,190.31L238.04,185.01L238.19,187.83L238.34,197.59L238.48,195.6L238.63,199.29L239.07,197.33L239.21,200.01L240.24,184.94L240.53,185.06L240.68,186.15L240.97,186.47L241.11,184.65L241.26,186.31L241.41,194.1L241.55,197.36L241.7,195.19L241.85,248.58L241.99,202.26L242.28,261.13L242.72,205.82L242.87,205.98L243.75,141.01L243.89,131.56L244.04,124.65L244.18,181.19L244.33,191.5L244.48,134.12L245.21,70.53L245.35,81.4L245.5,133.71L245.65,146.74L245.79,78.27L245.94,63.53L246.09,78.92L246.38,76.61L246.52,84.82L247.99,146.42L248.13,219.77L248.28,248.42L248.43,201.36L248.86,223.4L249.01,225.45L249.16,221.78L249.3,288.04L249.45,302.51L249.59,297.12L249.74,230.02L250.47,206.1L250.62,206.58L250.76,210.56L251.35,200.66L251.64,200.98L251.79,200.67L251.93,204.25L252.08,197.46L252.37,202.15L252.52,199.42L253.4,186.58L253.54,188.67L253.98,189L254.13,184.66L254.57,185.51L254.71,247.77L254.86,262.87L255.01,202.34L255.3,184.55L255.74,185.3L255.88,193.84L256.17,197.51L256.32,195.99L256.47,248.76L256.61,271.99L256.76,212.04L256.91,196.23L257.05,195.13L257.2,206.21L259.1,89.35L259.25,91.27L259.83,71.27L260.12,75.5L260.27,82.38L261.29,105.3L261.44,108.12L262.02,145.04L262.17,165.65L262.75,228.39L262.9,242.09L263.05,250.85L263.34,237.58L263.49,242.57L263.63,237.41L263.78,226.02L263.92,268.36L264.07,278.9L264.95,195.64L265.09,194.39L265.24,199.61L265.39,191.51L265.68,194.65L265.83,192.86L266.12,191.16L266.41,193.6L266.56,189.91L266.99,201.89L267.58,199.67L267.73,198.21L268.16,201.12L268.31,191.25L269.04,185.37L269.19,187.49L269.33,187.17L269.48,184.95L270.07,196.97L270.21,188.46L270.36,187.15L270.5,246.55L270.65,263.82L270.8,201.27L270.94,191.88L271.09,191.52L271.24,193.89L271.38,195L271.53,174.87L271.82,148.87L271.97,215.41L272.26,208.93L272.41,137.8L272.7,200.14L272.99,119.07L273.14,108.02L273.28,114.87L273.57,101.76L273.72,93.87L273.87,94.13L274.01,97.38L274.16,108.51L274.45,92.96L274.6,97.43L274.74,92.91L275.04,109.27L275.33,96.83L275.48,166.29L275.77,196.19L275.91,136.69L276.06,134.21L276.21,157.4L276.35,156.65L276.5,169.65L277.82,293.08L277.96,226.02L278.98,195.88L279.13,195.83L279.57,191.26L279.86,194.05L280.01,193.2L280.3,200.93L280.89,198.51L281.03,189.53L281.47,190.39L281.91,186.35L282.06,187.11L282.2,186.42L282.35,186.86L282.49,189.28L283.23,185.04L283.37,186.54L283.96,185.36L284.1,186.64L284.25,184.6L284.54,186.4L284.69,185.8L284.83,198.47L284.98,205.85L285.13,265.82L285.27,273.11L285.42,204.78L286.44,134.98L286.59,194.93L286.73,188.63L286.88,124.51L287.17,84.1L287.32,117.56L288.05,71.39L288.64,73.8L288.78,71.46L289.51,194.09L289.66,138.83L289.95,135.21L290.1,143.56L290.24,148.26L291.41,223.02L291.85,220.12L292,217.49L293.46,198.75L293.61,199.06L293.75,202.82L294.63,195.73L294.78,202.31L295.22,186.18L295.8,189.38L295.95,188.01L296.09,190.7L296.38,185.04L296.53,188.11L296.68,186.42L297.26,185.38L297.55,199.44L297.7,187.03L297.85,185.83L297.99,251.28L298.14,263.52L298.29,204.26L298.43,186.12L299.02,198.87L299.16,193.24L300.48,124.31L300.63,134.36L300.77,134.54L301.06,119.14L301.21,176.68L301.36,201.23L301.65,135.43L301.79,107.97L302.09,165.78L302.67,146.73L302.82,137.61L303.26,64.44L303.55,92.22L303.7,141.17L303.84,131.6L304.13,155.2L304.28,153.14L304.43,134.63L304.57,239.6L304.87,270.32L305.01,269.1L305.16,212.78L305.6,196.45L305.89,207.01L306.04,209.1L307.06,205.78L307.21,194.92L307.79,195.11L308.08,190.75L308.23,188.07L308.52,184.69L308.67,185.52L308.81,188.87L308.96,184.74L309.54,185.14L309.69,186.04L309.84,188.53L309.98,185.35L310.28,186.23L310.42,185.54L310.71,184.88L311.3,187.47L311.45,185.4L311.59,184.94L311.74,185.26L311.88,194.44L312.03,197.15L312.32,196.13L312.47,187.38L313.78,166.3L313.93,209.16L314.08,226.89L314.22,160.2L314.37,123.24L315.25,51.09L315.39,51.91L315.54,51.04L315.69,50.4L315.83,50.82L315.98,57.87L316.56,75.12L316.71,125.7L316.86,138.79L317,75.27L317.15,73.59L317.29,78.54L317.44,76.32L317.59,80.93L318.76,189.58L318.9,188.43L319.05,190.43L319.78,202.74L319.93,194.85L320.95,202.34L321.1,197.49L321.39,189.33L321.53,186.16L321.97,187.17L322.27,184.81L322.41,185.23L322.7,184.72L323.14,186.48L323.29,184.98L324.46,184.86L324.61,184.57L324.9,184.81L325.04,184.37L325.34,184.72L325.48,185.02L326.21,184.25L326.36,193.53L326.51,266.42L327.09,194.87L327.24,192.53L327.82,165.16L327.97,152.86L328.41,133.21L328.55,192.87L328.7,210.99L329.14,177.03L329.28,109.18L330.16,42.48L330.31,51.02L330.6,70.07L331.04,53.31L331.18,49.91L331.92,84.93L332.06,99.15L332.65,140.61L332.79,161.67L333.67,192.84L333.82,191.2L333.96,190.6L334.69,187.1L334.84,188.83L334.99,188.55L335.86,184.99L336.01,184.84L336.3,186.84L336.45,186.32L336.59,184.96L336.74,185.6L337.33,185.05L337.47,184.96L338.5,184.63L338.64,184.47L339.37,184.9L339.52,184.38L339.81,185.03L339.96,184.85L340.1,246.09L340.69,248.2L340.98,184.98L341.13,183.98L341.71,159.31L341.86,146.03L343.17,99.41L343.32,98.53L344.05,68.23L344.34,78.35L344.49,138.14L345.08,76.19L345.37,85.39L345.51,91.25L345.81,95.96L345.95,108.41L347.42,204.13L347.71,201.99L347.85,202.62L348.58,198.11L348.73,200.34L348.88,192.2L349.61,184.8L349.75,186.33L349.9,186.63L350.49,184.51L350.78,185.24L350.92,187.68L351.07,184.53L351.66,184.89L351.8,185.48L352.53,184.59L352.83,184.9L352.97,246.58L353.12,261.52L353.26,200.29L353.41,184.97L353.85,195.84L353.99,204.55L355.16,183.64L355.31,181.33L355.75,159.76L355.9,147.25L356.92,65.06L357.36,70.84L357.5,80.98L357.65,70.43L357.8,90.09L357.94,78.28L358.09,146.74L358.24,153.65L358.38,84.97L358.53,69.5L359.11,81.13L359.26,147.52L359.41,168.98L359.7,103.86L359.84,106.66L360.14,116.71L360.28,186.04L361.01,276.06L361.16,221.56L361.31,212.28L361.74,213.88L362.04,203.81L362.18,198.69L362.33,201.94L362.48,197.94L362.91,199.93L363.06,197.55L363.21,198.19L363.5,196.57L363.79,198.02L363.94,197.43L364.08,194.56L364.38,197.82L364.67,196.87L364.82,194.89L365.11,197.02L365.55,195.56L365.69,194L366.57,185.21L366.72,185.85L366.86,186.2L367.01,248.15L367.45,185.13L367.89,185.37L368.03,185.15L368.18,185.4L368.32,185.24L368.47,194.31L368.76,196.87L368.91,187.82L369.49,170.45L369.64,159.59L369.79,160.56L369.93,167.19L370.81,104.1L370.96,147.79L371.39,80.21L371.69,148.56L371.83,83.73L371.98,150.71L372.13,171.59L372.27,162.12L372.42,98.54L373,72.3L373.3,85.4L373.44,82.5L374.17,138.93L374.32,214.8L374.61,255.48L374.9,198.1L375.05,218.32L375.2,226.34L375.34,225.47L375.49,225.78L375.64,212.91L376.95,196.62L377.1,198.38L377.24,195.74L378.41,185L378.56,185.74L378.71,188.78L378.85,185.5L379.58,185.61L379.73,186.03L380.02,185.51L380.17,186.06L380.31,186.92L380.9,184.78L381.19,185.22L381.34,184.94L381.63,185.56L382.07,185.04L382.22,185.39L382.36,184.98L382.51,246.99L382.65,271.2L382.8,211.43L382.95,187.19L383.24,185.22L383.38,188.38L383.53,198.55L384.26,147.69L384.41,200.96L384.55,206.69L384.7,134.15L386.16,63.26L386.31,78.18L386.46,78.71L386.6,75.22L387.19,74.39L387.77,138.25L387.92,163.84L388.79,285.5L388.94,221.24L389.09,206.56L389.23,207.86L389.38,203.83L389.67,205.88L389.82,191.48L390.11,193.32L390.26,190.45L390.4,192.19L390.55,191.22L390.7,192.47L390.84,188.73L391.13,190.94L391.28,188.74L392.01,185.38L392.16,188.46L392.89,184.75L393.04,185.1L393.18,186.68L393.47,184.68L393.77,185.19L393.91,186.59L394.35,184.71L394.79,184.96L394.94,184.58L395.08,246.63L395.67,194.12L395.81,204.62L396.25,218.23L396.54,206.85L396.69,198.28L396.84,186.86L396.98,246.31L398.15,139.57L398.3,124.98L399.03,78.09L399.18,132.41L399.32,143.68L399.76,133.47L399.91,128.51L400.05,127.42L400.2,63.88L400.35,54.85L400.93,63.17L401.08,65.71L401.37,63.94L401.66,78.91L401.81,160.34L402.1,186.68L402.39,135.03L402.54,150.69L403.42,226.84L403.71,216.83L403.86,217.8L404.44,193.87L404.59,254L404.88,269.13L405.03,206.37L405.76,185.47L405.9,188.77L406.05,186.56L406.49,187.11L406.63,185.22L406.78,187.51L407.22,185.09L407.51,185.94L407.66,186.59L408.53,185.05L408.68,184.73L409.56,185.18L409.7,184.62L410.58,185.26L410.73,184.73L411.02,185.46L411.17,203.24L411.31,266.63L411.75,206.72L411.9,175.51L412.19,211.36L412.48,133.43L412.63,121.26L413.21,82.72L413.51,95.5L413.65,102L413.8,104.86L413.94,99.83L414.09,87.05L414.24,89.37L414.38,78.12L414.68,54.6L415.11,71.03L415.26,131.21L415.41,152.08L415.7,91.59L415.85,97.09L415.99,98.36L416.14,176.09L416.28,212L416.58,156.98L416.87,176.92L417.02,193.39L417.75,204.02L417.89,201.43L418.04,205.29L418.18,203.71L418.33,209.28L418.48,211.31L419.06,198.92L419.35,202.28L419.5,200.07L419.79,197.45L420.09,200.12L420.23,187.22L420.67,187.55L420.82,185.72L421.55,186.96L421.69,185.09L421.84,186.66L422.43,185.12L422.57,184.66L423.01,185.22L423.45,184.98L423.59,184.78L424.33,270.52L424.47,211.44L424.91,184.64L425.35,194.03L425.5,191.49L425.64,198.94L425.93,184.24L426.08,163.21L427.25,92.6L427.4,149.34L427.54,150.1L427.69,149.23L427.84,145.86L428.13,60.04L428.71,77.5L428.86,124.18L429.3,157.42L429.74,152.7L429.88,129.72L430.32,171.73L430.76,163.35L430.91,160.93L431.64,194.88L431.93,192.51L432.08,193.62L432.37,189.38L432.51,200.67L432.66,205.19L433.25,202.83L433.39,199.92L433.54,199.41L433.68,192.4L434.42,185.09L434.56,187.61L434.71,187.87L434.85,186.67L435,185.27" style="vector-effect: non-scaling-stroke; fill: none; stroke: rgb(0, 128, 0); stroke-opacity: 1; stroke-width: 2px; opacity: 1;"/></g><g class="points"/><g class="text"/></g></g></g><g class="overplot"/><path class="xlines-above crisp" d="M0,0" style="fill: none;"/><path class="ylines-above crisp" d="M0,0" style="fill: none;"/><g class="overlines-above"/><g class="xaxislayer-above"><g class="xtick"><text text-anchor="middle" x="0" y="433" transform="translate(94.03999999999999,0)" style="font-family: 'Open Sans', verdana, arial, sans-serif; font-size: 12px; fill: rgb(42, 63, 95); fill-opacity: 1; white-space: pre; opacity: 1;"><tspan class="line" dy="0em" x="0" y="433">Oct 2</tspan><tspan class="line" dy="1.3em" x="0" y="433">2022</tspan></text></g><g class="xtick"><text text-anchor="middle" x="0" y="433" style="font-family: 'Open Sans', verdana, arial, sans-serif; font-size: 12px; fill: rgb(42, 63, 95); fill-opacity: 1; white-space: pre; opacity: 1;" transform="translate(192.3,0)">Oct 9</text></g><g class="xtick"><text text-anchor="middle" x="0" y="433" style="font-family: 'Open Sans', verdana, arial, sans-serif; font-size: 12px; fill: rgb(42, 63, 95); fill-opacity: 1; white-space: pre; opacity: 1;" transform="translate(290.55,0)">Oct 16</text></g><g class="xtick"><text text-anchor="middle" x="0" y="433" style="font-family: 'Open Sans', verdana, arial, sans-serif; font-size: 12px; fill: rgb(42, 63, 95); fill-opacity: 1; white-space: pre; opacity: 1;" transform="translate(388.81,0)">Oct 23</text></g><g class="xtick"><text text-anchor="middle" x="0" y="433" style="font-family: 'Open Sans', verdana, arial, sans-serif; font-size: 12px; fill: rgb(42, 63, 95); fill-opacity: 1; white-space: pre; opacity: 1;" transform="translate(487.07,0)">Oct 30</text></g></g><g class="yaxislayer-above"><g class="ytick"><text text-anchor="end" x="79" y="4.199999999999999" transform="translate(0,417.38)" style="font-family: 'Open Sans', verdana, arial, sans-serif; font-size: 12px; fill: rgb(42, 63, 95); fill-opacity: 1; white-space: pre; opacity: 1;">−100</text></g><g class="ytick"><text text-anchor="end" x="79" y="4.199999999999999" style="font-family: 'Open Sans', verdana, arial, sans-serif; font-size: 12px; fill: rgb(42, 63, 95); fill-opacity: 1; white-space: pre; opacity: 1;" transform="translate(0,340.32)">−50</text></g><g class="ytick"><text text-anchor="end" x="79" y="4.199999999999999" style="font-family: 'Open Sans', verdana, arial, sans-serif; font-size: 12px; fill: rgb(42, 63, 95); fill-opacity: 1; white-space: pre; opacity: 1;" transform="translate(0,263.26)">0</text></g><g class="ytick"><text text-anchor="end" x="79" y="4.199999999999999" style="font-family: 'Open Sans', verdana, arial, sans-serif; font-size: 12px; fill: rgb(42, 63, 95); fill-opacity: 1; white-space: pre; opacity: 1;" transform="translate(0,186.2)">50</text></g><g class="ytick"><text text-anchor="end" x="79" y="4.199999999999999" style="font-family: 'Open Sans', verdana, arial, sans-serif; font-size: 12px; fill: rgb(42, 63, 95); fill-opacity: 1; white-space: pre; opacity: 1;" transform="translate(0,109.14)">100</text></g></g><g class="overaxes-above"/></g></g><g class="polarlayer"/><g class="smithlayer"/><g class="ternarylayer"/><g class="geolayer"/><g class="funnelarealayer"/><g class="pielayer"/><g class="iciclelayer"/><g class="treemaplayer"/><g class="sunburstlayer"/><g class="glimages"/><defs id="topdefs-830cc6"><g class="clips"/><clipPath id="legend830cc6"><rect width="164" height="67" x="0" y="0"/></clipPath></defs><g class="layer-above"><g class="imagelayer"/><g class="shapelayer"/></g><g class="infolayer"><g class="legend" pointer-events="all" transform="translate(523.7,100)"><rect class="bg" shape-rendering="crispEdges" width="164" height="67" x="0" y="0" style="stroke: rgb(68, 68, 68); stroke-opacity: 1; fill: rgb(255, 255, 255); fill-opacity: 1; stroke-width: 0px;"/><g class="scrollbox" transform="" clip-path="url(#legend830cc6)"><g class="groups"><g class="traces" transform="translate(0,14.5)" style="opacity: 1;"><text class="legendtext" text-anchor="start" x="40" y="4.680000000000001" style="font-family: 'Open Sans', verdana, arial, sans-serif; font-size: 12px; fill: rgb(42, 63, 95); fill-opacity: 1; white-space: pre;">BESS</text><g class="layers" style="opacity: 1;"><g class="legendfill"/><g class="legendlines"><path class="js-line" d="M5,0h30" style="fill: none; stroke: rgb(0, 191, 255); stroke-opacity: 1; stroke-width: 2px;"/></g><g class="legendsymbols"><g class="legendpoints"/></g></g><rect class="legendtoggle" x="0" y="-9.5" width="158.71875" height="19" style="fill: rgb(0, 0, 0); fill-opacity: 0;"/></g><g class="traces" transform="translate(0,33.5)" style="opacity: 1;"><text class="legendtext" text-anchor="start" x="40" y="4.680000000000001" style="font-family: 'Open Sans', verdana, arial, sans-serif; font-size: 12px; fill: rgb(42, 63, 95); fill-opacity: 1; white-space: pre;">Solar</text><g class="layers" style="opacity: 1;"><g class="legendfill"/><g class="legendlines"><path class="js-line" d="M5,0h30" style="fill: none; stroke: rgb(255, 0, 0); stroke-opacity: 1; stroke-width: 2px;"/></g><g class="legendsymbols"><g class="legendpoints"/></g></g><rect class="legendtoggle" x="0" y="-9.5" width="158.71875" height="19" style="fill: rgb(0, 0, 0); fill-opacity: 0;"/></g><g class="traces" transform="translate(0,52.5)" style="opacity: 1;"><text class="legendtext" text-anchor="start" x="40" y="4.680000000000001" style="font-family: 'Open Sans', verdana, arial, sans-serif; font-size: 12px; fill: rgb(42, 63, 95); fill-opacity: 1; white-space: pre;">Grid Meter (Net Load)</text><g class="layers" style="opacity: 1;"><g class="legendfill"/><g class="legendlines"><path class="js-line" d="M5,0h30" style="fill: none; stroke: rgb(0, 128, 0); stroke-opacity: 1; stroke-width: 2px;"/></g><g class="legendsymbols"><g class="legendpoints"/></g></g><rect class="legendtoggle" x="0" y="-9.5" width="158.71875" height="19" style="fill: rgb(0, 0, 0); fill-opacity: 0;"/></g></g></g><rect class="scrollbar" rx="20" ry="3" width="0" height="0" x="0" y="0" style="fill: rgb(128, 139, 164); fill-opacity: 1;"/></g><g class="g-gtitle"><text class="gtitle" x="297.5" y="50" text-anchor="middle" dy="0em" style="font-family: 'Open Sans', verdana, arial, sans-serif; font-size: 17px; fill: rgb(42, 63, 95); opacity: 1; font-weight: normal; white-space: pre;"><tspan class="line" dy="0em" x="297.5" y="50">Scenario 2</tspan><tspan class="line" dy="1.3em" x="297.5" y="50">Microgrid Output</tspan><tspan class="line" dy="2.6em" x="297.5" y="50">From: October 01, 2022 to October 31, 2022</tspan></text></g><g class="g-xtitle"><text class="xtitle" x="297.5" y="476.409375" text-anchor="middle" style="font-family: 'Open Sans', verdana, arial, sans-serif; font-size: 14px; fill: rgb(42, 63, 95); opacity: 1; font-weight: normal; white-space: pre;">Time</text></g><g class="g-ytitle"><text class="ytitle" transform="rotate(-90,26.168750000000003,260)" x="26.168750000000003" y="260" text-anchor="middle" style="font-family: 'Open Sans', verdana, arial, sans-serif; font-size: 14px; fill: rgb(42, 63, 95); opacity: 1; font-weight: normal; white-space: pre;">Demand (kW)</text></g></g></svg>