<svg class="main-svg" xmlns="http://www.w3.org/2000/svg" xmlns:xlink="http://www.w3.org/1999/xlink" width="700" height="500" style="" viewBox="0 0 700 500"><rect x="0" y="0" width="700" height="500" style="fill: rgb(255, 255, 255); fill-opacity: 1;"/><defs id="defs-d32ade"><g class="clips"><clipPath id="clipd32adexyplot" class="plotclip"><rect width="437" height="320"/></clipPath><clipPath class="axesclip" id="clipd32adex"><rect x="80" y="0" width="437" height="500"/></clipPath><clipPath class="axesclip" id="clipd32adey"><rect x="0" y="100" width="700" height="320"/></clipPath><clipPath class="axesclip" id="clipd32adexy"><rect x="80" y="100" width="437" height="320"/></clipPath></g><g class="gradients"/><g class="patterns"/></defs><g class="bglayer"/><g class="layer-below"><g class="imagelayer"/><g class="shapelayer"/></g><g class="cartesianlayer"><g class="subplot xy"><g class="layer-subplot"><g class="shapelayer"/><g class="imagelayer"/></g><g class="minor-gridlayer"><g class="x"/><g class="y"/></g><g class="gridlayer"><g class="x"><path class="xgrid crisp" transform="translate(94.1,0)" d="M0,100v320" style="stroke: rgb(255, 255, 255); stroke-opacity: 1; stroke-width: 1px;"/><path class="xgrid crisp" transform="translate(192.81,0)" d="M0,100v320" style="stroke: rgb(255, 255, 255); stroke-opacity: 1; stroke-width: 1px;"/><path class="xgrid crisp" transform="translate(291.52,0)" d="M0,100v320" style="stroke: rgb(255, 255, 255); stroke-opacity: 1; stroke-width: 1px;"/><path class="xgrid crisp" transform="translate(390.23,0)" d="M0,100v320" style="stroke: rgb(255, 255, 255); stroke-opacity: 1; stroke-width: 1px;"/><path class="xgrid crisp" transform="translate(488.94,0)" d="M0,100v320" style="stroke: rgb(255, 255, 255); stroke-opacity: 1; stroke-width: 1px;"/></g><g class="y"><path class="ygrid crisp" transform="translate(0,410.37)" d="M80,0h437" style="stroke: rgb(255, 255, 255); stroke-opacity: 1; stroke-width: 1px;"/><path class="ygrid crisp" transform="translate(0,366.94)" d="M80,0h437" style="stroke: rgb(255, 255, 255); stroke-opacity: 1; stroke-width: 1px;"/><path class="ygrid crisp" transform="translate(0,280.07)" d="M80,0h437" style="stroke: rgb(255, 255, 255); stroke-opacity: 1; stroke-width: 1px;"/><path class="ygrid crisp" transform="translate(0,236.64)" d="M80,0h437" style="stroke: rgb(255, 255, 255); stroke-opacity: 1; stroke-width: 1px;"/><path class="ygrid crisp" transform="translate(0,193.2)" d="M80,0h437" style="stroke: rgb(255, 255, 255); stroke-opacity: 1; stroke-width: 1px;"/><path class="ygrid crisp" transform="translate(0,149.77)" d="M80,0h437" style="stroke: rgb(255, 255, 255); stroke-opacity: 1; stroke-width: 1px;"/><path class="ygrid crisp" transform="translate(0,106.33)" d="M80,0h437" style="stroke: rgb(255, 255, 255); stroke-opacity: 1; stroke-width: 1px;"/></g></g><g class="zerolinelayer"><path class="yzl zl crisp" transform="translate(0,323.51)" d="M80,0h437" style="stroke: rgb(255, 255, 255); stroke-opacity: 1; stroke-width: 2px;"/></g><path class="xlines-below"/><path class="ylines-below"/><g class="overlines-below"/><g class="xaxislayer-below"/><g class="yaxislayer-below"/><g class="overaxes-below"/><g class="plot" transform="translate(80,100)" clip-path="url(#clipd32adexyplot)"><g class="scatterlayer mlayer"><g class="trace scatter tracef4d4ed" style="stroke-miterlimit: 2; opacity: 0.5;"><g class="fills"/><g class="errorbars"/><g class="lines"><path class="js-line" d="M0,223.51L437,223.51" style="vector-effect: non-scaling-stroke; fill: none; stroke: rgb(0, 191, 255); stroke-opacity: 1; stroke-width: 2px; opacity: 1;"/></g><g class="points"/><g class="text"/></g><g class="trace scatter tracee91d78" style="stroke-miterlimit: 2; opacity: 0.5;"><g class="fills"/><g class="errorbars"/><g class="lines"><path class="js-line" d="M0,223.77L4.11,223.17L4.26,220.63L5.43,177.28L5.58,162.74L6.02,94.89L6.17,46.2L7.05,16L7.2,16.11L8.52,16.37L8.67,18.88L9.99,142.49L10.14,161.09L11.31,223.79L11.46,223.79L18.07,223.49L18.21,222.83L19.1,183.82L19.24,177.16L19.83,103.62L19.98,69.9L20.86,16.05L21.15,16.17L21.3,16.12L22.47,16.31L22.62,17.74L23.5,79.87L23.65,94.65L25.41,223.79L25.56,223.79L32.02,223.66L32.17,222.72L32.9,185.29L33.05,169.08L35.11,16.5L35.25,16.43L36.58,17.1L36.72,20.57L37.9,115.78L38.04,132.91L39.51,223.79L39.66,223.79L46.27,223.04L46.42,219.81L47.01,185.99L47.15,169.27L49.21,16.51L49.36,16.6L50.53,16.77L50.68,17.43L51.41,58.45L51.56,71.12L53.62,223.78L53.76,223.78L60.37,223.07L60.52,219.38L61.11,181.94L61.25,165.18L63.46,16.61L63.6,16.66L63.75,16.66L64.49,16.73L64.63,17.45L65.37,52.42L65.51,64.62L67.72,223.78L67.86,223.78L74.77,222.99L74.91,218.47L75.8,194.86L75.94,175.45L76.38,138.37L76.53,48.39L76.68,50.02L76.82,43.98L76.97,34.75L77.56,16.36L78,16.44L78.15,16.48L78.44,16.35L78.59,17.19L79.47,57.78L79.61,68.65L81.82,223.79L81.97,223.78L88.58,223.07L88.72,218.98L89.75,147.05L89.9,133.18L91.66,22.28L91.81,19.77L92.25,17.03L92.39,18.7L92.54,22.01L92.98,31.63L93.13,35.47L93.86,87.75L94.01,101.99L95.92,223.78L96.07,223.78L102.68,223.09L102.82,220.16L103.56,176.72L103.7,162.63L105.76,21.14L105.91,17.74L106.2,16.33L106.35,19.01L106.5,47.3L106.64,18.76L106.94,24.63L107.08,126.33L107.38,165.83L107.52,61.81L107.67,59.23L107.82,88.56L108.11,95.41L108.26,115.56L109.73,223.79L109.87,223.78L116.78,223.19L116.93,220.57L117.66,175.87L117.81,162.51L119.86,23.56L120.01,20.24L120.3,53.32L120.45,16.59L121.04,23.6L121.18,28.84L122.21,101.51L122.36,117.2L123.98,223.79L124.12,223.79L130.88,223.49L131.03,222.2L132.35,144.6L132.5,132.53L133.52,38.58L133.67,33.41L134.55,17.69L134.7,18.26L134.85,22.24L134.99,39.27L135.43,32.29L135.58,160.08L135.73,169.22L135.87,168.81L136.02,71.85L137.93,223.78L138.08,223.78L145.27,223.1L145.42,221.41L147.63,159.29L147.77,151.66L148.36,81.63L148.51,27.11L148.65,28.31L148.8,100.74L148.95,138.96L149.39,60.79L149.53,78.44L150.56,202.58L150.71,199.97L150.86,199.85L151,189.02L152.03,223.78L152.18,223.77L152.33,223.77L159.23,223.11L159.38,220.03L161.14,175.85L161.29,130.54L161.58,131.61L162.02,76.75L162.17,25.4L162.46,23.16L162.61,44.15L162.75,67.68L163.2,19.34L163.34,25.31L164.52,109.61L164.66,139.61L166.13,223.78L166.28,223.78L173.33,223.32L173.48,222.58L175.24,139.75L175.39,125.82L176.27,25.97L176.42,26.16L176.56,22.63L176.71,21.11L177.15,22.89L177.3,25.94L178.33,85.88L178.47,97.77L180.38,223.78L180.53,223.77L187.58,223.19L187.73,221.16L189.93,163.58L190.08,142.5L190.96,24.31L191.4,32.83L191.55,37.05L192.43,89.84L192.57,102.32L194.34,223.79L194.48,223.78L194.63,223.77L201.53,223.42L201.68,222.04L202.56,202.59L202.71,208.79L202.86,208.38L204.62,162.6L204.77,136.82L204.91,140.46L205.06,120.01L206.82,200.55L206.97,194.16L208,223.78L208.14,223.78L215.64,223.21L215.78,221.77L216.81,188.69L216.96,181.07L217.99,140.24L218.13,147.01L218.43,152.05L218.57,135.17L218.87,69.76L219.45,86.1L219.6,112.9L219.75,95.82L220.04,142.12L220.19,154.79L222.1,223.47L222.25,223.65L223.42,223.78L223.57,223.78L229.59,223.5L229.74,222.09L230.47,173.98L230.62,156.83L232.53,16.97L232.67,16.4L233.7,16.69L233.85,17.71L234.44,49.4L234.58,60.85L236.79,223.78L236.93,223.78L243.69,223.52L243.84,222.72L244.43,192.56L244.57,175.35L246.63,17.7L246.78,16.59L247.8,16.86L247.95,18.09L248.69,57.17L248.83,68.16L250.89,223.78L251.04,223.78L257.79,223.55L257.94,222.93L258.53,196.79L258.67,179.21L260.73,19.33L260.88,16.63L261.61,16.67L261.76,16.66L261.91,16.72L262.05,17.94L263.08,83.93L263.23,98.47L264.99,223.78L265.14,223.78L271.89,223.55L272.04,222.3L272.92,165.33L273.07,134.25L273.22,134.22L273.36,113.1L274.83,22.29L274.98,23.86L275.71,16.9L275.86,19.61L276.01,17.34L276.3,23.6L276.45,32.25L277.62,134.67L277.77,152.96L279.09,223.78L279.24,223.78L284.97,223.77L285.11,223.77L286.14,223.25L286.29,222.13L286.88,182.25L287.02,164.42L288.49,33.15L288.64,82.41L289.67,18.28L289.82,24.03L289.96,16.7L290.4,24.4L290.55,31.47L291.43,99.91L291.58,117.11L293.19,223.78L293.34,223.77L300.54,223.08L300.69,218.27L302.59,84.95L302.74,92.99L303.04,95.3L303.18,47.82L303.33,88.59L303.48,133.96L304.65,18.18L304.8,27.87L305.68,157.49L305.83,127.6L306.71,223.6L306.85,223.74L309.21,223.77L309.35,223.77L314.2,223.65L314.35,221.48L315.82,107.3L315.96,65.3L317.14,16.26L317.72,16.41L317.87,16.61L318.46,16.41L318.61,17.97L319.63,99.45L319.78,117.88L321.25,223.78L321.4,223.77L328.45,223.26L328.59,220.77L329.04,199.87L329.18,183.12L331.09,16.1L331.24,16.41L331.39,16.13L332.71,16.53L332.85,20.59L334.03,131.04L334.18,149.78L335.35,223.78L335.5,223.78L342.55,223.13L342.7,220.94L343.14,200.46L343.28,184.17L345.34,21.71L345.49,17.44L345.63,16.33L346.22,16.58L346.37,16.6L346.52,16.67L346.66,17.7L347.25,50.91L347.4,61.85L349.45,223.79L349.6,223.78L349.75,223.77L356.65,223.21L356.8,220.17L357.24,200.23L357.39,184.94L359.29,35.04L359.44,32.02L360.32,16.22L360.47,16.44L361.06,34.27L361.2,44.62L362.23,142.18L362.38,161.23L363.55,223.79L363.7,223.78L370.75,223.16L370.9,219.61L371.78,156.19L371.93,140.86L373.54,27.79L373.69,24.25L374.42,18.48L374.57,19.39L374.72,20.11L375.31,46.38L375.45,56.37L377.8,223.78L377.95,223.77L384.85,223.33L385,221.52L385.44,203.02L385.59,188.02L387.64,28.79L387.79,24.35L388.38,17.06L388.53,26.9L388.82,17.67L389.11,25.76L389.26,34.57L391.32,223.52L391.46,223.76L395.28,223.78L395.43,223.78L398.96,223.32L399.1,221.8L399.69,189.1L399.84,171.7L401.6,35.54L401.75,29.53L402.48,17.07L402.63,21.16L402.77,22.53L402.92,22.65L403.07,26.02L404.24,111.72L404.39,129.18L405.86,223.79L406.01,223.78L413.06,223.29L413.2,219.75L414.38,136.27L414.53,115.78L415.99,28.01L416.14,26.23L416.88,20.52L417.02,23.2L417.17,26.3L417.9,69.64L418.05,82.04L419.96,223.79L420.11,223.79L427.16,223.34L427.31,222.22L427.89,190.35L428.04,172.77L429.95,35.48L430.1,29.19L430.24,25.45L430.39,58.01L430.54,25.81L430.83,80.94L430.98,110.95L431.12,103.67L431.27,138.28L431.57,83.31L431.86,102.24L432.01,153.27L432.3,174.76L432.45,151.67L432.59,133.59L433.77,223.79L433.92,223.79L437,223.77" style="vector-effect: non-scaling-stroke; fill: none; stroke: rgb(255, 0, 0); stroke-opacity: 1; stroke-width: 2px; opacity: 1;"/></g><g class="points"/><g class="text"/></g><g class="trace scatter trace6c420e" style="stroke-miterlimit: 2; opacity: 0.5;"><g class="fills"/><g class="errorbars"/><g class="lines"><path class="js-line" d="M0,283.03L0.73,256.79L0.88,259.91L1.03,256.56L1.47,256.52L1.76,260.12L1.91,255.49L2.2,258.96L2.35,257.51L2.5,255.02L2.79,259.72L2.94,254.19L3.23,256.21L3.38,256.18L3.53,259.84L3.82,254.07L4.11,256.09L4.26,258.8L5.14,234.06L5.29,226.48L6.02,135.72L6.17,90.76L6.76,65.21L7.05,69.39L7.2,73.72L7.64,65.63L7.79,79.48L7.93,74.96L8.08,74.87L8.23,80.06L8.37,79.05L8.52,82.92L8.67,81.24L8.81,94.33L10.87,278.04L11.31,268.82L11.46,272.07L11.9,264.87L12.05,277.47L12.19,276.49L13.07,259.94L13.22,262.83L13.95,256.35L14.1,260.29L14.98,254.67L15.13,259.13L15.57,261.51L15.86,254.3L16.01,257.94L16.89,254.71L17.04,256.48L17.19,259.86L17.33,254.8L17.63,257.37L17.77,253.87L18.07,257.56L18.36,257.35L18.51,250.23L19.83,142.98L19.98,110.21L20.86,78.13L21.01,84.43L21.15,86.27L21.45,89.64L21.59,74.61L21.89,76.11L22.03,85.54L22.18,72.06L22.62,84.34L22.77,93.73L23.5,144.7L23.65,168.31L23.8,172.01L23.94,197.95L24.97,278.7L25.41,275.47L25.56,278.04L25.85,278.56L26.59,265.2L26.73,261.28L26.88,265.67L27.32,263.41L27.47,259.11L27.62,265.65L27.91,258.51L28.06,262.46L28.2,257.97L28.5,261.77L28.64,256.08L28.79,262.04L29.38,256.45L29.53,255.46L29.67,254.31L29.82,260.61L30.55,253.96L30.7,256.45L30.85,258.13L31.43,258.86L31.73,253.93L31.88,257.63L32.61,243.41L32.76,236.8L34.96,90.26L35.25,102.05L35.4,99.83L35.69,94.65L35.84,102.64L35.99,100.04L36.14,122.46L36.58,104.63L36.87,107.51L37.02,123.18L38.93,290.99L39.37,285.84L39.51,277.83L39.81,275.08L39.95,281.04L40.25,278.29L40.39,277.76L40.84,263.31L41.28,265.18L41.42,270.57L42.3,263.78L42.45,266.97L42.75,259.99L43.33,262.07L43.48,257.79L43.63,262.26L43.77,257.18L44.07,259.47L44.21,256.77L44.8,261.42L44.95,255.42L45.1,258.44L45.68,256.91L45.83,256.88L45.98,257.16L46.12,253.85L46.27,257.15L46.56,250.88L46.71,245.85L48.91,96.45L49.21,101.3L49.36,95.09L49.5,90.93L49.8,98.67L49.94,114.93L50.09,100.91L50.53,116.21L50.68,119.61L51.12,149.19L51.26,142.83L51.41,171.78L51.56,167.21L51.71,182.25L51.85,195.98L53.91,290.51L54.06,286.21L54.5,299.72L54.64,298.45L54.79,287.16L55.52,275.58L55.67,281.48L55.82,281.54L55.97,274.06L56.55,276.67L56.7,276.96L56.85,280.39L57.14,272.39L57.29,275.99L57.43,275.95L58.02,254.9L58.32,257.74L58.46,257.22L58.76,254L59.05,264.68L59.2,256.8L59.49,259.34L59.93,254.73L60.08,256.49L60.23,256.79L60.37,255.13L60.67,250.7L60.81,242.39L61.84,175.79L61.99,164.68L63.31,87.19L63.46,102.04L63.75,108.12L64.19,103.6L64.34,95.5L64.78,104.49L64.93,109.37L65.07,111.24L65.22,130.91L65.37,131.59L65.51,162.29L65.95,184.45L66.1,198.94L67.13,298.57L67.57,291.15L67.72,292.97L67.86,295.4L68.01,290.2L68.16,286.28L68.3,295.68L68.45,284.92L68.74,287.79L68.89,281.6L69.19,283.83L69.33,280.8L69.63,282.05L69.77,275.15L70.07,279.79L70.21,277.88L70.36,276.5L70.51,277.21L70.65,266.13L71.54,260.33L71.68,260.05L71.83,261.45L72.27,259.54L72.42,259.17L72.86,257.96L73.15,261.19L73.3,257.1L73.89,263L74.03,259.29L74.18,257.35L74.77,262.61L74.91,255.91L75.21,247.75L75.35,259.24L75.8,259.8L76.38,189.58L76.53,112.27L77.12,85.89L77.41,93.43L77.56,96.63L77.71,92.28L77.85,92.6L78,106.71L78.44,82L78.73,94.3L78.88,100.15L81.38,294.82L81.67,289.39L81.82,292.66L82.85,264.34L82.99,265.45L83.14,268.58L83.58,262.47L83.73,263.62L83.87,268.81L84.17,257.11L84.32,268.13L84.46,257.86L84.61,257.99L84.76,265.45L84.9,257.21L85.49,263.7L85.64,258.58L86.08,261.83L86.22,257.38L86.37,261.93L86.81,256.99L86.96,258.48L87.11,259.92L87.25,254.99L87.4,261.24L87.84,256L87.99,257.96L88.43,259.93L88.72,253.86L88.87,255.05L89.02,254.73L89.16,246.86L91.22,105.05L91.37,117.61L91.51,92L92.1,116.39L92.25,100.11L92.54,99.66L92.69,100.62L92.83,109.8L92.98,110.43L93.13,120.52L93.28,120.72L93.42,130.13L95.19,282.28L95.33,286.2L95.48,291.11L95.92,283.07L96.07,286.26L96.21,282.19L96.8,290.45L96.95,273.06L97.24,281.45L97.39,271.6L97.54,277.29L97.68,268.92L97.83,273.62L97.98,261.54L98.12,261.81L98.27,264.55L98.42,266.26L98.56,264.14L98.71,260.97L99,261.77L99.15,257.13L99.3,264.69L100.33,258.49L100.47,258.63L100.62,259.57L100.77,256.22L100.91,262.15L101.5,253.97L101.65,259.75L101.8,257.78L101.94,254.63L102.09,259.73L102.53,257.01L102.68,256.59L103.26,240.67L103.41,226.44L105.91,80.46L106.06,86.47L106.2,81.07L106.35,90.06L106.5,118.25L106.64,90.77L106.94,104.02L107.08,193.63L107.23,240.33L107.52,144.41L107.67,133.37L108.85,255.4L108.99,261.67L109.43,294.15L109.87,288.09L110.02,289.67L110.17,280.81L110.76,284.04L110.9,284.48L112.96,260.48L113.11,266.65L113.69,256.48L113.84,258.89L113.99,265.38L114.87,257.76L115.02,259.25L115.16,256.06L115.6,256.63L115.75,259.83L116.19,261.12L116.48,254.03L116.63,256.56L116.78,257.59L116.93,252.25L117.07,253.58L117.22,242.59L118.39,150.73L118.54,141.44L120.01,78.73L120.16,87.33L120.3,119.29L120.45,82.54L120.89,89.75L121.04,91.46L123.54,283.43L123.98,275.88L124.12,281.59L124.86,272.16L125,277.45L125.89,263.94L126.03,269.08L126.47,258.78L126.91,262.63L127.06,261.06L127.21,261.2L127.35,263.65L128.09,255.8L128.24,258.56L128.38,258.9L128.53,261.34L128.97,257.66L129.12,259.3L129.26,254.57L129.7,253.83L130,260.13L130.15,253.12L131.17,265.09L131.32,259.03L132.2,222.95L132.35,203.87L134.26,77.36L134.41,94.82L134.55,89.78L134.7,102.35L134.85,98.82L134.99,129.85L135.14,112.07L135.43,120.84L135.58,241.02L135.73,249.71L135.87,247.29L136.02,164.67L136.17,165.44L136.31,191L137.05,254.32L137.2,285.22L138.08,268.86L138.22,274.77L139.4,265.77L139.55,262.76L139.99,269.13L140.13,262.42L140.28,260.57L140.43,265.05L141.02,261.8L141.16,261.56L141.46,257L141.9,261.03L142.04,260.4L142.63,260.53L142.92,257.98L143.07,258.42L143.22,257.24L143.37,258.08L143.51,262.06L143.66,255.01L144.25,256.37L144.39,260.9L144.69,254.7L145.13,255.41L145.27,258.78L145.86,267.04L146.01,263.69L146.16,252.77L146.3,256.95L146.6,252.14L146.74,246.28L148.21,163.07L148.36,129.64L148.51,78.97L148.8,159.18L148.95,196.98L149.39,117.49L149.68,181.88L149.83,194.32L150.56,260.12L150.71,257.1L150.86,249.6L151,241.4L151.3,265.71L151.44,272.18L151.59,271.88L151.74,265.77L151.89,271.19L152.33,263.31L152.47,270.99L152.62,267.87L153.5,259.7L153.65,262.8L154.38,256.22L154.53,258.53L154.68,260.68L154.97,254.21L155.12,261.25L155.41,256.13L155.56,258.93L155.85,255.55L156.14,261.42L156.29,258.47L156.44,256.67L156.59,256.99L156.88,255.92L157.03,255.01L157.17,257.43L157.76,255.17L157.91,257.16L158.35,259.34L158.79,254.8L158.94,256.93L159.08,257.12L159.23,254.41L159.38,254.49L159.52,252.14L159.67,252.21L159.82,261.4L160.85,229.35L160.99,230.47L162.02,125.96L162.17,73.09L162.46,77.93L162.61,102.01L162.75,134.02L163.05,83.64L163.2,92.04L163.34,89.37L165.84,277.85L165.99,272.2L166.13,277.66L166.57,265.71L166.72,268.72L166.87,271.7L167.31,266.49L167.46,263.75L167.75,265.12L167.9,260.8L168.04,259.85L168.19,264.85L169.07,257.18L169.22,256.44L169.37,261.48L169.51,254.69L169.95,256.07L170.1,255.44L170.25,258.94L170.39,254.08L170.83,257.5L170.98,255.86L171.13,253.51L171.42,259.25L171.72,253.71L171.86,259.32L172.6,253.32L172.74,253.69L172.89,255.6L173.18,252.49L173.48,259.18L173.62,252.5L173.77,244.9L174.07,253.15L174.36,250.39L174.51,245.96L175.39,177.89L175.53,150.82L176.71,74.52L176.86,82.52L177,82.12L177.15,83.54L177.3,88.26L177.88,116.24L178.03,153.03L178.18,155.49L178.33,176.43L178.47,174.83L178.62,198.58L178.77,200.5L178.91,222.27L180.09,289.48L180.38,284.36L180.53,281.68L180.68,281.71L180.82,278.9L180.97,281.87L181.26,275.51L181.41,277.46L181.56,275.25L181.85,277.45L182,270.98L182.14,270.42L182.29,276.77L183.17,256.09L183.32,260.62L183.47,259.85L183.61,253.36L183.91,260.87L184.2,254.3L184.35,260.44L185.08,253.81L185.23,259.13L185.67,256.54L185.96,256.79L186.11,257.72L186.4,254.1L186.55,259.53L186.85,255.12L186.99,258.3L187.29,253.98L187.43,256.31L187.58,270.87L187.73,271.32L187.87,265.63L188.17,269.39L188.31,263.1L188.46,259.96L188.75,263.46L188.9,252.89L189.34,246.77L189.49,238.25L190.37,175.03L190.52,131.37L190.66,149.79L190.96,90.92L191.1,89.15L191.25,80.43L191.55,93.08L191.69,104.13L191.84,104.1L191.99,116.6L192.57,158.72L192.72,177.99L194.48,270.94L194.63,259.55L195.07,269.05L195.22,258.85L195.51,268.69L195.66,257.85L195.81,255.28L195.95,259.68L196.1,257.05L196.25,265.89L197.27,254.39L197.42,258.08L197.57,262.44L197.86,254.89L198.16,257.82L198.3,255.8L198.45,262.07L199.04,255.47L199.18,258.36L199.62,254.23L199.77,254.97L199.92,258.53L200.21,260.51L200.36,257.63L200.51,254.8L200.95,254.12L201.24,259.32L201.39,255.98L201.53,255.8L201.68,259.06L202.56,235.1L202.86,244.29L203,241.81L203.15,239.98L203.3,228.17L205.06,160.52L205.35,161.11L205.5,171.67L207.7,278.58L207.85,269.73L208.73,259.76L208.88,259.5L209.03,263.36L209.32,258.3L209.61,260.1L209.76,257.88L210.05,261.1L210.2,257.62L210.35,254.7L211.08,261.01L211.23,256.71L211.67,260.14L211.82,254.56L211.96,254.91L212.11,258.51L212.26,258.15L212.4,255.07L212.7,259.17L212.84,256.16L212.99,254.67L213.29,259.64L213.43,254.54L213.58,254.79L213.87,258.01L214.17,254.2L214.46,257.4L214.61,256.48L214.75,257.65L215.19,255.31L215.34,256.82L215.49,254.39L215.64,258.31L215.93,253.91L216.08,245.9L217.25,200.16L217.55,212.49L217.69,208.21L218.87,110.45L219.01,123.58L219.16,138.15L219.31,123.9L219.6,156.68L219.75,139.9L219.9,161.97L221.07,238.34L221.22,238.28L222.54,265.41L222.69,262.83L222.98,259.97L223.27,264.55L223.42,260.44L223.57,259.68L223.71,268.7L223.86,269.47L224.01,261.46L224.3,258.14L224.45,254.8L224.6,254.94L224.74,260.49L225.04,254.3L225.62,256.28L225.77,257.78L226.51,254.45L226.65,255.48L226.8,255.73L226.95,256.1L227.09,255.07L227.24,255.42L227.39,254.66L227.53,254.92L227.68,253.95L227.97,254.21L228.12,254.01L228.42,254.75L228.56,253.69L228.71,253.8L228.86,253.55L229.74,254.77L229.88,259.98L230.47,222.68L230.62,206.04L232.53,62.81L232.67,70.37L232.82,68.59L232.97,72.26L233.12,79.86L233.26,71.91L233.7,88.36L233.85,82.08L234.14,97.52L234.29,105.65L236.2,277.71L236.64,276.23L236.79,267.74L236.93,275.29L237.08,264.86L237.52,268.43L237.67,264.46L237.82,269.58L238.11,258.63L238.4,265.44L238.55,259.68L238.99,261.63L239.14,254.16L239.29,258.12L239.43,259.38L239.58,253.45L240.17,255.87L240.31,259.65L241.05,255.96L241.19,256.72L241.34,254.06L241.49,257.48L242.08,256.21L242.22,253.65L242.81,252.86L243.1,256.75L243.25,255.57L243.99,252.44L244.13,255.96L244.57,228.37L244.72,213.7L246.04,112.32L246.19,113.71L246.92,82.03L247.07,82.98L247.22,92.15L247.51,85.78L247.66,97.34L247.8,105.95L250.15,292.38L250.3,290.33L250.45,296.84L250.74,287.91L250.89,292.73L251.04,288.02L251.18,292.24L251.62,283.88L251.77,284.56L251.92,290.16L252.21,280.89L252.36,276.89L252.51,276.22L252.65,281.22L253.09,281.26L253.24,271.7L253.39,274.76L253.53,278.31L254.56,256.36L254.71,259.31L255.15,259.78L255.3,253.66L255.74,254.86L255.88,255.73L256.03,255.29L256.18,256.86L256.32,255.72L256.47,253.51L256.77,256.83L256.91,254.57L257.06,254.08L257.35,256.14L257.5,253.99L257.79,255.63L257.94,254.89L258.23,252.78L258.38,255.88L261.32,87.34L261.47,93.9L261.61,96.85L262.35,120.31L262.49,138.71L263.52,222.01L263.67,235.37L264.7,304L264.84,296.73L266.31,267.38L266.46,274.72L267.34,262.82L267.49,263.75L267.63,266.26L267.78,261.07L267.93,264.38L268.08,259.81L268.22,262.3L268.66,257.24L268.81,259.17L268.96,257.12L269.4,261.22L269.54,259.82L270.28,254.66L270.43,257.65L270.57,257.2L270.72,254.07L271.6,257.17L271.75,254.01L271.89,256.62L272.19,251.33L272.34,247.69L272.63,252.59L272.78,236.74L273.66,165.91L273.8,142.19L273.95,154.38L274.1,131.7L274.25,133.09L274.39,114.4L274.69,135.39L274.98,110.1L275.13,110.46L275.27,102.53L275.42,115.09L275.71,105.69L275.86,115.11L276.01,108.74L276.15,123.48L276.3,131.79L276.45,126.88L276.74,140.91L276.89,132.65L277.04,161.32L277.33,182.58L277.48,215.24L277.62,214.19L277.77,232.51L278.65,284.46L278.8,281.11L278.95,274.6L279.09,282.22L279.53,270.74L279.68,279.45L279.83,269.25L279.97,271.12L280.41,269.41L280.56,264.43L280.86,262.96L281.59,276.59L281.74,272.97L281.88,275.31L282.18,273.18L282.32,260.53L282.76,261.74L283.21,256.04L283.35,257.11L283.5,256.14L283.65,256.77L283.79,260.17L284.53,254.21L284.67,256.32L285.26,254.65L285.41,256.46L285.56,253.57L286,255.27L286.14,260.62L286.29,267.88L286.58,254.09L286.73,244.66L288.49,108.83L288.64,146.6L289.23,87.95L289.82,94.16L289.96,97.45L290.11,81.64L290.55,91.6L290.7,110.38L290.84,111.46L290.99,132.97L292.46,292.92L292.75,292.08L292.9,285.04L293.19,287.99L293.34,284.29L293.49,280.77L294.22,293.15L294.37,291.25L294.52,286.58L295.4,273.35L295.54,270.79L295.98,269.26L296.13,278.53L296.28,270.57L296.43,260.49L296.57,255.81L296.87,261.87L297.16,260.32L297.31,258.39L297.45,262.18L297.75,254.19L297.89,258.52L298.04,256.15L298.19,265.32L298.63,254.68L298.78,257.16L298.92,261.99L299.07,253.88L299.66,259.57L299.8,255.72L300.54,262.63L300.69,252.24L302.59,127.41L302.74,137.16L303.04,137.39L303.18,98.69L303.33,131.59L303.48,180.15L304.65,68.62L304.8,87.83L305.53,212.15L305.68,209.25L305.83,183.17L306.71,273.41L306.85,270.85L307,270.28L307.15,272.67L307.44,272.47L307.59,270.82L307.74,270.83L307.88,268.39L308.03,271.27L308.47,267.78L308.62,264.99L308.76,262.62L308.91,266.26L309.06,265.68L309.21,268.39L309.94,253.71L310.38,253.77L310.53,254.29L311.26,259.11L311.41,254.64L312,255.89L312.14,253.97L312.58,254.69L312.73,257.63L313.02,254.05L313.61,254.23L313.76,254.19L314.05,253.86L314.2,254.48L314.35,255.81L315.82,138.97L315.96,99L317.43,62.5L317.58,66.81L318.02,68.04L318.46,62.17L318.61,69L319.19,104.4L319.34,116.72L320.66,263.36L321.1,260.47L321.25,263.5L321.4,264.89L321.54,260.92L321.69,262.97L321.84,260.47L322.28,259.64L322.43,262.94L322.57,256.11L322.87,257.11L323.16,253.8L323.31,254.26L323.45,257.2L324.19,253.75L324.33,254.16L324.48,254.49L324.63,256.22L324.78,254.12L325.07,254.33L325.22,253.96L325.51,254.6L325.66,253.76L325.95,253.95L326.1,253.53L326.39,253.87L326.54,253.25L326.69,253.53L326.83,253.75L326.98,254.17L327.13,253.21L327.42,253.71L327.57,253.57L328.01,253.87L328.15,253.07L328.3,253.35L328.45,254.55L329.04,235.25L329.18,229.97L331.09,71.74L331.24,64.07L331.68,53.32L331.83,65.35L332.12,92.19L332.56,68.58L332.71,63.78L333.44,113.13L333.59,133.17L334.18,191.59L334.32,221.27L335.2,265.19L335.35,262.88L335.5,262.03L336.23,257.11L336.38,259.54L336.53,259.14L337.41,254.13L337.55,253.92L337.85,256.74L338,256L338.14,254.09L338.29,254.99L338.73,253.91L338.88,254.22L339.02,254.08L339.17,254.03L339.32,254.84L340.2,253.39L340.35,254.12L341.08,253.27L341.23,253.48L341.37,254.19L342.26,253.21L342.4,253.93L342.55,254.11L342.7,252.7L343.28,217.94L343.43,199.23L345.05,100.52L345.19,88.69L345.93,72.58L346.07,82.47L346.22,80.12L346.52,83.44L346.66,82.05L346.81,90.76L347.84,176.13L347.98,194.8L349.01,265.46L349.45,263.34L349.6,261.76L349.89,262.82L350.19,256.99L350.33,260.12L350.48,261.15L351.22,253.87L351.66,254.38L351.8,255.08L352.1,253.45L352.39,254.48L352.54,257.92L352.68,253.48L353.27,253.98L353.42,254.82L354.15,253.56L354.45,254L354.59,254.04L355.33,253.48L355.48,253.78L355.92,254.19L356.21,253.78L356.36,253.84L356.65,254.71L356.8,252.23L357.24,233.45L357.39,218.57L358.56,82L359,93.27L359.15,95.06L359.88,70.11L360.03,72.71L360.18,75.75L360.32,70.59L360.62,81.71L360.76,76.51L360.91,83.19L362.23,195.05L362.38,209.27L363.41,279.2L363.55,276.48L363.85,273.43L364,278.01L364.14,272.38L364.44,275.36L364.73,271.83L364.88,272.72L365.02,271.91L365.46,272.49L365.76,267.61L365.9,269.23L366.05,272.21L366.2,267.83L366.79,271.08L366.93,270.39L367.08,270.55L367.23,269.02L368.26,254.43L368.4,255.34L368.55,255.83L368.7,256.26L368.84,254.96L368.99,254.92L369.14,254.33L370.16,254.75L370.31,254.83L370.75,255.26L370.9,252.88L371.93,176.65L372.07,166.64L373.54,74.09L373.69,78.29L373.84,79.76L373.98,66.41L374.13,63.69L374.28,72.36L374.57,66.84L374.72,73.45L375.6,133.84L375.75,151.23L377.22,280.33L377.66,276.2L377.8,276.74L378.39,271.65L378.54,276.3L379.27,264.51L379.42,267.04L379.57,266.15L380.15,254.14L380.3,255.19L380.45,259.47L380.59,254.84L381.33,255.01L381.48,255.59L381.77,254.86L381.92,255.63L382.06,256.85L382.65,253.83L382.94,254.45L383.09,254.05L383.24,253.95L383.38,254.94L384.12,254.12L384.27,254.63L384.71,254.1L384.85,254.84L385,254.45L385.15,258.9L385.29,260.72L385.44,249.86L387.64,94.77L387.79,86.72L388.09,91.11L388.38,68.17L388.82,72.72L388.97,79.52L391.32,266.99L391.46,267.93L391.61,260.14L392.2,264.27L392.35,262.91L392.49,264.67L392.64,259.39L392.93,262.52L393.08,259.41L393.81,254.68L393.96,259.02L394.7,253.79L394.84,254.29L394.99,256.51L395.28,253.69L395.58,254.41L395.72,256.38L396.16,253.74L396.61,254.09L396.75,253.55L397.49,254.48L397.63,253.64L398.22,253.24L398.51,254.1L398.66,253.64L398.81,253.67L398.96,254.78L399.4,246.75L399.54,235.97L401.89,64.41L402.04,61.75L402.19,58.23L402.33,63.84L402.48,61.43L402.63,65.96L402.92,70.41L403.07,76.72L403.51,104.64L403.66,120.02L404.39,177.65L404.54,201.39L405.71,269.09L405.86,264.38L406.01,262.74L406.15,264.8L406.59,260.94L406.74,264.11L406.89,262.54L407.03,262.36L407.18,258.74L407.33,261.51L407.62,254.8L407.77,259.45L407.92,256.33L408.36,257.11L408.5,254.46L408.65,257.68L409.09,254.26L409.38,255.47L409.53,256.38L410.41,254.21L410.56,253.76L411.44,254.4L411.59,253.6L412.47,254.5L412.62,253.76L413.06,254.83L413.2,251.03L414.38,168.97L414.53,148.69L415.99,66.08L416.14,72.48L416.44,66.34L416.73,70.74L416.88,76.64L417.17,75.84L417.32,83.53L417.46,96.6L419.67,268.44L419.96,267.1L420.11,264.87L420.4,275.57L420.7,258.72L420.84,263.65L421.72,256.05L421.87,257.2L422.02,259.82L422.16,254.14L422.6,257.74L422.75,255.16L423.49,256.9L423.63,254.27L423.78,256.47L424.37,254.31L424.51,253.66L424.95,254.46L425.4,254.12L425.54,253.83L426.72,253.26L426.86,253.63L427.01,254.01L427.31,266.87L427.6,261.28L427.75,252.5L429.95,83.88L430.1,78.06L430.24,76.84L430.39,112.65L430.54,79.39L430.83,140.29L430.98,176L431.27,199.65L431.57,141.81L431.71,189.87L431.86,160.6L432.3,219.81L432.45,200.21L432.59,190.52L432.74,223.63L432.89,220.23L433.03,240.97L433.62,268.06L433.92,264.73L434.06,266.29L434.36,260.32L434.5,263.71L434.65,266.95L435.53,258.81L435.68,261.44L436.41,254.27L436.56,257.82L436.71,258.19L436.85,256.5L437,254.52" style="vector-effect: non-scaling-stroke; fill: none; stroke: rgb(0, 128, 0); stroke-opacity: 1; stroke-width: 2px; opacity: 1;"/></g><g class="points"/><g class="text"/></g></g></g><g class="overplot"/><path class="xlines-above crisp" d="M0,0" style="fill: none;"/><path class="ylines-above crisp" d="M0,0" style="fill: none;"/><g class="overlines-above"/><g class="xaxislayer-above"><g class="xtick"><text text-anchor="middle" x="0" y="433" transform="translate(94.1,0)" style="font-family: 'Open Sans', verdana, arial, sans-serif; font-size: 12px; fill: rgb(42, 63, 95); fill-opacity: 1; white-space: pre; opacity: 1;"><tspan class="line" dy="0em" x="0" y="433">Oct 2</tspan><tspan class="line" dy="1.3em" x="0" y="433">2022</tspan></text></g><g class="xtick"><text text-anchor="middle" x="0" y="433" style="font-family: 'Open Sans', verdana, arial, sans-serif; font-size: 12px; fill: rgb(42, 63, 95); fill-opacity: 1; white-space: pre; opacity: 1;" transform="translate(192.81,0)">Oct 9</text></g><g class="xtick"><text text-anchor="middle" x="0" y="433" style="font-family: 'Open Sans', verdana, arial, sans-serif; font-size: 12px; fill: rgb(42, 63, 95); fill-opacity: 1; white-space: pre; opacity: 1;" transform="translate(291.52,0)">Oct 16</text></g><g class="xtick"><text text-anchor="middle" x="0" y="433" style="font-family: 'Open Sans', verdana, arial, sans-serif; font-size: 12px; fill: rgb(42, 63, 95); fill-opacity: 1; white-space: pre; opacity: 1;" transform="translate(390.23,0)">Oct 23</text></g><g class="xtick"><text text-anchor="middle" x="0" y="433" style="font-family: 'Open Sans', verdana, arial, sans-serif; font-size: 12px; fill: rgb(42, 63, 95); fill-opacity: 1; white-space: pre; opacity: 1;" transform="translate(488.94,0)">Oct 30</text></g></g><g class="yaxislayer-above"><g class="ytick"><text text-anchor="end" x="79" y="4.199999999999999" transform="translate(0,410.37)" style="font-family: 'Open Sans', verdana, arial, sans-serif; font-size: 12px; fill: rgb(42, 63, 95); fill-opacity: 1; white-space: pre; opacity: 1;">−40</text></g><g class="ytick"><text text-anchor="end" x="79" y="4.199999999999999" style="font-family: 'Open Sans', verdana, arial, sans-serif; font-size: 12px; fill: rgb(42, 63, 95); fill-opacity: 1; white-space: pre; opacity: 1;" transform="translate(0,366.94)">−20</text></g><g class="ytick"><text text-anchor="end" x="79" y="4.199999999999999" style="font-family: 'Open Sans', verdana, arial, sans-serif; font-size: 12px; fill: rgb(42, 63, 95); fill-opacity: 1; white-space: pre; opacity: 1;" transform="translate(0,323.51)">0</text></g><g class="ytick"><text text-anchor="end" x="79" y="4.199999999999999" style="font-family: 'Open Sans', verdana, arial, sans-serif; font-size: 12px; fill: rgb(42, 63, 95); fill-opacity: 1; white-space: pre; opacity: 1;" transform="translate(0,280.07)">20</text></g><g class="ytick"><text text-anchor="end" x="79" y="4.199999999999999" style="font-family: 'Open Sans', verdana, arial, sans-serif; font-size: 12px; fill: rgb(42, 63, 95); fill-opacity: 1; white-space: pre; opacity: 1;" transform="translate(0,236.64)">40</text></g><g class="ytick"><text text-anchor="end" x="79" y="4.199999999999999" style="font-family: 'Open Sans', verdana, arial, sans-serif; font-size: 12px; fill: rgb(42, 63, 95); fill-opacity: 1; white-space: pre; opacity: 1;" transform="translate(0,193.2)">60</text></g><g class="ytick"><text text-anchor="end" x="79" y="4.199999999999999" style="font-family: 'Open Sans', verdana, arial, sans-serif; font-size: 12px; fill: rgb(42, 63, 95); fill-opacity: 1; white-space: pre; opacity: 1;" transform="translate(0,149.77)">80</text></g><g class="ytick"><text text-anchor="end" x="79" y="4.199999999999999" style="font-family: 'Open Sans', verdana, arial, sans-serif; font-size: 12px; fill: rgb(42, 63, 95); fill-opacity: 1; white-space: pre; opacity: 1;" transform="translate(0,106.33)">100</text></g></g><g class="overaxes-above"/></g></g><g class="polarlayer"/><g class="smithlayer"/><g class="ternarylayer"/><g class="geolayer"/><g class="funnelarealayer"/><g class="pielayer"/><g class="iciclelayer"/><g class="treemaplayer"/><g class="sunburstlayer"/><g class="glimages"/><defs id="topdefs-d32ade"><g class="clips"/><clipPath id="legendd32ade"><rect width="162" height="67" x="0" y="0"/></clipPath></defs><g class="layer-above"><g class="imagelayer"/><g class="shapelayer"/></g><g class="infolayer"><g class="legend" pointer-events="all" transform="translate(525.74,100)"><rect class="bg" shape-rendering="crispEdges" width="162" height="67" x="0" y="0" style="stroke: rgb(68, 68, 68); stroke-opacity: 1; fill: rgb(255, 255, 255); fill-opacity: 1; stroke-width: 0px;"/><g class="scrollbox" transform="" clip-path="url(#legendd32ade)"><g class="groups"><g class="traces" transform="translate(0,14.5)" style="opacity: 1;"><text class="legendtext" text-anchor="start" x="40" y="4.680000000000001" style="font-family: 'Open Sans', verdana, arial, sans-serif; font-size: 12px; fill: rgb(42, 63, 95); fill-opacity: 1; white-space: pre;">BESS</text><g class="layers" style="opacity: 0.5;"><g class="legendfill"/><g class="legendlines"><path class="js-line" d="M5,0h30" style="fill: none; stroke: rgb(0, 191, 255); stroke-opacity: 1; stroke-width: 2px;"/></g><g class="legendsymbols"><g class="legendpoints"/></g></g><rect class="legendtoggle" x="0" y="-9.5" width="156.71875" height="19" style="fill: rgb(0, 0, 0); fill-opacity: 0;"/></g><g class="traces" transform="translate(0,33.5)" style="opacity: 1;"><text class="legendtext" text-anchor="start" x="40" y="4.680000000000001" style="font-family: 'Open Sans', verdana, arial, sans-serif; font-size: 12px; fill: rgb(42, 63, 95); fill-opacity: 1; white-space: pre;">Solar</text><g class="layers" style="opacity: 0.5;"><g class="legendfill"/><g class="legendlines"><path class="js-line" d="M5,0h30" style="fill: none; stroke: rgb(255, 0, 0); stroke-opacity: 1; stroke-width: 2px;"/></g><g class="legendsymbols"><g class="legendpoints"/></g></g><rect class="legendtoggle" x="0" y="-9.5" width="156.71875" height="19" style="fill: rgb(0, 0, 0); fill-opacity: 0;"/></g><g class="traces" transform="translate(0,52.5)" style="opacity: 1;"><text class="legendtext" text-anchor="start" x="40" y="4.680000000000001" style="font-family: 'Open Sans', verdana, arial, sans-serif; font-size: 12px; fill: rgb(42, 63, 95); fill-opacity: 1; white-space: pre;">Grid Meter (Net Load)</text><g class="layers" style="opacity: 0.5;"><g class="legendfill"/><g class="legendlines"><path class="js-line" d="M5,0h30" style="fill: none; stroke: rgb(0, 128, 0); stroke-opacity: 1; stroke-width: 2px;"/></g><g class="legendsymbols"><g class="legendpoints"/></g></g><rect class="legendtoggle" x="0" y="-9.5" width="156.71875" height="19" style="fill: rgb(0, 0, 0); fill-opacity: 0;"/></g></g></g><rect class="scrollbar" rx="20" ry="3" width="0" height="0" x="0" y="0" style="fill: rgb(128, 139, 164); fill-opacity: 1;"/></g><g class="g-gtitle"><text class="gtitle" x="298.5" y="50" text-anchor="middle" dy="0em" style="font-family: 'Open Sans', verdana, arial, sans-serif; font-size: 17px; fill: rgb(42, 63, 95); opacity: 1; font-weight: normal; white-space: pre;"><tspan class="line" dy="0em" x="298.5" y="50">Scenario 1</tspan><tspan class="line" dy="1.3em" x="298.5" y="50">Microgrid Output</tspan><tspan class="line" dy="2.6em" x="298.5" y="50">From: October 01, 2022 to October 31, 2022</tspan></text></g><g class="g-xtitle"><text class="xtitle" x="298.5" y="476.409375" text-anchor="middle" style="font-family: 'Open Sans', verdana, arial, sans-serif; font-size: 14px; fill: rgb(42, 63, 95); opacity: 1; font-weight: normal; white-space: pre;">Time</text></g><g class="g-ytitle"><text class="ytitle" transform="rotate(-90,33.840625,260)" x="33.840625" y="260" text-anchor="middle" style="font-family: 'Open Sans', verdana, arial, sans-serif; font-size: 14px; fill: rgb(42, 63, 95); opacity: 1; font-weight: normal; white-space: pre;">Demand (kW)</text></g></g></svg>