<svg class="main-svg" xmlns="http://www.w3.org/2000/svg" xmlns:xlink="http://www.w3.org/1999/xlink" width="700" height="500" style="" viewBox="0 0 700 500"><rect x="0" y="0" width="700" height="500" style="fill: rgb(255, 255, 255); fill-opacity: 1;"/><defs id="defs-cb0774"><g class="clips"><clipPath id="clipcb0774xyplot" class="plotclip"><rect width="437" height="320"/></clipPath><clipPath class="axesclip" id="clipcb0774x"><rect x="80" y="0" width="437" height="500"/></clipPath><clipPath class="axesclip" id="clipcb0774y"><rect x="0" y="100" width="700" height="320"/></clipPath><clipPath class="axesclip" id="clipcb0774xy"><rect x="80" y="100" width="437" height="320"/></clipPath></g><g class="gradients"/><g class="patterns"/></defs><g class="bglayer"/><g class="layer-below"><g class="imagelayer"/><g class="shapelayer"/></g><g class="cartesianlayer"><g class="subplot xy"><g class="layer-subplot"><g class="shapelayer"/><g class="imagelayer"/></g><g class="minor-gridlayer"><g class="x"/><g class="y"/></g><g class="gridlayer"><g class="x"><path class="xgrid crisp" transform="translate(94.1,0)" d="M0,100v320" style="stroke: rgb(255, 255, 255); stroke-opacity: 1; stroke-width: 1px;"/><path class="xgrid crisp" transform="translate(192.81,0)" d="M0,100v320" style="stroke: rgb(255, 255, 255); stroke-opacity: 1; stroke-width: 1px;"/><path class="xgrid crisp" transform="translate(291.52,0)" d="M0,100v320" style="stroke: rgb(255, 255, 255); stroke-opacity: 1; stroke-width: 1px;"/><path class="xgrid crisp" transform="translate(390.23,0)" d="M0,100v320" style="stroke: rgb(255, 255, 255); stroke-opacity: 1; stroke-width: 1px;"/><path class="xgrid crisp" transform="translate(488.94,0)" d="M0,100v320" style="stroke: rgb(255, 255, 255); stroke-opacity: 1; stroke-width: 1px;"/></g><g class="y"><path class="ygrid crisp" transform="translate(0,418.94)" d="M80,0h437" style="stroke: rgb(255, 255, 255); stroke-opacity: 1; stroke-width: 1px;"/><path class="ygrid crisp" transform="translate(0,341.48)" d="M80,0h437" style="stroke: rgb(255, 255, 255); stroke-opacity: 1; stroke-width: 1px;"/><path class="ygrid crisp" transform="translate(0,186.56)" d="M80,0h437" style="stroke: rgb(255, 255, 255); stroke-opacity: 1; stroke-width: 1px;"/><path class="ygrid crisp" transform="translate(0,109.11)" d="M80,0h437" style="stroke: rgb(255, 255, 255); stroke-opacity: 1; stroke-width: 1px;"/></g></g><g class="zerolinelayer"><path class="yzl zl crisp" transform="translate(0,264.02)" d="M80,0h437" style="stroke: rgb(255, 255, 255); stroke-opacity: 1; stroke-width: 2px;"/></g><path class="xlines-below"/><path class="ylines-below"/><g class="overlines-below"/><g class="xaxislayer-below"/><g class="yaxislayer-below"/><g class="overaxes-below"/><g class="plot" transform="translate(80,100)" clip-path="url(#clipcb0774xyplot)"><g class="scatterlayer mlayer"><g class="trace scatter tracef8f2e8" style="stroke-miterlimit: 2; opacity: 0.5;"><g class="fills"/><g class="errorbars"/><g class="lines"><path class="js-line" d="M0,164.02L437,164.02" style="vector-effect: non-scaling-stroke; fill: none; stroke: rgb(0, 191, 255); stroke-opacity: 1; stroke-width: 2px; opacity: 1;"/></g><g class="points"/><g class="text"/></g><g class="trace scatter tracea5b246" style="stroke-miterlimit: 2; opacity: 0.5;"><g class="fills"/><g class="errorbars"/><g class="lines"><path class="js-line" d="M0,164.21L4.11,163.78L4.26,161.97L5.43,131.05L5.58,120.68L6.02,72.28L6.17,37.54L7.05,16L7.2,16.08L8.52,16.27L8.67,18.05L9.99,106.23L10.14,119.5L11.31,164.22L11.46,164.22L18.21,163.54L18.36,160.84L19.24,130.97L19.39,123.28L20.86,16.04L21.3,16.09L21.45,16.1L22.47,16.22L22.62,17.24L23.5,61.56L23.65,72.1L25.41,164.22L25.56,164.22L32.02,164.14L32.17,163.46L32.9,136.76L33.05,125.2L35.11,16.35L35.25,16.31L36.58,16.78L36.72,19.26L37.9,87.18L38.04,99.4L39.51,164.22L39.66,164.22L46.27,163.69L46.42,161.38L47.01,137.26L47.15,125.33L49.21,16.37L49.36,16.43L50.68,17.02L50.82,19.79L52.15,99.42L52.29,111.32L53.62,164.22L53.76,164.22L60.37,163.71L60.52,161.08L61.11,134.37L61.25,122.42L63.46,16.44L63.6,16.47L63.75,16.47L64.49,16.52L64.63,17.03L65.37,41.98L65.51,50.68L67.72,164.22L67.86,164.22L74.77,163.65L74.91,160.43L75.8,143.59L75.94,129.74L76.38,103.29L76.53,39.11L76.68,40.27L76.82,35.96L76.97,29.38L77.56,16.26L78,16.31L78.15,16.34L78.44,16.25L78.59,16.85L78.73,19.49L79.32,38.8L79.47,45.81L81.82,164.22L81.97,164.22L88.58,163.71L88.72,160.79L89.75,109.49L89.9,99.59L91.66,20.48L91.81,18.69L92.25,16.73L92.39,17.93L92.54,20.29L92.98,27.15L93.13,29.89L93.86,67.18L94.01,77.34L95.92,164.22L96.07,164.22L102.68,163.73L102.82,161.64L103.56,130.65L103.7,120.6L105.76,19.66L105.91,17.24L106.2,16.24L106.35,18.15L106.5,38.33L106.64,17.97L106.94,22.15L107.08,94.7L107.38,122.88L107.52,48.68L107.67,46.84L107.82,67.76L108.11,72.65L108.26,87.02L109.73,164.22L109.87,164.22L116.78,163.8L116.93,161.93L117.66,130.04L117.81,120.51L119.86,21.39L120.01,19.02L120.3,42.62L120.45,16.42L121.04,21.42L121.18,25.16L122.21,77L122.36,88.19L123.98,164.23L124.12,164.23L130.88,164.01L131.03,163.09L132.35,107.74L132.5,99.13L133.52,32.1L133.67,28.42L134.55,17.21L134.7,17.61L134.85,20.45L134.99,32.6L135.43,27.62L135.58,118.78L135.73,125.3L135.87,125.01L136.02,55.84L137.93,164.22L138.08,164.22L145.27,163.73L145.42,162.53L147.63,118.21L147.77,112.77L148.36,62.82L148.51,23.93L148.65,24.78L148.8,76.45L148.95,103.72L149.39,47.95L149.53,60.54L150.56,149.1L150.71,147.23L150.86,147.15L151,139.42L152.03,164.22L152.18,164.21L152.33,164.21L159.23,163.74L159.38,161.54L161.14,130.03L161.29,97.71L161.58,98.47L162.02,59.33L162.17,22.71L162.46,21.11L162.61,36.08L162.75,52.87L163.2,18.38L163.34,22.64L164.52,82.78L164.66,104.18L166.13,164.22L166.28,164.22L173.33,163.89L173.48,163.36L175.24,104.27L175.39,94.34L176.27,23.11L176.42,23.24L176.56,20.73L176.71,19.64L177.15,20.92L177.3,23.09L178.33,65.85L178.47,74.33L180.38,164.22L180.53,164.21L187.58,163.8L187.73,162.35L189.93,121.27L190.08,106.24L190.96,21.93L191.4,28.01L191.55,31.01L192.43,68.67L192.57,77.57L194.34,164.23L194.48,164.22L194.63,164.21L201.53,163.96L201.68,162.98L202.56,149.1L202.71,153.53L202.86,153.23L204.62,120.58L204.77,102.18L204.91,104.78L205.06,90.2L206.82,147.65L206.97,143.09L208,164.22L208.14,164.22L215.64,163.81L215.78,162.79L216.81,139.19L216.96,133.75L217.99,104.62L218.13,109.46L218.43,113.05L218.57,101.01L218.87,54.35L219.45,66L219.6,85.12L219.75,72.94L220.04,105.97L220.19,115L222.1,164L222.25,164.12L223.57,164.22L223.71,164.22L229.59,164.02L229.74,163.01L230.47,128.7L230.62,116.46L232.53,16.69L232.67,16.29L233.7,16.49L233.85,17.22L234.44,39.83L234.58,47.99L236.79,164.22L236.93,164.22L243.84,163.46L243.99,160.7L244.57,129.67L244.72,117.22L246.63,17.21L246.78,16.42L247.8,16.61L247.95,17.49L248.69,45.37L248.83,53.2L250.89,164.22L251.04,164.22L257.94,163.61L258.09,161.35L258.53,144.97L258.67,132.43L260.73,18.37L260.88,16.45L261.76,16.47L261.91,16.52L262.2,21.62L262.35,27.59L263.38,86.62L263.52,98.81L264.99,164.22L265.14,164.22L271.89,164.05L272.04,163.16L272.92,122.52L273.07,100.35L273.22,100.33L273.36,85.27L274.83,20.49L274.98,21.61L275.71,16.64L275.86,18.57L276.01,16.96L276.3,21.42L276.45,27.59L277.62,100.65L277.77,113.7L279.09,164.22L279.24,164.22L284.97,164.21L285.11,164.21L286.14,163.84L286.29,163.04L286.88,134.59L287.02,121.88L288.49,28.23L288.64,63.37L289.67,17.63L289.82,21.73L289.96,16.5L290.4,21.99L290.55,27.03L291.43,75.86L291.58,88.12L293.19,164.22L293.34,164.21L300.54,163.72L300.69,160.29L302.59,65.18L302.74,70.92L303.04,72.57L303.18,38.7L303.33,67.78L303.48,100.15L304.65,17.56L304.8,24.47L305.68,116.93L305.83,95.61L306.71,164.09L306.85,164.19L310.82,164.22L310.97,164.22L314.2,164.13L314.35,162.58L315.82,81.13L315.96,51.17L317.14,16.19L317.72,16.29L317.87,16.44L318.46,16.29L318.61,17.4L319.63,75.53L319.78,88.67L321.25,164.22L321.4,164.21L328.45,163.85L328.59,162.07L329.04,147.16L329.18,135.21L331.09,16.07L331.24,16.3L331.39,16.09L332.71,16.38L332.85,19.27L334.03,98.07L334.18,111.43L335.35,164.22L335.5,164.22L342.55,163.76L342.7,162.19L343.14,147.58L343.28,135.96L345.34,20.07L345.49,17.03L345.63,16.23L346.22,16.41L346.37,16.42L346.66,17.21L346.81,20.36L347.84,80.26L347.98,91.86L349.45,164.22L349.6,164.22L356.65,163.81L356.8,161.64L357.24,147.42L357.39,136.52L359.29,29.58L359.44,27.43L360.32,16.16L360.47,16.31L361.06,29.03L361.2,36.42L362.23,106.01L362.38,119.6L363.55,164.23L363.7,164.22L370.75,163.77L370.9,161.24L371.78,116L371.93,105.07L373.54,24.41L373.69,21.88L374.42,17.77L374.57,18.42L374.72,18.93L375.31,37.67L375.45,44.8L377.8,164.22L377.95,164.21L384.85,163.9L385,162.61L385.44,149.41L385.59,138.71L387.64,25.13L387.79,21.96L388.38,16.75L388.53,23.78L388.82,17.19L389.11,22.96L389.26,29.25L391.32,164.03L391.46,164.2L395.28,164.22L395.43,164.22L398.96,163.89L399.1,162.81L399.69,139.48L399.84,127.07L401.6,29.94L401.75,25.65L402.48,16.77L402.63,19.68L402.77,20.66L402.92,20.74L403.07,23.15L404.24,84.28L404.39,96.73L405.86,164.22L406.01,164.22L413.06,163.87L413.2,161.34L414.38,101.8L414.53,87.18L415.99,24.56L416.14,23.3L416.88,19.23L417.02,21.13L417.17,23.35L417.9,54.27L418.05,63.11L419.96,164.22L420.11,164.22L427.16,163.91L427.31,163.11L427.89,140.37L428.04,127.83L429.95,29.89L430.1,25.41L430.24,22.74L430.39,45.97L430.54,23L430.83,62.33L430.98,83.73L431.12,78.54L431.27,103.23L431.57,64.02L431.86,77.52L432.01,113.92L432.3,129.25L432.45,112.78L432.59,99.88L433.77,164.22L433.92,164.23L437,164.21" style="vector-effect: non-scaling-stroke; fill: none; stroke: rgb(255, 0, 0); stroke-opacity: 1; stroke-width: 2px; opacity: 1;"/></g><g class="points"/><g class="text"/></g><g class="trace scatter trace6b8310" style="stroke-miterlimit: 2; opacity: 0.5;"><g class="fills"/><g class="errorbars"/><g class="lines"><path class="js-line" d="M0,206.49L0.73,187.77L0.88,189.99L1.03,187.6L1.76,190.14L1.91,186.84L2.06,187.33L2.2,251.28L2.94,185.91L3.08,250.93L3.23,264.81L3.38,202.82L3.67,264.1L3.97,189.17L4.11,187.26L4.41,207.45L4.85,204.03L4.99,187.65L6.46,51.4L6.61,53.82L6.76,113.07L7.05,54.08L7.64,73.71L7.79,83.59L8.37,60.97L8.67,62.54L8.81,71.87L9.99,169.59L10.14,244.36L10.43,281.49L10.72,230.49L10.87,227.46L11.6,206.42L11.75,209.74L11.9,204.68L12.05,204.75L12.19,201.82L13.07,190.01L13.22,192.07L13.95,187.45L14.1,190.26L14.25,187.51L14.54,189.37L14.69,195.62L15.13,200.59L15.42,197.41L15.57,193.36L15.86,185.99L16.3,187.4L16.45,188.52L16.89,186.28L17.04,187.54L17.19,189.96L17.33,248.32L17.77,185.68L17.92,187.78L18.07,188.31L18.51,203.16L18.8,197.57L18.95,193.01L20.42,70.22L20.56,128.2L20.86,69.24L21.45,79.68L21.59,68.96L22.18,55.99L22.33,62.77L22.47,64.7L22.62,64.75L22.77,71.45L24.09,243.76L24.24,193.84L24.38,191.9L24.97,214.55L25.41,212.24L25.56,214.08L25.85,214.45L26.73,190.97L26.88,194.1L27.03,192.28L27.17,193.02L27.32,192.49L27.47,189.42L27.62,194.09L27.91,189L28.06,191.81L28.2,188.61L28.5,191.32L28.64,187.26L28.79,191.51L29.38,187.52L29.53,186.82L29.67,186L29.82,190.49L30.55,185.74L30.7,187.52L30.85,250.69L31.73,185.73L31.88,188.37L32.32,205.24L32.46,203.22L32.61,262.5L32.76,264.35L32.9,255.5L34.52,85.7L34.67,86.04L34.81,86.9L34.96,80.13L35.11,98.11L35.25,161.66L35.4,175.56L35.55,103.88L35.99,89.33L36.28,95.4L36.43,101.42L36.87,92.43L37.02,103.61L37.16,110.59L37.31,103.84L37.6,119.78L37.75,135.68L38.04,156.82L38.19,163.53L38.93,212.16L39.37,208.49L39.51,211.7L39.95,216.22L40.25,214.26L40.39,213.88L40.84,192.42L41.42,197.6L41.57,194.02L42.3,192.75L42.45,195.02L42.75,190.05L43.33,191.53L43.48,188.48L43.63,191.67L43.77,188.05L44.07,189.68L44.21,187.75L44.36,188.18L44.51,188.1L44.65,198L44.8,202.23L44.95,189.02L45.1,188.94L45.24,187.39L45.39,249.26L45.83,187.83L46.12,247.63L46.27,265.48L47.15,166.06L47.3,154.32L48.91,73.39L49.06,86.97L49.94,122.26L50.24,117.52L50.38,107.96L50.53,109.79L50.68,94.37L50.82,93.63L50.97,95.43L51.12,111.01L51.56,143.94L51.71,156.9L53.03,205.23L53.17,203.06L53.47,202.1L53.91,211.82L54.06,208.75L54.2,272.54L54.5,295.85L54.64,232.98L54.79,209.43L55.52,201.17L55.67,205.38L55.82,205.42L55.97,200.09L56.55,201.95L56.7,202.15L56.85,204.6L57.14,198.89L57.29,201.46L57.43,201.44L58.02,186.42L58.32,188.44L58.46,188.07L58.76,185.78L59.05,193.39L59.2,187.78L59.49,189.58L59.93,186.29L60.08,187.55L60.23,187.76L60.37,186.58L60.52,186.06L60.67,245.39L61.69,137.62L61.84,138.91L62.87,111.38L63.02,172.61L63.9,80.35L64.04,140.48L64.19,155.95L64.34,88.2L64.49,82.54L64.78,99.2L64.93,104.92L65.22,197.74L65.66,134.02L65.81,144.41L65.95,138.4L66.25,154.35L66.39,172.69L67.13,217.57L67.42,214.73L67.57,212.28L68.01,220.52L68.16,219.96L68.3,226.66L68.89,216.62L69.19,218.21L69.33,216.05L69.63,216.94L71.1,191.43L71.24,191.83L71.68,190.09L71.83,200.01L71.98,201.97L72.12,201.44L72.27,191.96L72.86,188.6L73,189.3L73.15,252.87L73.3,265.44L73.45,204.55L73.59,188.47L73.74,250.84L73.89,269.65L74.18,188.16L74.77,191.92L74.91,187.14L75.21,258.78L75.5,183.41L75.65,181.23L76.09,260.82L76.24,202.07L76.38,162.13L76.97,70.74L77.12,127.82L77.26,157.99L77.41,159.85L77.56,100.16L77.71,81.57L78.29,93.16L78.44,85.39L78.73,85.24L79.03,95.5L79.17,153.47L79.47,198.24L79.76,141.67L79.91,154.96L80.06,169.02L81.38,248.35L81.52,235.57L82.55,199.01L82.7,203.24L82.85,193.15L83.14,196.18L83.43,194.42L83.58,191.82L83.87,196.34L84.02,191.24L84.17,188L84.32,195.85L84.61,188.63L84.76,193.94L84.9,188.07L85.49,192.69L85.64,189.04L86.08,191.36L86.22,188.18L86.37,191.43L86.81,187.91L86.96,188.97L87.11,190L87.25,186.48L87.4,190.94L87.55,186.97L87.69,250.04L87.84,264.66L87.99,204.1L88.72,185.68L88.87,186.52L89.02,186.3L89.6,157.95L89.75,221.02L89.9,227.79L90.04,164.49L91.22,112.99L91.37,121.95L91.81,79.57L92.1,87.61L92.25,137.97L92.54,164.29L92.69,103.01L92.83,94.07L92.98,94.52L93.13,101.71L93.28,101.85L93.42,99.65L94.89,212.8L95.04,222.04L95.19,228.26L95.63,219.03L95.77,222.04L95.92,208.74L96.07,208.79L96.21,205.88L96.8,211.77L96.95,199.37L97.24,205.36L97.39,198.33L97.54,202.39L97.68,196.42L97.83,199.77L97.98,191.15L98.12,191.35L98.27,193.3L98.42,194.52L98.71,190.75L98.86,189.62L99.15,188.01L99.3,193.4L99.59,190.48L99.74,191.12L100.77,187.36L100.91,200.51L101.21,198.86L101.35,201.94L101.5,187.98L101.65,189.88L101.8,188.47L101.94,248.19L102.09,267.32L102.38,265.18L102.53,203.42L102.82,186.2L102.97,244.31L103.12,255.61L103.26,209.61L104.88,83.02L105.03,143.27L105.17,158.47L105.32,89.07L105.91,61.98L106.2,62.42L106.35,68.83L107.23,187.18L107.38,182.6L107.52,118.76L107.67,110.88L107.96,134.41L108.11,139.63L108.99,275.52L109.14,300.89L109.29,292.94L109.43,241.06L110.17,204.9L110.31,210.5L110.46,208L110.61,208.08L110.76,207.2L110.9,207.52L111.05,206.21L111.2,202.75L111.34,204.25L111.64,203.36L111.78,200.06L112.96,190.4L113.11,194.8L113.69,187.54L113.84,189.27L113.99,193.89L114.87,188.46L115.02,189.52L115.16,187.25L115.31,251.04L115.75,251.9L116.04,186.83L116.19,190.86L116.34,188.87L116.63,276.22L117.07,203.2L117.22,177.63L119.28,87.48L119.57,95.54L119.72,151.87L120.01,74.13L120.3,180.52L120.6,86.44L120.74,89.25L121.04,92.14L121.18,153.21L121.33,177.73L121.63,104.32L121.77,114.29L122.65,173.04L122.8,257.19L122.95,295.41L123.39,221.67L123.54,229.08L124.86,198.73L125,202.5L125.89,192.87L126.03,196.53L126.47,189.19L126.91,191.93L127.06,190.81L127.21,190.91L127.35,192.66L128.09,187.06L128.24,189.03L128.38,251.24L128.97,188.39L129.26,197.34L129.41,200.43L129.56,192.31L129.85,208.3L130,212.46L130.73,186.11L130.88,249.55L131.32,189.37L131.61,250.21L131.76,264.14L132.79,113.15L132.94,118.05L133.08,117.54L134.26,59.77L134.41,72.23L134.55,77.55L134.99,196.98L135.29,110.64L135.43,113.09L135.73,202.79L136.17,133.76L136.31,151.99L137.05,206.08L137.2,230.36L138.08,207.53L138.22,211.75L138.37,210.96L139.4,194.17L139.55,192.02L139.99,196.57L140.13,191.78L140.28,190.46L140.43,193.66L141.02,191.34L141.16,191.17L141.46,187.92L141.9,190.79L142.04,190.34L142.63,190.44L142.92,188.61L143.07,188.93L143.22,188.08L143.37,188.69L143.51,191.52L143.66,186.49L144.1,187.95L144.25,196.39L144.39,210.78L144.98,199.09L145.13,189.01L145.86,277.12L146.01,230.49L146.16,269.17L146.6,208.99L146.74,202.58L147.77,163.02L147.92,215.4L148.07,212.23L148.21,136.4L148.36,97.06L148.65,155.3L148.8,153.71L148.95,176.33L149.24,184.36L149.39,133.01L149.68,178.95L149.83,187.82L149.98,219.01L150.56,203.53L150.71,190.22L150.86,191.56L151,187.95L151.15,196.18L151.44,209.9L152.03,208.65L152.18,204.36L152.33,194.65L152.62,204.59L152.91,203.78L153.06,203.67L153.21,203.61L153.35,202.43L153.65,203.21L154.24,191.37L154.38,187.36L154.97,185.93L155.12,190.95L155.26,188.3L155.56,189.29L155.85,186.88L156,188L156.14,191.07L156.44,265.14L156.88,187.14L157.03,186.5L157.17,188.22L157.76,186.61L157.91,188.03L158.35,189.59L158.79,186.35L158.94,187.87L159.08,188L159.23,248.04L160.11,182.87L160.26,180.35L160.55,258.69L160.85,168.19L160.99,177.91L161.14,171.17L162.17,70.11L162.46,71.33L162.61,150.48L162.75,188.8L163.2,158.86L163.34,94.98L163.78,85.63L163.93,102.23L164.08,102.58L165.69,200.89L165.84,202.79L166.57,194.13L166.72,196.28L166.87,198.4L168.04,189.95L168.19,193.52L169.07,188.04L169.22,187.52L169.37,191.11L169.51,186.27L169.95,187.26L170.1,186.81L170.25,189.3L170.39,185.83L170.83,188.27L170.98,187.1L171.13,185.43L171.27,197.23L171.42,200.67L171.57,196.7L171.72,187.8L171.86,189.57L172.16,185.36L172.45,188.98L172.6,185.29L172.89,186.92L173.04,188.38L173.18,184.7L173.33,195.65L173.48,209.55L173.62,207.01L173.77,263.56L174.65,174.17L174.8,172.47L174.95,176.46L175.09,174.1L175.24,157.23L175.39,151.56L175.53,196.45L176.42,62.78L176.56,63.92L176.71,75.59L176.86,85.76L177,147.44L177.3,89.85L177.59,160.72L177.74,170.21L177.88,167.2L178.03,191.21L178.18,139.92L178.62,157.4L178.77,220.73L178.91,251.75L179.21,193.97L179.35,199.78L179.5,210.97L179.65,216.16L179.94,206.81L180.09,211.09L180.23,209.52L181.56,200.93L181.7,200.92L181.85,202.5L182,197.89L182.14,197.49L182.29,202.02L182.59,195.33L182.73,197.42L182.88,189.77L183.32,190.5L183.61,185.32L183.76,187.22L183.91,190.67L184.2,185.99L184.64,186.54L184.79,189.97L185.08,185.64L185.52,187.75L185.67,187.59L185.82,189.05L186.26,186.76L186.4,185.84L186.99,199.99L187.14,261.35L187.43,187.42L188.02,195.32L188.17,196.75L188.9,284.75L189.05,275.28L189.2,210.13L189.49,176.77L189.64,231.17L189.78,244.39L189.93,236.03L190.08,160.41L191.1,79.34L191.25,73.11L191.55,70.99L191.69,149.76L192.13,180.08L192.28,126.86L192.43,120.61L192.72,133.78L192.87,138.66L194.48,197.86L194.63,189.74L195.07,196.51L195.22,189.24L195.51,196.25L195.66,188.52L195.81,186.69L195.95,189.82L196.1,187.95L196.25,194.26L197.27,186.05L197.42,188.69L197.57,191.8L197.86,186.41L198.16,188.5L198.3,187.06L198.45,191.54L199.04,186.82L199.18,188.89L199.62,185.94L199.92,189.01L200.07,188.51L200.21,190.42L200.36,188.37L200.51,248.31L200.95,185.86L201.39,196.11L201.53,198.21L201.68,262.51L202.12,180.32L202.27,182.08L202.56,172.29L202.71,179.06L202.86,187.77L203,188.24L203.15,186.93L203.3,178.5L203.59,164.27L203.74,174.28L203.88,182.89L204.03,193.45L204.47,183.97L204.62,169.99L205.06,130.25L205.21,200.29L205.35,199.21L205.5,204.5L206.09,133.79L206.23,164.42L206.38,171.27L206.53,166.61L206.97,174.73L207.12,184.73L207.41,187.95L207.56,195.13L207.7,203.31L208,190.76L208.14,193.35L208.29,190.08L209.03,203.61L209.17,202.1L209.32,200L209.47,202.9L209.76,199.7L209.91,192.09L210.35,186.27L210.79,186.7L210.94,187.86L211.08,190.78L211.38,186.34L211.67,190.16L211.82,186.18L211.96,186.43L212.11,188.99L212.26,188.74L212.4,186.54L212.7,189.47L212.84,187.32L212.99,186.26L213.29,189.8L213.43,195.09L213.58,197.49L213.73,269.81L214.61,187.55L214.75,188.38L215.05,187.29L215.19,195.64L215.64,273.12L215.78,216.2L216.66,168.49L216.81,225.29L217.25,147.37L217.69,153.11L217.84,138.46L217.99,130.6L218.28,147.67L218.43,154.15L218.87,180.91L219.31,104.13L219.45,108.45L219.6,127.51L219.75,115.53L219.9,193.25L220.04,214.46L220.34,148.78L220.48,160.99L220.63,159.63L220.78,164.54L220.92,163.46L221.07,174.6L221.22,174.56L221.36,179.28L221.66,185.39L221.81,252.45L221.95,270.94L222.1,269.68L222.25,207.52L222.98,190.03L223.13,193.12L223.27,193.3L223.42,190.37L223.57,189.83L223.71,196.26L223.86,196.81L224.01,191.09L224.3,188.73L224.45,186.35L224.6,186.45L224.74,190.41L225.04,185.99L225.62,187.4L225.77,188.47L226.51,186.1L226.65,186.83L226.8,187.01L226.95,187.27L227.09,186.54L227.24,186.79L227.39,186.25L227.53,186.43L227.68,185.74L227.97,185.92L228.12,185.78L228.42,186.31L228.71,185.63L228.86,185.45L229.15,185.74L229.3,194.89L229.44,197.03L229.59,187.81L229.74,186.32L229.88,260.93L230.62,262.48L230.91,149.35L231.06,131.9L231.94,81.38L232.09,82.54L232.23,71.17L232.53,49.39L232.97,65.06L233.12,72.71L233.41,73.26L233.85,63.14L234,65.05L234.14,83.07L234.29,91.1L234.44,161.33L234.58,187.45L234.73,131.08L235.03,134.81L235.17,153.21L235.32,153.2L235.47,170.67L236.2,202.69L236.64,201.64L236.79,195.58L236.93,200.96L237.08,193.52L237.52,196.07L237.67,193.24L237.82,196.89L238.11,189.08L238.4,193.94L238.55,189.83L238.99,191.22L239.14,185.89L239.29,188.72L239.43,198.53L239.58,196.54L239.73,200.25L240.17,198.27L240.31,200.96L241.34,185.82L241.49,188.26L242.22,185.53L242.37,187.2L242.66,198.3L242.81,196.12L242.96,258.71L243.4,262.4L243.84,206.81L243.99,206.97L244.13,209.48L244.28,206.6L244.43,189.52L245.16,125.22L245.31,182.05L245.45,192.41L245.6,134.73L246.34,73.04L246.48,81.74L246.63,134.32L246.78,147.42L246.92,78.59L247.07,63.78L247.22,79.25L247.51,76.93L247.66,85.18L249.13,147.09L249.27,220.82L249.42,249.63L249.57,202.33L250.01,224.48L250.15,226.54L250.3,222.85L250.45,289.45L250.6,304L250.74,236.61L251.62,207.09L251.77,207.57L251.92,211.57L252.21,204.96L252.36,202.1L252.51,201.62L252.65,205.19L253.09,205.22L253.24,198.4L253.39,200.58L253.53,203.11L254.56,187.46L254.71,189.57L255.15,189.9L255.3,185.53L255.74,186.39L255.88,248.98L256.03,264.15L256.18,203.3L256.47,185.43L256.91,186.18L257.06,194.76L257.35,198.45L257.5,188L257.65,247.74L258.23,196.06L258.38,198.27L259.12,143.58L259.26,131.51L259.41,133.61L259.56,119.14L260,102.24L260.14,94.92L261.02,71.56L261.32,75.81L261.47,82.72L261.91,99.88L262.2,95.44L262.35,92.64L264.4,242.55L264.7,234.83L264.84,227.41L264.99,224.88L265.14,278.59L265.28,282.49L265.43,279.82L265.58,216.88L266.31,195.32L266.46,200.56L266.61,192.42L266.75,195.62L267.34,192.07L267.49,192.73L267.78,190.82L268.22,202.85L268.66,199.24L268.81,200.62L268.96,199.16L269.4,202.08L269.54,192.16L270.28,186.25L270.43,188.38L270.57,188.06L270.72,185.83L271.45,198.27L271.6,190.27L271.89,265.11L272.34,192.43L272.48,194.82L272.63,195.93L272.78,184.62L273.07,149.56L273.22,216.45L273.36,213.96L273.51,147.96L273.66,122.94L273.8,167.98L273.95,201.09L274.83,104.44L274.98,103.2L275.13,96.77L275.42,108.99L275.71,102.29L275.86,109L276.3,109.75L276.6,99.48L276.74,167.07L277.04,197.12L277.18,137.32L277.33,134.83L277.48,158.13L277.62,157.38L277.77,170.45L278.95,289.08L279.09,232.55L279.83,207.81L279.97,209.14L280.12,199.18L280.86,192.17L281,192.46L281.15,194.98L281.3,194.12L281.44,199.4L281.59,201.89L281.74,199.31L282.18,199.46L282.32,190.44L282.76,191.29L283.21,187.23L283.35,188L283.5,187.3L283.65,187.75L283.79,190.18L284.53,185.92L284.67,187.43L285.26,186.24L285.41,187.53L285.56,185.47L285.85,187.29L286,186.68L286.14,199.42L286.29,206.83L286.44,267.12L287.17,153.38L287.32,156.38L287.47,152.2L287.76,135.6L287.91,195.86L288.05,189.52L288.2,125.07L289.23,78.48L289.37,71.68L290.26,87.24L290.4,156.51L290.7,194.25L290.84,133.05L290.99,123.98L292.75,224.1L292.9,219.07L293.19,221.18L293.34,218.54L293.49,216.03L293.78,208.22L294.22,213.7L294.37,212.34L295.54,197.75L295.69,201.7L296.13,203.28L296.57,187.07L297.01,187.79L297.16,190.28L297.45,191.61L297.75,185.91L298.04,187.31L298.19,193.85L298.63,186.26L298.78,188.03L298.92,200.4L299.22,188.94L299.36,252.5L299.51,264.81L299.66,205.24L299.8,187L300.39,190.9L300.54,191.93L301.86,124.87L302.01,143.9L302.45,119.67L302.59,177.52L302.74,202.19L303.04,136.05L303.18,108.45L303.48,166.56L304.06,147.41L304.21,138.24L304.65,55.77L304.95,92.62L305.09,141.82L305.24,132.2L305.53,155.92L305.68,153.85L305.83,135.25L305.97,240.76L306.56,275.77L306.71,215.11L307,197.39L307.44,210.1L307.59,208.93L307.74,208.93L307.88,207.19L308.03,209.25L308.32,207.7L308.47,197.84L308.76,191.92L309.35,193.11L309.5,191.65L309.94,185.57L310.53,185.99L310.67,187.38L310.97,186.02L311.26,189.42L311.41,186.23L311.7,187.12L311.85,248.39L312.44,185.73L312.73,188.37L312.88,257.17L313.76,197.06L313.91,197.19L314.79,176.05L314.93,178.64L315.08,172.74L315.23,167.08L315.37,210.16L315.52,227.98L315.67,160.94L315.82,123.8L316.84,52.1L316.99,51.22L317.14,50.58L317.28,51L317.43,58.09L318.02,75.43L318.17,135.19L318.31,141.66L318.46,75.58L318.61,73.89L318.75,78.86L318.9,76.64L319.05,81.27L320.22,181.56L320.37,187.09L320.66,203.61L321.1,201.54L321.25,194.79L321.4,193.54L321.54,199.64L322.43,203.31L322.57,198.43L323.16,185.63L323.45,188.06L323.6,187.1L324.19,185.6L324.33,185.89L324.48,186.13L324.63,187.36L324.78,185.86L325.07,186.01L325.22,185.75L325.51,186.21L325.95,185.74L326.1,185.44L326.39,185.68L326.54,185.24L326.83,185.6L326.98,185.9L327.71,185.13L327.86,194.45L328.01,267.72L328.59,204.72L328.74,195.67L329.92,133.82L330.06,193.79L330.21,212L330.65,177.87L330.8,109.66L331.68,42.62L331.83,51.21L331.97,61.58L332.12,70.35L332.56,53.51L332.71,50.08L333.44,85.28L333.59,99.58L334.18,141.26L334.32,162.43L335.2,193.76L335.35,192.11L335.5,191.5L336.23,187.99L336.38,189.73L336.53,189.44L337.41,185.87L337.55,185.72L337.85,187.73L338,187.2L338.14,185.84L338.29,186.48L338.88,185.93L339.02,185.84L340.05,185.5L340.2,185.34L340.93,185.78L341.08,185.26L341.37,185.91L341.52,185.73L341.67,247.28L341.81,272.02L341.96,212.39L342.11,188.05L342.4,263.18L342.84,182.17L342.99,179.21L345.49,70.28L345.63,68.5L346.22,150.35L346.37,99.39L346.66,76.5L347.1,91.64L347.25,102.57L347.4,98.61L347.54,108.89L347.69,119.76L349.01,205.11L349.31,202.96L349.45,203.59L350.19,199.06L350.33,192.38L351.22,185.68L351.66,186.05L351.8,186.54L352.1,185.38L352.39,186.12L352.54,188.57L352.68,185.41L353.27,185.76L353.42,186.36L354.15,185.46L354.45,185.77L354.59,247.78L354.89,185.76L355.48,187.85L355.62,194.38L355.92,197.06L356.06,188.06L357.24,171.12L357.39,160.5L358.56,63.08L359,71.12L359.15,81.32L359.29,70.71L359.44,90.47L359.59,78.6L359.74,138.5L359.88,143.22L360.03,83.1L360.32,66.1L360.76,81.47L360.91,148.2L361.06,169.78L361.2,104.28L361.35,102.08L361.79,115L361.94,186.92L362.53,263.16L362.67,215.44L362.82,207.14L363.41,214.9L363.55,204.04L364.14,198.89L364.44,201.02L364.58,200.88L365.17,197.51L365.32,198.03L365.46,198.96L365.76,195.48L365.9,196.64L366.05,198.76L366.2,195.64L366.79,197.96L366.93,197.47L367.08,197.58L367.23,196.49L368.26,186.09L368.4,186.73L368.55,187.08L368.7,249.35L369.14,186.01L369.28,186.03L369.43,186.44L370.02,186.12L370.16,195.24L370.31,197.52L370.46,188.88L370.61,186.48L370.75,186.68L370.9,184.98L372.07,145.77L372.22,123.96L372.51,95.64L372.66,146.24L372.81,162.24L372.96,96.34L373.1,80.54L373.25,144.64L373.4,149.25L373.84,172.4L374.13,81.25L374.28,89.67L374.57,65.65L375.01,76.83L375.16,80.61L375.89,139.56L376.04,206.91L376.33,256.72L376.63,199.04L376.77,210.45L376.92,216.28L377.07,224.32L377.51,211.06L377.66,212.77L377.8,213.15L377.95,211.86L378.1,210L378.24,211.06L378.39,200.6L378.54,201.68L378.68,197.56L378.83,199.33L378.98,196.67L380.15,185.88L380.3,186.62L380.45,189.68L380.59,186.38L381.33,186.49L381.48,186.91L381.77,186.39L381.92,186.94L382.06,187.81L382.65,185.66L382.94,186.09L383.09,185.81L383.38,186.44L383.83,185.92L383.97,186.27L384.12,185.86L384.27,248.19L384.41,272.53L384.56,212.44L384.71,188.08L385,186.09L385.15,189.27L385.29,199.49L386.03,150.61L386.18,210.84L386.32,209.91L386.47,134.76L387.94,63.51L388.09,78.5L388.23,79.04L388.38,75.52L388.97,74.7L389.41,127.38L389.55,147.81L390.73,293.19L390.88,225.28L391.61,190.16L391.76,193.8L391.9,194.25L392.64,189.62L392.79,191.77L392.93,191.85L393.08,189.64L393.81,186.26L393.96,189.36L394.7,185.62L394.84,185.98L394.99,187.57L395.28,185.56L395.58,186.07L395.72,187.48L396.16,185.59L396.61,185.84L396.75,185.45L396.9,247.83L397.49,195.04L397.63,205.6L397.93,230.37L398.37,210.08L398.51,208.15L398.66,189.98L398.81,247.5L399.25,193.3L399.4,191.75L400.86,78.41L401.01,133.01L401.16,144.34L401.6,134.08L401.75,129.1L401.89,127.99L402.04,64.13L402.19,55.05L402.77,63.41L402.92,65.96L403.07,61.54L403.36,71.74L403.51,79.23L403.8,183.14L404.39,151.39L404.54,170.55L405.27,227.94L405.71,218.85L405.86,206.56L406.3,192.57L406.45,255.23L406.59,268.18L406.74,208.48L407.62,186.35L407.77,189.66L408.5,186.1L408.65,188.4L409.09,185.96L409.38,186.82L409.53,187.48L410.41,185.92L410.56,185.61L411.44,186.06L411.59,185.49L412.47,186.13L412.62,185.6L412.91,186.34L413.06,204.22L413.2,267.93L413.64,187.63L413.79,162.95L414.09,212.37L414.38,134.04L414.53,121.81L415.11,74.14L415.41,95.91L415.55,102.45L415.7,105.32L415.85,91.34L416.58,52.57L416.73,63.97L416.88,70.41L417.02,71.31L417.17,131.81L417.46,162.11L417.61,107.48L417.76,88.58L417.9,96.56L418.05,176.92L418.49,235.17L418.79,177.76L418.93,194.31L419.08,194.56L419.23,200.15L419.37,194.83L419.67,205L419.81,202.39L419.96,206.28L420.11,204.69L420.25,210.29L420.4,212.32L420.7,191.38L421.14,201.9L421.28,203.25L422.75,186.6L422.9,187.23L423.05,187.36L423.19,187.49L423.34,186.58L423.49,187.84L423.63,185.97L424.07,186.95L424.22,185.95L425.54,185.65L425.69,185.58L425.98,185.66L426.13,247.29L426.72,185.25L427.01,185.78L427.16,190.1L427.6,199.89L427.75,195.86L427.89,185.12L429.21,84.07L429.36,138.88L429.66,149.92L429.8,146.53L429.95,79.91L430.1,60.27L430.39,96.1L430.68,77.82L430.83,115.82L431.27,158.16L431.71,151.18L431.86,130.31L432.3,172.54L432.74,164.11L432.89,161.69L433.62,195.81L433.92,193.43L434.06,194.54L434.36,190.28L434.5,201.63L434.65,206.17L435.24,203.8L435.38,200.87L435.82,187.55L436.27,189.52L436.41,185.97L436.71,188.77L437,186.15" style="vector-effect: non-scaling-stroke; fill: none; stroke: rgb(0, 128, 0); stroke-opacity: 1; stroke-width: 2px; opacity: 1;"/></g><g class="points"/><g class="text"/></g></g></g><g class="overplot"/><path class="xlines-above crisp" d="M0,0" style="fill: none;"/><path class="ylines-above crisp" d="M0,0" style="fill: none;"/><g class="overlines-above"/><g class="xaxislayer-above"><g class="xtick"><text text-anchor="middle" x="0" y="433" transform="translate(94.1,0)" style="font-family: 'Open Sans', verdana, arial, sans-serif; font-size: 12px; fill: rgb(42, 63, 95); fill-opacity: 1; white-space: pre; opacity: 1;"><tspan class="line" dy="0em" x="0" y="433">Oct 2</tspan><tspan class="line" dy="1.3em" x="0" y="433">2022</tspan></text></g><g class="xtick"><text text-anchor="middle" x="0" y="433" style="font-family: 'Open Sans', verdana, arial, sans-serif; font-size: 12px; fill: rgb(42, 63, 95); fill-opacity: 1; white-space: pre; opacity: 1;" transform="translate(192.81,0)">Oct 9</text></g><g class="xtick"><text text-anchor="middle" x="0" y="433" style="font-family: 'Open Sans', verdana, arial, sans-serif; font-size: 12px; fill: rgb(42, 63, 95); fill-opacity: 1; white-space: pre; opacity: 1;" transform="translate(291.52,0)">Oct 16</text></g><g class="xtick"><text text-anchor="middle" x="0" y="433" style="font-family: 'Open Sans', verdana, arial, sans-serif; font-size: 12px; fill: rgb(42, 63, 95); fill-opacity: 1; white-space: pre; opacity: 1;" transform="translate(390.23,0)">Oct 23</text></g><g class="xtick"><text text-anchor="middle" x="0" y="433" style="font-family: 'Open Sans', verdana, arial, sans-serif; font-size: 12px; fill: rgb(42, 63, 95); fill-opacity: 1; white-space: pre; opacity: 1;" transform="translate(488.94,0)">Oct 30</text></g></g><g class="yaxislayer-above"><g class="ytick"><text text-anchor="end" x="79" y="4.199999999999999" transform="translate(0,418.94)" style="font-family: 'Open Sans', verdana, arial, sans-serif; font-size: 12px; fill: rgb(42, 63, 95); fill-opacity: 1; white-space: pre; opacity: 1;">−100</text></g><g class="ytick"><text text-anchor="end" x="79" y="4.199999999999999" style="font-family: 'Open Sans', verdana, arial, sans-serif; font-size: 12px; fill: rgb(42, 63, 95); fill-opacity: 1; white-space: pre; opacity: 1;" transform="translate(0,341.48)">−50</text></g><g class="ytick"><text text-anchor="end" x="79" y="4.199999999999999" style="font-family: 'Open Sans', verdana, arial, sans-serif; font-size: 12px; fill: rgb(42, 63, 95); fill-opacity: 1; white-space: pre; opacity: 1;" transform="translate(0,264.02)">0</text></g><g class="ytick"><text text-anchor="end" x="79" y="4.199999999999999" style="font-family: 'Open Sans', verdana, arial, sans-serif; font-size: 12px; fill: rgb(42, 63, 95); fill-opacity: 1; white-space: pre; opacity: 1;" transform="translate(0,186.56)">50</text></g><g class="ytick"><text text-anchor="end" x="79" y="4.199999999999999" style="font-family: 'Open Sans', verdana, arial, sans-serif; font-size: 12px; fill: rgb(42, 63, 95); fill-opacity: 1; white-space: pre; opacity: 1;" transform="translate(0,109.11)">100</text></g></g><g class="overaxes-above"/></g></g><g class="polarlayer"/><g class="smithlayer"/><g class="ternarylayer"/><g class="geolayer"/><g class="funnelarealayer"/><g class="pielayer"/><g class="iciclelayer"/><g class="treemaplayer"/><g class="sunburstlayer"/><g class="glimages"/><defs id="topdefs-cb0774"><g class="clips"/><clipPath id="legendcb0774"><rect width="162" height="67" x="0" y="0"/></clipPath></defs><g class="layer-above"><g class="imagelayer"/><g class="shapelayer"/></g><g class="infolayer"><g class="legend" pointer-events="all" transform="translate(525.74,100)"><rect class="bg" shape-rendering="crispEdges" width="162" height="67" x="0" y="0" style="stroke: rgb(68, 68, 68); stroke-opacity: 1; fill: rgb(255, 255, 255); fill-opacity: 1; stroke-width: 0px;"/><g class="scrollbox" transform="" clip-path="url(#legendcb0774)"><g class="groups"><g class="traces" transform="translate(0,14.5)" style="opacity: 1;"><text class="legendtext" text-anchor="start" x="40" y="4.680000000000001" style="font-family: 'Open Sans', verdana, arial, sans-serif; font-size: 12px; fill: rgb(42, 63, 95); fill-opacity: 1; white-space: pre;">BESS</text><g class="layers" style="opacity: 0.5;"><g class="legendfill"/><g class="legendlines"><path class="js-line" d="M5,0h30" style="fill: none; stroke: rgb(0, 191, 255); stroke-opacity: 1; stroke-width: 2px;"/></g><g class="legendsymbols"><g class="legendpoints"/></g></g><rect class="legendtoggle" x="0" y="-9.5" width="156.71875" height="19" style="fill: rgb(0, 0, 0); fill-opacity: 0;"/></g><g class="traces" transform="translate(0,33.5)" style="opacity: 1;"><text class="legendtext" text-anchor="start" x="40" y="4.680000000000001" style="font-family: 'Open Sans', verdana, arial, sans-serif; font-size: 12px; fill: rgb(42, 63, 95); fill-opacity: 1; white-space: pre;">Solar</text><g class="layers" style="opacity: 0.5;"><g class="legendfill"/><g class="legendlines"><path class="js-line" d="M5,0h30" style="fill: none; stroke: rgb(255, 0, 0); stroke-opacity: 1; stroke-width: 2px;"/></g><g class="legendsymbols"><g class="legendpoints"/></g></g><rect class="legendtoggle" x="0" y="-9.5" width="156.71875" height="19" style="fill: rgb(0, 0, 0); fill-opacity: 0;"/></g><g class="traces" transform="translate(0,52.5)" style="opacity: 1;"><text class="legendtext" text-anchor="start" x="40" y="4.680000000000001" style="font-family: 'Open Sans', verdana, arial, sans-serif; font-size: 12px; fill: rgb(42, 63, 95); fill-opacity: 1; white-space: pre;">Grid Meter (Net Load)</text><g class="layers" style="opacity: 0.5;"><g class="legendfill"/><g class="legendlines"><path class="js-line" d="M5,0h30" style="fill: none; stroke: rgb(0, 128, 0); stroke-opacity: 1; stroke-width: 2px;"/></g><g class="legendsymbols"><g class="legendpoints"/></g></g><rect class="legendtoggle" x="0" y="-9.5" width="156.71875" height="19" style="fill: rgb(0, 0, 0); fill-opacity: 0;"/></g></g></g><rect class="scrollbar" rx="20" ry="3" width="0" height="0" x="0" y="0" style="fill: rgb(128, 139, 164); fill-opacity: 1;"/></g><g class="g-gtitle"><text class="gtitle" x="298.5" y="50" text-anchor="middle" dy="0em" style="font-family: 'Open Sans', verdana, arial, sans-serif; font-size: 17px; fill: rgb(42, 63, 95); opacity: 1; font-weight: normal; white-space: pre;"><tspan class="line" dy="0em" x="298.5" y="50">Scenario 4</tspan><tspan class="line" dy="1.3em" x="298.5" y="50">Microgrid Output</tspan><tspan class="line" dy="2.6em" x="298.5" y="50">From: October 01, 2022 to October 31, 2022</tspan></text></g><g class="g-xtitle"><text class="xtitle" x="298.5" y="476.409375" text-anchor="middle" style="font-family: 'Open Sans', verdana, arial, sans-serif; font-size: 14px; fill: rgb(42, 63, 95); opacity: 1; font-weight: normal; white-space: pre;">Time</text></g><g class="g-ytitle"><text class="ytitle" transform="rotate(-90,27.168750000000003,260)" x="27.168750000000003" y="260" text-anchor="middle" style="font-family: 'Open Sans', verdana, arial, sans-serif; font-size: 14px; fill: rgb(42, 63, 95); opacity: 1; font-weight: normal; white-space: pre;">Demand (kW)</text></g></g></svg>