<svg class="main-svg" xmlns="http://www.w3.org/2000/svg" xmlns:xlink="http://www.w3.org/1999/xlink" width="700" height="500" style="" viewBox="0 0 700 500"><rect x="0" y="0" width="700" height="500" style="fill: rgb(255, 255, 255); fill-opacity: 1;"/><defs id="defs-c429fd"><g class="clips"><clipPath id="clipc429fdxyplot" class="plotclip"><rect width="432" height="320"/></clipPath><clipPath class="axesclip" id="clipc429fdx"><rect x="80" y="0" width="432" height="500"/></clipPath><clipPath class="axesclip" id="clipc429fdy"><rect x="0" y="100" width="700" height="320"/></clipPath><clipPath class="axesclip" id="clipc429fdxy"><rect x="80" y="100" width="432" height="320"/></clipPath></g><g class="gradients"/><g class="patterns"/></defs><g class="bglayer"/><g class="layer-below"><g class="imagelayer"/><g class="shapelayer"/></g><g class="cartesianlayer"><g class="subplot xy"><g class="layer-subplot"><g class="shapelayer"/><g class="imagelayer"/></g><g class="gridlayer"><g class="x"><path class="xgrid crisp" transform="translate(93.94,0)" d="M0,100v320" style="stroke: rgb(255, 255, 255); stroke-opacity: 1; stroke-width: 1px;"/><path class="xgrid crisp" transform="translate(191.51999999999998,0)" d="M0,100v320" style="stroke: rgb(255, 255, 255); stroke-opacity: 1; stroke-width: 1px;"/><path class="xgrid crisp" transform="translate(289.1,0)" d="M0,100v320" style="stroke: rgb(255, 255, 255); stroke-opacity: 1; stroke-width: 1px;"/><path class="xgrid crisp" transform="translate(386.68,0)" d="M0,100v320" style="stroke: rgb(255, 255, 255); stroke-opacity: 1; stroke-width: 1px;"/><path class="xgrid crisp" transform="translate(484.26,0)" d="M0,100v320" style="stroke: rgb(255, 255, 255); stroke-opacity: 1; stroke-width: 1px;"/></g><g class="y"><path class="ygrid crisp" transform="translate(0,410.37)" d="M80,0h432" style="stroke: rgb(255, 255, 255); stroke-opacity: 1; stroke-width: 1px;"/><path class="ygrid crisp" transform="translate(0,366.94)" d="M80,0h432" style="stroke: rgb(255, 255, 255); stroke-opacity: 1; stroke-width: 1px;"/><path class="ygrid crisp" transform="translate(0,280.07)" d="M80,0h432" style="stroke: rgb(255, 255, 255); stroke-opacity: 1; stroke-width: 1px;"/><path class="ygrid crisp" transform="translate(0,236.64)" d="M80,0h432" style="stroke: rgb(255, 255, 255); stroke-opacity: 1; stroke-width: 1px;"/><path class="ygrid crisp" transform="translate(0,193.2)" d="M80,0h432" style="stroke: rgb(255, 255, 255); stroke-opacity: 1; stroke-width: 1px;"/><path class="ygrid crisp" transform="translate(0,149.77)" d="M80,0h432" style="stroke: rgb(255, 255, 255); stroke-opacity: 1; stroke-width: 1px;"/><path class="ygrid crisp" transform="translate(0,106.33)" d="M80,0h432" style="stroke: rgb(255, 255, 255); stroke-opacity: 1; stroke-width: 1px;"/></g></g><g class="zerolinelayer"><path class="yzl zl crisp" transform="translate(0,323.51)" d="M80,0h432" style="stroke: rgb(255, 255, 255); stroke-opacity: 1; stroke-width: 2px;"/></g><path class="xlines-below"/><path class="ylines-below"/><g class="overlines-below"/><g class="xaxislayer-below"/><g class="yaxislayer-below"/><g class="overaxes-below"/><g class="plot" transform="translate(80,100)" clip-path="url(#clipc429fdxyplot)"><g class="scatterlayer mlayer"><g class="trace scatter trace859806" style="stroke-miterlimit: 2; opacity: 0.5;"><g class="fills"/><g class="errorbars"/><g class="lines"><path class="js-line" d="M0,223.51L432,223.51" style="vector-effect: non-scaling-stroke; fill: none; stroke: rgb(0, 191, 255); stroke-opacity: 1; stroke-width: 2px; opacity: 1;"/></g><g class="points"/><g class="text"/></g><g class="trace scatter tracebaf178" style="stroke-miterlimit: 2; opacity: 0.5;"><g class="fills"/><g class="errorbars"/><g class="lines"><path class="js-line" d="M0,223.77L4.07,223.17L4.21,220.63L5.37,177.28L5.52,162.74L5.95,94.89L6.1,46.2L6.97,16L7.12,16.11L8.42,16.37L8.57,18.88L9.87,142.49L10.02,161.09L11.18,223.79L11.33,223.79L17.86,223.49L18.01,222.83L19.02,177.16L19.17,166.39L20.62,16.05L20.91,16.17L21.06,16.12L22.22,16.31L22.36,17.74L23.23,79.87L23.38,94.65L25.12,223.79L25.27,223.79L31.66,223.66L31.8,222.72L32.53,185.29L32.67,169.08L34.71,16.5L34.85,16.43L36.16,17.1L36.3,20.57L37.46,115.78L37.61,132.91L39.06,223.79L39.21,223.79L45.74,223.04L45.89,219.81L46.47,185.99L46.61,169.27L48.65,16.51L48.79,16.6L49.95,16.77L50.1,17.43L50.68,47.44L50.82,58.45L53,223.78L53.15,223.78L59.68,223.07L59.83,219.38L60.41,181.94L60.55,165.18L62.73,16.61L62.88,16.66L63.02,16.66L63.75,16.73L63.89,17.45L64.62,52.42L64.76,64.62L66.94,223.78L67.09,223.78L73.77,223.49L73.91,222.99L75.07,175.45L75.22,161.71L75.51,138.37L75.65,48.39L75.8,50.02L75.94,43.98L76.09,34.75L76.67,16.36L77.11,16.44L77.25,16.48L77.54,16.35L77.69,17.19L78.56,57.78L78.7,68.65L80.88,223.79L81.03,223.78L87.56,223.07L87.71,218.98L88.87,133.18L89.01,118.74L90.76,19.77L90.9,17.16L91.34,18.7L91.48,22.01L91.92,31.63L92.06,35.47L92.79,87.75L92.93,101.99L94.82,223.78L94.97,223.78L101.5,223.09L101.65,220.16L102.52,162.63L102.66,147.19L104.55,21.14L104.7,17.74L104.99,16.33L105.13,19.01L105.28,47.3L105.42,18.76L105.71,24.63L105.86,126.33L106.15,165.83L106.29,61.81L106.44,59.23L107.89,210.48L108.04,219.03L108.91,223.78L109.05,223.77L115.44,223.19L115.59,220.57L116.31,175.87L116.46,162.51L118.49,23.56L118.64,20.24L118.93,53.32L119.07,16.59L119.65,23.6L119.8,28.84L120.81,101.51L120.96,117.2L122.56,223.79L122.7,223.79L129.38,223.49L129.53,222.2L130.83,144.6L130.98,132.53L132,38.58L132.14,33.41L133.01,17.69L133.16,18.26L133.3,22.24L133.45,39.27L133.88,32.29L134.03,160.08L134.17,169.22L134.32,168.81L134.46,71.85L136.35,223.78L136.5,223.78L143.61,223.1L143.76,221.41L146.08,151.66L146.23,139.23L146.66,81.63L146.81,27.11L146.95,28.31L147.1,100.74L147.24,138.96L147.68,60.79L147.82,78.44L148.84,202.58L148.99,199.97L149.13,199.85L149.28,189.02L150.29,223.78L150.44,223.77L150.58,223.77L157.41,223.11L157.55,220.03L159.3,175.85L159.44,130.54L159.73,131.61L160.17,76.75L160.31,25.4L160.6,23.16L160.75,44.15L160.89,67.68L161.33,19.34L161.47,25.31L162.64,109.61L162.78,139.61L164.23,223.78L164.38,223.78L171.35,223.32L171.49,222.58L173.24,139.75L173.38,125.82L174.54,22.63L174.69,21.11L175.12,22.89L175.27,25.94L176.14,73.34L176.29,85.88L178.32,223.78L178.46,223.77L185.43,223.19L185.58,221.16L187.76,163.58L187.9,142.5L188.77,24.31L189.21,32.83L189.35,37.05L190.23,89.84L190.37,102.32L192.11,223.79L192.26,223.78L192.4,223.77L199.23,223.42L199.37,222.04L200.24,202.59L200.54,208.38L200.68,205.07L201.12,190.04L201.26,184.36L201.41,188.69L201.7,182.99L201.84,175.07L202.28,162.6L202.42,136.82L202.57,140.46L202.71,120.01L204.46,200.55L204.6,194.16L205.62,223.78L205.76,223.78L213.17,223.21L213.31,221.77L214.33,188.69L214.48,181.07L215.49,140.24L215.64,147.01L215.93,152.05L216.07,135.17L216.36,69.76L216.94,86.1L217.09,112.9L217.23,95.82L217.52,142.12L217.67,154.79L219.56,223.47L219.7,223.65L220.86,223.78L221.01,223.78L226.96,223.5L227.11,222.09L227.83,173.98L227.98,156.83L229.87,16.97L230.01,16.4L231.03,16.69L231.17,17.71L231.76,49.4L231.9,60.85L234.08,223.78L234.22,223.78L240.9,223.52L241.05,222.72L241.63,192.56L241.77,175.35L243.81,17.7L243.95,16.59L244.97,16.86L245.11,18.09L245.7,46.49L245.84,57.17L248.16,223.78L248.31,223.78L254.84,223.55L254.99,222.93L255.57,196.79L255.71,179.21L257.75,19.33L257.89,16.63L258.76,16.66L258.91,16.72L259.2,23.88L259.35,32.24L260.36,114.99L260.51,132.08L261.96,223.78L262.1,223.78L268.78,223.55L268.93,222.3L269.8,165.33L269.95,134.25L271.98,19.08L272.12,20.7L272.41,19.7L272.56,16.9L273.43,40.71L273.58,49.69L275.9,223.78L276.04,223.78L281.71,223.77L281.85,223.77L282.87,223.25L283.01,222.13L283.6,182.25L283.74,164.42L285.19,33.15L285.34,82.41L286.35,18.28L286.5,24.03L286.64,16.7L287.08,24.4L287.23,31.47L288.1,99.91L288.24,117.11L289.84,223.78L289.98,223.77L297.1,223.08L297.25,218.27L299.13,84.95L299.28,92.99L299.57,95.3L299.71,47.82L299.86,88.59L300,133.96L301.17,18.18L301.31,27.87L302.18,157.49L302.33,127.6L303.2,223.6L303.34,223.74L305.67,223.77L305.81,223.77L310.6,223.65L310.75,221.48L312.2,107.3L312.35,65.3L313.51,16.26L314.09,16.41L314.23,16.61L314.82,16.41L314.96,17.97L315.98,99.45L316.12,117.88L317.57,223.78L317.72,223.77L324.69,223.26L324.83,220.77L325.27,199.87L325.42,183.12L327.3,16.1L327.45,16.41L328.32,16.24L328.47,16.27L328.9,16.53L329.05,20.59L330.35,149.78L330.5,168.62L331.51,223.78L331.66,223.78L338.63,223.13L338.78,220.94L339.21,200.46L339.36,184.17L341.24,26.31L341.39,21.71L341.68,16.33L342.26,16.58L342.41,16.6L342.55,16.67L342.7,17.7L343.42,61.85L343.57,74.87L345.45,223.79L345.6,223.78L345.75,223.77L352.57,223.21L352.72,220.17L353.15,200.23L353.3,184.94L355.18,35.04L355.33,32.02L356.2,16.22L356.35,16.44L356.93,34.27L357.07,44.62L358.09,142.18L358.23,161.23L359.39,223.79L359.54,223.78L366.51,223.16L366.66,219.61L367.67,140.86L367.82,123.68L369.27,27.79L369.41,24.25L370.14,18.48L370.29,19.39L370.43,20.11L371.01,46.38L371.16,56.37L373.48,223.78L373.63,223.77L380.45,223.33L380.6,221.52L381.18,188.02L381.32,170.33L383.21,28.79L383.35,24.35L383.94,17.06L384.08,26.9L384.37,17.67L384.66,25.76L384.81,34.57L386.84,223.52L386.98,223.76L390.76,223.78L390.91,223.78L394.39,223.32L394.54,221.8L395.12,189.1L395.26,171.7L397.15,29.53L397.29,25.39L397.88,17.07L398.02,21.16L398.17,22.53L398.31,22.65L398.46,26.02L399.62,111.72L399.76,129.18L401.22,223.79L401.36,223.78L408.33,223.29L408.48,219.75L409.64,136.27L409.78,115.78L411.23,28.01L411.38,26.23L412.11,20.52L412.25,23.2L412.4,26.3L413.12,69.64L413.27,82.04L415.16,223.79L415.3,223.79L421.11,223.77L421.25,223.77L422.27,223.34L422.42,222.22L423,190.35L423.14,172.77L425.03,35.48L425.18,29.19L425.32,25.45L425.47,58.01L425.61,25.81L425.9,80.94L426.05,110.95L426.19,103.67L426.34,138.28L426.63,83.31L426.92,102.24L427.06,153.27L427.35,174.76L427.5,151.67L427.64,133.59L428.81,223.79L428.95,223.79L432,223.77" style="vector-effect: non-scaling-stroke; fill: none; stroke: rgb(255, 0, 0); stroke-opacity: 1; stroke-width: 2px; opacity: 1;"/></g><g class="points"/><g class="text"/></g><g class="trace scatter tracea0759b" style="stroke-miterlimit: 2; opacity: 0.5;"><g class="fills"/><g class="errorbars"/><g class="lines"><path class="js-line" d="M0,283.03L0.73,256.79L0.87,259.91L1.02,256.56L1.45,256.52L1.74,260.12L1.89,255.49L2.18,258.96L2.32,257.51L2.47,255.02L2.76,259.72L2.9,254.19L3.19,256.21L3.34,256.18L3.49,259.84L3.78,254.07L4.07,256.09L4.21,258.8L5.08,234.06L5.23,226.48L5.95,135.72L6.1,90.76L6.68,65.21L6.97,69.39L7.12,73.72L7.55,65.63L7.7,79.48L7.84,74.96L7.99,74.87L9.15,127.64L9.29,143.14L10.75,278.04L11.18,268.82L11.33,272.07L11.76,264.87L11.91,277.47L12.05,276.49L12.92,259.94L13.07,262.83L13.79,256.35L13.94,260.29L14.81,254.67L14.96,259.13L15.39,261.51L15.68,254.3L15.83,257.94L16.7,254.71L16.84,256.48L16.99,259.86L17.13,254.8L17.43,257.37L17.57,253.87L17.86,257.56L18.15,257.35L18.3,250.23L19.6,142.98L19.75,110.21L20.62,78.13L20.77,84.43L20.91,86.27L21.2,89.64L21.35,74.61L21.64,76.11L21.78,85.54L21.93,72.06L22.36,84.34L22.51,93.73L23.23,144.7L23.38,168.31L23.52,172.01L23.67,197.95L24.69,278.7L25.12,275.47L25.27,278.04L25.56,278.56L26.28,265.2L26.43,261.28L26.57,265.67L27.01,263.41L27.15,259.11L27.3,265.65L27.59,258.51L27.74,262.46L27.88,257.97L28.17,261.77L28.32,256.08L28.46,262.04L29.04,256.45L29.19,255.46L29.33,254.31L29.48,260.61L30.2,253.96L30.35,256.45L30.49,258.13L31.07,258.86L31.37,253.93L31.51,257.63L32.24,243.41L32.38,236.8L34.56,90.26L34.85,102.05L35,99.83L35.29,94.65L35.43,102.64L35.58,100.04L35.72,122.46L36.16,104.63L36.45,107.51L36.59,123.18L38.05,245.32L38.19,276.69L38.34,269.58L38.48,290.99L38.77,282.43L38.92,285.84L39.35,275.08L39.79,278.29L39.93,277.76L40.37,263.31L40.8,265.18L40.95,270.57L41.82,263.78L41.97,266.97L42.26,259.99L42.84,262.07L42.98,257.79L43.13,262.26L43.27,257.18L43.56,259.47L43.71,256.77L44.29,261.42L44.43,255.42L44.58,258.44L45.16,256.91L45.31,256.88L45.45,257.16L45.6,253.85L45.74,257.15L46.03,250.88L46.18,245.85L48.35,96.45L48.5,102.98L48.65,101.3L48.94,90.93L49.23,98.67L49.37,114.93L49.52,100.91L49.95,116.21L50.1,119.61L50.53,149.19L50.68,142.83L50.82,171.78L50.97,167.21L51.11,182.25L51.26,195.98L53.29,290.51L53.44,286.21L53.87,299.72L54.02,298.45L54.16,287.16L54.89,275.58L55.03,281.48L55.18,281.54L55.33,274.06L55.91,276.67L56.05,276.96L56.2,280.39L56.49,272.39L56.63,275.99L56.78,275.95L57.36,254.9L57.65,257.74L57.79,257.22L58.08,254L58.37,264.68L58.52,256.8L58.66,255.49L58.81,259.34L59.25,254.73L59.39,256.49L59.54,256.79L60.12,242.39L60.26,236.65L60.99,186.5L61.13,175.79L62.59,87.19L62.73,102.04L62.88,104.82L63.02,108.12L63.17,103.08L63.46,103.6L63.6,95.5L64.04,104.49L64.18,109.37L64.33,111.24L64.47,130.91L64.62,131.59L64.76,162.29L65.2,184.45L65.34,198.94L66.36,298.57L66.8,291.15L66.94,292.97L67.09,295.4L67.23,290.2L67.38,286.28L67.52,295.68L67.67,284.92L67.96,287.79L68.1,281.6L68.39,283.83L68.54,280.8L68.83,282.05L68.97,275.15L69.27,279.79L69.41,277.88L69.56,276.5L69.7,277.21L69.85,266.13L70.72,260.33L70.86,260.05L71.01,261.45L71.44,259.54L71.59,259.17L72.02,257.96L72.31,261.19L72.46,257.1L73.04,263L73.19,259.29L73.33,257.35L73.91,262.61L74.06,255.91L74.35,247.75L74.49,259.24L74.93,259.8L75.51,189.58L75.65,112.27L76.24,85.89L76.53,93.43L76.67,96.63L76.82,92.28L76.96,92.6L77.11,106.71L77.54,82L77.83,94.3L77.98,100.15L80.45,294.82L80.74,289.39L80.88,292.66L81.9,264.34L82.04,265.45L82.19,268.58L82.62,262.47L82.77,263.62L82.91,268.81L83.21,257.11L83.35,268.13L83.5,257.86L83.64,257.99L83.79,265.45L83.93,257.21L84.51,263.7L84.66,258.58L85.09,261.83L85.24,257.38L85.38,261.93L85.82,256.99L85.96,258.48L86.11,259.92L86.25,254.99L86.4,261.24L86.84,256L86.98,257.96L87.42,259.93L87.71,253.86L87.85,255.05L88,254.73L89.59,133.38L89.74,114.42L89.89,116.21L90.03,112.05L90.18,105.05L90.32,117.61L90.47,92L91.05,116.39L91.19,100.11L91.48,99.66L91.63,100.62L91.77,109.8L91.92,110.43L92.06,120.52L92.21,120.72L92.35,130.13L94.1,282.28L94.24,286.2L94.39,291.11L94.82,283.07L94.97,286.26L95.11,282.19L95.69,290.45L95.84,273.06L96.13,281.45L96.27,271.6L96.42,277.29L96.56,268.92L96.71,273.62L96.86,261.54L97,261.81L97.15,264.55L97.29,266.26L97.58,260.97L97.73,259.39L98.02,257.13L98.16,264.69L98.6,261.49L98.74,260.2L99.61,256.22L99.76,262.15L100.34,253.97L100.63,257.78L100.78,254.63L100.92,259.73L101.5,256.59L101.65,254.6L102.52,201.18L102.66,188.76L103.53,126.32L103.68,109.95L104.26,96.61L104.41,82.22L104.7,80.46L105.28,118.25L105.42,90.77L105.71,104.02L105.86,193.63L106,240.33L106.29,144.41L106.44,133.37L107.6,255.4L107.75,261.67L108.18,294.15L108.62,288.09L108.76,289.67L108.91,280.81L109.49,284.04L109.63,284.48L111.67,260.48L111.81,266.65L112.39,256.48L112.54,258.89L112.68,265.38L113.55,257.76L113.7,259.25L113.84,256.06L114.28,256.63L114.43,259.83L114.86,261.12L115.15,254.03L115.3,256.56L115.44,257.59L115.59,252.25L115.73,253.58L115.88,242.59L117.47,124.02L117.62,105.73L117.77,112.29L118.06,94.99L118.2,96.23L118.64,78.73L118.78,87.33L118.93,119.29L119.07,82.54L119.65,91.46L119.8,102.71L120.23,121.05L120.38,138.16L120.52,139.06L120.67,163.73L121.11,194.3L121.25,220.5L122.12,283.43L122.7,281.59L122.85,274.02L123.14,277.99L123.43,272.16L123.57,277.45L123.72,266.57L123.86,269.78L124.3,264.43L124.45,263.94L124.59,269.08L125.03,258.78L125.17,265.99L125.32,264.16L126.04,259.25L126.19,260.13L126.33,261.96L126.62,255.8L127.2,258.94L127.35,258.07L127.49,257.66L127.64,259.3L127.78,254.57L128.22,253.83L128.51,260.13L128.66,253.12L129.67,265.09L129.82,259.03L130.69,222.95L130.83,203.87L132.72,77.36L132.87,94.82L133.01,89.78L133.16,102.35L133.3,98.82L133.45,129.85L133.59,112.07L133.88,120.84L134.03,241.02L134.17,249.71L134.32,247.29L134.46,164.67L134.61,165.44L134.75,191L135.48,254.32L135.63,285.22L136.5,268.86L136.64,274.77L137.8,265.77L137.95,262.76L138.39,269.13L138.53,262.42L138.68,260.57L138.82,265.05L139.4,261.8L139.55,261.56L139.84,257L140.27,261.03L140.42,260.4L141,260.53L141.29,257.98L141.43,258.42L141.58,257.24L141.73,258.08L141.87,262.06L142.02,255.01L142.6,256.37L142.74,260.9L143.03,254.7L143.47,255.41L143.61,258.78L144.19,267.04L144.34,263.69L144.48,252.77L144.63,256.95L144.92,252.14L145.06,246.28L146.52,163.07L146.66,129.64L146.81,78.97L147.1,159.18L147.24,196.98L147.68,117.49L147.97,181.88L148.11,194.32L148.84,260.12L148.99,257.1L149.13,249.6L149.28,241.4L149.57,265.71L149.71,272.18L149.86,271.88L150,265.77L150.15,271.19L150.58,263.31L150.73,270.99L150.87,267.87L151.74,259.7L151.89,262.8L152.62,256.22L152.76,258.53L152.91,260.68L153.2,254.21L153.34,261.25L153.63,256.13L153.78,258.93L154.07,255.55L154.36,261.42L154.65,256.67L154.79,256.99L155.23,255.01L155.37,257.43L155.52,257.13L155.67,255.11L156.54,259.34L156.68,255.36L156.83,255.63L156.97,254.8L157.12,256.93L157.26,257.12L157.41,254.41L157.55,254.49L157.7,252.14L157.84,252.21L157.99,261.4L159.01,229.35L159.15,230.47L160.17,125.96L160.31,73.09L160.6,77.93L160.75,102.01L160.89,134.02L161.18,83.64L161.33,92.04L161.47,89.37L163.94,277.85L164.09,272.2L164.23,277.66L164.67,265.71L165.1,269L165.25,267.9L166.12,259.85L166.27,264.85L167.14,257.18L167.28,256.44L167.43,261.48L167.57,254.69L168.01,256.07L168.15,255.44L168.3,258.94L168.44,254.08L168.88,257.5L169.02,255.86L169.17,253.51L169.46,259.25L169.75,253.71L169.9,259.32L170.62,253.32L170.77,253.69L170.91,255.6L171.2,252.49L171.49,259.18L171.64,252.5L172.07,253.15L172.65,237.73L172.8,235.35L173.38,177.89L173.53,150.82L174.69,74.52L174.83,82.52L174.98,82.12L175.12,83.54L175.27,88.26L175.85,116.24L175.99,153.03L176.14,155.49L176.29,176.43L176.43,174.83L176.58,198.58L176.72,200.5L176.87,222.27L178.03,289.48L178.32,284.36L178.46,281.68L178.61,281.71L178.75,278.9L178.9,281.87L179.19,275.51L179.33,277.46L179.48,275.25L179.77,277.45L179.92,270.98L180.06,270.42L180.21,276.77L181.08,256.09L181.22,260.62L181.37,259.85L181.51,253.36L181.8,260.87L182.09,254.3L182.24,260.44L182.96,253.81L183.11,259.13L183.55,256.54L183.84,256.79L183.98,257.72L184.27,254.1L184.42,259.53L184.71,255.12L184.85,258.3L185.14,253.98L185.29,256.31L185.43,270.87L185.58,271.32L185.72,265.63L186.01,269.39L186.16,263.1L186.3,259.96L186.59,263.46L186.74,252.89L187.18,246.77L187.32,238.25L188.19,175.03L188.34,131.37L188.48,149.79L188.77,90.92L188.92,89.15L189.06,80.43L189.35,93.08L189.5,104.13L190.52,177.99L190.66,187.96L192.26,270.94L192.4,259.55L192.84,269.05L192.98,258.85L193.27,268.69L193.42,257.85L193.57,255.28L193.71,259.68L193.86,257.05L194,265.89L195.02,254.39L195.16,258.08L195.31,262.44L195.6,254.89L195.89,257.82L196.03,255.8L196.18,262.07L196.76,255.47L196.9,258.36L197.34,254.23L197.63,258.53L197.78,257.84L197.92,260.51L198.21,254.8L198.5,258.31L198.65,254.12L198.94,259.32L199.08,255.98L199.23,255.8L199.37,259.06L199.66,249.71L199.81,246.35L199.95,248.82L200.1,242.87L200.24,235.1L200.39,244.59L200.83,239.98L200.97,228.17L202.42,174.99L202.57,180.07L202.71,160.52L204.46,237.27L204.6,238.51L205.33,278.58L205.47,269.73L205.62,260.99L205.91,260.03L206.05,264.61L206.2,263.89L206.34,259.76L206.49,259.5L206.63,263.36L207.36,257.88L207.51,259.73L207.65,261.1L207.94,254.7L208.52,256.92L208.67,261.01L209.39,254.56L209.54,254.91L209.68,258.51L209.83,258.15L209.97,255.07L210.26,259.17L210.41,256.16L210.55,254.67L210.85,259.64L210.99,254.54L211.14,254.79L211.43,258.01L211.72,254.2L212.01,257.4L212.15,256.48L212.3,257.65L212.73,255.31L212.88,256.82L213.02,254.39L213.17,258.31L213.46,253.91L213.6,245.9L215.49,176.65L215.64,181.84L215.78,184.94L215.93,194.02L216.07,171.89L216.22,124.95L216.36,110.45L216.65,138.15L216.8,123.9L216.94,129.97L217.96,219.26L218.11,217.35L218.25,224.23L218.4,222.72L218.54,238.34L218.69,238.28L218.83,244.89L219.99,265.41L220.14,262.83L220.43,259.97L220.72,264.55L220.86,260.44L221.01,259.68L221.15,268.7L221.3,269.47L221.45,261.46L221.74,258.14L221.88,254.8L222.03,254.94L222.17,260.49L222.46,254.3L223.04,256.28L223.19,257.78L223.91,254.45L224.06,255.48L224.2,255.73L224.35,256.1L224.49,255.07L224.64,255.42L224.79,254.66L224.93,254.92L225.08,253.95L225.37,254.21L225.51,254.01L225.8,254.75L225.95,253.69L226.09,253.8L226.24,253.55L227.11,254.77L227.25,259.98L227.69,237.63L227.83,222.68L229.87,62.81L230.01,70.37L230.16,68.59L230.3,72.26L230.45,79.86L230.59,71.91L231.03,88.36L231.17,82.08L231.46,97.52L231.61,105.65L233.5,277.71L233.93,276.23L234.08,267.74L234.22,275.29L234.37,264.86L234.8,268.43L234.95,264.46L235.1,269.58L235.39,258.63L235.68,265.44L235.82,259.68L236.26,261.63L236.4,254.16L236.55,258.12L236.69,259.38L236.84,253.45L237.42,255.87L237.56,259.65L238.29,255.96L238.43,256.72L238.58,254.06L238.73,257.48L239.31,256.21L239.45,253.65L240.03,252.86L240.32,256.75L240.47,255.57L241.19,252.44L241.34,255.96L241.77,228.37L241.92,213.7L243.23,112.32L243.37,113.71L244.1,82.03L244.24,82.98L244.39,92.15L244.68,85.78L244.82,97.34L244.97,105.95L247.29,292.38L247.44,290.33L247.58,296.84L247.87,287.91L248.02,292.73L248.16,288.02L248.31,292.24L248.74,283.88L248.89,284.56L249.04,290.16L249.33,280.89L249.47,276.89L249.62,276.22L249.76,281.22L250.2,281.26L250.34,271.7L250.49,274.76L250.63,278.31L251.65,256.36L251.79,259.31L252.23,259.78L252.38,253.66L252.81,254.86L252.96,255.73L253.25,256.86L253.54,253.51L253.68,254.1L253.83,256.83L254.55,253.99L254.7,254L254.84,255.63L255.28,252.78L255.42,255.88L258.33,87.34L258.47,93.9L258.62,96.85L259.49,138.71L259.64,145.81L260.51,222.01L260.65,235.37L261.67,304L261.81,296.73L263.27,267.38L263.41,274.72L264.28,262.82L264.43,263.75L264.57,266.26L264.72,261.07L264.86,264.38L265.01,259.81L265.15,262.3L265.59,257.24L265.73,259.17L265.88,257.12L266.32,261.22L266.46,259.82L267.19,254.66L267.33,257.65L267.48,257.2L267.62,254.07L268.49,257.17L268.64,254.01L268.78,256.62L269.07,251.33L269.22,247.69L269.51,252.59L269.66,236.74L270.53,165.91L270.67,142.19L270.82,154.38L270.96,131.7L271.11,133.09L271.25,114.4L271.54,135.39L271.83,110.1L271.98,110.46L272.12,102.53L272.27,115.09L272.56,105.69L272.7,115.11L272.85,108.74L272.99,123.48L273.14,131.79L273.29,126.88L273.58,140.91L273.72,132.65L273.87,161.32L274.16,182.58L274.3,215.24L274.45,214.19L274.59,232.51L275.46,284.46L275.61,281.11L275.75,274.6L275.9,282.22L276.33,270.74L276.48,279.45L276.63,269.25L276.77,271.12L277.21,269.41L277.35,264.43L277.64,262.96L278.37,276.59L278.51,272.97L278.66,275.31L278.95,273.18L279.09,260.53L279.53,261.74L279.97,256.04L280.11,257.11L280.26,256.14L280.4,256.77L280.55,260.17L281.27,254.21L281.42,256.32L282,254.65L282.14,256.46L282.29,253.57L282.58,256.12L282.72,255.27L282.87,260.62L283.01,267.88L283.3,254.09L283.45,244.66L285.19,108.83L285.34,146.6L285.92,87.95L286.35,95.4L286.5,94.16L286.64,97.45L286.79,81.64L287.66,132.97L287.81,153.56L289.11,292.92L289.69,287.24L289.84,287.99L290.13,280.77L290.42,285.46L290.57,289.12L290.86,293.15L291.15,286.58L291.29,277.88L291.73,279.25L292.16,270.79L292.31,276.33L292.74,278.53L293.18,255.81L293.61,256.82L293.76,260.32L294.05,262.18L294.34,254.19L294.63,256.15L294.78,265.32L295.65,253.88L295.79,255.31L295.94,260.66L296.52,257.6L296.66,258.18L296.81,257.09L296.95,258.05L297.1,262.63L299.13,127.41L299.28,137.16L299.57,137.39L299.71,98.69L299.86,131.59L300,180.15L301.17,68.62L301.31,87.83L302.04,212.15L302.18,209.25L302.33,183.17L303.2,273.41L303.34,270.85L303.49,270.28L303.63,272.67L303.78,272.65L303.92,272.47L304.07,270.82L304.22,270.83L304.36,268.39L304.51,271.27L304.94,267.78L305.09,264.99L305.23,262.62L305.38,266.26L305.52,265.68L305.67,268.39L306.39,253.71L306.83,253.77L306.97,254.29L307.7,259.11L307.85,254.64L308.43,255.89L308.57,253.97L309.01,254.69L309.15,257.63L309.44,254.05L310.02,254.23L310.17,254.19L310.46,253.86L310.6,254.48L310.75,255.81L312.2,138.97L312.35,99L313.8,62.5L313.94,66.81L314.38,68.04L314.82,62.17L314.96,69L315.4,91.86L315.54,104.4L317.72,264.89L317.86,260.92L318.01,262.97L318.16,260.47L318.45,261.16L318.59,259.64L318.74,262.94L319.03,254.48L319.17,257.11L319.32,255.77L319.46,253.8L319.75,257.2L320.04,253.87L320.19,254.47L320.48,253.75L320.91,256.22L321.06,254.12L321.79,254.6L321.93,253.76L323.09,253.75L323.24,254.17L323.96,253.09L324.11,253.65L324.4,253.07L324.69,254.55L324.83,252.41L325.42,229.97L325.56,210.54L327.45,64.07L327.59,61.55L327.88,53.32L328.03,65.35L328.17,79.9L328.32,92.19L328.76,68.58L328.9,63.78L329.63,113.13L329.77,133.17L330.35,191.59L330.5,221.27L331.37,265.19L331.51,262.88L331.66,262.03L332.39,257.11L332.53,259.54L332.68,259.14L333.55,254.13L333.69,253.92L333.98,256.74L334.13,256L334.27,254.09L334.42,254.99L334.85,253.91L335,254.22L335.14,254.08L335.29,254.03L335.44,254.84L336.31,253.39L336.45,254.12L337.18,253.27L337.32,253.48L337.47,254.19L338.34,253.21L338.48,253.93L338.63,254.11L338.78,252.7L339.36,217.94L339.5,199.23L341.24,88.69L341.39,80L341.97,72.58L342.11,82.47L342.26,80.12L342.55,83.44L342.7,82.05L342.84,90.76L343.86,176.13L344,194.8L345.02,265.46L345.45,263.34L345.6,261.76L345.89,262.82L346.18,256.99L346.33,260.12L346.47,261.15L347.2,253.87L347.63,254.38L347.78,255.08L348.07,253.45L348.36,254.48L348.5,257.92L348.65,253.48L349.23,253.98L349.38,254.82L350.1,253.56L350.39,254L350.54,254.04L351.26,253.48L351.41,253.78L351.84,254.19L352.13,253.78L352.28,253.84L352.57,254.71L352.72,252.23L353.15,233.45L353.3,218.57L354.46,82L354.89,93.27L355.04,95.06L355.76,70.11L355.91,72.71L356.06,75.75L356.2,70.59L356.49,81.71L356.64,76.51L356.78,83.19L358.09,195.05L358.23,209.27L359.25,279.2L359.39,276.48L359.69,273.43L359.83,278.01L359.98,272.38L360.27,275.36L360.56,271.83L360.7,272.72L360.85,271.91L361.28,272.49L361.57,267.61L361.72,269.23L361.86,272.21L362.01,267.83L362.59,271.08L362.73,270.39L362.88,270.55L363.03,269.02L364.04,254.43L364.19,255.34L364.33,255.83L364.48,256.26L364.62,254.96L364.77,254.92L364.91,254.33L366.51,255.26L366.66,252.88L367.82,166.64L367.96,148.58L369.7,66.41L369.85,63.69L371.74,177.99L371.88,193.13L372.9,280.33L373.19,273.81L373.34,276.2L373.48,276.74L373.63,274.93L373.77,272.32L374.06,271.65L374.21,276.3L374.35,270.52L374.5,273L374.79,266.89L374.93,264.51L375.08,267.04L375.22,266.15L375.37,257.2L375.51,258.07L375.66,257.35L375.8,254.14L376.09,259.47L376.24,254.84L376.82,256.78L377.11,255.59L377.26,255.18L377.4,254.86L377.55,255.63L377.69,256.85L378.27,253.83L378.56,254.45L378.71,254.05L378.85,253.95L379,254.94L379.72,254.12L379.87,254.63L380.31,254.1L380.45,254.84L380.6,254.45L380.74,258.9L380.89,260.72L381.03,249.86L383.21,94.77L383.35,86.72L383.65,91.11L383.94,68.17L384.37,72.72L384.52,79.52L386.84,266.99L386.98,267.93L387.13,260.14L387.71,264.27L387.86,262.91L388,264.67L388.15,259.39L388.44,262.52L388.58,259.41L389.31,254.68L389.45,259.02L390.18,253.79L390.32,254.29L390.47,256.51L390.76,253.69L391.05,254.41L391.2,256.38L391.63,253.74L392.07,254.09L392.21,253.55L392.94,254.48L393.08,253.64L393.66,253.24L393.95,254.1L394.1,253.64L394.25,253.67L394.39,254.78L394.83,246.75L394.97,235.97L397.29,64.41L397.44,61.75L397.59,58.23L397.73,63.84L397.88,61.43L398.02,65.96L398.31,70.41L398.46,76.72L398.89,104.64L399.04,120.02L399.76,177.65L399.91,201.39L401.07,269.09L401.22,264.38L401.36,262.74L401.51,264.8L401.94,260.94L402.09,264.11L402.23,262.54L402.38,262.36L402.52,258.74L402.67,261.51L402.96,254.8L403.1,259.45L403.25,256.33L403.68,257.11L403.83,254.46L403.97,257.68L404.41,254.26L404.7,255.47L404.85,256.38L405.72,254.21L405.86,253.76L406.73,254.4L406.88,253.6L407.75,254.5L407.9,253.76L408.33,254.83L408.48,251.03L409.64,168.97L409.78,148.69L411.23,66.08L411.38,72.48L411.67,66.34L411.96,70.74L412.11,76.64L412.4,75.84L412.54,83.53L412.69,96.6L414.87,268.44L415.16,267.1L415.3,264.87L415.59,275.57L415.88,258.72L416.03,263.65L416.9,256.05L417.04,257.2L417.19,259.82L417.33,254.14L417.77,257.74L417.91,255.16L418.64,256.9L418.79,254.27L418.93,256.47L419.51,254.31L419.66,253.66L420.09,254.46L420.53,254.12L420.67,253.83L421.84,253.26L421.98,253.63L422.13,254.01L422.42,266.87L422.71,261.28L422.85,252.5L425.18,78.06L425.32,76.84L426.34,199.65L426.48,159.05L426.63,141.81L426.77,189.87L426.92,160.6L427.06,208.79L427.35,219.81L427.5,200.21L427.64,190.52L428.66,268.06L428.81,264.79L428.95,264.73L429.1,266.29L429.39,260.32L429.53,263.71L429.68,266.95L430.55,258.81L430.69,261.44L431.42,254.27L431.56,257.82L431.71,258.19L431.85,256.5L432,254.52" style="vector-effect: non-scaling-stroke; fill: none; stroke: rgb(0, 128, 0); stroke-opacity: 1; stroke-width: 2px; opacity: 1;"/></g><g class="points"/><g class="text"/></g></g></g><g class="overplot"/><path class="xlines-above crisp" d="M0,0" style="fill: none;"/><path class="ylines-above crisp" d="M0,0" style="fill: none;"/><g class="overlines-above"/><g class="xaxislayer-above"><g class="xtick"><text text-anchor="middle" x="0" y="433" transform="translate(93.94,0)" style="font-family: 'Open Sans', verdana, arial, sans-serif; font-size: 12px; fill: rgb(42, 63, 95); fill-opacity: 1; white-space: pre; opacity: 1;"><tspan class="line" dy="0em" x="0" y="433">Oct 2</tspan><tspan class="line" dy="1.3em" x="0" y="433">2022</tspan></text></g><g class="xtick"><text text-anchor="middle" x="0" y="433" style="font-family: 'Open Sans', verdana, arial, sans-serif; font-size: 12px; fill: rgb(42, 63, 95); fill-opacity: 1; white-space: pre; opacity: 1;" transform="translate(191.51999999999998,0)">Oct 9</text></g><g class="xtick"><text text-anchor="middle" x="0" y="433" style="font-family: 'Open Sans', verdana, arial, sans-serif; font-size: 12px; fill: rgb(42, 63, 95); fill-opacity: 1; white-space: pre; opacity: 1;" transform="translate(289.1,0)">Oct 16</text></g><g class="xtick"><text text-anchor="middle" x="0" y="433" style="font-family: 'Open Sans', verdana, arial, sans-serif; font-size: 12px; fill: rgb(42, 63, 95); fill-opacity: 1; white-space: pre; opacity: 1;" transform="translate(386.68,0)">Oct 23</text></g><g class="xtick"><text text-anchor="middle" x="0" y="433" style="font-family: 'Open Sans', verdana, arial, sans-serif; font-size: 12px; fill: rgb(42, 63, 95); fill-opacity: 1; white-space: pre; opacity: 1;" transform="translate(484.26,0)">Oct 30</text></g></g><g class="yaxislayer-above"><g class="ytick"><text text-anchor="end" x="79" y="4.199999999999999" transform="translate(0,410.37)" style="font-family: 'Open Sans', verdana, arial, sans-serif; font-size: 12px; fill: rgb(42, 63, 95); fill-opacity: 1; white-space: pre; opacity: 1;">−40</text></g><g class="ytick"><text text-anchor="end" x="79" y="4.199999999999999" style="font-family: 'Open Sans', verdana, arial, sans-serif; font-size: 12px; fill: rgb(42, 63, 95); fill-opacity: 1; white-space: pre; opacity: 1;" transform="translate(0,366.94)">−20</text></g><g class="ytick"><text text-anchor="end" x="79" y="4.199999999999999" style="font-family: 'Open Sans', verdana, arial, sans-serif; font-size: 12px; fill: rgb(42, 63, 95); fill-opacity: 1; white-space: pre; opacity: 1;" transform="translate(0,323.51)">0</text></g><g class="ytick"><text text-anchor="end" x="79" y="4.199999999999999" style="font-family: 'Open Sans', verdana, arial, sans-serif; font-size: 12px; fill: rgb(42, 63, 95); fill-opacity: 1; white-space: pre; opacity: 1;" transform="translate(0,280.07)">20</text></g><g class="ytick"><text text-anchor="end" x="79" y="4.199999999999999" style="font-family: 'Open Sans', verdana, arial, sans-serif; font-size: 12px; fill: rgb(42, 63, 95); fill-opacity: 1; white-space: pre; opacity: 1;" transform="translate(0,236.64)">40</text></g><g class="ytick"><text text-anchor="end" x="79" y="4.199999999999999" style="font-family: 'Open Sans', verdana, arial, sans-serif; font-size: 12px; fill: rgb(42, 63, 95); fill-opacity: 1; white-space: pre; opacity: 1;" transform="translate(0,193.2)">60</text></g><g class="ytick"><text text-anchor="end" x="79" y="4.199999999999999" style="font-family: 'Open Sans', verdana, arial, sans-serif; font-size: 12px; fill: rgb(42, 63, 95); fill-opacity: 1; white-space: pre; opacity: 1;" transform="translate(0,149.77)">80</text></g><g class="ytick"><text text-anchor="end" x="79" y="4.199999999999999" style="font-family: 'Open Sans', verdana, arial, sans-serif; font-size: 12px; fill: rgb(42, 63, 95); fill-opacity: 1; white-space: pre; opacity: 1;" transform="translate(0,106.33)">100</text></g></g><g class="overaxes-above"/></g></g><g class="polarlayer"/><g class="smithlayer"/><g class="ternarylayer"/><g class="geolayer"/><g class="funnelarealayer"/><g class="pielayer"/><g class="iciclelayer"/><g class="treemaplayer"/><g class="sunburstlayer"/><g class="glimages"/><defs id="topdefs-c429fd"><g class="clips"/><clipPath id="legendc429fd"><rect width="167" height="67" x="0" y="0"/></clipPath></defs><g class="layer-above"><g class="imagelayer"/><g class="shapelayer"/></g><g class="infolayer"><g class="legend" pointer-events="all" transform="translate(520.64,100)"><rect class="bg" shape-rendering="crispEdges" width="167" height="67" x="0" y="0" style="stroke: rgb(68, 68, 68); stroke-opacity: 1; fill: rgb(255, 255, 255); fill-opacity: 1; stroke-width: 0px;"/><g class="scrollbox" transform="" clip-path="url(#legendc429fd)"><g class="groups"><g class="traces" transform="translate(0,14.5)" style="opacity: 1;"><text class="legendtext" text-anchor="start" x="40" y="4.680000000000001" style="font-family: 'Open Sans', verdana, arial, sans-serif; font-size: 12px; fill: rgb(42, 63, 95); fill-opacity: 1; white-space: pre;">BESS</text><g class="layers" style="opacity: 0.5;"><g class="legendfill"/><g class="legendlines"><path class="js-line" d="M5,0h30" style="fill: none; stroke: rgb(0, 191, 255); stroke-opacity: 1; stroke-width: 2px;"/></g><g class="legendsymbols"><g class="legendpoints"/></g></g><rect class="legendtoggle" x="0" y="-9.5" width="161.890625" height="19" style="fill: rgb(0, 0, 0); fill-opacity: 0;"/></g><g class="traces" transform="translate(0,33.5)" style="opacity: 1;"><text class="legendtext" text-anchor="start" x="40" y="4.680000000000001" style="font-family: 'Open Sans', verdana, arial, sans-serif; font-size: 12px; fill: rgb(42, 63, 95); fill-opacity: 1; white-space: pre;">Solar</text><g class="layers" style="opacity: 0.5;"><g class="legendfill"/><g class="legendlines"><path class="js-line" d="M5,0h30" style="fill: none; stroke: rgb(255, 0, 0); stroke-opacity: 1; stroke-width: 2px;"/></g><g class="legendsymbols"><g class="legendpoints"/></g></g><rect class="legendtoggle" x="0" y="-9.5" width="161.890625" height="19" style="fill: rgb(0, 0, 0); fill-opacity: 0;"/></g><g class="traces" transform="translate(0,52.5)" style="opacity: 1;"><text class="legendtext" text-anchor="start" x="40" y="4.680000000000001" style="font-family: 'Open Sans', verdana, arial, sans-serif; font-size: 12px; fill: rgb(42, 63, 95); fill-opacity: 1; white-space: pre;">Grid Meter (Net Load)</text><g class="layers" style="opacity: 0.5;"><g class="legendfill"/><g class="legendlines"><path class="js-line" d="M5,0h30" style="fill: none; stroke: rgb(0, 128, 0); stroke-opacity: 1; stroke-width: 2px;"/></g><g class="legendsymbols"><g class="legendpoints"/></g></g><rect class="legendtoggle" x="0" y="-9.5" width="161.890625" height="19" style="fill: rgb(0, 0, 0); fill-opacity: 0;"/></g></g></g><rect class="scrollbar" rx="20" ry="3" width="0" height="0" x="0" y="0" style="fill: rgb(128, 139, 164); fill-opacity: 1;"/></g><g class="g-gtitle"><text class="gtitle" x="296" y="50" text-anchor="middle" dy="0em" style="font-family: 'Open Sans', verdana, arial, sans-serif; font-size: 17px; fill: rgb(42, 63, 95); opacity: 1; font-weight: normal; white-space: pre;"><tspan class="line" dy="0em" x="296" y="50">Scenario 1</tspan><tspan class="line" dy="1.3em" x="296" y="50">Microgrid Output</tspan><tspan class="line" dy="2.6em" x="296" y="50">From: October 01, 2022 to October 31, 2022</tspan></text></g><g class="g-xtitle"><text class="xtitle" x="296" y="477.409375" text-anchor="middle" style="font-family: 'Open Sans', verdana, arial, sans-serif; font-size: 14px; fill: rgb(42, 63, 95); opacity: 1; font-weight: normal; white-space: pre;">Time</text></g><g class="g-ytitle"><text class="ytitle" transform="rotate(-90,33.60625,260)" x="33.60625" y="260" text-anchor="middle" style="font-family: 'Open Sans', verdana, arial, sans-serif; font-size: 14px; fill: rgb(42, 63, 95); opacity: 1; font-weight: normal; white-space: pre;">Demand (kW)</text></g></g></svg>