<svg class="main-svg" xmlns="http://www.w3.org/2000/svg" xmlns:xlink="http://www.w3.org/1999/xlink" width="700" height="500" style="" viewBox="0 0 700 500"><rect x="0" y="0" width="700" height="500" style="fill: rgb(255, 255, 255); fill-opacity: 1;"/><defs id="defs-da05da"><g class="clips"><clipPath id="clipda05daxyplot" class="plotclip"><rect width="437" height="320"/></clipPath><clipPath class="axesclip" id="clipda05dax"><rect x="80" y="0" width="437" height="500"/></clipPath><clipPath class="axesclip" id="clipda05day"><rect x="0" y="100" width="700" height="320"/></clipPath><clipPath class="axesclip" id="clipda05daxy"><rect x="80" y="100" width="437" height="320"/></clipPath></g><g class="gradients"/><g class="patterns"/></defs><g class="bglayer"/><g class="layer-below"><g class="imagelayer"/><g class="shapelayer"/></g><g class="cartesianlayer"><g class="subplot xy"><g class="layer-subplot"><g class="shapelayer"/><g class="imagelayer"/></g><g class="minor-gridlayer"><g class="x"/><g class="y"/></g><g class="gridlayer"><g class="x"><path class="xgrid crisp" transform="translate(94.1,0)" d="M0,100v320" style="stroke: rgb(255, 255, 255); stroke-opacity: 1; stroke-width: 1px;"/><path class="xgrid crisp" transform="translate(192.81,0)" d="M0,100v320" style="stroke: rgb(255, 255, 255); stroke-opacity: 1; stroke-width: 1px;"/><path class="xgrid crisp" transform="translate(291.52,0)" d="M0,100v320" style="stroke: rgb(255, 255, 255); stroke-opacity: 1; stroke-width: 1px;"/><path class="xgrid crisp" transform="translate(390.23,0)" d="M0,100v320" style="stroke: rgb(255, 255, 255); stroke-opacity: 1; stroke-width: 1px;"/><path class="xgrid crisp" transform="translate(488.94,0)" d="M0,100v320" style="stroke: rgb(255, 255, 255); stroke-opacity: 1; stroke-width: 1px;"/></g><g class="y"><path class="ygrid crisp" transform="translate(0,383.83)" d="M80,0h437" style="stroke: rgb(255, 255, 255); stroke-opacity: 1; stroke-width: 1px;"/><path class="ygrid crisp" transform="translate(0,291.12)" d="M80,0h437" style="stroke: rgb(255, 255, 255); stroke-opacity: 1; stroke-width: 1px;"/><path class="ygrid crisp" transform="translate(0,244.76)" d="M80,0h437" style="stroke: rgb(255, 255, 255); stroke-opacity: 1; stroke-width: 1px;"/><path class="ygrid crisp" transform="translate(0,198.4)" d="M80,0h437" style="stroke: rgb(255, 255, 255); stroke-opacity: 1; stroke-width: 1px;"/><path class="ygrid crisp" transform="translate(0,152.04)" d="M80,0h437" style="stroke: rgb(255, 255, 255); stroke-opacity: 1; stroke-width: 1px;"/><path class="ygrid crisp" transform="translate(0,105.68)" d="M80,0h437" style="stroke: rgb(255, 255, 255); stroke-opacity: 1; stroke-width: 1px;"/></g></g><g class="zerolinelayer"><path class="yzl zl crisp" transform="translate(0,337.47)" d="M80,0h437" style="stroke: rgb(255, 255, 255); stroke-opacity: 1; stroke-width: 2px;"/></g><path class="xlines-below"/><path class="ylines-below"/><g class="overlines-below"/><g class="xaxislayer-below"/><g class="yaxislayer-below"/><g class="overaxes-below"/><g class="plot" transform="translate(80,100)" clip-path="url(#clipda05daxyplot)"><g class="scatterlayer mlayer"><g class="trace scatter trace206f07" style="stroke-miterlimit: 2; opacity: 0.5;"><g class="fills"/><g class="errorbars"/><g class="lines"><path class="js-line" d="M0,244.43L0.15,247.71L0.44,239.21L0.59,239.28L0.88,241.01L1.47,237.77L1.62,238.49L1.76,240.57L2.06,237.47L2.2,240.02L2.35,238.11L2.5,237.47L2.64,239.15L2.79,239.78L3.38,237.47L3.53,241.03L3.82,237.47L4.41,238.09L4.55,237.47L5.29,237.47L5.43,232.13L6.76,141.36L6.9,216.74L7.79,237.47L7.93,237.47L10.43,237.47L10.58,245.2L10.72,242.69L10.87,254.23L11.6,240.99L11.75,251.66L12.05,255.75L12.49,239.87L12.63,242.63L13.22,243.39L13.51,237.78L13.66,243.1L13.95,237.47L14.54,239.34L14.69,237.86L15.13,240.23L15.28,238.16L15.42,237.47L15.57,242.6L16.16,237.89L16.3,237.51L17.19,241.08L17.33,238.37L17.48,239.1L17.77,237.47L18.07,238.51L18.21,237.7L18.36,239.04L18.66,237.47L18.8,237.47L18.95,237.47L19.68,205.62L19.83,192.91L19.98,169.41L20.27,226.08L20.42,237.47L24.38,237.47L24.53,240.59L24.68,240.76L24.82,254.56L25.27,244.46L25.71,245.06L25.85,252.94L26.15,253.28L26.59,240.14L26.73,241.56L26.88,242.8L27.17,243.18L27.47,238.53L27.62,245.51L28.2,238.49L28.35,239.76L28.5,241.09L28.79,242.85L29.08,237.47L29.23,242.57L30.11,237.47L30.26,239.83L30.7,237.64L30.99,237.92L31.14,239.63L31.43,240.1L31.73,237.47L32.02,237.83L32.17,237.47L32.9,237.47L33.05,235.33L34.37,173.48L34.52,223.68L35.4,237.47L35.55,237.47L38.49,237.47L38.63,255.75L38.78,242.04L38.93,268.1L39.37,246.88L39.51,252.9L40.1,244.44L40.25,253.59L40.84,241.29L41.13,243.87L41.28,241.71L41.42,247.82L41.57,239.86L42.01,244.65L42.16,239.21L42.89,245.9L43.04,239.49L43.48,238.18L43.63,242.7L43.77,238.75L44.07,239.31L44.21,237.83L44.36,238.59L44.51,237.75L44.8,241.06L45.24,238.02L45.39,237.47L45.54,238.67L46.12,237.61L46.27,238.43L47.01,237.47L47.15,229.68L47.3,230.11L47.45,215.21L47.59,214.53L47.74,206.26L48.62,172.19L48.77,187.52L48.91,228.41L49.8,237.47L49.94,237.47L52.59,237.47L52.73,242.81L52.88,241.26L53.03,257.39L53.17,242.3L53.62,258.92L53.76,247.33L53.91,263.84L54.06,244.13L54.5,269.09L54.64,252.18L54.79,258.85L55.23,242.37L55.38,262.8L55.52,243.77L55.67,259.11L55.82,243.59L56.41,246.7L56.55,250.56L56.85,254.23L56.99,241.63L57.29,244.41L57.43,252.57L58.02,237.47L58.32,239.15L58.46,238L58.9,237.47L59.05,245.39L59.2,239.45L59.34,237.47L59.49,240.35L60.08,237.79L60.23,237.96L61.25,235.64L61.4,225.04L63.16,159.92L63.31,170.68L63.46,171L63.6,176.35L63.75,225.57L64.63,237.47L64.78,237.47L66.39,237.47L66.54,240.75L66.69,240.98L66.84,263.19L66.98,244L67.13,273.87L67.57,245.76L67.72,268.76L68.16,244.19L68.3,272.11L68.45,246.13L68.6,265.7L69.04,243.19L69.33,243.38L69.48,255.17L70.21,245.15L70.36,251.8L71.39,238.66L71.54,241.13L71.83,242.08L72.27,238.39L72.42,240.06L72.71,241.09L72.86,238.34L73,239.72L73.15,240.46L73.59,238.03L73.74,239.03L73.89,242.47L74.18,238.43L74.62,238.51L74.77,243.54L75.65,237.47L75.8,242.55L76.38,214.17L76.53,160.71L77.12,143.91L77.26,190.95L77.41,145.03L77.71,141.9L78.44,237.47L78.59,237.47L80.64,237.47L80.79,252.51L80.94,247.33L81.08,259.09L81.23,253.42L81.38,262.75L82.11,242.25L82.26,252.34L82.85,240.35L83.14,242.59L83.29,242.84L83.58,239.68L83.73,242.63L83.87,245.18L84.17,237.48L84.32,248.51L84.61,238.5L84.76,245.34L85.34,238.65L85.64,238.9L85.78,240.48L85.93,238.23L86.37,242.82L86.52,238.81L86.67,238.88L86.81,237.83L87.11,239.72L87.25,237.92L87.4,242.3L88.28,237.47L88.43,240.81L89.31,237.47L89.46,237.16L91.22,169.21L91.37,223.24L92.25,237.47L92.39,237.47L94.6,237.47L94.74,238.45L94.89,239.7L95.04,250.3L95.19,250.34L95.33,255.45L95.48,256.21L95.63,250.66L96.21,243.12L96.36,261.39L96.51,243.45L96.65,259.92L97.24,253.08L97.39,240.81L97.54,256.23L98.12,242.17L98.27,241.05L98.42,244.5L98.86,238.38L99,242.72L99.15,238.79L99.3,245.02L99.89,240.42L100.03,238.15L100.18,240.61L100.62,239.18L100.77,237.77L100.91,243L101.21,237.65L101.5,238.62L101.65,240.73L101.94,237.47L102.09,240.88L102.53,237.9L102.68,237.81L103.41,237.47L103.56,232.56L105.03,170.45L105.17,181.13L105.32,160.82L105.47,220.95L105.61,237.47L108.85,237.47L108.99,240.27L109.43,270.53L109.73,267.77L109.87,245.05L110.02,266.85L110.46,244.49L110.61,262.49L110.76,243.73L110.9,261.83L111.05,243.56L111.49,256.28L111.64,243.33L111.93,241.02L112.08,252.01L112.37,244.93L112.52,242.7L112.81,243.86L112.96,238.96L113.11,246.6L113.69,237.68L113.84,239.2L113.99,244.68L114.87,237.99L115.02,240.43L115.6,237.69L115.75,240.81L116.19,241.95L116.48,237.47L116.63,237.77L116.78,238.93L117.66,231.89L117.81,221.8L118.25,206.2L118.39,194.8L118.54,195.43L118.69,183.46L118.83,188.23L118.98,164.7L119.28,152.96L120.01,237.47L120.16,237.47L123.09,237.47L123.24,251.96L123.39,241.1L123.54,261.3L123.98,242.81L124.12,259.81L124.86,240.86L125,256.52L125.74,240.41L125.89,243.77L126.03,244.42L126.18,238.82L126.33,246.99L126.91,243.18L127.06,238.9L127.21,241.64L127.5,238.17L127.79,240.3L127.94,238.04L128.09,237.49L128.24,239.58L128.38,238.1L128.53,242.05L128.97,237.91L129.26,238.25L129.41,239.77L129.56,239.59L129.7,237.86L130,240.76L130.15,238.24L130.29,237.47L130.59,239.23L130.88,237.7L131.03,239.65L131.17,243.99L131.61,237.49L131.76,237.47L132.2,237.47L132.35,221.16L132.5,227.63L132.64,182.74L132.79,200.7L132.94,176.18L133.08,197.88L133.23,160.52L133.52,156.4L134.26,237.47L134.41,237.47L137.05,237.47L137.2,263.27L138.08,240.23L138.22,253.51L138.66,241.42L138.96,242.18L139.11,246.03L139.84,238.96L139.99,249.08L140.57,238.59L140.87,238.71L141.02,242.36L141.46,238.08L141.75,239.52L141.9,240.63L142.34,238.42L142.78,238.83L142.92,238.3L143.22,237.85L143.51,242.06L143.66,238.53L143.81,238.61L143.95,241.31L144.39,241.79L144.69,237.47L144.83,241.63L145.13,237.47L145.42,242.31L145.57,241.49L145.72,240.96L145.86,244.94L146.16,237.61L146.3,238.46L146.45,237.72L147.33,237.47L147.48,237.47L148.21,203.36L148.36,182.68L148.51,149.55L148.8,213.57L148.95,227.97L149.24,234.46L149.39,135.79L149.53,221.71L149.68,240.08L150.42,237.47L150.56,241.09L151.15,237.47L151.3,245.24L151.44,245.38L151.59,246.96L151.89,250.4L152.33,239.29L152.47,250.4L153.21,239.08L153.35,242.41L153.65,243.38L153.94,237.55L154.09,241.12L154.24,240.08L154.68,240.22L154.97,237.47L155.12,242.14L155.85,237.47L156,238.04L156.14,241.8L157.03,237.47L157.17,238.64L157.47,237.47L158.05,237.72L158.2,237.47L158.35,240.54L158.94,238.17L159.08,238.03L159.67,237.47L159.82,242.67L160.7,237.47L160.85,237.47L161.14,235.72L161.29,197.32L161.87,196.24L162.17,237.47L162.31,237.47L165.4,237.47L165.55,250.44L165.99,241.45L166.13,256.49L166.28,242.23L166.43,256L167.16,241.53L167.31,245.04L168.04,238.18L168.19,245.38L169.07,237.96L169.22,237.47L169.37,242.58L169.95,237.87L170.1,237.47L170.25,240.25L170.83,238.04L170.98,237.47L171.13,237.47L171.27,238.57L171.72,237.47L171.86,240.48L172.01,238.23L172.3,237.47L172.45,239.9L173.33,237.47L173.48,240.55L174.36,237.47L174.51,237.47L175.09,237.47L175.24,217.27L175.39,215.5L175.53,189.08L175.68,196.71L175.83,180.89L175.98,159.76L176.86,237.47L177,237.47L179.35,238.04L179.5,251.61L179.79,260.92L179.94,244.11L180.09,265.24L180.82,243L180.97,259.55L181.7,242.82L181.85,254.86L182,241.71L182.59,242.43L182.73,247.76L183.61,237.47L183.76,237.47L183.91,241.69L184.49,238.44L184.64,237.47L184.79,241.11L185.38,238.16L185.52,238.08L185.67,237.63L185.82,239.75L186.4,237.47L186.55,240.69L187.43,237.47L187.58,250.03L188.31,239.85L188.46,240.76L188.61,238.57L188.75,244.29L189.05,237.47L189.2,237.47L189.34,237.47L189.78,237.47L189.93,232.16L190.52,168.02L190.66,221.01L191.1,129.89L191.4,136.74L191.55,213.38L192.43,237.47L192.57,237.47L193.6,237.47L193.75,241.74L194.04,244.02L194.19,238.84L194.63,238.75L195.07,249.26L195.22,240.42L195.51,246.13L195.66,239.4L195.81,237.47L195.95,240.78L196.1,238.3L196.25,246.15L196.69,238.41L196.98,238.62L197.13,242.41L197.86,237.47L198.01,242.45L198.3,237.47L198.45,242.88L198.89,238.7L199.04,237.78L199.18,239.54L199.62,237.77L199.77,237.47L200.21,241.43L200.51,237.47L200.65,237.91L201.09,237.47L201.24,240.47L201.39,238.22L201.53,237.47L201.68,240.29L202.27,237.47L202.42,237.47L203.44,237.36L203.59,234.85L204.03,237.11L204.18,223.89L204.33,234.08L204.47,221.66L204.62,228.69L204.77,199.2L205.06,182.85L205.65,237.47L205.79,237.47L207.41,237.67L207.56,245.92L207.7,250.95L208,240.7L208.14,242.86L208.29,238.63L208.44,244.78L208.88,238.27L209.03,243.81L209.17,239.06L209.32,239.08L209.47,241.78L210.35,237.47L210.49,238.93L210.79,237.47L210.94,237.89L211.08,241.66L211.96,237.47L212.11,239.55L212.7,240.31L212.99,237.47L213.14,237.47L213.29,240.86L213.87,238.98L214.02,237.82L214.31,237.47L214.46,238.67L214.61,237.77L214.75,238.87L215.19,237.5L215.49,237.68L215.64,239.51L216.52,237.47L216.66,237.47L216.81,236.93L216.96,233.4L217.55,234.64L217.99,210.7L218.13,218.42L219.01,237.47L219.16,237.47L221.66,237.47L221.81,241.03L222.39,239.38L222.54,244.91L222.69,239.28L222.83,244.57L222.98,239.25L223.42,240.9L223.57,238.3L223.71,248.15L224.3,238.83L224.45,237.76L224.6,237.47L224.74,241.53L225.18,237.47L225.62,237.52L225.77,239.07L226.65,237.47L226.8,237.47L228.12,237.47L228.27,237.47L229.74,237.47L229.88,241.04L230.62,223.71L230.77,218.45L231.21,178.83L231.35,224.35L231.5,237.47L235.76,237.47L235.91,241.76L236.05,242.63L236.2,253.25L236.49,253.29L237.08,239.91L237.23,249.64L238.11,239.31L238.26,242.66L238.4,242.29L238.55,238.38L238.7,237.53L238.84,240.78L238.99,240.27L239.58,237.88L239.87,238.08L240.02,237.47L240.31,240.73L240.75,238.98L240.9,237.84L241.05,237.47L241.19,238.22L241.34,237.66L241.49,238.9L242.37,237.51L242.52,237.48L243.1,238.11L243.4,237.47L243.54,237.47L244.57,237.47L244.72,230.49L245.45,185.66L245.6,205.3L245.75,232.3L246.63,237.47L246.78,237.47L249.71,237.47L249.86,239.59L250.45,263.08L250.74,255.54L250.89,257.75L251.18,261.11L251.33,245L251.48,267.01L251.62,244.72L252.21,246.89L252.36,251.26L252.65,255.94L252.8,242.09L253.09,247.23L253.24,246.41L253.53,250.5L253.68,245.99L254.56,237.69L254.71,240.36L255.3,237.73L255.59,237.81L255.74,237.47L256.62,237.47L256.77,238.26L257.65,237.47L257.79,237.47L258.67,237.47L258.82,234.21L259.56,184.31L259.7,221.34L260.14,167.15L260.44,168.59L260.58,189.91L261.02,147.67L261.17,216.78L261.32,237.47L263.67,237.47L263.82,241.49L263.96,243.73L264.11,259.7L264.26,259.12L264.4,265.03L264.7,270.65L265.14,244.47L265.28,256.11L265.73,241.71L266.02,242.1L266.17,248.79L266.46,254.17L266.9,240.1L267.05,245.08L267.78,239.23L267.93,244.87L268.66,238.64L268.81,240.26L269.4,241.94L269.69,238.02L269.84,237.61L269.99,240.51L270.28,237.47L270.57,237.81L270.72,237.47L271.6,238.63L271.75,237.76L271.89,238L272.19,237.47L272.34,237.47L272.48,237.47L272.92,237.47L273.07,219.58L273.22,233L273.36,204.85L273.51,224.94L273.66,193.23L273.95,200.38L274.1,181.62L274.25,197.77L274.39,164.46L275.42,237.47L275.57,237.47L278.06,237.47L278.21,247.59L278.65,256.12L278.8,246.78L279.09,252.7L279.24,243.61L279.53,241.17L279.68,258.11L279.97,250.41L280.12,240.71L280.27,248.89L280.86,240.25L281,242.15L281.3,241.38L281.44,249.78L281.88,247.78L282.03,247.51L282.18,246.92L282.32,239.34L282.47,239.7L282.62,238.03L282.76,242.5L283.21,237.57L283.35,238.42L283.5,237.71L283.65,237.81L283.79,241.06L284.53,237.49L284.67,237.7L284.82,237.53L286,237.5L286.14,240.86L286.29,245.11L286.73,237.47L286.88,237.47L288.49,162.95L288.64,221.01L288.79,156.77L289.08,237.47L289.23,237.47L289.37,237.47L292.17,237.47L292.31,251.58L292.75,264.63L292.9,243.92L293.05,264.01L293.19,245.04L293.49,243.33L293.93,264.86L294.08,247.3L294.22,266.95L294.66,243.73L294.81,252.36L294.96,241.2L295.1,257.48L295.69,255.06L295.84,241.87L296.13,249.16L296.43,238.6L296.57,237.51L297.45,243.03L297.6,238.86L297.75,237.47L297.89,239.76L298.04,238.05L298.19,245.89L298.78,238.03L299.07,238.73L299.22,237.47L299.36,241.7L299.95,238.73L300.1,238.4L300.24,237.84L300.39,238.65L300.54,242.85L301.42,211.07L301.71,218.22L301.86,187.31L302.01,225.92L302.45,185.19L302.59,190.68L302.74,191.09L303.04,205.88L303.18,142.9L303.33,214.99L303.48,202.27L303.77,237.47L303.92,237.47L306.12,237.47L306.27,245.91L306.41,239.58L306.56,250.57L307,241.34L307.15,250.76L307.88,240.67L308.03,250.54L308.76,239.42L308.91,246.22L309.21,248.24L309.65,238.85L309.79,239.19L309.94,237.9L310.09,237.47L310.23,240.85L311.11,237.47L311.26,240.35L312.14,237.47L312.29,237.47L312.58,237.47L312.73,238.98L313.61,237.47L313.76,237.47L314.79,237.47L314.93,231.71L315.23,234.75L315.82,192.6L315.96,159.01L316.99,237.47L317.14,237.47L320.52,237.47L320.66,243.78L321.1,238.87L321.4,240.59L321.54,240.3L321.84,238.38L321.98,243.32L322.43,241.66L322.57,238.35L322.87,238.43L323.31,237.47L323.45,238.5L324.33,237.47L324.48,237.47L325.22,237.47L325.36,237.47L329.18,237.47L329.33,227.44L329.62,208L329.77,231.02L329.92,237.47L334.62,237.47L334.76,242.03L335.2,243.34L335.35,239.44L335.5,242.19L335.94,238.53L336.09,242.73L336.23,238.79L336.38,240.44L336.82,237.48L337.26,237.55L337.41,237.49L343.14,237.47L343.28,233.84L343.58,215.22L343.87,237.47L344.02,237.47L348.57,237.47L348.72,242.13L349.01,244.69L349.16,239.64L349.45,240.05L349.6,241.55L349.89,243.25L350.19,238.05L350.33,240.42L350.48,239.79L351.66,237.58L351.8,237.47L352.39,237.47L352.54,239.33L353.42,237.47L353.57,237.47L357.24,237.47L357.39,234.3L357.83,209.64L357.97,231.65L358.12,237.47L362.53,237.47L362.67,238.71L363.26,249.76L363.55,247.84L363.7,250.03L364,253.59L364.14,241.26L364.44,242.07L364.58,253.51L365.02,241.04L365.32,241.11L365.46,251.08L366.2,240.65L366.35,250.27L366.49,240.67L367.08,242.86L367.23,246.34L367.67,237.47L368.11,237.68L368.26,237.53L370.16,237.47L370.31,237.47L371.19,237.47L371.34,232.97L371.49,236.35L371.63,233.08L371.78,213.6L371.93,215.1L372.07,202.51L372.96,169.57L373.1,223.14L373.98,237.47L374.13,237.47L376.77,238.06L376.92,244.37L377.22,250.53L377.8,249.42L377.95,246.23L378.24,247.14L378.39,244.62L378.68,240.59L378.83,252.14L379.13,246.87L379.27,239.82L379.42,246.84L379.71,238.37L379.86,238.53L380.01,238.14L380.3,237.47L380.45,240.66L381.03,237.47L381.33,237.65L381.48,237.47L381.92,237.47L382.06,238.29L382.94,237.47L383.09,237.47L385,237.47L385.15,239.72L385.29,240.36L385.44,238.06L385.59,237.47L386.62,191.1L386.76,179.85L387.94,237.47L388.09,237.47L391.02,237.47L391.17,242.14L391.46,244.68L391.61,238.99L391.76,245.24L392.35,240.77L392.49,243.28L393.23,238.18L393.37,239.32L393.52,237.94L393.81,237.48L393.96,240.18L394.84,237.47L394.99,237.89L396.02,237.47L396.16,237.47L399.54,237.47L399.69,236.18L400.13,203.72L400.42,237.47L400.57,237.47L404.98,237.47L405.12,238.69L405.27,245.22L405.86,240.71L406.01,241.59L406.3,240.83L406.45,243.11L406.59,238.74L406.74,244.42L407.33,242.47L407.47,238.72L407.77,240.54L408.21,237.47L408.36,238.53L408.65,238.99L409.24,237.47L409.38,237.47L409.53,237.84L410.12,237.47L410.27,237.47L413.79,237.47L413.94,218.39L414.23,216.34L414.38,204.96L414.53,195.61L414.67,228.77L414.82,237.47L419.08,237.47L419.23,239.26L419.81,238.98L419.96,247.05L420.11,239.87L420.25,251.46L420.7,238.46L420.84,244.28L420.99,239.18L421.14,241.52L421.58,238.71L421.72,237.7L422.02,240.44L422.31,238.8L422.46,237.88L422.6,238.99L422.9,237.47L423.19,237.76L423.34,237.54L423.49,238.34L424.07,237.47L424.22,237.47L427.01,237.47L427.16,240.44L427.31,244.67L427.75,238.7L427.89,237.47L428.04,235.73L428.19,222.14L428.33,220.71L428.48,201.15L428.63,201.67L428.77,184.5L429.66,237.47L429.8,237.47L433.03,237.47L433.18,242.56L433.33,241.95L433.47,242.38L433.62,244.82L434.36,238.67L434.5,243.78L435.38,238.58L435.53,239.26L435.68,241.1L436.41,237.78L436.56,238.92L437,237.49" style="vector-effect: non-scaling-stroke; fill: none; stroke: rgb(0, 191, 255); stroke-opacity: 1; stroke-width: 2px; opacity: 1;"/></g><g class="points"/><g class="text"/></g><g class="trace scatter tracecafa50" style="stroke-miterlimit: 2; opacity: 0.5;"><g class="fills"/><g class="errorbars"/><g class="lines"><path class="js-line" d="M0,237.76L4.11,237.12L4.26,234.41L5.43,188.13L5.58,172.62L6.02,100.2L6.17,48.23L7.05,16L7.2,16.11L8.52,16.4L8.67,19.07L9.99,151L10.14,170.86L11.16,237.78L11.31,237.77L11.46,237.77L18.07,237.45L18.21,236.76L19.1,195.12L19.24,188.01L19.83,109.52L19.98,73.52L20.86,16.05L21.15,16.18L21.3,16.13L22.47,16.33L22.62,17.85L23.65,99.94L23.8,118.2L25.41,237.78L25.56,237.78L32.02,237.64L32.17,236.64L32.9,196.68L33.05,179.39L35.11,16.53L35.25,16.46L36.58,17.17L36.72,20.87L37.9,122.5L38.04,140.78L39.51,237.77L39.66,237.78L45.54,237.75L45.68,237.76L46.12,237.62L46.27,236.98L46.86,211.65L47.01,197.43L49.06,17.27L49.21,16.55L50.68,17.52L50.82,21.67L52.15,140.81L52.29,158.62L53.62,237.77L53.76,237.77L59.49,237.76L59.64,237.76L60.37,237.01L60.52,233.07L61.11,193.11L61.25,175.22L63.46,16.65L63.6,16.7L63.75,16.71L64.49,16.78L64.63,17.54L65.37,54.87L65.51,67.89L67.72,237.77L67.86,237.77L74.62,237.46L74.77,236.92L76.24,167.93L76.38,146.61L77.26,20.6L77.41,17.53L77.56,16.38L78.29,16.49L78.44,16.37L78.73,21.23L78.88,24.5L79.47,60.6L79.61,72.2L81.52,237.78L81.82,237.77L81.97,237.77L88.58,237.01L88.72,232.64L89.75,155.88L89.9,141.07L91.66,22.71L91.81,20.02L92.25,17.1L92.39,18.88L92.54,22.41L92.98,32.69L93.13,36.78L93.86,92.58L94.01,107.78L95.92,237.77L96.07,237.77L102.68,237.03L102.82,233.9L103.56,187.54L103.7,172.5L105.76,21.48L105.91,17.86L106.2,16.35L106.35,19.21L106.5,49.4L106.64,18.95L106.94,25.21L107.08,133.76L107.38,175.92L107.52,64.89L107.67,62.14L107.82,93.45L108.11,100.76L108.26,122.26L109.73,237.78L109.87,237.77L116.78,237.14L116.93,234.34L117.66,186.63L117.81,172.37L119.86,24.06L120.01,20.52L120.3,55.83L120.45,16.63L121.04,24.11L121.18,29.7L122.21,107.27L122.36,124.02L123.98,237.78L124.12,237.78L130.88,237.45L131.03,236.08L132.35,153.26L132.5,140.38L133.52,40.1L133.67,34.58L134.55,17.81L134.7,18.41L134.85,22.66L134.99,40.84L135.43,33.39L135.58,169.78L135.73,179.53L135.87,179.1L136.02,75.61L137.93,237.77L138.08,237.77L145.27,237.04L145.42,235.23L147.63,168.93L147.77,160.79L148.36,86.05L148.51,27.86L148.65,29.14L148.8,106.44L148.95,147.24L149.39,63.8L149.53,82.65L150.56,215.14L150.71,212.35L150.86,212.23L151,200.67L152.03,237.77L152.18,237.75L152.33,237.75L159.23,237.05L159.38,233.76L161.14,186.61L161.29,138.26L161.58,139.4L162.02,80.84L162.17,26.03L162.46,23.64L162.61,46.05L162.75,71.16L163.2,19.57L163.34,25.93L164.52,115.92L164.66,147.93L166.13,237.77L166.28,237.77L173.33,237.28L173.48,236.48L175.24,148.08L175.39,133.21L176.27,26.64L176.42,26.84L176.56,23.08L176.71,21.45L177.15,23.36L177.3,26.61L178.33,90.59L178.47,103.28L180.38,237.77L180.53,237.76L187.58,237.14L187.73,234.97L189.93,173.51L190.08,151.02L190.96,24.87L191.4,33.96L191.55,38.46L192.43,94.81L192.57,108.13L194.34,237.78L194.48,237.77L194.63,237.76L201.53,237.38L201.68,235.91L202.56,215.15L202.71,221.77L202.86,221.33L204.62,172.47L204.77,144.95L204.91,148.84L205.06,127.01L206.82,212.97L206.97,206.15L208,237.77L208.14,237.76L215.64,237.16L215.78,235.63L216.81,200.31L216.96,192.18L217.99,148.6L218.13,155.83L218.43,161.21L218.57,143.19L218.87,73.38L219.45,90.82L219.6,119.42L219.75,101.19L220.04,150.61L220.19,164.13L222.1,237.44L222.25,237.63L223.42,237.77L223.57,237.77L229.59,237.46L229.74,235.96L230.47,184.62L230.62,166.31L232.53,17.03L232.67,16.43L233.7,16.74L233.85,17.83L234.44,51.65L234.58,63.87L236.79,237.77L236.93,237.77L242.66,237.76L242.81,237.76L243.69,237.49L243.84,236.64L244.43,204.44L244.57,186.08L246.63,17.81L246.78,16.63L247.8,16.91L247.95,18.23L248.69,59.95L248.83,71.67L250.89,237.77L251.04,237.77L257.79,237.52L257.94,236.86L258.53,208.96L258.67,190.2L260.73,19.55L260.88,16.67L261.61,16.71L261.76,16.7L261.91,16.77L262.05,18.07L263.08,88.5L263.23,104.03L264.99,237.77L265.14,237.77L271.89,237.52L272.04,236.19L272.92,175.38L273.07,142.21L273.22,142.18L273.36,119.64L274.83,22.72L274.98,24.39L275.71,16.96L275.86,19.85L276.01,17.43L276.3,24.11L276.45,33.34L277.62,142.66L277.77,162.18L279.09,237.77L279.24,237.77L284.97,237.76L285.11,237.76L286.14,237.2L286.29,236.01L286.88,193.44L287.02,174.41L288.49,34.31L288.64,86.88L289.67,18.43L289.82,24.57L289.96,16.75L290.4,24.96L290.55,32.51L291.43,105.56L291.58,123.91L293.19,237.77L293.34,237.76L300.54,237.02L300.69,231.89L302.59,89.59L302.74,98.17L303.04,100.64L303.18,49.96L303.33,93.48L303.48,141.9L304.65,18.33L304.8,28.67L305.68,167.02L305.83,135.11L306.71,237.58L306.85,237.72L308.91,237.76L309.06,237.76L314.2,237.63L314.35,235.31L315.82,113.45L315.96,68.62L317.14,16.28L317.72,16.43L317.87,16.65L318.46,16.43L318.61,18.1L319.63,105.06L319.78,124.73L321.25,237.77L321.4,237.76L328.45,237.21L328.59,234.55L329.04,212.24L329.18,194.37L331.09,16.11L331.24,16.44L331.39,16.13L332.71,16.57L332.85,20.89L334.03,138.79L334.18,158.78L335.35,237.77L335.5,237.77L341.23,237.76L341.37,237.76L342.55,237.07L342.7,234.73L343.14,212.88L343.28,195.49L345.34,22.09L345.49,17.54L345.63,16.35L346.22,16.61L346.37,16.64L346.52,16.72L346.66,17.81L347.25,53.26L347.4,64.94L349.6,237.77L349.75,237.76L356.65,237.16L356.8,233.91L357.24,212.63L357.39,196.32L359.29,36.32L359.44,33.1L360.32,16.24L360.47,16.47L361.06,35.5L361.2,46.55L362.23,150.68L362.38,171.01L363.55,237.78L363.7,237.77L370.75,237.1L370.9,233.31L371.78,165.63L371.93,149.27L373.54,28.58L373.69,24.8L374.42,18.65L374.57,19.62L374.72,20.39L375.31,48.42L375.45,59.09L377.8,237.77L377.95,237.75L384.85,237.29L385,235.36L385.44,215.61L385.59,199.6L387.64,29.66L387.79,24.92L388.38,17.13L388.53,27.64L388.82,17.78L389.11,26.42L389.26,35.82L391.32,237.49L391.46,237.74L394.4,237.76L394.55,237.76L398.96,237.27L399.1,235.66L399.69,200.75L399.84,182.18L401.6,36.86L401.75,30.44L402.48,17.15L402.63,21.51L402.77,22.97L402.92,23.09L403.07,26.7L404.24,118.17L404.39,136.79L405.86,237.77L406.01,237.77L413.06,237.25L413.2,233.46L414.38,144.37L414.53,122.49L415.99,28.81L416.14,26.92L416.88,20.83L417.02,23.68L417.17,26.99L417.9,73.25L418.05,86.48L419.96,237.77L420.11,237.77L427.16,237.3L427.31,236.11L427.89,202.09L428.04,183.33L429.95,36.79L430.1,30.07L430.24,26.09L430.39,60.84L430.54,26.47L430.83,85.31L430.98,117.34L431.12,109.57L431.27,146.51L431.57,87.84L431.86,108.05L432.01,162.51L432.3,185.45L432.45,160.8L432.59,141.5L433.77,237.77L433.92,237.78L437,237.76" style="vector-effect: non-scaling-stroke; fill: none; stroke: rgb(255, 0, 0); stroke-opacity: 1; stroke-width: 2px; opacity: 1;"/></g><g class="points"/><g class="text"/></g><g class="trace scatter trace8a0dd9" style="stroke-miterlimit: 2; opacity: 0.5;"><g class="fills"/><g class="errorbars"/><g class="lines"><path class="js-line" d="M0,294.05L0.29,272.18L0.88,272.79L1.03,271.86L1.32,274.31L1.76,273.45L1.91,270.9L2.79,273.82L2.94,269.75L3.53,272.7L3.67,270.43L3.82,270.1L4.26,272.7L4.41,271.79L4.55,262.09L4.85,263.95L4.99,252.8L5.88,214.42L6.02,187.15L6.17,181.84L6.32,145.73L6.61,144.98L6.76,164.64L6.9,95.42L7.64,68.97L7.79,83.76L8.08,78.84L8.23,84.38L8.37,83.29L8.52,87.42L8.67,85.64L8.81,99.6L11.02,285.36L11.31,281.98L11.46,275.26L11.75,275.01L12.19,289.46L12.34,274.41L12.49,278.78L12.93,273.43L13.07,274.89L13.22,273.52L13.37,275.34L13.81,272.62L13.95,272.53L14.25,271.65L14.54,273.53L14.69,271.02L14.98,270.35L15.13,272.74L15.28,272.37L15.42,270.74L15.57,272.91L15.72,269.81L16.16,272.64L16.3,272.41L16.6,272.51L16.75,272.2L16.89,270.64L17.33,269.98L17.63,273.21L17.77,269.88L18.07,272.78L18.36,272.03L18.51,265.61L20.12,167.27L20.27,116.93L20.86,82.31L21.15,91L21.3,87.57L21.45,94.59L21.59,78.55L22.03,90.22L22.18,75.84L24.24,242.21L24.38,262.5L24.97,289.27L25.27,287.57L25.41,279.12L25.56,286.1L26,282.43L26.15,275.79L26.29,283L26.73,273.7L26.88,277.15L27.03,277.05L27.32,277.41L27.91,273.09L28.06,274.57L28.5,274.7L28.64,271.48L28.94,272.94L29.08,272.41L29.23,273.04L29.38,271.36L29.53,271.58L29.67,270.35L30.41,274.24L30.55,269.82L30.85,272.6L31.14,272.35L31.29,269.55L31.43,272.58L32.02,271.9L32.17,271.48L32.76,251.66L32.9,241.77L34.23,180.13L34.37,188.22L34.52,134.08L34.96,95.26L35.4,105.47L35.55,104.29L35.69,99.95L35.84,108.48L35.99,105.69L36.14,129.62L36.58,110.59L36.87,113.67L37.02,130.4L39.37,294.61L39.51,280.03L39.66,287.86L40.25,279.83L40.39,287.3L40.54,278.49L40.84,276.15L40.98,274.93L41.13,281.74L41.57,279.97L41.72,274.15L41.86,279.69L42.45,278.89L42.6,275.77L43.04,276.39L43.19,273.54L43.33,276.88L43.77,272.15L44.21,272.63L44.36,272.51L44.8,274.36L44.95,270.76L45.68,272.83L45.83,272.46L45.98,272.68L46.86,248.47L47.01,240.86L48.77,171.79L48.91,110.93L49.5,95.98L49.65,98.87L49.8,104.24L50.68,126.58L50.82,132.15L50.97,134.85L51.12,158.15L51.26,151.37L51.41,182.27L51.56,177.39L51.71,193.45L51.85,208.1L53.17,291.06L53.47,289.21L53.62,278.06L54.35,301.39L54.5,287.2L54.64,302.76L55.08,279.85L55.23,290.33L55.38,278.19L55.82,293.3L55.97,277.08L56.11,287.94L56.26,282.01L56.55,281.13L56.99,287.4L57.14,276.24L57.29,286.55L57.73,273.54L57.87,275.68L58.02,270.98L58.17,273.4L58.61,273.35L58.76,268.65L59.64,273.49L59.78,272.24L60.23,272.51L60.67,266.5L60.81,257.63L63.31,158.77L63.46,174.31L63.6,171.92L63.75,126.23L64.34,100.85L64.63,107.09L64.78,110.45L65.37,139.37L65.51,172.13L65.95,195.79L66.1,211.25L67.28,304L67.42,280.2L67.86,303.74L68.16,297.76L68.3,279.87L68.74,299.04L68.89,277.71L69.04,294.27L69.19,278.17L69.33,292.72L69.48,277.17L69.92,285.25L70.07,281.4L70.21,287.84L70.65,278.24L70.8,276.16L71.1,276.58L71.54,273.12L71.68,275.57L71.98,276.41L72.42,272.95L72.56,275.07L73.45,272.72L73.59,273.49L73.74,273.09L73.89,274.63L74.03,274.51L75.21,263.35L75.35,272.31L76.38,224.57L76.53,195.52L77.26,145.72L77.41,191.09L78,194.5L78.44,86.44L78.59,99.1L78.73,99.57L78.88,105.82L81.52,296.24L81.67,284.11L81.82,296L82.26,277.66L82.41,287.39L82.55,279.94L82.7,282.47L82.85,278.18L82.99,274.5L83.14,280.47L83.73,275.13L83.87,278.12L84.46,271.38L84.9,271.55L85.05,273.54L85.2,276.3L85.34,273.1L85.64,273.48L85.78,272.94L85.93,274.77L86.22,272.31L86.37,273.14L86.52,272.11L87.11,274.09L87.25,270.63L87.4,272.93L87.55,270.6L87.99,272.4L88.13,270.18L88.58,274.32L88.72,269.88L88.87,271.14L89.02,270.8L90.78,175.95L91.07,176.13L91.22,179.31L91.51,97.12L92.1,123.15L92.25,105.77L92.54,105.3L92.69,106.31L92.83,116.12L92.98,116.79L93.13,127.56L93.28,127.77L93.42,137.81L95.04,278.08L95.19,287.34L95.33,286.42L95.48,290.89L95.77,285.95L95.92,292.72L96.36,278.2L96.51,295.71L96.65,278.66L96.8,295.14L97.54,276.12L97.68,281.25L97.83,275.1L98.12,273.66L98.27,277.71L98.56,278.56L99.15,272.06L99.3,273.88L99.45,276.48L100.18,272.92L100.33,274.03L100.62,274.26L100.77,272.1L101.21,272.74L101.35,272.88L101.5,268.84L101.8,273.24L102.09,272.73L102.24,271.05L102.53,272.82L102.82,270.6L102.97,264.88L105.17,169.61L105.32,178.8L105.47,118.56L105.91,84.8L106.2,85.45L106.35,95.05L107.23,255.43L107.38,248.58L107.52,153.06L107.67,141.28L107.82,177.67L107.96,179.81L108.26,204.92L108.41,229.39L108.7,250.14L108.85,271.52L109.58,297L109.73,279.51L109.87,298.84L110.02,278.72L110.46,296.25L110.61,278.38L110.76,295.83L111.2,277.03L111.34,291.12L111.49,278.71L111.64,290.47L112.08,275.05L112.22,276.31L112.52,279.99L113.11,274.41L113.25,279.55L113.69,272.46L114.13,272.83L114.28,272.94L114.43,274.88L114.87,273.52L115.02,272.67L115.16,271.48L115.46,273.02L115.6,272.62L115.75,272.91L116.34,273.53L116.48,270.05L116.63,272.46L116.78,272.39L116.93,267.81L117.07,269.57L117.22,257.84L119.13,165.18L119.28,187.44L120.01,82.95L120.16,92.13L120.3,126.24L120.45,87.02L121.04,96.54L121.18,108.55L121.63,128.12L121.77,146.38L121.92,147.34L122.07,173.68L122.51,206.3L122.65,234.27L123.68,288.73L123.98,288.04L124.12,277.13L124.42,276.68L124.56,289.38L124.86,286.01L125,276L125.44,278.99L125.59,274.74L125.74,278.21L125.89,274.34L126.03,279.17L126.47,272.75L126.62,274.24L126.77,278.72L127.65,273.29L127.79,275.7L128.09,271.93L128.53,273.28L128.68,274.16L129.26,269.86L129.41,272.97L129.56,274.34L130.15,268.32L130.29,270.54L130.44,272.53L130.59,272.81L130.73,270.11L131.17,275.34L131.47,271.08L131.61,257.01L132.2,236.88L132.35,232.83L133.38,160.37L133.52,193.8L134.26,81.49L134.55,94.75L134.7,108.17L134.85,104.4L134.99,137.52L135.14,118.54L135.43,127.9L135.58,256.17L135.73,265.45L135.87,262.86L136.02,174.68L136.17,175.5L136.31,202.78L137.64,289.26L137.93,288.06L138.08,283.13L138.66,287.56L138.81,275.58L138.96,284.92L139.69,275.85L139.84,277.69L140.72,273.41L140.87,276.29L141.16,276.87L141.46,272.61L141.6,272.96L141.75,274.94L142.04,275.12L142.19,273.51L142.48,273.62L142.63,274.99L143.37,273L143.51,274.04L143.66,270.04L144.25,272.55L144.39,273.07L144.54,273.01L144.69,270.77L145.57,277.17L145.72,276.24L145.86,276.48L146.01,278.14L146.16,268.58L146.3,272.18L146.6,268.03L146.74,261.79L148.65,156.21L148.8,192.73L149.39,226L149.53,173.03L150.56,272.93L150.71,272.42L150.86,265.32L151,256.58L151.3,274.76L151.44,281.52L151.89,275.45L152.03,284.32L152.18,273.9L152.77,273.91L152.91,278.56L153.35,273.3L153.65,273.52L153.79,275.14L154.24,275.78L154.38,271.96L154.53,272.94L154.68,274.41L154.97,270.25L155.41,272.29L155.56,272.67L155.85,271.67L156.14,273.61L156.29,273.75L157.03,271.1L157.17,272.52L157.32,273.07L157.76,271.11L158.2,271.36L158.35,272.66L159.08,272.79L159.23,270.36L159.38,270.54L159.82,272.72L159.96,264.98L160.11,245.65L160.26,245.22L160.4,250.64L161.29,226.2L161.43,201.56L161.58,228.69L161.87,213.71L162.02,142.97L162.17,76.93L162.75,141.96L162.9,108.42L163.05,88.2L163.49,107.29L163.64,122.25L163.78,120.19L163.93,145.02L164.08,145.54L164.22,163.87L165.69,286.27L165.84,278.8L165.99,285.47L166.43,275.88L166.57,277.89L166.72,275.17L166.87,283.32L167.31,275.79L167.46,278.66L167.75,278.91L168.34,273.31L168.48,273.08L168.63,275.29L169.07,272.93L169.22,272.62L169.37,272.9L169.51,269.48L169.81,273.79L170.25,272.51L170.39,269.41L170.83,273.19L170.98,272L171.13,269.5L171.42,273.36L171.57,269.17L171.86,272.69L172.01,270.95L172.45,272.4L172.6,268.69L172.74,269.69L172.89,271.73L173.04,272.2L173.18,267.98L173.48,272.48L173.62,267.65L173.77,260.31L174.07,269.12L174.51,261.44L174.65,252.66L175.24,230.82L175.39,210.77L175.53,208.29L175.68,185.41L175.83,192.08L175.98,172.87L176.12,121.5L176.71,78.46L177,86.57L177.15,88.09L177.88,122.99L178.03,162.25L178.18,164.88L178.33,187.23L178.47,185.52L178.62,210.87L178.77,212.92L178.91,236.15L180.23,298.68L180.38,278.09L180.53,293.48L180.68,277.5L181.12,292.89L181.26,276.54L181.41,288.99L182,283.91L182.14,275.78L182.29,285.04L182.73,277.15L182.88,273.64L183.17,271.73L183.32,273.2L183.47,275.29L183.61,269.34L184.2,270.34L184.35,273.03L184.49,273.46L184.64,271.16L184.94,269.25L185.23,272.75L185.38,272.61L185.52,272.36L185.82,272.65L186.11,272.44L186.26,271.1L186.4,270.12L186.55,272.7L186.85,271.22L186.99,272.68L187.14,273.22L187.29,270L187.73,284.51L188.02,280.22L188.17,276.38L188.31,277.36L188.46,273.09L188.61,275.93L188.75,273.29L188.9,267.15L189.05,268.01L189.2,266.6L189.34,262.31L190.66,175.26L190.81,210.53L190.96,130.71L191.1,201.67L191.55,122.37L191.69,110.06L191.84,110.04L191.99,123.38L192.57,168.32L192.72,188.89L194.48,280.89L194.63,274.67L194.78,273.84L194.92,279.09L195.81,271.39L195.95,272.78L196.1,272.45L196.25,274.04L196.39,275.86L196.83,272.78L196.98,274.55L197.13,273.45L197.27,269.24L197.57,274.13L197.86,270.97L198.01,273.18L199.04,271.28L199.18,272.61L199.48,272.28L199.62,269.97L200.07,273.58L200.36,272.91L200.51,270.88L200.8,272.76L200.95,269.71L201.24,272.71L201.39,271.38L201.68,272.61L201.83,270.1L202.56,249.85L202.86,259.66L203,257.01L203.15,255.06L203.3,242.45L204.33,225.14L204.47,233.07L205.21,195.99L205.35,224.84L205.65,190.57L206.09,192.24L206.23,238.07L207.41,273.08L207.56,275.58L207.85,283.06L208,274.25L208.29,275.3L208.44,274.04L208.58,278.75L208.73,272.99L209.17,276.18L209.32,273.01L209.61,275.55L209.76,272.74L210.05,274.28L210.2,273.15L210.35,270.76L210.94,272.73L211.08,273.32L211.82,269.69L211.96,271L212.11,272.76L212.26,273.93L212.4,271.16L212.7,272.71L212.84,271.62L213.29,272.65L213.43,269.75L213.58,270.87L213.73,272.5L213.87,272.79L214.02,270.27L214.31,270.74L214.46,272.46L215.05,272.19L215.19,271.4L215.49,270.23L215.64,272.58L215.78,271.82L215.93,269.93L217.25,221.98L217.4,229.54L217.55,228.56L217.69,232.86L218.87,116.81L219.31,131.17L219.45,137.64L220.48,232.94L220.63,230.91L220.78,238.24L220.92,236.64L221.07,253.31L221.22,253.24L221.36,260.3L222.69,277.65L222.83,273.64L223.27,279.01L223.42,273.47L223.86,282.57L224.01,274.33L224.16,275.58L224.3,273.09L224.45,270.59L224.74,272.89L224.89,271.16L225.04,270.34L225.77,272.46L225.92,270.99L226.36,272.33L226.51,270.16L226.65,271.6L226.8,271.87L226.95,272.18L227.09,271.14L227.24,271.53L227.39,270.73L227.53,271L227.68,269.97L227.97,270.24L228.12,270.03L228.42,270.83L228.56,269.69L228.71,269.81L228.86,269.54L229.74,270.84L229.88,272.84L230.18,262.59L230.32,252.55L232.53,65.96L232.67,74.03L232.82,72.13L232.97,76.05L233.12,84.15L233.26,75.67L233.7,93.23L233.85,86.53L234.14,103.01L234.29,111.68L236.64,287.79L236.79,276.81L237.23,275.26L237.38,283.92L237.52,274.58L237.67,278.48L238.11,273.14L238.26,275.43L238.4,277.42L239.14,269.7L239.29,272.8L239.43,273.73L239.58,269.03L240.17,272.02L240.31,272.79L240.46,271.87L241.05,272.12L241.19,272.18L241.49,272.31L241.64,269.91L241.93,270.43L242.08,272.09L242.37,272.11L242.81,268.79L242.96,269.74L243.1,272.32L243.69,268.65L243.84,271.45L244.13,272L244.43,255.59L244.57,242.66L245.9,144.83L246.04,118.8L246.19,120.29L246.34,98L246.48,114.37L246.92,86.47L247.07,87.49L250.6,297.01L250.74,288.15L250.89,291.09L251.04,291.76L251.18,287.21L251.48,281.07L251.62,294.67L251.77,278.75L251.92,296.87L252.51,286.22L252.65,280.61L252.8,289.6L252.95,277.14L253.39,282.13L253.53,282.94L253.68,283.35L253.83,273.78L253.97,273.57L254.12,276.8L254.56,272.33L255,272.98L255.15,274.53L255.3,269.41L255.88,271.87L256.03,271.39L256.18,272.35L256.47,269.5L256.62,270.13L256.77,272.26L257.35,272.11L257.5,269.96L257.65,270.02L257.79,271.76L258.23,268.72L258.38,271.73L258.53,263.18L259.7,183.31L259.85,219.05L260.29,165.7L260.58,166.15L260.73,189.69L261.32,92.14L261.91,108.12L262.05,102.88L264.55,299.07L264.7,290.21L264.84,303.57L265.28,276.86L265.43,290.17L265.58,276.44L265.73,288.85L266.17,274.87L266.31,281.47L266.46,275.44L266.61,275.79L266.75,274.76L266.9,282.05L267.05,274.38L267.63,275.59L267.78,275.81L268.66,272.31L268.81,272.76L269.1,272.72L269.25,273.78L269.54,275.12L269.69,272.21L269.84,270.8L270.13,273.5L270.28,270.73L270.57,273.1L270.72,270.1L270.87,272.36L271.6,272.25L271.75,269.75L271.89,272.3L272.19,267.17L272.34,263.29L272.63,268.52L272.78,251.6L274.54,167.49L274.69,203.05L275.27,108.36L275.71,111.72L275.86,121.78L276.01,114.98L276.15,130.72L276.3,139.58L276.45,134.35L276.74,149.32L276.89,140.5L277.04,171.11L277.33,193.79L277.48,228.66L277.62,227.54L277.77,247.08L278.8,289.66L278.95,280.58L279.24,285.86L279.39,278.39L279.53,284.19L279.68,276.55L280.12,283.51L280.27,275.12L280.41,283.3L280.56,274.54L280.71,279.39L281.3,278.6L281.44,278.1L281.59,285.11L282.18,281.04L282.32,275.13L282.62,271.71L283.21,272.11L283.35,272.4L283.5,272.07L283.79,273.02L283.94,270.09L284.38,273.03L284.53,270.23L284.67,272.27L285.41,272.13L285.56,269.44L286.14,273.7L286.29,277.2L286.44,278.64L286.58,269.62L288.2,182.72L288.35,194.37L288.49,189.6L288.79,216.96L289.23,92.8L289.82,99.42L289.96,102.93L290.11,86.06L290.55,96.69L290.7,116.73L290.84,117.89L290.99,140.84L292.61,292.26L292.75,283.52L293.19,298.73L293.34,278.72L293.49,292.75L293.63,278.32L294.37,301.02L294.52,279.38L294.66,289.26L294.81,275.96L295.25,288.13L295.4,275.73L295.98,275.7L296.13,284.52L296.28,281.48L296.57,271.92L297.16,273L297.31,273.76L297.75,270.23L298.04,271.74L298.19,273.7L299.07,268.64L299.22,271.42L299.8,271.04L300.1,273.56L300.24,272.95L300.54,273.86L300.69,266.87L302.01,202.23L302.15,224.94L303.04,177.16L303.18,198.84L303.48,226.41L303.77,151.63L303.92,170.62L304.06,179.24L304.65,72.16L304.8,92.66L304.95,130.64L305.53,225.35L305.68,222.26L305.83,194.42L306.71,285.6L306.85,276.75L307.3,285.52L307.44,276.5L307.59,284.74L307.74,275.22L308.18,283.48L308.32,274.95L308.47,281.93L308.62,273.97L309.06,280.3L309.35,278.31L309.5,273.32L309.65,273.42L309.79,272.34L310.23,272.61L310.38,268.93L310.53,270.34L310.67,272.41L311.26,272.6L311.41,269.98L311.56,271.04L311.7,272.03L312.44,269.95L312.58,270.76L312.73,272.39L313.02,270.08L313.61,270.27L313.76,270.22L314.05,269.87L314.2,270.54L314.35,271.57L316.11,157.11L316.26,100.39L317.14,67.74L317.28,68.36L317.43,65.63L317.58,70.23L317.87,65.95L318.02,71.54L318.46,65.27L318.61,72.57L318.75,76.68L320.07,213.75L320.22,226.99L320.81,276.99L321.25,273.94L321.4,278.53L322.28,273.25L322.43,275.37L323.16,269.81L323.31,270.3L323.45,272.41L324.19,269.75L324.33,270.19L324.48,270.55L324.63,272.14L324.78,270.08L325.07,270.37L325.22,269.98L325.51,270.66L325.66,269.77L325.95,269.97L326.1,269.52L326.39,269.88L326.54,269.22L326.69,269.52L326.83,269.76L326.98,270.21L327.13,269.18L327.42,269.71L327.57,269.56L328.01,269.88L328.15,269.02L328.3,269.33L328.45,270.61L329.04,250.01L329.18,244.37L331.68,55.83L331.83,68.68L332.12,97.32L332.56,72.12L332.71,67L333.44,119.66L333.59,141.06L334.18,203.41L334.32,235.09L335.35,277.53L335.5,273.87L335.94,276.04L336.09,273.16L336.23,272.02L336.53,274.77L336.67,271.24L336.82,272.33L336.97,272.31L337.55,269.94L337.7,270.55L337.85,272.35L338.73,269.92L338.88,270.25L339.02,270.11L339.17,270.05L339.32,270.92L340.2,269.37L340.35,270.14L341.08,269.24L341.23,269.47L341.37,270.23L342.26,269.18L342.4,269.95L342.55,270.14L342.7,268.64L343.43,228.55L343.58,216.14L344.75,108.07L344.9,106.75L345.05,106.21L345.19,93.58L345.93,76.39L346.07,86.95L346.22,84.44L346.52,87.98L346.66,86.5L346.81,95.79L347.84,186.91L347.98,206.84L349.16,279.11L349.45,277.42L349.6,274.23L349.89,273.67L350.04,277.26L350.92,272.42L351.07,272.5L351.22,269.5L351.8,271.17L351.95,269.94L352.1,269.43L352.39,270.54L352.54,272.36L352.68,269L353.27,270L353.42,270.9L354.15,269.56L354.45,270.02L354.59,270.07L355.33,269.47L355.48,269.79L355.92,270.22L356.21,269.78L356.36,269.86L356.65,270.78L356.8,268.13L357.39,235.38L357.53,229.24L358.41,120.1L358.56,86.44L358.85,107.47L359.15,100.38L359.29,81.18L359.44,97.39L359.88,73.76L360.03,76.53L360.32,74.27L361.2,104.88L361.35,128.11L362.23,207.11L362.38,222.28L363.41,284.97L363.55,283.65L363.85,284.17L364,279.53L364.14,285.86L364.44,288.23L364.88,275.75L365.02,285.58L365.76,274.86L365.9,282.51L366.64,275L366.79,282.95L367.67,271.81L367.81,272.54L368.26,270.43L368.55,271.98L368.7,272.2L369.14,270.38L369.58,270.73L369.72,270.4L370.75,271.37L370.9,268.82L372.81,174.2L372.96,180.94L373.1,126.91L374.13,66.9L374.28,76.16L374.42,75.6L374.57,70.27L375.6,141.78L375.75,160.33L377.22,285.07L377.66,283.64L377.8,282.35L377.95,283.6L378.1,280.5L378.39,281.72L378.54,280.08L378.68,284.54L378.83,275.63L378.98,282.66L379.13,274.39L379.57,280.65L379.71,272.54L379.86,273.31L380.01,272.94L380.15,270.06L380.45,272.68L381.03,271.42L381.18,272.28L381.77,270.94L381.92,271.77L382.06,272.24L382.65,269.84L382.8,270.54L382.94,270.5L383.24,269.97L383.38,271.02L383.68,270.22L383.83,270.24L384.12,270.15L384.27,270.69L384.41,270.57L384.56,270.05L384.85,270.92L385,270.5L385.15,273L385.29,274.31L385.44,265.02L387.79,91.48L387.94,87.08L388.09,96.17L388.38,71.68L388.53,83.49L388.67,74.72L388.97,83.8L389.11,98.32L391.32,278.17L391.46,277.69L391.9,279.9L392.05,274.27L392.2,276.81L392.35,276.24L392.79,273.61L392.93,277.48L393.81,270.75L393.96,272.67L394.7,269.79L394.84,270.33L394.99,272.29L395.28,269.7L395.58,270.46L395.72,272.19L396.16,269.74L396.61,270.12L396.75,269.54L397.49,270.54L397.63,269.64L398.22,269.22L398.51,270.13L398.66,269.64L398.81,269.67L398.96,270.85L399.4,262.28L399.54,250.78L401.89,67.67L402.04,64.83L402.19,61.07L402.33,67.06L402.48,64.49L402.63,69.32L402.92,74.07L403.07,80.8L403.51,110.61L403.66,127.02L404.39,188.53L404.54,213.86L405.42,279.79L405.86,277.86L406.01,275.23L406.3,276.83L406.59,276.17L406.74,273.86L406.89,277.4L407.33,273.04L407.47,270.4L407.77,272.78L408.36,272.29L408.5,270.25L408.65,272.44L409.24,270.61L409.38,271.59L409.53,272.2L409.68,270.58L409.83,270.6L409.97,270.33L410.41,270.24L410.56,269.77L411.44,270.45L411.59,269.6L412.47,270.56L412.62,269.76L413.06,270.91L413.2,266.85L414.53,199.49L414.67,150.27L415.55,81.93L415.7,82.88L415.85,75.32L415.99,69.45L416.14,76.28L416.58,70.72L416.73,74.42L417.9,136.53L418.05,150.71L419.67,278.18L419.81,276.69L419.96,274.43L420.4,286.23L420.55,276.11L420.7,274.07L420.99,272.72L421.14,273.42L421.28,276.54L422.16,269.48L422.31,272.58L422.46,273.6L422.75,270.88L422.9,272.2L423.05,272.29L423.63,270.09L423.93,270.86L424.07,271.78L424.51,269.66L424.95,270.51L425.1,269.79L426.28,269.55L426.42,270.06L426.72,269.23L427.01,270.03L427.16,273.52L427.45,278.32L427.6,272.88L427.75,267.19L430.1,82.24L430.24,80.94L431.27,212.01L431.42,168.68L431.57,150.28L431.71,201.57L431.86,170.34L432.01,221.76L432.3,233.53L432.45,212.62L432.59,202.27L433.33,278.05L433.62,277.69L433.77,278.83L434.06,278.94L434.5,274.08L434.65,279.11L435.53,273.36L435.68,274.34L436.41,270L436.56,272.64L436.71,273.69L437,270.56" style="vector-effect: non-scaling-stroke; fill: none; stroke: rgb(0, 128, 0); stroke-opacity: 1; stroke-width: 2px; opacity: 1;"/></g><g class="points"/><g class="text"/></g></g></g><g class="overplot"/><path class="xlines-above crisp" d="M0,0" style="fill: none;"/><path class="ylines-above crisp" d="M0,0" style="fill: none;"/><g class="overlines-above"/><g class="xaxislayer-above"><g class="xtick"><text text-anchor="middle" x="0" y="433" transform="translate(94.1,0)" style="font-family: 'Open Sans', verdana, arial, sans-serif; font-size: 12px; fill: rgb(42, 63, 95); fill-opacity: 1; white-space: pre; opacity: 1;"><tspan class="line" dy="0em" x="0" y="433">Oct 2</tspan><tspan class="line" dy="1.3em" x="0" y="433">2022</tspan></text></g><g class="xtick"><text text-anchor="middle" x="0" y="433" style="font-family: 'Open Sans', verdana, arial, sans-serif; font-size: 12px; fill: rgb(42, 63, 95); fill-opacity: 1; white-space: pre; opacity: 1;" transform="translate(192.81,0)">Oct 9</text></g><g class="xtick"><text text-anchor="middle" x="0" y="433" style="font-family: 'Open Sans', verdana, arial, sans-serif; font-size: 12px; fill: rgb(42, 63, 95); fill-opacity: 1; white-space: pre; opacity: 1;" transform="translate(291.52,0)">Oct 16</text></g><g class="xtick"><text text-anchor="middle" x="0" y="433" style="font-family: 'Open Sans', verdana, arial, sans-serif; font-size: 12px; fill: rgb(42, 63, 95); fill-opacity: 1; white-space: pre; opacity: 1;" transform="translate(390.23,0)">Oct 23</text></g><g class="xtick"><text text-anchor="middle" x="0" y="433" style="font-family: 'Open Sans', verdana, arial, sans-serif; font-size: 12px; fill: rgb(42, 63, 95); fill-opacity: 1; white-space: pre; opacity: 1;" transform="translate(488.94,0)">Oct 30</text></g></g><g class="yaxislayer-above"><g class="ytick"><text text-anchor="end" x="79" y="4.199999999999999" transform="translate(0,383.83)" style="font-family: 'Open Sans', verdana, arial, sans-serif; font-size: 12px; fill: rgb(42, 63, 95); fill-opacity: 1; white-space: pre; opacity: 1;">−20</text></g><g class="ytick"><text text-anchor="end" x="79" y="4.199999999999999" style="font-family: 'Open Sans', verdana, arial, sans-serif; font-size: 12px; fill: rgb(42, 63, 95); fill-opacity: 1; white-space: pre; opacity: 1;" transform="translate(0,337.47)">0</text></g><g class="ytick"><text text-anchor="end" x="79" y="4.199999999999999" style="font-family: 'Open Sans', verdana, arial, sans-serif; font-size: 12px; fill: rgb(42, 63, 95); fill-opacity: 1; white-space: pre; opacity: 1;" transform="translate(0,291.12)">20</text></g><g class="ytick"><text text-anchor="end" x="79" y="4.199999999999999" style="font-family: 'Open Sans', verdana, arial, sans-serif; font-size: 12px; fill: rgb(42, 63, 95); fill-opacity: 1; white-space: pre; opacity: 1;" transform="translate(0,244.76)">40</text></g><g class="ytick"><text text-anchor="end" x="79" y="4.199999999999999" style="font-family: 'Open Sans', verdana, arial, sans-serif; font-size: 12px; fill: rgb(42, 63, 95); fill-opacity: 1; white-space: pre; opacity: 1;" transform="translate(0,198.4)">60</text></g><g class="ytick"><text text-anchor="end" x="79" y="4.199999999999999" style="font-family: 'Open Sans', verdana, arial, sans-serif; font-size: 12px; fill: rgb(42, 63, 95); fill-opacity: 1; white-space: pre; opacity: 1;" transform="translate(0,152.04)">80</text></g><g class="ytick"><text text-anchor="end" x="79" y="4.199999999999999" style="font-family: 'Open Sans', verdana, arial, sans-serif; font-size: 12px; fill: rgb(42, 63, 95); fill-opacity: 1; white-space: pre; opacity: 1;" transform="translate(0,105.68)">100</text></g></g><g class="overaxes-above"/></g></g><g class="polarlayer"/><g class="smithlayer"/><g class="ternarylayer"/><g class="geolayer"/><g class="funnelarealayer"/><g class="pielayer"/><g class="iciclelayer"/><g class="treemaplayer"/><g class="sunburstlayer"/><g class="glimages"/><defs id="topdefs-da05da"><g class="clips"/><clipPath id="legendda05da"><rect width="162" height="67" x="0" y="0"/></clipPath></defs><g class="layer-above"><g class="imagelayer"/><g class="shapelayer"/></g><g class="infolayer"><g class="legend" pointer-events="all" transform="translate(525.74,100)"><rect class="bg" shape-rendering="crispEdges" width="162" height="67" x="0" y="0" style="stroke: rgb(68, 68, 68); stroke-opacity: 1; fill: rgb(255, 255, 255); fill-opacity: 1; stroke-width: 0px;"/><g class="scrollbox" transform="" clip-path="url(#legendda05da)"><g class="groups"><g class="traces" transform="translate(0,14.5)" style="opacity: 1;"><text class="legendtext" text-anchor="start" x="40" y="4.680000000000001" style="font-family: 'Open Sans', verdana, arial, sans-serif; font-size: 12px; fill: rgb(42, 63, 95); fill-opacity: 1; white-space: pre;">BESS</text><g class="layers" style="opacity: 0.5;"><g class="legendfill"/><g class="legendlines"><path class="js-line" d="M5,0h30" style="fill: none; stroke: rgb(0, 191, 255); stroke-opacity: 1; stroke-width: 2px;"/></g><g class="legendsymbols"><g class="legendpoints"/></g></g><rect class="legendtoggle" x="0" y="-9.5" width="156.71875" height="19" style="fill: rgb(0, 0, 0); fill-opacity: 0;"/></g><g class="traces" transform="translate(0,33.5)" style="opacity: 1;"><text class="legendtext" text-anchor="start" x="40" y="4.680000000000001" style="font-family: 'Open Sans', verdana, arial, sans-serif; font-size: 12px; fill: rgb(42, 63, 95); fill-opacity: 1; white-space: pre;">Solar</text><g class="layers" style="opacity: 0.5;"><g class="legendfill"/><g class="legendlines"><path class="js-line" d="M5,0h30" style="fill: none; stroke: rgb(255, 0, 0); stroke-opacity: 1; stroke-width: 2px;"/></g><g class="legendsymbols"><g class="legendpoints"/></g></g><rect class="legendtoggle" x="0" y="-9.5" width="156.71875" height="19" style="fill: rgb(0, 0, 0); fill-opacity: 0;"/></g><g class="traces" transform="translate(0,52.5)" style="opacity: 1;"><text class="legendtext" text-anchor="start" x="40" y="4.680000000000001" style="font-family: 'Open Sans', verdana, arial, sans-serif; font-size: 12px; fill: rgb(42, 63, 95); fill-opacity: 1; white-space: pre;">Grid Meter (Net Load)</text><g class="layers" style="opacity: 0.5;"><g class="legendfill"/><g class="legendlines"><path class="js-line" d="M5,0h30" style="fill: none; stroke: rgb(0, 128, 0); stroke-opacity: 1; stroke-width: 2px;"/></g><g class="legendsymbols"><g class="legendpoints"/></g></g><rect class="legendtoggle" x="0" y="-9.5" width="156.71875" height="19" style="fill: rgb(0, 0, 0); fill-opacity: 0;"/></g></g></g><rect class="scrollbar" rx="20" ry="3" width="0" height="0" x="0" y="0" style="fill: rgb(128, 139, 164); fill-opacity: 1;"/></g><g class="g-gtitle"><text class="gtitle" x="298.5" y="50" text-anchor="middle" dy="0em" style="font-family: 'Open Sans', verdana, arial, sans-serif; font-size: 17px; fill: rgb(42, 63, 95); opacity: 1; font-weight: normal; white-space: pre;"><tspan class="line" dy="0em" x="298.5" y="50">Scenario 5</tspan><tspan class="line" dy="1.3em" x="298.5" y="50">Microgrid Output</tspan><tspan class="line" dy="2.6em" x="298.5" y="50">From: October 01, 2022 to October 31, 2022</tspan></text></g><g class="g-xtitle"><text class="xtitle" x="298.5" y="476.409375" text-anchor="middle" style="font-family: 'Open Sans', verdana, arial, sans-serif; font-size: 14px; fill: rgb(42, 63, 95); opacity: 1; font-weight: normal; white-space: pre;">Time</text></g><g class="g-ytitle"><text class="ytitle" transform="rotate(-90,33.840625,260)" x="33.840625" y="260" text-anchor="middle" style="font-family: 'Open Sans', verdana, arial, sans-serif; font-size: 14px; fill: rgb(42, 63, 95); opacity: 1; font-weight: normal; white-space: pre;">Demand (kW)</text></g></g></svg>