<svg class="main-svg" xmlns="http://www.w3.org/2000/svg" xmlns:xlink="http://www.w3.org/1999/xlink" width="700" height="500" style="" viewBox="0 0 700 500"><rect x="0" y="0" width="700" height="500" style="fill: rgb(255, 255, 255); fill-opacity: 1;"/><defs id="defs-bf7897"><g class="clips"><clipPath id="clipbf7897xyplot" class="plotclip"><rect width="540" height="320"/></clipPath><clipPath class="axesclip" id="clipbf7897x"><rect x="80" y="0" width="540" height="500"/></clipPath><clipPath class="axesclip" id="clipbf7897y"><rect x="0" y="100" width="700" height="320"/></clipPath><clipPath class="axesclip" id="clipbf7897xy"><rect x="80" y="100" width="540" height="320"/></clipPath></g><g class="gradients"/><g class="patterns"/></defs><g class="bglayer"/><g class="layer-below"><g class="imagelayer"/><g class="shapelayer"/></g><g class="cartesianlayer"><g class="subplot xy"><g class="layer-subplot"><g class="shapelayer"/><g class="imagelayer"/></g><g class="minor-gridlayer"><g class="x"/><g class="y"/></g><g class="gridlayer"><g class="x"><path class="xgrid crisp" transform="translate(97.43,0)" d="M0,100v320" style="stroke: rgb(255, 255, 255); stroke-opacity: 1; stroke-width: 1px;"/><path class="xgrid crisp" transform="translate(219.4,0)" d="M0,100v320" style="stroke: rgb(255, 255, 255); stroke-opacity: 1; stroke-width: 1px;"/><path class="xgrid crisp" transform="translate(341.38,0)" d="M0,100v320" style="stroke: rgb(255, 255, 255); stroke-opacity: 1; stroke-width: 1px;"/><path class="xgrid crisp" transform="translate(463.35,0)" d="M0,100v320" style="stroke: rgb(255, 255, 255); stroke-opacity: 1; stroke-width: 1px;"/><path class="xgrid crisp" transform="translate(585.3299999999999,0)" d="M0,100v320" style="stroke: rgb(255, 255, 255); stroke-opacity: 1; stroke-width: 1px;"/></g><g class="y"><path class="ygrid crisp" transform="translate(0,295.2)" d="M80,0h540" style="stroke: rgb(255, 255, 255); stroke-opacity: 1; stroke-width: 1px;"/><path class="ygrid crisp" transform="translate(0,233.17)" d="M80,0h540" style="stroke: rgb(255, 255, 255); stroke-opacity: 1; stroke-width: 1px;"/><path class="ygrid crisp" transform="translate(0,171.13)" d="M80,0h540" style="stroke: rgb(255, 255, 255); stroke-opacity: 1; stroke-width: 1px;"/><path class="ygrid crisp" transform="translate(0,109.09)" d="M80,0h540" style="stroke: rgb(255, 255, 255); stroke-opacity: 1; stroke-width: 1px;"/></g></g><g class="zerolinelayer"><path class="yzl zl crisp" transform="translate(0,357.24)" d="M80,0h540" style="stroke: rgb(255, 255, 255); stroke-opacity: 1; stroke-width: 2px;"/></g><path class="xlines-below"/><path class="ylines-below"/><g class="overlines-below"/><g class="xaxislayer-below"/><g class="yaxislayer-below"/><g class="overaxes-below"/><g class="plot" transform="translate(80,100)" clip-path="url(#clipbf7897xyplot)"><g class="scatterlayer mlayer"><g class="trace scatter trace8902ce" style="stroke-miterlimit: 2; opacity: 0.5;"><g class="fills"/><g class="errorbars"/><g class="lines"><path class="js-line" d="M0,303.65L2.18,303.69L2.36,303.2L3.27,303.79L3.45,303.18L3.63,302.97L3.81,303.75L3.99,303.65L4.17,303.79L4.36,303.67L4.54,301.52L5.26,303.76L5.45,297.72L7.08,257.04L7.26,257.03L8.17,257.2L8.35,257.29L8.89,38.43L9.26,41.58L9.44,40.77L10.35,53.52L10.53,54.69L11.25,109.52L11.44,129.54L13.25,303.85L13.61,303.79L13.79,303.73L15.97,303.75L16.15,303.8L18.7,303.75L18.88,302.8L19.24,303.63L19.42,301.58L20.15,303.79L20.33,303.76L20.51,303.77L20.87,302.71L21.24,303.45L21.42,303.25L21.6,303.77L21.78,302.72L21.96,302.33L22.14,303.78L22.51,303.55L22.69,301.13L24.14,257.12L24.32,257L24.69,257.16L24.87,167.64L25.77,53.47L25.96,59.99L26.32,61.68L26.5,56.3L26.68,47.04L26.86,47.8L27.05,53.5L27.41,46.79L27.59,56.26L27.95,64.15L28.13,74.94L29.41,199.46L29.59,228.19L30.49,303.89L30.86,303.75L31.04,303.77L36.3,303.6L36.48,301.78L37.39,303.78L37.57,303.1L37.75,302.19L37.94,303.79L38.12,303.65L38.3,303.67L39.03,301.56L39.21,302.67L39.39,303.76L39.75,301.66L39.93,295.98L40.84,257.1L41.38,257.18L41.57,257.14L42.11,257.19L42.29,244.76L43.02,73.75L43.2,75.02L43.38,84.61L43.93,75.96L44.11,78.53L44.29,81.65L44.65,106.29L45.02,89.35L45.2,92.6L45.56,100.96L45.74,120.1L46.47,182.64L46.65,202.2L47.92,303.96L48.1,303.68L48.28,303.79L54.82,303.77L55,303.78L56.63,303.78L56.81,302.63L56.99,302.48L57.18,303.77L57.72,281.86L57.9,268.12L58.45,257.12L58.81,257.19L58.99,257.09L60.08,257.29L60.26,192.14L61.17,69.41L61.35,73.97L62.44,105.86L62.62,112.12L62.98,134.25L63.17,145.42L65.34,303.9L65.71,303.79L65.89,303.74L67.89,303.75L68.07,303.74L69.52,303.77L69.7,303.76L72.42,303.35L72.61,302.11L72.79,303.84L73.51,303.76L73.69,303.76L74.6,302.11L74.78,299.46L75.87,257.12L76.24,257.16L76.42,257.15L78.23,257.36L78.41,228.24L79.32,80.79L79.5,74.98L80.41,109.49L80.59,123.73L82.41,303.97L82.77,303.87L82.95,303.74L86.4,303.8L86.58,303.76L92.39,303.72L92.57,302.93L93.3,293.32L93.48,299.34L94.39,256.59L94.75,257.17L94.93,257.24L96.2,257.37L96.38,97.7L96.93,62.65L97.29,75.8L97.47,88.16L99.29,268.12L99.47,290.28L99.83,303.83L100.38,303.79L100.56,303.73L104.01,303.87L104.19,303.69L106.18,303.8L106.37,303.73L107.46,303.79L107.64,303.42L108.54,303.76L108.73,303.32L108.91,301.96L109.27,303.77L109.45,303.07L109.63,301.34L109.82,302.45L110,297.65L111.09,257.12L111.27,257.22L112.54,257.17L112.72,168.02L113.08,84.52L113.45,86.38L113.63,97.82L114.17,80.43L114.35,80.46L114.53,87.57L115.62,156.09L115.81,178.75L117.26,303.87L117.8,303.82L117.98,303.72L119.44,303.85L119.62,303.62L120.71,303.82L120.89,303.67L122.52,303.84L122.7,303.75L125.24,303.16L125.43,302.98L126.15,303.72L126.33,303.65L126.51,303.77L126.88,303.31L127.06,298.52L128.51,257.07L128.69,257.22L129.96,257.15L130.14,129.6L130.87,57.07L131.05,57.73L131.23,57.86L132.14,141.06L132.32,244.22L132.5,281.97L132.69,215.92L132.87,135.41L134.68,304L135.23,303.71L135.41,303.81L137.41,303.79L137.59,303.77L143.03,303.73L143.21,302.77L143.58,303.75L143.76,303.03L143.94,302.34L144.12,303.78L144.3,301.88L144.48,299.71L145.39,257.11L145.94,257.14L146.12,257.13L147.57,257.26L147.75,71.28L148.3,54.04L148.48,85.08L148.66,84.78L148.84,58.45L149.75,86.33L149.93,94.85L151.02,194.3L151.2,213.52L152.47,303.86L152.65,303.72L152.83,303.8L154.83,303.73L155.01,303.81L156.83,303.76L157.01,303.77L159.37,303.79L159.55,303.31L160.09,303.11L160.28,302.46L160.46,303.8L160.64,302.9L160.82,300.29L161.73,303.79L161.91,303.82L162.27,303.75L162.45,293.96L163.72,256.9L163.91,257.08L164.81,257.2L164.99,138.76L165.72,58.88L165.9,59.96L166.08,69.53L166.63,99.9L166.81,111.83L167.17,101.49L167.35,186.73L167.72,297.54L167.9,238.64L168.08,172.36L169.71,303.84L169.9,303.74L170.08,303.74L171.35,303.74L171.53,303.78L174.43,303.75L174.62,303.75L177.16,303.81L177.34,303.58L177.52,303.31L178.06,303.76L178.25,303.81L179.33,303.58L179.52,303.81L180.24,303.75L180.42,302.95L180.97,299.42L181.15,294.83L182.42,257.16L182.6,257.13L183.51,257.26L183.69,257.82L184.05,256.8L184.24,257.66L184.42,203.65L184.6,123.76L184.96,203.41L185.14,243.33L186.05,303.75L186.23,300.63L186.41,288.72L186.78,302.83L186.96,303.83L189.5,303.75L189.68,303.8L191.13,303.74L191.31,302.53L192.22,303.75L192.4,303.47L193.67,303.76L193.86,302.83L194.22,303.77L194.76,303.31L194.94,303.38L195.31,303.05L195.67,303.66L195.85,302.96L196.03,302.48L196.22,303.08L196.4,303.77L196.94,300.03L197.12,297.66L197.49,302.64L197.67,283.5L198.57,265.99L198.76,266.78L199.12,256.88L199.85,257.17L200.03,256.97L200.39,44.74L200.93,105.71L201.12,110.41L201.48,63.02L201.84,72.65L202.02,92.17L202.75,144.12L202.93,171.51L204.38,303.04L204.56,303.8L210.37,303.22L210.55,300.92L211.1,303.76L211.28,301.75L211.46,302.3L211.64,303.79L211.83,303.1L212.01,300.04L212.37,303.73L212.91,302.9L213.1,302.8L213.28,299.97L213.64,303.65L214,300.23L214.18,303.59L214.37,302.84L214.55,293.5L214.73,291.47L214.91,297.96L215.46,293.23L215.64,284.16L216.73,257.02L216.91,257.12L217.09,257.19L217.27,256.91L217.45,151.13L218.36,49.58L218.54,55.56L218.72,55.97L218.9,60.23L219.63,93.1L219.81,127.49L221.63,303.9L221.81,303.83L226.53,303.77L226.71,302.94L226.89,301.32L227.07,303.77L227.44,303.05L227.62,303.21L227.8,303.75L228.34,303.34L228.52,300.5L229.43,303.79L229.61,303.76L229.98,303.67L230.16,301.64L231.07,303.77L231.25,302.89L231.43,301.5L231.61,303.82L231.79,303.78L231.97,303.72L233.06,303.8L233.24,303.12L234.33,266.12L234.51,258.84L235.24,256.86L235.42,257.42L235.6,256.83L236.15,257.16L236.33,257.32L236.69,78.07L237.24,107.29L237.42,119.18L239.42,303.81L239.78,303.73L239.96,303.8L243.41,303.8L243.59,303.41L243.95,303.81L244.32,301.97L244.5,303.49L245.59,303.78L245.77,303.54L246.31,303.78L246.49,303.01L246.68,301.41L247.04,303.76L247.22,303.8L247.76,303L247.95,303.79L248.31,301.29L248.49,303.46L249.04,303.72L249.22,303.6L249.4,298.82L250.12,279.44L250.31,279.87L250.49,287.29L250.85,282.81L251.03,273.47L251.39,257.22L251.94,257.24L252.12,257.13L253.39,257.34L253.57,220.65L253.75,174.48L254.3,200.73L254.48,198.09L255.75,287.6L255.93,299.23L256.48,303.87L256.84,303.69L257.02,303.8L259.02,303.75L259.2,303.79L260.11,303.54L260.29,302.48L260.65,303.81L261.02,303.14L261.2,302.83L261.74,301.64L262.1,303.77L262.29,303.53L262.65,303.75L263.19,302.47L263.37,303.78L263.56,303.45L263.74,301.63L264.1,303.78L264.46,301.35L264.65,301.24L265.55,303.77L265.73,303.21L266.1,302.81L266.46,303.75L266.64,302.81L268.09,257.11L268.46,257.27L268.64,257.31L269.36,257.28L269.55,251.98L270.45,103.36L270.82,126.02L271,117.41L272.63,252.99L272.81,256.51L274.08,303.81L274.27,303.76L274.45,303.77L277.17,303.45L277.35,301.73L277.71,303.74L278.26,303.4L278.44,303.26L278.62,302.9L278.8,303.79L279.17,303.43L279.35,303.69L279.71,303.15L279.89,302.09L280.26,303.54L280.62,302.58L280.8,302.32L281.89,300.96L282.07,301.56L282.8,300.33L282.98,300.61L283.16,300.93L283.7,300.79L283.89,303.4L284.07,303.74L284.25,298.16L285.52,250.71L285.7,118.02L287.15,31.14L287.33,32.66L289.33,81.97L289.51,95.59L291.69,303.87L291.87,303.73L292.05,303.79L295.32,303.32L295.5,302.89L295.68,303.79L296.05,302.6L296.23,303.56L296.41,301.45L296.59,301.76L296.77,303.74L297.86,303.75L298.04,302.6L298.95,302.62L299.13,302.15L299.5,302.57L299.86,301.54L300.04,299.57L300.4,303.71L300.58,301.28L300.77,299.15L300.95,298.91L301.13,300.81L301.31,300.66L301.49,300.98L301.67,301.53L302.4,257.07L302.94,257.19L303.13,257.07L303.31,257.27L303.49,226.55L304.4,81.08L304.58,84.19L305.12,55.29L305.67,60.25L305.85,67.56L308.75,303.91L309.3,303.83L309.48,303.77L311.48,303.77L311.66,303.74L315.11,303.78L315.29,303L315.65,303.77L316.01,302.61L316.19,302.9L316.56,303.74L316.74,301.81L316.92,300.33L317.28,303.14L317.47,301.24L317.65,301.55L317.83,303.16L318.19,300.7L318.37,301.87L318.55,302.67L319.28,298.9L319.46,282.67L319.83,257.04L320.37,257.28L320.55,257.07L321.82,257.16L322,257.22L322.37,257.08L322.55,83.18L322.91,66.83L323.27,79.52L323.46,84.11L323.64,80.3L323.82,85.96L324,102.2L326.18,303.93L326.54,303.8L326.72,303.72L328.17,303.77L328.36,303.79L330.72,303.73L330.9,303.8L333.44,303.41L333.62,303.76L334.53,302.59L334.71,303.76L335.07,303.37L335.25,303.01L335.8,302.46L335.98,303.64L336.16,300.34L337.61,257.03L337.98,257.14L338.16,257.03L339.07,257.31L339.25,257.34L339.43,257.13L339.61,250.93L340.52,88.39L340.7,95.38L341.06,102.35L341.24,119.96L341.97,132.55L342.15,145.78L343.78,303.88L343.97,303.75L344.15,303.82L346.33,303.77L346.51,303.73L348.32,303.77L348.5,303.76L350.14,303.76L350.32,303.77L350.68,303.58L350.86,301.79L351.77,303.73L351.95,303.36L352.86,300.46L353.04,302.33L353.59,303.83L353.95,303.59L354.13,295.49L355.22,257.12L355.4,257.08L356.49,257.56L356.67,257.1L356.85,143.73L357.4,65.09L357.94,73.25L358.12,75.41L358.49,58.15L358.85,70.45L359.03,80.93L360.48,255.65L360.67,276.36L361.21,303.94L361.57,303.84L361.75,303.71L363.75,303.74L363.93,303.7L367.56,303.73L367.74,302.6L368.65,303.78L368.83,303.38L369.2,303.82L369.56,301.26L369.74,303.61L371.19,303.82L371.37,303.11L372.1,257.05L372.65,257.29L372.83,256.95L373.01,257.46L373.55,257.2L373.73,257.08L374.82,257.67L375.01,257.01L376.28,44.34L376.46,46.88L378.09,286.48L378.27,298.68L378.64,303.83L379.18,303.76L379.36,303.79L382.63,303.77L382.81,302.83L383.17,303.44L383.54,300.72L383.72,302.38L383.9,303.79L384.26,301.91L384.44,303.68L384.63,303.44L384.81,301.86L385.35,302.81L385.53,302.26L385.9,300.73L386.08,301.03L386.26,303.19L386.44,303.37L386.62,301.37L386.8,301.15L386.98,301.76L387.17,302.64L388.07,300.9L388.26,302.74L388.8,269.51L388.98,257.51L390.07,256.91L390.25,256.91L390.43,257.19L390.62,108.09L391.34,32.28L391.52,32.39L391.7,30.76L391.89,30.61L392.07,29.07L392.97,33.19L393.16,30.84L393.34,28.56L393.52,31.04L393.7,38.61L394.61,116.83L394.79,136.39L396.79,303.8L396.97,303.79L398.42,303.72L398.6,302.61L398.96,303.75L399.15,302.05L399.33,300.66L399.51,302.82L399.69,303.76L400.6,300.69L400.78,301.15L400.96,302.69L401.32,301.03L401.51,301.21L401.69,301.01L402.23,301.12L402.41,300.44L402.78,300.47L402.96,299.9L403.87,300.76L404.05,300.42L404.23,299.73L405.14,300.47L405.32,300.08L405.5,299.58L405.68,300.73L405.86,300.35L406.04,296.62L407.31,256.6L407.5,159.52L409.67,16L409.86,21.26L410.4,61.88L410.76,39.92L410.94,32.65L411.13,32L411.31,45.93L412.76,200.72L412.94,230.15L414.03,303.8L414.21,303.75L415.85,303.59L416.03,303.04L416.21,303.78L416.57,302.8L416.75,302.48L416.93,300.83L417.3,302.85L417.48,303.77L418.39,300.75L418.57,300.87L418.75,301.02L418.93,300.84L419.11,301.39L419.29,301.6L420.2,300.07L420.38,300.41L420.56,300.71L421.47,299.85L421.65,300.52L422.2,300.16L422.56,300.84L422.74,300.3L423.11,300.87L423.29,300.22L423.47,296.69L424.19,257.09L424.56,257.17L424.74,204.04L426.01,83.26L426.19,82.52L426.92,42.95L427.46,48.17L427.64,54.15L427.83,54.3L428.01,56.97L428.19,55.9L428.37,60.48L429.64,177.2L429.82,201.3L431.09,303.79L431.27,303.76L431.46,303.75L433.63,303.78L433.82,302.87L434.18,303.76L434.9,300.35L435.09,300.47L435.45,303.13L435.63,302.76L435.81,300.3L436.72,301.74L436.9,301.32L437.08,300.96L437.26,301.12L437.45,300.84L437.63,300.42L438.53,300.86L438.72,300.71L439.44,300.29L439.62,300.76L440.53,301.36L440.71,300.35L441.26,280.6L441.44,263.25L442.16,226.49L442.35,150.14L443.07,60.59L443.8,61.39L443.98,58.85L444.52,47.43L444.71,39.66L446.16,72.87L446.34,93.54L448.34,303.85L448.7,303.78L448.88,303.8L451.78,303.74L451.97,303.78L454.69,303.39L454.87,302.72L455.05,301.98L455.23,303L455.42,303.66L456.14,301.26L456.69,301.53L456.87,301.54L457.96,302.48L458.14,301.33L459.23,257.03L459.59,257.17L459.77,257.1L460.68,257.19L460.86,243.53L461.59,46.43L461.77,51.4L461.95,43.48L462.13,30.7L462.68,37.1L462.86,37.45L464.13,139.98L464.31,159.61L465.76,303.86L466.12,303.73L466.31,303.76L469.39,303.77L469.57,302.97L469.75,301.45L469.94,303.55L470.3,302.31L470.48,302.74L470.66,302.66L470.84,303.43L471.75,302.46L471.93,303.62L472.84,300.98L473.02,301.48L473.2,301.19L473.38,300.76L473.75,301.79L473.93,301.22L474.11,301.05L474.84,301.64L475.02,301.22L475.2,300.84L475.93,303.79L476.11,301.96L476.29,285.75L476.65,257.1L477.2,257.13L477.38,257.12L477.74,257.15L477.92,250.29L478.83,82.99L479.01,68.39L480.28,40.26L480.46,45.67L481.37,154.04L481.55,188.22L483.19,303.56L483.37,303.81L486.27,303.75L486.45,302.56L487,302.01L487.36,303.76L487.54,302.26L487.72,300.71L488.09,303.7L488.27,301.85L488.45,301.01L488.99,302.9L489.18,301.75L489.36,301.22L490.27,300.52L490.45,300.94L491.35,300.44L491.54,300.68L491.72,300.85L492.08,299.97L492.63,300.25L492.81,301.07L492.99,301.39L493.17,297.3L493.71,266.1L493.9,257.1L494.44,257.11L494.62,177.73L495.71,57.64L495.89,50.31L496.8,23.66L497.16,27.43L497.34,28.65L498.25,61.29L498.43,78.55L500.61,303.84L501.16,303.81L501.34,303.73L503.33,303.7L503.52,302.28L504.42,303.77L504.61,302.98L504.97,303.59L505.15,302.88L505.33,302.16L505.51,301.32L505.69,302.13L505.88,303.46L507.33,300.63L507.51,301.25L508.24,301.41L508.42,300.85L508.6,300.34L509.51,301.11L509.69,301.04L509.87,300.4L510.05,301.1L510.23,302.1L510.59,292.29L510.78,283.16L512.05,244.03L512.23,141.41L513.68,46.06L513.86,36.38L514.04,36.67L514.23,39.5L514.59,33.22L514.77,36.06L514.95,42.79L515.86,82.32L516.04,95.06L518.04,303.81L518.58,303.71L518.76,303.82L520.94,303.75L521.12,303.77L521.49,303.22L521.67,302.83L522.57,303.76L522.76,303.77L524.57,300.56L524.75,301.01L524.93,301.34L525.12,301.02L525.3,300.45L526.21,300.61L526.39,300.25L526.75,300.51L527.11,299.84L527.29,299.98L527.48,300.26L527.84,303.83L528.38,303.18L528.56,289.65L529.29,257.07L529.47,257.11L529.65,257.12L530.74,72.63L530.92,71.12L531.47,46.97L531.65,72.46L531.83,77.2L532.01,54.02L532.92,197.85L533.1,151.73L534.01,251.08L534.19,239.84L534.37,216.18L535.64,303.8L535.83,303.74L536.01,303.77L539.09,303.22L539.27,302.94L539.64,303.76L539.82,302.77L540,303.23" style="vector-effect: non-scaling-stroke; fill: none; stroke: rgb(0, 191, 255); stroke-opacity: 1; stroke-width: 2px; opacity: 1;"/></g><g class="points"/><g class="text"/></g></g></g><g class="overplot"/><path class="xlines-above crisp" d="M0,0" style="fill: none;"/><path class="ylines-above crisp" d="M0,0" style="fill: none;"/><g class="overlines-above"/><g class="xaxislayer-above"><g class="xtick"><text text-anchor="middle" x="0" y="433" transform="translate(97.43,0)" style="font-family: 'Open Sans', verdana, arial, sans-serif; font-size: 12px; fill: rgb(42, 63, 95); fill-opacity: 1; white-space: pre; opacity: 1;"><tspan class="line" dy="0em" x="0" y="433">Oct 2</tspan><tspan class="line" dy="1.3em" x="0" y="433">2022</tspan></text></g><g class="xtick"><text text-anchor="middle" x="0" y="433" style="font-family: 'Open Sans', verdana, arial, sans-serif; font-size: 12px; fill: rgb(42, 63, 95); fill-opacity: 1; white-space: pre; opacity: 1;" transform="translate(219.4,0)">Oct 9</text></g><g class="xtick"><text text-anchor="middle" x="0" y="433" style="font-family: 'Open Sans', verdana, arial, sans-serif; font-size: 12px; fill: rgb(42, 63, 95); fill-opacity: 1; white-space: pre; opacity: 1;" transform="translate(341.38,0)">Oct 16</text></g><g class="xtick"><text text-anchor="middle" x="0" y="433" style="font-family: 'Open Sans', verdana, arial, sans-serif; font-size: 12px; fill: rgb(42, 63, 95); fill-opacity: 1; white-space: pre; opacity: 1;" transform="translate(463.35,0)">Oct 23</text></g><g class="xtick"><text text-anchor="middle" x="0" y="433" style="font-family: 'Open Sans', verdana, arial, sans-serif; font-size: 12px; fill: rgb(42, 63, 95); fill-opacity: 1; white-space: pre; opacity: 1;" transform="translate(585.3299999999999,0)">Oct 30</text></g></g><g class="yaxislayer-above"><g class="ytick"><text text-anchor="end" x="79" y="4.199999999999999" transform="translate(0,419.28)" style="font-family: 'Open Sans', verdana, arial, sans-serif; font-size: 12px; fill: rgb(42, 63, 95); fill-opacity: 1; white-space: pre; opacity: 1;">−20</text></g><g class="ytick"><text text-anchor="end" x="79" y="4.199999999999999" style="font-family: 'Open Sans', verdana, arial, sans-serif; font-size: 12px; fill: rgb(42, 63, 95); fill-opacity: 1; white-space: pre; opacity: 1;" transform="translate(0,357.24)">0</text></g><g class="ytick"><text text-anchor="end" x="79" y="4.199999999999999" style="font-family: 'Open Sans', verdana, arial, sans-serif; font-size: 12px; fill: rgb(42, 63, 95); fill-opacity: 1; white-space: pre; opacity: 1;" transform="translate(0,295.2)">20</text></g><g class="ytick"><text text-anchor="end" x="79" y="4.199999999999999" style="font-family: 'Open Sans', verdana, arial, sans-serif; font-size: 12px; fill: rgb(42, 63, 95); fill-opacity: 1; white-space: pre; opacity: 1;" transform="translate(0,233.17)">40</text></g><g class="ytick"><text text-anchor="end" x="79" y="4.199999999999999" style="font-family: 'Open Sans', verdana, arial, sans-serif; font-size: 12px; fill: rgb(42, 63, 95); fill-opacity: 1; white-space: pre; opacity: 1;" transform="translate(0,171.13)">60</text></g><g class="ytick"><text text-anchor="end" x="79" y="4.199999999999999" style="font-family: 'Open Sans', verdana, arial, sans-serif; font-size: 12px; fill: rgb(42, 63, 95); fill-opacity: 1; white-space: pre; opacity: 1;" transform="translate(0,109.09)">80</text></g></g><g class="overaxes-above"/></g></g><g class="polarlayer"/><g class="smithlayer"/><g class="ternarylayer"/><g class="geolayer"/><g class="funnelarealayer"/><g class="pielayer"/><g class="iciclelayer"/><g class="treemaplayer"/><g class="sunburstlayer"/><g class="glimages"/><defs id="topdefs-bf7897"><g class="clips"/></defs><g class="layer-above"><g class="imagelayer"/><g class="shapelayer"/></g><g class="infolayer"><g class="g-gtitle"><text class="gtitle" x="350" y="50" text-anchor="middle" dy="0em" style="font-family: 'Open Sans', verdana, arial, sans-serif; font-size: 17px; fill: rgb(42, 63, 95); opacity: 1; font-weight: normal; white-space: pre;"><tspan class="line" dy="0em" x="350" y="50">Scenario 3</tspan><tspan class="line" dy="1.3em" x="350" y="50">Microgrid Output</tspan><tspan class="line" dy="2.6em" x="350" y="50">From: October 01, 2022 to October 31, 2022</tspan></text></g><g class="g-xtitle"><text class="xtitle" x="350" y="476.409375" text-anchor="middle" style="font-family: 'Open Sans', verdana, arial, sans-serif; font-size: 14px; fill: rgb(42, 63, 95); opacity: 1; font-weight: normal; white-space: pre;">Time</text></g><g class="g-ytitle"><text class="ytitle" transform="rotate(-90,33.840625,260)" x="33.840625" y="260" text-anchor="middle" style="font-family: 'Open Sans', verdana, arial, sans-serif; font-size: 14px; fill: rgb(42, 63, 95); opacity: 1; font-weight: normal; white-space: pre;">Demand (kW)</text></g></g></svg>