<svg class="main-svg" xmlns="http://www.w3.org/2000/svg" xmlns:xlink="http://www.w3.org/1999/xlink" width="700" height="500" style="" viewBox="0 0 700 500"><rect x="0" y="0" width="700" height="500" style="fill: rgb(255, 255, 255); fill-opacity: 1;"/><defs id="defs-c80a66"><g class="clips"><clipPath id="clipc80a66xyplot" class="plotclip"><rect width="540" height="320"/></clipPath><clipPath class="axesclip" id="clipc80a66x"><rect x="80" y="0" width="540" height="500"/></clipPath><clipPath class="axesclip" id="clipc80a66y"><rect x="0" y="100" width="700" height="320"/></clipPath><clipPath class="axesclip" id="clipc80a66xy"><rect x="80" y="100" width="540" height="320"/></clipPath></g><g class="gradients"/><g class="patterns"/></defs><g class="bglayer"/><g class="layer-below"><g class="imagelayer"/><g class="shapelayer"/></g><g class="cartesianlayer"><g class="subplot xy"><g class="layer-subplot"><g class="shapelayer"/><g class="imagelayer"/></g><g class="minor-gridlayer"><g class="x"/><g class="y"/></g><g class="gridlayer"><g class="x"><path class="xgrid crisp" transform="translate(97.43,0)" d="M0,100v320" style="stroke: rgb(255, 255, 255); stroke-opacity: 1; stroke-width: 1px;"/><path class="xgrid crisp" transform="translate(219.4,0)" d="M0,100v320" style="stroke: rgb(255, 255, 255); stroke-opacity: 1; stroke-width: 1px;"/><path class="xgrid crisp" transform="translate(341.38,0)" d="M0,100v320" style="stroke: rgb(255, 255, 255); stroke-opacity: 1; stroke-width: 1px;"/><path class="xgrid crisp" transform="translate(463.35,0)" d="M0,100v320" style="stroke: rgb(255, 255, 255); stroke-opacity: 1; stroke-width: 1px;"/><path class="xgrid crisp" transform="translate(585.3299999999999,0)" d="M0,100v320" style="stroke: rgb(255, 255, 255); stroke-opacity: 1; stroke-width: 1px;"/></g><g class="y"><path class="ygrid crisp" transform="translate(0,407.73)" d="M80,0h540" style="stroke: rgb(255, 255, 255); stroke-opacity: 1; stroke-width: 1px;"/><path class="ygrid crisp" transform="translate(0,324.87)" d="M80,0h540" style="stroke: rgb(255, 255, 255); stroke-opacity: 1; stroke-width: 1px;"/><path class="ygrid crisp" transform="translate(0,159.15)" d="M80,0h540" style="stroke: rgb(255, 255, 255); stroke-opacity: 1; stroke-width: 1px;"/></g></g><g class="zerolinelayer"><path class="yzl zl crisp" transform="translate(0,242.01)" d="M80,0h540" style="stroke: rgb(255, 255, 255); stroke-opacity: 1; stroke-width: 2px;"/></g><path class="xlines-below"/><path class="ylines-below"/><g class="overlines-below"/><g class="xaxislayer-below"/><g class="yaxislayer-below"/><g class="overaxes-below"/><g class="plot" transform="translate(80,100)" clip-path="url(#clipc80a66xyplot)"><g class="scatterlayer mlayer"><g class="trace scatter traceb24564" style="stroke-miterlimit: 2; opacity: 0.5;"><g class="fills"/><g class="errorbars"/><g class="lines"><path class="js-line" d="M0,182.75L0.73,168.44L0.91,168.58L1.09,168.58L1.45,169.05L1.82,167.55L2,169.1L2.36,166.57L2.54,167.92L2.72,251.06L3.63,166.94L3.81,250.34L3.99,167.29L4.36,250.63L4.72,167.46L4.9,167.92L5.08,167.84L5.26,180.24L5.45,187.49L5.99,181.37L6.17,163.89L7.26,141.9L7.44,141.82L7.81,142L7.99,106.34L8.17,22.66L8.53,107.79L8.71,26.56L8.89,36.97L9.62,54.46L9.8,52.33L9.98,42.39L10.16,44.02L10.35,33.24L10.53,33.8L10.71,37.54L13.43,217.35L13.79,202.41L13.98,189.85L14.52,188.14L14.7,177.91L14.88,183.14L15.25,174.45L15.43,172.47L16.52,168.81L16.7,169.57L16.88,170.22L17.06,167.53L17.79,168.69L17.97,167.78L18.7,180.44L18.88,166.56L19.24,168.84L19.42,165.7L19.6,166.77L19.78,167.94L20.87,166.31L21.06,168.48L21.24,167.95L21.42,249.38L21.96,166.14L22.33,167.19L22.51,179.07L22.69,177.61L22.87,183.47L23.96,141.7L24.5,141.87L24.69,141.97L25.05,141.98L25.23,107.21L25.41,119.8L25.59,116.96L25.77,45.47L26.32,49.46L26.5,46.59L26.68,41.64L27.41,29.58L27.59,34.64L27.95,38.85L28.13,44.62L29.59,167.96L29.77,166.94L29.95,161.34L30.49,166.67L30.68,167.14L31.58,166.84L31.76,174.04L31.95,192.51L32.49,176.95L32.67,175.29L32.85,172.36L33.4,172.6L33.58,172.93L34.31,169.33L34.49,170.2L34.67,170.19L34.85,168.58L35.03,170.25L35.39,169L35.58,170.12L36.48,165.81L36.67,167.75L37.03,166.91L37.39,169.24L37.57,167.35L37.75,166.03L37.94,167.8L38.12,249.92L39.03,165.69L39.21,166.53L39.39,167.55L39.57,178.55L39.75,177.67L39.93,186.51L40.11,194.71L40.3,273.43L41.2,141.7L41.38,141.98L42.47,142L42.66,104.57L43.02,55.91L43.38,73.58L43.56,154.87L43.93,57.16L44.47,79.56L44.65,85.23L44.83,67.4L45.38,78.92L45.56,70.51L47.92,166.97L48.1,166.82L50.1,166.92L50.28,186.36L50.46,173.6L51.01,175.79L51.19,176.26L52.09,172.69L52.28,173.99L52.64,170.24L52.82,172.32L53,173.38L54.09,168.01L54.27,169L54.64,167.61L55,168.14L55.18,181.82L55.54,179.38L55.72,168.01L55.91,166.93L56.09,249.77L56.27,250.59L56.45,167.93L56.81,166.47L56.99,248.71L57.18,250.36L57.36,248.13L57.54,161.99L58.81,141.72L58.99,142.46L59.72,141.74L59.9,141.92L60.08,142.04L60.26,140.32L60.44,47.3L61.53,100.44L61.71,89.95L61.9,87.85L62.44,61.27L62.8,66.89L62.98,76.3L63.53,112.51L63.71,127.56L64.44,165.54L64.98,163.22L65.16,166.88L66.8,166.88L66.98,168.73L67.34,282.93L67.7,189.25L67.89,186.53L68.61,183.73L68.79,186.51L69.16,182.75L69.7,183.19L69.88,182.56L70.06,184.14L70.25,183.38L70.43,179.97L70.79,182.38L70.97,178.28L72.06,167.78L72.24,169.74L72.61,165.99L72.79,170.33L72.97,170.81L73.15,166.86L73.51,168.9L73.69,167.98L73.88,166.69L74.24,167.33L74.6,165.99L74.78,164.57L74.96,242.51L75.51,156.59L75.69,147.08L75.87,141.69L76.6,141.97L76.78,142.19L77.32,142.23L77.51,141.72L77.69,142.01L77.87,167.56L78.23,140.37L78.41,83.48L78.96,62.28L79.14,145.11L79.68,59.09L80.05,76.64L80.23,78.83L80.77,167.01L80.95,140.62L81.14,136.71L81.5,116.93L81.68,126.3L81.86,139.67L82.41,166.98L82.77,166.93L82.95,166.85L84.22,166.92L84.4,181.53L84.77,203.73L85.13,198.38L85.31,199.31L85.49,199.07L85.67,184.44L85.86,184.86L86.04,184.33L86.22,181.66L86.58,184.36L86.94,183.01L87.13,179.35L88.03,171.07L88.22,170.18L88.4,169.98L88.58,170.38L88.76,182.72L89.3,169.37L89.67,170.1L89.85,169.4L90.03,168.56L90.21,169.94L90.39,251.74L90.94,168.21L91.12,252.68L91.3,253.81L91.66,168.39L92.21,170.6L92.39,169.61L92.57,166.42L92.75,245.34L92.93,247.51L93.12,166.96L93.3,161.29L93.48,165.31L93.66,243.38L93.84,229.75L94.02,250.42L94.21,157.21L94.57,141.7L95.11,141.98L95.29,143.87L95.84,140.17L96.02,55.89L96.2,47.35L96.38,60.37L96.56,56.28L96.75,63.42L97.11,55.08L97.29,57.01L97.47,63.61L97.65,58.66L97.84,150.5L98.02,166.94L98.38,140.94L98.56,124.85L99.29,167.09L99.65,166.96L99.83,167.16L100.01,166.63L100.38,166.88L100.56,220.69L102.37,173.45L102.55,175.18L102.74,175.25L102.92,174.28L103.28,171.97L103.46,174.58L103.64,174.32L104.37,168.03L104.55,171.11L104.73,171.06L104.91,169.55L105.1,171.41L105.28,169.5L105.64,170.91L105.82,169.12L106.18,170.27L106.37,169.6L106.55,169.54L106.73,169.71L106.91,167.9L107.27,168.01L107.46,169.35L108.18,167.12L108.36,249.66L108.91,165.9L109.27,169.58L109.45,167.24L110,163.6L110.18,154.82L110.72,141.97L110.9,208.54L111.45,141.66L111.81,141.96L111.99,141.92L112.36,142.26L112.72,141.82L112.9,133.35L113.08,49.8L113.81,54.75L113.99,130.14L114.17,142.27L114.35,59.95L115.44,77.72L115.62,99.84L117.08,167.14L117.26,166.93L117.44,166.91L118.35,166.58L118.53,166.89L118.89,166.88L119.07,182.14L119.44,190.5L119.62,187.16L119.8,180.16L119.98,183.67L120.52,180.04L120.71,178.62L121.07,171.05L121.43,173.97L121.61,174.01L122.34,169.41L122.52,170.32L122.7,172.5L123.79,169.2L123.97,168.72L124.34,168.21L124.52,169.13L124.7,181.75L124.88,179.39L125.06,180.97L125.24,168.14L125.61,169.11L125.79,166.94L125.97,250.02L126.51,250.33L126.88,166.73L127.06,164.07L127.24,242.06L127.78,165.16L127.97,155.69L128.15,156.62L128.33,141.99L129.6,142L129.78,143.83L130.14,140.2L130.33,40.63L130.87,35.07L131.23,35.49L131.42,50.57L131.6,52.26L131.78,41.8L132.14,91.87L132.32,146.99L132.5,166.86L132.69,132.21L132.87,88.85L133.05,84.84L133.23,99.86L134.68,168.81L134.86,166.83L135.05,216.8L135.59,204.51L135.77,204.04L137.41,184.16L137.59,185.02L137.77,184.69L137.95,182.57L139.4,171.85L139.58,172.37L139.76,174.49L140.13,171.04L140.31,168.98L140.49,167.79L140.67,171.43L140.85,171.51L141.04,168.78L141.58,169.81L141.76,169.26L142.31,167.76L142.49,250.81L143.21,166.79L143.39,168.4L143.58,169.9L143.76,167.05L143.94,260.39L144.12,262.54L144.3,178.53L144.48,247.17L144.85,154.85L145.03,147.81L145.39,141.94L145.94,141.96L146.12,141.69L146.48,142.23L146.84,141.66L147.03,142.05L147.21,141.95L147.39,95.41L147.75,65.99L147.93,134.13L148.11,130.89L148.3,33.97L148.66,144.66L149.02,61.55L149.2,50.93L149.57,56.93L149.75,145.04L149.93,161.91L150.11,85.08L150.29,81.68L150.47,88.42L150.66,109.7L152.65,209.34L152.83,208.13L153.02,207.67L153.2,208.01L153.38,195.7L154.1,179.77L154.29,181.26L154.47,179.37L155.37,172.91L155.56,174.84L156.28,171.43L156.46,173.85L157.55,169.53L157.73,170.68L158.28,167.59L158.46,168.8L158.64,252.32L159.19,168.19L159.37,168.78L159.91,181.53L160.09,167.74L160.28,178.15L160.46,192.82L160.82,177.01L161,166.47L161.18,168.05L161.55,166.28L161.73,250.4L161.91,254.34L162.09,172.22L162.27,168.14L162.45,173.5L162.64,249.67L162.82,248.03L163,186.9L163.91,141.66L164.09,142.26L164.27,142.26L164.81,141.73L164.99,142L165.18,103.72L165.72,36.04L166.08,41.72L166.27,56.29L166.81,166.42L166.99,165.54L167.17,93.14L167.54,166.91L167.9,150.45L168.08,120.4L168.26,118.16L168.44,131.2L169.35,167.28L169.53,166.82L169.71,166.91L171.53,166.88L171.71,171.14L171.89,177.27L172.44,173.04L172.62,172.9L172.98,174.61L173.16,170.94L173.53,172.3L173.89,170.95L174.07,170.91L174.25,171.23L174.43,170.16L174.62,168.27L174.8,168.17L174.98,169.55L175.34,170.48L175.52,169.54L175.7,168.62L176.07,170.06L176.25,169.7L176.43,168.64L176.97,167.91L177.16,169.96L177.52,166.87L177.7,169.44L177.88,169.4L178.06,167.24L178.25,180.58L178.43,193.4L178.61,178.95L178.97,193.04L179.15,178.95L179.33,179.3L179.52,264.87L179.7,255.86L179.88,173.14L180.06,185.5L180.24,280.62L180.61,272.59L180.79,296.81L181.69,173.15L181.88,161.91L182.06,163.91L182.24,158.13L182.42,145.83L182.6,141.96L182.78,205.5L183.15,141.12L183.69,155.31L183.87,167.33L184.6,142.13L184.78,146.32L184.96,160.98L185.14,166.95L185.87,166.65L186.05,166.6L186.23,165.19L186.59,167.94L186.78,180.58L187.14,191.17L187.68,190.24L187.87,175.88L188.05,172.63L188.41,177.29L188.59,186.44L189.5,182.32L189.68,182.69L189.86,183.15L190.77,167.69L190.95,169.57L191.13,169.15L191.31,166.33L191.68,169.6L192.22,168.17L192.4,166.75L192.58,166.87L192.77,169.21L192.95,169.99L193.13,250.48L193.86,166.37L194.04,166.88L194.22,167.86L194.58,166.71L194.94,166.88L195.13,167.39L195.67,167.99L196.03,166.18L196.22,166.61L196.4,167.66L196.58,166.73L196.76,248.09L197.12,163.67L197.67,167.91L197.85,159.5L198.03,161.32L198.21,232.64L198.39,230.68L198.57,147.14L198.76,147.11L198.94,156.12L199.85,141.71L200.03,141.87L200.57,142.01L200.75,142.37L201.12,158.03L201.3,142.44L201.48,135.58L201.66,135.26L201.84,55.78L204.56,166.89L204.75,166.89L207.47,166.86L207.65,166.9L210.37,166.58L210.55,165.35L211.1,166.86L211.28,165.79L211.46,166.09L211.64,167.14L212.19,166.9L212.37,166.59L213.28,164.84L213.46,165.63L214,164.98L214.37,167.11L214.55,166.83L214.73,166.9L214.91,170.02L215.09,175.34L215.27,162.38L215.46,161.24L216.54,141.93L216.73,142.16L216.91,167.95L217.09,140.59L217.82,141.97L218,126.18L218.18,31.75L218.72,140.75L218.9,61.07L219.27,68.08L219.45,132.03L219.99,166.88L220.17,115.68L220.36,116.81L220.54,124.9L220.9,167.91L221.63,166.94L221.81,166.64L222.35,166.9L222.53,175.81L222.72,189.76L223.26,185.39L223.44,185.32L223.62,186.26L223.81,183.78L223.99,182.43L224.17,182.44L224.35,181.41L224.53,182.42L224.71,181L224.89,177.86L225.26,180.49L225.44,176.57L225.62,176.8L226.89,165.56L227.07,168.53L227.25,169.89L227.44,167.15L227.8,169.5L227.98,167.24L228.16,167.9L228.34,167.83L228.52,165.12L228.89,168.5L229.43,167.97L229.61,168.14L230.16,165.73L230.34,167.32L230.52,168.15L230.7,178.08L231.07,180.3L231.25,249.17L231.43,166.12L232.15,174.68L232.34,176.34L232.52,174.97L232.7,265.42L232.88,264.72L233.06,195.82L233.24,275.18L233.61,175.87L233.79,173.61L234.15,150.78L234.33,229.16L234.51,224.47L234.7,142.26L235.6,141.79L235.78,141.97L236.15,141.97L236.33,58.3L236.51,41.11L236.69,46.29L236.87,144.84L237.24,156.69L237.42,80.64L239.42,166.89L239.6,166.88L239.78,166.85L243.41,166.89L243.59,166.68L244.32,165.91L244.5,166.72L245.59,166.88L245.77,166.75L246.49,166.46L246.68,165.61L247.76,168.67L247.95,165.06L248.85,167.13L249.04,166.89L249.22,172.3L249.4,259.02L250.12,153.87L250.31,154.1L250.49,158.06L250.67,168.92L251.03,162.61L251.21,155.86L251.39,142.06L251.76,154.08L251.94,164.6L252.12,170.14L252.48,165.27L252.67,161.57L253.21,141.4L253.39,142.07L253.57,167.96L253.94,166.91L254.12,140.88L255.57,152.55L255.75,158.23L256.48,166.93L256.66,166.84L256.84,166.83L257.75,167.12L257.93,169.15L258.29,183.73L258.66,181.94L258.84,171.02L259.93,166.87L260.11,167.19L260.29,166.18L260.47,166.71L260.65,169.02L260.83,169.22L261.02,166.66L261.2,166.37L261.38,168.6L261.74,165.73L261.92,167.21L262.1,168.69L263.19,166.17L263.37,168.23L263.56,167.84L263.74,177.6L263.92,178.46L264.1,274.12L264.83,166.82L265.01,167.53L265.19,167.6L265.37,167.81L265.55,167.23L265.73,166.58L266.28,190.84L266.46,274.15L266.64,261.23L266.82,175.03L267.73,144.45L267.91,222.22L268.09,214.85L268.28,142.01L270.09,141.81L270.27,157.57L270.64,166.94L270.82,140.55L271.54,142.1L271.72,168.1L271.91,166.69L272.09,140.88L272.99,146.9L273.18,153.13L274.08,168.71L274.45,166.87L274.63,165.05L275.72,173.34L275.9,171.97L276.08,169.69L276.26,172.66L276.44,176.98L277.35,165.78L277.71,168.75L277.9,166.21L278.08,165.79L278.26,166.82L278.62,166.41L278.8,167.61L279.89,165.97L280.07,166.49L280.26,166.76L281.89,165.37L282.07,165.69L282.98,165.18L283.16,165.35L283.34,177.32L283.52,177.16L283.7,165.34L283.89,167.75L284.07,262.91L284.25,176.27L284.79,254.42L284.97,241.55L285.52,141.63L285.88,141.96L286.06,142.25L286.61,142.02L286.79,95.69L287.52,24.53L287.7,24.83L287.88,41.3L288.24,41.34L288.42,43.82L288.79,48.62L288.97,46.61L289.15,40.37L290.06,166.97L290.24,131.42L290.42,123.84L290.6,140.4L290.78,150.62L290.96,150.81L291.15,157.2L291.69,166.92L292.05,166.88L292.24,166.88L294.96,166.89L295.14,166.88L295.5,166.4L295.87,167.11L296.05,166.9L299.5,166.23L299.68,167.1L300.04,166.87L300.22,241.79L300.4,249.98L300.95,247.14L301.13,177.61L301.67,189.54L301.86,172.07L302.4,141.92L302.94,141.99L303.13,167.43L303.31,167.03L303.49,140.85L304.03,142.02L304.22,141.91L304.4,141.82L305.12,34.57L305.3,38.08L305.49,51.62L305.67,48.7L305.85,52.61L306.03,60.17L308.03,167.91L308.57,165.08L308.75,166.94L308.93,166.94L309.12,195.85L309.48,304L309.84,287.74L310.02,205.48L310.93,188.15L311.11,190.75L311.48,186.21L311.66,184.46L312.2,184.52L312.38,182.27L312.56,184.23L312.93,179.73L313.11,182.41L313.29,182.94L314.38,167.27L314.56,168.15L315.11,169.62L315.29,167.49L315.65,167.95L316.01,166.25L316.19,166.41L316.38,166.83L316.56,167.13L316.74,165.83L316.92,165.03L317.28,166.68L317.47,165.52L317.65,177.55L317.83,178.49L318.01,178.11L318.19,165.3L318.37,248.26L318.92,176.84L319.1,177.54L319.28,176.21L319.46,167.53L320.01,141.74L320.55,141.92L320.73,142L321.64,142.03L321.82,67.6L322.73,41.63L322.91,52.15L323.46,73.38L323.64,71.34L323.82,62.5L326,167.42L326.54,166.88L326.72,166.85L326.9,166.91L327.09,194L327.27,197.04L327.45,191.31L327.63,267.49L327.81,266.18L327.99,183.02L329.45,173.92L329.81,174.86L329.99,174.32L331.08,171.56L331.26,182.51L331.44,182.66L331.62,182.26L331.81,181.31L332.35,180.11L332.53,180.43L332.71,181.41L333.26,166.52L333.62,169.06L333.8,167.1L333.98,166.82L334.16,168L334.53,166.33L334.89,166.94L335.07,178.54L335.44,179.18L335.62,178.48L335.8,260.55L335.98,249.87L336.16,165.49L336.71,175.9L336.89,170.84L337.07,162.34L337.43,142.05L337.61,193.69L337.79,193.8L337.98,141.51L338.16,141.9L338.34,167.07L338.52,167.03L338.7,140.88L338.88,142.19L339.43,141.95L339.61,141.96L339.79,142.28L339.97,141.71L340.15,98.73L340.52,75.66L340.88,80.6L341.06,83.12L341.24,92.53L341.61,80.93L341.79,74.7L342.33,166.88L342.51,122.66L342.7,122.04L343.78,166.93L343.97,166.86L344.15,167.16L344.33,166.86L344.51,168.66L344.69,166.91L344.87,255.62L345.78,189.53L345.96,177.92L347.05,172.16L347.23,173.69L347.42,174.53L348.32,181.47L348.5,181.02L348.69,175.63L349.05,167.72L349.59,168.07L349.77,167L350.14,167.32L350.32,167.03L350.5,168.7L350.86,165.81L351.05,166.68L351.23,167.81L351.59,166.17L352.13,166.4L352.32,165.96L352.5,166.48L352.68,166.16L352.86,165.1L353.41,167.89L353.59,184.73L353.77,187.28L353.95,264.71L354.86,141.98L355.04,142.24L355.4,141.92L355.58,142.25L355.76,167.67L355.95,166.38L356.13,140.91L356.67,142.2L357.04,141.97L357.22,107.75L357.94,43.71L358.12,44.87L358.31,40.25L358.67,64.76L358.85,148.49L359.21,166.87L359.39,112.75L359.58,103.64L359.76,116.15L359.94,114.18L360.12,126.87L361.21,166.96L361.39,167.09L362.48,166.85L362.66,166.89L362.84,166.88L363.03,187.89L363.57,194.61L363.75,192.32L363.93,187.27L364.3,180.18L364.84,181.1L365.02,179.01L365.38,180.73L365.57,177.6L365.93,181.52L366.11,174.6L366.29,168.47L366.47,168.69L366.66,171.38L367.74,166.33L367.93,167L368.47,171.18L368.65,168.46L369.02,166.51L369.2,169.56L369.38,180.43L369.56,177.46L369.74,180.18L369.92,251.21L370.47,167.22L370.65,180.13L370.83,180.02L371.01,179.76L371.19,182.13L372.1,141.91L372.46,142.31L372.65,142.04L373.73,141.93L373.92,168.32L374.1,140.79L374.82,142.68L375.01,141.52L376.46,29.69L376.64,48.86L377.55,133.15L377.73,120.58L379,179.24L379.18,177.88L379.54,179.52L379.72,191.36L380.99,188.35L381.18,174.98L381.36,172.76L381.9,175.23L382.08,174.9L383.54,165.24L383.72,166.13L384.26,165.88L384.44,167.83L384.63,167.64L384.81,165.85L385.35,166.36L385.53,166.06L385.71,165.27L386.08,165.41L386.26,166.89L386.44,167.07L386.62,259.86L386.8,248.4L386.98,166.25L387.17,178.13L387.53,165.5L387.71,165.5L387.89,165.38L388.07,165.34L388.26,166.35L389.53,142.09L389.71,203.31L390.07,191.24L390.25,141.17L390.62,141.98L390.98,141.72L391.16,125.46L392.07,20.11L392.25,32.55L392.43,33.74L392.61,32L392.79,45.06L392.97,34.31L393.16,115.39L393.34,114.63L393.52,33.55L394.25,57.51L394.43,90.53L396.06,166.95L396.24,166.87L396.42,166.87L398.96,166.87L399.15,165.69L399.33,165.21L399.51,166.36L399.69,166.87L400.6,165.23L400.78,165.47L400.96,166.29L401.51,165.5L401.69,165.4L404.95,164.77L405.14,167.08L405.5,271.36L405.68,189.57L406.04,186.92L406.23,183.87L407.68,141.95L407.86,168.49L408.04,166.81L408.22,179.53L408.77,140.41L409.31,141.74L409.49,141.99L409.86,16L410.4,37.64L410.58,30.16L411.13,21.67L411.31,29.12L411.49,36.05L412.76,111.81L412.94,127.54L414.03,166.88L414.21,166.86L416.57,166.35L416.75,166.18L416.93,165.3L417.3,166.38L417.48,166.87L418.39,165.26L418.57,165.32L418.75,165.4L420.93,165L421.11,165.14L422.02,165.02L422.2,168.64L423.11,163.55L423.29,164.97L423.83,154.91L424.01,145.32L424.92,141.95L425.1,141.95L425.47,142.22L425.65,141.71L425.83,122.94L426.55,48.31L426.74,54L426.92,51.39L427.1,41.34L427.46,54.18L427.64,139.78L427.83,140.31L428.01,59.33L428.19,58.31L428.37,60.76L428.55,66.94L428.73,60.81L428.91,69.71L429.1,78.25L431.27,167.13L431.46,166.86L432.36,166.87L432.54,166.85L433.82,166.39L434,165.9L434.18,166.86L434.72,165.72L434.9,165.04L435.27,165.42L435.45,166.53L436.36,165.22L436.54,165.57L437.26,165.45L437.45,165.3L437.99,165.31L438.17,168.65L438.35,227.89L438.9,164.98L439.08,165L439.26,165.03L439.44,176.88L439.62,177.19L439.81,165.46L440.71,165.04L440.89,162.91L442.35,141.95L442.53,142L442.71,141.66L443.07,142.05L443.25,93.57L443.62,43.74L443.98,47.95L444.16,58.58L444.34,54.25L444.52,124.32L444.71,120.56L444.89,40.51L445.07,27.49L445.43,42.49L445.61,55.66L445.79,55.8L445.98,143.99L446.16,138.37L446.34,66.94L447.07,89.54L447.25,166.92L447.97,166.96L448.15,198.96L448.7,181.75L449.24,182.91L449.43,181.7L449.79,181.61L449.97,180.07L450.33,181.61L450.51,180.26L450.7,179.21L450.88,179.33L451.06,178.43L451.24,178.05L451.42,178.85L451.6,179.21L451.97,176.14L452.51,176.95L452.69,177.2L452.87,175.95L453.24,178.07L453.42,177.88L453.78,176.22L453.96,171.86L454.87,166.33L455.05,165.91L455.42,166.86L455.6,248.96L455.78,248.88L455.96,166.24L456.87,165.68L457.05,165.74L457.23,165.74L457.41,177.74L458.5,155.43L458.68,145.03L459.59,141.97L459.77,141.93L460.32,141.95L460.5,143.57L460.86,140.19L461.04,141.98L461.22,144.01L461.41,141.99L461.59,111.22L461.77,150.11L461.95,146.46L462.13,57.23L462.49,62.43L462.68,60.2L462.86,48.52L463.04,41.62L463.22,46.27L463.4,62.07L463.58,57.85L463.76,70.73L463.95,81.18L464.49,123.66L464.67,167.75L464.85,166.96L465.04,161.27L465.58,167.17L465.94,166.89L466.12,166.85L466.31,166.6L466.49,175.02L466.67,194.38L467.39,191.46L467.58,192.44L468.48,174.24L468.67,174.18L468.85,175.15L469.03,171.45L469.75,165.63L469.94,167.78L470.12,167.85L470.3,166.09L470.84,166.84L471.03,166.78L471.57,166.06L471.75,166.17L471.93,167.02L472.84,165.38L473.02,165.65L473.2,165.49L474.11,165.42L474.29,165.62L474.66,165.55L474.84,248.14L475.56,165.68L475.74,167.09L475.93,169.9L476.11,178.89L476.47,168.61L476.65,155.44L477.2,168.22L477.38,140.81L477.56,141.97L477.74,142.22L478.47,141.73L478.65,141.99L478.83,73.05L479.19,35.97L479.56,47.94L479.74,50.35L480.1,52.92L480.28,49.95L480.46,52.84L480.65,48.48L482.28,165.01L482.46,168.72L482.64,166.92L482.82,180.03L483.01,201.43L483.55,187.66L483.73,173.17L483.91,171.7L484.09,174.19L484.46,172.13L484.64,172.6L484.82,172.83L485,171.53L485.36,171.8L486.45,166.23L486.64,167.38L486.82,167.97L487,165.93L487.36,167.37L487.54,166.07L487.72,165.24L488.09,166.96L488.45,165.4L488.63,165.65L488.99,166.45L489.36,165.51L489.54,165.11L490.27,165.14L490.45,247.76L490.81,165.09L491.17,177.22L491.35,188.89L491.72,201.11L492.08,188.7L492.26,189.05L492.63,164.99L492.81,247.83L493.71,158.63L493.9,141.97L495.35,141.97L495.53,143.81L496.44,104.18L496.62,102.65L496.8,17.67L497.34,31.82L497.53,33.95L497.71,35.47L497.89,27.36L498.62,56.47L498.8,159.3L499.16,166.93L499.34,121.87L499.52,114.38L499.7,138.77L499.89,140.41L500.07,162.32L500.25,167.21L500.97,166.6L501.16,166.89L502.06,166.61L502.25,216.15L502.61,255.31L502.79,172.29L502.97,170.33L503.33,168.97L503.52,166.07L503.88,168.38L504.42,167.29L504.61,166.66L504.97,167.27L505.15,166.4L505.51,165.56L505.69,165.99L505.88,166.76L507.33,165.19L507.51,165.52L508.42,165.31L508.6,165.04L509.69,165.41L509.87,165.07L510.23,165.98L510.41,188.5L510.59,267.01L510.78,180.18L511.14,228.38L511.32,142.37L511.5,195.19L512.05,141.53L512.23,141.95L512.95,141.73L513.14,142.51L514.04,48.1L514.23,49.54L514.41,35.23L514.59,22.39L514.95,39.31L515.13,42.37L515.31,41.96L515.5,126.02L515.86,143.35L516.04,67.75L516.22,63.63L516.4,74.12L516.58,166.6L516.77,167.18L516.95,166.94L517.13,141.61L517.67,166.93L518.22,166.89L518.4,166.62L519.13,166.91L519.31,166.89L520.03,167.11L520.22,179.78L520.4,183.26L520.94,179.76L521.12,179.1L521.3,180.71L521.49,179.61L521.67,166.66L522.03,168.2L522.39,166.47L522.57,166.9L523.12,166.82L523.3,166.53L524.57,165.16L524.93,165.57L525.12,165.4L525.84,165.11L526.02,247.53L526.39,164.99L526.93,177.03L527.11,164.84L527.48,164.99L527.66,167.21L528.38,180.01L528.56,171.26L529.29,141.92L529.65,142.21L529.84,141.98L530.02,141.69L530.38,141.98L530.56,144.09L530.74,141.76L531.29,141.99L531.47,100.93L532.01,45.37L532.19,67.31L532.38,115.01L532.74,133.88L532.92,122.28L533.1,97.57L534.01,150.65L534.19,144.65L534.37,132L535.64,166.89L535.83,166.86L536.01,166.87L539.09,166.58L539.27,166.43L539.64,166.86L540,166.58" style="vector-effect: non-scaling-stroke; fill: none; stroke: rgb(0, 191, 255); stroke-opacity: 1; stroke-width: 2px; opacity: 1;"/></g><g class="points"/><g class="text"/></g></g></g><g class="overplot"/><path class="xlines-above crisp" d="M0,0" style="fill: none;"/><path class="ylines-above crisp" d="M0,0" style="fill: none;"/><g class="overlines-above"/><g class="xaxislayer-above"><g class="xtick"><text text-anchor="middle" x="0" y="433" transform="translate(97.43,0)" style="font-family: 'Open Sans', verdana, arial, sans-serif; font-size: 12px; fill: rgb(42, 63, 95); fill-opacity: 1; white-space: pre; opacity: 1;"><tspan class="line" dy="0em" x="0" y="433">Oct 2</tspan><tspan class="line" dy="1.3em" x="0" y="433">2022</tspan></text></g><g class="xtick"><text text-anchor="middle" x="0" y="433" style="font-family: 'Open Sans', verdana, arial, sans-serif; font-size: 12px; fill: rgb(42, 63, 95); fill-opacity: 1; white-space: pre; opacity: 1;" transform="translate(219.4,0)">Oct 9</text></g><g class="xtick"><text text-anchor="middle" x="0" y="433" style="font-family: 'Open Sans', verdana, arial, sans-serif; font-size: 12px; fill: rgb(42, 63, 95); fill-opacity: 1; white-space: pre; opacity: 1;" transform="translate(341.38,0)">Oct 16</text></g><g class="xtick"><text text-anchor="middle" x="0" y="433" style="font-family: 'Open Sans', verdana, arial, sans-serif; font-size: 12px; fill: rgb(42, 63, 95); fill-opacity: 1; white-space: pre; opacity: 1;" transform="translate(463.35,0)">Oct 23</text></g><g class="xtick"><text text-anchor="middle" x="0" y="433" style="font-family: 'Open Sans', verdana, arial, sans-serif; font-size: 12px; fill: rgb(42, 63, 95); fill-opacity: 1; white-space: pre; opacity: 1;" transform="translate(585.3299999999999,0)">Oct 30</text></g></g><g class="yaxislayer-above"><g class="ytick"><text text-anchor="end" x="79" y="4.199999999999999" transform="translate(0,407.73)" style="font-family: 'Open Sans', verdana, arial, sans-serif; font-size: 12px; fill: rgb(42, 63, 95); fill-opacity: 1; white-space: pre; opacity: 1;">−100</text></g><g class="ytick"><text text-anchor="end" x="79" y="4.199999999999999" style="font-family: 'Open Sans', verdana, arial, sans-serif; font-size: 12px; fill: rgb(42, 63, 95); fill-opacity: 1; white-space: pre; opacity: 1;" transform="translate(0,324.87)">−50</text></g><g class="ytick"><text text-anchor="end" x="79" y="4.199999999999999" style="font-family: 'Open Sans', verdana, arial, sans-serif; font-size: 12px; fill: rgb(42, 63, 95); fill-opacity: 1; white-space: pre; opacity: 1;" transform="translate(0,242.01)">0</text></g><g class="ytick"><text text-anchor="end" x="79" y="4.199999999999999" style="font-family: 'Open Sans', verdana, arial, sans-serif; font-size: 12px; fill: rgb(42, 63, 95); fill-opacity: 1; white-space: pre; opacity: 1;" transform="translate(0,159.15)">50</text></g></g><g class="overaxes-above"/></g></g><g class="polarlayer"/><g class="smithlayer"/><g class="ternarylayer"/><g class="geolayer"/><g class="funnelarealayer"/><g class="pielayer"/><g class="iciclelayer"/><g class="treemaplayer"/><g class="sunburstlayer"/><g class="glimages"/><defs id="topdefs-c80a66"><g class="clips"/></defs><g class="layer-above"><g class="imagelayer"/><g class="shapelayer"/></g><g class="infolayer"><g class="g-gtitle"><text class="gtitle" x="350" y="50" text-anchor="middle" dy="0em" style="font-family: 'Open Sans', verdana, arial, sans-serif; font-size: 17px; fill: rgb(42, 63, 95); opacity: 1; font-weight: normal; white-space: pre;"><tspan class="line" dy="0em" x="350" y="50">Scenario 4</tspan><tspan class="line" dy="1.3em" x="350" y="50">Microgrid Output</tspan><tspan class="line" dy="2.6em" x="350" y="50">From: October 01, 2022 to October 31, 2022</tspan></text></g><g class="g-xtitle"><text class="xtitle" x="350" y="476.409375" text-anchor="middle" style="font-family: 'Open Sans', verdana, arial, sans-serif; font-size: 14px; fill: rgb(42, 63, 95); opacity: 1; font-weight: normal; white-space: pre;">Time</text></g><g class="g-ytitle"><text class="ytitle" transform="rotate(-90,27.168750000000003,260)" x="27.168750000000003" y="260" text-anchor="middle" style="font-family: 'Open Sans', verdana, arial, sans-serif; font-size: 14px; fill: rgb(42, 63, 95); opacity: 1; font-weight: normal; white-space: pre;">Demand (kW)</text></g></g></svg>