<svg class="main-svg" xmlns="http://www.w3.org/2000/svg" xmlns:xlink="http://www.w3.org/1999/xlink" width="700" height="500" style="" viewBox="0 0 700 500"><rect x="0" y="0" width="700" height="500" style="fill: rgb(255, 255, 255); fill-opacity: 1;"/><defs id="defs-8fd3d2"><g class="clips"><clipPath id="clip8fd3d2xyplot" class="plotclip"><rect width="435" height="320"/></clipPath><clipPath class="axesclip" id="clip8fd3d2x"><rect x="80" y="0" width="435" height="500"/></clipPath><clipPath class="axesclip" id="clip8fd3d2y"><rect x="0" y="100" width="700" height="320"/></clipPath><clipPath class="axesclip" id="clip8fd3d2xy"><rect x="80" y="100" width="435" height="320"/></clipPath></g><g class="gradients"/><g class="patterns"/></defs><g class="bglayer"/><g class="layer-below"><g class="imagelayer"/><g class="shapelayer"/></g><g class="cartesianlayer"><g class="subplot xy"><g class="layer-subplot"><g class="shapelayer"/><g class="imagelayer"/></g><g class="gridlayer"><g class="x"><path class="xgrid crisp" transform="translate(152.53,0)" d="M0,100v320" style="stroke: rgb(255, 255, 255); stroke-opacity: 1; stroke-width: 1px;"/><path class="xgrid crisp" transform="translate(254.06,0)" d="M0,100v320" style="stroke: rgb(255, 255, 255); stroke-opacity: 1; stroke-width: 1px;"/><path class="xgrid crisp" transform="translate(355.6,0)" d="M0,100v320" style="stroke: rgb(255, 255, 255); stroke-opacity: 1; stroke-width: 1px;"/><path class="xgrid crisp" transform="translate(457.13,0)" d="M0,100v320" style="stroke: rgb(255, 255, 255); stroke-opacity: 1; stroke-width: 1px;"/></g><g class="y"><path class="ygrid crisp" transform="translate(0,368.51)" d="M80,0h435" style="stroke: rgb(255, 255, 255); stroke-opacity: 1; stroke-width: 1px;"/><path class="ygrid crisp" transform="translate(0,194.9)" d="M80,0h435" style="stroke: rgb(255, 255, 255); stroke-opacity: 1; stroke-width: 1px;"/><path class="ygrid crisp" transform="translate(0,108.09)" d="M80,0h435" style="stroke: rgb(255, 255, 255); stroke-opacity: 1; stroke-width: 1px;"/></g></g><g class="zerolinelayer"><path class="yzl zl crisp" transform="translate(0,281.71000000000004)" d="M80,0h435" style="stroke: rgb(255, 255, 255); stroke-opacity: 1; stroke-width: 2px;"/></g><path class="xlines-below"/><path class="ylines-below"/><g class="overlines-below"/><g class="xaxislayer-below"/><g class="yaxislayer-below"/><g class="overaxes-below"/><g class="plot" transform="translate(80,100)" clip-path="url(#clip8fd3d2xyplot)"><g class="scatterlayer mlayer"><g class="trace scatter tracee61e80" style="stroke-miterlimit: 2; opacity: 1;"><g class="fills"/><g class="errorbars"/><g class="lines"><path class="js-line" d="M0,183.54L0.3,181.71L0.91,181.82L1.06,182.41L1.96,181.71L2.12,182.89L3.02,181.71L3.17,181.71L3.32,191.79L3.78,181.71L3.93,181.71L4.08,249.82L4.68,193.13L4.84,184.56L4.99,181.71L5.14,228.05L6.19,152.15L6.35,143.06L6.65,135.39L6.8,140.32L6.95,173.72L7.1,165.9L7.25,103.97L7.55,102.6L8.16,181.71L8.31,185.69L8.46,200.18L8.61,142.62L9.07,198.47L9.22,198.54L9.37,153.38L9.97,181.71L10.12,181.71L10.27,181.71L10.43,189.39L10.58,188.34L10.73,194.26L11.33,183.79L11.63,184L11.79,182.79L12.09,182.49L12.24,185.57L12.54,183.52L12.69,182.37L13.6,181.71L13.75,182.48L14.35,182.87L14.66,181.71L14.81,182.19L15.71,181.71L15.86,181.71L18.58,181.71L18.74,249.79L18.89,150.98L19.49,181.87L19.64,182.26L19.94,181.71L20.1,186.71L21.61,149.24L21.76,161.28L21.91,197.9L22.36,181.71L22.51,108.71L23.57,181.71L23.72,181.71L24.63,181.71L24.78,188.21L25.38,200.65L25.53,189.41L25.69,187.91L25.84,186.8L25.99,190.9L26.14,184.05L26.59,191.85L26.89,191.12L27.05,184.08L27.2,189.91L27.65,183.56L27.8,189.1L27.95,183.56L28.25,183.46L28.41,189.07L28.71,185.24L28.86,182.59L29.77,181.71L29.92,181.71L30.22,189.92L30.67,181.71L30.82,181.71L32.49,181.71L32.64,249.35L32.79,149.72L33.39,180.44L33.54,190.35L33.85,197.55L34.6,170.39L34.75,178.88L35.81,125.21L35.96,138.58L36.11,117.19L36.41,117.64L36.56,197.08L36.87,197.56L37.02,119.95L37.32,181.71L37.47,181.71L39.28,181.71L39.44,259.4L39.74,264.23L40.19,157.21L40.34,211.21L40.49,174.61L41.1,181.71L41.25,181.71L46.99,181.71L47.14,189.16L47.29,183.57L47.44,248.79L47.59,149.57L48.2,180.42L48.35,199.27L48.95,175.46L49.11,216.47L50.01,131.88L50.16,169.52L50.47,200.8L50.92,78.57L51.07,216.99L51.83,79.48L51.98,156.15L52.88,223.74L53.03,190.56L53.19,206.17L53.34,172.9L53.49,177.95L53.64,172.23L54.39,196.68L54.7,193.87L54.85,254.29L55.3,151.71L55.75,206.71L55.9,189.31L56.06,190.21L56.21,183.83L56.66,193.3L56.96,189.55L57.11,183.67L57.72,183.52L57.87,189.16L58.02,183.57L58.47,189.29L58.78,189.2L58.93,183.83L59.08,189.15L59.53,183.53L59.68,188.55L59.83,183.73L59.98,188.54L60.14,245.12L60.59,154.29L61.04,196.28L61.19,185.29L61.34,250.09L61.65,181.71L61.8,189.27L61.95,183.62L62.1,189.55L62.25,183.67L62.4,259.73L63.31,176.96L63.46,180.52L63.61,223.6L63.91,136.02L64.06,156.25L64.22,178.13L64.52,102.44L64.67,159.09L64.97,159.53L65.12,87.04L65.42,151.6L65.57,164.97L65.88,92.19L66.18,96.04L66.33,149.53L66.48,101.71L66.93,164.06L67.09,119.83L67.24,229.33L67.69,120.9L67.99,145.71L68.14,202.4L68.29,177.71L68.9,187.6L69.05,270.06L69.5,153.4L69.81,167.4L69.96,213.03L70.11,182.98L70.71,184.37L70.86,188.83L71.17,190.6L71.77,181.71L71.92,181.71L73.89,181.71L74.04,190.51L74.94,181.71L75.09,181.71L75.85,190.27L76,183.85L76.3,183.73L76.45,197.22L76.6,242.97L77.66,160.5L77.81,167.39L78.87,118.12L79.02,122.71L79.48,115.64L79.78,116.55L79.93,168.62L80.23,106.34L80.38,149.6L80.53,177.9L80.68,174.76L80.84,179.97L80.99,127.06L81.89,176.99L82.04,180.53L82.65,186.34L82.8,191.43L82.95,187.23L83.1,191.7L83.56,189.97L83.71,189.19L84.46,181.89L84.61,182.72L84.76,184.34L85.67,181.71L85.82,181.71L85.97,182.02L86.58,181.71L86.73,181.71L87.63,181.71L87.79,183.03L88.39,181.71L88.69,181.8L88.84,181.71L89.3,190.9L89.45,184.01L89.6,181.71L90.2,181.71L90.35,191.81L90.51,253.01L90.96,203.1L91.11,183.44L91.26,184.37L91.41,196.34L91.71,181.97L91.87,230.75L92.17,181.18L92.32,235.58L92.77,185.89L92.92,161.25L93.23,184.74L93.83,180.83L93.98,142.48L94.74,181.61L94.89,174.71L95.94,187.43L96.1,183.14L96.55,188.41L96.7,184.28L96.85,191.91L97.15,192.48L97.76,181.93L97.91,192.03L98.36,186.25L98.66,186.88L98.82,193.12L99.12,193.55L99.57,184.24L99.72,190.58L100.63,181.71L100.78,181.71L101.54,181.71L101.69,249.49L101.99,181.71L102.59,183.89L102.74,181.71L103.95,181.71L104.1,250.72L105.01,181.71L105.16,181.71L105.46,181.71L105.61,184.02L105.92,187.22L106.07,184.97L106.22,254.3L106.67,181.71L106.97,189.52L107.13,200.35L107.43,200.85L107.58,196.31L107.73,278.26L108.18,118.58L108.64,157.29L108.79,175.6L109.09,181.71L109.39,179.79L109.54,137.27L110.15,245.38L110.6,208.81L110.75,188.48L110.9,214.24L111.36,188.24L111.51,201.48L111.66,186.83L111.81,203.05L112.26,184.1L112.41,190.17L112.57,183.92L112.72,190.31L112.87,183.85L113.32,189.76L113.47,184.06L113.62,190.14L114.08,181.76L114.23,181.71L115.89,181.71L116.04,249.51L116.95,181.71L117.1,181.71L119.52,181.71L119.67,189.2L119.82,183.71L119.97,256.26L120.42,156.01L120.88,179.59L121.03,179.38L121.48,137.47L121.78,178.75L121.93,165.42L122.08,117.91L122.69,121.23L122.84,121.25L122.99,122.54L123.14,169.94L123.59,82.14L123.9,128.57L124.05,144.36L124.35,108.07L124.5,161.62L124.65,126.51L125.71,241.67L125.86,196.7L126.01,248.7L126.16,152.3L126.62,200.24L126.77,183.81L126.92,185.66L127.22,181.71L127.37,181.71L133.27,181.71L133.42,248.43L134.02,269.3L134.17,138.85L134.32,238.57L134.47,152.56L135.08,214.83L135.23,151.47L135.83,137.12L136.14,177.37L136.29,175.98L137.04,119.49L137.19,144.82L137.65,101.46L137.8,153.43L137.95,172.59L138.4,166.78L138.55,108.32L139.31,161.38L139.46,133.51L140.37,181.71L140.52,182.17L140.82,188.66L141.12,187.19L141.27,185.86L141.42,188.97L141.58,184.67L142.03,188.56L142.18,184.32L142.78,184.13L142.94,189.17L143.09,184.38L143.54,188.33L143.69,183.33L143.84,188.04L143.99,183.59L144.14,188.38L144.29,183.36L144.75,187.74L144.9,183.31L145.05,188.24L145.65,187.57L145.81,183.69L146.26,187.29L146.41,183.04L146.56,181.71L147.92,181.71L148.07,188.56L148.98,181.71L149.13,181.71L149.43,181.71L149.58,221.21L149.73,142.33L150.34,159.23L150.49,192.66L151.25,91.97L151.4,152.02L151.55,157.56L151.7,94.09L152.3,84.47L152.61,175.28L152.76,155.55L153.21,91.44L153.36,159.95L153.51,117.43L153.66,182.83L153.81,186.01L153.96,229L154.57,177.65L154.87,181.71L155.02,184.02L155.17,182.28L155.32,191.4L155.78,184.03L156.08,185.51L156.23,189.83L156.38,185.01L156.99,185.34L157.14,199.5L157.89,183.72L158.04,189.36L158.95,181.71L159.1,181.71L161.82,181.71L161.97,189.03L162.73,181.71L162.88,247.88L163.03,150.08L163.63,173.49L163.79,198.87L164.54,152.04L164.69,202.75L165.6,107.36L165.75,139.67L166.2,97.41L166.51,104.34L166.66,137.73L166.81,121.17L167.26,148.17L167.41,176.04L168.17,181.71L168.32,181.71L169.23,181.71L169.38,183.51L169.53,256.43L169.83,181.71L169.98,181.71L170.13,181.93L171.04,181.71L171.19,182.47L172.1,181.71L172.25,181.71L177.84,181.71L177.99,186.06L178.9,170.21L179.05,153.36L179.35,143.74L179.5,204.62L179.65,106.3L179.8,234.6L180.41,163.75L180.56,181.71L182.97,181.71L183.13,193.65L183.43,206.32L183.58,163.97L183.73,186.9L184.33,181.71L184.49,181.71L184.64,191.76L185.24,190.91L185.39,184.08L185.54,190.71L185.85,181.75L186,181.97L186.15,181.77L186.6,181.71L186.75,190.18L186.9,183.82L187.51,184.02L187.66,189.29L188.57,181.86L188.72,181.71L192.19,181.71L192.34,187.76L193.25,175.31L193.4,180.11L193.85,156.42L194,168.97L194.16,197.08L194.91,113.26L195.06,164.8L195.82,181.71L195.97,181.71L197.48,181.71L197.63,190.69L197.93,181.71L198.08,225.45L198.39,241.32L198.84,182.86L198.99,182.9L199.14,191.17L199.44,191.76L199.9,184.14L200.05,192.5L200.96,181.71L201.11,181.71L206.24,181.71L206.39,248.12L206.55,149.78L207.15,183.52L207.3,189.03L207.75,179.05L207.91,221.95L208.66,133.31L208.81,162.57L209.11,163.79L209.57,126.8L209.72,133.23L209.87,139.96L210.02,128.42L210.17,139.06L210.32,180.79L210.47,183.44L211.08,181.71L211.23,181.71L213.04,181.71L213.19,184.9L213.95,201.41L214.25,200.29L214.4,198.46L215.01,185.26L215.31,186.31L215.46,197.16L216.22,188.01L216.37,196.42L217.27,185.52L217.42,186.02L218.18,185.45L218.33,186.12L219.24,181.71L219.39,181.71L220.9,181.71L221.05,249.52L221.66,181.71L221.96,182.28L222.11,181.71L223.01,150.19L223.17,203.61L224.07,128.58L224.22,135.61L224.37,125.15L224.53,124.65L224.68,170.43L224.98,102.08L225.13,149.05L225.28,178.08L226.04,181.71L226.19,181.71L227.25,181.71L227.4,183.1L227.7,186.95L227.85,182.87L228,183.57L228.15,182.17L228.45,181.71L228.61,183.24L229.06,181.71L229.21,182.39L229.36,184.63L229.81,182.05L229.97,191.07L230.27,188.86L230.42,184.67L231.17,188.57L231.33,183.3L232.23,181.71L232.38,181.71L236.61,181.71L236.76,178.47L237.22,161.8L237.37,169.02L237.52,212.12L237.82,247.92L238.28,120.31L238.43,156.44L238.58,114.41L238.88,181.71L239.03,181.71L239.18,181.71L241.45,181.71L241.6,187.34L241.75,186.53L241.9,196.61L242.81,185.44L242.96,191.11L243.11,186.72L243.71,187.09L243.87,187.26L244.02,188.64L244.47,186.22L244.62,188.46L244.77,185.36L245.07,184.71L245.23,187.73L245.53,187.67L245.68,184.69L245.83,187.78L246.13,181.71L246.28,181.71L246.43,181.71L248.7,181.71L248.85,189.55L249.76,181.71L249.91,181.71L250.36,181.71L250.51,247.3L250.67,146.97L250.82,283.75L251.27,169.5L251.42,177.78L252.18,152.07L252.33,174.3L253.08,116.51L253.23,139.52L253.69,104.74L253.84,164.6L253.99,181.71L255.5,181.71L255.65,222.99L255.95,237.65L256.1,166.56L256.26,215.14L256.41,226.65L256.56,244.77L256.86,190.62L257.01,202.1L257.16,186.81L257.77,187.63L257.92,189.73L258.82,183.52L258.98,182.06L259.88,181.71L260.03,181.71L264.26,181.71L264.41,189.71L264.57,183.71L264.72,189.4L264.87,243.64L265.02,154.91L265.62,173.33L265.77,178.77L266.08,215.65L266.98,120.26L267.13,136.64L268.04,121.45L268.19,122.67L268.34,109.23L268.49,179.43L268.65,145.06L268.95,182.39L269.1,181.71L269.25,181.71L270.61,181.71L270.76,192.36L271.21,199.63L271.37,193.8L271.52,183.8L271.67,190.82L272.27,189.55L272.42,185.48L272.57,188.7L273.03,183.32L273.18,181.71L273.48,182.91L273.63,250.09L274.08,150.71L274.39,166.21L274.54,200.15L275.44,181.71L275.6,181.71L279.37,181.71L279.52,188.86L280.28,173.34L280.43,179.61L280.58,218.81L281.64,112.25L281.79,153.71L282.24,103.35L282.55,105.85L282.7,163.92L283.6,181.71L283.75,181.71L285.27,181.71L285.42,183.86L285.57,190.84L286.02,186.29L286.17,182.35L286.32,183.3L286.47,190.13L286.78,191.21L286.93,184.65L287.23,184.89L287.38,192.31L288.29,181.71L288.44,181.71L293.42,181.71L293.58,188.58L294.03,183.34L294.18,255.87L294.33,160.64L294.94,188.83L295.09,181.71L295.39,174.34L295.54,145.68L295.69,221.53L295.99,143.96L296.3,187.53L296.45,176.66L296.6,110.92L297.2,167.43L297.35,157.77L297.5,176.43L297.66,141.5L297.81,106.94L298.71,181.71L298.86,181.71L299.47,181.71L299.62,185.38L299.77,182.62L299.92,194.15L300.38,186.6L300.83,186.69L300.98,188.12L301.43,186.81L301.58,196.51L302.34,186.86L302.49,187.15L302.64,186.41L302.94,185.86L303.09,186.38L303.25,185.49L303.55,185.32L303.7,186.65L303.85,182.78L304.61,181.71L304.76,181.71L306.42,181.71L306.57,248.29L306.72,160.23L307.33,185.28L307.48,181.71L308.38,181.71L308.53,247.08L309.44,174.14L309.59,177.21L309.74,230.2L310.05,135.94L310.2,165.37L310.35,144.63L310.5,172.74L310.95,138.8L311.1,140.56L311.56,125.16L311.71,176.54L311.86,170.96L312.01,178.62L312.16,105.45L312.92,223.77L313.07,155.41L313.22,222.57L313.82,215.62L313.97,146.04L314.88,252.37L315.03,199.37L315.18,250.16L315.33,153.29L315.64,167.42L315.79,201.41L316.39,181.71L316.54,200.87L316.69,186.5L316.84,200.78L317.3,186.44L317.45,199.49L317.6,186.15L318.36,181.71L318.51,181.71L322.13,181.71L322.28,247.76L322.74,150.28L323.04,164.41L323.19,204.06L324.1,172.02L324.25,178.1L324.55,144.62L324.7,203.84L325.31,107.5L325.61,115.85L325.76,156.83L326.06,158.48L326.51,112.99L326.67,143.36L326.82,121.05L326.97,151.62L327.12,142.41L327.27,168.51L327.42,145.33L327.57,172.89L327.72,154.63L327.87,211.18L328.03,134.8L328.63,175.97L328.78,185.11L329.69,181.71L329.84,182.56L330.59,181.71L330.75,183.4L331.05,181.71L331.2,187.99L331.5,188.2L332.1,181.71L332.26,181.71L338,181.71L338.15,235.32L338.45,263.6L338.6,82.96L338.9,86.56L339.06,193.44L339.51,98.51L339.81,100.72L339.96,157.95L340.11,93.35L340.57,205.24L340.72,134.71L340.87,193.4L341.02,152.84L341.62,181.71L341.77,181.71L343.44,181.71L343.59,182.9L344.19,181.91L344.34,184.41L345.1,181.71L345.25,252.54L345.7,150.62L346.01,165.98L346.16,202.13L346.31,180.82L346.91,181.71L347.06,181.71L350.69,181.71L350.84,189.64L351.75,181.71L351.9,181.71L352.05,247.91L352.2,147.1L352.65,198.58L352.8,167.62L352.96,176.65L353.11,164.65L353.26,168.36L353.41,142.35L353.56,163.92L354.01,127.46L354.16,147.33L354.32,122.65L354.62,115.09L355.68,181.71L355.83,181.71L356.88,181.71L357.04,202.35L357.19,196.74L357.34,160.55L358.09,206.07L358.24,184.95L358.4,201.27L358.55,166.59L358.85,181.71L359,181.71L360.06,181.71L360.21,199.79L360.96,183.54L361.11,188.76L362.02,181.71L362.17,181.71L364.14,181.71L364.29,249.05L365.19,181.71L365.35,181.71L365.95,181.71L366.1,189L366.25,183.53L366.4,188.61L366.55,253.23L366.71,145.47L367.31,166.54L367.46,176.16L367.91,153.12L368.07,156.52L368.22,193.79L368.82,115.19L368.97,207.16L369.12,62.53L369.73,89.09L369.88,158.06L370.78,181.71L370.94,181.71L372.3,181.71L372.45,193.9L372.75,194.2L373.35,184.78L373.5,258.89L373.81,260.18L373.96,162.24L374.26,173.55L374.41,210.81L374.86,185.18L375.02,206.42L375.17,242.63L376.22,181.73L376.38,181.96L377.43,181.71L377.58,181.71L378.64,181.71L378.79,189.34L379.7,181.71L379.85,181.71L381.51,181.71L381.66,235.76L382.27,155.6L382.57,160.13L382.72,167.94L382.87,189.11L383.02,171.67L383.17,114.26L383.63,181.71L383.78,110.67L383.93,163.95L384.08,102.95L384.23,300.91L384.84,197.33L384.99,186.15L385.14,190.87L385.44,181.71L385.59,181.71L385.74,181.71L386.05,181.71L386.2,152.57L387.1,208.52L387.25,191.78L387.41,200.86L387.86,186.13L388.01,191.79L388.16,253.66L388.61,181.71L388.77,183.05L389.67,181.71L389.82,181.71L393.15,181.71L393.3,248.97L394.2,181.71L394.36,181.71L395.26,181.71L395.41,188.95L396.32,181.71L396.47,181.71L396.77,173.89L396.92,184.26L397.08,191.21L398.13,146.06L398.28,165.75L398.74,126.76L398.89,257.63L399.04,147.07L399.64,185.65L399.8,139.74L400.4,234.16L400.55,144.57L400.7,214.7L401.31,190.46L401.46,186.61L402.06,258.56L402.21,204.02L402.36,256.16L402.51,155.67L402.97,208.34L403.12,185.84L403.27,192.46L403.72,184.04L403.87,188.88L404.03,184.12L404.33,183.54L404.63,192.72L404.93,192.65L405.08,190.81L406.14,181.71L406.29,181.71L410.98,181.71L411.13,239.98L411.28,119.21L411.88,128L412.03,168.25L412.49,181.71L412.64,180.04L412.79,104.52L412.94,218.45L413.39,79.54L413.54,176.16L413.7,92.5L414.45,162.48L414.6,116.22L415.36,245.48L415.51,141.33L415.66,227.95L416.26,194.12L416.42,184.99L416.57,191L417.02,183.67L417.17,181.71L417.32,182.73L417.78,181.71L417.93,181.71L419.59,181.71L419.74,189.34L420.19,183.54L420.49,183.58L420.65,188.69L421.55,181.71L421.7,181.71L423.37,181.71L423.52,188.69L424.42,181.71L424.57,181.71L425.03,181.71L425.18,249.99L426.09,174.84L426.24,180.33L426.39,181.71L426.54,217.31L427.45,97.63L427.6,155.7L427.9,202L428.35,82.89L428.5,169.11L428.65,101.42L429.26,140.09L429.41,171.2L429.56,150.4L430.01,177.26L430.16,181.71L430.47,181.71L430.62,261.49L431.52,182.03L431.68,190.58L431.98,181.71L432.13,190.65L432.28,183.94L432.43,190.71L433.19,184.01L433.34,189.58L434.24,181.71L434.4,181.71L435,181.71" style="vector-effect: non-scaling-stroke; fill: none; stroke: rgb(0, 191, 255); stroke-opacity: 1; stroke-width: 2px; opacity: 1;"/></g><g class="points"/><g class="text"/></g><g class="trace scatter trace684fda" style="stroke-miterlimit: 2; opacity: 1;"><g class="fills"/><g class="errorbars"/><g class="lines"><path class="js-line" d="M0,181.92L4.23,181.54L4.38,179.53L4.99,152.45L5.14,137.89L6.65,44.77L6.8,42.2L7.55,29.27L7.86,30.95L8.01,30.67L8.16,29.45L8.31,30.16L8.46,35.64L8.91,52.04L9.07,61.51L11.18,181.93L11.33,181.92L11.48,181.92L18.89,181.37L19.04,177.95L21,101.76L21.15,98.9L21.3,109.12L21.46,94.3L21.61,67.12L21.76,67.98L21.91,74.59L22.06,86.02L22.21,47.33L22.36,56.63L22.51,43.38L22.82,62.71L22.97,16L23.12,20.84L23.27,79.54L23.42,28.72L24.02,78.82L24.18,93.15L25.69,181.93L25.84,181.92L25.99,181.92L33.24,181.67L33.39,180.2L34.15,146.89L34.3,129.54L36.11,24.53L36.26,21.46L36.72,16.09L36.87,17.28L37.02,34.58L37.17,16.11L37.77,22.39L37.92,22.8L38.08,19.87L38.23,32.61L40.34,181.93L40.49,181.92L47.9,181.5L48.05,178.58L48.5,157.15L48.65,143.98L50.31,40.58L50.47,38.61L51.52,19.66L51.67,51.08L51.83,19.84L52.28,25.49L52.43,61.7L52.73,61.24L53.34,144.07L53.49,129.43L53.64,134.02L54.85,181.93L55,181.92L62.4,181.35L62.55,179.17L62.86,171.48L63.01,154.45L64.82,32.62L64.97,33.18L65.88,16.6L66.03,16.4L66.18,17.07L66.33,22.58L67.39,73.94L67.54,87.13L69.2,181.93L69.35,181.92L69.5,181.92L76.3,181.19L76.45,178.69L76.91,162.19L77.06,148.62L79.02,31.17L79.17,28.49L79.78,24.26L79.93,24.72L80.08,25.89L81.29,76.9L81.44,88.08L83.25,181.93L83.4,181.92L90.66,181.8L90.81,180.5L91.71,146.43L91.87,131.62L92.17,142.42L92.32,136.02L92.47,102.96L92.62,80.72L93.07,110.25L93.23,145.82L93.98,86.81L94.13,99.85L94.28,107.74L94.43,110.54L94.58,130.32L94.89,126.38L95.49,167.38L95.64,166.28L95.79,162.93L96.1,156.38L96.85,181.25L97,181.75L98.21,181.92L98.36,181.92L105.61,181.52L105.77,179.74L106.97,159.13L107.28,159.53L107.43,157.37L107.73,168.21L107.88,134.7L108.18,32.15L108.49,145.02L108.64,113.13L109.24,150.67L109.39,144.5L109.54,92.35L109.85,112.31L110,151.95L111.96,181.92L112.11,181.92L119.82,181.42L119.97,178.24L120.42,166.28L120.57,137.18L120.72,149.43L121.03,136.27L121.18,89.2L121.48,74.49L121.63,78.97L121.78,119.6L122.84,16.11L122.99,19.73L123.14,73.92L123.29,16.14L123.75,28.44L123.9,73.78L124.2,88.98L124.35,37.43L124.65,58.97L124.8,70.07L126.47,181.93L126.77,181.92L126.92,181.92L134.32,181.47L134.47,179.46L134.93,166.05L135.08,146.54L137.04,25.11L137.19,21.61L137.8,16.29L138.25,16.59L138.4,19.62L139.46,81.35L139.61,94.9L140.97,181.93L141.12,181.92L141.27,181.91L148.83,181.24L148.98,178.59L149.43,164.2L149.58,145.93L151.25,27.23L151.55,32.3L151.7,26.74L151.85,27.17L152,34.05L152.15,63.06L152.3,23.29L152.61,48.26L152.76,28.73L152.91,23.21L153.06,36.13L153.21,30.24L153.36,36.33L155.02,173.58L155.17,181.47L156.08,181.92L156.23,181.92L163.33,181.46L163.48,179.58L163.94,168.73L164.09,150.81L166.05,30.11L166.2,26.63L166.81,19.42L167.11,19.89L167.26,24L167.87,47.17L168.02,56.14L169.98,181.93L170.28,181.92L170.43,181.92L177.84,181.43L177.99,178.65L178.44,165.88L178.59,149.27L180.71,27.65L180.86,26.49L181.62,16.11L181.77,17.14L181.92,21.91L182.97,85.4L183.13,99.33L184.64,181.93L184.79,181.92L192.34,181.49L192.49,180.06L192.95,169.46L193.1,150.8L195.21,28.74L195.36,26.05L195.82,21.98L196.12,22.22L196.27,24.76L197.33,76.17L197.48,88.39L199.14,181.93L199.29,181.92L206.85,181.54L207,180.56L207.6,154.96L207.75,141.38L209.72,29.16L209.87,26.88L210.47,21.89L210.63,22.05L210.78,24.34L211.53,55.79L211.68,65.93L213.5,181.93L213.65,181.92L213.8,181.92L221.35,181.58L221.5,180.58L222.11,155.07L222.26,141.35L224.22,22.8L224.37,19.31L224.68,16.01L225.13,17.12L225.28,18.81L226.19,63.37L226.34,74.47L228.15,181.93L228.3,181.92L235.86,181.61L236.01,180.47L236.61,155.2L236.76,141.45L238.73,27.26L238.88,26.22L239.03,30.53L239.18,21.61L239.48,24.82L239.64,23.18L240.39,49.59L240.54,64.79L241.15,107.92L241.3,137.84L242.51,181.93L242.66,181.92L250.36,181.66L250.51,181.01L251.12,157.33L251.27,143.86L253.23,35.54L253.38,33.34L253.84,35.06L253.99,20.97L254.14,27.54L254.29,34.36L254.9,54.88L255.05,63.4L257.16,181.93L257.31,181.92L257.46,181.92L264.87,181.7L265.02,180.92L265.62,158.28L265.77,145.51L267.89,25.37L268.04,24.38L268.34,21.37L268.8,23.49L268.95,27.39L269.85,77.25L270.01,90.01L271.67,181.93L271.82,181.92L279.52,181.26L279.68,178.01L279.98,173.1L280.13,159.1L282.24,31.69L282.39,29.97L283.15,25.87L283.3,26.98L283.45,30.75L284.51,91.35L284.66,104.42L286.17,181.94L286.32,181.93L294.03,181.26L294.18,179.07L294.63,158.1L294.78,144.27L296.6,33.73L296.75,40.93L297.2,110.51L297.5,48.1L297.66,16.24L297.81,19.55L297.96,40.48L298.41,105.44L298.86,92.15L299.02,103.86L300.38,181.93L300.53,181.93L308.38,181.78L308.53,180.66L309.74,131.39L309.89,107.7L310.95,47.3L311.1,39.16L312.16,29.17L312.31,32.05L312.46,37.07L313.52,94.32L313.67,107.24L315.18,181.93L315.33,181.92L322.89,181.58L323.04,179.91L323.95,143.69L324.1,122.18L324.4,109L324.55,83.68L325.15,56.75L325.31,51.09L325.76,43.2L325.91,48.21L326.06,38.59L326.67,32.08L326.82,32.81L326.97,38.95L327.87,177.47L328.03,102.79L328.18,110.58L329.69,181.93L329.84,181.92L337.39,181.8L337.54,181.19L338.15,162.42L338.3,150.17L340.72,35.27L340.87,43.09L341.17,35.35L341.47,41.3L341.62,43.81L341.93,53.49L342.08,63.38L343.89,181.96L344.19,181.95L344.34,181.94L352.05,181.41L352.2,179.22L352.65,162.84L352.8,149.83L354.77,36.64L354.92,34.88L355.22,27.66L355.37,45.47L355.52,74.5L355.83,28.73L356.13,62.07L356.28,74.85L356.43,47.07L356.73,96.13L356.88,76.71L357.04,93.95L358.4,181.93L358.7,181.71L358.85,181.71L366.55,181.53L366.71,179.65L367.16,164.01L367.31,151.6L368.67,60.35L368.82,62.49L368.97,174.67L369.88,35.85L370.03,35.28L370.33,37.97L370.48,40.17L371.69,112.87L371.84,126.18L373.05,181.95L373.2,181.94L373.35,181.94L381.06,181.34L381.21,178.85L381.66,163.77L381.81,152.99L383.78,43.11L383.93,41.45L384.08,46.98L384.23,181.71L385.89,181.71L386.05,178.2L386.2,113.89L386.8,167.68L386.95,174.78L387.56,181.95L387.71,181.94L387.86,181.94L395.56,181.48L395.72,177.84L396.02,150.37L396.32,165.21L396.47,169.55L397.23,105.58L397.38,127.17L397.53,130.34L397.83,130.48L398.74,30.68L398.89,119.44L399.49,60.81L399.64,64.84L399.8,88.53L399.95,75.98L400.1,127.2L400.7,165.24L401,159.32L401.15,168.33L402.36,181.92L402.51,181.92L410.37,181.71L410.52,180.8L412.18,63.46L412.34,56.36L412.49,71.84L412.79,49.81L412.94,174.8L413.39,38.15L413.7,40.13L413.85,43.48L414.3,57.13L414.45,64.84L416.57,181.93L416.72,181.92L416.87,181.92L424.57,181.47L424.73,179.23L426.54,109.03L426.69,101.14L427.6,43.59L427.75,40.71L427.9,39.71L428.2,40.81L428.35,42.42L428.96,64.09L429.11,74.01L431.07,181.93L431.22,181.92L431.37,181.92L435,181.71" style="vector-effect: non-scaling-stroke; fill: none; stroke: rgb(255, 0, 0); stroke-opacity: 1; stroke-width: 2px; opacity: 1;"/></g><g class="points"/><g class="text"/></g><g class="trace scatter trace1e4a99" style="stroke-miterlimit: 2; opacity: 1;"><g class="fills"/><g class="errorbars"/><g class="lines"><path class="js-line" d="M0,208.03L0.15,206.88L0.6,208L0.76,208.28L1.06,207.97L1.21,208.35L1.36,206.6L1.81,205.95L2.12,207.93L2.27,207.1L2.42,206L2.72,207.7L3.02,206.32L3.17,216.48L3.48,205.93L3.78,206.41L3.93,275.32L4.23,207.28L4.84,211.41L4.99,262.56L6.04,159.66L6.19,148.83L6.65,138.4L6.8,204.45L7.4,103.74L7.71,123.38L7.86,109.8L8.01,110.03L8.16,182.87L8.31,219.36L8.46,146.76L8.61,168.19L8.76,134.23L9.07,212.97L9.52,169.58L9.67,172.7L9.82,173.95L9.97,192.89L10.58,216.91L11.03,208.66L11.18,211.08L11.94,209.1L12.09,210.32L12.84,205.46L12.99,207.58L13.15,207.56L13.3,207.8L13.45,206.75L13.6,205.78L14.05,205.6L14.35,208.34L14.51,205.17L15.26,207.79L15.41,206.59L15.56,205.89L15.86,207.04L16.02,207.47L16.47,205.25L16.77,205.82L16.92,205.78L17.07,205.2L17.22,205.58L17.38,207.36L17.68,205.19L18.13,205.3L18.28,207.26L18.43,205.59L18.58,274.75L18.74,155.4L19.34,198.74L19.49,207.83L19.64,207.46L19.79,199.68L19.94,212.57L20.25,196.48L20.4,196.52L20.55,186.72L21.15,159.9L21.3,178.85L21.46,174.65L21.61,160.01L21.76,219L22.06,219.12L22.66,105.52L22.82,154.25L22.97,144.22L23.12,96.5L23.72,130.37L23.87,137.64L25.23,224.11L25.38,215.27L25.53,216.52L25.69,212.3L25.84,214.33L25.99,213.28L26.29,210.29L26.44,216.9L26.74,216.15L26.89,210.11L27.05,217.07L27.5,209.56L27.65,214.52L27.8,209.57L27.95,214.72L28.1,209.48L28.56,214.32L28.71,208.21L28.86,204.81L29.46,206L29.61,205.74L29.92,205.88L30.07,215.87L30.82,205.08L30.97,205.68L31.13,205.33L31.88,205.02L32.03,205.21L32.18,205.43L32.33,204.94L32.49,274.6L32.64,155.19L33.24,186.3L33.39,207.07L33.54,202.61L33.69,212.45L33.85,211.05L34,212.61L35.96,122L36.11,136.93L36.26,125.44L36.41,213.23L36.87,112.18L37.32,112.57L37.47,105.28L38.08,79.89L38.23,85.47L38.38,94.06L39.59,287.76L39.74,166.87L39.89,252.39L40.04,163.48L40.49,216.85L40.64,195.16L41.1,207.67L41.55,207.66L41.7,206.61L42.31,205.16L42.46,205.46L42.61,205.59L43.36,204.97L43.52,205.37L44.27,205.94L44.42,205.4L44.72,206.1L44.87,205.69L45.03,204.7L45.78,205.36L45.93,204.7L46.39,205.22L46.69,204.63L46.84,204.82L46.99,214.81L47.14,199.63L47.29,272.43L47.44,155.05L48.05,188.36L48.2,212.53L48.8,186.21L48.95,248.61L49.86,141.19L50.01,174.82L50.31,234.21L50.47,83.72L50.77,89.73L50.92,238.86L51.37,93.46L51.67,113.53L51.83,156.63L52.13,87.15L52.58,153.94L52.73,195.57L52.88,216.47L53.03,214.41L53.19,145.68L53.94,215.66L54.09,211.62L54.24,222.8L54.39,217.02L54.54,222.19L54.7,284.26L55.15,156.52L55.6,227.16L55.75,193.8L56.51,219.21L56.66,214.79L56.81,214.7L57.42,215.04L57.57,209.56L57.72,214.88L58.17,209.57L58.32,215.03L58.47,209.74L58.62,214.65L58.78,209.64L58.93,215.29L59.38,209.67L59.53,214.89L59.68,209.48L59.83,214.66L59.98,278.56L60.44,159.68L60.89,216.89L61.04,190.89L61.19,270.84L61.8,209.64L61.95,215.34L62.1,199.78L62.25,283.32L63.16,188.36L63.31,190.4L63.46,247.05L63.76,151.76L64.06,202.3L64.22,177.88L64.97,96.16L65.12,156.98L65.27,155.88L65.42,162.5L66.03,95.28L66.18,145.06L66.33,97.61L66.78,164.36L66.93,107.1L67.09,236.83L67.54,115.13L67.84,144.64L67.99,211.3L68.14,173.12L68.6,226.14L68.75,213.51L68.9,297.73L69.35,157.96L69.5,248.29L69.65,174.56L69.81,233.94L70.41,214.07L70.56,210.24L70.71,215.45L70.86,209.54L71.17,209.77L71.32,210.53L71.77,205.69L72.07,206.58L72.22,206.49L72.83,205.55L72.98,206.09L73.13,206.19L73.73,206.12L73.89,215.82L74.19,215.91L74.34,199.79L74.79,206.1L74.94,205.77L75.09,215.88L75.55,199.86L75.7,213.54L75.85,209.85L76.15,209.72L76.3,224.88L76.45,270.91L77.51,168.36L77.66,177.32L78.72,120.37L78.87,127.73L79.32,115.06L79.63,115.19L79.78,187.02L80.08,104.55L80.38,180.04L80.53,172.27L80.68,190.79L80.84,131.08L80.99,178.76L81.14,151.59L82.35,196.86L82.5,206.03L82.65,218.8L83.25,217.91L83.4,214.42L83.71,215.84L83.86,204.87L84.31,209.53L84.76,209.13L84.91,207.61L85.22,208.23L85.37,206.04L85.97,207.73L86.27,206.56L86.43,206.3L86.58,206.06L86.88,206.92L87.03,207.32L87.48,206.24L87.63,206.92L87.79,207.92L88.69,206.2L88.84,216.65L89.3,200.13L89.75,206.53L89.9,206.53L90.05,206.45L90.2,216.22L90.35,279.67L90.81,231.22L90.96,207.51L91.11,207.53L91.26,218.72L91.41,213.3L91.56,214.66L91.71,266.44L92.77,163.7L92.92,168.06L93.07,175.03L93.23,217.38L93.53,162.85L94.13,169.39L94.28,170.3L94.43,165.02L94.58,174.49L94.74,191.46L94.89,181.45L95.19,197.87L95.34,182.75L95.49,205.12L95.94,207.98L96.1,195.07L97,216.06L97.15,210.42L97.3,218.17L97.46,210.19L97.76,217.82L97.91,210.69L98.06,218.34L98.66,217.27L98.82,213.29L98.97,218.75L99.42,210.26L99.57,217.44L99.72,210.07L99.87,216.85L100.18,215.46L100.33,200.23L100.93,205.9L101.23,205.49L101.38,205.63L101.54,275.84L101.99,215.82L102.14,209.88L102.29,216.07L102.44,199.94L102.74,205.89L102.9,205.55L103.65,206.11L103.8,205.65L103.95,275.23L104.41,205.76L104.56,205.83L104.86,205.54L105.31,206.54L105.46,205.21L105.77,220.33L105.92,212.23L106.07,282.22L106.52,199.2L106.97,222.97L107.13,223.87L107.28,228.37L107.43,212.8L107.58,297.03L108.33,126.5L108.49,187.99L108.64,176.84L108.79,178.57L108.94,190.62L109.09,191.19L109.24,180.97L109.69,152.6L109.85,188.72L110,270.62L110.6,204.72L110.75,235.72L111.21,204.61L111.51,212.7L111.66,227.68L112.41,209.87L112.57,216.24L113.02,209.87L113.32,210L113.47,215.86L114.38,205.82L114.53,205.79L115.59,206.02L115.74,205.66L115.89,274.89L116.34,205.57L116.49,205.28L117.25,206.27L117.4,205.55L117.55,205.16L117.85,206.17L118.16,205.41L118.31,205.82L119.36,205.43L119.52,215.04L119.67,209.63L119.82,284.53L120.27,161.51L120.72,193.45L120.88,187.4L121.33,144.53L121.63,149.95L121.78,178.75L122.24,116.87L122.84,121.21L122.99,135.39L123.29,159.68L123.44,83.6L123.9,166.59L124.2,150.48L124.35,150.52L124.5,121.49L124.65,166.24L124.95,163.49L125.11,151.49L125.86,265.3L126.01,155.24L126.16,237.12L126.77,205.59L126.92,204.79L127.83,207.68L127.98,207.38L130.09,205.1L130.24,205.26L130.39,205.58L131,205.87L131.3,205.21L131.45,205.86L132.36,204.77L132.51,205.13L133.11,204.75L133.27,273.93L133.87,289.82L134.02,144.15L134.17,259.6L134.32,159.49L134.78,225.76L134.93,255.48L135.68,145.33L135.83,161.55L135.98,203.82L136.89,124.14L137.04,145.35L137.5,103.09L137.65,150.45L137.8,174.08L138.25,167.34L138.4,103.05L139.16,157.3L139.31,123.72L140.22,185.14L140.37,196.49L140.97,214.84L141.27,213.43L141.42,212.21L141.58,214.59L141.73,210.67L142.18,214.54L142.33,210.49L142.94,210.22L143.09,215.16L143.24,210.06L143.84,209.35L143.99,214.18L144.14,209.66L144.45,209.35L144.6,214.12L144.9,213.75L145.05,209.48L145.2,214.08L145.35,209.2L145.81,213.63L145.96,209.64L146.11,213.3L146.41,203.16L146.56,203.78L146.86,204.81L147.32,204.51L147.47,204.09L147.62,203.37L147.77,204.41L147.92,214.36L149.13,197.51L149.28,195.37L149.43,257.4L149.58,157.38L149.89,159.18L150.04,166.5L150.19,154.37L150.34,225.81L151.09,99.89L151.25,143.96L151.4,160.83L151.55,98.68L151.7,139.06L151.85,94.65L152.61,169.01L152.76,99.2L153.06,95.65L153.81,218.22L153.96,210.11L154.57,181.43L154.72,190.6L154.87,200.53L155.02,198.84L155.17,216.14L155.48,217.3L155.63,210.07L155.93,210.15L156.08,217.15L156.53,211.1L156.84,211.46L156.99,225.55L157.14,203.92L157.74,210.02L157.89,215.71L158.65,204.79L158.8,205.17L158.95,204.81L160.16,204.53L160.31,204.95L161.37,204.13L161.52,204.85L161.67,203.99L161.82,213.82L162.12,215.04L162.28,199.52L162.58,204.42L162.73,273.39L162.88,154.88L163.48,180.45L163.63,220.15L164.39,161.89L164.54,232.44L165.45,109.18L165.6,145.25L166.05,101.14L166.35,106.89L166.51,136.63L167.11,146.1L167.56,96.4L167.71,102.67L167.87,101.28L168.02,107.33L169.23,196.04L169.38,278L170.28,206.88L170.43,207.2L170.89,206.3L171.19,207.84L171.34,206.77L171.79,206.94L172.55,204.79L172.7,205.31L172.85,205.38L173,204.62L173.91,204.83L174.06,204.36L174.51,204.27L174.66,204.45L174.82,204.79L176.33,203.94L176.48,204.97L177.38,203.72L177.54,204.46L177.69,204.37L177.84,213.14L178.74,179.39L178.9,162.2L179.05,174.68L179.2,152.97L179.35,233.04L179.65,261.68L180.1,113.65L180.26,153.43L181.16,56.34L181.31,54.93L181.77,142.99L181.92,67.19L182.07,54.69L182.82,110.28L182.97,193.53L183.28,223.6L183.43,157.43L184.18,206.44L184.33,206.3L184.49,216.2L184.79,216.93L184.94,210L185.24,210.24L185.39,216.91L185.85,206.53L186.3,207.24L186.45,206.66L186.6,216.84L187.21,215.52L187.36,210.44L187.81,215.32L187.96,210.08L188.11,215.09L188.26,210.19L188.57,204.21L189.17,204.49L189.32,205.26L189.77,205.47L190.08,204.39L190.23,204.61L190.38,204.94L191.29,204.43L191.44,204.92L191.89,204L192.04,204.17L192.19,213.62L193.1,186.35L193.25,189.45L193.7,165.49L193.85,174.92L194,223.8L194.76,125.73L194.91,161.27L195.36,81.7L195.82,86.16L195.97,87.21L196.27,79.61L196.42,89.76L197.33,113.34L197.48,190.32L197.63,141.41L197.93,233.1L198.08,219.37L198.24,254.82L198.54,198.6L199.14,210.98L199.29,217.33L199.75,210.17L200.05,210.37L200.2,217.26L200.65,206.81L201.11,207.15L201.26,205.87L202.16,205.2L202.32,205.56L204.13,205.35L204.28,205.05L204.73,204.66L205.03,205.47L205.19,205.2L206.09,204.39L206.24,273.88L206.39,154.91L207,186.08L207.15,205.14L207.45,205.87L207.6,190.56L207.75,249.93L207.91,145.46L208.21,155.23L208.36,180.09L209.11,136.53L209.27,152.29L209.42,128.45L210.02,147.1L210.17,198.44L210.78,90.61L211.23,104.06L211.38,115.7L211.68,110.34L211.83,120.25L211.99,136L213.8,227.14L213.95,223.73L214.1,227.56L214.4,216.49L214.55,222.19L214.7,217.18L214.86,211.21L215.16,211.27L215.31,224.22L216.06,214.2L216.22,222.03L216.67,211.7L217.12,211.96L217.27,211.69L218.18,212.23L218.33,210.88L218.48,204.73L219.09,204.77L219.24,204.85L219.54,205.64L219.69,205.19L219.84,204.7L220.6,205.06L220.75,204.78L220.9,274.2L221.35,204.43L221.5,203.68L221.81,208.14L221.96,205.87L222.11,190.44L222.86,158.78L223.01,230.86L223.92,132.96L224.07,140.21L224.22,127.18L224.37,125.03L224.53,191.69L225.28,88.31L225.58,93.77L225.73,107.24L227.55,209.95L227.7,211L227.85,211.57L228,208.13L228.45,207.67L228.61,207.97L228.76,206.5L229.66,212.66L229.81,216.53L229.97,210.23L230.12,217.4L230.57,210.68L230.72,214.61L231.02,214.65L231.17,201.36L231.63,205.51L231.78,205.89L232.68,204.75L232.84,205.27L233.14,204.97L233.44,205.46L233.59,205.18L233.74,204.71L234.2,205.36L234.8,203.94L234.95,204.1L235.25,205.09L235.56,203.85L235.71,204.74L235.86,204.36L236.16,199.4L236.46,199.5L236.61,190.16L237.07,171.54L237.22,178.79L237.37,240.54L237.67,276.97L238.12,123.7L238.28,164.79L238.88,69.02L239.18,74.1L239.33,74.95L239.79,82.03L239.94,86.9L242.05,223.41L242.2,217.79L242.35,214.01L242.66,212.67L242.81,215.86L242.96,211.89L243.11,217.17L243.71,213.54L243.87,213.19L244.17,214.38L244.32,212.5L244.47,214.09L244.62,212.3L244.77,214.19L245.23,210.9L245.38,213.75L245.53,210.81L245.68,213.7L245.98,209.19L246.13,205.62L246.89,205.24L247.04,205.7L247.19,204.89L247.79,205.47L247.95,205.39L248.4,204.59L248.55,205.01L248.7,215.19L248.85,199.69L249.46,204.73L249.61,204.78L249.91,204.99L250.06,204.78L250.21,204.05L250.51,154.52L250.67,304L250.97,219.82L251.12,184.39L251.27,190.99L251.42,170.03L251.57,175.69L251.72,157.84L251.87,185.38L252.33,141.86L252.48,170.29L252.63,125.77L252.78,162.36L253.23,112.91L253.38,138.9L253.54,110.27L253.69,131L253.84,81.16L253.99,54.32L254.14,58.29L254.29,135.97L254.44,166.76L254.74,93.14L254.9,100.4L255.8,252.85L255.95,164.11L256.41,267.25L256.71,201.42L256.86,221.69L257.31,212.4L257.46,226.18L257.62,213.45L257.77,214.79L258.22,210.18L258.37,215.98L258.52,211.4L258.67,214.05L259.58,205.1L259.73,205.34L259.88,205.75L260.18,205.13L260.49,205.36L260.64,204.99L262.6,205.6L262.75,205.62L262.9,204.76L263.21,205.72L263.51,204.88L263.66,205.77L264.11,204.72L264.26,215.14L264.41,209.74L264.57,215.61L264.72,269.16L264.87,160.94L265.47,188.57L265.62,191.49L265.77,173.66L265.93,245.81L266.83,125.11L266.98,140.95L267.13,128.75L267.29,137.69L267.74,124.66L267.89,123.48L268.04,122.42L268.19,111.36L268.34,199.13L268.95,178.88L269.1,172.13L269.7,94.06L269.85,105.61L270.01,130.93L271.06,223.07L271.21,223.55L271.97,209.78L272.12,215.83L272.42,215.91L273.03,208.67L273.18,206.99L273.33,207.16L273.48,277.4L273.93,155.29L274.39,221.19L274.54,187.01L275.29,205.89L275.44,205.4L275.9,205.87L276.2,205.21L276.35,205.25L276.5,205.73L277.11,205.17L277.26,205.26L278.01,205.22L278.16,204.65L278.47,205.44L278.62,205.01L278.77,204.56L279.22,205.21L279.37,214.42L280.13,184.3L280.28,188.99L280.43,243.74L281.49,114.5L281.64,158.36L282.09,104.29L282.39,105.25L282.55,144.87L283.3,77.54L283.45,91.36L283.6,101.62L283.75,170.55L284.06,201.94L284.21,139.06L284.36,124.59L285.72,216.84L286.02,206.37L286.17,207.96L286.32,218.01L286.93,216.91L287.08,210.69L287.23,217L287.53,216.9L287.68,200.2L287.99,205.71L288.14,183.03L288.29,205.85L288.89,205.32L289.04,205.32L289.95,205.31L290.1,204.64L291.16,205.06L291.31,205.06L291.46,205.46L291.76,204.71L291.91,204.67L292.06,204.69L292.22,204.09L292.67,204.86L292.82,204.37L292.97,204.26L293.27,204.75L293.42,214.18L293.58,209.49L293.73,214.69L293.88,209.72L294.03,283.26L294.18,166.78L294.78,210.6L294.94,209.13L295.39,166.6L295.54,245.44L296.45,121.81L296.6,156.74L296.75,115.25L297.2,166.7L297.35,231.78L297.66,102.53L298.26,138.13L298.41,134.96L298.56,123.26L298.86,143.14L299.02,157.27L300.22,214.5L300.38,215.17L300.53,212.38L301.13,214.21L301.28,212.97L301.58,215.1L301.73,221.77L301.89,212.24L302.49,212.92L302.64,213.03L303.4,211.58L303.55,212.54L303.85,204.93L304.45,205.8L304.61,205.74L305.36,205.03L305.51,205.25L305.66,205.45L305.81,205.07L305.97,204.48L306.12,204.83L306.27,204.62L306.42,273.8L306.57,164.98L307.17,193.94L307.33,199.79L307.78,204.45L308.23,204.2L308.38,273.22L309.29,183.1L309.44,179.64L309.59,243.48L309.89,159.53L310.05,169.35L310.2,144.85L310.65,173.47L310.95,155.12L311.1,132.29L311.41,127.82L311.56,197.52L312.01,104.26L312.31,107.24L312.46,154.15L312.61,109.01L312.76,241.51L312.92,153.6L313.07,231.71L313.67,238.02L313.82,137.76L313.97,205.14L314.12,169.51L314.58,206.72L314.73,277.26L315.18,155.62L315.48,173.88L315.64,222.22L315.79,188.27L316.24,205.53L316.39,226.67L316.54,212.51L317,226.89L317.15,212.69L317.3,225.48L317.45,202.2L318.05,204.84L318.2,204.96L318.66,204.3L318.96,204.91L319.11,204.83L319.41,204.33L319.56,204.84L319.72,205.15L320.17,204.32L320.32,205.42L320.62,204.46L320.77,204.74L321.53,204.8L321.68,204.13L321.98,204.17L322.13,273.58L322.43,273.86L322.59,155.08L322.89,170.94L323.04,228.94L323.19,186.64L323.79,192.03L323.95,191.02L324.4,164.62L324.55,225.12L325.46,117.91L325.61,164.68L325.91,166.86L326.36,111.04L326.51,144.16L326.67,122.66L326.82,145.84L326.97,123.92L327.12,166.71L327.27,145.39L327.72,178.75L327.87,177.08L328.03,204.55L328.18,158.21L328.63,197.51L328.78,189.62L329.23,207.96L329.69,206.73L329.84,207.85L329.99,206.55L330.59,206.9L330.75,207.98L330.9,205.87L331.2,209.38L331.35,214.27L332.1,205.09L332.26,205.48L332.41,207.24L332.56,204.86L333.16,205.58L333.31,206.92L333.92,204.97L334.07,206.94L334.98,204.93L335.13,205.51L335.43,204.94L335.58,205.29L335.73,206.37L336.49,204.98L336.64,205.41L337.24,205.83L337.39,204.61L337.85,201.17L338,268.3L338.3,289.82L338.75,101.21L338.9,221.15L339.96,99.41L340.11,156.23L340.26,102.86L340.42,226.35L340.57,139.05L340.72,210.91L341.32,79.85L341.77,99.49L341.93,109.13L343.74,208.96L343.89,207.98L344.19,207.54L344.34,208.21L344.49,206.33L344.8,208.17L344.95,206.37L345.1,276.83L345.4,277.13L345.55,155.5L345.85,171.47L346.01,222.8L346.16,186.8L346.76,205.55L346.91,205.57L347.06,205.16L347.37,205.78L347.67,205.46L347.82,205.64L348.42,205.35L348.57,204.86L349.48,205.4L349.63,204.78L350.09,205.08L350.39,204.36L350.54,204.89L350.69,214.78L350.99,214.04L351.14,185.42L351.9,273.69L352.05,154.69L352.2,235.09L352.8,200.5L352.96,177.82L353.11,176.85L353.26,151.72L353.41,172.74L353.86,132.44L354.01,152.64L354.16,125.82L354.47,119.21L354.77,183.94L354.92,96.86L355.07,47.69L355.52,114.66L355.68,100.79L355.98,54.9L356.28,116.71L356.43,87.71L356.58,104.35L357.04,213.56L357.64,212.74L357.79,211.77L357.94,224.3L358.24,195.33L358.4,198.58L358.7,186.74L358.85,191.71L359,194.21L359.91,194.21L360.06,196.09L360.66,216.34L360.96,214.66L361.11,209.51L361.42,209.49L361.57,214.66L361.87,213.07L362.02,205.5L362.17,206.02L362.47,205.06L362.63,205.56L362.78,205.37L363.23,204.71L363.53,205.18L363.68,205.64L363.99,205.12L364.14,274.46L365.04,204.55L365.19,204.98L365.35,205.39L365.65,204.16L365.8,204.56L365.95,214.93L366.1,209.54L366.25,214.52L366.4,278.94L366.55,152.53L367.16,180.4L367.31,203.57L367.76,161.91L367.91,164.96L368.07,222.27L368.67,119.16L368.97,150.52L369.12,190.19L369.27,82.99L369.88,109.66L370.03,85.22L370.33,76.07L370.78,77.22L370.94,87.99L372.14,190.27L372.3,213.14L372.45,211.28L372.6,221.7L373.2,210.41L373.35,286.25L373.81,168.66L374.11,182.82L374.26,233.45L374.41,193.75L374.86,229.6L375.02,273.07L375.32,198.88L375.92,209.75L376.07,205.81L376.38,207.67L376.53,205.19L376.68,205.72L376.83,204.2L376.98,183.15L377.58,206.68L377.74,206.26L377.89,205.18L378.49,205.55L378.64,215.14L379.4,204.62L379.55,205.28L379.7,205.19L380.46,203.27L380.61,182.9L381.51,267.48L381.66,220.69L382.12,164.67L382.57,175.77L382.72,217L383.02,118.37L383.33,185.42L383.48,188.26L383.93,101.32L384.08,237.15L384.23,181.81L384.38,231.29L384.53,187.96L385.14,200.04L385.29,194.42L385.44,194.21L385.59,184.21L386.05,179.84L386.2,184.97L386.35,186.75L386.95,229.2L387.25,224.49L387.41,215.88L387.56,226.54L387.71,204.54L387.86,216.33L388.01,279.71L388.61,207.29L388.92,207.42L389.07,207.34L389.37,206.01L389.52,183.01L389.67,207.08L390.28,205.85L390.43,205.51L391.79,205.15L391.94,205.61L392.54,205.91L392.69,205.34L392.84,205.86L393,205.65L393.15,274.43L393.6,204.63L394.05,205.42L394.2,204.46L394.96,204.96L395.11,204.55L395.26,214.5L395.72,200.1L395.87,196.07L396.47,205.69L396.62,180.11L396.77,195.97L397.08,211.63L397.23,177.33L397.38,177.27L397.53,178.46L398.28,156.47L398.44,160.05L398.74,211.17L399.19,119.33L399.34,252.53L399.64,120.84L400.1,207.38L400.25,259.62L400.4,145.06L401,190.78L401.15,212.49L401.31,210.11L401.46,217.58L401.61,214.17L401.76,223.23L401.91,282.63L402.21,281.93L402.36,160.71L402.51,244.15L403.12,213.63L403.27,206.69L403.42,216.46L404.03,214.99L404.18,210.18L404.48,219.42L405.08,218.4L405.23,215.28L405.84,201.65L405.99,202.09L406.14,182.88L406.29,205.03L406.9,204.7L407.05,204.58L407.35,205.18L407.8,204.9L407.95,204.54L408.26,203.76L408.41,181.71L409.31,181.71L409.47,191.71L409.77,194.21L409.92,184.21L410.37,181.71L410.52,182.59L410.67,199.38L410.82,199.72L410.98,265.13L411.43,137.47L411.73,159.66L411.88,168.75L412.49,203.38L412.64,111.39L413.09,243.24L413.24,93.87L413.39,202.32L413.54,98.88L413.7,171.28L413.85,97.55L414.3,163.09L414.45,117.14L415.21,251.68L415.36,141.28L415.51,237.95L416.11,215.94L416.26,208.14L416.72,217.33L416.87,201.17L417.02,204.36L417.32,207.88L417.78,206.56L417.93,206.61L418.38,207.07L419.14,204.41L419.29,204.89L419.44,204.69L419.59,214.25L420.04,209.58L420.19,215.07L420.34,209.61L420.49,214.88L421.1,204.06L421.4,204.56L421.55,204.61L421.85,205L422.61,203.85L422.76,204.04L422.91,204.4L423.06,204.78L423.21,203.93L423.37,213.78L424.12,203L424.42,203.64L424.57,203.82L424.88,197.76L425.03,272.28L425.33,276.18L425.93,180.01L426.09,184.88L426.24,181.73L426.39,254.65L427.29,104.59L427.45,157.31L427.75,226.42L428.2,85.31L428.35,184.31L428.5,105.32L428.65,184.9L429.11,139.64L429.26,173.71L429.41,148L429.86,178.13L430.01,181.84L430.32,198.52L430.47,283.55L430.92,212.06L431.37,216.31L431.52,195.3L432.58,216.79L432.73,210.17L433.19,216.5L433.34,199.79L434.09,204.79L434.24,204.73L434.4,205.13L434.55,203.88L434.7,181.91L435,181.71" style="vector-effect: non-scaling-stroke; fill: none; stroke: rgb(0, 128, 0); stroke-opacity: 1; stroke-width: 2px; opacity: 1;"/></g><g class="points"/><g class="text"/></g></g></g><g class="overplot"/><path class="xlines-above crisp" d="M0,0" style="fill: none;"/><path class="ylines-above crisp" d="M0,0" style="fill: none;"/><g class="overlines-above"/><g class="xaxislayer-above"><g class="xtick"><text text-anchor="middle" x="0" y="433" transform="translate(152.53,0)" style="font-family: 'Open Sans', verdana, arial, sans-serif; font-size: 12px; fill: rgb(42, 63, 95); fill-opacity: 1; white-space: pre; opacity: 1;"><tspan class="line" dy="0em" x="0" y="433">Nov 6</tspan><tspan class="line" dy="1.3em" x="0" y="433">2022</tspan></text></g><g class="xtick"><text text-anchor="middle" x="0" y="433" style="font-family: 'Open Sans', verdana, arial, sans-serif; font-size: 12px; fill: rgb(42, 63, 95); fill-opacity: 1; white-space: pre; opacity: 1;" transform="translate(254.06,0)">Nov 13</text></g><g class="xtick"><text text-anchor="middle" x="0" y="433" style="font-family: 'Open Sans', verdana, arial, sans-serif; font-size: 12px; fill: rgb(42, 63, 95); fill-opacity: 1; white-space: pre; opacity: 1;" transform="translate(355.6,0)">Nov 20</text></g><g class="xtick"><text text-anchor="middle" x="0" y="433" style="font-family: 'Open Sans', verdana, arial, sans-serif; font-size: 12px; fill: rgb(42, 63, 95); fill-opacity: 1; white-space: pre; opacity: 1;" transform="translate(457.13,0)">Nov 27</text></g></g><g class="yaxislayer-above"><g class="ytick"><text text-anchor="end" x="79" y="4.199999999999999" transform="translate(0,368.51)" style="font-family: 'Open Sans', verdana, arial, sans-serif; font-size: 12px; fill: rgb(42, 63, 95); fill-opacity: 1; white-space: pre; opacity: 1;">−50</text></g><g class="ytick"><text text-anchor="end" x="79" y="4.199999999999999" style="font-family: 'Open Sans', verdana, arial, sans-serif; font-size: 12px; fill: rgb(42, 63, 95); fill-opacity: 1; white-space: pre; opacity: 1;" transform="translate(0,281.71000000000004)">0</text></g><g class="ytick"><text text-anchor="end" x="79" y="4.199999999999999" style="font-family: 'Open Sans', verdana, arial, sans-serif; font-size: 12px; fill: rgb(42, 63, 95); fill-opacity: 1; white-space: pre; opacity: 1;" transform="translate(0,194.9)">50</text></g><g class="ytick"><text text-anchor="end" x="79" y="4.199999999999999" style="font-family: 'Open Sans', verdana, arial, sans-serif; font-size: 12px; fill: rgb(42, 63, 95); fill-opacity: 1; white-space: pre; opacity: 1;" transform="translate(0,108.09)">100</text></g></g><g class="overaxes-above"/></g></g><g class="polarlayer"/><g class="smithlayer"/><g class="ternarylayer"/><g class="geolayer"/><g class="funnelarealayer"/><g class="pielayer"/><g class="iciclelayer"/><g class="treemaplayer"/><g class="sunburstlayer"/><g class="glimages"/><defs id="topdefs-8fd3d2"><g class="clips"/><clipPath id="legend8fd3d2"><rect width="164" height="67" x="0" y="0"/></clipPath></defs><g class="layer-above"><g class="imagelayer"/><g class="shapelayer"/></g><g class="infolayer"><g class="legend" pointer-events="all" transform="translate(523.7,100)"><rect class="bg" shape-rendering="crispEdges" width="164" height="67" x="0" y="0" style="stroke: rgb(68, 68, 68); stroke-opacity: 1; fill: rgb(255, 255, 255); fill-opacity: 1; stroke-width: 0px;"/><g class="scrollbox" transform="" clip-path="url(#legend8fd3d2)"><g class="groups"><g class="traces" transform="translate(0,14.5)" style="opacity: 1;"><text class="legendtext" text-anchor="start" x="40" y="4.680000000000001" style="font-family: 'Open Sans', verdana, arial, sans-serif; font-size: 12px; fill: rgb(42, 63, 95); fill-opacity: 1; white-space: pre;">BESS</text><g class="layers" style="opacity: 1;"><g class="legendfill"/><g class="legendlines"><path class="js-line" d="M5,0h30" style="fill: none; stroke: rgb(0, 191, 255); stroke-opacity: 1; stroke-width: 2px;"/></g><g class="legendsymbols"><g class="legendpoints"/></g></g><rect class="legendtoggle" x="0" y="-9.5" width="158.71875" height="19" style="fill: rgb(0, 0, 0); fill-opacity: 0;"/></g><g class="traces" transform="translate(0,33.5)" style="opacity: 1;"><text class="legendtext" text-anchor="start" x="40" y="4.680000000000001" style="font-family: 'Open Sans', verdana, arial, sans-serif; font-size: 12px; fill: rgb(42, 63, 95); fill-opacity: 1; white-space: pre;">Solar</text><g class="layers" style="opacity: 1;"><g class="legendfill"/><g class="legendlines"><path class="js-line" d="M5,0h30" style="fill: none; stroke: rgb(255, 0, 0); stroke-opacity: 1; stroke-width: 2px;"/></g><g class="legendsymbols"><g class="legendpoints"/></g></g><rect class="legendtoggle" x="0" y="-9.5" width="158.71875" height="19" style="fill: rgb(0, 0, 0); fill-opacity: 0;"/></g><g class="traces" transform="translate(0,52.5)" style="opacity: 1;"><text class="legendtext" text-anchor="start" x="40" y="4.680000000000001" style="font-family: 'Open Sans', verdana, arial, sans-serif; font-size: 12px; fill: rgb(42, 63, 95); fill-opacity: 1; white-space: pre;">Grid Meter (Net Load)</text><g class="layers" style="opacity: 1;"><g class="legendfill"/><g class="legendlines"><path class="js-line" d="M5,0h30" style="fill: none; stroke: rgb(0, 128, 0); stroke-opacity: 1; stroke-width: 2px;"/></g><g class="legendsymbols"><g class="legendpoints"/></g></g><rect class="legendtoggle" x="0" y="-9.5" width="158.71875" height="19" style="fill: rgb(0, 0, 0); fill-opacity: 0;"/></g></g></g><rect class="scrollbar" rx="20" ry="3" width="0" height="0" x="0" y="0" style="fill: rgb(128, 139, 164); fill-opacity: 1;"/></g><g class="g-gtitle"><text class="gtitle" x="297.5" y="50" text-anchor="middle" dy="0em" style="font-family: 'Open Sans', verdana, arial, sans-serif; font-size: 17px; fill: rgb(42, 63, 95); opacity: 1; font-weight: normal; white-space: pre;"><tspan class="line" dy="0em" x="297.5" y="50">Scenario 3</tspan><tspan class="line" dy="1.3em" x="297.5" y="50">Microgrid Output</tspan><tspan class="line" dy="2.6em" x="297.5" y="50">From: November 01, 2022 to November 30, 2022</tspan></text></g><g class="g-xtitle"><text class="xtitle" x="297.5" y="476.409375" text-anchor="middle" style="font-family: 'Open Sans', verdana, arial, sans-serif; font-size: 14px; fill: rgb(42, 63, 95); opacity: 1; font-weight: normal; white-space: pre;">Time</text></g><g class="g-ytitle"><text class="ytitle" transform="rotate(-90,32.840625,260)" x="32.840625" y="260" text-anchor="middle" style="font-family: 'Open Sans', verdana, arial, sans-serif; font-size: 14px; fill: rgb(42, 63, 95); opacity: 1; font-weight: normal; white-space: pre;">Demand (kW)</text></g></g></svg>