<svg class="main-svg" xmlns="http://www.w3.org/2000/svg" xmlns:xlink="http://www.w3.org/1999/xlink" width="700" height="500" style="" viewBox="0 0 700 500"><rect x="0" y="0" width="700" height="500" style="fill: rgb(255, 255, 255); fill-opacity: 1;"/><defs id="defs-a4a0ad"><g class="clips"><clipPath id="clipa4a0adxyplot" class="plotclip"><rect width="435" height="320"/></clipPath><clipPath class="axesclip" id="clipa4a0adx"><rect x="80" y="0" width="435" height="500"/></clipPath><clipPath class="axesclip" id="clipa4a0ady"><rect x="0" y="100" width="700" height="320"/></clipPath><clipPath class="axesclip" id="clipa4a0adxy"><rect x="80" y="100" width="435" height="320"/></clipPath></g><g class="gradients"/><g class="patterns"/></defs><g class="bglayer"/><g class="layer-below"><g class="imagelayer"/><g class="shapelayer"/></g><g class="cartesianlayer"><g class="subplot xy"><g class="layer-subplot"><g class="shapelayer"/><g class="imagelayer"/></g><g class="gridlayer"><g class="x"><path class="xgrid crisp" transform="translate(152.53,0)" d="M0,100v320" style="stroke: rgb(255, 255, 255); stroke-opacity: 1; stroke-width: 1px;"/><path class="xgrid crisp" transform="translate(254.06,0)" d="M0,100v320" style="stroke: rgb(255, 255, 255); stroke-opacity: 1; stroke-width: 1px;"/><path class="xgrid crisp" transform="translate(355.6,0)" d="M0,100v320" style="stroke: rgb(255, 255, 255); stroke-opacity: 1; stroke-width: 1px;"/><path class="xgrid crisp" transform="translate(457.13,0)" d="M0,100v320" style="stroke: rgb(255, 255, 255); stroke-opacity: 1; stroke-width: 1px;"/></g><g class="y"><path class="ygrid crisp" transform="translate(0,352.3)" d="M80,0h435" style="stroke: rgb(255, 255, 255); stroke-opacity: 1; stroke-width: 1px;"/><path class="ygrid crisp" transform="translate(0,189.82999999999998)" d="M80,0h435" style="stroke: rgb(255, 255, 255); stroke-opacity: 1; stroke-width: 1px;"/><path class="ygrid crisp" transform="translate(0,108.6)" d="M80,0h435" style="stroke: rgb(255, 255, 255); stroke-opacity: 1; stroke-width: 1px;"/></g></g><g class="zerolinelayer"><path class="yzl zl crisp" transform="translate(0,271.06)" d="M80,0h435" style="stroke: rgb(255, 255, 255); stroke-opacity: 1; stroke-width: 2px;"/></g><path class="xlines-below"/><path class="ylines-below"/><g class="overlines-below"/><g class="xaxislayer-below"/><g class="yaxislayer-below"/><g class="overaxes-below"/><g class="plot" transform="translate(80,100)" clip-path="url(#clipa4a0adxyplot)"><g class="scatterlayer mlayer"><g class="trace scatter trace353b94" style="stroke-miterlimit: 2; opacity: 1;"><g class="fills"/><g class="errorbars"/><g class="lines"><path class="js-line" d="M0,171.06L435,171.06" style="vector-effect: non-scaling-stroke; fill: none; stroke: rgb(0, 191, 255); stroke-opacity: 1; stroke-width: 2px; opacity: 1;"/></g><g class="points"/><g class="text"/></g><g class="trace scatter trace02290d" style="stroke-miterlimit: 2; opacity: 1;"><g class="fills"/><g class="errorbars"/><g class="lines"><path class="js-line" d="M0,171.26L4.23,170.91L4.38,169.02L4.99,143.69L5.14,130.06L6.65,42.93L6.8,40.52L7.55,28.42L7.86,29.99L8.01,29.73L8.16,28.58L8.31,29.25L8.46,34.38L8.91,49.73L9.07,58.59L11.33,171.27L11.48,171.26L18.89,170.75L19.04,167.55L21,96.26L21.15,93.58L21.3,103.14L21.46,89.27L21.61,63.84L21.76,64.64L21.91,70.83L22.06,81.53L22.21,45.32L22.36,54.02L22.51,41.62L22.82,59.71L22.97,16L23.12,20.53L23.27,75.46L23.42,27.9L24.02,74.79L24.18,88.2L25.69,171.28L25.84,171.26L25.99,171.26L33.24,171.03L33.39,169.65L34.15,138.49L34.3,122.25L36.11,23.98L36.26,21.11L36.72,16.08L36.87,17.2L37.02,33.38L37.17,16.1L37.77,21.98L37.92,22.37L38.08,19.62L38.23,31.54L40.04,171.28L40.34,171.27L40.49,171.26L47.9,170.87L48.05,168.14L48.5,148.08L48.65,135.76L50.31,39.01L50.47,37.16L51.52,19.43L51.67,48.83L51.83,19.6L52.28,24.88L52.43,58.76L52.73,58.33L53.34,135.85L53.49,122.15L53.64,126.44L54.85,171.27L55,171.26L62.4,170.74L62.55,168.69L62.86,161.49L63.01,145.56L64.82,31.56L64.97,32.08L65.88,16.56L66.03,16.38L66.18,17.01L66.33,22.16L67.39,70.22L67.54,82.56L69.35,171.27L69.5,171.26L76.3,170.58L76.45,168.24L76.91,152.8L77.06,140.1L79.02,30.2L79.17,27.69L79.78,23.73L79.93,24.16L80.08,25.26L81.29,72.99L81.44,83.45L83.1,171.28L83.25,171.27L83.4,171.26L90.66,171.15L90.81,169.94L91.71,138.05L91.87,124.2L92.17,134.3L92.32,128.31L92.47,97.38L92.62,76.56L93.07,104.2L93.23,137.48L93.98,82.26L94.13,94.46L94.28,101.85L94.43,104.47L94.58,122.98L94.89,119.29L95.49,157.66L95.64,156.63L95.79,153.5L96.1,147.37L96.85,170.64L97,171.1L98.21,171.26L98.36,171.26L105.61,170.89L105.77,169.23L106.97,149.94L107.28,150.31L107.43,148.29L107.73,158.43L107.88,127.08L108.18,31.11L108.49,136.73L108.64,106.89L109.24,142.02L109.39,136.25L109.54,87.44L109.85,106.12L110,143.22L111.96,171.26L112.11,171.26L119.82,170.8L119.97,167.82L120.42,156.63L120.57,129.4L120.72,140.86L121.03,128.54L121.18,84.5L121.48,70.74L121.63,74.92L121.78,112.94L122.84,16.11L122.99,19.49L123.14,70.2L123.29,16.13L123.75,27.64L123.9,70.07L124.2,84.29L124.35,36.05L124.65,56.21L124.8,66.59L126.62,171.27L126.77,171.26L126.92,171.26L134.32,170.85L134.47,168.96L134.93,156.41L135.08,138.15L137.04,24.53L137.19,21.25L137.8,16.27L138.25,16.55L138.4,19.39L139.46,77.15L139.61,89.84L141.12,171.27L141.27,171.26L148.83,170.63L148.98,168.15L149.43,154.68L149.58,137.58L151.25,26.51L151.55,31.25L151.7,26.05L151.85,26.45L152,32.89L152.15,60.04L152.3,22.82L152.61,46.19L152.76,27.91L152.91,22.75L153.06,34.83L153.21,29.32L153.36,35.02L155.02,163.46L155.17,170.84L156.08,171.26L156.23,171.26L163.33,170.83L163.48,169.07L163.94,158.92L164.09,142.15L166.05,29.2L166.2,25.95L166.81,19.2L167.11,19.64L167.26,23.48L167.87,45.17L168.02,53.57L170.13,171.27L170.28,171.26L170.43,171.26L177.84,170.81L177.99,168.2L178.44,156.26L178.59,140.71L180.71,26.9L180.86,25.82L181.62,16.11L181.77,17.07L181.92,21.53L182.97,80.95L183.13,93.98L184.64,171.27L184.79,171.26L192.34,170.86L192.49,169.52L192.95,159.6L193.1,142.14L195.21,27.92L195.36,25.4L195.82,21.59L196.12,21.82L196.27,24.2L197.33,72.3L197.48,83.74L199.14,171.27L199.29,171.26L206.85,170.91L207,169.99L207.6,146.04L207.75,133.33L209.72,28.31L209.87,26.18L210.47,21.51L210.63,21.67L210.78,23.81L211.53,53.23L211.68,62.73L213.5,171.27L213.65,171.26L213.8,171.26L221.35,170.95L221.5,170.01L222.11,146.14L222.26,133.3L224.22,22.36L224.37,19.1L224.68,16.01L225.13,17.05L225.28,18.63L226.19,60.33L226.34,70.72L228.15,171.27L228.3,171.26L235.86,170.97L236.01,169.9L236.61,146.26L236.76,133.39L238.73,26.53L238.88,25.57L239.03,29.6L239.18,21.25L239.48,24.25L239.64,22.72L240.39,47.43L240.54,61.65L241.15,102.02L241.3,130.01L242.51,171.28L242.66,171.27L250.36,171.02L250.51,170.41L251.12,148.25L251.27,135.65L253.23,34.29L253.38,32.22L253.84,33.83L253.99,20.65L254.14,26.8L254.29,33.19L254.74,44.86L254.9,52.39L257.01,171.28L257.31,171.26L257.46,171.27L264.87,171.06L265.02,170.33L265.62,149.14L265.77,137.19L267.89,24.77L268.04,23.84L268.34,21.02L268.8,23.01L268.95,26.66L269.85,73.32L270.01,85.26L271.52,171.28L271.67,171.27L271.82,171.26L279.37,171.11L279.52,170.65L280.13,149.91L280.28,137.14L282.24,30.68L282.39,29.07L283.15,25.24L283.3,26.28L283.45,29.8L284.51,86.51L284.66,98.74L286.17,171.28L286.32,171.27L294.03,170.64L294.18,168.6L294.63,148.98L294.78,136.03L296.6,32.6L296.75,39.33L297.2,104.44L297.5,46.04L297.66,16.23L297.81,19.32L297.96,38.91L298.41,99.7L298.86,87.26L299.02,98.22L300.38,171.27L300.53,171.27L308.38,171.13L308.53,170.08L309.74,123.98L309.89,101.81L310.95,45.29L311.1,37.67L312.16,28.32L312.31,31.02L312.46,35.72L313.52,89.29L313.67,101.38L315.03,171.28L315.18,171.27L315.33,171.26L322.89,170.95L323.04,169.38L323.95,135.49L324.1,115.36L324.4,103.03L324.55,79.33L325.15,54.14L325.31,48.83L325.76,41.45L325.91,46.14L326.06,37.14L326.67,31.05L326.82,31.73L326.97,37.47L327.87,167.1L328.03,97.21L328.18,104.51L329.54,171.28L329.69,171.27L329.84,171.27L337.54,170.58L337.7,167.95L338.15,153.02L338.3,141.55L340.72,34.03L340.87,41.35L341.17,34.11L341.47,39.67L341.62,42.02L341.93,51.09L342.08,60.34L344.04,171.3L344.19,171.29L344.34,171.28L352.05,170.79L352.2,168.74L352.65,153.41L352.8,141.24L354.77,35.32L354.92,33.66L355.22,26.91L355.37,43.57L355.52,70.74L355.83,27.91L356.13,59.11L356.28,71.07L356.43,45.07L356.73,90.98L356.88,72.81L357.04,88.95L358.4,171.27L358.7,171.06L358.85,171.06L366.55,170.9L366.71,169.14L367.16,154.5L367.31,142.89L368.67,57.5L368.82,59.5L368.97,164.48L369.88,34.57L370.03,34.04L370.33,36.56L370.48,38.62L371.69,106.65L371.84,119.1L373.2,171.29L373.35,171.28L381.06,170.72L381.21,168.4L381.66,154.28L381.81,144.2L383.78,41.36L383.93,39.81L384.08,44.99L384.23,171.06L385.89,171.06L386.05,167.79L386.2,107.61L386.8,157.94L386.95,164.58L387.56,171.29L387.71,171.28L387.86,171.28L395.56,170.85L395.72,167.45L396.02,141.74L396.32,155.63L396.47,159.69L397.23,99.82L397.38,120.03L397.53,123L397.83,123.13L398.74,29.74L398.89,112.8L399.49,57.93L399.64,61.7L399.8,83.88L399.95,72.13L400.1,120.05L400.7,155.65L401,150.11L401.15,158.55L402.36,171.26L402.51,171.26L410.37,171.06L410.52,170.22L412.18,60.41L412.34,53.77L412.49,68.26L412.79,47.64L412.94,164.6L413.39,36.73L413.7,38.58L413.85,41.72L414.3,54.49L414.45,61.7L416.57,171.28L416.72,171.27L416.87,171.26L424.42,171.23L424.57,170.84L425.48,153.7L425.63,145.89L427.6,41.82L427.75,39.12L427.9,38.18L428.2,39.21L428.35,40.72L429.11,70.29L429.26,78L431.07,171.27L431.22,171.26L435,171.06" style="vector-effect: non-scaling-stroke; fill: none; stroke: rgb(255, 0, 0); stroke-opacity: 1; stroke-width: 2px; opacity: 1;"/></g><g class="points"/><g class="text"/></g><g class="trace scatter trace5d391e" style="stroke-miterlimit: 2; opacity: 1;"><g class="fills"/><g class="errorbars"/><g class="lines"><path class="js-line" d="M0,197.42L0.3,194.69L0.76,196.33L0.91,195.87L1.21,196.35L1.36,194.41L1.81,193.76L2.12,196.71L2.27,195.1L2.42,193.8L2.72,195.68L3.02,194.1L3.17,203.6L3.32,207.12L3.48,205.45L3.63,196.58L3.78,194.19L3.93,258.66L4.08,275.2L4.23,212.03L4.38,203.14L4.53,208.65L4.84,201.54L4.99,256.08L5.14,260.17L5.29,243.21L6.35,102.78L6.5,93.11L6.65,87.2L6.8,153.62L6.95,157.5L7.1,87.25L7.4,65.59L7.71,98.93L7.86,103.78L8.01,104L8.16,172.16L8.31,200.67L8.61,119.5L8.76,116.47L9.07,206.65L9.52,152.35L9.67,162.64L9.82,163.81L9.97,181.53L10.73,214.16L11.03,198.86L11.18,201.78L11.79,198.3L12.09,198.58L12.24,199.86L12.84,193.34L13.15,195.26L13.3,196.06L13.75,196.21L14.05,193.42L14.2,196.24L14.35,197.08L14.51,193.26L14.81,195.89L14.96,194.25L15.11,193.52L15.26,196.02L15.86,194.77L16.02,195.17L16.47,193.1L16.77,193.63L16.92,193.6L17.07,193.04L17.22,193.41L17.38,195.07L17.68,193.04L18.13,193.14L18.28,194.98L18.43,193.41L18.58,258.13L18.89,195.18L19.19,275.08L19.49,195.66L19.64,205.03L20.1,212.64L20.85,164.96L21,146.49L21.3,155.89L21.61,120.37L21.76,186.85L22.06,201.28L22.21,104.31L22.66,58.53L22.82,108.74L22.97,73.69L23.27,135.17L23.57,101.9L23.72,111.33L24.48,178.11L24.63,187.84L25.53,220.2L25.69,207.84L25.99,209.2L26.14,205.46L26.44,206.94L26.59,207.96L27.5,204.06L27.65,203.51L28.41,204.01L28.56,203.3L29.16,193L29.46,193.8L29.61,193.55L29.92,193.69L30.07,203.03L30.22,205.04L30.37,205.02L30.52,196.04L31.28,192.96L31.43,193.13L31.58,193.38L31.88,192.88L32.03,193.06L32.18,258.25L33.09,192.89L33.24,194.05L33.39,193.62L33.54,198.71L33.85,213.34L34,203.69L34.15,192.67L35.51,105.06L35.66,82.38L36.11,68.79L36.26,72.83L36.41,140.62L36.56,164.88L36.87,104.6L37.02,128.34L37.17,105.96L37.62,93.96L37.77,80.8L37.92,81.34L38.08,66.43L39.13,174.48L39.28,252.65L40.19,195.75L40.34,195.25L40.49,197.31L40.8,194.84L40.95,195.14L41.1,195.36L42.31,193.02L42.46,193.29L42.61,193.42L43.36,192.83L43.52,193.21L43.67,193.45L44.42,193.24L44.57,193.62L44.72,193.89L44.87,193.51L45.03,192.58L45.78,193.2L45.93,192.58L46.39,193.07L46.69,192.52L46.84,192.69L47.29,260.04L47.44,208.89L47.59,192.4L48.2,198.7L48.35,206.77L48.8,175.28L48.95,227.82L49.86,120.04L50.01,108.63L50.77,72.55L50.92,128.03L51.83,51.93L51.98,59.52L52.88,242.93L53.03,209.96L53.19,160.25L53.49,155.6L54.85,289.97L55,280.49L55.15,212.25L55.3,196.68L55.9,207.25L56.06,205.34L56.21,205.02L56.36,207.72L56.51,213.3L56.81,204.36L56.96,204.58L57.11,204.06L58.32,204.09L58.47,204.39L58.62,203.65L59.23,204.2L59.38,204.08L59.68,203.46L59.83,203.8L59.98,268.09L60.14,275.48L60.29,209.64L60.74,192.87L61.04,193.3L61.19,257.82L61.34,274.17L61.5,209.2L62.1,195.32L62.25,267.99L62.4,286.56L62.55,219.35L62.7,200.88L62.86,205.6L63.01,192.26L63.16,177.29L63.31,174.77L63.46,240.46L63.61,245.66L63.76,151.28L64.06,166.52L64.82,68.07L64.97,70.26L65.12,59.34L65.27,122.92L65.42,134.28L65.57,127.92L65.73,61.24L65.88,50.62L66.33,62.26L66.48,76.7L66.78,88.78L66.93,84.74L67.09,164.74L67.24,197.36L67.69,136.43L67.84,147.28L69.2,302.34L69.35,224.55L69.96,206.46L70.11,206.47L70.26,206.91L70.56,207.75L70.86,203.78L71.01,204.1L71.17,205.65L71.77,193.51L72.07,194.34L72.22,194.25L72.83,193.38L72.98,193.88L73.13,193.98L73.73,193.91L73.89,202.99L74.04,205.7L74.19,205.13L74.34,195.5L74.94,193.58L75.09,203.05L75.85,205.41L76,204.82L76.15,204.83L76.3,213.36L76.45,269.06L76.91,187.67L77.06,165.86L78.87,61.05L79.02,55.01L79.63,48.29L79.78,115.07L80.08,53.18L80.38,139.46L80.53,158.67L80.68,173.06L80.84,122.06L80.99,117.17L82.8,210.78L82.95,209.45L83.25,211.82L83.4,208.39L83.56,210.27L83.86,208.15L84.01,199.92L84.46,195.74L84.91,195.86L85.07,196.02L85.22,196.93L85.37,194.08L85.52,194.3L85.67,194.38L85.82,194.07L85.97,195.72L86.58,193.86L86.73,194.56L86.88,194.66L87.03,195.03L87.18,194.1L87.33,194.42L87.48,194.02L87.79,196.83L87.94,194.57L88.09,194.15L88.54,195.74L88.69,194.07L88.84,203.77L88.99,205.76L89.15,205.68L89.3,196.91L89.6,194.03L90.05,194.22L90.2,203.36L90.35,272.19L90.81,208.65L90.96,198.98L91.11,196.86L91.26,208.19L91.41,214.32L91.56,195.81L91.71,248.27L92.02,161.33L92.32,256.23L92.47,231.01L92.62,212.41L92.92,136.81L93.38,182.97L93.53,159.93L93.68,168.99L93.83,168.77L93.98,135.52L95.19,186.19L95.34,168.28L95.94,201.01L96.25,199.29L96.4,203.15L96.85,208.08L97.46,207.32L97.61,205L97.76,205.07L97.91,207.85L98.21,206.69L98.97,218.6L99.12,212.39L100.02,205.75L100.18,204.95L100.78,193.3L101.08,193.43L101.23,193.32L101.38,193.45L101.54,259.15L101.69,274.71L101.84,209.45L102.9,193.38L103.05,193.85L103.8,193.47L103.95,258.58L104.86,193.37L105.01,193.47L105.31,194.3L105.46,193.06L105.61,198.39L106.22,270.31L106.37,211.27L106.52,187.43L106.82,232.87L106.97,226.36L107.13,230.31L107.28,228.45L107.43,208.71L107.73,304L108.03,143.93L108.18,75.73L109.09,179.94L109.24,167.97L109.39,163.57L109.54,127.51L109.85,156.58L110,270.87L110.15,291.71L110.45,230.51L110.6,227.32L110.9,233.72L111.21,226.31L111.36,221.55L112.87,205.06L113.02,205.29L113.32,205.08L113.62,205.61L113.77,204.86L114.53,193.6L114.68,193.75L114.83,193.43L115.74,193.48L115.89,258.27L116.49,193.13L116.8,193.98L116.95,193.81L117.25,194.05L117.55,193.01L117.7,193.53L117.85,193.96L118.61,193.02L118.76,193.5L119.36,193.27L119.52,202.26L119.67,204.21L119.82,269.16L120.57,155.53L120.72,175.08L120.88,174.41L121.48,109.33L121.63,129.98L121.78,165.53L122.84,57.88L122.99,72.36L123.14,125.4L123.59,53.28L123.75,66.39L124.2,122.55L124.5,95.93L124.65,104.94L124.95,116.61L125.11,134.02L125.56,230.12L125.71,254.42L125.86,263.32L126.01,208.99L126.31,194.84L126.77,195.38L126.92,196.37L127.52,194.8L127.67,195.12L127.83,195.37L129.64,193.55L129.79,193.73L130.7,192.83L130.85,193.04L131,193.68L132.36,192.65L132.51,192.99L133.11,192.63L133.27,257.37L133.42,273.5L133.57,208.78L133.72,192.18L133.87,256.9L134.32,203.48L134.47,201.33L134.78,199.68L134.93,255.46L135.08,253.53L135.23,175.22L135.83,110.48L135.98,165.63L136.14,172.02L137.04,88.18L137.19,77.95L137.5,59.08L137.65,66.72L137.8,137.47L137.95,151.72L138.4,148.48L138.55,90.04L138.7,78.76L139.01,97.27L139.16,94.52L139.31,97.78L140.97,206.14L141.27,204.63L141.42,206.4L142.18,204.23L142.33,204.8L143.09,204.87L143.24,203.37L143.54,203.6L143.84,202.86L143.99,203.21L144.14,203.47L144.9,202.55L145.05,203.17L145.96,202.28L146.11,202.81L146.26,202.23L146.41,192.39L146.56,191.72L146.86,192.69L147.17,192.22L147.32,192.41L147.62,191.33L148.22,191.71L148.37,191.54L148.53,191.12L148.68,191.76L148.83,191.62L148.98,188.81L149.28,183.85L149.43,241.9L150.19,119.14L150.34,191.3L151.25,61.13L151.4,135.45L151.7,49.17L152.3,57.56L152.45,127.47L152.91,49.03L153.36,79.23L153.51,98.54L153.81,209.25L154.27,195.08L154.42,182.67L154.57,167.01L154.87,188.68L155.02,198.62L155.17,215.52L155.78,206.28L155.93,206.22L156.23,217.96L156.53,206.16L156.68,206.7L156.84,206.23L157.14,217.86L157.44,206L157.59,206.25L157.74,205.17L158.04,204.41L158.2,204.79L158.35,195.72L159.1,192.61L159.25,192.93L160.16,192.42L160.31,192.81L161.37,192.05L161.52,192.72L161.67,191.92L161.82,201.11L162.12,204.04L162.28,193.93L162.43,192.25L162.58,192.32L162.73,256.86L163.63,199.35L163.79,198.53L164.39,138.16L164.54,190.77L164.69,205.17L165.6,67.38L165.75,60.47L166.2,49.32L166.51,56.49L166.66,76.27L166.81,77.23L166.96,88.2L167.26,93.98L167.41,78.9L169.23,184.47L169.38,253.51L169.68,277.09L169.83,210.95L170.28,194.67L170.59,195.52L170.74,194.24L170.89,194.07L171.04,194.72L171.19,196.23L171.49,194.12L172.1,194.28L172.25,193.69L173,192.51L173.15,192.57L173.3,192.93L174.51,192.18L174.66,192.35L175.42,192.58L175.57,192.1L176.02,192.46L176.33,191.87L176.48,192.84L176.63,192.23L176.78,201.22L177.08,204.18L177.23,203.67L177.38,194.01L177.69,192.27L177.84,200.47L177.99,200.34L178.14,197.41L178.44,190.06L178.59,174.47L179.2,130.12L179.35,183.57L180.41,69.93L180.56,65.42L181.31,52.43L181.46,116.52L181.77,134.83L181.92,73.26L182.07,54.54L182.52,81.48L182.67,94.49L182.82,104.23L182.97,182.13L183.13,210.29L183.43,155.13L183.58,169.81L183.73,172.67L184.64,207.15L184.94,205.9L185.09,206.15L185.24,206.38L185.54,206.05L185.69,196.77L185.85,194.33L186.45,194.41L186.6,203.94L187.21,205.33L187.36,204.94L187.51,204.5L187.66,204.75L187.81,195.39L188.57,192.27L188.72,192.65L189.62,193.17L189.77,193.3L190.68,192.39L190.83,192.97L191.89,191.93L192.04,192.08L192.19,200.92L192.49,211.48L192.65,210.69L192.8,201.48L192.95,201.12L193.1,186.08L193.25,184.02L193.4,166.37L193.85,141.05L194,207.9L195.06,75.43L195.21,78L195.36,77.48L195.52,79.91L195.67,83.1L196.12,80.46L196.27,75.53L197.33,107.09L197.48,179.13L197.78,139.35L197.93,219.16L198.08,247.24L198.39,192.28L198.84,196.84L198.99,207.06L199.44,208.15L199.6,206.35L200.05,207.99L200.2,197.5L200.65,194.56L201.11,194.87L201.26,193.68L202.16,193.05L202.32,193.39L204.58,193.09L204.73,192.54L205.03,193.3L205.34,192.86L205.49,192.41L205.64,192.86L205.79,202.07L205.94,204.17L206.09,203.99L206.24,269.02L206.39,275.46L206.55,208.26L207,191.2L207.3,200.09L207.45,195.64L207.75,232.41L208.81,117.6L208.96,121.11L209.72,83.39L210.02,88.82L210.17,146.82L210.78,167.05L210.93,106.69L211.08,92.15L211.68,101.94L211.83,113.56L213.8,226.06L213.95,228.82L214.1,229.63L214.25,228.2L214.4,219.29L214.7,216.9L214.86,207.27L215.16,204.58L215.31,215.15L215.61,216.41L215.91,215.35L216.06,214.84L216.37,215.23L216.67,214.72L216.82,205.59L217.27,202.69L217.73,202.9L217.88,202.91L218.03,203.4L218.33,202.5L218.48,193.48L218.78,193.42L218.94,193.19L219.09,192.65L219.54,193.46L219.69,193.04L219.84,192.59L220.6,192.92L220.75,192.66L220.9,257.62L221.35,192.33L221.5,191.62L221.81,197.96L221.96,194.22L222.11,179.24L222.86,123.89L223.01,187.57L223.17,197.86L223.32,130.8L224.37,53.4L224.53,124.67L224.68,138.64L224.83,73.18L224.98,63L225.28,80.27L225.43,75.72L225.58,86.43L227.4,197.22L227.55,199.96L227.7,203.38L228,197.53L228.15,196.14L228.61,197.08L228.76,194.62L229.06,194.87L229.21,196.42L230.12,208.44L230.27,205.43L230.42,204.74L230.87,204.6L231.02,205.28L231.93,193.07L232.08,192.62L232.99,193.27L233.14,192.83L233.44,193.29L233.74,192.59L233.89,192.33L234.2,193.2L234.5,192.51L234.65,192.22L234.8,191.87L235.1,192.51L235.25,192.95L236.01,190.85L236.16,187.62L236.31,188.01L236.46,187.71L236.61,178.97L236.76,166.78L236.92,223.19L237.22,149.71L237.52,223.34L237.67,224.11L237.97,211.44L238.12,132.68L238.88,67.96L239.18,70.37L239.33,71.17L239.79,77.79L239.94,82.34L242.05,221.83L242.35,208.01L242.51,206.15L243.11,208.94L243.26,205.67L243.41,207.51L244.02,207.42L244.17,206.17L245.07,203.35L245.68,203.79L245.83,203.63L246.59,193.08L246.74,193.33L246.89,193.08L247.19,192.76L247.49,193.55L247.64,193.37L247.79,193.31L248.4,192.48L248.55,192.87L248.7,202.4L248.85,204.59L249,204.3L249.15,195.35L249.46,192.61L250.06,192.65L250.21,191.97L250.82,270.21L250.97,209.16L251.12,180.5L253.23,67.21L253.38,66.33L253.69,51.59L254.14,55.57L254.29,128.26L254.44,157.07L254.74,88.19L254.9,94.98L255.5,208.14L255.65,244.52L255.95,190.7L256.26,254.48L256.41,228.19L256.56,218.57L256.71,219.35L256.86,216.82L257.01,219.1L257.16,215.99L257.46,218.39L257.62,207.23L258.07,204.72L258.52,205.19L258.67,204.3L259.58,192.95L259.73,193.18L259.88,193.56L260.18,192.98L260.49,193.2L260.64,192.85L262.75,193.44L262.9,192.64L263.66,193.58L263.81,193.16L264.11,192.6L264.26,202.35L264.41,204.79L264.57,204.66L264.72,269.46L265.77,160.79L265.93,213.68L266.98,75.42L267.13,79.35L267.44,81.86L268.04,59.2L268.19,59.35L268.34,121.88L268.65,83.94L268.95,169.06L269.1,97.12L269.25,87.62L269.7,89.05L269.85,99.86L271.06,226.5L271.21,217.64L271.37,210.54L271.82,204.36L272.12,205.08L272.27,204.91L272.42,206.6L272.88,204.39L273.03,197.81L273.18,194.72L273.33,194.89L273.48,261.74L273.63,276.41L273.78,210.22L273.93,192.93L274.54,193.28L274.69,193.69L275.44,193.24L275.6,193.39L275.75,193.37L276.05,193.02L276.5,193.54L276.65,193.28L278.32,192.68L278.47,193.28L278.77,192.45L279.22,193.06L279.37,201.68L279.52,203.64L279.68,191.55L280.28,170.05L280.43,227.15L280.58,247.29L280.73,158.91L281.79,78.52L281.94,65.69L282.09,57.55L282.7,61.6L282.85,119.03L283,131.82L283.15,75.91L283.3,73.59L283.45,86.52L283.6,96.12L283.75,169.98L283.91,190.84L284.06,136.71L284.21,126.78L284.36,120L284.66,136.33L284.81,152.38L285.57,208.01L285.87,207.3L286.02,198.43L286.17,196.23L286.32,206.53L286.63,207.3L286.78,208.28L287.38,208.55L287.53,206.42L287.68,206.86L288.14,172.31L288.44,193.35L288.59,193.65L289.95,193.15L290.1,192.53L291.16,192.91L291.31,192.92L291.46,193.29L291.76,192.59L291.91,192.55L292.06,192.57L292.22,192.01L292.82,192.27L292.97,192.17L293.12,192.67L293.27,192.62L293.42,201.45L293.73,203.9L293.88,203.49L294.03,267.63L294.18,291.48L294.48,220.27L294.63,216.99L294.94,191.69L295.09,177.13L295.39,150.03L295.54,196.99L295.69,202.43L295.84,131.89L296.3,179.05L296.6,69.77L296.75,78.52L296.9,126.9L297.05,119.79L297.2,131.97L297.35,183.82L297.81,65.98L298.11,114.47L298.26,130.29L298.56,116.37L298.71,123.21L298.86,134.98L300.07,216.35L300.38,206.96L300.53,205.28L300.68,207.65L301.28,205.53L301.43,205.98L301.58,216.17L301.89,205.71L302.04,206.69L302.19,205L302.49,205.36L302.64,204.77L302.79,204.28L303.7,202.96L303.85,193.8L304.61,193.55L304.76,192.96L305.66,193.28L305.81,192.93L305.97,192.38L306.27,192.51L306.42,257.25L307.33,191.33L307.48,191.65L307.78,192.35L308.23,192.11L308.38,256.7L308.53,271.65L308.69,202.15L309.44,162.05L309.59,224.67L309.74,248.68L309.89,161.19L310.05,116.68L310.5,151.9L310.65,133.85L310.8,118.19L311.41,71.13L311.56,132.95L311.71,167.28L312.01,79.46L312.16,81.95L312.46,87.02L312.61,86.15L312.76,161.4L313.07,128.26L313.82,224.32L313.97,175.86L314.12,169.29L314.28,179.41L314.43,193.39L314.58,197.49L314.73,260.48L314.88,277.97L315.03,275.73L315.18,210.71L316.09,194.41L316.24,194.32L317,218.08L317.15,217.84L317.3,216.46L318.36,192.31L318.51,192.31L319.41,192.24L319.56,192.71L319.72,193L320.02,192.56L320.17,192.23L320.32,193.26L320.92,192.82L321.08,192.41L321.98,192.09L322.13,257.04L322.28,272.72L322.43,208.05L322.59,191.51L323.19,196.59L323.34,196.19L323.49,196.78L323.64,185.33L324.4,147.46L324.55,188.68L324.7,194.93L325,183.76L325.15,115.03L325.76,84.34L326.06,88.2L326.21,76.3L326.36,69.37L326.67,79.93L326.82,71.38L326.97,86.5L327.87,191.98L328.03,139.19L329.39,196.63L329.69,194.48L329.84,196.33L329.99,194.51L330.59,194.64L330.75,197.24L330.9,194.08L331.2,202.85L331.35,203.87L331.5,203.38L331.65,194.98L332.1,192.95L332.26,193.31L332.41,194.96L332.56,192.73L333.16,193.41L333.31,194.66L333.92,192.83L334.07,194.67L334.98,192.79L335.13,193.34L335.43,192.81L335.58,193.13L335.73,194.14L336.49,192.85L336.64,193.25L337.24,193.64L337.39,192.5L337.85,189.28L338,187.11L338.9,118.94L339.06,184.48L340.11,64.54L340.26,72.26L340.87,158.45L341.02,104.26L341.17,74.92L341.32,75.75L341.47,88.05L343.74,197.29L344.04,196.32L344.19,195.43L344.34,198.39L344.49,194.73L344.8,198.19L344.95,194.73L345.25,278.22L345.7,194.97L345.85,195.13L346.61,192.79L347.06,193.01L347.21,193.21L347.97,193.46L348.12,193.27L348.57,192.73L348.88,193.22L349.03,193.34L349.78,192.31L349.93,192.81L350.09,192.94L350.99,191.48L351.14,172.2L352.05,272.72L352.2,204.88L354.01,83.75L354.16,74.9L354.62,62.8L354.77,125.46L354.92,148.12L355.07,61.9L355.22,68.03L355.52,108.32L355.68,95.34L355.83,66.31L355.98,54.74L356.13,94.65L356.28,110.24L356.43,83.1L356.73,130.53L356.88,177.3L357.04,220.18L357.19,157.66L357.64,203.49L357.79,212.29L358.09,229.1L358.24,196.21L358.4,216.86L358.55,173.4L358.7,171.06L358.85,180.42L359,182.76L359.91,182.76L360.06,175.17L360.51,205.67L360.81,203.99L360.96,203.62L361.42,203.3L361.57,204.47L361.87,201.85L362.02,193.33L362.17,193.82L362.47,192.92L362.63,193.38L362.78,193.21L363.23,192.59L363.53,193.03L363.68,193.46L363.99,192.97L364.14,257.86L365.04,192.44L365.19,192.84L365.35,193.23L365.65,192.08L365.8,192.45L365.95,202.16L366.1,203.94L366.25,194.12L366.4,256.82L366.86,188.04L367.01,195.86L367.91,128.65L368.07,185.46L368.22,192.21L368.37,119.11L368.82,81.3L368.97,165.7L369.27,66.56L369.73,69.85L369.88,81.51L370.03,80.78L370.18,84.62L370.33,74.56L370.78,84.99L370.94,85.71L371.69,139.71L371.84,156.08L372.6,218.32L373.05,217.35L373.2,208.73L373.66,286.58L373.96,216.95L374.11,216.79L374.56,207.03L374.71,207.18L374.86,219.14L375.17,288.3L375.47,221.26L375.62,206.42L375.92,204.8L376.22,205.7L376.38,197.93L376.98,172.41L377.13,193.14L377.43,192.99L377.58,194.43L378.34,193.13L378.49,193.38L378.64,202.35L379.1,204.61L379.25,195.17L379.4,192.51L380,192.95L380.15,193.1L380.46,191.24L380.61,172.18L381.66,258.13L381.81,182.7L382.12,142.52L382.57,145.33L382.72,200.56L382.87,198.79L383.02,107.09L383.17,90.52L383.33,155.28L383.48,176.15L383.93,79.22L384.08,149.25L384.23,273.35L385.14,194.46L385.29,185.1L386.05,169.32L386.2,146.85L387.1,230.76L387.41,223.31L387.56,210.12L387.71,207.2L387.86,207.6L388.01,262.86L388.16,276.79L388.31,212.49L388.61,195.01L389.07,195.05L389.22,194.46L389.37,193.81L389.52,172.28L389.67,194.8L390.28,193.66L390.43,193.34L391.79,193L391.94,193.44L392.54,193.71L392.69,193.18L392.84,193.67L393,193.47L393.15,257.83L393.3,274.13L393.45,209.39L393.6,192.58L394.05,193.25L394.51,192.74L394.66,192.67L395.11,192.44L395.26,201.76L395.41,203.91L395.72,199.99L395.87,196.21L396.62,165.17L396.77,177.09L397.08,207.95L397.23,165.6L397.38,175.43L397.53,170.43L398.59,85.27L398.74,147.21L398.89,241.43L399.19,108.82L399.49,186.47L399.64,117.8L399.8,121.13L399.95,172.94L400.25,249.85L400.7,190.5L400.85,197.18L401,194.73L401.15,205.01L401.46,209.23L401.61,216.2L401.76,214.96L401.91,279.73L402.06,297.67L402.21,285.73L402.36,221.09L402.97,204.35L403.12,204.8L403.27,204.5L403.42,206.34L403.57,204.14L403.87,204.25L404.03,204.47L404.18,204.74L404.33,203.68L404.48,212.78L404.63,214.32L405.08,213.92L405.23,207.57L405.99,191.32L406.14,172.17L406.29,192.89L406.9,192.58L407.05,192.47L407.35,193.03L407.8,192.77L407.95,192.43L408.26,191.71L408.41,171.06L409.31,171.06L409.47,180.42L410.07,182.76L410.22,173.4L410.37,171.06L410.52,171.89L410.67,187.61L410.82,187.92L410.98,249.13L411.88,108.68L412.03,174.09L412.49,191.35L412.79,83.92L412.94,231.96L414,70.51L414.15,75.68L414.3,81.66L414.75,110.92L414.9,189.98L415.21,230.86L415.51,185.92L415.66,199.18L415.81,207.46L416.11,220.33L416.42,208.86L416.57,206.39L416.72,207.96L417.02,205.8L417.17,196.75L417.32,196.51L417.47,194.24L418.08,193.94L418.23,194.52L418.38,194.8L419.14,192.31L419.44,192.57L419.59,201.52L419.74,204.35L420.34,204.18L420.49,203.86L420.65,203.62L420.8,194.59L421.1,191.98L421.7,192.27L421.85,192.86L422.61,191.78L422.76,191.96L422.91,192.3L423.06,192.66L423.21,191.86L423.37,201.08L423.52,203.6L423.67,194.31L423.82,191.8L424.12,190.99L424.57,191.76L424.73,188.72L424.88,186.09L425.03,255.82L425.33,260.21L425.93,164.4L426.09,167.61L426.24,169.8L426.39,239.32L426.54,236.79L426.69,154.65L427.6,68L427.75,139.46L428.05,156.12L428.2,93.62L428.35,81.03L428.65,98.92L428.81,96.25L428.96,99.28L430.62,288.89L430.77,226.23L430.92,207.83L431.22,209.62L431.37,206.9L431.52,174.73L431.98,203.88L432.13,205.89L432.58,206.28L432.88,205.75L433.04,196.68L433.79,192.12L433.94,192.32L434.09,192.66L434.4,192.98L434.55,191.81L435,171.06" style="vector-effect: non-scaling-stroke; fill: none; stroke: rgb(0, 128, 0); stroke-opacity: 1; stroke-width: 2px; opacity: 1;"/></g><g class="points"/><g class="text"/></g></g></g><g class="overplot"/><path class="xlines-above crisp" d="M0,0" style="fill: none;"/><path class="ylines-above crisp" d="M0,0" style="fill: none;"/><g class="overlines-above"/><g class="xaxislayer-above"><g class="xtick"><text text-anchor="middle" x="0" y="433" transform="translate(152.53,0)" style="font-family: 'Open Sans', verdana, arial, sans-serif; font-size: 12px; fill: rgb(42, 63, 95); fill-opacity: 1; white-space: pre; opacity: 1;"><tspan class="line" dy="0em" x="0" y="433">Nov 6</tspan><tspan class="line" dy="1.3em" x="0" y="433">2022</tspan></text></g><g class="xtick"><text text-anchor="middle" x="0" y="433" style="font-family: 'Open Sans', verdana, arial, sans-serif; font-size: 12px; fill: rgb(42, 63, 95); fill-opacity: 1; white-space: pre; opacity: 1;" transform="translate(254.06,0)">Nov 13</text></g><g class="xtick"><text text-anchor="middle" x="0" y="433" style="font-family: 'Open Sans', verdana, arial, sans-serif; font-size: 12px; fill: rgb(42, 63, 95); fill-opacity: 1; white-space: pre; opacity: 1;" transform="translate(355.6,0)">Nov 20</text></g><g class="xtick"><text text-anchor="middle" x="0" y="433" style="font-family: 'Open Sans', verdana, arial, sans-serif; font-size: 12px; fill: rgb(42, 63, 95); fill-opacity: 1; white-space: pre; opacity: 1;" transform="translate(457.13,0)">Nov 27</text></g></g><g class="yaxislayer-above"><g class="ytick"><text text-anchor="end" x="79" y="4.199999999999999" transform="translate(0,352.3)" style="font-family: 'Open Sans', verdana, arial, sans-serif; font-size: 12px; fill: rgb(42, 63, 95); fill-opacity: 1; white-space: pre; opacity: 1;">−50</text></g><g class="ytick"><text text-anchor="end" x="79" y="4.199999999999999" style="font-family: 'Open Sans', verdana, arial, sans-serif; font-size: 12px; fill: rgb(42, 63, 95); fill-opacity: 1; white-space: pre; opacity: 1;" transform="translate(0,271.06)">0</text></g><g class="ytick"><text text-anchor="end" x="79" y="4.199999999999999" style="font-family: 'Open Sans', verdana, arial, sans-serif; font-size: 12px; fill: rgb(42, 63, 95); fill-opacity: 1; white-space: pre; opacity: 1;" transform="translate(0,189.82999999999998)">50</text></g><g class="ytick"><text text-anchor="end" x="79" y="4.199999999999999" style="font-family: 'Open Sans', verdana, arial, sans-serif; font-size: 12px; fill: rgb(42, 63, 95); fill-opacity: 1; white-space: pre; opacity: 1;" transform="translate(0,108.6)">100</text></g></g><g class="overaxes-above"/></g></g><g class="polarlayer"/><g class="smithlayer"/><g class="ternarylayer"/><g class="geolayer"/><g class="funnelarealayer"/><g class="pielayer"/><g class="iciclelayer"/><g class="treemaplayer"/><g class="sunburstlayer"/><g class="glimages"/><defs id="topdefs-a4a0ad"><g class="clips"/><clipPath id="legenda4a0ad"><rect width="164" height="67" x="0" y="0"/></clipPath></defs><g class="layer-above"><g class="imagelayer"/><g class="shapelayer"/></g><g class="infolayer"><g class="legend" pointer-events="all" transform="translate(523.7,100)"><rect class="bg" shape-rendering="crispEdges" width="164" height="67" x="0" y="0" style="stroke: rgb(68, 68, 68); stroke-opacity: 1; fill: rgb(255, 255, 255); fill-opacity: 1; stroke-width: 0px;"/><g class="scrollbox" transform="" clip-path="url(#legenda4a0ad)"><g class="groups"><g class="traces" transform="translate(0,14.5)" style="opacity: 1;"><text class="legendtext" text-anchor="start" x="40" y="4.680000000000001" style="font-family: 'Open Sans', verdana, arial, sans-serif; font-size: 12px; fill: rgb(42, 63, 95); fill-opacity: 1; white-space: pre;">BESS</text><g class="layers" style="opacity: 1;"><g class="legendfill"/><g class="legendlines"><path class="js-line" d="M5,0h30" style="fill: none; stroke: rgb(0, 191, 255); stroke-opacity: 1; stroke-width: 2px;"/></g><g class="legendsymbols"><g class="legendpoints"/></g></g><rect class="legendtoggle" x="0" y="-9.5" width="158.71875" height="19" style="fill: rgb(0, 0, 0); fill-opacity: 0;"/></g><g class="traces" transform="translate(0,33.5)" style="opacity: 1;"><text class="legendtext" text-anchor="start" x="40" y="4.680000000000001" style="font-family: 'Open Sans', verdana, arial, sans-serif; font-size: 12px; fill: rgb(42, 63, 95); fill-opacity: 1; white-space: pre;">Solar</text><g class="layers" style="opacity: 1;"><g class="legendfill"/><g class="legendlines"><path class="js-line" d="M5,0h30" style="fill: none; stroke: rgb(255, 0, 0); stroke-opacity: 1; stroke-width: 2px;"/></g><g class="legendsymbols"><g class="legendpoints"/></g></g><rect class="legendtoggle" x="0" y="-9.5" width="158.71875" height="19" style="fill: rgb(0, 0, 0); fill-opacity: 0;"/></g><g class="traces" transform="translate(0,52.5)" style="opacity: 1;"><text class="legendtext" text-anchor="start" x="40" y="4.680000000000001" style="font-family: 'Open Sans', verdana, arial, sans-serif; font-size: 12px; fill: rgb(42, 63, 95); fill-opacity: 1; white-space: pre;">Grid Meter (Net Load)</text><g class="layers" style="opacity: 1;"><g class="legendfill"/><g class="legendlines"><path class="js-line" d="M5,0h30" style="fill: none; stroke: rgb(0, 128, 0); stroke-opacity: 1; stroke-width: 2px;"/></g><g class="legendsymbols"><g class="legendpoints"/></g></g><rect class="legendtoggle" x="0" y="-9.5" width="158.71875" height="19" style="fill: rgb(0, 0, 0); fill-opacity: 0;"/></g></g></g><rect class="scrollbar" rx="20" ry="3" width="0" height="0" x="0" y="0" style="fill: rgb(128, 139, 164); fill-opacity: 1;"/></g><g class="g-gtitle"><text class="gtitle" x="297.5" y="50" text-anchor="middle" dy="0em" style="font-family: 'Open Sans', verdana, arial, sans-serif; font-size: 17px; fill: rgb(42, 63, 95); opacity: 1; font-weight: normal; white-space: pre;"><tspan class="line" dy="0em" x="297.5" y="50">Scenario 2</tspan><tspan class="line" dy="1.3em" x="297.5" y="50">Microgrid Output</tspan><tspan class="line" dy="2.6em" x="297.5" y="50">From: November 01, 2022 to November 30, 2022</tspan></text></g><g class="g-xtitle"><text class="xtitle" x="297.5" y="476.409375" text-anchor="middle" style="font-family: 'Open Sans', verdana, arial, sans-serif; font-size: 14px; fill: rgb(42, 63, 95); opacity: 1; font-weight: normal; white-space: pre;">Time</text></g><g class="g-ytitle"><text class="ytitle" transform="rotate(-90,32.840625,260)" x="32.840625" y="260" text-anchor="middle" style="font-family: 'Open Sans', verdana, arial, sans-serif; font-size: 14px; fill: rgb(42, 63, 95); opacity: 1; font-weight: normal; white-space: pre;">Demand (kW)</text></g></g></svg>