<svg class="main-svg" xmlns="http://www.w3.org/2000/svg" xmlns:xlink="http://www.w3.org/1999/xlink" width="700" height="500" style="" viewBox="0 0 700 500"><rect x="0" y="0" width="700" height="500" style="fill: rgb(255, 255, 255); fill-opacity: 1;"/><defs id="defs-1b0dcd"><g class="clips"><clipPath id="clip1b0dcdxyplot" class="plotclip"><rect width="432" height="320"/></clipPath><clipPath class="axesclip" id="clip1b0dcdx"><rect x="80" y="0" width="432" height="500"/></clipPath><clipPath class="axesclip" id="clip1b0dcdy"><rect x="0" y="100" width="700" height="320"/></clipPath><clipPath class="axesclip" id="clip1b0dcdxy"><rect x="80" y="100" width="432" height="320"/></clipPath></g><g class="gradients"/><g class="patterns"/></defs><g class="bglayer"/><g class="layer-below"><g class="imagelayer"/><g class="shapelayer"/></g><g class="cartesianlayer"><g class="subplot xy"><g class="layer-subplot"><g class="shapelayer"/><g class="imagelayer"/></g><g class="gridlayer"><g class="x"><path class="xgrid crisp" transform="translate(152.03,0)" d="M0,100v320" style="stroke: rgb(255, 255, 255); stroke-opacity: 1; stroke-width: 1px;"/><path class="xgrid crisp" transform="translate(252.86,0)" d="M0,100v320" style="stroke: rgb(255, 255, 255); stroke-opacity: 1; stroke-width: 1px;"/><path class="xgrid crisp" transform="translate(353.7,0)" d="M0,100v320" style="stroke: rgb(255, 255, 255); stroke-opacity: 1; stroke-width: 1px;"/><path class="xgrid crisp" transform="translate(454.53,0)" d="M0,100v320" style="stroke: rgb(255, 255, 255); stroke-opacity: 1; stroke-width: 1px;"/></g><g class="y"><path class="ygrid crisp" transform="translate(0,365.48)" d="M80,0h432" style="stroke: rgb(255, 255, 255); stroke-opacity: 1; stroke-width: 1px;"/><path class="ygrid crisp" transform="translate(0,193.95)" d="M80,0h432" style="stroke: rgb(255, 255, 255); stroke-opacity: 1; stroke-width: 1px;"/><path class="ygrid crisp" transform="translate(0,108.19)" d="M80,0h432" style="stroke: rgb(255, 255, 255); stroke-opacity: 1; stroke-width: 1px;"/></g></g><g class="zerolinelayer"><path class="yzl zl crisp" transform="translate(0,279.72)" d="M80,0h432" style="stroke: rgb(255, 255, 255); stroke-opacity: 1; stroke-width: 2px;"/></g><path class="xlines-below"/><path class="ylines-below"/><g class="overlines-below"/><g class="xaxislayer-below"/><g class="yaxislayer-below"/><g class="overaxes-below"/><g class="plot" transform="translate(80,100)" clip-path="url(#clip1b0dcdxyplot)"><g class="scatterlayer mlayer"><g class="trace scatter trace2ea5ca" style="stroke-miterlimit: 2; opacity: 0.5;"><g class="fills"/><g class="errorbars"/><g class="lines"><path class="js-line" d="M0,181.53L0.3,179.72L0.9,179.83L1.05,180.41L1.95,179.72L2.1,180.88L3,179.72L3.15,179.72L3.9,179.72L4.05,247.01L4.35,254.18L4.5,148.05L4.95,193.21L5.1,208.79L6.15,131.39L6.3,158.19L6.45,121.48L6.9,188.29L7.05,147.59L7.2,170.31L7.35,90.71L7.8,160.31L7.95,179.72L9,179.72L9.15,189L10.05,179.72L10.2,179.72L10.35,179.72L10.5,182.08L10.95,181.58L11.1,183.97L11.25,180.92L11.4,183.25L11.85,182.14L12,180.81L12.15,183.08L12.6,180.37L12.75,179.77L13.5,179.72L13.65,180.48L14.25,180.87L14.56,179.72L14.71,180.19L15.61,179.72L15.76,179.72L18.46,179.72L18.61,246.98L19.36,179.85L19.51,180.29L19.66,179.85L20.26,179.72L20.41,174.24L21.01,161.91L21.16,170.63L21.31,148.54L21.46,139.39L21.61,143.08L21.76,187.47L22.06,177.71L22.21,179.21L22.36,107.6L23.41,179.72L23.56,179.72L24.76,179.72L24.91,185.66L25.06,183.5L25.21,189.02L25.66,184.28L25.81,189.26L25.96,181.91L26.41,189.94L26.56,182.23L26.71,189.02L27.46,181.54L27.61,187.02L28.06,181.44L28.36,181.53L28.51,183.2L29.41,179.72L29.56,179.72L31.96,179.72L32.11,246.09L32.26,148.44L32.41,282.45L32.86,179.01L33.01,183.89L33.16,181.2L33.46,182.9L33.61,193.46L34.96,144.2L35.11,143.28L36.16,115.61L36.31,173.49L36.46,181.45L37.06,179.72L37.21,179.72L39.01,179.72L39.16,236.72L39.46,241.49L39.61,155.72L40.06,194.05L40.21,184.52L41.11,179.72L41.26,179.72L46.97,179.72L47.12,245.99L47.27,147.96L47.87,178.44L48.02,197.06L48.62,173.54L48.77,214.06L49.67,127.47L49.82,149.66L50.12,182.73L50.27,82.05L50.57,88.55L50.72,203.84L50.87,54.22L51.47,186.68L51.62,179.72L52.37,179.72L52.52,201.48L53.42,179.72L53.57,179.72L53.87,186.53L54.32,181.85L54.47,248.95L54.92,150.08L55.22,170.86L55.37,204.41L55.82,181.81L56.12,187.25L56.27,191.17L57.02,181.52L57.17,186.9L57.32,181.51L57.47,187.08L57.92,181.66L58.07,187.21L58.22,181.58L58.82,181.65L58.97,186.94L59.12,181.51L59.57,186.47L59.72,242.37L60.62,179.72L60.77,179.72L60.92,246.22L61.07,148.32L61.52,198.27L61.67,179.04L61.82,183.49L61.97,242.76L62.87,164.86L63.02,162.58L63.17,212L63.47,127.95L63.77,175.1L63.92,165.08L64.67,83.72L64.82,144.53L65.12,163.18L65.27,148.98L65.42,91.27L66.02,98.21L66.17,141.86L66.32,104.33L66.62,179.72L66.77,179.72L67.97,179.72L68.12,188.28L68.27,184.28L68.42,189.03L68.57,251.17L69.02,160.25L69.47,202.16L69.62,186.42L69.92,182.16L70.07,190.26L70.22,182.35L70.52,181.65L70.67,188.5L70.82,181.9L70.97,179.72L75.93,179.72L76.08,241.86L76.23,146.96L76.83,152.23L76.98,171.83L77.73,118.98L77.88,138.23L78.03,114.54L78.33,111.03L79.23,179.72L79.38,179.72L81.93,179.72L82.08,184.29L82.83,180.61L82.98,182.38L83.88,180.15L84.03,180.72L84.18,182.32L84.48,180.14L84.63,180.82L84.78,179.96L85.68,179.72L85.83,179.72L87.03,179.72L87.18,181.02L87.78,179.72L88.08,179.8L88.23,179.72L89.73,179.81L89.88,247.7L90.18,282.51L90.33,109.4L90.63,125.33L90.78,234.1L90.93,134.07L91.53,150.32L91.68,251.94L91.98,266.28L92.13,70.94L92.43,98.37L92.58,236.48L92.73,108.3L93.33,112.41L93.48,178.94L93.63,133.76L94.23,162.92L94.38,175.52L94.68,165.86L94.83,181.81L95.28,179.72L95.43,179.72L96.48,189.54L96.63,182.93L96.78,189.23L97.08,179.93L97.23,180.03L97.38,181.97L97.68,179.79L97.98,180.41L98.13,183.06L99.03,179.72L99.18,179.89L100.38,179.72L100.53,179.72L100.84,179.72L100.99,246.69L101.14,148.17L101.74,179.61L101.89,183.47L102.79,179.72L102.94,179.72L103.24,179.72L103.39,247.9L104.29,179.72L104.44,179.72L104.74,179.72L104.89,182L105.04,183.66L105.34,179.72L105.49,243.11L105.94,148.1L106.39,193.88L106.54,172.1L106.84,179.73L106.99,253.21L107.44,78.53L107.89,168.09L108.04,177.07L108.34,179.72L108.64,177.82L108.79,135.81L109.69,225.33L109.84,169.02L109.99,194.46L110.59,189.64L110.74,182.17L110.89,189.54L111.49,187.2L111.64,182.71L111.79,187.26L112.39,187.12L112.54,182.58L112.69,187.13L113.14,181.46L113.29,179.82L114.94,179.72L115.09,179.72L115.24,246.7L115.84,179.72L115.99,179.72L118.99,179.72L119.14,243.59L119.74,163.92L120.04,173L120.19,172.57L120.64,128.5L120.94,166.03L121.09,162.04L121.24,105.93L121.84,109.2L121.99,118.4L122.14,110.5L122.29,165.32L122.74,71.46L123.04,117.34L123.19,140.34L123.34,149.46L123.49,104.5L124.24,166.18L124.39,148.49L125.14,245.91L125.29,150.66L125.44,213.41L126.04,183.63L126.19,180.95L127.09,179.72L127.24,179.72L132.35,179.72L132.5,245.64L133.1,245.67L133.4,179.72L133.55,179.72L134,179.72L134.15,219.59L135.05,129.81L135.2,195.52L136.1,119.12L136.25,127.57L136.7,113.66L136.85,128.67L137,170.45L137.3,172.44L137.75,91.45L137.9,157.65L138.8,179.72L138.95,179.72L139.55,180.18L139.7,181.45L140.45,186.89L140.6,182.64L141.2,182.29L141.35,186.9L141.5,182.39L141.8,182.11L141.95,187.08L142.25,185.81L142.4,181.7L142.7,181.32L143.15,186.31L143.3,181.35L143.9,181.29L144.05,186.17L144.2,181.32L144.65,185.51L144.95,185.07L145.1,182.02L145.25,185.24L145.55,179.72L145.7,179.72L145.85,179.72L148.4,179.72L148.55,218.75L148.7,130.93L149.3,140.22L149.45,195.48L150.05,110.51L150.2,164.55L150.35,179.72L152.75,179.72L152.9,216.56L153.05,147.98L153.65,179.72L153.8,179.72L161.61,179.72L161.76,245.09L161.91,148.47L162.51,176.54L162.66,179.38L162.81,180.19L162.96,174.7L163.41,154.16L163.56,196.74L163.71,106.13L164.31,179.72L164.46,179.72L168.21,179.72L168.36,245L168.51,151.75L169.11,181.96L169.26,181.98L169.86,179.72L170.16,179.9L170.31,179.72L177.21,179.72L177.36,173.28L177.96,150.17L178.11,173.52L179.01,179.72L179.16,179.72L181.71,179.72L181.86,181.63L182.01,192.88L182.16,146.13L182.46,180.87L183.06,179.72L183.21,179.72L185.46,179.72L185.61,179.72L196.12,179.72L196.27,188.59L196.42,193.56L196.57,156.14L196.72,242.79L197.32,182.05L197.47,180.3L197.62,181.74L197.92,180.16L198.07,180.33L198.22,179.84L198.52,179.72L198.67,180.5L199.57,179.72L199.72,179.72L204.82,179.72L204.97,245.33L205.12,148.17L205.72,181.51L205.87,186.95L206.32,177.09L206.47,219.47L207.22,131.9L207.37,160.81L208.12,115.59L208.27,165.11L209.17,179.72L209.32,179.72L211.57,179.72L211.72,182.87L212.17,186.92L212.47,186.83L212.62,183.9L213.07,186.83L213.22,183.19L213.37,186.33L213.52,183.22L213.67,185.89L214.27,184.45L214.42,183.74L214.72,183.47L214.87,184.38L215.47,183.93L215.62,183.68L215.92,183.98L216.38,183.53L216.53,184.21L217.88,179.72L218.03,179.72L219.38,179.72L219.53,246.72L220.13,179.72L220.43,180.28L220.58,179.72L221.48,148.58L221.63,191.47L222.38,93.04L222.53,149.72L223.43,179.72L223.58,179.72L225.68,179.72L225.83,181.1L226.13,184.89L226.28,180.87L226.43,181.55L226.58,180.17L226.88,179.72L227.03,181.23L227.48,179.72L227.63,180.39L227.78,182.61L227.93,185.42L228.23,180.05L228.38,179.72L228.53,180.97L229.13,179.72L229.28,179.72L234.98,179.72L235.13,176.52L235.28,171.5L235.43,218.31L235.58,124.03L236.18,179.72L236.33,179.72L236.48,112.05L237.08,179.72L237.23,179.72L239.78,179.72L239.93,185.28L240.08,184.48L240.23,194.44L241.13,183.4L241.28,189.01L241.43,184.67L242.03,185.04L242.18,185.21L242.33,186.56L242.78,184.17L242.93,186.39L243.08,183.32L243.38,182.68L243.53,185.67L243.83,185.61L243.98,182.66L244.13,185.72L244.43,179.72L244.58,179.72L244.73,179.72L248.64,179.72L248.79,244.52L249.69,169.21L249.84,166.35L251.19,124.66L251.34,130.97L251.49,119.9L251.64,129.56L251.79,170.33L252.69,179.72L252.84,179.72L253.74,179.72L253.89,200.75L254.04,196.82L254.19,167.2L254.49,179.72L254.64,254.15L255.39,181.93L255.54,187.77L255.69,183.27L256.14,187.64L256.29,181.93L256.44,187.51L256.59,183.75L256.74,186.4L257.04,181.5L257.19,180.06L258.09,179.72L258.24,179.72L262.89,179.72L263.04,246.61L263.94,171.61L264.09,167.46L264.24,207.17L264.54,130.98L264.69,161.53L264.84,121.15L264.99,147.13L265.44,106.82L265.59,137.27L265.74,100.63L266.64,179.72L266.79,179.72L268.89,179.72L269.04,182.36L269.19,191.96L269.64,181.73L269.79,188.64L269.94,181.94L270.09,187.66L270.24,181.92L270.69,186.62L270.84,182.84L270.99,186.47L271.29,179.72L271.44,179.72L271.59,180.9L271.74,247.28L272.19,149.09L272.34,213.63L272.49,164.4L272.64,197.93L273.24,179.72L273.39,179.72L278.2,179.72L278.35,171.45L278.5,168.75L278.65,213.17L279.7,107.02L279.85,143.79L280.3,100.69L280.45,161.44L280.6,179.72L284.2,180.01L284.35,181.15L285.25,179.72L285.4,181.02L286.3,179.72L286.45,179.72L292,179.72L292.15,243.11L292.3,146.55L292.9,162.26L293.05,174.21L293.2,158.13L293.5,179.72L293.65,179.72L293.8,179.72L297.7,179.72L297.85,182.13L298.15,187.65L298.6,186.34L298.75,184.64L298.9,186.05L299.35,184.75L299.5,194.35L300.25,184.81L300.4,185.09L300.55,184.36L300.85,183.82L301,184.33L301.15,183.46L301.45,183.29L301.6,184.6L301.75,180.78L302.51,179.72L302.66,179.72L304.31,179.72L304.46,245.49L304.61,148.62L305.21,178.83L305.36,181.66L306.26,179.72L306.41,244.3L307.31,172.24L307.46,175.28L307.61,227.62L307.91,134.5L308.06,163.58L308.21,133.2L308.36,168.39L308.81,117.57L308.96,144.01L309.11,112.18L309.41,109.03L309.56,189.43L309.86,121.25L310.01,118.77L310.91,179.72L311.06,179.72L311.51,195.13L311.66,193.31L311.81,161.91L312.71,249.53L312.86,197.17L313.01,179.72L313.61,179.77L313.76,180.07L314.81,179.72L314.96,179.72L319.91,179.72L320.06,244.97L320.96,179.72L321.11,179.72L321.56,179.72L321.71,178.16L322.31,149.32L322.46,195.34L323.36,106.01L323.51,151.42L323.66,106.42L323.96,179.72L324.11,179.72L324.26,179.72L326.96,179.77L327.11,180.84L327.86,179.72L328.01,179.88L328.16,179.76L328.31,179.72L328.46,181.39L328.76,179.72L328.91,185.93L329.21,186.13L329.81,179.72L329.96,179.72L335.97,179.72L336.12,217.47L336.27,125.31L336.87,179.72L337.02,179.72L341.07,179.72L341.22,180.89L341.82,179.92L341.97,182.39L342.72,179.72L342.87,249.7L343.32,149L343.62,164.17L343.77,199.89L343.92,178.84L344.52,179.72L344.67,179.72L349.47,179.72L349.62,245.13L349.77,145.52L350.37,163.33L350.52,174.72L351.57,123.65L351.72,135.87L351.87,118.9L352.02,132.45L352.17,171.21L353.07,179.72L353.22,179.72L354.42,179.72L354.57,190.23L354.72,144.07L355.32,179.72L355.47,181.75L355.62,188.48L355.92,187.43L356.07,173.93L356.97,179.72L357.12,179.72L357.57,179.72L357.72,187.7L358.02,188.2L358.47,181.49L358.62,186.69L359.52,179.72L359.67,179.72L361.63,179.72L361.78,246.25L362.68,179.72L362.83,179.72L363.88,179.72L364.03,245.61L364.18,146.21L364.78,164.55L364.93,175L365.38,144.06L365.53,152.36L365.68,181.78L365.83,175.97L365.98,111.7L366.28,106.59L366.43,212.27L366.58,55.06L367.18,181.56L367.48,179.72L367.63,179.72L369.73,179.72L369.88,181.88L370.63,188.65L370.78,182.75L370.93,255.98L371.38,181.89L371.53,188.09L371.68,181.81L371.83,181.89L371.98,180.26L372.13,179.72L372.28,181.82L372.43,182.79L372.58,246.43L373.03,150.69L373.18,212.21L373.33,165.45L373.48,196.74L374.08,179.72L374.23,179.72L378.88,179.72L379.03,233.12L379.18,136.3L379.78,138.06L379.93,160L380.23,198.51L380.38,84.77L380.68,97.06L380.83,208.93L380.98,57.97L381.43,156.42L381.58,223.96L381.88,175.94L382.48,179.72L382.63,179.72L383.38,179.72L383.53,150.93L384.43,179.96L384.58,179.78L384.73,181.59L385.33,179.81L385.48,248.4L385.93,149.02L386.23,163.6L386.38,200.69L386.83,173.73L387.13,181.59L387.28,179.72L390.44,179.72L390.59,246.17L390.74,148.55L391.34,179.68L391.49,181.83L392.39,179.72L392.54,179.72L393.74,179.72L393.89,175.07L394.04,171.99L394.34,179.72L394.49,154.88L394.64,173.51L395.24,161.5L395.39,144.5L395.54,163.95L395.69,120.36L395.84,132.92L395.99,105.66L396.14,249.79L396.29,64.13L396.74,208.78L396.89,140.79L397.19,78.62L397.64,298.77L397.79,78.32L397.94,283.01L398.54,252.36L398.69,141.15L398.84,243.86L399.44,234.89L399.59,220.15L400.34,182.01L400.49,186.97L400.94,183.63L401.24,183.72L401.39,185.52L402.14,182.05L402.29,184.84L403.19,179.72L403.34,179.72L408.14,179.72L408.29,237.29L408.44,117.97L409.04,126.65L409.19,166.42L409.64,179.72L409.79,178.07L409.94,103.46L410.09,216.01L410.54,73.84L410.69,154.47L410.84,86.64L411.59,160.71L411.74,115.01L412.19,232.23L412.64,171.93L412.79,177.77L413.24,181.04L413.69,179.72L413.84,180.49L414.44,180.73L414.74,179.72L414.89,179.72L422.1,179.72L422.25,247.17L422.55,281.64L422.7,106.59L423,111.6L423.15,215.1L423.3,125.29L423.9,133.82L424.05,141.57L424.5,117.37L424.8,122.89L424.95,179.04L425.25,114.56L425.85,125.24L426,144.1L426.15,141.83L426.3,153.97L426.75,163.95L426.9,171.83L427.5,179.72L427.65,248.66L428.1,151.03L428.55,178.92L428.7,181.15L429.6,179.72L429.75,179.72L432,179.72" style="vector-effect: non-scaling-stroke; fill: none; stroke: rgb(0, 191, 255); stroke-opacity: 1; stroke-width: 2px; opacity: 1;"/></g><g class="points"/><g class="text"/></g><g class="trace scatter tracec3f06a" style="stroke-miterlimit: 2; opacity: 0.5;"><g class="fills"/><g class="errorbars"/><g class="lines"><path class="js-line" d="M0,179.92L4.2,179.55L4.35,177.56L4.95,150.81L5.1,136.42L6.6,44.43L6.75,41.89L7.5,29.11L7.8,30.77L7.95,30.5L8.1,29.28L8.25,29.99L8.4,35.4L8.85,51.61L9,60.96L11.25,179.93L11.4,179.92L18.76,179.38L18.91,176L20.86,100.73L21.01,97.91L21.16,108L21.31,93.36L21.46,66.51L21.61,67.35L21.76,73.88L21.91,85.18L22.06,46.95L22.21,56.14L22.36,43.05L22.66,62.15L22.81,16L22.96,20.78L23.11,78.78L23.26,28.57L23.86,78.07L24.01,92.22L25.51,179.94L25.66,179.93L25.81,179.92L33.01,179.68L33.16,178.23L33.91,145.32L34.06,128.17L35.86,24.42L36.01,21.39L36.46,16.08L36.61,17.26L36.76,34.35L36.91,16.11L37.51,22.32L37.66,22.72L37.81,19.82L37.96,32.41L39.91,179.94L40.06,179.93L40.21,179.92L47.57,179.51L47.72,176.63L48.17,155.45L48.32,142.44L50.12,38.34L50.27,33.85L51.17,19.62L51.32,50.66L51.47,19.8L51.92,25.37L52.07,61.15L52.37,60.69L52.97,142.53L53.12,128.07L53.27,132.6L54.32,179.94L54.47,179.93L54.62,179.92L61.97,179.37L62.12,177.21L62.42,169.61L62.57,152.79L64.37,32.42L64.52,32.97L65.42,16.59L65.57,16.4L65.72,17.06L65.87,22.5L66.92,73.25L67.07,86.28L68.87,179.93L69.02,179.92L75.78,179.2L75.93,176.73L76.38,160.43L76.53,147.02L78.63,28.34L78.78,25.77L79.23,24.16L79.53,25.77L79.68,29.75L80.28,50.59L80.43,57.61L82.53,179.94L82.68,179.93L82.83,179.92L90.03,179.8L90.18,178.52L91.08,144.86L91.23,130.23L91.53,140.9L91.68,134.58L91.83,101.92L91.98,79.94L92.43,109.12L92.58,144.26L93.33,85.96L93.48,98.84L93.63,106.64L93.78,109.4L93.93,128.94L94.23,125.05L94.83,165.56L94.98,164.47L95.13,161.17L95.43,154.7L96.18,179.26L96.33,179.76L97.53,179.92L97.68,179.92L104.89,179.53L105.04,177.77L106.24,157.41L106.54,157.8L106.69,155.67L106.99,166.38L107.14,133.28L107.44,31.96L107.74,143.46L107.89,111.96L108.49,149.05L108.64,142.96L108.79,91.43L109.09,111.15L109.24,150.32L111.19,179.93L111.34,179.93L118.99,179.43L119.14,176.29L119.59,164.47L119.74,135.73L119.89,147.82L120.19,134.82L120.34,88.32L120.64,73.79L120.79,78.21L120.94,118.35L121.99,16.11L122.14,19.69L122.29,73.22L122.44,16.14L122.89,28.29L123.04,73.08L123.34,88.1L123.49,37.17L123.79,58.46L123.94,69.42L125.74,179.93L125.89,179.92L126.04,179.92L133.4,179.48L133.55,177.5L134,164.24L134.15,144.97L136.1,25L136.25,21.54L136.85,16.29L137.3,16.58L137.45,19.58L138.5,80.56L138.65,93.96L140.15,179.93L140.3,179.92L147.8,179.25L147.95,176.64L148.4,162.42L148.55,144.36L150.2,27.1L150.5,32.11L150.65,26.61L150.8,27.04L150.95,33.83L151.1,62.5L151.25,23.2L151.55,47.88L151.7,28.58L151.85,23.12L152,35.88L152.15,30.07L152.3,36.08L153.95,171.68L154.1,179.48L155,179.92L155.15,179.92L162.21,179.47L162.36,177.61L162.81,166.89L162.96,149.19L164.91,29.94L165.06,26.5L165.66,19.38L165.96,19.85L166.11,23.9L166.71,46.79L166.86,55.66L168.96,179.93L169.11,179.92L169.26,179.92L176.61,179.44L176.76,176.69L177.21,164.08L177.36,147.66L179.46,27.51L179.61,26.37L180.36,16.11L180.51,17.13L180.66,21.84L181.71,84.57L181.86,98.33L183.36,179.93L183.51,179.92L191.02,179.5L191.17,178.08L191.62,167.62L191.77,149.18L194.02,25.93L194.17,24.48L194.47,21.9L194.77,22.15L194.92,24.65L195.82,64.93L195.97,75.44L197.77,179.93L197.92,179.92L205.42,179.55L205.57,178.58L206.17,153.29L206.32,139.87L208.27,29L208.42,26.74L209.02,21.81L209.17,21.98L209.32,24.24L210.07,55.31L210.22,65.33L212.17,179.93L212.32,179.92L212.47,179.92L219.83,179.59L219.98,178.61L220.58,153.4L220.73,139.85L222.68,22.71L222.83,19.27L223.13,16.01L223.58,17.11L223.73,18.77L224.63,62.81L224.78,73.77L226.43,179.94L226.58,179.93L226.73,179.92L234.23,179.61L234.38,178.49L234.98,153.53L235.13,139.94L237.08,27.12L237.23,26.1L237.38,30.36L237.53,21.54L237.83,24.71L237.98,23.09L238.73,49.18L238.88,64.2L239.48,106.82L239.63,136.37L240.83,179.94L240.98,179.93L248.64,179.67L248.79,179.03L249.39,155.63L249.54,142.33L251.49,35.31L251.64,33.13L252.09,34.83L252.24,20.91L252.39,27.4L252.54,34.14L252.99,46.48L253.14,54.42L255.24,179.94L255.54,179.93L255.69,179.93L263.04,179.71L263.19,178.94L263.79,156.57L263.94,143.95L266.04,25.26L266.19,24.28L266.49,21.3L266.94,23.4L267.09,27.25L267.99,76.52L268.14,89.12L269.64,179.94L269.79,179.93L269.94,179.93L277.6,179.27L277.75,176.07L278.05,171.21L278.2,157.38L280.3,31.5L280.45,29.8L281.2,25.76L281.35,26.85L281.5,30.58L282.55,90.44L282.7,103.36L284.05,179.95L284.2,179.94L284.35,179.93L292,179.27L292.15,177.11L292.6,156.4L292.75,142.73L294.55,33.52L294.7,40.63L295.15,109.37L295.45,47.71L295.6,16.24L295.75,19.51L295.9,40.19L296.35,104.37L296.8,91.23L296.95,102.81L298.3,179.93L298.45,179.93L306.26,179.79L306.41,178.68L307.61,130L307.76,106.59L308.66,54.88L308.81,46.93L309.86,29.17L310.01,29.01L310.76,52.94L310.91,60.98L312.86,179.94L313.01,179.93L313.16,179.92L320.51,179.91L320.66,179.59L321.26,170.87L321.41,160.07L323.36,47.65L323.51,42.87L323.66,47.82L323.96,37.52L324.11,33.47L324.26,33.83L324.41,31.89L324.56,32.61L324.71,38.67L325.61,175.53L325.76,101.74L325.91,109.45L327.26,179.94L327.41,179.93L327.56,179.93L335.22,179.2L335.37,176.43L335.82,160.66L335.97,148.55L338.37,35.04L338.52,42.77L338.82,35.12L339.12,40.99L339.27,43.47L339.57,53.04L339.72,62.81L341.82,179.96L341.97,179.95L349.62,179.42L349.77,177.26L350.22,161.07L350.37,148.22L352.32,36.39L352.47,34.65L352.77,27.52L352.92,45.11L353.37,28.58L353.82,74.14L353.97,46.7L355.77,179.73L355.92,179.94L356.97,179.72L357.12,179.72L364.03,179.54L364.18,177.68L364.63,162.23L364.78,149.97L366.13,59.82L366.28,61.93L366.43,172.77L367.33,35.61L367.48,35.05L367.78,37.71L367.93,39.88L369.13,111.71L369.28,124.85L370.63,179.95L370.78,179.94L378.43,179.35L378.58,176.9L379.03,161.99L379.18,151.35L381.13,42.78L381.28,41.14L381.43,46.6L381.58,179.72L383.23,179.72L383.38,176.25L383.53,112.72L384.13,165.86L384.28,172.87L384.88,179.95L385.18,179.94L385.33,179.94L392.84,179.49L392.99,175.9L393.29,148.75L393.59,163.42L393.74,167.71L394.49,104.5L394.64,125.83L394.79,128.96L395.09,129.11L395.99,30.51L396.14,118.2L396.74,60.27L396.89,64.25L397.04,87.66L397.19,75.26L397.34,125.86L397.94,163.44L398.24,157.59L398.39,166.5L399.59,179.93L399.74,179.93L407.54,179.72L407.69,178.82L409.49,55.88L409.64,71.17L409.94,49.4L410.09,172.89L410.54,37.88L410.99,43.15L411.14,45.3L412.04,93.41L412.19,105.12L413.69,179.94L413.84,179.93L413.99,179.92L421.5,179.89L421.65,179.48L422.7,153.13L422.85,141.76L424.8,40.41L424.95,39.42L425.1,39.5L425.25,40.51L425.7,50.47L425.85,56.34L427.05,146.64L427.2,157.5L428.1,179.93L428.25,179.92L428.4,179.92L432,179.72" style="vector-effect: non-scaling-stroke; fill: none; stroke: rgb(255, 0, 0); stroke-opacity: 1; stroke-width: 2px; opacity: 1;"/></g><g class="points"/><g class="text"/></g><g class="trace scatter trace8eabe5" style="stroke-miterlimit: 2; opacity: 0.5;"><g class="fills"/><g class="errorbars"/><g class="lines"><path class="js-line" d="M0,205.72L0.15,204.59L0.6,205.69L0.75,205.97L1.05,205.67L1.2,206.03L1.35,204.31L1.8,203.67L2.1,205.63L2.25,204.8L2.4,203.72L2.7,205.4L3,204.04L3.15,204.19L3.3,205.34L3.45,203.65L3.75,204.13L3.9,272.2L4.2,273.59L4.35,156.26L4.8,221.82L4.95,243.63L5.25,230.55L5.4,149.02L5.55,189.31L6,138.81L6.15,163.89L6.3,129.15L6.6,120.28L6.75,218.84L7.05,191.97L7.2,95.59L7.5,91.33L7.65,159.26L7.8,103.38L7.95,84.2L8.85,181.49L9,202.46L9.15,207.8L9.3,147.38L9.75,159.7L9.9,178.41L10.8,209.21L11.1,207.88L11.25,209.33L11.7,206.55L12,207.67L12.15,206.75L12.3,207.89L12.45,205.91L12.6,206.97L12.75,203.18L13.65,205.5L13.8,203.98L13.95,203.32L14.1,205.68L14.25,206.03L14.41,202.9L15.01,203.43L15.16,205.48L16.21,203.07L16.36,202.98L16.96,202.92L17.26,205.06L17.41,203.32L18.01,203.02L18.16,204.96L18.31,203.31L18.46,271.64L18.91,275.25L19.21,201.65L19.36,205.55L19.51,205.13L21.01,162.28L21.16,162.91L21.31,164.5L21.46,141.82L21.61,208.32L22.06,179.85L22.21,118.16L22.36,159.61L22.51,104.45L22.66,110.41L22.81,54.68L22.96,56.41L23.11,117.12L23.26,76.74L23.71,111.48L23.86,129.27L25.36,214.57L25.51,209.47L25.66,212.41L25.96,213.84L26.11,207.75L26.26,214.69L27.01,207.47L27.16,213.18L27.91,207.16L28.06,212.16L28.66,202.54L28.96,202.87L29.11,203.07L29.86,203.59L30.01,203.24L31.81,202.94L31.96,271.77L32.11,153.44L32.26,302.76L32.71,184.23L32.86,203.46L33.01,199.81L33.31,206.3L33.46,209.53L33.76,210.88L33.91,202.53L35.11,141.98L35.26,140.85L36.01,123.31L36.16,189.45L36.91,71.46L37.36,73.61L37.51,69.59L37.81,66.77L37.96,82.17L38.11,93.12L39.31,264.74L39.46,160.11L39.61,229.79L40.21,202.62L40.36,205.57L40.51,204.57L41.11,205.12L41.26,205.36L42.01,202.89L42.16,203.18L42.31,203.31L43.06,202.7L43.22,203.09L43.37,203.35L44.12,203.13L44.27,203.53L44.42,203.82L44.57,203.41L44.72,202.43L45.47,203.09L45.62,202.43L46.07,202.95L46.37,202.37L46.52,202.55L46.82,202.32L46.97,271.19L47.12,153.38L47.72,186.28L47.87,210.17L48.47,184.16L48.62,245.81L49.52,136.66L49.67,153.7L49.82,125.91L50.12,86.4L50.57,225.44L50.72,57.42L50.87,189.96L51.32,92.5L51.47,46.97L52.37,168.71L52.52,209.12L52.67,131.91L53.27,168.94L53.42,183.94L54.32,278.56L54.62,274.6L54.77,154.83L54.92,236.4L55.52,210.4L55.67,207.51L56.12,216.77L56.42,212.31L56.57,207.35L57.02,212.65L57.17,207.23L57.32,212.49L57.47,207.27L57.77,207.24L57.92,212.64L58.22,212.26L58.37,207.32L58.52,212.9L59.12,212.5L59.27,207.16L59.42,212.28L59.57,275.41L59.87,199.29L60.47,202.94L60.62,203.19L60.77,271.31L60.92,153.46L61.37,218.83L61.52,183.93L61.82,268.39L61.97,226.26L62.12,199.27L62.42,193.94L62.57,178.44L62.87,163.9L63.02,233.07L63.92,106.97L64.07,146.5L64.52,92.73L64.67,145.4L64.82,151.73L64.97,160.74L65.12,148.23L65.27,94.5L65.57,91.86L66.02,139.36L66.17,99.32L66.47,91.42L66.77,195.12L66.92,134.96L67.07,128.61L68.42,278.51L68.72,277.31L68.87,164.76L69.02,236.99L69.62,210.39L69.77,207.79L69.92,213.76L70.37,207.22L70.52,212.66L70.67,207.44L70.82,208.2L70.97,203.55L71.72,204.2L71.87,203.74L72.03,203.67L72.33,203.27L72.78,203.96L72.93,203.82L73.08,204L73.83,203.04L74.13,203.67L74.28,203.82L74.88,203.13L75.18,203.38L75.33,203.63L75.78,202.14L75.93,268.35L76.08,152.35L76.68,166.91L76.83,174.68L77.88,116.86L78.03,137.26L79.08,50.09L79.23,120.59L79.53,55.25L79.83,133.99L79.98,154.28L80.13,159.6L80.28,103.28L80.43,88.23L80.73,110.17L80.88,122.71L82.23,208.16L82.53,207.64L82.68,206.66L83.13,207.82L83.28,205.72L83.43,206.49L83.58,206.7L83.88,205.34L84.03,205.88L84.18,206.81L84.78,203.76L85.08,204.33L85.23,204L85.38,205.43L85.83,204.01L85.98,203.78L86.43,205.02L86.73,204.37L86.88,203.95L87.18,205.61L87.63,204.56L87.78,204.3L87.93,205.41L88.08,203.92L88.38,203.99L88.53,203.91L88.83,205.39L89.28,204.24L89.43,204.17L89.58,203.93L89.73,274.03L90.03,304L90.18,116.6L90.48,129.07L90.63,251.07L90.78,146.29L91.38,147.34L91.53,277.37L91.83,301.86L91.98,55.84L92.28,86.37L92.43,224.72L92.73,236.53L92.88,125.22L93.18,153.76L93.33,187.27L93.48,136.52L94.08,181.57L94.23,177L95.28,198.98L95.43,181.98L96.33,213.19L96.48,208.91L96.63,215.18L97.08,205.52L97.23,205.88L97.38,206.03L97.53,204.43L97.98,206.92L98.43,205.9L98.58,204.76L99.03,204.16L99.18,205.39L99.33,203.94L100.08,203.19L100.23,203.62L100.53,203.21L100.68,203.35L100.84,272.72L100.99,153.56L101.59,184.41L101.74,203.99L101.89,200.19L102.49,203.77L102.64,203.48L103.09,203.37L103.24,272.11L104.14,203.26L104.29,203.37L104.74,202.93L105.04,207.99L105.19,202.12L105.34,269.89L105.79,150.04L105.94,220.95L106.09,170.04L106.84,271.02L106.99,221.87L107.14,249.75L107.59,109.4L107.89,162.41L108.04,173.23L108.34,189.08L108.64,173.7L108.79,167.76L108.94,138.61L109.09,174.29L109.24,245.33L109.54,250.59L109.69,176.97L110.14,203.87L110.29,206.89L111.04,215.52L111.19,208.97L111.34,213.83L111.79,208.47L111.94,212.99L112.09,208.49L112.69,208.37L112.84,212.94L112.99,208.03L113.74,203.51L113.89,203.66L114.04,203.33L114.64,203.53L114.79,203.74L114.94,203.38L115.09,271.78L115.69,203.01L115.99,203.91L116.14,203.73L116.44,203.98L116.74,202.89L116.89,203.43L117.04,203.88L117.79,202.89L117.94,203.41L118.84,202.36L118.99,270.94L119.74,176.64L119.89,178.03L120.04,177.62L120.49,135.48L120.79,138.96L120.94,175.2L121.39,104.9L121.99,109.18L122.14,122.49L122.29,121.2L122.44,153.01L122.59,72.9L123.04,162.31L123.19,114.3L123.34,146.4L123.64,107.88L123.79,152.08L123.94,116.01L124.39,172.94L124.54,166.13L124.99,262.89L125.14,153.57L125.29,234.47L125.44,171.13L125.59,218.59L126.19,203.68L126.34,205.33L127.24,204.92L127.39,205.14L129.19,202.83L129.34,202.99L129.49,203.3L130.1,203.59L130.4,202.93L130.55,203.58L131.45,202.5L131.6,202.86L132.2,202.48L132.35,270.83L132.8,201.94L133.25,202.65L133.4,201.59L133.85,197.58L134,256.47L134.9,137.48L135.05,223.88L135.95,123.72L136.1,128.09L136.55,115.28L136.7,125.72L136.85,182.95L137.6,89.15L137.75,158.17L138.05,89.45L138.5,115.32L138.65,126.97L140,212.45L140.15,209.32L140.6,212.2L140.75,208.33L140.9,212.07L141.05,208.37L141.65,208.13L141.8,212.68L141.95,207.89L142.1,212.77L142.55,207.52L142.7,211.81L142.85,207.03L143,211.8L143.6,211.74L143.75,207.31L144.2,211.7L144.35,206.88L144.5,211.18L144.65,207.21L144.8,211.26L145.25,207.1L145.4,200.91L145.85,202.55L146.3,202.25L146.45,201.83L146.6,201.11L146.75,202.15L147.2,201.52L147.35,201.34L147.5,200.89L147.65,201.57L147.8,201.42L147.95,198.45L148.25,193.21L148.4,254.5L149.15,135.42L149.3,228.23L150.2,66.46L150.35,129.76L151.25,47.52L151.4,121.34L151.55,158.35L151.85,48.41L152,61.48L152.15,56.98L152.3,70.41L152.45,90.8L152.75,207.68L153.2,169.6L153.35,194.2L153.5,168.66L153.95,196.45L154.1,204.42L155,205.5L155.15,204.37L156.05,204.43L156.2,205.01L156.95,202.57L157.4,202.66L157.55,202.52L158.15,202.8L158.3,202.63L158.46,202.26L159.06,202.26L159.21,202.68L159.36,202.6L160.11,201.74L160.26,201.87L160.41,202.58L161.16,201.39L161.31,202.09L161.46,202.16L161.61,270.29L161.76,153.21L162.36,183.41L162.51,200.41L163.26,163.9L163.41,226.07L164.31,72.97L164.46,70.25L165.66,43.59L165.81,45.3L166.11,48.93L166.26,52.76L167.31,114.04L167.46,127.33L168.21,264.29L168.36,153.43L168.51,233.85L169.11,202.39L169.26,202.64L170.01,205.53L170.16,204.48L170.61,204.65L171.36,202.52L171.51,203.04L172.26,202.56L172.41,202.29L173.16,202.26L173.31,202L174.21,202.43L174.36,201.92L174.81,202.3L175.11,201.68L175.26,202.7L176.16,201.47L176.31,202.2L176.46,202.1L176.61,200.89L177.36,177.39L177.51,170.14L177.96,153.68L178.11,186.75L179.01,66L179.16,60.58L180.06,42.11L180.21,109.78L180.51,129.11L180.66,64.1L180.81,54.22L181.11,69.47L181.26,75.25L181.56,96.8L181.71,179.05L181.86,206.86L182.01,142.61L182.31,170.6L182.46,177.78L183.36,205.41L183.51,204.64L184.26,204.31L184.41,204.38L184.56,204.28L184.71,205.45L185.76,202.5L185.91,203.54L186.66,202.62L186.96,202.74L187.11,202.64L187.87,202.22L188.02,202.98L188.47,203.2L188.77,202.13L188.92,202.34L189.07,202.67L189.97,202.17L190.12,202.65L191.32,196.85L191.47,197L191.62,199.1L192.97,99.35L193.27,100.25L193.42,95.38L194.47,60.62L194.62,61.65L194.77,59.35L194.92,64.03L195.07,76.52L195.97,112.17L196.12,188.23L196.42,149.54L196.57,254.07L196.72,197.06L196.87,185.99L197.47,206.34L197.77,205.13L197.92,205.59L198.07,205.9L198.22,204.5L198.37,205.1L198.52,204.96L198.67,205.57L199.12,204.58L199.27,204.52L199.42,205.17L199.72,204.85L199.87,203.59L200.77,202.93L200.92,203.28L202.72,203.08L202.87,202.78L203.32,202.39L203.62,203.19L203.77,202.93L204.67,202.13L204.82,270.78L204.97,153.24L205.57,184.03L205.72,202.87L206.02,203.59L206.17,188.47L206.32,247.12L206.47,143.91L206.77,151.09L206.92,178.11L207.67,122.73L207.82,148.18L208.57,70.65L208.72,129.41L208.87,150.34L209.02,146.76L209.17,77.11L209.32,65.01L209.77,78.3L209.92,89.8L210.67,134.25L210.82,145.79L212.02,211.94L212.17,210.29L212.32,212.25L212.47,208.89L212.62,212.66L213.07,209.83L213.22,212.29L213.37,208.86L213.97,209.73L214.12,210.82L214.87,209.33L215.02,210.1L215.92,209.32L216.08,209.7L216.83,208.54L216.98,202.46L217.13,203.5L217.73,202.58L217.88,202.67L218.03,203.36L218.33,202.44L218.63,202.83L218.78,202.26L219.08,202.78L219.23,202.51L219.38,271.1L219.98,201.42L220.28,205.83L220.43,203.59L221.33,157.07L221.48,218.4L222.83,53.02L222.98,120.85L223.13,133.13L223.28,64.01L223.43,43.39L223.88,51.88L224.03,65.66L226.13,208.65L226.28,209.22L227.18,204.21L227.33,205.01L227.48,204.85L227.63,205.81L228.08,210.3L228.23,204.24L228.53,205.57L228.68,203.34L228.83,202.92L229.28,202.77L229.43,203.48L230.33,202.94L230.48,202.47L231.38,203.16L231.53,202.7L231.83,203.19L232.13,202.44L232.28,202.16L232.58,203.08L232.88,202.35L233.03,202.05L233.18,201.68L233.48,202.36L233.63,202.82L234.38,200.6L234.53,197.19L234.68,197.6L234.83,197.29L234.98,188.06L235.13,178.39L235.28,242.96L235.43,138.8L236.03,201.14L236.18,190.54L237.08,67.5L237.23,68.39L238.13,81.23L238.28,86.04L240.38,220.92L240.53,215.36L240.68,211.63L240.98,210.3L241.13,213.46L241.28,209.54L241.43,214.76L242.03,211.17L242.18,210.82L242.48,212L242.63,210.14L243.08,211.81L243.23,208.78L243.38,210.84L243.53,208.56L243.68,211.37L244.13,208.09L244.28,206.87L245.19,202.96L245.34,203.42L245.49,202.62L246.09,203.2L246.24,203.12L247.29,202.45L247.44,202.88L248.49,201.79L248.64,269.75L249.54,178.57L249.69,174.81L251.04,132.58L251.19,132.87L251.79,69.28L251.94,53.58L252.09,63.48L252.39,57.78L252.54,134.52L252.69,155.06L252.84,88.24L252.99,79.86L253.59,124.35L253.74,194.16L254.04,161.64L254.49,265.31L254.64,224.32L254.79,212.28L255.09,212.62L255.54,207.57L255.69,213.77L256.44,207.84L256.59,213.57L257.49,203.71L257.64,205.18L258.39,202.85L258.54,202.92L259.14,203.25L259.44,202.81L259.59,202.9L260.34,203.86L260.49,203.39L260.64,203.44L261.09,202.49L261.24,203.11L261.39,203.44L262.29,202.45L262.44,202.87L262.59,202.97L262.74,202.83L262.89,271.25L263.79,181.1L263.94,176.97L264.09,236.97L264.39,140.2L264.54,166.34L264.69,129.09L264.84,158.54L265.29,111.44L265.44,139.84L265.59,105.75L265.74,135.75L266.04,51.78L266.19,49.26L266.34,49.42L266.49,115.44L266.79,65.5L267.24,143.08L267.39,84.07L267.54,71.49L267.84,90.65L267.99,104.54L269.34,218.11L269.64,213.2L269.79,207.67L270.09,207.45L270.54,213.51L270.69,208.84L270.84,212.27L271.14,206.36L271.29,204.69L271.44,204.87L271.59,274.26L272.04,153.62L272.49,218.73L272.64,184.95L273.39,203.61L273.54,203.12L274,203.59L274.3,202.94L274.45,202.97L274.6,203.45L275.2,202.89L275.35,202.99L276.1,202.94L276.25,202.39L276.55,203.17L276.7,202.74L276.85,202.29L277.3,202.93L277.45,202.16L277.6,201.76L277.75,198.87L278.05,195.49L278.2,182.28L278.35,177.03L278.5,237.55L279.55,109.24L279.7,148.38L280.75,51.8L280.9,122.31L281.05,138.28L281.2,69.37L281.35,54.57L281.65,63.54L281.8,141.52L282.1,175L282.25,113.07L282.4,108.51L283.75,206.14L284.2,205.99L284.35,205.85L284.5,204.66L285.1,204.98L285.25,205.39L285.4,205.64L285.55,204.37L285.85,205.36L286,203.43L286.15,181.02L286.6,203.56L286.9,203.05L287.05,203.04L287.95,203.03L288.1,202.37L289.15,202.78L289.3,202.79L289.45,203.18L289.75,202.44L289.9,202.4L290.05,202.42L290.2,201.82L290.65,202.59L290.8,202.1L290.95,202L291.25,202.48L291.55,201.61L291.7,202.03L291.85,201.6L292,269.32L292.15,152.61L292.6,213.74L292.75,176.15L292.9,191.78L293.05,166.93L293.2,173.85L293.35,148.09L293.65,198.01L293.8,126L293.95,93.87L294.25,163.44L294.55,60.42L294.7,69.65L295.3,193.18L295.45,162.14L295.6,61.77L295.75,51.61L295.9,79.41L296.05,119.96L296.65,119.31L297.1,159.82L297.25,168.57L298.3,212.78L298.45,210.02L299.05,211.83L299.2,210.61L299.35,211.53L299.65,219.29L299.8,209.88L299.95,211.99L300.55,210.66L300.7,209.95L301,209.5L301.15,209.99L301.3,209.23L301.45,210.18L301.6,208.5L301.75,202.66L301.9,203.73L302.51,203.46L302.66,202.83L303.56,203.17L303.71,202.8L303.86,202.21L304.16,202.36L304.31,270.71L304.46,153.31L305.06,184.39L305.21,202L305.36,199.5L305.66,202.18L305.96,201.69L306.11,201.94L306.26,270.13L306.71,193.55L306.86,192.55L307.16,181.09L307.31,177.67L307.46,240.75L307.76,157.8L307.91,167.51L308.06,133.43L308.51,166.64L308.66,126.86L308.81,158.39L308.96,113.61L309.26,111.65L309.41,210.16L309.71,124L309.86,116.77L310.01,121.87L310.16,75L310.31,66.28L310.46,75.24L310.61,147.28L310.91,109.82L311.51,217.12L311.66,153.73L312.56,273.66L312.71,222.77L312.86,204.15L313.16,205.92L313.31,206.69L314.06,204.27L314.21,204.38L314.36,204.38L314.81,204.66L315.71,202.53L315.86,202.57L316.01,202.68L316.16,202.14L316.31,202.15L316.46,202.04L317.81,202.41L317.96,202.06L318.11,203.15L318.71,202.68L318.86,202.26L319.46,201.87L319.61,201.77L319.76,201.91L319.91,270.49L320.81,199.41L320.96,194.32L321.26,194.52L321.41,192.31L321.56,180.04L321.86,173.6L322.01,160.6L322.31,216.36L322.61,199.65L322.76,194.41L323.51,104.1L323.66,151.45L324.56,59.65L324.71,68.2L325.61,177.1L325.91,142.02L326.06,148.9L326.96,205.65L327.26,203.89L327.41,204.44L327.56,205.55L327.71,204.25L328.16,204.94L328.31,204.61L328.61,203.59L329.06,211.88L329.21,207.41L329.81,202.82L329.96,203.21L330.11,204.94L330.26,202.59L330.86,203.31L331.01,204.63L331.62,202.7L331.77,204.64L332.67,202.66L332.82,203.23L333.12,202.67L333.27,203.01L333.42,204.08L334.17,202.71L334.32,203.14L334.92,203.55L335.07,202.34L335.52,198.94L335.67,196.66L335.82,185.26L335.97,242.23L336.57,122.28L336.72,183.99L336.87,188.5L337.77,67.25L337.92,65.52L338.67,155.56L338.82,80.54L338.97,66.73L339.42,73.78L339.57,83.31L341.37,206.64L341.67,205.58L341.82,205.24L342.12,204.04L342.42,205.86L342.57,204.08L343.02,273.99L343.17,153.82L343.32,235.67L343.47,169.6L343.62,220.31L344.22,201.27L344.37,203.27L345.72,203.16L345.87,202.8L346.17,202.59L346.62,203.23L346.77,202.75L347.07,203.13L347.22,202.51L347.37,202.14L347.67,202.81L348.12,202.62L348.27,202.51L348.42,202.87L348.57,201.27L348.72,180.91L348.87,202.53L349.17,202.5L349.32,202.56L349.47,270.59L349.62,153.02L350.07,215.83L350.22,177.99L350.37,188.4L350.52,163.52L350.67,172.44L350.82,150.09L350.97,160.97L351.12,138L351.27,149.84L351.42,128.57L351.57,141.11L352.02,117.97L352.17,73.92L352.32,131.57L352.62,34.96L352.77,58.59L352.92,70.68L353.52,54.43L353.82,103.15L353.97,74.5L355.32,198.54L355.47,206.49L355.62,207.53L355.77,179.5L355.92,205.53L356.52,179.72L356.67,179.72L357.42,179.72L357.57,181.58L358.17,213.83L358.47,212.31L358.62,207.18L358.92,207.16L359.07,212.27L359.37,210.7L359.52,203.22L359.67,203.74L359.97,202.79L360.13,203.28L360.28,203.1L360.73,202.45L361.03,202.9L361.18,203.36L361.48,202.84L361.63,271.35L362.53,202.28L362.68,202.71L362.83,203.12L363.13,201.9L363.43,202.66L363.58,202.07L363.73,201.58L363.88,270.25L364.03,153.18L364.63,178.24L364.78,189.14L365.23,152.75L365.38,160.7L365.53,209.92L366.13,110.51L366.28,158.07L366.43,141.5L366.58,195L366.73,75.15L366.88,178.25L367.03,87.2L367.18,58.67L367.78,63L367.93,66.94L369.13,146.61L369.28,163.89L370.48,213.78L370.63,208.08L370.78,283L371.38,213.64L371.53,207.26L371.68,208.33L371.83,205.84L371.98,204.79L372.28,206.14L372.43,276.5L372.88,154.6L373.33,217.25L373.48,186.09L374.08,203.44L374.23,201.94L374.38,181.14L374.98,204.39L375.13,203.97L375.28,202.91L375.88,203.27L376.03,202.86L376.18,202.53L377.53,202.98L377.68,202.48L377.83,201.02L377.98,180.9L378.88,264.45L379.03,149.62L379.18,218.26L379.63,149.19L379.78,168.7L379.93,135.2L380.23,94.41L380.68,233.35L380.83,65.03L381.58,221.23L381.73,181.08L381.88,183.49L382.18,179.72L382.33,179.72L382.48,179.72L383.23,179.72L383.38,177.87L383.68,162.47L383.83,178.57L383.98,183.69L384.73,205.83L385.03,205.48L385.18,205.55L385.63,274.23L385.78,154.42L385.93,235.69L386.08,169.97L386.23,221.57L386.83,186.99L386.98,199.27L387.28,204.42L387.88,203.14L388.03,203.06L388.63,203.42L388.78,203.2L388.94,202.72L390.14,203.58L390.29,203.37L390.44,271.32L390.59,153.46L391.19,184.65L391.34,203.17L391.49,200.08L392.09,202.37L392.24,202.68L392.84,201.89L392.99,197.9L393.29,183.6L393.44,188.6L393.59,198.41L393.74,203.41L393.89,178.14L394.04,174.04L394.19,180.33L394.34,193.96L394.94,157.81L395.24,166.17L395.39,156.24L395.84,113.7L395.99,203.88L396.44,81.39L396.59,269L396.74,142.22L396.89,216.2L397.49,298.8L397.64,73.81L397.79,283.93L397.94,96.94L398.09,288.01L398.54,143.78L398.69,258.58L398.84,163.23L399.29,270.58L399.44,245.61L399.59,192.09L400.34,213.04L400.49,207.76L400.64,213.01L401.24,210.98L401.39,209.46L401.54,211L401.69,208.5L401.84,210.63L401.99,207.78L402.14,210.35L402.44,204.7L402.59,202.45L402.74,203.71L402.89,202.41L403.04,202.6L403.19,201.1L403.34,180.88L403.49,202.76L403.79,202.09L403.94,202.41L404.69,202.38L404.84,202.14L404.99,202.63L405.29,202.16L405.44,201.51L406.34,179.72L406.49,179.72L407.54,179.72L407.69,180.59L408.14,262.14L408.29,149.46L408.44,217.46L408.59,136.01L409.04,166.91L409.19,196.2L409.49,188.24L409.64,201.13L410.24,220.74L410.39,87.99L410.54,180.32L410.69,92.94L411.29,100.81L411.44,161.32L411.59,115.92L411.74,164.4L411.89,132.4L412.04,237.44L412.49,169.55L412.79,186.64L412.94,193.44L413.24,205.71L413.84,205.55L413.99,204.43L414.14,204.04L414.29,204.37L414.44,205.57L415.19,203.86L415.34,204.47L415.49,204.78L415.64,203.98L415.79,204.06L415.94,203.46L416.69,201.99L416.84,202.51L417.75,201.74L417.9,202.08L418.2,201.8L418.65,202.34L418.8,202.11L418.95,202.73L419.4,201.79L419.55,202.21L419.7,201.59L420.15,202.51L420.3,201.67L420.45,201.52L420.75,201.79L421.05,201.15L421.2,200.75L421.65,201.57L421.8,198.35L421.95,195.58L422.1,269.2L422.4,303.93L422.55,117.88L422.85,124.32L423,240.8L423.15,130.8L423.75,170.39L423.9,142.29L424.65,117.31L424.8,203.16L425.1,114.58L425.7,121.8L425.85,140.39L426,127.19L426.15,148.37L426.3,144.1L426.45,157.48L426.6,157.78L426.75,165.45L426.9,166.51L427.05,176.63L427.35,196.32L427.5,270.46L427.8,274.82L427.95,155.78L428.4,219.46L428.55,181.92L429,204.48L429.45,204.23L429.6,204.54L430.8,201.94L430.95,202.16L431.1,202.52L431.25,202.46L431.4,202.86L431.55,201.62L432,179.72" style="vector-effect: non-scaling-stroke; fill: none; stroke: rgb(0, 128, 0); stroke-opacity: 1; stroke-width: 2px; opacity: 1;"/></g><g class="points"/><g class="text"/></g></g></g><g class="overplot"/><path class="xlines-above crisp" d="M0,0" style="fill: none;"/><path class="ylines-above crisp" d="M0,0" style="fill: none;"/><g class="overlines-above"/><g class="xaxislayer-above"><g class="xtick"><text text-anchor="middle" x="0" y="433" transform="translate(152.03,0)" style="font-family: 'Open Sans', verdana, arial, sans-serif; font-size: 12px; fill: rgb(42, 63, 95); fill-opacity: 1; white-space: pre; opacity: 1;"><tspan class="line" dy="0em" x="0" y="433">Nov 6</tspan><tspan class="line" dy="1.3em" x="0" y="433">2022</tspan></text></g><g class="xtick"><text text-anchor="middle" x="0" y="433" style="font-family: 'Open Sans', verdana, arial, sans-serif; font-size: 12px; fill: rgb(42, 63, 95); fill-opacity: 1; white-space: pre; opacity: 1;" transform="translate(252.86,0)">Nov 13</text></g><g class="xtick"><text text-anchor="middle" x="0" y="433" style="font-family: 'Open Sans', verdana, arial, sans-serif; font-size: 12px; fill: rgb(42, 63, 95); fill-opacity: 1; white-space: pre; opacity: 1;" transform="translate(353.7,0)">Nov 20</text></g><g class="xtick"><text text-anchor="middle" x="0" y="433" style="font-family: 'Open Sans', verdana, arial, sans-serif; font-size: 12px; fill: rgb(42, 63, 95); fill-opacity: 1; white-space: pre; opacity: 1;" transform="translate(454.53,0)">Nov 27</text></g></g><g class="yaxislayer-above"><g class="ytick"><text text-anchor="end" x="79" y="4.199999999999999" transform="translate(0,365.48)" style="font-family: 'Open Sans', verdana, arial, sans-serif; font-size: 12px; fill: rgb(42, 63, 95); fill-opacity: 1; white-space: pre; opacity: 1;">−50</text></g><g class="ytick"><text text-anchor="end" x="79" y="4.199999999999999" style="font-family: 'Open Sans', verdana, arial, sans-serif; font-size: 12px; fill: rgb(42, 63, 95); fill-opacity: 1; white-space: pre; opacity: 1;" transform="translate(0,279.72)">0</text></g><g class="ytick"><text text-anchor="end" x="79" y="4.199999999999999" style="font-family: 'Open Sans', verdana, arial, sans-serif; font-size: 12px; fill: rgb(42, 63, 95); fill-opacity: 1; white-space: pre; opacity: 1;" transform="translate(0,193.95)">50</text></g><g class="ytick"><text text-anchor="end" x="79" y="4.199999999999999" style="font-family: 'Open Sans', verdana, arial, sans-serif; font-size: 12px; fill: rgb(42, 63, 95); fill-opacity: 1; white-space: pre; opacity: 1;" transform="translate(0,108.19)">100</text></g></g><g class="overaxes-above"/></g></g><g class="polarlayer"/><g class="smithlayer"/><g class="ternarylayer"/><g class="geolayer"/><g class="funnelarealayer"/><g class="pielayer"/><g class="iciclelayer"/><g class="treemaplayer"/><g class="sunburstlayer"/><g class="glimages"/><defs id="topdefs-1b0dcd"><g class="clips"/><clipPath id="legend1b0dcd"><rect width="167" height="67" x="0" y="0"/></clipPath></defs><g class="layer-above"><g class="imagelayer"/><g class="shapelayer"/></g><g class="infolayer"><g class="legend" pointer-events="all" transform="translate(520.64,100)"><rect class="bg" shape-rendering="crispEdges" width="167" height="67" x="0" y="0" style="stroke: rgb(68, 68, 68); stroke-opacity: 1; fill: rgb(255, 255, 255); fill-opacity: 1; stroke-width: 0px;"/><g class="scrollbox" transform="" clip-path="url(#legend1b0dcd)"><g class="groups"><g class="traces" transform="translate(0,14.5)" style="opacity: 1;"><text class="legendtext" text-anchor="start" x="40" y="4.680000000000001" style="font-family: 'Open Sans', verdana, arial, sans-serif; font-size: 12px; fill: rgb(42, 63, 95); fill-opacity: 1; white-space: pre;">BESS</text><g class="layers" style="opacity: 0.5;"><g class="legendfill"/><g class="legendlines"><path class="js-line" d="M5,0h30" style="fill: none; stroke: rgb(0, 191, 255); stroke-opacity: 1; stroke-width: 2px;"/></g><g class="legendsymbols"><g class="legendpoints"/></g></g><rect class="legendtoggle" x="0" y="-9.5" width="161.890625" height="19" style="fill: rgb(0, 0, 0); fill-opacity: 0;"/></g><g class="traces" transform="translate(0,33.5)" style="opacity: 1;"><text class="legendtext" text-anchor="start" x="40" y="4.680000000000001" style="font-family: 'Open Sans', verdana, arial, sans-serif; font-size: 12px; fill: rgb(42, 63, 95); fill-opacity: 1; white-space: pre;">Solar</text><g class="layers" style="opacity: 0.5;"><g class="legendfill"/><g class="legendlines"><path class="js-line" d="M5,0h30" style="fill: none; stroke: rgb(255, 0, 0); stroke-opacity: 1; stroke-width: 2px;"/></g><g class="legendsymbols"><g class="legendpoints"/></g></g><rect class="legendtoggle" x="0" y="-9.5" width="161.890625" height="19" style="fill: rgb(0, 0, 0); fill-opacity: 0;"/></g><g class="traces" transform="translate(0,52.5)" style="opacity: 1;"><text class="legendtext" text-anchor="start" x="40" y="4.680000000000001" style="font-family: 'Open Sans', verdana, arial, sans-serif; font-size: 12px; fill: rgb(42, 63, 95); fill-opacity: 1; white-space: pre;">Grid Meter (Net Load)</text><g class="layers" style="opacity: 0.5;"><g class="legendfill"/><g class="legendlines"><path class="js-line" d="M5,0h30" style="fill: none; stroke: rgb(0, 128, 0); stroke-opacity: 1; stroke-width: 2px;"/></g><g class="legendsymbols"><g class="legendpoints"/></g></g><rect class="legendtoggle" x="0" y="-9.5" width="161.890625" height="19" style="fill: rgb(0, 0, 0); fill-opacity: 0;"/></g></g></g><rect class="scrollbar" rx="20" ry="3" width="0" height="0" x="0" y="0" style="fill: rgb(128, 139, 164); fill-opacity: 1;"/></g><g class="g-gtitle"><text class="gtitle" x="296" y="50" text-anchor="middle" dy="0em" style="font-family: 'Open Sans', verdana, arial, sans-serif; font-size: 17px; fill: rgb(42, 63, 95); opacity: 1; font-weight: normal; white-space: pre;"><tspan class="line" dy="0em" x="296" y="50">Scenario 7</tspan><tspan class="line" dy="1.3em" x="296" y="50">Microgrid Output</tspan><tspan class="line" dy="2.6em" x="296" y="50">From: November 01, 2022 to November 30, 2022</tspan></text></g><g class="g-xtitle"><text class="xtitle" x="296" y="477.409375" text-anchor="middle" style="font-family: 'Open Sans', verdana, arial, sans-serif; font-size: 14px; fill: rgb(42, 63, 95); opacity: 1; font-weight: normal; white-space: pre;">Time</text></g><g class="g-ytitle"><text class="ytitle" transform="rotate(-90,33.60625,260)" x="33.60625" y="260" text-anchor="middle" style="font-family: 'Open Sans', verdana, arial, sans-serif; font-size: 14px; fill: rgb(42, 63, 95); opacity: 1; font-weight: normal; white-space: pre;">Demand (kW)</text></g></g></svg>