<svg class="main-svg" xmlns="http://www.w3.org/2000/svg" xmlns:xlink="http://www.w3.org/1999/xlink" width="700" height="500" style="" viewBox="0 0 700 500"><rect x="0" y="0" width="700" height="500" style="fill: rgb(255, 255, 255); fill-opacity: 1;"/><defs id="defs-2c7c95"><g class="clips"><clipPath id="clip2c7c95xyplot" class="plotclip"><rect width="437" height="320"/></clipPath><clipPath class="axesclip" id="clip2c7c95x"><rect x="80" y="0" width="437" height="500"/></clipPath><clipPath class="axesclip" id="clip2c7c95y"><rect x="0" y="100" width="700" height="320"/></clipPath><clipPath class="axesclip" id="clip2c7c95xy"><rect x="80" y="100" width="437" height="320"/></clipPath></g><g class="gradients"/><g class="patterns"/></defs><g class="bglayer"/><g class="layer-below"><g class="imagelayer"/><g class="shapelayer"/></g><g class="cartesianlayer"><g class="subplot xy"><g class="layer-subplot"><g class="shapelayer"/><g class="imagelayer"/></g><g class="minor-gridlayer"><g class="x"/><g class="y"/></g><g class="gridlayer"><g class="x"><path class="xgrid crisp" transform="translate(152.86,0)" d="M0,100v320" style="stroke: rgb(255, 255, 255); stroke-opacity: 1; stroke-width: 1px;"/><path class="xgrid crisp" transform="translate(254.86,0)" d="M0,100v320" style="stroke: rgb(255, 255, 255); stroke-opacity: 1; stroke-width: 1px;"/><path class="xgrid crisp" transform="translate(356.86,0)" d="M0,100v320" style="stroke: rgb(255, 255, 255); stroke-opacity: 1; stroke-width: 1px;"/><path class="xgrid crisp" transform="translate(458.86,0)" d="M0,100v320" style="stroke: rgb(255, 255, 255); stroke-opacity: 1; stroke-width: 1px;"/></g><g class="y"><path class="ygrid crisp" transform="translate(0,357.61)" d="M80,0h437" style="stroke: rgb(255, 255, 255); stroke-opacity: 1; stroke-width: 1px;"/><path class="ygrid crisp" transform="translate(0,191.49)" d="M80,0h437" style="stroke: rgb(255, 255, 255); stroke-opacity: 1; stroke-width: 1px;"/><path class="ygrid crisp" transform="translate(0,108.44)" d="M80,0h437" style="stroke: rgb(255, 255, 255); stroke-opacity: 1; stroke-width: 1px;"/></g></g><g class="zerolinelayer"><path class="yzl zl crisp" transform="translate(0,274.55)" d="M80,0h437" style="stroke: rgb(255, 255, 255); stroke-opacity: 1; stroke-width: 2px;"/></g><path class="xlines-below"/><path class="ylines-below"/><g class="overlines-below"/><g class="xaxislayer-below"/><g class="yaxislayer-below"/><g class="overaxes-below"/><g class="plot" transform="translate(80,100)" clip-path="url(#clip2c7c95xyplot)"><g class="scatterlayer mlayer"><g class="trace scatter tracedb08f8" style="stroke-miterlimit: 2; opacity: 0.5;"><g class="fills"/><g class="errorbars"/><g class="lines"><path class="js-line" d="M0,174.55L437,174.55" style="vector-effect: non-scaling-stroke; fill: none; stroke: rgb(0, 191, 255); stroke-opacity: 1; stroke-width: 2px; opacity: 1;"/></g><g class="points"/><g class="text"/></g><g class="trace scatter trace5e2d40" style="stroke-miterlimit: 2; opacity: 0.5;"><g class="fills"/><g class="errorbars"/><g class="lines"><path class="js-line" d="M0,174.75L4.25,174.39L4.4,172.46L5.01,146.56L5.16,132.62L6.68,43.53L6.83,41.07L7.59,28.7L7.89,30.3L8.04,30.04L8.2,28.87L8.35,29.55L8.5,34.79L8.96,50.48L9.11,59.54L11.38,174.76L11.54,174.75L18.97,174.23L19.13,170.96L21.1,98.06L21.25,95.32L21.4,105.1L21.55,90.92L21.71,64.92L21.86,65.73L22.01,72.06L22.16,83L22.31,45.98L22.46,54.87L22.62,42.2L22.92,60.7L23.07,16L23.22,20.63L23.38,76.8L23.53,28.17L24.13,76.11L24.29,89.82L25.8,174.77L25.96,174.76L26.11,174.75L33.39,174.51L33.55,173.11L34.3,141.24L34.46,124.64L36.28,24.16L36.43,21.22L36.88,16.08L37.04,17.22L37.19,33.77L37.34,16.11L37.95,22.12L38.1,22.51L38.25,19.7L38.4,31.89L40.22,174.77L40.53,174.76L40.68,174.75L48.12,174.35L48.27,171.56L48.72,151.05L48.88,138.45L50.55,39.52L50.7,37.63L51.76,19.5L51.91,49.56L52.06,19.68L52.52,25.08L52.67,59.73L52.97,59.28L53.58,138.54L53.73,124.53L53.89,128.92L54.95,174.77L55.1,174.76L55.25,174.75L62.69,174.21L62.84,172.12L63.14,164.77L63.3,148.47L65.12,31.91L65.27,32.44L66.18,16.58L66.33,16.39L66.48,17.03L66.64,22.3L67.7,71.44L67.85,84.06L69.67,174.76L69.82,174.75L76.65,174.05L76.81,171.66L77.26,155.87L77.41,142.89L79.39,30.51L79.54,27.95L80.14,23.9L80.3,24.35L80.45,25.46L81.66,74.27L81.81,84.97L83.48,174.77L83.64,174.76L83.79,174.75L91.07,174.64L91.23,173.4L92.14,140.8L92.29,126.63L92.59,136.96L92.74,130.84L92.89,99.21L93.05,77.93L93.5,106.18L93.65,140.21L94.41,83.75L94.56,96.23L94.72,103.78L94.87,106.46L95.02,125.38L95.32,121.61L95.93,160.84L96.08,159.79L96.23,156.59L96.54,150.32L97.3,174.11L97.45,174.59L98.66,174.75L98.81,174.75L106.1,174.37L106.25,172.67L107.47,152.95L107.77,153.33L107.92,151.27L108.23,161.63L108.38,129.58L108.68,31.45L108.98,139.44L109.14,108.93L109.74,144.85L109.9,138.95L110.05,89.05L110.35,108.15L110.5,146.08L112.32,174.75L112.48,174.76L120.37,174.28L120.52,171.23L120.98,159.79L121.13,131.95L121.28,143.66L121.58,131.07L121.73,86.04L122.04,71.97L122.19,76.25L122.34,115.12L123.4,16.11L123.56,19.57L123.71,71.42L123.86,16.13L124.32,27.9L124.47,71.28L124.77,85.83L124.92,36.5L125.23,57.12L125.38,67.73L127.2,174.76L127.35,174.75L127.5,174.75L134.94,174.33L135.09,172.4L135.55,159.57L135.7,140.9L137.67,24.72L137.82,21.37L138.43,16.28L138.89,16.56L139.04,19.46L140.1,78.53L140.25,91.5L141.77,174.76L141.92,174.75L149.51,174.1L149.66,171.57L150.12,157.8L150.27,140.31L151.94,26.75L152.24,31.6L152.4,26.28L152.55,26.69L152.7,33.27L152.85,61.03L153,22.97L153.31,46.87L153.46,28.18L153.61,22.9L153.76,35.26L153.91,29.62L154.07,35.45L155.74,166.77L155.89,174.32L156.8,174.75L156.95,174.75L164.08,174.32L164.24,172.51L164.69,162.14L164.84,144.98L166.82,29.5L166.97,26.17L167.57,19.27L167.88,19.73L168.03,23.65L168.64,45.82L168.79,54.41L170.91,174.76L171.07,174.75L171.22,174.75L178.66,174.29L178.81,171.62L179.26,159.41L179.41,143.51L181.69,26.04L181.84,23.17L182.45,16.11L182.6,17.09L182.75,21.66L183.82,82.41L183.97,95.74L185.49,174.76L185.64,174.75L193.23,174.35L193.38,172.97L193.83,162.83L193.99,144.98L196.11,28.19L196.26,25.62L196.72,21.72L197.02,21.96L197.17,24.38L198.08,63.39L198.24,73.57L200.06,174.76L200.21,174.75L207.8,174.39L207.95,173.45L208.56,148.96L208.71,135.96L210.68,28.59L210.83,26.41L211.44,21.63L211.59,21.79L211.75,23.98L212.5,54.07L212.66,63.78L214.48,174.76L214.63,174.75L214.78,174.75L222.37,174.43L222.52,173.48L223.13,149.07L223.28,135.94L225.25,22.5L225.41,19.17L225.71,16.01L226.17,17.07L226.32,18.69L227.23,61.33L227.38,71.95L229.05,174.77L229.2,174.76L229.35,174.75L236.94,174.45L237.09,173.36L237.55,165.17L237.7,149.19L239.83,26.77L239.98,25.78L240.13,29.91L240.28,21.36L240.59,24.44L240.74,22.87L241.5,48.14L241.65,62.68L242.25,103.95L242.41,132.58L243.62,174.77L243.77,174.76L251.51,174.51L251.67,173.89L252.27,151.23L252.42,138.34L254.4,34.7L254.55,32.59L255.01,34.23L255.16,20.76L255.31,27.04L255.46,33.57L256.07,53.2L256.22,61.36L258.19,174.77L258.5,174.76L258.65,174.76L266.09,174.54L266.24,173.8L266.84,152.13L267,139.92L269.12,24.96L269.27,24.02L269.58,21.14L270.03,23.17L270.18,26.9L271.09,74.61L271.25,86.81L272.76,174.77L272.92,174.76L273.07,174.76L280.81,174.12L280.96,171.02L281.26,166.32L281.42,152.92L283.54,31.01L283.69,29.36L284.45,25.45L284.6,26.51L284.76,30.12L285.82,88.09L285.97,100.6L287.34,174.78L287.49,174.77L287.64,174.76L295.38,174.12L295.53,172.03L295.99,151.97L296.14,138.73L297.96,32.97L298.11,39.85L298.57,106.43L298.87,46.71L299.02,16.23L299.18,19.4L299.33,39.43L299.78,101.58L300.24,88.86L300.39,100.07L301.76,174.76L301.91,174.76L309.8,174.62L309.95,173.55L311.17,126.4L311.32,103.74L312.23,53.65L312.38,45.95L313.44,28.76L313.6,28.6L314.35,51.78L314.51,59.56L316.48,174.77L316.63,174.76L316.78,174.75L324.22,174.74L324.37,174.43L324.98,165.99L325.13,155.52L327.1,46.65L327.26,42.03L327.41,46.82L327.71,36.84L327.86,32.92L328.02,33.27L328.17,31.39L328.32,32.08L328.47,37.96L329.38,170.5L329.53,99.04L329.69,106.5L331.05,174.77L331.2,174.76L331.35,174.76L339.1,174.05L339.25,171.37L339.7,156.1L339.86,144.37L342.28,34.44L342.44,41.92L342.74,34.51L343.04,40.2L343.19,42.6L343.5,51.87L343.65,61.33L345.62,174.79L345.77,174.78L345.93,174.78L353.67,174.27L353.82,172.17L354.28,156.5L354.43,144.05L356.4,35.75L356.55,34.06L356.86,27.16L357.01,44.19L357.16,71.97L357.46,28.18L357.77,60.08L357.92,72.3L358.07,45.73L358.37,92.67L358.53,74.08L358.68,90.59L360.04,174.77L360.35,174.55L360.5,174.55L368.24,174.38L368.39,172.58L368.85,157.62L369,145.75L370.36,58.44L370.52,60.48L370.67,167.82L371.58,34.99L371.73,34.45L372.03,37.02L372.19,39.13L373.4,108.69L373.55,121.42L374.92,174.78L375.07,174.77L382.81,174.2L382.96,171.82L383.42,157.39L383.57,147.08L385.54,41.93L385.7,40.35L385.85,45.64L386,174.55L387.67,174.55L387.82,171.2L387.97,109.67L388.58,161.13L388.73,167.92L389.34,174.78L389.49,174.77L389.64,174.77L397.38,174.33L397.53,170.86L397.84,144.56L398.14,158.77L398.29,162.92L399.05,101.71L399.2,122.37L399.36,125.4L399.66,125.54L400.57,30.05L400.72,114.97L401.33,58.88L401.48,62.73L401.63,85.4L401.78,73.39L401.94,122.39L402.54,158.79L402.85,153.13L403,161.75L404.21,174.76L404.37,174.76L412.26,174.55L412.41,173.69L414.08,61.41L414.23,54.62L414.38,69.43L414.69,48.35L414.84,167.94L415.29,37.19L415.6,39.09L415.75,42.29L416.2,55.36L416.36,62.73L418.48,174.77L418.63,174.76L418.79,174.75L426.37,174.72L426.53,174.32L427.59,148.81L427.74,137.79L429.71,39.64L429.87,38.68L430.02,38.76L430.17,39.74L430.62,49.38L430.78,55.06L431.99,142.52L432.14,153.04L433.05,174.76L433.21,174.75L433.36,174.75L437,174.55" style="vector-effect: non-scaling-stroke; fill: none; stroke: rgb(255, 0, 0); stroke-opacity: 1; stroke-width: 2px; opacity: 1;"/></g><g class="points"/><g class="text"/></g><g class="trace scatter trace4afd79" style="stroke-miterlimit: 2; opacity: 0.5;"><g class="fills"/><g class="errorbars"/><g class="lines"><path class="js-line" d="M0,201.49L0.3,198.7L0.76,200.39L0.91,199.91L1.21,200.41L1.37,198.42L1.82,197.75L2.13,200.77L2.28,199.13L2.43,197.8L2.73,199.72L3.04,198.1L3.19,198.25L3.34,199.45L3.49,197.75L3.79,198.19L3.95,264.12L4.1,281.02L4.25,216.43L4.4,207.34L4.86,193.75L5.01,249.52L5.16,253.7L5.31,236.36L6.22,112.42L6.38,104.73L6.68,88.8L6.83,156.71L6.98,160.69L7.13,155.3L7.29,83.97L7.59,66.22L8.04,82.05L8.2,142.18L8.35,168.94L8.65,95.52L8.8,94.81L9.11,196.58L9.56,145.85L9.71,153.97L9.87,155.17L10.02,173.29L10.78,206.65L11.38,204.4L11.54,204L11.69,204.21L11.84,202.4L12.29,203.99L12.45,202.62L12.6,201.66L12.75,201.59L12.9,197.33L13.81,200.26L13.96,198.24L14.12,197.41L14.27,200.29L14.42,201.15L14.57,197.25L15.18,197.51L15.33,200.06L16.24,197.25L16.39,197.17L16.54,197.08L16.7,198.67L17.15,197.03L17.3,197.4L17.46,199.09L17.76,197.02L18.21,197.12L18.37,199L18.52,197.4L18.67,263.57L19.13,270.18L19.43,194.83L19.58,199.7L19.73,199.71L21.71,98.8L21.86,166.77L22.16,203.06L22.31,172.74L22.46,114.46L23.07,53.46L23.22,55.13L23.38,113.93L23.53,74.83L23.98,108.47L24.13,125.7L25.65,212.84L25.96,210.64L26.11,213.55L26.26,209.72L26.87,209.87L27.02,210.73L27.17,210.66L27.32,209.28L28.38,207.65L28.54,208.24L28.84,203.29L28.99,197.5L29.3,196.98L29.6,197.8L29.75,197.55L29.9,197.47L30.66,197.7L30.81,197.3L31.12,197.49L31.42,196.93L31.57,197.11L31.72,197.37L32.03,196.85L32.18,197.04L32.33,263.7L32.79,280.35L33.24,196.86L33.39,198.06L33.55,197.61L33.7,202.82L34,217.78L34.15,207.91L34.3,196.65L36.13,76.16L36.28,69.98L36.43,64.53L36.58,121.89L36.73,144.31L36.88,79.77L37.04,70.71L37.19,85.41L37.34,69.71L37.8,71.79L37.95,67.9L38.25,65.17L38.4,80.08L38.55,90.68L39.62,269.12L39.77,212.27L39.92,198.78L40.68,201.38L40.83,200.55L40.98,198.86L41.74,199.39L41.89,198.37L42.5,197L42.65,197.28L42.8,197.4L43.56,196.81L43.72,197.19L43.87,197.44L44.63,197.22L44.78,197.62L44.93,197.89L45.08,197.5L45.23,196.55L45.99,197.19L46.14,196.55L46.6,197.05L46.9,196.49L47.05,196.66L47.36,196.44L47.51,263.14L47.66,279.68L47.81,212.98L48.72,196.71L48.88,190.94L49.03,178.86L49.18,232.58L49.33,235L49.48,161.62L50.39,93.33L50.55,152.17L50.7,153.55L50.85,88.11L51,71.43L51.15,130.55L51.3,145.92L52.06,52.74L52.22,60.49L52.37,74.51L52.52,64.1L52.67,99.02L52.82,124.07L53.13,224.11L53.58,173.35L53.73,158.74L54.34,204.19L54.49,210.9L54.64,210.7L54.8,209L55.1,284.17L55.55,217.35L55.71,204.13L56.77,217.73L56.92,217.31L57.68,208.19L57.83,208.16L58.44,208.11L58.59,208.32L58.74,208.63L58.89,207.87L59.5,208.43L59.65,208.31L59.96,207.68L60.11,208.02L60.26,273.76L60.41,281.32L60.56,280.44L60.72,213.9L61.02,196.85L61.32,197.29L61.47,263.26L61.63,279.98L61.78,213.55L62.08,196.55L62.39,196.96L62.54,264.08L62.69,280.68L62.84,211.96L63.6,144.85L63.75,209.63L63.9,224.51L64.05,139.97L64.51,165.08L65.12,57.28L65.27,59.52L65.42,48.35L65.57,113.37L65.88,128.05L66.03,62.25L66.18,41.83L66.79,56.53L66.94,60.03L67.24,71.93L67.39,156.13L67.7,197.65L68,139.14L68.15,150.23L69.06,212.78L69.22,279.25L69.52,296.82L69.67,226.85L70.28,210.74L70.43,210.75L70.58,211.21L70.89,212.06L71.19,208L71.34,208.33L71.49,209.91L72.1,197.5L72.4,198.35L72.56,198.26L73.16,197.36L73.31,197.88L73.47,197.98L74.38,198L74.53,197.42L74.68,197.14L74.98,197.75L75.14,197.89L75.74,197.23L76.05,197.47L76.2,197.71L76.65,196.27L76.81,260.39L76.96,274.67L77.11,207.24L78.47,88.14L78.63,82.41L79.69,50.9L79.84,51.44L79.99,49.02L80.9,149.91L81.06,155.07L81.36,85.95L81.81,119.35L81.97,127.79L83.03,204.9L83.33,201.84L83.48,202.62L83.64,204.26L83.79,200.76L84.09,202.41L84.24,200.51L84.85,199.79L85.15,203.31L85.31,199.9L85.61,201L85.76,198.08L86.06,198.39L86.22,198.07L86.37,199.76L86.97,197.86L87.13,198.58L87.28,198.68L87.43,199.05L87.58,198.11L87.73,198.43L87.89,198.02L88.19,200.9L88.34,198.59L88.49,198.16L88.95,199.78L89.25,198.42L89.4,198.06L89.56,197.98L89.71,198.59L89.86,199.65L90.62,198L90.77,265.99L91.53,188.96L91.68,190.99L91.83,194.86L91.98,185.5L92.14,241.53L92.29,246.44L92.44,181.21L92.74,249.67L93.05,204.87L93.2,130.23L93.35,115.6L93.5,139.35L93.65,178.1L94.41,116.68L94.72,134.83L94.87,134.73L95.93,189.42L96.08,189.02L96.23,186.38L96.39,193.2L96.54,176.75L97.3,212.39L97.6,212.34L97.75,212.02L98.06,209.24L98.21,199.75L98.51,202.23L98.66,199.02L99.27,203.73L99.57,202.45L99.73,199.44L99.88,199.61L100.03,199.2L100.18,198.22L100.33,199.58L100.64,197.24L100.79,197.33L100.94,197.29L101.85,197.44L102,264.62L102.15,280.52L102.31,213.8L102.76,197.53L103.06,198.02L103.22,197.69L103.52,197.85L103.98,197.55L104.13,197.9L104.28,197.46L104.43,264.03L104.58,281.95L104.73,214.56L104.89,197.57L105.8,198.31L105.95,197.04L106.25,205.76L106.4,197.07L106.56,261.88L106.71,276.03L106.86,206.09L107.01,179.33L107.62,187.28L107.77,185.38L107.92,184.34L108.07,262.98L108.23,286.55L108.38,255.58L108.53,151.45L108.68,74.68L108.98,179.23L109.14,146.54L109.29,165.71L109.59,183.62L109.9,166.89L110.05,120.45L110.35,138.22L110.5,243.11L110.81,282.16L110.96,216.06L111.11,196.19L112.32,213.06L112.48,211.11L112.63,210.87L113.39,209.31L113.54,209.54L113.69,209.79L114.3,209.11L114.45,199.97L115.51,197.32L115.66,197.77L116.27,197.47L116.42,263.71L116.57,280.56L116.73,214.11L117.03,197.11L117.48,197.81L117.64,197.54L118.09,196.99L118.4,197.96L118.55,197.34L120.22,196.48L120.37,262.89L120.52,276.65L120.67,207.6L122.04,109.04L122.19,122.97L122.34,156.93L122.65,71.68L122.8,63.46L122.95,76.44L123.25,47.34L123.4,46.86L123.56,52.1L123.71,103.94L124.16,42.16L124.47,97.28L124.62,73.07L124.77,112.99L124.92,62.3L125.38,94.84L125.53,106.91L126.44,268.88L126.59,213.33L126.74,199.44L126.9,198.86L127.35,199.41L127.5,200.42L128.11,198.82L128.26,199.14L128.41,199.41L130.23,197.54L130.39,197.73L131.3,196.8L131.45,197.02L131.6,197.67L132.97,196.62L133.12,196.96L133.73,196.6L133.88,262.79L134.03,279.29L134.18,213.12L134.33,196.14L134.48,262.32L134.64,279.3L135.4,191.85L135.55,248.88L135.7,246.91L135.85,166.84L136.46,112.61L136.61,168.99L136.76,175.53L136.91,100.89L137.82,64.99L137.98,61.1L138.28,58.29L138.43,128.24L138.58,142.81L139.04,139.5L139.19,79.75L139.34,68.21L139.65,87.13L139.8,93.89L140.56,151.27L140.71,161.99L141.62,210.41L141.92,208.87L142.07,210.68L142.83,208.47L142.99,209.05L143.74,209.12L143.9,207.58L144.2,207.82L144.5,207.06L144.65,207.42L144.81,207.68L145.57,206.74L145.72,207.38L146.63,206.47L146.78,207.01L146.93,206.42L147.08,196.35L147.24,195.67L147.54,196.66L147.84,196.18L147.99,196.37L148.3,195.27L148.9,195.66L149.06,195.49L149.21,195.05L149.36,195.71L149.51,195.57L149.66,192.69L149.97,187.62L150.12,246.98L150.88,111.89L151.03,183.29L151.18,184.3L151.33,107.24L151.94,50.18L152.09,126.17L152.24,138.45L152.4,66.52L152.85,86.07L153,46.53L153.15,118.02L153.31,153.86L153.46,70.58L153.61,47.38L154.22,88.44L154.37,196.72L154.52,201.64L154.67,178.14L155.28,158.45L155.43,170.13L155.58,180.6L156.04,199.1L156.49,198.6L156.65,198.54L156.8,200.14L157.1,198.41L157.41,199.02L157.56,198.55L158.16,198.31L158.32,198.56L158.47,197.46L159.38,196.64L159.53,197L160.44,196.3L160.59,196.62L161.35,196.28L161.5,196.56L161.66,196.54L162.57,195.71L162.72,196.27L162.87,196.31L163.02,195.54L163.32,196.29L163.48,262.27L163.63,278.64L163.78,212.69L165.15,140.91L165.3,194.7L165.45,199.85L165.6,121.8L166.66,56.85L166.82,54.7L167.57,42.72L167.73,44.37L167.88,45.16L168.64,71.28L168.79,79.46L170,176.3L170.16,256.46L170.46,282.96L170.61,215.33L170.76,199.16L171.07,198.69L171.37,199.56L171.52,198.24L171.67,198.08L171.82,198.74L171.98,200.29L172.28,198.12L172.89,198.29L173.04,197.68L173.8,196.48L173.95,196.54L174.1,196.91L175.32,196.14L175.47,196.31L176.08,196.62L176.23,196.55L176.38,196.05L176.83,196.42L177.14,195.82L177.29,196.81L178.2,195.62L178.35,196.33L178.5,196.23L178.66,195.05L179.26,182.01L179.41,166.07L180.02,120.72L180.17,175.37L180.33,182.14L180.63,163.61L180.78,90.5L181.69,49.86L181.84,48.73L182.15,41.29L182.3,106.82L182.6,125.54L182.75,62.58L182.91,53.01L183.21,67.79L183.36,73.39L183.66,94.25L183.82,173.9L183.97,202.7L184.27,146.3L184.42,161.31L184.58,173.8L185.49,199.49L185.64,198.7L186.4,198.37L186.55,198.44L186.7,198.34L186.85,199.73L187.91,196.62L188.07,197.63L188.83,196.73L189.13,196.85L189.28,196.75L190.04,196.35L190.19,197.09L190.65,197.29L190.95,196.26L191.1,196.46L191.25,196.78L192.16,196.3L192.32,196.76L193.53,191.14L193.68,191.3L193.83,193.32L194.75,119.94L194.9,178.72L195.05,187.68L195.2,113.33L196.41,59.82L196.57,60.68L197.02,57.99L197.17,62.52L198.24,109.14L198.39,182.79L198.69,158.74L199.15,263.95L199.3,212.86L199.45,198.41L200.06,199.66L200.21,200.05L200.36,200.51L200.51,198.67L200.66,199.14L200.82,199L200.97,200.35L201.42,198.63L201.58,198.57L201.73,199.2L202.03,198.89L202.18,197.67L203.09,197.03L203.25,197.37L205.52,197.07L205.67,196.51L205.98,197.29L206.28,196.84L206.43,196.37L206.58,196.84L207.04,196.26L207.19,262.74L207.95,195.14L208.1,198.71L208.25,204.23L208.56,183.03L208.71,237.28L209.77,107.93L209.92,101.95L210.99,68.93L211.14,125.84L211.75,146.52L211.9,84.81L212.05,69.94L212.5,92.52L212.66,94.3L214.63,211.14L214.78,209.26L214.93,209.69L215.24,209.05L215.54,210.6L215.69,209.46L216.15,208.82L216.3,210.06L217.21,207.2L217.36,207.75L217.67,207.23L217.97,207.51L218.12,207.34L218.27,206.89L218.88,207.11L219.03,207.61L219.33,206.69L219.49,197.47L219.79,197.41L219.94,197.17L220.09,196.62L220.55,197.45L220.7,197.02L220.85,196.56L221.61,196.89L221.76,196.63L222.07,280.56L222.37,196.29L222.52,195.57L222.83,202.05L222.98,198.22L223.13,182.91L223.89,126.32L224.04,181.86L224.19,189.99L224.34,111.85L225.41,51.85L225.56,117.54L226.01,42.52L226.47,50.75L226.62,64.1L228.75,207.59L228.9,204.24L229.81,198.64L229.96,199.05L230.11,198.89L230.26,200.48L230.57,208.75L230.72,206.69L230.87,198.63L231.02,198.84L231.17,200.81L231.63,196.86L231.93,196.88L232.09,197.57L233,197.05L233.15,196.59L234.06,197.26L234.21,196.81L234.51,197.28L234.82,196.56L234.97,196.29L235.27,197.18L235.58,196.47L235.73,196.18L235.88,195.82L236.18,196.48L236.34,196.93L237.09,194.78L237.25,191.48L237.4,191.88L237.55,191.57L237.7,182.64L237.85,170.17L238,227.85L238.31,143.15L238.76,195.3L238.92,185.03L239.83,65.87L239.98,66.73L240.89,79.18L241.04,83.83L243.17,226.45L243.47,212.32L243.62,210.42L244.23,213.28L244.38,209.94L244.53,211.81L245.14,211.73L245.29,210.44L246.2,207.57L246.81,208.02L246.96,207.84L247.72,197.06L247.87,197.32L248.02,197.07L248.33,196.73L248.63,197.54L248.78,197.36L248.93,197.29L250.15,196.57L250.3,196.99L251.36,195.93L251.51,261.75L252.58,159.63L252.73,148.54L254.4,68.36L254.55,67.46L254.85,52.39L255.31,56.46L255.46,130.79L255.61,150.68L255.76,85.96L255.92,77.85L256.52,120.93L256.67,188.54L257.13,170.71L257.59,289.84L257.74,227.78L258.34,208.52L258.5,209.33L258.65,210.97L259.26,208.97L259.41,209.34L259.56,211.25L260.77,196.93L260.92,197.17L261.08,197.55L261.99,196.9L262.14,197.34L262.9,197.13L263.05,197.51L263.96,197.43L264.11,196.61L264.87,197.57L265.02,197.14L265.78,196.94L265.93,263.2L266.09,280.39L266.24,212.76L267,164.05L267.15,218.13L267.3,222.66L267.45,142.7L268.51,65.34L268.67,61.81L269.27,48.21L269.43,48.36L269.58,112.3L269.88,63.94L270.18,136.62L270.34,72.63L270.49,65.31L270.79,80.52L270.94,88.3L272.46,219.78L272.92,210.27L273.07,208.6L273.68,210.89L273.83,209.45L273.98,209.1L274.13,208.63L274.28,201.89L274.43,198.74L274.59,198.91L274.74,267.27L274.89,282.27L275.04,281.03L275.19,213.52L275.8,197.27L275.95,197.68L276.1,197.46L276.56,197.69L276.71,197.22L276.86,197.38L277.01,197.35L277.32,197L277.77,197.53L277.93,197.26L279.59,196.65L279.75,197.26L280.81,195.9L280.96,193.1L281.26,189.83L281.42,177.03L281.57,163.95L281.72,219.94L281.87,230.96L282.02,214.22L282.18,131.31L283.24,64.42L283.39,58.48L284,50.67L284.15,118.96L284.3,134.43L284.45,67.69L284.6,53.36L284.91,62.04L285.06,137.56L285.36,169.99L285.51,110.01L285.67,105.59L286.88,200.36L287.49,200.29L287.64,201.25L288.4,199.02L288.55,199.41L288.7,200.92L288.85,198.74L289.16,199.39L289.31,197.52L289.46,175.82L289.61,197.65L289.92,197.65L290.07,197.62L290.83,196.79L290.98,196.86L291.13,197.12L291.89,196.83L292.04,196.24L292.8,197.28L292.95,197.09L293.1,196.56L293.86,196.33L294.01,196.7L294.93,195.75L295.08,196.16L295.23,195.75L295.38,261.33L295.53,276.14L295.68,208.56L296.75,138.7L296.9,179.53L297.05,192.27L297.2,122.53L297.66,158.79L297.96,59.02L298.11,67.96L298.27,117.44L298.42,119.74L298.57,134.57L298.72,187.59L299.02,60.33L299.18,50.49L299.63,132.86L300.24,125.69L300.39,139.21L301.6,213.62L301.76,211.25L301.91,209.54L302.06,211.96L302.67,209.79L302.82,210.25L302.97,220.67L303.27,209.97L303.43,210.97L303.58,209.25L303.88,209.62L304.03,209.02L304.18,208.51L305.1,207.16L305.25,197.8L306.01,197.55L306.16,196.94L307.07,197.27L307.22,196.91L307.37,196.34L307.68,196.48L307.83,262.67L308.74,195.27L308.89,195.6L309.19,196.31L309.65,196.07L309.8,262.11L310.71,175.88L310.86,165.33L311.17,253.91L311.47,118.94L311.62,114.09L311.77,114.94L311.93,133.43L312.84,72.37L312.99,135.58L313.14,151.55L313.29,76.82L313.44,56.97L314.05,73.38L314.2,143.14L315.11,225.71L315.27,162.55L315.42,162.84L315.57,172.74L316.02,201.57L316.18,265.97L316.33,283.86L316.48,215.12L316.63,198.48L316.78,201.92L317.39,199.84L317.54,198.42L318.15,197.98L318.3,198.38L318.45,198.7L320.12,196.17L320.27,196.24L321.19,196.98L321.34,196.51L321.64,196.19L321.79,197.24L322.7,196.39L322.85,196.55L323.01,196.65L323.16,196.01L323.31,195.91L323.46,196.05L323.61,262.46L324.52,193.62L324.68,188.69L324.98,188.89L325.13,186.75L325.28,174.86L325.44,171.5L325.59,150.92L325.89,138.46L326.04,180.61L326.5,187.53L326.95,83.8L327.1,83.29L327.86,58.61L328.17,59.84L328.32,58.28L329.23,109.93L329.38,172.02L329.53,127.61L329.99,161.43L330.14,172.22L330.9,200.69L331.2,198.5L331.35,200.38L331.51,198.52L332.11,198.66L332.27,201.32L332.42,198.08L332.72,207.05L332.87,208.09L333.02,207.59L333.18,199L333.63,196.93L333.78,197.3L333.94,198.98L334.09,196.71L334.69,197.4L334.85,198.68L335.45,196.81L335.61,198.69L336.52,196.77L336.67,197.32L336.97,196.78L337.12,197.11L337.27,198.15L338.03,196.82L338.19,197.23L338.79,197.63L338.94,196.47L339.4,193.17L339.55,257.41L340.46,121.25L340.61,178.7L340.77,183.06L340.92,108.98L341.83,63.96L341.98,127.96L342.59,151.16L342.74,78.5L342.89,65.13L343.35,71.96L343.5,81.19L345.32,201.37L345.62,200.38L345.77,199.46L345.93,202.49L346.08,198.75L346.38,202.28L346.53,198.75L346.84,284.12L347.14,215.2L347.29,198.99L347.75,198.96L347.9,197.96L348.2,196.76L348.66,196.99L348.81,197.2L349.57,197.45L349.72,197.26L350.18,196.71L350.48,197.2L350.63,197.33L351.39,196.27L351.54,196.78L351.69,196.91L352.61,195.42L352.76,175.71L353.52,262.56L353.67,212.05L353.82,192.52L354.12,190.83L354.28,179.46L356.25,63.85L356.4,127.92L356.7,34.36L357.16,98.44L357.31,85.17L357.61,53.22L357.92,100.4L358.07,72.65L358.22,88.57L358.68,212.81L359.28,183.78L359.44,192.78L359.74,209.98L359.89,176.34L360.04,207.03L360.19,174.55L361.56,174.55L361.71,176.35L362.17,209.93L362.47,208.22L362.62,207.83L363.08,207.51L363.23,208.71L363.53,206.03L363.69,197.31L363.84,197.82L364.14,196.9L364.29,197.37L364.44,197.19L364.9,196.56L365.2,197.01L365.36,197.45L365.66,196.95L365.81,263.29L365.96,279.99L366.11,213.15L366.72,196.41L366.87,196.82L367.03,197.21L367.94,195.73L368.09,262.23L368.24,279.12L368.39,210.33L369.61,121.61L369.76,177.31L369.91,184.21L370.06,109.46L370.36,82.57L370.52,82.77L370.67,169.07L371.43,59.1L371.58,61.46L371.73,58.31L373.1,105.73L373.25,125L374.31,210.91L374.61,210.13L374.77,209.91L374.92,210.67L375.07,277.52L375.37,292.66L375.53,227.58L376.28,199.36L376.44,199.52L376.59,202.18L376.89,282.46L377.2,213.91L377.35,198.74L377.65,197.09L377.95,198.01L378.11,199.63L378.56,196.07L378.71,175.93L379.32,198.44L379.47,198.04L379.62,197.01L380.23,197.36L380.38,196.97L380.53,196.65L381.9,197.09L382.05,196.59L382.2,195.18L382.36,175.69L383.27,256.62L383.42,197.13L384.33,112.35L384.48,168.83L384.63,176.59L384.78,104.35L385.09,146.45L385.54,65.7L385.7,66.29L385.85,140.28L386,257.61L386.61,174.55L386.76,174.55L387.67,174.55L387.82,172.77L387.97,140.23L388.43,176.79L388.58,188.31L389.19,201.66L389.49,199.53L389.64,199.95L390.1,283.35L390.25,215.84L390.4,199.03L390.55,200.99L391.01,198.47L391.16,197.81L391.31,175.79L391.46,198.82L391.77,198.48L391.92,197.83L392.98,196.96L393.13,197.51L393.89,197.06L394.04,197.25L394.2,197.4L394.5,197.17L394.65,197.66L394.8,197.46L394.95,263.27L395.41,196.55L395.87,197.24L396.02,196.33L396.78,196.8L396.93,196.41L397.38,196.03L397.53,192.16L397.84,178.31L397.99,183.15L398.14,192.66L398.29,197.5L398.45,168.53L398.6,161.58L398.75,173.56L398.9,188.35L399.51,137.14L399.66,150.28L399.81,143.79L400.42,65.3L400.57,126.24L400.72,156.13L401.03,86.99L401.18,198.16L401.48,105.73L401.63,111.54L402.09,252.72L402.54,194.42L402.7,201.25L402.85,198.75L403,209.26L403.3,213.57L403.45,220.71L403.61,219.43L403.76,285.65L403.91,304L404.06,291.8L404.21,225.7L404.82,208.59L405.12,208.74L405.28,210.62L406.19,207.9L406.34,207.64L406.95,206.41L407.1,199.92L408.01,175.68L408.16,196.87L408.46,196.22L408.92,196.44L409.07,196.79L409.53,196.27L409.68,196.74L409.83,196.4L410.13,195.66L410.29,174.55L412.26,174.55L412.41,175.4L413.02,267.46L413.17,167.92L413.78,110.76L413.93,177.64L414.38,195.29L414.54,105.68L414.69,85.45L414.84,236.81L415.6,64.86L415.9,69.34L416.05,77.02L416.66,113.06L416.81,184.32L416.96,219.94L417.12,157.28L417.42,165.82L417.57,179.38L418.03,201.01L418.63,200.32L418.79,198.67L418.94,198.11L419.09,198.42L419.24,200.57L420,197.94L420.15,198.53L420.3,198.82L420.46,198.05L420.61,198.12L420.76,197.54L421.52,196.12L421.67,196.63L422.58,195.88L422.73,196.21L423.04,195.94L423.49,196.47L423.64,196.24L423.79,196.84L424.25,195.93L424.4,196.34L424.55,195.74L425.01,196.63L425.16,195.82L425.31,195.67L425.62,195.93L425.92,195.31L426.07,194.92L426.53,195.71L426.68,192.6L426.83,189.91L426.98,261.21L427.29,282.31L427.44,213.37L428.2,161.3L428.35,232.38L428.5,229.79L428.65,155.37L429.56,69.17L429.71,142.23L429.87,154.26L430.02,149.71L430.17,83.41L430.32,70.53L430.78,83.71L430.93,89.2L432.6,283.07L432.75,219L433.51,175.91L433.66,198.13L433.81,198.39L434.57,198.6L434.72,198.04L435.18,198.08L435.33,197L435.79,196.08L436.24,196.58L436.39,196.96L436.54,195.77L436.7,174.75L437,174.55" style="vector-effect: non-scaling-stroke; fill: none; stroke: rgb(0, 128, 0); stroke-opacity: 1; stroke-width: 2px; opacity: 1;"/></g><g class="points"/><g class="text"/></g></g></g><g class="overplot"/><path class="xlines-above crisp" d="M0,0" style="fill: none;"/><path class="ylines-above crisp" d="M0,0" style="fill: none;"/><g class="overlines-above"/><g class="xaxislayer-above"><g class="xtick"><text text-anchor="middle" x="0" y="433" transform="translate(152.86,0)" style="font-family: 'Open Sans', verdana, arial, sans-serif; font-size: 12px; fill: rgb(42, 63, 95); fill-opacity: 1; white-space: pre; opacity: 1;"><tspan class="line" dy="0em" x="0" y="433">Nov 6</tspan><tspan class="line" dy="1.3em" x="0" y="433">2022</tspan></text></g><g class="xtick"><text text-anchor="middle" x="0" y="433" style="font-family: 'Open Sans', verdana, arial, sans-serif; font-size: 12px; fill: rgb(42, 63, 95); fill-opacity: 1; white-space: pre; opacity: 1;" transform="translate(254.86,0)">Nov 13</text></g><g class="xtick"><text text-anchor="middle" x="0" y="433" style="font-family: 'Open Sans', verdana, arial, sans-serif; font-size: 12px; fill: rgb(42, 63, 95); fill-opacity: 1; white-space: pre; opacity: 1;" transform="translate(356.86,0)">Nov 20</text></g><g class="xtick"><text text-anchor="middle" x="0" y="433" style="font-family: 'Open Sans', verdana, arial, sans-serif; font-size: 12px; fill: rgb(42, 63, 95); fill-opacity: 1; white-space: pre; opacity: 1;" transform="translate(458.86,0)">Nov 27</text></g></g><g class="yaxislayer-above"><g class="ytick"><text text-anchor="end" x="79" y="4.199999999999999" transform="translate(0,357.61)" style="font-family: 'Open Sans', verdana, arial, sans-serif; font-size: 12px; fill: rgb(42, 63, 95); fill-opacity: 1; white-space: pre; opacity: 1;">−50</text></g><g class="ytick"><text text-anchor="end" x="79" y="4.199999999999999" style="font-family: 'Open Sans', verdana, arial, sans-serif; font-size: 12px; fill: rgb(42, 63, 95); fill-opacity: 1; white-space: pre; opacity: 1;" transform="translate(0,274.55)">0</text></g><g class="ytick"><text text-anchor="end" x="79" y="4.199999999999999" style="font-family: 'Open Sans', verdana, arial, sans-serif; font-size: 12px; fill: rgb(42, 63, 95); fill-opacity: 1; white-space: pre; opacity: 1;" transform="translate(0,191.49)">50</text></g><g class="ytick"><text text-anchor="end" x="79" y="4.199999999999999" style="font-family: 'Open Sans', verdana, arial, sans-serif; font-size: 12px; fill: rgb(42, 63, 95); fill-opacity: 1; white-space: pre; opacity: 1;" transform="translate(0,108.44)">100</text></g></g><g class="overaxes-above"/></g></g><g class="polarlayer"/><g class="smithlayer"/><g class="ternarylayer"/><g class="geolayer"/><g class="funnelarealayer"/><g class="pielayer"/><g class="iciclelayer"/><g class="treemaplayer"/><g class="sunburstlayer"/><g class="glimages"/><defs id="topdefs-2c7c95"><g class="clips"/><clipPath id="legend2c7c95"><rect width="162" height="67" x="0" y="0"/></clipPath></defs><g class="layer-above"><g class="imagelayer"/><g class="shapelayer"/></g><g class="infolayer"><g class="legend" pointer-events="all" transform="translate(525.74,100)"><rect class="bg" shape-rendering="crispEdges" width="162" height="67" x="0" y="0" style="stroke: rgb(68, 68, 68); stroke-opacity: 1; fill: rgb(255, 255, 255); fill-opacity: 1; stroke-width: 0px;"/><g class="scrollbox" transform="" clip-path="url(#legend2c7c95)"><g class="groups"><g class="traces" transform="translate(0,14.5)" style="opacity: 1;"><text class="legendtext" text-anchor="start" x="40" y="4.680000000000001" style="font-family: 'Open Sans', verdana, arial, sans-serif; font-size: 12px; fill: rgb(42, 63, 95); fill-opacity: 1; white-space: pre;">BESS</text><g class="layers" style="opacity: 0.5;"><g class="legendfill"/><g class="legendlines"><path class="js-line" d="M5,0h30" style="fill: none; stroke: rgb(0, 191, 255); stroke-opacity: 1; stroke-width: 2px;"/></g><g class="legendsymbols"><g class="legendpoints"/></g></g><rect class="legendtoggle" x="0" y="-9.5" width="156.71875" height="19" style="fill: rgb(0, 0, 0); fill-opacity: 0;"/></g><g class="traces" transform="translate(0,33.5)" style="opacity: 1;"><text class="legendtext" text-anchor="start" x="40" y="4.680000000000001" style="font-family: 'Open Sans', verdana, arial, sans-serif; font-size: 12px; fill: rgb(42, 63, 95); fill-opacity: 1; white-space: pre;">Solar</text><g class="layers" style="opacity: 0.5;"><g class="legendfill"/><g class="legendlines"><path class="js-line" d="M5,0h30" style="fill: none; stroke: rgb(255, 0, 0); stroke-opacity: 1; stroke-width: 2px;"/></g><g class="legendsymbols"><g class="legendpoints"/></g></g><rect class="legendtoggle" x="0" y="-9.5" width="156.71875" height="19" style="fill: rgb(0, 0, 0); fill-opacity: 0;"/></g><g class="traces" transform="translate(0,52.5)" style="opacity: 1;"><text class="legendtext" text-anchor="start" x="40" y="4.680000000000001" style="font-family: 'Open Sans', verdana, arial, sans-serif; font-size: 12px; fill: rgb(42, 63, 95); fill-opacity: 1; white-space: pre;">Grid Meter (Net Load)</text><g class="layers" style="opacity: 0.5;"><g class="legendfill"/><g class="legendlines"><path class="js-line" d="M5,0h30" style="fill: none; stroke: rgb(0, 128, 0); stroke-opacity: 1; stroke-width: 2px;"/></g><g class="legendsymbols"><g class="legendpoints"/></g></g><rect class="legendtoggle" x="0" y="-9.5" width="156.71875" height="19" style="fill: rgb(0, 0, 0); fill-opacity: 0;"/></g></g></g><rect class="scrollbar" rx="20" ry="3" width="0" height="0" x="0" y="0" style="fill: rgb(128, 139, 164); fill-opacity: 1;"/></g><g class="g-gtitle"><text class="gtitle" x="298.5" y="50" text-anchor="middle" dy="0em" style="font-family: 'Open Sans', verdana, arial, sans-serif; font-size: 17px; fill: rgb(42, 63, 95); opacity: 1; font-weight: normal; white-space: pre;"><tspan class="line" dy="0em" x="298.5" y="50">Scenario 3</tspan><tspan class="line" dy="1.3em" x="298.5" y="50">Microgrid Output</tspan><tspan class="line" dy="2.6em" x="298.5" y="50">From: November 01, 2022 to November 30, 2022</tspan></text></g><g class="g-xtitle"><text class="xtitle" x="298.5" y="476.409375" text-anchor="middle" style="font-family: 'Open Sans', verdana, arial, sans-serif; font-size: 14px; fill: rgb(42, 63, 95); opacity: 1; font-weight: normal; white-space: pre;">Time</text></g><g class="g-ytitle"><text class="ytitle" transform="rotate(-90,33.840625,260)" x="33.840625" y="260" text-anchor="middle" style="font-family: 'Open Sans', verdana, arial, sans-serif; font-size: 14px; fill: rgb(42, 63, 95); opacity: 1; font-weight: normal; white-space: pre;">Demand (kW)</text></g></g></svg>