<svg class="main-svg" xmlns="http://www.w3.org/2000/svg" xmlns:xlink="http://www.w3.org/1999/xlink" width="700" height="500" style="" viewBox="0 0 700 500"><rect x="0" y="0" width="700" height="500" style="fill: rgb(255, 255, 255); fill-opacity: 1;"/><defs id="defs-ea5a16"><g class="clips"><clipPath id="clipea5a16xyplot" class="plotclip"><rect width="540" height="320"/></clipPath><clipPath class="axesclip" id="clipea5a16x"><rect x="80" y="0" width="540" height="500"/></clipPath><clipPath class="axesclip" id="clipea5a16y"><rect x="0" y="100" width="700" height="320"/></clipPath><clipPath class="axesclip" id="clipea5a16xy"><rect x="80" y="100" width="540" height="320"/></clipPath></g><g class="gradients"/><g class="patterns"/></defs><g class="bglayer"/><g class="layer-below"><g class="imagelayer"/><g class="shapelayer"/></g><g class="cartesianlayer"><g class="subplot xy"><g class="layer-subplot"><g class="shapelayer"/><g class="imagelayer"/></g><g class="minor-gridlayer"><g class="x"/><g class="y"/></g><g class="gridlayer"><g class="x"><path class="xgrid crisp" transform="translate(170.03,0)" d="M0,100v320" style="stroke: rgb(255, 255, 255); stroke-opacity: 1; stroke-width: 1px;"/><path class="xgrid crisp" transform="translate(296.08000000000004,0)" d="M0,100v320" style="stroke: rgb(255, 255, 255); stroke-opacity: 1; stroke-width: 1px;"/><path class="xgrid crisp" transform="translate(422.12,0)" d="M0,100v320" style="stroke: rgb(255, 255, 255); stroke-opacity: 1; stroke-width: 1px;"/><path class="xgrid crisp" transform="translate(548.1600000000001,0)" d="M0,100v320" style="stroke: rgb(255, 255, 255); stroke-opacity: 1; stroke-width: 1px;"/></g><g class="y"><path class="ygrid crisp" transform="translate(0,404.39)" d="M80,0h540" style="stroke: rgb(255, 255, 255); stroke-opacity: 1; stroke-width: 1px;"/><path class="ygrid crisp" transform="translate(0,367.98)" d="M80,0h540" style="stroke: rgb(255, 255, 255); stroke-opacity: 1; stroke-width: 1px;"/><path class="ygrid crisp" transform="translate(0,331.57)" d="M80,0h540" style="stroke: rgb(255, 255, 255); stroke-opacity: 1; stroke-width: 1px;"/><path class="ygrid crisp" transform="translate(0,295.15999999999997)" d="M80,0h540" style="stroke: rgb(255, 255, 255); stroke-opacity: 1; stroke-width: 1px;"/><path class="ygrid crisp" transform="translate(0,222.34)" d="M80,0h540" style="stroke: rgb(255, 255, 255); stroke-opacity: 1; stroke-width: 1px;"/><path class="ygrid crisp" transform="translate(0,185.93)" d="M80,0h540" style="stroke: rgb(255, 255, 255); stroke-opacity: 1; stroke-width: 1px;"/><path class="ygrid crisp" transform="translate(0,149.52)" d="M80,0h540" style="stroke: rgb(255, 255, 255); stroke-opacity: 1; stroke-width: 1px;"/><path class="ygrid crisp" transform="translate(0,113.12)" d="M80,0h540" style="stroke: rgb(255, 255, 255); stroke-opacity: 1; stroke-width: 1px;"/></g></g><g class="zerolinelayer"><path class="yzl zl crisp" transform="translate(0,258.75)" d="M80,0h540" style="stroke: rgb(255, 255, 255); stroke-opacity: 1; stroke-width: 2px;"/></g><path class="xlines-below"/><path class="ylines-below"/><g class="overlines-below"/><g class="xaxislayer-below"/><g class="yaxislayer-below"/><g class="overaxes-below"/><g class="plot" transform="translate(80,100)" clip-path="url(#clipea5a16xyplot)"><g class="scatterlayer mlayer"><g class="trace scatter trace67d383" style="stroke-miterlimit: 2; opacity: 0.5;"><g class="fills"/><g class="errorbars"/><g class="lines"><path class="js-line" d="M0,186.02L0.19,185.41L0.75,186.06L0.94,186.06L1.88,186.02L2.06,185.04L2.25,184.48L2.44,185.78L2.63,186.03L3.56,184.49L3.75,184.59L3.94,186.32L4.31,184.19L4.5,184.71L4.69,184.39L4.88,188.01L5.06,258.89L6,187.99L6.19,253.11L6.38,249.99L6.56,158.96L7.32,158.73L7.5,158.4L8.25,158.76L8.44,160.67L8.82,158.72L9,49.97L9.19,39.87L9.38,59.46L9.57,81.72L9.75,83.71L9.94,80.13L10.13,183.83L10.32,182.74L10.5,186.07L10.69,103.86L10.88,104.94L11.07,186.09L11.25,185.86L11.44,157.5L11.82,144.44L12,149.29L12.19,159.4L13.13,186.09L13.32,185.76L14.25,186.06L14.44,186.05L15.76,185.46L15.94,184.7L16.32,186.03L16.51,185.87L16.69,184.54L17.26,184.2L17.63,186.07L17.82,185.41L18.01,183.75L18.38,185.65L18.57,184.27L18.76,185.15L18.94,185.78L19.13,184.59L19.32,184.16L19.69,185.59L19.88,184.8L20.07,183.6L20.26,183.44L20.44,184.27L20.63,184.66L20.82,184.04L21.01,183.71L21.19,183.5L21.38,184.69L21.57,184.83L21.76,183.59L22.32,183.53L22.51,184.48L22.7,184.76L22.88,183.63L23.26,182.87L23.63,188.02L23.82,186.04L24.01,181.52L24.2,186.06L24.38,191.15L24.57,192.19L24.76,206.26L25.88,158.69L26.07,158.42L26.82,158.76L27.01,187.31L27.2,185.44L27.38,173.72L28.32,154.21L28.51,50.9L28.89,98.62L29.45,94.77L29.64,107.67L30.76,186.14L31.14,186.08L31.32,186.08L35.64,185.7L35.82,184.08L36.2,183.4L36.58,184.1L36.76,183.91L37.14,184.11L37.33,188.85L37.89,197.04L38.08,183.54L40.14,183.2L40.33,274.02L40.89,183.16L41.08,183.83L41.26,184.12L42.01,201.57L42.2,190.24L43.14,158.7L43.33,158.99L43.52,158.7L44.45,158.45L44.64,158.71L45.02,46.5L45.39,152.55L45.58,79.64L45.95,105.61L46.33,86.29L46.52,87.59L47.08,54.97L47.27,59.09L47.45,72.95L48.02,90.4L48.2,127.15L48.77,187.9L49.33,186.07L49.52,186.07L50.64,185.54L50.83,185.85L51.58,185.51L51.77,184.25L52.52,183.48L52.71,183.73L52.89,183.62L53.83,183.33L54.02,183.69L55.52,184.17L55.71,183.4L56.83,183.23L57.02,183.08L57.39,183.46L57.58,183.08L57.77,182.73L58.15,182.99L58.33,186.26L58.52,186.06L58.71,210.48L59.08,183.21L59.46,188.83L59.65,191.02L59.83,194.3L60.02,191.79L60.21,180.55L60.58,159.92L60.77,232.21L60.96,221.81L61.15,158.33L62.08,159.01L62.27,158.71L62.46,162.35L62.65,156.47L62.83,101.22L63.21,127.61L63.77,32.89L63.96,49.48L64.15,46.51L64.33,28.61L65.09,115.67L65.27,114.86L65.46,184.54L65.84,186.15L66.02,157.46L66.59,159.11L66.77,172.39L66.96,186.31L67.52,186.05L67.71,186.04L67.9,188.03L68.09,185.77L68.27,241.14L68.46,187.44L69.02,197.25L69.21,198.46L69.4,198.34L69.59,196.92L69.96,202.66L70.15,206.16L71.27,195.61L71.46,195.5L73.34,195.98L73.53,195.83L74.28,195.39L74.46,190.18L74.65,274.82L75.03,183.56L75.21,183.3L75.78,183.43L75.96,273.72L76.9,183.15L77.09,183.64L77.28,287.67L77.84,190.31L78.03,205.54L78.4,161.02L78.59,164.81L78.78,253.17L78.96,244.46L79.15,158.13L79.34,158.68L79.53,169.04L79.9,156.42L80.47,158.77L80.65,40.89L80.84,33.02L81.03,119.92L81.22,119.03L81.4,108.32L81.59,16L82.15,33.2L82.34,39.31L83.09,80.8L83.28,177.48L83.65,186.12L83.84,144.07L84.03,125.21L84.4,161.81L84.59,177.39L85.53,188.05L85.72,186.08L85.9,235.46L86.47,199.94L86.66,198.47L87.59,198.57L87.78,196.23L88.16,196.73L88.34,194.91L88.53,188L89.09,183.96L89.28,184.43L89.47,184.8L90.41,184.01L90.59,184.37L90.78,184.46L91.53,184.19L91.72,197.28L91.91,197.28L92.09,183.73L93.03,184.03L93.22,197.15L93.59,196.92L93.78,184.03L93.97,197.05L94.53,196.24L94.72,194.58L94.91,282.49L95.28,275.39L95.47,160.82L96.22,158.69L96.41,158.96L96.97,158.43L97.35,158.73L97.53,98.1L98.47,23.6L98.66,22.57L98.85,22.01L99.03,114.97L99.41,118.76L99.6,46.57L100.35,177.34L100.53,106.48L100.72,104.61L100.91,116.96L102.6,186.34L102.79,186.05L102.97,186.06L105.79,185.72L105.97,184.65L106.72,185.62L106.91,184.84L107.1,184.7L107.29,184.4L107.66,185.12L107.85,185.41L108.6,184.72L108.79,185.86L108.98,185.89L109.16,184.86L109.91,185.47L110.1,184.71L110.29,186.31L110.85,185.38L111.04,185.41L111.79,184.54L111.98,186.31L112.16,188.05L112.35,227.15L112.54,274.61L112.91,190.75L113.1,188.52L113.66,179.12L113.85,257.11L114.04,237.88L114.23,158.99L114.41,255.59L114.98,200.98L115.16,158.36L115.35,158.6L115.54,168.94L115.73,186.18L116.1,159.88L116.29,158.74L116.67,159.13L117.04,158.45L117.23,158.86L117.79,163.78L117.98,177.35L118.17,167.47L118.54,186.06L118.73,185.62L118.92,185.9L119.1,182.1L119.29,180.85L119.48,186.14L120.23,186.04L120.42,186.08L121.17,186L121.35,196.15L122.29,201.08L122.48,202.62L122.67,202.75L122.86,215.08L123.61,198.34L123.79,198.53L123.98,198.55L124.36,196.77L124.54,196.8L124.73,183.75L125.67,183.73L125.86,184.22L126.04,274.82L126.61,197.17L126.79,197.19L126.98,197.25L127.17,184.52L128.29,183.95L128.48,184.14L128.86,183.88L129.04,275.2L129.61,184L129.98,184.07L130.17,183.77L130.92,185.99L131.11,191.28L131.3,201.7L131.48,195.79L131.67,284.13L131.86,268.63L132.05,183.45L132.23,179.06L132.42,212.65L132.61,212.87L132.8,209.67L132.98,224.17L133.36,201.56L133.55,304L134.11,158.07L134.67,159.42L134.86,158.86L135.23,168.76L135.42,162.99L135.61,158.74L135.8,158.45L135.98,159.05L136.17,158.82L136.36,167.91L137.49,226.68L137.67,217.71L137.86,220.04L138.05,209.99L138.61,213.18L138.8,213.09L138.99,211.84L139.17,211.11L139.36,197.32L140.86,197.23L141.05,197.37L141.99,184.02L142.17,184.09L142.36,184.01L143.11,184.01L143.3,184.14L143.67,183.76L143.86,274.29L144.43,183.62L144.8,184.27L144.99,184.35L145.93,183.59L146.11,184.16L148.18,183.46L148.36,196.05L148.55,195.96L148.74,285.02L148.93,295.62L149.11,188.3L149.49,169.01L149.68,158.54L149.86,164.63L150.24,158.49L150.43,158.75L150.61,158.7L151.74,158.84L151.93,126.93L152.3,32.15L152.68,78.47L152.87,78.68L153.43,32.12L153.62,63.18L153.8,86.72L153.99,95.36L154.18,78.71L154.37,55.59L155.87,187.46L156.05,186.11L156.24,183.87L157.37,186.06L157.55,185.96L157.74,185.71L159.62,185.02L159.81,184.5L160.74,183.89L160.93,184.04L162.06,183.27L162.24,183.22L163.18,183.91L163.37,183.41L165.24,182.79L165.43,187.96L165.81,180.72L166,182.26L166.18,233.56L167.12,191.13L167.31,186.69L167.5,262.15L167.87,158.68L168.06,158.44L168.62,158.69L168.81,167.73L169.75,149.75L169.93,69.29L170.68,32.28L170.87,46.19L171.06,137.91L171.62,133.39L171.81,46.12L173.12,95.55L173.31,110.55L174.62,186.1L174.81,186.07L175,186.05L181.38,186.06L181.56,185.55L181.75,182.28L182.31,182.63L182.5,182.33L182.88,182.49L183.06,181.84L183.25,181.96L183.44,182.55L183.63,186.25L184,186.06L184.19,191.93L185.31,170.07L185.5,247.39L185.69,244.05L185.88,158.8L186.44,158.79L186.63,187.02L187,157.32L187.57,158.69L187.75,65.46L187.94,121.52L188.32,23.45L188.5,25.65L189.44,141.01L189.63,113.99L189.82,26.39L190.19,47.49L190.38,64.36L190.94,186.33L191.32,181.07L191.5,171.52L191.88,160.94L192.07,171.94L192.25,182.96L192.44,186.11L193,186.06L193.19,186.06L195.44,186.06L195.63,189.79L195.82,196.77L196.38,196.71L196.57,183.54L197.32,182.93L197.51,183.06L197.69,183.18L198.63,182.7L198.82,182.88L199.57,182.87L199.76,182.62L200.69,182.02L200.88,195.25L201.44,182.09L201.82,182.35L202.01,272.45L202.2,182.55L202.76,206.81L202.95,204.86L203.7,158.56L204.07,158.67L204.26,187.24L204.63,181.82L204.82,157.17L205.38,158.74L205.57,158.42L205.76,53.69L206.32,21.62L206.51,32.05L206.7,31.04L207.63,74.07L207.82,78.99L209.14,121.31L209.32,135.68L209.7,153.12L209.89,165.28L210.26,188.09L210.82,186.06L211.01,183.96L211.57,185.81L211.76,185.49L211.95,184.62L212.51,185.89L212.7,184.92L213.64,184.49L213.82,183.67L214.76,182.8L214.95,183.04L215.89,182.78L216.08,182.4L217.76,182.62L217.95,182.17L219.26,182.27L219.45,187.54L219.64,195.73L220.01,182.07L220.2,182.19L220.39,182.6L220.58,182L220.76,193.08L221.14,187.52L221.33,170.88L221.51,172.33L221.7,159.59L222.08,158.39L222.64,158.69L222.83,158.97L223.01,179.29L223.39,156.72L223.58,159.01L223.77,158.72L224.52,34.83L224.7,43.99L224.89,26.72L225.08,25.36L225.27,115.26L225.64,119.69L225.83,34.82L226.02,28.22L226.2,36.2L226.39,44.23L227.33,186.15L227.52,186.13L227.7,157.59L229.02,186.31L229.2,186.05L229.39,186.06L230.33,186.06L230.52,184.58L230.89,185.81L231.27,185.24L231.46,185.03L231.64,186.32L232.21,186.07L232.39,186.06L232.96,186.06L233.14,183.02L234.46,183.06L234.64,182.89L235.58,183.55L235.77,182.97L235.96,182.63L236.89,183.2L237.08,182.86L238.4,182.06L238.58,186.22L239.15,185.77L239.33,186.08L239.52,183.34L240.46,158.68L240.65,158.7L240.83,187.55L241.02,157.16L241.21,158.75L241.4,158.47L241.77,158.65L241.96,119.32L242.15,46.84L242.71,59.64L242.9,59.41L243.27,58.43L243.46,59.14L243.65,54.87L244.02,76.23L244.58,68.35L244.77,79.19L244.96,90.35L245.15,185.58L245.34,122.87L245.71,186.84L245.9,186.13L246.09,171.92L246.65,186.05L246.84,186.07L247.59,186.05L247.77,186.06L248.71,186.06L248.9,184.83L249.27,185.63L249.65,184.82L249.84,184.02L250.77,183.59L250.96,183.56L251.71,183.45L251.9,183.51L252.84,183.27L253.03,183.52L253.78,183.57L253.96,183.14L254.9,182.93L255.09,182.9L255.28,183.1L255.46,186.26L255.84,186.06L256.03,191.91L256.78,181.85L256.96,182.92L257.34,189.48L257.53,178.3L257.71,162.6L257.9,240.94L258.09,158.84L258.28,158.97L258.46,158.68L259.97,158.74L260.15,74.84L260.34,77.18L260.53,62.81L260.72,64.24L260.9,151.22L261.09,152.09L261.28,149.34L261.47,151.2L261.65,79.09L261.84,69.18L262.22,82.77L262.4,92.03L262.78,88.3L262.97,101.53L263.15,116.36L264.84,186.35L265.03,186.06L266.91,186.06L267.09,188.99L267.28,210.09L267.84,208.55L268.03,208.12L268.22,207.71L268.78,208.05L268.97,194.75L270.09,194.58L270.28,194.41L270.66,194.85L270.84,194.64L271.03,189.34L271.97,182.97L272.16,183.04L272.53,183.65L272.91,183.02L273.09,183.26L274.03,182.91L274.22,273.9L274.78,182.16L274.97,182.75L275.16,186.43L275.35,187.41L275.53,177.37L276.47,158.66L276.66,158.68L276.85,187.55L277.22,157.19L277.41,158.97L277.6,158.72L277.78,158.72L277.97,151.68L278.53,24.12L278.72,124.66L278.91,122.28L279.1,29.55L279.66,59.1L279.85,68.64L280.22,82.81L280.41,99.23L280.6,92.03L280.78,101.49L280.97,101.48L281.16,115.42L282.47,186.08L282.66,186.04L282.85,186.04L285.1,185.97L285.29,186.32L286.22,186.06L286.41,186.06L287.35,186.06L287.54,183.69L287.72,183.8L287.91,183.17L288.1,183.03L289.23,183.4L289.41,183.26L289.79,183.54L289.98,183.15L290.16,182.72L290.91,182.82L291.1,182.64L291.48,182.13L291.66,182.47L291.85,183.02L292.6,182.76L292.79,181.88L293.73,162.2L293.91,158.7L294.29,157.43L294.66,187.54L294.85,186.01L295.04,186.28L295.23,186.03L295.42,157.18L296.17,158.71L296.35,111.65L296.54,46.2L297.1,47.47L297.29,47.57L297.85,63.62L298.04,69.59L298.42,79.41L298.6,89.06L300.1,186.12L300.29,186.1L300.48,185.99L303.48,186.06L303.67,186.05L305.36,185.62L305.54,183.67L307.04,183.88L307.23,183.86L308.36,182.94L308.54,183.28L308.73,193.14L308.92,196.15L309.11,183.17L310.23,183.08L310.42,182.61L310.61,181.88L310.8,271.79L311.36,272.23L311.73,163.58L311.92,158.68L313.05,158.68L313.23,158.43L313.8,158.69L313.98,115.58L314.73,28.21L314.92,29.98L315.11,30.6L315.3,26.86L315.48,33.2L315.67,130.11L315.86,146.25L316.05,61.14L316.61,97.35L316.8,127.48L316.99,126.27L317.17,186.54L317.36,186.15L317.55,170.92L318.11,188.16L318.3,186.09L318.49,184.07L318.67,186.04L318.86,210.11L319.24,209.44L319.61,210.84L319.8,209.9L319.99,210.73L320.17,197.49L320.74,198.08L321.11,193.25L321.3,187.92L322.24,183.39L322.42,183.74L323.36,183.37L323.55,183.19L324.68,183.66L324.86,183.69L325.8,183.87L325.99,183.84L326.93,183.42L327.11,183.49L327.3,183.77L327.68,183.15L327.86,183.08L328.24,196.48L328.43,196.28L328.61,287.03L329.55,168.17L329.74,158.91L329.93,158.68L330.11,204.67L330.3,205.01L330.49,157.74L331.43,158.72L331.62,113.49L332.55,34.92L332.74,33.56L332.93,32.27L333.12,122.05L333.3,123.39L333.49,46.34L334.05,163.76L334.24,80.78L334.43,75.39L335.55,163.36L335.74,178.48L336.12,186.15L336.49,186.08L336.68,185.74L337.8,186.06L337.99,186.07L339.31,185.94L339.49,188.05L339.87,274.89L340.06,184.13L340.24,184.08L343.06,183.67L343.24,183.8L344.74,183.19L344.93,183.39L346.06,182.76L346.25,183.1L346.43,183.43L346.62,183.02L346.81,195.49L347.93,159.15L348.12,231.91L348.31,238.75L348.5,158.3L349.25,158.99L349.43,158.73L349.62,158.71L350.18,31.05L350.56,40.42L350.75,38.47L350.93,37.06L351.12,128.07L351.31,114.64L351.5,38.1L352.06,79.22L352.25,177.3L352.43,173.29L352.62,186.21L353,101.8L353.37,127.7L353.56,144.5L354.31,186.12L354.5,186.06L354.69,186.05L356.94,186.06L357.12,185.59L357.31,185.7L357.5,172.36L357.69,171.14L357.87,183.9L359.19,183.48L359.37,183.15L360.5,183.21L360.69,182.85L362,183.19L362.19,182.85L364.06,182.65L364.25,186.24L364.81,181.6L365,187.91L365.75,181.33L365.94,184.7L366.5,158.41L366.69,158.59L366.88,187.28L367.06,186.04L367.25,157.41L367.44,158.75L367.63,177.78L368.75,106.54L368.94,109.48L369.13,168.06L369.5,18.56L369.88,71.6L370.07,103.55L370.63,95.91L371.57,168.54L371.75,183.7L371.94,175.81L372.32,186.1L372.5,186.09L376.26,186.06L376.44,186.06L377.01,185.87L377.19,184.24L379.26,183.54L379.44,183.48L380.19,182.66L380.38,198.99L381.51,181.61L381.88,182.42L382.07,182.42L382.63,182.16L382.82,271.88L383.01,269.19L383.2,175.01L383.76,166.04L383.95,158.91L384.13,158.73L384.32,231.89L384.51,234.95L384.7,158.32L385.45,158.91L385.63,158.71L385.82,158.68L386.01,158.35L386.2,158.74L386.38,104.02L386.57,45.15L386.95,155.53L387.13,148.98L387.32,57.85L387.88,68.86L388.07,62.62L388.82,186.16L389.01,186.12L389.2,186.13L389.39,185.79L389.57,186.16L389.76,162.5L389.95,161.93L390.14,175.19L390.89,201.42L391.07,275.91L391.82,186.27L392.01,186.41L392.2,185.75L392.57,184.87L392.76,211.02L393.7,210.46L393.89,209.5L394.26,209.34L394.45,196.15L394.64,196.09L394.82,183.15L395.57,182.46L395.76,182.78L395.95,183.05L397.26,182.63L397.45,183.01L397.83,182.76L398.2,183.02L398.39,182.92L399.7,182.31L399.89,272.49L400.08,272.83L400.26,182.32L400.83,180.91L401.01,190.22L402.7,158.6L402.89,187.3L403.64,156.96L404.2,158.69L404.39,158.77L405.14,45.99L405.52,58.19L405.7,61.08L407.02,159.51L407.2,125.59L408.7,186.07L409.08,184.78L409.27,185.74L410.58,185.74L410.77,184.89L411.33,186.06L411.52,186L411.71,184.95L412.27,183.41L412.46,184.6L412.64,184.37L412.83,183.23L413.02,184.54L413.39,183.46L413.58,184.49L414.33,183.22L414.52,184.14L414.71,184.43L414.89,183.48L415.08,183.58L415.46,183.79L415.83,183.39L416.02,183.5L416.39,183.25L416.58,184.03L416.77,184.08L416.96,183.29L418.65,183.47L418.83,182.55L419.4,178.34L419.58,187.76L420.15,157.39L420.52,158.68L420.71,158.7L420.9,186.86L421.27,144.79L421.46,72.17L422.21,38.61L422.4,49.37L422.58,138.33L422.96,142.13L423.15,145.54L423.33,156.04L423.52,50.53L423.71,53.29L423.9,71.42L424.27,76.86L424.46,88.61L424.65,85.34L424.84,94.87L425.02,106.84L426.9,186.06L427.09,186.04L427.46,185.97L427.65,185.37L428.4,188.06L428.59,186.05L428.77,186.05L428.96,183.32L429.52,185.45L429.71,185.03L430.09,183.15L430.65,183.57L430.84,183.44L431.77,183.86L431.96,183.76L432.71,183.12L432.9,183.4L433.09,183.65L434.96,182.76L435.15,183L435.34,186.26L435.53,186.06L435.71,170.89L435.9,170.6L436.09,182.84L436.65,182.73L436.84,202.75L437.78,171.34L437.96,159.91L438.15,158.39L438.71,158.97L438.9,158.69L439.47,158.42L439.65,110.57L440.22,36.28L440.4,124.54L440.78,29.5L441.15,71.35L441.34,82.57L441.72,26.28L441.9,42.35L442.09,83.32L442.47,67.29L442.65,94.64L442.84,103.18L443.03,185.42L443.22,185.84L443.4,157.6L444.34,186.12L444.53,185.83L444.72,183.37L445.28,158.75L445.47,171.79L445.65,171.86L446.78,171.86L446.97,183.32L447.91,186.06L448.09,186.06L449.22,185.75L449.41,183.97L451.09,183.19L451.28,183.59L451.47,183.78L451.84,183.24L452.03,187.98L452.41,274.04L452.59,183.74L452.78,183.24L453.91,182.48L454.1,182.91L454.28,195.87L454.66,195.09L454.85,285.85L455.03,272.28L455.22,179.37L455.41,177.24L455.6,184.22L456.53,158.39L456.72,158.97L456.91,186.83L457.28,157.13L457.85,159.33L458.03,158.13L458.41,39.78L458.97,46.62L459.16,59.26L459.35,59.59L459.53,48.39L459.91,55.24L460.1,47.2L461.22,112.84L461.41,131.77L462.16,186.25L462.72,186.06L462.91,186.06L463.1,185.78L463.29,186.06L463.47,188.05L463.66,186.06L463.85,245.61L464.79,200.58L464.97,186.03L465.16,187.38L465.35,203.54L465.54,292.85L465.91,288.16L466.1,198.05L466.47,196.84L466.66,183.56L467.04,185.35L467.22,184.93L467.41,183.67L467.6,183.78L467.79,171.57L467.97,170.98L468.16,183.38L468.35,183.25L468.54,184.07L468.73,184.76L469.1,183.43L469.29,183.48L469.85,183.56L470.04,196.19L470.41,196.24L470.6,183.27L471.54,183.12L471.73,183.37L472.1,182.76L472.29,170.93L472.48,170.67L472.66,182.67L473.23,178.58L473.41,177.13L473.6,261.78L473.98,159.05L474.16,158.68L474.35,158.68L474.54,159.55L474.91,158.4L475.1,187.25L475.48,156.97L476.04,165.94L476.23,156.87L476.42,158.75L476.6,122.59L476.98,186.64L477.54,186.06L477.73,186.06L478.1,186.06L478.29,171.67L478.48,171.86L478.67,158.82L479.23,158.54L479.42,159.1L479.6,167.25L479.98,186.42L480.54,186.05L480.73,186.08L480.92,185.76L481.1,191.7L481.48,199.5L481.67,289.79L482.04,277.46L482.23,186.14L482.61,186.97L482.79,185.88L482.98,185.31L483.17,185.26L483.36,172.48L483.54,171.8L483.73,184.7L485.42,183.28L485.61,183.59L486.54,183.63L486.73,183.51L487.67,183.99L487.86,183.53L488.04,273.7L488.42,183.19L488.61,182.93L488.98,183.54L489.54,183.03L489.73,183.01L490.48,182.69L490.67,195.59L490.86,195.58L491.05,180.5L491.61,165.08L491.8,172.82L491.98,181.82L492.36,158.7L492.55,176.61L492.73,185.84L493.48,158.38L493.86,158.72L494.05,158.58L494.8,158.97L494.98,180.24L495.55,151.7L495.73,185.69L495.92,178.32L496.11,131.16L496.3,107.73L496.48,184.89L496.67,186.19L496.86,165.39L497.99,186.06L498.17,186.08L498.74,186.06L498.92,188.07L499.11,204.59L499.67,197.78L499.86,197.62L500.05,196.22L500.61,197.23L500.8,197.13L501.74,195.94L501.92,195.19L502.11,207.64L502.67,206.98L502.86,203.58L504.18,170.73L504.36,182.9L505.11,182.79L505.3,182.91L505.49,183.25L506.05,182.8L506.24,182.9L506.43,182.63L506.61,182.82L506.8,171.2L507.74,158.75L507.93,158.75L508.11,158.75L508.3,171.79L508.68,171.86L508.86,158.82L509.43,158.75L509.61,167.8L509.8,177.55L509.99,175.74L510.18,263.01L510.55,158.48L511.11,158.55L511.3,158.75L511.49,179.02L512.05,170.04L512.24,156.7L512.43,159.31L512.62,182.97L512.8,180.92L512.99,157.19L513.18,158.71L513.37,132.41L513.55,40.74L514.12,54.67L514.3,64.21L514.87,93.3L515.05,185.98L515.24,186.08L515.43,157.61L516.37,186.39L516.55,186.05L516.74,185.76L517.3,186.05L517.49,184.63L517.68,184.67L517.87,185.74L518.05,185.73L518.24,184.64L519.56,184.55L519.74,184.32L520.68,182.62L520.87,186.25L521.81,186.06L521.99,182.07L523.49,182.84L523.68,182.91L524.62,182.05L524.81,182.33L524.99,182.75L525.37,181.98L525.56,186.23L526.5,186.06L526.68,181.57L526.87,181.92L527.06,180.44L527.25,177.05L527.43,177.96L527.62,187.93L527.81,183.26L528,265.31L528.75,158.71L528.93,159.04L529.12,160.45L529.31,233.82L529.68,158.32L529.87,158.74L530.06,158.4L530.62,158.74L530.81,71.41L531.37,144.54L531.56,55.99L532.68,101.94L532.87,114L534.37,188.26L534.56,186.08L534.75,184.04L535.12,186.07L535.31,186.05L535.5,182.63L535.69,182.12L535.87,186.06L536.06,184.71L536.25,186.32L536.62,186.06L536.81,186.06L537.37,186.06L537.56,189.85L537.75,197.11L538.12,182.95L538.31,182.66L538.5,182.44L538.87,182.92L539.06,183.09L539.25,183.26L539.44,171.35L540,158.75" style="vector-effect: non-scaling-stroke; fill: none; stroke: rgb(0, 191, 255); stroke-opacity: 1; stroke-width: 2px; opacity: 1;"/></g><g class="points"/><g class="text"/></g></g></g><g class="overplot"/><path class="xlines-above crisp" d="M0,0" style="fill: none;"/><path class="ylines-above crisp" d="M0,0" style="fill: none;"/><g class="overlines-above"/><g class="xaxislayer-above"><g class="xtick"><text text-anchor="middle" x="0" y="433" transform="translate(170.03,0)" style="font-family: 'Open Sans', verdana, arial, sans-serif; font-size: 12px; fill: rgb(42, 63, 95); fill-opacity: 1; white-space: pre; opacity: 1;"><tspan class="line" dy="0em" x="0" y="433">Nov 6</tspan><tspan class="line" dy="1.3em" x="0" y="433">2022</tspan></text></g><g class="xtick"><text text-anchor="middle" x="0" y="433" style="font-family: 'Open Sans', verdana, arial, sans-serif; font-size: 12px; fill: rgb(42, 63, 95); fill-opacity: 1; white-space: pre; opacity: 1;" transform="translate(296.08000000000004,0)">Nov 13</text></g><g class="xtick"><text text-anchor="middle" x="0" y="433" style="font-family: 'Open Sans', verdana, arial, sans-serif; font-size: 12px; fill: rgb(42, 63, 95); fill-opacity: 1; white-space: pre; opacity: 1;" transform="translate(422.12,0)">Nov 20</text></g><g class="xtick"><text text-anchor="middle" x="0" y="433" style="font-family: 'Open Sans', verdana, arial, sans-serif; font-size: 12px; fill: rgb(42, 63, 95); fill-opacity: 1; white-space: pre; opacity: 1;" transform="translate(548.1600000000001,0)">Nov 27</text></g></g><g class="yaxislayer-above"><g class="ytick"><text text-anchor="end" x="79" y="4.199999999999999" transform="translate(0,404.39)" style="font-family: 'Open Sans', verdana, arial, sans-serif; font-size: 12px; fill: rgb(42, 63, 95); fill-opacity: 1; white-space: pre; opacity: 1;">−80</text></g><g class="ytick"><text text-anchor="end" x="79" y="4.199999999999999" style="font-family: 'Open Sans', verdana, arial, sans-serif; font-size: 12px; fill: rgb(42, 63, 95); fill-opacity: 1; white-space: pre; opacity: 1;" transform="translate(0,367.98)">−60</text></g><g class="ytick"><text text-anchor="end" x="79" y="4.199999999999999" style="font-family: 'Open Sans', verdana, arial, sans-serif; font-size: 12px; fill: rgb(42, 63, 95); fill-opacity: 1; white-space: pre; opacity: 1;" transform="translate(0,331.57)">−40</text></g><g class="ytick"><text text-anchor="end" x="79" y="4.199999999999999" style="font-family: 'Open Sans', verdana, arial, sans-serif; font-size: 12px; fill: rgb(42, 63, 95); fill-opacity: 1; white-space: pre; opacity: 1;" transform="translate(0,295.15999999999997)">−20</text></g><g class="ytick"><text text-anchor="end" x="79" y="4.199999999999999" style="font-family: 'Open Sans', verdana, arial, sans-serif; font-size: 12px; fill: rgb(42, 63, 95); fill-opacity: 1; white-space: pre; opacity: 1;" transform="translate(0,258.75)">0</text></g><g class="ytick"><text text-anchor="end" x="79" y="4.199999999999999" style="font-family: 'Open Sans', verdana, arial, sans-serif; font-size: 12px; fill: rgb(42, 63, 95); fill-opacity: 1; white-space: pre; opacity: 1;" transform="translate(0,222.34)">20</text></g><g class="ytick"><text text-anchor="end" x="79" y="4.199999999999999" style="font-family: 'Open Sans', verdana, arial, sans-serif; font-size: 12px; fill: rgb(42, 63, 95); fill-opacity: 1; white-space: pre; opacity: 1;" transform="translate(0,185.93)">40</text></g><g class="ytick"><text text-anchor="end" x="79" y="4.199999999999999" style="font-family: 'Open Sans', verdana, arial, sans-serif; font-size: 12px; fill: rgb(42, 63, 95); fill-opacity: 1; white-space: pre; opacity: 1;" transform="translate(0,149.52)">60</text></g><g class="ytick"><text text-anchor="end" x="79" y="4.199999999999999" style="font-family: 'Open Sans', verdana, arial, sans-serif; font-size: 12px; fill: rgb(42, 63, 95); fill-opacity: 1; white-space: pre; opacity: 1;" transform="translate(0,113.12)">80</text></g></g><g class="overaxes-above"/></g></g><g class="polarlayer"/><g class="smithlayer"/><g class="ternarylayer"/><g class="geolayer"/><g class="funnelarealayer"/><g class="pielayer"/><g class="iciclelayer"/><g class="treemaplayer"/><g class="sunburstlayer"/><g class="glimages"/><defs id="topdefs-ea5a16"><g class="clips"/></defs><g class="layer-above"><g class="imagelayer"/><g class="shapelayer"/></g><g class="infolayer"><g class="g-gtitle"><text class="gtitle" x="350" y="50" text-anchor="middle" dy="0em" style="font-family: 'Open Sans', verdana, arial, sans-serif; font-size: 17px; fill: rgb(42, 63, 95); opacity: 1; font-weight: normal; white-space: pre;"><tspan class="line" dy="0em" x="350" y="50">Scenario 4</tspan><tspan class="line" dy="1.3em" x="350" y="50">Microgrid Output</tspan><tspan class="line" dy="2.6em" x="350" y="50">From: November 01, 2022 to November 30, 2022</tspan></text></g><g class="g-xtitle"><text class="xtitle" x="350" y="476.409375" text-anchor="middle" style="font-family: 'Open Sans', verdana, arial, sans-serif; font-size: 14px; fill: rgb(42, 63, 95); opacity: 1; font-weight: normal; white-space: pre;">Time</text></g><g class="g-ytitle"><text class="ytitle" transform="rotate(-90,33.840625,260)" x="33.840625" y="260" text-anchor="middle" style="font-family: 'Open Sans', verdana, arial, sans-serif; font-size: 14px; fill: rgb(42, 63, 95); opacity: 1; font-weight: normal; white-space: pre;">Demand (kW)</text></g></g></svg>