<svg class="main-svg" xmlns="http://www.w3.org/2000/svg" xmlns:xlink="http://www.w3.org/1999/xlink" width="700" height="500" style="" viewBox="0 0 700 500"><rect x="0" y="0" width="700" height="500" style="fill: rgb(255, 255, 255); fill-opacity: 1;"/><defs id="defs-826ccc"><g class="clips"><clipPath id="clip826cccxyplot" class="plotclip"><rect width="437" height="320"/></clipPath><clipPath class="axesclip" id="clip826cccx"><rect x="80" y="0" width="437" height="500"/></clipPath><clipPath class="axesclip" id="clip826cccy"><rect x="0" y="100" width="700" height="320"/></clipPath><clipPath class="axesclip" id="clip826cccxy"><rect x="80" y="100" width="437" height="320"/></clipPath></g><g class="gradients"/><g class="patterns"/></defs><g class="bglayer"/><g class="layer-below"><g class="imagelayer"/><g class="shapelayer"/></g><g class="cartesianlayer"><g class="subplot xy"><g class="layer-subplot"><g class="shapelayer"/><g class="imagelayer"/></g><g class="minor-gridlayer"><g class="x"/><g class="y"/></g><g class="gridlayer"><g class="x"><path class="xgrid crisp" transform="translate(122.3,0)" d="M0,100v320" style="stroke: rgb(255, 255, 255); stroke-opacity: 1; stroke-width: 1px;"/><path class="xgrid crisp" transform="translate(221.02,0)" d="M0,100v320" style="stroke: rgb(255, 255, 255); stroke-opacity: 1; stroke-width: 1px;"/><path class="xgrid crisp" transform="translate(319.73,0)" d="M0,100v320" style="stroke: rgb(255, 255, 255); stroke-opacity: 1; stroke-width: 1px;"/><path class="xgrid crisp" transform="translate(418.44,0)" d="M0,100v320" style="stroke: rgb(255, 255, 255); stroke-opacity: 1; stroke-width: 1px;"/></g><g class="y"><path class="ygrid crisp" transform="translate(0,412.3)" d="M80,0h437" style="stroke: rgb(255, 255, 255); stroke-opacity: 1; stroke-width: 1px;"/><path class="ygrid crisp" transform="translate(0,336.56)" d="M80,0h437" style="stroke: rgb(255, 255, 255); stroke-opacity: 1; stroke-width: 1px;"/><path class="ygrid crisp" transform="translate(0,185.07999999999998)" d="M80,0h437" style="stroke: rgb(255, 255, 255); stroke-opacity: 1; stroke-width: 1px;"/><path class="ygrid crisp" transform="translate(0,109.34)" d="M80,0h437" style="stroke: rgb(255, 255, 255); stroke-opacity: 1; stroke-width: 1px;"/></g></g><g class="zerolinelayer"><path class="yzl zl crisp" transform="translate(0,260.82)" d="M80,0h437" style="stroke: rgb(255, 255, 255); stroke-opacity: 1; stroke-width: 2px;"/></g><path class="xlines-below"/><path class="ylines-below"/><g class="overlines-below"/><g class="xaxislayer-below"/><g class="yaxislayer-below"/><g class="overaxes-below"/><g class="plot" transform="translate(80,100)" clip-path="url(#clip826cccxyplot)"><g class="scatterlayer mlayer"><g class="trace scatter trace587083" style="stroke-miterlimit: 2; opacity: 0.5;"><g class="fills"/><g class="errorbars"/><g class="lines"><path class="js-line" d="M0,160.82L437,160.82" style="vector-effect: non-scaling-stroke; fill: none; stroke: rgb(0, 191, 255); stroke-opacity: 1; stroke-width: 2px; opacity: 1;"/></g><g class="points"/><g class="text"/></g><g class="trace scatter traced7ff16" style="stroke-miterlimit: 2; opacity: 0.5;"><g class="fills"/><g class="errorbars"/><g class="lines"><path class="js-line" d="M0,160.82L3.97,160.49L4.11,157.33L5.14,130.8L5.29,119.11L5.58,126.1L5.73,99.18L5.88,109.41L6.02,126.05L6.46,45.12L6.61,92.8L6.76,109.06L7.2,133.5L7.34,129.77L7.49,112.03L7.79,123.18L7.93,132.84L9.11,151.99L9.25,154.63L10.28,161.01L10.43,161.01L18.07,160.68L18.21,159.39L20.12,70.62L20.42,75.53L20.56,80.96L20.86,105.3L21.01,114.11L21.45,110.21L21.59,111.21L21.74,115.61L23.5,157.5L23.65,160.81L25.27,161.01L25.41,161.01L32.02,160.87L32.17,159.95L33.49,105.09L33.64,107.12L33.78,91.93L35.25,50L35.4,46.75L36.28,70.73L36.43,73.26L38.34,161.02L38.49,161.02L46.12,160.9L46.27,160.22L47.01,117.97L47.15,101.88L47.45,123.09L47.59,102.46L47.74,84.03L47.89,97.25L48.18,61.57L48.47,94.92L48.62,78.26L48.77,63.99L48.91,79.26L49.21,74.61L49.36,86.74L49.65,84L50.97,140.53L51.12,137.69L51.26,135.68L51.41,143.39L51.56,152.7L52.44,161.01L52.59,161.01L60.37,160.53L60.52,157.29L61.4,122.07L61.55,105.06L61.69,103.7L61.84,123.98L63.02,32.76L63.16,56.57L63.31,61.5L63.46,16L63.6,18.99L63.75,49.87L64.78,128.92L64.93,69.65L66.1,160.74L66.25,160.94L67.86,161.01L68.01,161.01L74.33,160.74L74.47,158.63L75.5,134.64L75.65,125.33L76.24,95.37L76.38,96.06L76.53,47.76L76.68,47.66L76.82,70.72L77.41,82.74L77.56,34.43L77.71,41.52L77.85,103.92L78.44,80.2L78.59,83.79L78.73,103L79.76,146.61L79.91,144.7L80.79,161.01L80.94,161.01L88.43,160.82L88.58,159.8L89.46,128.11L89.6,134.16L89.75,98.48L90.78,63.66L90.93,76.48L91.37,82.95L91.51,29.34L91.66,36.72L91.81,117.67L92.1,21.54L92.54,93.27L92.69,127.48L92.83,122.87L92.98,56.44L94.6,161.02L94.89,161.01L95.04,161.01L102.53,160.85L102.68,160.18L103.26,139.91L103.41,130.06L105.32,44.87L105.47,43L106.06,39.38L106.2,40.75L106.35,44.41L107.23,81.79L107.38,92.23L108.85,161.02L108.99,161.01L116.78,160.38L116.93,157.77L117.37,140.13L117.51,130.71L119.42,46.66L119.57,45.83L120.01,41.09L120.3,41.39L120.45,45.95L121.33,85.57L121.48,95.65L122.95,161.01L123.09,161L123.24,161L130.73,160.87L130.88,160.04L131.91,113.31L132.05,104.59L133.82,44.73L133.96,42.62L134.11,42.05L134.26,42.59L134.41,44.52L135.58,93.85L135.73,104.54L137.05,161.01L137.2,161L144.98,160.73L145.13,159.42L145.42,135.12L145.86,149.04L146.01,153.87L146.16,154.47L146.3,150.79L147.63,111.8L147.77,133.85L148.21,138.88L148.8,92.62L148.95,108.5L149.83,145.22L149.98,144.74L151.44,161.01L151.59,161.01L159.23,160.37L159.38,160.06L160.4,149.85L160.55,145.8L160.7,146.91L160.85,141.7L161.58,103.57L161.87,110.94L162.02,106.7L162.46,56.85L162.75,90.92L162.9,92.16L163.2,42.03L163.49,59.82L163.64,70.89L165.11,161.02L165.25,161L173.04,160.91L173.18,160.44L173.77,141.83L173.92,132.24L175.83,41.05L175.98,38.47L176.42,35.8L176.71,37.41L176.86,39.88L177.74,78.66L177.88,89.25L179.35,161.01L179.5,161L179.65,161L187.29,160.62L187.43,158.59L187.87,141.85L188.02,132.55L189.93,43.82L190.08,42.23L190.37,37.84L190.81,39.48L190.96,42.67L192.13,104.68L192.28,115L193.6,161.01L193.75,161.01L201.24,160.89L201.39,160L202.42,113.19L202.56,103.24L203.59,54.98L204.03,55.74L204.18,49.56L205.79,118.61L205.94,115.78L206.23,130.61L206.38,139.19L207.41,161.01L207.56,161L207.7,161L215.49,160.67L215.64,158.14L217.99,31.89L218.13,65.4L218.57,27.24L218.72,43.89L218.87,67.41L219.16,43.32L219.45,70.81L219.6,70.8L220.63,143.58L220.78,142.55L220.92,141.03L221.51,161.02L221.81,161.01L221.95,161.01L229.59,160.62L229.74,158.73L230.18,138.57L230.32,125.43L231.21,63.91L231.35,75.41L231.5,90L232.38,53.61L232.53,81.3L233.12,38.13L233.41,59.34L233.56,79.06L233.7,60.14L234,108.83L234.14,122.75L234.29,120.91L234.44,121.87L234.58,130.4L235.91,161.02L236.05,161.01L243.69,160.83L243.84,160.19L244.43,136.95L244.57,126.32L246.34,44.28L246.48,42.14L246.92,36.65L247.36,40.03L247.51,44.32L248.54,101.02L248.69,112.59L249.86,161.02L250.01,161.01L250.15,161.01L257.79,160.67L257.94,158.54L258.53,136.11L258.67,126.44L260.58,44.19L260.73,42.48L261.02,40.52L261.32,41.24L261.47,43.65L262.64,101.08L262.79,111.49L263.96,161.01L264.11,161L271.89,160.79L272.04,158.15L273.07,118.58L273.22,101.53L273.66,124.79L274.25,53.72L274.39,49.56L275.13,40.59L275.42,42.42L275.57,44.78L276.3,71.82L276.45,79.98L278.06,161.02L278.21,161.01L278.36,161L286,160.75L286.14,159.86L286.73,138.92L286.88,128.68L288.64,48L288.79,45.58L289.23,40.82L289.52,43.46L289.67,46.01L290.11,57.4L290.26,64.27L292.17,161.02L292.46,161.01L292.61,161.01L299.95,160.86L300.1,159.57L300.98,130.98L301.13,118.74L302.01,62.38L302.15,65.56L302.3,97.18L302.74,30.36L303.18,53.97L303.33,58.41L303.77,49.76L304.36,90.43L304.5,78.85L304.8,87.38L304.95,116.87L305.97,160.06L306.12,161.01L314.05,160.98L314.2,160.74L314.64,154.3L314.79,145.45L316.99,45.95L317.14,48.66L317.43,44.54L318.9,101.71L319.05,115.53L319.19,115.87L319.34,126.61L320.52,161.02L320.66,161.01L320.81,161.01L328.3,160.81L328.45,160.01L329.04,140.39L329.18,130.32L331.09,47.49L331.24,45.89L331.53,43.38L331.83,45.76L331.97,46.71L332.71,72.02L332.85,80.17L334.62,161.03L334.76,161.02L334.91,161.02L342.4,160.6L342.55,157.28L343.58,112.31L343.72,98.88L345.19,48.28L345.34,45.69L345.63,41.82L346.07,45.81L346.22,49.05L347.1,89.54L347.25,99.36L348.87,161.03L349.01,161.02L356.5,160.62L356.65,158.23L357.53,124.23L357.68,102.53L358.27,68.56L358.56,83.5L358.71,86.59L359.44,60.67L359.59,61.13L359.74,55.29L360.47,100.09L360.62,78.38L360.76,72.46L360.91,80.23L361.06,75.29L361.2,88.59L361.35,89.04L361.5,113.63L362.53,161.02L362.67,161.02L370.75,160.3L370.9,156.24L372.37,96.72L372.51,86.54L372.96,82.36L373.25,106.09L373.4,100.92L373.69,104.26L373.84,102.28L373.98,97.08L376.63,161.01L376.77,161.01L384.71,160.79L384.85,160.04L386.76,95.23L386.91,49.88L387.06,50.3L387.2,44.24L387.79,36.44L387.94,45.04L388.09,112.59L388.23,30.88L388.67,46.75L388.82,47.57L389.11,135.45L389.7,120.29L389.85,140.64L390.88,161.02L391.02,161.01L399.25,160.47L399.4,157.14L400.57,106.26L400.86,116.84L401.01,119.24L401.75,111.66L401.89,117.58L402.48,91.25L402.63,127.02L402.77,130.11L402.92,114.99L403.8,148.34L403.95,146.27L404.1,141.6L404.98,161.01L405.12,161.01L413.06,160.69L413.2,158.58L414.67,126.52L414.82,125.93L415.26,105.83L415.55,120.94L415.7,123.8L415.85,124.36L415.99,128.84L416.44,125.69L416.73,136.35L416.88,129.52L417.02,129.68L417.17,135.91L417.46,133.83L417.9,142.76L418.05,149.35L419.37,161.01L419.52,161.01L427.16,160.51L427.31,156.18L428.92,124.18L429.07,133.68L429.21,133.09L429.36,133.35L429.51,116.56L429.8,123.81L429.95,146.7L430.54,124.61L430.83,135.26L430.98,142.13L431.27,129.69L431.42,131.97L431.57,138.28L432.45,155.42L432.59,159.01L433.47,161.03L433.62,161.03L437,161.03" style="vector-effect: non-scaling-stroke; fill: none; stroke: rgb(255, 0, 0); stroke-opacity: 1; stroke-width: 2px; opacity: 1;"/></g><g class="points"/><g class="text"/></g><g class="trace scatter trace9e8e6d" style="stroke-miterlimit: 2; opacity: 0.5;"><g class="fills"/><g class="errorbars"/><g class="lines"><path class="js-line" d="M0,160.82L1.76,160.82L1.91,161.8L2.2,241.13L2.35,196.3L2.5,180.88L3.08,180.76L3.23,189.24L3.53,191.61L3.67,182.2L4.11,197.72L4.26,195.78L4.41,181.28L4.99,181.81L5.43,146.65L5.58,230.1L6.46,92.12L6.61,141.11L6.76,144.8L6.9,146.39L7.05,159.08L7.2,161.66L7.34,152.41L7.49,136.46L7.64,137.71L7.79,146.54L9.4,265.58L9.55,208.23L9.99,281.11L10.28,202.64L10.43,211.7L10.58,214.2L10.72,204.92L10.87,203.34L11.02,202.66L11.16,204.68L11.31,211.79L11.46,213.93L11.6,205.33L11.75,202.76L12.34,203.3L12.49,262.04L12.63,276.74L12.78,267.78L12.93,205.34L13.81,180.53L13.95,180.83L14.25,180.5L14.54,182.01L14.69,180.36L15.42,180.48L15.57,189.23L16.01,191.28L16.16,182.5L17.04,202.24L17.19,193L17.63,180.13L17.92,190.91L18.07,191.31L18.95,254.17L19.1,194.8L19.98,132.9L20.12,174.01L20.27,202.18L20.56,133.8L20.71,130.83L21.01,161.92L21.45,148.94L21.59,139.89L22.47,165.12L22.62,181.53L23.06,190.69L23.21,257.71L23.36,273.62L23.5,216.2L23.65,205.79L24.24,182.58L24.68,182.61L24.82,183.15L25.12,195.74L25.27,193.81L25.41,254.44L25.56,272.71L25.71,217.78L25.85,203.26L26,203.23L26.15,204.7L26.73,190.23L27.03,190.67L27.17,190.14L28.79,190.43L28.94,189.32L29.38,191.62L29.53,182.91L30.26,180.13L30.41,180.15L30.55,180.56L31.14,200.2L31.43,191.55L31.58,191.31L31.73,182.55L31.88,240.29L32.76,174.82L32.9,165.01L33.2,143.98L33.34,197.66L33.64,163.08L34.23,215.55L34.37,194.2L34.81,120.45L34.96,97.26L35.55,110.69L35.69,90.57L35.84,90.66L35.99,93.22L36.72,117.32L36.87,138.47L37.02,140.06L37.16,154.36L37.75,208.47L38.34,206.26L38.49,195.57L39.81,182.24L39.95,182.81L41.28,180.88L41.42,181.06L41.57,181.3L42.3,180.81L42.45,181.31L42.75,180.78L43.04,181.58L43.19,180.89L43.48,181.28L44.21,179.96L44.36,180.65L45.83,180.15L45.98,180.58L46.27,179.41L46.42,175.74L46.71,240.79L47.01,149.77L47.15,194.26L47.3,216.81L48.18,108.71L48.33,119.72L48.47,118.58L48.77,87.29L49.06,98.14L49.21,157.98L49.5,192.23L49.65,123.03L49.8,111.65L51.12,168.82L51.26,167.67L51.85,203.78L52.15,195.23L52.29,192.99L52.44,193.06L52.59,184.85L53.47,195.46L53.62,193.73L53.91,204.43L54.35,195.74L54.5,193.62L54.94,191.92L55.08,192.32L55.23,183.43L55.38,180.86L55.97,180.97L56.11,181.48L56.85,180.59L56.99,181.1L57.14,183.28L57.43,180.96L57.73,181.08L57.87,189.62L58.17,192.24L58.32,182.96L58.9,180.78L59.05,181.1L59.2,182.92L59.49,180.42L59.64,181.14L59.78,189.83L59.93,191.75L60.37,191.27L60.52,183.97L60.67,183.46L60.81,173.16L60.96,160.17L61.11,162.11L61.25,224.77L62.13,140.57L62.28,153.88L62.43,173.76L62.58,159.46L62.72,104.6L62.87,113.72L63.02,69.3L63.46,51.18L63.9,100.57L64.04,111.56L64.19,106.84L64.34,138.39L64.63,140.66L64.78,218.44L65.22,136.58L65.51,167.87L65.66,230.21L65.81,249.18L66.1,195.86L66.25,205.53L66.39,206.22L66.54,266.34L66.84,281.2L66.98,219.98L67.57,182.22L67.86,182.64L68.01,182.29L68.16,182.64L68.3,191.31L68.6,193.48L69.04,191.42L69.19,192.09L69.33,191.34L69.48,191.57L69.63,182.98L70.51,180.4L70.65,180.56L71.54,180.7L71.68,181.22L71.98,179.93L72.12,180.35L72.27,241.14L72.86,180.25L73.15,180.46L73.3,180.51L73.45,180.06L73.59,180.32L73.74,249.8L74.62,176.74L74.77,183.54L74.91,184.61L75.06,180.49L75.21,187.49L75.35,184.65L75.5,195.23L75.65,257.64L75.8,275.9L75.94,219.94L76.09,185.06L76.38,217.54L76.68,122.05L77.12,140.17L77.26,153.48L77.41,162.12L77.56,113.86L77.71,110.72L77.85,158.46L78.44,117.56L78.59,131.3L78.73,152.7L79.03,181.06L79.61,170.26L79.76,173.69L79.91,171.06L80.06,179.54L80.2,183.95L80.35,184.29L80.64,183.55L80.79,183.01L81.08,182.73L81.23,192.29L82.26,203.19L82.55,203.13L82.7,194.49L82.99,190.22L83.58,190.48L83.73,190.63L84.17,191.07L84.61,190.1L84.76,190.41L84.9,186.3L85.49,180.8L85.78,181.21L85.93,241.33L86.22,257.09L86.37,195.61L86.52,180.54L86.67,241.16L86.81,256.33L86.96,195.21L87.11,180.36L87.25,180.84L87.4,180.58L87.55,188.69L87.84,191.27L87.99,191.12L88.13,182.29L89.31,169.79L89.46,161.21L89.6,228.05L90.04,135.89L90.19,133.28L90.63,137.24L91.07,89.68L91.22,72.2L91.51,67.17L91.81,162.29L91.95,127.3L92.1,78.78L92.69,175.93L92.83,173.07L92.98,96.31L93.42,147.11L93.57,232.74L93.86,264.13L94.16,211.43L94.3,224.8L94.45,228.1L94.6,216.94L94.74,206.02L95.48,193.61L95.63,184.87L96.07,182.18L96.51,182.36L96.65,182.25L96.8,182.53L96.95,181.4L97.09,180.75L97.83,180.94L97.98,180.34L98.12,179.92L98.27,180.69L98.56,180.42L98.71,180.6L99,180.36L99.89,181.12L100.03,180.24L100.33,180.8L100.47,180.4L100.62,179.58L100.91,180.41L101.06,240.72L101.94,179.4L102.09,179.07L102.38,181.16L102.68,178.57L102.82,179.94L102.97,186.18L103.7,159.81L103.85,211.78L104,218.83L104.15,149.68L105.03,93.54L105.17,159.29L105.32,173.94L105.47,159.91L105.61,96.71L105.91,76.47L106.35,97.25L106.5,117.35L108.41,192.9L108.7,182.81L108.85,182.32L109.14,181.7L109.87,182.52L110.02,182.25L110.9,191.9L111.05,190.4L112.08,189.21L112.22,189.39L112.37,189.66L113.11,189.08L113.25,189.59L113.55,189.21L113.69,185.2L114.57,179.29L114.72,179.41L115.31,179.83L115.46,188.23L115.6,190.37L115.75,190.29L115.9,181.46L116.04,179.01L116.19,240.47L116.48,179.11L116.78,189.31L116.93,248.9L117.66,161.79L117.81,162.16L117.95,164.43L118.98,85.72L119.13,148.73L119.28,163.21L119.42,161.21L119.57,108.06L119.86,75.53L120.01,142.5L120.16,161.44L120.45,94.25L120.89,105.92L121.04,114.77L121.92,171.68L122.07,184.72L122.21,184.95L122.36,201.15L122.51,207.06L122.8,193.75L122.95,193.29L123.39,192.37L123.54,193.11L123.68,183.05L123.98,180.9L124.12,181.12L124.27,186.63L124.86,190.68L125,189.95L125.15,189.4L126.18,188L126.33,188.65L126.91,188.84L127.21,187.99L127.35,188.31L127.65,187.87L127.79,188.56L127.94,186.52L128.68,178.58L128.82,178.93L128.97,179.07L129.26,178.57L129.41,187.59L129.56,189.45L129.7,189.21L129.85,181.08L130.15,178.57L130.29,239.35L130.73,189.63L131.17,194.64L131.32,189.65L131.47,184.12L131.61,232.3L131.76,230.24L131.91,150.03L132.2,202.35L132.5,125.91L132.64,103.31L133.52,69.76L133.67,128.25L133.82,140.77L133.96,78.57L134.11,72.63L134.26,73.9L134.41,136.44L134.55,156.79L134.7,97.65L134.85,87.29L134.99,85.33L135.14,86.68L135.29,92.31L136.9,202.5L137.05,201.17L137.2,200.98L137.49,267.94L137.78,205.54L137.93,190.51L138.52,188.99L138.66,180.73L139.25,180.24L139.4,181.21L139.55,179.28L140.87,179.84L141.02,179.38L141.6,179.04L141.75,179.46L141.9,179.51L143.37,179.13L143.51,179.34L144.25,178.34L144.39,179.09L144.69,190.13L144.83,250.39L145.42,163.1L145.72,206.76L145.86,190.82L146.3,189.83L146.45,242.14L146.6,181.22L147.18,237.3L147.33,225.87L147.48,167.89L147.63,131.96L148.21,169.83L148.36,160.72L148.8,123.56L149.09,160.23L149.24,152.55L150.12,167.48L150.27,166.76L150.42,232.47L150.71,266.23L150.86,207.32L151,192.59L151.15,191.94L151.3,252.83L151.44,268.14L151.59,258.71L151.74,196.06L152.18,180.79L152.47,192.14L152.62,191.64L152.91,192.05L153.06,195.61L153.21,198.69L153.35,182.29L154.09,179.26L154.24,179.38L154.38,179.21L154.82,178.85L154.97,187.77L155.12,190.18L155.85,189.94L156,190.55L156.29,189.84L156.44,181.31L156.73,178.57L157.32,178.84L157.47,178.88L157.76,179.18L157.91,188.75L158.2,183.69L158.35,187L158.5,189.87L158.64,250.58L159.08,181.7L159.23,189.66L159.38,190.47L159.82,200.53L159.96,198.31L160.11,188.76L160.26,253.89L160.85,187.86L160.99,183.61L161.14,184.4L161.29,171.24L162.46,87.98L162.61,118.92L162.9,127.4L163.05,118.65L163.2,78.27L163.78,184.27L163.93,134.89L164.08,140.24L164.96,191.12L165.11,190.79L165.25,190.65L165.69,180.64L165.84,190.16L166.13,192.11L166.57,191.03L166.72,191.39L167.16,191.12L167.31,182.4L167.75,178.87L168.19,178.93L168.34,179.42L169.07,178.52L169.22,178.91L169.37,179.43L169.51,239.39L169.66,254.4L169.81,194.08L170.69,178.46L170.83,178.7L171.13,178.66L171.27,187.64L171.42,190.38L171.72,189.3L171.86,181.07L172.16,178.55L172.6,178.84L172.74,187.43L173.04,190.02L173.18,189.1L173.33,179.21L173.62,181.6L173.92,173.37L174.07,162.43L174.36,148.21L174.51,137.46L174.8,119.34L174.95,174.7L175.09,183.54L175.24,128.01L175.98,89.48L176.12,96.61L176.27,158.9L176.71,176.14L176.86,122.28L177.15,109.36L177.44,123.48L177.59,136.43L178.91,203.37L179.35,196.97L179.5,192.16L180.97,180.01L181.12,180.39L182.44,178.3L182.59,178.76L182.73,178.95L183.03,178.17L183.17,178.38L183.32,178.13L183.91,178.17L184.05,178.5L184.2,178.75L185.38,178.11L185.52,178.5L186.4,177.68L186.55,186.52L186.99,200L187.14,192.07L187.29,190.32L187.43,189.26L187.58,179.39L187.73,180.45L187.87,169.75L188.02,161.12L188.17,211.52L188.31,214.96L188.46,143.87L188.9,181.8L189.49,90.4L189.64,146.03L190.08,171.53L190.22,113.78L190.37,100.57L190.81,114.82L190.96,109.56L191.1,117.05L191.4,123.76L191.55,123.44L191.69,112.27L193.16,195.88L193.46,190.99L193.6,190.74L194.04,180.02L194.34,180.51L194.48,241.2L194.63,256.51L194.92,256.38L195.07,195.93L195.95,179.36L196.1,178.01L196.25,178.63L196.83,177.88L196.98,177.82L197.42,177.75L197.57,178.2L197.71,179.03L197.86,179.42L198.16,178.94L198.3,177.55L198.45,178.63L199.04,178.18L199.18,177.51L199.77,177.45L199.92,178.94L200.07,179.46L200.21,178.84L200.36,187.53L200.51,188.84L200.65,196.97L200.95,210.44L201.24,198.87L201.39,189.35L201.68,173.42L201.83,182.96L201.97,234.55L202.42,238.44L202.86,122.26L203,184.06L203.15,194.54L203.3,145.85L204.33,105.34L204.47,117.32L205.06,202.02L205.21,153.75L205.65,258.4L205.94,174.64L206.09,170.92L206.82,208.67L207.26,205.37L207.41,200.78L207.85,200.35L208,192.05L208.29,189.05L208.88,189.41L209.03,189.1L209.61,190.33L209.76,189.16L209.91,187.09L210.35,177.67L210.79,178.11L210.94,177.94L211.23,179.73L211.52,178.28L211.67,177.56L212.11,177.1L212.4,177.85L212.55,177.43L213.29,179.09L213.43,178.86L213.58,177.19L214.75,177.25L214.9,178.72L215.05,239.75L215.64,175.66L215.78,183.76L215.93,183.96L216.08,195.5L216.66,169.19L216.81,157.03L217.69,104.89L217.84,158.27L217.99,160.14L218.13,130.04L218.57,72.28L219.01,97.12L219.16,89.92L219.75,224.02L219.9,174.46L220.04,156.91L220.48,149.63L220.63,164.85L220.78,163.16L220.92,168.01L221.07,182.54L221.95,211.63L222.25,211.14L222.39,211.39L223.27,188.72L223.42,189.9L223.57,190.37L224.01,187.25L224.16,177.77L224.6,178.1L224.89,177.52L225.04,177.62L225.62,179.34L225.92,178.58L226.06,177.74L226.36,177.39L226.51,178.05L226.65,178.27L227.09,177.62L227.24,177.75L227.39,179.07L227.68,179.33L227.83,177.77L227.97,177.33L228.42,177.73L228.56,178.05L228.86,177.34L229,178.23L229.15,238.89L229.88,173.53L230.03,178.39L230.18,176.39L230.32,225.75L230.77,134.59L230.91,122.23L231.21,91.94L231.65,115.33L231.79,119.58L232.38,164.2L232.53,206.78L233.12,81.45L233.26,157.22L233.41,163.11L233.56,184.48L233.7,103.58L233.85,89.82L234.73,167.9L234.88,175.62L235.32,201.39L235.76,190.56L235.91,190.89L236.05,191.17L236.2,190.79L236.35,181.46L236.79,179.35L236.93,180.82L237.08,189.88L237.23,191.24L237.82,190.17L237.96,189.21L238.26,188.6L238.4,179.76L238.55,177.96L238.7,186.67L239.14,190.44L239.58,188.71L239.73,188.63L240.46,177.36L240.75,177.6L240.9,177.69L241.05,177.73L241.19,238.97L241.93,177.25L242.08,177.76L242.22,177.76L242.81,177.28L242.96,186.34L243.1,188.77L243.25,180.16L243.4,178.61L243.69,179.13L243.84,187.53L244.28,175.33L244.43,157.71L244.57,144.45L244.72,203.48L244.87,209.59L245.01,138.65L245.6,156.93L246.19,66.16L246.34,62.95L246.78,56.63L246.92,66.34L247.07,66.52L247.22,67.91L248.25,108.71L248.39,129.31L249.57,190.72L249.71,181.9L249.86,179.9L250.01,240.51L250.15,255.64L250.3,195.19L250.45,179.79L251.04,180.24L251.18,179.41L251.33,179.67L251.48,179.86L251.92,181.01L252.21,177.67L252.51,177.85L252.65,178.05L253.68,177.21L253.83,177.91L254.27,176.97L254.41,179.31L254.56,179.35L254.71,178.48L255.44,177.39L255.59,177.84L255.74,177.22L256.47,179.05L256.62,248.43L257.06,264.44L257.35,188.68L257.5,189.97L257.65,179.78L258.67,148.5L258.82,137.85L260.44,100.01L260.58,158.83L260.73,170.96L260.88,165.92L261.02,114.06L261.32,93.26L261.76,108.21L261.91,111.1L263.23,176.54L263.38,184.86L263.52,185.07L263.67,182.27L264.7,180.21L264.84,180.24L265.58,191L265.73,190.95L265.87,190.62L266.31,189.27L266.46,180.44L267.05,177.49L267.34,177.6L267.49,178.34L267.78,178.77L267.93,178.55L268.08,177.37L269.25,177.75L269.4,177.61L270.13,177.48L270.28,179.26L271.16,177.28L271.31,186.3L271.45,188.58L271.6,188.26L271.75,179.85L272.19,172.44L272.34,226.24L272.48,243.11L272.63,190.52L272.78,176.91L272.92,181.15L273.07,155.48L273.22,205.58L273.51,152.72L273.66,178.42L273.8,132.33L274.25,118.85L274.39,176.55L274.54,197.9L274.69,187.89L274.83,121.85L275.71,94.55L275.86,93.81L278.21,191.98L278.36,191.09L278.5,190.97L279.24,190.45L279.39,181.72L280.27,178.74L280.41,178.4L281.44,177.58L281.59,178.23L281.88,179.54L282.18,177.89L282.32,177.26L283.21,177.91L283.35,177.75L283.5,177.36L283.94,178.01L284.09,178.81L284.53,177.61L284.67,186.09L284.82,188.6L284.97,188.38L285.11,179.49L285.41,253.54L285.7,177.23L285.85,177.76L286,176.84L286.14,177.05L286.29,176.27L286.44,174.81L287.76,107.73L287.91,154.53L288.05,164.99L288.2,100.42L288.35,79.94L288.79,114.34L288.93,164.34L289.08,173.68L289.37,156.09L289.52,87.69L289.67,72.92L290.11,93.18L290.26,101.75L290.7,132.18L290.84,144.49L291.14,156.65L291.28,166.75L291.73,203.1L292.17,192.78L292.31,190.9L292.46,191.36L292.61,183.66L292.75,179.92L293.05,179.96L293.19,188.66L293.34,192.42L293.93,191.2L294.08,190.87L294.52,189.77L294.66,180.49L295.25,177.77L295.54,178.24L295.69,178.21L295.84,177.93L295.98,178.57L296.13,179.07L296.43,177.61L296.87,178.5L297.01,178.59L297.16,179.61L297.6,178.12L297.75,178.27L298.04,179.12L298.48,177.71L298.63,178L298.78,178.02L299.07,178.48L299.36,177.42L299.51,186.34L299.66,189.5L299.8,181.29L299.95,177.7L300.39,172.03L300.54,172.86L300.69,240.9L301.86,107.79L302.01,91.58L302.15,95.24L302.3,137.43L302.74,84.4L303.18,95.82L303.33,101.7L304.36,206.15L304.5,148.48L304.8,132.58L304.95,157.6L305.09,165.48L305.39,244.02L305.83,177.72L305.97,179.97L306.12,180.37L306.27,183.01L306.56,179.77L306.71,190.01L307.3,192.01L307.44,190.34L307.59,190.64L308.18,190.93L308.32,181.92L309.06,177.97L309.21,178.06L309.35,178.54L309.5,178.44L309.65,178.93L309.79,177.82L310.09,177.48L310.23,178.19L310.53,177.95L310.67,177.65L310.97,178.81L311.41,178.46L311.56,177.65L311.85,179.34L312,238.62L312.88,177.84L313.02,177.82L313.46,189.71L313.61,179.67L313.76,177.16L313.91,177.72L314.05,177.4L314.2,247.26L314.35,263.71L314.49,200.68L314.64,191.64L316.11,108.84L316.26,104.87L316.55,100.51L316.7,155.63L316.84,165.07L316.99,102.77L317.43,83.96L317.72,103.63L317.87,185.49L318.02,179.12L318.17,118.98L318.31,96.31L318.75,118.56L318.9,133.73L319.19,208.65L319.34,232.43L319.63,175.15L320.22,182.37L320.37,180.66L320.52,180.51L320.66,181.66L320.81,179.97L321.4,180.47L321.54,180.51L323.31,177.75L323.45,177.96L323.6,179.1L324.48,177.57L324.63,179.24L325.51,178.23L325.66,178.43L325.8,179.02L325.95,187.16L326.24,189.51L326.39,189.11L326.54,181.31L326.98,177.72L327.27,178.4L327.42,179.24L327.71,177.98L328.15,178.56L328.3,179.49L328.89,253.71L329.04,184.69L329.18,160.86L330.21,110.63L330.36,108.49L331.68,64.25L331.83,68.26L331.97,77.07L332.27,161.14L332.71,102.96L332.85,113.91L334.47,194.42L334.76,191.74L334.91,184.25L335.06,180.14L335.79,180.54L335.94,189.31L336.82,200.75L336.97,200.73L337.11,191.73L338.58,178.23L338.73,179.26L339.76,177.96L339.91,178.94L340.05,179.31L340.2,178.4L340.35,177.96L341.08,179.41L341.23,177.88L341.52,178.36L341.81,177.91L341.96,178.59L342.11,179.43L342.4,177.75L342.55,184.53L342.99,175.53L343.14,161.07L343.43,220.95L343.72,137.9L343.87,130.17L344.75,101.76L344.9,168.45L345.05,179.33L345.19,118.92L345.49,85.7L345.78,96.13L345.93,147.1L346.07,153.39L346.22,95.67L346.37,84.05L346.81,102.48L346.96,107.82L347.69,159.92L347.84,177.12L348.28,196.24L348.72,194.57L348.87,191.87L349.6,180.48L349.75,182.11L349.89,180.38L350.04,180.29L350.19,180.71L350.33,181.73L350.92,178.61L351.22,178.86L351.36,178.74L351.95,178.57L352.1,178.73L352.24,179.03L353.13,178.53L353.27,178.87L353.57,178.35L353.71,179.52L354.59,178.07L354.74,178.34L355.03,178.88L355.77,177.86L355.92,178.38L356.06,178.92L356.65,175.96L356.8,181.3L357.68,148.95L357.83,208.18L358.27,108.13L358.71,127.03L358.85,108.19L359,176.28L359.44,93.27L359.59,90.89L359.74,86.39L359.88,112.54L360.47,140.27L360.62,120.47L360.76,114.9L361.06,105.48L361.2,121.85L361.35,121.44L361.5,145.5L362.53,211.96L362.67,203.62L363.26,190.7L363.55,192.8L363.7,190.98L364.29,179.95L364.44,241.03L364.73,257.22L364.88,194.75L365.02,178.85L365.17,239.38L365.32,253.91L365.76,178.16L366.35,178.32L366.49,178.32L367.23,178.39L367.37,177.95L367.67,179.84L368.11,178.44L368.26,177.89L368.7,178.47L368.84,238.46L369.43,177.64L369.72,178.17L369.87,178.16L370.02,177.67L370.31,179.02L370.46,177.89L370.61,238.29L371.49,161.34L371.63,153.18L372.66,220.58L372.81,207.24L372.96,129.47L373.1,123.72L373.25,136.44L373.54,131.02L373.69,135.33L373.84,123.84L374.28,131.67L374.42,204.67L374.57,216.86L374.72,209.13L374.87,159.34L375.75,194.04L376.04,191.99L376.19,182.54L376.63,180.7L376.77,197.47L376.92,202.74L377.07,271.18L377.36,289.31L377.51,227.88L378.39,179.53L378.54,180.05L378.68,179.68L378.98,178.94L379.13,178.4L379.42,179.76L379.57,178.27L379.71,178.44L379.86,178.28L380.59,180L380.74,178.76L380.89,178.29L381.77,178.75L381.92,178.44L382.36,179.24L382.5,178.3L382.8,253.96L383.24,178.27L383.38,178.41L383.53,178.91L383.68,178.42L383.83,186.99L384.12,189.43L384.27,180.69L385.74,151.83L385.88,147.25L386.18,140.2L386.47,210.22L386.62,154.01L387.06,69.55L387.5,76.01L387.64,83.04L387.79,79.36L387.94,86.56L388.09,155.08L388.82,71.17L388.97,125.19L389.41,104.24L389.99,195.39L390.14,200.81L390.44,304L390.88,213.55L391.02,210.93L391.32,204.89L391.46,195.5L392.05,190.67L392.35,190.99L392.49,190.85L393.23,178.39L393.37,178.55L393.52,178.02L393.81,179.42L394.11,177.72L394.25,178.37L394.4,187.33L395.14,189.98L395.28,189.11L395.43,189.51L395.58,189.27L395.72,241.16L396.02,254.6L396.16,193.5L396.75,177.62L397.05,177.83L397.19,177.5L397.63,179L397.93,177.84L398.07,186.79L398.51,189.02L398.66,250.23L399.54,169.61L399.69,171.25L399.98,258.29L400.28,163.6L400.42,155.46L400.57,137.03L401.16,143.93L401.31,145.09L402.04,158.88L402.19,158.72L402.33,142.11L402.48,130.17L402.63,226.77L402.92,181.16L403.22,257.74L403.36,210.96L403.66,186.38L403.8,189.62L403.95,246.68L404.24,268.01L404.39,199.1L404.83,258.13L404.98,196.33L405.12,180.44L405.86,180.04L406.01,180.98L406.59,179.57L406.74,179.87L406.89,179.93L407.18,178.77L407.33,238.95L407.47,253.96L407.62,253.55L407.77,194.16L408.65,178.03L408.8,178.62L409.09,177.9L409.24,178.86L409.38,179.34L409.68,178.06L410.27,178.26L410.41,178.57L410.56,179.06L410.71,177.98L411,178.16L411.15,177.55L411.73,179.29L411.88,178.3L412.03,186.76L412.32,211.05L412.76,191.54L412.91,180.36L413.06,178.32L413.2,237.58L413.79,165.21L414.09,178.97L414.23,185.02L414.53,259.45L414.82,164.99L414.97,169.83L415.11,153.14L415.55,172.34L415.7,174.53L415.85,175.16L415.99,171.18L416.14,174.71L416.29,160.51L417.02,181.28L417.17,177.01L417.32,169.71L417.46,165.16L417.61,170.32L417.76,230.59L418.05,245.01L418.2,186.64L419.08,203.47L419.23,201.88L419.37,202.04L420.25,179.82L420.4,180.29L420.55,180.4L421.43,178.41L421.58,178.47L421.72,179.5L422.16,177.91L422.46,178.45L422.6,178.7L422.75,177.89L423.19,178.73L423.34,179.03L424.22,178.19L424.37,178.19L424.51,178.08L424.66,179.17L425.54,177.83L425.69,177.94L425.84,178.17L426.28,179.42L426.72,178.89L426.86,178.6L427.16,179.41L427.31,175.83L427.75,176.68L428.19,171.54L428.33,173.95L428.63,167.12L428.77,217.84L429.07,173.62L429.21,242.73L429.36,260.11L429.66,158.36L430.24,183.92L430.39,231.72L430.68,247.57L430.83,180.69L431.27,158.13L431.57,170.08L431.71,186.2L431.86,185.09L432.01,185.8L432.15,245.82L432.3,263.41L432.45,201.18L432.59,189.43L433.47,180.71L433.62,180.34L434.06,180.05L434.36,181.11L434.5,182.77L435.38,179.83L435.53,178.52L435.82,178.51L435.97,179.6L436.27,178.71L436.41,178.25L436.85,178.81L437,178.69" style="vector-effect: non-scaling-stroke; fill: none; stroke: rgb(0, 128, 0); stroke-opacity: 1; stroke-width: 2px; opacity: 1;"/></g><g class="points"/><g class="text"/></g></g></g><g class="overplot"/><path class="xlines-above crisp" d="M0,0" style="fill: none;"/><path class="ylines-above crisp" d="M0,0" style="fill: none;"/><g class="overlines-above"/><g class="xaxislayer-above"><g class="xtick"><text text-anchor="middle" x="0" y="433" transform="translate(122.3,0)" style="font-family: 'Open Sans', verdana, arial, sans-serif; font-size: 12px; fill: rgb(42, 63, 95); fill-opacity: 1; white-space: pre; opacity: 1;"><tspan class="line" dy="0em" x="0" y="433">Dec 4</tspan><tspan class="line" dy="1.3em" x="0" y="433">2022</tspan></text></g><g class="xtick"><text text-anchor="middle" x="0" y="433" style="font-family: 'Open Sans', verdana, arial, sans-serif; font-size: 12px; fill: rgb(42, 63, 95); fill-opacity: 1; white-space: pre; opacity: 1;" transform="translate(221.02,0)">Dec 11</text></g><g class="xtick"><text text-anchor="middle" x="0" y="433" style="font-family: 'Open Sans', verdana, arial, sans-serif; font-size: 12px; fill: rgb(42, 63, 95); fill-opacity: 1; white-space: pre; opacity: 1;" transform="translate(319.73,0)">Dec 18</text></g><g class="xtick"><text text-anchor="middle" x="0" y="433" style="font-family: 'Open Sans', verdana, arial, sans-serif; font-size: 12px; fill: rgb(42, 63, 95); fill-opacity: 1; white-space: pre; opacity: 1;" transform="translate(418.44,0)">Dec 25</text></g></g><g class="yaxislayer-above"><g class="ytick"><text text-anchor="end" x="79" y="4.199999999999999" transform="translate(0,412.3)" style="font-family: 'Open Sans', verdana, arial, sans-serif; font-size: 12px; fill: rgb(42, 63, 95); fill-opacity: 1; white-space: pre; opacity: 1;">−100</text></g><g class="ytick"><text text-anchor="end" x="79" y="4.199999999999999" style="font-family: 'Open Sans', verdana, arial, sans-serif; font-size: 12px; fill: rgb(42, 63, 95); fill-opacity: 1; white-space: pre; opacity: 1;" transform="translate(0,336.56)">−50</text></g><g class="ytick"><text text-anchor="end" x="79" y="4.199999999999999" style="font-family: 'Open Sans', verdana, arial, sans-serif; font-size: 12px; fill: rgb(42, 63, 95); fill-opacity: 1; white-space: pre; opacity: 1;" transform="translate(0,260.82)">0</text></g><g class="ytick"><text text-anchor="end" x="79" y="4.199999999999999" style="font-family: 'Open Sans', verdana, arial, sans-serif; font-size: 12px; fill: rgb(42, 63, 95); fill-opacity: 1; white-space: pre; opacity: 1;" transform="translate(0,185.07999999999998)">50</text></g><g class="ytick"><text text-anchor="end" x="79" y="4.199999999999999" style="font-family: 'Open Sans', verdana, arial, sans-serif; font-size: 12px; fill: rgb(42, 63, 95); fill-opacity: 1; white-space: pre; opacity: 1;" transform="translate(0,109.34)">100</text></g></g><g class="overaxes-above"/></g></g><g class="polarlayer"/><g class="smithlayer"/><g class="ternarylayer"/><g class="geolayer"/><g class="funnelarealayer"/><g class="pielayer"/><g class="iciclelayer"/><g class="treemaplayer"/><g class="sunburstlayer"/><g class="glimages"/><defs id="topdefs-826ccc"><g class="clips"/><clipPath id="legend826ccc"><rect width="162" height="67" x="0" y="0"/></clipPath></defs><g class="layer-above"><g class="imagelayer"/><g class="shapelayer"/></g><g class="infolayer"><g class="legend" pointer-events="all" transform="translate(525.74,100)"><rect class="bg" shape-rendering="crispEdges" width="162" height="67" x="0" y="0" style="stroke: rgb(68, 68, 68); stroke-opacity: 1; fill: rgb(255, 255, 255); fill-opacity: 1; stroke-width: 0px;"/><g class="scrollbox" transform="" clip-path="url(#legend826ccc)"><g class="groups"><g class="traces" transform="translate(0,14.5)" style="opacity: 1;"><text class="legendtext" text-anchor="start" x="40" y="4.680000000000001" style="font-family: 'Open Sans', verdana, arial, sans-serif; font-size: 12px; fill: rgb(42, 63, 95); fill-opacity: 1; white-space: pre;">BESS</text><g class="layers" style="opacity: 0.5;"><g class="legendfill"/><g class="legendlines"><path class="js-line" d="M5,0h30" style="fill: none; stroke: rgb(0, 191, 255); stroke-opacity: 1; stroke-width: 2px;"/></g><g class="legendsymbols"><g class="legendpoints"/></g></g><rect class="legendtoggle" x="0" y="-9.5" width="156.71875" height="19" style="fill: rgb(0, 0, 0); fill-opacity: 0;"/></g><g class="traces" transform="translate(0,33.5)" style="opacity: 1;"><text class="legendtext" text-anchor="start" x="40" y="4.680000000000001" style="font-family: 'Open Sans', verdana, arial, sans-serif; font-size: 12px; fill: rgb(42, 63, 95); fill-opacity: 1; white-space: pre;">Solar</text><g class="layers" style="opacity: 0.5;"><g class="legendfill"/><g class="legendlines"><path class="js-line" d="M5,0h30" style="fill: none; stroke: rgb(255, 0, 0); stroke-opacity: 1; stroke-width: 2px;"/></g><g class="legendsymbols"><g class="legendpoints"/></g></g><rect class="legendtoggle" x="0" y="-9.5" width="156.71875" height="19" style="fill: rgb(0, 0, 0); fill-opacity: 0;"/></g><g class="traces" transform="translate(0,52.5)" style="opacity: 1;"><text class="legendtext" text-anchor="start" x="40" y="4.680000000000001" style="font-family: 'Open Sans', verdana, arial, sans-serif; font-size: 12px; fill: rgb(42, 63, 95); fill-opacity: 1; white-space: pre;">Grid Meter (Net Load)</text><g class="layers" style="opacity: 0.5;"><g class="legendfill"/><g class="legendlines"><path class="js-line" d="M5,0h30" style="fill: none; stroke: rgb(0, 128, 0); stroke-opacity: 1; stroke-width: 2px;"/></g><g class="legendsymbols"><g class="legendpoints"/></g></g><rect class="legendtoggle" x="0" y="-9.5" width="156.71875" height="19" style="fill: rgb(0, 0, 0); fill-opacity: 0;"/></g></g></g><rect class="scrollbar" rx="20" ry="3" width="0" height="0" x="0" y="0" style="fill: rgb(128, 139, 164); fill-opacity: 1;"/></g><g class="g-gtitle"><text class="gtitle" x="298.5" y="50" text-anchor="middle" dy="0em" style="font-family: 'Open Sans', verdana, arial, sans-serif; font-size: 17px; fill: rgb(42, 63, 95); opacity: 1; font-weight: normal; white-space: pre;"><tspan class="line" dy="0em" x="298.5" y="50">Scenario 4</tspan><tspan class="line" dy="1.3em" x="298.5" y="50">Microgrid Output</tspan><tspan class="line" dy="2.6em" x="298.5" y="50">From: December 01, 2022 to December 31, 2022</tspan></text></g><g class="g-xtitle"><text class="xtitle" x="298.5" y="476.409375" text-anchor="middle" style="font-family: 'Open Sans', verdana, arial, sans-serif; font-size: 14px; fill: rgb(42, 63, 95); opacity: 1; font-weight: normal; white-space: pre;">Time</text></g><g class="g-ytitle"><text class="ytitle" transform="rotate(-90,27.168750000000003,260)" x="27.168750000000003" y="260" text-anchor="middle" style="font-family: 'Open Sans', verdana, arial, sans-serif; font-size: 14px; fill: rgb(42, 63, 95); opacity: 1; font-weight: normal; white-space: pre;">Demand (kW)</text></g></g></svg>