<svg class="main-svg" xmlns="http://www.w3.org/2000/svg" xmlns:xlink="http://www.w3.org/1999/xlink" width="700" height="500" style="" viewBox="0 0 700 500"><rect x="0" y="0" width="700" height="500" style="fill: rgb(255, 255, 255); fill-opacity: 1;"/><defs id="defs-46f722"><g class="clips"><clipPath id="clip46f722xyplot" class="plotclip"><rect width="437" height="320"/></clipPath><clipPath class="axesclip" id="clip46f722x"><rect x="80" y="0" width="437" height="500"/></clipPath><clipPath class="axesclip" id="clip46f722y"><rect x="0" y="100" width="700" height="320"/></clipPath><clipPath class="axesclip" id="clip46f722xy"><rect x="80" y="100" width="437" height="320"/></clipPath></g><g class="gradients"/><g class="patterns"/></defs><g class="bglayer"/><g class="layer-below"><g class="imagelayer"/><g class="shapelayer"/></g><g class="cartesianlayer"><g class="subplot xy"><g class="layer-subplot"><g class="shapelayer"/><g class="imagelayer"/></g><g class="minor-gridlayer"><g class="x"/><g class="y"/></g><g class="gridlayer"><g class="x"><path class="xgrid crisp" transform="translate(122.3,0)" d="M0,100v320" style="stroke: rgb(255, 255, 255); stroke-opacity: 1; stroke-width: 1px;"/><path class="xgrid crisp" transform="translate(221.02,0)" d="M0,100v320" style="stroke: rgb(255, 255, 255); stroke-opacity: 1; stroke-width: 1px;"/><path class="xgrid crisp" transform="translate(319.73,0)" d="M0,100v320" style="stroke: rgb(255, 255, 255); stroke-opacity: 1; stroke-width: 1px;"/><path class="xgrid crisp" transform="translate(418.44,0)" d="M0,100v320" style="stroke: rgb(255, 255, 255); stroke-opacity: 1; stroke-width: 1px;"/></g><g class="y"><path class="ygrid crisp" transform="translate(0,399.33)" d="M80,0h437" style="stroke: rgb(255, 255, 255); stroke-opacity: 1; stroke-width: 1px;"/><path class="ygrid crisp" transform="translate(0,357.54)" d="M80,0h437" style="stroke: rgb(255, 255, 255); stroke-opacity: 1; stroke-width: 1px;"/><path class="ygrid crisp" transform="translate(0,273.97)" d="M80,0h437" style="stroke: rgb(255, 255, 255); stroke-opacity: 1; stroke-width: 1px;"/><path class="ygrid crisp" transform="translate(0,232.18)" d="M80,0h437" style="stroke: rgb(255, 255, 255); stroke-opacity: 1; stroke-width: 1px;"/><path class="ygrid crisp" transform="translate(0,190.39)" d="M80,0h437" style="stroke: rgb(255, 255, 255); stroke-opacity: 1; stroke-width: 1px;"/><path class="ygrid crisp" transform="translate(0,148.6)" d="M80,0h437" style="stroke: rgb(255, 255, 255); stroke-opacity: 1; stroke-width: 1px;"/><path class="ygrid crisp" transform="translate(0,106.81)" d="M80,0h437" style="stroke: rgb(255, 255, 255); stroke-opacity: 1; stroke-width: 1px;"/></g></g><g class="zerolinelayer"><path class="yzl zl crisp" transform="translate(0,315.75)" d="M80,0h437" style="stroke: rgb(255, 255, 255); stroke-opacity: 1; stroke-width: 2px;"/></g><path class="xlines-below"/><path class="ylines-below"/><g class="overlines-below"/><g class="xaxislayer-below"/><g class="yaxislayer-below"/><g class="overaxes-below"/><g class="plot" transform="translate(80,100)" clip-path="url(#clip46f722xyplot)"><g class="scatterlayer mlayer"><g class="trace scatter tracea706a9" style="stroke-miterlimit: 2; opacity: 0.5;"><g class="fills"/><g class="errorbars"/><g class="lines"><path class="js-line" d="M0,215.75L437,215.75" style="vector-effect: non-scaling-stroke; fill: none; stroke: rgb(0, 191, 255); stroke-opacity: 1; stroke-width: 2px; opacity: 1;"/></g><g class="points"/><g class="text"/></g><g class="trace scatter trace794f32" style="stroke-miterlimit: 2; opacity: 0.5;"><g class="fills"/><g class="errorbars"/><g class="lines"><path class="js-line" d="M0,215.75L3.97,215.29L4.11,210.94L5.14,174.34L5.29,158.22L5.58,167.87L5.73,130.73L5.88,144.84L6.02,167.79L6.46,56.17L6.61,121.93L6.76,144.37L7.2,178.07L7.34,172.93L7.49,148.46L7.79,163.84L7.93,177.16L9.11,203.57L9.25,207.21L10.28,216.01L10.43,216.01L18.07,215.56L18.21,213.78L20.12,91.34L20.42,98.11L20.56,105.6L20.86,139.18L21.01,151.32L21.45,145.94L21.59,147.32L21.74,153.39L23.5,211.17L23.65,215.74L24.97,216.01L25.12,216.01L32.02,215.82L32.17,214.55L33.49,138.88L33.64,141.68L33.78,120.73L35.25,62.9L35.4,58.42L36.28,91.49L36.43,94.98L38.34,216.03L38.49,216.02L46.12,215.86L46.27,214.93L47.01,156.65L47.15,134.46L47.45,163.7L47.59,135.25L47.74,109.84L47.89,128.06L48.18,78.86L48.47,124.85L48.62,101.87L48.77,82.2L48.91,103.26L49.21,96.84L49.36,113.57L49.65,109.79L50.97,187.77L51.12,183.84L51.26,181.08L51.41,191.71L51.56,204.55L52.44,216.02L52.59,216.02L60.37,215.35L60.52,210.88L61.4,162.31L61.55,138.85L61.69,136.97L61.84,164.94L63.02,39.11L63.16,71.97L63.31,78.75L63.46,16L63.6,20.12L63.75,62.72L64.78,171.75L64.93,90L66.1,215.64L66.25,215.92L67.57,216.01L67.72,216.01L74.33,215.64L74.47,212.74L75.5,179.65L75.65,166.8L76.24,125.47L76.38,126.43L76.53,59.8L76.68,59.66L76.82,91.47L77.41,108.05L77.56,41.42L77.71,51.21L77.85,137.27L78.44,104.55L78.59,109.51L78.73,135.99L79.76,196.15L79.91,193.52L80.5,216.02L80.79,216.01L80.94,216.01L88.43,215.75L88.58,214.34L89.46,170.64L89.6,178.98L89.75,129.77L90.78,81.74L90.93,99.42L91.37,108.34L91.51,34.41L91.66,44.58L91.81,156.23L92.1,23.64L92.54,122.58L92.69,169.77L92.83,163.4L92.98,71.77L94.89,216.02L95.04,216.02L102.53,215.8L102.68,214.87L103.26,186.91L103.41,173.32L105.32,55.82L105.47,53.25L106.06,48.25L106.2,50.13L106.35,55.18L107.23,106.74L107.38,121.15L108.85,216.02L108.99,216.01L116.63,215.82L116.78,215.15L117.37,187.22L117.51,174.22L119.42,58.28L119.57,57.15L120.01,50.61L120.3,51.02L120.45,57.3L121.33,111.95L121.48,125.86L122.8,216.02L123.09,216L123.24,216.01L130.73,215.82L130.88,214.67L131.91,150.22L132.05,138.2L133.82,55.63L133.96,52.72L134.11,51.93L134.26,52.68L134.41,55.34L135.58,123.38L135.73,138.12L136.9,216.02L137.05,216.01L137.2,216L144.98,215.63L145.13,213.82L145.42,180.3L145.86,199.5L146.01,206.17L146.16,206.99L146.3,201.91L147.63,148.13L147.77,178.55L148.21,185.5L148.8,121.68L148.95,143.59L149.83,194.24L149.98,193.58L151.44,216.02L151.59,216.02L159.08,215.65L159.23,215.13L159.52,213.12L159.67,211.42L159.82,213.75L160.11,207.92L160.26,206.48L162.17,124.44L162.31,88.52L162.46,72.35L162.75,119.34L162.9,121.05L163.2,51.91L163.49,76.44L163.64,91.7L165.11,216.02L165.25,216.01L173.04,215.87L173.18,215.23L173.77,189.56L173.92,176.33L175.83,50.56L175.98,46.99L176.42,43.32L176.71,45.53L176.86,48.94L177.74,102.43L177.88,117.04L179.21,216.02L179.5,216.01L179.65,216.01L187.29,215.47L187.43,212.67L187.87,189.59L188.02,176.76L189.93,54.37L190.08,52.18L190.37,46.13L190.81,48.39L190.96,52.79L192.13,138.32L192.28,152.56L193.6,216.02L193.75,216.02L201.24,215.85L201.39,214.63L202.42,150.05L202.56,136.33L203.59,69.76L204.03,70.81L204.18,62.29L205.79,157.54L205.94,153.62L206.23,174.08L206.38,185.91L207.56,216.01L207.7,216.01L215.49,215.55L215.64,212.06L217.99,37.92L218.13,84.13L218.57,31.5L218.72,54.47L218.87,86.91L219.16,53.69L219.45,91.6L219.6,91.59L220.63,191.97L220.78,190.55L220.92,188.45L221.51,216.02L221.81,216.01L221.95,216.01L229.59,215.48L229.74,212.87L230.18,185.06L230.32,166.94L231.21,82.09L231.35,97.94L231.5,118.07L232.38,67.87L232.53,106.07L233.12,46.52L233.41,75.78L233.56,102.98L233.7,76.88L234,144.04L234.14,163.25L234.29,160.7L234.44,162.03L234.58,173.79L235.91,216.02L236.05,216.02L243.69,215.76L243.84,214.88L244.43,182.83L244.57,168.17L246.34,55.01L246.48,52.05L246.92,44.49L247.36,49.15L247.51,55.06L248.54,133.27L248.69,149.23L249.86,216.03L250.01,216.02L250.15,216.02L257.79,215.55L257.94,212.6L258.53,181.67L258.67,168.34L260.58,54.89L260.73,52.52L261.02,49.82L261.32,50.81L261.47,54.13L262.64,133.35L262.79,147.71L263.96,216.02L264.11,216.01L271.89,215.72L272.04,212.07L273.07,157.48L273.22,133.97L273.66,166.06L274.25,68.02L274.39,62.29L275.13,49.91L275.42,52.44L275.57,55.7L276.3,93L276.45,104.25L278.06,216.03L278.21,216.01L278.36,216.01L286,215.65L286.14,214.43L286.73,185.55L286.88,171.42L288.64,60.14L288.79,56.81L289.23,50.24L289.52,53.87L289.67,57.39L290.11,73.1L290.26,82.58L292.17,216.02L292.46,216.01L292.61,216.01L299.95,215.81L300.1,214.03L300.98,174.59L301.13,157.72L302.01,79.98L302.15,84.36L302.3,127.98L302.74,35.81L303.18,68.37L303.33,74.49L303.77,62.57L304.36,118.66L304.5,102.69L304.8,114.45L304.95,155.13L305.97,214.71L306.12,216.01L311.85,216.02L312,216.02L314.2,215.64L314.35,214.14L314.93,181.85L315.08,168.67L316.84,63.03L316.99,57.31L317.43,55.36L317.72,69.76L317.87,93.25L318.02,78.09L318.46,91.07L318.61,96.13L320.22,216.01L320.37,216.03L328.3,215.74L328.45,214.63L329.04,187.58L329.18,173.68L331.09,59.44L331.24,57.23L331.53,53.77L331.83,57.04L331.97,58.36L332.71,93.27L332.85,104.51L334.62,216.04L334.76,216.03L334.91,216.03L342.4,215.45L342.55,210.87L343.58,148.84L343.72,130.32L345.19,60.52L345.34,56.95L345.63,51.61L346.07,57.11L346.22,61.58L347.1,117.44L347.25,130.97L348.87,216.04L349.01,216.03L356.5,215.48L356.65,212.18L357.53,165.28L357.68,135.35L358.27,88.5L358.56,109.1L358.71,113.36L359.44,77.61L359.59,78.24L359.74,70.19L360.47,131.98L360.62,102.03L360.76,93.87L360.91,104.59L361.06,97.78L361.2,116.13L361.35,116.74L361.5,150.66L362.53,216.03L362.67,216.03L370.61,215.84L370.75,215.03L372.37,127.34L372.51,113.3L372.96,107.53L373.25,140.27L373.4,133.14L373.69,137.73L373.84,135.01L373.98,127.84L376.63,216.01L376.77,216.01L384.71,215.71L384.85,214.67L386.76,125.28L386.91,62.74L387.06,63.31L387.2,54.95L387.79,44.2L387.94,56.06L388.09,149.23L388.23,36.52L388.67,58.41L388.82,59.55L389.11,180.76L389.7,159.85L389.85,187.92L390.88,216.03L391.02,216.01L398.96,215.57L399.1,215.17L399.25,215.27L399.4,210.68L400.57,140.5L400.86,155.09L401.01,158.41L401.75,147.95L401.89,156.11L402.48,119.79L402.63,169.13L402.77,173.39L402.92,152.53L403.8,198.53L403.95,195.69L404.1,189.25L404.98,216.01L405.12,216.01L413.06,215.57L413.2,212.67L414.67,168.45L414.82,167.63L415.26,139.9L415.55,160.75L415.7,164.69L415.85,165.47L415.99,171.65L416.44,167.29L416.73,182L416.88,172.58L417.02,172.8L417.17,181.4L417.46,178.52L417.9,190.84L418.05,199.93L419.37,216.02L419.52,216.02L427.16,215.32L427.31,209.35L428.92,165.21L429.07,178.32L429.21,177.51L429.36,177.87L429.51,154.7L429.8,164.71L429.95,196.28L430.54,165.81L430.83,180.49L430.98,189.97L431.27,172.81L431.42,175.96L431.57,184.67L432.45,208.31L432.59,213.25L433.47,216.04L433.62,216.04L437,216.05" style="vector-effect: non-scaling-stroke; fill: none; stroke: rgb(255, 0, 0); stroke-opacity: 1; stroke-width: 2px; opacity: 1;"/></g><g class="points"/><g class="text"/></g><g class="trace scatter trace01eaaa" style="stroke-miterlimit: 2; opacity: 0.5;"><g class="fills"/><g class="errorbars"/><g class="lines"><path class="js-line" d="M0,215.75L1.76,215.75L1.91,217.1L2.35,243.8L2.79,243.03L2.94,243.23L4.11,266.65L4.26,263.97L5.43,196.2L5.58,227.74L6.46,121L6.61,188.57L7.2,216.91L7.34,204.15L7.49,182.15L7.64,183.87L7.79,196.06L8.96,260.84L9.11,253.01L9.4,255.78L9.55,260.26L10.58,289.38L10.72,276.58L11.02,273.46L11.16,276.25L11.31,286.05L11.46,289.01L11.6,277.15L11.75,273.61L12.34,274.35L12.49,271.79L12.78,255.81L13.37,256.19L13.51,248.36L14.25,242.89L14.4,243.48L14.54,244.97L14.84,242.59L14.98,243.4L15.13,243.15L15.42,242.87L15.57,254.94L15.86,257.73L16.01,245.73L16.16,242.65L16.3,254.32L16.45,270.33L16.6,272.59L16.75,272.34L16.89,260.67L17.63,242.39L17.77,253.85L18.07,257.81L18.21,280.37L18.36,289.64L18.66,265.71L18.8,270.34L20.12,150.37L20.42,163.48L20.56,178.48L20.71,174.38L20.86,204.93L21.01,217.27L21.3,201.19L21.45,184.33L21.59,183.88L21.74,191.03L23.06,256.96L23.21,265.82L23.36,266.87L23.5,259.22L23.65,262.74L23.8,259.44L23.94,250.83L24.24,245.77L24.82,246.55L24.97,258.35L25.71,273.42L25.85,262.25L26.73,256.32L26.88,256.33L27.03,256.92L27.76,256.01L27.91,256.69L28.79,256.6L28.94,255.06L29.38,258.23L29.53,246.23L30.26,242.38L30.41,242.42L30.55,242.98L31.43,258.14L31.58,257.81L31.73,257.75L31.88,244.8L32.02,242.42L32.17,252.86L32.61,244.12L32.76,235.07L33.49,180.11L33.78,180.28L33.93,180.88L34.08,180.07L34.23,186.77L34.96,125.08L35.11,138.45L35.25,138.35L35.55,143.6L36.14,115.25L36.28,127.97L36.43,123.98L36.58,142.66L37.9,291.64L38.34,278.43L38.49,275.72L38.63,276.16L38.78,266.17L39.81,245.3L39.95,246.09L40.1,245.85L40.54,245.01L40.69,243.81L41.57,244L41.72,243.78L42.3,243.33L42.45,244.01L42.75,243.28L43.04,244.38L43.19,243.44L43.48,243.98L44.21,242.16L44.36,243.11L45.83,242.42L45.98,243.01L46.27,241.39L46.42,236.33L47.15,190.34L47.3,191.51L47.45,208.49L48.18,122.98L48.33,159.06L48.47,169.53L48.77,114.33L49.21,128.25L49.36,143.9L49.65,142.73L51.12,226.78L51.26,225.21L51.85,275.01L52.15,263.21L52.29,260.13L52.59,245.89L52.73,260.7L52.88,260.65L53.03,260.97L53.32,260.72L53.47,263.53L53.76,261.21L53.91,260.86L54.2,261.36L54.35,263.91L55.38,243.39L55.97,243.55L56.11,244.25L56.85,243.02L56.99,243.72L57.14,246.74L57.43,243.53L57.73,243.7L57.87,255.48L58.17,259.09L58.32,246.29L58.9,243.28L59.05,243.73L59.2,246.23L59.49,242.78L59.64,243.79L59.78,255.76L59.93,258.41L60.08,257.86L60.23,246.14L60.67,246.98L60.81,232.77L60.96,214.86L61.25,220.38L61.4,208.33L61.55,199.77L61.69,215.31L61.84,246.63L63.02,101.56L63.16,125.25L63.31,141L63.46,67.54L63.6,67.22L63.75,112.44L64.78,211.66L64.93,129.9L66.1,264.08L66.25,277.43L66.39,278.38L66.69,276.68L66.84,277.32L66.98,276.45L68.01,245.36L68.16,245.85L68.6,260.79L69.04,257.95L69.19,258.89L69.33,257.84L69.63,258.35L69.77,246.73L70.51,242.76L70.65,242.98L70.8,242.98L71.39,242.83L71.54,243.17L71.68,243.89L71.98,242.1L72.56,242.56L72.71,242.95L73.45,242.29L73.59,242.65L73.74,254.91L74.03,257.36L74.18,245.33L74.62,237.72L74.77,247.09L74.91,248.56L75.06,242.88L75.21,252.54L75.35,248.62L75.5,263.22L75.65,265.72L75.94,276.41L76.09,249.19L76.68,141.38L76.97,182.77L77.12,187.26L77.41,217.55L77.56,150.98L77.71,146.65L77.85,212.5L78.44,156.08L78.59,175.03L79.03,243.67L79.47,217.9L79.61,216.74L80.35,248.12L80.64,247.11L80.79,246.36L81.08,245.98L81.23,259.16L82.26,274.2L82.41,273.97L82.55,262.07L82.99,256.3L83.58,256.67L83.73,256.86L84.17,257.48L84.61,256.14L84.76,256.56L84.9,250.9L85.49,243.31L85.78,243.87L85.93,243.22L86.22,244.07L86.37,242.85L86.67,242.99L86.81,243.02L86.96,242.3L87.25,243.37L87.4,243L87.55,254.2L87.84,257.75L87.99,257.54L88.13,245.36L89.31,228.12L89.46,216.3L89.6,224.9L89.75,174.61L90.04,181.36L90.34,168.13L90.48,171.89L90.63,195.26L90.78,152.14L90.93,167L91.07,129.67L91.37,151.19L91.51,86.58L91.66,107.33L91.81,217.79L92.1,102.59L92.54,194.31L92.69,236.6L92.98,123.77L93.28,165.02L93.42,196.84L94.3,304L94.45,296.52L94.6,290.15L95.77,246.04L95.92,245.85L96.65,245.31L96.8,245.69L97.54,243.22L97.68,243.59L97.83,243.51L98.12,242.1L98.56,242.78L98.71,243.04L99,242.71L99.89,243.76L100.03,242.54L100.33,243.31L100.47,242.76L100.62,241.63L100.91,242.77L101.35,242.03L101.5,241.44L102.09,240.92L102.24,242.23L102.68,240.23L102.97,250.73L103.12,243.7L105.03,122.96L105.17,130.07L105.76,95.56L106.06,104.18L106.2,110.69L107.96,239.3L108.11,248.28L108.41,260L108.7,246.09L108.85,245.41L108.99,245.58L109.14,244.56L109.87,245.69L110.02,245.31L110.17,256.75L110.9,258.62L111.05,256.55L112.08,254.91L112.22,255.15L112.37,255.53L113.11,254.73L113.25,255.43L113.55,254.91L113.69,249.38L114.57,241.23L114.72,241.4L114.87,242.07L115.16,241.3L115.31,241.97L115.46,253.55L115.6,256.51L115.75,244.36L115.9,241.21L116.19,242.05L116.48,240.98L116.63,252.82L116.78,255.05L116.93,253.67L117.07,241.62L117.22,241.06L117.37,229.14L117.51,228.14L117.66,217.09L117.81,217.59L117.95,220.73L119.42,111.82L119.57,122.09L119.72,116.75L120.01,109.91L120.3,113.88L120.45,123.93L121.63,205.1L121.77,223.5L122.51,279.53L122.8,261.18L122.95,260.54L123.09,259.71L123.24,259.86L123.39,247.23L123.68,243.41L124.12,243.76L124.27,251.36L124.86,256.94L125,255.93L125.15,255.18L126.18,253.24L126.33,254.14L126.91,254.41L127.21,253.23L127.35,253.67L127.65,253.06L127.79,254.02L127.94,251.19L128.68,240.25L128.82,240.73L128.97,240.92L129.26,240.23L129.41,252.67L129.85,255.74L130,243.62L130.15,240.23L130.29,240.5L130.44,253L130.88,266.63L131.03,277.03L131.32,258.53L131.47,247.89L133.38,93.25L133.52,90.15L133.96,81.41L134.11,94.11L134.7,107.72L134.85,114.34L136.31,238.75L136.46,251.58L136.9,273.24L137.34,271.9L137.49,271.07L138.08,255.81L138.37,256.14L138.52,254.6L139.25,242.53L139.4,243.88L139.55,241.22L140.28,241.89L140.43,241.45L140.57,241.29L140.87,241.98L141.02,241.35L141.16,240.88L142.04,241.57L142.19,241.23L142.92,241.48L143.07,240.85L143.51,241.29L143.66,240.46L143.81,240.57L144.1,241.29L144.25,239.91L144.39,240.95L144.54,253.71L144.98,256.36L145.13,242.97L145.42,218.9L145.57,240.71L145.72,258.23L145.86,257.13L146.01,272.34L147.63,175.94L147.77,206.59L148.21,228.18L148.8,152.33L148.95,172.18L149.83,223.6L149.98,221.96L150.42,231.01L150.56,247.56L151,259.57L151.3,259.09L151.44,247.28L152.18,243.3L152.33,255.5L153.21,267.99L153.35,257.4L154.09,241.19L154.24,241.35L154.38,241.12L154.53,241.09L154.68,240.12L154.82,240.62L154.97,252.92L155.12,256.24L155.85,255.92L156,256.75L156.73,240.23L156.88,241.41L157.03,241.46L157.17,240.58L157.76,241.07L157.91,254.27L158.2,247.3L158.35,251.86L158.5,255.82L158.79,255.87L158.94,245.49L159.08,244.56L159.23,255.53L159.38,256.65L159.52,266.42L159.82,270.52L159.96,267.47L160.11,266.33L160.99,247.18L161.14,236.25L162.46,115.29L162.61,157.96L162.9,169.65L163.05,157.59L163.2,101.89L164.96,257.54L165.11,257.09L165.25,256.89L165.69,243.08L165.84,256.22L165.99,258.93L166.57,257.42L166.72,257.92L167.16,257.55L167.31,245.51L167.75,240.65L168.19,240.73L168.34,241.41L169.07,240.16L169.22,240.7L169.37,241.42L169.66,240.35L169.95,240.98L170.1,240.44L170.54,241.48L170.69,240.08L170.83,240.42L170.98,240.59L171.13,240.36L171.27,252.74L171.42,256.53L171.72,255.04L171.86,243.68L172.16,240.21L172.6,240.6L172.74,252.45L173.04,256.03L173.33,253.15L173.48,241.03L173.62,244.41L173.77,243.79L173.92,233.06L175.68,124.37L175.83,120.56L175.98,105.32L176.27,129.53L176.42,128.6L176.56,123.6L178.91,274.44L179.35,265.62L179.5,258.98L180.97,242.22L181.12,242.75L181.41,242.18L181.56,241.37L182.44,239.86L182.59,240.5L182.73,240.76L182.88,240.04L183.03,239.68L183.76,239.73L183.91,239.69L184.2,240.48L184.64,239.83L184.79,239.57L184.94,239.22L185.38,239.6L185.52,240.14L186.4,239.01L186.55,251.2L186.85,266.48L187.14,255.84L187.29,256.45L189.34,123.44L189.49,118.63L189.93,95.34L190.08,126.05L191.99,181.58L192.13,194.98L193.16,264.12L193.46,257.37L193.6,257.02L193.75,257.53L193.9,246.08L194.04,242.24L194.78,242.29L194.92,243.08L195.07,243.28L195.22,242.33L195.36,242.45L195.51,242.07L195.81,242.44L195.95,241.32L196.83,239.28L196.98,239.2L197.42,239.1L197.57,239.72L197.86,241.41L198.16,240.75L198.3,238.83L198.45,240.31L198.74,238.93L198.89,251.28L199.04,254.74L199.18,253.82L199.33,241.74L199.77,238.68L200.07,241.46L200.21,240.61L200.8,280.65L201.09,269.35L201.24,256.2L202.42,218.35L202.56,191.67L203.15,157.79L203.44,178.07L203.59,170.14L203.88,174.59L204.33,139.23L204.47,155.76L204.62,172.93L204.91,149.45L205.06,168.11L205.21,185.1L205.79,235.8L206.09,217.65L206.23,225.31L207.12,278.81L207.41,270.87L207.56,270.24L207.7,270.5L207.85,258.24L208.29,254.68L208.73,254.78L208.88,255.19L209.47,254.63L209.61,256.46L209.91,251.99L210.05,240.1L210.35,238.99L210.94,239.37L211.08,241.41L211.23,241.84L211.38,241.37L211.52,239.83L212.11,238.21L212.26,239.2L212.4,239.24L212.55,238.67L212.99,239.01L213.14,240.47L213.29,240.95L213.43,240.63L213.58,238.33L214.31,238.81L214.46,238.42L214.61,238.32L214.75,238.41L214.9,240.45L215.19,241.04L215.34,240.57L215.49,238.68L215.93,232.63L216.08,248.54L216.52,236.26L216.66,203.23L217.1,208.62L217.55,146L217.69,111.52L217.99,107.33L218.13,152.4L218.57,93.63L218.72,113.44L218.87,157.05L219.16,117.96L219.45,185.1L219.6,174.99L221.95,285.84L222.1,285.82L222.25,285.16L222.39,285.5L222.54,273.29L223.27,254.23L223.42,255.86L223.57,256.52L224.01,252.21L224.16,239.14L224.6,239.59L224.74,239.21L224.89,238.79L225.18,239.25L225.33,238.88L225.48,240.14L225.62,241.29L226.06,239.09L226.21,238.61L226.36,238.61L226.51,239.52L226.65,239.83L226.95,239.01L227.09,238.93L227.24,239.11L227.39,240.92L227.68,241.28L227.83,239.14L227.97,238.53L228.42,239.08L228.56,239.51L228.86,238.54L229.15,239.85L229.3,240.53L229.59,240.01L229.74,237.96L230.03,239.99L230.32,221.73L230.47,199.5L231.21,120.75L231.5,156.51L231.65,153.01L231.94,172.05L232.23,158.87L232.38,136.84L232.53,174.68L232.97,98.03L233.12,85.38L234.14,202.47L234.29,210.71L234.44,202.81L234.73,225.52L234.88,236.16L235.32,271.71L235.76,256.77L235.91,257.23L236.05,257.62L236.2,257.09L236.35,244.21L236.79,241.31L236.93,243.34L237.08,255.83L237.23,257.71L237.82,256.24L237.96,254.91L238.4,253.91L238.55,242.4L239.14,256.61L239.43,255.41L239.58,254.22L240.02,253.74L240.17,254.48L240.31,241.94L240.46,238.57L241.05,239.08L241.19,239.97L241.34,240.69L241.64,239.6L241.78,238.53L242.08,239.12L242.52,238.58L242.66,239.05L242.81,238.46L242.96,250.96L243.1,254.3L243.25,242.42L243.4,240.3L243.69,241L243.84,252.6L244.28,235.77L244.43,223.49L246.48,77.91L246.63,74.69L246.78,72.04L246.92,85.44L247.07,85.68L247.22,87.6L248.25,143.87L248.39,172.29L249.57,257L249.71,244.83L250.6,241.6L250.74,241.3L251.04,242.54L251.48,242.01L251.62,241.13L251.92,243.61L252.21,239L252.36,239.37L253.68,238.35L253.83,239.33L254.27,238.03L254.41,241.25L254.56,241.3L254.71,240.11L255.44,238.61L255.59,239.23L255.74,238.37L256.47,240.9L256.62,253.01L257.21,238.32L257.5,240.91L257.65,238.89L258.23,230.76L258.38,218.45L260.44,131.88L260.58,129.43L260.88,106.28L261.02,115.32L261.17,122.35L261.32,119.56L261.47,129.57L261.61,135.77L261.76,131.16L262.05,139.2L262.2,150.52L262.93,205.97L263.08,218.4L263.52,249.2L263.96,243.89L264.11,243.63L264.84,242.53L264.99,253.61L265.58,257.38L265.73,257.31L265.87,244.83L266.61,238.96L266.75,239.47L266.9,240.21L267.05,238.75L267.49,239.92L267.63,240.49L267.93,240.2L268.08,238.58L268.81,239.33L268.96,239.16L269.1,238.72L269.69,239.37L269.84,239.11L269.99,238.83L270.13,238.74L270.28,241.18L271.16,238.46L271.31,250.9L271.75,254.04L271.89,242.36L272.34,222.4L272.63,235.83L272.78,237.95L273.07,205.38L273.22,181.88L273.36,151.39L273.66,240.03L273.95,166.73L274.1,162.63L274.98,133.56L275.13,134.79L275.27,134.28L275.42,126.37L275.86,123.33L276.01,133.06L278.21,258.73L278.36,257.5L278.5,257.34L279.24,256.63L279.39,244.57L280.27,240.46L280.41,239.99L280.86,238.93L281.15,240.08L281.3,239.65L281.44,238.87L281.74,241.28L281.88,241.57L282.32,238.43L282.91,238.79L283.06,239.23L283.21,239.33L283.35,239.11L283.5,238.57L283.94,239.46L284.09,240.57L284.53,238.92L284.67,250.61L284.82,254.07L284.97,253.77L285.11,241.51L286,237.85L286.14,238.14L286.44,235.05L286.58,224.39L286.73,225.36L286.88,214.02L288.35,104.19L288.49,125.55L288.79,151.64L289.08,129.02L289.23,113.55L289.52,93.99L289.96,100.8L290.11,122.46L292.17,259.84L292.31,257.24L292.46,257.88L292.75,242.1L293.19,254.16L293.34,259.33L294.22,257.13L294.37,243.93L295.25,239.13L295.4,239.85L295.84,239.35L295.98,240.24L296.13,240.92L296.43,238.91L296.57,239.88L296.72,239.43L297.16,241.66L297.45,239.74L297.6,239.61L297.75,239.83L297.89,239.24L298.04,240.99L298.19,240.89L298.34,239.31L298.48,239.05L298.78,239.48L298.92,240.04L299.07,240.11L299.22,239.35L299.36,238.65L299.51,250.95L299.8,256.02L299.95,242.04L300.1,237.3L300.39,231.21L300.54,232.36L300.69,242.63L300.83,244.98L300.98,234.5L302.01,120.25L302.15,125.3L302.3,183.49L302.74,110.35L302.89,110.58L303.04,140.42L303.18,129.11L303.48,151.91L303.77,137L303.92,138.24L305.09,222.18L305.24,219.53L306.27,246.36L306.41,242.63L306.56,241.89L307.3,258.78L307.44,256.47L307.59,256.89L307.88,257.26L308.03,256.62L308.18,245.25L309.06,239.41L309.21,239.53L309.65,240.73L309.79,239.2L309.94,239.47L310.09,238.73L310.97,240.57L311.11,239L311.85,241.3L312,239.49L312.14,238.94L312.58,240.93L312.73,239.44L313.02,239.2L313.17,251L313.46,255.6L313.61,253.79L313.76,241.3L314.05,238.62L314.2,251.4L314.49,249.84L314.64,258.27L314.79,237.27L316.11,144.05L316.26,150.62L316.4,148.28L317.43,109.74L317.58,120.5L317.87,166.2L318.17,137.14L318.31,126.77L320.22,245.47L320.37,243.12L320.52,242.92L320.66,244.5L320.81,242.16L321.25,244.07L321.4,242.86L321.84,241.99L322.13,242.37L322.28,242.75L323.31,239.1L323.45,239.4L323.6,240.96L324.48,238.86L324.63,241.16L324.92,239.36L325.51,239.77L325.66,240.04L325.8,240.86L325.95,252.08L326.24,255.33L326.39,242.73L326.98,239.06L327.27,240L327.42,241.16L327.71,239.42L328.15,240.22L328.3,241.51L328.59,251.77L328.89,239.41L329.04,227.78L330.21,146.52L330.36,131.54L330.5,132.82L330.65,122.51L331.68,82.55L331.83,88.08L334.47,262.1L334.62,258.53L334.76,258.4L334.91,248.06L335.06,242.4L335.79,242.95L335.94,255.05L336.82,270.83L337.26,270.34L337.41,258.65L338.58,239.76L338.88,240.72L339.02,240.21L339.46,240.47L339.76,239.39L339.91,240.75L340.05,241.26L340.2,240.01L340.35,239.39L341.08,241.39L341.23,239.29L341.52,239.94L341.81,239.33L341.96,240.26L342.11,241.42L342.4,239.1L342.55,248.46L342.99,236.05L343.14,216.09L344.61,119.94L345.19,122.02L345.34,116.8L345.63,125.36L345.93,95.2L346.22,104.99L346.37,109.87L347.25,166.07L347.4,180.09L348.28,264.6L348.72,250.28L348.87,243.54L349.16,243.02L349.31,245.54L349.45,243.07L349.6,242.87L349.75,245.12L350.04,242.61L350.33,244.6L350.48,242.35L350.63,243.05L350.78,241.72L350.92,240.29L351.07,241.89L351.51,240.12L351.66,240.29L351.8,240.56L352.24,240.87L352.54,240.09L352.68,240.39L352.83,240.55L353.57,239.93L353.71,241.54L354.59,239.55L354.74,239.91L355.03,240.67L355.33,239.64L355.48,239.15L355.62,239.01L355.77,239.25L355.92,239.98L356.06,240.71L356.36,239.5L356.5,238.98L356.8,244L357.09,228.28L357.24,210.3L358.27,146.09L358.41,132.43L358.71,169.14L359.15,135.06L359.29,145.28L359.74,113.09L359.88,149.16L360.03,177.23L360.47,187.4L360.62,160.09L360.76,152.41L361.2,165.01L361.35,161.43L362.53,286.29L362.67,274.79L362.82,274.97L362.97,261.41L363.11,261.55L363.26,256.96L363.55,259.87L363.7,257.36L364.29,242.14L364.58,242.71L364.73,244.25L365.32,239.69L365.61,240.09L365.76,239.67L366.64,240.1L366.79,239.63L367.37,239.38L367.52,240.52L367.67,241.99L367.96,239.5L368.11,240.05L368.26,239.3L369.14,240.66L369.28,239.67L370.02,238.99L370.16,239.48L370.31,240.86L370.61,239.03L370.75,239.67L370.9,259.24L371.05,259.94L371.19,240.94L372.22,198.22L372.37,183.93L372.66,193.71L372.96,151.62L373.1,164.58L373.25,182.13L373.84,164.75L374.13,175.9L374.28,175.55L375.6,256.86L375.75,261.57L376.04,273.79L376.33,258.55L376.48,246.93L376.63,243.17L376.77,266.3L377.36,288.5L377.8,286.45L377.95,275.44L378.98,240.75L379.13,240L379.42,241.88L379.57,239.82L379.71,240.05L379.86,239.84L380.59,242.21L380.74,240.5L380.89,239.85L381.77,240.48L381.92,240.05L382.36,241.16L382.5,239.86L382.65,239.52L383.24,239.82L383.38,240.01L383.53,240.7L383.68,240.03L383.83,251.84L383.97,255.02L384.12,243.18L384.27,240.14L384.56,239.62L384.71,241.16L384.85,240.84L385,234.8L386.76,152.3L386.91,91.77L387.06,89.86L387.35,95.19L387.5,98.77L387.79,88.35L387.94,110.32L388.09,207.83L388.23,81.94L388.53,174.43L388.67,88.15L388.82,89.09L388.97,166.6L389.41,137.71L389.99,263.44L390.14,270.91L390.58,302.4L391.02,284.88L391.17,271.47L392.05,256.93L392.2,256.96L392.35,257.36L392.49,257.18L392.64,244.32L393.52,239.47L393.67,241.07L393.81,241.41L393.96,239.98L394.11,239.07L394.25,239.96L394.4,252.32L395.14,255.97L395.28,254.77L395.43,255.33L395.58,254.99L395.72,243L396.61,239.55L396.75,238.92L397.63,240.83L397.78,239.61L397.93,239.23L398.51,254.65L398.66,243.47L398.81,238.82L399.1,240.9L399.25,240.39L399.4,236.1L399.54,227.87L399.98,245.72L400.13,241.73L400.57,182.94L401.16,192.46L401.31,194.06L402.04,213.08L402.19,212.85L402.33,189.94L402.48,173.47L402.63,223.14L402.77,240.05L402.92,222.92L403.22,244.96L403.36,264.01L403.51,266.08L403.66,251.01L403.8,255.48L404.1,243.47L404.24,247.1L404.39,244.65L404.54,242.56L404.83,245.5L405.27,242.68L405.42,242L405.57,241.73L405.71,242.35L405.86,242.27L406.01,243.55L406.59,241.61L406.74,242.03L406.89,242.12L407.62,239.18L408.06,239.5L408.21,239.82L408.5,239.52L408.8,240.3L408.94,239.96L409.09,239.32L409.38,241.3L409.83,240.86L409.97,240.19L410.27,239.81L410.41,240.24L410.56,240.91L411.15,238.83L411.44,238.95L411.59,240.39L411.73,241.23L412.03,239.5L412.18,263.21L413.79,221.8L413.94,230.85L414.23,249.14L414.53,247.33L414.67,225.23L415.11,202.15L415.26,206.48L415.41,220.66L415.55,231.64L415.99,215L416.14,219.87L416.29,212.32L417.02,243.97L417.17,238.08L417.32,228.02L417.61,228.86L417.9,220.47L418.05,227.41L418.2,230.47L419.08,274.57L419.23,272.39L419.37,272.61L419.52,260.57L420.84,241.77L420.99,242.54L421.14,242.46L421.28,241.12L421.72,241.52L421.87,239.64L422.02,241.5L422.75,239.3L422.9,239.81L423.34,240.87L423.49,240.16L423.63,239.96L423.78,240.44L423.93,239.75L424.22,239.72L424.37,239.71L424.51,239.56L424.66,241.06L425.4,239.17L425.69,239.36L425.84,239.68L426.28,241.41L426.57,240.61L426.72,240.68L426.86,240.28L427.16,241.4L427.31,236.45L428.04,217.87L428.19,227.52L428.33,233.86L428.77,210.82L428.92,219.8L429.07,233.4L429.36,248.23L429.51,225.35L429.66,227.41L429.8,225.32L429.95,264.41L430.39,229.98L430.54,221.49L430.83,234.3L431.12,214.75L431.27,212.04L432.3,267.83L432.45,253.54L432.59,255.22L433.03,260.87L433.33,258.47L433.47,246.2L434.06,242.28L434.21,243.02L434.36,243.74L434.5,246.02L434.65,242.6L434.94,242.93L435.09,242.45L435.82,240.16L435.97,241.66L436.12,241.58L436.27,240.43L436.41,239.8L436.85,240.56L437,240.4" style="vector-effect: non-scaling-stroke; fill: none; stroke: rgb(0, 128, 0); stroke-opacity: 1; stroke-width: 2px; opacity: 1;"/></g><g class="points"/><g class="text"/></g></g></g><g class="overplot"/><path class="xlines-above crisp" d="M0,0" style="fill: none;"/><path class="ylines-above crisp" d="M0,0" style="fill: none;"/><g class="overlines-above"/><g class="xaxislayer-above"><g class="xtick"><text text-anchor="middle" x="0" y="433" transform="translate(122.3,0)" style="font-family: 'Open Sans', verdana, arial, sans-serif; font-size: 12px; fill: rgb(42, 63, 95); fill-opacity: 1; white-space: pre; opacity: 1;"><tspan class="line" dy="0em" x="0" y="433">Dec 4</tspan><tspan class="line" dy="1.3em" x="0" y="433">2022</tspan></text></g><g class="xtick"><text text-anchor="middle" x="0" y="433" style="font-family: 'Open Sans', verdana, arial, sans-serif; font-size: 12px; fill: rgb(42, 63, 95); fill-opacity: 1; white-space: pre; opacity: 1;" transform="translate(221.02,0)">Dec 11</text></g><g class="xtick"><text text-anchor="middle" x="0" y="433" style="font-family: 'Open Sans', verdana, arial, sans-serif; font-size: 12px; fill: rgb(42, 63, 95); fill-opacity: 1; white-space: pre; opacity: 1;" transform="translate(319.73,0)">Dec 18</text></g><g class="xtick"><text text-anchor="middle" x="0" y="433" style="font-family: 'Open Sans', verdana, arial, sans-serif; font-size: 12px; fill: rgb(42, 63, 95); fill-opacity: 1; white-space: pre; opacity: 1;" transform="translate(418.44,0)">Dec 25</text></g></g><g class="yaxislayer-above"><g class="ytick"><text text-anchor="end" x="79" y="4.199999999999999" transform="translate(0,399.33)" style="font-family: 'Open Sans', verdana, arial, sans-serif; font-size: 12px; fill: rgb(42, 63, 95); fill-opacity: 1; white-space: pre; opacity: 1;">−40</text></g><g class="ytick"><text text-anchor="end" x="79" y="4.199999999999999" style="font-family: 'Open Sans', verdana, arial, sans-serif; font-size: 12px; fill: rgb(42, 63, 95); fill-opacity: 1; white-space: pre; opacity: 1;" transform="translate(0,357.54)">−20</text></g><g class="ytick"><text text-anchor="end" x="79" y="4.199999999999999" style="font-family: 'Open Sans', verdana, arial, sans-serif; font-size: 12px; fill: rgb(42, 63, 95); fill-opacity: 1; white-space: pre; opacity: 1;" transform="translate(0,315.75)">0</text></g><g class="ytick"><text text-anchor="end" x="79" y="4.199999999999999" style="font-family: 'Open Sans', verdana, arial, sans-serif; font-size: 12px; fill: rgb(42, 63, 95); fill-opacity: 1; white-space: pre; opacity: 1;" transform="translate(0,273.97)">20</text></g><g class="ytick"><text text-anchor="end" x="79" y="4.199999999999999" style="font-family: 'Open Sans', verdana, arial, sans-serif; font-size: 12px; fill: rgb(42, 63, 95); fill-opacity: 1; white-space: pre; opacity: 1;" transform="translate(0,232.18)">40</text></g><g class="ytick"><text text-anchor="end" x="79" y="4.199999999999999" style="font-family: 'Open Sans', verdana, arial, sans-serif; font-size: 12px; fill: rgb(42, 63, 95); fill-opacity: 1; white-space: pre; opacity: 1;" transform="translate(0,190.39)">60</text></g><g class="ytick"><text text-anchor="end" x="79" y="4.199999999999999" style="font-family: 'Open Sans', verdana, arial, sans-serif; font-size: 12px; fill: rgb(42, 63, 95); fill-opacity: 1; white-space: pre; opacity: 1;" transform="translate(0,148.6)">80</text></g><g class="ytick"><text text-anchor="end" x="79" y="4.199999999999999" style="font-family: 'Open Sans', verdana, arial, sans-serif; font-size: 12px; fill: rgb(42, 63, 95); fill-opacity: 1; white-space: pre; opacity: 1;" transform="translate(0,106.81)">100</text></g></g><g class="overaxes-above"/></g></g><g class="polarlayer"/><g class="smithlayer"/><g class="ternarylayer"/><g class="geolayer"/><g class="funnelarealayer"/><g class="pielayer"/><g class="iciclelayer"/><g class="treemaplayer"/><g class="sunburstlayer"/><g class="glimages"/><defs id="topdefs-46f722"><g class="clips"/><clipPath id="legend46f722"><rect width="162" height="67" x="0" y="0"/></clipPath></defs><g class="layer-above"><g class="imagelayer"/><g class="shapelayer"/></g><g class="infolayer"><g class="legend" pointer-events="all" transform="translate(525.74,100)"><rect class="bg" shape-rendering="crispEdges" width="162" height="67" x="0" y="0" style="stroke: rgb(68, 68, 68); stroke-opacity: 1; fill: rgb(255, 255, 255); fill-opacity: 1; stroke-width: 0px;"/><g class="scrollbox" transform="" clip-path="url(#legend46f722)"><g class="groups"><g class="traces" transform="translate(0,14.5)" style="opacity: 1;"><text class="legendtext" text-anchor="start" x="40" y="4.680000000000001" style="font-family: 'Open Sans', verdana, arial, sans-serif; font-size: 12px; fill: rgb(42, 63, 95); fill-opacity: 1; white-space: pre;">BESS</text><g class="layers" style="opacity: 0.5;"><g class="legendfill"/><g class="legendlines"><path class="js-line" d="M5,0h30" style="fill: none; stroke: rgb(0, 191, 255); stroke-opacity: 1; stroke-width: 2px;"/></g><g class="legendsymbols"><g class="legendpoints"/></g></g><rect class="legendtoggle" x="0" y="-9.5" width="156.71875" height="19" style="fill: rgb(0, 0, 0); fill-opacity: 0;"/></g><g class="traces" transform="translate(0,33.5)" style="opacity: 1;"><text class="legendtext" text-anchor="start" x="40" y="4.680000000000001" style="font-family: 'Open Sans', verdana, arial, sans-serif; font-size: 12px; fill: rgb(42, 63, 95); fill-opacity: 1; white-space: pre;">Solar</text><g class="layers" style="opacity: 0.5;"><g class="legendfill"/><g class="legendlines"><path class="js-line" d="M5,0h30" style="fill: none; stroke: rgb(255, 0, 0); stroke-opacity: 1; stroke-width: 2px;"/></g><g class="legendsymbols"><g class="legendpoints"/></g></g><rect class="legendtoggle" x="0" y="-9.5" width="156.71875" height="19" style="fill: rgb(0, 0, 0); fill-opacity: 0;"/></g><g class="traces" transform="translate(0,52.5)" style="opacity: 1;"><text class="legendtext" text-anchor="start" x="40" y="4.680000000000001" style="font-family: 'Open Sans', verdana, arial, sans-serif; font-size: 12px; fill: rgb(42, 63, 95); fill-opacity: 1; white-space: pre;">Grid Meter (Net Load)</text><g class="layers" style="opacity: 0.5;"><g class="legendfill"/><g class="legendlines"><path class="js-line" d="M5,0h30" style="fill: none; stroke: rgb(0, 128, 0); stroke-opacity: 1; stroke-width: 2px;"/></g><g class="legendsymbols"><g class="legendpoints"/></g></g><rect class="legendtoggle" x="0" y="-9.5" width="156.71875" height="19" style="fill: rgb(0, 0, 0); fill-opacity: 0;"/></g></g></g><rect class="scrollbar" rx="20" ry="3" width="0" height="0" x="0" y="0" style="fill: rgb(128, 139, 164); fill-opacity: 1;"/></g><g class="g-gtitle"><text class="gtitle" x="298.5" y="50" text-anchor="middle" dy="0em" style="font-family: 'Open Sans', verdana, arial, sans-serif; font-size: 17px; fill: rgb(42, 63, 95); opacity: 1; font-weight: normal; white-space: pre;"><tspan class="line" dy="0em" x="298.5" y="50">Scenario 2</tspan><tspan class="line" dy="1.3em" x="298.5" y="50">Microgrid Output</tspan><tspan class="line" dy="2.6em" x="298.5" y="50">From: December 01, 2022 to December 31, 2022</tspan></text></g><g class="g-xtitle"><text class="xtitle" x="298.5" y="476.409375" text-anchor="middle" style="font-family: 'Open Sans', verdana, arial, sans-serif; font-size: 14px; fill: rgb(42, 63, 95); opacity: 1; font-weight: normal; white-space: pre;">Time</text></g><g class="g-ytitle"><text class="ytitle" transform="rotate(-90,33.840625,260)" x="33.840625" y="260" text-anchor="middle" style="font-family: 'Open Sans', verdana, arial, sans-serif; font-size: 14px; fill: rgb(42, 63, 95); opacity: 1; font-weight: normal; white-space: pre;">Demand (kW)</text></g></g></svg>