<svg class="main-svg" xmlns="http://www.w3.org/2000/svg" xmlns:xlink="http://www.w3.org/1999/xlink" width="700" height="500" style="" viewBox="0 0 700 500"><rect x="0" y="0" width="700" height="500" style="fill: rgb(255, 255, 255); fill-opacity: 1;"/><defs id="defs-794321"><g class="clips"><clipPath id="clip794321xyplot" class="plotclip"><rect width="540" height="320"/></clipPath><clipPath class="axesclip" id="clip794321x"><rect x="80" y="0" width="540" height="500"/></clipPath><clipPath class="axesclip" id="clip794321y"><rect x="0" y="100" width="700" height="320"/></clipPath><clipPath class="axesclip" id="clip794321xy"><rect x="80" y="100" width="540" height="320"/></clipPath></g><g class="gradients"/><g class="patterns"/></defs><g class="bglayer"/><g class="layer-below"><g class="imagelayer"/><g class="shapelayer"/></g><g class="cartesianlayer"><g class="subplot xy"><g class="layer-subplot"><g class="shapelayer"/><g class="imagelayer"/></g><g class="minor-gridlayer"><g class="x"/><g class="y"/></g><g class="gridlayer"><g class="x"><path class="xgrid crisp" transform="translate(132.28,0)" d="M0,100v320" style="stroke: rgb(255, 255, 255); stroke-opacity: 1; stroke-width: 1px;"/><path class="xgrid crisp" transform="translate(254.25,0)" d="M0,100v320" style="stroke: rgb(255, 255, 255); stroke-opacity: 1; stroke-width: 1px;"/><path class="xgrid crisp" transform="translate(376.23,0)" d="M0,100v320" style="stroke: rgb(255, 255, 255); stroke-opacity: 1; stroke-width: 1px;"/><path class="xgrid crisp" transform="translate(498.21,0)" d="M0,100v320" style="stroke: rgb(255, 255, 255); stroke-opacity: 1; stroke-width: 1px;"/></g><g class="y"><path class="ygrid crisp" transform="translate(0,382.85)" d="M80,0h540" style="stroke: rgb(255, 255, 255); stroke-opacity: 1; stroke-width: 1px;"/><path class="ygrid crisp" transform="translate(0,300.6)" d="M80,0h540" style="stroke: rgb(255, 255, 255); stroke-opacity: 1; stroke-width: 1px;"/><path class="ygrid crisp" transform="translate(0,218.35)" d="M80,0h540" style="stroke: rgb(255, 255, 255); stroke-opacity: 1; stroke-width: 1px;"/></g></g><g class="zerolinelayer"><path class="yzl zl crisp" transform="translate(0,136.09)" d="M80,0h540" style="stroke: rgb(255, 255, 255); stroke-opacity: 1; stroke-width: 2px;"/></g><path class="xlines-below"/><path class="ylines-below"/><g class="overlines-below"/><g class="xaxislayer-below"/><g class="yaxislayer-below"/><g class="overaxes-below"/><g class="plot" transform="translate(80,100)" clip-path="url(#clip794321xyplot)"><g class="scatterlayer mlayer"><g class="trace scatter trace2ce300" style="stroke-miterlimit: 2; opacity: 0.5;"><g class="fills"/><g class="errorbars"/><g class="lines"><path class="js-line" d="M0,36.09L2.18,36.09L2.36,141.5L2.72,300.07L3.27,251.45L3.45,251.59L3.63,252.6L3.81,251.46L3.99,284.54L4.36,282.82L4.54,242.07L5.08,285.22L5.26,282.51L5.45,217.35L5.63,224.8L5.81,274.38L6.53,47.52L6.72,57.71L6.9,295.52L7.08,283.38L7.26,23.26L7.99,39.06L8.17,36.88L8.35,36.29L8.53,34.26L8.71,38.88L9.08,35.08L9.26,36.12L9.62,36.75L9.8,36.19L9.98,132.23L11.25,301.11L11.44,282.94L11.62,264.99L11.98,303.55L12.34,282.74L12.52,264.74L12.89,285.49L13.43,282.81L13.61,282.99L13.79,282.76L13.98,285.46L14.34,280.23L14.88,282.84L15.07,282.9L15.25,282.75L15.43,300.91L15.97,264.78L16.15,282.86L16.34,282.87L16.52,282.52L16.7,271.59L16.88,250.51L17.61,251.62L17.79,260.27L18.15,247.74L18.33,250.39L18.51,252.87L19.06,249.79L19.24,284.54L19.78,282.86L19.97,244.71L20.33,285.43L20.87,282.87L21.06,282.83L21.24,280.26L21.42,282.87L21.6,244.93L21.78,243.64L21.96,284.33L22.14,282.86L22.51,285.23L22.69,285.01L23.23,279.85L23.42,300.64L24.14,33.25L24.69,34.82L24.87,294.99L25.05,24.03L25.77,37.39L25.96,38.95L26.68,33.76L26.86,48.3L27.05,35L27.41,39.33L27.59,63.31L28.68,300.98L28.86,283.04L29.04,265.09L29.59,282.69L29.77,275.11L30.13,281.77L30.31,274.55L30.49,275.51L30.68,277.23L31.4,301.11L31.58,283.21L31.76,282.9L31.95,264.78L32.13,282.96L32.85,282.86L33.04,280.26L33.94,282.87L34.12,282.82L35.58,282.82L35.76,278.65L35.94,284.68L36.12,282.87L36.3,250.52L36.48,250.63L36.67,247.14L37.03,250.07L37.21,247.72L37.39,245.76L37.75,248.71L37.94,284.46L38.12,282.88L38.3,248.22L38.48,284.55L39.21,282.81L39.39,298.37L40.66,34.62L40.84,35.65L41.02,35.68L41.2,293.47L41.38,285.63L41.57,26.49L41.75,293.64L42.29,279.54L42.47,157.25L42.66,227.24L42.84,156.92L43.02,20.81L43.38,38.57L43.93,34.99L44.11,36.07L44.47,36.27L44.65,34.2L45.56,38.62L45.74,36.95L45.92,36.52L46.1,219.77L46.65,285.79L47.01,282.95L47.19,282.93L47.37,282.74L47.56,280.27L48.46,282.98L48.65,278.25L49.01,271.21L49.55,272.36L49.73,270.93L51.01,254.78L51.19,257.15L51.37,257.77L51.55,255.12L51.73,254.94L51.91,255.16L52.09,253.22L52.46,259.46L52.64,256.65L52.82,254.06L53,258.62L53.36,251.94L53.55,253.87L53.73,257.12L54.45,247.12L54.64,247.45L54.82,250.97L55.18,249.66L55.36,251.85L55.54,252.02L56.45,246.28L56.63,248.32L56.81,248.18L56.99,242.62L57.36,181.01L57.54,297.19L58.08,35.05L58.27,297.16L58.45,281.22L58.63,23.55L59.17,293.18L59.35,220.39L59.54,232.85L59.72,25.32L60.26,36.9L60.63,36L60.81,239.25L60.99,283.38L61.17,282.32L61.35,24.96L61.71,37.16L62.26,36.5L62.44,36.02L62.62,35.59L62.8,39.27L62.98,49L63.17,127.49L63.35,148.63L63.53,283.68L64.44,280.12L64.62,282.86L64.8,282.89L64.98,278.13L65.16,285.33L65.71,282.81L65.89,282.99L66.25,282.86L66.43,285.45L66.8,280.26L67.34,282.81L67.52,282.81L68.07,282.85L68.25,253.98L68.43,254.25L68.61,267.77L68.79,268.46L68.97,254.91L69.34,258.91L69.52,255.39L69.7,253.9L69.88,256.18L70.25,252.79L70.43,267.83L70.61,269.67L70.79,256.11L71.15,258.85L71.33,255.21L71.52,284.67L71.88,282.83L72.06,251.61L73.15,267.07L73.33,252.67L73.51,252.57L73.69,256.64L73.88,284.72L74.42,282.84L74.6,253.34L74.78,274.31L74.96,233.1L75.15,104.32L75.33,39.88L75.51,62.47L75.69,294.78L75.87,23.86L76.6,34.8L76.78,39.3L76.96,79.53L77.32,32.78L77.51,36.72L77.69,33.81L78.23,30.73L78.59,38.07L78.78,36.98L79.14,35.7L79.32,38.03L79.68,36.03L79.87,37.33L80.05,282.11L80.23,261.93L80.41,25.3L80.77,58.34L80.95,120.62L81.14,296.95L81.86,285.37L82.04,282.83L82.23,300.88L82.59,282.82L82.77,264.81L83.13,282.82L83.5,270.57L83.68,273.14L84.04,271L84.22,272.85L84.4,285.16L84.95,282.79L85.31,282.9L85.49,282.81L85.86,282.87L86.04,252.86L86.4,252.12L86.76,254.75L86.94,251.11L87.67,249.15L87.85,250.93L88.03,251.04L88.22,250.37L88.4,254.69L88.58,255.34L88.76,248.15L88.94,245.66L89.12,249.23L89.3,300.04L89.49,230.62L90.03,248.48L90.21,249.74L90.39,249.76L90.57,247.57L90.76,246.25L90.94,248.77L91.12,300L92.03,215.96L92.21,242.95L92.75,242.25L92.93,283.79L93.12,283L93.3,284.9L93.48,303.58L93.66,267.73L93.84,281.71L94.02,189.62L94.39,294.01L94.57,266.48L94.75,28.25L95.48,40.85L95.66,35.38L95.84,36.22L96.02,65.52L96.56,33.16L96.75,36.02L96.93,36.34L97.11,39.82L97.65,249.77L97.84,194.77L98.02,97.92L98.2,89.75L98.38,200.11L98.74,189.6L99.11,282.89L99.29,282.84L99.47,282.83L100.01,275.49L100.19,278.38L100.38,285.43L101.28,282.87L101.47,282.88L101.83,282.87L102.01,280.27L102.74,282.88L102.92,282.85L103.1,282.85L104.73,282.62L104.91,276.48L105.46,254.55L105.82,258.32L106,255.19L106.18,300.08L106.55,282.81L106.73,232.64L107.09,300.05L107.27,230.86L108.18,284.41L108.36,282.87L108.54,245.91L108.73,246L108.91,248.23L109.09,247.07L109.27,237.32L110,238.72L110.18,173.97L110.36,88.28L110.54,80.61L110.72,294.41L110.9,282.59L111.09,27.27L111.81,37.2L111.99,34.66L112.17,34.34L112.54,34.99L112.72,38.82L112.9,30.05L113.26,41.57L113.45,35.84L113.63,35.47L113.99,39.81L114.17,35.68L114.35,69.3L114.53,202.37L114.9,34.3L115.08,37L115.26,36.94L115.44,41.13L115.62,297.92L116.35,283.15L116.53,285.54L116.71,280.11L117.26,280.28L117.44,282.88L117.62,282.87L117.8,280.25L117.98,282.86L118.16,271.71L118.35,273.95L118.53,270.64L118.71,269.24L118.89,271.7L119.44,270.47L119.62,266.27L120.34,252.89L120.52,253.72L120.71,255.1L121.07,245.75L121.61,248.13L121.79,249.79L122.7,251.97L122.88,252.02L123.25,256.46L123.43,252.08L124.34,241.67L124.52,246.32L124.7,247.53L124.88,299.9L125.24,223.84L125.79,238.46L125.97,235.93L126.51,252.25L126.7,237.74L126.88,234.22L127.06,270.21L127.24,278.3L127.42,209.91L128.15,35.57L128.33,293.68L128.69,282.34L128.87,24.41L129.42,38.1L129.78,35.87L129.96,211.31L130.51,17.64L131.05,36.23L131.23,36.3L131.42,39.25L131.96,39.01L132.14,36.56L132.32,34.09L132.5,37.67L132.69,40.11L132.87,37.29L133.05,116.83L133.41,283.39L133.96,282.17L134.14,276.25L134.86,264.35L135.23,268.63L135.41,270.1L135.59,271.26L135.77,268.42L135.95,281.2L136.86,282.89L137.04,282.77L139.22,282.89L139.4,282.84L140.31,282.63L140.49,272.95L141.4,238.63L141.58,237.19L141.94,242.17L142.49,240.87L142.67,284.26L142.85,282.85L143.03,235.83L143.21,234.95L143.39,238.08L143.58,299.83L143.94,217.37L144.12,284.07L144.3,282.8L144.48,300.93L144.67,264.92L144.85,280.76L145.03,96.73L145.21,107.05L145.39,37.07L145.75,80.34L145.94,38.65L146.84,32.85L147.03,35.69L147.21,98.18L147.57,78.81L147.75,20.16L148.66,91.88L148.84,21.03L149.57,39.53L149.75,36.71L149.93,36.71L150.11,34.32L150.29,47.66L151.02,283.45L151.56,282.37L151.74,282.83L152.83,282.87L153.02,252.99L153.2,254L153.38,275.68L153.56,283.11L154.29,282.82L154.47,282.83L157.92,282.76L158.1,268.81L159.01,230.69L159.19,233.56L159.55,229.19L159.73,230.36L159.91,284.05L160.46,282.86L160.64,229.17L160.82,229.72L161,299.53L161.18,267.37L161.73,285.27L161.91,285.22L162.09,280.09L162.27,282.55L162.45,227.47L162.64,297.02L162.82,282.33L163,24.28L163.18,291.04L163.72,24.33L163.91,35.81L164.63,35.89L164.81,33.34L164.99,35.96L165.18,54L165.54,18.04L165.9,36.19L166.08,54.48L166.63,18.98L166.99,36.4L167.17,36.82L167.35,34.55L167.72,36.96L167.9,36.73L168.08,76.03L168.81,285.51L169.17,282.78L169.35,282.85L169.53,282.9L169.71,300.9L170.62,264.81L170.8,280.25L170.98,282.81L171.17,277.7L171.35,254.64L171.53,255.48L171.71,253.96L171.89,250.47L172.07,252.32L172.26,247.75L172.44,237.24L173.34,240.3L173.53,237.78L173.71,237.86L173.89,240.7L174.07,240.36L174.25,235.77L174.43,236.06L174.62,238.66L174.98,236.03L175.16,238.74L175.34,239.24L176.25,235.64L176.43,236.85L176.61,236.29L177.52,230.91L177.7,233.17L178.25,229.97L178.43,237.2L178.61,284.27L178.79,282.84L178.97,300.97L179.52,76.92L179.7,153.96L179.88,299.75L180.24,265.45L180.61,282.64L180.79,191.04L180.97,296.77L181.69,282.93L181.88,282.15L182.06,283.07L182.24,281.52L182.42,26.2L182.96,65.61L183.15,92.19L183.51,35.08L184.05,35.29L184.24,35.75L184.42,36.29L184.6,44.4L185.69,125.79L185.87,297.61L186.59,264.74L186.78,282.88L186.96,300.95L187.68,238.9L188.05,253.47L188.23,284.69L188.41,282.83L189.14,283.07L189.32,272.37L189.68,239.1L190.23,239.25L190.41,236.96L190.77,235.88L190.95,231.96L191.13,229.75L191.31,232.81L191.5,284.13L192.22,282.84L192.4,282.87L192.58,282.9L193.49,229.6L193.67,233.11L193.86,238.41L194.22,231.63L194.4,231.98L194.58,232.37L194.76,231.64L194.94,269.97L195.49,256.65L196.03,298.33L196.22,222.58L197.12,285.36L197.3,283.01L197.49,282.73L197.67,280.21L197.85,282.75L198.03,303.31L198.94,184.79L199.12,106.73L200.03,35.77L200.21,32.48L200.75,37.97L201.12,36.17L201.3,35.66L201.48,33.55L201.66,36.83L201.84,36.34L202.02,36.27L202.39,283.5L202.57,26L202.75,37.5L202.93,88.9L203.48,283.22L204.02,282.85L204.2,282.8L204.38,282.49L204.56,266.62L204.75,255.37L204.93,284.82L205.11,282.86L206.2,282.86L206.38,244.9L206.56,246.91L206.74,241.99L206.92,235.39L207.29,232.22L207.65,235.53L207.83,235.36L208.01,234.77L208.19,231.26L208.56,233.88L208.74,230.22L208.92,230.11L209.1,235.26L209.28,234.96L209.47,299.51L209.83,217.08L210.37,235.46L210.55,237.7L210.92,228.82L211.46,230.96L211.64,284.11L212.37,282.87L212.55,230.02L212.73,229.03L212.91,230.57L213.1,231.76L213.28,230.98L213.46,284.03L214,282.79L214.18,282.84L214.37,283.17L215.64,35.54L215.82,32.94L216,35.77L216.18,293.78L216.36,264.96L216.54,26.12L217.45,35.98L217.63,41.26L217.82,188.64L218.18,120.24L218.36,22.79L219.27,36.87L219.45,36.59L219.63,36.76L219.81,55.31L219.99,53.34L220.17,168.76L220.54,283.46L221.08,282.71L221.26,282.74L222.72,282.86L222.9,278.83L223.44,244.96L223.81,248.47L223.99,246.4L224.71,227.44L225.08,230.17L225.26,228.8L225.44,228.18L225.62,232.01L226.53,223.56L226.71,223.95L226.89,224.9L227.07,224.64L227.25,226.11L227.62,230.23L227.8,227.16L227.98,225.15L228.16,224.75L228.34,222.29L228.52,221.54L228.71,223.22L228.89,223.87L229.25,226.3L229.43,224.04L229.61,222.47L229.98,227.58L230.16,222.48L230.34,219.61L230.88,285.47L231.25,282.89L231.43,282.8L232.34,35.94L232.52,293.46L233.43,23.99L233.61,35.77L234.15,35.79L234.33,54.04L234.7,18.3L235.06,35.66L235.24,38.76L235.97,33.52L236.15,39.24L236.33,33.85L236.87,34.05L237.06,37.05L237.24,34.07L237.42,36.66L237.6,40.72L238.14,283.35L238.69,282.72L238.87,282.71L239.78,282.88L239.96,247.48L240.14,250.39L240.32,300.07L241.05,232.03L241.59,243.88L241.77,245.5L243.41,220.29L243.59,220.37L243.77,220.35L243.95,222L244.5,237.41L244.68,235.11L244.86,225.56L245.22,225.59L245.59,219.66L245.77,283.78L245.95,282.82L246.13,282.86L246.31,218.21L247.04,235.6L247.4,231.81L247.58,284.01L247.76,282.82L247.95,285.46L248.13,285.49L249.04,280.21L249.22,179.94L249.58,298.24L250.12,282.22L250.31,24.24L250.67,35.63L250.85,296.35L251.03,282.52L251.21,29.91L251.58,36.29L252.12,35.44L252.3,36.59L252.67,33.74L252.85,38.22L253.03,293.44L253.21,286.26L253.39,22.91L253.57,36.97L253.75,294.75L254.12,283.09L254.3,172.9L254.48,165.69L254.66,66.07L255.21,285.18L255.75,282.91L255.93,282.8L256.66,282.85L256.84,280.28L257.75,282.86L257.93,282.88L259.2,282.75L259.38,267.61L259.93,219.35L260.29,223.55L260.47,222.65L261.02,239.99L261.2,232.27L261.38,221.96L261.92,213.92L262.1,216.52L262.29,220.92L262.65,218.24L263.01,218.58L263.19,224.5L263.56,233.66L263.74,223.49L263.92,214.26L264.65,216.38L264.83,216.17L265.01,214.15L265.19,213.77L265.37,221.88L265.55,232.71L265.73,299.63L266.46,194.47L266.64,282.84L266.82,258.56L267.19,270.73L267.37,127.28L267.55,34.37L268.28,34.69L268.46,35.4L268.64,35.96L268.82,32.63L269,33.04L269.18,59.55L269.36,20.05L269.91,35L270.09,34.29L270.27,40.17L270.82,37.72L271,39.36L271.18,294.21L271.54,25.59L271.72,54.76L271.91,34.92L272.45,39.05L272.63,70.3L272.81,83.01L272.99,186.46L273.72,285.44L273.9,282.85L274.08,282.91L274.81,282.85L274.99,280.24L275.9,282.93L276.08,282.89L276.63,282.77L276.81,264.82L277.71,219.22L277.9,217.91L278.44,222.65L278.62,232.45L278.8,234.77L278.98,230.7L279.17,224.74L279.53,215.93L279.89,224.43L280.07,223.77L280.44,218.87L280.62,218.93L280.8,226.65L281.16,235.91L281.34,229.26L281.53,217.88L281.71,216.76L282.07,218.79L282.25,221.44L282.43,220.74L282.62,216.58L282.8,220.03L282.98,299.36L284.07,157.12L284.25,187.21L284.43,58.54L284.61,291.11L284.97,24.44L285.16,35.89L285.34,35.24L285.52,35.2L285.7,36.73L285.88,37.02L286.06,35.42L286.43,39.15L286.79,35.78L286.97,32.42L287.33,223.11L287.52,21.65L287.7,135.83L287.88,35.42L288.06,19.89L288.24,124.24L288.61,188.77L288.79,18.98L290.06,150.94L290.24,225.69L290.6,283.03L291.15,282.86L291.33,282.88L292.05,237.06L292.24,239.67L292.42,239.25L292.78,255.13L292.96,284.71L293.87,282.8L294.05,282.84L294.23,282.84L294.41,217.83L294.78,222.14L294.96,283.78L295.87,282.81L296.05,282.85L296.59,282.89L296.77,219.8L296.95,217.12L297.32,220.2L297.5,218.72L297.68,219.36L297.86,222.93L298.04,299.42L298.23,214.74L298.95,217.11L299.13,220.15L299.5,215.27L300.04,216.5L300.22,283.71L300.77,282.89L300.95,233.22L301.13,234.07L301.31,283.86L301.49,282.74L301.67,243L302.22,35.47L302.4,293.49L302.58,24.17L303.13,35.59L303.31,157.63L303.67,16.24L304.22,35.89L304.4,35.96L304.94,36.15L305.12,38.56L305.3,36.16L305.85,36.47L306.03,38.99L306.57,33.85L306.76,36.79L306.94,39.4L307.12,36.66L307.3,42.47L307.48,134.94L307.66,139.3L307.85,242.57L308.03,283.24L308.57,282.87L308.75,241.9L308.93,299.86L309.3,282.84L309.48,223.99L310.02,244.01L310.39,239.19L310.57,241.85L310.75,239.25L310.93,243.49L311.11,253.89L311.29,251.33L311.48,233.15L311.66,220.49L312.38,220.87L312.56,220.34L313.11,220.53L313.47,217.68L313.65,220.49L314.02,212.03L314.2,223.34L314.38,237.22L315.47,217.27L315.65,218.46L315.83,217.67L316.01,216.49L316.19,222.68L316.38,223.62L316.56,217.22L316.92,234.43L317.1,302.21L317.83,200.31L318.37,214.45L318.55,205.3L318.92,175.34L319.1,109.76L319.64,35.44L320.01,35.89L320.19,35.61L321.28,35.85L321.46,38.5L321.64,35.81L321.82,35.98L322,178.77L322.55,20.79L322.91,36.52L323.09,36.35L323.46,36.25L323.64,33.78L324.54,36.66L324.73,36.85L324.91,37.6L325.09,125.38L325.45,282.89L326,258.18L326.18,256.69L327.27,243.31L327.45,284.29L328.36,282.84L328.54,238.6L329.45,220.54L329.63,225.76L329.81,223.24L329.99,217.89L330.35,221.98L330.53,228.45L330.72,230.97L330.9,230.12L331.08,222.55L331.81,214.87L331.99,218.26L332.17,221.15L332.71,219.24L332.89,217.93L333.26,221.09L333.44,218.98L333.62,217.07L333.98,234.44L334.35,222.78L334.53,216.26L334.71,218.56L334.89,217.24L335.07,299.08L336.34,129.1L336.52,295.26L336.71,285.28L336.89,199.84L337.07,235.8L337.25,172.21L337.43,45.88L337.61,290.29L338.16,74.61L338.34,38.09L338.7,35.88L338.88,35.91L339.07,296.61L339.25,282.65L339.43,282.67L339.61,21.84L340.15,38.87L340.34,33.57L340.52,33.44L341.06,36.53L341.43,36.35L341.61,36.44L342.15,36.68L342.33,52.29L343.42,254.24L343.6,284.75L344.15,282.83L344.51,282.87L344.69,282.88L345.06,282.86L345.24,239.41L345.6,243.97L345.96,240.82L346.14,236.27L347.05,218.72L347.23,223.21L347.42,226.13L347.78,221.14L347.96,230.67L348.14,238.28L348.5,226.95L348.69,218.21L348.87,215.46L349.23,220.9L349.41,219.69L349.59,219.1L349.77,221.33L349.96,220.96L350.14,217.96L350.32,216.26L350.5,218.22L350.68,221L351.05,231.64L351.41,222.14L351.59,217.12L352.32,214.07L352.5,299.09L352.68,203.46L353.04,217.16L353.41,211.28L353.59,208.59L353.95,150.22L354.13,66.38L354.31,84.53L354.49,35.46L354.68,35.47L355.58,35.77L355.76,227.82L356.13,17.8L356.67,38.86L356.85,35.45L357.04,222.17L357.4,16L357.58,36.4L357.76,33.64L358.49,39.07L358.67,36.31L358.85,36.53L359.03,36.68L359.21,39.29L359.58,34.17L359.76,52.28L360.3,285.84L360.85,282.92L361.03,282.74L361.57,282.76L361.75,243.79L361.94,245.67L362.12,243.49L362.3,284.47L363.21,282.84L363.39,282.86L363.75,282.85L363.93,227.94L364.84,222.8L365.02,225.59L365.38,223.4L365.57,225.06L365.75,231.58L366.11,221.16L366.29,222.09L367.2,236.97L367.38,229.32L367.93,223.21L368.11,227.47L368.29,234.65L368.65,220.53L369.2,224.92L369.38,227.65L369.92,217.12L370.1,283.74L370.47,282.78L370.65,212.38L371.19,118.29L371.37,172.3L371.56,299.96L371.92,119.81L372.1,47.55L372.28,290.53L372.46,22.43L372.83,35.43L373.01,35.08L373.37,38.18L373.73,37.04L373.92,34.8L374.28,37.41L374.46,36.12L374.64,33.81L375.19,38.03L375.55,36.57L375.73,39.54L375.91,37.09L376.09,290.95L376.28,282.98L376.46,25.08L376.64,35.11L376.82,91.28L377.18,295.85L377.55,282.74L377.73,181.27L378.45,263.41L378.64,244.65L378.82,249.89L379,284.72L379.72,282.76L379.91,282.88L380.63,282.89L380.81,241.81L381.9,222.69L382.08,225.75L382.45,230.17L382.63,227.03L382.81,221.8L382.99,219.95L383.35,223.41L383.54,222.07L383.72,220.4L383.9,222.22L384.08,228.95L384.44,221.07L384.99,222.98L385.17,232.62L385.35,230.63L385.53,299.27L385.9,206.74L386.44,221.78L386.62,220.85L386.8,219.69L386.98,283.74L387.35,282.78L387.53,214.51L388.07,219.03L388.26,301.83L388.62,264.47L388.8,284.86L388.98,138.2L389.53,33.65L389.89,38.11L390.07,35.57L390.62,35.85L390.8,38.45L390.98,33.46L391.16,35.76L391.34,130.52L391.7,18.81L392.25,36.55L392.43,36.24L392.61,39.89L392.79,293.38L393.16,23.21L393.7,39.41L393.88,36.99L394.06,34.24L394.25,36.2L394.43,294.66L394.61,283.49L394.79,130.65L395.15,283.16L395.7,261.42L395.88,250.58L396.06,256.13L396.42,247.64L396.61,250.37L396.79,254.07L396.97,254.55L397.15,249.72L397.51,244.92L397.88,247.01L398.06,247.14L398.42,243.99L398.6,236.38L399.51,220.77L399.69,228.15L399.87,231.72L400.05,224.31L400.24,221.15L400.42,223.2L400.6,221.66L400.78,218.28L401.14,235.23L401.69,226.32L401.87,225.8L402.05,225.26L402.23,226.04L402.41,230.42L402.59,230.82L402.78,283.92L402.96,282.9L403.14,225.85L403.5,233.4L403.68,228.33L403.87,222.13L404.05,222.31L404.23,225.99L404.41,231.5L404.77,223.54L404.95,224.1L405.5,233.78L405.68,231.55L405.86,301.79L406.04,264.69L406.23,300.51L406.41,48.65L406.95,35.42L407.13,35.46L407.31,38.17L407.5,38.2L407.68,35.62L408.04,35.96L408.22,33.14L408.4,38.64L408.95,35.88L409.13,35.96L409.31,36.09L409.49,33.33L410.22,38.88L410.4,54.33L410.58,74.26L410.76,20.49L410.94,36.34L411.13,36.74L411.31,36.52L411.49,34.08L412.22,41.35L412.4,236.56L412.58,283.3L413.3,282.7L413.49,282.85L414.39,247.93L414.57,254.56L414.76,256.81L414.94,250.61L415.12,284.54L415.85,282.81L416.03,285.44L416.57,280.25L416.93,282.85L417.12,282.85L417.3,282.87L417.48,229.52L417.84,226.95L418.21,227.56L418.39,230.46L418.57,234.69L418.93,227.35L419.11,226.32L419.29,228.78L419.48,299.47L419.66,206.32L420.2,232.35L420.38,224.69L420.56,224.37L420.75,225.66L421.11,222.48L421.29,230.75L421.47,230.19L421.65,220.61L422.74,238.29L422.92,229.71L423.11,210.74L423.29,282.2L424.01,35.52L424.19,296.05L424.38,282.73L424.56,23.98L424.92,38.18L425.28,38.04L425.47,33.45L426.01,38.54L426.19,169.54L426.55,20.15L427.1,30.94L427.28,36.03L427.46,54.28L427.83,18.22L428.01,36.32L428.19,36.43L429.28,36.58L429.46,36.54L430.18,283.26L430.55,282.6L430.73,264.21L430.91,270.04L431.27,259.14L431.46,260.41L431.64,261.51L431.82,250.11L432.18,258.48L432.36,247.99L432.73,257.63L432.91,254.75L434.36,228.53L434.54,230.33L434.9,229.59L435.09,232.15L435.27,233.22L435.45,230.13L435.63,228.79L436.17,227.65L436.54,231.14L436.72,228.09L437.08,236.69L437.26,229.05L437.45,225.02L437.63,226.31L437.99,224.12L438.17,224.81L438.35,225.62L438.72,228.84L438.9,224.65L439.08,222.35L439.26,219.74L439.62,223.67L439.81,229.62L439.99,230.32L440.17,225.51L440.53,210.87L440.71,184.15L440.89,255.8L441.08,182.93L441.26,35.98L441.62,35.6L441.8,37.85L441.98,38.49L442.16,293.48L442.35,22.39L443.07,38.93L443.25,34.92L443.44,36.56L443.62,281.38L443.8,23.54L444.52,37.65L444.71,36.81L444.89,38.73L445.25,36.14L445.43,34.89L445.79,36.48L445.98,35.76L446.16,34.48L446.52,37.5L446.7,61.23L447.07,283.9L447.61,282.87L447.79,283L447.97,284.82L448.15,282.86L448.34,280.18L448.52,283.01L449.24,282.75L449.43,243.75L450.33,300L450.51,282.94L450.7,233.52L450.88,236.19L451.06,231.63L451.24,299.49L451.78,209.59L452.15,226.75L452.33,229.1L453.24,223.65L453.42,224.52L453.6,226.51L453.78,224.49L453.96,226.12L454.14,236.74L454.33,236.89L454.51,226.75L455.05,223.46L455.23,225.91L455.42,227.04L455.78,221.46L455.96,227.01L456.14,228.65L456.5,220.15L457.05,221.78L457.23,220.64L457.41,228.19L457.77,220.37L457.96,299.22L458.86,238.51L459.05,131.1L459.23,34.42L459.41,133.28L459.59,70.26L459.77,147.3L459.95,293.22L460.13,26.79L460.5,280.02L460.68,23.85L461.04,39.48L461.59,36.35L461.77,35.93L462.31,36.04L462.49,36.85L462.68,293.99L463.22,44.24L463.4,128.55L463.58,93.84L463.76,225.33L463.95,283.19L464.67,282.82L464.85,249.54L465.04,256.25L465.4,248.3L465.58,287.06L465.76,282.81L465.94,303.54L466.49,264.77L466.85,277.7L467.03,282.85L467.39,282.77L467.58,240.6L467.76,243.02L467.94,240.76L468.12,236.93L468.67,237.17L469.03,226.47L469.21,226.5L469.57,230.62L469.75,227.54L469.94,225.58L470.3,238.13L470.66,225.89L470.84,229.03L471.21,228.53L471.57,230.88L471.75,229.15L471.93,228.07L472.11,230.4L472.3,234.22L472.66,224.56L472.84,299.31L473.02,208.19L473.57,226.18L473.75,229.72L473.93,230.03L474.11,226.38L474.29,283.89L474.84,225.97L475.02,224.77L475.38,235.7L475.56,212.2L476.47,35.77L476.83,36.25L477.02,37.47L477.2,36.02L477.38,293.84L477.56,25.63L478.29,35.74L478.47,38.61L478.65,35.7L478.83,38.99L479.19,36.37L479.37,40.45L479.56,31.03L480.1,32.82L480.28,36.1L480.65,38L480.83,34.4L481.01,34.68L481.19,37.14L481.37,37.11L481.55,69.78L482.28,304L482.46,285.72L482.64,264.69L483.01,282.83L483.55,282.82L483.73,282.7L483.91,280.28L484.28,282.86L484.46,282.86L484.64,282.88L484.82,282.85L485,239.09L485.36,244.66L485.55,242.38L485.73,233.18L486.09,225.67L486.27,228.73L486.45,236.87L487,222.92L487.18,227.94L487.36,283.98L488.27,282.81L488.45,282.88L488.81,282.86L488.99,298.35L489.36,212.79L489.9,229.53L490.08,221.07L490.63,219.07L490.81,219.7L490.99,222.12L491.35,229.03L491.72,222.14L491.9,283.8L492.44,282.9L492.63,298.26L493.53,165.47L493.71,139.66L493.9,155.81L494.08,300.2L494.98,34.19L495.35,36.33L495.53,35.81L495.71,36.16L495.89,35.84L496.07,38.73L496.62,35.68L496.8,76.44L497.16,32.67L497.34,41.61L497.53,295.96L497.71,284.57L497.89,219.65L498.07,298.31L498.62,282.72L498.8,283.2L498.98,280.06L499.16,300.6L499.52,244.11L499.7,255.83L499.89,299.95L500.97,241.65L501.16,242.94L501.52,249.85L501.7,248.08L501.88,243.08L502.06,243.18L502.25,239.92L502.61,243.4L502.79,240.6L502.97,234.22L503.15,228.88L503.33,299.38L503.7,210.5L504.24,224.21L504.42,226.35L504.79,222.98L504.97,225.99L505.15,228.16L505.33,224.1L505.51,226.38L505.69,234.64L506.06,224.03L506.24,228.33L506.42,231.29L506.78,226.62L507.15,231.55L507.33,228.58L508.05,219.45L508.24,219.84L508.42,223.92L508.6,233.33L508.96,224.62L509.14,283.81L509.32,288.1L509.69,282.85L509.87,280.28L510.05,282.84L510.23,221.93L510.41,220.3L510.59,298.69L510.78,283.06L510.96,161.15L511.32,71.73L511.5,204.18L512.05,300.92L512.41,282.83L512.59,48.04L512.95,35.72L513.14,45.94L513.32,115.09L513.68,187.41L513.86,97.28L514.04,155.09L514.23,46.91L514.41,35.84L514.59,110.32L515.13,251.85L515.5,219.64L515.68,96.58L516.04,137.13L516.22,297.04L516.4,280.7L516.58,283L516.77,145.55L516.95,285.16L517.67,282.94L517.86,282.76L518.04,282.87L518.22,280.26L518.58,242.85L518.94,264.82L519.13,259.21L519.85,242.58L520.03,243.8L520.22,246.87L520.76,227.2L521.3,231.37L521.49,230.69L522.39,223.33L522.57,226.21L522.94,232.19L523.3,227.46L523.48,228.54L524.39,223.97L524.57,229.17L524.75,233.07L524.93,227.38L525.12,224.49L525.3,225.74L525.48,223.61L525.66,220.64L526.39,225.97L526.57,232.77L526.75,235.79L527.11,232.08L527.29,230.85L527.48,229.25L527.66,234.18L528.38,144.22L528.56,211.43L528.93,88.46L529.11,152.65L529.29,168.32L529.65,60.39L529.84,294L530.38,300.55L530.74,36.15L530.92,48.93L531.83,296.91L532.01,283.27L532.19,283.02L532.74,35.42L532.92,46.69L533.1,93.23L534.01,301.23L534.19,280.15L534.37,283.06L534.55,264.93L534.92,282.93L535.28,282.84L535.46,251.35L536.01,251.56L536.37,247.59L536.55,253.12L536.73,265.34L537.1,249.35L537.28,250.82L538.37,228.67L538.55,233.79L538.73,239.88L539.27,226.38L539.64,229.43L539.82,230.7L540,233.87" style="vector-effect: non-scaling-stroke; fill: none; stroke: rgb(0, 191, 255); stroke-opacity: 1; stroke-width: 2px; opacity: 1;"/></g><g class="points"/><g class="text"/></g></g></g><g class="overplot"/><path class="xlines-above crisp" d="M0,0" style="fill: none;"/><path class="ylines-above crisp" d="M0,0" style="fill: none;"/><g class="overlines-above"/><g class="xaxislayer-above"><g class="xtick"><text text-anchor="middle" x="0" y="433" transform="translate(132.28,0)" style="font-family: 'Open Sans', verdana, arial, sans-serif; font-size: 12px; fill: rgb(42, 63, 95); fill-opacity: 1; white-space: pre; opacity: 1;"><tspan class="line" dy="0em" x="0" y="433">Dec 4</tspan><tspan class="line" dy="1.3em" x="0" y="433">2022</tspan></text></g><g class="xtick"><text text-anchor="middle" x="0" y="433" style="font-family: 'Open Sans', verdana, arial, sans-serif; font-size: 12px; fill: rgb(42, 63, 95); fill-opacity: 1; white-space: pre; opacity: 1;" transform="translate(254.25,0)">Dec 11</text></g><g class="xtick"><text text-anchor="middle" x="0" y="433" style="font-family: 'Open Sans', verdana, arial, sans-serif; font-size: 12px; fill: rgb(42, 63, 95); fill-opacity: 1; white-space: pre; opacity: 1;" transform="translate(376.23,0)">Dec 18</text></g><g class="xtick"><text text-anchor="middle" x="0" y="433" style="font-family: 'Open Sans', verdana, arial, sans-serif; font-size: 12px; fill: rgb(42, 63, 95); fill-opacity: 1; white-space: pre; opacity: 1;" transform="translate(498.21,0)">Dec 25</text></g></g><g class="yaxislayer-above"><g class="ytick"><text text-anchor="end" x="79" y="4.199999999999999" transform="translate(0,382.85)" style="font-family: 'Open Sans', verdana, arial, sans-serif; font-size: 12px; fill: rgb(42, 63, 95); fill-opacity: 1; white-space: pre; opacity: 1;">−15</text></g><g class="ytick"><text text-anchor="end" x="79" y="4.199999999999999" style="font-family: 'Open Sans', verdana, arial, sans-serif; font-size: 12px; fill: rgb(42, 63, 95); fill-opacity: 1; white-space: pre; opacity: 1;" transform="translate(0,300.6)">−10</text></g><g class="ytick"><text text-anchor="end" x="79" y="4.199999999999999" style="font-family: 'Open Sans', verdana, arial, sans-serif; font-size: 12px; fill: rgb(42, 63, 95); fill-opacity: 1; white-space: pre; opacity: 1;" transform="translate(0,218.35)">−5</text></g><g class="ytick"><text text-anchor="end" x="79" y="4.199999999999999" style="font-family: 'Open Sans', verdana, arial, sans-serif; font-size: 12px; fill: rgb(42, 63, 95); fill-opacity: 1; white-space: pre; opacity: 1;" transform="translate(0,136.09)">0</text></g></g><g class="overaxes-above"/></g></g><g class="polarlayer"/><g class="smithlayer"/><g class="ternarylayer"/><g class="geolayer"/><g class="funnelarealayer"/><g class="pielayer"/><g class="iciclelayer"/><g class="treemaplayer"/><g class="sunburstlayer"/><g class="glimages"/><defs id="topdefs-794321"><g class="clips"/></defs><g class="layer-above"><g class="imagelayer"/><g class="shapelayer"/></g><g class="infolayer"><g class="g-gtitle"><text class="gtitle" x="350" y="50" text-anchor="middle" dy="0em" style="font-family: 'Open Sans', verdana, arial, sans-serif; font-size: 17px; fill: rgb(42, 63, 95); opacity: 1; font-weight: normal; white-space: pre;"><tspan class="line" dy="0em" x="350" y="50">Scenario 8</tspan><tspan class="line" dy="1.3em" x="350" y="50">Microgrid Output</tspan><tspan class="line" dy="2.6em" x="350" y="50">From: December 01, 2022 to December 31, 2022</tspan></text></g><g class="g-xtitle"><text class="xtitle" x="350" y="476.409375" text-anchor="middle" style="font-family: 'Open Sans', verdana, arial, sans-serif; font-size: 14px; fill: rgb(42, 63, 95); opacity: 1; font-weight: normal; white-space: pre;">Time</text></g><g class="g-ytitle"><text class="ytitle" transform="rotate(-90,33.840625,260)" x="33.840625" y="260" text-anchor="middle" style="font-family: 'Open Sans', verdana, arial, sans-serif; font-size: 14px; fill: rgb(42, 63, 95); opacity: 1; font-weight: normal; white-space: pre;">Demand (kW)</text></g></g></svg>