<svg class="main-svg" xmlns="http://www.w3.org/2000/svg" xmlns:xlink="http://www.w3.org/1999/xlink" width="700" height="500" style="" viewBox="0 0 700 500"><rect x="0" y="0" width="700" height="500" style="fill: rgb(255, 255, 255); fill-opacity: 1;"/><defs id="defs-2c6928"><g class="clips"><clipPath id="clip2c6928xyplot" class="plotclip"><rect width="495" height="320"/></clipPath><clipPath class="axesclip" id="clip2c6928x"><rect x="80" y="0" width="495" height="500"/></clipPath><clipPath class="axesclip" id="clip2c6928y"><rect x="0" y="100" width="700" height="320"/></clipPath><clipPath class="axesclip" id="clip2c6928xy"><rect x="80" y="100" width="495" height="320"/></clipPath></g><g class="gradients"/><g class="patterns"/></defs><g class="bglayer"/><g class="layer-below"><g class="imagelayer"/><g class="shapelayer"/></g><g class="cartesianlayer"><g class="subplot xy"><g class="layer-subplot"><g class="shapelayer"/><g class="imagelayer"/></g><g class="minor-gridlayer"><g class="x"/><g class="y"/></g><g class="gridlayer"><g class="x"><path class="xgrid crisp" transform="translate(111.94,0)" d="M0,100v320" style="stroke: rgb(255, 255, 255); stroke-opacity: 1; stroke-width: 1px;"/><path class="xgrid crisp" transform="translate(223.71,0)" d="M0,100v320" style="stroke: rgb(255, 255, 255); stroke-opacity: 1; stroke-width: 1px;"/><path class="xgrid crisp" transform="translate(335.48,0)" d="M0,100v320" style="stroke: rgb(255, 255, 255); stroke-opacity: 1; stroke-width: 1px;"/><path class="xgrid crisp" transform="translate(447.26,0)" d="M0,100v320" style="stroke: rgb(255, 255, 255); stroke-opacity: 1; stroke-width: 1px;"/><path class="xgrid crisp" transform="translate(559.03,0)" d="M0,100v320" style="stroke: rgb(255, 255, 255); stroke-opacity: 1; stroke-width: 1px;"/></g><g class="y"><path class="ygrid crisp" transform="translate(0,363.63)" d="M80,0h495" style="stroke: rgb(255, 255, 255); stroke-opacity: 1; stroke-width: 1px;"/><path class="ygrid crisp" transform="translate(0,290.28)" d="M80,0h495" style="stroke: rgb(255, 255, 255); stroke-opacity: 1; stroke-width: 1px;"/><path class="ygrid crisp" transform="translate(0,143.57999999999998)" d="M80,0h495" style="stroke: rgb(255, 255, 255); stroke-opacity: 1; stroke-width: 1px;"/></g></g><g class="zerolinelayer"><path class="yzl zl crisp" transform="translate(0,216.93)" d="M80,0h495" style="stroke: rgb(255, 255, 255); stroke-opacity: 1; stroke-width: 2px;"/></g><path class="xlines-below"/><path class="ylines-below"/><g class="overlines-below"/><g class="xaxislayer-below"/><g class="yaxislayer-below"/><g class="overaxes-below"/><g class="plot" transform="translate(80,100)" clip-path="url(#clip2c6928xyplot)"><g class="scatterlayer mlayer"><g class="trace scatter trace5ff59d" style="stroke-miterlimit: 2; opacity: 0.5;"><g class="fills"/><g class="errorbars"/><g class="lines"><path class="js-line" d="M0,145.97L0.17,147.9L0.5,143.93L0.67,144.6L1.16,144.98L2,140.34L2.16,142.02L2.33,143.44L2.66,140.16L2.83,140.51L3.16,139.2L3.49,141.14L3.66,140.33L3.99,139.34L4.16,139.89L4.32,141.85L6.82,174.87L6.99,174.12L7.15,173.7L7.32,170.48L7.65,169.73L7.82,170.76L7.98,175.06L8.15,172.33L8.32,180.64L8.48,182.95L8.82,176.66L9.31,178.14L9.48,181.35L9.81,182.79L9.98,180.41L10.15,182.39L10.31,183.44L10.48,177.99L11.31,169.09L11.48,169.57L11.64,171.12L13.14,157.83L13.31,156.77L13.47,157.86L13.64,155.03L13.81,152.55L14.64,149.01L14.8,151.28L15.14,147.48L15.64,148.75L15.8,146.25L16.13,145.21L16.3,146.24L17.13,141.26L17.3,142.6L17.46,143.29L18.3,139.83L18.46,141L18.96,138.41L19.13,139.02L19.29,140.43L19.63,137.49L19.79,138.92L19.96,140.19L20.13,139.07L20.29,140L20.46,144.52L20.63,144.51L20.79,142.74L21.62,153.59L21.79,151.13L21.96,154.64L22.79,159.98L22.95,159.11L23.12,159.45L24.62,171.49L24.78,172.93L25.28,171.31L25.61,174.77L25.78,171.03L26.11,177.17L26.45,171.37L26.61,166.81L26.95,166.38L27.28,168.69L27.44,164.96L27.78,166.6L27.94,164.59L28.78,158.42L28.94,159.18L30.44,146.92L30.6,147.1L31.27,142.96L31.44,144.73L31.6,144.81L32.93,139.22L33.1,140.1L33.6,137.39L33.77,137.78L33.93,141.3L34.93,138.19L35.1,138.56L35.43,137.3L35.59,138.43L35.93,138.66L36.09,137.5L36.26,137.44L36.43,141.06L36.76,141L36.93,143.53L37.59,147.51L37.76,150.41L37.92,150.54L38.09,152.96L38.26,152.24L38.42,153.36L38.59,155.48L40.75,167.58L40.92,165.01L41.75,169.61L41.92,168.63L42.08,169.16L42.41,168.13L42.58,164.26L42.75,161.2L42.91,164.61L43.41,162.79L43.58,160.8L43.74,162.82L44.08,159.51L44.24,160.43L44.41,158.1L46.57,142.57L46.74,143.14L46.91,144L47.07,142.17L47.24,141.51L47.4,143.19L47.9,140.7L48.07,140.7L48.24,140.98L48.4,137.28L48.73,140.31L49.23,138.98L49.4,138.72L50.4,137.5L50.56,137.6L51.06,138.93L51.23,138.2L51.4,137.33L51.56,137.56L51.73,136.81L51.9,138.81L52.23,137.92L52.39,139.61L52.56,139.27L52.73,140.61L54.56,155.56L54.72,153.76L56.05,163.62L56.39,162.38L56.55,162.53L56.72,162.6L56.89,164.8L58.05,171.11L58.38,169.71L58.55,165.45L59.05,166.65L59.38,163.13L59.55,162.05L59.88,162.77L60.05,158.74L60.21,161L60.54,157.35L60.71,157.39L61.88,147.6L62.04,147.76L62.71,142.92L62.87,144.31L63.04,144.36L63.87,141.25L64.04,142.48L64.37,139.36L64.54,139.69L64.7,142.57L65.04,138.74L65.53,139.67L65.7,139.98L66.03,137.33L66.2,138.19L66.37,139.49L66.7,138.66L66.86,137.29L67.2,140.71L67.53,137.62L67.7,137.17L68.2,140.57L68.36,138.47L68.53,139.01L68.69,143.57L68.86,144.04L69.03,142.3L70.03,153.46L70.19,150.78L71.36,173.17L71.52,177.86L71.69,178.4L71.85,168.98L72.35,164.94L72.52,170.91L73.02,183.45L73.52,181.38L73.68,181.13L74.02,181.6L74.18,184.42L75.18,166.6L75.35,168L77.34,150.67L77.51,153.56L77.68,153.08L77.84,148.72L78.84,140.96L79.01,143.56L79.17,144.89L79.84,141.5L80.01,142.06L80.17,141.83L80.67,140.05L80.84,142.7L81.17,138.81L81.83,139L82,139.17L82.33,138.51L82.5,140.16L82.67,138.48L82.83,136.19L83.17,139.56L83.33,139.97L83.5,137.63L84,138.75L84.16,140.58L84.33,139.95L84.5,140.17L84.66,144.93L84.99,146.91L85.16,149.47L85.66,152.57L85.83,156.17L85.99,151.77L86.16,159.38L86.33,170.9L86.66,174L86.82,173.77L86.99,167.83L87.16,166.62L87.32,167.31L87.49,171.92L87.99,182.89L88.32,177.1L88.49,175.98L88.82,173.62L88.99,175.05L89.15,177.42L89.65,173.24L89.82,175.44L89.98,178.24L90.48,173.99L90.65,179.61L90.82,180.02L90.98,178.4L91.32,177.91L91.48,169.94L92.48,157.34L92.65,160.57L94.97,143L95.14,144.83L95.47,140.58L95.81,143.34L95.97,143.17L96.47,143.51L96.64,139.13L96.8,140.47L96.97,142.44L97.3,139.32L97.47,137.06L97.8,140.42L98.14,138.86L98.3,137.2L98.63,141.61L98.8,139.5L98.97,137.23L99.47,138.66L99.96,138.41L100.13,138.71L101.63,161.81L102.13,160.99L102.29,158.4L103.46,169.02L103.62,168.66L103.96,179.45L104.46,176.3L104.62,175.14L106.12,190.06L106.29,189.24L106.45,183.64L106.62,183.32L106.78,183.94L106.95,180.43L108.28,162.31L108.45,162.58L108.61,163.37L108.78,159.77L110.78,144.79L110.94,145.83L111.28,143.05L111.44,143.34L111.61,144.61L112.61,139.71L112.77,142.2L112.94,144.56L113.27,139.75L113.44,139.65L113.6,141.68L113.94,138.67L114.1,139.6L114.27,139.59L114.44,140.06L114.6,139.11L114.77,137.81L115.1,140.49L115.43,138.93L115.6,137.95L115.77,137.48L115.93,141.3L116.27,139.99L116.6,141.6L116.76,146.89L117.1,147.59L117.26,152.74L117.43,151.53L117.6,156.04L118.43,178.82L118.59,175.46L118.76,175.32L119.09,168.25L119.59,168.88L119.76,176.41L119.92,177.02L120.09,174.79L120.26,171.77L120.42,172.47L120.59,176.81L120.76,173.91L121.09,177.43L121.26,181.8L121.75,188.24L121.92,183.14L122.09,180.83L123.25,169.84L123.42,169.67L126.74,145.12L126.91,146.13L127.91,143.54L128.07,144.09L128.57,144.25L128.91,141.25L129.07,142.39L129.57,137.85L129.74,142.63L129.9,141.78L130.4,137.18L130.57,140.64L130.74,140.76L130.9,137.54L131.57,138.91L131.73,138.74L131.9,139.13L132.07,137.45L133.06,149.21L133.23,150.88L133.73,153.63L133.9,156.78L135.23,174.21L135.39,171.84L135.56,168.87L135.89,168.72L136.72,176.2L136.89,173.67L137.56,181.38L137.89,179.78L138.05,179.91L138.22,180.75L138.39,178.39L138.55,174.63L138.72,178.19L139.05,171.35L139.22,175.03L139.39,174.79L140.38,164.32L140.55,164.95L140.72,164.58L140.88,159.53L141.21,160.19L141.38,156.58L142.38,146.82L142.88,146.96L143.04,146.76L143.71,143.31L144.04,143.43L144.21,143.34L144.38,143.69L144.54,142.5L144.71,142.06L144.87,143.07L145.21,140.45L145.37,142.97L145.54,140.9L145.87,141.1L146.37,139.08L146.54,139.57L146.7,141.03L147.37,137.21L147.54,140.28L147.87,138.49L148.03,139.4L148.2,141.29L150.03,160.05L150.2,160.65L150.36,160.21L150.53,160.69L150.7,164.2L152.53,180.73L152.69,177.05L153.19,176.75L153.52,184.09L153.69,181.19L153.86,182.78L154.19,182.67L154.35,179.43L154.69,179.56L155.19,175.58L155.35,176.09L157.52,157.96L157.68,153.85L157.85,153.09L158.01,155.08L158.18,148.34L158.51,151.22L158.68,147.42L158.85,148.82L159.01,146.21L159.18,148.91L159.51,144.79L159.68,147.5L159.84,145.61L160.51,143.02L160.68,143.65L160.84,144.63L161.51,140.56L161.67,141.77L161.84,143.31L162.84,137.59L163,139.53L163.17,140.69L163.5,140.1L163.67,137.38L165.5,163.8L165.67,165.09L167,177.73L167.16,171.2L167.33,170.77L167.49,172.65L167.83,174.07L167.99,176.71L168.99,187.83L169.16,186.09L169.32,184.8L169.49,185.78L169.66,182.19L169.99,182.18L170.16,181.21L171.32,172.92L171.49,173.13L172.48,161.76L172.65,163.61L172.82,161.37L174.15,147.16L174.31,148.84L174.48,148.33L175.31,143.83L175.48,143.66L175.65,143.91L175.81,142.75L175.98,143.83L176.14,143.66L176.31,141.01L176.48,140.22L176.64,143.12L177.64,138.68L177.81,139.31L178.14,138.89L178.31,139.48L178.47,138.03L178.64,137.24L178.81,137.94L178.97,140.65L179.47,135.59L179.64,137.7L179.8,140.33L179.97,139.02L180.14,141.35L180.3,146.85L181.8,159.78L181.97,157.44L182.13,156.57L182.3,159.06L182.46,156.97L182.63,161.42L183.13,173.41L183.63,170.67L183.8,168.77L184.13,172.58L184.29,168.18L185.46,181.92L185.63,180.81L185.96,182.91L186.12,179.35L186.29,178.39L186.46,181.34L186.79,178.73L186.96,179.72L187.12,179.94L187.29,173.48L187.95,162.09L188.29,163.54L188.45,159.17L190.61,144.67L190.78,145.62L191.95,140.92L192.11,142.8L192.94,139.07L193.11,139.28L193.28,139.64L193.44,139.64L193.61,138.84L193.78,137.21L194.11,141.1L194.44,137.35L194.61,138.26L194.94,137.05L195.11,138.36L195.27,138.87L195.6,138.06L195.77,136.1L197.77,164.16L197.93,161.85L198.1,162.12L198.43,157.42L198.6,162.72L198.77,159.95L198.93,163.62L199.1,164.11L199.26,163.79L199.43,168.55L199.6,169.09L199.76,168.37L199.93,172.64L201.09,187.8L201.26,186.13L201.43,184.85L201.59,186.57L201.76,189.09L201.93,190.28L202.09,187.44L202.26,186.04L202.42,185.72L202.59,183.66L202.92,184.91L203.09,181.57L203.26,181.05L203.42,177.9L204.42,163.38L204.59,160.93L205.75,149.72L205.92,147.55L206.08,148.78L206.42,146.22L206.58,146.67L206.75,147.49L206.92,145.07L207.08,147.09L207.25,146.08L207.91,141.59L208.08,141.91L208.25,143.75L208.41,144.51L208.58,141.99L208.74,142.96L208.91,141.87L209.24,140.27L209.41,141.01L209.58,142.08L210.08,138.58L210.24,141.14L210.41,141.73L210.57,138.12L211.24,139.66L211.41,139.33L211.57,138.28L211.74,139.48L212.07,139.08L212.24,144.76L213.4,163.7L213.57,164.46L214.4,178.73L214.57,177.61L214.73,177.07L215.07,181.79L215.23,175.87L215.4,173.64L215.73,172.6L216.23,179.45L216.4,178.54L216.56,174.72L216.9,181.5L217.39,177.82L217.56,176.38L218.23,185.52L218.39,180.44L218.56,175.47L218.72,175.66L218.89,174.47L220.39,160.5L220.55,163.08L221.22,163.62L221.55,153.31L221.72,151.96L222.72,147.01L222.88,145.8L223.05,147.58L223.38,144.76L223.55,146.04L223.71,146.29L224.38,142.69L224.71,143.6L224.88,143.44L225.54,140.74L225.88,141.1L226.04,140.86L226.21,142.52L226.38,139.2L226.71,141.53L226.88,140.19L227.21,139.25L227.54,141.05L227.71,139.59L228.21,146.17L228.37,151.17L229.37,167.18L229.54,167.93L229.87,175.45L230.37,175.04L230.53,173.05L230.87,180.69L231.2,175.93L231.37,174.66L231.53,174.77L231.7,178.57L232.36,193.54L232.7,193.12L232.86,190.36L233.2,189.72L233.36,190.38L233.53,196.31L233.69,201.12L233.86,195.16L234.19,198.98L234.36,192.03L235.52,186.09L235.69,175.88L237.35,158.7L237.52,161.15L237.69,163.14L238.02,162.45L238.19,159.42L239.35,144.28L239.52,145.18L239.68,148.07L240.51,142.62L240.68,144.32L240.85,146.38L241.84,140.95L242.01,143.03L242.68,138.84L242.84,142.66L243.01,142.97L243.18,139.65L243.67,143.61L244.01,143.4L244.17,149.81L244.34,149.13L244.51,150.35L244.67,155.65L245.01,157.74L245.17,157.53L245.34,161.89L245.5,162.4L245.67,160.86L245.84,166.61L246.17,164.23L246.34,170.29L246.5,169.82L246.67,169.91L246.83,176.4L247,174.53L247.17,175.31L247.33,180.84L247.5,180.22L247.67,175.74L248.5,186.21L248.66,182.78L249.33,196.4L249.5,193.75L249.66,190.1L249.83,190.46L249.99,182.89L250.16,183.53L250.33,182.86L250.49,179.64L250.66,182.13L250.99,178.57L251.16,178.14L251.33,177.91L251.49,172.47L251.66,175.44L251.99,169.75L252.16,170.33L253.32,159.32L253.49,157.94L253.65,163.11L253.99,155.5L254.15,153.24L254.98,146.01L255.15,148.21L255.32,149.1L255.48,145.24L255.82,148.55L255.98,145.19L256.48,146.26L256.65,144.47L256.98,146L257.31,143.22L257.48,144.29L257.65,145.12L257.81,143.15L257.98,142.64L258.48,142.45L258.81,145.97L258.98,144.61L259.14,140.54L259.64,143.79L259.81,143.02L260.97,158.72L261.14,162.86L262.8,177.85L262.97,173.52L263.14,173.36L263.3,178.25L263.47,176.72L263.8,179.64L263.97,179.94L264.3,181.05L264.47,184.69L264.8,182.86L265.13,188.8L265.46,188.54L265.63,182.78L266.46,180.5L266.63,178.25L268.29,164.87L268.46,161.95L268.62,162.53L268.79,161.08L268.96,161.26L269.12,159.46L270.45,148.76L270.62,149.69L270.79,149.44L270.95,146.84L271.62,147.27L271.78,147.84L271.95,147.93L272.12,146.69L272.45,147.73L272.62,145.35L272.78,147.28L272.95,145.77L273.45,147.23L273.78,143.07L273.95,145.92L274.45,141.41L274.61,143.06L274.78,144.56L275.61,141.53L275.78,144.23L277.61,187.07L277.94,186.38L278.1,188.38L278.27,186.35L278.6,189.99L278.77,188.62L278.94,193.16L279.27,177.68L279.6,188.56L279.77,188.22L280.6,196.22L280.93,193.97L281.1,190.95L281.6,186L281.93,188.06L282.1,189.85L282.43,190.85L282.76,190.3L282.93,189.27L285.92,151.78L286.09,152.11L286.26,152.03L287.09,147.22L287.25,149.17L287.42,149.13L288.08,144.63L288.25,147.82L288.42,147.93L289.25,143.09L289.42,144.9L289.58,144.82L289.75,142.69L290.08,143.96L290.25,142.25L290.41,140.77L290.58,143.18L290.91,140.51L291.08,141.32L291.24,140.74L291.58,140.39L292.24,154.57L292.41,162.23L293.24,171.51L293.41,184.23L293.57,182.76L293.74,188.7L294.24,193.24L294.57,192.72L294.74,189.48L295.07,179.82L295.4,188.7L295.57,193.99L295.9,202.18L296.23,197.49L296.4,192.5L297.4,202L297.57,200.57L298.56,183.6L298.73,184.77L298.9,184.44L299.23,185L299.56,179.72L299.73,177.98L300.56,165.5L300.73,169.08L300.89,171.28L302.72,149.54L302.89,152.13L303.55,148.15L303.72,150.64L303.89,147.76L304.22,149.05L304.39,147.2L304.55,149.05L304.88,146.73L305.05,147.78L305.22,144.78L305.55,147.11L306.05,146.12L306.21,145.14L306.55,145.51L306.71,143.15L306.88,145.31L307.21,142.75L307.55,144.96L307.71,144.22L309.71,174.84L309.87,173.17L310.04,172.14L310.21,178.42L310.87,169.26L311.04,144.41L311.87,116.93L312.04,116.93L312.37,116.93L312.54,156.87L312.7,199.65L313.37,195.6L313.53,194.02L313.87,196.14L314.03,191.06L316.19,165.18L316.36,165.73L316.53,167.83L316.69,169.33L316.86,167.78L317.03,169.06L317.19,166.16L318.36,150.96L318.52,150.84L318.69,151.56L319.02,149.71L319.19,150.75L319.35,149.33L320.19,147.69L320.35,147.22L320.85,144.19L321.02,145.69L321.18,147.1L321.68,143.43L322.18,143.58L322.35,143.32L322.52,142.84L322.68,143.95L323.01,143.1L323.18,143.53L323.35,142.12L323.68,144.49L323.85,144.66L325.68,180.45L325.84,179.61L326.17,182.77L326.34,181.97L326.51,179.89L326.67,180.57L326.84,177.65L328.67,201.76L328.84,199.21L329.17,202.88L329.33,197.62L329.5,195.74L330.83,177.97L331,178.36L332.49,164.4L332.66,165.35L332.83,165.61L333.99,148.15L334.16,148.33L334.32,148.51L334.99,144.99L335.16,146.23L335.32,146.79L335.66,146.51L335.82,144.23L335.99,145.73L336.32,143.98L336.49,144.02L336.65,143.38L336.82,144.71L337.15,142.05L337.32,142.77L337.48,143.01L338.15,140.92L338.32,142.42L339.15,138.91L339.31,141.28L339.48,141.86L339.65,138.85L341.31,166.55L341.48,167.18L341.98,172.8L342.31,169.7L342.47,170.28L342.97,178.65L343.14,174.69L343.31,165L344.64,184.44L344.8,184.98L345.64,195.13L345.8,188.15L347.3,163.5L347.46,164L347.63,163.76L347.96,163.69L348.13,158.86L348.46,158.94L348.63,156.39L348.8,156.28L348.96,153.24L349.13,152.76L349.29,150.03L349.63,150.47L350.29,146.08L350.46,148.12L350.63,148.07L350.79,146.82L350.96,147.59L351.12,146.41L351.46,146.7L351.62,144.78L351.96,145.16L352.12,143.75L352.29,144.33L352.45,144.12L352.62,142.1L352.79,142.19L352.95,143.37L353.79,139.11L353.95,139.98L354.12,140.26L354.28,138.3L354.45,140.91L354.95,138.48L355.12,139.63L355.45,138.66L356.45,145.61L356.61,142.58L356.95,147.6L357.44,145.95L357.61,145.07L358.28,157.52L358.61,154.38L358.78,154.51L359.77,164.14L359.94,163.55L360.11,162.87L360.27,167.02L360.44,166.55L360.6,168.52L361.6,185.01L361.77,182.8L362.77,168.02L362.93,162.86L363.1,164.33L363.43,161.02L363.6,161.3L364.76,152.13L364.93,153.3L365.26,148.47L365.59,148.95L365.76,153.82L365.93,155.69L366.09,149.45L366.26,146.24L366.43,147.23L366.76,145.09L366.93,146.01L367.09,145L367.42,145.1L367.76,142.33L367.92,145.03L368.92,140.25L369.09,141.93L370.09,138.66L370.25,139.31L370.42,138.8L371.08,141.21L371.25,138.75L371.42,138.37L371.58,140.58L372.08,142.75L372.25,143.98L372.58,142.57L372.75,148L373.08,146.91L374.74,161.05L374.91,159.88L375.08,158.29L376.24,169.73L376.41,167.89L376.74,175.79L376.91,171.62L377.07,170.92L377.24,175.27L377.74,170.3L377.9,168.01L378.4,167.44L378.57,169.88L378.73,167.05L379.73,160.37L379.9,160.67L380.07,161.38L380.56,156.07L380.73,156.74L380.9,154.49L381.9,146.66L382.06,146.42L382.23,147.58L382.56,145.53L382.73,145.38L382.89,145.99L383.06,144.47L383.23,143.16L383.39,143.26L383.56,142.09L383.72,144.16L384.06,139.14L384.39,143.27L384.56,140.07L384.72,140.25L384.89,142.28L385.89,139.03L386.05,139.02L386.22,141.42L386.55,136.94L386.72,137.82L387.05,141.5L387.72,141.12L387.88,141.84L389.38,167.21L389.55,164.69L390.88,176.43L391.04,177.11L391.38,168.22L391.71,174.07L391.88,175.25L392.87,185.94L393.04,184.48L393.21,179L393.54,183.78L393.87,178.54L394.04,174.42L394.2,168.94L394.87,169.77L395.04,166.95L395.37,169.18L396.03,161.45L396.2,159.36L396.37,160.79L396.7,158.16L396.86,156.31L397.53,148.34L397.7,149.32L397.86,149.45L399.03,143.54L399.19,144.58L399.36,146.65L399.69,143.32L399.86,144.27L400.03,144.54L400.19,144.48L400.36,140.31L400.69,144.22L401.02,140.13L401.19,142.67L401.36,143.06L401.52,138.92L402.19,140.27L402.35,139.58L402.69,141.29L402.85,139.18L403.19,140.91L403.35,139.9L403.85,155.89L404.35,154.59L404.52,153.56L404.68,154.89L404.85,163.81L405.85,177.48L406.18,175.17L406.35,173.06L407.01,166.36L407.18,172.86L407.51,171.26L407.68,175.8L407.84,175.68L408.01,179.6L408.67,189.61L408.84,188.05L409.01,186.62L409.17,188.72L409.34,187.43L409.51,182.69L410.67,168.54L410.84,169.54L411,169.09L411.17,165.38L412.33,158.35L412.5,158.74L412.67,160.31L413.83,148.53L414.16,148.7L414.33,148.5L414.5,149.07L414.66,146.27L414.99,149.42L415.33,147.51L415.49,145.34L415.83,146.58L416.33,143.35L416.49,143.86L416.66,145.73L416.99,142.3L417.16,144.59L417.32,144.06L417.99,140.91L418.16,141.51L418.32,142.59L418.49,140.43L418.65,143.99L418.82,147.54L419.32,150.03L419.49,147.37L419.65,142.57L421.98,174.07L422.15,172.91L422.48,164.17L422.81,171.31L422.98,176.15L423.31,181.03L423.48,183.17L423.81,185.45L424.31,177.81L424.48,180.79L424.64,181L424.81,180.57L424.97,182.08L425.47,184.65L425.97,175.61L426.14,178.3L427.14,168.92L427.3,167.33L427.47,167.05L427.64,163.15L427.8,163.81L427.97,162.19L428.14,160.35L428.3,161.48L428.47,157.61L428.63,157.43L428.8,158.08L428.97,154.81L429.47,150.87L429.63,156.17L429.8,159.98L431.3,145.69L431.46,146.62L432.46,142.92L432.63,143.61L432.79,143.56L432.96,142.04L433.13,142.87L433.46,141.76L433.79,142.37L433.96,141.41L434.12,142.29L434.46,140.68L434.62,140.46L434.95,141.73L435.29,138.77L435.45,141.2L436.78,157.35L436.95,159.08L437.95,173.76L438.11,170.81L438.28,170.85L438.45,173.03L439.11,166.14L439.28,169.06L439.45,169.55L439.94,165.86L440.11,169.5L440.28,172.08L440.44,170.8L440.61,174.5L440.78,177.97L441.44,187.82L441.61,181.17L441.77,177.85L442.94,167.68L443.1,168.48L444.44,158.95L444.6,158.44L445.77,150.29L445.93,151.79L446.76,146.97L446.93,147.53L447.1,148.36L448.09,143.43L448.43,144.36L448.59,144.67L449.76,141.98L449.92,142.46L450.09,143.98L450.42,141.31L450.59,142.72L450.76,141.05L451.09,142.89L451.26,141.72L451.42,140.09L451.59,144.48L451.75,145.95L451.92,145.81L452.09,149.66L453.42,167.12L453.58,165.87L453.92,176.87L454.25,172.25L454.42,169.94L454.58,165.36L455.08,170.17L455.25,170.17L455.41,168.84L455.58,174.41L455.75,173.12L455.91,175.65L456.08,177.02L456.58,187.35L457.08,183.18L457.24,185.3L457.41,192.43L457.91,185.93L458.07,183.27L459.41,163.24L459.57,161.71L461.23,149.83L461.4,149.88L461.57,149.02L461.73,149.21L461.9,147.99L462.07,149.26L462.57,147.62L462.73,147.99L463.73,145.29L463.9,146.3L464.89,141.49L465.06,144.49L465.73,140.78L465.89,142.28L466.06,143.39L466.39,140.15L466.89,141.02L467.06,141.6L467.39,142.59L467.56,147.15L467.72,147.39L467.89,146.23L468.89,157.11L469.22,155.9L469.39,155.06L470.55,173.71L470.88,168.79L471.05,169.29L471.21,167.05L471.38,170.49L471.55,174.16L471.88,172.99L472.05,177.89L472.71,178.66L472.88,178.21L473.04,177.58L473.38,183.04L473.71,177.17L473.88,177.17L474.04,178.33L474.21,177.19L474.38,171.95L474.54,173.2L474.71,171.25L474.87,172.22L475.04,170.59L476.37,158.9L476.54,156.78L476.7,159.06L476.87,156.08L477.04,152.92L478.03,149.53L478.2,150.15L478.37,151.03L478.53,148.84L478.7,148.72L479.2,147.79L479.36,148.25L479.53,148.91L479.86,148.18L480.03,147.17L480.7,144.56L480.86,146.99L481.86,142.61L482.03,144.62L482.36,144.75L482.53,144.04L482.69,141.38L484.35,157.18L484.52,157.07L485.02,151.36L485.19,156.35L485.35,158.94L486.35,168.13L486.52,165.6L486.68,165.71L486.85,167.47L489.01,179.5L489.18,177.54L489.34,180.98L489.68,173.85L489.84,173.12L490.18,174.86L490.34,172.92L490.51,169.99L490.68,170.58L490.84,167.96L492.34,159.39L492.51,160.27L492.67,164.88L492.84,160.77L493,151.56L493.17,153.45L493.34,150.83L493.67,151.36L493.84,150.28L494.17,151.35L494.33,150.45L494.5,150.33L494.67,150.63L494.83,149.04L495,150.27" style="vector-effect: non-scaling-stroke; fill: none; stroke: rgb(0, 191, 255); stroke-opacity: 1; stroke-width: 2px; opacity: 1;"/></g><g class="points"/><g class="text"/></g><g class="trace scatter trace252b40" style="stroke-miterlimit: 2; opacity: 0.5;"><g class="fills"/><g class="errorbars"/><g class="lines"><path class="js-line" d="M0,145.97L0.17,147.9L0.5,143.93L0.67,144.6L1.16,144.98L2,140.34L2.16,142.02L2.33,143.44L2.66,140.16L2.83,140.51L3.16,139.2L3.49,141.14L3.66,140.33L3.99,139.34L4.16,212.83L4.32,215.2L4.49,154.93L4.82,151.92L5.66,166.14L5.82,176.91L5.99,176.34L6.15,179.03L6.32,169.76L6.65,184.41L6.82,185.43L7.32,170.88L7.65,274.71L7.82,286.3L7.98,290.66L8.15,277.43L8.32,202.23L8.65,190.99L8.82,260.17L8.98,250.69L9.15,252.63L9.31,178.55L10.31,194L10.48,188.55L10.65,185.27L11.98,167.02L12.14,177.63L12.31,177.28L12.47,172.95L12.64,172.77L12.81,173.79L14.64,149.01L14.8,151.28L15.14,147.48L15.64,148.75L15.8,146.25L16.13,145.21L16.3,146.24L17.13,141.26L17.3,142.6L17.46,143.29L18.3,139.83L18.46,141L18.96,138.41L19.13,139.02L19.29,140.43L19.63,137.49L19.79,138.92L19.96,140.19L20.13,139.07L20.29,140L20.46,155.03L20.63,155.07L20.79,226.25L21.12,148.88L21.62,164.15L21.79,172.2L22.12,178.3L22.29,260.39L22.45,263.37L22.62,190.01L22.79,202.17L23.45,196.64L23.62,187.98L23.95,189.7L24.45,181.15L24.62,192.55L24.95,195.45L25.12,193L25.28,181.93L25.61,185.33L25.78,181.59L25.95,184L26.11,177.23L26.28,176.63L26.45,171.37L27.28,179.25L27.44,175.52L27.78,177.16L27.94,175.15L29.61,152.05L29.77,150.51L30.77,144.73L30.94,145.54L31.1,145.97L31.27,142.96L31.6,144.81L31.94,142.9L32.1,143.36L32.27,143.73L32.43,140.93L32.77,141.9L32.93,139.22L33.1,140.1L33.43,138.92L33.6,137.39L33.77,137.78L33.93,141.3L34.93,138.19L35.1,138.56L35.43,137.3L35.59,138.43L35.93,138.66L36.09,137.5L36.43,224.97L36.76,141.06L36.93,143.53L37.59,147.51L37.76,150.41L37.92,150.54L38.09,152.96L38.26,152.24L38.42,153.36L38.59,155.48L39.09,188.18L39.59,182.32L39.75,182.9L39.92,172.92L40.25,175.19L40.42,247.87L40.75,251.5L40.92,186.48L41.08,188.67L41.25,179.6L41.42,176.75L41.58,190.68L41.75,190.73L41.92,189.76L43.08,164.16L43.25,161.87L43.41,162.79L43.58,160.8L43.74,235.77L44.08,232.86L44.24,160.83L45.57,148.85L45.74,148.83L46.57,142.57L46.74,143.14L46.91,144L47.9,140.7L48.07,140.7L48.24,140.98L48.4,137.28L48.73,140.31L49.07,139.23L49.23,211.93L49.73,137.47L50.07,137.98L50.23,138.23L50.4,137.5L50.56,210.54L50.73,211.97L50.9,211.36L51.06,139.33L51.4,137.33L51.56,148.07L51.73,147.37L51.9,149.38L52.06,138.81L52.23,137.92L52.39,150.11L52.56,149.83L52.73,151.17L52.89,142.46L53.06,215.35L53.23,226.09L53.39,156.71L53.56,157.23L53.72,156.51L53.89,233.04L54.22,235.13L54.39,165.93L54.72,153.76L55.06,154.75L55.22,230.9L55.55,232.28L55.72,171.59L55.89,170.72L56.05,174.18L56.39,172.94L56.55,162.59L56.72,162.6L56.89,164.8L57.22,166.74L57.38,177.59L57.55,177.29L57.72,177.95L57.88,179.52L58.05,181.67L58.22,170.55L58.55,165.45L58.71,163.19L59.38,173.64L59.88,173.33L60.05,169.3L60.21,171.57L60.38,159.32L60.54,157.35L60.71,178.4L61.88,168.73L62.04,147.87L62.71,142.92L62.87,144.31L63.04,144.36L63.87,141.25L64.04,142.48L64.37,139.36L64.54,139.69L64.7,142.57L65.04,138.74L65.53,139.67L65.7,139.98L66.03,137.33L66.2,148.69L66.37,150.05L66.7,149.22L66.86,137.35L67.2,140.71L67.53,137.62L67.7,137.17L68.03,139.97L68.2,151.08L68.36,149.03L68.53,149.57L68.69,164.63L68.86,165.16L69.03,163.42L69.19,177.33L69.53,256.92L69.69,171.48L69.86,172.38L70.03,164.08L70.86,251.45L71.02,178.29L71.69,188.96L71.85,179.54L72.35,165L72.52,170.91L72.69,175.59L73.02,183.45L73.52,181.38L73.68,181.13L74.18,257.76L74.35,175.73L74.52,169.39L74.85,167.83L75.02,171.02L75.18,166.6L75.35,168L75.51,166.34L75.68,163.75L75.85,166.72L76.01,161.11L76.35,162.71L76.51,157.87L76.68,160.63L77.01,154.95L77.18,154.05L78.18,147.24L78.34,146.35L78.67,143.55L78.84,140.96L79.17,144.89L79.67,143.38L79.84,141.5L80.01,142.06L80.17,141.83L80.34,140.43L80.5,140.74L80.67,140.05L80.84,142.7L81.17,138.81L81.83,139L82,139.17L82.17,139.66L82.33,138.51L82.5,150.67L82.67,221.99L83,137.18L83.17,139.56L83.33,139.97L83.5,137.63L84,138.75L84.16,140.58L84.33,139.95L84.5,140.17L84.66,144.93L84.83,145.26L84.99,219.86L85.33,223.65L85.49,150.98L85.83,240.08L86.16,170.35L86.33,181.46L86.66,184.56L86.82,184.33L86.99,178.4L87.16,166.67L87.49,182.48L87.66,185.28L87.99,266.8L88.32,188.07L88.49,176.04L88.82,173.62L88.99,175.05L89.15,177.42L89.65,173.24L89.82,175.44L89.98,178.24L90.82,201.15L90.98,199.52L91.15,199.26L92.48,157.34L92.65,160.57L94.97,143L95.14,144.83L95.47,140.58L95.81,143.34L95.97,143.17L96.47,143.51L96.64,139.13L96.8,140.47L96.97,142.44L97.3,139.32L97.47,137.06L97.64,139.82L97.8,213.37L98.3,137.2L98.63,141.61L98.8,139.5L98.97,137.23L99.47,138.66L99.63,148.1L99.8,148.32L99.96,138.46L100.13,138.71L100.3,141.19L100.8,144.27L100.96,157.41L101.13,233.75L101.63,172.43L101.79,165.15L102.29,158.4L102.63,160.09L102.79,182.53L103.96,273.92L104.12,200.79L104.29,200.43L104.46,186.92L104.62,185.71L104.79,188.14L104.95,189.57L105.12,178.35L105.62,179.83L105.79,183.86L106.29,210.31L106.62,204.45L106.78,205.06L107.62,178.83L107.78,165.58L107.95,167.61L108.11,165.4L108.28,162.31L108.61,163.37L108.78,159.77L108.95,158.26L109.11,230.41L109.28,229.74L109.45,153.59L110.78,144.79L110.94,145.83L111.28,143.05L111.44,143.34L111.61,144.61L112.61,139.71L112.77,142.2L112.94,144.56L113.27,139.75L113.44,139.65L113.94,149.17L114.1,139.66L114.27,139.59L114.44,140.06L114.6,139.11L114.77,137.81L115.1,140.49L115.27,139.06L115.43,138.93L115.93,151.87L116.1,140.72L116.27,139.99L117.26,152.74L117.43,162.04L117.93,180.67L118.09,177.87L118.26,247.15L118.43,252.17L118.59,175.86L118.76,175.32L118.93,170.54L119.26,245.01L119.59,179.38L119.76,186.98L119.92,198.09L120.42,193.59L120.59,187.43L120.92,175.03L121.26,181.8L121.42,185.35L121.75,188.24L121.92,193.65L122.75,182.17L122.92,184.16L123.08,170.73L123.25,169.84L123.42,242.62L123.58,241.56L123.75,241.63L123.92,167.48L124.42,175.86L124.75,172.3L124.91,170.58L125.08,171.14L125.25,164.93L125.58,167.18L125.75,148.78L125.91,149.81L126.41,148.25L126.58,145.24L126.74,145.12L126.91,146.13L127.91,143.54L128.07,144.09L128.57,144.25L128.91,141.25L129.07,142.39L129.57,137.85L129.74,142.63L129.9,141.78L130.07,138.85L130.24,139.49L130.4,220.63L130.9,137.6L131.23,138.52L131.4,138.1L131.9,139.13L132.07,137.45L133.4,183.14L133.73,174.76L133.9,177.9L134.4,191.65L134.56,206.19L134.73,208.55L134.89,205.45L135.06,194.18L135.23,184.83L135.39,255.35L135.56,242.28L135.73,245.08L135.89,169.12L136.72,186.76L136.89,194.73L137.22,201.89L137.39,188.79L138.22,201.81L138.39,199.51L138.55,195.75L138.72,199.32L138.89,198.66L139.05,254.92L139.22,258.94L139.39,258.7L139.55,181.44L140.38,164.32L140.55,164.95L140.72,164.58L140.88,159.53L141.21,160.19L141.38,156.58L142.38,146.82L142.88,146.96L143.04,146.76L143.71,143.31L144.04,143.43L144.21,143.34L144.38,143.69L144.54,142.5L144.71,142.06L144.87,143.07L145.04,140.81L145.21,161.46L145.37,164.09L145.87,162.23L146.04,140.05L146.2,139.04L146.54,139.57L146.7,213.98L147.37,137.21L147.54,140.28L147.7,139.69L147.87,138.49L148.03,212.34L148.2,141.69L148.37,216.94L148.87,148.54L149.03,147.93L150.7,174.76L150.86,260.43L151.03,249.36L151.19,250.9L151.36,178.87L151.53,177.82L151.69,183.22L152.19,175.09L152.36,179.21L152.53,191.24L152.69,187.61L152.86,192.2L153.02,192.06L153.19,260.26L153.36,264.16L153.52,257.5L153.69,181.59L153.86,182.78L154.02,181.45L154.19,182.67L154.35,179.43L154.52,176.75L154.69,179.56L154.85,178.55L155.02,187.3L155.69,182.14L155.85,182.88L156.02,171.31L156.18,171.92L156.35,170.22L156.52,164.53L157.02,161.43L157.18,173.56L157.35,169.22L157.52,168.52L159.01,146.21L159.18,148.91L160.01,143.44L160.18,144.54L160.34,144.38L160.84,144.63L161.17,142.23L161.34,143.67L161.51,140.56L161.84,143.31L162.01,213.59L162.84,137.59L163,139.53L163.17,140.69L163.5,140.1L163.67,137.38L164.83,167.75L165,180.81L165.5,184.93L165.67,175.71L166,181.54L166.16,253.38L166.33,181.88L167,198.85L167.16,181.82L167.33,191.83L167.49,266.72L167.83,184.69L168.16,190.59L168.33,256.93L168.49,183.57L168.99,261.18L169.16,259.44L169.32,258.15L169.49,196.69L169.82,203.39L170.16,202.33L170.32,199.38L170.49,198.68L170.66,187.18L170.82,186.53L170.99,175.73L172.98,158.79L173.15,158.42L173.32,167.91L173.82,161.99L173.98,161.38L175.48,143.66L175.65,143.91L176.48,140.22L176.64,143.12L177.64,138.68L177.81,139.31L178.14,138.89L178.31,139.48L178.47,148.53L178.64,147.8L178.81,148.5L178.97,151.21L179.47,146.15L179.64,137.76L179.8,213.28L180.3,146.85L180.47,148.25L181.8,170.34L181.97,168L182.13,167.13L182.3,242.57L182.46,240.88L182.63,161.89L183.13,173.41L183.63,170.67L183.8,168.77L183.96,169.69L184.13,183.08L184.29,178.74L184.46,194.36L184.63,273.2L184.96,285.64L185.13,211.85L186.12,189.92L186.29,188.95L186.46,202.41L187.12,201.07L187.29,194.6L188.62,168.39L188.79,169.47L189.62,148.45L189.78,148.49L189.95,145.68L190.12,145.72L190.28,147L191.95,140.92L192.11,142.8L192.94,139.07L193.11,139.28L193.28,139.64L193.44,139.64L193.61,138.84L193.78,137.21L193.94,137.88L194.11,151.61L194.94,137.05L195.11,138.36L195.27,211.81L195.44,222.57L195.6,149.02L195.94,138.51L196.27,143.37L196.44,147.8L197.43,158.47L197.6,160.66L197.77,174.66L198.43,167.98L198.6,173.29L198.93,163.67L199.26,163.79L199.43,168.55L199.76,189.44L199.93,266.71L200.26,273.45L200.43,268.32L200.59,195.55L200.76,184.82L201.09,198.31L201.26,196.69L201.43,195.41L201.93,200.85L202.09,187.5L203.42,177.9L203.59,180.36L203.76,182L204.09,176.67L204.25,187.09L204.42,195.01L204.75,180.99L204.92,179.61L205.09,179.49L205.25,177.66L205.92,158.11L206.08,159.34L206.25,159.06L207.91,141.59L208.08,141.91L208.25,143.75L208.41,144.51L208.58,141.99L208.74,142.96L208.91,141.87L209.24,140.27L209.41,151.51L209.58,152.64L209.74,150.76L209.91,140.02L210.41,152.29L210.57,148.68L210.74,139.29L211.07,138.83L211.24,139.66L211.41,139.33L211.57,138.28L212.24,144.76L212.4,150.95L213.24,173.08L213.4,247.21L213.73,169.82L213.9,249.93L214.23,195.31L214.4,199.86L214.73,198.19L214.9,191.35L215.07,192.35L215.23,248.87L215.4,246.99L215.56,247.86L215.73,183.51L216.56,195.78L216.73,189.59L216.9,192.06L217.23,199.47L217.56,197.51L217.73,192.92L218.23,185.58L218.39,180.44L218.89,174.47L219.06,183.29L219.56,187.65L219.72,187.45L219.89,183.69L220.89,167.05L221.05,174.08L221.22,174.18L221.39,165.98L221.72,162.52L221.89,149.15L222.05,149.94L222.22,147.02L222.38,147.23L222.55,148.69L222.88,145.8L223.05,147.58L223.22,147.34L224.21,143.1L224.38,142.69L224.55,144.51L225.05,141.92L225.21,141.17L225.38,143.08L225.54,140.74L225.88,141.1L226.04,140.86L226.21,142.52L226.38,139.2L226.54,150.92L226.71,152.09L226.88,150.75L227.04,151.05L227.21,139.31L227.54,141.05L227.71,150.1L228.21,156.73L228.37,161.73L228.54,158.26L228.7,171.4L228.87,170.62L229.04,241.94L229.54,167.99L229.87,175.45L230.04,245.27L230.2,246.1L230.37,258.89L230.53,184.02L231.2,186.49L231.37,195.73L231.53,195.89L231.7,199.7L232.36,225.23L232.53,212.94L232.7,214.24L233.53,196.37L233.69,201.12L234.53,191.07L234.69,191.65L234.86,187.88L235.03,188.86L235.19,187.5L235.36,186.31L235.52,186.09L235.69,175.88L237.35,158.7L237.52,161.15L237.69,163.14L238.02,162.45L238.19,159.42L239.35,144.28L239.52,145.18L239.68,148.07L240.51,142.62L240.68,144.32L240.85,146.38L241.84,140.95L242.01,143.03L242.18,141.67L242.34,142.18L242.51,152.65L242.68,149.4L242.84,226.16L243.18,139.65L243.67,143.61L243.84,141.16L244.51,223.7L244.67,156.05L244.84,156.41L245.01,168.24L245.5,183.53L245.84,177.23L246,176.78L246.17,164.29L246.67,169.91L246.83,186.9L247.17,269.73L247.5,201.34L247.67,186.36L248.5,291.19L248.66,214.87L249,197.55L249.5,204.32L249.66,211.16L250.16,225.77L250.49,221.89L250.66,224.38L250.83,224.2L250.99,283.26L251.99,169.75L252.16,170.33L252.32,166.69L253.32,159.32L253.49,157.94L253.65,163.11L253.99,155.5L254.15,153.24L254.98,146.01L255.15,148.21L255.32,149.1L255.48,145.24L255.82,148.55L255.98,145.19L256.48,146.26L256.65,144.47L256.98,146L257.31,143.22L257.48,144.29L257.65,155.63L257.98,142.64L258.15,144.11L258.31,143.46L258.48,142.45L258.64,153.62L258.81,156.53L258.98,155.17L259.14,140.6L259.64,143.79L259.81,143.02L259.97,159.23L260.14,247.27L260.64,157.91L260.81,158.64L261.14,236.21L261.47,162.84L261.64,165.85L262.64,186.04L262.97,184.02L263.14,183.92L263.8,190.2L263.97,263.44L264.13,264.23L264.3,275.47L264.8,193.43L265.13,199.36L265.3,198.38L265.46,199.11L265.63,182.83L265.8,182.33L265.96,192.37L266.3,192.66L266.46,191.06L267.29,175.29L267.63,180.54L267.79,179.98L267.96,177.12L268.13,189.61L269.95,151.24L270.29,151.78L270.45,148.76L270.62,149.69L270.79,149.44L270.95,146.84L271.12,147.02L271.29,148.45L272.12,146.69L272.28,147.59L272.45,147.73L272.62,145.35L273.11,143.85L273.45,147.23L273.61,145.93L273.78,143.07L273.95,156.42L274.11,166.05L274.28,236.31L274.45,225.38L274.61,154.02L275.11,142.16L275.44,142.47L275.61,141.53L276.77,174.63L276.94,176.46L277.27,253.69L277.61,208.14L277.77,205.58L278.1,209.5L278.27,196.97L278.44,199.77L278.6,263L278.77,261.97L278.94,266.51L279.1,187.97L279.77,198.78L279.93,200.55L280.1,275.18L280.43,194.61L280.6,196.22L280.77,194.95L281.1,190.95L281.27,198.59L281.6,196.57L281.93,198.62L282.1,200.41L282.26,211.73L282.76,200.87L282.93,199.83L283.26,195.5L283.43,179.33L283.59,175.62L283.76,185.21L284.09,179.59L284.26,178.59L284.76,175.51L284.92,162.26L285.76,153.55L285.92,162.29L286.09,162.67L286.42,161.93L286.59,159.86L286.92,161.61L287.09,157.79L288.08,144.63L288.25,147.82L288.42,147.93L288.58,144.6L288.92,145.82L289.08,144.3L289.25,153.6L289.42,155.46L289.58,155.39L289.75,142.74L290.08,143.96L290.25,142.25L290.41,140.77L290.58,143.18L290.75,214.3L290.91,213.86L291.08,141.72L291.41,163.83L291.74,142.38L291.91,147.24L292.24,154.57L292.41,162.23L292.58,164.22L292.74,163.79L292.91,177.83L293.41,215.92L293.74,209.82L293.91,200.78L294.24,214.36L294.41,200.04L294.57,203.29L294.74,272.99L294.9,275.95L295.07,274.3L295.24,265.11L295.4,210.17L295.74,304L295.9,296.72L296.73,212.66L296.9,208.68L297.23,285.13L297.57,211.13L297.73,205.14L298.56,194.16L298.73,184.83L299.06,183.63L299.23,185L299.4,181.01L299.89,175.98L300.06,169.52L300.56,165.5L300.73,169.08L300.89,171.28L302.72,149.54L302.89,152.13L303.55,148.15L303.72,150.64L303.89,147.76L304.22,149.05L304.39,147.2L304.55,149.05L304.88,146.73L305.05,147.78L305.22,144.78L305.55,147.11L306.05,146.12L306.21,145.14L306.55,145.51L306.71,143.15L307.55,155.52L307.71,144.27L308.54,162.74L308.71,238.52L309.38,257.38L309.54,181.14L309.71,185.41L309.87,183.73L310.04,255.65L310.21,262.33L310.37,248.67L310.54,171.52L310.71,169.5L310.87,179.77L312.04,127.55L312.2,127.49L312.37,116.99L312.54,156.87L312.7,199.65L313.37,195.6L313.53,194.02L313.87,196.14L314.03,191.06L314.53,184.29L314.7,194.87L315.7,265.32L315.86,251.92L316.03,238.9L316.19,165.59L316.86,178.34L317.03,179.62L318.02,151.08L318.19,163.29L319.02,160.27L319.19,161.31L319.85,147.85L320.02,148.26L320.19,147.69L320.85,144.19L321.02,145.69L321.18,147.1L321.68,143.43L322.18,143.58L322.35,143.32L322.52,215.79L323.01,143.1L323.18,143.53L323.35,142.12L323.68,144.49L323.85,144.66L324.01,149.13L324.18,175.7L324.34,189.85L324.84,182.44L325.01,170.8L325.34,174.85L325.51,189.05L326.01,201.81L326.17,193.39L326.34,192.53L326.51,190.45L326.67,253.57L326.84,251L327.01,181.45L327.17,179.93L327.34,191.56L327.51,268.25L328,200.59L328.17,207.89L328.67,296.18L328.84,220.74L329,223.5L329.17,224.01L329.33,218.74L329.5,227.36L329.83,210.38L330,205.86L330.5,222.68L330.67,221.36L330.83,199.21L331,209.99L331.5,195.19L331.66,191.88L332.99,163.41L333.16,156.48L333.99,148.15L334.16,148.33L334.32,148.51L334.49,147.94L334.66,146.52L334.82,146.85L334.99,144.99L335.32,146.79L335.66,146.51L335.82,144.23L335.99,145.73L336.32,143.98L336.49,144.02L336.65,143.38L336.82,144.71L337.15,142.05L337.32,142.77L337.48,143.01L338.15,140.92L338.32,152.92L338.98,150.96L339.15,138.97L339.31,141.28L339.48,214.81L339.65,212.2L339.81,216.83L339.98,219.74L340.15,148.95L340.81,158.01L340.98,158.66L341.64,169.63L341.81,245.51L341.98,246.15L342.14,243.96L342.31,180.6L342.47,180.85L342.64,183.24L342.97,189.22L343.14,258.2L343.31,248.91L343.47,170.6L343.64,172.69L343.81,184.15L345.64,216.25L345.8,209.27L346.97,169.09L347.13,165.24L348.13,158.86L348.46,158.94L348.63,166.89L348.8,166.84L348.96,163.8L349.13,163.32L349.29,160.59L349.63,161.03L349.96,157.37L350.13,158.5L350.29,146.14L350.46,148.12L350.96,147.59L351.12,146.41L351.29,147.01L351.46,146.7L351.62,144.78L351.96,145.16L352.12,143.75L352.29,144.33L352.45,144.12L352.62,142.1L352.79,142.19L352.95,143.37L353.29,140.82L353.45,141.97L353.62,152.33L354.28,138.3L354.78,138.81L354.95,148.99L355.28,150.85L355.45,138.72L355.78,142.03L355.95,154.11L356.11,153.45L356.28,165.55L356.45,166.73L356.61,226.14L357.44,146.36L357.61,145.07L358.11,240.09L358.28,168.48L358.44,167.66L358.61,227.39L358.78,227.86L358.94,158.53L360.27,198.7L360.44,187.74L360.6,179.14L360.77,268.34L360.94,261.45L361.1,191.98L361.6,195.57L361.77,193.36L361.94,174.35L362.27,177.37L362.43,174.18L362.6,193.19L365.1,149.76L365.26,148.47L365.93,155.69L366.09,149.45L366.76,145.09L366.93,146.01L367.09,145L367.42,145.1L367.76,142.33L367.92,145.03L368.92,140.25L369.09,141.93L370.09,138.66L370.25,149.82L370.58,160.36L370.92,150.41L371.08,141.27L371.25,211.7L371.42,138.77L371.75,140.95L371.92,142.02L372.75,158.56L372.91,149.23L373.25,161.95L373.41,236.07L373.58,234.8L373.74,174.19L373.91,175.6L374.08,164.66L374.41,167.24L374.58,177.08L374.74,171.67L374.91,180.95L375.08,179.42L375.24,183.7L375.41,193.27L376.07,188.83L376.24,180.35L377.07,170.92L377.24,175.27L377.4,182.41L377.74,180.86L377.9,178.57L378.07,263.45L378.57,191.41L378.73,188.17L379.57,173.7L379.73,160.43L380.07,161.38L380.23,160.7L380.4,157.85L382.06,146.42L382.23,147.58L383.56,142.09L383.72,144.16L384.06,139.14L384.22,143.09L384.39,143.27L384.56,140.07L384.72,140.25L384.89,215.23L385.22,139.05L385.72,140.26L385.89,139.03L386.05,139.02L386.22,141.42L386.55,136.94L386.89,139.98L387.05,141.5L387.38,139.1L387.72,141.12L387.88,141.84L388.71,176.56L388.88,240.8L389.05,244.77L389.21,177.87L389.38,177.77L389.55,175.25L390.21,184.29L390.38,183.19L390.54,257.7L390.71,249.55L390.88,176.83L391.04,177.11L391.21,173.42L391.38,168.22L391.54,171L391.71,184.57L392.21,191.18L392.37,203.54L392.54,205.32L392.71,278.52L393.54,257.19L393.7,182.12L394.2,168.94L394.37,182.58L395.2,176.59L395.37,179.74L395.53,178.42L395.7,165.58L395.87,166.32L396.03,161.45L397.53,148.34L397.7,149.32L397.86,149.45L399.03,143.54L399.19,144.58L399.36,146.65L399.69,143.32L399.86,144.27L400.03,144.54L400.19,144.48L400.36,140.31L400.69,144.22L401.02,140.13L401.19,142.67L401.36,143.06L401.52,138.92L401.69,150.29L401.85,153.26L402.02,152.63L402.19,140.33L402.69,141.29L402.85,139.18L403.02,150.44L403.19,151.47L403.35,160.96L403.85,250.36L404.02,176.61L404.52,153.56L404.85,163.81L405.02,166.24L405.18,178.37L405.35,255.26L405.51,249.68L405.68,180.09L406.01,198.16L406.35,183.62L406.51,181.08L407.01,176.92L407.18,193.93L407.34,194.84L407.51,192.39L407.68,269.87L407.84,270.15L408.01,284.58L408.51,197.02L408.84,198.61L409.01,197.19L409.17,209.79L409.51,193.31L409.67,188.12L411.34,163.71L411.5,163.91L411.67,164.48L411.83,163.1L412,170.29L412.17,171.31L412.33,168.91L412.67,170.87L412.83,169.54L414.66,146.27L414.83,148.85L414.99,149.42L415.16,147.07L415.33,147.51L415.49,145.34L415.83,146.58L416.33,143.35L416.49,143.86L416.66,145.73L416.99,142.3L417.16,155.09L417.32,154.62L417.49,142.06L417.82,142.73L417.99,140.91L418.16,141.51L418.32,142.59L418.49,140.43L418.65,143.99L418.82,147.54L419.32,150.03L419.49,157.87L419.98,147.04L420.15,157.04L420.32,164.11L420.48,167.37L420.65,167.09L420.82,242.91L421.48,165.98L421.65,170.97L421.81,173.74L421.98,174.07L422.15,172.91L422.31,250.52L422.48,248.08L422.65,177.67L423.81,196.02L423.98,267.33L424.31,261.72L424.48,191.76L425.14,180.23L425.31,183.68L425.47,184.65L425.64,192.79L426.14,188.86L426.31,183.62L426.47,183.89L426.64,183.44L426.8,179.5L426.97,180.2L427.14,179.48L427.3,167.39L427.47,167.05L427.64,163.15L427.8,163.81L427.97,162.19L428.14,160.35L428.3,161.48L428.47,157.61L428.63,157.43L428.8,158.08L428.97,154.81L429.47,150.87L429.63,156.17L429.8,159.98L431.3,145.69L431.46,146.62L432.46,142.92L432.63,143.61L432.79,143.56L432.96,142.04L433.13,142.87L433.46,141.76L433.79,142.37L433.96,141.41L434.12,142.29L434.46,140.68L434.62,140.46L434.95,141.73L435.29,138.77L435.45,141.2L436.12,166.83L436.29,240.06L436.45,238.48L436.62,156.54L436.95,159.08L437.12,165.6L437.45,172.14L437.62,171.93L437.78,245.32L438.11,170.81L438.45,246.38L438.61,243.24L438.78,253.63L438.95,177.62L439.11,176.7L439.28,179.62L439.45,180.11L439.94,176.42L440.11,190.57L440.28,193.2L440.44,191.93L440.61,268.57L440.78,261.94L440.94,194.76L441.28,194.67L441.44,187.88L442.44,171.27L442.61,172.79L442.77,179.58L443.27,176.65L443.44,174.75L443.6,175.17L443.77,173.57L443.94,172.01L444.44,158.95L444.6,231.38L444.93,226.93L445.1,154.14L445.77,150.29L445.93,151.79L446.1,150.27L447.43,146.17L447.6,146.67L447.76,147.41L447.93,146.45L448.09,143.43L448.59,144.67L448.76,144.28L448.93,142.85L449.09,143.74L449.43,142.36L449.59,142.86L449.76,141.98L450.09,143.98L450.26,141.51L450.42,141.31L450.59,142.72L450.76,141.05L450.92,214.25L451.09,216.24L451.26,152.63L451.42,150.65L451.59,155.04L451.75,156.51L451.92,156.38L452.09,170.72L452.25,163.93L452.59,178.77L452.75,169.39L452.92,169.28L453.08,161.43L453.25,185.07L453.42,188.25L453.92,271.35L454.08,174.23L454.25,172.25L454.58,165.36L454.75,166.85L454.91,176.62L455.91,217.9L456.08,219.27L456.58,229.6L456.74,276.64L456.91,275.51L457.08,277.65L457.24,269.27L457.74,198.33L458.07,214.89L458.24,209.49L459.41,173.8L459.57,161.77L460.07,159.53L460.24,168.92L460.4,166.73L460.57,177.68L460.74,178.06L460.9,174.27L461.9,158.56L462.07,149.32L463.06,146.15L463.23,145.92L463.56,146.63L463.73,145.29L463.9,146.3L464.06,144.2L464.23,145.1L464.4,144.12L464.73,143.4L464.89,141.49L465.06,144.49L465.56,143.06L465.73,140.78L466.06,143.39L466.39,140.15L466.56,141.92L466.72,215.9L466.89,141.42L467.56,147.15L467.72,147.39L468.22,242.23L468.39,173.79L468.55,174.8L469.55,178.78L469.72,169.81L470.05,184.5L470.55,184.27L470.72,253.58L470.88,263.21L471.05,201.32L471.21,188.23L471.88,194.12L472.05,199.01L472.38,261.94L472.71,178.72L472.88,178.21L473.04,177.58L473.21,181.36L473.38,183.04L473.54,178.11L473.71,250.12L473.88,250.52L474.04,178.73L475.54,165.16L475.71,238.36L476.04,236.07L476.2,160.7L477.37,150.43L477.7,151.32L477.87,151.09L478.87,148.28L479.03,148.76L479.53,148.91L480.03,147.17L480.2,146.71L480.7,144.56L480.86,146.99L481.19,145.19L481.36,145.82L481.86,142.61L482.03,144.62L482.19,144.85L482.53,144.04L482.69,141.38L482.86,227.47L483.36,144.12L483.52,145.59L484.02,228.93L484.19,156.33L484.35,157.18L484.52,167.58L485.19,166.91L485.35,169.5L486.18,247.73L486.35,241.54L486.52,238.95L486.85,240.82L487.02,168.88L487.85,172.45L488.01,257.9L488.18,260.93L488.35,197.84L488.51,208.71L488.68,281.89L489.01,284.54L489.18,199.12L489.51,200.94L489.84,183.69L490.01,195.85L490.18,195.98L490.34,194.04L491.17,176.18L491.34,163.88L492.34,159.39L492.51,160.27L492.67,164.88L492.84,160.77L493,151.56L493.17,163.95L493.84,160.84L494,160.99L494.17,161.91L494.5,160.89L494.67,161.19L494.83,149.1L495,150.27" style="vector-effect: non-scaling-stroke; fill: none; stroke: rgb(255, 0, 0); stroke-opacity: 1; stroke-width: 2px; opacity: 1;"/></g><g class="points"/><g class="text"/></g><g class="trace scatter trace5cbb38" style="stroke-miterlimit: 2; opacity: 0.5;"><g class="fills"/><g class="errorbars"/><g class="lines"><path class="js-line" d="M0,138.92L1.83,138.94L2,138.71L3.49,138.93L3.66,138.93L3.83,138.39L3.99,135.24L4.16,140.39L4.32,129.93L4.49,137.53L4.66,120.34L5.32,116.85L5.49,116.9L5.66,116.87L6.65,117.14L6.82,116.94L7.15,115.11L7.48,127.21L7.65,115.86L7.82,140.26L8.32,116.54L8.48,110.94L8.82,120.64L9.31,38.98L9.48,41.77L9.81,43.08L9.98,40.69L10.15,53.2L10.31,54.32L10.48,48.84L10.65,46.25L10.81,47.61L10.98,57L12.64,139.03L13.14,138.91L13.31,138.96L15.8,138.93L15.97,138.94L19.46,138.93L19.63,140.53L20.29,130.38L20.46,138.84L20.79,139.97L21.12,115.85L21.46,117.11L21.62,116.88L22.12,116.84L22.29,133.93L22.62,115.31L23.12,117.2L23.29,116.68L23.62,116.9L23.79,55.23L24.28,37.3L24.45,41.2L24.62,52.65L24.78,54.16L24.95,45.05L25.61,45.55L25.95,33.69L26.11,37.33L26.28,36.79L26.45,31.55L26.78,43.84L26.95,49.67L28.78,138.99L28.94,138.98L29.11,138.91L32.27,138.94L32.43,138.84L33.43,138.93L33.6,137.56L33.93,138.96L34.43,138.67L34.6,138.56L34.76,138.81L34.93,138.25L35.1,138.39L35.26,138.18L35.59,138.32L35.93,133.81L36.09,129.48L36.26,140.43L36.59,124.74L36.76,116.91L37.92,116.89L38.09,114.51L38.59,16L38.92,28.66L39.09,48.08L39.25,47.58L39.42,51.21L39.59,52.87L39.75,42.96L40.09,31.62L40.25,35.12L40.42,107.88L40.58,109.71L40.75,38.58L41.42,36.82L41.75,50.74L41.92,49.78L42.75,25.66L42.91,36.76L43.58,71.17L43.74,138.96L44.08,139.01L44.24,117.58L44.74,138.98L45.41,138.92L45.57,138.92L48.24,138.89L48.4,137.46L49.23,140.54L49.4,137.27L50.23,138.4L50.4,137.68L50.56,140.49L51.06,137.2L51.23,138.18L51.4,137.48L51.56,139.14L51.73,138.92L51.9,134.27L52.89,116.87L53.06,139.65L53.23,116.09L53.72,116.9L53.89,134.76L54.39,115.3L54.72,116.92L54.89,116.72L55.06,116.9L55.22,118.61L55.39,116.87L55.55,116.99L55.72,97.4L55.89,30.52L56.55,32.99L56.72,22.62L58.05,41.66L58.22,30.53L58.55,26.64L58.71,29.53L58.88,39.68L60.71,139.42L61.04,138.95L61.21,138.93L65.87,138.81L66.03,137.53L66.2,139.13L66.7,138.69L66.86,137.49L67.2,138.79L67.53,137.63L67.7,135.63L68.2,137.86L69.03,116.89L69.19,117.13L69.36,139.9L69.53,138.9L69.69,115.82L70.19,118.27L70.36,116.96L70.52,115.25L70.69,118.36L71.36,116.95L71.52,116.97L71.69,116.9L71.85,92.94L72.35,24.92L72.69,35.61L72.85,38.13L73.02,43.59L73.68,41.27L73.85,114.71L74.02,115.15L74.18,117.93L74.35,108.85L74.52,31.7L76.18,121.5L76.35,132.12L77.01,138.99L77.34,138.96L77.51,138.94L82.33,138.5L82.5,139.17L82.67,140.52L82.83,137.32L83.17,138.95L83.33,138.69L84.16,129.38L84.33,122.43L84.83,116.85L84.99,139.93L85.16,138.86L85.33,138.91L85.49,115.84L85.66,138.95L86.16,115.39L86.33,117.13L86.49,116.69L86.99,116.88L87.16,69.45L87.32,37.84L87.66,45.32L87.82,120.4L87.99,126.85L88.16,112.31L88.32,37.65L88.82,33.81L88.99,35.24L89.15,37.58L89.49,33.53L89.82,35.76L89.98,38.51L92.48,136.29L92.65,139.01L94.48,138.9L94.64,138.99L96.14,138.73L96.31,138.82L97.14,138.93L97.3,138.6L97.47,137.24L97.8,140.52L97.97,137.16L98.14,138.85L98.3,137.38L98.63,138.94L99.3,138.67L99.47,138.61L99.63,139.13L99.8,135.32L100.8,116.89L100.96,117.11L101.13,139.92L101.3,139.12L101.46,115.69L101.96,116.97L102.29,116.92L102.46,116.91L102.63,36.33L103.29,69.97L103.46,60.95L103.62,50.1L103.79,129.72L103.96,134.28L104.12,61.19L104.29,60.9L104.46,47.42L104.62,46.17L104.79,48.55L104.95,49.98L105.12,38.79L105.62,40.31L105.79,44.28L106.95,87.67L107.12,91.92L107.28,86.36L107.45,97.45L107.62,94.59L107.78,102.82L108.61,138.96L108.95,138.94L109.11,140.54L109.61,137.34L109.94,138.97L110.11,138.9L112.44,138.94L112.61,138.87L113.94,139.15L114.1,138.71L114.44,138.94L114.6,138.65L114.77,137.98L115.6,139.14L115.77,138.94L116.1,138.79L116.27,136.14L116.93,116.83L117.1,116.92L117.26,116.88L118.09,116.84L118.26,119.59L118.59,115.36L118.93,116.92L119.09,118.52L119.43,115.25L119.59,50.04L119.76,47.09L119.92,58.22L121.09,37.9L121.26,42.22L121.42,45.75L121.75,48.69L121.92,54.12L122.25,47.95L122.42,49.59L122.59,55.1L123.25,85.04L123.42,139.31L123.58,138.77L123.75,138.99L123.92,116.71L124.58,139L124.75,138.93L124.91,138.96L128.07,138.9L128.24,138.94L129.24,138.93L129.41,138.13L129.57,138.02L129.74,138.98L130.9,137.71L131.07,138.95L131.9,133.19L132.07,128.35L132.23,128.24L132.4,122.17L132.9,116.87L133.23,117.1L133.4,116.89L133.73,116.66L134.06,117.13L134.23,117.09L135.06,116.89L135.23,76.3L135.39,115.23L135.73,32.2L135.89,28.8L137.22,62.16L137.39,49.07L138.72,77.41L138.89,85.49L139.22,139.07L139.72,116.94L139.88,119.82L140.55,139.01L140.88,138.92L141.05,138.96L143.54,138.92L143.71,138.93L147.04,138.92L147.2,138.18L147.54,138.89L147.87,133.89L148.03,140.39L148.7,115.92L149.03,116.91L149.2,116.86L150.7,116.98L150.86,118.52L151.19,110.82L151.36,38.8L151.53,37.79L151.69,43.25L152.19,35.21L152.36,39.34L152.53,51.37L152.69,47.76L152.86,52.34L153.02,52.22L153.19,120.45L153.36,124.4L153.69,114.79L153.86,43.44L154.02,41.7L154.35,43.02L154.52,46.94L156.18,139.06L156.52,139.01L156.68,138.98L158.18,138.88L158.35,139.01L158.51,138.65L159.01,138.91L159.18,138.99L160.34,138.91L160.51,138.95L161.84,138.94L162.01,140.51L162.17,137.13L162.84,137.74L163,138.39L163.34,138.85L163.5,138.72L163.67,135.09L163.84,136.12L164,133.51L164.17,127.27L164.83,116.91L165.17,118.38L165.33,116.64L166,116.86L166.16,124.92L166.33,115.4L167,116.87L167.16,116.92L167.33,116.94L167.49,128.59L168.16,50.9L168.33,127.78L168.49,116.91L168.66,45.18L168.99,121.53L169.32,118.43L169.49,56.96L170.66,77.73L170.82,75.04L172.65,138.98L172.82,138.9L174.81,138.98L174.98,138.67L175.98,138.93L176.14,138.94L178.31,138.93L178.47,139.16L179.14,138.18L179.3,135.88L179.64,134.66L179.8,140.44L179.97,138.9L180.14,126.31L181.13,116.85L181.3,116.89L181.47,116.88L182.13,116.72L182.3,118.47L182.46,115.33L182.96,116.98L183.13,39.63L183.8,29.02L183.96,29.93L184.13,43.29L184.29,38.97L184.46,54.68L184.63,133.5L185.13,61.35L185.29,62.22L186.12,51.11L186.29,54.57L187.45,117.78L187.62,118.47L188.12,139.01L188.62,138.75L188.79,138.94L193.61,138.9L193.78,137.39L194.27,139.14L194.77,138.93L194.94,137.04L195.27,140.53L195.44,139.18L195.6,137.29L195.94,138.94L196.1,129.44L196.77,116.86L197.1,116.87L197.27,116.9L198.6,116.92L198.77,89.5L199.26,23.97L199.6,39.77L199.76,49.62L200.43,138.94L200.59,128.94L200.76,45.67L200.93,46.56L201.09,58.81L201.43,55.9L201.59,57.61L201.76,60.18L201.93,61.67L202.09,51.19L203.26,103.16L203.42,110.6L204.42,139.2L204.59,138.71L205.58,138.96L205.75,138.89L206.75,138.9L206.92,138.95L211.41,138.52L211.57,136.18L212.4,121.61L212.57,117.21L213.24,116.87L213.4,139.91L213.57,115.63L214.23,115.94L214.4,116.93L215.07,116.95L215.23,118.22L215.73,115.59L216.06,116.93L216.23,117.02L216.9,117.02L217.06,117.2L217.23,103.91L218.06,47.31L218.23,51.12L218.39,45.8L219.89,139L220.06,138.76L220.22,138.94L221.05,138.98L221.22,138.89L227.37,138.88L227.54,138.21L227.71,139.07L228.04,138.94L228.21,136.52L228.87,117.29L229.04,139.91L229.2,115.96L229.87,116.65L230.04,125.59L230.7,115.43L230.87,116.95L231.03,116.9L232.7,116.67L232.86,104.78L233.36,50.8L233.69,61.34L233.86,56.59L235.03,102.22L235.19,110.73L236.36,139.01L236.52,138.89L238.19,138.93L238.35,138.91L242.68,138.82L242.84,140.58L243.84,133.68L244.01,140.33L244.34,138.85L244.51,138.93L244.67,115.88L245.01,117.12L245.5,116.82L245.67,116.7L246.83,117.15L247,120.03L247.17,129.77L247.5,115.61L247.67,116.94L247.83,117.44L248,116.67L248.17,116.93L248.33,139.2L248.5,139.12L248.66,115.7L249.33,116.96L249.5,98.64L249.66,71.46L250.16,97.65L250.33,104.08L250.99,140.03L251.33,138.7L251.49,128.61L251.99,139.01L252.49,138.97L252.66,138.91L256.48,138.97L256.65,138.88L257.98,138.94L258.15,138.95L258.98,138.88L259.14,138.95L259.31,138.71L259.48,138.89L259.64,136.6L259.81,130.33L260.14,140.73L260.31,137.13L260.47,134.01L260.97,139.88L261.14,115.97L261.47,116.87L261.64,116.93L263.47,116.89L263.63,117.21L263.8,116.72L263.97,129.17L264.3,137.6L264.47,115.88L264.8,116.91L264.96,82.05L265.13,63L265.63,88.54L265.8,74.25L266.13,65.65L266.46,72.75L266.63,78.84L268.13,139.22L268.29,138.93L271.62,138.95L271.78,138.93L274.11,139.14L274.28,140.55L274.45,137.08L275.11,138.92L275.28,138.95L275.44,138.89L275.61,137.49L275.78,139.11L276.28,136.8L276.44,133.63L276.94,116.94L277.11,139.85L277.27,115.94L277.94,116.95L278.1,116.85L278.27,116.68L278.44,116.95L278.6,126.04L278.94,126.68L279.1,115.62L279.6,116.96L279.77,116.89L279.93,116.99L280.1,136.96L280.43,115.62L281.1,116.87L281.27,117.19L281.76,116.92L281.93,106.25L282.1,71.2L282.6,96.2L282.76,105.58L284.09,138.98L284.26,138.96L290.58,138.95L290.75,140.51L290.91,137.28L291.58,138.89L291.74,138.97L292.74,116.89L293.24,117.94L293.41,129.77L293.91,116.56L294.24,116.86L294.41,116.69L294.57,116.97L294.74,134.35L294.9,136.02L295.24,135.74L295.4,115.96L295.57,116.93L295.74,140.24L295.9,138.9L296.07,115.72L296.23,116.86L296.4,139.97L296.57,138.96L296.73,115.72L296.9,116.86L297.07,139.58L297.23,138.92L297.4,115.95L298.23,116.96L298.4,116.94L299.4,116.93L299.56,120.4L300.23,139.04L300.39,138.91L300.56,138.98L303.89,138.91L304.05,138.97L306.21,138.92L306.38,138.96L307.55,138.69L307.71,135.85L307.88,135.7L308.04,133.67L308.54,118.74L308.71,139.97L309.04,140.12L309.38,115.82L309.54,116.63L309.71,117.16L309.87,116.9L310.04,140.09L310.37,137.24L310.54,115.7L311.04,120.53L311.2,138.06L311.37,138.06L311.54,139.14L311.7,137.85L311.87,127.55L312.2,127.49L312.37,116.99L312.54,116.61L313.2,116.93L313.37,116.9L314.7,117.21L314.86,129.32L315.7,140.36L315.86,138.5L316.03,138.96L316.19,138.99L316.36,137.33L316.53,139.21L317.19,138.89L317.36,138.93L321.18,138.92L321.35,138.93L322.35,138.92L322.52,204.18L322.68,217.47L322.85,143.81L323.18,143.08L323.35,138.98L324.01,128.33L324.18,147.41L324.34,153.38L324.51,139.34L324.68,127.07L324.84,131.16L325.01,118.69L325.18,116.84L326.51,116.97L326.67,118.29L327.01,115.36L327.34,117.23L327.51,130.23L327.84,115.64L328.17,116.99L328.34,139.16L328.5,138.25L328.67,139.14L328.84,115.93L329.5,117.18L329.67,116.89L329.83,116.72L330.5,117.37L330.67,116.56L330.83,116.96L331,131.99L331.83,139.03L332,138.67L332.83,138.94L332.99,138.91L338.15,138.95L338.32,139.17L339.31,138.51L339.48,140.5L339.65,138.9L339.81,184.12L340.65,116.88L340.81,116.9L341.64,116.89L341.81,130.73L342.14,115.48L342.64,116.94L342.81,116.93L342.97,116.95L343.14,118.24L343.47,115.41L343.97,116.89L344.14,116.95L345.47,116.96L345.64,116.96L346.47,116.95L346.63,116.94L347.13,117.35L347.3,123.8L348.3,139L348.46,138.9L349.29,138.89L349.46,138.96L353.45,138.95L353.62,139.16L354.78,138.76L354.95,139.16L355.45,138.92L355.61,131.39L356.11,126.69L356.28,138.97L356.45,138.93L356.61,140.48L357.28,115.94L357.44,116.87L357.61,116.88L357.94,116.95L358.11,139.98L358.94,115.35L359.11,117.24L359.94,116.89L360.11,117.2L360.6,116.73L360.77,130.32L361.1,135.75L361.27,115.68L361.94,117L362.1,93.75L362.27,68.02L362.6,101.05L362.77,106.44L363.6,138.98L364.1,138.72L364.26,138.94L368.42,138.94L368.59,138.93L371.08,138.93L371.25,140.27L371.42,138.93L371.58,128.33L372.41,116.85L372.58,116.89L372.75,116.92L372.91,116.61L373.08,117.11L373.25,116.92L373.41,134.52L373.91,115.27L374.41,116.9L374.58,117.18L375.08,116.56L375.24,43.74L375.41,53.3L375.74,47.72L375.91,36.79L376.24,40.37L376.41,38.55L376.57,29.77L377.9,62.2L378.07,138.38L378.4,139.02L378.57,138.75L378.73,115.97L379.23,119.39L379.4,125.78L380.07,138.98L380.4,138.92L380.56,138.95L384.72,138.94L384.89,140.57L385.22,137.21L385.72,138.93L385.89,138.93L386.39,138.51L386.55,137.12L387.05,138.93L387.22,138.19L387.38,135.36L387.88,132.12L388.05,135.73L388.22,134.25L388.55,116.92L388.88,139.61L389.05,139.14L389.88,116.85L390.05,116.82L390.38,116.75L390.54,118.56L390.71,115.32L391.21,116.89L391.38,116.92L391.54,112.93L391.71,44.88L392.21,51.49L392.37,63.85L392.54,55.17L392.71,131.61L392.87,134.9L393.04,130.14L393.21,115.87L393.54,131.26L393.7,123.55L393.87,73.92L394.87,117.37L395.04,114.9L395.7,139.03L396.2,138.96L396.37,138.96L398.53,138.89L398.69,138.96L401.52,138.59L401.69,139.16L402.85,138.62L403.02,139.15L403.19,138.9L403.52,139.18L403.68,140.36L404.18,131.95L404.35,116.88L405.18,117.15L405.35,139.89L405.51,136.74L405.68,115.73L406.35,116.94L406.51,116.89L406.68,116.94L407.01,116.69L407.18,117.48L407.34,113.46L407.51,52.7L407.84,130.48L408.18,67.75L408.34,68.18L408.51,67.93L408.67,60.59L409.01,57.57L409.17,70.21L409.34,68.98L409.51,55.42L409.67,54.94L409.84,57.7L412,139.21L412.17,138.95L412.33,138.91L414.66,138.94L414.83,138.96L416.99,138.96L417.16,139.17L418.16,138.93L418.32,138.91L419.82,138.94L419.98,135.8L420.15,138.71L420.32,132.38L420.48,137.98L420.65,122.85L420.82,139.85L420.98,115.81L421.32,116.53L421.48,116.88L422.15,117.08L422.31,133.78L422.65,115.36L423.15,117.04L423.31,116.98L423.81,116.96L423.98,129.23L424.31,93.5L424.48,51.74L425.14,40.64L425.31,44.86L425.47,49.47L427.14,130.1L427.3,128.09L427.8,139.01L428.14,138.99L428.3,138.92L435.12,138.7L435.29,135.33L435.95,130.15L436.12,138.92L436.29,140.5L436.45,138.91L436.62,121.92L436.78,116.7L437.45,116.86L437.62,116.65L437.95,115.57L438.28,120.79L438.45,116.87L438.61,117.45L438.78,136.19L438.95,115.77L439.61,116.87L439.78,117.32L440.44,116.93L440.61,136.02L440.78,135.39L440.94,115.87L441.11,116.89L441.28,68.85L441.61,52.05L441.94,59.86L442.11,66.78L443.6,139.03L443.77,138.94L443.94,138.95L444.1,138.7L444.44,138.94L444.6,140.54L444.93,137.31L445.43,138.99L445.6,138.9L448.26,138.95L448.43,138.92L450.76,138.93L450.92,140.55L451.09,137.33L451.75,138.8L451.92,138.67L452.09,139.16L452.25,138.7L452.42,134.44L453.08,116.75L453.25,117.85L453.42,116.81L453.58,134.74L453.92,115.77L454.08,116.56L454.25,116.86L456.58,116.97L456.74,139.62L457.08,115.87L457.24,68.46L457.74,78.21L457.91,94.26L459.07,138.31L459.24,138.44L459.41,136.91L459.9,139.01L460.07,138.9L460.57,139.24L460.9,138.97L461.07,138.88L462.4,138.94L462.57,138.92L466.56,138.96L466.72,140.53L467.72,130.91L467.89,140.16L468.05,138.87L468.22,139.12L468.39,115.87L469.22,120.85L469.39,118.97L469.55,116.51L470.38,116.99L470.55,116.95L470.88,123.47L471.05,115.81L471.88,116.96L472.05,116.95L472.21,133.92L472.55,115.52L472.71,105.29L472.88,38.41L473.54,42.62L473.71,122.06L473.88,130.2L474.04,66.8L475.71,140.56L476.2,138.96L476.37,138.89L478.37,138.92L478.53,138.93L482.69,138.94L482.86,140.8L483.52,131.12L483.69,140.33L483.86,138.91L484.02,119.79L485.02,116.94L485.19,116.94L485.35,116.73L485.52,138.32L485.85,115.39L486.18,139.61L486.35,133.23L487.02,115.46L487.18,116.81L487.35,116.87L487.85,116.89L488.01,120.25L488.18,121.02L488.35,115.67L488.51,117.19L488.68,139.92L488.85,138.98L489.01,133.87L489.18,115.54L489.84,117.87L490.01,117.04L490.18,117.03L490.34,123.76L491.01,139L491.17,138.9L491.34,138.75L492.67,139.02L492.84,138.81L494,138.93L494.17,138.95L495,138.94" style="vector-effect: non-scaling-stroke; fill: none; stroke: rgb(255, 165, 0); stroke-opacity: 1; stroke-width: 2px; opacity: 1;"/></g><g class="points"/><g class="text"/></g><g class="trace scatter tracea269ef" style="stroke-miterlimit: 2; opacity: 0.5;"><g class="fills"/><g class="errorbars"/><g class="lines"><path class="js-line" d="M0,138.92L1.83,138.94L2,138.71L3.49,138.93L3.66,138.93L3.83,138.39L3.99,135.24L4.16,140.39L4.32,129.93L4.49,137.53L4.66,130.79L5.32,116.62L5.82,117.12L5.99,116.87L6.82,116.71L6.99,119.73L7.15,115.34L7.32,116.87L7.48,126.97L8.15,138.95L8.32,115.77L8.65,116.73L8.82,122.58L9.48,106.38L9.65,40.89L9.98,40.69L10.31,54.32L10.48,48.84L10.65,46.25L10.81,47.61L10.98,57L12.64,139.03L13.14,138.91L13.31,138.73L14.3,138.96L14.47,138.91L17.8,138.93L17.96,138.93L19.46,138.93L19.63,140.53L20.29,130.38L20.46,138.84L20.79,139.92L20.96,115.89L21.29,116.9L21.46,117.11L21.96,116.72L22.12,117.07L22.29,133.93L22.79,115.34L23.12,116.97L23.29,116.92L23.45,116.98L23.62,54.1L23.79,36.09L24.45,41.2L24.62,52.65L24.95,55.56L25.12,42.6L25.28,42.05L25.45,44.51L25.61,45.55L25.78,41.81L25.95,33.69L26.45,31.55L27.11,60.59L27.28,69.99L28.78,138.99L29.27,138.95L29.44,138.92L33.43,138.93L33.6,137.56L33.93,138.96L34.43,138.67L34.6,138.56L34.76,138.81L34.93,138.25L35.1,138.39L35.26,138.18L35.59,138.32L35.93,133.81L36.09,129.48L36.26,140.43L36.59,124.74L36.76,116.67L37.92,116.89L38.09,93.63L38.59,16L38.92,28.66L39.09,48.08L39.25,47.58L39.42,51.21L39.92,22.42L40.25,35.12L40.42,107.88L40.58,109.71L40.75,38.58L40.92,35.64L41.25,39.68L41.42,36.82L41.58,50.71L41.75,50.74L41.92,39.27L42.08,39.77L42.41,38.72L42.58,35.32L42.75,25.66L43.08,44.99L43.25,51.66L43.58,71.17L43.74,138.96L43.91,138.98L44.08,115.99L44.58,134.33L44.74,138.98L48.24,138.89L48.4,137.46L49.23,140.54L49.4,137.27L50.23,138.4L50.4,137.68L50.56,140.49L51.06,138.95L51.23,136.57L51.56,139.14L52.06,138.77L52.23,135.26L52.89,116.87L53.06,139.88L53.23,138.88L53.39,115.91L53.72,116.9L53.89,134.76L54.39,115.3L54.89,116.95L55.06,116.67L55.22,118.61L55.55,116.99L55.72,115.51L55.89,116.97L56.05,72.67L56.89,24.83L57.05,25.46L57.22,26.74L57.38,37.58L57.55,37.28L57.72,37.92L57.88,39.5L58.05,41.66L58.22,41.04L58.38,29.76L58.55,26.64L58.71,29.53L58.88,39.68L60.71,139.19L61.04,138.95L61.21,138.93L65.87,138.81L66.03,137.53L66.2,139.13L66.7,138.69L66.86,137.49L67.2,138.79L67.53,137.63L67.7,135.63L68.2,137.86L68.36,130.75L68.53,116.93L68.86,120.83L69.03,116.89L69.19,116.9L69.36,139.9L69.53,138.9L69.69,115.82L70.19,118.5L70.36,116.96L70.52,115.25L70.69,118.36L71.36,116.95L71.52,116.97L72.35,35.48L72.52,41.48L72.69,35.66L73.02,43.59L73.52,41.5L73.68,41.27L74.18,117.93L74.35,35.9L74.52,31.29L77.01,138.99L77.18,138.88L77.34,138.96L82.33,138.5L82.5,139.17L82.83,138.94L83,137.14L83.33,138.92L83.66,137.25L83.83,135.56L84.83,116.85L84.99,139.93L85.16,138.86L85.33,138.91L85.49,115.84L85.66,138.95L85.99,115.48L86.16,117L86.33,116.89L86.49,116.92L86.66,89.78L87.16,26.68L87.49,42.53L87.66,45.32L87.99,126.85L88.32,37.24L88.49,36.18L88.82,33.81L88.99,35.24L89.15,37.58L89.49,33.53L89.82,35.76L89.98,38.51L92.48,136.29L92.65,139.01L94.48,138.9L94.64,138.99L96.14,138.73L96.31,138.82L97.14,138.93L97.3,138.6L97.47,137.24L97.8,140.52L98.14,137.24L98.3,137.38L98.63,138.94L99.3,138.67L99.47,138.61L99.63,139.13L100.13,138.92L100.3,126.81L100.63,116.88L100.96,117.11L101.13,139.92L101.3,139.12L101.46,115.92L102.46,116.91L102.63,116.91L102.79,113.92L102.96,56.24L103.13,56.29L103.29,69.97L103.46,71.46L103.62,60.67L103.96,139.07L104.29,69.74L104.46,47.42L104.62,46.17L104.79,48.55L104.95,49.98L105.12,38.79L105.62,40.31L105.79,44.28L106.95,87.67L107.12,81.41L109.11,140.54L109.28,138.93L109.45,138.91L109.61,137.34L110.28,138.96L110.44,138.93L110.61,138.93L114.6,138.65L114.77,137.98L115.6,139.14L115.77,138.94L116.1,138.79L116.27,136.14L116.76,116.68L117.26,116.88L117.43,117.08L118.09,116.84L118.26,127.55L118.76,115.27L119.26,116.99L119.43,116.86L119.59,115.6L119.76,116.97L119.92,85.22L120.76,44.84L120.92,45.88L121.26,42.28L121.92,54.12L122.09,51.86L122.25,47.95L122.59,55.1L122.75,59.22L123.08,75.98L123.25,74.53L123.42,139.02L123.92,138.99L124.08,132.85L124.58,139L124.91,138.96L125.08,138.92L127.41,138.91L127.58,138.97L129.57,138.02L129.74,138.98L130.07,138.48L130.24,138.83L130.4,140.75L130.57,137.37L131.23,138.11L131.4,137.89L131.57,137.86L131.73,135.75L132.9,116.87L133.23,117.1L133.4,116.66L135.23,116.75L135.39,119.67L135.73,115.3L135.89,93.04L136.06,31.62L136.72,47.04L136.89,55.02L137.22,62.16L137.39,49.07L138.72,77.41L138.89,85.49L139.22,139.07L139.72,116.71L139.88,119.82L140.55,139.01L140.88,138.92L141.05,138.96L143.54,138.92L143.71,138.93L145.04,138.56L145.21,139.38L146.2,138.62L146.37,138.61L146.54,138.68L146.7,140.54L147.37,137.25L147.54,138.89L147.87,133.89L148.03,140.39L148.7,115.92L149.03,116.91L149.2,116.86L150.7,116.98L150.86,122.47L151.19,115.32L151.36,115.65L151.53,37.79L151.86,47.28L152.19,35.21L152.36,39.34L152.86,52.34L153.02,52.22L153.19,120.45L153.52,128.28L153.69,41.9L154.02,41.7L154.52,46.94L154.69,57.49L156.18,139.06L156.68,138.98L156.85,138.87L158.01,138.91L158.18,138.88L159.51,138.98L159.68,138.93L161.84,138.94L162.01,140.51L162.17,137.13L162.84,137.74L163,138.39L163.34,138.85L163.5,138.72L163.67,135.09L163.84,136.12L164,133.51L164.17,127.27L164.83,116.66L165.17,117.1L165.33,116.87L166,116.63L166.16,125.15L166.33,115.4L167,116.87L167.16,116.69L167.33,117.17L167.49,128.59L167.66,127.7L167.83,115.38L168.16,50.9L168.33,127.78L168.49,116.91L168.66,45.18L168.99,121.53L169.32,118.43L169.49,56.96L170.49,71.24L170.66,67.22L172.65,138.98L172.82,138.9L172.98,138.95L177.64,138.85L177.81,138.93L179.14,138.41L179.3,135.88L179.64,134.66L179.8,140.44L179.97,138.9L180.14,126.31L181.13,116.85L181.3,116.89L181.47,116.88L182.13,116.72L182.3,118.47L182.63,115.35L182.96,116.98L183.13,81.03L183.8,29.02L183.96,29.93L184.13,43.29L184.29,38.97L184.46,54.68L184.96,135.49L185.13,61.75L185.29,51.71L185.46,52.92L185.63,41.26L185.79,41.54L185.96,53.78L186.12,51.11L186.29,54.57L186.46,75.51L188.12,139.01L188.62,138.98L188.79,138.94L193.61,138.9L193.78,137.39L194.27,139.14L194.61,138.93L194.77,138.7L195.27,140.3L195.44,139.18L196.27,132.62L196.44,117.03L197.6,116.93L197.77,117.11L198.77,116.68L198.93,73.41L199.26,24.03L199.76,49.62L199.93,126.95L200.43,138.94L200.59,55.99L200.76,55.77L200.93,46.62L201.76,60.18L201.93,61.67L202.09,61.69L202.26,55.92L204.42,139.2L204.59,138.95L204.75,138.71L205.58,138.96L205.75,138.66L206.58,138.98L206.75,138.9L209.41,139.19L209.58,138.92L211.41,138.52L211.57,136.18L211.74,134.49L211.91,140.38L212.74,116.88L212.9,117.12L213.07,116.89L213.24,116.87L213.4,139.91L213.57,115.63L214.23,115.94L214.4,116.93L215.07,116.72L215.23,118.46L215.56,115.26L216.06,116.93L216.23,117.02L216.4,116.6L216.56,117.23L216.9,117.02L217.06,117.2L218.39,45.8L218.56,62.13L219.89,139L220.06,138.76L220.22,138.94L221.55,138.96L221.72,138.67L222.72,138.94L222.88,138.92L225.21,138.96L225.38,138.93L227.37,138.66L227.54,138.21L227.71,139.07L228.04,138.94L228.21,136.52L228.87,117.24L229.04,139.91L229.2,115.96L229.87,116.89L230.04,125.59L230.53,115.34L230.87,116.95L231.03,116.9L232.36,116.87L232.53,77.98L233.36,50.8L233.53,56.65L233.69,61.34L233.86,56.59L234.03,60.72L234.19,70.95L234.36,71.12L234.53,77.48L236.36,139.01L236.52,138.89L238.19,138.93L238.35,138.91L242.68,138.93L242.84,140.6L243.84,133.68L244.01,140.33L244.34,138.85L244.51,138.93L244.67,115.88L245.01,117.12L245.5,116.82L245.67,116.7L246.83,117.15L247,120.03L247.33,135.33L247.5,115.86L247.67,116.71L247.83,117.44L248.17,116.7L248.33,139.2L248.5,139.12L248.66,115.93L249.33,116.96L249.5,116.87L249.66,116.96L249.83,117.38L249.99,117.14L250.16,110.43L250.33,104.08L250.49,109.12L250.66,120.97L250.99,140.26L251.33,138.7L251.49,118.57L251.99,139.01L252.32,138.95L252.49,138.97L254.82,138.9L254.98,138.94L259.48,138.89L259.64,136.6L260.14,140.73L260.81,116.6L260.97,139.88L261.14,115.97L261.8,116.89L261.97,116.85L262.64,116.97L262.8,116.69L263.63,116.98L263.8,116.95L263.97,129.17L264.3,115.78L264.47,68.99L264.63,59.67L265.13,63L265.3,73.34L265.63,88.54L265.8,74.25L265.96,66.05L266.13,65.65L266.3,73.57L266.46,72.75L266.63,78.84L268.13,139.22L268.29,138.93L271.62,138.95L271.78,138.93L274.11,138.91L274.28,140.55L274.45,137.08L275.11,138.92L275.28,138.95L275.44,138.89L275.61,137.49L275.78,139.11L276.28,136.8L276.44,123.13L276.61,122.97L276.77,118.79L276.94,116.94L277.11,139.85L277.27,115.94L277.94,116.95L278.1,116.62L278.44,116.95L278.6,126.04L278.94,126.68L279.1,115.62L279.6,116.96L279.77,116.89L279.93,116.99L280.1,136.96L280.6,115.64L281.1,116.87L281.27,117.19L281.76,116.92L281.93,94.17L282.1,71.2L282.6,96.2L282.76,105.58L283.76,139.18L284.09,138.98L284.26,138.96L290.58,138.95L290.75,140.51L291.08,137.3L291.58,138.89L291.74,138.74L292.74,116.89L293.24,117.94L293.41,119.27L293.91,116.56L294.24,116.86L294.41,116.69L294.57,116.97L294.74,134.35L294.9,136.02L295.07,123.89L295.24,125.17L295.4,115.9L295.57,116.93L295.74,140.24L295.9,138.67L296.07,138.96L296.23,115.85L296.4,139.97L297.07,131.86L297.23,139.08L297.4,115.95L298.06,116.97L298.23,116.96L299.4,116.93L299.56,120.4L300.23,139.04L300.39,138.91L300.56,138.98L303.89,138.91L304.05,138.97L306.21,138.92L306.38,138.96L307.55,138.92L307.71,135.85L307.88,135.7L308.04,133.67L308.54,118.74L308.71,139.97L309.38,138.84L309.54,115.86L309.71,117.16L309.87,116.67L310.04,140.09L310.37,138.85L310.54,115.67L311.04,120.53L311.2,138.06L311.37,138.06L311.54,139.14L311.87,137.85L312.04,138.06L312.2,127.55L312.37,127.49L312.54,116.67L313.53,116.94L313.7,116.95L314.7,117.21L314.86,129.32L315.7,140.6L315.86,138.96L316.03,138.49L316.19,137.15L316.53,139.21L316.69,138.92L316.86,138.94L322.35,138.92L322.52,140.57L323.51,135.25L323.68,133.16L324.01,128.33L324.18,139.09L324.34,138.91L324.51,128.74L325.34,116.84L325.51,117.18L326.51,116.74L326.67,118.52L327.01,115.36L327.34,117.23L327.51,130.23L327.84,115.64L328.17,116.99L328.34,139.4L328.5,138.25L328.67,139.14L328.84,115.93L329.5,117.41L329.67,116.89L329.83,116.72L330.5,117.37L330.67,116.56L330.83,116.96L331,131.99L331.5,139.01L331.83,138.8L332,138.9L333.16,138.89L333.33,138.92L338.98,138.93L339.15,138.44L339.48,140.5L339.65,138.9L339.98,138.88L340.15,116.34L340.31,119.74L340.81,116.9L340.98,116.83L341.64,116.89L341.81,130.73L342.31,115.5L342.97,116.95L343.14,118.24L343.64,115.25L343.97,116.89L344.14,116.95L345.47,116.96L345.64,116.96L346.13,116.65L346.47,116.95L346.63,116.94L347.13,117.35L347.3,123.8L348.3,139L348.46,138.9L349.29,138.89L349.46,138.96L354.28,138.48L354.45,138.96L355.12,138.96L355.28,137.47L356.11,126.69L356.28,138.97L356.45,138.93L356.61,140.25L356.78,138.94L356.95,115.7L357.11,139.94L357.61,116.88L357.78,117L357.94,116.95L358.11,139.98L358.44,115.29L359.11,115.63L359.27,116.97L360.27,116.93L360.44,116.92L360.6,116.73L360.77,130.32L361.1,135.75L361.27,115.68L362.1,116.95L362.27,116.95L362.93,116.98L363.1,122.94L363.6,138.98L364.1,138.72L364.26,138.94L368.42,138.94L368.59,138.93L371.08,138.93L371.25,140.5L372.25,118.17L372.41,116.85L373.25,116.92L373.41,134.52L373.74,115.37L374.41,116.9L374.58,117.18L374.74,116.74L375.24,116.94L375.41,117.14L375.91,116.7L376.07,72.05L376.41,28.05L376.91,31.76L377.07,31.07L377.9,62.2L378.07,138.38L378.4,139.02L378.57,115.73L378.9,97.4L379.23,108.58L379.4,115.22L380.07,138.98L380.56,138.95L380.73,138.93L384.72,138.94L384.89,140.57L385.06,137.26L385.72,138.93L385.89,138.93L386.39,138.51L386.55,137.12L387.05,138.93L387.22,138.19L387.38,135.36L387.88,132.12L388.05,135.73L388.22,134.25L388.55,116.92L388.88,139.84L389.05,138.9L389.88,116.85L390.05,116.82L390.21,116.99L390.38,116.75L390.54,120.2L391.54,101.14L391.71,44.88L392.21,51.49L392.37,63.85L392.54,65.68L392.71,138.65L393.21,126.37L393.54,131.02L393.7,63.47L395.53,138.92L395.7,139.03L397.36,138.9L397.53,138.94L403.52,139.18L403.68,140.36L404.18,132.18L404.35,121.78L404.52,116.66L405.18,117.15L405.35,139.89L405.51,136.74L405.68,115.73L406.01,117.14L406.51,116.89L406.68,116.94L407.51,116.98L407.68,131.78L407.84,130.48L408.01,138.99L408.51,57.42L409.01,57.57L409.17,70.21L409.67,54.94L409.84,57.7L410.01,65.82L412,139.21L412.17,138.95L412.33,138.91L414.66,138.94L414.83,138.96L416.99,138.96L417.16,139.17L418.16,138.93L418.32,138.91L418.99,138.94L419.15,140.52L419.98,135.8L420.15,138.71L420.82,139.85L420.98,115.81L421.48,116.88L421.65,116.93L422.15,117.08L422.31,133.78L422.65,115.36L423.15,117.04L423.31,116.98L423.81,116.96L423.98,129.23L424.48,115.5L424.64,116.67L424.81,47.43L425.14,40.64L425.47,49.47L425.64,63.34L425.97,71.31L426.14,82.43L426.64,104.02L426.8,110.12L426.97,110.42L427.14,119.54L427.8,139.01L428.14,138.99L428.3,138.92L435.12,138.7L435.29,135.33L435.95,130.15L436.12,138.92L436.29,140.5L436.45,138.91L436.62,115.66L437.12,117.93L437.45,116.86L437.62,116.65L437.78,118.58L437.95,132.25L438.11,115.71L438.61,117.45L438.78,136.19L438.95,115.77L439.61,117.1L439.78,117.09L440.44,116.93L440.61,136.02L440.78,139.02L440.94,137.26L441.11,115.74L441.28,116.98L441.44,116.94L441.61,91.59L441.77,55.3L442.27,74.94L442.44,82.21L443.6,139.03L443.77,138.94L443.94,138.95L444.44,138.71L444.6,140.54L445.1,137.34L445.43,138.99L445.6,138.9L448.26,138.95L448.43,138.92L450.76,138.93L450.92,140.55L451.42,136.32L451.75,138.99L451.92,138.67L452.25,138.94L452.42,134.44L452.75,116.74L453.25,117.85L453.42,116.81L453.58,134.74L453.92,115.77L454.08,116.56L454.25,116.86L456.58,116.97L456.74,136.46L456.91,135.3L457.08,137.28L457.24,115.87L457.41,116.95L457.58,116.71L457.74,113.25L457.91,94.26L458.41,119.71L458.57,124.39L458.74,120.16L458.91,131.81L459.07,138.31L460.57,139.24L460.74,138.86L461.73,138.9L461.9,138.73L463.06,138.97L463.23,138.89L464.89,138.95L465.06,138.95L466.56,138.96L466.72,140.53L467.72,130.91L467.89,140.39L468.39,115.87L468.72,116.92L468.89,116.67L469.05,117.27L469.22,120.85L469.55,116.51L470.22,116.9L470.38,116.99L470.55,116.95L470.72,118.76L471.05,115.52L471.55,116.96L471.71,116.89L472.05,116.95L472.21,123.42L472.38,122.13L472.55,99.22L472.88,38.41L473.38,43.41L473.54,42.62L473.88,130.2L474.21,73.58L474.38,77.41L475.71,140.56L475.87,138.99L476.04,138.9L476.2,137.35L477.04,138.94L477.2,138.92L482.69,138.94L482.86,140.8L483.52,131.12L483.69,140.33L483.86,138.91L484.02,138.96L484.19,117.35L485.02,116.94L485.19,116.94L485.35,116.96L485.52,138.09L485.85,115.39L486.18,139.61L486.35,133.23L486.52,134.28L486.68,128.29L487.02,115.46L487.68,116.91L487.85,116.89L488.35,130.85L488.51,115.92L488.68,139.92L489.18,115.76L489.34,116.88L489.68,120.5L490.01,117.04L490.18,117.03L491.01,139L491.17,138.9L491.34,138.75L492.67,139.02L492.84,138.81L494,138.93L494.17,138.95L495,138.94" style="vector-effect: non-scaling-stroke; fill: none; stroke: rgb(255, 0, 255); stroke-opacity: 1; stroke-width: 2px; opacity: 1;"/></g><g class="points"/><g class="text"/></g></g></g><g class="overplot"/><path class="xlines-above crisp" d="M0,0" style="fill: none;"/><path class="ylines-above crisp" d="M0,0" style="fill: none;"/><g class="overlines-above"/><g class="xaxislayer-above"><g class="xtick"><text text-anchor="middle" x="0" y="433" transform="translate(111.94,0)" style="font-family: 'Open Sans', verdana, arial, sans-serif; font-size: 12px; fill: rgb(42, 63, 95); fill-opacity: 1; white-space: pre; opacity: 1;"><tspan class="line" dy="0em" x="0" y="433">Jul 3</tspan><tspan class="line" dy="1.3em" x="0" y="433">2022</tspan></text></g><g class="xtick"><text text-anchor="middle" x="0" y="433" style="font-family: 'Open Sans', verdana, arial, sans-serif; font-size: 12px; fill: rgb(42, 63, 95); fill-opacity: 1; white-space: pre; opacity: 1;" transform="translate(223.71,0)">Jul 10</text></g><g class="xtick"><text text-anchor="middle" x="0" y="433" style="font-family: 'Open Sans', verdana, arial, sans-serif; font-size: 12px; fill: rgb(42, 63, 95); fill-opacity: 1; white-space: pre; opacity: 1;" transform="translate(335.48,0)">Jul 17</text></g><g class="xtick"><text text-anchor="middle" x="0" y="433" style="font-family: 'Open Sans', verdana, arial, sans-serif; font-size: 12px; fill: rgb(42, 63, 95); fill-opacity: 1; white-space: pre; opacity: 1;" transform="translate(447.26,0)">Jul 24</text></g><g class="xtick"><text text-anchor="middle" x="0" y="433" style="font-family: 'Open Sans', verdana, arial, sans-serif; font-size: 12px; fill: rgb(42, 63, 95); fill-opacity: 1; white-space: pre; opacity: 1;" transform="translate(559.03,0)">Jul 31</text></g></g><g class="yaxislayer-above"><g class="ytick"><text text-anchor="end" x="79" y="4.199999999999999" transform="translate(0,363.63)" style="font-family: 'Open Sans', verdana, arial, sans-serif; font-size: 12px; fill: rgb(42, 63, 95); fill-opacity: 1; white-space: pre; opacity: 1;">100</text></g><g class="ytick"><text text-anchor="end" x="79" y="4.199999999999999" style="font-family: 'Open Sans', verdana, arial, sans-serif; font-size: 12px; fill: rgb(42, 63, 95); fill-opacity: 1; white-space: pre; opacity: 1;" transform="translate(0,290.28)">50</text></g><g class="ytick"><text text-anchor="end" x="79" y="4.199999999999999" style="font-family: 'Open Sans', verdana, arial, sans-serif; font-size: 12px; fill: rgb(42, 63, 95); fill-opacity: 1; white-space: pre; opacity: 1;" transform="translate(0,216.93)">0</text></g><g class="ytick"><text text-anchor="end" x="79" y="4.199999999999999" style="font-family: 'Open Sans', verdana, arial, sans-serif; font-size: 12px; fill: rgb(42, 63, 95); fill-opacity: 1; white-space: pre; opacity: 1;" transform="translate(0,143.57999999999998)">50</text></g></g><g class="overaxes-above"/></g></g><g class="polarlayer"/><g class="smithlayer"/><g class="ternarylayer"/><g class="geolayer"/><g class="funnelarealayer"/><g class="pielayer"/><g class="iciclelayer"/><g class="treemaplayer"/><g class="sunburstlayer"/><g class="glimages"/><defs id="topdefs-2c6928"><g class="clips"/><clipPath id="legend2c6928"><rect width="103" height="86" x="0" y="0"/></clipPath></defs><g class="layer-above"><g class="imagelayer"/><g class="shapelayer"/></g><g class="infolayer"><g class="legend" pointer-events="all" transform="translate(584.9000000000001,100)"><rect class="bg" shape-rendering="crispEdges" width="103" height="86" x="0" y="0" style="stroke: rgb(68, 68, 68); stroke-opacity: 1; fill: rgb(255, 255, 255); fill-opacity: 1; stroke-width: 0px;"/><g class="scrollbox" transform="" clip-path="url(#legend2c6928)"><g class="groups"><g class="traces" transform="translate(0,14.5)" style="opacity: 1;"><text class="legendtext" text-anchor="start" x="40" y="4.680000000000001" style="font-family: 'Open Sans', verdana, arial, sans-serif; font-size: 12px; fill: rgb(42, 63, 95); fill-opacity: 1; white-space: pre;">Scenario 1</text><g class="layers" style="opacity: 0.5;"><g class="legendfill"/><g class="legendlines"><path class="js-line" d="M5,0h30" style="fill: none; stroke: rgb(0, 191, 255); stroke-opacity: 1; stroke-width: 2px;"/></g><g class="legendsymbols"><g class="legendpoints"/></g></g><rect class="legendtoggle" x="0" y="-9.5" width="97.703125" height="19" style="fill: rgb(0, 0, 0); fill-opacity: 0;"/></g><g class="traces" transform="translate(0,33.5)" style="opacity: 1;"><text class="legendtext" text-anchor="start" x="40" y="4.680000000000001" style="font-family: 'Open Sans', verdana, arial, sans-serif; font-size: 12px; fill: rgb(42, 63, 95); fill-opacity: 1; white-space: pre;">Scenario 2</text><g class="layers" style="opacity: 0.5;"><g class="legendfill"/><g class="legendlines"><path class="js-line" d="M5,0h30" style="fill: none; stroke: rgb(255, 0, 0); stroke-opacity: 1; stroke-width: 2px;"/></g><g class="legendsymbols"><g class="legendpoints"/></g></g><rect class="legendtoggle" x="0" y="-9.5" width="97.703125" height="19" style="fill: rgb(0, 0, 0); fill-opacity: 0;"/></g><g class="traces" transform="translate(0,52.5)" style="opacity: 1;"><text class="legendtext" text-anchor="start" x="40" y="4.680000000000001" style="font-family: 'Open Sans', verdana, arial, sans-serif; font-size: 12px; fill: rgb(42, 63, 95); fill-opacity: 1; white-space: pre;">Scenario 6</text><g class="layers" style="opacity: 0.5;"><g class="legendfill"/><g class="legendlines"><path class="js-line" d="M5,0h30" style="fill: none; stroke: rgb(255, 165, 0); stroke-opacity: 1; stroke-width: 2px;"/></g><g class="legendsymbols"><g class="legendpoints"/></g></g><rect class="legendtoggle" x="0" y="-9.5" width="97.703125" height="19" style="fill: rgb(0, 0, 0); fill-opacity: 0;"/></g><g class="traces" transform="translate(0,71.5)" style="opacity: 1;"><text class="legendtext" text-anchor="start" x="40" y="4.680000000000001" style="font-family: 'Open Sans', verdana, arial, sans-serif; font-size: 12px; fill: rgb(42, 63, 95); fill-opacity: 1; white-space: pre;">Scenario 7</text><g class="layers" style="opacity: 0.5;"><g class="legendfill"/><g class="legendlines"><path class="js-line" d="M5,0h30" style="fill: none; stroke: rgb(255, 0, 255); stroke-opacity: 1; stroke-width: 2px;"/></g><g class="legendsymbols"><g class="legendpoints"/></g></g><rect class="legendtoggle" x="0" y="-9.5" width="97.703125" height="19" style="fill: rgb(0, 0, 0); fill-opacity: 0;"/></g></g></g><rect class="scrollbar" rx="20" ry="3" width="0" height="0" x="0" y="0" style="fill: rgb(128, 139, 164); fill-opacity: 1;"/></g><g class="g-gtitle"><text class="gtitle" x="327.5" y="50" text-anchor="middle" dy="0em" style="font-family: 'Open Sans', verdana, arial, sans-serif; font-size: 17px; fill: rgb(42, 63, 95); opacity: 1; font-weight: normal; white-space: pre;"><tspan class="line" dy="0em" x="327.5" y="50">Scenario Comparison</tspan><tspan class="line" dy="1.3em" x="327.5" y="50">Grid Meter</tspan><tspan class="line" dy="2.6em" x="327.5" y="50">From: July 01, 2022 to August 01, 2022</tspan></text></g><g class="g-xtitle"><text class="xtitle" x="327.5" y="476.409375" text-anchor="middle" style="font-family: 'Open Sans', verdana, arial, sans-serif; font-size: 14px; fill: rgb(42, 63, 95); opacity: 1; font-weight: normal; white-space: pre;">Time</text></g><g class="g-ytitle"><text class="ytitle" transform="rotate(-90,27.168750000000003,260)" x="27.168750000000003" y="260" text-anchor="middle" style="font-family: 'Open Sans', verdana, arial, sans-serif; font-size: 14px; fill: rgb(42, 63, 95); opacity: 1; font-weight: normal; white-space: pre;">Demand (kW)</text></g></g></svg>