<svg class="main-svg" xmlns="http://www.w3.org/2000/svg" xmlns:xlink="http://www.w3.org/1999/xlink" width="700" height="500" style="" viewBox="0 0 700 500"><rect x="0" y="0" width="700" height="500" style="fill: rgb(255, 255, 255); fill-opacity: 1;"/><defs id="defs-01ca2f"><g class="clips"><clipPath id="clip01ca2fxyplot" class="plotclip"><rect width="540" height="320"/></clipPath><clipPath class="axesclip" id="clip01ca2fx"><rect x="80" y="0" width="540" height="500"/></clipPath><clipPath class="axesclip" id="clip01ca2fy"><rect x="0" y="100" width="700" height="320"/></clipPath><clipPath class="axesclip" id="clip01ca2fxy"><rect x="80" y="100" width="540" height="320"/></clipPath></g><g class="gradients"/><g class="patterns"/></defs><g class="bglayer"/><g class="layer-below"><g class="imagelayer"/><g class="shapelayer"/></g><g class="cartesianlayer"><g class="subplot xy"><g class="layer-subplot"><g class="shapelayer"/><g class="imagelayer"/></g><g class="minor-gridlayer"><g class="x"/><g class="y"/></g><g class="gridlayer"><g class="x"><path class="xgrid crisp" transform="translate(114.84,0)" d="M0,100v320" style="stroke: rgb(255, 255, 255); stroke-opacity: 1; stroke-width: 1px;"/><path class="xgrid crisp" transform="translate(236.77,0)" d="M0,100v320" style="stroke: rgb(255, 255, 255); stroke-opacity: 1; stroke-width: 1px;"/><path class="xgrid crisp" transform="translate(358.71,0)" d="M0,100v320" style="stroke: rgb(255, 255, 255); stroke-opacity: 1; stroke-width: 1px;"/><path class="xgrid crisp" transform="translate(480.65,0)" d="M0,100v320" style="stroke: rgb(255, 255, 255); stroke-opacity: 1; stroke-width: 1px;"/><path class="xgrid crisp" transform="translate(602.58,0)" d="M0,100v320" style="stroke: rgb(255, 255, 255); stroke-opacity: 1; stroke-width: 1px;"/></g><g class="y"><path class="ygrid crisp" transform="translate(0,386.1)" d="M80,0h540" style="stroke: rgb(255, 255, 255); stroke-opacity: 1; stroke-width: 1px;"/><path class="ygrid crisp" transform="translate(0,344.15999999999997)" d="M80,0h540" style="stroke: rgb(255, 255, 255); stroke-opacity: 1; stroke-width: 1px;"/><path class="ygrid crisp" transform="translate(0,302.22)" d="M80,0h540" style="stroke: rgb(255, 255, 255); stroke-opacity: 1; stroke-width: 1px;"/><path class="ygrid crisp" transform="translate(0,218.34)" d="M80,0h540" style="stroke: rgb(255, 255, 255); stroke-opacity: 1; stroke-width: 1px;"/><path class="ygrid crisp" transform="translate(0,176.4)" d="M80,0h540" style="stroke: rgb(255, 255, 255); stroke-opacity: 1; stroke-width: 1px;"/><path class="ygrid crisp" transform="translate(0,134.46)" d="M80,0h540" style="stroke: rgb(255, 255, 255); stroke-opacity: 1; stroke-width: 1px;"/></g></g><g class="zerolinelayer"><path class="yzl zl crisp" transform="translate(0,260.28)" d="M80,0h540" style="stroke: rgb(255, 255, 255); stroke-opacity: 1; stroke-width: 2px;"/></g><path class="xlines-below"/><path class="ylines-below"/><g class="overlines-below"/><g class="xaxislayer-below"/><g class="yaxislayer-below"/><g class="overaxes-below"/><g class="plot" transform="translate(80,100)" clip-path="url(#clip01ca2fxyplot)"><g class="scatterlayer mlayer"><g class="trace scatter tracebe17cd" style="stroke-miterlimit: 2; opacity: 0.5;"><g class="fills"/><g class="errorbars"/><g class="lines"><path class="js-line" d="M0,191.71L1.81,191.72L2,191.74L2.18,191.42L2.72,191.74L2.9,191.72L3.99,191.73L4.17,190.95L4.54,193.81L4.72,178.86L4.9,189.73L5.08,165.15L5.81,160.16L5.99,160.24L6.17,160.19L6.35,160.54L6.9,160.17L7.08,160.28L7.26,160.57L7.44,160.3L7.62,164.28L7.8,157.67L7.98,160.2L8.17,174.97L8.35,158.75L8.53,193.63L9.07,159.72L9.25,151.71L9.62,165.58L10.16,48.84L10.34,52.84L10.71,54.71L10.89,51.29L11.07,69.18L11.25,70.78L11.43,62.95L11.61,59.23L11.79,61.19L11.98,74.61L13.79,191.87L14.15,191.79L14.33,191.69L16.15,191.75L16.33,191.66L17.6,191.72L17.78,191.77L19.42,191.73L19.6,191.73L21.23,191.72L21.41,194.01L22.14,179.5L22.32,191.6L22.68,193.21L23.04,158.73L23.41,160.53L23.59,160.2L23.77,160.49L24.13,160.14L24.31,184.58L24.68,157.96L25.22,160.67L25.4,159.92L25.58,160.35L25.77,160.23L25.95,72.08L26.49,46.44L26.67,52.02L26.85,68.4L27.04,70.54L27.22,57.53L27.58,53.24L27.76,56.76L27.94,58.24L28.85,38.23L29.03,47.47L30.85,164.71L31.03,179.8L31.39,191.81L31.94,191.76L32.12,191.71L36.47,191.72L36.65,189.77L37.02,191.76L37.56,191.35L37.74,191.2L37.92,191.56L38.1,190.75L38.29,190.95L38.47,190.65L38.83,190.86L39.19,184.41L39.38,178.21L39.56,193.86L39.92,171.44L40.1,160.24L41.37,160.21L41.55,156.82L42.1,16L42.46,34.1L42.64,61.86L42.82,61.15L43,66.33L43.19,68.7L43.37,54.54L43.73,38.32L43.91,43.34L44.09,147.34L44.27,149.96L44.46,48.28L44.64,59.1L44.82,47.9L45,49.85L45.18,45.76L45.54,65.66L45.91,50.06L46.09,49.36L46.27,48.48L46.45,43.62L46.63,29.8L47,57.45L47.18,66.97L47.54,94.86L47.72,191.77L48.08,191.83L48.27,161.2L48.81,191.79L49.35,191.75L49.54,191.71L52.62,191.67L52.8,189.62L53.71,194.03L53.89,189.35L54.8,190.97L54.98,189.94L55.16,193.96L55.52,191.73L55.71,189.26L56.25,192.03L56.43,191.71L56.61,185.07L57.7,160.19L57.88,192.75L58.06,159.08L58.61,160.24L58.79,185.76L59.33,157.95L59.7,160.26L59.88,159.98L60.06,160.24L60.24,162.67L60.42,160.19L60.6,160.36L60.79,132.36L60.97,36.76L61.69,40.29L61.88,25.47L63.33,52.68L63.51,36.77L63.87,31.21L64.05,35.35L66.23,192.43L66.41,191.77L66.59,191.76L69.5,191.72L69.68,191.74L71.85,191.55L72.04,189.72L72.22,192.01L72.76,191.38L72.94,189.66L73.31,191.52L73.67,189.86L73.85,187L74.4,190.19L75.3,160.22L75.48,160.56L75.67,193.11L75.85,191.68L76.03,158.69L76.57,162.19L76.75,160.32L76.94,157.87L77.12,162.32L77.66,160.31L77.84,160.3L78.21,160.23L78.39,125.98L78.93,28.75L79.29,44.03L79.48,47.64L79.66,55.45L80.2,52.45L80.38,52.13L80.93,161.7L81.11,148.73L81.29,38.44L82.92,148.63L83.1,166.81L84.01,191.81L84.19,191.65L85.65,191.7L85.83,191.73L88.91,191.71L89.09,191.74L89.82,191.11L90,192.07L90.18,194L90.36,189.43L90.54,191.75L90.73,191.76L91.27,189.32L91.45,186.91L92.54,160.16L92.72,193.16L92.9,191.62L93.08,191.69L93.27,158.72L93.45,191.76L93.99,158.08L94.17,160.56L94.35,159.93L94.9,160.21L95.08,92.41L95.26,47.23L95.63,57.91L95.81,165.24L95.99,174.46L96.17,153.67L96.35,46.94L96.9,41.46L97.08,43.51L97.26,46.85L97.62,41.06L97.98,44.25L98.17,48.18L100.71,181.43L100.89,187.95L101.07,191.84L101.79,191.72L101.98,191.75L105.42,191.69L105.6,191.74L106.15,191.25L106.33,189.3L106.69,194L106.88,189.19L107.06,191.61L107.24,189.51L107.6,191.74L107.96,189.55L108.15,190.34L108.69,192.02L108.87,186.56L109.78,160.2L110.14,160.53L110.32,193.13L110.5,192L110.69,158.5L111.23,160.33L111.59,160.27L111.77,160.25L111.96,45.06L112.5,73.59L112.68,93.15L113.04,64.75L113.23,178.56L113.41,185.08L113.59,80.6L113.77,80.19L113.95,60.91L114.13,59.13L114.31,62.53L114.5,64.57L114.68,48.58L115.22,50.75L115.4,56.43L116.67,118.44L116.85,124.52L117.04,116.58L117.22,132.43L117.4,128.35L117.58,140.1L118.67,191.76L118.85,191.74L119.03,194.03L119.4,191.69L119.58,189.45L120.3,191.76L120.48,191.73L120.67,191.72L125.02,191.33L125.2,190.37L126.11,192.03L126.29,191.73L126.65,191.52L126.83,187.74L127.56,160.13L127.74,160.26L127.92,160.2L128.65,160.23L128.83,160.15L129.01,164.07L129.38,158.03L129.56,160.21L129.74,160.27L129.92,162.55L130.28,157.88L130.46,64.66L130.65,60.44L130.83,76.36L132.1,47.3L132.28,53.48L132.46,58.53L132.82,62.73L133,70.49L133.37,61.68L133.55,64.02L133.73,71.9L134.46,114.68L134.64,192.26L134.82,191.5L135,191.81L135.18,159.96L135.91,191.82L136.09,191.73L136.27,191.77L138.99,191.7L139.17,191.78L140.81,191.71L140.99,191.72L141.35,190.43L141.71,191.42L141.9,191.08L142.26,192.02L142.62,191.17L142.8,189.98L142.98,191.75L143.53,190.19L143.71,187.18L144.98,160.19L145.34,160.51L145.52,160.22L145.89,159.89L146.07,160.58L146.25,160.56L147.34,160.22L147.52,102.2L147.7,157.85L148.06,39.15L148.25,34.29L149.7,81.99L149.88,63.28L150.42,80.58L150.6,65.89L151.88,191.92L152.06,158.8L152.24,160.08L152.42,160.29L152.6,164.41L153.33,191.84L153.69,191.71L153.87,191.77L156.05,191.7L156.23,191.74L158.23,191.19L158.41,192.03L159.68,191.26L159.86,191.37L160.4,191.71L160.58,190.65L160.95,191.67L161.31,184.52L161.49,193.81L162.22,158.83L162.4,160.12L162.58,160.25L164.4,160.34L164.58,162.55L164.94,151.54L165.12,48.59L165.3,47.15L165.48,54.95L166.03,43.46L166.21,49.37L166.39,66.56L166.57,61.4L166.75,67.95L166.94,67.78L167.12,165.31L167.3,170.96L167.48,161.48L167.66,157.21L168.02,52.73L168.57,60.23L168.75,75.31L170.38,191.91L170.93,191.8L171.11,191.64L172.2,191.79L172.38,191.7L174.56,191.71L174.74,191.77L176.55,191.74L176.73,193.99L176.92,189.16L177.46,191.72L177.64,190.03L178.19,191.61L178.37,191.42L178.55,186.24L178.73,187.7L178.91,183.98L179.09,175.06L179.82,160.25L180,160.73L180.18,162.35L180.36,159.85L180.91,159.96L181.09,160.18L181.27,171.7L181.45,158.09L181.81,160.2L182,160.74L182.54,160.28L182.72,176.94L183.45,65.88L183.63,175.78L183.81,160.24L183.99,57.71L184.35,166.85L184.72,162.42L184.9,74.55L186.17,104.24L186.35,100.39L188.17,191.8L188.35,191.79L188.53,191.68L190.16,191.72L190.34,191.74L191.98,191.73L192.16,191.73L194.33,191.52L194.52,191.73L195.24,191.77L195.42,190.65L195.97,185.63L196.15,193.88L196.33,191.68L196.51,173.68L197.6,160.17L197.78,160.22L198.69,159.98L198.87,162.48L199.05,157.98L199.6,160.35L199.78,49.77L200.5,34.62L200.69,35.91L200.87,55.01L201.05,48.83L201.23,71.29L201.41,183.96L201.96,80.82L202.14,82.06L203.04,66.18L203.23,71.14L204.5,161.49L204.68,162.48L205.22,191.84L205.77,191.46L205.95,191.74L211.21,191.68L211.39,189.52L211.75,192.08L212.3,191.73L212.48,191.73L212.66,189.02L213.02,194.02L213.21,192.08L213.93,178.15L214.11,167.63L214.66,160.18L215.02,160.19L215.2,160.23L216.65,160.26L216.83,121.07L217.38,27.39L217.74,49.98L217.92,64.06L218.65,191.73L218.83,177.44L219.01,58.41L219.19,59.68L219.38,77.19L219.74,73.04L219.92,75.48L220.1,79.15L220.28,81.28L220.46,66.3L221.55,127.15L221.73,140.59L223,192.11L223.19,191.42L224.09,191.71L224.27,191.76L225.54,191.68L225.73,191.75L230.44,191.71L230.63,191.14L232.62,160.19L232.8,193.13L232.98,158.42L233.71,158.86L233.89,160.28L234.62,160.3L234.8,162.13L235.34,158.36L235.71,160.27L235.89,160.41L236.43,160.27L236.61,160.4L236.79,160.66L238.25,58.6L238.43,81.94L239.88,191.82L240.06,191.48L240.24,191.74L240.42,192.16L240.79,191.34L240.97,191.78L241.15,191.8L242.42,191.68L242.6,191.79L244.23,191.69L244.42,191.76L246.96,191.46L247.14,192.07L248.23,190.7L248.41,191.93L248.77,191.74L248.95,188.28L249.68,160.8L249.86,193.12L250.04,158.88L250.77,159.88L250.95,172.65L251.67,158.13L251.85,160.31L252.04,160.23L253.67,160.34L253.85,159.9L254.58,65.75L254.94,80.81L255.12,74.03L256.39,139.25L256.57,151.41L257.84,191.84L258.02,191.67L259.48,191.78L259.66,191.69L263.1,191.73L263.29,191.71L264.56,191.69L264.74,191.57L264.92,194.09L265.1,189.36L265.46,194.03L265.65,189.44L265.83,190.95L266.01,184.22L266.19,193.72L266.73,191.73L266.92,158.77L267.28,160.55L267.82,160.12L268,159.95L269.27,160.58L269.46,164.71L269.64,178.62L270,158.38L270.18,160.29L270.36,161.01L270.54,159.9L270.73,160.28L270.91,192.11L271.09,192L271.27,158.52L272,160.32L272.18,134.14L272.36,95.28L272.9,132.72L273.08,141.9L273.81,193.3L274.17,191.39L274.35,176.98L274.9,191.84L275.44,191.78L275.63,191.7L279.07,191.72L279.25,191.69L281.07,192.05L281.25,191.72L283.06,191.67L283.25,188.39L283.43,179.43L283.79,194.29L283.97,189.16L284.15,184.69L284.52,159.75L284.7,193.08L284.88,158.91L285.6,160.22L285.79,160.16L285.97,160.65L286.51,160.33L286.69,160.26L287.78,159.97L287.96,177.77L288.33,189.82L288.51,158.78L288.87,160.24L289.05,110.41L289.23,83.18L289.6,113.74L289.78,119.69L290.32,86.97L290.69,97.12L290.87,105.83L292.5,192.14L292.68,191.72L293.77,191.75L293.95,191.35L294.68,191.78L294.86,191.7L295.04,191.72L298.31,191.77L298.49,191.67L299.03,192.03L299.21,194.04L299.4,189.09L299.94,191.73L300.12,191.71L300.48,191.67L300.67,189.66L300.85,191.98L301.21,191.64L301.39,188.68L302.12,160.29L302.3,193.04L302.48,158.87L303.21,160.3L303.39,160.16L303.57,159.92L303.75,160.3L303.93,173.3L304.29,174.21L304.48,158.4L305.02,160.32L305.2,160.23L305.38,160.36L305.56,188.92L305.93,158.4L306.47,160.31L306.65,160.19L306.83,160.65L307.38,160.26L307.56,145.01L307.74,94.91L308.29,130.64L308.47,144.06L309.92,191.8L310.1,191.77L315.36,191.73L315.54,192.05L315.73,191.44L316.27,191.73L316.45,191.74L317,191.76L317.18,193.99L317.36,189.37L317.9,191.39L318.08,191.67L318.27,191.79L318.45,188.04L319.35,160.21L319.54,160.57L319.72,165.66L319.9,161.72L320.08,178.63L320.63,159.75L320.99,160.17L321.17,159.93L321.35,160.33L321.53,185.18L321.71,187.57L322.08,187.16L322.26,158.89L322.44,160.27L322.62,193.6L322.8,191.68L322.98,158.55L323.17,160.17L323.35,193.2L323.53,191.77L323.71,158.55L323.89,160.18L324.07,192.66L324.25,191.71L324.44,158.87L325.34,160.32L325.52,160.3L326.61,160.28L326.79,165.23L327.52,191.88L327.7,191.7L327.88,191.79L330.6,191.7L330.79,191.79L332.06,191.74L332.24,191.76L334.42,191.7L334.6,191.73L335.5,191.38L335.69,187.32L335.87,187.1L336.05,184.21L336.59,162.87L336.77,193.22L337.14,193.42L337.5,158.69L337.68,159.85L337.86,160.6L338.04,160.23L338.23,193.38L338.59,189.31L338.77,158.52L339.31,165.43L339.5,190.47L339.68,190.47L339.86,192.03L340.04,190.18L340.22,175.46L340.58,175.38L340.77,160.36L340.95,159.83L341.49,160.31L341.67,160.28L343.13,160.33L343.31,160.68L344.4,193.77L344.58,191.1L344.94,191.82L345.12,189.44L345.3,192.12L345.85,191.75L346.03,191.67L348.57,191.74L348.75,191.37L349.66,191.74L349.84,191.73L351.65,191.7L351.83,285L352.02,304L352.2,198.7L352.56,197.66L352.74,191.79L353.47,176.57L353.65,203.85L353.83,212.39L354.01,192.31L354.19,174.77L354.38,180.61L354.56,162.79L354.92,160.15L355.46,160.27L355.65,160.18L356.19,160.33L356.37,162.22L356.73,158.03L357.1,160.7L357.28,179.29L357.64,158.43L358,160.36L358.19,192.06L358.37,190.75L358.55,192.02L358.73,158.85L359.46,160.63L359.64,160.22L359.82,159.98L360.54,160.9L360.73,159.74L360.91,160.32L361.09,181.81L362,191.87L362.18,191.35L363.08,191.74L363.27,191.7L366.53,191.74L366.71,191.71L369.98,191.72L370.16,191.13L370.34,193.97L370.52,191.68L370.71,256.32L371.61,160.21L371.79,160.24L372.7,160.21L372.88,180L373.25,158.2L373.79,160.28L373.97,160.27L374.15,160.3L374.33,162.15L374.7,158.11L375.24,160.22L375.42,160.31L376.51,160.31L376.69,160.19L378.33,160.38L378.51,160.31L378.69,160.88L378.87,170.1L379.96,191.82L380.14,191.68L380.32,192.08L380.87,191.75L381.05,191.67L382.68,191.76L382.86,191.71L386.13,191.77L386.31,191.28L386.67,191.77L387.04,191.48L387.22,192.05L387.76,191.71L387.94,180.95L388.49,174.23L388.67,191.78L388.85,191.72L389.03,193.94L389.76,158.86L389.94,160.2L390.12,160.21L390.48,160.3L390.67,193.22L391.57,158.02L391.75,160.73L392.66,160.21L392.84,160.66L393.39,159.99L393.57,179.41L393.93,187.18L394.11,158.5L394.84,160.38L395.02,127.14L395.2,90.36L395.56,137.58L395.75,145.28L396.65,191.79L397.2,191.42L397.38,191.74L400.83,191.76L401.01,191.68L402.82,191.67L403,191.69L404.82,191.73L405,193.64L405.18,191.73L405.36,176.57L406.27,160.17L406.45,160.22L406.63,160.26L406.81,159.82L407,160.54L407.18,160.26L407.36,185.42L407.9,157.91L408.27,160.29L408.45,160.23L408.81,160L408.99,160.53L409.17,159.75L410.08,45.72L410.26,47.95L410.44,50.84L410.63,48.24L410.81,35.68L412.26,82.04L412.44,190.94L412.8,191.86L412.98,191.46L413.17,158.9L413.71,163.8L413.89,172.92L414.62,191.79L414.98,191.71L415.16,191.75L419.7,191.74L419.88,194.07L420.24,189.27L420.79,191.72L420.97,191.73L421.51,191.13L421.69,189.13L422.24,191.72L422.42,190.66L422.6,186.62L423.15,181.99L423.33,187.15L423.51,185.04L423.69,162.45L423.87,160.26L424.05,161.42L424.23,192.7L424.42,192.02L424.6,164.56L424.96,165.51L425.5,160.12L425.69,160.04L425.87,160.02L426.05,162.61L426.23,157.97L426.77,160.22L426.96,160.26L427.14,154.56L427.32,57.29L427.86,66.73L428.04,84.4L428.23,72L428.41,181.25L428.59,185.97L428.77,179.16L428.95,158.76L429.31,180.76L429.5,169.74L429.68,98.79L430.77,160.91L430.95,157.38L431.67,191.87L432.04,191.76L432.22,191.77L438.02,191.24L438.21,192.05L438.93,191.4L439.11,191.75L439.29,191.73L439.48,191.28L439.66,192.04L439.84,191.68L440.02,192.06L440.2,192.09L440.38,193.77L440.93,181.75L441.11,160.21L442.02,160.59L442.2,193.1L442.38,188.6L442.56,158.56L443.29,160.29L443.47,160.22L443.65,160.29L444.01,159.93L444.19,161.06L444.38,155.32L444.56,68.46L444.92,179.65L445.28,89.98L445.46,90.59L445.65,90.23L445.83,79.74L446.19,75.42L446.37,93.49L446.55,91.73L446.73,72.35L446.92,71.67L447.1,75.61L449.46,192.13L449.64,191.76L449.82,191.7L451.09,191.75L451.27,191.37L452,191.78L452.18,191.69L452.36,191.73L455.63,191.74L455.81,191.41L456.9,191.74L457.08,191.74L457.98,191.74L458.17,187.25L458.35,191.41L458.53,182.37L458.71,190.37L458.89,168.75L459.07,193.04L459.25,158.68L459.44,160.62L459.62,159.7L460.52,160.49L460.71,184.36L461.07,158.03L461.61,160.43L461.79,160.34L462.34,160.32L462.52,177.86L462.88,126.78L463.06,67.09L463.79,51.22L463.97,57.25L465.24,128.73L465.42,141.81L466.69,191.83L466.88,191.71L467.06,191.81L468.51,191.7L468.69,191.86L469.78,191.77L469.96,191.69L471.96,191.77L472.14,191.7L474.5,191.75L474.68,191.4L475.58,179.18L475.77,191.71L475.95,193.97L476.13,191.7L476.31,167.41L476.49,159.95L477.22,160.17L477.4,159.87L477.76,158.33L478.13,165.8L478.31,160.2L478.49,161.02L478.67,187.8L478.85,158.61L479.58,160.19L479.76,160.83L480.48,160.28L480.67,187.56L480.85,186.66L481.03,158.76L481.21,160.22L481.39,91.55L481.75,67.54L482.12,78.7L482.3,88.58L483.93,191.87L484.11,191.74L484.29,191.75L484.48,191.4L484.84,191.74L485.02,194.02L485.38,189.41L485.93,191.81L486.11,191.69L488.47,191.76L488.65,191.69L491.73,191.73L491.92,194.04L492.1,189.44L492.64,191.74L492.82,191.55L493.19,192.05L493.37,191.4L493.55,185.31L494.27,160.02L494.46,161.6L494.64,160.1L494.82,185.73L495.18,158.63L495.36,159.75L495.54,160.18L496.27,160.54L496.45,161.1L496.63,160.11L497.18,160.3L497.36,160.29L498.08,160.33L498.27,192.71L498.63,158.76L498.81,91L499.35,104.93L499.54,127.87L500.63,181.54L500.81,190.84L500.99,191.03L501.17,188.84L502.08,192.12L502.26,191.64L502.44,192.17L502.98,191.65L503.17,191.8L504.07,191.38L504.25,191.74L504.44,191.74L508.97,191.77L509.15,194.01L510.24,180.26L510.42,193.48L510.6,191.64L510.79,192L510.97,158.76L511.88,165.88L512.06,163.19L512.24,159.68L512.6,160.61L513.15,160.36L513.33,160.31L513.69,169.63L513.87,158.67L514.78,160.32L514.96,160.3L515.14,184.57L515.5,158.26L515.69,143.63L515.87,48.04L516.59,54.06L516.77,167.61L516.96,179.25L517.14,88.62L518.95,194.05L519.31,189.37L519.5,191.77L520.95,191.74L521.13,191.73L526.57,191.75L526.75,194.4L527.48,180.56L527.66,193.73L527.84,191.69L528.02,164.37L529.11,160.28L529.29,160.29L529.48,159.99L529.66,190.85L530.02,158.07L530.38,192.7L530.56,183.58L531.29,158.18L531.47,160.11L531.65,160.19L532.2,160.23L532.38,165.02L532.56,166.12L532.74,158.47L532.92,160.64L533.1,193.14L533.29,191.79L533.47,184.5L533.65,158.29L534.19,165.38L534.38,161.62L534.74,160.42L534.92,170.04L535.65,191.82L535.83,191.68L536.01,191.47L537.1,191.79L537.28,191.69L538.37,191.76L538.55,191.71L540,191.74" style="vector-effect: non-scaling-stroke; fill: none; stroke: rgb(0, 191, 255); stroke-opacity: 1; stroke-width: 2px; opacity: 1;"/></g><g class="points"/><g class="text"/></g></g></g><g class="overplot"/><path class="xlines-above crisp" d="M0,0" style="fill: none;"/><path class="ylines-above crisp" d="M0,0" style="fill: none;"/><g class="overlines-above"/><g class="xaxislayer-above"><g class="xtick"><text text-anchor="middle" x="0" y="433" transform="translate(114.84,0)" style="font-family: 'Open Sans', verdana, arial, sans-serif; font-size: 12px; fill: rgb(42, 63, 95); fill-opacity: 1; white-space: pre; opacity: 1;"><tspan class="line" dy="0em" x="0" y="433">Jul 3</tspan><tspan class="line" dy="1.3em" x="0" y="433">2022</tspan></text></g><g class="xtick"><text text-anchor="middle" x="0" y="433" style="font-family: 'Open Sans', verdana, arial, sans-serif; font-size: 12px; fill: rgb(42, 63, 95); fill-opacity: 1; white-space: pre; opacity: 1;" transform="translate(236.77,0)">Jul 10</text></g><g class="xtick"><text text-anchor="middle" x="0" y="433" style="font-family: 'Open Sans', verdana, arial, sans-serif; font-size: 12px; fill: rgb(42, 63, 95); fill-opacity: 1; white-space: pre; opacity: 1;" transform="translate(358.71,0)">Jul 17</text></g><g class="xtick"><text text-anchor="middle" x="0" y="433" style="font-family: 'Open Sans', verdana, arial, sans-serif; font-size: 12px; fill: rgb(42, 63, 95); fill-opacity: 1; white-space: pre; opacity: 1;" transform="translate(480.65,0)">Jul 24</text></g><g class="xtick"><text text-anchor="middle" x="0" y="433" style="font-family: 'Open Sans', verdana, arial, sans-serif; font-size: 12px; fill: rgb(42, 63, 95); fill-opacity: 1; white-space: pre; opacity: 1;" transform="translate(602.58,0)">Jul 31</text></g></g><g class="yaxislayer-above"><g class="ytick"><text text-anchor="end" x="79" y="4.199999999999999" transform="translate(0,386.1)" style="font-family: 'Open Sans', verdana, arial, sans-serif; font-size: 12px; fill: rgb(42, 63, 95); fill-opacity: 1; white-space: pre; opacity: 1;">−60</text></g><g class="ytick"><text text-anchor="end" x="79" y="4.199999999999999" style="font-family: 'Open Sans', verdana, arial, sans-serif; font-size: 12px; fill: rgb(42, 63, 95); fill-opacity: 1; white-space: pre; opacity: 1;" transform="translate(0,344.15999999999997)">−40</text></g><g class="ytick"><text text-anchor="end" x="79" y="4.199999999999999" style="font-family: 'Open Sans', verdana, arial, sans-serif; font-size: 12px; fill: rgb(42, 63, 95); fill-opacity: 1; white-space: pre; opacity: 1;" transform="translate(0,302.22)">−20</text></g><g class="ytick"><text text-anchor="end" x="79" y="4.199999999999999" style="font-family: 'Open Sans', verdana, arial, sans-serif; font-size: 12px; fill: rgb(42, 63, 95); fill-opacity: 1; white-space: pre; opacity: 1;" transform="translate(0,260.28)">0</text></g><g class="ytick"><text text-anchor="end" x="79" y="4.199999999999999" style="font-family: 'Open Sans', verdana, arial, sans-serif; font-size: 12px; fill: rgb(42, 63, 95); fill-opacity: 1; white-space: pre; opacity: 1;" transform="translate(0,218.34)">20</text></g><g class="ytick"><text text-anchor="end" x="79" y="4.199999999999999" style="font-family: 'Open Sans', verdana, arial, sans-serif; font-size: 12px; fill: rgb(42, 63, 95); fill-opacity: 1; white-space: pre; opacity: 1;" transform="translate(0,176.4)">40</text></g><g class="ytick"><text text-anchor="end" x="79" y="4.199999999999999" style="font-family: 'Open Sans', verdana, arial, sans-serif; font-size: 12px; fill: rgb(42, 63, 95); fill-opacity: 1; white-space: pre; opacity: 1;" transform="translate(0,134.46)">60</text></g></g><g class="overaxes-above"/></g></g><g class="polarlayer"/><g class="smithlayer"/><g class="ternarylayer"/><g class="geolayer"/><g class="funnelarealayer"/><g class="pielayer"/><g class="iciclelayer"/><g class="treemaplayer"/><g class="sunburstlayer"/><g class="glimages"/><defs id="topdefs-01ca2f"><g class="clips"/></defs><g class="layer-above"><g class="imagelayer"/><g class="shapelayer"/></g><g class="infolayer"><g class="g-gtitle"><text class="gtitle" x="350" y="50" text-anchor="middle" dy="0em" style="font-family: 'Open Sans', verdana, arial, sans-serif; font-size: 17px; fill: rgb(42, 63, 95); opacity: 1; font-weight: normal; white-space: pre;"><tspan class="line" dy="0em" x="350" y="50">Scenario 6 Peak Shaving</tspan><tspan class="line" dy="1.3em" x="350" y="50">Grid Meter</tspan><tspan class="line" dy="2.6em" x="350" y="50">From: July 01, 2022 to August 01, 2022</tspan></text></g><g class="g-xtitle"><text class="xtitle" x="350" y="476.409375" text-anchor="middle" style="font-family: 'Open Sans', verdana, arial, sans-serif; font-size: 14px; fill: rgb(42, 63, 95); opacity: 1; font-weight: normal; white-space: pre;">Time</text></g><g class="g-ytitle"><text class="ytitle" transform="rotate(-90,33.840625,260)" x="33.840625" y="260" text-anchor="middle" style="font-family: 'Open Sans', verdana, arial, sans-serif; font-size: 14px; fill: rgb(42, 63, 95); opacity: 1; font-weight: normal; white-space: pre;">Demand (kW)</text></g></g></svg>