<svg class="main-svg" xmlns="http://www.w3.org/2000/svg" xmlns:xlink="http://www.w3.org/1999/xlink" width="700" height="500" style="" viewBox="0 0 700 500"><rect x="0" y="0" width="700" height="500" style="fill: rgb(255, 255, 255); fill-opacity: 1;"/><defs id="defs-c2c92b"><g class="clips"><clipPath id="clipc2c92bxyplot" class="plotclip"><rect width="540" height="320"/></clipPath><clipPath class="axesclip" id="clipc2c92bx"><rect x="80" y="0" width="540" height="500"/></clipPath><clipPath class="axesclip" id="clipc2c92by"><rect x="0" y="100" width="700" height="320"/></clipPath><clipPath class="axesclip" id="clipc2c92bxy"><rect x="80" y="100" width="540" height="320"/></clipPath></g><g class="gradients"/><g class="patterns"/></defs><g class="bglayer"/><g class="layer-below"><g class="imagelayer"/><g class="shapelayer"/></g><g class="cartesianlayer"><g class="subplot xy"><g class="layer-subplot"><g class="shapelayer"/><g class="imagelayer"/></g><g class="minor-gridlayer"><g class="x"/><g class="y"/></g><g class="gridlayer"><g class="x"><path class="xgrid crisp" transform="translate(167.13,0)" d="M0,100v320" style="stroke: rgb(255, 255, 255); stroke-opacity: 1; stroke-width: 1px;"/><path class="xgrid crisp" transform="translate(289.1,0)" d="M0,100v320" style="stroke: rgb(255, 255, 255); stroke-opacity: 1; stroke-width: 1px;"/><path class="xgrid crisp" transform="translate(411.08,0)" d="M0,100v320" style="stroke: rgb(255, 255, 255); stroke-opacity: 1; stroke-width: 1px;"/><path class="xgrid crisp" transform="translate(533.06,0)" d="M0,100v320" style="stroke: rgb(255, 255, 255); stroke-opacity: 1; stroke-width: 1px;"/></g><g class="y"><path class="ygrid crisp" transform="translate(0,411.29)" d="M80,0h540" style="stroke: rgb(255, 255, 255); stroke-opacity: 1; stroke-width: 1px;"/><path class="ygrid crisp" transform="translate(0,374.25)" d="M80,0h540" style="stroke: rgb(255, 255, 255); stroke-opacity: 1; stroke-width: 1px;"/><path class="ygrid crisp" transform="translate(0,337.2)" d="M80,0h540" style="stroke: rgb(255, 255, 255); stroke-opacity: 1; stroke-width: 1px;"/><path class="ygrid crisp" transform="translate(0,300.15999999999997)" d="M80,0h540" style="stroke: rgb(255, 255, 255); stroke-opacity: 1; stroke-width: 1px;"/><path class="ygrid crisp" transform="translate(0,226.07999999999998)" d="M80,0h540" style="stroke: rgb(255, 255, 255); stroke-opacity: 1; stroke-width: 1px;"/><path class="ygrid crisp" transform="translate(0,189.03)" d="M80,0h540" style="stroke: rgb(255, 255, 255); stroke-opacity: 1; stroke-width: 1px;"/><path class="ygrid crisp" transform="translate(0,151.99)" d="M80,0h540" style="stroke: rgb(255, 255, 255); stroke-opacity: 1; stroke-width: 1px;"/><path class="ygrid crisp" transform="translate(0,114.95)" d="M80,0h540" style="stroke: rgb(255, 255, 255); stroke-opacity: 1; stroke-width: 1px;"/></g></g><g class="zerolinelayer"><path class="yzl zl crisp" transform="translate(0,263.12)" d="M80,0h540" style="stroke: rgb(255, 255, 255); stroke-opacity: 1; stroke-width: 2px;"/></g><path class="xlines-below"/><path class="ylines-below"/><g class="overlines-below"/><g class="xaxislayer-below"/><g class="yaxislayer-below"/><g class="overaxes-below"/><g class="plot" transform="translate(80,100)" clip-path="url(#clipc2c92bxyplot)"><g class="scatterlayer mlayer"><g class="trace scatter trace32b7a3" style="stroke-miterlimit: 2; opacity: 0.5;"><g class="fills"/><g class="errorbars"/><g class="lines"><path class="js-line" d="M0,163.41L0.91,163.1L1.09,163.12L2.9,163.11L3.09,180.1L3.99,189.01L4.17,188.83L4.36,188.84L4.54,279.57L4.72,277.24L4.9,283.2L5.08,196.39L6.17,163.02L6.35,163.05L8.71,163.07L8.89,96.15L9.44,49.96L9.8,57.83L9.98,78.11L10.35,163.66L11.07,163.17L11.25,163.3L12.16,163.2L12.34,165.22L12.71,161.12L13.25,163.11L13.43,163.1L15.07,163.12L15.25,167.5L15.61,191.33L16.15,189.65L16.34,189.55L17.61,189.16L17.79,189.42L21.78,188.22L21.96,186.37L22.14,183.54L22.33,279.83L22.51,285.53L22.69,185.14L23.05,163.02L23.6,163.03L23.78,163L24.69,163.04L24.87,165.16L25.23,161.1L25.77,163.06L25.96,163.19L26.5,163.17L26.68,56.58L26.86,48.92L27.23,56.95L27.41,76.59L28.5,164.15L29.22,163.26L29.41,163.18L31.4,163.12L31.58,163.11L33.58,163.12L33.76,169.39L34.31,189.69L34.49,176.54L34.67,175.6L35.03,189.6L35.21,281.56L35.76,189.19L36.12,189.31L36.3,189.23L38.12,188.63L38.3,280.7L38.48,281.37L38.66,189.24L39.39,184.07L39.57,180.07L40.48,163.01L40.66,176.36L40.84,182.63L41.02,161.26L41.2,163.21L41.93,163.07L42.11,163.23L43.2,163.19L43.38,165.12L43.74,163.07L43.93,105.73L44.47,38.27L44.65,41.69L44.83,53.4L47.19,163.21L47.56,163.11L47.74,163.09L53.73,163.12L53.91,166.37L54.45,281.24L54.64,189.74L55.54,188.75L55.72,188.93L56.63,188.37L56.81,186.64L57.18,170.66L57.54,180.38L57.72,189.11L57.9,190.35L58.08,189.33L58.27,280.71L58.45,262.28L58.63,163.29L58.81,227.49L59.35,162.93L59.54,163.02L61.17,163.08L61.35,165.16L61.53,230.4L62.08,198.81L62.26,207.82L62.44,304L62.98,209.25L63.17,212.24L63.35,216.62L63.53,211.2L63.71,203.6L63.89,206.53L64.07,205.19L64.26,194.34L64.44,182.66L64.98,193.54L65.16,191.68L65.89,189.64L66.07,189.66L66.25,190.45L67.34,189.13L67.52,189.29L68.07,188.92L68.43,189.34L68.61,189.31L70.43,189.31L70.61,189.81L71.88,189.1L72.06,189.26L73.51,188.93L73.69,281.05L73.88,281.39L74.06,189.1L75.69,162.74L75.87,163.27L77.14,162.77L77.32,163.73L77.87,162.72L78.05,163.27L78.23,163.35L78.41,163.05L78.59,165.39L79.14,161.05L79.5,163.35L79.68,124.52L79.87,163.97L80.59,163.26L80.77,163.16L84.4,163.12L84.58,163.12L86.94,163.13L87.13,172.56L87.49,189.27L88.03,189.26L88.22,188.64L88.4,188.11L88.94,188.48L89.12,188.45L91.3,188.2L91.48,187.4L91.85,179.95L92.03,266.98L92.21,259.56L92.39,163.49L92.93,163.05L93.12,165.08L93.48,161.02L94.02,163.15L94.21,162.79L94.39,165.15L94.75,161.07L94.93,163.1L95.11,163.12L95.48,163.12L95.66,149.4L95.84,16L96.56,16.15L96.75,17.17L96.93,17.38L97.11,16.73L97.29,16.63L97.65,116.82L98.02,43.89L98.2,58.13L99.65,163.19L100.01,163.1L100.19,163.13L101.1,163.12L101.28,165.16L101.65,161.08L102.19,163.12L102.37,163.12L105.46,163.12L105.64,183.87L105.82,189.04L106.37,187.87L106.55,188.04L107.27,188.34L107.46,188.26L108.18,188.35L108.36,280.36L108.54,280.84L108.73,188.49L109.09,184.87L109.27,180.9L109.63,188.2L109.82,174.17L110.18,163.03L110.72,163.04L110.9,163.03L111.45,163.08L111.63,165.15L111.99,161.08L112.54,163.12L112.72,163.12L112.9,163L113.08,165.16L113.45,161.08L113.81,163.16L113.99,101.13L114.17,49.95L114.9,50.73L115.08,52.15L115.99,93.08L116.17,109.98L117.44,165.16L117.62,163.1L117.8,163.13L117.98,161.08L118.71,163.22L118.89,163.12L119.07,163.12L121.07,163.26L121.25,188.85L125.06,188.1L125.24,188.19L126.33,187.21L126.51,277.22L127.42,164.15L127.6,163.09L129.78,163.12L129.96,163.13L130.14,163.11L130.33,57.14L130.69,114.29L130.87,22.69L131.05,21.68L132.14,30.96L132.32,126.15L132.5,125.53L132.69,133.14L132.87,56.3L133.41,93.58L133.59,113.42L134.32,163.23L134.86,163.12L135.05,163.1L139.58,163.12L139.76,163.12L141.4,163.12L141.58,270.81L142.31,187.45L142.49,188.14L142.67,188.33L143.76,187.04L143.94,184.2L144.48,188.1L145.39,163.04L145.57,163.04L146.66,163.13L146.84,165.15L147.03,161.08L147.57,165.08L147.75,163.12L147.93,161.05L148.11,163.14L148.3,40.57L148.48,22.49L149.2,25.31L149.38,28.41L150.29,60.83L150.47,72.22L151.93,163.18L152.11,163.15L152.29,163.11L153.92,163.1L154.1,165.16L154.47,161.09L155.01,163.12L155.19,163.12L157.37,163.12L157.55,174.5L157.73,190.11L158.46,189.8L158.64,189.81L159.91,189.47L160.09,189.04L160.64,189.37L160.82,281.36L161.55,173.17L161.73,177.43L161.91,185.09L162.09,179.55L162.27,262.7L163.18,161.58L163.91,163.02L164.09,163.08L165.18,163.27L165.36,160.76L165.9,24.05L166.27,29.48L166.45,119.85L166.63,125.63L166.81,47.27L166.99,50.57L167.17,145.76L167.35,135.12L167.54,35.25L168.08,71.98L168.26,162.85L168.63,163.26L168.81,161.13L169.17,163.25L169.71,163.1L169.9,163.11L175.34,163.12L175.52,166.63L175.7,190.42L176.43,190.22L176.61,190.22L177.34,189.82L177.52,281.51L177.7,281.88L177.88,189.53L178.79,185.06L178.97,180.41L179.88,162.98L180.61,163.04L180.79,163.05L182.06,163.11L182.24,165.15L182.6,161.09L182.78,163.14L182.96,66.66L183.15,25.06L183.69,38.53L183.87,44.68L184.6,49.04L184.78,46.09L185.14,54.11L185.32,65.35L187.14,165.13L187.32,163.14L187.5,163.15L187.68,161.1L188.23,163.13L188.41,163.12L190.77,163.12L190.95,163.12L191.31,163.12L191.5,168.89L192.4,189.22L192.58,189.13L194.04,188.24L194.22,188.21L195.85,187.92L196.03,186.33L196.22,183.73L196.4,271.54L196.58,266.61L196.76,166.31L197.67,163.03L197.85,163.04L199.48,163.12L199.66,75.14L200.03,23.7L200.21,113.94L200.57,30.49L200.75,33.08L201.12,126.9L201.48,37.22L201.66,37.07L201.84,36.16L202.02,131.01L202.21,133.52L202.39,45.27L204.2,163.24L204.56,163.09L204.75,163.12L210.74,163.12L210.92,165.15L211.1,238.43L211.64,188.52L211.83,188.47L213.1,188.37L213.28,188.45L214,187.82L214.18,185.93L214.37,274.93L214.73,171.57L214.91,163.65L215.82,163.08L216,162.99L217.63,163.14L217.82,85.69L218.54,28.39L218.72,117.33L219.09,122.91L219.27,28.7L219.45,27.67L219.63,32.66L220.17,30.67L220.36,37.42L221.45,110.85L221.63,125.73L222.53,163.16L222.72,163.13L222.9,163.11L228.89,163.12L229.07,221.82L229.98,188.64L230.16,188.63L231.25,188.14L231.43,194.77L231.61,205.21L231.79,298.93L231.97,293.41L232.15,193.17L233.61,163.03L233.79,163.08L234.88,163.12L235.06,165.14L235.6,161.12L235.97,163.1L236.15,163.18L236.51,163.07L236.69,109.24L237.06,47.13L237.6,49.96L237.78,61.28L239.6,163.25L239.78,163.16L239.96,163.15L241.96,163.12L242.14,165.15L242.5,161.07L243.05,163.12L243.23,163.13L244.13,163.12L244.32,171.42L244.5,190.51L245.22,189.68L245.41,189.44L246.49,188.66L246.68,188.9L246.86,281.2L247.76,188.83L247.95,188.82L248.67,188.53L248.85,190.04L249.4,202.07L249.58,195.4L249.76,184.5L249.94,261.1L250.31,163.03L250.49,204.72L250.67,209.84L251.21,161.41L251.76,163.04L251.94,163.14L252.85,163.1L253.03,165.08L253.39,161.12L253.57,163.12L253.75,149.46L253.94,133.2L254.48,140.81L254.66,50.09L255.03,49.98L255.21,55.78L255.39,71.69L256.11,138.58L256.3,164.72L256.66,161.07L257.02,163.15L257.2,163.24L258.47,163.12L258.66,163.11L260.29,163.11L260.47,184.45L260.65,190.87L261.38,190.37L261.56,189.58L262.47,189.49L262.65,189.63L263.19,189.21L263.37,188.71L264.1,188.95L264.28,188.69L264.83,188.9L265.01,280.72L265.55,281.54L265.92,188.75L266.1,188.53L266.28,193.93L266.46,295.96L266.64,298.44L266.82,200.45L267.37,188.99L267.55,173.4L268.28,163L268.46,163.03L268.64,165L269,161.01L269.36,163.09L269.55,165.19L270.45,161.13L270.64,163.15L271.36,163.21L271.54,165.15L272.09,160.96L272.45,163.1L272.63,163.21L273.18,163.2L273.36,118.13L274.08,154.94L274.27,163.01L275.17,163.12L275.35,163.06L278.44,163.12L278.62,163.12L279.17,163.12L279.35,179.85L280.07,189.61L280.26,189.12L280.44,189.18L281.16,188.91L281.34,281.22L282.25,188.73L282.43,189.34L283.52,188.57L283.7,193.68L284.07,206.97L284.43,194.44L284.61,182.99L284.97,163.02L285.52,163.03L285.7,163.06L287.7,163.08L287.88,165.23L288.06,163.07L288.24,134.09L288.42,43.09L288.97,136.32L289.15,133.76L289.33,48.44L289.88,55.89L290.06,63.78L290.78,92.87L290.96,119.31L291.87,163.2L292.24,163.13L292.42,163.14L295.14,163.11L295.32,163.13L297.86,163.11L298.04,173.91L298.23,189.79L298.95,189.36L299.13,189.22L300.22,189.26L300.4,189.05L300.77,189.32L300.95,189.03L301.13,282.13L301.31,289.55L301.49,203.7L301.86,193.2L302.04,180.29L302.58,163.03L302.94,165.08L303.13,161.02L304.22,165.09L304.4,163.17L304.58,161.06L305.12,163.15L305.3,165.16L305.67,161.05L305.85,163.16L306.03,133.34L306.21,38.81L306.94,48.19L307.12,51.36L307.3,49.2L307.48,51.75L307.66,66.57L309.48,163.2L309.84,163.08L310.02,163.17L311.84,163.13L312.02,163.09L314.38,163.12L314.56,163.11L315.83,163.54L316.01,189.41L316.19,281.55L316.74,189.24L316.92,189.24L317.83,188.85L318.01,189.56L318.37,189.09L318.55,190.05L318.92,181.25L319.1,171.51L319.46,163.07L319.64,212.56L319.83,238.98L320.01,162.82L320.19,163.11L320.37,163.17L320.55,164.93L320.91,161.18L321.46,163.06L321.64,163.15L322.55,163.12L322.73,147.66L322.91,26.02L323.64,29.69L323.82,35.21L324,39.69L324.36,32.71L324.54,32.92L325.09,67.81L325.27,104.19L325.45,164.1L326.18,163.15L326.36,161.17L327.27,163.15L327.45,163.13L331.26,163.14L331.44,178.48L331.81,190.36L332.35,189.74L332.53,189.46L332.89,190.65L333.26,189.51L333.44,189.56L333.98,188.85L334.35,189.12L334.53,281.25L335.25,188.7L335.44,188.96L335.62,189.22L335.8,189.3L335.98,190.49L337.07,162.87L337.25,163.25L337.43,163.08L337.61,163.22L337.79,165.14L337.98,185.55L338.16,161.39L338.34,163.31L338.52,162.76L340.15,163.12L340.34,163.14L340.7,27.71L341.24,37.36L341.43,37.76L341.61,33.1L342.15,36.17L342.33,126.72L342.51,132.58L342.7,51.86L343.97,164.86L344.69,163.09L344.87,163.12L349.59,163.12L349.77,181.96L349.96,189.44L350.68,189.32L350.86,189.24L352.5,188.77L352.68,281.05L353.22,188.39L353.41,197.61L353.59,206.2L354.86,163.03L355.04,163.06L355.22,165.07L355.4,161L355.95,165.1L356.13,163.17L356.31,163.05L356.49,161.04L356.67,165.19L357.22,163.13L357.4,163.09L358.31,163.1L358.49,148.75L358.67,36.83L359.39,43.23L359.58,134.7L359.76,132.86L359.94,137.6L360.12,148.96L360.3,67.78L360.85,114.15L361.03,129.85L361.75,163.18L362.12,163.17L362.3,163.09L365.2,163.14L365.38,163.09L368.11,163.12L368.29,177.88L368.47,189.74L369.2,189.34L369.38,281.68L370.29,189.11L370.47,189.43L370.65,189.31L370.83,197.83L371.01,207.62L371.37,202.82L371.56,192.64L372.1,163.02L372.46,163.03L372.65,165.09L372.83,167.25L373.01,179.76L373.19,161.24L373.92,163.09L374.1,163.19L375.19,163.11L375.37,163.12L375.55,163.07L375.73,66.84L376.09,43.72L376.46,48.89L376.64,49.9L376.82,49.98L377,51.57L377.36,56.59L377.55,67.11L378.64,164.82L379.36,163.18L379.54,163.1L383.35,163.13L383.54,170.69L383.9,191.68L384.44,189.75L384.63,191.03L385.17,191.35L385.71,189.58L385.9,189.58L386.08,189.2L386.62,189.64L386.8,189.59L388.07,189.24L388.26,286.36L389.16,176.19L389.34,163.61L389.53,163.04L389.71,207.44L389.89,214.23L390.07,162.23L390.98,163.11L391.16,163.12L391.7,163.09L391.89,165.23L392.25,161.12L392.79,163.11L392.97,163.12L393.16,158.88L393.34,57.37L393.7,155.52L394.06,63.25L394.25,63.65L394.79,162.59L394.97,96.25L395.15,97.29L396.42,163.21L396.79,163.19L396.97,163.15L398.78,163.14L398.96,163.1L401.51,163.13L401.69,172L402.41,191.63L402.59,189.5L402.78,189.79L402.96,189.92L403.32,189.36L403.5,189.31L403.68,281.49L404.23,189.17L404.41,189.42L404.59,189.35L404.77,281.44L404.95,282L405.14,190.08L405.5,188.89L405.68,281.43L405.86,280.56L406.04,183.65L406.41,165.46L406.59,241.26L406.77,230.27L406.95,162.65L407.86,163.19L408.04,163.04L408.22,165.14L408.58,161.06L408.77,163.19L408.95,163.02L409.13,163.2L409.31,165.17L409.86,161.08L410.22,163.17L410.4,163.11L410.58,163.15L410.76,161.14L411.13,163.14L411.31,163.09L411.49,106.6L412.03,157.32L412.22,74.98L413.85,163.21L414.21,163.13L414.39,163.19L415.66,163.11L415.85,163.12L419.84,163.11L420.02,166.41L420.2,190.57L420.93,189.52L421.11,189.34L422.56,189.31L422.74,188.93L422.92,188.88L423.11,193.67L423.47,202.54L423.65,195.24L423.83,184.98L424.38,163.01L424.74,163.02L424.92,163.08L425.1,163.07L425.28,165.13L425.65,161L426.19,163.18L426.37,163.07L427.28,163.1L427.46,165.17L427.83,161.09L428.01,163.09L428.19,138.56L428.37,55.18L428.91,63.29L429.1,69.77L429.46,76.73L429.64,91.32L430.37,127.45L430.55,143.85L431.46,163.22L431.64,163.14L436.17,163.14L436.36,163.12L436.54,167.27L436.72,190.25L437.26,189.54L437.45,190.2L437.63,190.26L437.99,190.41L438.17,189.59L439.26,189.39L439.44,189.36L440.17,189.14L440.35,281.29L441.08,289.97L441.26,182.55L441.44,164.47L441.98,162.84L442.16,165.03L442.53,161.01L443.07,163.12L443.25,163.09L444.52,163.14L444.71,165.11L444.89,163.16L445.07,63.47L445.25,46.19L445.79,49.08L445.98,55.18L446.52,59.48L446.7,51.89L446.88,47.65L447.07,60.05L447.25,67.95L449.06,163.21L449.24,163.14L449.43,163.12L454.51,163.11L454.69,176.87L455.6,190.43L455.78,190.21L456.69,189.62L456.87,281.76L457.05,281.84L457.23,189.91L457.41,189.46L457.59,281.64L458.5,163.07L458.68,163.03L458.86,163.09L459.05,171.03L459.23,194.04L459.41,161.58L459.59,165.07L459.77,163.13L460.32,163.17L460.5,160.92L461.22,165.19L461.41,163.1L461.59,161.12L462.49,163.19L462.68,140.22L463.58,37.02L463.76,40.64L464.85,65.48L465.04,72.39L466.31,163.2L466.85,163.14L467.03,163.11L473.2,163.13L473.38,165.6L473.75,281.5L473.93,189.8L474.66,189.05L474.84,189.29L475.02,189.31L475.2,189.14L475.38,191.83L475.56,292.18L476.11,190.67L476.29,183.21L476.47,168.69L476.65,178.66L476.83,205.29L477.02,192.64L477.2,233.09L477.56,162.87L478.29,163.65L478.47,163.32L479.01,162.91L479.19,163.26L479.37,238.1L479.56,270.63L479.74,166.2L479.92,171.02L480.1,265.97L480.65,162.73L481.37,162.91L481.55,162.62L482.46,163.39L482.64,163.09L483.55,163.17L483.73,163.04L485.91,163.13L486.09,163.11L487.18,163.12L487.36,188.13L487.91,189.19L488.27,189.05L488.45,189.06L491.72,188.64L491.9,280.81L492.44,188.52L492.81,194.67L492.99,205.44L493.17,208.44L493.35,204.2L493.53,192.82L493.71,261.69L493.9,163.44L494.08,178.1L494.26,179.08L494.8,162.9L495.17,163.35L495.35,162.76L496.44,163.06L496.62,165.5L497.16,161.15L497.53,163.11L497.71,163.66L498.25,162.61L498.62,163.19L498.8,163.16L499.16,163.33L499.34,163L499.52,142.95L499.89,43.73L500.25,124.98L500.43,130.67L500.61,114.52L500.97,140.64L501.16,160.78L501.34,163.2L502.06,163.12L502.25,163.12L507.87,163.12L508.05,276.48L508.42,188.69L508.78,281.09L508.96,281.64L509.87,188.77L510.05,187.73L510.23,188.55L510.41,194.89L510.59,194.73L510.78,187.59L510.96,275.13L511.32,163.53L511.5,162.96L511.87,163.11L512.05,165.12L512.41,161.03L512.95,163.07L513.14,163.11L514.23,163.15L514.41,126.17L515.13,34.88L515.31,121.76L515.5,122.68L515.68,31.1L516.04,40.24L516.22,36.76L516.4,132.28L516.58,151.24L516.77,81.66L518.04,163.02L518.22,163.06L519.31,163.14L519.49,163.12L524.93,163.11L525.12,173.61L525.66,189.16L526.02,188.67L526.21,188.86L526.39,189.76L526.93,189.11L527.11,188.93L527.48,188.7L527.66,282.63L527.84,292.04L528.02,208.01L528.38,197.95L528.56,278.64L528.75,265.33L528.93,164.41L529.47,162.91L529.65,165.29L530.02,226.95L530.2,162.8L530.38,163.01L530.56,163.09L533.47,163.16L533.65,162.96L534.74,163.2L534.92,162.85L535.28,163.46L535.83,163.15L536.01,163.14L537.1,163.13L537.28,165.17L537.82,161.08L538.18,163.12L538.37,163.12L538.73,163.13L538.91,174.29L539.64,191.47L539.82,190.77L540,189.5" style="vector-effect: non-scaling-stroke; fill: none; stroke: rgb(0, 191, 255); stroke-opacity: 1; stroke-width: 2px; opacity: 1;"/></g><g class="points"/><g class="text"/></g></g></g><g class="overplot"/><path class="xlines-above crisp" d="M0,0" style="fill: none;"/><path class="ylines-above crisp" d="M0,0" style="fill: none;"/><g class="overlines-above"/><g class="xaxislayer-above"><g class="xtick"><text text-anchor="middle" x="0" y="433" transform="translate(167.13,0)" style="font-family: 'Open Sans', verdana, arial, sans-serif; font-size: 12px; fill: rgb(42, 63, 95); fill-opacity: 1; white-space: pre; opacity: 1;"><tspan class="line" dy="0em" x="0" y="433">Mar 6</tspan><tspan class="line" dy="1.3em" x="0" y="433">2022</tspan></text></g><g class="xtick"><text text-anchor="middle" x="0" y="433" style="font-family: 'Open Sans', verdana, arial, sans-serif; font-size: 12px; fill: rgb(42, 63, 95); fill-opacity: 1; white-space: pre; opacity: 1;" transform="translate(289.1,0)">Mar 13</text></g><g class="xtick"><text text-anchor="middle" x="0" y="433" style="font-family: 'Open Sans', verdana, arial, sans-serif; font-size: 12px; fill: rgb(42, 63, 95); fill-opacity: 1; white-space: pre; opacity: 1;" transform="translate(411.08,0)">Mar 20</text></g><g class="xtick"><text text-anchor="middle" x="0" y="433" style="font-family: 'Open Sans', verdana, arial, sans-serif; font-size: 12px; fill: rgb(42, 63, 95); fill-opacity: 1; white-space: pre; opacity: 1;" transform="translate(533.06,0)">Mar 27</text></g></g><g class="yaxislayer-above"><g class="ytick"><text text-anchor="end" x="79" y="4.199999999999999" transform="translate(0,411.29)" style="font-family: 'Open Sans', verdana, arial, sans-serif; font-size: 12px; fill: rgb(42, 63, 95); fill-opacity: 1; white-space: pre; opacity: 1;">−80</text></g><g class="ytick"><text text-anchor="end" x="79" y="4.199999999999999" style="font-family: 'Open Sans', verdana, arial, sans-serif; font-size: 12px; fill: rgb(42, 63, 95); fill-opacity: 1; white-space: pre; opacity: 1;" transform="translate(0,374.25)">−60</text></g><g class="ytick"><text text-anchor="end" x="79" y="4.199999999999999" style="font-family: 'Open Sans', verdana, arial, sans-serif; font-size: 12px; fill: rgb(42, 63, 95); fill-opacity: 1; white-space: pre; opacity: 1;" transform="translate(0,337.2)">−40</text></g><g class="ytick"><text text-anchor="end" x="79" y="4.199999999999999" style="font-family: 'Open Sans', verdana, arial, sans-serif; font-size: 12px; fill: rgb(42, 63, 95); fill-opacity: 1; white-space: pre; opacity: 1;" transform="translate(0,300.15999999999997)">−20</text></g><g class="ytick"><text text-anchor="end" x="79" y="4.199999999999999" style="font-family: 'Open Sans', verdana, arial, sans-serif; font-size: 12px; fill: rgb(42, 63, 95); fill-opacity: 1; white-space: pre; opacity: 1;" transform="translate(0,263.12)">0</text></g><g class="ytick"><text text-anchor="end" x="79" y="4.199999999999999" style="font-family: 'Open Sans', verdana, arial, sans-serif; font-size: 12px; fill: rgb(42, 63, 95); fill-opacity: 1; white-space: pre; opacity: 1;" transform="translate(0,226.07999999999998)">20</text></g><g class="ytick"><text text-anchor="end" x="79" y="4.199999999999999" style="font-family: 'Open Sans', verdana, arial, sans-serif; font-size: 12px; fill: rgb(42, 63, 95); fill-opacity: 1; white-space: pre; opacity: 1;" transform="translate(0,189.03)">40</text></g><g class="ytick"><text text-anchor="end" x="79" y="4.199999999999999" style="font-family: 'Open Sans', verdana, arial, sans-serif; font-size: 12px; fill: rgb(42, 63, 95); fill-opacity: 1; white-space: pre; opacity: 1;" transform="translate(0,151.99)">60</text></g><g class="ytick"><text text-anchor="end" x="79" y="4.199999999999999" style="font-family: 'Open Sans', verdana, arial, sans-serif; font-size: 12px; fill: rgb(42, 63, 95); fill-opacity: 1; white-space: pre; opacity: 1;" transform="translate(0,114.95)">80</text></g></g><g class="overaxes-above"/></g></g><g class="polarlayer"/><g class="smithlayer"/><g class="ternarylayer"/><g class="geolayer"/><g class="funnelarealayer"/><g class="pielayer"/><g class="iciclelayer"/><g class="treemaplayer"/><g class="sunburstlayer"/><g class="glimages"/><defs id="topdefs-c2c92b"><g class="clips"/></defs><g class="layer-above"><g class="imagelayer"/><g class="shapelayer"/></g><g class="infolayer"><g class="g-gtitle"><text class="gtitle" x="350" y="50" text-anchor="middle" dy="0em" style="font-family: 'Open Sans', verdana, arial, sans-serif; font-size: 17px; fill: rgb(42, 63, 95); opacity: 1; font-weight: normal; white-space: pre;"><tspan class="line" dy="0em" x="350" y="50">Scenario 5</tspan><tspan class="line" dy="1.3em" x="350" y="50">Microgrid Output</tspan><tspan class="line" dy="2.6em" x="350" y="50">From: March 01, 2022 to March 31, 2022</tspan></text></g><g class="g-xtitle"><text class="xtitle" x="350" y="476.409375" text-anchor="middle" style="font-family: 'Open Sans', verdana, arial, sans-serif; font-size: 14px; fill: rgb(42, 63, 95); opacity: 1; font-weight: normal; white-space: pre;">Time</text></g><g class="g-ytitle"><text class="ytitle" transform="rotate(-90,33.840625,260)" x="33.840625" y="260" text-anchor="middle" style="font-family: 'Open Sans', verdana, arial, sans-serif; font-size: 14px; fill: rgb(42, 63, 95); opacity: 1; font-weight: normal; white-space: pre;">Demand (kW)</text></g></g></svg>