<svg class="main-svg" xmlns="http://www.w3.org/2000/svg" xmlns:xlink="http://www.w3.org/1999/xlink" width="700" height="500" style="" viewBox="0 0 700 500"><rect x="0" y="0" width="700" height="500" style="fill: rgb(255, 255, 255); fill-opacity: 1;"/><defs id="defs-8f25c9"><g class="clips"><clipPath id="clip8f25c9xyplot" class="plotclip"><rect width="540" height="320"/></clipPath><clipPath class="axesclip" id="clip8f25c9x"><rect x="80" y="0" width="540" height="500"/></clipPath><clipPath class="axesclip" id="clip8f25c9y"><rect x="0" y="100" width="700" height="320"/></clipPath><clipPath class="axesclip" id="clip8f25c9xy"><rect x="80" y="100" width="540" height="320"/></clipPath></g><g class="gradients"/><g class="patterns"/></defs><g class="bglayer"/><g class="layer-below"><g class="imagelayer"/><g class="shapelayer"/></g><g class="cartesianlayer"><g class="subplot xy"><g class="layer-subplot"><g class="shapelayer"/><g class="imagelayer"/></g><g class="minor-gridlayer"><g class="x"/><g class="y"/></g><g class="gridlayer"><g class="x"><path class="xgrid crisp" transform="translate(157.17000000000002,0)" d="M0,100v320" style="stroke: rgb(255, 255, 255); stroke-opacity: 1; stroke-width: 1px;"/><path class="xgrid crisp" transform="translate(292.22,0)" d="M0,100v320" style="stroke: rgb(255, 255, 255); stroke-opacity: 1; stroke-width: 1px;"/><path class="xgrid crisp" transform="translate(427.27,0)" d="M0,100v320" style="stroke: rgb(255, 255, 255); stroke-opacity: 1; stroke-width: 1px;"/><path class="xgrid crisp" transform="translate(562.3199999999999,0)" d="M0,100v320" style="stroke: rgb(255, 255, 255); stroke-opacity: 1; stroke-width: 1px;"/></g><g class="y"><path class="ygrid crisp" transform="translate(0,343.57)" d="M80,0h540" style="stroke: rgb(255, 255, 255); stroke-opacity: 1; stroke-width: 1px;"/><path class="ygrid crisp" transform="translate(0,171.92000000000002)" d="M80,0h540" style="stroke: rgb(255, 255, 255); stroke-opacity: 1; stroke-width: 1px;"/></g></g><g class="zerolinelayer"><path class="yzl zl crisp" transform="translate(0,257.74)" d="M80,0h540" style="stroke: rgb(255, 255, 255); stroke-opacity: 1; stroke-width: 2px;"/></g><path class="xlines-below"/><path class="ylines-below"/><g class="overlines-below"/><g class="xaxislayer-below"/><g class="yaxislayer-below"/><g class="overaxes-below"/><g class="plot" transform="translate(80,100)" clip-path="url(#clip8f25c9xyplot)"><g class="scatterlayer mlayer"><g class="trace scatter traceb0cf51" style="stroke-miterlimit: 2; opacity: 0.5;"><g class="fills"/><g class="errorbars"/><g class="lines"><path class="js-line" d="M0,178.85L0.2,177.13L0.6,179.41L0.8,177.95L1,177.2L1.21,176.93L1.61,177.29L1.81,177.69L2.21,178.6L2.61,177.75L2.81,177.53L3.22,176.93L3.42,176.46L4.02,177.7L4.22,177.08L4.42,176.66L4.62,176.81L4.82,263.81L5.02,265.27L5.23,178.75L5.43,175.69L5.63,183.66L5.83,193.33L6.03,273.93L6.43,166.74L6.63,161.29L7.44,157.68L7.64,157.68L8.24,157.63L8.44,159.54L8.84,155.81L9.24,157.73L9.45,157.74L10.25,157.75L10.45,63.08L10.65,27.44L11.25,40.01L11.46,43.92L12.66,116.02L12.86,158.76L13.26,155.93L13.46,157.81L13.67,157.75L18.29,157.75L18.49,185.24L18.89,198.42L19.29,197.86L19.49,187.77L20.3,177.21L20.5,177.47L20.9,178.35L21.3,177.72L21.5,177.09L23.11,178.54L23.31,178.23L23.51,263.12L23.71,263.12L23.92,177.18L24.12,177.02L24.32,177.39L24.52,182.4L24.92,193.87L25.12,191.63L25.32,183.1L25.72,165.29L25.92,237.14L26.13,157.63L26.73,157.71L26.93,157.68L28.34,157.79L28.54,159.6L28.74,155.75L29.34,157.78L29.54,157.8L31.35,157.89L31.55,159.57L32.15,155.92L32.36,157.89L32.56,157.82L34.97,157.73L35.17,157.75L38.79,157.74L38.99,160.99L39.19,178.9L39.79,177.49L39.99,177.65L41.4,177.18L41.6,177.72L42,176.97L42.2,178.16L42.4,178.28L43.01,177.08L43.21,176.44L44.01,188.97L44.21,183.13L44.41,165.83L45.02,157.69L45.22,220.08L45.42,224.46L45.62,157.77L46.02,157.77L46.22,206.95L46.42,157.68L47.03,157.81L47.23,180.33L47.43,180.99L47.63,155.77L48.43,159.59L48.63,157.97L48.84,155.89L49.24,157.94L49.44,157.62L50.04,157.88L50.24,159.56L50.64,155.91L51.05,157.83L51.25,157.85L51.45,159.73L51.85,157.74L52.05,155.81L52.85,157.74L53.06,157.75L53.26,157.75L53.46,180.53L53.66,205.3L54.26,189.96L54.46,188.84L55.07,197.56L55.47,196.55L55.67,195.62L56.47,195.05L56.67,195.2L56.87,195.32L57.48,195.99L57.68,195.5L57.88,185.64L58.08,177.07L58.68,178.57L58.88,177.76L59.89,176.2L60.09,176.44L60.29,177.04L61.09,176.37L61.3,177.3L61.5,177.73L61.7,176.67L61.9,261.78L62.1,263.24L62.3,179.32L63.3,174.75L63.51,171.94L64.51,157.65L64.71,157.72L64.91,157.76L66.72,157.73L66.92,157.69L67.53,157.75L67.73,115.35L68.33,145.28L68.53,66.66L68.73,67.02L68.93,56.86L69.13,57.25L69.33,68.06L69.94,93.11L70.14,158.23L70.74,155.93L70.94,157.82L79.38,157.74L79.58,158.66L80.39,176.91L80.59,177.1L80.79,176.54L81.39,176.92L81.59,177.5L82.8,175.73L83,171.6L84,157.68L84.21,157.8L85.01,157.72L85.21,159.54L85.61,155.95L86.01,157.9L86.22,157.86L86.82,157.72L87.02,160.03L87.42,155.95L87.82,157.81L88.02,157.48L88.22,157.99L88.83,157.55L89.03,106.5L89.23,57.11L89.63,88.87L89.83,110.88L90.84,159.66L91.04,157.74L91.24,157.75L91.44,155.86L91.84,157.75L92.04,157.74L95.06,157.75L95.26,191.02L95.46,198.49L96.06,198.21L96.26,197.87L96.46,197.19L96.67,189.12L97.47,177.2L97.67,177.41L98.07,178.38L98.27,177.64L98.47,177.48L99.28,178.27L99.48,179.4L100.08,176.46L100.68,176.94L100.89,176.39L101.49,176.71L101.69,181.27L102.09,193.64L102.49,184.08L102.69,256.36L103.3,157.66L103.5,157.7L103.7,157.69L105.31,157.72L105.51,159.71L105.91,155.81L106.11,157.69L106.31,159.63L106.91,157.77L107.12,82.1L107.32,27.8L107.92,45.81L108.12,53.83L109.53,158.95L110.13,157.79L110.33,157.75L114.95,157.75L115.15,181.24L115.96,198.06L116.16,188.13L116.96,178.24L117.16,178.07L117.37,178.4L117.57,177.61L117.77,176.88L118.57,177.98L118.77,262.53L119.17,176.73L119.58,177.71L119.78,178.09L120.18,178.58L120.38,177.67L120.58,177.33L120.78,177.78L120.98,180.22L121.38,193.14L121.59,191.07L121.79,182.16L121.99,168.36L122.19,247.57L122.39,159.39L122.99,212.28L123.19,157.21L124.2,157.69L124.4,157.67L125.2,157.71L125.4,159.62L126.21,155.86L126.41,157.76L126.61,157.84L126.81,157.24L127.01,67.93L129.22,157.82L129.42,157.78L129.62,159.63L130.03,157.73L130.23,155.86L131.03,157.74L131.23,157.65L133.04,157.78L133.24,159.64L133.44,195.92L134.05,176.88L134.25,176.85L135.25,178.52L135.45,178.14L135.65,177.36L136.06,177.75L136.46,177.13L136.66,177L137.06,176.75L137.46,177.23L137.66,177.47L138.47,176.43L138.67,177.18L139.07,178.07L139.27,177.76L139.47,176.72L140.28,174.73L140.48,174.84L140.68,183.27L140.88,189.94L141.08,184.88L141.28,173.89L141.48,252.52L141.88,157.67L142.08,157.71L143.89,157.71L144.09,159.61L144.29,155.83L144.9,157.73L145.1,157.74L145.3,157.79L145.5,159.64L145.9,155.88L146.1,122.82L146.3,70.15L146.71,157.8L146.91,157.81L147.11,156.03L147.31,157.86L147.51,157.81L147.71,157.79L148.92,157.72L149.12,159.57L149.72,155.85L149.92,157.76L150.12,157.73L151.33,157.74L151.53,185.61L151.73,201.05L152.33,197.74L152.53,198.18L153.94,197.3L154.14,197.38L154.95,197.02L155.15,197.66L155.75,197.77L155.95,198.36L156.55,196.92L156.75,273.33L157.56,177L157.76,176.36L158.97,176.67L159.17,176.18L159.57,175.87L159.77,177.86L160.17,190.55L160.37,181.43L160.57,170.18L161.18,157.66L161.78,157.7L161.98,157.69L162.98,157.68L163.19,159.57L164.19,155.89L164.39,157.77L164.79,157.76L164.99,159.74L165.8,155.9L166,157.79L170.62,157.75L170.82,157.74L172.03,157.75L172.23,164.56L172.43,177.58L173.03,177.09L173.23,177.37L173.64,177.66L173.84,177.27L174.04,176.95L174.84,177.75L175.04,178.29L175.24,178.24L175.44,177.15L176.25,177.4L176.45,177.9L177.25,176.49L177.45,177.04L177.66,177.97L178.26,176.47L178.46,176.69L178.66,177.31L178.86,178.13L179.06,185.3L179.26,277.81L179.67,178.57L179.87,166.16L180.27,157.65L180.67,157.77L180.87,157.73L181.47,157.67L181.67,159.54L182.08,155.82L182.48,157.72L182.68,157.75L183.48,157.83L183.68,159.55L184.29,156.02L184.49,157.58L184.69,141.36L184.89,61.46L185.49,96.04L185.69,104.07L186.1,117.34L186.3,158.66L187.1,155.89L187.3,157.76L192.33,157.75L192.53,160.65L193.33,177.47L193.53,177.45L194.34,177.42L194.54,177.59L195.74,177.39L195.94,177.53L196.55,177.3L196.75,262.67L197.15,176.77L197.55,177.15L197.75,177.19L197.95,177.51L198.15,176.89L198.36,176L198.56,259.84L198.96,159.41L199.16,228.85L199.36,234.01L199.76,156.84L200.36,157.68L200.57,155.8L201.37,158.44L201.57,157L202.37,157.74L202.58,157.72L202.78,157.8L202.98,67.35L203.18,72.75L203.38,70.66L203.58,21.14L203.78,16L203.98,75.58L204.18,98.29L204.38,66.15L204.59,37.59L205.59,157.75L205.79,157.73L205.99,157.77L207.6,157.74L207.8,159.63L208.4,155.86L208.6,157.74L208.81,157.75L213.03,157.75L213.23,168.03L213.63,178.34L214.03,177.12L214.23,176.54L214.43,176.39L214.63,176.68L214.83,177.76L215.04,177.93L215.24,177.16L215.44,176.6L215.64,176.43L215.84,177.31L216.04,177.98L216.24,177.22L216.44,176.49L217.05,177.08L217.25,176.16L217.65,173.44L217.85,169.6L218.25,157.68L218.45,225.21L218.65,228.41L218.85,157.72L219.26,199.89L219.46,157.11L219.66,157.73L219.86,159.14L220.26,157.85L220.46,155.76L220.86,159.67L221.27,157.82L221.47,155.74L222.27,159.63L222.47,157.76L222.67,157.73L222.87,155.88L223.28,157.79L223.48,157.74L223.68,157.96L223.88,157.69L224.08,108.87L224.68,152.33L225.08,145.2L225.28,145.18L225.89,157.82L226.49,157.74L226.69,157.74L235.33,157.74L235.53,165.24L236.34,177.32L236.54,177.22L236.74,181.98L236.94,275.39L237.14,276.21L237.34,180.28L237.54,261.34L237.95,158.7L238.15,157.65L239.35,157.69L239.55,159.67L239.96,155.79L240.36,157.9L240.56,158.1L240.76,157.41L240.96,159.5L241.56,155.98L241.76,157.65L241.97,157.75L242.17,157.45L242.57,157.95L242.77,158.07L243.37,157.62L243.57,158.5L243.97,155.79L244.18,157.84L250.41,157.75L250.61,184.8L251.21,179.53L251.61,180.09L251.81,180.38L252.01,180.4L252.21,169.25L252.42,168.81L252.62,180.21L253.22,179.59L253.42,169.14L253.82,157.74L254.02,243.1L254.43,157.74L254.63,243.1L254.83,243.57L255.63,157.74L255.83,168.1L256.23,179.33L256.43,175.79L256.64,168.12L256.84,164.03L257.04,168.98L257.24,182.1L257.64,205.03L258.04,193.5L258.24,170.47L258.44,157.59L259.05,157.78L259.25,157.56L261.66,157.77L261.86,158.75L262.06,157.22L262.66,157.79L262.87,157.78L264.88,157.74L265.08,198.78L265.28,202.16L265.48,286.87L265.68,292.28L265.88,215.8L267.09,169.15L267.29,266.42L267.49,267.22L267.69,266.86L267.89,180.57L268.29,178.66L268.69,179.81L268.89,169.13L269.1,167.97L269.3,178.9L269.7,180.05L269.9,179.58L270.1,178.71L270.5,179.24L270.7,180.01L271.11,168.36L271.31,179.4L271.51,179.95L271.71,180.41L271.91,179.6L272.11,178.88L272.51,179.45L272.71,169.06L273.52,157.74L273.72,157.74L273.92,157.74L274.12,243.1L274.32,243.57L274.52,158.22L275.12,157.74L275.33,166.02L275.53,174.76L275.73,173.25L275.93,251.77L276.33,227.45L276.53,157.49L276.93,158.02L277.13,159.3L277.34,166.31L277.54,156.75L277.74,157.24L277.94,157.69L278.54,158.33L278.74,157.17L279.34,159.64L279.55,157.74L279.75,157.74L279.95,155.86L280.75,157.74L280.95,157.74L281.96,157.74L282.16,159.22L282.76,155.93L282.96,157.84L283.16,157.83L283.97,157.77L284.17,191.37L284.57,210.65L284.97,201.93L285.17,199.49L285.37,199.49L285.57,195.35L286.78,172.71L286.98,187.78L287.79,187.69L287.99,187.75L288.39,187.25L288.59,172.81L288.79,167.35L288.99,177.82L289.19,177.82L289.59,176.98L290,177.62L290.2,177.45L291.2,157.74L291.4,157.74L292.01,157.74L292.21,243.1L293.01,243.57L293.21,158.22L293.61,157.74L293.81,167.73L294.02,168.18L294.22,166.56L295.02,189.89L295.22,182.91L295.42,171.25L296.23,157.67L296.43,157.66L298.03,157.77L298.24,157.78L298.64,157.64L298.84,159.62L299.24,157.73L299.64,157.82L299.84,157.8L300.25,157.72L300.45,156.05L301.25,157.88L301.45,157.8L301.85,157.21L302.05,158.2L303.06,157.75L303.26,157.74L303.46,157.4L303.66,158.08L303.86,157.68L304.06,159.55L304.67,155.82L304.87,188L305.07,191.08L305.27,174.82L305.67,180.4L306.48,157.74L306.68,157.74L307.88,157.74L308.08,167.9L308.69,178.83L308.89,178.8L309.09,178.49L309.69,178.08L309.89,178.95L310.09,180L310.49,178.28L310.7,177.85L311.1,178.99L311.3,264.1L311.5,263.81L311.7,178.42L312.1,178.18L312.3,264.07L312.91,167.58L313.11,177.8L313.31,178.3L313.51,178.35L313.71,177.51L314.11,189.73L314.31,181.74L314.51,174.49L315.32,157.69L315.52,157.72L315.72,157.73L317.33,157.74L317.53,157.97L317.73,158.03L317.93,157.25L318.73,159.64L318.94,157.74L319.14,155.86L319.54,157.74L319.74,157.74L319.94,159.63L320.34,157.74L320.54,155.86L321.35,157.82L321.55,157.82L322.75,157.74L322.95,160.94L323.36,210.96L323.76,210.72L323.96,211.08L324.36,198.23L324.56,191.13L324.76,191.33L324.96,188.8L325.97,178.56L326.17,179.24L326.37,179.84L326.57,178.95L326.77,178.32L327.58,179.23L327.78,179.04L327.98,178.22L328.38,177.74L328.58,180.21L328.98,199.15L329.39,196.15L329.59,186L330.39,177.74L330.59,177.72L330.99,167.59L331.19,178.54L331.4,178.84L331.8,177.8L332.2,178.34L332.4,168.4L332.6,167.62L332.8,177.97L333.2,175.73L333.41,173.25L334.41,157.74L334.61,157.74L335.21,157.74L335.41,243.1L335.82,243.57L336.02,158.22L336.62,157.32L337.02,157.77L337.22,157.79L337.42,157.7L337.63,159.64L338.23,156.05L338.43,157.77L338.63,157.43L339.43,157.93L339.64,157.14L340.44,157.83L340.64,157.82L341.04,158.1L341.44,157.76L341.64,157.66L343.86,157.74L344.06,157.74L351.69,157.74L351.89,159.63L352.1,155.86L352.7,157.74L352.9,157.74L355.51,157.74L355.71,159.63L355.91,155.86L356.52,157.74L356.72,157.74L356.92,155.86L357.32,157.74L357.52,157.74L360.94,157.74L361.14,216.69L361.54,243.57L361.74,158.22L362.75,157.74L362.95,157.74L375.41,157.74L375.61,243.1L376.21,243.57L376.41,158.22L377.42,157.74L377.62,157.74L387.67,157.74L387.87,243.1L388.67,157.74L388.87,157.74L389.48,157.74L389.68,243.1L389.88,243.57L390.08,158.22L391.08,157.74L391.28,157.74L396.11,157.74L396.31,243.1L396.71,243.57L396.91,158.22L397.92,157.74L398.12,157.74L399.52,157.74L399.72,243.1L400.13,243.57L400.33,158.22L401.33,157.74L401.53,157.74L409.37,157.74L409.57,243.1L410.38,157.74L410.58,157.74L412.59,157.74L412.79,243.1L413.59,157.74L413.79,157.74L419.22,157.74L419.42,243.1L419.62,243.57L419.82,158.22L420.83,157.74L421.03,157.74L427.66,157.74L427.86,243.1L428.06,243.57L428.26,158.22L429.27,157.74L429.47,157.74L430.67,157.74L430.87,243.1L431.08,243.57L431.28,158.22L432.28,157.74L432.48,157.74L432.68,157.74L432.88,243.1L433.09,243.57L433.29,158.22L434.09,157.74L434.29,243.1L434.49,243.57L434.69,158.22L435.09,157.74L435.3,243.1L435.5,243.57L435.7,158.22L436.7,157.74L436.9,157.74L437.51,157.74L437.71,243.1L438.11,243.57L438.31,158.22L439.32,157.74L439.52,157.74L439.72,157.74L439.92,243.1L440.32,243.57L440.52,158.22L441.53,157.74L441.73,157.74L448.16,157.74L448.36,243.1L448.56,243.57L448.76,158.22L449.77,157.74L449.97,157.74L451.37,157.74L451.57,243.1L451.78,243.57L451.98,158.22L452.98,157.74L453.18,157.74L454.99,157.74L455.19,243.1L455.59,243.57L455.79,158.22L456.8,157.74L457,157.74L470.06,157.74L470.26,243.1L470.47,243.57L470.67,158.22L471.67,157.74L471.87,157.74L472.07,243.1L472.47,157.74L472.68,157.74L473.48,157.74L473.68,243.1L474.48,157.74L474.69,243.1L475.09,243.57L475.29,158.22L476.29,157.74L476.49,157.74L485.74,157.74L485.94,243.1L486.74,157.74L486.94,157.74L487.75,157.74L487.95,243.1L488.15,243.57L488.35,158.22L489.36,157.74L489.56,157.74L493.78,157.74L493.98,243.1L494.38,243.57L494.58,158.22L495.59,157.74L495.79,157.74L496.39,243.57L496.59,158.22L497.6,157.74L497.8,157.74L507.44,157.74L507.64,243.1L507.85,243.57L508.05,158.22L509.05,157.74L509.25,157.74L509.65,157.74L509.85,243.1L510.66,157.74L510.86,157.74L514.08,157.74L514.28,243.1L514.48,243.57L514.68,158.22L515.68,157.74L515.88,157.74L518.09,157.74L518.3,243.1L518.5,243.57L518.7,158.22L519.7,157.74L519.9,157.74L523.52,157.74L523.72,243.1L523.92,243.57L524.12,158.22L524.53,157.74L524.73,243.1L525.13,243.57L525.33,158.22L526.33,157.74L526.54,157.74L527.54,157.74L527.74,173.1L528.14,167.74L528.34,209.35L528.54,205.69L528.75,156.85L529.15,158.02L529.55,157.58L529.75,157.42L530.15,157.94L530.55,157.62L530.76,157.36L531.16,158.09L531.36,157.8L531.56,157.39L531.76,158.04L532.36,157.75L532.56,157.76L533.17,304L533.57,294.11L533.77,211.07L533.97,209.95L534.17,200.09L534.37,187.83L534.77,194.98L534.98,197.43L535.58,181.03L535.98,181.04L536.18,181.03L537.39,200.76L537.59,200L538.39,198.5L538.59,198.75L538.79,199.07L539.4,198.47L539.6,198.76L539.8,198.75L540,198.64" style="vector-effect: non-scaling-stroke; fill: none; stroke: rgb(0, 191, 255); stroke-opacity: 1; stroke-width: 2px; opacity: 1;"/></g><g class="points"/><g class="text"/></g></g></g><g class="overplot"/><path class="xlines-above crisp" d="M0,0" style="fill: none;"/><path class="ylines-above crisp" d="M0,0" style="fill: none;"/><g class="overlines-above"/><g class="xaxislayer-above"><g class="xtick"><text text-anchor="middle" x="0" y="433" transform="translate(157.17000000000002,0)" style="font-family: 'Open Sans', verdana, arial, sans-serif; font-size: 12px; fill: rgb(42, 63, 95); fill-opacity: 1; white-space: pre; opacity: 1;"><tspan class="line" dy="0em" x="0" y="433">Feb 5</tspan><tspan class="line" dy="1.3em" x="0" y="433">2023</tspan></text></g><g class="xtick"><text text-anchor="middle" x="0" y="433" style="font-family: 'Open Sans', verdana, arial, sans-serif; font-size: 12px; fill: rgb(42, 63, 95); fill-opacity: 1; white-space: pre; opacity: 1;" transform="translate(292.22,0)">Feb 12</text></g><g class="xtick"><text text-anchor="middle" x="0" y="433" style="font-family: 'Open Sans', verdana, arial, sans-serif; font-size: 12px; fill: rgb(42, 63, 95); fill-opacity: 1; white-space: pre; opacity: 1;" transform="translate(427.27,0)">Feb 19</text></g><g class="xtick"><text text-anchor="middle" x="0" y="433" style="font-family: 'Open Sans', verdana, arial, sans-serif; font-size: 12px; fill: rgb(42, 63, 95); fill-opacity: 1; white-space: pre; opacity: 1;" transform="translate(562.3199999999999,0)">Feb 26</text></g></g><g class="yaxislayer-above"><g class="ytick"><text text-anchor="end" x="79" y="4.199999999999999" transform="translate(0,343.57)" style="font-family: 'Open Sans', verdana, arial, sans-serif; font-size: 12px; fill: rgb(42, 63, 95); fill-opacity: 1; white-space: pre; opacity: 1;">−50</text></g><g class="ytick"><text text-anchor="end" x="79" y="4.199999999999999" style="font-family: 'Open Sans', verdana, arial, sans-serif; font-size: 12px; fill: rgb(42, 63, 95); fill-opacity: 1; white-space: pre; opacity: 1;" transform="translate(0,257.74)">0</text></g><g class="ytick"><text text-anchor="end" x="79" y="4.199999999999999" style="font-family: 'Open Sans', verdana, arial, sans-serif; font-size: 12px; fill: rgb(42, 63, 95); fill-opacity: 1; white-space: pre; opacity: 1;" transform="translate(0,171.92000000000002)">50</text></g></g><g class="overaxes-above"/></g></g><g class="polarlayer"/><g class="smithlayer"/><g class="ternarylayer"/><g class="geolayer"/><g class="funnelarealayer"/><g class="pielayer"/><g class="iciclelayer"/><g class="treemaplayer"/><g class="sunburstlayer"/><g class="glimages"/><defs id="topdefs-8f25c9"><g class="clips"/></defs><g class="layer-above"><g class="imagelayer"/><g class="shapelayer"/></g><g class="infolayer"><g class="g-gtitle"><text class="gtitle" x="350" y="50" text-anchor="middle" dy="0em" style="font-family: 'Open Sans', verdana, arial, sans-serif; font-size: 17px; fill: rgb(42, 63, 95); opacity: 1; font-weight: normal; white-space: pre;"><tspan class="line" dy="0em" x="350" y="50">Scenario 5</tspan><tspan class="line" dy="1.3em" x="350" y="50">Microgrid Output</tspan><tspan class="line" dy="2.6em" x="350" y="50">From: February 01, 2023 to February 28, 2023</tspan></text></g><g class="g-xtitle"><text class="xtitle" x="350" y="476.409375" text-anchor="middle" style="font-family: 'Open Sans', verdana, arial, sans-serif; font-size: 14px; fill: rgb(42, 63, 95); opacity: 1; font-weight: normal; white-space: pre;">Time</text></g><g class="g-ytitle"><text class="ytitle" transform="rotate(-90,33.840625,260)" x="33.840625" y="260" text-anchor="middle" style="font-family: 'Open Sans', verdana, arial, sans-serif; font-size: 14px; fill: rgb(42, 63, 95); opacity: 1; font-weight: normal; white-space: pre;">Demand (kW)</text></g></g></svg>