<svg class="main-svg" xmlns="http://www.w3.org/2000/svg" xmlns:xlink="http://www.w3.org/1999/xlink" width="700" height="500" style="" viewBox="0 0 700 500"><rect x="0" y="0" width="700" height="500" style="fill: rgb(255, 255, 255); fill-opacity: 1;"/><defs id="defs-23a958"><g class="clips"><clipPath id="clip23a958xyplot" class="plotclip"><rect width="540" height="320"/></clipPath><clipPath class="axesclip" id="clip23a958x"><rect x="80" y="0" width="540" height="500"/></clipPath><clipPath class="axesclip" id="clip23a958y"><rect x="0" y="100" width="700" height="320"/></clipPath><clipPath class="axesclip" id="clip23a958xy"><rect x="80" y="100" width="540" height="320"/></clipPath></g><g class="gradients"/><g class="patterns"/></defs><g class="bglayer"/><g class="layer-below"><g class="imagelayer"/><g class="shapelayer"/></g><g class="cartesianlayer"><g class="subplot xy"><g class="layer-subplot"><g class="shapelayer"/><g class="imagelayer"/></g><g class="minor-gridlayer"><g class="x"/><g class="y"/></g><g class="gridlayer"><g class="x"><path class="xgrid crisp" transform="translate(116.00999999999999,0)" d="M0,100v320" style="stroke: rgb(255, 255, 255); stroke-opacity: 1; stroke-width: 1px;"/><path class="xgrid crisp" transform="translate(242.06,0)" d="M0,100v320" style="stroke: rgb(255, 255, 255); stroke-opacity: 1; stroke-width: 1px;"/><path class="xgrid crisp" transform="translate(368.1,0)" d="M0,100v320" style="stroke: rgb(255, 255, 255); stroke-opacity: 1; stroke-width: 1px;"/><path class="xgrid crisp" transform="translate(494.14,0)" d="M0,100v320" style="stroke: rgb(255, 255, 255); stroke-opacity: 1; stroke-width: 1px;"/></g><g class="y"><path class="ygrid crisp" transform="translate(0,409.37)" d="M80,0h540" style="stroke: rgb(255, 255, 255); stroke-opacity: 1; stroke-width: 1px;"/><path class="ygrid crisp" transform="translate(0,327.8)" d="M80,0h540" style="stroke: rgb(255, 255, 255); stroke-opacity: 1; stroke-width: 1px;"/><path class="ygrid crisp" transform="translate(0,164.67000000000002)" d="M80,0h540" style="stroke: rgb(255, 255, 255); stroke-opacity: 1; stroke-width: 1px;"/></g></g><g class="zerolinelayer"><path class="yzl zl crisp" transform="translate(0,246.24)" d="M80,0h540" style="stroke: rgb(255, 255, 255); stroke-opacity: 1; stroke-width: 2px;"/></g><path class="xlines-below"/><path class="ylines-below"/><g class="overlines-below"/><g class="xaxislayer-below"/><g class="yaxislayer-below"/><g class="overaxes-below"/><g class="plot" transform="translate(80,100)" clip-path="url(#clip23a958xyplot)"><g class="scatterlayer mlayer"><g class="trace scatter traceb112eb" style="stroke-miterlimit: 2; opacity: 0.5;"><g class="fills"/><g class="errorbars"/><g class="lines"><path class="js-line" d="M0,169.39L0.56,169.43L0.75,169.71L1.69,169.31L1.88,170.61L2.06,170.54L2.25,169.06L3.56,168.87L3.75,168.8L4.13,251.19L4.69,250.8L4.88,168.74L5.25,178.19L5.63,173.94L5.81,169.71L6.94,146.02L7.13,146.41L7.88,146.35L8.07,127.54L8.63,51.05L8.82,126.87L9,124.35L9.38,129.42L9.57,127.49L9.75,45.28L10.13,46.3L10.32,46.13L10.5,47.83L11.07,51.35L11.25,59.44L11.63,58.41L12.38,91.51L12.57,103.21L13.88,146.31L14.07,146.25L14.25,146.22L15.76,146.23L15.94,169.3L16.88,176.49L17.07,175.75L17.44,173.33L17.63,170.25L17.82,170.39L18.01,169.89L18.19,169.01L18.38,169.1L18.57,170.14L18.76,171.8L19.13,170.2L19.32,170.04L19.51,169.44L20.07,169.85L20.26,169.77L20.82,169.37L21.01,169.63L21.19,169.71L22.32,169.38L22.51,250.55L22.7,250.75L22.88,169.17L23.26,165.74L23.63,167.84L23.82,160.35L24.2,146.23L24.38,223.27L24.57,225.54L24.76,146.6L25.7,146.13L25.88,146.22L27.38,145.98L27.57,101.73L27.95,115.32L28.13,113.47L28.32,29.14L28.51,30.27L28.7,112.92L28.89,112.18L29.07,120.01L29.45,31.38L29.82,44.13L30.01,59.36L31.51,146.27L31.7,146.29L34.14,146.23L34.32,146.26L35.26,170.48L35.45,171.44L36.2,170.13L36.39,170.32L36.58,170.52L36.76,170.7L36.95,169.71L37.33,170.83L37.7,170.27L37.89,169.89L38.45,169.75L38.64,171.21L39.76,169.54L39.95,170L40.14,169.7L40.33,250.52L41.26,167.93L41.45,163.54L42.39,146.17L42.58,146.2L42.95,146.22L43.14,155.37L43.33,146.09L43.7,155.37L43.89,187.29L44.08,145.43L44.64,146.34L44.83,146.3L45.77,146.24L45.95,148.14L46.33,144.36L46.89,146.25L47.08,146.2L47.27,146.26L47.45,138.85L47.64,127.18L48.02,133.92L48.2,143.35L49.14,148.05L49.33,146.24L49.52,144.43L49.7,146.29L49.89,146.22L50.08,158.38L51.02,172.03L51.21,172.07L51.77,169.82L51.96,171.11L52.14,171.52L52.71,169.78L53.08,170.05L53.27,170.02L53.46,171.3L54.02,169.99L54.21,169.59L54.77,170.05L54.96,169.77L55.14,169.39L55.89,170.1L56.08,169.56L56.27,169.49L57.96,169.49L58.15,169.52L58.9,169.27L59.08,176.68L59.27,267L59.83,182.87L60.02,181.23L60.21,179.97L60.4,165.77L60.58,157.03L60.77,245.55L60.96,244.15L61.15,152.71L61.71,146.06L61.9,146.18L62.08,146.23L62.46,146.26L62.65,132.71L63.4,26.96L63.58,30.09L63.77,26.74L64.52,34.53L64.71,33.59L64.9,114.29L66.4,142.25L66.59,76.35L67.34,146.33L67.9,146.24L68.09,146.27L69.96,146.25L70.15,162.16L70.52,171.74L71.09,170.66L71.27,169.7L71.46,171.52L72.03,170.17L72.21,169.49L72.78,170.55L72.96,170.25L73.15,169.35L73.34,170.25L73.71,169.06L73.9,168.94L74.28,170.32L74.84,169.8L75.03,169.12L76.15,169.82L76.34,169.42L76.71,169.05L76.9,166.96L77.09,166.88L77.28,171.96L77.46,172.66L77.65,165.44L77.84,239.05L78.21,146.52L78.4,146.16L79.72,146.18L79.9,147.99L80.09,146.27L80.28,133.64L80.47,31.69L81.03,125.72L81.22,66.98L81.78,80.17L81.97,77.76L82.15,63.01L82.53,56.7L82.72,65.34L82.9,73.67L83.28,45.12L83.84,50.17L84.03,57.34L84.97,111.32L85.15,124.87L85.9,146.36L86.09,146.2L86.28,146.29L87.78,146.29L87.97,155.83L88.34,176.82L88.91,174.01L89.09,174.14L89.84,170.61L90.03,171.16L90.22,172.82L90.41,174.04L90.59,172.49L90.78,170.65L91.53,172.52L91.72,170.52L91.91,171.17L92.09,170.68L92.28,169.64L92.47,169.66L92.66,170.57L93.22,171.87L93.41,170.56L93.59,251.36L93.97,169.99L94.35,170.43L94.53,251.4L94.72,251.54L94.91,248.81L95.85,152.83L96.03,146.34L97.16,146.2L97.35,146.2L97.72,146.2L97.91,96.49L98.1,41.82L98.47,131.63L98.66,131.54L98.85,52.91L99.41,56.12L99.6,55.87L99.97,66.51L100.53,63.81L100.72,62.7L101.1,146.19L101.47,70.67L101.66,144.36L101.85,135.16L102.04,137L102.22,63.52L103.91,146.31L104.1,146.31L104.85,146.22L105.04,170.42L105.22,194.48L105.79,177.17L105.97,174.62L106.16,173.55L106.72,173.77L106.91,174.04L107.1,174.15L107.29,173.54L107.47,171.63L107.85,173.12L108.04,171.14L108.23,170.43L108.41,171.81L108.79,170.53L108.98,170.12L109.16,170.24L109.35,171.71L109.54,252.06L109.91,170.51L110.1,170.12L110.29,170.21L110.48,169.2L110.85,169.14L111.04,170.58L111.23,170.55L111.41,169.48L111.98,169.66L112.16,169.56L112.35,169.43L112.54,169.65L112.73,249.95L112.91,248.56L113.1,168.07L113.48,173.92L113.66,165.03L113.85,162.56L114.41,146.16L114.6,146.25L114.79,178.08L114.98,201.24L115.35,177.58L115.54,144.99L115.92,148L116.1,146.25L116.29,144.49L117.04,147.97L117.23,146.35L117.42,146.25L117.6,146.25L117.79,144.53L118.17,146.21L118.35,95.67L119.29,86.2L119.48,92.21L120.42,146.26L120.6,147.31L120.98,211.21L121.35,195.7L121.54,194.06L121.92,201.33L122.1,193.71L122.29,188.13L123.23,181.92L123.42,182.42L123.61,180.51L124.36,176.56L124.54,175.2L124.92,177.64L125.29,176.36L125.48,175.61L125.67,176.74L125.86,175.15L126.04,174.14L126.23,175.43L126.61,173.89L126.79,172.81L126.98,174.2L127.36,172.63L127.54,173.23L127.73,169.99L128.48,171.02L128.67,250.35L128.86,251.1L129.04,169.7L129.42,170.36L129.61,169.47L130.36,170.79L130.55,169.25L130.92,172.63L131.11,263.71L131.3,272.1L131.48,190.88L132.23,195.89L132.42,203.15L133.17,216.53L133.36,209.22L133.55,201.23L133.73,199.24L133.92,206.28L135.23,236.55L135.42,230.19L135.61,220.49L136.36,241.4L136.55,241.31L136.73,235.69L137.49,247.86L137.67,247.52L137.86,231.07L138.8,212.9L138.99,211.61L139.36,205.32L139.55,201.3L139.74,198.41L139.92,278.23L140.11,276.96L140.3,190.18L140.49,189.87L140.67,191.25L142.74,173.33L142.92,173.28L143.3,175.5L143.67,173.55L143.86,172.04L144.24,173.63L144.43,171.55L144.61,172.46L144.8,172.1L144.99,170.11L145.18,171.88L145.74,171.53L145.93,171.02L146.11,170.93L146.3,169.73L147.05,171.19L147.24,169.05L147.43,168.7L147.61,168.81L147.8,170.2L148.18,169.39L148.55,170.83L148.74,169.56L149.11,170.46L149.3,172.17L149.49,172.16L149.68,254.44L150.05,173.16L150.43,180.82L150.61,183.13L150.8,270.14L151.37,192.2L151.55,194.35L151.93,186.7L152.12,192.64L152.49,204.7L152.68,203.79L152.87,281.56L153.05,288.14L153.24,211.82L153.62,208.63L153.8,291.98L153.99,294.21L154.18,215.02L154.55,211.08L154.74,217.86L155.12,203.73L155.49,211.24L155.68,211.49L156.8,193.76L156.99,190.93L157.18,191.46L157.37,189.42L157.55,187.36L157.74,266.21L157.93,265.12L158.12,183.83L158.49,177.9L158.68,257.95L158.87,258.57L159.06,257.73L159.24,176.81L160.56,172.54L160.74,173.7L161.87,171.28L162.06,172.77L162.43,170.7L162.99,170.85L163.18,170.96L163.56,171.99L163.74,169.59L164.12,171.78L164.49,170.61L164.68,169.54L165.06,171.63L165.43,170.03L165.62,169.51L166.37,170.58L166.56,169.52L167.87,173.12L168.06,172.02L168.25,171.99L168.43,175.93L169.37,186.34L169.56,186.21L169.93,183.94L170.12,187.65L170.31,268.17L170.5,265.68L170.68,183L171.06,264.85L171.43,188.86L171.62,192.45L172.37,200.82L172.56,198.19L172.75,193.93L173.12,270.47L173.5,194.49L173.69,187.54L173.87,266.18L174.25,186.88L174.44,185L175.56,178.68L175.75,258.56L175.94,256.84L176.12,175.12L177.06,171.21L177.25,173.18L177.44,173.34L177.62,170.92L178.19,172.11L178.37,171.05L178.56,169.78L178.75,171.79L179.12,170.04L179.31,170.12L179.87,169.91L180.06,170.9L180.63,171.47L180.81,169.92L181,170.3L181.19,169.5L181.56,170.99L181.75,170.64L182.13,169.26L182.69,169.51L182.88,170.99L183.44,169.64L183.63,250.53L183.81,251.09L184,169.05L184.19,168.64L184.38,168.9L184.56,170.73L184.75,171.54L184.94,170.13L185.13,175.59L186.44,211.24L186.63,209.87L187,211.61L187.19,207.8L187.38,204.56L187.57,284.9L187.75,288.89L187.94,212.95L188.13,213.39L188.32,290.74L188.5,284.21L188.69,196.13L189.25,184.49L189.63,188.69L189.82,188.6L191.13,207.15L191.32,205.49L191.5,201.74L191.88,201.25L192.07,198.51L192.44,197.3L192.63,187.88L193.57,174.91L193.75,173.72L193.94,173.52L194.13,254.51L194.51,253.65L194.69,173.69L195.44,169.91L195.82,170.52L196.01,171.44L196.76,169.74L196.94,170.42L197.13,170.28L197.51,171.11L197.69,169.23L198.07,169.1L198.26,170.33L198.44,170.84L198.63,169.78L198.82,170.1L199.01,170.03L199.38,251.66L199.57,169.72L199.76,169.59L200.88,169.15L201.07,169.37L202.2,169.34L202.38,168.96L202.95,169.53L203.13,173.85L204.07,201.98L204.26,201.8L204.45,201.56L205.01,210.52L205.2,206.74L205.38,203.13L205.57,203.79L205.76,280.11L205.95,271.93L206.13,190.8L206.32,190.41L206.51,185.72L206.7,185.86L206.88,193.16L207.26,297.38L207.82,288.86L208.01,203.24L208.2,195.16L208.57,209.89L208.76,207.9L210.07,177.78L210.26,180.27L210.45,181.3L210.64,180.15L210.82,178.41L211.95,171.52L212.14,173.26L213.26,169.97L213.45,169.91L213.64,169.97L213.82,169.13L214.39,170.72L214.57,170.1L214.76,169.05L215.51,169.86L215.7,169.34L215.89,169.55L216.26,168.7L216.64,169.28L216.83,169.56L218.14,169.2L218.33,250.06L219.26,168.66L219.45,168.72L220.95,167.7L221.14,169.2L221.7,172.79L221.89,186.66L222.83,207.04L223.01,210.42L223.39,201.68L223.58,202.06L223.77,283.28L223.95,281.38L224.14,196.75L224.33,194.88L224.52,276.43L224.89,264.9L225.08,181.99L225.27,179.99L225.45,183.14L225.64,184.89L226.02,187.04L226.2,192.88L226.77,199.28L226.95,198.9L227.14,192.56L228.45,177.78L228.64,181.21L228.83,180.11L230.89,170.49L231.08,170.56L231.46,171.05L231.64,169.59L232.39,171.1L232.58,169.24L233.33,169.76L233.52,169.03L234.27,169.56L234.46,169.09L235.21,169.92L235.39,169.44L235.58,169.39L236.71,169.04L236.89,169.18L238.21,168.56L238.4,168.56L238.96,168.46L239.15,178.91L239.33,189.95L239.52,271.16L239.9,279.35L240.08,202.31L240.46,192.03L240.65,196.41L240.83,208.48L241.58,218.6L241.77,213.04L242.15,196.92L242.52,202.72L242.71,203.88L242.9,203.44L243.08,204.84L243.27,205.09L244.02,215.06L244.21,220.25L244.58,217.29L244.77,217.71L244.96,220.18L245.34,205.99L245.52,200.68L245.71,201.65L245.9,195.52L246.65,180.07L247.02,181.56L247.21,179.64L247.4,179.84L247.59,175.99L247.77,177.46L247.96,176.67L248.15,173.88L248.34,174.04L248.52,172.89L249.46,170.43L249.65,170.86L249.84,171.67L250.21,170.24L250.4,169.65L251.15,172L251.34,171.22L251.52,170.09L252.84,168.92L253.03,169.18L253.21,169.56L253.4,170.33L253.96,169.47L254.15,168.97L254.34,169.48L254.9,169.07L255.09,169.06L256.96,169.42L257.15,176.63L258.09,193.29L258.28,193.11L258.46,194.3L258.65,201.57L258.84,208.27L259.03,207.26L259.22,282.14L259.59,185.44L259.97,190.02L260.15,191.79L260.34,190.24L260.53,190.78L260.72,269.89L260.9,190.7L261.28,203.95L261.47,286.35L262.03,200.24L262.22,203.06L262.4,294.27L262.59,304L262.78,222.33L263.72,226.49L263.9,227.21L265.59,179.01L265.78,258.24L265.97,260.22L266.15,177.48L266.34,257.42L266.72,255.08L266.91,174.28L267.28,174.6L268.03,170.8L268.22,172.11L268.41,173.34L268.59,171.82L268.78,170.45L269.16,171.69L269.34,170.38L269.53,169.89L269.91,169.6L270.28,171.19L270.47,170.91L270.66,170.34L271.59,169.19L271.78,169.34L271.97,170.59L273.28,169.5L273.47,169.62L274.22,169.19L274.41,169.33L274.6,169.37L274.97,169.26L275.16,170.68L275.72,177.86L275.91,260.21L276.1,179.28L276.47,260.69L276.66,180.48L276.85,179.54L277.03,179.46L277.22,260.7L277.41,260.78L277.6,178.38L278.35,172.38L278.53,254.12L278.72,256.06L278.91,175.96L279.1,173.83L279.47,177.26L279.66,176.22L279.85,175.57L280.03,177.7L280.41,183.3L280.78,179.94L280.97,176.02L281.35,185.04L281.54,183.89L281.72,262.64L282.1,261.27L282.29,179.63L282.47,179.76L282.66,178.25L282.85,178.19L283.04,179.19L283.41,177.27L283.6,175.78L284.72,171.54L284.91,172.32L285.1,172.11L285.29,169.04L285.66,171.16L286.22,170.5L286.41,170.76L286.79,171.54L286.97,169.85L287.54,169.43L287.72,171.14L287.91,170.78L288.1,170.02L289.23,170.09L289.41,170.65L289.6,170.79L289.79,169.15L290.16,168.77L290.35,169.64L290.54,170.11L290.73,169.27L291.29,169.51L291.48,169.51L291.66,168.95L292.04,169.47L292.23,170.49L292.41,252L292.79,169.71L292.98,169.6L293.35,172.7L293.54,172.23L293.73,253.93L293.91,254.23L294.1,173.42L294.29,174.18L294.48,173.34L294.66,172.04L294.85,172.22L295.04,174.19L295.23,175.22L295.42,173.91L295.6,255.17L295.79,178.21L296.17,179.39L296.35,266.37L296.73,185.07L296.92,190.28L297.1,270.75L297.29,272.29L297.48,194.81L297.85,190.5L298.04,192.49L298.23,199.76L298.42,201.94L298.6,199.16L298.79,192.97L298.98,193.6L299.17,199.53L299.35,197.54L299.54,199.07L299.73,205.4L300.85,190.78L301.04,191.42L303.29,175.28L303.48,176.71L303.86,172.25L304.23,174.35L304.42,173.23L305.54,170.56L305.73,171.72L305.92,172.32L306.11,172.01L306.29,170.27L307.42,170.52L307.61,170.29L308.54,169.29L308.73,169.87L308.92,170.49L309.48,169.9L309.67,169.52L310.61,169.48L310.8,250.72L310.98,250.97L311.17,174.84L311.55,190.92L311.73,272.14L311.92,191.48L312.3,285.73L312.48,212.25L312.67,211.28L313.23,222.84L313.42,207.87L314.36,146.15L314.55,146.26L315.11,146.16L315.3,67.63L315.48,47.13L315.67,48.91L315.86,133.78L316.05,140.55L316.23,59.9L316.42,61.17L316.61,59.58L316.8,57.49L317.17,58.33L317.36,56.23L317.55,49.04L317.74,50.71L317.92,49.87L318.11,43.57L319.42,146.36L319.61,146.19L320.92,146.23L321.11,146.28L321.67,146.25L321.86,147.73L322.42,255.31L322.61,172.9L322.8,171.85L322.99,172.15L323.17,171.64L323.36,170.2L323.92,172.17L324.11,170.67L324.3,170.2L324.86,172L325.05,170.38L325.24,169.79L325.8,170.31L325.99,170.17L326.18,169.67L326.36,170.13L326.55,169.52L326.74,169.04L326.93,169.09L327.11,170.17L327.3,170.63L327.49,169.56L327.68,169.83L327.86,169.7L328.24,169.74L328.43,250.36L328.61,251.28L328.8,249.96L328.99,245.7L329.55,157.64L329.74,233.4L329.93,228.05L330.49,146.15L330.86,146.2L331.05,146.13L331.62,146.27L331.8,115.05L332.55,36.83L332.74,39.46L332.93,42.04L334.62,79.45L334.8,78.01L335.93,63.18L336.12,59.61L337.8,148.1L337.99,146.3L338.18,144.5L338.74,146.24L338.93,146.19L339.12,156.83L339.31,175.03L339.87,172.15L340.06,173.67L340.43,169.28L340.81,171.07L340.99,171.22L341.37,170.17L341.56,170.59L341.74,171.39L341.93,172.1L342.12,170.38L342.31,170.08L343.43,170.95L343.62,170.92L343.81,171.21L343.99,170.16L344.18,170.45L344.37,170.24L344.56,169.31L344.93,170.04L345.12,250.49L345.31,250.94L345.49,170.44L345.68,171.93L346.06,169.99L346.25,170.1L347,167.85L347.18,168.29L347.37,172.39L348.31,148.27L348.5,222.52L348.68,212L348.87,145.85L349.06,146.41L349.62,146.2L349.81,146.1L351.12,146.16L351.31,127.23L351.5,125.7L351.68,140.61L351.87,145.82L352.06,65.56L352.25,35.56L352.81,37.92L353,37.33L353.56,57.19L353.75,51.58L353.94,46.37L354.12,47.73L354.31,134.24L354.87,146.37L355.25,146.22L355.44,146.3L358.44,146.25L358.62,157.24L359.56,170.7L359.75,169.56L360.5,170.08L360.69,169.58L361.44,169.78L361.63,169.4L362.38,169.42L362.56,169.22L363.31,169.4L363.5,169.06L363.88,169.12L364.06,169.62L364.63,168.85L364.81,165.95L365,161.6L365.38,169.1L365.56,242.1L366.5,146.16L366.69,146.21L367.63,146.28L367.82,95.18L368.38,39.77L368.57,125.52L369.13,136.43L369.32,136.06L369.5,56.43L369.88,57.94L370.07,50.41L370.25,39.92L370.44,121.51L370.63,121.28L370.82,127.94L371.75,27.67L371.94,24.53L372.13,26.15L372.32,35.34L374,146.27L374.19,146.35L376.07,146.24L376.26,154.9L377.01,171.28L377.19,170.88L377.38,169.13L377.57,168.94L377.76,170.11L378.32,171.5L378.51,170.32L378.69,170.03L379.82,171.12L380.01,169.18L380.76,169.52L380.94,169.17L381.7,169.68L381.88,250.07L382.07,250.49L382.26,169.65L382.45,169.95L382.63,169.41L382.82,166.67L383.01,161.74L383.38,169.67L383.57,168.17L383.95,158.52L384.13,159.08L384.32,229.09L384.7,144.46L385.26,145.99L385.45,146.18L385.82,146.24L386.01,108.1L386.38,69.05L386.76,72.97L386.95,84.02L387.13,82.08L387.32,58.56L387.51,63.31L387.7,54.44L387.88,43.1L388.26,78.36L388.45,72.56L388.63,36.63L388.82,34.31L389.01,63.07L389.76,146.25L389.95,146.2L390.14,146.22L391.64,146.25L391.82,148.02L392.2,144.46L392.57,146.25L392.76,147.28L392.95,175.5L393.51,169.87L393.7,169.72L394.82,169.42L395.01,169.46L395.95,169.01L396.14,169.13L396.33,169.83L396.89,169.33L397.08,169.49L400.08,168.85L400.26,168.51L400.64,168.32L400.83,166.45L401.58,146.21L401.76,201.98L402.14,145.42L402.7,146.17L402.89,146.17L403.08,146.18L403.27,76.55L403.45,16L404.02,19.78L404.2,20.74L404.77,22.65L404.95,24.08L405.14,24.56L405.33,28.4L405.89,31.16L406.08,29.31L406.27,30.31L407.2,35.6L407.39,31.85L407.95,31.11L408.33,41.78L408.52,51.07L410.02,146.35L410.58,146.23L410.77,146.23L411.71,146.23L411.89,158.39L412.27,257.82L412.64,174.35L412.83,174.93L413.02,174.51L413.21,175.46L413.39,173.17L414.33,168.98L414.52,169.96L414.71,170.44L414.89,169.67L415.08,169.89L415.27,169.78L416.77,169.32L416.96,169.41L418.27,169.15L418.46,169.05L419.02,159.05L419.21,236.66L419.96,145.88L420.15,146.18L420.33,146.13L421.08,146.21L421.27,78.8L421.46,23.95L422.02,27.52L422.21,108.38L422.58,115.12L422.77,29.54L423.15,36.81L423.33,34.55L423.52,31.86L424.84,42.51L425.02,42.58L425.4,125.19L425.59,124.35L425.77,40.75L425.96,36.53L426.15,37.75L426.34,50.58L428.02,146.32L428.59,146.21L428.77,146.23L430.27,146.25L430.46,149.58L430.84,171.89L431.21,170.49L431.4,169.74L431.77,171.46L431.96,169.55L432.15,170.24L432.34,169.66L432.53,169.07L432.71,169.54L432.9,171.11L433.09,171.47L433.28,170.02L434.03,169.85L434.21,169.34L434.4,169.71L434.96,169.35L435.15,169.03L435.34,169.38L435.9,169.07L436.09,168.97L436.28,250.22L436.65,167.99L436.84,164.77L437.96,146.17L438.34,146.2L438.53,146.19L439.65,146.2L439.84,148.04L440.4,53.86L440.59,61.12L440.78,72.71L441.34,47.26L441.72,59.82L441.9,65.5L442.09,64.94L442.28,69.92L442.47,69.26L442.65,72.53L443.03,71.66L443.22,75.09L443.4,70.87L444.15,51.62L444.34,57.55L444.53,67.32L445.84,146.31L446.22,146.28L446.41,146.28L447.34,146.22L447.53,190.05L448.47,173.51L448.66,173.72L448.84,170.57L449.41,170.97L449.59,171.78L450.53,170.19L450.72,170.24L450.91,170.79L451.09,169.69L451.47,170.5L451.66,170.36L451.84,171.09L452.03,169.58L452.22,169.77L452.41,169.9L452.59,169.04L452.97,169.55L453.16,170.71L453.34,170.74L453.53,169.59L453.91,169.24L454.1,169.51L454.28,169.32L454.47,169.43L454.85,162.69L455.03,157.36L455.41,163.69L455.6,238.38L456.53,146.18L456.72,146.31L458.03,146L458.22,141.12L458.41,47.53L458.78,142.48L458.97,146.39L459.35,63.68L459.91,83.9L460.1,82.09L460.28,97.12L460.66,71.64L460.85,65.64L461.22,80.23L461.41,62.04L461.6,55.53L461.79,56.36L461.97,48.22L464.04,146.36L464.6,146.23L464.79,146.24L465.35,146.24L465.54,148.03L465.72,204.44L466.29,173.42L466.47,173.26L467.41,170.37L467.6,171.26L467.79,171.6L467.97,169.82L468.54,170.41L468.73,170.36L469.1,171.7L469.29,170.1L469.48,169.12L469.66,169.01L469.85,169.92L470.04,172.11L470.6,170.23L470.79,169.43L471.91,170.7L472.1,168.98L472.29,169.73L472.48,169.61L472.66,167.95L474.35,146.06L474.54,146.28L474.73,146.17L474.91,148L475.29,144.32L475.67,146.18L475.85,146.29L476.23,146.25L476.42,144.45L476.6,146.25L476.79,47.2L476.98,33.22L477.54,39.37L477.73,118.45L477.92,118.02L478.1,36.01L478.29,35.02L478.48,37.02L478.67,39.37L478.85,39.75L479.04,39.48L479.23,48.31L479.42,61.13L479.79,60.98L479.98,145.47L480.54,146.35L480.73,116.53L480.92,97.41L481.29,111.79L481.48,121.57L482.04,146.33L482.61,146.22L482.79,146.2L484.48,146.24L484.67,167.48L485.04,171.35L485.42,169.48L485.61,170.03L485.98,171.21L486.17,169.87L486.36,169.29L487.48,171.06L487.67,170.31L488.04,168.93L488.61,169.07L488.79,169.56L489.54,169.5L489.73,170.54L489.92,250.97L490.3,169.34L490.48,169.24L490.67,169.71L490.86,169L491.05,167.74L491.23,166.76L491.42,173.6L491.61,180.62L491.98,174.88L492.17,160.11L492.73,146.1L492.92,146.15L493.11,146.23L493.86,146.12L494.05,146.03L494.23,146.01L494.42,148.04L494.8,144.46L494.98,86L495.17,61.87L495.55,82.14L495.73,90.77L495.92,95.77L496.11,92.85L496.3,75.64L496.67,109.99L496.86,109.93L497.05,146.81L497.42,140.43L497.61,124.84L497.8,125.97L497.99,112.43L498.17,104.99L498.55,118.7L498.74,135.23L498.92,127.02L499.3,140.11L499.49,132.62L499.67,140.03L500.24,146.29L500.61,146.24L500.8,146.22L501.17,146.25L501.36,148.02L501.74,145.79L501.92,169.72L502.11,171.91L502.67,170.37L502.86,170.35L503.24,169.75L503.42,170.25L503.61,169.95L503.99,171.26L504.36,170.27L504.55,169.82L505.3,170.18L505.49,169.53L505.68,169.98L505.86,169.87L506.05,250.55L506.24,251.13L506.43,169.93L507.18,169.87L507.36,169.56L508.49,169.72L508.68,169.44L509.43,163.64L509.61,151.12L509.8,146.26L509.99,150.54L510.18,156.17L510.55,145.98L511.11,146.19L511.3,146.2L511.49,146.25L511.68,50.92L512.05,119.31L512.24,43.6L512.43,43.95L512.62,45.71L512.8,43.6L512.99,128.53L513.18,139.67L513.55,124.82L513.74,37.31L513.93,34.53L514.12,39.55L514.3,45.42L514.68,44.85L514.87,48.63L515.05,55.56L515.24,55.5L515.43,51.39L515.8,52.29L516.18,49.6L516.37,53.97L518.05,146.31L518.62,146.22L518.81,146.25L520.49,146.23L520.68,155.6L521.24,171.16L521.43,170.88L521.62,170.03L521.99,170.53L522.18,171.15L522.37,169.33L522.93,170.21L523.12,170.59L523.31,169.24L523.49,171.19L523.87,169.72L524.06,169.9L524.62,169.04L524.81,169.73L524.99,169.93L525.75,169.4L525.93,169.47L526.12,169.13L526.31,169.37L526.5,250.14L526.68,248.08L526.87,162.21L528.18,146.13L528.37,146.11L529.12,146.19L529.31,70.31L529.68,104.32L529.87,24.57L530.06,28.86L530.25,111.26L530.43,110.89L530.62,112.85L530.81,35.38L531.37,39.79L531.56,42.63L532.5,48.43L532.68,46.37L532.87,40.66L533.44,42.32L533.62,47.75L533.81,50.23L534.19,46.93L534.37,46.58L536.25,146.31L536.62,146.27L536.81,146.22L538.5,146.25L538.69,154.12L539.44,171.45L539.62,171.32L539.81,169.58L540,170.17" style="vector-effect: non-scaling-stroke; fill: none; stroke: rgb(0, 191, 255); stroke-opacity: 1; stroke-width: 2px; opacity: 1;"/></g><g class="points"/><g class="text"/></g></g></g><g class="overplot"/><path class="xlines-above crisp" d="M0,0" style="fill: none;"/><path class="ylines-above crisp" d="M0,0" style="fill: none;"/><g class="overlines-above"/><g class="xaxislayer-above"><g class="xtick"><text text-anchor="middle" x="0" y="433" transform="translate(116.00999999999999,0)" style="font-family: 'Open Sans', verdana, arial, sans-serif; font-size: 12px; fill: rgb(42, 63, 95); fill-opacity: 1; white-space: pre; opacity: 1;"><tspan class="line" dy="0em" x="0" y="433">Apr 3</tspan><tspan class="line" dy="1.3em" x="0" y="433">2022</tspan></text></g><g class="xtick"><text text-anchor="middle" x="0" y="433" style="font-family: 'Open Sans', verdana, arial, sans-serif; font-size: 12px; fill: rgb(42, 63, 95); fill-opacity: 1; white-space: pre; opacity: 1;" transform="translate(242.06,0)">Apr 10</text></g><g class="xtick"><text text-anchor="middle" x="0" y="433" style="font-family: 'Open Sans', verdana, arial, sans-serif; font-size: 12px; fill: rgb(42, 63, 95); fill-opacity: 1; white-space: pre; opacity: 1;" transform="translate(368.1,0)">Apr 17</text></g><g class="xtick"><text text-anchor="middle" x="0" y="433" style="font-family: 'Open Sans', verdana, arial, sans-serif; font-size: 12px; fill: rgb(42, 63, 95); fill-opacity: 1; white-space: pre; opacity: 1;" transform="translate(494.14,0)">Apr 24</text></g></g><g class="yaxislayer-above"><g class="ytick"><text text-anchor="end" x="79" y="4.199999999999999" transform="translate(0,409.37)" style="font-family: 'Open Sans', verdana, arial, sans-serif; font-size: 12px; fill: rgb(42, 63, 95); fill-opacity: 1; white-space: pre; opacity: 1;">−100</text></g><g class="ytick"><text text-anchor="end" x="79" y="4.199999999999999" style="font-family: 'Open Sans', verdana, arial, sans-serif; font-size: 12px; fill: rgb(42, 63, 95); fill-opacity: 1; white-space: pre; opacity: 1;" transform="translate(0,327.8)">−50</text></g><g class="ytick"><text text-anchor="end" x="79" y="4.199999999999999" style="font-family: 'Open Sans', verdana, arial, sans-serif; font-size: 12px; fill: rgb(42, 63, 95); fill-opacity: 1; white-space: pre; opacity: 1;" transform="translate(0,246.24)">0</text></g><g class="ytick"><text text-anchor="end" x="79" y="4.199999999999999" style="font-family: 'Open Sans', verdana, arial, sans-serif; font-size: 12px; fill: rgb(42, 63, 95); fill-opacity: 1; white-space: pre; opacity: 1;" transform="translate(0,164.67000000000002)">50</text></g></g><g class="overaxes-above"/></g></g><g class="polarlayer"/><g class="smithlayer"/><g class="ternarylayer"/><g class="geolayer"/><g class="funnelarealayer"/><g class="pielayer"/><g class="iciclelayer"/><g class="treemaplayer"/><g class="sunburstlayer"/><g class="glimages"/><defs id="topdefs-23a958"><g class="clips"/></defs><g class="layer-above"><g class="imagelayer"/><g class="shapelayer"/></g><g class="infolayer"><g class="g-gtitle"><text class="gtitle" x="350" y="50" text-anchor="middle" dy="0em" style="font-family: 'Open Sans', verdana, arial, sans-serif; font-size: 17px; fill: rgb(42, 63, 95); opacity: 1; font-weight: normal; white-space: pre;"><tspan class="line" dy="0em" x="350" y="50">Scenario 4</tspan><tspan class="line" dy="1.3em" x="350" y="50">Microgrid Output</tspan><tspan class="line" dy="2.6em" x="350" y="50">From: April 01, 2022 to April 30, 2022</tspan></text></g><g class="g-xtitle"><text class="xtitle" x="350" y="476.409375" text-anchor="middle" style="font-family: 'Open Sans', verdana, arial, sans-serif; font-size: 14px; fill: rgb(42, 63, 95); opacity: 1; font-weight: normal; white-space: pre;">Time</text></g><g class="g-ytitle"><text class="ytitle" transform="rotate(-90,27.168750000000003,260)" x="27.168750000000003" y="260" text-anchor="middle" style="font-family: 'Open Sans', verdana, arial, sans-serif; font-size: 14px; fill: rgb(42, 63, 95); opacity: 1; font-weight: normal; white-space: pre;">Demand (kW)</text></g></g></svg>