<svg class="main-svg" xmlns="http://www.w3.org/2000/svg" xmlns:xlink="http://www.w3.org/1999/xlink" width="700" height="500" style="" viewBox="0 0 700 500"><rect x="0" y="0" width="700" height="500" style="fill: rgb(255, 255, 255); fill-opacity: 1;"/><defs id="defs-6dd846"><g class="clips"><clipPath id="clip6dd846xyplot" class="plotclip"><rect width="540" height="320"/></clipPath><clipPath class="axesclip" id="clip6dd846x"><rect x="80" y="0" width="540" height="500"/></clipPath><clipPath class="axesclip" id="clip6dd846y"><rect x="0" y="100" width="700" height="320"/></clipPath><clipPath class="axesclip" id="clip6dd846xy"><rect x="80" y="100" width="540" height="320"/></clipPath></g><g class="gradients"/><g class="patterns"/></defs><g class="bglayer"/><g class="layer-below"><g class="imagelayer"/><g class="shapelayer"/></g><g class="cartesianlayer"><g class="subplot xy"><g class="layer-subplot"><g class="shapelayer"/><g class="imagelayer"/></g><g class="minor-gridlayer"><g class="x"/><g class="y"/></g><g class="gridlayer"><g class="x"><path class="xgrid crisp" transform="translate(152.03,0)" d="M0,100v320" style="stroke: rgb(255, 255, 255); stroke-opacity: 1; stroke-width: 1px;"/><path class="xgrid crisp" transform="translate(278.07,0)" d="M0,100v320" style="stroke: rgb(255, 255, 255); stroke-opacity: 1; stroke-width: 1px;"/><path class="xgrid crisp" transform="translate(404.11,0)" d="M0,100v320" style="stroke: rgb(255, 255, 255); stroke-opacity: 1; stroke-width: 1px;"/><path class="xgrid crisp" transform="translate(530.1600000000001,0)" d="M0,100v320" style="stroke: rgb(255, 255, 255); stroke-opacity: 1; stroke-width: 1px;"/></g><g class="y"><path class="ygrid crisp" transform="translate(0,371.52)" d="M80,0h540" style="stroke: rgb(255, 255, 255); stroke-opacity: 1; stroke-width: 1px;"/><path class="ygrid crisp" transform="translate(0,294.51)" d="M80,0h540" style="stroke: rgb(255, 255, 255); stroke-opacity: 1; stroke-width: 1px;"/><path class="ygrid crisp" transform="translate(0,140.49)" d="M80,0h540" style="stroke: rgb(255, 255, 255); stroke-opacity: 1; stroke-width: 1px;"/></g></g><g class="zerolinelayer"><path class="yzl zl crisp" transform="translate(0,217.5)" d="M80,0h540" style="stroke: rgb(255, 255, 255); stroke-opacity: 1; stroke-width: 2px;"/></g><path class="xlines-below"/><path class="ylines-below"/><g class="overlines-below"/><g class="xaxislayer-below"/><g class="yaxislayer-below"/><g class="overaxes-below"/><g class="plot" transform="translate(80,100)" clip-path="url(#clip6dd846xyplot)"><g class="scatterlayer mlayer"><g class="trace scatter tracefcfc24" style="stroke-miterlimit: 2; opacity: 0.5;"><g class="fills"/><g class="errorbars"/><g class="lines"><path class="js-line" d="M0,117.49L0.56,224.69L0.75,147.16L1.69,140.07L2.06,140.84L2.25,140.45L3,139.28L3.19,139.36L3.38,139.04L3.56,216.81L4.13,139.54L4.31,137.11L4.5,211.14L4.88,127.57L5.06,123.86L5.25,124.15L5.44,120.36L6.38,117.4L6.56,117.46L6.75,119.16L7.13,115.83L7.32,117.43L7.5,117.51L7.69,119.1L8.25,115.78L8.63,117.49L8.82,117.5L10.13,117.49L10.32,55.16L10.69,42.41L11.25,44.14L11.44,49.26L11.82,35.26L12.19,43.23L12.38,52L13.88,117.62L14.25,117.55L14.44,117.52L18.01,117.5L18.19,117.51L19.13,117.49L19.32,133.41L20.07,142.61L20.26,141.77L20.44,140.83L20.82,142.02L21.01,141.47L21.19,140.21L21.57,140.01L21.95,141.13L22.13,140.94L22.32,139.35L22.7,130.5L22.88,202.09L23.82,117.43L24.01,117.46L24.95,117.43L25.13,119.2L25.32,115.74L25.88,119.2L26.07,115.79L26.82,119.1L27.01,117.58L27.2,115.79L27.38,117.58L27.95,117.44L28.13,117.48L28.32,117.53L28.51,81.3L28.89,47.77L29.07,117.2L29.45,117.47L29.64,51.75L30.2,117.5L30.39,108.12L30.57,58.35L31.7,117.6L32.26,117.5L32.45,117.49L34.14,117.52L34.32,117.48L37.14,117.49L37.33,120L37.89,141.93L38.08,140.52L38.26,140.48L38.83,140.36L39.01,140.82L39.2,141.85L39.58,140.14L39.76,140.08L40.14,141.1L40.51,138.82L40.7,135.89L40.89,131.51L41.08,133.65L41.26,215.21L42.2,126.39L42.39,117.74L43.33,117.34L43.52,117.58L44.08,117.57L44.27,119.17L44.83,115.82L45.02,117.42L45.2,119.2L45.58,115.89L45.95,117.48L46.14,119.23L46.52,115.78L47.08,117.45L47.27,117.47L47.45,110.69L47.64,31.8L48.02,24.55L48.2,28.75L48.39,39.95L49.33,118.91L49.7,115.9L49.89,117.5L51.02,117.49L51.21,117.49L54.77,117.51L54.96,123.84L55.14,141.34L55.71,140.24L55.89,139.69L56.08,139.84L56.27,141.47L56.83,139.55L57.02,139.85L57.21,216.6L57.39,216.91L57.58,141.86L57.96,139.31L58.15,215.63L58.33,216.36L58.52,141.02L58.9,138.43L59.08,135.79L59.83,130.32L60.02,120.58L60.21,181.57L60.58,117.21L60.77,117.36L62.27,117.37L62.46,119.22L63.02,115.81L63.4,117.52L63.58,117.48L63.77,117.51L63.96,115.81L64.33,117.53L64.52,117.48L64.71,28.04L65.09,20.16L65.46,22.33L65.65,23.03L66.02,24.18L66.21,38.05L67.52,104.45L67.71,114.17L68.46,117.54L68.65,117.5L74.09,117.49L74.28,125.81L74.46,141.64L75.03,139.94L75.21,139.46L75.78,142.16L75.96,141.35L76.15,139.7L76.53,138.76L76.71,139.4L76.9,136.48L78.4,124.37L78.59,200.93L78.78,197.57L78.96,117.87L79.53,117.14L79.72,117.5L79.9,117.61L81.03,117.52L81.22,117.48L81.4,119.21L81.59,115.78L81.78,117.54L81.97,85.78L82.15,16L82.72,20.45L82.9,21.24L83.65,26.42L83.84,22.58L84.03,23.11L84.22,32.08L84.59,53.54L84.78,117.71L84.97,117.57L85.15,115.88L85.53,117.62L86.09,117.55L86.28,117.54L91.53,117.47L91.72,132.87L92.28,142.13L92.47,141.22L92.66,140.12L93.41,139.01L93.59,139.59L93.78,140.99L94.16,139.49L94.35,213.57L95.1,122.75L95.28,198.06L96.22,117.43L96.41,117.49L98.66,117.44L98.85,119.24L99.22,115.78L99.41,117.56L99.6,39.34L99.78,26.49L100.35,28.53L100.53,42.98L100.91,119.24L101.47,117.42L101.66,117.58L102.41,117.49L102.6,155.41L102.79,189.1L103.35,170.53L103.54,168.43L103.72,168.31L103.91,166.1L104.47,163.51L104.66,162.24L105.97,148.67L106.16,150.08L106.35,148.53L107.29,144.65L107.47,147.11L108.41,141.82L108.6,142.94L108.79,145.73L109.91,139.45L110.1,142.16L110.29,143.04L110.48,140.66L110.66,217.39L111.04,139.37L111.41,141.1L111.6,141.37L112.16,138.7L112.35,141.18L112.54,141.25L112.73,138.54L113.1,142.06L113.29,228.12L113.48,159.7L113.85,175.76L114.04,258.34L114.23,256.53L114.41,181.5L114.6,178.32L114.79,134.19L114.98,117.41L115.54,117.49L115.73,119.27L116.1,115.81L116.48,117.46L116.67,117.52L118.73,117.4L118.92,131.81L119.1,276.98L119.67,187.33L119.85,183.89L120.42,173.45L120.6,178.92L120.79,186.45L120.98,188.3L121.17,182.57L121.92,166.82L122.1,170.04L122.29,165.4L122.86,159.91L123.04,162.46L123.23,162.14L124.73,145.43L124.92,147.09L125.48,148.06L125.86,144.63L126.04,220.95L126.42,221.93L126.61,143.95L126.79,141.65L127.17,144.7L127.36,143.42L127.54,143.75L128.29,140.27L128.48,140.45L128.67,140.56L128.86,142.24L129.23,139.7L129.42,140.67L129.61,140L129.8,140.3L129.98,218.23L130.55,139.94L130.92,140.22L131.11,222.17L131.3,223.71L131.48,146.25L132.61,184.42L132.8,184.09L132.98,185.37L133.17,191.73L133.36,265.82L133.55,261.8L133.73,182.45L133.92,181.69L134.11,184.23L134.48,170.4L134.67,173.84L134.86,248.94L135.05,254.3L135.23,253.69L135.42,182.94L135.61,182.36L135.8,177.68L137.11,207.41L137.3,206.98L137.49,206.5L137.67,202.53L138.42,181.47L138.61,182.48L138.8,179.77L139.92,170.24L140.11,170.98L140.3,169.44L140.67,244.92L140.86,244.18L141.05,161.89L141.42,161.18L141.61,157.35L142.74,148.38L142.92,149.52L143.86,144.94L144.05,146.6L145.18,142L145.36,143.11L145.93,144.15L146.11,142.03L146.3,140.76L146.49,141.1L146.68,217.39L147.43,140.37L147.61,140.62L147.8,140.5L148.18,141.55L148.36,139.54L148.74,140.54L148.93,140.29L149.11,145.13L149.86,149.96L150.05,233.81L150.24,244.39L150.43,169.15L150.61,167.52L150.8,173.8L150.99,173.87L151.18,248.63L151.37,250.62L151.55,181.47L152.87,212L153.05,292.49L153.24,294.17L153.43,216.37L154.18,205.78L154.37,289.06L154.55,287.07L154.74,288.85L154.93,205.5L156.05,187.18L156.24,261.94L156.43,263.38L156.62,260.76L156.8,257.17L157.74,173.92L157.93,173.46L158.49,169.37L158.68,168.26L160.56,149.85L160.74,152.22L161.68,145.42L161.87,147.46L162.06,149.07L162.24,145.43L162.43,144.96L162.62,146.03L162.99,145.73L163.18,143.67L163.37,142L163.56,143.47L163.74,145.99L164.87,140.61L165.06,140.91L165.24,142.9L165.62,140.46L165.81,140.1L166,140.2L166.18,218.04L166.37,219.18L166.56,141.9L166.75,141.86L166.93,144.2L169,194.96L169.18,191.74L169.56,205.47L169.75,192.11L169.93,184.82L170.68,197.18L170.87,192.96L171.06,190.13L171.25,189.15L171.43,189.77L171.62,196.67L172,220.66L172.56,211.23L172.75,220.27L172.94,220.85L173.12,287.97L173.31,290.3L173.5,289.96L173.69,185.89L174.62,117.27L174.81,117.62L175.37,117.53L175.56,186.03L175.94,227.83L176.12,155.58L176.31,157.33L176.87,169.8L177.25,166.62L177.44,166.51L178.56,150.91L178.75,150.48L178.94,151.15L179.12,149.94L179.31,150.35L179.5,148.73L179.69,149.87L179.87,147.38L180.06,146.03L180.25,149.24L180.63,144.9L180.81,148.65L181,145.99L181.38,146.66L181.75,141.05L181.94,219.52L182.13,222.49L182.31,145.47L183.63,140.8L183.81,141.59L184,143.2L184.19,142.72L184.38,139.74L186.25,117.41L186.44,117.46L186.63,119.16L187,115.79L187.19,117.46L187.38,117.49L189.63,117.54L189.82,99.33L190,47.74L190.57,49.18L190.75,117.12L190.94,117.52L191.13,49.75L191.88,41.7L192.07,43.34L193.94,117.58L194.32,117.56L194.51,117.49L196.01,117.48L196.19,117.53L198.07,117.47L198.26,117.5L198.63,147.61L199.19,146.4L199.38,143.86L199.57,144.81L199.94,143.65L200.13,142.68L200.51,145.22L200.88,142.93L201.07,141.95L201.44,143.08L201.63,142.25L201.82,141.33L202.57,138.29L202.76,134.43L202.95,131.54L203.13,207.85L203.32,198.62L203.51,117.77L204.45,117.45L204.63,117.44L205.01,117.47L205.2,119.15L205.57,115.83L206.13,117.44L206.32,115.9L207.07,117.54L207.26,117.48L207.45,117.53L207.82,117.44L208.01,89.63L208.2,35.99L208.76,36.6L208.95,40.36L209.89,28.69L210.07,30.73L210.26,44.66L211.95,117.56L212.32,117.54L212.51,117.49L213.07,117.56L213.26,119.11L213.82,115.78L214.2,117.52L214.39,117.48L215.32,117.54L215.51,142.15L215.7,145.8L216.26,145.1L216.45,145.16L216.64,142.34L217.01,145.04L217.2,145.41L217.58,141.54L218.14,141.8L218.33,140.61L219.08,142.91L219.26,142.71L219.45,140.71L220.01,142.35L220.2,218.68L221.14,131.34L221.33,136.24L221.89,139.56L222.08,130.98L222.64,117.4L223.01,117.52L223.2,117.47L224.14,117.44L224.33,119.23L224.52,115.76L225.08,119.25L225.27,115.8L225.45,119.22L226.02,117.57L226.2,117.51L226.39,115.89L226.58,117.39L226.77,119.25L227.14,115.87L227.52,117.5L227.7,118.07L228.83,117.43L229.02,117.48L230.14,117.49L230.33,156.05L230.52,161.02L231.08,157.35L231.27,155.47L231.64,153.63L231.83,147.21L232.21,149.59L232.39,145.85L232.77,147.89L232.96,146.52L233.89,144.61L234.08,144.08L234.27,145.05L234.64,144.78L234.83,142.64L235.02,143.93L235.58,143.41L235.77,142.57L235.96,143.08L236.14,141.3L236.33,139.72L236.71,141.93L236.89,219.57L237.08,217.94L237.27,140.91L237.46,140.64L237.65,142.09L237.83,142.57L238.02,140.38L238.4,140.27L238.58,141.62L238.77,219.73L239.33,162.42L239.52,171.02L240.83,187.88L241.02,187.66L241.21,185.52L241.4,188.76L241.58,267.99L241.96,272.55L242.15,193.8L242.71,180.44L242.9,188.9L243.08,197.34L243.46,192.34L243.65,197.35L243.83,198.15L244.58,206.3L244.77,203.95L244.96,203.03L245.34,275.75L245.52,275.09L245.71,199.26L246.09,192.04L246.27,269.61L246.46,270.61L246.65,193.22L247.77,163.54L248.34,164.11L248.52,164.48L249.84,153.31L250.02,150.74L250.4,166.28L250.96,164.75L251.15,164.7L252.09,143.44L252.28,144.72L252.46,146.18L252.65,144.51L252.84,141.44L253.21,145.34L253.59,142.29L253.78,140.62L254.15,143.8L254.34,140.6L254.53,140.31L254.9,139.03L255.09,140.18L255.28,141.45L256.03,139.29L256.21,139.7L256.4,141.9L256.78,139.78L256.96,141.58L257.15,221.44L257.34,146.43L257.9,162.48L258.09,170.17L258.46,154.09L258.84,168.03L259.03,175.11L259.22,253.88L259.78,183.62L259.97,186.06L260.15,179.2L260.53,188.99L260.72,188.65L260.9,191.6L261.09,183.89L261.28,180.31L261.65,188.98L261.84,185.91L262.03,183.19L263.15,204.51L263.34,286.73L263.72,287.61L263.9,280.83L264.84,197.98L265.03,193.84L266.15,165.63L266.34,164.6L268.78,148.36L268.97,146.91L269.16,146.57L269.34,148.38L270.66,142.13L270.84,142.23L271.03,143.88L271.22,144.22L271.41,141.32L271.78,142.69L271.97,142.36L272.16,140.59L272.34,140.06L272.72,141.04L272.91,141.94L273.28,138.53L273.66,138.96L273.85,141.8L274.03,141.49L274.22,139.02L274.41,140.05L274.6,216.04L274.78,140.5L275.35,148.71L275.53,163.16L275.91,178.3L276.1,255.09L276.66,279.45L276.85,197.35L277.41,189.85L277.6,196.33L277.78,198.67L278.72,185.8L279.1,186.81L279.28,265.74L279.66,273.06L279.85,203.62L280.22,216.09L280.41,302.49L280.6,304L280.78,298.09L281.16,301.77L281.72,208.09L281.91,202.18L283.6,174.26L283.79,175.2L284.54,165.15L284.72,169.28L284.91,170.37L286.04,146.27L286.22,146.81L286.41,146.61L286.6,145.1L286.79,144.4L286.97,146.7L287.35,141.98L287.72,146.2L287.91,145.51L288.48,141.57L288.66,144.08L288.85,142.51L289.04,141.13L289.23,142.72L289.41,142.39L289.6,144.08L289.79,217.72L289.98,141.42L290.16,141.9L290.35,140.94L290.54,142.83L290.91,139.94L291.1,141.2L291.29,142.34L291.48,142.29L291.66,140.96L292.04,138.61L292.23,142.64L292.41,143.1L292.6,139.66L293.54,150.26L293.73,247.88L293.91,265.04L294.1,264.11L294.29,189.36L294.48,190.78L294.66,271.12L294.85,270.49L295.04,190.3L295.79,213.66L295.98,208.81L296.17,200.52L296.54,194.06L296.73,183.6L297.29,164.77L297.67,167.93L297.85,173.13L298.23,180.32L298.42,177.74L298.6,256.04L298.79,259.77L298.98,259.15L299.17,184.1L299.73,267.12L299.92,181.59L300.1,166.97L300.29,245.55L300.85,256.58L301.04,181L301.98,176.67L302.17,164.54L303.11,152.09L303.29,153.83L303.48,155.87L304.79,142.02L304.98,141.88L305.17,143.3L305.36,142.54L305.54,139.77L305.73,137.74L305.92,139.67L306.11,142.26L306.86,138.38L307.04,138.9L307.23,141.26L307.42,218.05L307.79,138.71L307.98,140.22L308.17,140.08L308.36,138.88L308.92,139.97L309.11,139.39L309.29,138.32L309.67,137.78L309.86,139.57L310.98,137.99L311.17,140.24L312.11,145.62L312.3,146.33L312.48,146.71L312.67,154.62L312.86,155.04L313.05,152.05L313.98,195.84L314.36,182.23L314.55,178.11L315.11,160.35L315.48,166.84L315.67,167.55L315.86,167.89L316.05,243.8L316.23,247.9L316.42,169.67L317.17,174.09L317.36,167.94L317.74,174.79L317.92,170.79L318.11,165.01L318.3,164.88L318.49,163.11L318.86,166.32L319.24,163.79L319.42,164.79L319.8,164.21L319.99,237.37L320.17,234.65L320.36,158.85L320.74,153.15L321.3,153.27L321.49,152L321.67,151.13L321.86,224.92L322.05,224.44L322.24,225.45L322.42,146.25L322.61,145.16L322.8,221.73L323.17,222.89L323.36,143.14L323.74,144.29L324.11,143.45L324.3,143.79L324.49,145.08L324.86,142.66L325.05,143L325.99,138.33L326.18,137.6L326.93,139.15L327.11,137.6L327.3,138.47L327.49,214.9L327.68,214.89L327.86,138.64L328.8,137.28L328.99,137.8L330.3,154.13L330.49,242.45L330.86,227.6L331.05,152.32L331.43,152.29L331.62,231.38L331.8,234.32L331.99,157.13L332.18,153.1L332.55,157.93L332.74,158.78L333.87,169.2L334.05,170.52L334.24,167.69L334.43,169.22L334.62,174.38L335.18,175.45L335.37,172.65L335.55,177.35L335.74,179.58L335.93,173.49L336.12,165.85L336.49,173.82L337.05,171.8L337.24,168.96L337.62,169.22L338.18,163.18L338.37,240.79L338.93,236.24L339.12,157.82L339.31,157.43L339.49,155.3L340.99,146.28L341.18,147.53L341.74,144.79L341.93,145.24L342.12,146.05L342.68,142.52L342.87,144.46L343.06,146.7L344.37,138.28L344.56,138.25L345.12,137.8L345.31,138.35L345.49,138.13L346.06,137.74L346.25,138.26L346.81,138.16L347,139.25L347.56,148.68L347.75,159.09L348.5,187.34L349.06,180.89L349.25,182.6L349.43,182.85L349.62,185.17L349.81,186.71L350,265.94L350.18,269.24L350.37,268.34L350.56,193.16L350.75,193.39L350.93,188.58L351.31,184.62L351.5,185.86L351.68,196.79L352.81,207.4L353,207.85L353.19,208.86L353.37,201.99L354.31,186.78L354.5,263.68L354.69,265.34L354.87,263.94L355.06,187.14L356.19,170.82L356.37,171.55L357.12,164.43L357.31,160.36L357.5,160.66L357.69,159.52L358.81,148.4L359,148.54L359.56,146.27L359.75,147.09L359.94,147.69L360.5,145.81L360.69,144.42L361.06,141.16L361.25,142.74L361.44,146.13L362.19,140.08L362.38,142.07L362.56,141.59L363.5,139.68L363.69,139.86L364.06,141.38L364.25,139.83L364.44,138.95L365.19,145.04L365.38,155.79L366.13,176.11L366.31,261.33L366.5,271.05L366.69,195.93L367.44,211.99L367.63,209.65L367.82,199.74L368.57,117.44L368.75,117.52L368.94,119.23L369.32,115.79L369.69,117.53L369.88,117.47L370.63,117.47L370.82,119.23L371.38,115.74L371.75,117.39L371.94,117.44L375.51,117.51L375.69,146.39L376.07,153.34L376.44,151.17L376.63,149.48L377.01,150.17L377.19,148.83L377.38,148.2L377.57,146.31L377.94,148.61L378.13,148.23L378.32,147.65L378.88,147.83L379.07,144.54L379.26,145.14L379.63,141.58L379.82,144.37L380.01,145.03L380.19,142.17L380.38,144.42L380.76,141.95L380.94,144.33L381.13,143.47L381.32,141.38L381.88,143.01L382.07,141.43L382.26,142.98L382.45,140.79L382.63,137.38L382.82,214.09L383.01,134.5L383.38,145.71L383.57,144.49L384.13,123.47L384.32,179.32L384.51,117.3L384.88,197.86L385.07,160.43L385.26,122.26L385.63,115.87L386.2,115.96L386.38,117.51L387.51,117.7L387.7,119.46L388.07,116.05L388.63,117.31L388.82,117.26L389.76,117.73L389.95,117.63L391.26,117.38L391.45,119.14L391.64,117.56L391.82,130.45L392.95,164.52L393.32,163.33L393.51,161.49L394.45,152.28L394.64,154.48L394.82,154.17L395.01,149.96L395.2,151.42L395.57,148.72L395.76,148.49L397.26,146.13L397.45,145.44L397.83,143.21L398.2,144.16L398.39,145.76L398.58,145.67L398.76,143.24L398.95,142.84L399.14,143.88L399.33,144.34L399.51,140.76L400.08,142.02L400.26,140.86L402.14,117.5L402.33,117.39L403.27,117.47L403.45,117.44L404.95,117.54L405.14,117.44L405.33,119.27L405.52,115.76L405.89,117.41L406.08,117.6L406.27,119.12L406.45,117.56L406.64,115.76L406.83,119.19L407.39,117.57L407.58,119.12L407.95,115.69L408.33,117.52L408.52,117.56L408.89,117.59L409.08,119.28L409.64,115.84L410.02,117.46L410.2,117.63L411.52,117.46L411.71,117.49L413.21,117.5L413.39,135.21L413.58,147.8L414.14,145.19L414.33,145.33L414.52,146.06L414.71,145.22L414.89,143.93L415.08,144.14L415.27,141.97L415.46,142.71L415.64,142.24L415.83,139.4L416.21,141.4L416.39,139.33L416.58,139.04L417.33,140.54L417.52,139.43L417.71,138.32L418.08,140.04L418.27,140.55L420.15,117.48L420.33,117.44L422.02,117.46L422.21,119.19L422.77,115.79L422.96,117.44L423.15,117.58L424.46,117.5L424.65,117.5L425.02,65.98L425.59,67.18L425.77,67.22L426.15,58.57L426.34,60.88L426.52,70.1L428.02,117.59L428.21,117.5L428.4,117.59L431.02,117.48L431.21,117.5L431.96,117.52L432.15,125.54L432.34,145.23L432.9,144.57L433.09,144.81L434.21,139.7L434.4,140.45L434.59,140.14L434.78,140.17L434.96,138.58L435.15,138.26L435.34,140.64L435.53,140.81L435.71,139.92L436.84,134.46L437.03,128.28L437.78,117.43L437.96,117.46L438.15,117.45L438.71,117.45L438.9,119.13L439.09,115.81L439.65,117.48L439.84,117.5L440.4,117.49L440.59,119.2L440.97,115.78L441.34,117.55L441.53,61.17L442.28,38.13L442.47,39.66L442.65,43.25L442.84,41.49L443.03,48.41L443.4,62.03L443.59,117.68L443.78,117.51L443.97,115.77L444.34,45.06L444.72,58.53L444.9,68.69L445.47,118.64L446.03,115.86L446.22,117.57L449.22,117.49L449.41,146.69L449.78,149.71L449.97,147.55L450.16,145.46L450.34,149.14L450.91,147.38L451.09,144.35L451.47,145.56L451.66,143.43L451.84,144.64L452.03,142.91L452.41,143.61L452.97,140.29L453.16,141.04L453.34,139.58L453.72,141.8L453.91,141.97L454.1,142.13L454.28,139.06L454.66,136.67L454.85,133.7L455.03,131.31L455.22,201.4L455.41,196.92L455.6,117.97L456.53,117.43L456.72,117.45L457.47,117.49L457.66,119.18L458.6,115.85L458.78,117.51L458.97,119.22L459.16,117.47L459.35,115.84L460.1,117.51L460.28,68.12L460.47,40.05L461.04,46.62L461.22,48.98L461.79,51.28L461.97,46.73L462.16,40.08L462.35,116.82L462.72,117.55L462.91,115.88L463.29,91.09L463.47,103.47L463.66,112.96L464.6,117.58L464.79,117.48L467.04,117.51L467.22,117.48L468.16,117.67L468.35,148.39L468.54,149.15L468.91,147.85L469.1,146.27L469.48,147.6L469.66,145.12L469.85,147.17L470.23,144.02L470.41,145.5L470.6,145.87L471.91,141.18L472.1,145.17L473.41,128.79L473.6,118.54L474.54,117.42L474.73,117.49L475.1,117.42L475.29,119.21L475.48,115.88L476.04,117.54L476.23,117.53L477.73,117.46L477.92,119.14L478.67,115.69L478.85,119.26L479.23,115.8L479.79,117.46L479.98,119.11L480.35,115.74L480.73,117.53L480.92,117.53L483.36,117.53L483.54,143.09L483.73,162.98L484.29,157.57L484.48,156.84L485.61,150.4L485.79,152.58L486.17,152.94L487.48,147.14L487.67,147.82L488.42,146.28L488.61,147L489.17,147.53L489.54,144.37L489.73,144.47L491.23,133.91L491.42,141.45L492.17,117.5L492.36,173.35L493.11,116.6L493.67,117.51L493.86,117.5L497.8,117.52L497.99,117.36L498.36,74.49L498.92,83.68L499.11,91.07L499.3,94.01L499.49,109.03L499.86,117.58L500.24,117.55L500.42,117.46L502.86,117.5L503.05,117.49L503.61,117.49L503.8,119.42L504.18,150.53L504.74,149.15L504.93,147.56L505.11,148.67L505.49,146.97L505.68,145.93L505.86,144.64L506.05,146.5L506.24,147.69L506.99,143.96L507.18,145.38L508.49,138.25L508.68,214.73L509.43,129.78L509.61,129.87L509.8,124.91L509.99,117.92L510.18,182.76L510.55,117.07L511.11,117.47L511.3,117.47L511.49,117.44L511.68,119.17L512.24,115.9L512.62,117.5L512.8,117.5L515.05,117.37L515.24,76.91L516.18,39.47L516.37,43.76L516.55,53.34L518.24,117.57L518.43,117.52L518.62,117.54L521.43,117.49L521.62,126.63L521.99,149.26L522.37,147.84L522.56,146.44L522.74,146.36L522.93,147.78L523.68,143.78L523.87,145.49L524.99,142L525.18,143.88L525.56,140.95L525.93,143.01L526.12,142.77L527.43,128.66L527.62,119.72L528.56,117.4L528.75,117.47L528.93,119.15L529.31,115.78L529.5,117.53L529.68,117.49L530.06,117.41L530.25,119.23L530.81,115.73L531.18,117.39L531.37,119.21L531.75,115.83L532.12,119.2L532.31,117.54L532.5,115.81L532.87,117.42L533.06,117.65L533.25,119.14L533.44,117.44L533.62,117.45L533.81,117.53L534.19,117.48L534.37,115.87L535.12,117.6L535.31,117.51L535.5,117.55L539.62,117.45L539.81,131.51L540,151.03" style="vector-effect: non-scaling-stroke; fill: none; stroke: rgb(0, 191, 255); stroke-opacity: 1; stroke-width: 2px; opacity: 1;"/></g><g class="points"/><g class="text"/></g></g></g><g class="overplot"/><path class="xlines-above crisp" d="M0,0" style="fill: none;"/><path class="ylines-above crisp" d="M0,0" style="fill: none;"/><g class="overlines-above"/><g class="xaxislayer-above"><g class="xtick"><text text-anchor="middle" x="0" y="433" transform="translate(152.03,0)" style="font-family: 'Open Sans', verdana, arial, sans-serif; font-size: 12px; fill: rgb(42, 63, 95); fill-opacity: 1; white-space: pre; opacity: 1;"><tspan class="line" dy="0em" x="0" y="433">Jun 5</tspan><tspan class="line" dy="1.3em" x="0" y="433">2022</tspan></text></g><g class="xtick"><text text-anchor="middle" x="0" y="433" style="font-family: 'Open Sans', verdana, arial, sans-serif; font-size: 12px; fill: rgb(42, 63, 95); fill-opacity: 1; white-space: pre; opacity: 1;" transform="translate(278.07,0)">Jun 12</text></g><g class="xtick"><text text-anchor="middle" x="0" y="433" style="font-family: 'Open Sans', verdana, arial, sans-serif; font-size: 12px; fill: rgb(42, 63, 95); fill-opacity: 1; white-space: pre; opacity: 1;" transform="translate(404.11,0)">Jun 19</text></g><g class="xtick"><text text-anchor="middle" x="0" y="433" style="font-family: 'Open Sans', verdana, arial, sans-serif; font-size: 12px; fill: rgb(42, 63, 95); fill-opacity: 1; white-space: pre; opacity: 1;" transform="translate(530.1600000000001,0)">Jun 26</text></g></g><g class="yaxislayer-above"><g class="ytick"><text text-anchor="end" x="79" y="4.199999999999999" transform="translate(0,371.52)" style="font-family: 'Open Sans', verdana, arial, sans-serif; font-size: 12px; fill: rgb(42, 63, 95); fill-opacity: 1; white-space: pre; opacity: 1;">−100</text></g><g class="ytick"><text text-anchor="end" x="79" y="4.199999999999999" style="font-family: 'Open Sans', verdana, arial, sans-serif; font-size: 12px; fill: rgb(42, 63, 95); fill-opacity: 1; white-space: pre; opacity: 1;" transform="translate(0,294.51)">−50</text></g><g class="ytick"><text text-anchor="end" x="79" y="4.199999999999999" style="font-family: 'Open Sans', verdana, arial, sans-serif; font-size: 12px; fill: rgb(42, 63, 95); fill-opacity: 1; white-space: pre; opacity: 1;" transform="translate(0,217.5)">0</text></g><g class="ytick"><text text-anchor="end" x="79" y="4.199999999999999" style="font-family: 'Open Sans', verdana, arial, sans-serif; font-size: 12px; fill: rgb(42, 63, 95); fill-opacity: 1; white-space: pre; opacity: 1;" transform="translate(0,140.49)">50</text></g></g><g class="overaxes-above"/></g></g><g class="polarlayer"/><g class="smithlayer"/><g class="ternarylayer"/><g class="geolayer"/><g class="funnelarealayer"/><g class="pielayer"/><g class="iciclelayer"/><g class="treemaplayer"/><g class="sunburstlayer"/><g class="glimages"/><defs id="topdefs-6dd846"><g class="clips"/></defs><g class="layer-above"><g class="imagelayer"/><g class="shapelayer"/></g><g class="infolayer"><g class="g-gtitle"><text class="gtitle" x="350" y="50" text-anchor="middle" dy="0em" style="font-family: 'Open Sans', verdana, arial, sans-serif; font-size: 17px; fill: rgb(42, 63, 95); opacity: 1; font-weight: normal; white-space: pre;"><tspan class="line" dy="0em" x="350" y="50">Scenario 5</tspan><tspan class="line" dy="1.3em" x="350" y="50">Microgrid Output</tspan><tspan class="line" dy="2.6em" x="350" y="50">From: June 01, 2022 to June 30, 2022</tspan></text></g><g class="g-xtitle"><text class="xtitle" x="350" y="476.409375" text-anchor="middle" style="font-family: 'Open Sans', verdana, arial, sans-serif; font-size: 14px; fill: rgb(42, 63, 95); opacity: 1; font-weight: normal; white-space: pre;">Time</text></g><g class="g-ytitle"><text class="ytitle" transform="rotate(-90,27.168750000000003,260)" x="27.168750000000003" y="260" text-anchor="middle" style="font-family: 'Open Sans', verdana, arial, sans-serif; font-size: 14px; fill: rgb(42, 63, 95); opacity: 1; font-weight: normal; white-space: pre;">Demand (kW)</text></g></g></svg>