<svg class="main-svg" xmlns="http://www.w3.org/2000/svg" xmlns:xlink="http://www.w3.org/1999/xlink" width="700" height="500" style="" viewBox="0 0 700 500"><rect x="0" y="0" width="700" height="500" style="fill: rgb(255, 255, 255); fill-opacity: 1;"/><defs id="defs-2b4714"><g class="clips"><clipPath id="clip2b4714xyplot" class="plotclip"><rect width="540" height="320"/></clipPath><clipPath class="axesclip" id="clip2b4714x"><rect x="80" y="0" width="540" height="500"/></clipPath><clipPath class="axesclip" id="clip2b4714y"><rect x="0" y="100" width="700" height="320"/></clipPath><clipPath class="axesclip" id="clip2b4714xy"><rect x="80" y="100" width="540" height="320"/></clipPath></g><g class="gradients"/><g class="patterns"/></defs><g class="bglayer"/><g class="layer-below"><g class="imagelayer"/><g class="shapelayer"/></g><g class="cartesianlayer"><g class="subplot xy"><g class="layer-subplot"><g class="shapelayer"/><g class="imagelayer"/></g><g class="minor-gridlayer"><g class="x"/><g class="y"/></g><g class="gridlayer"><g class="x"><path class="xgrid crisp" transform="translate(114.85,0)" d="M0,100v320" style="stroke: rgb(255, 255, 255); stroke-opacity: 1; stroke-width: 1px;"/><path class="xgrid crisp" transform="translate(236.83,0)" d="M0,100v320" style="stroke: rgb(255, 255, 255); stroke-opacity: 1; stroke-width: 1px;"/><path class="xgrid crisp" transform="translate(358.8,0)" d="M0,100v320" style="stroke: rgb(255, 255, 255); stroke-opacity: 1; stroke-width: 1px;"/><path class="xgrid crisp" transform="translate(480.78,0)" d="M0,100v320" style="stroke: rgb(255, 255, 255); stroke-opacity: 1; stroke-width: 1px;"/><path class="xgrid crisp" transform="translate(602.76,0)" d="M0,100v320" style="stroke: rgb(255, 255, 255); stroke-opacity: 1; stroke-width: 1px;"/></g><g class="y"><path class="ygrid crisp" transform="translate(0,410.11)" d="M80,0h540" style="stroke: rgb(255, 255, 255); stroke-opacity: 1; stroke-width: 1px;"/><path class="ygrid crisp" transform="translate(0,370.85)" d="M80,0h540" style="stroke: rgb(255, 255, 255); stroke-opacity: 1; stroke-width: 1px;"/><path class="ygrid crisp" transform="translate(0,331.6)" d="M80,0h540" style="stroke: rgb(255, 255, 255); stroke-opacity: 1; stroke-width: 1px;"/><path class="ygrid crisp" transform="translate(0,292.34000000000003)" d="M80,0h540" style="stroke: rgb(255, 255, 255); stroke-opacity: 1; stroke-width: 1px;"/><path class="ygrid crisp" transform="translate(0,213.82)" d="M80,0h540" style="stroke: rgb(255, 255, 255); stroke-opacity: 1; stroke-width: 1px;"/><path class="ygrid crisp" transform="translate(0,174.57)" d="M80,0h540" style="stroke: rgb(255, 255, 255); stroke-opacity: 1; stroke-width: 1px;"/><path class="ygrid crisp" transform="translate(0,135.31)" d="M80,0h540" style="stroke: rgb(255, 255, 255); stroke-opacity: 1; stroke-width: 1px;"/></g></g><g class="zerolinelayer"><path class="yzl zl crisp" transform="translate(0,253.08)" d="M80,0h540" style="stroke: rgb(255, 255, 255); stroke-opacity: 1; stroke-width: 2px;"/></g><path class="xlines-below"/><path class="ylines-below"/><g class="overlines-below"/><g class="xaxislayer-below"/><g class="yaxislayer-below"/><g class="overaxes-below"/><g class="plot" transform="translate(80,100)" clip-path="url(#clip2b4714xyplot)"><g class="scatterlayer mlayer"><g class="trace scatter trace4efc3e" style="stroke-miterlimit: 2; opacity: 0.5;"><g class="fills"/><g class="errorbars"/><g class="lines"><path class="js-line" d="M0,192.13L0.18,194.71L0.54,189.41L0.73,190.3L1.27,190.81L1.63,186.68L1.82,188.94L2,188.36L2.18,184.6L2.54,188.74L2.9,184.37L3.09,184.83L3.45,183.07L3.81,185.6L3.99,184.26L4.36,177.54L4.54,272.08L4.72,270.51L4.9,167.39L5.81,152.97L5.99,153.04L7.26,153.04L7.44,151.49L7.81,147.87L7.99,41.26L8.71,141.86L8.89,41.07L9.26,64.41L9.44,57.9L9.62,145.4L9.8,145.11L9.98,148.04L10.16,48.74L10.89,51.03L11.07,53.71L11.25,55.13L11.44,47.81L11.62,44.33L11.8,46.16L11.98,58.72L13.79,153.21L13.98,153.11L14.16,153.13L15.07,153.06L15.25,170.2L16.15,199.24L16.34,194.4L16.52,194.16L16.7,195.61L17.06,195.86L18.7,185.84L18.88,187.62L19.06,188.55L19.24,185.49L19.42,186.07L19.6,185.08L19.78,184.01L19.97,183.92L20.15,185.49L20.69,182.02L20.87,182.84L21.06,184.72L21.96,174.53L22.14,171.04L22.51,157.48L22.69,234.49L23.05,152.98L23.6,153.01L23.78,152.97L24.14,152.96L24.32,155.21L24.5,153.03L24.69,121.04L25.05,22.02L25.59,29.88L25.77,32.41L25.96,30.68L26.14,34.99L26.5,32.36L26.68,37.58L27.23,42.66L27.41,39.38L27.59,38.72L28.13,38.4L28.5,46.53L28.68,45.82L28.86,38.81L29.04,33.4L29.22,41.11L29.41,48.92L31.4,153.15L31.58,153.14L32.67,153.05L32.85,170.13L33.04,195.51L33.76,191.57L33.94,192.14L34.85,188.03L35.03,188.65L35.21,189.15L35.39,185.39L35.76,186.69L35.94,183.11L36.12,184.28L36.48,182.71L36.67,180.66L36.85,181.18L37.03,185.89L38.12,181.73L38.3,182.23L38.66,180.47L38.84,181.67L39.39,169.83L39.57,262.31L40.48,153L40.66,153.02L41.57,153.04L41.75,100.95L42.11,18L42.66,18.68L42.84,17.86L43.93,29.45L44.11,126.8L44.29,129.26L44.47,34.08L44.65,30.15L45.02,35.55L45.2,31.72L45.38,36.26L45.56,36.22L45.74,34.93L45.92,35.67L46.29,34.27L46.47,29.72L46.65,30.84L46.83,45.78L47.56,91.81L47.74,153.92L48.46,150.96L48.65,153.17L48.83,153.14L49.01,153.11L49.19,167.57L49.37,200.31L49.92,195.98L50.1,192.41L50.82,187.59L51.01,188.36L51.19,189.5L51.91,185.45L52.09,185.53L52.28,185.09L52.64,185.47L52.82,180.51L53.18,184.57L53.55,183.12L53.73,280.4L54.27,180.77L54.64,181.46L54.82,181.79L55,180.82L55.18,278.55L55.36,280.46L55.54,279.65L55.72,183.27L56.81,172.11L56.99,163.44L57.72,153L57.9,172.21L58.08,192.29L58.27,151.77L58.45,152.96L58.63,153.04L58.81,155.18L58.99,153L59.17,153.05L59.35,150.9L59.54,153.06L59.72,130.87L60.08,16L60.63,22.1L60.81,23.94L60.99,23.29L61.17,27.95L61.53,26.33L61.9,26.78L62.08,29.74L63.35,38.2L63.71,36.32L63.89,32.23L64.26,49.68L64.44,64.15L66.07,153.18L66.43,153.11L66.62,153.1L67.52,153.07L67.7,155.7L68.25,192.78L68.61,189.93L68.79,190.01L69.7,185.84L69.88,187.49L70.25,183.32L70.43,183.75L70.61,187.62L70.97,182.49L71.52,183.74L71.7,184.15L72.06,180.6L72.24,181.75L72.42,183.49L72.79,182.37L72.97,180.55L73.33,185.12L73.69,180.74L73.88,178.06L75.15,152.96L75.51,153.04L75.69,155.18L76.05,150.79L76.42,152.97L76.6,155.2L77.14,155.31L77.32,150.91L77.51,47.87L77.69,47.11L77.87,55.87L78.05,67.36L78.41,44.97L78.59,33.58L78.96,29.93L79.14,39.89L79.68,72.7L80.23,63.39L80.41,62.78L80.77,153.07L80.95,90.09L81.14,47.39L81.32,38.46L81.68,54.13L81.86,69.86L82.59,115.24L82.77,134.54L83.5,153.2L83.86,153.05L84.04,153.16L84.95,153.03L85.13,174.26L85.31,193.84L85.86,188.9L86.04,185.44L86.4,190.69L86.94,188.68L87.13,186.17L87.31,186.91L87.49,186.61L87.67,184.72L87.85,185.14L88.03,184.21L88.22,187.76L88.58,182.56L88.94,183.13L89.12,185.01L89.85,182.15L90.03,184.36L90.21,279.72L90.39,179.59L90.76,183.56L90.94,184.07L92.57,152.97L92.75,189.3L93.3,151.75L93.66,152.99L93.84,152.97L94.02,151.1L94.21,153.07L94.57,153.1L94.75,153.02L94.93,152.99L95.11,90.64L95.29,43.8L95.66,55.64L95.84,152.22L96.02,153.05L96.2,107.36L96.93,47.33L97.11,49.26L97.29,51.9L97.84,41.48L98.02,44.44L98.2,48.12L98.56,43.77L98.74,45.71L98.92,65.5L100.74,153.08L100.92,153.16L102.37,153.05L102.55,188.71L102.74,196.16L103.28,193.1L103.46,192.74L104.19,184.93L104.37,186.44L104.55,188.62L104.73,188.39L104.91,185.29L105.28,188.85L105.46,182.99L105.82,187.41L106,186.75L106.18,183.24L106.37,180.22L106.55,183.91L106.73,282.32L106.91,280.57L107.09,183.17L107.27,180.41L107.46,182.27L107.64,186.31L110.18,153.01L110.36,156.63L110.54,152.31L111.09,152.93L111.27,153.14L111.63,153.06L111.81,135.71L111.99,23.76L112.72,33.76L112.9,35.67L113.08,36.2L113.26,146.58L113.45,153.06L113.63,65.67L114.17,44.24L114.72,48.42L114.9,49.22L115.26,50.53L115.44,60.06L116.71,94.5L116.89,94.93L117.08,97.93L117.26,112.85L118.35,153.2L118.53,153.11L118.71,153.1L118.89,153.09L119.07,155.23L119.25,223.45L119.8,196.25L119.98,195.23L120.34,192.85L120.52,195.36L121.43,188.23L121.61,188.62L121.79,190.32L122.88,183.76L123.07,187.1L123.25,190.26L123.61,183.81L123.79,183.69L123.97,186.4L124.34,182.37L124.52,183.61L124.7,183.61L124.88,184.23L125.06,182.96L125.24,181.22L125.61,184.8L125.97,182.45L126.15,180.1L127.6,152.95L127.78,153.06L127.97,153.01L128.87,152.96L129.06,155.37L129.6,150.83L129.78,153.06L129.96,155.21L130.14,148.73L130.33,44.56L130.51,39.27L130.69,54.4L130.87,56.23L131.23,39.41L131.78,42.38L131.96,43.84L132.87,70.98L133.05,61.47L133.41,46.62L133.77,56.19L133.96,61.69L134.68,154L135.41,153.12L135.59,153.21L136.32,153.12L136.5,198.15L137.04,206.41L137.22,195.83L137.41,197.28L137.77,195.31L137.95,195.19L138.86,189.31L139.04,189.06L139.22,190.16L139.58,188.88L139.76,189.62L139.95,185.79L140.31,189.83L140.67,185.82L140.85,187.34L141.4,181.27L141.58,187.66L141.76,186.53L141.94,182.61L142.12,183.47L142.31,277.97L142.85,180.85L143.21,182.11L143.39,181.37L143.58,181.38L143.76,178.23L145.39,152.99L145.57,153.02L146.3,153.03L146.48,70.54L146.66,25.93L147.21,51.12L147.39,50.14L147.57,50.53L147.75,140.14L147.93,133.24L148.11,137.27L148.3,35.66L149.75,51.5L149.93,48.04L150.11,52.38L150.84,51.91L151.02,52.59L151.38,71.9L151.56,82.71L151.74,153.39L152.47,153.1L152.65,153.22L154.29,153.06L154.47,200.61L154.65,203.3L154.83,196.5L155.01,194.57L155.37,193.27L155.56,196.01L155.74,193.75L156.1,193.2L156.28,191.24L156.46,193.11L156.65,191.41L156.83,188.59L157.01,189.66L157.55,189.08L157.73,187.5L157.92,186.91L158.1,188.26L158.28,185.23L158.46,184.76L158.64,188.12L159.55,182.87L159.73,182.92L159.91,183.58L160.09,283.14L160.64,182.21L160.82,180.22L161,183.83L161.18,180.92L161.36,175.74L161.55,270.3L161.73,167.98L162.09,240.84L162.27,153.1L163.36,152.96L163.54,153.05L163.72,153.05L163.91,106.67L164.27,24.19L164.45,28.79L164.63,129.41L164.81,128.6L164.99,130.73L165.18,34.36L165.36,33.02L165.54,40.32L166.45,51.27L166.63,46.36L166.81,52.49L166.99,52.33L167.17,143.62L167.54,153.03L167.72,56.05L168.08,52.37L168.44,54.14L168.63,59.4L170.44,153.25L170.62,153.03L171.53,153.03L171.71,159.41L171.89,208.2L172.44,204.32L172.62,195.3L172.98,199.16L173.16,194.08L173.34,195.96L173.53,192.47L173.71,196.08L174.07,190.56L174.25,194.18L174.43,191.66L175.16,188.19L175.34,189.04L175.52,190.35L176.25,184.9L176.43,186.52L176.61,188.58L177.7,180.93L177.88,183.52L178.06,185.05L178.43,183.39L178.61,177.34L178.79,178.82L178.97,175.34L179.15,166.88L180.24,153L180.42,153L181.15,152.99L181.33,155.2L181.69,150.96L181.88,153.01L182.06,136.64L182.6,38.6L182.78,138.01L182.96,139.19L183.15,42.99L183.51,54.52L183.69,152.69L183.87,153.05L184.05,79.04L184.78,153.14L184.96,153.01L185.14,153.09L185.69,53.17L186.05,64.01L186.23,72.32L187.87,153.19L188.23,153.15L188.41,153.14L189.14,153.09L189.32,177.89L189.68,199.44L190.04,193.73L190.23,195.97L190.41,195.29L190.59,190.95L190.95,192.96L191.13,190.33L191.86,187.82L192.04,189.27L192.22,189.04L192.58,184.44L193.13,185.32L193.31,184.15L193.49,183.99L193.67,185.49L193.86,182.38L194.4,182.66L194.58,183.44L194.94,180.45L195.13,181.39L195.31,185.01L196.03,176.77L196.22,274.03L196.4,268.78L196.58,168.79L196.76,169.38L196.94,161.66L197.3,152.96L197.85,153.03L198.03,153.01L198.76,153.11L198.94,155.14L199.12,153.09L199.3,73.95L199.48,31.23L200.03,50.25L200.21,48.83L201.12,34.59L201.3,43.92L201.48,152.33L202.02,55.59L202.21,56.75L202.93,59.7L203.11,56.03L203.66,87.3L203.84,97.68L205.29,153.19L205.47,153.12L206.74,152.97L206.92,168.14L207.11,195.5L207.83,192.59L208.01,190.4L208.19,191.66L208.38,190.78L208.56,187.64L208.74,188.43L208.92,187.33L209.1,185.61L209.28,185.73L209.47,185.38L209.65,187.9L210.55,182.9L210.74,183.18L211.1,183.67L211.28,182.59L211.46,180.42L211.83,185.62L212.01,183.25L212.19,180.6L212.73,180.2L212.91,181.93L213.1,280.04L213.28,279.61L213.46,276.11L214.37,160.42L214.55,157.22L215.46,152.98L215.64,153.07L216.36,152.92L216.54,67.25L216.91,23.4L217.45,28.66L217.63,35.02L217.82,35.75L218,34.8L218.18,139.48L218.9,153.09L219.09,153.08L219.27,128.64L219.81,67.21L220.17,72.9L220.36,74.9L220.54,74.95L220.72,81.29L222.35,153.21L222.72,153.17L222.9,153.12L223.99,153.03L224.17,185.25L224.35,200.54L224.89,195.89L225.08,195.51L225.8,190.93L225.98,193.63L226.89,186.28L227.07,186.7L227.25,189.17L227.44,190.18L227.62,186.82L227.8,188.1L228.16,186.2L228.34,184.51L228.71,186.93L228.89,184.41L229.07,184.1L229.25,182.24L229.43,185.68L229.61,186.46L229.79,181.64L230.34,182.58L230.52,183.6L230.88,178.8L231.07,176.54L232.52,153.03L232.7,153L233.24,153.19L233.43,155.17L233.61,150.81L234.15,153L234.33,153.14L234.51,153.07L234.7,90.89L234.88,151.76L235.24,44.69L235.42,41.05L237.06,84.22L237.24,71.64L237.42,61.33L237.96,65.92L238.14,70.55L238.33,59.46L238.51,80.25L238.69,100.43L240.5,153.17L240.69,153.12L241.41,153L241.59,201.44L241.77,202.79L241.96,200.41L242.14,196.38L242.32,197.46L242.5,193.55L242.68,193.83L242.86,195.78L243.77,190.52L243.95,192.24L244.13,192.57L244.32,190.3L244.86,187.76L245.04,190.19L245.22,188.98L245.41,188.77L245.59,186.73L245.95,188.28L246.13,185.15L246.49,185.63L246.68,185.3L246.86,187.52L247.04,183.08L247.4,186.2L247.58,184.41L247.76,184.81L247.95,183.04L248.13,184.32L248.31,182.9L248.49,177.26L249.76,152.98L249.94,217.78L250.12,224.67L250.31,152.86L250.85,153.02L251.03,155.09L251.76,150.94L251.94,153.11L252.12,153.03L252.48,153.07L252.67,118.92L252.85,48.88L253.39,77.06L253.57,77.99L254.48,63.63L254.66,66.11L254.84,79.41L256.84,153.16L257.02,153.15L258.11,153.02L258.29,153.12L258.47,153.1L258.66,194.76L259.38,224.56L259.56,222.8L259.74,223.66L261.2,189.88L261.38,191.08L261.56,194.95L262.47,187.66L262.65,189.94L262.83,192.69L263.92,185.43L264.1,188.21L264.83,182.6L265.01,187.71L265.19,188.14L265.37,183.57L265.73,282.37L266.1,175.46L266.28,270.32L266.46,269.54L266.64,256.08L266.82,245.01L267.01,153.38L267.91,152.93L268.09,153.08L268.64,153.03L268.82,110.18L269.18,36.67L269.36,45.38L269.55,140.44L269.73,142.04L269.91,51.88L270.27,44.63L270.45,52.05L270.64,54.3L270.82,50.38L271,151.83L271.18,153.02L271.36,65.76L271.54,57.04L271.91,67.47L272.09,79.97L272.45,69.97L272.63,67L272.81,61.16L272.99,70.73L273.18,79.32L273.72,114.59L273.9,154.42L274.45,151.01L274.81,153.08L274.99,153.18L275.35,153.1L275.54,211.77L275.72,216.61L276.26,211.72L276.44,210.64L276.81,224.61L276.99,219.61L277.17,208.14L278.26,192.2L278.44,195.15L278.62,196.34L278.8,191.16L279.17,195.6L279.35,191.1L279.89,192.53L280.07,190.13L280.44,192.18L280.8,188.47L280.98,189.9L281.16,191.01L281.34,188.37L281.53,187.69L282.07,187.44L282.43,192.14L282.62,190.32L283.7,169.36L283.89,265.14L284.07,254.76L284.25,153.54L284.61,152.95L284.79,168.64L284.97,199.56L285.16,152.28L285.34,153L285.52,153.08L286.25,153.03L286.43,145.21L287.15,41.56L287.33,47.93L287.52,45.89L287.7,46.68L287.88,54.8L288.06,152.59L288.61,62.91L288.79,62.29L289.33,66.75L289.51,80.59L289.88,115.06L290.06,95.95L290.24,70.92L290.42,70.3L290.6,80.9L290.78,79.8L290.96,87.96L292.05,153.19L292.42,153.17L292.6,153.15L293.51,153.09L293.69,162.26L293.87,207.65L294.41,203.41L294.59,199.19L294.96,199.92L295.14,195.88L295.32,197.12L295.5,196.79L295.68,193.3L295.87,193.54L296.05,195.46L296.95,193.1L297.14,194.32L297.32,194.49L297.5,191.31L297.68,193.9L298.04,189.3L298.23,190.11L298.41,193.83L298.77,188.26L298.95,192.07L299.13,190.82L299.31,284.76L299.68,188.78L299.86,190.26L300.04,188.79L301.31,172.54L301.49,168.18L301.67,169.07L301.86,175.4L302.22,162.62L302.4,250.12L302.58,243.29L302.76,153.49L303.49,152.97L303.67,153.06L303.85,153.1L304.03,155.21L304.4,153.16L304.58,150.66L304.94,153.16L305.3,153.03L305.49,144.65L305.67,153.18L306.21,150.93L306.39,111.88L307.3,58.72L307.48,61.41L308.03,100.17L308.21,111.4L309.48,153.18L309.66,153.12L310.75,153.02L310.93,189.29L311.11,211.15L311.66,204.32L311.84,202.27L312.75,196.58L312.93,198.17L313.11,198.92L313.29,193.81L313.47,196.41L313.84,193.59L314.02,195.32L314.2,193.48L314.74,194.75L314.92,190.3L315.11,191.77L315.29,191.93L315.47,189.89L315.83,190.69L316.19,187.74L316.38,188.82L316.56,189.44L316.74,187.16L316.92,185.17L317.1,188.39L317.28,283.56L317.47,282.97L317.65,186.32L318.37,178.14L318.55,179.34L318.74,171.47L318.92,170.46L319.1,172.82L319.28,162.86L319.83,152.95L320.19,153.07L320.37,152.97L321.46,153.12L321.64,155.1L322.37,151.02L322.55,153.1L322.73,155.35L323.82,150.96L324,152.99L324.18,155.32L324.54,150.94L324.73,153.02L324.91,153.06L325.09,153.13L325.27,105.33L325.45,100.55L325.63,106.13L325.82,111.82L326.9,153.22L327.09,153.15L327.27,153.19L328.17,153.11L328.36,188.5L328.54,231.31L329.08,223.28L329.26,221.6L329.45,223.46L329.63,217.11L330.35,196.9L330.53,200.37L330.72,196.37L330.9,198.84L331.26,195.05L331.44,198.38L331.62,194.53L331.99,196.25L332.17,193.78L332.35,196.26L332.71,193.15L332.89,194.55L333.08,190.54L333.44,193.66L333.8,193.37L333.98,192.33L334.71,188.36L334.89,191.25L335.62,187L335.8,178.71L335.98,178.42L336.16,175.71L336.71,164.16L336.89,256.78L337.07,266.98L337.43,249.25L337.61,153.34L338.16,153.04L338.34,155.44L338.52,164.34L338.7,152.36L338.88,153.02L339.07,153L339.97,153.08L340.15,153.08L341.97,153.02L342.15,107.45L342.33,89.33L342.88,97.15L343.06,106.46L344.87,163.53L345.06,208.58L345.6,233.52L346.14,229.23L346.33,222.66L347.42,198.81L347.6,198.65L347.78,199.61L347.96,197.73L348.14,197.13L348.32,198.53L348.69,196.4L348.87,194.83L349.59,193.8L349.77,191.93L350.14,189.76L350.32,191.76L350.5,193.65L350.86,190.73L351.05,188.74L351.41,190.01L351.77,188.58L351.95,285.55L352.86,182.54L353.04,177.55L353.59,168.29L353.95,170.73L354.13,171.01L354.49,177.8L354.68,169.53L355.4,152.96L355.58,153.07L355.76,152.99L356.31,153.12L356.49,155.19L356.67,150.92L356.85,153.13L357.04,77.83L357.22,61.34L357.4,152.91L357.76,67.76L358.12,93.86L358.31,153.73L358.85,150.93L359.03,153.12L359.21,153.05L359.39,117.54L359.94,69.59L360.3,72.03L360.48,82.39L362.12,153.21L362.3,153.03L363.03,153.09L363.21,214.03L363.39,225.22L363.57,211.01L363.75,198.16L364.48,195.05L364.66,195.28L364.84,195.53L365.57,190.82L365.75,192.48L365.93,193.22L366.29,192.86L366.47,189.8L366.66,191.8L367.02,189.47L367.2,189.52L367.56,190.44L367.93,186.89L368.11,187.85L368.29,188.18L369.02,185.38L369.2,187.38L370.1,182.33L370.29,182.56L370.47,275.53L370.83,263.33L371.01,162.14L371.37,167.04L372.1,152.95L372.28,153.1L372.46,152.99L372.83,153.02L373.01,155.25L373.37,150.81L373.92,153.13L374.1,153.08L374.82,37.8L375.37,52.95L375.55,50.38L376.64,99.52L376.82,94.71L377.73,74.14L377.91,82.05L379.18,153.14L379.36,153.07L379.54,153.18L380.81,153.06L380.99,185.49L381.54,198.15L381.72,194.46L381.9,193.25L382.27,192.28L382.45,195.01L382.63,194.93L382.81,193.27L382.99,194.29L383.17,192.72L383.54,193.11L383.72,190.54L383.9,191.1L384.08,191.04L384.26,189.16L384.44,189.93L384.63,189.65L384.81,186.96L384.99,187.08L385.17,188.65L386.08,182.95L386.26,184.12L386.44,184.49L386.62,181.87L386.8,185.36L387.35,182.08L387.53,183.4L388.07,172.41L388.26,166.09L388.62,153.15L388.98,159.59L389.16,248.11L390.07,153L390.25,153.02L390.62,153.11L390.8,155.29L390.98,150.51L391.7,150.97L391.89,153.19L392.97,27.38L393.16,32.82L393.34,32.21L393.52,34.95L393.88,151.19L394.25,65.34L394.43,63.29L397.15,153.16L397.33,153.1L397.51,153.09L398.42,153.03L398.6,164.22L399.33,213.95L399.51,200.57L399.69,192.49L399.87,193.82L400.05,192.19L400.24,190.95L400.42,192.19L400.6,190.84L400.78,189.16L400.96,190.97L401.32,187.26L401.51,190.88L401.69,188.35L402.59,184.48L402.78,186.72L403.87,182.34L404.05,183.22L404.23,182.53L404.59,183.45L404.77,183.88L404.95,185.39L405.14,276.61L406.04,153.81L406.23,153.06L407.31,153.07L407.5,155.13L407.86,150.88L408.22,152.29L408.4,21.68L408.77,17.94L408.95,24.71L409.31,21.11L409.49,26.85L409.67,25.57L409.86,27.73L410.04,32.17L410.22,31.6L410.4,33.76L411.13,44.63L411.31,39.07L411.49,38.15L412.4,65.68L412.58,152.56L413.12,153.14L413.3,150.98L413.67,153.21L414.21,153.13L414.39,153.15L416.03,153.81L416.21,195.45L416.93,192.73L417.12,194.28L418.21,188.37L418.39,188.5L418.57,186.94L418.75,189.71L418.93,187.8L419.11,182.99L419.48,188.52L419.84,184.48L420.02,284.81L420.2,283.83L420.38,183.4L420.75,185.77L420.93,184.49L421.11,182.84L421.29,182.83L421.47,186.04L421.84,180.05L422.2,184.08L422.38,185.92L423.11,173.41L423.29,173.72L423.47,183.71L424.19,152.94L424.38,178.89L424.74,256.81L424.92,166.55L425.1,159.39L426.01,152.85L426.19,155.26L426.55,150.93L427.1,153.04L427.28,112.49L427.46,45.71L428.01,56.82L428.19,59.31L428.37,61.67L428.55,152.88L428.73,153.12L428.91,97.92L429.28,153.23L429.64,123.77L429.82,94.95L430.37,135.9L430.73,129.42L430.91,139.5L431.09,136.19L431.27,144.28L431.46,152.94L432.91,153.13L433.09,153.01L433.63,199.52L434,196.62L434.18,196.79L435.45,188.88L435.63,190.27L435.81,193.04L436.17,188.58L436.36,189.86L436.72,190.13L436.9,184.55L437.26,189.79L437.63,184.31L437.81,187.72L437.99,188.23L438.17,182.7L438.72,186.91L438.9,184.51L439.08,183.58L439.26,185.03L439.44,185.87L440.17,177.23L440.35,183.03L440.53,293.6L441.44,152.96L441.62,153.07L442.16,153.06L442.35,155.16L442.53,150.77L443.07,153.04L443.25,152.97L443.62,152.97L443.8,64.66L444.16,32.1L444.52,42.08L444.71,38.83L445.07,143.25L445.43,69.38L445.61,69.93L445.79,69.62L445.98,73.96L446.88,62.22L447.07,56.32L447.43,70.52L447.61,80.71L449.24,153.19L449.43,153.08L449.61,153.14L450.51,153.08L450.7,192.63L451.24,199.65L451.42,197.91L451.6,195.55L451.78,198.07L452.15,195.5L452.33,196.27L452.51,192.52L452.87,196.74L453.24,194.2L453.42,191.28L453.78,192.95L454.33,188.62L454.51,189.3L454.69,191.81L455.05,187.22L455.23,190.28L455.42,189.57L456.14,185.35L456.32,186.16L456.5,187.6L456.69,184.72L456.87,192.41L457.05,202.18L457.23,205.21L457.59,199.93L457.77,189.89L458.5,156.26L458.68,165.94L458.86,177.36L459.23,206.63L459.41,152.09L459.77,152.85L459.95,153.02L460.68,153.24L460.86,154.89L461.22,150.99L461.41,153.15L461.59,93.62L461.95,97.48L462.49,72.73L462.68,153.03L463.04,153.09L463.22,71.51L463.95,56.08L464.13,61.77L465.76,129.79L465.94,144.24L466.85,153.18L467.03,153.06L467.76,153.11L467.94,160.47L468.85,212.08L469.03,220.96L470.66,191.75L470.84,193L471.93,188.05L472.11,188.97L472.3,188.9L472.48,186.87L472.66,187.98L473.02,186.5L473.2,186.89L473.38,187.32L474.47,184.03L474.66,186.24L475.2,176.04L475.38,179.78L475.56,181.58L475.93,180.11L476.11,271.12L476.29,262.98L476.47,158.08L476.65,152.98L477.02,162.71L477.2,166.81L477.92,151.23L478.1,152.78L478.29,155.19L479.01,150.69L479.19,153.09L479.37,153.08L479.74,153.31L480.1,152.92L480.28,152.74L480.65,44.45L481.01,153.23L481.19,100.55L481.37,67.5L481.92,75.16L482.1,75L482.28,76.68L482.46,85.93L484.09,153.21L484.28,153.09L485,153.09L485.18,233.51L485.36,304L485.73,202.52L485.91,198.58L486.09,198.1L486.27,200.41L487.36,193.95L487.54,193.46L487.91,195.32L488.09,193.94L488.27,192.39L488.63,194.05L488.81,192.77L488.99,188.72L489.54,190.4L489.72,189.87L489.9,187.95L490.08,189.14L490.45,187.3L490.63,187.97L490.81,186.8L491.17,189.47L491.35,186.16L491.54,185.9L491.72,187.78L491.9,185.52L492.08,283.27L492.26,285.52L492.44,184.31L493.17,171.25L493.35,177.84L493.53,179.51L493.9,152.96L494.44,153.16L494.62,152.83L494.8,152.9L494.98,155.14L495.35,150.92L495.89,152.95L496.07,153.01L496.44,31.77L496.98,35.55L497.16,42.94L497.34,41.27L497.53,44.71L497.71,48.71L498.25,65.65L498.43,152.81L498.62,153.17L498.8,59.61L501.52,153.18L501.7,153.07L502.61,153.18L502.79,156.21L502.97,201.74L503.52,197.36L503.7,196.21L503.88,196.46L504.06,194.84L504.24,196.53L504.42,194.76L504.61,195.51L504.79,194.33L504.97,194.83L505.15,192.51L505.69,192.04L505.88,193.01L506.96,189.41L507.15,188.69L507.33,186.13L507.51,190.15L507.87,186.6L508.05,188.23L508.6,188.68L508.96,184.34L509.14,186.71L509.32,285.68L509.87,181.79L510.05,178.52L510.23,177.49L510.41,171.74L510.59,257.61L510.78,153.56L510.96,225.76L511.14,152.82L512.05,153.23L512.23,152.79L512.77,153.08L512.95,93.36L513.14,27.99L513.5,51.67L513.68,141.19L513.86,134.99L514.04,36.29L514.23,32.8L514.41,37.49L514.59,42.41L514.95,40.94L515.13,47.49L515.5,145.86L515.86,51.59L516.04,47.98L516.58,54.66L516.77,53.61L516.95,152.6L517.31,153.2L517.49,150.9L517.86,118.82L518.22,146.34L518.4,150.94L519.13,155.25L519.31,153.15L519.49,230.8L520.4,205.67L520.58,201.43L521.67,196.9L521.85,197.72L522.03,198.9L522.21,195.97L522.39,195.81L522.94,194.56L523.12,195.18L523.3,196.07L523.66,195.09L523.85,193.74L524.57,190.24L524.75,193.49L525.84,187.64L526.02,190.33L526.21,190.63L526.39,190.5L526.57,189.56L526.75,185.96L526.93,286.94L527.66,172.02L527.84,266.33L528.2,256.43L528.38,155.72L528.75,152.8L529.29,153.09L529.47,153.09L529.65,152.81L529.84,155.18L530.2,151.03L530.74,153.17L530.92,153L531.29,153.01L531.47,151.1L532.01,153.12L532.19,73.65L532.38,44.77L532.56,140.31L532.74,144.37L532.92,45.87L533.1,46.29L533.28,144.19L533.65,147.68L533.83,54.4L534.37,143.55L534.74,89.74L534.92,86.7L535.28,153.17L535.83,153.16L536.01,153.03L536.91,153.13L537.1,180.06L537.64,226.94L537.82,217.48L538,199.96L538.18,202.14L538.37,198.64L538.55,199.04L538.73,199.34L539.64,197.97L539.82,198.37L540,196.24" style="vector-effect: non-scaling-stroke; fill: none; stroke: rgb(0, 191, 255); stroke-opacity: 1; stroke-width: 2px; opacity: 1;"/></g><g class="points"/><g class="text"/></g></g></g><g class="overplot"/><path class="xlines-above crisp" d="M0,0" style="fill: none;"/><path class="ylines-above crisp" d="M0,0" style="fill: none;"/><g class="overlines-above"/><g class="xaxislayer-above"><g class="xtick"><text text-anchor="middle" x="0" y="433" transform="translate(114.85,0)" style="font-family: 'Open Sans', verdana, arial, sans-serif; font-size: 12px; fill: rgb(42, 63, 95); fill-opacity: 1; white-space: pre; opacity: 1;"><tspan class="line" dy="0em" x="0" y="433">Jul 3</tspan><tspan class="line" dy="1.3em" x="0" y="433">2022</tspan></text></g><g class="xtick"><text text-anchor="middle" x="0" y="433" style="font-family: 'Open Sans', verdana, arial, sans-serif; font-size: 12px; fill: rgb(42, 63, 95); fill-opacity: 1; white-space: pre; opacity: 1;" transform="translate(236.83,0)">Jul 10</text></g><g class="xtick"><text text-anchor="middle" x="0" y="433" style="font-family: 'Open Sans', verdana, arial, sans-serif; font-size: 12px; fill: rgb(42, 63, 95); fill-opacity: 1; white-space: pre; opacity: 1;" transform="translate(358.8,0)">Jul 17</text></g><g class="xtick"><text text-anchor="middle" x="0" y="433" style="font-family: 'Open Sans', verdana, arial, sans-serif; font-size: 12px; fill: rgb(42, 63, 95); fill-opacity: 1; white-space: pre; opacity: 1;" transform="translate(480.78,0)">Jul 24</text></g><g class="xtick"><text text-anchor="middle" x="0" y="433" style="font-family: 'Open Sans', verdana, arial, sans-serif; font-size: 12px; fill: rgb(42, 63, 95); fill-opacity: 1; white-space: pre; opacity: 1;" transform="translate(602.76,0)">Jul 31</text></g></g><g class="yaxislayer-above"><g class="ytick"><text text-anchor="end" x="79" y="4.199999999999999" transform="translate(0,410.11)" style="font-family: 'Open Sans', verdana, arial, sans-serif; font-size: 12px; fill: rgb(42, 63, 95); fill-opacity: 1; white-space: pre; opacity: 1;">−80</text></g><g class="ytick"><text text-anchor="end" x="79" y="4.199999999999999" style="font-family: 'Open Sans', verdana, arial, sans-serif; font-size: 12px; fill: rgb(42, 63, 95); fill-opacity: 1; white-space: pre; opacity: 1;" transform="translate(0,370.85)">−60</text></g><g class="ytick"><text text-anchor="end" x="79" y="4.199999999999999" style="font-family: 'Open Sans', verdana, arial, sans-serif; font-size: 12px; fill: rgb(42, 63, 95); fill-opacity: 1; white-space: pre; opacity: 1;" transform="translate(0,331.6)">−40</text></g><g class="ytick"><text text-anchor="end" x="79" y="4.199999999999999" style="font-family: 'Open Sans', verdana, arial, sans-serif; font-size: 12px; fill: rgb(42, 63, 95); fill-opacity: 1; white-space: pre; opacity: 1;" transform="translate(0,292.34000000000003)">−20</text></g><g class="ytick"><text text-anchor="end" x="79" y="4.199999999999999" style="font-family: 'Open Sans', verdana, arial, sans-serif; font-size: 12px; fill: rgb(42, 63, 95); fill-opacity: 1; white-space: pre; opacity: 1;" transform="translate(0,253.08)">0</text></g><g class="ytick"><text text-anchor="end" x="79" y="4.199999999999999" style="font-family: 'Open Sans', verdana, arial, sans-serif; font-size: 12px; fill: rgb(42, 63, 95); fill-opacity: 1; white-space: pre; opacity: 1;" transform="translate(0,213.82)">20</text></g><g class="ytick"><text text-anchor="end" x="79" y="4.199999999999999" style="font-family: 'Open Sans', verdana, arial, sans-serif; font-size: 12px; fill: rgb(42, 63, 95); fill-opacity: 1; white-space: pre; opacity: 1;" transform="translate(0,174.57)">40</text></g><g class="ytick"><text text-anchor="end" x="79" y="4.199999999999999" style="font-family: 'Open Sans', verdana, arial, sans-serif; font-size: 12px; fill: rgb(42, 63, 95); fill-opacity: 1; white-space: pre; opacity: 1;" transform="translate(0,135.31)">60</text></g></g><g class="overaxes-above"/></g></g><g class="polarlayer"/><g class="smithlayer"/><g class="ternarylayer"/><g class="geolayer"/><g class="funnelarealayer"/><g class="pielayer"/><g class="iciclelayer"/><g class="treemaplayer"/><g class="sunburstlayer"/><g class="glimages"/><defs id="topdefs-2b4714"><g class="clips"/></defs><g class="layer-above"><g class="imagelayer"/><g class="shapelayer"/></g><g class="infolayer"><g class="g-gtitle"><text class="gtitle" x="350" y="50" text-anchor="middle" dy="0em" style="font-family: 'Open Sans', verdana, arial, sans-serif; font-size: 17px; fill: rgb(42, 63, 95); opacity: 1; font-weight: normal; white-space: pre;"><tspan class="line" dy="0em" x="350" y="50">Scenario 4</tspan><tspan class="line" dy="1.3em" x="350" y="50">Microgrid Output</tspan><tspan class="line" dy="2.6em" x="350" y="50">From: July 01, 2022 to July 31, 2022</tspan></text></g><g class="g-xtitle"><text class="xtitle" x="350" y="476.409375" text-anchor="middle" style="font-family: 'Open Sans', verdana, arial, sans-serif; font-size: 14px; fill: rgb(42, 63, 95); opacity: 1; font-weight: normal; white-space: pre;">Time</text></g><g class="g-ytitle"><text class="ytitle" transform="rotate(-90,33.840625,260)" x="33.840625" y="260" text-anchor="middle" style="font-family: 'Open Sans', verdana, arial, sans-serif; font-size: 14px; fill: rgb(42, 63, 95); opacity: 1; font-weight: normal; white-space: pre;">Demand (kW)</text></g></g></svg>