<svg class="main-svg" xmlns="http://www.w3.org/2000/svg" xmlns:xlink="http://www.w3.org/1999/xlink" width="700" height="500" style="" viewBox="0 0 700 500"><rect x="0" y="0" width="700" height="500" style="fill: rgb(255, 255, 255); fill-opacity: 1;"/><defs id="defs-d7c44e"><g class="clips"><clipPath id="clipd7c44exyplot" class="plotclip"><rect width="540" height="320"/></clipPath><clipPath class="axesclip" id="clipd7c44ex"><rect x="80" y="0" width="540" height="500"/></clipPath><clipPath class="axesclip" id="clipd7c44ey"><rect x="0" y="100" width="700" height="320"/></clipPath><clipPath class="axesclip" id="clipd7c44exy"><rect x="80" y="100" width="540" height="320"/></clipPath></g><g class="gradients"/><g class="patterns"/></defs><g class="bglayer"/><g class="layer-below"><g class="imagelayer"/><g class="shapelayer"/></g><g class="cartesianlayer"><g class="subplot xy"><g class="layer-subplot"><g class="shapelayer"/><g class="imagelayer"/></g><g class="minor-gridlayer"><g class="x"/><g class="y"/></g><g class="gridlayer"><g class="x"><path class="xgrid crisp" transform="translate(114.85,0)" d="M0,100v320" style="stroke: rgb(255, 255, 255); stroke-opacity: 1; stroke-width: 1px;"/><path class="xgrid crisp" transform="translate(236.83,0)" d="M0,100v320" style="stroke: rgb(255, 255, 255); stroke-opacity: 1; stroke-width: 1px;"/><path class="xgrid crisp" transform="translate(358.8,0)" d="M0,100v320" style="stroke: rgb(255, 255, 255); stroke-opacity: 1; stroke-width: 1px;"/><path class="xgrid crisp" transform="translate(480.78,0)" d="M0,100v320" style="stroke: rgb(255, 255, 255); stroke-opacity: 1; stroke-width: 1px;"/><path class="xgrid crisp" transform="translate(602.76,0)" d="M0,100v320" style="stroke: rgb(255, 255, 255); stroke-opacity: 1; stroke-width: 1px;"/></g><g class="y"><path class="ygrid crisp" transform="translate(0,414.99)" d="M80,0h540" style="stroke: rgb(255, 255, 255); stroke-opacity: 1; stroke-width: 1px;"/><path class="ygrid crisp" transform="translate(0,373.85)" d="M80,0h540" style="stroke: rgb(255, 255, 255); stroke-opacity: 1; stroke-width: 1px;"/><path class="ygrid crisp" transform="translate(0,332.72)" d="M80,0h540" style="stroke: rgb(255, 255, 255); stroke-opacity: 1; stroke-width: 1px;"/><path class="ygrid crisp" transform="translate(0,291.59000000000003)" d="M80,0h540" style="stroke: rgb(255, 255, 255); stroke-opacity: 1; stroke-width: 1px;"/><path class="ygrid crisp" transform="translate(0,209.32)" d="M80,0h540" style="stroke: rgb(255, 255, 255); stroke-opacity: 1; stroke-width: 1px;"/><path class="ygrid crisp" transform="translate(0,168.19)" d="M80,0h540" style="stroke: rgb(255, 255, 255); stroke-opacity: 1; stroke-width: 1px;"/><path class="ygrid crisp" transform="translate(0,127.05)" d="M80,0h540" style="stroke: rgb(255, 255, 255); stroke-opacity: 1; stroke-width: 1px;"/></g></g><g class="zerolinelayer"><path class="yzl zl crisp" transform="translate(0,250.45)" d="M80,0h540" style="stroke: rgb(255, 255, 255); stroke-opacity: 1; stroke-width: 2px;"/></g><path class="xlines-below"/><path class="ylines-below"/><g class="overlines-below"/><g class="xaxislayer-below"/><g class="yaxislayer-below"/><g class="overaxes-below"/><g class="plot" transform="translate(80,100)" clip-path="url(#clipd7c44exyplot)"><g class="scatterlayer mlayer"><g class="trace scatter tracefed8ec" style="stroke-miterlimit: 2; opacity: 0.5;"><g class="fills"/><g class="errorbars"/><g class="lines"><path class="js-line" d="M0,191.37L0.18,194.08L0.54,188.52L0.73,189.45L1.27,189.99L1.63,185.66L1.82,188.02L2,187.42L2.18,183.48L2.54,187.82L2.9,183.23L3.09,183.72L3.45,181.88L3.81,184.53L3.99,183.12L4.36,176.08L4.54,275.14L4.72,273.49L4.9,165.44L5.81,150.34L5.99,150.41L7.44,150.47L7.62,152.68L7.99,148.09L8.17,152.79L8.53,150.57L8.71,150.39L8.89,150.48L9.08,148.35L9.62,152.59L9.98,150.37L10.16,148.26L10.71,150.47L10.89,150.39L11.07,58L11.62,36.51L11.8,38.42L11.98,51.59L13.79,150.59L13.98,150.48L14.16,150.51L15.79,150.42L15.97,150.48L17.97,150.4L18.15,154.96L18.33,189.53L19.06,187.62L19.24,184.41L19.42,185.01L19.6,183.98L19.78,182.86L19.97,182.77L20.15,184.41L20.69,180.78L20.87,181.64L21.06,183.61L21.24,182.27L21.42,281.4L22.33,166.46L22.51,155.07L22.69,235.75L23.05,150.15L23.23,150.41L23.42,150.37L24.14,150.32L24.32,152.69L24.87,148.23L25.23,150.51L25.41,150.43L26.14,150.47L26.32,135.68L26.5,23.97L27.23,34.76L27.41,31.32L27.59,30.63L27.77,34.08L27.95,35.54L28.13,30.3L28.5,38.82L28.68,38.07L28.86,30.72L29.04,25.06L29.22,33.14L29.41,41.31L31.4,150.52L31.58,150.52L33.22,150.44L33.4,150.47L35.39,150.41L35.58,150.51L36.12,150.45L36.3,175.72L37.03,184.83L37.21,183.8L37.39,180.46L37.94,181.38L38.3,180.99L38.48,180.69L39.21,174.08L39.39,168L39.57,264.9L39.93,151.98L40.11,150.4L43.02,150.52L43.2,48.59L43.74,16L43.93,20.92L44.11,122.92L44.47,128.03L44.65,22.21L45.38,28.05L45.56,28.01L45.74,26.66L45.92,27.43L46.29,25.96L46.47,21.2L46.65,22.37L46.83,38.02L47.56,86.26L47.74,151.33L48.28,148.29L48.46,150.49L48.65,150.55L52.28,150.41L52.46,150.5L52.82,150.44L53,152.25L53.91,284.06L54.09,181.01L55,179.52L55.18,281.92L55.36,283.92L55.54,283.07L55.72,182.08L56.81,170.4L56.99,161.31L57.72,150.37L57.9,170.5L58.08,191.54L58.27,149.08L58.45,150.32L58.63,150.41L58.81,152.65L59.17,148.16L59.35,150.43L59.54,150.43L60.08,150.41L60.26,152.8L60.63,148.27L61.17,150.45L61.35,60.74L61.53,17.65L62.26,22.18L62.44,23.97L62.98,24.84L63.17,27.05L63.35,30.08L63.71,28.12L63.89,23.83L64.26,42.11L64.44,57.27L66.07,150.56L66.43,150.48L66.62,150.48L70.25,150.44L70.43,150.47L71.15,150.46L71.33,158.63L71.7,183L72.24,180.49L72.42,182.31L72.79,181.15L72.97,179.23L73.33,184.02L73.69,179.43L73.88,176.63L75.15,150.33L75.51,150.41L75.69,152.65L75.87,148.14L76.42,150.34L76.6,152.67L77.14,152.78L77.51,148.2L77.69,150.48L78.96,150.47L79.14,84.23L79.32,44.02L79.87,62.66L80.05,55.43L80.23,56.48L80.41,55.84L80.59,150.1L80.95,150.49L81.14,82.25L81.32,30.36L81.86,63.25L82.04,70.4L83.5,150.57L83.68,150.51L83.86,150.42L85.13,150.49L85.31,150.42L87.67,150.46L87.85,150.45L88.4,150.38L88.58,156.51L89.12,183.91L89.49,181.85L89.67,182.53L89.85,180.91L90.03,183.23L90.21,283.14L90.39,178.23L91.12,179.42L91.3,178.9L91.85,167.87L92.03,158.13L92.57,150.33L92.75,188.4L92.93,203.79L93.3,175.8L93.48,164.7L94.21,148.18L94.39,150.44L94.57,150.47L95.66,150.4L95.84,152.86L96.38,148.18L96.75,150.45L96.93,150.45L97.65,150.5L97.84,46.49L98.56,35.92L98.74,37.95L98.92,58.69L100.74,150.45L100.92,150.54L105.64,150.48L105.82,156.16L106.73,285.87L106.91,284.03L107.09,181.98L107.27,179.09L107.46,181.03L107.64,185.27L110.18,150.38L110.36,154.17L110.54,202.41L110.72,149.57L111.09,150.3L111.27,150.52L112.17,150.5L112.36,150.45L113.08,150.48L113.26,152.84L113.63,148.21L113.81,150.41L113.99,45.34L114.17,36.41L114.72,40.8L114.9,41.63L115.26,43L115.44,52.99L116.71,89.08L116.89,89.53L117.08,92.67L117.26,108.29L118.35,150.57L118.53,150.48L118.71,150.48L118.89,150.46L119.07,152.71L119.44,148.15L119.98,150.5L120.16,150.4L121.98,150.88L122.16,185.35L122.34,187.79L122.52,184.08L122.7,184.08L122.88,182.6L123.25,189.41L123.61,182.65L123.79,182.52L123.97,185.36L124.34,181.14L124.52,182.45L124.7,182.44L124.88,183.09L125.06,181.76L125.24,179.93L125.61,183.69L125.97,181.23L126.15,178.76L127.6,150.31L127.78,150.44L127.97,150.38L128.87,150.33L129.06,152.85L129.42,148.21L129.78,150.43L129.96,152.69L130.14,148.27L130.69,150.51L130.87,150.41L131.42,150.52L131.6,104.21L131.78,34.46L132.32,51.75L132.5,60.34L132.87,64.43L133.05,54.47L133.41,38.91L133.77,48.93L133.96,54.7L134.68,151.41L135.41,150.49L135.59,150.59L137.04,150.36L137.22,150.42L139.04,150.42L139.22,154.94L139.76,188.74L140.13,187.13L140.31,188.96L141.4,179.99L141.58,186.69L141.94,181.39L142.12,182.29L142.31,281.31L142.85,179.55L143.21,180.87L143.39,180.1L143.58,180.1L143.76,176.8L145.39,150.36L145.57,150.39L147.57,150.51L147.75,152.56L148.3,148.18L148.48,134.69L148.66,31.34L149.38,34.08L149.57,38.39L150.11,44.94L150.29,44.52L150.47,42.71L150.66,42.96L150.84,44.45L151.02,45.16L151.2,49.17L151.74,150.77L152.47,150.47L152.65,150.6L154.29,150.43L154.47,150.45L156.83,150.45L157.01,181.26L157.55,188.18L157.73,186.51L157.92,185.9L158.1,187.31L158.28,184.13L158.46,183.64L158.64,187.17L159.01,183.47L159.19,184.55L159.37,182.92L159.55,181.66L159.91,182.4L160.09,184.46L160.82,178.89L161,182.67L161.36,174.19L161.55,273.27L162.45,150.3L162.64,150.43L164.45,150.52L164.63,152.68L165.18,148.2L165.54,150.56L165.72,150.41L166.08,35.84L166.63,38.63L166.81,45.05L166.99,44.88L167.17,140.54L167.54,150.4L167.72,149.87L167.9,47.38L168.08,44.93L168.44,46.79L168.63,52.29L170.44,150.62L170.62,150.4L171.71,150.44L171.89,150.46L173.89,150.35L174.07,150.51L174.43,150.44L174.62,181.61L175.52,189.5L175.7,186.32L175.89,186.14L176.07,188.15L176.25,183.79L176.61,187.65L176.79,286.19L177.7,179.63L177.88,182.35L178.06,183.95L178.43,182.21L178.61,175.87L178.79,177.43L178.97,173.77L179.15,164.91L180.24,150.37L180.42,150.36L181.15,150.36L181.33,152.67L181.51,148.15L182.06,150.58L182.24,150.37L182.6,150.45L182.78,152.73L183.15,148.22L183.51,150.51L183.69,152.73L184.05,148.24L184.6,150.35L184.78,150.51L184.96,148.12L185.14,150.46L185.32,71.98L185.69,45.77L186.05,57.13L186.23,65.84L187.87,150.57L188.23,150.52L188.41,150.51L189.86,150.36L190.04,150.49L192.22,150.45L192.4,166.46L192.77,187.37L193.31,183.01L193.49,182.84L193.67,184.41L193.86,181.15L194.04,182.04L194.22,181.74L194.4,181.45L194.58,182.27L194.76,180.24L194.94,179.13L195.13,180.11L195.31,183.91L196.03,175.28L196.22,277.18L196.4,271.68L196.58,166.91L196.76,167.54L196.94,159.44L197.3,150.33L197.85,150.4L198.03,150.38L198.76,150.48L198.94,152.61L199.3,148.24L199.85,150.47L200.03,150.43L200.75,150.47L200.93,92.09L201.12,26.3L201.48,149.86L201.66,146.6L202.02,48.31L202.57,49.68L202.75,50.18L203.11,48.77L203.29,53.62L203.48,69.3L205.29,150.56L205.47,150.49L210.19,150.43L210.37,169.32L211.1,182.5L211.28,181.37L211.46,179.09L211.83,184.55L212.01,182.06L212.19,179.29L212.73,178.87L212.91,180.68L213.1,283.47L213.28,283.03L213.46,177.09L214.73,150.35L214.91,150.41L217.82,150.47L218,95.92L218.9,150.46L219.09,105.09L219.81,60.48L219.99,62.86L220.17,66.44L220.72,75.23L220.9,85.1L222.35,150.59L222.72,150.55L222.9,150.49L227.07,150.42L227.25,176.57L227.44,189.32L227.98,185.63L228.16,185.15L228.71,185.92L229.25,181.01L229.43,184.61L229.61,185.43L229.79,180.37L230.16,182.53L230.52,182.43L230.7,181.49L231.07,175.03L231.25,272.27L232.15,150.78L232.34,150.4L232.7,150.37L232.88,152.94L233.06,193.82L233.24,149.3L233.61,184.62L233.79,148.8L234.88,152.54L235.06,150.53L235.24,150.36L235.42,148.25L235.97,150.58L236.33,150.54L236.51,150.44L237.42,150.45L237.6,111.22L238.33,52.36L238.51,74.14L239.78,150.46L239.96,150.54L244.32,150.41L244.5,184.79L245.04,189.34L245.41,187.84L245.59,185.71L245.95,187.33L246.13,184.06L246.49,184.56L246.68,184.22L246.86,186.54L247.04,181.89L247.4,185.16L247.58,183.28L247.76,183.7L247.95,181.84L248.13,183.18L248.31,181.69L248.49,175.79L249.76,150.34L249.94,218.24L250.12,150.18L250.85,150.39L251.03,152.55L251.58,148.23L251.94,150.48L252.12,150.4L254.48,150.46L254.66,61.88L256.66,150.07L256.84,150.54L260.47,150.43L260.65,176.17L260.83,195.32L261.56,194.32L261.74,192.89L262.47,186.69L262.65,189.08L262.83,191.96L263.92,184.34L264.1,187.26L264.83,181.38L265.01,186.74L265.19,187.18L265.37,182.4L265.55,285.48L266.1,173.9L266.28,273.29L266.46,272.47L266.64,258.38L266.82,246.78L267.01,150.76L267.91,150.29L268.09,150.45L269.36,150.43L269.55,152.71L269.91,148.26L270.45,150.52L270.64,150.41L270.82,148.68L271.18,150.39L271.36,57.81L271.54,49.82L271.91,60.75L272.09,73.84L272.45,63.37L272.63,60.26L272.81,54.14L272.99,64.16L273.18,73.17L273.72,110.13L273.9,151.86L274.45,148.28L274.81,150.45L274.99,150.56L276.99,150.34L277.17,150.43L277.35,150.4L277.53,182.5L277.9,196.97L278.44,194.53L278.62,195.78L279.35,190.29L279.53,190.67L279.71,191.23L279.89,191.78L280.07,189.27L280.44,191.42L280.8,187.53L280.98,189.03L281.16,190.2L281.34,187.43L281.53,186.72L282.07,186.45L282.43,191.38L282.62,189.47L283.7,167.51L283.89,267.86L284.61,150.32L284.79,166.75L284.97,199.15L285.16,149.62L285.88,150.34L286.06,150.49L287.7,150.51L287.88,150.48L288.06,152.69L288.24,150.42L288.42,150.57L288.61,148.13L288.79,135.03L288.97,57.57L289.15,57.15L289.33,60L289.88,110.61L290.06,90.59L290.24,64.37L290.42,63.72L290.6,74.82L290.78,73.67L290.96,82.22L292.05,150.56L292.42,150.55L292.6,150.52L294.59,150.41L294.78,150.49L296.23,150.43L296.41,165.27L296.77,194.13L297.32,193.84L297.5,190.51L297.68,193.22L298.04,188.4L298.23,189.25L298.41,193.15L298.77,187.31L298.95,191.3L299.13,189.99L299.31,288.42L299.68,187.86L299.86,189.41L300.04,187.87L301.31,170.84L301.49,166.27L301.67,167.21L301.86,173.84L302.22,160.45L302.4,252.13L302.58,244.98L302.76,150.88L303.49,150.34L303.67,150.43L303.85,150.48L304.03,152.68L304.22,150.44L304.4,150.54L304.58,150.18L304.76,148.2L304.94,150.54L305.3,150.4L305.49,150.53L305.67,152.65L306.03,150.5L306.21,148.2L306.94,150.49L307.12,150.39L307.3,150.49L309.84,150.5L310.02,150.52L312.56,150.46L312.75,166.36L313.11,198.48L313.65,195.79L313.84,192.9L314.02,194.71L314.2,192.78L314.38,189.48L314.74,194.11L314.92,189.45L315.11,190.99L315.29,191.15L316.19,186.76L316.38,187.9L316.56,188.55L316.74,186.16L316.92,184.08L317.1,187.45L317.28,287.17L317.47,286.55L317.65,185.28L318.37,176.71L318.55,177.97L318.74,169.72L318.92,168.66L319.1,171.13L319.28,160.7L319.83,150.31L320.19,150.44L320.37,150.33L321.46,150.49L321.64,152.57L322.37,148.3L322.55,150.47L322.73,152.83L323.82,148.23L324,150.35L324.18,152.8L324.54,148.21L324.73,150.39L324.91,150.43L327.27,150.57L327.45,150.35L328.36,150.48L328.54,150.38L328.9,226.82L329.45,224.19L329.63,217.54L330.35,196.37L330.53,200.01L330.72,195.81L330.9,198.4L331.26,194.43L331.44,197.91L331.62,193.88L331.99,195.69L332.17,193.1L332.35,195.69L332.71,192.44L332.89,193.9L333.08,189.7L333.44,192.97L333.8,192.66L333.98,191.58L334.71,187.41L334.89,190.44L335.62,185.99L335.8,177.31L335.98,177L336.16,174.17L336.71,162.06L336.89,259.1L337.25,264.51L337.79,150.36L337.98,150.44L338.16,150.41L338.34,152.92L338.52,162.95L338.7,149.69L338.88,150.38L339.07,150.37L339.97,150.45L340.15,150.45L344.33,150.48L344.51,152.77L344.87,148.22L345.42,150.54L345.6,150.43L345.78,150.46L345.96,221.14L346.14,230.24L346.51,211.68L346.69,203.77L347.6,198.2L347.78,199.2L348.87,194.19L349.05,194L349.23,194.58L349.41,193.78L349.59,193.12L350.14,188.88L350.32,190.98L350.5,192.96L351.05,187.81L351.59,188.01L351.77,187.65L352.13,291.36L352.5,187.25L352.68,187.07L353.59,166.38L353.95,168.95L354.13,169.24L354.49,176.35L354.68,167.69L355.4,150.32L355.58,150.44L355.76,150.36L356.31,150.49L356.49,152.66L356.85,148.24L357.22,150.54L357.4,152.68L357.76,148.23L358.12,150.54L358.31,152.61L358.85,148.2L359.21,150.42L359.39,150.4L363.21,150.45L363.39,150.41L365.02,150.43L365.2,150.46L365.38,153.93L365.57,190L365.93,192.51L366.29,192.13L366.47,188.92L366.66,191.03L367.02,188.58L367.2,188.64L367.56,189.6L367.93,185.88L368.11,186.88L368.29,187.22L369.02,184.29L369.2,186.39L370.1,181.09L370.29,181.35L370.47,278.75L371.01,262.22L371.19,157.92L371.37,165.08L371.74,150.42L371.92,150.41L372.83,150.39L373.01,152.73L373.55,148.1L373.92,150.51L374.1,150.45L374.28,150.46L374.46,152.53L374.82,148.32L375.37,150.39L375.55,150.48L376.64,150.5L376.82,150.35L377.73,67.74L377.91,76.03L379.18,150.52L379.36,150.45L379.54,150.55L382.08,150.44L382.27,150.44L383.72,150.44L383.9,163.9L384.08,190.23L384.63,188.77L384.81,185.95L384.99,186.08L385.17,187.73L386.08,181.75L386.26,182.97L386.44,183.36L386.62,180.62L386.8,184.28L387.35,180.84L387.53,182.22L388.07,170.71L388.26,164.09L388.62,150.52L389.16,151.47L389.34,150.46L389.53,150.47L389.71,228.84L390.43,150.26L390.62,150.49L390.8,152.76L390.98,147.76L391.7,148.24L391.89,150.57L393.52,150.5L393.7,148.1L393.88,148.47L394.06,55.98L394.97,72.06L395.15,83.49L397.15,150.53L397.33,150.47L401.32,150.48L401.51,159.11L401.69,187.41L402.41,184.95L402.59,183.35L402.78,185.7L403.14,182.49L403.32,183.52L403.5,183.21L403.87,181.11L404.41,181.92L404.59,182.27L404.95,184.31L405.14,279.88L406.04,151.22L406.23,150.43L407.31,150.44L407.5,152.6L408.04,148.16L408.4,150.47L408.58,150.41L409.67,150.42L409.86,93.26L410.22,23.17L410.76,25.71L410.94,28.12L411.13,36.82L411.67,36.15L411.85,34.41L412.4,58.87L412.58,149.91L412.94,150.58L413.12,148.25L413.49,108.22L413.85,138.62L414.03,147.96L414.57,150.56L414.94,150.49L415.12,150.43L418.75,150.5L418.93,150.39L419.11,150.47L419.29,155.2L420.02,288.47L420.2,287.45L420.38,182.22L420.75,184.7L420.93,183.36L421.11,181.64L421.29,181.62L421.47,184.99L421.84,178.71L422.2,182.93L422.38,184.86L423.11,171.76L423.29,172.08L423.47,182.55L424.19,150.31L424.38,177.5L424.74,259.14L424.92,164.56L425.1,157.06L426.01,150.21L426.19,152.74L426.55,148.19L427.1,150.41L427.28,150.52L428.37,150.52L428.55,152.7L429.64,148.23L429.82,150.77L430.55,150.4L430.73,150.63L430.91,150.39L432.54,150.49L432.73,150.4L434.18,150.45L434.36,150.44L435.63,150.48L435.81,189.35L436.17,187.65L436.54,189.37L436.72,189.28L437.63,183.18L437.81,186.74L437.99,187.28L438.17,181.49L438.53,186.78L438.72,185.9L438.9,183.38L439.08,182.41L439.26,183.93L439.44,184.81L440.17,175.76L440.35,181.84L440.53,297.68L441.44,150.33L441.62,150.44L442.16,150.44L442.35,152.63L442.53,148.03L443.07,150.41L443.25,150.34L444.71,150.53L444.89,152.7L445.25,148.3L445.61,150.41L445.79,132.43L446.34,63.41L446.7,64.54L446.88,55.25L447.07,49.07L447.25,52.56L447.43,63.95L449.24,150.56L449.43,150.45L449.61,150.52L452.51,150.45L452.69,150.49L453.24,150.46L453.42,159.96L453.78,192.22L454.33,187.69L454.51,188.4L454.69,191.04L455.05,186.23L455.23,189.43L455.42,188.68L456.14,184.27L456.32,185.12L456.5,186.63L456.69,183.6L456.87,191.67L457.05,201.9L457.23,205.07L457.41,304L458.32,162.9L458.5,153.79L459.23,206.56L459.41,187.79L459.59,149.22L460.32,150.66L460.5,150.18L460.68,150.61L460.86,152.35L461.04,150.42L461.22,150.52L461.41,148.27L461.77,150.62L462.31,150.37L462.49,150.5L462.68,152.59L462.86,150.43L463.04,150.46L463.22,148.23L464.13,150.54L464.31,150.43L464.49,150.52L464.67,112.49L464.85,71.64L465.4,104.66L465.58,117.49L466.85,150.55L467.03,150.43L468.85,150.62L469.03,150.39L470.3,150.75L470.48,193.79L471.21,189.15L471.39,189.58L471.57,189.34L471.75,190.11L471.93,187.09L472.11,188.06L472.3,187.98L472.48,185.85L472.66,187.02L473.02,185.47L473.2,185.88L473.38,186.32L474.47,182.88L474.66,185.2L475.2,174.51L475.38,178.42L475.56,180.31L475.93,178.78L476.11,274.13L476.29,265.6L476.47,155.69L476.65,150.35L477.02,160.54L477.2,164.84L478.1,149.99L478.29,152.66L478.47,150.37L478.65,150.56L478.83,157.96L479.01,148.63L479.56,150.71L479.74,150.69L480.65,150.45L480.83,152.78L481.37,148.14L481.73,150.47L481.92,150.42L484.09,150.59L484.28,150.46L485,150.46L485.18,152.7L485.55,148.17L486.09,150.52L486.27,150.41L486.45,150.47L486.64,194.97L486.82,197.39L487.18,196.1L487.36,193.27L487.54,192.76L487.72,193.55L487.91,194.71L488.99,187.8L489.18,189.37L489.36,189.11L489.54,189.55L489.72,189L489.9,186.99L490.08,188.24L490.45,186.3L490.63,187L490.81,185.78L491.17,188.58L491.35,185.11L491.54,184.84L491.72,186.81L491.9,184.44L492.08,286.87L492.26,289.22L492.44,183.17L493.17,169.49L493.35,176.4L493.53,178.14L493.9,150.33L494.44,150.54L494.62,150.19L494.8,150.26L494.98,152.61L495.35,148.19L495.89,150.31L496.07,150.38L497.53,150.46L497.71,150.48L498.07,54.95L498.43,150.17L498.62,150.55L498.8,150.37L498.98,65.06L500.07,108.96L500.25,111.83L500.79,141.65L500.97,149.94L501.88,150.55L502.06,150.4L503.7,150.51L503.88,150.4L505.51,150.39L505.69,158.76L505.88,192.29L506.6,190.15L506.78,188.77L507.15,187.76L507.33,185.09L507.51,189.3L508.05,187.29L508.24,184.1L508.6,187.76L508.78,185.31L508.96,183.2L509.14,185.69L509.32,289.39L509.51,287.05L509.69,183.94L510.41,170L510.59,259.98L511.32,149.79L512.05,150.61L512.23,150.15L513.5,150.48L513.68,152.59L514.04,148.13L514.41,150.47L514.59,150.49L514.77,150.4L514.95,78.56L515.13,39.82L515.31,142.46L515.5,142.89L516.04,40.33L516.4,46.76L516.58,47.33L516.77,46.23L516.95,149.94L517.13,150.48L517.31,119.62L517.49,89.64L517.86,114.55L518.04,134.85L519.13,152.73L519.31,150.53L519.49,150.4L519.67,148.23L520.58,150.46L520.76,150.43L521.49,150.45L521.67,155.48L522.03,198.46L522.57,194.6L522.76,195.28L522.94,193.92L523.3,195.5L523.48,195.22L523.66,194.47L524.57,189.39L524.75,192.79L525.84,186.66L526.02,189.48L526.21,189.8L526.39,189.66L526.57,188.67L526.75,184.9L526.93,290.71L527.66,170.3L527.84,269.11L528.2,258.74L528.38,153.22L528.75,150.16L529.29,150.46L529.47,150.46L529.65,150.17L529.84,152.65L530.2,148.3L530.74,150.54L530.92,150.36L531.29,150.38L531.47,148.37L532.56,152.74L532.74,150.46L532.92,150.43L533.1,148.23L533.28,152.68L533.83,150.55L534.01,148.45L534.92,150.59L535.1,150.79L536.19,150.52L536.37,150.39L537.64,150.57L537.82,150.22L538.18,150.43L538.37,155.24L538.73,198.92L539.27,198.91L539.46,197.65L539.64,197.49L539.82,197.9L540,195.68" style="vector-effect: non-scaling-stroke; fill: none; stroke: rgb(0, 191, 255); stroke-opacity: 1; stroke-width: 2px; opacity: 1;"/></g><g class="points"/><g class="text"/></g></g></g><g class="overplot"/><path class="xlines-above crisp" d="M0,0" style="fill: none;"/><path class="ylines-above crisp" d="M0,0" style="fill: none;"/><g class="overlines-above"/><g class="xaxislayer-above"><g class="xtick"><text text-anchor="middle" x="0" y="433" transform="translate(114.85,0)" style="font-family: 'Open Sans', verdana, arial, sans-serif; font-size: 12px; fill: rgb(42, 63, 95); fill-opacity: 1; white-space: pre; opacity: 1;"><tspan class="line" dy="0em" x="0" y="433">Jul 3</tspan><tspan class="line" dy="1.3em" x="0" y="433">2022</tspan></text></g><g class="xtick"><text text-anchor="middle" x="0" y="433" style="font-family: 'Open Sans', verdana, arial, sans-serif; font-size: 12px; fill: rgb(42, 63, 95); fill-opacity: 1; white-space: pre; opacity: 1;" transform="translate(236.83,0)">Jul 10</text></g><g class="xtick"><text text-anchor="middle" x="0" y="433" style="font-family: 'Open Sans', verdana, arial, sans-serif; font-size: 12px; fill: rgb(42, 63, 95); fill-opacity: 1; white-space: pre; opacity: 1;" transform="translate(358.8,0)">Jul 17</text></g><g class="xtick"><text text-anchor="middle" x="0" y="433" style="font-family: 'Open Sans', verdana, arial, sans-serif; font-size: 12px; fill: rgb(42, 63, 95); fill-opacity: 1; white-space: pre; opacity: 1;" transform="translate(480.78,0)">Jul 24</text></g><g class="xtick"><text text-anchor="middle" x="0" y="433" style="font-family: 'Open Sans', verdana, arial, sans-serif; font-size: 12px; fill: rgb(42, 63, 95); fill-opacity: 1; white-space: pre; opacity: 1;" transform="translate(602.76,0)">Jul 31</text></g></g><g class="yaxislayer-above"><g class="ytick"><text text-anchor="end" x="79" y="4.199999999999999" transform="translate(0,414.99)" style="font-family: 'Open Sans', verdana, arial, sans-serif; font-size: 12px; fill: rgb(42, 63, 95); fill-opacity: 1; white-space: pre; opacity: 1;">−80</text></g><g class="ytick"><text text-anchor="end" x="79" y="4.199999999999999" style="font-family: 'Open Sans', verdana, arial, sans-serif; font-size: 12px; fill: rgb(42, 63, 95); fill-opacity: 1; white-space: pre; opacity: 1;" transform="translate(0,373.85)">−60</text></g><g class="ytick"><text text-anchor="end" x="79" y="4.199999999999999" style="font-family: 'Open Sans', verdana, arial, sans-serif; font-size: 12px; fill: rgb(42, 63, 95); fill-opacity: 1; white-space: pre; opacity: 1;" transform="translate(0,332.72)">−40</text></g><g class="ytick"><text text-anchor="end" x="79" y="4.199999999999999" style="font-family: 'Open Sans', verdana, arial, sans-serif; font-size: 12px; fill: rgb(42, 63, 95); fill-opacity: 1; white-space: pre; opacity: 1;" transform="translate(0,291.59000000000003)">−20</text></g><g class="ytick"><text text-anchor="end" x="79" y="4.199999999999999" style="font-family: 'Open Sans', verdana, arial, sans-serif; font-size: 12px; fill: rgb(42, 63, 95); fill-opacity: 1; white-space: pre; opacity: 1;" transform="translate(0,250.45)">0</text></g><g class="ytick"><text text-anchor="end" x="79" y="4.199999999999999" style="font-family: 'Open Sans', verdana, arial, sans-serif; font-size: 12px; fill: rgb(42, 63, 95); fill-opacity: 1; white-space: pre; opacity: 1;" transform="translate(0,209.32)">20</text></g><g class="ytick"><text text-anchor="end" x="79" y="4.199999999999999" style="font-family: 'Open Sans', verdana, arial, sans-serif; font-size: 12px; fill: rgb(42, 63, 95); fill-opacity: 1; white-space: pre; opacity: 1;" transform="translate(0,168.19)">40</text></g><g class="ytick"><text text-anchor="end" x="79" y="4.199999999999999" style="font-family: 'Open Sans', verdana, arial, sans-serif; font-size: 12px; fill: rgb(42, 63, 95); fill-opacity: 1; white-space: pre; opacity: 1;" transform="translate(0,127.05)">60</text></g></g><g class="overaxes-above"/></g></g><g class="polarlayer"/><g class="smithlayer"/><g class="ternarylayer"/><g class="geolayer"/><g class="funnelarealayer"/><g class="pielayer"/><g class="iciclelayer"/><g class="treemaplayer"/><g class="sunburstlayer"/><g class="glimages"/><defs id="topdefs-d7c44e"><g class="clips"/></defs><g class="layer-above"><g class="imagelayer"/><g class="shapelayer"/></g><g class="infolayer"><g class="g-gtitle"><text class="gtitle" x="350" y="50" text-anchor="middle" dy="0em" style="font-family: 'Open Sans', verdana, arial, sans-serif; font-size: 17px; fill: rgb(42, 63, 95); opacity: 1; font-weight: normal; white-space: pre;"><tspan class="line" dy="0em" x="350" y="50">Scenario 5</tspan><tspan class="line" dy="1.3em" x="350" y="50">Microgrid Output</tspan><tspan class="line" dy="2.6em" x="350" y="50">From: July 01, 2022 to July 31, 2022</tspan></text></g><g class="g-xtitle"><text class="xtitle" x="350" y="476.409375" text-anchor="middle" style="font-family: 'Open Sans', verdana, arial, sans-serif; font-size: 14px; fill: rgb(42, 63, 95); opacity: 1; font-weight: normal; white-space: pre;">Time</text></g><g class="g-ytitle"><text class="ytitle" transform="rotate(-90,33.840625,260)" x="33.840625" y="260" text-anchor="middle" style="font-family: 'Open Sans', verdana, arial, sans-serif; font-size: 14px; fill: rgb(42, 63, 95); opacity: 1; font-weight: normal; white-space: pre;">Demand (kW)</text></g></g></svg>