<svg class="main-svg" xmlns="http://www.w3.org/2000/svg" xmlns:xlink="http://www.w3.org/1999/xlink" width="700" height="500" style="" viewBox="0 0 700 500"><rect x="0" y="0" width="700" height="500" style="fill: rgb(255, 255, 255); fill-opacity: 1;"/><defs id="defs-31dc98"><g class="clips"><clipPath id="clip31dc98xyplot" class="plotclip"><rect width="540" height="320"/></clipPath><clipPath class="axesclip" id="clip31dc98x"><rect x="80" y="0" width="540" height="500"/></clipPath><clipPath class="axesclip" id="clip31dc98y"><rect x="0" y="100" width="700" height="320"/></clipPath><clipPath class="axesclip" id="clip31dc98xy"><rect x="80" y="100" width="540" height="320"/></clipPath></g><g class="gradients"/><g class="patterns"/></defs><g class="bglayer"/><g class="layer-below"><g class="imagelayer"/><g class="shapelayer"/></g><g class="cartesianlayer"><g class="subplot xy"><g class="layer-subplot"><g class="shapelayer"/><g class="imagelayer"/></g><g class="minor-gridlayer"><g class="x"/><g class="y"/></g><g class="gridlayer"><g class="x"><path class="xgrid crisp" transform="translate(134.02,0)" d="M0,100v320" style="stroke: rgb(255, 255, 255); stroke-opacity: 1; stroke-width: 1px;"/><path class="xgrid crisp" transform="translate(260.06,0)" d="M0,100v320" style="stroke: rgb(255, 255, 255); stroke-opacity: 1; stroke-width: 1px;"/><path class="xgrid crisp" transform="translate(386.11,0)" d="M0,100v320" style="stroke: rgb(255, 255, 255); stroke-opacity: 1; stroke-width: 1px;"/><path class="xgrid crisp" transform="translate(512.15,0)" d="M0,100v320" style="stroke: rgb(255, 255, 255); stroke-opacity: 1; stroke-width: 1px;"/></g><g class="y"><path class="ygrid crisp" transform="translate(0,375.96)" d="M80,0h540" style="stroke: rgb(255, 255, 255); stroke-opacity: 1; stroke-width: 1px;"/><path class="ygrid crisp" transform="translate(0,311.9)" d="M80,0h540" style="stroke: rgb(255, 255, 255); stroke-opacity: 1; stroke-width: 1px;"/><path class="ygrid crisp" transform="translate(0,247.84)" d="M80,0h540" style="stroke: rgb(255, 255, 255); stroke-opacity: 1; stroke-width: 1px;"/><path class="ygrid crisp" transform="translate(0,183.78)" d="M80,0h540" style="stroke: rgb(255, 255, 255); stroke-opacity: 1; stroke-width: 1px;"/></g></g><g class="zerolinelayer"><path class="yzl zl crisp" transform="translate(0,119.72)" d="M80,0h540" style="stroke: rgb(255, 255, 255); stroke-opacity: 1; stroke-width: 2px;"/></g><path class="xlines-below"/><path class="ylines-below"/><g class="overlines-below"/><g class="xaxislayer-below"/><g class="yaxislayer-below"/><g class="overaxes-below"/><g class="plot" transform="translate(80,100)" clip-path="url(#clip31dc98xyplot)"><g class="scatterlayer mlayer"><g class="trace scatter trace36eba3" style="stroke-miterlimit: 2; opacity: 0.5;"><g class="fills"/><g class="errorbars"/><g class="lines"><path class="js-line" d="M0,100.37L0.19,99.59L0.38,103.51L0.56,92.67L1.13,97.35L1.31,99.54L2.06,91.42L2.25,94.22L2.44,93.42L2.63,85.47L3,94.52L3.19,86.95L3.38,89.18L3.56,89.52L3.75,85.51L3.94,86.25L4.13,247.95L4.88,79.74L5.06,86.71L5.25,86.82L5.44,84.74L5.81,73.27L6,216.21L6.19,213.78L6.38,62.13L7.32,18.93L7.5,19.62L8.44,19.72L8.63,19.63L9.19,19.87L9.38,19.26L9.94,19.93L10.13,23.37L10.69,16L10.88,19.84L11.07,20.05L11.44,19.42L11.63,20.21L11.82,19.47L12.94,20.04L13.13,19.65L13.69,19.78L13.88,80.69L14.25,181.1L14.63,172.55L14.82,172.65L15.01,172.6L15.19,170.52L15.57,158.26L15.76,147.32L17.26,134.94L17.44,138.86L18.19,131.17L18.38,135.81L19.13,95.02L19.51,96.42L19.69,92.56L19.88,97.21L20.26,91.65L20.44,92.45L20.63,94.41L20.82,91.35L21.01,93.09L21.19,91.49L21.76,91.79L22.13,87.84L22.32,87.88L22.51,87.26L22.7,83.5L22.88,81.46L23.07,99.77L23.26,123.03L23.63,99.88L23.82,250.87L24.76,19.7L24.95,156.44L25.13,139.24L25.32,19.32L26.63,19.81L26.82,19.65L28.89,19.94L29.07,22.99L29.64,16.71L29.82,19.72L30.01,19.81L31.14,19.76L31.32,19.9L32.07,156.8L32.45,154.59L32.64,152.46L33.39,147.09L33.57,138.72L34.51,121.75L34.7,125.1L35.82,118.85L36.01,121.73L36.95,93.04L37.14,99.56L38.08,91.82L38.26,93.73L38.45,96.8L38.83,92.67L39.01,250.53L39.76,89.07L39.95,93.64L40.14,91.63L40.33,246.2L40.89,88.3L41.08,91.56L41.26,257.93L41.45,252.49L41.64,82.09L42.58,19.55L42.95,19.7L43.14,19.56L43.89,19.7L44.08,23.19L44.64,16.18L44.83,23.08L45.02,19.88L45.2,19.67L45.39,16.18L45.77,19.93L46.33,19.76L46.52,19.77L48.58,19.75L48.77,19.88L49.52,19.8L49.7,23.31L50.08,16.21L50.46,19.66L50.64,147.79L51.39,155.65L51.58,145.55L52.52,127.65L52.71,127.64L52.89,126.14L53.08,112.67L53.83,99.42L54.02,101.63L54.21,98.16L54.39,95.44L54.58,100.69L54.77,101.43L55.89,92.96L56.08,95.07L56.46,93.71L56.64,96.08L57.02,95.9L57.21,93.02L57.39,89.39L57.58,254.72L57.96,90.11L58.33,95.99L58.52,97.07L60.02,52.65L60.21,23.89L60.4,19.65L60.58,20L60.77,187.36L61.9,16.08L62.08,19.99L62.27,20.05L62.46,22.98L62.83,16.09L63.21,19.85L63.4,19.75L64.15,19.58L64.33,19.8L64.52,19.73L64.71,20.59L64.9,19.27L65.09,23.74L65.65,16.05L65.84,19.96L66.02,19.55L67.15,19.76L67.34,19.73L68.27,19.74L68.46,108.12L69.02,132.27L69.21,126.68L69.4,126.92L70.15,102.49L70.34,103.03L70.52,103.24L70.71,105.15L70.9,101.1L71.09,96.64L71.27,103.54L71.84,101.1L72.03,96.55L72.21,100.55L72.59,93.56L72.78,96.29L72.96,98.46L73.34,96.64L73.53,95.24L73.9,95.27L74.28,90.13L74.46,93.08L74.65,92.64L74.84,93.09L75.03,94.42L75.4,85.72L75.59,93.65L75.78,93.58L76.15,86.92L76.34,90.8L76.53,93.66L76.71,243.05L76.9,89.41L77.09,94.75L77.28,92.34L78.4,42.61L78.59,22.71L78.96,19.54L79.53,19.62L79.72,23.26L79.9,58.89L80.09,18.54L80.28,19.67L80.47,23.2L80.65,19.75L80.84,48.29L81.03,17.3L81.59,19.62L81.78,19.88L82.72,19.6L82.9,19.88L84.22,19.79L84.4,19.85L87.03,19.6L87.22,87.33L87.41,130.48L87.97,110.16L88.16,111.56L88.34,105.57L88.91,107.68L89.09,107.46L90.03,101.83L90.22,104.08L92.09,95.33L92.28,94.6L92.66,95.51L93.22,90.9L93.41,92.96L93.59,88.03L93.78,93.9L94.16,91.9L94.35,89.57L94.53,88.58L94.72,91.99L94.91,81.93L95.1,102.45L95.28,124.48L95.47,129.4L95.66,114.12L97.35,19.52L97.53,19.76L98.28,19.66L98.47,23.17L98.66,16.29L99.22,19.71L99.41,19.63L99.6,19.86L99.78,23.31L100.35,16.27L100.72,19.71L100.91,19.91L103.54,19.74L103.72,19.81L103.91,19.74L104.1,125.73L104.29,161.84L104.85,155.92L105.04,154.77L105.22,153.8L105.41,154.59L105.6,142.99L106.35,131.1L106.54,133.84L106.72,132.75L106.91,132.47L107.1,130.59L107.85,126.49L108.04,110.19L108.79,96.48L108.98,98.89L109.16,93.1L109.54,97.7L109.91,95.52L110.1,95.37L110.29,97.27L110.48,89.68L111.23,94.35L111.41,92.57L111.6,92.07L111.79,86.3L111.98,91.75L112.16,90.22L112.35,247.99L112.73,89.14L113.1,94.69L113.29,115.56L113.85,128.74L114.04,279.99L114.23,269.39L114.41,92.61L115.92,19.46L116.1,19.75L116.29,19.47L116.67,19.74L116.85,23.08L117.23,16.08L117.6,19.96L117.79,19.87L117.98,23.21L118.35,19.65L118.54,16.34L119.29,19.79L119.48,19.66L119.67,20.09L120.23,19.79L120.42,19.89L120.6,19.81L120.79,86.63L121.92,156.71L122.1,152.75L122.29,156.75L123.04,146.43L123.23,304L123.42,303.23L123.61,297.57L124.54,124.32L124.73,121.16L124.92,120.59L125.11,123.76L125.29,123.61L125.48,121.54L126.23,99.06L126.61,101.2L126.79,101.45L127.73,94.26L127.92,95.86L128.11,96.3L128.29,94.65L128.67,93.19L128.86,94.36L129.04,89.42L129.61,92.9L129.8,92.74L129.98,90.74L130.36,90.44L130.55,92.94L130.73,89.17L130.92,89.44L131.11,100.78L131.67,135.46L132.05,123.47L132.23,113.98L132.98,19.54L133.36,19.61L133.55,25.08L133.73,19.34L134.3,19.5L134.48,20.1L134.67,19.1L134.86,23.15L135.05,16.5L135.61,19.62L135.8,20.05L136.73,19.67L136.92,20.17L137.11,19.23L137.67,19.7L137.86,19.86L138.05,20.22L138.42,19.89L138.61,23.29L139.17,16.15L139.36,19.84L139.55,19.77L140.67,155.42L140.86,173.14L141.05,177.6L141.24,162.32L142.17,125.41L142.36,126.31L143.49,122.45L143.67,121.68L143.86,122.19L144.05,113.8L144.8,97.68L144.99,99.29L145.18,98.69L145.55,101.23L145.93,98.98L146.11,98.24L146.49,93.34L146.68,99.15L146.86,96.54L147.05,97.14L147.24,90.95L147.61,97.71L147.8,95.81L147.99,94.1L148.18,92.92L148.36,96.85L148.55,92.72L148.74,253.1L148.93,251.46L149.11,109.9L149.3,127.19L149.86,113.43L150.05,114.46L150.43,70.14L150.61,224.72L150.99,237.87L151.18,61.49L151.93,19.61L152.3,19.77L152.49,19.81L152.68,24.52L152.87,19.5L153.24,20L153.43,19.78L154.74,88.54L154.93,91.15L155.12,85.38L155.3,86.97L155.49,103.63L155.87,93.61L156.05,103.8L156.24,104.48L157.74,132.58L157.93,126.14L158.12,126.22L158.49,130.95L158.68,125.55L159.06,119.03L159.24,119.55L159.43,127.38L159.99,111.17L160.37,113.38L160.56,113.17L160.74,114.79L160.93,108.48L161.31,89.1L161.87,91.48L162.06,90.62L162.43,91.73L162.62,86.01L163.18,91.37L163.37,88.11L163.56,84.85L164.31,94.56L164.49,89.26L164.68,92.22L164.87,91.65L165.06,87.83L165.24,94.67L165.81,92.74L166,84.94L166.37,92.92L166.75,92.58L166.93,81L167.12,84.97L167.31,84.93L167.5,212.46L168.43,44.53L168.62,42.61L168.81,29.47L169,38.85L169.18,61.85L169.75,19.82L169.93,188.75L170.12,198.03L170.5,182.42L170.68,20.59L171.43,19.62L171.62,19.73L172.56,19.66L172.75,20.24L173.87,19.51L174.06,19.67L175,19.77L175.19,111.34L176.31,152.17L176.5,150.37L176.69,148.35L177.25,133.48L177.44,143.35L177.62,144.89L179.12,92.71L179.31,97.2L179.5,97.15L179.69,95.27L179.87,100.43L180.25,92.31L180.44,94.92L181.19,86.67L181.38,94.93L181.75,87.04L181.94,94.09L182.5,94.86L182.69,83.35L182.88,89.56L183.06,94.02L183.25,86.38L183.44,253.13L183.63,249.41L183.81,86.35L184,94.19L184.38,85.35L184.56,91.55L184.75,91.05L185.31,92.68L185.5,70.44L185.69,61.69L185.88,58.96L186.06,41.26L186.63,19.61L186.81,19.73L187,71.95L187.19,99.71L187.38,46.68L187.57,16.28L188.13,19.93L188.5,19.74L188.69,19.8L189.44,19.78L189.63,23.21L190.19,16.18L190.38,19.71L190.57,19.8L191.13,20.46L191.5,19.76L191.69,19.67L192.07,19.06L192.25,19.86L192.63,19.55L192.82,20.3L193,19.66L196.38,19.79L196.57,19.64L196.76,19.76L196.94,27.1L197.51,98.56L197.88,96.42L198.07,94.26L198.26,94.82L198.44,97.77L199.19,90.95L199.38,95.25L199.76,84.88L200.13,93.58L200.32,92.74L200.51,249.4L200.69,90.46L200.88,91.99L201.07,88.5L201.44,89.77L201.82,84.85L202.01,85.44L202.2,92.28L202.57,82.76L202.95,84.28L203.13,87.69L203.51,117.07L203.88,101.15L204.07,91.53L204.45,77.2L204.63,214.13L204.82,208L205.01,28.88L205.2,158.09L205.38,19.99L205.57,110.39L205.76,18.64L206.7,20.25L206.88,19.55L207.26,19.76L207.45,19.55L207.63,23.32L207.82,16.09L208.38,20.34L208.57,19.08L209.32,19.85L209.51,19.51L209.7,20.36L210.26,20.08L210.45,19.91L210.64,19.32L211.2,19.77L211.39,19.77L211.76,19.88L211.95,23.33L212.32,16.2L212.51,19.68L212.7,56.73L213.07,113.01L213.45,106.05L213.64,103.79L214.2,94.61L214.76,96.06L214.95,98.27L215.7,90.41L215.89,93.36L216.08,96.17L216.26,90.99L216.45,92.6L216.64,89.46L217.01,95.76L217.2,88.61L217.58,91.43L217.76,84.59L217.95,91.58L218.33,79.93L218.51,88.36L218.7,88.1L219.08,90.56L219.45,81.47L219.64,85.7L219.83,89.77L220.01,82.91L220.2,243.05L220.39,246.83L220.58,84.47L220.76,85.43L220.95,83.42L221.14,93.63L221.51,116.51L221.7,278.53L222.26,224.34L222.45,191.93L223.39,19.63L223.58,19.78L224.33,19.65L224.52,23.37L225.08,16.01L225.45,19.76L225.64,19.94L225.83,19.54L226.39,19.85L226.58,20.05L227.52,19.46L227.7,20.09L227.89,19.15L228.45,19.95L228.64,19.74L229.95,19.85L230.14,19.63L230.52,19.68L230.71,25.17L231.46,143.3L231.64,134.92L232.58,129.17L232.77,129.34L233.14,129.46L233.33,127.37L233.52,128.91L233.71,128.25L234.83,83.34L235.02,87.16L235.77,81.24L235.96,83.34L236.71,78.86L236.89,79.38L237.08,79.82L237.46,74.86L237.65,78.47L237.83,238.49L238.77,75.17L238.96,76.27L240.27,19.57L240.46,19.61L240.65,19.69L241.21,19.65L241.4,26.22L241.58,19.93L242.15,23.46L242.52,16.09L242.71,19.67L243.27,19.66L243.46,23.35L243.83,16.13L244.21,19.66L244.4,19.68L245.52,19.75L245.71,19.75L246.09,19.76L246.27,23.38L246.84,16.4L247.02,19.79L247.21,19.93L248.34,19.71L248.52,23.31L248.9,16.18L249.27,19.64L249.46,19.73L252.65,19.65L252.84,58.01L253.03,85.15L253.21,244.96L253.59,241.58L253.78,79.55L253.96,83.81L254.34,76.19L254.53,81.27L254.71,82.26L255.28,77.08L255.46,80.9L255.65,80.79L256.59,72.73L256.78,77.81L256.96,83.94L257.15,75.58L257.34,68.46L257.71,82.18L257.9,70.38L258.09,49.15L258.46,35.56L258.65,19.33L258.84,20.1L259.03,84.93L259.22,18.47L259.78,19.66L259.97,19.66L260.15,23.29L260.53,19.71L260.72,19.59L260.9,16.23L261.28,19.9L261.47,19.63L264.09,19.91L264.28,20.04L264.65,19.91L264.84,23.31L265.22,16.11L265.59,19.9L265.78,19.73L266.15,19.65L266.34,23.28L266.91,16.18L267.09,19.74L267.28,19.88L268.41,19.62L268.59,19.75L269.34,19.76L269.53,27.6L269.72,95.06L270.28,75.95L270.47,74.19L270.66,74.22L270.84,73.33L271.22,68.82L271.41,73.28L271.59,75.83L272.16,68.82L272.34,72.83L272.53,73.7L272.72,66.82L273.28,69.19L273.47,69.55L273.66,65.07L274.03,68.01L274.22,70.25L274.41,70.1L274.6,224.21L274.78,225.61L274.97,63.62L275.16,216L275.53,40.9L275.72,21.53L275.91,19.54L276.47,19.6L276.66,23.11L277.03,16.12L277.22,19.7L277.41,23.13L278.16,16.21L278.35,19.73L279.28,19.7L279.47,19.65L280.78,19.78L280.97,19.69L282.47,19.73L282.66,23.37L283.22,16.4L283.6,19.84L283.79,19.86L284.91,19.75L285.1,19.86L286.41,19.71L286.6,19.76L288.48,19.69L288.66,19.73L290.35,19.73L290.54,23.25L290.73,16.2L291.1,19.72L291.29,30.84L291.85,70.9L292.23,67.42L292.41,65.16L292.98,73.77L293.16,70.15L293.35,64.06L293.54,63.98L293.73,60.91L294.29,47.25L294.48,201.97L294.85,173.36L295.04,20.19L295.98,19.6L296.17,19.66L297.29,19.69L297.48,19.67L297.67,19.8L297.85,23.23L298.42,19.62L298.6,19.76L298.79,19.7L298.98,16.28L299.17,19.68L299.35,23.45L300.1,16.3L300.29,19.62L300.48,19.96L301.6,19.82L301.79,19.78L304.79,19.72L304.98,65.14L305.54,111.9L305.73,111.31L305.92,109.66L306.48,67.64L307.04,73.91L307.23,71.36L307.42,68.11L307.98,71.02L308.17,68.7L308.36,67.28L308.54,69.48L308.92,68.38L309.11,70.3L309.48,67.54L309.86,68.22L310.05,69.88L310.23,73.89L310.61,66.2L310.8,66.44L310.98,69.19L311.36,64.99L311.55,57.42L312.48,19.11L312.86,19.51L313.05,19.73L313.23,19.67L313.42,22.99L313.98,23.24L314.36,16.18L314.55,19.74L317.92,19.78L318.11,23.34L318.86,16.3L319.05,19.81L319.24,19.98L320.17,19.68L320.36,19.77L321.86,19.69L322.05,19.71L325.05,19.76L325.24,19.67L326.55,19.7L326.74,19.71L329.55,19.75L329.74,23.27L329.93,16.31L330.49,19.53L330.68,19.65L331.24,19.31L331.43,19.66L331.62,23.2L331.99,19.46L332.55,19.65L332.74,16.23L333.12,23.24L333.3,19.62L333.49,16.25L334.05,23.4L334.43,19.7L334.62,16.17L335.37,19.87L335.55,19.61L336.68,19.94L336.87,19.69L337.8,19.81L337.99,19.7L339.31,19.79L339.49,19.66L341.93,19.73L342.12,68.3L342.31,72.42L342.87,69.35L343.06,70.02L343.24,72.88L343.62,69.39L343.81,71.21L343.99,68.86L344.18,65.2L344.56,66.84L344.74,69.15L344.93,68.79L345.12,66.51L345.31,227.8L345.87,66.79L346.06,64.93L346.43,71.73L346.81,66.83L347,62L347.18,60.45L347.37,72.93L347.56,71.28L347.75,48.99L348.68,20.58L348.87,19.32L349.62,19.76L349.81,19.46L350,19.63L350.37,16.16L350.56,23.21L350.75,16.22L351.31,19.83L351.5,19.67L351.68,19.8L351.87,19.85L352.06,23.12L352.43,16.18L352.81,19.82L353,19.59L354.12,19.79L354.31,19.9L355.44,19.86L355.62,19.92L356.56,19.65L356.75,19.82L357.69,19.61L357.87,19.83L358.06,19.6L358.25,23.25L358.81,16.19L359.19,19.68L359.37,19.71L359.75,94.83L360.31,76.02L360.5,76.36L360.88,71.03L361.06,71.74L361.25,76.9L362.38,63.71L362.56,67.43L362.75,70.98L363.31,68.46L363.5,66.53L363.88,69.25L364.06,67.11L364.25,66.33L364.44,65.32L364.63,226.97L364.81,229L365,67.08L365.94,42.05L366.13,20.95L366.31,19.55L366.88,19.65L367.06,19.6L368.19,19.77L368.38,23.06L369.13,16.15L369.32,19.77L369.5,23.3L369.88,16.2L370.07,19.76L370.25,19.64L371,19.68L371.19,19.64L371.94,19.8L372.13,23.32L372.69,16.39L373.07,19.81L373.25,19.9L373.44,23.38L373.63,19.81L373.82,19.85L374,16.2L374.38,19.84L374.76,19.53L374.94,19.7L378.69,19.73L378.88,19.73L379.07,19.69L379.26,36.55L379.44,69.71L380.01,66.52L380.19,67.44L380.38,68.06L380.57,65.54L380.94,65.33L381.13,64.66L381.51,62.03L381.7,64.4L381.88,67.23L382.82,64.2L383.01,221.65L383.95,45.22L384.13,21.08L384.32,19.46L384.51,74.94L384.7,17.71L385.26,19.57L385.45,19.63L387.32,19.78L387.51,19.47L388.45,19.74L388.63,19.74L388.82,19.67L389.01,23.25L389.39,16.45L389.76,19.74L389.95,19.91L390.32,19.61L390.51,23.46L390.89,16.29L391.26,19.87L391.45,19.9L392.76,19.69L392.95,19.78L394.26,19.63L394.45,19.79L395.39,19.7L395.57,65.04L395.76,110.07L396.33,74.82L396.51,72.74L396.7,74.84L397.08,73.89L397.26,71.54L397.45,70.28L397.64,74.27L398.01,68.94L398.2,228.12L398.39,226.81L398.58,70.23L398.95,65.19L399.14,72.11L399.33,70.51L399.51,65.17L400.08,67.01L400.26,66.04L400.45,64.18L400.64,223.19L400.83,228.05L401.01,68.63L401.2,61.33L401.39,69.79L401.58,81.37L401.76,72.36L401.95,216.86L402.14,195.44L402.33,20.52L403.08,19.52L403.27,19.75L403.83,19.72L404.02,23.2L404.2,16.03L404.77,19.64L404.95,19.8L405.14,23.25L405.7,19.87L405.89,16.2L406.83,19.76L407.02,19.72L407.95,19.98L408.14,19.72L409.64,19.88L409.83,19.74L413.39,19.66L413.58,51.28L414.14,85.96L414.33,83.77L414.52,85.27L414.71,85.21L414.89,79.88L415.27,85.11L415.46,78.18L415.64,78.93L415.83,76.38L416.21,79.66L416.39,75.79L416.58,76.38L416.77,76.6L416.96,75.24L417.14,75.48L417.33,73.63L417.71,76.63L417.9,70.11L418.27,73.74L418.65,73.45L418.83,70L419.02,73.86L419.21,71.67L419.4,221.67L420.33,19.52L420.52,19.65L422.58,19.74L422.77,23.19L423.33,23.33L423.71,16.2L423.9,19.75L424.08,19.66L424.27,23.29L424.65,16.13L425.02,19.63L425.21,19.99L425.59,19.79L425.77,23.36L426.15,16.34L426.52,19.94L426.71,19.85L426.9,19.8L427.09,23.49L427.46,16.49L427.84,19.83L428.02,19.74L428.77,19.77L428.96,23.19L429.34,19.71L429.52,44.12L429.71,131.91L430.27,123.72L430.46,122.54L430.84,121.19L431.02,116.7L431.21,117.51L431.4,116.8L431.59,114.86L431.77,115.4L431.96,97.22L432.9,81.07L433.09,82.28L433.28,82.41L433.46,80.5L434.21,74.61L434.4,76.09L434.78,71.89L434.96,73.36L435.15,75.51L435.71,70.19L435.9,72.58L436.09,74.19L436.84,68.03L437.03,70.63L437.21,66.73L437.4,227.15L437.59,222.16L437.78,43.8L438.53,19.52L438.71,19.67L438.9,19.63L439.84,19.66L440.03,23.16L440.59,16.22L440.97,19.68L441.15,23.29L441.72,16.26L442.09,19.7L442.28,19.83L443.59,19.71L443.78,19.86L451.47,19.73L451.66,26.43L452.03,80.42L452.41,77.99L452.59,71.61L452.97,78.81L453.34,73.34L453.53,73.34L453.72,71.85L453.91,75.32L454.1,76.27L454.28,70.59L454.85,75.7L455.03,232.79L455.22,237.43L455.41,93.53L455.6,255.38L455.97,68.06L456.16,51.53L457.28,19.62L457.47,19.63L457.66,19.65L458.6,19.63L458.78,23.21L459.35,16.06L459.53,19.9L459.72,19.78L460.1,19.77L460.28,23.23L460.85,16.32L461.22,19.88L461.41,19.58L462.35,19.92L462.54,19.68L462.91,19.5L463.47,20.14L463.66,19.73L464.79,19.79L464.97,19.69L465.72,19.72L465.91,175.81L466.29,258.9L466.47,96.4L466.66,95.85L467.22,96.81L467.79,90.24L467.97,93.04L469.48,81.91L469.66,82.28L470.41,77.96L470.6,80.27L470.79,80.46L470.98,77.3L471.16,236.54L472.1,74.66L472.29,72.13L472.48,77.82L472.85,71.23L473.04,72.84L473.23,70.52L473.6,95.53L473.79,86.65L473.98,68.85L474.16,43.28L474.35,182.28L474.73,139.59L474.91,19.18L475.29,108.1L475.48,18.33L475.67,19.59L476.98,19.66L477.17,19.64L478.29,19.94L478.48,19.7L478.85,19.58L479.04,23.24L479.6,16.36L479.79,19.75L479.98,19.82L483.92,19.71L484.11,19.69L484.86,19.73L485.04,45.43L485.98,253.76L486.17,250.84L486.36,93.02L487.29,84.5L487.48,85.26L487.67,83.66L488.04,84.14L488.23,80.41L488.42,82.69L488.61,78.45L488.79,80.99L489.36,79.38L489.54,73.1L489.92,78.56L490.3,77.67L490.48,76.85L491.23,72.53L491.42,239.36L491.8,247.53L492.36,55.02L492.55,35.63L492.73,175.69L493.11,20.16L493.3,19.56L494.61,19.82L494.8,19.6L495.92,19.84L496.11,19.66L498.17,19.75L498.36,19.73L499.3,19.96L499.49,19.73L500.8,19.74L500.99,19.68L502.11,19.76L502.3,113.95L502.86,132L503.05,130.54L503.24,129.11L503.42,128.92L503.61,129.47L503.8,123.57L504.36,87.35L504.74,88.39L504.93,89.3L505.68,78.96L506.05,79.88L506.24,81.97L506.43,82.33L506.61,75.51L506.99,79.79L507.36,79.35L507.55,76.02L507.93,77.93L508.3,73.59L508.49,75.66L508.68,75.6L508.86,73.9L509.05,71.3L509.24,95.44L509.43,109.24L509.61,90.95L509.8,246.83L510.55,19.55L510.74,19.72L510.93,19.56L512.62,19.65L512.8,23.19L513.18,16.09L513.55,19.85L513.74,19.67L515.05,19.69L515.24,19.73L515.43,19.98L515.62,23.37L516.55,16.18L516.74,20.05L517.3,19.78L517.49,23.34L518.05,16.25L518.43,19.8L518.62,19.65L519.93,19.66L520.12,24.11L520.87,115.88L521.06,97.76L521.24,82.6L521.43,84.11L521.81,82.1L521.99,82.26L523.12,75.94L523.31,78.78L523.49,79.57L523.68,73.56L523.87,76.07L524.24,72.94L524.43,74.09L524.62,71.15L524.99,72.8L525.18,68.46L525.37,70.46L525.56,70.83L525.75,226.31L526.12,70.07L526.31,71.47L526.5,68.18L526.87,68.94L527.25,65.72L527.43,72.64L527.62,79.3L527.81,237.43L528.56,19.14L528.75,19.73L528.93,19.75L529.87,19.71L530.06,19.63L530.62,19.69L530.81,23.31L531.37,16.2L531.56,19.75L531.75,19.75L533.06,19.63L533.25,19.92L534.56,19.85L534.75,19.89L534.94,23.28L535.12,19.9L535.31,16.34L535.69,19.83L536.06,19.74L536.25,19.7L539.81,19.93L540,64.27" style="vector-effect: non-scaling-stroke; fill: none; stroke: rgb(0, 191, 255); stroke-opacity: 1; stroke-width: 2px; opacity: 1;"/></g><g class="points"/><g class="text"/></g></g></g><g class="overplot"/><path class="xlines-above crisp" d="M0,0" style="fill: none;"/><path class="ylines-above crisp" d="M0,0" style="fill: none;"/><g class="overlines-above"/><g class="xaxislayer-above"><g class="xtick"><text text-anchor="middle" x="0" y="433" transform="translate(134.02,0)" style="font-family: 'Open Sans', verdana, arial, sans-serif; font-size: 12px; fill: rgb(42, 63, 95); fill-opacity: 1; white-space: pre; opacity: 1;"><tspan class="line" dy="0em" x="0" y="433">Sep 4</tspan><tspan class="line" dy="1.3em" x="0" y="433">2022</tspan></text></g><g class="xtick"><text text-anchor="middle" x="0" y="433" style="font-family: 'Open Sans', verdana, arial, sans-serif; font-size: 12px; fill: rgb(42, 63, 95); fill-opacity: 1; white-space: pre; opacity: 1;" transform="translate(260.06,0)">Sep 11</text></g><g class="xtick"><text text-anchor="middle" x="0" y="433" style="font-family: 'Open Sans', verdana, arial, sans-serif; font-size: 12px; fill: rgb(42, 63, 95); fill-opacity: 1; white-space: pre; opacity: 1;" transform="translate(386.11,0)">Sep 18</text></g><g class="xtick"><text text-anchor="middle" x="0" y="433" style="font-family: 'Open Sans', verdana, arial, sans-serif; font-size: 12px; fill: rgb(42, 63, 95); fill-opacity: 1; white-space: pre; opacity: 1;" transform="translate(512.15,0)">Sep 25</text></g></g><g class="yaxislayer-above"><g class="ytick"><text text-anchor="end" x="79" y="4.199999999999999" transform="translate(0,375.96)" style="font-family: 'Open Sans', verdana, arial, sans-serif; font-size: 12px; fill: rgb(42, 63, 95); fill-opacity: 1; white-space: pre; opacity: 1;">−80</text></g><g class="ytick"><text text-anchor="end" x="79" y="4.199999999999999" style="font-family: 'Open Sans', verdana, arial, sans-serif; font-size: 12px; fill: rgb(42, 63, 95); fill-opacity: 1; white-space: pre; opacity: 1;" transform="translate(0,311.9)">−60</text></g><g class="ytick"><text text-anchor="end" x="79" y="4.199999999999999" style="font-family: 'Open Sans', verdana, arial, sans-serif; font-size: 12px; fill: rgb(42, 63, 95); fill-opacity: 1; white-space: pre; opacity: 1;" transform="translate(0,247.84)">−40</text></g><g class="ytick"><text text-anchor="end" x="79" y="4.199999999999999" style="font-family: 'Open Sans', verdana, arial, sans-serif; font-size: 12px; fill: rgb(42, 63, 95); fill-opacity: 1; white-space: pre; opacity: 1;" transform="translate(0,183.78)">−20</text></g><g class="ytick"><text text-anchor="end" x="79" y="4.199999999999999" style="font-family: 'Open Sans', verdana, arial, sans-serif; font-size: 12px; fill: rgb(42, 63, 95); fill-opacity: 1; white-space: pre; opacity: 1;" transform="translate(0,119.72)">0</text></g></g><g class="overaxes-above"/></g></g><g class="polarlayer"/><g class="smithlayer"/><g class="ternarylayer"/><g class="geolayer"/><g class="funnelarealayer"/><g class="pielayer"/><g class="iciclelayer"/><g class="treemaplayer"/><g class="sunburstlayer"/><g class="glimages"/><defs id="topdefs-31dc98"><g class="clips"/></defs><g class="layer-above"><g class="imagelayer"/><g class="shapelayer"/></g><g class="infolayer"><g class="g-gtitle"><text class="gtitle" x="350" y="50" text-anchor="middle" dy="0em" style="font-family: 'Open Sans', verdana, arial, sans-serif; font-size: 17px; fill: rgb(42, 63, 95); opacity: 1; font-weight: normal; white-space: pre;"><tspan class="line" dy="0em" x="350" y="50">Scenario 8</tspan><tspan class="line" dy="1.3em" x="350" y="50">Microgrid Output</tspan><tspan class="line" dy="2.6em" x="350" y="50">From: September 01, 2022 to September 30, 2022</tspan></text></g><g class="g-xtitle"><text class="xtitle" x="350" y="476.409375" text-anchor="middle" style="font-family: 'Open Sans', verdana, arial, sans-serif; font-size: 14px; fill: rgb(42, 63, 95); opacity: 1; font-weight: normal; white-space: pre;">Time</text></g><g class="g-ytitle"><text class="ytitle" transform="rotate(-90,33.840625,260)" x="33.840625" y="260" text-anchor="middle" style="font-family: 'Open Sans', verdana, arial, sans-serif; font-size: 14px; fill: rgb(42, 63, 95); opacity: 1; font-weight: normal; white-space: pre;">Demand (kW)</text></g></g></svg>