<svg class="main-svg" xmlns="http://www.w3.org/2000/svg" xmlns:xlink="http://www.w3.org/1999/xlink" width="700" height="500" style="" viewBox="0 0 700 500"><rect x="0" y="0" width="700" height="500" style="fill: rgb(255, 255, 255); fill-opacity: 1;"/><defs id="defs-9f22ed"><g class="clips"><clipPath id="clip9f22edxyplot" class="plotclip"><rect width="540" height="320"/></clipPath><clipPath class="axesclip" id="clip9f22edx"><rect x="80" y="0" width="540" height="500"/></clipPath><clipPath class="axesclip" id="clip9f22edy"><rect x="0" y="100" width="700" height="320"/></clipPath><clipPath class="axesclip" id="clip9f22edxy"><rect x="80" y="100" width="540" height="320"/></clipPath></g><g class="gradients"/><g class="patterns"/></defs><g class="bglayer"/><g class="layer-below"><g class="imagelayer"/><g class="shapelayer"/></g><g class="cartesianlayer"><g class="subplot xy"><g class="layer-subplot"><g class="shapelayer"/><g class="imagelayer"/></g><g class="minor-gridlayer"><g class="x"/><g class="y"/></g><g class="gridlayer"><g class="x"><path class="xgrid crisp" transform="translate(97.43,0)" d="M0,100v320" style="stroke: rgb(255, 255, 255); stroke-opacity: 1; stroke-width: 1px;"/><path class="xgrid crisp" transform="translate(219.4,0)" d="M0,100v320" style="stroke: rgb(255, 255, 255); stroke-opacity: 1; stroke-width: 1px;"/><path class="xgrid crisp" transform="translate(341.38,0)" d="M0,100v320" style="stroke: rgb(255, 255, 255); stroke-opacity: 1; stroke-width: 1px;"/><path class="xgrid crisp" transform="translate(463.35,0)" d="M0,100v320" style="stroke: rgb(255, 255, 255); stroke-opacity: 1; stroke-width: 1px;"/><path class="xgrid crisp" transform="translate(585.3299999999999,0)" d="M0,100v320" style="stroke: rgb(255, 255, 255); stroke-opacity: 1; stroke-width: 1px;"/></g><g class="y"><path class="ygrid crisp" transform="translate(0,414.62)" d="M80,0h540" style="stroke: rgb(255, 255, 255); stroke-opacity: 1; stroke-width: 1px;"/><path class="ygrid crisp" transform="translate(0,375.5)" d="M80,0h540" style="stroke: rgb(255, 255, 255); stroke-opacity: 1; stroke-width: 1px;"/><path class="ygrid crisp" transform="translate(0,336.39)" d="M80,0h540" style="stroke: rgb(255, 255, 255); stroke-opacity: 1; stroke-width: 1px;"/><path class="ygrid crisp" transform="translate(0,297.27)" d="M80,0h540" style="stroke: rgb(255, 255, 255); stroke-opacity: 1; stroke-width: 1px;"/><path class="ygrid crisp" transform="translate(0,219.04000000000002)" d="M80,0h540" style="stroke: rgb(255, 255, 255); stroke-opacity: 1; stroke-width: 1px;"/><path class="ygrid crisp" transform="translate(0,179.92000000000002)" d="M80,0h540" style="stroke: rgb(255, 255, 255); stroke-opacity: 1; stroke-width: 1px;"/><path class="ygrid crisp" transform="translate(0,140.81)" d="M80,0h540" style="stroke: rgb(255, 255, 255); stroke-opacity: 1; stroke-width: 1px;"/><path class="ygrid crisp" transform="translate(0,101.69)" d="M80,0h540" style="stroke: rgb(255, 255, 255); stroke-opacity: 1; stroke-width: 1px;"/></g></g><g class="zerolinelayer"><path class="yzl zl crisp" transform="translate(0,258.15)" d="M80,0h540" style="stroke: rgb(255, 255, 255); stroke-opacity: 1; stroke-width: 2px;"/></g><path class="xlines-below"/><path class="ylines-below"/><g class="overlines-below"/><g class="xaxislayer-below"/><g class="yaxislayer-below"/><g class="overaxes-below"/><g class="plot" transform="translate(80,100)" clip-path="url(#clip9f22edxyplot)"><g class="scatterlayer mlayer"><g class="trace scatter tracec8c6b1" style="stroke-miterlimit: 2; opacity: 0.5;"><g class="fills"/><g class="errorbars"/><g class="lines"><path class="js-line" d="M0,221.04L0.73,189.31L0.91,189.47L1.09,189.47L1.45,190.02L1.82,188.25L2,190.08L2.36,187.09L2.54,188.7L2.72,286.82L3.63,187.53L3.81,285.96L3.99,285.2L4.17,189.7L4.36,286.3L4.72,188.15L4.9,188.69L5.08,188.6L5.26,189.23L5.45,183.7L7.08,158.03L7.26,158.02L8.17,158.13L8.35,160.33L8.71,156.03L9.26,158.08L9.44,158.23L9.62,158.13L9.8,24.85L10.71,34.82L10.89,46.19L12.52,160.22L13.07,158.18L13.25,156.05L13.98,158.18L14.16,158.13L14.34,158.18L15.79,158.36L15.97,192.2L16.34,192.69L16.52,189.75L16.88,191.41L17.06,188.24L17.43,189.66L17.79,189.6L17.97,188.53L18.33,187.48L18.51,188.03L18.7,189.39L19.24,189.78L19.42,186.07L19.6,187.34L19.78,188.71L20.87,186.79L21.06,189.35L21.24,188.73L21.42,284.82L21.6,286.83L21.78,187.65L21.96,186.6L22.14,188.49L22.33,187.83L22.51,187.84L22.87,178.95L23.05,173.83L24.32,158L24.5,157.98L25.23,158.12L25.41,160.3L25.96,156.02L26.32,158.19L26.5,158.04L27.23,158.08L27.41,35.21L27.59,31.39L27.95,36.37L28.13,43.17L29.41,121.68L29.59,159.71L29.95,156.1L30.31,158.17L30.49,158.23L32.85,158.13L33.04,158.18L34.12,158.13L34.31,187.62L35.03,191.44L35.21,190.08L35.39,189.97L35.58,191.29L36.48,186.2L36.67,188.49L37.03,187.5L37.39,190.25L37.57,188.02L37.75,186.46L37.94,188.55L38.12,285.46L39.03,186.06L39.21,187.05L39.39,188.26L39.75,186.12L39.93,182.54L40.11,178.14L40.3,270.96L41.02,158.1L41.2,158.11L41.38,158.13L43.38,158.15L43.56,160.29L43.93,155.95L44.47,158.3L44.65,158.12L45.2,158.18L45.38,94.34L45.56,64.78L46.1,88.76L46.29,100.45L47.56,158.33L47.74,158.11L47.92,158.27L49.01,158.12L49.19,158.19L51.55,158.16L51.73,158.15L52.28,195.85L52.82,193.88L53,195.13L54.09,188.8L54.27,189.97L54.64,188.33L55,188.95L55.18,191.09L55.91,187.52L56.09,285.29L56.81,186.98L56.99,284.03L57.18,285.99L57.36,283.35L57.54,181.7L58.63,158.08L58.81,158.12L60.99,158.08L61.17,158.17L62.08,158.15L62.26,127.8L62.44,74.96L62.98,95.8L63.17,102.83L64.8,158.2L64.98,158.25L66.8,158.17L66.98,160.37L67.16,158.21L67.34,183.83L67.52,239.88L68.07,218.32L68.25,220.95L68.61,218.01L68.79,221.31L69.16,216.92L69.7,217.39L69.88,216.65L70.06,218.52L70.25,217.6L70.43,213.57L70.79,216.4L70.97,208.45L71.52,188.95L71.88,191.84L72.06,188.53L72.61,186.41L72.97,192.1L73.15,187.44L73.51,189.85L73.69,188.76L73.88,187.24L74.24,188L74.6,186.41L74.78,184.74L74.96,276.72L75.33,175.63L75.51,171.11L75.87,158.08L76.42,158.09L76.6,158.08L77.69,158.15L77.87,160.28L78.23,156.08L78.78,158.13L78.96,158.16L79.14,160.3L79.5,156.01L79.68,158.18L79.87,158.17L80.23,158.15L80.41,160.41L80.59,158.15L80.77,146.24L80.95,110.8L81.5,128.43L81.68,140.46L82.04,158.29L82.59,158.14L82.77,158.22L84.4,158.1L84.58,158.18L84.77,158.15L84.95,176.04L85.31,222.39L85.86,219.39L86.04,218.77L86.22,215.67L86.58,218.9L86.76,217.28L86.94,217.28L88.22,191.36L88.4,191.12L88.76,192.16L88.94,191.67L89.12,190.97L89.67,191.27L90.03,189.45L90.21,191.08L90.94,189.03L91.12,288.73L91.3,290.06L91.66,189.25L92.21,191.86L92.39,190.68L92.57,186.92L92.75,280.06L92.93,284.63L93.12,194.63L93.3,191.04L93.48,198.46L93.66,293.42L94.02,273.58L94.21,163.98L94.39,157.74L95.11,158.12L95.29,160.39L95.84,155.98L96.2,158.23L96.38,158.09L97.47,158.21L97.65,112.83L98.2,158.22L98.56,158.18L98.74,158.23L102.92,158.16L103.1,191.41L103.46,196.55L103.64,196.25L103.83,190.25L104.19,194.21L104.37,188.82L104.55,192.46L104.73,192.4L105.1,192.82L105.28,190.55L105.46,191.64L105.64,192.22L105.82,190.11L106.37,190.67L106.55,190.61L106.73,190.81L106.91,188.67L107.27,188.8L107.46,190.38L108.18,187.75L108.36,285.16L108.91,186.31L109.27,190.65L109.45,187.89L109.63,187.99L109.82,193.94L110,194.14L110.18,183.76L110.72,158.8L110.9,240.72L111.45,158.05L111.81,158.07L111.99,158.04L113.45,158.18L113.63,158.21L113.81,158.05L113.99,160.25L114.53,156.05L114.9,158.21L115.08,158.15L115.26,75.26L115.81,115.14L115.99,122.45L116.89,158.3L117.26,158.22L117.44,158.2L120.16,158.1L120.34,174.06L120.52,209.43L121.07,192.39L121.25,193.65L121.61,195.87L121.79,193.5L121.98,191.12L122.34,190.45L122.52,191.53L122.7,194.1L123.79,190.21L123.97,189.63L124.34,189.04L124.7,191.01L124.88,188.15L125.43,187.93L125.61,190.09L125.79,187.53L126.51,285.95L126.7,188.72L127.06,184.14L127.24,276.19L127.97,158.08L128.15,158.09L128.33,158.13L129.6,158.14L129.78,160.31L130.14,156.01L130.69,158.11L130.87,158.19L131.42,158.32L131.6,156.04L131.78,39.84L132.32,148.58L132.5,158.17L132.69,157.69L132.87,106.8L133.05,97.03L133.41,117.03L133.59,126.7L134.32,158.26L134.5,158.18L134.68,160.45L135.05,156.08L135.59,158.14L135.77,158.17L136.86,158.16L137.04,176.37L137.22,215.81L137.95,212.45L138.13,209.36L139.4,193.33L139.58,193.94L139.76,196.45L140.13,192.37L140.31,189.95L140.49,188.54L140.67,192.84L140.85,192.93L141.04,189.71L141.58,190.92L141.76,190.27L142.31,188.5L142.49,286.51L142.67,285.97L142.85,189.91L143.03,286.45L143.21,187.36L143.58,191.03L143.76,187.67L144.12,286.27L144.3,187.13L144.67,278.8L144.85,173.27L145.39,158.07L145.75,158.09L145.94,158.09L147.75,158.11L147.93,160.32L148.48,160.49L148.84,156.02L149.02,158.16L149.2,158.17L149.38,92.87L149.57,43.63L149.75,147.61L149.93,153.52L150.11,62.76L150.66,91.9L150.84,105.13L151.74,160.44L152.11,158.24L152.29,156L153.2,158.19L153.38,158.11L155.01,158.18L155.19,184.21L155.56,196.86L156.1,193.5L156.28,192.84L156.46,195.69L156.83,192.72L157.01,191.9L157.19,193.2L157.55,190.59L157.73,191.95L157.92,191.36L158.28,188.31L158.46,189.73L158.64,288.3L159.55,188.31L159.73,187.78L159.91,190.67L160.28,186.76L160.46,189.99L160.64,188.25L160.82,185.26L161.18,188.84L161.36,187.83L161.55,186.75L161.91,296.84L162.27,199.31L162.45,191.64L162.64,281.47L163,276.63L163.18,176.4L163.72,157.92L164.09,158.14L164.27,158.14L166.08,158.16L166.27,158.22L166.45,160.27L166.81,158.06L166.99,156.03L167.35,158.79L167.72,158.18L167.9,157.72L168.63,158.26L168.81,158.07L168.99,158.28L173.34,158.18L173.53,163.55L174.25,192.6L174.43,191.33L174.62,189.11L174.8,188.98L174.98,190.61L175.34,191.72L175.52,190.61L175.7,189.52L176.07,191.21L176.25,190.79L176.43,189.55L176.97,188.68L177.16,191.1L177.52,187.45L177.7,190.48L177.88,190.44L178.43,190.67L178.61,187.55L178.79,188.72L178.97,190.18L179.15,187.55L179.33,188.04L179.52,289.02L179.7,199.86L180.06,205.83L180.24,304L181.15,192.17L181.33,185.76L182.6,158.03L182.78,213.82L182.96,210.58L183.15,157.1L183.51,160.31L183.69,158.52L183.87,156.23L184.24,158.42L184.78,158.33L184.96,158.2L185.87,158.2L186.05,158.14L187.5,158.18L187.68,187.05L188.41,199.75L188.59,196.54L188.77,194.45L189.32,193.42L189.5,191.6L189.86,192.58L190.04,189.53L190.23,189.41L190.41,192.2L191.31,186.82L191.5,188.72L191.68,190.67L191.86,188.1L192.22,188.99L192.4,187.31L192.58,187.46L192.77,190.21L192.95,191.14L193.13,286.12L193.86,186.86L194.04,187.47L194.22,188.62L194.58,187.26L194.94,187.46L195.13,188.07L195.67,188.77L196.03,186.64L196.22,187.14L196.4,188.39L196.58,187.29L196.76,283.31L196.94,282.89L197.12,185.49L197.49,196.52L197.67,177.5L197.85,164.67L198.03,166.82L198.21,264.99L198.39,262.76L198.57,165.07L198.76,167.53L198.94,163.64L199.12,157.93L199.85,158.11L200.03,157.93L200.75,158.27L200.93,160.49L201.84,156.06L202.02,158.23L203.48,158.2L203.66,158.23L205.29,158.11L205.47,158.2L206.92,158.16L207.11,158.16L207.83,158.12L208.01,187.26L208.19,191.11L208.74,189.82L208.92,187.96L209.1,190.04L209.47,187.44L209.65,189.79L209.83,189.12L210.55,185.66L210.74,187.71L210.92,189.36L211.28,186.18L211.46,186.69L211.64,189.64L212.01,185.1L212.19,187.69L212.37,188.93L213.28,185.06L213.46,185.99L214,185.22L214.18,188.53L214.37,187.83L214.55,180.98L214.73,279.32L215.27,192.45L215.46,191.89L216.18,176.6L216.36,163.88L216.73,158.01L216.91,160.23L217.09,182.01L217.27,156.49L218,158.17L218.18,158.1L218.54,158.15L218.72,160.31L219.09,156.02L219.63,158.2L219.81,158.4L219.99,158.17L220.17,156.12L220.9,160.42L221.08,158.2L221.26,158.25L221.45,156.04L221.99,158.2L222.17,158.12L222.72,158.14L222.9,190.51L223.08,220.92L223.81,217.77L223.99,216.16L224.17,216.13L224.35,214.93L224.53,216.14L224.71,214.48L224.89,210.74L225.26,213.84L225.44,209.23L225.62,206.81L226.71,188.16L226.89,185.91L227.25,191.01L227.8,190.56L227.98,187.89L228.16,188.67L228.34,188.59L228.52,185.39L228.89,189.38L229.43,188.76L229.61,188.95L230.16,186.11L230.34,187.98L230.7,186.68L231.07,189.22L231.25,284.5L231.43,186.56L231.97,209.3L232.15,207.15L232.34,209.09L232.52,207.47L232.7,300.25L232.88,300.82L233.06,206.38L233.24,298.47L233.61,194.51L233.79,191.86L234.15,178.96L234.33,273.12L234.7,249.5L234.88,158.14L236.69,158.21L236.87,160.3L237.6,156.07L237.78,158.21L237.96,158.25L241.05,158.1L241.23,158.16L243.05,158.16L243.23,189.6L243.41,191.64L243.77,187.25L243.95,191.25L244.13,190.31L244.32,186.32L244.68,191L244.86,187.99L245.04,189.87L245.22,191.18L245.41,188.31L245.59,188.1L245.77,187.74L245.95,188.13L246.13,188.8L246.68,185.97L246.86,187.92L247.4,190.38L247.58,187.65L247.76,284.28L247.95,286.62L248.13,188.3L248.31,185.89L248.67,189.04L248.85,187.17L249.04,188.64L249.22,285.8L249.76,180.4L249.94,178.8L250.12,172.11L250.67,175.87L250.85,174.24L251.76,158.14L251.94,158.15L252.12,158.08L253.39,158.22L253.57,160.24L254.12,156.02L254.48,158.11L254.66,158.38L255.93,158.16L256.11,172.88L256.66,213.09L257.02,193.5L257.2,193.15L257.38,192.87L257.57,194.98L257.93,190.53L258.47,190.78L258.66,191.16L258.84,192.28L259.02,190.12L259.2,189.77L259.38,191.4L259.56,190.67L259.74,187.56L259.93,187.45L260.11,187.84L260.29,186.64L260.83,190.23L261.02,187.2L261.2,186.86L261.38,189.5L261.74,186.11L261.92,187.86L262.1,189.6L263.19,186.63L263.37,189.06L263.56,188.6L263.74,186.11L263.92,187.05L264.1,285.95L264.65,185.86L265.01,188.23L265.19,188.31L265.37,188.57L265.55,187.88L265.73,187.11L266.28,187.58L266.46,285.9L266.64,284.66L266.82,183.01L267.73,161L267.91,252.78L268.09,244.08L268.28,158.15L270.09,157.91L270.27,160.22L270.64,156.09L271.18,158.3L271.36,158.06L271.54,158.26L271.72,160.41L272.09,156.01L272.63,158.19L272.81,158.14L273.9,158.19L274.08,160.33L274.27,158.15L274.45,233.56L274.63,290.83L274.99,194.76L275.17,194.16L275.72,195.09L276.08,190.79L276.26,195.82L276.44,205.58L276.81,194.65L276.99,190.72L277.35,186.17L277.9,186.68L278.08,186.18L278.8,188.32L278.98,187.92L279.17,187.45L279.53,187.99L279.71,187.44L279.89,186.4L280.26,187.32L280.62,186.71L280.8,186.54L281.89,185.68L282.07,186.06L282.8,185.28L282.98,185.46L283.16,185.66L283.7,185.57L283.89,192.58L284.07,296.18L284.61,175.74L284.79,258.9L284.97,243.79L285.16,158.04L287.7,158.17L287.88,94.2L288.24,25.22L288.61,31.6L288.79,33.82L288.97,31.45L289.15,38.09L289.33,47.61L289.51,56.19L289.69,157.72L290.06,158.27L290.24,156.05L290.42,158.38L291.15,158.16L291.33,158.21L296.23,158.14L296.41,158.15L296.95,189.4L297.32,188.34L297.5,188.69L298.59,186.45L298.77,186.54L299.68,186.68L299.86,186.05L300.04,184.81L300.22,283.84L301.13,186.12L301.31,185.49L301.67,193.27L301.86,189.84L302.04,179.38L302.58,158.09L302.94,158.12L303.13,160.21L303.31,192.03L303.49,157.45L303.85,157.97L304.03,158.14L304.58,158.09L304.76,160.27L305.12,156L305.67,158.15L305.85,158.23L307.12,158.23L307.3,146.4L307.48,140.05L307.85,143.53L308.03,160.09L308.39,156.13L308.93,158.24L309.12,158.14L309.3,158.19L309.48,160.3L309.84,156.03L310.21,158.18L310.39,187.78L310.75,227.24L311.29,225.48L311.48,221.09L312.38,216.35L312.56,218.65L312.93,213.35L313.11,216.49L313.29,217.12L314.38,187.93L314.56,188.96L315.11,190.7L315.29,188.19L315.65,188.73L316.01,186.72L316.19,284.16L316.92,185.28L317.1,186.84L317.28,187.23L318.19,185.52L318.37,283.51L318.74,186.21L319.28,194.93L319.46,184.65L320.55,158.05L320.73,158.14L323.82,158.23L324,136.18L324.18,82.65L324.73,107.62L324.91,122.6L325.82,158.29L326.18,158.25L326.36,158.22L327.45,158.04L327.63,160.28L327.81,156L328.36,158.17L328.54,158.13L328.72,158.14L328.9,193.95L329.08,200.97L329.63,198.06L329.81,196.89L332.35,189L332.53,189.37L332.89,191.62L333.08,189.57L333.26,187.05L333.62,190.04L334.16,188.79L334.35,187.11L334.71,187.85L335.25,186.98L335.44,187.91L335.62,187.07L335.8,283.93L336.34,181.6L336.52,186.94L336.71,199.89L336.89,198.41L337.07,188.6L337.43,165.42L337.61,258.08L337.79,245.37L337.98,158.27L338.16,158.02L338.34,178.79L338.52,210.46L338.7,157.14L338.88,158.05L339.07,158.2L341.79,158.23L341.97,160.22L342.51,156.13L342.88,158.15L343.06,158.23L344.33,158.14L344.51,160.27L345.06,156.02L345.42,158.21L345.6,192.99L345.96,200.39L346.33,199.63L346.51,197.29L347.05,193.67L347.23,195.48L347.42,196.46L348.32,214.73L348.5,214.18L348.69,202.89L349.05,188.43L349.59,188.84L349.77,187.58L350.14,187.95L350.32,187.62L350.5,189.58L350.86,186.18L351.05,187.21L351.23,188.53L351.59,186.61L352.13,186.87L352.32,186.35L352.5,186.96L352.68,186.59L352.86,185.34L353.41,190.67L353.59,201.77L353.77,207.93L353.95,202.04L354.13,192.68L355.4,158.05L355.58,158.13L355.76,160.18L355.95,191.76L356.13,156.93L356.85,158.12L357.04,158.08L358.49,158.18L358.67,158.19L358.85,160.28L359.21,158.15L359.39,156.13L359.58,158.29L359.76,158.21L359.94,145.96L360.12,138.31L360.3,155.99L360.48,158.18L363.03,158.2L363.21,158.2L363.57,158.15L363.75,221.88L363.93,226.64L364.11,215.94L364.3,213.77L364.66,217.56L364.84,214.88L365.02,212.42L365.38,214.46L365.57,210.77L365.93,215.39L366.11,203.04L367.02,189.58L367.2,190.33L367.38,191.2L367.56,190.76L367.74,186.79L368.47,192.52L368.65,189.3L369.2,190.61L369.56,185.84L369.74,189.05L369.92,286.88L370.47,187.84L370.65,189.06L371.01,188.56L371.19,191.35L371.56,179.69L371.74,167.01L372.1,158.03L372.65,158.18L372.83,157.97L373.55,158.13L373.73,158.05L373.92,160.36L374.28,156.11L374.46,157.94L374.64,158.3L375.55,158.2L375.73,158.12L375.91,157.75L376.46,158.26L376.64,158.33L377.18,126.49L377.36,141.4L377.55,154.49L377.73,139.65L378.09,160.31L378.27,158.26L378.82,158.17L379,155.99L379.91,158.15L380.09,158.16L380.27,158.14L380.45,181.15L380.63,207.34L381.18,203.78L381.36,201.24L381.9,204.15L382.08,203.76L382.27,200.97L382.99,185.6L383.35,188.21L383.54,185.5L384.44,188.56L384.63,188.33L384.81,186.22L385.17,186.81L385.35,284.08L385.9,185.51L386.26,187.45L386.44,187.66L386.8,283.56L386.98,186.7L387.17,186.71L387.35,186.45L388.07,185.61L388.26,186.81L388.8,165.82L388.98,158.31L389.53,158.03L389.71,189.01L389.89,223.1L390.25,156.46L390.43,158.12L392.25,158.18L392.43,152.85L392.61,19.37L393.16,116.59L393.34,113.1L393.52,16L394.06,34.41L394.25,44.28L396.06,158.25L396.42,158.16L396.61,158.14L401.14,158.14L401.32,158.16L402.41,158.16L402.59,176.9L402.78,185.34L403.5,184.98L403.68,185.2L403.87,185.53L404.23,184.88L404.41,185.11L404.59,185.24L404.95,184.95L405.14,185.34L405.32,282.35L405.5,282.57L405.68,186.05L406.04,182.92L406.23,179.32L407.13,158.06L407.5,158.14L407.68,158.09L407.86,160.25L408.4,158.1L408.58,158.11L408.77,155.99L409.31,158.12L409.49,158.1L410.76,158.12L410.94,68.87L411.13,16.07L411.67,41.54L411.85,53.08L413.3,158.24L413.85,158.15L414.03,158.17L418.57,158.16L418.75,158.16L419.84,158.16L420.02,171.73L420.56,185.5L420.93,185.22L421.11,185.38L421.47,184.96L421.65,185.38L421.84,185.64L422.02,185.24L422.2,282.4L422.38,283.22L422.56,186.12L422.74,185.24L422.92,282.38L423.11,283.39L423.29,185.72L423.83,173.31L424.01,162.01L424.92,158.08L425.1,158.08L427.46,158.21L427.64,160.29L428.01,156.01L428.19,67.5L428.37,44.24L428.91,68.91L429.1,78.98L430.55,158.23L430.91,158.13L431.09,158.17L436.72,158.15L436.9,168.64L437.26,185.75L437.81,185.52L437.99,185.59L438.17,282.56L438.72,185.5L438.9,185.2L440.71,185.27L440.89,182.75L442.16,158.06L442.35,158.08L442.53,158.14L443.8,158.05L443.98,158.29L444.16,158.02L444.34,158.24L444.52,160.21L444.89,156L445.07,158.13L445.25,59.6L445.43,32.15L445.79,33.8L445.98,136.72L446.16,141.77L446.34,61.15L447.25,158.76L447.97,158.29L448.15,156.06L448.88,158.17L449.06,158.14L449.24,158.16L450.15,158.16L450.33,190.09L450.51,214.11L451.24,211.52L451.42,212.47L451.6,212.81L451.78,210.51L451.97,209.1L452.15,211.34L452.51,210.06L452.69,210.37L452.87,208.9L453.24,211.39L453.42,211.17L453.78,208.2L453.96,197.72L454.87,186.79L455.05,186.3L455.42,187.41L455.6,284.31L455.78,284.21L455.96,186.68L456.14,185.84L456.69,186.01L456.87,186.02L457.96,186.61L458.14,185.89L458.32,182.21L459.23,158.02L459.41,158.08L459.59,158.13L460.32,158.09L460.5,160.35L461.41,155.96L461.59,158.22L461.77,160.32L462.13,155.97L462.31,158.2L462.49,158.15L462.86,158.19L463.04,153.19L463.22,31.01L463.76,62.75L463.95,78.73L464.67,159.42L465.22,158.22L465.4,156.09L465.76,158.21L466.31,158.15L466.49,158.17L467.76,158.12L467.94,165.84L468.12,208.42L468.85,204.42L469.03,197.22L469.75,185.97L469.94,188.5L470.12,188.58L470.3,186.5L470.84,187.38L471.03,187.31L471.57,186.46L471.75,186.6L471.93,187.6L472.84,185.67L473.02,185.99L473.2,185.8L473.75,186.17L474.11,185.71L474.29,185.95L474.66,185.87L474.84,283.34L475.02,283.61L475.2,186.12L475.56,186.02L475.74,190.76L475.93,199.32L476.29,186.51L476.47,171.88L476.83,158.09L477.02,158.11L477.2,194.4L477.38,209.24L477.56,157.16L478.47,158.13L478.65,158.12L480.46,158.19L480.65,70.89L480.83,57.07L481.19,86.25L481.37,103.75L482.46,160.29L482.64,158.21L482.82,158.18L483.01,156.01L483.91,158.18L484.09,158.16L487,158.15L487.18,183.76L487.36,188.01L488.09,187.53L488.27,186.22L488.45,185.69L488.81,186.78L488.99,186.93L490.08,185.39L490.27,185.38L490.45,282.89L490.81,185.32L490.99,185.6L491.17,185.64L492.08,185.03L492.26,185.44L492.63,185.21L492.81,282.98L493.71,163.68L493.9,158.07L495.35,158.1L495.53,160.27L496.26,158.12L496.44,158.15L496.62,158.14L496.8,155.98L496.98,158.18L497.34,158.18L497.53,158.16L497.71,149.8L497.89,22.7L498.62,57.14L498.8,157.76L499.16,158.29L499.34,156.05L499.52,125.82L500.07,153.75L500.25,158.24L502.06,158.16L502.25,160.29L502.79,156.01L503.15,158.17L503.33,158.12L504.61,158.14L504.79,176.04L504.97,187.89L505.69,186.39L505.88,187.3L507.33,185.45L507.51,185.84L508.42,185.58L508.6,185.26L509.51,185.75L509.69,185.7L509.87,185.3L510.05,185.74L510.23,186.37L510.41,184.94L510.59,277.44L511.32,158.04L511.5,220.82L511.68,219.98L511.87,157.66L512.77,158.09L512.95,158.13L514.41,158.14L514.59,51.84L514.77,18.63L515.31,25.92L515.5,125.13L515.68,134.86L515.86,48.33L516.4,77.97L516.58,158.34L516.95,158.23L517.13,156.08L517.49,158.27L518.04,158.18L518.22,158.17L522.94,158.15L523.12,162.95L523.66,187.11L524.03,186.46L524.21,185.81L525.3,185.33L525.48,185.48L525.84,185.35L526.02,282.61L526.21,283.22L526.39,185.74L526.75,283.16L527.11,184.95L527.29,185.04L527.48,185.21L527.66,189.87L528.02,206.22L528.38,199.44L528.56,189.06L529.29,158.02L529.65,158.08L529.84,158.11L530.38,158.12L530.56,160.26L531.29,155.95L531.47,158.13L531.65,158.35L532.56,158.08L532.74,158.35L533.47,157.97L533.65,158.39L534.74,158.1L534.92,158.26L540,158.18" style="vector-effect: non-scaling-stroke; fill: none; stroke: rgb(0, 191, 255); stroke-opacity: 1; stroke-width: 2px; opacity: 1;"/></g><g class="points"/><g class="text"/></g></g></g><g class="overplot"/><path class="xlines-above crisp" d="M0,0" style="fill: none;"/><path class="ylines-above crisp" d="M0,0" style="fill: none;"/><g class="overlines-above"/><g class="xaxislayer-above"><g class="xtick"><text text-anchor="middle" x="0" y="433" transform="translate(97.43,0)" style="font-family: 'Open Sans', verdana, arial, sans-serif; font-size: 12px; fill: rgb(42, 63, 95); fill-opacity: 1; white-space: pre; opacity: 1;"><tspan class="line" dy="0em" x="0" y="433">Oct 2</tspan><tspan class="line" dy="1.3em" x="0" y="433">2022</tspan></text></g><g class="xtick"><text text-anchor="middle" x="0" y="433" style="font-family: 'Open Sans', verdana, arial, sans-serif; font-size: 12px; fill: rgb(42, 63, 95); fill-opacity: 1; white-space: pre; opacity: 1;" transform="translate(219.4,0)">Oct 9</text></g><g class="xtick"><text text-anchor="middle" x="0" y="433" style="font-family: 'Open Sans', verdana, arial, sans-serif; font-size: 12px; fill: rgb(42, 63, 95); fill-opacity: 1; white-space: pre; opacity: 1;" transform="translate(341.38,0)">Oct 16</text></g><g class="xtick"><text text-anchor="middle" x="0" y="433" style="font-family: 'Open Sans', verdana, arial, sans-serif; font-size: 12px; fill: rgb(42, 63, 95); fill-opacity: 1; white-space: pre; opacity: 1;" transform="translate(463.35,0)">Oct 23</text></g><g class="xtick"><text text-anchor="middle" x="0" y="433" style="font-family: 'Open Sans', verdana, arial, sans-serif; font-size: 12px; fill: rgb(42, 63, 95); fill-opacity: 1; white-space: pre; opacity: 1;" transform="translate(585.3299999999999,0)">Oct 30</text></g></g><g class="yaxislayer-above"><g class="ytick"><text text-anchor="end" x="79" y="4.199999999999999" transform="translate(0,414.62)" style="font-family: 'Open Sans', verdana, arial, sans-serif; font-size: 12px; fill: rgb(42, 63, 95); fill-opacity: 1; white-space: pre; opacity: 1;">−80</text></g><g class="ytick"><text text-anchor="end" x="79" y="4.199999999999999" style="font-family: 'Open Sans', verdana, arial, sans-serif; font-size: 12px; fill: rgb(42, 63, 95); fill-opacity: 1; white-space: pre; opacity: 1;" transform="translate(0,375.5)">−60</text></g><g class="ytick"><text text-anchor="end" x="79" y="4.199999999999999" style="font-family: 'Open Sans', verdana, arial, sans-serif; font-size: 12px; fill: rgb(42, 63, 95); fill-opacity: 1; white-space: pre; opacity: 1;" transform="translate(0,336.39)">−40</text></g><g class="ytick"><text text-anchor="end" x="79" y="4.199999999999999" style="font-family: 'Open Sans', verdana, arial, sans-serif; font-size: 12px; fill: rgb(42, 63, 95); fill-opacity: 1; white-space: pre; opacity: 1;" transform="translate(0,297.27)">−20</text></g><g class="ytick"><text text-anchor="end" x="79" y="4.199999999999999" style="font-family: 'Open Sans', verdana, arial, sans-serif; font-size: 12px; fill: rgb(42, 63, 95); fill-opacity: 1; white-space: pre; opacity: 1;" transform="translate(0,258.15)">0</text></g><g class="ytick"><text text-anchor="end" x="79" y="4.199999999999999" style="font-family: 'Open Sans', verdana, arial, sans-serif; font-size: 12px; fill: rgb(42, 63, 95); fill-opacity: 1; white-space: pre; opacity: 1;" transform="translate(0,219.04000000000002)">20</text></g><g class="ytick"><text text-anchor="end" x="79" y="4.199999999999999" style="font-family: 'Open Sans', verdana, arial, sans-serif; font-size: 12px; fill: rgb(42, 63, 95); fill-opacity: 1; white-space: pre; opacity: 1;" transform="translate(0,179.92000000000002)">40</text></g><g class="ytick"><text text-anchor="end" x="79" y="4.199999999999999" style="font-family: 'Open Sans', verdana, arial, sans-serif; font-size: 12px; fill: rgb(42, 63, 95); fill-opacity: 1; white-space: pre; opacity: 1;" transform="translate(0,140.81)">60</text></g><g class="ytick"><text text-anchor="end" x="79" y="4.199999999999999" style="font-family: 'Open Sans', verdana, arial, sans-serif; font-size: 12px; fill: rgb(42, 63, 95); fill-opacity: 1; white-space: pre; opacity: 1;" transform="translate(0,101.69)">80</text></g></g><g class="overaxes-above"/></g></g><g class="polarlayer"/><g class="smithlayer"/><g class="ternarylayer"/><g class="geolayer"/><g class="funnelarealayer"/><g class="pielayer"/><g class="iciclelayer"/><g class="treemaplayer"/><g class="sunburstlayer"/><g class="glimages"/><defs id="topdefs-9f22ed"><g class="clips"/></defs><g class="layer-above"><g class="imagelayer"/><g class="shapelayer"/></g><g class="infolayer"><g class="g-gtitle"><text class="gtitle" x="350" y="50" text-anchor="middle" dy="0em" style="font-family: 'Open Sans', verdana, arial, sans-serif; font-size: 17px; fill: rgb(42, 63, 95); opacity: 1; font-weight: normal; white-space: pre;"><tspan class="line" dy="0em" x="350" y="50">Scenario 5</tspan><tspan class="line" dy="1.3em" x="350" y="50">Microgrid Output</tspan><tspan class="line" dy="2.6em" x="350" y="50">From: October 01, 2022 to October 31, 2022</tspan></text></g><g class="g-xtitle"><text class="xtitle" x="350" y="476.409375" text-anchor="middle" style="font-family: 'Open Sans', verdana, arial, sans-serif; font-size: 14px; fill: rgb(42, 63, 95); opacity: 1; font-weight: normal; white-space: pre;">Time</text></g><g class="g-ytitle"><text class="ytitle" transform="rotate(-90,33.840625,260)" x="33.840625" y="260" text-anchor="middle" style="font-family: 'Open Sans', verdana, arial, sans-serif; font-size: 14px; fill: rgb(42, 63, 95); opacity: 1; font-weight: normal; white-space: pre;">Demand (kW)</text></g></g></svg>