<svg class="main-svg" xmlns="http://www.w3.org/2000/svg" xmlns:xlink="http://www.w3.org/1999/xlink" width="700" height="500" style="" viewBox="0 0 700 500"><rect x="0" y="0" width="700" height="500" style="fill: rgb(255, 255, 255); fill-opacity: 1;"/><defs id="defs-9748ca"><g class="clips"><clipPath id="clip9748caxyplot" class="plotclip"><rect width="540" height="320"/></clipPath><clipPath class="axesclip" id="clip9748cax"><rect x="80" y="0" width="540" height="500"/></clipPath><clipPath class="axesclip" id="clip9748cay"><rect x="0" y="100" width="700" height="320"/></clipPath><clipPath class="axesclip" id="clip9748caxy"><rect x="80" y="100" width="540" height="320"/></clipPath></g><g class="gradients"/><g class="patterns"/></defs><g class="bglayer"/><g class="layer-below"><g class="imagelayer"/><g class="shapelayer"/></g><g class="cartesianlayer"><g class="subplot xy"><g class="layer-subplot"><g class="shapelayer"/><g class="imagelayer"/></g><g class="minor-gridlayer"><g class="x"/><g class="y"/></g><g class="gridlayer"><g class="x"><path class="xgrid crisp" transform="translate(97.43,0)" d="M0,100v320" style="stroke: rgb(255, 255, 255); stroke-opacity: 1; stroke-width: 1px;"/><path class="xgrid crisp" transform="translate(219.4,0)" d="M0,100v320" style="stroke: rgb(255, 255, 255); stroke-opacity: 1; stroke-width: 1px;"/><path class="xgrid crisp" transform="translate(341.38,0)" d="M0,100v320" style="stroke: rgb(255, 255, 255); stroke-opacity: 1; stroke-width: 1px;"/><path class="xgrid crisp" transform="translate(463.35,0)" d="M0,100v320" style="stroke: rgb(255, 255, 255); stroke-opacity: 1; stroke-width: 1px;"/><path class="xgrid crisp" transform="translate(585.3299999999999,0)" d="M0,100v320" style="stroke: rgb(255, 255, 255); stroke-opacity: 1; stroke-width: 1px;"/></g><g class="y"><path class="ygrid crisp" transform="translate(0,404.37)" d="M80,0h540" style="stroke: rgb(255, 255, 255); stroke-opacity: 1; stroke-width: 1px;"/><path class="ygrid crisp" transform="translate(0,365.01)" d="M80,0h540" style="stroke: rgb(255, 255, 255); stroke-opacity: 1; stroke-width: 1px;"/><path class="ygrid crisp" transform="translate(0,325.65999999999997)" d="M80,0h540" style="stroke: rgb(255, 255, 255); stroke-opacity: 1; stroke-width: 1px;"/><path class="ygrid crisp" transform="translate(0,286.31)" d="M80,0h540" style="stroke: rgb(255, 255, 255); stroke-opacity: 1; stroke-width: 1px;"/><path class="ygrid crisp" transform="translate(0,246.96)" d="M80,0h540" style="stroke: rgb(255, 255, 255); stroke-opacity: 1; stroke-width: 1px;"/><path class="ygrid crisp" transform="translate(0,207.61)" d="M80,0h540" style="stroke: rgb(255, 255, 255); stroke-opacity: 1; stroke-width: 1px;"/><path class="ygrid crisp" transform="translate(0,168.26)" d="M80,0h540" style="stroke: rgb(255, 255, 255); stroke-opacity: 1; stroke-width: 1px;"/><path class="ygrid crisp" transform="translate(0,128.9)" d="M80,0h540" style="stroke: rgb(255, 255, 255); stroke-opacity: 1; stroke-width: 1px;"/></g></g><g class="zerolinelayer"/><path class="xlines-below"/><path class="ylines-below"/><g class="overlines-below"/><g class="xaxislayer-below"/><g class="yaxislayer-below"/><g class="overaxes-below"/><g class="plot" transform="translate(80,100)" clip-path="url(#clip9748caxyplot)"><g class="scatterlayer mlayer"><g class="trace scatter trace8edffb" style="stroke-miterlimit: 2; opacity: 0.5;"><g class="fills"/><g class="errorbars"/><g class="lines"><path class="js-line" d="M0,103.36L0.73,35.42L0.91,36.04L1.09,36.07L1.45,38.28L1.82,31.15L2,38.53L2.36,26.49L2.54,32.94L2.72,36.44L3.27,38.98L3.63,28.27L3.81,33.01L4.17,34.83L4.54,22.24L4.72,28.93L5.26,53.04L5.45,42.38L5.63,32.92L5.81,48.58L6.53,47.49L6.72,44.1L6.9,44.13L7.08,48.23L7.26,50.77L7.44,64.98L9.08,117.18L9.26,115.19L9.44,113.04L10.35,145.32L10.53,144.68L10.71,143.76L10.89,153.56L11.25,148.3L11.44,152.78L11.62,152.87L12.71,114.85L12.89,110.43L14.52,72.29L14.7,80.07L14.88,105.22L15.25,63.96L15.43,54.54L16.52,37.18L16.7,40.76L16.88,43.85L17.06,31.09L17.43,36.82L17.61,31.04L17.79,36.56L17.97,32.26L18.33,28.04L18.51,30.25L18.7,35.71L19.24,37.3L19.42,22.36L19.6,27.46L19.78,32.99L20.87,25.25L21.06,35.58L21.96,24.5L22.14,32.57L22.33,31.04L22.51,38.51L22.69,44.92L23.05,33.3L23.23,42.75L23.42,39.78L24.69,64.36L24.87,95.98L25.96,161.92L26.14,158.68L26.32,166.17L26.5,152.47L26.68,128.91L26.86,130.65L27.05,144.94L27.41,128.1L27.59,152.14L28.5,158.21L28.68,171.7L31.22,100.75L31.4,103.34L32.85,54.01L33.04,54.21L33.22,58.44L33.76,46.6L33.94,50.19L34.12,54.23L34.85,36.06L35.03,43.98L35.76,31.22L35.94,37.85L36.12,39.79L36.48,22.9L37.03,28.13L37.21,30.47L37.39,39.18L37.75,23.95L37.94,32.34L38.12,30.97L38.3,31.15L38.48,28.23L38.66,28.82L38.84,32.51L39.03,22.33L39.57,28.4L39.75,32.93L40.3,44.88L40.48,54.22L41.75,152.31L41.93,152.06L42.11,161.58L43.38,223.14L43.56,217.63L43.74,211.72L43.93,200.85L44.29,214.49L44.47,250.17L44.65,276.94L45.02,234.01L45.2,236.54L45.92,207.74L46.1,210.07L46.29,212.13L47.92,137.32L48.1,141.5L48.28,118.73L48.46,130.05L48.83,111.99L49.01,106.93L49.19,107.15L49.37,109.58L50.46,59.6L50.82,71.77L51.01,70.3L51.19,72.55L51.37,60.71L51.55,60.65L51.73,62.03L52.64,43.96L52.82,53.81L53,58.86L53.18,48.9L53.36,50.03L53.55,42.06L53.91,42.04L54.09,33.36L54.27,38.07L54.64,31.46L54.82,32.32L55,33.96L55.18,42.57L55.91,28.22L56.09,30.32L56.27,32.04L56.81,26.2L56.99,26.25L57.18,38.24L57.9,45.39L58.08,63.29L59.72,205.01L59.9,196.35L60.26,200.86L60.44,197.6L60.63,220.95L61.17,184.24L61.35,195.66L61.53,236.3L61.9,232.93L63.53,293.58L63.71,261.9L63.89,261.84L64.07,240.38L64.62,175.54L64.8,141.81L65.89,109.53L66.07,110.25L67.34,185.61L67.52,163.89L68.07,109.81L68.43,117.54L68.61,108.02L68.79,121.23L69.16,103.33L69.34,113.5L69.52,109.51L70.06,109.99L70.43,90.16L70.61,92.72L70.79,101.61L72.06,32.26L72.24,41.57L72.61,23.73L72.79,44.35L72.97,46.64L73.15,27.89L73.51,37.58L73.69,33.22L73.88,27.1L74.06,25.84L74.24,30.28L74.42,28.76L74.6,31.66L74.78,39.48L75.15,46.37L75.33,70.27L76.6,173.17L76.78,162.29L77.87,187.46L78.05,176.31L78.59,236.35L79.14,226.93L79.32,212.48L79.5,197.76L79.87,213.79L80.05,214.46L80.23,202.63L80.59,213.1L80.77,228.78L80.95,250.83L81.32,224.67L81.5,203.32L81.68,189.57L81.86,193.27L82.04,224.28L83.5,157.53L83.68,166.17L83.86,162.71L84.58,139.25L84.77,146.31L85.67,111.09L85.86,113.41L86.04,110.85L86.22,98.18L86.58,110.98L86.76,104.49L86.94,104.6L88.03,47.9L88.22,43.66L88.4,42.71L88.58,44.65L88.76,46.88L90.03,35.98L90.21,42.53L90.57,34.18L90.94,34.29L91.12,44.13L91.3,47.34L91.48,36.23L91.66,35.2L91.85,45.25L92.21,46.91L92.39,50.65L92.75,45.76L92.93,70.81L94.02,147.14L94.21,123.29L94.39,118.52L94.57,123L94.75,93.62L96.38,217.1L96.56,197.3L96.93,167L97.29,180.29L97.47,199.01L98.38,249.41L98.56,241.31L98.74,231.27L98.92,234.44L99.11,218.69L100.74,148.06L100.92,155.22L102.37,59.2L102.55,67.44L102.74,67.73L103.28,52.17L103.46,64.58L103.64,63.33L104.37,33.46L104.55,48.1L104.73,47.85L104.91,40.64L105.1,49.5L105.28,40.39L105.64,47.12L105.82,38.62L106,39.41L106.18,44.04L107.09,32.39L107.27,33.36L107.46,39.71L108.18,29.15L108.36,29.78L108.54,31.29L108.91,23.31L109.09,33.01L110.9,115.07L111.09,110.58L111.81,148.01L111.99,125.4L112.17,122.91L112.36,149.28L112.54,151.13L112.72,184.18L112.9,182.34L113.08,192.48L113.63,253.57L113.81,244.03L113.99,209.13L114.35,190.76L114.72,202.95L114.9,207.3L115.08,209.78L115.26,197.06L115.81,226.53L115.99,212.5L116.17,197.23L116.35,206.65L116.71,186.69L116.89,167.51L117.08,174.06L117.26,154.38L118.89,125.64L119.25,125.84L119.44,140.2L120.52,90.5L120.71,83.72L121.07,47.8L121.43,61.67L121.61,61.83L122.34,40.01L122.52,44.34L122.7,54.69L123.61,39.02L123.79,39.03L123.97,36.73L124.34,34.33L124.7,42.27L124.88,30.74L125.43,29.86L125.61,38.57L125.79,28.27L126.15,34.64L126.7,31.68L126.88,33.85L127.24,35.65L127.42,49.24L128.15,54.17L128.33,76.26L131.05,155.24L131.23,155.69L132.32,184.02L132.5,187.42L132.69,182.23L132.87,195.91L133.05,187.17L133.23,197.82L133.59,192.92L133.77,194.15L133.96,187.52L134.32,189.95L135.41,147.45L135.59,149.97L135.77,147.77L135.95,134.2L136.32,140.32L136.86,130.16L137.04,128.58L138.68,56.54L138.86,66.59L139.4,51.61L139.58,54.04L139.76,64.13L140.49,32.3L140.67,49.59L140.85,49.97L141.04,37L141.58,41.87L141.76,39.26L142.67,30.86L142.85,35.65L143.03,34.95L143.21,25.38L143.58,42.31L143.94,24.38L144.12,32.77L144.3,30.26L144.48,35.88L144.67,41.01L144.85,35.8L145.03,40.56L145.21,49.17L145.57,51.43L145.75,65.11L147.93,141.39L148.11,138.34L148.3,125.61L148.66,149.43L148.84,155.32L149.75,173.38L149.93,167.53L150.11,161.53L150.47,160.21L151.02,169.83L151.2,162.41L152.47,122.72L152.65,118.9L153.56,96.05L153.74,104.13L154.47,87.31L154.65,71.82L155.19,68.38L155.37,56.61L155.56,65.8L155.92,57.13L156.1,52.27L156.28,49.62L156.46,61.09L157.55,40.55L157.73,46.04L157.92,43.67L158.1,31.52L158.28,31.37L158.46,37.11L158.82,43.23L159.01,36.97L159.19,34.21L159.37,37.01L159.55,31.39L159.73,29.26L159.91,40.89L160.28,25.14L160.46,38.15L160.64,31.13L160.82,19.13L161.18,33.54L161.36,29.47L161.55,25.51L163.54,129.61L163.72,135.22L164.09,118.81L164.27,137.9L164.45,140.8L164.63,137.57L164.81,154.28L164.99,159.95L165.18,154.71L165.36,132.88L167.17,228.86L167.35,219.47L167.54,203.9L167.72,197.19L167.9,220.45L168.08,223.32L168.26,210.2L168.44,216.02L168.63,215.67L168.81,183.69L170.08,98.4L170.26,112.5L170.62,83.94L170.98,93.16L171.17,94.67L172.62,56.6L172.8,62.98L172.98,64.7L173.71,47.17L173.89,47.33L174.07,47.14L174.25,48.65L174.43,43.57L174.8,34.1L174.98,40.66L175.16,44.92L175.34,45.11L175.52,40.65L175.7,36.23L176.07,43.06L176.25,41.36L176.97,32.88L177.16,42.6L177.52,27.92L177.7,40.12L177.88,39.96L178.43,40.88L178.61,28.33L178.79,33.05L179.15,28.88L179.52,50.04L179.7,70.62L180.79,118.87L180.97,115.37L181.15,112.12L181.51,104.42L181.69,119.61L182.06,146.98L182.24,145.25L182.42,115.8L183.15,81.21L183.33,90.12L183.51,109.97L184.6,139.03L184.78,148.37L184.96,117.35L185.69,118.97L185.87,103.39L186.05,119.74L186.41,95.05L186.59,104.79L186.78,104.11L188.05,55.31L188.23,66.96L188.41,77.45L189.5,44.65L189.68,46.4L189.86,48.6L190.04,36.31L190.23,35.81L190.41,47.05L191.31,25.39L191.5,33.06L191.68,40.9L191.86,30.55L192.22,34.14L192.4,27.37L192.58,27.96L192.77,39.05L192.95,42.76L193.13,33.63L193.31,30.64L193.49,30.54L193.67,28.71L193.86,25.54L194.04,28L194.22,32.64L194.58,27.18L194.94,27.99L195.13,30.44L195.67,33.26L196.03,24.69L196.22,26.72L197.12,41.56L197.3,70.47L197.49,95.17L197.67,61.95L197.85,36.64L198.94,72.78L199.12,65.8L199.85,123.98L200.03,116.97L200.21,86.18L200.75,113.08L200.93,135.89L201.3,113.51L201.48,147.81L202.57,174.01L202.75,158.62L203.48,216.2L203.66,199.6L203.84,183.66L205.11,96.28L205.29,92.69L205.65,84.81L205.84,67.33L206.2,80.34L206.56,68.86L206.74,61.21L208.01,39.13L208.19,42.66L208.38,42.41L208.56,40.91L209.47,27.89L209.65,37.35L210.55,20.73L210.74,28.99L210.92,35.6L211.28,22.82L211.46,24.89L211.64,36.77L212.01,18.5L212.19,28.92L212.37,33.91L213.28,18.32L213.46,22.07L214,19.87L214.37,41.99L214.55,30.74L215.27,95.1L215.46,110.57L216.36,128.46L216.54,111.33L216.91,134.02L217.09,129.05L217.27,121.34L217.63,151.36L217.82,116.58L218,114.77L219.45,141.18L219.63,138.42L219.81,191.65L219.99,225.68L220.54,209.77L220.72,206.89L222.17,140.04L222.35,137.61L222.53,145.74L222.72,136.6L222.9,126.03L224.89,80.13L225.08,91.06L225.26,92.66L225.44,74.01L225.62,75.09L225.8,62.3L226.71,30.81L226.89,21.75L227.25,42.27L227.8,40.45L227.98,29.7L228.16,32.82L228.34,32.5L228.52,19.64L228.89,35.71L229.43,33.19L229.61,33.98L230.16,22.55L230.34,30.07L230.7,24.82L231.07,35.08L231.25,27.14L231.43,22.64L231.61,53.46L232.52,105.13L232.7,94.77L232.88,93.09L233.06,106.87L233.43,95.4L233.61,108.35L233.97,102.06L234.33,118.16L234.51,110.78L234.88,100.94L235.06,113.58L235.24,129.08L235.6,170.93L235.97,139.15L236.15,105.69L236.33,103.46L236.51,116.13L236.87,128.08L237.24,122.27L237.42,112.21L238.14,127.96L238.33,113.01L239.78,59.43L239.96,55.66L240.14,74.11L240.5,47.05L240.69,55L240.87,66.19L241.77,29.58L241.96,32.62L242.14,35.5L242.5,56.52L242.86,39.31L243.05,35.26L243.41,44.77L243.59,36.27L243.95,43.21L244.32,23.4L244.5,35.03L244.86,30.11L245.22,42.94L245.41,31.4L245.77,29.09L245.95,30.64L246.13,33.36L246.68,21.97L246.86,29.82L247.4,39.7L247.58,28.73L247.95,33.45L248.31,21.64L248.49,31.44L248.85,27.28L249.04,35.6L249.22,46.4L249.58,29.6L249.76,39.13L249.94,47.78L250.31,34L250.67,42.27L250.85,44.85L251.21,30.6L251.58,43.03L251.76,45.35L251.94,48.69L252.12,39.17L252.3,37.04L252.48,55.74L253.21,55.66L253.39,60.15L253.75,51.68L253.94,56.48L254.12,63.02L254.48,57.73L254.84,67.31L255.03,65.87L255.39,46.37L255.57,56.31L255.75,71.36L256.11,52.94L256.3,55.08L256.48,89.1L256.66,96.81L256.84,62.72L257.93,40.31L258.11,46.8L258.29,51.3L258.47,41.3L258.84,47.32L259.02,38.62L259.2,37.2L259.38,43.76L260.29,24.62L260.47,27.11L260.65,38.12L260.83,39.05L261.02,26.87L261.2,25.5L261.38,36.12L261.74,22.5L261.92,29.51L262.1,36.52L263.19,24.58L263.37,34.37L263.56,32.5L263.74,22.47L264.1,32.89L264.28,29.33L264.46,21.75L264.65,21.48L264.83,27.36L265.37,32.38L265.55,29.63L265.73,26.5L266.1,26.2L266.28,29.33L266.46,36.79L266.64,36.76L266.82,38.38L267.37,36.12L267.73,36.97L267.91,37L268.82,42.43L269,33.47L269.36,40.3L269.55,36.2L269.73,49.52L270.09,46.78L270.64,70.69L270.82,58.16L271,54.71L271.18,69.65L271.54,71.18L271.72,63.89L272.45,72.79L272.63,69.99L272.81,67.45L273.36,58.31L273.72,60.53L273.9,62.79L274.08,66.65L274.27,60.54L274.45,53.64L274.63,50.64L274.81,55.22L274.99,57.36L275.54,48.98L275.72,58.64L276.08,41.32L276.26,55.43L276.44,75.95L277.35,22.75L277.53,33.36L277.71,36.85L278.08,22.76L278.62,25.68L278.8,31.38L279.89,23.65L280.07,26.07L280.26,27.37L281.71,20.76L281.89,20.79L282.07,22.32L282.8,19.2L282.98,19.92L283.16,20.73L283.52,20.49L283.7,23L283.89,46.43L284.79,88.36L284.97,86.78L285.16,84.5L285.34,93.52L285.88,46L286.06,54.86L286.25,72.6L286.61,61.24L286.79,78.12L286.97,79.57L287.15,76.71L287.33,90.44L288.79,158.9L288.97,141.8L289.69,163.19L290.06,162.1L290.24,160.31L290.6,198.03L290.96,183.05L291.15,150.55L292.42,86.04L292.6,83.82L293.51,65.53L293.69,67.48L293.87,66.39L294.78,35.25L294.96,35.04L295.14,46.15L295.5,27.22L295.68,38.21L295.87,29.55L296.23,31.4L296.41,22.05L296.59,22.85L296.77,33.74L296.95,35.78L297.14,28.97L297.5,32.92L297.86,29.12L298.04,25.45L298.41,27.49L298.59,23.9L298.95,25.09L299.13,23.92L299.31,23.14L299.5,24.88L299.86,22.3L300.04,17.29L300.4,28.8L300.58,21.64L300.77,16.22L300.95,16L301.13,22.18L301.67,73.16L301.86,83.01L303.31,154.51L303.49,192.91L303.67,219.21L304.03,188.47L304.22,173.69L304.58,207.2L304.76,188.57L304.94,167.18L305.12,148.08L305.49,174.3L305.67,160.01L305.85,178.82L306.76,301.94L307.12,296.18L307.3,304L307.66,269.78L307.85,241.47L308.03,238.65L308.21,222.54L310.39,144.52L310.57,143.29L310.75,144.93L310.93,128.99L311.11,141.35L311.48,119.77L311.66,111.49L312.2,111.77L312.38,101.1L312.56,110.41L312.93,89.06L313.11,101.76L313.29,104.28L314.38,29.86L314.56,34.02L315.11,40.99L315.29,30.89L315.65,33.08L316.01,25.01L316.19,25.73L316.38,27.74L316.56,29.19L316.74,22.99L316.92,19.22L317.28,27.05L317.47,21.53L317.65,22.3L318.19,20.15L318.92,39.07L319.1,62.08L320.91,235.12L321.1,234.02L321.46,214.27L321.82,233.99L322,231.85L322.18,250.49L322.37,228.11L322.55,196.43L322.91,177.57L323.09,195.05L323.27,209.53L324.36,269.54L324.54,257.39L324.73,240.21L324.91,256.83L325.45,249.99L325.63,228.52L325.82,235.62L326,228.63L326.18,203.21L326.36,203.32L326.54,200.55L328.9,71.37L329.08,82.35L330.35,53.53L330.53,60.54L332.35,34.15L332.53,35.64L332.89,44.7L333.08,36.46L333.26,26.32L333.62,38.38L334.16,33.34L334.35,26.55L334.53,25.39L334.71,29.56L335.25,26.03L335.44,29.77L335.8,25.1L335.98,30.43L336.16,33.78L336.34,37.25L336.52,59.95L337.79,192.24L337.98,220.86L338.16,204.91L338.34,220.98L338.52,244.97L338.7,244.87L338.88,247.79L339.25,267.51L339.43,265.93L339.61,247.93L339.97,224.76L340.52,225.95L340.7,244.19L341.06,262.63L341.24,297.01L342.51,198.48L342.7,236.41L342.88,235.84L343.06,198.89L343.24,201.81L343.42,172.35L344.51,106.99L344.69,108.42L344.87,109.93L345.06,98.78L346.14,76.84L346.33,77.05L347.05,53.1L347.23,60.35L347.42,64.31L348.32,97.29L348.5,95.18L348.69,69.55L349.05,32L349.59,33.65L349.77,28.58L350.14,30.06L350.32,28.71L350.5,36.63L350.86,22.91L351.05,27.06L351.23,32.4L351.59,24.65L352.13,25.71L352.32,23.61L352.5,26.08L352.68,24.57L352.86,19.54L353.41,33.78L353.59,59.48L355.22,188.75L355.4,176.75L355.76,189.63L355.95,166.59L356.13,152.58L356.31,169.08L356.67,162.42L356.85,174.9L357.4,139.94L357.58,163.53L357.76,180.69L358.12,184.55L358.31,174.37L358.49,148.89L358.67,164.26L358.85,147.73L359.21,158.22L359.39,159.56L360.3,215.41L360.48,203.2L361.94,136.3L362.12,142.47L362.66,122.96L362.84,131.53L363.03,140.1L363.57,159.7L363.75,148.85L363.93,124.88L364.3,91.16L364.84,95.53L365.02,85.64L365.38,93.79L365.57,78.9L365.93,97.56L366.11,64.67L366.29,35.56L366.47,36.6L366.66,49.37L367.74,25.39L367.93,28.55L368.47,48.43L368.65,35.5L369.2,40.74L369.56,21.58L369.74,34.48L369.92,36.82L370.29,34.06L370.47,29.6L371.19,45.16L371.56,38.95L371.74,41.32L371.92,42.46L372.1,49.91L372.46,36.45L372.65,41.5L372.83,52.16L373.73,65.48L373.92,67.53L374.28,65.71L374.64,81.99L374.82,71.68L375.73,84.43L375.91,85.88L376.64,127.34L377,121.29L377.18,112.14L377.36,117.11L377.55,114.19L377.73,104.81L377.91,110.08L378.09,93.93L378.27,97.1L378.45,97.63L378.64,83.64L378.82,90.07L379.18,80.28L379.36,83.24L379.54,88L379.72,87.89L379.91,84.62L381.18,66.12L381.36,55.89L381.9,67.62L382.08,66.06L382.27,54.79L383.54,20.18L383.72,24.39L384.26,23.22L384.44,32.49L384.63,31.58L384.81,23.09L385.35,25.51L385.53,24.1L385.71,20.35L385.9,20.23L386.08,20.99L386.26,28.04L386.44,28.87L386.62,21.84L386.8,21.28L386.98,22.83L387.17,25.07L388.07,20.64L388.26,28.6L388.62,27.1L388.98,32.78L389.16,31.73L389.34,26.3L389.53,26.22L389.71,30.21L389.89,30.96L390.07,26.25L391.34,44.02L391.52,63.91L392.43,90.71L392.61,81.89L392.97,93.16L393.34,81.34L393.52,85.72L393.7,90.17L393.88,85.07L394.06,85.89L394.25,84.84L394.61,90.45L396.61,47.48L396.79,48.55L396.97,57.6L398.06,43.4L398.24,47.04L399.33,20.05L399.51,26.28L399.69,30.03L399.87,23.82L400.05,20.71L400.6,20.12L400.96,25.24L401.14,24.98L401.87,20.78L402.05,22.11L402.96,18.11L403.14,18.71L403.32,18.87L403.5,18.11L403.68,18.98L403.87,20.29L404.23,17.7L404.77,17.99L404.95,17.98L405.5,17.43L406.23,27.77L406.41,32.68L407.68,108.22L407.86,110L408.22,113L408.4,115.07L408.95,117.52L409.13,99.69L409.31,80.51L409.67,50.23L409.86,63.26L410.04,110.96L410.4,166.25L410.76,110.45L410.94,91.96L411.13,83.83L411.31,96.19L411.67,89.65L411.85,92.74L412.03,97.64L412.22,92.38L412.4,84.19L412.76,74.05L413.12,91.97L413.3,75.73L414.76,43.59L414.94,45L415.12,47.06L415.3,40.84L415.48,35.65L415.66,40.34L415.85,32.38L416.03,26.09L416.21,30.06L416.57,25.49L416.75,24.69L416.93,20.48L417.3,25.93L417.48,29.36L418.39,20.29L418.57,20.57L419.29,22.42L419.48,20.86L420.2,18.55L420.38,19.43L420.56,20.19L421.47,18.01L421.65,19.7L421.84,20.74L422.2,18.77L422.56,20.51L422.74,19.13L422.92,18.68L423.11,21.47L424.38,33.64L424.56,49.08L425.47,112.47L425.65,112.23L426.01,127.47L426.19,148.68L426.37,149.22L426.55,130.54L426.92,115.75L427.28,123.26L427.46,130.62L428.55,159.84L428.73,157.31L429.46,170.69L429.82,169.83L430,157.66L430.91,88.14L431.09,66.13L432,42.68L432.18,43.85L432.36,51.89L433.45,29.82L433.63,31.96L434.9,19.27L435.09,19.56L435.45,28.31L435.63,27.31L435.81,19.14L436.72,22.77L436.9,21.71L437.08,20.8L437.26,21.2L437.45,20.5L437.63,19.44L437.99,20.54L438.17,19.41L438.35,19.12L438.53,20.55L438.9,18.98L439.08,19.03L439.26,19.18L439.44,19.11L439.62,20.3L439.81,20.92L440.17,19.67L440.35,20.08L441.98,46.02L442.16,62.45L442.35,62.58L442.53,62.05L442.71,65.56L442.89,63.02L443.25,67.79L443.44,67.5L443.62,70.42L443.8,66.96L443.98,93.82L444.52,122.37L444.71,109.54L444.89,106.63L445.07,102.85L445.25,111.66L445.43,128.85L445.61,126.95L445.79,112.66L446.34,130.66L446.52,150.37L446.7,145.39L446.88,148.79L447.07,119.73L447.61,93.24L447.79,102.54L447.97,129.88L448.34,117.08L448.52,105.95L449.06,107.02L449.43,98.33L449.61,98.99L449.79,97.91L449.97,90.63L450.33,97.91L450.51,91.53L450.7,86.53L450.88,87.07L451.06,82.81L451.24,80.99L451.42,84.82L451.6,86.52L451.97,71.99L452.51,75.82L452.69,77.01L452.87,71.08L453.24,81.15L453.42,80.23L453.78,72.34L453.96,51.62L454.87,25.36L455.05,23.38L455.42,27.88L455.78,23.88L455.96,22.77L456.14,21.56L456.5,23.36L456.69,22.25L456.87,22.29L457.77,24.46L457.96,25.41L459.05,40.13L459.23,40.1L459.41,37.14L461.04,130.31L461.22,100.45L461.41,76.48L461.77,116.07L461.95,104.97L462.13,75.16L462.49,105.48L462.68,93.88L462.86,92.02L464.31,163.79L464.49,157.19L465.04,159.03L465.22,147.75L465.4,140.8L466.31,93.72L466.49,95.99L466.67,101.89L468.12,83.42L468.3,72.16L469.75,22.07L469.94,32.27L470.12,32.59L470.3,24.22L470.84,27.76L471.03,27.48L471.21,25.03L471.39,25.52L471.57,24.05L471.75,24.59L471.93,28.6L472.84,20.86L473.02,22.14L473.2,21.39L473.38,20.3L473.57,21.9L473.75,22.9L474.11,21.04L474.66,21.65L474.84,22.53L475.2,20.56L475.38,22.67L475.56,26.43L476.83,85.15L477.02,98.35L478.65,175.73L478.83,164.04L479.92,98.14L480.1,99.61L480.28,103.82L481.01,174.52L481.37,159.48L481.55,152.99L481.73,161.61L482.1,146.04L482.28,157.3L482.46,118.14L483.37,64.91L483.55,70.51L483.91,50.83L484.46,52.91L484.64,55.12L484.82,56.22L485,50.07L485.36,51.35L486.45,24.89L486.64,30.36L486.82,33.18L487,23.47L487.36,30.28L487.54,24.13L487.72,20.17L488.09,28.34L488.45,20.94L488.63,22.15L488.99,25.94L489.18,22.8L489.36,21.47L489.54,19.57L490.27,19.68L490.45,20.73L490.81,19.47L490.99,20.6L491.17,20.73L492.08,18.28L492.26,19.94L492.44,20.01L492.63,18.98L493.53,26.35L493.71,26.15L493.9,25.56L495.35,35.07L495.53,34.94L495.71,31.93L495.89,33.58L496.07,43.84L496.44,47.11L496.62,52.48L496.8,52.12L496.98,64.17L497.89,89.14L498.07,88.95L498.25,92.71L499.34,128.73L499.52,101.62L500.97,60.55L501.16,66.65L501.34,67.52L501.52,55.01L501.88,57.3L502.06,56.94L502.25,52.22L502.43,50.91L502.61,54.43L502.79,51.49L502.97,44.36L503.33,37.89L503.52,24.15L503.88,35.12L504.24,26.76L504.42,29.92L505.51,21.7L505.69,23.75L505.88,27.4L506.24,22.5L506.42,21.91L506.78,22.12L507.33,19.94L507.51,21.5L507.69,21.72L507.87,20.54L508.24,21.9L508.42,20.47L508.6,19.19L509.51,21.15L509.69,20.97L509.87,19.36L510.05,21.14L510.23,24.16L511.14,25.98L511.32,28.48L511.68,27.77L512.05,29.59L512.23,31.48L512.41,31.59L512.59,34.73L512.95,33.52L513.14,39.68L513.32,35.98L513.5,42.54L513.68,53.05L513.86,49.91L514.04,62.19L515.13,112.52L515.31,100.32L515.5,94.7L515.68,111.06L515.86,125.29L516.22,121.33L516.4,127.19L516.58,128.46L518.76,57.35L518.94,63.29L519.31,94.2L519.49,80.59L519.67,47.73L520.22,39.73L520.4,49.09L520.76,39.36L520.94,32.48L521.3,36.97L521.67,26.63L521.85,33.71L522.03,34.24L522.21,29.61L522.39,26.01L522.94,26.75L523.12,27.67L524.57,19.75L524.75,20.91L524.93,21.75L526.02,19.6L526.21,19.9L527.11,17.97L527.29,18.33L527.48,19.03L527.66,30.19L528.75,82.26L528.93,82.54L529.11,87.64L529.29,84.84L529.47,70.97L529.65,62.43L530.2,65.27L530.38,72.41L530.56,68.23L530.74,74.24L530.92,87.07L531.29,86.77L531.47,91.72L532.56,139.32L532.74,131.91L532.92,132.55L534.01,87.47L534.19,78.92L534.55,127.21L534.74,111.69L534.92,79.18L535.1,83.43L535.28,80.31L535.46,63.94L535.83,66.1L536.01,59.16L536.37,62.47L536.55,51.2L536.73,48.49L536.91,61.29L537.1,62.26L537.28,54.8L537.46,54.88L537.64,56.36L538.55,30.27L538.73,35.02L538.91,39.8L539.82,25.7L540,29.56" style="vector-effect: non-scaling-stroke; fill: none; stroke: rgb(0, 191, 255); stroke-opacity: 1; stroke-width: 2px; opacity: 1;"/></g><g class="points"/><g class="text"/></g></g></g><g class="overplot"/><path class="xlines-above crisp" d="M0,0" style="fill: none;"/><path class="ylines-above crisp" d="M0,0" style="fill: none;"/><g class="overlines-above"/><g class="xaxislayer-above"><g class="xtick"><text text-anchor="middle" x="0" y="433" transform="translate(97.43,0)" style="font-family: 'Open Sans', verdana, arial, sans-serif; font-size: 12px; fill: rgb(42, 63, 95); fill-opacity: 1; white-space: pre; opacity: 1;"><tspan class="line" dy="0em" x="0" y="433">Oct 2</tspan><tspan class="line" dy="1.3em" x="0" y="433">2022</tspan></text></g><g class="xtick"><text text-anchor="middle" x="0" y="433" style="font-family: 'Open Sans', verdana, arial, sans-serif; font-size: 12px; fill: rgb(42, 63, 95); fill-opacity: 1; white-space: pre; opacity: 1;" transform="translate(219.4,0)">Oct 9</text></g><g class="xtick"><text text-anchor="middle" x="0" y="433" style="font-family: 'Open Sans', verdana, arial, sans-serif; font-size: 12px; fill: rgb(42, 63, 95); fill-opacity: 1; white-space: pre; opacity: 1;" transform="translate(341.38,0)">Oct 16</text></g><g class="xtick"><text text-anchor="middle" x="0" y="433" style="font-family: 'Open Sans', verdana, arial, sans-serif; font-size: 12px; fill: rgb(42, 63, 95); fill-opacity: 1; white-space: pre; opacity: 1;" transform="translate(463.35,0)">Oct 23</text></g><g class="xtick"><text text-anchor="middle" x="0" y="433" style="font-family: 'Open Sans', verdana, arial, sans-serif; font-size: 12px; fill: rgb(42, 63, 95); fill-opacity: 1; white-space: pre; opacity: 1;" transform="translate(585.3299999999999,0)">Oct 30</text></g></g><g class="yaxislayer-above"><g class="ytick"><text text-anchor="end" x="79" y="4.199999999999999" transform="translate(0,404.37)" style="font-family: 'Open Sans', verdana, arial, sans-serif; font-size: 12px; fill: rgb(42, 63, 95); fill-opacity: 1; white-space: pre; opacity: 1;">−50</text></g><g class="ytick"><text text-anchor="end" x="79" y="4.199999999999999" style="font-family: 'Open Sans', verdana, arial, sans-serif; font-size: 12px; fill: rgb(42, 63, 95); fill-opacity: 1; white-space: pre; opacity: 1;" transform="translate(0,365.01)">−45</text></g><g class="ytick"><text text-anchor="end" x="79" y="4.199999999999999" style="font-family: 'Open Sans', verdana, arial, sans-serif; font-size: 12px; fill: rgb(42, 63, 95); fill-opacity: 1; white-space: pre; opacity: 1;" transform="translate(0,325.65999999999997)">−40</text></g><g class="ytick"><text text-anchor="end" x="79" y="4.199999999999999" style="font-family: 'Open Sans', verdana, arial, sans-serif; font-size: 12px; fill: rgb(42, 63, 95); fill-opacity: 1; white-space: pre; opacity: 1;" transform="translate(0,286.31)">−35</text></g><g class="ytick"><text text-anchor="end" x="79" y="4.199999999999999" style="font-family: 'Open Sans', verdana, arial, sans-serif; font-size: 12px; fill: rgb(42, 63, 95); fill-opacity: 1; white-space: pre; opacity: 1;" transform="translate(0,246.96)">−30</text></g><g class="ytick"><text text-anchor="end" x="79" y="4.199999999999999" style="font-family: 'Open Sans', verdana, arial, sans-serif; font-size: 12px; fill: rgb(42, 63, 95); fill-opacity: 1; white-space: pre; opacity: 1;" transform="translate(0,207.61)">−25</text></g><g class="ytick"><text text-anchor="end" x="79" y="4.199999999999999" style="font-family: 'Open Sans', verdana, arial, sans-serif; font-size: 12px; fill: rgb(42, 63, 95); fill-opacity: 1; white-space: pre; opacity: 1;" transform="translate(0,168.26)">−20</text></g><g class="ytick"><text text-anchor="end" x="79" y="4.199999999999999" style="font-family: 'Open Sans', verdana, arial, sans-serif; font-size: 12px; fill: rgb(42, 63, 95); fill-opacity: 1; white-space: pre; opacity: 1;" transform="translate(0,128.9)">−15</text></g></g><g class="overaxes-above"/></g></g><g class="polarlayer"/><g class="smithlayer"/><g class="ternarylayer"/><g class="geolayer"/><g class="funnelarealayer"/><g class="pielayer"/><g class="iciclelayer"/><g class="treemaplayer"/><g class="sunburstlayer"/><g class="glimages"/><defs id="topdefs-9748ca"><g class="clips"/></defs><g class="layer-above"><g class="imagelayer"/><g class="shapelayer"/></g><g class="infolayer"><g class="g-gtitle"><text class="gtitle" x="350" y="50" text-anchor="middle" dy="0em" style="font-family: 'Open Sans', verdana, arial, sans-serif; font-size: 17px; fill: rgb(42, 63, 95); opacity: 1; font-weight: normal; white-space: pre;"><tspan class="line" dy="0em" x="350" y="50">Scenario 1</tspan><tspan class="line" dy="1.3em" x="350" y="50">Microgrid Output</tspan><tspan class="line" dy="2.6em" x="350" y="50">From: October 01, 2022 to October 31, 2022</tspan></text></g><g class="g-xtitle"><text class="xtitle" x="350" y="476.409375" text-anchor="middle" style="font-family: 'Open Sans', verdana, arial, sans-serif; font-size: 14px; fill: rgb(42, 63, 95); opacity: 1; font-weight: normal; white-space: pre;">Time</text></g><g class="g-ytitle"><text class="ytitle" transform="rotate(-90,33.840625,260)" x="33.840625" y="260" text-anchor="middle" style="font-family: 'Open Sans', verdana, arial, sans-serif; font-size: 14px; fill: rgb(42, 63, 95); opacity: 1; font-weight: normal; white-space: pre;">Demand (kW)</text></g></g></svg>