<svg class="main-svg" xmlns="http://www.w3.org/2000/svg" xmlns:xlink="http://www.w3.org/1999/xlink" width="700" height="500" style="" viewBox="0 0 700 500"><rect x="0" y="0" width="700" height="500" style="fill: rgb(255, 255, 255); fill-opacity: 1;"/><defs id="defs-846e1a"><g class="clips"><clipPath id="clip846e1axyplot" class="plotclip"><rect width="540" height="320"/></clipPath><clipPath class="axesclip" id="clip846e1ax"><rect x="80" y="0" width="540" height="500"/></clipPath><clipPath class="axesclip" id="clip846e1ay"><rect x="0" y="100" width="700" height="320"/></clipPath><clipPath class="axesclip" id="clip846e1axy"><rect x="80" y="100" width="540" height="320"/></clipPath></g><g class="gradients"/><g class="patterns"/></defs><g class="bglayer"/><g class="layer-below"><g class="imagelayer"/><g class="shapelayer"/></g><g class="cartesianlayer"><g class="subplot xy"><g class="layer-subplot"><g class="shapelayer"/><g class="imagelayer"/></g><g class="minor-gridlayer"><g class="x"/><g class="y"/></g><g class="gridlayer"><g class="x"><path class="xgrid crisp" transform="translate(170.03,0)" d="M0,100v320" style="stroke: rgb(255, 255, 255); stroke-opacity: 1; stroke-width: 1px;"/><path class="xgrid crisp" transform="translate(296.08000000000004,0)" d="M0,100v320" style="stroke: rgb(255, 255, 255); stroke-opacity: 1; stroke-width: 1px;"/><path class="xgrid crisp" transform="translate(422.12,0)" d="M0,100v320" style="stroke: rgb(255, 255, 255); stroke-opacity: 1; stroke-width: 1px;"/><path class="xgrid crisp" transform="translate(548.1600000000001,0)" d="M0,100v320" style="stroke: rgb(255, 255, 255); stroke-opacity: 1; stroke-width: 1px;"/></g><g class="y"><path class="ygrid crisp" transform="translate(0,399.04)" d="M80,0h540" style="stroke: rgb(255, 255, 255); stroke-opacity: 1; stroke-width: 1px;"/><path class="ygrid crisp" transform="translate(0,363.26)" d="M80,0h540" style="stroke: rgb(255, 255, 255); stroke-opacity: 1; stroke-width: 1px;"/><path class="ygrid crisp" transform="translate(0,327.49)" d="M80,0h540" style="stroke: rgb(255, 255, 255); stroke-opacity: 1; stroke-width: 1px;"/><path class="ygrid crisp" transform="translate(0,291.71000000000004)" d="M80,0h540" style="stroke: rgb(255, 255, 255); stroke-opacity: 1; stroke-width: 1px;"/><path class="ygrid crisp" transform="translate(0,220.16)" d="M80,0h540" style="stroke: rgb(255, 255, 255); stroke-opacity: 1; stroke-width: 1px;"/><path class="ygrid crisp" transform="translate(0,184.38)" d="M80,0h540" style="stroke: rgb(255, 255, 255); stroke-opacity: 1; stroke-width: 1px;"/><path class="ygrid crisp" transform="translate(0,148.6)" d="M80,0h540" style="stroke: rgb(255, 255, 255); stroke-opacity: 1; stroke-width: 1px;"/><path class="ygrid crisp" transform="translate(0,112.82)" d="M80,0h540" style="stroke: rgb(255, 255, 255); stroke-opacity: 1; stroke-width: 1px;"/></g></g><g class="zerolinelayer"><path class="yzl zl crisp" transform="translate(0,255.93)" d="M80,0h540" style="stroke: rgb(255, 255, 255); stroke-opacity: 1; stroke-width: 2px;"/></g><path class="xlines-below"/><path class="ylines-below"/><g class="overlines-below"/><g class="xaxislayer-below"/><g class="yaxislayer-below"/><g class="overaxes-below"/><g class="plot" transform="translate(80,100)" clip-path="url(#clip846e1axyplot)"><g class="scatterlayer mlayer"><g class="trace scatter trace518827" style="stroke-miterlimit: 2; opacity: 0.5;"><g class="fills"/><g class="errorbars"/><g class="lines"><path class="js-line" d="M0,155.92L0.75,155.93L0.94,166.59L1.31,183.76L1.69,182.15L1.88,182.71L2.25,181.15L2.44,182.84L2.63,183.36L3.56,181.16L3.75,181.26L3.94,182.04L4.31,181.1L4.5,181.38L4.69,181.07L5.06,271.48L5.44,198.85L5.63,195.37L6,181.21L6.19,258.02L7.5,155.87L7.69,155.89L8.25,155.94L8.44,157.78L8.82,153.93L9.19,155.92L9.38,156.06L9.94,155.89L10.13,157.96L10.5,153.97L10.88,156.02L11.07,157.91L11.44,153.97L12,155.93L12.19,156.04L14.25,155.94L14.44,155.92L18.38,155.92L18.57,160.65L18.94,182.61L19.32,180.84L19.51,181.41L19.69,182.24L19.88,181.47L20.07,180.29L20.26,180.13L20.44,180.95L20.63,181.34L21.19,180.19L21.38,181.36L21.57,181.49L22.32,180.23L22.51,181.15L22.7,181.43L22.88,180.32L23.63,282.01L23.82,191.71L24.2,202.02L24.76,199.59L24.95,197.33L26.45,155.79L26.63,155.71L26.82,155.92L27.01,157.89L27.76,153.91L27.95,155.72L28.13,156.22L28.89,155.73L29.07,156.03L33.39,155.93L33.57,191.98L33.76,203.04L34.32,201.73L34.51,201.83L34.89,201.48L35.26,201.82L35.45,197.43L36.2,180.1L36.39,180.55L36.58,180.79L37.51,180.38L37.7,180.58L37.89,180.62L38.83,180.05L39.01,180.3L40.14,179.9L40.33,269.14L40.89,179.86L41.08,180.51L41.26,181.11L42.01,226.11L42.2,214.99L42.39,200.23L43.52,155.88L43.7,155.88L45.02,155.84L45.2,157.97L45.58,154.03L46.14,155.93L46.33,155.96L46.89,155.95L47.08,126.91L47.27,59.38L47.83,100.54L48.02,97.24L48.2,100.79L48.39,120.26L48.77,157.77L49.33,155.94L49.52,155.94L54.96,155.93L55.14,167.45L55.33,180.86L55.89,179.88L56.08,180.1L57.02,179.78L57.21,180.09L57.58,179.78L57.77,179.43L59.08,179.91L59.27,181.06L60.02,206.91L60.21,200.01L60.4,195.53L60.58,183.07L60.77,257.41L61.15,238.1L61.33,156.03L62.27,155.87L62.46,157.73L62.83,153.98L63.02,155.89L63.21,157.89L63.58,153.95L64.15,155.67L64.33,155.95L65.27,155.75L65.46,158.18L65.84,154.06L66.21,155.84L66.4,155.96L67.71,155.89L67.9,157.85L68.65,154L68.84,156.01L69.59,155.93L69.77,189.22L70.15,221.58L70.52,202.54L70.71,202.34L71.46,201.88L71.65,201.99L71.84,202.1L72.78,201.92L72.96,202.41L73.71,202.01L73.9,201.64L74.28,201.76L74.46,281.08L74.65,270.76L74.84,180.91L75.4,179.97L75.78,180.12L75.96,268.85L76.71,179.58L76.9,179.78L77.09,180.33L77.28,269.75L77.65,177.77L77.84,174L78.21,155.84L78.59,155.92L78.78,167.27L78.96,201.45L79.15,154.83L79.34,155.86L79.53,157.84L79.9,153.92L80.28,155.87L80.47,155.95L80.84,155.92L81.03,157.86L81.59,153.94L81.97,155.94L82.15,88.58L82.34,25.63L82.9,41.62L83.09,54.48L84.03,156L84.22,155.98L85.34,155.93L85.53,157.89L86.09,153.97L86.47,155.92L86.66,155.93L87.22,155.92L87.41,158.99L87.59,204.86L88.16,203.08L88.34,199.36L89.09,180.65L89.28,181.11L89.47,181.47L90.41,180.69L90.59,181.04L90.78,181.13L94.53,179.83L94.72,178.2L94.91,264.58L95.28,168.16L95.47,157.38L96.41,155.85L96.6,155.78L98.47,155.94L98.66,155.92L99.41,27.63L99.6,32.34L99.78,126.93L99.97,131.48L100.16,51.72L101.47,129.38L101.66,141.74L102.22,155.99L102.6,155.92L102.79,155.92L108.79,155.95L108.98,157.77L109.73,182.26L109.91,182.19L110.1,181.38L110.66,181.36L110.85,182.33L111.79,181.21L111.98,181.9L112.16,271.37L112.73,267.57L112.91,174.51L113.1,173.49L113.29,181.78L113.48,183.12L113.66,172.6L114.23,160.32L114.41,251.14L114.6,236.8L115.16,154.77L115.73,155.87L115.92,155.77L116.85,155.93L117.04,155.92L118.35,156.11L118.54,155.93L120.04,155.96L120.23,196.27L120.6,205.96L120.98,202.62L121.17,191.5L121.92,182.49L122.1,183.58L122.67,186.23L122.86,185.53L123.04,184.44L124.17,180.78L124.36,180.35L125.86,180.9L126.04,269.93L126.42,269.9L126.61,181.3L127.54,180.62L127.73,180.68L128.67,180.8L128.86,180.56L129.04,270.3L129.61,180.68L129.8,180.89L130.17,180.46L130.36,180.91L130.55,181.45L130.73,180.66L130.92,185.04L131.11,194.88L131.48,181.29L131.67,266.2L132.05,256.29L132.23,163.44L133.36,179.72L133.55,285.26L133.92,241.31L134.11,155.38L134.48,156.41L135.05,156.04L135.23,155.94L136.17,156L136.36,156.17L136.55,157.91L136.73,167.66L136.92,281.81L137.49,193.91L137.67,197.83L138.61,206.37L138.8,206.29L138.99,205.05L140.11,203.31L140.3,203.59L141.05,203.72L141.24,193.99L141.99,180.7L142.17,180.77L142.36,180.69L143.11,180.69L143.3,180.82L143.67,180.44L143.86,269.4L144.05,270.03L144.24,181.03L144.43,180.31L144.99,181.03L145.18,180.77L145.55,180.86L145.74,180.25L145.93,180.28L146.3,180.78L146.68,180.49L146.86,180.7L147.8,180.09L147.99,180.22L148.55,179.56L148.74,267.07L148.93,264.67L149.11,171.95L150.24,155.7L150.43,155.96L152.3,155.93L152.49,155.94L152.68,156.28L152.87,155.57L153.24,155.92L153.43,38.11L153.99,67.83L154.18,64.27L154.37,41.62L155.87,157.8L156.43,155.95L156.62,155.93L162.24,155.93L162.43,175.22L162.62,180.67L163.18,180.6L163.37,180.1L165.24,179.5L165.43,268.23L165.62,268.81L165.81,179.84L166,178.98L166.18,267.97L166.37,268.62L166.56,179.47L167.31,170.44L167.5,244.6L167.87,155.66L168.43,155.87L168.62,155.87L168.81,157.84L169.18,153.93L169.37,155.91L169.56,155.96L170.87,155.95L171.06,157.89L172,153.99L172.18,155.98L172.56,74.05L172.94,85.07L173.12,98.84L174.25,156L174.44,155.95L174.62,156.02L176.69,155.93L176.87,155.93L178.19,155.93L178.37,157.16L178.75,201.3L179.31,200.99L179.5,201.05L180.44,200.18L180.63,200.45L181.38,200.77L181.56,190.34L181.75,178.99L182.31,179.34L182.5,179.04L182.88,179.2L183.06,178.57L183.25,178.68L183.44,179.26L183.81,178.64L184,178.54L184.75,177.19L184.94,173.98L185.31,167L185.5,242.97L186.25,155.83L186.44,156.01L186.63,157.82L187,153.86L187.38,155.89L187.57,155.87L187.75,155.99L187.94,157.87L188.32,153.98L188.88,155.69L189.07,155.95L189.25,158.02L189.44,155.83L189.63,71.47L189.82,25.31L190.38,59.47L190.57,93.39L190.75,156.78L191.32,154L191.5,155.92L193.19,155.93L193.38,155.93L198.26,155.94L198.44,166.68L199.01,179.8L199.38,179.41L199.57,179.58L200.69,178.74L200.88,178.93L201.07,179.31L201.44,178.81L201.82,179.06L202.01,267.6L202.95,175.42L203.13,173.87L204.45,155.86L204.63,153.9L205.38,155.93L205.57,155.87L205.76,155.9L206.88,155.91L207.07,23.29L207.26,16L207.63,21.15L207.82,25.98L208.95,80.92L209.14,93.32L210.26,157.93L210.64,153.96L210.82,155.94L216.26,155.94L216.45,161.67L217.01,179.63L217.39,179.56L217.58,179.62L218.7,179.01L218.89,179.29L219.26,178.98L219.64,179.33L219.83,179.21L220.76,176.8L220.95,173.8L222.26,155.87L222.45,155.86L222.83,153.9L223.01,157.85L223.2,153.93L224.14,155.92L224.33,155.91L224.89,155.92L225.08,33.22L225.64,104.6L225.83,21.21L226.95,75.55L227.14,155.96L227.52,156L227.7,154.06L228.27,156L228.45,155.94L228.64,155.93L235.02,155.93L235.21,164.3L235.39,180.28L235.96,179.33L236.14,179.63L237.65,179.49L237.83,179.13L238.58,178.07L238.77,177.51L239.15,173.72L239.33,178.79L239.52,177.13L239.71,163.68L240.46,155.86L240.65,155.9L240.83,157.86L241.02,153.92L241.58,155.91L241.77,155.79L243.27,155.92L243.46,155.95L243.65,156.04L243.83,127.97L244.4,70.53L244.77,82.53L244.96,91.79L245.71,157.44L245.9,156L246.09,154.06L246.65,155.92L246.84,155.94L252.09,155.93L252.28,160.84L253.21,180.31L253.4,180.08L254.71,180L254.9,179.63L256.03,179.07L256.21,178.85L256.59,179.42L256.78,178.57L256.96,182.46L257.34,195.72L257.53,184.73L257.71,168.93L257.9,247.71L258.28,156.3L258.46,155.86L260.72,155.83L260.9,157.92L261.65,153.99L261.84,155.94L262.03,155.97L262.59,155.9L262.78,74.8L264.65,156.02L264.84,155.94L268.22,155.93L268.41,179.13L268.59,201.59L269.16,201.19L269.34,201.1L270.28,200.69L270.47,200.96L270.84,200.96L271.03,190.96L271.97,179.67L272.16,179.74L272.53,180.34L272.91,179.72L273.09,179.96L274.03,179.61L274.22,269.03L274.78,178.87L274.97,181.95L275.16,190.34L275.35,193.57L275.53,183.7L276.47,155.85L276.66,155.87L276.85,157.85L277.22,153.92L277.41,155.83L278.53,155.93L278.72,157.86L279.1,153.94L279.47,155.93L279.66,155.96L280.03,56.09L280.41,69.62L280.6,70.63L282.1,156.05L282.47,155.96L282.66,155.91L288.66,155.93L288.85,166.65L289.04,180.25L289.6,180.23L289.79,180.23L290.91,179.52L291.1,179.35L291.48,178.84L291.66,179.18L291.85,179.72L292.6,179.46L292.79,178.6L293.73,168.38L293.91,158.31L294.1,244.14L294.48,155.86L294.66,194.44L294.85,155.33L295.23,183.91L295.42,154.63L296.35,155.93L296.54,156.05L297.67,155.98L297.85,155.99L299.92,155.96L300.1,155.99L302.73,155.94L302.92,190.72L303.11,204.32L303.67,203.77L303.86,202.49L304.04,201.56L304.61,201.95L304.79,201.89L304.98,201.89L305.17,196.36L306.11,180.25L306.29,180.25L307.61,180.33L307.79,180.17L308.92,179.74L309.11,179.79L310.05,179.82L310.23,179.78L310.61,178.6L310.8,266.95L311.17,264.33L311.36,271.16L312.3,155.86L312.48,155.96L315.3,155.95L315.48,151.39L316.05,47.08L316.61,69.85L316.8,86.57L316.99,98.13L317.17,156.48L317.55,154.05L317.74,155.99L317.92,155.99L318.11,158L318.67,153.95L319.05,155.91L319.24,155.94L320.17,155.92L320.36,158.27L320.74,204.44L321.11,196.78L321.3,186.56L322.24,180.08L322.42,180.43L323.36,180.07L323.55,179.88L324.68,180.35L324.86,180.37L325.8,180.55L325.99,180.52L326.93,180.11L327.11,180.18L327.3,180.45L327.68,179.85L327.86,179.78L328.24,180.07L328.43,179.87L328.61,269.05L329.55,165.12L329.74,156.08L329.93,155.86L330.11,200.51L330.3,201.33L330.49,154.94L331.43,155.9L331.62,155.9L332.93,155.92L333.12,133.84L333.49,19.72L333.68,111.45L334.05,122.15L334.24,40.61L334.99,86.31L335.18,109.97L336.3,156.05L336.49,155.95L338.93,155.89L339.12,155.93L339.31,155.95L339.49,157.89L339.68,202.04L340.24,180.76L340.43,180.69L341.37,180.19L341.56,180.51L343.62,180.24L343.81,180.1L346.62,179.72L346.81,179.16L347.56,166.35L347.75,156.33L347.93,155.88L348.12,213L348.31,215.98L348.5,193.28L348.68,154.6L349.25,155.88L349.43,155.91L350.93,155.94L351.12,157.89L351.31,155.93L351.5,41.78L351.68,25.78L352.06,39.08L352.25,135.46L352.62,153.72L352.81,74.66L354.31,155.99L354.69,155.93L354.87,155.94L361.63,155.94L361.81,158.2L362,179.88L362.56,179.25L362.75,179.09L363.88,179.65L364.06,179.35L364.81,178.32L365,265.86L365.38,175.42L365.75,179.37L365.94,175.77L366.69,155.73L366.88,157.87L367.06,153.95L367.63,157.78L367.82,153.92L368.38,156.24L368.75,156.03L368.94,155.87L369.13,157.62L369.32,153.77L369.69,156.13L369.88,156.17L370.82,156.03L371,149.7L371.19,135.42L371.57,155.76L371.75,156L373.44,155.93L373.63,155.94L375.51,155.93L375.69,169.99L375.88,202.09L376.44,201.37L376.63,201.39L376.82,201.35L377.01,191.41L377.57,180.56L377.94,180.68L378.13,180.33L379.07,180L379.26,180.23L380.19,179.37L380.38,268.07L381.32,178.47L381.51,178.34L382.07,179.14L382.45,178.92L382.63,178.88L382.82,267.03L383.2,171.85L383.38,170.79L383.57,174.32L383.76,172.64L383.95,161.76L384.13,155.92L384.32,250.78L384.51,249.73L384.7,156.02L386.2,155.92L386.38,155.92L386.57,155.91L386.76,157.88L387.13,153.93L387.51,155.94L387.7,155.95L388.07,155.95L388.26,157.92L388.63,154.07L388.82,158.03L389.01,155.99L389.2,156L389.57,156.03L389.76,154.02L390.7,157.91L390.89,155.92L391.07,155.93L391.26,153.99L392.2,155.92L392.39,155.93L393.32,155.94L393.51,165.43L393.7,180.92L394.26,179.82L394.45,179.67L399.14,179.35L399.33,178.92L399.7,179.02L399.89,267.63L400.08,267.97L400.26,179.04L400.83,177.64L401.01,173.98L401.58,174.67L402.7,155.78L402.89,157.9L403.27,192.66L403.64,172.43L403.83,154.05L404.77,155.91L404.95,155.9L406.27,155.93L406.45,133.05L406.64,82.64L407.2,110.66L407.39,119.41L408.14,155.99L408.52,155.93L408.7,155.94L415.08,155.93L415.27,169.34L415.46,180.48L416.02,180.19L416.21,179.88L416.77,180.76L416.96,179.98L418.65,180.16L418.83,179.26L419.4,175.11L419.58,257.32L419.96,235.71L420.15,155.94L420.71,155.88L420.9,157.83L421.27,153.93L421.83,155.91L422.02,155.89L422.4,155.92L422.58,157.89L423.52,153.98L423.71,155.95L424.08,155.91L424.27,99.36L424.46,61.18L425.02,91.98L425.21,103.81L426.34,155.99L426.52,155.94L426.71,155.92L428.21,155.93L428.4,157.91L428.96,153.97L429.34,155.93L429.52,155.93L431.4,155.93L431.59,174.66L431.77,180.54L432.34,180.09L432.53,179.99L433.46,180.02L433.65,180.24L434.78,179.31L434.96,179.47L435.15,179.7L435.53,179.82L435.71,168.02L435.9,167.55L436.09,179.54L436.65,179.43L436.84,267.78L437.78,157.29L437.96,155.85L440.22,155.92L440.4,157.89L441.15,152.04L441.34,68.13L441.72,25.62L441.9,41.49L442.09,68.93L442.47,53.11L442.65,79.99L442.84,88.38L443.03,155.93L443.22,156.01L443.4,154.07L444.34,155.99L444.53,155.66L444.72,156.18L445.28,155.93L445.47,155.93L450.72,155.93L450.91,173.81L451.47,180.46L451.84,179.94L452.03,268.88L452.22,269.21L452.41,180.2L453.16,179.6L453.34,180.06L453.53,180.02L454.66,178.69L454.85,267.89L455.78,157.8L455.97,155.86L456.72,155.87L456.91,157.84L457.28,153.93L457.66,155.9L457.85,156.5L458.03,155.32L458.6,155.93L458.78,155.91L459.53,155.93L459.72,67.27L459.91,41.27L460.47,63.17L460.66,71.56L461.22,114.04L461.41,137.7L461.97,156.01L462.35,155.99L462.54,155.92L463.29,155.94L463.47,157.89L463.85,153.98L464.41,155.88L464.6,155.89L465.35,155.97L465.54,227.01L465.72,271.38L465.91,181.2L466.1,181.78L466.29,182.05L466.66,180.18L466.85,180.62L467.04,183L467.22,182.64L467.41,180.36L467.6,180.46L467.79,168.5L467.97,167.92L468.16,180.07L468.35,179.94L468.54,181.42L468.73,182.12L468.91,180.65L469.1,180.11L470.6,179.89L470.79,179.65L471.91,179.9L472.1,179.46L472.48,167.62L472.85,178.73L473.04,177.33L473.41,173.93L473.6,257.11L473.79,246.75L473.98,156.23L474.91,155.87L475.1,157.85L476.23,153.92L476.42,155.93L476.6,155.94L476.79,158.52L477.17,153.97L477.73,155.93L477.92,155.93L481.48,155.93L481.67,157.9L482.04,272.51L482.23,182.78L482.42,183.24L482.61,183.6L482.79,182.53L482.98,181.96L483.17,181.92L483.36,169.39L483.54,168.72L483.73,181.37L485.42,179.97L485.61,180.28L486.54,180.31L486.73,180.2L487.67,180.67L487.86,180.22L488.04,268.82L488.42,179.89L488.61,179.62L488.98,180.23L489.54,179.73L489.73,179.7L490.86,179.18L491.05,177.17L491.61,171.79L491.8,179.41L491.98,188.24L492.17,176.06L492.36,158.99L492.73,182.4L492.92,169.44L493.11,155.94L494.8,155.87L494.98,158.4L495.17,153.76L495.73,157.6L495.92,153.99L496.48,158.21L496.67,156.06L496.86,153.97L497.24,156.09L497.8,156L497.99,155.94L498.74,155.93L498.92,256.44L499.11,304L499.3,292.19L499.49,203.56L499.67,204.11L499.86,203.95L500.05,202.59L500.8,203.54L500.99,202.52L501.55,202.73L501.74,202.26L501.92,201.5L502.49,200.08L502.67,200.24L502.86,193.68L503.99,167.9L504.18,167.67L504.36,179.61L504.93,179.55L505.11,179.5L506.24,179.6L506.43,179.33L506.61,179.52L506.8,168.13L507.74,155.93L507.93,155.93L509.43,155.93L509.61,169.84L510.18,277.11L510.36,170.01L511.11,155.73L511.3,155.93L511.49,157.86L511.68,155.89L511.87,174.86L512.05,180.19L512.24,154.16L512.62,157.52L512.8,155.89L512.99,153.85L513.93,155.98L514.12,155.97L514.87,155.96L515.05,158.02L515.43,154.08L515.99,155.98L516.18,155.97L520.87,155.94L521.06,167.92L521.62,179.36L521.81,179.3L521.99,178.97L524.43,179.03L524.62,178.77L524.99,179.46L525.37,178.7L525.56,178.71L525.93,178.81L526.12,178.49L526.31,178.02L526.87,178.64L527.06,177.19L527.25,173.85L527.43,177.56L527.62,276.48L528,285.24L528.18,190.94L528.93,156L529.12,158.8L529.31,240.51L529.5,226.91L529.68,155.55L530.62,155.91L530.81,156.01L531,157.86L531.18,155.87L531.37,155.93L531.56,154L532.5,156.08L532.68,155.99L534.19,155.97L534.37,157.92L534.94,153.97L535.31,155.92L535.5,155.78L536.44,155.93L536.62,155.94L540,155.93" style="vector-effect: non-scaling-stroke; fill: none; stroke: rgb(0, 191, 255); stroke-opacity: 1; stroke-width: 2px; opacity: 1;"/></g><g class="points"/><g class="text"/></g></g></g><g class="overplot"/><path class="xlines-above crisp" d="M0,0" style="fill: none;"/><path class="ylines-above crisp" d="M0,0" style="fill: none;"/><g class="overlines-above"/><g class="xaxislayer-above"><g class="xtick"><text text-anchor="middle" x="0" y="433" transform="translate(170.03,0)" style="font-family: 'Open Sans', verdana, arial, sans-serif; font-size: 12px; fill: rgb(42, 63, 95); fill-opacity: 1; white-space: pre; opacity: 1;"><tspan class="line" dy="0em" x="0" y="433">Nov 6</tspan><tspan class="line" dy="1.3em" x="0" y="433">2022</tspan></text></g><g class="xtick"><text text-anchor="middle" x="0" y="433" style="font-family: 'Open Sans', verdana, arial, sans-serif; font-size: 12px; fill: rgb(42, 63, 95); fill-opacity: 1; white-space: pre; opacity: 1;" transform="translate(296.08000000000004,0)">Nov 13</text></g><g class="xtick"><text text-anchor="middle" x="0" y="433" style="font-family: 'Open Sans', verdana, arial, sans-serif; font-size: 12px; fill: rgb(42, 63, 95); fill-opacity: 1; white-space: pre; opacity: 1;" transform="translate(422.12,0)">Nov 20</text></g><g class="xtick"><text text-anchor="middle" x="0" y="433" style="font-family: 'Open Sans', verdana, arial, sans-serif; font-size: 12px; fill: rgb(42, 63, 95); fill-opacity: 1; white-space: pre; opacity: 1;" transform="translate(548.1600000000001,0)">Nov 27</text></g></g><g class="yaxislayer-above"><g class="ytick"><text text-anchor="end" x="79" y="4.199999999999999" transform="translate(0,399.04)" style="font-family: 'Open Sans', verdana, arial, sans-serif; font-size: 12px; fill: rgb(42, 63, 95); fill-opacity: 1; white-space: pre; opacity: 1;">−80</text></g><g class="ytick"><text text-anchor="end" x="79" y="4.199999999999999" style="font-family: 'Open Sans', verdana, arial, sans-serif; font-size: 12px; fill: rgb(42, 63, 95); fill-opacity: 1; white-space: pre; opacity: 1;" transform="translate(0,363.26)">−60</text></g><g class="ytick"><text text-anchor="end" x="79" y="4.199999999999999" style="font-family: 'Open Sans', verdana, arial, sans-serif; font-size: 12px; fill: rgb(42, 63, 95); fill-opacity: 1; white-space: pre; opacity: 1;" transform="translate(0,327.49)">−40</text></g><g class="ytick"><text text-anchor="end" x="79" y="4.199999999999999" style="font-family: 'Open Sans', verdana, arial, sans-serif; font-size: 12px; fill: rgb(42, 63, 95); fill-opacity: 1; white-space: pre; opacity: 1;" transform="translate(0,291.71000000000004)">−20</text></g><g class="ytick"><text text-anchor="end" x="79" y="4.199999999999999" style="font-family: 'Open Sans', verdana, arial, sans-serif; font-size: 12px; fill: rgb(42, 63, 95); fill-opacity: 1; white-space: pre; opacity: 1;" transform="translate(0,255.93)">0</text></g><g class="ytick"><text text-anchor="end" x="79" y="4.199999999999999" style="font-family: 'Open Sans', verdana, arial, sans-serif; font-size: 12px; fill: rgb(42, 63, 95); fill-opacity: 1; white-space: pre; opacity: 1;" transform="translate(0,220.16)">20</text></g><g class="ytick"><text text-anchor="end" x="79" y="4.199999999999999" style="font-family: 'Open Sans', verdana, arial, sans-serif; font-size: 12px; fill: rgb(42, 63, 95); fill-opacity: 1; white-space: pre; opacity: 1;" transform="translate(0,184.38)">40</text></g><g class="ytick"><text text-anchor="end" x="79" y="4.199999999999999" style="font-family: 'Open Sans', verdana, arial, sans-serif; font-size: 12px; fill: rgb(42, 63, 95); fill-opacity: 1; white-space: pre; opacity: 1;" transform="translate(0,148.6)">60</text></g><g class="ytick"><text text-anchor="end" x="79" y="4.199999999999999" style="font-family: 'Open Sans', verdana, arial, sans-serif; font-size: 12px; fill: rgb(42, 63, 95); fill-opacity: 1; white-space: pre; opacity: 1;" transform="translate(0,112.82)">80</text></g></g><g class="overaxes-above"/></g></g><g class="polarlayer"/><g class="smithlayer"/><g class="ternarylayer"/><g class="geolayer"/><g class="funnelarealayer"/><g class="pielayer"/><g class="iciclelayer"/><g class="treemaplayer"/><g class="sunburstlayer"/><g class="glimages"/><defs id="topdefs-846e1a"><g class="clips"/></defs><g class="layer-above"><g class="imagelayer"/><g class="shapelayer"/></g><g class="infolayer"><g class="g-gtitle"><text class="gtitle" x="350" y="50" text-anchor="middle" dy="0em" style="font-family: 'Open Sans', verdana, arial, sans-serif; font-size: 17px; fill: rgb(42, 63, 95); opacity: 1; font-weight: normal; white-space: pre;"><tspan class="line" dy="0em" x="350" y="50">Scenario 5</tspan><tspan class="line" dy="1.3em" x="350" y="50">Microgrid Output</tspan><tspan class="line" dy="2.6em" x="350" y="50">From: November 01, 2022 to November 30, 2022</tspan></text></g><g class="g-xtitle"><text class="xtitle" x="350" y="476.409375" text-anchor="middle" style="font-family: 'Open Sans', verdana, arial, sans-serif; font-size: 14px; fill: rgb(42, 63, 95); opacity: 1; font-weight: normal; white-space: pre;">Time</text></g><g class="g-ytitle"><text class="ytitle" transform="rotate(-90,33.840625,260)" x="33.840625" y="260" text-anchor="middle" style="font-family: 'Open Sans', verdana, arial, sans-serif; font-size: 14px; fill: rgb(42, 63, 95); opacity: 1; font-weight: normal; white-space: pre;">Demand (kW)</text></g></g></svg>