<svg class="main-svg" xmlns="http://www.w3.org/2000/svg" xmlns:xlink="http://www.w3.org/1999/xlink" width="700" height="500" style="" viewBox="0 0 700 500"><rect x="0" y="0" width="700" height="500" style="fill: rgb(255, 255, 255); fill-opacity: 1;"/><defs id="defs-a994db"><g class="clips"><clipPath id="clipa994dbxyplot" class="plotclip"><rect width="540" height="320"/></clipPath><clipPath class="axesclip" id="clipa994dbx"><rect x="80" y="0" width="540" height="500"/></clipPath><clipPath class="axesclip" id="clipa994dby"><rect x="0" y="100" width="700" height="320"/></clipPath><clipPath class="axesclip" id="clipa994dbxy"><rect x="80" y="100" width="540" height="320"/></clipPath></g><g class="gradients"/><g class="patterns"/></defs><g class="bglayer"/><g class="layer-below"><g class="imagelayer"/><g class="shapelayer"/></g><g class="cartesianlayer"><g class="subplot xy"><g class="layer-subplot"><g class="shapelayer"/><g class="imagelayer"/></g><g class="minor-gridlayer"><g class="x"/><g class="y"/></g><g class="gridlayer"><g class="x"><path class="xgrid crisp" transform="translate(132.28,0)" d="M0,100v320" style="stroke: rgb(255, 255, 255); stroke-opacity: 1; stroke-width: 1px;"/><path class="xgrid crisp" transform="translate(254.25,0)" d="M0,100v320" style="stroke: rgb(255, 255, 255); stroke-opacity: 1; stroke-width: 1px;"/><path class="xgrid crisp" transform="translate(376.23,0)" d="M0,100v320" style="stroke: rgb(255, 255, 255); stroke-opacity: 1; stroke-width: 1px;"/><path class="xgrid crisp" transform="translate(498.21,0)" d="M0,100v320" style="stroke: rgb(255, 255, 255); stroke-opacity: 1; stroke-width: 1px;"/></g><g class="y"><path class="ygrid crisp" transform="translate(0,397.65)" d="M80,0h540" style="stroke: rgb(255, 255, 255); stroke-opacity: 1; stroke-width: 1px;"/><path class="ygrid crisp" transform="translate(0,348.15999999999997)" d="M80,0h540" style="stroke: rgb(255, 255, 255); stroke-opacity: 1; stroke-width: 1px;"/><path class="ygrid crisp" transform="translate(0,249.2)" d="M80,0h540" style="stroke: rgb(255, 255, 255); stroke-opacity: 1; stroke-width: 1px;"/><path class="ygrid crisp" transform="translate(0,199.70999999999998)" d="M80,0h540" style="stroke: rgb(255, 255, 255); stroke-opacity: 1; stroke-width: 1px;"/><path class="ygrid crisp" transform="translate(0,150.23)" d="M80,0h540" style="stroke: rgb(255, 255, 255); stroke-opacity: 1; stroke-width: 1px;"/></g></g><g class="zerolinelayer"><path class="yzl zl crisp" transform="translate(0,298.68)" d="M80,0h540" style="stroke: rgb(255, 255, 255); stroke-opacity: 1; stroke-width: 2px;"/></g><path class="xlines-below"/><path class="ylines-below"/><g class="overlines-below"/><g class="xaxislayer-below"/><g class="yaxislayer-below"/><g class="overaxes-below"/><g class="plot" transform="translate(80,100)" clip-path="url(#clipa994dbxyplot)"><g class="scatterlayer mlayer"><g class="trace scatter trace29e403" style="stroke-miterlimit: 2; opacity: 0.5;"><g class="fills"/><g class="errorbars"/><g class="lines"><path class="js-line" d="M0,198.68L6.53,198.28L6.72,199.13L7.62,198.12L7.81,197.99L7.99,199.57L8.53,198.91L8.71,198.74L9.08,198.38L9.44,198.83L9.62,198.88L10.89,198.71L11.07,198.74L12.71,198.69L12.89,238.86L13.79,303.87L13.98,300.96L14.16,301.14L14.34,300.73L14.52,300.43L14.88,300.23L15.07,300.88L15.25,299.06L15.61,293.92L16.15,294.61L16.34,295.03L16.88,263.18L17.43,264.18L17.61,263.51L17.79,266.11L18.15,262.34L18.33,263.14L18.51,263.89L19.97,261.93L20.15,262.61L20.33,262.99L20.51,261.74L20.69,261.83L20.87,262.54L21.24,261.19L21.42,261.74L21.6,261.98L21.96,260.83L22.14,261.34L22.33,274.48L22.51,281.8L22.69,263.02L22.87,247.81L23.05,251.31L23.23,246.75L23.42,227.15L23.78,198.39L24.32,198.83L24.5,198.32L25.41,198.56L25.59,199.08L26.68,198.76L26.86,198.91L27.77,198.82L27.95,198.73L30.13,198.65L30.31,257.31L31.04,274.2L31.22,270.66L31.4,275.24L32.13,304L32.31,302.83L32.49,298.33L33.58,294.55L33.76,295.19L33.94,295.98L34.31,294.77L34.49,295.5L34.67,295.33L34.85,295.07L35.03,295.74L35.21,296.1L35.58,294.37L35.76,279.18L36.67,262.16L36.85,262.41L37.03,263.04L37.39,261.75L37.57,262.47L37.75,262.64L37.94,261.72L38.3,262.99L38.48,262.38L38.66,262.44L38.84,263.07L39.03,262.64L39.21,261.47L39.57,260.3L39.75,253.77L41.2,198.47L41.38,198.73L42.47,198.32L42.66,198.88L43.56,198.55L43.74,199.07L43.93,198.35L44.47,198.73L44.65,198.89L45.56,198.66L45.74,198.94L47.19,198.7L47.37,198.65L51.19,198.69L51.37,198.68L55.72,198.68L55.91,212.53L56.09,263.37L56.81,262.48L56.99,260.8L57.54,225.41L57.72,202.52L58.63,198.3L58.81,198.32L59.54,199.15L59.72,198.84L59.9,198.38L62.26,198.8L62.44,198.66L63.35,198.82L63.53,198.89L64.98,198.72L65.16,198.64L68.07,198.68L68.25,198.67L69.7,198.68L69.88,262.36L70.61,268.94L70.79,264.86L70.97,265.38L71.15,265.69L71.33,264.59L71.52,264.01L72.42,264.9L72.61,264.63L72.79,264.21L72.97,267.82L73.15,268.16L73.33,263.83L73.51,263.79L73.69,265.02L74.42,262.96L74.6,264.52L74.78,270.43L74.96,257.99L75.15,219.2L75.87,198.4L76.05,198.66L76.24,199.09L76.42,198.12L76.96,199.05L77.14,198.63L77.32,197.68L77.51,198.87L77.69,197.99L77.87,199.14L78.23,197.85L78.41,198.68L78.59,199.28L79.68,198.66L79.87,199.05L80.05,197.55L80.23,199.2L80.59,199.04L80.77,198.89L82.04,198.67L82.23,198.67L88.03,198.68L88.22,229.59L88.58,264.63L89.12,262.79L89.3,262.87L89.49,262.35L90.03,262.57L90.21,262.94L90.57,262.29L90.76,261.9L90.94,262.65L91.3,261.53L91.48,261.47L91.66,263.96L91.85,261.37L92.03,252.78L92.39,274.8L92.75,260.69L92.93,249.51L93.84,211.38L94.02,198.29L94.39,197.79L94.75,199.12L94.93,198.43L95.48,198.89L95.66,197.78L96.02,199.78L96.38,198.54L96.56,198.58L97.84,198.52L98.02,198.52L98.92,198.77L99.11,198.69L102.37,198.66L102.55,278.7L102.92,296.43L103.46,295.82L103.64,295.52L104.01,297.19L104.19,296.08L104.37,294.79L104.55,295.07L104.73,289.49L105.46,264.39L105.64,264.76L105.82,265.53L106.73,262.96L106.91,263.14L107.09,263.26L107.46,261.95L107.64,263.25L107.82,263.72L108.18,261.53L108.73,261.82L108.91,262.49L109.09,262.14L109.27,259.21L110,224.2L110.18,205.04L110.72,198L111.09,198.64L111.27,198.63L112.54,198.35L112.72,199.5L113.26,200.21L113.63,197.71L113.81,199.01L113.99,199.8L114.17,198.56L114.35,199.29L114.53,198.7L114.72,197.4L115.08,198.95L115.26,198.94L123.61,198.68L123.79,234L123.97,263.4L124.7,262.28L124.88,260.99L125.97,258.79L126.15,259.63L126.33,263.19L126.51,263.7L126.7,259.34L126.88,258.28L127.06,270.95L127.24,274.44L127.42,250.96L127.97,198.49L128.51,198.52L128.69,198.52L133.41,198.84L133.59,198.79L135.77,198.67L135.95,198.84L137.41,198.68L137.59,198.68L140.67,198.68L140.85,236.96L141.04,261.3L141.76,260.16L141.94,260.67L142.85,259.45L143.03,259.17L143.21,258.5L143.39,259.44L143.58,260.6L144.48,252.68L144.67,256.1L144.85,246.12L145.57,198.52L145.75,198.6L145.94,198.54L149.38,198.83L149.57,198.93L152.65,198.66L152.83,198.69L159.01,198.69L159.19,255.8L159.37,257.65L159.91,257.15L160.09,256.17L161.18,257.93L161.36,257.33L161.55,256.4L161.73,250.2L163.18,198.52L163.36,198.52L168.99,198.7L169.17,198.66L176.07,198.68L176.25,198.68L180.06,198.62L180.24,233.31L180.42,266.11L180.79,245.69L180.97,220.54L181.88,198.46L182.06,198.74L182.42,199.1L182.6,198.3L182.78,198.82L182.96,198.99L183.51,198.38L183.69,198.64L183.87,198.96L184.05,199.22L184.24,198.58L184.6,198.83L184.78,198.67L187.14,198.67L187.32,250.09L187.68,264.92L188.23,264.82L188.41,264.59L188.59,263.64L188.77,264.05L188.95,270.25L189.14,281.91L189.5,260.76L189.68,259.74L190.04,260.51L190.23,259.79L190.41,259.1L190.77,258.78L190.95,257.6L191.13,256.93L191.31,257.85L191.5,258.56L192.22,258.25L192.4,257.86L192.77,259.77L193.13,258.17L193.31,257.9L193.49,256.89L193.67,257.94L193.86,259.54L194.76,257.5L194.94,273.25L195.13,288.82L195.49,265.1L195.67,256.73L196.4,263.72L196.58,278.95L196.76,294.23L197.3,288.81L197.49,289.44L198.57,261.48L198.76,231.68L199.48,198.49L199.66,198.76L199.85,198.59L200.57,198.53L200.75,199.24L201.48,197.92L201.66,198.9L201.84,198.76L206.74,198.66L206.92,198.68L207.47,198.69L207.65,217.27L207.83,258.62L208.56,258.17L208.74,257.07L208.92,257.04L209.1,258.59L209.28,258.5L209.47,257.16L210.37,258.65L210.55,259.32L210.92,256.65L211.46,257.29L211.64,258.68L211.83,258.49L212.01,256.63L212.37,257.91L212.55,257.39L212.73,256.72L213.64,258.34L213.82,257.11L214.18,251.18L214.37,259.06L214.55,253.21L214.73,222.13L215.64,198.51L215.82,198.51L218.54,198.77L218.72,198.78L228.71,198.69L228.89,207.05L229.25,255.89L229.79,255.55L229.98,256.28L230.34,253.88L230.88,254.97L231.07,256.58L231.25,258.73L231.43,257.89L231.61,253.96L231.79,257.83L231.97,247.04L232.15,215.35L232.52,198.47L233.06,198.56L233.24,198.53L238.14,198.84L238.33,198.74L241.23,198.68L241.41,198.68L260.83,198.69L261.02,258.31L261.74,253.5L261.92,252.17L262.29,254.28L262.83,253.8L263.01,253.57L263.56,258.11L263.74,255.05L263.92,252.27L264.83,252.85L265.01,252.24L265.19,252.12L265.37,254.56L265.73,258.59L266.1,255.48L266.28,250.3L266.82,230.13L267.01,207.6L267.91,198.37L268.09,198.96L268.28,198.26L268.82,198.42L269,198.55L269.36,199.29L269.55,198.45L270.27,199.12L270.45,198.26L271.54,198.92L271.72,198.8L272.81,198.76L272.99,198.95L274.45,198.67L274.63,198.69L280.62,198.68L280.8,252.66L281.16,258.79L281.53,253.36L281.71,253.02L282.25,254.43L282.43,254.22L282.62,252.97L283.34,257.28L283.52,256.75L283.7,254.05L284.43,198.43L285.16,198.62L285.34,198.42L286.97,198.36L287.15,199.19L287.7,198.12L287.88,198.48L288.06,199.24L288.61,198.31L288.79,198.66L288.97,199.53L289.51,198.52L289.88,198.82L290.06,198.82L295.14,198.68L295.32,198.71L299.86,198.67L300.04,198.69L300.4,198.68L300.58,221.8L300.95,258.36L301.31,251.49L301.49,241.68L302.4,198.48L302.58,198.49L302.76,198.5L308.39,198.68L308.57,198.69L322.37,198.67L322.55,198.73L324,198.76L324.18,198.77L326.54,198.67L326.72,198.68L337.79,198.91L337.98,199.44L338.16,197.68L338.7,198.61L338.88,198.62L352.5,198.69L352.68,198.68L364.3,198.68L364.48,198.68L373.19,198.72L373.37,199.31L373.73,198.18L374.1,198.66L374.28,199.08L375.19,198.48L375.37,198.69L376.82,198.99L377,198.69L378.82,198.71L379,198.66L386.08,198.7L386.26,198.66L391.89,198.79L392.07,198.48L392.61,199.04L392.97,198.73L393.16,198.53L394.06,198.91L394.25,198.71L395.52,198.71L395.7,198.65L400.42,198.68L400.6,198.67L413.12,198.72L413.3,198.63L416.39,198.68L416.57,198.68L428.19,198.78L428.37,106.3L428.55,16L429.1,96.16L429.28,126.59L429.82,198.83L430.37,198.67L430.55,198.6L431.82,198.68L432,198.71L434.36,198.68L434.54,198.69L444.34,198.58L444.52,199.15L445.43,198.32L445.61,198.57L445.79,198.8L446.34,198.66L446.52,199.1L446.7,199.17L447.61,198.69L447.79,198.73L448.7,198.62L448.88,198.69L453.42,198.69L453.6,198.68L462.86,198.69L463.04,198.91L472.48,198.66L472.66,242.52L473.38,255.92L473.57,255.86L473.75,256.92L473.93,257.02L474.11,255.92L474.29,255.83L474.47,256.26L474.66,256.49L475.02,255.44L475.2,256.92L475.38,258.72L475.56,251.65L476.47,198.58L476.83,198.73L477.02,198.31L477.56,198.93L477.74,198.31L477.92,197.87L478.83,198.77L479.01,198.61L479.19,198.76L479.37,199.99L479.56,197.16L480.1,197.7L480.28,198.68L480.46,199.69L480.83,198.17L481.01,198.26L481.55,199.08L481.73,198.94L481.92,198.74L484.46,198.68L484.64,198.69L491.9,198.67L492.08,251.29L493.17,257.82L493.35,252.56L494.62,198.53L494.8,198.49L495.71,198.7L495.89,198.6L497.34,199.33L497.53,198.76L497.71,198.41L498.25,198.94L498.62,198.64L498.8,198.78L499.89,198.68L500.07,198.72L500.43,198.67L500.61,215.17L501.52,262.98L501.7,262.44L502.25,259.99L502.61,261.04L502.79,260.2L503.52,254.82L503.7,256.06L503.88,256.98L504.79,254.89L504.97,255.8L505.33,255.23L505.69,258.4L505.88,257.46L506.06,255.21L506.42,257.4L506.78,255.99L506.96,256.09L507.15,257.47L507.51,255.3L507.69,255.66L508.05,253.83L508.42,255.18L508.6,258.01L509.14,254.49L509.32,254.93L509.51,255.89L510.41,254.09L510.59,242.57L511.14,225.85L511.32,209.4L511.68,218.38L511.87,209.11L512.05,203.56L512.77,198.49L512.95,198.57L513.14,198.82L517.31,198.68L517.49,203.95L517.67,264.71L518.4,261.67L518.58,260.87L518.94,267.48L519.13,265.79L519.31,261.46L519.49,262.45L519.85,260.79L520.03,261.16L520.22,262.08L520.4,260.47L520.58,257.51L520.76,256.16L520.94,257.98L521.3,257.42L521.49,257.21L522.39,255L522.57,255.87L522.94,257.67L523.3,256.24L523.48,256.57L524.39,255.19L524.57,256.76L524.75,257.93L524.93,256.22L525.12,255.35L525.3,255.73L525.48,255.08L525.66,254.19L526.39,255.8L526.57,257.84L526.75,258.75L527.11,257.63L527.29,257.26L527.48,256.78L527.66,258.26L527.84,254.03L528.75,206.18L528.93,214.24L529.11,233.74L529.29,238.45L529.47,227.81L529.65,205.99L530.56,198.37L530.74,198.7L531.11,199.08L531.29,198.6L531.47,226.61L531.83,198.56L532.56,198.66L532.74,198.48L533.47,199.32L533.65,211.14L534.92,268L535.1,267.77L535.28,264.82L536.37,262.3L536.55,263.96L536.73,267.64L537.1,262.83L537.28,263.27L538.37,256.61L538.55,258.15L538.73,259.98L539.27,255.92L539.64,256.84L539.82,257.22L540,258.17" style="vector-effect: non-scaling-stroke; fill: none; stroke: rgb(0, 191, 255); stroke-opacity: 1; stroke-width: 2px; opacity: 1;"/></g><g class="points"/><g class="text"/></g></g></g><g class="overplot"/><path class="xlines-above crisp" d="M0,0" style="fill: none;"/><path class="ylines-above crisp" d="M0,0" style="fill: none;"/><g class="overlines-above"/><g class="xaxislayer-above"><g class="xtick"><text text-anchor="middle" x="0" y="433" transform="translate(132.28,0)" style="font-family: 'Open Sans', verdana, arial, sans-serif; font-size: 12px; fill: rgb(42, 63, 95); fill-opacity: 1; white-space: pre; opacity: 1;"><tspan class="line" dy="0em" x="0" y="433">Dec 4</tspan><tspan class="line" dy="1.3em" x="0" y="433">2022</tspan></text></g><g class="xtick"><text text-anchor="middle" x="0" y="433" style="font-family: 'Open Sans', verdana, arial, sans-serif; font-size: 12px; fill: rgb(42, 63, 95); fill-opacity: 1; white-space: pre; opacity: 1;" transform="translate(254.25,0)">Dec 11</text></g><g class="xtick"><text text-anchor="middle" x="0" y="433" style="font-family: 'Open Sans', verdana, arial, sans-serif; font-size: 12px; fill: rgb(42, 63, 95); fill-opacity: 1; white-space: pre; opacity: 1;" transform="translate(376.23,0)">Dec 18</text></g><g class="xtick"><text text-anchor="middle" x="0" y="433" style="font-family: 'Open Sans', verdana, arial, sans-serif; font-size: 12px; fill: rgb(42, 63, 95); fill-opacity: 1; white-space: pre; opacity: 1;" transform="translate(498.21,0)">Dec 25</text></g></g><g class="yaxislayer-above"><g class="ytick"><text text-anchor="end" x="79" y="4.199999999999999" transform="translate(0,397.65)" style="font-family: 'Open Sans', verdana, arial, sans-serif; font-size: 12px; fill: rgb(42, 63, 95); fill-opacity: 1; white-space: pre; opacity: 1;">−20</text></g><g class="ytick"><text text-anchor="end" x="79" y="4.199999999999999" style="font-family: 'Open Sans', verdana, arial, sans-serif; font-size: 12px; fill: rgb(42, 63, 95); fill-opacity: 1; white-space: pre; opacity: 1;" transform="translate(0,348.15999999999997)">−10</text></g><g class="ytick"><text text-anchor="end" x="79" y="4.199999999999999" style="font-family: 'Open Sans', verdana, arial, sans-serif; font-size: 12px; fill: rgb(42, 63, 95); fill-opacity: 1; white-space: pre; opacity: 1;" transform="translate(0,298.68)">0</text></g><g class="ytick"><text text-anchor="end" x="79" y="4.199999999999999" style="font-family: 'Open Sans', verdana, arial, sans-serif; font-size: 12px; fill: rgb(42, 63, 95); fill-opacity: 1; white-space: pre; opacity: 1;" transform="translate(0,249.2)">10</text></g><g class="ytick"><text text-anchor="end" x="79" y="4.199999999999999" style="font-family: 'Open Sans', verdana, arial, sans-serif; font-size: 12px; fill: rgb(42, 63, 95); fill-opacity: 1; white-space: pre; opacity: 1;" transform="translate(0,199.70999999999998)">20</text></g><g class="ytick"><text text-anchor="end" x="79" y="4.199999999999999" style="font-family: 'Open Sans', verdana, arial, sans-serif; font-size: 12px; fill: rgb(42, 63, 95); fill-opacity: 1; white-space: pre; opacity: 1;" transform="translate(0,150.23)">30</text></g><g class="ytick"><text text-anchor="end" x="79" y="4.199999999999999" style="font-family: 'Open Sans', verdana, arial, sans-serif; font-size: 12px; fill: rgb(42, 63, 95); fill-opacity: 1; white-space: pre; opacity: 1;" transform="translate(0,100.75)">40</text></g></g><g class="overaxes-above"/></g></g><g class="polarlayer"/><g class="smithlayer"/><g class="ternarylayer"/><g class="geolayer"/><g class="funnelarealayer"/><g class="pielayer"/><g class="iciclelayer"/><g class="treemaplayer"/><g class="sunburstlayer"/><g class="glimages"/><defs id="topdefs-a994db"><g class="clips"/></defs><g class="layer-above"><g class="imagelayer"/><g class="shapelayer"/></g><g class="infolayer"><g class="g-gtitle"><text class="gtitle" x="350" y="50" text-anchor="middle" dy="0em" style="font-family: 'Open Sans', verdana, arial, sans-serif; font-size: 17px; fill: rgb(42, 63, 95); opacity: 1; font-weight: normal; white-space: pre;"><tspan class="line" dy="0em" x="350" y="50">Scenario 3</tspan><tspan class="line" dy="1.3em" x="350" y="50">Microgrid Output</tspan><tspan class="line" dy="2.6em" x="350" y="50">From: December 01, 2022 to December 31, 2022</tspan></text></g><g class="g-xtitle"><text class="xtitle" x="350" y="476.409375" text-anchor="middle" style="font-family: 'Open Sans', verdana, arial, sans-serif; font-size: 14px; fill: rgb(42, 63, 95); opacity: 1; font-weight: normal; white-space: pre;">Time</text></g><g class="g-ytitle"><text class="ytitle" transform="rotate(-90,33.840625,260)" x="33.840625" y="260" text-anchor="middle" style="font-family: 'Open Sans', verdana, arial, sans-serif; font-size: 14px; fill: rgb(42, 63, 95); opacity: 1; font-weight: normal; white-space: pre;">Demand (kW)</text></g></g></svg>